<svg width="580" height="580" viewBox="0 0 580 580" fill="none" xmlns="http://www.w3.org/2000/svg">
<g clip-path="url(#clip0)">
<path d="M66.275 1.76799C24.94 1.76799 1.70399 23.139 1.70399 66.804V516.927C1.70399 557.771 22.599 579.156 63.896 579.156H515.92C557.227 579.156 578.149 558.841 578.149 516.927V66.804C578.149 24.203 557.227 1.76799 514.628 1.76799C514.624 1.76799 66.133 1.62499 66.275 1.76799Z" fill="#111111" stroke="#EEEEEE" stroke-width="3.408"/>
<path d="M97.959 132.678C83.5331 132.678 71.9199 144.291 71.9199 158.717V396.328C71.9199 410.754 83.5331 422.367 97.959 422.367H482.041C496.467 422.367 508.08 410.754 508.08 396.328V158.717C508.08 144.291 496.467 132.678 482.041 132.678H97.959ZM106.639 165.538H473.361V204.596H106.639V165.538ZM106.639 287.056H473.361V391.213H106.639V287.056Z" fill="white"/>
</g>
<defs>
<clipPath id="clip0">
<rect width="580" height="580" fill="white"/>
</clipPath>
</defs>
</svg>
