<?xml version="1.0" encoding="UTF-8" standalone="no"?>
<svg
   xmlns:dc="http://purl.org/dc/elements/1.1/"
   xmlns:cc="http://creativecommons.org/ns#"
   xmlns:rdf="http://www.w3.org/1999/02/22-rdf-syntax-ns#"
   xmlns:svg="http://www.w3.org/2000/svg"
   xmlns="http://www.w3.org/2000/svg"
   xmlns:sodipodi="http://sodipodi.sourceforge.net/DTD/sodipodi-0.dtd"
   xmlns:inkscape="http://www.inkscape.org/namespaces/inkscape"
   width="1060"
   height="1060"
   id="svg2"
   version="1.1"
   inkscape:version="0.48.4 r9939"
   sodipodi:docname="landmark_water_tower.svg">
  <defs
     id="defs13">
    <inkscape:path-effect
       effect="gears"
       id="path-effect3774"
       is_visible="true"
       teeth="6"
       phi="-1.2" />
    <inkscape:path-effect
       effect="bend_path"
       id="path-effect3772"
       is_visible="false"
       bendpath="m 95.790098,316.51174 c 144.429032,-206.42506 223.313032,-11.7428 339.548092,0"
       prop_scale="1.19"
       scale_y_rel="false"
       vertical="false"
       bendpath-nodetypes="cc" />
  </defs>
  <sodipodi:namedview
     pagecolor="#ffffff"
     bordercolor="#666666"
     borderopacity="1"
     objecttolerance="10"
     gridtolerance="10"
     guidetolerance="10"
     inkscape:pageopacity="0"
     inkscape:pageshadow="2"
     inkscape:window-width="1920"
     inkscape:window-height="1004"
     id="namedview11"
     showgrid="false"
     inkscape:zoom="0.8137931"
     inkscape:cx="577.68314"
     inkscape:cy="646.98718"
     inkscape:window-x="1680"
     inkscape:window-y="0"
     inkscape:window-maximized="1"
     inkscape:current-layer="svg2"
     inkscape:snap-object-midpoints="true"
     inkscape:snap-center="true" />
  <metadata
     id="metadata2975">image/svg+xmlen<rdf:RDF>
  <cc:Work
     rdf:about="">
    <dc:format>image/svg+xml</dc:format>
    <dc:type
       rdf:resource="http://purl.org/dc/dcmitype/StillImage" />
    <dc:title></dc:title>
  </cc:Work>
</rdf:RDF>
</metadata>
  <path
     sodipodi:type="inkscape:offset"
     inkscape:radius="32.02269"
     inkscape:original="M 607.96875 291.96875 A 8.2083956 8.2083956 0 0 0 599.71875 300.46875 L 599.71875 319.5 C 591.71806 322.191 582.82644 322.68248 574.84375 319.59375 C 564.67379 316.37224 553.65583 311.88907 543.03125 315.75 C 532.83946 318.61872 521.67955 323.20206 511.125 319.09375 C 504.32833 317.06009 497.75077 313.40355 490.4375 313.59375 C 477.23771 314.37755 465.79955 324.61718 452.1875 322 C 441.80317 320.08569 432.02868 312.33718 421.09375 315.8125 C 419.12838 316.27025 417.18927 316.83209 415.28125 317.46875 L 415.28125 300.46875 A 8.2083956 8.2083956 0 0 0 406.96875 292.15625 A 8.2083956 8.2083956 0 0 0 398.875 300.46875 L 398.875 451.21875 A 8.2083956 8.2083956 0 0 0 407.09375 459.4375 L 430.40625 459.4375 L 419.4375 724.0625 L 342.40625 724.0625 L 342.40625 747.09375 L 463.40625 747.09375 C 468.58547 767.80534 487.39337 783.25 509.65625 783.25 C 531.91913 783.25 550.75443 767.80534 555.9375 747.09375 L 676.875 747.09375 L 676.875 724.0625 L 597.8125 724.0625 L 586 459.4375 L 607.9375 459.4375 A 8.2083956 8.2083956 0 0 0 616.125 451.21875 L 616.125 300.46875 A 8.2083956 8.2083956 0 0 0 607.96875 291.96875 z M 415.28125 441.59375 C 415.8985 442.10877 416.55561 442.58601 417.25 443 L 415.28125 443 L 415.28125 441.59375 z M 599.71875 441.625 L 599.71875 443 L 597.75 443 C 598.43538 442.59207 599.10833 442.13138 599.71875 441.625 z M 452.28125 459.4375 L 564.15625 459.4375 L 565.03125 479.375 L 507.4375 523.96875 L 451.40625 480.59375 L 452.28125 459.4375 z M 565.625 492.71875 L 569.15625 571.78125 L 516.34375 530.875 L 565.625 492.71875 z M 450.84375 494 L 498.5 530.875 L 447.6875 570.21875 L 450.84375 494 z M 507.4375 537.78125 L 567.6875 584.4375 L 507.21875 636.96875 L 447.09375 584.71875 L 447.09375 584.46875 L 507.4375 537.78125 z M 570.25 596.6875 L 574.6875 695.5625 L 515.5625 644.1875 L 570.25 596.6875 z M 446.5 598.6875 L 498.875 644.1875 L 442.59375 693.09375 L 446.5 598.6875 z M 507.21875 651.4375 L 575.34375 710.625 L 575.9375 724.0625 L 555.9375 724.0625 C 550.74559 703.36341 531.91023 687.90625 509.65625 687.90625 C 487.40227 687.90625 468.5943 703.36341 463.40625 724.0625 L 441.3125 724.0625 L 441.96875 708.09375 L 507.21875 651.4375 z M 509.65625 705.0625 C 526.6108 705.0625 540.1875 718.6392 540.1875 735.59375 C 540.1875 752.5483 526.6108 766.09375 509.65625 766.09375 C 492.7017 766.09375 479.15625 752.5483 479.15625 735.59375 C 479.15625 718.6392 492.7017 705.0625 509.65625 705.0625 z "
     style="opacity:0.372;color:#000000;fill:#e4e4e4;fill-opacity:1;fill-rule:nonzero;stroke:#a35151;stroke-width:0;stroke-linecap:round;stroke-linejoin:miter;stroke-miterlimit:4;stroke-opacity:1;stroke-dasharray:none;stroke-dashoffset:0;marker:none;visibility:visible;display:inline;overflow:visible;enable-background:accumulate"
     id="path4245"
     d="m 608.15625,259.9375 c 3.19909,0.0182 -18.76245,4.39413 -15.8125,3.15625 2.94995,-1.23788 -15.50937,11.35814 -13.28125,9.0625 1.72973,-1.78214 -4.99941,8.90426 -7.625,12.5 -9.44151,-2.68905 -22.19991,-4.4291 -37.0625,0.34375 l -0.0312,-0.0625 c -12.8861,3.6271 -15.65234,2.73271 -11.59375,4.3125 a 32.025892,32.025892 0 0 0 -2.4375,-0.84375 c -2.13332,-0.63832 -12.24349,-7.293 -30.71875,-6.8125 a 32.025892,32.025892 0 0 0 -1.0625,0.0312 c -14.29039,0.84856 -23.35523,5.6085 -28.3125,7.46875 -2.10684,0.79061 -2.79042,0.94499 -3.1875,1.0625 -0.15652,-0.14885 -2.9419,-1.24023 -9.84375,-3.59375 -0.80606,-0.27486 -1.93933,-0.53085 -2.875,-0.8125 0.0323,-0.0571 -0.0645,-0.76675 0.0312,-0.53125 1.19362,2.93448 -11.05258,-15.55258 -8.8125,-13.3125 2.24008,2.24008 -16.24698,-10.00612 -13.3125,-8.8125 2.93448,1.19362 -18.82394,-2.92831 -15.65625,-2.96875 a 32.025892,32.025892 0 0 0 -0.0312,0 c 3.11479,-0.0433 -18.20523,4.5124 -15.34375,3.28125 2.86148,-1.23115 -15.11064,11.13812 -12.9375,8.90625 2.17314,-2.23187 -9.68567,16.04953 -8.53125,13.15625 1.07714,-2.69961 -2.22784,15.04447 -2.71875,15 l -0.15625,0 0,0.40625 0,150.3125 0,0.0312 c 0.0406,-2.89584 4.25031,18.24776 3.0625,15.375 -1.19303,-2.88538 10.92655,15.30155 8.71875,13.09375 -2.2078,-2.2078 15.97913,9.91178 13.09375,8.71875 -1.16433,-0.48142 1.86267,0.003 5.40625,0.65625 l -8.40625,202.96875 -46.3125,0 A 32.025892,32.025892 0 0 0 310.375,724.0625 l 0,23.03125 a 32.025892,32.025892 0 0 0 32.03125,32.03125 l 100.59375,0 c 14.29563,21.78706 38.92236,36.15625 66.65625,36.15625 27.74952,0 52.41669,-14.34713 66.71875,-36.15625 l 100.5,0 a 32.025892,32.025892 0 0 0 32.03125,-32.03125 l 0,-23.03125 A 32.025892,32.025892 0 0 0 676.875,692.03125 l -48.4375,0 -9.0625,-203.25 c 2.81354,-0.50103 5.03088,-0.82292 4.03125,-0.40625 -2.87499,1.19836 15.19826,-10.95665 13,-8.75 -2.19826,2.20665 9.90615,-15.94203 8.71875,-13.0625 -1.18221,2.86694 2.9908,-18.23256 3.03125,-15.34375 1.8e-4,0.0127 -2e-5,-0.0449 0,-0.0312 l 0,-150.71875 -0.5,0 c -0.9222,-3.56855 -3.08026,-17.04597 -2.15625,-14.625 1.13268,2.96767 -10.76179,-15.82323 -8.5625,-13.53125 2.19929,2.29198 -16.04341,-10.3479 -13.125,-9.09375 2.91841,1.25415 -18.83268,-3.29942 -15.65625,-3.28125 z M 507.4375,578.25 l 9.78125,7.59375 -10,8.71875 -9.8125,-8.53125 10.03125,-7.78125 z m 2.21875,155.8125 c 0.10131,0 1.53125,1.42994 1.53125,1.53125 0,0.10131 -1.39059,1.5 -1.53125,1.5 -0.14066,0 -1.5,-1.35934 -1.5,-1.5 0,-0.14066 1.39869,-1.53125 1.5,-1.53125 z" />
  <path
     sodipodi:type="arc"
     style="color:#000000;fill:none;stroke:#000000;stroke-width:30.33652288;stroke-linecap:butt;stroke-linejoin:miter;stroke-miterlimit:4;stroke-opacity:1;stroke-dasharray:none;stroke-dashoffset:0;marker:none;visibility:visible;display:inline;overflow:visible;enable-background:accumulate"
     id="path2985"
     sodipodi:cx="510.26483"
     sodipodi:cy="737.74365"
     sodipodi:rx="69.120766"
     sodipodi:ry="69.120766"
     d="m 579.3856,737.74365 a 69.120766,69.120766 0 1 1 -138.24153,0 69.120766,69.120766 0 1 1 138.24153,0 z"
     transform="matrix(0.56558888,0,0,0.56558888,221.05031,318.17685)" />
  <path
     style="font-size:medium;font-style:normal;font-variant:normal;font-weight:normal;font-stretch:normal;text-indent:0;text-align:start;text-decoration:none;line-height:normal;letter-spacing:normal;word-spacing:normal;text-transform:none;direction:ltr;block-progression:tb;writing-mode:lr-tb;text-anchor:start;baseline-shift:baseline;color:#000000;fill:#000000;fill-opacity:1;stroke:none;stroke-width:30.00000191;marker:none;visibility:visible;display:inline;overflow:visible;enable-background:accumulate;font-family:Sans;-inkscape-font-specification:Sans"
     d="m 342.41131,723.91311 0,23.04878 135.30972,0 0,-23.04878 z m 199.14891,0 0,23.04878 135.30972,0 0,-23.04878 z"
     id="path3754"
     inkscape:connector-curvature="0"
     sodipodi:nodetypes="cccccccccc" />
  <rect
     style="fill:none"
     y="209.23727"
     x="249.02544"
     width="487.45749"
     height="487.45749"
     id="rect3" />
  <rect
     style="fill:none"
     y="209.23727"
     x="249.02544"
     width="487.45749"
     height="487.45749"
     id="rect3-8" />
  <rect
     style="fill:none"
     y="286.47861"
     x="-412.29581"
     width="487.45749"
     height="487.45749"
     id="rect3-5" />
  <rect
     style="fill:none"
     y="286.47861"
     x="-412.29581"
     width="487.45749"
     height="487.45749"
     id="rect3-8-8" />
  <path
     inkscape:connector-curvature="0"
     style="fill:none;stroke:#000000;stroke-width:16.41514969;stroke-linecap:round;stroke-linejoin:round;stroke-miterlimit:4;stroke-opacity:1;stroke-dasharray:none;stroke-dashoffset:0"
     d="m 607.92311,300.33768 0,150.73462 -200.84622,0 0,-150.73463"
     id="rect9358" />
  <path
     inkscape:connector-curvature="0"
     style="fill:none;stroke:#000000;stroke-width:10.92315388;stroke-linecap:round;stroke-linejoin:miter;stroke-miterlimit:4;stroke-opacity:1;stroke-dasharray:none"
     d="M 577.90821,582.6311 435.37301,706.44649"
     id="path9895" />
  <path
     inkscape:connector-curvature="0"
     style="fill:none;stroke:#000000;stroke-width:21.84630775;stroke-linecap:round;stroke-linejoin:round;stroke-miterlimit:4;stroke-opacity:1;stroke-dasharray:none"
     sodipodi:nodetypes="cz"
     id="path9928"
     d="m 574.93134,456.22814 12.11211,271.85344" />
  <path
     inkscape:connector-curvature="0"
     d="m 441.48683,455.45246 -11.2954,272.62912"
     id="path5516"
     sodipodi:nodetypes="cz"
     style="fill:none;stroke:#000000;stroke-width:21.84630775;stroke-linecap:round;stroke-linejoin:round;stroke-miterlimit:4;stroke-opacity:1;stroke-dasharray:none" />
  <path
     inkscape:connector-curvature="0"
     id="path5518"
     d="M 436.50134,582.6311 579.03656,706.44649"
     style="fill:none;stroke:#000000;stroke-width:10.92315388;stroke-linecap:round;stroke-linejoin:miter;stroke-miterlimit:4;stroke-opacity:1;stroke-dasharray:none" />
  <path
     inkscape:connector-curvature="0"
     id="path5520"
     d="M 575.04127,478.37424 438.65062,583.9768"
     style="fill:none;stroke:#000000;stroke-width:10.92315388;stroke-linecap:round;stroke-linejoin:miter;stroke-miterlimit:4;stroke-opacity:1;stroke-dasharray:none" />
  <path
     inkscape:connector-curvature="0"
     style="fill:none;stroke:#000000;stroke-width:10.92315388;stroke-linecap:round;stroke-linejoin:miter;stroke-miterlimit:4;stroke-opacity:1;stroke-dasharray:none"
     d="M 439.77896,478.37424 576.16962,583.9768"
     id="path5522" />
  <path
     inkscape:connector-curvature="0"
     style="fill:#000000;fill-opacity:1;fill-rule:evenodd;stroke:none"
     d="m 490.42746,313.45077 c -13.19979,0.7838 -24.6283,11.02925 -38.24035,8.41207 -10.38433,-1.91431 -20.18274,-9.68179 -31.11767,-6.20647 -4.18842,0.97551 -8.19837,2.51241 -12.23549,3.94958 0.13361,5.40426 -0.2644,11.5446 0.19393,16.49929 9.34796,-3.66458 20.36273,-6.56819 29.95406,-2.00044 8.01869,3.13235 16.86391,7.17134 25.52882,3.79569 10.98402,-3.42007 22.69615,-10.33757 34.60849,-6.37744 9.4879,2.76392 19.45375,8.40636 29.54448,4.84222 11.02936,-3.04509 22.86842,-7.80414 34.38336,-3.88475 10.63516,2.85845 21.86632,8.68505 32.9336,4.59929 1.92241,-1.0762 6.03845,-0.80143 6.2059,-3.18019 0,-5.1521 0,-10.30421 0,-15.45632 -8.60657,3.46343 -18.53112,4.40185 -27.34475,0.99166 -10.16996,-3.22151 -21.19423,-7.69438 -31.81881,-3.83345 -10.19179,2.86872 -21.34292,7.44593 -31.89747,3.33762 -6.79667,-2.03366 -13.38483,-5.67856 -20.6981,-5.48836 z"
     id="path121" />
</svg>
