<?xml version="1.0" encoding="UTF-8" standalone="no"?>
<svg
   xmlns:dc="http://purl.org/dc/elements/1.1/"
   xmlns:cc="http://creativecommons.org/ns#"
   xmlns:rdf="http://www.w3.org/1999/02/22-rdf-syntax-ns#"
   xmlns:svg="http://www.w3.org/2000/svg"
   xmlns="http://www.w3.org/2000/svg"
   xmlns:sodipodi="http://sodipodi.sourceforge.net/DTD/sodipodi-0.dtd"
   xmlns:inkscape="http://www.inkscape.org/namespaces/inkscape"
   width="1060"
   height="1060"
   id="svg2"
   version="1.1"
   inkscape:version="0.48.4 r9939"
   sodipodi:docname="landmark_dome.svg">
  <defs
     id="defs13">
    <inkscape:path-effect
       effect="gears"
       id="path-effect3774"
       is_visible="true"
       teeth="6"
       phi="-1.2" />
    <inkscape:path-effect
       effect="bend_path"
       id="path-effect3772"
       is_visible="false"
       bendpath="m 95.790098,316.51174 c 144.429032,-206.42506 223.313032,-11.7428 339.548092,0"
       prop_scale="1.19"
       scale_y_rel="false"
       vertical="false"
       bendpath-nodetypes="cc" />
  </defs>
  <sodipodi:namedview
     pagecolor="#ffffff"
     bordercolor="#666666"
     borderopacity="1"
     objecttolerance="10"
     gridtolerance="10"
     guidetolerance="10"
     inkscape:pageopacity="0"
     inkscape:pageshadow="2"
     inkscape:window-width="1920"
     inkscape:window-height="1004"
     id="namedview11"
     showgrid="false"
     inkscape:zoom="0.28771931"
     inkscape:cx="360.1485"
     inkscape:cy="562.2607"
     inkscape:window-x="1680"
     inkscape:window-y="0"
     inkscape:window-maximized="1"
     inkscape:current-layer="svg2"
     inkscape:snap-object-midpoints="true"
     inkscape:snap-center="true" />
  <metadata
     id="metadata2975">image/svg+xmlen<rdf:RDF>
  <cc:Work
     rdf:about="">
    <dc:format>image/svg+xml</dc:format>
    <dc:type
       rdf:resource="http://purl.org/dc/dcmitype/StillImage" />
    <dc:title></dc:title>
  </cc:Work>
</rdf:RDF>
</metadata>
  <path
     sodipodi:type="inkscape:offset"
     inkscape:radius="30.550758"
     inkscape:original="M 509.875 360.46875 C 441.79348 360.46875 386.37017 415.84884 386.03125 483.96875 C 385.72765 485.01207 385.59375 486.07227 385.59375 487.125 L 385.59375 724.0625 L 349.09375 724.0625 L 349.09375 747.09375 L 463.40625 747.09375 C 468.58547 767.80534 487.39336 783.25 509.65625 783.25 C 531.91913 783.25 550.75443 767.80534 555.9375 747.09375 L 670.21875 747.09375 L 670.21875 724.0625 L 633.625 724.0625 L 633.625 487.125 C 633.625 486.87714 633.60905 486.62306 633.59375 486.375 A 10.71875 10.71875 0 0 0 633.75 484.59375 C 633.75 416.18637 578.16572 360.46875 509.875 360.46875 z M 509.875 381.90625 C 563.67107 381.90625 607.5971 423.1951 611.9375 476 L 407.8125 476 C 412.15289 423.1951 456.07893 381.90625 509.875 381.90625 z M 407.03125 497.4375 L 612.1875 497.4375 L 612.1875 723.53125 A 10.713571 10.713571 0 0 0 612.0625 724.0625 L 555.9375 724.0625 C 550.75443 703.35091 531.91913 687.90625 509.65625 687.90625 C 487.39336 687.90625 468.58547 703.35091 463.40625 724.0625 L 407.125 724.0625 A 10.713571 10.713571 0 0 0 407.03125 723.65625 L 407.03125 497.4375 z M 509.65625 705.0625 C 526.6108 705.0625 540.1875 718.6392 540.1875 735.59375 C 540.1875 752.5483 526.6108 766.09375 509.65625 766.09375 C 492.7017 766.09375 479.15625 752.5483 479.15625 735.59375 C 479.15625 718.6392 492.7017 705.0625 509.65625 705.0625 z "
     style="font-size:medium;font-style:normal;font-variant:normal;font-weight:normal;font-stretch:normal;text-indent:0;text-align:start;text-decoration:none;line-height:normal;letter-spacing:normal;word-spacing:normal;text-transform:none;direction:ltr;block-progression:tb;writing-mode:lr-tb;text-anchor:start;baseline-shift:baseline;opacity:0.372;color:#000000;fill:#e4e4e4;fill-opacity:1;fill-rule:nonzero;stroke:#a35151;stroke-width:0;stroke-linecap:round;stroke-linejoin:miter;stroke-miterlimit:4;stroke-opacity:1;stroke-dasharray:none;stroke-dashoffset:0;marker:none;visibility:visible;display:inline;overflow:visible;enable-background:accumulate;font-family:Sans;-inkscape-font-specification:Sans"
     id="path3872"
     d="m 509.875,329.90625 c -83.48744,0 -151.94855,67.44637 -154.21875,150.46875 -0.37554,2.32748 -0.625,4.60593 -0.625,6.75 l 0,206.375 -5.9375,0 a 30.553813,30.553813 0 0 0 -30.5625,30.5625 l 0,23.03125 a 30.553813,30.553813 0 0 0 30.5625,30.5625 l 94.6875,0 c 13.96329,21.75401 38.37133,36.15625 65.875,36.15625 27.51229,0 51.90378,-14.38914 65.875,-36.15625 l 94.6875,0 a 30.553813,30.553813 0 0 0 30.5625,-30.5625 l 0,-23.03125 A 30.553813,30.553813 0 0 0 670.21875,693.5 l -6.03125,0 0,-206.375 c 0,-0.44538 -0.0221,-0.41874 -0.0312,-0.75 0.0672,-0.63496 0.15732,-1.92352 0.15625,-1.65625 a 30.553813,30.553813 0 0 0 0,-0.125 c 0,-84.95669 -69.52944,-154.6875 -154.4375,-154.6875 z m 0,82.5625 c 25.70814,0 47.85574,13.05271 60.53125,32.96875 l -121.0625,0 c 12.67551,-19.91604 34.82311,-32.96875 60.53125,-32.96875 z M 437.59375,528 l 144.03125,0 0,165.5 -6.09375,0 c -13.97122,-21.76711 -38.36271,-36.15625 -65.875,-36.15625 -27.50367,0 -51.91171,14.40224 -65.875,36.15625 l -6.1875,0 0,-165.5 z" />
  <path
     sodipodi:type="arc"
     style="color:#000000;fill:none;stroke:#000000;stroke-width:30.33652306;stroke-linecap:butt;stroke-linejoin:miter;stroke-miterlimit:4;stroke-opacity:1;stroke-dasharray:none;stroke-dashoffset:0;marker:none;visibility:visible;display:inline;overflow:visible;enable-background:accumulate"
     id="path2985"
     sodipodi:cx="510.26483"
     sodipodi:cy="737.74365"
     sodipodi:rx="69.120766"
     sodipodi:ry="69.120766"
     d="m 579.3856,737.74365 a 69.120766,69.120766 0 1 1 -138.24153,0 69.120766,69.120766 0 1 1 138.24153,0 z"
     transform="matrix(0.56558888,0,0,0.56558888,221.05031,318.17685)" />
  <path
     style="font-size:medium;font-style:normal;font-variant:normal;font-weight:normal;font-stretch:normal;text-indent:0;text-align:start;text-decoration:none;line-height:normal;letter-spacing:normal;word-spacing:normal;text-transform:none;direction:ltr;block-progression:tb;writing-mode:lr-tb;text-anchor:start;baseline-shift:baseline;color:#000000;fill:#000000;fill-opacity:1;stroke:none;stroke-width:30.00000191;marker:none;visibility:visible;display:inline;overflow:visible;enable-background:accumulate;font-family:Sans;-inkscape-font-specification:Sans"
     d="m 349.07496,723.91311 0,23.04878 125.55225,0 0,-23.04878 z m 195.57908,0 0,23.04878 125.55225,0 0,-23.04878 z"
     id="path3754"
     inkscape:connector-curvature="0"
     sodipodi:nodetypes="cccccccccc" />
  <path
     style="fill:none;stroke:#000000;stroke-width:21.42499924;stroke-linecap:round;stroke-linejoin:round;stroke-miterlimit:10;stroke-dasharray:none"
     inkscape:connector-curvature="0"
     stroke-miterlimit="10"
     d="m 623.00794,484.45258 c 0,-62.63117 -50.65636,-113.40356 -113.14438,-113.40356 -62.48802,0 -113.14437,50.77239 -113.14437,113.40356"
     id="path9" />
  <path
     style="color:#000000;fill:none;stroke:#000000;stroke-width:21.42499924;stroke-linecap:round;stroke-linejoin:round;stroke-miterlimit:10;stroke-opacity:1;stroke-dashoffset:0;marker:none;visibility:visible;display:inline;overflow:visible;enable-background:accumulate"
     d="m 622.88819,726.1044 c 0,0.21877 -0.135,0.3949 -0.30268,0.3949 m -225.98991,0 c -0.16769,0 -0.30268,-0.17613 -0.30268,-0.3949 m 0,0 0,-239.12556 c 0,-0.21877 0.13499,-0.39489 0.30268,-0.39489 l 225.98991,0 c 0.16768,0 0.30268,0.17612 0.30268,0.39489 l 0,239.12556"
     id="rect3805"
     inkscape:connector-curvature="0"
     sodipodi:nodetypes="cccccssssc" />
</svg>
