<?xml version="1.0" encoding="UTF-8" standalone="no"?>
<svg
   xmlns:dc="http://purl.org/dc/elements/1.1/"
   xmlns:cc="http://creativecommons.org/ns#"
   xmlns:rdf="http://www.w3.org/1999/02/22-rdf-syntax-ns#"
   xmlns:svg="http://www.w3.org/2000/svg"
   xmlns="http://www.w3.org/2000/svg"
   xmlns:sodipodi="http://sodipodi.sourceforge.net/DTD/sodipodi-0.dtd"
   xmlns:inkscape="http://www.inkscape.org/namespaces/inkscape"
   width="1060"
   height="1060"
   id="svg2"
   version="1.1"
   inkscape:version="0.48.4 r9939"
   sodipodi:docname="landmark_cross.svg">
  <defs
     id="defs13">
    <inkscape:path-effect
       effect="gears"
       id="path-effect3774"
       is_visible="true"
       teeth="6"
       phi="-1.2" />
    <inkscape:path-effect
       effect="bend_path"
       id="path-effect3772"
       is_visible="false"
       bendpath="m 95.790098,316.51174 c 144.429032,-206.42506 223.313032,-11.7428 339.548092,0"
       prop_scale="1.19"
       scale_y_rel="false"
       vertical="false"
       bendpath-nodetypes="cc" />
  </defs>
  <sodipodi:namedview
     pagecolor="#ffffff"
     bordercolor="#666666"
     borderopacity="1"
     objecttolerance="10"
     gridtolerance="10"
     guidetolerance="10"
     inkscape:pageopacity="0"
     inkscape:pageshadow="2"
     inkscape:window-width="1920"
     inkscape:window-height="1004"
     id="namedview11"
     showgrid="false"
     inkscape:zoom="0.28771931"
     inkscape:cx="771.68081"
     inkscape:cy="699.52448"
     inkscape:window-x="1680"
     inkscape:window-y="0"
     inkscape:window-maximized="1"
     inkscape:current-layer="svg2"
     inkscape:snap-object-midpoints="true"
     inkscape:snap-center="true" />
  <metadata
     id="metadata2975">image/svg+xmlen<rdf:RDF>
  <cc:Work
     rdf:about="">
    <dc:format>image/svg+xml</dc:format>
    <dc:type
       rdf:resource="http://purl.org/dc/dcmitype/StillImage" />
    <dc:title />
  </cc:Work>
</rdf:RDF>
</metadata>
  <path
     style="font-size:medium;font-style:normal;font-variant:normal;font-weight:normal;font-stretch:normal;text-indent:0;text-align:start;text-decoration:none;line-height:normal;letter-spacing:normal;word-spacing:normal;text-transform:none;direction:ltr;block-progression:tb;writing-mode:lr-tb;text-anchor:start;baseline-shift:baseline;opacity:0.372;color:#000000;fill:#e4e4e4;fill-opacity:1;fill-rule:nonzero;stroke:#a35151;stroke-width:0;stroke-linecap:round;stroke-linejoin:miter;stroke-miterlimit:4;stroke-opacity:1;stroke-dashoffset:0;marker:none;visibility:visible;display:inline;overflow:visible;enable-background:accumulate;font-family:Sans;-inkscape-font-specification:Sans"
     d="m 494.46875,218.33841 c -9.56331,0.002 -19.06697,3.68921 -25.82925,10.0215 -6.76228,6.33229 -10.7,15.23165 -10.702,24.18686 l 0,86.12078 -88.33419,0 c -8.30478,0.002 -16.55776,3.68921 -22.43012,10.0215 -5.87237,6.33229 -9.29188,15.23165 -9.29362,24.18686 l 0,26.95115 c 0.002,8.95521 3.42125,17.85457 9.29362,24.18686 5.87236,6.33229 14.12534,10.01962 22.43012,10.0215 l 88.33419,0 0,244.98919 c -6.5567,4.82209 -12.35194,10.46859 -17.125,16.8847 l -37.4375,0 c -9.56331,0.002 -19.06697,3.68921 -25.82925,10.0215 -6.76228,6.33229 -10.7,15.23165 -10.702,24.18686 l 0,21.59604 c 0.002,8.95521 3.93972,17.85457 10.702,24.18686 6.76228,6.33229 16.26594,10.01962 25.82925,10.02149 l 37.53125,0 C 456.1958,806.3827 481.47302,819.75 509.875,819.75 c 28.41396,0 53.73395,-13.35221 69.03125,-33.82794 l 37.46875,0 c 9.56331,-0.002 19.06697,-3.6892 25.82925,-10.02149 6.76228,-6.33229 10.7,-15.23165 10.702,-24.18686 l 0,-21.59604 c -0.002,-8.95521 -3.93972,-17.85457 -10.702,-24.18686 -6.76228,-6.33229 -16.26594,-10.01962 -25.82925,-10.0215 l -37.40625,0 c -4.7716,-6.41246 -10.57309,-12.06585 -17.125,-16.8847 l 0,-244.98919 88.33419,0 c 8.30478,-0.002 16.55776,-3.68921 22.43012,-10.0215 5.87237,-6.33229 9.29188,-15.23165 9.29362,-24.18686 l 0,-26.95115 c -0.002,-8.95521 -3.42125,-17.85457 -9.29362,-24.18686 -5.87236,-6.33229 -14.12534,-10.01962 -22.43012,-10.0215 l -88.33419,0 0,-86.12078 c -0.002,-8.95521 -3.93972,-17.85457 -10.702,-24.18686 -6.76228,-6.33229 -16.26594,-10.01962 -25.82925,-10.0215 z M 509.875,735.26795 c 2.50479,0 6.03125,3.30222 6.03125,5.64774 0,2.34552 -3.48157,5.61848 -6.03125,5.61848 -2.54968,0 -6,-3.23093 -6,-5.61848 0,-2.38756 3.49521,-5.64774 6,-5.64774 z"
     id="path3199"
     inkscape:connector-curvature="0"
     sodipodi:nodetypes="cscccsccscccccsccsccsccsccscccccsccscccsccsssss" />
  <path
     sodipodi:type="arc"
     style="color:#000000;fill:none;stroke:#000000;stroke-width:30.33652288;stroke-linecap:butt;stroke-linejoin:miter;stroke-miterlimit:4;stroke-opacity:1;stroke-dasharray:none;stroke-dashoffset:0;marker:none;visibility:visible;display:inline;overflow:visible;enable-background:accumulate"
     id="path2985"
     sodipodi:cx="510.26483"
     sodipodi:cy="737.74365"
     sodipodi:rx="69.120766"
     sodipodi:ry="69.120766"
     d="m 579.3856,737.74365 a 69.120766,69.120766 0 1 1 -138.24153,0 69.120766,69.120766 0 1 1 138.24153,0 z"
     transform="matrix(0.56558888,0,0,0.56558888,221.05031,318.17685)" />
  <path
     style="font-size:medium;font-style:normal;font-variant:normal;font-weight:normal;font-stretch:normal;text-indent:0;text-align:start;text-decoration:none;line-height:normal;letter-spacing:normal;word-spacing:normal;text-transform:none;direction:ltr;block-progression:tb;writing-mode:lr-tb;text-anchor:start;baseline-shift:baseline;color:#000000;fill:#000000;fill-opacity:1;stroke:none;stroke-width:30.00000191;marker:none;visibility:visible;display:inline;overflow:visible;enable-background:accumulate;font-family:Sans;-inkscape-font-specification:Sans"
     d="m 403.14276,723.91311 0,23.04878 67.30005,0 0,-23.04878 z m 145.69568,0 0,23.04878 67.30005,0 0,-23.04878 z"
     id="path3754"
     inkscape:connector-curvature="0"
     sodipodi:nodetypes="cccccccccc" />
  <rect
     style="fill:none"
     y="209.23727"
     x="249.02544"
     width="487.45749"
     height="487.45749"
     id="rect3" />
  <rect
     style="fill:none"
     y="209.23727"
     x="249.02544"
     width="487.45749"
     height="487.45749"
     id="rect3-8" />
  <path
     style="fill:none;stroke:#000000;stroke-width:29.51004219;stroke-linecap:butt;stroke-linejoin:miter;stroke-miterlimit:4;stroke-opacity:1;stroke-dasharray:none"
     d="m 509.65042,696.27118 0,-441.39345"
     id="path3860"
     inkscape:connector-curvature="0"
     sodipodi:nodetypes="cc" />
  <rect
     style="fill:none"
     y="286.47861"
     x="-412.29581"
     width="487.45749"
     height="487.45749"
     id="rect3-5" />
  <rect
     style="fill:none"
     y="286.47861"
     x="-412.29581"
     width="487.45749"
     height="487.45749"
     id="rect3-8-8" />
  <path
     style="color:#000000;fill:none;stroke:#000000;stroke-width:27.52241707;stroke-linecap:butt;stroke-linejoin:miter;stroke-miterlimit:4;stroke-opacity:1;stroke-dasharray:none;stroke-dashoffset:0;marker:none;visibility:visible;display:inline;overflow:visible;enable-background:accumulate"
     d="m 372.12462,385.64063 275.05161,0"
     id="path3010"
     inkscape:connector-curvature="0" />
</svg>
