<?xml version="1.0" encoding="UTF-8" standalone="no"?>
<svg
   xmlns:dc="http://purl.org/dc/elements/1.1/"
   xmlns:cc="http://creativecommons.org/ns#"
   xmlns:rdf="http://www.w3.org/1999/02/22-rdf-syntax-ns#"
   xmlns:svg="http://www.w3.org/2000/svg"
   xmlns="http://www.w3.org/2000/svg"
   xmlns:sodipodi="http://sodipodi.sourceforge.net/DTD/sodipodi-0.dtd"
   xmlns:inkscape="http://www.inkscape.org/namespaces/inkscape"
   width="1060"
   height="1060"
   id="svg2"
   version="1.1"
   inkscape:version="0.48.4 r9939"
   sodipodi:docname="landmark_flagstaff.svg">
  <defs
     id="defs13">
    <inkscape:path-effect
       effect="gears"
       id="path-effect3774"
       is_visible="true"
       teeth="6"
       phi="-1.2" />
    <inkscape:path-effect
       effect="bend_path"
       id="path-effect3772"
       is_visible="false"
       bendpath="m 95.790098,316.51174 c 144.429032,-206.42506 223.313032,-11.7428 339.548092,0"
       prop_scale="1.19"
       scale_y_rel="false"
       vertical="false"
       bendpath-nodetypes="cc" />
  </defs>
  <sodipodi:namedview
     pagecolor="#ffffff"
     bordercolor="#666666"
     borderopacity="1"
     objecttolerance="10"
     gridtolerance="10"
     guidetolerance="10"
     inkscape:pageopacity="0"
     inkscape:pageshadow="2"
     inkscape:window-width="1920"
     inkscape:window-height="1004"
     id="namedview11"
     showgrid="false"
     inkscape:zoom="0.57543862"
     inkscape:cx="737.06372"
     inkscape:cy="482.82701"
     inkscape:window-x="1680"
     inkscape:window-y="0"
     inkscape:window-maximized="1"
     inkscape:current-layer="svg2"
     inkscape:snap-object-midpoints="true"
     inkscape:snap-center="true" />
  <metadata
     id="metadata2975">image/svg+xmlen<rdf:RDF>
  <cc:Work
     rdf:about="">
    <dc:format>image/svg+xml</dc:format>
    <dc:type
       rdf:resource="http://purl.org/dc/dcmitype/StillImage" />
    <dc:title />
  </cc:Work>
</rdf:RDF>
</metadata>
  <path
     style="font-size:medium;font-style:normal;font-variant:normal;font-weight:normal;font-stretch:normal;text-indent:0;text-align:start;text-decoration:none;line-height:normal;letter-spacing:normal;word-spacing:normal;text-transform:none;direction:ltr;block-progression:tb;writing-mode:lr-tb;text-anchor:start;baseline-shift:baseline;opacity:0.372;color:#000000;fill:#e4e4e4;fill-opacity:1;fill-rule:nonzero;stroke:#a35151;stroke-width:0;stroke-linecap:round;stroke-linejoin:miter;stroke-miterlimit:4;stroke-opacity:1;stroke-dashoffset:0;marker:none;visibility:visible;display:inline;overflow:visible;enable-background:accumulate;font-family:Sans;-inkscape-font-specification:Sans"
     d="m 497.21875,226.84375 c -7.07638,0.001 -14.10866,2.91508 -19.11241,7.91884 -5.00376,5.00375 -7.91744,12.03603 -7.91884,19.11241 l 0,418.34375 c -9.9112,6.20118 -18.21538,14.64698 -24.28125,24.65625 l -42.6875,0 c -7.07638,10e-4 -14.10866,2.91508 -19.11241,7.91884 -5.00376,5.00375 -7.91744,12.03603 -7.91884,19.11241 l 0,23.0625 c 10e-4,7.07638 2.91508,14.10866 7.91884,19.11241 5.00375,5.00376 12.03603,7.91744 19.11241,7.91884 l 42.65625,0 c 13.15127,21.66132 36.90647,36.125 63.84375,36.125 26.93728,0 50.71353,-14.46141 63.875,-36.125 l 42.625,0 c 7.07638,-10e-4 14.10866,-2.91508 19.11241,-7.91884 5.00376,-5.00375 7.91744,-12.03603 7.91884,-19.11241 l 0,-23.0625 c -10e-4,-7.07638 -2.91508,-14.10866 -7.91884,-19.11241 -5.00375,-5.00376 -12.03603,-7.91744 -19.11241,-7.91884 l -42.625,0 c -6.43996,-10.6375 -15.42836,-19.48918 -26.15625,-25.78125 l 0,-237.28125 102.6875,0 10.34375,0 c 7.07638,-10e-4 14.10866,-2.91508 19.11241,-7.91884 5.00376,-5.00375 7.91744,-12.03603 7.91884,-19.11241 l 0,-10.34375 0,-104.46875 0,-10.34375 c -10e-4,-7.07638 -2.91508,-14.10866 -7.91884,-19.11241 -5.00375,-5.00376 -12.03603,-7.91744 -19.11241,-7.91884 l -10.34375,0 -102.6875,0 0,-0.71875 c -10e-4,-7.07638 -2.91508,-14.10866 -7.91884,-19.11241 -5.00375,-5.00376 -12.03603,-7.91744 -19.11241,-7.91884 z"
     id="path3958"
     inkscape:connector-curvature="0"
     sodipodi:nodetypes="csccccsccsccsccsccsccccccsccccsccccscc" />
  <path
     sodipodi:type="arc"
     style="color:#000000;fill:none;stroke:#000000;stroke-width:30.33652288;stroke-linecap:butt;stroke-linejoin:miter;stroke-miterlimit:4;stroke-opacity:1;stroke-dasharray:none;stroke-dashoffset:0;marker:none;visibility:visible;display:inline;overflow:visible;enable-background:accumulate"
     id="path2985"
     sodipodi:cx="510.26483"
     sodipodi:cy="737.74365"
     sodipodi:rx="69.120766"
     sodipodi:ry="69.120766"
     d="m 579.3856,737.74365 a 69.120766,69.120766 0 1 1 -138.24153,0 69.120766,69.120766 0 1 1 138.24153,0 z"
     transform="matrix(0.56558888,0,0,0.56558888,221.05031,318.17685)" />
  <path
     style="font-size:medium;font-style:normal;font-variant:normal;font-weight:normal;font-stretch:normal;text-indent:0;text-align:start;text-decoration:none;line-height:normal;letter-spacing:normal;word-spacing:normal;text-transform:none;direction:ltr;block-progression:tb;writing-mode:lr-tb;text-anchor:start;baseline-shift:baseline;color:#000000;fill:#000000;fill-opacity:1;stroke:none;stroke-width:30.00000191;marker:none;visibility:visible;display:inline;overflow:visible;enable-background:accumulate;font-family:Sans;-inkscape-font-specification:Sans"
     d="m 403.14276,723.91311 0,23.04878 67.30005,0 0,-23.04878 z m 145.69568,0 0,23.04878 67.30005,0 0,-23.04878 z"
     id="path3754"
     inkscape:connector-curvature="0"
     sodipodi:nodetypes="cccccccccc" />
  <rect
     style="fill:none"
     y="209.23727"
     x="249.02544"
     width="487.45749"
     height="487.45749"
     id="rect3" />
  <rect
     style="fill:none"
     y="209.23727"
     x="249.02544"
     width="487.45749"
     height="487.45749"
     id="rect3-8" />
  <path
     style="fill:none;stroke:#000000;stroke-width:23.20000076;stroke-linecap:butt;stroke-linejoin:miter;stroke-miterlimit:4;stroke-opacity:1;stroke-dasharray:none"
     d="m 508.72882,696.27118 0,-442.37288"
     id="path3860"
     inkscape:connector-curvature="0"
     sodipodi:nodetypes="cc" />
  <path
     style="fill:none;stroke:#000000;stroke-width:20.7;stroke-linecap:butt;stroke-linejoin:miter;stroke-opacity:1;stroke-miterlimit:4;stroke-dasharray:none"
     d="m 507.5,291.99152 142.54238,0 0,104.44915 -142.54238,0"
     id="path3862"
     inkscape:connector-curvature="0" />
  <rect
     style="fill:none"
     y="286.47861"
     x="-412.29581"
     width="487.45749"
     height="487.45749"
     id="rect3-5" />
  <rect
     style="fill:none"
     y="286.47861"
     x="-412.29581"
     width="487.45749"
     height="487.45749"
     id="rect3-8-8" />
</svg>
