<?xml version="1.0" encoding="UTF-8" standalone="no"?>
<svg
   xmlns:dc="http://purl.org/dc/elements/1.1/"
   xmlns:cc="http://creativecommons.org/ns#"
   xmlns:rdf="http://www.w3.org/1999/02/22-rdf-syntax-ns#"
   xmlns:svg="http://www.w3.org/2000/svg"
   xmlns="http://www.w3.org/2000/svg"
   xmlns:sodipodi="http://sodipodi.sourceforge.net/DTD/sodipodi-0.dtd"
   xmlns:inkscape="http://www.inkscape.org/namespaces/inkscape"
   width="1060"
   height="1060"
   id="svg2"
   version="1.1"
   inkscape:version="0.48.4 r9939"
   sodipodi:docname="landmark_chimney.svg">
  <defs
     id="defs13">
    <inkscape:path-effect
       effect="gears"
       id="path-effect3774"
       is_visible="true"
       teeth="6"
       phi="-1.2" />
    <inkscape:path-effect
       effect="bend_path"
       id="path-effect3772"
       is_visible="false"
       bendpath="m 95.790098,316.51174 c 144.429032,-206.42506 223.313032,-11.7428 339.548092,0"
       prop_scale="1.19"
       scale_y_rel="false"
       vertical="false"
       bendpath-nodetypes="cc" />
  </defs>
  <sodipodi:namedview
     pagecolor="#ffffff"
     bordercolor="#666666"
     borderopacity="1"
     objecttolerance="10"
     gridtolerance="10"
     guidetolerance="10"
     inkscape:pageopacity="0"
     inkscape:pageshadow="2"
     inkscape:window-width="1920"
     inkscape:window-height="1004"
     id="namedview11"
     showgrid="false"
     inkscape:zoom="0.8137931"
     inkscape:cx="666.87433"
     inkscape:cy="641.55066"
     inkscape:window-x="1680"
     inkscape:window-y="0"
     inkscape:window-maximized="1"
     inkscape:current-layer="svg2"
     inkscape:snap-object-midpoints="true"
     inkscape:snap-center="true" />
  <metadata
     id="metadata2975">image/svg+xmlen<rdf:RDF>
  <cc:Work
     rdf:about="">
    <dc:format>image/svg+xml</dc:format>
    <dc:type
       rdf:resource="http://purl.org/dc/dcmitype/StillImage" />
    <dc:title />
  </cc:Work>
</rdf:RDF>
</metadata>
  <path
     style="font-size:medium;font-style:normal;font-variant:normal;font-weight:normal;font-stretch:normal;text-indent:0;text-align:start;text-decoration:none;line-height:normal;letter-spacing:normal;word-spacing:normal;text-transform:none;direction:ltr;block-progression:tb;writing-mode:lr-tb;text-anchor:start;baseline-shift:baseline;opacity:0.372;color:#000000;fill:#e4e4e4;fill-opacity:1;fill-rule:nonzero;stroke:#a35151;stroke-width:0;stroke-linecap:round;stroke-linejoin:miter;stroke-miterlimit:4;stroke-opacity:1;stroke-dashoffset:0;marker:none;visibility:visible;display:inline;overflow:visible;enable-background:accumulate;font-family:Sans;-inkscape-font-specification:Sans"
     d="m 669.375,160.4375 c -38.52288,0 -68.53954,18.89038 -87.5,38.5 -6.07399,6.28194 -11.15159,12.63012 -15.4375,18.71875 -40.52852,-4.30067 -75.14751,7.30786 -99.09375,24.5625 -28.85509,20.79175 -42.33366,44.8117 -48,58.84375 l -0.0312,-0.0312 c 0.009,-0.021 -0.039,0.20303 -0.0312,0.1875 -0.0768,0.19112 -0.23859,0.46895 -0.3125,0.65625 l 0.1875,0.0625 c 0.28076,0.36544 -3.3871,18.00023 -3.375,16.03125 0.0128,-2.07943 4.11047,18.88901 3.3125,16.96875 -0.26186,-0.63015 3.34375,4.59375 3.34375,4.59375 l -40.80508,355.82256 -32.63242,-1.22881 c -7.73889,0.002 -15.42935,3.1887 -20.90157,8.66093 -5.47223,5.47222 -8.6589,13.16268 -8.66093,20.90157 l 0,23.03125 c 0.002,7.73886 3.18871,15.4293 8.66091,20.90151 5.4722,5.4722 13.16263,8.65888 20.90149,8.66094 l 95.25,0 c 13.73625,21.74094 37.95648,36.15625 65.3125,36.15625 27.36379,0 51.59943,-14.40312 65.34375,-36.15625 l 95.21875,0 c 7.73889,-0.002 15.42935,-3.1887 20.90157,-8.66093 5.47223,-5.47222 8.6589,-13.16268 8.66093,-20.90157 l 0,-23.03125 c -0.002,-7.73889 -3.1887,-15.42935 -8.66093,-20.90157 -5.47222,-5.47223 -13.16268,-8.6589 -20.90157,-8.66093 l -30.25152,0.8689 -37.5625,-297.34375 c 4.27821,0.96717 17.18058,1.11763 22.59527,2.0061 15.13351,2.48318 35.18476,4.1526 57.21875,-1.0625 11.32959,-2.68155 33.24396,-7.22734 54.6875,-21.09375 10.66954,-6.89943 20.71553,-16.50998 28.34375,-28.625 17.10865,1.90878 33.10725,1.54279 47.9375,-1.75 26.85983,-5.96373 48.43639,-21.38556 61.3125,-41.1875 12.48578,-19.20165 16.39722,-40.40107 15.5,-59 -0.85788,-17.78344 -5.89194,-37.18724 -19.625,-52.8125 -22.54397,-25.65021 -55.16124,-30.14512 -81.09375,-28.59375 -17.97366,1.07525 -35.36075,5.22835 -51.53125,11.375 -18.40358,-8.57534 -40.7881,-16.46875 -68.28125,-16.46875 z m 0,87.0625 c 15.90012,0 25.45277,4.63608 44.53125,14.65625 -3.53188,1.56243 -6.46458,2.81743 -5.75,2.25 1.95111,-1.54931 -13.70444,18.58693 -12.6875,16.3125 1.01694,-2.27443 -3.5724,22.83087 -3.71875,20.34375 0.0104,0.0104 0.0208,0.0208 0.0312,0.0312 0.0704,1.17631 0.0592,1.1963 0.0625,1.59375 -0.4464,0.36295 -0.92791,0.76091 -2.3125,1.65625 -4.19119,2.71022 -16.8425,6.98493 -27.46875,9.5 -5.78492,1.3692 -14.61518,1.26107 -23.0625,-0.125 -8.3862,-1.37604 -15.45909,-3.8995 -26.1875,-5.78125 -0.0114,-0.002 -0.0198,0.002 -0.0312,0 1.77709,0.32669 -14.57003,0.69353 -15.6875,0.40625 4.9487,-1.26563 10.49468,-2.60431 9.4375,-2.125 -1.74363,0.79053 14.40466,-10.49021 13.0625,-9.125 -1.33848,1.36148 9.56958,-14.84101 8.875,-13.1875 l 0.0312,0 c -10e-4,0.003 10e-4,-0.034 0,-0.0312 2.0211,-4.64954 8.46953,-16.65027 15.96875,-24.40625 C 652.45272,251.21143 658.16125,247.5 669.375,247.5 z m 132.25,0.0312 c -0.0396,-0.23182 0.58913,0.31516 0.71875,0.6875 0.0276,0.0792 0.0344,0.21984 0.0625,0.3125 -0.10368,-0.16583 -0.7716,-0.94351 -0.78125,-1 z m -7.1875,4.875 c 3.5872,-0.2146 6.17764,0.26633 8.28125,0.78125 -0.25807,2.3313 -0.85933,4.63239 -1.28125,5.28125 -1.27642,1.96298 0.29453,1.95681 -7.21875,3.625 -5.16862,1.1476 -15.58937,1.58654 -31.25,-1.5625 9.84597,-4.18322 22.40577,-7.58282 31.46875,-8.125 z m -248.375,50.15625 c 7.52983,-0.0631 16.86875,1.51156 29.15625,5.46875 0.0104,10e-6 0.0208,10e-6 0.0312,0 -1.82272,-0.58556 17.72381,1.89015 15.8125,2 -0.35895,0.0206 2.02706,-0.56128 2.875,-0.8125 -2.25205,1.28035 -15.12305,6.96539 -13.65625,5.9375 1.54753,-1.08446 -9.88005,10.85316 -10.84375,11.40625 l -4.875,0 -59.625,0 c 3.47604,-4.69895 8.25084,-10.04028 13.3125,-13.6875 7.73765,-5.57543 15.26278,-10.20733 27.8125,-10.3125 z m -47.45922,111.67638 24.02096,0.14908 30.05564,259.41768 C 539.02759,661.78954 529.01054,657.9687 509.5625,657.9687 c -18.97789,0 -38.26377,11.09587 -38.26377,11.09587 z M 509.5625,734.25 c 1.17014,0 0.96875,-0.20139 0.96875,0.96875 0,1.17014 0.23772,0.9375 -0.96875,0.9375 -1.20647,0 -0.9375,0.26897 -0.9375,-0.9375 0,-1.20647 -0.23264,-0.96875 0.9375,-0.96875 z"
     id="path4284"
     inkscape:connector-curvature="0"
     sodipodi:nodetypes="sscsccccccscccsccsccsccsccscccssscssssscsscsscccssscccsscccsssccsscsscscccccscccscccccsccsssss" />
  <path
     sodipodi:type="arc"
     style="color:#000000;fill:none;stroke:#000000;stroke-width:30.33652288;stroke-linecap:butt;stroke-linejoin:miter;stroke-miterlimit:4;stroke-opacity:1;stroke-dasharray:none;stroke-dashoffset:0;marker:none;visibility:visible;display:inline;overflow:visible;enable-background:accumulate"
     id="path2985"
     sodipodi:cx="510.26483"
     sodipodi:cy="737.74365"
     sodipodi:rx="69.120766"
     sodipodi:ry="69.120766"
     d="m 579.3856,737.74365 a 69.120766,69.120766 0 1 1 -138.24153,0 69.120766,69.120766 0 1 1 138.24153,0 z"
     transform="matrix(0.56558888,0,0,0.56558888,221.05031,318.17685)" />
  <path
     style="font-size:medium;font-style:normal;font-variant:normal;font-weight:normal;font-stretch:normal;text-indent:0;text-align:start;text-decoration:none;line-height:normal;letter-spacing:normal;word-spacing:normal;text-transform:none;direction:ltr;block-progression:tb;writing-mode:lr-tb;text-anchor:start;baseline-shift:baseline;color:#000000;fill:#000000;fill-opacity:1;stroke:none;stroke-width:30.00000191;marker:none;visibility:visible;display:inline;overflow:visible;enable-background:accumulate;font-family:Sans;-inkscape-font-specification:Sans"
     d="m 349.07496,723.91311 0,23.04878 125.55225,0 0,-23.04878 z m 195.57908,0 0,23.04878 125.55225,0 0,-23.04878 z"
     id="path3754"
     inkscape:connector-curvature="0"
     sodipodi:nodetypes="cccccccccc" />
  <rect
     style="fill:none"
     y="209.23727"
     x="249.02544"
     width="487.45749"
     height="487.45749"
     id="rect3" />
  <rect
     style="fill:none"
     y="209.23727"
     x="249.02544"
     width="487.45749"
     height="487.45749"
     id="rect3-8" />
  <path
     style="fill:none;stroke:#000000;stroke-width:19.139;stroke-linecap:round;stroke-linejoin:round;stroke-miterlimit:10;stroke-dasharray:none"
     inkscape:connector-curvature="0"
     stroke-miterlimit="10"
     d="m 459.52772,318.09784 c 4.29912,-10.89387 41.57156,-79.49158 129.11904,-51.2969 7.01214,-16.15298 31.659,-62.60845 80.80663,-62.60845 26.85904,0 45.99634,9.76692 67.09534,20.86948 32.4103,-17.3008 81.44538,-24.31957 101.09497,-1.96255 19.6496,22.35702 15.39844,110.6982 -102.35726,75.60997 2.49277,41.64352 -40.22123,52.3313 -63.1237,57.75197 -28.09725,6.65019 -56.63801,-3.60684 -66.82545,-5.39109"
     id="path5"
     sodipodi:nodetypes="ccsczcsc" />
  <path
     style="fill:none;stroke:#000000;stroke-width:21.307;stroke-linecap:butt;stroke-linejoin:miter;stroke-miterlimit:4;stroke-opacity:1;stroke-dasharray:none"
     d="m 422.2508,732.74194 42.78382,-364.18172 92.52001,0 40.10983,366.65075"
     id="path4212"
     inkscape:connector-curvature="0"
     sodipodi:nodetypes="cccc" />
</svg>
