<?xml version="1.0" encoding="UTF-8" standalone="no"?>
<svg
   xmlns:dc="http://purl.org/dc/elements/1.1/"
   xmlns:cc="http://creativecommons.org/ns#"
   xmlns:rdf="http://www.w3.org/1999/02/22-rdf-syntax-ns#"
   xmlns:svg="http://www.w3.org/2000/svg"
   xmlns="http://www.w3.org/2000/svg"
   xmlns:sodipodi="http://sodipodi.sourceforge.net/DTD/sodipodi-0.dtd"
   xmlns:inkscape="http://www.inkscape.org/namespaces/inkscape"
   width="1060"
   height="1060"
   id="svg2"
   version="1.1"
   inkscape:version="0.48.4 r9939"
   sodipodi:docname="landmark_mosque.svg">
  <defs
     id="defs13">
    <inkscape:path-effect
       effect="gears"
       id="path-effect3774"
       is_visible="true"
       teeth="6"
       phi="-1.2" />
    <inkscape:path-effect
       effect="bend_path"
       id="path-effect3772"
       is_visible="false"
       bendpath="m 95.790098,316.51174 c 144.429032,-206.42506 223.313032,-11.7428 339.548092,0"
       prop_scale="1.19"
       scale_y_rel="false"
       vertical="false"
       bendpath-nodetypes="cc" />
  </defs>
  <sodipodi:namedview
     pagecolor="#ffffff"
     bordercolor="#666666"
     borderopacity="1"
     objecttolerance="10"
     gridtolerance="10"
     guidetolerance="10"
     inkscape:pageopacity="0"
     inkscape:pageshadow="2"
     inkscape:window-width="1920"
     inkscape:window-height="1004"
     id="namedview11"
     showgrid="false"
     inkscape:zoom="0.20344828"
     inkscape:cx="515.19917"
     inkscape:cy="660.44692"
     inkscape:window-x="1680"
     inkscape:window-y="0"
     inkscape:window-maximized="1"
     inkscape:current-layer="svg2"
     inkscape:snap-object-midpoints="true"
     inkscape:snap-center="true" />
  <metadata
     id="metadata2975">image/svg+xmlen<rdf:RDF>
  <cc:Work
     rdf:about="">
    <dc:format>image/svg+xml</dc:format>
    <dc:type
       rdf:resource="http://purl.org/dc/dcmitype/StillImage" />
    <dc:title></dc:title>
  </cc:Work>
</rdf:RDF>
</metadata>
  <path
     style="font-size:medium;font-style:normal;font-variant:normal;font-weight:normal;font-stretch:normal;text-indent:0;text-align:start;text-decoration:none;line-height:normal;letter-spacing:normal;word-spacing:normal;text-transform:none;direction:ltr;block-progression:tb;writing-mode:lr-tb;text-anchor:start;baseline-shift:baseline;opacity:0.372;color:#000000;fill:#e4e4e4;fill-opacity:1;fill-rule:nonzero;stroke:#a35151;stroke-width:0;stroke-linecap:round;stroke-linejoin:miter;stroke-miterlimit:4;stroke-opacity:1;stroke-dashoffset:0;marker:none;visibility:visible;display:inline;overflow:visible;enable-background:accumulate;font-family:Sans;-inkscape-font-specification:Sans"
     d="m 509.65625,210.59375 c -21.93919,0 -46.04226,9.01038 -61.03125,30.8125 -12.80598,18.62685 -15.09405,39.73339 -14.125,59.03125 l -0.0312,0 c 0,11.64688 0.11308,11.73284 0.0312,0.75 0.0292,0.53249 -0.003,1.09549 0.0312,1.625 l 0.0312,0 c -2.8e-4,0.0833 -2.8e-4,0.16667 0,0.25 -0.29852,-4.53128 -0.32698,-4.24941 0.0312,0.8125 0.0877,1.29873 0.24428,2.59281 0.46875,3.875 0.10739,0.94068 0.16661,1.93305 0.3125,2.84375 -13.66464,10.75149 -23.48397,24.96473 -30.25,39.59375 0.41801,-0.88618 -0.1,0.27074 -0.125,0.3125 -0.006,0.0126 -0.0255,0.0186 -0.0312,0.0312 -0.0775,0.15572 0.3693,-0.78422 -0.125,0.3125 -3.35306,7.22273 -7.4169,15.59598 -11.125,24.6875 -3.27164,8.02142 -8.59375,20.3325 -8.59375,36.6875 0,16.86296 8.90689,31.24298 12.1875,35.9375 4.68348,6.70201 9.51275,11.85747 13.84375,16.21875 2.61109,2.62934 5.1398,4.96206 7.65625,7.3125 0.54576,15.28235 2.63382,36.10045 8.78125,62.28125 1.47179,26.11256 4.41925,57.49263 6.78125,84.6875 l -8.09375,0 c -9.1809,0.008 -18.31258,3.59292 -25.04599,9.83392 -6.73342,6.24101 -11.00065,15.07465 -11.70401,24.22858 -8.68282,0.67886 -17.0801,4.55213 -23.23284,10.71621 -6.15275,6.16408 -10.01054,14.56849 -10.67341,23.25254 l -6.53125,0 c -9.65288,0.004 -19.24497,3.97879 -26.07059,10.80441 -6.82562,6.82562 -10.80086,16.41771 -10.80441,26.07059 l 0,23.0625 c 0.004,9.65288 3.97879,19.24497 10.80441,26.07059 6.82562,6.82562 16.41771,10.80086 26.07059,10.80441 l 91.375,0 c 15.35569,21.87094 40.70568,36.15625 69.1875,36.15625 28.48979,0 53.85462,-14.27453 69.21875,-36.15625 l 91.34375,0 c 9.65288,-0.004 19.24497,-3.97879 26.07059,-10.80441 6.82562,-6.82562 10.80086,-16.41771 10.80441,-26.07059 l 0,-23.0625 c -0.004,-9.65288 -3.97879,-19.24497 -10.80441,-26.07059 -6.82562,-6.82562 -16.41771,-10.80086 -26.07059,-10.80441 l -3.25,0 c -0.65675,-8.69425 -4.51603,-17.11061 -10.67563,-23.28155 -6.1596,-6.17095 -14.56885,-10.0457 -23.26187,-10.71845 -0.71035,-9.14333 -4.97623,-17.96424 -11.7025,-24.1982 -6.72627,-6.23397 -15.84538,-9.81838 -25.01625,-9.83305 l -8.75,0 -1.59375,0 c 2.36356,-27.17908 5.30819,-58.54834 6.78135,-84.6562 6.25333,-26.63461 8.32256,-47.81164 8.8125,-63.15625 2.47489,-2.38241 4.3757,-4.08696 7.03125,-6.8125 4.11059,-4.21894 8.89979,-9.27718 13.5625,-16 3.2463,-4.6806 12.03125,-19.0693 12.03125,-35.8125 0,-16.21798 -5.13585,-28.46365 -8.46875,-36.78125 -3.62458,-9.04552 -7.71514,-17.48009 -11.34375,-24.8125 0.0866,0.18898 0.0157,0.0373 -0.21875,-0.46875 -0.0873,-0.18836 -0.193,-0.37423 -0.28125,-0.5625 -6.76883,-14.44094 -16.51686,-28.51447 -30.09375,-39.15625 0.0391,-0.18708 0.11883,-0.34283 0.15625,-0.53125 0.0215,-0.12489 0.0423,-0.24989 0.0625,-0.375 l 0.0937,-0.5 c 0.13769,-0.74623 0.25235,-1.4967 0.34375,-2.25 l 0.0625,-0.5 c 0.0221,-0.17693 0.043,-0.35402 0.0625,-0.53125 2.32277,-21.05075 0.15934,-44.25565 -13.59375,-64.09375 -14.88419,-21.46965 -38.79947,-31.0625 -61.3125,-31.0625 z m 0,518.125 c 2.691,0 6.375,3.684 6.375,6.375 0,2.691 -3.63867,6.34375 -6.375,6.34375 -2.73633,0 -6.34375,-3.60742 -6.34375,-6.34375 0,-2.73633 3.65275,-6.375 6.34375,-6.375 z"
     id="path3902"
     inkscape:connector-curvature="0"
     sodipodi:nodetypes="cscccccccccccccssssccccscsccsccsccsccsccsccscscccccssssccccccccscsccsssss" />
  <path
     inkscape:connector-curvature="0"
     class="st0"
     d="m 585.69907,412.55681 c 0,-9.31384 -8.2214,-26.90664 -15.4152,-41.39483 -6.1662,-13.45332 -17.4707,-24.83689 -26.7198,-27.94151 -14.3876,-5.17435 -18.4983,-6.20922 -18.4983,-12.41844 0,-7.2441 5.1384,-10.34871 7.1937,-21.73228 1.0277,-1.03488 3.0831,-3.10462 4.1108,-8.27897 3.0831,-27.94151 -8.2215,-41.39483 -26.7198,-41.39483 -18.4983,0 -28.7752,12.41845 -26.7198,41.39483 0,5.17435 3.0831,7.24409 4.1107,8.27897 2.0554,11.38357 7.1938,14.48818 7.1938,21.73228 0,5.17435 -5.1384,7.24409 -18.4983,12.41844 -9.2492,3.10462 -20.5537,14.48819 -26.7198,27.94151 -7.1938,15.52306 -15.4153,32.08099 -15.4153,41.39483 0,9.31383 20.5537,25.87176 33.9136,38.29021 0,0 -4.1107,26.90664 8.2215,76.58042 2.0554,40.35995 9.2492,102.4522 10.2769,134.53318 h 48.3011 c 1.0277,-32.08098 8.2215,-94.17323 10.2769,-134.53318 12.3322,-49.67378 8.2214,-76.58042 8.2214,-76.58042 12.3322,-12.41845 32.8859,-28.97638 32.8859,-38.29021 z"
     id="path9"
     style="color:#000000;fill:none;stroke:#000000;stroke-width:23.20000076;stroke-linecap:butt;stroke-linejoin:miter;stroke-miterlimit:4;stroke-opacity:1;stroke-dasharray:none;stroke-dashoffset:0;marker:none;visibility:visible;display:inline;overflow:visible;enable-background:accumulate" />
  <path
     sodipodi:type="arc"
     style="color:#000000;fill:none;stroke:#000000;stroke-width:30.33652306;stroke-linecap:butt;stroke-linejoin:miter;stroke-miterlimit:4;stroke-opacity:1;stroke-dasharray:none;stroke-dashoffset:0;marker:none;visibility:visible;display:inline;overflow:visible;enable-background:accumulate"
     id="path2985"
     sodipodi:cx="510.26483"
     sodipodi:cy="737.74365"
     sodipodi:rx="69.120766"
     sodipodi:ry="69.120766"
     d="m 579.3856,737.74365 a 69.120766,69.120766 0 1 1 -138.24153,0 69.120766,69.120766 0 1 1 138.24153,0 z"
     transform="matrix(0.56558888,0,0,0.56558888,221.05031,318.17685)" />
  <path
     style="font-size:medium;font-style:normal;font-variant:normal;font-weight:normal;font-stretch:normal;text-indent:0;text-align:start;text-decoration:none;line-height:normal;letter-spacing:normal;word-spacing:normal;text-transform:none;direction:ltr;block-progression:tb;writing-mode:lr-tb;text-anchor:start;baseline-shift:baseline;color:#000000;fill:#000000;fill-opacity:1;stroke:none;stroke-width:30.00000191;marker:none;visibility:visible;display:inline;overflow:visible;enable-background:accumulate;font-family:Sans;-inkscape-font-specification:Sans"
     d="m 349.07496,723.91311 0,23.04878 125.55225,0 0,-23.04878 z m 195.57908,0 0,23.04878 125.55225,0 0,-23.04878 z"
     id="path3754"
     inkscape:connector-curvature="0"
     sodipodi:nodetypes="cccccccccc" />
  <path
     style="font-size:medium;font-style:normal;font-variant:normal;font-weight:normal;font-stretch:normal;text-indent:0;text-align:start;text-decoration:none;line-height:normal;letter-spacing:normal;word-spacing:normal;text-transform:none;direction:ltr;block-progression:tb;writing-mode:lr-tb;text-anchor:start;baseline-shift:baseline;color:#000000;fill:#000000;fill-opacity:1;stroke:none;stroke-width:2.03828025;marker:none;visibility:visible;display:inline;overflow:visible;enable-background:accumulate;font-family:Sans;-inkscape-font-specification:Sans"
     d="m 392.375,689.78125 0,8.71875 0,33.90625 0,8.75 8.75,0 74.71875,0 c 0.052,-6.39958 1.89163,-12.3873 5.03125,-17.46875 l -71.03125,0 0,-16.4375 80.76007,0 c 16.03063,-10.97281 29.65834,-6.84152 42.85487,0 l 79.26006,0 0,16.4375 -74.3125,0 c 3.14414,5.08398 4.97912,11.0642 5.03125,17.46875 l 78.03125,0 8.75,0 0,-8.75 0,-33.90625 0,-8.71875 -8.75,0 -220.34375,0 z"
     id="polygon5"
     inkscape:connector-curvature="0"
     sodipodi:nodetypes="ccccccccccccccccccccccc" />
  <polyline
     transform="matrix(8.4752825,0,0,8.4752825,299.40678,317.12641)"
     class="st0"
     points="34,45 34,41 16,41 16,45 "
     id="polyline7"
     style="fill:none;stroke:#000000;stroke-width:2.03828025;stroke-miterlimit:4;stroke-opacity:1;stroke-dasharray:none" />
</svg>
