<?xml version="1.0" encoding="UTF-8" standalone="no"?>
<svg
   xmlns:dc="http://purl.org/dc/elements/1.1/"
   xmlns:cc="http://creativecommons.org/ns#"
   xmlns:rdf="http://www.w3.org/1999/02/22-rdf-syntax-ns#"
   xmlns:svg="http://www.w3.org/2000/svg"
   xmlns="http://www.w3.org/2000/svg"
   xmlns:sodipodi="http://sodipodi.sourceforge.net/DTD/sodipodi-0.dtd"
   xmlns:inkscape="http://www.inkscape.org/namespaces/inkscape"
   width="1060"
   height="1060"
   id="svg2"
   version="1.1"
   inkscape:version="0.48.4 r9939"
   sodipodi:docname="light_major_small.svg">
  <defs
     id="defs13">
    <inkscape:path-effect
       effect="gears"
       id="path-effect3774"
       is_visible="true"
       teeth="6"
       phi="-1.2" />
    <inkscape:path-effect
       effect="bend_path"
       id="path-effect3772"
       is_visible="false"
       bendpath="m 95.790098,316.51174 c 144.429032,-206.42506 223.313032,-11.7428 339.548092,0"
       prop_scale="1.19"
       scale_y_rel="false"
       vertical="false"
       bendpath-nodetypes="cc" />
  </defs>
  <sodipodi:namedview
     pagecolor="#ffffff"
     bordercolor="#666666"
     borderopacity="1"
     objecttolerance="10"
     gridtolerance="10"
     guidetolerance="10"
     inkscape:pageopacity="0"
     inkscape:pageshadow="2"
     inkscape:window-width="1920"
     inkscape:window-height="1004"
     id="namedview11"
     showgrid="false"
     inkscape:zoom="1.1508772"
     inkscape:cx="823.75451"
     inkscape:cy="372.1949"
     inkscape:window-x="1680"
     inkscape:window-y="0"
     inkscape:window-maximized="1"
     inkscape:current-layer="svg2" />
  <metadata
     id="metadata2975">image/svg+xmlen<rdf:RDF>
  <cc:Work
     rdf:about="">
    <dc:format>image/svg+xml</dc:format>
    <dc:type
       rdf:resource="http://purl.org/dc/dcmitype/StillImage" />
    <dc:title />
  </cc:Work>
</rdf:RDF>
</metadata>
  <path
     style="opacity:0.42608696;color:#000000;fill:#acd8f3;fill-opacity:1;fill-rule:nonzero;stroke:#a35151;stroke-width:0;stroke-linecap:round;stroke-linejoin:miter;stroke-miterlimit:4;stroke-opacity:1;stroke-dashoffset:0;marker:none;visibility:visible;display:inline;overflow:visible;enable-background:accumulate"
     d="m 510.0055,584.95636 c -3.02198,0.10178 -6.00546,1.14714 -8.43013,2.95371 -2.42467,1.80656 -4.27978,4.36634 -5.2418,7.2329 l -25.25268,75.28277 -79.43346,-0.76042 c -3.13134,-0.0297 -6.26432,0.95551 -8.81513,2.772 -2.5508,1.81648 -4.50642,4.45499 -5.50245,7.42385 -0.99602,2.96887 -1.02735,6.25295 -0.0882,9.24028 0.93917,2.98734 2.84409,5.66268 5.35977,7.52751 l 63.79707,47.27352 -25.28436,75.29861 c -0.99482,2.96837 -1.0254,6.25148 -0.086,9.23787 0.93935,2.98637 2.84385,5.66083 5.35877,7.52522 2.51494,1.8644 5.6275,2.90924 8.75798,2.93995 3.13048,0.0307 6.26293,-0.95287 8.81396,-2.76758 l 64.71592,-46.06951 63.78124,47.30521 c 2.51569,1.86137 5.62782,2.90328 8.75713,2.93183 3.1293,0.0286 6.25991,-0.95641 8.80915,-2.77157 2.54924,-1.81515 4.50415,-4.45127 5.5009,-7.41775 0.99675,-2.96646 1.03027,-6.24818 0.0944,-9.23439 l -23.79525,-75.74218 64.71593,-46.06951 c 2.55311,-1.81522 4.5112,-4.45355 5.50914,-7.42299 0.99793,-2.96943 1.03061,-6.25483 0.092,-9.24352 -0.93867,-2.98871 -2.84387,-5.66547 -5.36036,-7.53114 -2.51649,-1.86566 -5.63143,-2.91071 -8.76392,-2.94026 l -79.4493,-0.76044 -23.79519,-75.75804 c -0.97204,-3.08918 -2.97872,-5.84293 -5.62164,-7.71452 -2.64293,-1.87161 -5.90672,-2.85017 -9.14341,-2.74141 z m -0.23591,117.25257 c 11.74658,0 20.78694,9.04037 20.78694,20.78694 0,11.74658 -9.04036,20.78696 -20.78694,20.78696 -11.74658,0 -20.78696,-9.04038 -20.78696,-20.78696 0,-11.74657 9.04038,-20.78694 20.78696,-20.78694 z"
     id="path3825"
     inkscape:connector-curvature="0"
     sodipodi:nodetypes="sscccssscccssscccssscccssscccscssssss" />
  <path
     d="m 510.40831,613.93823 -25.13355,74.92756 -79.03762,-0.75894 63.48439,47.04409 -25.16312,74.93739 64.40103,-45.84161 63.46468,47.07367 -23.68468,-75.38094 64.40103,-45.84163 -79.03763,-0.75893 z m -0.71951,77.83156 c 17.09187,0 30.95236,13.8605 30.95236,30.95237 0,17.09187 -13.86049,30.95236 -30.95236,30.95236 -17.09187,0 -30.95236,-13.86049 -30.95236,-30.95236 0,-17.09187 13.86049,-30.95237 30.95236,-30.95237 z"
     id="polygon7"
     inkscape:connector-curvature="0"
     sodipodi:nodetypes="cccccccccccsssss" />
</svg>
