<?xml version="1.0" encoding="UTF-8" standalone="no"?>
<svg
   xmlns:dc="http://purl.org/dc/elements/1.1/"
   xmlns:cc="http://creativecommons.org/ns#"
   xmlns:rdf="http://www.w3.org/1999/02/22-rdf-syntax-ns#"
   xmlns:svg="http://www.w3.org/2000/svg"
   xmlns="http://www.w3.org/2000/svg"
   xmlns:sodipodi="http://sodipodi.sourceforge.net/DTD/sodipodi-0.dtd"
   xmlns:inkscape="http://www.inkscape.org/namespaces/inkscape"
   width="1060"
   height="1060"
   id="svg2"
   version="1.1"
   inkscape:version="0.48.4 r9939"
   sodipodi:docname="light_major.svg">
  <defs
     id="defs13">
    <inkscape:path-effect
       effect="gears"
       id="path-effect3774"
       is_visible="true"
       teeth="6"
       phi="-1.2" />
    <inkscape:path-effect
       effect="bend_path"
       id="path-effect3772"
       is_visible="false"
       bendpath="m 95.790098,316.51174 c 144.429032,-206.42506 223.313032,-11.7428 339.548092,0"
       prop_scale="1.19"
       scale_y_rel="false"
       vertical="false"
       bendpath-nodetypes="cc" />
  </defs>
  <sodipodi:namedview
     pagecolor="#ffffff"
     bordercolor="#666666"
     borderopacity="1"
     objecttolerance="10"
     gridtolerance="10"
     guidetolerance="10"
     inkscape:pageopacity="0"
     inkscape:pageshadow="2"
     inkscape:window-width="1920"
     inkscape:window-height="1004"
     id="namedview11"
     showgrid="false"
     inkscape:zoom="0.8137931"
     inkscape:cx="807.83434"
     inkscape:cy="391.9766"
     inkscape:window-x="1680"
     inkscape:window-y="0"
     inkscape:window-maximized="1"
     inkscape:current-layer="svg2" />
  <metadata
     id="metadata2975">image/svg+xmlen<rdf:RDF>
  <cc:Work
     rdf:about="">
    <dc:format>image/svg+xml</dc:format>
    <dc:type
       rdf:resource="http://purl.org/dc/dcmitype/StillImage" />
    <dc:title />
  </cc:Work>
</rdf:RDF>
</metadata>
  <path
     style="opacity:0.42608696;color:#000000;fill:#acd8f3;fill-opacity:1;fill-rule:nonzero;stroke:#a35151;stroke-width:0;stroke-linecap:round;stroke-linejoin:miter;stroke-miterlimit:4;stroke-opacity:1;stroke-dashoffset:0;marker:none;visibility:visible;display:inline;overflow:visible;enable-background:accumulate"
     d="m 510.3125,460.78917 c -5.96104,0.20082 -11.84614,2.26282 -16.62896,5.82638 -4.78282,3.56356 -8.44214,8.61288 -10.33979,14.26737 l -49.8125,148.5 -156.6875,-1.5 c -6.17678,-0.0585 -12.35679,1.88482 -17.38841,5.46795 -5.03162,3.58313 -8.8892,8.78776 -10.85391,14.64403 -1.96471,5.85627 -2.02652,12.33434 -0.17392,18.22704 1.85259,5.89269 5.61016,11.16999 10.57249,14.84848 l 125.84375,93.25 -49.875,148.53125 c -1.96234,5.85529 -2.02267,12.33143 -0.16975,18.22226 1.85292,5.89082 5.60965,11.16634 10.57051,14.84398 4.96086,3.67764 11.10058,5.73868 17.27565,5.79925 6.17507,0.0606 12.35404,-1.87962 17.38609,-5.45924 l 127.65625,-90.875 125.8125,93.3125 c 4.96237,3.67166 11.10121,5.7269 17.27398,5.78322 6.17276,0.0563 12.34807,-1.88659 17.37661,-5.4671 5.02854,-3.58051 8.88473,-8.78042 10.85088,-14.63196 1.96615,-5.85153 2.03226,-12.32494 0.18603,-18.21541 L 632.25,776.75792 l 127.65625,-90.875 c 5.03617,-3.58065 8.89863,-8.78491 10.86712,-14.64231 1.96849,-5.8574 2.03296,-12.33805 0.1814,-18.23345 -1.85157,-5.89541 -5.60971,-11.17548 -10.57365,-14.85563 -4.96394,-3.68014 -11.10832,-5.74156 -17.28737,-5.79986 l -156.71875,-1.5 -46.9375,-149.4375 c -1.91742,-6.09362 -5.87573,-11.52555 -11.08907,-15.2174 -5.21334,-3.69186 -11.65136,-5.62213 -18.03593,-5.4076 z m -0.625,227.02509 c 26.88076,0 47.56866,20.6879 47.56866,47.56866 0,26.88076 -20.6879,47.56866 -47.56866,47.56866 -26.88076,0 -47.56866,-20.6879 -47.56866,-47.56866 0,-26.88076 20.6879,-47.56866 47.56866,-47.56866 z"
     id="path3825"
     inkscape:connector-curvature="0"
     sodipodi:nodetypes="cscccssscccssscccssscccssscccscsssss" />
  <path
     d="M 511.3088,490.24782 454.67423,659.08549 276.57515,657.37535 419.62742,763.38194 362.92622,932.24178 508.04399,828.94479 651.05184,935.01802 597.68208,765.15871 742.79985,661.86169 564.70077,660.15155 z m -1.6213,174.48035 c 39.01145,0 70.64741,31.63597 70.64741,70.64742 0,39.01145 -31.63596,70.64741 -70.64741,70.64741 -39.01145,0 -70.64741,-31.63596 -70.64741,-70.64741 0,-39.01145 31.63596,-70.64742 70.64741,-70.64742 z"
     id="polygon7"
     inkscape:connector-curvature="0"
     sodipodi:nodetypes="cccccccccccsssss" />
</svg>
