<?xml version="1.0" encoding="UTF-8" standalone="no"?>
<svg
   xmlns:dc="http://purl.org/dc/elements/1.1/"
   xmlns:cc="http://creativecommons.org/ns#"
   xmlns:rdf="http://www.w3.org/1999/02/22-rdf-syntax-ns#"
   xmlns:svg="http://www.w3.org/2000/svg"
   xmlns="http://www.w3.org/2000/svg"
   xmlns:sodipodi="http://sodipodi.sourceforge.net/DTD/sodipodi-0.dtd"
   xmlns:inkscape="http://www.inkscape.org/namespaces/inkscape"
   width="1060"
   height="1060"
   id="svg2"
   version="1.1"
   inkscape:version="0.48.4 r9939"
   sodipodi:docname="light_major_small.svg">
  <defs
     id="defs13">
    <inkscape:path-effect
       effect="gears"
       id="path-effect3774"
       is_visible="true"
       teeth="6"
       phi="-1.2" />
    <inkscape:path-effect
       effect="bend_path"
       id="path-effect3772"
       is_visible="false"
       bendpath="m 95.790098,316.51174 c 144.429032,-206.42506 223.313032,-11.7428 339.548092,0"
       prop_scale="1.19"
       scale_y_rel="false"
       vertical="false"
       bendpath-nodetypes="cc" />
  </defs>
  <sodipodi:namedview
     pagecolor="#ffffff"
     bordercolor="#666666"
     borderopacity="1"
     objecttolerance="10"
     gridtolerance="10"
     guidetolerance="10"
     inkscape:pageopacity="0"
     inkscape:pageshadow="2"
     inkscape:window-width="1920"
     inkscape:window-height="1004"
     id="namedview11"
     showgrid="false"
     inkscape:zoom="0.81379307"
     inkscape:cx="821.86576"
     inkscape:cy="645.22849"
     inkscape:window-x="1680"
     inkscape:window-y="0"
     inkscape:window-maximized="1"
     inkscape:current-layer="svg2" />
  <metadata
     id="metadata2975">image/svg+xmlen<rdf:RDF>
  <cc:Work
     rdf:about="">
    <dc:format>image/svg+xml</dc:format>
    <dc:type
       rdf:resource="http://purl.org/dc/dcmitype/StillImage" />
    <dc:title />
  </cc:Work>
</rdf:RDF>
</metadata>
  <path
     style="opacity:0.42608696;color:#000000;fill:#acd8f3;fill-opacity:1;fill-rule:nonzero;stroke:#a35151;stroke-width:0;stroke-linecap:round;stroke-linejoin:miter;stroke-miterlimit:4;stroke-opacity:1;stroke-dashoffset:0;marker:none;visibility:visible;display:inline;overflow:visible;enable-background:accumulate"
     d="m 510.15406,519.53995 c -4.44454,0.14969 -8.83245,1.68714 -12.3985,4.34413 -3.56606,2.65697 -6.29444,6.42174 -7.70932,10.63769 l -37.14005,110.72118 -116.82576,-1.11838 c -4.60537,-0.0437 -9.21317,1.40531 -12.96474,4.07689 -3.75155,2.67156 -6.62776,6.55212 -8.09266,10.91853 -1.46488,4.36643 -1.51096,9.19645 -0.12971,13.59003 1.38127,4.39359 4.18291,8.32831 7.88281,11.07099 l 93.82873,69.52692 -37.18665,110.74448 c -1.46312,4.36569 -1.5081,9.19428 -0.12648,13.58648 1.38153,4.39216 4.18255,8.32559 7.88134,11.06762 3.69881,2.74204 8.27657,4.27873 12.88069,4.3239 4.60411,0.0452 9.21112,-1.40143 12.96302,-4.07039 l 95.18011,-67.75614 93.80545,69.57353 c 3.69992,2.73759 8.27705,4.26996 12.87944,4.31195 4.60238,0.0421 9.20668,-1.40662 12.95595,-4.07625 3.74926,-2.66961 6.62442,-6.54665 8.09037,-10.90956 1.46596,-4.36288 1.51526,-9.18943 0.13884,-13.58136 l -34.99656,-111.39685 95.18013,-67.75615 c 3.75496,-2.66971 6.63479,-6.55 8.1025,-10.91727 1.46769,-4.36725 1.51576,-9.19921 0.13531,-13.59478 -1.38054,-4.39561 -4.18259,-8.33242 -7.88368,-11.07633 -3.7011,-2.7439 -8.28236,-4.28089 -12.88943,-4.32435 L 566.86616,646.33805 531.86969,534.91787 c -1.42962,-4.54337 -4.38092,-8.59341 -8.26796,-11.34603 -3.88705,-2.75265 -8.68723,-4.19185 -13.44755,-4.03189 z m -0.34696,172.44773 c 17.27613,0 30.57213,13.29601 30.57213,30.57212 0,17.27614 -13.296,30.57216 -30.57213,30.57216 -17.27613,0 -30.57216,-13.29602 -30.57216,-30.57216 0,-17.27611 13.29603,-30.57212 30.57216,-30.57212 z"
     id="path3825"
     inkscape:connector-curvature="0"
     sodipodi:nodetypes="sscccssscccssscccssscccssscccscssssss"
     inkscape:transform-center-y="-16.61308"
     inkscape:transform-center-x="2.0691673e-05" />
  <path
     d="m 510.74651,562.16469 -36.96485,110.19876 -116.24358,-1.11621 93.36886,69.1895 -37.00834,110.21322 94.717,-67.42097 93.33988,69.23301 -34.83395,-110.86556 94.717,-67.421 -116.24359,-1.11619 z m -1.05821,114.46978 c 25.13765,0 45.52279,20.38515 45.52279,45.5228 0,25.13766 -20.38514,45.5228 -45.52279,45.5228 -25.13765,0 -45.52279,-20.38514 -45.52279,-45.5228 0,-25.13765 20.38514,-45.5228 45.52279,-45.5228 z"
     id="polygon7"
     inkscape:connector-curvature="0"
     sodipodi:nodetypes="cccccccccccsssss"
     inkscape:transform-center-x="0.0015570711"
     inkscape:transform-center-y="-16.608818" />
</svg>
