<?xml version="1.0" encoding="UTF-8" standalone="no"?>
<svg
   xmlns:dc="http://purl.org/dc/elements/1.1/"
   xmlns:cc="http://creativecommons.org/ns#"
   xmlns:rdf="http://www.w3.org/1999/02/22-rdf-syntax-ns#"
   xmlns:svg="http://www.w3.org/2000/svg"
   xmlns="http://www.w3.org/2000/svg"
   xmlns:sodipodi="http://sodipodi.sourceforge.net/DTD/sodipodi-0.dtd"
   xmlns:inkscape="http://www.inkscape.org/namespaces/inkscape"
   width="1060"
   height="1060"
   id="svg2"
   version="1.1"
   inkscape:version="0.48.4 r9939"
   sodipodi:docname="radio_station_omnidirectional_additional.svg">
  <defs
     id="defs13">
    <inkscape:path-effect
       effect="gears"
       id="path-effect3774"
       is_visible="true"
       teeth="6"
       phi="-1.2" />
    <inkscape:path-effect
       effect="bend_path"
       id="path-effect3772"
       is_visible="false"
       bendpath="m 95.790098,316.51174 c 144.429032,-206.42506 223.313032,-11.7428 339.548092,0"
       prop_scale="1.19"
       scale_y_rel="false"
       vertical="false"
       bendpath-nodetypes="cc" />
  </defs>
  <sodipodi:namedview
     pagecolor="#ffffff"
     bordercolor="#666666"
     borderopacity="1"
     objecttolerance="10"
     gridtolerance="10"
     guidetolerance="10"
     inkscape:pageopacity="0"
     inkscape:pageshadow="2"
     inkscape:window-width="1680"
     inkscape:window-height="1021"
     id="namedview11"
     showgrid="false"
     inkscape:zoom="0.28771931"
     inkscape:cx="1231.537"
     inkscape:cy="506.88528"
     inkscape:window-x="0"
     inkscape:window-y="0"
     inkscape:window-maximized="1"
     inkscape:current-layer="svg2"
     inkscape:snap-object-midpoints="true"
     inkscape:snap-center="true" />
  <metadata
     id="metadata2975">image/svg+xmlen<rdf:RDF>
  <cc:Work
     rdf:about="">
    <dc:format>image/svg+xml</dc:format>
    <dc:type
       rdf:resource="http://purl.org/dc/dcmitype/StillImage" />
    <dc:title></dc:title>
  </cc:Work>
</rdf:RDF>
</metadata>
  <path
     transform="translate(-215.65625,-616.76562)"
     sodipodi:type="inkscape:offset"
     inkscape:radius="34.84903"
     inkscape:original="M 677.8125 888.5 C 664.62887 888.50011 654.53122 891.42199 647.5 897.28125 C 640.46873 903.14072 636.96874 911.51767 636.96875 922.40625 C 636.96874 931.09773 639.47069 937.99811 644.5 943.125 C 649.5781 948.25201 657.59371 952.00004 668.53125 954.34375 L 679.4375 956.75 C 686.07807 958.21488 690.49017 959.86332 692.6875 961.71875 C 694.93352 963.57425 696.06243 966.20707 696.0625 969.625 C 696.06243 973.43362 694.42767 976.38674 691.15625 978.4375 C 687.88471 980.4883 683.18354 981.50002 677.03125 981.5 C 670.97652 981.50002 664.66794 980.57424 658.125 978.71875 C 651.63084 976.81448 644.88865 973.99222 637.90625 970.28125 L 637.90625 994.09375 C 644.88865 996.68165 651.8613 998.65039 658.84375 999.96875 C 665.82613 1001.2871 672.78511 1001.9375 679.71875 1001.9375 C 694.41595 1001.9375 705.33976 999.01562 712.46875 993.15625 C 719.64639 987.24805 723.2499 978.24807 723.25 966.1875 C 723.2499 957.00786 720.68936 949.94926 715.5625 944.96875 C 710.43546 939.98834 701.78312 936.25397 689.625 933.8125 L 677.59375 931.40625 C 671.88081 930.23445 667.94723 928.83015 665.75 927.21875 C 663.60153 925.55866 662.53121 923.27351 662.53125 920.34375 C 662.53121 916.43758 664.12106 913.54306 667.34375 911.6875 C 670.56636 909.83212 675.54292 908.90634 682.28125 908.90625 C 687.35931 908.90634 692.75579 909.60165 698.46875 910.96875 C 704.18156 912.33603 710.05655 914.37704 716.0625 917.0625 L 716.0625 893.90625 C 709.2753 892.09972 702.69133 890.75402 696.34375 889.875 C 689.99603 888.94738 683.81831 888.50011 677.8125 888.5 z M 287.375 890.46875 L 327.875 999.8125 L 361.5 999.8125 L 402 890.46875 L 373.65625 890.46875 L 344.71875 971.1875 L 315.71875 890.46875 L 287.375 890.46875 z M 495.46875 890.46875 L 454.9375 999.8125 L 483.28125 999.8125 L 490.25 979.90625 L 534.34375 979.90625 L 541.21875 999.8125 L 569.5625 999.8125 L 529.0625 890.46875 L 495.46875 890.46875 z M 584 890.46875 L 584 999.8125 L 612.1875 999.8125 L 612.1875 890.46875 L 584 890.46875 z M 512.3125 916.09375 L 527.25 959.59375 L 497.28125 959.59375 L 512.3125 916.09375 z M 399.9375 945.96875 L 399.9375 967.28125 L 445.9375 967.28125 L 445.9375 945.96875 L 399.9375 945.96875 z "
     style="font-size:150px;font-style:normal;font-weight:bold;line-height:125%;letter-spacing:0px;word-spacing:0px;opacity:0.8731343;color:#000000;fill:#acd8f3;fill-opacity:1;fill-rule:nonzero;stroke:#a35151;stroke-width:0;stroke-linecap:round;stroke-linejoin:miter;stroke-miterlimit:4;stroke-opacity:1;stroke-dasharray:none;stroke-dashoffset:0;marker:none;visibility:visible;display:inline;overflow:visible;enable-background:accumulate;font-family:Sans;-inkscape-font-specification:Sans Bold"
     id="path3370"
     d="m 677.8125,853.65625 c -14.67594,1.2e-4 -29.75357,2.72965 -43.03125,10.3125 A 34.852514,34.852514 0 0 0 612.1875,855.625 l -28.1875,0 A 34.852514,34.852514 0 0 0 556.53125,869.03125 34.852514,34.852514 0 0 0 529.0625,855.625 l -33.59375,0 a 34.852514,34.852514 0 0 0 -32.6875,22.71875 L 450.5,911.46875 a 34.852514,34.852514 0 0 0 -4.5625,-0.34375 l -14.40625,0 3.15625,-8.5625 A 34.852514,34.852514 0 0 0 402,855.625 l -28.34375,0 A 34.852514,34.852514 0 0 0 344.6875,871.15625 34.852514,34.852514 0 0 0 315.71875,855.625 l -28.34375,0 a 34.852514,34.852514 0 0 0 -32.6875,46.9375 l 40.5,109.3437 a 34.852514,34.852514 0 0 0 32.6875,22.75 l 33.625,0 a 34.852514,34.852514 0 0 0 32.6875,-22.75 l 3.65625,-9.875 a 34.852514,34.852514 0 0 0 2.09375,0.094 l 20.25,0 a 34.852514,34.852514 0 0 0 34.75,32.5312 l 28.34375,0 a 34.852514,34.852514 0 0 0 28.96875,-15.5624 34.852514,34.852514 0 0 0 28.96875,15.5624 l 28.34375,0 a 34.852514,34.852514 0 0 0 7.28125,-0.7812 34.852514,34.852514 0 0 0 7.15625,0.7812 l 28.1875,0 a 34.852514,34.852514 0 0 0 19.46875,-5.9687 c 6.80354,2.2515 13.69543,4.2052 20.71875,5.5313 9.07716,1.7138 18.2308,2.5624 27.34375,2.5624 19.31598,0 38.64556,-3.3484 54.875,-16.6874 a 34.852514,34.852514 0 0 0 0.0312,-0.031 c 16.16622,-13.3071 23.46859,-34.87301 23.46875,-53.875 -1.3e-4,-11.66068 -3.04967,-24.69664 -9.875,-35.71875 a 34.852514,34.852514 0 0 0 2.6875,-13.40625 l 0,-23.15625 a 34.852514,34.852514 0 0 0 -25.875,-33.6875 c -8.04361,-2.14095 -16.01501,-3.78221 -23.90625,-4.875 l 0,0.0312 c -7.877,-1.13915 -15.65848,-1.71861 -23.3125,-1.71875 z" />
  <path
     inkscape:connector-curvature="0"
     style="font-size:150px;font-style:normal;font-weight:bold;line-height:125%;letter-spacing:0px;word-spacing:0px;fill:#000000;fill-opacity:1;stroke:none;font-family:Sans;-inkscape-font-specification:Sans Bold"
     d="m 462.15625,271.73437 c -13.1836,1.1e-4 -23.2813,2.922 -30.3125,8.78125 -7.0313,5.85947 -10.5312,14.23642 -10.5312,25.125 0,8.69148 2.5019,15.59186 7.5312,20.71875 5.0781,5.12702 13.0937,8.87505 24.0313,11.21875 l 10.9062,2.40625 c 6.6406,1.46488 11.0527,3.11333 13.25,4.96875 2.246,1.8555 3.3749,4.48833 3.375,7.90625 -10e-5,3.80863 -1.6348,6.76175 -4.9062,8.8125 -3.2716,2.0508 -7.9727,3.06252 -14.125,3.0625 -6.0548,2e-5 -12.3633,-0.92575 -18.9063,-2.78125 -6.4941,-1.90427 -13.2363,-4.72653 -20.2187,-8.4375 l 0,23.8125 c 6.9824,2.5879 13.955,4.55665 20.9375,5.875 6.9823,1.31835 13.9413,1.96875 20.875,1.96875 14.6972,0 25.621,-2.92187 32.75,-8.78125 7.1776,-5.90819 10.7811,-14.90818 10.7812,-26.96875 -10e-5,-9.17963 -2.5606,-16.23824 -7.6875,-21.21875 -5.127,-4.98041 -13.7794,-8.71478 -25.9375,-11.15625 l -12.0312,-2.40625 c -5.713,-1.17179 -9.6466,-2.5761 -11.8438,-4.1875 -2.1485,-1.66008 -3.2188,-3.94524 -3.2187,-6.875 -10e-5,-3.90616 1.5898,-6.80069 4.8125,-8.65625 3.2226,-1.85537 8.1991,-2.78116 14.9375,-2.78125 5.078,9e-5 10.4745,0.6954 16.1875,2.0625 5.7128,1.36729 11.5878,3.40829 17.5937,6.09375 l 0,-23.15625 c -6.7872,-1.80652 -13.3712,-3.15223 -19.7187,-4.03125 -6.3478,-0.92762 -12.5255,-1.37489 -18.5313,-1.375 z m -390.4375,1.96875 40.5,109.34375 33.625,0 40.5,-109.34375 -28.3437,0 -28.9375,80.71875 -29,-80.71875 -28.3438,0 z m 208.0938,0 -40.5313,109.34375 28.3438,0 6.9687,-19.90625 44.0938,0 6.875,19.90625 28.3437,0 -40.5,-109.34375 -33.5937,0 z m 88.5312,0 0,109.34375 28.1875,0 0,-109.34375 -28.1875,0 z m -71.6875,25.625 14.9375,43.5 -29.9687,0 15.0312,-43.5 z m -112.375,29.875 0,21.3125 46,0 0,-21.3125 -46,0 z"
     id="path3319" />
</svg>
