<?xml version="1.0" encoding="UTF-8" standalone="no"?>
<svg
   xmlns:dc="http://purl.org/dc/elements/1.1/"
   xmlns:cc="http://creativecommons.org/ns#"
   xmlns:rdf="http://www.w3.org/1999/02/22-rdf-syntax-ns#"
   xmlns:svg="http://www.w3.org/2000/svg"
   xmlns="http://www.w3.org/2000/svg"
   xmlns:sodipodi="http://sodipodi.sourceforge.net/DTD/sodipodi-0.dtd"
   xmlns:inkscape="http://www.inkscape.org/namespaces/inkscape"
   width="1060"
   height="1060"
   id="svg2"
   version="1.1"
   inkscape:version="0.48.4 r9939"
   sodipodi:docname="small_craft_facility_shield.svg">
  <defs
     id="defs13">
    <inkscape:path-effect
       effect="gears"
       id="path-effect3774"
       is_visible="true"
       teeth="6"
       phi="-1.2" />
    <inkscape:path-effect
       effect="bend_path"
       id="path-effect3772"
       is_visible="false"
       bendpath="m 95.790098,316.51174 c 144.429032,-206.42506 223.313032,-11.7428 339.548092,0"
       prop_scale="1.19"
       scale_y_rel="false"
       vertical="false"
       bendpath-nodetypes="cc" />
  </defs>
  <sodipodi:namedview
     pagecolor="#ffffff"
     bordercolor="#666666"
     borderopacity="1"
     objecttolerance="10"
     gridtolerance="10"
     guidetolerance="10"
     inkscape:pageopacity="0"
     inkscape:pageshadow="2"
     inkscape:window-width="1920"
     inkscape:window-height="1004"
     id="namedview11"
     showgrid="false"
     inkscape:zoom="0.81379307"
     inkscape:cx="490.19251"
     inkscape:cy="588.78605"
     inkscape:window-x="1680"
     inkscape:window-y="0"
     inkscape:window-maximized="1"
     inkscape:current-layer="svg2"
     inkscape:snap-object-midpoints="true"
     inkscape:snap-center="true"
     inkscape:snap-global="false">
    <inkscape:grid
       type="xygrid"
       id="grid2989" />
  </sodipodi:namedview>
  <metadata
     id="metadata2975">image/svg+xmlen<rdf:RDF>
  <cc:Work
     rdf:about="">
    <dc:format>image/svg+xml</dc:format>
    <dc:type
       rdf:resource="http://purl.org/dc/dcmitype/StillImage" />
    <dc:title></dc:title>
  </cc:Work>
</rdf:RDF>
</metadata>
  <path
     style="fill:#930093;color:#000000;fill-opacity:1;fill-rule:nonzero;stroke:none;stroke-width:10;marker:none;visibility:visible;display:inline;overflow:visible;enable-background:accumulate"
     inkscape:connector-curvature="0"
     d="M 586.60987,652.84238 H 407.071 v -9.4494 c 0,-5.20664 4.24278,-9.44941 9.44941,-9.44941 h 160.64003 c 5.20663,0 9.44943,4.24278 9.44943,9.44941 v 9.4494 z"
     id="path3" />
  <path
     style="fill:#930093;color:#000000;fill-opacity:1;fill-rule:nonzero;stroke:none;stroke-width:10;marker:none;visibility:visible;display:inline;overflow:visible;enable-background:accumulate"
     inkscape:connector-curvature="0"
     d="m 539.3628,407.15762 h -85.04473 c -15.65768,0 -28.34825,12.69057 -28.34825,28.34825 v 207.88711 h 141.74121 v -207.8871 c 0,-15.65768 -12.69055,-28.34825 -28.34823,-28.34825 z m 9.44941,85.04473 c 0,5.21607 -4.23334,9.44941 -9.44941,9.44941 h -85.04473 c -5.21608,0 -9.44941,-4.23334 -9.44941,-9.44941 v -56.69648 c 0,-5.21608 4.23333,-9.44943 9.44941,-9.44943 h 85.04473 c 5.21607,0 9.44941,4.23335 9.44941,9.44943 v 56.69648 z"
     id="path5" />
  <path
     style="font-size:medium;font-style:normal;font-variant:normal;font-weight:normal;font-stretch:normal;text-indent:0;text-align:start;text-decoration:none;line-height:normal;letter-spacing:normal;word-spacing:normal;text-transform:none;direction:ltr;block-progression:tb;writing-mode:lr-tb;text-anchor:start;baseline-shift:baseline;color:#000000;fill:#930093;fill-opacity:1;stroke:none;stroke-width:10;marker:none;visibility:visible;display:inline;overflow:visible;enable-background:accumulate;font-family:Sans;-inkscape-font-specification:Sans;fill-rule:nonzero"
     d="m 586.5,425.96875 a 9.4503582,9.4503582 0 0 0 -6.5625,16.21875 c 31.44968,31.44968 45.65079,46.40915 50.90625,53.90625 2.62773,3.74855 2.90404,4.94828 3.09375,6.40625 0.18971,1.45797 -0.0937,4.256 -0.0937,9.1875 l 0,56.125 c 0,18.58021 -1.6802,31.98887 -4.5,39.1875 -1.4099,3.59931 -2.90092,5.4896 -4.21875,6.5 -1.31783,1.0104 -2.64238,1.53125 -5.4375,1.53125 -2.79512,0 -4.11967,-0.52085 -5.4375,-1.53125 -1.31783,-1.0104 -2.8401,-2.90069 -4.25,-6.5 -2.8198,-7.19863 -4.5,-20.60729 -4.5,-39.1875 0,-7.97582 -0.62222,-14.39723 -2.65625,-20.09375 -2.03403,-5.69652 -6.03428,-10.67342 -11,-13.4375 C 581.91232,528.75309 571.54309,530 558.25,530 a 9.453125,9.453125 0 1 0 0,18.90625 c 13.58104,0 22.15739,0.62321 24.40625,1.875 1.12443,0.6259 1.52105,0.88966 2.375,3.28125 0.85395,2.39159 1.59375,6.93749 1.59375,13.75 0,19.54818 1.23051,34.44499 5.78125,46.0625 2.27537,5.80876 5.56671,10.96237 10.34375,14.625 4.77704,3.66263 10.85017,5.4375 16.9375,5.4375 6.08733,0 12.16046,-1.77487 16.9375,-5.4375 4.77704,-3.66263 8.06838,-8.81624 10.34375,-14.625 4.55074,-11.61751 5.78125,-26.51432 5.78125,-46.0625 l 0,-56.125 c 0,-3.79976 0.53918,-7.00109 -0.0625,-11.625 -0.60168,-4.62391 -2.69997,-9.56993 -6.375,-14.8125 -7.35006,-10.48513 -21.51005,-24.9163 -53.03125,-56.4375 A 9.4503582,9.4503582 0 0 0 586.5,425.96875 z"
     id="path7"
     inkscape:connector-curvature="0" />
  <path
     style="fill:#930093;color:#000000;fill-opacity:1;fill-rule:nonzero;stroke:none;stroke-width:10;marker:none;visibility:visible;display:inline;overflow:visible;enable-background:accumulate"
     inkscape:connector-curvature="0"
     d="m 643.69377,536.51065 c 0,5.22553 -4.23333,4.47903 -9.44941,-1.6442 l -18.89884,-18.59644 c -5.21607,-6.12322 -9.44941,-10.47941 -9.44941,-20.55248 v -32.2603 c 0,-5.21608 4.23334,-4.47902 9.44941,1.65365 l 18.89884,16.30024 c 5.21608,6.11377 9.44941,14.14576 9.44941,19.35239 v 35.74714 z"
     id="path9" />
</svg>
