<?xml version="1.0" encoding="UTF-8" standalone="no"?>
<svg
   xmlns:dc="http://purl.org/dc/elements/1.1/"
   xmlns:cc="http://creativecommons.org/ns#"
   xmlns:rdf="http://www.w3.org/1999/02/22-rdf-syntax-ns#"
   xmlns:svg="http://www.w3.org/2000/svg"
   xmlns="http://www.w3.org/2000/svg"
   xmlns:sodipodi="http://sodipodi.sourceforge.net/DTD/sodipodi-0.dtd"
   xmlns:inkscape="http://www.inkscape.org/namespaces/inkscape"
   width="1060"
   height="1060"
   id="svg2"
   version="1.1"
   inkscape:version="0.48.4 r9939"
   sodipodi:docname="small_craft_facility_fuel_station.svg">
  <defs
     id="defs13">
    <inkscape:path-effect
       effect="gears"
       id="path-effect3774"
       is_visible="true"
       teeth="6"
       phi="-1.2" />
    <inkscape:path-effect
       effect="bend_path"
       id="path-effect3772"
       is_visible="false"
       bendpath="m 95.790098,316.51174 c 144.429032,-206.42506 223.313032,-11.7428 339.548092,0"
       prop_scale="1.19"
       scale_y_rel="false"
       vertical="false"
       bendpath-nodetypes="cc" />
  </defs>
  <sodipodi:namedview
     pagecolor="#ffffff"
     bordercolor="#666666"
     borderopacity="1"
     objecttolerance="10"
     gridtolerance="10"
     guidetolerance="10"
     inkscape:pageopacity="0"
     inkscape:pageshadow="2"
     inkscape:window-width="1920"
     inkscape:window-height="1004"
     id="namedview11"
     showgrid="false"
     inkscape:zoom="0.81379307"
     inkscape:cx="514.77605"
     inkscape:cy="490.61007"
     inkscape:window-x="1680"
     inkscape:window-y="0"
     inkscape:window-maximized="1"
     inkscape:current-layer="svg2"
     inkscape:snap-object-midpoints="true"
     inkscape:snap-center="true"
     inkscape:snap-global="false">
    <inkscape:grid
       type="xygrid"
       id="grid2989" />
  </sodipodi:namedview>
  <metadata
     id="metadata2975">image/svg+xmlen<rdf:RDF>
  <cc:Work
     rdf:about="">
    <dc:format>image/svg+xml</dc:format>
    <dc:type
       rdf:resource="http://purl.org/dc/dcmitype/StillImage" />
    <dc:title></dc:title>
  </cc:Work>
</rdf:RDF>
</metadata>
  <path
     style="font-size:medium;font-style:normal;font-variant:normal;font-weight:normal;font-stretch:normal;text-indent:0;text-align:start;text-decoration:none;line-height:normal;letter-spacing:normal;word-spacing:normal;text-transform:none;direction:ltr;block-progression:tb;writing-mode:lr-tb;text-anchor:start;baseline-shift:baseline;color:#000000;fill:#930093;fill-opacity:1;fill-rule:nonzero;stroke:none;stroke-width:10;marker:none;visibility:visible;display:inline;overflow:visible;enable-background:accumulate;font-family:Sans;-inkscape-font-specification:Sans"
     d="m 525.81231,468.9386 c -5.75785,0.0924 -11.44248,2.55047 -15.45376,6.68217 -4.01129,4.1317 0.89603,11.08589 0.97387,16.84395 0,32.6262 1.69737,38.13592 24.6469,64.47951 11.56859,13.2795 18.7073,16.46987 18.7073,35.46253 0,0.94697 -1.4953,11.29751 -5.57153,17.60926 -4.07622,6.31174 -8.00468,10.9397 -22.93677,10.9397 -22.27372,-1.36918 -27.01276,-13.63601 -32.78935,-26.00473 -5.77659,-12.36872 -7.1319,-24.35907 -17.80168,-24.58629 -6.82676,4.0762 -11.96903,15.77206 -13.70266,25.29303 -1.73362,9.52095 -0.87171,29.66247 13.18537,43.90064 14.31909,14.50355 31.52028,23.89019 51.70801,23.04211 28.2264,-1.18578 48.93406,-12.55106 59.345,-28.67166 10.41094,-16.1206 12.64776,-31.06639 12.64776,-41.52206 0,-33.21675 -19.15578,-54.37778 -31.88374,-66.89892 -12.72797,-12.52113 -22.30539,-14.30372 -18.7073,-34.24249 0.0794,-5.87324 -2.30797,-11.74094 -6.46512,-15.89055 -4.15718,-4.1496 -10.02921,-6.52621 -15.9023,-6.4362 z"
     id="path7"
     inkscape:connector-curvature="0"
     sodipodi:nodetypes="cscsssczczssssscsc" />
  <circle
     transform="matrix(34.953655,0,0,34.953655,75.154229,-77.726693)"
     style="color:#000000;fill:none;stroke:#930093;stroke-width:0.76696897;stroke-linecap:round;stroke-linejoin:round;stroke-miterlimit:10;stroke-opacity:1;stroke-dasharray:none;marker:none;visibility:visible;display:inline;overflow:visible;enable-background:accumulate"
     sodipodi:ry="1.025"
     sodipodi:rx="1.025"
     sodipodi:cy="15"
     sodipodi:cx="13"
     stroke-miterlimit="10"
     cx="13"
     cy="15"
     r="1.025"
     id="circle9" />
</svg>
