<?xml version="1.0" encoding="UTF-8" standalone="no"?>
<svg
   xmlns:dc="http://purl.org/dc/elements/1.1/"
   xmlns:cc="http://creativecommons.org/ns#"
   xmlns:rdf="http://www.w3.org/1999/02/22-rdf-syntax-ns#"
   xmlns:svg="http://www.w3.org/2000/svg"
   xmlns="http://www.w3.org/2000/svg"
   xmlns:sodipodi="http://sodipodi.sourceforge.net/DTD/sodipodi-0.dtd"
   xmlns:inkscape="http://www.inkscape.org/namespaces/inkscape"
   width="1060"
   height="1060"
   id="svg2"
   version="1.1"
   inkscape:version="0.48.4 r9939"
   sodipodi:docname="topmark_vertical_black_sphere_big.svg">
  <defs
     id="defs13">
    <inkscape:path-effect
       effect="gears"
       id="path-effect3774"
       is_visible="true"
       teeth="6"
       phi="-1.2" />
    <inkscape:path-effect
       effect="bend_path"
       id="path-effect3772"
       is_visible="false"
       bendpath="m 95.790098,316.51174 c 144.429032,-206.42506 223.313032,-11.7428 339.548092,0"
       prop_scale="1.19"
       scale_y_rel="false"
       vertical="false"
       bendpath-nodetypes="cc" />
  </defs>
  <sodipodi:namedview
     pagecolor="#ffffff"
     bordercolor="#666666"
     borderopacity="1"
     objecttolerance="10"
     gridtolerance="10"
     guidetolerance="10"
     inkscape:pageopacity="0"
     inkscape:pageshadow="2"
     inkscape:window-width="1920"
     inkscape:window-height="1004"
     id="namedview11"
     showgrid="false"
     inkscape:zoom="0.8137931"
     inkscape:cx="542.88139"
     inkscape:cy="843.79659"
     inkscape:window-x="1680"
     inkscape:window-y="0"
     inkscape:window-maximized="1"
     inkscape:current-layer="svg2" />
  <metadata
     id="metadata2975">image/svg+xmlen<rdf:RDF>
  <cc:Work
     rdf:about="">
    <dc:format>image/svg+xml</dc:format>
    <dc:type
       rdf:resource="http://purl.org/dc/dcmitype/StillImage" />
    <dc:title></dc:title>
  </cc:Work>
</rdf:RDF>
</metadata>
  <path
     style="font-size:medium;font-style:normal;font-variant:normal;font-weight:normal;font-stretch:normal;text-indent:0;text-align:start;text-decoration:none;line-height:normal;letter-spacing:normal;word-spacing:normal;text-transform:none;direction:ltr;block-progression:tb;writing-mode:lr-tb;text-anchor:start;baseline-shift:baseline;opacity:0.43913042;color:#000000;fill:#acd8f3;fill-opacity:1;fill-rule:nonzero;stroke:#a35151;stroke-width:0;stroke-linecap:round;stroke-linejoin:miter;stroke-miterlimit:4;stroke-opacity:1;stroke-dashoffset:0;marker:none;visibility:visible;display:inline;overflow:visible;enable-background:accumulate;font-family:Sans;-inkscape-font-specification:Sans"
     d="m 473.21875,48.518387 c -6.42013,0.08529 -12.74162,3.128539 -16.8125,8.093751 L 437.375,79.799637 c -3.67192,4.475784 -5.47942,10.435081 -4.91253,16.196526 0.56689,5.761447 3.5012,11.254177 7.97503,14.928477 l 31.53125,25.875 -30.6875,25.59375 c -4.43288,3.71397 -7.31204,9.22726 -7.82675,14.98738 -0.51471,5.76013 1.34134,11.69654 5.0455,16.13762 l 19.21875,23.03125 c 3.71026,4.44639 9.22804,7.33807 14.99566,7.85872 5.76761,0.52065 11.71404,-1.33615 16.16059,-5.04622 l 6,-5 0,294.5 c -10e-4,5.79261 2.38306,11.54996 6.47905,15.64595 4.09599,4.09599 9.85334,6.48013 15.64595,6.47905 l 25,0 c 5.79261,0.001 11.54996,-2.38306 15.64595,-6.47905 4.09599,-4.09599 6.48013,-9.85334 6.47905,-15.64595 l 0,-296.4375 8.34375,6.84375 c 4.47578,3.67192 10.43508,5.47942 16.19653,4.91253 5.76144,-0.56689 11.25418,-3.5012 14.92847,-7.97503 l 19.03125,-23.1875 c 3.67192,-4.47578 5.47942,-10.43508 4.91253,-16.19653 -0.56689,-5.76144 -3.5012,-11.25418 -7.97503,-14.92847 l -31.1875,-25.59375 30.65625,-25.5625 c 4.43741,-3.70958 7.32268,-9.22059 7.84319,-14.980852 0.5205,-5.760265 -1.33014,-11.699213 -5.03069,-16.144151 L 602.625,56.580888 C 598.91981,52.138941 593.4111,49.247554 587.65069,48.721252 581.89028,48.19495 575.9488,50.040183 571.5,53.737137 l -41.53125,34.625 -42.4375,-34.8125 c -3.98739,-3.277899 -9.1511,-5.093089 -14.3125,-5.03125 z"
     id="path3819"
     inkscape:connector-curvature="0"
     sodipodi:nodetypes="cccscccscsscccsccscccsccscccsccscccc" />
  <path
     style="color:#000000;fill:none;stroke:#000000;stroke-width:25;stroke-linecap:butt;stroke-linejoin:miter;stroke-miterlimit:4;stroke-opacity:1;stroke-dasharray:none;stroke-dashoffset:0;marker:none;visibility:visible;display:inline;overflow:visible;enable-background:accumulate"
     d="m 530,509.0184 0,-391.73932"
     id="path3065"
     inkscape:connector-curvature="0"
     sodipodi:nodetypes="cc" />
  <path
     style="fill:none;stroke:#000000;stroke-width:30;stroke-linecap:butt;stroke-linejoin:miter;stroke-miterlimit:4;stroke-opacity:1;stroke-dasharray:none"
     d="M 463.99244,82.385107 596.00756,190.7328"
     id="path3792"
     inkscape:connector-curvature="0"
     inkscape:transform-center-x="-53.515586"
     inkscape:transform-center-y="-410.20199" />
  <path
     style="color:#000000;fill:none;stroke:#000000;stroke-width:30;stroke-linecap:butt;stroke-linejoin:miter;stroke-miterlimit:4;stroke-opacity:1;stroke-dasharray:none;stroke-dashoffset:0;marker:none;visibility:visible;display:inline;overflow:visible;enable-background:accumulate"
     d="M 464.90834,191.03737 595.09166,82.409037"
     id="path3794"
     inkscape:connector-curvature="0"
     inkscape:transform-center-x="-5.1350134"
     inkscape:transform-center-y="0.6418635" />
</svg>
