<?xml version="1.0" encoding="UTF-8" standalone="no"?>
<svg
   xmlns:dc="http://purl.org/dc/elements/1.1/"
   xmlns:cc="http://creativecommons.org/ns#"
   xmlns:rdf="http://www.w3.org/1999/02/22-rdf-syntax-ns#"
   xmlns:svg="http://www.w3.org/2000/svg"
   xmlns="http://www.w3.org/2000/svg"
   xmlns:sodipodi="http://sodipodi.sourceforge.net/DTD/sodipodi-0.dtd"
   xmlns:inkscape="http://www.inkscape.org/namespaces/inkscape"
   width="1060"
   height="1060"
   id="svg2"
   version="1.1"
   inkscape:version="0.48.4 r9939"
   sodipodi:docname="topmark_vertical_black_2conespointtogether_big.svg">
  <defs
     id="defs13">
    <inkscape:path-effect
       effect="gears"
       id="path-effect3774"
       is_visible="true"
       teeth="6"
       phi="-1.2" />
    <inkscape:path-effect
       effect="bend_path"
       id="path-effect3772"
       is_visible="false"
       bendpath="m 95.790098,316.51174 c 144.429032,-206.42506 223.313032,-11.7428 339.548092,0"
       prop_scale="1.19"
       scale_y_rel="false"
       vertical="false"
       bendpath-nodetypes="cc" />
  </defs>
  <sodipodi:namedview
     pagecolor="#ffffff"
     bordercolor="#666666"
     borderopacity="1"
     objecttolerance="10"
     gridtolerance="10"
     guidetolerance="10"
     inkscape:pageopacity="0"
     inkscape:pageshadow="2"
     inkscape:window-width="1920"
     inkscape:window-height="1004"
     id="namedview11"
     showgrid="false"
     inkscape:zoom="0.57543862"
     inkscape:cx="821.19172"
     inkscape:cy="614.04129"
     inkscape:window-x="1680"
     inkscape:window-y="0"
     inkscape:window-maximized="1"
     inkscape:current-layer="svg2" />
  <metadata
     id="metadata2975">image/svg+xmlen<rdf:RDF>
  <cc:Work
     rdf:about="">
    <dc:format>image/svg+xml</dc:format>
    <dc:type
       rdf:resource="http://purl.org/dc/dcmitype/StillImage" />
    <dc:title></dc:title>
  </cc:Work>
</rdf:RDF>
</metadata>
  <path
     style="font-size:medium;font-style:normal;font-variant:normal;font-weight:normal;font-stretch:normal;text-indent:0;text-align:start;text-decoration:none;line-height:normal;letter-spacing:normal;word-spacing:normal;text-transform:none;direction:ltr;block-progression:tb;writing-mode:lr-tb;text-anchor:start;baseline-shift:baseline;opacity:0.43913042;color:#000000;fill:#acd8f3;fill-opacity:1;fill-rule:nonzero;stroke:#a35151;stroke-width:0;stroke-linecap:round;stroke-linejoin:miter;stroke-miterlimit:4;stroke-opacity:1;stroke-dashoffset:0;marker:none;visibility:visible;display:inline;overflow:visible;enable-background:accumulate;font-family:Sans;-inkscape-font-specification:Sans"
     d="m 528.0769,54.537133 c -4.29415,0.128174 -8.58982,0.691292 -12.8125,1.6875 -34.12597,8.050941 -55.55109,42.685869 -47.5,76.812497 3.06923,13.0097 10.07643,24.09456 19.34375,32.5 -16.5303,15.16028 -24.69767,38.58869 -19.21875,61.8125 4.37308,18.53646 16.59969,33.24605 32.28125,41.59375 l 0,244.78125 c 0.004,4.49046 1.85393,8.95184 5.02917,12.12708 3.17524,3.17524 7.63662,5.0254 12.12708,5.02917 l 25,0 c 4.49046,-0.004 8.95184,-1.85393 12.12708,-5.02917 3.17524,-3.17524 5.0254,-7.63662 5.02917,-12.12708 l 0,-244.40625 c 25.28276,-13.1825 39.56752,-42.41472 32.75,-71.3125 -3.06882,-13.00796 -10.04646,-24.09483 -19.3125,-32.5 16.50968,-15.16052 24.66319,-38.57116 19.1875,-61.78125 C 585.06043,73.851106 557.81534,53.649508 528.0769,54.537133 z"
     id="path3895"
     inkscape:connector-curvature="0"
     sodipodi:nodetypes="ssscsccsccsccscss" />
  <path
     style="color:#000000;fill:none;stroke:#000000;stroke-width:23.31148338;stroke-linecap:butt;stroke-linejoin:miter;stroke-miterlimit:4;stroke-opacity:1;stroke-dasharray:none;stroke-dashoffset:0;marker:none;visibility:visible;display:inline;overflow:visible;enable-background:accumulate"
     d="m 530,511.91546 0,-387.56162"
     id="path3065-8"
     inkscape:connector-curvature="0" />
  <path
     sodipodi:type="arc"
     style="color:#000000;fill:#000000;fill-opacity:1;fill-rule:nonzero;stroke:none;stroke-width:25;marker:none;visibility:visible;display:inline;overflow:visible;enable-background:accumulate"
     id="path3760"
     sodipodi:cx="293.68643"
     sodipodi:cy="116.73729"
     sodipodi:rx="46.694916"
     sodipodi:ry="46.694916"
     d="m 340.38135,116.73729 a 46.694916,46.694916 0 1 1 -93.38983,0 46.694916,46.694916 0 1 1 93.38983,0 z"
     transform="matrix(0.97328156,-0.22961494,0.22961494,0.97328156,217.35579,72.201973)" />
  <path
     sodipodi:type="arc"
     style="color:#000000;fill:#000000;fill-opacity:1;fill-rule:nonzero;stroke:none;stroke-width:25;marker:none;visibility:visible;display:inline;overflow:visible;enable-background:accumulate"
     id="path3760-3"
     sodipodi:cx="293.68643"
     sodipodi:cy="116.73729"
     sodipodi:rx="46.694916"
     sodipodi:ry="46.694916"
     d="m 340.38135,116.73729 a 46.694916,46.694916 0 1 1 -93.38983,0 46.694916,46.694916 0 1 1 93.38983,0 z"
     transform="matrix(0.97328156,-0.22961494,0.22961494,0.97328156,217.35579,166.49515)" />
</svg>
