# Blender 4.1.1
# www.blender.org
mtllib map_navigation_car.mtl
o map_navigation_car
v -0.000000 0.000000 -0.950778
v 0.000000 0.000000 1.555141
v 0.127660 0.000000 1.507709
v 0.039738 0.000000 1.550563
v 0.080584 0.000000 1.538011
v 0.750851 0.000000 0.868564
v 0.790539 0.000000 0.771010
v 0.778915 0.000000 0.823131
v 0.528281 0.000000 -1.421701
v 0.601738 0.000000 -1.459974
v 0.775723 0.000000 -1.378876
v 0.790539 0.000000 -1.276865
v 0.734958 0.000000 -1.435193
v 0.673098 0.000000 -1.463031
v -0.127660 0.000000 1.507709
v -0.039738 0.000000 1.550563
v -0.080584 0.000000 1.538011
v -0.750851 0.000000 0.868564
v -0.790539 0.000000 0.771010
v -0.778914 0.000000 0.823131
v -0.528281 0.000000 -1.421701
v -0.601738 0.000000 -1.459974
v -0.775723 0.000000 -1.378876
v -0.790539 0.000000 -1.276865
v -0.734958 0.000000 -1.435193
v -0.673098 0.000000 -1.463031
v 0.000000 0.143374 1.555141
v 0.039738 0.143374 1.550563
v 0.080584 0.143374 1.538011
v 0.127660 0.143374 1.507709
v 0.750851 0.143374 0.868564
v 0.778915 0.143374 0.823131
v 0.790539 0.143374 0.771010
v 0.528281 0.143374 -1.421701
v 0.601738 0.143374 -1.459974
v 0.775723 0.143374 -1.378876
v 0.790539 0.143374 -1.276865
v 0.734958 0.143374 -1.435193
v 0.673098 0.143374 -1.463031
v -0.000000 0.143374 -0.950778
v -0.039738 0.143374 1.550563
v -0.080584 0.143374 1.538011
v -0.127660 0.143374 1.507709
v -0.750851 0.143374 0.868564
v -0.778914 0.143374 0.823131
v -0.790539 0.143374 0.771010
v -0.528281 0.143374 -1.421701
v -0.601738 0.143374 -1.459974
v -0.775723 0.143374 -1.378876
v -0.790539 0.143374 -1.276865
v -0.734958 0.143374 -1.435193
v -0.673098 0.143374 -1.463031
v 0.598928 0.143374 0.763003
v 0.598928 0.143374 -1.205094
v -0.000000 0.143374 -0.676408
v 0.000000 0.143374 1.328150
v -0.598928 0.143374 0.763003
v -0.598928 0.143374 -1.205094
v -0.000000 0.348642 -0.376483
vn -0.0000 -1.0000 -0.0000
vn 0.9896 -0.0000 -0.1437
vn 0.6654 -0.0000 -0.7465
vn 0.1145 -0.0000 0.9934
vn -0.5412 -0.0000 0.8409
vn 0.4104 -0.0000 -0.9119
vn 0.0428 -0.0000 -0.9991
vn 0.2937 -0.0000 0.9559
vn -0.7160 -0.0000 0.6981
vn -0.6654 -0.0000 -0.7465
vn -0.8101 -0.0000 -0.5864
vn 0.5413 -0.0000 0.8409
vn -0.8508 -0.0000 0.5255
vn -0.0428 -0.0000 -0.9991
vn -1.0000 -0.0000 -0.0000
vn 0.7160 -0.0000 0.6981
vn -0.9760 -0.0000 0.2177
vn 0.8101 -0.0000 -0.5864
vn 0.8508 -0.0000 0.5255
vn 0.4621 -0.0000 -0.8868
vn 1.0000 -0.0000 -0.0000
vn 0.9760 -0.0000 0.2177
vn -0.9896 -0.0000 -0.1437
vn -0.1145 -0.0000 0.9934
vn -0.4621 -0.0000 -0.8868
vn -0.4104 -0.0000 -0.9119
vn -0.2937 -0.0000 0.9559
vn -0.0000 1.0000 -0.0000
vn -0.4462 0.7385 -0.5055
vn 0.1121 0.9866 0.1188
vn 0.4462 0.7385 -0.5055
vn -0.3242 0.9460 -0.0000
vn -0.5413 -0.0000 0.8409
vn 0.5412 -0.0000 0.8409
vn 0.3242 0.9460 -0.0000
vn -0.1121 0.9866 0.1188
vt 0.000000 0.000000
s 0
usemtl bridge
f 19/1/1 14/1/1 7/1/1
f 11/1/2 37/1/2 12/1/2
f 21/1/3 40/1/3 1/1/3
f 4/1/4 27/1/4 2/1/4
f 17/1/5 43/1/5 15/1/5
f 14/1/6 38/1/6 13/1/6
f 26/1/7 48/1/7 22/1/7
f 5/1/8 28/1/8 4/1/8
f 15/1/9 44/1/9 18/1/9
f 1/1/10 34/1/10 9/1/10
f 23/1/11 51/1/11 25/1/11
f 3/1/12 29/1/12 5/1/12
f 18/1/13 45/1/13 20/1/13
f 10/1/14 39/1/14 14/1/14
f 19/1/15 50/1/15 24/1/15
f 6/1/16 30/1/16 3/1/16
f 20/1/17 46/1/17 19/1/17
f 13/1/18 36/1/18 11/1/18
f 8/1/19 31/1/19 6/1/19
f 22/1/20 47/1/20 21/1/20
f 12/1/21 33/1/21 7/1/21
f 7/1/22 32/1/22 8/1/22
f 24/1/23 49/1/23 23/1/23
f 2/1/24 41/1/24 16/1/24
f 9/1/25 35/1/25 10/1/25
f 25/1/26 52/1/26 26/1/26
f 16/1/27 42/1/27 17/1/27
f 56/1/28 41/1/28 27/1/28
f 56/1/28 42/1/28 41/1/28
f 57/1/28 44/1/28 43/1/28
f 57/1/28 45/1/28 44/1/28
f 57/1/28 46/1/28 45/1/28
f 58/1/28 46/1/28 57/1/28
f 58/1/28 49/1/28 50/1/28
f 58/1/28 51/1/28 49/1/28
f 58/1/28 52/1/28 51/1/28
f 58/1/28 48/1/28 52/1/28
f 55/1/28 47/1/28 48/1/28
f 55/1/28 40/1/28 47/1/28
f 55/1/28 34/1/28 40/1/28
f 55/1/28 35/1/28 34/1/28
f 54/1/28 35/1/28 55/1/28
f 54/1/28 38/1/28 39/1/28
f 54/1/28 36/1/28 38/1/28
f 54/1/28 37/1/28 36/1/28
f 54/1/28 33/1/28 37/1/28
f 53/1/28 32/1/28 33/1/28
f 53/1/28 31/1/28 32/1/28
f 53/1/28 30/1/28 31/1/28
f 42/1/28 56/1/28 57/1/28
f 56/1/28 28/1/28 29/1/28
f 56/1/28 27/1/28 28/1/28
f 43/1/28 42/1/28 57/1/28
f 58/1/28 50/1/28 46/1/28
f 58/1/28 55/1/28 48/1/28
f 54/1/28 39/1/28 35/1/28
f 54/1/28 53/1/28 33/1/28
f 30/1/28 53/1/28 29/1/28
f 53/1/28 56/1/28 29/1/28
f 5/1/1 4/1/1 2/1/1
f 2/1/1 16/1/1 17/1/1
f 17/1/1 15/1/1 18/1/1
f 18/1/1 20/1/1 19/1/1
f 19/1/1 24/1/1 23/1/1
f 23/1/1 25/1/1 26/1/1
f 26/1/1 22/1/1 21/1/1
f 1/1/1 9/1/1 10/1/1
f 26/1/1 21/1/1 1/1/1
f 19/1/1 23/1/1 26/1/1
f 17/1/1 18/1/1 19/1/1
f 5/1/1 2/1/1 17/1/1
f 6/1/1 3/1/1 5/1/1
f 7/1/1 8/1/1 6/1/1
f 11/1/1 12/1/1 7/1/1
f 14/1/1 13/1/1 11/1/1
f 1/1/1 10/1/1 14/1/1
f 19/1/1 26/1/1 1/1/1
f 5/1/1 17/1/1 19/1/1
f 7/1/1 6/1/1 5/1/1
f 14/1/1 11/1/1 7/1/1
f 19/1/1 1/1/1 14/1/1
f 7/1/1 5/1/1 19/1/1
f 11/1/2 36/1/2 37/1/2
f 21/1/3 47/1/3 40/1/3
f 4/1/4 28/1/4 27/1/4
f 17/1/33 42/1/33 43/1/33
f 14/1/6 39/1/6 38/1/6
f 26/1/7 52/1/7 48/1/7
f 5/1/8 29/1/8 28/1/8
f 15/1/9 43/1/9 44/1/9
f 1/1/10 40/1/10 34/1/10
f 23/1/11 49/1/11 51/1/11
f 3/1/34 30/1/34 29/1/34
f 18/1/13 44/1/13 45/1/13
f 10/1/14 35/1/14 39/1/14
f 19/1/15 46/1/15 50/1/15
f 6/1/16 31/1/16 30/1/16
f 20/1/17 45/1/17 46/1/17
f 13/1/18 38/1/18 36/1/18
f 8/1/19 32/1/19 31/1/19
f 22/1/20 48/1/20 47/1/20
f 12/1/21 37/1/21 33/1/21
f 7/1/22 33/1/22 32/1/22
f 24/1/23 50/1/23 49/1/23
f 2/1/24 27/1/24 41/1/24
f 9/1/25 34/1/25 35/1/25
f 25/1/26 51/1/26 52/1/26
f 16/1/27 41/1/27 42/1/27
usemtl profile_color
f 55/1/29 59/1/29 54/1/29
f 53/1/30 59/1/30 56/1/30
f 55/1/31 58/1/31 59/1/31
f 57/1/32 59/1/32 58/1/32
f 53/1/35 54/1/35 59/1/35
f 57/1/36 56/1/36 59/1/36
