<svg width="12" height="12" viewBox="0 0 12 12" fill="none" xmlns="http://www.w3.org/2000/svg">
<path fill-rule="evenodd" clip-rule="evenodd" d="M1 3V2L11 2V3H10V4H11C11.5523 4 12 3.55228 12 3V2C12 1.44772 11.5523 1 11 1H1C0.447715 1 0 1.44772 0 2V3C0 3.55228 0.447715 4 1 4H2H3V3H2H1Z" fill="white"/>
<path d="M10 10.5H4C3.72386 10.5 3.5 10.2761 3.5 10V2C3.5 1.72386 3.72386 1.5 4 1.5H10C10.2761 1.5 10.5 1.72386 10.5 2V10C10.5 10.2761 10.2761 10.5 10 10.5Z" fill="white" fill-opacity="0.2" stroke="white" stroke-linejoin="round"/>
<path opacity="0.5" fill-rule="evenodd" clip-rule="evenodd" d="M10 10H3V4H2V11C2 11.5523 2.44772 12 3 12H9C9.55228 12 10 11.5523 10 11V10Z" fill="white"/>
<path fill-rule="evenodd" clip-rule="evenodd" d="M7 3C7.27614 3 7.5 3.22386 7.5 3.5V4H8.5C8.77614 4 9 4.22386 9 4.5C9 4.77614 8.77614 5 8.5 5H6.5C6.22386 5 6 5.22386 6 5.5C6 5.77614 6.22386 6 6.5 6H7.5C8.32843 6 9 6.67157 9 7.5C9 8.32843 8.32843 9 7.5 9V9.5C7.5 9.77614 7.27614 10 7 10C6.72386 10 6.5 9.77614 6.5 9.5V9H5.5C5.22386 9 5 8.77614 5 8.5C5 8.22386 5.22386 8 5.5 8H7.5C7.77614 8 8 7.77614 8 7.5C8 7.22386 7.77614 7 7.5 7H6.5C5.67157 7 5 6.32843 5 5.5C5 4.67157 5.67157 4 6.5 4V3.5C6.5 3.22386 6.72386 3 7 3Z" fill="white"/>
</svg>
