<?xml version="1.0" encoding="UTF-8" standalone="no"?>
<!-- Created with Inkscape (http://www.inkscape.org/) -->

<svg
   xmlns:dc="http://purl.org/dc/elements/1.1/"
   xmlns:cc="http://creativecommons.org/ns#"
   xmlns:rdf="http://www.w3.org/1999/02/22-rdf-syntax-ns#"
   xmlns:svg="http://www.w3.org/2000/svg"
   xmlns="http://www.w3.org/2000/svg"
   xmlns:sodipodi="http://sodipodi.sourceforge.net/DTD/sodipodi-0.dtd"
   xmlns:inkscape="http://www.inkscape.org/namespaces/inkscape"
   version="1.0"
   width="580"
   height="580"
   id="svg2"
   sodipodi:version="0.32"
   inkscape:version="0.91 r"
   sodipodi:docname="atm_no.svg"
   inkscape:output_extension="org.inkscape.output.svg.inkscape">
  <metadata
     id="metadata2975">
    <rdf:RDF>
      <cc:Work
         rdf:about="">
        <dc:format>image/svg+xml</dc:format>
        <dc:type
           rdf:resource="http://purl.org/dc/dcmitype/StillImage" />
        <cc:license
           rdf:resource="http://web.resource.org/cc/PublicDomain" />
        <dc:language>en</dc:language>
      </cc:Work>
    </rdf:RDF>
  </metadata>
  <sodipodi:namedview
     inkscape:window-height="1004"
     inkscape:window-width="1920"
     inkscape:pageshadow="2"
     inkscape:pageopacity="0.0"
     guidetolerance="10.0"
     gridtolerance="10.0"
     objecttolerance="10.0"
     borderopacity="1.0"
     bordercolor="#666666"
     pagecolor="#ffffff"
     id="base"
     inkscape:zoom="0.46083857"
     inkscape:cx="911.70024"
     inkscape:cy="435.10588"
     inkscape:window-x="1680"
     inkscape:window-y="0"
     inkscape:current-layer="svg2"
     showgrid="false"
     inkscape:window-maximized="1" />
  <defs
     id="defs4">
    <inkscape:perspective
       sodipodi:type="inkscape:persp3d"
       inkscape:vp_x="0 : 290 : 1"
       inkscape:vp_y="0 : 1000 : 0"
       inkscape:vp_z="580 : 290 : 1"
       inkscape:persp3d-origin="290 : 193.33333 : 1"
       id="perspective2441" />
  </defs>
  <g
     id="g1327">
    <path
       d="M 66.275,1.768 C 24.94,1.768 1.704,23.139 1.704,66.804 L 1.704,516.927 C 1.704,557.771 22.599,579.156 63.896,579.156 L 515.92,579.156 C 557.227,579.156 578.149,558.841 578.149,516.927 L 578.149,66.804 C 578.149,24.203 557.227,1.768 514.628,1.768 C 514.624,1.768 66.133,1.625 66.275,1.768 z "
       style="fill:#111;stroke:#eee;stroke-width:3.40799999"
       id="path1329" />
  </g>
  <path
     style="opacity:0.1;fill:#ffffff;fill-opacity:1;fill-rule:evenodd;stroke:none;stroke-width:21.12955284;stroke-linecap:round;stroke-linejoin:round;stroke-miterlimit:4;stroke-dasharray:none;stroke-opacity:1"
     d="M 411.03711 124.16602 L 169.13086 125.77148 C 168.0395 132.10066 131.15544 290.47299 104.26953 405.72656 L 437.36328 236.7168 L 411.03711 124.16602 z M 444.86523 268.79297 L 94.779297 446.42773 C 84.52986 490.34108 76.869141 523.13477 76.869141 523.13477 L 503.51367 519.5293 L 444.86523 268.79297 z "
     id="path3163" />
  <path
     style="color:#000000;font-style:normal;font-variant:normal;font-weight:normal;font-stretch:normal;font-size:medium;line-height:normal;font-family:sans-serif;text-indent:0;text-align:start;text-decoration:none;text-decoration-line:none;text-decoration-style:solid;text-decoration-color:#000000;letter-spacing:normal;word-spacing:normal;text-transform:none;direction:ltr;block-progression:tb;writing-mode:lr-tb;baseline-shift:baseline;text-anchor:start;white-space:normal;clip-rule:nonzero;display:inline;overflow:visible;visibility:visible;opacity:1;isolation:auto;mix-blend-mode:normal;color-interpolation:sRGB;color-interpolation-filters:linearRGB;solid-color:#000000;solid-opacity:1;fill:#ffffff;fill-opacity:1;fill-rule:evenodd;stroke:none;stroke-width:21.12955284;stroke-linecap:butt;stroke-linejoin:round;stroke-miterlimit:4;stroke-dasharray:none;stroke-dashoffset:0;stroke-opacity:1;color-rendering:auto;image-rendering:auto;shape-rendering:auto;text-rendering:auto;enable-background:accumulate"
     d="M 410.9668 113.60156 L 169.0625 115.20508 A 10.565833 10.565833 0 0 0 158.7207 123.97461 C 158.7905 123.56994 158.25776 126.19373 157.50781 129.54297 C 156.75786 132.89221 155.70015 137.54874 154.38281 143.30859 C 151.74814 154.8283 148.07242 170.76719 143.70898 189.61914 C 134.98212 227.32304 123.50263 276.684 112.07617 325.73828 C 104.73869 357.23843 98.518239 383.88933 91.966797 411.9707 L 116.57617 399.48438 C 121.88411 376.7281 126.57373 356.63736 132.6543 330.5332 C 144.0819 281.474 155.56176 232.10744 164.29297 194.38477 C 168.65857 175.52343 172.33798 159.57343 174.98047 148.01953 C 176.0997 143.12587 176.92165 139.49062 177.64453 136.2793 L 402.66992 134.78516 L 427.66406 241.63672 L 447.0625 231.79492 L 421.32422 121.75977 A 10.565833 10.565833 0 0 0 410.9668 113.60156 z M 454.56445 263.87109 L 435.16602 273.71484 L 490.21875 509.07617 L 90.208984 512.45703 C 91.706397 506.04892 98.316355 477.74919 107.08398 440.18359 L 82.474609 452.66992 C 73.169986 492.53196 66.582031 520.73047 66.582031 520.73047 A 10.565833 10.565833 0 0 0 76.957031 533.69922 L 503.60352 530.09375 A 10.565833 10.565833 0 0 0 513.80078 517.12305 L 454.56445 263.87109 z "
     id="path3243" />
  <g
     id="g4372"
     transform="translate(-130.0802,122.26983)" />
  <path
     style="font-style:normal;font-variant:normal;font-weight:normal;font-stretch:normal;font-size:323.14517212px;line-height:125%;font-family:'Arial Unicode MS';-inkscape-font-specification:'Arial Unicode MS';text-align:start;writing-mode:lr-tb;text-anchor:start;fill:#ffffff;fill-opacity:1;stroke:none;stroke-width:1px;stroke-linecap:butt;stroke-linejoin:miter;stroke-opacity:1"
     d="M 289.90234 171.45117 A 15.848748 15.848748 0 0 0 274.29492 187.52344 L 274.29492 205.25977 C 249.0782 207.62541 230.07909 214.28891 217.31641 225.26562 C 203.58324 237.07736 196.71677 251.21724 196.7168 267.68164 C 196.71677 284.24863 203.65097 297.79697 217.52148 308.33008 C 227.79594 316.13262 241.93308 322.2727 259.89648 326.76367 L 305.98828 303.375 L 305.98828 228.75977 C 316.03027 230.73253 324.17401 234.4241 330.4082 239.83984 C 337.41194 245.92477 342.0115 254.18248 344.20898 264.61328 L 382.73047 260.4707 C 379.29698 243.69952 370.8528 230.66174 357.39453 221.35547 C 344.67627 212.56155 327.53615 207.14974 305.98828 205.11328 L 305.98828 187.52344 A 15.848748 15.848748 0 0 0 289.90234 171.45117 z M 274.29492 228.72266 L 274.29492 303.04102 C 262.62963 299.88764 253.24415 295.6966 246.1543 290.46094 C 237.91435 284.37635 233.79485 276.0666 233.79492 265.5332 C 233.79485 256.32958 237.77885 248.226 245.74414 241.2207 C 252.63706 235.15875 262.15671 230.99395 274.29492 228.72266 z M 346.46094 318.72266 L 310.87891 336.77734 C 325.15216 340.71957 335.29479 345.32066 341.22266 350.5918 C 348.29505 356.88115 351.83185 365.19089 351.83203 375.51953 C 351.83185 387.28 347.16259 397.0193 337.82422 404.74023 C 329.32118 411.77033 318.70365 416.26834 305.98828 418.25391 L 305.98828 339.25977 L 274.29492 355.33984 L 274.29492 418.11133 C 262.30386 416.30793 252.50859 411.88016 244.91992 404.81641 C 237.80812 398.19669 232.63218 389.29917 229.38672 378.12695 L 195.21875 395.46289 C 199.47648 405.98596 206.2928 414.75432 215.66797 421.76758 C 229.57597 432.17179 249.12434 438.75159 274.29492 441.51953 L 274.29492 467.53516 A 15.848748 15.848748 0 1 0 305.98828 467.53516 L 305.98828 441.57422 C 331.63659 439.96378 351.87147 432.88546 366.66406 420.31055 C 382.18231 407.11846 389.9412 391.52398 389.94141 373.52539 C 389.9412 355.93598 382.86759 341.721 368.72266 330.88086 C 362.61115 326.19747 355.18894 322.14511 346.46094 318.72266 z "
     id="text2413" />
  <path
     style="opacity:0.5;fill:#ffffff;fill-opacity:1;stroke:#ffffff;stroke-width:33.34293365;stroke-linecap:round;stroke-linejoin:round;stroke-miterlimit:4;stroke-dasharray:none;stroke-dashoffset:0;stroke-opacity:1"
     d="m 80.865769,68.055135 0,96.563495 70.008451,0 c 6.5397,-22.40461 10.75034,-55.55725 11.07856,-57.35444 l 256.21479,-1.58916 12.02728,58.9436 68.93938,0 0,-96.563495 z"
     id="rect7186"
     sodipodi:nodetypes="ccccccccc"
     inkscape:connector-curvature="0" />
  <path
     style="color:#000000;font-style:normal;font-variant:normal;font-weight:normal;font-stretch:normal;font-size:medium;line-height:normal;font-family:sans-serif;text-indent:0;text-align:start;text-decoration:none;text-decoration-line:none;text-decoration-style:solid;text-decoration-color:#000000;letter-spacing:normal;word-spacing:normal;text-transform:none;direction:ltr;block-progression:tb;writing-mode:lr-tb;baseline-shift:baseline;text-anchor:start;white-space:normal;clip-rule:nonzero;display:inline;overflow:visible;visibility:visible;opacity:1;isolation:auto;mix-blend-mode:normal;color-interpolation:sRGB;color-interpolation-filters:linearRGB;solid-color:#000000;solid-opacity:1;fill:#ffffff;fill-opacity:1;fill-rule:evenodd;stroke:none;stroke-width:32;stroke-linecap:butt;stroke-linejoin:miter;stroke-miterlimit:4;stroke-dasharray:none;stroke-dashoffset:0;stroke-opacity:1;color-rendering:auto;image-rendering:auto;shape-rendering:auto;text-rendering:auto;enable-background:accumulate"
     d="M 548.26805,212.57107 24.980654,478.0873 39.459172,506.62441 562.74852,241.10818 Z"
     id="path4142-0"
     inkscape:connector-curvature="0"
     sodipodi:nodetypes="ccccc" />
</svg>
