<?xml version="1.0" encoding="UTF-8" standalone="no"?>
<!-- Created with Inkscape (http://www.inkscape.org/) -->

<svg
   xmlns:dc="http://purl.org/dc/elements/1.1/"
   xmlns:cc="http://creativecommons.org/ns#"
   xmlns:rdf="http://www.w3.org/1999/02/22-rdf-syntax-ns#"
   xmlns:svg="http://www.w3.org/2000/svg"
   xmlns="http://www.w3.org/2000/svg"
   xmlns:sodipodi="http://sodipodi.sourceforge.net/DTD/sodipodi-0.dtd"
   xmlns:inkscape="http://www.inkscape.org/namespaces/inkscape"
   version="1.0"
   width="580"
   height="580"
   id="svg2"
   sodipodi:version="0.32"
   inkscape:version="0.92.3 (2405546, 2018-03-11)"
   sodipodi:docname="bicycle_no.svg"
   inkscape:output_extension="org.inkscape.output.svg.inkscape">
  <defs
     id="defs22">
    <inkscape:perspective
       sodipodi:type="inkscape:persp3d"
       inkscape:vp_x="0 : 290 : 1"
       inkscape:vp_y="0 : 1000 : 0"
       inkscape:vp_z="580 : 290 : 1"
       inkscape:persp3d-origin="290 : 193.33333 : 1"
       id="perspective24" />
  </defs>
  <metadata
     id="metadata10">
    <rdf:RDF>
      <cc:Work
         rdf:about="">
        <dc:format>image/svg+xml</dc:format>
        <dc:type
           rdf:resource="http://purl.org/dc/dcmitype/StillImage" />
        <cc:license
           rdf:resource="http://web.resource.org/cc/PublicDomain" />
        <dc:language>en</dc:language>
      </cc:Work>
    </rdf:RDF>
  </metadata>
  <sodipodi:namedview
     inkscape:window-height="1006"
     inkscape:window-width="1920"
     inkscape:pageshadow="2"
     inkscape:pageopacity="0.0"
     guidetolerance="10.0"
     gridtolerance="10.0"
     objecttolerance="10.0"
     borderopacity="1.0"
     bordercolor="#666666"
     pagecolor="#ffffff"
     id="base"
     showgrid="false"
     inkscape:zoom="0.5"
     inkscape:cx="202.19291"
     inkscape:cy="291.05725"
     inkscape:window-x="1920"
     inkscape:window-y="0"
     inkscape:current-layer="svg2"
     inkscape:window-maximized="1" />
  <g
     id="g1327">
    <path
       d="M 66.275,1.768 C 24.94,1.768 1.704,23.139 1.704,66.804 L 1.704,516.927 C 1.704,557.771 22.598,579.156 63.896,579.156 L 515.92,579.156 C 557.227,579.156 578.149,558.84 578.149,516.927 L 578.149,66.804 C 578.149,24.203 557.227,1.768 514.627,1.768 C 514.624,1.768 66.133,1.625 66.275,1.768 z"
       style="fill:#111111;stroke:#eeeeee;stroke-width:3.40799999"
       id="path1329" />
  </g>
  <g
     id="g2319"
     transform="translate(879.29125,36.805119)">
    <path
       id="path2323"
       style="fill:#ffffff;stroke:none"
       d="" />
  </g>
  <g
     id="g2325"
     transform="translate(879.29125,36.805119)">
    <path
       id="path2329"
       style="fill:#ffffff;stroke:none"
       d="" />
  </g>
  <path
     style="color:#000000;font-style:normal;font-variant:normal;font-weight:normal;font-stretch:normal;font-size:12px;line-height:normal;font-family:sans-serif;font-variant-ligatures:normal;font-variant-position:normal;font-variant-caps:normal;font-variant-numeric:normal;font-variant-alternates:normal;font-feature-settings:normal;text-indent:0;text-align:start;text-decoration:none;text-decoration-line:none;text-decoration-style:solid;text-decoration-color:#000000;letter-spacing:normal;word-spacing:normal;text-transform:none;writing-mode:lr-tb;direction:ltr;text-orientation:mixed;dominant-baseline:auto;baseline-shift:baseline;text-anchor:start;white-space:normal;shape-padding:0;clip-rule:nonzero;display:inline;overflow:visible;visibility:visible;opacity:1;isolation:auto;mix-blend-mode:normal;color-interpolation:sRGB;color-interpolation-filters:linearRGB;solid-color:#000000;solid-opacity:1;vector-effect:none;fill:#ffffff;fill-opacity:1;fill-rule:evenodd;stroke:none;stroke-width:25.56994438;stroke-linecap:butt;stroke-linejoin:miter;stroke-miterlimit:4;stroke-dasharray:none;stroke-dashoffset:0;stroke-opacity:1;color-rendering:auto;image-rendering:auto;shape-rendering:auto;text-rendering:auto;enable-background:accumulate"
     d="M 350.35938 141.79102 L 350.44727 164.78516 L 386.44727 164.85742 C 390.74331 164.86618 392.97129 170.90663 384.57422 173.25586 C 380.89546 174.27432 376.7972 178.65552 375.42578 184.08398 C 374.05435 189.51246 375.07979 194.92804 377.08594 199.94336 C 377.54293 201.08587 378.47426 204.70899 379.77734 209.59961 L 291.05469 210.04688 L 311.48047 230.47266 L 385.62305 230.09961 C 387.50043 236.43656 389.45474 243.09354 391.52148 250.19531 L 355.58789 274.58008 L 370.36719 289.35938 L 397.5332 270.92578 C 398.50366 274.28836 399.46606 277.61878 400.4043 280.87305 C 393.29245 286.58988 387.06415 293.36408 381.95898 300.95117 L 400.44531 319.4375 C 402.69263 315.42535 405.35282 311.67868 408.37695 308.26172 C 409.42096 311.78348 410.5099 315.46553 411.29883 318.04883 C 412.43582 321.77196 413.01159 323.8588 413.97266 326.22461 L 414.37109 327.20898 L 414.95508 328.09961 C 415.2674 328.59931 417.64423 335.186 423.46289 342.45508 L 432.08398 351.07617 C 439.4737 356.85017 445.81715 359.03077 449.91016 360.33008 C 454.48359 361.7362 460.74158 361.01452 463.77148 356.31445 C 466.17569 352.86572 464.05869 345.88741 459.50586 342.58008 C 457.71338 341.32724 452.5486 337.22561 446.20508 331.67383 C 440.54739 326.6226 440.08792 322.755 436.71484 316.82031 C 436.80108 317.01212 435.86635 314.32101 434.80859 310.85742 C 433.72291 307.30245 432.31024 302.5574 430.69141 297.0293 C 430.32902 295.79176 429.78695 293.90373 429.4043 292.5918 C 437.64605 288.77094 446.84109 286.62891 456.56641 286.62891 C 492.22929 286.62891 520.86523 315.26483 520.86523 350.92773 C 520.86523 375.12481 507.67278 396.07199 488.05664 407.04883 L 506.5332 425.52539 C 530.55922 409.36318 546.43555 381.94049 546.43555 350.92773 C 546.43555 301.44581 506.04832 261.05859 456.56641 261.05859 C 444.42325 261.05859 432.83115 263.49635 422.24609 267.89844 C 421.16622 264.16317 420.30238 261.20241 419.19727 257.38281 C 415.03072 242.98203 410.78561 228.36187 407.21094 216.41602 C 403.68936 204.64747 400.43106 197.39904 399.36328 192.18359 C 398.53108 188.11893 403.67957 188.46886 409.10547 183.94727 C 413.20307 180.53262 416.67861 174.7636 417.74219 168.89258 C 418.62879 163.72943 417.53198 158.54305 415.13086 154.29492 C 406.78923 141.55137 398.65156 141.79102 387.88477 141.79102 C 373.72724 141.79102 350.35959 141.79052 350.35938 141.79102 z M 185.92773 220.22656 L 159.64453 269.03906 C 149.29855 264.86547 138.01169 262.56055 126.20508 262.56055 C 76.723158 262.56055 36.337891 302.94777 36.337891 352.42969 C 36.337891 401.9116 76.723158 442.29883 126.20508 442.29883 C 172.73086 442.29883 211.21222 406.59242 215.64453 361.19336 L 237.13867 361.19336 C 239.56417 365.59679 243.53507 369.22276 248.41797 371.51953 L 239.4082 392.48828 L 223.25 392.63672 A 6.2701806 6.2701806 0 1 0 223.36523 405.17578 L 259.63477 404.84375 A 6.2701806 6.2701806 0 1 0 259.51953 392.30469 L 249.21484 392.39844 L 257.12109 373.99609 C 258.26138 374.1319 259.4226 374.20703 260.60352 374.20703 C 274.95268 374.20703 286.67773 363.85149 286.67773 351.17773 C 286.67773 349.58159 286.49049 348.02223 286.13672 346.51562 L 301.67383 335.97266 L 286.89453 321.19336 L 276.88867 327.98438 L 281.93555 316.23438 L 264.18555 298.48438 L 264.09961 298.48438 A 6.27042 6.27042 0 1 0 264.21289 311.02344 L 274.44727 310.92969 L 266.76758 328.80664 C 266.03204 328.64777 265.28734 328.51223 264.5293 328.41016 L 244.09961 278.39844 L 185.92773 220.22656 z M 200.44922 236.55664 L 241.0625 335.97461 C 239.64398 337.39458 238.42039 338.96826 237.42773 340.66406 L 215.30078 340.66406 C 211.93985 315.17621 197.81884 292.99373 177.67773 278.84766 L 200.44922 236.55664 z M 126.20508 288.13086 C 133.65861 288.13086 140.799 289.39672 147.44141 291.70117 L 118.16992 346.0625 A 10.265884 10.265884 0 0 0 127.20703 361.19336 L 189.90234 361.19336 C 185.65987 392.66762 158.89204 416.73047 126.20508 416.73047 C 90.542178 416.73047 61.908203 388.09258 61.908203 352.42969 C 61.908203 316.76679 90.542178 288.13086 126.20508 288.13086 z M 165.50391 301.45703 C 177.78822 310.92068 186.50896 324.7396 189.42383 340.66406 L 144.39258 340.66406 L 165.50391 301.45703 z "
     id="path596" />
  <path
     inkscape:connector-curvature="0"
     style="color:#000000;font-style:normal;font-variant:normal;font-weight:normal;font-stretch:normal;font-size:medium;line-height:normal;font-family:sans-serif;text-indent:0;text-align:start;text-decoration:none;text-decoration-line:none;text-decoration-style:solid;text-decoration-color:#000000;letter-spacing:normal;word-spacing:normal;text-transform:none;writing-mode:lr-tb;direction:ltr;baseline-shift:baseline;text-anchor:start;white-space:normal;clip-rule:nonzero;display:inline;overflow:visible;visibility:visible;opacity:1;isolation:auto;mix-blend-mode:normal;color-interpolation:sRGB;color-interpolation-filters:linearRGB;solid-color:#000000;solid-opacity:1;fill:#ffffff;fill-opacity:1;fill-rule:evenodd;stroke:none;stroke-width:30;stroke-linecap:butt;stroke-linejoin:miter;stroke-miterlimit:4;stroke-dasharray:none;stroke-dashoffset:0;stroke-opacity:1;color-rendering:auto;image-rendering:auto;shape-rendering:auto;text-rendering:auto;enable-background:accumulate"
     d="m 137.23441,95.66406 -18.21876,18.21875 -0.0176,-0.0156 -21.214847,21.21484 377.999997,378 18.22071,-18.21875 0.0156,0.0156 21.21485,-21.21485 z"
     id="path4546" />
</svg>
