<svg width="12" height="12" viewBox="0 0 12 12" fill="none" xmlns="http://www.w3.org/2000/svg">
<path d="M8.96441 2L8.95701 2.18198C8.95401 2.19033 8.95153 2.19885 8.94959 2.20751C8.7171 3.40871 8.28069 4.10521 7.76303 4.51065C7.24536 4.9161 6.62837 5.04249 5.99346 5.04341C5.31686 5.0444 4.71602 4.87752 4.21814 4.44807C3.72126 4.01948 3.31645 3.31529 3.08015 2.20256L3.0711 2.00082L2.65609 2.00165L2.65032 2.08728C2.62395 2.11674 2.60627 2.15295 2.59927 2.19186C2.36628 3.39562 1.95085 4.0896 1.45799 4.48924C0.876044 4.96112 0 5.02995 0 5.02995V5.45856C0 5.45856 0.517078 5.37289 0.677373 5.33326V5.99448H0V6.8278L2.37612 6.83438C2.36807 7.56634 2.36922 9.78346 2.36999 10.4345H3.25627C3.25503 9.7636 3.24021 7.55379 3.26954 6.80227H8.76762C8.76796 7.51535 8.76762 9.75657 8.76762 10.4345H9.67334C9.67308 9.74477 9.67295 7.55584 9.67421 6.80639L12 6.80392V5.99448H11.4808V5.34973C11.6167 5.38321 12 5.42549 12 5.42549V5.00394C12 5.00394 11.2805 4.98876 10.5726 4.43737C10.0406 4.02304 9.62395 3.31048 9.38848 2.1968C9.38472 2.17763 9.37835 2.15907 9.36954 2.14163L9.35884 2.0033L8.96441 2ZM3.14685 3.72674C3.3292 4.08841 3.54303 4.38752 3.78501 4.62923V5.99448H3.24566L3.14685 3.72674ZM2.54575 3.75639L2.40411 5.99448H1.90758V4.65887C2.14838 4.42391 2.36325 4.12702 2.54575 3.75639V3.75639ZM8.88948 3.7605L8.79479 5.99448H8.26614V4.63499C8.50018 4.40337 8.71036 4.1147 8.88948 3.7605ZM9.49635 3.77368C9.69074 4.12976 9.91925 4.42235 10.1749 4.65722V5.99448H9.66928L9.49635 3.77368ZM4.12015 4.91496C4.33975 5.07432 4.57538 5.19548 4.82172 5.28303V5.99448H4.12015V4.91496ZM7.93101 4.91825V5.99448H7.22944V5.27892C7.47204 5.19429 7.70849 5.07717 7.93101 4.91825V4.91825ZM10.5092 4.92237C10.7111 5.05923 10.9245 5.16575 11.1457 5.2468V5.99448H10.5092V4.92237ZM1.57327 4.93554V5.99448H1.01169V5.22951C1.20573 5.15604 1.39401 5.05974 1.57327 4.93554V4.93554ZM6.89513 5.37526V5.99448H6.19274V5.46583C6.42632 5.45585 6.66246 5.42858 6.89513 5.37526ZM5.15603 5.3802C5.38427 5.43307 5.61933 5.46096 5.85842 5.4683V5.99448H5.15603V5.3802Z" fill="white"/>
</svg>
