<svg width="12" height="12" viewBox="0 0 12 12" fill="none" xmlns="http://www.w3.org/2000/svg">
<path fill-rule="evenodd" clip-rule="evenodd" d="M8.76031 6.8632V10.1367H9.59512V6.86572C9.8368 6.17159 10.172 5.69048 10.5726 5.37849C11.2805 4.8271 12 4.81192 12 4.81192V4.39037C12 4.39037 11.6166 4.43265 11.4808 4.46612V3.82138H12V3H0V3.82138H0.677373V4.48259C0.517078 4.44297 0 4.35729 0 4.35729V4.78591C0 4.78591 0.876044 4.85474 1.45799 5.32661C1.84143 5.63753 2.17801 6.12661 2.41827 6.89531V10.1431H3.25308V6.9574C3.49283 6.21346 3.82695 5.70521 4.21814 5.36779C4.71602 4.93834 5.31686 4.77146 5.99346 4.77244C6.62837 4.77337 7.24536 4.89976 7.76302 5.30521C8.16271 5.61825 8.51396 6.1048 8.76031 6.8632ZM8.76031 3.82138V5.82003C8.61187 5.57069 8.44606 5.35892 8.26614 5.18087V3.82138H8.76031ZM9.59512 5.87142V3.82138H10.1749V5.15863C9.96134 5.35483 9.76673 5.59131 9.59512 5.87142ZM3.78501 5.18663C3.58855 5.38287 3.41064 5.61694 3.25308 5.89162V3.82138H3.78501V5.18663ZM1.90758 3.82138H2.41827V5.82132C2.26566 5.55891 2.09443 5.3393 1.90758 5.15699V3.82138ZM4.12015 4.9009C4.33975 4.74153 4.57538 4.62038 4.82172 4.53282V3.82138H4.12015V4.9009ZM7.93101 4.89761V3.82138H7.22944V4.53694C7.47204 4.62157 7.70849 4.73869 7.93101 4.89761ZM10.5092 4.89349C10.7111 4.75663 10.9245 4.65011 11.1457 4.56906V3.82138H10.5092V4.89349ZM1.57327 4.88031V3.82138H1.01169V4.58635C1.20573 4.65982 1.39401 4.75612 1.57327 4.88031ZM6.89512 4.4406V3.82138H6.19274V4.35002C6.42631 4.36001 6.66245 4.38728 6.89512 4.4406ZM5.15603 4.43566C5.38427 4.38278 5.61933 4.3549 5.85842 4.34755V3.82138H5.15603V4.43566Z" fill="white"/>
</svg>
