<?xml version="1.0" encoding="UTF-8" standalone="no"?>
<!-- Created with Inkscape (http://www.inkscape.org/) -->

<svg
   xmlns:dc="http://purl.org/dc/elements/1.1/"
   xmlns:cc="http://creativecommons.org/ns#"
   xmlns:rdf="http://www.w3.org/1999/02/22-rdf-syntax-ns#"
   xmlns:svg="http://www.w3.org/2000/svg"
   xmlns="http://www.w3.org/2000/svg"
   xmlns:sodipodi="http://sodipodi.sourceforge.net/DTD/sodipodi-0.dtd"
   xmlns:inkscape="http://www.inkscape.org/namespaces/inkscape"
   version="1.0"
   width="580"
   height="580"
   id="svg2"
   sodipodi:version="0.32"
   inkscape:version="0.91 r"
   sodipodi:docname="bridge_structure_suspension.svg"
   inkscape:output_extension="org.inkscape.output.svg.inkscape">
  <metadata
     id="metadata1976">
    <rdf:RDF>
      <cc:Work
         rdf:about="">
        <dc:format>image/svg+xml</dc:format>
        <dc:type
           rdf:resource="http://purl.org/dc/dcmitype/StillImage" />
        <cc:license
           rdf:resource="http://web.resource.org/cc/PublicDomain" />
        <dc:language>en</dc:language>
        <dc:title />
      </cc:Work>
    </rdf:RDF>
  </metadata>
  <sodipodi:namedview
     inkscape:window-height="1004"
     inkscape:window-width="1920"
     inkscape:pageshadow="2"
     inkscape:pageopacity="0.0"
     guidetolerance="10.0"
     gridtolerance="10.0"
     objecttolerance="10.0"
     borderopacity="1.0"
     bordercolor="#666666"
     pagecolor="#ffffff"
     id="base"
     inkscape:zoom="0.65172414"
     inkscape:cx="557.1673"
     inkscape:cy="416.41294"
     inkscape:window-x="1680"
     inkscape:window-y="0"
     inkscape:current-layer="svg2"
     showgrid="false"
     inkscape:window-maximized="1" />
  <defs
     id="defs4">
    <inkscape:perspective
       sodipodi:type="inkscape:persp3d"
       inkscape:vp_x="0 : 290 : 1"
       inkscape:vp_y="0 : 1000 : 0"
       inkscape:vp_z="580 : 290 : 1"
       inkscape:persp3d-origin="290 : 193.33333 : 1"
       id="perspective3653" />
    <marker
       viewBox="0 0 10 10"
       refY="5"
       refX="10"
       orient="auto"
       markerWidth="4"
       markerUnits="strokeWidth"
       markerHeight="3"
       id="ArrowStart">
      <path
         id="path2111"
         d="M 10 0 L 0 5 L 10 10 z" />
    </marker>
    <marker
       viewBox="0 0 10 10"
       refY="5"
       refX="0"
       orient="auto"
       markerWidth="4"
       markerUnits="strokeWidth"
       markerHeight="3"
       id="ArrowEnd">
      <path
         id="path2108"
         d="M 0 0 L 10 5 L 0 10 z" />
    </marker>
    <inkscape:perspective
       id="perspective2512"
       inkscape:persp3d-origin="177.51199 : 145.02 : 1"
       inkscape:vp_z="355.02399 : 217.53 : 1"
       inkscape:vp_y="0 : 1000 : 0"
       inkscape:vp_x="0 : 217.53 : 1"
       sodipodi:type="inkscape:persp3d" />
  </defs>
  <g
     id="g1327">
    <path
       d="M 66.275,1.768 C 24.94,1.768 1.704,23.139 1.704,66.804 L 1.704,516.927 C 1.704,557.771 22.6,579.156 63.896,579.156 L 515.92,579.156 C 557.227,579.156 578.149,558.842 578.149,516.927 L 578.149,66.804 C 578.149,24.203 557.227,1.768 514.628,1.768 C 514.624,1.768 66.133,1.625 66.275,1.768 z "
       style="fill:#111;stroke:#eee;stroke-width:3.40799999"
       id="path1329" />
  </g>
  <g
     id="g2117"
     transform="matrix(1.1975036,0,0,1.1975036,80.128205,34.575832)"
     style="fill:#000000">
    <g
       id="g2119"
       style="fill:#000000">
      <g
         id="g2121"
         style="fill:#000000">
        <path
           id="path2125"
           style="fill:#000000;stroke:none"
           d="" />
      </g>
      <g
         id="g2127"
         style="fill:#000000">
        <path
           id="path2131"
           style="fill:#000000;stroke:none"
           d="" />
      </g>
    </g>
  </g>
  <path
     style="color:#000000;display:inline;overflow:visible;visibility:visible;fill:#ffffff;fill-opacity:1;fill-rule:nonzero;stroke:none;stroke-width:10;marker:none;enable-background:accumulate"
     d="m 415.21571,111.86422 -0.31297,7.68672 c -0.12666,0.35255 -0.23117,0.71266 -0.31309,1.07823 -9.82041,50.73824 -28.25418,80.15814 -50.12017,97.28392 -21.86606,17.1258 -47.92724,22.46473 -74.74551,22.50366 -28.57935,0.0416 -53.95885,-7.00729 -74.98898,-25.14705 -20.9881,-18.10351 -38.08703,-47.84818 -48.06807,-94.84923 l -0.38259,-8.52147 -17.5299,0.0348 -0.24347,3.61729 c -1.11406,1.24428 -1.86062,2.77352 -2.15645,4.41725 -9.84127,50.84644 -27.38915,80.15985 -48.207204,97.04047 -24.58109,19.93193 -61.584841,22.8393 -61.584841,22.8393 l 0,18.10443 c 0,0 21.841175,-3.61884 28.611954,-5.29268 l 0,27.92957 -28.611954,0 0,35.19891 100.366245,0.27825 c -0.33975,30.91758 -0.29147,124.56793 -0.25869,152.06919 l 37.43579,0 c -0.0521,-28.34012 -0.67813,-121.68193 0.56087,-153.42567 l 232.23631,0 c 0.0145,30.12039 0,124.78842 0,153.42567 l 38.25745,0 c -0.0111,-29.1358 -0.0167,-121.59495 0.0367,-153.25176 l 98.2404,-0.10427 0,-34.19025 -21.92972,0 0,-27.23393 c 5.73722,1.41398 21.92972,3.1999 21.92972,3.1999 l 0,-17.80608 c 0,0 -30.38982,-0.64129 -60.2937,-23.93175 -22.47064,-17.5011 -40.06954,-47.5994 -50.01583,-94.64054 -0.15883,-0.80974 -0.42796,-1.59385 -0.80004,-2.33036 l -0.45209,-5.8433 z m -245.73148,72.93686 c 7.70217,15.27684 16.73455,27.91108 26.95568,38.12056 l 0,57.66777 -22.7819,0 z m -25.39052,1.25214 -5.98242,94.53619 -20.97326,0 0,-56.41563 c 10.17113,-9.92454 19.24711,-22.46507 26.95568,-38.12056 z m 267.95694,0.17391 -3.99993,94.36228 -22.32974,0 0,-57.4243 c 9.88564,-9.78351 18.76354,-21.97701 26.32967,-36.93798 z m 25.63393,0.5565 c 8.21078,15.04087 17.86301,27.39961 28.65998,37.32058 l 0,56.4852 -21.35586,0 z m -227.08859,48.2072 c 9.27592,6.7316 19.22872,11.849 29.63386,15.54734 l 0,30.05124 -29.63386,0 z m 160.96892,0.13913 0,45.45945 -29.63387,0 0,-30.22514 c 10.24753,-3.57449 20.23485,-8.52162 29.63387,-15.23431 z m 108.90095,0.1739 c 8.5271,5.78106 17.54459,10.28027 26.88618,13.70392 l 0,31.58163 -26.88618,0 z m -377.44913,0.55651 0,44.72904 -23.72101,0 0,-32.31204 c 8.196408,-3.10334 16.149276,-7.17117 23.72101,-12.417 z m 224.79301,18.57333 0,26.15571 -29.66864,0 0,-22.32974 c 9.86628,-0.42178 19.84075,-1.57382 29.66864,-3.82597 z m -73.45858,0.2087 c 9.64062,2.23349 19.56963,3.41116 29.66864,3.72161 l 0,22.2254 -29.66864,0 z"
     id="path5"
     inkscape:connector-curvature="0"
     sodipodi:nodetypes="cccssscccccsccccccccccccccccccccscccccccccccccccccccccccccccccccccccccccccccccccccccccc" />
</svg>
