<svg width="12" height="12" viewBox="0 0 12 12" fill="none" xmlns="http://www.w3.org/2000/svg">
<path d="M2.25 1.00101C2.13475 1.01703 1.9971 1.15016 1.70625 2.17601C1.65085 2.37181 1.49885 2.93086 1.43125 3.40726C1.61885 3.41526 1.7922 3.48501 1.925 3.60101H2.675C2.8078 3.48501 2.98115 3.41506 3.16875 3.40726C3.10155 2.92866 2.94935 2.36556 2.89375 2.16976C2.56155 1.00036 2.4276 1.00101 2.3 1.00101C2.28406 1.00101 2.26646 0.998733 2.25 1.00101V1.00101ZM9.65 1.00101C9.53475 1.01703 9.3971 1.15016 9.10625 2.17601C9.05085 2.37181 8.89885 2.93086 8.83125 3.40726C9.01885 3.41526 9.1922 3.48501 9.325 3.60101H10.075C10.2078 3.48501 10.3811 3.41506 10.5687 3.40726C10.5015 2.92866 10.3493 2.36556 10.2937 2.16976C9.96155 1.00036 9.8276 1.00101 9.7 1.00101C9.68406 1.00101 9.66646 0.998733 9.65 1.00101V1.00101ZM1.4 3.80101C1.17909 3.80101 1 3.9801 1 4.20101C1 4.42193 1.17909 4.60101 1.4 4.60101C1.62091 4.60101 1.8 4.42193 1.8 4.20101C1.8 3.9801 1.62091 3.80101 1.4 3.80101ZM3.2 3.80101C2.97909 3.80101 2.8 3.9801 2.8 4.20101C2.8 4.42193 2.97909 4.60101 3.2 4.60101C3.42091 4.60101 3.6 4.42193 3.6 4.20101C3.6 3.9801 3.42091 3.80101 3.2 3.80101ZM6 3.80101C5.931 3.80101 5.86765 3.83636 5.83125 3.89476C5.75285 4.02016 5.5139 4.15476 5.2625 4.29476C4.6307 4.64656 3.7742 5.12141 3.625 6.40101H8.36875C8.20555 5.14521 7.3627 4.64296 6.7375 4.29476C6.4859 4.15476 6.24675 4.01996 6.16875 3.89476C6.13215 3.83616 6.069 3.80101 6 3.80101ZM8.8 3.80101C8.57909 3.80101 8.4 3.9801 8.4 4.20101C8.4 4.42193 8.57909 4.60101 8.8 4.60101C9.02091 4.60101 9.2 4.42193 9.2 4.20101C9.2 3.9801 9.02091 3.80101 8.8 3.80101ZM10.6 3.80101C10.3791 3.80101 10.2 3.9801 10.2 4.20101C10.2 4.42193 10.3791 4.60101 10.6 4.60101C10.8209 4.60101 11 4.42193 11 4.20101C11 3.9801 10.8209 3.80101 10.6 3.80101ZM2.16875 4.00101C2.18535 4.06521 2.2 4.13161 2.2 4.20101C2.2 4.64221 1.8412 5.00101 1.4 5.00101V10.801C1.4 10.9116 1.4894 11.001 1.6 11.001H3C3.0022 11.001 3.00426 11.001 3.00624 11.001C3.00824 11.001 3.01008 11.001 3.01248 11.001H3.19998V10.801V6.80101V5.00101C2.75878 5.00101 2.39998 4.64221 2.39998 4.20101C2.39998 4.13161 2.41464 4.06521 2.43123 4.00101H2.16873H2.16875ZM9.56875 4.00101C9.58515 4.06521 9.6 4.13161 9.6 4.20101C9.6 4.64221 9.2412 5.00101 8.8 5.00101V6.80101V10.801V11.001H9H10.4C10.5106 11.001 10.6 10.9116 10.6 10.801V5.00101C10.1588 5.00101 9.8 4.64221 9.8 4.20101C9.8 4.13161 9.81466 4.06521 9.83125 4.00101H9.56875V4.00101ZM3.6 6.80101V11.001H5C5.1104 11.001 5.2 10.9116 5.2 10.801V10.0635C5.2 9.61351 5.713 9.20746 6 9.03226C6.2872 9.20646 6.8 9.61151 6.8 10.0635V10.801C6.8 10.9116 6.8894 11.001 7 11.001H8.4V6.80101H3.6Z" fill="white"/>
</svg>
