<svg width="48" height="48" viewBox="0 0 48 48" fill="none" xmlns="http://www.w3.org/2000/svg">
<path d="M22.0684 0V3.80386H18.2645V7.60773H22.0684V13.6107L14.4606 20.9212V26.8053L4 32.5706L5.90193 35.899L6.8529 35.364V45.6464H18.2645V43.7444C18.2645 40.5111 20.737 38.0386 23.9703 38.0386C27.2036 38.0386 29.6761 40.5111 29.6761 43.7444V45.6464H41.0877V35.2452L41.9792 35.8395L44 32.63L33.4799 25.7949V20.9212L25.8722 13.6107V7.60773H29.6761V3.80386H25.8722V0H22.0684V0ZM23.9703 22.6449C26.2526 22.6449 27.9525 24.3447 27.9525 26.627C27.9525 28.9094 26.0624 30.6092 23.9703 30.6092C21.8782 30.6092 19.9881 28.9094 19.9881 26.627C19.9881 24.3447 21.688 22.6449 23.9703 22.6449Z" fill="white"/>
</svg>
