<svg width="12" height="12" viewBox="0 0 12 12" fill="none" xmlns="http://www.w3.org/2000/svg">
<path d="M6 1C5.93653 1 5.87564 1.03347 5.8418 1.09381L4.76953 2.995H7.23047L6.1582 1.09381C6.12436 1.03347 6.06347 1 6 1ZM4.6875 3.39525V5.20263L6.01141 4.54809L7.3125 5.20263V3.39525H4.6875ZM6 4.97749C5.97124 4.97749 5.94441 4.98213 5.91797 4.99624L3.10547 6.49718C3.04209 6.5312 3 6.6027 3 6.67854V10.7999C3 10.9105 3.084 11 3.1875 11H4.875C4.9785 11 5.0625 10.9105 5.0625 10.7999V8.79862C5.0625 8.24688 5.48306 7.798 6 7.798C6.51694 7.798 6.9375 8.24688 6.9375 8.79862V10.7999C6.9375 10.9105 7.02131 11 7.125 11H8.8125C8.91619 11 9 10.9105 9 10.7999V6.67854C9 6.6027 8.95809 6.5312 8.89453 6.49718L6.08203 4.99624C6.05569 4.98213 6.02876 4.97749 6 4.97749Z" fill="white"/>
</svg>
