<svg width="12" height="12" viewBox="0 0 12 12" fill="none" xmlns="http://www.w3.org/2000/svg">
<path d="M1 1V1.40608V4.2486V5.22572V6.8881C1 7.58141 1.40947 8.1906 2.00154 8.49971C1.66143 8.66454 1.26537 8.71544 1 8.71544V9.52759C1.70758 9.52759 1.99894 9.36262 2.24867 9.15958C2.62327 9.44384 3.16436 9.52759 3.49734 9.52759C3.83032 9.52759 4.37141 9.44384 4.74601 9.15958C5.12062 9.44384 5.66171 9.52759 5.99469 9.52759C6.32767 9.52759 6.86876 9.44384 7.24336 9.15958C7.61796 9.44384 8.15905 9.52759 8.49203 9.52759C8.82501 9.52759 9.3661 9.44384 9.7407 9.15958C10.1153 9.44384 10.6564 9.52759 10.9894 9.52759V8.71544C10.724 8.71544 10.3279 8.66454 9.98783 8.49971C10.5799 8.1906 10.9894 7.58141 10.9894 6.8881V6.68506H10.5731H10.287C10.4535 6.68506 10.5731 6.56831 10.5731 6.40588V4.32474C10.5731 4.28414 10.5756 4.08617 10.5341 4.04557C10.5341 4.04557 10.4847 3.96435 10.4431 3.84253H10.7813C10.9478 3.84253 11.031 3.72578 10.9894 3.56335L10.9114 3.27149C10.8281 3.14966 10.6616 3.03038 10.4951 3.03038H10.1569C9.74072 1.40608 9.3245 1.40608 7.45149 1.40608C5.57848 1.40608 5.16226 1.40608 4.74604 3.03038H4.40785C4.24136 3.03038 4.08528 3.14712 4.04366 3.30956L3.91359 3.56335C3.87197 3.72578 3.95521 3.84253 4.1217 3.84253H4.45988C4.41826 3.96435 4.36883 4.04557 4.36883 4.04557C4.32721 4.08617 4.32983 4.28414 4.32983 4.32474V6.40588C4.32983 6.56831 4.4495 6.68506 4.61599 6.68506H1.83249V4.42626L2.9641 3.32225L3.08116 3.19535V3.03038V1.40608V1H2.66494H1.41627H1ZM1.83245 1.81215H2.24867V2.85272L1.83245 3.2588V1.81215ZM7.45147 1.93905C9.49097 1.93905 9.44414 2.30452 9.61063 3.15728C9.61063 3.15728 9.15799 3.43645 7.45147 3.43645C5.74495 3.43645 5.24028 3.15728 5.24028 3.15728C5.44839 2.26391 5.41197 1.93905 7.45147 1.93905ZM4.98014 4.2486C5.02501 4.24779 5.07119 4.2486 5.12322 4.2486C5.53944 4.2486 6.03371 4.65468 6.03371 4.85772C5.99209 5.02015 5.91144 5.09883 5.57846 5.09883H5.24028C5.07379 5.09883 4.74601 5.02522 4.74601 4.78158V4.48971C4.74601 4.27652 4.84552 4.25051 4.98014 4.2486ZM9.81874 4.2486C9.98523 4.2486 10.1569 4.20546 10.1569 4.48971V4.78158C10.1569 5.02522 9.82915 5.06076 9.66266 5.06076H9.32448C8.9915 5.06076 8.90825 4.98208 8.90825 4.81965C8.90825 4.65722 9.40252 4.2486 9.81874 4.2486ZM5.57846 6.07595H9.32448V6.40588C9.32448 6.56831 9.44414 6.68506 9.61063 6.68506H5.29231C5.4588 6.68506 5.57846 6.56831 5.57846 6.40588V6.07595ZM2.24867 9.81984C1.87407 10.1041 1.33298 10.1878 1 10.1878V11C1.70758 11 1.99894 10.835 2.24867 10.632C2.62327 10.9162 3.16436 11 3.49734 11C3.83032 11 4.37141 10.9162 4.74601 10.632C5.12062 10.9162 5.66171 11 5.99469 11C6.32767 11 6.86876 10.9162 7.24336 10.632C7.61796 10.9162 8.15905 11 8.49203 11C8.82501 11 9.3661 10.9162 9.7407 10.632C10.1153 10.9162 10.6564 11 10.9894 11V10.1878C10.6564 10.1878 10.1153 10.1041 9.7407 9.81984C9.3661 10.1041 8.82501 10.1878 8.49203 10.1878C8.15905 10.1878 7.61796 10.1041 7.24336 9.81984C6.86876 10.1041 6.32767 10.1878 5.99469 10.1878C5.66171 10.1878 5.12062 10.1041 4.74601 9.81984C4.37141 10.1041 3.83032 10.1878 3.49734 10.1878C3.16436 10.1878 2.62327 10.1041 2.24867 9.81984Z" fill="white"/>
</svg>
