<?xml version="1.0" encoding="UTF-8" standalone="no"?>
<!-- Created with Inkscape (http://www.inkscape.org/) -->

<svg
   xmlns:dc="http://purl.org/dc/elements/1.1/"
   xmlns:cc="http://creativecommons.org/ns#"
   xmlns:rdf="http://www.w3.org/1999/02/22-rdf-syntax-ns#"
   xmlns:svg="http://www.w3.org/2000/svg"
   xmlns="http://www.w3.org/2000/svg"
   xmlns:sodipodi="http://sodipodi.sourceforge.net/DTD/sodipodi-0.dtd"
   xmlns:inkscape="http://www.inkscape.org/namespaces/inkscape"
   version="1.0"
   width="580"
   height="580"
   id="svg2"
   sodipodi:version="0.32"
   inkscape:version="0.91 r"
   sodipodi:docname="cargo_vehicle.svg"
   inkscape:output_extension="org.inkscape.output.svg.inkscape">
  <metadata
     id="metadata1976">
    <rdf:RDF>
      <cc:Work
         rdf:about="">
        <dc:format>image/svg+xml</dc:format>
        <dc:type
           rdf:resource="http://purl.org/dc/dcmitype/StillImage" />
        <cc:license
           rdf:resource="http://web.resource.org/cc/PublicDomain" />
        <dc:language>en</dc:language>
        <dc:title />
      </cc:Work>
    </rdf:RDF>
  </metadata>
  <sodipodi:namedview
     inkscape:window-height="1004"
     inkscape:window-width="1920"
     inkscape:pageshadow="2"
     inkscape:pageopacity="0.0"
     guidetolerance="10.0"
     gridtolerance="10.0"
     objecttolerance="10.0"
     borderopacity="1.0"
     bordercolor="#666666"
     pagecolor="#ffffff"
     id="base"
     inkscape:zoom="0.46083856"
     inkscape:cx="350.42874"
     inkscape:cy="82.26816"
     inkscape:window-x="1680"
     inkscape:window-y="0"
     inkscape:current-layer="svg2"
     showgrid="false"
     inkscape:window-maximized="1" />
  <defs
     id="defs4">
    <inkscape:perspective
       sodipodi:type="inkscape:persp3d"
       inkscape:vp_x="0 : 290 : 1"
       inkscape:vp_y="0 : 1000 : 0"
       inkscape:vp_z="580 : 290 : 1"
       inkscape:persp3d-origin="290 : 193.33333 : 1"
       id="perspective3653" />
    <marker
       viewBox="0 0 10 10"
       refY="5"
       refX="10"
       orient="auto"
       markerWidth="4"
       markerUnits="strokeWidth"
       markerHeight="3"
       id="ArrowStart">
      <path
         id="path2111"
         d="M 10 0 L 0 5 L 10 10 z" />
    </marker>
    <marker
       viewBox="0 0 10 10"
       refY="5"
       refX="0"
       orient="auto"
       markerWidth="4"
       markerUnits="strokeWidth"
       markerHeight="3"
       id="ArrowEnd">
      <path
         id="path2108"
         d="M 0 0 L 10 5 L 0 10 z" />
    </marker>
    <inkscape:perspective
       id="perspective2512"
       inkscape:persp3d-origin="177.51199 : 145.02 : 1"
       inkscape:vp_z="355.02399 : 217.53 : 1"
       inkscape:vp_y="0 : 1000 : 0"
       inkscape:vp_x="0 : 217.53 : 1"
       sodipodi:type="inkscape:persp3d" />
  </defs>
  <g
     id="g1327">
    <path
       d="M 66.275,1.768 C 24.94,1.768 1.704,23.139 1.704,66.804 L 1.704,516.927 C 1.704,557.771 22.6,579.156 63.896,579.156 L 515.92,579.156 C 557.227,579.156 578.149,558.842 578.149,516.927 L 578.149,66.804 C 578.149,24.203 557.227,1.768 514.628,1.768 C 514.624,1.768 66.133,1.625 66.275,1.768 z "
       style="fill:#111;stroke:#eee;stroke-width:3.40799999"
       id="path1329" />
  </g>
  <g
     id="g2117"
     transform="matrix(1.1975036,0,0,1.1975036,80.128205,34.575832)"
     style="fill:#000000">
    <g
       id="g2119"
       style="fill:#000000">
      <g
         id="g2121"
         style="fill:#000000">
        <path
           id="path2125"
           style="fill:#000000;stroke:none"
           d="" />
      </g>
      <g
         id="g2127"
         style="fill:#000000">
        <path
           id="path2131"
           style="fill:#000000;stroke:none"
           d="" />
      </g>
    </g>
  </g>
  <path
     inkscape:connector-curvature="0"
     d="m 59.706481,59.951232 0,19.170731 0,134.195107 0,46.12957 0,78.48019 c 0,32.73134 18.859588,61.49088 46.129569,76.08384 -15.665171,7.78139 -33.907082,10.18444 -46.129569,10.18444 l 0,38.34146 c 32.590247,0 46.009749,-7.7881 57.512199,-17.37347 17.25365,13.41952 42.1756,17.37347 57.51219,17.37347 15.33659,0 40.25853,-3.95395 57.51219,-17.37347 17.25366,13.41952 42.17561,17.37347 57.51219,17.37347 15.33658,0 40.25853,-3.95395 57.5122,-17.37347 17.25366,13.41952 42.17561,17.37347 57.51219,17.37347 15.33658,0 40.25853,-3.95395 57.5122,-17.37347 17.25365,13.41952 42.1756,17.37347 57.51218,17.37347 l 0,-38.34146 c -12.22249,0 -30.4644,-2.40305 -46.12957,-10.18444 27.26998,-14.59296 46.12957,-43.3525 46.12957,-76.08384 l 0,-9.58537 -19.17073,0 -13.17988,0 c 7.6683,0 13.17988,-5.51158 13.17988,-13.17988 l 0,-98.25 c 0,-1.91707 0.11502,-11.26279 -1.79629,-13.17987 0,0 -2.27653,-3.83415 -4.1936,-9.58537 l 15.57622,0 c 7.66829,0 11.50244,-5.51159 9.58537,-13.17987 l -3.59452,-13.77897 c -3.83415,-5.75121 -11.50244,-11.38262 -19.17073,-11.38262 l -15.57622,0 C 462.29279,79.121963 443.12206,79.121963 356.85377,79.121963 c -86.26829,0 -105.43902,0 -124.60975,76.682917 l -15.57622,0 c -7.6683,0 -14.85731,5.51159 -16.77439,13.17988 l -5.99085,11.98171 c -1.91708,7.66828 1.91707,13.17987 9.58537,13.17987 l 15.57621,0 c -1.91707,5.75122 -4.1936,9.58537 -4.1936,9.58537 -1.91707,1.91708 -1.79629,11.2628 -1.79629,13.17987 l 0,98.25 c 0,7.6683 5.51159,13.17988 13.17987,13.17988 l -128.204261,0 0,-106.63719 52.120431,-52.12043 5.39176,-5.99084 0,-7.78812 0,-76.682917 0,-19.170731 -19.17073,0 -57.512194,0 -19.170732,0 z m 38.341465,38.341452 19.170734,0 0,49.124996 -19.170734,19.17073 z m 258.804864,5.990856 c 93.93658,0 91.77987,17.25366 99.44817,57.5122 0,0 -20.84817,13.17987 -99.44817,13.17987 -78.59999,0 -101.8445,-13.17987 -101.8445,-13.17987 9.58536,-42.17562 7.90792,-57.5122 101.8445,-57.5122 z M 243.02659,213.31707 c 2.0668,-0.0384 4.1936,0 6.58995,0 19.17073,0 41.93597,19.17074 41.93597,28.7561 -1.91708,7.6683 -5.63141,11.38263 -20.96799,11.38263 l -15.57621,0 c -7.6683,0 -22.76525,-3.4747 -22.76525,-14.97714 l 0,-13.77896 c 0,-10.06464 4.58296,-11.29272 10.78353,-11.38263 z m 222.85975,0 c 7.6683,0 15.57623,-2.03689 15.57623,11.38263 l 0,13.77896 c 0,11.50244 -15.09696,13.17988 -22.76525,13.17988 l -15.57622,0 c -15.33658,0 -19.17073,-3.71433 -19.17073,-11.38263 0,-7.66828 22.76524,-26.95884 41.93597,-26.95884 z m -195.30182,86.2683 172.53658,0 0,15.57621 c 0,7.6683 5.51158,13.17988 13.17988,13.17988 l -198.89633,0 c 7.66829,0 13.17987,-5.51158 13.17987,-13.17988 z M 117.21868,476.33383 c -17.253666,13.41952 -42.175616,17.37348 -57.512199,17.37348 l 0,38.34146 c 32.590247,0 46.009749,-7.78811 57.512199,-17.37347 17.25365,13.41951 42.1756,17.37347 57.51219,17.37347 15.33659,0 40.25853,-3.95396 57.51219,-17.37347 17.25366,13.41951 42.17561,17.37347 57.51219,17.37347 15.33658,0 40.25853,-3.95396 57.5122,-17.37347 17.25366,13.41951 42.17561,17.37347 57.51219,17.37347 15.33658,0 40.25853,-3.95396 57.5122,-17.37347 17.25365,13.41951 42.1756,17.37347 57.51218,17.37347 l 0,-38.34146 c -15.33658,0 -40.25853,-3.95396 -57.51218,-17.37348 -17.25367,13.41952 -42.17562,17.37348 -57.5122,17.37348 -15.33658,0 -40.25853,-3.95396 -57.51219,-17.37348 -17.25367,13.41952 -42.17562,17.37348 -57.5122,17.37348 -15.33658,0 -40.25853,-3.95396 -57.51219,-17.37348 -17.25366,13.41952 -42.1756,17.37348 -57.51219,17.37348 -15.33659,0 -40.25854,-3.95396 -57.51219,-17.37348 z"
     id="path4"
     style="fill:#ffffff;fill-opacity:1;stroke:none"
     sodipodi:nodetypes="ccccsccccscscsccccscccssccsccscscsccsccsscccccccccccccccccscscscscsssscsssssssccsccscccccscscsccccscscsc" />
</svg>
