<?xml version="1.0" encoding="UTF-8" standalone="no"?>
<!-- Created with Inkscape (http://www.inkscape.org/) -->

<svg
   xmlns:dc="http://purl.org/dc/elements/1.1/"
   xmlns:cc="http://creativecommons.org/ns#"
   xmlns:rdf="http://www.w3.org/1999/02/22-rdf-syntax-ns#"
   xmlns:svg="http://www.w3.org/2000/svg"
   xmlns="http://www.w3.org/2000/svg"
   xmlns:sodipodi="http://sodipodi.sourceforge.net/DTD/sodipodi-0.dtd"
   xmlns:inkscape="http://www.inkscape.org/namespaces/inkscape"
   version="1.0"
   width="580"
   height="580"
   id="svg2"
   sodipodi:version="0.32"
   inkscape:version="0.91 r"
   sodipodi:docname="cargo_passengers.svg"
   inkscape:output_extension="org.inkscape.output.svg.inkscape">
  <metadata
     id="metadata1976">
    <rdf:RDF>
      <cc:Work
         rdf:about="">
        <dc:format>image/svg+xml</dc:format>
        <dc:type
           rdf:resource="http://purl.org/dc/dcmitype/StillImage" />
        <cc:license
           rdf:resource="http://web.resource.org/cc/PublicDomain" />
        <dc:language>en</dc:language>
        <dc:title />
      </cc:Work>
    </rdf:RDF>
  </metadata>
  <sodipodi:namedview
     inkscape:window-height="1004"
     inkscape:window-width="1920"
     inkscape:pageshadow="2"
     inkscape:pageopacity="0.0"
     guidetolerance="10.0"
     gridtolerance="10.0"
     objecttolerance="10.0"
     borderopacity="1.0"
     bordercolor="#666666"
     pagecolor="#ffffff"
     id="base"
     inkscape:zoom="0.92167712"
     inkscape:cx="354.95678"
     inkscape:cy="200.11515"
     inkscape:window-x="1680"
     inkscape:window-y="0"
     inkscape:current-layer="svg2"
     showgrid="false"
     inkscape:window-maximized="1" />
  <defs
     id="defs4">
    <inkscape:perspective
       sodipodi:type="inkscape:persp3d"
       inkscape:vp_x="0 : 290 : 1"
       inkscape:vp_y="0 : 1000 : 0"
       inkscape:vp_z="580 : 290 : 1"
       inkscape:persp3d-origin="290 : 193.33333 : 1"
       id="perspective3653" />
    <marker
       viewBox="0 0 10 10"
       refY="5"
       refX="10"
       orient="auto"
       markerWidth="4"
       markerUnits="strokeWidth"
       markerHeight="3"
       id="ArrowStart">
      <path
         id="path2111"
         d="M 10 0 L 0 5 L 10 10 z" />
    </marker>
    <marker
       viewBox="0 0 10 10"
       refY="5"
       refX="0"
       orient="auto"
       markerWidth="4"
       markerUnits="strokeWidth"
       markerHeight="3"
       id="ArrowEnd">
      <path
         id="path2108"
         d="M 0 0 L 10 5 L 0 10 z" />
    </marker>
    <inkscape:perspective
       id="perspective2512"
       inkscape:persp3d-origin="177.51199 : 145.02 : 1"
       inkscape:vp_z="355.02399 : 217.53 : 1"
       inkscape:vp_y="0 : 1000 : 0"
       inkscape:vp_x="0 : 217.53 : 1"
       sodipodi:type="inkscape:persp3d" />
  </defs>
  <g
     id="g1327">
    <path
       d="M 66.275,1.768 C 24.94,1.768 1.704,23.139 1.704,66.804 L 1.704,516.927 C 1.704,557.771 22.6,579.156 63.896,579.156 L 515.92,579.156 C 557.227,579.156 578.149,558.842 578.149,516.927 L 578.149,66.804 C 578.149,24.203 557.227,1.768 514.628,1.768 C 514.624,1.768 66.133,1.625 66.275,1.768 z "
       style="fill:#111;stroke:#eee;stroke-width:3.40799999"
       id="path1329" />
  </g>
  <g
     id="g2117"
     transform="matrix(1.1975036,0,0,1.1975036,80.128205,34.575832)"
     style="fill:#000000">
    <g
       id="g2119"
       style="fill:#000000">
      <g
         id="g2121"
         style="fill:#000000">
        <path
           id="path2125"
           style="fill:#000000;stroke:none"
           d="" />
      </g>
      <g
         id="g2127"
         style="fill:#000000">
        <path
           id="path2131"
           style="fill:#000000;stroke:none"
           d="" />
      </g>
    </g>
  </g>
  <path
     inkscape:connector-curvature="0"
     d="m 59.706481,59.951232 0,19.170731 0,134.195107 0,46.12957 0,78.48019 c 0,32.73134 18.859588,61.49088 46.129569,76.08384 -15.665171,7.78139 -33.907082,10.18444 -46.129569,10.18444 l 0,38.34146 c 32.590247,0 46.009749,-7.7881 57.512199,-17.37347 17.25365,13.41952 42.1756,17.37347 57.51219,17.37347 15.33659,0 40.25853,-3.95395 57.51219,-17.37347 17.25366,13.41952 42.17561,17.37347 57.51219,17.37347 15.33658,0 40.25853,-3.95395 57.5122,-17.37347 17.25366,13.41952 42.17561,17.37347 57.51219,17.37347 15.33658,0 40.25853,-3.95395 57.5122,-17.37347 17.25365,13.41952 42.1756,17.37347 57.51218,17.37347 l 0,-38.34146 c -12.22249,0 -30.4644,-2.40305 -46.12957,-10.18444 27.26998,-14.59296 46.12957,-43.3525 46.12957,-76.08384 l 0,-9.58537 -421.754161,0 0,-106.63719 52.120431,-52.12043 5.39176,-5.99084 0,-7.78812 0,-76.682917 0,-19.170731 -19.17073,0 -57.512194,0 -19.170732,0 z m 38.341465,38.341448 19.170734,0 0,49.125 -19.170734,19.17073 z m 19.170734,378.04115 c -17.253666,13.41952 -42.175616,17.37348 -57.512199,17.37348 l 0,38.34146 c 32.590247,0 46.009749,-7.78811 57.512199,-17.37347 17.25365,13.41951 42.1756,17.37347 57.51219,17.37347 15.33659,0 40.25853,-3.95396 57.51219,-17.37347 17.25366,13.41951 42.17561,17.37347 57.51219,17.37347 15.33658,0 40.25853,-3.95396 57.5122,-17.37347 17.25366,13.41951 42.17561,17.37347 57.51219,17.37347 15.33658,0 40.25853,-3.95396 57.5122,-17.37347 17.25365,13.41951 42.1756,17.37347 57.51218,17.37347 l 0,-38.34146 c -15.33658,0 -40.25853,-3.95396 -57.51218,-17.37348 -17.25367,13.41952 -42.17562,17.37348 -57.5122,17.37348 -15.33658,0 -40.25853,-3.95396 -57.51219,-17.37348 -17.25367,13.41952 -42.17562,17.37348 -57.5122,17.37348 -15.33658,0 -40.25853,-3.95396 -57.51219,-17.37348 -17.25366,13.41952 -42.1756,17.37348 -57.51219,17.37348 -15.33659,0 -40.25854,-3.95396 -57.51219,-17.37348 z"
     id="path4"
     style="fill:#ffffff;fill-opacity:1;stroke:none"
     sodipodi:nodetypes="ccccsccccscscsccccscccccccccccccccccccccscscsccccscscsc" />
  <path
     style="font-style:normal;font-variant:normal;font-weight:normal;font-stretch:normal;font-size:40px;line-height:125%;font-family:NPSPICT3;-inkscape-font-specification:NPSPICT3;text-align:start;writing-mode:lr-tb;text-anchor:start;fill:#ffffff;fill-opacity:1;stroke:none;stroke-width:1px;stroke-linecap:butt;stroke-linejoin:miter;stroke-opacity:1"
     d="m 263.73059,73.800004 c 5.97303,2.3e-4 11.1324,-2.17247 15.47811,-6.51807 4.34505,-4.34516 6.51774,-9.50453 6.51808,-15.47811 -3.4e-4,-6.23823 -2.17303,-11.4618 -6.51808,-15.67074 -4.34571,-4.20842 -9.50508,-6.31276 -15.47811,-6.31302 -5.97366,2.6e-4 -11.13096,2.1046 -15.4719,6.31302 -4.34154,4.20894 -6.51216,9.43251 -6.51187,15.67074 -2.9e-4,5.97358 2.17033,11.13295 6.51187,15.47811 4.34094,4.3456 9.49824,6.5183 15.4719,6.51807 z m 28.91815,10.47382 -58.23398,0 c -7.87085,2e-4 -14.58983,2.7839 -20.15697,8.35109 -5.56765,5.56761 -8.35134,12.423276 -8.35109,20.567066 l 0,67.59169 c -2.5e-4,6.52026 2.98642,9.78033 8.96003,9.78022 5.69968,1.1e-4 8.54966,-3.25996 8.54994,-9.78022 l 0,-65.96372 10.588,0 0,179.17576 c -2.9e-4,8.14397 4.07169,12.21596 12.21596,12.21597 8.14367,-10e-6 12.21565,-4.072 12.21596,-12.21597 l 0,-103.84191 10.588,0 0,103.84191 c -3.2e-4,8.14397 4.07166,12.21596 12.21596,12.21597 8.41704,-10e-6 12.62572,-4.072 12.62606,-12.21597 l 0,-179.17576 10.17791,0 0,65.96372 c -3.6e-4,6.78538 2.84961,10.178 8.54993,10.1779 5.70787,1e-4 8.56198,-3.39252 8.56235,-10.1779 l 0,-67.19402 c -3.7e-4,-7.87039 -2.64736,-14.723996 -7.94099,-20.560846 -5.29436,-5.83645 -12.15004,-8.75478 -20.56707,-8.75498 z"
     id="flowRoot3192"
     sodipodi:nodetypes="csccssscccccsccsccccsccccsccccsccc"
     inkscape:connector-curvature="0" />
  <path
     style="font-style:normal;font-variant:normal;font-weight:normal;font-stretch:normal;font-size:40px;line-height:125%;font-family:NPSPICT3;-inkscape-font-specification:NPSPICT3;text-align:start;writing-mode:lr-tb;text-anchor:start;fill:#ffffff;fill-opacity:1;stroke:none;stroke-width:1px;stroke-linecap:butt;stroke-linejoin:miter;stroke-opacity:1"
     d="m 419.91539,73.800014 c 5.97303,2.3e-4 11.1324,-2.17247 15.47811,-6.51807 4.34505,-4.34516 6.51774,-9.50453 6.51808,-15.47811 -3.4e-4,-6.23823 -2.17303,-11.4618 -6.51808,-15.67074 -4.34571,-4.20842 -9.50508,-6.31276 -15.47811,-6.31302 -5.97366,2.6e-4 -11.13096,2.1046 -15.4719,6.31302 -4.34154,4.20894 -6.51216,9.43251 -6.51187,15.67074 -2.9e-4,5.97358 2.17033,11.13295 6.51187,15.47811 4.34094,4.3456 9.49824,6.5183 15.4719,6.51807 z m 28.91815,10.47382 -58.23398,0 c -7.87085,2e-4 -14.58983,2.7839 -20.15697,8.35109 -5.56765,5.56759 -8.35134,12.423256 -8.35109,20.567046 l 0,67.59169 c -2.5e-4,6.52026 2.98642,9.78033 8.96003,9.78022 5.69968,1.1e-4 8.54966,-3.25996 8.54994,-9.78022 l 0,-65.96372 10.588,0 0,179.17576 c -2.9e-4,8.14397 4.07169,12.21596 12.21596,12.21597 8.14367,-1e-5 12.21565,-4.072 12.21596,-12.21597 l 0,-103.84191 10.588,0 0,103.84191 c -3.2e-4,8.14397 4.07166,12.21596 12.21596,12.21597 8.41704,-1e-5 12.62572,-4.072 12.62606,-12.21597 l 0,-179.17576 10.17791,0 0,65.96372 c -3.6e-4,6.78538 2.84961,10.178 8.54993,10.1779 5.70787,1e-4 8.56198,-3.39252 8.56235,-10.1779 l 0,-67.19402 c -3.7e-4,-7.87039 -2.64736,-14.723996 -7.94099,-20.560826 -5.29436,-5.83645 -12.15004,-8.75478 -20.56707,-8.75498 z"
     id="flowRoot3192-0"
     sodipodi:nodetypes="csccssscccccsccsccccsccccsccccsccc"
     inkscape:connector-curvature="0" />
</svg>
