<svg width="48" height="48" viewBox="0 0 48 48" fill="none" xmlns="http://www.w3.org/2000/svg">
<g opacity="0.3">
<path d="M13.7373 15.3941L8 24V38C8 39.1046 8.89543 40 10 40H38C38.1082 40 38.2144 39.9914 38.318 39.9749L13.7373 15.3941Z" fill="white"/>
<path d="M40 30.3431V24L32 12H21.6569L40 30.3431Z" fill="white"/>
</g>
<path d="M16.098 18.9265L40.5858 43.4142C41.3668 44.1953 42.6332 44.1953 43.4142 43.4142C44.1953 42.6332 44.1953 41.3668 43.4142 40.5858L7.41421 4.58579C6.63316 3.80474 5.36683 3.80474 4.58579 4.58579C3.80474 5.36684 3.80474 6.63316 4.58579 7.41421L10.3838 13.2122L5.59999 16.8C3.83268 18.1255 3.47451 20.6327 4.79999 22.4C6.12547 24.1673 8.63268 24.5255 10.4 23.2L16.098 18.9265Z" fill="white"/>
<path d="M24 13L23.2325 13.5756L17.5182 7.86135L24 3L42.4 16.8C44.1673 18.1255 44.5255 20.6327 43.2 22.4C41.8745 24.1673 39.3673 24.5255 37.6 23.2L24 13Z" fill="white"/>
</svg>
