<svg width="12" height="12" viewBox="0 0 12 12" fill="none" xmlns="http://www.w3.org/2000/svg">
<circle opacity="0.3" cx="6" cy="9" r="1" fill="white"/>
<path opacity="0.2" d="M5.11665 5.53087C5.04219 5.67077 5 5.83046 5 6.00001C5 6.55229 5.44772 7.00001 6 7.00001C6.16954 7.00001 6.32923 6.95781 6.46914 6.88336L5.11665 5.53087Z" fill="white"/>
<path opacity="0.6" d="M6.35091 3.9367C6.7301 3.79458 7 3.42881 7 3C7 2.44772 6.55228 2 6 2C5.57119 2 5.20542 2.2699 5.0633 2.64909L6.35091 3.9367Z" fill="white"/>
<path fill-rule="evenodd" clip-rule="evenodd" d="M1.85355 1.14645C1.65829 0.951184 1.34171 0.951184 1.14645 1.14645C0.951184 1.34171 0.951184 1.65829 1.14645 1.85355L4 4.70711V9C4 10.1046 4.89543 11 6 11C7.10457 11 8 10.1046 8 9V8.70711L10.1464 10.8536C10.3417 11.0488 10.6583 11.0488 10.8536 10.8536C11.0488 10.6583 11.0488 10.3417 10.8536 10.1464L1.85355 1.14645ZM6.25902 6.96613L5.03387 5.74098C5.01178 5.82359 5 5.91042 5 6C5 6.55228 5.44772 7 6 7C6.08958 7 6.17641 6.98822 6.25902 6.96613ZM7 9C7 9.55228 6.55228 10 6 10C5.44772 10 5 9.55228 5 9C5 8.44772 5.44772 8 6 8C6.55228 8 7 8.44772 7 9Z" fill="white"/>
<path d="M8 3V5.58579L6.35091 3.9367C6.7301 3.79458 7 3.42881 7 3C7 2.44772 6.55228 2 6 2C5.57119 2 5.20542 2.2699 5.0633 2.64909L4.32339 1.90917C4.68023 1.36182 5.29786 1 6 1C7.10457 1 8 1.89543 8 3Z" fill="white"/>
</svg>
