<svg width="12" height="12" viewBox="0 0 12 12" fill="none" xmlns="http://www.w3.org/2000/svg">
<path fill-rule="evenodd" clip-rule="evenodd" d="M1 7V1H5V7H1ZM4.2 2H1.8V3H4.2V2ZM4.2 4H1.8V5H4.2V4ZM4.2 6H2.6V6.5H4.2V6Z" fill="white"/>
<path d="M8.1875 5.66667V5H8.8125V5.66667H9.4375V6.33333H8.8125V7H8.1875V6.33333H7.5625V5.66667H8.1875Z" fill="white"/>
<path fill-rule="evenodd" clip-rule="evenodd" d="M6 3.33333V3H11V3.33333C11 5.69048 10.7674 7.13608 10.5215 8.01042C10.3985 8.44759 10.2705 8.74669 10.1699 8.9375C10.0693 9.12831 9.97461 9.23958 9.97461 9.23958L9.96484 9.25L9.94531 9.26042C9.94531 9.26042 9.80266 9.38144 9.56445 9.47917C9.32625 9.57689 8.9747 9.66667 8.5 9.66667C8.18652 9.66667 7.92764 9.62765 7.71875 9.57292C8.16255 9.75877 8.8861 9.96234 9.75 9.80208V10.6667C9.75 10.8508 9.19036 11 8.5 11C7.80964 11 7.25 10.8508 7.25 10.6667V9.38542C7.12989 9.31769 7.05469 9.26042 7.05469 9.26042L7.02539 9.22917C7.02539 9.22917 6.93017 9.11985 6.83008 8.92708C6.72999 8.73432 6.60135 8.43893 6.47852 8C6.23285 7.12214 6 5.67398 6 3.33333ZM10.3457 4H6.6543C6.69664 5.86427 6.886 7.10503 7.08398 7.8125C7.19552 8.21107 7.30126 8.45839 7.37695 8.60417C7.44016 8.7259 7.45801 8.74332 7.46395 8.74911C7.46428 8.74944 7.46458 8.74973 7.46484 8.75C7.47319 8.75784 7.51032 8.7927 7.66016 8.85417C7.8282 8.92311 8.0997 9 8.5 9C8.9003 9 9.1718 8.92311 9.33984 8.85417C9.48345 8.79525 9.51366 8.77073 9.52539 8.76042C9.52539 8.76042 9.53484 8.75016 9.53516 8.75C9.53872 8.74691 9.55536 8.73251 9.62305 8.60417C9.69821 8.46164 9.80459 8.21908 9.91602 7.82292C10.1138 7.11956 10.3034 5.87673 10.3457 4Z" fill="white"/>
</svg>
