<svg width="12" height="12" viewBox="0 0 12 12" fill="none" xmlns="http://www.w3.org/2000/svg">
<path fill-rule="evenodd" clip-rule="evenodd" d="M2 3.5C2 2.11957 3.17364 1 4.62007 1C6.0665 1 7.24014 2.11957 7.24014 3.5C7.24014 4.88043 6.0665 6 4.62007 6C3.17364 6 2 4.88043 2 3.5ZM7.82268 3.5C7.82268 2.44298 7.22054 1.51645 6.32682 1.01773C7.62013 1.17035 8.62171 2.22482 8.62171 3.5C8.62171 4.77518 7.62013 5.82965 6.32682 5.98227C7.22054 5.48355 7.82268 4.55702 7.82268 3.5ZM9.20097 3.5C9.20097 2.44298 8.59884 1.51645 7.70511 1.01773C8.99843 1.17035 10 2.22482 10 3.5C10 4.77518 8.99843 5.82965 7.70511 5.98227C8.59884 5.48355 9.20097 4.55702 9.20097 3.5ZM5.17093 1.73049H4.74248V1.73051C4.65092 1.83937 4.49546 1.94321 4.28344 2.03712C4.07191 2.13196 3.83112 2.18312 3.56426 2.18312H3.36534V2.47513H4.17633V4.46078C4.17633 4.56684 4.15527 4.64159 4.11512 4.69439C4.07399 4.74718 4.00789 4.78736 3.9315 4.81119C3.917 4.81526 3.9062 4.81903 3.89591 4.82262C3.86383 4.83381 3.83666 4.84329 3.71728 4.85497C3.70034 4.85653 3.68401 4.85805 3.66824 4.85951C3.53814 4.87156 3.44702 4.88 3.38064 4.88417V5.27838H5.8748V4.88417C5.83389 4.8831 5.82261 4.88088 5.793 4.87506C5.77087 4.87072 5.73851 4.86436 5.67588 4.85497C5.52948 4.83394 5.43399 4.80766 5.36985 4.78197C5.29787 4.75066 5.23973 4.7009 5.20153 4.63596C5.16334 4.57102 5.14033 4.50012 5.14033 4.41696V2.82552C5.14033 2.67185 5.14692 2.49899 5.15422 2.30773C5.15468 2.29546 5.15515 2.28312 5.15563 2.2707C5.1595 2.16931 5.16161 2.07371 5.16358 1.98439C5.16559 1.89302 5.16746 1.80822 5.17093 1.73049ZM7 9H8L6 11L4 9H5V7H7V9Z" fill="white"/>
</svg>
