<?xml version="1.0" encoding="UTF-8" standalone="no"?>
<!-- Created with Inkscape (http://www.inkscape.org/) -->

<svg
   xmlns:dc="http://purl.org/dc/elements/1.1/"
   xmlns:cc="http://creativecommons.org/ns#"
   xmlns:rdf="http://www.w3.org/1999/02/22-rdf-syntax-ns#"
   xmlns:svg="http://www.w3.org/2000/svg"
   xmlns="http://www.w3.org/2000/svg"
   xmlns:sodipodi="http://sodipodi.sourceforge.net/DTD/sodipodi-0.dtd"
   xmlns:inkscape="http://www.inkscape.org/namespaces/inkscape"
   version="1.0"
   width="580"
   height="580"
   id="svg2"
   sodipodi:version="0.32"
   inkscape:version="0.92.3 (2405546, 2018-03-11)"
   sodipodi:docname="foot_no.svg"
   inkscape:output_extension="org.inkscape.output.svg.inkscape">
  <metadata
     id="metadata2975">
    <rdf:RDF>
      <cc:Work
         rdf:about="">
        <dc:format>image/svg+xml</dc:format>
        <dc:type
           rdf:resource="http://purl.org/dc/dcmitype/StillImage" />
        <cc:license
           rdf:resource="http://web.resource.org/cc/PublicDomain" />
        <dc:language>en</dc:language>
        <dc:title />
      </cc:Work>
    </rdf:RDF>
  </metadata>
  <sodipodi:namedview
     inkscape:window-height="1006"
     inkscape:window-width="1920"
     inkscape:pageshadow="2"
     inkscape:pageopacity="0.0"
     guidetolerance="10.0"
     gridtolerance="10.0"
     objecttolerance="10.0"
     borderopacity="1.0"
     bordercolor="#666666"
     pagecolor="#ffffff"
     id="base"
     inkscape:zoom="0.32586208"
     inkscape:cx="-242.9589"
     inkscape:cy="430.54575"
     inkscape:window-x="1920"
     inkscape:window-y="0"
     inkscape:current-layer="svg2"
     showgrid="false"
     inkscape:window-maximized="1"
     inkscape:snap-global="false" />
  <defs
     id="defs4">
    <inkscape:perspective
       sodipodi:type="inkscape:persp3d"
       inkscape:vp_x="0 : 290 : 1"
       inkscape:vp_y="0 : 1000 : 0"
       inkscape:vp_z="580 : 290 : 1"
       inkscape:persp3d-origin="290 : 193.33333 : 1"
       id="perspective2441" />
  </defs>
  <g
     id="g1327">
    <path
       d="M 66.275,1.768 C 24.94,1.768 1.704,23.139 1.704,66.804 L 1.704,516.927 C 1.704,557.771 22.599,579.156 63.896,579.156 L 515.92,579.156 C 557.227,579.156 578.149,558.841 578.149,516.927 L 578.149,66.804 C 578.149,24.203 557.227,1.768 514.628,1.768 C 514.624,1.768 66.133,1.625 66.275,1.768 z "
       style="fill:#111;stroke:#eee;stroke-width:3.40799999"
       id="path1329" />
  </g>
  <g
     id="g4372"
     transform="translate(-130.0802,122.26983)" />
  <path
     style="color:#000000;font-style:normal;font-variant:normal;font-weight:normal;font-stretch:normal;font-size:medium;line-height:normal;font-family:sans-serif;font-variant-ligatures:normal;font-variant-position:normal;font-variant-caps:normal;font-variant-numeric:normal;font-variant-alternates:normal;font-feature-settings:normal;text-indent:0;text-align:start;text-decoration:none;text-decoration-line:none;text-decoration-style:solid;text-decoration-color:#000000;letter-spacing:normal;word-spacing:normal;text-transform:none;writing-mode:lr-tb;direction:ltr;text-orientation:mixed;dominant-baseline:auto;baseline-shift:baseline;text-anchor:start;white-space:normal;shape-padding:0;clip-rule:nonzero;display:inline;overflow:visible;visibility:visible;opacity:1;isolation:auto;mix-blend-mode:normal;color-interpolation:sRGB;color-interpolation-filters:linearRGB;solid-color:#000000;solid-opacity:1;vector-effect:none;fill:#ffffff;fill-opacity:1;fill-rule:nonzero;stroke:none;stroke-width:2.44945288;stroke-linecap:round;stroke-linejoin:round;stroke-miterlimit:4;stroke-dasharray:none;stroke-dashoffset:0;stroke-opacity:1;color-rendering:auto;image-rendering:auto;shape-rendering:auto;text-rendering:auto;enable-background:accumulate"
     d="M 270.4707 34.001953 C 246.66061 33.570565 226.96581 52.435574 226.37305 76.242188 L 226.37305 77.25 C 226.37365 101.05655 245.58079 120.40297 269.38672 120.57422 C 293.22418 120.74514 312.72296 101.62721 313.02148 77.791016 C 313.27896 53.982761 294.27655 34.42692 270.4707 34.001953 z M 292.28516 136.25195 C 291.7451 136.25209 291.20301 136.26108 290.66211 136.2793 L 290.66211 136.27734 C 278.49755 136.87176 257.21359 146.48054 248.62891 158.02734 L 358.36914 267.76758 C 355.93517 251.24676 350.97268 233.57445 346.21094 217.04883 L 364.70117 230.89844 L 381.37695 290.77539 L 402.95312 312.35156 C 405.04695 312.41288 407.18464 312.16425 409.30859 311.57227 C 420.66088 308.40819 427.2928 296.63424 424.11719 285.28516 L 403.84766 212.48438 C 402.59627 207.94291 399.87591 203.94505 396.11133 201.11328 L 322.22852 145.71875 C 320.21685 144.13739 317.93522 142.9316 315.49609 142.1582 C 308.36637 138.27614 300.38605 136.24997 292.28516 136.25195 z M 193.67969 231.04883 L 165.33203 249.15234 C 155.11149 255.36998 152.00761 268.7796 158.45703 278.85547 C 164.90646 288.93135 178.38263 291.72863 188.30859 285.05078 L 224.55469 261.92383 L 193.67969 231.04883 z M 256.19727 293.56641 L 195.81445 356.45703 C 193.21841 359.18875 191.16929 362.39368 189.7793 365.89648 C 188.12634 368.63699 186.97355 371.64902 186.375 374.79297 L 162.70117 494.24414 C 159.8162 508.86918 169.32383 523.0678 183.94531 525.9707 C 198.56679 528.8736 212.77449 519.38355 215.69531 504.76562 L 236.66211 398.85352 C 237.24939 398.3596 237.8163 397.8429 238.36328 397.30469 L 295.61328 337.65625 C 296.10115 337.79597 296.59196 337.92839 297.08398 338.05273 L 292.59766 395.22656 C 288.96203 403.20463 289.04538 412.3836 292.82812 420.29297 L 342.65234 528.0625 C 349.2289 543.38969 367.15535 550.26879 382.29688 543.27539 C 397.4384 536.282 403.82492 518.17308 396.41992 503.22852 L 351.00781 404.97461 C 351.00813 404.89539 351.00813 404.81553 351.00781 404.73633 L 352.18555 389.55469 L 256.19727 293.56641 z "
     id="path4817" />
  <path
     inkscape:connector-curvature="0"
     style="color:#000000;font-style:normal;font-variant:normal;font-weight:normal;font-stretch:normal;font-size:medium;line-height:normal;font-family:sans-serif;text-indent:0;text-align:start;text-decoration:none;text-decoration-line:none;text-decoration-style:solid;text-decoration-color:#000000;letter-spacing:normal;word-spacing:normal;text-transform:none;writing-mode:lr-tb;direction:ltr;baseline-shift:baseline;text-anchor:start;white-space:normal;clip-rule:nonzero;display:inline;overflow:visible;visibility:visible;opacity:1;isolation:auto;mix-blend-mode:normal;color-interpolation:sRGB;color-interpolation-filters:linearRGB;solid-color:#000000;solid-opacity:1;fill:#ffffff;fill-opacity:1;fill-rule:evenodd;stroke:none;stroke-width:30;stroke-linecap:butt;stroke-linejoin:miter;stroke-miterlimit:4;stroke-dasharray:none;stroke-dashoffset:0;stroke-opacity:1;color-rendering:auto;image-rendering:auto;shape-rendering:auto;text-rendering:auto;enable-background:accumulate"
     d="m 135.70002,94.198451 -18.21876,18.218749 -0.0176,-0.0156 -21.214848,21.21484 377.999998,378 18.22071,-18.21875 0.0156,0.0156 21.21485,-21.21485 z"
     id="path4546" />
</svg>
