<svg width="580" height="580" viewBox="0 0 580 580" fill="none" xmlns="http://www.w3.org/2000/svg">
<path d="M270.471 34.0019C246.661 33.5705 226.966 52.4355 226.373 76.2421V77.2499C226.374 101.056 245.581 120.403 269.387 120.574C293.224 120.745 312.723 101.627 313.021 77.7909C313.279 53.9827 294.277 34.4268 270.471 34.0019ZM292.285 136.252C291.745 136.252 291.203 136.261 290.662 136.279V136.277C278.498 136.872 257.214 146.48 248.629 158.027L358.369 267.768C355.935 251.247 350.973 233.574 346.211 217.049L364.701 230.898L381.377 290.775L402.953 312.352C405.047 312.413 407.185 312.164 409.309 311.572C420.661 308.408 427.293 296.634 424.117 285.285L403.848 212.484C402.596 207.943 399.876 203.945 396.111 201.113L322.229 145.719C320.217 144.137 317.935 142.932 315.496 142.158C308.366 138.276 300.386 136.25 292.285 136.252ZM193.68 231.049L165.332 249.152C155.111 255.37 152.008 268.78 158.457 278.855C164.906 288.931 178.383 291.729 188.309 285.051L224.555 261.924L193.68 231.049ZM256.197 293.566L195.814 356.457C193.218 359.189 191.169 362.394 189.779 365.896C188.126 368.637 186.974 371.649 186.375 374.793L162.701 494.244C159.816 508.869 169.324 523.068 183.945 525.971C198.567 528.874 212.774 519.383 215.695 504.766L236.662 398.853C237.249 398.36 237.816 397.843 238.363 397.305L295.613 337.656C296.101 337.796 296.592 337.928 297.084 338.053L292.598 395.227C288.962 403.205 289.045 412.384 292.828 420.293L342.652 528.062C349.229 543.39 367.155 550.269 382.297 543.275C397.438 536.282 403.825 518.173 396.42 503.228L351.008 404.975C351.008 404.895 351.008 404.815 351.008 404.736L352.186 389.555L256.197 293.566Z" fill="white"/>
<path fill-rule="evenodd" clip-rule="evenodd" d="M135.7 94.1985L117.481 112.417L117.464 112.402L96.2488 133.616L474.249 511.616L492.469 493.398L492.485 493.413L513.7 472.198L135.7 94.1985Z" fill="white"/>
</svg>
