<svg width="12" height="12" viewBox="0 0 12 12" fill="none" xmlns="http://www.w3.org/2000/svg">
<path d="M7.99992 0H3.99992V1H7.99992V0Z" fill="white"/>
<path fill-rule="evenodd" clip-rule="evenodd" d="M3.70711 2C3.25435 2 2.82014 2.17986 2.5 2.5C2.17986 2.82014 2 3.25435 2 3.70711V10C2 10.5523 2.44772 11 3 11H9C9.55228 11 10 10.5523 10 10V3.70711C10 3.25435 9.82014 2.82014 9.5 2.5C9.17986 2.17986 8.74565 2 8.29289 2H6.49992L6.99992 1H5.99992L5.49992 2H3.70711ZM5 3.5C5 3.22386 5.22386 3 5.5 3H6.5C6.77614 3 7 3.22386 7 3.5C7 3.77614 6.77614 4 6.5 4H5.5C5.22386 4 5 3.77614 5 3.5ZM3.00008 5H9.00008V8H3.00008V5ZM3.50008 10C3.77622 10 4.00008 9.77615 4.00008 9.50001C4.00008 9.22386 3.77622 9.00001 3.50008 9.00001C3.22393 9.00001 3.00008 9.22386 3.00008 9.50001C3.00008 9.77615 3.22393 10 3.50008 10ZM9 9.50001C9 9.77615 8.77614 10 8.5 10C8.22386 10 8 9.77615 8 9.50001C8 9.22386 8.22386 9.00001 8.5 9.00001C8.77614 9.00001 9 9.22386 9 9.50001Z" fill="white"/>
<g opacity="0.5">
<path d="M4 11H3L2.49992 12H3.49992L4 11Z" fill="white"/>
<path d="M8.5 12L8 11H9L9.5 12H8.5Z" fill="white"/>
</g>
</svg>
