<?xml version="1.0" encoding="UTF-8" standalone="no"?>
<!-- Created with Inkscape (http://www.inkscape.org/) -->

<svg
   xmlns:dc="http://purl.org/dc/elements/1.1/"
   xmlns:cc="http://creativecommons.org/ns#"
   xmlns:rdf="http://www.w3.org/1999/02/22-rdf-syntax-ns#"
   xmlns:svg="http://www.w3.org/2000/svg"
   xmlns="http://www.w3.org/2000/svg"
   xmlns:sodipodi="http://sodipodi.sourceforge.net/DTD/sodipodi-0.dtd"
   xmlns:inkscape="http://www.inkscape.org/namespaces/inkscape"
   version="1.0"
   width="580"
   height="580"
   id="svg2"
   sodipodi:version="0.32"
   inkscape:version="0.91 r"
   sodipodi:docname="lit_yes.svg"
   inkscape:output_extension="org.inkscape.output.svg.inkscape">
  <metadata
     id="metadata1976">
    <rdf:RDF>
      <cc:Work
         rdf:about="">
        <dc:format>image/svg+xml</dc:format>
        <dc:type
           rdf:resource="http://purl.org/dc/dcmitype/StillImage" />
        <cc:license
           rdf:resource="http://web.resource.org/cc/PublicDomain" />
        <dc:language>en</dc:language>
        <dc:title />
      </cc:Work>
    </rdf:RDF>
  </metadata>
  <sodipodi:namedview
     inkscape:window-height="1004"
     inkscape:window-width="1920"
     inkscape:pageshadow="2"
     inkscape:pageopacity="0.0"
     guidetolerance="10.0"
     gridtolerance="10.0"
     objecttolerance="10.0"
     borderopacity="1.0"
     bordercolor="#666666"
     pagecolor="#ffffff"
     id="base"
     inkscape:zoom="0.65172414"
     inkscape:cx="398.34031"
     inkscape:cy="347.33452"
     inkscape:window-x="1680"
     inkscape:window-y="0"
     inkscape:current-layer="svg2"
     showgrid="false"
     inkscape:window-maximized="1" />
  <defs
     id="defs4">
    <inkscape:perspective
       sodipodi:type="inkscape:persp3d"
       inkscape:vp_x="0 : 290 : 1"
       inkscape:vp_y="0 : 1000 : 0"
       inkscape:vp_z="580 : 290 : 1"
       inkscape:persp3d-origin="290 : 193.33333 : 1"
       id="perspective3653" />
    <marker
       viewBox="0 0 10 10"
       refY="5"
       refX="10"
       orient="auto"
       markerWidth="4"
       markerUnits="strokeWidth"
       markerHeight="3"
       id="ArrowStart">
      <path
         id="path2111"
         d="M 10 0 L 0 5 L 10 10 z" />
    </marker>
    <marker
       viewBox="0 0 10 10"
       refY="5"
       refX="0"
       orient="auto"
       markerWidth="4"
       markerUnits="strokeWidth"
       markerHeight="3"
       id="ArrowEnd">
      <path
         id="path2108"
         d="M 0 0 L 10 5 L 0 10 z" />
    </marker>
    <inkscape:perspective
       id="perspective2512"
       inkscape:persp3d-origin="177.51199 : 145.02 : 1"
       inkscape:vp_z="355.02399 : 217.53 : 1"
       inkscape:vp_y="0 : 1000 : 0"
       inkscape:vp_x="0 : 217.53 : 1"
       sodipodi:type="inkscape:persp3d" />
  </defs>
  <g
     id="g1327">
    <path
       d="M 66.275,1.768 C 24.94,1.768 1.704,23.139 1.704,66.804 L 1.704,516.927 C 1.704,557.771 22.6,579.156 63.896,579.156 L 515.92,579.156 C 557.227,579.156 578.149,558.842 578.149,516.927 L 578.149,66.804 C 578.149,24.203 557.227,1.768 514.628,1.768 C 514.624,1.768 66.133,1.625 66.275,1.768 z "
       style="fill:#111;stroke:#eee;stroke-width:3.40799999"
       id="path1329" />
  </g>
  <g
     id="g2117"
     transform="matrix(1.1975036,0,0,1.1975036,80.128205,34.575832)"
     style="fill:#000000">
    <g
       id="g2119"
       style="fill:#000000">
      <g
         id="g2121"
         style="fill:#000000">
        <path
           id="path2125"
           style="fill:#000000;stroke:none"
           d="" />
      </g>
      <g
         id="g2127"
         style="fill:#000000">
        <path
           id="path2131"
           style="fill:#000000;stroke:none"
           d="" />
      </g>
    </g>
  </g>
  <path
     inkscape:connector-curvature="0"
     d="m 289.54027,521.10893 a 17.782469,17.782469 0 0 1 -2.22258,-0.55475 17.782469,17.782469 0 0 1 -13.89117,-17.78069 l 0,-53.34208 a 17.782469,17.782469 0 1 1 35.56138,0 l 0,53.34208 a 17.782469,17.782469 0 0 1 -19.44763,18.33633 z M 136.73746,458.32087 a 17.782469,17.782469 0 0 1 -8.89034,-30.56056 l 37.78397,-37.78397 a 17.782469,17.782469 0 1 1 25.00409,25.0041 l -37.78397,37.78396 a 17.782469,17.782469 0 0 1 -14.4468,5.55647 17.782469,17.782469 0 0 1 -1.66606,0 z m 303.38304,0 a 17.782469,17.782469 0 0 1 -10.55728,-5.55647 l -37.78397,-37.78396 a 17.782469,17.782469 0 1 1 25.0041,-25.0041 l 37.78396,37.78397 A 17.782469,17.782469 0 0 1 440.1205,458.32087 Z M 291.20721,393.86586 c -57.07602,0 -103.35026,-46.27425 -103.35026,-103.35025 0,-58.64073 50.56384,-92.74854 50.56384,-122.79791 l 0,-7.22341 c 0,-7.32564 6.081,-13.33551 13.33552,-13.33551 l 78.90181,0 c 7.25452,0 13.33552,6.00987 13.33552,13.33551 l 0,7.22341 c 0,30.13828 50.56384,63.19702 50.56384,122.79791 0.0178,57.076 -46.27425,103.35025 -103.35027,103.35025 z m 0,-34.45008 c 13.08659,0 25.21303,-3.65394 35.56138,-10.00164 -1.24464,0.0711 -2.60932,0.55476 -3.88952,0.55476 -48.57685,0 -87.79216,-39.31755 -87.79216,-87.23652 0,-2.96937 0.28982,-5.99209 0.55476,-8.89034 -7.75238,10.89957 -12.77987,24.5818 -12.77987,38.89526 0,37.0194 30.79171,66.67758 68.34453,66.67758 z M 72.838113,307.185 a 17.955641,17.955641 0 0 1 5.000819,-35.56138 l 53.342068,0 a 17.782469,17.782469 0 1 1 0,35.56138 l -53.342068,0 a 17.782469,17.782469 0 0 1 -1.666052,0 17.800214,17.800214 0 0 1 -1.666053,0 17.858658,17.858658 0 0 1 -1.666053,0 z m 373.394497,0 a 17.955641,17.955641 0 0 1 5.00082,-35.56138 l 53.34207,0 a 17.782469,17.782469 0 1 1 0,35.56138 l -53.34207,0 a 17.782469,17.782469 0 0 1 -1.66605,0 17.800214,17.800214 0 0 1 -1.66605,0 17.858658,17.858658 0 0 1 -1.66606,0 z M 176.18837,194.38874 a 17.782469,17.782469 0 0 1 -10.55728,-5.55647 l -37.78397,-37.78396 a 17.782469,17.782469 0 1 1 25.00409,-25.0041 l 37.78397,37.78397 a 17.782469,17.782469 0 0 1 -12.77987,30.56056 17.782469,17.782469 0 0 1 -1.66605,0 z m 224.48122,0 a 17.782469,17.782469 0 0 1 -8.89034,-30.56056 l 37.78397,-37.78397 a 17.782469,17.782469 0 1 1 25.00409,25.0041 l -37.78396,37.78396 a 17.782469,17.782469 0 0 1 -12.77988,5.55647 17.782469,17.782469 0 0 1 -1.66605,0 17.782469,17.782469 0 0 1 -1.66605,0 z M 251.20066,129.37809 c -7.30786,0 -13.33552,-5.97432 -13.33552,-13.33552 l 0,-26.671036 c 0,-7.37898 6.02766,-13.33551 13.33552,-13.33551 l 11.11293,0 c 5.82424,-10.18407 16.3088,-17.225046 28.89362,-17.225046 12.58482,0 23.06921,7.041146 28.89363,17.225046 l 11.11293,0 c 7.30786,0 13.33551,5.95653 13.33551,13.33551 l 0,26.671036 c 0,7.3612 -6.02765,13.33552 -13.33551,13.33552 l -80.01311,0 z"
     id="path4"
     style="fill:#ffffff;fill-opacity:1;stroke:none" />
</svg>
