<svg width="48" height="48" viewBox="0 0 48 48" fill="none" xmlns="http://www.w3.org/2000/svg">
<path fill-rule="evenodd" clip-rule="evenodd" d="M31.9 4H33.1716C34.9826 4 36.7194 4.71942 38 6C39.2806 7.28058 40 9.01742 40 10.8284V36C40 38.2091 38.2091 40 36 40V36C36 33.7909 34.2091 32 32 32H16C13.7909 32 12 33.7909 12 36V40C9.79086 40 8 38.2091 8 36V10.8284C8 9.01742 8.71942 7.28058 10 6C11.2806 4.71942 13.0174 4 14.8284 4H16.1C16.5633 1.71776 18.581 0 21 0H27C29.419 0 31.4367 1.71776 31.9 4ZM20 6C20 4.89543 20.8954 4 22 4H26C27.1046 4 28 4.89543 28 6C28 7.10457 27.1046 8 26 8H22C20.8954 8 20 7.10457 20 6ZM22 12H12V20H22V12ZM36 12H26V20H36V12ZM16 26C16 27.1046 15.1046 28 14 28C12.8954 28 12 27.1046 12 26C12 24.8954 12.8954 24 14 24C15.1046 24 16 24.8954 16 26ZM34 28C35.1046 28 36 27.1046 36 26C36 24.8954 35.1046 24 34 24C32.8954 24 32 24.8954 32 26C32 27.1046 32.8954 28 34 28Z" fill="white" />
<path d="M18 36C16.8954 36 16 36.8954 16 38V46C16 47.1046 16.8954 48 18 48H30C31.1046 48 32 47.1046 32 46V38C32 36.8954 31.1046 36 30 36H18Z" fill="white" />
</svg>