<svg width="12" height="12" viewBox="0 0 12 12" fill="none" xmlns="http://www.w3.org/2000/svg">
<path fill-rule="evenodd" clip-rule="evenodd" d="M1.85355 1.14645C1.65829 0.951184 1.34171 0.951184 1.14645 1.14645C0.951184 1.34171 0.951184 1.65829 1.14645 1.85355L5.09624 5.80334L1.84743 8.69117C1.62644 8.88761 1.5 9.16917 1.5 9.46485C1.5 10.0365 1.96345 10.5 2.53515 10.5C2.83083 10.5 3.11239 10.3736 3.30883 10.1526L6.19666 6.90376L10.1464 10.8536C10.3417 11.0488 10.6583 11.0488 10.8536 10.8536C11.0488 10.6583 11.0488 10.3417 10.8536 10.1464L1.85355 1.14645ZM2.5 10C2.77614 10 3 9.77614 3 9.5C3 9.22386 2.77614 9 2.5 9C2.22386 9 2 9.22386 2 9.5C2 9.77614 2.22386 10 2.5 10Z" fill="white"/>
<path d="M8.41421 5.99999L7.41421 4.99999H8.73241L9.58397 3.72264L10.416 4.27734L9.26759 5.99999H8.41421Z" fill="white"/>
<path d="M7 3.26759V4.58579L6 3.58579V2.7324L7.72265 1.58397L8.27735 2.41602L7 3.26759Z" fill="white"/>
</svg>
