<svg width="12" height="12" viewBox="0 0 12 12" fill="none" xmlns="http://www.w3.org/2000/svg">
<path fill-rule="evenodd" clip-rule="evenodd" d="M5.48791 2.00004C5.44212 2.00027 5.39595 2.0016 5.34943 2.00413C3.16626 2.12284 2.30944 3.56854 2.08689 4.58611C1.66299 6.52432 2.92785 7.67544 2.92785 7.67544C2.92785 7.67544 7.69611 10.016 8.09408 9.99992C9.20927 9.95475 9.99096 9.18473 9.98349 8.47592C10.1085 8.54152 9.51126 5.22413 8.62113 3.977C7.9728 3.06865 6.90734 1.9928 5.48791 2.00004ZM8.41505 4.25814C8.89138 4.86589 9.66721 7.4679 9.72367 8.28388C7.71261 7.90007 5.4081 6.03438 5.4081 6.03438C5.4081 6.03438 5.44839 5.40528 5.5187 4.97718C6.5172 5.06576 7.87891 4.74546 8.41505 4.25814Z" fill="white"/>
</svg>
