<svg width="12" height="12" viewBox="0 0 12 12" fill="none" xmlns="http://www.w3.org/2000/svg">
<path fill-rule="evenodd" clip-rule="evenodd" d="M4.99999 1H6.99999L7.32732 2.96395L9 2L10 2.99999L9.03605 4.67267L11 5V7L9.03605 7.32733L9.99999 9.00001L9 10L7.32732 9.03605L7 11H5L4.67267 9.03605L3 10L2 9L2.96394 7.32732L1 7V5L2.96395 4.67267L2 3L2.99999 1.99999L4.67267 2.96394L4.99999 1ZM7.00001 6C7.00001 6.55228 6.55229 7 6.00001 7C5.44772 7 5.00001 6.55228 5.00001 6C5.00001 5.44772 5.44772 5 6.00001 5C6.55229 5 7.00001 5.44772 7.00001 6Z" fill="white"/>
<path fill-rule="evenodd" clip-rule="evenodd" d="M4.99999 1H6.99999L7.32732 2.96395L9 2L10 2.99999L9.03605 4.67267L11 5V7L9.03605 7.32733L9.99999 9.00001L9 10L7.32732 9.03605L7 11H5L4.67267 9.03605L3 10L2 9L2.96394 7.32732L1 7V5L2.96395 4.67267L2 3L2.99999 1.99999L4.67267 2.96394L4.99999 1ZM7.00001 6C7.00001 6.55228 6.55229 7 6.00001 7C5.44772 7 5.00001 6.55228 5.00001 6C5.00001 5.44772 5.44772 5 6.00001 5C6.55229 5 7.00001 5.44772 7.00001 6Z" fill="white"/>
</svg>
