<svg width="12" height="12" viewBox="0 0 12 12" fill="none" xmlns="http://www.w3.org/2000/svg">
<path d="M10.9996 4.99509L11 1.76089C11 1.34131 10.6587 1 10.2391 1L7.00522 1.00043L6.86848 1C6.58717 1 6.3187 1.01609 6.12522 1.20935L1.18435 6.14989C1.06543 6.26838 1 6.42664 1 6.59447C1 6.76208 1.06543 6.92013 1.18413 7.03904L4.96109 10.8159C5.07978 10.9346 5.23761 11 5.40544 11C5.57326 11 5.73131 10.9346 5.84978 10.8159L10.7904 5.87467C11.0026 5.66336 11.0011 5.35901 10.9998 5.06487L10.9996 4.99509H10.9996ZM8.13938 6.41691L7.70143 5.97895C7.98297 5.57228 8.04553 5.07175 7.5763 4.60251C6.91938 3.94558 6.38758 4.32097 6.2002 4.50866C5.76225 4.94662 6.04379 5.47843 6.41918 6.0728C6.85681 6.7923 7.23251 7.60565 6.51302 8.32515C5.66841 9.20138 4.6361 8.66958 4.22943 8.38772L3.82277 8.7944L3.38451 8.35644L3.82246 7.91848C3.50963 7.48083 3.07169 6.60461 3.94758 5.57228L4.38553 6.01023C4.10399 6.29147 3.75989 7.01128 4.4481 7.69919C5.1363 8.38741 5.60553 8.23099 5.98092 7.8556C7.0445 6.7923 4.2604 5.44683 5.6681 4.03911C6.41886 3.28833 7.35732 3.63244 7.76399 3.94526L8.2645 3.44474L8.70245 3.8827L8.20194 4.38353C8.73373 5.13432 8.48348 5.79126 8.13938 6.41691V6.41691ZM9.42876 3.30937C9.06876 3.30937 8.77659 3.01741 8.77659 2.65719C8.77659 2.29696 9.06876 2.005 9.42876 2.005C9.78876 2.005 10.0809 2.29696 10.0809 2.65719C10.0809 3.01741 9.78876 3.30937 9.42876 3.30937Z" fill="white"/>
</svg>
