<svg width="48" height="48" viewBox="0 0 48 48" fill="none" xmlns="http://www.w3.org/2000/svg">
<path d="M18.4281 27.7548L13.6365 19.4062H4L7.9172 21.6738L5.49549 25.8473C5.28895 26.2258 5.18569 26.621 5.1857 27.033C5.18569 27.4451 5.28895 27.8403 5.49549 28.2187L9.30733 34.8659C9.47925 34.3847 9.65119 33.9722 9.82313 33.6283L14.5643 25.4872L18.4281 27.7548ZM11.2667 34.4539C10.991 34.9005 10.8531 35.3812 10.8531 35.8959C10.8531 36.6864 11.1367 37.3563 11.7039 37.9056C12.271 38.4549 12.9493 38.7296 13.7388 38.7296H23.2212V31.0525H13.2245C13.1553 31.1898 12.8974 31.6364 12.4508 32.3923L11.2667 34.4539ZM24.0971 15.4387H33.6818L38.5252 7.09162L34.6096 9.35923L32.1863 5.18413C31.7396 4.39474 31.053 4.00003 30.1262 4H22.4994C22.8086 4.34285 23.0665 4.68619 23.2731 5.03002L27.9608 13.1711L27.1887 13.635L24.0971 15.4387ZM19.4078 4.41201C18.308 4.41204 17.4835 4.89271 16.9342 5.85403L12.1426 14.0989C13.9626 15.164 16.1783 16.4352 18.7898 17.9123C20.335 15.2673 22.0009 12.3817 23.7873 9.25544L21.8814 5.85403C21.332 4.89271 20.5075 4.41204 19.4078 4.41201ZM31.7239 30.9487V30.0209V26.4669L26.9308 34.814L31.7239 43.1107V38.6274H36.5155C37.4432 38.6274 38.1472 38.2322 38.6274 37.4417L42.4408 30.7946C41.926 30.9319 41.4967 31.0006 41.1529 31.0006L31.7239 30.9487ZM38.835 16.8304C38.663 16.9331 36.4468 18.2043 32.1863 20.6438C34.3165 24.3194 36.0002 27.2223 37.2373 29.3525H41.101C42.2353 29.3526 43.0771 28.8714 43.6265 27.909C44.1412 26.9812 44.1239 26.0366 43.5746 25.0752L38.835 16.8304Z" fill="white" />
</svg>