<svg width="48" height="48" viewBox="0 0 48 48" fill="none" xmlns="http://www.w3.org/2000/svg">
<path d="M24.0001 0C22.8956 0 22.0001 0.895431 22.0001 2C22.0001 3.10457 22.8956 4 24.0001 4C25.1047 4 26.0001 3.10457 26.0001 2C26.0001 0.895431 25.1047 0 24.0001 0Z" fill="white" />
<path d="M40.9707 7.02944C40.1896 6.24839 38.9233 6.24839 38.1423 7.02944C37.3612 7.81049 37.3612 9.07682 38.1423 9.85786C38.9233 10.6389 40.1896 10.6389 40.9707 9.85786C41.7517 9.07682 41.7517 7.81049 40.9707 7.02944Z" fill="white" />
<path d="M48.0001 24C48.0001 22.8954 47.1047 22 46.0001 22C44.8956 22 44.0001 22.8954 44.0001 24C44.0001 25.1046 44.8956 26 46.0001 26C47.1047 26 48.0001 25.1046 48.0001 24Z" fill="white" />
<path d="M38.1428 40.9711L40.5859 43.4142C41.367 44.1953 42.6333 44.1953 43.4143 43.4142C44.1954 42.6332 44.1954 41.3668 43.4143 40.5858L7.41434 4.58579C6.63329 3.80474 5.36696 3.80474 4.58591 4.58579C3.80486 5.36684 3.80486 6.63316 4.58591 7.41421L10.207 13.0353L10.4263 13.8537L5.9476 11.268C4.99101 10.7157 3.76783 11.0434 3.21555 12C2.66326 12.9566 2.99101 14.1798 3.9476 14.7321L8.42631 17.3178L4.89406 18.2643C3.82713 18.5502 3.19397 19.6469 3.47985 20.7138C3.76573 21.7807 4.86241 22.4139 5.92934 22.128L13.3253 20.1463L20.0002 24L13.3253 27.8537L5.92934 25.872C4.86241 25.5861 3.76573 26.2193 3.47985 27.2862C3.19397 28.3532 3.82713 29.4498 4.89406 29.7357L8.42631 30.6822L3.9476 33.268C2.99102 33.8202 2.66326 35.0434 3.21555 36C3.76783 36.9566 4.99102 37.2843 5.9476 36.7321L10.4263 34.1463L9.47985 37.6785C9.19396 38.7455 9.82713 39.8421 10.8941 40.128C11.961 40.4139 13.0577 39.7807 13.3436 38.7138L15.3253 31.3178L22.0001 27.4641V24.8284L30.9532 33.7815C28.9916 35.1784 26.5918 36 24.0001 36V40C27.6975 40 31.102 38.7458 33.8114 36.6397L38.1428 40.9711Z" fill="white" />
<path d="M40.0001 24C40.0001 25.8975 39.6698 27.7178 39.0636 29.4066L35.8079 26.1509C35.9342 25.4531 36.0001 24.7342 36.0001 24C36.0001 17.3726 30.6275 12 24.0001 12V8C32.8367 8 40.0001 15.1634 40.0001 24Z" fill="white" />
<path d="M16.0362 6.37926L22.0001 12.3431V7.17155L19.4144 4.58579C18.6333 3.80474 17.367 3.80474 16.5859 4.58579C16.0985 5.07324 15.9152 5.7497 16.0362 6.37926Z" fill="white" />
<path d="M24.0001 44C22.8956 44 22.0001 44.8954 22.0001 46C22.0001 47.1046 22.8956 48 24.0001 48C25.1047 48 26.0001 47.1046 26.0001 46C26.0001 44.8954 25.1047 44 24.0001 44Z" fill="white" />
<path d="M22.0001 35.1716V40.8285L19.4144 43.4142C18.6333 44.1953 17.367 44.1953 16.5859 43.4142C15.8049 42.6332 15.8049 41.3668 16.5859 40.5858L22.0001 35.1716Z" fill="white" />
</svg>