<?xml version="1.0" encoding="UTF-8" standalone="no"?>
<!-- Created with Inkscape (http://www.inkscape.org/) -->

<svg
   xmlns:dc="http://purl.org/dc/elements/1.1/"
   xmlns:cc="http://creativecommons.org/ns#"
   xmlns:rdf="http://www.w3.org/1999/02/22-rdf-syntax-ns#"
   xmlns:svg="http://www.w3.org/2000/svg"
   xmlns="http://www.w3.org/2000/svg"
   xmlns:sodipodi="http://sodipodi.sourceforge.net/DTD/sodipodi-0.dtd"
   xmlns:inkscape="http://www.inkscape.org/namespaces/inkscape"
   version="1.0"
   width="580"
   height="580"
   id="svg2"
   sodipodi:version="0.32"
   inkscape:version="0.91 r"
   sodipodi:docname="shoes_children.svg"
   inkscape:output_extension="org.inkscape.output.svg.inkscape">
  <metadata
     id="metadata1976">
    <rdf:RDF>
      <cc:Work
         rdf:about="">
        <dc:format>image/svg+xml</dc:format>
        <dc:type
           rdf:resource="http://purl.org/dc/dcmitype/StillImage" />
        <cc:license
           rdf:resource="http://web.resource.org/cc/PublicDomain" />
        <dc:language>en</dc:language>
        <dc:title />
      </cc:Work>
    </rdf:RDF>
  </metadata>
  <sodipodi:namedview
     inkscape:window-height="1004"
     inkscape:window-width="1920"
     inkscape:pageshadow="2"
     inkscape:pageopacity="0.0"
     guidetolerance="10.0"
     gridtolerance="10.0"
     objecttolerance="10.0"
     borderopacity="1.0"
     bordercolor="#666666"
     pagecolor="#ffffff"
     id="base"
     inkscape:zoom="0.46083856"
     inkscape:cx="574.84357"
     inkscape:cy="484.16966"
     inkscape:window-x="1680"
     inkscape:window-y="0"
     inkscape:current-layer="svg2"
     showgrid="false"
     inkscape:window-maximized="1" />
  <defs
     id="defs4">
    <inkscape:perspective
       sodipodi:type="inkscape:persp3d"
       inkscape:vp_x="0 : 290 : 1"
       inkscape:vp_y="0 : 1000 : 0"
       inkscape:vp_z="580 : 290 : 1"
       inkscape:persp3d-origin="290 : 193.33333 : 1"
       id="perspective3653" />
    <marker
       viewBox="0 0 10 10"
       refY="5"
       refX="10"
       orient="auto"
       markerWidth="4"
       markerUnits="strokeWidth"
       markerHeight="3"
       id="ArrowStart">
      <path
         id="path2111"
         d="M 10 0 L 0 5 L 10 10 z" />
    </marker>
    <marker
       viewBox="0 0 10 10"
       refY="5"
       refX="0"
       orient="auto"
       markerWidth="4"
       markerUnits="strokeWidth"
       markerHeight="3"
       id="ArrowEnd">
      <path
         id="path2108"
         d="M 0 0 L 10 5 L 0 10 z" />
    </marker>
    <inkscape:perspective
       id="perspective2512"
       inkscape:persp3d-origin="177.51199 : 145.02 : 1"
       inkscape:vp_z="355.02399 : 217.53 : 1"
       inkscape:vp_y="0 : 1000 : 0"
       inkscape:vp_x="0 : 217.53 : 1"
       sodipodi:type="inkscape:persp3d" />
  </defs>
  <g
     id="g1327">
    <path
       d="M 66.275,1.768 C 24.94,1.768 1.704,23.139 1.704,66.804 L 1.704,516.927 C 1.704,557.771 22.6,579.156 63.896,579.156 L 515.92,579.156 C 557.227,579.156 578.149,558.842 578.149,516.927 L 578.149,66.804 C 578.149,24.203 557.227,1.768 514.628,1.768 C 514.624,1.768 66.133,1.625 66.275,1.768 z "
       style="fill:#111;stroke:#eee;stroke-width:3.40799999"
       id="path1329" />
  </g>
  <g
     id="g2117"
     transform="matrix(1.1975036,0,0,1.1975036,80.128205,34.575832)"
     style="fill:#000000">
    <g
       id="g2119"
       style="fill:#000000">
      <g
         id="g2121"
         style="fill:#000000">
        <path
           id="path2125"
           style="fill:#000000;stroke:none"
           d="" />
      </g>
      <g
         id="g2127"
         style="fill:#000000">
        <path
           id="path2131"
           style="fill:#000000;stroke:none"
           d="" />
      </g>
    </g>
  </g>
  <path
     inkscape:connector-curvature="0"
     d="m 240.15827,397.19124 c 47.66741,0 50.53108,-5.69431 66.66469,-16.76883 16.1336,-11.07453 10.23821,-7.13517 19.77058,-14.75239 9.53236,-7.61723 25.28025,-21.01381 61.66774,-21.58363 l 12.97036,-0.20804 70.49564,0.42511 0.0543,0 c 4.10639,0 7.69722,-2.76773 8.74634,-6.72937 0.31663,-1.21201 7.85102,-21.00217 9.03585,-55.96057 0.7869,-22.92874 0.23518,-48.95986 -9.75946,-68.11687 -1.56468,-2.99386 -4.64899,-4.86614 -8.02273,-4.86614 -15.65657,22.31385 -33.94613,24.5615 -56.16187,24.40991 -29.49529,0 -42.16295,-18.8279 -50.85506,-38.17486 -1.48336,-3.30139 -2.16173,-4.81187 -3.50942,-6.26808 -3.54557,-3.83502 -7.45297,-5.78872 -11.64073,-5.78872 -5.09225,0 -8.88206,2.93054 -11.05282,6.03293 -8.52028,7.51627 -46.68138,36.87931 -81.83876,54.44443 -50.00396,-12.61412 -96.0009,-7.01718 -111.16009,-3.39923 -52.81349,13.48388 -55.365692,81.33737 -55.365692,81.33737 0,0 -0.860549,30.74534 14.288212,48.83239 17.34367,20.70769 38.98328,27.13459 110.59252,27.13459 z"
     id="path3"
     style="color:#000000;display:inline;overflow:visible;visibility:visible;fill:#ffffff;fill-opacity:1;fill-rule:nonzero;stroke:none;stroke-width:15;marker:none;enable-background:accumulate"
     sodipodi:nodetypes="czzcccscccccccsccccscc" />
  <path
     inkscape:connector-curvature="0"
     d="m 389.24737,369.84861 12.57235,-0.20804 70.65849,0.41608 c 3.15665,0 6.19576,-0.56982 9.04489,-1.58286 l 0,19.67259 c 0,5.00181 -4.05214,9.04486 -9.04489,9.04486 l -99.4935,0 c -4.99275,0 -9.04486,-4.04305 -9.04486,-9.04486 l 0,-15.92801 c 6.78365,-1.30246 14.96925,-2.21599 25.30752,-2.36976 z"
     id="path5"
     style="color:#000000;display:inline;overflow:visible;visibility:visible;fill:#ffffff;fill-opacity:1;fill-rule:nonzero;stroke:none;stroke-width:15;marker:none;enable-background:accumulate" />
  <path
     style="fill:none;fill-rule:evenodd;stroke:#ffffff;stroke-width:20;stroke-linecap:butt;stroke-linejoin:miter;stroke-miterlimit:4;stroke-dasharray:none;stroke-opacity:1"
     d="m 298.62152,220.56787 c 0,0 -58.59372,-79.17754 -85.22286,-41.6301 -26.62914,37.54745 85.22286,41.6301 85.22286,41.6301 z"
     id="path4185"
     inkscape:connector-curvature="0"
     sodipodi:nodetypes="csc" />
  <path
     style="fill:none;fill-rule:evenodd;stroke:#ffffff;stroke-width:20;stroke-linecap:butt;stroke-linejoin:miter;stroke-miterlimit:4;stroke-dasharray:none;stroke-opacity:1"
     d="m 300.5027,225.36271 c 0,0 40.76851,-89.66736 -4.98552,-94.71613 -45.75403,-5.04877 4.98552,94.71613 4.98552,94.71613 z"
     id="path4185-9"
     inkscape:connector-curvature="0"
     sodipodi:nodetypes="csc" />
</svg>
