<svg width="12" height="12" viewBox="0 0 12 12" fill="none" xmlns="http://www.w3.org/2000/svg">
<path fill-rule="evenodd" clip-rule="evenodd" d="M8.09977 4.6693C8.128 4.4951 8.15103 4.29153 8.15421 4.07766C8.15886 3.76542 8.12381 3.32703 7.90888 2.91886C7.66326 2.45239 7.2201 2.10285 6.60924 2.01585C6.36782 1.98146 5.96229 1.96897 5.59435 2.22757C5.37182 2.38397 5.24097 2.58176 5.16677 2.77458C5.06789 2.69212 4.95438 2.61645 4.82736 2.56558C4.61221 2.47942 4.34386 2.4621 4.08955 2.6132C3.86286 2.74789 3.7225 2.97369 3.62927 3.20066C3.42406 3.70022 3.46834 4.16353 3.72675 4.53829C3.95982 4.87631 4.32458 5.07893 4.6364 5.2038C4.83563 5.28359 5.03914 5.34176 5.22321 5.38414L5.16729 5.4105C3.91601 5.1163 2.76501 5.24684 2.38567 5.33122C1.06409 5.6457 1.00022 7.22823 1.00022 7.22823C1.00022 7.22823 0.97869 7.9453 1.35777 8.36714C1.79177 8.8501 2.33327 9 4.12518 9H4.75278C5.82936 9 5.99264 8.89181 6.31107 8.68082C6.34545 8.65805 6.38163 8.63407 6.42097 8.6089C6.70773 8.42544 6.71638 8.41864 6.7828 8.36644C6.80989 8.34515 6.84661 8.31629 6.9157 8.26483L6.93498 8.25044C7.17547 8.07084 7.57241 7.77438 8.45885 7.76144L8.78341 7.75659L10.5475 7.76651H10.5488C10.6516 7.76651 10.7414 7.70195 10.7677 7.60956C10.7683 7.6072 10.7703 7.60182 10.7732 7.59348C10.806 7.5018 10.9666 7.05169 10.9938 6.3044C11.0135 5.76964 10.9997 5.16252 10.7496 4.71572C10.7104 4.6459 10.6332 4.60223 10.5488 4.60223C10.157 5.12265 9.69937 5.17508 9.14345 5.17154C8.62486 5.17154 8.31415 4.95475 8.09977 4.6693ZM7.14909 4.193C7.16562 3.9359 7.14827 3.66093 7.0504 3.43934C6.95249 3.21767 6.774 3.0494 6.46823 3.00585C5.89683 2.92447 6.04645 3.44462 6.33034 3.97399L6.34279 3.99705C6.445 4.1852 6.56309 4.37342 6.67073 4.53516C6.87923 4.39367 7.0469 4.27172 7.14909 4.193ZM7.07305 3.1893C7.07313 3.18966 7.07324 3.19013 7.07338 3.1907L7.07285 3.18828C7.07283 3.18827 7.07289 3.18861 7.07305 3.1893ZM5.0911 4.30686C5.01746 4.1794 4.9388 4.05223 4.85785 3.93483C4.76669 3.80262 4.67933 3.69266 4.59994 3.61141C4.58497 3.59608 4.57109 3.58263 4.55834 3.57084L4.55427 3.58063C4.46135 3.80683 4.50653 3.90757 4.55002 3.97064C4.61884 4.07046 4.7684 4.17946 5.00817 4.27548C5.03549 4.28642 5.06318 4.29687 5.0911 4.30686Z" fill="white"/>
<path d="M8.96646 8.04063L8.64569 8.04787C8.38192 8.05323 8.17308 8.08504 8 8.13039V8.68504C8 8.85921 8.10338 9 8.23077 9H10.7692C10.8966 9 11 8.85921 11 8.68504V8C10.9273 8.03527 10.8498 8.05511 10.7692 8.05511L8.96646 8.04063Z" fill="white"/>
</svg>
