<svg width="12" height="12" viewBox="0 0 12 12" fill="none" xmlns="http://www.w3.org/2000/svg">
<path opacity="0.75" fill-rule="evenodd" clip-rule="evenodd" d="M6.5 4C6.5 3.72386 6.72386 3.5 7 3.5H8.09986L9.77136 4.58004L9.22864 5.41996L7.8049 4.5H7C6.72386 4.5 6.5 4.27614 6.5 4Z" fill="white"/>
<path fill-rule="evenodd" clip-rule="evenodd" d="M7.5 2.5C7.22386 2.5 7 2.72386 7 3C7 3.27614 7.22386 3.5 7.5 3.5H8.25L9.21429 4.78571L9 5H5L4 4H3C1.89543 4 1 4.89543 1 6V7H1.08535C1.03008 7.15639 1 7.32468 1 7.5C1 8.32843 1.67157 9 2.5 9H4.26087C5.22136 9 6 8.22136 6 7.26087V7H8.23763L8.9281 8H7.5C7.22386 8 7 8.22386 7 8.5C7 8.77614 7.22386 9 7.5 9H10.0229L11.7627 7.9254C11.9977 7.78029 12.0705 7.4722 11.9254 7.23725C11.7803 7.00231 11.4722 6.92949 11.2373 7.0746L10.0224 7.82493L9.45285 7H9.5C10.3284 7 11 6.32843 11 5.5V5.43875C11 4.86342 10.6749 4.33747 10.1604 4.08018C10.0716 4.0358 9.97516 4.00932 9.87654 4.00205L8.75 2.5H7.5ZM2.5 7H5V7.26087C5 7.66908 4.66908 8 4.26087 8H2.5C2.22386 8 2 7.77614 2 7.5C2 7.22386 2.22386 7 2.5 7Z" fill="white"/>
</svg>
