<?xml version="1.0" encoding="UTF-8" standalone="no"?>
<!-- Created with Inkscape (http://www.inkscape.org/) -->

<svg
   xmlns:dc="http://purl.org/dc/elements/1.1/"
   xmlns:cc="http://creativecommons.org/ns#"
   xmlns:rdf="http://www.w3.org/1999/02/22-rdf-syntax-ns#"
   xmlns:svg="http://www.w3.org/2000/svg"
   xmlns="http://www.w3.org/2000/svg"
   xmlns:sodipodi="http://sodipodi.sourceforge.net/DTD/sodipodi-0.dtd"
   xmlns:inkscape="http://www.inkscape.org/namespaces/inkscape"
   version="1.0"
   width="580"
   height="580"
   id="svg2"
   sodipodi:version="0.32"
   inkscape:version="0.91 r"
   sodipodi:docname="tram.svg"
   inkscape:output_extension="org.inkscape.output.svg.inkscape">
  <metadata
     id="metadata1976">
    <rdf:RDF>
      <cc:Work
         rdf:about="">
        <dc:format>image/svg+xml</dc:format>
        <dc:type
           rdf:resource="http://purl.org/dc/dcmitype/StillImage" />
        <cc:license
           rdf:resource="http://web.resource.org/cc/PublicDomain" />
        <dc:language>en</dc:language>
        <dc:title />
      </cc:Work>
    </rdf:RDF>
  </metadata>
  <sodipodi:namedview
     inkscape:window-height="1004"
     inkscape:window-width="1920"
     inkscape:pageshadow="2"
     inkscape:pageopacity="0.0"
     guidetolerance="10.0"
     gridtolerance="10.0"
     objecttolerance="10.0"
     borderopacity="1.0"
     bordercolor="#666666"
     pagecolor="#ffffff"
     id="base"
     inkscape:zoom="0.46083856"
     inkscape:cx="306.58489"
     inkscape:cy="402.53585"
     inkscape:window-x="1680"
     inkscape:window-y="0"
     inkscape:current-layer="svg2"
     showgrid="false"
     inkscape:window-maximized="1" />
  <defs
     id="defs4">
    <inkscape:perspective
       sodipodi:type="inkscape:persp3d"
       inkscape:vp_x="0 : 290 : 1"
       inkscape:vp_y="0 : 1000 : 0"
       inkscape:vp_z="580 : 290 : 1"
       inkscape:persp3d-origin="290 : 193.33333 : 1"
       id="perspective3653" />
    <marker
       viewBox="0 0 10 10"
       refY="5"
       refX="10"
       orient="auto"
       markerWidth="4"
       markerUnits="strokeWidth"
       markerHeight="3"
       id="ArrowStart">
      <path
         id="path2111"
         d="M 10 0 L 0 5 L 10 10 z" />
    </marker>
    <marker
       viewBox="0 0 10 10"
       refY="5"
       refX="0"
       orient="auto"
       markerWidth="4"
       markerUnits="strokeWidth"
       markerHeight="3"
       id="ArrowEnd">
      <path
         id="path2108"
         d="M 0 0 L 10 5 L 0 10 z" />
    </marker>
    <inkscape:perspective
       id="perspective2512"
       inkscape:persp3d-origin="177.51199 : 145.02 : 1"
       inkscape:vp_z="355.02399 : 217.53 : 1"
       inkscape:vp_y="0 : 1000 : 0"
       inkscape:vp_x="0 : 217.53 : 1"
       sodipodi:type="inkscape:persp3d" />
  </defs>
  <g
     id="g1327">
    <path
       d="M 66.275,1.768 C 24.94,1.768 1.704,23.139 1.704,66.804 L 1.704,516.927 C 1.704,557.771 22.6,579.156 63.896,579.156 L 515.92,579.156 C 557.227,579.156 578.149,558.842 578.149,516.927 L 578.149,66.804 C 578.149,24.203 557.227,1.768 514.628,1.768 C 514.624,1.768 66.133,1.625 66.275,1.768 z "
       style="fill:#111;stroke:#eee;stroke-width:3.40799999"
       id="path1329" />
  </g>
  <g
     id="g2117"
     transform="matrix(1.1975036,0,0,1.1975036,80.128205,34.575832)"
     style="fill:#000000">
    <g
       id="g2119"
       style="fill:#000000">
      <g
         id="g2121"
         style="fill:#000000">
        <path
           id="path2125"
           style="fill:#000000;stroke:none"
           d="" />
      </g>
      <g
         id="g2127"
         style="fill:#000000">
        <path
           id="path2131"
           style="fill:#000000;stroke:none"
           d="" />
      </g>
    </g>
  </g>
  <path
     inkscape:connector-curvature="0"
     style="color:#000000;line-height:normal;font-family:'Bitstream Vera Sans';-inkscape-font-specification:'Bitstream Vera Sans';text-indent:0;text-align:start;text-transform:none;block-progression:tb;overflow:visible;fill:#ffffff;fill-opacity:1;stroke:none;enable-background:accumulate"
     d="m 290.00213,23.80617 c -47.60725,0 -72.88043,5.205492 -88.6214,12.201496 -7.87048,3.498002 -13.5267,7.760666 -17.33896,12.84368 -1.90613,2.54161 -3.04438,5.190081 -3.85311,7.706209 -0.80875,2.516128 -1.28437,6.42184 -1.28437,6.42184 a 18.496749,18.496749 0 0 0 35.96231,7.064024 c 0.20262,-0.164399 -0.23587,0.318523 1.92655,-0.641156 0.68791,-0.306194 2.27839,-0.310304 3.21092,-0.641157 l 8.99058,28.2561 a 10.275972,10.275972 0 1 0 19.26552,-6.421848 l -8.34839,-26.32954 c 11.73401,-1.639882 27.9917,-3.21092 50.09035,-3.21092 22.09866,0 38.35635,1.572066 50.09035,3.21092 l -8.34839,26.32954 a 10.275972,10.275972 0 1 0 19.26552,6.421848 l 8.99058,-28.2561 c 0.93255,0.330853 2.52301,0.337018 3.21092,0.641157 2.16243,0.961734 1.72393,0.482922 1.92655,0.641156 a 18.496749,18.496749 0 0 0 35.9623,-7.064024 c 0,0 -0.47551,-3.905712 -1.28436,-6.42184 -0.80884,-2.516128 -1.9469,-5.164599 -3.8531,-7.706209 -3.81225,-5.083014 -9.46849,-9.345678 -17.33897,-12.84368 C 362.88256,29.011662 337.60938,23.80617 290.00213,23.80617 Z m 0,100.82289 c -102.74944,0 -164.39911,67.81463 -164.39911,102.74945 l 0,205.49888 c 0,25.13847 13.90317,46.13532 34.67793,55.87 l -37.24666,30.82484 a 20.559921,20.559921 0 1 0 25.68735,32.1092 l 61.64968,-51.37472 a 20.551944,20.551944 0 0 0 5.13746,-5.77966 l 148.9867,0 a 20.551944,20.551944 0 0 0 5.13747,5.77966 l 61.64967,51.37472 a 20.559921,20.559921 0 1 0 25.68736,-32.1092 L 419.7233,488.74739 c 20.77477,-9.73468 34.67794,-30.73153 34.67794,-55.87 l 0,-205.49888 c 0,-34.93482 -61.64966,-102.74945 -164.39911,-102.74945 z m -20.54989,20.54989 41.09978,0 c 12.32993,0 41.09978,8.21995 41.09978,20.54989 0,12.32993 -8.21996,20.54988 -20.54989,20.54988 l -82.19956,0 c -12.32992,0 -20.54988,-8.21995 -20.54988,-20.54988 0,-12.32994 28.76984,-20.54989 41.09977,-20.54989 z m 30.82484,61.64966 c 82.19955,0 113.02438,8.21996 113.02438,20.5499 l 0,82.19955 c 0,12.32993 -8.21995,20.54989 -20.54988,20.54989 l -205.49889,0 c -12.32994,0 -20.5499,-8.21996 -20.5499,-20.54989 l 0,-82.19955 c 0,-12.32994 51.37473,-20.5499 133.57429,-20.5499 z m -82.19956,183.02245 c 18.49491,0 32.75138,14.25648 32.75138,32.75138 0,18.4949 -14.25647,32.75139 -32.75138,32.75139 -18.4949,0 -32.75139,-14.25649 -32.75139,-32.75139 0,-18.4949 14.25649,-32.75138 32.75139,-32.75138 z m 143.84922,0 c 18.4949,0 32.75138,14.25648 32.75138,32.75138 0,18.4949 -14.25648,32.75139 -32.75138,32.75139 -18.4949,0 -32.75138,-14.25649 -32.75138,-32.75139 0,-18.4949 14.25648,-32.75138 32.75138,-32.75138 z"
     overflow="visible"
     id="path4" />
</svg>
