<?xml version="1.0" encoding="UTF-8" standalone="no"?>
<!-- Created with Inkscape (http://www.inkscape.org/) -->

<svg
   xmlns:dc="http://purl.org/dc/elements/1.1/"
   xmlns:cc="http://creativecommons.org/ns#"
   xmlns:rdf="http://www.w3.org/1999/02/22-rdf-syntax-ns#"
   xmlns:svg="http://www.w3.org/2000/svg"
   xmlns="http://www.w3.org/2000/svg"
   xmlns:sodipodi="http://sodipodi.sourceforge.net/DTD/sodipodi-0.dtd"
   xmlns:inkscape="http://www.inkscape.org/namespaces/inkscape"
   version="1.0"
   width="580"
   height="580"
   id="svg2"
   sodipodi:version="0.32"
   inkscape:version="0.91 r"
   sodipodi:docname="vending_stamps.svg"
   inkscape:output_extension="org.inkscape.output.svg.inkscape">
  <metadata
     id="metadata10">
    <rdf:RDF>
      <cc:Work
         rdf:about="">
        <dc:format>image/svg+xml</dc:format>
        <dc:type
           rdf:resource="http://purl.org/dc/dcmitype/StillImage" />
        <cc:license
           rdf:resource="http://web.resource.org/cc/PublicDomain" />
        <dc:language>en</dc:language>
      </cc:Work>
    </rdf:RDF>
  </metadata>
  <sodipodi:namedview
     inkscape:window-height="1004"
     inkscape:window-width="1920"
     inkscape:pageshadow="2"
     inkscape:pageopacity="0.0"
     guidetolerance="10.0"
     gridtolerance="10.0"
     objecttolerance="10.0"
     borderopacity="1.0"
     bordercolor="#666666"
     pagecolor="#ffffff"
     id="base"
     showgrid="false"
     inkscape:zoom="0.5"
     inkscape:cx="686.37458"
     inkscape:cy="383.03961"
     inkscape:window-x="1680"
     inkscape:window-y="0"
     inkscape:current-layer="svg2"
     inkscape:window-maximized="1" />
  <defs
     id="defs4">
    <inkscape:perspective
       sodipodi:type="inkscape:persp3d"
       inkscape:vp_x="0 : 290 : 1"
       inkscape:vp_y="0 : 1000 : 0"
       inkscape:vp_z="580 : 290 : 1"
       inkscape:persp3d-origin="290 : 193.33333 : 1"
       id="perspective12" />
    <style
       type="text/css"
       id="style6">
   
    .fil0 {fill:#EF7900}
   
  </style>
    <inkscape:perspective
       id="perspective6807"
       inkscape:persp3d-origin="29.116032 : 19.410688 : 1"
       inkscape:vp_z="58.232063 : 29.116032 : 1"
       inkscape:vp_y="0 : 1000 : 0"
       inkscape:vp_x="0 : 29.116032 : 1"
       sodipodi:type="inkscape:persp3d" />
    <inkscape:perspective
       id="perspective6954"
       inkscape:persp3d-origin="290 : 193.33333 : 1"
       inkscape:vp_z="580 : 290 : 1"
       inkscape:vp_y="0 : 1000 : 0"
       inkscape:vp_x="0 : 290 : 1"
       sodipodi:type="inkscape:persp3d" />
    <marker
       viewBox="0 0 10 10"
       refY="5"
       refX="10"
       orient="auto"
       markerWidth="4"
       markerUnits="strokeWidth"
       markerHeight="3"
       id="ArrowStart">
      <path
         id="path2295"
         d="M 10 0 L 0 5 L 10 10 z" />
    </marker>
    <marker
       viewBox="0 0 10 10"
       refY="5"
       refX="0"
       orient="auto"
       markerWidth="4"
       markerUnits="strokeWidth"
       markerHeight="3"
       id="ArrowEnd">
      <path
         id="path2292"
         d="M 0 0 L 10 5 L 0 10 z" />
    </marker>
    <inkscape:perspective
       id="perspective7597"
       inkscape:persp3d-origin="178.5405 : 158.483 : 1"
       inkscape:vp_z="357.08099 : 237.7245 : 1"
       inkscape:vp_y="0 : 1000 : 0"
       inkscape:vp_x="0 : 237.7245 : 1"
       sodipodi:type="inkscape:persp3d" />
  </defs>
  <g
     id="g1327">
    <path
       d="M 66.275,1.768 C 24.94,1.768 1.704,23.139 1.704,66.804 L 1.704,516.927 C 1.704,557.771 22.598,579.156 63.896,579.156 L 515.92,579.156 C 557.227,579.156 578.149,558.84 578.149,516.927 L 578.149,66.804 C 578.149,24.203 557.227,1.768 514.627,1.768 C 514.624,1.768 66.133,1.625 66.275,1.768 z"
       style="fill:#111111;stroke:#eeeeee;stroke-width:3.40799999"
       id="path1329" />
  </g>
  <g
     id="g2319"
     transform="translate(879.29125,36.805119)">
    <path
       id="path2323"
       style="fill:#ffffff;stroke:none"
       d="" />
  </g>
  <g
     id="g2325"
     transform="translate(879.29125,36.805119)">
    <path
       id="path2329"
       style="fill:#ffffff;stroke:none"
       d="" />
  </g>
  <path
     style="fill:#ffffff"
     inkscape:connector-curvature="0"
     d="m 497.08641,161.89153 5.0945,-15.03561 -21.8999,-7.42209 c -5.14134,6.78304 -14.21614,9.86261 -22.71938,6.97999 -8.50462,-2.88124 -13.83877,-10.84322 -13.79608,-19.35472 l -16.81228,-5.69775 c -5.13996,6.78303 -14.21614,9.8626 -22.71938,6.97998 -8.50462,-2.88261 -13.83739,-10.84459 -13.79608,-19.35472 l -16.8109,-5.69775 c -5.14134,6.78304 -14.21614,9.86261 -22.72076,6.97999 -8.50324,-2.88124 -13.83602,-10.843216 -13.7947,-19.35472 l -16.81091,-5.696372 c -5.14133,6.783035 -14.21614,9.862602 -22.72075,6.979984 -8.50324,-2.881241 -13.8374,-10.844593 -13.7947,-19.354719 l -16.81229,-5.69775 c -5.13995,6.783035 -14.21614,9.862602 -22.72075,6.979984 -8.50324,-2.88124 -13.83602,-10.843215 -13.7947,-19.354719 l -21.90128,-7.422086 -5.09451,15.035613 c 5.46499,5.29421 7.73748,13.440739 5.13445,21.125883 -2.60579,7.686522 -9.36266,12.771388 -16.91972,13.652838 l -6.28584,18.546264 c 5.46637,5.29559 7.73886,13.44074 5.13445,21.12726 -2.60579,7.68652 -9.36128,12.77139 -16.91971,13.65422 l -6.28584,18.54626 c 5.46636,5.29421 7.73885,13.43936 5.13444,21.12588 -2.60441,7.68515 -9.36127,12.77139 -16.91971,13.65284 l -6.28446,18.54764 c 5.46499,5.29421 7.73748,13.44074 5.13307,21.12726 -2.60441,7.68515 -9.36128,12.77001 -16.91972,13.65146 l -6.28584,18.54764 c 5.46499,5.29559 7.73886,13.44074 5.13445,21.12726 -2.60579,7.68515 -9.36128,12.77001 -16.92109,13.65284 l -6.28447,18.54764 c 5.465,5.29421 7.73886,13.43936 5.13445,21.12589 -2.60579,7.68652 -9.36265,12.77138 -16.92109,13.65283 l -6.284463,18.54765 c 5.464993,5.29421 7.737483,13.44073 5.133073,21.12726 -2.60579,7.68652 -9.36128,12.77001 -16.919716,13.65146 l -5.429182,16.02173 23.361188,7.91653 c 5.2887,-4.75983 12.91875,-6.6095 20.13838,-4.1621 7.21963,2.44602 12.153,8.55282 13.45727,15.54795 l 19.73071,6.68663 c 5.2887,-4.75983 12.91875,-6.61088 20.13838,-4.1621 7.21825,2.44603 12.153,8.55283 13.45727,15.54796 l 19.73071,6.68525 c 5.2887,-4.75983 12.91876,-6.6095 20.13839,-4.1621 7.21825,2.44603 12.15299,8.5542 13.45726,15.54796 l 19.73071,6.68662 c 5.28871,-4.75983 12.91876,-6.6095 20.13701,-4.16209 7.21963,2.44602 12.153,8.55419 13.45727,15.54795 l 19.73209,6.68663 c 5.2887,-4.75983 12.91737,-6.61088 20.137,-4.1621 7.21825,2.44602 12.153,8.55282 13.45727,15.54796 l 23.36118,7.91652 5.42919,-16.02036 c -5.46637,-5.29559 -7.73886,-13.44074 -5.13445,-21.12588 2.60579,-7.68652 9.36128,-12.77277 16.91971,-13.65422 l 6.28447,-18.54764 c -5.46499,-5.29421 -7.73748,-13.44074 -5.13307,-21.12588 2.60578,-7.68652 9.36127,-12.77139 16.91833,-13.65284 l 6.28584,-18.54764 c -5.46499,-5.29559 -7.73748,-13.44074 -5.13307,-21.12726 2.60441,-7.68514 9.3599,-12.77001 16.91834,-13.65284 l 6.28584,-18.54764 c -5.46637,-5.29421 -7.73886,-13.43936 -5.13445,-21.12588 2.60579,-7.68515 9.36128,-12.77139 16.91972,-13.65284 l 6.28446,-18.54764 c -5.46499,-5.29421 -7.73748,-13.44074 -5.13307,-21.12726 2.60579,-7.68515 9.36128,-12.77001 16.91971,-13.65146 l 6.28447,-18.54764 c -5.46499,-5.29559 -7.73748,-13.44074 -5.13307,-21.12726 2.60441,-7.68515 9.36128,-12.77139 16.91833,-13.65284 l 6.28585,-18.54764 c -5.46637,-5.29421 -7.73748,-13.43936 -5.13445,-21.12589 2.61129,-7.68514 9.36816,-12.77138 16.9266,-13.65146 z M 354.58345,498.51876 111.94637,416.28909 225.41105,81.479858 468.04951,163.70952 354.58345,498.51876 Z"
     id="path46" />
  <rect
     style="fill:#ffffff"
     x="-468.49551"
     y="-328.63605"
     transform="matrix(-0.94708134,-0.32099368,0.32099368,-0.94708134,0,0)"
     width="201.06267"
     height="295.08981"
     id="rect48" />
</svg>
