<svg width="12" height="12" viewBox="0 0 12 12" fill="none" xmlns="http://www.w3.org/2000/svg">
<path fill-rule="evenodd" clip-rule="evenodd" d="M9 4C9 5.4865 7.91886 6.72048 6.5 6.95852V10.5C6.5 10.7761 6.27614 11 6 11C5.72386 11 5.5 10.7761 5.5 10.5V6.95852C4.08114 6.72048 3 5.4865 3 4C3 2.34315 4.34315 1 6 1C7.65685 1 9 2.34315 9 4ZM4 4C4 4.27278 4.05461 4.53281 4.1535 4.76975L4.37983 4.43026C4.73412 3.89881 5.42871 3.71436 6 4L5.43026 4.37983C5.00049 4.66634 4.79763 5.1754 4.88681 5.66182C5.20502 5.8754 5.58796 6 6 6C6.27278 6 6.53281 5.94539 6.76975 5.8465L6.43026 5.62017C5.89881 5.26588 5.71436 4.57129 6 4L6.37983 4.56974C6.66634 4.99951 7.1754 5.20236 7.66182 5.11319C7.8754 4.79498 8 4.41204 8 4C8 3.72722 7.94539 3.46719 7.8465 3.23025L7.62017 3.56974C7.26588 4.10119 6.57129 4.28564 6 4L6.56974 3.62017C6.99951 3.33366 7.20236 2.8246 7.11319 2.33818C6.79498 2.1246 6.41204 2 6 2C5.72722 2 5.46719 2.05461 5.23025 2.1535L5.56974 2.37983C6.10119 2.73412 6.28564 3.42871 6 4L5.62017 3.43026C5.33366 3.00049 4.8246 2.79763 4.33818 2.88681C4.1246 3.20502 4 3.58796 4 4Z" fill="white"/>
</svg>
