<?xml version="1.0" encoding="UTF-8" standalone="no"?>
<!-- Created with Inkscape (http://www.inkscape.org/) -->

<svg
   xmlns:dc="http://purl.org/dc/elements/1.1/"
   xmlns:cc="http://creativecommons.org/ns#"
   xmlns:rdf="http://www.w3.org/1999/02/22-rdf-syntax-ns#"
   xmlns:svg="http://www.w3.org/2000/svg"
   xmlns="http://www.w3.org/2000/svg"
   xmlns:sodipodi="http://sodipodi.sourceforge.net/DTD/sodipodi-0.dtd"
   xmlns:inkscape="http://www.inkscape.org/namespaces/inkscape"
   version="1.0"
   width="580"
   height="580"
   id="svg2"
   sodipodi:version="0.32"
   inkscape:version="0.91 r"
   sodipodi:docname="vending_parking_tickets.svg"
   inkscape:output_extension="org.inkscape.output.svg.inkscape">
  <metadata
     id="metadata10">
    <rdf:RDF>
      <cc:Work
         rdf:about="">
        <dc:format>image/svg+xml</dc:format>
        <dc:type
           rdf:resource="http://purl.org/dc/dcmitype/StillImage" />
        <cc:license
           rdf:resource="http://web.resource.org/cc/PublicDomain" />
        <dc:language>en</dc:language>
      </cc:Work>
    </rdf:RDF>
  </metadata>
  <sodipodi:namedview
     inkscape:window-height="1005"
     inkscape:window-width="1280"
     inkscape:pageshadow="2"
     inkscape:pageopacity="0.0"
     guidetolerance="10.0"
     gridtolerance="10.0"
     objecttolerance="10.0"
     borderopacity="1.0"
     bordercolor="#666666"
     pagecolor="#ffffff"
     id="base"
     showgrid="false"
     inkscape:zoom="0.70710678"
     inkscape:cx="282.26827"
     inkscape:cy="253.23493"
     inkscape:window-x="112"
     inkscape:window-y="10"
     inkscape:current-layer="svg2"
     inkscape:window-maximized="0" />
  <defs
     id="defs4">
    <inkscape:perspective
       sodipodi:type="inkscape:persp3d"
       inkscape:vp_x="0 : 290 : 1"
       inkscape:vp_y="0 : 1000 : 0"
       inkscape:vp_z="580 : 290 : 1"
       inkscape:persp3d-origin="290 : 193.33333 : 1"
       id="perspective12" />
    <style
       type="text/css"
       id="style6">
   
    .fil0 {fill:#EF7900}
   
  </style>
    <inkscape:perspective
       id="perspective6807"
       inkscape:persp3d-origin="29.116032 : 19.410688 : 1"
       inkscape:vp_z="58.232063 : 29.116032 : 1"
       inkscape:vp_y="0 : 1000 : 0"
       inkscape:vp_x="0 : 29.116032 : 1"
       sodipodi:type="inkscape:persp3d" />
    <inkscape:perspective
       id="perspective6954"
       inkscape:persp3d-origin="290 : 193.33333 : 1"
       inkscape:vp_z="580 : 290 : 1"
       inkscape:vp_y="0 : 1000 : 0"
       inkscape:vp_x="0 : 290 : 1"
       sodipodi:type="inkscape:persp3d" />
    <marker
       viewBox="0 0 10 10"
       refY="5"
       refX="10"
       orient="auto"
       markerWidth="4"
       markerUnits="strokeWidth"
       markerHeight="3"
       id="ArrowStart">
      <path
         id="path2295"
         d="M 10 0 L 0 5 L 10 10 z" />
    </marker>
    <marker
       viewBox="0 0 10 10"
       refY="5"
       refX="0"
       orient="auto"
       markerWidth="4"
       markerUnits="strokeWidth"
       markerHeight="3"
       id="ArrowEnd">
      <path
         id="path2292"
         d="M 0 0 L 10 5 L 0 10 z" />
    </marker>
    <inkscape:perspective
       id="perspective7597"
       inkscape:persp3d-origin="178.5405 : 158.483 : 1"
       inkscape:vp_z="357.08099 : 237.7245 : 1"
       inkscape:vp_y="0 : 1000 : 0"
       inkscape:vp_x="0 : 237.7245 : 1"
       sodipodi:type="inkscape:persp3d" />
  </defs>
  <g
     id="g1327">
    <path
       d="M 66.275,1.768 C 24.94,1.768 1.704,23.139 1.704,66.804 L 1.704,516.927 C 1.704,557.771 22.598,579.156 63.896,579.156 L 515.92,579.156 C 557.227,579.156 578.149,558.84 578.149,516.927 L 578.149,66.804 C 578.149,24.203 557.227,1.768 514.627,1.768 C 514.624,1.768 66.133,1.625 66.275,1.768 z"
       style="fill:#111111;stroke:#eeeeee;stroke-width:3.40799999"
       id="path1329" />
  </g>
  <g
     id="g2319"
     transform="translate(879.29125,36.805119)">
    <path
       id="path2323"
       style="fill:#ffffff;stroke:none"
       d="" />
  </g>
  <g
     id="g2325"
     transform="translate(879.29125,36.805119)">
    <path
       id="path2329"
       style="fill:#ffffff;stroke:none"
       d="" />
  </g>
  <path
     style="font-style:normal;font-weight:normal;font-size:143.53205872px;font-family:'Bitstream Vera Sans';fill:#ffffff;fill-opacity:1;stroke:#ffffff;stroke-width:16.32609558;stroke-linecap:round;stroke-linejoin:round;stroke-miterlimit:4;stroke-dasharray:none;stroke-opacity:1"
     d="m 61.567303,351.78954 0,-301.931037 113.893487,0 c 20.04618,3.03e-4 35.35554,0.961429 45.92812,2.883385 14.8286,2.471762 27.25457,7.174413 37.27797,14.107961 10.02294,6.934121 18.08953,16.648357 24.19979,29.142733 6.10977,12.494888 9.16477,26.225248 9.16503,41.191138 -2.6e-4,25.676 -8.16983,47.4043 -24.50873,65.18497 -16.33937,17.78097 -45.85965,26.67139 -88.56095,26.67127 l -77.43933,0 0,122.74958 -39.955387,0 z m 39.955387,-158.37992 78.05721,0 c 25.81294,1.6e-4 44.14296,-4.80547 54.99016,-14.4169 10.84678,-9.61108 16.27028,-23.13549 16.2705,-40.57328 -2.2e-4,-12.63171 -3.19252,-23.44436 -9.57694,-32.438 -6.38484,-8.993153 -14.79468,-14.931539 -25.22957,-17.815169 -6.72806,-1.784694 -19.15404,-2.677166 -37.27797,-2.677425 l -77.23339,0 0,107.920774 z"
     id="text2419"
     inkscape:connector-curvature="0" />
  <path
     style="color:#000000;display:inline;overflow:visible;visibility:visible;fill:#ffffff;fill-opacity:1;fill-rule:nonzero;stroke:none;stroke-width:1;marker:none;enable-background:accumulate"
     d="m 448.22954,181.68794 c -0.87281,1.34649 -1.88488,2.61896 -3.06481,3.79889 -9.06614,9.06615 -23.78414,9.06615 -32.85028,0 -0.65687,-0.65686 -1.27379,-1.34378 -1.83522,-2.05544 L 188.5838,405.32684 c 0.18942,0.17724 0.38412,0.34738 0.56893,0.53218 9.06615,9.06615 9.06615,23.78415 0,32.85029 -0.42831,0.42833 -0.86901,0.82338 -1.32135,1.21125 l 15.32402,15.32401 c 0.38768,-0.4521 0.78314,-0.89325 1.21124,-1.32135 9.06614,-9.06615 23.78414,-9.06615 32.85027,0 9.06617,9.06615 9.06617,23.78414 0,32.85029 -0.42831,0.42833 -0.869,0.82338 -1.32135,1.21126 l 15.32402,15.32399 c 0.38784,-0.45236 0.78292,-0.89302 1.21124,-1.32134 9.06617,-9.06615 23.78413,-9.06617 32.8503,0 9.06615,9.06614 9.02945,23.74743 -0.0367,32.81358 -0.42833,0.42833 -0.86912,0.82328 -1.32136,1.21124 l 15.36071,15.36072 c 0.38794,-0.45226 0.76458,-0.91139 1.19288,-1.33971 9.06617,-9.06614 23.76579,-9.0845 32.83194,-0.0183 0.84997,0.84994 1.62179,1.7394 2.31237,2.6794 L 557.60818,330.70711 c -0.3897,-0.34105 -0.7847,-0.71128 -1.15618,-1.08277 -9.06617,-9.06616 -9.02946,-23.74744 0.0367,-32.81358 1.17994,-1.17994 2.45315,-2.19124 3.79889,-3.06481 l -15.96632,-15.96634 c -0.87357,1.34572 -1.88488,2.61895 -3.0648,3.79888 -9.06616,9.06616 -23.76579,9.08451 -32.83194,0.0184 -9.06616,-9.06616 -9.06615,-23.78414 0,-32.85029 1.17993,-1.17993 2.4524,-2.192 3.7989,-3.0648 l -15.94801,-15.948 c -0.87279,1.3465 -1.8665,2.63731 -3.04644,3.81726 -9.06615,9.06614 -23.78413,9.06614 -32.85029,0 -9.06615,-9.06617 -9.06615,-23.78414 0,-32.8503 1.17993,-1.17993 2.45239,-2.192 3.79889,-3.06481 z M 406.05559,235.13565 508.26273,337.34278 489.47017,356.13537 387.26306,253.92825 Z M 370.2523,269.32731 472.45943,371.53444 453.66684,390.32699 351.45972,288.11988 Z m -36.40367,33.62801 102.20712,102.20711 -18.79258,18.79256 -102.20713,-102.20712 z"
     id="rect3029"
     inkscape:connector-curvature="0"
     sodipodi:nodetypes="csscccsccssscccssccssccssccsssccsssccccccccccccccccc" />
</svg>
