<svg width="12" height="12" viewBox="0 0 12 12" fill="none" xmlns="http://www.w3.org/2000/svg">
<path fill-rule="evenodd" clip-rule="evenodd" d="M9 1H10V2H9.5C9.22386 2 9 2.22386 9 2.5C9 2.77614 9.22386 3 9.5 3H10V4H9.5C9.22386 4 9 4.22386 9 4.5C9 4.77614 9.22386 5 9.5 5H10V6H9.5C9.22386 6 9 6.22386 9 6.5C9 6.77614 9.22386 7 9.5 7H10V8H9.5C9.22386 8 9 8.22386 9 8.5C9 8.77614 9.22386 9 9.5 9H10V10H9.5C9.22386 10 9 10.2239 9 10.5V11H8V10.5C8 10.2239 7.77614 10 7.5 10C7.22386 10 7 10.2239 7 10.5V11H6V10.5C6 10.2239 5.77614 10 5.5 10C5.22386 10 5 10.2239 5 10.5V11H4V10.5C4 10.2239 3.77614 10 3.5 10C3.22386 10 3 10.2239 3 10.5V11H2V10H2.5C2.77614 10 3 9.77614 3 9.5C3 9.22386 2.77614 9 2.5 9H2V8H2.5C2.77614 8 3 7.77614 3 7.5C3 7.22386 2.77614 7 2.5 7H2V6H2.5C2.77614 6 3 5.77614 3 5.5C3 5.22386 2.77614 5 2.5 5H2V4H2.5C2.77614 4 3 3.77614 3 3.5C3 3.22386 2.77614 3 2.5 3H2V2H2.5C2.77614 2 3 1.77614 3 1.5V1H4V1.5C4 1.77614 4.22386 2 4.5 2C4.77614 2 5 1.77614 5 1.5V1H6V1.5C6 1.77614 6.22386 2 6.5 2C6.77614 2 7 1.77614 7 1.5V1H8V1.5C8 1.77614 8.22386 2 8.5 2C8.77614 2 9 1.77614 9 1.5V1ZM7 5C7.55228 5 8 4.55228 8 4C8 3.44772 7.55228 3 7 3C6.44772 3 6 3.44772 6 4C6 4.55228 6.44772 5 7 5ZM8 9L6 6L4 9H8Z" fill="white"/>
</svg>
