<svg width="12" height="12" viewBox="0 0 12 12" fill="none" xmlns="http://www.w3.org/2000/svg">
<path fill-rule="evenodd" clip-rule="evenodd" d="M9.04 1H2.96C1.88192 1 1 1.88192 1 2.95923V9.04077C1 10.1181 1.88192 11 2.96 11H9.04038C10.1181 11 11 10.1181 11 9.04077V2.95923C11 1.88192 10.1181 1 9.04 1ZM9.12836 6.93629C9.76922 7.53122 9.90253 7.8208 9.92414 7.85683C10.1899 8.29728 9.63006 8.33196 9.63006 8.33196L8.56 8.34682C7.86047 8.48482 7.48908 7.1196 6.95492 7.28893C6.5432 7.41953 6.81983 7.95419 6.60003 8.19145C6.47789 8.32184 6.05695 8.24099 5.90332 8.24099C3.88362 8.44838 2.64881 5.74155 2.0041 4.24899C1.9294 4.06553 2.07485 3.98149 2.24369 3.98238L3.38851 3.97787C3.51319 4.00031 3.62457 4.06859 3.67314 4.18909C3.67314 4.18909 3.85824 4.65747 4.10323 5.08081C4.58151 5.90722 4.80444 6.08826 4.96657 5.99954C5.25397 5.84273 5.23658 4.58924 5.01296 4.28592C4.91748 4.15577 4.73734 4.11749 4.65763 4.10713C4.59277 4.09857 4.69861 3.94905 4.83597 3.88195C5.2518 3.67857 5.95261 3.72799 6.39827 3.83556C7.19296 4.02676 6.22078 5.61164 6.81215 5.99414C6.89997 6.05088 7.11479 6.0027 7.65072 5.09162C7.90518 4.65972 8.09568 4.15216 8.09568 4.15216C8.14457 4.04649 8.23861 3.97927 8.35779 3.99544C8.57988 3.99403 9.87619 3.80813 9.98359 4.10803C10.0453 4.27962 9.84803 4.67999 9.35579 5.33616C8.54694 6.41388 8.45732 6.31345 9.12836 6.93629Z" fill="white"/>
</svg>
