<svg width="12" height="12" viewBox="0 0 12 12" fill="none" xmlns="http://www.w3.org/2000/svg">
<path d="M7 2C7 2.55228 6.55228 3 6 3C5.44772 3 5 2.55228 5 2C5 1.44772 5.44772 1 6 1C6.55228 1 7 1.44772 7 2Z" fill="white"/>
<path d="M6 3C5.44772 3 5 3.44772 5 4V7C5 7.55228 5.44772 8 6 8H7.69098L8.55279 9.72361C8.67628 9.9706 8.97662 10.0707 9.22361 9.94721L10.2236 9.44721C10.4706 9.32372 10.5707 9.02338 10.4472 8.77639C10.3237 8.5294 10.0234 8.42929 9.77639 8.55279L9.22361 8.82918L8.44721 7.27639C8.36252 7.107 8.18939 7 8 7H7V6H8.5C8.77614 6 9 5.77614 9 5.5C9 5.22386 8.77614 5 8.5 5H7V4C7 3.44772 6.55228 3 6 3Z" fill="white"/>
<path d="M2 7.99998C2 6.69376 2.83481 5.58252 4 5.17068V6.26754C3.4022 6.61335 3 7.2597 3 7.99998C3 9.10455 3.89543 9.99998 5 9.99998C5.71862 9.99998 6.34872 9.62098 6.70131 9.05195L7.29116 9.93672C6.74086 10.5871 5.91865 11 5 11C3.34315 11 2 9.65683 2 7.99998Z" fill="white"/>
</svg>
