<svg width="18" height="18" viewBox="0 0 18 18" fill="none" xmlns="http://www.w3.org/2000/svg">
<path d="M8.45587 16.6955C6.42418 16.5518 4.53174 15.6105 3.19139 14.0769C1.85104 12.5433 1.17155 10.5419 1.30115 8.50922C1.43076 6.47656 2.35893 4.57763 3.8832 3.22668C5.40747 1.87574 7.40413 1.18241 9.43762 1.29796C11.4711 1.4135 13.3764 2.32853 14.7378 3.84344C16.0993 5.35835 16.8064 7.35019 16.7049 9.38445C16.6034 11.4187 15.7016 13.3303 14.1962 14.7022C12.6907 16.0741 10.7039 16.795 8.66897 16.7076" fill="#0020B4"/>
<path d="M8.51925 15.799C6.72421 15.6721 5.0522 14.8405 3.86797 13.4855C2.68374 12.1306 2.0834 10.3623 2.19791 8.56641C2.31241 6.77053 3.13248 5.09281 4.4792 3.89924C5.82593 2.70567 7.59002 2.09311 9.38664 2.19519C11.1833 2.29727 12.8666 3.10571 14.0695 4.44415C15.2723 5.78258 15.8971 7.5424 15.8074 9.33968C15.7178 11.137 14.921 12.8259 13.5909 14.038C12.2608 15.2501 10.5054 15.887 8.70752 15.8097" fill="white"/>
</svg>
