<svg xmlns="http://www.w3.org/2000/svg" width="44" height="22" viewBox="0 0 44 22" version="1.1" id="svg6" style="fill:none"><path d="M20.52 20.98c-5.53-.2-10.68-1.41-14.33-3.4C2.54 15.6.69 13 1.04 10.36c.36-2.63 2.88-5.1 7.03-6.84 4.15-1.75 9.59-2.65 15.12-2.5 5.54.15 10.72 1.33 14.43 3.3 3.7 1.96 5.63 4.54 5.35 7.18-.27 2.64-2.73 5.11-6.83 6.9-4.1 1.77-9.5 2.7-15.04 2.6" id="path2" style="fill:#bfbfbf;fill-opacity:.19834702;stroke-width:1"/><path d="M20.59 19.98c-5.27-.17-10.17-1.27-13.65-3.06-3.47-1.79-5.24-4.12-4.9-6.5.34-2.36 2.74-4.58 6.7-6.16 3.95-1.57 9.12-2.38 14.4-2.25 5.27.14 10.2 1.2 13.74 2.97 3.53 1.77 5.36 4.1 5.1 6.47-.27 2.37-2.6 4.6-6.5 6.2-3.91 1.6-9.06 2.44-14.34 2.34" id="path4" style="fill:#00ac26;stroke-width:1"/></svg>
