<svg width="18" height="18" viewBox="0 0 18 18" fill="none" xmlns="http://www.w3.org/2000/svg">
<path d="M8.45587 16.6955C6.42419 16.5518 4.53175 15.6105 3.1914 14.0769C1.85105 12.5433 1.17156 10.5419 1.30116 8.50922C1.43077 6.47656 2.35894 4.57763 3.88321 3.22668C5.40748 1.87574 7.40414 1.18241 9.43762 1.29796C11.4711 1.4135 13.3764 2.32853 14.7378 3.84344C16.0993 5.35835 16.8064 7.35019 16.7049 9.38445C16.6034 11.4187 15.7016 13.3303 14.1962 14.7022C12.6907 16.0741 10.7039 16.795 8.66897 16.7076" fill="#FFCE00"/>
<path d="M8.52393 15.7329C6.74635 15.6072 5.0906 14.7837 3.91789 13.4419C2.74518 12.1001 2.15068 10.349 2.26407 8.57062C2.37747 6.79221 3.18955 5.13081 4.52318 3.94884C5.85681 2.76688 7.60374 2.16028 9.38289 2.26137C11.162 2.36246 12.829 3.16303 14.0202 4.48845C15.2113 5.81387 15.83 7.55657 15.7412 9.33637C15.6525 11.1162 14.8634 12.7887 13.5463 13.989C12.2291 15.1893 10.4908 15.82 8.71038 15.7435" fill="#222222"/>
</svg>
