<svg width="18" height="18" viewBox="0 0 18 18" fill="none" xmlns="http://www.w3.org/2000/svg">
<path d="M8.45587 16.6955C6.42418 16.5518 4.53174 15.6105 3.19139 14.0769C1.85104 12.5433 1.17155 10.5419 1.30115 8.50922C1.43076 6.47656 2.35893 4.57763 3.8832 3.22668C5.40747 1.87574 7.40413 1.18241 9.43762 1.29796C11.4711 1.4135 13.3764 2.32853 14.7378 3.84344C16.0993 5.35835 16.8064 7.35019 16.7049 9.38445C16.6034 11.4187 15.7016 13.3303 14.1962 14.7022C12.6907 16.0741 10.7039 16.795 8.66897 16.7076" fill="#BFBFBF" fill-opacity="0.198347"/>
<path d="M8.50834 15.9533C6.67256 15.8235 4.96261 14.973 3.75151 13.5873C2.5404 12.2016 1.92644 10.3932 2.04354 8.55655C2.16065 6.71992 2.99932 5.00412 4.37661 3.78347C5.7539 2.56281 7.55802 1.93635 9.39542 2.04075C11.2328 2.14514 12.9544 2.97193 14.1845 4.34074C15.4147 5.70955 16.0536 7.5093 15.9619 9.34738C15.8702 11.1855 15.0554 12.9127 13.6951 14.1523C12.3348 15.3919 10.5396 16.0432 8.70089 15.9643" fill="#3D45FF"/>
</svg>
