<?xml version="1.0" encoding="UTF-8" standalone="no"?>
<!-- Created with Inkscape (http://www.inkscape.org/) -->

<svg
   xmlns:dc="http://purl.org/dc/elements/1.1/"
   xmlns:cc="http://creativecommons.org/ns#"
   xmlns:rdf="http://www.w3.org/1999/02/22-rdf-syntax-ns#"
   xmlns:svg="http://www.w3.org/2000/svg"
   xmlns="http://www.w3.org/2000/svg"
   xmlns:sodipodi="http://sodipodi.sourceforge.net/DTD/sodipodi-0.dtd"
   xmlns:inkscape="http://www.inkscape.org/namespaces/inkscape"
   version="1.0"
   width="580"
   height="580"
   id="svg2"
   sodipodi:version="0.32"
   inkscape:version="0.91 r"
   sodipodi:docname="ambulance_station.svg"
   inkscape:output_extension="org.inkscape.output.svg.inkscape">
  <metadata
     id="metadata1976">
    <rdf:RDF>
      <cc:Work
         rdf:about="">
        <dc:format>image/svg+xml</dc:format>
        <dc:type
           rdf:resource="http://purl.org/dc/dcmitype/StillImage" />
        <cc:license
           rdf:resource="http://web.resource.org/cc/PublicDomain" />
        <dc:language>en</dc:language>
        <dc:title></dc:title>
      </cc:Work>
    </rdf:RDF>
  </metadata>
  <sodipodi:namedview
     inkscape:window-height="739"
     inkscape:window-width="1332"
     inkscape:pageshadow="2"
     inkscape:pageopacity="0.0"
     guidetolerance="10.0"
     gridtolerance="10.0"
     objecttolerance="10.0"
     borderopacity="1.0"
     bordercolor="#666666"
     pagecolor="#ffffff"
     id="base"
     inkscape:zoom="0.19906972"
     inkscape:cx="-154.778"
     inkscape:cy="160.58961"
     inkscape:window-x="34"
     inkscape:window-y="1024"
     inkscape:current-layer="svg2"
     showgrid="false"
     inkscape:window-maximized="1" />
  <defs
     id="defs4">
    <inkscape:perspective
       sodipodi:type="inkscape:persp3d"
       inkscape:vp_x="0 : 290 : 1"
       inkscape:vp_y="0 : 1000 : 0"
       inkscape:vp_z="580 : 290 : 1"
       inkscape:persp3d-origin="290 : 193.33333 : 1"
       id="perspective3653" />
    <marker
       viewBox="0 0 10 10"
       refY="5"
       refX="10"
       orient="auto"
       markerWidth="4"
       markerUnits="strokeWidth"
       markerHeight="3"
       id="ArrowStart">
      <path
         id="path2111"
         d="M 10 0 L 0 5 L 10 10 z" />
    </marker>
    <marker
       viewBox="0 0 10 10"
       refY="5"
       refX="0"
       orient="auto"
       markerWidth="4"
       markerUnits="strokeWidth"
       markerHeight="3"
       id="ArrowEnd">
      <path
         id="path2108"
         d="M 0 0 L 10 5 L 0 10 z" />
    </marker>
    <inkscape:perspective
       id="perspective2512"
       inkscape:persp3d-origin="177.51199 : 145.02 : 1"
       inkscape:vp_z="355.02399 : 217.53 : 1"
       inkscape:vp_y="0 : 1000 : 0"
       inkscape:vp_x="0 : 217.53 : 1"
       sodipodi:type="inkscape:persp3d" />
    <inkscape:perspective
       id="perspective3305"
       inkscape:persp3d-origin="372.04724 : 350.78739 : 1"
       inkscape:vp_z="744.09448 : 526.18109 : 1"
       inkscape:vp_y="0 : 1000 : 0"
       inkscape:vp_x="0 : 526.18109 : 1"
       sodipodi:type="inkscape:persp3d" />
    <inkscape:perspective
       id="perspective3354"
       inkscape:persp3d-origin="372.04724 : 350.78739 : 1"
       inkscape:vp_z="744.09448 : 526.18109 : 1"
       inkscape:vp_y="0 : 1000 : 0"
       inkscape:vp_x="0 : 526.18109 : 1"
       sodipodi:type="inkscape:persp3d" />
  </defs>
  <g
     id="g1327">
    <path
       d="M 66.275,1.768 C 24.94,1.768 1.704,23.139 1.704,66.804 L 1.704,516.927 C 1.704,557.771 22.6,579.156 63.896,579.156 L 515.92,579.156 C 557.227,579.156 578.149,558.842 578.149,516.927 L 578.149,66.804 C 578.149,24.203 557.227,1.768 514.628,1.768 C 514.624,1.768 66.133,1.625 66.275,1.768 z"
       style="fill:#111111;stroke:#eeeeee;stroke-width:3.40799999"
       id="path1329" />
  </g>
  <g
     id="g2117"
     transform="matrix(1.1975036,0,0,1.1975036,80.128205,34.575832)"
     style="fill:#000000">
    <g
       id="g2119"
       style="fill:#000000">
      <g
         id="g2121"
         style="fill:#000000">
        <path
           id="path2125"
           style="fill:#000000;stroke:none"
           d="" />
      </g>
      <g
         id="g2127"
         style="fill:#000000">
        <path
           id="path2131"
           style="fill:#000000;stroke:none"
           d="" />
      </g>
    </g>
  </g>
  <path
     d="m 465.52911,288.55287 c 0,0 -56.17043,-232.499733 -83.22035,-232.499733 l -49.70184,0 -84.64486,0 -50.30444,0 c -27.04597,0 -83.18281,232.499733 -83.18281,232.499733 -13.93888,1.78805 -38.64755,18.15116 -38.64755,49.14467 l 0,115.45661 34.22386,0 0,36.92272 c 0,45.4283 64.28876,44.89089 64.28876,0 l 0,-36.92272 115.64232,0 0.0356,0 115.64233,0 0,36.92272 c 0,44.89089 64.28876,45.4283 64.28876,0 l 0,-36.92272 34.22385,0 0,-115.45661 c 0.002,-30.99548 -24.70669,-47.35662 -38.64359,-49.14467 z m -222.59532,-187.22159 32.5583,0 0,-32.558298 29.01974,0 0,32.558298 32.5583,0 0,29.01975 -32.5583,0 0,32.55829 -29.01974,0 0,-32.56027 -32.5583,0 0,-29.01777 z m -99.70597,282.24701 c -16.40065,0 -29.68951,-13.72155 -29.68951,-30.62602 0,-16.90447 13.29083,-30.58848 29.68951,-30.58848 16.39869,0 29.68952,13.68401 29.68952,30.58848 -0.004,16.90447 -13.28886,30.62602 -29.68952,30.62602 z m 146.79192,-95.9639 -0.0356,0 -0.0771,0 -139.03514,0 26.50264,-96.67517 c 3.31135,-10.03679 8.2764,-17.28579 19.87007,-17.39446 l 92.66243,0 0.0771,0 0.0356,0 92.70195,0 c 11.59169,0.10867 16.55476,7.35767 19.87006,17.39446 l 26.50265,96.67517 -139.07466,0 z m 146.75635,95.9639 c -16.40066,0 -29.72903,-13.72155 -29.72903,-30.62602 0,-16.90447 13.32837,-30.58848 29.72903,-30.58848 16.40066,0 29.68557,13.68401 29.68557,30.58848 0,16.90447 -13.28491,30.62602 -29.68557,30.62602 z"
     id="path13"
     inkscape:connector-curvature="0"
     style="fill:#ffffff" />
</svg>
