<svg width="580" height="580" viewBox="0 0 580 580" fill="none" xmlns="http://www.w3.org/2000/svg">
<g clip-path="url(#clip0)">
<path d="M66.275 1.76802C24.94 1.76802 1.70398 23.139 1.70398 66.804V516.927C1.70398 557.771 22.6 579.156 63.896 579.156H515.92C557.227 579.156 578.149 558.842 578.149 516.927V66.804C578.149 24.203 557.227 1.76802 514.628 1.76802C514.624 1.76802 66.133 1.62502 66.275 1.76802Z" fill="#111111" stroke="#EEEEEE" stroke-width="3.408"/>
<path d="M414.819 291.693C411.481 241.571 377.461 201.5 333.033 193.989C278.909 184.87 248.914 215.234 229.265 245.645C209.751 215.257 183.966 187.631 130.984 193.105C84.163 197.965 48.02 241.792 44.645 288.944C41.687 330.23 56.586 358.039 72.198 383.862C109.716 446.012 173.388 510.272 229.266 548.27C285.745 510.2 355.911 440.759 391.845 375.566C404.167 353.156 416.979 324.463 414.819 291.693V291.693ZM286.65 466.044L228.358 519.331L194.654 452.755L223.755 465.87L236.63 373.7L165.901 423.455L181.707 231.6L221.201 274.015L202.646 363.564L287.145 302.776L250.4 470.485L286.65 466.044Z" fill="white"/>
<path d="M485.462 147.364V197.634H435.192V147.364H384.923V97.094H435.192V46.825H485.462V97.094H535.732V147.364H485.462Z" fill="white"/>
</g>
<defs>
<clipPath id="clip0">
<path d="M0 0H580V580H0V0Z" fill="white"/>
</clipPath>
</defs>
</svg>
