<svg width="580" height="580" viewBox="0 0 580 580" fill="none" xmlns="http://www.w3.org/2000/svg">
<path d="M149.777 234.913H452.847L388.242 539.862H209.445L150.91 241.292L149.777 234.913ZM303.861 27.8624C217.195 27.8624 146.977 98.0809 146.977 184.747C146.977 193.811 154.315 201.098 163.328 201.098C172.475 201.098 179.711 193.817 179.711 184.747C179.775 116.234 235.175 60.6607 303.861 60.5641C372.245 60.6607 427.844 116.228 427.973 184.747C427.973 193.811 435.176 201.098 444.24 201.098C453.239 201.098 460.642 193.817 460.642 184.747C460.642 98.0809 390.443 27.8624 303.861 27.8624Z" fill="white"/>
</svg>
