<?xml version="1.0" encoding="UTF-8" standalone="no"?>
<!-- Created with Inkscape (http://www.inkscape.org/) -->

<svg
   xmlns:dc="http://purl.org/dc/elements/1.1/"
   xmlns:cc="http://creativecommons.org/ns#"
   xmlns:rdf="http://www.w3.org/1999/02/22-rdf-syntax-ns#"
   xmlns:svg="http://www.w3.org/2000/svg"
   xmlns="http://www.w3.org/2000/svg"
   xmlns:sodipodi="http://sodipodi.sourceforge.net/DTD/sodipodi-0.dtd"
   xmlns:inkscape="http://www.inkscape.org/namespaces/inkscape"
   version="1.0"
   width="580"
   height="580"
   id="svg2"
   sodipodi:version="0.32"
   inkscape:version="0.48.4 r9939"
   sodipodi:docname="restricted_area_water_skiing.svg"
   inkscape:output_extension="org.inkscape.output.svg.inkscape">
  <metadata
     id="metadata2975">
    <rdf:RDF>
      <cc:Work
         rdf:about="">
        <dc:format>image/svg+xml</dc:format>
        <dc:type
           rdf:resource="http://purl.org/dc/dcmitype/StillImage" />
        <cc:license
           rdf:resource="http://web.resource.org/cc/PublicDomain" />
        <dc:language>en</dc:language>
        <dc:title></dc:title>
      </cc:Work>
    </rdf:RDF>
  </metadata>
  <sodipodi:namedview
     inkscape:window-height="1004"
     inkscape:window-width="1920"
     inkscape:pageshadow="2"
     inkscape:pageopacity="0.0"
     guidetolerance="10.0"
     gridtolerance="10.0"
     objecttolerance="10.0"
     borderopacity="1.0"
     bordercolor="#666666"
     pagecolor="#ffffff"
     id="base"
     inkscape:zoom="0.65172414"
     inkscape:cx="688.95336"
     inkscape:cy="325.79756"
     inkscape:window-x="1680"
     inkscape:window-y="0"
     inkscape:current-layer="svg2"
     showgrid="false"
     inkscape:window-maximized="1" />
  <defs
     id="defs4">
    <inkscape:perspective
       sodipodi:type="inkscape:persp3d"
       inkscape:vp_x="0 : 290 : 1"
       inkscape:vp_y="0 : 1000 : 0"
       inkscape:vp_z="580 : 290 : 1"
       inkscape:persp3d-origin="290 : 193.33333 : 1"
       id="perspective10" />
  </defs>
  <path
     style="font-size:medium;font-style:normal;font-variant:normal;font-weight:normal;font-stretch:normal;text-indent:0;text-align:start;text-decoration:none;line-height:normal;letter-spacing:normal;word-spacing:normal;text-transform:none;direction:ltr;block-progression:tb;writing-mode:lr-tb;text-anchor:start;baseline-shift:baseline;opacity:0.42608696;color:#000000;fill:#acd8f3;fill-opacity:1;fill-rule:nonzero;stroke:#a35151;stroke-width:0;stroke-linecap:round;stroke-linejoin:miter;stroke-miterlimit:4;stroke-opacity:1;stroke-dashoffset:0;marker:none;visibility:visible;display:inline;overflow:visible;enable-background:accumulate;font-family:Sans;-inkscape-font-specification:Sans"
     d="m 291.1875,1.84375 c -9.78351,0.2044203 -19.4881,3.3196769 -27.56264,8.847844 -8.07454,5.528167 -14.48917,13.4488 -18.21861,22.495906 0,0 -1.03655,2.286672 -3.25,5.40625 -0.19359,0.272839 -0.34476,0.349272 -0.53125,0.5625 -73.69616,12.287145 -137.91087,51.815066 -176.84375,106.53125 -12.398389,1.17704 -24.284591,7.11623 -32.670106,16.32431 -8.385516,9.20807 -13.189787,21.59656 -13.204894,34.05069 0,29.57284 6.507597,72.79123 36.59375,115.90625 6.217145,8.89795 15.371012,15.70703 25.680988,19.10273 10.309976,3.3957 21.718542,3.35908 32.006512,-0.10273 29.26353,-9.84679 48.94234,-26.79811 64.28125,-40.71875 15.33891,-13.92064 26.0625,-26.625 26.0625,-26.625 5.82469,-6.90986 9.74978,-15.40505 11.23639,-24.31926 1.48662,-8.91421 0.53074,-18.2234 -2.73639,-26.64949 1.65319,-1.64762 3.33102,-3.28199 5.0625,-4.84375 l 0,115.34375 c -10.49045,2.9961 -19.95099,9.48521 -26.52373,18.19297 -6.57275,8.70777 -10.22027,19.58462 -10.22627,30.49453 l 0,29.9375 c 0.0137,9.76876 2.92892,19.51551 8.28125,27.6875 -4.43277,11.94098 -6.875,24.80396 -6.875,38.21875 0,60.57329 49.9267,110.5 110.5,110.5 60.5733,0 110.53125,-49.89461 110.53125,-110.5 0,-13.39052 -2.45828,-26.23855 -6.875,-38.15625 5.36373,-8.18942 8.27962,-17.9604 8.28125,-27.75 l 0,-29.9375 c -0.008,-10.91384 -3.66007,-21.79392 -10.23874,-30.50214 -6.57867,-8.70821 -16.04636,-15.19492 -26.54251,-18.18536 l 0,-88.5 c 0.64677,11.25455 5.18118,22.2491 12.65625,30.6875 0,0 10.85985,12.21033 26.28125,25.625 15.4214,13.41467 35.21978,29.67072 63.78125,39.28125 9.09789,3.06424 19.07384,3.4699 28.39049,1.15449 9.31665,-2.31541 17.94207,-7.34397 24.54701,-14.31074 25.90517,-27.33844 28.75017,-53.85811 32.875,-75.8125 4.12483,-21.95439 5.09375,-40.5 5.09375,-40.5 0.62849,-11.86213 -3.08104,-23.9067 -10.27428,-33.35986 -7.19325,-9.45317 -17.81288,-16.2396 -29.41322,-18.79639 C 481.97451,92.170802 416.32521,52.130092 342.96875,39.25 c -0.21946,-0.241611 -0.39398,-0.362347 -0.625,-0.6875 -2.22241,-3.127951 -3.28125,-5.40625 -3.28125,-5.40625 C 335.19511,23.792337 328.44593,15.64189 319.96727,10.096449 311.48861,4.5510067 301.31645,1.6341047 291.1875,1.84375 z m 76.21875,202.375 c 1.83433,1.49981 3.61718,3.03521 5.34375,4.625 -3.10733,6.15857 -4.93825,12.9576 -5.34375,19.84375 z"
     id="path4398"
     inkscape:connector-curvature="0"
     sodipodi:nodetypes="cscsccsccssscscccscccssscccscccscscscsccscsccccc" />
  <path
     style="font-size:medium;font-style:normal;font-variant:normal;font-weight:normal;font-stretch:normal;text-indent:0;text-align:start;text-decoration:none;line-height:normal;letter-spacing:normal;word-spacing:normal;text-transform:none;direction:ltr;block-progression:tb;writing-mode:lr-tb;text-anchor:start;baseline-shift:baseline;color:#000000;fill:#b01d1d;fill-opacity:1;fill-rule:nonzero;stroke:none;stroke-width:0.30741173;marker:none;visibility:visible;display:inline;overflow:visible;enable-background:accumulate;font-family:Sans;-inkscape-font-specification:Sans"
     d="M 292.25 52.46875 C 292.25 52.46875 280.12889 81.912347 258.46875 87.71875 C 180.54905 97.869132 111.71158 150.32284 87.65625 207.96875 C 77.751701 199.86728 69.5625 196.0625 69.5625 196.0625 C 69.5625 214.02041 75.738597 252.45527 97.03125 282.96875 C 130.34232 271.76002 164.84375 230.9375 164.84375 230.9375 C 164.84375 230.9375 153.46922 229.14706 140.75 228.5 C 166.41359 166.03375 235.09421 129.97437 267.75 127.15625 L 267.75 371.84375 L 231 371.84375 L 231 401.78125 L 267.75 401.78125 L 267.75 413.125 C 246.97392 422.54823 232.40625 443.52225 232.40625 467.6875 C 232.40625 500.56985 259.36764 527.53125 292.25 527.53125 C 325.13235 527.53125 352.125 500.56985 352.125 467.6875 C 352.125 443.51705 337.53321 422.54529 316.75 413.125 L 316.75 401.78125 L 353.53125 401.78125 L 353.53125 371.84375 L 316.75 371.84375 L 316.75 127.15625 C 349.58773 129.99007 423.49757 163.06301 445.375 228.6875 C 431.24443 229.40182 417.90625 231.65625 417.90625 231.65625 C 417.90625 231.65625 452.97014 271.04128 486.28125 282.25 C 507.08382 260.29648 510.4375 198.0625 510.4375 198.0625 C 510.4375 198.0625 504.59512 201.64517 496.90625 208.28125 C 472.47163 150.5972 401.43938 98.334031 326.0625 87.71875 C 304.40235 81.912347 292.25 52.46875 292.25 52.46875 z M 292.25 437.75 C 308.95709 437.75 322.1875 450.98044 322.1875 467.6875 C 322.1875 484.39456 308.95709 497.59375 292.25 497.59375 C 275.54297 497.59375 262.34375 484.39456 262.34375 467.6875 C 262.34375 450.98044 275.54297 437.75 292.25 437.75 z "
     id="circle3" />
</svg>
