<?xml version="1.0" encoding="UTF-8" standalone="no"?>
<!-- Created with Inkscape (http://www.inkscape.org/) -->

<svg
   xmlns:dc="http://purl.org/dc/elements/1.1/"
   xmlns:cc="http://creativecommons.org/ns#"
   xmlns:rdf="http://www.w3.org/1999/02/22-rdf-syntax-ns#"
   xmlns:svg="http://www.w3.org/2000/svg"
   xmlns="http://www.w3.org/2000/svg"
   xmlns:sodipodi="http://sodipodi.sourceforge.net/DTD/sodipodi-0.dtd"
   xmlns:inkscape="http://www.inkscape.org/namespaces/inkscape"
   version="1.0"
   width="580"
   height="580"
   id="svg2"
   sodipodi:version="0.32"
   inkscape:version="0.48.4 r9939"
   sodipodi:docname="restricted_area_swimming.svg"
   inkscape:output_extension="org.inkscape.output.svg.inkscape">
  <metadata
     id="metadata2975">
    <rdf:RDF>
      <cc:Work
         rdf:about="">
        <dc:format>image/svg+xml</dc:format>
        <dc:type
           rdf:resource="http://purl.org/dc/dcmitype/StillImage" />
        <cc:license
           rdf:resource="http://web.resource.org/cc/PublicDomain" />
        <dc:language>en</dc:language>
        <dc:title></dc:title>
      </cc:Work>
    </rdf:RDF>
  </metadata>
  <sodipodi:namedview
     inkscape:window-height="1004"
     inkscape:window-width="1920"
     inkscape:pageshadow="2"
     inkscape:pageopacity="0.0"
     guidetolerance="10.0"
     gridtolerance="10.0"
     objecttolerance="10.0"
     borderopacity="1.0"
     bordercolor="#666666"
     pagecolor="#ffffff"
     id="base"
     inkscape:zoom="0.32586207"
     inkscape:cx="376.00797"
     inkscape:cy="670.73817"
     inkscape:window-x="1680"
     inkscape:window-y="0"
     inkscape:current-layer="svg2"
     showgrid="false"
     inkscape:window-maximized="1" />
  <defs
     id="defs4">
    <inkscape:perspective
       sodipodi:type="inkscape:persp3d"
       inkscape:vp_x="0 : 290 : 1"
       inkscape:vp_y="0 : 1000 : 0"
       inkscape:vp_z="580 : 290 : 1"
       inkscape:persp3d-origin="290 : 193.33333 : 1"
       id="perspective10" />
  </defs>
  <path
     transform="translate(-15.189701,-1.0849787)"
     style="opacity:0.42608696;color:#000000;fill:#acd8f3;fill-opacity:1;fill-rule:nonzero;stroke:#a35151;stroke-width:0;stroke-linecap:round;stroke-linejoin:miter;stroke-miterlimit:4;stroke-opacity:1;stroke-dashoffset:0;marker:none;visibility:visible;display:inline;overflow:visible;enable-background:accumulate"
     d="m 133.34375,29.875 c -7.02541,0.01135 -15.81145,0.06991 -24.28125,0.375 -8.4698,0.305092 -16.908471,0.739062 -26.5,2.28125 -4.795765,0.771094 -9.795681,1.656498 -17,4.3125 -7.204319,2.656002 -19.788904,5.117288 -31.90625,26.34375 -0.624493,1.134865 -1.208325,2.292103 -1.75,3.46875 -2.221796,1.700384 -4.358115,3.558238 -6.3125,5.6875 C 11.608909,87.579944 10.567397,103.29077 10.65625,112 c 0.08885,8.70923 1.487754,13.81374 2.75,18.3125 2.524491,8.99752 5.431395,15.32466 8.9375,22.65625 14.885344,31.12674 39.211983,65.2412 80.25,103.46875 1.35686,22.29351 6.50627,45.81046 28.40625,70.75 9.81717,11.17973 19.46126,21.46378 37.5625,28.875 18.10124,7.41122 47.16626,3.97809 61.96875,-5.53125 1.19222,-0.7659 2.05798,-1.4426 3.15625,-2.1875 0.33193,0.19928 0.70115,0.39447 1.03125,0.59375 6.16138,4.98348 8.42828,5.4205 12.3125,7.5625 3.44495,1.89976 7.23197,3.68417 11,5.46875 44.57916,24.76128 74.66782,41.43241 89.28125,59.40625 0.5858,0.72373 1.19023,1.43238 1.8125,2.125 8.5375,9.45917 9.26325,28.3894 18.875,69.46875 0.43502,1.84914 0.96725,3.67541 1.59375,5.46875 0.38933,1.87589 0.99747,5.18518 1.5,8.65625 1.17426,8.11067 2.35462,15.21091 5.3125,24.125 2.95788,8.91409 3.58346,26.35112 34.6875,39.1875 15.55202,6.41819 36.60373,3.71564 47.90625,-2.125 11.30252,-5.84064 16.29409,-11.98759 20.0625,-16.71875 7.53681,-9.46232 10.19793,-15.96061 13.34375,-23.1875 2.0774,-4.77236 8.58245,-17.64212 14.3125,-27.90625 1.73139,-3.1014 3.04526,-5.26141 4.53125,-7.78125 14.95464,-7.75672 29.27447,-15.20962 38.96875,-18.90625 9.13612,-2.8124 17.33279,-6.48279 26.875,-14.1875 5.46779,-4.41488 12.32732,-9.67113 18.40625,-24.03125 6.07893,-14.36012 3.46168,-45.86844 -11.0625,-61.09375 -10.60378,-11.11773 -11.69511,-9.41341 -13.84375,-10.59375 -2.14864,-1.18034 -3.54919,-1.81663 -4.90625,-2.4375 -2.71412,-1.24174 -5.06404,-2.17994 -7.71875,-3.15625 -2.61225,-0.9607 -10.09292,-3.74251 -15.90625,-5.9375 -9.08127,-3.42886 -13.97198,-5.97669 -27.375,-7.4375 -8.25645,-1.87019 -13.29257,-4.46228 -18.75,-9.8125 -13.78958,-20.8015 -24.55316,-37.94439 -26.34375,-47.4375 -0.35995,-1.87666 -0.81914,-3.73427 -1.375,-5.5625 -5.47652,-18.21614 -8.97802,-29.24114 -12.125,-38.3125 5.37498,-11.27857 3.93783,-17.64131 3.90625,-21.9375 -0.0398,-5.41105 -0.59632,-8.36287 -1.0625,-10.90625 -0.93237,-5.08676 -1.90526,-8.18605 -2.9375,-11.40625 -2.06447,-6.44039 -4.4615,-12.48972 -7.375,-19 -2.48997,-5.56386 -4.08457,-13.00795 -4.21875,-15.8125 -0.33913,-7.08835 -1.06452,-13.54042 -2.5,-20.46875 -0.71774,-3.46416 -1.54551,-6.97522 -3.28125,-11.75 -1.73574,-4.77478 -1.60294,-10.70749 -15.15625,-23.40625 -0.0104,-0.0104 -0.0208,-0.0208 -0.0312,-0.0312 -5.584,-5.2222 -12.86406,-9.096414 -15.8125,-10.375 -0.0104,-3e-6 -0.0208,-3e-6 -0.0312,0 -13.7544,-5.962181 -15.29873,-4.251766 -18.15625,-4.5 -2.85752,-0.248234 -4.72735,-0.264596 -6.5625,-0.28125 -3.6703,-0.03331 -6.92691,0.06691 -10.59375,0.25 -7.32453,0.365732 -15.82696,1.070876 -24.875,2.03125 -0.0113,0.0012 -0.02,-0.0012 -0.0312,0 l -7.03125,0.75 C 283.97271,54.848491 219.6886,34.359806 152.15625,29.96875 150.48182,29.859719 148.80233,29.828424 147.125,29.875 c -1.48379,0.04098 -6.75584,-0.01135 -13.78125,0 z m 384.75,453.625 c 0.15965,-0.10867 -2.03539,1.94039 -2.34375,2.28125 0.9901,-1.07704 2.01848,-2.05984 2.34375,-2.28125 z m -147.4375,17.625 c 2.08755,5.12575 4.96517,9.92885 8.5,14.1875 -8.6077,-9.66603 -7.75972,-12.19579 -8.5,-14.1875 z"
     id="path4019"
     inkscape:connector-curvature="0"
     sodipodi:nodetypes="ssssccsssscsssccscccccsssssssccsscsssscccccsssssssccccssscccccscccccc" />
  <path
     style="color:#000000;fill:#b01d1d;fill-opacity:1;fill-rule:nonzero;stroke-width:0.96049488;stroke-linecap:butt;stroke-linejoin:miter;stroke-miterlimit:4;stroke-opacity:1;stroke-dasharray:none;stroke-dashoffset:0;marker:none;visibility:visible;display:inline;overflow:visible;enable-background:accumulate"
     d="m 133.44276,83.013149 c -14.02261,0.387278 -63.62966,-1.382005 -67.843754,6 -0.03534,1.125284 6.795522,6.49637 12.65625,14.093751 10.983323,14.23788 27.868174,36.04373 25.125004,38.5625 -1.4254,1.30882 -13.600591,-8.23004 -35.937504,-25.53125 -19.149507,-14.83242 -22.557254,-11.10472 -11.34375,12.34375 13.423005,28.06884 36.117723,59.90993 83.406254,100.78125 0.50623,0.51729 1.02094,1.02148 1.53125,1.53125 0.31197,22.46758 4.81944,47.33272 15.53125,59.53125 28.13294,32.03761 33.46102,7.95197 50.84375,-12 14.50127,8.27915 29.20946,16.2724 43.5625,25.09375 2.27677,2.05693 10.48356,6.59833 18.21875,10.03125 43.25874,24.02786 80.3467,42.26414 105.03125,72.625 24.12867,26.73348 23.79724,60.94886 31.40625,93.46875 0.80933,0.84844 2.60574,9.27299 3.96875,18.6875 3.70901,25.61841 9.00819,27.77595 17.875,7.40625 7.28324,-16.73162 26.87346,-51.82674 31.125,-55.75 17.96867,-9.13101 39.02051,-21.15161 58,-28.25 9.37427,-2.58535 16.07877,-8.01097 13.40625,-10.8125 -0.44194,-0.46336 -3.078,-1.66712 -5.9375,-2.71875 -2.85949,-1.05163 -10.28956,-3.80782 -16.34375,-6.09375 -6.05414,-2.28589 -14.08214,-4.4257 -17.90625,-4.6875 -20.15147,-4.19296 -37.19298,-13.50155 -51.375,-28.9375 -13.23596,-19.86718 -32.09489,-43.92223 -37.34375,-71.75 -11.75163,-39.08861 -12.85741,-42.3426 -19.6875,-56.625 -3.71333,-7.76497 -6.74232,-14.60388 -6.71875,-15.15625 0.0236,-0.55235 3.19049,-0.85129 7.03125,-0.6875 3.84076,0.16375 7.77703,-0.81459 8.6875,-2.15625 0.91035,-1.34175 -2.0662,-10.49883 -6.5,-20.40625 -5.16543,-11.54221 -8.34264,-24.24802 -8.875,-35.375 -0.42839,-8.95408 -2.11087,-17.00138 -3.84375,-18.625 -0.1156,-0.10811 -0.22838,-0.16872 -0.34375,-0.21875 -1.84636,-0.80035 -16.66334,-0.0721 -32.9375,1.65625 l -29.59375,3.125 -10.3125,-8.875 C 248.8784,104.78541 195.19772,87.02855 133.44276,83.013149 z m 1.84375,23.812501 c 2.40083,0 4.79224,0.91725 6.625,2.75 3.66552,3.66551 3.66551,9.61574 0,13.28125 -3.66553,3.66553 -9.61574,3.66552 -13.28125,0 -3.66551,-3.66551 -3.66553,-9.61571 0,-13.28125 1.83276,-1.83275 4.25542,-2.75 6.65625,-2.75 z"
     id="path1932"
     inkscape:connector-curvature="0" />
</svg>
