<?xml version="1.0" encoding="UTF-8" standalone="no"?>
<!-- Created with Inkscape (http://www.inkscape.org/) -->

<svg
   xmlns:i="http://ns.adobe.com/AdobeIllustrator/10.0/"
   xmlns:dc="http://purl.org/dc/elements/1.1/"
   xmlns:cc="http://creativecommons.org/ns#"
   xmlns:rdf="http://www.w3.org/1999/02/22-rdf-syntax-ns#"
   xmlns:svg="http://www.w3.org/2000/svg"
   xmlns="http://www.w3.org/2000/svg"
   xmlns:sodipodi="http://sodipodi.sourceforge.net/DTD/sodipodi-0.dtd"
   xmlns:inkscape="http://www.inkscape.org/namespaces/inkscape"
   version="1.0"
   width="580"
   height="580"
   id="svg2"
   sodipodi:version="0.32"
   inkscape:version="0.48.4 r9939"
   sodipodi:docname="restricted_area_swimming.svg"
   inkscape:output_extension="org.inkscape.output.svg.inkscape">
  <metadata
     id="metadata2975">
    <rdf:RDF>
      <cc:Work
         rdf:about="">
        <dc:format>image/svg+xml</dc:format>
        <dc:type
           rdf:resource="http://purl.org/dc/dcmitype/StillImage" />
        <cc:license
           rdf:resource="http://web.resource.org/cc/PublicDomain" />
        <dc:language>en</dc:language>
        <dc:title></dc:title>
      </cc:Work>
    </rdf:RDF>
  </metadata>
  <sodipodi:namedview
     inkscape:window-height="1004"
     inkscape:window-width="1920"
     inkscape:pageshadow="2"
     inkscape:pageopacity="0.0"
     guidetolerance="10.0"
     gridtolerance="10.0"
     objecttolerance="10.0"
     borderopacity="1.0"
     bordercolor="#666666"
     pagecolor="#ffffff"
     id="base"
     inkscape:zoom="0.46083856"
     inkscape:cx="132.97855"
     inkscape:cy="531.95358"
     inkscape:window-x="1680"
     inkscape:window-y="0"
     inkscape:current-layer="svg2"
     showgrid="false"
     inkscape:window-maximized="1" />
  <defs
     id="defs4">
    <inkscape:perspective
       sodipodi:type="inkscape:persp3d"
       inkscape:vp_x="0 : 290 : 1"
       inkscape:vp_y="0 : 1000 : 0"
       inkscape:vp_z="580 : 290 : 1"
       inkscape:persp3d-origin="290 : 193.33333 : 1"
       id="perspective10" />
  </defs>
  <path
     transform="translate(-2.825566,2.9542605)"
     style="opacity:0.42608696;color:#000000;fill:#acd8f3;fill-opacity:1;fill-rule:nonzero;stroke:#a35151;stroke-width:0;stroke-linecap:round;stroke-linejoin:miter;stroke-miterlimit:4;stroke-opacity:1;stroke-dashoffset:0;marker:none;visibility:visible;display:inline;overflow:visible;enable-background:accumulate"
     d="m 471.78125,65.0625 c -0.42708,0.02083 -1.57292,0.0625 -1.71875,0.0625 -24.06454,1.45962 -43.2867,9.766869 -62.1875,16.6875 -19.97279,7.313144 -39.04923,15.153354 -49.3125,19.5 -0.0315,0.0134 -0.0936,0.0492 -0.125,0.0625 -1.41517,0.59953 -1.59461,0.66867 -0.3125,0.125 -9.01112,3.65888 -22.22874,8.8277 -33.3125,20.5625 -9.0221,9.55203 -11.35997,15.77202 -13.875,23.8125 -0.1698,0.54284 -0.4587,1.77805 -0.5,1.78125 -0.3875,0.9957 -0.72705,1.94936 -1.0625,2.90625 -0.0575,0.0961 -0.0712,0.16086 -0.125,0.375 -4.1013,11.87849 -4.42283,21.2934 -1.1875,34.9375 1.8988,8.00765 4.09652,13.07929 5.59375,17.03125 0.16175,0.45121 0.16211,0.43025 0.46875,1.28125 0.12951,0.33569 0.26496,0.66909 0.40625,1 0.84775,2.38189 1.93288,5.01053 2.90625,7.53125 l -67.375,35.96875 c -29.21222,-11.77771 -55.95735,-22.14615 -79.5,-30.53125 -0.39226,-0.17499 -0.78821,-0.3417 -1.1875,-0.5 -12.64565,-4.51462 -26.27157,-9.96071 -39.84375,-14.75 -12.43408,-4.38768 -27.65761,-10.25904 -47.28125,-10.3125 -0.01042,-1e-5 -0.02083,-1e-5 -0.03125,0 -1.011375,-0.002 -2.574644,0.0217 -4.4375,0.125 -29.892264,1.64967 -51.56676,20.44839 -60.96875,44.0625 -6.206443,15.58815 -7.1426811,35.65366 0.46875,53.78125 -4.542153,5.73406 -9.7313086,12.3885 -9.4375,11.78125 0.467358,-0.96594 -5.4078336,24.51056 -5.40625,23.4375 -5.3e-6,0.0104 -5.3e-6,0.0208 0,0.0312 l 0,31.3125 c -2.13e-5,0.0208 -2.13e-5,0.0417 0,0.0625 -0.00105,-0.47986 1.2037834,5.11141 2.5,10.4375 -1.2998991,5.32676 -2.5016937,10.91716 -2.5,10.4375 -4.79e-5,0.0312 -4.79e-5,0.0625 0,0.0937 l 0,31.28125 c -2.13e-5,0.0208 -2.13e-5,0.0417 0,0.0625 -6.717e-4,-0.37381 0.7416504,4.02997 1.53125,8.25 C 2.3137255,423.74911 0.7493556,430.0458 0.75,429.5 c -5.31e-6,0.0104 -5.31e-6,0.0208 0,0.0312 l 0,31.28125 c -5.0048e-4,-1.22599 7.5710723,27.56783 6.96875,26.5 -0.6023223,-1.06783 20.111478,20.29083 19.0625,19.65625 14.221898,8.59582 33.215142,8.74554 34.71875,8.71875 7.324966,-0.13051 14.200473,-1.16055 20.8125,-2.5 0.104274,-0.0203 0.208443,-0.0411 0.3125,-0.0625 0.06253,-0.0102 0.125033,-0.0206 0.1875,-0.0312 0.261223,-0.0591 0.52167,-0.12158 0.78125,-0.1875 -0.01278,0.003 0.294011,-0.0657 0.28125,-0.0625 l 0,-0.0312 c 11.62548,-2.58552 19.72385,-6.35934 22.78125,-7.4375 0.22322,-0.0787 0.34241,-0.0828 0.5625,-0.15625 0.79455,0.29367 1.18136,0.37148 2.125,0.75 6.34509,2.54523 22.18801,9.63024 42.5625,9.3125 0.10422,-0.01 0.20839,-0.0203 0.3125,-0.0312 -0.0641,0.002 1.05329,-0.0472 1.4375,-0.0625 l 0,0.0312 c 0.0972,-0.005 0.18432,-0.0263 0.28125,-0.0312 19.16566,-0.97371 33.62294,-7.65844 40.09375,-10.1875 2.01109,-0.78602 3.30617,-1.19622 4.84375,-1.71875 0.55509,0.15445 1.07743,0.23086 1.625,0.4375 5.45441,2.0584 20.33145,8.65232 39.59375,9.03125 0.13541,9e-4 0.27084,9e-4 0.40625,0 -0.01,-6e-5 0.11945,2e-5 0.21875,0 0.19859,-4e-5 0.45665,-1.2e-4 0.4375,0 l 0,-0.0312 c 18.53368,0.0519 32.9932,-5.39329 39.28125,-7.375 2.60177,-0.81996 4.53394,-1.13497 6.1875,-1.4375 2.17355,0.43518 5.25231,1.0073 8.46875,2.09375 7.36687,2.48838 22.40521,8.27521 41.65625,8.28125 0.1279,4e-5 0.24673,4.7e-4 0.375,0 0.27755,-4e-5 0.55558,-2.1e-4 0.53125,0 0.13548,-0.01 0.2709,-0.0199 0.40625,-0.0312 19.76175,-0.43225 34.93539,-7.02297 41.5625,-9.5 2.50395,-0.93591 4.26052,-1.29986 5.9375,-1.6875 2.41136,0.47297 5.66568,1.07834 9,2.15625 7.61433,2.46154 22.27762,8.09437 41.28125,8.5 0.11452,0.0111 0.22911,0.0215 0.34375,0.0312 -0.0369,-3.9e-4 0.4708,-1.8e-4 0.8125,0 0.13142,7e-5 0.32669,-1.5e-4 0.3125,0 l 0,-0.0312 c 19.01734,-0.0651 33.96185,-5.70091 41.75,-8.4375 0.51559,-0.18117 0.84151,-0.26769 1.34375,-0.4375 4.10402,1.87461 8.89684,3.76511 14.71875,5.09375 0.0105,0.002 0.0208,-0.002 0.0312,0 0.033,0.007 0.65247,0.16218 0.625,0.15625 0.0104,10e-6 0.0208,10e-6 0.0312,0 10.34085,2.21345 26.21459,4.50714 43.28125,-0.6875 -0.72837,0.22219 15.99705,-7.97051 15.375,-7.53125 -0.62205,0.43926 12.70307,-12.58082 12.25,-11.96875 -0.45307,0.61207 8.11344,-15.91072 7.875,-15.1875 -0.23844,0.72322 2.71854,-17.66776 2.71875,-16.90625 l 0,-31.3125 c 2e-5,-0.0208 2e-5,-0.0417 0,-0.0625 6.7e-4,0.37244 -0.74508,-4.01825 -1.53125,-8.21875 1.65437,-5.98089 3.22022,-12.26319 3.21885,-11.71895 2e-5,-0.0208 2e-5,-0.0417 0,-0.0625 l 0,-31.3125 c 10e-6,-0.0104 10e-6,-0.0208 0,-0.0312 4.1e-4,0.48311 -1.22894,-5.13168 -2.53125,-10.5 1.30599,-5.36894 2.53231,-10.98291 2.53125,-10.5 2e-5,-0.0208 2e-5,-0.0417 0,-0.0625 l 0,-31.2813 c -1.1e-4,1.09127 -6.01247,-24.76069 -5.53125,-23.78125 0.35257,0.71761 -6.88724,-8.25639 -11.34375,-13.84375 11.02757,-15.31633 17.46875,-34.09001 17.46875,-54.03125 0,-30.62326 -15.25285,-58.49856 -38.96875,-75.28125 3.35686,-13.19724 3.51062,-28.57012 -0.53125,-42.1875 -3.34241,-11.26081 -10.28454,-24.614454 -23.8125,-34.90625 -13.77488,-10.479641 -29.12041,-14.029588 -44.0625,-13.5625 l 0,-0.09375 c 0.0192,7.7e-5 -0.45665,7.7e-5 -0.4375,0 z m -151.125,67.5 c 0,0 0.0933,3e-5 0.0937,0 -0.22503,0.16739 -0.38447,0.29707 -0.53125,0.40625 0.13303,-0.11805 0.4375,-0.40625 0.4375,-0.40625 z m -1.40625,1.25 c -0.55347,0.6527 -5.19116,6.12692 -5.375,6.34375 0.45866,-0.63818 2.40627,-3.34378 2.40625,-3.34375 l 1.9375,-2.09375 c 0,0 0.53296,-0.46407 1.03125,-0.90625 z m -5.53125,6.5625 c -0.0818,0.14623 -0.85866,1.55662 -1.1875,2.15625 0.36639,-0.6716 1.06282,-1.96928 1.0625,-1.96875 0,0 0.11282,-0.17056 0.125,-0.1875 z m -211.125,363.21875 c 0.14583,0.0417 0.85417,0.27083 1.0625,0.34375 -0.89075,-0.13671 -1.20847,-0.26498 -1.0625,-0.34375 z"
     id="path3998"
     inkscape:connector-curvature="0"
     sodipodi:nodetypes="ccscccsscccscccccccscccscscccccccccccccscsccccccccscccccscsccsccscsscccscsccsccsccccccsssccccccccccccscscsscccccccccccccccccccc" />
  <path
     inkscape:connector-curvature="0"
     clip-rule="evenodd"
     d="m 517.97737,320.08308 c -4.0727,1.2435 -9.3325,1.00505 -16.2319,-0.47046 -7.0123,-1.59602 -13.404,-9.03642 -25.0543,-8.62492 -11.9336,0.41408 -28.7886,11.10419 -45.0744,11.10419 -16.5166,-0.35125 -35.0663,-11.57721 -51.92,-11.57721 -16.7973,0.11921 -32.0678,11.75284 -48.1856,12.10794 -16.4012,0.0577 -32.74596,-10.86576 -48.80741,-11.10163 -16.28837,-0.41278 -31.72808,9.68764 -46.94217,9.56714 -14.9872,-0.29356 -28.27837,-11.04523 -43.15276,-10.57345 -15.2705,0.59353 -32.01138,12.40406 -46.94216,13.11299 -15.0436,0.23715 -28.67449,-10.98369 -41.96439,-11.10421 -13.402721,-0.23587 -28.447591,8.20957 -37.496821,10.10044 -9.04925,1.71524 -14.76158,1.89215 -16.91012,0.53201 l 0,31.30375 c 2.14854,1.35757 7.86087,1.18195 16.91012,-0.53201 9.04923,-1.89085 24.09282,-10.33631 37.496821,-10.10042 13.29118,0.11921 26.92079,11.34006 41.96439,11.10163 14.93078,-0.58843 31.67166,-12.69764 46.94216,-13.11172 14.87439,-0.5897 28.16428,10.39527 43.15276,10.63116 15.21409,0.1205 30.6538,-9.91967 46.94217,-9.62482 16.06145,0.23459 32.40621,11.15929 48.80741,11.10289 16.1178,-0.3551 31.3883,-11.99129 48.1856,-12.10923 16.8537,-0.0564 35.4034,11.34135 51.92,11.63877 16.2858,0 33.1421,-10.69397 45.0744,-11.10547 11.6503,-0.5333 18.042,7.0276 25.0543,8.56337 6.8994,1.47679 12.1592,1.71266 16.2319,0.47175 l 0,-31.30248 z"
     i:knockout="Off"
     id="path113-9"
     style="color:#000000;fill:#b01d1d;fill-opacity:1;fill-rule:nonzero;stroke-width:1;stroke-linecap:butt;stroke-linejoin:miter;stroke-miterlimit:4;stroke-opacity:1;stroke-dasharray:none;stroke-dashoffset:0;marker:none;visibility:visible;display:inline;overflow:visible;enable-background:accumulate" />
  <path
     inkscape:connector-curvature="0"
     clip-rule="evenodd"
     d="M 249.95653,303.43066 379.35577,234.3878 c -10.1773,-22.3263 -17.3613,-39.15694 -21.5468,-51.14694 -4.2997,-11.93105 -6.1085,-14.58851 -3.6766,-20.25854 2.4882,-5.84695 -0.9615,-6.73276 17.9856,-14.46929 18.9446,-8.03266 75.6141,-31.06659 94.1074,-32.18829 18.0985,-0.9448 17.3639,19.01761 14.3667,25.75166 -3.2817,6.55458 -20.1354,8.20828 -32.9164,13.40655 -12.9528,4.96111 -27.2041,10.51193 -43.6617,16.655 l 59.2129,130.28893 c -7.6339,6.55459 -17.7587,9.09667 -31.4447,8.09036 -13.913,-1.35502 -32.464,-14.58465 -49.7689,-14.64747 -17.2498,0.0628 -36.9315,14.82693 -52.7096,15.12049 -15.8359,-0.0602 -28.3912,-12.81556 -41.62598,-14.11288 -13.28862,-1.30375 -25.78756,0.88068 -37.72116,6.55328 z"
     i:knockout="Off"
     id="path115-2"
     style="color:#000000;fill:#b01d1d;fill-opacity:1;fill-rule:nonzero;stroke-width:1;stroke-linecap:butt;stroke-linejoin:miter;stroke-miterlimit:4;stroke-opacity:1;stroke-dasharray:none;stroke-dashoffset:0;marker:none;visibility:visible;display:inline;overflow:visible;enable-background:accumulate" />
  <path
     inkscape:connector-curvature="0"
     clip-rule="evenodd"
     d="m 482.44067,190.68894 c 19.9496,0 36.138,16.90626 36.138,37.73911 0,20.83285 -16.1897,37.7391 -36.138,37.7391 -19.9483,0 -36.1392,-16.90625 -36.1392,-37.7391 0,-20.83285 16.1896,-37.73911 36.1392,-37.73911"
     i:knockout="Off"
     id="path117-2"
     style="color:#000000;fill:#b01d1d;fill-opacity:1;fill-rule:nonzero;stroke-width:1;stroke-linecap:butt;stroke-linejoin:miter;stroke-miterlimit:4;stroke-opacity:1;stroke-dasharray:none;stroke-dashoffset:0;marker:none;visibility:visible;display:inline;overflow:visible;enable-background:accumulate" />
  <path
     inkscape:connector-curvature="0"
     clip-rule="evenodd"
     d="m 162.63445,305.96889 c -15.3269,-2.83565 -30.93583,-7.20194 -47.90234,-13.11297 -17.080601,-6.25716 -46.206341,-14.64619 -53.107041,-22.85575 -6.89942,-8.44544 -1.86651,-25.33632 12.04769,-26.10421 13.96806,-0.76787 41.681101,11.63492 70.468391,21.91225 28.6168,10.16067 61.36275,22.85831 99.99152,38.74543 -4.75087,2.5985 -11.02857,3.42535 -19.05992,2.24339 -8.1442,-1.36014 -18.43689,-8.86078 -28.90012,-9.09538 -10.51962,-0.17819 -21.54817,2.65747 -33.53818,8.26724 z"
     i:knockout="Off"
     id="path119-5"
     style="color:#000000;fill:#b01d1d;fill-opacity:1;fill-rule:nonzero;stroke-width:1;stroke-linecap:butt;stroke-linejoin:miter;stroke-miterlimit:4;stroke-opacity:1;stroke-dasharray:none;stroke-dashoffset:0;marker:none;visibility:visible;display:inline;overflow:visible;enable-background:accumulate" />
  <path
     inkscape:connector-curvature="0"
     clip-rule="evenodd"
     d="m 517.97737,372.47351 c -4.0727,1.12042 -9.3325,0.9448 -16.2319,-0.532 -7.0123,-1.53449 -13.404,-9.09794 -25.0543,-8.56593 -11.9336,0.41278 -28.7886,11.10289 -45.0744,11.10289 -16.5166,-0.35254 -35.0663,-11.57465 -51.92,-11.57465 -16.7973,0.11922 -32.0678,11.75414 -48.1856,12.10666 -16.4012,0.0602 -32.74596,-10.86574 -48.80741,-11.1029 -16.28837,-0.41408 -31.72808,9.68635 -46.94217,9.56842 -14.9872,-0.29485 -28.27837,-11.04522 -43.15276,-10.57218 -15.2705,0.58968 -32.01138,12.40151 -46.94216,13.113 -15.0436,0.23459 -28.67449,-10.98754 -41.96439,-11.10548 -13.402721,-0.2346 -28.447591,8.20956 -37.496821,10.10043 -9.04925,1.83317 -14.76158,1.77165 -16.91012,0.47304 l 0,31.30246 c 2.14854,1.2986 7.86087,1.36014 16.91012,-0.47303 9.04923,-1.89215 24.09282,-10.33502 37.496821,-10.10042 13.29118,0.11793 26.92079,11.34005 41.96439,11.10545 14.93078,-0.71147 31.67166,-12.52329 46.94216,-13.11298 14.87439,-0.47303 28.16428,10.27733 43.15276,10.57218 15.21409,0.11794 30.6538,-9.98249 46.94217,-9.56843 16.06145,0.23717 32.40621,11.16317 48.80741,11.10292 16.1178,-0.35255 31.3883,-11.99129 48.1856,-12.10667 16.8537,0 35.4034,11.22212 51.92,11.57466 16.2858,0 33.1421,-10.69012 45.0744,-11.10292 11.6503,-0.41406 18.042,7.02633 25.0543,8.62363 6.8994,1.47681 12.1592,1.71396 16.2319,0.47434 l 0,-31.30249 z"
     i:knockout="Off"
     id="path121-9"
     style="color:#000000;fill:#b01d1d;fill-opacity:1;fill-rule:nonzero;stroke-width:1;stroke-linecap:butt;stroke-linejoin:miter;stroke-miterlimit:4;stroke-opacity:1;stroke-dasharray:none;stroke-dashoffset:0;marker:none;visibility:visible;display:inline;overflow:visible;enable-background:accumulate" />
  <path
     inkscape:connector-curvature="0"
     clip-rule="evenodd"
     d="m 516.29387,423.84776 c -4.0727,1.12042 -9.3325,0.9448 -16.2319,-0.532 -7.0123,-1.53449 -13.404,-9.09794 -25.0543,-8.56593 -11.9336,0.41278 -28.7886,11.10289 -45.0744,11.10289 -16.5166,-0.35254 -35.0663,-11.57465 -51.92,-11.57465 -16.7973,0.11922 -32.0678,11.75414 -48.1856,12.10666 -16.4012,0.0602 -32.74596,-10.86574 -48.80741,-11.1029 -16.28837,-0.41408 -31.72808,9.68635 -46.94217,9.56842 -14.9872,-0.29485 -28.27837,-11.04522 -43.15276,-10.57218 -15.2705,0.58968 -32.01138,12.40151 -46.94216,13.113 -15.0436,0.23459 -28.67449,-10.98754 -41.96439,-11.10548 -13.402721,-0.2346 -28.447591,8.20956 -37.496821,10.10043 -9.04924,1.83317 -14.76157,1.77165 -16.91012,0.47304 l 0,31.30246 c 2.14855,1.2986 7.86088,1.36014 16.91012,-0.47303 9.04923,-1.89215 24.09283,-10.33502 37.496821,-10.10042 13.29118,0.11793 26.92079,11.34005 41.96439,11.10545 14.93078,-0.71147 31.67166,-12.52329 46.94216,-13.11298 14.87439,-0.47303 28.16428,10.27733 43.15276,10.57218 15.21409,0.11794 30.6538,-9.98249 46.94217,-9.56843 16.06145,0.23717 32.40621,11.16317 48.80741,11.10292 16.1178,-0.35255 31.3883,-11.99129 48.1856,-12.10667 16.8537,0 35.4034,11.22212 51.92,11.57466 16.2858,0 33.1421,-10.69012 45.0744,-11.10292 11.6503,-0.41406 18.042,7.02633 25.0543,8.62363 6.8994,1.47681 12.1592,1.71396 16.2319,0.47434 l 0,-31.30249 z"
     i:knockout="Off"
     id="path4736-3"
     style="color:#000000;fill:#b01d1d;fill-opacity:1;fill-rule:nonzero;stroke-width:1;stroke-linecap:butt;stroke-linejoin:miter;stroke-miterlimit:4;stroke-opacity:1;stroke-dasharray:none;stroke-dashoffset:0;marker:none;visibility:visible;display:inline;overflow:visible;enable-background:accumulate" />
</svg>
