<?xml version="1.0" encoding="UTF-8" standalone="no"?>
<!-- Created with Inkscape (http://www.inkscape.org/) -->

<svg
   xmlns:dc="http://purl.org/dc/elements/1.1/"
   xmlns:cc="http://creativecommons.org/ns#"
   xmlns:rdf="http://www.w3.org/1999/02/22-rdf-syntax-ns#"
   xmlns:svg="http://www.w3.org/2000/svg"
   xmlns="http://www.w3.org/2000/svg"
   xmlns:sodipodi="http://sodipodi.sourceforge.net/DTD/sodipodi-0.dtd"
   xmlns:inkscape="http://www.inkscape.org/namespaces/inkscape"
   version="1.0"
   width="580"
   height="580"
   id="svg2"
   sodipodi:version="0.32"
   inkscape:version="0.48.4 r9939"
   sodipodi:docname="seaplane_landing_area.svg"
   inkscape:output_extension="org.inkscape.output.svg.inkscape">
  <metadata
     id="metadata2975">
    <rdf:RDF>
      <cc:Work
         rdf:about="">
        <dc:format>image/svg+xml</dc:format>
        <dc:type
           rdf:resource="http://purl.org/dc/dcmitype/StillImage" />
        <cc:license
           rdf:resource="http://web.resource.org/cc/PublicDomain" />
        <dc:language>en</dc:language>
        <dc:title></dc:title>
      </cc:Work>
    </rdf:RDF>
  </metadata>
  <sodipodi:namedview
     inkscape:window-height="1004"
     inkscape:window-width="1920"
     inkscape:pageshadow="2"
     inkscape:pageopacity="0.0"
     guidetolerance="10.0"
     gridtolerance="10.0"
     objecttolerance="10.0"
     borderopacity="1.0"
     bordercolor="#666666"
     pagecolor="#ffffff"
     id="base"
     inkscape:zoom="0.11520964"
     inkscape:cx="-783.21513"
     inkscape:cy="1081.1227"
     inkscape:window-x="1680"
     inkscape:window-y="0"
     inkscape:current-layer="svg2"
     showgrid="false"
     inkscape:window-maximized="1" />
  <defs
     id="defs4">
    <inkscape:perspective
       sodipodi:type="inkscape:persp3d"
       inkscape:vp_x="0 : 290 : 1"
       inkscape:vp_y="0 : 1000 : 0"
       inkscape:vp_z="580 : 290 : 1"
       inkscape:persp3d-origin="290 : 193.33333 : 1"
       id="perspective10" />
  </defs>
  <path
     sodipodi:type="inkscape:offset"
     inkscape:radius="20.317335"
     inkscape:original="M 503.6875 151.8125 C 501.9944 151.8297 500.21474 152.22838 498.40625 153.03125 C 491.1722 156.24278 487.17261 164.2683 489.3125 172.71875 L 512.46875 241.28125 C 489.83763 233.66457 457.57664 230.7168 431.4375 230.8125 C 425.81386 230.8331 420.46179 230.99483 415.5625 231.28125 L 412.875 218.28125 C 407.59861 221.3335 402.32078 224.40347 395.15625 227.84375 L 396.34375 233.53125 C 387.44598 266.82283 371.97778 277.85488 309.6875 290.65625 C 286.93322 295.33252 273.30374 284.76409 267.96875 279.25 L 263.375 256.875 C 255.82244 258.42714 249.78942 257.71089 244.125 258.875 L 248.8125 281.75 C 205.4775 296.57187 119.34375 326.875 119.34375 326.875 L 93.25 289.78125 C 83.75724 281.89268 71.48247 275.44055 59.9375 274.75 L 22.9375 272.53125 L 49.9375 397.78125 C 59.09424 413.61043 119.14197 388.46591 139.1875 390.25 C 198.02301 392.73957 233.11068 402.13824 354.96875 379.46875 L 383.21875 399.53125 C 384.27883 385.53819 401.625 374.09375 401.625 374.09375 L 396.8125 370.90625 C 452.56351 356.89798 502.95219 325.15758 526.5 296.78125 L 539.21875 369.90625 C 541.35864 378.3567 548.23469 381.58654 555.46875 378.375 C 562.70272 375.16349 566.7024 367.10669 564.5625 358.65625 L 537.71875 279.21875 C 540.22715 273.3185 541.15061 267.80722 540.15625 262.96875 C 539.09193 257.78985 535.44134 253.34997 529.96875 249.5625 L 514.625 161.5 C 513.02008 155.16215 508.7668 151.76079 503.6875 151.8125 z M 408.28125 152.59375 C 405.41022 152.53805 401.96381 153.12364 397.8125 154.46875 C 384.98353 159.07314 306.11785 187.11626 214.375 209.90625 C 203.04616 212.23446 195.47126 213.78302 198.1875 227 C 200.12767 236.44071 233.85434 247.20371 313.15625 230.90625 C 388.68192 215.38487 428.27106 197.42901 422.0625 167.21875 C 420.31634 158.72211 416.89433 152.7608 408.28125 152.59375 z M 447.25 280.0625 C 455.86308 280.22955 459.31634 286.1596 461.0625 294.65625 C 467.27106 324.86651 427.68192 342.85362 352.15625 358.375 C 272.85434 374.67246 239.12767 363.87821 237.1875 354.4375 C 234.47126 341.22052 242.04616 339.67196 253.375 337.34375 C 345.11785 314.55376 423.95228 286.54189 436.78125 281.9375 C 440.93256 280.59239 444.37897 280.00682 447.25 280.0625 z M 443.625 383.03125 C 440.59123 383.03425 437.52496 383.33424 434.4375 383.96875 C 409.73783 389.04482 393.83018 413.20658 398.90625 437.90625 C 403.98232 462.60592 428.11283 478.51357 452.8125 473.4375 C 477.51217 468.36143 493.41982 444.19967 488.34375 419.5 C 483.90219 397.88779 464.86142 383.01328 443.625 383.03125 z "
     style="opacity:0.42608696;color:#000000;fill:#acd8f3;fill-opacity:1;fill-rule:nonzero;stroke:#a35151;stroke-width:0;stroke-linecap:round;stroke-linejoin:miter;stroke-miterlimit:4;stroke-opacity:1;stroke-dasharray:none;stroke-dashoffset:0;marker:none;visibility:visible;display:inline;overflow:visible;enable-background:accumulate"
     id="path4099"
     d="m 503.46875,131.5 c -4.73745,0.0481 -9.2659,1.17228 -13.3125,2.96875 -16.16873,7.17805 -24.90148,25.99191 -20.53125,43.25 a 20.319367,20.319367 0 0 0 0.4375,1.5 l 11.65625,34.46875 C 464.72135,211.32309 447.31764,210.45164 431.625,210.5 a 20.319367,20.319367 0 0 0 -2.28125,-4.09375 c 2.17278,-2.34838 4.18817,-4.85799 5.96875,-7.59375 6.63016,-10.18689 9.14537,-23.57569 6.65625,-35.6875 -1.2113,-5.89405 -3.03947,-12.69106 -8.625,-19.375 -5.58553,-6.68394 -15.71715,-11.29538 -24.65625,-11.46875 -5.94742,-0.11538 -11.48177,1.04648 -17.125,2.875 a 20.319367,20.319367 0 0 0 -0.625,0.1875 c -12.57905,4.51469 -90.63487,32.26145 -181.0625,54.75 -5.59978,1.09851 -12.54628,1.33034 -21.40625,8.28125 -4.52599,3.55078 -8.70096,9.68292 -10.21875,15.8125 -1.51779,6.12958 -1.0384,11.70143 0.0312,16.90625 2.66833,12.98389 11.64352,17.94146 19.28125,21.34375 7.41911,3.3049 15.88367,5.16818 26.25,6.25 a 20.319367,20.319367 0 0 0 0.40625,4.28125 l 1.125,5.46875 c -39.72887,13.73338 -84.77645,29.50441 -98.1875,34.21875 L 109.875,278.09375 a 20.319367,20.319367 0 0 0 -3.625,-3.9375 C 94.3241,264.24572 79.373816,255.55841 61.15625,254.46875 l -37,-2.21875 A 20.319367,20.319367 0 0 0 3.0625,276.8125 l 27,125.25 a 20.319367,20.319367 0 0 0 2.28125,5.90625 c 4.138008,7.15334 11.184348,11.40204 16.96875,13.28125 5.784402,1.87921 10.910196,2.16523 15.90625,2.09375 9.992107,-0.14296 19.769488,-2.06858 29.59375,-4.21875 9.82426,-2.15017 19.54273,-4.63963 27.5625,-6.375 8.01977,-1.73537 15.0784,-2.24302 15,-2.25 a 20.319367,20.319367 0 0 0 0.96875,0.0625 c 55.57486,2.3516 95.37634,11.16761 211.71875,-9.65625 l 21.40625,15.1875 a 20.319367,20.319367 0 0 0 6.96875,3.1875 C 377.34339,426.65442 377.42176,434.32042 379,442 c 7.28567,35.45137 42.45207,58.63 77.90625,51.34375 35.46748,-7.28898 58.63068,-42.48001 51.34375,-77.9375 -4.75018,-23.11395 -21.25493,-41.02221 -42.0625,-48.65625 17.4354,-8.70276 33.14781,-18.71676 46.75,-29.34375 l 6.25,35.96875 a 20.319367,20.319367 0 0 0 0.34375,1.53125 c 2.18998,8.64824 7.90255,17.29022 16.71875,21.75 8.8162,4.45978 19.36114,3.8806 27.46875,0.28125 16.21337,-7.1979 24.90447,-26.01146 20.53125,-43.28125 a 20.319367,20.319367 0 0 0 -0.4375,-1.5 L 559.125,279.125 c 1.70993,-6.33213 2.40323,-13.11786 0.9375,-20.25 -1.6916,-8.23118 -6.09104,-14.72859 -11.28125,-19.875 l -14.125,-81 a 20.319367,20.319367 0 0 0 -0.34375,-1.5 c -3.27719,-12.94168 -16.58005,-25.14521 -30.84375,-25 z M 374.3125,236.28125 c -2.84714,8.25373 -5.94513,12.17737 -12.5625,16.59375 -8.48198,5.66081 -25.81357,11.63923 -56.15625,17.875 -10.12089,2.07996 -15.68856,-0.0261 -19.125,-2.375 l -2.4375,-11.9375 c 10.24764,-1.39212 21.10339,-3.13515 33.21875,-5.625 21.81893,-4.48404 40.59183,-9.17407 57.0625,-14.53125 z m 67.09375,65.5625 c -0.14586,0.64753 -0.48868,1.22383 -1.15625,2.25 -1.40889,2.16571 -5.33021,6.02525 -12.78125,10.125 -14.90207,8.19949 -42.47362,16.65993 -79.40625,24.25 -17.59291,3.61555 -32.43212,5.66851 -45.15625,6.8125 70.25435,-19.38609 125.15258,-38.66375 138.5,-43.4375 z M 252.75,342.46875 c 0.0851,0.0153 0.36687,0.25003 0.5625,0.375 -0.0404,-0.0173 -0.18154,-0.0459 -0.21875,-0.0625 -0.42777,-0.19082 -0.50532,-0.34147 -0.34375,-0.3125 z"
     transform="translate(-1.5343915,0)" />
  <path
     inkscape:connector-curvature="0"
     d="m 496.7761,152.57936 c -7.23405,3.21153 -11.23298,11.25381 -9.09309,19.70426 l 32.19935,95.37709 17.73124,101.80013 c 2.13989,8.45045 8.99199,11.67545 16.22605,8.46391 7.23397,-3.21151 11.23291,-11.25381 9.09301,-19.70425 l -32.19928,-95.37708 -17.7313,-101.80013 c -2.1399,-8.45047 -8.992,-11.67544 -16.22598,-8.46393 z"
     id="path3"
     style="color:#000000;fill:#b01d1d;fill-opacity:1;fill-rule:nonzero;stroke:none;stroke-width:37.29100418;marker:none;visibility:visible;display:inline;overflow:visible;enable-background:accumulate" />
  <path
     style="color:#000000;fill:#b01d1d;fill-opacity:1;fill-rule:nonzero;stroke:none;stroke-width:37.29100418;marker:none;visibility:visible;display:inline;overflow:visible;enable-background:accumulate"
     d="m 429.80936,230.375 c -14.47153,0.053 -27.06914,1.03835 -35.09375,2.6875 -8.89653,33.31453 -24.3476,44.3511 -86.65625,57.15625 -30.21028,6.20856 -44.3125,-14.5 -44.3125,-14.5 C 232.4245,286.09163 117.71561,326.4375 117.71561,326.4375 L 91.621858,289.34375 c -9.49276,-7.88857 -21.767522,-14.3407 -33.3125,-15.03125 l -37,-2.21875 27,125.25 c 9.156739,15.82918 69.204472,-9.31534 89.250002,-7.53125 63.52485,2.688 99.28751,13.4542 246.5625,-16.8125 84.96632,-17.46156 161.00284,-78.37037 154.40625,-110.46875 -4.94744,-24.07381 -65.30415,-32.3152 -108.71875,-32.15625 z m 15.8125,49.25 c 8.61308,0.16705 12.06634,6.0971 13.8125,14.59375 6.20856,30.21026 -33.38058,48.19737 -108.90625,63.71875 -79.30191,16.29746 -113.02858,5.50321 -114.96875,-3.9375 -2.71624,-13.21698 4.85866,-14.76554 16.1875,-17.09375 91.74285,-22.78999 170.57728,-50.80186 183.40625,-55.40625 4.15131,-1.34511 7.59772,-1.93068 10.46875,-1.875 z"
     id="path5"
     inkscape:connector-curvature="0" />
  <circle
     transform="matrix(29.815144,-6.1273541,6.1273541,29.815144,-229.05706,-39.785019)"
     sodipodi:ry="1.5"
     sodipodi:rx="1.5"
     sodipodi:cy="19.5"
     sodipodi:cx="18.5"
     cx="18.5"
     cy="19.5"
     r="1.5"
     id="circle7"
     style="color:#000000;fill:#b01d1d;fill-opacity:1;fill-rule:nonzero;stroke:none;stroke-width:1.97110629;marker:none;visibility:visible;display:inline;overflow:visible;enable-background:accumulate" />
  <path
     inkscape:connector-curvature="0"
     d="m 349.35092,376.19292 32.25446,22.88964 c 1.06008,-13.99306 18.38931,-25.42596 18.38931,-25.42596 l -11.38086,-7.50054 c -26.43394,5.43248 -33.5985,8.87277 -39.26291,10.03686 z"
     id="path9"
     style="color:#000000;fill:#b01d1d;fill-opacity:1;fill-rule:nonzero;stroke:none;stroke-width:37.29100418;marker:none;visibility:visible;display:inline;overflow:visible;enable-background:accumulate" />
  <path
     inkscape:connector-curvature="0"
     d="m 396.18583,154.03604 c -12.82897,4.60439 -91.69085,32.61873 -183.4337,55.40872 -11.32884,2.32821 -18.88143,3.88035 -16.16519,17.09733 1.94017,9.44071 35.64277,20.22543 114.94468,3.92797 75.52567,-15.52138 115.12461,-33.49886 108.91605,-63.70912 -2.32821,-11.32886 -7.6566,-18.10535 -24.26184,-12.7249 z"
     id="path11"
     style="color:#000000;fill:#b01d1d;fill-opacity:1;fill-rule:nonzero;stroke:none;stroke-width:37.29100418;marker:none;visibility:visible;display:inline;overflow:visible;enable-background:accumulate" />
  <g
     transform="matrix(18.881412,-3.8803468,3.8803468,18.881412,-2.8363696,117.96648)"
     id="g13"
     style="color:#000000;fill:#b01d1d;fill-opacity:1;fill-rule:nonzero;stroke:none;stroke-width:1.97110629;marker:none;visibility:visible;display:inline;overflow:visible;enable-background:accumulate">
    <path
       inkscape:connector-curvature="0"
       d="M 11,9.7 V 12 h 1 V 9.8 c -0.4,0 -0.7,-0.1 -1,-0.1 z"
       id="path15"
       style="color:#000000;fill:#b01d1d;fill-opacity:1;fill-rule:nonzero;stroke:none;stroke-width:1.97110629;marker:none;visibility:visible;display:inline;overflow:visible;enable-background:accumulate" />
    <path
       inkscape:connector-curvature="0"
       d="M 19,9.7 V 12 h 1 V 9.4 c -0.3,0.1 -0.6,0.2 -1,0.3 z"
       id="path17"
       style="color:#000000;fill:#b01d1d;fill-opacity:1;fill-rule:nonzero;stroke:none;stroke-width:1.97110629;marker:none;visibility:visible;display:inline;overflow:visible;enable-background:accumulate" />
  </g>
</svg>
