# Blender 4.2.0
# www.blender.org
mtllib map_car_bearing.mtl
o map_car_bearing
v 0.000000 -0.000000 -1.116614
v 0.000000 0.000000 3.931342
v 1.886654 -0.000000 -2.068658
v 1.717170 -0.000000 -2.017652
v 2.235046 -0.000000 -1.730352
v 2.203033 -0.000000 -1.554889
v 2.185416 -0.000000 -1.910688
v 2.055561 -0.000000 -2.032981
v 0.382250 0.000000 3.687655
v 0.215299 0.000000 3.878302
v 0.314647 0.000000 3.796900
v 0.000000 0.350322 -0.942098
v 0.000000 0.350322 3.772168
v 1.893355 0.350322 -1.909279
v 1.775796 0.350322 -1.873899
v 2.076779 0.350322 -1.723366
v 2.053245 0.350322 -1.594376
v 2.048026 0.350322 -1.827845
v 1.981277 0.350322 -1.890707
v 0.241972 0.350322 3.620789
v 0.144481 0.350322 3.736574
v 0.196899 0.350322 3.693624
v -1.886654 -0.000000 -2.068658
v -1.717170 -0.000000 -2.017652
v -2.235046 -0.000000 -1.730352
v -2.203033 -0.000000 -1.554889
v -2.185416 -0.000000 -1.910688
v -2.055561 -0.000000 -2.032981
v -0.382250 0.000000 3.687655
v -0.215299 0.000000 3.878302
v -0.314647 0.000000 3.796900
v -1.893355 0.350322 -1.909279
v -1.775796 0.350322 -1.873899
v -2.076779 0.350322 -1.723366
v -2.053245 0.350322 -1.594376
v -2.048026 0.350322 -1.827845
v -1.981277 0.350322 -1.890707
v -0.241972 0.350322 3.620789
v -0.144481 0.350322 3.736574
v -0.196899 0.350322 3.693624
v 1.717170 0.350322 -2.017652
v 0.000000 0.350322 -1.116614
v 2.203033 0.350322 -1.554889
v 2.235046 0.350322 -1.730352
v 2.185416 0.350322 -1.910688
v 2.055561 0.350322 -2.032981
v 1.886654 0.350322 -2.068658
v 0.000000 0.350322 3.931342
v 0.215299 0.350322 3.878302
v 0.314647 0.350322 3.796900
v 0.382250 0.350322 3.687655
v -1.717170 0.350322 -2.017652
v -2.203033 0.350322 -1.554889
v -2.235046 0.350322 -1.730352
v -2.185416 0.350322 -1.910688
v -2.055561 0.350322 -2.032981
v -1.886654 0.350322 -2.068658
v -0.215299 0.350322 3.878302
v -0.314647 0.350322 3.796900
v -0.382250 0.350322 3.687655
v 0.000000 0.350322 -0.585813
v 1.656135 0.350322 -1.436057
v 0.000000 0.350322 3.302984
v -1.656135 0.350322 -1.436057
v 0.000000 0.999800 -0.000000
v 0.000000 0.000000 0.000000
vn -0.0000 1.0000 -0.0000
vn -0.0000 -1.0000 -0.0000
vn 0.8567 -0.0000 -0.5158
vn 0.9990 -0.0000 -0.0440
vn 0.9671 -0.0000 0.2545
vn 0.9030 -0.0000 0.4297
vn 0.4475 -0.0000 0.8943
vn -0.0000 -0.0000 1.0000
vn 0.4634 -0.0000 -0.8862
vn -0.0000 -0.0000 -1.0000
vn -0.3781 -0.0000 -0.9258
vn 0.7523 -0.0000 0.6588
vn -0.0421 -0.0000 -0.9991
vn -0.9990 -0.0000 -0.0440
vn -0.8567 -0.0000 -0.5158
vn -0.9030 -0.0000 0.4297
vn -0.9671 -0.0000 0.2545
vn -0.4475 -0.0000 0.8943
vn -0.4634 -0.0000 -0.8862
vn 0.3781 -0.0000 -0.9258
vn -0.7523 -0.0000 0.6588
vn 0.0421 -0.0000 -0.9991
vn -0.3562 0.6258 -0.6939
vn 0.4833 0.8590 0.1689
vn 0.3562 0.6258 -0.6939
vn -0.4833 0.8590 0.1689
vt 0.000000 0.000000
vt 0.829454 0.019407
vt 0.883729 0.024312
vt 0.500000 0.000000
vt 0.110601 0.000000
vt 1.000000 0.023821
vt 0.631909 1.000000
vt 0.868091 1.000000
vt 1.000000 0.981557
vt 0.822087 0.000000
vt 0.363154 1.000000
vt 0.000000 0.947292
vt 0.957309 0.002880
vt 0.136846 1.000000
vt 0.230320 0.936744
vt 0.199895 0.207296
vt 0.706457 0.973514
vt 0.569866 0.979228
vt 0.430523 0.978397
vt 0.313743 0.969159
vt 0.739757 0.016815
vt 0.926369 0.035321
vt 0.795452 0.956643
vt 0.795453 0.956643
vt 0.829455 0.019407
s 1
usemtl bridge
f 38/1/1 64/1/1 35/1/1
f 38/1/1 40/1/1 63/1/1
f 40/1/1 39/1/1 63/1/1
f 39/1/1 13/1/1 63/1/1
f 13/1/1 21/1/1 63/1/1
f 21/2/1 22/3/1 63/1/1
f 22/1/1 20/1/1 63/1/1
f 20/1/1 62/1/1 63/1/1
f 17/1/1 16/1/1 62/1/1
f 16/1/1 18/1/1 62/1/1
f 18/1/1 19/1/1 62/1/1
f 19/1/1 14/1/1 62/1/1
f 14/1/1 15/1/1 62/1/1
f 12/1/1 62/1/1 15/1/1
f 12/1/1 64/1/1 61/1/1
f 33/1/1 32/1/1 64/1/1
f 32/1/1 37/1/1 64/1/1
f 37/1/1 36/1/1 64/1/1
f 36/1/1 34/1/1 64/1/1
f 34/1/1 35/1/1 64/1/1
f 38/1/1 63/1/1 64/1/1
f 20/1/1 17/1/1 62/1/1
f 12/1/1 61/1/1 62/1/1
f 12/1/1 33/1/1 64/1/1
usemtl profile_color
f 2/4/2 66/5/2 9/6/2
f 7/7/3 44/8/4 5/8/4
f 6/9/5 51/6/6 9/6/6
f 10/10/7 48/4/8 2/4/8
f 8/11/9 45/7/3 7/7/3
f 1/1/10 41/12/11 4/12/11
f 11/13/12 49/10/7 10/10/7
f 3/14/13 46/11/9 8/11/9
f 5/8/4 43/9/5 6/9/5
f 9/6/6 50/13/12 11/13/12
f 4/12/11 47/14/13 3/14/13
f 23/14/2 24/12/2 25/8/2
f 54/8/14 27/7/15 25/8/14
f 60/6/16 26/9/17 29/6/16
f 48/4/8 30/10/18 2/4/8
f 55/7/15 28/11/19 27/7/15
f 52/12/20 1/1/10 24/12/20
f 58/10/18 31/13/21 30/10/18
f 56/11/19 23/14/22 28/11/19
f 53/9/17 25/8/14 26/9/17
f 59/13/21 29/6/16 31/13/21
f 57/14/22 24/12/20 23/14/22
f 15/15/1 42/1/1 12/16/1
f 16/17/1 43/9/1 44/8/1
f 18/18/1 44/8/1 45/7/1
f 18/18/1 46/11/1 19/19/1
f 19/19/1 47/14/1 14/20/1
f 14/20/1 41/12/1 15/15/1
f 13/21/1 49/10/1 21/2/1
f 21/2/1 50/13/1 22/3/1
f 22/3/1 51/6/1 20/22/1
f 20/22/1 43/9/1 17/23/1
f 33/15/1 42/1/1 52/12/1
f 34/17/1 53/9/1 35/24/1
f 36/18/1 54/8/1 34/17/1
f 36/18/1 56/11/1 55/7/1
f 37/19/1 57/14/1 56/11/1
f 32/20/1 52/12/1 57/14/1
f 13/21/1 58/10/1 48/4/1
f 39/25/1 59/13/1 58/10/1
f 40/3/1 60/6/1 59/13/1
f 38/22/1 53/9/1 60/6/1
f 61/1/23 65/1/23 62/1/23
f 63/1/24 62/1/24 65/1/24
f 61/1/25 64/1/25 65/1/25
f 63/1/26 65/1/26 64/1/26
f 66/5/2 1/1/2 6/9/2
f 1/1/2 4/12/2 6/9/2
f 4/12/2 3/14/2 5/8/2
f 3/14/2 8/11/2 7/7/2
f 5/8/2 3/14/2 7/7/2
f 5/8/2 6/9/2 4/12/2
f 6/9/2 9/6/2 66/5/2
f 9/6/2 11/13/2 10/10/2
f 10/10/2 2/4/2 9/6/2
f 7/7/3 45/7/3 44/8/4
f 6/9/5 43/9/5 51/6/6
f 10/10/7 49/10/7 48/4/8
f 8/11/9 46/11/9 45/7/3
f 1/1/10 42/1/10 41/12/11
f 11/13/12 50/13/12 49/10/7
f 3/14/13 47/14/13 46/11/9
f 5/8/4 44/8/4 43/9/5
f 9/6/6 51/6/6 50/13/12
f 4/12/11 41/12/11 47/14/13
f 24/12/2 1/1/2 26/9/2
f 1/1/2 66/5/2 26/9/2
f 66/5/2 2/4/2 29/6/2
f 2/4/2 30/10/2 29/6/2
f 30/10/2 31/13/2 29/6/2
f 29/6/2 26/9/2 66/5/2
f 26/9/2 25/8/2 24/12/2
f 25/8/2 27/7/2 23/14/2
f 27/7/2 28/11/2 23/14/2
f 54/8/14 55/7/15 27/7/15
f 60/6/16 53/9/17 26/9/17
f 48/4/8 58/10/18 30/10/18
f 55/7/15 56/11/19 28/11/19
f 52/12/20 42/1/10 1/1/10
f 58/10/18 59/13/21 31/13/21
f 56/11/19 57/14/22 23/14/22
f 53/9/17 54/8/14 25/8/14
f 59/13/21 60/6/16 29/6/16
f 57/14/22 52/12/20 24/12/20
f 15/15/1 41/12/1 42/1/1
f 16/17/1 17/23/1 43/9/1
f 18/18/1 16/17/1 44/8/1
f 18/18/1 45/7/1 46/11/1
f 19/19/1 46/11/1 47/14/1
f 14/20/1 47/14/1 41/12/1
f 13/21/1 48/4/1 49/10/1
f 21/2/1 49/10/1 50/13/1
f 22/3/1 50/13/1 51/6/1
f 20/22/1 51/6/1 43/9/1
f 33/15/1 12/16/1 42/1/1
f 34/17/1 54/8/1 53/9/1
f 36/18/1 55/7/1 54/8/1
f 36/18/1 37/19/1 56/11/1
f 37/19/1 32/20/1 57/14/1
f 32/20/1 33/15/1 52/12/1
f 13/21/1 39/25/1 58/10/1
f 39/25/1 40/3/1 59/13/1
f 40/3/1 38/22/1 60/6/1
f 38/22/1 35/24/1 53/9/1
