<svg width="48" height="48" fill="none" version="1.1" viewBox="0 0 580 580" xmlns="http://www.w3.org/2000/svg">
 <g transform="matrix(1.7016 0 0 1.7016 -60.542 -182.56)" fill="#000000">
  <path d="m186.09 203.22c-10.603-2.442-17.296 0.903-21.144 5.737l-20.354 25.356c-5.593-0.697-16.464 2.214-18.707 11.954l-8.355 36.281 13.416 3.09-2.672 11.603c-3.288 14.275 21.953 19.911 25.202 5.804l2.672-11.603 45.334 10.44 0.014 3e-3 45.333 10.441-2.672 11.603c-3.249 14.107 21.914 20.079 25.202 5.804l2.672-11.603 13.417 3.089 8.355-36.281c2.243-9.74-6.259-17.112-11.594-18.932l-7.228-31.709c-1.346-6.029-5.902-11.965-16.505-14.406l-52.666-12.129-19.721-4.542zm-2.554 10.353 36.325 8.366 0.03 7e-3 0.014 3e-3 36.34 8.369c4.536 1.08 5.958 3.806 6.53 7.259l5.219 24.845-54.519-12.556-0.014-3e-3 -0.029-7e-3 -54.503-12.552 15.56-20.059c2.024-2.855 4.494-4.685 9.047-3.672z"/>
  <path d="m114.77 443.16h63.784s15.185-28.349-6.607-48.498c-19.7-18.216-35.692-24.358-40.06-34.42-7.451-17.162 6.852-31.256 6.852-31.256s-28.257 9.262-30.41 19.699c-3.638 17.636 5.931 22.238 34.009 54.145 18.401 20.91-27.568 40.33-27.568 40.33z"/>
  <path d="m240.59 443.01h63.784s2.19-12.104-19.602-32.254c-19.701-18.216-38.245-25.378-42.613-35.44-7.451-17.162 9.404-30.235 9.404-30.235s-30.043 6.198-34.493 25.314c-4.083 17.539 3.974 19.996 33.753 46.615 17.42 15.571-10.233 26-10.233 26z"/>
 </g>
</svg>
