# Blender 4.2.0
# www.blender.org
mtllib map_bicycle_location.mtl
o map_bicycle_location
v 0.000000 0.000000 -2.000000
v -0.517638 0.000000 -1.931852
v -1.000000 0.000000 -1.732051
v -1.414214 0.000000 -1.414214
v -1.732051 0.000000 -1.000000
v -1.931852 0.000000 -0.517638
v -2.000000 0.000000 0.000000
v -1.931852 0.000000 0.517638
v -1.732051 0.000000 1.000000
v -1.414214 0.000000 1.414214
v -1.000000 0.000000 1.732051
v -0.517638 0.000000 1.931852
v 0.000000 0.000000 2.000000
v 0.517638 0.000000 1.931852
v 1.000000 0.000000 1.732051
v 1.414214 0.000000 1.414214
v 1.732051 0.000000 1.000000
v 1.931852 0.000000 0.517638
v 2.000000 0.000000 0.000000
v 1.931852 0.000000 -0.517638
v 1.732051 0.000000 -1.000000
v 1.414214 0.000000 -1.414214
v 1.000000 0.000000 -1.732051
v 0.517638 0.000000 -1.931852
v 0.000000 0.500000 -0.656975
v -0.170038 0.500000 -0.634589
v -0.328488 0.500000 -0.568957
v -0.464552 0.500000 -0.464552
v -0.568957 0.500000 -0.328488
v -0.634589 0.500000 -0.170038
v -0.656975 0.500000 -0.000000
v -0.634589 0.500000 0.170038
v -0.568957 0.500000 0.328488
v -0.464552 0.500000 0.464552
v -0.328488 0.500000 0.568957
v -0.170038 0.500000 0.634589
v -0.000000 0.500000 0.656975
v 0.170038 0.500000 0.634589
v 0.328488 0.500000 0.568957
v 0.464552 0.500000 0.464552
v 0.568957 0.500000 0.328488
v 0.634589 0.500000 0.170038
v 0.656975 0.500000 0.000000
v 0.634589 0.500000 -0.170038
v 0.568957 0.500000 -0.328488
v 0.464552 0.500000 -0.464552
v 0.328488 0.500000 -0.568957
v 0.170038 0.500000 -0.634589
v -0.517638 0.500000 -1.931852
v 0.000000 0.500000 -2.000000
v -1.000000 0.500000 -1.732051
v -1.414214 0.500000 -1.414214
v -1.732051 0.500000 -1.000000
v -1.931852 0.500000 -0.517638
v -2.000000 0.500000 0.000000
v -1.931852 0.500000 0.517638
v -1.732051 0.500000 1.000000
v -1.414214 0.500000 1.414214
v -1.000000 0.500000 1.732051
v -0.517638 0.500000 1.931852
v 0.000000 0.500000 2.000000
v 0.517638 0.500000 1.931852
v 1.000000 0.500000 1.732051
v 1.414214 0.500000 1.414214
v 1.732051 0.500000 1.000000
v 1.931852 0.500000 0.517638
v 2.000000 0.500000 0.000000
v 1.931852 0.500000 -0.517638
v 1.732051 0.500000 -1.000000
v 1.414214 0.500000 -1.414214
v 1.000000 0.500000 -1.732051
v 0.517638 0.500000 -1.931852
v -0.439881 0.500000 -1.641656
v 0.000000 0.500000 -1.699568
v -0.849784 0.500000 -1.471869
v -1.201776 0.500000 -1.201776
v -1.471869 0.500000 -0.849784
v -1.641656 0.500000 -0.439881
v -1.699568 0.500000 0.000000
v -1.641656 0.500000 0.439881
v -1.471869 0.500000 0.849784
v -1.201776 0.500000 1.201776
v -0.849784 0.500000 1.471869
v -0.439881 0.500000 1.641656
v 0.000000 0.500000 1.699568
v 0.439881 0.500000 1.641656
v 0.849784 0.500000 1.471869
v 1.201776 0.500000 1.201776
v 1.471869 0.500000 0.849784
v 1.641656 0.500000 0.439881
v 1.699568 0.500000 0.000000
v 1.641656 0.500000 -0.439881
v 1.471869 0.500000 -0.849784
v 1.201776 0.500000 -1.201776
v 0.849784 0.500000 -1.471869
v 0.439881 0.500000 -1.641656
v -0.257828 0.500000 -0.962229
v 0.000000 0.500000 -0.996173
v -0.498087 0.500000 -0.862711
v -0.704401 0.500000 -0.704401
v -0.862711 0.500000 -0.498087
v -0.962229 0.500000 -0.257828
v -0.996173 0.500000 0.000000
v -0.962229 0.500000 0.257828
v -0.862711 0.500000 0.498087
v -0.704401 0.500000 0.704401
v -0.498087 0.500000 0.862711
v -0.257828 0.500000 0.962229
v 0.000000 0.500000 0.996173
v 0.257828 0.500000 0.962229
v 0.498087 0.500000 0.862711
v 0.704401 0.500000 0.704401
v 0.862711 0.500000 0.498087
v 0.962229 0.500000 0.257828
v 0.996173 0.500000 0.000000
v 0.962229 0.500000 -0.257828
v 0.862711 0.500000 -0.498087
v 0.704401 0.500000 -0.704401
v 0.498087 0.500000 -0.862711
v 0.257828 0.500000 -0.962229
v 0.000000 0.000000 -0.656975
v -0.170038 0.000000 -0.634589
v -0.328488 0.000000 -0.568957
v -0.464552 0.000000 -0.464552
v -0.568957 0.000000 -0.328488
v -0.634589 0.000000 -0.170038
v -0.656975 0.000000 -0.000000
v -0.634589 0.000000 0.170038
v -0.568957 0.000000 0.328488
v -0.464552 0.000000 0.464552
v -0.328488 0.000000 0.568957
v -0.170038 0.000000 0.634589
v -0.000000 0.000000 0.656975
v 0.170038 0.000000 0.634589
v 0.328488 0.000000 0.568957
v 0.464552 0.000000 0.464552
v 0.568957 0.000000 0.328488
v 0.634589 0.000000 0.170038
v 0.656975 0.000000 0.000000
v 0.634589 0.000000 -0.170038
v 0.568957 0.000000 -0.328488
v 0.464552 0.000000 -0.464552
v 0.328488 0.000000 -0.568957
v 0.170038 0.000000 -0.634589
vn -0.9659 -0.0000 0.2588
vn -1.0000 -0.0000 -0.0000
vn 0.5000 -0.0000 -0.8660
vn 0.7071 -0.0000 -0.7071
vn 0.7071 -0.0000 0.7071
vn 0.5000 -0.0000 0.8660
vn -0.8660 -0.0000 0.5000
vn 0.2588 -0.0000 -0.9659
vn -0.2588 -0.0000 -0.9659
vn -0.0000 -0.0000 -1.0000
vn 0.8660 -0.0000 0.5000
vn -0.7071 -0.0000 0.7071
vn -0.5000 -0.0000 -0.8660
vn 0.9659 -0.0000 0.2588
vn -0.5000 -0.0000 0.8660
vn -0.7071 -0.0000 -0.7071
vn 1.0000 -0.0000 -0.0000
vn -0.2588 -0.0000 0.9659
vn -0.8660 -0.0000 -0.5000
vn 0.9659 -0.0000 -0.2588
vn -0.0000 -0.0000 1.0000
vn -0.9659 -0.0000 -0.2588
vn 0.8660 -0.0000 -0.5000
vn 0.2588 -0.0000 0.9659
vn -0.0000 1.0000 -0.0000
vn -0.0000 -1.0000 -0.0000
vt 0.000000 0.000000
s 1
usemtl bridge
f 56/1/1 7/1/2 8/1/1
f 71/1/3 22/1/4 23/1/3
f 64/1/5 15/1/6 16/1/5
f 57/1/7 8/1/1 9/1/7
f 72/1/8 23/1/3 24/1/8
f 49/1/9 1/1/10 2/1/9
f 65/1/11 16/1/5 17/1/11
f 58/1/12 9/1/7 10/1/12
f 50/1/10 24/1/8 1/1/10
f 51/1/13 2/1/9 3/1/13
f 66/1/14 17/1/11 18/1/14
f 59/1/15 10/1/12 11/1/15
f 52/1/16 3/1/13 4/1/16
f 67/1/17 18/1/14 19/1/17
f 60/1/18 11/1/15 12/1/18
f 53/1/19 4/1/16 5/1/19
f 68/1/20 19/1/17 20/1/20
f 61/1/21 12/1/18 13/1/21
f 54/1/22 5/1/19 6/1/22
f 69/1/23 20/1/20 21/1/23
f 62/1/24 13/1/21 14/1/24
f 55/1/2 6/1/22 7/1/2
f 70/1/4 21/1/23 22/1/4
f 63/1/6 14/1/24 15/1/6
f 74/1/25 49/1/25 73/1/25
f 49/1/25 75/1/25 73/1/25
f 51/1/25 76/1/25 75/1/25
f 76/1/25 53/1/25 77/1/25
f 53/1/25 78/1/25 77/1/25
f 54/1/25 79/1/25 78/1/25
f 79/1/25 56/1/25 80/1/25
f 56/1/25 81/1/25 80/1/25
f 57/1/25 82/1/25 81/1/25
f 82/1/25 59/1/25 83/1/25
f 59/1/25 84/1/25 83/1/25
f 60/1/25 85/1/25 84/1/25
f 85/1/25 62/1/25 86/1/25
f 62/1/25 87/1/25 86/1/25
f 63/1/25 88/1/25 87/1/25
f 88/1/25 65/1/25 89/1/25
f 65/1/25 90/1/25 89/1/25
f 66/1/25 91/1/25 90/1/25
f 91/1/25 68/1/25 92/1/25
f 68/1/25 93/1/25 92/1/25
f 69/1/25 94/1/25 93/1/25
f 94/1/25 71/1/25 95/1/25
f 71/1/25 96/1/25 95/1/25
f 72/1/25 74/1/25 96/1/25
f 98/1/25 26/1/25 25/1/25
f 97/1/25 27/1/25 26/1/25
f 27/1/25 100/1/25 28/1/25
f 28/1/25 101/1/25 29/1/25
f 101/1/25 30/1/25 29/1/25
f 102/1/25 31/1/25 30/1/25
f 103/1/25 32/1/25 31/1/25
f 104/1/25 33/1/25 32/1/25
f 33/1/25 106/1/25 34/1/25
f 34/1/25 107/1/25 35/1/25
f 107/1/25 36/1/25 35/1/25
f 108/1/25 37/1/25 36/1/25
f 109/1/25 38/1/25 37/1/25
f 110/1/25 39/1/25 38/1/25
f 39/1/25 112/1/25 40/1/25
f 40/1/25 113/1/25 41/1/25
f 113/1/25 42/1/25 41/1/25
f 114/1/25 43/1/25 42/1/25
f 115/1/25 44/1/25 43/1/25
f 116/1/25 45/1/25 44/1/25
f 45/1/25 118/1/25 46/1/25
f 46/1/25 119/1/25 47/1/25
f 119/1/25 48/1/25 47/1/25
f 120/1/25 25/1/25 48/1/25
f 133/1/10 36/1/8 37/1/10
f 126/1/14 29/1/11 30/1/14
f 141/1/7 44/1/1 45/1/7
f 134/1/9 37/1/10 38/1/9
f 127/1/17 30/1/14 31/1/17
f 142/1/12 45/1/7 46/1/12
f 135/1/13 38/1/9 39/1/13
f 128/1/20 31/1/17 32/1/20
f 143/1/15 46/1/12 47/1/15
f 136/1/16 39/1/13 40/1/16
f 129/1/23 32/1/20 33/1/23
f 144/1/18 47/1/15 48/1/18
f 122/1/24 25/1/21 26/1/24
f 137/1/19 40/1/16 41/1/19
f 130/1/4 33/1/23 34/1/4
f 121/1/21 48/1/18 25/1/21
f 123/1/6 26/1/24 27/1/6
f 138/1/22 41/1/19 42/1/22
f 131/1/3 34/1/4 35/1/3
f 124/1/5 27/1/6 28/1/5
f 139/1/2 42/1/22 43/1/2
f 132/1/8 35/1/3 36/1/8
f 125/1/11 28/1/5 29/1/11
f 140/1/1 43/1/2 44/1/1
f 1/1/26 144/1/26 121/1/26
f 144/1/26 23/1/26 143/1/26
f 23/1/26 142/1/26 143/1/26
f 22/1/26 141/1/26 142/1/26
f 21/1/26 140/1/26 141/1/26
f 20/1/26 139/1/26 140/1/26
f 19/1/26 138/1/26 139/1/26
f 138/1/26 17/1/26 137/1/26
f 17/1/26 136/1/26 137/1/26
f 16/1/26 135/1/26 136/1/26
f 15/1/26 134/1/26 135/1/26
f 14/1/26 133/1/26 134/1/26
f 13/1/26 132/1/26 133/1/26
f 132/1/26 11/1/26 131/1/26
f 11/1/26 130/1/26 131/1/26
f 10/1/26 129/1/26 130/1/26
f 9/1/26 128/1/26 129/1/26
f 8/1/26 127/1/26 128/1/26
f 7/1/26 126/1/26 127/1/26
f 126/1/26 5/1/26 125/1/26
f 5/1/26 124/1/26 125/1/26
f 4/1/26 123/1/26 124/1/26
f 3/1/26 122/1/26 123/1/26
f 2/1/26 121/1/26 122/1/26
f 56/1/1 55/1/2 7/1/2
f 71/1/3 70/1/4 22/1/4
f 64/1/5 63/1/6 15/1/6
f 57/1/7 56/1/1 8/1/1
f 72/1/8 71/1/3 23/1/3
f 49/1/9 50/1/10 1/1/10
f 65/1/11 64/1/5 16/1/5
f 58/1/12 57/1/7 9/1/7
f 50/1/10 72/1/8 24/1/8
f 51/1/13 49/1/9 2/1/9
f 66/1/14 65/1/11 17/1/11
f 59/1/15 58/1/12 10/1/12
f 52/1/16 51/1/13 3/1/13
f 67/1/17 66/1/14 18/1/14
f 60/1/18 59/1/15 11/1/15
f 53/1/19 52/1/16 4/1/16
f 68/1/20 67/1/17 19/1/17
f 61/1/21 60/1/18 12/1/18
f 54/1/22 53/1/19 5/1/19
f 69/1/23 68/1/20 20/1/20
f 62/1/24 61/1/21 13/1/21
f 55/1/2 54/1/22 6/1/22
f 70/1/4 69/1/23 21/1/23
f 63/1/6 62/1/24 14/1/24
f 74/1/25 50/1/25 49/1/25
f 49/1/25 51/1/25 75/1/25
f 51/1/25 52/1/25 76/1/25
f 76/1/25 52/1/25 53/1/25
f 53/1/25 54/1/25 78/1/25
f 54/1/25 55/1/25 79/1/25
f 79/1/25 55/1/25 56/1/25
f 56/1/25 57/1/25 81/1/25
f 57/1/25 58/1/25 82/1/25
f 82/1/25 58/1/25 59/1/25
f 59/1/25 60/1/25 84/1/25
f 60/1/25 61/1/25 85/1/25
f 85/1/25 61/1/25 62/1/25
f 62/1/25 63/1/25 87/1/25
f 63/1/25 64/1/25 88/1/25
f 88/1/25 64/1/25 65/1/25
f 65/1/25 66/1/25 90/1/25
f 66/1/25 67/1/25 91/1/25
f 91/1/25 67/1/25 68/1/25
f 68/1/25 69/1/25 93/1/25
f 69/1/25 70/1/25 94/1/25
f 94/1/25 70/1/25 71/1/25
f 71/1/25 72/1/25 96/1/25
f 72/1/25 50/1/25 74/1/25
f 98/1/25 97/1/25 26/1/25
f 97/1/25 99/1/25 27/1/25
f 27/1/25 99/1/25 100/1/25
f 28/1/25 100/1/25 101/1/25
f 101/1/25 102/1/25 30/1/25
f 102/1/25 103/1/25 31/1/25
f 103/1/25 104/1/25 32/1/25
f 104/1/25 105/1/25 33/1/25
f 33/1/25 105/1/25 106/1/25
f 34/1/25 106/1/25 107/1/25
f 107/1/25 108/1/25 36/1/25
f 108/1/25 109/1/25 37/1/25
f 109/1/25 110/1/25 38/1/25
f 110/1/25 111/1/25 39/1/25
f 39/1/25 111/1/25 112/1/25
f 40/1/25 112/1/25 113/1/25
f 113/1/25 114/1/25 42/1/25
f 114/1/25 115/1/25 43/1/25
f 115/1/25 116/1/25 44/1/25
f 116/1/25 117/1/25 45/1/25
f 45/1/25 117/1/25 118/1/25
f 46/1/25 118/1/25 119/1/25
f 119/1/25 120/1/25 48/1/25
f 120/1/25 98/1/25 25/1/25
f 133/1/10 132/1/8 36/1/8
f 126/1/14 125/1/11 29/1/11
f 141/1/7 140/1/1 44/1/1
f 134/1/9 133/1/10 37/1/10
f 127/1/17 126/1/14 30/1/14
f 142/1/12 141/1/7 45/1/7
f 135/1/13 134/1/9 38/1/9
f 128/1/20 127/1/17 31/1/17
f 143/1/15 142/1/12 46/1/12
f 136/1/16 135/1/13 39/1/13
f 129/1/23 128/1/20 32/1/20
f 144/1/18 143/1/15 47/1/15
f 122/1/24 121/1/21 25/1/21
f 137/1/19 136/1/16 40/1/16
f 130/1/4 129/1/23 33/1/23
f 121/1/21 144/1/18 48/1/18
f 123/1/6 122/1/24 26/1/24
f 138/1/22 137/1/19 41/1/19
f 131/1/3 130/1/4 34/1/4
f 124/1/5 123/1/6 27/1/6
f 139/1/2 138/1/22 42/1/22
f 132/1/8 131/1/3 35/1/3
f 125/1/11 124/1/5 28/1/5
f 140/1/1 139/1/2 43/1/2
f 1/1/26 24/1/26 144/1/26
f 144/1/26 24/1/26 23/1/26
f 23/1/26 22/1/26 142/1/26
f 22/1/26 21/1/26 141/1/26
f 21/1/26 20/1/26 140/1/26
f 20/1/26 19/1/26 139/1/26
f 19/1/26 18/1/26 138/1/26
f 138/1/26 18/1/26 17/1/26
f 17/1/26 16/1/26 136/1/26
f 16/1/26 15/1/26 135/1/26
f 15/1/26 14/1/26 134/1/26
f 14/1/26 13/1/26 133/1/26
f 13/1/26 12/1/26 132/1/26
f 132/1/26 12/1/26 11/1/26
f 11/1/26 10/1/26 130/1/26
f 10/1/26 9/1/26 129/1/26
f 9/1/26 8/1/26 128/1/26
f 8/1/26 7/1/26 127/1/26
f 7/1/26 6/1/26 126/1/26
f 126/1/26 6/1/26 5/1/26
f 5/1/26 4/1/26 124/1/26
f 4/1/26 3/1/26 123/1/26
f 3/1/26 2/1/26 122/1/26
f 2/1/26 1/1/26 121/1/26
usemtl profile_color
f 98/1/25 73/1/25 97/1/25
f 73/1/25 99/1/25 97/1/25
f 75/1/25 100/1/25 99/1/25
f 100/1/25 77/1/25 101/1/25
f 77/1/25 102/1/25 101/1/25
f 78/1/25 103/1/25 102/1/25
f 103/1/25 80/1/25 104/1/25
f 80/1/25 105/1/25 104/1/25
f 81/1/25 106/1/25 105/1/25
f 106/1/25 83/1/25 107/1/25
f 83/1/25 108/1/25 107/1/25
f 84/1/25 109/1/25 108/1/25
f 109/1/25 86/1/25 110/1/25
f 86/1/25 111/1/25 110/1/25
f 87/1/25 112/1/25 111/1/25
f 112/1/25 89/1/25 113/1/25
f 89/1/25 114/1/25 113/1/25
f 90/1/25 115/1/25 114/1/25
f 115/1/25 92/1/25 116/1/25
f 92/1/25 117/1/25 116/1/25
f 93/1/25 118/1/25 117/1/25
f 118/1/25 95/1/25 119/1/25
f 95/1/25 120/1/25 119/1/25
f 96/1/25 98/1/25 120/1/25
f 98/1/25 74/1/25 73/1/25
f 73/1/25 75/1/25 99/1/25
f 75/1/25 76/1/25 100/1/25
f 100/1/25 76/1/25 77/1/25
f 77/1/25 78/1/25 102/1/25
f 78/1/25 79/1/25 103/1/25
f 103/1/25 79/1/25 80/1/25
f 80/1/25 81/1/25 105/1/25
f 81/1/25 82/1/25 106/1/25
f 106/1/25 82/1/25 83/1/25
f 83/1/25 84/1/25 108/1/25
f 84/1/25 85/1/25 109/1/25
f 109/1/25 85/1/25 86/1/25
f 86/1/25 87/1/25 111/1/25
f 87/1/25 88/1/25 112/1/25
f 112/1/25 88/1/25 89/1/25
f 89/1/25 90/1/25 114/1/25
f 90/1/25 91/1/25 115/1/25
f 115/1/25 91/1/25 92/1/25
f 92/1/25 93/1/25 117/1/25
f 93/1/25 94/1/25 118/1/25
f 118/1/25 94/1/25 95/1/25
f 95/1/25 96/1/25 120/1/25
f 96/1/25 74/1/25 98/1/25
