<?xml version="1.0" encoding="UTF-8" standalone="no"?>
<!-- Created with Inkscape (http://www.inkscape.org/) -->

<svg
   xmlns:dc="http://purl.org/dc/elements/1.1/"
   xmlns:cc="http://creativecommons.org/ns#"
   xmlns:rdf="http://www.w3.org/1999/02/22-rdf-syntax-ns#"
   xmlns:svg="http://www.w3.org/2000/svg"
   xmlns="http://www.w3.org/2000/svg"
   xmlns:sodipodi="http://sodipodi.sourceforge.net/DTD/sodipodi-0.dtd"
   xmlns:inkscape="http://www.inkscape.org/namespaces/inkscape"
   version="1.0"
   width="580"
   height="580"
   id="svg2"
   sodipodi:version="0.32"
   inkscape:version="0.91 r"
   sodipodi:docname="bed_and_breakfast.svg"
   inkscape:output_extension="org.inkscape.output.svg.inkscape">
  <metadata
     id="metadata2975">
    <rdf:RDF>
      <cc:Work
         rdf:about="">
        <dc:format>image/svg+xml</dc:format>
        <dc:type
           rdf:resource="http://purl.org/dc/dcmitype/StillImage" />
      </cc:Work>
    </rdf:RDF>
  </metadata>
  <sodipodi:namedview
     inkscape:window-height="1004"
     inkscape:window-width="1920"
     inkscape:pageshadow="2"
     inkscape:pageopacity="0.0"
     guidetolerance="10.0"
     gridtolerance="10.0"
     objecttolerance="10.0"
     borderopacity="1.0"
     bordercolor="#666666"
     pagecolor="#ffffff"
     id="base"
     inkscape:zoom="0.92167712"
     inkscape:cx="403.33655"
     inkscape:cy="244.40671"
     inkscape:window-x="1680"
     inkscape:window-y="0"
     inkscape:current-layer="svg2"
     showgrid="false"
     inkscape:window-maximized="1" />
  <defs
     id="defs4">
    <inkscape:perspective
       sodipodi:type="inkscape:persp3d"
       inkscape:vp_x="0 : 290 : 1"
       inkscape:vp_y="0 : 1000 : 0"
       inkscape:vp_z="580 : 290 : 1"
       inkscape:persp3d-origin="290 : 193.33333 : 1"
       id="perspective2441" />
    <inkscape:perspective
       id="perspective2466"
       inkscape:persp3d-origin="372.04724 : 350.78739 : 1"
       inkscape:vp_z="744.09448 : 526.18109 : 1"
       inkscape:vp_y="0 : 1000 : 0"
       inkscape:vp_x="0 : 526.18109 : 1"
       sodipodi:type="inkscape:persp3d" />
    <inkscape:perspective
       id="perspective3333"
       inkscape:persp3d-origin="372.04724 : 350.78739 : 1"
       inkscape:vp_z="744.09448 : 526.18109 : 1"
       inkscape:vp_y="0 : 1000 : 0"
       inkscape:vp_x="0 : 526.18109 : 1"
       sodipodi:type="inkscape:persp3d" />
    <inkscape:perspective
       id="perspective3401"
       inkscape:persp3d-origin="372.04724 : 350.78739 : 1"
       inkscape:vp_z="744.09448 : 526.18109 : 1"
       inkscape:vp_y="0 : 1000 : 0"
       inkscape:vp_x="0 : 526.18109 : 1"
       sodipodi:type="inkscape:persp3d" />
    <inkscape:perspective
       id="perspective3464"
       inkscape:persp3d-origin="372.04724 : 350.78739 : 1"
       inkscape:vp_z="744.09448 : 526.18109 : 1"
       inkscape:vp_y="0 : 1000 : 0"
       inkscape:vp_x="0 : 526.18109 : 1"
       sodipodi:type="inkscape:persp3d" />
    <inkscape:perspective
       id="perspective3581"
       inkscape:persp3d-origin="225 : 150 : 1"
       inkscape:vp_z="450 : 225 : 1"
       inkscape:vp_y="0 : 1000 : 0"
       inkscape:vp_x="0 : 225 : 1"
       sodipodi:type="inkscape:persp3d" />
    <inkscape:perspective
       id="perspective4312"
       inkscape:persp3d-origin="225 : 150 : 1"
       inkscape:vp_z="450 : 225 : 1"
       inkscape:vp_y="0 : 1000 : 0"
       inkscape:vp_x="0 : 225 : 1"
       sodipodi:type="inkscape:persp3d" />
    <inkscape:perspective
       id="perspective8860"
       inkscape:persp3d-origin="372.04724 : 350.78739 : 1"
       inkscape:vp_z="744.09448 : 526.18109 : 1"
       inkscape:vp_y="0 : 1000 : 0"
       inkscape:vp_x="0 : 526.18109 : 1"
       sodipodi:type="inkscape:persp3d" />
    <inkscape:perspective
       id="perspective8887"
       inkscape:persp3d-origin="372.04724 : 350.78739 : 1"
       inkscape:vp_z="744.09448 : 526.18109 : 1"
       inkscape:vp_y="0 : 1000 : 0"
       inkscape:vp_x="0 : 526.18109 : 1"
       sodipodi:type="inkscape:persp3d" />
    <inkscape:perspective
       sodipodi:type="inkscape:persp3d"
       inkscape:vp_x="0 : 16 : 1"
       inkscape:vp_y="0 : 1000 : 0"
       inkscape:vp_z="32 : 16 : 1"
       inkscape:persp3d-origin="16 : 10.666667 : 1"
       id="perspective4904" />
    <inkscape:perspective
       sodipodi:type="inkscape:persp3d"
       inkscape:vp_x="0 : 6 : 1"
       inkscape:vp_y="0 : 1000 : 0"
       inkscape:vp_z="12 : 6 : 1"
       inkscape:persp3d-origin="6 : 4 : 1"
       id="perspective4668" />
    <inkscape:perspective
       sodipodi:type="inkscape:persp3d"
       inkscape:vp_x="0 : 526.18109 : 1"
       inkscape:vp_y="0 : 1000 : 0"
       inkscape:vp_z="744.09448 : 526.18109 : 1"
       inkscape:persp3d-origin="372.04724 : 350.78739 : 1"
       id="perspective4471" />
    <symbol
       id="symbol-university"
       viewBox="244.5 110 489 219.9">
      <path
         d="M79,43l57,119c0,0,21-96,104-96s124,106,124,106l43-133l82-17L0,17L79,43z"
         id="path4460" />
      <path
         fill="none"
         stroke="#000000"
         stroke-width="20"
         d="M94,176l-21,39"
         id="path4462" />
      <path
         d="M300,19c0,10.5-22.6,19-50.5,19S199,29.5,199,19s22.6-19,50.5-19S300,8.5,300,19z"
         id="path4464" />
      <path
         ill="none"
         stroke="#000000"
         stroke-width="20"
         d="M112,216l-16-38L64,88c0,0-9-8-4-35s16-24,16-24"
         id="path4466" />
    </symbol>
    <inkscape:perspective
       sodipodi:type="inkscape:persp3d"
       inkscape:vp_x="0 : 30 : 1"
       inkscape:vp_y="0 : 1000 : 0"
       inkscape:vp_z="60 : 30 : 1"
       inkscape:persp3d-origin="30 : 20 : 1"
       id="perspective3452" />
    <inkscape:perspective
       id="perspective9479"
       inkscape:persp3d-origin="290 : 193.33333 : 1"
       inkscape:vp_z="580 : 290 : 1"
       inkscape:vp_y="0 : 1000 : 0"
       inkscape:vp_x="0 : 290 : 1"
       sodipodi:type="inkscape:persp3d" />
  </defs>
  <g
     id="g1327">
    <path
       d="M 66.275,1.768 C 24.94,1.768 1.704,23.139 1.704,66.804 L 1.704,516.927 C 1.704,557.771 22.599,579.156 63.896,579.156 L 515.92,579.156 C 557.227,579.156 578.149,558.841 578.149,516.927 L 578.149,66.804 C 578.149,24.203 557.227,1.768 514.628,1.768 C 514.624,1.768 66.133,1.625 66.275,1.768 z "
       style="fill:#111;stroke:#eee;stroke-width:3.40799999"
       id="path1329" />
  </g>
  <path
     style="font-size:12px;opacity:0.877;fill:#ffffff;fill-opacity:1;fill-rule:evenodd;stroke:#ffffff;stroke-width:1.36965418;stroke-opacity:1"
     d="M 289.48828 29.658203 L 31.330078 257.74219 L 82.962891 257.74219 L 82.962891 552.3457 L 237.85547 552.3457 L 237.85547 378.48047 L 344.66016 378.48047 L 344.66016 552.3457 L 496.01367 552.3457 L 496.01367 257.74219 L 547.64453 257.74219 L 289.48828 29.658203 z M 286.85156 221.2793 C 298.42961 221.27941 306.93742 223.52941 312.375 228.0293 C 317.81241 232.5294 320.53116 237.92001 320.53125 244.20117 C 320.53116 247.71687 319.69913 251.09187 318.03516 254.32617 C 316.37101 257.56061 314.3671 260.18561 312.02344 262.20117 C 309.67961 264.21685 305.4843 267.21685 299.4375 271.20117 C 304.45305 276.21684 309.67961 280.8809 315.11719 285.19336 C 316.57023 282.28715 317.81241 279.21684 318.84375 275.98242 L 341.20312 280.97461 C 340.03114 285.09965 338.90613 288.40433 337.82812 290.88867 C 336.74989 293.37308 335.22645 296.30276 333.25781 299.67773 L 344.01562 307.06055 C 345.328 307.90432 347.01551 308.91212 349.07812 310.08398 L 333.67969 327.80273 C 330.86709 326.30273 327.94912 324.56836 324.92578 322.59961 C 321.90225 320.63086 319.19522 318.94336 316.80469 317.53711 C 311.83586 320.81836 306.86711 323.20898 301.89844 324.70898 C 295.00775 326.77148 287.17962 327.80273 278.41406 327.80273 C 264.67964 327.80273 254.4609 324.94336 247.75781 319.22461 C 241.05467 313.50587 237.70312 306.56837 237.70312 298.41211 C 237.70311 292.55276 239.67187 287.0098 243.60938 281.7832 C 247.54686 276.55669 253.99215 272.13873 262.94531 268.5293 C 259.19527 263.98249 256.61716 260.03327 255.21094 256.68164 C 253.80466 253.33015 253.10153 249.91999 253.10156 246.45117 C 253.10153 239.13875 255.8906 233.11532 261.46875 228.38086 C 267.04684 223.64658 275.50776 221.27941 286.85156 221.2793 z M 125.625 223.03711 L 185.25 223.03711 C 195.18742 223.03721 202.81632 225.49814 208.13672 230.41992 C 213.45694 235.34188 216.11709 241.43563 216.11719 248.70117 C 216.11709 254.79499 214.21864 260.02155 210.42188 264.38086 C 207.89053 267.28716 204.18741 269.58404 199.3125 271.27148 C 206.71866 273.05278 212.16788 276.11138 215.66016 280.44727 C 219.15224 284.78325 220.89834 290.23245 220.89844 296.79492 C 220.89834 302.13869 219.65614 306.94337 217.17188 311.20898 C 214.6874 315.47462 211.28896 318.84961 206.97656 321.33398 C 204.30459 322.88086 200.27335 324.00586 194.88281 324.70898 C 187.71086 325.64648 182.95305 326.11523 180.60938 326.11523 L 125.625 326.11523 L 125.625 223.03711 z M 365.53125 223.03711 L 425.15625 223.03711 C 435.09367 223.03721 442.72257 225.49814 448.04297 230.41992 C 453.36319 235.34188 456.02334 241.43563 456.02344 248.70117 C 456.02334 254.79499 454.12489 260.02155 450.32812 264.38086 C 447.79678 267.28716 444.09366 269.58404 439.21875 271.27148 C 446.62491 273.05278 452.07413 276.11138 455.56641 280.44727 C 459.05849 284.78325 460.80459 290.23245 460.80469 296.79492 C 460.80459 302.13869 459.56239 306.94337 457.07812 311.20898 C 454.59364 315.47462 451.19521 318.84961 446.88281 321.33398 C 444.21084 322.88086 440.1796 324.00586 434.78906 324.70898 C 427.61711 325.64648 422.8593 326.11523 420.51562 326.11523 L 365.53125 326.11523 L 365.53125 223.03711 z M 288.04688 236.74805 C 285.14056 236.74814 282.77338 237.59189 280.94531 239.2793 C 279.11713 240.96689 278.20307 242.95906 278.20312 245.25586 C 278.20307 248.16218 280.7812 252.38093 285.9375 257.91211 C 289.64057 255.89655 292.49994 253.70515 294.51562 251.33789 C 296.53117 248.97078 297.53899 246.73251 297.53906 244.62305 C 297.53899 242.42001 296.69524 240.55672 295.00781 239.0332 C 293.32024 237.50985 290.99994 236.74814 288.04688 236.74805 z M 157.75781 243.91992 L 157.75781 263.4668 L 171.60938 263.4668 C 176.57807 263.46687 180.03509 262.61139 181.98047 260.90039 C 183.92572 259.18952 184.89837 256.71686 184.89844 253.48242 C 184.89837 250.48249 183.92572 248.13875 181.98047 246.45117 C 180.03509 244.76375 176.64837 243.92 171.82031 243.91992 L 157.75781 243.91992 z M 397.66406 243.91992 L 397.66406 263.4668 L 411.51562 263.4668 C 416.48431 263.46687 419.94134 262.61139 421.88672 260.90039 C 423.83197 259.18952 424.80462 256.71686 424.80469 253.48242 C 424.80462 250.48249 423.83197 248.13875 421.88672 246.45117 C 419.94134 244.76375 416.55462 243.92 411.72656 243.91992 L 397.66406 243.91992 z M 275.74219 282.94336 C 271.80465 285.70902 269.19136 288.07621 267.90234 290.04492 C 266.61324 292.0137 265.96871 294.09964 265.96875 296.30273 C 265.96871 299.72463 267.44528 302.7715 270.39844 305.44336 C 273.35152 308.11525 277.19527 309.45118 281.92969 309.45117 C 287.03901 309.45118 292.78119 307.459 299.15625 303.47461 C 293.06244 298.78713 285.25776 291.94339 275.74219 282.94336 z M 157.75781 283.08398 L 157.75781 303.9668 L 174 303.9668 C 179.48431 303.96682 183.35149 302.99417 185.60156 301.04883 C 187.85148 299.10355 188.97648 296.49026 188.97656 293.20898 C 188.97648 290.16214 187.86321 287.71293 185.63672 285.86133 C 183.41009 284.00981 179.50775 283.08402 173.92969 283.08398 L 157.75781 283.08398 z M 397.66406 283.08398 L 397.66406 303.9668 L 413.90625 303.9668 C 419.39056 303.96682 423.25774 302.99417 425.50781 301.04883 C 427.75773 299.10355 428.88273 296.49026 428.88281 293.20898 C 428.88273 290.16214 427.76946 287.71293 425.54297 285.86133 C 423.31634 284.00981 419.414 283.08402 413.83594 283.08398 L 397.66406 283.08398 z "
     id="path645" />
  <path
     sodipodi:nodetypes="cccccccccccccc"
     id="path9518"
     d="M 289.48774,29.657611 L 31.331019,257.74216 L 82.962024,257.74216 L 82.962024,552.34528 L 237.8564,552.34528 L 237.8564,378.47989 L 344.65937,378.47989 L 344.65973,552.34528 L 496.01347,552.34528 L 496.01347,257.74216 L 547.64482,257.74216 L 289.48774,29.657611 L 289.48774,29.657611 L 289.48774,29.657611 z"
     style="font-size:12px;fill:none;fill-opacity:1;fill-rule:evenodd;stroke:#ffffff;stroke-width:12.80533695;stroke-linecap:round;stroke-linejoin:round;stroke-miterlimit:4;stroke-dasharray:none;stroke-opacity:1" />
</svg>
