<?xml version="1.0" encoding="UTF-8" standalone="no"?>
<!-- Created with Inkscape (http://www.inkscape.org/) -->

<svg
   xmlns:dc="http://purl.org/dc/elements/1.1/"
   xmlns:cc="http://creativecommons.org/ns#"
   xmlns:rdf="http://www.w3.org/1999/02/22-rdf-syntax-ns#"
   xmlns:svg="http://www.w3.org/2000/svg"
   xmlns="http://www.w3.org/2000/svg"
   xmlns:sodipodi="http://sodipodi.sourceforge.net/DTD/sodipodi-0.dtd"
   xmlns:inkscape="http://www.inkscape.org/namespaces/inkscape"
   version="1.0"
   width="580"
   height="580"
   id="svg2"
   sodipodi:version="0.32"
   inkscape:version="0.91 r"
   sodipodi:docname="hotel.svg"
   inkscape:output_extension="org.inkscape.output.svg.inkscape">
  <metadata
     id="metadata2975">
    <rdf:RDF>
      <cc:Work
         rdf:about="">
        <dc:format>image/svg+xml</dc:format>
        <dc:type
           rdf:resource="http://purl.org/dc/dcmitype/StillImage" />
        <cc:license
           rdf:resource="http://web.resource.org/cc/PublicDomain" />
        <dc:language>en</dc:language>
      </cc:Work>
    </rdf:RDF>
  </metadata>
  <sodipodi:namedview
     inkscape:window-height="1004"
     inkscape:window-width="1920"
     inkscape:pageshadow="2"
     inkscape:pageopacity="0.0"
     guidetolerance="10.0"
     gridtolerance="10.0"
     objecttolerance="10.0"
     borderopacity="1.0"
     bordercolor="#666666"
     pagecolor="#ffffff"
     id="base"
     inkscape:zoom="0.92167712"
     inkscape:cx="376.38295"
     inkscape:cy="324.2246"
     inkscape:window-x="1680"
     inkscape:window-y="0"
     inkscape:current-layer="svg2"
     showgrid="false"
     inkscape:window-maximized="1" />
  <defs
     id="defs4">
    <inkscape:perspective
       sodipodi:type="inkscape:persp3d"
       inkscape:vp_x="0 : 290 : 1"
       inkscape:vp_y="0 : 1000 : 0"
       inkscape:vp_z="580 : 290 : 1"
       inkscape:persp3d-origin="290 : 193.33333 : 1"
       id="perspective2441" />
    <inkscape:perspective
       id="perspective3452"
       inkscape:persp3d-origin="30 : 20 : 1"
       inkscape:vp_z="60 : 30 : 1"
       inkscape:vp_y="0 : 1000 : 0"
       inkscape:vp_x="0 : 30 : 1"
       sodipodi:type="inkscape:persp3d" />
    <symbol
       viewBox="244.5 110 489 219.9"
       id="symbol-university">
      <path
         id="path4460"
         d="M79,43l57,119c0,0,21-96,104-96s124,106,124,106l43-133l82-17L0,17L79,43z" />
      <path
         id="path4462"
         d="M94,176l-21,39"
         stroke-width="20"
         stroke="#000000"
         fill="none" />
      <path
         id="path4464"
         d="M300,19c0,10.5-22.6,19-50.5,19S199,29.5,199,19s22.6-19,50.5-19S300,8.5,300,19z" />
      <path
         id="path4466"
         d="M112,216l-16-38L64,88c0,0-9-8-4-35s16-24,16-24"
         stroke-width="20"
         stroke="#000000"
         ill="none" />
    </symbol>
    <inkscape:perspective
       id="perspective4471"
       inkscape:persp3d-origin="372.04724 : 350.78739 : 1"
       inkscape:vp_z="744.09448 : 526.18109 : 1"
       inkscape:vp_y="0 : 1000 : 0"
       inkscape:vp_x="0 : 526.18109 : 1"
       sodipodi:type="inkscape:persp3d" />
    <inkscape:perspective
       id="perspective4668"
       inkscape:persp3d-origin="6 : 4 : 1"
       inkscape:vp_z="12 : 6 : 1"
       inkscape:vp_y="0 : 1000 : 0"
       inkscape:vp_x="0 : 6 : 1"
       sodipodi:type="inkscape:persp3d" />
    <inkscape:perspective
       id="perspective4904"
       inkscape:persp3d-origin="16 : 10.666667 : 1"
       inkscape:vp_z="32 : 16 : 1"
       inkscape:vp_y="0 : 1000 : 0"
       inkscape:vp_x="0 : 16 : 1"
       sodipodi:type="inkscape:persp3d" />
  </defs>
  <g
     id="g1327">
    <path
       d="M 66.275,1.768 C 24.94,1.768 1.704,23.139 1.704,66.804 L 1.704,516.927 C 1.704,557.771 22.599,579.156 63.896,579.156 L 515.92,579.156 C 557.227,579.156 578.149,558.841 578.149,516.927 L 578.149,66.804 C 578.149,24.203 557.227,1.768 514.628,1.768 C 514.624,1.768 66.133,1.625 66.275,1.768 z "
       style="fill:#111;stroke:#eee;stroke-width:3.40799999"
       id="path1329" />
  </g>
  <path
     style="fill:#ffffff;fill-opacity:1;fill-rule:evenodd;stroke:#ffffff;stroke-width:33.62202835;stroke-linecap:butt;stroke-linejoin:miter;stroke-miterlimit:4;stroke-dasharray:none;stroke-opacity:1"
     d="M 62.520056,279.24853 L 59.51809,513.40195"
     id="path2157" />
  <path
     style="fill:#ffffff;fill-opacity:1;fill-rule:evenodd;stroke:#ffffff;stroke-width:33.62202835;stroke-linecap:butt;stroke-linejoin:miter;stroke-miterlimit:4;stroke-dasharray:none;stroke-opacity:1"
     d="M 65.522024,426.34491 L 515.81707,429.34687"
     id="path2159" />
  <path
     style="fill:#ffffff;fill-opacity:1;fill-rule:evenodd;stroke:#ffffff;stroke-width:33.62202835;stroke-linecap:butt;stroke-linejoin:miter;stroke-miterlimit:4;stroke-dasharray:none;stroke-opacity:1"
     d="M 518.81904,504.39605 L 521.821,351.29573"
     id="path2161" />
  <rect
     style="fill:#ffffff;fill-opacity:1;stroke:#ffffff;stroke-width:38.66533279;stroke-miterlimit:4;stroke-dasharray:none;stroke-opacity:1"
     id="rect2163"
     width="237.15538"
     height="42.027538"
     x="236.63806"
     y="340.78888"
     ry="21.013769" />
  <path
     sodipodi:type="arc"
     style="fill:#ffffff;fill-opacity:1;stroke:#ffffff;stroke-width:2.29999995;stroke-miterlimit:4;stroke-dasharray:none;stroke-opacity:1"
     id="path2167"
     sodipodi:cx="7.7678571"
     sodipodi:cy="16.017857"
     sodipodi:rx="1.5178572"
     sodipodi:ry="1.3392857"
     d="M 9.2857143,16.017857 A 1.5178572,1.3392857 0 1 1 6.2499999,16.017857 A 1.5178572,1.3392857 0 1 1 9.2857143,16.017857 z"
     transform="matrix(21.577091,0,0,21.652201,2.2326209,-48.06054)" />
  <rect
     style="fill:#ffffff;fill-opacity:1;stroke:#ffffff;stroke-width:33.62202835;stroke-miterlimit:4;stroke-dasharray:none;stroke-opacity:1"
     id="rect2169"
     width="91.55999"
     height="7.5049171"
     x="103.04661"
     y="373.81052"
     ry="3.7524586" />
  <path
     style="font-size:12px;opacity:0.59500002;fill:#ffffff;fill-opacity:1;fill-rule:evenodd;stroke:#ffffff;stroke-width:1.06959641;stroke-opacity:1"
     d="m 294.85352,40.130859 -187.04493,191.976561 28.65821,0 c 10.3378,-4.74506 21.74333,-7.34961 33.37304,-7.34961 40.11574,0 77.71289,30.90134 77.71289,73.96094 0,1.20302 -0.13543,2.35934 -0.19335,3.54297 3.35446,-0.58599 6.78091,-0.95508 10.29296,-0.95508 l 186.83985,0 0,-69.19922 37.4082,0 z M 169.83984,282.75391 c -0.47098,0 -3.35396,0.3736 -6.04687,2.46093 -1.34646,1.04367 -2.59825,2.38833 -3.66797,4.17383 -1.06972,1.7855 -2.49586,2.78355 -2.49609,9.33008 0,6.54712 1.42531,7.54139 2.49414,9.32617 1.06882,1.78478 2.31983,3.12983 3.66601,4.17383 2.69236,2.08799 5.57768,2.46289 6.05078,2.46289 0.47312,0 3.35843,-0.3749 6.05078,-2.46289 1.34618,-1.044 2.59719,-2.38905 3.66602,-4.17383 1.06883,-1.78478 2.49414,-2.77905 2.49414,-9.32617 0,-6.54712 -1.42634,-7.54452 -2.49609,-9.33008 -1.06976,-1.78556 -2.32151,-3.13016 -3.66797,-4.17383 -2.69292,-2.08733 -5.57589,-2.46093 -6.04688,-2.46093 z M 145.2168,463.75 l 0,56.32227 190.48248,0 0,-55.57422 z m 189.61132,1.26367 0,55.0586 109.66407,0 0,-54.32618 z"
     id="path645-0"
     inkscape:connector-curvature="0"
     sodipodi:nodetypes="cccsscsccccssscssssssssscccccccccc" />
</svg>
