<svg width="24" height="24" viewBox="0 0 24 24" fill="none" xmlns="http://www.w3.org/2000/svg">
<path d="M19.5586 4C20.4195 4 21.1837 4.55086 21.456 5.36754L22.0001 7C22.0001 7.55228 21.5524 8 21.0001 8H0.00012207C0.00012207 6.34315 1.34327 5 3.00012 5L13.0001 5L15.0001 4H19.5586Z" fill="black"/>
<path fill-rule="evenodd" clip-rule="evenodd" d="M0.00012207 8L20.0002 8.00006L22.0002 12.0001L23.5002 13.0001L23.6466 13.1465C23.873 13.3729 24.0002 13.6799 24.0002 14.0001V17.0001C24.0002 17.5523 23.5525 18.0001 23.0002 18.0001H21.8295C21.4177 19.1652 20.3064 20.0001 19.0002 20.0001C17.694 20.0001 16.5827 19.1652 16.1709 18.0001H7.8294C7.41755 19.1652 6.30632 20 5.00012 20C3.69392 20 2.5827 19.1652 2.17085 18.0001H0.000194724L0.00012207 8ZM2.00012 9.00005H7.00012V12H2.00012V9.00005ZM5.00012 18C5.55241 18 6.00012 17.5523 6.00012 17C6.00012 16.4478 5.55241 16 5.00012 16C4.44784 16 4.00012 16.4478 4.00012 17C4.00012 17.5523 4.44784 18 5.00012 18ZM19.0001 18.0001C19.5524 18.0001 20.0001 17.5523 20.0001 17.0001C20.0001 16.4478 19.5524 16.0001 19.0001 16.0001C18.4478 16.0001 18.0001 16.4478 18.0001 17.0001C18.0001 17.5523 18.4478 18.0001 19.0001 18.0001ZM9.00012 12L14.0001 12V9.00005H9.00012V12ZM16.0001 9.00005H18.5001L20.0001 12H16.0001V9.00005Z" fill="black"/>
</svg>
