<svg width="24" height="24" viewBox="0 0 24 24" fill="none" xmlns="http://www.w3.org/2000/svg">
<path fill-rule="evenodd" clip-rule="evenodd" d="M6.29975 6C5.50937 6 4.79313 6.46547 4.47212 7.18772L3 10.5L0 11V16H2.17071C2.58254 17.1652 3.69378 18 5 18C6.30622 18 7.41746 17.1652 7.82929 16H16.1707C16.5825 17.1652 17.6938 18 19 18C20.3062 18 21.4175 17.1652 21.8293 16H23.5L24 15L23 14V11L18 10.5L15 6H6.29975ZM8.99997 11V8H6.29973L4.9664 11H8.99997ZM11 11H15.9296L13.9296 8H11V11ZM5 16C5.55228 16 6 15.5523 6 15C6 14.4477 5.55228 14 5 14C4.44772 14 4 14.4477 4 15C4 15.5523 4.44772 16 5 16ZM19 16C19.5523 16 20 15.5523 20 15C20 14.4477 19.5523 14 19 14C18.4477 14 18 14.4477 18 15C18 15.5523 18.4477 16 19 16Z" fill="black"/>
</svg>
