<svg width="48" height="48" viewBox="0 0 48 48" fill="none" xmlns="http://www.w3.org/2000/svg">
<path fill-rule="evenodd" clip-rule="evenodd" d="M33.857 9.25716C33.4636 8.27396 32.3722 7.7677 31.3676 8.10258L25.3676 10.1026L26.6324 13.8973L30.8434 12.4937L32.414 16.4204L27.6754 17.9999H19.1623C17.2827 17.9999 15.4155 17.6969 13.6324 17.1026C11.4415 16.3723 9.14716 15.9999 6.83772 15.9999H5.99998C4.89542 15.9999 3.99998 16.8954 3.99998 17.9999C3.99998 19.1045 4.89542 19.9999 5.99998 19.9999H6.83772C8.71724 19.9999 10.5845 20.303 12.3675 20.8974C12.6646 20.9964 12.9636 21.0888 13.2642 21.1746C15.1428 22.1174 16.5905 23.7716 17.2649 25.7948L17.4815 26.4446C17.4933 26.48 17.5061 26.5152 17.5198 26.5496L14.6972 26.973C14.4389 26.9116 14.2054 26.7482 14.0622 26.5C13.7964 26.0398 13.9382 25.456 14.3754 25.1666C13.9339 24.5852 13.4148 24.066 12.8334 23.6246C12.544 24.062 11.9602 24.2036 11.5 23.938C11.0392 23.672 10.8703 23.0946 11.1053 22.625C10.4436 22.346 9.73648 22.1536 8.99812 22.0616C8.96628 22.5852 8.53158 23 8 23C7.46842 23 7.0337 22.5852 7.00186 22.0616C6.26352 22.1536 5.5564 22.346 4.89466 22.625C5.12968 23.0946 4.9607 23.6718 4.49998 23.9378C4.03974 24.2036 3.45608 24.0618 3.16664 23.6246C2.58526 24.066 2.06612 24.5852 1.62468 25.1666C2.06182 25.456 2.2035 26.0396 1.9378 26.4998C1.67181 26.9606 1.09461 27.1294 0.625078 26.8946C0.346074 27.5564 0.153546 28.2634 0.0616455 29.0018C0.58521 29.0338 0.999982 29.4684 0.999982 30C0.999982 30.5316 0.58521 30.9662 0.0616455 30.9982C0.153539 31.7364 0.346046 32.4436 0.625014 33.1054C1.09456 32.8704 1.6718 33.0392 1.9378 33.5C2.20352 33.9602 2.06182 34.544 1.62459 34.8334C2.06606 35.4148 2.58524 35.934 3.16668 36.3754C3.45614 35.9382 4.03976 35.7966 4.49998 36.0622C4.96066 36.3282 5.12966 36.9054 4.8947 37.375C5.55642 37.654 6.26352 37.8464 7.00186 37.9384C7.0337 37.4148 7.4684 37 7.99998 37C8.53156 37 8.96626 37.4148 8.99812 37.9384C9.73646 37.8464 10.4436 37.654 11.1053 37.375C10.8703 36.9054 11.0393 36.3282 11.5 36.0622C11.9602 35.7964 12.5439 35.9382 12.8333 36.3754C13.4148 35.934 13.934 35.4146 14.3755 34.8332C13.9382 34.5438 13.7964 33.96 14.0621 33.4998C14.3282 33.039 14.9055 32.87 15.375 33.1052C15.654 32.4434 15.8464 31.7364 15.9383 30.9982C15.7972 30.9896 15.664 30.9518 15.5447 30.8906L26.8634 29.1928C28.2524 28.9844 29.5244 28.2952 30.4578 27.2454L34.7932 22.368L35.3924 23.8662C35.3062 23.8004 35.2294 23.7194 35.1666 23.6244C34.5852 24.066 34.0662 24.585 33.6246 25.1664C34.0618 25.4558 34.2034 26.0394 33.9378 26.4996C33.6718 26.9604 33.0946 27.1294 32.625 26.8944C32.346 27.5562 32.1536 28.2634 32.0616 29.0018C32.5852 29.0336 33 29.4682 33 29.9998C33 30.5314 32.5852 30.9662 32.0616 30.998C32.1536 31.7364 32.346 32.4434 32.625 33.1052C33.0946 32.8702 33.6718 33.0392 33.9378 33.4998C34.2036 33.9602 34.0618 34.5438 33.6246 34.8332C34.066 35.4146 34.5852 35.9338 35.1666 36.3752C35.4562 35.9382 36.0398 35.7964 36.5 36.0622C36.9606 36.3282 37.1296 36.9054 36.8948 37.3748C37.5564 37.6538 38.2636 37.8464 39.0018 37.9382C39.0338 37.4146 39.4684 36.9998 40 36.9998C40.5316 36.9998 40.9662 37.4146 40.9982 37.9382C41.7364 37.8464 42.4436 37.6538 43.1052 37.3748C42.8702 36.9052 43.0392 36.328 43.5 36.062C43.9602 35.7964 44.5438 35.938 44.8334 36.3752C45.4148 35.9338 45.934 35.4146 46.3754 34.833C45.9382 34.5436 45.7964 33.96 46.0622 33.4996C46.3282 33.039 46.9054 32.87 47.375 33.105C47.654 32.4434 47.8464 31.7362 47.9384 30.998C47.4148 30.9662 47 30.5314 47 29.9998C47 29.4682 47.4148 29.0336 47.9384 29.0018C47.8464 28.2634 47.654 27.5562 47.375 26.8946C46.9054 27.1296 46.3282 26.9606 46.0622 26.4998C45.7964 26.0396 45.9382 25.456 46.3754 25.1666C45.934 24.5852 45.4148 24.066 44.8334 23.6244C44.544 24.0618 43.9602 24.2036 43.5 23.9378C43.0392 23.6718 42.8702 23.0944 43.1054 22.625C42.4436 22.346 41.7364 22.1534 40.9982 22.0616C40.9662 22.585 40.5316 22.9998 40 22.9998C39.665 22.9998 39.3684 22.8352 39.187 22.5822L39.0096 22.1386C39.006 22.1132 39.0034 22.0876 39.0018 22.0616C38.9946 22.0624 38.9872 22.0634 38.9798 22.0644L33.857 9.25716ZM36.8564 27.5262L38.143 30.7428C38.5532 31.7682 39.7172 32.2672 40.7428 31.8568C41.7684 31.4466 42.2672 30.2828 41.857 29.2572L40.5702 26.0402C42.5092 26.317 44 27.9842 44 29.9998C44 32.209 42.2092 33.9998 40 33.9998C37.7908 33.9998 36 32.209 36 29.9998C36 29.066 36.32 28.2068 36.8564 27.5262ZM11.1292 27.5082C10.3963 26.589 9.26694 26 7.99998 26C5.79084 26 3.99998 27.7908 3.99998 30C3.99998 32.2092 5.79084 34 7.99998 34C9.69248 34 11.1394 32.9488 11.7237 31.4638L8.29666 31.9778C7.20432 32.1416 6.18596 31.389 6.02212 30.2966C5.85826 29.2042 6.61096 28.186 7.7033 28.022L11.1292 27.5082Z" fill="white"/>
</svg>
