<svg width="24" height="24" viewBox="0 0 24 24" fill="none" xmlns="http://www.w3.org/2000/svg">
<path fill-rule="evenodd" clip-rule="evenodd" d="M4 3H3V4V17V18H4H6V20H2V22H18C20.7614 22 23 19.7614 23 17H21C21 18.6569 19.6569 20 18 20H16V18H18H19V17V13.9782C19 12.3781 18.0464 10.9319 16.5757 10.3016L13.2122 8.8601C12.4768 8.54494 12 7.82187 12 7.02181V4V3H11H4ZM14 18H8V20H14V18ZM5 16V5H10V6H9C8.44772 6 8 6.44772 8 7C8 7.55228 8.44772 8 9 8H10.1213C10.2101 8.35212 10.346 8.68827 10.5234 9H9C8.44772 9 8 9.44772 8 10C8 10.5523 8.44772 11 9 11H13.1281L15.7878 12.1399C16.5232 12.4551 17 13.1781 17 13.9782V16H5Z" fill="white"/>
<path fill-rule="evenodd" clip-rule="evenodd" d="M3 3V18H6V20H2V22H18C20.7614 22 23 19.7614 23 17H21C21 18.6569 19.6569 20 18 20H16V18H19V13.9782C19 12.3781 18.0464 10.9319 16.5757 10.3016L13.2122 8.8601C12.4768 8.54494 12 7.82187 12 7.02181V3H3ZM14 18H8V20H14V18ZM5 16V5H10V6H9C8.44772 6 8 6.44772 8 7C8 7.55228 8.44772 8 9 8H10.1213C10.2101 8.35212 10.346 8.68827 10.5234 9H9C8.44772 9 8 9.44772 8 10C8 10.5523 8.44772 11 9 11H13.1281L15.7878 12.1399C16.5232 12.4551 17 13.1781 17 13.9782V16H5Z" fill="white"/>
</svg>
