<svg width="24" height="24" viewBox="0 0 24 24" fill="none" xmlns="http://www.w3.org/2000/svg">
<path opacity="0.7" d="M11 3.50006C10.4477 3.50006 10 3.94541 10 4.49769V13.0001C10 18.0001 12 22.0001 12 22.0001C12 22.0001 14 18.0001 14 13.0001V4.49769C14 3.9454 13.5523 3.50006 13 3.50006C12.0781 3.50004 11.5 3.50001 11 3.50006Z" fill="black"/>
<path opacity="0.8" d="M11 12H13C13 12.5523 12.5523 13 12 13C11.4477 13 11 12.5523 11 12Z" fill="black"/>
<path d="M9.02963 3.74255L11 3.24996V3.5H13V3.25007L14.9704 3.74266C15.4934 3.87341 16 3.47785 16 2.93875C16 2.44032 15.5632 2.05467 15.0686 2.1165L12.8001 2.40005C12.6177 2.15713 12.3272 2 12 2C11.6729 2 11.3824 2.15709 11.2 2.39995L8.93143 2.11638C8.43685 2.05456 8 2.4402 8 2.93864C8 3.47773 8.50663 3.8733 9.02963 3.74255Z" fill="black"/>
<path d="M2 7C2 6.44772 2.44772 6 3 6H21C21.5523 6 22 6.44772 22 7V9C22 10.6569 20.6569 12 19 12H5C3.34315 12 2 10.6569 2 9V7Z" fill="black"/>
<path d="M9 20H11.2019C11.6263 21.2526 12 22 12 22H9C8.44772 22 8 21.5523 8 21C8 20.4477 8.44772 20 9 20Z" fill="black"/>
<path d="M12 22C12 22 12.3737 21.2526 12.7981 20H15C15.5523 20 16 20.4477 16 21C16 21.5523 15.5523 22 15 22H12Z" fill="black"/>
<path d="M12 18C11.7239 18 11.5 18.2233 11.5 18.4994V19C11.5 19.5 12 20.5 12 20.5C12 20.5 12.5 19.5 12.5 19V18.4994C12.5 18.2233 12.2761 18 12 18Z" fill="black"/>
</svg>
