<svg width="24" height="24" viewBox="0 0 24 24" fill="none" xmlns="http://www.w3.org/2000/svg">
<path opacity="0.9" fill-rule="evenodd" clip-rule="evenodd" d="M5 17C5.55228 17 6 16.5523 6 16C6 15.4477 5.55228 15 5 15C4.44772 15 4 15.4477 4 16C4 16.5523 4.44772 17 5 17ZM5 19C6.65685 19 8 17.6569 8 16C8 14.3431 6.65685 13 5 13C3.34315 13 2 14.3431 2 16C2 17.6569 3.34315 19 5 19Z" fill="white"/>
<path opacity="0.9" fill-rule="evenodd" clip-rule="evenodd" d="M19 17C19.5523 17 20 16.5523 20 16C20 15.4477 19.5523 15 19 15C18.4477 15 18 15.4477 18 16C18 16.5523 18.4477 17 19 17ZM19 19C20.6569 19 22 17.6569 22 16C22 14.3431 20.6569 13 19 13C17.3431 13 16 14.3431 16 16C16 17.6569 17.3431 19 19 19Z" fill="white"/>
<path d="M13 7H15.1654L16 11.5902V14H10V11C10.5523 11 11 10.5523 11 10C11 9.44772 10.5523 9 10 9H6C5.44772 9 5 9.44772 5 10C5 10.5523 5.44772 11 6 11H5C3.34315 11 2 12.3431 2 14V16H22V15C22 12.7909 20.2091 11 18 11C17.9751 11 17.9504 11.0005 17.9257 11.0014L17.5417 8.88902C17.679 8.95994 17.8348 9 18 9H19V7H18C17.7057 7 17.4411 7.12713 17.2581 7.32946L17.1332 6.64223C16.9603 5.69125 16.132 5 15.1654 5H13V7Z" fill="white"/>
</svg>
