<svg width="24" height="24" viewBox="0 0 24 24" fill="none" xmlns="http://www.w3.org/2000/svg">
<path fill-rule="evenodd" clip-rule="evenodd" d="M15.9999 8H17.9999V15.9612L12.6246 19.7809L11.3752 18.2191L15.9999 15V8Z" fill="black"/>
<path d="M15 19C15 20.6569 13.6569 22 12 22C10.3431 22 9 20.6569 9 19C9 17.3431 10.3431 16 12 16C13.6569 16 15 17.3431 15 19Z" fill="black"/>
<path d="M14 2C14 3.10457 13.1046 4 12 4C10.8954 4 10 3.10457 10 2C10 0.895431 10.8954 0 12 0C13.1046 0 14 0.895431 14 2Z" fill="black"/>
<path d="M14 9.34326V12C14 12.7403 13.5978 13.3866 13 13.7324V19H11V13.7324C10.4022 13.3866 10 12.7403 10 12V7C10 5.89543 10.8954 5 12 5C12.6325 5 13.1965 5.29365 13.563 5.75207C13.7732 5.9284 13.9581 6.13443 14.1116 6.36461L14.6807 7.21828C14.7448 7.31447 14.8183 7.40409 14.9 7.48583C15.2293 7.81505 15.5344 8 15.9999 8L16 10C15.2374 10 14.5816 9.76807 14 9.34326Z" fill="black"/>
</svg>
