<svg width="24" height="24" viewBox="0 0 24 24" fill="none" xmlns="http://www.w3.org/2000/svg">
<path d="M7.63636 10H16.3636L20 23H12H4L7.63636 10Z" fill="url(#paint0_linear_2_873)"/>
<path fill-rule="evenodd" clip-rule="evenodd" d="M24 12.5C24 10.4376 21.5232 8.64029 17.8585 7.69888C17.2642 5.01073 14.8669 3 12 3C9.13309 3 6.7358 5.01073 6.14146 7.69888C2.47678 8.64029 0 10.4376 0 12.5C0 15.5376 5.37258 18 12 18C18.6274 18 24 15.5376 24 12.5ZM8 9C8 9.03663 8.00049 9.07315 8.00147 9.10955C9.06281 9.66331 10.464 10 12 10C13.536 10 14.9372 9.66332 15.9985 9.10957C15.9995 9.07317 16 9.03664 16 9C16 6.79086 14.2091 5 12 5C9.79086 5 8 6.79086 8 9Z" fill="black"/>
<defs>
<linearGradient id="paint0_linear_2_873" x1="12" y1="10" x2="12" y2="23" gradientUnits="userSpaceOnUse">
<stop/>
<stop offset="1" stop-opacity="0"/>
</linearGradient>
</defs>
</svg>
