<?xml version="1.0" encoding="UTF-8" standalone="no"?>
<!-- Created with Inkscape (http://www.inkscape.org/) -->

<svg
   xmlns:dc="http://purl.org/dc/elements/1.1/"
   xmlns:cc="http://creativecommons.org/ns#"
   xmlns:rdf="http://www.w3.org/1999/02/22-rdf-syntax-ns#"
   xmlns:svg="http://www.w3.org/2000/svg"
   xmlns="http://www.w3.org/2000/svg"
   xmlns:sodipodi="http://sodipodi.sourceforge.net/DTD/sodipodi-0.dtd"
   xmlns:inkscape="http://www.inkscape.org/namespaces/inkscape"
   version="1.0"
   width="580"
   height="580"
   id="svg2"
   sodipodi:version="0.32"
   inkscape:version="0.91 r"
   sodipodi:docname="american_football.svg"
   inkscape:output_extension="org.inkscape.output.svg.inkscape">
  <metadata
     id="metadata2975">
    <rdf:RDF>
      <cc:Work
         rdf:about="">
        <dc:format>image/svg+xml</dc:format>
        <dc:type
           rdf:resource="http://purl.org/dc/dcmitype/StillImage" />
        <cc:license
           rdf:resource="http://web.resource.org/cc/PublicDomain" />
        <dc:language>en</dc:language>
        <dc:title />
      </cc:Work>
    </rdf:RDF>
  </metadata>
  <sodipodi:namedview
     inkscape:window-height="1004"
     inkscape:window-width="1920"
     inkscape:pageshadow="2"
     inkscape:pageopacity="0.0"
     guidetolerance="10.0"
     gridtolerance="10.0"
     objecttolerance="10.0"
     borderopacity="1.0"
     bordercolor="#666666"
     pagecolor="#ffffff"
     id="base"
     inkscape:zoom="0.46083856"
     inkscape:cx="158.85428"
     inkscape:cy="292.13631"
     inkscape:window-x="1680"
     inkscape:window-y="0"
     inkscape:current-layer="svg2"
     showgrid="false"
     inkscape:window-maximized="1" />
  <defs
     id="defs4">
    <inkscape:perspective
       sodipodi:type="inkscape:persp3d"
       inkscape:vp_x="0 : 290 : 1"
       inkscape:vp_y="0 : 1000 : 0"
       inkscape:vp_z="580 : 290 : 1"
       inkscape:persp3d-origin="290 : 193.33333 : 1"
       id="perspective2441" />
    <inkscape:perspective
       id="perspective3452"
       inkscape:persp3d-origin="30 : 20 : 1"
       inkscape:vp_z="60 : 30 : 1"
       inkscape:vp_y="0 : 1000 : 0"
       inkscape:vp_x="0 : 30 : 1"
       sodipodi:type="inkscape:persp3d" />
    <symbol
       viewBox="244.5 110 489 219.9"
       id="symbol-university">
      <path
         id="path4460"
         d="M79,43l57,119c0,0,21-96,104-96s124,106,124,106l43-133l82-17L0,17L79,43z" />
      <path
         id="path4462"
         d="M94,176l-21,39"
         stroke-width="20"
         stroke="#000000"
         fill="none" />
      <path
         id="path4464"
         d="M300,19c0,10.5-22.6,19-50.5,19S199,29.5,199,19s22.6-19,50.5-19S300,8.5,300,19z" />
      <path
         id="path4466"
         d="M112,216l-16-38L64,88c0,0-9-8-4-35s16-24,16-24"
         stroke-width="20"
         stroke="#000000"
         ill="none" />
    </symbol>
    <inkscape:perspective
       id="perspective4471"
       inkscape:persp3d-origin="372.04724 : 350.78739 : 1"
       inkscape:vp_z="744.09448 : 526.18109 : 1"
       inkscape:vp_y="0 : 1000 : 0"
       inkscape:vp_x="0 : 526.18109 : 1"
       sodipodi:type="inkscape:persp3d" />
    <inkscape:perspective
       id="perspective4668"
       inkscape:persp3d-origin="6 : 4 : 1"
       inkscape:vp_z="12 : 6 : 1"
       inkscape:vp_y="0 : 1000 : 0"
       inkscape:vp_x="0 : 6 : 1"
       sodipodi:type="inkscape:persp3d" />
    <inkscape:perspective
       id="perspective19376"
       inkscape:persp3d-origin="0.5 : 0.33333333 : 1"
       inkscape:vp_z="1 : 0.5 : 1"
       inkscape:vp_y="0 : 1000 : 0"
       inkscape:vp_x="0 : 0.5 : 1"
       sodipodi:type="inkscape:persp3d" />
    <inkscape:perspective
       id="perspective19418"
       inkscape:persp3d-origin="0.5 : 0.33333333 : 1"
       inkscape:vp_z="1 : 0.5 : 1"
       inkscape:vp_y="0 : 1000 : 0"
       inkscape:vp_x="0 : 0.5 : 1"
       sodipodi:type="inkscape:persp3d" />
  </defs>
  <g
     id="g1327">
    <path
       d="M 66.275,1.768 C 24.94,1.768 1.704,23.139 1.704,66.804 L 1.704,516.927 C 1.704,557.771 22.599,579.156 63.896,579.156 L 515.92,579.156 C 557.227,579.156 578.149,558.841 578.149,516.927 L 578.149,66.804 C 578.149,24.203 557.227,1.768 514.628,1.768 C 514.624,1.768 66.133,1.625 66.275,1.768 z "
       style="fill:#111;stroke:#eee;stroke-width:3.40799999"
       id="path1329" />
  </g>
  <g
     transform="matrix(1.0645504,0,0,1.0645504,-18.719609,-18.719626)"
     id="g7"
     inkscape:output_extension="org.inkscape.output.svg.inkscape"
     inkscape:version="0.46"
     sodipodi:docname="waste_bin.svg"
     sodipodi:version="0.32">
    <g
       id="g9">
      <path
         style="fill:#ffffff"
         inkscape:connector-curvature="0"
         d="m 64.917,288.877 c 0.899,24.193 31.237,61.347 78.201,90.648 25.531,-75.028 14.951,-149.047 -0.216,-180.37 -47.976,28.612 -78.9,65.136 -77.985,89.722 z"
         id="path11" />
      <path
         style="fill:#ffffff"
         inkscape:connector-curvature="0"
         d="m 447.237,202.729 c 23.207,47.916 32.249,122.455 -2.645,177.929 43.586,-27.976 70.377,-63.698 70.51,-89.48 0.129,-25.294 -26.145,-60.323 -67.865,-88.449 z"
         id="path13" />
      <path
         style="fill:#ffffff"
         inkscape:connector-curvature="0"
         d="m 306.652,201.457 -1.378,0 0,-1.287 c -0.432,-0.528 -0.777,-1.104 -1.049,-1.71 0.345,1.009 0.662,2.075 0.945,3.206 0.593,-0.002 1.184,-0.001 1.776,-0.002 -0.099,-0.067 -0.197,-0.135 -0.294,-0.207 z"
         id="path15" />
      <path
         style="fill:#ffffff"
         inkscape:connector-curvature="0"
         d="m 284.465,201.035 0,-0.379 c -0.083,-0.093 -0.164,-0.187 -0.243,-0.283 0.082,0.219 0.164,0.438 0.243,0.662 z"
         id="path17" />
      <path
         style="fill:#ffffff"
         inkscape:connector-curvature="0"
         d="m 287.152,218.778 c 0.089,-0.128 0.174,-0.259 0.272,-0.383 0.138,-0.175 0.295,-0.322 0.445,-0.481 l 0,-0.911 1.015,0 c 0.71,-0.526 1.488,-0.933 2.312,-1.182 0.055,-0.516 0.09,-1.104 0.11,-1.728 -1.396,0.045 -2.789,0.094 -4.177,0.15 0.095,1.514 0.116,3.04 0.023,4.535 z"
         id="path19" />
      <path
         style="fill:#ffffff"
         inkscape:connector-curvature="0"
         d="m 268.294,215.39 c 0.105,1.527 0.136,3.07 0.054,4.585 0.029,-0.043 0.056,-0.086 0.086,-0.128 l 0,-1.093 0.945,0 c 0.755,-0.724 1.628,-1.276 2.57,-1.631 0.013,-0.599 10e-4,-1.274 -0.041,-2.013 -1.211,0.089 -2.416,0.182 -3.614,0.28 z"
         id="path21" />
      <path
         style="fill:#ffffff"
         inkscape:connector-curvature="0"
         d="m 250.115,217.326 c 0.002,0.755 -0.01,1.508 -0.048,2.253 l 1.213,0 c 0.574,-0.427 1.198,-0.766 1.853,-1.013 0.011,-0.49 0,-1.044 -0.026,-1.629 -1.009,0.125 -2.001,0.256 -2.992,0.389 z"
         id="path23" />
      <path
         style="fill:#ffffff"
         inkscape:connector-curvature="0"
         d="m 284.835,201.042 -0.368,0 c 0.129,0.366 0.256,0.737 0.379,1.117 0.466,-0.02 0.93,-0.043 1.397,-0.063 -0.262,-0.155 -0.524,-0.314 -0.772,-0.504 -0.224,-0.173 -0.435,-0.358 -0.636,-0.55 z"
         id="path25" />
      <path
         style="fill:#ffffff"
         inkscape:connector-curvature="0"
         d="m 325.781,219.958 c 0.17,-0.25 0.352,-0.494 0.555,-0.727 0.021,-0.025 0.048,-0.043 0.069,-0.068 l 0,-0.73 0.755,0 c 1.023,-0.87 2.224,-1.44 3.483,-1.683 0.178,-0.664 0.343,-1.453 0.482,-2.328 -1.482,-0.075 -2.975,-0.142 -4.474,-0.202 -0.142,1.981 -0.427,3.918 -0.87,5.738 z"
         id="path27" />
      <path
         style="fill:#ffffff"
         inkscape:connector-curvature="0"
         d="m 290.694,155.59 c -37.943,0.809 -74.346,9.687 -106.428,22.892 21.205,23.341 39.069,143.864 -0.759,222.204 33.123,14.32 71.072,23.78 111.045,23.78 37.316,0 72.05,-7.595 102.409,-19.538 38.04,-67.924 25.156,-188.606 1.069,-228.557 -32.114,-13.304 -68.788,-21.602 -107.336,-20.781 z m 81.829,57.164 c -0.442,2.757 -2.671,4.759 -5.313,5.071 -0.736,4.859 -2.293,9.43 -4.934,12.389 -0.223,0.25 -0.457,0.479 -0.692,0.704 l 0,0.05 -0.049,0 c -2.038,1.917 -4.505,2.898 -6.975,2.899 -2.289,0 -4.578,-0.837 -6.525,-2.537 -3.175,-2.771 -3.501,-7.589 -0.73,-10.764 0.212,-0.242 0.447,-0.449 0.681,-0.659 l 0,-0.283 0.309,0 c 0.983,-0.787 2.122,-1.303 3.311,-1.531 0.157,-0.594 0.307,-1.289 0.436,-2.052 -1.854,-0.199 -3.731,-0.387 -5.643,-0.559 -0.666,5.228 -2.26,10.229 -5.084,13.391 -2.159,2.418 -4.937,3.651 -7.716,3.651 -2.286,0 -4.574,-0.834 -6.521,-2.53 -0.078,-0.069 -0.148,-0.144 -0.223,-0.215 l -0.45,0 0,-0.457 c -1.367,-1.527 -2.021,-3.49 -1.932,-5.439 -0.566,1.278 -1.24,2.441 -2.05,3.425 -0.447,0.545 -0.911,0.997 -1.377,1.401 l 0,0.355 -0.412,0 c -1.738,1.362 -3.507,1.875 -4.829,2.043 -0.4,0.051 -0.803,0.076 -1.203,0.076 -2.146,0 -4.251,-0.738 -6.069,-2.12 l -1.086,0 0,-0.969 c -1.55,-1.666 -2.234,-3.89 -1.989,-6.052 -0.581,2.021 -1.408,3.827 -2.523,5.278 -1.737,2.256 -4.135,3.675 -6.755,3.999 -0.386,0.048 -0.771,0.071 -1.157,0.071 -2.231,0 -4.444,-0.791 -6.335,-2.283 -0.297,-0.235 -0.565,-0.493 -0.817,-0.76 l 0,0 0,0 c -0.944,-0.999 -1.578,-2.204 -1.877,-3.482 -0.422,1.198 -0.954,2.32 -1.646,3.312 -1.619,2.314 -3.946,3.815 -6.554,4.234 -0.492,0.079 -0.989,0.118 -1.484,0.118 -2.165,0 -4.331,-0.745 -6.227,-2.162 -0.113,-0.085 -0.215,-0.178 -0.323,-0.268 l -1.324,0 0,-1.419 c -0.561,-0.789 -0.96,-1.667 -1.187,-2.583 -0.432,1.279 -0.983,2.476 -1.717,3.525 -1.616,2.314 -3.944,3.818 -6.557,4.237 -0.491,0.079 -0.986,0.117 -1.481,0.117 -2.169,0 -4.338,-0.747 -6.236,-2.17 -0.357,-0.268 -0.678,-0.565 -0.974,-0.88 l -1.278,0 0,-1.836 c -0.197,-0.396 -0.355,-0.807 -0.48,-1.229 -0.53,1.427 -1.204,2.714 -2.041,3.801 -1.728,2.248 -4.123,3.668 -6.742,3.996 -0.388,0.049 -0.778,0.073 -1.167,0.073 -2.065,0 -4.113,-0.686 -5.909,-1.971 l -2.177,0 0,-2.276 c -1.507,-2.424 -1.564,-5.559 0,-8.061 l 0,-1.006 0.775,0 c 0.966,-1.091 2.171,-1.862 3.484,-2.259 0.011,-0.1 0.017,-0.216 0.026,-0.321 -1.476,0.293 -2.928,0.593 -4.327,0.908 -0.45,0.101 -0.901,0.149 -1.344,0.149 -2.793,0 -5.313,-1.929 -5.951,-4.768 -0.739,-3.289 1.329,-6.556 4.618,-7.295 1.782,-0.401 3.645,-0.78 5.547,-1.148 -0.02,-0.057 -0.04,-0.128 -0.06,-0.184 -1.491,-0.079 -2.972,-0.595 -4.244,-1.575 -0.097,-0.075 -0.184,-0.157 -0.276,-0.235 l -0.418,0 0,-0.376 c -2.714,-2.667 -3.075,-6.997 -0.696,-10.087 0.219,-0.284 0.458,-0.537 0.696,-0.793 l 0,-0.087 0.076,0 c 2.429,-2.568 5.752,-3.69 9.104,-2.987 2.31,0.483 4.355,1.748 6.105,3.742 0.165,-0.382 0.373,-0.753 0.605,-1.114 l 0,-2.027 1.738,0 c 2.168,-1.984 4.982,-2.898 7.896,-2.459 3.098,0.471 5.833,2.377 8.12,5.591 0.206,-0.975 0.606,-1.924 1.212,-2.791 0.288,-0.412 0.599,-0.795 0.926,-1.152 l 0,-0.012 0.013,0 c 2.233,-2.426 5.334,-3.569 8.544,-3.083 3.95,0.599 7.314,3.516 9.903,8.526 -0.267,-1.949 0.214,-4 1.507,-5.683 0.125,-0.162 0.264,-0.298 0.394,-0.451 l 0,-0.746 0.673,0 c 2.396,-2.351 5.584,-3.351 8.805,-2.681 4.261,0.887 7.63,4.431 9.883,10.329 -0.623,-2.297 -0.171,-4.849 1.448,-6.831 l 0,-0.404 0.156,0 0,-0.307 0.506,0 c 2.58,-2.672 6.066,-3.768 9.515,-2.896 4.047,1.019 7.137,4.423 9.093,9.923 -0.036,-1.818 0.571,-3.651 1.848,-5.13 l 0,-0.711 0.7,0 c 2.778,-2.701 6.419,-3.688 9.915,-2.602 3.486,1.084 7.901,4.558 9.338,14.843 0.282,0.024 0.567,0.047 0.849,0.072 l 0,-0.5 c -2.306,-2.853 -2.281,-7.032 0.24,-9.859 2.838,-3.18 6.77,-4.384 10.529,-3.218 3.545,1.099 8.055,4.651 9.417,15.334 0.028,0.228 0.049,0.467 0.076,0.7 10e-4,0 0.003,0 0.005,0 3.331,0.531 5.598,3.663 5.064,6.992 z"
         id="path29" />
      <path
         style="fill:#ffffff"
         inkscape:connector-curvature="0"
         d="m 325.932,202 c 0.153,0.005 0.307,0.012 0.46,0.017 l 0,-0.358 c -0.28,-0.323 -0.532,-0.663 -0.749,-1.019 0.093,0.404 0.184,0.81 0.267,1.231 0.008,0.042 0.014,0.087 0.022,0.129 z"
         id="path31" />
      <path
         style="fill:#ffffff"
         inkscape:connector-curvature="0"
         d="m 305.901,220.216 c 0.286,-0.759 0.694,-1.487 1.237,-2.148 0.096,-0.116 0.207,-0.209 0.309,-0.318 l 0,-0.03 0.029,0 c 1.03,-1.104 2.31,-1.858 3.689,-2.206 0.086,-0.493 0.157,-1.059 0.216,-1.659 -1.604,-0.013 -3.209,-0.019 -4.818,-0.017 -0.037,2.205 -0.247,4.368 -0.662,6.378 z"
         id="path33" />
    </g>
  </g>
</svg>
