<svg width="580" height="580" viewBox="0 0 580 580" fill="none" xmlns="http://www.w3.org/2000/svg">
<g clip-path="url(#clip0)">
<path d="M66.2751 1.76815C24.9401 1.76815 1.7041 23.1391 1.7041 66.8041V516.927C1.7041 557.771 22.5991 579.156 63.8961 579.156H515.92C557.227 579.156 578.149 558.841 578.149 516.927V66.8041C578.149 24.2031 557.227 1.76815 514.628 1.76815C514.624 1.76815 66.1331 1.62515 66.2751 1.76815Z" fill="#111111" stroke="#EEEEEE" stroke-width="3.408"/>
<path d="M381.87 28.1406L356.038 105.94L321.86 77.7131L321.849 78.8647L304.173 123.71L265.141 99.8855L265.27 100.466L252.165 159.404L210.323 135.4L210.459 138.52L206.966 192.805L157.286 173.108L157.863 174.399L156.935 173.357L159.201 231.308L116.757 218.779L116.841 219.284L115.942 218.511L124.248 276.921L34.9839 269.449L348.768 462.709L349.605 462.114L358.188 474.185C358.368 474.029 358.468 473.817 358.67 473.674L467.996 395.942L459.493 383.983L460.33 383.388L381.871 28.1406H381.87ZM365.696 130.073L378.615 91.1625L438.855 363.898C437.375 363.045 435.794 362.21 434.109 361.416L333.415 106.629L365.696 130.073ZM313.843 144.908L322.167 123.793L413.914 355.943C411.905 355.777 409.833 355.727 407.701 355.791L280.165 126.785L313.843 144.908V144.908ZM264.477 181.292L272.138 146.839L390.29 358.998C385.284 360.699 380.057 363.172 374.652 366.52L230.932 164.384L264.477 181.292V181.292ZM222.454 213.33L224.336 184.048L361.198 376.538C356.446 380.729 352.526 384.985 349.369 389.241L177.599 196.536L222.454 213.33V213.33ZM176.65 248.218L175.523 219.409L340.786 404.813C340.05 406.748 339.421 408.665 338.919 410.553L139.525 238.816L176.65 248.218V248.218ZM103.617 292.02L143.815 295.382L138.836 260.355L337.154 431.166C337.307 432.946 337.531 434.644 337.804 436.253L103.617 292.02V292.02Z" fill="white"/>
<path d="M469.712 515.706C522.565 476.286 481.247 415.59 481.247 415.59L371.359 493.721C371.359 493.721 416.855 555.121 469.712 515.706Z" fill="white"/>
</g>
<defs>
<clipPath id="clip0">
<path d="M0 0H580V580H0V0Z" fill="white"/>
</clipPath>
</defs>
</svg>
