<svg width="48" height="48" viewBox="0 0 580 580" fill="none" xmlns="http://www.w3.org/2000/svg">
<path d="M290 115.347C386.059 115.347 464.653 193.941 464.653 290C464.653 386.059 386.059 464.653 290 464.653C193.941 464.653 115.347 386.059 115.347 290C115.347 193.941 193.941 115.347 290 115.347ZM290 71.6841C169.926 71.6841 71.6841 169.926 71.6841 290C71.6841 410.074 169.926 508.316 290 508.316C410.074 508.316 508.316 410.074 508.316 290C508.316 169.926 410.074 71.6841 290 71.6841Z" fill="white" />
<path d="M420.99 148.095C420.99 148.095 322.748 209.223 335.846 324.931C344.579 405.707 423.173 434.089 423.173 434.089" stroke="white" stroke-width="43.6632" stroke-miterlimit="10" stroke-linecap="round" stroke-linejoin="round" />
<path d="M156.827 159.01C156.827 159.01 180.842 211.406 180.842 307.465C180.842 375.143 154.644 427.539 154.644 427.539" stroke="white" stroke-width="43.6632" stroke-miterlimit="10" stroke-linecap="round" stroke-linejoin="round" />
<path d="M102.249 261.619C102.249 261.619 152.461 311.832 290 311.832C427.539 311.832 477.752 261.619 477.752 261.619" stroke="white" stroke-width="43.6632" stroke-miterlimit="10" stroke-linecap="round" stroke-linejoin="round" />
<path d="M296.55 102.249C296.55 102.249 246.337 163.377 246.337 290C246.337 416.623 296.55 477.752 296.55 477.752" stroke="white" stroke-width="43.6632" stroke-miterlimit="10" stroke-linecap="round" stroke-linejoin="round" />
</svg>