<?xml version="1.0" encoding="UTF-8" standalone="no"?>
<!-- Created with Inkscape (http://www.inkscape.org/) -->

<svg
   xmlns:dc="http://purl.org/dc/elements/1.1/"
   xmlns:cc="http://creativecommons.org/ns#"
   xmlns:rdf="http://www.w3.org/1999/02/22-rdf-syntax-ns#"
   xmlns:svg="http://www.w3.org/2000/svg"
   xmlns="http://www.w3.org/2000/svg"
   xmlns:sodipodi="http://sodipodi.sourceforge.net/DTD/sodipodi-0.dtd"
   xmlns:inkscape="http://www.inkscape.org/namespaces/inkscape"
   version="1.0"
   width="580"
   height="580"
   id="svg2"
   sodipodi:version="0.32"
   inkscape:version="0.91 r"
   sodipodi:docname="beachvolleyball.svg"
   inkscape:output_extension="org.inkscape.output.svg.inkscape">
  <metadata
     id="metadata2975">
    <rdf:RDF>
      <cc:Work
         rdf:about="">
        <dc:format>image/svg+xml</dc:format>
        <dc:type
           rdf:resource="http://purl.org/dc/dcmitype/StillImage" />
        <cc:license
           rdf:resource="http://web.resource.org/cc/PublicDomain" />
        <dc:language>en</dc:language>
        <dc:title />
      </cc:Work>
    </rdf:RDF>
  </metadata>
  <sodipodi:namedview
     inkscape:window-height="1006"
     inkscape:window-width="1920"
     inkscape:pageshadow="2"
     inkscape:pageopacity="0.0"
     guidetolerance="10.0"
     gridtolerance="10.0"
     objecttolerance="10.0"
     borderopacity="1.0"
     bordercolor="#666666"
     pagecolor="#ffffff"
     id="base"
     inkscape:zoom="0.46083856"
     inkscape:cx="298.27001"
     inkscape:cy="556.91528"
     inkscape:window-x="1920"
     inkscape:window-y="0"
     inkscape:current-layer="svg2"
     showgrid="false"
     inkscape:window-maximized="1" />
  <defs
     id="defs4">
    <inkscape:perspective
       sodipodi:type="inkscape:persp3d"
       inkscape:vp_x="0 : 290 : 1"
       inkscape:vp_y="0 : 1000 : 0"
       inkscape:vp_z="580 : 290 : 1"
       inkscape:persp3d-origin="290 : 193.33333 : 1"
       id="perspective10" />
  </defs>
  <g
     id="g1327">
    <path
       d="M 66.275,1.768 C 24.94,1.768 1.704,23.139 1.704,66.804 l 0,450.123 c 0,40.844 20.895,62.229 62.192,62.229 l 452.024,0 c 41.307,0 62.229,-20.315 62.229,-62.229 l 0,-450.123 c 0,-42.601 -20.922,-65.036 -63.521,-65.036 -0.004,0 -448.495,-0.143 -448.353,0 z"
       style="fill:#111111;stroke:#eeeeee;stroke-width:3.40799999"
       id="path1329"
       inkscape:connector-curvature="0" />
  </g>
  <path
     style="fill:#ffffff"
     inkscape:connector-curvature="0"
     d="m 74.982344,132.77452 124.680996,110.68 c 1.234,1.096 2.58,1.983 3.991,2.68 l 66.268,92.467 c 0.66,2.077 1.61,4.1 2.875,6.006 l 92.012,138.683 c 4.621,6.964 12.248,10.735 20.023,10.735 4.557,0 9.166,-1.297 13.248,-4.005 11.046,-7.329 14.06,-22.225 6.73,-33.271 l -82.501,-124.348 9.454,-6.775 81.717,123.168 c 4.62,6.965 12.248,10.735 20.023,10.735 4.557,0 9.166,-1.296 13.247,-4.004 11.047,-7.329 14.061,-22.225 6.731,-33.271 l -92.01,-138.683 c -0.078,-0.117 -0.162,-0.229 -0.241,-0.345 -0.419,-0.791 -0.874,-1.569 -1.41,-2.317 l -51.096,-71.297 131.663,2.651 c 0.124,0.002 0.246,0.003 0.369,0.003 9.773,0 17.794,-7.823 17.991,-17.64 0.2,-9.94 -7.695,-18.161 -17.636,-18.361 l -166.687,-3.357 c -6.338,-0.127 -11.937,3.013 -15.24,7.861 l -11.577,8.296 -27.42636,21.64832 c 0,0 -82.98106,-70.85197 -121.299636,-104.86732 -7.436,-6.599998 -18.814,-5.923998 -25.414,1.512 -6.597,7.437 -5.92,18.815 1.515,25.416 z"
     id="path29"
     sodipodi:nodetypes="ccccccscccccscccccccsccccccccc" />
  <circle
     style="fill:#ffffff"
     cx="107.11327"
     cy="55.456383"
     r="37.093616"
     id="circle31" />
  <path
     style="fill:none;fill-opacity:1;stroke:#ffffff;stroke-width:21.344244;stroke-miterlimit:4;stroke-dasharray:none;stroke-opacity:1"
     inkscape:connector-curvature="0"
     d="m 536.49146,521.67374 c -0.43827,-2.20871 -2.39809,-3.60401 -4.38089,-3.11842 -10.96324,2.69737 -41.92349,8.03885 -53.38381,0.47535 -17.30947,-11.42363 -51.9275,-0.87488 -53.39117,-0.42105 l -0.37028,0.11474 -0.34087,0.19771 c -0.37029,0.21411 -37.29177,21.21736 -63.81599,0.28992 -16.37688,-12.92444 -57.82167,-1.92903 -62.49383,-0.63208 l -0.23981,0.0758 c -0.36201,0.1301 -36.36009,12.83941 -54.31456,0.419 -30.05062,-20.78811 -63.07727,-2.16364 -66.32067,-0.23768 -2.76838,1.20783 -38.72327,16.37274 -61.54837,0.25817 -19.012026,-13.42438 -70.403859,-1.0726 -72.583278,-0.54091 -1.982793,0.48456 -3.237889,2.66869 -2.803291,4.88047 0.434597,2.20974 2.392583,3.60708 4.377214,3.12559 14.018293,-3.42575 53.39484,-10.20043 67.075925,-0.54091 26.79803,18.9226 66.73873,1.10129 68.42567,0.33193 l 0.38038,-0.20182 c 0.31516,-0.19157 31.76329,-19.03323 59.11995,-0.10962 20.42976,14.13432 57.44496,1.47931 60.31808,0.46305 11.88941,-3.27618 44.84255,-9.68718 56.35892,-0.60032 10.34122,8.16075 21.79879,10.87042 32.45699,10.87042 19.21233,0 35.82994,-8.80616 38.6369,-10.37459 9.44446,-2.86641 35.32643,-8.23247 47.32794,-0.31451 16.29326,10.75159 56.98739,0.89845 58.71107,0.47535 1.98464,-0.48866 3.23606,-2.67586 2.79778,-4.8856 z"
     id="path33" />
  <circle
     style="fill:#ffffff"
     cx="219.66995"
     cy="135.09227"
     r="43.061001"
     id="circle31-3" />
</svg>
