<?xml version="1.0" encoding="UTF-8" standalone="no"?>
<!-- Created with Inkscape (http://www.inkscape.org/) -->

<svg
   xmlns:dc="http://purl.org/dc/elements/1.1/"
   xmlns:cc="http://creativecommons.org/ns#"
   xmlns:rdf="http://www.w3.org/1999/02/22-rdf-syntax-ns#"
   xmlns:svg="http://www.w3.org/2000/svg"
   xmlns="http://www.w3.org/2000/svg"
   xmlns:sodipodi="http://sodipodi.sourceforge.net/DTD/sodipodi-0.dtd"
   xmlns:inkscape="http://www.inkscape.org/namespaces/inkscape"
   version="1.0"
   width="580"
   height="580"
   id="svg2"
   sodipodi:version="0.32"
   inkscape:version="0.48.4 r9939"
   sodipodi:docname="hockey.svg"
   inkscape:output_extension="org.inkscape.output.svg.inkscape">
  <metadata
     id="metadata2975">
    <rdf:RDF>
      <cc:Work
         rdf:about="">
        <dc:format>image/svg+xml</dc:format>
        <dc:type
           rdf:resource="http://purl.org/dc/dcmitype/StillImage" />
        <cc:license
           rdf:resource="http://web.resource.org/cc/PublicDomain" />
        <dc:language>en</dc:language>
        <dc:title></dc:title>
      </cc:Work>
    </rdf:RDF>
  </metadata>
  <sodipodi:namedview
     inkscape:window-height="1004"
     inkscape:window-width="1920"
     inkscape:pageshadow="2"
     inkscape:pageopacity="0.0"
     guidetolerance="10.0"
     gridtolerance="10.0"
     objecttolerance="10.0"
     borderopacity="1.0"
     bordercolor="#666666"
     pagecolor="#ffffff"
     id="base"
     inkscape:zoom="0.46083856"
     inkscape:cx="628.31907"
     inkscape:cy="287.61822"
     inkscape:window-x="1680"
     inkscape:window-y="0"
     inkscape:current-layer="svg2"
     showgrid="false"
     inkscape:window-maximized="1" />
  <defs
     id="defs4">
    <inkscape:perspective
       sodipodi:type="inkscape:persp3d"
       inkscape:vp_x="0 : 290 : 1"
       inkscape:vp_y="0 : 1000 : 0"
       inkscape:vp_z="580 : 290 : 1"
       inkscape:persp3d-origin="290 : 193.33333 : 1"
       id="perspective10" />
  </defs>
  <g
     id="g1327">
    <path
       d="M 66.275,1.768 C 24.94,1.768 1.704,23.139 1.704,66.804 l 0,450.123 c 0,40.844 20.895,62.229 62.192,62.229 l 452.024,0 c 41.307,0 62.229,-20.315 62.229,-62.229 l 0,-450.123 c 0,-42.601 -20.922,-65.036 -63.521,-65.036 -0.004,0 -448.495,-0.143 -448.353,0 z"
       style="fill:#111111;stroke:#eeeeee;stroke-width:3.40799999"
       id="path1329"
       inkscape:connector-curvature="0" />
  </g>
  <path
     inkscape:connector-curvature="0"
     d="m 226.9323,206.77539 c -80.97582,0 -145.341214,64.36539 -145.341214,145.34121 0,80.97582 64.365394,145.34121 145.341214,145.34121 80.97578,0 145.34118,-64.36539 145.34118,-145.34121 0,-80.97582 -64.3654,-145.34121 -145.34118,-145.34121 z m -10.38151,103.81515 c -16.61043,0 -31.14455,-14.53412 -31.14455,-31.14455 0,-16.61042 14.53412,-31.14454 31.14455,-31.14454 16.61042,0 31.14454,14.53412 31.14454,31.14454 0,16.61043 -14.53412,31.14455 -31.14454,31.14455 z m 72.67059,20.76303 c -12.4578,0 -20.763,-8.30521 -20.763,-20.76303 0,-12.45782 8.3052,-20.76303 20.763,-20.76303 12.4578,0 20.763,8.30521 20.763,20.76303 0,12.45782 -8.3052,20.76303 -20.763,20.76303 z m -62.28908,41.52606 c -12.45782,0 -20.76303,-8.30521 -20.76303,-20.76303 0,-12.45782 8.30521,-20.76303 20.76303,-20.76303 12.45782,0 20.76303,8.30521 20.76303,20.76303 0,12.45782 -8.30521,20.76303 -20.76303,20.76303 z"
     id="path3"
     style="fill:#ffffff;fill-opacity:1" />
  <g
     transform="matrix(20.76303,0,0,20.76303,40.065026,40.671138)"
     id="g5"
     style="fill:#ffffff;fill-opacity:1">
    <path
       inkscape:connector-curvature="0"
       d="m 16.9,6.1 c 0,0.3 0,0.6 -0.1,0.9 h 3.4 c 0,-0.3 -0.1,-0.6 -0.1,-0.9 0,-0.4 0.2,-0.9 0.3,-1.4 0.1,-0.4 0.1,-0.8 0,-1.2 C 20.2,2.8 19.7,2.2 19,2.1 c -1.4,-0.4 -2.6,0.7 -2.6,2 0,0.2 0,0.4 0.1,0.6 0.2,0.4 0.4,1.1 0.4,1.4 z"
       id="path7"
       style="fill:#ffffff;fill-opacity:1" />
    <path
       inkscape:connector-curvature="0"
       d="m 20.4,8 h -3.7 c -0.2,0.8 -0.4,1.7 -0.6,2.3 0.9,1.4 1.4,3 1.4,4.7 0,2 -0.7,3.8 -1.8,5.3 0.2,0.4 1.4,0.7 2.9,0.7 1.6,0 2.9,-0.4 2.9,-0.8 0,-0.2 0.3,-2.4 0.5,-4.2 0.2,-1.8 0,-2.9 -0.6,-4.6 -0.2,-0.5 -0.7,-1.9 -1,-3.4 z"
       id="path9"
       style="fill:#ffffff;fill-opacity:1" />
  </g>
</svg>
