<svg width="580" height="580" viewBox="0 0 580 580" fill="none" xmlns="http://www.w3.org/2000/svg">
<g clip-path="url(#clip0)">
<path d="M66.2751 1.76815C24.9401 1.76815 1.7041 23.1391 1.7041 66.8041V516.927C1.7041 557.771 22.5991 579.156 63.8961 579.156H515.92C557.227 579.156 578.149 558.841 578.149 516.927V66.8041C578.149 24.2031 557.227 1.76815 514.628 1.76815C514.624 1.76815 66.1331 1.62515 66.2751 1.76815Z" fill="#111111" stroke="#EEEEEE" stroke-width="3.408"/>
<path d="M145.429 97.2393H97.239V145.429H145.429V97.2393Z" fill="white"/>
<path d="M241.81 97.2393H193.62V145.429H241.81V97.2393Z" fill="white"/>
<path d="M241.81 97.2393H193.62V145.429H241.81V97.2393Z" fill="white"/>
<path d="M338.19 97.2393H290V145.429H338.19V97.2393Z" fill="white"/>
<path d="M338.19 97.2393H290V145.429H338.19V97.2393Z" fill="white"/>
<path d="M434.571 97.2393H386.38V145.429H434.571V97.2393Z" fill="white"/>
<path d="M434.571 97.2393H386.38V145.429H434.571V97.2393Z" fill="white"/>
<path d="M434.571 97.2393H386.38V145.429H434.571V97.2393Z" fill="white"/>
<path d="M193.619 145.429H145.429V193.619H193.619V145.429Z" fill="white"/>
<path d="M193.619 145.429H145.429V193.619H193.619V145.429Z" fill="white"/>
<path d="M290 145.429H241.81V193.619H290V145.429Z" fill="white"/>
<path d="M290 145.429H241.81V193.619H290V145.429Z" fill="white"/>
<path d="M386.38 145.429H338.19V193.619H386.38V145.429Z" fill="white"/>
<path d="M386.38 145.429H338.19V193.619H386.38V145.429Z" fill="white"/>
<path d="M386.38 145.429H338.19V193.619H386.38V145.429Z" fill="white"/>
<path d="M482.761 145.429H434.571V193.619H482.761V145.429Z" fill="white"/>
<path d="M145.429 193.62H97.239V241.81H145.429V193.62Z" fill="white"/>
<path d="M241.81 193.62H193.62V241.81H241.81V193.62Z" fill="white"/>
<path d="M241.81 193.62H193.62V241.81H241.81V193.62Z" fill="white"/>
<path d="M338.19 193.62H290V241.81H338.19V193.62Z" fill="white"/>
<path d="M338.19 193.62H290V241.81H338.19V193.62Z" fill="white"/>
<path d="M434.571 193.62H386.38V241.81H434.571V193.62Z" fill="white"/>
<path d="M434.571 193.62H386.38V241.81H434.571V193.62Z" fill="white"/>
<path d="M434.571 193.62H386.38V241.81H434.571V193.62Z" fill="white"/>
<path d="M193.619 241.81H145.429V290H193.619V241.81Z" fill="white"/>
<path d="M193.619 241.81H145.429V290H193.619V241.81Z" fill="white"/>
<path d="M290 241.81H241.81V290H290V241.81Z" fill="white"/>
<path d="M290 241.81H241.81V290H290V241.81Z" fill="white"/>
<path d="M386.38 241.81H338.19V290H386.38V241.81Z" fill="white"/>
<path d="M386.38 241.81H338.19V290H386.38V241.81Z" fill="white"/>
<path d="M386.38 241.81H338.19V290H386.38V241.81Z" fill="white"/>
<path d="M482.761 241.81H434.571V290H482.761V241.81Z" fill="white"/>
<path d="M145.429 290H97.239V338.19H145.429V290Z" fill="white"/>
<path d="M241.81 290H193.62V338.19H241.81V290Z" fill="white"/>
<path d="M241.81 290H193.62V338.19H241.81V290Z" fill="white"/>
<path d="M338.19 290H290V338.19H338.19V290Z" fill="white"/>
<path d="M338.19 290H290V338.19H338.19V290Z" fill="white"/>
<path d="M434.571 290H386.38V338.19H434.571V290Z" fill="white"/>
<path d="M434.571 290H386.38V338.19H434.571V290Z" fill="white"/>
<path d="M434.571 290H386.38V338.19H434.571V290Z" fill="white"/>
<path d="M193.619 338.19H145.429V386.381H193.619V338.19Z" fill="white"/>
<path d="M193.619 338.19H145.429V386.381H193.619V338.19Z" fill="white"/>
<path d="M290 338.19H241.81V386.381H290V338.19Z" fill="white"/>
<path d="M290 338.19H241.81V386.381H290V338.19Z" fill="white"/>
<path d="M386.38 338.19H338.19V386.381H386.38V338.19Z" fill="white"/>
<path d="M386.38 338.19H338.19V386.381H386.38V338.19Z" fill="white"/>
<path d="M386.38 338.19H338.19V386.381H386.38V338.19Z" fill="white"/>
<path d="M482.761 338.19H434.571V386.381H482.761V338.19Z" fill="white"/>
<path d="M145.429 386.38H97.239V434.571H145.429V386.38Z" fill="white"/>
<path d="M241.81 386.38H193.62V434.571H241.81V386.38Z" fill="white"/>
<path d="M241.81 386.38H193.62V434.571H241.81V386.38Z" fill="white"/>
<path d="M338.19 386.38H290V434.571H338.19V386.38Z" fill="white"/>
<path d="M338.19 386.38H290V434.571H338.19V386.38Z" fill="white"/>
<path d="M434.571 386.38H386.38V434.571H434.571V386.38Z" fill="white"/>
<path d="M434.571 386.38H386.38V434.571H434.571V386.38Z" fill="white"/>
<path d="M434.571 386.38H386.38V434.571H434.571V386.38Z" fill="white"/>
<path d="M193.619 434.571H145.429V482.761H193.619V434.571Z" fill="white"/>
<path d="M193.619 434.571H145.429V482.761H193.619V434.571Z" fill="white"/>
<path d="M290 434.571H241.81V482.761H290V434.571Z" fill="white"/>
<path d="M290 434.571H241.81V482.761H290V434.571Z" fill="white"/>
<path d="M386.38 434.571H338.19V482.761H386.38V434.571Z" fill="white"/>
<path d="M386.38 434.571H338.19V482.761H386.38V434.571Z" fill="white"/>
<path d="M386.38 434.571H338.19V482.761H386.38V434.571Z" fill="white"/>
<path d="M482.761 434.571H434.571V482.761H482.761V434.571Z" fill="white"/>
</g>
<defs>
<clipPath id="clip0">
<path d="M0 0H580V580H0V0Z" fill="white"/>
</clipPath>
</defs>
</svg>
