<?xml version="1.0" encoding="UTF-8" standalone="no"?>
<!-- Created with Inkscape (http://www.inkscape.org/) -->

<svg
   xmlns:dc="http://purl.org/dc/elements/1.1/"
   xmlns:cc="http://creativecommons.org/ns#"
   xmlns:rdf="http://www.w3.org/1999/02/22-rdf-syntax-ns#"
   xmlns:svg="http://www.w3.org/2000/svg"
   xmlns="http://www.w3.org/2000/svg"
   xmlns:sodipodi="http://sodipodi.sourceforge.net/DTD/sodipodi-0.dtd"
   xmlns:inkscape="http://www.inkscape.org/namespaces/inkscape"
   version="1.0"
   width="580"
   height="580"
   id="svg2"
   sodipodi:version="0.32"
   inkscape:version="0.91 r"
   sodipodi:docname="chess.svg"
   inkscape:output_extension="org.inkscape.output.svg.inkscape">
  <metadata
     id="metadata2975">
    <rdf:RDF>
      <cc:Work
         rdf:about="">
        <dc:format>image/svg+xml</dc:format>
        <dc:type
           rdf:resource="http://purl.org/dc/dcmitype/StillImage" />
        <cc:license
           rdf:resource="http://web.resource.org/cc/PublicDomain" />
        <dc:language>en</dc:language>
      </cc:Work>
    </rdf:RDF>
  </metadata>
  <sodipodi:namedview
     inkscape:window-height="995"
     inkscape:window-width="1280"
     inkscape:pageshadow="2"
     inkscape:pageopacity="0.0"
     guidetolerance="10.0"
     gridtolerance="10.0"
     objecttolerance="10.0"
     borderopacity="1.0"
     bordercolor="#666666"
     pagecolor="#ffffff"
     id="base"
     inkscape:zoom="0.32586207"
     inkscape:cx="411.95383"
     inkscape:cy="284.90902"
     inkscape:window-x="0"
     inkscape:window-y="0"
     inkscape:current-layer="svg2"
     showgrid="false"
     inkscape:window-maximized="1" />
  <defs
     id="defs4">
    <inkscape:perspective
       sodipodi:type="inkscape:persp3d"
       inkscape:vp_x="0 : 290 : 1"
       inkscape:vp_y="0 : 1000 : 0"
       inkscape:vp_z="580 : 290 : 1"
       inkscape:persp3d-origin="290 : 193.33333 : 1"
       id="perspective2441" />
    <inkscape:perspective
       id="perspective3452"
       inkscape:persp3d-origin="30 : 20 : 1"
       inkscape:vp_z="60 : 30 : 1"
       inkscape:vp_y="0 : 1000 : 0"
       inkscape:vp_x="0 : 30 : 1"
       sodipodi:type="inkscape:persp3d" />
    <symbol
       viewBox="244.5 110 489 219.9"
       id="symbol-university">
      <path
         id="path4460"
         d="M79,43l57,119c0,0,21-96,104-96s124,106,124,106l43-133l82-17L0,17L79,43z" />
      <path
         id="path4462"
         d="M94,176l-21,39"
         stroke-width="20"
         stroke="#000000"
         fill="none" />
      <path
         id="path4464"
         d="M300,19c0,10.5-22.6,19-50.5,19S199,29.5,199,19s22.6-19,50.5-19S300,8.5,300,19z" />
      <path
         id="path4466"
         d="M112,216l-16-38L64,88c0,0-9-8-4-35s16-24,16-24"
         stroke-width="20"
         stroke="#000000"
         ill="none" />
    </symbol>
    <inkscape:perspective
       id="perspective4471"
       inkscape:persp3d-origin="372.04724 : 350.78739 : 1"
       inkscape:vp_z="744.09448 : 526.18109 : 1"
       inkscape:vp_y="0 : 1000 : 0"
       inkscape:vp_x="0 : 526.18109 : 1"
       sodipodi:type="inkscape:persp3d" />
    <inkscape:perspective
       id="perspective4668"
       inkscape:persp3d-origin="6 : 4 : 1"
       inkscape:vp_z="12 : 6 : 1"
       inkscape:vp_y="0 : 1000 : 0"
       inkscape:vp_x="0 : 6 : 1"
       sodipodi:type="inkscape:persp3d" />
  </defs>
  <g
     id="g1327">
    <path
       d="M 66.275,1.768 C 24.94,1.768 1.704,23.139 1.704,66.804 L 1.704,516.927 C 1.704,557.771 22.599,579.156 63.896,579.156 L 515.92,579.156 C 557.227,579.156 578.149,558.841 578.149,516.927 L 578.149,66.804 C 578.149,24.203 557.227,1.768 514.628,1.768 C 514.624,1.768 66.133,1.625 66.275,1.768 z "
       style="fill:#111;stroke:#eee;stroke-width:3.40799999"
       id="path1329" />
  </g>
  <g
     id="g11"
     transform="matrix(0.80150079,0,0,0.80150079,57.564772,57.564772)">
    <rect
       style="clip-rule:evenodd;fill:#ffffff;fill-rule:evenodd"
       x="49.5"
       y="49.5"
       width="60.125"
       height="60.125"
       id="rect13" />
  </g>
  <g
     id="g15"
     transform="matrix(0.80150079,0,0,0.80150079,57.564772,57.564772)">
    <rect
       style="clip-rule:evenodd;fill:#ffffff;fill-rule:evenodd"
       x="169.75"
       y="49.5"
       width="60.125"
       height="60.125"
       id="rect17" />
  </g>
  <g
     id="g19"
     transform="matrix(0.80150079,0,0,0.80150079,57.564772,57.564772)">
    <rect
       style="clip-rule:evenodd;fill:#ffffff;fill-rule:evenodd"
       x="169.75"
       y="49.5"
       width="60.125"
       height="60.125"
       id="rect21" />
  </g>
  <g
     id="g23"
     transform="matrix(0.80150079,0,0,0.80150079,57.564772,57.564772)">
    <rect
       style="clip-rule:evenodd;fill:#ffffff;fill-rule:evenodd"
       x="290"
       y="49.5"
       width="60.125"
       height="60.125"
       id="rect25" />
  </g>
  <g
     id="g27"
     transform="matrix(0.80150079,0,0,0.80150079,57.564772,57.564772)">
    <rect
       style="clip-rule:evenodd;fill:#ffffff;fill-rule:evenodd"
       x="290"
       y="49.5"
       width="60.125"
       height="60.125"
       id="rect29" />
  </g>
  <g
     id="g31"
     transform="matrix(0.80150079,0,0,0.80150079,57.564772,57.564772)">
    <rect
       style="clip-rule:evenodd;fill:#ffffff;fill-rule:evenodd"
       x="410.25"
       y="49.5"
       width="60.125"
       height="60.125"
       id="rect33" />
  </g>
  <g
     id="g35"
     transform="matrix(0.80150079,0,0,0.80150079,57.564772,57.564772)">
    <rect
       style="clip-rule:evenodd;fill:#ffffff;fill-rule:evenodd"
       x="410.25"
       y="49.5"
       width="60.125"
       height="60.125"
       id="rect37" />
  </g>
  <g
     id="g39"
     transform="matrix(0.80150079,0,0,0.80150079,57.564772,57.564772)">
    <rect
       style="clip-rule:evenodd;fill:#ffffff;fill-rule:evenodd"
       x="410.25"
       y="49.5"
       width="60.125"
       height="60.125"
       id="rect41" />
  </g>
  <g
     id="g43"
     transform="matrix(0.80150079,0,0,0.80150079,57.564772,57.564772)">
    <rect
       style="clip-rule:evenodd;fill:#ffffff;fill-rule:evenodd"
       x="109.625"
       y="109.625"
       width="60.125"
       height="60.125"
       id="rect45" />
  </g>
  <g
     id="g47"
     transform="matrix(0.80150079,0,0,0.80150079,57.564772,57.564772)">
    <rect
       style="clip-rule:evenodd;fill:#ffffff;fill-rule:evenodd"
       x="109.625"
       y="109.625"
       width="60.125"
       height="60.125"
       id="rect49" />
  </g>
  <g
     id="g51"
     transform="matrix(0.80150079,0,0,0.80150079,57.564772,57.564772)">
    <rect
       style="clip-rule:evenodd;fill:#ffffff;fill-rule:evenodd"
       x="229.875"
       y="109.625"
       width="60.125"
       height="60.125"
       id="rect53" />
  </g>
  <g
     id="g55"
     transform="matrix(0.80150079,0,0,0.80150079,57.564772,57.564772)">
    <rect
       style="clip-rule:evenodd;fill:#ffffff;fill-rule:evenodd"
       x="229.875"
       y="109.625"
       width="60.125"
       height="60.125"
       id="rect57" />
  </g>
  <g
     id="g59"
     transform="matrix(0.80150079,0,0,0.80150079,57.564772,57.564772)">
    <rect
       style="clip-rule:evenodd;fill:#ffffff;fill-rule:evenodd"
       x="350.125"
       y="109.625"
       width="60.125"
       height="60.125"
       id="rect61" />
  </g>
  <g
     id="g63"
     transform="matrix(0.80150079,0,0,0.80150079,57.564772,57.564772)">
    <rect
       style="clip-rule:evenodd;fill:#ffffff;fill-rule:evenodd"
       x="350.125"
       y="109.625"
       width="60.125"
       height="60.125"
       id="rect65" />
  </g>
  <g
     id="g67"
     transform="matrix(0.80150079,0,0,0.80150079,57.564772,57.564772)">
    <rect
       style="clip-rule:evenodd;fill:#ffffff;fill-rule:evenodd"
       x="350.125"
       y="109.625"
       width="60.125"
       height="60.125"
       id="rect69" />
  </g>
  <g
     id="g71"
     transform="matrix(0.80150079,0,0,0.80150079,57.564772,57.564772)">
    <rect
       style="clip-rule:evenodd;fill:#ffffff;fill-rule:evenodd"
       x="470.375"
       y="109.625"
       width="60.125"
       height="60.125"
       id="rect73" />
  </g>
  <g
     id="g75"
     transform="matrix(0.80150079,0,0,0.80150079,57.564772,57.564772)">
    <rect
       style="clip-rule:evenodd;fill:#ffffff;fill-rule:evenodd"
       x="49.5"
       y="169.75"
       width="60.125"
       height="60.125"
       id="rect77" />
  </g>
  <g
     id="g79"
     transform="matrix(0.80150079,0,0,0.80150079,57.564772,57.564772)">
    <rect
       style="clip-rule:evenodd;fill:#ffffff;fill-rule:evenodd"
       x="169.75"
       y="169.75"
       width="60.125"
       height="60.125"
       id="rect81" />
  </g>
  <g
     id="g83"
     transform="matrix(0.80150079,0,0,0.80150079,57.564772,57.564772)">
    <rect
       style="clip-rule:evenodd;fill:#ffffff;fill-rule:evenodd"
       x="169.75"
       y="169.75"
       width="60.125"
       height="60.125"
       id="rect85" />
  </g>
  <g
     id="g87"
     transform="matrix(0.80150079,0,0,0.80150079,57.564772,57.564772)">
    <rect
       style="clip-rule:evenodd;fill:#ffffff;fill-rule:evenodd"
       x="290"
       y="169.75"
       width="60.125"
       height="60.125"
       id="rect89" />
  </g>
  <g
     id="g91"
     transform="matrix(0.80150079,0,0,0.80150079,57.564772,57.564772)">
    <rect
       style="clip-rule:evenodd;fill:#ffffff;fill-rule:evenodd"
       x="290"
       y="169.75"
       width="60.125"
       height="60.125"
       id="rect93" />
  </g>
  <g
     id="g95"
     transform="matrix(0.80150079,0,0,0.80150079,57.564772,57.564772)">
    <rect
       style="clip-rule:evenodd;fill:#ffffff;fill-rule:evenodd"
       x="410.25"
       y="169.75"
       width="60.125"
       height="60.125"
       id="rect97" />
  </g>
  <g
     id="g99"
     transform="matrix(0.80150079,0,0,0.80150079,57.564772,57.564772)">
    <rect
       style="clip-rule:evenodd;fill:#ffffff;fill-rule:evenodd"
       x="410.25"
       y="169.75"
       width="60.125"
       height="60.125"
       id="rect101" />
  </g>
  <g
     id="g103"
     transform="matrix(0.80150079,0,0,0.80150079,57.564772,57.564772)">
    <rect
       style="clip-rule:evenodd;fill:#ffffff;fill-rule:evenodd"
       x="410.25"
       y="169.75"
       width="60.125"
       height="60.125"
       id="rect105" />
  </g>
  <g
     id="g107"
     transform="matrix(0.80150079,0,0,0.80150079,57.564772,57.564772)">
    <rect
       style="clip-rule:evenodd;fill:#ffffff;fill-rule:evenodd"
       x="109.625"
       y="229.875"
       width="60.125"
       height="60.125"
       id="rect109" />
  </g>
  <g
     id="g111"
     transform="matrix(0.80150079,0,0,0.80150079,57.564772,57.564772)">
    <rect
       style="clip-rule:evenodd;fill:#ffffff;fill-rule:evenodd"
       x="109.625"
       y="229.875"
       width="60.125"
       height="60.125"
       id="rect113" />
  </g>
  <g
     id="g115"
     transform="matrix(0.80150079,0,0,0.80150079,57.564772,57.564772)">
    <rect
       style="clip-rule:evenodd;fill:#ffffff;fill-rule:evenodd"
       x="229.875"
       y="229.875"
       width="60.125"
       height="60.125"
       id="rect117" />
  </g>
  <g
     id="g119"
     transform="matrix(0.80150079,0,0,0.80150079,57.564772,57.564772)">
    <rect
       style="clip-rule:evenodd;fill:#ffffff;fill-rule:evenodd"
       x="229.875"
       y="229.875"
       width="60.125"
       height="60.125"
       id="rect121" />
  </g>
  <g
     id="g123"
     transform="matrix(0.80150079,0,0,0.80150079,57.564772,57.564772)">
    <rect
       style="clip-rule:evenodd;fill:#ffffff;fill-rule:evenodd"
       x="350.125"
       y="229.875"
       width="60.125"
       height="60.125"
       id="rect125" />
  </g>
  <g
     id="g127"
     transform="matrix(0.80150079,0,0,0.80150079,57.564772,57.564772)">
    <rect
       style="clip-rule:evenodd;fill:#ffffff;fill-rule:evenodd"
       x="350.125"
       y="229.875"
       width="60.125"
       height="60.125"
       id="rect129" />
  </g>
  <g
     id="g131"
     transform="matrix(0.80150079,0,0,0.80150079,57.564772,57.564772)">
    <rect
       style="clip-rule:evenodd;fill:#ffffff;fill-rule:evenodd"
       x="350.125"
       y="229.875"
       width="60.125"
       height="60.125"
       id="rect133" />
  </g>
  <g
     id="g135"
     transform="matrix(0.80150079,0,0,0.80150079,57.564772,57.564772)">
    <rect
       style="clip-rule:evenodd;fill:#ffffff;fill-rule:evenodd"
       x="470.375"
       y="229.875"
       width="60.125"
       height="60.125"
       id="rect137" />
  </g>
  <g
     id="g139"
     transform="matrix(0.80150079,0,0,0.80150079,57.564772,57.564772)">
    <rect
       style="clip-rule:evenodd;fill:#ffffff;fill-rule:evenodd"
       x="49.5"
       y="290"
       width="60.125"
       height="60.125"
       id="rect141" />
  </g>
  <g
     id="g143"
     transform="matrix(0.80150079,0,0,0.80150079,57.564772,57.564772)">
    <rect
       style="clip-rule:evenodd;fill:#ffffff;fill-rule:evenodd"
       x="169.75"
       y="290"
       width="60.125"
       height="60.125"
       id="rect145" />
  </g>
  <g
     id="g147"
     transform="matrix(0.80150079,0,0,0.80150079,57.564772,57.564772)">
    <rect
       style="clip-rule:evenodd;fill:#ffffff;fill-rule:evenodd"
       x="169.75"
       y="290"
       width="60.125"
       height="60.125"
       id="rect149" />
  </g>
  <g
     id="g151"
     transform="matrix(0.80150079,0,0,0.80150079,57.564772,57.564772)">
    <rect
       style="clip-rule:evenodd;fill:#ffffff;fill-rule:evenodd"
       x="290"
       y="290"
       width="60.125"
       height="60.125"
       id="rect153" />
  </g>
  <g
     id="g155"
     transform="matrix(0.80150079,0,0,0.80150079,57.564772,57.564772)">
    <rect
       style="clip-rule:evenodd;fill:#ffffff;fill-rule:evenodd"
       x="290"
       y="290"
       width="60.125"
       height="60.125"
       id="rect157" />
  </g>
  <g
     id="g159"
     transform="matrix(0.80150079,0,0,0.80150079,57.564772,57.564772)">
    <rect
       style="clip-rule:evenodd;fill:#ffffff;fill-rule:evenodd"
       x="410.25"
       y="290"
       width="60.125"
       height="60.125"
       id="rect161" />
  </g>
  <g
     id="g163"
     transform="matrix(0.80150079,0,0,0.80150079,57.564772,57.564772)">
    <rect
       style="clip-rule:evenodd;fill:#ffffff;fill-rule:evenodd"
       x="410.25"
       y="290"
       width="60.125"
       height="60.125"
       id="rect165" />
  </g>
  <g
     id="g167"
     transform="matrix(0.80150079,0,0,0.80150079,57.564772,57.564772)">
    <rect
       style="clip-rule:evenodd;fill:#ffffff;fill-rule:evenodd"
       x="410.25"
       y="290"
       width="60.125"
       height="60.125"
       id="rect169" />
  </g>
  <g
     id="g171"
     transform="matrix(0.80150079,0,0,0.80150079,57.564772,57.564772)">
    <rect
       style="clip-rule:evenodd;fill:#ffffff;fill-rule:evenodd"
       x="109.625"
       y="350.125"
       width="60.125"
       height="60.125"
       id="rect173" />
  </g>
  <g
     id="g175"
     transform="matrix(0.80150079,0,0,0.80150079,57.564772,57.564772)">
    <rect
       style="clip-rule:evenodd;fill:#ffffff;fill-rule:evenodd"
       x="109.625"
       y="350.125"
       width="60.125"
       height="60.125"
       id="rect177" />
  </g>
  <g
     id="g179"
     transform="matrix(0.80150079,0,0,0.80150079,57.564772,57.564772)">
    <rect
       style="clip-rule:evenodd;fill:#ffffff;fill-rule:evenodd"
       x="229.875"
       y="350.125"
       width="60.125"
       height="60.125"
       id="rect181" />
  </g>
  <g
     id="g183"
     transform="matrix(0.80150079,0,0,0.80150079,57.564772,57.564772)">
    <rect
       style="clip-rule:evenodd;fill:#ffffff;fill-rule:evenodd"
       x="229.875"
       y="350.125"
       width="60.125"
       height="60.125"
       id="rect185" />
  </g>
  <g
     id="g187"
     transform="matrix(0.80150079,0,0,0.80150079,57.564772,57.564772)">
    <rect
       style="clip-rule:evenodd;fill:#ffffff;fill-rule:evenodd"
       x="350.125"
       y="350.125"
       width="60.125"
       height="60.125"
       id="rect189" />
  </g>
  <g
     id="g191"
     transform="matrix(0.80150079,0,0,0.80150079,57.564772,57.564772)">
    <rect
       style="clip-rule:evenodd;fill:#ffffff;fill-rule:evenodd"
       x="350.125"
       y="350.125"
       width="60.125"
       height="60.125"
       id="rect193" />
  </g>
  <g
     id="g195"
     transform="matrix(0.80150079,0,0,0.80150079,57.564772,57.564772)">
    <rect
       style="clip-rule:evenodd;fill:#ffffff;fill-rule:evenodd"
       x="350.125"
       y="350.125"
       width="60.125"
       height="60.125"
       id="rect197" />
  </g>
  <g
     id="g199"
     transform="matrix(0.80150079,0,0,0.80150079,57.564772,57.564772)">
    <rect
       style="clip-rule:evenodd;fill:#ffffff;fill-rule:evenodd"
       x="470.375"
       y="350.125"
       width="60.125"
       height="60.125"
       id="rect201" />
  </g>
  <g
     id="g203"
     transform="matrix(0.80150079,0,0,0.80150079,57.564772,57.564772)">
    <rect
       style="clip-rule:evenodd;fill:#ffffff;fill-rule:evenodd"
       x="49.5"
       y="410.25"
       width="60.125"
       height="60.125"
       id="rect205" />
  </g>
  <g
     id="g207"
     transform="matrix(0.80150079,0,0,0.80150079,57.564772,57.564772)">
    <rect
       style="clip-rule:evenodd;fill:#ffffff;fill-rule:evenodd"
       x="169.75"
       y="410.25"
       width="60.125"
       height="60.125"
       id="rect209" />
  </g>
  <g
     id="g211"
     transform="matrix(0.80150079,0,0,0.80150079,57.564772,57.564772)">
    <rect
       style="clip-rule:evenodd;fill:#ffffff;fill-rule:evenodd"
       x="169.75"
       y="410.25"
       width="60.125"
       height="60.125"
       id="rect213" />
  </g>
  <g
     id="g215"
     transform="matrix(0.80150079,0,0,0.80150079,57.564772,57.564772)">
    <rect
       style="clip-rule:evenodd;fill:#ffffff;fill-rule:evenodd"
       x="290"
       y="410.25"
       width="60.125"
       height="60.125"
       id="rect217" />
  </g>
  <g
     id="g219"
     transform="matrix(0.80150079,0,0,0.80150079,57.564772,57.564772)">
    <rect
       style="clip-rule:evenodd;fill:#ffffff;fill-rule:evenodd"
       x="290"
       y="410.25"
       width="60.125"
       height="60.125"
       id="rect221" />
  </g>
  <g
     id="g223"
     transform="matrix(0.80150079,0,0,0.80150079,57.564772,57.564772)">
    <rect
       style="clip-rule:evenodd;fill:#ffffff;fill-rule:evenodd"
       x="410.25"
       y="410.25"
       width="60.125"
       height="60.125"
       id="rect225" />
  </g>
  <g
     id="g227"
     transform="matrix(0.80150079,0,0,0.80150079,57.564772,57.564772)">
    <rect
       style="clip-rule:evenodd;fill:#ffffff;fill-rule:evenodd"
       x="410.25"
       y="410.25"
       width="60.125"
       height="60.125"
       id="rect229" />
  </g>
  <g
     id="g231"
     transform="matrix(0.80150079,0,0,0.80150079,57.564772,57.564772)">
    <rect
       style="clip-rule:evenodd;fill:#ffffff;fill-rule:evenodd"
       x="410.25"
       y="410.25"
       width="60.125"
       height="60.125"
       id="rect233" />
  </g>
  <g
     id="g235"
     transform="matrix(0.80150079,0,0,0.80150079,57.564772,57.564772)">
    <rect
       style="clip-rule:evenodd;fill:#ffffff;fill-rule:evenodd"
       x="109.625"
       y="470.375"
       width="60.125"
       height="60.125"
       id="rect237" />
  </g>
  <g
     id="g239"
     transform="matrix(0.80150079,0,0,0.80150079,57.564772,57.564772)">
    <rect
       style="clip-rule:evenodd;fill:#ffffff;fill-rule:evenodd"
       x="109.625"
       y="470.375"
       width="60.125"
       height="60.125"
       id="rect241" />
  </g>
  <g
     id="g243"
     transform="matrix(0.80150079,0,0,0.80150079,57.564772,57.564772)">
    <rect
       style="clip-rule:evenodd;fill:#ffffff;fill-rule:evenodd"
       x="229.875"
       y="470.375"
       width="60.125"
       height="60.125"
       id="rect245" />
  </g>
  <g
     id="g247"
     transform="matrix(0.80150079,0,0,0.80150079,57.564772,57.564772)">
    <rect
       style="clip-rule:evenodd;fill:#ffffff;fill-rule:evenodd"
       x="229.875"
       y="470.375"
       width="60.125"
       height="60.125"
       id="rect249" />
  </g>
  <g
     id="g251"
     transform="matrix(0.80150079,0,0,0.80150079,57.564772,57.564772)">
    <rect
       style="clip-rule:evenodd;fill:#ffffff;fill-rule:evenodd"
       x="350.125"
       y="470.375"
       width="60.125"
       height="60.125"
       id="rect253" />
  </g>
  <g
     id="g255"
     transform="matrix(0.80150079,0,0,0.80150079,57.564772,57.564772)">
    <rect
       style="clip-rule:evenodd;fill:#ffffff;fill-rule:evenodd"
       x="350.125"
       y="470.375"
       width="60.125"
       height="60.125"
       id="rect257" />
  </g>
  <g
     id="g259"
     transform="matrix(0.80150079,0,0,0.80150079,57.564772,57.564772)">
    <rect
       style="clip-rule:evenodd;fill:#ffffff;fill-rule:evenodd"
       x="350.125"
       y="470.375"
       width="60.125"
       height="60.125"
       id="rect261" />
  </g>
  <g
     id="g263"
     transform="matrix(0.80150079,0,0,0.80150079,57.564772,57.564772)">
    <rect
       style="clip-rule:evenodd;fill:#ffffff;fill-rule:evenodd"
       x="470.375"
       y="470.375"
       width="60.125"
       height="60.125"
       id="rect265" />
  </g>
</svg>
