<svg width="48" height="48" viewBox="0 0 48 48" fill="none" xmlns="http://www.w3.org/2000/svg">
<path fill-rule="evenodd" clip-rule="evenodd" d="M28.8 14.4001C29.6836 13.7374 30.9372 13.9165 31.6 14.8001L39.2649 25.02L25.2834 29.6805L17.6641 41.1095C17.0514 42.0286 15.8096 42.2769 14.8906 41.6642C13.9715 41.0515 13.7232 39.8098 14.3359 38.8907L22.7165 26.3198L32.7351 22.9802L28.4 17.2001C27.7372 16.3165 27.9163 15.0629 28.8 14.4001Z" fill="white" fill-opacity="0.41" />
<path d="M12 4L20 20H4L12 4Z" fill="white" />
<path d="M20 40C20 42.2091 18.2091 44 16 44C13.7909 44 12 42.2091 12 40C12 37.7909 13.7909 36 16 36C18.2091 36 20 37.7909 20 40Z" fill="white" />
<path d="M28 28C28 30.2091 26.2091 32 24 32C21.7909 32 20 30.2091 20 28C20 25.7909 21.7909 24 24 24C26.2091 24 28 25.7909 28 28Z" fill="white" />
<path d="M40 24C40 26.2091 38.2091 28 36 28C33.7909 28 32 26.2091 32 24C32 21.7909 33.7909 20 36 20C38.2091 20 40 21.7909 40 24Z" fill="white" />
<rect x="28" width="12" height="8" fill="white" />
<path fill-rule="evenodd" clip-rule="evenodd" d="M28 16V2H32V16H28Z" fill="white" />
</svg>