<svg width="48" height="48" viewBox="0 0 580 580" fill="none" xmlns="http://www.w3.org/2000/svg">
<path d="M112.516 520.611C119.567 520.611 129.263 522.765 141.603 527.073C153.942 531.382 163.632 533.536 170.672 533.536C177.723 533.536 187.418 531.382 199.758 527.073C212.098 522.765 221.793 520.611 228.845 520.611C235.884 520.611 245.669 522.765 258.2 527.073C270.731 531.382 280.331 533.536 287 533.536C294.039 533.536 303.827 531.382 316.365 527.073C328.901 522.765 338.689 520.611 345.729 520.611C352.386 520.611 361.983 522.765 374.52 527.073C387.057 531.382 396.845 533.536 403.885 533.536C410.935 533.536 420.631 531.382 432.971 527.073C445.31 522.765 455 520.611 462.04 520.611C469.091 520.611 478.786 522.765 491.126 527.073C503.466 531.382 513.155 533.536 520.195 533.536V490.063C513.155 490.063 503.466 488.007 491.126 483.896C478.786 479.785 469.091 477.729 462.04 477.729C455 477.729 445.212 479.785 432.675 483.896C420.138 488.007 410.541 490.063 403.885 490.063C396.845 490.063 387.057 488.007 374.52 483.896C361.983 479.785 352.386 477.729 345.729 477.729C338.689 477.729 328.901 479.785 316.365 483.896C303.827 488.007 294.039 490.063 287 490.063C280.331 490.063 270.731 488.007 258.2 483.896C245.669 479.785 235.884 477.729 228.845 477.729C221.793 477.729 212.098 479.785 199.758 483.896C187.418 488.007 177.723 490.063 170.672 490.063C163.632 490.063 153.942 488.007 141.603 483.896C129.263 479.785 119.567 477.729 112.516 477.729C105.477 477.729 95.6886 479.785 83.1517 483.896C70.6146 488.007 61.0177 490.063 54.3608 490.063V533.536C61.0177 533.536 70.6146 531.382 83.1517 527.073C95.6886 522.765 105.477 520.611 112.516 520.611ZM185.945 322.069C196.917 322.069 206.221 318.25 213.858 310.613C221.494 302.976 225.313 293.672 225.313 282.701C225.313 272.136 221.494 263.035 213.858 255.398C206.221 247.761 196.917 243.943 185.945 243.943C174.986 243.943 165.688 247.761 158.051 255.398C150.414 263.035 146.595 272.136 146.596 282.701C146.595 293.672 150.414 302.976 158.051 310.613C165.688 318.25 174.986 322.069 185.945 322.069ZM172.446 469.519C181.063 469.519 187.523 465.796 191.825 458.35L255.269 347.919L393.899 262.138C399.779 258.231 404.284 253.534 407.416 248.048L503.165 85.324C505.518 81.4163 506.696 76.9166 506.696 71.8249C506.696 64.3796 504.051 57.917 498.763 52.4368C493.474 46.9576 487.107 44.2177 479.662 44.2173C469.097 44.2177 461.071 48.9146 455.586 58.3079L375.703 193.998L258.801 264.505C252.526 268.413 247.823 273.11 244.692 278.596L153.049 436.031C151.101 439.162 150.127 442.879 150.127 447.181C150.127 453.062 152.377 458.254 156.877 462.76C161.376 467.266 166.566 469.519 172.446 469.519Z" fill="white" />
</svg>