<svg width="48" height="48" viewBox="0 0 48 48" fill="none" xmlns="http://www.w3.org/2000/svg">
<path d="M12 8C12 9.06097 11.5785 10.0783 10.8284 10.8284C10.0783 11.5785 9.06097 12 8 12C6.93903 12 5.92165 11.5785 5.17158 10.8284C4.42152 10.0783 4 9.06097 4 8C4 6.93914 4.42152 5.92171 5.17158 5.17156C5.92165 4.42144 6.93903 4 8 4C9.06097 4 10.0783 4.42144 10.8284 5.17156C11.5785 5.92171 12 6.93914 12 8Z" fill="#FEFEFE"/>
<path d="M11.811 17.4674C11.4205 17.0768 11.4206 16.4437 11.8111 16.0532L16.0538 11.8105C16.4443 11.42 17.0774 11.42 17.468 11.8105L25.6257 19.9683C26.0162 20.3588 26.0162 20.9919 25.6257 21.3825L20.9878 26.0204C20.8155 26.1927 20.5362 26.1929 20.3636 26.0208V26.0208L11.811 17.4674Z" fill="white"/>
<rect x="20" y="44" width="20" height="4" rx="2" transform="rotate(-90 20 44)" fill="#D9D9D9"/>
<path d="M36.586 4.58579C37.3671 3.80474 38.6331 3.80474 39.4142 4.58579C40.1952 5.36684 40.1952 6.63286 39.4142 7.41391L23.4142 23.4139C22.6331 24.195 21.3671 24.195 20.586 23.4139C19.805 22.6329 19.805 21.3668 20.586 20.5858L36.586 4.58579Z" fill="white"/>
<path d="M21.3672 2.10213C22.415 1.75283 23.5491 2.31986 23.8984 3.36775L25.8984 9.36775C26.2333 10.3724 25.7254 11.4627 24.7422 11.856L15.5351 15.5357L12.457 23.2349L17.1093 26.3365C18.0284 26.9492 18.2767 28.1909 17.664 29.1099C17.0513 30.029 15.8096 30.2773 14.8906 29.6646L8.89059 25.6646C8.10366 25.14 7.79324 24.1365 8.1445 23.2584L12.1445 13.2584L12.332 12.899C12.5548 12.5616 12.8764 12.2976 13.2578 12.1451L21.5039 8.84431L20.1015 4.63338C19.7522 3.58549 20.3193 2.45142 21.3672 2.10213Z" fill="white"/>
<path d="M19.9998 42V22C19.9998 20.8954 20.8952 20 21.9998 20C23.1043 20 23.9998 20.8954 23.9998 22V42C23.9998 43.1046 23.1043 44 21.9998 44C20.8952 44 19.9998 43.1046 19.9998 42Z" fill="white"/>
</svg>
