<?xml version="1.0" encoding="UTF-8" standalone="no"?>
<!-- Created with Inkscape (http://www.inkscape.org/) -->

<svg
   xmlns:dc="http://purl.org/dc/elements/1.1/"
   xmlns:cc="http://creativecommons.org/ns#"
   xmlns:rdf="http://www.w3.org/1999/02/22-rdf-syntax-ns#"
   xmlns:svg="http://www.w3.org/2000/svg"
   xmlns="http://www.w3.org/2000/svg"
   xmlns:sodipodi="http://sodipodi.sourceforge.net/DTD/sodipodi-0.dtd"
   xmlns:inkscape="http://www.inkscape.org/namespaces/inkscape"
   version="1.0"
   width="580"
   height="580"
   id="svg2"
   sodipodi:version="0.32"
   inkscape:version="0.91 r"
   sodipodi:docname="archery.svg"
   inkscape:output_extension="org.inkscape.output.svg.inkscape">
  <metadata
     id="metadata2975">
    <rdf:RDF>
      <cc:Work
         rdf:about="">
        <dc:format>image/svg+xml</dc:format>
        <dc:type
           rdf:resource="http://purl.org/dc/dcmitype/StillImage" />
        <cc:license
           rdf:resource="http://web.resource.org/cc/PublicDomain" />
        <dc:language>en</dc:language>
      </cc:Work>
    </rdf:RDF>
  </metadata>
  <sodipodi:namedview
     inkscape:window-height="995"
     inkscape:window-width="1280"
     inkscape:pageshadow="2"
     inkscape:pageopacity="0.0"
     guidetolerance="10.0"
     gridtolerance="10.0"
     objecttolerance="10.0"
     borderopacity="1.0"
     bordercolor="#666666"
     pagecolor="#ffffff"
     id="base"
     inkscape:zoom="0.5"
     inkscape:cx="351.65514"
     inkscape:cy="351.09329"
     inkscape:window-x="0"
     inkscape:window-y="0"
     inkscape:current-layer="svg2"
     showgrid="false"
     inkscape:window-maximized="1" />
  <defs
     id="defs4">
    <inkscape:perspective
       sodipodi:type="inkscape:persp3d"
       inkscape:vp_x="0 : 290 : 1"
       inkscape:vp_y="0 : 1000 : 0"
       inkscape:vp_z="580 : 290 : 1"
       inkscape:persp3d-origin="290 : 193.33333 : 1"
       id="perspective2441" />
    <inkscape:perspective
       id="perspective3452"
       inkscape:persp3d-origin="30 : 20 : 1"
       inkscape:vp_z="60 : 30 : 1"
       inkscape:vp_y="0 : 1000 : 0"
       inkscape:vp_x="0 : 30 : 1"
       sodipodi:type="inkscape:persp3d" />
    <symbol
       viewBox="244.5 110 489 219.9"
       id="symbol-university">
      <path
         id="path4460"
         d="M79,43l57,119c0,0,21-96,104-96s124,106,124,106l43-133l82-17L0,17L79,43z" />
      <path
         id="path4462"
         d="M94,176l-21,39"
         stroke-width="20"
         stroke="#000000"
         fill="none" />
      <path
         id="path4464"
         d="M300,19c0,10.5-22.6,19-50.5,19S199,29.5,199,19s22.6-19,50.5-19S300,8.5,300,19z" />
      <path
         id="path4466"
         d="M112,216l-16-38L64,88c0,0-9-8-4-35s16-24,16-24"
         stroke-width="20"
         stroke="#000000"
         ill="none" />
    </symbol>
    <inkscape:perspective
       id="perspective4471"
       inkscape:persp3d-origin="372.04724 : 350.78739 : 1"
       inkscape:vp_z="744.09448 : 526.18109 : 1"
       inkscape:vp_y="0 : 1000 : 0"
       inkscape:vp_x="0 : 526.18109 : 1"
       sodipodi:type="inkscape:persp3d" />
    <inkscape:perspective
       id="perspective4668"
       inkscape:persp3d-origin="6 : 4 : 1"
       inkscape:vp_z="12 : 6 : 1"
       inkscape:vp_y="0 : 1000 : 0"
       inkscape:vp_x="0 : 6 : 1"
       sodipodi:type="inkscape:persp3d" />
  </defs>
  <g
     id="g1327">
    <path
       d="M 66.275,1.768 C 24.94,1.768 1.704,23.139 1.704,66.804 L 1.704,516.927 C 1.704,557.771 22.599,579.156 63.896,579.156 L 515.92,579.156 C 557.227,579.156 578.149,558.841 578.149,516.927 L 578.149,66.804 C 578.149,24.203 557.227,1.768 514.628,1.768 C 514.624,1.768 66.133,1.625 66.275,1.768 z "
       style="fill:#111;stroke:#eee;stroke-width:3.40799999"
       id="path1329" />
  </g>
  <circle
     style="fill:#ffffff"
     id="circle2531"
     cx="141.72264"
     cy="491.08789"
     r="15.996722" />
  <circle
     style="fill:#ffffff"
     id="circle2533"
     cx="414.98312"
     cy="467.79355"
     r="33.514027" />
  <path
     style="fill:#ffffff"
     id="path2535"
     inkscape:connector-curvature="0"
     d="m 403.28041,395.44673 -0.28849,0.0439 -270.2394,46.52954 c -23.73155,4.35694 -40.906647,24.98766 -40.906647,49.06952 0,27.50076 22.376007,49.87676 49.877657,49.87676 l 273.2605,0 c 40.34669,0 73.1711,-32.82441 73.1711,-73.17109 0,-40.34669 -32.82441,-73.1711 -73.1711,-73.1711 -5.89616,-0.002 -10.78349,0.68449 -11.70362,0.82247 z m 1.08473,18.00968 c 0.42476,-0.0634 4.29217,-0.62048 8.92869,-0.62048 30.30344,0 54.95763,24.65256 54.95763,54.95763 0,14.65348 -5.72316,28.4469 -16.11614,38.83987 -10.3946,10.39298 -24.18801,16.11777 -38.84149,16.11777 l -269.70325,0 c -18.66058,0 -33.84194,-15.18137 -33.84194,-33.84195 0,-16.33948 11.65099,-27.08262 27.70052,-30.02988 0,0 266.7227,-45.38967 266.84452,-45.40997 0.0349,-0.006 0.0714,-0.013 0.0714,-0.013 l 0,0 z"
     sodipodi:nodetypes="cccssssccccsscssscccc" />
  <path
     style="fill:#ffffff"
     id="path2537"
     inkscape:connector-curvature="0"
     d="m 274.63564,143.89887 c -3.34094,-8.41016 -12.82084,-12.54132 -21.24712,-9.31147 l -40.79197,16.19942 c -0.86099,0.18994 -1.7193,0.43005 -2.56596,0.76692 -4.29333,1.70587 -7.46673,5.01366 -9.12242,8.96205 -1.73274,3.91255 -1.96031,8.48989 -0.25445,12.78053 0.33598,0.84576 0.74901,1.63419 1.20235,2.39036 l 16.21913,40.78659 c 3.43412,8.34564 12.94448,12.40423 21.35374,9.06239 8.40926,-3.34184 12.54131,-12.82263 9.30967,-21.24712 l -11.09169,-27.9326 27.92723,-11.10423 c 8.34475,-3.43233 12.40334,-12.94269 9.06149,-21.35284 l 0,0 z" />
  <path
     style="fill:#ffffff"
     id="path2539"
     inkscape:connector-curvature="0"
     d="m 345.84912,322.45892 c -0.52323,-0.91027 -1.12888,-1.7408 -1.77126,-2.53012 l -25.30841,-43.86414 c -5.30931,-8.95667 -16.84449,-12.00554 -25.88807,-6.79119 -9.04447,5.21345 -12.18294,16.72623 -7.09133,25.80744 l 17.31396,30.04342 -30.03446,17.32741 c -8.95578,5.3111 -12.00555,16.84449 -6.7903,25.88896 5.21435,9.04537 16.72533,12.18473 25.80744,7.09044 l 43.88026,-25.28779 c 0.95059,-0.36017 1.88773,-0.77678 2.79801,-1.3018 4.61407,-2.66182 7.68713,-6.96411 8.92083,-11.74482 1.32867,-4.75653 0.82516,-10.02015 -1.83667,-14.63781 l 0,0 z" />
  <circle
     style="fill:#ffffff"
     id="circle2541"
     cx="332.39575"
     cy="94.455734"
     r="39.421188" />
  <path
     style="fill:#ffffff"
     id="path2543"
     inkscape:connector-curvature="0"
     d="m 391.73628,177.06552 c -4.27003,-7.62531 -13.87268,-10.37673 -21.53024,-6.20883 l -25.3308,14.1746 -18.4088,-32.87548 c -1.29642,-5.7313 -5.2027,-10.78886 -11.01374,-13.29479 -9.58562,-4.13475 -20.69075,0.22846 -24.92853,9.73882 l -99.44711,230.56198 c -4.1661,9.66088 0.2867,20.86725 9.94758,25.03335 9.65998,4.16431 20.86725,-0.2867 25.03335,-9.94848 l 86.75976,-201.20394 10.76198,19.23396 c 0.29029,0.79917 0.62985,1.58849 1.059,2.35631 2.1825,3.89463 5.7537,6.51256 9.7451,7.59485 3.9672,1.16023 8.37879,0.79469 12.26805,-1.38422 0.76603,-0.42916 1.46844,-0.92551 2.13502,-1.455 l 36.99051,-20.72301 c 7.55453,-4.34887 10.2298,-13.97301 5.95887,-21.60012 l 0,0 z" />
</svg>
