<?xml version="1.0" encoding="UTF-8" standalone="no"?>
<!-- Created with Inkscape (http://www.inkscape.org/) -->

<svg
   xmlns:dc="http://purl.org/dc/elements/1.1/"
   xmlns:cc="http://creativecommons.org/ns#"
   xmlns:rdf="http://www.w3.org/1999/02/22-rdf-syntax-ns#"
   xmlns:svg="http://www.w3.org/2000/svg"
   xmlns="http://www.w3.org/2000/svg"
   xmlns:sodipodi="http://sodipodi.sourceforge.net/DTD/sodipodi-0.dtd"
   xmlns:inkscape="http://www.inkscape.org/namespaces/inkscape"
   version="1.0"
   width="580"
   height="580"
   id="svg2"
   sodipodi:version="0.32"
   inkscape:version="0.91 r"
   sodipodi:docname="fitness_station.svg"
   inkscape:output_extension="org.inkscape.output.svg.inkscape">
  <metadata
     id="metadata2975">
    <rdf:RDF>
      <cc:Work
         rdf:about="">
        <dc:format>image/svg+xml</dc:format>
        <dc:type
           rdf:resource="http://purl.org/dc/dcmitype/StillImage" />
        <cc:license
           rdf:resource="http://web.resource.org/cc/PublicDomain" />
        <dc:language>en</dc:language>
      </cc:Work>
    </rdf:RDF>
  </metadata>
  <sodipodi:namedview
     inkscape:window-height="1004"
     inkscape:window-width="1920"
     inkscape:pageshadow="2"
     inkscape:pageopacity="0.0"
     guidetolerance="10.0"
     gridtolerance="10.0"
     objecttolerance="10.0"
     borderopacity="1.0"
     bordercolor="#666666"
     pagecolor="#ffffff"
     id="base"
     inkscape:zoom="0.46083856"
     inkscape:cx="615.17654"
     inkscape:cy="213.81881"
     inkscape:window-x="1680"
     inkscape:window-y="0"
     inkscape:current-layer="svg2"
     showgrid="false"
     inkscape:window-maximized="1" />
  <defs
     id="defs4">
    <inkscape:perspective
       sodipodi:type="inkscape:persp3d"
       inkscape:vp_x="0 : 290 : 1"
       inkscape:vp_y="0 : 1000 : 0"
       inkscape:vp_z="580 : 290 : 1"
       inkscape:persp3d-origin="290 : 193.33333 : 1"
       id="perspective10" />
  </defs>
  <g
     id="g1327">
    <path
       d="M 66.275,1.768 C 24.94,1.768 1.704,23.139 1.704,66.804 L 1.704,516.927 C 1.704,557.771 22.599,579.156 63.896,579.156 L 515.92,579.156 C 557.227,579.156 578.149,558.841 578.149,516.927 L 578.149,66.804 C 578.149,24.203 557.227,1.768 514.628,1.768 C 514.624,1.768 66.133,1.625 66.275,1.768 z "
       style="fill:#111;stroke:#eee;stroke-width:3.40799999"
       id="path1329" />
  </g>
  <path
     style="fill:#ffffff"
     inkscape:connector-curvature="0"
     d="m 325.475,150.822 c 8.312,0 15.545,-3 21.703,-9.002 6.155,-6.002 9.234,-13.31 9.234,-21.922 0,-8.622 -3.079,-15.934 -9.234,-21.936 -6.158,-6.001 -13.392,-9.003 -21.703,-9.003 -8.614,0 -15.921,3.002 -21.922,9.003 -6.002,6.002 -9.004,13.313 -9.002,21.936 -0.002,8.612 3,15.92 9.002,21.922 6.001,6.002 13.307,9.002 21.922,9.002 z"
     id="path11" />
  <path
     style="fill:#ffffff"
     inkscape:connector-curvature="0"
     d="m 68.796,335.945 83.56,0 c 3.389,0 6.465,-0.306 9.228,-0.916 7.081,-1.23 12.007,-3.386 14.778,-6.467 l 41.082,-45.703 48.014,46.168 -19.386,86.32 c -0.62,1.851 -0.93,3.391 -0.93,4.621 0,5.541 2,10.312 6.001,14.313 4.001,4.001 8.772,6.002 14.315,6.002 10.462,0 16.928,-5.387 19.399,-16.16 l 23.542,-104.789 c 2.771,-11.083 1.541,-19.24 -3.691,-24.472 l -42.011,-42.013 45.703,-53.085 29.544,29.543 c 3.08,3.071 6.621,4.607 10.623,4.607 5.231,0 10.307,-2.306 15.229,-6.917 l 48.014,-48.014 c 2.46,-3.081 3.689,-6.467 3.691,-10.158 -0.002,-4.611 -1.616,-8.457 -4.848,-11.538 -3.23,-3.08 -7.002,-4.621 -11.312,-4.621 -4.312,0 -7.698,1.23 -10.158,3.691 l -39.702,39.715 -48.014,-48.013 c -3.691,-3.701 -8.307,-5.552 -13.849,-5.552 l -75.246,0 c -4.622,0 -8.623,1.851 -12.004,5.552 l -51.704,59.552 c -3.691,3.071 -5.538,6.917 -5.537,11.538 -0.001,4.311 1.537,8.005 4.614,11.081 3.075,3.075 6.769,4.613 11.081,4.613 4.611,0 8.613,-1.846 12.003,-5.537 l 48.014,-55.86 27.697,0.465 -105.72,122.796 -71.555,-0.466 c -5.851,0 -10.777,1.849 -14.779,5.545 -4,3.695 -6.001,8.465 -6.001,14.307 0,5.541 2.001,10.234 6.001,14.081 4.001,3.847 8.773,5.771 14.314,5.771 z"
     id="path13" />
  <path
     style="fill:#ffffff"
     inkscape:connector-curvature="0"
     d="m 537.15804,181.99389 c 4.158,-2.724 6.7492,-11.3522 3.34749,-16.93553 C 537.10383,159.47502 527.73,158.786 523.57,161.51 l -113,74 c -3.451,2.26 -4.924,6.576 -3.574,10.475 l 73.093,211.055 -420.589,0 c -9.389,0 -17,7.611 -17,17 0,9.389 7.611,17 17,17 l 457,0 c 9.389,0 17,-7.611 17,-17 0,-9.389 -7.611,-17 -17,-17 l -5.362,0 -72.837,-210.315 z"
     id="path15"
     sodipodi:nodetypes="czcsccssssssccc" />
</svg>
