<svg width="48" height="48" viewBox="0 0 580 580" fill="none" xmlns="http://www.w3.org/2000/svg">
<path opacity="0.75" fill-rule="evenodd" clip-rule="evenodd" d="M189.95 330.641L99.7962 393.698C65.0552 433.058 138.415 431.99 173.046 450.449L214.742 469.366L211.361 437.837L167.412 406.309L212.488 359.647L189.95 330.641Z" fill="white" stroke="white" stroke-width="5.73613" stroke-linecap="round" stroke-linejoin="round" />
<path opacity="0.75" fill-rule="evenodd" clip-rule="evenodd" d="M411.953 354.602C427.533 399.273 458.541 484.295 448.015 513.505L485.203 512.244C467.026 459.697 464.547 407.149 458.157 354.602H411.953Z" fill="white" stroke="white" stroke-width="5.73613" stroke-linecap="round" stroke-linejoin="round" />
<path fill-rule="evenodd" clip-rule="evenodd" d="M133.751 216.143C154.643 199.698 248.92 134.576 259.433 126.715C270.139 118.711 274.946 120.019 282.394 121.881L350.069 138.8C395.06 152.742 360.879 205.532 331.942 221.883C328.37 243.927 344.869 266.216 395.991 294.694L331.942 305.571C329.928 266.185 265.072 278.984 263.058 256.023L299.313 196.807C282.038 195.915 268.251 193.17 250.974 185.025C201.747 205.18 177.286 221.912 145.836 239.104L133.751 216.143Z" fill="white" stroke="white" stroke-width="5.81476" stroke-linecap="round" stroke-linejoin="round" />
<path fill-rule="evenodd" clip-rule="evenodd" d="M171.843 71.5981L227.545 75.201L222.1 83.1584L170.168 74.7823L171.843 71.5981Z" fill="white" stroke="white" stroke-width="8.06056" stroke-linecap="round" stroke-linejoin="round" />
<path d="M224.844 57.5327C212.424 57.5327 201.881 65.666 198.281 76.8962L252.658 86.3316C252.668 86.0176 252.696 85.7007 252.696 85.3842C252.696 69.9963 240.232 57.5327 224.844 57.5327Z" fill="white" stroke="white" stroke-width="14.3075" stroke-linecap="round" stroke-linejoin="round" />
<path fill-rule="evenodd" clip-rule="evenodd" d="M190.727 92.4697C190.596 93.5114 190.522 94.564 190.5 95.637C190.162 112.144 203.299 125.829 219.806 126.166C234.218 126.461 246.417 116.505 249.518 102.984L190.727 92.4697Z" fill="white" stroke="white" stroke-width="6.50514" stroke-linecap="round" stroke-linejoin="round" />
<path fill-rule="evenodd" clip-rule="evenodd" d="M213.615 247.406L331.942 220.922C386.081 212.619 413.978 223.895 432.238 242.361C503.493 225.24 532.304 249.68 556.199 278.934L540.692 299.62C521.552 273.03 489.741 247.96 440.788 258.071C447.025 290.271 466.957 316.269 494.219 338.386C511.51 380.207 529.376 441.706 558.453 476.933L540.423 504.678C520.781 458.3 492.299 390.727 451.665 364.486C420.375 355.587 391.485 347.557 369.13 321.991L354.223 317.166C317.585 351.001 261.506 362.801 210.234 363.608C175.481 400.284 146.221 451.772 97.5423 513.506L63.7346 498.372C104.168 466.96 135.065 397.988 169.665 353.519C168.175 298.182 136.167 249.816 114.343 234.717C92.5196 219.618 66.3154 251.106 41.1962 254.972C26.787 257.234 15.9416 236.383 24.2924 225.966C33.0073 215.096 66.1523 177.009 95.2885 161.648L106.558 132.642L113.319 160.387C148.158 183.096 184.466 199.23 213.615 247.406Z" fill="white" stroke="white" stroke-width="11.4723" stroke-linecap="round" stroke-linejoin="round" />
</svg>