<?xml version="1.0" encoding="UTF-8" standalone="no"?>
<!-- Created with Inkscape (http://www.inkscape.org/) -->

<svg
   xmlns:dc="http://purl.org/dc/elements/1.1/"
   xmlns:cc="http://creativecommons.org/ns#"
   xmlns:rdf="http://www.w3.org/1999/02/22-rdf-syntax-ns#"
   xmlns:svg="http://www.w3.org/2000/svg"
   xmlns="http://www.w3.org/2000/svg"
   xmlns:sodipodi="http://sodipodi.sourceforge.net/DTD/sodipodi-0.dtd"
   xmlns:inkscape="http://www.inkscape.org/namespaces/inkscape"
   version="1.0"
   width="580"
   height="580"
   id="svg2"
   sodipodi:version="0.32"
   inkscape:version="0.91 r"
   sodipodi:docname="horse_riding.svg"
   inkscape:output_extension="org.inkscape.output.svg.inkscape">
  <metadata
     id="metadata2975">
    <rdf:RDF>
      <cc:Work
         rdf:about="">
        <dc:format>image/svg+xml</dc:format>
        <dc:type
           rdf:resource="http://purl.org/dc/dcmitype/StillImage" />
        <cc:license
           rdf:resource="http://web.resource.org/cc/PublicDomain" />
        <dc:language>en</dc:language>
        <dc:title></dc:title>
      </cc:Work>
    </rdf:RDF>
  </metadata>
  <sodipodi:namedview
     inkscape:window-height="1004"
     inkscape:window-width="1920"
     inkscape:pageshadow="2"
     inkscape:pageopacity="0.0"
     guidetolerance="10.0"
     gridtolerance="10.0"
     objecttolerance="10.0"
     borderopacity="1.0"
     bordercolor="#666666"
     pagecolor="#ffffff"
     id="base"
     inkscape:zoom="0.92167712"
     inkscape:cx="397.0351"
     inkscape:cy="277.97216"
     inkscape:window-x="1680"
     inkscape:window-y="0"
     inkscape:current-layer="svg2"
     showgrid="false"
     inkscape:window-maximized="1" />
  <defs
     id="defs4">
    <inkscape:perspective
       sodipodi:type="inkscape:persp3d"
       inkscape:vp_x="0 : 290 : 1"
       inkscape:vp_y="0 : 1000 : 0"
       inkscape:vp_z="580 : 290 : 1"
       inkscape:persp3d-origin="290 : 193.33333 : 1"
       id="perspective10" />
  </defs>
  <g
     id="g1327">
    <path
       d="M 66.275,1.768 C 24.94,1.768 1.704,23.139 1.704,66.804 L 1.704,516.927 C 1.704,557.771 22.599,579.156 63.896,579.156 L 515.92,579.156 C 557.227,579.156 578.149,558.841 578.149,516.927 L 578.149,66.804 C 578.149,24.203 557.227,1.768 514.628,1.768 C 514.624,1.768 66.133,1.625 66.275,1.768 z "
       style="fill:#111;stroke:#eee;stroke-width:3.40799999"
       id="path1329" />
  </g>
  <path
     style="fill:#ffffff"
     inkscape:connector-curvature="0"
     d="m 510.43,216.548 c 1.417,-6.765 -7.447,-15.88 -7.447,-15.88 -2.543,-13.087 -15.548,-22.172 -15.548,-22.172 l -3.498,-0.664 -6.151,-32.664 -6.382,11.568 -1.326,-11.568 -15.046,27.649 c -24.447,-2.601 -43.556,2.204 -57.792,9.059 -0.913,-0.194 -1.872,-0.372 -2.881,-0.531 -8.588,-1.415 -20.541,-1.415 -36.252,0 -8.197,-14.929 -15.076,-26.492 -20.832,-35.42 -5.855,-8.88 -8.146,-13.223 -13.465,-17.516 -5.611,-4.536 -12.1,-8.83 -18.883,-8.928 -6.732,-0.146 -11.609,1.464 -21.22,8.586 -9.808,7.172 -26.396,23.761 -36.592,33.957 -10.247,9.953 -18.589,18.101 -23.907,25.76 -5.367,7.563 -7.807,12.734 -7.708,19.662 0.089,6.251 1.736,12.74 6.715,19.037 -13.94,-2.476 -51.849,-6.654 -73.94,15.623 -8.069,-8.382 -45.297,-43.569 -73.871,-12.051 -13.227,16.533 -1.105,44.354 -0.553,56.755 0.553,12.402 -7.719,41.318 -30.855,52.334 0,0 75.068,-4.955 62.807,-62.253 -1.348,-8.674 -8.001,-34.916 34.785,-24.755 -8.162,13.931 -11.689,34.504 -6.402,64.695 0,0 11.568,46.283 -14.051,75.209 l -4.965,85.129 c 0,0 9.92,4.955 8.271,17.357 0,0 -1.658,9.91 1.648,12.393 l 21.488,0 -9.92,-14.875 c 0,0 -21.488,-52.072 15.709,-104.135 0,0 9.909,-11.568 14.875,-15.699 l -14.051,32.232 c 0,0 14.875,54.545 14.051,74.375 0,0 -0.824,8.273 11.568,9.92 0,0 -2.482,14.051 2.482,16.533 l 22.313,0 c 0,0 -21.488,-24.795 -22.313,-27.277 0,0 -11.578,-58.676 -4.141,-76.033 0,0 25.629,-55.369 38.846,-67.771 0,0 12.402,-6.613 20.664,-4.953 0,0 27.96,9.187 60.934,12.967 0.27,3.009 0.827,5.656 1.918,7.9 3.316,6.684 12.488,9.172 18.1,9.318 5.561,-0.098 12.197,0 15.025,-8.93 0.563,-1.959 0.924,-4.321 1.158,-6.972 3.761,-0.218 7.482,-0.565 11.131,-1.069 0,0 10.743,42.977 0,70.254 0,0 -2.483,59.5 -6.613,63.641 0,0 5.789,9.086 5.789,14.875 0,0 -1.659,14.051 3.307,14.051 l 21.487,0 c 0,0 -19.016,-14.051 -13.227,-38.021 0,0 0,-35.539 6.613,-42.152 0,0 4.955,42.152 1.648,54.555 0,0 9.921,10.734 10.745,15.699 l 2.482,13.227 23.136,0 -19.005,-28.102 c 0,0 -8.263,-52.072 2.482,-88.436 0,0 7.437,-23.137 10.743,-42.152 0,0 23.349,-19.389 23.911,-57.318 l 0.965,1.488 c 5.478,-32.002 29.8,-47.882 29.8,-47.882 12.132,15.237 33.64,14.925 33.64,14.925 12.664,7.498 21.367,21.459 21.367,21.459 13.79,16.061 21.026,2.943 21.026,2.943 7.638,2.393 10.482,-5.498 10.482,-5.498 8.216,-13.99 -25.274,-63.458 -25.274,-63.458 z m -183.685,15.166 c 0,0 -3.796,0.74 -10.902,1.391 l -37.162,-21.363 38.202,-37.177 c 5.416,8.587 9.855,15.612 13.855,21.075 3.758,5.367 4.633,9.172 9.611,11.416 4.879,2.05 10.244,1.464 20.443,1.464 0.906,0.005 1.911,0.021 2.988,0.044 l -37.035,23.15 z"
     id="path11" />
  <path
     style="fill:#ffffff"
     inkscape:connector-curvature="0"
     d="m 356.498,132.894 c 18.287,0 33.129,-13.77 33.129,-30.736 0,-16.968 -14.842,-30.736 -33.129,-30.736 -18.287,0 -33.127,13.771 -33.127,30.736 0,16.965 14.84,30.736 33.127,30.736 z"
     id="path13" />
</svg>
