<svg width="48" height="48" viewBox="0 0 580 580" fill="none" xmlns="http://www.w3.org/2000/svg">
<path d="M274.278 312.61C272.076 303.801 268.774 296.095 259.966 227.839C251.159 159.582 284.187 92.4262 292.994 72.6101C301.802 52.7931 286.389 43.9861 264.37 38.4821C242.351 32.9781 239.049 60.5002 239.049 60.5002C212.627 110.041 225.838 220.133 215.93 238.849C206.022 257.565 195.012 312.611 195.012 312.611C217.031 334.628 276.48 321.416 274.278 312.61Z" fill="white" />
<path d="M412.642 425.928C412.642 424.028 412.083 422.036 411.013 419.978V419.976C402.583 403.792 362.154 383.571 307.568 372.254H307.57C279.673 365.365 273.775 346.713 272.887 335.312C267.973 343.933 214.544 354.203 193.928 333.586C193.928 361.081 139.594 372.254 139.594 372.254H139.639C87.494 383.568 51.058 403.782 43.507 419.976L42.002 468.497C42.002 492.414 124.973 511.802 227.321 511.802C329.673 511.802 412.642 492.414 412.642 468.497C412.642 466.598 412.642 427.851 412.642 425.928Z" fill="white" />
<path d="M443.572 211.968C413.496 211.968 389.114 222.008 389.114 234.392V261.62C389.114 274.005 413.496 284.044 443.572 284.044C473.646 284.044 498.028 274.005 498.028 261.62V234.392C498.028 222.008 473.647 211.968 443.572 211.968Z" fill="white" />
</svg>