<svg width="580" height="580" viewBox="0 0 580 580" fill="none" xmlns="http://www.w3.org/2000/svg">
<g clip-path="url(#clip0)">
<path d="M66.2751 1.76815C24.9401 1.76815 1.7041 23.1391 1.7041 66.8041V516.927C1.7041 557.771 22.5991 579.156 63.8961 579.156H515.92C557.227 579.156 578.149 558.841 578.149 516.927V66.8041C578.149 24.2031 557.227 1.76815 514.628 1.76815C514.624 1.76815 66.1331 1.62515 66.2751 1.76815Z" fill="#111111" stroke="#EEEEEE" stroke-width="3.408"/>
<path d="M209.934 166.982C220.893 165.416 229.701 160.424 236.358 152.003C243.015 143.584 245.561 133.889 243.995 122.917C242.824 112.352 238.028 103.643 229.609 96.7882C221.189 89.9344 211.493 87.2902 200.522 88.8555C189.563 90.0271 180.755 94.9211 174.098 103.538C167.441 112.155 164.895 121.752 166.461 132.329C167.632 143.288 172.427 152.096 180.847 158.753C189.267 165.41 198.962 168.153 209.934 166.982ZM533.015 352.025C532.62 351.63 478.576 324.214 370.883 269.775L329.758 216.335C323.101 210.455 316.641 210.843 310.379 217.5C306.459 222.197 305.873 227.288 308.622 232.774L339.17 272.124L313.893 329.705L247.527 313.248L244.587 289.172L299.211 282.701C310.959 281.135 316.833 274.873 316.833 263.913C316.833 258.822 314.678 254.316 310.37 250.396C306.061 246.476 301.362 244.911 296.271 245.699L240.464 252.153L235.193 211.046C234.01 200.47 229.11 191.754 220.493 184.9C211.876 178.046 202.285 175.402 191.72 176.967C180.749 178.138 171.934 183.033 165.278 191.649C158.621 200.266 155.878 209.863 157.049 220.44L168.809 316.188C170.375 328.725 176.446 338.322 187.023 344.979L99.4854 355.556L72.4693 423.105C86.1775 416.843 99.2941 413.712 111.819 413.712C123.962 413.712 135.907 416.448 147.655 421.922C154.707 425.053 162.146 426.619 169.975 426.619C177.814 426.619 185.26 425.053 192.312 421.922C203.665 416.448 215.605 413.712 228.13 413.712C235.575 413.712 245.465 415.863 257.799 420.165C270.133 424.468 279.628 426.619 286.285 426.619C294.125 426.619 301.571 425.053 308.622 421.922C320.37 416.448 332.507 413.712 345.032 413.712C352.872 413.712 360.413 414.886 367.656 417.234C374.898 419.583 382.045 422.125 389.097 424.862C488.962 398.235 538.895 376.889 538.895 360.827C538.895 356.919 536.935 353.985 533.015 352.025ZM461.343 449.53C454.291 449.53 444.5 451.684 431.969 455.992C419.438 460.301 409.844 462.455 403.188 462.455C396.136 462.455 386.345 460.301 373.814 455.992C361.283 451.684 351.689 449.53 345.032 449.53C337.981 449.53 328.189 451.684 315.659 455.992C303.127 460.301 293.336 462.455 286.285 462.455C279.246 462.455 269.556 460.301 257.217 455.992C244.877 451.684 235.181 449.53 228.13 449.53C221.09 449.53 211.401 451.684 199.061 455.992C186.721 460.301 177.026 462.455 169.975 462.455C162.935 462.455 153.245 460.301 140.906 455.992C128.566 451.684 118.87 449.53 111.819 449.53C104.768 449.53 94.9766 451.684 82.4457 455.992C69.9146 460.301 60.1235 462.455 53.0723 462.455V505.337C60.1235 505.337 69.9146 503.182 82.4457 498.874C94.9766 494.565 104.768 492.411 111.819 492.411C118.476 492.411 128.073 494.565 140.61 498.874C153.147 503.182 162.935 505.337 169.975 505.337C177.026 505.337 186.721 503.182 199.061 498.874C211.401 494.565 221.09 492.411 228.13 492.411C235.181 492.411 244.877 494.565 257.217 498.874C269.556 503.182 279.246 505.337 286.285 505.337C293.336 505.337 303.127 503.182 315.659 498.874C328.189 494.565 337.981 492.411 345.032 492.411C351.689 492.411 361.283 494.565 373.814 498.874C386.345 503.182 396.136 505.337 403.188 505.337C409.844 505.337 419.438 503.182 431.969 498.874C444.5 494.565 454.291 492.411 461.343 492.411C468.394 492.411 478.086 494.565 490.421 498.874C502.754 503.182 512.446 505.337 519.498 505.337V462.455C512.446 462.455 502.754 460.301 490.421 455.992C478.086 451.684 468.394 449.53 461.343 449.53Z" fill="white"/>
</g>
<defs>
<clipPath id="clip0">
<path d="M0 0H580V580H0V0Z" fill="white"/>
</clipPath>
</defs>
</svg>
