<?xml version="1.0" encoding="UTF-8" standalone="no"?>
<!-- Created with Inkscape (http://www.inkscape.org/) -->

<svg
   xmlns:dc="http://purl.org/dc/elements/1.1/"
   xmlns:cc="http://creativecommons.org/ns#"
   xmlns:rdf="http://www.w3.org/1999/02/22-rdf-syntax-ns#"
   xmlns:svg="http://www.w3.org/2000/svg"
   xmlns="http://www.w3.org/2000/svg"
   xmlns:sodipodi="http://sodipodi.sourceforge.net/DTD/sodipodi-0.dtd"
   xmlns:inkscape="http://www.inkscape.org/namespaces/inkscape"
   version="1.0"
   width="580"
   height="580"
   id="svg2"
   sodipodi:version="0.32"
   inkscape:version="0.91 r"
   sodipodi:docname="judo.svg"
   inkscape:output_extension="org.inkscape.output.svg.inkscape">
  <metadata
     id="metadata2975">
    <rdf:RDF>
      <cc:Work
         rdf:about="">
        <dc:format>image/svg+xml</dc:format>
        <dc:type
           rdf:resource="http://purl.org/dc/dcmitype/StillImage" />
        <cc:license
           rdf:resource="http://web.resource.org/cc/PublicDomain" />
        <dc:language>en</dc:language>
      </cc:Work>
    </rdf:RDF>
  </metadata>
  <sodipodi:namedview
     inkscape:window-height="739"
     inkscape:window-width="1332"
     inkscape:pageshadow="2"
     inkscape:pageopacity="0.0"
     guidetolerance="10.0"
     gridtolerance="10.0"
     objecttolerance="10.0"
     borderopacity="1.0"
     bordercolor="#666666"
     pagecolor="#ffffff"
     id="base"
     inkscape:zoom="0.46083856"
     inkscape:cx="-92.583821"
     inkscape:cy="279.4081"
     inkscape:window-x="34"
     inkscape:window-y="1024"
     inkscape:current-layer="svg2"
     showgrid="false"
     inkscape:window-maximized="1" />
  <defs
     id="defs4">
    <inkscape:perspective
       sodipodi:type="inkscape:persp3d"
       inkscape:vp_x="0 : 290 : 1"
       inkscape:vp_y="0 : 1000 : 0"
       inkscape:vp_z="580 : 290 : 1"
       inkscape:persp3d-origin="290 : 193.33333 : 1"
       id="perspective2441" />
    <inkscape:perspective
       id="perspective3452"
       inkscape:persp3d-origin="30 : 20 : 1"
       inkscape:vp_z="60 : 30 : 1"
       inkscape:vp_y="0 : 1000 : 0"
       inkscape:vp_x="0 : 30 : 1"
       sodipodi:type="inkscape:persp3d" />
    <symbol
       viewBox="244.5 110 489 219.9"
       id="symbol-university">
      <path
         id="path4460"
         d="M79,43l57,119c0,0,21-96,104-96s124,106,124,106l43-133l82-17L0,17L79,43z" />
      <path
         id="path4462"
         d="M94,176l-21,39"
         stroke-width="20"
         stroke="#000000"
         fill="none" />
      <path
         id="path4464"
         d="M300,19c0,10.5-22.6,19-50.5,19S199,29.5,199,19s22.6-19,50.5-19S300,8.5,300,19z" />
      <path
         id="path4466"
         d="M112,216l-16-38L64,88c0,0-9-8-4-35s16-24,16-24"
         stroke-width="20"
         stroke="#000000"
         ill="none" />
    </symbol>
    <inkscape:perspective
       id="perspective4471"
       inkscape:persp3d-origin="372.04724 : 350.78739 : 1"
       inkscape:vp_z="744.09448 : 526.18109 : 1"
       inkscape:vp_y="0 : 1000 : 0"
       inkscape:vp_x="0 : 526.18109 : 1"
       sodipodi:type="inkscape:persp3d" />
    <inkscape:perspective
       id="perspective4668"
       inkscape:persp3d-origin="6 : 4 : 1"
       inkscape:vp_z="12 : 6 : 1"
       inkscape:vp_y="0 : 1000 : 0"
       inkscape:vp_x="0 : 6 : 1"
       sodipodi:type="inkscape:persp3d" />
  </defs>
  <g
     id="g1327">
    <path
       d="M 66.275,1.768 C 24.94,1.768 1.704,23.139 1.704,66.804 L 1.704,516.927 C 1.704,557.771 22.599,579.156 63.896,579.156 L 515.92,579.156 C 557.227,579.156 578.149,558.841 578.149,516.927 L 578.149,66.804 C 578.149,24.203 557.227,1.768 514.628,1.768 C 514.624,1.768 66.133,1.625 66.275,1.768 z "
       style="fill:#111;stroke:#eee;stroke-width:3.40799999"
       id="path1329" />
  </g>
  <g
     id="g7"
     inkscape:output_extension="org.inkscape.output.svg.inkscape"
     sodipodi:docname="waste_bin.svg"
     inkscape:version="0.46"
     sodipodi:version="0.32">
    <g
       id="g9">
      <circle
         style="fill:#ffffff"
         cx="278.026"
         cy="215.981"
         r="30.672001"
         id="circle11" />
      <path
         style="fill:#ffffff"
         inkscape:connector-curvature="0"
         d="M 127.714,362.67 38.26,452.301 c -6.762,5.436 -8.972,15.026 -4.906,23.025 4.641,9.148 15.911,12.773 25.06,8.088 1.237,-0.662 2.386,-1.414 3.446,-2.297 l 91.841,-91.973 -22.054,-21.967 c -1.414,-1.368 -2.74,-2.871 -3.933,-4.507 z"
         id="path13" />
      <circle
         style="fill:#ffffff"
         cx="301.97501"
         cy="364.01901"
         r="30.672001"
         id="circle15" />
      <path
         style="fill:#ffffff"
         inkscape:connector-curvature="0"
         d="M 438.761,221.219 370.479,152.406 370.39,96.851 c 0,-10.431 -8.441,-18.916 -18.959,-18.916 -9.547,0 -18.872,11.05 -18.872,18.916 l 0,77.3 c 0,5.392 2.254,10.253 5.877,13.745 l 45.346,45.213 -48.87,48.871 -8.726,8.447 -70.888,-47.136 c -3.263,-3.281 -7.068,-5.702 -11.134,-7.261 -3.792,-1.975 -7.984,-2.634 -12.003,-2.1 -7.759,0.147 -15.484,3.112 -21.499,8.937 l -23.354,22.609 -1.121,0.934 -5.612,5.585 -40.688,39.39 c -12.163,11.776 -12.896,30.906 -1.983,43.567 1.012,1.354 2.125,2.635 3.336,3.829 l 68.283,68.813 0.088,55.555 c 0,10.431 8.442,18.916 18.96,18.916 9.546,0 18.872,-11.05 18.872,-18.916 l 0,-77.3 c 0,-5.392 -2.254,-10.253 -5.878,-13.745 l -45.346,-45.213 48.887,-48.886 7.846,-7.596 68.474,45.531 c 1.604,1.066 3.305,1.863 5.052,2.422 5.94,5.133 13.341,7.718 20.756,7.718 7.961,0 15.934,-2.973 22.105,-8.948 l 23.346,-22.601 1.131,-0.942 5.651,-5.624 40.648,-39.351 c 12.167,-11.777 12.896,-30.914 1.978,-43.574 -1.012,-1.351 -2.122,-2.629 -3.332,-3.821 z"
         id="path17" />
      <path
         style="fill:#ffffff"
         inkscape:connector-curvature="0"
         d="m 546.645,104.674 c -4.64,-9.148 -15.91,-12.773 -25.059,-8.088 -1.237,0.662 -2.388,1.414 -3.447,2.298 l -91.84,91.972 22.054,21.967 c 1.413,1.369 2.741,2.872 3.934,4.508 L 541.74,127.7 c 6.761,-5.436 8.971,-15.027 4.905,-23.026 z"
         id="path19" />
    </g>
  </g>
</svg>
