<?xml version="1.0" encoding="UTF-8" standalone="no"?>
<!-- Created with Inkscape (http://www.inkscape.org/) -->

<svg
   xmlns:dc="http://purl.org/dc/elements/1.1/"
   xmlns:cc="http://creativecommons.org/ns#"
   xmlns:rdf="http://www.w3.org/1999/02/22-rdf-syntax-ns#"
   xmlns:svg="http://www.w3.org/2000/svg"
   xmlns="http://www.w3.org/2000/svg"
   xmlns:sodipodi="http://sodipodi.sourceforge.net/DTD/sodipodi-0.dtd"
   xmlns:inkscape="http://www.inkscape.org/namespaces/inkscape"
   version="1.0"
   width="580"
   height="580"
   id="svg2"
   sodipodi:version="0.32"
   inkscape:version="0.91 r"
   sodipodi:docname="karting.svg"
   inkscape:output_extension="org.inkscape.output.svg.inkscape">
  <metadata
     id="metadata2975">
    <rdf:RDF>
      <cc:Work
         rdf:about="">
        <dc:format>image/svg+xml</dc:format>
        <dc:type
           rdf:resource="http://purl.org/dc/dcmitype/StillImage" />
        <cc:license
           rdf:resource="http://web.resource.org/cc/PublicDomain" />
        <dc:language>en</dc:language>
      </cc:Work>
    </rdf:RDF>
  </metadata>
  <sodipodi:namedview
     inkscape:window-height="739"
     inkscape:window-width="1332"
     inkscape:pageshadow="2"
     inkscape:pageopacity="0.0"
     guidetolerance="10.0"
     gridtolerance="10.0"
     objecttolerance="10.0"
     borderopacity="1.0"
     bordercolor="#666666"
     pagecolor="#ffffff"
     id="base"
     inkscape:zoom="0.46083856"
     inkscape:cx="284.98875"
     inkscape:cy="283.74801"
     inkscape:window-x="34"
     inkscape:window-y="1024"
     inkscape:current-layer="svg2"
     showgrid="false"
     inkscape:window-maximized="1" />
  <defs
     id="defs4">
    <inkscape:perspective
       sodipodi:type="inkscape:persp3d"
       inkscape:vp_x="0 : 290 : 1"
       inkscape:vp_y="0 : 1000 : 0"
       inkscape:vp_z="580 : 290 : 1"
       inkscape:persp3d-origin="290 : 193.33333 : 1"
       id="perspective2441" />
    <inkscape:perspective
       id="perspective3452"
       inkscape:persp3d-origin="30 : 20 : 1"
       inkscape:vp_z="60 : 30 : 1"
       inkscape:vp_y="0 : 1000 : 0"
       inkscape:vp_x="0 : 30 : 1"
       sodipodi:type="inkscape:persp3d" />
    <symbol
       viewBox="244.5 110 489 219.9"
       id="symbol-university">
      <path
         id="path4460"
         d="M79,43l57,119c0,0,21-96,104-96s124,106,124,106l43-133l82-17L0,17L79,43z" />
      <path
         id="path4462"
         d="M94,176l-21,39"
         stroke-width="20"
         stroke="#000000"
         fill="none" />
      <path
         id="path4464"
         d="M300,19c0,10.5-22.6,19-50.5,19S199,29.5,199,19s22.6-19,50.5-19S300,8.5,300,19z" />
      <path
         id="path4466"
         d="M112,216l-16-38L64,88c0,0-9-8-4-35s16-24,16-24"
         stroke-width="20"
         stroke="#000000"
         ill="none" />
    </symbol>
    <inkscape:perspective
       id="perspective4471"
       inkscape:persp3d-origin="372.04724 : 350.78739 : 1"
       inkscape:vp_z="744.09448 : 526.18109 : 1"
       inkscape:vp_y="0 : 1000 : 0"
       inkscape:vp_x="0 : 526.18109 : 1"
       sodipodi:type="inkscape:persp3d" />
    <inkscape:perspective
       id="perspective4668"
       inkscape:persp3d-origin="6 : 4 : 1"
       inkscape:vp_z="12 : 6 : 1"
       inkscape:vp_y="0 : 1000 : 0"
       inkscape:vp_x="0 : 6 : 1"
       sodipodi:type="inkscape:persp3d" />
  </defs>
  <g
     id="g1327">
    <path
       d="M 66.275,1.768 C 24.94,1.768 1.704,23.139 1.704,66.804 L 1.704,516.927 C 1.704,557.771 22.599,579.156 63.896,579.156 L 515.92,579.156 C 557.227,579.156 578.149,558.841 578.149,516.927 L 578.149,66.804 C 578.149,24.203 557.227,1.768 514.628,1.768 C 514.624,1.768 66.133,1.625 66.275,1.768 z "
       style="fill:#111;stroke:#eee;stroke-width:3.40799999"
       id="path1329" />
  </g>
  <path
     style="fill:#ffffff"
     inkscape:connector-curvature="0"
     d="m 498.636,277.176 -39.292,0 -108.186,-92.729 -60.176,18.745 -0.271,22.687 -19.375,0 0,-13.809 c 0,-3.271 -2.647,-5.919 -5.918,-5.919 -3.271,0 -11.919,2.647 -11.919,5.919 l 0,46.361 c 0,3.271 8.647,5.919 11.919,5.919 3.272,0 5.918,-2.647 5.918,-5.919 l 0,-15.646 19.293,0 -0.526,34.391 -110.843,0 -48.078,-92.729 -50.31,20.716 0,72.036 c -19.114,0.267 -34.53,15.817 -34.53,34.996 0,19.34 15.675,35.016 35.021,35.016 l 21.755,0 c 5.16717,-28.83902 30.38475,-50.82326 60.69992,-50.82326 30.31516,0 55.53274,21.98424 60.69991,50.82326 l 106.44317,0 c 5.33047,-29.75036 31.34495,-52.42933 62.61809,-52.42933 31.27178,0 57.28626,22.67897 62.61672,52.42933 l 42.43819,0 c 19.34,0 35.021,-15.676 35.021,-35.016 0.002,-19.343 -15.679,-35.019 -35.019,-35.019 z"
     id="path11"
     sodipodi:nodetypes="scccccsssssscccccccsscsccscscs" />
  <path
     style="fill:#ffffff"
     inkscape:connector-curvature="0"
     d="m 164.475,319.153 c -19.38,0 -35.599,13.779 -39.368,32.057 -0.543,2.636 -0.833,5.352 -0.833,8.138 0,22.173 18.034,40.206 40.2,40.206 22.166,0 40.2,-18.033 40.2,-40.206 0,-2.786 -0.289,-5.502 -0.833,-8.138 -3.767,-18.277 -19.986,-32.057 -39.366,-32.057 z"
     id="path13" />
  <path
     style="fill:#ffffff"
     inkscape:connector-curvature="0"
     d="m 394.318,317.153 c -19.381,0 -35.6,13.779 -39.368,32.057 -0.543,2.636 -0.832,5.352 -0.832,8.138 0,22.173 18.033,40.206 40.2,40.206 22.166,0 40.2,-18.033 40.2,-40.206 0,-2.786 -0.289,-5.502 -0.833,-8.138 -3.768,-18.277 -19.987,-32.057 -39.367,-32.057 z"
     id="path15" />
</svg>
