<?xml version="1.0" encoding="UTF-8" standalone="no"?>
<!-- Created with Inkscape (http://www.inkscape.org/) -->

<svg
   xmlns:dc="http://purl.org/dc/elements/1.1/"
   xmlns:cc="http://creativecommons.org/ns#"
   xmlns:rdf="http://www.w3.org/1999/02/22-rdf-syntax-ns#"
   xmlns:svg="http://www.w3.org/2000/svg"
   xmlns="http://www.w3.org/2000/svg"
   xmlns:sodipodi="http://sodipodi.sourceforge.net/DTD/sodipodi-0.dtd"
   xmlns:inkscape="http://www.inkscape.org/namespaces/inkscape"
   version="1.0"
   width="580"
   height="580"
   id="svg2"
   sodipodi:version="0.32"
   inkscape:version="0.91 r"
   sodipodi:docname="model_aerodrome.svg"
   inkscape:output_extension="org.inkscape.output.svg.inkscape">
  <metadata
     id="metadata2975">
    <rdf:RDF>
      <cc:Work
         rdf:about="">
        <dc:format>image/svg+xml</dc:format>
        <dc:type
           rdf:resource="http://purl.org/dc/dcmitype/StillImage" />
        <cc:license
           rdf:resource="http://web.resource.org/cc/PublicDomain" />
        <dc:language>en</dc:language>
        <dc:title></dc:title>
      </cc:Work>
    </rdf:RDF>
  </metadata>
  <sodipodi:namedview
     inkscape:window-height="1004"
     inkscape:window-width="1920"
     inkscape:pageshadow="2"
     inkscape:pageopacity="0.0"
     guidetolerance="10.0"
     gridtolerance="10.0"
     objecttolerance="10.0"
     borderopacity="1.0"
     bordercolor="#666666"
     pagecolor="#ffffff"
     id="base"
     inkscape:zoom="0.11520964"
     inkscape:cx="954.40363"
     inkscape:cy="900.51409"
     inkscape:window-x="1680"
     inkscape:window-y="0"
     inkscape:current-layer="svg2"
     showgrid="false"
     inkscape:window-maximized="1" />
  <defs
     id="defs4">
    <inkscape:perspective
       sodipodi:type="inkscape:persp3d"
       inkscape:vp_x="0 : 290 : 1"
       inkscape:vp_y="0 : 1000 : 0"
       inkscape:vp_z="580 : 290 : 1"
       inkscape:persp3d-origin="290 : 193.33333 : 1"
       id="perspective10" />
  </defs>
  <g
     id="g1327">
    <path
       d="M 66.275,1.768 C 24.94,1.768 1.704,23.139 1.704,66.804 l 0,450.123 c 0,40.844 20.895,62.229 62.192,62.229 l 452.024,0 c 41.307,0 62.229,-20.315 62.229,-62.229 l 0,-450.123 c 0,-42.601 -20.922,-65.036 -63.521,-65.036 -0.004,0 -448.495,-0.143 -448.353,0 z"
       style="fill:#111111;stroke:#eeeeee;stroke-width:3.40799999"
       id="path1329"
       inkscape:connector-curvature="0" />
  </g>
  <g
     id="g7"
     inkscape:version="0.46"
     sodipodi:docname="waste_bin.svg"
     sodipodi:version="0.32"
     inkscape:output_extension="org.inkscape.output.svg.inkscape"
     transform="matrix(0.69841351,-0.33811721,0.33811721,0.69841351,124.94753,265.80428)">
    <path
       style="clip-rule:evenodd;fill:#ffffff;fill-rule:evenodd"
       inkscape:connector-curvature="0"
       d="m 341.445,203.829 c -47.777,-28.505 -99.5,-62.198 -148.351,-92.246 -5.789,-3.563 -16.993,-12.781 -21.849,-12.48 -10.638,0.659 -21.919,10.47 -31.606,11.574 38.269,45.426 77.462,88.854 115.736,134.273 -33.347,15.501 -68.961,32.315 -102.232,47.677 -5.135,2.369 -11.219,6.295 -14.824,6.706 -3.437,0.394 -11.275,-4.292 -15.778,-6.382 -11.705,-5.431 -19.624,-9.573 -31.049,-14.871 -5.037,-2.339 -12.178,-6.656 -16.342,-6.179 -7.55,0.869 -12.275,5.305 -20.112,8.006 7.604,8.768 13.461,18.53 20.605,28.298 5.958,8.146 17.383,19.313 20.602,28.297 1.747,4.874 0.855,11.664 1.273,17.458 1.295,18.068 2.675,35.069 4.584,52.723 6.683,-4.033 14.145,-3.036 20.317,-7.44 2.854,-2.034 6.093,-11.111 7.925,-15.062 7.692,-16.579 14.321,-33.162 22.383,-47.24 41.06,-10.406 83.152,-23.044 124.14,-33.297 -0.015,59.338 -1.896,117.804 -1.656,177.26 10.724,-3.927 21.447,-7.854 32.172,-11.78 19.012,-55.667 35.111,-110.078 53.486,-166.798 1.912,-5.901 5.303,-21.069 8.625,-23.643 2.877,-2.225 8.039,-2.457 11.494,-3.567 64.627,-20.777 118.762,-56.498 143.971,-96.245 -50.383,-14.93 -113.736,-1.911 -183.514,24.958 z"
       id="path9" />
  </g>
  <path
     style="font-style:normal;font-variant:normal;font-weight:normal;font-stretch:normal;font-size:40px;line-height:125%;font-family:NPSPICT3;-inkscape-font-specification:NPSPICT3;text-align:start;writing-mode:lr-tb;text-anchor:start;fill:#ffffff;fill-opacity:1;stroke:none;stroke-width:1px;stroke-linecap:butt;stroke-linejoin:miter;stroke-opacity:1"
     d="m 132.77139,135.49621 c 9.90939,3.7e-4 18.4689,-3.60418 25.67853,-10.81363 7.20854,-7.20871 10.81308,-15.76822 10.81364,-25.67853 -5.6e-4,-10.34936 -3.6051,-19.01538 -10.81364,-25.9981 -7.20963,-6.98187 -15.76914,-10.47302 -25.67853,-10.47345 -9.91044,4.3e-4 -18.46651,3.49158 -25.66823,10.47345 -7.202715,6.98272 -10.803815,15.64874 -10.803335,25.9981 -4.8e-4,9.91031 3.60062,18.46982 10.803335,25.67853 7.20172,7.20945 15.75779,10.814 25.66823,10.81363 z m 47.97586,7.42216 -96.611472,0 c -13.05792,3.3e-4 -24.20486,4.61856 -33.44086,13.85464 -9.23686,9.23677 -13.85507,20.61049 -13.85465,34.12122 l 0,112.13611 c -4.2e-4,10.81726 4.95453,16.22579 14.86489,16.22561 9.4559,1.8e-4 14.18408,-5.40835 14.18454,-16.22561 l 0,-109.43528 17.56572,0 0,297.25657 c -4.8e-4,13.51103 6.75504,20.26655 20.266552,20.26657 13.51053,-2e-5 20.26604,-6.75554 20.26655,-20.26657 l 0,-172.27604 17.56573,0 0,172.27604 c -5.3e-4,13.51103 6.75498,20.26655 20.26655,20.26657 13.96406,-2e-5 20.94636,-6.75554 20.94692,-20.26657 l 0,-297.25657 16.88537,0 0,109.43528 c -5.9e-4,11.25709 4.72758,16.88553 14.18453,16.88537 9.46948,1.6e-4 14.20452,-5.62828 14.20513,-16.88537 l 0,-111.47637 c -6.1e-4,-13.05715 -4.39203,-24.42744 -13.17428,-34.1109 -8.78346,-9.68279 -20.15718,-14.52437 -34.12122,-14.5247 z"
     id="flowRoot3192"
     sodipodi:nodetypes="csccssscccccsccsccccsccccsccccsccccc"
     inkscape:connector-curvature="0" />
</svg>
