<svg width="580" height="580" viewBox="0 0 580 580" fill="none" xmlns="http://www.w3.org/2000/svg">
<path fill-rule="evenodd" clip-rule="evenodd" d="M305.641 68.9546C304.12 68.9546 302.484 69.0675 300.851 69.2112V151.332C302.484 151.188 304.12 151.075 305.641 151.075C328.261 151.075 354.595 167.815 381.602 173.658V91.5377C354.595 85.6947 328.261 68.9546 305.641 68.9546Z" fill="white" stroke="white" stroke-width="5" stroke-linecap="round" stroke-linejoin="round"/>
<path fill-rule="evenodd" clip-rule="evenodd" d="M130.451 68.6123L132.199 314.765C132.31 330.413 179.232 350.901 201.622 350.901C231.733 350.901 278.268 326.265 305.641 326.265C333.015 326.265 365.863 350.901 398.711 350.901C431.559 350.901 469.882 331.74 469.882 331.74V74.4292C469.882 74.4292 431.559 93.5906 398.711 93.5906C365.863 93.5906 333.015 68.9545 305.641 68.9545C278.268 68.9545 231.733 93.5906 201.622 93.5906C171.511 93.5906 130.451 68.6123 130.451 68.6123Z" stroke="white" stroke-width="10" stroke-linecap="round" stroke-linejoin="round"/>
<path fill-rule="evenodd" clip-rule="evenodd" d="M467.829 162.965C462.511 165.53 428.968 181.186 398.711 181.186C394.833 181.186 390.946 180.85 387.077 180.245V262.365C390.946 262.971 394.833 263.306 398.711 263.306C428.968 263.306 462.511 247.651 467.829 245.086V162.965Z" fill="white" stroke="white" stroke-width="5" stroke-linecap="round" stroke-linejoin="round"/>
<path fill-rule="evenodd" clip-rule="evenodd" d="M305.641 244.145C304.12 244.145 302.484 244.257 300.851 244.401V326.521C302.484 326.378 304.12 326.265 305.641 326.265C328.261 326.265 354.595 343.005 381.602 348.848V266.728C354.595 260.885 328.261 244.145 305.641 244.145Z" fill="white" stroke="white" stroke-width="5" stroke-linecap="round" stroke-linejoin="round"/>
<path d="M130.451 243.802L132.162 314.802C132.547 330.446 179.232 350.901 201.622 350.901C204.447 350.901 207.434 350.609 210.518 350.216V268.096C207.434 268.489 204.447 268.781 201.622 268.781C171.511 268.781 130.451 243.802 130.451 243.802Z" fill="white" stroke="white" stroke-width="5" stroke-linecap="round" stroke-linejoin="round"/>
<path d="M296.06 157.405C272.723 160.974 240.852 175.327 215.309 179.817V261.937C240.852 257.447 272.723 243.094 296.06 239.525V157.405Z" fill="white" stroke="white" stroke-width="5" stroke-linecap="round" stroke-linejoin="round"/>
<path d="M130.451 68.6123L132.162 139.612C132.547 155.257 179.232 175.711 201.622 175.711C204.447 175.711 207.434 175.419 210.518 175.027V92.9062C207.434 93.2991 204.447 93.5906 201.622 93.5906C171.511 93.5906 130.451 68.6123 130.451 68.6123Z" fill="white" stroke="white" stroke-width="5" stroke-linecap="round" stroke-linejoin="round"/>
<path fill-rule="evenodd" clip-rule="evenodd" d="M116.5 529.881V66.5859H131.136V529.881H116.5Z" fill="white" stroke="white" stroke-width="10" stroke-linecap="round" stroke-linejoin="round"/>
</svg>
