<svg width="48" height="48" viewBox="0 0 580 580" fill="none" xmlns="http://www.w3.org/2000/svg">
<path d="M44.4209 269.963L540.351 367.81L44.4209 269.963Z" fill="white" />
<path d="M44.4209 269.963L540.351 367.81" stroke="white" stroke-width="34.5243" stroke-miterlimit="1.1" stroke-linecap="round" />
<path fill-rule="evenodd" clip-rule="evenodd" d="M292.386 322.025L240.092 431.862H344.68L292.386 322.025Z" fill="white" stroke="white" stroke-width="2.02257" />
<path fill-rule="evenodd" clip-rule="evenodd" d="M126.519 174.099C105.996 169.83 40.8348 266.732 40.8348 266.732L118.788 287.049C118.788 287.049 96.4862 318.729 78.5683 341.644C67.3931 355.936 82.5557 368.492 97.8693 353.87C126.155 326.862 151.802 294.63 151.802 294.63C151.802 294.63 148.193 178.608 126.519 174.099Z" fill="white" stroke="white" stroke-width="3.17781" />
<path d="M133.112 127.246C124.161 141.659 129.608 160.343 145.272 168.963C160.936 177.584 180.879 172.874 189.805 158.446C198.756 144.033 193.309 125.349 177.645 116.729C161.981 108.108 142.037 112.818 133.112 127.246Z" fill="white" stroke="white" stroke-width="21.2405" />
<path fill-rule="evenodd" clip-rule="evenodd" d="M508.386 254.276C528.44 260.382 539.132 376.678 539.132 376.678L460.993 357.085C460.993 357.085 465.365 395.585 470.094 424.291C473.044 442.194 453.718 445.933 447.296 425.753C435.434 388.479 428.391 347.89 428.391 347.89C428.391 347.89 487.207 247.829 508.386 254.276Z" fill="white" stroke="white" stroke-width="3.17778" />
<path d="M525.075 210.004C526.016 226.946 512.275 240.724 494.397 240.768C476.519 240.813 461.281 227.108 460.37 210.165C459.43 193.223 473.17 179.445 491.048 179.401C508.926 179.356 524.165 193.062 525.075 210.004Z" fill="white" stroke="white" stroke-width="21.2403" />
</svg>