<?xml version="1.0" encoding="UTF-8" standalone="no"?>
<!-- Created with Inkscape (http://www.inkscape.org/) -->

<svg
   xmlns:dc="http://purl.org/dc/elements/1.1/"
   xmlns:cc="http://creativecommons.org/ns#"
   xmlns:rdf="http://www.w3.org/1999/02/22-rdf-syntax-ns#"
   xmlns:svg="http://www.w3.org/2000/svg"
   xmlns="http://www.w3.org/2000/svg"
   xmlns:sodipodi="http://sodipodi.sourceforge.net/DTD/sodipodi-0.dtd"
   xmlns:inkscape="http://www.inkscape.org/namespaces/inkscape"
   version="1.0"
   width="580"
   height="580"
   id="svg2"
   sodipodi:version="0.32"
   inkscape:version="0.48.4 r9939"
   sodipodi:docname="rugby_league.svg"
   inkscape:output_extension="org.inkscape.output.svg.inkscape">
  <metadata
     id="metadata2975">
    <rdf:RDF>
      <cc:Work
         rdf:about="">
        <dc:format>image/svg+xml</dc:format>
        <dc:type
           rdf:resource="http://purl.org/dc/dcmitype/StillImage" />
        <cc:license
           rdf:resource="http://web.resource.org/cc/PublicDomain" />
        <dc:language>en</dc:language>
        <dc:title></dc:title>
      </cc:Work>
    </rdf:RDF>
  </metadata>
  <sodipodi:namedview
     inkscape:window-height="1004"
     inkscape:window-width="1920"
     inkscape:pageshadow="2"
     inkscape:pageopacity="0.0"
     guidetolerance="10.0"
     gridtolerance="10.0"
     objecttolerance="10.0"
     borderopacity="1.0"
     bordercolor="#666666"
     pagecolor="#ffffff"
     id="base"
     inkscape:zoom="0.32586207"
     inkscape:cx="69.888338"
     inkscape:cy="412.38046"
     inkscape:window-x="1680"
     inkscape:window-y="0"
     inkscape:current-layer="svg2"
     showgrid="false"
     inkscape:window-maximized="1" />
  <defs
     id="defs4">
    <inkscape:perspective
       sodipodi:type="inkscape:persp3d"
       inkscape:vp_x="0 : 290 : 1"
       inkscape:vp_y="0 : 1000 : 0"
       inkscape:vp_z="580 : 290 : 1"
       inkscape:persp3d-origin="290 : 193.33333 : 1"
       id="perspective10" />
  </defs>
  <g
     id="g1327">
    <path
       d="M 66.275,1.768 C 24.94,1.768 1.704,23.139 1.704,66.804 l 0,450.123 c 0,40.844 20.895,62.229 62.192,62.229 l 452.024,0 c 41.307,0 62.229,-20.315 62.229,-62.229 l 0,-450.123 c 0,-42.601 -20.922,-65.036 -63.521,-65.036 -0.004,0 -448.495,-0.143 -448.353,0 z"
       style="fill:#111111;stroke:#eeeeee;stroke-width:3.40799999"
       id="path1329"
       inkscape:connector-curvature="0" />
  </g>
  <g
     id="g3951"
     transform="translate(23.015873,-13.809524)">
    <path
       style="fill:#ffffff;fill-opacity:1"
       id="path3"
       d="m 393.15269,261.13942 c -4.72671,4.72671 -11.029,4.72671 -17.33128,0 -6.30228,-4.72671 -3.15114,-7.87786 -23.63356,-29.93585 C 331.70543,209.14558 326.97871,212.29671 322.252,207.57 c -4.72672,-4.72671 -4.72672,-12.60457 0,-17.33128 l 1.57557,-1.57557 c 4.72671,-4.72671 12.60457,-4.72671 17.33128,0 4.72671,4.72671 6.30228,12.60457 23.63356,29.93585 17.33128,17.33128 25.20914,18.90685 29.93585,23.63356 4.72671,4.72672 4.72671,12.60457 0,17.33128 l -1.57557,1.57558 z"
       inkscape:connector-curvature="0" />
    <path
       style="fill:#ffffff;fill-opacity:1"
       id="path5"
       d="m 353.76342,300.52869 c -4.72671,4.72671 -11.029,4.72671 -17.33128,0 -6.30229,-4.72671 -3.15114,-7.87786 -23.63357,-29.93585 -20.48242,-22.05799 -25.20913,-18.90685 -29.93585,-23.63356 -4.72671,-4.72672 -4.72671,-12.60457 0,-17.33128 l 1.57558,-1.57558 c 4.72671,-4.72671 12.60457,-4.72671 17.33128,0 4.72671,4.72672 6.30228,12.60457 23.63356,29.93585 17.33128,17.33128 25.20914,18.90685 29.93585,23.63357 4.72671,4.72671 4.72671,12.60457 0,17.33128 l -1.57557,1.57557 z"
       inkscape:connector-curvature="0" />
    <path
       style="fill:#ffffff;fill-opacity:1"
       id="path7"
       d="m 432.54197,221.75014 c -4.72672,4.72672 -11.029,4.72672 -17.33128,0 -6.30229,-4.72671 -3.15115,-7.87785 -23.63357,-29.93584 -20.48242,-22.058 -25.20913,-18.90686 -29.93584,-23.63357 -4.72672,-4.72672 -4.72672,-12.60457 0,-17.33128 l 1.57556,-1.57557 c 4.72672,-4.72671 12.60457,-4.72671 17.33128,0 4.72672,4.72671 6.30229,12.60457 23.63357,29.93585 17.33128,17.33128 25.20913,18.90684 29.93585,23.63356 4.72671,4.72671 4.72671,12.60457 0,17.33128 l -1.57557,1.57557 z"
       inkscape:connector-curvature="0" />
    <g
       style="fill:#ffffff;fill-opacity:1"
       id="g9"
       transform="matrix(15.75571,0,0,15.75571,169.42161,35.832767)">
      <g
         style="fill:#ffffff;fill-opacity:1"
         id="g11">
        <path
           style="fill:#ffffff;fill-opacity:1"
           id="path13"
           d="m 17,4 c 1.4,0 2.3,0.3 2.5,0.6 1,1 1,7.2 -3.3,11.6 C 13.3,19 9.6,20 7.1,20 5.7,20 4.8,19.7 4.6,19.4 4.3,19.1 3.8,17.6 4.2,15 4.5,13.4 5.3,10.4 7.9,7.8 10.8,5 14.5,4 17,4 M 17,2 C 13.8,2 9.6,3.3 6.5,6.5 1.6,11.4 1.1,18.8 3.2,20.9 3.9,21.6 5.3,22 7.1,22 10.2,22 14.4,20.7 17.6,17.5 22.5,12.6 23,5.2 20.9,3.1 20.1,2.4 18.7,2 17,2 l 0,0 z"
           inkscape:connector-curvature="0" />
      </g>
    </g>
    <line
       id="line15"
       y2="295.80206"
       x2="287.58951"
       y1="154.00067"
       x1="429.39087"
       stroke-miterlimit="10"
       style="fill:none;stroke:#ffffff;stroke-width:31.5114193;stroke-linejoin:round;stroke-miterlimit:10;stroke-opacity:1" />
    <line
       id="line17"
       y2="138.24496"
       x2="445.14658"
       y1="98.855698"
       x1="484.53583"
       stroke-miterlimit="10"
       style="fill:none;stroke:#ffffff;stroke-width:31.5114193;stroke-linejoin:round;stroke-miterlimit:10;stroke-opacity:1" />
    <line
       id="line19"
       y2="350.94705"
       x2="232.4445"
       y1="311.55777"
       x1="271.83377"
       stroke-miterlimit="10"
       style="fill:none;stroke:#ffffff;stroke-width:31.5114193;stroke-linejoin:round;stroke-miterlimit:10;stroke-opacity:1" />
  </g>
  <g
     transform="matrix(3.7285554,0,0,3.7285554,-107.7452,-303.53202)"
     style="font-size:40px;font-style:normal;font-weight:normal;line-height:125%;letter-spacing:0px;word-spacing:0px;fill:#ffffff;fill-opacity:1;stroke:none;font-family:Sans"
     id="flowRoot3943">
    <path
       d="m 119.42188,194.02951 2.32031,0.49219 -8.15625,25.875 -73.828128,0 0,-2.60157 3.585938,0 c 4.031239,1e-5 6.914049,-1.31249 8.648437,-3.9375 0.984359,-1.49999 1.476546,-4.96874 1.476563,-10.40625 l 0,-61.52343 c -1.7e-5,-5.95304 -0.656266,-9.6796 -1.96875,-11.17969 -1.828138,-2.06241 -4.546885,-3.09366 -8.15625,-3.09375 l -3.585938,0 0,-2.60156 43.171875,0 0,2.60156 c -5.06254,-0.0468 -8.625037,0.42197 -10.6875,1.40625 -2.015658,0.98446 -3.398469,2.22665 -4.148437,3.72656 -0.75003,1.50009 -1.12503,5.08602 -1.125,10.75781 l 0,59.90625 c -3e-5,3.89064 0.37497,6.56251 1.125,8.01563 0.562468,0.98438 1.429655,1.71094 2.601562,2.17969 1.171841,0.46875 4.828087,0.70313 10.96875,0.70312 l 6.960938,0 c 7.312441,1e-5 12.44525,-0.53906 15.39844,-1.61719 2.95305,-1.07811 5.64836,-2.97655 8.08594,-5.69531 2.43742,-2.76561 4.87491,-7.10154 7.3125,-13.00781"
       style="font-size:144px;font-variant:normal;font-stretch:normal;font-family:Times New Roman;-inkscape-font-specification:Times New Roman"
       id="path3982" />
  </g>
</svg>
