<?xml version="1.0" encoding="UTF-8" standalone="no"?>
<!-- Created with Inkscape (http://www.inkscape.org/) -->

<svg
   xmlns:dc="http://purl.org/dc/elements/1.1/"
   xmlns:cc="http://creativecommons.org/ns#"
   xmlns:rdf="http://www.w3.org/1999/02/22-rdf-syntax-ns#"
   xmlns:svg="http://www.w3.org/2000/svg"
   xmlns="http://www.w3.org/2000/svg"
   xmlns:sodipodi="http://sodipodi.sourceforge.net/DTD/sodipodi-0.dtd"
   xmlns:inkscape="http://www.inkscape.org/namespaces/inkscape"
   version="1.0"
   width="580"
   height="580"
   id="svg2"
   sodipodi:version="0.32"
   inkscape:version="0.91 r"
   sodipodi:docname="running.svg"
   inkscape:output_extension="org.inkscape.output.svg.inkscape">
  <metadata
     id="metadata2975">
    <rdf:RDF>
      <cc:Work
         rdf:about="">
        <dc:format>image/svg+xml</dc:format>
        <dc:type
           rdf:resource="http://purl.org/dc/dcmitype/StillImage" />
        <cc:license
           rdf:resource="http://web.resource.org/cc/PublicDomain" />
        <dc:language>en</dc:language>
      </cc:Work>
    </rdf:RDF>
  </metadata>
  <sodipodi:namedview
     inkscape:window-height="739"
     inkscape:window-width="1332"
     inkscape:pageshadow="2"
     inkscape:pageopacity="0.0"
     guidetolerance="10.0"
     gridtolerance="10.0"
     objecttolerance="10.0"
     borderopacity="1.0"
     bordercolor="#666666"
     pagecolor="#ffffff"
     id="base"
     inkscape:zoom="0.46083856"
     inkscape:cx="67.507776"
     inkscape:cy="297.07151"
     inkscape:window-x="34"
     inkscape:window-y="1024"
     inkscape:current-layer="svg2"
     showgrid="false"
     inkscape:window-maximized="1" />
  <defs
     id="defs4">
    <inkscape:perspective
       sodipodi:type="inkscape:persp3d"
       inkscape:vp_x="0 : 290 : 1"
       inkscape:vp_y="0 : 1000 : 0"
       inkscape:vp_z="580 : 290 : 1"
       inkscape:persp3d-origin="290 : 193.33333 : 1"
       id="perspective2441" />
    <inkscape:perspective
       id="perspective3452"
       inkscape:persp3d-origin="30 : 20 : 1"
       inkscape:vp_z="60 : 30 : 1"
       inkscape:vp_y="0 : 1000 : 0"
       inkscape:vp_x="0 : 30 : 1"
       sodipodi:type="inkscape:persp3d" />
    <symbol
       viewBox="244.5 110 489 219.9"
       id="symbol-university">
      <path
         id="path4460"
         d="M79,43l57,119c0,0,21-96,104-96s124,106,124,106l43-133l82-17L0,17L79,43z" />
      <path
         id="path4462"
         d="M94,176l-21,39"
         stroke-width="20"
         stroke="#000000"
         fill="none" />
      <path
         id="path4464"
         d="M300,19c0,10.5-22.6,19-50.5,19S199,29.5,199,19s22.6-19,50.5-19S300,8.5,300,19z" />
      <path
         id="path4466"
         d="M112,216l-16-38L64,88c0,0-9-8-4-35s16-24,16-24"
         stroke-width="20"
         stroke="#000000"
         ill="none" />
    </symbol>
    <inkscape:perspective
       id="perspective4471"
       inkscape:persp3d-origin="372.04724 : 350.78739 : 1"
       inkscape:vp_z="744.09448 : 526.18109 : 1"
       inkscape:vp_y="0 : 1000 : 0"
       inkscape:vp_x="0 : 526.18109 : 1"
       sodipodi:type="inkscape:persp3d" />
    <inkscape:perspective
       id="perspective4668"
       inkscape:persp3d-origin="6 : 4 : 1"
       inkscape:vp_z="12 : 6 : 1"
       inkscape:vp_y="0 : 1000 : 0"
       inkscape:vp_x="0 : 6 : 1"
       sodipodi:type="inkscape:persp3d" />
  </defs>
  <g
     id="g1327">
    <path
       d="M 66.275,1.768 C 24.94,1.768 1.704,23.139 1.704,66.804 L 1.704,516.927 C 1.704,557.771 22.599,579.156 63.896,579.156 L 515.92,579.156 C 557.227,579.156 578.149,558.841 578.149,516.927 L 578.149,66.804 C 578.149,24.203 557.227,1.768 514.628,1.768 C 514.624,1.768 66.133,1.625 66.275,1.768 z "
       style="fill:#111;stroke:#eee;stroke-width:3.40799999"
       id="path1329" />
  </g>
  <g
     id="g7"
     inkscape:output_extension="org.inkscape.output.svg.inkscape"
     sodipodi:docname="waste_bin.svg"
     inkscape:version="0.46"
     sodipodi:version="0.32">
    <g
       id="g9">
      <g
         id="g11">
        <path
           style="fill:#ffffff"
           inkscape:connector-curvature="0"
           d="m 487.584,195.423 c 6.907,0 12.919,-2.493 18.037,-7.481 5.116,-4.988 7.675,-11.062 7.675,-18.219 0,-7.166 -2.559,-13.242 -7.675,-18.23 -5.118,-4.987 -11.13,-7.482 -18.037,-7.482 -7.158,0 -13.231,2.495 -18.219,7.482 -4.988,4.988 -7.482,11.064 -7.481,18.23 -0.001,7.157 2.493,13.23 7.481,18.219 4.988,4.988 11.061,7.481 18.219,7.481 z"
           id="path13" />
        <path
           style="fill:#ffffff"
           inkscape:connector-curvature="0"
           d="m 558.374,200.798 c -2.686,-2.56 -5.82,-3.84 -9.401,-3.84 -3.583,0 -6.397,1.022 -8.442,3.067 l -32.995,33.007 -39.902,-39.902 c -3.068,-3.076 -6.904,-4.614 -11.511,-4.614 l -62.534,0 c -3.842,0 -7.167,1.538 -9.978,4.614 l -42.969,49.492 c -3.068,2.552 -4.603,5.748 -4.603,9.589 0,3.582 1.278,6.652 3.836,9.209 2.555,2.556 5.625,3.834 9.209,3.834 3.832,0 7.156,-1.534 9.975,-4.603 l 39.904,-46.423 23.018,0.386 -87.861,102.052 -59.468,-0.387 c -4.863,0 -8.958,1.537 -12.283,4.609 -3.325,3.07 -4.987,7.033 -4.987,11.889 0,4.605 1.663,8.506 4.987,11.703 3.325,3.195 7.292,4.795 11.896,4.795 l 69.444,0 c 2.816,0 5.373,-0.254 7.67,-0.762 5.884,-1.021 9.979,-2.814 12.281,-5.375 l 34.142,-37.982 39.903,38.369 -16.111,71.738 c -0.515,1.539 -0.773,2.818 -0.773,3.842 0,4.604 1.663,8.568 4.988,11.895 3.326,3.326 7.29,4.988 11.896,4.988 8.695,0 14.068,-4.477 16.123,-13.43 l 19.564,-87.088 c 2.303,-9.211 1.28,-15.99 -3.067,-20.338 l -34.915,-34.917 37.982,-44.117 24.554,24.552 c 2.56,2.554 5.503,3.83 8.828,3.83 4.348,0 8.566,-1.917 12.657,-5.748 l 39.902,-39.904 c 2.045,-2.56 3.066,-5.374 3.068,-8.441 -10e-4,-3.832 -1.342,-7.029 -4.027,-9.589 z"
           id="path15" />
      </g>
      <g
         id="g17">
        <path
           style="fill:#ffffff"
           inkscape:connector-curvature="0"
           d="m 247.8,195.423 c 6.907,0 12.919,-2.493 18.037,-7.481 5.116,-4.988 7.675,-11.062 7.675,-18.219 0,-7.166 -2.559,-13.242 -7.675,-18.23 -5.118,-4.987 -11.13,-7.482 -18.037,-7.482 -7.158,0 -13.231,2.495 -18.219,7.482 -4.988,4.988 -7.482,11.064 -7.481,18.23 -0.001,7.157 2.493,13.23 7.481,18.219 4.988,4.988 11.061,7.481 18.219,7.481 z"
           id="path19" />
        <path
           style="fill:#ffffff"
           inkscape:connector-curvature="0"
           d="m 318.591,200.798 c -2.686,-2.56 -5.82,-3.84 -9.402,-3.84 -3.583,0 -6.397,1.022 -8.442,3.067 L 267.752,233.032 227.85,193.13 c -3.068,-3.076 -6.904,-4.614 -11.511,-4.614 l -62.534,0 c -3.842,0 -7.167,1.538 -9.978,4.614 l -42.969,49.492 c -3.068,2.552 -4.603,5.748 -4.603,9.589 0,3.582 1.278,6.652 3.836,9.209 2.555,2.556 5.625,3.834 9.209,3.834 3.832,0 7.156,-1.534 9.975,-4.603 l 39.904,-46.423 23.018,0.386 -87.862,102.052 -59.468,-0.387 c -4.863,0 -8.958,1.537 -12.283,4.609 -3.325,3.07 -4.987,7.033 -4.987,11.889 0,4.605 1.663,8.506 4.987,11.703 3.325,3.195 7.292,4.795 11.896,4.795 l 69.444,0 c 2.816,0 5.373,-0.254 7.67,-0.762 5.884,-1.021 9.979,-2.814 12.281,-5.375 l 34.142,-37.982 39.903,38.369 -16.111,71.738 c -0.515,1.539 -0.773,2.818 -0.773,3.842 0,4.604 1.663,8.568 4.988,11.895 3.326,3.326 7.29,4.988 11.896,4.988 8.695,0 14.068,-4.477 16.123,-13.43 l 19.564,-87.088 c 2.303,-9.211 1.28,-15.99 -3.067,-20.338 l -34.915,-34.917 37.982,-44.117 24.554,24.552 c 2.56,2.554 5.503,3.83 8.828,3.83 4.348,0 8.566,-1.917 12.657,-5.748 l 39.902,-39.904 c 2.045,-2.56 3.066,-5.374 3.068,-8.441 0,-3.832 -1.342,-7.029 -4.025,-9.589 z"
           id="path21" />
      </g>
    </g>
  </g>
</svg>
