<svg width="48" height="48" viewBox="0 0 580 580" fill="none" xmlns="http://www.w3.org/2000/svg">
<path d="M544.696 158.344C544.696 160.951 542.796 162.115 540.474 160.931L301.367 82.7226C299.045 81.5389 295.215 81.4788 292.857 82.5914L40.7648 157.783C38.4072 158.896 36.478 157.672 36.478 155.065V133.942C36.478 131.335 38.4072 128.292 40.7648 127.179L292.857 51.9875C295.215 50.8748 299.045 50.9349 301.367 52.1186L540.474 130.327C542.796 131.511 544.696 134.614 544.696 137.221V158.344Z" stroke="white" stroke-width="32.7899" />
<path fill-rule="evenodd" clip-rule="evenodd" d="M520.67 430.863C516.597 432.106 511.337 431.868 504.438 430.392C497.426 428.796 491.034 421.356 479.384 421.767C467.45 422.181 450.595 432.872 434.309 432.872C417.793 432.52 399.243 421.294 382.389 421.294C365.592 421.414 350.321 433.047 334.204 433.402C317.802 433.46 301.458 422.537 285.396 422.301C269.108 421.888 253.668 431.988 238.454 431.868C223.467 431.574 210.176 420.823 195.301 421.294C180.031 421.888 163.29 433.698 148.359 434.407C133.316 434.645 119.685 423.424 106.395 423.303C92.992 423.067 77.9471 431.513 68.8979 433.404C59.8487 435.119 54.1363 435.296 51.9878 433.936V465.239C54.1363 466.597 59.8487 466.421 68.8979 464.707C77.9471 462.816 92.9907 454.371 106.395 454.607C119.686 454.726 133.316 465.947 148.359 465.709C163.29 465.12 180.031 453.011 195.301 452.597C210.176 452.007 223.466 462.992 238.454 463.228C253.668 463.348 269.108 453.308 285.396 453.603C301.458 453.838 317.802 464.762 334.204 464.706C350.321 464.351 365.592 452.715 382.389 452.597C399.243 452.54 417.793 463.938 434.309 464.236C450.595 464.236 467.451 453.542 479.384 453.13C491.034 452.597 497.426 460.158 504.438 461.694C511.337 463.17 516.597 463.406 520.67 462.165V430.863Z" fill="white" />
<path fill-rule="evenodd" clip-rule="evenodd" d="M252.649 401.805L382.049 332.762C371.871 310.436 364.687 293.606 360.502 281.616C356.202 269.684 354.393 267.027 356.825 261.357C359.313 255.51 355.864 254.624 374.811 246.888C393.755 238.855 450.425 215.821 468.918 214.699C487.017 213.755 486.282 233.717 483.285 240.451C480.003 247.006 463.15 248.659 450.369 253.858C437.416 258.819 423.164 264.37 406.707 270.513L465.92 400.802C458.286 407.356 448.161 409.898 434.475 408.892C420.562 407.537 402.011 394.307 384.706 394.244C367.456 394.307 347.775 409.071 331.997 409.365C316.161 409.305 303.605 396.549 290.371 395.252C277.082 393.948 264.583 396.133 252.649 401.805Z" fill="white" />
<path fill-rule="evenodd" clip-rule="evenodd" d="M485.133 289.063C505.083 289.063 521.271 305.97 521.271 326.803C521.271 347.635 505.082 364.542 485.133 364.542C465.185 364.542 448.994 347.635 448.994 326.803C448.994 305.97 465.184 289.063 485.133 289.063Z" fill="white" />
<path fill-rule="evenodd" clip-rule="evenodd" d="M165.327 404.343C150 401.508 134.391 397.141 117.425 391.23C100.344 384.973 71.2184 376.584 64.3177 368.375C57.4183 359.929 62.4512 343.038 76.3654 342.27C90.3334 341.502 118.046 353.905 146.834 364.183C175.451 374.343 208.197 387.041 246.825 402.928C242.074 405.526 235.797 406.353 227.765 405.171C219.621 403.811 209.328 396.311 198.865 396.076C188.346 395.898 177.317 398.733 165.327 404.343Z" fill="white" />
<path fill-rule="evenodd" clip-rule="evenodd" d="M520.67 488.678C516.597 489.798 511.337 489.622 504.438 488.146C497.426 486.611 491.034 479.048 479.384 479.58C467.45 479.992 450.595 490.683 434.309 490.683C417.793 490.33 399.243 479.108 382.389 479.108C365.592 479.227 350.321 490.862 334.204 491.215C317.802 491.275 301.458 480.349 285.396 480.112C269.108 479.698 253.668 489.798 238.454 489.68C223.467 489.385 210.176 478.635 195.301 479.108C180.031 479.698 163.29 491.509 148.359 492.221C133.316 492.456 119.685 481.233 106.395 481.115C92.992 480.881 77.9471 489.325 68.8979 491.216C59.8487 493.049 54.1363 492.988 51.9878 491.689V522.991C54.1363 524.29 59.8487 524.352 68.8979 522.518C77.9471 520.626 92.9907 512.183 106.395 512.418C119.686 512.536 133.316 523.758 148.359 523.523C163.29 522.812 180.031 511 195.301 510.41C210.176 509.937 223.466 520.688 238.454 520.983C253.668 521.101 269.108 511 285.396 511.414C301.458 511.651 317.802 522.577 334.204 522.517C350.321 522.165 365.592 510.526 382.389 510.41C399.243 510.41 417.793 521.633 434.309 521.985C450.595 521.985 467.451 511.295 479.384 510.882C491.034 510.468 497.426 517.908 504.438 519.506C511.337 520.983 516.597 521.22 520.67 519.98V488.678Z" fill="white" />
</svg>