<svg width="48" height="48" viewBox="0 0 580 580" fill="none" xmlns="http://www.w3.org/2000/svg">
<path d="M107.376 153.616C132.612 153.616 153.069 133.158 153.069 107.923C153.069 82.687 132.612 62.2295 107.376 62.2295C82.1406 62.2295 61.6831 82.687 61.6831 107.923C61.6831 133.158 82.1406 153.616 107.376 153.616Z" fill="white" />
<path d="M146.215 258.71L322.133 434.628C301.572 434.628 278.725 430.059 258.163 423.205C249.025 420.92 217.039 416.351 203.332 427.774C173.631 457.474 148.5 496.313 134.792 510.021C121.084 523.729 100.522 519.16 79.9603 498.598C61.6831 480.321 54.8292 457.474 68.5371 443.766C84.5296 432.343 123.369 404.927 153.069 377.512C166.777 363.804 159.923 327.249 157.638 322.68C148.5 302.118 146.215 279.272 146.215 258.71ZM466.066 114.777C381.534 27.96 267.302 59.9451 196.478 128.485C171.346 153.616 153.069 185.601 148.5 219.871L360.972 432.343C395.242 425.489 427.227 409.497 452.359 384.366C520.898 313.541 552.883 199.309 466.066 114.777Z" fill="white" />
</svg>