<svg width="580" height="580" viewBox="0 0 580 580" fill="none" xmlns="http://www.w3.org/2000/svg">
<g clip-path="url(#clip0)">
<path d="M66.275 1.7679C24.94 1.7679 1.70398 23.1389 1.70398 66.8039V516.927C1.70398 557.771 22.598 579.156 63.896 579.156H515.92C557.227 579.156 578.149 558.84 578.149 516.927V66.8039C578.149 24.2029 557.227 1.7679 514.627 1.7679C514.624 1.7679 66.133 1.6249 66.275 1.7679Z" fill="#111111" stroke="#EEEEEE" stroke-width="3.408"/>
<path fill-rule="evenodd" clip-rule="evenodd" d="M291.25 107.607C227.81 107.607 170.721 128.257 122.336 164.999C77.6661 198.921 82.8462 234.191 82.8462 234.191V234.578V472.393H192.017V235.576C192.041 235.112 193.231 212.967 205.884 190.814C218.672 168.428 240.102 146.822 291.25 146.822C342.398 146.822 362.263 168.108 373.931 190.234C385.599 212.361 385.753 234.877 385.753 234.877V234.92V472.393H497.337V235.051C497.337 235.051 497.096 207.412 455.997 171.943C412.052 134.019 354.689 107.607 291.25 107.607V107.607Z" fill="white"/>
</g>
<defs>
<clipPath id="clip0">
<path d="M0 0H580V580H0V0Z" fill="white"/>
</clipPath>
</defs>
</svg>
