<?xml version="1.0" encoding="UTF-8" standalone="no"?>
<!-- Created with Inkscape (http://www.inkscape.org/) -->

<svg
   xmlns:dc="http://purl.org/dc/elements/1.1/"
   xmlns:cc="http://creativecommons.org/ns#"
   xmlns:rdf="http://www.w3.org/1999/02/22-rdf-syntax-ns#"
   xmlns:svg="http://www.w3.org/2000/svg"
   xmlns="http://www.w3.org/2000/svg"
   xmlns:sodipodi="http://sodipodi.sourceforge.net/DTD/sodipodi-0.dtd"
   xmlns:inkscape="http://www.inkscape.org/namespaces/inkscape"
   version="1.0"
   width="580"
   height="580"
   id="svg2"
   sodipodi:version="0.32"
   inkscape:version="0.48.4 r9939"
   sodipodi:docname="palaeontological_site.svg"
   inkscape:output_extension="org.inkscape.output.svg.inkscape">
  <metadata
     id="metadata2975">
    <rdf:RDF>
      <cc:Work
         rdf:about="">
        <dc:format>image/svg+xml</dc:format>
        <dc:type
           rdf:resource="http://purl.org/dc/dcmitype/StillImage" />
        <dc:title></dc:title>
      </cc:Work>
    </rdf:RDF>
  </metadata>
  <sodipodi:namedview
     inkscape:window-height="995"
     inkscape:window-width="1280"
     inkscape:pageshadow="2"
     inkscape:pageopacity="0.0"
     guidetolerance="10.0"
     gridtolerance="10.0"
     objecttolerance="10.0"
     borderopacity="1.0"
     bordercolor="#666666"
     pagecolor="#ffffff"
     id="base"
     inkscape:zoom="0.70710678"
     inkscape:cx="232.6754"
     inkscape:cy="201.56469"
     inkscape:window-x="0"
     inkscape:window-y="0"
     inkscape:current-layer="svg2"
     showgrid="false"
     inkscape:window-maximized="1" />
  <defs
     id="defs4">
    <inkscape:perspective
       sodipodi:type="inkscape:persp3d"
       inkscape:vp_x="0 : 290 : 1"
       inkscape:vp_y="0 : 1000 : 0"
       inkscape:vp_z="580 : 290 : 1"
       inkscape:persp3d-origin="290 : 193.33333 : 1"
       id="perspective2441" />
    <inkscape:perspective
       id="perspective2466"
       inkscape:persp3d-origin="372.04724 : 350.78739 : 1"
       inkscape:vp_z="744.09448 : 526.18109 : 1"
       inkscape:vp_y="0 : 1000 : 0"
       inkscape:vp_x="0 : 526.18109 : 1"
       sodipodi:type="inkscape:persp3d" />
    <inkscape:perspective
       id="perspective3333"
       inkscape:persp3d-origin="372.04724 : 350.78739 : 1"
       inkscape:vp_z="744.09448 : 526.18109 : 1"
       inkscape:vp_y="0 : 1000 : 0"
       inkscape:vp_x="0 : 526.18109 : 1"
       sodipodi:type="inkscape:persp3d" />
    <inkscape:perspective
       id="perspective3401"
       inkscape:persp3d-origin="372.04724 : 350.78739 : 1"
       inkscape:vp_z="744.09448 : 526.18109 : 1"
       inkscape:vp_y="0 : 1000 : 0"
       inkscape:vp_x="0 : 526.18109 : 1"
       sodipodi:type="inkscape:persp3d" />
    <inkscape:perspective
       id="perspective3464"
       inkscape:persp3d-origin="372.04724 : 350.78739 : 1"
       inkscape:vp_z="744.09448 : 526.18109 : 1"
       inkscape:vp_y="0 : 1000 : 0"
       inkscape:vp_x="0 : 526.18109 : 1"
       sodipodi:type="inkscape:persp3d" />
    <inkscape:perspective
       id="perspective3581"
       inkscape:persp3d-origin="225 : 150 : 1"
       inkscape:vp_z="450 : 225 : 1"
       inkscape:vp_y="0 : 1000 : 0"
       inkscape:vp_x="0 : 225 : 1"
       sodipodi:type="inkscape:persp3d" />
    <inkscape:perspective
       id="perspective4312"
       inkscape:persp3d-origin="225 : 150 : 1"
       inkscape:vp_z="450 : 225 : 1"
       inkscape:vp_y="0 : 1000 : 0"
       inkscape:vp_x="0 : 225 : 1"
       sodipodi:type="inkscape:persp3d" />
    <inkscape:perspective
       id="perspective8860"
       inkscape:persp3d-origin="372.04724 : 350.78739 : 1"
       inkscape:vp_z="744.09448 : 526.18109 : 1"
       inkscape:vp_y="0 : 1000 : 0"
       inkscape:vp_x="0 : 526.18109 : 1"
       sodipodi:type="inkscape:persp3d" />
    <inkscape:perspective
       id="perspective8887"
       inkscape:persp3d-origin="372.04724 : 350.78739 : 1"
       inkscape:vp_z="744.09448 : 526.18109 : 1"
       inkscape:vp_y="0 : 1000 : 0"
       inkscape:vp_x="0 : 526.18109 : 1"
       sodipodi:type="inkscape:persp3d" />
    <inkscape:perspective
       sodipodi:type="inkscape:persp3d"
       inkscape:vp_x="0 : 16 : 1"
       inkscape:vp_y="0 : 1000 : 0"
       inkscape:vp_z="32 : 16 : 1"
       inkscape:persp3d-origin="16 : 10.666667 : 1"
       id="perspective4904" />
    <inkscape:perspective
       sodipodi:type="inkscape:persp3d"
       inkscape:vp_x="0 : 6 : 1"
       inkscape:vp_y="0 : 1000 : 0"
       inkscape:vp_z="12 : 6 : 1"
       inkscape:persp3d-origin="6 : 4 : 1"
       id="perspective4668" />
    <inkscape:perspective
       sodipodi:type="inkscape:persp3d"
       inkscape:vp_x="0 : 526.18109 : 1"
       inkscape:vp_y="0 : 1000 : 0"
       inkscape:vp_z="744.09448 : 526.18109 : 1"
       inkscape:persp3d-origin="372.04724 : 350.78739 : 1"
       id="perspective4471" />
    <symbol
       id="symbol-university"
       viewBox="244.5 110 489 219.9">
      <path
         d="M79,43l57,119c0,0,21-96,104-96s124,106,124,106l43-133l82-17L0,17L79,43z"
         id="path4460" />
      <path
         fill="none"
         stroke="#000000"
         stroke-width="20"
         d="M94,176l-21,39"
         id="path4462" />
      <path
         d="M300,19c0,10.5-22.6,19-50.5,19S199,29.5,199,19s22.6-19,50.5-19S300,8.5,300,19z"
         id="path4464" />
      <path
         ill="none"
         stroke="#000000"
         stroke-width="20"
         d="M112,216l-16-38L64,88c0,0-9-8-4-35s16-24,16-24"
         id="path4466" />
    </symbol>
    <inkscape:perspective
       sodipodi:type="inkscape:persp3d"
       inkscape:vp_x="0 : 30 : 1"
       inkscape:vp_y="0 : 1000 : 0"
       inkscape:vp_z="60 : 30 : 1"
       inkscape:persp3d-origin="30 : 20 : 1"
       id="perspective3452" />
    <inkscape:perspective
       id="perspective9479"
       inkscape:persp3d-origin="290 : 193.33333 : 1"
       inkscape:vp_z="580 : 290 : 1"
       inkscape:vp_y="0 : 1000 : 0"
       inkscape:vp_x="0 : 290 : 1"
       sodipodi:type="inkscape:persp3d" />
    <inkscape:perspective
       id="perspective9690"
       inkscape:persp3d-origin="372.04724 : 350.78739 : 1"
       inkscape:vp_z="744.09448 : 526.18109 : 1"
       inkscape:vp_y="0 : 1000 : 0"
       inkscape:vp_x="0 : 526.18109 : 1"
       sodipodi:type="inkscape:persp3d" />
    <inkscape:perspective
       sodipodi:type="inkscape:persp3d"
       inkscape:vp_x="0 : 290 : 1"
       inkscape:vp_y="0 : 1000 : 0"
       inkscape:vp_z="580 : 290 : 1"
       inkscape:persp3d-origin="290 : 193.33333 : 1"
       id="perspective9819" />
    <inkscape:perspective
       id="perspective9817"
       inkscape:persp3d-origin="30 : 20 : 1"
       inkscape:vp_z="60 : 30 : 1"
       inkscape:vp_y="0 : 1000 : 0"
       inkscape:vp_x="0 : 30 : 1"
       sodipodi:type="inkscape:persp3d" />
    <symbol
       viewBox="244.5 110 489 219.9"
       id="symbol9807">
      <path
         id="path9809"
         d="M79,43l57,119c0,0,21-96,104-96s124,106,124,106l43-133l82-17L0,17L79,43z" />
      <path
         id="path9811"
         d="M94,176l-21,39"
         stroke-width="20"
         stroke="#000000"
         fill="none" />
      <path
         id="path9813"
         d="M300,19c0,10.5-22.6,19-50.5,19S199,29.5,199,19s22.6-19,50.5-19S300,8.5,300,19z" />
      <path
         id="path9815"
         d="M112,216l-16-38L64,88c0,0-9-8-4-35s16-24,16-24"
         stroke-width="20"
         stroke="#000000"
         ill="none" />
    </symbol>
    <inkscape:perspective
       id="perspective9805"
       inkscape:persp3d-origin="372.04724 : 350.78739 : 1"
       inkscape:vp_z="744.09448 : 526.18109 : 1"
       inkscape:vp_y="0 : 1000 : 0"
       inkscape:vp_x="0 : 526.18109 : 1"
       sodipodi:type="inkscape:persp3d" />
    <inkscape:perspective
       id="perspective9803"
       inkscape:persp3d-origin="6 : 4 : 1"
       inkscape:vp_z="12 : 6 : 1"
       inkscape:vp_y="0 : 1000 : 0"
       inkscape:vp_x="0 : 6 : 1"
       sodipodi:type="inkscape:persp3d" />
    <inkscape:perspective
       id="perspective9801"
       inkscape:persp3d-origin="16 : 10.666667 : 1"
       inkscape:vp_z="32 : 16 : 1"
       inkscape:vp_y="0 : 1000 : 0"
       inkscape:vp_x="0 : 16 : 1"
       sodipodi:type="inkscape:persp3d" />
    <inkscape:perspective
       sodipodi:type="inkscape:persp3d"
       inkscape:vp_x="0 : 526.18109 : 1"
       inkscape:vp_y="0 : 1000 : 0"
       inkscape:vp_z="744.09448 : 526.18109 : 1"
       inkscape:persp3d-origin="372.04724 : 350.78739 : 1"
       id="perspective9799" />
    <inkscape:perspective
       sodipodi:type="inkscape:persp3d"
       inkscape:vp_x="0 : 526.18109 : 1"
       inkscape:vp_y="0 : 1000 : 0"
       inkscape:vp_z="744.09448 : 526.18109 : 1"
       inkscape:persp3d-origin="372.04724 : 350.78739 : 1"
       id="perspective9797" />
    <inkscape:perspective
       sodipodi:type="inkscape:persp3d"
       inkscape:vp_x="0 : 225 : 1"
       inkscape:vp_y="0 : 1000 : 0"
       inkscape:vp_z="450 : 225 : 1"
       inkscape:persp3d-origin="225 : 150 : 1"
       id="perspective9795" />
    <inkscape:perspective
       sodipodi:type="inkscape:persp3d"
       inkscape:vp_x="0 : 225 : 1"
       inkscape:vp_y="0 : 1000 : 0"
       inkscape:vp_z="450 : 225 : 1"
       inkscape:persp3d-origin="225 : 150 : 1"
       id="perspective9793" />
    <inkscape:perspective
       sodipodi:type="inkscape:persp3d"
       inkscape:vp_x="0 : 526.18109 : 1"
       inkscape:vp_y="0 : 1000 : 0"
       inkscape:vp_z="744.09448 : 526.18109 : 1"
       inkscape:persp3d-origin="372.04724 : 350.78739 : 1"
       id="perspective9791" />
    <inkscape:perspective
       sodipodi:type="inkscape:persp3d"
       inkscape:vp_x="0 : 526.18109 : 1"
       inkscape:vp_y="0 : 1000 : 0"
       inkscape:vp_z="744.09448 : 526.18109 : 1"
       inkscape:persp3d-origin="372.04724 : 350.78739 : 1"
       id="perspective9789" />
    <inkscape:perspective
       sodipodi:type="inkscape:persp3d"
       inkscape:vp_x="0 : 526.18109 : 1"
       inkscape:vp_y="0 : 1000 : 0"
       inkscape:vp_z="744.09448 : 526.18109 : 1"
       inkscape:persp3d-origin="372.04724 : 350.78739 : 1"
       id="perspective9787" />
    <inkscape:perspective
       sodipodi:type="inkscape:persp3d"
       inkscape:vp_x="0 : 526.18109 : 1"
       inkscape:vp_y="0 : 1000 : 0"
       inkscape:vp_z="744.09448 : 526.18109 : 1"
       inkscape:persp3d-origin="372.04724 : 350.78739 : 1"
       id="perspective9785" />
    <inkscape:perspective
       id="perspective9783"
       inkscape:persp3d-origin="290 : 193.33333 : 1"
       inkscape:vp_z="580 : 290 : 1"
       inkscape:vp_y="0 : 1000 : 0"
       inkscape:vp_x="0 : 290 : 1"
       sodipodi:type="inkscape:persp3d" />
    <inkscape:perspective
       id="perspective10056"
       inkscape:persp3d-origin="372.04724 : 350.78739 : 1"
       inkscape:vp_z="744.09448 : 526.18109 : 1"
       inkscape:vp_y="0 : 1000 : 0"
       inkscape:vp_x="0 : 526.18109 : 1"
       sodipodi:type="inkscape:persp3d" />
  </defs>
  <g
     id="g1327">
    <path
       d="M 66.275,1.768 C 24.94,1.768 1.704,23.139 1.704,66.804 L 1.704,516.927 C 1.704,557.771 22.599,579.156 63.896,579.156 L 515.92,579.156 C 557.227,579.156 578.149,558.841 578.149,516.927 L 578.149,66.804 C 578.149,24.203 557.227,1.768 514.628,1.768 C 514.624,1.768 66.133,1.625 66.275,1.768 z "
       style="fill:#111;stroke:#eee;stroke-width:3.40799999"
       id="path1329" />
  </g>
  <path
     style="color:#000000;fill:#ffffff;fill-opacity:1;fill-rule:nonzero;stroke:none;stroke-width:4.69999981;marker:none;visibility:visible;display:inline;overflow:visible;enable-background:accumulate"
     d="m 294.09375,80.3125 c -2.43232,-0.006 -4.89156,0.01349 -7.375,0.0625 l -0.25,0 c -38.00501,0.78297 -69.99773,8.819342 -96.6875,20.5625 6.31392,3.90275 12.94755,9.10315 19.3125,15.5625 13.15954,13.35471 25.24533,32.34475 28.15625,55.40625 19.67073,-7.08189 42.53905,-10.62898 68.875,-9 8.4101,0.5202 16.37234,1.56536 23.90625,3.09375 11.52984,-17.92939 11.87329,-37.28599 8.34375,-53.9375 -1.94394,-9.17105 -5.11689,-17.370113 -8.15625,-23.34375 -1.39108,-2.734055 -2.76233,-4.970231 -3.875,-6.59375 -10.22775,-1.158652 -20.94874,-1.784454 -32.25,-1.8125 z m 56.96875,5.84375 c 2.68584,6.281018 5.15182,13.620445 6.875,21.75 3.95632,18.66497 3.77515,41.90119 -7.96875,63.59375 28.95905,10.19465 50.03565,28.26521 63.9375,49.875 20.77593,-5.20522 32.09682,-16.22116 38.96875,-29.0625 6.60885,-12.34973 8.576,-26.95986 8.03125,-38.96875 -2.12136,-2.70168 -4.31709,-5.34916 -6.59375,-7.9375 -24.51767,-27.87422 -58.01723,-49.414983 -103.25,-59.25 z m -182.71875,26.6875 c -0.83173,0.24576 -1.69554,0.38271 -2.5625,0.40625 C 99.558567,152.25568 74.25,212 74.25,212 c -0.55423,1.25911 -1.317853,2.42575 -2.25,3.4375 3.33287,3.03609 8.108464,6.74703 14.40625,10.53125 14.43993,8.67668 36.66489,17.76155 67.8125,21.15625 2.85898,-5.53843 6.02435,-11.04724 9.5625,-16.46875 12.75673,-19.54717 30.59606,-37.56299 54.09375,-50.15625 -0.63553,-20.46833 -10.98626,-37.74511 -23.03125,-49.96875 -6.41428,-6.50941 -13.2687,-11.49321 -18.75,-14.4375 -5.31001,-2.85228 -10.17316,-2.51435 -7.75,-3.25 z m 310.1875,67.25 c -1.66593,7.24367 -4.24275,14.5768 -8.03125,21.65625 -8.61504,16.09864 -23.9307,30.35941 -46.96875,37.59375 2.58425,5.92308 4.72363,11.99553 6.40625,18.15625 5.34079,19.55466 6.80343,39.83645 5.03125,59.125 2.02036,0.43774 4.33269,0.75137 6.9375,0.8125 7.78914,0.18281 17.51072,-1.53509 26.875,-5.09375 18.49228,-7.02754 34.56719,-20.71257 37.78125,-38 -3.11371,-32.68584 -12.14912,-65.37656 -28.03125,-94.25 z m -185.40625,7.375 c -20.15559,-0.0465 -37.22798,3.26582 -51.78125,9 5.21889,2.20507 10.15296,5.07736 14.65625,8.40625 9.40584,6.95291 17.2123,16.13278 21.46875,26.59375 10.41168,-2.95723 21.54562,-3.92323 32.96875,-2.4375 0.54903,-5.77663 0.12859,-13.2483 -2.09375,-20.3125 -2.61788,-8.32152 -7.18873,-15.98765 -13.96875,-21.21875 -0.41334,-0.004 -0.83922,-0.0303 -1.25,-0.0312 z m 22.25,1.375 c 3.14872,4.88148 5.53126,10.14151 7.1875,15.40625 3.06465,9.7417 4.12739,19.5233 2.84375,28.125 3.19409,1.02071 6.38874,2.22062 9.59375,3.65625 6.95534,3.11551 13.14869,6.89706 18.625,11.1875 6.7814,-12.51799 9.03549,-26.34504 1.875,-47 -11.19151,-5.49266 -24.45112,-9.43329 -40.125,-11.375 z m -96.53125,19.59375 c -14.20561,9.79643 -25.26235,22.29474 -34.125,35.875 -0.30563,0.46832 -0.60655,0.93489 -0.90625,1.40625 3.963,-0.63234 8.04428,-0.95121 12.1875,-0.9375 13.27017,0.0439 27.56388,4.4989 37.625,15.21875 7.83095,-9.15086 17.3743,-16.81561 28.09375,-22.3125 -2.97712,-7.05234 -8.53306,-14.00076 -15.71875,-19.3125 -8.09178,-5.98153 -17.86709,-9.67578 -27.15625,-9.9375 z m 153.84375,2.625 c 2.7893,18.26373 -1.27298,33.2839 -8.5,46.03125 5.23782,5.82525 9.49641,12.20423 12.78125,18.9375 4.40501,-1.69299 8.86691,-4.47029 12.53125,-8.53125 4.70351,-5.2126 8.37513,-12.52043 9.25,-22.875 -0.81317,-1.73653 -1.65684,-3.46908 -2.5625,-5.15625 -0.52439,-0.70002 -0.95637,-1.46917 -1.28125,-2.28125 -5.60063,-9.81418 -12.89376,-18.68028 -22.21875,-26.125 z m -75.84375,41.875 c -6.46794,0.21127 -12.61056,1.5532 -18.375,3.875 3.27297,1.51015 5.95485,3.05593 8.25,4.75 4.05804,2.99528 6.65328,6.32458 9.3125,10.0625 4.46471,-0.58589 8.78577,-0.58401 12.875,0 -0.384,-1.64604 -0.89612,-3.17053 -1.65625,-4.78125 -1.58484,-3.35829 -4.57038,-7.5612 -10.40625,-13.90625 z m 15.8125,1.71875 c 1.94086,2.64622 3.43023,5.06946 4.5625,7.46875 2.10138,4.45286 2.8412,8.53927 3.40625,12.96875 2.79853,1.31886 5.36574,2.97212 7.65625,4.875 0.73608,-1.5842 1.28653,-3.13757 1.6875,-4.9375 0.67948,-3.05012 0.92422,-7.13463 0.59375,-13.28125 -1.83789,-1.02947 -3.7566,-1.99935 -5.78125,-2.90625 -4.12399,-1.84726 -8.16481,-3.21526 -12.125,-4.1875 z m -116.6875,6.90625 c -8.37153,-0.0277 -17.04892,2.44239 -23.46875,5.5 -8.86305,20.16049 -13.36843,40.64667 -15.0625,55.8125 11.34671,-7.71463 24.69145,-12.32961 38.21875,-12.875 4.76822,-0.19224 9.57331,0.13626 14.3125,1 2.23517,-13.20851 6.94363,-25.79653 13.625,-37 -6.43102,-9.18226 -16.41894,-12.40038 -27.625,-12.4375 z m 70.0625,2.125 c -4.46073,3.1917 -8.60642,6.99529 -12.375,11.3125 5.12448,0.78493 9.09707,1.80952 12.53125,3.25 2.03943,0.85545 3.81515,1.82595 5.46875,2.90625 3.79645,-2.69932 8.05791,-4.97989 12.75,-6.6875 -1.27418,-1.52903 -2.56109,-2.80771 -4.21875,-4.03125 -2.78639,-2.05667 -7.00144,-4.18513 -14.15625,-6.75 z m 140.4375,2.84375 c -1.93662,3.80091 -4.25097,7.1857 -6.875,10.09375 -5.1954,5.75775 -11.36119,9.74284 -17.65625,12.15625 2.31668,7.72898 3.49386,15.68376 3.59375,23.5625 3.80295,-0.11477 7.29125,-0.49765 10.5,-1.5625 4.65967,-1.54635 9.29155,-4.44618 14.28125,-11.03125 0.0507,-11.14641 -1.14596,-22.42356 -3.84375,-33.21875 z m -65.75,2.25 c -0.10117,3.18106 -0.44135,5.92978 -1,8.4375 -0.90577,4.0659 -2.39711,7.30746 -4.21875,10.5625 2.19609,3.12408 3.91976,6.49615 5.21875,9.96875 1.39507,-1.08347 2.62027,-2.21737 3.8125,-3.65625 2.15978,-2.60661 4.3963,-6.45141 7.15625,-12.84375 -2.89398,-4.49294 -6.52957,-8.69841 -10.96875,-12.46875 z m -94.625,16.375 c -3.13618,4.98088 -5.75624,10.35512 -7.78125,16 3.63384,-1.00116 6.7753,-1.571 9.71875,-1.75 2.81972,-0.17147 5.34889,0.0335 7.8125,0.4375 0.37616,-0.78339 0.76839,-1.57456 1.1875,-2.34375 1.65964,-3.04592 3.70426,-5.91386 6.0625,-8.59375 -0.37272,-0.18072 -0.75688,-0.36373 -1.15625,-0.53125 -3.26336,-1.36882 -7.98567,-2.422 -15.84375,-3.21875 z m 111,6.90625 c -1.72052,3.26236 -3.42323,5.88905 -5.25,8.09375 -2.64265,3.18938 -5.45513,5.35161 -8.5625,7.40625 0.13779,0.86786 0.24909,1.7283 0.34375,2.59375 0.3336,3.04995 0.43352,6.12103 0.25,9.15625 8.13494,-1.5751 12.15728,-4.18965 16.75,-8.90625 -0.20618,-6.1929 -1.34192,-12.39994 -3.53125,-18.34375 z m -45.42384,5.50913 c -1.5543,-0.49053 -3.39602,-0.8614 -5.6291,-1.08508 0.50407,0.86065 0.95486,1.74669 1.35904,2.68034 0.95646,2.20941 1.71027,3.14481 2.02366,5.76269 2.19376,0.76978 4.26555,1.90048 6.04631,3.22719 0.21723,-0.65766 0.41089,-1.33719 0.56188,-2.01912 0.52604,-2.37695 0.51568,-3.43663 0.41546,-6.08274 -1.2091,-0.99299 -2.74098,-1.84068 -4.7772,-2.48327 z m -13.07647,-0.65998 c -5.56638,0.40046 -9.73691,2.1292 -13.16335,4.7673 0.79641,0.18883 1.58399,0.41437 2.372,0.68507 2.52498,1.23951 5.13126,2.34113 7.5259,3.81681 2.30511,-0.82237 4.78413,-1.70346 7.25162,-1.5 -0.33884,-1.5165 -0.4199,-1.81364 -1.01889,-3.11665 -0.77441,-1.68461 -2.93703,-4.69413 -2.96736,-4.65242 z m 24.18763,8.41758 c 0.0254,0.94152 0.0171,1.89829 -0.0541,2.84581 -0.11073,1.47381 -0.57988,2.7722 -0.99537,4.23555 0.47359,2.47491 0.14354,6.3035 -0.99734,9.50162 4.54456,-4.63762 4.36997,-11.68343 2.04686,-16.58297 z m -72.49982,5.01452 c -0.52338,-0.004 -1.04281,-0.002 -1.59375,0.0312 -3.22834,0.19632 -7.43769,1.14184 -13.78125,3.40625 -1.06316,5.6876 -1.55527,11.54891 -1.34375,17.4375 3.5177,-2.66796 6.59732,-4.54248 9.625,-5.90625 2.52483,-1.13727 4.91765,-1.81792 7.3125,-2.3125 0.0815,-4.22185 0.60663,-8.43964 1.59375,-12.5625 -0.59449,-0.0527 -1.20348,-0.0888 -1.8125,-0.0937 z m 257.125,1.25 c -9.0505,8.6609 -20.2447,15.14832 -31.53125,19.4375 -11.58545,4.40276 -23.47664,6.6635 -34.4375,6.40625 -3.2298,-0.0758 -6.41239,-0.35673 -9.5,-0.90625 -4.1377,19.15273 -11.5676,36.548 -21.53125,50.28125 5.57124,5.96109 11.26887,11.72132 19.3125,15.75 10.66215,5.34017 25.92994,8.33766 51.65625,2.40625 15.3929,-28.68922 24.14625,-61.26023 26.03125,-93.375 z m -223.77391,-3.15206 c -1.23276,-0.21214 -2.51216,-0.27447 -3.78258,-0.26639 -2.49852,3.80175 -4.22696,8.52056 -5.00685,13.70802 2.68848,-1.09741 5.7802,-2.05363 9.34988,-2.87953 1.12207,-3.00868 2.92836,-5.98982 5.58364,-8.39293 -1.50215,-0.80734 -2.99359,-1.4083 -4.49697,-1.80223 -0.55176,-0.14454 -1.08903,-0.27089 -1.64712,-0.36694 z m 125.46141,9.87081 c -2.97234,2.02949 -5.9922,3.51234 -9.0625,4.53125 -5.29908,1.75855 -10.40847,2.2026 -15.28125,2.28125 -0.26698,1.90936 -0.60263,3.81347 -1,5.6875 -1.31822,6.21678 -3.34923,12.27644 -6.03125,18 1.94774,0.82579 3.8742,1.4942 5.84375,1.875 5.0203,0.97065 10.73517,0.67325 18.8125,-3.03125 3.09573,-8.96237 5.40737,-18.92425 6.71875,-29.34375 z M 359.9375,322 c -4.58233,2.97431 -10.01779,5.10577 -17.53125,6.40625 -0.75354,2.77571 -1.81808,5.45177 -3.1875,8.03125 5.28637,2.93159 9.51835,3.64931 14.9375,3.5625 2.29135,-4.43035 4.04331,-9.27368 5.125,-14.375 0.25472,-1.20129 0.47045,-2.40678 0.65625,-3.625 z m -161.375,5.625 c -15.04774,0.18216 -30.82081,7.27121 -41.53125,18.6875 1.16708,17.30202 5.05026,42.50141 16.03125,67.1875 1.81464,-9.26106 5.00921,-17.17589 9.4375,-23.875 8.23592,-12.4593 20.34183,-19.78488 33.25,-23.625 -4.94165,-12.28496 -7.22762,-24.95078 -7.25,-37.40625 -3.23815,-0.68195 -6.56089,-1.00963 -9.9375,-0.96875 z m 84.14829,-2.31678 c -3.06971,1.55735 -5.53118,3.09458 -7.53125,4.6875 1.39365,6.14823 4.08541,12.03843 7.84375,17 1.02442,-3.04132 2.50335,-6.07084 4.625,-9.25 -2.71577,-3.76389 -4.39076,-8.0902 -4.9375,-12.4375 z M 251.25,334.09375 c -1.18972,0.31662 -2.35716,0.70707 -3.5625,1.25 -3.10947,1.40062 -6.94194,3.95116 -12.53125,8.78125 1.48807,7.10288 4.01609,14.14447 7.75,20.9375 0.0113,0.0206 0.0199,0.0419 0.0312,0.0625 1.80666,-3.98112 3.59222,-7.09118 5.59375,-9.71875 2.06423,-2.70988 4.2622,-4.74808 6.625,-6.59375 -1.76113,-4.60119 -3.05127,-9.35471 -3.8125,-14.125 -0.0317,-0.19849 -0.0638,-0.39494 -0.0937,-0.59375 z m 84.59451,7.21288 c -2.67976,2.1088 -5.0316,3.26302 -9.78217,4.81345 3.13699,4.98419 5.92311,7.56179 9.43541,9.77475 5.64551,-1.57775 10.41386,-5.44679 13.61315,-9.27408 -4.76118,-0.71834 -8.22789,-2.35261 -13.26639,-5.31412 z m -43.66497,1.34534 c -2.20043,3.41187 -3.36105,6.51385 -4,9.9375 4.32895,3.85984 9.47385,6.62097 15.21875,7.6875 0.0312,-2.5e-4 0.0625,-2.5e-4 0.0937,0 0.14576,-0.006 0.29174,-0.006 0.4375,0 -1.45871,-3.68516 -2.34731,-7.7016 -2.625,-12.59375 -3.51881,-1.13687 -6.56156,-2.88817 -9.125,-5.03125 z m 27.15625,5.25 c -3.47177,0.98456 -7.18663,1.39968 -10.9375,1.125 0.35723,4.9168 1.58487,8.48646 3.65625,12.09375 6.30453,0.14689 11.87849,-0.80975 16.8125,-2.65625 -3.29277,-2.58844 -6.40208,-5.94075 -9.53125,-10.5625 z M 260.1875,359.3125 c -0.96216,0.88739 -1.83956,1.82434 -2.6875,2.9375 -2.12751,2.79295 -4.3287,7.06578 -7.0625,14.4375 4.31194,5.68473 9.11386,10.56474 14.25,14.6875 0.0709,-3.03245 0.3363,-5.68931 0.84375,-8.15625 0.89024,-4.32786 2.44109,-7.78237 4.3125,-11.21875 -3.72752,-3.81589 -6.96562,-8.10467 -9.65625,-12.6875 z m 111.125,0.65625 c -3.07881,4.44078 -6.63915,8.58098 -10.6875,12.25 1.232,1.61706 2.51442,3.05103 3.96875,4.21875 3.49865,2.80917 8.39426,4.9525 17.3125,5.46875 2.65084,-2.69617 5.15581,-5.58811 7.46875,-8.65625 2.27575,-3.01879 4.41443,-6.47534 6.40625,-10.25 -5.31445,1.0457 -10.18293,1.02114 -14.65625,0.15625 -3.58108,-0.69239 -6.80679,-1.84576 -9.8125,-3.1875 z m -20.96875,19.875 c -4.80815,2.8956 -10.0641,5.22106 -15.6875,6.875 0.48699,1.83532 1.07709,3.57515 1.875,5.21875 1.97729,4.07297 5.09544,7.97579 11.0625,11.75 7.60624,-2.72058 14.91066,-6.42523 21.625,-11.09375 -5.05537,-1.42712 -9.16943,-3.52561 -12.5625,-6.25 -2.50246,-2.00929 -4.54158,-4.21186 -6.3125,-6.5 z m -70.96875,0.0625 c -0.92247,1.9004 -1.57003,3.65975 -2,5.75 -0.63251,3.07488 -0.82207,7.30298 -0.3125,13.90625 6.00858,3.1856 12.33269,5.54987 18.84375,7.125 -1.58032,-4.25202 -2.31383,-8.32648 -2.375,-12.25 -0.041,-2.62704 0.16871,-5.1301 0.5625,-7.53125 -5.36053,-1.62802 -10.26614,-4.02809 -14.71875,-7 z m -54.15625,4.3125 c -11.16998,2.47374 -20.03742,7.37003 -26.03125,16.4375 -5.83989,8.83458 -9.3901,22.70315 -7.1875,44.46875 13.87659,17.68648 33.07912,33.23772 60.59375,43.1875 -4.94921,-11.53554 -6.35554,-23.12717 -5.3125,-33.75 1.39652,-14.22281 6.63206,-26.71615 12.0625,-36.65625 -13.09458,-8.11647 -24.85306,-19.30785 -34.125,-33.6875 z m 97.6875,4.90625 c -5.58872,0.65789 -11.43424,0.69563 -17.46875,0.0312 -0.28831,1.7302 -0.43272,3.42738 -0.40625,5.125 0.0677,4.34109 1.12824,8.98637 4.53125,14.5625 1.64445,0.12957 3.28331,0.20923 4.9375,0.25 6.33604,0.15617 12.69732,-0.38252 18.96875,-1.5625 -3.37946,-3.27707 -5.88751,-6.76287 -7.65625,-10.40625 -1.30105,-2.68001 -2.2151,-5.35305 -2.90625,-8 z m 74.15625,12.9375 c -13.00418,12.41159 -28.58805,21.35914 -45.21875,26.59375 -0.3651,9.40804 0.47447,18.29162 4.90625,26.53125 5.37271,9.98902 16.53192,20.39907 41.40625,29.34375 24.63914,-10.99227 45.00553,-27.36581 61.4375,-47.125 2.66177,-3.20074 5.21099,-6.49676 7.65625,-9.875 -19.72042,1.93652 -34.79669,-1.21651 -46.46875,-7.0625 -10.46157,-5.23971 -17.97427,-12.29703 -23.71875,-18.40625 z m -119.75,24.75 c -4.73935,8.64483 -9.07442,19.01914 -10.125,29.71875 -1.228,12.50651 1.25066,25.43569 13.59375,39.3125 7.9909,1.48577 16.50556,2.5973 25.625,3.25 l 0.84375,0.0625 c 23.19992,1.58303 44.21179,-0.33099 63.1875,-5.09375 -15.44859,-8.48973 -25.41569,-18.50091 -31.28125,-29.40625 -5.74418,-10.67968 -7.33656,-21.57743 -7.40625,-31.5625 -5.92493,0.77255 -11.90525,1.1159 -17.875,0.96875 -12.38106,-0.30517 -24.77985,-2.71961 -36.5625,-7.25 z"
     id="rect4666"
     inkscape:connector-curvature="0"
     sodipodi:nodetypes="scccscscsscscsccscscccccscscssccscscssccccsccscscccsccccccsccsccccsccccccsccsccsccscscsccsccsccsccscccccsccccccsccccscscsccscscccscsccscscccccccccccscccccccccssccsccccccssccscscsccccccscsccsccsccccccsccssccccccscccccccccccccssccsscccscscscccsccsccsccssccsccsscccscscscccscsccccsccccccscccscsc" />
</svg>
