<svg width="580" height="580" viewBox="0 0 580 580" fill="none" xmlns="http://www.w3.org/2000/svg">
<g clip-path="url(#clip0)">
<path d="M66.275 1.76815C24.94 1.76815 1.70398 23.1391 1.70398 66.8041V516.927C1.70398 557.771 22.599 579.156 63.896 579.156H515.92C557.227 579.156 578.149 558.841 578.149 516.927V66.8041C578.149 24.2031 557.227 1.76815 514.628 1.76815C514.624 1.76815 66.133 1.62515 66.275 1.76815Z" fill="#111111" stroke="#EEEEEE" stroke-width="3.408"/>
<path d="M288.59 113.202C289.049 113.202 289.526 113.22 289.989 113.223C290.456 113.22 290.927 113.202 291.389 113.202H288.59ZM289.989 113.223C257.395 113.482 213.235 122.659 194.803 130.339C176.107 138.129 163.639 145.923 159.744 165.398L145.725 273.373V422.134H169.882V445.464C169.882 473.909 211.495 473.909 211.495 445.464V422.134H288.356H288.59H368.484V445.464C368.484 473.909 410.118 473.909 410.118 445.464V422.134H434.275V273.373L420.256 165.398C416.361 145.923 403.893 138.129 385.197 130.339C366.763 122.658 322.584 113.48 289.989 113.223V113.223ZM199.13 175.705H288.462H380.849C393.193 175.705 396.424 181.971 397.922 191.485L408.845 269.789C409.863 277.294 407.677 284.741 397.307 284.741H288.59H182.672C172.302 284.741 170.137 277.294 171.155 269.789L182.078 191.485C183.576 181.971 186.786 175.705 199.13 175.705V175.705ZM190.71 335.558C201.737 335.558 210.667 344.51 210.667 355.537C210.667 366.564 201.737 375.495 190.71 375.495C179.683 375.495 170.731 366.564 170.731 355.537C170.731 344.51 179.683 335.558 190.71 335.558ZM389.29 335.558C400.317 335.558 409.248 344.51 409.248 355.537C409.248 366.564 400.317 375.495 389.29 375.495C378.263 375.495 369.311 366.564 369.311 355.537C369.311 344.51 378.263 335.558 389.29 335.558Z" fill="white"/>
</g>
<defs>
<clipPath id="clip0">
<path d="M0 0H580V580H0V0Z" fill="white"/>
</clipPath>
</defs>
</svg>
