<svg width="580" height="580" viewBox="0 0 580 580" fill="none" xmlns="http://www.w3.org/2000/svg">
<g clip-path="url(#clip0)">
<path d="M66.2751 1.76815C24.9401 1.76815 1.7041 23.1391 1.7041 66.8041V516.927C1.7041 557.771 22.5981 579.156 63.8961 579.156H515.92C557.227 579.156 578.149 558.84 578.149 516.927V66.8041C578.149 24.2031 557.227 1.76815 514.627 1.76815C514.624 1.76815 66.1331 1.62515 66.2751 1.76815Z" fill="#111111" stroke="#EEEEEE" stroke-width="3.408"/>
<path fill-rule="evenodd" clip-rule="evenodd" d="M71.3877 463.546L508.612 463.437Z" fill="white"/>
<path d="M71.3877 463.546L508.612 463.437" stroke="white" stroke-width="45.623"/>
<path fill-rule="evenodd" clip-rule="evenodd" d="M137.461 451.5V129.241Z" fill="white"/>
<path d="M137.461 451.5V129.241" stroke="white" stroke-width="36.0453"/>
<path fill-rule="evenodd" clip-rule="evenodd" d="M244.097 451.569L207.554 140.961Z" fill="white"/>
<path d="M244.097 451.569L207.554 140.961" stroke="white" stroke-width="36.0453"/>
<path fill-rule="evenodd" clip-rule="evenodd" d="M387.286 450.213L244.868 209.82Z" fill="white"/>
<path d="M387.286 450.213L244.868 209.82" stroke="white" stroke-width="36.0453"/>
<path fill-rule="evenodd" clip-rule="evenodd" d="M86.6929 104.957L347.329 169.742Z" fill="white"/>
<path d="M86.6929 104.957L347.329 169.742" stroke="white" stroke-width="36.0453"/>
</g>
<defs>
<clipPath id="clip0">
<path d="M0 0H580V580H0V0Z" fill="white"/>
</clipPath>
</defs>
</svg>
