<svg width="580" height="580" viewBox="0 0 580 580" fill="none" xmlns="http://www.w3.org/2000/svg">
<g clip-path="url(#clip0)">
<path d="M66.275 1.76815C24.94 1.76815 1.70398 23.1391 1.70398 66.8041V516.927C1.70398 557.771 22.598 579.156 63.896 579.156H515.92C557.227 579.156 578.149 558.84 578.149 516.927V66.8041C578.149 24.2031 557.227 1.76815 514.627 1.76815C514.624 1.76815 66.133 1.62515 66.275 1.76815Z" fill="#111111" stroke="#EEEEEE" stroke-width="3.408"/>
<path d="M470.978 80.7065C456.696 95.8287 158.874 392.811 158.874 392.811" stroke="white" stroke-width="50" stroke-linecap="round"/>
<path d="M99.4784 80.7021C115.395 95.6429 427.979 407.201 427.979 407.201" stroke="white" stroke-width="50" stroke-linecap="round"/>
<path d="M400.868 524.553L533.952 391.469L498.04 285.143L329.749 453.434L400.868 524.553Z" fill="white"/>
<path d="M178.407 521.072L46.0482 388.713L81.7641 282.966L249.139 450.341L178.407 521.072Z" fill="white"/>
</g>
<defs>
<clipPath id="clip0">
<path d="M0 0H580V580H0V0Z" fill="white"/>
</clipPath>
</defs>
</svg>
