<svg width="580" height="580" viewBox="0 0 580 580" fill="none" xmlns="http://www.w3.org/2000/svg">
<g clip-path="url(#clip0)">
<path d="M66.2751 1.76815C24.9401 1.76815 1.7041 23.1391 1.7041 66.8041V516.927C1.7041 557.771 22.5991 579.156 63.8961 579.156H515.92C557.227 579.156 578.149 558.841 578.149 516.927V66.8041C578.149 24.2031 557.227 1.76815 514.628 1.76815C514.624 1.76815 66.1331 1.62515 66.2751 1.76815Z" fill="#111111" stroke="#EEEEEE" stroke-width="3.408"/>
<path d="M544.84 518.298C533.864 518.298 523.376 515.859 513.986 511.652C504.351 507.2 493.497 504.578 482.095 504.578C470.753 504.578 459.96 507.2 450.326 511.652C440.935 515.859 430.447 518.298 419.35 518.298C408.374 518.298 397.886 515.859 388.373 511.652C378.739 507.2 367.885 504.578 356.604 504.578C345.324 504.578 334.47 507.2 324.713 511.652C315.445 515.859 304.835 518.298 293.859 518.298C282.883 518.298 272.273 515.859 262.883 511.652C253.248 507.2 242.394 504.578 231.114 504.578C219.65 504.578 208.857 507.2 199.223 511.652C189.832 515.859 179.344 518.298 168.368 518.298C157.271 518.298 146.783 515.859 137.27 511.652C127.758 507.2 116.782 504.578 105.501 504.578C94.2204 504.578 83.3665 507.2 73.7322 511.652C64.3417 515.859 53.7317 518.298 42.7559 518.298V471.956C53.7317 471.956 64.3417 469.456 73.7322 465.248C83.3665 460.797 94.2204 458.175 105.501 458.175C116.782 458.175 127.758 460.797 137.27 465.248C146.783 469.456 157.271 471.956 168.368 471.956C179.344 471.956 189.832 469.456 199.223 465.248C208.857 460.797 219.711 458.175 231.114 458.175C242.455 458.175 253.248 460.797 262.883 465.248C272.273 469.456 282.883 471.956 293.859 471.956C304.835 471.956 315.445 469.456 324.713 465.248C334.47 460.797 345.324 458.175 356.604 458.175C367.885 458.175 378.739 460.797 388.373 465.248C397.886 469.456 408.374 471.956 419.35 471.956C430.447 471.956 440.935 469.456 450.326 465.248C459.96 460.797 470.814 458.175 482.095 458.175C493.558 458.175 504.351 460.797 513.986 465.248C523.376 469.456 533.864 471.956 544.84 471.956V518.298Z" fill="white"/>
<path d="M312.396 325.245L267.029 217.194L312.762 197.986L300.993 169.876C285.729 176.3 270.46 182.712 255.2 189.145L232.455 134.997L204.345 146.766L227.089 200.974C203.064 211.035 178.064 221.584 178.064 221.584L189.832 249.695L238.919 229.085L284.286 337.075C190.808 376.222 99.8303 414.881 105.379 414.881C116.721 414.881 127.636 417.503 137.148 421.955C146.661 426.162 157.149 428.601 168.246 428.601C179.222 428.601 189.71 426.162 199.101 421.955C208.735 417.503 219.589 414.881 230.992 414.881C242.333 414.881 253.126 417.503 262.761 421.955C272.151 426.162 282.761 428.601 293.737 428.601C304.713 428.601 315.323 426.162 324.591 421.955C334.348 417.503 345.202 414.881 356.482 414.881C367.763 414.881 378.617 417.503 388.251 421.955C397.764 426.162 408.252 428.601 419.228 428.601C422.337 428.601 425.325 427.93 428.374 427.564C433.862 426.345 439.472 425.857 444.838 423.723C444.96 423.662 445.082 423.601 445.204 423.54C455.143 367.868 478.07 256.402 478.07 256.402C478.07 256.402 398.252 289.391 312.396 325.245Z" fill="white"/>
</g>
<defs>
<clipPath id="clip0">
<path d="M0 0H580V580H0V0Z" fill="white"/>
</clipPath>
</defs>
</svg>
