<?xml version="1.0" encoding="UTF-8" standalone="no"?>
<!-- Created with Inkscape (http://www.inkscape.org/) -->

<svg
   xmlns:dc="http://purl.org/dc/elements/1.1/"
   xmlns:cc="http://creativecommons.org/ns#"
   xmlns:rdf="http://www.w3.org/1999/02/22-rdf-syntax-ns#"
   xmlns:svg="http://www.w3.org/2000/svg"
   xmlns="http://www.w3.org/2000/svg"
   xmlns:sodipodi="http://sodipodi.sourceforge.net/DTD/sodipodi-0.dtd"
   xmlns:inkscape="http://www.inkscape.org/namespaces/inkscape"
   version="1.0"
   width="580"
   height="580"
   id="svg2"
   sodipodi:version="0.32"
   inkscape:version="0.48.4 r9939"
   sodipodi:docname="alpinehut.svg"
   inkscape:output_extension="org.inkscape.output.svg.inkscape">
  <metadata
     id="metadata2975">
    <rdf:RDF>
      <cc:Work
         rdf:about="">
        <dc:format>image/svg+xml</dc:format>
        <dc:type
           rdf:resource="http://purl.org/dc/dcmitype/StillImage" />
        <cc:license
           rdf:resource="http://web.resource.org/cc/PublicDomain" />
        <dc:language>en</dc:language>
        <dc:title></dc:title>
      </cc:Work>
    </rdf:RDF>
  </metadata>
  <sodipodi:namedview
     inkscape:window-height="1004"
     inkscape:window-width="1920"
     inkscape:pageshadow="2"
     inkscape:pageopacity="0.0"
     guidetolerance="10.0"
     gridtolerance="10.0"
     objecttolerance="10.0"
     borderopacity="1.0"
     bordercolor="#666666"
     pagecolor="#ffffff"
     id="base"
     inkscape:zoom="0.92167712"
     inkscape:cx="421.26388"
     inkscape:cy="184.75888"
     inkscape:window-x="1680"
     inkscape:window-y="0"
     inkscape:current-layer="svg2"
     showgrid="false"
     inkscape:window-maximized="1" />
  <defs
     id="defs4">
    <inkscape:perspective
       sodipodi:type="inkscape:persp3d"
       inkscape:vp_x="0 : 290 : 1"
       inkscape:vp_y="0 : 1000 : 0"
       inkscape:vp_z="580 : 290 : 1"
       inkscape:persp3d-origin="290 : 193.33333 : 1"
       id="perspective2441" />
    <inkscape:perspective
       id="perspective3452"
       inkscape:persp3d-origin="30 : 20 : 1"
       inkscape:vp_z="60 : 30 : 1"
       inkscape:vp_y="0 : 1000 : 0"
       inkscape:vp_x="0 : 30 : 1"
       sodipodi:type="inkscape:persp3d" />
    <symbol
       viewBox="244.5 110 489 219.9"
       id="symbol-university">
      <path
         id="path4460"
         d="M79,43l57,119c0,0,21-96,104-96s124,106,124,106l43-133l82-17L0,17L79,43z" />
      <path
         id="path4462"
         d="M94,176l-21,39"
         stroke-width="20"
         stroke="#000000"
         fill="none" />
      <path
         id="path4464"
         d="M300,19c0,10.5-22.6,19-50.5,19S199,29.5,199,19s22.6-19,50.5-19S300,8.5,300,19z" />
      <path
         id="path4466"
         d="M112,216l-16-38L64,88c0,0-9-8-4-35s16-24,16-24"
         stroke-width="20"
         stroke="#000000"
         fill="none" />
    </symbol>
    <inkscape:perspective
       id="perspective4471"
       inkscape:persp3d-origin="372.04724 : 350.78739 : 1"
       inkscape:vp_z="744.09448 : 526.18109 : 1"
       inkscape:vp_y="0 : 1000 : 0"
       inkscape:vp_x="0 : 526.18109 : 1"
       sodipodi:type="inkscape:persp3d" />
    <inkscape:perspective
       id="perspective4668"
       inkscape:persp3d-origin="6 : 4 : 1"
       inkscape:vp_z="12 : 6 : 1"
       inkscape:vp_y="0 : 1000 : 0"
       inkscape:vp_x="0 : 6 : 1"
       sodipodi:type="inkscape:persp3d" />
  </defs>
  <g
     id="g1327">
    <path
       d="M 66.275,1.768 C 24.94,1.768 1.704,23.139 1.704,66.804 L 1.704,516.927 C 1.704,557.771 22.599,579.156 63.896,579.156 L 515.92,579.156 C 557.227,579.156 578.149,558.841 578.149,516.927 L 578.149,66.804 C 578.149,24.203 557.227,1.768 514.628,1.768 C 514.624,1.768 66.133,1.625 66.275,1.768 z"
       style="fill:#111111;stroke:#eeeeee;stroke-width:3.40799999"
       id="path1329" />
  </g>
  <path
     inkscape:connector-curvature="0"
     style="text-indent:0;text-align:start;line-height:normal;text-transform:none;block-progression:tb;fill:#ffffff;fill-opacity:1;-inkscape-font-specification:Bitstream Vera Sans"
     d="m 287.1142,50.246375 c -6.27112,0.678152 -12.27927,3.57864 -16.71083,8.067299 L 60.07755,268.6395 c -5.132459,5.12844 -8.121523,12.33868 -8.12294,19.59424 -0.0014,7.25555 2.984826,14.46696 8.115276,19.5974 5.130451,5.13045 12.34186,8.1167 19.597412,8.11528 7.255552,-10e-4 14.465799,-2.99048 19.594239,-8.12294 10.425753,0.27004 14.114333,0.601 24.778113,0.57624 l 331.91145,0 c 13.33923,-0.38303 17.55277,0.15005 24.77811,-0.57624 5.12755,5.13643 12.33921,8.12907 19.59695,8.13221 7.25773,0.003 14.47197,-2.98328 19.60396,-8.11529 5.13199,-5.13199 8.11841,-12.34622 8.11527,-19.60396 -0.004,-7.25773 -2.99578,-14.46939 -8.13222,-19.59694 L 309.58738,58.313674 c -5.78704,-5.851095 -14.2861,-8.902037 -22.47318,-8.067299 z m 45.52253,110.060925 19.59204,19.01575 -124.46679,0 18.43952,-18.43952 c 2.29298,0.28731 4.62182,0.28731 6.91482,0 l 73.75804,0 c 1.93385,0.0105 3.86873,-0.18282 5.76237,-0.57531 z m 73.75815,73.75809 19.59204,19.01576 -271.98304,0 18.43953,-18.43952 c 2.29298,0.28731 4.62182,0.28731 6.91481,0 l 221.27429,0 c 1.93385,0.0105 3.86873,-0.18283 5.76237,-0.57532 z M 99.837774,326.83924 c -7.242588,0.75252 -14.130694,4.48246 -18.719114,10.13646 -4.588421,5.65399 -6.820608,13.16237 -6.066188,20.40475 0.754408,7.24239 4.486126,14.12953 10.14132,18.71648 5.655182,4.58694 13.164143,6.81719 20.406338,6.06088 l 92.19761,0 0,18.43954 -92.19761,0 c -0.95952,-0.05 -1.92166,-0.05 -2.88118,0 -0.95952,-0.0499 -1.92165,-0.0499 -2.881176,0 -7.242588,0.75252 -14.130694,4.48246 -18.719114,10.13645 -4.588421,5.654 -6.820608,13.16237 -6.066188,20.40475 0.754408,7.24239 4.486126,14.12953 10.14132,18.71649 5.655182,4.58694 13.164143,6.81718 20.406338,6.06088 l 92.19761,0 0,18.43952 -92.19761,0 c -0.95952,-0.05 -1.92166,-0.05 -2.88118,0 -0.95952,-0.0499 -1.92165,-0.0499 -2.881176,0 -7.242588,0.75252 -14.130694,4.48246 -18.719114,10.13645 -4.588421,5.654 -6.820608,13.16238 -6.066188,20.40476 0.754408,7.24239 4.486126,14.12953 10.14132,18.71648 5.655182,4.58694 13.164143,6.81719 20.406338,6.06088 l 101.41738,0 c 1.35625,-0.0923 2.70567,-0.28478 4.03365,-0.57532 0.19175,0.003 0.38356,0.003 0.57532,0 1.50423,0.38483 3.05721,0.57864 4.60988,0.57532 l 147.51621,0 c 0.57548,0.027 1.15222,0.027 1.72772,0 0.19177,0.002 0.38357,0.002 0.57536,0 2.29299,0.28731 4.62184,0.28731 6.91484,0 l 101.41738,0 c 7.30638,0.10334 14.60911,-2.8312 19.81241,-7.96144 5.20332,-5.13023 8.24083,-12.39073 8.24083,-19.69785 0,-7.30711 -3.03751,-14.56761 -8.24083,-19.69784 -5.2033,-5.13024 -12.50603,-8.06478 -19.81241,-7.96144 l -92.1976,0 0,-18.43952 92.1976,0 c 7.30638,0.10334 14.60911,-2.8312 19.81241,-7.96145 5.20332,-5.13023 8.24083,-12.39073 8.24083,-19.69784 0,-7.30711 -3.03751,-14.56761 -8.24083,-19.69784 -5.2033,-5.13025 -12.50603,-8.06479 -19.81241,-7.96144 l -92.1976,0 0,-18.43954 92.1976,0 c 7.30638,0.10335 14.60911,-2.8312 19.81241,-7.96144 5.20332,-5.13023 8.24083,-12.39073 8.24083,-19.69785 0,-7.30711 -3.03751,-14.5676 -8.24083,-19.69784 -5.2033,-5.13024 -12.50603,-8.06478 -19.81241,-7.96144 l -101.41738,0 c -0.95955,-0.05 -1.9217,-0.05 -2.88124,0 -0.95951,-0.0499 -1.92162,-0.0499 -2.88113,0 -0.19177,-0.003 -0.38359,-0.003 -0.57536,0 -0.95842,-0.0751 -1.92271,-0.0751 -2.88113,0 l -79.52045,0 -67.99576,0 c -0.5755,-0.027 -1.15227,-0.027 -1.72777,0 -0.57551,-0.027 -1.15228,-0.027 -1.72778,0 -0.3907,0.17828 -0.77517,0.3702 -1.15248,0.57532 -0.19176,-0.002 -0.38355,-0.002 -0.57531,0 -1.32798,-0.29054 -2.6774,-0.48301 -4.03365,-0.57532 l -101.41738,0 c -0.95952,-0.05 -1.92165,-0.05 -2.88117,0 -0.95954,-0.0499 -1.92166,-0.0499 -2.881187,0 z m 134.839026,36.87905 49.55622,0 59.35226,0 0.57525,129.07667 -109.48465,0 0,-59.35222 c 0.45199,-2.8575 0.45199,-5.78602 0,-8.64352 0.032,-0.76787 0.032,-1.53707 0,-2.30495 l 0,-58.77598 z"
     id="path4"
     sodipodi:nodetypes="cccsssccccsssccccccccccccccccccccsssccccccsssccccccsssccccccccccsssccccsssccccsssccccccccccccccccccccccccccc" />
</svg>
