<svg width="12" height="12" viewBox="0 0 12 12" fill="none" xmlns="http://www.w3.org/2000/svg">
<path fill-rule="evenodd" clip-rule="evenodd" d="M6 1L3 3V11H9V3L6 1ZM4.35355 4.64645C4.15829 4.45118 3.84171 4.45118 3.64645 4.64645C3.45118 4.84171 3.45118 5.15829 3.64645 5.35355L6 7.70711L7 6.70711L7.64645 7.35355C7.84171 7.54882 8.15829 7.54882 8.35355 7.35355C8.54882 7.15829 8.54882 6.84171 8.35355 6.64645L7.70711 6L8.35355 5.35355C8.54882 5.15829 8.54882 4.84171 8.35355 4.64645C8.15829 4.45118 7.84171 4.45118 7.64645 4.64645L7 5.29289L6.35355 4.64645C6.15829 4.45118 5.84171 4.45118 5.64645 4.64645C5.45118 4.84171 5.45118 5.15829 5.64645 5.35355L6.29289 6L6 6.29289L4.35355 4.64645Z" fill="white"/>
</svg>
