<?xml version="1.0" encoding="UTF-8" standalone="no"?>
<!-- Created with Inkscape (http://www.inkscape.org/) -->

<svg
   xmlns:dc="http://purl.org/dc/elements/1.1/"
   xmlns:cc="http://creativecommons.org/ns#"
   xmlns:rdf="http://www.w3.org/1999/02/22-rdf-syntax-ns#"
   xmlns:svg="http://www.w3.org/2000/svg"
   xmlns="http://www.w3.org/2000/svg"
   xmlns:sodipodi="http://sodipodi.sourceforge.net/DTD/sodipodi-0.dtd"
   xmlns:inkscape="http://www.inkscape.org/namespaces/inkscape"
   version="1.0"
   width="580"
   height="580"
   id="svg2"
   sodipodi:version="0.32"
   inkscape:version="0.91 r"
   sodipodi:docname="topo_buddhist.svg"
   inkscape:output_extension="org.inkscape.output.svg.inkscape">
  <metadata
     id="metadata2975">
    <rdf:RDF>
      <cc:Work
         rdf:about="">
        <dc:format>image/svg+xml</dc:format>
        <dc:type
           rdf:resource="http://purl.org/dc/dcmitype/StillImage" />
        <cc:license
           rdf:resource="http://web.resource.org/cc/PublicDomain" />
        <dc:language>en</dc:language>
      </cc:Work>
    </rdf:RDF>
  </metadata>
  <sodipodi:namedview
     inkscape:window-height="1051"
     inkscape:window-width="1920"
     inkscape:pageshadow="2"
     inkscape:pageopacity="0.0"
     guidetolerance="10.0"
     gridtolerance="10.0"
     objecttolerance="10.0"
     borderopacity="1.0"
     bordercolor="#666666"
     pagecolor="#ffffff"
     id="base"
     inkscape:zoom="0.92167712"
     inkscape:cx="216.4108"
     inkscape:cy="336.60995"
     inkscape:window-x="0"
     inkscape:window-y="0"
     inkscape:current-layer="svg2"
     showgrid="false"
     inkscape:window-maximized="1" />
  <defs
     id="defs4">
    <inkscape:perspective
       sodipodi:type="inkscape:persp3d"
       inkscape:vp_x="0 : 290 : 1"
       inkscape:vp_y="0 : 1000 : 0"
       inkscape:vp_z="580 : 290 : 1"
       inkscape:persp3d-origin="290 : 193.33333 : 1"
       id="perspective2441" />
    <inkscape:perspective
       id="perspective2466"
       inkscape:persp3d-origin="372.04724 : 350.78739 : 1"
       inkscape:vp_z="744.09448 : 526.18109 : 1"
       inkscape:vp_y="0 : 1000 : 0"
       inkscape:vp_x="0 : 526.18109 : 1"
       sodipodi:type="inkscape:persp3d" />
    <inkscape:perspective
       id="perspective3333"
       inkscape:persp3d-origin="372.04724 : 350.78739 : 1"
       inkscape:vp_z="744.09448 : 526.18109 : 1"
       inkscape:vp_y="0 : 1000 : 0"
       inkscape:vp_x="0 : 526.18109 : 1"
       sodipodi:type="inkscape:persp3d" />
    <inkscape:perspective
       id="perspective3401"
       inkscape:persp3d-origin="372.04724 : 350.78739 : 1"
       inkscape:vp_z="744.09448 : 526.18109 : 1"
       inkscape:vp_y="0 : 1000 : 0"
       inkscape:vp_x="0 : 526.18109 : 1"
       sodipodi:type="inkscape:persp3d" />
    <inkscape:perspective
       id="perspective3464"
       inkscape:persp3d-origin="372.04724 : 350.78739 : 1"
       inkscape:vp_z="744.09448 : 526.18109 : 1"
       inkscape:vp_y="0 : 1000 : 0"
       inkscape:vp_x="0 : 526.18109 : 1"
       sodipodi:type="inkscape:persp3d" />
    <inkscape:perspective
       id="perspective3581"
       inkscape:persp3d-origin="225 : 150 : 1"
       inkscape:vp_z="450 : 225 : 1"
       inkscape:vp_y="0 : 1000 : 0"
       inkscape:vp_x="0 : 225 : 1"
       sodipodi:type="inkscape:persp3d" />
    <inkscape:perspective
       id="perspective4312"
       inkscape:persp3d-origin="225 : 150 : 1"
       inkscape:vp_z="450 : 225 : 1"
       inkscape:vp_y="0 : 1000 : 0"
       inkscape:vp_x="0 : 225 : 1"
       sodipodi:type="inkscape:persp3d" />
  </defs>
  <g
     id="g1327">
    <path
       d="M 66.275,1.768 C 24.94,1.768 1.704,23.139 1.704,66.804 L 1.704,516.927 C 1.704,557.771 22.599,579.156 63.896,579.156 L 515.92,579.156 C 557.227,579.156 578.149,558.841 578.149,516.927 L 578.149,66.804 C 578.149,24.203 557.227,1.768 514.628,1.768 C 514.624,1.768 66.133,1.625 66.275,1.768 z "
       style="fill:#111;stroke:#eee;stroke-width:3.40799999"
       id="path1329" />
  </g>
  <path
     style="opacity:1;fill:#ffffff"
     d="m 269.23025,530.68008 c -4.5166,-4.51657 -6.89072,-11.4845 -6.89072,-20.22385 l 0,-13.33318 -19.98958,-3.9327 C 164.78228,477.92984 96.178409,397.52574 79.531342,314.21224 c -5.077339,-0.39195 -7.884721,-0.5895 -13.250208,-0.5895 -16.780768,0 -27.889655,-11.19753 -27.889655,-28.11224 0,-15.37495 9.45057,-24.36884 26.697703,-25.40755 l 12.923879,-0.77834 6.099621,-23.66995 C 94.289008,196.16497 109.39938,170.1856 139.9905,139.58347 171.34372,108.219 197.58656,92.468076 235.47164,83.081999 c 11.51091,-2.85185 12.39481,-0.652111 25.35203,-3.542612 1.71186,-17.999467 0.15235,-38.073748 27.67168,-37.130138 21.75129,0.758808 23.82777,14.04016 23.91748,36.077605 7.45954,0.730974 9.88101,0.951407 22.79392,3.606646 77.64144,15.965118 147.36354,86.01055 160.96833,164.34482 2.15326,12.39793 3.30904,13.6734 11.51321,12.70545 10.82952,-1.27766 28.56941,7.15382 31.58477,15.01173 7.46874,19.4633 -3.48063,36.18719 -25.64018,39.16236 -14.50737,1.9478 -15.19544,2.5783 -17.48838,16.02589 -3.59109,21.06083 -17.68239,53.31253 -33.41584,76.48102 -27.72987,40.83408 -70.95822,71.21921 -121.14598,85.15336 l -25.84015,7.17429 -1.11575,13.6798 c -0.61369,7.52392 -3.56717,16.39304 -6.56337,19.70919 -7.66743,8.48628 -29.9805,7.99133 -38.83316,-0.86133 z m -6.89072,-132.64615 c 0,-23.68681 -1.19702,-43.06693 -2.66009,-43.06693 -1.46305,0 -15.75957,13.16788 -31.77003,29.26194 -16.11331,16.19744 -25.21221,26.14349 -28.59436,31.02553 4.16899,3.05243 11.48728,11.28015 29.80141,18.80909 15.3454,6.30846 27.99309,8.11556 33.78148,8.98848 -0.95715,-7.1978 -0.55841,-17.99372 -0.55841,-45.01811 z m 103.46833,27.93786 14.99681,-9.24554 -30.73656,-30.87962 C 333.163,368.86284 318.13643,354.967 316.6757,354.967 c -1.46073,0 -2.65586,19.57392 -2.65586,43.49759 l 0,43.49761 18.39562,-3.37245 c 6.15857,-1.22972 21.18513,-6.9078 33.3924,-12.61796 z m -172.40072,-82.2022 31.92463,-30.14685 -45.61861,0 -45.61862,0 2.33575,12.45065 c 2.6718,14.2419 19.45594,50.10121 22.81565,48.74553 1.2301,-0.49638 16.60263,-14.46856 34.1612,-31.04933 z m 240.61509,8.06296 c 5.39198,-11.84341 7.73568,-21.62974 8.91259,-26.84083 l 2.13977,-11.36898 -45.64475,0 -45.64474,0 30.86452,31.00818 c 16.97549,17.0545 32.14112,31.00821 33.70138,31.00821 1.56027,0 10.27928,-11.96317 15.67123,-23.80658 z M 301.09549,317.76853 c 5.92548,-3.06416 15.65153,-13.27667 18.52086,-20.14391 4.57333,-10.94552 1.77435,-22.52984 -6.81557,-31.94824 -13.69855,-15.01974 -31.49368,-15.10972 -46.69345,-0.78784 -14.83236,13.97567 -11.20095,33.38304 -2.77934,43.23834 9.65892,11.30321 25.28844,16.09483 37.7675,9.64165 z m -80.10022,-59.3433 c 0,-0.987 -13.73945,-15.47029 -30.53212,-32.18515 l -30.5321,-30.39065 -7.34913,11.89108 c -8.2562,13.35882 -13.55312,27.79058 -18.09937,52.56585 2.27312,0.31997 5.99652,-0.0866 43.44579,-0.0866 23.68681,0 43.06693,-0.80752 43.06693,-1.79452 z m 221.26119,-7.48401 c -0.55701,-4.5321 -3.22378,-18.40925 -8.79502,-30.83246 -5.62909,-12.55223 -14.16796,-23.62808 -15.66151,-23.62808 -2.4911,0 -62.43562,59.4723 -62.43638,61.94455 -3.2e-4,0.987 19.76741,1.47196 43.92828,1.07771 43.51561,-0.71006 43.91974,-0.79058 42.96463,-8.56172 z m -179.91693,-75.19831 0,-44.85524 -9.47474,2.13978 c -17.26655,0.75556 -53.38045,20.7185 -52.54165,24.44381 0.52658,2.33861 58.76366,63.1269 61.08321,63.1269 0.51326,0 0.93318,-20.18485 0.93318,-44.85525 z m 94.40343,-33.27528 c -12.86715,-6.03999 -27.64968,-8.05673 -32.38706,-8.64906 l -8.61337,-1.07695 -0.95705,44.78961 -0.95709,44.78961 32.96529,-32.73087 32.96526,-32.73087 -23.01598,-14.39147 z"
     id="path5316"
     sodipodi:nodetypes="cccccsscccsscscssssssscccsccsscscccccscccccccccscccccccsccssssccccccsccssssccccssccccccccc"
     inkscape:connector-curvature="0" />
</svg>
