<?xml version="1.0" encoding="UTF-8" standalone="no"?>
<svg
   xmlns:dc="http://purl.org/dc/elements/1.1/"
   xmlns:cc="http://creativecommons.org/ns#"
   xmlns:rdf="http://www.w3.org/1999/02/22-rdf-syntax-ns#"
   xmlns:svg="http://www.w3.org/2000/svg"
   xmlns="http://www.w3.org/2000/svg"
   xmlns:sodipodi="http://sodipodi.sourceforge.net/DTD/sodipodi-0.dtd"
   xmlns:inkscape="http://www.inkscape.org/namespaces/inkscape"
   width="580"
   height="580"
   id="svg2"
   version="1.1"
   inkscape:version="0.48.4 r9939"
   sodipodi:docname="anchor_berth.svg">
  <defs
     id="defs13">
    <inkscape:path-effect
       effect="gears"
       id="path-effect3774"
       is_visible="true"
       teeth="6"
       phi="-1.2" />
    <inkscape:path-effect
       effect="bend_path"
       id="path-effect3772"
       is_visible="false"
       bendpath="m 95.790098,316.51174 c 144.429032,-206.42506 223.313032,-11.7428 339.548092,0"
       prop_scale="1.19"
       scale_y_rel="false"
       vertical="false"
       bendpath-nodetypes="cc" />
  </defs>
  <sodipodi:namedview
     pagecolor="#ffffff"
     bordercolor="#666666"
     borderopacity="1"
     objecttolerance="10"
     gridtolerance="10"
     guidetolerance="10"
     inkscape:pageopacity="0"
     inkscape:pageshadow="2"
     inkscape:window-width="1920"
     inkscape:window-height="1004"
     id="namedview11"
     showgrid="false"
     inkscape:zoom="0.5754386"
     inkscape:cx="273.91036"
     inkscape:cy="388.94728"
     inkscape:window-x="1680"
     inkscape:window-y="0"
     inkscape:window-maximized="1"
     inkscape:current-layer="svg2" />
  <metadata
     id="metadata2975">image/svg+xmlen<rdf:RDF>
  <cc:Work
     rdf:about="">
    <dc:format>image/svg+xml</dc:format>
    <dc:type
       rdf:resource="http://purl.org/dc/dcmitype/StillImage" />
    <dc:title />
  </cc:Work>
</rdf:RDF>
</metadata>
  <path
     style="font-size:medium;font-style:normal;font-variant:normal;font-weight:normal;font-stretch:normal;text-indent:0;text-align:start;text-decoration:none;line-height:normal;letter-spacing:normal;word-spacing:normal;text-transform:none;direction:ltr;block-progression:tb;writing-mode:lr-tb;text-anchor:start;baseline-shift:baseline;opacity:0.83582093000000002;color:#000000;fill:#8a4a8a;fill-opacity:1;fill-rule:nonzero;stroke:none;stroke-width:1;marker:none;visibility:visible;display:inline;overflow:visible;enable-background:accumulate;font-family:Sans;-inkscape-font-specification:Sans"
     d="M 290.0625 94.15625 C 262.70265 94.15625 240.28125 116.60885 240.28125 143.96875 C 240.28125 162.27978 250.33515 178.37774 265.1875 187.03125 L 265.1875 192.6875 L 227.8125 192.6875 L 227.8125 217.59375 L 267.1875 217.59375 C 235.73643 227.36649 212.75 256.80596 212.75 291.375 C 212.75 325.19882 234.7782 354.05277 265.1875 364.4375 L 265.1875 389.75 C 234.99526 387.61696 201.69028 366.31245 185.90625 329.59375 C 198.42097 330.27468 210.6875 329.3125 210.6875 329.3125 C 210.6875 329.3125 186.606 292.95128 152.75 283.625 C 131.60713 301.89155 128.21875 353.6875 128.21875 353.6875 C 128.21875 353.6875 136.1764 349.74825 145.8125 342.40625 C 162.08121 388.97701 204.48818 411.30778 255.75 422.5625 C 277.76449 427.39374 290.0625 451.90625 290.0625 451.90625 C 290.0625 451.90625 302.42304 427.39373 324.4375 422.5625 C 375.4408 411.36455 417.64536 389.36649 434.09375 343.09375 C 443.96013 350.61247 451.96875 353.6875 451.96875 353.6875 C 451.96875 338.74553 450.26606 308.42013 428.625 283.03125 C 394.76911 292.35753 369.46875 329.3125 369.46875 329.3125 C 369.46875 329.3125 381.73945 330.27341 394.25 329.59375 C 378.46369 366.3046 345.18866 387.61722 315 389.75 L 315 364.375 C 345.29151 353.92408 367.1875 325.11443 367.1875 291.375 C 367.1875 256.80561 344.20156 227.36619 312.75 217.59375 L 352.34375 217.59375 L 352.34375 192.6875 L 315 192.6875 L 315 187.03125 C 329.84358 178.37549 339.90625 162.27321 339.90625 143.96875 C 339.90625 116.60884 317.42243 94.15625 290.0625 94.15625 z M 290.0625 119.0625 C 303.96376 119.0625 315 130.06757 315 143.96875 C 315 157.86993 303.96376 168.875 290.0625 168.875 C 276.16137 168.875 265.1875 157.86993 265.1875 143.96875 C 265.1875 130.06757 276.16137 119.0625 290.0625 119.0625 z M 289.96875 240.28125 C 318.33621 240.28125 341.0625 263.00754 341.0625 291.375 C 341.0625 319.74247 318.33621 342.46875 289.96875 342.46875 C 261.60128 342.46875 238.90625 319.74247 238.90625 291.375 C 238.90625 263.00754 261.60128 240.28125 289.96875 240.28125 z "
     id="circle3" />
</svg>
