<?xml version="1.0" encoding="UTF-8" standalone="no"?>
<svg
   xmlns:dc="http://purl.org/dc/elements/1.1/"
   xmlns:cc="http://creativecommons.org/ns#"
   xmlns:rdf="http://www.w3.org/1999/02/22-rdf-syntax-ns#"
   xmlns:svg="http://www.w3.org/2000/svg"
   xmlns="http://www.w3.org/2000/svg"
   xmlns:sodipodi="http://sodipodi.sourceforge.net/DTD/sodipodi-0.dtd"
   xmlns:inkscape="http://www.inkscape.org/namespaces/inkscape"
   width="580"
   height="580"
   id="svg2"
   version="1.1"
   inkscape:version="0.48.4 r9939"
   sodipodi:docname="beacon_pile.svg">
  <defs
     id="defs13">
    <inkscape:path-effect
       effect="gears"
       id="path-effect3774"
       is_visible="true"
       teeth="6"
       phi="-1.2" />
    <inkscape:path-effect
       effect="bend_path"
       id="path-effect3772"
       is_visible="false"
       bendpath="m 95.790098,316.51174 c 144.429032,-206.42506 223.313032,-11.7428 339.548092,0"
       prop_scale="1.19"
       scale_y_rel="false"
       vertical="false"
       bendpath-nodetypes="cc" />
  </defs>
  <sodipodi:namedview
     pagecolor="#ffffff"
     bordercolor="#666666"
     borderopacity="1"
     objecttolerance="10"
     gridtolerance="10"
     guidetolerance="10"
     inkscape:pageopacity="0"
     inkscape:pageshadow="2"
     inkscape:window-width="1920"
     inkscape:window-height="1004"
     id="namedview11"
     showgrid="false"
     inkscape:zoom="1.6275861"
     inkscape:cx="379.00187"
     inkscape:cy="250.12734"
     inkscape:window-x="1680"
     inkscape:window-y="0"
     inkscape:window-maximized="1"
     inkscape:current-layer="svg2" />
  <metadata
     id="metadata2975">image/svg+xmlen<rdf:RDF>
  <cc:Work
     rdf:about="">
    <dc:format>image/svg+xml</dc:format>
    <dc:type
       rdf:resource="http://purl.org/dc/dcmitype/StillImage" />
    <dc:title />
  </cc:Work>
</rdf:RDF>
</metadata>
  <path
     style="font-size:medium;font-style:normal;font-variant:normal;font-weight:normal;font-stretch:normal;text-indent:0;text-align:start;text-decoration:none;line-height:normal;letter-spacing:normal;word-spacing:normal;text-transform:none;direction:ltr;block-progression:tb;writing-mode:lr-tb;text-anchor:start;baseline-shift:baseline;opacity:0.42608696;color:#000000;fill:#acd8f3;fill-opacity:1;fill-rule:nonzero;stroke:#a35151;stroke-width:0;stroke-linecap:round;stroke-linejoin:miter;stroke-miterlimit:4;stroke-opacity:1;stroke-dashoffset:0;marker:none;visibility:visible;display:inline;overflow:visible;enable-background:accumulate;font-family:Sans;-inkscape-font-specification:Sans"
     d="m 226.96875,198.3125 c 1.3067,-1.3e-4 -12.67596,2.81261 -11.46875,2.3125 1.20721,-0.50011 -10.64273,7.42398 -9.71875,6.5 0.92398,-0.92398 -7.00011,10.92596 -6.5,9.71875 0.50011,-1.20721 -2.31263,12.77545 -2.3125,11.46875 l 0,255.6875 -7.34375,0 c -5.23694,-0.003 -10.44295,2.15091 -14.14602,5.85398 -3.70307,3.70307 -5.85745,8.90908 -5.85398,14.14602 l 0,25 c -0.003,5.23694 2.15091,10.44295 5.85398,14.14602 3.70307,3.70307 8.90908,5.85745 14.14602,5.85398 l 38.96875,0 c 11.212,18.63781 31.45942,31.21875 54.59375,31.21875 23.13433,0 43.40346,-12.57536 54.625,-31.21875 l 38.9375,0 c 5.23694,0.003 10.44295,-2.15091 14.14602,-5.85398 3.70307,-3.70307 5.85745,-8.90908 5.85398,-14.14602 l 0,-25 c 0.003,-5.23694 -2.15091,-10.44295 -5.85398,-14.14602 C 387.19295,486.15091 381.98694,483.99653 376.75,484 l -7.34375,0 0,-255.6875 c 1.3e-4,1.3067 -2.81261,-12.67596 -2.3125,-11.46875 0.50011,1.20721 -7.42398,-10.64273 -6.5,-9.71875 0.92398,0.92398 -10.92596,-7.00011 -9.71875,-6.5 1.20721,0.50011 -12.77545,-2.31263 -11.46875,-2.3125 z"
     id="path3811"
     inkscape:connector-curvature="0"
     sodipodi:nodetypes="cssscccsccsccsccsccscccssscc" />
  <rect
     style="color:#000000;fill:#bdbdbd;fill-opacity:1;fill-rule:nonzero;stroke:#a35151;stroke-width:0;stroke-linecap:round;stroke-linejoin:miter;stroke-miterlimit:4;stroke-opacity:1;stroke-dasharray:none;stroke-dashoffset:0;marker:none;visibility:visible;display:inline;overflow:visible;enable-background:accumulate"
     id="rect2987"
     width="93.189789"
     height="275.97549"
     x="236.55867"
     y="236.99234" />
  <path
     style="fill:none;stroke:#000000;stroke-width:25;stroke-linecap:butt;stroke-linejoin:miter;stroke-miterlimit:4;stroke-opacity:1;stroke-dasharray:none"
     d="m 189.63633,516.57012 187.12226,0"
     id="path3759"
     inkscape:connector-curvature="0"
     sodipodi:nodetypes="cc" />
  <path
     sodipodi:type="arc"
     style="color:#000000;fill:#fefefe;fill-opacity:1;stroke:#000000;stroke-width:25;stroke-linecap:round;stroke-linejoin:round;stroke-miterlimit:10;stroke-opacity:1;stroke-dasharray:none;stroke-dashoffset:0;marker:none;visibility:visible;display:inline;overflow:visible;enable-background:accumulate"
     id="path3759-1"
     sodipodi:cx="210.27438"
     sodipodi:cy="76.036606"
     sodipodi:rx="40.838413"
     sodipodi:ry="40.838413"
     d="m 251.1128,76.036606 a 40.838413,40.838413 0 1 1 -81.67683,0 40.838413,40.838413 0 1 1 81.67683,0 z"
     transform="matrix(0.82289092,0,0,0.82289092,110.16458,453.8318)" />
  <path
     style="opacity:0.772;fill:none;stroke:#000000;stroke-width:20;stroke-linecap:butt;stroke-linejoin:round;stroke-miterlimit:4;stroke-opacity:1;stroke-dasharray:none"
     d="m 226.97924,512.34825 0,-282.83165 112.43644,0 0,285.25732"
     id="path2987"
     inkscape:connector-curvature="0" />
</svg>
