<?xml version="1.0" encoding="UTF-8" standalone="no"?>
<svg
   xmlns:dc="http://purl.org/dc/elements/1.1/"
   xmlns:cc="http://creativecommons.org/ns#"
   xmlns:rdf="http://www.w3.org/1999/02/22-rdf-syntax-ns#"
   xmlns:svg="http://www.w3.org/2000/svg"
   xmlns="http://www.w3.org/2000/svg"
   xmlns:sodipodi="http://sodipodi.sourceforge.net/DTD/sodipodi-0.dtd"
   xmlns:inkscape="http://www.inkscape.org/namespaces/inkscape"
   width="580"
   height="580"
   id="svg2"
   version="1.1"
   inkscape:version="0.48.4 r9939"
   sodipodi:docname="beacon_perch_starboard.svg">
  <defs
     id="defs13">
    <inkscape:path-effect
       effect="gears"
       id="path-effect3774"
       is_visible="true"
       teeth="6"
       phi="-1.2" />
    <inkscape:path-effect
       effect="bend_path"
       id="path-effect3772"
       is_visible="false"
       bendpath="m 95.790098,316.51174 c 144.429032,-206.42506 223.313032,-11.7428 339.548092,0"
       prop_scale="1.19"
       scale_y_rel="false"
       vertical="false"
       bendpath-nodetypes="cc" />
  </defs>
  <sodipodi:namedview
     pagecolor="#ffffff"
     bordercolor="#666666"
     borderopacity="1"
     objecttolerance="10"
     gridtolerance="10"
     guidetolerance="10"
     inkscape:pageopacity="0"
     inkscape:pageshadow="2"
     inkscape:window-width="1920"
     inkscape:window-height="1004"
     id="namedview11"
     showgrid="false"
     inkscape:zoom="0.81379307"
     inkscape:cx="426.98548"
     inkscape:cy="260.70651"
     inkscape:window-x="1680"
     inkscape:window-y="0"
     inkscape:window-maximized="1"
     inkscape:current-layer="svg2" />
  <metadata
     id="metadata2975">image/svg+xmlen<rdf:RDF>
  <cc:Work
     rdf:about="">
    <dc:format>image/svg+xml</dc:format>
    <dc:type
       rdf:resource="http://purl.org/dc/dcmitype/StillImage" />
    <dc:title></dc:title>
  </cc:Work>
</rdf:RDF>
</metadata>
  <path
     sodipodi:type="inkscape:offset"
     inkscape:radius="21.301405"
     inkscape:original="M 284.1875 166.96875 L 273.03125 177.875 L 273 177.84375 L 266.4375 184.28125 L 138.15625 310.0625 L 157.40625 329.71875 L 266.4375 222.875 L 266.4375 503.84375 L 233.25 503.84375 L 233.25 528.84375 L 333.65625 528.84375 L 333.65625 503.84375 L 299.65625 503.84375 L 299.5625 220.875 L 410.625 329.71875 L 429.90625 310.0625 L 295.03125 177.84375 L 294.96875 177.90625 L 284.1875 166.96875 z "
     style="opacity:0.42608696000000001;color:#000000;fill:#8d8d8d;fill-opacity:1;fill-rule:nonzero;stroke:#a35151;stroke-width:0;stroke-linecap:round;stroke-linejoin:miter;stroke-miterlimit:4;stroke-opacity:1;stroke-dasharray:none;stroke-dashoffset:0;marker:none;visibility:visible;display:inline;overflow:visible;enable-background:accumulate"
     id="path3038"
     d="m 284.03125,145.65625 a 21.303535,21.303535 0 0 0 -14.75,6.09375 l -10.15625,9.90625 a 21.303535,21.303535 0 0 0 -0.0937,0.0937 21.303535,21.303535 0 0 0 -0.9375,0.875 l -6.5625,6.4375 L 123.25,294.84375 a 21.303535,21.303535 0 0 0 -0.3125,30.125 l 19.25,19.65625 a 21.303535,21.303535 0 0 0 30.125,0.3125 l 72.8125,-71.34375 0,208.9375 -11.875,0 a 21.303535,21.303535 0 0 0 -21.3125,21.3125 l 0,25 a 21.303535,21.303535 0 0 0 21.3125,21.3125 l 100.40625,0 a 21.303535,21.303535 0 0 0 21.3125,-21.3125 l 0,-25 a 21.303535,21.303535 0 0 0 -21.3125,-21.3125 l -12.6875,0 -0.0625,-210.9375 74.8125,73.34375 a 21.303535,21.303535 0 0 0 30.125,-0.3125 L 445.125,324.96875 a 21.303535,21.303535 0 0 0 -0.3125,-30.125 L 309.9375,162.625 A 21.303535,21.303535 0 0 0 309,161.8125 L 299.34375,152 a 21.303535,21.303535 0 0 0 -15.3125,-6.34375 z" />
  <path
     style="color:#000000;fill:#e80000;fill-opacity:1;fill-rule:nonzero;stroke:#a35151;stroke-width:0;stroke-linecap:round;stroke-linejoin:miter;stroke-miterlimit:4;stroke-opacity:1;stroke-dashoffset:0;marker:none;visibility:visible;display:inline;overflow:visible;enable-background:accumulate"
     d="m 266.18365,184.50441 17.75657,-17.32534 15.37882,15.63572 0.0768,332.83842 -33.21219,0 z"
     id="rect2987"
     inkscape:connector-curvature="0"
     sodipodi:nodetypes="cccccc" />
  <path
     style="fill:none;stroke:#000000;stroke-width:25;stroke-linecap:butt;stroke-linejoin:miter;stroke-miterlimit:4;stroke-opacity:1;stroke-dasharray:none"
     d="m 232.99592,516.57012 100.40308,0"
     id="path3759"
     inkscape:connector-curvature="0"
     sodipodi:nodetypes="cc" />
  <rect
     style="color:#000000;fill:#e80000;fill-opacity:1;fill-rule:nonzero;stroke:#a35151;stroke-width:0;stroke-linecap:round;stroke-linejoin:miter;stroke-miterlimit:4;stroke-opacity:1;stroke-dasharray:none;stroke-dashoffset:0;marker:none;visibility:visible;display:inline;overflow:visible;enable-background:accumulate"
     id="rect2987-1"
     width="27.539877"
     height="188.85634"
     x="-345.64331"
     y="-70.128616"
     inkscape:transform-center-y="79.214405"
     transform="matrix(-0.70002675,-0.71411662,-0.71411662,0.70002675,0,0)"
     inkscape:transform-center-x="80.808787" />
  <rect
     style="color:#000000;fill:#e80000;fill-opacity:1;fill-rule:nonzero;stroke:#a35151;stroke-width:0;stroke-linecap:round;stroke-linejoin:miter;stroke-miterlimit:4;stroke-opacity:1;stroke-dasharray:none;stroke-dashoffset:0;marker:none;visibility:visible;display:inline;overflow:visible;enable-background:accumulate"
     id="rect2987-1-0"
     width="27.539877"
     height="188.85634"
     x="51.65871"
     y="335.16937"
     inkscape:transform-center-y="79.214405"
     transform="matrix(0.70002675,-0.71411662,0.71411662,0.70002675,0,0)"
     inkscape:transform-center-x="-80.808808" />
</svg>
