<?xml version="1.0" encoding="UTF-8" standalone="no"?>
<svg
   xmlns:dc="http://purl.org/dc/elements/1.1/"
   xmlns:cc="http://creativecommons.org/ns#"
   xmlns:rdf="http://www.w3.org/1999/02/22-rdf-syntax-ns#"
   xmlns:svg="http://www.w3.org/2000/svg"
   xmlns="http://www.w3.org/2000/svg"
   xmlns:sodipodi="http://sodipodi.sourceforge.net/DTD/sodipodi-0.dtd"
   xmlns:inkscape="http://www.inkscape.org/namespaces/inkscape"
   width="580"
   height="580"
   id="svg2"
   version="1.1"
   inkscape:version="0.48.4 r9939"
   sodipodi:docname="bridge_lifting.svg">
  <defs
     id="defs13">
    <inkscape:path-effect
       effect="gears"
       id="path-effect3774"
       is_visible="true"
       teeth="6"
       phi="-1.2" />
    <inkscape:path-effect
       effect="bend_path"
       id="path-effect3772"
       is_visible="false"
       bendpath="m 95.790098,316.51174 c 144.429032,-206.42506 223.313032,-11.7428 339.548092,0"
       prop_scale="1.19"
       scale_y_rel="false"
       vertical="false"
       bendpath-nodetypes="cc" />
  </defs>
  <sodipodi:namedview
     pagecolor="#ffffff"
     bordercolor="#666666"
     borderopacity="1"
     objecttolerance="10"
     gridtolerance="10"
     guidetolerance="10"
     inkscape:pageopacity="0"
     inkscape:pageshadow="2"
     inkscape:window-width="1920"
     inkscape:window-height="1004"
     id="namedview11"
     showgrid="false"
     inkscape:zoom="0.40689654"
     inkscape:cx="642.34721"
     inkscape:cy="488.85955"
     inkscape:window-x="1680"
     inkscape:window-y="0"
     inkscape:window-maximized="1"
     inkscape:current-layer="svg2"
     inkscape:snap-object-midpoints="false"
     inkscape:snap-page="false"
     inkscape:snap-grids="false" />
  <metadata
     id="metadata2975">image/svg+xmlen<rdf:RDF>
  <cc:Work
     rdf:about="">
    <dc:format>image/svg+xml</dc:format>
    <dc:type
       rdf:resource="http://purl.org/dc/dcmitype/StillImage" />
    <dc:title />
  </cc:Work>
</rdf:RDF>
</metadata>
  <path
     style="color:#000000;fill:#bfbfbf;fill-opacity:1;fill-rule:nonzero;stroke:none;stroke-width:40;marker:none;visibility:visible;display:inline;overflow:visible;enable-background:accumulate"
     d="M 81.4375 386.1875 C 117.58267 465.06862 196.9974 519.40625 289.96875 519.40625 C 382.94314 519.40625 462.40057 465.07182 498.5625 386.1875 L 81.4375 386.1875 z "
     id="rect3788" />
  <path
     style="color:#000000;fill:#2c2c2c;fill-opacity:1;fill-rule:nonzero;stroke:none;stroke-width:10;marker:none;visibility:visible;display:inline;overflow:visible;enable-background:accumulate"
     d="M 384.9375 103.3125 L 372.28125 129.3125 L 372.28125 142.5 L 208.3125 142.5 L 208.3125 129.3125 L 196.28125 103.53125 L 175.09375 103.34375 L 163.34375 129.625 L 162.65625 235.65625 L 67.65625 235.65625 C 66.293559 241.44302 65.138017 247.29912 64.21875 253.25 L 162.53125 253.25 L 162.4375 268.28125 L 62.5 267.65625 C 61.860033 274.6851 61.5 281.79624 61.5 289 C 61.5 292.41402 61.604622 295.81117 61.75 299.1875 C 80.852941 299.29847 103.23447 299.40392 112.90625 299.4375 C 137.15692 302.17093 137.46875 323.41472 137.46875 328.90625 L 137.46875 373.59375 C 129.954 375.32456 122.71292 376 117.09375 376 C 105.64773 376 87.553859 373.29561 73.96875 364.21875 C 78.142727 376.37037 83.32244 388.03994 89.375 399.15625 C 99.378259 402.44395 109.65085 403.59375 117.09375 403.59375 C 129.36327 403.59375 149.32179 400.51708 163.125 389.78125 C 176.92821 400.51708 196.85548 403.59375 209.125 403.59375 C 209.94517 403.59375 210.70976 403.5745 211.5 403.5625 C 235.83123 403.19309 246.21233 397.23972 255.125 389.8125 C 255.55635 390.14799 255.99459 390.46059 256.4375 390.78125 C 258.65205 392.38454 261.02836 393.80908 263.46875 395.0625 C 264.4449 395.56387 265.40576 396.01943 266.40625 396.46875 C 266.99602 396.73407 267.5911 396.97092 268.1875 397.21875 C 268.60502 397.39201 269.01732 397.58511 269.4375 397.75 C 272.50037 398.95338 275.61833 399.92562 278.71875 400.71875 C 280.77965 401.24596 282.83378 401.69406 284.84375 402.0625 C 285.84874 402.24672 286.83035 402.4146 287.8125 402.5625 C 289.77679 402.8583 291.69876 403.086 293.53125 403.25 C 295.36374 403.414 297.10323 403.51233 298.75 403.5625 C 299.57338 403.5876 300.38941 403.59375 301.15625 403.59375 C 301.92309 403.59375 302.70787 403.5877 303.53125 403.5625 C 305.16851 403.5126 306.92901 403.41235 308.75 403.25 C 308.7601 403.2491 308.77135 403.2509 308.78125 403.25 C 310.61373 403.086 312.50447 402.8583 314.46875 402.5625 C 315.4509 402.4146 316.46376 402.24672 317.46875 402.0625 C 319.47871 401.69406 321.50161 401.24596 323.5625 400.71875 C 326.65384 399.92794 329.78948 398.94857 332.84375 397.75 C 334.87992 396.95095 336.89145 396.06524 338.84375 395.0625 C 341.28414 393.80908 343.6292 392.38454 345.84375 390.78125 C 346.28666 390.46059 346.7249 390.14799 347.15625 389.8125 C 347.5876 390.14799 348.02584 390.46059 348.46875 390.78125 C 350.68331 392.38454 353.02836 393.80908 355.46875 395.0625 C 357.42106 396.06524 359.43257 396.95095 361.46875 397.75 C 364.52302 398.94857 367.65866 399.92794 370.75 400.71875 C 372.8109 401.24596 374.83378 401.69406 376.84375 402.0625 C 377.84874 402.24672 378.8616 402.4146 379.84375 402.5625 C 381.70972 402.8435 383.533 403.0571 385.28125 403.21875 C 385.37465 403.22775 385.46947 403.2419 385.5625 403.25 C 385.626 403.256 385.68669 403.244 385.75 403.25 C 387.51364 403.40422 389.19155 403.51406 390.78125 403.5625 C 391.60463 403.5876 392.38941 403.59375 393.15625 403.59375 C 405.42577 403.59375 425.3843 400.54833 439.1875 389.8125 C 452.9907 400.54833 472.91798 403.59375 485.1875 403.59375 C 486.61844 403.59375 488.16362 403.52825 489.78125 403.4375 C 491.54576 400.34635 493.25239 397.2117 494.875 394.03125 C 495.71603 392.38276 496.5417 390.73412 497.34375 389.0625 C 497.35375 389.0416 497.365 389.0209 497.375 389 C 497.96089 387.77188 498.52927 386.52159 499.09375 385.28125 C 499.64459 384.07087 500.18874 382.87818 500.71875 381.65625 C 500.73195 381.62605 500.7369 381.5926 500.75 381.5625 C 500.759 381.5412 500.77205 381.5213 500.78125 381.5 C 501.31426 380.2686 501.83234 379.02428 502.34375 377.78125 C 502.864 376.51673 503.37756 375.24521 503.875 373.96875 C 496.96998 375.42446 490.38991 376 485.1875 376 C 474.34124 376 457.51282 373.59918 444.21875 365.625 L 444.21875 328.90625 C 444.21875 322.22743 446.65814 299.95063 472.46875 298.375 C 480.27139 298.3032 500.68086 298.27089 519.6875 298.25 C 519.79747 295.31285 519.84375 292.37169 519.84375 289.40625 C 519.84375 282.033 519.48338 274.75171 518.8125 267.5625 L 416.25 267.59375 L 416.25 253.25 L 517.78125 253.25 C 516.86198 247.29912 515.70644 241.44302 514.34375 235.65625 L 416.25 235.65625 L 416.28125 129.40625 L 403.15625 103.5 L 384.9375 103.3125 z M 208.3125 159.21875 L 372.28125 159.21875 L 372.28125 171.8125 L 208.3125 171.8125 L 208.3125 159.21875 z M 208.3125 207.875 L 372.28125 207.875 L 372.28125 307.6875 C 377.59087 313.21165 382.875 320.69123 382.875 328.90625 L 382.875 375.34375 C 382.8328 375.33875 382.7923 375.34875 382.75 375.34375 C 378.93974 374.88844 374.87179 374.17941 370.75 373.125 C 369.02212 372.68298 367.26009 372.15898 365.53125 371.59375 C 363.13601 370.81065 360.76182 369.91886 358.4375 368.875 C 356.43651 367.97635 354.4839 366.98633 352.59375 365.875 C 351.64867 365.31934 350.71976 364.7372 349.8125 364.125 C 349.35887 363.8189 348.91166 363.50816 348.46875 363.1875 C 348.02584 362.86684 347.5876 362.52299 347.15625 362.1875 C 346.29355 362.85849 345.40726 363.5128 344.5 364.125 C 343.59274 364.7372 342.66383 365.31934 341.71875 365.875 C 339.8286 366.98633 337.87599 367.97635 335.875 368.875 C 333.87401 369.77365 331.83915 370.57731 329.78125 371.28125 C 327.72335 371.98519 325.6234 372.59779 323.5625 373.125 C 319.44071 374.17941 315.37276 374.88844 311.5625 375.34375 C 309.65737 375.57141 307.84012 375.73891 306.09375 375.84375 C 305.22057 375.89615 304.35463 375.94365 303.53125 375.96875 C 302.70787 375.99385 301.92309 376 301.15625 376 C 299.62256 376 297.96512 375.9486 296.21875 375.84375 C 294.47238 375.73891 292.62388 375.57141 290.71875 375.34375 C 286.90849 374.88844 282.84054 374.17941 278.71875 373.125 C 276.65785 372.59779 274.58915 371.98519 272.53125 371.28125 C 270.14358 370.46451 267.77399 369.48704 265.46875 368.40625 C 263.80028 367.624 262.14977 366.80824 260.5625 365.875 C 259.61742 365.31934 258.68851 364.7372 257.78125 364.125 C 257.32762 363.8189 256.88041 363.50816 256.4375 363.1875 C 255.99459 362.86684 255.55635 362.52299 255.125 362.1875 C 254.2623 362.85849 253.37601 363.5128 252.46875 364.125 C 251.56149 364.7372 250.63258 365.31934 249.6875 365.875 C 247.79735 366.98633 245.84474 367.97635 243.84375 368.875 C 241.84276 369.77365 239.8079 370.57731 237.75 371.28125 C 235.6921 371.98519 233.6234 372.59779 231.5625 373.125 C 227.44071 374.17941 223.37276 374.88844 219.5625 375.34375 C 217.65737 375.57141 215.80887 375.73891 214.0625 375.84375 C 213.18932 375.89615 212.32338 375.94365 211.5 375.96875 C 210.67662 375.99385 209.89184 376 209.125 376 C 206.09129 376 202.57421 375.78921 198.8125 375.34375 L 198.8125 328.90625 C 198.8125 320.23495 202.47356 312.37756 208.3125 306.78125 L 208.3125 207.875 z M 152.8125 418 C 140.45003 427.61525 123.16655 431.06725 110.875 431.6875 C 117.77391 440.40436 125.29616 448.60437 133.375 456.21875 C 141.94199 453.70206 147.65278 449.92478 152.8125 445.625 C 166.6157 456.36083 186.54299 459.40625 198.8125 459.40625 C 211.08202 459.40625 231.04054 456.36083 244.84375 445.625 C 258.64696 456.36083 278.57423 459.40625 290.84375 459.40625 C 303.11327 459.40625 323.04054 456.36083 336.84375 445.625 C 350.64695 456.36083 370.60548 459.40625 382.875 459.40625 C 395.14451 459.40625 415.0718 456.36083 428.875 445.625 C 434.81167 450.2424 441.86329 453.45172 448.96875 455.59375 C 456.76874 448.15937 464.06555 440.18963 470.75 431.71875 C 458.46567 431.09528 441.22897 427.60865 428.875 418 C 415.0718 428.73583 395.14451 431.8125 382.875 431.8125 C 370.60548 431.8125 350.64695 428.73583 336.84375 418 C 323.04054 428.73583 303.11327 431.8125 290.84375 431.8125 C 278.57423 431.8125 258.64696 428.73583 244.84375 418 C 231.04054 428.73583 211.08202 431.8125 198.8125 431.8125 C 186.54299 431.8125 166.6157 428.73583 152.8125 418 z "
     id="path5" />
  <line
     class="st0"
     x1="474.75668"
     y1="164.55458"
     x2="106.67211"
     y2="164.55458"
     id="line11" />
  <path
     inkscape:connector-curvature="0"
     d="m 247.37964,280.86964 v 30.48321 h 82.38705 v -30.48321 c 0,-5.76709 -4.94322,-10.71032 -10.71031,-10.71032 h -60.96642 c -5.76709,0 -10.71032,4.94323 -10.71032,10.71032 z"
     id="path7-8"
     style="color:#000000;fill:#2c2c2c;fill-opacity:1;fill-rule:nonzero;stroke:none;stroke-width:10;marker:none;visibility:visible;display:inline;overflow:visible;enable-background:accumulate" />
  <path
     style="font-size:medium;font-style:normal;font-variant:normal;font-weight:normal;font-stretch:normal;text-indent:0;text-align:start;text-decoration:none;line-height:normal;letter-spacing:normal;word-spacing:normal;text-transform:none;direction:ltr;block-progression:tb;writing-mode:lr-tb;text-anchor:start;baseline-shift:baseline;color:#000000;fill:#2c2c2c;fill-opacity:1;fill-rule:nonzero;stroke:none;stroke-width:10;marker:none;visibility:visible;display:inline;overflow:visible;enable-background:accumulate;font-family:Sans;-inkscape-font-specification:Sans"
     d="m 279.36476,245.44168 0,16.47154 18.4297,0 0,-16.47154 c 0.1507,-10.61547 -18.31097,-10.34672 -18.4297,0 z"
     id="line11-9-6"
     inkscape:connector-curvature="0"
     sodipodi:nodetypes="ccccc" />
  <path
     inkscape:connector-curvature="0"
     d="m 354.48282,319.59156 -131.8193,0 0,18.12516 c 0,14.82968 6.59097,28.01159 18.12515,37.07417 l 47.7845,26.08575 47.78453,-26.08575 c 11.53416,-9.06258 18.12512,-22.24449 18.12512,-37.07417 z m -16.47739,20.59676 -16.47744,4.11936 0,-8.23871 16.47744,0 z m -82.38708,4.11936 -16.47742,-4.11936 0,-4.11935 16.47742,0 z"
     id="path13-9"
     style="color:#000000;fill:#2c2c2c;fill-opacity:1;fill-rule:nonzero;stroke:none;stroke-width:10;marker:none;visibility:visible;display:inline;overflow:visible;enable-background:accumulate"
     sodipodi:nodetypes="ccscccsccccccccccc" />
</svg>
