<?xml version="1.0" encoding="UTF-8" standalone="no"?>
<svg
   xmlns:dc="http://purl.org/dc/elements/1.1/"
   xmlns:cc="http://creativecommons.org/ns#"
   xmlns:rdf="http://www.w3.org/1999/02/22-rdf-syntax-ns#"
   xmlns:svg="http://www.w3.org/2000/svg"
   xmlns="http://www.w3.org/2000/svg"
   xmlns:sodipodi="http://sodipodi.sourceforge.net/DTD/sodipodi-0.dtd"
   xmlns:inkscape="http://www.inkscape.org/namespaces/inkscape"
   width="580"
   height="580"
   id="svg2"
   version="1.1"
   inkscape:version="0.48.4 r9939"
   sodipodi:docname="building.svg">
  <defs
     id="defs13">
    <inkscape:path-effect
       effect="gears"
       id="path-effect3774"
       is_visible="true"
       teeth="6"
       phi="-1.2" />
    <inkscape:path-effect
       effect="bend_path"
       id="path-effect3772"
       is_visible="false"
       bendpath="m 95.790098,316.51174 c 144.429032,-206.42506 223.313032,-11.7428 339.548092,0"
       prop_scale="1.19"
       scale_y_rel="false"
       vertical="false"
       bendpath-nodetypes="cc" />
  </defs>
  <sodipodi:namedview
     pagecolor="#ffffff"
     bordercolor="#666666"
     borderopacity="1"
     objecttolerance="10"
     gridtolerance="10"
     guidetolerance="10"
     inkscape:pageopacity="0"
     inkscape:pageshadow="2"
     inkscape:window-width="1280"
     inkscape:window-height="995"
     id="namedview11"
     showgrid="false"
     inkscape:zoom="0.5754386"
     inkscape:cx="307.77189"
     inkscape:cy="492.2229"
     inkscape:window-x="0"
     inkscape:window-y="0"
     inkscape:window-maximized="1"
     inkscape:current-layer="svg2"
     inkscape:snap-object-midpoints="true"
     inkscape:snap-page="true" />
  <metadata
     id="metadata2975">image/svg+xmlen<rdf:RDF>
  <cc:Work
     rdf:about="">
    <dc:format>image/svg+xml</dc:format>
    <dc:type
       rdf:resource="http://purl.org/dc/dcmitype/StillImage" />
    <dc:title></dc:title>
  </cc:Work>
</rdf:RDF>
</metadata>
  <path
     sodipodi:type="inkscape:offset"
     inkscape:radius="22.02898"
     inkscape:original="M 289.6875 86.75 A 8.1178323 8.1178323 0 0 0 288.96875 86.8125 A 8.1178323 8.1178323 0 0 0 282.90625 90.875 L 201.71875 237 A 8.1178323 8.1178323 0 0 0 200.71875 241.0625 L 200.71875 334.125 L 113.96875 396.03125 A 8.1178323 8.1178323 0 1 0 123.34375 409.21875 L 143.90625 394.59375 L 143.90625 484.5625 A 8.1178323 8.1178323 0 0 0 152 492.6875 L 249.40625 492.6875 A 8.1178323 8.1178323 0 0 0 257.53125 484.5625 L 257.53125 427.75 C 257.53125 409.27412 271.5241 395.28125 290 395.28125 C 308.47584 395.28125 322.46875 409.27413 322.46875 427.75 L 322.46875 484.5625 A 8.1178323 8.1178323 0 0 0 330.59375 492.6875 L 428 492.6875 A 8.1178323 8.1178323 0 0 0 436.09375 484.5625 L 436.09375 394.59375 L 456.65625 409.21875 A 8.1178323 8.1178323 0 1 0 466.03125 396.03125 L 379.28125 334.125 L 379.28125 241.0625 A 8.1178323 8.1178323 0 0 0 378.28125 237 L 297.09375 90.875 A 8.1178323 8.1178323 0 0 0 289.6875 86.75 z M 290 111.6875 L 363.0625 243.34375 L 363.0625 338.4375 A 8.1178323 8.1178323 0 0 0 366.34375 345.03125 L 419.875 383.0625 L 419.875 476.4375 L 338.6875 476.4375 L 338.6875 427.75 C 338.6875 400.77057 316.9794 379.03125 290 379.03125 C 263.02056 379.03125 241.28125 400.77058 241.28125 427.75 L 241.28125 476.4375 L 160.125 476.4375 L 160.125 383.0625 L 213.65625 345.03125 A 8.1178323 8.1178323 0 0 0 216.9375 338.4375 L 216.9375 243.34375 L 290 111.6875 z M 290 241.0625 C 267.68162 241.0625 249.40625 259.30662 249.40625 281.625 C 249.40625 303.94339 267.68162 322.21875 290 322.21875 C 312.31839 322.21875 330.59375 303.94339 330.59375 281.625 C 330.59375 259.30662 312.31839 241.0625 290 241.0625 z M 290 257.28125 C 303.54487 257.28125 314.34375 268.08014 314.34375 281.625 C 314.34375 295.16987 303.54487 305.96875 290 305.96875 C 276.45514 305.96875 265.65625 295.16987 265.65625 281.625 C 265.65625 268.08014 276.45514 257.28125 290 257.28125 z "
     style="font-size:medium;font-style:normal;font-variant:normal;font-weight:normal;font-stretch:normal;text-indent:0;text-align:start;text-decoration:none;line-height:normal;letter-spacing:normal;word-spacing:normal;text-transform:none;direction:ltr;block-progression:tb;writing-mode:lr-tb;text-anchor:start;baseline-shift:baseline;opacity:0.372;color:#000000;fill:#e4e4e4;fill-opacity:1;fill-rule:nonzero;stroke:#a35151;stroke-width:0;stroke-linecap:round;stroke-linejoin:miter;stroke-miterlimit:4;stroke-opacity:1;stroke-dasharray:none;stroke-dashoffset:0;marker:none;visibility:visible;display:inline;overflow:visible;enable-background:accumulate;font-family:Sans;-inkscape-font-specification:Sans"
     id="path4093"
     d="m 288.75,64.75 c 0.38781,-0.01641 -2.48096,0.232385 -2.5,0.21875 -0.001,-8.46e-4 -0.18013,0.0032 -0.15625,0 l 0,0.0625 c 1.66941,-0.109282 -14.68047,5.970163 -12.90625,4.78125 1.79585,-1.203406 -10.53204,12.100954 -9.46875,10.21875 a 22.031183,22.031183 0 0 0 -0.0625,0.15625 l -81.1875,146.125 a 22.031183,22.031183 0 0 0 -0.0625,0.0937 c 0.58152,-1.05946 -3.13262,8.45478 -2.84375,7.28125 0.27264,-1.10758 -0.68028,7.37642 -0.8125,7.375 l -0.0625,0 0,0.4375 0,81.28125 -77.5,55.3125 0.21875,0.3125 c -1.550092,1.73803 -8.730048,8.35446 -7.78125,7.03125 1.116937,-1.5577 -5.397155,13.21892 -5,11.34375 0.397155,-1.87517 0.358275,14.22052 -0.03125,12.34375 -0.389525,-1.87677 6.048092,12.90598 4.9375,11.34375 -1.110592,-1.56223 10.73833,9.3908 9.09375,8.40625 -1.64458,-0.98455 13.58905,4.27227 11.6875,4.03125 -1.16681,-0.14789 3.48486,-0.53813 7.5625,-0.8125 l 0,52.4375 0,0.0312 c 0.0168,-1.72753 2.97303,13.17677 2.28125,11.5 -0.69357,-1.6811 7.78343,11.06964 6.5,9.78125 -1.28343,-1.28839 11.42842,7.26254 9.75,6.5625 -1.67842,-0.70004 13.3498,2.31789 11.53125,2.3125 a 22.031183,22.031183 0 0 0 0.0625,0 l 97.375,0 c -0.005,0 0.0357,4e-5 0.0312,0 -1.73221,-0.0168 13.21148,-2.97636 11.53125,-2.28125 -1.68455,0.69689 11.07031,-7.85156 9.78125,-6.5625 -1.28906,1.28906 7.25939,-11.4658 6.5625,-9.78125 -0.69511,1.68023 2.26443,-13.26346 2.28125,-11.53125 4e-5,0.004 0,-0.0359 0,-0.0312 l 0,-56.78125 c 0,-7.35333 3.08415,-10.4375 10.4375,-10.4375 7.35325,0 10.4375,3.08423 10.4375,10.4375 l 0,56.78125 c 0,-0.005 -4e-5,0.0357 0,0.0312 0.0168,-1.73221 2.97636,13.21148 2.28125,11.53125 -0.69689,-1.68455 7.85156,11.07031 6.5625,9.78125 -1.28906,-1.28906 11.4658,7.25939 9.78125,6.5625 -1.68023,-0.69511 13.26346,2.26443 11.53125,2.28125 -0.004,4e-5 0.0359,0 0.0312,0 l 97.375,0 a 22.031183,22.031183 0 0 0 0.0625,0 c -1.81855,0.005 13.20967,-3.01254 11.53125,-2.3125 -1.67842,0.70004 11.03343,-7.85089 9.75,-6.5625 -1.28343,1.28839 7.19357,-11.46235 6.5,-9.78125 -0.69178,1.67677 2.26443,-13.22753 2.28125,-11.5 4e-5,0.004 0,-0.0359 0,-0.0312 l 0,-52.4375 c 4.07764,0.27437 8.72931,0.66461 7.5625,0.8125 -1.90155,0.24102 13.33208,-5.0158 11.6875,-4.03125 -1.64458,0.98455 10.20434,-9.96848 9.09375,-8.40625 -1.11059,1.56223 5.32703,-13.22052 4.9375,-11.34375 -0.38953,1.87677 -0.42841,-14.21892 -0.0312,-12.34375 0.39716,1.87517 -6.11694,-12.90145 -5,-11.34375 0.9488,1.32321 -6.23116,-5.29322 -7.78125,-7.03125 l 0.21875,-0.3125 -77.5,-55.3125 0,-81.28125 0,-0.4375 -0.0625,0 c -0.13222,0.001 -1.08514,-8.48258 -0.8125,-7.375 0.28887,1.17353 -3.42527,-8.34071 -2.84375,-7.28125 a 22.031183,22.031183 0 0 0 -0.0625,-0.0937 l -81.1875,-146.125 a 22.031183,22.031183 0 0 0 -0.0625,-0.125 c 0.62542,1.109621 -5.90295,-7.460879 -5,-6.5625 0.90295,0.898379 -7.70653,-5.588527 -6.59375,-4.96875 1.11278,0.619777 -8.92668,-3.294705 -7.6875,-3 1.23918,0.294705 -9.49141,-0.728785 -8.21875,-0.78125 a 22.031183,22.031183 0 0 0 -0.0312,0 z m 1.25,92.3125 45.25,81.5625 C 323.80538,226.60626 307.72769,219.03125 290,219.03125 c -17.72769,0 -33.80538,7.57501 -45.25,19.59375 L 290,157.0625 z m 0,122.25 c 1.8362,0 2.3125,0.4763 2.3125,2.3125 0,1.83622 -0.47628,2.3125 -2.3125,2.3125 -1.8362,0 -2.3125,-0.4763 -2.3125,-2.3125 0,-1.83619 0.47631,-2.3125 2.3125,-2.3125 z m -51.03125,38.34375 C 250.36061,333.67748 269.03601,344.25 290,344.25 c 20.96399,0 39.63939,-10.57252 51.03125,-26.59375 l 0,20.59375 0,0.1875 0.0312,0 c 0.0599,-0.53958 0.9884,7.87902 0.75,6.84375 -0.24497,-1.06381 2.86135,7.63358 2.375,6.65625 -0.48635,-0.97733 4.5759,6.77443 3.875,5.9375 -0.7009,-0.83693 6.03303,5.49411 5.15625,4.84375 a 22.031183,22.031183 0 0 0 0.375,0.28125 l 44.25,31.4375 0,59.96875 -37.125,0 0,-26.65625 C 360.71875,388.95398 328.813,357 290,357 c -38.81303,0 -70.75,31.937 -70.75,70.75 l 0,26.65625 -37.09375,0 0,-59.96875 44.25,-31.4375 a 22.031183,22.031183 0 0 0 0.375,-0.28125 c -0.87678,0.65036 5.85715,-5.68068 5.15625,-4.84375 -0.7009,0.83693 4.36135,-6.91483 3.875,-5.9375 -0.48635,0.97733 2.61997,-7.72006 2.375,-6.65625 -0.2384,1.03527 0.69007,-7.38333 0.75,-6.84375 l 0.0312,0 0,-0.1875 0,-20.59375 z" />
  <circle
     sodipodi:ry="4"
     sodipodi:rx="4"
     sodipodi:cy="24"
     sodipodi:cx="25"
     style="fill:none;stroke:#000000;stroke-width:2;stroke-linejoin:round;stroke-miterlimit:10"
     cx="25"
     cy="24"
     r="4"
     id="circle5"
     transform="matrix(8.1170206,0,0,8.1170206,87.074739,87.074468)" />
  <path
     inkscape:connector-curvature="0"
     style="fill:none;stroke:#000000;stroke-width:16.23404121;stroke-linejoin:round;stroke-miterlimit:10"
     d="m 152.01091,379.28721 v 105.52126 h 97.40425 c 0,-22.72765 0,-50.32552 0,-56.81914 0,-22.72765 17.85744,-40.5851 40.58511,-40.5851 22.72762,0 40.58509,17.85745 40.58509,40.5851 0,6.49362 0,34.09149 0,56.81914 h 97.40426 V 379.28721"
     id="path7" />
  <polyline
     style="fill:none;stroke:#000000;stroke-width:2;stroke-linecap:round;stroke-linejoin:round;stroke-miterlimit:10"
     points="  3.9,38.9 15,31 15,31 15,19 25,1 35,19 35,31 35,31 46.1,38.9 "
     id="polyline9"
     transform="matrix(8.1170206,0,0,8.1170206,87.074739,87.074468)" />
</svg>
