<?xml version="1.0" encoding="UTF-8" standalone="no"?>
<svg
   xmlns:dc="http://purl.org/dc/elements/1.1/"
   xmlns:cc="http://creativecommons.org/ns#"
   xmlns:rdf="http://www.w3.org/1999/02/22-rdf-syntax-ns#"
   xmlns:svg="http://www.w3.org/2000/svg"
   xmlns="http://www.w3.org/2000/svg"
   xmlns:sodipodi="http://sodipodi.sourceforge.net/DTD/sodipodi-0.dtd"
   xmlns:inkscape="http://www.inkscape.org/namespaces/inkscape"
   width="580"
   height="580"
   id="svg2"
   version="1.1"
   inkscape:version="0.48.4 r9939"
   sodipodi:docname="buoy_cardinal_west.svg">
  <defs
     id="defs13">
    <inkscape:path-effect
       effect="gears"
       id="path-effect3774"
       is_visible="true"
       teeth="6"
       phi="-1.2" />
    <inkscape:path-effect
       effect="bend_path"
       id="path-effect3772"
       is_visible="false"
       bendpath="m 95.790098,316.51174 c 144.429032,-206.42506 223.313032,-11.7428 339.548092,0"
       prop_scale="1.19"
       scale_y_rel="false"
       vertical="false"
       bendpath-nodetypes="cc" />
  </defs>
  <sodipodi:namedview
     pagecolor="#ffffff"
     bordercolor="#666666"
     borderopacity="1"
     objecttolerance="10"
     gridtolerance="10"
     guidetolerance="10"
     inkscape:pageopacity="0"
     inkscape:pageshadow="2"
     inkscape:window-width="1280"
     inkscape:window-height="995"
     id="namedview11"
     showgrid="false"
     inkscape:zoom="0.8137931"
     inkscape:cx="321.90626"
     inkscape:cy="295.50862"
     inkscape:window-x="0"
     inkscape:window-y="0"
     inkscape:window-maximized="1"
     inkscape:current-layer="svg2" />
  <metadata
     id="metadata2975">image/svg+xmlen<rdf:RDF>
  <cc:Work
     rdf:about="">
    <dc:format>image/svg+xml</dc:format>
    <dc:type
       rdf:resource="http://purl.org/dc/dcmitype/StillImage" />
    <dc:title></dc:title>
  </cc:Work>
</rdf:RDF>
</metadata>
  <path
     sodipodi:type="inkscape:offset"
     inkscape:radius="18.656126"
     inkscape:original="M 327.3125 17.5625 L 362.96875 116.8125 L 361 125.8125 L 287.28125 201.03125 L 342 212.84375 L 339.3125 225.15625 L 308.5625 218.46875 L 273.0625 308.3125 L 239.59375 393.03125 L 231.34375 403.65625 L 154.78125 503.5 L 100.46875 503.5 L 100.46875 528.5 L 241.71875 528.5 C 241.71965 528.503 241.7491 528.497 241.75 528.5 C 241.7843 528.61266 241.80865 528.73146 241.84375 528.84375 C 242.05315 529.51403 242.2596 530.18737 242.5 530.84375 C 242.505 530.85615 242.52665 530.8627 242.53125 530.875 C 248.70405 547.67929 264.8927 559.78125 283.75 559.78125 C 298.0906 559.78125 310.88075 552.77242 318.90625 542.03125 C 318.96885 541.94765 319.03175 541.8653 319.09375 541.78125 C 319.86445 540.73458 320.60375 539.64487 321.28125 538.53125 C 321.30805 538.48725 321.3483 538.45035 321.375 538.40625 C 321.7178 537.83826 322.02635 537.27162 322.34375 536.6875 C 322.35075 536.6751 322.3682 536.66865 322.375 536.65625 C 322.7032 536.05089 323.0124 535.43429 323.3125 534.8125 C 323.6077 534.20282 323.88885 533.59345 324.15625 532.96875 C 324.16915 532.93845 324.1746 532.9053 324.1875 532.875 C 324.4407 532.27955 324.67895 531.6708 324.90625 531.0625 C 325.17865 530.33098 325.42245 529.59269 325.65625 528.84375 C 325.69135 528.73146 325.7157 528.61266 325.75 528.5 C 325.7508 528.497 325.78035 528.503 325.78125 528.5 L 455.875 528.5 L 455.875 503.5 L 386.5625 503.5 L 371.96875 434.25 L 316.9375 422.28125 L 371.9375 434.21875 L 369.46875 422.25 L 374.65625 330.59375 L 380.125 234.03125 L 353.4375 228.21875 L 356.125 215.90625 L 410.96875 227.75 L 375.25 128.28125 L 377.15625 119.65625 L 451.03125 44.25 L 327.3125 17.5625 z "
     style="font-size:medium;font-style:normal;font-variant:normal;font-weight:normal;font-stretch:normal;text-indent:0;text-align:start;text-decoration:none;line-height:normal;letter-spacing:normal;word-spacing:normal;text-transform:none;direction:ltr;block-progression:tb;writing-mode:lr-tb;text-anchor:start;baseline-shift:baseline;opacity:0.42608696;color:#000000;fill:#acd8f3;fill-opacity:1;fill-rule:nonzero;stroke:#a35151;stroke-width:0;stroke-linecap:round;stroke-linejoin:miter;stroke-miterlimit:4;stroke-opacity:1;stroke-dasharray:none;stroke-dashoffset:0;marker:none;visibility:visible;display:inline;overflow:visible;enable-background:accumulate;font-family:Sans;-inkscape-font-specification:Sans"
     id="path3847"
     d="M 327.53125,-1.09375 A 18.657992,18.657992 0 0 0 309.75,23.875 l 33.53125,93.375 -69.3125,70.71875 a 18.657992,18.657992 0 0 0 9.375,31.3125 L 287.8125,220.25 255.71875,301.46875 223.25,383.625 l -6.65625,8.59375 a 18.657992,18.657992 0 0 0 -0.0625,0.0937 l -70.96875,92.53125 -45.09375,0 A 18.657992,18.657992 0 0 0 81.8125,503.5 l 0,25 a 18.657992,18.657992 0 0 0 18.65625,18.65625 l 129.28125,0 c 10.87336,18.66962 31.02232,31.28125 54,31.28125 20.40349,0 38.67561,-10.00113 50.0625,-25.21875 l 0.0312,0 c 0.005,-0.006 -0.005,-0.0248 0,-0.0312 0.003,-0.004 0.0761,-0.10802 0.25,-0.34375 a 18.657992,18.657992 0 0 0 0.0312,0 c 1.054,-1.43142 2.09708,-2.95719 3.09375,-4.59375 0.005,-0.008 -0.005,-0.0236 0,-0.0312 -1.26776,2.08984 -1.59199,2.67967 0.125,-0.15625 a 18.657992,18.657992 0 0 0 0,-0.0312 c 0.22207,-0.36795 0.32026,-0.55942 0.5,-0.875 l 118.03125,0 A 18.657992,18.657992 0 0 0 474.53125,528.5 l 0,-25 A 18.657992,18.657992 0 0 0 455.875,484.84375 l -54.1875,0 -11.46875,-54.40625 0,-0.0312 a 18.657992,18.657992 0 0 0 -0.0312,-0.125 L 388.25,420.8125 393.28125,331.65625 398.25,244.09375 407.03125,246 a 18.657992,18.657992 0 0 0 21.5,-24.5625 L 395,128.09375 464.34375,57.3125 A 18.657992,18.657992 0 0 0 454.96875,26 L 331.25,-0.6875 a 18.657992,18.657992 0 0 0 -3.71875,-0.40625 z" />
  <path
     style="font-size:medium;font-style:normal;font-variant:normal;font-weight:normal;font-stretch:normal;text-indent:0;text-align:start;text-decoration:none;line-height:normal;letter-spacing:normal;word-spacing:normal;text-transform:none;direction:ltr;block-progression:tb;writing-mode:lr-tb;text-anchor:start;baseline-shift:baseline;color:#000000;fill:#000000;fill-opacity:1;stroke:#a35151;stroke-width:0;stroke-linecap:round;stroke-linejoin:miter;stroke-miterlimit:4;stroke-opacity:1;stroke-dasharray:none;marker:none;visibility:visible;display:inline;overflow:visible;enable-background:accumulate;font-family:Sans;-inkscape-font-specification:Sans"
     d="m 378.32457,44.55177 -98.56492,451.32322 14.06339,3.25235 98.59503,-451.323224 z"
     id="path3761"
     inkscape:connector-curvature="0"
     sodipodi:nodetypes="ccccc" />
  <path
     style="fill:#ffe800;fill-opacity:1;stroke:none"
     d="m 230.82858,404.203 -87.79094,114.46367 96.34088,0.43716 c 1.38862,22.8971 20.5922,41.24741 43.81894,41.24741 23.12276,0 42.25233,-18.18512 43.79323,-40.93883 l 62.29187,0.28287 -17.87127,-84.88394 z"
     id="path3822"
     inkscape:connector-curvature="0"
     sodipodi:nodetypes="cccscccc" />
  <path
     inkscape:connector-curvature="0"
     style="fill:#ffe800;fill-opacity:1;stroke:none"
     d="m 308.00101,219.04093 -35.48513,89.83029 -33.46747,84.72262 -8.26029,10.64469 140.60909,30.54121 -2.48229,-11.9646 5.18203,-91.63686 5.46115,-96.57259"
     id="path3822-6-4"
     sodipodi:nodetypes="cccccccc" />
  <path
     inkscape:connector-curvature="0"
     style="fill:#000000;fill-opacity:1;stroke:none"
     d="m 272.51588,308.87122 -33.46747,84.72262 -8.26029,10.64469 140.60909,30.54121 -2.48229,-11.9646 5.18203,-91.63686"
     id="path3822-6"
     sodipodi:nodetypes="cccccc" />
  <path
     inkscape:connector-curvature="0"
     style="fill:#000000;fill-opacity:1;stroke:none"
     d="m 286.71605,201.6135 123.7056,26.69825 -40.20848,-111.9036"
     id="path3822-6-6"
     sodipodi:nodetypes="ccc"
     inkscape:transform-center-x="10.86128"
     inkscape:transform-center-y="-3.4756081" />
  <path
     style="fill:none;stroke:#000000;stroke-width:25;stroke-linecap:butt;stroke-linejoin:miter;stroke-opacity:1;stroke-miterlimit:4;stroke-dasharray:none"
     d="m 99.923776,516.57012 355.381084,0"
     id="path3759"
     inkscape:connector-curvature="0" />
  <path
     sodipodi:type="arc"
     style="color:#000000;fill:#fefefe;fill-opacity:1;stroke:#000000;stroke-width:25;stroke-linecap:round;stroke-linejoin:round;stroke-miterlimit:10;stroke-opacity:1;stroke-dasharray:none;stroke-dashoffset:0;marker:none;visibility:visible;display:inline;overflow:visible;enable-background:accumulate"
     id="path3759-1"
     sodipodi:cx="210.27438"
     sodipodi:cy="76.036606"
     sodipodi:rx="40.838413"
     sodipodi:ry="40.838413"
     d="m 251.1128,76.036606 a 40.838413,40.838413 0 1 1 -81.67683,0 40.838413,40.838413 0 1 1 81.67683,0 z"
     transform="matrix(0.82289092,0,0,0.82289092,110.16458,453.8318)" />
  <path
     inkscape:connector-curvature="0"
     style="fill:#000000;fill-opacity:1;stroke:none"
     d="M 450.4694,44.828022 326.7638,18.129772 366.97228,130.03338"
     id="path3822-6-6-2"
     sodipodi:nodetypes="ccc"
     inkscape:transform-center-x="-10.86128"
     inkscape:transform-center-y="3.47561" />
</svg>
