<?xml version="1.0" encoding="UTF-8" standalone="no"?>
<svg
   xmlns:dc="http://purl.org/dc/elements/1.1/"
   xmlns:cc="http://creativecommons.org/ns#"
   xmlns:rdf="http://www.w3.org/1999/02/22-rdf-syntax-ns#"
   xmlns:svg="http://www.w3.org/2000/svg"
   xmlns="http://www.w3.org/2000/svg"
   xmlns:sodipodi="http://sodipodi.sourceforge.net/DTD/sodipodi-0.dtd"
   xmlns:inkscape="http://www.inkscape.org/namespaces/inkscape"
   width="580"
   height="580"
   id="svg2"
   version="1.1"
   inkscape:version="0.48.4 r9939"
   sodipodi:docname="buoy_yellowblackyellow_pillar.svg">
  <defs
     id="defs13">
    <inkscape:path-effect
       effect="gears"
       id="path-effect3774"
       is_visible="true"
       teeth="6"
       phi="-1.2" />
    <inkscape:path-effect
       effect="bend_path"
       id="path-effect3772"
       is_visible="false"
       bendpath="m 95.790098,316.51174 c 144.429032,-206.42506 223.313032,-11.7428 339.548092,0"
       prop_scale="1.19"
       scale_y_rel="false"
       vertical="false"
       bendpath-nodetypes="cc" />
  </defs>
  <sodipodi:namedview
     pagecolor="#ffffff"
     bordercolor="#666666"
     borderopacity="1"
     objecttolerance="10"
     gridtolerance="10"
     guidetolerance="10"
     inkscape:pageopacity="0"
     inkscape:pageshadow="2"
     inkscape:window-width="1920"
     inkscape:window-height="1004"
     id="namedview11"
     showgrid="false"
     inkscape:zoom="0.81379307"
     inkscape:cx="236.64914"
     inkscape:cy="296.37325"
     inkscape:window-x="1680"
     inkscape:window-y="0"
     inkscape:window-maximized="1"
     inkscape:current-layer="svg2" />
  <metadata
     id="metadata2975">image/svg+xmlen<rdf:RDF>
  <cc:Work
     rdf:about="">
    <dc:format>image/svg+xml</dc:format>
    <dc:type
       rdf:resource="http://purl.org/dc/dcmitype/StillImage" />
    <dc:title></dc:title>
  </cc:Work>
</rdf:RDF>
</metadata>
  <path
     sodipodi:type="inkscape:offset"
     inkscape:radius="20.359035"
     inkscape:original="M 315.09375 202.0625 L 274.8125 303.09375 L 274.71875 303.0625 L 239 393.5 L 231.9375 402.65625 L 230.84375 404.09375 L 230.8125 404.125 L 216.96875 422.125 L 217 422.125 L 154.25 503.96875 L 99.9375 503.96875 L 99.9375 528.96875 L 241.1875 528.96875 C 241.42605 529.75508 241.68766 530.54507 241.96875 531.3125 C 241.97375 531.3249 241.9955 531.33135 242 531.34375 C 242.2329 531.97777 242.45768 532.59854 242.71875 533.21875 C 242.73665 533.26135 242.76315 533.30125 242.78125 533.34375 C 243.0549 533.98809 243.35304 534.62154 243.65625 535.25 C 243.67055 535.2796 243.6732 535.31425 243.6875 535.34375 C 244.60497 537.23465 245.67465 539.05111 246.84375 540.78125 C 248.82213 543.70903 251.14518 546.37679 253.75 548.75 C 261.56165 555.86708 271.90092 560.25 283.21875 560.25 C 291.52374 560.25 299.29271 557.87345 305.9375 553.8125 C 306.54415 553.44175 307.13167 553.05511 307.71875 552.65625 C 308.29995 552.26138 308.87641 551.85898 309.4375 551.4375 C 310.00148 551.01385 310.55104 550.57459 311.09375 550.125 C 311.63661 549.67529 312.16686 549.22473 312.6875 548.75 C 315.22879 546.43282 317.49182 543.81548 319.4375 540.96875 C 319.5047 540.87035 319.5898 540.78643 319.65625 540.6875 C 319.67735 540.6562 319.69775 540.62505 319.71875 540.59375 C 320.06584 540.07415 320.3935 539.53468 320.71875 539 C 320.74555 538.956 320.7859 538.9191 320.8125 538.875 C 321.51288 537.71446 322.15716 536.53865 322.75 535.3125 C 322.754 535.3045 322.746 535.28955 322.75 535.28125 C 323.04529 534.67134 323.35757 534.06243 323.625 533.4375 C 323.6379 533.4072 323.64345 533.37405 323.65625 533.34375 C 323.90948 532.7483 324.14775 532.13955 324.375 531.53125 C 324.398 531.46945 324.4148 531.40564 324.4375 531.34375 C 324.68402 530.6726 324.91095 529.99821 325.125 529.3125 C 325.1602 529.20021 325.18455 529.08141 325.21875 528.96875 C 325.21957 528.96575 325.2492 528.97175 325.25 528.96875 L 455.3125 528.96875 L 455.3125 503.96875 L 386.0625 503.96875 L 373.875 446.21875 L 368.96875 422.34375 L 375.03125 324.625 L 381.65625 217.65625 L 381.5625 217.625 L 381.5625 217.59375 L 371.625 215.3125 L 315.09375 202.0625 z "
     style="opacity:0.42608696;color:#000000;fill:#8d8d8d;fill-opacity:1;fill-rule:nonzero;stroke:#a35151;stroke-width:0;stroke-linecap:round;stroke-linejoin:miter;stroke-miterlimit:4;stroke-opacity:1;stroke-dasharray:none;stroke-dashoffset:0;marker:none;visibility:visible;display:inline;overflow:visible;enable-background:accumulate"
     id="path3063"
     d="m 315.71875,181.71875 a 20.361071,20.361071 0 0 0 -19.53125,12.8125 l -39.59375,99.28125 a 20.361071,20.361071 0 0 0 -0.8125,1.78125 l -34.65625,87.71875 -5.3125,6.90625 a 20.361071,20.361071 0 0 0 -0.0625,0.125 l -0.6875,0.90625 -0.0312,0.0625 a 20.361071,20.361071 0 0 0 -0.34375,0.40625 l -0.0312,0.0625 -13.8125,17.9375 a 20.361071,20.361071 0 0 0 0,0.0312 20.361071,20.361071 0 0 0 -0.25,0.3125 l -56.375,73.5625 -44.28125,0 a 20.361071,20.361071 0 0 0 -20.34375,20.34375 l 0,25 A 20.361071,20.361071 0 0 0 99.9375,549.3125 l 128.375,0 c 0.5682,0.93291 1.06294,1.99697 1.65625,2.875 2.90564,4.30001 6.29744,8.19472 10.0625,11.625 11.34669,10.3378 26.61354,16.78125 43.1875,16.78125 12.18894,0 23.68975,-3.50623 33.34375,-9.40625 0.99,-0.60503 1.84287,-1.17736 2.59375,-1.6875 0.72328,-0.4914 1.56025,-1.07533 2.5,-1.78125 0.88924,-0.66798 1.712,-1.30523 2.4375,-1.90625 0.67184,-0.55656 1.44546,-1.24067 2.3125,-2.03125 3.73487,-3.4055 7.02864,-7.1937 9.84375,-11.3125 a 20.361071,20.361071 0 0 0 0,-0.0312 c -1.28665,1.88402 -0.9375,1.42825 0.28125,-0.375 0.0338,-0.0502 0.0118,-0.002 0.0312,-0.0312 0.05,-0.0746 0.10728,-0.16049 0.0625,-0.0937 a 20.361071,20.361071 0 0 0 0.0312,-0.0312 c 0.67519,-1.01077 1.14835,-1.78579 1.46875,-2.3125 l -0.0312,0 c -1.86992,3.07001 -1.42271,2.42058 0.15625,-0.1875 0.16497,-0.27249 -0.202,0.30365 0,-0.0312 0.0141,-0.0234 0.0484,-0.039 0.0625,-0.0625 l 117,0 a 20.361071,20.361071 0 0 0 20.34375,-20.34375 l 0,-25 A 20.361071,20.361071 0 0 0 455.3125,483.625 l -52.75,0 -8.75,-41.5 -0.0312,-0.125 -4.34375,-21.09375 5.90625,-95.03125 6.625,-106.96875 a 20.361071,20.361071 0 0 0 -2.53125,-11.0625 20.361071,20.361071 0 0 0 -1.0625,-1.75 20.361071,20.361071 0 0 0 -1.25,-1.625 A 20.361071,20.361071 0 0 0 395.75,203 a 20.361071,20.361071 0 0 0 -1.25,-1.09375 20.361071,20.361071 0 0 0 -0.28125,-0.25 20.361071,20.361071 0 0 0 -0.53125,-0.40625 20.361071,20.361071 0 0 0 -0.5,-0.34375 A 20.361071,20.361071 0 0 0 392.21875,200.25 20.361071,20.361071 0 0 0 392,200.125 a 20.361071,20.361071 0 0 0 -0.28125,-0.15625 20.361071,20.361071 0 0 0 -1.53125,-0.78125 20.361071,20.361071 0 0 0 -1.78125,-0.75 20.361071,20.361071 0 0 0 -0.0937,-0.0312 20.361071,20.361071 0 0 0 -0.21875,-0.0625 L 388,198.3125 a 20.361071,20.361071 0 0 0 -1.875,-0.5625 l -9.84375,-2.25 -0.0937,-0.0312 L 319.75,182.25 a 20.361071,20.361071 0 0 0 -4.03125,-0.53125 z" />
  <path
     style="fill:#000000;fill-opacity:1;stroke:none"
     d="m 230.82858,404.203 -87.79094,114.46367 96.34088,0.43716 c 1.38862,22.8971 20.5922,41.24741 43.81894,41.24741 23.12276,0 42.25233,-18.18512 43.79323,-40.93883 l 62.29187,0.28287 -17.87127,-84.88394 z"
     id="path3822"
     inkscape:connector-curvature="0"
     sodipodi:nodetypes="cccscccc" />
  <path
     inkscape:connector-curvature="0"
     style="fill:#000000;fill-opacity:1;stroke:none"
     d="m 315.07573,202.16393 -42.55985,106.70729 -33.46747,84.72262 -8.26029,10.64469 140.60909,30.54121 -2.48229,-11.9646 6.11315,-98.0942 6.61363,-106.95658"
     id="path3822-6-4"
     sodipodi:nodetypes="cccccccc" />
  <path
     inkscape:connector-curvature="0"
     style="fill:#e80000;fill-opacity:1;stroke:none"
     d="m 274.70131,303.15973 -35.70334,90.44616 -22.05884,28.62171 159.03299,34.48261 -7.05627,-34.40087 6.10157,-97.55625"
     id="path3822-6"
     sodipodi:nodetypes="cccccc" />
  <path
     style="fill:none;stroke:#000000;stroke-width:25;stroke-linecap:butt;stroke-linejoin:miter;stroke-opacity:1;stroke-miterlimit:4;stroke-dasharray:none"
     d="m 99.923776,516.57012 355.381084,0"
     id="path3759"
     inkscape:connector-curvature="0" />
  <path
     sodipodi:type="arc"
     style="color:#000000;fill:#fefefe;fill-opacity:1;stroke:#000000;stroke-width:25;stroke-linecap:round;stroke-linejoin:round;stroke-miterlimit:10;stroke-opacity:1;stroke-dasharray:none;stroke-dashoffset:0;marker:none;visibility:visible;display:inline;overflow:visible;enable-background:accumulate"
     id="path3759-1"
     sodipodi:cx="210.27438"
     sodipodi:cy="76.036606"
     sodipodi:rx="40.838413"
     sodipodi:ry="40.838413"
     d="m 251.1128,76.036606 a 40.838413,40.838413 0 1 1 -81.67683,0 40.838413,40.838413 0 1 1 81.67683,0 z"
     transform="matrix(0.82289092,0,0,0.82289092,110.16458,453.8318)" />
  <path
     style="opacity:0.42608696;color:#000000;fill:#000000;fill-opacity:1;fill-rule:nonzero;stroke:#a35151;stroke-width:0;stroke-linecap:round;stroke-linejoin:miter;stroke-miterlimit:4;stroke-opacity:1;stroke-dashoffset:0;marker:none;visibility:visible;display:inline;overflow:visible;enable-background:accumulate"
     d="m 364.97783,213.87336 16.57991,3.80846 -12.67243,205.13272 17.30535,81.92852 -51.97636,-0.0558 -7.59779,-92.03467 z"
     id="rect3050"
     inkscape:connector-curvature="0"
     sodipodi:nodetypes="ccccccc" />
</svg>
