<?xml version="1.0" encoding="UTF-8" standalone="no"?>
<svg
   xmlns:dc="http://purl.org/dc/elements/1.1/"
   xmlns:cc="http://creativecommons.org/ns#"
   xmlns:rdf="http://www.w3.org/1999/02/22-rdf-syntax-ns#"
   xmlns:svg="http://www.w3.org/2000/svg"
   xmlns="http://www.w3.org/2000/svg"
   xmlns:sodipodi="http://sodipodi.sourceforge.net/DTD/sodipodi-0.dtd"
   xmlns:inkscape="http://www.inkscape.org/namespaces/inkscape"
   width="580"
   height="580"
   id="svg2"
   version="1.1"
   inkscape:version="0.48.4 r9939"
   sodipodi:docname="buoy_lateral_red_pillar.svg">
  <defs
     id="defs13">
    <inkscape:path-effect
       effect="gears"
       id="path-effect3774"
       is_visible="true"
       teeth="6"
       phi="-1.2" />
    <inkscape:path-effect
       effect="bend_path"
       id="path-effect3772"
       is_visible="false"
       bendpath="m 95.790098,316.51174 c 144.429032,-206.42506 223.313032,-11.7428 339.548092,0"
       prop_scale="1.19"
       scale_y_rel="false"
       vertical="false"
       bendpath-nodetypes="cc" />
  </defs>
  <sodipodi:namedview
     pagecolor="#ffffff"
     bordercolor="#666666"
     borderopacity="1"
     objecttolerance="10"
     gridtolerance="10"
     guidetolerance="10"
     inkscape:pageopacity="0"
     inkscape:pageshadow="2"
     inkscape:window-width="1280"
     inkscape:window-height="995"
     id="namedview11"
     showgrid="false"
     inkscape:zoom="0.8137931"
     inkscape:cx="337.94608"
     inkscape:cy="319.85102"
     inkscape:window-x="0"
     inkscape:window-y="0"
     inkscape:window-maximized="1"
     inkscape:current-layer="svg2" />
  <metadata
     id="metadata2975">image/svg+xmlen<rdf:RDF>
  <cc:Work
     rdf:about="">
    <dc:format>image/svg+xml</dc:format>
    <dc:type
       rdf:resource="http://purl.org/dc/dcmitype/StillImage" />
    <dc:title />
  </cc:Work>
</rdf:RDF>
</metadata>
  <path
     sodipodi:type="inkscape:offset"
     inkscape:radius="20.060169"
     inkscape:original="M 355.84375 99.75 C 324.86691 179.54106 270.98006 313.95679 239.53125 393.5625 L 231.3125 404.15625 L 231.25 404.21875 L 154.6875 504.03125 L 100.40625 504.03125 L 100.40625 529.03125 L 241.65625 529.03125 C 242.69434 532.44433 244.142 535.67562 245.9375 538.6875 C 245.949 538.708 245.95725 538.7296 245.96875 538.75 C 246.03175 538.85523 246.09244 538.95783 246.15625 539.0625 C 248.38493 542.9304 251.25413 546.41753 254.90625 549.40625 C 262.56417 556.09283 272.50248 560.21068 283.375 560.28125 C 283.4697 560.29355 283.56116 560.3005 283.65625 560.3125 C 283.87869 560.2992 284.09202 560.2652 284.3125 560.25 C 289.61152 560.1708 294.70821 559.1348 299.40625 557.3125 C 299.85028 557.1549 300.28642 556.98139 300.71875 556.8125 C 300.74885 556.7997 300.7825 556.79405 300.8125 556.78125 C 307.84386 554.01647 313.30779 549.75253 317.5 544.25 C 317.60356 544.12469 317.7103 544.00146 317.8125 543.875 C 317.8518 543.8221 317.8985 543.77184 317.9375 543.71875 C 321.38824 539.40907 324.04635 534.42709 325.6875 529.03125 L 455.78125 529.03125 L 455.78125 504.03125 L 387.53125 504.03125 L 369.53125 423.5625 L 369.375 422.78125 C 369.54769 419.63844 369.75437 415.91685 369.9375 412.625 L 388.09375 107.46875 L 388 107.4375 L 355.84375 99.75 z "
     style="opacity:0.42608696;color:#000000;fill:#acd8f3;fill-opacity:1;fill-rule:nonzero;stroke:#a35151;stroke-width:0;stroke-linecap:round;stroke-linejoin:miter;stroke-miterlimit:4;stroke-opacity:1;stroke-dasharray:none;stroke-dashoffset:0;marker:none;visibility:visible;display:inline;overflow:visible;enable-background:accumulate"
     id="path3032"
     d="M 356.53125,79.6875 A 20.062175,20.062175 0 0 0 337.15625,92.5 c -30.61152,78.85007 -83.64769,211.10289 -115.25,291.0625 l -6.0625,7.84375 a 20.062175,20.062175 0 0 0 -0.125,0.125 l -0.25,0.34375 a 20.062175,20.062175 0 0 0 -0.125,0.125 l -70.53125,91.96875 -44.40625,0 a 20.062175,20.062175 0 0 0 -20.0625,20.0625 l 0,25 a 20.062175,20.062175 0 0 0 20.0625,20.0625 l 128.375,0 c 0.0347,0.0584 0.10888,0.17476 0.25,0.40625 l 0.0312,-0.0312 c 3.21841,5.47918 7.42675,10.68469 12.65625,15.0625 0.0282,0.0246 0.0655,0.0379 0.0937,0.0625 0.13144,0.10959 0.24233,0.23518 0.375,0.34375 l 0.0312,-0.0312 c 10.50616,8.99513 24.11935,14.72003 38.9375,15.3125 0.17799,0.007 0.35292,0.0256 0.53125,0.0312 a 20.062175,20.062175 0 0 0 3.15625,0.0937 c 1.49289,-0.0893 1.78521,-0.15865 0.84375,-0.0937 7.13645,-0.22693 14.00816,-1.67919 20.40625,-4.09375 l 0.0312,0.0625 c 0.25811,-0.0916 0.31806,-0.13915 0.53125,-0.21875 0.54311,-0.20278 1.12075,-0.40068 1.375,-0.5 a 20.062175,20.062175 0 0 0 0.125,-0.0625 20.062175,20.062175 0 0 0 0.40625,-0.15625 c -2.96831,1.26227 -2.92534,1.23898 0.125,-0.0625 l 0,-0.0312 c 9.77675,-3.95855 18.14272,-10.40159 24.25,-18.1875 l 0.0312,0.0312 c -0.0827,0.1001 0.0839,-0.14281 0.375,-0.5 0.0409,-0.0501 0.0145,-0.003 0.0625,-0.0625 a 20.062175,20.062175 0 0 0 0.0625,-0.0625 20.062175,20.062175 0 0 0 0.125,-0.15625 20.062175,20.062175 0 0 0 0.125,-0.1875 c 0.0595,-0.0748 0.12834,-0.14365 0.1875,-0.21875 -0.8701,1.17121 -0.79871,1.09251 0.1875,-0.25 1.60799,-2.06186 3.05648,-4.24781 4.40625,-6.5 l 117.28125,0 a 20.062175,20.062175 0 0 0 20.0625,-20.0625 l 0,-25 a 20.062175,20.062175 0 0 0 -20.0625,-20.0625 l -52.1875,0 L 389.5625,421.25 c 0.1367,-2.47453 0.27158,-5.01675 0.40625,-7.4375 0.001,-0.0203 -0.001,-0.0423 0,-0.0625 L 408.125,108.65625 A 20.062175,20.062175 0 0 0 394.4375,88.4375 l -0.0937,-0.03125 a 20.062175,20.062175 0 0 0 -1.6875,-0.46875 L 360.5,80.25 a 20.062175,20.062175 0 0 0 -3.96875,-0.5625 z" />
  <path
     style="color:#000000;fill:#e80000;fill-opacity:1;fill-rule:nonzero;stroke:none;marker:none;visibility:visible;display:inline;overflow:visible;enable-background:accumulate"
     d="M 355.37272,99.790398 C 324.39588,179.58145 270.51131,313.98804 239.0625,393.59375 l -8.21875,10.59375 -0.0625,0.0625 -87.75,114.40625 96.34375,0.4375 c 2.85677,21.00574 13.23986,37.36288 43.8125,41.25 27.07515,-1.62024 39.63698,-17.23547 43.8125,-40.9375 l 62.28125,0.28125 -20.375,-96.875 c 4.71865,-85.87361 13.47451,-229.4965 18.63186,-315.34451 z"
     id="path3822"
     inkscape:connector-curvature="0"
     sodipodi:nodetypes="cccccccccccc" />
  <path
     style="fill:none;stroke:#000000;stroke-width:25;stroke-linecap:butt;stroke-linejoin:miter;stroke-opacity:1;stroke-miterlimit:4;stroke-dasharray:none"
     d="m 99.923776,516.57012 355.381084,0"
     id="path3759"
     inkscape:connector-curvature="0" />
  <path
     sodipodi:type="arc"
     style="color:#000000;fill:#fefefe;fill-opacity:1;stroke:#000000;stroke-width:25;stroke-linecap:round;stroke-linejoin:round;stroke-miterlimit:10;stroke-opacity:1;stroke-dasharray:none;stroke-dashoffset:0;marker:none;visibility:visible;display:inline;overflow:visible;enable-background:accumulate"
     id="path3759-1"
     sodipodi:cx="210.27438"
     sodipodi:cy="76.036606"
     sodipodi:rx="40.838413"
     sodipodi:ry="40.838413"
     d="m 251.1128,76.036606 a 40.838413,40.838413 0 1 1 -81.67683,0 40.838413,40.838413 0 1 1 81.67683,0 z"
     transform="matrix(0.82289092,0,0,0.82289092,110.16458,453.8318)" />
  <path
     style="opacity:0.42608696;color:#000000;fill:#000000;fill-opacity:1;fill-rule:nonzero;stroke:#a35151;stroke-width:0;stroke-linecap:round;stroke-linejoin:miter;stroke-miterlimit:4;stroke-opacity:1;stroke-dashoffset:0;marker:none;visibility:visible;display:inline;overflow:visible;enable-background:accumulate"
     d="m 375.06334,104.56293 12.57012,2.92662 -18.76991,315.21368 18.26489,81.62677 -51.36234,-0.3762 -11.14154,-91.29302 z"
     id="rect3050"
     inkscape:connector-curvature="0"
     sodipodi:nodetypes="ccccccc" />
</svg>
