<svg width="580" height="580" viewBox="0 0 580 580" fill="none" xmlns="http://www.w3.org/2000/svg">
<g clip-path="url(#clip0)">
<path opacity="0.426087" d="M286.219 156.438C281.675 156.421 277.26 157.954 273.704 160.783C270.148 163.612 267.662 167.569 266.656 172L196.344 484.063H100.031C97.4043 484.061 94.8028 484.577 92.3755 485.581C89.9482 486.586 87.7428 488.059 85.8852 489.917C84.0277 491.774 82.5546 493.98 81.5501 496.407C80.5456 498.834 80.0295 501.436 80.0313 504.063V529.063C80.0295 531.69 80.5456 534.291 81.5501 536.718C82.5546 539.146 84.0277 541.351 85.8852 543.209C87.7428 545.066 89.9482 546.539 92.3755 547.544C94.8028 548.548 97.4043 549.064 100.031 549.063H228.688C239.909 567.706 260.178 580.281 283.312 580.281C297.627 580.281 310.982 575.374 321.625 567.344L321.656 567.375C321.735 567.318 321.796 567.245 321.875 567.188C321.953 567.128 322.047 567.091 322.125 567.031L322.094 567C328.736 562.095 334.029 555.886 338.062 549.063H455.406C458.033 549.064 460.635 548.548 463.062 547.544C465.489 546.539 467.695 545.066 469.552 543.209C471.41 541.351 472.883 539.146 473.887 536.718C474.892 534.291 475.408 531.69 475.406 529.063V504.063C475.408 501.436 474.892 498.834 473.887 496.407C472.883 493.98 471.41 491.774 469.552 489.917C467.695 488.059 465.489 486.586 463.062 485.581C460.635 484.577 458.033 484.061 455.406 484.063H377.719L399.219 380.969L435.531 207.281C436.068 204.708 436.092 202.054 435.601 199.472C435.111 196.889 434.116 194.429 432.673 192.231C431.231 190.034 429.369 188.143 427.194 186.666C425.019 185.189 422.575 184.156 420 183.625L389.594 177.344H389.531L383.75 176.125C383.729 176.125 383.708 176.125 383.688 176.125L290.188 156.844C288.881 156.576 287.552 156.44 286.219 156.438V156.438Z" fill="#ACD8F3"/>
<path d="M415.888 203.186L286.06 176.424L210.504 511.86L241.295 519.601C244.533 540.551 253.061 556.563 283.7 559.894C310.741 557.781 324.092 542.094 327.836 518.32L352.786 505.083L415.888 203.186Z" fill="#E80000"/>
<path opacity="0.426087" d="M379.566 195.697L415.796 203.215L352.891 504.666L315.141 505.521L379.566 195.697Z" fill="black"/>
<path d="M99.9238 516.57H455.305" stroke="black" stroke-width="25"/>
<path d="M316.803 516.401C316.803 525.314 313.262 533.862 306.96 540.164C300.658 546.466 292.11 550.007 283.197 550.007C274.285 550.007 265.737 546.466 259.435 540.164C253.132 533.862 249.592 525.314 249.592 516.401C249.592 507.489 253.132 498.941 259.435 492.639C265.737 486.336 274.285 482.796 283.197 482.796C292.11 482.796 300.658 486.336 306.96 492.639C313.262 498.941 316.803 507.489 316.803 516.401V516.401Z" fill="#FEFEFE" stroke="black" stroke-width="20.5723" stroke-miterlimit="10" stroke-linecap="round" stroke-linejoin="round"/>
<path d="M364.824 110.853L269.718 519.775L293.339 525.199L378.918 114.105L364.824 110.853Z" fill="black"/>
</g>
<defs>
<clipPath id="clip0">
<path d="M0 0H580V580H0V0Z" fill="white"/>
</clipPath>
</defs>
</svg>
