<?xml version="1.0" encoding="UTF-8" standalone="no"?>
<svg
   xmlns:dc="http://purl.org/dc/elements/1.1/"
   xmlns:cc="http://creativecommons.org/ns#"
   xmlns:rdf="http://www.w3.org/1999/02/22-rdf-syntax-ns#"
   xmlns:svg="http://www.w3.org/2000/svg"
   xmlns="http://www.w3.org/2000/svg"
   xmlns:sodipodi="http://sodipodi.sourceforge.net/DTD/sodipodi-0.dtd"
   xmlns:inkscape="http://www.inkscape.org/namespaces/inkscape"
   width="580"
   height="580"
   id="svg2"
   version="1.1"
   inkscape:version="0.48.4 r9939"
   sodipodi:docname="buoy_lateral_red_pillar_tmxshape.svg">
  <defs
     id="defs13">
    <inkscape:path-effect
       effect="gears"
       id="path-effect3774"
       is_visible="true"
       teeth="6"
       phi="-1.2" />
    <inkscape:path-effect
       effect="bend_path"
       id="path-effect3772"
       is_visible="false"
       bendpath="m 95.790098,316.51174 c 144.429032,-206.42506 223.313032,-11.7428 339.548092,0"
       prop_scale="1.19"
       scale_y_rel="false"
       vertical="false"
       bendpath-nodetypes="cc" />
  </defs>
  <sodipodi:namedview
     pagecolor="#ffffff"
     bordercolor="#666666"
     borderopacity="1"
     objecttolerance="10"
     gridtolerance="10"
     guidetolerance="10"
     inkscape:pageopacity="0"
     inkscape:pageshadow="2"
     inkscape:window-width="1280"
     inkscape:window-height="995"
     id="namedview11"
     showgrid="false"
     inkscape:zoom="0.57543862"
     inkscape:cx="201.6355"
     inkscape:cy="401.71244"
     inkscape:window-x="0"
     inkscape:window-y="0"
     inkscape:window-maximized="1"
     inkscape:current-layer="svg2" />
  <metadata
     id="metadata2975">image/svg+xmlen<rdf:RDF>
  <cc:Work
     rdf:about="">
    <dc:format>image/svg+xml</dc:format>
    <dc:type
       rdf:resource="http://purl.org/dc/dcmitype/StillImage" />
    <dc:title></dc:title>
  </cc:Work>
</rdf:RDF>
</metadata>
  <path
     sodipodi:type="inkscape:offset"
     inkscape:radius="20.060169"
     inkscape:original="M 312.53125 113.53125 L 292.875 129 L 336.46875 184.4375 L 274.59375 216.5 L 286.09375 238.71875 L 343.46875 208.96875 L 332.625 259.375 C 301.065 275.97662 180.09735 348.74285 146.0625 504.25 L 100.0625 504.25 L 100.0625 529.25 L 241.34375 529.25 C 242.35745 532.58168 243.7632 535.73689 245.5 538.6875 C 245.5519 538.7813 245.60355 538.87537 245.65625 538.96875 C 245.71845 539.07263 245.78075 539.17792 245.84375 539.28125 C 247.89975 542.84881 250.46185 546.08044 253.71875 548.90625 C 253.76745 548.95095 253.8261 548.98675 253.875 549.03125 C 253.9352 549.08295 254.0018 549.13605 254.0625 549.1875 C 261.7182 556.07386 271.78295 560.29651 282.78125 560.4375 C 282.96305 560.4617 283.1293 560.50795 283.3125 560.53125 C 283.7566 560.50465 284.1886 560.4715 284.625 560.4375 C 289.6974 560.28953 294.5504 559.28099 299.0625 557.53125 C 306.7754 554.79367 312.7195 550.30404 317.1875 544.4375 C 317.292 544.31108 317.3969 544.19009 317.5 544.0625 C 317.5933 543.93677 317.68915 543.8145 317.78125 543.6875 C 321.14715 539.42965 323.72995 534.55374 325.34375 529.25 L 455.4375 529.25 L 455.4375 504.25 L 403.5 504.25 C 403.7283 502.13895 403.9245 500.04936 404.125 497.96875 C 407.084 473.25974 407.79985 442.67545 404.53125 410.9375 C 404.50735 410.69454 404.4619 410.46107 404.4375 410.21875 C 404.3233 409.1285 404.21755 408.03017 404.09375 406.9375 C 402.26035 390.16379 399.47045 374.92976 396.03125 361.1875 C 387.78255 327.65106 374.2244 295.45162 353.5 270 C 350.992 266.82917 348.76505 264.25743 346.84375 262.15625 L 357.71875 211.46875 L 398.4375 263.25 L 418.09375 247.78125 L 374.8125 192.71875 L 436.625 160.6875 L 425.125 138.46875 L 359.0625 172.71875 L 312.53125 113.53125 z "
     style="font-size:medium;font-style:normal;font-variant:normal;font-weight:normal;font-stretch:normal;text-indent:0;text-align:start;text-decoration:none;line-height:normal;letter-spacing:normal;word-spacing:normal;text-transform:none;direction:ltr;block-progression:tb;writing-mode:lr-tb;text-anchor:start;baseline-shift:baseline;opacity:0.42608696;color:#000000;fill:#acd8f3;fill-opacity:1;fill-rule:nonzero;stroke:#a35151;stroke-width:0;stroke-linecap:round;stroke-linejoin:miter;stroke-miterlimit:4;stroke-opacity:1;stroke-dasharray:none;stroke-dashoffset:0;marker:none;visibility:visible;display:inline;overflow:visible;enable-background:accumulate;font-family:Sans;-inkscape-font-specification:Sans"
     id="path3975"
     d="m 312.625,93.46875 a 20.062175,20.062175 0 0 0 -12.5,4.3125 L 280.46875,113.25 a 20.062175,20.062175 0 0 0 -3.375,28.15625 l 28.625,36.375 -40.34375,20.90625 a 20.062175,20.062175 0 0 0 -8.59375,27.03125 l 11.5,22.21875 a 20.062175,20.062175 0 0 0 27.03125,8.59375 L 314.875,246.375 c -40.78883,23.00141 -146.93727,94.61978 -184.59375,237.8125 l -30.21875,0 A 20.062175,20.062175 0 0 0 80,504.25 l 0,25 a 20.062175,20.062175 0 0 0 20.0625,20.0625 l 128.40625,0 c 0.0334,0.0561 0.10688,0.17152 0.25,0.40625 l 0.0312,0 c 2.92246,4.9768 6.7255,9.76331 11.4375,13.9375 l -0.0312,0.0312 c 2.02874,1.86211 2.11413,1.91234 0.21875,0.1875 a 20.062175,20.062175 0 0 0 0.1875,0.1875 20.062175,20.062175 0 0 0 0.0937,0.0312 20.062175,20.062175 0 0 0 0.15625,0.15625 c 0.45752,0.39292 0.54828,0.47634 0.28125,0.25 l 0.0312,-0.0625 c 10.5928,9.35449 24.39118,15.26489 39.375,15.9375 0.19812,0.032 -0.56896,-0.0456 0.28125,0.0625 a 20.062175,20.062175 0 0 0 3.71875,0.125 c 0.28223,-0.0169 0.4746,-0.0451 0.71875,-0.0625 0.32852,-0.0234 0.70956,-0.0423 0.96875,-0.0625 l 0,-0.0625 c 6.80647,-0.30387 13.40236,-1.67649 19.5625,-4 l 0.0312,0.0625 c 0.15145,-0.0538 0.28665,-0.13259 0.4375,-0.1875 0.0312,-0.0113 0.0626,-0.0199 0.0937,-0.0312 10.66567,-3.90262 19.7758,-10.69577 26.3125,-19.03125 l 0.0312,0.0312 c -0.08,0.0968 0.0852,-0.14435 0.375,-0.5 0.0407,-0.0499 0.0148,-0.004 0.0625,-0.0625 a 20.062175,20.062175 0 0 0 0.0625,-0.0625 20.062175,20.062175 0 0 0 0.375,-0.46875 20.062175,20.062175 0 0 0 0.0625,-0.0937 c -0.0143,0.0192 0.0689,-0.0715 0.0625,-0.0625 -0.0457,0.0641 0.0391,-0.0369 0.375,-0.5 l -0.0312,0 c 1.50752,-1.95714 2.8478,-4.02787 4.125,-6.15625 l 117.3125,0 A 20.062175,20.062175 0 0 0 475.5,529.25 l 0,-25 a 20.062175,20.062175 0 0 0 -20.0625,-20.0625 l -29.90625,0 c 1.71701,-22.74471 1.72245,-48.4213 -1.03125,-75.21875 -0.0177,-0.18004 0.0148,0.0496 0,-0.0937 -0.10525,-1.02156 -0.17767,-1.48968 -0.0937,-0.65625 a 20.062175,20.062175 0 0 0 -0.0312,-0.0937 c -0.10061,-0.96046 -0.19857,-2.08736 -0.34375,-3.375 -0.002,-0.0213 0.002,-0.0412 0,-0.0625 -1.92981,-17.62966 -4.86911,-33.74193 -8.53125,-48.375 l -0.0312,0 c -7.32189,-29.73269 -18.6667,-58.94161 -35.75,-84.40625 l 2.9375,3.75 A 20.062175,20.062175 0 0 0 410.84375,279 L 430.5,263.53125 a 20.062175,20.062175 0 0 0 3.375,-28.15625 l -28.3125,-36 40.28125,-20.875 a 20.062175,20.062175 0 0 0 8.59375,-27.03125 l -11.5,-22.21875 a 20.062175,20.062175 0 0 0 -27.03125,-8.59375 L 364.59375,147.25 328.3125,101.125 A 20.062175,20.062175 0 0 0 312.625,93.46875 z" />
  <path
     style="font-size:medium;font-style:normal;font-variant:normal;font-weight:normal;font-stretch:normal;text-indent:0;text-align:start;text-decoration:none;line-height:normal;letter-spacing:normal;word-spacing:normal;text-transform:none;direction:ltr;block-progression:tb;writing-mode:lr-tb;text-anchor:start;baseline-shift:baseline;color:#000000;fill:#000000;fill-opacity:1;stroke:#a35151;stroke-width:0;stroke-linecap:round;stroke-linejoin:miter;stroke-miterlimit:4;stroke-opacity:1;stroke-dasharray:none;marker:none;visibility:visible;display:inline;overflow:visible;enable-background:accumulate;font-family:Sans;-inkscape-font-specification:Sans"
     d="m 349.48908,180.04764 -72.94884,339.84456 14.06339,3.25235 72.97895,-339.84456 z"
     id="path3761"
     inkscape:connector-curvature="0"
     sodipodi:nodetypes="ccccc" />
  <path
     style="color:#000000;fill:#d63000;fill-opacity:1;fill-rule:nonzero;stroke:none;marker:none;visibility:visible;display:inline;overflow:visible;enable-background:accumulate"
     d="m 340.10823,255.38796 c 0,0 -163.31458,73.09349 -197.07698,263.26829 l 96.34375,0.4375 c 2.85677,21.00574 13.23986,37.36288 43.8125,41.25 27.07515,-1.62024 39.63698,-17.23547 43.8125,-40.9375 l 74.44588,0.28125 C 427.56637,328.61497 340.10823,255.38796 340.10823,255.38796 z"
     id="path3822"
     inkscape:connector-curvature="0"
     sodipodi:nodetypes="ccccccc" />
  <path
     style="fill:none;stroke:#000000;stroke-width:25;stroke-linecap:butt;stroke-linejoin:miter;stroke-opacity:1;stroke-miterlimit:4;stroke-dasharray:none"
     d="m 99.923776,516.57012 355.381084,0"
     id="path3759"
     inkscape:connector-curvature="0" />
  <path
     sodipodi:type="arc"
     style="color:#000000;fill:#fefefe;fill-opacity:1;stroke:#000000;stroke-width:25;stroke-linecap:round;stroke-linejoin:round;stroke-miterlimit:10;stroke-opacity:1;stroke-dasharray:none;stroke-dashoffset:0;marker:none;visibility:visible;display:inline;overflow:visible;enable-background:accumulate"
     id="path3759-1"
     sodipodi:cx="210.27438"
     sodipodi:cy="76.036606"
     sodipodi:rx="40.838413"
     sodipodi:ry="40.838413"
     d="m 251.1128,76.036606 a 40.838413,40.838413 0 1 1 -81.67683,0 40.838413,40.838413 0 1 1 81.67683,0 z"
     transform="matrix(0.82289092,0,0,0.82289092,110.16458,453.8318)" />
  <path
     style="opacity:0.42608696;color:#000000;fill:#000000;fill-opacity:1;fill-rule:nonzero;stroke:#a35151;stroke-width:0;stroke-linecap:round;stroke-linejoin:miter;stroke-miterlimit:4;stroke-opacity:1;stroke-dashoffset:0;marker:none;visibility:visible;display:inline;overflow:visible;enable-background:accumulate"
     d="m 340.08584,255.45512 c 37.80915,36.05938 56.39592,92.09738 63.25065,146.05919 4.80761,37.84655 3.78902,74.727 -0.17946,102.74028 l -53.80679,3.77972 c 5.93533,-99.87951 7.7492,-149.37078 -9.2644,-252.57919 z"
     id="rect3050"
     inkscape:connector-curvature="0"
     sodipodi:nodetypes="csccc" />
  <path
     style="fill:none;stroke:#d63000;stroke-width:30;stroke-linecap:butt;stroke-linejoin:miter;stroke-miterlimit:4;stroke-opacity:1;stroke-dasharray:none"
     d="M 302.55799,121.08854 408.12964,255.33395"
     id="path3792"
     inkscape:connector-curvature="0" />
  <path
     style="color:#000000;fill:none;stroke:#d63000;stroke-width:30;stroke-linecap:butt;stroke-linejoin:miter;stroke-miterlimit:4;stroke-opacity:1;stroke-dasharray:none;stroke-dashoffset:0;marker:none;visibility:visible;display:inline;overflow:visible;enable-background:accumulate"
     d="M 280.20567,227.42222 430.73533,149.39256"
     id="path3794"
     inkscape:connector-curvature="0" />
</svg>
