<?xml version="1.0" encoding="UTF-8" standalone="no"?>
<svg
   xmlns:dc="http://purl.org/dc/elements/1.1/"
   xmlns:cc="http://creativecommons.org/ns#"
   xmlns:rdf="http://www.w3.org/1999/02/22-rdf-syntax-ns#"
   xmlns:svg="http://www.w3.org/2000/svg"
   xmlns="http://www.w3.org/2000/svg"
   xmlns:sodipodi="http://sodipodi.sourceforge.net/DTD/sodipodi-0.dtd"
   xmlns:inkscape="http://www.inkscape.org/namespaces/inkscape"
   width="580"
   height="580"
   id="svg2"
   version="1.1"
   inkscape:version="0.48.4 r9939"
   sodipodi:docname="buoy_lateral_red_spar_tmconeup.svg">
  <defs
     id="defs13">
    <inkscape:path-effect
       effect="gears"
       id="path-effect3774"
       is_visible="true"
       teeth="6"
       phi="-1.2" />
    <inkscape:path-effect
       effect="bend_path"
       id="path-effect3772"
       is_visible="false"
       bendpath="m 95.790098,316.51174 c 144.429032,-206.42506 223.313032,-11.7428 339.548092,0"
       prop_scale="1.19"
       scale_y_rel="false"
       vertical="false"
       bendpath-nodetypes="cc" />
  </defs>
  <sodipodi:namedview
     pagecolor="#ffffff"
     bordercolor="#666666"
     borderopacity="1"
     objecttolerance="10"
     gridtolerance="10"
     guidetolerance="10"
     inkscape:pageopacity="0"
     inkscape:pageshadow="2"
     inkscape:window-width="1280"
     inkscape:window-height="995"
     id="namedview11"
     showgrid="false"
     inkscape:zoom="0.57543862"
     inkscape:cx="284.79095"
     inkscape:cy="265.28248"
     inkscape:window-x="0"
     inkscape:window-y="0"
     inkscape:window-maximized="1"
     inkscape:current-layer="svg2" />
  <metadata
     id="metadata2975">image/svg+xmlen<rdf:RDF>
  <cc:Work
     rdf:about="">
    <dc:format>image/svg+xml</dc:format>
    <dc:type
       rdf:resource="http://purl.org/dc/dcmitype/StillImage" />
    <dc:title></dc:title>
  </cc:Work>
</rdf:RDF>
</metadata>
  <path
     sodipodi:type="inkscape:offset"
     inkscape:radius="19.644171"
     inkscape:original="M 344.9375 33.90625 L 323.21875 132.9375 L 356.1875 140.4375 L 340.78125 208.5625 L 281.71875 196.40625 L 212.28125 504.5 L 100.25 504.5 L 100.25 529.5 L 241.5 529.5 C 246.9567 547.44086 263.6856 560.65229 283.3125 560.75 C 283.4181 560.7618 283.5189 560.76975 283.625 560.78125 C 283.8155 560.76635 283.9983 560.73495 284.1875 560.71875 C 291.7717 560.60535 298.88665 558.53797 305.09375 555 C 311.78005 551.43765 316.90155 546.38633 320.65625 540.09375 C 322.72305 536.81746 324.38335 533.27436 325.53125 529.5 L 455.625 529.5 L 455.625 504.5 L 353.03125 504.5 L 411.5625 223.15625 L 358.25 212.1875 L 373.59375 144.40625 L 402.28125 150.9375 L 424.03125 51.90625 L 344.9375 33.90625 z "
     style="font-size:medium;font-style:normal;font-variant:normal;font-weight:normal;font-stretch:normal;text-indent:0;text-align:start;text-decoration:none;line-height:normal;letter-spacing:normal;word-spacing:normal;text-transform:none;direction:ltr;block-progression:tb;writing-mode:lr-tb;text-anchor:start;baseline-shift:baseline;opacity:0.42608696;color:#000000;fill:#acd8f3;fill-opacity:1;fill-rule:nonzero;stroke:#a35151;stroke-width:0;stroke-linecap:round;stroke-linejoin:miter;stroke-miterlimit:4;stroke-opacity:1;stroke-dasharray:none;stroke-dashoffset:0;marker:none;visibility:visible;display:inline;overflow:visible;enable-background:accumulate;font-family:Sans;-inkscape-font-specification:Sans"
     id="path4798"
     d="M 345.40625,14.28125 A 19.646135,19.646135 0 0 0 325.75,29.6875 l -21.71875,99.03125 a 19.646135,19.646135 0 0 0 14.84375,23.375 l 13.8125,3.15625 -6.8125,30.1875 -40.1875,-8.28125 a 19.646135,19.646135 0 0 0 -23.125,14.9375 l -65.96875,292.75 -96.34375,0 A 19.646135,19.646135 0 0 0 80.59375,504.5 l 0,25 A 19.646135,19.646135 0 0 0 100.25,549.15625 l 128.84375,0 c 10.73867,17.98306 29.94194,30.217 52.03125,31.0625 l 0,0.0625 c 0.50897,0.0569 0.6298,0.0589 0.375,0.0312 a 19.646135,19.646135 0 0 0 1.71875,0.0937 19.646135,19.646135 0 0 0 1.9375,-0.0312 c 1.3555,-0.10602 1.60772,-0.16987 0.71875,-0.0937 l 0,-0.0312 c 10.25025,-0.38511 19.97995,-3.21517 28.4375,-7.9375 l 0.0312,0.0312 c 0.1287,-0.0686 0.24694,-0.14927 0.375,-0.21875 0.0332,-0.018 0.0605,-0.0444 0.0937,-0.0625 9.44031,-5.14554 17.12218,-12.75624 22.4375,-21.5 l 0.0312,0 c 0.0443,-0.0703 0.0809,-0.14825 0.125,-0.21875 0.0385,-0.0639 0.0868,-0.12343 0.125,-0.1875 l -0.0312,0 c 0.19995,-0.32191 0.36757,-0.67362 0.5625,-1 l 117.5625,0 A 19.646135,19.646135 0 0 0 475.28125,529.5 l 0,-25 A 19.646135,19.646135 0 0 0 455.625,484.84375 l -78.46875,0 53.625,-257.6875 a 19.646135,19.646135 0 0 0 -15.25,-23.25 l -33.6875,-6.9375 6.5625,-29.03125 9.5,2.15625 a 19.646135,19.646135 0 0 0 23.5625,-14.9375 l 21.75,-99.03125 A 19.646135,19.646135 0 0 0 428.375,32.75 l -79.09375,-18 a 19.646135,19.646135 0 0 0 -3.875,-0.46875 z" />
  <path
     style="font-size:medium;font-style:normal;font-variant:normal;font-weight:normal;font-stretch:normal;text-indent:0;text-align:start;text-decoration:none;line-height:normal;letter-spacing:normal;word-spacing:normal;text-transform:none;direction:ltr;block-progression:tb;writing-mode:lr-tb;text-anchor:start;baseline-shift:baseline;color:#000000;fill:#000000;fill-opacity:1;stroke:#a35151;stroke-width:0;stroke-linecap:round;stroke-linejoin:miter;stroke-miterlimit:4;stroke-opacity:1;stroke-dasharray:none;marker:none;visibility:visible;display:inline;overflow:visible;enable-background:accumulate;font-family:Sans;-inkscape-font-specification:Sans"
     d="m 368.49203,84.292036 -98.24494,434.116854 17.32177,4.12125 98.27505,-434.116854 z"
     id="path3761"
     inkscape:connector-curvature="0"
     sodipodi:nodetypes="ccccc" />
  <path
     style="opacity:1;color:#000000;fill:#e80000;fill-opacity:1;fill-rule:nonzero;stroke:none;marker:none;visibility:visible;display:inline;overflow:visible;enable-background:accumulate;stroke-width:0"
     d="m 411.23488,222.72241 -129.82798,-26.7617 -71.29179,316.35874 30.7911,7.74094 c 3.23822,20.95032 11.76658,36.96237 42.40484,40.29298 27.04122,-2.11225 40.39227,-17.7997 44.13615,-41.57373 l 24.9504,-13.237 z"
     id="path3822"
     inkscape:connector-curvature="0"
     sodipodi:nodetypes="cccccccc" />
  <path
     style="fill:none;stroke:#000000;stroke-width:25;stroke-linecap:butt;stroke-linejoin:miter;stroke-opacity:1;stroke-miterlimit:4;stroke-dasharray:none"
     d="m 99.923776,516.57012 355.381084,0"
     id="path3759"
     inkscape:connector-curvature="0" />
  <path
     sodipodi:type="arc"
     style="color:#000000;fill:#fefefe;fill-opacity:1;stroke:#000000;stroke-width:25;stroke-linecap:round;stroke-linejoin:round;stroke-miterlimit:10;stroke-opacity:1;stroke-dasharray:none;stroke-dashoffset:0;marker:none;visibility:visible;display:inline;overflow:visible;enable-background:accumulate"
     id="path3759-1"
     sodipodi:cx="210.27438"
     sodipodi:cy="76.036606"
     sodipodi:rx="40.838413"
     sodipodi:ry="40.838413"
     d="m 251.1128,76.036606 a 40.838413,40.838413 0 1 1 -81.67683,0 40.838413,40.838413 0 1 1 81.67683,0 z"
     transform="matrix(0.82289092,0,0,0.82289092,110.16458,453.8318)" />
  <path
     style="opacity:0.42608696;color:#000000;fill:#000000;fill-opacity:1;fill-rule:nonzero;stroke:#a35151;stroke-width:0;stroke-linecap:round;stroke-linejoin:miter;stroke-miterlimit:4;stroke-opacity:1;stroke-dashoffset:0;marker:none;visibility:visible;display:inline;overflow:visible;enable-background:accumulate"
     d="m 374.95783,215.23337 36.2299,7.51844 -58.68519,282.37435 -37.74995,0.85485 z"
     id="rect3050"
     inkscape:connector-curvature="0"
     sodipodi:nodetypes="ccccc" />
  <path
     style="color:#000000;fill:#e80000;fill-opacity:1;fill-rule:nonzero;stroke:none;stroke-width:0;marker:none;visibility:visible;display:inline;overflow:visible;enable-background:accumulate"
     d="M 344.63291,33.457321 423.71746,51.462948 401.97673,150.5048 322.8922,132.49916 z"
     id="rect4026"
     inkscape:connector-curvature="0"
     sodipodi:nodetypes="ccccc" />
</svg>
