<?xml version="1.0" encoding="UTF-8" standalone="no"?>
<svg
   xmlns:dc="http://purl.org/dc/elements/1.1/"
   xmlns:cc="http://creativecommons.org/ns#"
   xmlns:rdf="http://www.w3.org/1999/02/22-rdf-syntax-ns#"
   xmlns:svg="http://www.w3.org/2000/svg"
   xmlns="http://www.w3.org/2000/svg"
   xmlns:sodipodi="http://sodipodi.sourceforge.net/DTD/sodipodi-0.dtd"
   xmlns:inkscape="http://www.inkscape.org/namespaces/inkscape"
   width="580"
   height="580"
   id="svg2"
   version="1.1"
   inkscape:version="0.92.3 (2405546, 2018-03-11)"
   sodipodi:docname="buoy_greenred_spherical_horizontal.svg">
  <defs
     id="defs13">
    <inkscape:path-effect
       effect="gears"
       id="path-effect3774"
       is_visible="true"
       teeth="6"
       phi="-1.2" />
    <inkscape:path-effect
       effect="bend_path"
       id="path-effect3772"
       is_visible="false"
       bendpath="m 95.790098,316.51174 c 144.429032,-206.42506 223.313032,-11.7428 339.548092,0"
       prop_scale="1.19"
       scale_y_rel="false"
       vertical="false"
       bendpath-nodetypes="cc" />
  </defs>
  <sodipodi:namedview
     pagecolor="#ffffff"
     bordercolor="#666666"
     borderopacity="1"
     objecttolerance="10"
     gridtolerance="10"
     guidetolerance="10"
     inkscape:pageopacity="0"
     inkscape:pageshadow="2"
     inkscape:window-width="1920"
     inkscape:window-height="1006"
     id="namedview11"
     showgrid="false"
     inkscape:zoom="1.6275862"
     inkscape:cx="253.76266"
     inkscape:cy="136.86583"
     inkscape:window-x="1920"
     inkscape:window-y="0"
     inkscape:window-maximized="1"
     inkscape:current-layer="svg2" />
  <metadata
     id="metadata2975">image/svg+xmlen<rdf:RDF>
  <cc:Work
     rdf:about="">
    <dc:format>image/svg+xml</dc:format>
    <dc:type
       rdf:resource="http://purl.org/dc/dcmitype/StillImage" />
    <dc:title />
  </cc:Work>
</rdf:RDF>
</metadata>
  <path
     sodipodi:type="inkscape:offset"
     inkscape:radius="19.59132"
     inkscape:original="M 283.78125 315.75 C 201.04149 315.75 133.96875 382.82274 133.96875 465.5625 C 133.96875 478.72663 134.37362 491.93093 136.71875 504.03125 L 100.34375 504.03125 L 100.34375 529.03125 L 173 529.03125 C 184.36889 529.68063 196.95891 529.38875 208.5625 529.03125 L 241.21875 529.03125 C 241.43695 529.13777 241.70465 529.59374 242.03125 530.25 C 244.09674 536.38024 247.47457 541.92953 251.84375 546.53125 C 255.64985 550.76638 260.856 554.78774 268 557.34375 C 272.8661 559.21818 278.12408 560.25 283.625 560.25 C 285.53115 560.25 287.4057 560.11444 289.25 559.875 C 297.33194 559.05928 305.57541 555.87934 312.8125 549.0625 C 313.08502 548.80581 313.35543 548.54831 313.625 548.28125 C 317.8569 544.30064 321.31681 539.51929 323.71875 534.15625 C 324.47777 532.67014 325.20881 531.10922 325.90625 529.46875 C 326.70982 529.30651 327.5351 529.16377 328.375 529.03125 L 379.0625 529.03125 C 383.68597 529.15101 388.21884 529.17929 392.59375 529.03125 L 455.75 529.03125 L 455.75 504.03125 L 432.53125 504.03125 C 433.60435 492.40943 434.50185 476.28062 433.46875 459.5 C 430.27485 379.58273 364.48205 315.75 283.78125 315.75 z "
     style="opacity:0.42608696000000001;color:#000000;fill:#8d8d8d;fill-opacity:1;fill-rule:nonzero;stroke:#a35151;stroke-width:0;stroke-linecap:round;stroke-linejoin:miter;stroke-miterlimit:4;stroke-opacity:1;stroke-dasharray:none;stroke-dashoffset:0;marker:none;visibility:visible;display:inline;overflow:visible;enable-background:accumulate"
     id="path3891"
     d="m 283.78125,296.15625 c -93.32752,0 -169.40625,76.07873 -169.40625,169.40625 0,6.15136 0.13475,12.48338 0.46875,18.875 l -14.5,0 A 19.593279,19.593279 0 0 0 80.75,504.03125 l 0,25 a 19.593279,19.593279 0 0 0 19.59375,19.59375 l 72.65625,0 c 11.97828,0.62417 24.34729,0.34313 35.5625,0 0.19048,-0.006 0.40397,0.006 0.59375,0 l 19.90625,0 c 2.34762,3.9599 5.09114,7.65038 8.21875,11 0.12109,0.12969 0.22157,0.27757 0.34375,0.40625 L 237.65625,560 c 5.52047,6.03288 13.30648,11.92044 23.3125,15.59375 l 0,0.0312 c 0.11335,0.0437 0.23007,0.082 0.34375,0.125 0.0307,0.0116 0.063,0.0197 0.0937,0.0312 6.91504,2.60534 14.43074,4.0625 22.21875,4.0625 2.63961,0 5.16615,-0.20458 7.59375,-0.5 l 0,0.0312 c 0.0713,-0.007 0.14734,-0.0238 0.21875,-0.0312 0.10977,-0.0137 0.23446,-0.0171 0.34375,-0.0312 l 0,-0.0312 c 11.66354,-1.29223 24.20272,-6.29885 34.46875,-15.96875 0.22204,-0.20914 0.49828,-0.50691 0.78125,-0.78125 l 0.0312,0.0312 c 0.12348,-0.11615 0.22115,-0.25786 0.34375,-0.375 4.16409,-3.97862 7.7867,-8.53478 10.78125,-13.5625 l 40.375,0 0.5,0 c 4.49338,0.11052 9.00255,0.13685 13.53125,0 0.21964,-0.007 0.43658,0.007 0.65625,0 l 62.5,0 a 19.593279,19.593279 0 0 0 19.59375,-19.59375 l 0,-25 A 19.593279,19.593279 0 0 0 455.75,484.4375 l -2.375,0 c 0.2452,-7.97545 0.1951,-16.70283 -0.34375,-25.71875 -0.009,-0.14849 0.009,-0.28884 0,-0.4375 l -0.0312,0 c -3.83195,-90.0219 -78.336,-162.125 -169.21875,-162.125 z" />
  <path
     style="opacity:1;color:#000000;fill:#00df0c;fill-opacity:1;fill-rule:nonzero;stroke:none;stroke-width:0;marker:none;visibility:visible;display:inline;overflow:visible;enable-background:accumulate"
     d="m 296.75847,329.01483 c 0,18.02428 1.52385,37.13791 -10.93767,43.2436 -16.44049,8.05525 -49.72907,0.20583 -68.76428,4.04893 -7.3787,17.35564 -19.62132,22.821 -30.76375,22.68803 -26.3241,-0.31413 -30.46659,-22.67922 -31.98875,-23.02846 -13.12452,-2.09024 -69.291636,5.65242 -74.499398,-8.25745 -4.277974,-11.42642 -4.846996,-25.08464 -4.846996,-38.69465 0,-61.24861 49.651814,-110.90042 110.900424,-110.90042 61.24861,0 110.90042,49.65181 110.90042,110.90042 z"
     id="path3810"
     inkscape:connector-curvature="0"
     sodipodi:nodetypes="sscscssss"
     transform="matrix(1.3508839,0,0,1.3508839,32.270566,21.150376)" />
  <path
     style="color:#000000;display:inline;overflow:visible;visibility:visible;fill:#e80000;fill-opacity:1;fill-rule:nonzero;stroke:#a35151;stroke-width:0;stroke-linecap:round;stroke-linejoin:miter;stroke-miterlimit:4;stroke-dasharray:none;stroke-dashoffset:0;stroke-opacity:1;marker:none;enable-background:accumulate"
     d="m 165.87305,372.86133 c -20.18383,25.52438 -32.34375,57.68295 -32.34375,92.75 0,14.30821 0.47787,28.64861 3.4082,41.58398 11.57585,7.74324 24.08813,15.12976 37.41406,21.96485 24.92131,1.19734 55.85641,-1.79671 66.36524,-0.12305 2.05626,0.47178 7.65209,30.68502 43.21289,31.10937 15.05213,0.17963 31.59082,-7.20298 41.55859,-30.64843 25.71436,-5.19158 70.68338,5.411 92.89258,-5.47071 16.83406,-8.24807 14.77539,-34.0673 14.77539,-58.41601 0,-9.57783 -0.90662,-18.94323 -2.625,-28.02149 -0.99609,1.22053 -2.07452,2.42442 -3.35156,3.58204 -1.4659,1.3288 -3.11069,2.61535 -4.92383,3.85156 -1.81314,1.2362 -3.79383,2.42342 -5.92969,3.55664 -2.13586,1.13322 -4.42727,2.21257 -6.86133,3.23242 -2.43406,1.01985 -5.01101,1.9789 -7.71875,2.875 -2.70773,0.8961 -5.54506,1.72828 -8.50195,2.49023 -2.95689,0.76196 -6.03332,1.45483 -9.21484,2.07227 -3.18153,0.61744 -6.46993,1.16051 -9.85157,1.62305 -3.38163,0.46253 -6.85684,0.84338 -10.41406,1.14062 -3.55722,0.29725 -7.19601,0.50929 -10.90429,0.63086 -3.70829,0.12157 -7.4855,0.15433 -11.32032,0.0899 -3.83482,-0.0645 -7.72722,-0.22541 -11.66406,-0.48633 -3.93684,-0.26092 -7.91731,-0.6221 -11.93164,-1.08985 -4.01434,-0.46774 -8.0616,-1.04161 -12.12891,-1.72656 -4.0673,-0.68495 -8.15619,-1.48199 -12.25195,-2.39453 -4.09576,-0.91254 -8.19914,-1.94129 -12.29883,-3.0918 -3.97006,-1.11413 -7.87555,-2.3104 -11.71094,-3.58203 -3.83538,-1.27163 -7.60043,-2.61789 -11.28906,-4.03125 -3.68863,-1.41335 -7.30026,-2.89429 -10.83008,-4.43359 -3.52981,-1.53931 -6.977,-3.13763 -10.33593,-4.78711 -3.35894,-1.64948 -6.63065,-3.34988 -9.80664,-5.09375 -3.176,-1.74388 -6.2573,-3.53102 -9.23829,-5.35352 -2.98098,-1.82249 -5.86086,-3.68106 -8.63476,-5.5664 -2.77391,-1.88535 -5.44133,-3.79806 -7.99609,-5.73047 -2.55477,-1.93242 -4.99676,-3.88395 -7.32032,-5.84766 -2.32355,-1.96371 -4.52909,-3.93874 -6.60937,-5.91797 -2.08029,-1.97922 -4.03638,-3.96243 -5.86133,-5.9414 -1.82495,-1.97897 -3.51863,-3.95308 -5.07617,-5.91602 -1.55755,-1.96294 -2.97779,-3.91457 -4.25586,-5.8457 -1.27808,-1.93113 -2.41385,-3.84302 -3.40039,-5.72656 -0.98654,-1.88355 -1.82487,-3.73841 -2.50782,-5.5586 -0.22383,-0.59657 -0.32721,-1.16331 -0.51757,-1.75195 z"
     id="path875"
     inkscape:connector-curvature="0"
     sodipodi:nodetypes="cscccscsscccssccsccscscssssccccsssccsccccc" />
  <path
     style="opacity:0.42608696;color:#000000;fill:#000000;fill-opacity:1;fill-rule:nonzero;stroke:#a35151;stroke-width:0;stroke-linecap:round;stroke-linejoin:miter;stroke-miterlimit:4;stroke-opacity:1;stroke-dashoffset:0;marker:none;visibility:visible;display:inline;overflow:visible;enable-background:accumulate"
     d="m 385.62131,380.89094 c 9.90416,-1.75665 32.90539,24.77611 41.06001,52.0239 12.13923,40.56194 -10.17055,86.01669 -10.17055,86.01669 l -23.76525,3.62484 c 0,0 13.13142,-27.24607 12.3298,-62.11865 -1.1851,-51.55499 -29.35816,-77.79015 -19.45401,-79.54678 z"
     id="rect3050"
     inkscape:connector-curvature="0"
     sodipodi:nodetypes="zsccsz" />
  <path
     style="fill:none;stroke:#000000;stroke-width:25;stroke-linecap:butt;stroke-linejoin:miter;stroke-opacity:1;stroke-miterlimit:4;stroke-dasharray:none"
     d="m 99.923776,516.57012 355.381084,0"
     id="path3759"
     inkscape:connector-curvature="0" />
  <path
     sodipodi:type="arc"
     style="color:#000000;fill:#fefefe;fill-opacity:1;stroke:#000000;stroke-width:25;stroke-linecap:round;stroke-linejoin:round;stroke-miterlimit:10;stroke-opacity:1;stroke-dasharray:none;stroke-dashoffset:0;marker:none;visibility:visible;display:inline;overflow:visible;enable-background:accumulate"
     id="path3759-1"
     sodipodi:cx="210.27438"
     sodipodi:cy="76.036606"
     sodipodi:rx="40.838413"
     sodipodi:ry="40.838413"
     d="m 251.1128,76.036606 a 40.838413,40.838413 0 1 1 -81.67683,0 40.838413,40.838413 0 1 1 81.67683,0 z"
     transform="matrix(0.82289092,0,0,0.82289092,110.16458,453.8318)" />
  <path
     style="opacity:0.85599999999999998;color:#000000;fill:#fefefe;fill-opacity:1;fill-rule:nonzero;stroke:none;stroke-width:0;stroke-linecap:round;stroke-linejoin:miter;stroke-miterlimit:4;stroke-opacity:1;stroke-dashoffset:0;marker:none;visibility:visible;display:inline;overflow:visible;enable-background:accumulate"
     d="m 231.06775,346.51227 c -6.82897,-5.03772 -35.87403,8.41488 -50.99368,27.04712 -12.26078,15.10921 -15.21946,22.87503 -19.44622,39.65825 -2.26678,9.00069 -3.42242,32.23959 3.62431,26.19851 4.47873,-3.83956 6.92414,-16.57557 20.59229,-39.41132 22.34361,-37.33008 53.05229,-48.45488 46.2233,-53.49256 z"
     id="rect3050-4"
     inkscape:connector-curvature="0"
     sodipodi:nodetypes="zssssz" />
</svg>
