<?xml version="1.0" encoding="UTF-8" standalone="no"?>
<svg
   xmlns:dc="http://purl.org/dc/elements/1.1/"
   xmlns:cc="http://creativecommons.org/ns#"
   xmlns:rdf="http://www.w3.org/1999/02/22-rdf-syntax-ns#"
   xmlns:svg="http://www.w3.org/2000/svg"
   xmlns="http://www.w3.org/2000/svg"
   xmlns:sodipodi="http://sodipodi.sourceforge.net/DTD/sodipodi-0.dtd"
   xmlns:inkscape="http://www.inkscape.org/namespaces/inkscape"
   width="580"
   height="580"
   id="svg2"
   version="1.1"
   inkscape:version="0.48.4 r9939"
   sodipodi:docname="buoy_template.svg">
  <defs
     id="defs13">
    <inkscape:path-effect
       effect="gears"
       id="path-effect3774"
       is_visible="true"
       teeth="6"
       phi="-1.2" />
    <inkscape:path-effect
       effect="bend_path"
       id="path-effect3772"
       is_visible="false"
       bendpath="m 95.790098,316.51174 c 144.429032,-206.42506 223.313032,-11.7428 339.548092,0"
       prop_scale="1.19"
       scale_y_rel="false"
       vertical="false"
       bendpath-nodetypes="cc" />
  </defs>
  <sodipodi:namedview
     pagecolor="#ffffff"
     bordercolor="#666666"
     borderopacity="1"
     objecttolerance="10"
     gridtolerance="10"
     guidetolerance="10"
     inkscape:pageopacity="0"
     inkscape:pageshadow="2"
     inkscape:window-width="1920"
     inkscape:window-height="1004"
     id="namedview11"
     showgrid="false"
     inkscape:zoom="0.57543862"
     inkscape:cx="179.92812"
     inkscape:cy="374.35509"
     inkscape:window-x="1680"
     inkscape:window-y="0"
     inkscape:window-maximized="1"
     inkscape:current-layer="svg2" />
  <metadata
     id="metadata2975">image/svg+xmlen<rdf:RDF>
  <cc:Work
     rdf:about="">
    <dc:format>image/svg+xml</dc:format>
    <dc:type
       rdf:resource="http://purl.org/dc/dcmitype/StillImage" />
    <dc:title></dc:title>
  </cc:Work>
</rdf:RDF>
</metadata>
  <path
     sodipodi:type="inkscape:offset"
     inkscape:radius="33.086819"
     inkscape:original="M 399.375 24.65625 L 388.4375 35.25 L 343.53125 78.6875 L 376.71875 85.8125 L 368.625 120.75 L 323.5625 164.34375 L 356.84375 171.5 L 349.8125 201.84375 L 299.625 191.09375 L 235.96875 354.875 L 235.5625 354.78125 L 95.3125 507.09375 L 236.28125 507.625 C 237.96874 535.4502 261.30545 557.75 289.53125 557.75 C 317.63065 557.75 340.8775 535.65094 342.75 508 L 434.875 508.34375 L 393.71875 390.53125 L 409 214.5 L 364.5 204.96875 L 371.53125 174.65625 L 400.0625 180.78125 L 383.3125 123.78125 L 391.375 88.96875 L 420.0625 95.125 L 399.375 24.65625 z M 235.5625 354.78125 L 236 354.3125 L 299.6875 190.65625 L 235.5625 354.78125 z "
     style="font-size:medium;font-style:normal;font-variant:normal;font-weight:normal;font-stretch:normal;text-indent:0;text-align:start;text-decoration:none;line-height:normal;letter-spacing:normal;word-spacing:normal;text-transform:none;direction:ltr;block-progression:tb;writing-mode:lr-tb;text-anchor:start;baseline-shift:baseline;color:#000000;fill:#acd8f3;fill-opacity:1;stroke:none;stroke-width:0;stroke-linecap:round;stroke-linejoin:miter;stroke-miterlimit:4;stroke-opacity:1;stroke-dasharray:none;marker:none;visibility:visible;display:inline;overflow:visible;enable-background:accumulate;font-family:Sans;-inkscape-font-specification:Sans;opacity:0.752"
     id="path3948"
     d="M 398.875,-8.4375 A 33.090127,33.090127 0 0 0 376.34375,0.875 l -10.90625,10.59375 -0.0312,0 -44.875,43.4375 a 33.090127,33.090127 0 0 0 11.84375,54.875 l -31.8125,30.78125 a 33.090127,33.090127 0 0 0 -9.625,18.5625 33.090127,33.090127 0 0 0 -22.0625,19.5 l -61.84375,158.3125 -136.0625,147.75 a 33.090127,33.090127 0 0 0 24.21875,55.5 l 115.96875,0.4375 c 13.79803,29.58324 43.84961,50.21875 78.375,50.21875 34.30244,0 64.20978,-20.37729 78.125,-49.65625 l 67.09375,0.25 a 33.090127,33.090127 0 0 0 31.375,-44 L 427.3125,386.3125 441.96875,217.375 a 33.090127,33.090127 0 0 0 -10.28125,-26.9375 33.090127,33.090127 0 0 0 0.125,-19 l -12.71875,-43.25 A 33.090127,33.090127 0 0 0 451.8125,85.8125 L 431.125,15.34375 A 33.090127,33.090127 0 0 0 398.875,-8.4375 z" />
  <path
     style="font-size:medium;font-style:normal;font-variant:normal;font-weight:normal;font-stretch:normal;text-indent:0;text-align:start;text-decoration:none;line-height:normal;letter-spacing:normal;word-spacing:normal;text-transform:none;direction:ltr;block-progression:tb;writing-mode:lr-tb;text-anchor:start;baseline-shift:baseline;color:#000000;fill:#000000;fill-opacity:1;stroke:#a35151;stroke-width:0;marker:none;visibility:visible;display:inline;overflow:visible;enable-background:accumulate;font-family:Sans;-inkscape-font-specification:Sans;stroke-opacity:1;stroke-linecap:round;stroke-linejoin:miter;stroke-miterlimit:4;stroke-dasharray:none"
     d="m 388.90625,35.25 -108.59375,468.34375 14.59375,3.375 108.625,-468.34375 -14.625,-3.375 z"
     id="path3761"
     inkscape:connector-curvature="0" />
  <path
     style="fill:#fffa00;fill-opacity:1;stroke:none"
     d="M 236.03125,354.78125 95.78125,507.09375 236.75,507.625 c 1.68749,27.8252 25.02421,50.125 53.25,50.125 28.09942,0 51.34621,-22.09906 53.21875,-49.75 l 92.125,0.34375 -41.1875,-117.90625 z"
     id="path3822"
     inkscape:connector-curvature="0"
     sodipodi:nodetypes="cccscccc" />
  <path
     style="fill:#994044;fill-opacity:1;stroke:#000000;stroke-width:1px;stroke-linecap:butt;stroke-linejoin:miter;stroke-opacity:1"
     d="M 300.15625 190.65625 L 236.03125 354.78125 L 236.46875 354.3125 L 300.15625 190.65625 z M 409 215.1875 L 394.0625 390.375 L 409 215.1875 z "
     id="path3827" />
  <path
     inkscape:connector-curvature="0"
     style="fill:#000000;fill-opacity:1;stroke:none"
     d="m 300.09513,191.1149 -63.74629,163.98686 157.8174,35.51054 15.28638,-176.10282"
     id="path3822-6"
     sodipodi:nodetypes="cccc" />
  <path
     inkscape:connector-curvature="0"
     style="fill:#000000;fill-opacity:1;stroke:none"
     d="m 324.01659,164.36155 76.51702,16.43836 -20.69589,-70.45399"
     id="path3822-6-6"
     sodipodi:nodetypes="ccc" />
  <path
     inkscape:connector-curvature="0"
     style="fill:#000000;fill-opacity:1;stroke:none"
     d="m 344.00319,78.693317 76.51702,16.43836 -20.69589,-70.45399"
     id="path3822-6-6-2"
     sodipodi:nodetypes="ccc" />
  <path
     sodipodi:type="arc"
     style="color:#000000;fill:#ffffff;fill-opacity:1;stroke:#000000;stroke-width:25;stroke-linecap:round;stroke-linejoin:round;stroke-miterlimit:10;stroke-opacity:1;stroke-dasharray:none;stroke-dashoffset:0;marker:none;visibility:visible;display:inline;overflow:visible;enable-background:accumulate"
     id="path3759-1"
     sodipodi:cx="210.27438"
     sodipodi:cy="76.036606"
     sodipodi:rx="40.838413"
     sodipodi:ry="40.838413"
     d="m 251.1128,76.036606 a 40.838413,40.838413 0 1 1 -81.67683,0 40.838413,40.838413 0 1 1 81.67683,0 z"
     transform="translate(79.725616,428.30461)" />
</svg>
