<?xml version="1.0" encoding="UTF-8" standalone="no"?>
<svg
   xmlns:dc="http://purl.org/dc/elements/1.1/"
   xmlns:cc="http://creativecommons.org/ns#"
   xmlns:rdf="http://www.w3.org/1999/02/22-rdf-syntax-ns#"
   xmlns:svg="http://www.w3.org/2000/svg"
   xmlns="http://www.w3.org/2000/svg"
   xmlns:sodipodi="http://sodipodi.sourceforge.net/DTD/sodipodi-0.dtd"
   xmlns:inkscape="http://www.inkscape.org/namespaces/inkscape"
   width="580"
   height="580"
   id="svg2"
   version="1.1"
   inkscape:version="0.48.4 r9939"
   sodipodi:docname="fishing_facility.svg">
  <defs
     id="defs13">
    <inkscape:path-effect
       effect="gears"
       id="path-effect3774"
       is_visible="true"
       teeth="6"
       phi="-1.2" />
    <inkscape:path-effect
       effect="bend_path"
       id="path-effect3772"
       is_visible="false"
       bendpath="m 95.790098,316.51174 c 144.429032,-206.42506 223.313032,-11.7428 339.548092,0"
       prop_scale="1.19"
       scale_y_rel="false"
       vertical="false"
       bendpath-nodetypes="cc" />
  </defs>
  <sodipodi:namedview
     pagecolor="#ffffff"
     bordercolor="#666666"
     borderopacity="1"
     objecttolerance="10"
     gridtolerance="10"
     guidetolerance="10"
     inkscape:pageopacity="0"
     inkscape:pageshadow="2"
     inkscape:window-width="1280"
     inkscape:window-height="995"
     id="namedview11"
     showgrid="false"
     inkscape:zoom="0.81379307"
     inkscape:cx="365.84063"
     inkscape:cy="348.06058"
     inkscape:window-x="0"
     inkscape:window-y="0"
     inkscape:window-maximized="1"
     inkscape:current-layer="svg2"
     inkscape:object-paths="true"
     inkscape:snap-global="false" />
  <metadata
     id="metadata2975">image/svg+xmlen<rdf:RDF>
  <cc:Work
     rdf:about="">
    <dc:format>image/svg+xml</dc:format>
    <dc:type
       rdf:resource="http://purl.org/dc/dcmitype/StillImage" />
    <dc:title></dc:title>
  </cc:Work>
</rdf:RDF>
</metadata>
  <path
     sodipodi:type="arc"
     style="color:#000000;fill:#8e0078;fill-opacity:1;fill-rule:nonzero;stroke:none;stroke-width:24.90000153;marker:none;visibility:visible;display:inline;overflow:visible;enable-background:accumulate"
     id="path2984"
     sodipodi:cx="264.14633"
     sodipodi:cy="458.35367"
     sodipodi:rx="40.838413"
     sodipodi:ry="34.756096"
     d="m 304.98475,458.35367 a 40.838413,34.756096 0 1 1 -81.67683,0 40.838413,34.756096 0 1 1 81.67683,0 z"
     transform="matrix(0.69975987,0,0,0.82221784,59.959062,104.39976)" />
  <path
     sodipodi:type="arc"
     style="color:#000000;fill:#8e0078;fill-opacity:1;fill-rule:nonzero;stroke:none;stroke-width:24.90000153;marker:none;visibility:visible;display:inline;overflow:visible;enable-background:accumulate"
     id="path2984-5"
     sodipodi:cx="264.14633"
     sodipodi:cy="458.35367"
     sodipodi:rx="40.838413"
     sodipodi:ry="34.756096"
     d="m 304.98475,458.35367 a 40.838413,34.756096 0 1 1 -81.67683,0 40.838413,34.756096 0 1 1 81.67683,0 z"
     transform="matrix(0.69975987,0,0,0.82221784,170.11865,43.230424)" />
  <path
     sodipodi:type="arc"
     style="color:#000000;fill:#8e0078;fill-opacity:1;fill-rule:nonzero;stroke:none;stroke-width:24.90000153;marker:none;visibility:visible;display:inline;overflow:visible;enable-background:accumulate"
     id="path2984-58"
     sodipodi:cx="264.14633"
     sodipodi:cy="458.35367"
     sodipodi:rx="40.838413"
     sodipodi:ry="34.756096"
     d="m 304.98475,458.35367 a 40.838413,34.756096 0 1 1 -81.67683,0 40.838413,34.756096 0 1 1 81.67683,0 z"
     transform="matrix(0.69975987,0,0,0.82221784,247.62729,-78.140721)" />
  <path
     sodipodi:type="arc"
     style="color:#000000;fill:#8e0078;fill-opacity:1;stroke:none;stroke-width:24.90000153;marker:none;visibility:visible;display:inline;overflow:visible;enable-background:accumulate"
     id="path2984-4"
     sodipodi:cx="264.14633"
     sodipodi:cy="458.35367"
     sodipodi:rx="40.838413"
     sodipodi:ry="34.756096"
     d="m 304.98475,458.35367 a 40.838413,34.756096 0 1 1 -81.67683,0 40.838413,34.756096 0 1 1 81.67683,0 z"
     transform="matrix(0.69975987,0,0,0.82221784,286.13399,-246.13288)" />
  <path
     style="fill:none;stroke:#8e0078;stroke-width:21.49699974;stroke-linecap:round;stroke-linejoin:round;stroke-miterlimit:4;stroke-opacity:1;stroke-dasharray:none"
     d="m 243.46891,476.61423 c 0,0 9.30416,-87.06041 -37.21667,-142.88541 -46.52083,-55.825 -74.05588,-73.30661 -83.51707,-106.54461 -3.90153,-13.70643 -8.68258,-44.61011 10.61361,-77.44461 27.53703,-46.85718 113.24415,-34.12986 144.73918,-23.58449 31.49505,10.54536 115.90502,63.82333 177.94169,14.05784"
     id="path3804"
     inkscape:connector-curvature="0"
     sodipodi:nodetypes="cssszc" />
  <path
     style="fill:none;stroke:#8e0078;stroke-width:20.1970005;stroke-linecap:round;stroke-linejoin:round;stroke-miterlimit:4;stroke-opacity:1;stroke-dasharray:none"
     d="m 422.46414,299.24302 c 0,0 -63.57023,-24.36588 -115.30115,-73.22966 -97.02035,-91.64308 -171.86977,-72.65008 -171.35658,-75.04495"
     id="path3806"
     inkscape:connector-curvature="0"
     sodipodi:nodetypes="csc" />
  <path
     style="fill:none;stroke:#8e0078;stroke-width:20.09700012;stroke-linecap:round;stroke-linejoin:round;stroke-miterlimit:4;stroke-opacity:1;stroke-dasharray:none"
     d="m 356.44807,437.40382 c 0,0 -12.43243,-66.8338 -51.64284,-103.38588 -39.21042,-36.55209 -91.11784,-72.74836 -124.5915,-102.29861 -18.00518,-15.89482 -43.24514,-40.55342 -41.74899,-82.08009"
     id="path3808"
     inkscape:connector-curvature="0"
     sodipodi:nodetypes="cssc" />
  <path
     style="fill:none;stroke:#8e0078;stroke-width:20.1970005;stroke-linecap:round;stroke-linejoin:round;stroke-miterlimit:4;stroke-opacity:1;stroke-dasharray:none"
     d="m 241.74876,408.04576 c 7.49293,-51.82922 34.54031,-55.67972 78.82733,-55.50661 0.41287,-23.14109 9.82882,-77.29127 42.01871,-84.21827 -15.52748,-33.59359 -10.35765,-101.00133 32.34893,-105.3398"
     id="path3810"
     inkscape:connector-curvature="0"
     sodipodi:nodetypes="cccc" />
  <path
     style="fill:none;stroke:#8e0078;stroke-width:20.1970005;stroke-linecap:round;stroke-linejoin:round;stroke-miterlimit:4;stroke-opacity:1;stroke-dasharray:none"
     d="m 198.53629,324.57527 c 0,0 53.84814,-25.6945 74.17535,-18.45874 6.90097,-10.77852 19.52177,-61.11881 41.27658,-73.85365 -20.74026,-47.17401 -1.19706,-88.72015 -1.19706,-88.72015"
     id="path3812"
     inkscape:connector-curvature="0"
     sodipodi:nodetypes="cccc" />
  <path
     style="fill:none;stroke:#8e0078;stroke-width:20.1970005;stroke-linecap:round;stroke-linejoin:round;stroke-miterlimit:4;stroke-opacity:1;stroke-dasharray:none"
     d="m 165.84975,287.57887 c 10.97993,-13.10317 43.50949,-10.10772 66.05079,-13.9618 -3.82007,-12.00591 15.25726,-67.94601 40.07782,-77.00169 -7.26849,-5.14216 -0.49736,-63.73665 -0.49736,-63.73665"
     id="path3814"
     inkscape:connector-curvature="0"
     sodipodi:nodetypes="cccc" />
  <path
     style="fill:none;stroke:#8e0078;stroke-width:20.1970005;stroke-linecap:round;stroke-linejoin:round;stroke-miterlimit:4;stroke-opacity:1;stroke-dasharray:none"
     d="m 233.51398,126.55447 c 0,0 -4.11489,26.12732 -1.27141,45.699 -9.30024,10.95329 -34.54467,43.70096 -48.83601,62.25687 -25.21796,4.06008 -48.21548,14.04984 -48.12667,14.20387 M 123.2439,211.25776 c 0,0 19.75678,-0.8572 31.55335,-6.78592 11.79658,-5.92871 32.83678,-40.54516 34.94012,-48.28145 2.10332,-7.73629 5.20164,-35.48288 1.75394,-35.33007"
     id="path3816"
     inkscape:connector-curvature="0"
     sodipodi:nodetypes="cccccssc" />
</svg>
