<?xml version="1.0" encoding="UTF-8" standalone="no"?>
<svg
   xmlns:dc="http://purl.org/dc/elements/1.1/"
   xmlns:cc="http://creativecommons.org/ns#"
   xmlns:rdf="http://www.w3.org/1999/02/22-rdf-syntax-ns#"
   xmlns:svg="http://www.w3.org/2000/svg"
   xmlns="http://www.w3.org/2000/svg"
   xmlns:sodipodi="http://sodipodi.sourceforge.net/DTD/sodipodi-0.dtd"
   xmlns:inkscape="http://www.inkscape.org/namespaces/inkscape"
   width="580"
   height="580"
   id="svg2"
   version="1.1"
   inkscape:version="0.48.4 r9939"
   sodipodi:docname="harbour_default_small.svg">
  <defs
     id="defs13">
    <inkscape:path-effect
       effect="gears"
       id="path-effect3774"
       is_visible="true"
       teeth="6"
       phi="-1.2" />
    <inkscape:path-effect
       effect="bend_path"
       id="path-effect3772"
       is_visible="false"
       bendpath="m 95.790098,316.51174 c 144.429032,-206.42506 223.313032,-11.7428 339.548092,0"
       prop_scale="1.19"
       scale_y_rel="false"
       vertical="false"
       bendpath-nodetypes="cc" />
  </defs>
  <sodipodi:namedview
     pagecolor="#ffffff"
     bordercolor="#666666"
     borderopacity="1"
     objecttolerance="10"
     gridtolerance="10"
     guidetolerance="10"
     inkscape:pageopacity="0"
     inkscape:pageshadow="2"
     inkscape:window-width="1920"
     inkscape:window-height="1004"
     id="namedview11"
     showgrid="false"
     inkscape:zoom="0.5754386"
     inkscape:cx="236.19577"
     inkscape:cy="366.28157"
     inkscape:window-x="1680"
     inkscape:window-y="0"
     inkscape:window-maximized="1"
     inkscape:current-layer="svg2" />
  <metadata
     id="metadata2975">image/svg+xmlen<rdf:RDF>
  <cc:Work
     rdf:about="">
    <dc:format>image/svg+xml</dc:format>
    <dc:type
       rdf:resource="http://purl.org/dc/dcmitype/StillImage" />
    <dc:title></dc:title>
  </cc:Work>
</rdf:RDF>
</metadata>
  <path
     style="font-size:medium;font-style:normal;font-variant:normal;font-weight:normal;font-stretch:normal;text-indent:0;text-align:start;text-decoration:none;line-height:normal;letter-spacing:normal;word-spacing:normal;text-transform:none;direction:ltr;block-progression:tb;writing-mode:lr-tb;text-anchor:start;baseline-shift:baseline;color:#000000;fill:#930093;fill-opacity:1;fill-rule:nonzero;stroke:none;stroke-width:1;marker:none;visibility:visible;display:inline;overflow:visible;enable-background:accumulate;font-family:Sans;-inkscape-font-specification:Sans"
     d="m 289.98977,135.58349 c -26.10038,0 -47.50803,21.40764 -47.50803,47.50806 0,17.46812 9.59556,32.82357 23.76421,41.07872 l 0,30.19357 -35.64633,0 0,23.76423 35.64633,0 0,106.99998 c -28.80239,-2.03483 -60.58927,-39.53992 -75.6467,-74.56835 11.93862,0.64959 23.66247,-0.2645 23.66247,-0.2645 0,0 -22.98278,-34.66398 -55.28027,-43.56094 -20.1696,17.42568 -23.39799,66.81651 -23.39799,66.81651 0,0 7.593,-3.75906 16.78552,-10.76308 15.5198,44.42695 55.96159,82.91635 104.86365,93.65297 21.0011,4.60885 32.75714,27.97585 32.75714,27.97585 0,0 11.77651,-23.367 32.77756,-27.97585 48.65544,-10.68247 88.9283,-48.8389 104.61951,-92.98154 9.41218,7.17261 17.0297,10.09166 17.0297,10.09166 0,-14.25414 -1.61382,-43.16606 -22.25867,-67.3862 -32.2974,8.89696 -56.43994,44.13063 -56.43994,44.13063 0,0 11.7278,0.91286 23.66244,0.26451 -15.05961,35.02092 -46.82741,72.53374 -75.62639,74.56834 l 0,-106.99998 35.62601,0 0,-23.76422 -35.62601,0 0,-30.19358 c 14.16029,-8.2573 23.76422,-23.61687 23.76422,-41.07873 0,-26.10042 -21.42797,-47.50806 -47.52843,-47.50806 z m 0,23.74385 c 13.26135,0 23.76421,10.50295 23.76421,23.76421 0,13.26127 -10.50286,23.76421 -23.76421,23.76421 -13.2612,0 -23.74382,-10.50294 -23.74382,-23.76421 0,-13.26126 10.48262,-23.76421 23.74382,-23.76421 z"
     id="circle3"
     inkscape:connector-curvature="0" />
  <path
     sodipodi:type="arc"
     style="color:#000000;fill:none;stroke:#930093;stroke-width:26.05776978;stroke-linecap:round;stroke-linejoin:miter;stroke-miterlimit:4;stroke-opacity:1;stroke-dasharray:none;stroke-dashoffset:0;marker:none;visibility:visible;display:inline;overflow:visible;enable-background:accumulate"
     id="path2987"
     sodipodi:cx="252.52119"
     sodipodi:cy="231.63135"
     sodipodi:rx="284.15234"
     sodipodi:ry="284.15234"
     d="m 536.67354,231.63135 a 284.15234,284.15234 0 1 1 -568.304689,0 284.15234,284.15234 0 1 1 568.304689,0 z"
     transform="matrix(0.67661144,0,0,0.67661144,119.14127,133.27558)" />
</svg>
