<?xml version="1.0" encoding="UTF-8" standalone="no"?>
<svg
   xmlns:dc="http://purl.org/dc/elements/1.1/"
   xmlns:cc="http://creativecommons.org/ns#"
   xmlns:rdf="http://www.w3.org/1999/02/22-rdf-syntax-ns#"
   xmlns:svg="http://www.w3.org/2000/svg"
   xmlns="http://www.w3.org/2000/svg"
   xmlns:sodipodi="http://sodipodi.sourceforge.net/DTD/sodipodi-0.dtd"
   xmlns:inkscape="http://www.inkscape.org/namespaces/inkscape"
   width="580"
   height="580"
   id="svg2"
   version="1.1"
   inkscape:version="0.48.4 r9939"
   sodipodi:docname="hulk_restaurant_additional.svg">
  <defs
     id="defs13">
    <inkscape:path-effect
       effect="gears"
       id="path-effect3774"
       is_visible="true"
       teeth="6"
       phi="-1.2" />
    <inkscape:path-effect
       effect="bend_path"
       id="path-effect3772"
       is_visible="false"
       bendpath="m 95.790098,316.51174 c 144.429032,-206.42506 223.313032,-11.7428 339.548092,0"
       prop_scale="1.19"
       scale_y_rel="false"
       vertical="false"
       bendpath-nodetypes="cc" />
  </defs>
  <sodipodi:namedview
     pagecolor="#ffffff"
     bordercolor="#666666"
     borderopacity="1"
     objecttolerance="10"
     gridtolerance="10"
     guidetolerance="10"
     inkscape:pageopacity="0"
     inkscape:pageshadow="2"
     inkscape:window-width="1324"
     inkscape:window-height="739"
     id="namedview11"
     showgrid="false"
     inkscape:zoom="0.5754386"
     inkscape:cx="261.96539"
     inkscape:cy="317.03704"
     inkscape:window-x="42"
     inkscape:window-y="1024"
     inkscape:window-maximized="1"
     inkscape:current-layer="svg2"
     inkscape:snap-object-midpoints="false"
     inkscape:snap-page="true" />
  <metadata
     id="metadata2975">image/svg+xmlen<rdf:RDF>
  <cc:Work
     rdf:about="">
    <dc:format>image/svg+xml</dc:format>
    <dc:type
       rdf:resource="http://purl.org/dc/dcmitype/StillImage" />
    <dc:title />
  </cc:Work>
</rdf:RDF>
</metadata>
  <path
     sodipodi:type="inkscape:offset"
     inkscape:radius="-3.7417815"
     inkscape:original="M 683.9375 144.40625 C 670.31153 144.40625 663.66941 150.14612 657.8125 155.125 C 651.95559 160.10388 647.1767 165.86579 642.84375 172.4375 C 634.17785 185.58092 627.09375 201.94058 627.09375 221.34375 C 627.09375 242.29537 633.51557 262.45065 647.78125 276.09375 L 645.84375 319.90625 A 26.069681 26.069681 0 0 0 671.875 347.125 L 696 347.125 A 26.069681 26.069681 0 0 0 721.0625 328.1875 A 26.069681 26.069681 0 0 0 746.125 347.125 L 770.25 347.125 A 26.069681 26.069681 0 0 0 796.28125 319.6875 L 794.46875 285.84375 C 798.02627 282.48596 801.33428 278.68647 803.75 274.15625 C 809.55352 263.27284 810.59375 252.15309 810.59375 240.375 A 26.069681 26.069681 0 0 0 810.5625 239.125 L 807.375 172.65625 L 807.28125 172.65625 C 806.60207 157.70971 794.12876 145.53125 779.03125 145.53125 L 777.53125 145.53125 C 775.9745 145.53125 774.4614 145.72079 772.96875 145.96875 C 770.61912 145.32669 768.19278 144.875 765.65625 144.875 L 763.6875 144.875 C 761.81059 144.875 759.96733 145.06992 758.1875 145.4375 C 756.4079 145.06981 754.564 144.875 752.6875 144.875 L 750.71875 144.875 C 748.17223 144.875 745.73275 145.32224 743.375 145.96875 C 741.94036 145.74009 740.49316 145.53125 739 145.53125 L 737.5 145.53125 C 727.54298 145.53125 718.72959 150.83226 713.65625 158.71875 C 712.45105 157.53155 711.36784 156.23464 710.0625 155.125 C 704.20551 150.14608 697.5632 144.40625 683.9375 144.40625 z M 720.46875 284.40625 C 720.94538 284.89238 721.41483 285.37992 721.90625 285.84375 L 721.15625 299.9375 L 720.46875 284.40625 z "
     style="color:#000000;fill:#e4e4e4;fill-opacity:1;fill-rule:nonzero;stroke-width:0;stroke-linecap:round;stroke-linejoin:miter;stroke-miterlimit:4;stroke-opacity:1;stroke-dasharray:none;stroke-dashoffset:0;marker:none;visibility:visible;display:inline;overflow:visible;enable-background:accumulate;opacity:0.37200000000000000;stroke:#a35151"
     id="path3900"
     d="m 683.9375,148.15625 c -12.57517,0 -17.81298,4.81865 -23.6875,9.8125 -5.53678,4.70674 -10.091,10.17597 -14.28125,16.53125 -8.3963,12.73453 -15.125,28.35133 -15.125,46.84375 0,20.18703 6.19053,39.27274 19.53125,52.03125 a 3.7421557,3.7421557 0 0 1 1.15625,2.875 l -1.9375,43.8125 c -0.0442,1.00168 -0.0569,1.24897 0,2.25 0.0569,1.00103 0.0925,1.25979 0.25,2.25 0.15747,0.99021 0.21234,1.21819 0.46875,2.1875 0.25641,0.96931 0.33476,1.2177 0.6875,2.15625 0.35274,0.93855 0.42951,1.16425 0.875,2.0625 0.44549,0.89825 0.5913,1.11994 1.125,1.96875 0.5337,0.84881 0.66477,1.05302 1.28125,1.84375 0.61648,0.79073 0.77575,0.99414 1.46875,1.71875 0.693,0.72461 0.86254,0.88013 1.625,1.53125 0.76246,0.65112 0.98833,0.80399 1.8125,1.375 0.82417,0.57101 1.02876,0.70241 1.90625,1.1875 0.87749,0.48509 1.07811,0.60577 2,1 0.92189,0.39423 1.16809,0.48188 2.125,0.78125 0.95691,0.29937 1.2053,0.36104 2.1875,0.5625 0.9822,0.20146 1.22125,0.24225 2.21875,0.34375 0.9975,0.1015 1.24735,0.0933 2.25,0.0937 l 24.125,0 c 1.60634,-7.8e-4 2.00848,-0.022 3.59375,-0.28125 1.58527,-0.2593 1.97713,-0.36393 3.5,-0.875 1.52287,-0.51107 1.89174,-0.65675 3.3125,-1.40625 1.42076,-0.7495 1.74964,-0.9691 3.03125,-1.9375 1.28161,-0.9684 1.57846,-1.2442 2.6875,-2.40625 1.10904,-1.16205 1.37369,-1.48711 2.28125,-2.8125 0.90756,-1.32539 1.09884,-1.67082 1.78125,-3.125 0.68241,-1.45418 0.84179,-1.82994 1.28125,-3.375 a 3.7421557,3.7421557 0 0 1 7.1875,0 c 0.43946,1.54506 0.59884,1.92082 1.28125,3.375 0.68241,1.45418 0.87369,1.79961 1.78125,3.125 0.90756,1.32539 1.17221,1.65045 2.28125,2.8125 1.10904,1.16205 1.40589,1.43785 2.6875,2.40625 1.28161,0.9684 1.61049,1.188 3.03125,1.9375 1.42076,0.7495 1.78963,0.89518 3.3125,1.40625 1.52287,0.51107 1.91473,0.6157 3.5,0.875 1.58527,0.2593 1.98741,0.28047 3.59375,0.28125 l 24.125,0 c 1.00812,-10e-5 1.24707,0.008 2.25,-0.0937 1.00293,-0.10219 1.26258,-0.14051 2.25,-0.34375 0.98742,-0.20324 1.22574,-0.29155 2.1875,-0.59375 0.96176,-0.3022 1.19879,-0.3832 2.125,-0.78125 0.92621,-0.39805 1.15012,-0.5102 2.03125,-1 0.88113,-0.4898 1.1105,-0.61098 1.9375,-1.1875 0.827,-0.57652 1.01689,-0.71769 1.78125,-1.375 0.76436,-0.65731 0.93114,-0.83116 1.625,-1.5625 0.69386,-0.73134 0.85253,-0.9209 1.46875,-1.71875 0.61622,-0.79785 0.78025,-1.01884 1.3125,-1.875 0.53225,-0.85616 0.65094,-1.06309 1.09375,-1.96875 0.44281,-0.90566 0.52619,-1.1479 0.875,-2.09375 0.34881,-0.94585 0.43627,-1.17994 0.6875,-2.15625 0.25123,-0.97631 0.28644,-1.22201 0.4375,-2.21875 0.15106,-0.99674 0.20066,-1.24309 0.25,-2.25 0.0493,-1.00691 0.0216,-1.27452 -0.0312,-2.28125 l -1.8125,-33.84375 a 3.7421557,3.7421557 0 0 1 1.1875,-2.90625 c 3.37489,-3.18542 6.37414,-6.6735 8.53125,-10.71875 5.39296,-10.11349 6.40625,-20.47347 6.40625,-32.03125 -4.8e-4,-0.47667 -0.008,-0.58641 -0.0312,-1.0625 l -3.15625,-65.78125 a 3.7421557,3.7421557 0 0 1 -0.125,-0.71875 c -0.58906,-12.9633 -11.4147,-23.53125 -24.5,-23.53125 l -1.5,0 c -1.25303,0 -2.54403,0.14352 -3.9375,0.375 a 3.7421557,3.7421557 0 0 1 -1.625,-0.0625 c -2.14824,-0.58703 -4.22018,-0.96875 -6.3125,-0.96875 l -1.96875,0 c -1.61785,0 -3.21471,0.15167 -4.75,0.46875 a 3.7421557,3.7421557 0 0 1 -1.5,0 c -1.53451,-0.31705 -3.13247,-0.46875 -4.75,-0.46875 l -1.96875,0 c -2.10841,0 -4.19637,0.34868 -6.34375,0.9375 a 3.7421557,3.7421557 0 0 1 -1.59375,0.0937 c -1.3981,-0.22284 -2.63698,-0.375 -3.78125,-0.375 l -1.5,0 c -8.62896,0 -16.26816,4.5989 -20.6875,11.46875 a 3.7421557,3.7421557 0 0 1 -5.78125,0.625 c -1.37723,-1.35666 -2.4188,-2.56684 -3.40625,-3.40625 -5.87457,-4.99386 -11.11262,-9.8125 -23.6875,-9.8125 z m 36.46875,132.5 a 3.7421557,3.7421557 0 0 1 2.71875,1.125 c 0.49231,0.50213 0.9391,0.96182 1.34375,1.34375 a 3.7421557,3.7421557 0 0 1 1.1875,2.90625 l -0.75,14.09375 a 3.7500326,3.7500326 0 0 1 -7.5,-0.0312 l -0.6875,-15.53125 a 3.7421557,3.7421557 0 0 1 3.6875,-3.90625 z"
     transform="translate(-312.11865,-72.500005)" />
  <path
     d="m 381.65336,193.16205 c 12.3404,-5.72583 21.26419,-22.29095 21.26419,-41.84455 0,-24.29692 -20.27087,-50.89421 -30.76627,-50.89421 -10.49506,0 -30.76659,26.59729 -30.76659,50.89421 0,19.5536 8.92444,36.11872 21.26452,41.84455 l -2.55443,57.87626 24.11268,0 -2.5541,-57.87626 z"
     style="fill:#000000;fill-opacity:1"
     id="path2110"
     inkscape:connector-curvature="0" />
  <path
     d="m 455.90822,202.99687 c 12.34007,-5.72583 16.84672,-13.08949 16.84672,-32.64308 l -3.20648,-66.48798 c 0,-1.27033 -1.03004,-2.30037 -2.3007,-2.30037 l -1.5103,0 c -1.26967,0 -2.30003,1.02971 -2.30003,2.30037 l 1.06871,66.48798 -6.64145,0 -1.68241,-67.13544 c 0,-1.27033 -1.03003,-2.30037 -2.30069,-2.30037 l -1.96533,0 c -1.27,0 -2.30003,1.03004 -2.30003,2.30037 l 0.90972,67.13544 -8.2406,0 0.90972,-67.13544 c 0,-1.27033 -1.03003,-2.30037 -2.30036,-2.30037 l -1.96565,0 c -1.27034,0 -2.30004,1.03004 -2.30004,2.30037 l -1.68241,67.13544 -6.50246,0 1.06872,-66.47979 c 0,-1.27033 -1.03003,-2.30036 -2.30036,-2.30036 l -1.50998,0 c -1.27033,0 -2.30069,1.03003 -2.30069,2.30036 l -3.33531,66.47979 c 0,19.55359 4.49615,26.91725 16.8359,32.64308 l -2.55411,48.04144 24.11302,0 -2.55312,-48.04144 z"
     style="fill:#000000;fill-opacity:1"
     id="path2112"
     inkscape:connector-curvature="0" />
</svg>
