<?xml version="1.0" encoding="UTF-8" standalone="no"?>
<svg
   xmlns:dc="http://purl.org/dc/elements/1.1/"
   xmlns:cc="http://creativecommons.org/ns#"
   xmlns:rdf="http://www.w3.org/1999/02/22-rdf-syntax-ns#"
   xmlns:svg="http://www.w3.org/2000/svg"
   xmlns="http://www.w3.org/2000/svg"
   xmlns:sodipodi="http://sodipodi.sourceforge.net/DTD/sodipodi-0.dtd"
   xmlns:inkscape="http://www.inkscape.org/namespaces/inkscape"
   width="580"
   height="580"
   id="svg2"
   version="1.1"
   inkscape:version="0.48.4 r9939"
   sodipodi:docname="light_float_green.svg">
  <defs
     id="defs13">
    <inkscape:path-effect
       effect="gears"
       id="path-effect3774"
       is_visible="true"
       teeth="6"
       phi="-1.2" />
    <inkscape:path-effect
       effect="bend_path"
       id="path-effect3772"
       is_visible="false"
       bendpath="m 95.790098,316.51174 c 144.429032,-206.42506 223.313032,-11.7428 339.548092,0"
       prop_scale="1.19"
       scale_y_rel="false"
       vertical="false"
       bendpath-nodetypes="cc" />
  </defs>
  <sodipodi:namedview
     pagecolor="#ffffff"
     bordercolor="#666666"
     borderopacity="1"
     objecttolerance="10"
     gridtolerance="10"
     guidetolerance="10"
     inkscape:pageopacity="0"
     inkscape:pageshadow="2"
     inkscape:window-width="1326"
     inkscape:window-height="738"
     id="namedview11"
     showgrid="false"
     inkscape:zoom="0.57543862"
     inkscape:cx="-52.959191"
     inkscape:cy="252.48546"
     inkscape:window-x="40"
     inkscape:window-y="1024"
     inkscape:window-maximized="1"
     inkscape:current-layer="svg2" />
  <metadata
     id="metadata2975">image/svg+xmlen<rdf:RDF>
  <cc:Work
     rdf:about="">
    <dc:format>image/svg+xml</dc:format>
    <dc:type
       rdf:resource="http://purl.org/dc/dcmitype/StillImage" />
    <dc:title />
  </cc:Work>
</rdf:RDF>
</metadata>
  <path
     sodipodi:type="inkscape:offset"
     inkscape:radius="21.739931"
     inkscape:original="M 230.65625 337.875 L 206.3125 398.84375 L 202.4375 408.34375 L 169 408.34375 L 95.15625 376.1875 L 150.84375 504.375 L 85.34375 504.375 L 85.34375 529.375 L 241.25 529.375 C 246.72856 547.38031 263.53003 560.59375 283.25 560.59375 C 302.96998 560.59375 319.80269 547.38031 325.28125 529.375 L 481.15625 529.375 L 481.15625 504.375 L 414.8125 504.375 L 468.90625 376.15625 L 396.34375 408.34375 L 363.0625 408.34375 L 355.78125 390.15625 L 355.5625 390.15625 L 334.6875 337.875 L 230.65625 337.875 z M 263.625 529.375 L 302.90625 529.375 C 298.77935 535.80536 291.55364 540.03125 283.25 540.03125 C 274.94637 540.03125 267.7519 535.80536 263.625 529.375 z "
     style="opacity:0.42608696;color:#000000;fill:#8d8d8d;fill-opacity:1;fill-rule:nonzero;stroke:#a35151;stroke-width:0;stroke-linecap:round;stroke-linejoin:miter;stroke-miterlimit:4;stroke-opacity:1;stroke-dasharray:none;stroke-dashoffset:0;marker:none;visibility:visible;display:inline;overflow:visible;enable-background:accumulate"
     id="path3873"
     d="m 230.65625,316.125 a 21.742105,21.742105 0 0 0 -20.1875,13.6875 l -22.65625,56.78125 -14.28125,0 -69.6875,-30.34375 a 21.742105,21.742105 0 0 0 -28.625,28.59375 l 42.46875,97.78125 -32.34375,0 a 21.742105,21.742105 0 0 0 -21.75,21.75 l 0,25 a 21.742105,21.742105 0 0 0 21.75,21.75 l 142.3125,0 c 11.62426,18.68311 32.17597,31.21875 55.59375,31.21875 23.42383,0 43.9927,-12.52217 55.625,-31.21875 l 142.28125,0 a 21.742105,21.742105 0 0 0 21.75,-21.75 l 0,-25 a 21.742105,21.742105 0 0 0 -21.75,-21.75 l -33.5625,0 41.34375,-98.03125 a 21.742105,21.742105 0 0 0 -28.84375,-28.3125 l -68.34375,30.3125 -13.96875,0 -1.8125,-4.53125 a 21.742105,21.742105 0 0 0 -1.25,-2.5625 L 354.875,329.8125 A 21.742105,21.742105 0 0 0 334.6875,316.125 l -104.03125,0 z" />
  <path
     style="color:#000000;fill:#00df0c;fill-opacity:1;stroke:none;stroke-width:25;marker:none;visibility:visible;display:inline;overflow:visible;enable-background:accumulate"
     d="m 95.098688,375.89114 73.848572,32.14939 227.3265,0 72.56329,-32.2021 -58.27072,138.12501 -255.4772,0 z"
     id="rect3122"
     inkscape:connector-curvature="0"
     sodipodi:nodetypes="ccccccc" />
  <path
     style="fill:none;stroke:#000000;stroke-width:24.99999809;stroke-linecap:butt;stroke-linejoin:miter;stroke-miterlimit:4;stroke-opacity:1;stroke-dasharray:none"
     d="m 85.295881,516.57012 395.803139,0"
     id="path3759"
     inkscape:connector-curvature="0"
     sodipodi:nodetypes="cc" />
  <path
     sodipodi:type="arc"
     style="color:#000000;fill:#fefefe;fill-opacity:1;stroke:#000000;stroke-width:25;stroke-linecap:round;stroke-linejoin:round;stroke-miterlimit:10;stroke-opacity:1;stroke-dasharray:none;stroke-dashoffset:0;marker:none;visibility:visible;display:inline;overflow:visible;enable-background:accumulate"
     id="path3759-1"
     sodipodi:cx="210.27438"
     sodipodi:cy="76.036606"
     sodipodi:rx="40.838413"
     sodipodi:ry="40.838413"
     d="m 251.1128,76.036606 a 40.838413,40.838413 0 1 1 -81.67683,0 40.838413,40.838413 0 1 1 81.67683,0 z"
     transform="matrix(0.82289092,0,0,0.82289092,110.16458,453.8318)" />
  <path
     style="opacity:1;color:#000000;fill:#00df0c;fill-opacity:1;fill-rule:nonzero;stroke:none;stroke-width:25;marker:none;visibility:visible;display:inline;overflow:visible;enable-background:accumulate"
     d="m 230.60922,337.57623 104.00256,0 28.45842,71.25 -160.9194,0 z"
     id="rect2989"
     inkscape:connector-curvature="0"
     sodipodi:nodetypes="ccccc" />
  <path
     style="font-size:medium;font-style:normal;font-variant:normal;font-weight:normal;font-stretch:normal;text-indent:0;text-align:start;text-decoration:none;line-height:normal;letter-spacing:normal;word-spacing:normal;text-transform:none;direction:ltr;block-progression:tb;writing-mode:lr-tb;text-anchor:start;baseline-shift:baseline;color:#000000;fill:#000000;fill-opacity:1;stroke:none;stroke-width:18.20000076;marker:none;visibility:visible;display:inline;overflow:visible;enable-background:accumulate;font-family:Sans;-inkscape-font-specification:Sans"
     d="m 209.82416,389.84375 -7.44969,18.1875 160.64248,0 -7.29608,-18.1875 z"
     id="path3759-6"
     inkscape:connector-curvature="0"
     sodipodi:nodetypes="ccccc" />
  <path
     style="opacity:0.22608696;color:#000000;fill:#000000;fill-opacity:1;fill-rule:nonzero;stroke:#a35151;stroke-width:0;stroke-linecap:round;stroke-linejoin:miter;stroke-miterlimit:4;stroke-opacity:1;stroke-dashoffset:0;marker:none;visibility:visible;display:inline;overflow:visible;enable-background:accumulate"
     d="m 423.04555,396.75991 45.7982,-20.91616 -58.28125,138.125 -23.32316,-0.1685 z"
     id="rect3050"
     inkscape:connector-curvature="0"
     sodipodi:nodetypes="ccccc" />
</svg>
