<?xml version="1.0" encoding="UTF-8" standalone="no"?>
<svg
   xmlns:dc="http://purl.org/dc/elements/1.1/"
   xmlns:cc="http://creativecommons.org/ns#"
   xmlns:rdf="http://www.w3.org/1999/02/22-rdf-syntax-ns#"
   xmlns:svg="http://www.w3.org/2000/svg"
   xmlns="http://www.w3.org/2000/svg"
   xmlns:sodipodi="http://sodipodi.sourceforge.net/DTD/sodipodi-0.dtd"
   xmlns:inkscape="http://www.inkscape.org/namespaces/inkscape"
   width="580"
   height="580"
   id="svg2"
   version="1.1"
   inkscape:version="0.48.4 r9939"
   sodipodi:docname="marine_farm_crustaceans_additional.svg">
  <defs
     id="defs13">
    <inkscape:path-effect
       effect="gears"
       id="path-effect3774"
       is_visible="true"
       teeth="6"
       phi="-1.2" />
    <inkscape:path-effect
       effect="bend_path"
       id="path-effect3772"
       is_visible="false"
       bendpath="m 95.790098,316.51174 c 144.429032,-206.42506 223.313032,-11.7428 339.548092,0"
       prop_scale="1.19"
       scale_y_rel="false"
       vertical="false"
       bendpath-nodetypes="cc" />
  </defs>
  <sodipodi:namedview
     pagecolor="#ffffff"
     bordercolor="#666666"
     borderopacity="1"
     objecttolerance="10"
     gridtolerance="10"
     guidetolerance="10"
     inkscape:pageopacity="0"
     inkscape:pageshadow="2"
     inkscape:window-width="1280"
     inkscape:window-height="995"
     id="namedview11"
     showgrid="false"
     inkscape:zoom="0.5754386"
     inkscape:cx="267.44848"
     inkscape:cy="514.50956"
     inkscape:window-x="0"
     inkscape:window-y="0"
     inkscape:window-maximized="1"
     inkscape:current-layer="svg2"
     inkscape:snap-object-midpoints="false"
     inkscape:snap-page="true" />
  <metadata
     id="metadata2975">image/svg+xmlen<rdf:RDF>
  <cc:Work
     rdf:about="">
    <dc:format>image/svg+xml</dc:format>
    <dc:type
       rdf:resource="http://purl.org/dc/dcmitype/StillImage" />
    <dc:title></dc:title>
  </cc:Work>
</rdf:RDF>
</metadata>
  <path
     sodipodi:type="inkscape:offset"
     inkscape:radius="23.846785"
     inkscape:original="M -53.90625 -361.125 C -59.18538 -361.89459 -64.42061 -359.8129 -64.3125 -344.09375 C -64.15035 -324.61512 -68.59375 -239.75 -68.59375 -239.75 C -68.61185 -239.0954 -69.89701 -238.5625 -71.4375 -238.5625 L -73.78125 -238.5625 C -75.34877 -238.5625 -76.58896 -239.0954 -76.625 -239.75 C -76.625 -239.75 -80.84094 -341.91535 -81.15625 -350.53125 C -81.48957 -359.14715 -84.306654 -362.67848 -96 -360.28125 C -108.91853 -358.54746 -120.80154 -355.65533 -131.0625 -350.78125 C -142.26938 -345.44716 -140.28732 -341.69765 -136.59375 -330.84375 C -132.90016 -319.981 -96.28125 -231.78125 -96.28125 -231.78125 C -96.03802 -231.17089 -96.89447 -230.2495 -98.21875 -229.71875 L -100.1875 -228.9375 C -101.49377 -228.41558 -102.78322 -228.45214 -103.0625 -229.0625 C -103.0625 -229.0625 -143.81265 -308.18751 -148.8125 -318.21875 C -153.81234 -328.24114 -159.7961 -332.38706 -167.15625 -324.125 C -173.41733 -316.606 -178.62905 -308.13077 -182.1875 -298.71875 C -186.9171 -286.13104 -179.56773 -281.38574 -175.46875 -277.28125 C -171.35176 -273.17674 -116.1875 -220.09375 -116.1875 -220.09375 C -115.71003 -219.59839 -114.84211 -216.88582 -116.03125 -215.65625 L -117.8125 -213.8125 C -119.01066 -212.59177 -121.8615 -213.30763 -122.375 -213.75 L -177.53125 -257.84375 C -177.53125 -257.84375 -189.47805 -268.22741 -189.9375 -255.78125 C -189.9375 -196.31035 -142.2609 -210.02079 -110.9375 -182.15625 C -92.712806 -165.93289 -89.18757 -148.96875 -72.125 -148.96875 C -55.07146 -148.96875 -51.96541 -168.94446 -34.28125 -183.0625 C 0.92491 -211.17472 44.25 -197.21262 44.25 -255.78125 C 44.25 -259.35498 44.92195 -267.38251 33.625 -258.15625 C 27.51707 -253.15833 -21.875 -213.75 -21.875 -213.75 C -22.40652 -213.30771 -25.23934 -212.59183 -26.4375 -213.8125 L -28.21875 -215.65625 C -29.4169 -216.88582 -28.53997 -219.59839 -28.0625 -220.09375 C -28.0625 -220.09375 25.01935 -270.75059 31.875 -277.5 C 38.73967 -284.24941 38.29106 -294.69031 36.6875 -298.8125 C 32.6606 -309.13565 27.60876 -317.00621 20.90625 -325.3125 C 15.53704 -331.94691 7.56738 -328.18582 1 -314.15625 C -8.15287 -294.60683 -41.21875 -229.0625 -41.21875 -229.0625 C -41.49803 -228.46099 -42.79649 -228.39318 -44.09375 -228.90625 L -46.0625 -229.71875 C -47.37776 -230.25834 -48.21198 -231.17087 -47.96875 -231.78125 C -47.96875 -231.78125 -11.03822 -321.283 -8.75 -328.15625 C -6.44376 -335.0295 -2.2295 -345.65718 -13.5625 -350.53125 C -23.60725 -354.85689 -40.35711 -359.14351 -53.90625 -361.125 z M -125.21875 -177.28125 C -129.83122 -177.28125 -135.54936 -168.47775 -138.53125 -160.84375 C -141.20684 -154.00588 -139.6336 -150.75 -125.625 -150.75 C -106.27423 -150.75 -102.84375 -150.61263 -102.84375 -154.0625 C -102.84375 -161.3692 -119.58829 -177.28125 -125.21875 -177.28125 z M -20.65625 -177.28125 C -26.28671 -177.28125 -43 -161.3692 -43 -154.0625 C -43 -150.61263 -39.60078 -150.75 -20.25 -150.75 C -6.2414 -150.75 -4.66815 -154.00588 -7.34375 -160.84375 C -10.32565 -168.47775 -16.04377 -177.28125 -20.65625 -177.28125 z "
     style="opacity:0.82648405;color:#000000;fill:#e4e4e4;fill-opacity:1;fill-rule:nonzero;stroke:#a35151;stroke-width:0;stroke-linecap:round;stroke-linejoin:miter;stroke-miterlimit:4;stroke-opacity:1;stroke-dasharray:none;stroke-dashoffset:0;marker:none;visibility:visible;display:inline;overflow:visible;enable-background:accumulate"
     id="path4228"
     d="m -86.40625,-384.9375 c -4.630134,-0.37673 -8.906349,0.2845 -12.78125,1.03125 -0.512525,0.0988 -1.09888,0.14855 -1.59375,0.25 -13.92123,1.96848 -27.59133,5.21198 -40.5,11.34375 a 23.849169,23.849169 0 0 0 -0.0312,0 c -4.02693,1.91668 -8.03319,4.04232 -12.3125,8.125 -3.06543,2.92458 -6.01013,7.39864 -7.8125,12.125 -3.04275,0.15752 -6.04185,0.61937 -8.6875,1.59375 -6.72758,2.47774 -11.27728,6.46525 -14.84375,10.46875 a 23.849169,23.849169 0 0 0 -0.5,0.625 c -7.73567,9.28986 -14.42364,20.03172 -19.03125,32.21875 a 23.849169,23.849169 0 0 0 0,0.0625 c -3.50787,9.33612 -3.34155,20.43623 -0.375,29.03125 -6.79004,6.58865 -8.68497,15.4119 -8.90625,21.40625 a 23.849169,23.849169 0 0 0 0,0.875 c 0,18.05397 3.81857,33.60689 11.875,45.8125 8.05643,12.20561 19.46209,19.64381 29.53125,24.40625 5.75538,2.72214 11.03303,4.86656 16.03125,6.8125 -1.6952,3.03956 -3.18084,6.08156 -4.40625,9.21875 -1.19186,3.04599 -2.67053,6.786 -2.71875,12.96875 -0.0482,6.18275 3.21608,15.57122 8.96875,20.875 11.50534,10.60756 20.02321,8.78125 28.875,8.78125 9.61896,0 14.78538,0.28212 21.5,-0.53125 2.72295,-0.32984 6.405147,-0.60284 11.28125,-3.375 6.081144,3.31118 13.115355,5.6875 20.71875,5.6875 7.049622,0 14.178896,-2.07317 20,-5.125 4.445321,2.32762 7.815241,2.50169 10.375,2.8125 6.717997,0.81572 11.881039,0.53125 21.5,0.53125 8.851791,0 17.3696546,1.82631 28.875,-8.78125 5.752673,-5.30378 9.016968,-14.69224 8.96875,-20.875 -0.04822,-6.18276 -1.526879,-9.92276 -2.71875,-12.96875 -1.243096,-3.18247 -2.771548,-6.26112 -4.5,-9.34375 5.691709,-2.16269 11.620714,-4.50495 18.15625,-7.65625 9.877299,-4.76263 21.034142,-12.34378 28.625,-24.46875 7.590858,-12.12497 10.9375,-27.19905 10.9375,-44.78125 0,-0.14613 0.158843,-2.20421 -0.1875,-5.59375 -0.346343,-3.38954 -0.384738,-9.43841 -7.5,-16.875 -0.264083,-0.27601 -0.592872,-0.49073 -0.875,-0.75 0.702453,-2.37555 1.261737,-4.71778 1.5625,-6.90625 1.087877,-7.91582 0.808118,-13.86182 -2.1875,-21.5625 -4.989489,-12.79079 -11.789348,-23.33429 -19.4375,-32.8125 a 23.849169,23.849169 0 0 0 -0.03125,-0.0312 c -3.850303,-4.75759 -9.979841,-9.53264 -17.75,-11.28125 -2.303771,-0.51844 -4.615174,-0.64105 -6.90625,-0.59375 -3.716799,-8.31722 -10.5720856,-16.6551 -18.90625,-20.25 -0.00865,-0.004 -0.022596,0.004 -0.03125,0 -13.629013,-5.86508 -30.685141,-9.99583 -46.3125,-12.28125 -4.999508,-0.72883 -14.1223,0.26476 -21.75,4.6875 -4.848052,-3.09365 -9.638957,-4.53615 -14.1875,-4.90625 z"
     transform="translate(362.82758,570.79663)" />
  <path
     style="color:#000000;fill:#c600d1;fill-opacity:1;fill-rule:nonzero;stroke-width:0.96049488;stroke-linecap:butt;stroke-linejoin:miter;stroke-miterlimit:4;stroke-opacity:1;stroke-dasharray:none;stroke-dashoffset:0;marker:none;visibility:visible;display:inline;overflow:visible;enable-background:accumulate"
     inkscape:connector-curvature="0"
     d="m 355.4862,409.95001 c 2.6756,6.83787 1.10808,10.11085 -12.90052,10.11085 -19.35078,0 -22.76509,0.11497 -22.76509,-3.3349 0,-7.3067 16.72924,-23.22045 22.3597,-23.22045 4.61248,0 10.32401,8.8105 13.30591,16.4445 z m -117.87038,-16.4445 c -4.61247,0 -10.32402,8.8105 -13.30591,16.4445 -2.67559,6.83787 -1.10808,10.11085 12.90052,10.11085 19.35077,0 22.76509,0.11497 22.76509,-3.3349 0,-7.3067 -16.72924,-23.22045 -22.3597,-23.22045 z M 396.45797,312.6541 c -6.10793,4.99792 -55.49386,44.38866 -55.49386,44.38866 -0.53152,0.44229 -3.37828,1.14997 -4.57644,-0.0707 l -1.79275,-1.83995 c -1.19815,-1.22957 -0.3153,-3.94527 0.16217,-4.44063 0,0 53.08851,-50.6604 59.94416,-57.40981 6.86467,-6.74941 6.40522,-17.17871 4.80166,-21.3009 -4.0269,-10.32315 -9.0808,-18.1783 -15.78331,-26.48459 -5.36921,-6.63441 -13.33294,-2.8749 -19.90032,11.15467 -9.15287,19.54942 -42.19693,85.09744 -42.19693,85.09744 -0.27928,0.60151 -1.58554,0.64575 -2.8828,0.13268 l -1.97293,-0.79613 c -1.31526,-0.53959 -2.16209,-1.45071 -1.91886,-2.06109 0,0 36.93585,-89.51153 39.22407,-96.38478 2.30624,-6.87325 6.51332,-17.49718 -4.81968,-22.37125 -10.04475,-4.32564 -26.78299,-8.61589 -40.33213,-10.59738 -5.27913,-0.76959 -10.52222,1.32689 -10.41411,17.04604 0.16215,19.47863 -4.27915,104.33723 -4.27915,104.33723 -0.0181,0.6546 -1.30627,1.18534 -2.84676,1.18534 h -2.32427 c -1.56752,0 -2.82873,-0.53074 -2.86477,-1.18534 0,0 -4.20708,-102.16115 -4.52239,-110.77705 -0.33332,-8.6159 -3.13504,-12.14539 -14.82839,-9.74816 -12.91853,1.73379 -24.81007,4.62639 -35.07103,9.50047 -11.20688,5.33409 -9.23395,9.0582 -5.54038,19.9121 3.69359,10.86275 40.31413,99.07394 40.31413,99.07394 0.24323,0.61036 -0.59459,1.53034 -1.91887,2.06109 l -1.97292,0.79612 c -1.30627,0.52192 -2.60352,0.47768 -2.8828,-0.13268 0,0 -40.74654,-79.14415 -45.74639,-89.17539 -4.99984,-10.02239 -10.98164,-14.14457 -18.34179,-5.88251 -6.26108,7.519 -11.46813,15.97567 -15.02658,25.38769 -4.7296,12.58771 2.60352,17.32909 6.7025,21.43358 4.11699,4.10451 59.27752,57.18867 59.27752,57.18867 0.47747,0.49536 1.35131,3.21106 0.16217,4.44063 l -1.79275,1.83995 c -1.19816,1.22073 -4.04492,0.51307 -4.55842,0.0707 l -55.14251,-44.0879 c 0,0 -11.96361,-10.38507 -12.42306,2.06109 0,59.4709 47.68327,45.75093 79.00667,73.61547 18.22469,16.22336 21.7471,33.18977 38.80967,33.18977 17.05354,0 20.17957,-19.95632 37.86373,-34.07436 35.20616,-28.11222 78.52921,-14.1711 78.52921,-72.73973 0,-3.57373 0.66664,-11.57926 -10.63031,-2.353 z"
     id="path3" />
</svg>
