<?xml version="1.0" encoding="UTF-8" standalone="no"?>
<svg
   xmlns:dc="http://purl.org/dc/elements/1.1/"
   xmlns:cc="http://creativecommons.org/ns#"
   xmlns:rdf="http://www.w3.org/1999/02/22-rdf-syntax-ns#"
   xmlns:svg="http://www.w3.org/2000/svg"
   xmlns="http://www.w3.org/2000/svg"
   xmlns:sodipodi="http://sodipodi.sourceforge.net/DTD/sodipodi-0.dtd"
   xmlns:inkscape="http://www.inkscape.org/namespaces/inkscape"
   width="580"
   height="580"
   id="svg2"
   version="1.1"
   inkscape:version="0.48.4 r9939"
   sodipodi:docname="marine_farm.svg">
  <defs
     id="defs13">
    <inkscape:path-effect
       effect="gears"
       id="path-effect3774"
       is_visible="true"
       teeth="6"
       phi="-1.2" />
    <inkscape:path-effect
       effect="bend_path"
       id="path-effect3772"
       is_visible="false"
       bendpath="m 95.790098,316.51174 c 144.429032,-206.42506 223.313032,-11.7428 339.548092,0"
       prop_scale="1.19"
       scale_y_rel="false"
       vertical="false"
       bendpath-nodetypes="cc" />
  </defs>
  <sodipodi:namedview
     pagecolor="#ffffff"
     bordercolor="#666666"
     borderopacity="1"
     objecttolerance="10"
     gridtolerance="10"
     guidetolerance="10"
     inkscape:pageopacity="0"
     inkscape:pageshadow="2"
     inkscape:window-width="1324"
     inkscape:window-height="739"
     id="namedview11"
     showgrid="false"
     inkscape:zoom="0.40689654"
     inkscape:cx="397.58878"
     inkscape:cy="192.10624"
     inkscape:window-x="42"
     inkscape:window-y="1024"
     inkscape:window-maximized="1"
     inkscape:current-layer="svg2"
     inkscape:snap-object-midpoints="false"
     inkscape:snap-page="true" />
  <metadata
     id="metadata2975">image/svg+xmlen<rdf:RDF>
  <cc:Work
     rdf:about="">
    <dc:format>image/svg+xml</dc:format>
    <dc:type
       rdf:resource="http://purl.org/dc/dcmitype/StillImage" />
    <dc:title />
  </cc:Work>
</rdf:RDF>
</metadata>
  <path
     style="font-size:medium;font-style:normal;font-variant:normal;font-weight:normal;font-stretch:normal;text-indent:0;text-align:start;text-decoration:none;line-height:normal;letter-spacing:normal;word-spacing:normal;text-transform:none;direction:ltr;block-progression:tb;writing-mode:lr-tb;text-anchor:start;baseline-shift:baseline;color:#000000;fill:#9e0088;fill-opacity:1;fill-rule:nonzero;stroke:none;stroke-width:45.53900146000000149;marker:none;visibility:visible;display:inline;overflow:visible;enable-background:accumulate;font-family:Sans;-inkscape-font-specification:Sans"
     d="M 119.46875 128.96875 C 116.84562 128.96075 114.23273 130.02305 112.375 131.875 C 110.51727 133.72694 109.43775 136.34561 109.4375 138.96875 L 109.4375 180.625 C 110.02574 180.60267 110.54952 180.57392 110.6875 180.5625 C 111.64217 180.48345 112.14013 180.43525 112.375 180.40625 C 117.7064 179.74809 124.09728 177.8108 129.4375 174.65625 L 129.4375 148.96875 L 180.125 149.0625 L 180.125 169.25 A 30.269939 30.269939 0 0 1 180.46875 169.59375 C 183.35021 172.72128 187.1567 174.95384 191.28125 176.75 A 30.269939 30.269939 0 0 1 193.5625 177.34375 C 194.75993 177.72113 195.9545 178.06329 197.125 178.375 L 197.125 149.09375 L 245.71875 149.15625 L 245.71875 162.28125 A 30.269939 30.269939 0 0 1 260.3125 160 A 30.269939 30.269939 0 0 1 262.71875 160.09375 L 262.71875 149.1875 L 319.4375 149.28125 L 319.4375 178.9375 C 325.49147 177.24865 332.15142 174.30241 336.4375 169.9375 L 336.4375 149.3125 L 387.78125 149.40625 L 387.78125 174.40625 C 392.28943 177.25999 397.60437 179.13736 402.59375 180.0625 C 402.67607 180.07776 402.76162 180.11027 402.84375 180.125 C 402.91855 180.13766 402.89145 180.14316 402.96875 180.15625 C 403.13685 180.18311 403.10462 180.16462 403.25 180.1875 C 403.96582 180.30017 404.59052 180.40199 404.625 180.40625 A 30.269939 30.269939 0 0 1 404.78125 180.4375 L 404.78125 149.40625 L 453 149.5 L 453 160.625 A 30.269939 30.269939 0 0 1 453.53125 160.5 A 30.269939 30.269939 0 0 1 454.46875 160.34375 A 30.269939 30.269939 0 0 1 456.125 160.125 A 30.269939 30.269939 0 0 1 457.6875 160 A 30.269939 30.269939 0 0 1 458.6875 159.96875 A 30.269939 30.269939 0 0 1 461.21875 160.03125 A 30.269939 30.269939 0 0 1 463.6875 160.28125 A 30.269939 30.269939 0 0 1 466.03125 160.65625 A 30.269939 30.269939 0 0 1 466.15625 160.6875 A 30.269939 30.269939 0 0 1 473 163 L 473 139.5 C 472.99975 136.88728 471.93833 134.28786 470.09375 132.4375 C 468.24917 130.58714 465.64396 129.50843 463.03125 129.5 L 119.46875 128.96875 z M 460 269.90625 C 457.67994 271.22796 455.33375 272.41448 453 273.5 L 453 311.0625 C 452.99993 311.0833 452.99993 311.1042 453 311.125 C 453.0268 316.61742 452.9362 321.89356 452.75 326.96875 L 404.78125 326.96875 L 404.78125 282.78125 C 403.72006 282.72734 402.67499 282.6584 402.21875 282.625 C 397.59368 282.28634 392.77581 281.56271 387.78125 280.4375 L 387.78125 326.96875 L 336.4375 326.96875 L 336.4375 279.40625 C 331.09956 280.83057 325.43115 281.89418 319.4375 282.4375 L 319.4375 326.96875 L 262.71875 326.96875 L 262.71875 271.90625 C 261.71723 271.40443 260.71746 270.889 259.71875 270.34375 C 255.06984 272.95021 250.36609 275.0503 245.71875 276.75 L 245.71875 326.96875 L 197.125 326.96875 L 197.125 282.1875 C 191.64309 281.5828 185.95987 280.44155 180.125 278.75 L 180.125 326.96875 L 130.1875 326.96875 C 129.76344 320.21674 129.51222 313.11346 129.4375 305.5625 L 129.4375 305.46875 L 129.4375 280.53125 C 123.27271 281.81542 116.69878 282.59938 109.75 282.6875 C 113.17317 282.64856 112.73874 282.74146 109.4375 282.78125 L 109.4375 305.5625 C 109.43735 305.5937 109.43735 305.62505 109.4375 305.65625 C 110.16885 381.24867 129.00553 421.98384 151.125 444.09375 C 162.18474 455.1487 173.87695 461.34628 183.5625 464.96875 C 193.24805 468.59122 201.7927 470.14467 203.09375 470.59375 C 204.14775 470.95179 205.26187 471.13217 206.375 471.125 L 364.84375 471.125 C 388.32633 471.125 416.4603 464.12142 437.875 439.8125 C 459.28606 415.50772 473.30905 375.32016 473 311.0625 C 472.99995 311.0516 473.00005 311.04205 473 311.03125 L 473 275.90625 C 468.70079 274.27377 464.32904 272.29425 460 269.90625 z M 131.6875 343.96875 L 180.125 343.96875 L 180.125 355.125 L 180.125 355.53125 L 180.15625 355.96875 C 180.15625 355.96875 181.4379 370.79364 186.71875 390.875 L 141.96875 390.875 C 137.50504 378.33044 133.86832 362.93273 131.6875 343.96875 z M 197.125 343.96875 L 245.71875 343.96875 L 245.71875 358.8125 L 245.78125 358.8125 C 245.09618 364.23156 245.43836 370.71408 246.15625 380.1875 C 246.40936 383.52764 246.74744 387.15436 247.125 390.875 L 204.6875 390.875 C 198.93605 370.67932 197.16207 354.86436 197.125 354.53125 L 197.125 343.96875 z M 262.71875 343.96875 L 319.4375 343.96875 L 319.4375 374.1875 C 319.05754 379.9893 318.74754 385.50411 318.46875 390.875 L 264.21875 390.875 C 263.77627 386.67023 263.4046 382.59582 263.125 378.90625 C 262.38673 369.16398 262.52923 360.60584 262.59375 360.21875 L 262.71875 359.53125 L 262.71875 358.8125 L 262.71875 343.96875 z M 336.4375 343.96875 L 387.78125 343.96875 L 387.78125 353.28125 L 387.78125 353.59375 L 387.8125 353.875 C 387.8125 353.875 388.93602 370.25229 386 390.875 L 335.5625 390.875 C 335.79093 385.6621 336.06819 380.32958 336.4375 374.75 L 336.4375 374.46875 L 336.4375 374.1875 L 336.4375 343.96875 z M 404.78125 343.96875 L 451.6875 343.96875 C 449.99668 362.64139 446.77446 378.09725 442.46875 390.875 L 403.15625 390.875 C 405.86969 370.10105 404.83691 354.1145 404.78125 353.28125 L 404.78125 352.6875 L 404.78125 343.96875 z M 149.3125 407.875 L 191.875 407.875 C 196.71454 422.00744 203.4507 437.23733 212.8125 451.125 L 207.53125 451.125 C 202.49342 449.63182 197.37844 448.75627 190.59375 446.21875 C 182.89121 443.33794 173.9915 438.67522 165.25 429.9375 C 159.78204 424.4719 154.28682 417.32602 149.3125 407.875 z M 210.21875 407.875 L 249.15625 407.875 C 249.48359 410.24135 249.8202 412.59952 250.1875 414.96875 C 252.077 427.15668 254.46482 439.1111 257.46875 448.71875 C 257.72646 449.54301 257.98288 450.33607 258.25 451.125 L 234.03125 451.125 C 223.44793 438.41688 215.74857 422.82301 210.21875 407.875 z M 266.34375 407.875 L 317.625 407.875 C 316.68283 426.31479 315.65069 441.20613 312.65625 451.125 L 276.53125 451.125 C 275.64445 449.22942 274.63275 446.64825 273.6875 443.625 C 271.13073 435.44753 268.81164 424.06073 267 412.375 C 266.76791 410.87791 266.55966 409.37816 266.34375 407.875 z M 334.875 407.875 L 382.65625 407.875 C 378.63397 423.81507 371.79937 439.86949 360.75 451.125 L 330.34375 451.125 C 333.40336 438.85799 334.21258 424.39581 334.875 407.875 z M 400.21875 407.875 L 435.375 407.875 C 431.57192 415.32603 427.33186 421.49906 422.84375 426.59375 C 411.21933 439.78923 397.6098 446.38266 383.875 449.25 C 392.1929 436.34454 397.16604 421.72134 400.21875 407.875 z "
     id="path2990" />
  <path
     style="fill:#9e0088;fill-opacity:1;stroke-width:45.53900146000000149;stroke-miterlimit:4;stroke-dasharray:none"
     d="M 58.90625 190.09375 C 44.011345 206.2607 22.458682 210.90625 9.21875 210.90625 C 6.684188 210.90625 3.5070595 210.64497 -0.09375 210.09375 L -0.09375 251.5625 C 3.4952108 252.16332 6.6756202 252.5 9.21875 252.5 C 22.458683 252.5 44.011345 247.82319 58.90625 231.65625 C 68.231077 241.77743 80.208966 247.37327 91.0625 250.15625 L 91.0625 250.1875 C 91.13833 250.1875 91.205409 250.1865 91.28125 250.1875 C 96.078551 251.40157 100.66228 252.08863 104.71875 252.34375 C 105.14706 252.38695 105.55772 252.37995 106 252.40625 C 106.59118 252.44195 107.16285 252.5 107.78125 252.5 C 107.95711 252.5 108.10666 252.50071 108.28125 252.5 C 108.37385 252.50046 108.47072 252.5 108.5625 252.5 C 108.83339 252.498 109.10717 252.4406 109.375 252.4375 C 135.78588 252.10257 147.41241 243.59706 157.0625 232.78125 C 157.4025 232.43245 157.7289 232.11019 158.0625 231.75 C 163.34838 237.4063 169.47186 241.62977 175.75 244.75 C 176.15394 244.95447 176.5948 245.21116 177 245.40625 C 177.0147 245.41225 177.01715 245.40025 177.03125 245.40625 C 178.12782 245.93323 179.24285 246.41463 180.34375 246.875 C 180.78224 247.05506 181.1866 247.17364 181.625 247.34375 C 189.11345 250.30137 196.58272 251.85177 202.875 252.3125 C 203.71518 252.374 204.51595 252.41136 205.3125 252.4375 C 206.00634 252.4702 206.63052 252.4968 207.28125 252.5 C 208.55684 252.6066 209.77705 252.625 210.84375 252.625 C 223.80555 252.625 244.71312 248.13865 259.5625 232.78125 C 272.58288 246.03373 290.14409 251.13357 303.125 252.25 C 303.6312 252.2935 304.10214 252.31205 304.59375 252.34375 C 305.14782 252.39275 305.71272 252.46634 306.25 252.5 C 306.67832 252.5432 307.15148 252.50495 307.59375 252.53125 C 308.18494 252.56695 308.72537 252.625 309.34375 252.625 C 309.51964 252.625 309.70039 252.6257 309.875 252.625 C 309.9677 252.62545 310.06448 252.625 310.15625 252.625 C 310.42715 252.623 310.66967 252.59685 310.9375 252.59375 C 337.3484 252.25883 349.00614 243.75331 358.65625 232.9375 C 358.90142 232.68599 359.12839 232.4344 359.375 232.1875 C 367.99283 241.21855 378.72647 246.55021 388.8125 249.46875 C 389.66725 249.71607 390.56242 249.97424 391.40625 250.1875 C 391.46695 250.2038 391.53308 250.2342 391.59375 250.25 C 396.15483 251.45843 400.50486 252.14954 404.4375 252.4375 C 405.27772 252.499 406.10971 252.56761 406.90625 252.59375 C 407.9227 252.64165 408.8732 252.625 409.8125 252.625 C 423.13921 252.625 444.75239 248.0621 459.8125 232.09375 C 469.37138 242.14595 481.51905 247.6678 492.53125 250.34375 C 493.47368 250.57275 494.38945 250.78003 495.3125 250.96875 C 495.46383 251.00115 495.63048 251.0312 495.78125 251.0625 C 496.61489 251.22764 497.43665 251.36596 498.25 251.5 C 502.67197 252.26934 506.81224 252.625 510.34375 252.625 C 523.73842 252.625 545.4622 248.0107 560.53125 231.84375 C 566.32026 238.05452 573.08699 242.55453 580 245.75 L 580 204.21875 C 573.08699 201.02328 566.32026 196.52327 560.53125 190.3125 C 546.18929 205.69939 525.82505 210.62273 512.34375 211.0625 C 512.29795 211.0595 512.26431 211.0655 512.21875 211.0625 C 511.36159 211.0101 510.49344 210.96875 509.65625 210.96875 C 506.30757 210.96875 502.41226 210.68585 498.25 210 C 497.28332 209.83182 496.3056 209.64984 495.3125 209.4375 C 494.38945 209.24878 493.47368 209.04151 492.53125 208.8125 C 481.55171 206.0377 469.48066 200.41684 460.0625 190.3125 C 459.9851 190.3955 459.89102 190.48261 459.8125 190.5625 C 459.68123 190.42445 459.53652 190.32728 459.40625 190.1875 C 459.29903 190.30239 459.20155 190.41747 459.09375 190.53125 L 459.09375 190.21875 C 459.09375 190.21875 437.25868 207.42112 416.28125 210.5625 C 416.17315 210.5786 416.07689 210.6097 415.96875 210.625 C 413.56044 210.87038 411.28511 210.96875 409.21875 210.96875 C 407.94209 210.96875 406.54113 210.90236 405.125 210.8125 C 404.80533 210.7922 404.48221 210.80625 404.15625 210.78125 C 403.40471 210.71235 402.59417 210.62681 401.8125 210.53125 C 401.50954 210.49415 401.21332 210.4788 400.90625 210.4375 C 400.02481 210.32872 399.10013 210.17707 398.1875 210.03125 C 398.06787 210.01095 397.93254 210.0206 397.8125 210 C 385.53804 207.85514 370.8755 202.22653 359.8125 190.21875 C 359.7695 190.26555 359.69933 190.32883 359.65625 190.375 C 359.63975 190.3567 359.6418 190.3305 359.625 190.3125 C 359.5332 190.411 359.43603 190.52738 359.34375 190.625 C 359.20489 190.47912 359.07525 190.33527 358.9375 190.1875 C 343.86845 206.35444 322.14469 210.96875 308.75 210.96875 C 307.91282 210.96875 307.02409 210.94405 306.125 210.90625 C 305.70572 210.88855 305.27532 210.9011 304.84375 210.875 C 304.73866 210.866 304.60565 210.8218 304.5 210.8125 C 291.34056 209.63935 273.46049 204.25216 260.53125 190.21875 C 260.21084 190.56651 259.8889 190.9128 259.5625 191.25 C 259.21108 190.89233 258.84456 190.55715 258.5 190.1875 C 258.18301 190.52758 257.85403 190.82633 257.53125 191.15625 L 257.53125 190.09375 C 257.53125 190.09375 230.66311 211.24146 207.90625 210.90625 C 207.53679 210.90125 207.13208 210.8872 206.75 210.875 C 200.75282 210.37014 192.77171 208.83549 184.46875 206.21875 C 184.48215 206.41499 184.51785 206.61629 184.53125 206.8125 C 175.35141 203.67879 165.90949 198.44127 158.21875 190.09375 C 158.17575 190.14055 158.10576 190.17257 158.0625 190.21875 C 158.0459 190.20045 158.04815 190.2055 158.03125 190.1875 C 145.78764 203.32315 129.09727 208.83221 116.09375 210.4375 C 115.09349 210.561 114.14075 210.63982 113.1875 210.71875 C 112.23424 210.79765 111.30515 210.83728 110.40625 210.875 C 109.78127 210.9013 109.15821 210.89895 108.5625 210.90625 C 95.322585 210.90625 73.801157 206.26069 58.90625 190.09375 z "
     id="path17" />
</svg>
