<?xml version="1.0" encoding="UTF-8" standalone="no"?>
<svg
   xmlns:dc="http://purl.org/dc/elements/1.1/"
   xmlns:cc="http://creativecommons.org/ns#"
   xmlns:rdf="http://www.w3.org/1999/02/22-rdf-syntax-ns#"
   xmlns:svg="http://www.w3.org/2000/svg"
   xmlns="http://www.w3.org/2000/svg"
   xmlns:sodipodi="http://sodipodi.sourceforge.net/DTD/sodipodi-0.dtd"
   xmlns:inkscape="http://www.inkscape.org/namespaces/inkscape"
   width="580"
   height="580"
   id="svg2"
   version="1.1"
   inkscape:version="0.48.4 r9939"
   sodipodi:docname="marine_farm_oysters_mussels_additional.svg">
  <defs
     id="defs13">
    <inkscape:path-effect
       effect="gears"
       id="path-effect3774"
       is_visible="true"
       teeth="6"
       phi="-1.2" />
    <inkscape:path-effect
       effect="bend_path"
       id="path-effect3772"
       is_visible="false"
       bendpath="m 95.790098,316.51174 c 144.429032,-206.42506 223.313032,-11.7428 339.548092,0"
       prop_scale="1.19"
       scale_y_rel="false"
       vertical="false"
       bendpath-nodetypes="cc" />
  </defs>
  <sodipodi:namedview
     pagecolor="#ffffff"
     bordercolor="#666666"
     borderopacity="1"
     objecttolerance="10"
     gridtolerance="10"
     guidetolerance="10"
     inkscape:pageopacity="0"
     inkscape:pageshadow="2"
     inkscape:window-width="1280"
     inkscape:window-height="995"
     id="namedview11"
     showgrid="false"
     inkscape:zoom="0.5754386"
     inkscape:cx="395.73096"
     inkscape:cy="487.42701"
     inkscape:window-x="0"
     inkscape:window-y="0"
     inkscape:window-maximized="1"
     inkscape:current-layer="svg2"
     inkscape:snap-object-midpoints="false"
     inkscape:snap-page="true" />
  <metadata
     id="metadata2975">image/svg+xmlen<rdf:RDF>
  <cc:Work
     rdf:about="">
    <dc:format>image/svg+xml</dc:format>
    <dc:type
       rdf:resource="http://purl.org/dc/dcmitype/StillImage" />
    <dc:title></dc:title>
  </cc:Work>
</rdf:RDF>
</metadata>
  <path
     sodipodi:type="inkscape:offset"
     inkscape:radius="25.382591"
     inkscape:original="M 678.09375 -365.96875 C 651.35377 -365.43208 636.17366 -351.72021 628.75 -332.03125 C 617.68106 -298.41488 638.6875 -246.08917 638.6875 -212.875 C 638.6875 -194.19156 631.48497 -179.72044 623.9375 -169.6875 C 617.54649 -178.61917 611.9375 -191.26139 611.9375 -208.125 C 611.9375 -241.33917 618.79017 -256.23785 619.03125 -270.59375 C 619.27233 -284.94965 619.90045 -349.74795 546.78125 -361.65625 C 546.78125 -361.65625 591.5 -337.47578 591.5 -289.34375 C 591.5 -260.87551 577.28125 -240.50862 577.28125 -206.6875 C 577.28125 -162.91383 585.78125 -152.46875 585.78125 -152.46875 L 637.25 -152.46875 C 637.1968 -152.44005 636.90625 -152.28125 636.90625 -152.28125 L 693.46875 -152.28125 C 693.46875 -152.28125 705.8125 -170.32006 705.8125 -214.09375 C 705.8125 -247.91487 693.46875 -255.438 693.46875 -283.90625 C 693.46875 -332.03828 716.75 -342.40625 716.75 -342.40625 C 692.69301 -342.40625 679.50505 -321.03487 671.65625 -300.40625 C 660.58732 -266.78988 673.5 -243.99543 673.5 -210.78125 C 673.5 -198.90384 670.16394 -188.85504 665.5 -180.625 C 665.64685 -188.29142 665.75 -197.70199 665.75 -209.53125 C 665.75 -243.35237 641.64906 -281.81479 641.96875 -310.28125 C 642.44507 -352.6973 686.75 -365.6875 686.75 -365.6875 C 683.73189 -365.92183 680.85995 -366.02427 678.09375 -365.96875 z "
     style="opacity:0.82648405;color:#000000;fill:#e4e4e4;fill-opacity:1;fill-rule:nonzero;stroke:#a35151;stroke-width:0;stroke-linecap:round;stroke-linejoin:miter;stroke-miterlimit:4;stroke-opacity:1;stroke-dasharray:none;stroke-dashoffset:0;marker:none;visibility:visible;display:inline;overflow:visible;enable-background:accumulate"
     id="path4385"
     d="m 677.59375,-391.34375 c -28.23755,0.56673 -51.20956,15.48217 -64.46875,35.125 -14.62282,-14.34661 -35.23039,-26.09955 -62.25,-30.5 a 25.38513,25.38513 0 0 0 -16.15625,47.375 c 0,0 31.40625,17.58969 31.40625,50 0,10.00826 -2.57281,19.46723 -6.1875,32.5625 -3.61469,13.09527 -8.03125,29.62616 -8.03125,50.09375 0,23.52977 2.2213,39.16152 5.0625,49.96875 1.4206,5.40361 3.01576,9.61276 4.59375,12.90625 1.57799,3.29349 4.53125,7.375 4.53125,7.375 a 25.38513,25.38513 0 0 0 19.6875,9.34375 l 48.1875,0 a 25.38513,25.38513 0 0 0 2.9375,0.1875 l 56.5625,0 a 25.38513,25.38513 0 0 0 20.9375,-11.03125 c 0,0 5.64085,-8.86141 9.5,-21.34375 3.85915,-12.48234 7.28125,-30.53977 7.28125,-54.8125 0,-19.99854 -4.18587,-34.6348 -7.375,-44.625 -3.18913,-9.9902 -4.96875,-14.62198 -4.96875,-25.1875 0,-19.97353 4.53458,-29.0313 7.28125,-33.09375 1.37334,-2.03122 2.41446,-2.88464 2.71875,-3.125 A 25.38513,25.38513 0 0 0 716.75,-367.78125 c -1.59691,0 -3.15745,0.15477 -4.71875,0.28125 a 25.38513,25.38513 0 0 0 -23.3125,-23.5 c -3.68789,-0.28633 -7.38012,-0.41891 -11.125,-0.34375 z"
     transform="translate(-341.74006,567.71189)" />
  <path
     style="color:#000000;fill:#c600d1;fill-opacity:1;fill-rule:nonzero;stroke-width:0.96049488;stroke-linecap:butt;stroke-linejoin:miter;stroke-miterlimit:4;stroke-opacity:1;stroke-dasharray:none;stroke-dashoffset:0;marker:none;visibility:visible;display:inline;overflow:visible;enable-background:accumulate"
     inkscape:connector-curvature="0"
     d="m 375.01855,225.31618 c 0,0 -23.28901,10.36938 -23.28901,58.50141 0,28.46825 12.33337,35.97131 12.33337,69.79243 0,43.77369 -12.33337,61.83574 -12.33337,61.83574 l -56.55901,0 c 0,0 36.59701,-19.19578 36.59701,-58.5014 0,-33.21418 -12.91542,-56.01511 -1.84649,-89.63148 7.8488,-20.62862 21.04051,-41.9967 45.0975,-41.9967 z"
     sodipodi:nodetypes="cssccscc" />
  <path
     style="color:#000000;fill:#c600d1;fill-opacity:1;fill-rule:nonzero;stroke-width:0.96049488;stroke-linecap:butt;stroke-linejoin:miter;stroke-miterlimit:4;stroke-opacity:1;stroke-dasharray:none;stroke-dashoffset:0;marker:none;visibility:visible;display:inline;overflow:visible;enable-background:accumulate"
     inkscape:connector-curvature="0"
     d="m 345.01289,202.01078 c 0,0 -44.29549,12.99706 -44.77181,55.41311 -0.31969,28.46646 23.76533,66.9329 23.76533,100.75402 0,43.77367 -1.37773,56.59608 -1.37773,56.59608 l -57.51168,0 c 0,0 31.83369,-20.62478 31.83369,-59.9304 0,-33.21417 -21.01307,-85.54769 -9.94413,-119.16406 8.19163,-21.72575 25.81315,-36.16832 58.00633,-33.66875 z"
     sodipodi:nodetypes="cssccscc" />
  <path
     style="color:#000000;fill:#c600d1;fill-opacity:1;fill-rule:nonzero;stroke-width:0.96049488;stroke-linecap:butt;stroke-linejoin:miter;stroke-miterlimit:4;stroke-opacity:1;stroke-dasharray:none;stroke-dashoffset:0;marker:none;visibility:visible;display:inline;overflow:visible;enable-background:accumulate"
     inkscape:connector-curvature="0"
     d="m 205.04428,206.06046 c 0,0 44.72395,24.183 44.72395,72.31503 0,28.46824 -14.23869,48.83229 -14.23869,82.65341 0,43.77367 8.52271,54.21441 8.52271,54.21441 l 56.55901,0 c 0,0 -30.40469,-16.33778 -30.40469,-55.64342 0,-33.21417 6.84506,-48.12463 7.08614,-62.48053 0.24108,-14.3559 0.87077,-79.1506 -72.24843,-91.0589 z"
     sodipodi:nodetypes="cssccszc" />
</svg>
