<?xml version="1.0" encoding="UTF-8" standalone="no"?>
<svg
   xmlns:dc="http://purl.org/dc/elements/1.1/"
   xmlns:cc="http://creativecommons.org/ns#"
   xmlns:rdf="http://www.w3.org/1999/02/22-rdf-syntax-ns#"
   xmlns:svg="http://www.w3.org/2000/svg"
   xmlns="http://www.w3.org/2000/svg"
   xmlns:sodipodi="http://sodipodi.sourceforge.net/DTD/sodipodi-0.dtd"
   xmlns:inkscape="http://www.inkscape.org/namespaces/inkscape"
   width="580"
   height="580"
   id="svg2"
   version="1.1"
   inkscape:version="0.48.4 r9939"
   sodipodi:docname="marine_farm_crustaceans_additional.svg">
  <defs
     id="defs13">
    <inkscape:path-effect
       effect="gears"
       id="path-effect3774"
       is_visible="true"
       teeth="6"
       phi="-1.2" />
    <inkscape:path-effect
       effect="bend_path"
       id="path-effect3772"
       is_visible="false"
       bendpath="m 95.790098,316.51174 c 144.429032,-206.42506 223.313032,-11.7428 339.548092,0"
       prop_scale="1.19"
       scale_y_rel="false"
       vertical="false"
       bendpath-nodetypes="cc" />
  </defs>
  <sodipodi:namedview
     pagecolor="#ffffff"
     bordercolor="#666666"
     borderopacity="1"
     objecttolerance="10"
     gridtolerance="10"
     guidetolerance="10"
     inkscape:pageopacity="0"
     inkscape:pageshadow="2"
     inkscape:window-width="1920"
     inkscape:window-height="1004"
     id="namedview11"
     showgrid="false"
     inkscape:zoom="0.5754386"
     inkscape:cx="-171.82132"
     inkscape:cy="485.56922"
     inkscape:window-x="1680"
     inkscape:window-y="0"
     inkscape:window-maximized="1"
     inkscape:current-layer="svg2"
     inkscape:snap-object-midpoints="false"
     inkscape:snap-page="true" />
  <metadata
     id="metadata2975">image/svg+xmlen<rdf:RDF>
  <cc:Work
     rdf:about="">
    <dc:format>image/svg+xml</dc:format>
    <dc:type
       rdf:resource="http://purl.org/dc/dcmitype/StillImage" />
    <dc:title />
  </cc:Work>
</rdf:RDF>
</metadata>
  <path
     style="opacity:0.72727273;color:#000000;fill:#e4e4e4;fill-opacity:1;fill-rule:nonzero;stroke:#a35151;stroke-width:0;stroke-linecap:round;stroke-linejoin:miter;stroke-miterlimit:4;stroke-opacity:1;stroke-dashoffset:0;marker:none;visibility:visible;display:inline;overflow:visible;enable-background:accumulate"
     d="m 248.94531,183.74567 c -1.03353,0.006 -2.0666,0.0939 -3.08608,0.26377 -1.7862,0.29356 -16.64064,2.05252 -29.8322,12.08059 -33.28303,25.28237 -44.14058,62.40808 -29.96408,87.54471 -3.82112,0.98497 -8.15594,1.97835 -7.25364,1.52986 1.47773,-0.73452 -10.43696,8.97254 -9.41653,7.67565 1.02044,-1.29687 -5.58889,12.55542 -5.22261,10.9464 0.35672,-1.56701 0.33274,12.57045 0,11.84319 l -0.10551,0.0263 c -0.22017,-1.06738 0.61856,5.61979 3.66639,11.86957 0.87824,1.80092 1.87899,3.48741 2.98057,5.06436 -0.25396,0.2121 -1.03266,1.00229 -0.92319,0.87043 0.64601,-0.77808 -4.3703,7.27959 -3.95652,6.35682 0.41378,-0.92278 -2.26142,8.17442 -2.11015,7.1745 0.15128,-0.99993 0.0168,8.46851 -0.10551,7.46464 -0.1223,-1.00388 2.28608,8.18797 1.89914,7.25362 -0.3729,-0.90043 3.87608,6.38686 3.64,6.22494 l -0.0263,0.0263 c 0.03,0.0395 0.0754,0.0662 0.10551,0.10551 -0.007,-0.008 0.0625,0.11803 0.0527,0.10551 l 0.0263,-0.0263 c 6.08949,7.91596 14.85545,13.98599 25.53277,16.59103 -4.03639,6.89086 -6.46,14.84334 -6.59421,23.39625 l -0.0527,0 c 8.4e-4,-0.0251 0.0243,0.20129 0.0263,0.18464 -0.002,0.18675 -0.0263,0.36664 -0.0263,0.55392 l 0.15825,0 c 0.31216,0.41205 2.15966,11.45959 1.66175,10.15507 -0.53427,-1.39974 6.9478,10.41647 5.90841,9.33741 -1.0394,-1.07907 10.47878,6.83759 9.10001,6.25131 -1.37878,-0.58629 12.31274,2.21565 10.8145,2.21565 -1.49825,0 12.19327,-2.80194 10.8145,-2.21565 -1.37877,0.58628 10.1394,-7.33038 9.10001,-6.25131 -1.0394,1.07906 6.44267,-10.73715 5.90841,-9.33741 -0.26062,0.68282 0.16636,-2.31915 0.65941,-5.32812 1.21172,-0.61772 4.32365,-1.90874 8.96814,-3.74551 2.5092,2.17876 5.26164,4.57434 8.54608,7.09537 6.95634,5.33949 17.39327,11.23653 30.12235,11.23653 12.72908,0 23.16783,-5.92387 30.12234,-11.2629 3.28331,-2.52061 6.03774,-4.89121 8.5461,-7.069 14.24457,17.78881 23.63511,27.17297 44.42953,23.48762 20.79439,-3.68535 18.66386,-24.56906 18.66386,-24.56906 -1.46681,-11.03516 -2.49297,-17.04283 -6.64697,-24.13481 10.67799,-2.60536 19.44297,-8.67461 25.53277,-16.59103 l 0.0263,0.0263 c -0.0102,0.0124 0.0601,-0.11388 0.0527,-0.10551 0.0301,-0.0394 0.0756,-0.0661 0.1055,-0.10551 l -0.0263,-0.0263 c -0.27608,0.20422 4.17871,-7.60883 3.79826,-6.64696 -0.39395,0.99598 1.91545,-8.76884 1.82,-7.70204 -0.0955,1.0668 -0.63292,-8.96315 -0.42203,-7.91305 0.2109,1.05011 -3.16399,-8.41188 -2.66406,-7.46464 0.4379,0.82969 -3.47262,-4.57451 -4.08841,-5.59189 -0.002,-0.003 0.002,-0.0234 0,-0.0263 1.10159,-1.57695 2.10233,-3.26344 2.98059,-5.06436 3.04781,-6.24978 3.88655,-12.93695 3.66637,-11.86957 l -0.10551,-0.0263 c -0.34215,0.7554 -0.42892,-13.64721 -0.0527,-12.05422 0.38609,1.63498 -6.49351,-12.38168 -5.43363,-11.07827 1.05989,1.30341 -11.28132,-8.30792 -9.75942,-7.59653 1.19017,0.55633 -6.25403,-1.06456 -9.46928,-1.92551 0.53728,-4.76898 0.50776,-9.15628 -0.23739,-13.16204 -0.40869,-2.19697 -0.96612,-4.29821 -2.08377,-6.8316 0.0873,-25.229 -18.4585,-51.24037 -51.59309,-65.44092 -15.24127,-6.52661 -30.10507,-4.63372 -31.91597,-4.48406 -7.11028,0.59308 -13.69928,5.44199 -16.38001,12.05421 -0.93435,0.10845 -1.86078,0.28492 -2.76957,0.52754 -0.54917,-1.21076 -1.09436,-2.41821 -1.7145,-3.61363 -1.81671,-3.4983 -4.7264,-6.41902 -8.21781,-8.24896 -3.49139,-1.82995 -7.54878,-2.56088 -11.4593,-2.06438 -3.59596,-4.92434 -9.62306,-7.97834 -15.7206,-7.96581 z m -5.61826,225.12628 0.0791,0 c -0.0306,0.16344 -0.14578,0.39649 -0.21102,0.65942 0.0329,-0.11698 0.1116,-0.63264 0.13189,-0.65942 z"
     id="path4136"
     inkscape:connector-curvature="0"
     sodipodi:nodetypes="ccccsssccscssssscccccccccccsssssssccsssczcccccccssssccsccssscsccccccscccccccc" />
  <path
     style="color:#000000;fill:#c600d1;fill-opacity:1;fill-rule:nonzero;stroke-width:0.96049488000000005;stroke-linecap:butt;stroke-linejoin:miter;stroke-miterlimit:4;stroke-opacity:1;stroke-dasharray:none;stroke-dashoffset:0;marker:none;visibility:visible;display:inline;overflow:visible;enable-background:accumulate"
     d="m 248.99807,203.15903 c -2.9562,0.48583 -12.54593,1.78374 -21.23335,8.38783 -32.38494,24.60017 -33.33848,56.49415 -19.75625,69.00179 0.75275,7.35894 4.48457,17.0109 15.4832,24.50408 0.35408,5.25225 6.20388,11.60226 14.50726,14.74464 -0.83162,1.54745 -1.69674,3.20137 -2.53218,4.93248 -19.6263,-4.69319 -29.43512,-8.52695 -33.15567,-10.89364 -2.03699,-1.29574 -2.16878,-1.74491 -2.32117,-2.05739 -0.15238,-0.31247 -0.32822,-1.15767 -0.7913,-3.40261 a 8.2353445,8.2353445 0 0 0 -8.22958,-6.67333 8.2353445,8.2353445 0 0 0 -7.88667,10.02319 c 0.29449,1.42766 0.54794,4.0766 2.11015,7.28001 1.5622,3.2034 4.42442,6.27668 8.28232,8.73073 6.72419,4.27731 16.83327,7.8971 35.37133,12.37073 -1.15289,2.92194 -2.34301,5.99054 -3.56086,9.28464 -0.18934,0.51185 -0.35744,1.03119 -0.50117,1.52987 -10.48587,-0.0427 -17.26142,-0.22657 -20.81132,-0.87044 -4.10917,-0.7453 -3.98727,-0.78623 -6.27768,-3.79827 a 8.2353445,8.2353445 0 0 0 -7.14813,-3.34985 8.2353445,8.2353445 0 0 0 -5.96116,13.29392 c 3.72079,4.89307 9.55876,8.82438 16.45915,10.07595 6.7087,1.2168 14.77207,1.13943 27.72205,1.13421 2.4388,3.00085 5.71385,5.87266 9.52204,8.78348 -6.89587,2.54731 -12.7773,5.18187 -17.778,8.6516 -7.70078,5.3432 -12.89827,14.07549 -12.89827,24.0293 a 8.2353445,8.2353445 0 1 0 16.45915,0 c 0,-5.48592 1.11035,-7.22376 5.82928,-10.49799 4.63103,-3.21323 13.20283,-6.5643 25.00524,-10.49797 12.3207,8.69569 20.64458,20.99596 35.05481,20.99596 14.41022,0 22.72644,-12.30027 35.05481,-20.99596 11.80602,3.93365 20.37336,7.28469 25.00524,10.49797 4.71979,3.2743 5.8029,5.01207 5.8029,10.49799 a 8.2427605,8.2427605 0 0 0 16.48552,0 c 0,-9.95381 -5.19629,-18.68615 -12.89827,-24.0293 -5.00146,-3.4697 -10.88247,-6.10429 -17.77798,-8.6516 3.80739,-2.91082 7.08299,-5.78263 9.52203,-8.78348 12.95357,0.005 21.01387,0.0827 27.72206,-1.13421 6.89984,-1.2517 12.73945,-5.18432 16.45914,-10.07595 a 8.2353445,8.2353445 0 0 0 -7.01624,-13.29392 8.2353445,8.2353445 0 0 0 -6.09304,3.34985 c -2.29152,3.01349 -2.17005,3.0531 -6.27769,3.79827 -3.54858,0.64374 -10.32336,0.8277 -20.81133,0.87044 -0.14348,-0.49869 -0.31209,-1.01801 -0.50115,-1.52987 -1.21786,-3.2941 -2.40798,-6.3627 -3.56088,-9.28464 18.53808,-4.47363 28.64715,-8.09342 35.37134,-12.37073 3.85791,-2.45405 6.72012,-5.52733 8.28232,-8.73073 1.5622,-3.20341 1.81566,-5.85235 2.11015,-7.28001 a 8.2353445,8.2353445 0 0 0 -8.15045,-10.02319 8.2353445,8.2353445 0 0 0 -7.99217,6.67333 c -0.46309,2.24494 -0.61254,3.09014 -0.76493,3.40261 -0.15239,0.31248 -0.28418,0.76165 -2.32116,2.05739 -3.7221,2.36766 -13.53944,6.19779 -33.18206,10.89364 -0.83485,-1.72982 -1.67473,-3.38607 -2.50579,-4.93248 8.30336,-3.14238 14.15316,-9.49239 14.50726,-14.74464 20.28161,-13.81753 15.90452,-34.99435 13.55768,-35.5296 -0.59595,0.53852 -1.17466,1.05542 -1.74087,1.55624 4.60958,-16.4303 -6.08719,-41.67288 -38.77395,-55.6815 -10.03788,-4.29842 -19.66856,-3.22761 -22.65769,-2.98058 3.79611,4.76779 21.39781,26.08367 22.65769,34.6064 -10.05435,-0.43642 -30.60155,-16.18537 -38.32553,-22.6577 -3.73025,13.30699 7.49539,41.93747 23.39625,51.77773 3.97235,2.46083 12.56157,7.06382 21.89277,9.3374 2.41821,5.34574 -3.01522,6.7599 2.03102,14.92928 -3.72931,0.14357 -6.89869,1.23482 -9.33741,2.45306 -9.32349,-7.78197 -20.90818,-9.28465 -39.16959,-9.28465 -18.26141,0 -29.8461,1.50268 -39.1696,9.28465 -2.43978,-1.21906 -5.60949,-2.30941 -9.3374,-2.45306 5.40185,-8.74506 2.82105,-10.42478 3.1916,-16.35363 -2.16347,-0.19587 -4.14274,-0.43605 -5.98754,-0.68579 9.43046,-3.53326 17.6064,-9.3864 20.9432,-12.81915 13.04348,-13.4058 17.87643,-39.61656 7.5174,-59.58526 -5.92063,8.14392 -22.0541,28.38269 -31.70495,31.25654 -0.84815,-8.57214 11.05607,-33.51403 13.58407,-39.06408 z m 36.05713,106.9053 c 1.55582,-0.011 3.18199,0 4.90609,0 27.59388,0 32.5525,-0.0159 49.21917,45.05163 0.0988,0.2635 0.15993,0.45175 0.18463,0.50116 -1.32574,3.41732 -11.83371,10.58353 -18.83305,15.35131 l -4.35217,2.98059 c -4.52899,3.12088 -8.42756,6.52468 -11.86959,9.52204 -6.55468,5.69829 -10.4376,8.91537 -14.34899,8.91537 -3.91141,0 -7.80256,-3.21708 -14.349,-8.91537 -3.44203,-3.0056 -7.34883,-6.40116 -11.86957,-9.52204 l -4.3258,-2.98059 c -7.08993,-4.83365 -17.81365,-12.13637 -18.85944,-15.16667 0,0 0.0117,-0.21644 0.18464,-0.6858 15.61728,-42.25082 20.97578,-44.88659 44.31308,-45.05163 z"
     id="path5"
     inkscape:connector-curvature="0" />
</svg>
