<?xml version="1.0" encoding="UTF-8" standalone="no"?>
<svg
   xmlns:dc="http://purl.org/dc/elements/1.1/"
   xmlns:cc="http://creativecommons.org/ns#"
   xmlns:rdf="http://www.w3.org/1999/02/22-rdf-syntax-ns#"
   xmlns:svg="http://www.w3.org/2000/svg"
   xmlns="http://www.w3.org/2000/svg"
   xmlns:sodipodi="http://sodipodi.sourceforge.net/DTD/sodipodi-0.dtd"
   xmlns:inkscape="http://www.inkscape.org/namespaces/inkscape"
   width="320"
   height="320"
   id="svg2"
   version="1.1"
   inkscape:version="0.48.4 r9939"
   sodipodi:docname="mooring_pylon.svg">
  <defs
     id="defs13">
    <inkscape:path-effect
       effect="gears"
       id="path-effect3774"
       is_visible="true"
       teeth="6"
       phi="-1.2" />
    <inkscape:path-effect
       effect="bend_path"
       id="path-effect3772"
       is_visible="false"
       bendpath="m 95.790098,316.51174 c 144.429032,-206.42506 223.313032,-11.7428 339.548092,0"
       prop_scale="1.19"
       scale_y_rel="false"
       vertical="false"
       bendpath-nodetypes="cc" />
    <inkscape:path-effect
       effect="spiro"
       id="path-effect3775-7"
       is_visible="true" />
    <inkscape:path-effect
       effect="spiro"
       id="path-effect3775-7-9"
       is_visible="true" />
    <inkscape:path-effect
       effect="spiro"
       id="path-effect3775-7-4"
       is_visible="true" />
    <inkscape:path-effect
       effect="spiro"
       id="path-effect3775-7-4-2"
       is_visible="true" />
  </defs>
  <sodipodi:namedview
     pagecolor="#ffffff"
     bordercolor="#666666"
     borderopacity="1"
     objecttolerance="10"
     gridtolerance="10"
     guidetolerance="10"
     inkscape:pageopacity="0"
     inkscape:pageshadow="2"
     inkscape:window-width="1920"
     inkscape:window-height="1004"
     id="namedview11"
     showgrid="true"
     inkscape:zoom="2.3017543"
     inkscape:cx="203.97769"
     inkscape:cy="196.82015"
     inkscape:window-x="1680"
     inkscape:window-y="0"
     inkscape:window-maximized="1"
     inkscape:current-layer="svg2"
     inkscape:snap-bbox="true"
     inkscape:object-nodes="true"
     inkscape:snap-midpoints="true"
     inkscape:snap-grids="true"
     inkscape:snap-bbox-edge-midpoints="true"
     showguides="true"
     inkscape:guide-bbox="true"
     inkscape:snap-global="true">
    <inkscape:grid
       type="xygrid"
       id="grid2990"
       empspacing="5"
       visible="true"
       enabled="true"
       snapvisiblegridlinesonly="true"
       spacingx="10px"
       spacingy="10px"
       dotted="false" />
    <sodipodi:guide
       orientation="1,0"
       position="55.202458,260.58927"
       id="guide3872" />
    <sodipodi:guide
       orientation="1,0"
       position="265.17816,340"
       id="guide3874" />
    <sodipodi:guide
       orientation="0,1"
       position="317.80107,264.96094"
       id="guide3876" />
    <sodipodi:guide
       orientation="0,1"
       position="325.098,54.759006"
       id="guide3878" />
  </sodipodi:namedview>
  <metadata
     id="metadata2975">image/svg+xmlen<rdf:RDF>
  <cc:Work
     rdf:about="">
    <dc:format>image/svg+xml</dc:format>
    <dc:type
       rdf:resource="http://purl.org/dc/dcmitype/StillImage" />
    <dc:title />
  </cc:Work>
</rdf:RDF>
</metadata>
  <path
     style="font-size:medium;font-style:normal;font-variant:normal;font-weight:normal;font-stretch:normal;text-indent:0;text-align:start;text-decoration:none;line-height:normal;letter-spacing:normal;word-spacing:normal;text-transform:none;direction:ltr;block-progression:tb;writing-mode:lr-tb;text-anchor:start;baseline-shift:baseline;opacity:0.42608696;color:#000000;fill:#acd8f3;fill-opacity:1;fill-rule:nonzero;stroke:#a35151;stroke-width:0;stroke-linecap:round;stroke-linejoin:miter;stroke-miterlimit:4;stroke-opacity:1;stroke-dashoffset:0;marker:none;visibility:visible;display:inline;overflow:visible;enable-background:accumulate;font-family:Sans;-inkscape-font-specification:Sans"
     d="m 133.84375,72.5625 c -0.146,0.0078 -0.29187,0.01825 -0.4375,0.03125 0.52719,-0.05151 -4.1603,0.944096 -3.65625,0.78125 0.33732,-0.108981 -1.16049,0.51355 -2.28125,1 l -0.0312,-0.0625 c 0.15652,-0.07154 -1.2449,0.644796 -1.09375,0.5625 -0.30997,0.174377 -0.61243,0.362109 -0.90625,0.5625 -0.0419,0.03099 -0.0835,0.06224 -0.125,0.09375 -0.0334,0.02471 -0.11359,0.082 -0.21875,0.15625 -0.0313,0.01029 -0.0626,0.02071 -0.0938,0.03125 0.0273,-0.01982 -0.0808,0.07614 -0.1875,0.15625 -0.0146,0.0096 -0.0703,0.03659 -0.0625,0.03125 -0.0104,0.0104 -0.0208,0.02081 -0.0312,0.03125 -0.0805,0.06024 -0.17813,0.141948 -0.15625,0.125 -0.0613,0.04191 -0.2471,0.146499 -0.21875,0.125 l 0.0312,0.03125 c -0.36922,0.261567 -0.7241,0.54338 -1.0625,0.84375 0.066,-0.06148 -0.21211,0.181022 -0.46875,0.4375 l 0,0.03125 c 0.002,-0.0014 -0.35578,0.32569 -0.3125,0.28125 -0.008,0.0077 -0.0288,0.06049 -0.0312,0.0625 -0.0104,0.0104 -0.0208,0.02081 -0.0312,0.03125 10e-4,-0.0015 -0.0355,0.0358 -0.0312,0.03125 -0.0817,0.08227 -0.28644,0.287423 -0.25,0.25 -0.27779,0.315375 -0.67574,0.787039 -0.59375,0.6875 -0.042,0.04137 -0.0836,0.08304 -0.125,0.125 0.2783,-0.340825 -1.9633,2.947361 -1.75,2.5625 0.2133,-0.384861 -1.3915,3.260393 -1.25,2.84375 0.1415,-0.416643 -0.78395,3.466409 -0.71875,3.03125 0.0211,-0.140673 -0.0383,0.517425 -0.0625,1 l -0.0312,0 -2.21875,15.875 C 107.88605,100.08324 99.217288,97.625 90,97.625 c -28.767541,0 -52.375,23.60746 -52.375,52.375 0,28.76753 23.607455,52.375 52.375,52.375 4.117145,0 8.080768,-0.61707 11.9375,-1.53125 l -3.75,26.75 c 0,0 -2.993222,16.7782 14.12447,19.53654 17.11769,2.75835 20.34428,-14.72404 20.34428,-14.72404 l 9.96875,-71.3125 0,68.71875 0,0.1875 c 0.0419,0.0119 0.36567,3.70367 0.28125,3.25 -0.0892,-0.47966 1.15067,3.76521 0.96875,3.3125 -0.18192,-0.45271 1.86121,3.43929 1.59375,3.03125 -0.26746,-0.40804 2.49879,3.03492 2.15625,2.6875 -0.34254,-0.34742 3.02922,2.4607 2.625,2.1875 -0.40422,-0.2732 3.48134,1.84455 3.03125,1.65625 -0.45009,-0.1883 3.7596,1.09603 3.28125,1 -0.47835,-0.096 3.92539,0.34375 3.4375,0.34375 -0.48789,0 3.91585,-0.43978 3.4375,-0.34375 -0.47835,0.096 3.73134,-1.1883 3.28125,-1 -0.45009,0.1883 3.43547,-1.92945 3.03125,-1.65625 -0.40422,0.2732 2.96754,-2.53492 2.625,-2.1875 -0.34254,0.34742 2.42371,-3.09554 2.15625,-2.6875 -0.26746,0.40804 1.77567,-3.48396 1.59375,-3.03125 -0.18192,0.45271 1.058,-3.79216 0.96875,-3.3125 -0.0844,0.45367 0.2394,-3.23809 0.28125,-3.25 0.002,-6.8e-4 -3.7e-4,-0.21393 0,-0.1875 l 0,-47.8125 5.3125,49.40625 0.0312,0.4375 0.0312,0 c 0.12164,0.51748 0.61546,3.41645 0.5,3 -0.13223,-0.47695 1.50603,3.69095 1.28125,3.25 -0.22478,-0.44095 2.18328,3.29345 1.875,2.90625 -0.30828,-0.3872 2.81688,2.81787 2.4375,2.5 -0.37938,-0.31787 3.34144,2.20448 2.90625,1.96875 -0.43519,-0.23573 3.69224,1.48786 3.21875,1.34375 -0.47349,-0.14411 3.89898,0.73419 3.40625,0.6875 -0.49273,-0.0467 3.99213,-0.0839 3.5,-0.0312 -0.49213,0.0526 3.87797,-0.86855 3.40625,-0.71875 -0.47172,0.1498 3.65107,-1.61596 3.21875,-1.375 -0.43232,0.24096 3.21927,-2.32241 2.84375,-2 -0.37552,0.32241 2.70985,-2.92214 2.40625,-2.53125 -0.3036,0.39089 2.0632,-3.38113 1.84375,-2.9375 -0.21945,0.44363 1.37647,-3.75976 1.25,-3.28125 -0.12647,0.47851 0.55966,-3.93162 0.53125,-3.4375 -0.0246,0.42788 -0.13181,-2.45838 -0.125,-3.03125 l 0.0312,0 -0.0625,-0.46875 L 202.375,89.125 c -0.0229,-0.751753 -0.0883,-1.568589 -0.0625,-1.375 0.0633,0.475025 -0.93516,-3.766329 -0.78125,-3.3125 0.15391,0.453829 -1.61376,-3.478003 -1.375,-3.0625 0.0551,0.09596 -0.29907,-0.396719 -0.46875,-0.625 -0.0409,-0.07334 -0.0826,-0.14626 -0.125,-0.21875 -0.37175,-0.640853 -0.80112,-1.248262 -1.28125,-1.8125 -0.0311,-0.03142 -0.0623,-0.06267 -0.0937,-0.09375 -0.0513,-0.07348 -0.10338,-0.146401 -0.15625,-0.21875 0.11553,0.127355 -0.50389,-0.498742 -0.875,-0.875 -0.007,-0.0067 0.006,-0.02478 0,-0.03125 0.0114,0.01118 -0.0998,-0.06965 -0.0937,-0.0625 -0.0782,-0.0802 -0.28639,-0.28301 -0.25,-0.25 l -0.0312,0.03125 C 196.38828,77.036485 192.64152,74.390345 193,74.53125 L 193,74.5 c 0.0124,0.0065 -0.10035,-0.03547 -0.0937,-0.03125 0.28265,0.180744 -4.55381,-1.605516 -3.96875,-1.46875 0.59871,0.139958 -4.92723,-0.425185 -4.3125,-0.4375 -0.0312,-1.18e-4 -0.0625,-1.18e-4 -0.0937,0 0.0922,-0.0027 -0.37311,0.03289 -0.65625,0.0625 l -23.03125,0 c -0.0822,-0.008 -0.12506,0.0065 -0.1875,0 -0.17874,-0.01869 -0.60701,-0.0636 -0.53125,-0.0625 -0.17706,-0.0038 -0.35419,-0.0038 -0.53125,0 0.0922,-0.0027 -0.37311,0.03289 -0.65625,0.0625 l -23.15625,0 0,0.03125 c -1.09994,-0.0607 -2.21158,-0.07672 -1.9375,-0.09375 z M 90,132.375 c 9.98585,0 17.625,7.63913 17.625,17.625 0,9.98584 -7.63916,17.625 -17.625,17.625 -9.985854,0 -17.625,-7.63915 -17.625,-17.625 0,-9.98587 7.639136,-17.625 17.625,-17.625 z"
     inkscape:connector-curvature="0"
     sodipodi:nodetypes="ccscccccccccccccccccccccccssccccssscczcccccssssscscssssscccccccssssssccssssssscccccsccccccccccccccsccccccccccccsssss" />
  <path
     style="fill:none;stroke:#000000;stroke-width:10;stroke-linecap:round;stroke-linejoin:round;stroke-miterlimit:4;stroke-opacity:1;stroke-dasharray:none"
     d="M 135,90 115.42683,230"
     inkscape:connector-curvature="0"
     sodipodi:nodetypes="cc"
     id="path18" />
  <path
     sodipodi:type="arc"
     style="color:#000000;fill:none;stroke:#000000;stroke-width:12.00130653;stroke-linecap:butt;stroke-linejoin:miter;stroke-miterlimit:4;stroke-opacity:1;stroke-dasharray:none;stroke-dashoffset:0;marker:none;visibility:visible;display:inline;overflow:visible;enable-background:accumulate"
     id="path2993"
     sodipodi:cx="142.00458"
     sodipodi:cy="152.00458"
     sodipodi:rx="42.00457"
     sodipodi:ry="42.00457"
     d="m 184.00915,152.00458 a 42.00457,42.00457 0 1 1 -84.00914,0 42.00457,42.00457 0 1 1 84.00914,0 z"
     transform="matrix(0.83324267,0,0,0.83324267,-28.324273,23.3433)" />
  <path
     id="path3942"
     style="fill:none;stroke:#000000;stroke-width:10;stroke-linecap:round;stroke-linejoin:round;stroke-miterlimit:4;stroke-opacity:1;stroke-dasharray:none"
     d="m 185,90 15,140"
     inkscape:connector-curvature="0"
     sodipodi:nodetypes="cc" />
  <path
     id="path3961"
     style="fill:none;stroke:#000000;stroke-width:10;stroke-linecap:round;stroke-linejoin:round;stroke-miterlimit:4;stroke-opacity:1;stroke-dasharray:none"
     d="m 160,90 0,140"
     inkscape:connector-curvature="0"
     sodipodi:nodetypes="cc" />
  <path
     id="path3980"
     style="fill:none;stroke:#000000;stroke-width:10;stroke-linecap:round;stroke-linejoin:round;stroke-miterlimit:4;stroke-opacity:1;stroke-dasharray:none"
     d="m 185,90 -50,0"
     inkscape:connector-curvature="0"
     sodipodi:nodetypes="cc" />
</svg>
