<?xml version="1.0" encoding="UTF-8" standalone="no"?>
<svg
   xmlns:dc="http://purl.org/dc/elements/1.1/"
   xmlns:cc="http://creativecommons.org/ns#"
   xmlns:rdf="http://www.w3.org/1999/02/22-rdf-syntax-ns#"
   xmlns:svg="http://www.w3.org/2000/svg"
   xmlns="http://www.w3.org/2000/svg"
   xmlns:sodipodi="http://sodipodi.sourceforge.net/DTD/sodipodi-0.dtd"
   xmlns:inkscape="http://www.inkscape.org/namespaces/inkscape"
   width="320"
   height="320"
   id="svg2"
   version="1.1"
   inkscape:version="0.48.4 r9939"
   sodipodi:docname="notice_prohibition_nounpoweredcraft .svg">
  <defs
     id="defs13">
    <inkscape:path-effect
       effect="gears"
       id="path-effect3774"
       is_visible="true"
       teeth="6"
       phi="-1.2" />
    <inkscape:path-effect
       effect="bend_path"
       id="path-effect3772"
       is_visible="false"
       bendpath="m 95.790098,316.51174 c 144.429032,-206.42506 223.313032,-11.7428 339.548092,0"
       prop_scale="1.19"
       scale_y_rel="false"
       vertical="false"
       bendpath-nodetypes="cc" />
    <inkscape:path-effect
       effect="spiro"
       id="path-effect3775"
       is_visible="true" />
    <inkscape:path-effect
       effect="spiro"
       id="path-effect3775-9"
       is_visible="true" />
    <inkscape:path-effect
       effect="spiro"
       id="path-effect3775-3"
       is_visible="true" />
    <inkscape:path-effect
       effect="spiro"
       id="path-effect3775-3-4"
       is_visible="true" />
  </defs>
  <sodipodi:namedview
     pagecolor="#ffffff"
     bordercolor="#666666"
     borderopacity="1"
     objecttolerance="10"
     gridtolerance="10"
     guidetolerance="10"
     inkscape:pageopacity="0"
     inkscape:pageshadow="2"
     inkscape:window-width="1920"
     inkscape:window-height="1004"
     id="namedview11"
     showgrid="true"
     inkscape:zoom="2"
     inkscape:cx="190.92521"
     inkscape:cy="143.86528"
     inkscape:window-x="1680"
     inkscape:window-y="0"
     inkscape:window-maximized="1"
     inkscape:current-layer="svg2"
     inkscape:snap-bbox="true"
     inkscape:object-nodes="true"
     inkscape:snap-midpoints="true"
     inkscape:snap-grids="false"
     inkscape:snap-bbox-edge-midpoints="true"
     showguides="true"
     inkscape:guide-bbox="true"
     inkscape:snap-center="true"
     inkscape:snap-object-midpoints="true">
    <inkscape:grid
       type="xygrid"
       id="grid2990"
       empspacing="5"
       visible="true"
       enabled="true"
       snapvisiblegridlinesonly="true"
       spacingx="10px"
       spacingy="10px"
       dotted="false" />
    <sodipodi:guide
       orientation="1,0"
       position="55.202458,260.58927"
       id="guide3872" />
    <sodipodi:guide
       orientation="1,0"
       position="265.17816,340"
       id="guide3874" />
    <sodipodi:guide
       orientation="0,1"
       position="325.098,54.759006"
       id="guide3878" />
  </sodipodi:namedview>
  <metadata
     id="metadata2975">image/svg+xmlen<rdf:RDF>
  <cc:Work
     rdf:about="">
    <dc:format>image/svg+xml</dc:format>
    <dc:type
       rdf:resource="http://purl.org/dc/dcmitype/StillImage" />
    <dc:title></dc:title>
  </cc:Work>
</rdf:RDF>
</metadata>
  <g
     id="g11052"
     transform="matrix(0.49490287,0,0,0.49490287,-236.83023,97.85997)"
     style="fill:#000000;fill-opacity:1">
    <path
       inkscape:connector-curvature="0"
       style="fill:#000000;fill-opacity:1"
       d="m 932.34765,264.02941 c -5.69258,0 -11.18541,-1.2983 -16.07903,-3.49544 -4.99349,-2.33029 -10.65277,-3.69518 -16.54508,-3.69518 -5.89232,0 -11.5516,1.36489 -16.54509,3.69518 -4.89361,2.19714 -10.38645,3.49544 -16.07902,3.49544 -5.69258,0 -11.2187,-1.2983 -16.07903,-3.49544 -4.99348,-2.33029 -10.65277,-3.69518 -16.57837,-3.69518 -5.85902,0 -11.51831,1.36489 -16.54508,3.69518 -4.86033,2.19714 -10.38646,3.49544 -16.07903,3.49544 -5.69257,0 -11.18541,-1.2983 -16.04573,-3.49544 -5.02678,-2.33029 -10.65277,-3.69518 -16.57838,-3.69518 -5.89231,0 -11.51831,1.36489 -16.54508,3.69518 -4.89362,2.19714 -10.38645,3.49544 -16.07903,3.49544 -5.69257,0 -11.18541,-1.2983 -16.07902,-3.49544 -4.99349,-2.33029 -10.65277,-3.69518 -16.54509,-3.69518 -5.9256,0 -11.55159,1.36489 -16.54508,3.69518 -4.89362,2.19714 -10.38645,3.49544 -16.07902,3.49544 v -24.13518 c 5.72586,0 11.1854,-1.29831 16.07902,-3.49544 4.99349,-2.26371 10.61948,-3.6286 16.54508,-3.6286 5.89232,0 11.5516,1.36489 16.54509,3.6286 4.89361,2.19713 10.38645,3.49544 16.07902,3.49544 5.69258,0 11.18541,-1.29831 16.07903,-3.49544 5.02677,-2.26371 10.65277,-3.6286 16.54508,-3.6286 5.92561,0 11.5516,1.36489 16.57838,3.6286 4.86032,2.19713 10.38645,3.49544 16.04573,3.49544 5.72586,0 11.2187,-1.29831 16.07903,-3.49544 5.02677,-2.26371 10.68606,-3.6286 16.54508,-3.6286 5.9256,0 11.58489,1.36489 16.57837,3.6286 4.86033,2.19713 10.38645,3.49544 16.07903,3.49544 5.69257,0 11.18541,-1.29831 16.07902,-3.49544 4.99349,-2.26371 10.65277,-3.6286 16.54509,-3.6286 5.89231,0 11.55159,1.36489 16.54508,3.6286 4.89362,2.19713 10.41974,3.49544 16.07903,3.49544 v 24.13518 z"
       id="path5665" />
    <path
       inkscape:connector-curvature="0"
       style="fill:#000000;fill-opacity:1"
       d="m 768.76104,196.21787 h -45.24098 c -6.65798,0 -12.45043,-3.9615 -15.04704,-9.68736 L 691.7282,148.38028 c -0.3329,-1.29831 -0.49935,-2.59662 -0.49935,-3.9615 0,-9.15473 7.42365,-16.57838 16.54508,-16.57838 l 36.75206,-0.0666 25.23375,-11.45172 c 0.39948,-0.26632 1.43147,-0.53264 2.53003,-0.53264 4.32769,0 7.85642,3.56202 7.85642,7.85642 0,2.66319 -1.36488,5.06006 -3.39557,6.49153 l -27.43088,12.35055 c -1.83095,1.43147 -5.25981,1.63121 -5.25981,1.63121 h -16.51179 l 13.8486,30.75987 h 30.59342 l 0,0 c 3.02939,0 5.12665,1.03199 6.99088,2.6632 l 29.96092,28.46287 0,0 c 4.19453,3.89491 4.42756,10.45303 0.53264,14.68084 -3.92821,4.16124 -10.48632,4.42756 -14.68085,0.53264 l 0,0 -26.03271,-25.00072 z"
       id="path5667" />
    <path
       inkscape:connector-curvature="0"
       style="fill:#000000;fill-opacity:1"
       d="m 909.77709,144.51865 c 0.59922,0.9654 1.99739,1.36488 3.2957,1.36488 2.53003,0 4.6273,-2.09726 4.6273,-4.69387 0,-1.23173 -0.59922,-2.3303 -1.13186,-3.39557 C 888.27181,83.831147 811.90476,99.876882 802.5503,103.40561 c -1.56463,0.59922 -2.46345,2.3303 -2.46345,4.09466 0,2.53003 2.09726,4.6273 4.62729,4.6273 0.76567,0 1.16515,-0.0666 1.86424,-0.26632 74.83571,-16.811404 99.20392,25.83297 103.19871,32.6574 z m 13.01635,4.86032 -95.77506,60.3879 -87.18627,-222.676193 c 78.03155,10.3531613 177.23547,70.940792 182.96133,162.288293 z"
       id="path5669" />
    <circle
       transform="matrix(33.289907,0,0,33.289907,111.2188,-22801.382)"
       style="fill:#000000;fill-opacity:1"
       sodipodi:ry="0.47499999"
       sodipodi:rx="0.47499999"
       sodipodi:cy="688.19897"
       sodipodi:cx="17.663"
       d="m 18.138,688.19897 c 0,0.26234 -0.212665,0.475 -0.475,0.475 -0.262335,0 -0.475,-0.21266 -0.475,-0.475 0,-0.26233 0.212665,-0.475 0.475,-0.475 0.262335,0 0.475,0.21267 0.475,0.475 z"
       cx="17.663"
       cy="688.19897"
       r="0.47499999"
       id="circle5671" />
  </g>
</svg>
