<?xml version="1.0" encoding="UTF-8" standalone="no"?>
<svg
   xmlns:dc="http://purl.org/dc/elements/1.1/"
   xmlns:cc="http://creativecommons.org/ns#"
   xmlns:rdf="http://www.w3.org/1999/02/22-rdf-syntax-ns#"
   xmlns:svg="http://www.w3.org/2000/svg"
   xmlns="http://www.w3.org/2000/svg"
   xmlns:sodipodi="http://sodipodi.sourceforge.net/DTD/sodipodi-0.dtd"
   xmlns:inkscape="http://www.inkscape.org/namespaces/inkscape"
   width="320"
   height="320"
   id="svg2"
   version="1.1"
   inkscape:version="0.48.4 r9939"
   sodipodi:docname="notice_information_sailboardspermitted.svg">
  <defs
     id="defs13">
    <inkscape:path-effect
       effect="gears"
       id="path-effect3774"
       is_visible="true"
       teeth="6"
       phi="-1.2" />
    <inkscape:path-effect
       effect="bend_path"
       id="path-effect3772"
       is_visible="false"
       bendpath="m 95.790098,316.51174 c 144.429032,-206.42506 223.313032,-11.7428 339.548092,0"
       prop_scale="1.19"
       scale_y_rel="false"
       vertical="false"
       bendpath-nodetypes="cc" />
  </defs>
  <sodipodi:namedview
     pagecolor="#ffffff"
     bordercolor="#666666"
     borderopacity="1"
     objecttolerance="10"
     gridtolerance="10"
     guidetolerance="10"
     inkscape:pageopacity="0"
     inkscape:pageshadow="2"
     inkscape:window-width="1920"
     inkscape:window-height="1004"
     id="namedview11"
     showgrid="true"
     inkscape:zoom="2.3017543"
     inkscape:cx="130.12657"
     inkscape:cy="166.96846"
     inkscape:window-x="1680"
     inkscape:window-y="0"
     inkscape:window-maximized="1"
     inkscape:current-layer="svg2"
     inkscape:snap-bbox="true"
     inkscape:object-nodes="true"
     inkscape:snap-midpoints="true"
     inkscape:snap-grids="true"
     inkscape:snap-bbox-edge-midpoints="true"
     showguides="true"
     inkscape:guide-bbox="true">
    <inkscape:grid
       type="xygrid"
       id="grid2990"
       empspacing="5"
       visible="true"
       enabled="true"
       snapvisiblegridlinesonly="true"
       spacingx="10px"
       spacingy="10px"
       dotted="false" />
    <sodipodi:guide
       orientation="1,0"
       position="55.202458,260.58927"
       id="guide3872" />
    <sodipodi:guide
       orientation="1,0"
       position="265.17816,340"
       id="guide3874" />
    <sodipodi:guide
       orientation="0,1"
       position="317.80107,264.96094"
       id="guide3876" />
    <sodipodi:guide
       orientation="0,1"
       position="325.098,54.759006"
       id="guide3878" />
  </sodipodi:namedview>
  <metadata
     id="metadata2975">image/svg+xmlen<rdf:RDF>
  <cc:Work
     rdf:about="">
    <dc:format>image/svg+xml</dc:format>
    <dc:type
       rdf:resource="http://purl.org/dc/dcmitype/StillImage" />
    <dc:title></dc:title>
  </cc:Work>
</rdf:RDF>
</metadata>
  <path
     inkscape:connector-curvature="0"
     style="font-size:40px;font-style:normal;font-variant:normal;font-weight:normal;font-stretch:normal;text-align:start;line-height:125%;writing-mode:lr-tb;text-anchor:start;fill:#fefefe;fill-opacity:1;stroke:none;font-family:NPSPICT3;-inkscape-font-specification:NPSPICT3"
     d="m 138.39515,125.36124 c 3.56692,-0.0658 6.58192,-1.31314 9.04494,-3.74185 2.46287,-2.42856 3.66159,-5.4283 3.59616,-8.99923 0.0444,-3.42515 -1.14368,-6.40079 -3.5644,-8.9269 -2.42088,-2.5259 -5.41672,-3.756153 -8.98748,-3.69079 -3.55144,-0.06011 -6.56252,1.15568 -9.03322,3.64726 -2.47083,2.49179 -3.66564,5.45999 -3.58446,8.90462 -0.0602,3.55147 1.12399,6.55863 3.55268,9.02146 2.42856,2.46306 5.42049,3.72487 8.97576,3.78543 z m 50.75481,13.85382 -27.81601,-10.17715 c -2.5479,-1.30427 -4.53371,-0.66727 -5.9574,1.91101 l 0,0 c -0.849,1.77949 -0.62536,3.41579 0.67089,4.90895 l 13.25476,9.84677 -4.84774,10.38707 -21.05706,9.76906 2.1541,-9.95088 11.54345,-3.71277 c 3.54287,-1.42667 4.87687,-3.85087 4.002,-7.27263 -0.40656,-1.5895 -1.43886,-2.82422 -3.0969,-3.70425 -1.6582,-0.87982 -3.25055,-0.9934 -4.77708,-0.34075 l -7.99618,1.89927 -0.50155,-2.32319 c 0.0411,-3.42947 -1.18025,-6.41116 -3.66403,-8.94507 -2.48397,-2.53374 -5.44632,-3.75986 -8.88715,-3.67836 -3.55527,-0.0605 -6.56825,1.15495 -9.03894,3.64655 -2.47084,2.49178 -3.72872,5.45216 -3.77367,8.88114 l -0.30608,32.70338 c 1.48967,3.78929 0.46368,2.77712 0.46368,2.77712 l -34.165641,15.27895 -0.04778,23.47694 c 3.779885,-3.04965 19.832007,-5.53508 23.742537,-6.53505 3.79104,-0.9694 7.73904,-1.06859 11.84404,-0.29758 2.45145,0.41469 4.89923,0.30956 7.34334,-0.31545 2.44773,-0.62588 4.64739,-1.70916 6.59897,-3.24974 3.10776,-2.61538 6.6169,-4.42307 10.52745,-5.42304 2.32459,-0.59442 5.58404,-0.71233 9.7784,-0.35377 4.19421,0.35868 7.33053,0.27224 9.40898,-0.25926 2.44771,-0.62588 4.64736,-1.70914 6.59899,-3.24974 3.23084,-2.64687 6.80155,-4.47029 10.71215,-5.47028 2.44767,-0.62589 4.89593,-0.86132 7.34474,-0.70638 2.4486,0.15504 4.88295,0.3783 7.30308,0.66979 29.05344,-16.28635 37.50345,-31.38802 39.86535,-40.9094 3.09541,-12.47831 2.00499,-22.37844 2.00499,-22.37844 0,0 -17.64469,1.04708 -49.22869,13.09718 z m 34.5777,69.63708 c -2.26056,-0.23266 -5.47034,0.13485 -9.62936,1.10257 -4.15932,0.9677 -7.30588,1.34173 -9.43974,1.12212 -2.26054,-0.23267 -5.32818,-1.24629 -9.20291,-3.04091 -3.87497,-1.7946 -11.45401,-6.17053 -13.57738,-5.86568 -2.24941,0.32295 -3.07539,0.15565 -6.87522,2.10387 -3.80003,1.94826 -6.82465,3.08385 -9.07386,3.40677 -2.24555,0.3224 -5.43507,0.079 -9.56857,-0.73029 -4.13363,-0.80921 -7.32508,-1.05234 -9.57428,-0.72943 -2.24554,0.32239 -5.23776,1.45331 -8.97663,3.39278 -3.73899,1.93951 -6.7331,3.07072 -8.98233,3.39364 -2.24554,0.3224 -5.43506,0.079 -9.56858,-0.73029 -4.13361,-0.80921 -7.32504,-1.05235 -9.57429,-0.72942 -2.24932,0.32292 -5.27393,1.4585 -9.07384,3.40674 -3.799957,1.94826 -12.812866,4.3506 -15.062129,4.67353 l -0.109024,12.52711 c 2.249263,-0.32293 13.33504,-1.5737 17.135003,-3.5219 3.79991,-1.94827 6.82451,-3.08385 9.07385,-3.40679 2.12343,-0.30486 5.28342,-0.0571 9.47993,0.74302 4.19642,0.80016 7.41738,1.03911 9.66293,0.71671 2.24922,-0.32292 5.24333,-1.45415 8.98233,-3.39361 3.73887,-1.9395 6.73109,-3.07042 8.97663,-3.39282 2.24921,-0.32291 5.44065,-0.0797 9.57429,0.72947 4.13348,0.80921 7.32301,1.05266 9.56857,0.73026 2.2492,-0.32292 5.27381,-1.45853 9.07385,-3.40674 3.79982,-1.94825 3.2415,-1.69952 5.4909,-2.02247 2.12337,-0.30485 7.70804,4.0573 11.58301,5.85192 3.87474,1.79456 6.94238,2.8082 9.20292,3.04087 2.13386,0.21963 5.28042,-0.15443 9.43973,-1.12209 4.15902,-0.96774 7.36882,-1.33526 9.62938,-1.10259 2.26024,0.23263 5.29627,1.243 9.1081,3.03114 1.65357,0.72945 2.55984,1.6119 3.31397,2.29243 l -0.0823,-14.73506 c -0.79232,-0.77969 -1.23496,-1.03075 -1.81689,-1.30375 -3.81183,-1.7881 -6.84785,-2.79847 -9.10812,-3.03111 z"
     id="flowRoot3192"
     sodipodi:nodetypes="cscccccccccccccccccccccccccscccccscccscccsccsccccscscscssscsscccssscssscssscscccccc" />
</svg>
