<?xml version="1.0" encoding="UTF-8" standalone="no"?>
<svg
   xmlns:dc="http://purl.org/dc/elements/1.1/"
   xmlns:cc="http://creativecommons.org/ns#"
   xmlns:rdf="http://www.w3.org/1999/02/22-rdf-syntax-ns#"
   xmlns:svg="http://www.w3.org/2000/svg"
   xmlns="http://www.w3.org/2000/svg"
   xmlns:sodipodi="http://sodipodi.sourceforge.net/DTD/sodipodi-0.dtd"
   xmlns:inkscape="http://www.inkscape.org/namespaces/inkscape"
   width="320"
   height="320"
   id="svg2"
   version="1.1"
   inkscape:version="0.48.4 r9939"
   sodipodi:docname="notice_prohibition_noberthing.svg">
  <defs
     id="defs13">
    <inkscape:path-effect
       effect="gears"
       id="path-effect3774"
       is_visible="true"
       teeth="6"
       phi="-1.2" />
    <inkscape:path-effect
       effect="bend_path"
       id="path-effect3772"
       is_visible="false"
       bendpath="m 95.790098,316.51174 c 144.429032,-206.42506 223.313032,-11.7428 339.548092,0"
       prop_scale="1.19"
       scale_y_rel="false"
       vertical="false"
       bendpath-nodetypes="cc" />
    <inkscape:path-effect
       effect="spiro"
       id="path-effect3775"
       is_visible="true" />
    <inkscape:path-effect
       effect="spiro"
       id="path-effect3775-9"
       is_visible="true" />
    <inkscape:path-effect
       effect="spiro"
       id="path-effect3775-7"
       is_visible="true" />
  </defs>
  <sodipodi:namedview
     pagecolor="#ffffff"
     bordercolor="#666666"
     borderopacity="1"
     objecttolerance="10"
     gridtolerance="10"
     guidetolerance="10"
     inkscape:pageopacity="0"
     inkscape:pageshadow="2"
     inkscape:window-width="1920"
     inkscape:window-height="1004"
     id="namedview11"
     showgrid="false"
     inkscape:zoom="2.3017543"
     inkscape:cx="162.55034"
     inkscape:cy="206.31186"
     inkscape:window-x="1680"
     inkscape:window-y="0"
     inkscape:window-maximized="1"
     inkscape:current-layer="svg2"
     inkscape:snap-bbox="true"
     inkscape:object-nodes="true"
     inkscape:snap-midpoints="true"
     inkscape:snap-grids="false"
     inkscape:snap-bbox-edge-midpoints="true"
     showguides="true"
     inkscape:guide-bbox="true">
    <inkscape:grid
       type="xygrid"
       id="grid2990"
       empspacing="5"
       visible="true"
       enabled="true"
       snapvisiblegridlinesonly="true"
       spacingx="10px"
       spacingy="10px"
       dotted="false" />
    <sodipodi:guide
       orientation="1,0"
       position="55.202458,260.58927"
       id="guide3872" />
    <sodipodi:guide
       orientation="1,0"
       position="265.17816,340"
       id="guide3874" />
    <sodipodi:guide
       orientation="0,1"
       position="317.80107,264.96094"
       id="guide3876" />
    <sodipodi:guide
       orientation="0,1"
       position="325.098,54.759006"
       id="guide3878" />
  </sodipodi:namedview>
  <metadata
     id="metadata2975">image/svg+xmlen<rdf:RDF>
  <cc:Work
     rdf:about="">
    <dc:format>image/svg+xml</dc:format>
    <dc:type
       rdf:resource="http://purl.org/dc/dcmitype/StillImage" />
    <dc:title></dc:title>
  </cc:Work>
</rdf:RDF>
</metadata>
  <g
     id="g3838">
    <path
       inkscape:connector-curvature="0"
       id="circle3"
       d="m 160.69121,232.58622 c 10.0483,0 18.29214,-8.24385 18.29214,-18.29215 0,-10.0483 -8.24385,-18.29213 -18.29214,-18.29213 -10.0483,0 -18.29213,8.24383 -18.29213,18.29213 0,10.0483 8.24383,18.29215 18.29213,18.29215 z m 0,-9.14608 c -5.10539,0 -9.14607,-4.04067 -9.14607,-9.14607 0,-5.1054 4.04068,-9.14606 9.14607,-9.14606 5.10541,0 9.14607,4.04066 9.14607,9.14606 0,5.1054 -4.04066,9.14607 -9.14607,9.14607 z"
       style="font-size:medium;font-style:normal;font-variant:normal;font-weight:normal;font-stretch:normal;text-indent:0;text-align:start;text-decoration:none;line-height:normal;letter-spacing:normal;word-spacing:normal;text-transform:none;direction:ltr;block-progression:tb;writing-mode:lr-tb;text-anchor:start;baseline-shift:baseline;color:#000000;fill:#000000;fill-opacity:1;stroke:none;stroke-width:2;marker:none;visibility:visible;display:inline;overflow:visible;enable-background:accumulate;font-family:Sans;-inkscape-font-specification:Sans" />
    <path
       sodipodi:nodetypes="ccccc"
       id="path5-5"
       d="m 121.75722,141.94915 c 0,0 -10.54364,12.47749 -20.72295,15.90269 -6.50668,-9.32441 -8.394495,-21.07416 -8.394495,-26.5618 0,0 7.402395,3.41768 12.145755,11.0958 3.68761,-2.53804 16.97169,-0.43669 16.97169,-0.43669 z"
       inkscape:connector-curvature="0"
       style="fill:#000000;fill-opacity:1" />
    <path
       sodipodi:nodetypes="ccccc"
       id="path7"
       d="m 199.08214,142.16637 c 0,0 10.72354,12.03619 20.90286,15.46139 6.35692,-6.70863 7.37523,-25.72331 7.37523,-25.72331 0,0 -6.24086,3.78189 -10.76334,10.48139 -3.68763,-2.53804 -17.51475,-0.21947 -17.51475,-0.21947 z"
       inkscape:connector-curvature="0"
       style="fill:#000000;fill-opacity:1" />
    <path
       sodipodi:nodetypes="cccccccccccc"
       id="path9"
       d="m 112.46776,147.12389 c 5.49052,-22.7208 29.76666,-35.93948 40.73591,-36.8861 l 0,90.33718 14.97508,0 0,-90.33718 c 10.96924,0.94662 36.93501,12.93191 40.7359,36.8861 l 16.41524,-5.43734 c -4.1751,-20.09849 -28.40068,-39.84997 -54.30962,-43.498711 -6.61898,-1.77434 -10.32906,-10.774064 -10.32906,-10.774064 0,0 -3.71008,8.999724 -10.32906,10.774064 -26.83055,3.495141 -50.13453,23.400221 -54.309618,43.498711 z"
       inkscape:connector-curvature="0"
       style="fill:#000000;fill-opacity:1" />
    <path
       id="rect11"
       d="m 179.41011,194.15409 -37.43772,0 0,-9.14608 37.43772,0 z"
       style="fill:#000000;fill-opacity:1"
       inkscape:connector-curvature="0" />
  </g>
</svg>
