<?xml version="1.0" encoding="UTF-8" standalone="no"?>
<svg
   xmlns:dc="http://purl.org/dc/elements/1.1/"
   xmlns:cc="http://creativecommons.org/ns#"
   xmlns:rdf="http://www.w3.org/1999/02/22-rdf-syntax-ns#"
   xmlns:svg="http://www.w3.org/2000/svg"
   xmlns="http://www.w3.org/2000/svg"
   xmlns:sodipodi="http://sodipodi.sourceforge.net/DTD/sodipodi-0.dtd"
   xmlns:inkscape="http://www.inkscape.org/namespaces/inkscape"
   width="320"
   height="320"
   id="svg2"
   version="1.1"
   inkscape:version="0.48.4 r9939"
   sodipodi:docname="notice_information_sailingcraftpermitted.svg">
  <defs
     id="defs13">
    <inkscape:path-effect
       effect="gears"
       id="path-effect3774"
       is_visible="true"
       teeth="6"
       phi="-1.2" />
    <inkscape:path-effect
       effect="bend_path"
       id="path-effect3772"
       is_visible="false"
       bendpath="m 95.790098,316.51174 c 144.429032,-206.42506 223.313032,-11.7428 339.548092,0"
       prop_scale="1.19"
       scale_y_rel="false"
       vertical="false"
       bendpath-nodetypes="cc" />
  </defs>
  <sodipodi:namedview
     pagecolor="#ffffff"
     bordercolor="#666666"
     borderopacity="1"
     objecttolerance="10"
     gridtolerance="10"
     guidetolerance="10"
     inkscape:pageopacity="0"
     inkscape:pageshadow="2"
     inkscape:window-width="1920"
     inkscape:window-height="1004"
     id="namedview11"
     showgrid="true"
     inkscape:zoom="2.3017543"
     inkscape:cx="130.12657"
     inkscape:cy="166.96846"
     inkscape:window-x="1680"
     inkscape:window-y="0"
     inkscape:window-maximized="1"
     inkscape:current-layer="svg2"
     inkscape:snap-bbox="true"
     inkscape:object-nodes="true"
     inkscape:snap-midpoints="true"
     inkscape:snap-grids="true"
     inkscape:snap-bbox-edge-midpoints="true"
     showguides="true"
     inkscape:guide-bbox="true">
    <inkscape:grid
       type="xygrid"
       id="grid2990"
       empspacing="5"
       visible="true"
       enabled="true"
       snapvisiblegridlinesonly="true"
       spacingx="10px"
       spacingy="10px"
       dotted="false" />
    <sodipodi:guide
       orientation="1,0"
       position="55.202458,260.58927"
       id="guide3872" />
    <sodipodi:guide
       orientation="1,0"
       position="265.17816,340"
       id="guide3874" />
    <sodipodi:guide
       orientation="0,1"
       position="317.80107,264.96094"
       id="guide3876" />
    <sodipodi:guide
       orientation="0,1"
       position="325.098,54.759006"
       id="guide3878" />
  </sodipodi:namedview>
  <metadata
     id="metadata2975">image/svg+xmlen<rdf:RDF>
  <cc:Work
     rdf:about="">
    <dc:format>image/svg+xml</dc:format>
    <dc:type
       rdf:resource="http://purl.org/dc/dcmitype/StillImage" />
    <dc:title></dc:title>
  </cc:Work>
</rdf:RDF>
</metadata>
  <g
     id="g4122"
     transform="matrix(1.0238863,0,0,1.0238863,-3.8218135,-3.8218137)"
     style="fill:#fefefe;fill-opacity:1">
    <path
       id="path15"
       d="m 228.29155,212.41303 c -1.40769,0.49374 -3.10428,0.84041 -5.25259,0.84041 -4.37541,0 -11.09873,-1.19759 -15.75779,-4.8639 -4.65905,3.66631 -11.38237,4.8639 -15.75779,4.8639 -4.37541,0 -11.09873,-1.19759 -15.75778,-4.8639 -4.65906,3.66631 -11.38238,4.8639 -15.75779,4.8639 -4.37542,0 -11.09874,-1.19759 -15.75779,-4.8639 -4.65904,3.66631 -11.38238,4.8639 -15.75778,4.8639 -4.37541,0 -11.09873,-1.19759 -15.75779,-4.8639 -4.65905,3.66631 -11.38237,4.8639 -15.757789,4.8639 -1.964471,0 -3.671565,-0.17334 -5.252596,-0.4202 v 9.69629 c 1.528505,0.16282 3.251357,0.26788 5.252596,0.26788 9.108009,0 12.443399,-2.25862 15.757789,-4.8639 4.65906,3.66631 11.38238,4.8639 15.75779,4.8639 4.3754,0 11.09874,-1.19759 15.75778,-4.8639 4.65905,3.66631 11.38237,4.8639 15.75779,4.8639 4.37541,0 11.09873,-1.19759 15.75779,-4.8639 4.65905,3.66631 11.38237,4.8639 15.75778,4.8639 4.37542,0 11.09874,-1.19759 15.75779,-4.8639 4.65906,3.66631 11.38238,4.8639 15.75779,4.8639 2.17457,0 3.8659,-0.33092 5.25259,-0.7879 v -9.59648 z"
       inkscape:connector-curvature="0"
       style="fill:#fefefe;fill-opacity:1" />
    <g
       id="g17"
       transform="matrix(5.2525957,0,0,5.2525957,91.724065,86.697402)"
       style="fill:#fefefe;fill-opacity:1">
      <path
         id="path19"
         d="M 13.36,22.887 21.004,16 H 0.481 C -0.071,16 0,16.447 0,17 0,18.614 1.258,19.912 2.819,20.771 2.172,20.992 1.506,21.094 1,21.094 c -0.374,0 -0.699,-0.033 -1,-0.08 v 1.846 c 0.291,0.031 0.619,0.051 1,0.051 1.734,0 2.369,-0.43 3,-0.926 0.887,0.698 2.167,0.926 3,0.926 0.833,0 2.113,-0.228 3,-0.926 0.887,0.698 2.167,0.926 3,0.926 0.107,-0.001 0.239,-0.016 0.36,-0.024 z"
         inkscape:connector-curvature="0"
         style="fill:#fefefe;fill-opacity:1" />
      <path
         id="path21"
         d="m 25,21.094 c -0.715,0 -1.746,-0.188 -2.588,-0.677 1.365,-0.843 2.691,-2 3.4,-3.386 C 26.165,16.342 25.891,16 25.203,16 h -2.258 l -6.771,6.09 c 0.875,0.604 2.042,0.82 2.825,0.82 0.833,0 2.113,-0.228 3,-0.926 0.887,0.698 2.167,0.926 3,0.926 0.414,0 0.736,-0.063 1,-0.15 v -1.826 c -0.267,0.093 -0.59,0.16 -0.999,0.16 z"
         inkscape:connector-curvature="0"
         style="fill:#fefefe;fill-opacity:1" />
    </g>
    <circle
       id="circle23"
       r="2.5"
       cy="4.5"
       cx="15.5"
       sodipodi:cx="15.5"
       sodipodi:cy="4.5"
       sodipodi:rx="2.5"
       sodipodi:ry="2.5"
       style="fill:#fefefe;fill-opacity:1"
       transform="matrix(5.2525957,0,0,5.2525957,91.724065,86.697402)"
       d="M 18,4.5 C 18,5.8807119 16.880712,7 15.5,7 14.119288,7 13,5.8807119 13,4.5 13,3.1192881 14.119288,2 15.5,2 16.880712,2 18,3.1192881 18,4.5 z" />
    <path
       id="path25"
       d="m 206.35146,147.94267 c -2.03275,-0.96648 -46.76911,-22.20798 -46.76911,-22.20798 -7.30111,-3.98146 -13.58321,-0.95597 -17.92185,6.30837 l -27.29249,44.4317 c -0.80366,1.75962 -0.57779,3.81865 0.58829,5.3629 0.99799,1.31841 2.55276,2.08004 4.18631,2.08004 0.26789,0 0.54628,-0.021 0.81416,-0.0631 l 30.42303,-4.44369 c 1.67033,-0.26789 3.11479,-1.31841 3.87642,-2.83115 l 17.78003,-28.26947 c 0,0 26.00035,10.45792 28.24321,11.49268 2.90994,1.34466 8.10475,2.01699 10.09549,-2.30064 1.99074,-4.31763 -0.95072,-8.09951 -4.02349,-9.55972 z"
       inkscape:connector-curvature="0"
       style="fill:#fefefe;fill-opacity:1" />
  </g>
</svg>
