<?xml version="1.0" encoding="UTF-8" standalone="no"?>
<svg
   xmlns:dc="http://purl.org/dc/elements/1.1/"
   xmlns:cc="http://creativecommons.org/ns#"
   xmlns:rdf="http://www.w3.org/1999/02/22-rdf-syntax-ns#"
   xmlns:svg="http://www.w3.org/2000/svg"
   xmlns="http://www.w3.org/2000/svg"
   xmlns:sodipodi="http://sodipodi.sourceforge.net/DTD/sodipodi-0.dtd"
   xmlns:inkscape="http://www.inkscape.org/namespaces/inkscape"
   width="320"
   height="320"
   id="svg2"
   version="1.1"
   inkscape:version="0.48.4 r9939"
   sodipodi:docname="notice_regulation_bg.svg">
  <defs
     id="defs13">
    <inkscape:path-effect
       effect="gears"
       id="path-effect3774"
       is_visible="true"
       teeth="6"
       phi="-1.2" />
    <inkscape:path-effect
       effect="bend_path"
       id="path-effect3772"
       is_visible="false"
       bendpath="m 95.790098,316.51174 c 144.429032,-206.42506 223.313032,-11.7428 339.548092,0"
       prop_scale="1.19"
       scale_y_rel="false"
       vertical="false"
       bendpath-nodetypes="cc" />
  </defs>
  <sodipodi:namedview
     pagecolor="#ffffff"
     bordercolor="#666666"
     borderopacity="1"
     objecttolerance="10"
     gridtolerance="10"
     guidetolerance="10"
     inkscape:pageopacity="0"
     inkscape:pageshadow="2"
     inkscape:window-width="1920"
     inkscape:window-height="1004"
     id="namedview11"
     showgrid="false"
     inkscape:zoom="1.6275861"
     inkscape:cx="247.1382"
     inkscape:cy="201.40199"
     inkscape:window-x="1680"
     inkscape:window-y="0"
     inkscape:window-maximized="1"
     inkscape:current-layer="svg2"
     inkscape:snap-bbox="true"
     inkscape:object-nodes="true"
     inkscape:snap-midpoints="true"
     inkscape:snap-grids="true"
     inkscape:snap-bbox-edge-midpoints="true"
     showguides="true"
     inkscape:guide-bbox="true">
    <inkscape:grid
       type="xygrid"
       id="grid2990"
       empspacing="5"
       visible="true"
       enabled="true"
       snapvisiblegridlinesonly="true"
       spacingx="10px"
       spacingy="10px"
       dotted="false" />
    <sodipodi:guide
       orientation="1,0"
       position="55.202458,260.58927"
       id="guide3872" />
    <sodipodi:guide
       orientation="1,0"
       position="265.17816,340"
       id="guide3874" />
    <sodipodi:guide
       orientation="0,1"
       position="317.80107,264.96094"
       id="guide3876" />
    <sodipodi:guide
       orientation="0,1"
       position="325.098,54.759006"
       id="guide3878" />
  </sodipodi:namedview>
  <metadata
     id="metadata2975">image/svg+xmlen<rdf:RDF>
  <cc:Work
     rdf:about="">
    <dc:format>image/svg+xml</dc:format>
    <dc:type
       rdf:resource="http://purl.org/dc/dcmitype/StillImage" />
    <dc:title></dc:title>
  </cc:Work>
</rdf:RDF>
</metadata>
  <g
     transform="matrix(1.1001835,0,0,1.1001835,-16.121721,8.1720464)"
     style="font-size:40px;font-style:normal;font-weight:normal;line-height:125%;letter-spacing:0px;word-spacing:0px;fill:#000000;fill-opacity:1;stroke:none;font-family:Sans"
     id="flowRoot2991">
    <path
       d="m 111.48828,99.627779 0,6.171871 c -1.60158,-0.71612 -3.16408,-1.25648 -4.6875,-1.62109 -1.52345,-0.36456 -2.96225,-0.54685 -4.3164,-0.54687 -1.79689,2e-5 -3.125017,0.24742 -3.98438,0.74218 -0.859385,0.49482 -1.289072,1.26305 -1.289063,2.30469 -9e-6,0.78127 0.286449,1.39325 0.859375,1.83594 0.585927,0.4297 1.640613,0.8008 3.164068,1.11328 l 3.20312,0.64453 c 3.24217,0.65106 5.54685,1.64064 6.91406,2.96875 1.36716,1.32814 2.05076,3.21616 2.05078,5.66406 -2e-5,3.21615 -0.95705,5.61199 -2.87109,7.1875 -1.90106,1.5625 -4.81122,2.34375 -8.73047,2.34375 -1.84897,0 -3.704436,-0.17578 -5.566405,-0.52734 -1.861986,-0.35156 -3.723963,-0.8724 -5.585938,-1.5625 l 0,-6.34766 c 1.861975,0.98959 3.658848,1.73829 5.390625,2.2461 1.744782,0.49479 3.424468,0.74219 5.039068,0.74218 1.6406,1e-5 2.89711,-0.27343 3.76953,-0.82031 0.87237,-0.54687 1.30857,-1.32812 1.30859,-2.34375 -2e-5,-0.91145 -0.2995,-1.61457 -0.89844,-2.10937 -0.58595,-0.49478 -1.76434,-0.93749 -3.53515,-1.32813 l -2.91016,-0.64453 c -2.916675,-0.62499 -5.05209,-1.62108 -6.40625,-2.98828 -1.341149,-1.36717 -2.011722,-3.20962 -2.011719,-5.52734 -3e-6,-2.90363 0.937496,-5.1367 2.8125,-6.69922 1.874993,-1.562475 4.570302,-2.343724 8.085939,-2.343754 1.60155,3e-5 3.24868,0.123728 4.94141,0.371094 1.69268,0.234404 3.44398,0.592477 5.2539,1.074219"
       style="font-weight:bold;text-align:center;text-anchor:middle;-inkscape-font-specification:Sans Bold"
       id="path3002" />
    <path
       d="m 120.02344,98.70981 12.48047,0 c 3.71091,2.9e-5 6.55596,0.826851 8.53515,2.48047 1.99216,1.64065 2.98826,3.9844 2.98828,7.03125 -2e-5,3.05991 -0.99612,5.41668 -2.98828,7.07031 -1.97919,1.64064 -4.82424,2.46095 -8.53515,2.46094 l -4.96094,0 0,10.11719 -7.51953,0 0,-29.16016 m 7.51953,5.44922 0,8.14453 4.16015,0 c 1.45832,2e-5 2.58462,-0.35155 3.37891,-1.05469 0.79425,-0.71613 1.19139,-1.72524 1.19141,-3.02734 -2e-5,-1.30206 -0.39716,-2.30467 -1.19141,-3.00781 -0.79429,-0.70311 -1.92059,-1.05467 -3.37891,-1.05469 l -4.16015,0"
       style="font-weight:bold;text-align:center;text-anchor:middle;-inkscape-font-specification:Sans Bold"
       id="path3004" />
    <path
       d="m 149.32031,98.70981 20.29297,0 0,5.68359 -12.77344,0 0,5.42969 12.01172,0 0,5.6836 -12.01172,0 0,6.67968 13.20313,0 0,5.6836 -20.72266,0 0,-29.16016"
       style="font-weight:bold;text-align:center;text-anchor:middle;-inkscape-font-specification:Sans Bold"
       id="path3006" />
    <path
       d="m 176.66406,98.70981 20.29297,0 0,5.68359 -12.77344,0 0,5.42969 12.01172,0 0,5.6836 -12.01172,0 0,6.67968 13.20313,0 0,5.6836 -20.72266,0 0,-29.16016"
       style="font-weight:bold;text-align:center;text-anchor:middle;-inkscape-font-specification:Sans Bold"
       id="path3008" />
    <path
       d="m 211.52734,104.3934 0,17.79297 2.69532,0 c 3.0729,1e-5 5.41664,-0.76171 7.03125,-2.28515 1.62758,-1.52343 2.44138,-3.73697 2.4414,-6.64063 -2e-5,-2.89061 -0.80731,-5.09112 -2.42187,-6.60156 -1.61461,-1.5104 -3.96486,-2.2656 -7.05078,-2.26563 l -2.69532,0 m -7.51953,-5.68359 7.92969,0 c 4.42707,2.9e-5 7.72133,0.319039 9.88281,0.957031 2.17446,0.625029 4.03644,1.692739 5.58594,3.203129 1.36716,1.31512 2.38278,2.83205 3.04687,4.55078 0.66404,1.71877 0.99607,3.66538 0.9961,5.83984 -3e-5,2.20053 -0.33206,4.16668 -0.9961,5.89844 -0.66409,1.71876 -1.67971,3.23568 -3.04687,4.55078 -1.56253,1.51042 -3.43752,2.58464 -5.625,3.22266 -2.18752,0.625 -5.46877,0.9375 -9.84375,0.9375 l -7.92969,0 0,-29.16016"
       style="font-weight:bold;text-align:center;text-anchor:middle;-inkscape-font-specification:Sans Bold"
       id="path3010" />
    <path
       d="m 102.99219,148.70981 7.51953,0 0,23.47656 13.20312,0 0,5.6836 -20.72265,0 0,-29.16016"
       style="font-weight:bold;text-align:center;text-anchor:middle;-inkscape-font-specification:Sans Bold"
       id="path3012" />
    <path
       d="m 128.46094,148.70981 7.51953,0 0,29.16016 -7.51953,0 0,-29.16016"
       style="font-weight:bold;text-align:center;text-anchor:middle;-inkscape-font-specification:Sans Bold"
       id="path3014" />
    <path
       d="m 143.38281,148.70981 9.57031,0 6.64063,15.60547 6.67969,-15.60547 9.55078,0 0,29.16016 -7.10938,0 0,-21.32813 -6.71875,15.72266 -4.76562,0 -6.71875,-15.72266 0,21.32813 -7.12891,0 0,-29.16016"
       style="font-weight:bold;text-align:center;text-anchor:middle;-inkscape-font-specification:Sans Bold"
       id="path3016" />
    <path
       d="m 183.22656,148.70981 7.51953,0 0,29.16016 -7.51953,0 0,-29.16016"
       style="font-weight:bold;text-align:center;text-anchor:middle;-inkscape-font-specification:Sans Bold"
       id="path3018" />
    <path
       d="m 194.67187,148.70981 26.875,0 0,5.68359 -9.66796,0 0,23.47657 -7.51954,0 0,-23.47657 -9.6875,0 0,-5.68359"
       style="font-weight:bold;text-align:center;text-anchor:middle;-inkscape-font-specification:Sans Bold"
       id="path3020" />
  </g>
</svg>
