<?xml version="1.0" encoding="UTF-8" standalone="no"?>
<svg
   xmlns:dc="http://purl.org/dc/elements/1.1/"
   xmlns:cc="http://creativecommons.org/ns#"
   xmlns:rdf="http://www.w3.org/1999/02/22-rdf-syntax-ns#"
   xmlns:svg="http://www.w3.org/2000/svg"
   xmlns="http://www.w3.org/2000/svg"
   xmlns:sodipodi="http://sodipodi.sourceforge.net/DTD/sodipodi-0.dtd"
   xmlns:inkscape="http://www.inkscape.org/namespaces/inkscape"
   width="320"
   height="320"
   id="svg2"
   version="1.1"
   inkscape:version="0.48.4 r9939"
   sodipodi:docname="notice_information_bg.svg">
  <defs
     id="defs13">
    <inkscape:path-effect
       effect="gears"
       id="path-effect3774"
       is_visible="true"
       teeth="6"
       phi="-1.2" />
    <inkscape:path-effect
       effect="bend_path"
       id="path-effect3772"
       is_visible="false"
       bendpath="m 95.790098,316.51174 c 144.429032,-206.42506 223.313032,-11.7428 339.548092,0"
       prop_scale="1.19"
       scale_y_rel="false"
       vertical="false"
       bendpath-nodetypes="cc" />
  </defs>
  <sodipodi:namedview
     pagecolor="#ffffff"
     bordercolor="#666666"
     borderopacity="1"
     objecttolerance="10"
     gridtolerance="10"
     guidetolerance="10"
     inkscape:pageopacity="0"
     inkscape:pageshadow="2"
     inkscape:window-width="1920"
     inkscape:window-height="1004"
     id="namedview11"
     showgrid="true"
     inkscape:zoom="3.2551722"
     inkscape:cx="133.44289"
     inkscape:cy="156.61955"
     inkscape:window-x="1680"
     inkscape:window-y="0"
     inkscape:window-maximized="1"
     inkscape:current-layer="svg2"
     inkscape:snap-bbox="true"
     inkscape:object-nodes="true"
     inkscape:snap-midpoints="true"
     inkscape:snap-grids="true"
     inkscape:snap-bbox-edge-midpoints="true"
     showguides="true"
     inkscape:guide-bbox="true">
    <inkscape:grid
       type="xygrid"
       id="grid2990"
       empspacing="5"
       visible="true"
       enabled="true"
       snapvisiblegridlinesonly="true"
       spacingx="10px"
       spacingy="10px"
       dotted="false" />
    <sodipodi:guide
       orientation="1,0"
       position="55.202458,260.58927"
       id="guide3872" />
    <sodipodi:guide
       orientation="1,0"
       position="265.17816,340"
       id="guide3874" />
    <sodipodi:guide
       orientation="0,1"
       position="317.80107,264.96094"
       id="guide3876" />
    <sodipodi:guide
       orientation="0,1"
       position="325.098,54.759006"
       id="guide3878" />
  </sodipodi:namedview>
  <metadata
     id="metadata2975">image/svg+xmlen<rdf:RDF>
  <cc:Work
     rdf:about="">
    <dc:format>image/svg+xml</dc:format>
    <dc:type
       rdf:resource="http://purl.org/dc/dcmitype/StillImage" />
    <dc:title></dc:title>
  </cc:Work>
</rdf:RDF>
</metadata>
  <path
     inkscape:connector-curvature="0"
     d="m 191.87434,101.5637 c 6.37487,0 11.68725,5.87683 10.62478,12.78294 -1.06247,4.24991 -4.24992,7.43735 -7.96858,7.96858 -3.71867,1.06248 -6.97252,-0.0319 -9.62871,-2.15816 -2.12497,-2.12495 -5.2792,-2.65619 -8.46663,-2.65619 l -16.4352,0 -16.43521,0 c -3.18743,0 -6.47448,1.02927 -9.13068,3.15423 -1.5937,1.59372 -4.18349,2.15816 -6.30846,2.15816 -6.37486,0 -11.68725,-5.87683 -10.62478,-12.78294 1.06248,-4.24991 4.24992,-7.43734 7.96859,-7.96857 3.71867,-1.0625 6.97251,0.0319 9.62871,2.15815 2.12496,2.12495 5.27919,2.65619 8.46662,2.65619 l 11.12282,0 0,-5.31239 10.62478,0 0,5.31239 11.12281,0 c 3.18743,0 6.47448,-1.02928 9.13068,-3.15423 1.59372,-1.59371 4.18351,-2.15816 6.30846,-2.15816 z m -26.56195,21.24956 0,21.7476 c 6.40624,1.31089 11.95039,5.10872 15.77117,10.12674 l 26.72796,0 0,31.87435 -26.72796,0 c -4.85204,6.37243 -12.45605,10.62477 -21.08355,10.62477 -8.6275,0 -16.23152,-4.25234 -21.08357,-10.62477 l -2.8222,0 c -7.90003,0 -13.28097,5.84363 -13.28097,13.28097 l 0,18.59337 -31.874345,0 0,-18.59337 c 0,-24.43699 20.118535,-45.15532 45.155315,-45.15532 l 2.8222,0 c 3.82077,-5.01802 9.36493,-8.81585 15.77118,-10.12674 l 0,-21.7476 10.62477,0 z m 63.74869,10.62478 0,74.37347 -8.46661,0 c -4.24993,0 -7.47057,-3.22064 -7.47057,-7.47055 l 0,-59.43237 c 0,-4.24991 3.22064,-7.47055 7.47057,-7.47055 l 8.46661,0 z"
     id="path5"
     style="fill:#fefefe;fill-opacity:1;stroke:none" />
</svg>
