<?xml version="1.0" encoding="UTF-8" standalone="no"?>
<svg
   xmlns:dc="http://purl.org/dc/elements/1.1/"
   xmlns:cc="http://creativecommons.org/ns#"
   xmlns:rdf="http://www.w3.org/1999/02/22-rdf-syntax-ns#"
   xmlns:svg="http://www.w3.org/2000/svg"
   xmlns="http://www.w3.org/2000/svg"
   xmlns:sodipodi="http://sodipodi.sourceforge.net/DTD/sodipodi-0.dtd"
   xmlns:inkscape="http://www.inkscape.org/namespaces/inkscape"
   width="1060"
   height="1060"
   id="svg2"
   version="1.1"
   inkscape:version="0.48.4 r9939"
   sodipodi:docname="platform_fpso_additional.svg">
  <defs
     id="defs13">
    <inkscape:path-effect
       effect="gears"
       id="path-effect3774"
       is_visible="true"
       teeth="6"
       phi="-1.2" />
    <inkscape:path-effect
       effect="bend_path"
       id="path-effect3772"
       is_visible="false"
       bendpath="m 95.790098,316.51174 c 144.429032,-206.42506 223.313032,-11.7428 339.548092,0"
       prop_scale="1.19"
       scale_y_rel="false"
       vertical="false"
       bendpath-nodetypes="cc" />
  </defs>
  <sodipodi:namedview
     pagecolor="#ffffff"
     bordercolor="#666666"
     borderopacity="1"
     objecttolerance="10"
     gridtolerance="10"
     guidetolerance="10"
     inkscape:pageopacity="0"
     inkscape:pageshadow="2"
     inkscape:window-width="1920"
     inkscape:window-height="1004"
     id="namedview11"
     showgrid="false"
     inkscape:zoom="0.35355339"
     inkscape:cx="1004.518"
     inkscape:cy="565.29744"
     inkscape:window-x="1680"
     inkscape:window-y="0"
     inkscape:window-maximized="1"
     inkscape:current-layer="svg2"
     inkscape:snap-object-midpoints="true"
     inkscape:snap-center="true" />
  <metadata
     id="metadata2975">image/svg+xmlen<rdf:RDF>
  <cc:Work
     rdf:about="">
    <dc:format>image/svg+xml</dc:format>
    <dc:type
       rdf:resource="http://purl.org/dc/dcmitype/StillImage" />
    <dc:title />
  </cc:Work>
</rdf:RDF>
</metadata>
  <path
     style="font-size:medium;font-style:normal;font-variant:normal;font-weight:normal;font-stretch:normal;text-indent:0;text-align:start;text-decoration:none;line-height:normal;letter-spacing:normal;word-spacing:normal;text-transform:none;direction:ltr;block-progression:tb;writing-mode:lr-tb;text-anchor:start;baseline-shift:baseline;opacity:0.42608696;color:#000000;fill:#acd8f3;fill-opacity:1;fill-rule:nonzero;stroke:#a35151;stroke-width:0;stroke-linecap:round;stroke-linejoin:miter;stroke-miterlimit:4;stroke-opacity:1;stroke-dashoffset:0;marker:none;visibility:visible;display:inline;overflow:visible;enable-background:accumulate;font-family:Sans;-inkscape-font-specification:Sans"
     d="m 236.88039,34.281991 c -8.45678,0.445746 -16.73691,3.757741 -23.16827,9.267127 -6.43138,5.509387 -10.97518,13.182949 -12.71386,21.471069 -5.01991,23.898461 -15.54466,41.361403 -27.97802,62.291923 -12.43337,20.93051 -28.29169,47.1174 -28.29169,82.05215 0,43.18637 30.045,76.85977 63.92289,92.02638 -5.80234,8.6678 -12.63233,19.06958 -19.88573,31.30277 -16.3926,27.64689 -36.07033,55.53518 -36.07033,95.35113 0,28.92617 12.5769,55.17287 32.51057,73.51991 32.76475,0.11543 41.62743,0.004 67.54539,0.004 25.75902,0 35.76919,-0.0461 67.18761,0.2809 20.10775,-18.36756 32.80561,-44.74521 32.80561,-73.80482 0,-39.77501 -19.66494,-68.92385 -36.13306,-96.41756 -6.87715,-11.48146 -13.22858,-20.84202 -18.88203,-29.16991 37.11921,-14.1815 63.04466,-51.06412 63.04466,-93.59466 0,-29.61027 -8.66348,-58.75225 -25.0924,-85.00051 C 319.25281,97.613202 296.19556,73.314704 265.23481,44.569451 257.66337,37.546165 247.19388,33.747494 236.88039,34.281561 z m 199.23368,41.402466 c -10.15086,-0.0063 -20.24128,4.171002 -27.41902,11.34875 -7.17775,7.177753 -11.35417,17.268183 -11.34875,27.419043 l 0,54.82689 c 0.012,12.01498 5.97997,23.88047 15.62002,31.05185 l 0,18.56838 -71.55104,282.81301 c 162.08455,-0.14955 173.91433,-0.24913 374.09992,-0.17746 l -15.01213,-51.30773 12.24373,20.47443 c 7.15557,9.78216 19.12011,15.87095 31.24002,15.87095 l 171.06751,0 c 48.65856,0 82.15577,-30.11862 104.82347,-61.85278 9.411,-13.17563 18.3554,-27.93687 25.5942,-42.65708 7.2388,-14.72021 14.1772,-26.57893 14.1772,-48.24014 0.01,-10.15086 -4.171,-20.24127 -11.3487,-27.41901 -7.1777,-7.17775 -17.2682,-11.35417 -27.4191,-11.34875 l -26.347,0 0,-10.09969 c 0,-10.15086 -4.171,-20.24128 -11.34869,-27.41901 -7.1777,-7.17776 -17.26814,-11.35417 -27.41897,-11.34875 l -48.86747,0 c -2.74147,0.0239 -5.48016,0.33999 -8.15506,0.94096 -2.67482,-0.60097 -5.4136,-0.917 -8.15497,-0.94096 l -48.86748,0 c -3.41048,0.0337 -6.81622,0.52017 -10.09967,1.44281 l 0,-11.5425 c 0,-10.15086 -4.17105,-20.24128 -11.34875,-27.41902 -7.17778,-7.17774 -17.26822,-11.35417 -27.41905,-11.34875 l -10.66423,0 c -9.10911,0 -6.17184,-17.42482 -13.09924,-23.33982 -6.9273,-5.915 -15.99487,-9.26702 -25.104,-9.28029 l -16.31004,0 c -9.20178,0 -18.36433,3.41338 -25.32667,9.42994 -6.96233,6.01656 -11.66612,14.58772 -13.00197,23.69203 -9.07173,1.36143 -17.60308,6.06748 -23.5936,13.01466 -5.99053,6.94718 -9.39058,16.07795 -9.40291,25.25125 l 2.5,39.42484 c 0.0239,2.74142 0.33999,5.48018 0.94097,8.15503 -0.45984,2.04188 -0.75386,4.12106 -0.87823,6.21037 l -17.16808,-70.97854 0,-18.6311 c 9.62332,-7.15891 15.58933,-18.99507 15.62002,-30.98913 l 0,-54.82689 c 0.006,-10.15086 -4.171,-20.24129 -11.34875,-27.419043 -7.17773,-7.177748 -17.26815,-11.35417 -27.41901,-11.34875 z"
     id="path4767"
     inkscape:connector-curvature="0"
     sodipodi:nodetypes="cscsscsscscsscsscccccccccccccssscscccscccccccsccsccscsccccccccsccc" />
  <path
     inkscape:connector-curvature="0"
     style="fill:none;stroke:#001836;stroke-width:37.53823471;stroke-linecap:round;stroke-linejoin:miter;stroke-miterlimit:4;stroke-opacity:1;stroke-dasharray:none"
     d="M 621.69695,383.22473 403.03667,560.8772"
     id="path9895"
     sodipodi:nodetypes="cc" />
  <path
     inkscape:connector-curvature="0"
     style="fill:none;stroke:#001836;stroke-width:60.22175217;stroke-linecap:round;stroke-linejoin:round;stroke-miterlimit:4;stroke-opacity:1;stroke-dasharray:none"
     sodipodi:nodetypes="cz"
     id="path9928"
     d="m 574.77859,221.26736 89.97236,363.38015" />
  <path
     inkscape:connector-curvature="0"
     d="M 481.02929,221.26736 388.93567,584.64751"
     id="path5516"
     sodipodi:nodetypes="cz"
     style="fill:none;stroke:#001836;stroke-width:60.22175217;stroke-linecap:round;stroke-linejoin:round;stroke-miterlimit:4;stroke-opacity:1;stroke-dasharray:none" />
  <path
     inkscape:connector-curvature="0"
     id="path5518"
     d="M 441.24787,388.9025 649.79985,560.8772"
     style="fill:none;stroke:#001836;stroke-width:37.53823471;stroke-linecap:round;stroke-linejoin:miter;stroke-miterlimit:4;stroke-opacity:1;stroke-dasharray:none"
     sodipodi:nodetypes="cc" />
  <path
     inkscape:connector-curvature="0"
     id="path5520"
     d="M 581.577,279.0364 444.72903,397.19991"
     style="fill:none;stroke:#001836;stroke-width:37.53823471;stroke-linecap:round;stroke-linejoin:miter;stroke-miterlimit:4;stroke-opacity:1;stroke-dasharray:none"
     sodipodi:nodetypes="cc" />
  <path
     inkscape:connector-curvature="0"
     style="fill:none;stroke:#001836;stroke-width:37.53823471;stroke-linecap:round;stroke-linejoin:miter;stroke-miterlimit:4;stroke-opacity:1;stroke-dasharray:none"
     d="M 471.21939,275.02162 607.68731,393.18513"
     id="path5522"
     sodipodi:nodetypes="cc" />
  <rect
     style="color:#000000;fill:#001836;fill-opacity:1;stroke:none;stroke-width:24;marker:none;visibility:visible;display:inline;overflow:visible;enable-background:accumulate"
     id="rect4100-5-6"
     width="151.24774"
     height="41.390003"
     x="451.2211"
     y="190.87033" />
  <rect
     style="color:#000000;fill:#001836;fill-opacity:1;stroke:none;stroke-width:24;marker:none;visibility:visible;display:inline;overflow:visible;enable-background:accumulate"
     id="rect4100-5-6-7"
     width="182.47543"
     height="54.874691"
     x="435.60724"
     y="114.9303" />
  <path
     inkscape:connector-curvature="0"
     d="m 252.21215,306.00903 c 0,0 -61.27444,84.25235 -61.27444,122.54888 0,33.70092 27.57351,61.27442 61.27444,61.27442 33.70095,0 61.27444,-27.5735 61.27444,-61.27442 0,-40.59432 -61.27444,-122.54888 -61.27444,-122.54888 z m -22.97792,124.08074 c 0,26.80756 11.48895,36.76465 11.48895,36.76465 0,0 -26.80755,-6.89337 -26.80755,-43.65804 0,-25.27569 30.63722,-78.89083 30.63722,-78.89083 0,0 -15.31862,46.72176 -15.31862,85.78422 z"
     id="path3"
     style="color:#000000;fill:#001836;fill-opacity:1;fill-rule:nonzero;stroke:none;stroke-width:24;marker:none;visibility:visible;display:inline;overflow:visible;enable-background:accumulate" />
  <path
     style="color:#000000;fill:#001836;fill-opacity:1;fill-rule:nonzero;stroke:none;stroke-width:24;marker:none;visibility:visible;display:inline;overflow:visible;enable-background:accumulate"
     inkscape:connector-curvature="0"
     d="m 238.36881,73.474075 c -13.02767,62.021935 -55.41186,90.231875 -55.41186,136.402005 0,30.30302 19.49151,49.68677 46.60108,59.08239 -7.99514,-6.20988 -18.7528,-19.4761 -18.7528,-31.9959 0,-23.6776 12.05041,-30.76469 18.32187,-56.48147 15.05147,13.07384 15.39003,30.7801 15.39003,30.7801 0,0 21.03053,-30.99558 15.39006,-69.2552 61.56018,53.86515 36.45902,111.16999 12.01193,127.92975 27.27117,-3.98602 49.54825,-29.12566 49.54825,-60.53674 0,-46.17015 -23.30822,-80.41302 -83.09856,-135.924935 z"
     id="path3-5" />
  <g
     id="g4592"
     transform="matrix(2.5795495,0,0,2.5795495,-836.94114,-1408.5714)">
    <polygon
       style="color:#000000;fill:#001836;fill-opacity:1;fill-rule:nonzero;stroke:none;stroke-width:3.8006494;marker:none;visibility:visible;display:inline;overflow:visible;enable-background:accumulate"
       id="polygon3"
       points="8,7 8,5 2,5 2,10 7,10 7,8 "
       transform="matrix(6.3147102,0,0,6.3147102,582.65399,606.18868)" />
    <path
       inkscape:connector-curvature="0"
       id="line5"
       d="m 607.90625,625.125 0,18.9375 6.3125,0 0,-18.9375 -6.3125,0 z"
       style="font-size:medium;font-style:normal;font-variant:normal;font-weight:normal;font-stretch:normal;text-indent:0;text-align:start;text-decoration:none;line-height:normal;letter-spacing:normal;word-spacing:normal;text-transform:none;direction:ltr;block-progression:tb;writing-mode:lr-tb;text-anchor:start;baseline-shift:baseline;color:#000000;fill:#001836;fill-opacity:1;fill-rule:nonzero;stroke:none;stroke-width:24;marker:none;visibility:visible;display:inline;overflow:visible;enable-background:accumulate;font-family:Sans;-inkscape-font-specification:Sans" />
    <path
       style="color:#000000;fill:#001836;fill-opacity:1;fill-rule:nonzero;stroke:none;stroke-width:24;marker:none;visibility:visible;display:inline;overflow:visible;enable-background:accumulate"
       id="path9"
       d="m 595.28341,675.65049 v 10.10353 c 0,5.68324 1.89441,10.73501 5.05177,15.15531 l 13.89236,18.94413 h 66.30447 c 10.1035,0 22.1015,-8.84059 28.4162,-17.68119 6.3147,-8.84059 12.6294,-20.83854 12.6294,-26.52178 h -126.2942 z m 94.7206,18.94413 v -6.31471 h 12.6295 v 6.31471 h -12.6295 z"
       inkscape:connector-curvature="0" />
    <rect
       style="color:#000000;fill:#001836;fill-opacity:1;fill-rule:nonzero;stroke:none;stroke-width:24;marker:none;visibility:visible;display:inline;overflow:visible;enable-background:accumulate"
       id="rect11"
       height="12.62942"
       width="18.944132"
       y="656.7063"
       x="652.11591" />
    <rect
       style="color:#000000;fill:#001836;fill-opacity:1;fill-rule:nonzero;stroke:none;stroke-width:24;marker:none;visibility:visible;display:inline;overflow:visible;enable-background:accumulate"
       id="rect13"
       height="12.62942"
       width="18.944132"
       y="656.7063"
       x="677.37476" />
  </g>
</svg>
