<?xml version="1.0" encoding="UTF-8" standalone="no"?>
<!-- Created with Inkscape (http://www.inkscape.org/) -->

<svg
   xmlns:dc="http://purl.org/dc/elements/1.1/"
   xmlns:cc="http://creativecommons.org/ns#"
   xmlns:rdf="http://www.w3.org/1999/02/22-rdf-syntax-ns#"
   xmlns:svg="http://www.w3.org/2000/svg"
   xmlns="http://www.w3.org/2000/svg"
   xmlns:sodipodi="http://sodipodi.sourceforge.net/DTD/sodipodi-0.dtd"
   xmlns:inkscape="http://www.inkscape.org/namespaces/inkscape"
   version="1.0"
   width="580"
   height="580"
   id="svg2"
   sodipodi:version="0.32"
   inkscape:version="0.91 r"
   sodipodi:docname="beacon.svg"
   inkscape:output_extension="org.inkscape.output.svg.inkscape">
  <metadata
     id="metadata1976">
    <rdf:RDF>
      <cc:Work
         rdf:about="">
        <dc:format>image/svg+xml</dc:format>
        <dc:type
           rdf:resource="http://purl.org/dc/dcmitype/StillImage" />
        <cc:license
           rdf:resource="http://web.resource.org/cc/PublicDomain" />
        <dc:language>en</dc:language>
      </cc:Work>
    </rdf:RDF>
  </metadata>
  <sodipodi:namedview
     inkscape:window-height="1004"
     inkscape:window-width="1920"
     inkscape:pageshadow="2"
     inkscape:pageopacity="0.0"
     guidetolerance="10.0"
     gridtolerance="10.0"
     objecttolerance="10.0"
     borderopacity="1.0"
     bordercolor="#666666"
     pagecolor="#ffffff"
     id="base"
     inkscape:zoom="0.65172414"
     inkscape:cx="467.723"
     inkscape:cy="308.31681"
     inkscape:window-x="1680"
     inkscape:window-y="0"
     inkscape:current-layer="svg2"
     showgrid="false"
     inkscape:window-maximized="1" />
  <defs
     id="defs4">
    <inkscape:perspective
       sodipodi:type="inkscape:persp3d"
       inkscape:vp_x="0 : 290 : 1"
       inkscape:vp_y="0 : 1000 : 0"
       inkscape:vp_z="580 : 290 : 1"
       inkscape:persp3d-origin="290 : 193.33333 : 1"
       id="perspective3653" />
  </defs>
  <g
     id="g1327">
    <path
       d="M 66.275,1.768 C 24.94,1.768 1.704,23.139 1.704,66.804 L 1.704,516.927 C 1.704,557.771 22.6,579.156 63.896,579.156 L 515.92,579.156 C 557.227,579.156 578.149,558.842 578.149,516.927 L 578.149,66.804 C 578.149,24.203 557.227,1.768 514.628,1.768 C 514.624,1.768 66.133,1.625 66.275,1.768 z "
       style="fill:#111;stroke:#eee;stroke-width:3.40799999"
       id="path1329" />
  </g>
  <path
     id="path9"
     d="m 290,184.09 c -67.599,0 -122.397,54.799 -122.397,122.397 l 0,48.72 0,61.199 0,37.5 c 2.614,0.402 5.287,0.785 7.988,1.158 0.744,0.104 1.499,0.202 2.25,0.303 2.124,0.285 4.273,0.561 6.449,0.827 0.682,0.085 1.357,0.169 2.044,0.251 5.777,0.689 11.725,1.314 17.825,1.877 0.493,0.045 0.991,0.09 1.487,0.134 2.802,0.253 5.634,0.493 8.499,0.719 0.306,0.023 0.608,0.05 0.915,0.073 6.563,0.511 13.283,0.949 20.142,1.318 0.206,0.011 0.412,0.021 0.618,0.032 3.39,0.181 6.811,0.344 10.266,0.489 0.021,0.002 0.041,0.002 0.063,0.004 l 0,0 c 14.148,0.594 28.81,0.9 43.851,0.9 45.646,0 87.897,-2.773 122.397,-8.086 l 0,-37.5 0,-61.199 0,-48.72 C 412.397,238.888 357.598,184.09 290,184.09 Z"
     inkscape:connector-curvature="0"
     style="fill:#ffffff" />
  <path
     id="path11"
     d="m 412.396,453.906 c -34.5,5.313 -76.75,8.086 -122.397,8.086 -15.041,0 -29.701,-0.307 -43.851,-0.9 -28.787,-1.209 -55.414,-3.625 -78.546,-7.186 0,0 -26.782,15.189 -36.802,53.775 14.716,3.855 32.091,7.025 51.485,9.471 8.464,1.066 17.32,1.992 26.495,2.78 24.997,2.149 52.426,3.259 81.218,3.259 39.36,0 76.194,-2.065 107.714,-6.039 19.395,-2.445 36.77,-5.615 51.486,-9.471 -10.019,-38.586 -36.802,-53.775 -36.802,-53.775 z"
     inkscape:connector-curvature="0"
     style="opacity:0.8;fill:#ffffff" />
  <polygon
     id="polygon13"
     points="284.546,167.803 281.546,56.808 298.454,56.808 295.454,167.803 "
     style="opacity:0.8;fill:#ffffff" />
  <polygon
     id="polygon15"
     points="357.497,183.436 406.837,83.966 421.775,91.885 367.135,188.546 "
     style="opacity:0.8;fill:#ffffff" />
  <polygon
     id="polygon17"
     points="414.628,231.419 504.812,166.646 514.302,180.641 420.75,240.447 "
     style="opacity:0.8;fill:#ffffff" />
  <polygon
     id="polygon19"
     points="442.629,300.572 552.647,285.589 554.475,302.397 443.808,311.417 "
     style="opacity:0.8;fill:#ffffff" />
  <polygon
     id="polygon21"
     points="222.503,183.436 173.163,83.966 158.224,91.885 212.865,188.546 "
     style="opacity:0.8;fill:#ffffff" />
  <polygon
     id="polygon23"
     points="165.372,231.419 75.187,166.646 65.698,180.641 159.25,240.447 "
     style="opacity:0.8;fill:#ffffff" />
  <polygon
     id="polygon25"
     points="137.371,300.572 27.352,285.589 25.524,302.397 136.191,311.417 "
     style="opacity:0.8;fill:#ffffff" />
</svg>
