<svg width="580" height="580" viewBox="0 0 580 580" fill="none" xmlns="http://www.w3.org/2000/svg">
<g clip-path="url(#clip0)">
<path d="M66.2751 1.76802C24.9401 1.76802 1.7041 23.139 1.7041 66.804V516.927C1.7041 557.771 22.5981 579.156 63.8961 579.156H515.92C557.227 579.156 578.149 558.84 578.149 516.927V66.804C578.149 24.203 557.227 1.76802 514.627 1.76802C514.624 1.76802 66.1331 1.62502 66.2751 1.76802Z" fill="#111111" stroke="#EEEEEE" stroke-width="3.408"/>
<path d="M533.979 392.675H495.721L245.371 157.992L241.845 201.628H153.564V170.461H120.412V298.252H153.564V263.967H236.808L226.407 392.676H46.021C39.394 392.676 34.021 399.243 34.021 407.342C34.021 415.442 39.394 422.009 46.021 422.009H533.979C540.607 422.009 545.979 415.442 545.979 407.342C545.979 399.243 540.607 392.675 533.979 392.675V392.675Z" fill="white"/>
</g>
<defs>
<clipPath id="clip0">
<path d="M0 0H580V580H0V0Z" fill="white"/>
</clipPath>
</defs>
</svg>
