<svg width="12" height="12" viewBox="0 0 12 12" fill="none" xmlns="http://www.w3.org/2000/svg">
<path fill-rule="evenodd" clip-rule="evenodd" d="M6 11C8.76142 11 11 8.76142 11 6C11 3.23858 8.76142 1 6 1C3.23858 1 1 3.23858 1 6C1 8.76142 3.23858 11 6 11ZM5.5 9H5C4.44772 9 4 8.55228 4 8V7.5L2.08067 5.1968C2.02777 5.45628 2 5.7249 2 6C2 8.03981 3.52684 9.723 5.5 9.96905V9ZM8.95347 8.69763C9.60349 7.98636 10 7.03948 10 6C10 4.51927 9.19542 3.22646 7.9996 2.5349C7.98106 3.34721 7.31676 4 6.5 4H5.5V4.5C5.5 4.77614 5.27614 5 5 5H4V6H7C7.27614 6 7.5 6.22386 7.5 6.5V8H8C8.44689 8 8.82532 8.29314 8.95347 8.69763Z" fill="white"/>
</svg>
