<?xml version="1.0" encoding="UTF-8" standalone="no"?>
<!-- Created with Inkscape (http://www.inkscape.org/) -->

<svg
   xmlns:dc="http://purl.org/dc/elements/1.1/"
   xmlns:cc="http://creativecommons.org/ns#"
   xmlns:rdf="http://www.w3.org/1999/02/22-rdf-syntax-ns#"
   xmlns:svg="http://www.w3.org/2000/svg"
   xmlns="http://www.w3.org/2000/svg"
   xmlns:sodipodi="http://sodipodi.sourceforge.net/DTD/sodipodi-0.dtd"
   xmlns:inkscape="http://www.inkscape.org/namespaces/inkscape"
   version="1.0"
   width="580"
   height="580"
   id="svg2"
   sodipodi:version="0.32"
   inkscape:version="0.91 r"
   sodipodi:docname="crater.svg"
   inkscape:output_extension="org.inkscape.output.svg.inkscape">
  <metadata
     id="metadata10">
    <rdf:RDF>
      <cc:Work
         rdf:about="">
        <dc:format>image/svg+xml</dc:format>
        <dc:type
           rdf:resource="http://purl.org/dc/dcmitype/StillImage" />
        <cc:license
           rdf:resource="http://web.resource.org/cc/PublicDomain" />
        <dc:language>en</dc:language>
        <dc:title></dc:title>
      </cc:Work>
    </rdf:RDF>
  </metadata>
  <sodipodi:namedview
     inkscape:window-height="1004"
     inkscape:window-width="1920"
     inkscape:pageshadow="2"
     inkscape:pageopacity="0.0"
     guidetolerance="10.0"
     gridtolerance="10.0"
     objecttolerance="10.0"
     borderopacity="1.0"
     bordercolor="#666666"
     pagecolor="#ffffff"
     id="base"
     showgrid="false"
     inkscape:zoom="0.125"
     inkscape:cx="1632.0885"
     inkscape:cy="247.66596"
     inkscape:window-x="1680"
     inkscape:window-y="0"
     inkscape:current-layer="svg2"
     showguides="true"
     inkscape:guide-bbox="true"
     inkscape:window-maximized="1" />
  <defs
     id="defs4">
    <inkscape:perspective
       sodipodi:type="inkscape:persp3d"
       inkscape:vp_x="0 : 290 : 1"
       inkscape:vp_y="0 : 1000 : 0"
       inkscape:vp_z="580 : 290 : 1"
       inkscape:persp3d-origin="290 : 193.33333 : 1"
       id="perspective12" />
    <style
       type="text/css"
       id="style6">
   
    .fil0 {fill:#EF7900}
   
  </style>
    <inkscape:perspective
       id="perspective6807"
       inkscape:persp3d-origin="29.116032 : 19.410688 : 1"
       inkscape:vp_z="58.232063 : 29.116032 : 1"
       inkscape:vp_y="0 : 1000 : 0"
       inkscape:vp_x="0 : 29.116032 : 1"
       sodipodi:type="inkscape:persp3d" />
    <inkscape:perspective
       id="perspective6954"
       inkscape:persp3d-origin="290 : 193.33333 : 1"
       inkscape:vp_z="580 : 290 : 1"
       inkscape:vp_y="0 : 1000 : 0"
       inkscape:vp_x="0 : 290 : 1"
       sodipodi:type="inkscape:persp3d" />
    <inkscape:perspective
       id="perspective2541"
       inkscape:persp3d-origin="240 : 160 : 1"
       inkscape:vp_z="480 : 240 : 1"
       inkscape:vp_y="0 : 1000 : 0"
       inkscape:vp_x="0 : 240 : 1"
       sodipodi:type="inkscape:persp3d" />
    <inkscape:perspective
       id="perspective2750"
       inkscape:persp3d-origin="215 : 143.33333 : 1"
       inkscape:vp_z="430 : 215 : 1"
       inkscape:vp_y="0 : 1000 : 0"
       inkscape:vp_x="0 : 215 : 1"
       sodipodi:type="inkscape:persp3d" />
    <inkscape:perspective
       id="perspective2830"
       inkscape:persp3d-origin="0.5 : 0.33333333 : 1"
       inkscape:vp_z="1 : 0.5 : 1"
       inkscape:vp_y="0 : 1000 : 0"
       inkscape:vp_x="0 : 0.5 : 1"
       sodipodi:type="inkscape:persp3d" />
  </defs>
  <g
     id="g1327">
    <path
       d="M 66.275,1.768 C 24.94,1.768 1.704,23.139 1.704,66.804 L 1.704,516.927 C 1.704,557.771 22.598,579.156 63.896,579.156 L 515.92,579.156 C 557.227,579.156 578.149,558.84 578.149,516.927 L 578.149,66.804 C 578.149,24.203 557.227,1.768 514.627,1.768 C 514.624,1.768 66.133,1.625 66.275,1.768 z"
       style="fill:#111111;stroke:#eeeeee;stroke-width:3.40799999"
       id="path1329" />
  </g>
  <path
     style="color:#000000;clip-rule:nonzero;display:inline;overflow:visible;visibility:visible;opacity:1;isolation:auto;mix-blend-mode:normal;color-interpolation:sRGB;color-interpolation-filters:linearRGB;solid-color:#000000;solid-opacity:1;fill:#ffffff;fill-opacity:1;fill-rule:evenodd;stroke:none;stroke-width:32;stroke-linecap:round;stroke-linejoin:miter;stroke-miterlimit:4;stroke-dasharray:none;stroke-dashoffset:0;stroke-opacity:1;marker:none;color-rendering:auto;image-rendering:auto;shape-rendering:auto;text-rendering:auto;enable-background:accumulate"
     d="m 75.5,36.5 c -21.606,0 -39,17.394 -39,39 l 0,429 c 0,21.606 17.394,39 39,39 l 429,0 c 21.606,0 39,-17.394 39,-39 l 0,-429 c 0,-21.606 -17.394,-39 -39,-39 z M 231.75,64.935547 290,123.5957 l 32.19042,-20.19457 15.98588,15.99986 86.29013,-57.039003 -35.31409,102.083323 75.14063,-31.60351 -39.22266,65.54492 20.77076,19.14312 1.68823,21.02289 64.84961,6.53125 L 456.4043,290 l 29.15332,16.2038 -31.80957,13.66143 46.74804,31.75782 -54.76171,-2.72266 -28.33985,-9.82422 12.05611,24.56946 -15.64009,17.23523 29.875,61.07812 -62.81836,-29.57421 3.67068,31.49362 -50.90896,-5.59128 -15.46485,72.47851 L 290,456.4043 l -32.7092,-21.43001 -17.7576,13.8343 -37.57061,54.03187 11.31475,-64.87562 -63.12736,39.19386 18.34025,-74.25831 -91.865229,49.33984 58.851559,-89.76757 -50.347112,2.55475 L 118.05664,316.23438 59.095703,302.5 120.10547,276.61719 95.615234,257.45312 111.3125,238.44336 89.142578,203.74219 l 61.367192,-6 -2.56446,-70.48828 55.54688,12.07421 z"
     id="rect4207"
     inkscape:connector-curvature="0"
     sodipodi:nodetypes="ssssssssscccccccccccccccccccccccccccccccccccccccccccc" />
  <path
     sodipodi:type="inkscape:offset"
     inkscape:radius="-49.853237"
     inkscape:original="M 422.27148 63.8125 L 338.17578 119.40039 L 322.18945 103.40039 L 290 123.5957 L 231.75 64.935547 L 203.49219 139.32812 L 147.94531 127.25391 L 150.50977 197.74219 L 89.142578 203.74219 L 111.3125 238.44336 L 95.615234 257.45312 L 120.10547 276.61719 L 59.396484 302.37305 L 59.396484 302.57031 L 118.05664 316.23438 L 85.128906 365.02734 L 135.47656 362.47266 L 76.625 452.24023 L 168.49023 402.90039 L 150.15039 477.1582 L 213.27734 437.96484 L 201.96289 502.83984 L 239.5332 448.80859 L 257.29102 434.97461 L 290 456.4043 L 318.16406 510.76562 L 333.62891 438.28711 L 384.53711 443.87891 L 380.86719 412.38477 L 443.68555 441.95898 L 413.81055 380.88086 L 429.45117 363.64648 L 417.39453 339.07617 L 445.73438 348.90039 L 500.49609 351.62305 L 453.74805 319.86523 L 485.55859 306.20312 L 456.4043 290 L 512.37891 245.08398 L 447.5293 238.55273 L 445.8418 217.5293 L 425.07031 198.38672 L 464.29297 132.8418 L 389.15234 164.44531 L 423.96484 63.8125 L 422.27148 63.8125 z "
     style="color:#000000;clip-rule:nonzero;display:inline;overflow:visible;visibility:visible;opacity:0.58803986;isolation:auto;mix-blend-mode:normal;color-interpolation:sRGB;color-interpolation-filters:linearRGB;solid-color:#000000;solid-opacity:1;fill:#ffffff;fill-opacity:1;fill-rule:evenodd;stroke:none;stroke-width:32;stroke-linecap:round;stroke-linejoin:miter;stroke-miterlimit:4;stroke-dasharray:none;stroke-dashoffset:0;stroke-opacity:1;marker:none;color-rendering:auto;image-rendering:auto;shape-rendering:auto;text-rendering:auto;enable-background:accumulate"
     id="path4231"
     d="m 302.9082,154.63672 12.04297,12.05273 A 49.858222,49.858222 0 0 1 254.625,158.72266 l -3.74023,-3.76758 -0.78907,2.07617 a 49.858222,49.858222 0 0 1 -50.01758,31.98828 l 0.25196,6.91016 a 49.858222,49.858222 0 0 1 -39.88867,50.65234 49.858222,49.858222 0 0 1 -0.1211,0.65235 49.858222,49.858222 0 0 1 4.38672,51.52343 49.858222,49.858222 0 0 1 2.5625,25.40039 49.858222,49.858222 0 0 1 17.58985,31.71289 49.858222,49.858222 0 0 1 31.20898,32.34961 49.858222,49.858222 0 0 1 16.17578,3.71485 49.858222,49.858222 0 0 1 52.36719,1.33789 l 14.24219,9.33203 a 49.858222,49.858222 0 0 1 38.24804,-14.02149 49.858222,49.858222 0 0 1 29.6211,-23.99609 49.858222,49.858222 0 0 1 3.67968,-8.10937 l 2.23633,4.55859 a 49.858222,49.858222 0 0 1 -2.0625,-4.88086 49.858222,49.858222 0 0 1 6.31641,-8.7793 l -6.74219,7.43164 a 49.858222,49.858222 0 0 1 36.4668,-64.38086 49.858222,49.858222 0 0 1 3.57031,-18.94335 49.858222,49.858222 0 0 1 -12.35156,-28.94336 l -0.12696,-1.57422 -6.42382,-5.91992 a 49.858222,49.858222 0 0 1 -13.8711,-22.21485 49.858222,49.858222 0 0 1 -37.83789,-43.66015 49.858222,49.858222 0 0 1 -36.66797,-14.53516 z" />
</svg>
