<svg width="580" height="580" viewBox="0 0 580 580" fill="none" xmlns="http://www.w3.org/2000/svg">
<g clip-path="url(#clip0)">
<path d="M66.2751 1.7679C24.9401 1.7679 1.7041 23.1389 1.7041 66.8039V516.927C1.7041 557.771 22.5981 579.156 63.8961 579.156H515.92C557.227 579.156 578.149 558.84 578.149 516.927V66.8039C578.149 24.2029 557.227 1.7679 514.627 1.7679C514.624 1.7679 66.1331 1.6249 66.2751 1.7679Z" fill="#111111" stroke="#EEEEEE" stroke-width="3.408"/>
<path d="M293.466 94.7344L237.393 495.805" stroke="white" stroke-width="46.4096" stroke-linecap="round" stroke-linejoin="round"/>
<path d="M164.55 366.89C219.926 366.89 264.818 321.998 264.818 266.622C264.818 211.246 219.926 166.354 164.55 166.354C109.174 166.354 64.2822 211.246 64.2822 266.622C64.2822 321.998 109.174 366.89 164.55 366.89Z" stroke="white" stroke-width="46.4096"/>
<path d="M436.705 94.7344L479.677 495.805" stroke="white" stroke-width="46.4096" stroke-linecap="round" stroke-linejoin="round"/>
<path d="M365.085 94.7344V495.805" stroke="white" stroke-width="46.4096" stroke-linecap="round" stroke-linejoin="round"/>
<path d="M436.705 94.7344H293.465" stroke="white" stroke-width="46.4096" stroke-linecap="round" stroke-linejoin="round"/>
</g>
<defs>
<clipPath id="clip0">
<path d="M0 0H580V580H0V0Z" fill="white"/>
</clipPath>
</defs>
</svg>
