<svg width="580" height="580" viewBox="0 0 580 580" fill="none" xmlns="http://www.w3.org/2000/svg">
<g clip-path="url(#clip0)">
<path d="M66.275 1.7679C24.94 1.7679 1.704 23.1389 1.704 66.8039V516.927C1.704 557.771 22.599 579.156 63.896 579.156H515.92C557.227 579.156 578.149 558.841 578.149 516.927V66.8039C578.149 24.2029 557.227 1.7679 514.628 1.7679C514.624 1.7679 66.133 1.6249 66.275 1.7679Z" fill="#111111" stroke="#EEEEEE" stroke-width="3.408"/>
<path d="M117.043 48.8125C93.7026 48.8125 74.9121 74.6843 74.9121 106.82V473.18C74.9121 505.316 93.7026 531.188 117.043 531.188H462.957C486.297 531.188 505.088 505.316 505.088 473.18V106.82C505.088 74.6843 486.297 48.8125 462.957 48.8125H117.043ZM282.531 91.541L425.348 241.422H154.652L282.531 91.541ZM154.652 338.578H425.348L282.531 488.459L154.652 338.578Z" fill="white"/>
</g>
<defs>
<clipPath id="clip0">
<path d="M0 0H580V580H0V0Z" fill="white"/>
</clipPath>
</defs>
</svg>
