<svg width="48" height="48" viewBox="0 0 580 580" fill="none" xmlns="http://www.w3.org/2000/svg">
<path d="M373.576 23.2793C337.197 142.967 238.041 158.783 214.452 217.586C190.758 276.653 250.23 316.493 259.966 318.969C259.966 318.969 244.137 285.472 255.318 257.598C263.061 238.297 269.316 232.156 291.532 211.033C307.498 195.851 332.59 175.019 351.301 144.25C372.379 182.328 367.294 213.415 353.076 244.109C333.546 286.271 306.271 319.587 306.271 319.587C414.174 297.57 494.406 118.667 373.576 23.2793Z" fill="white" />
<path d="M241.57 526.078V368.625H338.43V526.078" stroke="white" stroke-width="31.2889" stroke-linecap="round" />
<path d="M241.57 368.625L338.43 526.078V368.625L241.57 526.078" stroke="white" stroke-width="27.8631" stroke-linecap="round" stroke-linejoin="round" />
</svg>