<svg width="48" height="48" viewBox="0 0 580 580" fill="none" xmlns="http://www.w3.org/2000/svg">
<path opacity="0.601" d="M415.289 64.748C415.289 64.748 373.993 132.323 340.205 169.865C340.205 173.619 353.344 188.637 375.869 184.883C375.869 186.76 377.746 190.514 379.623 192.391C368.528 209.033 355.451 225.682 340.422 243.1L439.723 331.021C451.407 330.732 462.133 324.454 469.725 312.525C509.144 318.157 520.406 284.369 522.283 282.492C494.127 259.967 456.586 207.408 456.586 207.408C449.078 222.425 428.428 220.548 420.92 209.285C407.78 213.039 396.518 209.284 389.01 201.775C398.395 207.407 409.658 205.53 415.289 198.021C430.306 211.161 454.707 201.777 454.707 184.883C475.355 194.268 490.373 173.619 490.373 169.865C458.462 132.323 415.289 64.748 415.289 64.748ZM486.619 331.297C486.619 331.297 471.132 348.716 449.195 348.115C449.365 351.103 448.924 354.093 447.899 356.904C446.874 359.715 445.286 362.288 443.232 364.464C441.179 366.64 438.703 368.375 435.957 369.562C433.21 370.749 430.25 371.363 427.258 371.367H424.875V515.252H471.602C456.585 498.358 435.938 509.621 434.061 460.816V455.908C457.576 462 481.518 446.617 490.373 428.906C524.161 442.046 548.564 423.275 557.949 402.627C544.81 393.241 511.021 361.33 486.619 331.297ZM276.805 401.023C276.031 401.58 275.262 402.123 274.506 402.627C274.506 405.48 289.683 427.836 313.443 430.998V401.023H276.805Z" fill="white" />
<path opacity="0.601" d="M157.518 85.0312C146.693 85.0312 137.072 91.5346 131.059 102.916C128.653 101.29 125.044 101.291 122.639 101.291C107.003 101.291 93.7734 117.55 93.7734 137.061V140.312C88.9625 135.435 82.9488 130.557 75.7324 130.557C61.2997 130.557 48.0703 146.816 48.0703 167.953C48.0703 171.205 48.0707 174.457 49.2734 177.709C34.8407 179.335 24.0156 193.968 24.0156 213.479C24.0156 232.99 36.0443 249.25 51.6797 249.25C54.0851 249.25 56.4887 249.249 57.6914 247.623C51.6778 255.753 48.0703 267.135 48.0703 280.143V281.768C34.8403 285.019 24.0156 299.652 24.0156 317.537C24.0156 337.048 36.0443 353.309 51.6797 353.309C54.0851 353.309 56.4891 353.308 58.8945 351.682C60.0973 369.567 72.1259 382.574 86.5586 382.574C96.1804 382.574 105.8 376.071 110.611 364.689C118.532 365.441 126.1 363.131 133.102 359.184C130.914 354.804 130.25 349.82 131.214 345.02C132.178 340.22 134.715 335.879 138.424 332.684L173.537 302.502C173.466 287.596 174.746 271.597 176.762 247.623C176.762 247.623 176.777 270.685 181.053 296.041L277.703 212.965C279.427 211.492 281.369 210.295 283.459 209.416C278.595 199.034 270.101 192.342 259.75 192.342H258.547C262.155 185.838 265.764 177.71 265.764 169.58C265.764 150.069 253.737 133.809 238.102 133.809C230.885 133.809 223.668 137.061 218.857 143.564C215.249 127.305 204.424 115.924 192.396 115.924H188.789C185.181 98.0387 171.95 85.0312 157.518 85.0312ZM151.098 371.275C150.749 392.321 150.303 424.67 150.303 435.582C147.897 507.122 117.829 476.23 108.207 515.252H159.213V371.367H152.764C152.207 371.358 151.652 371.327 151.098 371.275Z" fill="white" />
<path fill-rule="evenodd" clip-rule="evenodd" d="M292.042 229.648L152.764 349.368H181.212V528.946H402.875V349.368H427.256L292.042 229.648ZM251.204 379.023H335.442V462.535H251.204V379.023Z" fill="white" />
</svg>