<svg width="580" height="580" viewBox="0 0 580 580" fill="none" xmlns="http://www.w3.org/2000/svg">
<g clip-path="url(#clip0)">
<path d="M66.2751 1.7679C24.9401 1.7679 1.7041 23.1389 1.7041 66.8039V516.927C1.7041 557.771 22.5981 579.156 63.8961 579.156H515.92C557.227 579.156 578.149 558.84 578.149 516.927V66.8039C578.149 24.2029 557.227 1.7679 514.627 1.7679C514.624 1.7679 66.1331 1.6249 66.2751 1.7679Z" fill="#111111" stroke="#EEEEEE" stroke-width="3.408"/>
<path d="M295.449 82.7449V83.8231L201.023 523.737" stroke="white" stroke-width="21.4003" stroke-linecap="round"/>
<path d="M295.158 82.2058V83.284L378.976 523.198" stroke="white" stroke-width="21.4003" stroke-linecap="round"/>
<path d="M262.07 230.102L337.685 298.189" stroke="white" stroke-width="13.5365" stroke-linecap="round"/>
<path d="M249.49 298.288L350.732 387.166" stroke="white" stroke-width="16.6604" stroke-linecap="round"/>
<path d="M338.756 302.466L233.028 383.409" stroke="white" stroke-width="16.6604" stroke-linecap="round"/>
<path d="M309.407 45.563H281.407C276.161 45.563 271.907 49.8163 271.907 55.063V101.563C271.907 106.81 276.161 111.063 281.407 111.063H309.407C314.654 111.063 318.907 106.81 318.907 101.563V55.063C318.907 49.8163 314.654 45.563 309.407 45.563Z" fill="white"/>
<path d="M324.173 231.931L251.058 294.017" stroke="white" stroke-width="13.5365" stroke-linecap="round"/>
<path d="M370.703 492.436L233.236 387.13" stroke="white" stroke-width="16.6604" stroke-linecap="round"/>
<path d="M211.679 495.972L355.147 387.166" stroke="white" stroke-width="16.6604" stroke-linecap="round"/>
<path d="M313.172 187.838L265.35 229.606" stroke="white" stroke-width="13.5365" stroke-linecap="round"/>
<path d="M275.246 186.484L322.715 232.106" stroke="white" stroke-width="13.5365" stroke-linecap="round"/>
</g>
<defs>
<clipPath id="clip0">
<path d="M0 0H580V580H0V0Z" fill="white"/>
</clipPath>
</defs>
</svg>
