<svg width="580" height="580" viewBox="0 0 580 580" fill="none" xmlns="http://www.w3.org/2000/svg">
<g clip-path="url(#clip0)">
<path d="M66.275 1.7679C24.94 1.7679 1.70398 23.1389 1.70398 66.8039V516.927C1.70398 557.771 22.598 579.156 63.896 579.156H515.92C557.227 579.156 578.149 558.84 578.149 516.927V66.8039C578.149 24.2029 557.227 1.7679 514.627 1.7679C514.624 1.7679 66.133 1.6249 66.275 1.7679Z" fill="#111111" stroke="#EEEEEE" stroke-width="3.408"/>
<path d="M383.001 74.9233L331.407 120.142L401.157 189.048C375.157 217.262 348.976 245.351 322.751 273.392C328.735 278.973 334.71 284.554 340.688 290.142C366.256 261.381 391.889 232.662 417.657 204.111C423.032 200.282 453.566 229.595 457.251 235.111L541.844 279.705C537.188 276.377 499.071 183.698 493.063 178.455C483.783 170.319 472.938 160.65 461.626 150.423L479.532 132.986L465.751 121.33L448.376 138.392C423.964 116.023 399.03 92.2598 383.001 74.9233ZM247.876 353.455C243.637 357.999 239.39 362.532 235.157 367.08L111.907 498.923L135.688 520.611L255.657 385.767C259.614 381.338 263.547 376.888 267.501 372.455C260.958 366.122 254.424 359.781 247.876 353.455V353.455Z" fill="white" stroke="white" stroke-width="20" stroke-linecap="round" stroke-linejoin="round"/>
<path d="M116.009 151.663C87.5563 180.527 68.4453 217.33 44.5636 250.031L97.3869 288.559L154.553 206.17C161.422 202.558 165.891 211.448 170.042 215.416C227.626 272.516 284.54 330.426 341.864 387.844L469.115 515.832L491.66 492.859L361.3 368.038C302.814 311.804 243.843 255.99 185.67 199.491C181.626 195.415 172.653 191.114 176.135 184.178L257.434 125.472L217.918 73.3831C182.68 98.0908 146.854 121.444 116.009 151.663Z" fill="white" stroke="white" stroke-width="20" stroke-linecap="round" stroke-linejoin="round"/>
</g>
<defs>
<clipPath id="clip0">
<path d="M0 0H580V580H0V0Z" fill="white"/>
</clipPath>
</defs>
</svg>
