<svg width="580" height="580" viewBox="0 0 580 580" fill="none" xmlns="http://www.w3.org/2000/svg">
<path opacity="0.1" d="M380.279 61.3435C369.307 67.8463 360.962 78.0791 350.832 85.8525C341.894 93.9338 341.325 92.1049 334.014 101.726C333.819 110.685 345.216 112.667 349.827 119.124L394.436 167.125C369.635 194.208 352.582 214.802 327.969 242.01C325.35 250.166 339.533 257.184 344.031 261.916C347.758 267.407 361.916 277.6 367.594 270.947C391.146 243.091 402.967 228.323 427.623 201.469C443.563 209.284 442.737 203.874 457.858 212.754C484.899 226.506 509.337 244.818 536.748 257.593C542.972 258.082 547.328 269.61 543.248 266.062C526.307 234.082 514.618 199.425 496.592 167.969C487.512 159.166 477.683 150.965 468.373 142.5C473.694 136.81 482.424 132.21 483.373 123.844C477.978 117.279 471.357 109.962 462.873 108.125C455.893 110.993 451.899 117.796 446.373 122.531C425.092 102.836 404.323 82.8032 383.936 62.0935C382.811 61.518 381.553 61.1743 380.279 61.3435ZM220.542 378.054C211.331 383.968 218.694 364.832 210.603 372.075C172.017 413.586 144.944 442.352 106.675 484.094C104.076 492.862 114.273 502.325 118.998 507.5C124.745 511.852 140.804 528.538 148.926 527.457C173.419 502.697 174.131 487.542 197.733 461.988C219.174 437.561 226.194 429.906 247.073 405.116C249.029 395.942 238.436 391.83 233.667 386.116C230.262 382.432 226.433 376.499 220.542 378.054Z" fill="white" stroke="white" stroke-width="10" stroke-linecap="round" stroke-linejoin="round"/>
<path opacity="0.1" d="M215.592 59.7499C200.956 67.5458 188.291 78.5056 174.34 87.4861C135.968 114.234 99.0851 144.598 74.2168 184.812C61.9114 203.577 48.9493 222.145 37.1855 241.125C37.9254 250.636 48.9497 252.523 54.5778 258.391C68.0937 267.452 70.9375 272.902 85.7138 279.827C94.845 277.644 99.4396 262.739 105.386 256.581C120.167 235.694 144.234 221.144 140.967 215.187C137.471 198.667 153.514 228.808 158.807 232.309C257.03 330.349 346.075 420.066 444.029 518.375C451.582 522.487 471.701 503.244 475.998 498.469C480.956 492.359 493.246 478.967 493.857 470.465C481.535 455.531 467.771 456.123 453.792 442.472C362.629 355.226 271.195 267.408 179.811 180.219C179.545 178.168 176.852 168.392 177.754 166.425C202.6 147.973 224.123 136.294 248.215 117.015C251.114 108.011 253.081 106.775 249.374 99.8444C238.588 86.6769 229.953 71.3141 217.279 59.8749C216.736 59.723 216.152 59.6777 215.592 59.7499Z" fill="white" stroke="white" stroke-width="10" stroke-linecap="round" stroke-linejoin="round"/>
<path d="M206.412 57.7211C191.776 65.517 179.111 76.4767 165.16 85.4572C126.789 112.206 92.9054 135.569 68.0371 175.784C55.7317 194.548 39.7696 220.116 28.0059 239.096C39.9876 257.467 67.6933 275.424 86.0342 284.298C106.129 252.862 123.751 228.008 135.91 213.536C238.754 317.133 351.542 431.446 441.829 522.367C450.744 525.117 462.047 510.69 469.936 502.323C479.274 491.832 493.981 482.024 498.198 469.916C486.91 453.947 470.714 441.972 456.605 428.45C363.891 342.755 271.027 256.368 177.981 170.84C200.807 145.594 237.457 129.659 251.035 118.987C246.321 97.632 222.782 71.4191 208.1 57.8461C207.556 57.6942 206.972 57.6489 206.412 57.7211L206.412 57.7211Z" stroke="white" stroke-width="21" stroke-linecap="round" stroke-linejoin="round"/>
<path d="M388.14 46.741C370.057 62.2348 345.398 79.3083 332.125 96.3732C344.671 120.815 383.109 151.071 394.024 161.896C369.855 189.611 347.607 211.408 323.712 239.334C325.497 253.725 360.109 284.181 367.422 276.107C389.784 247.061 410.91 224.199 434.958 196.736C454.995 213.6 451.348 212.522 466.469 221.402C493.51 235.154 519.947 250.465 547.359 263.241C553.583 263.729 555.189 255.008 551.109 251.46C534.168 219.48 522.479 184.823 504.453 153.366C495.373 144.564 485.544 136.363 476.234 127.897C481.555 122.207 490.285 117.608 491.234 109.241C485.839 102.676 479.218 95.3594 470.734 93.5222C463.754 96.3904 459.76 103.193 454.234 107.928C432.953 88.2337 412.184 68.2007 391.797 47.491C390.672 46.9154 389.414 46.5718 388.14 46.741V46.741ZM212.738 361.774C172.625 400.526 129.604 450.528 103.432 480.429C108.868 496.115 137.108 525.806 151.307 527.648C184.947 483.25 234.258 429.421 254.097 403.665C252.614 392.903 219.898 361.746 212.737 361.774L212.738 361.774Z" stroke="white" stroke-width="20.7" stroke-linecap="round" stroke-linejoin="round"/>
</svg>
