<svg width="580" height="580" viewBox="0 0 580 580" fill="none" xmlns="http://www.w3.org/2000/svg">
<g clip-path="url(#clip0)">
<path d="M66.2751 1.7679C24.9401 1.7679 1.7041 23.1389 1.7041 66.8039V516.927C1.7041 557.771 22.5991 579.156 63.8961 579.156H515.92C557.227 579.156 578.149 558.841 578.149 516.927V66.8039C578.149 24.2029 557.227 1.7679 514.628 1.7679C514.624 1.7679 66.1331 1.6249 66.2751 1.7679Z" fill="#111111" stroke="#EEEEEE" stroke-width="3.408"/>
<path d="M343.451 264.451H236.548L165.28 550.852H414.72L343.451 264.451V264.451ZM255.844 336.051H325.438L334.169 371.851H246.865L255.844 336.051V336.051ZM237.867 407.651H342.881L351.612 443.451H228.887L237.867 407.651ZM219.907 479.251H360.36L369.09 515.051H210.927L219.907 479.251V479.251Z" fill="white"/>
<path d="M290 234.689C322.837 234.689 349.458 208.069 349.458 175.231C349.458 142.394 322.837 115.774 290 115.774C257.162 115.774 230.542 142.394 230.542 175.231C230.542 208.069 257.162 234.689 290 234.689Z" fill="white"/>
<path d="M418.559 160.454C410.251 95.772 355.227 47.3043 290.014 47.2239C224.79 47.2901 169.751 95.7613 161.441 160.454" stroke="white" stroke-width="36.1508" stroke-linecap="round" stroke-linejoin="round"/>
<path d="M182.587 140.626H156.548V205.183H182.587V140.626Z" stroke="white" stroke-width="30" stroke-linecap="round" stroke-linejoin="round"/>
<path d="M423.452 142.559H397.413V207.116H423.452V142.559Z" stroke="white" stroke-width="30" stroke-linecap="round" stroke-linejoin="round"/>
</g>
<defs>
<clipPath id="clip0">
<path d="M0 0H580V580H0V0Z" fill="white"/>
</clipPath>
</defs>
</svg>
