<svg width="48" height="48" viewBox="0 0 580 580" fill="none" xmlns="http://www.w3.org/2000/svg">
<path d="M54.4297 312.152V313.187C54.4297 312.84 54.4505 312.498 54.4576 312.152H54.4297ZM54.4297 313.187V438.511V444.021H54.7654C58.0425 473.3 87.2469 499.059 130.906 515.465C130.906 483.119 131.315 440.129 131.315 440.129C146.3 447.342 163.295 452.802 178.876 455.845C178.876 455.845 179.047 457.315 179.047 528.554C198.975 532.196 220.462 534.181 242.862 534.181C343.278 534.181 425.332 494.291 430.959 444.021H431.294V438.511V313.187C431.294 366.023 346.923 408.858 242.862 408.858C138.801 408.858 54.4297 366.023 54.4297 313.187ZM431.294 313.187V312.152H431.266C431.273 312.498 431.294 312.84 431.294 313.187Z" fill="white" />
<path d="M269.285 318.693C265.808 255.38 242.708 164.779 195.68 115.709C114.445 134.169 54.4297 199.178 54.4297 276.541C54.4297 277.366 54.4441 278.182 54.4576 279.003C54.4585 279.022 54.4567 279.041 54.4576 279.059C57.094 330.727 140.407 372.212 242.806 372.212C345.205 372.212 428.627 330.754 431.266 279.087C431.267 279.068 431.266 279.05 431.266 279.031C431.28 278.2 431.294 277.375 431.294 276.541C431.294 196.706 367.383 130.028 282.196 114.084C307.955 141.536 322.71 166.901 332.44 196.012C344.013 230.634 351.753 263.592 354.778 295.722C334.288 308.754 298.813 316.015 269.285 318.693H269.285Z" fill="white" />
<path d="M324.324 226.478C324.324 241.804 311.9 254.228 296.574 254.228C281.248 254.228 268.824 241.804 268.824 226.478C268.824 211.152 281.248 198.728 296.574 198.728C311.9 198.728 324.324 211.152 324.324 226.478Z" fill="white" />
<path d="M549.57 88.1751L510.759 120.599L523.095 169.644L480.265 142.753L437.434 169.644L449.77 120.599L410.959 88.1751L461.419 84.7503L480.265 37.8188L499.11 84.7503L549.57 88.1751Z" fill="white" />
</svg>