<svg width="580" height="580" viewBox="0 0 580 580" fill="none" xmlns="http://www.w3.org/2000/svg">
<g clip-path="url(#clip0)">
<path d="M66.2751 1.76815C24.9401 1.76815 1.7041 23.1391 1.7041 66.8041V516.927C1.7041 557.771 22.5991 579.156 63.8961 579.156H515.92C557.227 579.156 578.149 558.841 578.149 516.927V66.8041C578.149 24.2031 557.227 1.76815 514.628 1.76815C514.624 1.76815 66.1331 1.62515 66.2751 1.76815Z" fill="#111111" stroke="#EEEEEE" stroke-width="3.408"/>
<path fill-rule="evenodd" clip-rule="evenodd" d="M264.733 44.019H310.306V543.112H265.209L264.733 44.019Z" fill="white" stroke="white" stroke-width="18.697" stroke-linecap="round" stroke-linejoin="round"/>
<path fill-rule="evenodd" clip-rule="evenodd" d="M492.038 213.82L458.132 241.758L280.467 207.581L281.552 157.943L457.318 180.728L492.038 213.82Z" fill="white" stroke="white" stroke-width="18.8" stroke-linecap="round" stroke-linejoin="round"/>
<path fill-rule="evenodd" clip-rule="evenodd" d="M75.4062 253.828L109.312 273.086L286.977 216.125L289.147 164.317L110.126 212.056L75.4062 253.828Z" fill="white" stroke="white" stroke-width="18.8" stroke-linecap="round" stroke-linejoin="round"/>
<path fill-rule="evenodd" clip-rule="evenodd" d="M437.167 78.5846L416.182 114.706L269.232 154.392L258.283 103.919L415.442 63.1143L437.167 78.5846Z" fill="white" stroke="white" stroke-width="18.0306" stroke-linecap="round" stroke-linejoin="round"/>
<path fill-rule="evenodd" clip-rule="evenodd" d="M136.233 85.4606L157.219 121.582L304.169 161.268L315.118 110.795L157.958 69.9902L136.233 85.4606Z" fill="white" stroke="white" stroke-width="18.0306" stroke-linecap="round" stroke-linejoin="round"/>
</g>
<defs>
<clipPath id="clip0">
<path d="M0 0H580V580H0V0Z" fill="white"/>
</clipPath>
</defs>
</svg>
