<svg width="580" height="580" viewBox="0 0 580 580" fill="none" xmlns="http://www.w3.org/2000/svg">
<g clip-path="url(#clip0)">
<path d="M66.2751 1.76815C24.9401 1.76815 1.7041 23.1391 1.7041 66.8041V516.927C1.7041 557.771 22.5981 579.156 63.8961 579.156H515.92C557.227 579.156 578.149 558.84 578.149 516.927V66.8041C578.149 24.2031 557.227 1.76815 514.627 1.76815C514.624 1.76815 66.1331 1.62515 66.2751 1.76815Z" fill="#111111" stroke="#EEEEEE" stroke-width="3.408"/>
<path d="M190.487 153.583C190.487 114.373 158.701 82.5859 119.488 82.5859C80.2792 82.5859 48.4932 114.372 48.4932 153.583V497.415H190.487C190.487 497.415 190.487 314.978 190.487 153.583V153.583Z" fill="white"/>
<path d="M492.349 243.162L385.857 176.613L290.363 243.078L231.776 326.13L217.099 346.934H231.776H253.053V500.381H520.784V346.934H555.647L492.349 243.162ZM352.522 265.192H420.228V337.466H352.522V265.192ZM464.807 472.615H307.941V378.672H464.807V472.615Z" fill="white"/>
</g>
<defs>
<clipPath id="clip0">
<path d="M0 0H580V580H0V0Z" fill="white"/>
</clipPath>
</defs>
</svg>
