<svg width="580" height="580" viewBox="0 0 580 580" fill="none" xmlns="http://www.w3.org/2000/svg">
<g clip-path="url(#clip0)">
<path d="M66.2751 1.76815C24.9401 1.76815 1.7041 23.1391 1.7041 66.8041V516.927C1.7041 557.771 22.5991 579.156 63.8961 579.156H515.92C557.227 579.156 578.149 558.841 578.149 516.927V66.8041C578.149 24.2031 557.227 1.76815 514.628 1.76815C514.624 1.76815 66.1331 1.62515 66.2751 1.76815Z" fill="#111111" stroke="#EEEEEE" stroke-width="3.408"/>
<path d="M186.772 548.814L244.362 80.3472" stroke="white" stroke-width="31.7371" stroke-linecap="round" stroke-linejoin="round"/>
<path d="M396.262 551.029L338.673 80.3472" stroke="white" stroke-width="31.7371" stroke-linecap="round" stroke-linejoin="round"/>
<path d="M130.235 71.4873H448.083" stroke="white" stroke-width="25.4916" stroke-linecap="round" stroke-linejoin="round"/>
<path d="M131.343 71.93L241.538 25.8586L330.69 24.9741L450.299 73.7033" stroke="white" stroke-width="25.4916" stroke-linecap="round" stroke-linejoin="round"/>
<path d="M126.968 72.9287V124.98" stroke="white" stroke-width="25.4916" stroke-linecap="round" stroke-linejoin="round"/>
<path d="M450.482 72.9287V124.98" stroke="white" stroke-width="25.4916" stroke-linecap="round" stroke-linejoin="round"/>
<path d="M42.5264 280.519H534.578" stroke="white" stroke-width="25.4916" stroke-linecap="round" stroke-linejoin="round"/>
<path d="M44.2412 280.518L214.831 222.929L352.845 221.823L538.007 282.735" stroke="white" stroke-width="25.4916" stroke-linecap="round" stroke-linejoin="round"/>
<path d="M41.6919 280.519V332.57" stroke="white" stroke-width="25.4916" stroke-linecap="round" stroke-linejoin="round"/>
<path d="M538.308 281.626V333.678" stroke="white" stroke-width="25.4916" stroke-linecap="round" stroke-linejoin="round"/>
<path d="M188.987 545.491L379.475 410.034L204.461 281.929" stroke="white" stroke-width="19.1187" stroke-linecap="round" stroke-linejoin="round"/>
<path d="M392.221 545.491L201.733 411.608L376.747 284.993" stroke="white" stroke-width="19.1187" stroke-linejoin="round"/>
<path d="M225.535 281.529L346.251 174.087L251.007 80.3608" stroke="white" stroke-width="19.1187"/>
<path d="M358.006 281.077L237.29 173.635L332.533 79.9087" stroke="white" stroke-width="19.1187"/>
</g>
<defs>
<clipPath id="clip0">
<path d="M0 0H580V580H0V0Z" fill="white"/>
</clipPath>
</defs>
</svg>
