<?xml version="1.0" encoding="UTF-8" standalone="no"?>
<svg
   xmlns:dc="http://purl.org/dc/elements/1.1/"
   xmlns:cc="http://creativecommons.org/ns#"
   xmlns:rdf="http://www.w3.org/1999/02/22-rdf-syntax-ns#"
   xmlns:svg="http://www.w3.org/2000/svg"
   xmlns="http://www.w3.org/2000/svg"
   xmlns:sodipodi="http://sodipodi.sourceforge.net/DTD/sodipodi-0.dtd"
   xmlns:inkscape="http://www.inkscape.org/namespaces/inkscape"
   width="48"
   height="48"
   viewBox="0 0 48 48"
   version="1.1"
   id="svg30"
   style="fill:none"
   sodipodi:docname="power_portal.svg"
   inkscape:version="0.92.5 (2060ec1f9f, 2020-04-08)">
  <metadata
     id="metadata16">
    <rdf:RDF>
      <cc:Work
         rdf:about="">
        <dc:format>image/svg+xml</dc:format>
        <dc:type
           rdf:resource="http://purl.org/dc/dcmitype/StillImage" />
        <dc:title></dc:title>
      </cc:Work>
    </rdf:RDF>
  </metadata>
  <defs
     id="defs14">
    <clipPath
       id="clip0">
      <path
         style="fill:#ffffff"
         inkscape:connector-curvature="0"
         d="M 0,0 H 580 V 580 H 0 Z"
         id="path10" />
    </clipPath>
  </defs>
  <sodipodi:namedview
     pagecolor="#ffffff"
     bordercolor="#666666"
     borderopacity="1"
     objecttolerance="10"
     gridtolerance="10"
     guidetolerance="10"
     inkscape:pageopacity="0"
     inkscape:pageshadow="2"
     inkscape:window-width="1920"
     inkscape:window-height="1014"
     id="namedview12"
     showgrid="false"
     inkscape:zoom="13.906433"
     inkscape:cx="20.399582"
     inkscape:cy="26.969382"
     inkscape:window-x="1920"
     inkscape:window-y="0"
     inkscape:window-maximized="1"
     inkscape:current-layer="svg30" />
  <path
     style="color:#000000;font-style:normal;font-variant:normal;font-weight:normal;font-stretch:normal;font-size:medium;line-height:normal;font-family:sans-serif;font-variant-ligatures:normal;font-variant-position:normal;font-variant-caps:normal;font-variant-numeric:normal;font-variant-alternates:normal;font-feature-settings:normal;text-indent:0;text-align:start;text-decoration:none;text-decoration-line:none;text-decoration-style:solid;text-decoration-color:#000000;letter-spacing:normal;word-spacing:normal;text-transform:none;writing-mode:lr-tb;direction:ltr;text-orientation:mixed;dominant-baseline:auto;baseline-shift:baseline;text-anchor:start;white-space:normal;shape-padding:0;clip-rule:nonzero;display:inline;overflow:visible;visibility:visible;opacity:1;isolation:auto;mix-blend-mode:normal;color-interpolation:sRGB;color-interpolation-filters:linearRGB;solid-color:#000000;solid-opacity:1;vector-effect:none;fill:#ffffff;fill-opacity:0.99810249;fill-rule:evenodd;stroke:none;stroke-width:1;stroke-linecap:butt;stroke-linejoin:miter;stroke-miterlimit:4;stroke-dasharray:none;stroke-dashoffset:0;stroke-opacity:1;color-rendering:auto;image-rendering:auto;shape-rendering:auto;text-rendering:auto;enable-background:accumulate;font-variant-east_asian:normal"
     d="M 11.011719 4.8847656 L 5.0117188 42.84375 A 1.0005567 1.0005567 0 1 0 6.9882812 43.15625 L 8.1191406 36 L 15.871094 36 L 17.011719 43.236328 A 1.0005565 1.0005565 0 0 0 18.988281 42.923828 L 13.794922 10 L 18 10 L 18 13.029297 A 1.0001 1.0001 0 1 0 20 13.029297 L 20 10 L 28 10 L 28 12.990234 A 1.0001 1.0001 0 1 0 30 12.990234 L 30 10 L 34.203125 10 L 29.011719 42.84375 A 1.0005565 1.0005565 0 0 0 30.988281 43.15625 L 32.119141 36 L 39.871094 36 L 41.011719 43.236328 A 1.0005565 1.0005565 0 0 0 42.988281 42.923828 L 36.988281 4.8847656 L 35.011719 4.8847656 L 34.519531 8 L 13.480469 8 L 12.988281 4.8847656 L 11.011719 4.8847656 z M 11.998047 11.455078 L 13.990234 24.080078 L 10.001953 24.080078 L 11.998047 11.455078 z M 35.998047 11.455078 L 37.957031 23.869141 L 34.037109 23.869141 L 35.998047 11.455078 z M 33.720703 25.869141 L 38.271484 25.869141 L 39.554688 34 L 32.435547 34 L 33.720703 25.869141 z M 9.6875 26.080078 L 14.304688 26.080078 L 15.554688 34 L 8.4355469 34 L 9.6875 26.080078 z "
     id="path818" />
</svg>
