<svg width="580" height="580" viewBox="0 0 580 580" fill="none" xmlns="http://www.w3.org/2000/svg">
<path d="M81.1594 172.422V519.578H203.284V195.254L81.1594 172.422ZM103.179 215.445H125.38V233.35H103.179V215.445ZM159.208 215.445H181.41V233.35H159.208V215.445ZM103.397 253.846H125.598V272.132H103.397V253.846ZM158.99 253.846H181.191V272.132H158.99V253.846ZM103.397 290.418H125.598V308.704H103.397V290.418ZM158.99 290.418H181.191V308.704H158.99V290.418ZM103.397 326.99H125.598V345.276H103.397V326.99ZM158.99 326.99H181.191V345.276H158.99V326.99ZM103.397 364.121H125.598V382.407H103.397V364.121ZM158.881 364.121H181.082V382.407H158.881V364.121ZM103.397 400.693H125.598V418.979H103.397V400.693ZM158.881 400.693H181.082V418.979H158.881V400.693ZM103.397 437.265H125.598V455.551H103.397V437.265ZM158.881 437.265H181.082V455.551H158.881V437.265ZM103.397 473.863H125.598V492.149H103.397V473.863ZM158.881 473.863H181.082V492.149H158.881V473.863Z" fill="white"/>
<path d="M511.841 117.954L422.722 43.7188V520H511.841V117.954Z" fill="white"/>
<path d="M265.766 127.5H289.385V97.4998H301.151L301.194 67.4998H309.593L309.52 40.1873L317.288 40.1802L317.269 67.4998H324.812L324.95 97.4998H336.621V127.5H360.24V520H265.766L265.766 127.5Z" fill="white"/>
</svg>
