<svg width="580" height="580" viewBox="0 0 580 580" fill="none" xmlns="http://www.w3.org/2000/svg">
<g clip-path="url(#clip0)">
<path d="M66.275 1.76815C24.94 1.76815 1.70398 23.1391 1.70398 66.8041V516.927C1.70398 557.771 22.598 579.156 63.896 579.156H515.92C557.227 579.156 578.149 558.84 578.149 516.927V66.8041C578.149 24.2031 557.227 1.76815 514.627 1.76815C514.624 1.76815 66.133 1.62515 66.275 1.76815Z" fill="#111111" stroke="#EEEEEE" stroke-width="3.408"/>
<path d="M290.036 89.2446V90.3228L195.611 530.237" stroke="white" stroke-width="21.4003" stroke-linecap="round"/>
<path d="M319.786 39.063H261.38C255.092 39.063 249.994 44.1604 249.994 50.4485V106.177C249.994 112.466 255.092 117.563 261.38 117.563H319.786C326.074 117.563 331.172 112.466 331.172 106.177V50.4485C331.172 44.1604 326.074 39.063 319.786 39.063Z" fill="white"/>
<path d="M290.036 89.2446V90.3228L290.191 530.237" stroke="white" stroke-width="21.4003" stroke-linecap="round"/>
<path d="M289.964 89.2446V90.3228L384.389 530.237" stroke="white" stroke-width="21.4003" stroke-linecap="round"/>
</g>
<defs>
<clipPath id="clip0">
<path d="M0 0H580V580H0V0Z" fill="white"/>
</clipPath>
</defs>
</svg>
