<svg width="580" height="580" viewBox="0 0 580 580" fill="none" xmlns="http://www.w3.org/2000/svg">
<g clip-path="url(#clip0)">
<path d="M66.275 1.76815C24.94 1.76815 1.704 23.1391 1.704 66.8041V516.927C1.704 557.771 22.599 579.156 63.896 579.156H515.92C557.227 579.156 578.149 558.841 578.149 516.927V66.8041C578.149 24.2031 557.227 1.76815 514.628 1.76815C514.624 1.76815 66.133 1.62515 66.275 1.76815Z" fill="#111111" stroke="#EEEEEE" stroke-width="3.408"/>
<path d="M194.146 510.952L187.601 540.595L145.181 540.469L217.81 212.506L175.894 212.128V92.8002L298.432 37.8564L420.97 92.8002V212.128L379.054 212.506L451.557 540.469L409.264 540.595L402.718 511.077L298.369 383.882L194.146 510.952ZM211.202 433.728L275.397 355.561L238.39 310.687L211.202 433.728V433.728ZM348.656 266.191L336.823 212.38H260.104L248.272 266.128L298.432 327.617L348.656 266.191ZM358.474 310.687L321.467 355.561L385.662 433.728L358.474 310.687ZM221.901 109.478V169.709H374.963V109.478H221.901Z" fill="white"/>
</g>
<defs>
<clipPath id="clip0">
<path d="M0 0H580V580H0V0Z" fill="white"/>
</clipPath>
</defs>
</svg>
