<svg width="580" height="580" viewBox="0 0 580 580" fill="none" xmlns="http://www.w3.org/2000/svg">
<g clip-path="url(#clip0)">
<path d="M66.2751 1.76815C24.9401 1.76815 1.7041 23.1391 1.7041 66.8041V516.927C1.7041 557.771 22.5981 579.156 63.8961 579.156H515.92C557.227 579.156 578.149 558.84 578.149 516.927V66.8041C578.149 24.2031 557.227 1.76815 514.627 1.76815C514.624 1.76815 66.1331 1.62515 66.2751 1.76815Z" fill="#111111" stroke="#EEEEEE" stroke-width="3.408"/>
<path d="M325.578 145.399C325.487 150.771 322.832 155.893 318.197 159.644C313.562 163.394 307.324 165.465 300.852 165.404C294.379 165.342 288.2 163.153 283.669 159.316C279.138 155.479 276.626 150.307 276.682 144.935C276.738 139.563 279.359 134.428 283.97 130.657C288.58 126.886 294.805 124.787 301.277 124.819C307.75 124.851 313.944 127.012 318.499 130.829C323.055 134.645 325.602 139.806 325.581 145.178" fill="white"/>
<path d="M325.578 145.399C325.487 150.771 322.832 155.893 318.197 159.644C313.562 163.394 307.324 165.465 300.852 165.404C294.379 165.342 288.2 163.153 283.669 159.316C279.138 155.479 276.626 150.307 276.682 144.935C276.738 139.563 279.359 134.428 283.97 130.657C288.58 126.886 294.805 124.787 301.277 124.819C307.75 124.851 313.944 127.012 318.499 130.829C323.055 134.645 325.602 139.806 325.581 145.178" stroke="white" stroke-width="2.4177" stroke-linecap="round"/>
<path d="M300.542 162.603C300.542 162.909 300.542 163.216 300.542 163.522C300.542 187.855 284.209 399.784 180.112 538.737" stroke="white" stroke-width="19.8093" stroke-linecap="round"/>
<path d="M300.25 162.143C300.25 162.449 300.25 162.756 300.25 163.062C300.25 187.395 316.582 399.324 420.68 538.277" stroke="white" stroke-width="19.8093" stroke-linecap="round"/>
<path d="M426.917 40.9067C444.834 55.227 458.881 73.0151 467.996 92.9238C477.11 112.833 481.052 134.34 479.524 155.817C477.996 177.294 471.037 198.178 459.175 216.887C447.312 235.596 430.857 251.639 411.056 263.801" stroke="white" stroke-width="4.964" stroke-linecap="round"/>
<path d="M384.288 76.248C397.064 85.3095 407.201 97.0117 413.833 110.353C420.464 123.695 423.391 138.278 422.364 152.855C421.337 167.433 416.386 181.57 407.936 194.057C399.485 206.544 387.785 217.009 373.839 224.557" stroke="white" stroke-width="4.964" stroke-linecap="round"/>
<path d="M353.294 111.536C359.732 115.762 364.84 121.221 368.181 127.444C371.523 133.667 372.998 140.47 372.48 147.269C371.963 154.069 369.468 160.663 365.21 166.488C360.952 172.313 355.056 177.194 348.029 180.715" stroke="white" stroke-width="4.7846" stroke-linecap="round"/>
<path d="M178.989 41.1226C161.072 55.4428 147.025 73.2309 137.91 93.1397C128.796 113.048 124.854 134.556 126.382 156.033C127.91 177.51 134.869 198.394 146.731 217.103C158.594 235.811 175.049 251.854 194.85 264.017" stroke="white" stroke-width="4.964" stroke-linecap="round"/>
<path d="M221.62 76.4639C208.844 85.5254 198.706 97.2275 192.075 110.569C185.444 123.91 182.516 138.494 183.543 153.071C184.57 167.648 189.521 181.786 197.972 194.273C206.423 206.76 218.122 217.225 232.069 224.773" stroke="white" stroke-width="4.964" stroke-linecap="round"/>
<path d="M252.623 111.736C246.185 115.963 241.077 121.421 237.735 127.644C234.394 133.867 232.919 140.67 233.436 147.469C233.954 154.269 236.448 160.863 240.707 166.688C244.965 172.513 250.861 177.394 257.888 180.915" stroke="white" stroke-width="4.7846" stroke-linecap="round"/>
<path d="M325.848 314.641L257.344 378.053" stroke="white" stroke-width="12.5302" stroke-linecap="round"/>
<path d="M275.377 314.641L343.881 378.053" stroke="white" stroke-width="12.5302" stroke-linecap="round"/>
<path d="M270.869 377.873L378.1 477.135" stroke="white" stroke-width="15.4217" stroke-linecap="round"/>
<path d="M330.013 377.873L222.782 477.135" stroke="white" stroke-width="15.4217" stroke-linecap="round"/>
</g>
<defs>
<clipPath id="clip0">
<path d="M0 0H580V580H0V0Z" fill="white"/>
</clipPath>
</defs>
</svg>
