<svg width="580" height="580" viewBox="0 0 580 580" fill="none" xmlns="http://www.w3.org/2000/svg">
<g clip-path="url(#clip0)">
<path d="M66.275 1.76815C24.94 1.76815 1.70398 23.1391 1.70398 66.8041V516.927C1.70398 557.771 22.599 579.156 63.896 579.156H515.92C557.227 579.156 578.149 558.841 578.149 516.927V66.8041C578.149 24.2031 557.227 1.76815 514.628 1.76815C514.624 1.76815 66.133 1.62515 66.275 1.76815Z" fill="#111111" stroke="#EEEEEE" stroke-width="3.408"/>
<path d="M236.562 174.25L165.281 533.75H414.719L343.438 174.25H236.562ZM311.875 184.125L318.25 223.562L263.531 223.625L269.312 184.219L311.875 184.125ZM255.844 264.125H325.438L334.156 309.062H246.875L255.844 264.125ZM237.875 354H342.875L351.625 398.938H228.875L237.875 354ZM219.906 443.875H360.375L369.094 488.812H210.938L219.906 443.875Z" fill="white"/>
<path d="M351.788 50.8135V89.7789H315.574V50.8135H262.642V89.7789H226.428V50.8135L195.359 50.9321V182.536H382.857V50.9321L351.788 50.8135Z" fill="white"/>
</g>
<defs>
<clipPath id="clip0">
<path d="M0 0H580V580H0V0Z" fill="white"/>
</clipPath>
</defs>
</svg>
