<svg width="580" height="580" viewBox="0 0 580 580" fill="none" xmlns="http://www.w3.org/2000/svg">
<g clip-path="url(#clip0)">
<path d="M66.2751 1.76815C24.9401 1.76815 1.7041 23.1391 1.7041 66.8041V516.927C1.7041 557.771 22.5981 579.156 63.8961 579.156H515.92C557.227 579.156 578.149 558.84 578.149 516.927V66.8041C578.149 24.2031 557.227 1.76815 514.627 1.76815C514.624 1.76815 66.1331 1.62515 66.2751 1.76815Z" fill="#111111" stroke="#EEEEEE" stroke-width="3.408"/>
<path d="M394.923 402.883C394.923 411.598 352.954 421.599 290 421.599C227.046 421.599 185.077 410.966 185.077 402.883C185.077 391.437 221.456 356.818 221.456 349.187C221.456 340.603 224.284 306.544 224.284 297.96C224.284 269.735 243.717 246.425 271.962 241.597C271.962 241.311 271.962 240.929 271.962 240.729C271.962 238.821 271.962 213.69 271.962 213.69H308.038C308.038 213.69 308.038 238.821 308.038 240.729C308.038 240.929 308.038 241.311 308.038 241.597C336.533 245.685 355.716 269.735 355.716 297.96C355.716 306.544 358.544 340.603 358.544 349.187C358.544 356.818 394.923 391.437 394.923 402.883V402.883ZM290 442.344C280.034 442.344 278.554 441.283 273.785 441.283C271.877 444.145 270.923 446.053 270.923 449.868C270.923 460.36 279.508 468.945 290 468.945C300.492 468.945 309.077 460.36 309.077 449.868C309.077 446.053 308.123 444.145 306.215 441.283C301.446 441.283 299.966 442.344 290 442.344V442.344Z" fill="white"/>
<path d="M444.363 114.139V104.005C444.363 102.689 444.363 101.393 439.218 100.087L359.424 87.0747L298.157 42.9338C294.079 41.6275 285.921 41.6275 281.842 42.9338L220.272 87.1966L140.782 100.087C135.636 101.393 135.636 102.691 135.636 104.005V114.139L45.2727 169.642L45.8079 185.114H534.657L534.727 169.642L444.363 114.139Z" fill="white"/>
<path d="M154.477 214.418H110.448V543.945H154.477V214.418Z" fill="white"/>
<path d="M469.552 214.418H425.523V543.945H469.552V214.418Z" fill="white"/>
</g>
<defs>
<clipPath id="clip0">
<path d="M0 0H580V580H0V0Z" fill="white"/>
</clipPath>
</defs>
</svg>
