<svg width="48" height="48" viewBox="0 0 48 48" fill="none" xmlns="http://www.w3.org/2000/svg">
<path fill-rule="evenodd" clip-rule="evenodd" d="M16 4L4 12H2V16H4V44H20V40H24V44H28V16H30V12H28L16 4ZM16 8C14.8954 8 14 8.89543 14 10C14 11.1046 14.8954 12 16 12C17.1046 12 18 11.1046 18 10C18 8.89543 17.1046 8 16 8ZM8 16H12V20H16V24H8V16ZM20 28H24V32H20V28ZM8 36H16V32H12V28H8V36ZM20 16H24V20H20V16Z" fill="white"/>
<path opacity="0.7" fill-rule="evenodd" clip-rule="evenodd" d="M44 16H28V20H32V24H28V28H32V32H28V36H32V40H28V44H44V16ZM40 20H36V24H40V20ZM40 28H36V32H40V28ZM40 36H36V40H40V36Z" fill="white"/>
<g opacity="0.5">
<path d="M16 20H8V24H16V20Z" fill="white"/>
<path d="M8 32H16V36H8V32Z" fill="white"/>
<path d="M20 40H24V44H20V40Z" fill="white"/>
</g>
</svg>
