<svg width="580" height="580" viewBox="0 0 580 580" fill="none" xmlns="http://www.w3.org/2000/svg">
<g clip-path="url(#clip0)">
<path d="M67.3601 0.683184C26.0251 0.683184 2.78906 22.0542 2.78906 65.7192V515.842C2.78906 556.686 23.6841 578.071 64.9811 578.071H517.005C558.312 578.071 579.234 557.756 579.234 515.842V65.7192C579.234 23.1182 558.312 0.683184 515.713 0.683184C515.709 0.683184 67.2181 0.540184 67.3601 0.683184V0.683184Z" fill="#111111" stroke="#EEEEEE" stroke-width="3.408"/>
<path d="M354.788 527.921V303.331" stroke="white" stroke-width="25" stroke-linecap="round" stroke-linejoin="round"/>
<path d="M298.234 58.849C331.104 62.2624 361.275 78.5818 382.122 104.223C402.968 129.865 412.786 162.732 409.418 195.606C406.051 228.48 389.774 258.674 364.161 279.557C338.549 300.439 305.696 310.302 272.817 306.981C239.938 303.659 209.721 287.424 188.803 261.84C167.885 236.257 157.976 203.418 161.252 170.534C164.527 137.651 180.721 107.411 206.275 86.4578C231.829 65.5041 264.654 55.5491 297.542 58.7791" fill="white" fill-opacity="0.425121"/>
<path d="M298.234 58.849C331.104 62.2624 361.275 78.5818 382.122 104.223C402.968 129.865 412.786 162.732 409.418 195.606C406.051 228.48 389.774 258.674 364.161 279.557C338.549 300.439 305.696 310.302 272.817 306.981C239.938 303.659 209.721 287.424 188.803 261.84C167.885 236.257 157.976 203.418 161.252 170.534C164.527 137.651 180.721 107.411 206.275 86.4578C231.829 65.5041 264.654 55.5491 297.542 58.7791" stroke="white" stroke-width="30" stroke-linecap="round" stroke-linejoin="round"/>
</g>
<defs>
<clipPath id="clip0">
<path d="M0 0H580V580H0V0Z" fill="white"/>
</clipPath>
</defs>
</svg>
