<svg width="580" height="580" viewBox="0 0 580 580" fill="none" xmlns="http://www.w3.org/2000/svg">
<path d="M110.698 491.099C110.698 524.012 137.379 550.693 170.292 550.693C203.205 550.693 229.886 524.012 229.886 491.099C229.886 458.186 203.205 431.505 170.292 431.505C137.379 431.505 110.698 458.186 110.698 491.099V491.099Z" stroke="white" stroke-width="21.2569"/>
<path d="M366.101 489.938C366.101 522.851 392.782 549.532 425.695 549.532C458.608 549.532 485.289 522.851 485.289 489.938C485.289 457.025 458.608 430.344 425.695 430.344C392.782 430.344 366.101 457.025 366.101 489.938V489.938Z" stroke="white" stroke-width="21.2569"/>
<path d="M378.484 388.551L225.243 389.325L171.066 489.938H274.775L383.128 416.413" stroke="white" stroke-width="17.0668" stroke-linejoin="round"/>
<path fill-rule="evenodd" clip-rule="evenodd" d="M372.596 328.253C380.92 328.253 387.211 328.067 393.66 337.92C395.517 341.204 396.365 345.214 395.68 349.205C394.858 353.744 392.171 358.204 389.003 360.844C384.808 364.339 380.827 364.07 381.47 367.212C382.296 371.244 384.815 376.847 387.538 385.945C390.301 395.181 393.583 406.484 396.804 417.617C400.025 428.751 403.187 439.72 405.69 448.268C406.942 452.541 408.035 456.211 408.874 458.959C409.692 461.637 410.414 463.717 410.347 463.569C412.955 468.157 413.31 471.147 417.684 475.052C422.588 479.344 426.581 482.515 427.967 483.483C431.487 486.04 433.123 491.436 431.264 494.102C428.922 497.736 424.084 498.293 420.548 497.206C417.191 496.14 411.877 494.31 405.714 489.206L405.666 489.134L405.595 489.087C397.02 481.732 393.848 472.805 393.525 472.289L393.074 471.6L392.765 470.839C392.022 469.01 391.577 467.398 390.698 464.519C389.819 461.641 388.704 457.922 387.443 453.613C384.919 444.996 381.773 434.01 378.556 422.892C375.34 411.774 372.066 400.528 369.338 391.41C366.609 382.292 364.885 374.803 364.248 373.21C362.697 369.333 361.905 365.147 362.965 360.95C364.025 356.753 367.194 353.366 370.038 352.579C376.529 350.763 374.807 346.093 371.486 346.086L343.654 346.03L343.585 328.254C343.585 328.253 361.651 328.253 372.596 328.253L372.596 328.253Z" fill="white"/>
<path fill-rule="evenodd" clip-rule="evenodd" d="M272.789 486.788L220.252 358.181L272.789 486.788Z" fill="white"/>
<path d="M272.789 486.788L220.252 358.181" stroke="white" stroke-width="20.4393"/>
<path fill-rule="evenodd" clip-rule="evenodd" d="M290.851 453.95L259.107 527.834L290.851 453.95Z" fill="white"/>
<path d="M290.851 453.95L259.107 527.834" stroke="white" stroke-width="7.46035" stroke-linecap="round"/>
<path fill-rule="evenodd" clip-rule="evenodd" d="M257.392 490.131C257.392 498.327 264.915 504.972 274.195 504.972C283.475 504.972 290.998 498.327 290.998 490.131C290.998 481.935 283.475 475.29 274.195 475.29C264.915 475.29 257.392 481.935 257.392 490.131Z" fill="white" stroke="white" stroke-width="6.78202"/>
<path fill-rule="evenodd" clip-rule="evenodd" d="M304.982 453.983L276.941 454.24L304.982 453.983Z" fill="white"/>
<path d="M304.982 453.983L276.941 454.24" stroke="white" stroke-width="10.4245" stroke-linecap="round"/>
<path fill-rule="evenodd" clip-rule="evenodd" d="M273.401 526.772L245.36 527.029L273.401 526.772Z" fill="white"/>
<path d="M273.401 526.772L245.36 527.029" stroke="white" stroke-width="10.4241" stroke-linecap="round"/>
<path fill-rule="evenodd" clip-rule="evenodd" d="M194.53 346.688H260.476C262.938 346.688 266.117 351.044 262.938 353.939C259.501 357.211 228.597 363.926 228.597 363.926C228.597 363.926 220.115 366.252 215.6 365.705C211.085 365.158 195.488 363.789 194.53 346.688Z" fill="white"/>
<path opacity="0.668" d="M385.063 27.4998C377.13 27.5271 369.257 27.709 362.938 28.0623C359.778 28.2389 357.048 28.4512 354.656 28.7498C353.461 28.899 352.358 29.0561 351.094 29.3435C349.859 29.6242 348.875 28.9453 345 32.0623C345.123 31.8979 342.092 34.1193 339.188 36.2498C335.868 38.6846 331.652 41.9514 327.313 45.9998C318.633 54.0966 308.757 65.2619 306.813 80.781C306.738 81.2985 306.697 81.8208 306.688 82.3435V244.125C306.641 247.427 307.963 250.742 310.281 253.094C312.6 255.445 315.885 256.812 319.188 256.812C322.49 256.812 325.775 255.445 328.094 253.094C330.412 250.742 331.734 247.427 331.688 244.125V83.5623C332.529 78.029 337.82 70.396 344.375 64.281C347.71 61.17 351.148 58.4754 353.969 56.406C355.637 55.1823 356.751 54.3663 357.906 53.5623C359.319 53.3905 361.555 53.1852 364.313 53.031C369.961 52.7152 381.818 52.7027 389.399 52.6765C405.335 34.1174 414.285 35.9072 429.203 35.255C431.338 34.4192 420.967 29.64 419.625 29.3123C418.283 28.9846 417.127 28.82 415.875 28.656C413.371 28.3281 410.559 28.1079 407.344 27.9373C400.914 27.5961 392.996 27.4724 385.063 27.4998ZM441.313 101.031V247.781C441.266 251.083 442.588 254.398 444.906 256.75C447.225 259.101 450.51 260.469 453.813 260.469C457.115 260.469 460.4 259.101 462.719 256.75C465.037 254.398 466.359 251.083 466.313 247.781V101.219L441.313 101.031Z" fill="white"/>
<path d="M357.594 53.5938C356.916 53.8389 356.669 53.7089 356.625 53.7188C356.558 53.7341 357.05 53.6688 357.594 53.5938Z" fill="white"/>
<path d="M385.943 272.24V110.451C388.583 89.3791 416.496 72.4817 419.427 70.0729C422.357 67.6642 481.208 67.236 484.688 70.0729C488.168 72.9098 517.453 94.7042 520.567 113.193V275.896" stroke="white" stroke-width="25" stroke-linecap="round" stroke-linejoin="round"/>
<path d="M44.8047 43.2939C43.1315 43.2973 41.5279 43.9634 40.3448 45.1465C39.1617 46.3296 38.4955 47.9333 38.4922 49.6064V321.263C38.4955 322.936 39.1617 324.539 40.3448 325.723C41.5279 326.906 43.1315 327.572 44.8047 327.575H80.7422C82.4153 327.572 84.019 326.906 85.2021 325.723C86.3852 324.539 87.0513 322.936 87.0547 321.263V217.138H150.43C189.73 217.138 218.214 209.127 234.773 191.106C250.501 173.991 258.492 152.616 258.492 128.169C258.492 113.841 255.552 100.462 249.617 88.3252C243.721 76.2693 235.726 66.6071 225.742 59.7002C215.836 52.8477 203.759 48.3297 189.742 45.9814C189.709 45.9759 189.682 45.9557 189.648 45.9502C179.449 44.1059 165.461 43.2942 147.273 43.2939H44.8047H44.8047ZM87.0547 87.9814H150.242C166.343 87.9817 177.491 88.9565 182.18 90.2002C190.225 92.4385 196.359 96.7524 201.336 103.763C206.273 110.718 208.805 118.996 208.805 129.294C208.805 143.669 204.616 153.683 196.273 161.075C188.376 168.073 173.434 172.45 150.992 172.45H87.0547V87.9814Z" fill="white"/>
</svg>
