<svg width="48" height="48" viewBox="0 0 580 580" fill="none" xmlns="http://www.w3.org/2000/svg">
<path d="M114.756 455.734H475.215C475.215 455.734 435.009 512.156 399.665 521.012C381.492 525.566 359.472 506.601 340.758 506.202C322.89 505.822 300.643 524.843 282.776 524.394C262.303 523.878 237.126 503.164 218.148 503.428C195.041 503.749 181.937 518.878 165.05 520.103C146.022 521.482 120.477 518.672 120.477 518.672L114.756 455.734Z" fill="white" />
<path d="M239.202 69.7188V437.884H20.7305L239.202 69.7188Z" fill="white" />
<path d="M257.409 140.52C337.363 208.004 456.99 445.781 421.262 433.838C347.637 409.227 255.386 439.907 255.386 439.907C255.386 439.907 257.544 202.919 257.409 140.52Z" fill="white" />
<path d="M528.749 108.796C528.988 70.7801 489.714 38.8656 452.878 46.9588C422.06 52.2693 396.667 82.3923 399.795 114.421C401.106 135.834 413.758 155.86 431.996 166.626C439.595 176.392 429.532 190.981 437.723 200.586C444.461 207.153 453.429 212.643 456.465 221.896C454.386 229.317 446.409 232.646 442.711 238.772C446.619 244.922 455.914 248.478 455.875 256.898C452.319 262.854 446.045 266.63 442.327 272.255C446.381 278.645 456.07 282.433 456.081 291.125C452.683 297.202 445.589 300.56 442.888 306.9C450.776 315.72 458.944 324.746 468.33 332.109C473.641 332.083 476.584 324.836 480.927 321.96C486.163 315.977 495.832 310.925 493.832 301.513C492.824 288.783 494.136 275.766 493.625 262.91C493.639 231.769 492.885 200.383 494.393 169.394C501.634 160.9 512.928 156.377 518.064 145.94C525.236 135.1 529.152 121.921 528.749 108.796ZM486.453 82.9316C486.912 101.53 460.719 112.632 447.994 99.1228C436.062 88.1895 439.898 64.7884 455.904 60.1925C470.219 55.0979 488.038 66.9639 486.453 82.9316Z" fill="white" stroke="white" stroke-width="11.5757" stroke-linecap="round" stroke-linejoin="round" />
</svg>