<svg width="580" height="580" viewBox="0 0 580 580" fill="none" xmlns="http://www.w3.org/2000/svg">
<path d="M148.513 455.734H508.972C508.972 455.734 468.766 512.156 433.422 521.012C415.248 525.566 393.229 506.601 374.515 506.202C356.647 505.822 334.4 524.843 316.533 524.394C296.06 523.878 270.883 503.164 251.905 503.428C228.798 503.749 215.694 518.878 198.807 520.103C179.779 521.482 154.234 518.672 154.234 518.672L148.513 455.734Z" fill="white"/>
<path d="M272.959 69.7188V437.884H54.4873L272.959 69.7188Z" fill="white"/>
<path d="M291.165 140.52C371.12 208.004 490.747 445.781 455.019 433.838C381.394 409.227 289.143 439.907 289.143 439.907C289.143 439.907 291.301 202.919 291.165 140.52Z" fill="white"/>
<path d="M419.98 84.7368C419.98 100.829 406.708 113.875 390.336 113.875C373.964 113.875 360.692 100.829 360.692 84.7368C360.692 68.6442 373.964 55.5986 390.336 55.5986C406.708 55.5986 419.98 68.6442 419.98 84.7368Z" fill="white"/>
<path d="M353.308 126.659C362.508 108.603 418.897 108.382 427.365 126.659C439.583 153.031 427.365 208.106 427.365 208.106H353.308C353.308 208.106 341.09 150.64 353.308 126.659Z" fill="white"/>
<path d="M512.698 84.7368C512.698 100.829 499.426 113.875 483.054 113.875C466.682 113.875 453.41 100.829 453.41 84.7368C453.41 68.6442 466.682 55.5986 483.054 55.5986C499.426 55.5986 512.698 68.6442 512.698 84.7368Z" fill="white"/>
<path d="M446.026 126.659C455.225 108.603 511.615 108.382 520.083 126.659C532.301 153.031 520.083 208.106 520.083 208.106H446.026C446.026 208.106 433.808 150.64 446.026 126.659Z" fill="white"/>
</svg>
