<?xml version="1.0" encoding="UTF-8" standalone="no"?>
<!-- Created with Inkscape (http://www.inkscape.org/) -->

<svg
   xmlns:dc="http://purl.org/dc/elements/1.1/"
   xmlns:cc="http://creativecommons.org/ns#"
   xmlns:rdf="http://www.w3.org/1999/02/22-rdf-syntax-ns#"
   xmlns:svg="http://www.w3.org/2000/svg"
   xmlns="http://www.w3.org/2000/svg"
   xmlns:sodipodi="http://sodipodi.sourceforge.net/DTD/sodipodi-0.dtd"
   xmlns:inkscape="http://www.inkscape.org/namespaces/inkscape"
   version="1.0"
   width="580"
   height="580"
   id="svg2"
   sodipodi:version="0.32"
   inkscape:version="0.48.4 r9939"
   sodipodi:docname="post_office.svg"
   inkscape:output_extension="org.inkscape.output.svg.inkscape">
  <defs
     id="defs3263">
    <inkscape:perspective
       sodipodi:type="inkscape:persp3d"
       inkscape:vp_x="0 : 290 : 1"
       inkscape:vp_y="0 : 1000 : 0"
       inkscape:vp_z="580 : 290 : 1"
       inkscape:persp3d-origin="290 : 193.33333 : 1"
       id="perspective3265" />
  </defs>
  <metadata
     id="metadata2975">
    <rdf:RDF>
      <cc:Work
         rdf:about="">
        <dc:format>image/svg+xml</dc:format>
        <dc:type
           rdf:resource="http://purl.org/dc/dcmitype/StillImage" />
        <cc:license
           rdf:resource="http://web.resource.org/cc/PublicDomain" />
        <dc:language>en</dc:language>
        <dc:title></dc:title>
      </cc:Work>
    </rdf:RDF>
  </metadata>
  <sodipodi:namedview
     inkscape:window-height="1004"
     inkscape:window-width="1920"
     inkscape:pageshadow="2"
     inkscape:pageopacity="0.0"
     guidetolerance="10.0"
     gridtolerance="10.0"
     objecttolerance="10.0"
     borderopacity="1.0"
     bordercolor="#666666"
     pagecolor="#ffffff"
     id="base"
     inkscape:zoom="0.46083856"
     inkscape:cx="640.9029"
     inkscape:cy="378.41353"
     inkscape:window-x="1680"
     inkscape:window-y="0"
     inkscape:current-layer="svg2"
     showgrid="false"
     inkscape:window-maximized="1" />
  <g
     id="g1327">
    <path
       d="M 66.275,1.768 C 24.94,1.768 1.704,23.139 1.704,66.804 L 1.704,516.927 C 1.704,557.771 22.599,579.156 63.896,579.156 L 515.92,579.156 C 557.227,579.156 578.149,558.841 578.149,516.927 L 578.149,66.804 C 578.149,24.203 557.227,1.768 514.628,1.768 C 514.624,1.768 66.133,1.625 66.275,1.768 z "
       style="fill:#111;stroke:#eee;stroke-width:3.40799999"
       id="path1329" />
  </g>
  <path
     style="fill:#ffffff;fill-opacity:1;stroke:none;color:#000000;fill-rule:nonzero;marker:none;visibility:visible;display:inline;overflow:visible;enable-background:accumulate"
     d="m 148.51289,455.7346 360.45963,0 c 0,0 -40.20654,56.42118 -75.55062,65.27768 -18.17334,4.55421 -40.1931,-14.41117 -58.90648,-14.80968 -17.86795,-0.38049 -40.11556,18.64097 -57.98189,18.19119 -20.47369,-0.51545 -45.65002,-21.22947 -64.6281,-20.96513 -23.107,0.3204 -36.21115,15.4493 -53.0982,16.67407 -19.02794,1.37975 -44.57276,-1.43062 -44.57276,-1.43062 z"
     id="path3007"
     inkscape:connector-curvature="0"
     sodipodi:nodetypes="ccssssscc" />
  <path
     style="fill:#ffffff;fill-opacity:1;stroke:none"
     d="m 272.95907,69.718393 0,368.165447 -218.471567,0 z"
     id="path3009"
     inkscape:connector-curvature="0" />
  <path
     style="fill:#ffffff;fill-opacity:1;stroke:none;color:#000000;fill-rule:nonzero;marker:none;visibility:visible;display:inline;overflow:visible;enable-background:accumulate"
     d="m 291.16502,140.51936 c 79.95419,67.48474 199.58149,305.26174 163.85362,293.31851 -73.62477,-24.61098 -165.87653,6.06895 -165.87653,6.06895 0,0 2.15851,-236.98754 2.02291,-299.38746 z"
     id="path3011"
     inkscape:connector-curvature="0"
     sodipodi:nodetypes="cscc" />
  <g
     id="g3039"
     transform="matrix(4.0051074,0,0,4.0051074,-1150.0904,-1122.0575)"
     style="fill:#ffffff;fill-opacity:1;stroke:none;color:#000000;fill-rule:nonzero;marker:none;visibility:visible;display:inline;overflow:visible;enable-background:accumulate">
    <path
       transform="matrix(1.0855014,0,0,1.1080207,-28.4991,-19.676511)"
       d="m 387.39351,289.69702 c 0,3.6263 -3.05276,6.56599 -6.81853,6.56599 -3.76577,0 -6.81853,-2.93969 -6.81853,-6.56599 0,-3.6263 3.05276,-6.56599 6.81853,-6.56599 3.76577,0 6.81853,2.93969 6.81853,6.56599 z"
       sodipodi:ry="6.5659914"
       sodipodi:rx="6.8185296"
       sodipodi:cy="289.69702"
       sodipodi:cx="380.57498"
       id="path3015"
       style="fill:#ffffff;fill-opacity:1;fill-rule:nonzero;stroke:none;color:#000000;marker:none;visibility:visible;display:inline;overflow:visible;enable-background:accumulate"
       sodipodi:type="arc" />
    <path
       sodipodi:nodetypes="ssccs"
       inkscape:connector-curvature="0"
       id="rect3017"
       d="m 375.37027,311.78096 c 2.29692,-4.50822 16.37642,-4.56342 18.49061,0 3.05059,6.58463 0,20.33563 0,20.33563 l -18.49061,0 c 0,0 -3.05059,-14.34816 0,-20.33563 z"
       style="fill:#ffffff;fill-opacity:1;fill-rule:nonzero;stroke:none;color:#000000;marker:none;visibility:visible;display:inline;overflow:visible;enable-background:accumulate" />
  </g>
  <g
     style="fill:#ffffff;fill-opacity:1;stroke:none;color:#000000;fill-rule:nonzero;marker:none;visibility:visible;display:inline;overflow:visible;enable-background:accumulate"
     transform="matrix(4.0051074,0,0,4.0051074,-1057.3728,-1122.0575)"
     id="g2989">
    <path
       sodipodi:type="arc"
       style="fill:#ffffff;fill-opacity:1;fill-rule:nonzero;stroke:none;color:#000000;marker:none;visibility:visible;display:inline;overflow:visible;enable-background:accumulate"
       id="path2991"
       sodipodi:cx="380.57498"
       sodipodi:cy="289.69702"
       sodipodi:rx="6.8185296"
       sodipodi:ry="6.5659914"
       d="m 387.39351,289.69702 c 0,3.6263 -3.05276,6.56599 -6.81853,6.56599 -3.76577,0 -6.81853,-2.93969 -6.81853,-6.56599 0,-3.6263 3.05276,-6.56599 6.81853,-6.56599 3.76577,0 6.81853,2.93969 6.81853,6.56599 z"
       transform="matrix(1.0855014,0,0,1.1080207,-28.4991,-19.676511)" />
    <path
       style="fill:#ffffff;fill-opacity:1;fill-rule:nonzero;stroke:none;color:#000000;marker:none;visibility:visible;display:inline;overflow:visible;enable-background:accumulate"
       d="m 375.37027,311.78096 c 2.29692,-4.50822 16.37642,-4.56342 18.49061,0 3.05059,6.58463 0,20.33563 0,20.33563 l -18.49061,0 c 0,0 -3.05059,-14.34816 0,-20.33563 z"
       id="path2993"
       inkscape:connector-curvature="0"
       sodipodi:nodetypes="ssccs" />
  </g>
</svg>
