<svg width="12" height="12" viewBox="0 0 12 12" fill="none" xmlns="http://www.w3.org/2000/svg">
<path fill-rule="evenodd" clip-rule="evenodd" d="M3.70711 1C3.25435 1 2.82014 1.17986 2.5 1.5C2.17986 1.82014 2 2.25435 2 2.70711V3V9C2 9.37014 2.2011 9.69331 2.5 9.86622V10.25C2.5 10.6642 2.83579 11 3.25 11C3.66421 11 4 10.6642 4 10.25V10H8V10.25C8 10.6642 8.33579 11 8.75 11C9.16421 11 9.5 10.6642 9.5 10.25V9.86622C9.7989 9.69331 10 9.37014 10 9V3V2.70711C10 2.25435 9.82014 1.82014 9.5 1.5C9.17986 1.17986 8.74565 1 8.29289 1H3.70711ZM4 2.5C4 2.22386 4.22386 2 4.5 2H7.5C7.77614 2 8 2.22386 8 2.5C8 2.77614 7.77614 3 7.5 3H4.5C4.22386 3 4 2.77614 4 2.5ZM3 4H9V7H3V4ZM4 8.5C4 8.77614 3.77614 9 3.5 9C3.22386 9 3 8.77614 3 8.5C3 8.22386 3.22386 8 3.5 8C3.77614 8 4 8.22386 4 8.5ZM8.5 9C8.77614 9 9 8.77614 9 8.5C9 8.22386 8.77614 8 8.5 8C8.22386 8 8 8.22386 8 8.5C8 8.77614 8.22386 9 8.5 9Z" fill="white"/>
<path fill-rule="evenodd" clip-rule="evenodd" d="M3.70711 1C3.25435 1 2.82014 1.17986 2.5 1.5C2.17986 1.82014 2 2.25435 2 2.70711V9C2 9.37014 2.2011 9.69331 2.5 9.86622V10.25C2.5 10.6642 2.83579 11 3.25 11C3.66421 11 4 10.6642 4 10.25V10H8V10.25C8 10.6642 8.33579 11 8.75 11C9.16421 11 9.5 10.6642 9.5 10.25V9.86622C9.7989 9.69331 10 9.37014 10 9V2.70711C10 2.25435 9.82014 1.82014 9.5 1.5C9.17986 1.17986 8.74565 1 8.29289 1H3.70711ZM4 2.5C4 2.22386 4.22386 2 4.5 2H7.5C7.77614 2 8 2.22386 8 2.5C8 2.77614 7.77614 3 7.5 3H4.5C4.22386 3 4 2.77614 4 2.5ZM3 4H9V7H3V4ZM4 8.5C4 8.77614 3.77614 9 3.5 9C3.22386 9 3 8.77614 3 8.5C3 8.22386 3.22386 8 3.5 8C3.77614 8 4 8.22386 4 8.5ZM8.5 9C8.77614 9 9 8.77614 9 8.5C9 8.22386 8.77614 8 8.5 8C8.22386 8 8 8.22386 8 8.5C8 8.77614 8.22386 9 8.5 9Z" fill="white"/>
</svg>
