<svg width="48" height="48" viewBox="0 0 48 48" fill="none" xmlns="http://www.w3.org/2000/svg">
<path d="M20 28C18.8954 28 18 27.1046 18 26C18 24.8954 18.8954 24 20 24C21.1046 24 22 24.8954 22 26C22 27.1046 21.1046 28 20 28Z" fill="white" />
<path d="M12 28C10.8954 28 10 27.1046 10 26C10 24.8954 10.8954 24 12 24C13.1046 24 14 24.8954 14 26C14 27.1046 13.1046 28 12 28Z" fill="white" />
<path fill-rule="evenodd" clip-rule="evenodd" d="M25.1716 19.1716C24.4214 18.4214 23.404 18 22.3431 18H9.65685C8.59599 18 7.57857 18.4214 6.82843 19.1716L6.78343 19.2166C6.27079 19.7292 5.90712 20.3715 5.73129 21.0749L4.48514 26.0594C3.8265 25.8954 3.10069 26.0709 2.58579 26.5858C1.80474 27.3668 1.80474 28.6332 2.58579 29.4142L4 30.8284V42C4 43.1046 4.89543 44 6 44C7.10457 44 8 43.1046 8 42V40H24V42C24 43.1046 24.8954 44 26 44C27.1046 44 28 43.1046 28 42V30.8284L29.4142 29.4142C30.1953 28.6332 30.1953 27.3668 29.4142 26.5858C28.8993 26.0709 28.1735 25.8954 27.5149 26.0594L26.2687 21.0749C26.0929 20.3715 25.7292 19.7292 25.2166 19.2166L25.1716 19.1716ZM22.3881 22.045L22.3432 22.0001L9.65685 22L9.61186 22.045L8.12311 28H12H20H23.8769L22.3881 22.045ZM10 32C8.89543 32 8 32.8954 8 34C8 35.1046 8.89543 36 10 36C11.1046 36 12 35.1046 12 34C12 32.8954 11.1046 32 10 32ZM22 32C20.8954 32 20 32.8954 20 34C20 35.1046 20.8954 36 22 36C23.1046 36 24 35.1046 24 34C24 32.8954 23.1046 32 22 32Z" fill="white" />
<path opacity="0.5" fill-rule="evenodd" clip-rule="evenodd" d="M38 26C39.1046 26 40 26.8954 40 28V40H42C43.1046 40 44 40.8954 44 42C44 43.1046 43.1046 44 42 44H34C32.8954 44 32 43.1046 32 42C32 40.8954 32.8954 40 34 40H36V28C36 26.8954 36.8954 26 38 26Z" fill="white" />
<path fill-rule="evenodd" clip-rule="evenodd" d="M32 4C29.7909 4 28 5.79086 28 8V24C28 26.2091 29.7909 28 32 28H44C46.2091 28 48 26.2091 48 24V8C48 5.79086 46.2091 4 44 4H32ZM32 24V19.9808L39.4495 15.2504C39.7923 15.0327 40 14.6548 40 14.2487V14C40 12.8954 39.1046 12 38 12C36.8954 12 36 12.8954 36 14H32C32 10.6863 34.6863 8 38 8C41.3137 8 44 10.6863 44 14V14.2487C44 16.0238 43.0922 17.6756 41.5937 18.6271L39.4317 20H44V24H32Z" fill="white" />
</svg>