<svg width="580" height="580" viewBox="0 0 580 580" fill="none" xmlns="http://www.w3.org/2000/svg">
<g clip-path="url(#clip0)">
<path d="M66.2751 1.76766C24.9401 1.76766 1.7041 23.1387 1.7041 66.8037V516.927C1.7041 557.771 22.6001 579.156 63.8961 579.156H515.92C557.227 579.156 578.149 558.842 578.149 516.927V66.8037C578.149 24.2027 557.227 1.76766 514.628 1.76766C514.624 1.76766 66.1331 1.62466 66.2751 1.76766Z" fill="#111111" stroke="#EEEEEE" stroke-width="3.408"/>
<path d="M310.328 85.6807C309.898 85.6787 309.44 85.7122 308.984 85.7432H43.4219V211.868H378.703L323.016 94.8057C320.44 89.3699 316.783 85.7058 310.328 85.6807ZM65.7969 124.056H110.391V190.774H65.7969V124.056ZM129.797 124.056H188.391V190.774H129.797V124.056ZM221.797 124.056H300.391L330.391 190.774H251.797L221.797 124.056Z" fill="white"/>
<path d="M45.2656 241.024V382.181H384.359C399.481 381.797 407.492 368.285 408.891 365.837L490.234 241.024H45.2656ZM343.859 260.462C371.362 260.462 393.953 283.084 393.953 310.587C393.953 338.089 371.362 360.649 343.859 360.649C316.357 360.649 293.766 338.089 293.766 310.587C293.766 283.084 316.357 260.462 343.859 260.462ZM343.859 289.056C331.814 289.056 322.359 298.541 322.359 310.587C322.359 322.633 331.814 332.056 343.859 332.056C355.905 332.056 365.359 322.633 365.359 310.587C365.359 298.541 355.905 289.056 343.859 289.056Z" fill="white"/>
<path d="M57.9409 490.729C112.784 433.155 167.717 449.894 212.45 490.729C271.832 431.206 330.861 448.303 371.41 490.729C419.897 445.35 471.703 432.746 531.824 490.729" stroke="white" stroke-width="34.5015" stroke-linecap="round"/>
</g>
<defs>
<clipPath id="clip0">
<path d="M0 0H580V580H0V0Z" fill="white"/>
</clipPath>
</defs>
</svg>
