<?xml version="1.0" encoding="UTF-8" standalone="no"?>
<!-- Created with Inkscape (http://www.inkscape.org/) -->

<svg
   xmlns:dc="http://purl.org/dc/elements/1.1/"
   xmlns:cc="http://creativecommons.org/ns#"
   xmlns:rdf="http://www.w3.org/1999/02/22-rdf-syntax-ns#"
   xmlns:svg="http://www.w3.org/2000/svg"
   xmlns="http://www.w3.org/2000/svg"
   xmlns:sodipodi="http://sodipodi.sourceforge.net/DTD/sodipodi-0.dtd"
   xmlns:inkscape="http://www.inkscape.org/namespaces/inkscape"
   version="1.0"
   width="580"
   height="580"
   id="svg2"
   sodipodi:version="0.32"
   inkscape:version="0.48.4 r9939"
   sodipodi:docname="halt.svg"
   inkscape:output_extension="org.inkscape.output.svg.inkscape">
  <defs
     id="defs22">
    <inkscape:perspective
       sodipodi:type="inkscape:persp3d"
       inkscape:vp_x="0 : 290 : 1"
       inkscape:vp_y="0 : 1000 : 0"
       inkscape:vp_z="580 : 290 : 1"
       inkscape:persp3d-origin="290 : 193.33333 : 1"
       id="perspective24" />
    <marker
       viewBox="0 0 10 10"
       refY="5"
       refX="10"
       orient="auto"
       markerWidth="4"
       markerUnits="strokeWidth"
       markerHeight="3"
       id="ArrowStart">
      <path
         id="path3568"
         d="M 10 0 L 0 5 L 10 10 z" />
    </marker>
    <marker
       viewBox="0 0 10 10"
       refY="5"
       refX="0"
       orient="auto"
       markerWidth="4"
       markerUnits="strokeWidth"
       markerHeight="3"
       id="ArrowEnd">
      <path
         id="path3565"
         d="M 0 0 L 10 5 L 0 10 z" />
    </marker>
    <inkscape:perspective
       id="perspective2683"
       inkscape:persp3d-origin="306.082 : 204.39034 : 1"
       inkscape:vp_z="612.164 : 306.58551 : 1"
       inkscape:vp_y="0 : 1000 : 0"
       inkscape:vp_x="0 : 306.58551 : 1"
       sodipodi:type="inkscape:persp3d" />
  </defs>
  <metadata
     id="metadata10">
    <rdf:RDF>
      <cc:Work
         rdf:about="">
        <dc:format>image/svg+xml</dc:format>
        <dc:type
           rdf:resource="http://purl.org/dc/dcmitype/StillImage" />
        <cc:license
           rdf:resource="http://web.resource.org/cc/PublicDomain" />
        <dc:language>en</dc:language>
        <dc:title></dc:title>
      </cc:Work>
    </rdf:RDF>
  </metadata>
  <sodipodi:namedview
     inkscape:window-height="995"
     inkscape:window-width="1280"
     inkscape:pageshadow="2"
     inkscape:pageopacity="0.0"
     guidetolerance="10.0"
     gridtolerance="10.0"
     objecttolerance="10.0"
     borderopacity="1.0"
     bordercolor="#666666"
     pagecolor="#ffffff"
     id="base"
     showgrid="false"
     inkscape:zoom="0.35355339"
     inkscape:cx="653.98723"
     inkscape:cy="347.2699"
     inkscape:window-x="0"
     inkscape:window-y="0"
     inkscape:current-layer="svg2"
     inkscape:window-maximized="1" />
  <g
     id="g1327">
    <path
       d="M 66.275,1.768 C 24.94,1.768 1.704,23.139 1.704,66.804 L 1.704,516.927 C 1.704,557.771 22.598,579.156 63.896,579.156 L 515.92,579.156 C 557.227,579.156 578.149,558.84 578.149,516.927 L 578.149,66.804 C 578.149,24.203 557.227,1.768 514.627,1.768 C 514.624,1.768 66.133,1.625 66.275,1.768 z"
       style="fill:#111111;stroke:#eeeeee;stroke-width:3.40799999"
       id="path1329" />
  </g>
  <g
     id="g2319"
     transform="translate(879.29125,36.805119)">
    <path
       id="path2323"
       style="fill:#ffffff;stroke:none"
       d="" />
  </g>
  <g
     id="g2325"
     transform="translate(879.29125,36.805119)">
    <path
       id="path2329"
       style="fill:#ffffff;stroke:none"
       d="" />
  </g>
  <g
     id="g3574"
     transform="matrix(1.041991,0,0,1.041991,-23.350654,-50.205603)">
    <g
       id="g3576">
      <path
         style="fill:#ffffff;stroke:none"
         d="M 295.5625,77.1875 213.03125,77.25 c -38.43866,-1.1e-5 -66.71875,30.86801 -66.71875,64.5 l 0,238.21875 c 3e-5,32.58264 25.49108,59.30702 51.125,63.4375 l -76.875,115.3125 44.375,0 54.96875,-80.59375 75.28125,0 0.0625,0 0.0625,0 75.28125,0 54.96875,80.59375 44.375,0 -76.875,-115.3125 c 25.63388,-4.1305 51.15625,-30.85484 51.15625,-63.4375 l 0,-238.21875 c -4e-5,-33.63196 -28.31137,-64.5 -66.75,-64.5 L 295.5625,77.1875 z M 262.875,91 l 32.3125,0 0.0625,0 0.0625,0 32.3125,0 c 5.84817,0 10.9375,4.90183 10.9375,10.75 l 0,18.9375 c 0,5.84817 -4.81084,10.875 -10.9375,10.875 l -32.3125,0 -0.0625,0 -0.0625,0 -32.3125,0 c -6.12665,0 -10.9375,-5.02683 -10.9375,-10.875 l 0,-18.9375 c 0,-5.84817 5.08932,-10.749997 10.9375,-10.75 z m -47.625,53.40625 79.9375,0 0.125,0 79.9375,0 c 21.72176,1e-5 33.25001,15.552 33.25,33.375 l 0,42.875 c 0.16931,20.60784 -14.87004,33.25 -33.25,33.25 l -79.9375,0 -0.0625,0 -0.0625,0 -79.9375,0 c -18.37997,0 -33.41932,-12.64216 -33.25,-33.25 l 0,-42.875 c -1e-5,-17.823 11.52822,-33.375 33.25,-33.375 z m -3.625,205.75 c 16.15766,-3e-5 29.28125,13.09234 29.28125,29.25 0,16.1565 -13.12359,29.25 -29.28125,29.25 -16.15769,-2e-5 -29.25,-13.09346 -29.25,-29.25 -4e-5,-16.1577 13.09234,-29.25 29.25,-29.25 z m 166.5625,0 c 16.15764,-2e-5 29.25,13.09233 29.25,29.25 -2e-5,16.15652 -13.09233,29.25001 -29.25,29.25 -16.15768,-2e-5 -29.25001,-13.09347 -29.25,-29.25 -2e-5,-16.15768 13.09235,-29.25 29.25,-29.25 z"
         transform="matrix(0.8977168,0,0,0.8977168,40.710583,46.777129)"
         id="path3578"
         inkscape:connector-curvature="0" />
    </g>
    <g
       id="g3584" />
  </g>
</svg>
