<svg width="48" height="48" viewBox="0 0 48 48" fill="none" xmlns="http://www.w3.org/2000/svg">
<path fill-rule="evenodd" clip-rule="evenodd" d="M26 15.6586C28.3304 14.8349 30 12.6124 30 10C30 6.68629 27.3137 4 24 4C20.6863 4 18 6.68629 18 10C18 12.6124 19.6696 14.8349 22 15.6586V39.8648C18.0333 39.3074 15.6453 37.1123 14.1641 34.8906C13.3709 33.7008 12.8406 32.4995 12.4985 31.5361L14.5938 30.9747C15.4572 30.7434 15.9695 29.8559 15.7382 28.9926C15.6732 28.7502 15.5528 28.5262 15.3864 28.3383L8.4601 20.5194C8.16753 20.1891 7.74746 20 7.30623 20C6.55254 20 5.90936 20.545 5.78565 21.2885L4.10677 31.3785C4.06825 31.61 4.07974 31.8471 4.14049 32.0738C4.37547 32.9508 5.27686 33.4712 6.15382 33.2362L8.62499 32.574C9.04207 33.8107 9.73188 35.4533 10.8359 37.1094C13.1209 40.5368 17.1899 44 24 44C30.8102 44 34.8792 40.5368 37.1641 37.1094C38.1995 35.5564 38.8705 34.0152 39.294 32.8096L41.8947 33.5064C42.7716 33.7414 43.6729 33.221 43.9078 32.3442C43.9686 32.1174 43.9801 31.8802 43.9415 31.6485L42.2129 21.2773C42.0901 20.5402 41.4523 20 40.705 20C40.2577 20 39.8328 20.196 39.5423 20.5363L32.6483 28.6136C32.4907 28.7983 32.3763 29.0159 32.3135 29.2504C32.0803 30.1206 32.5967 31.015 33.4669 31.2482L35.4163 31.7705C35.0734 32.6907 34.566 33.7955 33.8359 34.8906C32.3548 37.1123 29.9667 39.3074 26 39.8648V15.6586ZM26 10C26 11.1046 25.1046 12 24 12C22.8955 12 22 11.1046 22 10C22 8.89543 22.8955 8 24 8C25.1046 8 26 8.89543 26 10Z" fill="white" />
</svg>