<svg width="580" height="580" viewBox="0 0 580 580" fill="none" xmlns="http://www.w3.org/2000/svg">
<path d="M47.8789 429.041V59.166H187.402C211.959 59.1664 230.714 60.3438 243.666 62.6982C261.831 65.7262 277.053 71.4871 289.332 79.981C301.611 88.4755 311.493 100.376 318.978 115.682C326.463 130.988 330.205 147.809 330.205 166.142C330.205 197.596 320.197 224.214 300.181 245.996C280.165 267.778 244.002 278.669 191.691 278.669H96.8256V429.041H47.8789ZM96.8256 235.021H192.448C224.07 235.021 246.525 229.134 259.813 217.36C273.101 205.586 279.745 189.018 279.745 167.656C279.745 152.182 275.834 138.936 268.013 127.918C260.191 116.902 249.889 109.627 237.106 106.094C228.864 103.908 213.641 102.815 191.439 102.814H96.8256V235.021Z" fill="white"/>
<path d="M394.184 276.12C390.122 260.466 375.834 248.873 358.962 248.873C338.803 248.873 322.521 265.081 322.521 285.203C322.521 288.599 322.928 291.7 323.777 294.728H338.397C339.468 297.239 340.649 298.678 340.649 298.678C345.043 305.029 352.39 309.127 360.697 309.127C374.173 309.127 385.138 298.162 385.138 284.686C385.138 281.584 385.913 278.778 384.621 276.12H394.184Z" fill="white"/>
<path d="M393.187 493.396C389.348 497.272 384.068 500.263 378.124 500.263L378.087 421.069L432.876 405.341L446.611 432.366L393.187 493.396H393.187Z" fill="white"/>
<path d="M347.185 312.265C343.566 308.241 338.361 305.693 332.49 305.693C326.251 305.693 320.676 308.573 317.095 313.114L273.603 379.534C271.83 382.487 270.833 385.958 270.833 389.613C270.833 396.48 274.304 402.461 279.547 405.969L337.881 438.348V493.433C337.881 501.223 344.194 507.573 351.984 507.573C359.737 507.573 366.088 501.223 366.088 493.433V424.65C366.088 424.65 367.934 413.685 355.492 407.704L319.125 388.653L345.634 348.189L359.7 370.267C362.506 374.734 366.309 376.469 369.78 376.396L405.888 376.248C420.582 376.248 420.582 357.123 405.888 357.197H376.61L347.185 312.265Z" fill="white"/>
<path d="M507.049 402.535C507.64 403.125 507.935 403.827 507.935 404.787C507.935 406.522 506.495 407.962 504.76 407.962C504.28 407.962 503.985 407.962 503.615 407.814C497.376 405.156 493.425 403.495 486.152 403.495C481.352 403.495 475.408 405.156 468.541 410.694L462.191 398.141C470.129 395.778 476.627 393.674 483.42 393.674C494.275 393.674 499.96 395.926 507.049 402.535Z" fill="white"/>
<path d="M264.483 412.208L325.697 445.953L325.844 459.503L255.918 420.995C250.86 418.411 244.066 416.897 239.23 416.897C232.03 416.897 228.006 418.558 221.803 421.217C221.397 421.364 221.065 421.364 220.659 421.364C218.924 421.364 217.447 419.924 217.447 418.189C217.447 417.266 217.816 416.528 218.37 415.937C225.458 409.291 232.695 407.076 243.512 407.076C249.087 407.076 255.807 407.741 264.483 412.208Z" fill="white"/>
<path d="M270.169 536.371C290.106 536.371 306.277 520.2 306.277 500.226C306.277 480.252 290.106 464.081 270.169 464.081C250.232 464.081 234.061 480.252 234.061 500.226C234.061 520.2 250.232 536.371 270.169 536.371ZM218.074 500.263C218.074 471.502 241.408 448.132 270.169 448.132C298.966 448.132 322.3 471.502 322.3 500.263C322.3 529.024 298.966 552.395 270.169 552.395C241.408 552.395 218.074 529.024 218.074 500.263Z" fill="white"/>
<path d="M485.635 536.371C505.572 536.371 521.78 520.2 521.78 500.226C521.78 480.252 505.609 464.081 485.635 464.081C465.661 464.081 449.527 480.252 449.527 500.226C449.527 520.2 465.698 536.371 485.635 536.371ZM433.541 500.263C433.541 471.502 456.837 448.132 485.635 448.132C514.396 448.132 537.729 471.502 537.729 500.263C537.729 529.024 514.396 552.395 485.635 552.395C456.837 552.395 433.541 529.024 433.541 500.263Z" fill="white"/>
<path d="M474.116 440.674L448.789 390.056C445.466 384.001 439.005 379.829 431.584 379.829H415.044C411.832 379.829 409.21 382.487 409.21 385.736C409.21 388.985 411.832 391.57 415.044 391.57L431.584 391.496C434.353 391.496 437.454 393.379 438.636 396.111L462.486 444.698L474.116 440.674V440.674Z" fill="white"/>
<path d="M487.384 139.289C487.586 139.374 488.345 139.546 489.662 139.803C510.415 143.232 526.006 149.49 536.434 158.578C546.862 167.665 552.075 179.581 552.075 194.326C552.075 209.415 546.355 222.488 534.915 233.547C523.475 244.606 507.631 250.607 487.384 251.55V274.954H471.135V251.807C450.482 249.835 434.638 244.156 423.603 234.769C412.568 225.381 406.342 212.244 404.924 195.355L432.259 191.24C434.385 203.928 438.688 213.701 445.167 220.559C451.646 227.418 460.302 231.318 471.135 232.261V158.578C450.583 154.806 435.195 148.505 424.97 139.674C414.744 130.845 409.632 119.486 409.632 105.597C409.632 91.7953 414.694 79.9433 424.818 70.0415C434.942 60.1401 450.381 54.4177 471.135 52.8744V41.8154H487.384V52.8744C504.594 54.332 518.16 58.9613 528.082 66.7624C538.003 74.5639 544.229 85.4942 546.76 99.5535L518.363 103.026C516.743 94.2814 513.351 87.3588 508.188 82.2578C503.025 77.1571 496.09 73.878 487.384 72.4205V139.289ZM471.135 136.46V72.1633C460.1 73.7923 451.646 77.5429 445.774 83.4151C439.902 89.2877 436.966 96.0817 436.967 103.797C436.966 112.627 440.004 119.593 446.078 124.693C452.152 129.794 460.505 133.716 471.135 136.46ZM487.384 232.261C498.014 230.89 506.771 226.967 513.655 220.495C520.539 214.022 523.981 205.857 523.982 195.998C523.981 187.34 521.375 180.374 516.161 175.102C510.947 169.829 501.355 165.35 487.384 161.664V232.261Z" fill="white"/>
<path d="M478.505 41.502V276.237" stroke="white" stroke-width="26.5694" stroke-linecap="round" stroke-linejoin="round"/>
</svg>
