<svg width="48" height="48" viewBox="0 0 48 48" fill="none" xmlns="http://www.w3.org/2000/svg">
<path fill-rule="evenodd" clip-rule="evenodd" d="M30.4893 17.3944L27.6223 17.3945L27.629 19.1241L30.3371 19.1296C30.6602 19.1303 30.8279 19.5847 30.1962 19.7614C29.9195 19.838 29.6112 20.1676 29.508 20.5759C29.4048 20.9843 29.4819 21.3916 29.6328 21.7689C29.6609 21.8391 29.7107 22.0271 29.7815 22.2942C29.7981 22.357 29.816 22.4243 29.8349 22.4953L17.5405 22.5574L16.8145 20.7801C17.6345 20.5925 19.5148 20.1416 19.7752 19.8937C20.0845 19.612 19.7752 19.1881 19.5356 19.1881H13.119C13.1982 20.6035 14.308 20.9113 14.9082 21.0045L15.6171 22.7397C15.5405 22.8026 15.4754 22.8805 15.4269 22.9707L13.2762 26.9648C12.4838 26.6471 11.6307 26.4793 10.7604 26.4793C8.96741 26.4793 7.24788 27.1915 5.98007 28.4593C4.71225 29.7271 4 31.4467 4 33.2396C4 35.0326 4.71225 36.7521 5.98007 38.0199C7.24789 39.2877 8.96741 40 10.7604 40C12.5533 40 14.2729 39.2877 15.5407 38.0199C16.6521 36.9085 17.3366 35.4498 17.4885 33.8989H20.2871L19.2757 36.2531L18.0606 36.2642C17.8001 36.2666 17.5909 36.4797 17.5933 36.7401C17.5957 37.0006 17.8088 37.2098 18.0692 37.2074L20.7976 37.1824C21.0581 37.18 21.2673 36.9669 21.2649 36.7065C21.2625 36.446 21.0494 36.2368 20.789 36.2392L20.0134 36.2463L21.0246 33.8926C21.1443 33.8773 21.2593 33.834 21.36 33.7657L31.1709 27.1082L31.385 27.8502C31.1923 28.0046 31.0073 28.1701 30.831 28.3464C29.5632 29.6142 28.8509 31.3338 28.8509 33.1267C28.8509 34.9197 29.5632 36.6392 30.831 37.907C32.0988 39.1748 33.8183 39.8871 35.6113 39.8871C37.4043 39.8871 39.1238 39.1748 40.3916 37.907C41.6594 36.6392 42.3717 34.9197 42.3717 33.1267C42.3717 31.3338 41.6594 29.6142 40.3916 28.3464C39.1238 27.0786 37.4043 26.3663 35.6113 26.3663C34.7165 26.3663 33.84 26.5437 33.0288 26.879L32.8006 26.0898C32.4872 25.0065 32.1679 23.9066 31.899 23.008C31.7732 22.5875 31.6518 22.2438 31.5504 21.9567C31.4384 21.6394 31.3508 21.3912 31.3086 21.1852C31.2705 20.9992 31.399 20.9361 31.5973 20.8386C31.725 20.7758 31.8817 20.6988 32.0415 20.5656C32.3498 20.3087 32.6112 19.8748 32.6912 19.4331C32.7579 19.0447 32.6754 18.6546 32.4947 18.335C31.8787 17.3939 31.2774 17.3941 30.4893 17.3944ZM30.7192 25.5484C30.5658 25.0215 30.4158 24.509 30.2762 24.0374L18.1701 24.0986L21.2542 31.6481L21.9116 30.1178L21.1414 30.1249C20.8809 30.1273 20.6678 29.9181 20.6654 29.6576C20.663 29.3971 20.8723 29.184 21.1327 29.1816L23.8611 29.1566C24.1216 29.1543 24.3347 29.3635 24.3371 29.6239C24.3395 29.8844 24.1302 30.0975 23.8698 30.0999L22.6493 30.1111L22.0954 31.4003L30.7192 25.5484ZM17.4626 32.3546H19.5449L16.3453 24.5224L14.6346 27.6995C14.9561 27.9243 15.2595 28.1781 15.5407 28.4593C16.598 29.5167 17.269 30.8882 17.4626 32.3546ZM13.714 29.4092C13.8773 29.5352 14.0332 29.672 14.1806 29.8194C14.8762 30.5151 15.3381 31.4008 15.5156 32.3546H12.128L13.714 29.4092ZM12.3561 28.6736L10.1554 32.7606C10.0265 32.9999 10.033 33.2893 10.1723 33.5227C10.3117 33.756 10.5635 33.8989 10.8353 33.8989H15.5521C15.4092 34.9382 14.9308 35.9096 14.1806 36.6598C13.2735 37.5669 12.0432 38.0765 10.7604 38.0765C9.47755 38.0765 8.24727 37.5669 7.34018 36.6598C6.43309 35.7527 5.92349 34.5224 5.92349 33.2396C5.92349 31.9568 6.43309 30.7265 7.34018 29.8194C8.24727 28.9123 9.47755 28.4027 10.7604 28.4027C11.309 28.4027 11.8479 28.4959 12.3561 28.6736ZM30.7744 33.1267C30.7744 31.9434 31.208 30.8048 31.9872 29.9234C32.0702 30.2036 32.1444 30.4501 32.2065 30.6534L32.2493 30.7946C32.3087 30.9911 32.3484 31.1227 32.4076 31.2684L32.4376 31.3424L32.4816 31.4094C32.4853 31.4154 32.4929 31.4329 32.5049 31.4603C32.5937 31.6638 32.9207 32.4133 33.656 33.0439L33.6629 33.0486L33.6676 33.0555C34.2672 33.5521 34.7843 33.7303 35.111 33.834C35.455 33.9397 35.9257 33.8855 36.1537 33.5319C36.3345 33.2725 36.1753 32.7475 35.8328 32.4987C35.698 32.4044 35.3095 32.0959 34.8323 31.6783C34.5321 31.4102 34.4264 31.1865 34.3012 30.9213C34.2489 30.8105 34.1931 30.6925 34.1184 30.561C34.1206 30.5658 34.114 30.546 34.1013 30.5075C34.0763 30.4319 34.0277 30.2848 33.9751 30.1125C33.8934 29.845 33.787 29.488 33.6653 29.0721L33.5689 28.7422C34.2026 28.447 34.8988 28.2898 35.6113 28.2898C36.8941 28.2898 38.1244 28.7994 39.0315 29.7065C39.9386 30.6136 40.4482 31.8439 40.4482 33.1267C40.4482 34.4095 39.9386 35.6398 39.0315 36.5469C38.1244 37.454 36.8941 37.9636 35.6113 37.9636C34.3285 37.9636 33.0982 37.454 32.1911 36.5469C31.284 35.6398 30.7744 34.4095 30.7744 33.1267Z" fill="white"/>
<path d="M17.2876 4.00263C14.1021 3.98048 11.4279 7.62699 12.106 11.0471C12.551 13.9085 15.0752 16.2662 17.759 15.9757C19.5533 15.854 21.2313 14.6793 22.1334 12.9859C22.9518 12.2804 24.1742 13.2147 24.9791 12.4542C25.5294 11.8286 25.9894 10.9959 26.7648 10.714C27.3866 10.9071 27.6656 11.6477 28.1789 11.9911C28.6942 11.6283 28.9922 10.7652 29.6977 10.7689C30.1968 11.099 30.5132 11.6815 30.9846 12.0267C31.52 11.6503 31.8374 10.7507 32.5658 10.7497C33.075 11.0652 33.3564 11.7239 33.8876 11.9747C34.6266 11.2422 35.383 10.4839 36 9.61237C35.9978 9.11928 35.3906 8.84606 35.1495 8.44278C34.6482 7.95664 34.2249 7.05889 33.4362 7.2446C32.3695 7.33817 31.2787 7.21641 30.2015 7.26379C27.5921 7.26254 24.9621 7.33252 22.3654 7.19254C21.6537 6.52017 21.2746 5.47158 20.4001 4.99468C19.4917 4.32876 18.3874 3.96523 17.2876 4.00263ZM15.1203 7.92972C16.6788 7.88708 17.6091 10.3191 16.4771 11.5006C15.5609 12.6084 13.6001 12.2522 13.2149 10.7661C12.788 9.43706 13.7823 7.78257 15.1203 7.92972Z" fill="white"/>
</svg>
