<svg width="12" height="12" viewBox="0 0 12 12" fill="none" xmlns="http://www.w3.org/2000/svg">
<path fill-rule="evenodd" clip-rule="evenodd" d="M7.62231 4.34864L6.90557 4.34865L6.90724 4.78106L7.58427 4.78244C7.66506 4.78261 7.70696 4.89619 7.54905 4.94037C7.47986 4.95953 7.40279 5.04192 7.377 5.14401C7.35121 5.2461 7.37048 5.34792 7.40821 5.44224C7.41524 5.4598 7.42768 5.5068 7.44537 5.57359C7.44953 5.58928 7.45399 5.60611 7.45872 5.62386L4.38513 5.63938L4.20362 5.19506C4.40861 5.14817 4.8787 5.03542 4.94381 4.97345C5.02113 4.90303 4.94381 4.79706 4.8839 4.79706H3.27975C3.29956 5.15091 3.577 5.22787 3.72706 5.25116L3.90428 5.68497C3.88512 5.70067 3.86886 5.72016 3.85672 5.74272L3.31905 6.74124C3.12094 6.6618 2.90768 6.61984 2.69009 6.61984C2.24185 6.61984 1.81197 6.79791 1.49502 7.11486C1.17806 7.43181 1 7.8617 1 8.30994C1 8.75818 1.17806 9.18806 1.49502 9.50501C1.81197 9.82197 2.24185 10 2.69009 10C3.13833 10 3.56822 9.82197 3.88517 9.50501C4.16304 9.22715 4.33416 8.86249 4.37214 8.47475H5.07179L4.81893 9.06329L4.51515 9.06608C4.45003 9.06668 4.39773 9.11995 4.39833 9.18506C4.39892 9.25018 4.45219 9.30248 4.51731 9.30188L5.19941 9.29563C5.26452 9.29503 5.31683 9.24176 5.31623 9.17665C5.31563 9.11153 5.26236 9.05923 5.19725 9.05983L5.00334 9.0616L5.25615 8.47319C5.28608 8.46935 5.31483 8.45853 5.33999 8.44145L7.79273 6.77709L7.84626 6.96258C7.79807 7.00118 7.75182 7.04256 7.70775 7.08663C7.39079 7.40359 7.21273 7.83347 7.21273 8.28171C7.21273 8.72995 7.39079 9.15983 7.70775 9.47679C8.0247 9.79374 8.45458 9.9718 8.90282 9.9718C9.35107 9.9718 9.78095 9.79374 10.0979 9.47679C10.4149 9.15983 10.5929 8.72995 10.5929 8.28171C10.5929 7.83347 10.4149 7.40359 10.0979 7.08663C9.78095 6.76968 9.35107 6.59162 8.90282 6.59162C8.67913 6.59162 8.46001 6.63597 8.25721 6.71979L8.20015 6.52247C8.1218 6.25165 8.04197 5.97669 7.97474 5.75204C7.94329 5.64691 7.91295 5.56097 7.88761 5.4892C7.8596 5.40987 7.83769 5.34782 7.82715 5.29633C7.81763 5.24983 7.84974 5.23405 7.89933 5.20967C7.93125 5.19398 7.97042 5.17472 8.01038 5.14142C8.08744 5.0772 8.15281 4.96873 8.17281 4.85831C8.18949 4.76121 8.16884 4.66367 8.12368 4.58378C7.96967 4.34849 7.81935 4.34855 7.62231 4.34864ZM7.6798 6.38714C7.64146 6.25541 7.60396 6.12729 7.56904 6.00939L4.54252 6.02468L5.31354 7.91206L5.47791 7.52949L5.28534 7.53125C5.22023 7.53185 5.16695 7.47955 5.16636 7.41443C5.16576 7.34931 5.21806 7.29604 5.28318 7.29544L5.96528 7.28919C6.0304 7.28859 6.08367 7.3409 6.08427 7.40601C6.08486 7.47113 6.03256 7.5244 5.96744 7.525L5.66232 7.5278L5.52384 7.85011L7.6798 6.38714ZM4.36565 8.08867H4.88621L4.08634 6.13064L3.65866 6.9249C3.73903 6.9811 3.81488 7.04457 3.88517 7.11486C4.14951 7.3792 4.31724 7.72209 4.36565 8.08867ZM3.4285 7.35234C3.46932 7.38382 3.5083 7.41804 3.54514 7.45489C3.71905 7.6288 3.83452 7.85023 3.8789 8.08867H3.03201L3.4285 7.35234ZM3.08903 7.16842L2.53885 8.19019C2.50664 8.25001 2.50825 8.32237 2.54309 8.3807C2.57793 8.43903 2.64087 8.47475 2.70882 8.47475H3.88803C3.85229 8.73458 3.73271 8.97742 3.54514 9.16499C3.31837 9.39176 3.0108 9.51916 2.69009 9.51916C2.36939 9.51916 2.06182 9.39176 1.83505 9.16499C1.60827 8.93821 1.48087 8.63064 1.48087 8.30994C1.48087 7.98923 1.60827 7.68166 1.83505 7.45489C2.06182 7.22812 2.36939 7.10072 2.69009 7.10072C2.82724 7.10072 2.96198 7.12401 3.08903 7.16842ZM7.6936 8.28171C7.6936 7.98589 7.802 7.70124 7.9968 7.48087C8.01755 7.55093 8.03609 7.61255 8.05162 7.66339L8.06232 7.69867C8.07716 7.74781 8.0871 7.78071 8.1019 7.81713L8.10941 7.83562L8.12039 7.85239C8.12133 7.85388 8.12324 7.85825 8.12622 7.8651C8.14843 7.91598 8.23019 8.10334 8.414 8.26101L8.41574 8.26217L8.41689 8.2639C8.5668 8.38806 8.69608 8.43259 8.77775 8.45852C8.86376 8.48496 8.98144 8.4714 9.03842 8.38301C9.08363 8.31816 9.04383 8.18689 8.9582 8.1247C8.92449 8.10113 8.82736 8.024 8.70807 7.9196C8.63301 7.85259 8.60661 7.79666 8.5753 7.73035C8.56222 7.70266 8.54829 7.67315 8.5296 7.64027C8.53015 7.64149 8.5285 7.63652 8.52532 7.62689C8.51908 7.60801 8.50692 7.57122 8.49376 7.52814C8.47335 7.46129 8.44676 7.37202 8.41632 7.26806L8.39222 7.18558C8.55064 7.11179 8.72471 7.07249 8.90282 7.07249C9.22353 7.07249 9.5311 7.19989 9.75787 7.42666C9.98465 7.65344 10.112 7.96101 10.112 8.28171C10.112 8.60242 9.98465 8.90999 9.75787 9.13676C9.5311 9.36353 9.22353 9.49093 8.90282 9.49093C8.58212 9.49093 8.27455 9.36353 8.04778 9.13676C7.821 8.90999 7.6936 8.60242 7.6936 8.28171Z" fill="white"/>
<path d="M4.32191 1.00066C3.52553 0.995116 2.85697 1.90675 3.02651 2.76178C3.13776 3.47712 3.76879 4.06654 4.43975 3.99394C4.88832 3.9635 5.30783 3.66983 5.53336 3.24647C5.73795 3.0701 6.04356 3.30369 6.24477 3.11356C6.38234 2.95714 6.49736 2.74898 6.69119 2.67851C6.84666 2.72677 6.9164 2.91192 7.04472 2.99778C7.17356 2.90707 7.24805 2.69129 7.42442 2.69221C7.5492 2.77474 7.62831 2.92037 7.74615 3.00668C7.88001 2.91257 7.95935 2.68768 8.14145 2.68742C8.26875 2.76629 8.33909 2.93097 8.4719 2.99366C8.65666 2.81055 8.84574 2.62097 9 2.40309C8.99944 2.27982 8.84764 2.21151 8.78738 2.1107C8.66206 1.98916 8.55622 1.76472 8.35905 1.81115C8.09239 1.83454 7.81968 1.8041 7.55037 1.81595C6.89801 1.81563 6.24053 1.83313 5.59134 1.79813C5.41342 1.63004 5.31865 1.3679 5.10003 1.24867C4.87293 1.08219 4.59685 0.991303 4.32191 1.00066ZM3.78009 1.98243C4.16969 1.97177 4.40228 2.57977 4.11927 2.87514C3.89023 3.15211 3.40001 3.06306 3.30374 2.69153C3.19701 2.35926 3.44559 1.94564 3.78009 1.98243Z" fill="white"/>
</svg>
