<svg width="48" height="48" viewBox="0 0 580 580" fill="none" xmlns="http://www.w3.org/2000/svg">
<path d="M272.358 412.126C272.358 421.887 264.436 429.808 254.676 429.808H77.8531C68.0925 429.808 60.1709 421.887 60.1709 412.126V394.444C60.1709 384.683 68.0925 376.762 77.8531 376.762H254.676C264.436 376.762 272.358 384.683 272.358 394.444V412.126Z" fill="white" />
<path d="M219.312 394.444L254.676 500.538" stroke="white" stroke-width="35.3645" stroke-miterlimit="10" stroke-linecap="round" stroke-linejoin="round" />
<path d="M77.8535 500.538L113.218 394.444" stroke="white" stroke-width="35.3645" stroke-miterlimit="10" stroke-linecap="round" stroke-linejoin="round" />
<path d="M395.25 415.963C398.432 431.93 401.456 448.657 404.285 466.145C413.639 524.09 352.052 500.537 355.677 518.219H474.731C465.872 500.537 455.139 513.763 442.85 455.801C439.19 438.543 435.353 422.063 431.392 406.326L395.25 415.963Z" fill="white" />
<path d="M427.078 434.299C378.788 453.113 288.555 443.3 287.777 432.231C287.388 426.59 351.575 373.402 347.437 305.449C345.085 266.955 370.336 253.251 375.623 250.492C380.185 248.123 432.4 273.391 451.25 287.307C457.191 291.692 388.336 336.234 394.101 341.521C422.374 342.935 455.794 318.039 470.877 301.647C491.848 315.404 512.395 355.79 519.91 368.044C516.904 380.705 485.199 411.648 427.078 434.299Z" fill="white" />
<path d="M399.104 338.939C353.095 361.343 290.942 346.578 273.702 341.097C270.696 325.182 311.895 307.323 313.681 229.61C314.601 190.002 306.821 152.48 311.612 149.032C315.732 146.061 374.137 175.432 395.02 187.844C400.43 191.063 344.059 232.74 350.089 239.53C366.056 241.369 414.152 206.747 417.812 200.098C452.452 213.678 478.444 236.312 486.278 245.471C478.409 268.971 445.096 316.518 399.104 338.939Z" fill="white" />
<path d="M358.949 233.04C325.724 258.98 260.618 277.935 257.116 269.819C254.057 262.693 278.83 227.382 272.252 175.537C268.433 145.46 250.397 110.927 253.527 107.249C256.727 103.482 281.571 106.382 306.415 110.997C306.415 110.997 280.404 153.611 286.098 154.902C305.76 149.668 331.17 112.04 331.17 112.04C368.939 126.098 408.671 147.246 412.402 155.397C414.842 160.737 392.173 207.1 358.949 233.04Z" fill="white" />
<path d="M296.477 143.338C279.661 167.775 244.137 187.243 239.54 182.168C235.508 177.712 238.178 154.195 220.019 118.866C209.48 98.3544 186.546 67.5342 187.801 64.3691C189.764 59.4357 284.859 58.4809 311.312 82.5464C314.707 85.6231 313.292 118.901 296.477 143.338Z" fill="white" />
</svg>