<svg width="580" height="580" viewBox="0 0 580 580" fill="none" xmlns="http://www.w3.org/2000/svg">
<g clip-path="url(#clip0)">
<path d="M66.2751 1.76766C24.9401 1.76766 1.7041 23.1387 1.7041 66.8037V516.927C1.7041 557.771 22.5981 579.156 63.8961 579.156H515.92C557.227 579.156 578.149 558.84 578.149 516.927V66.8037C578.149 24.2027 557.227 1.76766 514.627 1.76766C514.624 1.76766 66.1331 1.62466 66.2751 1.76766Z" fill="#111111" stroke="#EEEEEE" stroke-width="3.408"/>
<path d="M290.336 54.916L201.526 54.9833C160.162 54.9833 129.731 88.1999 129.731 124.391V380.735C129.731 415.796 157.161 444.554 184.746 448.999L102.021 573.085H149.773L208.924 486.359H289.933H290H290.067H371.076L430.228 573.085H477.979L395.255 448.999C422.839 444.554 450.303 415.796 450.303 380.735V124.391C450.303 88.1999 419.838 54.9833 378.475 54.9833L290.336 54.916ZM255.162 79.6925H289.933H290H290.067H324.838C331.132 79.6925 336.608 84.9673 336.608 91.2605V94.2909C336.608 100.584 331.431 105.993 324.838 105.993H290.067H290H289.933H255.162C248.569 105.993 243.392 100.584 243.392 94.2909V91.2605C243.392 84.9673 248.869 79.6925 255.162 79.6925ZM203.913 127.249H289.933H290.067H376.087C399.461 127.249 411.867 143.984 411.867 163.163V209.301C412.049 231.476 395.865 245.08 376.087 245.08H290.067H290H289.933H203.913C184.135 245.08 167.951 231.476 168.133 209.301V163.163C168.133 143.984 180.539 127.249 203.913 127.249ZM200.013 348.654C217.4 348.654 231.522 362.742 231.522 380.129C231.522 397.515 217.4 411.605 200.013 411.605C182.625 411.605 168.537 397.515 168.537 380.129C168.537 362.742 182.625 348.654 200.013 348.654ZM379.248 348.654C396.635 348.654 410.723 362.742 410.723 380.129C410.723 397.515 396.635 411.605 379.248 411.605C361.861 411.605 347.772 397.515 347.772 380.129C347.772 362.742 361.861 348.654 379.248 348.654Z" fill="white"/>
</g>
<defs>
<clipPath id="clip0">
<path d="M0 0H580V580H0V0Z" fill="white"/>
</clipPath>
</defs>
</svg>
