<svg width="48" height="48" version="1.1" viewBox="0 0 28 28" xmlns="http://www.w3.org/2000/svg">
 <path d="m9.4142 4c-0.9055 0-1.7739 0.35971-2.4142 1s-1 1.5087-1 2.4142v12.586c0 1.1046 0.89543 2 2 2h12c1.1046 0 2-0.8954 2-2v-12.586c0-0.9055-0.3597-1.7739-1-2.4142s-1.5087-1-2.4142-1h-9.1716zm10.586 4h-12v8h12v-8zm-11 10c-0.55228 0-1 0.4477-1 1s0.44772 1 1 1 1-0.4477 1-1-0.44772-1-1-1zm9 1c0-0.5523 0.4477-1 1-1s1 0.4477 1 1-0.4477 1-1 1-1-0.4477-1-1z" clip-rule="evenodd" fill="#fff" fill-rule="evenodd" />
 <path d="m9 20h2l-1.3333 4h8.6666l-1.3333-4h2l2 6h-14l2-6z" fill="#fff" opacity=".5" />
</svg>