<svg width="580" height="580" viewBox="0 0 580 580" fill="none" xmlns="http://www.w3.org/2000/svg">
<g clip-path="url(#clip0)">
<path d="M66.2751 1.76863C24.9401 1.76863 1.7041 23.1396 1.7041 66.8046V516.928C1.7041 557.772 22.5991 579.157 63.8961 579.157H515.92C557.227 579.157 578.149 558.842 578.149 516.928V66.8046C578.149 24.2036 557.227 1.76863 514.628 1.76863C514.624 1.76863 66.1331 1.62563 66.2751 1.76863Z" fill="#111111" stroke="#EEEEEE" stroke-width="3.408"/>
<path d="M401 69L358 181H313.5L356.5 69H307.5L264.5 181H220L263 69H214L171 181H126.5L169.5 69H120.5L77.5 181V399V404.209V511H85.5L128.5 399H173L130 511H179L222 399H266.5L223.5 511H272.5L315.5 399H360L317 511H366L409 399H453.5L410.5 511H459.5L502.5 399V181V175.791V69H494.5L451.5 181H407L450 69H401Z" fill="white"/>
</g>
<defs>
<clipPath id="clip0">
<path d="M0 0H580V580H0V0Z" fill="white"/>
</clipPath>
</defs>
</svg>
