<svg width="12" height="12" viewBox="0 0 12 12" fill="none" xmlns="http://www.w3.org/2000/svg">
<path fill-rule="evenodd" clip-rule="evenodd" d="M6 1C4.89543 1 4 1.89543 4 3V9C4 10.1046 4.89543 11 6 11C7.10457 11 8 10.1046 8 9V3C8 1.89543 7.10457 1 6 1ZM6 4C6.55228 4 7 3.55228 7 3C7 2.44772 6.55228 2 6 2C5.44772 2 5 2.44772 5 3C5 3.55228 5.44772 4 6 4ZM6 7C6.55228 7 7 6.55228 7 6C7 5.44772 6.55228 5 6 5C5.44772 5 5 5.44772 5 6C5 6.55228 5.44772 7 6 7ZM7 9C7 9.55228 6.55228 10 6 10C5.44772 10 5 9.55228 5 9C5 8.44772 5.44772 8 6 8C6.55228 8 7 8.44772 7 9Z" fill="white"/>
<path opacity="0.6" d="M6 4C6.55228 4 7 3.55228 7 3C7 2.44772 6.55228 2 6 2C5.44772 2 5 2.44772 5 3C5 3.55228 5.44772 4 6 4Z" fill="white"/>
<path opacity="0.2" d="M6 7C6.55228 7 7 6.55228 7 6C7 5.44772 6.55228 5 6 5C5.44772 5 5 5.44772 5 6C5 6.55228 5.44772 7 6 7Z" fill="white"/>
<path opacity="0.3" d="M6 10C6.55228 10 7 9.55228 7 9C7 8.44772 6.55228 8 6 8C5.44772 8 5 8.44772 5 9C5 9.55228 5.44772 10 6 10Z" fill="white"/>
<path fill-rule="evenodd" clip-rule="evenodd" d="M6 1C4.89543 1 4 1.89543 4 3V9C4 10.1046 4.89543 11 6 11C7.10457 11 8 10.1046 8 9V3C8 1.89543 7.10457 1 6 1ZM6 4C6.55228 4 7 3.55228 7 3C7 2.44772 6.55228 2 6 2C5.44772 2 5 2.44772 5 3C5 3.55228 5.44772 4 6 4ZM6 7C6.55228 7 7 6.55228 7 6C7 5.44772 6.55228 5 6 5C5.44772 5 5 5.44772 5 6C5 6.55228 5.44772 7 6 7ZM7 9C7 9.55228 6.55228 10 6 10C5.44772 10 5 9.55228 5 9C5 8.44772 5.44772 8 6 8C6.55228 8 7 8.44772 7 9Z" fill="white"/>
<path opacity="0.2" d="M6 7C6.55228 7 7 6.55228 7 6C7 5.44772 6.55228 5 6 5C5.44772 5 5 5.44772 5 6C5 6.55228 5.44772 7 6 7Z" fill="white"/>
<path opacity="0.3" d="M6 10C6.55228 10 7 9.55228 7 9C7 8.44772 6.55228 8 6 8C5.44772 8 5 8.44772 5 9C5 9.55228 5.44772 10 6 10Z" fill="white"/>
</svg>
