<svg width="580" height="580" viewBox="0 0 580 580" fill="none" xmlns="http://www.w3.org/2000/svg">
<g clip-path="url(#clip0)">
<path d="M66.2751 1.76863C24.9401 1.76863 1.7041 23.1396 1.7041 66.8046V516.928C1.7041 557.772 22.5991 579.157 63.8961 579.157H515.92C557.227 579.157 578.149 558.842 578.149 516.928V66.8046C578.149 24.2036 557.227 1.76863 514.628 1.76863C514.624 1.76863 66.1331 1.62563 66.2751 1.76863Z" fill="#111111" stroke="#EEEEEE" stroke-width="3.408"/>
<path d="M118.031 62.4648C118.031 62.4648 78.8876 200.187 78.1367 277.291C77.3859 354.395 118.031 518.156 118.031 518.156" stroke="white" stroke-width="45" stroke-linecap="round"/>
<path fill-rule="evenodd" clip-rule="evenodd" d="M219.823 278.799C219.823 278.799 292.374 458.153 289.999 457.727C287.624 457.302 360.178 278.799 360.178 278.799L289.999 122.291L219.823 278.799Z" fill="white" stroke="white" stroke-width="16.7377" stroke-linecap="round" stroke-linejoin="round"/>
<path d="M461.969 62.4648C461.969 62.4648 501.112 200.187 501.863 277.291C502.614 354.395 461.969 518.156 461.969 518.156" stroke="white" stroke-width="45" stroke-linecap="round"/>
</g>
<defs>
<clipPath id="clip0">
<path d="M0 0H580V580H0V0Z" fill="white"/>
</clipPath>
</defs>
</svg>
