<svg width="580" height="580" viewBox="0 0 580 580" fill="none" xmlns="http://www.w3.org/2000/svg">
<path d="M295.595 29.7324L204.338 29.8015C161.835 29.8015 130.565 63.9332 130.565 101.121V364.526C130.565 400.554 158.752 430.104 187.096 434.671L102.093 562.175H151.159L211.94 473.061H295.181H295.25H295.319H378.56L439.34 562.175H488.407L403.404 434.671C431.748 430.104 459.969 400.554 459.969 364.526V101.121C459.969 63.9332 428.664 29.8015 386.161 29.8015L295.595 29.7324ZM259.452 45.0053H295.181H295.25H295.319H331.048C337.514 45.0053 343.142 50.4254 343.142 56.8919V77.8316C343.142 84.2981 337.822 89.8564 331.048 89.8564H295.319H295.25H295.181H259.452C252.677 89.8564 247.358 84.2981 247.358 77.8316V56.8919C247.358 50.4254 252.985 45.0053 259.452 45.0053ZM206.791 104.058H295.181H295.319H383.708C407.726 104.058 420.474 121.254 420.474 140.962V188.37C420.661 211.157 404.031 225.135 383.708 225.135H295.319H295.25H295.181H206.791C186.468 225.135 169.839 211.157 170.026 188.37V140.962C170.026 121.254 182.773 104.058 206.791 104.058ZM202.783 331.562C220.649 331.562 235.16 346.038 235.16 363.904C235.16 381.769 220.649 396.247 202.783 396.247C184.917 396.247 170.441 381.769 170.441 363.904C170.441 346.038 184.917 331.562 202.783 331.562ZM386.956 331.562C404.822 331.562 419.299 346.038 419.299 363.904C419.299 381.769 404.822 396.247 386.956 396.247C369.09 396.247 354.614 381.769 354.614 363.904C354.614 346.038 369.09 331.562 386.956 331.562Z" fill="white"/>
</svg>
