<svg width="28" height="28" viewBox="0 0 28 28" fill="none" xmlns="http://www.w3.org/2000/svg">
<path fill-rule="evenodd" clip-rule="evenodd" d="M20 2H10V4H14L12 6H9.41421C8.50871 6 7.64029 6.35971 7 7C6.35971 7.64029 6 8.50871 6 9.41421V22C6 23.1046 6.89543 24 8 24H20C21.1046 24 22 23.1046 22 22V9.41421C22 8.50871 21.6403 7.64029 21 7C20.3597 6.35971 19.4913 6 18.5858 6H15L17 4H20V2ZM20 18V10H8V18H20ZM9 20C8.44772 20 8 20.4477 8 21C8 21.5523 8.44772 22 9 22C9.55228 22 10 21.5523 10 21C10 20.4477 9.55228 20 9 20ZM18 21C18 20.4477 18.4477 20 19 20C19.5523 20 20 20.4477 20 21C20 21.5523 19.5523 22 19 22C18.4477 22 18 21.5523 18 21Z" fill="white"/>
<path opacity="0.5" d="M9 22H11L9.66667 26H18.3333L17 22H19L21 28H7L9 22Z" fill="white"/>
</svg>
