<svg width="16" height="16" viewBox="0 0 16 16" fill="none" xmlns="http://www.w3.org/2000/svg">
<path d="M7.94397 5.36914L7.54883 8.00122" stroke="white" stroke-width="2.44945" stroke-linecap="round" stroke-linejoin="round"/>
<path d="M10.8623 7.43287L9.51917 6.57419L8.58398 4.94922" stroke="white" stroke-width="1.07617" stroke-linecap="round" stroke-linejoin="round"/>
<path d="M10.5497 13.2997L9.95312 10.2832" stroke="white" stroke-width="1.36337" stroke-linecap="round" stroke-linejoin="round"/>
<path d="M7.67871 7.94336L9.84646 10.2037" stroke="white" stroke-width="1.48882" stroke-linecap="round" stroke-linejoin="round"/>
<path d="M6.98926 8.03125L7.20715 10.8484" stroke="white" stroke-width="1.48882" stroke-linecap="round" stroke-linejoin="round"/>
<path d="M5.99805 13.7072L7.25581 10.9863" stroke="white" stroke-width="1.49562" stroke-linecap="round" stroke-linejoin="round"/>
<path d="M5.1377 8.03504L5.64903 6.19601L7.51411 4.79688" stroke="white" stroke-width="1.07617" stroke-linecap="round" stroke-linejoin="round"/>
<path d="M9.61242 2.63871C9.61242 2.92765 9.4981 3.20486 9.29441 3.40979C9.09073 3.61473 8.81423 3.73075 8.52529 3.73251C8.23635 3.73428 7.95846 3.62165 7.75228 3.41921C7.54611 3.21678 7.42841 2.94099 7.42489 2.65207C7.42136 2.36315 7.5323 2.08457 7.73347 1.87717C7.93465 1.66977 8.20971 1.55039 8.49861 1.54511C8.7875 1.53982 9.06675 1.64906 9.27537 1.84897C9.484 2.04888 9.60505 2.32321 9.61209 2.61207" fill="white"/>
</svg>
