<?xml version="1.0" encoding="UTF-8" standalone="no"?>
<!-- Created with Inkscape (http://www.inkscape.org/) -->

<svg
   xmlns:dc="http://purl.org/dc/elements/1.1/"
   xmlns:cc="http://creativecommons.org/ns#"
   xmlns:rdf="http://www.w3.org/1999/02/22-rdf-syntax-ns#"
   xmlns:svg="http://www.w3.org/2000/svg"
   xmlns="http://www.w3.org/2000/svg"
   xmlns:sodipodi="http://sodipodi.sourceforge.net/DTD/sodipodi-0.dtd"
   xmlns:inkscape="http://www.inkscape.org/namespaces/inkscape"
   version="1.0"
   width="580"
   height="580"
   id="svg2"
   sodipodi:version="0.32"
   inkscape:version="0.91 r"
   sodipodi:docname="aquaculture.svg"
   inkscape:output_extension="org.inkscape.output.svg.inkscape">
  <metadata
     id="metadata10">
    <rdf:RDF>
      <cc:Work
         rdf:about="">
        <dc:format>image/svg+xml</dc:format>
        <dc:type
           rdf:resource="http://purl.org/dc/dcmitype/StillImage" />
        <cc:license
           rdf:resource="http://web.resource.org/cc/PublicDomain" />
        <dc:language>en</dc:language>
        <dc:title />
      </cc:Work>
    </rdf:RDF>
  </metadata>
  <sodipodi:namedview
     inkscape:window-height="1006"
     inkscape:window-width="1920"
     inkscape:pageshadow="2"
     inkscape:pageopacity="0.0"
     guidetolerance="10.0"
     gridtolerance="10.0"
     objecttolerance="10.0"
     borderopacity="1.0"
     bordercolor="#666666"
     pagecolor="#ffffff"
     id="base"
     showgrid="false"
     inkscape:zoom="0.70710678"
     inkscape:cx="293.31895"
     inkscape:cy="354.39326"
     inkscape:window-x="1680"
     inkscape:window-y="0"
     inkscape:current-layer="svg2"
     showguides="true"
     inkscape:guide-bbox="true"
     inkscape:window-maximized="1" />
  <defs
     id="defs4">
    <inkscape:perspective
       sodipodi:type="inkscape:persp3d"
       inkscape:vp_x="0 : 290 : 1"
       inkscape:vp_y="0 : 1000 : 0"
       inkscape:vp_z="580 : 290 : 1"
       inkscape:persp3d-origin="290 : 193.33333 : 1"
       id="perspective12" />
    <style
       type="text/css"
       id="style6">
   
    .fil0 {fill:#EF7900}
   
  </style>
    <inkscape:perspective
       id="perspective6807"
       inkscape:persp3d-origin="29.116032 : 19.410688 : 1"
       inkscape:vp_z="58.232063 : 29.116032 : 1"
       inkscape:vp_y="0 : 1000 : 0"
       inkscape:vp_x="0 : 29.116032 : 1"
       sodipodi:type="inkscape:persp3d" />
    <inkscape:perspective
       id="perspective6954"
       inkscape:persp3d-origin="290 : 193.33333 : 1"
       inkscape:vp_z="580 : 290 : 1"
       inkscape:vp_y="0 : 1000 : 0"
       inkscape:vp_x="0 : 290 : 1"
       sodipodi:type="inkscape:persp3d" />
    <inkscape:perspective
       id="perspective2541"
       inkscape:persp3d-origin="240 : 160 : 1"
       inkscape:vp_z="480 : 240 : 1"
       inkscape:vp_y="0 : 1000 : 0"
       inkscape:vp_x="0 : 240 : 1"
       sodipodi:type="inkscape:persp3d" />
    <inkscape:perspective
       id="perspective2750"
       inkscape:persp3d-origin="215 : 143.33333 : 1"
       inkscape:vp_z="430 : 215 : 1"
       inkscape:vp_y="0 : 1000 : 0"
       inkscape:vp_x="0 : 215 : 1"
       sodipodi:type="inkscape:persp3d" />
    <inkscape:perspective
       id="perspective2830"
       inkscape:persp3d-origin="0.5 : 0.33333333 : 1"
       inkscape:vp_z="1 : 0.5 : 1"
       inkscape:vp_y="0 : 1000 : 0"
       inkscape:vp_x="0 : 0.5 : 1"
       sodipodi:type="inkscape:persp3d" />
    <inkscape:perspective
       id="perspective3648"
       inkscape:persp3d-origin="0.5 : 0.33333333 : 1"
       inkscape:vp_z="1 : 0.5 : 1"
       inkscape:vp_y="0 : 1000 : 0"
       inkscape:vp_x="0 : 0.5 : 1"
       sodipodi:type="inkscape:persp3d" />
    <inkscape:perspective
       id="perspective3675"
       inkscape:persp3d-origin="0.5 : 0.33333333 : 1"
       inkscape:vp_z="1 : 0.5 : 1"
       inkscape:vp_y="0 : 1000 : 0"
       inkscape:vp_x="0 : 0.5 : 1"
       sodipodi:type="inkscape:persp3d" />
    <inkscape:perspective
       id="perspective3736"
       inkscape:persp3d-origin="0.5 : 0.33333333 : 1"
       inkscape:vp_z="1 : 0.5 : 1"
       inkscape:vp_y="0 : 1000 : 0"
       inkscape:vp_x="0 : 0.5 : 1"
       sodipodi:type="inkscape:persp3d" />
  </defs>
  <g
     id="g1327">
    <path
       d="M 66.275,1.768 C 24.94,1.768 1.704,23.139 1.704,66.804 L 1.704,516.927 C 1.704,557.771 22.598,579.156 63.896,579.156 L 515.92,579.156 C 557.227,579.156 578.149,558.84 578.149,516.927 L 578.149,66.804 C 578.149,24.203 557.227,1.768 514.627,1.768 C 514.624,1.768 66.133,1.625 66.275,1.768 z"
       style="fill:#111111;stroke:#eeeeee;stroke-width:3.40799999"
       id="path1329" />
  </g>
  <path
     style="fill:#ffffff;fill-opacity:1;stroke-width:45.53900146;stroke-miterlimit:4;stroke-dasharray:none"
     d="M 84.923828,89.684953 C 73.27888,99.819143 56.429203,102.73031 46.078125,102.73031 c -1.981539,0 -4.464157,-0.16313 -7.279297,-0.50866 l 0,25.99341 c 2.805877,0.37662 5.29106,0.58828 7.279297,0.58828 10.351079,0 27.200755,-2.93181 38.845703,-13.066 7.290219,6.34442 16.655242,9.853 25.140622,11.59751 l 0,0.0192 c 0.0593,0 0.11259,-6.3e-4 0.17188,0 3.75057,0.76103 7.33252,1.19209 10.5039,1.35201 0.33485,0.0271 0.65618,0.0219 1.00196,0.0383 0.46219,0.0224 0.90911,0.059 1.39258,0.059 0.13749,0 0.25412,4.4e-4 0.39062,0 0.0724,2.8e-4 0.14894,0 0.2207,0 0.21178,-0.002 0.42538,-0.0378 0.63477,-0.0398 20.64822,-0.20995 29.73869,-5.54159 37.2832,-12.32144 0.26581,-0.21864 0.52044,-0.42 0.78125,-0.64577 4.13254,3.54562 8.91983,6.19301 13.82813,8.14892 0.3158,0.12817 0.66172,0.28906 0.97851,0.41135 0.0115,0.004 0.0124,-0.004 0.0234,0 0.85731,0.33034 1.72914,0.63143 2.58984,0.92002 0.34281,0.11287 0.65921,0.18825 1.00196,0.29487 5.85452,1.85398 11.69392,2.82509 16.61328,3.1139 0.65685,0.0386 1.2835,0.0618 1.90625,0.0782 0.54245,0.0205 1.03032,0.0378 1.53906,0.0398 0.99727,0.0668 1.95121,0.0781 2.78516,0.0781 10.13364,0 26.47853,-2.81266 38.08789,-12.43939 7.23951,5.90805 16.27153,9.22163 24.53711,10.90013 l 0,0.0118 c 0.0198,0 0.0379,6e-5 0.0566,0 3.33617,0.67472 6.55041,1.09205 9.46484,1.29303 0.39575,0.0273 0.76215,0.0391 1.14649,0.059 0.003,1.3e-4 0.005,-1.3e-4 0.008,0 0.43069,0.0307 0.86957,0.0763 1.28711,0.0973 0.33487,0.0271 0.70501,0.002 1.05078,0.0192 0.46219,0.0224 0.88568,0.059 1.36914,0.059 0.13751,0 0.27951,4.4e-4 0.41602,0 0.0725,2.8e-4 0.147,0 0.21875,0 0.21179,-0.002 0.40193,-0.0173 0.61132,-0.0192 20.64824,-0.20994 29.76211,-5.54159 37.30664,-12.32144 0.0603,-0.0496 0.11933,-0.0979 0.17774,-0.14743 3.96271,3.24249 8.47208,5.70934 13.0957,7.5518 0.3158,0.12817 0.65977,0.28906 0.97656,0.41135 0.0115,0.004 0.0144,-0.004 0.0254,0 0.8573,0.33034 1.72914,0.63143 2.58984,0.92002 0.34281,0.11287 0.65725,0.18825 1,0.29487 5.85452,1.85398 11.69587,2.82509 16.61523,3.1139 0.22098,0.013 0.42557,0.0167 0.64063,0.0266 0.22109,0.0153 0.45204,0.0388 0.66992,0.0516 0.65689,0.0386 1.3089,0.0824 1.93164,0.0988 0.79467,0.0301 1.53714,0.0192 2.27148,0.0192 0.086,0 0.18076,-0.004 0.26758,-0.004 0.14664,7.5e-4 0.30705,0.004 0.44727,0.004 10.13364,0 26.48048,-2.81266 38.08984,-12.43939 10.17943,8.30727 23.90807,11.50513 34.05664,12.20496 0.39575,0.0273 0.7641,0.0391 1.14844,0.059 0.43318,0.0307 0.87487,0.0762 1.29492,0.0973 0.2359,0.0191 0.49025,0.0129 0.74024,0.0133 0.31811,0.0141 0.62665,0.0234 0.93554,0.0324 0.24264,0.0134 0.47973,0.0324 0.74219,0.0324 0.13751,0 0.2795,4.4e-4 0.41602,0 0.0725,2.8e-4 0.14895,0 0.2207,0 0.0319,-2.3e-4 0.0607,-0.002 0.0918,-0.003 0.0465,1.2e-4 0.0983,0.003 0.14453,0.003 1.00531,0 2.0862,-0.0372 3.20117,-0.0944 14.8579,-0.52042 23.36472,-3.88178 29.83594,-8.49541 1.94371,-1.16 3.81434,-2.46255 5.57812,-3.92039 6.6734,5.47578 14.90049,8.7353 22.64258,10.53154 0.66825,0.15503 1.36763,0.31747 2.02734,0.45116 0.0475,0.0102 0.0991,0.0284 0.14649,0.0383 3.56589,0.7575 6.96645,1.19067 10.04101,1.37118 0.65689,0.0386 1.30695,0.0824 1.92969,0.0988 0.79467,0.0301 1.53909,0.0192 2.27344,0.0192 8.03897,0 19.92631,-1.71899 30.34961,-7.09474 l 0,-27.542988 c -6.4958,3.210581 -15.99819,7.155288 -25.29297,8.271298 -0.0845,0.0101 -0.1596,0.0288 -0.24414,0.0383 -1.88283,0.15382 -3.66184,0.21674 -5.27734,0.21674 -0.9981,0 -2.09404,-0.0424 -3.20118,-0.0988 -0.24993,-0.0128 -0.50297,-0.003 -0.75781,-0.0192 -0.58756,-0.0432 -1.22092,-0.0964 -1.83203,-0.15629 -0.23686,-0.0232 -0.46696,-0.0331 -0.70703,-0.059 -0.68911,-0.0682 -1.41345,-0.16366 -2.12695,-0.25506 -0.0935,-0.0128 -0.19913,-0.006 -0.29297,-0.0192 -4.37158,-0.61249 -9.13006,-1.6859 -13.83399,-3.376347 l 0,-0.247697 c -5.40465,-2.003073 -10.69481,-4.82484 -15.2207,-8.718039 -0.0956,0.08225 -0.19472,0.160497 -0.29102,0.241799 -0.11971,-0.101774 -0.24461,-0.196024 -0.36328,-0.2993 -0.0336,0.02936 -0.0874,0.06837 -0.12109,0.09731 -0.0129,-0.01147 -0.0123,-0.02856 -0.0254,-0.03981 -0.0718,0.06175 -0.1466,0.134902 -0.21875,0.196093 -0.10856,-0.09145 -0.21066,-0.181611 -0.31836,-0.274236 -11.63707,10.010291 -28.33831,12.949807 -38.83789,13.020297 -2.4505,-0.0162 -5.24747,-0.18517 -8.23438,-0.56764 -0.44872,-0.0614 -0.89874,-0.12625 -1.35547,-0.19757 -0.11757,-0.0178 -0.23544,-0.0346 -0.35351,-0.0531 -9.24626,-1.49083 -19.9693,-5.058248 -28.1543,-12.181367 -0.0562,0.04888 -0.11361,0.09576 -0.16992,0.144489 -0.0347,-0.02964 -0.0709,-0.05722 -0.10547,-0.08699 -0.0605,0.05201 -0.13392,0.10768 -0.19531,0.157759 -0.10263,-0.08654 -0.21456,-0.148282 -0.31641,-0.235902 -0.0838,0.07202 -0.15986,0.143939 -0.24414,0.21526 l 0,-0.194618 c 0,0 -0.22012,0.134347 -0.30078,0.184298 -0.0852,-0.0682 -0.17302,-0.133686 -0.25586,-0.20494 -0.24782,0.21318 -0.50351,0.400631 -0.75586,0.607447 l 0,-0.664948 c 0,0 -21.00734,13.255492 -38.79883,13.045362 -0.28884,-0.003 -0.60363,-0.0115 -0.90234,-0.0192 -4.68864,-0.31647 -10.9286,-1.27899 -17.41992,-2.919285 0.002,0.02821 0.008,0.05704 0.0117,0.08551 -6.73114,-2.011089 -13.56083,-5.20909 -19.19727,-10.114281 -0.0336,0.02936 -0.0894,0.06837 -0.12305,0.09731 -0.0129,-0.01147 -0.0103,-0.02856 -0.0234,-0.03981 -0.0718,0.06175 -0.14856,0.134902 -0.22071,0.196093 -0.10856,-0.09145 -0.2087,-0.181611 -0.3164,-0.274236 -0.0966,0.08311 -0.19761,0.161135 -0.29492,0.243274 -0.119,-0.101162 -0.24142,-0.198118 -0.35938,-0.300775 -0.0336,0.02936 -0.0872,0.04915 -0.12109,0.07814 -0.013,-0.01148 -0.0123,-0.0094 -0.0254,-0.02064 -9.57214,8.234039 -22.62087,11.68819 -32.78711,12.69446 -0.78202,0.0774 -1.52623,0.12597 -2.27149,0.17545 -0.74527,0.0494 -1.47107,0.0751 -2.17383,0.0988 -0.48862,0.0165 -0.97567,0.0146 -1.4414,0.0192 -1.23331,0 -2.56352,-0.0442 -3.96094,-0.13417 -10.19614,-0.8596 -23.67232,-4.280366 -33.5,-12.833049 -0.20805,0.181051 -0.41789,0.359632 -0.62891,0.536676 -0.24511,-0.203412 -0.49164,-0.405278 -0.73242,-0.614819 -0.048,0.0418 -0.0983,0.08083 -0.14648,0.122374 -0.0264,-0.02208 -0.054,-0.04241 -0.0801,-0.06487 -0.24782,0.21318 -0.50546,0.400631 -0.75781,0.607447 l 0,-0.664948 c 0,0 -20.5427,12.955069 -38.20508,13.037989 -0.74797,-0.007 -1.56491,-0.0365 -2.4375,-0.0885 -4.56863,-0.37398 -10.40504,-1.30791 -16.47852,-2.842616 0.0105,0.123009 0.0383,0.250026 0.0488,0.373016 -7.17686,-1.964351 -14.55763,-5.247311 -20.57031,-10.479926 -0.0336,0.02936 -0.0892,0.04915 -0.12305,0.07814 -0.013,-0.01148 -0.0103,-0.0094 -0.0234,-0.02064 -9.57214,8.234039 -22.62087,11.688186 -32.78711,12.694456 -0.78202,0.0774 -1.52818,0.12597 -2.27344,0.17545 -0.74527,0.0494 -1.47107,0.0751 -2.17383,0.0988 -0.48862,0.0165 -0.97568,0.0146 -1.44141,0.0192 -10.35107,0 -27.177314,-2.911168 -38.822262,-13.045358 z"
     id="path17"
     inkscape:connector-curvature="0" />
  <path
     style="color:#000000;display:inline;overflow:visible;visibility:visible;fill:#ffffff;fill-opacity:1;fill-rule:nonzero;stroke-width:0.96049488;stroke-linecap:butt;stroke-linejoin:miter;stroke-miterlimit:4;stroke-dasharray:none;stroke-dashoffset:0;stroke-opacity:1;marker:none;enable-background:accumulate"
     d="m 366.37073,221.00893 c 6.87338,0.18983 31.18899,-0.67742 33.2546,2.94098 0.0173,0.55157 -3.33093,3.18429 -6.20365,6.90825 -5.38363,6.9789 -13.66,17.66735 -12.31539,18.90195 0.69868,0.64155 6.66652,-4.03405 17.61528,-12.5145 9.38642,-7.27031 11.05678,-5.44313 5.56032,6.05046 -6.57948,13.75836 -17.70364,29.36573 -40.88278,49.39939 -0.24814,0.25356 -0.50043,0.50069 -0.75056,0.75058 -0.15288,11.01279 -2.36233,23.2008 -7.61288,29.18007 -13.78975,15.70371 -16.4014,3.89779 -24.92177,-5.88196 -7.10802,4.05814 -14.31745,7.97615 -21.35279,12.30005 -1.116,1.00826 -5.13868,3.23428 -8.9302,4.91698 -21.20388,11.77758 -39.38309,20.71638 -51.48256,35.59819 -11.82703,13.10379 -11.66457,29.87496 -15.39422,45.81505 -0.39671,0.41585 -1.27726,4.54528 -1.94536,9.15994 -1.818,12.55723 -4.41548,13.61477 -8.76167,3.63028 -3.57,-8.20125 -13.17242,-25.40362 -15.25637,-27.32666 -8.80762,-4.4757 -19.12649,-10.36777 -28.42955,-13.84714 -4.59494,-1.26725 -7.88125,-3.92668 -6.57127,-5.2999 0.21663,-0.22713 1.50872,-0.81717 2.91036,-1.33263 1.40162,-0.51548 5.04357,-1.86648 8.01111,-2.98696 2.96753,-1.12045 6.90255,-2.16931 8.77702,-2.29765 9.87752,-2.05522 18.23069,-6.61797 25.18221,-14.1841 6.48779,-9.73822 15.73177,-21.52913 18.30457,-35.16931 5.76022,-19.15986 6.30224,-20.75484 9.65011,-27.75556 1.82014,-3.80611 3.30483,-7.15831 3.2933,-7.42906 -0.0113,-0.27072 -1.56389,-0.41726 -3.44647,-0.33699 -1.88261,0.0802 -3.81205,-0.39928 -4.25832,-1.05692 -0.44621,-0.65768 1.01279,-5.14615 3.18608,-10.00241 2.5319,-5.65759 4.08927,-11.88551 4.3502,-17.33956 0.20997,-4.38896 1.03469,-8.33349 1.88408,-9.12931 0.0568,-0.0531 0.11179,-0.0827 0.16849,-0.1071 0.90502,-0.39229 8.16778,-0.0353 16.14479,0.81184 l 14.5058,1.53177 5.05483,-4.35022 c 24.08022,-18.87574 50.39257,-27.57952 80.66266,-29.54773 z m -0.90373,11.67202 c -1.17681,0 -2.349,0.44962 -3.24734,1.34796 -1.79672,1.7967 -1.79672,4.7133 0,6.51 1.7967,1.7967 4.71328,1.7967 6.50998,0 1.7967,-1.7967 1.79672,-4.71328 0,-6.51 -0.89834,-0.89834 -2.08585,-1.34796 -3.26264,-1.34796 z"
     id="path1932"
     inkscape:connector-curvature="0" />
  <rect
     style="color:#000000;clip-rule:nonzero;display:inline;overflow:visible;visibility:visible;opacity:1;isolation:auto;mix-blend-mode:normal;color-interpolation:sRGB;color-interpolation-filters:linearRGB;solid-color:#000000;solid-opacity:1;fill:none;fill-opacity:1;fill-rule:nonzero;stroke:#ffffff;stroke-width:17.96961021;stroke-linecap:round;stroke-linejoin:round;stroke-miterlimit:4;stroke-dasharray:none;stroke-dashoffset:0;stroke-opacity:1;marker:none;color-rendering:auto;image-rendering:auto;shape-rendering:auto;text-rendering:auto;enable-background:accumulate"
     id="rect4172"
     width="300.55536"
     height="299.36176"
     x="139.72232"
     y="168.31912" />
</svg>
