<svg width="580" height="580" viewBox="0 0 580 580" fill="none" xmlns="http://www.w3.org/2000/svg">
<g clip-path="url(#clip0)">
<path d="M66.275 1.76802C24.94 1.76802 1.70398 23.139 1.70398 66.804V516.927C1.70398 557.771 22.598 579.156 63.896 579.156H515.92C557.227 579.156 578.149 558.84 578.149 516.927V66.804C578.149 24.203 557.227 1.76802 514.627 1.76802C514.624 1.76802 66.133 1.62502 66.275 1.76802Z" fill="#111111" stroke="#EEEEEE" stroke-width="3.408"/>
<path opacity="0.754" d="M165.201 40.1797L158.848 40.1875L158.908 67.5H152.037L152.002 97.5H142.377V127.5H123.055V373.826C129.997 366.28 138.272 359.626 147.023 353.783C162.569 343.405 180.789 335.005 200.338 328.771V283.154C199.497 282.224 198.655 281.224 197.816 280.123C197.752 280.039 197.688 279.954 197.625 279.869C185.735 263.821 180.045 245.715 182.211 223.646C182.66 219.072 183.13 214.46 184.799 209.986C177.617 181.961 181.415 152.685 192.004 127.5H181.018V97.5H171.471L171.357 67.5H165.188L165.201 40.1797ZM475.201 191V407.184C476.086 411.294 476.562 415.57 476.564 420.021C476.564 420.025 476.564 420.028 476.564 420.031V446.242C476.564 449.55 476.054 452.654 475.201 455.533V520H546V225.234H512.682V191H475.201ZM398.465 240.414C396.845 263.803 384.169 279.98 376 288.166C374.556 293.011 372.559 297.292 369.967 302.855C367.052 309.112 363.338 315.96 358.869 322.906C386.453 329.223 412.36 339.715 433.342 353.83C436.752 356.125 440.083 358.549 443.293 361.098V302.943L398.465 240.414ZM27.4551 266.664V523.82H90.8008V283.578L27.4551 266.664ZM38.877 298.533H50.3926V311.797H38.877V298.533ZM67.9395 298.533H79.4551V311.797H67.9395V298.533ZM350.326 320.859C350.134 320.85 350.145 321.031 350.145 321.031L349.408 320.879C349.867 320.967 350.316 321.082 350.773 321.172C350.663 321.117 350.388 320.862 350.326 320.859ZM38.9883 326.979H50.5059V340.525H38.9883V326.979ZM67.8262 326.979H79.3418V340.525H67.8262V326.979ZM38.9883 354.07H50.5059V367.615H38.9883V354.07ZM67.8262 354.07H79.3418V367.615H67.8262V354.07ZM38.9883 381.16H50.5059V394.707H38.9883V381.16ZM67.8262 381.16H79.3418V394.707H67.8262V381.16ZM38.9883 408.666H50.5059V422.211H38.9883V408.666ZM67.7695 408.666H79.2852V422.211H67.7695V408.666ZM38.9883 435.756H50.5059V449.303H38.9883V435.756ZM67.7695 435.756H79.2852V449.303H67.7695V435.756ZM38.9883 462.848H50.5059V476.393H38.9883V462.848ZM67.7695 462.848H79.2852V476.393H67.7695V462.848ZM123.055 484.271V520H200.338V509.689C191.5 508.537 182.94 507.138 174.811 505.426C157.67 501.816 142.293 497.097 128.996 488.625C126.976 487.338 124.988 485.869 123.055 484.271ZM443.293 486.783C432.675 491.942 420.463 496.087 406.744 499.777C387.954 504.833 366.453 508.837 343.969 511.379V520H443.293V486.783ZM38.9883 489.957H50.5059V503.502H38.9883V489.957ZM67.7695 489.957H79.2852V503.502H67.7695V489.957ZM230.652 512.654V520H305.346V514.205C300.319 514.371 295.291 514.459 290.281 514.459C270.569 514.459 250.288 514.008 230.652 512.654Z" fill="white"/>
<path d="M344.963 344.081C344.963 344.081 323.461 339.247 333.659 317.901C346.211 301.092 353.882 282.023 354.49 275.786C354.49 275.786 373.84 260.615 374.963 237.834C376.179 215.116 370.737 214.056 370.737 214.056C378.861 189.279 381.496 96.2862 321.559 107.388C311.549 87.8819 248.898 72.5858 219.694 124.555C205.115 150.47 199.689 185.849 211.056 214.711C210.635 216.862 207.033 212.606 205.723 225.953C204.46 238.816 210.276 257.262 216.607 265.807C219.351 269.409 223.748 272.044 226.851 273.385C226.851 273.385 230.64 296.306 248.618 317.901C252.75 335.037 235.661 344.081 235.661 344.081C179.076 354.917 127.059 386.196 127.059 420.031C127.059 422.526 127.059 446.242 127.059 446.242C127.059 482.962 212.974 490.836 290.281 490.836C367.603 490.836 452.941 468.711 452.941 446.242C452.941 446.242 452.941 422.526 452.941 420.031C452.926 386.196 401.517 354.917 344.963 344.081H344.963ZM265.754 474.917C265.754 431.133 285.026 400.931 285.026 400.931L265.255 389.969C265.255 380.473 289.984 369.496 289.984 369.496C289.984 369.496 313.669 379.974 313.669 389.969L294.943 400.931C294.943 400.931 313.747 431.149 313.747 475.322C313.747 481.434 265.754 480.015 265.754 474.917V474.917Z" fill="white"/>
</g>
<defs>
<clipPath id="clip0">
<path d="M0 0H580V580H0V0Z" fill="white"/>
</clipPath>
</defs>
</svg>
