<svg width="48" height="48" viewBox="0 0 580 580" fill="none" xmlns="http://www.w3.org/2000/svg">
<path d="M286.883 97.8732C261.098 97.4374 233.956 111.706 228.471 140.947C226.148 153.328 224.208 157.309 209.554 157.563C164.411 158.346 145.213 224.705 183.352 255.982C187.131 259.081 184.954 261.772 172.232 271.447C107.486 320.687 177.201 418.938 243.425 371.783C253.121 364.879 254.658 364.804 256.846 370.505C261.464 382.539 259.411 440.322 253.65 459.465L247.899 478.509H282.537C285.966 478.509 287.681 478.521 290.462 478.509C293.276 478.522 295.029 478.509 298.514 478.509H333.152L327.528 459.465C321.767 440.322 319.587 382.539 324.205 370.505C326.393 364.804 327.93 364.879 337.626 371.783C403.849 418.938 473.565 320.687 408.819 271.447C396.097 261.772 393.264 257.733 397.827 255.982C435.965 241.347 415.53 165.003 371.497 157.563C357.045 155.122 355.031 153.328 352.708 140.947C346.962 110.321 317.405 96.2211 290.589 98.1288C289.367 98.0413 288.114 97.894 286.883 97.8732Z" fill="white" />
</svg>