<svg width="580" height="580" viewBox="0 0 580 580" fill="none" xmlns="http://www.w3.org/2000/svg">
<g clip-path="url(#clip0)">
<path d="M66.275 1.76802C24.94 1.76802 1.70398 23.139 1.70398 66.804V516.927C1.70398 557.771 22.598 579.156 63.896 579.156H515.92C557.227 579.156 578.149 558.84 578.149 516.927V66.804C578.149 24.203 557.227 1.76802 514.627 1.76802C514.624 1.76802 66.133 1.62502 66.275 1.76802Z" fill="#111111" stroke="#EEEEEE" stroke-width="3.408"/>
<path d="M151.717 156.282L151.098 268.339" stroke="white" stroke-width="35" stroke-linecap="round"/>
<path d="M83.142 147.995L82.5225 260.052" stroke="white" stroke-width="35" stroke-linecap="round"/>
<path d="M430.101 352.217L430.741 443.658" stroke="white" stroke-width="35" stroke-linecap="round"/>
<path d="M495.485 342.425L496.125 433.866" stroke="white" stroke-width="35" stroke-linecap="round"/>
<path d="M405.792 209.212L406.308 78.5712" stroke="white" stroke-width="35" stroke-linecap="round" stroke-linejoin="round"/>
<path d="M483.158 124.705L441.849 209.389" stroke="white" stroke-width="35" stroke-linecap="round" stroke-linejoin="round"/>
<path d="M534.884 157.575L484.28 209.212" stroke="white" stroke-width="35" stroke-linecap="round" stroke-linejoin="round"/>
<path d="M335.353 121.091L370.983 209.39" stroke="white" stroke-width="35" stroke-linecap="round" stroke-linejoin="round"/>
<path d="M278.464 159.125L328.552 209.212" stroke="white" stroke-width="35" stroke-linecap="round" stroke-linejoin="round"/>
<path d="M195.29 494.867L195.806 364.225" stroke="white" stroke-width="35" stroke-linecap="round" stroke-linejoin="round"/>
<path d="M272.657 410.359L231.347 495.044" stroke="white" stroke-width="35" stroke-linecap="round" stroke-linejoin="round"/>
<path d="M324.382 443.23L273.778 494.867" stroke="white" stroke-width="35" stroke-linecap="round" stroke-linejoin="round"/>
<path d="M124.852 406.745L160.481 495.044" stroke="white" stroke-width="35" stroke-linecap="round" stroke-linejoin="round"/>
<path d="M67.9625 444.779L118.05 494.867" stroke="white" stroke-width="35" stroke-linecap="round" stroke-linejoin="round"/>
</g>
<defs>
<clipPath id="clip0">
<path d="M0 0H580V580H0V0Z" fill="white"/>
</clipPath>
</defs>
</svg>
