<svg width="580" height="580" viewBox="0 0 580 580" fill="none" xmlns="http://www.w3.org/2000/svg">
<path d="M478.333 141H420L374.75 495.467L367.217 302.167H327.667V208L195.833 302.167V208L64 302.167V528.167V547H365.333H384.167H516L478.333 141ZM158.167 490.5H120.5V434H158.167V490.5ZM158.167 396.333H120.5V339.833H158.167V396.333ZM233.5 490.5H195.833V434H233.5V490.5ZM233.5 396.333H195.833V339.833H233.5V396.333ZM308.833 490.5H271.167V434H308.833V490.5ZM308.833 396.333H271.167V339.833H308.833V396.333Z" fill="white"/>
<path d="M432.522 89.1885C422.443 81.2256 422.071 81.589 408.807 73.8425C395.543 66.096 356.339 66.6717 356.339 66.6717C356.339 66.6717 330.972 35.9579 289.35 29.0103C247.728 22.0628 246.835 38.2905 246.835 38.2905C246.835 38.2905 98.6022 -3.50331 104.684 54.5509C108.626 74.9358 129.19 67.6543 129.19 67.6543C129.19 67.6543 94.5318 116.386 276.014 97.8375C276.014 97.8375 266.188 107.91 299.124 112.977C332.059 118.044 372.994 105.237 372.994 105.237C372.994 105.237 375.848 117.865 427.346 115.436C440.21 119.238 467.929 118.199 470.177 113.306C470.177 113.306 464.504 95.7916 447.786 97.2428C447.632 98.2924 437.673 93.2573 432.522 89.1885Z" fill="white"/>
</svg>
