<svg width="48" height="48" viewBox="0 0 580 580" fill="none" xmlns="http://www.w3.org/2000/svg">
<path d="M195.978 325.87C195.204 425.348 135.454 476.16 87.9539 504.722C98.4808 503.574 175.865 502.727 221.717 489.835C239.92 479.713 255.201 442.389 255.201 442.389C265.378 519.376 297.754 529.441 295.603 530.048C316.791 527.214 364.772 432.255 364.772 432.255C364.772 432.255 358.375 466.394 358.66 479.497C402.795 513.893 436.394 520.042 494.75 498.614C461.727 479.823 445.612 468.283 424.63 442.43C412.898 427.975 414.849 370.368 415.319 325.102C402.472 361.517 253.085 389.135 195.978 325.87Z" fill="white" />
<path d="M363.529 257.855C362.998 260.356 362.462 263.027 362.011 265.721C360.779 273.084 361.08 275.304 360.363 279.854C366.291 279.856 376.273 279.634 379.69 281.081C390.162 285.515 388.576 301.698 373.054 300.967L275.005 301.111C271.354 301.119 267.777 300.081 264.699 298.117C252.171 290.126 244.035 281.807 238.964 274.729C236.429 271.189 234.658 267.964 233.462 265.383C233.24 264.903 233.017 264.373 232.798 263.854C212.701 272.28 201.383 283.768 201.367 295.758C201.365 320.547 248.713 340.643 307.12 340.643C365.528 340.643 412.876 320.547 412.874 295.758C412.823 280.369 394.199 266.064 363.529 257.855Z" fill="white" />
<path d="M102.091 46.4196C95.2621 46.251 87.893 54.4254 83.6336 66.7438C78.5878 81.3719 82.3351 96.4343 82.493 97.068C82.536 97.2284 82.5736 97.4351 82.6317 97.5856C82.8848 98.2649 84.322 101.816 88.0809 104.093C88.8544 104.568 95.795 108.593 100.7 108.31C101.144 108.286 102.008 108.264 103.386 107.961C109.314 106.627 127.355 102.589 146.741 112.093C159.111 118.159 172.161 128.365 185.88 139.222C197.998 148.819 210.496 158.646 223.014 165.775C239.282 175.06 263.549 186.346 279.749 193.562C287.733 182.333 297.532 166.472 301.22 158.902C305.023 151.1 310.462 140.876 314.046 134.158C309.496 132.003 304.318 131.468 297.624 130.961C285.452 130.036 267.039 128.721 239.266 115.095C231.922 111.496 224.364 105.555 215.589 98.65C203.332 89.0018 189.372 77.9257 170.497 68.6695C133.591 50.5653 107.135 46.5445 102.091 46.4196ZM336.706 133.127C334.774 133.283 333.08 134.493 332.156 136.199C331.737 136.982 321.734 155.419 315.88 167.43C310.229 179.024 290.575 209.393 282.63 216.918C274.055 225.056 252.576 246.487 248.17 250.28C254.057 265.298 270.377 279.018 274.963 282.027L340.261 281.882C341.507 273.976 344.269 251.569 347.917 242.043C350.011 236.568 352.999 229.741 356.275 222.756L368.964 228.621C371.542 229.81 374.624 228.887 376.179 226.502C376.394 226.177 381.423 218.416 388.478 203.938C395.671 189.179 397.409 181.811 397.478 181.514C397.76 180.211 397.578 178.877 397.025 177.744C396.471 176.611 395.492 175.716 394.288 175.141L382.21 169.482L386.202 161.557C387.075 159.769 386.865 157.61 385.802 155.92C384.756 154.273 380.573 149.557 363.937 141.396C346.424 132.801 338.169 133.008 336.706 133.127Z" fill="white" />
</svg>