<?xml version="1.0" encoding="UTF-8" standalone="no"?>
<!-- Created with Inkscape (http://www.inkscape.org/) -->

<svg
   xmlns:dc="http://purl.org/dc/elements/1.1/"
   xmlns:cc="http://creativecommons.org/ns#"
   xmlns:rdf="http://www.w3.org/1999/02/22-rdf-syntax-ns#"
   xmlns:svg="http://www.w3.org/2000/svg"
   xmlns="http://www.w3.org/2000/svg"
   xmlns:sodipodi="http://sodipodi.sourceforge.net/DTD/sodipodi-0.dtd"
   xmlns:inkscape="http://www.inkscape.org/namespaces/inkscape"
   version="1.0"
   width="580"
   height="580"
   id="svg2"
   sodipodi:version="0.32"
   inkscape:version="0.91 r"
   sodipodi:docname="orchard.svg"
   inkscape:output_extension="org.inkscape.output.svg.inkscape">
  <metadata
     id="metadata10">
    <rdf:RDF>
      <cc:Work
         rdf:about="">
        <dc:format>image/svg+xml</dc:format>
        <dc:type
           rdf:resource="http://purl.org/dc/dcmitype/StillImage" />
        <cc:license
           rdf:resource="http://web.resource.org/cc/PublicDomain" />
        <dc:language>en</dc:language>
        <dc:title />
      </cc:Work>
    </rdf:RDF>
  </metadata>
  <sodipodi:namedview
     inkscape:window-height="1004"
     inkscape:window-width="1920"
     inkscape:pageshadow="2"
     inkscape:pageopacity="0.0"
     guidetolerance="10.0"
     gridtolerance="10.0"
     objecttolerance="10.0"
     borderopacity="1.0"
     bordercolor="#666666"
     pagecolor="#ffffff"
     id="base"
     showgrid="false"
     inkscape:zoom="0.1767767"
     inkscape:cx="1102.0818"
     inkscape:cy="843.50292"
     inkscape:window-x="1680"
     inkscape:window-y="0"
     inkscape:current-layer="svg2"
     showguides="true"
     inkscape:guide-bbox="true"
     inkscape:window-maximized="1" />
  <defs
     id="defs4">
    <inkscape:perspective
       sodipodi:type="inkscape:persp3d"
       inkscape:vp_x="0 : 290 : 1"
       inkscape:vp_y="0 : 1000 : 0"
       inkscape:vp_z="580 : 290 : 1"
       inkscape:persp3d-origin="290 : 193.33333 : 1"
       id="perspective12" />
    <style
       type="text/css"
       id="style6">
   
    .fil0 {fill:#EF7900}
   
  </style>
    <inkscape:perspective
       id="perspective6807"
       inkscape:persp3d-origin="29.116032 : 19.410688 : 1"
       inkscape:vp_z="58.232063 : 29.116032 : 1"
       inkscape:vp_y="0 : 1000 : 0"
       inkscape:vp_x="0 : 29.116032 : 1"
       sodipodi:type="inkscape:persp3d" />
    <inkscape:perspective
       id="perspective6954"
       inkscape:persp3d-origin="290 : 193.33333 : 1"
       inkscape:vp_z="580 : 290 : 1"
       inkscape:vp_y="0 : 1000 : 0"
       inkscape:vp_x="0 : 290 : 1"
       sodipodi:type="inkscape:persp3d" />
    <inkscape:perspective
       id="perspective2541"
       inkscape:persp3d-origin="240 : 160 : 1"
       inkscape:vp_z="480 : 240 : 1"
       inkscape:vp_y="0 : 1000 : 0"
       inkscape:vp_x="0 : 240 : 1"
       sodipodi:type="inkscape:persp3d" />
    <inkscape:perspective
       id="perspective2750"
       inkscape:persp3d-origin="215 : 143.33333 : 1"
       inkscape:vp_z="430 : 215 : 1"
       inkscape:vp_y="0 : 1000 : 0"
       inkscape:vp_x="0 : 215 : 1"
       sodipodi:type="inkscape:persp3d" />
    <inkscape:perspective
       id="perspective2830"
       inkscape:persp3d-origin="0.5 : 0.33333333 : 1"
       inkscape:vp_z="1 : 0.5 : 1"
       inkscape:vp_y="0 : 1000 : 0"
       inkscape:vp_x="0 : 0.5 : 1"
       sodipodi:type="inkscape:persp3d" />
    <inkscape:perspective
       id="perspective3648"
       inkscape:persp3d-origin="0.5 : 0.33333333 : 1"
       inkscape:vp_z="1 : 0.5 : 1"
       inkscape:vp_y="0 : 1000 : 0"
       inkscape:vp_x="0 : 0.5 : 1"
       sodipodi:type="inkscape:persp3d" />
    <inkscape:perspective
       id="perspective3675"
       inkscape:persp3d-origin="0.5 : 0.33333333 : 1"
       inkscape:vp_z="1 : 0.5 : 1"
       inkscape:vp_y="0 : 1000 : 0"
       inkscape:vp_x="0 : 0.5 : 1"
       sodipodi:type="inkscape:persp3d" />
    <inkscape:perspective
       id="perspective3736"
       inkscape:persp3d-origin="0.5 : 0.33333333 : 1"
       inkscape:vp_z="1 : 0.5 : 1"
       inkscape:vp_y="0 : 1000 : 0"
       inkscape:vp_x="0 : 0.5 : 1"
       sodipodi:type="inkscape:persp3d" />
  </defs>
  <g
     id="g1327">
    <path
       d="M 66.275,1.768 C 24.94,1.768 1.704,23.139 1.704,66.804 L 1.704,516.927 C 1.704,557.771 22.598,579.156 63.896,579.156 L 515.92,579.156 C 557.227,579.156 578.149,558.84 578.149,516.927 L 578.149,66.804 C 578.149,24.203 557.227,1.768 514.627,1.768 C 514.624,1.768 66.133,1.625 66.275,1.768 z"
       style="fill:#111111;stroke:#eeeeee;stroke-width:3.40799999"
       id="path1329" />
  </g>
  <path
     style="opacity:1;fill:#ffffff;fill-opacity:1;stroke:none;stroke-width:65.80000305;stroke-linecap:butt;stroke-linejoin:round;stroke-miterlimit:4;stroke-dasharray:none;stroke-opacity:0.68181817"
     d="m 393.94141,33.101562 c -28.25968,0.498526 -104.9334,20.037007 -107.96485,18.882813 -58.93232,-22.437443 -67.61067,-10.253182 -72.96094,-9.150391 -49.05033,10.110195 -71.71512,9.813249 -82.2246,13.316407 -10.50952,3.503157 -13.40249,43.873499 -14.11914,49.667969 -0.59876,4.84073 -67.305015,0.67537 -53.281255,70.98242 -1.45118,41.26229 29.512421,72.24267 23.673828,74.57813 -5.838619,2.33541 -18.930077,35.25186 13.664067,86.40039 24.84288,38.98481 42.18847,78.40682 73.18359,75.125 l 61.10351,-12.85157 c 2.35322,-3.85389 4.62444,-7.08756 6.8379,-9.85156 20.78405,-1.93846 22.07917,101.20388 4.98828,128.11133 -27.60346,43.45817 90.42322,30.98673 69.9082,4.81055 -13.5482,-43.73993 -15.77552,-35.74659 -10.86719,-74.22657 2.48957,-19.51728 18.61704,-40.03767 33.99805,-56.20117 29.73693,7.02879 136.37297,6.39338 149.62305,-27.77343 9.51197,-24.52765 21.54882,-28.21876 21.54882,-37.56055 0,-9.34174 11.1068,-21.57938 -2.34765,-62.0586 -6.49668,-19.54593 25.33119,-104.01235 -0.30078,-119.18359 -28.05524,-18.31103 -26.34375,-34.18359 -26.34375,-34.18359 0,0 14.61446,-16.797915 2.17187,-41.505862 -5.10559,-10.13847 -61.76033,-34.708003 -85.31836,-37.164063 -1.41743,-0.147611 -3.08868,-0.196956 -4.97265,-0.164063 z m -45.24414,30.550782 c 6.14457,0.09926 13.18221,1.35131 21.99023,4.066406 16.88213,5.98383 22.03712,24.726993 17.99414,43.90625 -5.39595,25.59837 -21.49376,33.97785 -24.875,35.33789 -8.28637,3.33344 -16.29687,-2.74414 -16.29687,-2.74414 0,0 -7.65084,5.09442 -15.78125,2.91602 -2.41939,-0.64737 -16.07107,-8.42359 -21.95899,-31.90821 -5.31063,-21.18272 -2.4109,-34.784314 7.37695,-41.685544 11.34199,-6.063608 19.82024,-10.078161 31.55079,-9.888672 z m 21.14843,18.599609 c -2.32984,-0.0129 -3.52924,2.653622 -1.23437,12.732422 2.44786,10.750935 9.7499,6.093255 9.77734,-3.603516 0.007,-6.09293 -5.42773,-8.720165 -8.0625,-9.091797 -0.16466,-0.0233 -0.32515,-0.03621 -0.48047,-0.03711 z m -174.01575,8.62709 c 6.53411,-0.11767 14.03579,1.10448 23.64453,4.06641 16.88213,5.983827 22.03712,24.725027 17.99414,43.904287 -5.39595,25.59837 -21.49181,33.97785 -24.87305,35.33789 -8.28637,3.33344 -16.29687,-2.74414 -16.29687,-2.74414 0,0 -7.65279,5.09442 -15.7832,2.91602 -2.41939,-0.64737 -16.07107,-8.42358 -21.95899,-31.9082 -5.31063,-21.18273 -2.4109,-34.78432 7.37695,-41.68555 10.80189,-5.774857 19.0063,-9.690607 29.89649,-9.886717 z m 22.80469,18.599607 c 0,2.32988 -3.5312,2.65167 -1.23633,12.73047 2.44786,10.75094 9.75186,6.09325 9.7793,-3.60352 0.007,-6.09293 -5.42773,-8.72017 -8.0625,-9.09179 -0.16466,-0.0233 -0.32515,-0.0343 -0.48047,-0.0352 z m 233.68921,67.5131 c 6.53411,-0.11767 14.03579,1.10448 23.64453,4.06641 16.88213,5.98383 22.03712,24.72503 17.99414,43.90429 -5.39595,25.59837 -21.49181,33.97785 -24.87305,35.33789 -8.28637,3.33344 -16.29687,-2.74414 -16.29687,-2.74414 0,0 -7.65279,5.09442 -15.7832,2.91602 -2.41939,-0.64737 -16.07107,-8.42358 -21.95899,-31.9082 -5.31063,-21.18273 -2.41088,-34.78432 7.37695,-41.68555 10.8019,-5.77486 19.0063,-9.69061 29.89649,-9.88672 z m 22.80469,18.59961 c -2.32984,-0.0129 -3.5312,2.65167 -1.23633,12.73047 2.44786,10.75094 9.75186,6.09325 9.7793,-3.60352 0.007,-6.09293 -5.42773,-8.72017 -8.0625,-9.09179 -0.16466,-0.0233 -0.48047,-0.19053 -0.48047,-0.0352 z m -294.65393,66.25825 c 6.53411,-0.11767 14.03579,1.10448 23.64453,4.06641 16.88213,5.98383 22.03712,24.72504 17.99414,43.90429 -5.39595,25.59837 -21.49181,33.97785 -24.87305,35.33789 -8.28637,3.33344 -16.29687,-2.74414 -16.29687,-2.74414 0,0 -7.65279,5.09442 -15.7832,2.91602 -2.41939,-0.64737 -16.07107,-8.42359 -21.95899,-31.9082 -5.31063,-21.18273 -2.4109,-34.78432 7.37695,-41.68555 10.80189,-5.77487 19.0063,-9.69061 29.89649,-9.88672 z m 136.52334,-32.47666 c 6.53411,-0.11767 14.03579,1.10448 23.64453,4.06641 16.88213,5.98383 22.03712,24.72504 17.99414,43.90429 -5.39595,25.59837 -21.49181,33.97785 -24.87305,35.33789 -8.28637,3.33344 -16.29687,-2.74414 -16.29687,-2.74414 0,0 -7.65279,5.09442 -15.7832,2.91602 -2.41939,-0.64737 -16.07107,-8.42359 -21.95899,-31.9082 -5.31063,-21.18273 -2.41089,-34.78432 7.37695,-41.68555 10.80189,-5.77487 19.0063,-9.69061 29.89649,-9.88672 z M 203.2793,280.44922 c -2.32984,-0.0129 -3.5312,2.65167 -1.23633,12.73047 2.44786,10.75093 9.75186,6.09324 9.7793,-3.60352 0.007,-6.09293 -5.42773,-8.72019 -8.0625,-9.09179 -0.16466,-0.0233 -0.32515,-0.0343 -0.48047,-0.0352 z m 136.52334,-32.47666 c -2.32984,-0.0129 -3.5312,2.65167 -1.23633,12.73047 2.44786,10.75093 9.75186,6.09324 9.7793,-3.60352 0.007,-6.09293 -5.42773,-8.72016 -8.0625,-9.09179 -0.16466,-0.0233 -0.48047,-0.19052 -0.48047,-0.0352 z m -49.35928,116.5333 c 2.17066,0.0247 4.68598,0.63847 7.95898,2.10352 -10.21791,38.66151 -19.74668,71.79063 -27.04882,28.47851 -1.59811,-9.47916 -3.34138,-16.56044 -5.16602,-21.72851 4.76647,-1.60159 9.56919,-2.96057 14.64453,-5.60157 3.51177,-1.82734 6.1267,-3.29147 9.61133,-3.25195 z m 25.03906,12.4375 c 3.85078,2.66481 8.29255,5.87 13.375,9.63867 -9.07434,5.66148 -16.05994,9.71509 -15.85351,8.20508 0.8794,-6.43293 1.63934,-11.82977 2.47851,-17.84375 z"
     id="path3756-4"
     inkscape:connector-curvature="0"
     sodipodi:nodetypes="csssccsscccscscsssccsccscscccscscscccscscccscssscccscscccscscccccscccccscsscscccscscsccccscccccscccccscccsc" />
</svg>
