<?xml version="1.0" encoding="UTF-8" standalone="no"?>
<!-- Created with Inkscape (http://www.inkscape.org/) -->

<svg
   xmlns:dc="http://purl.org/dc/elements/1.1/"
   xmlns:cc="http://creativecommons.org/ns#"
   xmlns:rdf="http://www.w3.org/1999/02/22-rdf-syntax-ns#"
   xmlns:svg="http://www.w3.org/2000/svg"
   xmlns="http://www.w3.org/2000/svg"
   xmlns:sodipodi="http://sodipodi.sourceforge.net/DTD/sodipodi-0.dtd"
   xmlns:inkscape="http://www.inkscape.org/namespaces/inkscape"
   version="1.0"
   width="580"
   height="580"
   id="svg2"
   sodipodi:version="0.32"
   inkscape:version="0.91 r"
   sodipodi:docname="residential.svg"
   inkscape:output_extension="org.inkscape.output.svg.inkscape">
  <metadata
     id="metadata10">
    <rdf:RDF>
      <cc:Work
         rdf:about="">
        <dc:format>image/svg+xml</dc:format>
        <dc:type
           rdf:resource="http://purl.org/dc/dcmitype/StillImage" />
        <cc:license
           rdf:resource="http://web.resource.org/cc/PublicDomain" />
        <dc:language>en</dc:language>
        <dc:title />
      </cc:Work>
    </rdf:RDF>
  </metadata>
  <sodipodi:namedview
     inkscape:window-height="1004"
     inkscape:window-width="1920"
     inkscape:pageshadow="2"
     inkscape:pageopacity="0.0"
     guidetolerance="10.0"
     gridtolerance="10.0"
     objecttolerance="10.0"
     borderopacity="1.0"
     bordercolor="#666666"
     pagecolor="#ffffff"
     id="base"
     showgrid="false"
     inkscape:zoom="0.5"
     inkscape:cx="230.40285"
     inkscape:cy="486.23408"
     inkscape:window-x="1680"
     inkscape:window-y="0"
     inkscape:current-layer="svg2"
     showguides="true"
     inkscape:guide-bbox="true"
     inkscape:window-maximized="1" />
  <defs
     id="defs4">
    <inkscape:perspective
       sodipodi:type="inkscape:persp3d"
       inkscape:vp_x="0 : 290 : 1"
       inkscape:vp_y="0 : 1000 : 0"
       inkscape:vp_z="580 : 290 : 1"
       inkscape:persp3d-origin="290 : 193.33333 : 1"
       id="perspective12" />
    <style
       type="text/css"
       id="style6">
   
    .fil0 {fill:#EF7900}
   
  </style>
    <inkscape:perspective
       id="perspective6807"
       inkscape:persp3d-origin="29.116032 : 19.410688 : 1"
       inkscape:vp_z="58.232063 : 29.116032 : 1"
       inkscape:vp_y="0 : 1000 : 0"
       inkscape:vp_x="0 : 29.116032 : 1"
       sodipodi:type="inkscape:persp3d" />
    <inkscape:perspective
       id="perspective6954"
       inkscape:persp3d-origin="290 : 193.33333 : 1"
       inkscape:vp_z="580 : 290 : 1"
       inkscape:vp_y="0 : 1000 : 0"
       inkscape:vp_x="0 : 290 : 1"
       sodipodi:type="inkscape:persp3d" />
    <inkscape:perspective
       id="perspective2541"
       inkscape:persp3d-origin="240 : 160 : 1"
       inkscape:vp_z="480 : 240 : 1"
       inkscape:vp_y="0 : 1000 : 0"
       inkscape:vp_x="0 : 240 : 1"
       sodipodi:type="inkscape:persp3d" />
    <inkscape:perspective
       id="perspective2750"
       inkscape:persp3d-origin="215 : 143.33333 : 1"
       inkscape:vp_z="430 : 215 : 1"
       inkscape:vp_y="0 : 1000 : 0"
       inkscape:vp_x="0 : 215 : 1"
       sodipodi:type="inkscape:persp3d" />
    <inkscape:perspective
       id="perspective2830"
       inkscape:persp3d-origin="0.5 : 0.33333333 : 1"
       inkscape:vp_z="1 : 0.5 : 1"
       inkscape:vp_y="0 : 1000 : 0"
       inkscape:vp_x="0 : 0.5 : 1"
       sodipodi:type="inkscape:persp3d" />
    <inkscape:perspective
       id="perspective3648"
       inkscape:persp3d-origin="0.5 : 0.33333333 : 1"
       inkscape:vp_z="1 : 0.5 : 1"
       inkscape:vp_y="0 : 1000 : 0"
       inkscape:vp_x="0 : 0.5 : 1"
       sodipodi:type="inkscape:persp3d" />
    <inkscape:perspective
       id="perspective3675"
       inkscape:persp3d-origin="0.5 : 0.33333333 : 1"
       inkscape:vp_z="1 : 0.5 : 1"
       inkscape:vp_y="0 : 1000 : 0"
       inkscape:vp_x="0 : 0.5 : 1"
       sodipodi:type="inkscape:persp3d" />
    <inkscape:perspective
       id="perspective3736"
       inkscape:persp3d-origin="0.5 : 0.33333333 : 1"
       inkscape:vp_z="1 : 0.5 : 1"
       inkscape:vp_y="0 : 1000 : 0"
       inkscape:vp_x="0 : 0.5 : 1"
       sodipodi:type="inkscape:persp3d" />
  </defs>
  <g
     id="g1327">
    <path
       d="M 66.275,1.768 C 24.94,1.768 1.704,23.139 1.704,66.804 L 1.704,516.927 C 1.704,557.771 22.598,579.156 63.896,579.156 L 515.92,579.156 C 557.227,579.156 578.149,558.84 578.149,516.927 L 578.149,66.804 C 578.149,24.203 557.227,1.768 514.627,1.768 C 514.624,1.768 66.133,1.625 66.275,1.768 z"
       style="fill:#111111;stroke:#eeeeee;stroke-width:3.40799999"
       id="path1329" />
  </g>
  <path
     style="fill:#ffffff"
     d="m 196.36132,180.31491 -13.97852,0.0879 76.90039,135.13281 9.94727,-7.27344 -72.86914,-127.94726 z M 171.2539,299.89303 a 34.791199,34.791199 0 0 0 -34.79101,34.79102 34.791199,34.791199 0 0 0 34.79101,34.79102 34.791199,34.791199 0 0 0 34.79101,-34.79102 34.791199,34.791199 0 0 0 -34.79101,-34.79102 z m 116.37695,8.125 c -4.11523,0.0349 -8.24005,1.4382 -11.65233,4.27539 l -78.34767,55.7793 c -11.39259,9.59605 -13.45178,31.24217 -3.94336,42.63477 l 56.61328,56.65625 c 0,0 15.42366,20.11264 40.83789,1.79687 l 72.12305,-50.91601 56.48242,0.0879 c 13.18911,0 23.79297,-10.60386 23.79297,-23.79297 0,-13.10148 -10.60386,-23.79297 -23.79297,-23.79297 l -67.69922,-0.0879 c -5.38958,0 -10.0784,2.32313 -14.19726,5.30273 L 285.4414,412.811 249.42382,377.18796 299.59569,340.4692 c 7.79953,-6.52882 8.80728,-18.14187 2.32227,-25.9414 -3.72177,-4.33795 -8.9961,-6.55464 -14.28711,-6.50977 z m 6.57423,44.15039 -9.85742,7.18555 18.7539,33.03906 9.85741,-7.36132 -18.75389,-32.86329 z m 74.09179,76.47071 c -0.6773,0.0234 -1.35882,0.23765 -1.96679,0.64844 l -47.23633,34.30859 c -1.57743,1.18308 -1.88451,3.41755 -0.78907,4.95117 l 6.39844,8.89453 c 1.18307,1.57743 3.41756,1.8845 4.95117,0.78906 l 47.23633,-34.30859 c 1.57743,-1.18308 1.88254,-3.41756 0.7871,-4.95117 l -6.39647,-8.89648 c -0.73942,-0.98591 -1.85557,-1.47449 -2.98438,-1.43555 z"
     id="circle1803"
     inkscape:connector-curvature="0" />
  <path
     style="fill:#ffffff;fill-opacity:1;stroke:none;opacity:0.605"
     d="M 167.19141 131.00391 L 73.695312 195.42578 L 73.695312 517.5332 L 260.6875 517.5332 L 260.6875 509.76953 C 256.38679 509.22549 252.37824 508.24892 248.83008 506.86719 C 237.18804 502.33351 229.2912 494.78509 225.64648 490.79688 L 226.20898 491.4375 L 204.00586 469.2168 L 192.69141 469.2168 L 192.69141 457.89453 L 169.5957 434.78125 A 34.062183 34.062183 0 0 1 167.53906 432.53125 C 159.24207 422.59014 155.35395 411.7205 154.09375 400.98438 C 149.81441 399.74916 145.66389 398.06997 141.69336 396.01953 L 141.69336 404.79492 L 107.69336 404.79492 L 107.69336 372.58398 L 114.92383 372.58398 C 107.12041 361.48907 102.40436 348.33101 102.4043 334.68359 C 102.40434 326.0192 104.31413 317.5486 107.69336 309.66992 L 107.69336 308.16406 L 108.35547 308.16406 C 114.38379 294.98258 124.57077 283.58992 136.94727 275.95312 L 107.69336 275.95312 L 107.69336 243.74219 L 141.69336 243.74219 L 141.69336 273.26758 C 150.81329 268.55348 160.89671 265.83404 171.25391 265.83398 C 178.63112 265.83403 185.84333 267.28502 192.69141 269.78906 L 192.69141 267.38086 L 152.78125 197.24805 A 34.062183 34.062183 0 0 1 151.8418 195.42578 L 141.69336 195.42578 L 141.69336 180.93164 L 148.63867 176.10547 A 34.062183 34.062183 0 0 1 182.16797 146.34375 L 189.38867 146.29883 L 167.19141 131.00391 z M 233.49023 176.68555 L 260.6875 224.44141 L 260.6875 195.42578 L 233.49023 176.68555 z M 107.69336 437.00586 L 141.69336 437.00586 L 141.69336 469.2168 L 107.69336 469.2168 L 107.69336 437.00586 z "
     id="path3" />
  <path
     style="fill:#ffffff;fill-opacity:1;stroke:none;opacity:0.605"
     d="M 348.83008 52.466797 L 348.83008 336.72461 C 349.87961 336.648 350.94731 336.59961 352.04492 336.59961 A 34.062183 34.062183 0 0 1 352.08984 336.59961 L 377.48828 336.63281 L 377.48828 330.1543 L 406.10547 330.1543 L 406.10547 336.66992 L 419.74414 336.6875 C 430.37975 336.6875 440.40343 339.68595 449.03125 344.85156 L 449.03125 330.1543 L 477.64844 330.1543 L 477.64844 358.97461 L 465.08789 358.97461 C 471.55488 367.15915 475.88281 377.06682 477.17578 387.79688 L 477.64844 387.79688 L 477.64844 416.61719 L 473.07031 416.61719 C 464.22322 437.42681 443.41259 452.39062 419.74414 452.39062 A 34.062183 34.062183 0 0 1 419.69141 452.39062 L 410.55664 452.37695 C 409.5126 455.67595 408.02617 458.8473 406.10547 461.78906 L 406.10547 474.30078 L 393.02148 474.30078 L 349.66992 505.78711 A 34.062183 34.062183 0 0 1 349.45117 505.94531 C 349.24594 506.09191 349.03715 506.22728 348.83008 506.36914 L 348.83008 517.5332 L 506.30469 517.5332 L 506.30469 52.466797 L 348.83008 52.466797 z M 377.48828 98.701172 L 406.10547 98.701172 L 406.10547 127.52344 L 377.48828 127.52344 L 377.48828 98.701172 z M 449.18945 98.701172 L 477.80664 98.701172 L 477.80664 127.52344 L 449.18945 127.52344 L 449.18945 98.701172 z M 377.48828 156.34375 L 406.10547 156.34375 L 406.10547 185.16602 L 377.48828 185.16602 L 377.48828 156.34375 z M 449.18945 156.34375 L 477.80664 156.34375 L 477.80664 185.16602 L 449.18945 185.16602 L 449.18945 156.34375 z M 377.48828 213.98633 L 406.10547 213.98633 L 406.10547 242.80859 L 377.48828 242.80859 L 377.48828 213.98633 z M 449.18945 213.98633 L 477.80664 213.98633 L 477.80664 242.80859 L 449.18945 242.80859 L 449.18945 213.98633 z M 377.48828 272.50977 L 406.10547 272.50977 L 406.10547 301.33203 L 377.48828 301.33203 L 377.48828 272.50977 z M 449.03125 272.50977 L 477.64844 272.50977 L 477.64844 301.33203 L 449.03125 301.33203 L 449.03125 272.50977 z M 449.03125 445.48047 L 477.64844 445.48047 L 477.64844 474.30078 L 449.03125 474.30078 L 449.03125 445.48047 z "
     id="path3-3" />
</svg>
