<svg width="12" height="12" viewBox="0 0 12 12" fill="none" xmlns="http://www.w3.org/2000/svg">
<path fill-rule="evenodd" clip-rule="evenodd" d="M7.08535 11C7.29127 11.5826 7.84689 12 8.5 12C9.32843 12 10 11.3284 10 10.5V4.70711C10 3.98914 9.71479 3.30057 9.20711 2.79289C8.69943 2.28521 8.01086 2 7.29289 2H4.70711C3.98914 2 3.30057 2.28521 2.79289 2.79289C2.28521 3.30057 2 3.98914 2 4.70711V10.5C2 11.3284 2.67157 12 3.5 12C4.15311 12 4.70873 11.5826 4.91465 11H7.08535Z" fill="white"/>
<path fill-rule="evenodd" clip-rule="evenodd" d="M4.70711 3C4.25435 3 3.82014 3.17986 3.5 3.5C3.17986 3.82014 3 4.25435 3 4.70711V10.5C3 10.7761 3.22386 11 3.5 11C3.77614 11 4 10.7761 4 10.5V10H8V10.5C8 10.7761 8.22386 11 8.5 11C8.77614 11 9 10.7761 9 10.5V4.70711C9 4.25435 8.82014 3.82014 8.5 3.5C8.17986 3.17986 7.74565 3 7.29289 3H4.70711ZM8 5H4V7H8V5ZM4.5 9C4.77614 9 5 8.77614 5 8.5C5 8.22386 4.77614 8 4.5 8C4.22386 8 4 8.22386 4 8.5C4 8.77614 4.22386 9 4.5 9ZM8 8.5C8 8.77614 7.77614 9 7.5 9C7.22386 9 7 8.77614 7 8.5C7 8.22386 7.22386 8 7.5 8C7.77614 8 8 8.22386 8 8.5Z" fill="#0092DA"/>
</svg>
