<svg width="12" height="12" viewBox="0 0 12 12" fill="none" xmlns="http://www.w3.org/2000/svg">
<path d="M0 6C0 2.68629 2.68629 0 6 0C9.31371 0 12 2.68629 12 6V10C12 11.1046 11.1046 12 10 12H2C0.895431 12 0 11.1046 0 10V6Z" fill="white"/>
<path fill-rule="evenodd" clip-rule="evenodd" d="M11 10V6C11 3.23858 8.76142 1 6 1C3.23858 1 1 3.23858 1 6V10C1 10.5523 1.44772 11 2 11H10C10.5523 11 11 10.5523 11 10ZM6 0C2.68629 0 0 2.68629 0 6V10C0 11.1046 0.895431 12 2 12H10C11.1046 12 12 11.1046 12 10V6C12 2.68629 9.31371 0 6 0Z" fill="#0092DE"/>
<path fill-rule="evenodd" clip-rule="evenodd" d="M4.28033 2C3.94077 2 3.61511 2.13489 3.375 2.375C3.13489 2.61511 3 2.94077 3 3.28033V8C3 8.55228 3.44772 9 4 9H8C8.55228 9 9 8.55228 9 8V3.28033C9 2.94077 8.86511 2.61511 8.625 2.375C8.38489 2.13489 8.05923 2 7.71967 2H4.28033ZM8 4H4V6H8V4ZM4.5 8C4.77614 8 5 7.77614 5 7.5C5 7.22386 4.77614 7 4.5 7C4.22386 7 4 7.22386 4 7.5C4 7.77614 4.22386 8 4.5 8ZM8 7.5C8 7.77614 7.77614 8 7.5 8C7.22386 8 7 7.77614 7 7.5C7 7.22386 7.22386 7 7.5 7C7.77614 7 8 7.22386 8 7.5Z" fill="#0092DA"/>
<path opacity="0.5" d="M4 8.5H5L4.4 10H7.6L7 8.5H8L9 11H3L4 8.5Z" fill="#0092DA"/>
</svg>
