<svg width="24" height="24" viewBox="0 0 24 24" fill="none" xmlns="http://www.w3.org/2000/svg">
<path d="M1 12C1 5.92487 5.92487 1 12 1C18.0751 1 23 5.92487 23 12V22C23 22.5523 22.5523 23 22 23H2C1.44771 23 1 22.5523 1 22V12Z" fill="white" stroke="#0092DE" stroke-width="2"/>
<path fill-rule="evenodd" clip-rule="evenodd" d="M8.56066 4C7.88153 4 7.23022 4.26978 6.75 4.75C6.26978 5.23022 6 5.88153 6 6.56066V7V16C6 17.1046 6.89543 18 8 18H16C17.1046 18 18 17.1046 18 16V7V6.56066C18 5.88153 17.7302 5.23022 17.25 4.75C16.7698 4.26978 16.1185 4 15.4393 4H8.56066ZM16 8H8V12H16V8ZM9 16C9.55228 16 10 15.5523 10 15C10 14.4477 9.55228 14 9 14C8.44772 14 8 14.4477 8 15C8 15.5523 8.44772 16 9 16ZM16 15C16 15.5523 15.5523 16 15 16C14.4477 16 14 15.5523 14 15C14 14.4477 14.4477 14 15 14C15.5523 14 16 14.4477 16 15Z" fill="#0092DA"/>
<path opacity="0.5" fill-rule="evenodd" clip-rule="evenodd" d="M8 17H10L8.8 20H15.2L14 17H16L18 22H16H8H6L8 17Z" fill="#0092DA"/>
</svg>
