<?xml version="1.0" encoding="UTF-8" standalone="no"?>
<!-- Generator: Adobe Illustrator 16.0.4, SVG Export Plug-In . SVG Version: 6.00 Build 0)  -->

<svg
   xmlns:dc="http://purl.org/dc/elements/1.1/"
   xmlns:cc="http://creativecommons.org/ns#"
   xmlns:rdf="http://www.w3.org/1999/02/22-rdf-syntax-ns#"
   xmlns:svg="http://www.w3.org/2000/svg"
   xmlns="http://www.w3.org/2000/svg"
   xmlns:sodipodi="http://sodipodi.sourceforge.net/DTD/sodipodi-0.dtd"
   xmlns:inkscape="http://www.inkscape.org/namespaces/inkscape"
   version="1.1"
   id="Слой_1"
   x="0px"
   y="0px"
   width="32"
   height="32"
   viewBox="414.204 291.25 32 32"
   enable-background="new 414.204 291.25 10 10"
   xml:space="preserve"
   inkscape:version="0.48.4 r9939"
   sodipodi:docname="h_bare_rock.svg"><metadata
     id="metadata17"><rdf:RDF><cc:Work
         rdf:about=""><dc:format>image/svg+xml</dc:format><dc:type
           rdf:resource="http://purl.org/dc/dcmitype/StillImage" /><dc:title /></cc:Work></rdf:RDF></metadata><defs
     id="defs15" /><sodipodi:namedview
     pagecolor="#ffffff"
     bordercolor="#666666"
     borderopacity="1"
     objecttolerance="10"
     gridtolerance="10"
     guidetolerance="10"
     inkscape:pageopacity="0"
     inkscape:pageshadow="2"
     inkscape:window-width="1920"
     inkscape:window-height="1004"
     id="namedview13"
     showgrid="false"
     inkscape:zoom="16.000001"
     inkscape:cx="20.264181"
     inkscape:cy="17.434004"
     inkscape:window-x="1680"
     inkscape:window-y="0"
     inkscape:window-maximized="1"
     inkscape:current-layer="Слой_1"><inkscape:grid
       type="xygrid"
       id="grid3047"
       empspacing="5"
       visible="true"
       enabled="true"
       snapvisiblegridlinesonly="true" /></sodipodi:namedview><path
     style="fill:#c4c4c4;fill-opacity:1;stroke:none"
     d="m 420.06236,318.90946 c 0,0 -0.0697,0.1033 -0.20407,0.20958 -0.0479,0.038 -0.35972,-0.12168 -0.41979,-0.0856 -0.0657,0.0395 0.12031,0.27463 0.0695,0.31501 -0.28875,0.22949 -0.49714,0.39114 -0.54875,0.3666 -0.041,-0.0195 -0.95583,0.14708 -0.95583,0.14708 l -0.24957,-0.63251 0.1821,-0.34971 0.35516,-0.58876 0.26304,0.56876 -0.0232,-0.70872 0.68419,-0.20447 0.47631,-0.004 0.28295,0.25316 z"
     id="path3011-9-8"
     inkscape:connector-curvature="0"
     sodipodi:nodetypes="csssscccccccccc" /><path
     style="fill:none;stroke:#c2c2c2;stroke-width:1.266;stroke-linecap:butt;stroke-linejoin:miter;stroke-opacity:1;stroke-miterlimit:4;stroke-dasharray:none"
     d="m 416.94294,313.35064 3.12014,-9.06603 4.88625,0.35321 3.59108,-6.06364 7.3588,-4.65075"
     id="path3035"
     inkscape:connector-curvature="0" /><path
     style="fill:none;stroke:#c2c2c2;stroke-width:1.266;stroke-linecap:butt;stroke-linejoin:miter;stroke-opacity:1;stroke-miterlimit:4;stroke-dasharray:none"
     d="m 423.5595,323.59409 0.66604,-7.32647 8.90676,-5.56615 7.12332,-11.53858 5.94589,-5.06286"
     id="path3037"
     inkscape:connector-curvature="0"
     sodipodi:nodetypes="ccccc" /><path
     style="fill:none;stroke:#c2c2c2;stroke-width:1.266;stroke-linecap:butt;stroke-linejoin:miter;stroke-opacity:1;stroke-miterlimit:4;stroke-dasharray:none"
     d="m 414.00239,294.35633 1.17444,-2.66998 0,0"
     id="path3039"
     inkscape:connector-curvature="0"
     sodipodi:nodetypes="ccc" /><path
     style="fill:none;stroke:#c2c2c2;stroke-width:1.266;stroke-linecap:butt;stroke-linejoin:miter;stroke-opacity:1;stroke-miterlimit:4;stroke-dasharray:none"
     d="m 431.83714,323.94732 3.70884,-8.24187 2.29595,1.64839 4.47414,-9.18379 4.70964,1.76612"
     id="path3041"
     inkscape:connector-curvature="0"
     sodipodi:nodetypes="ccccc" /><path
     style="fill:none;stroke:#c2c2c2;stroke-width:1.266;stroke-linecap:butt;stroke-linejoin:miter;stroke-opacity:1;stroke-miterlimit:4;stroke-dasharray:none"
     d="m 413.88168,309.87729 2.41369,-8.65393 2.41368,-1.825"
     id="path3043"
     inkscape:connector-curvature="0"
     sodipodi:nodetypes="ccc" /><path
     style="fill:none;stroke:#c2c2c2;stroke-width:1.266;stroke-linecap:butt;stroke-linejoin:miter;stroke-opacity:1;stroke-miterlimit:4;stroke-dasharray:none"
     d="m 432.21805,290.95801 -2.61798,3.73073"
     id="path3045"
     inkscape:connector-curvature="0"
     sodipodi:nodetypes="cc" /><path
     style="fill:none;stroke:#c2c2c2;stroke-width:1.266;stroke-linecap:butt;stroke-linejoin:miter;stroke-opacity:1;stroke-miterlimit:4;stroke-dasharray:none"
     d="m 423.5595,291.62406 -4.6623,2.66417"
     id="path3000"
     inkscape:connector-curvature="0" /><path
     style="fill:#c4c4c4;fill-opacity:1;stroke:none"
     d="m 444.78202,306.74988 -0.50197,0.34521 -0.64026,-0.0591 c 0,0 -0.016,-0.40066 -0.0337,-0.41213 -0.0241,-0.0156 -0.17299,0.37505 -0.17299,0.37505 -0.0823,-0.37831 -0.1961,-0.34398 -0.15455,-0.75581 l 0.18104,-0.22024 0.42424,-0.13812 0.28941,-0.32639 0.27049,0.60877 -0.10753,-0.64792 0.47656,-0.0641 0.16483,0.47922 -0.13643,0.3159 z"
     id="path3011-9-9"
     inkscape:connector-curvature="0"
     sodipodi:nodetypes="cccsccccccccccc" /><path
     style="fill:none;stroke:#c2c2c2;stroke-width:1.266;stroke-linecap:butt;stroke-linejoin:miter;stroke-opacity:1;stroke-miterlimit:4;stroke-dasharray:none"
     d="m 434.98629,307.67152 -6.18171,1.14476 -3.74649,-0.58279 -2.24788,2.33115"
     id="path3034"
     inkscape:connector-curvature="0"
     sodipodi:nodetypes="cccc" /><path
     style="color:#000000;fill:none;stroke:#c2c2c2;stroke-width:1.266;stroke-linecap:butt;stroke-linejoin:miter;stroke-miterlimit:4;stroke-opacity:1;stroke-dasharray:none;stroke-dashoffset:0;marker:none;visibility:visible;display:inline;overflow:visible;enable-background:accumulate"
     d="m 430.65975,297.33791 4.70963,1.11853 7.47653,-1.70724"
     id="path3859"
     inkscape:connector-curvature="0" /><path
     style="color:#000000;fill:none;stroke:#c2c2c2;stroke-width:1.266;stroke-linecap:butt;stroke-linejoin:miter;stroke-miterlimit:4;stroke-opacity:1;stroke-dasharray:none;stroke-dashoffset:0;marker:none;visibility:visible;display:inline;overflow:visible;enable-background:accumulate"
     d="m 414.94136,305.75637 1.76611,1.17741 2.5903,-0.58872"
     id="path3878"
     inkscape:connector-curvature="0" /><path
     style="color:#000000;fill:none;stroke:#c2c2c2;stroke-width:1.266;stroke-linecap:butt;stroke-linejoin:miter;stroke-miterlimit:4;stroke-opacity:1;stroke-dasharray:none;stroke-dashoffset:0;marker:none;visibility:visible;display:inline;overflow:visible;enable-background:accumulate"
     d="m 423.97578,321.09643 3.41346,-1.66511 1.24884,1.91487 6.20547,-4.0013"
     id="path3886"
     inkscape:connector-curvature="0"
     sodipodi:nodetypes="cccc" /><path
     style="fill:none;stroke:#c2c2c2;stroke-width:1.266;stroke-linecap:butt;stroke-linejoin:miter;stroke-opacity:1;stroke-miterlimit:4;stroke-dasharray:none"
     d="m 443.37425,316.51738 -3.24695,5.82788"
     id="path3000-3"
     inkscape:connector-curvature="0"
     sodipodi:nodetypes="cc" /><path
     style="fill:#c4c4c4;fill-opacity:1;stroke:none"
     d="m 422.93914,302.938 0.35495,0.1873 0.16132,0.39166 c 0,0 -0.22888,0.13189 -0.23019,0.14567 -0.002,0.0189 0.27174,-0.0138 0.27174,-0.0138 -0.19554,0.16377 -0.14073,0.21962 -0.39374,0.32131 l -0.18387,-0.0383 -0.21035,-0.20529 -0.27897,-0.069 0.27248,-0.34403 -0.34516,0.26092 -0.18298,-0.25857 0.22923,-0.24271 0.22603,-0.0169 z"
     id="path3011-9-9-1"
     inkscape:connector-curvature="0"
     sodipodi:nodetypes="cccsccccccccccc" /><path
     style="fill:#c4c4c4;fill-opacity:1;stroke:none"
     d="m 421.88307,310.94629 c 0,0 -0.0698,0.1033 -0.20408,0.20958 -0.0478,0.038 -0.35971,-0.12168 -0.41977,-0.0856 -0.0657,0.0396 0.12031,0.27463 0.0695,0.31501 -0.28873,0.22949 -0.49712,0.39115 -0.54873,0.3666 -0.0411,-0.0195 -0.95583,0.14709 -0.95583,0.14709 l -0.24959,-0.63251 0.1821,-0.34972 0.35516,-0.58875 0.26305,0.56875 -0.0232,-0.70871 0.68421,-0.20447 0.47631,-0.004 0.28294,0.25316 z"
     id="path3011-9-8-6"
     inkscape:connector-curvature="0"
     sodipodi:nodetypes="csssscccccccccc" /><path
     style="fill:#c4c4c4;fill-opacity:1;stroke:none"
     d="m 434.8709,319.27182 c 0,0 -0.0697,0.10329 -0.20408,0.20957 -0.0478,0.038 -0.35971,-0.12167 -0.41978,-0.0856 -0.0658,0.0396 0.12032,0.27463 0.0694,0.31502 -0.28875,0.22948 -0.49712,0.39114 -0.54874,0.36658 -0.041,-0.0195 -0.95583,0.14709 -0.95583,0.14709 l -0.24958,-0.63251 0.18209,-0.3497 0.35517,-0.58876 0.26304,0.56876 -0.0232,-0.70872 0.6842,-0.20447 0.47631,-0.004 0.28295,0.25316 z"
     id="path3011-9-8-4"
     inkscape:connector-curvature="0"
     sodipodi:nodetypes="csssscccccccccc" /></svg>