<svg width="32" height="32" viewBox="0 0 32 32" fill="none" xmlns="http://www.w3.org/2000/svg">
<path opacity="0.804" d="M3.79034 29.0949L12.7545 29.1323C12.7545 29.1323 12.6669 26.9435 11.0836 26.9329C9.50045 26.9223 6.57854 26.9152 5.44003 26.9269C4.30152 26.9378 3.83246 27.7952 3.79034 29.0955V29.0949Z" fill="#67BF4C"/>
<path opacity="0.804" d="M19.8889 14.2197L28.853 14.2571C28.853 14.2571 28.7653 12.0684 27.1821 12.0577C25.5989 12.0471 22.6771 12.04 21.5385 12.0507C20.4 12.0617 19.931 12.9189 19.8889 14.2193V14.2197Z" fill="#67BF4C"/>
<path opacity="0.804" d="M7.61993 26.0677V21.7373H5.56085V20.3246H7.61993V18.3112L9.21063 18.3071V20.3241H11.3183L11.3461 21.7368H9.21063V26.0672L7.61993 26.0677Z" fill="#67BF4C"/>
<path opacity="0.804" d="M23.5984 11.1926V6.86221H21.5394V5.44946H23.5984V3.436L25.1892 3.43201V5.44894H27.2968L27.3246 6.86169H25.1891V11.1921L23.5984 11.1926Z" fill="#67BF4C"/>
</svg>
