<?xml version="1.0" encoding="UTF-8" standalone="no"?>
<!-- Generator: Adobe Illustrator 16.0.4, SVG Export Plug-In . SVG Version: 6.00 Build 0)  -->

<svg
   xmlns:dc="http://purl.org/dc/elements/1.1/"
   xmlns:cc="http://creativecommons.org/ns#"
   xmlns:rdf="http://www.w3.org/1999/02/22-rdf-syntax-ns#"
   xmlns:svg="http://www.w3.org/2000/svg"
   xmlns="http://www.w3.org/2000/svg"
   xmlns:sodipodi="http://sodipodi.sourceforge.net/DTD/sodipodi-0.dtd"
   xmlns:inkscape="http://www.inkscape.org/namespaces/inkscape"
   version="1.1"
   id="Слой_1"
   x="0px"
   y="0px"
   width="32"
   height="32"
   viewBox="411.147 287.452 32 32"
   enable-background="new 411.147 287.452 16 16"
   xml:space="preserve"
   inkscape:version="0.91 r13725"
   sodipodi:docname="h_cemetery_jewish_2.svg"><metadata
     id="metadata13"><rdf:RDF><cc:Work
         rdf:about=""><dc:format>image/svg+xml</dc:format><dc:type
           rdf:resource="http://purl.org/dc/dcmitype/StillImage" /><dc:title /></cc:Work></rdf:RDF></metadata><defs
     id="defs11" /><sodipodi:namedview
     pagecolor="#ffffff"
     bordercolor="#666666"
     borderopacity="1"
     objecttolerance="10"
     gridtolerance="10"
     guidetolerance="10"
     inkscape:pageopacity="0"
     inkscape:pageshadow="2"
     inkscape:window-width="1920"
     inkscape:window-height="1006"
     id="namedview9"
     showgrid="false"
     inkscape:zoom="11.313709"
     inkscape:cx="14.081161"
     inkscape:cy="18.845894"
     inkscape:window-x="1920"
     inkscape:window-y="0"
     inkscape:window-maximized="1"
     inkscape:current-layer="Слой_1"><inkscape:grid
       type="xygrid"
       id="grid3762"
       empspacing="5"
       visible="true"
       enabled="true"
       snapvisiblegridlinesonly="true" /></sodipodi:namedview><path
     style="fill:#67bf4c;fill-opacity:1;stroke:none;color:#000000;fill-rule:nonzero;marker:none;visibility:visible;display:inline;overflow:visible;enable-background:accumulate;clip-rule:nonzero;opacity:0.80400002;isolation:auto;mix-blend-mode:normal;color-interpolation:sRGB;color-interpolation-filters:linearRGB;solid-color:#000000;solid-opacity:1;stroke-width:1;stroke-linecap:butt;stroke-linejoin:miter;stroke-miterlimit:4;stroke-dasharray:none;stroke-dashoffset:0;stroke-opacity:1;filter-blend-mode:normal;filter-gaussianBlur-deviation:0;color-rendering:auto;image-rendering:auto;shape-rendering:auto;text-rendering:auto"
     d="m 414.94731,316.53921 8.98728,0.0375 c 0,0 -0.0879,-2.19439 -1.67519,-2.20506 -1.58726,-0.0106 -4.51669,-0.0177 -5.65814,-0.006 -1.14145,0.011 -1.61173,0.87051 -1.65395,2.1742 z"
     id="path2990"
     inkscape:connector-curvature="0"
     sodipodi:nodetypes="cczccc" /><path
     style="color:#000000;clip-rule:nonzero;display:inline;overflow:visible;visibility:visible;opacity:0.80400002;isolation:auto;mix-blend-mode:normal;color-interpolation:sRGB;color-interpolation-filters:linearRGB;solid-color:#000000;solid-opacity:1;fill:#67bf4c;fill-opacity:1;fill-rule:nonzero;stroke:none;stroke-width:1;stroke-linecap:butt;stroke-linejoin:miter;stroke-miterlimit:4;stroke-dasharray:none;stroke-dashoffset:0;stroke-opacity:1;marker:none;color-rendering:auto;image-rendering:auto;shape-rendering:auto;text-rendering:auto;enable-background:accumulate"
     d="m 430.73291,301.71263 8.98727,0.0375 c 0,0 -0.0879,-2.19439 -1.67519,-2.20506 -1.58726,-0.0106 -4.51669,-0.0177 -5.65814,-0.007 -1.14145,0.0111 -1.61173,0.8705 -1.65394,2.17421 z"
     id="path2990-0"
     inkscape:connector-curvature="0"
     sodipodi:nodetypes="cczccc" /><path
     inkscape:connector-curvature="0"
     style="color:#000000;fill:#67bf4c;fill-opacity:1;fill-rule:nonzero;stroke:none;marker:none;visibility:visible;display:inline;overflow:visible;enable-background:accumulate;clip-rule:nonzero;opacity:0.80400002;isolation:auto;mix-blend-mode:normal;color-interpolation:sRGB;color-interpolation-filters:linearRGB;solid-color:#000000;solid-opacity:1;stroke-width:1;stroke-linecap:butt;stroke-linejoin:miter;stroke-miterlimit:4;stroke-dasharray:none;stroke-dashoffset:0;stroke-opacity:1;filter-blend-mode:normal;filter-gaussianBlur-deviation:0;color-rendering:auto;image-rendering:auto;shape-rendering:auto;text-rendering:auto"
     d="m 418.7818,312.37157 -0.59638,-1.03474 -1.17335,-5.2e-4 c -0.73124,-2.6e-4 -1.1883,-0.0247 -1.21302,-0.0647 -0.0218,-0.0353 0.21976,-0.51526 0.53685,-1.06655 0.3932,-0.68361 0.56317,-1.03749 0.53449,-1.11287 -0.023,-0.0609 -0.2805,-0.52264 -0.57194,-1.02638 -0.29146,-0.50375 -0.52991,-0.94867 -0.52991,-0.98873 0,-0.0527 0.33339,-0.0729 1.20844,-0.073 l 1.20844,-8e-5 0.59472,-1.03572 c 0.3271,-0.56964 0.61473,-1.03572 0.63918,-1.03572 0.0671,0 0.23454,0.25972 0.77919,1.20845 l 0.49554,0.86317 1.20964,0 c 0.92734,0 1.20903,0.0183 1.20692,0.0784 -9e-4,0.0432 -0.26518,0.52958 -0.58593,1.08095 l -0.58318,1.00247 0.58592,1.01507 c 0.32226,0.55829 0.58594,1.04647 0.58594,1.08484 0,0.0487 -0.36435,0.0697 -1.20967,0.0697 l -1.20964,0 -0.49554,0.86317 c -0.54199,0.94407 -0.71234,1.20874 -0.77754,1.20792 -0.0235,-2.8e-4 -0.31118,-0.46618 -0.63917,-1.03527 z m 0.87424,-0.6197 c 0.10614,-0.18548 0.19294,-0.35497 0.19294,-0.37666 0,-0.0217 -0.18361,-0.0394 -0.40804,-0.0394 -0.22442,0 -0.40804,0.0178 -0.40804,0.0394 0,0.051 0.37887,0.71387 0.40804,0.71387 0.0122,0 0.109,-0.15175 0.2151,-0.33721 z m -2.08022,-1.48255 c -0.11357,-0.20676 -0.22062,-0.37592 -0.23787,-0.37592 -0.0172,0 -0.12432,0.16916 -0.23788,0.37592 l -0.20649,0.37591 0.44437,0 0.44434,0 -0.20647,-0.37591 z m 2.95335,-0.0478 c 0.13546,-0.23306 0.32606,-0.56755 0.42355,-0.74331 l 0.17726,-0.31956 -0.40667,-0.71625 -0.40667,-0.71624 -0.87291,0 -0.8729,0 -0.39673,0.68317 c -0.2182,0.37575 -0.39673,0.71294 -0.39673,0.74932 0,0.0651 0.65087,1.25483 0.77033,1.40814 0.0435,0.0558 0.30299,0.0785 0.89817,0.0785 l 0.83702,0 0.24628,-0.42373 z m 1.25265,0.0478 c -0.11356,-0.20676 -0.22061,-0.37592 -0.23787,-0.37592 -0.0172,0 -0.12431,0.16916 -0.23788,0.37592 l -0.20649,0.37591 0.44437,0 0.44435,0 -0.20648,-0.37591 z m -4.21014,-2.19896 0.20234,-0.37561 -0.44021,0 -0.44023,0 0.20649,0.37591 c 0.11356,0.20674 0.22061,0.37577 0.23788,0.3756 0.0172,-1.5e-4 0.12243,-0.16931 0.23373,-0.3759 z m 4.206,0 0.20234,-0.37561 -0.44022,0 -0.44022,0 0.20649,0.37591 c 0.11357,0.20674 0.22061,0.37577 0.23788,0.3756 0.0172,-1.5e-4 0.12244,-0.16931 0.23373,-0.3759 z m -1.9287,-1.1056 c 0,-0.051 -0.37885,-0.71387 -0.40804,-0.71387 -0.0292,0 -0.40804,0.66283 -0.40804,0.71387 0,0.0217 0.18362,0.0394 0.40804,0.0394 0.22443,0 0.40804,-0.0179 0.40804,-0.0394 z"
     id="path6812"
     sodipodi:nodetypes="cccssssscccscccscccscccsccssssccscccccccccccccssccccsccccccccccsccccccsccsssc" /><path
     inkscape:connector-curvature="0"
     style="color:#000000;clip-rule:nonzero;display:inline;overflow:visible;visibility:visible;opacity:0.80400002;isolation:auto;mix-blend-mode:normal;color-interpolation:sRGB;color-interpolation-filters:linearRGB;solid-color:#000000;solid-opacity:1;fill:#67bf4c;fill-opacity:1;fill-rule:nonzero;stroke:none;stroke-width:1;stroke-linecap:butt;stroke-linejoin:miter;stroke-miterlimit:4;stroke-dasharray:none;stroke-dashoffset:0;stroke-opacity:1;marker:none;color-rendering:auto;image-rendering:auto;shape-rendering:auto;text-rendering:auto;enable-background:accumulate"
     d="m 434.5674,297.48798 -0.59638,-1.03475 -1.17335,-5.2e-4 c -0.73124,-2.5e-4 -1.1883,-0.0247 -1.21303,-0.0647 -0.0218,-0.0353 0.21977,-0.51526 0.53685,-1.06655 0.3932,-0.68361 0.56318,-1.03749 0.5345,-1.11287 -0.023,-0.0609 -0.2805,-0.52264 -0.57195,-1.02638 -0.29146,-0.50374 -0.52991,-0.94867 -0.52991,-0.98872 0,-0.0527 0.3334,-0.0729 1.20844,-0.073 l 1.20845,-8e-5 0.59472,-1.03572 c 0.32709,-0.56964 0.61472,-1.03572 0.63917,-1.03572 0.0671,0 0.23455,0.25972 0.77919,1.20845 l 0.49554,0.86317 1.20965,0 c 0.92734,0 1.20903,0.0183 1.20691,0.0784 -8.9e-4,0.0432 -0.26518,0.52958 -0.58593,1.08096 l -0.58317,1.00246 0.58592,1.01507 c 0.32226,0.5583 0.58594,1.04647 0.58594,1.08484 0,0.0487 -0.36436,0.0697 -1.20967,0.0697 l -1.20965,0 -0.49554,0.86318 c -0.54198,0.94406 -0.71234,1.20873 -0.77754,1.20791 -0.0235,-2.8e-4 -0.31117,-0.46618 -0.63916,-1.03527 z m 0.87423,-0.61971 c 0.10614,-0.18548 0.19295,-0.35497 0.19295,-0.37666 0,-0.0217 -0.18361,-0.0394 -0.40804,-0.0394 -0.22443,0 -0.40805,0.0178 -0.40805,0.0394 0,0.051 0.37887,0.71387 0.40805,0.71387 0.0122,0 0.109,-0.15175 0.21509,-0.33721 z m -2.08022,-1.48255 c -0.11357,-0.20675 -0.22061,-0.37592 -0.23787,-0.37592 -0.0172,0 -0.12431,0.16917 -0.23788,0.37592 l -0.20649,0.37591 0.44437,0 0.44434,0 -0.20647,-0.37591 z m 2.95336,-0.0478 c 0.13545,-0.23306 0.32606,-0.56755 0.42355,-0.74331 l 0.17725,-0.31956 -0.40667,-0.71625 -0.40666,-0.71624 -0.87291,0 -0.8729,0 -0.39674,0.68317 c -0.21819,0.37575 -0.39672,0.71294 -0.39672,0.74932 0,0.065 0.65086,1.25483 0.77032,1.40814 0.0435,0.0558 0.303,0.0785 0.89817,0.0785 l 0.83702,0 0.24629,-0.42373 z m 1.25264,0.0478 c -0.11356,-0.20675 -0.2206,-0.37592 -0.23786,-0.37592 -0.0172,0 -0.12431,0.16917 -0.23788,0.37592 l -0.20649,0.37591 0.44437,0 0.44434,0 -0.20648,-0.37591 z m -4.21014,-2.19896 0.20234,-0.37561 -0.44021,0 -0.44023,0 0.20649,0.37591 c 0.11357,0.20675 0.22061,0.37577 0.23788,0.3756 0.0172,-1.5e-4 0.12244,-0.16931 0.23373,-0.3759 z m 4.206,0 0.20235,-0.37561 -0.44022,0 -0.44022,0 0.20649,0.37591 c 0.11357,0.20675 0.2206,0.37577 0.23788,0.3756 0.0172,-1.5e-4 0.12244,-0.16931 0.23372,-0.3759 z m -1.92869,-1.1056 c 0,-0.051 -0.37886,-0.71387 -0.40804,-0.71387 -0.0292,0 -0.40805,0.66284 -0.40805,0.71387 0,0.0217 0.18362,0.0394 0.40805,0.0394 0.22443,0 0.40804,-0.0179 0.40804,-0.0394 z"
     id="path6812-7"
     sodipodi:nodetypes="cccssssscccscccscccscccsccssssccscccccccccccccssccccsccccccccccsccccccsccsssc" /></svg>