<svg width="32" height="32" viewBox="0 0 32 32" fill="none" xmlns="http://www.w3.org/2000/svg">
<g clip-path="url(#clip0)">
<path opacity="0.599156" d="M32.0482 -0.0903931H-0.0625V32.0625H32.0482V-0.0903931Z" fill="#90BE90"/>
<path d="M3.79034 29.0949L12.7545 29.1323C12.7545 29.1323 12.6669 26.9435 11.0836 26.9329C9.50045 26.9223 6.57854 26.9152 5.44003 26.9269C4.30152 26.9378 3.83246 27.7952 3.79034 29.0955V29.0949Z" fill="#82B290"/>
<path d="M19.5353 13.6893L28.4994 13.7267C28.4994 13.7267 28.4117 11.538 26.8286 11.5273C25.2454 11.5167 22.3235 11.5097 21.185 11.5204C20.0465 11.5314 19.5774 12.3886 19.5353 13.689V13.6893Z" fill="#82B290"/>
<path d="M7.53156 26.0677V21.7373H5.47247V20.3246H7.53156V18.3112L9.12225 18.3071V20.3241H11.2299L11.2578 21.7368H9.12225V26.0672L7.53156 26.0677Z" fill="#82B290"/>
<path d="M23.2449 10.6623V6.33188H21.1858V4.91913H23.2449V2.90567L24.8356 2.90167V4.91858H26.9433L26.9711 6.33133H24.8356V10.6618L23.2449 10.6623Z" fill="#82B290"/>
</g>
<defs>
<clipPath id="clip0">
<path d="M0 0H32V32H0V0Z" fill="white"/>
</clipPath>
</defs>
</svg>
