<svg width="32" height="32" viewBox="0 0 32 32" fill="none" xmlns="http://www.w3.org/2000/svg">
<g clip-path="url(#clip0)">
<path opacity="0.599156" d="M32.0828 -0.125H-0.0624962V32.0625H32.0828V-0.125Z" fill="#90BE90"/>
<path d="M17.5564 14.6611L29.2802 14.707C29.2802 14.707 29.1655 12.0211 27.0949 12.0081C25.0244 11.9951 21.203 11.9864 19.714 11.999C18.225 12.0125 17.6115 13.0646 17.5564 14.6602V14.6611Z" fill="#82B290"/>
<path d="M20.1359 10.6587L20.1399 4.40384C20.1399 4.40384 20.7745 2.97626 23.5108 2.97626C26.2472 2.97626 26.7511 4.51141 26.7511 4.51141L26.7601 10.6526L20.1359 10.6587Z" fill="#82B290"/>
<path d="M1.4939 30.6611L13.2177 30.707C13.2177 30.707 13.103 28.0211 11.0324 28.0081C8.96185 27.9951 5.14046 27.9864 3.65146 27.999C2.16245 28.0125 1.54897 29.0646 1.4939 30.6602V30.6611Z" fill="#82B290"/>
<path d="M4.0734 26.6587L4.0774 20.4038C4.0774 20.4038 4.71197 18.9763 7.44831 18.9763C10.1847 18.9763 10.6886 20.5114 10.6886 20.5114L10.6976 26.6526L4.0734 26.6587Z" fill="#82B290"/>
</g>
<defs>
<clipPath id="clip0">
<path d="M0 0H32V32H0V0Z" fill="white"/>
</clipPath>
</defs>
</svg>
