<?xml version="1.0" encoding="UTF-8" standalone="no"?>
<!-- Generator: Adobe Illustrator 16.0.4, SVG Export Plug-In . SVG Version: 6.00 Build 0)  -->

<svg
   xmlns:dc="http://purl.org/dc/elements/1.1/"
   xmlns:cc="http://creativecommons.org/ns#"
   xmlns:rdf="http://www.w3.org/1999/02/22-rdf-syntax-ns#"
   xmlns:svg="http://www.w3.org/2000/svg"
   xmlns="http://www.w3.org/2000/svg"
   xmlns:sodipodi="http://sodipodi.sourceforge.net/DTD/sodipodi-0.dtd"
   xmlns:inkscape="http://www.inkscape.org/namespaces/inkscape"
   version="1.1"
   id="Слой_1"
   x="0px"
   y="0px"
   width="48"
   height="48"
   viewBox="414.204 291.25 48 48"
   enable-background="new 414.204 291.25 10 10"
   xml:space="preserve"
   inkscape:version="0.48.4 r9939"
   sodipodi:docname="h_fell.svg"><metadata
     id="metadata17"><rdf:RDF><cc:Work
         rdf:about=""><dc:format>image/svg+xml</dc:format><dc:type
           rdf:resource="http://purl.org/dc/dcmitype/StillImage" /><dc:title /></cc:Work></rdf:RDF></metadata><defs
     id="defs15" /><sodipodi:namedview
     pagecolor="#ffffff"
     bordercolor="#666666"
     borderopacity="1"
     objecttolerance="10"
     gridtolerance="10"
     guidetolerance="10"
     inkscape:pageopacity="0"
     inkscape:pageshadow="2"
     inkscape:window-width="1920"
     inkscape:window-height="1004"
     id="namedview13"
     showgrid="false"
     inkscape:zoom="16.000001"
     inkscape:cx="26.410689"
     inkscape:cy="27.487987"
     inkscape:window-x="1680"
     inkscape:window-y="0"
     inkscape:window-maximized="1"
     inkscape:current-layer="Слой_1" /><path
     style="fill:#666666;fill-opacity:1;stroke:none"
     d="m 459.16684,323.14654 1.02573,0.51378 0.37745,0.82203 c 0,0 -0.14369,0.77066 -0.30447,0.82204 -0.16079,0.0514 -1.16426,0.41102 -1.16426,0.41102 l -0.12432,-1.48994 z"
     id="path3781"
     inkscape:connector-curvature="0"
     sodipodi:nodetypes="ccccccc" /><rect
     x="419.03168"
     y="337.51059"
     width="1.012"
     height="1.011"
     id="rect5"
     style="fill:#7a7a7a;fill-opacity:1" /><rect
     x="440.08469"
     y="306.67963"
     width="1.0140001"
     height="1.011"
     id="rect7"
     style="fill:#171e1e;fill-opacity:0.40495867" /><rect
     x="415.0889"
     y="325.32062"
     width="1.0140001"
     height="1.011"
     id="rect9-0"
     style="fill:#4b4b4b;fill-opacity:1" /><rect
     x="451.85721"
     y="311.87717"
     width="1.0140001"
     height="1.011"
     id="rect9-5"
     style="fill:#939393;fill-opacity:1" /><rect
     x="425.55716"
     y="335.07355"
     width="1.0140001"
     height="1.011"
     id="rect9-2"
     style="fill:#464c4c;fill-opacity:1" /><rect
     x="435.50949"
     y="297.55701"
     width="1.0140001"
     height="1.011"
     id="rect9-5-5-9"
     style="fill:#171e1e;fill-opacity:0.40495867" /><rect
     x="432.03461"
     y="305.28372"
     width="1.0140001"
     height="1.011"
     id="rect9-5-5-1"
     style="fill:#171e1e;fill-opacity:0.40495869" /><rect
     x="416.61002"
     y="307.68112"
     width="1.0140001"
     height="1.011"
     id="rect9-5-5-10"
     style="fill:#c3c3c3;fill-opacity:1" /><rect
     x="442.38449"
     y="333.30701"
     width="1.0140001"
     height="1.011"
     id="rect9-5-5-8"
     style="fill:#bfbfbf;fill-opacity:1" /><rect
     x="415.87463"
     y="302.46793"
     width="1.0140001"
     height="1.011"
     id="rect9-4-8"
     style="fill:#939393;fill-opacity:1" /><rect
     x="440.06036"
     y="294.64539"
     width="1.0140001"
     height="1.011"
     id="rect9-5-5-3"
     style="fill:#c3c3c3;fill-opacity:1" /><rect
     x="458.02286"
     y="309.23312"
     width="1.0140001"
     height="1.011"
     id="rect9-2-0-1"
     style="fill:#464c4c;fill-opacity:1" /><rect
     x="449.72128"
     y="297.96326"
     width="1.0140001"
     height="1.011"
     id="rect9-5-5-9-1"
     style="fill:#171e1e;fill-opacity:0.40495867" /><rect
     x="453.59628"
     y="299.08826"
     width="1.0140001"
     height="1.011"
     id="rect9-5-5-1-2"
     style="fill:#939393;fill-opacity:1" /><rect
     x="430.58835"
     y="326.50076"
     width="1.0140001"
     height="1.011"
     id="rect9-5-5-10-8"
     style="fill:#939393;fill-opacity:1" /><rect
     x="450.48386"
     y="331.80438"
     width="1.0140001"
     height="1.011"
     id="rect9-5-5-2-3"
     style="fill:#464c4c;fill-opacity:1" /><rect
     x="437.89914"
     y="335.51059"
     width="1.0140001"
     height="1.011"
     id="rect9-5-5-8-3"
     style="fill:#c3c3c3;fill-opacity:1" /><rect
     x="427.75073"
     y="318.68036"
     width="1.0140001"
     height="1.011"
     id="rect9-4-4"
     style="fill:#969696;fill-opacity:1" /><rect
     x="415.37637"
     y="295.08066"
     width="1.0140001"
     height="1.011"
     id="rect9-5-5-10-5"
     style="fill:#c3c3c3;fill-opacity:1" /><rect
     x="454.05893"
     y="296.25681"
     width="1.0140001"
     height="1.011"
     id="rect9-5-5-10-50"
     style="fill:#171e1e;fill-opacity:0.40495867" /><rect
     x="450.66727"
     y="326.28848"
     width="1.0140001"
     height="1.011"
     id="rect9-5-5-10-9"
     style="fill:#464c4c;fill-opacity:1" /><rect
     x="445.54071"
     y="325.31619"
     width="1.0140001"
     height="1.011"
     id="rect9-5-5-10-8-6"
     style="fill:#939393;fill-opacity:1" /><path
     style="fill:#c4c4c4;fill-opacity:1;stroke:none"
     d="m 459.13226,325.73575 c 0,0 -4.8022,0.16304 -4.87315,-0.0177 -0.0709,-0.18074 -0.99216,-2.08949 -0.99216,-2.08949 l 0.62212,-2.38117 1.50107,0.17242 -0.52216,0.81142 1.07562,-0.74784 1.4448,-0.57948 1.69603,0.54264 -0.51973,1.0514 0.74928,-0.50055 0.55447,1.4846 z"
     id="path3011"
     inkscape:connector-curvature="0"
     sodipodi:nodetypes="csccccccccccc" /><path
     style="fill:#666666;fill-opacity:1;stroke:none"
     d="m 431.85829,298.65854 0.26058,-0.1803 0.72339,0.41902 c 0,0 0.39324,1.14663 0.18692,1.20515 -0.20633,0.0585 -1.13549,0.21985 -1.13549,0.21985 l -0.15953,-1.69688 z"
     id="path3781-9"
     inkscape:connector-curvature="0"
     sodipodi:nodetypes="ccccccc" /><path
     style="fill:#c4c4c4;fill-opacity:1;stroke:none"
     d="m 431.93342,300.34543 c 0,0 -6.16241,0.18569 -6.25343,-0.0201 -0.0405,-0.0915 -1.07031,-2.28065 -1.07031,-2.28065 l 1.41463,-0.49443 -1.42032,-0.21899 0.60115,-2.09751 1.92624,0.19637 0.73839,0.8071 -0.0281,-0.73469 1.73453,0.45716 1.16057,0.78351 0.58792,1.19743 0.96151,-0.57008 0.59202,0.40817 z"
     id="path3011-9"
     inkscape:connector-curvature="0"
     sodipodi:nodetypes="csccccccccccccc" /><path
     style="fill:#666666;fill-opacity:1;stroke:none"
     d="m 423.42697,332.19382 0.28908,-0.19259 0.80251,0.44757 c 0,0 0.43626,1.22477 0.20737,1.28727 -0.2289,0.0625 -1.25969,0.23483 -1.25969,0.23483 l -0.17698,-1.8125 z"
     id="path3781-9-0"
     inkscape:connector-curvature="0"
     sodipodi:nodetypes="ccccccc" /><path
     style="fill:#c4c4c4;fill-opacity:1;stroke:none"
     d="m 423.41657,333.9644 c 0,0 -4.39894,0.16709 -4.49992,-0.0528 -0.0449,-0.0977 -0.68738,-1.3423 -0.68738,-1.3423 l 0.50686,-1.52813 0.86183,-0.35891 2.89103,0.25372 0.85001,-0.007 0.87097,0.71652 0.1297,0.88956 z"
     id="path3011-9-8"
     inkscape:connector-curvature="0"
     sodipodi:nodetypes="cscccccccc" /><path
     style="fill:#8ca58c;fill-opacity:1;stroke:none"
     d="m 432.6909,323.7799 2.30919,4.204 0.51402,3.85835 1.91905,0 -1.30953,-5.3117 z"
     id="path3825-3"
     inkscape:connector-curvature="0"
     sodipodi:nodetypes="cccccc" /><path
     style="fill:#8ca58c;fill-opacity:1;stroke:none"
     d="m 441.31326,324.32944 -1.46506,4.20398 -0.20521,3.67336 -1.19516,-0.50212 0.57365,-3.46181 z"
     id="path3825-0-1"
     inkscape:connector-curvature="0"
     sodipodi:nodetypes="cccccc" /><path
     style="fill:#5f8a5f;fill-opacity:1;stroke:none"
     d="m 439.46558,323.74134 -1.12238,3.78114 0.0518,2.3784 -1.45218,0.52856 0.53939,-3.77893 z"
     id="path3825-0-2-1"
     inkscape:connector-curvature="0"
     sodipodi:nodetypes="cccccc" /><path
     style="fill:#8ca58c;fill-opacity:1;stroke:none"
     d="m 440.22618,328.54863 0.81381,1.90483 0.0861,2.11414 -0.88675,0.0792 0.0768,-1.61191 z"
     id="path3825-0-1-8"
     inkscape:connector-curvature="0"
     sodipodi:nodetypes="cccccc" /><path
     style="fill:#5f8a5f;fill-opacity:1;stroke:none"
     d="m 451.21776,300.12085 -2.27442,4.58653 0.0769,2.66272 -1.49374,0 0.78081,-3.86869 z"
     id="path3825-3-4"
     inkscape:connector-curvature="0"
     sodipodi:nodetypes="cccccc" /><path
     style="fill:#8ca58c;fill-opacity:1;stroke:none"
     d="m 445.64835,300.51415 1.3515,3.78 0.18931,3.30289 1.1025,-0.45147 -0.52918,-3.11269 z"
     id="path3825-0-1-2"
     inkscape:connector-curvature="0"
     sodipodi:nodetypes="cccccc" /><path
     style="fill:#8ca58c;fill-opacity:1;stroke:none"
     d="m 444.2107,301.53116 1.36632,3.39981 -0.0631,2.13853 1.7678,0.47526 -0.65662,-3.39783 z"
     id="path3825-0-2-1-3"
     inkscape:connector-curvature="0"
     sodipodi:nodetypes="cccccc" /><path
     style="fill:#8ca58c;fill-opacity:1;stroke:none"
     d="m 444.32701,303.77015 0.88999,1.71272 0.0941,1.90093 -0.96975,0.0712 0.084,-1.44935 z"
     id="path3825-0-1-8-9"
     inkscape:connector-curvature="0"
     sodipodi:nodetypes="cccccc" /><path
     style="fill:#373737;fill-opacity:1;stroke:none"
     d="m 426.01715,316.02571 0.15126,-0.10077 0.26523,0.52145 c 0,0 0.38295,0.35359 0.26319,0.3863 -0.11978,0.0327 -0.65913,0.12287 -0.65913,0.12287 l -0.0926,-0.94838 z"
     id="path3781-9-0-8"
     inkscape:connector-curvature="0"
     sodipodi:nodetypes="ccccccc" /><path
     style="fill:#b2b2b2;fill-opacity:1;stroke:none"
     d="m 426.01171,316.95216 c 0,0 -2.30173,0.0874 -2.35457,-0.0276 -0.0235,-0.0511 -0.35967,-0.70235 -0.35967,-0.70235 l 0.72925,-0.7554 0.69402,0.20995 c 0.26837,-0.10331 0.23967,-0.68196 0.80561,-0.30918 l 0.55526,0.23907 0.14637,0.39701 0.26677,0.20029 z"
     id="path3011-9-8-7"
     inkscape:connector-curvature="0"
     sodipodi:nodetypes="cscccccccc" /><path
     style="fill:#373737;fill-opacity:1;stroke:none"
     d="m 460.2749,336.5368 0.0629,0.076 0.46411,0.27838 c 0,0 0.007,0.44198 -0.11247,0.47469 -0.11978,0.0327 -0.73647,0.12841 -0.73647,0.12841 l 0.24991,-0.976 z"
     id="path3781-9-0-8-9"
     inkscape:connector-curvature="0"
     sodipodi:nodetypes="ccccccc" /><path
     style="fill:#b2b2b2;fill-opacity:1;stroke:none"
     d="m 460.20696,337.46325 c 0,0 -0.78393,0.19034 -1.41106,0.1907 -0.51946,2.9e-4 -0.89666,-0.18525 -0.94351,-0.2183 -0.91622,-0.64624 -0.42596,-1.16639 -0.42596,-1.16639 l 0.64086,-0.42394 0.60563,0.0553 c 0.26837,-0.10331 0.48274,-0.3947 1.04868,-0.0219 l 0.55526,0.23907 0.14637,0.39701 0.26677,0.20029 z"
     id="path3011-9-8-7-4"
     inkscape:connector-curvature="0"
     sodipodi:nodetypes="csscccccccc" /></svg>