<?xml version="1.0" encoding="utf-8"?>
<!-- Generator: Adobe Illustrator 16.0.4, SVG Export Plug-In . SVG Version: 6.00 Build 0)  -->
<!DOCTYPE svg PUBLIC "-//W3C//DTD SVG 1.1//EN" "http://www.w3.org/Graphics/SVG/1.1/DTD/svg11.dtd">
<svg version="1.1" id="Слой_1" xmlns="http://www.w3.org/2000/svg" xmlns:xlink="http://www.w3.org/1999/xlink" x="0px" y="0px"
	 width="21px" height="24.001px" viewBox="409.19 286.259 21 24.001" enable-background="new 409.19 286.259 21 24.001"
	 xml:space="preserve">
<rect x="409.19" y="286.259" fill="#8DC56C" width="21" height="24.001"/>
<rect x="419.205" y="294.28" fill="#3BB551" width="0.984" height="7.979"/>
<rect x="417.19" y="297.259" fill="#3BB551" width="1.011" height="1.012"/>
<rect x="418.2" y="299.248" fill="#3BB551" width="1.013" height="1.011"/>
<rect x="420.19" y="299.248" fill="#3BB551" width="1.011" height="1.011"/>
<rect x="421.176" y="300.259" fill="#3BB551" width="1.011" height="1.012"/>
<rect x="417.19" y="300.259" fill="#3BB551" width="1.011" height="1.012"/>
<rect x="421.176" y="297.259" fill="#3BB551" width="1.011" height="1.012"/>
<rect x="420.19" y="296.248" fill="#3BB551" width="1.011" height="1.011"/>
<rect x="418.2" y="296.248" fill="#3BB551" width="1.013" height="1.011"/>
<polygon fill="#3BB551" points="419.213,296.248 418.2,296.248 417.19,297.259 417.19,298.27 418.2,298.27 419.213,297.259 "/>
<polygon fill="#3BB551" points="420.163,296.248 421.176,296.248 422.186,297.259 422.186,298.27 421.176,298.27 420.163,297.259 
	"/>
<polygon fill="#3BB551" points="419.215,299.248 418.203,299.248 417.193,300.259 417.193,301.27 418.203,301.27 419.215,300.259 
	"/>
<polygon fill="#3BB551" points="420.166,299.248 421.178,299.248 422.188,300.259 422.188,301.27 421.178,301.27 420.166,300.259 
	"/>
</svg>
