<?xml version="1.0" encoding="UTF-8" standalone="no"?>
<!-- Created with Inkscape (http://www.inkscape.org/) -->

<svg
   xmlns:dc="http://purl.org/dc/elements/1.1/"
   xmlns:cc="http://creativecommons.org/ns#"
   xmlns:rdf="http://www.w3.org/1999/02/22-rdf-syntax-ns#"
   xmlns:svg="http://www.w3.org/2000/svg"
   xmlns="http://www.w3.org/2000/svg"
   xmlns:sodipodi="http://sodipodi.sourceforge.net/DTD/sodipodi-0.dtd"
   xmlns:inkscape="http://www.inkscape.org/namespaces/inkscape"
   version="1.0"
   width="16"
   height="16"
   id="svg2"
   sodipodi:version="0.32"
   inkscape:version="0.48.4 r9939"
   sodipodi:docname="fountain2.svg"
   inkscape:output_extension="org.inkscape.output.svg.inkscape">
  <metadata
     id="metadata2975">
    <rdf:RDF>
      <cc:Work
         rdf:about="">
        <dc:format>image/svg+xml</dc:format>
        <dc:type
           rdf:resource="http://purl.org/dc/dcmitype/StillImage" />
        <cc:license
           rdf:resource="http://web.resource.org/cc/PublicDomain" />
        <dc:language>en</dc:language>
        <dc:title></dc:title>
      </cc:Work>
    </rdf:RDF>
  </metadata>
  <sodipodi:namedview
     inkscape:window-height="739"
     inkscape:window-width="1326"
     inkscape:pageshadow="2"
     inkscape:pageopacity="0.0"
     guidetolerance="10.0"
     gridtolerance="10.0"
     objecttolerance="10.0"
     borderopacity="1.0"
     bordercolor="#666666"
     pagecolor="#ffffff"
     id="base"
     inkscape:zoom="14.746834"
     inkscape:cx="4.9347075"
     inkscape:cy="6.9413077"
     inkscape:window-x="40"
     inkscape:window-y="1024"
     inkscape:current-layer="svg2"
     showgrid="false"
     inkscape:window-maximized="1" />
  <defs
     id="defs4">
    <inkscape:perspective
       sodipodi:type="inkscape:persp3d"
       inkscape:vp_x="0 : 290 : 1"
       inkscape:vp_y="0 : 1000 : 0"
       inkscape:vp_z="580 : 290 : 1"
       inkscape:persp3d-origin="290 : 193.33333 : 1"
       id="perspective2441" />
    <inkscape:perspective
       id="perspective3452"
       inkscape:persp3d-origin="30 : 20 : 1"
       inkscape:vp_z="60 : 30 : 1"
       inkscape:vp_y="0 : 1000 : 0"
       inkscape:vp_x="0 : 30 : 1"
       sodipodi:type="inkscape:persp3d" />
    <symbol
       viewBox="244.5 110 489 219.9"
       id="symbol-university">
      <path
         id="path4460"
         d="m 79,43 57,119 c 0,0 21,-96 104,-96 83,0 124,106 124,106 L 407,39 489,22 0,17 79,43 z"
         inkscape:connector-curvature="0" />
      <path
         id="path4462"
         d="M 94,176 73,215"
         inkscape:connector-curvature="0"
         style="fill:none;stroke:#000000;stroke-width:20" />
      <path
         id="path4464"
         d="M 300,19 C 300,29.5 277.4,38 249.5,38 221.6,38 199,29.5 199,19 199,8.5 221.6,0 249.5,0 277.4,0 300,8.5 300,19 z"
         inkscape:connector-curvature="0" />
      <path
         id="path4466"
         d="M 112,216 96,178 64,88 C 64,88 55,80 60,53 65,26 76,29 76,29"
         ill="none"
         inkscape:connector-curvature="0"
         style="stroke:#000000;stroke-width:20" />
    </symbol>
    <inkscape:perspective
       id="perspective4471"
       inkscape:persp3d-origin="372.04724 : 350.78739 : 1"
       inkscape:vp_z="744.09448 : 526.18109 : 1"
       inkscape:vp_y="0 : 1000 : 0"
       inkscape:vp_x="0 : 526.18109 : 1"
       sodipodi:type="inkscape:persp3d" />
    <inkscape:perspective
       id="perspective4668"
       inkscape:persp3d-origin="6 : 4 : 1"
       inkscape:vp_z="12 : 6 : 1"
       inkscape:vp_y="0 : 1000 : 0"
       inkscape:vp_x="0 : 6 : 1"
       sodipodi:type="inkscape:persp3d" />
    <inkscape:perspective
       id="perspective4725"
       inkscape:persp3d-origin="0.5 : 0.33333333 : 1"
       inkscape:vp_z="1 : 0.5 : 1"
       inkscape:vp_y="0 : 1000 : 0"
       inkscape:vp_x="0 : 0.5 : 1"
       sodipodi:type="inkscape:persp3d" />
    <inkscape:perspective
       id="perspective6330"
       inkscape:persp3d-origin="0.5 : 0.33333333 : 1"
       inkscape:vp_z="1 : 0.5 : 1"
       inkscape:vp_y="0 : 1000 : 0"
       inkscape:vp_x="0 : 0.5 : 1"
       sodipodi:type="inkscape:persp3d" />
    <inkscape:perspective
       id="perspective6376"
       inkscape:persp3d-origin="0.5 : 0.33333333 : 1"
       inkscape:vp_z="1 : 0.5 : 1"
       inkscape:vp_y="0 : 1000 : 0"
       inkscape:vp_x="0 : 0.5 : 1"
       sodipodi:type="inkscape:persp3d" />
    <inkscape:perspective
       id="perspective6376-2"
       inkscape:persp3d-origin="0.5 : 0.33333333 : 1"
       inkscape:vp_z="1 : 0.5 : 1"
       inkscape:vp_y="0 : 1000 : 0"
       inkscape:vp_x="0 : 0.5 : 1"
       sodipodi:type="inkscape:persp3d" />
    <inkscape:perspective
       id="perspective6407"
       inkscape:persp3d-origin="0.5 : 0.33333333 : 1"
       inkscape:vp_z="1 : 0.5 : 1"
       inkscape:vp_y="0 : 1000 : 0"
       inkscape:vp_x="0 : 0.5 : 1"
       sodipodi:type="inkscape:persp3d" />
    <inkscape:perspective
       id="perspective6629"
       inkscape:persp3d-origin="0.5 : 0.33333333 : 1"
       inkscape:vp_z="1 : 0.5 : 1"
       inkscape:vp_y="0 : 1000 : 0"
       inkscape:vp_x="0 : 0.5 : 1"
       sodipodi:type="inkscape:persp3d" />
    <inkscape:perspective
       id="perspective6660"
       inkscape:persp3d-origin="0.5 : 0.33333333 : 1"
       inkscape:vp_z="1 : 0.5 : 1"
       inkscape:vp_y="0 : 1000 : 0"
       inkscape:vp_x="0 : 0.5 : 1"
       sodipodi:type="inkscape:persp3d" />
    <inkscape:perspective
       id="perspective8099"
       inkscape:persp3d-origin="0.5 : 0.33333333 : 1"
       inkscape:vp_z="1 : 0.5 : 1"
       inkscape:vp_y="0 : 1000 : 0"
       inkscape:vp_x="0 : 0.5 : 1"
       sodipodi:type="inkscape:persp3d" />
  </defs>
  <path
     style="fill:#fefefe;fill-opacity:0.78512394;stroke:none"
     d="M 6.8293402,0.57997559 C 6.1706552,0.63745109 5.6984015,1.2424314 5.5570137,1.8497653 5.2491159,2.9165737 5.0066005,4.0185589 5.0066594,5.1299141 4.3332143,5.0999967 3.6516659,5.3651704 3.1967397,5.8614771 2.4308749,6.6285428 2.0125704,7.6616688 1.6301352,8.6628373 1.1186807,10.112895 0.79696697,11.630216 0.62326423,13.156979 c 0.0011,0.396188 0.26985672,0.734266 0.27052804,1.128608 0.40895603,-0.101332 0.72822513,-0.452359 0.90542163,-0.794674 0.028299,0.08797 0.078788,0.168901 0.144563,0.232483 -0.3321068,0.0022 -0.5125109,0.359788 -0.5258385,0.65265 -0.023371,0.290027 -0.032769,0.624976 0.1969777,0.840326 0.1561908,0.179674 0.4025557,0.229163 0.6289757,0.194084 4.104109,-0.01815 8.2082652,-0.003 12.3123942,-0.0081 0.0034,-0.529676 -0.0071,-1.068774 0.005,-1.592731 0.382937,0.116809 0.857808,-0.196194 0.812428,-0.617987 -0.0087,-0.401752 -0.133495,-0.792272 -0.172194,-1.192336 C 14.86444,10.032509 14.334378,8.0455153 13.223042,6.3648522 12.761843,5.7062578 12.044207,5.1458734 11.20845,5.1341416 11.127905,5.1143089 10.953744,5.197603 10.989026,5.0530666 10.918205,3.937365 10.768055,2.8103553 10.382495,1.7567719 10.226071,1.391851 10.082177,0.97127385 9.7137839,0.76680935 9.4320219,0.58753335 9.061194,0.53117476 8.7491841,0.65014394 8.5053466,0.53667724 8.2141064,0.59305944 7.9866331,0.72115805 7.7636257,0.57581015 7.467406,0.55984124 7.2240835,0.64929852 7.1011799,0.5953744 6.9641092,0.5740175 6.8292827,0.57997529 z M 5.1647492,9.420315 C 5.013625,10.625765 4.9181483,11.842757 4.9753788,13.058068 4.7354173,13.12585 4.4996622,13.222449 4.2643986,13.299006 4.5586338,12.000353 4.801018,10.68547 5.1672855,9.4008709 l -0.0025,0.019445 z m 5.6658658,0.032124 c 0.344838,1.200828 0.560423,2.432835 0.855542,3.643671 0.01269,0.0891 0.135843,0.283233 -0.04396,0.17077 -0.203759,-0.06927 -0.410292,-0.13661 -0.612069,-0.206278 0.03538,-0.508015 -0.01642,-1.017454 -0.01775,-1.525945 -0.03177,-0.70726 -0.100256,-1.414421 -0.19106,-2.1151886 l 0.0074,0.026037 0.0019,0.00693 z m -1.4870585,1.066048 c 0.077033,0.71787 0.1573519,1.435044 0.3068796,2.142242 -0.225843,-0.05449 -0.4578077,-0.0919 -0.6889991,-0.123435 0.078168,-0.712172 0.2032025,-1.423054 0.3711289,-2.119415 0.00369,0.03353 0.00737,0.06706 0.010918,0.100603 z m -2.672306,-0.01521 c 0.1566172,0.667167 0.283202,1.345175 0.3415406,2.028959 -0.2234558,0.02808 -0.4509883,0.08277 -0.6670197,0.121737 0.1588835,-0.734604 0.228282,-1.482046 0.3068798,-2.228471 0.0062,0.02593 0.012394,0.05186 0.018605,0.07777 z M 3.0597045,13.2373 c 0.024108,0.130988 0.086136,0.25617 0.1859871,0.345767 -0.1206756,0.02173 -0.2434021,0.05073 -0.3635215,0.0668 0.089957,-0.128511 0.1390595,-0.279806 0.1741527,-0.431154 l 0.00339,0.0186 z m 9.8945525,0.02114 c 0.02673,0.130901 0.08737,0.295928 0.140328,0.393955 -0.123759,-0.02106 -0.249319,-0.04404 -0.370285,-0.07101 0.110938,-0.0895 0.192491,-0.217939 0.22234,-0.358449 l 0.0056,0.02645 0.0019,0.009 z m 1.237664,0.25362 c 0.03091,0.06168 0.07056,0.118315 0.120041,0.166544 -0.05904,-0.005 -0.251,0.05407 -0.240094,0.0059 0.04823,-0.05512 0.08569,-0.118094 0.113283,-0.185989 l 0.0067,0.01357 z"
     id="path3900-6"
     inkscape:connector-curvature="0" />
</svg>
