<?xml version="1.0" encoding="UTF-8" standalone="no"?>
<svg
   xmlns:dc="http://purl.org/dc/elements/1.1/"
   xmlns:cc="http://creativecommons.org/ns#"
   xmlns:rdf="http://www.w3.org/1999/02/22-rdf-syntax-ns#"
   xmlns:svg="http://www.w3.org/2000/svg"
   xmlns="http://www.w3.org/2000/svg"
   xmlns:sodipodi="http://sodipodi.sourceforge.net/DTD/sodipodi-0.dtd"
   xmlns:inkscape="http://www.inkscape.org/namespaces/inkscape"
   width="32"
   height="32"
   id="svg2"
   version="1.1"
   inkscape:version="0.48.4 r9939"
   sodipodi:docname="h_forest_broadleaved.svg">
  <defs
     id="defs13" />
  <sodipodi:namedview
     pagecolor="#ffffff"
     bordercolor="#666666"
     borderopacity="1"
     objecttolerance="10"
     gridtolerance="10"
     guidetolerance="10"
     inkscape:pageopacity="0"
     inkscape:pageshadow="2"
     inkscape:window-width="1324"
     inkscape:window-height="739"
     id="namedview11"
     showgrid="false"
     inkscape:zoom="6.5103448"
     inkscape:cx="7.7991841"
     inkscape:cy="9.8512318"
     inkscape:window-x="42"
     inkscape:window-y="1024"
     inkscape:window-maximized="1"
     inkscape:current-layer="g5"
     fit-margin-top="0"
     fit-margin-left="0"
     fit-margin-right="0"
     fit-margin-bottom="0" />
  <metadata
     id="metadata2975">image/svg+xmlen<rdf:RDF>
  <cc:Work
     rdf:about="">
    <dc:format>image/svg+xml</dc:format>
    <dc:type
       rdf:resource="http://purl.org/dc/dcmitype/StillImage" />
    <dc:title />
  </cc:Work>
</rdf:RDF>
</metadata>
  <g
     id="g5"
     style="fill:#2f2f2f;fill-opacity:1;stroke:#fefefe;stroke-width:65.80000305;stroke-linecap:butt;stroke-linejoin:round;stroke-miterlimit:4;stroke-opacity:0.68181817;stroke-dasharray:none"
     transform="translate(-140.90542,-444.58175)">
    <title
       id="title7">Layer 1</title>
    <rect
       style="color:#000000;fill:#9dd57c;fill-opacity:1;fill-rule:nonzero;stroke:none;stroke-width:18.33399963;marker:none;visibility:visible;display:inline;overflow:visible;enable-background:accumulate"
       id="rect3782"
       width="32.064095"
       height="32.140896"
       x="140.90543"
       y="444.54947" />
    <g
       id="g1327"
       style="fill:#2f2f2f;fill-opacity:1;stroke:#fefefe;stroke-width:65.80000305;stroke-linecap:butt;stroke-linejoin:round;stroke-miterlimit:4;stroke-opacity:0.68181817;stroke-dasharray:none" />
    <g
       id="g3754"
       style="fill:#84d16d;fill-opacity:1;stroke:none"
       transform="matrix(0.03340764,0,0,0.03340764,147.4832,451.36079)">
      <path
         sodipodi:nodetypes="csczsssscc"
         inkscape:connector-curvature="0"
         id="path3756"
         d="m 247.46086,354.2181 c 19.4842,-13.28468 21.53554,77.23473 7.20335,99.79898 -21.78118,34.29176 71.35049,24.45088 55.16262,3.79596 -10.69056,-34.5141 -12.4477,-28.20609 -8.57465,-58.56966 3.8731,-30.36357 49.58183,-63.83513 50.12012,-67.87761 0.46876,-3.52034 -44.96747,28.58027 -44.50268,25.18032 6.10866,-44.68481 11.51838,-78.0044 6.87445,-74.54745 -14.32193,10.66128 -29.69179,134.36989 -39.73748,74.7845 -9.80851,-58.17861 -26.54577,-2.56504 -26.54577,-2.56504 z"
         style="fill:#84d16d;fill-opacity:1;stroke:none" />
      <path
         sodipodi:nodetypes="ccsscssssssccssscsc"
         inkscape:connector-curvature="0"
         id="path2986"
         d="m 254.52791,360.70262 -48.21549,10.13866 c -24.45745,2.5896 -38.14374,-28.51633 -57.74661,-59.27825 -25.71921,-40.36003 21.18646,-63.08178 25.79356,-64.92462 4.60709,-1.84284 -23.89034,-23.85062 -22.74525,-56.40964 -11.06578,-55.47755 9.05817,-57.88192 9.53062,-61.70161 0.56553,-4.57226 30.48366,-12.8543 38.77644,-15.61856 8.29278,-2.76426 -1.45704,-26.10172 37.24732,-34.079404 4.22177,-0.870186 11.06899,-10.485271 57.571,7.219531 2.55151,0.971444 20.827,-10.945055 38.72263,-9.079303 18.58904,1.938045 39.72423,22.136761 43.75293,30.136776 9.81814,19.49644 2.35034,42.50609 2.35034,42.50609 0,0 -2.16311,-1.29252 19.97459,13.15626 20.22552,11.97127 25.67499,68.68948 22.99513,84.28999 -7.60703,44.28359 -13.58909,55.41457 -13.58909,62.78593 0,7.37135 17.46135,26.90955 9.9557,46.26372 -12.03973,31.04581 -95.75377,7.33045 -98.02778,-0.62861 4.07702,-52.65107 -22.13223,-24.45643 -30.19342,-20.26177 -12.2892,6.39473 -22.56199,3.22718 -36.15262,25.48481 z"
         style="fill:#84d16d;fill-opacity:1;stroke:none" />
    </g>
  </g>
</svg>
