<?xml version="1.0" encoding="UTF-8" standalone="no"?>
<!-- Generator: Adobe Illustrator 16.0.4, SVG Export Plug-In . SVG Version: 6.00 Build 0)  -->

<svg
   xmlns:dc="http://purl.org/dc/elements/1.1/"
   xmlns:cc="http://creativecommons.org/ns#"
   xmlns:rdf="http://www.w3.org/1999/02/22-rdf-syntax-ns#"
   xmlns:svg="http://www.w3.org/2000/svg"
   xmlns="http://www.w3.org/2000/svg"
   xmlns:sodipodi="http://sodipodi.sourceforge.net/DTD/sodipodi-0.dtd"
   xmlns:inkscape="http://www.inkscape.org/namespaces/inkscape"
   version="1.1"
   id="Слой_1"
   x="0px"
   y="0px"
   width="20"
   height="20"
   viewBox="0 0 19.999999 20"
   enable-background="new 0 0 17.113 17.143"
   xml:space="preserve"
   inkscape:version="0.48.4 r9939"
   sodipodi:docname="h_white_green_round_shield.svg"><metadata
     id="metadata13"><rdf:RDF><cc:Work
         rdf:about=""><dc:format>image/svg+xml</dc:format><dc:type
           rdf:resource="http://purl.org/dc/dcmitype/StillImage" /><dc:title></dc:title></cc:Work></rdf:RDF></metadata><defs
     id="defs11" /><sodipodi:namedview
     pagecolor="#ffffff"
     bordercolor="#666666"
     borderopacity="1"
     objecttolerance="10"
     gridtolerance="10"
     guidetolerance="10"
     inkscape:pageopacity="0"
     inkscape:pageshadow="2"
     inkscape:window-width="1324"
     inkscape:window-height="739"
     id="namedview9"
     showgrid="false"
     inkscape:zoom="19.468845"
     inkscape:cx="8.4921562"
     inkscape:cy="8.1973292"
     inkscape:window-x="42"
     inkscape:window-y="1024"
     inkscape:window-maximized="1"
     inkscape:current-layer="Слой_1" /><path
     clip-rule="evenodd"
     d="M 9.9999993,0 C 15.533777,0 19.999999,4.4661892 19.999999,10.000583 19.999999,15.501195 15.533777,20 9.9999993,20 4.4673897,20 -5e-7,15.501195 -5e-7,10.000583 -5e-7,4.4661892 4.4673897,0 9.9999993,0 l 0,0 z"
     id="path3"
     style="fill:#00b519;fill-opacity:1;fill-rule:evenodd"
     inkscape:connector-curvature="0" /><path
     clip-rule="evenodd"
     d="m 9.9999815,0.81196144 c 5.0668115,0 9.1884855,4.08711526 9.1884855,9.18746546 0,5.0637251 -4.121674,9.1862421 -9.1884855,9.1862421 -5.0655881,0 -9.18726277,-4.122517 -9.18726277,-9.1862421 0,-5.1003502 4.12167467,-9.18746546 9.18726277,-9.18746546 l 0,0 z"
     id="path5"
     inkscape:connector-curvature="0"
     style="fill:#dadada;fill-rule:evenodd;fill-opacity:1" /></svg>