<?xml version="1.0" encoding="UTF-8" standalone="no"?>
<!-- Created with Inkscape (http://www.inkscape.org/) -->

<svg
   xmlns:dc="http://purl.org/dc/elements/1.1/"
   xmlns:cc="http://creativecommons.org/ns#"
   xmlns:rdf="http://www.w3.org/1999/02/22-rdf-syntax-ns#"
   xmlns:svg="http://www.w3.org/2000/svg"
   xmlns="http://www.w3.org/2000/svg"
   xmlns:sodipodi="http://sodipodi.sourceforge.net/DTD/sodipodi-0.dtd"
   xmlns:inkscape="http://www.inkscape.org/namespaces/inkscape"
   version="1.0"
   width="16"
   height="16"
   id="svg2"
   sodipodi:version="0.32"
   inkscape:version="0.48.4 r9939"
   sodipodi:docname="h_harbour_shield.svg"
   inkscape:output_extension="org.inkscape.output.svg.inkscape">
  <metadata
     id="metadata1976">
    <rdf:RDF>
      <cc:Work
         rdf:about="">
        <dc:format>image/svg+xml</dc:format>
        <dc:type
           rdf:resource="http://purl.org/dc/dcmitype/StillImage" />
        <cc:license
           rdf:resource="http://web.resource.org/cc/PublicDomain" />
        <dc:language>en</dc:language>
        <dc:title></dc:title>
      </cc:Work>
    </rdf:RDF>
  </metadata>
  <sodipodi:namedview
     inkscape:window-height="1004"
     inkscape:window-width="1920"
     inkscape:pageshadow="2"
     inkscape:pageopacity="0.0"
     guidetolerance="10.0"
     gridtolerance="10.0"
     objecttolerance="10.0"
     borderopacity="1.0"
     bordercolor="#666666"
     pagecolor="#ffffff"
     id="base"
     inkscape:zoom="10.427586"
     inkscape:cx="16.343589"
     inkscape:cy="6.6467835"
     inkscape:window-x="1680"
     inkscape:window-y="0"
     inkscape:current-layer="svg2"
     showgrid="false"
     inkscape:window-maximized="1" />
  <defs
     id="defs4">
    <inkscape:perspective
       sodipodi:type="inkscape:persp3d"
       inkscape:vp_x="0 : 290 : 1"
       inkscape:vp_y="0 : 1000 : 0"
       inkscape:vp_z="580 : 290 : 1"
       inkscape:persp3d-origin="290 : 193.33333 : 1"
       id="perspective3653" />
    <marker
       viewBox="0 0 10 10"
       refY="5"
       refX="10"
       orient="auto"
       markerWidth="4"
       markerUnits="strokeWidth"
       markerHeight="3"
       id="ArrowStart">
      <path
         id="path2111"
         d="M 10,0 0,5 10,10 z"
         inkscape:connector-curvature="0" />
    </marker>
    <marker
       viewBox="0 0 10 10"
       refY="5"
       refX="0"
       orient="auto"
       markerWidth="4"
       markerUnits="strokeWidth"
       markerHeight="3"
       id="ArrowEnd">
      <path
         id="path2108"
         d="M 0,0 10,5 0,10 z"
         inkscape:connector-curvature="0" />
    </marker>
    <inkscape:perspective
       id="perspective2512"
       inkscape:persp3d-origin="177.51199 : 145.02 : 1"
       inkscape:vp_z="355.02399 : 217.53 : 1"
       inkscape:vp_y="0 : 1000 : 0"
       inkscape:vp_x="0 : 217.53 : 1"
       sodipodi:type="inkscape:persp3d" />
  </defs>
  <path
     sodipodi:type="inkscape:offset"
     inkscape:radius="0.60779333"
     inkscape:original="M 8.03125 0.59375 C 3.962809 0.59375 0.65625 3.9003082 0.65625 7.96875 C 0.65625 12.037191 3.962809 15.34375 8.03125 15.34375 C 12.099692 15.34375 15.40625 12.037191 15.40625 7.96875 C 15.40625 3.9003082 12.099692 0.59375 8.03125 0.59375 z M 8.03125 1.28125 C 11.72688 1.28125 14.6875 4.27312 14.6875 7.96875 C 14.6875 11.664379 11.72688 14.65625 8.03125 14.65625 C 4.33562 14.65625 1.34375 11.664379 1.34375 7.96875 C 1.34375 4.27312 4.33562 1.28125 8.03125 1.28125 z M 8.03125 2.40625 C 7.093984 2.40625 6.3125 3.1877337 6.3125 4.125 C 6.3125 4.7516863 6.648247 5.2971051 7.15625 5.59375 L 7.15625 6.6875 L 5.875 6.6875 L 5.875 7.53125 L 7.15625 7.53125 L 7.15625 11.375 C 6.120379 11.30181 5.008451 9.9470072 4.46875 8.6875 C 4.890738 8.708814 5.3125 8.6875 5.3125 8.6875 C 5.3125 8.6875 4.4723 7.44449 3.3125 7.125 C 2.58821 7.75075 2.46875 9.53125 2.46875 9.53125 C 2.46875 9.53125 2.744628 9.3946966 3.0625 9.15625 C 3.626379 10.740729 5.097128 12.116524 6.84375 12.5 C 7.5979 12.6655 8.03125 13.5 8.03125 13.5 C 8.03125 13.5 8.43335 12.6655 9.1875 12.5 C 10.934122 12.116524 12.404869 10.740729 12.96875 9.15625 C 13.297163 9.402422 13.5625 9.53125 13.5625 9.53125 C 13.5625 9.01938 13.49135 7.96349 12.75 7.09375 C 11.5902 7.41324 10.75 8.6875 10.75 8.6875 C 10.75 8.6875 11.160945 8.712127 11.59375 8.6875 C 11.054798 9.9480679 9.912023 11.301733 8.875 11.375 L 8.875 7.53125 L 10.15625 7.53125 L 10.15625 6.6875 L 8.875 6.6875 L 8.875 5.59375 C 9.383004 5.2971051 9.71875 4.7516863 9.71875 4.125 C 9.71875 3.1877337 8.968517 2.40625 8.03125 2.40625 z M 8.03125 3.28125 C 8.507462 3.28125 8.875 3.6487883 8.875 4.125 C 8.875 4.6012117 8.507462 4.96875 8.03125 4.96875 C 7.555039 4.96875 7.15625 4.6012117 7.15625 4.125 C 7.15625 3.6487883 7.555039 3.28125 8.03125 3.28125 z "
     style="font-size:medium;font-style:normal;font-variant:normal;font-weight:normal;font-stretch:normal;text-indent:0;text-align:start;text-decoration:none;line-height:normal;letter-spacing:normal;word-spacing:normal;text-transform:none;direction:ltr;block-progression:tb;writing-mode:lr-tb;text-anchor:start;baseline-shift:baseline;opacity:0.77999998;color:#000000;fill:#f1eae4;fill-opacity:1;stroke:none;stroke-width:2;marker:none;visibility:visible;display:inline;overflow:visible;enable-background:accumulate;font-family:Sans;-inkscape-font-specification:Sans"
     id="path3934"
     d="M 8.03125,0 C 3.633493,0 0.0625,3.5709922 0.0625,7.96875 c 0,4.397757 3.5709929,7.96875 7.96875,7.96875 C 12.429008,15.9375 16,12.366507 16,7.96875 16,3.5709923 12.429008,0 8.03125,0 z M 9.0625,2.09375 c 2.84801,0.5028723 5.03125,2.8700287 5.03125,5.875 0,0.1106535 -0.05679,0.2033461 -0.0625,0.3125 C 13.902621,7.7743243 13.661968,7.2074763 13.21875,6.6875 A 0.60785411,0.60785411 0 0 0 12.59375,6.5 C 11.748307,6.7328941 11.147059,7.2435986 10.75,7.6875 a 0.60785411,0.60785411 0 0 0 0,-0.15625 l 0,-0.84375 A 0.60785411,0.60785411 0 0 0 10.15625,6.09375 l -0.6875,0 0,-0.25 C 9.9692697,5.4186785 10.3125,4.8255385 10.3125,4.125 c 0,-0.8899534 -0.5033157,-1.6418032 -1.25,-2.03125 z M 6.90625,2.125 c -0.7043657,0.4020771 -1.1875,1.1386846 -1.1875,2 0,0.700539 0.3432309,1.2936787 0.84375,1.71875 l 0,0.25 -0.6875,0 A 0.60785411,0.60785411 0 0 0 5.28125,6.6875 l 0,0.84375 a 0.60785411,0.60785411 0 0 0 0,0.1875 C 4.8855601,7.2811673 4.3249894,6.7671182 3.46875,6.53125 a 0.60785411,0.60785411 0 0 0 -0.5625,0.125 C 2.3408168,7.1447557 2.1636106,7.862173 2.03125,8.4375 2.0183454,8.2751121 1.9375,8.1345616 1.9375,7.96875 1.9375,5.0008886 4.1010676,2.6668929 6.90625,2.125 z m 1.125,1.75 c 0.1634839,0 0.25,0.086516 0.25,0.25 0,0.1634836 -0.086516,0.25 -0.25,0.25 C 7.8677678,4.375 7.75,4.261893 7.75,4.125 7.75,3.988107 7.8677678,3.875 8.03125,3.875 z M 10.5,8.03125 c -0.0731,0.1031074 -0.25,0.3125 -0.25,0.3125 A 0.60785411,0.60785411 0 0 0 10.5,9.25 c -0.180427,0.2766201 -0.319462,0.5908593 -0.53125,0.8125 -0.1870699,0.195773 -0.3193226,0.195435 -0.5,0.3125 l 0,-2.25 0.6875,0 A 0.60785411,0.60785411 0 0 0 10.5,8.03125 z M 5.59375,8.0625 A 0.60785411,0.60785411 0 0 0 5.875,8.125 l 0.6875,0 0,2.25 C 6.3853428,10.258594 6.2463122,10.258062 6.0625,10.0625 5.8562105,9.8430236 5.7395978,9.5244902 5.5625,9.25 a 0.60785411,0.60785411 0 0 0 0.25,-0.90625 c 0,0 -0.1627103,-0.2025614 -0.21875,-0.28125 z M 2.84375,10 c 0.7639667,1.493127 2.1500916,2.715041 3.875,3.09375 0.3839422,0.08426 0.78125,0.6875 0.78125,0.6875 a 0.60785411,0.60785411 0 0 0 0.15625,0.1875 C 5.2286728,13.812958 3.2319734,12.296936 2.40625,10.125 A 0.60785411,0.60785411 0 0 0 2.75,10.0625 c 0,0 0.081647,-0.05626 0.09375,-0.0625 z m 10.34375,0 c 0.01701,0.0088 0.125,0.0625 0.125,0.0625 a 0.60785411,0.60785411 0 0 0 0.3125,0.0625 c -0.814164,2.163216 -2.775635,3.676751 -5.1875,3.84375 A 0.60785411,0.60785411 0 0 0 8.59375,13.75 c 0,0 0.3382415,-0.572747 0.71875,-0.65625 1.724908,-0.378709 3.111032,-1.600624 3.875,-3.09375 z" />
  <g
     id="g2117"
     transform="matrix(1.1975036,0,0,1.1975036,80.128205,-529.42417)"
     style="fill:#000000">
    <g
       id="g2119"
       style="fill:#000000">
      <g
         id="g2121"
         style="fill:#000000">
        <path
           id="path2125"
           style="fill:#000000;stroke:none"
           d=""
           inkscape:connector-curvature="0" />
      </g>
      <g
         id="g2127"
         style="fill:#000000">
        <path
           id="path2131"
           style="fill:#000000;stroke:none"
           d=""
           inkscape:connector-curvature="0" />
      </g>
    </g>
  </g>
</svg>
