<?xml version="1.0" encoding="UTF-8" standalone="no"?>
<!-- Created with Inkscape (http://www.inkscape.org/) -->

<svg
   xmlns:dc="http://purl.org/dc/elements/1.1/"
   xmlns:cc="http://creativecommons.org/ns#"
   xmlns:rdf="http://www.w3.org/1999/02/22-rdf-syntax-ns#"
   xmlns:svg="http://www.w3.org/2000/svg"
   xmlns="http://www.w3.org/2000/svg"
   xmlns:sodipodi="http://sodipodi.sourceforge.net/DTD/sodipodi-0.dtd"
   xmlns:inkscape="http://www.inkscape.org/namespaces/inkscape"
   version="1.0"
   width="16"
   height="16"
   id="svg2"
   sodipodi:version="0.32"
   inkscape:version="0.48.4 r9939"
   sodipodi:docname="information.svg"
   inkscape:output_extension="org.inkscape.output.svg.inkscape">
  <metadata
     id="metadata10">
    <rdf:RDF>
      <cc:Work
         rdf:about="">
        <dc:format>image/svg+xml</dc:format>
        <dc:type
           rdf:resource="http://purl.org/dc/dcmitype/StillImage" />
        <cc:license
           rdf:resource="http://web.resource.org/cc/PublicDomain" />
        <dc:language>en</dc:language>
        <dc:title></dc:title>
      </cc:Work>
    </rdf:RDF>
  </metadata>
  <sodipodi:namedview
     inkscape:window-height="941"
     inkscape:window-width="1280"
     inkscape:pageshadow="2"
     inkscape:pageopacity="0.0"
     guidetolerance="10.0"
     gridtolerance="10.0"
     objecttolerance="10.0"
     borderopacity="1.0"
     bordercolor="#666666"
     pagecolor="#ffffff"
     id="base"
     showgrid="false"
     inkscape:zoom="32"
     inkscape:cx="6.0999961"
     inkscape:cy="9.1072873"
     inkscape:window-x="0"
     inkscape:window-y="0"
     inkscape:current-layer="svg2"
     inkscape:window-maximized="0" />
  <defs
     id="defs4">
    <inkscape:perspective
       sodipodi:type="inkscape:persp3d"
       inkscape:vp_x="0 : 290 : 1"
       inkscape:vp_y="0 : 1000 : 0"
       inkscape:vp_z="580 : 290 : 1"
       inkscape:persp3d-origin="290 : 193.33333 : 1"
       id="perspective12" />
    <style
       type="text/css"
       id="style6">
   
    .fil0 {fill:#EF7900}
   
  </style>
    <inkscape:perspective
       id="perspective6807"
       inkscape:persp3d-origin="29.116032 : 19.410688 : 1"
       inkscape:vp_z="58.232063 : 29.116032 : 1"
       inkscape:vp_y="0 : 1000 : 0"
       inkscape:vp_x="0 : 29.116032 : 1"
       sodipodi:type="inkscape:persp3d" />
  </defs>
  <path
     sodipodi:type="inkscape:offset"
     inkscape:radius="1.1767607"
     inkscape:original="M 8.15625 2.375 C 7.8510002 2.3750105 7.600497 2.4647877 7.40625 2.65625 C 7.2119997 2.8477369 7.125 3.0753128 7.125 3.375 C 7.125 3.6913605 7.2127236 3.9912104 7.4375 4.21875 C 7.6622726 4.4463076 7.9210981 4.5625071 8.1875 4.5625 C 8.3817434 4.5625071 8.5640718 4.4887803 8.75 4.375 C 8.9359178 4.2612338 9.0702249 4.1262096 9.15625 3.9375 C 9.2422719 3.7488119 9.2812428 3.5324593 9.28125 3.34375 C 9.2812428 3.0884624 9.1851969 2.8588335 8.96875 2.65625 C 8.7522998 2.4536878 8.4836924 2.3750105 8.15625 2.375 z M 8.5 5.875 C 8.1558987 6.2135533 7.8253963 6.4605579 7.53125 6.59375 C 7.0983527 6.7991074 6.6028945 6.9042179 6.03125 6.9375 L 6.03125 7.40625 C 6.430844 7.4340052 6.7140491 7.4702058 6.875 7.53125 C 7.0359472 7.5923049 7.1264487 7.6667558 7.1875 7.75 C 7.2207929 7.9331541 7.2499971 8.1092024 7.25 8.28125 L 7.25 9.65625 L 7.25 10.03125 L 7.25 10.46875 C 7.26666 10.768451 7.25 10.957052 7.25 11.0625 C 7.25 11.195699 7.25831 11.356429 7.25 11.53125 C 7.241657 11.706075 7.25 11.80841 7.25 11.875 L 7.25 11.96875 C 7.25 12.2296 7.208972 12.42508 7.15625 12.5 C 7.1035211 12.574922 7.0137474 12.6174 6.875 12.65625 L 5.9375 12.78125 L 5.9375 13.3125 C 6.0318475 13.3125 6.2134516 13.30068 6.46875 13.28125 C 6.7240483 13.26182 6.9780535 13.25 7.25 13.25 C 8.1990422 13.25 8.9651501 13.28476 9.53125 13.3125 C 9.7032972 13.32366 9.822995 13.3125 9.90625 13.3125 C 9.9783941 13.3125 10.100146 13.318 10.25 13.3125 L 10.25 12.84375 C 10.161197 12.81045 10.056097 12.80345 9.90625 12.78125 C 9.5177491 12.720198 9.2345472 12.6548 9.0625 12.59375 C 9.0403 12.405051 9.0312465 12.201849 9.03125 11.96875 L 9.09375 8.5625 C 9.09375 7.463614 9.0847 6.5631992 9.0625 5.875 L 8.5 5.875 z "
     style="font-size:48px;font-style:normal;font-variant:normal;font-weight:bold;font-stretch:normal;text-align:start;line-height:100%;writing-mode:lr-tb;text-anchor:start;fill:#fefefe;fill-opacity:0.69803923;stroke:none;font-family:Garamond;-inkscape-font-specification:Garamond Bold"
     id="path3007"
     d="M 8.15625,1.1875 C 7.6202905,1.1875184 7.0172466,1.3950746 6.59375,1.8125 6.19264,2.2079038 5.9375,2.8475691 5.9375,3.375 c 0,0.5338965 0.1758069,1.1699008 0.65625,1.65625 0.1733904,0.1755387 0.4601469,0.1949829 0.6875,0.3125 -0.074314,0.051055 -0.2129305,0.1707146 -0.25,0.1875 C 6.7720048,5.6542305 6.436262,5.7227807 5.96875,5.75 a 1.1768783,1.1768783 0 0 0 -1.125,1.1875 l 0,0.46875 a 1.1768783,1.1768783 0 0 0 1.09375,1.1875 c 0.086143,0.00598 0.05393,-0.009 0.125,0 l 0,1.0625 0,0.375 0,0.4375 a 1.1768783,1.1768783 0 0 0 0,0.0625 c 0.012728,0.228976 0,0.301856 0,0.53125 0,0.182143 0.00492,0.302763 0,0.40625 -0.00344,0.07199 3.583e-4,0.06552 0,0.125 L 5.78125,11.625 A 1.1768783,1.1768783 0 0 0 4.75,12.78125 l 0,0.53125 A 1.1768783,1.1768783 0 0 0 5.9375,14.5 c 0.1926318,0 0.3636047,-0.01136 0.625,-0.03125 0.232415,-0.01769 0.4496517,-0.03125 0.6875,-0.03125 0.9203085,0 1.6564899,0.03495 2.21875,0.0625 0.2577972,0.01672 0.459405,0 0.4375,0 0.012336,0 0.173064,0.0074 0.375,0 a 1.1768783,1.1768783 0 0 0 1.15625,-1.1875 l 0,-0.46875 A 1.1768783,1.1768783 0 0 0 10.65625,11.75 c -0.25146,-0.09429 -0.333555,-0.08502 -0.4375,-0.09375 l 0.0625,-3.0625 a 1.1768783,1.1768783 0 0 0 0,-0.03125 c 0,-1.1053469 -0.0083,-2.0077924 -0.03125,-2.71875 A 1.1768783,1.1768783 0 0 0 9.75,4.9375 c 0.1675051,-0.1701877 0.365583,-0.2736866 0.46875,-0.5 0.171216,-0.37556 0.249987,-0.7430642 0.25,-1.09375 C 10.468734,2.7933301 10.194803,2.1995648 9.78125,1.8125 9.3211629,1.3819332 8.6721718,1.1875165 8.15625,1.1875 z" />
</svg>
