<?xml version="1.0" encoding="UTF-8" standalone="no"?>
<!-- Created with Inkscape (http://www.inkscape.org/) -->

<svg
   xmlns:dc="http://purl.org/dc/elements/1.1/"
   xmlns:cc="http://creativecommons.org/ns#"
   xmlns:rdf="http://www.w3.org/1999/02/22-rdf-syntax-ns#"
   xmlns:svg="http://www.w3.org/2000/svg"
   xmlns="http://www.w3.org/2000/svg"
   xmlns:sodipodi="http://sodipodi.sourceforge.net/DTD/sodipodi-0.dtd"
   xmlns:inkscape="http://www.inkscape.org/namespaces/inkscape"
   version="1.0"
   width="16"
   height="16"
   id="svg2"
   sodipodi:version="0.32"
   inkscape:version="0.48.4 r9939"
   sodipodi:docname="h_barrier_kissing_gate_shield.svg"
   inkscape:output_extension="org.inkscape.output.svg.inkscape">
  <metadata
     id="metadata10">
    <rdf:RDF>
      <cc:Work
         rdf:about="">
        <dc:format>image/svg+xml</dc:format>
        <dc:type
           rdf:resource="http://purl.org/dc/dcmitype/StillImage" />
        <cc:license
           rdf:resource="http://web.resource.org/cc/PublicDomain" />
        <dc:language>en</dc:language>
        <dc:title></dc:title>
      </cc:Work>
    </rdf:RDF>
  </metadata>
  <sodipodi:namedview
     inkscape:window-height="1004"
     inkscape:window-width="1920"
     inkscape:pageshadow="2"
     inkscape:pageopacity="0.0"
     guidetolerance="10.0"
     gridtolerance="10.0"
     objecttolerance="10.0"
     borderopacity="1.0"
     bordercolor="#666666"
     pagecolor="#ffffff"
     id="base"
     showgrid="false"
     inkscape:zoom="32"
     inkscape:cx="5.0977596"
     inkscape:cy="7.5546476"
     inkscape:window-x="1680"
     inkscape:window-y="0"
     inkscape:current-layer="svg2"
     inkscape:window-maximized="1" />
  <defs
     id="defs4">
    <inkscape:perspective
       sodipodi:type="inkscape:persp3d"
       inkscape:vp_x="0 : 290 : 1"
       inkscape:vp_y="0 : 1000 : 0"
       inkscape:vp_z="580 : 290 : 1"
       inkscape:persp3d-origin="290 : 193.33333 : 1"
       id="perspective12" />
    <style
       type="text/css"
       id="style6">
   
    .fil0 {fill:#EF7900}
   
  </style>
    <inkscape:perspective
       id="perspective6807"
       inkscape:persp3d-origin="29.116032 : 19.410688 : 1"
       inkscape:vp_z="58.232063 : 29.116032 : 1"
       inkscape:vp_y="0 : 1000 : 0"
       inkscape:vp_x="0 : 29.116032 : 1"
       sodipodi:type="inkscape:persp3d" />
    <inkscape:perspective
       id="perspective6954"
       inkscape:persp3d-origin="290 : 193.33333 : 1"
       inkscape:vp_z="580 : 290 : 1"
       inkscape:vp_y="0 : 1000 : 0"
       inkscape:vp_x="0 : 290 : 1"
       sodipodi:type="inkscape:persp3d" />
    <inkscape:perspective
       id="perspective2541"
       inkscape:persp3d-origin="240 : 160 : 1"
       inkscape:vp_z="480 : 240 : 1"
       inkscape:vp_y="0 : 1000 : 0"
       inkscape:vp_x="0 : 240 : 1"
       sodipodi:type="inkscape:persp3d" />
    <inkscape:perspective
       id="perspective2750"
       inkscape:persp3d-origin="215 : 143.33333 : 1"
       inkscape:vp_z="430 : 215 : 1"
       inkscape:vp_y="0 : 1000 : 0"
       inkscape:vp_x="0 : 215 : 1"
       sodipodi:type="inkscape:persp3d" />
    <inkscape:perspective
       id="perspective3730"
       inkscape:persp3d-origin="88.929146 : 101.19778 : 1"
       inkscape:vp_z="177.85829 : 151.79668 : 1"
       inkscape:vp_y="0 : 1000 : 0"
       inkscape:vp_x="0 : 151.79668 : 1"
       sodipodi:type="inkscape:persp3d" />
  </defs>
  <path
     sodipodi:type="inkscape:offset"
     inkscape:radius="0.85809565"
     inkscape:original="M 7.25 2.40625 L 0.90625 6.21875 L 2.59375 9 L 8.9375 5.1875 L 7.25 2.40625 z M 11.125 5.96875 C 10.878361 5.96875 10.6875 6.1600066 10.6875 6.40625 L 10.6875 10.875 C 10.6875 11.120349 10.8797 11.341963 11.125 11.34375 C 11.235114 10.573738 11.886699 9.96875 12.6875 9.96875 C 13.488749 9.96875 14.140332 10.573737 14.25 11.34375 L 14.71875 11.34375 C 14.965393 11.34375 15.15625 11.121243 15.15625 10.875 L 15.15625 8.65625 C 15.15625 8.2330337 14.8125 7.75 14.8125 7.75 L 13.8125 6.40625 C 13.607937 6.1600066 13.453557 5.96875 13.125 5.96875 L 11.125 5.96875 z M 8.28125 6.1875 L 7.875 6.40625 L 9 9.125 L 9.8125 9.125 L 8.28125 6.1875 z M 12.03125 6.875 L 13.125 6.875 C 13.19707 6.875 13.28125 6.96875 13.28125 6.96875 L 14.21875 8.28125 C 14.30246 8.4037012 14.40625 8.5445245 14.40625 8.65625 L 12.03125 8.65625 L 12.03125 6.875 z M 10.21875 9.625 L 2.65625 9.65625 L 2.65625 10.84375 C 2.65625 11.089994 2.8471087 11.21875 3.09375 11.21875 C 3.09375 11.21875 3.4295877 9.9018643 4.59375 9.90625 C 5.7579121 9.91064 5.9118612 10.658645 5.9375 10.625 C 6.3459241 9.8363859 7.4375 9.9375 7.4375 9.9375 C 7.4375 9.9375 8.8394258 10.044503 8.875 11.34375 L 9.78125 11.34375 C 10.027894 11.34375 10.21875 11.121243 10.21875 10.875 C 10.25812 10.368648 10.21875 9.625 10.21875 9.625 z M 4.65625 10.53125 C 4.0844384 10.53125 3.625 10.991611 3.625 11.5625 C 3.625 12.133389 4.0844384 12.59375 4.65625 12.59375 C 5.2280616 12.59375 5.71875 12.133389 5.71875 11.5625 C 5.71875 10.991611 5.2280616 10.53125 4.65625 10.53125 z M 7.3125 10.53125 C 6.7406884 10.53125 6.28125 10.991611 6.28125 11.5625 C 6.28125 12.133389 6.7406884 12.59375 7.3125 12.59375 C 7.8843116 12.59375 8.34375 12.133389 8.34375 11.5625 C 8.34375 10.991611 7.8843116 10.53125 7.3125 10.53125 z M 12.6875 10.53125 C 12.115688 10.53125 11.65625 10.991611 11.65625 11.5625 C 11.65625 12.133389 12.115688 12.59375 12.6875 12.59375 C 13.259312 12.59375 13.71875 12.133389 13.71875 11.5625 C 13.71875 10.991611 13.259312 10.53125 12.6875 10.53125 z "
     style="opacity:0.8479996;color:#000000;fill:#f1eae4;fill-opacity:1;fill-rule:nonzero;stroke:none;stroke-width:4.81759071;marker:none;visibility:visible;display:inline;overflow:visible;enable-background:accumulate"
     id="path3807"
     d="M 7.09375,1.5625 A 0.85818146,0.85818146 0 0 0 6.8125,1.65625 L 0.46875,5.46875 A 0.85818146,0.85818146 0 0 0 0.1875,6.65625 L 1.84375,9.375 A 0.85818146,0.85818146 0 0 0 1.8125,9.65625 l 0,1.1875 c 0,0.344819 0.166978,0.720622 0.4375,0.9375 0.2314466,0.185551 0.4787242,0.231988 0.71875,0.25 0.2299445,0.783921 0.8354763,1.40625 1.6875,1.40625 0.5058061,0 0.9634099,-0.20383 1.3125,-0.53125 0.0069,0.0069 0.024242,-0.0068 0.03125,0 0.3414378,0.331405 0.8066939,0.53125 1.3125,0.53125 0.7919065,0 1.3471312,-0.549335 1.625,-1.25 l 0.84375,0 c 0.280542,0 0.484229,-0.137935 0.6875,-0.28125 0.169403,0.112179 0.340768,0.230664 0.5625,0.25 0.267542,0.720671 0.849857,1.28125 1.65625,1.28125 0.791907,0 1.347131,-0.549335 1.625,-1.25 l 0.40625,0 C 15.481476,12.1875 16,11.564636 16,10.875 l 0,-2.21875 c 0,-0.4439325 -0.133338,-0.7642521 -0.25,-1 C 15.633338,7.4205021 15.5,7.25 15.5,7.25 l -1,-1.34375 A 0.85818146,0.85818146 0 0 0 14.46875,5.84375 C 14.368446,5.7230091 14.254909,5.5732892 14.03125,5.40625 13.807591,5.2392108 13.455781,5.125 13.125,5.125 l -2,0 c -0.690247,0 -1.28125,0.5916052 -1.28125,1.28125 l 0,0.9375 L 9.1875,6.0625 9.375,5.9375 A 0.85818146,0.85818146 0 0 0 9.65625,4.75 L 7.96875,1.96875 A 0.85818146,0.85818146 0 0 0 7.09375,1.5625 z m 0.1875,5.625 0.65625,1.59375 -3.34375,0.03125 2.6875,-1.625 z" />
</svg>
