<?xml version="1.0" encoding="UTF-8" standalone="no"?>
<!-- Generator: Adobe Illustrator 16.0.4, SVG Export Plug-In . SVG Version: 6.00 Build 0)  -->

<svg
   xmlns:dc="http://purl.org/dc/elements/1.1/"
   xmlns:cc="http://creativecommons.org/ns#"
   xmlns:rdf="http://www.w3.org/1999/02/22-rdf-syntax-ns#"
   xmlns:svg="http://www.w3.org/2000/svg"
   xmlns="http://www.w3.org/2000/svg"
   xmlns:sodipodi="http://sodipodi.sourceforge.net/DTD/sodipodi-0.dtd"
   xmlns:inkscape="http://www.inkscape.org/namespaces/inkscape"
   version="1.1"
   id="Слой_1"
   x="0px"
   y="0px"
   width="32"
   height="32"
   viewBox="405.161 282.944 32 32.000001"
   enable-background="new 405.161 282.944 30.229 30.276"
   xml:space="preserve"
   inkscape:version="0.91 r13725"
   sodipodi:docname="h_logging_selective_cutting_shader.svg"><metadata
     id="metadata13"><rdf:RDF><cc:Work
         rdf:about=""><dc:format>image/svg+xml</dc:format><dc:type
           rdf:resource="http://purl.org/dc/dcmitype/StillImage" /><dc:title /></cc:Work></rdf:RDF></metadata><defs
     id="defs11" /><sodipodi:namedview
     pagecolor="#ffffff"
     bordercolor="#666666"
     borderopacity="1"
     objecttolerance="10"
     gridtolerance="10"
     guidetolerance="10"
     inkscape:pageopacity="0"
     inkscape:pageshadow="2"
     inkscape:window-width="1920"
     inkscape:window-height="1006"
     id="namedview9"
     showgrid="false"
     inkscape:zoom="11.313709"
     inkscape:cx="13.024055"
     inkscape:cy="20.275449"
     inkscape:window-x="1920"
     inkscape:window-y="0"
     inkscape:window-maximized="1"
     inkscape:current-layer="Слой_1" /><path
     style="fill:#bdcfa6;fill-opacity:1;stroke:none;color:#000000;clip-rule:nonzero;display:inline;overflow:visible;visibility:visible;opacity:1;isolation:auto;mix-blend-mode:normal;color-interpolation:sRGB;color-interpolation-filters:linearRGB;solid-color:#000000;solid-opacity:1;fill-rule:evenodd;stroke-width:1px;stroke-linecap:butt;stroke-linejoin:miter;stroke-miterlimit:4;stroke-dasharray:none;stroke-dashoffset:0;stroke-opacity:1;filter-blend-mode:normal;filter-gaussianBlur-deviation:0;color-rendering:auto;image-rendering:auto;shape-rendering:auto;text-rendering:auto;enable-background:accumulate"
     d="m 419.33373,307.88985 c 0.90007,0.40266 2.23154,0.68283 2.23154,0.68283 l 0.35767,0.93763 c -0.0318,-0.0476 -2.00777,-0.0449 -2.30498,-0.10455 -1.18434,-0.23768 -2.08855,0.16422 -2.08855,0.16422 0,0 0.47791,-0.87481 0.62002,-0.94587 0.14211,-0.071 1.1843,-0.73427 1.1843,-0.73426 z"
     id="path3766"
     inkscape:connector-curvature="0"
     sodipodi:nodetypes="cccsccc" /><path
     style="color:#000000;display:inline;overflow:visible;visibility:visible;fill:#bdcfa6;fill-opacity:1;fill-rule:evenodd;stroke:none;marker:none;enable-background:accumulate;clip-rule:nonzero;opacity:1;isolation:auto;mix-blend-mode:normal;color-interpolation:sRGB;color-interpolation-filters:linearRGB;solid-color:#000000;solid-opacity:1;stroke-width:1px;stroke-linecap:butt;stroke-linejoin:miter;stroke-miterlimit:4;stroke-dasharray:none;stroke-dashoffset:0;stroke-opacity:1;filter-blend-mode:normal;filter-gaussianBlur-deviation:0;color-rendering:auto;image-rendering:auto;shape-rendering:auto;text-rendering:auto"
     d="m 418.19262,304.68183 -1.33857,-0.0924 c 0,0 -0.11338,1.64384 -0.16155,2.70023 -0.0403,0.88446 -0.91862,1.42103 -1.61553,1.68476 0.11272,-0.0145 0.17798,0.15118 0.27695,0.13848 1.42166,-0.18269 1.51913,-0.33981 1.68476,0.023 0.10949,0.23989 0.48465,0.4385 0.48465,0.4385 0.72856,-0.66208 1.24096,-0.75399 1.93863,-0.2308 0.0933,0.07 0.17742,-0.0113 0.27695,0 -0.27288,-0.38962 -0.43541,-0.76231 -1.01547,-1.20009 -0.22191,-0.16749 -0.37129,-0.47394 -0.46158,-0.85392 -0.0903,-0.37998 -0.12905,-0.82336 -0.13847,-1.24627 -0.0159,-0.71313 0.0491,-1.17415 0.0692,-1.36165 z"
     id="path3792"
     inkscape:connector-curvature="0" /><path
     style="fill:#bdcfa6;fill-opacity:1;stroke:none;color:#000000;clip-rule:nonzero;display:inline;overflow:visible;visibility:visible;opacity:1;isolation:auto;mix-blend-mode:normal;color-interpolation:sRGB;color-interpolation-filters:linearRGB;solid-color:#000000;solid-opacity:1;fill-rule:evenodd;stroke-width:1px;stroke-linecap:butt;stroke-linejoin:miter;stroke-miterlimit:4;stroke-dasharray:none;stroke-dashoffset:0;stroke-opacity:1;filter-blend-mode:normal;filter-gaussianBlur-deviation:0;color-rendering:auto;image-rendering:auto;shape-rendering:auto;text-rendering:auto;enable-background:accumulate"
     d="m 418.19262,304.68183 c -0.0202,0.1875 -0.0851,0.64852 -0.0692,1.36165 0.01,0.4229 0.0481,0.86627 0.13848,1.24626 0.0903,0.37998 0.23966,0.68643 0.46158,0.85392 0.58006,0.43779 0.74259,0.81047 1.01546,1.2001 0.21587,0.0245 0.44888,0.0385 0.60005,-0.0231 0,0 -1.24446,-1.64307 -1.29242,-2.30789 -0.0712,-0.98684 -0.023,-2.26173 -0.023,-2.26173 l -0.83084,-0.0692 z"
     id="path3764"
     inkscape:connector-curvature="0" /><path
     style="fill:#bdcfa6;fill-opacity:1;stroke:none;color:#000000;clip-rule:nonzero;display:inline;overflow:visible;visibility:visible;opacity:1;isolation:auto;mix-blend-mode:normal;color-interpolation:sRGB;color-interpolation-filters:linearRGB;solid-color:#000000;solid-opacity:1;fill-rule:evenodd;stroke-width:1px;stroke-linecap:butt;stroke-linejoin:miter;stroke-miterlimit:4;stroke-dasharray:none;stroke-dashoffset:0;stroke-opacity:1;filter-blend-mode:normal;filter-gaussianBlur-deviation:0;color-rendering:auto;image-rendering:auto;shape-rendering:auto;text-rendering:auto;enable-background:accumulate"
     d="m 412.64338,291.47697 c 0.98103,0.43888 1.99338,1.18313 1.99338,1.18313 l 0.82872,0.58308 c -0.0346,-0.0519 -2.18836,-0.0489 -2.5123,-0.11395 -1.29088,-0.25905 -2.76694,0.179 -2.76694,0.179 0,0 1.01141,-0.95351 1.16631,-1.03095 0.1549,-0.0774 1.29083,-0.80032 1.29083,-0.80031 z"
     id="path3766-3"
     inkscape:connector-curvature="0"
     sodipodi:nodetypes="cccsccc" /><path
     style="color:#000000;display:inline;overflow:visible;visibility:visible;fill:#bdcfa6;fill-opacity:1;fill-rule:evenodd;stroke:none;marker:none;enable-background:accumulate;clip-rule:nonzero;opacity:1;isolation:auto;mix-blend-mode:normal;color-interpolation:sRGB;color-interpolation-filters:linearRGB;solid-color:#000000;solid-opacity:1;stroke-width:1px;stroke-linecap:butt;stroke-linejoin:miter;stroke-miterlimit:4;stroke-dasharray:none;stroke-dashoffset:0;stroke-opacity:1;filter-blend-mode:normal;filter-gaussianBlur-deviation:0;color-rendering:auto;image-rendering:auto;shape-rendering:auto;text-rendering:auto"
     d="m 411.40875,287.74763 -1.47723,0.37401 c 0,0 -0.11445,1.54982 -0.16696,2.70124 -0.0439,0.96401 -1.77574,1.88446 -2.53533,2.17192 0.12285,-0.0159 0.63286,0.11314 0.74073,0.0993 1.54954,-0.19911 1.60414,-0.62853 1.78468,-0.23305 0.11934,0.26147 0.24427,0.65866 0.24427,0.65866 0.79409,-0.72162 2.02381,-1.02834 2.78423,-0.45808 0.1017,0.0762 0.19338,-0.0123 0.30186,0 -0.29742,-0.42468 -0.47456,-0.83088 -1.10681,-1.30805 -0.24188,-0.18256 -0.4047,-0.51658 -0.5031,-0.93073 -0.0984,-0.41417 -0.14066,-0.89742 -0.15093,-1.35836 -0.0173,-0.77728 0.0626,-1.51253 0.0845,-1.71689 z"
     id="path3792-9"
     inkscape:connector-curvature="0"
     sodipodi:nodetypes="ccccccccccsccc" /><path
     style="fill:#bdcfa6;fill-opacity:1;stroke:none;color:#000000;clip-rule:nonzero;display:inline;overflow:visible;visibility:visible;opacity:1;isolation:auto;mix-blend-mode:normal;color-interpolation:sRGB;color-interpolation-filters:linearRGB;solid-color:#000000;solid-opacity:1;fill-rule:evenodd;stroke-width:1px;stroke-linecap:butt;stroke-linejoin:miter;stroke-miterlimit:4;stroke-dasharray:none;stroke-dashoffset:0;stroke-opacity:1;filter-blend-mode:normal;filter-gaussianBlur-deviation:0;color-rendering:auto;image-rendering:auto;shape-rendering:auto;text-rendering:auto;enable-background:accumulate"
     d="m 411.39962,287.76132 c -0.022,0.20436 -0.0928,0.92592 -0.0754,1.7032 0.0103,0.46094 0.0525,0.94419 0.15093,1.35836 0.0984,0.41415 0.26122,0.74817 0.5031,0.93073 0.63225,0.47717 0.80939,0.88337 1.10681,1.30805 0.23529,0.0266 0.48925,0.0419 0.65402,-0.0251 0,0 -1.3564,-1.79086 -1.40867,-2.51548 -0.51647,-0.55928 -0.48981,-2.28446 -0.48981,-2.28446 l -0.35417,-0.4739 z"
     id="path3764-5"
     inkscape:connector-curvature="0"
     sodipodi:nodetypes="cccccccccc" /><path
     style="color:#000000;clip-rule:nonzero;display:inline;overflow:visible;visibility:visible;isolation:auto;mix-blend-mode:normal;color-interpolation:sRGB;color-interpolation-filters:linearRGB;solid-color:#000000;solid-opacity:1;fill:#bdcfa6;fill-opacity:1;fill-rule:evenodd;stroke:none;stroke-width:1px;stroke-linecap:butt;stroke-linejoin:miter;stroke-miterlimit:4;stroke-dasharray:none;stroke-dashoffset:0;stroke-opacity:1;marker:none;color-rendering:auto;image-rendering:auto;shape-rendering:auto;text-rendering:auto;enable-background:accumulate;opacity:1;filter-blend-mode:normal;filter-gaussianBlur-deviation:0"
     d="m 428.33001,294.3935 c 0.76381,-0.52078 0.47749,5.5239 0.47749,5.5239 0.52993,0.15083 1.16189,0.1231 1.87343,-0.0439 0,0 -0.39405,-2.52465 -0.24222,-3.71495 0.15184,-1.19031 1.94369,-2.50245 1.96479,-2.66092 0.0184,-0.138 -1.76279,1.1204 -1.74457,0.98711 0.23947,-1.75172 0.45154,-3.0579 0.26949,-2.92238 -0.56145,0.41794 -1.16397,5.26752 -1.55778,2.93167 -0.38451,-2.28069 -1.04064,-0.10055 -1.04064,-0.10055 z"
     id="path3756-4"
     inkscape:connector-curvature="0"
     sodipodi:nodetypes="ccczsssscc" /><path
     style="color:#000000;clip-rule:nonzero;display:inline;overflow:visible;visibility:visible;isolation:auto;mix-blend-mode:normal;color-interpolation:sRGB;color-interpolation-filters:linearRGB;solid-color:#000000;solid-opacity:1;fill:#bdcfa6;fill-opacity:1;fill-rule:evenodd;stroke:none;stroke-width:1px;stroke-linecap:butt;stroke-linejoin:miter;stroke-miterlimit:4;stroke-dasharray:none;stroke-dashoffset:0;stroke-opacity:1;marker:none;color-rendering:auto;image-rendering:auto;shape-rendering:auto;text-rendering:auto;enable-background:accumulate;opacity:1;filter-blend-mode:normal;filter-gaussianBlur-deviation:0"
     d="m 425.112,297.70389 c 0.004,-0.23546 0.7782,-2.18486 0.7782,-2.18486 l -0.30525,-0.0434 0.97743,-2.73497 -0.3931,0.0739 1.12254,-2.86821 -0.35129,0.0719 1.29796,-3.11431 -0.22997,0.0761 c 0,0 0.93233,-2.20777 1.54754,-3.2364 0.36318,0.94535 0.8392,2.12596 1.20305,3.13187 0.0474,0.13109 -0.27869,-0.1229 -0.23168,0.009 0.10564,0.29583 1.2614,3.07976 1.2614,3.07976 l -0.3176,-0.0302 1.0228,2.83847 -0.38951,-0.10303 1.08488,2.62028 -0.3528,0.0137 c 0,0 0.85516,1.60825 1.00787,2.34703 -0.15538,0.18376 -0.50048,0.0689 -0.996,0.22252 -0.22745,0.0705 -0.29648,0.48272 -0.7316,0.49905 -0.44008,0.0165 -2.04732,-0.32707 -2.47927,-0.30048 -0.70933,0.0437 -1.00152,0.41584 -1.66381,0.38311 -0.24882,-0.0123 -0.68845,-0.44756 -0.9195,-0.40403 -1.47636,0.27817 -1.82547,-0.14032 -1.94229,-0.3465 z"
     id="path2986-1"
     inkscape:connector-curvature="0"
     sodipodi:nodetypes="ccccccccccsscccccccsssssc" /></svg>