<?xml version="1.0" encoding="UTF-8" standalone="no"?>
<!-- Created with Inkscape (http://www.inkscape.org/) -->

<svg
   xmlns:dc="http://purl.org/dc/elements/1.1/"
   xmlns:cc="http://creativecommons.org/ns#"
   xmlns:rdf="http://www.w3.org/1999/02/22-rdf-syntax-ns#"
   xmlns:svg="http://www.w3.org/2000/svg"
   xmlns="http://www.w3.org/2000/svg"
   xmlns:sodipodi="http://sodipodi.sourceforge.net/DTD/sodipodi-0.dtd"
   xmlns:inkscape="http://www.inkscape.org/namespaces/inkscape"
   version="1.0"
   width="16"
   height="16"
   id="svg2"
   sodipodi:version="0.32"
   inkscape:version="0.48.4 r9939"
   sodipodi:docname="h_windmill_shield.svg"
   inkscape:output_extension="org.inkscape.output.svg.inkscape">
  <metadata
     id="metadata2975">
    <rdf:RDF>
      <cc:Work
         rdf:about="">
        <dc:format>image/svg+xml</dc:format>
        <dc:type
           rdf:resource="http://purl.org/dc/dcmitype/StillImage" />
        <cc:license
           rdf:resource="http://web.resource.org/cc/PublicDomain" />
        <dc:language>en</dc:language>
        <dc:title></dc:title>
      </cc:Work>
    </rdf:RDF>
  </metadata>
  <sodipodi:namedview
     inkscape:window-height="1004"
     inkscape:window-width="1920"
     inkscape:pageshadow="2"
     inkscape:pageopacity="0.0"
     guidetolerance="10.0"
     gridtolerance="10.0"
     objecttolerance="10.0"
     borderopacity="1.0"
     bordercolor="#666666"
     pagecolor="#ffffff"
     id="base"
     inkscape:zoom="45.254834"
     inkscape:cx="7.0882661"
     inkscape:cy="7.623232"
     inkscape:window-x="1680"
     inkscape:window-y="0"
     inkscape:current-layer="svg2"
     showgrid="false"
     inkscape:window-maximized="1" />
  <defs
     id="defs4">
    <inkscape:perspective
       sodipodi:type="inkscape:persp3d"
       inkscape:vp_x="0 : 290 : 1"
       inkscape:vp_y="0 : 1000 : 0"
       inkscape:vp_z="580 : 290 : 1"
       inkscape:persp3d-origin="290 : 193.33333 : 1"
       id="perspective2441" />
    <inkscape:perspective
       id="perspective3452"
       inkscape:persp3d-origin="30 : 20 : 1"
       inkscape:vp_z="60 : 30 : 1"
       inkscape:vp_y="0 : 1000 : 0"
       inkscape:vp_x="0 : 30 : 1"
       sodipodi:type="inkscape:persp3d" />
    <symbol
       viewBox="244.5 110 489 219.9"
       id="symbol-university">
      <path
         id="path4460"
         d="m 79,43 57,119 c 0,0 21,-96 104,-96 83,0 124,106 124,106 L 407,39 489,22 0,17 79,43 z"
         inkscape:connector-curvature="0" />
      <path
         id="path4462"
         d="M 94,176 73,215"
         inkscape:connector-curvature="0"
         style="fill:none;stroke:#000000;stroke-width:20" />
      <path
         id="path4464"
         d="M 300,19 C 300,29.5 277.4,38 249.5,38 221.6,38 199,29.5 199,19 199,8.5 221.6,0 249.5,0 277.4,0 300,8.5 300,19 z"
         inkscape:connector-curvature="0" />
      <path
         id="path4466"
         d="M 112,216 96,178 64,88 C 64,88 55,80 60,53 65,26 76,29 76,29"
         ill="none"
         inkscape:connector-curvature="0"
         style="stroke:#000000;stroke-width:20" />
    </symbol>
    <inkscape:perspective
       id="perspective4471"
       inkscape:persp3d-origin="372.04724 : 350.78739 : 1"
       inkscape:vp_z="744.09448 : 526.18109 : 1"
       inkscape:vp_y="0 : 1000 : 0"
       inkscape:vp_x="0 : 526.18109 : 1"
       sodipodi:type="inkscape:persp3d" />
    <inkscape:perspective
       id="perspective4668"
       inkscape:persp3d-origin="6 : 4 : 1"
       inkscape:vp_z="12 : 6 : 1"
       inkscape:vp_y="0 : 1000 : 0"
       inkscape:vp_x="0 : 6 : 1"
       sodipodi:type="inkscape:persp3d" />
  </defs>
  <path
     sodipodi:type="inkscape:offset"
     inkscape:radius="1.0402073"
     inkscape:original="M 6.03125 2.0625 C 5.0613956 2.742055 4.0676661 3.3876241 3.21875 4.21875 C 2.4356487 5.0126092 1.9072847 6.038113 1.25 6.9375 L 2.6875 8 L 4.28125 5.71875 C 4.4703033 5.619403 4.5732396 5.8596293 4.6875 5.96875 C 6.2723456 7.539208 7.8597978 9.1395447 9.4375 10.71875 L 12.9375 14.25 L 13.5625 13.625 L 9.96875 10.1875 C 8.3590631 8.6408652 6.726072 7.0851846 5.125 5.53125 C 5.013673 5.4191416 4.7791637 5.3157596 4.875 5.125 L 7.09375 3.5 L 6.03125 2.0625 z M 10.5625 2.125 L 9.15625 3.375 L 11.0625 5.25 C 10.346904 6.0259919 9.6280448 6.7912697 8.90625 7.5625 C 9.0709527 7.7160062 9.2417179 7.8775606 9.40625 8.03125 C 10.109937 7.2402251 10.7908 6.4415083 11.5 5.65625 C 11.647927 5.5509534 12.492336 6.3795402 12.59375 6.53125 L 14.9375 7.75 C 14.809357 7.6584733 13.759103 5.1129716 13.59375 4.96875 C 13.338329 4.7449958 13.030084 4.4687649 12.71875 4.1875 L 13.21875 3.71875 L 12.84375 3.40625 L 12.375 3.875 C 11.703135 3.2597724 11.003663 2.6018166 10.5625 2.125 z M 6.84375 9.78125 C 6.727092 9.9062266 6.6165192 10.031165 6.5 10.15625 L 3.09375 13.78125 L 3.75 14.375 L 7.0625 10.65625 C 7.1714208 10.534421 7.2661982 10.434449 7.375 10.3125 C 7.1949302 10.138335 7.0239903 9.9552407 6.84375 9.78125 z "
     style="opacity:0.69029852;color:#000000;fill:#f1eae4;fill-opacity:1;fill-rule:nonzero;stroke:none;stroke-width:1.01682901;marker:none;visibility:visible;display:inline;overflow:visible;enable-background:accumulate"
     id="path3022"
     d="M 5.875,1.03125 A 1.0403113,1.0403113 0 0 0 5.4375,1.21875 C 4.4875643,1.8843484 3.4464741,2.5421106 2.5,3.46875 A 1.0403113,1.0403113 0 0 0 2.46875,3.5 C 1.5354011,4.4461709 0.99796859,5.5028295 0.40625,6.3125 A 1.0403113,1.0403113 0 0 0 0.625,7.78125 l 1.4375,1.0625 a 1.0403113,1.0403113 0 0 0 1.46875,-0.25 l 0.9375,-1.375 c 0.5794192,0.5761103 1.1387706,1.1690155 1.71875,1.75 A 1.0403113,1.0403113 0 0 0 6.09375,9.0625 C 5.9648517,9.2005897 5.8547646,9.3250338 5.75,9.4375 l -3.40625,3.625 a 1.0403113,1.0403113 0 0 0 0.0625,1.5 L 3.0625,15.15625 A 1.0403113,1.0403113 0 0 0 4.53125,15.0625 l 3.3125,-3.71875 C 7.9412895,11.234651 8.0356793,11.13514 8.15625,11 A 1.0403113,1.0403113 0 0 0 8.1875,10.96875 c 0.1617091,0.162064 0.3384188,0.307007 0.5,0.46875 l 3.5,3.53125 A 1.0403113,1.0403113 0 0 0 13.6875,15 l 0.625,-0.625 a 1.0403113,1.0403113 0 0 0 -0.03125,-1.5 L 10.6875,9.4375 C 10.480693,9.2387942 10.269845,9.0426239 10.0625,8.84375 a 1.0403113,1.0403113 0 0 0 0.125,-0.125 c 0.504026,-0.5665836 0.980842,-1.133459 1.46875,-1.6875 0.07772,0.079046 0.164666,0.2153353 0.0625,0.0625 a 1.0403113,1.0403113 0 0 0 0.40625,0.375 L 14.46875,8.6875 A 1.0403113,1.0403113 0 0 0 15.78125,7.15625 1.0403113,1.0403113 0 0 0 15.75,7.125 c -4.33e-4,0.001 0.03133,-8.655e-4 0.03125,0 C 15.753696,7.0725375 15.681217,6.9635666 15.625,6.84375 15.512566,6.6041169 15.368676,6.2710902 15.21875,5.9375 15.068824,5.6039098 14.912609,5.276436 14.78125,5 14.71557,4.861782 14.684187,4.7354441 14.625,4.625 14.595407,4.5697779 14.538358,4.5294329 14.5,4.46875 14.461642,4.4080671 14.474394,4.3559611 14.28125,4.1875 14.253235,4.1629586 14.216897,4.1196525 14.1875,4.09375 A 1.0403113,1.0403113 0 0 0 13.875,2.90625 L 13.5,2.59375 a 1.0403113,1.0403113 0 0 0 -1.09375,-0.125 C 12.004461,2.0891385 11.558932,1.6725976 11.3125,1.40625 A 1.0403113,1.0403113 0 0 0 9.875,1.34375 l -1.40625,1.25 A 1.0403113,1.0403113 0 0 0 8.125,3.34375 1.0403113,1.0403113 0 0 0 7.9375,2.875 L 6.875,1.4375 a 1.0403113,1.0403113 0 0 0 -1,-0.40625 z m 2.25,2.5 A 1.0403113,1.0403113 0 0 0 8.4375,4.125 L 9.625,5.28125 C 9.1400711,5.8020965 8.6463755,6.320056 8.15625,6.84375 A 1.0403113,1.0403113 0 0 0 8.09375,6.9375 C 7.5298322,6.396424 6.9654611,5.8531004 6.40625,5.3125 L 7.71875,4.34375 A 1.0403113,1.0403113 0 0 0 8.125,3.53125 z" />
</svg>
