<?xml version="1.0" encoding="utf-8"?>
<!-- Generator: Adobe Illustrator 16.0.4, SVG Export Plug-In . SVG Version: 6.00 Build 0)  -->
<!DOCTYPE svg PUBLIC "-//W3C//DTD SVG 1.1//EN" "http://www.w3.org/Graphics/SVG/1.1/DTD/svg11.dtd">
<svg version="1.1" id="Слой_1" xmlns="http://www.w3.org/2000/svg" xmlns:xlink="http://www.w3.org/1999/xlink" x="0px" y="0px"
	 width="59.396px" height="16.572px" viewBox="0 0 59.396 16.572" enable-background="new 0 0 59.396 16.572" xml:space="preserve">
<path fill-rule="evenodd" clip-rule="evenodd" fill="#6883E7" d="M7.826,0.002H51.57c4.314,0,7.829,3.52,7.829,7.841v0.887
	c0,4.293-3.515,7.841-7.829,7.841H7.826c-4.314,0-7.828-3.548-7.828-7.841V7.843C-0.002,3.521,3.512,0.002,7.826,0.002L7.826,0.002z
	"/>
<path fill-rule="evenodd" clip-rule="evenodd" fill="#FFFFFF" d="M8.028,1.061h43.399c3.743,0,6.8,3.062,6.8,6.811v0.744
	c0,3.749-3.057,6.811-6.8,6.811H8.028c-3.715,0-6.771-3.062-6.771-6.811V7.871C1.256,4.122,4.313,1.061,8.028,1.061L8.028,1.061z"/>
<path fill-rule="evenodd" clip-rule="evenodd" fill="#6883E7" d="M8.57,2.405h42.258c3.057,0,5.542,2.519,5.542,5.552v0.63
	c0,3.062-2.485,5.551-5.542,5.551H8.57c-3.058,0-5.542-2.489-5.542-5.551v-0.63C3.028,4.924,5.512,2.405,8.57,2.405L8.57,2.405z"/>
</svg>
