<?xml version="1.0" encoding="utf-8"?>
<!-- Generator: Adobe Illustrator 16.0.4, SVG Export Plug-In . SVG Version: 6.00 Build 0)  -->
<!DOCTYPE svg PUBLIC "-//W3C//DTD SVG 1.1//EN" "http://www.w3.org/Graphics/SVG/1.1/DTD/svg11.dtd">
<svg version="1.1" id="Слой_1" xmlns="http://www.w3.org/2000/svg" xmlns:xlink="http://www.w3.org/1999/xlink" x="0px" y="0px"
	 width="59.397px" height="16.572px" viewBox="389.621 287.656 59.397 16.572"
	 enable-background="new 389.621 287.656 59.397 16.572" xml:space="preserve">
<path fill="#809BFF" d="M441.19,287.656h-43.743c-4.313,0-7.827,3.52-7.825,7.842v0.89c0,4.293,3.514,7.841,7.825,7.841h43.743
	c4.314,0,7.829-3.548,7.829-7.841v-0.89C449.019,291.177,445.504,287.656,441.19,287.656z M447.847,296.271
	c0,3.749-3.061,6.812-6.8,6.812h-43.399c-3.715,0-6.771-3.062-6.771-6.812v-0.744c0-3.751,3.057-6.812,6.771-6.812h43.399
	c3.739,0,6.8,3.062,6.8,6.812V296.271z"/>
<path fill="#809BFF" d="M398.19,290.06h42.258c3.061,0,5.542,2.52,5.542,5.552v0.631c0,3.062-2.481,5.551-5.542,5.551H398.19
	c-3.059,0-5.542-2.486-5.542-5.551v-0.631C392.648,292.578,395.133,290.06,398.19,290.06L398.19,290.06z"/>
</svg>
