<svg width="32" height="32" viewBox="0 0 32 32" fill="none" xmlns="http://www.w3.org/2000/svg">
<g clip-path="url(#clip0)">
<path d="M32 0H1.52588e-05V32H32V0Z" fill="#E6DCD1"/>
<path d="M8.5596 19.1146C5.22142 22.4869 4.8649 30.0083 11.2856 26.7917C9.50091 31.9774 17.0116 32.6378 21.169 26.8374C21.7807 35.1389 29.8027 30.7027 31.1343 26.4826" stroke="#CFBEAC"/>
<path d="M9.95343 15.4097C9.95343 15.5271 9.90679 15.6397 9.82377 15.7227C9.74075 15.8058 9.62816 15.8524 9.51075 15.8524C9.39334 15.8524 9.28075 15.8058 9.19773 15.7227C9.11471 15.6397 9.06807 15.5271 9.06807 15.4097C9.06807 15.2923 9.11471 15.1797 9.19773 15.0967C9.28075 15.0137 9.39334 14.967 9.51075 14.967C9.62816 14.967 9.74075 15.0137 9.82377 15.0967C9.90679 15.1797 9.95343 15.2923 9.95343 15.4097V15.4097Z" stroke="#CFBEAC"/>
<path d="M23.7673 18.1404C21.5775 21.1495 16.399 22.7056 15.2484 16.3014C11.6535 21.9768 3.09804 18.2905 3.32027 10.7298C1.98426 11.9373 1.89051 12.4236 0.078598 13.6169" stroke="#CFBEAC"/>
<path d="M0.723709 0.0527344C0.779909 7.53199 8.30447 10.8841 13.4235 6.41287C13.8888 8.59858 17.8558 14.1813 22.0133 8.38089C23.1639 14.7851 29.8468 15.837 32.8491 13.4529" stroke="#CFBEAC"/>
<path d="M24.6302 23.8125C24.6302 23.9299 24.5835 24.0425 24.5005 24.1255C24.4175 24.2085 24.3049 24.2552 24.1875 24.2552C24.0701 24.2552 23.9575 24.2085 23.8745 24.1255C23.7915 24.0425 23.7448 23.9299 23.7448 23.8125C23.7448 23.6951 23.7915 23.5825 23.8745 23.4995C23.9575 23.4165 24.0701 23.3698 24.1875 23.3698C24.3049 23.3698 24.4175 23.4165 24.5005 23.4995C24.5835 23.5825 24.6302 23.6951 24.6302 23.8125V23.8125Z" stroke="#CFBEAC"/>
<path d="M30.0677 20.75C30.0677 20.8674 30.021 20.98 29.938 21.063C29.855 21.146 29.7424 21.1927 29.625 21.1927C29.5076 21.1927 29.395 21.146 29.312 21.063C29.229 20.98 29.1823 20.8674 29.1823 20.75C29.1823 20.6326 29.229 20.52 29.312 20.437C29.395 20.354 29.5076 20.3073 29.625 20.3073C29.7424 20.3073 29.855 20.354 29.938 20.437C30.021 20.52 30.0677 20.6326 30.0677 20.75V20.75Z" stroke="#CFBEAC"/>
<path d="M20.6764 0.0643228C20.6764 0.181729 20.6298 0.294326 20.5468 0.377345C20.4637 0.460363 20.3511 0.507003 20.2337 0.507003C20.1163 0.507003 20.0037 0.460363 19.9207 0.377345C19.8377 0.294326 19.7911 0.181729 19.7911 0.0643228C19.7911 -0.0530832 19.8377 -0.16568 19.9207 -0.248699C20.0037 -0.331717 20.1163 -0.378357 20.2337 -0.378357C20.3511 -0.378357 20.4637 -0.331717 20.5468 -0.248699C20.6298 -0.16568 20.6764 -0.0530832 20.6764 0.0643228V0.0643228Z" stroke="#CFBEAC"/>
<path d="M19.9427 15.25C19.9427 15.3674 19.896 15.48 19.813 15.563C19.73 15.646 19.6174 15.6927 19.5 15.6927C19.3826 15.6927 19.27 15.646 19.187 15.563C19.104 15.48 19.0573 15.3674 19.0573 15.25C19.0573 15.1326 19.104 15.02 19.187 14.937C19.27 14.854 19.3826 14.8073 19.5 14.8073C19.6174 14.8073 19.73 14.854 19.813 14.937C19.896 15.02 19.9427 15.1326 19.9427 15.25V15.25Z" stroke="#CFBEAC"/>
<path opacity="0.873134" d="M29.5217 4.55539C28.8342 6.00913 27.8793 6.66821 26.5857 6.66821C25.2921 6.66821 24.8371 5.94663 24.8371 4.55539C24.8371 3.16415 27.742 1.32922 29.0356 1.32922C30.3292 1.32922 29.6155 3.2579 29.5217 4.55539Z" stroke="#CFBEAC"/>
<path opacity="0.873134" d="M3.54442 27.5197C3.1829 28.2842 2.68076 28.6308 2.00053 28.6308C1.3203 28.6308 1.08107 28.2513 1.08107 27.5197C1.08107 26.7882 2.60853 25.8233 3.28877 25.8233C3.969 25.8233 3.59371 26.8375 3.54442 27.5197" stroke="#CFBEAC"/>
<path opacity="0.873134" d="M17.4214 25.31C17.0598 26.0744 16.5577 26.421 15.8775 26.421C15.1972 26.421 15.0464 26.2184 14.3393 25.6636C13.6322 25.1088 14.9829 23.702 15.6631 23.702C16.3434 23.702 17.4707 24.6277 17.4214 25.31" stroke="#CFBEAC"/>
<path opacity="0.873134" d="M13.1171 4.37173C12.3362 4.82197 11.5441 4.82135 10.663 4.40963C9.78202 3.99787 9.66956 3.72916 8.98066 2.81557C8.29176 1.90198 11.2644 1.79102 11.4977 1.90002C11.7309 2.00902 11.9782 2.19379 12.2093 2.41708C12.8514 3.03724 13.3693 3.95463 13.1171 4.37176" stroke="#CFBEAC"/>
<path d="M20.6764 32.0643C20.6764 32.1817 20.6298 32.2943 20.5468 32.3773C20.4637 32.4604 20.3511 32.507 20.2337 32.507C20.1163 32.507 20.0037 32.4604 19.9207 32.3773C19.8377 32.2943 19.7911 32.1817 19.7911 32.0643C19.7911 31.9469 19.8377 31.8343 19.9207 31.7513C20.0037 31.6683 20.1163 31.6216 20.2337 31.6216C20.3511 31.6216 20.4637 31.6683 20.5468 31.7513C20.6298 31.8343 20.6764 31.9469 20.6764 32.0643V32.0643Z" stroke="#CFBEAC"/>
</g>
<defs>
<clipPath id="clip0">
<path d="M0 0H32V32H0V0Z" fill="white"/>
</clipPath>
</defs>
</svg>
