<svg width="42" height="42" viewBox="0 0 42 42" fill="none" xmlns="http://www.w3.org/2000/svg">
<path d="M7.05099 24.902H6.04099V29.839H7.05099V24.902Z" fill="#09831F"/>
<path d="M11.051 24.902H10.041V29.839H11.051V24.902Z" fill="#09831F"/>
<path d="M14.999 24.902H11.998V29.839H13.01V27.925H14.999H16.01V24.904L14.999 24.902ZM14.999 26.814H13.01V25.915H14.999V26.814Z" fill="#09831F"/>
<path d="M27.099 3.77399H26.087V8.70898H27.099V3.77399Z" fill="#09831F"/>
<path d="M31.099 3.77399H30.087V8.70898H31.099V3.77399Z" fill="#09831F"/>
<path d="M35.046 3.77399H32.044V8.70898H33.058V6.797H35.046H36.058V3.77597L35.046 3.77399ZM35.046 5.68597H33.058V4.784H35.046V5.68597Z" fill="#09831F"/>
<path d="M34.046 6.68597H35.06L36.069 7.69699V8.70697H35.06L34.046 7.69699V6.68597Z" fill="#09831F"/>
<path d="M27.099 4.58698H28.11L30.13 6.66599V7.67697H29.121L27.099 5.59799V4.58698Z" fill="#09831F"/>
<path d="M14 27.816H15.011L16.022 28.826V29.838H15.011L14 28.826V27.816Z" fill="#09831F"/>
<path d="M7.05099 25.716H8.064L10.084 27.795V28.806H9.07401L7.05099 26.726V25.716Z" fill="#09831F"/>
</svg>
