<?xml version="1.0" encoding="utf-8"?>
<!-- Generator: Adobe Illustrator 16.0.4, SVG Export Plug-In . SVG Version: 6.00 Build 0)  -->
<!DOCTYPE svg PUBLIC "-//W3C//DTD SVG 1.1//EN" "http://www.w3.org/Graphics/SVG/1.1/DTD/svg11.dtd">
<svg version="1.1" id="Слой_1" xmlns="http://www.w3.org/2000/svg" xmlns:xlink="http://www.w3.org/1999/xlink" x="0px" y="0px"
	 width="42px" height="42px" viewBox="399.945 276.64 42 42" enable-background="new 399.945 276.64 42 42" xml:space="preserve">
<rect x="405.986" y="301.542" fill="#3BB551" width="1.01" height="4.937"/>
<rect x="409.986" y="301.542" fill="#3BB551" width="1.01" height="4.937"/>
<path fill="#3BB551" d="M414.944,301.542h-3.001v4.937h1.012v-1.914h1.989h1.011v-3.021L414.944,301.542L414.944,301.542z
	 M414.944,303.454h-1.989v-0.899h1.989V303.454z"/>
<rect x="426.032" y="280.414" fill="#3BB551" width="1.012" height="4.935"/>
<rect x="430.032" y="280.414" fill="#3BB551" width="1.012" height="4.935"/>
<path fill="#3BB551" d="M434.991,280.414h-3.002v4.935h1.014v-1.912h1.988h1.012v-3.021L434.991,280.414L434.991,280.414z
	 M434.991,282.326h-1.988v-0.902h1.988V282.326z"/>
<polygon fill="#3BB551" points="433.991,283.326 435.005,283.326 436.014,284.337 436.014,285.347 435.005,285.347 433.991,284.337 
	"/>
<polygon fill="#3BB551" points="427.044,281.227 428.055,281.227 430.075,283.306 430.075,284.317 429.066,284.317 427.044,282.238 
	"/>
<polygon fill="#3BB551" points="413.945,304.456 414.956,304.456 415.967,305.466 415.967,306.478 414.956,306.478 413.945,305.466 
	"/>
<polygon fill="#3BB551" points="406.996,302.356 408.009,302.356 410.029,304.435 410.029,305.446 409.019,305.446 406.996,303.366 
	"/>
</svg>
