<?xml version="1.0" encoding="UTF-8" standalone="no"?>
<!-- Created with Inkscape (http://www.inkscape.org/) -->

<svg
   xmlns:dc="http://purl.org/dc/elements/1.1/"
   xmlns:cc="http://creativecommons.org/ns#"
   xmlns:rdf="http://www.w3.org/1999/02/22-rdf-syntax-ns#"
   xmlns:svg="http://www.w3.org/2000/svg"
   xmlns="http://www.w3.org/2000/svg"
   xmlns:sodipodi="http://sodipodi.sourceforge.net/DTD/sodipodi-0.dtd"
   xmlns:inkscape="http://www.inkscape.org/namespaces/inkscape"
   version="1.0"
   width="16"
   height="16"
   id="svg2"
   sodipodi:version="0.32"
   inkscape:version="0.48.4 r9939"
   sodipodi:docname="h_tower_shield.svg"
   inkscape:output_extension="org.inkscape.output.svg.inkscape">
  <metadata
     id="metadata2975">
    <rdf:RDF>
      <cc:Work
         rdf:about="">
        <dc:format>image/svg+xml</dc:format>
        <dc:type
           rdf:resource="http://purl.org/dc/dcmitype/StillImage" />
        <cc:license
           rdf:resource="http://web.resource.org/cc/PublicDomain" />
        <dc:language>en</dc:language>
        <dc:title></dc:title>
      </cc:Work>
    </rdf:RDF>
  </metadata>
  <sodipodi:namedview
     inkscape:window-height="1004"
     inkscape:window-width="1920"
     inkscape:pageshadow="2"
     inkscape:pageopacity="0.0"
     guidetolerance="10.0"
     gridtolerance="10.0"
     objecttolerance="10.0"
     borderopacity="1.0"
     bordercolor="#666666"
     pagecolor="#ffffff"
     id="base"
     inkscape:zoom="32"
     inkscape:cx="9.0018002"
     inkscape:cy="7.7169064"
     inkscape:window-x="1680"
     inkscape:window-y="0"
     inkscape:current-layer="svg2"
     showgrid="false"
     inkscape:window-maximized="1" />
  <defs
     id="defs4">
    <inkscape:perspective
       sodipodi:type="inkscape:persp3d"
       inkscape:vp_x="0 : 290 : 1"
       inkscape:vp_y="0 : 1000 : 0"
       inkscape:vp_z="580 : 290 : 1"
       inkscape:persp3d-origin="290 : 193.33333 : 1"
       id="perspective2441" />
    <inkscape:perspective
       id="perspective3452"
       inkscape:persp3d-origin="30 : 20 : 1"
       inkscape:vp_z="60 : 30 : 1"
       inkscape:vp_y="0 : 1000 : 0"
       inkscape:vp_x="0 : 30 : 1"
       sodipodi:type="inkscape:persp3d" />
    <symbol
       viewBox="244.5 110 489 219.9"
       id="symbol-university">
      <path
         id="path4460"
         d="m 79,43 57,119 c 0,0 21,-96 104,-96 83,0 124,106 124,106 L 407,39 489,22 0,17 79,43 z"
         inkscape:connector-curvature="0" />
      <path
         id="path4462"
         d="M 94,176 73,215"
         inkscape:connector-curvature="0"
         style="fill:none;stroke:#000000;stroke-width:20" />
      <path
         id="path4464"
         d="M 300,19 C 300,29.5 277.4,38 249.5,38 221.6,38 199,29.5 199,19 199,8.5 221.6,0 249.5,0 277.4,0 300,8.5 300,19 z"
         inkscape:connector-curvature="0" />
      <path
         id="path4466"
         d="M 112,216 96,178 64,88 C 64,88 55,80 60,53 65,26 76,29 76,29"
         ill="none"
         inkscape:connector-curvature="0"
         style="stroke:#000000;stroke-width:20" />
    </symbol>
    <inkscape:perspective
       id="perspective4471"
       inkscape:persp3d-origin="372.04724 : 350.78739 : 1"
       inkscape:vp_z="744.09448 : 526.18109 : 1"
       inkscape:vp_y="0 : 1000 : 0"
       inkscape:vp_x="0 : 526.18109 : 1"
       sodipodi:type="inkscape:persp3d" />
    <inkscape:perspective
       id="perspective4668"
       inkscape:persp3d-origin="6 : 4 : 1"
       inkscape:vp_z="12 : 6 : 1"
       inkscape:vp_y="0 : 1000 : 0"
       inkscape:vp_x="0 : 6 : 1"
       sodipodi:type="inkscape:persp3d" />
  </defs>
  <path
     style="opacity:0.69029852;color:#000000;fill:#f1eae4;fill-opacity:1;fill-rule:nonzero;stroke:none;stroke-width:1.01682901;marker:none;visibility:visible;display:inline;overflow:visible;enable-background:accumulate"
     d="M 13.125,-0.03125 C 12.744314,0.00895353 12.395188,0.27079797 12.25,0.625 l -0.28125,0.65625 -0.6875,0.0625 c -0.84077,0.054167 -1.265116,1.327204 -0.625,1.875 L 11.21875,3.6875 11.1875,3.75 C 10.318599,2.9331903 9.2154511,2.2958416 7.96875,2.0625 7.2252084,1.9249463 6.8925143,2.2102178 6.5602791,2.6492622 6.3374626,2.6610616 6.4698604,2.7321179 6.1875,2.4375 5.9250984,2.1721255 5.5170476,2.0608389 5.15625,2.15625 2.4984473,2.7601957 0.4375,4.9357568 0.4375,7.625 c 0.0026,0.4245105 0.005327,0.6201506 0,1 l 0,3.46875 0,0.15625 c -0.002443,0.04162 -0.002443,0.08338 0,0.125 0.16300347,1.456356 1.4159406,2.318951 2.8125,2.84375 0.2697933,0.104602 0.5824336,0.09302 0.84375,-0.03125 0.1529701,0.22163 0.3928341,0.381539 0.65625,0.4375 0.6122223,0.111903 1.255274,0.15625 1.9375,0.15625 1.5241968,0 2.9087928,-0.281952 4.03125,-0.8125 1.122457,-0.530548 2.111225,-1.353865 2.25,-2.59375 0.0024,-0.04162 0.0024,-0.08338 0,-0.125 l 0,-0.15625 0,-3.46875 c 8.37e-4,-0.5189844 -4.45e-4,-0.6614257 0,-1 0,-0.718419 -0.138762,-1.4040311 -0.40625,-2.03125 0.02117,-0.00973 0.04201,-0.020155 0.0625,-0.03125 l 0.625,-0.375 0.625,0.375 c 0.713621,0.435504 1.786297,-0.342712 1.59375,-1.15625 l -0.1875,-0.71875 0.5625,-0.46875 c 0.640116,-0.547796 0.21577,-1.8208328 -0.625,-1.875 L 14.53125,1.28125 14.25,0.625 C 14.074158,0.19238904 13.588128,-0.0911284 13.125,-0.03125 z"
     id="path3955"
     inkscape:connector-curvature="0"
     sodipodi:nodetypes="cccccccccccccccccccsscccccccccccccccc" />
</svg>
