<?xml version="1.0" encoding="UTF-8" standalone="no"?>
<svg
   xmlns:dc="http://purl.org/dc/elements/1.1/"
   xmlns:cc="http://creativecommons.org/ns#"
   xmlns:rdf="http://www.w3.org/1999/02/22-rdf-syntax-ns#"
   xmlns:svg="http://www.w3.org/2000/svg"
   xmlns="http://www.w3.org/2000/svg"
   xmlns:sodipodi="http://sodipodi.sourceforge.net/DTD/sodipodi-0.dtd"
   xmlns:inkscape="http://www.inkscape.org/namespaces/inkscape"
   width="24"
   height="24"
   id="svg2"
   version="1.1"
   inkscape:version="0.48.4 r9939"
   sodipodi:docname="h_orchard_apple.svg">
  <defs
     id="defs13" />
  <sodipodi:namedview
     pagecolor="#ffffff"
     bordercolor="#666666"
     borderopacity="1"
     objecttolerance="10"
     gridtolerance="10"
     guidetolerance="10"
     inkscape:pageopacity="0"
     inkscape:pageshadow="2"
     inkscape:window-width="1920"
     inkscape:window-height="1004"
     id="namedview11"
     showgrid="false"
     inkscape:zoom="18.414036"
     inkscape:cx="10.013926"
     inkscape:cy="15.561999"
     inkscape:window-x="1680"
     inkscape:window-y="0"
     inkscape:window-maximized="1"
     inkscape:current-layer="g5"
     fit-margin-top="0"
     fit-margin-left="0"
     fit-margin-right="0"
     fit-margin-bottom="0" />
  <metadata
     id="metadata2975">image/svg+xmlen<rdf:RDF>
  <cc:Work
     rdf:about="">
    <dc:format>image/svg+xml</dc:format>
    <dc:type
       rdf:resource="http://purl.org/dc/dcmitype/StillImage" />
    <dc:title />
  </cc:Work>
</rdf:RDF>
</metadata>
  <g
     id="g5"
     style="fill:#2f2f2f;fill-opacity:1;stroke:#fefefe;stroke-width:65.80000305;stroke-linecap:butt;stroke-linejoin:round;stroke-miterlimit:4;stroke-opacity:0.68181817;stroke-dasharray:none"
     transform="translate(-140.90542,-452.58175)">
    <title
       id="title7">Layer 1</title>
    <rect
       style="color:#000000;fill:#9ed88f;fill-opacity:1;fill-rule:nonzero;stroke:none;stroke-width:18.33399963;marker:none;visibility:visible;display:inline;overflow:visible;enable-background:accumulate"
       id="rect3782"
       width="24.076807"
       height="24.076807"
       x="140.90543"
       y="452.54333" />
    <g
       id="g1327"
       style="fill:#2f2f2f;fill-opacity:1;stroke:#fefefe;stroke-width:65.80000305;stroke-linecap:butt;stroke-linejoin:round;stroke-miterlimit:4;stroke-opacity:0.68181817;stroke-dasharray:none" />
    <path
       style="fill:#7abe66;fill-opacity:1;stroke:none"
       d="m 161.97707,455.66373 0.0135,1.03182 1.05897,0 0.0136,-1.03182 z"
       id="path3757"
       inkscape:connector-curvature="0"
       sodipodi:nodetypes="ccccc" />
    <path
       style="fill:#7abe66;fill-opacity:1;stroke:none"
       d="m 161.90977,463.9379 0.0135,1.03182 1.05897,0 0.0136,-1.03182 z"
       id="path3757-9"
       inkscape:connector-curvature="0"
       sodipodi:nodetypes="ccccc" />
    <path
       style="fill:#7abe66;fill-opacity:1;stroke:none"
       d="m 161.86662,472.03379 0.0135,1.03182 1.05897,0 0.0136,-1.03182 z"
       id="path3757-4"
       inkscape:connector-curvature="0"
       sodipodi:nodetypes="ccccc" />
    <path
       style="color:#000000;fill:#7abe66;fill-opacity:1;fill-rule:nonzero;stroke:none;stroke-width:1px;marker:none;visibility:visible;display:inline;overflow:visible;enable-background:accumulate"
       d="m 147.11143,459.85856 c -2.6608,0.16974 -3.50749,3.49784 -2.88861,6.43374 0.826,3.91852 3.29014,5.20138 3.80772,5.40958 1.26845,0.51026 2.49471,-0.42016 2.49471,-0.42016 0,0 1.17137,0.77987 2.41593,0.44642 0.37036,-0.0992 2.45999,-1.28941 3.3613,-4.88438 0.81295,-3.24258 0.3691,-5.32478 -1.12919,-6.38121 -1.49829,-1.05644 -3.09084,-0.31 -4.77934,0.42016 -1.3006,-0.7758 -2.39558,-1.08073 -3.28252,-1.02415 z m -0.0788,1.94325 c 0.40332,-0.0569 0.63732,0.29755 0.2626,1.94325 -0.37471,1.64571 -1.49262,0.9329 -1.49682,-0.55146 -0.002,-0.93267 0.83091,-1.3349 1.23422,-1.39179 z"
       id="path3918"
       inkscape:connector-curvature="0" />
    <path
       style="color:#000000;fill:#7abe66;fill-opacity:1;fill-rule:nonzero;stroke:none;stroke-width:1px;marker:none;visibility:visible;display:inline;overflow:visible;enable-background:accumulate"
       d="m 150.359,459.23981 c 2.44755,-3.22264 6.81769,-2.5967 6.81769,-2.5967 0,0 -1.39443,1.89682 -3.60858,2.67188 -0.72439,0.25358 -3.20911,-0.0752 -3.20911,-0.0752 z"
       id="path3926"
       inkscape:connector-curvature="0"
       sodipodi:nodetypes="ccsc" />
    <path
       style="fill:none;stroke:#7abe66;stroke-width:0.84032434px;stroke-linecap:butt;stroke-linejoin:miter;stroke-opacity:1"
       d="m 151.38084,456.80556 c 0,0 -1.02679,1.41469 -1.0496,4.35814"
       id="path3934"
       inkscape:connector-curvature="0" />
  </g>
</svg>
