<?xml version="1.0" encoding="UTF-8" standalone="no"?>
<svg
   xmlns:dc="http://purl.org/dc/elements/1.1/"
   xmlns:cc="http://creativecommons.org/ns#"
   xmlns:rdf="http://www.w3.org/1999/02/22-rdf-syntax-ns#"
   xmlns:svg="http://www.w3.org/2000/svg"
   xmlns="http://www.w3.org/2000/svg"
   xmlns:sodipodi="http://sodipodi.sourceforge.net/DTD/sodipodi-0.dtd"
   xmlns:inkscape="http://www.inkscape.org/namespaces/inkscape"
   width="24"
   height="24"
   id="svg2"
   version="1.1"
   inkscape:version="0.48.4 r9939"
   sodipodi:docname="h_orchard_oil_palm.svg">
  <defs
     id="defs13" />
  <sodipodi:namedview
     pagecolor="#ffffff"
     bordercolor="#666666"
     borderopacity="1"
     objecttolerance="10"
     gridtolerance="10"
     guidetolerance="10"
     inkscape:pageopacity="0"
     inkscape:pageshadow="2"
     inkscape:window-width="1920"
     inkscape:window-height="1004"
     id="namedview11"
     showgrid="false"
     inkscape:zoom="6.5103449"
     inkscape:cx="0.61737523"
     inkscape:cy="26.194275"
     inkscape:window-x="1680"
     inkscape:window-y="0"
     inkscape:window-maximized="1"
     inkscape:current-layer="g5"
     fit-margin-top="0"
     fit-margin-left="0"
     fit-margin-right="0"
     fit-margin-bottom="0" />
  <metadata
     id="metadata2975">image/svg+xmlen<rdf:RDF>
  <cc:Work
     rdf:about="">
    <dc:format>image/svg+xml</dc:format>
    <dc:type
       rdf:resource="http://purl.org/dc/dcmitype/StillImage" />
    <dc:title></dc:title>
  </cc:Work>
</rdf:RDF>
</metadata>
  <g
     id="g5"
     style="fill:#2f2f2f;fill-opacity:1;stroke:#fefefe;stroke-width:65.80000305;stroke-linecap:butt;stroke-linejoin:round;stroke-miterlimit:4;stroke-opacity:0.68181817;stroke-dasharray:none"
     transform="translate(-140.90542,-452.58175)">
    <title
       id="title7">Layer 1</title>
    <rect
       style="color:#000000;fill:#9ed88f;fill-opacity:1;fill-rule:nonzero;stroke:none;stroke-width:18.33399963;marker:none;visibility:visible;display:inline;overflow:visible;enable-background:accumulate"
       id="rect3782"
       width="24.076807"
       height="24.076807"
       x="140.90543"
       y="452.54333" />
    <g
       id="g1327"
       style="fill:#2f2f2f;fill-opacity:1;stroke:#fefefe;stroke-width:65.80000305;stroke-linecap:butt;stroke-linejoin:round;stroke-miterlimit:4;stroke-opacity:0.68181817;stroke-dasharray:none" />
    <path
       style="fill:#7abe66;fill-opacity:1;stroke:none"
       d="m 161.97707,455.66373 0.0135,1.03182 1.05897,0 0.0136,-1.03182 z"
       id="path3757"
       inkscape:connector-curvature="0"
       sodipodi:nodetypes="ccccc" />
    <path
       style="fill:#7abe66;fill-opacity:1;stroke:none"
       d="m 161.90977,463.9379 0.0135,1.03182 1.05897,0 0.0136,-1.03182 z"
       id="path3757-9"
       inkscape:connector-curvature="0"
       sodipodi:nodetypes="ccccc" />
    <path
       style="fill:#7abe66;fill-opacity:1;stroke:none"
       d="m 161.86662,472.03379 0.0135,1.03182 1.05897,0 0.0136,-1.03182 z"
       id="path3757-4"
       inkscape:connector-curvature="0"
       sodipodi:nodetypes="ccccc" />
    <path
       style="fill:#7abe66;fill-opacity:1;stroke:none"
       d="m 150.86402,465.75958 -0.39453,5.8193 c 0,0 1.30195,0.71015 2.62362,0 0.0197,-1.67675 -0.33535,-5.83903 -0.33535,-5.83903 z"
       id="path3818"
       inkscape:connector-curvature="0"
       sodipodi:nodetypes="ccccc" />
    <path
       style="color:#000000;fill:#7abe66;fill-opacity:1;fill-rule:nonzero;stroke:none;stroke-width:1px;marker:none;visibility:visible;display:inline;overflow:visible;enable-background:accumulate"
       d="m 143.72305,465.16778 c 0,0 2.6364,-1.4111 4.82461,-0.1808 2.1882,1.23031 3.14487,2.31126 3.14487,2.31126 0,0 -2.37613,-4.39192 -4.89472,-4.20173 -2.5186,0.19018 -2.68681,1.394 -3.07476,2.07127 z"
       id="path3820"
       inkscape:connector-curvature="0"
       sodipodi:nodetypes="czczc" />
    <path
       style="color:#000000;fill:#7abe66;fill-opacity:1;fill-rule:nonzero;stroke:none;stroke-width:1px;marker:none;visibility:visible;display:inline;overflow:visible;enable-background:accumulate"
       d="m 159.52037,465.59219 c 0,0 -2.58745,-1.73498 -4.84963,-0.46308 -2.26219,1.2719 -3.38928,2.66556 -3.38928,2.66556 0,0 1.33206,-4.1656 4.52758,-4.28461 2.97854,-0.0401 3.31027,1.38196 3.71133,2.08213 z"
       id="path3820-0"
       inkscape:connector-curvature="0"
       sodipodi:nodetypes="czccc" />
    <path
       style="color:#000000;fill:#7abe66;fill-opacity:1;fill-rule:nonzero;stroke:none;stroke-width:1px;marker:none;visibility:visible;display:inline;overflow:visible;enable-background:accumulate"
       d="m 160.0785,460.55322 c 0,0 -2.96986,-0.19667 -5.70557,2.46096 -2.73572,2.65762 -2.19133,6.50785 -2.19133,6.50785 0,0 -0.74196,-5.32414 1.59922,-7.64802 2.34119,-2.32389 5.56676,-1.6626 6.29768,-1.32079 z"
       id="path3820-0-0"
       inkscape:connector-curvature="0"
       sodipodi:nodetypes="czczc" />
    <path
       style="color:#000000;fill:#7abe66;fill-opacity:1;fill-rule:nonzero;stroke:none;stroke-width:1px;marker:none;visibility:visible;display:inline;overflow:visible;enable-background:accumulate"
       d="m 142.98757,461.92672 c 0,0 2.87561,-0.86621 5.7536,1.51245 2.87797,2.37865 2.63448,6.70313 2.63448,6.70313 0,0 1.26239,-5.12886 -2.22873,-7.84331 -3.49112,-2.71445 -5.38297,-0.71409 -6.15935,-0.37227 z"
       id="path3820-0-0-6"
       inkscape:connector-curvature="0"
       sodipodi:nodetypes="czczc" />
    <path
       style="color:#000000;fill:#7abe66;fill-opacity:1;fill-rule:nonzero;stroke:none;stroke-width:1px;marker:none;visibility:visible;display:inline;overflow:visible;enable-background:accumulate"
       d="m 144.39116,459.83587 c 0,0 2.35992,-0.26998 4.71801,1.65614 3.14713,2.5968 1.99144,7.46733 1.99144,7.46733 0,0 2.09931,-4.76619 -0.61069,-7.48064 -2.71,-2.71444 -4.02872,-2.21915 -6.09876,-1.64283 z"
       id="path3820-0-0-6-9"
       inkscape:connector-curvature="0"
       sodipodi:nodetypes="ccczc" />
    <path
       style="color:#000000;fill:#7abe66;fill-opacity:1;fill-rule:nonzero;stroke:none;stroke-width:1px;marker:none;visibility:visible;display:inline;overflow:visible;enable-background:accumulate"
       d="m 156.6452,457.84379 c 0,0 -2.0619,0.83471 -2.95834,3.27371 -0.94147,2.12337 -1.88494,6.47961 -1.88494,6.47961 0,0 -0.20411,-5.18382 1.18029,-7.52348 1.38439,-2.33964 1.93568,-1.76064 3.66299,-2.22984 z"
       id="path3820-0-0-6-9-2"
       inkscape:connector-curvature="0"
       sodipodi:nodetypes="ccczc" />
    <path
       style="color:#000000;fill:#7abe66;fill-opacity:1;fill-rule:nonzero;stroke:none;stroke-width:1px;marker:none;visibility:visible;display:inline;overflow:visible;enable-background:accumulate"
       d="m 147.05443,457.54745 c 0,0 3.24168,0.98633 4.05275,4.46827 0.76896,2.24173 1.33967,6.26321 1.33967,6.26321 0,0 -0.13844,-6.07152 -0.71082,-7.52348 -0.57238,-1.45196 -1.98944,-3.63689 -4.6816,-3.208 z"
       id="path3820-0-0-6-9-2-4"
       inkscape:connector-curvature="0"
       sodipodi:nodetypes="ccczc" />
    <path
       style="color:#000000;fill:#7abe66;fill-opacity:1;fill-rule:nonzero;stroke:none;stroke-width:1px;marker:none;visibility:visible;display:inline;overflow:visible;enable-background:accumulate"
       d="m 152.94976,457.00299 c 0,0 -0.24857,2.48066 -0.39178,4.78018 -0.94147,2.12337 -0.32269,6.25642 -0.32269,6.25642 0,0 -0.776,-3.09153 -0.57724,-5.93332 0.19875,-2.8418 0.0526,-3.15552 1.29171,-5.10328 z"
       id="path3820-0-0-6-9-2-0"
       inkscape:connector-curvature="0"
       sodipodi:nodetypes="ccczc" />
    <path
       sodipodi:type="arc"
       style="color:#000000;fill:#7abe66;fill-opacity:1;fill-rule:nonzero;stroke:none;stroke-width:0.69999999;marker:none;visibility:visible;display:inline;overflow:visible;enable-background:accumulate"
       id="path4001"
       sodipodi:cx="13.900953"
       sodipodi:cy="14.399894"
       sodipodi:rx="1.5744174"
       sodipodi:ry="1.5744174"
       d="m 15.473106,14.484305 a 1.5744174,1.5744174 0 1 1 1.72e-4,-0.0033"
       transform="matrix(0.62283104,0,0,0.62283104,144.76118,457.37472)"
       sodipodi:start="0.053639769"
       sodipodi:end="6.3347467"
       sodipodi:open="true" />
    <path
       sodipodi:type="arc"
       style="color:#000000;fill:#7abe66;fill-opacity:1;fill-rule:nonzero;stroke:none;stroke-width:0.69999999;marker:none;visibility:visible;display:inline;overflow:visible;enable-background:accumulate"
       id="path4003"
       sodipodi:cx="8.3520918"
       sodipodi:cy="14.380693"
       sodipodi:rx="1.632018"
       sodipodi:ry="1.632018"
       d="m 9.9817625,14.468193 a 1.632018,1.632018 0 1 1 1.783e-4,-0.0034"
       transform="matrix(0.60884286,0,0,0.60884286,144.85662,456.85455)"
       sodipodi:start="0.053639769"
       sodipodi:end="6.3347467"
       sodipodi:open="true" />
  </g>
</svg>
