<?xml version="1.0" encoding="UTF-8" standalone="no"?>
<svg
   xmlns:dc="http://purl.org/dc/elements/1.1/"
   xmlns:cc="http://creativecommons.org/ns#"
   xmlns:rdf="http://www.w3.org/1999/02/22-rdf-syntax-ns#"
   xmlns:svg="http://www.w3.org/2000/svg"
   xmlns="http://www.w3.org/2000/svg"
   xmlns:sodipodi="http://sodipodi.sourceforge.net/DTD/sodipodi-0.dtd"
   xmlns:inkscape="http://www.inkscape.org/namespaces/inkscape"
   width="16"
   height="16"
   id="svg2"
   version="1.1"
   inkscape:version="0.91 r13725"
   sodipodi:docname="h_plant_nursery.svg">
  <defs
     id="defs13" />
  <sodipodi:namedview
     pagecolor="#ffffff"
     bordercolor="#666666"
     borderopacity="1"
     objecttolerance="10"
     gridtolerance="10"
     guidetolerance="10"
     inkscape:pageopacity="0"
     inkscape:pageshadow="2"
     inkscape:window-width="1920"
     inkscape:window-height="1006"
     id="namedview11"
     showgrid="false"
     inkscape:zoom="18.414036"
     inkscape:cx="-12.517729"
     inkscape:cy="13.490658"
     inkscape:window-x="1920"
     inkscape:window-y="0"
     inkscape:window-maximized="1"
     inkscape:current-layer="g5"
     fit-margin-top="0"
     fit-margin-left="0"
     fit-margin-right="0"
     fit-margin-bottom="0" />
  <metadata
     id="metadata2975">image/svg+xmlen<rdf:RDF>
  <cc:Work
     rdf:about="">
    <dc:format>image/svg+xml</dc:format>
    <dc:type
       rdf:resource="http://purl.org/dc/dcmitype/StillImage" />
    <dc:title />
  </cc:Work>
</rdf:RDF>
</metadata>
  <g
     id="g5"
     style="fill:#2f2f2f;fill-opacity:1;stroke:#fefefe;stroke-width:65.80000305;stroke-linecap:butt;stroke-linejoin:round;stroke-miterlimit:4;stroke-opacity:0.68181817;stroke-dasharray:none"
     transform="translate(-140.90542,-460.58175)">
    <title
       id="title7">Layer 1</title>
    <g
       id="g1327"
       style="fill:#2f2f2f;fill-opacity:1;stroke:#fefefe;stroke-width:65.80000305;stroke-linecap:butt;stroke-linejoin:round;stroke-miterlimit:4;stroke-opacity:0.68181817;stroke-dasharray:none" />
    <path
       sodipodi:type="arc"
       style="color:#000000;fill:#c1e09a;fill-opacity:1;fill-rule:nonzero;stroke:none;stroke-width:18.13699913;marker:none;visibility:visible;display:inline;overflow:visible;enable-background:accumulate"
       id="path2991"
       sodipodi:cx="29.678448"
       sodipodi:cy="8.7297077"
       sodipodi:rx="1.3848132"
       sodipodi:ry="1.3848132"
       d="M 31.063261,8.7297077 A 1.3848132,1.3848132 0 0 1 29.678448,10.114521 1.3848132,1.3848132 0 0 1 28.293635,8.7297077 1.3848132,1.3848132 0 0 1 29.678448,7.3448945 1.3848132,1.3848132 0 0 1 31.063261,8.7297077 Z"
       transform="matrix(0.50275704,0,0,0.50275704,140.45441,458.52816)" />
    <path
       sodipodi:type="arc"
       style="color:#000000;fill:#c1e09a;fill-opacity:1;fill-rule:nonzero;stroke:none;stroke-width:18.13699913;marker:none;visibility:visible;display:inline;overflow:visible;enable-background:accumulate"
       id="path2991-37"
       sodipodi:cx="29.678448"
       sodipodi:cy="8.7297077"
       sodipodi:rx="1.3848132"
       sodipodi:ry="1.3848132"
       d="M 31.063261,8.7297077 A 1.3848132,1.3848132 0 0 1 29.678448,10.114521 1.3848132,1.3848132 0 0 1 28.293635,8.7297077 1.3848132,1.3848132 0 0 1 29.678448,7.3448945 1.3848132,1.3848132 0 0 1 31.063261,8.7297077 Z"
       transform="matrix(0.50275704,0,0,0.50275704,140.40032,469.51715)" />
    <path
       sodipodi:type="arc"
       style="color:#000000;fill:#c1e09a;fill-opacity:1;fill-rule:nonzero;stroke:none;stroke-width:18.13699913;marker:none;visibility:visible;display:inline;overflow:visible;enable-background:accumulate"
       id="path2991-8"
       sodipodi:cx="29.678448"
       sodipodi:cy="8.7297077"
       sodipodi:rx="1.3848132"
       sodipodi:ry="1.3848132"
       d="M 31.063261,8.7297077 A 1.3848132,1.3848132 0 0 1 29.678448,10.114521 1.3848132,1.3848132 0 0 1 28.293635,8.7297077 1.3848132,1.3848132 0 0 1 29.678448,7.3448945 1.3848132,1.3848132 0 0 1 31.063261,8.7297077 Z"
       transform="matrix(0.50275704,0,0,0.50275704,140.42762,464.05656)" />
    <path
       style="color:#000000;clip-rule:nonzero;display:inline;overflow:visible;visibility:visible;opacity:1;isolation:auto;mix-blend-mode:normal;color-interpolation:sRGB;color-interpolation-filters:linearRGB;solid-color:#000000;solid-opacity:1;fill:none;fill-opacity:1;fill-rule:nonzero;stroke:#c1e09a;stroke-width:1;stroke-linecap:round;stroke-linejoin:miter;stroke-miterlimit:4;stroke-dasharray:none;stroke-dashoffset:0;stroke-opacity:1;marker:none;color-rendering:auto;image-rendering:auto;shape-rendering:auto;text-rendering:auto;enable-background:accumulate"
       d="m 147.75202,463.8455 0,9.48759 2.05105,0"
       id="path4138-5-6"
       inkscape:connector-curvature="0"
       sodipodi:nodetypes="ccc" />
    <path
       inkscape:connector-curvature="0"
       style="color:#000000;clip-rule:nonzero;display:inline;overflow:visible;visibility:visible;opacity:1;isolation:auto;mix-blend-mode:normal;color-interpolation:sRGB;color-interpolation-filters:linearRGB;solid-color:#000000;solid-opacity:1;fill:none;fill-opacity:1;fill-rule:nonzero;stroke:#c1e09a;stroke-width:1;stroke-linecap:butt;stroke-linejoin:round;stroke-miterlimit:4;stroke-dasharray:none;stroke-dashoffset:0;stroke-opacity:1;marker:none;color-rendering:auto;image-rendering:auto;shape-rendering:auto;text-rendering:auto;enable-background:accumulate"
       d="m 147.37551,463.83112 c -0.5648,-3.2e-4 -1.47909,0.53961 -1.47975,1.20617 4.5e-4,0.24646 0.0862,0.4869 0.24489,0.689 -0.0528,-0.005 -0.10481,-0.007 -0.15806,-0.008 -0.83298,-3.2e-4 -1.50878,0.50395 -1.50946,1.24494 -7e-5,0.34906 0.22872,0.93403 0.71323,1.03094 -0.98981,6.9e-4 -1.26365,1.32921 -1.26359,1.5953 -2.1e-4,0.88115 0.93233,1.59554 1.67897,1.59529 0.62018,-8.5e-4 2.09564,-0.009 2.13289,-0.0105 l 0.0268,0 c 0.0372,2.2e-4 1.5127,0.009 2.13289,0.0105 0.74664,2.5e-4 1.67918,-0.71414 1.67896,-1.59529 0,-0.22846 -0.2354,-1.59458 -1.22518,-1.59528 0.52291,-0.19289 0.67489,-0.75866 0.67482,-1.10774 -6.6e-4,-0.74098 -0.67646,-1.16846 -1.50945,-1.16814 -0.0532,8.7e-4 -0.10534,0.003 -0.15806,0.008 0.15857,-0.20209 0.24444,-0.44253 0.24491,-0.68899 -6.9e-4,-0.66656 -0.91497,-1.2065 -1.47977,-1.20617 -0.54465,5.8e-4 -0.38346,0.0126 -0.37254,0.0134 0.0109,-8.6e-4 0.1721,-0.0128 -0.37255,-0.0134 z"
       id="path4146-2"
       sodipodi:nodetypes="ccccccccccccccccccccc" />
    <path
       style="color:#000000;clip-rule:nonzero;display:inline;overflow:visible;visibility:visible;opacity:1;isolation:auto;mix-blend-mode:normal;color-interpolation:sRGB;color-interpolation-filters:linearRGB;solid-color:#000000;solid-opacity:1;fill:#c1e09a;fill-opacity:1;fill-rule:nonzero;stroke:none;stroke-width:1.78821576;stroke-linecap:butt;stroke-linejoin:miter;stroke-miterlimit:4;stroke-dasharray:none;stroke-dashoffset:0;stroke-opacity:0.68181817;marker:none;color-rendering:auto;image-rendering:auto;shape-rendering:auto;text-rendering:auto;enable-background:accumulate"
       d="m 147.75202,463.84548 0.14794,7.32874 c 0,0 1.78873,0.0558 1.99608,0 0.20734,-0.0558 1.48816,-0.86251 1.48816,-0.86251 0,0 0.1853,-1.14591 0,-1.33191 -0.18529,-0.18601 -0.71593,-0.66916 -0.78333,-0.78637 -0.0674,-0.11721 -0.14959,-0.1099 -0.0991,-0.29916 0.0505,-0.18929 0.44161,-1.26299 0.44161,-1.26299 l -1.11047,-0.72811 -0.70725,-0.76651 c 0,0 -0.12211,-1.11672 -0.31169,-1.16772 -0.18958,-0.0509 -0.63636,-0.17116 -0.63636,-0.17116 l -0.4296,0.0468"
       id="path4218-9"
       inkscape:connector-curvature="0"
       sodipodi:nodetypes="cccccsccccccc" />
  </g>
</svg>
