<svg width="16" height="16" viewBox="0 0 16 16" fill="none" xmlns="http://www.w3.org/2000/svg">
<path d="M15.1663 2.33532C15.1663 2.51997 15.0929 2.69706 14.9623 2.82763C14.8318 2.9582 14.6547 3.03155 14.47 3.03155C14.2854 3.03155 14.1083 2.9582 13.9777 2.82763C13.8472 2.69706 13.7738 2.51997 13.7738 2.33532C13.7738 2.15067 13.8472 1.97359 13.9777 1.84302C14.1083 1.71245 14.2854 1.6391 14.47 1.6391C14.6547 1.6391 14.8318 1.71245 14.9623 1.84302C15.0929 1.97359 15.1663 2.15067 15.1663 2.33532V2.33532Z" fill="#C1E09A"/>
<path d="M15.1122 13.3243C15.1122 13.5089 15.0388 13.686 14.9082 13.8166C14.7777 13.9471 14.6006 14.0205 14.4159 14.0205C14.2313 14.0205 14.0542 13.9471 13.9236 13.8166C13.7931 13.686 13.7197 13.5089 13.7197 13.3243C13.7197 13.1396 13.7931 12.9625 13.9236 12.832C14.0542 12.7014 14.2313 12.6281 14.4159 12.6281C14.6006 12.6281 14.7777 12.7014 14.9082 12.832C15.0388 12.9625 15.1122 13.1396 15.1122 13.3243V13.3243Z" fill="#C1E09A"/>
<path d="M15.1395 7.86371C15.1395 8.04836 15.0661 8.22544 14.9356 8.35601C14.805 8.48658 14.6279 8.55993 14.4432 8.55993C14.2586 8.55993 14.0815 8.48658 13.9509 8.35601C13.8204 8.22544 13.747 8.04836 13.747 7.86371C13.747 7.67905 13.8204 7.50197 13.9509 7.3714C14.0815 7.24083 14.2586 7.16748 14.4432 7.16748C14.6279 7.16748 14.805 7.24083 14.9356 7.3714C15.0661 7.50197 15.1395 7.67905 15.1395 7.86371V7.86371Z" fill="#C1E09A"/>
<path d="M6.84659 3.26373V12.7513H8.89764" stroke="#C1E09A" stroke-linecap="round"/>
<path d="M6.47008 3.24939C5.90528 3.24907 4.991 3.78901 4.99034 4.45557C4.99079 4.70203 5.07654 4.94246 5.23523 5.14456C5.18243 5.13956 5.13041 5.13757 5.07716 5.13657C4.24418 5.13625 3.56838 5.64051 3.5677 6.3815C3.56763 6.73056 3.79642 7.31554 4.28093 7.41245C3.29112 7.41314 3.01729 8.74166 3.01735 9.00775C3.01714 9.8889 3.94968 10.6033 4.69632 10.603C5.3165 10.6022 6.79196 10.594 6.82921 10.5925H6.856C6.8932 10.5927 8.3687 10.6015 8.98889 10.603C9.73553 10.6033 10.6681 9.8889 10.6678 9.00775C10.6678 8.77929 10.4325 7.41318 9.44267 7.41248C9.96558 7.21959 10.1176 6.6538 10.1175 6.30472C10.1168 5.56374 9.44104 5.13628 8.60805 5.1366C8.55485 5.13747 8.5027 5.13959 8.44998 5.14459C8.60855 4.9425 8.69443 4.70206 8.6949 4.4556C8.69421 3.78904 7.77992 3.24909 7.21512 3.24942C6.67047 3.25 6.83167 3.26202 6.84259 3.26282C6.85349 3.26196 7.01468 3.25002 6.47003 3.24942L6.47008 3.24939Z" stroke="#C1E09A" stroke-linejoin="round"/>
<path d="M6.84659 3.26376L6.99454 10.5925C6.99454 10.5925 8.78327 10.6483 8.99062 10.5925C9.19796 10.5367 10.4788 9.72998 10.4788 9.72998C10.4788 9.72998 10.6641 8.58407 10.4788 8.39807C10.2935 8.21206 9.76285 7.7289 9.69545 7.61169C9.62805 7.49448 9.54585 7.50179 9.59634 7.31253C9.64684 7.12324 10.0379 6.04956 10.0379 6.04956L8.92749 5.32144L8.22023 4.55493C8.22023 4.55493 8.09812 3.43821 7.90854 3.38721C7.71896 3.33631 7.27219 3.21606 7.27219 3.21606L6.84259 3.26285" fill="#C1E09A"/>
</svg>
