<?xml version="1.0" encoding="utf-8"?>
<!-- Generator: Adobe Illustrator 16.0.4, SVG Export Plug-In . SVG Version: 6.00 Build 0)  -->
<!DOCTYPE svg PUBLIC "-//W3C//DTD SVG 1.1//EN" "http://www.w3.org/Graphics/SVG/1.1/DTD/svg11.dtd">
<svg version="1.1" id="Слой_1" xmlns="http://www.w3.org/2000/svg" xmlns:xlink="http://www.w3.org/1999/xlink" x="0px" y="0px"
	 width="17.14px" height="17.169px" viewBox="410.849 286.978 17.14 17.169" enable-background="new 410.849 286.978 17.14 17.169"
	 xml:space="preserve">
<path fill="#FFAA80" d="M419.42,286.978c-4.743,0-8.572,3.834-8.571,8.585c0,4.722,3.829,8.584,8.571,8.584
	c4.74,0,8.568-3.862,8.568-8.584C427.989,290.812,424.16,286.978,419.42,286.978z M419.42,303.087c-4.146,0-7.517-3.377-7.517-7.524
	c0.001-4.177,3.372-7.525,7.517-7.525c4.144,0,7.515,3.348,7.515,7.525C426.935,299.71,423.564,303.087,419.42,303.087z"/>
<path fill="#FFAA80" d="M419.42,289.811c3.172,0,5.74,2.575,5.74,5.752c0,3.176-2.568,5.724-5.74,5.724
	c-3.174,0-5.742-2.548-5.742-5.724C413.677,292.386,416.246,289.811,419.42,289.811L419.42,289.811z"/>
</svg>
