<?xml version="1.0" encoding="UTF-8" standalone="no"?>
<!-- Generator: Adobe Illustrator 16.0.4, SVG Export Plug-In . SVG Version: 6.00 Build 0)  -->

<svg
   xmlns:dc="http://purl.org/dc/elements/1.1/"
   xmlns:cc="http://creativecommons.org/ns#"
   xmlns:rdf="http://www.w3.org/1999/02/22-rdf-syntax-ns#"
   xmlns:svg="http://www.w3.org/2000/svg"
   xmlns="http://www.w3.org/2000/svg"
   xmlns:sodipodi="http://sodipodi.sourceforge.net/DTD/sodipodi-0.dtd"
   xmlns:inkscape="http://www.inkscape.org/namespaces/inkscape"
   version="1.1"
   id="Слой_1"
   x="0px"
   y="0px"
   width="64"
   height="64"
   viewBox="399.945 276.64 64 64"
   enable-background="new 399.945 276.64 42 42"
   xml:space="preserve"
   inkscape:version="0.91 r"
   sodipodi:docname="h_protected_area.svg"><metadata
     id="metadata27"><rdf:RDF><cc:Work
         rdf:about=""><dc:format>image/svg+xml</dc:format><dc:type
           rdf:resource="http://purl.org/dc/dcmitype/StillImage" /><dc:title /></cc:Work></rdf:RDF></metadata><defs
     id="defs25" /><sodipodi:namedview
     pagecolor="#ffffff"
     bordercolor="#666666"
     borderopacity="1"
     objecttolerance="10"
     gridtolerance="10"
     guidetolerance="10"
     inkscape:pageopacity="0"
     inkscape:pageshadow="2"
     inkscape:window-width="1920"
     inkscape:window-height="1004"
     id="namedview23"
     showgrid="false"
     inkscape:zoom="8"
     inkscape:cx="15.101445"
     inkscape:cy="24.483345"
     inkscape:window-x="1680"
     inkscape:window-y="0"
     inkscape:window-maximized="1"
     inkscape:current-layer="Слой_1"
     showguides="false"><inkscape:grid
       type="xygrid"
       id="grid3849"
       empspacing="5"
       visible="true"
       enabled="true"
       snapvisiblegridlinesonly="true" /></sodipodi:namedview><path
     d="m 425.30469,284.66311 -3.49911,0 0,5 1.00871,0 0,-2.00172 2.4904,0.002 0.49987,-0.5 0,-2 z m -0.50785,2 -1.98255,0 0,-1 1.98255,0 z"
     id="path7-9-3-5"
     inkscape:connector-curvature="0"
     style="fill:#00ae3d;fill-opacity:0.45041324"
     sodipodi:nodetypes="cccccccccccccc" /><path
     d="m 457.55469,284.57193 -3.49911,0 0,5 1.00871,0 0,-2.00172 2.4904,0.002 0.49987,-0.5 0,-2 z m -0.50785,2 -1.98255,0 0,-1 1.98255,0 z"
     id="path7-9-3-5-2"
     inkscape:connector-curvature="0"
     style="fill:#00ae3d;fill-opacity:0.45041324"
     sodipodi:nodetypes="cccccccccccccc" /><path
     d="m 406.67969,318.66311 -3.49911,0 0,5 1.00871,0 0,-2.00172 2.4904,0.002 0.49987,-0.5 0,-2 z m -0.50785,2 -1.98255,0 0,-1 1.98255,0 z"
     id="path7-9-3-5-7"
     inkscape:connector-curvature="0"
     style="fill:#00ae3d;fill-opacity:0.45041324"
     sodipodi:nodetypes="cccccccccccccc" /><path
     d="m 440.24404,318.71654 -3.49911,0 0,5 1.00871,0 0,-2.00172 2.4904,0.002 0.49987,-0.5 0,-2 z m -0.50785,2 -1.98255,0 0,-1 1.98255,0 z"
     id="path7-9-3-5-0"
     inkscape:connector-curvature="0"
     style="fill:#00ae3d;fill-opacity:0.45041324"
     sodipodi:nodetypes="cccccccccccccc" /></svg>