<?xml version="1.0" encoding="utf-8"?>
<!-- Generator: Adobe Illustrator 16.0.4, SVG Export Plug-In . SVG Version: 6.00 Build 0)  -->
<!DOCTYPE svg PUBLIC "-//W3C//DTD SVG 1.1//EN" "http://www.w3.org/Graphics/SVG/1.1/DTD/svg11.dtd">
<svg version="1.1" id="Слой_1" xmlns="http://www.w3.org/2000/svg" xmlns:xlink="http://www.w3.org/1999/xlink" x="0px" y="0px"
	 width="31.257px" height="16.973px" viewBox="0 0 31.257 16.973" enable-background="new 0 0 31.257 16.973" xml:space="preserve">
<path fill-rule="evenodd" clip-rule="evenodd" fill="#E79268" d="M8.028,0.001h15.229c4.4,0,8,3.606,8,8.013V8.93
	c0,4.435-3.6,8.041-8,8.041H8.028C3.6,16.97,0,13.365,0,8.93V8.014C0,3.607,3.6,0.001,8.028,0.001L8.028,0.001z"/>
<path fill-rule="evenodd" clip-rule="evenodd" fill="#FFFFFF" d="M8.229,1.089h14.8C26.857,1.089,30,4.237,30,8.1v0.772
	c0,3.834-3.143,6.983-6.971,6.983h-14.8c-3.829,0-6.972-3.148-6.972-6.983V8.1C1.257,4.237,4.399,1.089,8.229,1.089L8.229,1.089z"/>
<path fill-rule="evenodd" clip-rule="evenodd" fill="#E79268" d="M8.6,2.548h14.085c3.086,0,5.6,2.519,5.6,5.609v0.629
	c0,3.09-2.514,5.637-5.6,5.637H8.6c-3.086,0-5.629-2.547-5.629-5.637V8.157C2.971,5.067,5.514,2.548,8.6,2.548L8.6,2.548z"/>
</svg>
