<?xml version="1.0" encoding="utf-8"?>
<!-- Generator: Adobe Illustrator 16.0.4, SVG Export Plug-In . SVG Version: 6.00 Build 0)  -->
<!DOCTYPE svg PUBLIC "-//W3C//DTD SVG 1.1//EN" "http://www.w3.org/Graphics/SVG/1.1/DTD/svg11.dtd">
<svg version="1.1" id="Слой_1" xmlns="http://www.w3.org/2000/svg" xmlns:xlink="http://www.w3.org/1999/xlink" x="0px" y="0px"
	 width="17.141px" height="17.168px" viewBox="0 0 17.141 17.168" enable-background="new 0 0 17.141 17.168" xml:space="preserve">
<path fill-rule="evenodd" clip-rule="evenodd" fill="#E79268" d="M8.57,0c4.743,0,8.571,3.834,8.571,8.585
	c0,4.721-3.828,8.584-8.571,8.584c-4.742,0-8.571-3.863-8.571-8.584C-0.001,3.834,3.828,0,8.57,0L8.57,0z"/>
<path fill-rule="evenodd" clip-rule="evenodd" fill="#FFFFFF" d="M8.57,1.058c4.144,0,7.515,3.348,7.515,7.526
	c0,4.148-3.371,7.525-7.515,7.525c-4.143,0-7.514-3.377-7.514-7.525C1.056,4.406,4.427,1.058,8.57,1.058L8.57,1.058z"/>
<path fill-rule="evenodd" clip-rule="evenodd" fill="#E79268" d="M8.57,2.833c3.172,0,5.743,2.575,5.743,5.752
	c0,3.176-2.571,5.723-5.743,5.723c-3.171,0-5.742-2.547-5.742-5.723C2.828,5.408,5.399,2.833,8.57,2.833L8.57,2.833z"/>
</svg>
