<svg width="16" height="16" viewBox="0 0 16 16" fill="none" xmlns="http://www.w3.org/2000/svg">
<g clip-path="url(#clip0)">
<path d="M16 0H1.52588e-05V16H16V0Z" fill="#FAF9F6"/>
<path d="M6.5468 4.99127C6.82294 4.99127 7.0468 4.76741 7.0468 4.49127C7.0468 4.21513 6.82294 3.99127 6.5468 3.99127C6.27066 3.99127 6.0468 4.21513 6.0468 4.49127C6.0468 4.76741 6.27066 4.99127 6.5468 4.99127Z" fill="#B5B5B5"/>
<path d="M3.50002 7.98096C3.77616 7.98096 4.00002 7.7571 4.00002 7.48096C4.00002 7.20481 3.77616 6.98096 3.50002 6.98096C3.22387 6.98096 3.00002 7.20481 3.00002 7.48096C3.00002 7.7571 3.22387 7.98096 3.50002 7.98096Z" fill="#B5B5B5"/>
<path d="M11.5 8.02252C11.7762 8.02252 12 7.79866 12 7.52252C12 7.24638 11.7762 7.02252 11.5 7.02252C11.2239 7.02252 11 7.24638 11 7.52252C11 7.79866 11.2239 8.02252 11.5 8.02252Z" fill="#B5B5B5"/>
<path d="M13.5 15.8213C13.7762 15.8213 14 15.5974 14 15.3213C14 15.0451 13.7762 14.8213 13.5 14.8213C13.2239 14.8213 13 15.0451 13 15.3213C13 15.5974 13.2239 15.8213 13.5 15.8213Z" fill="#B5B5B5"/>
<path d="M9.49135 3C9.76749 3 9.99135 2.77614 9.99135 2.5C9.99135 2.22386 9.76749 2 9.49135 2C9.21521 2 8.99135 2.22386 8.99135 2.5C8.99135 2.77614 9.21521 3 9.49135 3Z" fill="#B5B5B5"/>
<path d="M1.60707 2C1.88321 2 2.10707 1.77614 2.10707 1.5C2.10707 1.22386 1.88321 1 1.60707 1C1.33093 1 1.10707 1.22386 1.10707 1.5C1.10707 1.77614 1.33093 2 1.60707 2Z" fill="#B5B5B5"/>
<path d="M8.50002 8.90625C8.77616 8.90625 9.00002 8.68239 9.00002 8.40625C9.00002 8.13011 8.77616 7.90625 8.50002 7.90625C8.22387 7.90625 8.00002 8.13011 8.00002 8.40625C8.00002 8.68239 8.22387 8.90625 8.50002 8.90625Z" fill="#B5B5B5"/>
<path d="M12.5 11.9375C12.7762 11.9375 13 11.7136 13 11.4375C13 11.1614 12.7762 10.9375 12.5 10.9375C12.2239 10.9375 12 11.1614 12 11.4375C12 11.7136 12.2239 11.9375 12.5 11.9375Z" fill="#B5B5B5"/>
<path d="M8.44154 14C8.71769 14 8.94154 13.7761 8.94154 13.5C8.94154 13.2239 8.71769 13 8.44154 13C8.1654 13 7.94154 13.2239 7.94154 13.5C7.94154 13.7761 8.1654 14 8.44154 14Z" fill="#B5B5B5"/>
<path d="M1.4008 12C1.67694 12 1.9008 11.7761 1.9008 11.5C1.9008 11.2239 1.67694 11 1.4008 11C1.12466 11 0.900803 11.2239 0.900803 11.5C0.900803 11.7761 1.12466 12 1.4008 12Z" fill="#B5B5B5"/>
<path d="M12.4375 4C12.7137 4 12.9375 3.77614 12.9375 3.5C12.9375 3.22386 12.7137 3 12.4375 3C12.1614 3 11.9375 3.22386 11.9375 3.5C11.9375 3.77614 12.1614 4 12.4375 4Z" fill="#B5B5B5"/>
<path d="M15.5 3.9375C15.7762 3.9375 16 3.71364 16 3.4375C16 3.16136 15.7762 2.9375 15.5 2.9375C15.2239 2.9375 15 3.16136 15 3.4375C15 3.71364 15.2239 3.9375 15.5 3.9375Z" fill="#B5B5B5"/>
<path d="M4.50002 14.9062C4.77616 14.9062 5.00002 14.6824 5.00002 14.4062C5.00002 14.1301 4.77616 13.9062 4.50002 13.9062C4.22387 13.9062 4.00002 14.1301 4.00002 14.4062C4.00002 14.6824 4.22387 14.9062 4.50002 14.9062Z" fill="#B5B5B5"/>
</g>
<defs>
<clipPath id="clip0">
<path d="M0 0H16V16H0V0Z" fill="white"/>
</clipPath>
</defs>
</svg>
