<?xml version="1.0" encoding="utf-8"?>
<!-- Generator: Adobe Illustrator 16.0.4, SVG Export Plug-In . SVG Version: 6.00 Build 0)  -->
<!DOCTYPE svg PUBLIC "-//W3C//DTD SVG 1.1//EN" "http://www.w3.org/Graphics/SVG/1.1/DTD/svg11.dtd">
<svg version="1.1" id="Слой_1" xmlns="http://www.w3.org/2000/svg" xmlns:xlink="http://www.w3.org/1999/xlink" x="0px" y="0px"
	 width="31.257px" height="17px" viewBox="403.02 286.891 31.257 17" enable-background="new 403.02 286.891 31.257 17"
	 xml:space="preserve">
<path fill="#FFD080" d="M426.248,286.891H411.02c-4.402,0-8,3.634-8,8.042v0.916c0,4.405,3.6,8.042,8,8.042h15.229
	c4.429,0,8.028-3.637,8.028-8.042v-0.916C434.277,290.525,430.68,286.891,426.248,286.891z M433.018,295.79
	c0,3.835-3.146,6.981-7,6.981h-14.771c-3.826,0-6.972-3.146-6.972-6.981v-0.802c0.001-3.833,3.146-6.981,6.972-6.981h14.771
	c3.854,0,7,3.147,7,6.981V295.79z"/>
<path fill="#FFD080" d="M411.592,289.467h14.086c3.085,0,5.628,2.52,5.628,5.609v0.629c0,3.091-2.543,5.607-5.628,5.607h-14.086
	c-3.086,0-5.604-2.52-5.604-5.607v-0.629C405.99,291.985,408.506,289.467,411.592,289.467L411.592,289.467z"/>
</svg>
