<?xml version="1.0" encoding="utf-8"?>
<!-- Generator: Adobe Illustrator 16.0.4, SVG Export Plug-In . SVG Version: 6.00 Build 0)  -->
<!DOCTYPE svg PUBLIC "-//W3C//DTD SVG 1.1//EN" "http://www.w3.org/Graphics/SVG/1.1/DTD/svg11.dtd">
<svg version="1.1" id="Слой_1" xmlns="http://www.w3.org/2000/svg" xmlns:xlink="http://www.w3.org/1999/xlink" x="0px" y="0px"
	 width="38.285px" height="16.969px" viewBox="0 0 38.285 16.969" enable-background="new 0 0 38.285 16.969" xml:space="preserve">
<path fill-rule="evenodd" clip-rule="evenodd" fill="#E7B868" d="M8.014,0H30.27c4.4,0,8.029,3.605,8.029,8.041v0.887
	c0,4.436-3.629,8.042-8.029,8.042H8.014c-4.429,0-8.028-3.605-8.028-8.042V8.041C-0.015,3.605,3.585,0,8.014,0L8.014,0z"/>
<path fill-rule="evenodd" clip-rule="evenodd" fill="#FFFFFF" d="M8.328,0.915h21.627c3.943,0,7.145,3.234,7.145,7.154v0.83
	c0,3.922-3.201,7.155-7.145,7.155H8.328c-3.943,0-7.172-3.232-7.172-7.155v-0.83C1.156,4.149,4.385,0.915,8.328,0.915L8.328,0.915z"
	/>
<path fill-rule="evenodd" clip-rule="evenodd" fill="#E7B868" d="M8.214,2.604H30.07c3.057,0,5.543,2.518,5.543,5.58v0.628
	c0,3.063-2.486,5.581-5.543,5.581H8.214c-3.058,0-5.571-2.518-5.571-5.581V8.184C2.643,5.122,5.156,2.604,8.214,2.604L8.214,2.604z"
	/>
</svg>
