<?xml version="1.0" encoding="utf-8"?>
<!-- Generator: Adobe Illustrator 16.0.4, SVG Export Plug-In . SVG Version: 6.00 Build 0)  -->
<!DOCTYPE svg PUBLIC "-//W3C//DTD SVG 1.1//EN" "http://www.w3.org/Graphics/SVG/1.1/DTD/svg11.dtd">
<svg version="1.1" id="Слой_1" xmlns="http://www.w3.org/2000/svg" xmlns:xlink="http://www.w3.org/1999/xlink" x="0px" y="0px"
	 width="38.285px" height="16.97px" viewBox="399.789 287.444 38.285 16.97" enable-background="new 399.789 287.444 38.285 16.97"
	 xml:space="preserve">
<path fill="#FFD080" d="M430.049,287.444h-22.26c-4.398,0-8,3.605-8,8.013v0.916c0,4.438,3.603,8.041,8,8.041h22.26
	c4.426,0,8.025-3.604,8.025-8.041v-0.916C438.074,291.048,434.478,287.444,430.049,287.444z M436.905,296.316
	c0,3.949-3.229,7.184-7.172,7.184h-21.629c-3.942,0-7.143-3.231-7.143-7.184v-0.802c0.002-3.949,3.199-7.154,7.143-7.154h21.629
	c3.943,0,7.172,3.205,7.172,7.154V296.316z"/>
<path fill="#FFD080" d="M407.99,290.048h21.857c3.058,0,5.571,2.489,5.571,5.553v0.63c0,3.09-2.517,5.58-5.571,5.58H407.99
	c-3.057,0-5.542-2.49-5.542-5.58v-0.63C402.448,292.538,404.934,290.048,407.99,290.048L407.99,290.048z"/>
</svg>
