<?xml version="1.0" encoding="utf-8"?>
<!-- Generator: Adobe Illustrator 16.0.4, SVG Export Plug-In . SVG Version: 6.00 Build 0)  -->
<!DOCTYPE svg PUBLIC "-//W3C//DTD SVG 1.1//EN" "http://www.w3.org/Graphics/SVG/1.1/DTD/svg11.dtd">
<svg version="1.1" id="Слой_1" xmlns="http://www.w3.org/2000/svg" xmlns:xlink="http://www.w3.org/1999/xlink" x="0px" y="0px"
	 width="45.365px" height="16.999px" viewBox="396.336 287.259 45.365 16.999"
	 enable-background="new 396.336 287.259 45.365 16.999" xml:space="preserve">
<path fill="#FFD080" d="M433.676,287.259h-29.314c-4.428,0-8.026,3.636-8.025,8.042v0.915c0,4.407,3.597,8.042,8.025,8.042h29.314
	c4.396,0,8.025-3.635,8.025-8.042v-0.915C441.701,290.895,438.073,287.259,433.676,287.259z M440.306,296.159
	c0,3.948-3.229,7.185-7.171,7.185h-28.258c-3.942,0-7.146-3.233-7.146-7.185v-0.803c0.001-3.948,3.202-7.153,7.146-7.153h28.258
	c3.939,0,7.171,3.205,7.171,7.153V296.159z"/>
<path fill="#FFD080" d="M405.049,289.892h27.914c3.086,0,5.568,2.488,5.568,5.552v0.631c0,3.091-2.482,5.579-5.568,5.579h-27.914
	c-3.061,0-5.571-2.488-5.571-5.579v-0.631C399.477,292.382,401.99,289.892,405.049,289.892L405.049,289.892z"/>
</svg>
