<?xml version="1.0" encoding="utf-8"?>
<!-- Generator: Adobe Illustrator 16.0.4, SVG Export Plug-In . SVG Version: 6.00 Build 0)  -->
<!DOCTYPE svg PUBLIC "-//W3C//DTD SVG 1.1//EN" "http://www.w3.org/Graphics/SVG/1.1/DTD/svg11.dtd">
<svg version="1.1" id="Слой_1" xmlns="http://www.w3.org/2000/svg" xmlns:xlink="http://www.w3.org/1999/xlink" x="0px" y="0px"
	 width="59.4px" height="16.568px" viewBox="0 0 59.4 16.568" enable-background="new 0 0 59.4 16.568" xml:space="preserve">
<path fill="#FFFF80" d="M51.571,0H7.829C3.514,0-0.001,3.519,0,7.841v0.888c0,4.32,3.516,7.841,7.829,7.841h43.742
	c4.286,0,7.829-3.521,7.829-7.841V7.841C59.401,3.52,55.858,0,51.571,0z M58.198,8.642c0,3.75-3.062,6.812-6.771,6.812H8.03
	c-3.742,0-6.803-3.062-6.803-6.812V7.872C1.228,4.12,4.288,1.059,8.03,1.059h43.396c3.714,0,6.771,3.062,6.771,6.812V8.642z"/>
<path fill="#FFFF80" d="M8.542,2.433h42.286c3.057,0,5.542,2.488,5.542,5.551v0.632c0,3.032-2.485,5.522-5.542,5.522H8.542
	c-3.027,0-5.517-2.49-5.517-5.522V7.984C3.029,4.922,5.514,2.433,8.542,2.433L8.542,2.433z"/>
</svg>
