<?xml version="1.0" encoding="utf-8"?>
<!-- Generator: Adobe Illustrator 16.0.4, SVG Export Plug-In . SVG Version: 6.00 Build 0)  -->
<!DOCTYPE svg PUBLIC "-//W3C//DTD SVG 1.1//EN" "http://www.w3.org/Graphics/SVG/1.1/DTD/svg11.dtd">
<svg version="1.1" id="Слой_1" xmlns="http://www.w3.org/2000/svg" xmlns:xlink="http://www.w3.org/1999/xlink" x="0px" y="0px"
	 width="52.77px" height="16.57px" viewBox="0 0 52.77 16.57" enable-background="new 0 0 52.77 16.57" xml:space="preserve">
<path fill="#FFFF80" d="M44.944-0.001H7.854C3.543-0.001,0,3.518,0.001,7.84v0.889c0,4.32,3.543,7.841,7.854,7.841h37.09
	c4.281,0,7.824-3.521,7.824-7.841V7.84C52.768,3.52,49.225-0.001,44.944-0.001z M51.713,8.639c0,3.72-3.057,6.781-6.8,6.781h-37
	c-3.742,0-6.803-3.062-6.803-6.781V7.868c0.001-3.749,3.06-6.812,6.803-6.812h37c3.743,0,6.8,3.062,6.8,6.812V8.639z"/>
<path fill="#FFFF80" d="M8.225,2.401H44.54c3.028,0,5.543,2.521,5.543,5.554v0.63c0,3.062-2.515,5.55-5.543,5.55H8.225
	c-3.024,0-5.542-2.486-5.542-5.55v-0.63C2.683,4.92,5.201,2.401,8.225,2.401L8.225,2.401z"/>
</svg>
