<?xml version="1.0" encoding="utf-8"?>
<!-- Generator: Adobe Illustrator 16.0.4, SVG Export Plug-In . SVG Version: 6.00 Build 0)  -->
<!DOCTYPE svg PUBLIC "-//W3C//DTD SVG 1.1//EN" "http://www.w3.org/Graphics/SVG/1.1/DTD/svg11.dtd">
<svg version="1.1" id="Слой_1" xmlns="http://www.w3.org/2000/svg" xmlns:xlink="http://www.w3.org/1999/xlink" x="0px" y="0px"
	 width="17.114px" height="17.143px" viewBox="410.906 287.216 17.114 17.143"
	 enable-background="new 410.906 287.216 17.114 17.143" xml:space="preserve">
<path fill="#FFFF80" d="M419.477,287.216c-4.744,0-8.572,3.835-8.571,8.585c0,4.723,3.828,8.558,8.571,8.558
	c4.714,0,8.543-3.835,8.543-8.558C428.02,291.05,424.191,287.216,419.477,287.216z M419.477,303.328
	c-4.172,0-7.543-3.377-7.543-7.524c0-4.181,3.371-7.557,7.543-7.557c4.143,0,7.514,3.376,7.514,7.557
	C426.99,299.951,423.619,303.328,419.477,303.328z"/>
<path fill="#FFFF80" d="M419.477,290.049c3.143,0,5.714,2.576,5.714,5.754c0,3.146-2.571,5.723-5.714,5.723
	c-3.172,0-5.743-2.574-5.743-5.723C413.733,292.625,416.305,290.049,419.477,290.049L419.477,290.049z"/>
</svg>
