<svg width="24" height="8" viewBox="0 0 24 8" fill="none" xmlns="http://www.w3.org/2000/svg">
<g clip-path="url(#clip0)">
<path d="M0 7.86719L4.52734 3.33984C4.52734 3.33984 6.17901 1.26627 7.63519 1.33984C9.09138 1.41344 10.2532 4.0353 12 3.86719C13.7468 3.69908 16.25 -0.382812 16.25 -0.382812" stroke="#E6D1B4"/>
<path d="M24 7.86719L17.9844 1.85156" stroke="#E6D1B4"/>
<path d="M8.34375 8.21094L6.21875 6.08594" stroke="#E6D1B4"/>
<path d="M15.5312 8.33594C17 6.68189 18.2391 4.44746 20.6629 4.59641" stroke="#E6D1B4"/>
<path d="M10.5137 5.99658C10.7898 5.99658 11.0137 5.77272 11.0137 5.49658C11.0137 5.22044 10.7898 4.99658 10.5137 4.99658C10.2375 4.99658 10.0137 5.22044 10.0137 5.49658C10.0137 5.77272 10.2375 5.99658 10.5137 5.99658Z" fill="#E6D1B4"/>
<path d="M1.51367 1.99658C1.78981 1.99658 2.01367 1.77272 2.01367 1.49658C2.01367 1.22044 1.78981 0.996582 1.51367 0.996582C1.23753 0.996582 1.01367 1.22044 1.01367 1.49658C1.01367 1.77272 1.23753 1.99658 1.51367 1.99658Z" fill="#E6D1B4"/>
<path d="M16.5033 4.03516C16.7794 4.03516 17.0033 3.8113 17.0033 3.53516C17.0033 3.25901 16.7794 3.03516 16.5033 3.03516C16.2271 3.03516 16.0033 3.25901 16.0033 3.53516C16.0033 3.8113 16.2271 4.03516 16.5033 4.03516Z" fill="#E6D1B4"/>
<path d="M20.4916 8.01868C20.7677 8.01868 20.9916 7.79482 20.9916 7.51868C20.9916 7.24253 20.7677 7.01868 20.4916 7.01868C20.2154 7.01868 19.9916 7.24253 19.9916 7.51868C19.9916 7.79482 20.2154 8.01868 20.4916 8.01868Z" fill="#E6D1B4"/>
</g>
<defs>
<clipPath id="clip0">
<path d="M0 0H24V8H0V0Z" fill="white"/>
</clipPath>
</defs>
</svg>
