<svg width="50" height="50" viewBox="0 0 50 50" fill="none" xmlns="http://www.w3.org/2000/svg">
<path d="M36.0278 38.5083C36.8562 38.5083 37.5278 37.8367 37.5278 37.0083C37.5278 36.1799 36.8562 35.5083 36.0278 35.5083C35.1993 35.5083 34.5278 36.1799 34.5278 37.0083C34.5278 37.8367 35.1993 38.5083 36.0278 38.5083Z" stroke="#83CA83" stroke-linecap="square"/>
<path d="M36 38.5083H39.559" stroke="#83CA83"/>
<path d="M10.4688 11.4601C11.2972 11.4601 11.9688 10.7885 11.9688 9.96008C11.9688 9.13166 11.2972 8.46008 10.4688 8.46008C9.64032 8.46008 8.96875 9.13166 8.96875 9.96008C8.96875 10.7885 9.64032 11.4601 10.4688 11.4601Z" stroke="#83CA83" stroke-linecap="square"/>
<path d="M10.441 11.4601H14" stroke="#83CA83"/>
</svg>
