<svg width="8" height="10" viewBox="0 0 8 10" fill="none" xmlns="http://www.w3.org/2000/svg">
<path d="M8 0H0V10H8V0Z" fill="#EAEAE6"/>
<path d="M4.42245 7.1875C4.75037 7.1875 5.0162 6.92167 5.0162 6.59375C5.0162 6.26583 4.75037 6 4.42245 6C4.09454 6 3.8287 6.26583 3.8287 6.59375C3.8287 6.92167 4.09454 7.1875 4.42245 7.1875Z" fill="#4A4A4A"/>
<path d="M4.40625 4.09375C4.73417 4.09375 5 3.82792 5 3.5C5 3.17208 4.73417 2.90625 4.40625 2.90625C4.07833 2.90625 3.8125 3.17208 3.8125 3.5C3.8125 3.82792 4.07833 4.09375 4.40625 4.09375Z" fill="#4A4A4A"/>
</svg>
