<?xml version="1.0" encoding="UTF-8" standalone="no"?>
<!-- Generator: Adobe Illustrator 16.0.4, SVG Export Plug-In . SVG Version: 6.00 Build 0)  -->

<svg
   version="1.1"
   id="Слой_1"
   x="0px"
   y="0px"
   width="32"
   height="32"
   viewBox="414.204 291.25 32 32"
   enable-background="new 414.204 291.25 10 10"
   xml:space="preserve"
   inkscape:version="1.3.2 (1:1.3.2+202311252150+091e20ef0f)"
   sodipodi:docname="h_topo_bare_rock2.svg"
   xmlns:inkscape="http://www.inkscape.org/namespaces/inkscape"
   xmlns:sodipodi="http://sodipodi.sourceforge.net/DTD/sodipodi-0.dtd"
   xmlns="http://www.w3.org/2000/svg"
   xmlns:svg="http://www.w3.org/2000/svg"
   xmlns:rdf="http://www.w3.org/1999/02/22-rdf-syntax-ns#"
   xmlns:cc="http://creativecommons.org/ns#"
   xmlns:dc="http://purl.org/dc/elements/1.1/"><metadata
     id="metadata17"><rdf:RDF><cc:Work
         rdf:about=""><dc:format>image/svg+xml</dc:format><dc:type
           rdf:resource="http://purl.org/dc/dcmitype/StillImage" /></cc:Work></rdf:RDF></metadata><defs
     id="defs15"><filter
       style="color-interpolation-filters:sRGB"
       id="filter1016"
       inkscape:label="фильтр0" /></defs><sodipodi:namedview
     pagecolor="#ffffff"
     bordercolor="#666666"
     borderopacity="1"
     objecttolerance="10"
     gridtolerance="10"
     guidetolerance="10"
     inkscape:pageopacity="0"
     inkscape:pageshadow="2"
     inkscape:window-width="1920"
     inkscape:window-height="1014"
     id="namedview13"
     showgrid="false"
     inkscape:zoom="8.34386"
     inkscape:cx="31.460259"
     inkscape:cy="16.898654"
     inkscape:window-x="1920"
     inkscape:window-y="0"
     inkscape:window-maximized="1"
     inkscape:current-layer="Слой_1"
     inkscape:snap-object-midpoints="false"
     inkscape:snap-others="true"
     inkscape:snap-nodes="false"
     inkscape:snap-bbox="true"
     inkscape:bbox-nodes="true"
     inkscape:bbox-paths="true"
     inkscape:snap-bbox-edge-midpoints="true"
     inkscape:snap-bbox-midpoints="true"
     inkscape:snap-global="true"
     inkscape:showpageshadow="2"
     inkscape:pagecheckerboard="0"
     inkscape:deskcolor="#d1d1d1"><inkscape:grid
       type="xygrid"
       id="grid4191"
       originx="0"
       originy="0"
       spacingy="1"
       spacingx="1"
       units="px"
       visible="false" /></sodipodi:namedview><path
     style="fill:#c2c2c2;fill-opacity:1;stroke-width:1"
     d="m 430.7865,296.62522 c 0.11956,0.89907 -0.39212,-0.83816 -0.75594,0.94427 -0.49324,2.41631 -0.40609,0.83787 0.66682,2.4705 1.66702,2.53706 2.23533,1.20645 1.53261,-0.81702 -0.2711,-0.78082 -0.21364,-0.80368 0.31589,-0.80368 0.55348,0 0.77815,-0.25583 -0.0208,-1.2312 -0.9806,-1.19761 0.66047,-1.03162 0.19648,-0.97126 -0.72042,0.0938 -0.90107,-0.38973 -1.30974,0.24194 z m -5.28938,-4.88277 c -0.18502,0 -0.55757,0.64068 -0.82897,1.42149 -0.2711,0.78084 -0.11776,1.42146 0.3386,1.42146 0.45633,0 0.82897,-0.64062 0.82897,-1.42146 0,-0.78081 -0.15364,-1.42149 -0.3386,-1.42149 z m 9.8405,-0.2009 c -0.10312,0.021 -0.23642,0.092 -0.4028,0.20572 -1.33288,0.9101 -1.28832,3.39434 0.0643,3.48908 0.85028,0.0593 0.8493,0.17113 -0.006,0.55213 -0.59069,0.26375 -0.84409,0.89663 -0.56044,1.40386 0.28904,0.51671 1.02219,0.16662 1.6638,-0.79296 0.95966,-1.43536 0.95371,-1.76075 -0.035,-2.00886 -0.69509,-0.17443 -0.96384,-0.91628 -0.65384,-1.80915 0.26243,-0.75547 0.19454,-1.00273 -0.11487,-0.93654 z m -6.85024,3.79811 c -0.0848,-0.1639 -0.19458,0.002 -0.31524,0.51102 -0.21551,0.91098 -1.03734,1.66803 -1.82724,1.67405 -1.24026,0.012 -1.26142,0.13564 -0.15185,0.92808 2.05492,1.46733 2.57554,1.1176 2.46943,-1.65642 -0.0305,-0.80069 -0.0903,-1.29289 -0.17516,-1.45673 z m -9.23681,-0.93403 c -0.29441,0.0304 -0.79576,0.32092 -1.27849,0.7636 -0.64367,0.59048 -1.42386,0.78891 -1.73386,0.44639 -0.31016,-0.34251 -0.56043,0.10676 -0.56043,0.99856 0,1.50912 0.13988,1.50636 2.05494,-0.0764 1.13167,-0.93528 1.9117,-1.86896 1.73386,-2.07346 -0.0446,-0.0511 -0.11777,-0.0688 -0.21611,-0.0587 z m 18.1688,1.33341 c -0.10701,0.12962 0.0149,0.65331 0.30359,1.65643 0.44309,1.54224 0.34906,2.04333 -0.30359,1.59769 -0.52162,-0.35638 -0.94572,-0.19879 -0.94572,0.35244 0,1.40374 1.31823,1.24666 2.47525,-0.29352 0.7431,-0.98932 0.63531,-1.60157 -0.44952,-2.59628 -0.63525,-0.58256 -0.97295,-0.84631 -1.08001,-0.71661 z m 5.28886,-2.72188 c -0.24539,-0.0794 -0.14287,0.72103 0.37363,2.20858 0.29382,0.84554 0.71317,1.33644 0.93406,1.09254 0.22059,-0.2436 -0.009,-1.21747 -0.50792,-2.16748 -0.37867,-0.71952 -0.65259,-1.08606 -0.79977,-1.13364 z m 1.23401,5.84192 c -0.10401,0.018 -0.21879,0.0652 -0.3386,0.14677 -1.40363,0.95849 -0.0622,2.3613 2.25928,2.3613 0.52526,-0.68389 -1.38941,-0.77499 -1.38941,-1.8855 0,-0.44128 -0.2191,-0.67273 -0.53127,-0.62263 z m -20.65058,1.81467 c -0.30715,-0.0572 -0.52541,0.15038 -0.52541,0.56389 0,0.55126 0.38707,1.00442 0.85818,1.00442 0.47118,0 0.85233,-0.18766 0.85233,-0.41703 0,-0.22948 -0.38115,-0.68251 -0.85233,-1.00442 -0.11777,-0.0803 -0.23046,-0.12782 -0.33277,-0.14677 z m -4.53286,-0.41707 c -0.57003,0 -0.6653,2.93342 -0.15184,4.72848 0.0745,0.26014 0.5335,-0.27127 1.01578,-1.18651 0.88029,-1.67024 0.4231,-3.54197 -0.864,-3.54197 z m 26.50682,2.34286 c -0.30746,-0.0615 -0.90432,0.28961 -1.71635,0.94571 -0.88271,0.71327 -1.39245,1.92483 -1.12673,2.69022 0.29968,0.8633 1.15292,1.19584 2.24175,0.88109 0.96578,-0.2791 1.55309,-0.86542 1.3077,-1.30402 -0.24541,-0.43878 -1.1054,-0.56811 -1.91482,-0.28781 -1.22947,0.42521 -1.19772,0.26134 0.18113,-0.98094 1.29989,-1.17117 1.53992,-1.84173 1.02747,-1.94422 z m -6.29335,0.1054 c -0.46075,-0.0556 -0.78813,0.13292 -0.78813,0.51101 0,0.50423 0.57765,0.91633 1.28434,0.91633 0.70672,0 1.28434,-0.1657 1.28434,-0.37006 0,-0.20451 -0.57762,-0.61649 -1.28434,-0.91633 -0.17665,-0.0749 -0.34263,-0.1224 -0.49621,-0.14104 z m -14.71734,0.66379 c -0.13779,0.0395 -0.34341,0.29232 -0.61299,0.76361 -0.58677,1.02563 -0.40654,1.59679 0.65385,2.06174 2.13056,0.93417 2.75547,0.89537 2.75547,-0.17023 0,-0.52048 -0.57763,-0.94568 -1.28431,-0.94568 -0.70673,0 -1.29589,-0.52996 -1.30187,-1.18065 -0.003,-0.39282 -0.0724,-0.56806 -0.21012,-0.52864 z m 6.48589,1.43321 c -0.42697,0 -0.77644,0.85615 -0.77644,1.89727 0,1.04113 0.14645,1.89139 0.32693,1.89139 0.18054,0 0.53013,-0.85026 0.77642,-1.89139 0.24659,-1.04112 0.10014,-1.89727 -0.32691,-1.89727 z m 9.79599,0.41118 c -0.1345,0.031 -0.35782,0.38534 -0.71805,1.06905 -0.48581,0.92195 -1.3108,1.3847 -1.8331,1.02793 -0.62336,-0.42552 -0.75027,-0.08 -0.37362,1.00442 0.31528,0.90881 0.5721,2.04188 0.5721,2.51988 0,0.47797 0.67584,0.86362 1.50035,0.8576 1.27222,-0.0121 1.30605,-0.15308 0.22178,-0.91044 -1.01748,-0.71086 -1.06309,-1.13169 -0.21609,-2.06759 0.58494,-0.64642 1.05409,-1.83639 1.03915,-2.64326 -0.012,-0.59836 -0.058,-0.88856 -0.19279,-0.85759 z m -5.09063,0.49343 c -0.35295,0.11037 -0.68888,0.73765 -0.68888,1.79151 0,0.75014 0.36376,1.36862 0.80563,1.36862 0.44174,0 0.74563,-0.82171 0.67719,-1.82677 -0.0703,-1.03184 -0.44101,-1.44377 -0.79394,-1.33336 z m -20.41514,0.99849 c -0.334,-0.093 -0.53922,0.36354 -0.60713,1.36272 -0.10371,1.52344 0.10521,1.75895 0.84648,0.93981 0.6485,-0.7163 0.69755,-1.41056 0.14019,-2.02648 -0.13929,-0.15398 -0.26812,-0.2451 -0.37945,-0.27608 z m 4.4835,0.37055 c -0.11417,0.0424 -0.15901,0.37521 -0.16349,1.01031 -0.006,0.87285 0.66418,1.78244 1.48867,2.02063 0.82448,0.23789 1.53094,0.47992 1.57039,0.54037 0.041,0.0605 0.0699,-0.51081 0.0699,-1.26874 0,-0.75813 -0.36618,-1.12672 -0.81148,-0.82235 -0.44527,0.30408 -1.14162,-0.0343 -1.55287,-0.75185 -0.29927,-0.52212 -0.48704,-0.77071 -0.6013,-0.72837 z m -2.06663,0.018 c -0.12344,-0.0535 -0.33638,0.23157 -0.68884,0.82821 -0.61583,1.04258 -0.3551,1.85573 0.96907,3.07205 0.99172,0.911 2.04567,1.64207 2.34684,1.62704 0.30121,-0.015 -0.12703,-0.59487 -0.95158,-1.28636 -0.82446,-0.69156 -1.50603,-2.06484 -1.51201,-3.04853 -0.006,-0.75183 -0.04,-1.13898 -0.16351,-1.19241 z m 0.52103,-15.29391 c 0,0.29808 -0.63659,0.0451 -0.94575,0.18195 -0.68341,0.30174 -0.47833,0.52435 0.51958,0.56976 0.9028,0.0412 1.41126,-0.17894 1.1267,-0.4934 -0.14227,-0.15699 -0.40294,-0.2448 -0.70053,-0.25834 z m 8.46351,19.31738 c -0.09,0.0995 -0.15454,0.4297 -0.17516,0.98096 -0.037,0.99744 0.17067,1.55964 0.45534,1.24525 0.28456,-0.31449 0.31173,-1.13178 0.0643,-1.81504 -0.1366,-0.37752 -0.25437,-0.51069 -0.34445,-0.41117 z m 18.41907,1.02334 c 0,0.5408 -1.14452,0.25713 -1.51784,0.66963 -0.63564,0.7023 -0.30395,0.82284 1.12088,0.41118 1.15817,-0.33473 1.54641,-0.76247 0.90486,-0.99856 -0.15454,-0.0569 -0.32763,-0.0836 -0.5079,-0.0824 z m -30.37509,1.64938 c -0.17665,-0.024 -0.27439,0.10887 -0.27439,0.40528 0,0.53791 0.25227,1.26242 0.56627,1.60945 0.31408,0.34706 0.77217,0.40985 1.01578,0.14105 0.2433,-0.26886 -0.0149,-0.98757 -0.5721,-1.60356 -0.30733,-0.33957 -0.55901,-0.52741 -0.73559,-0.55216 z m 13.42718,0.83408 c -0.84721,0.0343 -0.69761,0.33295 0.43199,0.86932 2.35462,1.1181 3.70834,1.1181 2.14252,0 -0.70669,-0.50455 -1.8678,-0.9 -2.57451,-0.86932 z m 7.21926,-1.92023 c -0.14377,-0.0661 -0.41864,-0.0271 -0.7998,0.13503 -0.7312,0.31007 -1.33104,0.72942 -1.33104,0.93393 0,0.76658 1.63365,0.33544 2.13666,-0.56389 0.15005,-0.26857 0.1378,-0.43884 -0.006,-0.50516 z m -14.17803,3.30071 c -0.31408,0 -0.62772,0.22195 -1.02747,0.66377 -0.79953,0.88313 -0.57147,1.13364 1.02747,1.13364 1.599,0 1.82694,-0.25021 1.02748,-1.13364 -0.39979,-0.4417 -0.71342,-0.66377 -1.02748,-0.66377 z m 19.5882,-2.54264 c -0.44327,0 -0.80563,0.42509 -0.80563,0.94568 0,0.52049 0.60238,0.94568 1.33686,0.94568 0.73461,0 1.09675,-0.42519 0.80563,-0.94568 -0.29113,-0.52059 -0.89351,-0.94568 -1.33686,-0.94568 z m -3.21835,1.92825 c -0.0866,0.009 -0.15452,0.0833 -0.19846,0.22916 -0.17576,0.58305 -0.67247,0.81687 -1.10336,0.52275 -0.43087,-0.29412 -0.78228,0.39162 -0.78228,1.52722 0,1.82022 0.17007,1.91465 1.44778,0.76948 0.79743,-0.71444 1.19844,-0.84 0.8932,-0.27607 -0.30526,0.56395 -0.0329,1.0279 0.60716,1.0279 0.92357,0 0.96817,-0.482 0.21013,-2.32017 -0.39395,-0.95554 -0.81403,-1.50752 -1.07419,-1.48021 z m -6.81793,4.88712 c 0,-0.163 -0.76823,0.15939 -1.71049,0.71661 -0.94228,0.55719 -1.71634,1.41775 -1.71634,1.91488 0,0.49713 0.77406,0.17473 1.71634,-0.71661 0.94226,-0.89143 1.71049,-1.75188 1.71049,-1.91488 z m 12.85149,-2.96665 c -0.61322,0 -0.50935,0.37683 0.26274,0.92809 1.64569,1.17509 1.94159,1.17509 1.28434,0 -0.29112,-0.52052 -0.98595,-0.9341 -1.54705,-0.92809 z m -10.28395,2.12402 c -0.30255,-0.018 -0.64416,0.15398 -1.00996,0.55803 -0.73132,0.80788 -0.76288,1.17479 -0.0992,1.17479 0.57425,0 0.74051,-0.57255 0.54682,1.11552 -0.07,0.61159 -0.1576,2.11934 1.47698,-0.27609 0.42498,-2.45624 -0.007,-2.51439 -0.91461,-2.57225 z m -8.70943,-0.72131 c -0.49256,1.43302 -0.55177,2.20519 -0.13195,1.72012 0.41944,-0.48504 1.03497,-0.58746 1.36671,-0.22718 0.33117,0.36039 0.62917,-0.15121 0.66474,-1.13969 0.10608,-2.94953 -0.32681,-2.84955 -1.89944,-0.35335 z m -7.286,1.47375 c -0.77594,-0.12059 -0.37708,-0.77969 0.17633,0.81406 0.6398,1.84253 3.51642,0.55993 3.51642,-1.24106 0,-0.72013 -1.12385,-0.27145 -2.06611,-0.54392 -0.47527,-0.13744 -1.36812,1.01108 -1.62676,0.97107 z m 24.78456,-0.75307 c -0.37416,0.002 -0.26122,0.92367 -0.73803,1.61625 0.95109,0.42762 1.98243,0.22194 2.5653,0.34561 1.21428,0.46233 1.57306,0.0263 0.18533,-1.19124 -0.78297,-0.6871 -1.63853,-0.77224 -2.01272,-0.77062 z"
     id="path4998"
     inkscape:connector-curvature="0"
     sodipodi:nodetypes="ccssscccccccccccccccscccccsccccccccscccsssccccscssscsccccsccsccscscccsssccccssscccsssccscccsccccccccccccccscccscccscccssccccccccccccccccccsccccssscssscsscscccccccccccccssccccsccccccccccccccccccscccssccsscccccscccsscccscccccccccc"
     inkscape:tile-cx="15.910907"
     inkscape:tile-cy="16.091624"
     inkscape:tile-w="31.825734"
     inkscape:tile-h="31.947694"
     inkscape:tile-x0="-0.00196"
     inkscape:tile-y0="0.11777726" /></svg>
