<svg xmlns="http://www.w3.org/2000/svg" width="16" height="16" viewBox="0 0 16 16" fill="none" version="1.1" id="svg35"><path style="fill:#7e9ada;fill-opacity:1" id="path2" d="M6.55 5a.5.5 0 1 0 0-1 .5.5 0 0 0 0 1z"/><path style="fill:#7e9ada;fill-opacity:1" id="path4" d="M3.5 7.98a.5.5 0 1 0 0-1 .5.5 0 0 0 0 1z"/><path style="fill:#7e9ada;fill-opacity:1" id="path6" d="M11.5 8.02a.5.5 0 1 0 0-1 .5.5 0 0 0 0 1z"/><path style="fill:#7e9ada;fill-opacity:1" id="path8" d="M13.5 15.82a.5.5 0 1 0 0-1 .5.5 0 0 0 0 1z"/><path style="fill:#7e9ada;fill-opacity:1" id="path10" d="M9.5 3a.5.5 0 1 0 0-1 .5.5 0 0 0 0 1z"/><path style="fill:#7e9ada;fill-opacity:1" id="path12" d="M1.6 2a.5.5 0 1 0 0-1 .5.5 0 0 0 0 1z"/><path style="fill:#7e9ada;fill-opacity:1" id="path14" d="M8.5 8.9a.5.5 0 1 0 0-1 .5.5 0 0 0 0 1z"/><path style="fill:#7e9ada;fill-opacity:1" id="path16" d="M12.5 11.94a.5.5 0 1 0 0-1 .5.5 0 0 0 0 1z"/><path style="fill:#7e9ada;fill-opacity:1" id="path18" d="M8.44 14a.5.5 0 1 0 0-1 .5.5 0 0 0 0 1z"/><path style="fill:#7e9ada;fill-opacity:1" id="path20" d="M1.4 12a.5.5 0 1 0 0-1 .5.5 0 0 0 0 1z"/><path style="fill:#7e9ada;fill-opacity:1" id="path22" d="M12.44 4a.5.5 0 1 0 0-1 .5.5 0 0 0 0 1z"/><path style="fill:#7e9ada;fill-opacity:1" id="path24" d="M15.5 3.94a.5.5 0 1 0 0-1 .5.5 0 0 0 0 1z"/><path style="fill:#7e9ada;fill-opacity:1" id="path26" d="M4.5 14.9a.5.5 0 1 0 0-1 .5.5 0 0 0 0 1z"/><defs id="defs33"><clipPath id="clip0"><path d="M0 0h16v16H0V0z" fill="#fff" id="path30"/></clipPath></defs></svg>
