<svg width="32" height="32" viewBox="0 0 32 32" fill="none" xmlns="http://www.w3.org/2000/svg">
<g clip-path="url(#clip0)">
<path d="M32.0241 -0.0241089H7.62939e-06V32H32.0241V-0.0241089Z" fill="#E4FDFF"/>
<path d="M8.21467 29.6356H7.20267V30.6466H8.21467V29.6356Z" fill="#999999"/>
<path d="M6.00361 23.7463H4.9896V24.7574H6.00361V23.7463Z" fill="#999999"/>
<path d="M6.06458 12.3964H5.05058V13.4073H6.06458V12.3964Z" fill="#999999"/>
<path d="M19.6624 28.5489H18.6504V29.5599H19.6624V28.5489Z" fill="#999999"/>
<path d="M2.22474 17.0277H1.21073V18.0387H2.22474V17.0277Z" fill="#999999"/>
<path d="M3.26865 28.2128H2.25465V29.2238H3.26865V28.2128Z" fill="#999999"/>
<path d="M12.3672 27.8235H11.3532V28.8346H12.3672V27.8235Z" fill="#999999"/>
<path d="M10.7192 13.8417H9.70515V14.8527H10.7192V13.8417Z" fill="#999999"/>
<path d="M2.23893 9.14807H1.22492V10.1591H2.23893V9.14807Z" fill="#999999"/>
<path d="M16.8946 17.4164H15.8806V18.4274H16.8946V17.4164Z" fill="#999999"/>
<path d="M20.0711 11.5913H19.0571V12.6023H20.0711V11.5913Z" fill="#999999"/>
<path d="M7.84324 2.59155H6.82923V3.60254H7.84324V2.59155Z" fill="#999999"/>
<path d="M13.2349 5.95032H12.2209V6.96133H13.2349V5.95032Z" fill="#999999"/>
<path d="M17.2124 1.00049H16.1984V2.01147H17.2124V1.00049Z" fill="#999999"/>
<path d="M15.3562 12.6678H14.3422V13.6788H15.3562V12.6678Z" fill="#999999"/>
<path d="M24.3719 1.53088H23.3579V2.54187H24.3719V1.53088Z" fill="#999999"/>
<path d="M24.1067 9.92773H23.0927V10.9387H24.1067V9.92773Z" fill="#999999"/>
<path d="M28.968 8.15997H27.954V9.17096H28.968V8.15997Z" fill="#999999"/>
<path d="M25.5209 23.8047H24.5069V24.8157H25.5209V23.8047Z" fill="#999999"/>
<path d="M21.897 22.2137H20.883V23.2247H21.897V22.2137Z" fill="#999999"/>
<path d="M28.6145 15.673H27.6005V16.684H28.6145V15.673Z" fill="#999999"/>
<path d="M28.1726 29.1964H27.1585V30.2074H28.1726V29.1964Z" fill="#999999"/>
<path d="M30.2055 0.116638H29.1915V1.12766H30.2055V0.116638Z" fill="#999999"/>
</g>
<defs>
<clipPath id="clip0">
<path d="M0 0H32V32H0V0Z" fill="white"/>
</clipPath>
</defs>
</svg>
