<svg width="24" height="24" viewBox="0 0 24 24" fill="none" xmlns="http://www.w3.org/2000/svg">
<g clip-path="url(#clip0)">
<path opacity="0.344" d="M24 0H7.62939e-06V24H24V0Z" fill="#FFE1BA"/>
<path d="M17.012 17.989H16V19H17.012V17.989Z" fill="#AE9F8D"/>
<path d="M10 3H8.986V4.01099H10V3Z" fill="#AE9F8D"/>
<path d="M21 14H19.986V15.011H21V14Z" fill="#AE9F8D"/>
<path d="M4.00001 15H2.98801V16.011H4.00001V15Z" fill="#AE9F8D"/>
<path d="M11.014 12H10V13.011H11.014V12Z" fill="#AE9F8D"/>
<path d="M7.00001 11H5.986V12.011H7.00001V11Z" fill="#AE9F8D"/>
<path d="M23.014 21.989H22V23H23.014V21.989Z" fill="#AE9F8D"/>
<path d="M8.00001 16H6.98801V17.011H8.00001V16Z" fill="#AE9F8D"/>
<path d="M23 3H21.986V4.01099H23V3Z" fill="#AE9F8D"/>
<path d="M16 11.989H14.986V13H16V11.989Z" fill="#AE9F8D"/>
<path d="M14 16.989H12.988V18H14V16.989Z" fill="#AE9F8D"/>
<path d="M7.00001 22.989H5.986V24H7.00001V22.989Z" fill="#AE9F8D"/>
<path d="M6.00001 1H4.986V2.01099H6.00001V1Z" fill="#AE9F8D"/>
<path d="M11 21H9.986V22.011H11V21Z" fill="#AE9F8D"/>
<path d="M12.012 5.98901H11V7H12.012V5.98901Z" fill="#AE9F8D"/>
<path d="M23.014 11H22V12.011H23.014V11Z" fill="#AE9F8D"/>
<path d="M18.014 0H17V1.01099H18.014V0Z" fill="#AE9F8D"/>
<path d="M20 6.98901H18.988V8H20V6.98901Z" fill="#AE9F8D"/>
<path d="M15.014 22H14V23.011H15.014V22Z" fill="#AE9F8D"/>
<path d="M5.00001 19H3.986V20.011H5.00001V19Z" fill="#AE9F8D"/>
<path d="M3.00001 3.98901H1.986V5H3.00001V3.98901Z" fill="#AE9F8D"/>
<path d="M15.012 8H14V9.01102H15.012V8Z" fill="#AE9F8D"/>
<path d="M21 19H19.986V20.011H21V19Z" fill="#AE9F8D"/>
<path d="M1.00001 13H-0.0119858V14.011H1.00001V13Z" fill="#AE9F8D"/>
<path d="M2.01402 20.989H1.00001V22H2.01402V20.989Z" fill="#AE9F8D"/>
<path d="M5.00001 7.98901H3.986V9H5.00001V7.98901Z" fill="#AE9F8D"/>
<path d="M11 16.989H9.986V18H11V16.989Z" fill="#AE9F8D"/>
<path d="M17 3.98901H15.988V5H17V3.98901Z" fill="#AE9F8D"/>
</g>
<defs>
<clipPath id="clip0">
<path d="M0 0H24V24H0V0Z" fill="white"/>
</clipPath>
</defs>
</svg>
