<?xml version="1.0" encoding="UTF-8" standalone="no"?>
<!-- Generator: Adobe Illustrator 16.0.4, SVG Export Plug-In . SVG Version: 6.00 Build 0)  -->

<svg
   xmlns:dc="http://purl.org/dc/elements/1.1/"
   xmlns:cc="http://creativecommons.org/ns#"
   xmlns:rdf="http://www.w3.org/1999/02/22-rdf-syntax-ns#"
   xmlns:svg="http://www.w3.org/2000/svg"
   xmlns="http://www.w3.org/2000/svg"
   xmlns:sodipodi="http://sodipodi.sourceforge.net/DTD/sodipodi-0.dtd"
   xmlns:inkscape="http://www.inkscape.org/namespaces/inkscape"
   version="1.1"
   id="Слой_1"
   x="0px"
   y="0px"
   width="24"
   height="24"
   viewBox="405.306 283.114 24 24"
   enable-background="new 405.306 283.114 30 30"
   xml:space="preserve"
   inkscape:version="0.91 r13725"
   sodipodi:docname="h_topo_cemetery_jewish.svg"><metadata
     id="metadata37"><rdf:RDF><cc:Work
         rdf:about=""><dc:format>image/svg+xml</dc:format><dc:type
           rdf:resource="http://purl.org/dc/dcmitype/StillImage" /><dc:title /></cc:Work></rdf:RDF></metadata><defs
     id="defs35" /><sodipodi:namedview
     pagecolor="#ffffff"
     bordercolor="#666666"
     borderopacity="1"
     objecttolerance="10"
     gridtolerance="10"
     guidetolerance="10"
     inkscape:pageopacity="0"
     inkscape:pageshadow="2"
     inkscape:window-width="1920"
     inkscape:window-height="1006"
     id="namedview33"
     showgrid="true"
     inkscape:zoom="22.627417"
     inkscape:cx="11.24602"
     inkscape:cy="13.472483"
     inkscape:window-x="1920"
     inkscape:window-y="0"
     inkscape:window-maximized="1"
     inkscape:current-layer="Слой_1"
     inkscape:snap-global="true"><inkscape:grid
       type="xygrid"
       id="grid3789"
       empspacing="5"
       visible="true"
       enabled="true"
       snapvisiblegridlinesonly="true" /></sodipodi:namedview><path
     style="color:#000000;font-style:normal;font-variant:normal;font-weight:normal;font-stretch:normal;font-size:medium;line-height:normal;font-family:sans-serif;text-indent:0;text-align:start;text-decoration:none;text-decoration-line:none;text-decoration-style:solid;text-decoration-color:#000000;letter-spacing:normal;word-spacing:normal;text-transform:none;direction:ltr;block-progression:tb;writing-mode:lr-tb;baseline-shift:baseline;text-anchor:start;white-space:normal;clip-rule:nonzero;display:inline;overflow:visible;visibility:visible;opacity:0.843;isolation:auto;mix-blend-mode:normal;color-interpolation:sRGB;color-interpolation-filters:linearRGB;solid-color:#000000;solid-opacity:1;fill:#4f4f4f;fill-opacity:1;fill-rule:nonzero;stroke:none;stroke-width:0.75;stroke-linecap:square;stroke-linejoin:miter;stroke-miterlimit:4;stroke-dasharray:none;stroke-dashoffset:0;stroke-opacity:1;color-rendering:auto;image-rendering:auto;shape-rendering:auto;text-rendering:auto;enable-background:accumulate"
     d="M 17.462891 2.390625 L 16.267578 4.4941406 L 13.859375 4.4941406 L 15.082031 6.5800781 L 13.917969 8.6308594 L 14.5625 8.6308594 L 16.285156 8.6308594 L 17.517578 10.734375 L 18.712891 8.6308594 L 21.123047 8.6308594 L 19.898438 6.5449219 L 21.064453 4.4941406 L 20.419922 4.4941406 L 18.697266 4.4941406 L 17.462891 2.390625 z M 17.472656 3.8925781 L 17.826172 4.4941406 L 17.130859 4.4941406 L 17.472656 3.8925781 z M 15.166016 5.2441406 L 15.841797 5.2441406 L 15.509766 5.8300781 L 15.166016 5.2441406 z M 16.705078 5.2441406 L 18.265625 5.2441406 L 19.033203 6.5507812 L 18.277344 7.8808594 L 16.712891 7.8808594 L 15.947266 6.5761719 L 16.705078 5.2441406 z M 19.136719 5.2441406 L 19.775391 5.2441406 L 19.460938 5.796875 L 19.136719 5.2441406 z M 19.470703 7.2988281 L 19.8125 7.8808594 L 19.138672 7.8808594 L 19.470703 7.2988281 z M 15.521484 7.328125 L 15.845703 7.8808594 L 15.207031 7.8808594 L 15.521484 7.328125 z M 17.152344 8.6308594 L 17.851562 8.6308594 L 17.507812 9.2363281 L 17.152344 8.6308594 z "
     transform="translate(405.306,283.11401)"
     id="path4179-3" /><path
     inkscape:connector-curvature="0"
     style="color:#000000;font-style:normal;font-variant:normal;font-weight:normal;font-stretch:normal;font-size:medium;line-height:normal;font-family:sans-serif;text-indent:0;text-align:start;text-decoration:none;text-decoration-line:none;text-decoration-style:solid;text-decoration-color:#000000;letter-spacing:normal;word-spacing:normal;text-transform:none;direction:ltr;block-progression:tb;writing-mode:lr-tb;baseline-shift:baseline;text-anchor:start;white-space:normal;clip-rule:nonzero;display:inline;overflow:visible;visibility:visible;opacity:0.84299999;isolation:auto;mix-blend-mode:normal;color-interpolation:sRGB;color-interpolation-filters:linearRGB;solid-color:#000000;solid-opacity:1;fill:#4f4f4f;fill-opacity:1;fill-rule:nonzero;stroke:none;stroke-width:0.75;stroke-linecap:square;stroke-linejoin:miter;stroke-miterlimit:4;stroke-dasharray:none;stroke-dashoffset:0;stroke-opacity:1;color-rendering:auto;image-rendering:auto;shape-rendering:auto;text-rendering:auto;enable-background:accumulate"
     d="m 410.81308,298.50463 -1.19532,2.10352 -2.4082,0 1.22266,2.08594 -1.16407,2.05078 0.64453,0 1.72266,0 1.23242,2.10351 1.19532,-2.10351 2.41015,0 -1.22461,-2.08594 1.16602,-2.05078 -0.64453,0 -1.72266,0 -1.23437,-2.10352 z m 0.01,1.50196 0.35351,0.60156 -0.69531,0 0.3418,-0.60156 z m -2.30664,1.35156 0.67578,0 -0.33203,0.58594 -0.34375,-0.58594 z m 1.53906,0 1.56054,0 0.76758,1.30664 -0.75586,1.33008 -1.56445,0 -0.76562,-1.30469 0.75781,-1.33203 z m 2.43164,0 0.63867,0 -0.31445,0.55273 -0.32422,-0.55273 z m 0.33398,2.05469 0.3418,0.58203 -0.67383,0 0.33203,-0.58203 z m -3.94922,0.0293 0.32422,0.55274 -0.63867,0 0.31445,-0.55274 z m 1.63086,1.30274 0.69922,0 -0.34375,0.60547 -0.35547,-0.60547 z"
     id="path4179-3-3" /></svg>