<?xml version="1.0" encoding="utf-8"?>
<!-- Generator: Adobe Illustrator 16.0.4, SVG Export Plug-In . SVG Version: 6.00 Build 0)  -->
<!DOCTYPE svg PUBLIC "-//W3C//DTD SVG 1.1//EN" "http://www.w3.org/Graphics/SVG/1.1/DTD/svg11.dtd">
<svg version="1.1" id="Слой_1" xmlns="http://www.w3.org/2000/svg" xmlns:xlink="http://www.w3.org/1999/xlink" x="0px" y="0px"
	 width="59.397px" height="16.573px" viewBox="390.621 290.656 59.397 16.573"
	 enable-background="new 390.621 290.656 59.397 16.573" xml:space="preserve">
<path fill="#FF8095" d="M442.189,290.656h-43.743c-4.313,0-7.827,3.521-7.825,7.843v0.89c0,4.293,3.513,7.841,7.825,7.841h43.743
	c4.314,0,7.829-3.548,7.829-7.841v-0.89C450.018,294.177,446.504,290.656,442.189,290.656z M448.846,299.271
	c0,3.749-3.062,6.812-6.8,6.812h-43.399c-3.715,0-6.771-3.062-6.771-6.812v-0.744c0.001-3.751,3.059-6.812,6.771-6.812h43.399
	c3.738,0,6.8,3.062,6.8,6.812V299.271z"/>
<path fill="#FF8095" d="M399.189,293.061h42.258c3.062,0,5.542,2.521,5.542,5.552v0.632c0,3.062-2.48,5.551-5.542,5.551h-42.258
	c-3.059,0-5.542-2.486-5.542-5.551v-0.632C393.647,295.578,396.134,293.061,399.189,293.061L399.189,293.061z"/>
</svg>
