<?xml version="1.0" encoding="UTF-8" standalone="no"?>
<!-- Generator: Adobe Illustrator 16.0.4, SVG Export Plug-In . SVG Version: 6.00 Build 0)  -->

<svg
   xmlns:dc="http://purl.org/dc/elements/1.1/"
   xmlns:cc="http://creativecommons.org/ns#"
   xmlns:rdf="http://www.w3.org/1999/02/22-rdf-syntax-ns#"
   xmlns:svg="http://www.w3.org/2000/svg"
   xmlns="http://www.w3.org/2000/svg"
   xmlns:sodipodi="http://sodipodi.sourceforge.net/DTD/sodipodi-0.dtd"
   xmlns:inkscape="http://www.inkscape.org/namespaces/inkscape"
   version="1.1"
   id="Слой_1"
   x="0px"
   y="0px"
   width="52.743px"
   height="16.57px"
   viewBox="0 0 52.743 16.57"
   enable-background="new 0 0 52.743 16.57"
   xml:space="preserve"
   inkscape:version="0.48.4 r9939"
   sodipodi:docname="h_tru_shield6.svg"><metadata
     id="metadata13"><rdf:RDF><cc:Work
         rdf:about=""><dc:format>image/svg+xml</dc:format><dc:type
           rdf:resource="http://purl.org/dc/dcmitype/StillImage" /><dc:title></dc:title></cc:Work></rdf:RDF></metadata><defs
     id="defs11" /><sodipodi:namedview
     pagecolor="#ffffff"
     bordercolor="#666666"
     borderopacity="1"
     objecttolerance="10"
     gridtolerance="10"
     guidetolerance="10"
     inkscape:pageopacity="0"
     inkscape:pageshadow="2"
     inkscape:window-width="640"
     inkscape:window-height="480"
     id="namedview9"
     showgrid="false"
     inkscape:zoom="7.9821019"
     inkscape:cx="26.3715"
     inkscape:cy="8.2849998"
     inkscape:window-x="0"
     inkscape:window-y="0"
     inkscape:window-maximized="0"
     inkscape:current-layer="Слой_1" /><path
     fill-rule="evenodd"
     clip-rule="evenodd"
     fill="#E7687D"
     d="M7.829,0h37.086c4.314,0,7.828,3.521,7.828,7.842v0.886  c0,4.323-3.514,7.842-7.828,7.842H7.829C3.514,16.571,0,13.051,0,8.728V7.842C0,3.521,3.514,0,7.829,0L7.829,0z"
     id="path3"
     style="color:#000000;fill:#d8d8d8;fill-opacity:1;fill-rule:evenodd;stroke-width:1.00000002;stroke-linecap:butt;stroke-linejoin:miter;stroke-miterlimit:4;stroke-opacity:1;stroke-dasharray:none;stroke-dashoffset:0;marker:none;visibility:visible;display:inline;overflow:visible;enable-background:accumulate" /><path
     fill-rule="evenodd"
     clip-rule="evenodd"
     fill="#FFFFFF"
     d="M7.885,1.06h37.029c3.715,0,6.771,3.062,6.771,6.811v0.772  c0,3.75-3.057,6.811-6.771,6.811H7.885c-3.714,0-6.771-3.061-6.771-6.811V7.87C1.114,4.121,4.171,1.06,7.885,1.06L7.885,1.06z"
     id="path5" /><path
     fill-rule="evenodd"
     clip-rule="evenodd"
     fill="#E7687D"
     d="M8.228,2.433h36.286c3.057,0,5.543,2.49,5.543,5.552v0.63  c0,3.034-2.486,5.522-5.543,5.522H8.228c-3.057,0-5.543-2.488-5.543-5.522v-0.63C2.685,4.923,5.171,2.433,8.228,2.433L8.228,2.433z"
     id="path7"
     style="color:#000000;fill:#d8d8d8;fill-opacity:1;fill-rule:evenodd;stroke-width:1.00000002;stroke-linecap:butt;stroke-linejoin:miter;stroke-miterlimit:4;stroke-opacity:1;stroke-dasharray:none;stroke-dashoffset:0;marker:none;visibility:visible;display:inline;overflow:visible;enable-background:accumulate" /></svg>