<svg width="16" height="16" viewBox="0 0 16 16" fill="none" xmlns="http://www.w3.org/2000/svg">
<g clip-path="url(#clip0)">
<path d="M16.036 -0.0360107H0V16H16.036V-0.0360107Z" fill="#B3E2A8"/>
<path d="M6.62711 7.44385C6.61536 7.7123 6.51805 7.96399 6.35659 8.14357C6.19512 8.32315 5.98271 8.41593 5.76606 8.40151C5.5494 8.38708 5.34624 8.26664 5.20123 8.06665C5.05622 7.86667 4.98124 7.60351 4.99276 7.33504C5.00429 7.06657 5.10139 6.81476 5.26271 6.63497C5.42402 6.45519 5.63635 6.36214 5.85302 6.37628C6.06969 6.39043 6.27295 6.51062 6.41813 6.71042C6.5633 6.91021 6.6385 7.17327 6.6272 7.44176" fill="#88BE7C"/>
<path d="M10.4142 7.45862C10.4024 7.72707 10.3051 7.97876 10.1437 8.15834C9.9822 8.33792 9.76979 8.4307 9.55313 8.41628C9.33648 8.40185 9.13332 8.28141 8.98831 8.08142C8.8433 7.88144 8.76832 7.61828 8.77984 7.34981C8.79137 7.08134 8.88847 6.82953 9.04978 6.64974C9.2111 6.46996 9.42343 6.37691 9.6401 6.39105C9.85677 6.4052 10.06 6.52539 10.2052 6.72519C10.3504 6.92499 10.4256 7.18805 10.4143 7.45653" fill="#88BE7C"/>
<path d="M8.54236 6.98059C8.53061 7.24905 8.43331 7.50073 8.27184 7.68031C8.11037 7.8599 7.89796 7.95267 7.68131 7.93825C7.46465 7.92383 7.26149 7.80338 7.11648 7.6034C6.97147 7.40341 6.89649 7.14026 6.90802 6.87179C6.91955 6.60331 7.01664 6.35151 7.17796 6.17172C7.33927 5.99193 7.55161 5.89888 7.76827 5.91303C7.98494 5.92717 8.18821 6.04736 8.33338 6.24716C8.47856 6.44696 8.55376 6.71002 8.54245 6.9785" fill="#88BE7C"/>
<path d="M8.34692 9.18168C8.33773 9.39178 8.26157 9.58875 8.13521 9.7293C8.00884 9.86984 7.84261 9.94245 7.67305 9.93116C7.50349 9.91987 7.34449 9.82561 7.23101 9.6691C7.11752 9.51259 7.05884 9.30664 7.06786 9.09653C7.07688 8.88642 7.15287 8.68935 7.27912 8.54865C7.40537 8.40794 7.57154 8.33512 7.74111 8.34619C7.91068 8.35726 8.06975 8.45132 8.18337 8.60769C8.29699 8.76405 8.35584 8.96993 8.34699 9.18005" fill="#88BE7C"/>
<path d="M6.93262 9.44133C6.92342 9.65142 6.84727 9.8484 6.7209 9.98894C6.59453 10.1295 6.4283 10.2021 6.25874 10.1908C6.08919 10.1795 5.93019 10.0853 5.8167 9.92874C5.70321 9.77223 5.64453 9.56628 5.65355 9.35617C5.66258 9.14607 5.73857 8.949 5.86481 8.80829C5.99106 8.66759 6.15724 8.59477 6.3268 8.60584C6.49637 8.61691 6.65545 8.71097 6.76906 8.86733C6.88268 9.0237 6.94153 9.22957 6.93269 9.43969" fill="#88BE7C"/>
<path d="M9.81995 9.51249C9.81075 9.72259 9.7346 9.91956 9.60823 10.0601C9.48186 10.2007 9.31563 10.2733 9.14607 10.262C8.97652 10.2507 8.81752 10.1564 8.70403 9.99991C8.59054 9.8434 8.53186 9.63745 8.54088 9.42734C8.54991 9.21723 8.62589 9.02016 8.75214 8.87946C8.87839 8.73875 9.04457 8.66593 9.21413 8.677C9.3837 8.68808 9.54278 8.78213 9.65639 8.9385C9.77001 9.09487 9.82886 9.30074 9.82002 9.51086" fill="#88BE7C"/>
<path d="M7.49583 11.1426C7.48847 11.3108 7.42749 11.4686 7.32631 11.5811C7.22513 11.6936 7.09203 11.7518 6.95627 11.7427C6.82051 11.7337 6.6932 11.6582 6.60233 11.5329C6.51147 11.4076 6.46448 11.2427 6.4717 11.0744C6.47893 10.9062 6.53977 10.7484 6.64086 10.6358C6.74194 10.5231 6.875 10.4648 7.01077 10.4737C7.14654 10.4825 7.27391 10.5578 7.36488 10.683C7.45585 10.8082 7.50297 10.9731 7.49589 11.1413" fill="#88BE7C"/>
<path d="M8.81541 11.1407C8.80805 11.3089 8.74707 11.4666 8.64589 11.5791C8.54471 11.6917 8.41161 11.7498 8.27585 11.7408C8.14009 11.7317 8.01278 11.6563 7.92191 11.5309C7.83105 11.4056 7.78406 11.2407 7.79128 11.0725C7.79851 10.9043 7.85935 10.7465 7.96044 10.6338C8.06152 10.5211 8.19458 10.4628 8.33035 10.4717C8.46612 10.4806 8.59349 10.5559 8.68446 10.6811C8.77543 10.8063 8.82255 10.9711 8.81547 11.1394" fill="#88BE7C"/>
<path d="M8.14606 12.5272C8.13879 12.6933 8.07859 12.849 7.97869 12.9602C7.87878 13.0713 7.74736 13.1287 7.61332 13.1197C7.47927 13.1108 7.35357 13.0363 7.26385 12.9126C7.17413 12.7888 7.12774 12.626 7.13487 12.4599C7.142 12.2938 7.20208 12.138 7.30189 12.0268C7.4017 11.9155 7.53307 11.858 7.66712 11.8667C7.80118 11.8755 7.92694 11.9498 8.01676 12.0734C8.10658 12.1971 8.15311 12.3598 8.14612 12.5259" fill="#88BE7C"/>
<path d="M6.77496 2.62683C6.77496 2.62683 9.00707 3.49583 7.94757 5.42004" stroke="#88BE7C" stroke-width="0.520341" stroke-linecap="round"/>
<path d="M8.56531 3.87128C8.92613 2.85713 8.09568 2.5446 9.3819 1.87463C9.3819 1.87463 9.78583 2.10604 9.86356 2.22998C10.019 2.47789 9.82275 3.0936 9.82275 3.0936C9.82275 3.0936 9.83793 2.78486 10.3734 2.53497C10.6244 2.41783 11.4943 2.68268 11.4943 2.68268C11.4943 2.68268 11.4558 3.36139 11.0836 3.89932C11.0068 4.01036 10.3785 4.04361 10.3785 4.04361C11.2612 4.23859 11.0188 4.71544 11.1915 5.00168C9.59256 5.93156 9.19843 4.05285 8.26788 4.40268L8.17056 4.0282L8.56531 3.87128Z" fill="#88BE7C"/>
</g>
<defs>
<clipPath id="clip0">
<path d="M0 0H16V16H0V0Z" fill="white"/>
</clipPath>
</defs>
</svg>
