<?xml version="1.0" encoding="UTF-8" standalone="no"?>
<!-- Generator: Adobe Illustrator 16.0.4, SVG Export Plug-In . SVG Version: 6.00 Build 0)  -->

<svg
   xmlns:dc="http://purl.org/dc/elements/1.1/"
   xmlns:cc="http://creativecommons.org/ns#"
   xmlns:rdf="http://www.w3.org/1999/02/22-rdf-syntax-ns#"
   xmlns:svg="http://www.w3.org/2000/svg"
   xmlns="http://www.w3.org/2000/svg"
   xmlns:sodipodi="http://sodipodi.sourceforge.net/DTD/sodipodi-0.dtd"
   xmlns:inkscape="http://www.inkscape.org/namespaces/inkscape"
   version="1.1"
   id="Слой_1"
   x="0px"
   y="0px"
   width="29px"
   height="29px"
   viewBox="406.001 283.28 29 29"
   enable-background="new 406.001 283.28 29 29"
   xml:space="preserve"
   inkscape:version="0.48.4 r9939"
   sodipodi:docname="h_vineyard2.svg"><metadata
     id="metadata17"><rdf:RDF><cc:Work
         rdf:about=""><dc:format>image/svg+xml</dc:format><dc:type
           rdf:resource="http://purl.org/dc/dcmitype/StillImage" /><dc:title></dc:title></cc:Work></rdf:RDF></metadata><defs
     id="defs15" /><sodipodi:namedview
     pagecolor="#ffffff"
     bordercolor="#666666"
     borderopacity="1"
     objecttolerance="10"
     gridtolerance="10"
     guidetolerance="10"
     inkscape:pageopacity="0"
     inkscape:pageshadow="2"
     inkscape:window-width="1920"
     inkscape:window-height="1004"
     id="namedview13"
     showgrid="false"
     inkscape:zoom="16.275862"
     inkscape:cx="-4.5101861"
     inkscape:cy="13.576493"
     inkscape:window-x="1680"
     inkscape:window-y="0"
     inkscape:window-maximized="1"
     inkscape:current-layer="Слой_1" /><rect
     x="406.001"
     y="283.28"
     fill="#B3E2A8"
     width="29"
     height="29"
     id="rect3" /><path
     sodipodi:type="arc"
     style="color:#000000;fill:#88be7c;fill-opacity:1;fill-rule:nonzero;stroke:none;stroke-width:1;marker:none;visibility:visible;display:inline;overflow:visible;enable-background:accumulate"
     id="path2994"
     sodipodi:cx="12.902542"
     sodipodi:cy="15.513771"
     sodipodi:rx="1.9984756"
     sodipodi:ry="2.4763718"
     d="m 14.898143,15.646539 a 1.9984756,2.4763718 0 1 1 2.19e-4,-0.0051"
     transform="matrix(0.74052955,0,0,0.74052955,406.95316,285.22003)"
     sodipodi:start="0.053639769"
     sodipodi:end="6.3347467"
     sodipodi:open="true" /><path
     transform="matrix(0.74052955,0,0,0.74052955,413.80183,285.24687)"
     sodipodi:type="arc"
     style="color:#000000;fill:#88be7c;fill-opacity:1;fill-rule:nonzero;stroke:none;stroke-width:1;marker:none;visibility:visible;display:inline;overflow:visible;enable-background:accumulate"
     id="path2994-9"
     sodipodi:cx="12.902542"
     sodipodi:cy="15.513771"
     sodipodi:rx="1.9984756"
     sodipodi:ry="2.4763718"
     d="m 14.898143,15.646539 a 1.9984756,2.4763718 0 1 1 2.19e-4,-0.0051"
     sodipodi:start="0.053639769"
     sodipodi:end="6.3347467"
     sodipodi:open="true" /><path
     transform="matrix(0.74052955,0,0,0.74052955,410.41675,284.38235)"
     sodipodi:type="arc"
     style="color:#000000;fill:#88be7c;fill-opacity:1;fill-rule:nonzero;stroke:none;stroke-width:1;marker:none;visibility:visible;display:inline;overflow:visible;enable-background:accumulate"
     id="path2994-2"
     sodipodi:cx="12.902542"
     sodipodi:cy="15.513771"
     sodipodi:rx="1.9984756"
     sodipodi:ry="2.4763718"
     d="m 14.898143,15.646539 a 1.9984756,2.4763718 0 1 1 2.19e-4,-0.0051"
     sodipodi:start="0.053639769"
     sodipodi:end="6.3347467"
     sodipodi:open="true" /><path
     transform="matrix(0.57954889,0,0,0.57954889,412.46164,290.88158)"
     sodipodi:type="arc"
     style="color:#000000;fill:#88be7c;fill-opacity:1;fill-rule:nonzero;stroke:none;stroke-width:1.27776897;marker:none;visibility:visible;display:inline;overflow:visible;enable-background:accumulate"
     id="path2994-4"
     sodipodi:cx="12.902542"
     sodipodi:cy="15.513771"
     sodipodi:rx="1.9984756"
     sodipodi:ry="2.4763718"
     d="m 14.898143,15.646539 a 1.9984756,2.4763718 0 1 1 2.19e-4,-0.0051"
     sodipodi:start="0.053639769"
     sodipodi:end="6.3347467"
     sodipodi:open="true" /><path
     transform="matrix(0.57954889,0,0,0.57954889,409.90393,291.35122)"
     sodipodi:type="arc"
     style="color:#000000;fill:#88be7c;fill-opacity:1;fill-rule:nonzero;stroke:none;stroke-width:1.27776897;marker:none;visibility:visible;display:inline;overflow:visible;enable-background:accumulate"
     id="path2994-4-8"
     sodipodi:cx="12.902542"
     sodipodi:cy="15.513771"
     sodipodi:rx="1.9984756"
     sodipodi:ry="2.4763718"
     d="m 14.898143,15.646539 a 1.9984756,2.4763718 0 1 1 2.19e-4,-0.0051"
     sodipodi:start="0.053639769"
     sodipodi:end="6.3347467"
     sodipodi:open="true" /><path
     transform="matrix(0.57954889,0,0,0.57954889,415.12547,291.47991)"
     sodipodi:type="arc"
     style="color:#000000;fill:#88be7c;fill-opacity:1;fill-rule:nonzero;stroke:none;stroke-width:1.27776897;marker:none;visibility:visible;display:inline;overflow:visible;enable-background:accumulate"
     id="path2994-4-8-5"
     sodipodi:cx="12.902542"
     sodipodi:cy="15.513771"
     sodipodi:rx="1.9984756"
     sodipodi:ry="2.4763718"
     d="m 14.898143,15.646539 a 1.9984756,2.4763718 0 1 1 2.19e-4,-0.0051"
     sodipodi:start="0.053639769"
     sodipodi:end="6.3347467"
     sodipodi:open="true" /><path
     transform="matrix(0.46403816,0,0,0.46403816,412.6434,296.23527)"
     sodipodi:type="arc"
     style="color:#000000;fill:#88be7c;fill-opacity:1;fill-rule:nonzero;stroke:none;stroke-width:1.59583759;marker:none;visibility:visible;display:inline;overflow:visible;enable-background:accumulate"
     id="path2994-4-8-2"
     sodipodi:cx="12.902542"
     sodipodi:cy="15.513771"
     sodipodi:rx="1.9984756"
     sodipodi:ry="2.4763718"
     d="m 14.898143,15.646539 a 1.9984756,2.4763718 0 1 1 2.19e-4,-0.0051"
     sodipodi:start="0.053639769"
     sodipodi:end="6.3347467"
     sodipodi:open="true" /><path
     transform="matrix(0.46403816,0,0,0.46403816,415.02978,296.23179)"
     sodipodi:type="arc"
     style="color:#000000;fill:#88be7c;fill-opacity:1;fill-rule:nonzero;stroke:none;stroke-width:1.59583759;marker:none;visibility:visible;display:inline;overflow:visible;enable-background:accumulate"
     id="path2994-4-8-2-6"
     sodipodi:cx="12.902542"
     sodipodi:cy="15.513771"
     sodipodi:rx="1.9984756"
     sodipodi:ry="2.4763718"
     d="m 14.898143,15.646539 a 1.9984756,2.4763718 0 1 1 2.19e-4,-0.0051"
     sodipodi:start="0.053639769"
     sodipodi:end="6.3347467"
     sodipodi:open="true" /><path
     transform="matrix(0.45817562,0,0,0.45817562,413.90659,298.83098)"
     sodipodi:type="arc"
     style="color:#000000;fill:#88be7c;fill-opacity:1;fill-rule:nonzero;stroke:none;stroke-width:1.97212231;marker:none;visibility:visible;display:inline;overflow:visible;enable-background:accumulate"
     id="path2994-4-8-2-3"
     sodipodi:cx="12.902542"
     sodipodi:cy="15.513771"
     sodipodi:rx="1.9984756"
     sodipodi:ry="2.4763718"
     d="m 14.898143,15.646539 a 1.9984756,2.4763718 0 1 1 2.19e-4,-0.0051"
     sodipodi:start="0.053639769"
     sodipodi:end="6.3347467"
     sodipodi:open="true" /><path
     style="fill:none;stroke:#88be7c;stroke-width:0.941;stroke-linecap:round;stroke-linejoin:miter;stroke-opacity:1;stroke-miterlimit:4;stroke-dasharray:none"
     d="m 418.25305,288.09568 c 0,0 4.03661,1.57151 2.12058,5.05131"
     id="path3128"
     inkscape:connector-curvature="0"
     sodipodi:nodetypes="cc" /><path
     style="color:#000000;fill:#88be7c;fill-opacity:1;fill-rule:nonzero;stroke:none;stroke-width:1;marker:none;visibility:visible;display:inline;overflow:visible;enable-background:accumulate"
     d="m 421.49077,290.34612 c 0.65251,-1.83402 -0.84932,-2.39922 1.47673,-3.61082 0,0 0.73046,0.41852 0.87103,0.64265 0.28114,0.44833 -0.0737,1.56182 -0.0737,1.56182 0,0 0.0275,-0.55834 0.99592,-1.01025 0.45386,-0.21183 2.02696,0.26713 2.02696,0.26713 0,0 -0.0696,1.22739 -0.74265,2.2002 -0.13895,0.20081 -1.2751,0.26093 -1.2751,0.26093 1.59615,0.3526 1.1578,1.21494 1.47009,1.7326 -2.89152,1.68161 -3.60426,-1.71589 -5.28709,-1.08326 l -0.17599,-0.6772 z"
     id="path3969"
     inkscape:connector-curvature="0"
     sodipodi:nodetypes="ccccscsccccc" /></svg>