<?xml version="1.0" encoding="UTF-8" standalone="no"?>
<!-- Generator: Adobe Illustrator 16.0.4, SVG Export Plug-In . SVG Version: 6.00 Build 0)  -->

<svg
   xmlns:dc="http://purl.org/dc/elements/1.1/"
   xmlns:cc="http://creativecommons.org/ns#"
   xmlns:rdf="http://www.w3.org/1999/02/22-rdf-syntax-ns#"
   xmlns:svg="http://www.w3.org/2000/svg"
   xmlns="http://www.w3.org/2000/svg"
   xmlns:sodipodi="http://sodipodi.sourceforge.net/DTD/sodipodi-0.dtd"
   xmlns:inkscape="http://www.inkscape.org/namespaces/inkscape"
   version="1.1"
   id="Слой_1"
   x="0px"
   y="0px"
   width="16"
   height="16"
   viewBox="406.001 283.28 16 16"
   enable-background="new 406.001 283.28 29 29"
   xml:space="preserve"
   inkscape:version="0.48.4 r9939"
   sodipodi:docname="h_vineyard2.svg"><metadata
     id="metadata17"><rdf:RDF><cc:Work
         rdf:about=""><dc:format>image/svg+xml</dc:format><dc:type
           rdf:resource="http://purl.org/dc/dcmitype/StillImage" /><dc:title /></cc:Work></rdf:RDF></metadata><defs
     id="defs15" /><sodipodi:namedview
     pagecolor="#ffffff"
     bordercolor="#666666"
     borderopacity="1"
     objecttolerance="10"
     gridtolerance="10"
     guidetolerance="10"
     inkscape:pageopacity="0"
     inkscape:pageshadow="2"
     inkscape:window-width="1920"
     inkscape:window-height="1004"
     id="namedview13"
     showgrid="false"
     inkscape:zoom="8.137931"
     inkscape:cx="21.085908"
     inkscape:cy="10.884427"
     inkscape:window-x="1680"
     inkscape:window-y="0"
     inkscape:window-maximized="1"
     inkscape:current-layer="Слой_1" /><rect
     x="406.00101"
     y="283.26401"
     width="16.015999"
     height="16.015999"
     id="rect3"
     style="fill:#b3e2a8" /><path
     sodipodi:type="arc"
     style="color:#000000;fill:#88be7c;fill-opacity:1;fill-rule:nonzero;stroke:none;stroke-width:1;marker:none;visibility:visible;display:inline;overflow:visible;enable-background:accumulate"
     id="path2994"
     sodipodi:cx="12.902542"
     sodipodi:cy="15.513771"
     sodipodi:rx="1.9984756"
     sodipodi:ry="2.4763718"
     d="m 14.898143,15.646539 a 1.9984756,2.4763718 0 1 1 2.19e-4,-0.0051"
     transform="matrix(0.58295421,0,0,0.51041299,403.53303,283.165)"
     sodipodi:start="0.053639769"
     sodipodi:end="6.3347467"
     sodipodi:open="true" /><path
     transform="matrix(0.58295421,0,0,0.51041299,408.92439,283.18349)"
     sodipodi:type="arc"
     style="color:#000000;fill:#88be7c;fill-opacity:1;fill-rule:nonzero;stroke:none;stroke-width:1;marker:none;visibility:visible;display:inline;overflow:visible;enable-background:accumulate"
     id="path2994-9"
     sodipodi:cx="12.902542"
     sodipodi:cy="15.513771"
     sodipodi:rx="1.9984756"
     sodipodi:ry="2.4763718"
     d="m 14.898143,15.646539 a 1.9984756,2.4763718 0 1 1 2.19e-4,-0.0051"
     sodipodi:start="0.053639769"
     sodipodi:end="6.3347467"
     sodipodi:open="true" /><path
     transform="matrix(0.58295421,0,0,0.51041299,406.25961,282.58762)"
     sodipodi:type="arc"
     style="color:#000000;fill:#88be7c;fill-opacity:1;fill-rule:nonzero;stroke:none;stroke-width:1;marker:none;visibility:visible;display:inline;overflow:visible;enable-background:accumulate"
     id="path2994-2"
     sodipodi:cx="12.902542"
     sodipodi:cy="15.513771"
     sodipodi:rx="1.9984756"
     sodipodi:ry="2.4763718"
     d="m 14.898143,15.646539 a 1.9984756,2.4763718 0 1 1 2.19e-4,-0.0051"
     sodipodi:start="0.053639769"
     sodipodi:end="6.3347467"
     sodipodi:open="true" /><path
     transform="matrix(0.45622821,0,0,0.39945642,407.86937,287.06725)"
     sodipodi:type="arc"
     style="color:#000000;fill:#88be7c;fill-opacity:1;fill-rule:nonzero;stroke:none;stroke-width:1.27776897;marker:none;visibility:visible;display:inline;overflow:visible;enable-background:accumulate"
     id="path2994-4"
     sodipodi:cx="12.902542"
     sodipodi:cy="15.513771"
     sodipodi:rx="1.9984756"
     sodipodi:ry="2.4763718"
     d="m 14.898143,15.646539 a 1.9984756,2.4763718 0 1 1 2.19e-4,-0.0051"
     sodipodi:start="0.053639769"
     sodipodi:end="6.3347467"
     sodipodi:open="true" /><path
     transform="matrix(0.45622821,0,0,0.39945642,405.85591,287.39095)"
     sodipodi:type="arc"
     style="color:#000000;fill:#88be7c;fill-opacity:1;fill-rule:nonzero;stroke:none;stroke-width:1.27776897;marker:none;visibility:visible;display:inline;overflow:visible;enable-background:accumulate"
     id="path2994-4-8"
     sodipodi:cx="12.902542"
     sodipodi:cy="15.513771"
     sodipodi:rx="1.9984756"
     sodipodi:ry="2.4763718"
     d="m 14.898143,15.646539 a 1.9984756,2.4763718 0 1 1 2.19e-4,-0.0051"
     sodipodi:start="0.053639769"
     sodipodi:end="6.3347467"
     sodipodi:open="true" /><path
     transform="matrix(0.45622821,0,0,0.39945642,409.96637,287.47966)"
     sodipodi:type="arc"
     style="color:#000000;fill:#88be7c;fill-opacity:1;fill-rule:nonzero;stroke:none;stroke-width:1.27776897;marker:none;visibility:visible;display:inline;overflow:visible;enable-background:accumulate"
     id="path2994-4-8-5"
     sodipodi:cx="12.902542"
     sodipodi:cy="15.513771"
     sodipodi:rx="1.9984756"
     sodipodi:ry="2.4763718"
     d="m 14.898143,15.646539 a 1.9984756,2.4763718 0 1 1 2.19e-4,-0.0051"
     sodipodi:start="0.053639769"
     sodipodi:end="6.3347467"
     sodipodi:open="true" /><path
     transform="matrix(0.36529669,0,0,0.31984017,408.01245,290.7573)"
     sodipodi:type="arc"
     style="color:#000000;fill:#88be7c;fill-opacity:1;fill-rule:nonzero;stroke:none;stroke-width:1.59583759;marker:none;visibility:visible;display:inline;overflow:visible;enable-background:accumulate"
     id="path2994-4-8-2"
     sodipodi:cx="12.902542"
     sodipodi:cy="15.513771"
     sodipodi:rx="1.9984756"
     sodipodi:ry="2.4763718"
     d="m 14.898143,15.646539 a 1.9984756,2.4763718 0 1 1 2.19e-4,-0.0051"
     sodipodi:start="0.053639769"
     sodipodi:end="6.3347467"
     sodipodi:open="true" /><path
     transform="matrix(0.36529669,0,0,0.31984017,409.89104,290.7549)"
     sodipodi:type="arc"
     style="color:#000000;fill:#88be7c;fill-opacity:1;fill-rule:nonzero;stroke:none;stroke-width:1.59583759;marker:none;visibility:visible;display:inline;overflow:visible;enable-background:accumulate"
     id="path2994-4-8-2-6"
     sodipodi:cx="12.902542"
     sodipodi:cy="15.513771"
     sodipodi:rx="1.9984756"
     sodipodi:ry="2.4763718"
     d="m 14.898143,15.646539 a 1.9984756,2.4763718 0 1 1 2.19e-4,-0.0051"
     sodipodi:start="0.053639769"
     sodipodi:end="6.3347467"
     sodipodi:open="true" /><path
     transform="matrix(0.36068164,0,0,0.3157994,409.00685,292.54639)"
     sodipodi:type="arc"
     style="color:#000000;fill:#88be7c;fill-opacity:1;fill-rule:nonzero;stroke:none;stroke-width:1.97212231;marker:none;visibility:visible;display:inline;overflow:visible;enable-background:accumulate"
     id="path2994-4-8-2-3"
     sodipodi:cx="12.902542"
     sodipodi:cy="15.513771"
     sodipodi:rx="1.9984756"
     sodipodi:ry="2.4763718"
     d="m 14.898143,15.646539 a 1.9984756,2.4763718 0 1 1 2.19e-4,-0.0051"
     sodipodi:start="0.053639769"
     sodipodi:end="6.3347467"
     sodipodi:open="true" /><path
     style="fill:none;stroke:#88be7c;stroke-width:0.69314694;stroke-linecap:round;stroke-linejoin:miter;stroke-miterlimit:4;stroke-opacity:1;stroke-dasharray:none"
     d="m 412.42843,285.14705 c 0,0 3.1777,1.08317 1.66936,3.48164"
     id="path3128"
     inkscape:connector-curvature="0"
     sodipodi:nodetypes="cc" /><path
     style="color:#000000;fill:#88be7c;fill-opacity:1;fill-rule:nonzero;stroke:none;stroke-width:1;marker:none;visibility:visible;display:inline;overflow:visible;enable-background:accumulate"
     d="m 414.97722,286.69818 c 0.51366,-1.26411 -0.6686,-1.65368 1.16249,-2.48878 0,0 0.57503,0.28848 0.68569,0.44296 0.22133,0.30901 -0.0581,1.07649 -0.0581,1.07649 0,0 0.0216,-0.38484 0.78399,-0.69632 0.35729,-0.146 1.59567,0.18413 1.59567,0.18413 0,0 -0.0547,0.84597 -0.58462,1.5165 -0.1093,0.13839 -1.00377,0.17984 -1.00377,0.17984 1.25651,0.24303 0.91142,0.83739 1.15726,1.19419 -2.27625,1.15906 -2.83733,-1.18268 -4.16206,-0.74665 l -0.13856,-0.46676 z"
     id="path3969"
     inkscape:connector-curvature="0"
     sodipodi:nodetypes="ccccscsccccc" /></svg>