<?xml version="1.0" encoding="UTF-8" standalone="no"?>
<!-- Generator: Adobe Illustrator 16.0.4, SVG Export Plug-In . SVG Version: 6.00 Build 0)  -->

<svg
   xmlns:dc="http://purl.org/dc/elements/1.1/"
   xmlns:cc="http://creativecommons.org/ns#"
   xmlns:rdf="http://www.w3.org/1999/02/22-rdf-syntax-ns#"
   xmlns:svg="http://www.w3.org/2000/svg"
   xmlns="http://www.w3.org/2000/svg"
   xmlns:sodipodi="http://sodipodi.sourceforge.net/DTD/sodipodi-0.dtd"
   xmlns:inkscape="http://www.inkscape.org/namespaces/inkscape"
   version="1.1"
   id="Слой_1"
   x="0px"
   y="0px"
   width="32"
   height="32"
   viewBox="405.161 282.944 32 32.000001"
   enable-background="new 405.161 282.944 30.229 30.276"
   xml:space="preserve"
   inkscape:version="0.48.4 r9939"
   sodipodi:docname="h_wood_windfall.svg"><metadata
     id="metadata13"><rdf:RDF><cc:Work
         rdf:about=""><dc:format>image/svg+xml</dc:format><dc:type
           rdf:resource="http://purl.org/dc/dcmitype/StillImage" /><dc:title></dc:title></cc:Work></rdf:RDF></metadata><defs
     id="defs11" /><sodipodi:namedview
     pagecolor="#ffffff"
     bordercolor="#666666"
     borderopacity="1"
     objecttolerance="10"
     gridtolerance="10"
     guidetolerance="10"
     inkscape:pageopacity="0"
     inkscape:pageshadow="2"
     inkscape:window-width="1920"
     inkscape:window-height="1004"
     id="namedview9"
     showgrid="false"
     inkscape:zoom="4"
     inkscape:cx="1.8604383"
     inkscape:cy="22.316184"
     inkscape:window-x="1680"
     inkscape:window-y="0"
     inkscape:window-maximized="1"
     inkscape:current-layer="Слой_1" /><path
     style="color:#000000;fill:#c9d2be;fill-opacity:1;fill-rule:nonzero;stroke:none;marker:none;visibility:visible;display:inline;overflow:visible;enable-background:accumulate"
     d="m 410.77135,302.99377 c 0.79086,0.27821 1.34409,0.0668 1.34409,0.0668 2.28077,0.16622 4.8613,0.15258 6.84199,0.49884 -1.70363,0.42003 -7.60013,0.72385 -7.98989,0.59527 -1.23327,-0.40684 -1.7406,0.22722 -1.7406,0.22722 0,0 -0.49669,-0.64587 -1.27568,-0.84879 -0.77899,-0.20292 -0.99859,-0.0488 -0.758,-0.89876 z"
     id="path3766"
     inkscape:connector-curvature="0"
     sodipodi:nodetypes="cccsczcc" /><path
     style="fill:#92ac73;fill-opacity:1;stroke:none"
     d="m 407.02557,301.48923 c -0.63715,0.27898 -1.10999,0.21758 -1.90061,0.0885 0.11275,0.0471 0.0844,0.23643 0.18342,0.2778 1.42182,0.59411 1.59702,0.50021 1.55618,0.9271 -0.027,0.2822 0.21552,0.66878 0.21552,0.66878 1.03421,-0.22479 1.56069,-0.0349 1.92901,0.8272 0.0493,0.11528 0.17123,0.0849 0.25784,0.14887 -0.0446,-0.50944 0.004,-0.94378 -0.30035,-1.66319 1.09809,-1.38259 8.84384,-7.29577 9.69923,-8.96944 -3.67479,1.39722 -8.8193,6.60767 -11.64024,7.69438 z"
     id="path3792"
     inkscape:connector-curvature="0"
     sodipodi:nodetypes="cccccccccc" /><path
     style="color:#000000;fill:#c9d2be;fill-opacity:1;fill-rule:nonzero;stroke:none;marker:none;visibility:visible;display:inline;overflow:visible;enable-background:accumulate"
     d="m 420.9205,291.15014 c 0.79086,0.27821 1.34409,0.0668 1.34409,0.0668 2.28077,0.16622 5.94406,0.46194 7.92475,0.8082 -1.70363,0.42003 -8.68289,0.41449 -9.07265,0.28591 -1.23327,-0.40684 -2.31512,0.33771 -2.31512,0.33771 0,0 -0.36668,-1.05389 -1.14567,-1.25681 -0.77899,-0.20292 -0.80408,-0.0247 -0.29396,-0.5231 z"
     id="path3766-4"
     inkscape:connector-curvature="0"
     sodipodi:nodetypes="cccsczcc" /><path
     style="fill:#92ac73;fill-opacity:1;stroke:none"
     d="m 417.44251,289.32763 c -0.68661,0.11119 -1.12917,-0.0663 -1.86258,-0.38851 0.0974,0.0737 0.0227,0.25001 0.1083,0.31478 1.22863,0.93007 1.42171,0.88285 1.27565,1.28605 -0.0965,0.26654 0.0419,0.7014 0.0419,0.7014 1.05758,0.0404 1.52003,0.3556 1.66161,1.28234 0.019,0.12393 0.14463,0.12493 0.21254,0.20849 0.0839,-0.50446 0.23935,-0.91293 0.12412,-1.68553 1.40832,-1.06489 10.38446,-4.85847 11.63038,-6.26579 -3.90718,0.43616 -10.18901,4.19826 -13.19187,4.54677 z"
     id="path3792-8"
     inkscape:connector-curvature="0"
     sodipodi:nodetypes="cccccccccc" /><path
     style="color:#000000;fill:#c9d2be;fill-opacity:1;fill-rule:nonzero;stroke:none;marker:none;visibility:visible;display:inline;overflow:visible;enable-background:accumulate"
     d="m 426.90351,308.38895 c 0.79086,0.27821 1.34409,0.0668 1.34409,0.0668 2.28077,0.16622 5.87777,0.66081 7.85846,1.00707 -1.70363,0.42003 -8.6166,0.21562 -9.00636,0.087 -1.23327,-0.40684 -2.31512,0.33771 -2.31512,0.33771 0,0 -0.36668,-1.05389 -1.14567,-1.25681 -0.77899,-0.20292 -0.80408,-0.0247 -0.29396,-0.5231 z"
     id="path3766-4-0"
     inkscape:connector-curvature="0"
     sodipodi:nodetypes="cccsczcc" /><path
     style="fill:#92ac73;fill-opacity:1;stroke:none"
     d="m 423.42552,306.56644 c -0.68661,0.11119 -1.23795,-1.00307 -1.97136,-1.32528 0.0974,0.0737 0.88148,1.46803 0.96708,1.5328 0.2755,0.74257 0.39046,0.64848 0.52565,1.0048 -0.0965,0.26654 0.0419,0.7014 0.0419,0.7014 1.05758,0.0404 1.52003,0.3556 1.66161,1.28234 0.019,0.12393 0.14463,0.12493 0.21254,0.20849 0.0839,-0.50446 0.23935,-0.91293 0.12412,-1.68553 1.40832,-1.06489 8.72718,-4.52701 11.43151,-5.77965 -4.70268,0.52454 -9.99014,3.71212 -12.993,4.06063 z"
     id="path3792-8-0"
     inkscape:connector-curvature="0"
     sodipodi:nodetypes="ccccccccccc" /></svg>