<?xml version="1.0" encoding="UTF-8" standalone="no"?>
<svg
   xmlns:dc="http://purl.org/dc/elements/1.1/"
   xmlns:cc="http://creativecommons.org/ns#"
   xmlns:rdf="http://www.w3.org/1999/02/22-rdf-syntax-ns#"
   xmlns:svg="http://www.w3.org/2000/svg"
   xmlns="http://www.w3.org/2000/svg"
   xmlns:sodipodi="http://sodipodi.sourceforge.net/DTD/sodipodi-0.dtd"
   xmlns:inkscape="http://www.inkscape.org/namespaces/inkscape"
   width="48"
   height="48"
   id="svg2"
   version="1.1"
   inkscape:version="0.91 r13725"
   sodipodi:docname="h_wood_broadleaved3.svg">
  <defs
     id="defs13" />
  <sodipodi:namedview
     pagecolor="#ffffff"
     bordercolor="#666666"
     borderopacity="1"
     objecttolerance="10"
     gridtolerance="10"
     guidetolerance="10"
     inkscape:pageopacity="0"
     inkscape:pageshadow="2"
     inkscape:window-width="1920"
     inkscape:window-height="1006"
     id="namedview11"
     showgrid="false"
     inkscape:zoom="13.02069"
     inkscape:cx="33.483089"
     inkscape:cy="29.834197"
     inkscape:window-x="1920"
     inkscape:window-y="0"
     inkscape:window-maximized="1"
     inkscape:current-layer="g5"
     fit-margin-top="0"
     fit-margin-left="0"
     fit-margin-right="0"
     fit-margin-bottom="0"
     inkscape:snap-center="false"
     inkscape:snap-page="true" />
  <metadata
     id="metadata2975">image/svg+xmlen<rdf:RDF>
  <cc:Work
     rdf:about="">
    <dc:format>image/svg+xml</dc:format>
    <dc:type
       rdf:resource="http://purl.org/dc/dcmitype/StillImage" />
    <dc:title></dc:title>
  </cc:Work>
</rdf:RDF>
</metadata>
  <g
     id="g5"
     style="fill:#2f2f2f;fill-opacity:1;stroke:#fefefe;stroke-width:65.80000305;stroke-linecap:butt;stroke-linejoin:round;stroke-miterlimit:4;stroke-dasharray:none;stroke-opacity:0.68181817"
     transform="translate(-140.90542,-428.58175)">
    <title
       id="title7">Layer 1</title>
    <rect
       style="color:#000000;display:inline;overflow:visible;visibility:visible;fill:#77cc66;fill-opacity:1;fill-rule:nonzero;stroke:none;stroke-width:18.33399963;marker:none;enable-background:accumulate"
       id="rect3782"
       width="48.137966"
       height="48.137966"
       x="140.90543"
       y="428.55237" />
    <g
       id="g1327"
       style="fill:#2f2f2f;fill-opacity:1;stroke:#fefefe;stroke-width:65.80000305;stroke-linecap:butt;stroke-linejoin:round;stroke-miterlimit:4;stroke-dasharray:none;stroke-opacity:0.68181817" />
    <path
       style="color:#000000;clip-rule:nonzero;display:inline;overflow:visible;visibility:visible;opacity:1;isolation:auto;mix-blend-mode:normal;color-interpolation:sRGB;color-interpolation-filters:linearRGB;solid-color:#000000;solid-opacity:1;fill:none;fill-opacity:1;fill-rule:nonzero;stroke:#4eb03a;stroke-width:1;stroke-linecap:butt;stroke-linejoin:miter;stroke-miterlimit:4;stroke-dasharray:none;stroke-dashoffset:0;stroke-opacity:1;marker:none;color-rendering:auto;image-rendering:auto;shape-rendering:auto;text-rendering:auto;enable-background:accumulate"
       d="m 177.3876,436.00029 0,11 2.38718,0"
       id="path4138-5"
       inkscape:connector-curvature="0"
       sodipodi:nodetypes="ccc" />
    <path
       inkscape:connector-curvature="0"
       style="color:#000000;clip-rule:nonzero;display:inline;overflow:visible;visibility:visible;opacity:1;isolation:auto;mix-blend-mode:normal;color-interpolation:sRGB;color-interpolation-filters:linearRGB;solid-color:#000000;solid-opacity:1;fill:none;fill-opacity:1;fill-rule:nonzero;stroke:#4eb03a;stroke-width:1;stroke-linecap:butt;stroke-linejoin:round;stroke-miterlimit:4;stroke-dasharray:none;stroke-dashoffset:0;stroke-opacity:1;marker:none;color-rendering:auto;image-rendering:auto;shape-rendering:auto;text-rendering:auto;enable-background:accumulate"
       d="m 176.94938,435.98362 c -0.65736,-3.8e-4 -1.19081,0.62563 -1.1914,1.39844 4e-4,0.28575 0.0757,0.56452 0.21484,0.79883 -0.0463,-0.006 -0.092,-0.009 -0.13867,-0.01 -0.73076,-3.8e-4 -1.32363,0.69559 -1.32422,1.55469 -6e-5,0.40472 0.13327,0.79355 0.37305,1.08398 -0.86835,8.1e-4 -1.5725,0.82875 -1.57227,1.84961 -2.3e-4,1.02162 0.70522,1.84988 1.57422,1.84961 0.72182,-9.9e-4 2.43908,-0.0115 2.48242,-0.0117 0,0 0.0307,0 0.0312,0 0.0433,2.6e-4 1.7606,0.0107 2.48242,0.0117 0.869,2.7e-4 1.57445,-0.82799 1.57422,-1.84961 2.3e-4,-1.02083 -0.70391,-1.84877 -1.57226,-1.84958 0.23978,-0.29043 0.3731,-0.67925 0.37304,-1.08398 -5.9e-4,-0.8591 -0.59346,-1.55507 -1.32422,-1.55469 -0.0466,10e-4 -0.0924,0.004 -0.13867,0.01 0.13911,-0.23431 0.21445,-0.51308 0.21485,-0.79883 -5.9e-4,-0.77281 -0.53405,-1.39882 -1.19141,-1.39844 -0.6339,6.8e-4 -0.4463,0.0146 -0.43359,0.0156 0.0127,-0.001 0.2003,-0.0149 -0.4336,-0.0156 z"
       id="path4146" />
    <path
       style="fill:#4eb03a;fill-opacity:1;fill-rule:evenodd;stroke:none;stroke-width:1px;stroke-linecap:butt;stroke-linejoin:miter;stroke-opacity:1"
       d="m 177.3876,436.00029 0.17219,8.49701 c 0,0 2.08186,0.0647 2.32319,0 0.24133,-0.0647 1.73205,-1 1.73205,-1 0,0 0.21566,-1.32858 0,-1.54423 -0.21566,-0.21566 -0.83326,-0.77583 -0.91171,-0.91172 -0.0785,-0.13589 -0.62103,-0.10515 -0.56223,-0.3246 0.0588,-0.21945 0,-1.21945 0,-1.21945 0,0 -0.44994,-0.77931 -0.57735,-1 -0.12742,-0.22069 -0.57735,-1 -0.57735,-1 0,0 -0.14212,-1.29475 -0.36277,-1.35387 -0.22065,-0.0591 -0.74064,-0.19845 -0.74064,-0.19845 l -0.5,0.0543"
       id="path4218"
       inkscape:connector-curvature="0" />
    <path
       style="color:#000000;clip-rule:nonzero;display:inline;overflow:visible;visibility:visible;opacity:1;isolation:auto;mix-blend-mode:normal;color-interpolation:sRGB;color-interpolation-filters:linearRGB;solid-color:#000000;solid-opacity:1;fill:none;fill-opacity:1;fill-rule:nonzero;stroke:#4eb03a;stroke-width:1;stroke-linecap:butt;stroke-linejoin:miter;stroke-miterlimit:4;stroke-dasharray:none;stroke-dashoffset:0;stroke-opacity:1;marker:none;color-rendering:auto;image-rendering:auto;shape-rendering:auto;text-rendering:auto;enable-background:accumulate"
       d="m 154.42414,458.81015 0,11 2.38718,0"
       id="path4138-5-6"
       inkscape:connector-curvature="0"
       sodipodi:nodetypes="ccc" />
    <path
       inkscape:connector-curvature="0"
       style="color:#000000;clip-rule:nonzero;display:inline;overflow:visible;visibility:visible;opacity:1;isolation:auto;mix-blend-mode:normal;color-interpolation:sRGB;color-interpolation-filters:linearRGB;solid-color:#000000;solid-opacity:1;fill:none;fill-opacity:1;fill-rule:nonzero;stroke:#4eb03a;stroke-width:1;stroke-linecap:butt;stroke-linejoin:round;stroke-miterlimit:4;stroke-dasharray:none;stroke-dashoffset:0;stroke-opacity:1;marker:none;color-rendering:auto;image-rendering:auto;shape-rendering:auto;text-rendering:auto;enable-background:accumulate"
       d="m 153.98592,458.79348 c -0.65736,-3.8e-4 -1.19081,0.62563 -1.1914,1.39844 4e-4,0.28575 0.0757,0.56452 0.21484,0.79883 -0.0463,-0.006 -0.092,-0.009 -0.13867,-0.01 -0.73076,-3.8e-4 -1.32363,0.69559 -1.32422,1.55469 -6e-5,0.40472 0.13327,0.79355 0.37305,1.08398 -0.86835,8.1e-4 -1.5725,0.82875 -1.57227,1.84961 -2.3e-4,1.02162 0.70522,1.84988 1.57422,1.84961 0.72182,-9.9e-4 2.43908,-0.0115 2.48242,-0.0117 0,0 0.0307,0 0.0312,0 0.0433,2.6e-4 1.7606,0.0107 2.48242,0.0117 0.869,2.7e-4 1.57445,-0.82799 1.57422,-1.84961 2.3e-4,-1.02083 -0.70391,-1.84877 -1.57226,-1.84958 0.23978,-0.29043 0.3731,-0.67925 0.37304,-1.08398 -5.9e-4,-0.8591 -0.59346,-1.55507 -1.32422,-1.55469 -0.0466,0.001 -0.0924,0.004 -0.13867,0.01 0.13911,-0.23431 0.21445,-0.51308 0.21485,-0.79883 -5.9e-4,-0.77281 -0.53405,-1.39882 -1.19141,-1.39844 -0.6339,6.8e-4 -0.4463,0.0146 -0.43359,0.0156 0.0127,-10e-4 0.2003,-0.0149 -0.4336,-0.0156 z"
       id="path4146-2" />
    <path
       style="fill:#4eb03a;fill-opacity:1;fill-rule:evenodd;stroke:none;stroke-width:1px;stroke-linecap:butt;stroke-linejoin:miter;stroke-miterlimit:4;stroke-dasharray:none;stroke-opacity:1"
       d="m 154.42414,458.81015 0.17219,8.49701 c 0,0 2.08186,0.0647 2.32319,0 0.24133,-0.0647 1.73205,-1 1.73205,-1 0,0 0.21566,-1.32858 0,-1.54423 -0.21566,-0.21566 -0.83326,-0.77583 -0.91171,-0.91172 -0.0785,-0.13589 -0.62103,-0.10515 -0.56223,-0.3246 0.0588,-0.21945 0,-1.21945 0,-1.21945 0,0 -0.44994,-0.77931 -0.57735,-1 -0.12742,-0.22069 -0.57735,-1 -0.57735,-1 0,0 -0.14212,-1.29475 -0.36277,-1.35387 -0.22065,-0.0591 -0.74064,-0.19845 -0.74064,-0.19845 l -0.5,0.0543"
       id="path4218-9"
       inkscape:connector-curvature="0" />
  </g>
</svg>
