<svg width="580" height="580" viewBox="0 0 580 580" fill="none" xmlns="http://www.w3.org/2000/svg">
<path opacity="0.754" d="M372.922 135.119C367.359 135.23 361.902 136.654 356.994 139.276L158.545 245.342C150.294 249.753 144.133 257.26 141.416 266.213C138.698 275.166 139.648 284.831 144.055 293.084L155.252 314.049C157.436 318.137 160.403 321.754 163.985 324.695C167.567 327.636 171.693 329.842 176.128 331.188C180.562 332.535 185.219 332.994 189.831 332.54C194.443 332.087 198.921 330.729 203.008 328.545L222.813 317.959V365.961C222.813 366.574 222.829 367.187 222.862 367.799C224.597 401.065 253.381 432.382 289.932 431.705L289.279 431.713H363.606L362.676 431.7C384.725 432.281 402.187 421.007 412.865 409.184C423.544 397.361 430.674 385.867 431.149 366.842C431.156 366.549 431.16 366.255 431.16 365.961V304.184C431.16 270.417 404.511 241.461 370.891 238.817L401.459 222.479C409.711 218.068 415.872 210.56 418.59 201.607C421.307 192.654 420.357 182.988 415.949 174.735L404.75 153.77C401.682 148.027 397.085 143.246 391.467 139.954C385.85 136.663 379.432 134.989 372.922 135.119V135.119Z" fill="#FEFEFE"/>
<path d="M373.627 171.277L175.178 277.344L186.375 298.309L319.52 227.146L319.451 274.723H301.727H288.07C271.391 274.723 258.098 288.382 258.098 305.066V366.844C258.976 383.677 271.512 397.64 289.279 397.311H363.605C382.39 397.806 395.599 377.919 395.875 366.844V305.066C395.875 288.382 382.582 274.723 365.902 274.723H350.312H334.447L334.525 219.127L384.826 192.242L373.627 171.277ZM286.635 289.471H367.451C373.795 289.471 379.295 294.49 379.295 300.836V342.906C379.295 349.252 373.795 354.271 367.451 354.271H286.635C280.291 354.271 274.91 349.252 274.91 342.906V300.836C274.91 294.49 280.291 289.471 286.635 289.471Z" fill="#0092DA" stroke="#0092DA" stroke-width="5"/>
</svg>
