<svg width="28" height="28" viewBox="0 0 28 28" fill="none" xmlns="http://www.w3.org/2000/svg">
<path opacity="0.75" d="M10 2C8.08181 2 6.29052 2.95866 5.2265 4.5547L4.8906 5.05855C4.30988 5.92962 4 6.9531 4 8V22.5C4 24.433 5.567 26 7.5 26C8.8962 26 10.1015 25.1825 10.6632 24H17.3368C17.8985 25.1825 19.1038 26 20.5 26C22.433 26 24 24.433 24 22.5V8C24 6.9531 23.6901 5.92962 23.1094 5.05855L22.7735 4.5547C21.7095 2.95866 19.9182 2 18 2H10Z" fill="white"/>
<path fill-rule="evenodd" clip-rule="evenodd" d="M10 4H18C19.2495 4 20.4163 4.62446 21.1094 5.6641L21.4453 6.16795C21.807 6.71049 22 7.34795 22 8V22.5C22 23.3284 21.3284 24 20.5 24C19.6716 24 19 23.3284 19 22.5V22H9V22.5C9 23.3284 8.32843 24 7.5 24C6.67157 24 6 23.3284 6 22.5V8C6 7.34795 6.19301 6.71049 6.5547 6.16795L6.8906 5.6641C7.58369 4.62446 8.75051 4 10 4ZM11 7C11 6.44772 11.4477 6 12 6H16C16.5523 6 17 6.44772 17 7C17 7.55228 16.5523 8 16 8H12C11.4477 8 11 7.55228 11 7ZM8 10H20V16H8V10ZM8 18H10V20H8V18ZM20 18H18V20H20V18Z" fill="#0092DA"/>
</svg>
