<svg width="12" height="12" viewBox="0 0 12 12" fill="none" xmlns="http://www.w3.org/2000/svg">
<path opacity="0.2" d="M3 3H8V9H3V3Z" fill="#7A7A7A"/>
<path fill-rule="evenodd" clip-rule="evenodd" d="M3 3C3 2.44772 3.44772 2 4 2H8C8.55228 2 9 2.44772 9 3V9C9 9.55228 8.55229 10 8 10H4C3.44772 10 3 9.55228 3 9V7.5C3 7.22386 3.22386 7 3.5 7C3.77614 7 4 7.22386 4 7.5V9H8V3H4V4.5C4 4.77614 3.77614 5 3.5 5C3.22386 5 3 4.77614 3 4.5V3Z" fill="#7A7A7A"/>
<path fill-rule="evenodd" clip-rule="evenodd" d="M5.14645 4.14645C5.34171 3.95118 5.65829 3.95118 5.85355 4.14645L7.35355 5.64645C7.54882 5.84171 7.54882 6.15829 7.35355 6.35355L5.85355 7.85355C5.65829 8.04882 5.34171 8.04882 5.14645 7.85355C4.95118 7.65829 4.95118 7.34171 5.14645 7.14645L5.79289 6.5H2.5C2.22386 6.5 2 6.27614 2 6C2 5.72386 2.22386 5.5 2.5 5.5H5.79289L5.14645 4.85355C4.95118 4.65829 4.95118 4.34171 5.14645 4.14645Z" fill="#7A7A7A"/>
</svg>
