<svg width="48" height="48" viewBox="0 0 48 48" fill="none" xmlns="http://www.w3.org/2000/svg">
<path opacity="0.75" fill-rule="evenodd" clip-rule="evenodd" d="M36.4721 18L30.4721 6H0V42H38.4721L48 22.9443V18H36.4721Z" fill="white"/>
<path fill-rule="evenodd" clip-rule="evenodd" d="M4 22V38H36L44 22H34L28 10H4V22ZM12 14H8V22H12V14ZM34 30C35.1046 30 36 29.1046 36 28C36 26.8954 35.1046 26 34 26C32.8954 26 32 26.8954 32 28C32 29.1046 32.8954 30 34 30ZM16 14H25L29 22H16V14Z" fill="#0092DA"/>
</svg>
