<?xml version="1.0" encoding="UTF-8" standalone="no"?>
<!-- Created with Inkscape (http://www.inkscape.org/) -->

<svg
   xmlns:dc="http://purl.org/dc/elements/1.1/"
   xmlns:cc="http://creativecommons.org/ns#"
   xmlns:rdf="http://www.w3.org/1999/02/22-rdf-syntax-ns#"
   xmlns:svg="http://www.w3.org/2000/svg"
   xmlns="http://www.w3.org/2000/svg"
   xmlns:sodipodi="http://sodipodi.sourceforge.net/DTD/sodipodi-0.dtd"
   xmlns:inkscape="http://www.inkscape.org/namespaces/inkscape"
   version="1.0"
   width="580"
   height="580"
   id="svg2"
   sodipodi:version="0.32"
   inkscape:version="0.48.4 r9939"
   sodipodi:docname="fountain2.svg"
   inkscape:output_extension="org.inkscape.output.svg.inkscape">
  <metadata
     id="metadata2975">
    <rdf:RDF>
      <cc:Work
         rdf:about="">
        <dc:format>image/svg+xml</dc:format>
        <dc:type
           rdf:resource="http://purl.org/dc/dcmitype/StillImage" />
        <cc:license
           rdf:resource="http://web.resource.org/cc/PublicDomain" />
        <dc:language>en</dc:language>
        <dc:title />
      </cc:Work>
    </rdf:RDF>
  </metadata>
  <sodipodi:namedview
     inkscape:window-height="1004"
     inkscape:window-width="1920"
     inkscape:pageshadow="2"
     inkscape:pageopacity="0.0"
     guidetolerance="10.0"
     gridtolerance="10.0"
     objecttolerance="10.0"
     borderopacity="1.0"
     bordercolor="#666666"
     pagecolor="#ffffff"
     id="base"
     inkscape:zoom="0.92167713"
     inkscape:cx="88.634882"
     inkscape:cy="329.86892"
     inkscape:window-x="1680"
     inkscape:window-y="0"
     inkscape:current-layer="svg2"
     showgrid="false"
     inkscape:window-maximized="1" />
  <defs
     id="defs4">
    <inkscape:perspective
       sodipodi:type="inkscape:persp3d"
       inkscape:vp_x="0 : 290 : 1"
       inkscape:vp_y="0 : 1000 : 0"
       inkscape:vp_z="580 : 290 : 1"
       inkscape:persp3d-origin="290 : 193.33333 : 1"
       id="perspective2441" />
    <inkscape:perspective
       id="perspective3452"
       inkscape:persp3d-origin="30 : 20 : 1"
       inkscape:vp_z="60 : 30 : 1"
       inkscape:vp_y="0 : 1000 : 0"
       inkscape:vp_x="0 : 30 : 1"
       sodipodi:type="inkscape:persp3d" />
    <symbol
       viewBox="244.5 110 489 219.9"
       id="symbol-university">
      <path
         id="path4460"
         d="M79,43l57,119c0,0,21-96,104-96s124,106,124,106l43-133l82-17L0,17L79,43z" />
      <path
         id="path4462"
         d="M94,176l-21,39"
         stroke-width="20"
         stroke="#000000"
         fill="none" />
      <path
         id="path4464"
         d="M300,19c0,10.5-22.6,19-50.5,19S199,29.5,199,19s22.6-19,50.5-19S300,8.5,300,19z" />
      <path
         id="path4466"
         d="M112,216l-16-38L64,88c0,0-9-8-4-35s16-24,16-24"
         stroke-width="20"
         stroke="#000000"
         ill="none" />
    </symbol>
    <inkscape:perspective
       id="perspective4471"
       inkscape:persp3d-origin="372.04724 : 350.78739 : 1"
       inkscape:vp_z="744.09448 : 526.18109 : 1"
       inkscape:vp_y="0 : 1000 : 0"
       inkscape:vp_x="0 : 526.18109 : 1"
       sodipodi:type="inkscape:persp3d" />
    <inkscape:perspective
       id="perspective4668"
       inkscape:persp3d-origin="6 : 4 : 1"
       inkscape:vp_z="12 : 6 : 1"
       inkscape:vp_y="0 : 1000 : 0"
       inkscape:vp_x="0 : 6 : 1"
       sodipodi:type="inkscape:persp3d" />
    <inkscape:perspective
       id="perspective4725"
       inkscape:persp3d-origin="0.5 : 0.33333333 : 1"
       inkscape:vp_z="1 : 0.5 : 1"
       inkscape:vp_y="0 : 1000 : 0"
       inkscape:vp_x="0 : 0.5 : 1"
       sodipodi:type="inkscape:persp3d" />
    <inkscape:perspective
       id="perspective6330"
       inkscape:persp3d-origin="0.5 : 0.33333333 : 1"
       inkscape:vp_z="1 : 0.5 : 1"
       inkscape:vp_y="0 : 1000 : 0"
       inkscape:vp_x="0 : 0.5 : 1"
       sodipodi:type="inkscape:persp3d" />
    <inkscape:perspective
       id="perspective6376"
       inkscape:persp3d-origin="0.5 : 0.33333333 : 1"
       inkscape:vp_z="1 : 0.5 : 1"
       inkscape:vp_y="0 : 1000 : 0"
       inkscape:vp_x="0 : 0.5 : 1"
       sodipodi:type="inkscape:persp3d" />
    <inkscape:perspective
       id="perspective6376-2"
       inkscape:persp3d-origin="0.5 : 0.33333333 : 1"
       inkscape:vp_z="1 : 0.5 : 1"
       inkscape:vp_y="0 : 1000 : 0"
       inkscape:vp_x="0 : 0.5 : 1"
       sodipodi:type="inkscape:persp3d" />
    <inkscape:perspective
       id="perspective6407"
       inkscape:persp3d-origin="0.5 : 0.33333333 : 1"
       inkscape:vp_z="1 : 0.5 : 1"
       inkscape:vp_y="0 : 1000 : 0"
       inkscape:vp_x="0 : 0.5 : 1"
       sodipodi:type="inkscape:persp3d" />
    <inkscape:perspective
       id="perspective6629"
       inkscape:persp3d-origin="0.5 : 0.33333333 : 1"
       inkscape:vp_z="1 : 0.5 : 1"
       inkscape:vp_y="0 : 1000 : 0"
       inkscape:vp_x="0 : 0.5 : 1"
       sodipodi:type="inkscape:persp3d" />
    <inkscape:perspective
       id="perspective6660"
       inkscape:persp3d-origin="0.5 : 0.33333333 : 1"
       inkscape:vp_z="1 : 0.5 : 1"
       inkscape:vp_y="0 : 1000 : 0"
       inkscape:vp_x="0 : 0.5 : 1"
       sodipodi:type="inkscape:persp3d" />
    <inkscape:perspective
       id="perspective8099"
       inkscape:persp3d-origin="0.5 : 0.33333333 : 1"
       inkscape:vp_z="1 : 0.5 : 1"
       inkscape:vp_y="0 : 1000 : 0"
       inkscape:vp_x="0 : 0.5 : 1"
       sodipodi:type="inkscape:persp3d" />
  </defs>
  <path
     style="fill:#fefefe;fill-opacity:0.78512394;stroke:none"
     d="M 248.625,4.8125 C 224.27689,6.9370514 206.82013,29.300029 201.59375,51.75 190.21237,91.18434 181.24783,131.91899 181.25,173 c -24.89374,-1.10587 -50.08703,8.6962 -66.90328,27.04207 -28.310029,28.35442 -43.772568,66.5437 -57.90922,103.55168 -18.905773,53.60107 -30.797871,109.68852 -37.21875,166.125 0.04061,14.645 9.97518,27.14197 10,41.71875 15.117012,-3.74579 26.918721,-16.72138 33.46875,-29.375 1.045916,3.25163 2.912475,6.24343 5.34375,8.59375 -12.276228,0.0811 -18.944846,13.29947 -19.4375,24.125 -0.863855,10.72082 -1.211209,23.10212 7.28125,31.0625 5.773542,6.64166 14.880409,8.47101 23.249971,7.17428 151.707489,-0.6711 303.416779,-0.1111 455.125029,-0.29928 0.12474,-19.57939 -0.26407,-39.50704 0.1875,-58.875 14.15518,4.31815 31.70871,-7.25223 30.03125,-22.84375 -0.3229,-14.8501 -4.93515,-29.28556 -6.36574,-44.07389 C 545.6429,354.22334 526.04927,280.77455 484.96897,218.6492 467.92085,194.3044 441.39357,173.58991 410.5,173.15625 c -2.97732,-0.7331 -9.41516,2.34585 -8.11094,-2.99692 C 399.77107,128.91766 394.22091,87.25799 379.96875,48.3125 374.18658,34.823278 368.86759,19.276739 355.25,11.71875 344.83475,5.0918495 331.12715,3.0085698 319.59375,7.40625 310.58038,3.2119711 299.81472,5.2961534 291.40625,10.03125 283.16281,4.658524 272.21313,4.0682142 263.21875,7.375 258.67558,5.3817004 253.60884,4.592261 248.625,4.8125 z m -61.53125,326.78125 c -5.58626,44.55917 -9.11555,89.54501 -7,134.46875 -8.87011,2.50547 -17.58475,6.07629 -26.28125,8.90625 10.87634,-48.00442 19.83601,-96.60883 33.375,-144.09375 l -0.0937,0.71875 z m 209.4375,1.1875 c 12.74692,44.38831 20.71592,89.92921 31.625,134.6875 0.46793,3.2939 5.02138,10.46968 -1.625,6.3125 -7.53192,-2.5607 -15.16631,-5.04959 -22.625,-7.625 1.30782,-18.77872 -0.60678,-37.61 -0.65625,-56.40625 -1.1743,-26.14373 -3.70575,-52.28379 -7.0625,-78.1875 l 0.27146,0.96245 0.0723,0.2563 z M 341.5625,372.1875 c 2.84763,26.53588 5.81648,53.04602 11.34375,79.1875 -8.34828,-2.01402 -16.92278,-3.39739 -25.46875,-4.5625 2.88945,-26.32529 7.51137,-52.60294 13.71875,-78.34375 0.13542,1.23958 0.27083,2.47917 0.40625,3.71875 z m -98.78125,-0.5625 c 5.78934,24.66168 10.46853,49.72408 12.625,75 -8.26002,1.03782 -16.6707,3.05957 -24.65625,4.5 5.87312,-27.15454 8.43841,-54.78357 11.34375,-82.375 0.22917,0.95833 0.45833,1.91667 0.6875,2.875 z m -133.5,101.0625 c 0.89102,4.84216 3.18397,9.46929 6.875,12.78125 -4.461,0.80343 -8.99732,1.87484 -13.4375,2.46875 3.32551,-4.75023 5.14016,-10.34296 6.4375,-15.9375 l 0.125,0.6875 z m 365.75,0.78125 c 0.98818,4.83852 3.22958,10.9389 5.1875,14.5625 -4.57491,-0.77858 -9.21599,-1.62785 -13.6875,-2.625 4.10072,-3.30833 7.11539,-8.05604 8.21875,-13.25 l 0.20953,0.9778 0.0717,0.3347 z m 45.75,9.375 c 1.14245,2.27978 2.60794,4.37349 4.4375,6.15625 -2.18271,-0.18659 -9.27815,1.99909 -8.875,0.21875 1.78292,-2.03769 3.16782,-4.36528 4.1875,-6.875 l 0.25,0.5 z"
     id="path3900-6"
     inkscape:connector-curvature="0" />
  <path
     style="fill:#6c8daa;fill-opacity:1;stroke:none"
     d="M 250.375 28.84375 C 247.40287 28.796275 244.23696 29.795318 242 31.28125 C 234.84164 36.068167 229.9963 42.997147 226.375 53.46875 C 223.45796 61.903518 216.93607 84.022535 211.625 111.40625 C 206.31397 138.78998 206.2531 154.4474 204.46875 178.21875 C 207.23323 154.30546 212.29074 139.17013 218.5625 113 C 225.58796 87.525366 236.43176 67.134868 241.125 59.40625 C 244.4068 54.001895 246.48746 50.15694 248.125 50.125 C 250.83331 50.125 253.73899 58.414149 256.3125 68.21875 C 253.27442 80.872084 249.55872 99.125311 248.28125 110.59375 C 246.51877 126.41648 244.71706 170.96875 244.9375 170.96875 C 244.9375 170.96875 252.37348 121.72835 254.1875 110.78125 C 255.2594 104.31266 257.53773 94.0878 260.09375 84.34375 C 260.2701 85.162104 260.45858 86.030453 260.625 86.8125 C 267.95375 121.2536 274.62214 177.79602 279.9375 262.875 C 277.6809 249.1931 275.2975 238.02488 272.875 228.8125 C 271.02225 221.76874 269.75468 215.13433 267.59375 210.5 C 265.43283 205.86567 262.42762 202.10872 258.125 199.3125 C 255.97351 197.92859 253.74495 197.10383 250.75 197.28125 L 250.75 197.25 L 250.75 197.21875 C 247.75515 197.5736 245.35121 198.79089 243.40625 200.28125 C 240.70291 202.32806 238.7381 204.72169 237.0625 207.53125 C 233.34211 203.73538 229.20942 200.9795 224.4375 199.3125 C 219.04368 197.4318 212.83359 197.1834 207.59375 199.3125 L 207.59375 199.28125 L 207.59375 199.25 L 207.59375 199.21875 C 206.92293 199.49132 206.26539 199.77879 205.625 200.09375 C 203.86406 199.33721 202.0842 198.69769 200.25 198.21875 L 200.25 198.1875 C 194.5124 196.69746 188.50411 196.83851 182.65625 198.28125 C 182.55027 198.25725 182.4499 198.2108 182.34375 198.1875 C 168.55617 195.1358 153.89931 199.33699 141.3125 208.375 C 128.72569 217.39527 117.55802 231.5919 106.5625 250.09375 C 84.57149 287.10098 64.67781 351.82372 58.59375 381.1875 C 52.50968 410.55483 45.47564 444.64315 42.53125 469.96875 C 47.76519 445.71835 57.45093 409.27108 65.5 381.3125 C 73.54904 353.35038 98.02121 289.97707 119.0625 258.25 C 129.584 242.38891 140.77693 230.02325 150.21875 222.8125 C 144.58633 230.4083 139.2235 239.53287 133.9375 250.09375 C 115.4553 287.02291 102.64066 335.93126 95.4375 379.03125 C 88.23435 422.1277 84.75 471.90625 84.75 471.90625 C 84.75 471.90625 93.60091 423.53625 101.84375 380.65625 C 110.08658 337.77981 126.74568 291.75978 144.03125 257.21875 C 152.67404 239.94823 166.92685 228.46649 174.96875 221.625 C 177.89139 219.13733 180.63716 217.28429 183.25 216.03125 C 184.66034 216.54585 186.11341 217.13487 187.625 217.84375 C 182.00507 226.50763 176.85649 237.62712 171.8125 251.125 C 158.0775 287.87674 146.60135 340.55993 139.84375 384.78125 C 133.08614 429.00257 131.90625 465.28125 131.90625 465.28125 C 131.90625 465.28125 138.65584 430.78989 148.5 386.125 C 158.34416 341.44947 173.151 291.96491 186.125 257.25 C 190.9824 244.2516 196.73731 233.9207 201.78125 226.75 C 209.01146 232.46385 216.56517 240.30434 223.71875 250.625 C 223.61072 251.15463 223.51441 251.64932 223.40625 252.1875 C 216.09811 288.54891 208.63936 344.20334 203.40625 416 L 203.0625 464 L 213.09375 417 C 217.76037 352.97734 226.60245 302.08588 233.46875 266.90625 C 236.6903 273.13003 239.75046 279.98021 242.53125 287.53125 C 253.47273 317.23989 264.91764 356.1899 274.46875 404.34375 C 277.22963 424.14176 279.81023 445.50548 282.15625 468.5 C 274.88595 468.72489 267.40799 469.24184 259.65625 470.15625 L 259.875 470.5625 C 188.72933 479.98097 138.32454 516.10085 73.0625 514 L 73.0625 528.71875 L 290.96875 528.71875 L 292.34375 528.71875 L 510.25 528.71875 L 510.25 514 C 444.98796 516.10085 394.58317 479.98097 323.4375 470.5625 L 323.65625 470.15625 C 315.90451 469.24184 308.42655 468.72489 301.15625 468.5 C 303.50227 445.50548 306.08287 424.14176 308.84375 404.34375 C 318.39486 356.1899 329.83977 317.23989 340.78125 287.53125 C 343.56204 279.98021 346.6222 273.13003 349.84375 266.90625 C 356.71005 302.08588 365.55213 352.97734 370.21875 417 L 380.25 464 L 379.90625 416 C 374.67314 344.20334 367.21439 288.54891 359.90625 252.1875 C 359.79809 251.64932 359.70178 251.15463 359.59375 250.625 C 366.74733 240.30434 374.30104 232.46385 381.53125 226.75 C 386.57519 233.9207 392.3301 244.2516 397.1875 257.25 C 410.1615 291.96491 424.96834 341.44947 434.8125 386.125 C 444.65666 430.78989 451.40625 465.28125 451.40625 465.28125 C 451.40625 465.28125 450.22636 429.00257 443.46875 384.78125 C 436.71115 340.55993 425.235 287.87674 411.5 251.125 C 406.45601 237.62712 401.30743 226.50763 395.6875 217.84375 C 397.19909 217.13487 398.65216 216.54585 400.0625 216.03125 C 402.67534 217.28429 405.42111 219.13733 408.34375 221.625 C 416.38565 228.46649 430.63846 239.94823 439.28125 257.21875 C 456.56682 291.75978 473.22592 337.77981 481.46875 380.65625 C 489.71159 423.53625 498.5625 471.90625 498.5625 471.90625 C 498.5625 471.90625 495.07815 422.1277 487.875 379.03125 C 480.67184 335.93126 467.8572 287.02291 449.375 250.09375 C 444.089 239.53287 438.72617 230.4083 433.09375 222.8125 C 442.53557 230.02325 453.7285 242.38891 464.25 258.25 C 485.29129 289.97707 509.76346 353.35038 517.8125 381.3125 C 525.86157 409.27108 535.54731 445.71835 540.78125 469.96875 C 537.83686 444.64315 530.80282 410.55483 524.71875 381.1875 C 518.63469 351.82372 498.74101 287.10098 476.75 250.09375 C 465.75448 231.5919 454.58681 217.39527 442 208.375 C 429.41319 199.33699 414.75633 195.1358 400.96875 198.1875 C 400.8626 198.21082 400.76223 198.2572 400.65625 198.28125 C 394.80839 196.83851 388.8001 196.69751 383.0625 198.1875 L 383.0625 198.21875 C 381.2283 198.69769 379.44844 199.33721 377.6875 200.09375 C 377.04711 199.77879 376.38957 199.49132 375.71875 199.21875 L 375.71875 199.25 L 375.71875 199.28125 L 375.71875 199.3125 C 370.47891 197.1834 364.26882 197.4318 358.875 199.3125 C 354.10308 200.9795 349.97039 203.73538 346.25 207.53125 C 344.5744 204.72169 342.60959 202.32806 339.90625 200.28125 C 337.96129 198.79089 335.55735 197.5736 332.5625 197.21875 L 332.5625 197.25 L 332.5625 197.28125 C 329.56755 197.10383 327.33899 197.92859 325.1875 199.3125 C 320.88488 202.10872 317.87967 205.86567 315.71875 210.5 C 313.55782 215.13433 312.29025 221.76874 310.4375 228.8125 C 308.015 238.02488 305.6316 249.1931 303.375 262.875 C 308.69036 177.79602 315.35875 121.2536 322.6875 86.8125 C 322.85392 86.030453 323.0424 85.162104 323.21875 84.34375 C 325.77477 94.0878 328.0531 104.31266 329.125 110.78125 C 330.93902 121.72835 338.375 170.96875 338.375 170.96875 C 338.59544 170.96875 336.79373 126.41648 335.03125 110.59375 C 333.75378 99.125309 330.03808 80.872084 327 68.21875 C 329.57351 58.414149 332.47919 50.125 335.1875 50.125 C 336.82504 50.156936 338.9057 54.001895 342.1875 59.40625 C 346.88074 67.134868 357.72454 87.525364 364.75 113 C 371.02176 139.17013 376.07927 154.30546 378.84375 178.21875 C 377.0594 154.4474 376.99853 138.78998 371.6875 111.40625 C 366.37643 84.022533 359.85454 61.903518 356.9375 53.46875 C 353.3162 42.997147 348.47086 36.068167 341.3125 31.28125 C 339.07554 29.795318 335.90963 28.796275 332.9375 28.84375 C 331.15422 28.872235 329.46969 29.282634 328.0625 30.1875 C 324.30981 32.600475 322.824 36.228068 320.90625 40.15625 C 320.42686 41.137408 319.93482 42.172644 319.46875 43.25 C 317.82391 38.75972 316.21993 35.023207 314.875 33.53125 C 312.25208 30.625034 311.70297 29.10085 307.21875 29.09375 C 303.14152 29.087297 294.96276 38.711611 291.65625 66.75 C 288.34974 38.71161 280.17098 29.087294 276.09375 29.09375 C 271.60953 29.10085 271.06042 30.625034 268.4375 33.53125 C 267.09257 35.023207 265.48859 38.75972 263.84375 43.25 C 263.37768 42.172644 262.88564 41.137408 262.40625 40.15625 C 260.4885 36.228068 259.00269 32.600475 255.25 30.1875 C 253.84281 29.282634 252.15828 28.87223 250.375 28.84375 z M 276.625 51.0625 C 279.33525 51.0554 282.64226 59.368358 285.3125 98.125 C 286.4877 115.18419 287.02526 154.40203 287.4375 210.59375 C 283.13046 148.18741 278.09529 103.51519 272.625 74.53125 C 271.48859 68.510096 270.2654 63.220401 269 58.53125 C 271.81126 53.611187 274.72917 51.0675 276.625 51.0625 z M 306.6875 51.0625 C 308.58333 51.067464 311.50124 53.611187 314.3125 58.53125 C 313.0471 63.220401 311.82391 68.510096 310.6875 74.53125 C 305.21721 103.51519 300.18204 148.18741 295.875 210.59375 C 296.28724 154.40203 296.8248 115.18419 298 98.125 C 300.67024 59.368358 303.97725 51.0554 306.6875 51.0625 z M 250.75 216.5625 C 251.13834 217.16575 251.38644 216.56469 251.8125 217.59375 C 253.33451 220.85837 257.30279 226.44558 260.1875 232.53125 C 266.00394 244.80194 270.30042 263.87724 273.40625 288.8125 C 275.33825 304.3226 277.36306 322.23833 279.34375 342.53125 C 275.98184 321.58016 272.40161 302.98515 268.65625 286.8125 C 262.74887 261.30593 256.75526 241.17039 249.71875 226.78125 C 249.0344 225.38179 248.35124 224.05296 247.65625 222.75 C 248.42583 221.21614 249.15514 219.78873 249.71875 218.59375 C 250.33106 217.31629 250.22291 217.34317 250.75 216.5625 z M 332.5625 216.5625 C 333.08959 217.34317 332.98144 217.31629 333.59375 218.59375 C 334.15736 219.78873 334.88667 221.21614 335.65625 222.75 C 334.96126 224.05296 334.2781 225.38179 333.59375 226.78125 C 326.55724 241.17039 320.56363 261.30593 314.65625 286.8125 C 310.91089 302.98515 307.33066 321.58016 303.96875 342.53125 C 305.94944 322.23833 307.97425 304.3226 309.90625 288.8125 C 313.01208 263.87724 317.30856 244.80194 323.125 232.53125 C 326.00971 226.44558 329.97799 220.85837 331.5 217.59375 C 331.92606 216.56469 332.17416 217.16575 332.5625 216.5625 z M 230.375 222.09375 C 230.50008 222.21439 230.6251 222.34466 230.75 222.46875 C 230.7366 222.51035 230.73215 222.55205 230.71875 222.59375 C 230.60193 222.42875 230.49144 222.25768 230.375 222.09375 z M 352.9375 222.09375 C 352.82106 222.25768 352.71057 222.42875 352.59375 222.59375 C 352.5803 222.55204 352.57596 222.51035 352.5625 222.46875 C 352.6874 222.34466 352.81242 222.21439 352.9375 222.09375 z M 240.65625 238.375 C 245.90152 249.50359 252.32376 264.51777 257.125 282.5625 C 251.721 265.45147 246.33557 250.9423 240.40625 239 C 240.48477 238.78803 240.57725 238.58448 240.65625 238.375 z M 342.65625 238.375 C 342.73522 238.58448 342.82773 238.78803 342.90625 239 C 336.97693 250.9423 331.5915 265.45147 326.1875 282.5625 C 330.98874 264.51777 337.41098 249.50359 342.65625 238.375 z "
     id="path3900" />
</svg>
