<?xml version="1.0" encoding="UTF-8" standalone="no"?>
<svg
   xmlns:dc="http://purl.org/dc/elements/1.1/"
   xmlns:cc="http://creativecommons.org/ns#"
   xmlns:rdf="http://www.w3.org/1999/02/22-rdf-syntax-ns#"
   xmlns:svg="http://www.w3.org/2000/svg"
   xmlns="http://www.w3.org/2000/svg"
   xmlns:sodipodi="http://sodipodi.sourceforge.net/DTD/sodipodi-0.dtd"
   xmlns:inkscape="http://www.inkscape.org/namespaces/inkscape"
   width="580"
   height="580"
   id="svg2"
   version="1.1"
   inkscape:version="0.91 r13725"
   sodipodi:docname="hazard_flood.svg">
  <defs
     id="defs13" />
  <sodipodi:namedview
     pagecolor="#ffffff"
     bordercolor="#666666"
     borderopacity="1"
     objecttolerance="10"
     gridtolerance="10"
     guidetolerance="10"
     inkscape:pageopacity="0"
     inkscape:pageshadow="2"
     inkscape:window-width="1920"
     inkscape:window-height="1006"
     id="namedview11"
     showgrid="false"
     inkscape:zoom="0.81379307"
     inkscape:cx="188.74899"
     inkscape:cy="288.97799"
     inkscape:window-x="1920"
     inkscape:window-y="0"
     inkscape:window-maximized="1"
     inkscape:current-layer="svg2"
     inkscape:snap-center="true"
     inkscape:snap-object-midpoints="true" />
  <metadata
     id="metadata2975">image/svg+xmlen<rdf:RDF>
  <cc:Work
     rdf:about="">
    <dc:format>image/svg+xml</dc:format>
    <dc:type
       rdf:resource="http://purl.org/dc/dcmitype/StillImage" />
    <dc:title />
  </cc:Work>
</rdf:RDF>
</metadata>
  <g
     id="g5"
     transform="matrix(1.7470777,0,0,1.7471252,-216.65253,-222.73058)"
     style="fill:#000000;fill-opacity:1;stroke:none">
    <title
       id="title7">Layer 1</title>
    <g
       id="g1327"
       style="fill:#000000;fill-opacity:1;stroke:none" />
    <path
       style="fill:#000000;fill-opacity:1;fill-rule:evenodd;stroke:none"
       d="M 288.21875,150.3811 A 32.25812,32.25812 0 0 0 262,166.47485 l -122.9375,212.875 a 32.25812,32.25812 0 0 0 27.90625,48.375 l 246,0.1875 a 32.25812,32.25812 0 0 0 27.96875,-48.375 L 317.875,166.47485 A 32.25812,32.25812 0 0 0 288.21875,150.3811 Z"
       id="path2990"
       inkscape:connector-curvature="0" />
  </g>
  <path
     style="color:#000000;display:inline;overflow:visible;visibility:visible;fill:#fff200;fill-opacity:1;fill-rule:nonzero;stroke:none;marker:none;enable-background:accumulate"
     d="M 74.866653,471.02372 C 70.661784,463.90823 75.540059,450.183 75.540059,450.183 L 275.74202,103.38966 c 0,0 8.67708,-17.018819 16.87775,-16.960807 8.20067,0.05801 17.57483,18.168297 17.57483,18.168297 l 197.82527,342.67643 c 0,0 7.43258,15.49307 3.20786,23.08346 -4.22471,7.59039 -16.38682,8.02322 -16.38682,8.02322 L 94.366758,477.96464 c 0,0 -15.295235,0.17457 -19.500105,-6.94092 z"
     id="path3788"
     inkscape:connector-curvature="0"
     sodipodi:nodetypes="zcczcczccz" />
  <path
     style="fill:none;stroke:#000000;stroke-width:15.54772663;stroke-linecap:round;stroke-linejoin:round;stroke-miterlimit:10"
     d="M 198.37211,317.68731 290,240.1718 l 91.62789,77.51551"
     id="polyline3"
     inkscape:connector-curvature="0"
     sodipodi:nodetypes="ccc" />
  <path
     inkscape:connector-curvature="0"
     d="m 289.99998,266.89662 -76.35659,62.24417 0,63.74419 c 0,8.39922 6.61665,8.11831 15.01588,8.11831 l 30.54261,0 c 0,-18.32559 0.25546,-68.83705 0.25546,-68.83705 l 61.08527,0 c 0,0 -0.25546,50.51146 -0.25546,68.83705 l 30.54265,0 c 8.39921,0 15.52676,0.28091 15.52676,-8.11831 l 0,-63.74419 z"
     id="path5"
     sodipodi:nodetypes="ccssccccsscc" />
  <path
     style="fill:#000000"
     d="m 191.87439,364.83605 c -12.65985,9.1557 -30.93707,11.76035 -42.19025,11.76035 -0.18228,0 -0.33498,-7e-5 -0.51451,0 l -12.86288,22.34467 c 3.98333,0.13666 8.07858,1.24954 13.37739,1.24954 23.91303,0 33.75038,-5.22059 42.19025,-11.76035 8.46982,6.12542 19.39125,9.28526 29.10687,10.73132 l 0,-23.52071 c -9.71562,-1.44605 -20.63705,-4.67942 -29.10687,-10.80482 z m 199.70544,0.36751 c -12.65983,9.15569 -30.93708,11.76035 -42.19025,11.76035 1.61799,9.82074 -2.6886,7.87782 0,23.5942 11.25317,0 29.53042,-2.60463 42.19025,-11.76035 12.65985,9.15572 31.01058,11.76035 42.26375,11.76035 4.70443,0 8.35378,-0.98695 11.90735,-2.05806 l -12.42186,-21.53614 c -11.28933,-0.0731 -29.26787,-2.73374 -41.74924,-11.76035 z"
     id="path3"
     inkscape:connector-curvature="0" />
  <path
     style="fill:#000000"
     d="m 163.09995,419.39047 c -12.80062,8.95717 -31.33526,11.57725 -42.71356,11.57725 -0.50779,0 -0.95203,9.1e-4 -1.43815,0 l -12.51207,21.71631 c 4.17313,0.054 8.38693,1.29436 13.95022,1.29436 24.17887,0 34.17981,-5.10737 42.71356,-11.50533 12.80057,8.95717 31.26336,11.50533 42.64164,11.50533 11.37828,0 29.84106,-2.54816 42.64164,-11.50533 12.80057,8.95717 31.33524,11.50533 42.71354,11.50533 11.3783,0 29.84109,-2.54816 42.64164,-11.50533 12.8006,8.95717 31.26333,11.50533 42.64164,11.50533 11.37825,0 29.91299,-2.54816 42.71354,-11.50533 12.80057,8.95717 31.26338,11.50533 42.64164,11.50533 5.37216,0 9.48548,-1.16843 13.51878,-2.37297 l -11.9368,-20.7096 c -0.5153,0.0235 -1.04227,0.0718 -1.58198,0.0718 -11.37826,0 -29.84107,-2.62009 -42.64164,-11.57724 -12.80055,8.95715 -31.33529,11.57724 -42.71354,11.57724 -11.37831,0 -29.84104,-2.62009 -42.64164,-11.57724 -12.80055,8.95715 -31.26334,11.57724 -42.64164,11.57724 -11.3783,0 -29.91297,-2.62009 -42.71354,-11.57724 -12.80058,8.95715 -31.26336,11.57724 -42.64164,11.57724 -11.37828,0 -29.84107,-2.62009 -42.64164,-11.57724 z"
     id="path3-8"
     inkscape:connector-curvature="0" />
  <path
     inkscape:connector-curvature="0"
     style="fill:#000000"
     d="m 289.80229,368.33715 c -13.08433,9.15569 -32.02981,11.83386 -43.6603,11.83386 -0.51905,0 -12.89544,-0.90226 -13.39236,-0.90319 l -30.85347,14.5204 c 12.12352,8.63572 38.55923,9.90348 44.24583,9.90348 24.7148,0 34.93741,-5.22058 43.6603,-11.76034 13.0843,9.15571 31.95632,11.76034 43.58679,11.76034 65.8693,-4.25084 56.5575,-23.90469 0,-23.52081 -11.63047,0 -30.50249,-2.67816 -43.58679,-11.83385 z"
     id="path3-8-6"
     sodipodi:nodetypes="csccsccccc" />
</svg>
