<?xml version="1.0" encoding="UTF-8" standalone="no"?>
<!-- Created with Inkscape (http://www.inkscape.org/) -->

<svg
   xmlns:dc="http://purl.org/dc/elements/1.1/"
   xmlns:cc="http://creativecommons.org/ns#"
   xmlns:rdf="http://www.w3.org/1999/02/22-rdf-syntax-ns#"
   xmlns:svg="http://www.w3.org/2000/svg"
   xmlns="http://www.w3.org/2000/svg"
   xmlns:sodipodi="http://sodipodi.sourceforge.net/DTD/sodipodi-0.dtd"
   xmlns:inkscape="http://www.inkscape.org/namespaces/inkscape"
   version="1.0"
   width="580"
   height="580"
   id="svg2"
   sodipodi:version="0.32"
   inkscape:version="0.91 r13725"
   sodipodi:docname="hazard_minefield.svg"
   inkscape:output_extension="org.inkscape.output.svg.inkscape">
  <metadata
     id="metadata2975">
    <rdf:RDF>
      <cc:Work
         rdf:about="">
        <dc:format>image/svg+xml</dc:format>
        <dc:type
           rdf:resource="http://purl.org/dc/dcmitype/StillImage" />
        <cc:license
           rdf:resource="http://web.resource.org/cc/PublicDomain" />
        <dc:language>en</dc:language>
        <dc:title />
      </cc:Work>
    </rdf:RDF>
  </metadata>
  <sodipodi:namedview
     inkscape:window-height="1006"
     inkscape:window-width="1920"
     inkscape:pageshadow="2"
     inkscape:pageopacity="0.0"
     guidetolerance="10.0"
     gridtolerance="10.0"
     objecttolerance="10.0"
     borderopacity="1.0"
     bordercolor="#666666"
     pagecolor="#ffffff"
     id="base"
     inkscape:zoom="0.92167712"
     inkscape:cx="276.66106"
     inkscape:cy="312.90415"
     inkscape:window-x="1920"
     inkscape:window-y="0"
     inkscape:current-layer="svg2"
     showgrid="false"
     inkscape:window-maximized="1" />
  <defs
     id="defs4">
    <inkscape:perspective
       sodipodi:type="inkscape:persp3d"
       inkscape:vp_x="0 : 290 : 1"
       inkscape:vp_y="0 : 1000 : 0"
       inkscape:vp_z="580 : 290 : 1"
       inkscape:persp3d-origin="290 : 193.33333 : 1"
       id="perspective2441" />
    <inkscape:perspective
       id="perspective3452"
       inkscape:persp3d-origin="30 : 20 : 1"
       inkscape:vp_z="60 : 30 : 1"
       inkscape:vp_y="0 : 1000 : 0"
       inkscape:vp_x="0 : 30 : 1"
       sodipodi:type="inkscape:persp3d" />
    <symbol
       viewBox="244.5 110 489 219.9"
       id="symbol-university">
      <path
         id="path4460"
         d="M79,43l57,119c0,0,21-96,104-96s124,106,124,106l43-133l82-17L0,17L79,43z" />
      <path
         id="path4462"
         d="M94,176l-21,39"
         stroke-width="20"
         stroke="#000000"
         fill="none" />
      <path
         id="path4464"
         d="M300,19c0,10.5-22.6,19-50.5,19S199,29.5,199,19s22.6-19,50.5-19S300,8.5,300,19z" />
      <path
         id="path4466"
         d="M112,216l-16-38L64,88c0,0-9-8-4-35s16-24,16-24"
         stroke-width="20"
         stroke="#000000"
         ill="none" />
    </symbol>
    <inkscape:perspective
       id="perspective4471"
       inkscape:persp3d-origin="372.04724 : 350.78739 : 1"
       inkscape:vp_z="744.09448 : 526.18109 : 1"
       inkscape:vp_y="0 : 1000 : 0"
       inkscape:vp_x="0 : 526.18109 : 1"
       sodipodi:type="inkscape:persp3d" />
    <inkscape:perspective
       id="perspective4668"
       inkscape:persp3d-origin="6 : 4 : 1"
       inkscape:vp_z="12 : 6 : 1"
       inkscape:vp_y="0 : 1000 : 0"
       inkscape:vp_x="0 : 6 : 1"
       sodipodi:type="inkscape:persp3d" />
    <inkscape:perspective
       id="perspective2469"
       inkscape:persp3d-origin="225 : 120 : 1"
       inkscape:vp_z="450 : 180 : 1"
       inkscape:vp_y="0 : 1000 : 0"
       inkscape:vp_x="0 : 180 : 1"
       sodipodi:type="inkscape:persp3d" />
  </defs>
  <g
     id="g5"
     transform="matrix(1.7470777,0,0,1.7471252,-216.65253,-222.73058)"
     style="fill:#000000;fill-opacity:1;stroke:none">
    <title
       id="title7">Layer 1</title>
    <g
       id="g1327"
       style="fill:#000000;fill-opacity:1;stroke:none" />
    <path
       style="fill:#000000;fill-opacity:1;fill-rule:evenodd;stroke:none"
       d="M 288.21875,150.3811 A 32.25812,32.25812 0 0 0 262,166.47485 l -122.9375,212.875 a 32.25812,32.25812 0 0 0 27.90625,48.375 l 246,0.1875 a 32.25812,32.25812 0 0 0 27.96875,-48.375 L 317.875,166.47485 A 32.25812,32.25812 0 0 0 288.21875,150.3811 Z"
       id="path2990"
       inkscape:connector-curvature="0" />
  </g>
  <path
     style="color:#000000;display:inline;overflow:visible;visibility:visible;fill:#fff200;fill-opacity:1;fill-rule:nonzero;stroke:none;marker:none;enable-background:accumulate"
     d="M 74.866648,471.02372 C 70.661779,463.90823 75.540054,450.183 75.540054,450.183 L 275.74202,103.38966 c 0,0 8.67708,-17.018823 16.87775,-16.960811 8.20067,0.05801 17.57483,18.168301 17.57483,18.168301 l 197.82527,342.67643 c 0,0 7.43258,15.49307 3.20786,23.08346 -4.22471,7.59039 -16.38682,8.02322 -16.38682,8.02322 L 94.366753,477.96464 c 0,0 -15.295235,0.17457 -19.500105,-6.94092 z"
     id="path3788"
     inkscape:connector-curvature="0"
     sodipodi:nodetypes="zcczcczccz" />
  <g
     id="g3850"
     transform="matrix(1.0091106,0,0,1.0091106,611.88771,-237.43747)"
     style="fill:#000000">
    <path
       inkscape:connector-curvature="0"
       id="path1974"
       transform="translate(68.03585,223.9898)"
       d="m -503.125,390 c -16.56308,4.29684 -28.8125,19.34895 -28.8125,37.25 0,21.24471 17.25529,38.5 38.5,38.5 12.94599,0 24.39754,-6.40935 31.375,-16.21875 -0.95903,-0.80793 -1.98266,-1.71188 -2.25,-2.78125 -0.32045,-1.28182 0.0759,-2.67405 -0.96875,-3.71875 -0.8136,-0.8136 -1.31653,-1.84476 -2.5625,-2.15625 -1.16665,-0.29166 -3.02586,-0.44482 -4.3125,-0.1875 -0.93305,0.18661 -3.71875,1.29409 -3.71875,0 0,-1.04933 0.134,-2.02967 -0.40625,-2.75 -0.68515,-0.91354 -3.03556,0.32656 -3.3125,-0.78125 -0.31763,-1.27052 1.3759,-1.40715 2.53125,-2.5625 0.19616,-0.19616 -1.14196,-1.35261 0.59375,-0.59375 1.33556,0.58392 -0.31623,-3.17504 0.59375,-4.3125 0.97957,-1.22448 4.71875,-2.15748 4.71875,-3.71875 0,-1.13328 -0.31466,-1.64271 0,-3.71875 0.26112,-1.72275 -0.21361,-1.36847 -2.5625,-0.78125 -0.26155,0.0654 -0.70439,-0.86536 -0.96875,-0.8125 -1.0197,0.20394 -3.50056,0.89828 -4.71875,0.59375 -1.36266,-0.34067 -1.45085,-1.51002 -2.5625,-2.34375 -1.02273,-0.76704 -1.3299,-0.78124 -2.75,-0.78125 -1.65606,0 -2.21864,-1.46866 -3.3125,-2.5625 -1.29245,-1.29244 -2.26815,-1.75001 -4.125,-1.75 -2.19453,0 -4.08621,0.375 -6.28125,0.375 -1.23721,0 -3.82274,0.52101 -4.71875,-0.375 -1.0717,-1.0717 -0.92323,-2.1607 -0.375,-3.53125 0.49655,-1.24139 1.72784,-1.89315 2.15625,-2.75 0.80845,-1.61692 3.40721,-1.48048 4.5,-2.9375 0.77576,-1.03435 0.78126,-2.26734 0.78125,-3.9375 0,-1.67351 -0.93814,-3.57379 -1.9375,-4.90625 -0.75049,-1.00065 -2.27343,-1.45571 -2.5625,-1.9375 -0.49171,-0.8195 -1.12658,-2.50157 -1.78125,-3.15625 -0.21902,-0.21902 -0.47246,-0.43504 -0.75,-0.65625 z"
       style="fill:#000000;fill-opacity:1;stroke:none;stroke-width:0.88582677;stroke-linecap:round;stroke-linejoin:bevel;stroke-miterlimit:4;stroke-dasharray:none;stroke-opacity:1" />
    <path
       inkscape:connector-curvature="0"
       sodipodi:nodetypes="csssss"
       transform="translate(68.03585,223.9898)"
       id="path2884"
       d="m -516.6802,385.36213 c 1.91254,1.02983 2.89333,3.28565 1.96158,4.90395 -0.93175,1.6183 -3.62892,1.6183 -5.68858,1.56926 -2.05966,-0.049 -2.05966,-0.34327 -2.55005,-1.76542 -0.4904,-1.42214 -0.98079,-2.74621 0.58847,-3.92316 1.56926,-1.17695 3.77604,-1.81446 5.68858,-0.78463 z"
       style="fill:#000000;fill-opacity:1;fill-rule:evenodd;stroke:none;stroke-width:0.88582677;stroke-linecap:butt;stroke-linejoin:miter;stroke-miterlimit:4;stroke-dasharray:none;stroke-opacity:1" />
    <path
       inkscape:connector-curvature="0"
       sodipodi:nodetypes="csssss"
       transform="translate(68.03585,223.9898)"
       id="path2886"
       d="m -507.85309,381.63513 c 1.22599,0.68655 1.91255,2.20677 1.56927,3.33468 -0.34328,1.12791 -1.71638,1.32407 -2.94237,1.17695 -1.22599,-0.14712 -1.47118,-0.78463 -1.96158,-1.76542 -0.4904,-0.98079 -0.83367,-1.47119 0,-2.15774 0.83367,-0.68655 2.10869,-1.27502 3.33468,-0.58847 z"
       style="fill:#000000;fill-opacity:1;fill-rule:evenodd;stroke:none;stroke-width:0.88582677;stroke-linecap:butt;stroke-linejoin:miter;stroke-miterlimit:4;stroke-dasharray:none;stroke-opacity:1" />
    <path
       inkscape:connector-curvature="0"
       sodipodi:nodetypes="csssssssssssssss"
       transform="translate(68.03585,223.9898)"
       id="path2888"
       d="m -482.74486,397.52393 c 2.30486,-0.44135 3.53085,-1.32407 6.0809,-0.98079 2.55005,0.34328 2.01061,1.42214 4.11931,2.35389 2.1087,0.93175 2.3539,0.29424 4.31548,1.37311 1.96158,1.07887 3.62892,1.81446 3.53084,2.94237 -0.0981,1.12791 -2.15774,0.49039 -3.92316,1.56926 -1.76542,1.07887 -1.6183,1.76543 -3.13852,2.74622 -1.52022,0.98079 -1.52022,0.39231 -2.94237,1.17694 -1.42215,0.78463 -1.52023,1.91254 -2.74622,1.96158 -1.22599,0.049 -0.68655,-0.68655 -2.15773,-1.76542 -1.47119,-1.07887 -2.74622,-2.55005 -3.72701,-2.55005 -0.98079,0 -3.43276,0.34328 -5.49242,0 -2.05966,-0.34328 -2.25582,0 -2.74621,-1.37311 -0.4904,-1.37311 -0.63751,-2.45198 0.78463,-4.11932 1.42215,-1.66734 2.89333,-1.71638 4.90395,-2.55005 2.01062,-0.83367 0.83367,-0.34328 3.13853,-0.78463 z"
       style="fill:#000000;fill-opacity:1;fill-rule:evenodd;stroke:none;stroke-width:0.88582677;stroke-linecap:butt;stroke-linejoin:miter;stroke-miterlimit:4;stroke-dasharray:none;stroke-opacity:1" />
    <path
       inkscape:connector-curvature="0"
       sodipodi:nodetypes="cssssssssssssssssssss"
       transform="translate(68.03585,223.9898)"
       id="path2890"
       d="m -465.09064,418.31668 c 1.37311,-2.3539 1.02983,-3.77605 1.96158,-5.68859 0.93175,-1.91254 -0.4904,-1.47119 1.76542,-1.96158 2.25582,-0.49039 3.48181,0 7.25785,0 3.77604,0 5.29627,-0.29424 7.84632,0 2.55005,0.29424 1.71638,0.19616 2.35389,1.17695 0.63751,0.98079 0.58847,1.47118 0.19616,2.74621 -0.39232,1.27503 -0.73559,1.61831 -1.76542,2.3539 -1.02983,0.73559 -1.56927,-0.34328 -2.3539,0.58847 -0.78463,0.93175 -1.12791,2.15774 -0.78463,3.13853 0.34328,0.98079 1.12791,-0.29424 2.15774,0.78463 1.02983,1.07887 1.96158,2.01063 1.96158,3.53085 0,1.52022 -0.58847,1.47118 -1.96158,2.55005 -1.37311,1.07887 -1.12791,1.07887 -3.53085,1.76542 -2.40293,0.68655 -3.2366,0.68655 -6.08089,0.98079 -2.84429,0.29424 -4.31548,0.19616 -5.29627,0.19616 -0.98079,0 -3.08949,0.19615 -5.10011,-0.19616 -2.01062,-0.39231 -2.01062,-0.0981 -2.94237,-1.3731 -0.93175,-1.27502 -0.98079,-2.01062 -0.78463,-3.727 0.19616,-1.71638 0.29423,-1.42215 1.56926,-3.13853 1.27503,-1.71638 2.15774,-1.3731 3.53085,-3.727 z"
       style="fill:#000000;fill-opacity:1;fill-rule:evenodd;stroke:none;stroke-width:0.88582677;stroke-linecap:butt;stroke-linejoin:miter;stroke-miterlimit:4;stroke-dasharray:none;stroke-opacity:1" />
    <path
       inkscape:connector-curvature="0"
       sodipodi:nodetypes="csssssssssss"
       transform="translate(68.03585,223.9898)"
       id="path2892"
       d="m -449.98648,460.09833 c 2.30486,0.78463 4.07029,0.63752 5.88475,2.55006 1.81446,1.91254 1.02982,3.13852 1.3731,5.1001 0.34327,1.96158 1.02983,2.01063 0,2.74622 -1.02983,0.73559 -2.3539,0.73558 -4.11932,0.19615 -1.76542,-0.53943 -1.22599,-1.22598 -2.94237,-2.35389 -1.71638,-1.12791 -2.01062,-1.42215 -3.92316,-2.15774 -1.91254,-0.73559 -2.64813,0.19616 -3.727,-0.78463 -1.07887,-0.98079 -0.49039,-1.71638 -0.58847,-3.13853 -0.0981,-1.42214 -0.9808,-1.8635 0.19615,-2.55005 1.17695,-0.68655 2.55006,-0.29424 4.51164,-0.19616 1.96158,0.0981 1.02982,-0.19616 3.33468,0.58847 z"
       style="fill:#000000;fill-opacity:1;fill-rule:evenodd;stroke:none;stroke-width:0.88582677;stroke-linecap:butt;stroke-linejoin:miter;stroke-miterlimit:4;stroke-dasharray:none;stroke-opacity:1" />
    <path
       inkscape:connector-curvature="0"
       sodipodi:nodetypes="cssssssssssssssssssssssssss"
       transform="translate(68.03585,223.9898)"
       id="path2894"
       d="m -425.17826,230.96119 c 1.40028,-1.55837 2.58117,-2.04034 4.22819,-4.22818 1.64702,-2.18784 1.86826,-3.83486 2.35991,-4.52317 0.49165,-0.68831 1.91743,-3.0728 2.85157,-4.91649 0.93414,-1.84368 -0.12291,-1.22912 0.88497,-2.45825 1.00788,-1.22912 2.6549,-2.45825 3.14655,-2.45825 0.49165,0 2.16326,0.73748 3.73654,1.17996 1.57328,0.44249 1.00788,0.61456 2.55657,0.58998 1.5487,-0.0246 1.99118,-0.29499 3.63821,-0.68831 1.64702,-0.39332 1.2537,-1.27829 2.94989,-0.88497 1.69619,0.39332 2.87615,1.05705 3.83487,2.45825 0.95872,1.4012 0.4179,1.45036 0,3.14655 -0.4179,1.69619 -1.37662,3.14656 -1.67161,3.63821 -0.29499,0.49165 -0.39332,2.31075 -1.17996,3.73653 -0.78664,1.42578 -0.68831,0.5654 -1.9666,1.9666 -1.27829,1.4012 -2.75323,3.44154 -3.14655,3.6382 -0.39332,0.19666 -2.06493,1.59786 -3.14656,3.14656 -1.08163,1.54869 -0.17207,1.49952 -1.17995,3.04822 -1.00788,1.54869 -1.22913,1.49954 -2.85157,3.14656 -1.62244,1.64702 -2.16325,1.74535 -3.6382,3.44154 -1.47495,1.69619 -0.76206,2.55658 -2.26159,3.34322 -1.49953,0.78664 -2.75324,0 -3.73653,-0.19666 -0.9833,-0.19666 -3.24489,-2.45825 -3.53988,-2.85157 -0.29499,-0.39332 -1.86827,-2.6549 -2.16326,-3.04822 -0.29498,-0.39332 -1.76993,-2.9499 -1.96659,-3.34322 -0.19666,-0.39332 -0.78664,-3.44154 -0.39332,-3.93319 0.39332,-0.49165 2.53107,-2.81208 2.6549,-2.9499 z"
       style="fill:#000000;fill-opacity:1;fill-rule:evenodd;stroke:none;stroke-width:0.88582677;stroke-linecap:butt;stroke-linejoin:miter;stroke-miterlimit:4;stroke-dasharray:none;stroke-opacity:1" />
    <path
       inkscape:connector-curvature="0"
       sodipodi:nodetypes="cssssssssssssssssssssssssssss"
       transform="translate(68.03585,223.9898)"
       id="path2896"
       d="m -352.61083,229.78124 c 1.89285,-0.36874 3.93319,-1.08163 4.22818,-1.47495 0.29499,-0.39332 0.93414,-1.32745 2.16326,-2.16326 1.22913,-0.8358 0.86039,-1.15538 2.75324,-1.17996 1.89285,-0.0246 3.41696,0 4.81816,1.08163 1.4012,1.08163 0.51623,1.79453 0.78664,3.24489 0.27041,1.45036 -0.17207,1.20454 0.29499,2.55657 0.46707,1.35204 1.74535,1.32746 1.57327,2.85157 -0.17208,1.52411 -1.6716,2.75323 -2.26158,3.24488 -0.58998,0.49165 -1.67161,1.57328 -2.85157,3.24489 -1.17996,1.67161 -1.27829,2.94989 -1.86826,3.44154 -0.58998,0.49165 -2.85157,2.45825 -3.44155,2.65491 -0.58998,0.19666 -2.94989,2.35992 -3.73653,2.85156 -0.78664,0.49165 -1.84369,1.91743 -3.53988,3.14656 -1.69619,1.22912 -2.6549,1.76994 -3.24488,1.76994 -0.58998,0 -2.85157,0.39332 -3.83487,0.0983 -0.98329,-0.29499 -1.57327,-0.9833 -2.55657,-0.9833 -0.9833,0 -2.55658,-0.39332 -3.24489,-0.78664 -0.68831,-0.39332 -1.47495,-2.06493 -1.96659,-2.45825 -0.49165,-0.39332 -0.88497,-3.04822 -1.17996,-3.53987 -0.29499,-0.49165 -0.39332,-2.06493 -0.39332,-2.85157 0,-0.78664 0.39332,-2.35991 0.88497,-3.14655 0.49165,-0.78664 0.78664,-0.88497 1.27828,-2.35992 0.49165,-1.47495 1.37662,-3.04822 1.47495,-3.6382 0.0983,-0.58998 1.76994,-2.45825 2.26159,-2.85157 0.49165,-0.39332 1.76994,-1.57328 2.16326,-2.06492 0.39332,-0.49165 1.72077,-0.61456 3.24488,-0.78664 1.52411,-0.17208 2.16326,0.0983 2.85157,0.0983 0.68831,0 1.45036,0.36874 3.34321,0 z"
       style="fill:#000000;fill-opacity:1;fill-rule:evenodd;stroke:none;stroke-width:0.88582677;stroke-linecap:butt;stroke-linejoin:miter;stroke-miterlimit:4;stroke-dasharray:none;stroke-opacity:1" />
    <path
       inkscape:connector-curvature="0"
       sodipodi:nodetypes="cssssssssssssssss"
       transform="translate(68.03585,223.9898)"
       id="path2898"
       d="m -334.02649,361.14991 c 2.85156,-1.49953 5.01483,-2.60574 8.94802,-4.42484 3.9332,-1.8191 6.19478,-2.85157 6.78476,-2.85157 0.58998,0 2.31075,0.66373 4.22818,2.06493 1.91743,1.4012 2.58116,2.11409 3.44155,3.53987 0.86039,1.42578 0.12291,0.66373 0,2.16326 -0.12291,1.49953 0.49165,2.21242 -0.49165,3.83486 -0.9833,1.62244 -3.04823,2.45825 -3.44155,2.65491 -0.39332,0.19666 -0.49164,2.33534 -2.35991,3.04823 -1.86827,0.71289 -3.24489,0.19666 -5.11316,-0.19666 -1.86827,-0.39332 -1.76993,-1.47495 -2.35991,-1.37662 -0.58998,0.0983 -3.73654,0.9833 -4.52318,0.9833 -0.78663,0 -2.55657,0.78664 -3.93319,0.88496 -1.37662,0.0983 -2.75323,-1.30287 -4.22818,-2.75323 -1.47495,-1.45036 -1.76994,-2.65491 -1.67161,-3.04823 0.0983,-0.39332 1.08163,-1.8191 2.26159,-2.94989 1.17996,-1.13079 -0.39333,-0.0737 2.45824,-1.57328 z"
       style="fill:#000000;fill-opacity:1;fill-rule:evenodd;stroke:none;stroke-width:0.88582677;stroke-linecap:butt;stroke-linejoin:miter;stroke-miterlimit:4;stroke-dasharray:none;stroke-opacity:1" />
    <path
       inkscape:connector-curvature="0"
       sodipodi:nodetypes="csssssssss"
       transform="translate(68.03585,223.9898)"
       id="path2900"
       d="m -373.94841,442.66535 c 1.88265,0.82741 3.19573,1.30287 5.21149,2.35992 2.01576,1.05705 2.33533,0.76206 2.85156,1.86827 0.51623,1.10621 1.2537,1.79451 -0.78664,2.55657 -2.04035,0.76206 -6.29311,0.58998 -7.37474,0.49165 -1.08162,-0.0983 -4.32651,-0.54081 -6.09645,-1.76993 -1.76994,-1.22912 -0.78663,-2.55658 -0.98329,-3.14656 -0.19666,-0.58998 -0.29499,-3.04823 0.0983,-3.04823 0.39331,0 2.16326,0.4179 3.93319,0.58998 1.76993,0.17208 1.16975,-0.77046 3.14655,0.0983 z"
       style="fill:#000000;fill-opacity:1;fill-rule:evenodd;stroke:none;stroke-width:0.88582677;stroke-linecap:butt;stroke-linejoin:miter;stroke-miterlimit:4;stroke-dasharray:none;stroke-opacity:1" />
    <path
       inkscape:connector-curvature="0"
       sodipodi:nodetypes="csssssssssssssssss"
       transform="translate(68.03585,223.9898)"
       id="path2902"
       d="m -352.90582,438.04385 c 2.1608,-0.4549 4.57234,-0.0738 8.06305,-0.19666 3.49071,-0.12291 5.21148,-0.29499 5.89979,-0.29499 0.68831,0 7.47307,0.39332 8.25971,0.49165 0.78664,0.0983 1.03246,1.27829 2.75323,2.45825 1.72077,1.17996 2.21243,1.05704 4.12986,2.26158 1.91743,1.20454 2.6549,1.27829 3.53987,2.55658 0.88497,1.27829 0.27041,1.25371 0,2.55658 -0.27041,1.30287 0.29499,1.79452 -1.08163,2.6549 -1.37662,0.86039 -2.75323,0.9833 -4.42484,0.78664 -1.67161,-0.19666 -8.35804,-1.27829 -9.04635,-1.27829 -0.68831,0 -8.16137,-0.49165 -8.94801,-0.39332 -0.78664,0.0983 -5.11315,-0.19666 -5.50647,-0.19666 -0.39332,0 -2.28617,0.0492 -3.53988,-0.78664 -1.25371,-0.8358 -1.30287,-1.27828 -1.47495,-2.55657 -0.17208,-1.27829 0.78664,-2.06493 0.78664,-2.55658 0,-0.49165 -0.19666,-2.35991 -0.68831,-2.94989 -0.49165,-0.58998 1.10375,-2.51983 1.27829,-2.55658 z"
       style="fill:#000000;fill-opacity:1;fill-rule:evenodd;stroke:none;stroke-width:0.88582677;stroke-linecap:butt;stroke-linejoin:miter;stroke-miterlimit:4;stroke-dasharray:none;stroke-opacity:1" />
    <path
       inkscape:connector-curvature="0"
       sodipodi:nodetypes="csssssssscc"
       transform="translate(68.03585,223.9898)"
       id="path2904"
       d="m -342.58118,485.73382 c 0.88496,-0.49165 -3.53987,-3.39238 -6.5881,-5.50647 -3.04823,-2.11409 -4.03153,-1.94201 -5.60481,-2.94989 -1.57328,-1.00788 -1.2537,0 -0.6883,-1.08163 0.5654,-1.08163 1.8191,-1.8191 2.94989,-3.24488 1.13079,-1.42578 -0.68831,-2.23701 1.57328,-2.45825 2.26159,-0.22124 1.17996,0.22125 7.47307,1.57328 6.29311,1.35204 9.6609,1.52411 17.69937,3.83486 8.03847,2.31075 14.06117,5.30981 14.45449,5.40814 0.39332,0.0983 11.2096,4.52318 11.2096,4.52318 l -42.47849,-0.0983 z"
       style="fill:#000000;fill-opacity:1;fill-rule:evenodd;stroke:none;stroke-width:0.88582677;stroke-linecap:butt;stroke-linejoin:miter;stroke-miterlimit:4;stroke-dasharray:none;stroke-opacity:1" />
    <path
       inkscape:connector-curvature="0"
       sodipodi:nodetypes="cssssssssssssssssss"
       transform="translate(68.03585,223.9898)"
       id="path2906"
       d="m -471.28324,330.30365 c -2.15266,8.96109 -2.35291,1.7772 -5.00619,1.90236 -2.65328,0.12516 -5.20644,-1.20149 -5.60694,-1.40174 -0.4005,-0.20024 -3.10384,-2.00247 -3.60446,-2.30285 -0.50062,-0.30037 -2.1026,-1.80223 -2.5031,-2.80347 -0.40049,-1.00123 -0.50062,-4.10508 -0.70087,-4.80594 -0.20024,-0.70087 -0.70086,-3.05378 -0.20024,-4.90607 0.50062,-1.85229 0.90111,-1.15142 2.20272,-2.5031 1.30161,-1.35167 1.85229,-1.40174 3.00372,-2.9036 1.15143,-1.50186 1.60198,-2.70334 1.60198,-3.10384 0,-0.40049 -0.90111,-5.10632 -1.00124,-5.60694 -0.10012,-0.50061 -0.70086,-2.30285 -0.90111,-3.20396 -0.20025,-0.90112 0.67583,-2.12763 2.20272,-2.80347 1.52689,-0.67584 2.72838,0.3254 3.90484,0.10012 1.17646,-0.22528 0.70086,-0.60074 0.80099,-1.00123 0.10012,-0.4005 0.57571,-1.20149 2.40297,-0.90112 1.82726,0.30037 3.1539,1.52689 4.90607,2.1026 1.75217,0.57571 2.47807,-8.33531 2.10261,0.20025 -0.37546,8.53556 -1.4518,24.98091 -3.60447,33.942 z"
       style="fill:#000000;fill-opacity:1;fill-rule:evenodd;stroke:none;stroke-width:0.88582677;stroke-linecap:butt;stroke-linejoin:miter;stroke-miterlimit:4;stroke-dasharray:none;stroke-opacity:1" />
    <path
       inkscape:connector-curvature="0"
       sodipodi:nodetypes="csssssssssssssss"
       transform="translate(68.03585,223.9898)"
       id="path2908"
       d="m -448.45498,315.18494 c 0,-0.50061 -1.22652,-2.428 -0.90112,-4.50557 0.3254,-2.07757 0.70087,-1.97745 2.20273,-3.80471 1.50186,-1.82726 2.20272,-2.02751 3.8047,-3.50434 1.60198,-1.47683 1.2015,-1.90235 2.60323,-2.40297 1.40173,-0.50062 1.85229,-0.22527 3.00371,0.4005 1.15142,0.62577 1.02628,0.7259 1.60199,2.1026 0.57571,1.3767 0.85105,2.22776 0.70086,3.40421 -0.15019,1.17645 -1.00124,0.90112 -1.30161,1.30161 -0.30037,0.4005 -1.15143,1.70211 -1.30161,3.50434 -0.15018,1.80223 0.52565,2.02751 0.70087,3.70458 0.17522,1.67708 0.67584,1.95242 0,3.00372 -0.67584,1.0513 -1.90235,0.90111 -2.70335,1.20149 -0.80099,0.30037 -4.00495,0.90111 -4.6057,0.60074 -0.60074,-0.30037 -2.30285,-1.60198 -2.50309,-2.00248 -0.20025,-0.40049 -1.30161,-2.90359 -1.30161,-3.00372 z"
       style="fill:#000000;fill-opacity:1;fill-rule:evenodd;stroke:none;stroke-width:0.88582677;stroke-linecap:butt;stroke-linejoin:miter;stroke-miterlimit:4;stroke-dasharray:none;stroke-opacity:1" />
    <path
       inkscape:connector-curvature="0"
       sodipodi:nodetypes="cssssssss"
       transform="translate(68.03585,223.9898)"
       id="path2910"
       d="m -446.55263,329.80304 c 1.42676,1.20149 1.80223,4.10508 1.40173,4.2052 -0.40049,0.10012 -0.80099,2.20273 -1.80223,2.30285 -1.00123,0.10012 -2.90359,0.40049 -3.40421,0.40049 -0.50062,0 -2.12764,0.25032 -3.00372,-0.50061 -0.87609,-0.75093 -0.60074,-1.50186 -0.50062,-2.5031 0.10013,-1.00124 0.4005,-2.70335 0.50062,-3.10384 0.10013,-0.4005 0.80099,-1.20149 2.5031,-1.40174 1.70211,-0.20025 2.87856,-0.60074 4.30533,0.60075 z"
       style="fill:#000000;fill-opacity:1;fill-rule:evenodd;stroke:none;stroke-width:0.88582677;stroke-linecap:butt;stroke-linejoin:miter;stroke-miterlimit:4;stroke-dasharray:none;stroke-opacity:1" />
    <path
       inkscape:connector-curvature="0"
       sodipodi:nodetypes="csssssssssssss"
       transform="translate(68.03585,223.9898)"
       id="path2912"
       d="m -507.42797,368.25062 c 1.40173,4.13011 -0.87608,1.95241 -2.20272,3.50433 -1.32664,1.55192 -2.70335,2.70335 -3.10384,2.70335 -0.4005,0 -1.50186,0.60074 -2.20273,0.60074 -0.70087,0 -1.40174,0.17522 -2.5031,-0.60074 -1.10136,-0.77596 -1.30161,-1.50186 -1.90235,-2.5031 -0.60074,-1.00124 -1.50186,-2.70335 -2.00248,-3.40421 -0.50062,-0.70087 -1.90235,-2.20273 -2.30285,-2.9036 -0.4005,-0.70086 -0.60074,-1.80223 -0.4005,-2.70334 0.20025,-0.90112 1.40174,-1.90236 2.10261,-2.40298 0.70086,-0.50061 2.20272,-1.50185 2.80347,-2.00247 0.60074,-0.50062 1.60198,-0.90112 2.1026,-1.50186 0.50062,-0.60075 -0.60074,-4.6057 1.80223,-1.80223 2.40297,2.80347 6.40793,8.886 7.80966,13.01611 z"
       style="fill:#000000;fill-opacity:1;fill-rule:evenodd;stroke:none;stroke-width:0.88582677;stroke-linecap:butt;stroke-linejoin:miter;stroke-miterlimit:4;stroke-dasharray:none;stroke-opacity:1" />
    <path
       inkscape:connector-curvature="0"
       sodipodi:nodetypes="csssssssssssssssssssssssssssssss"
       transform="translate(68.03585,223.9898)"
       id="path2914"
       d="m -444.95065,359.53984 c 1.71317,-0.85659 1.52689,1.3767 2.9036,2.40297 1.3767,1.02627 1.80223,1.00124 2.60322,1.70211 0.80099,0.70086 1.42676,2.32788 1.80223,4.2052 0.37547,1.87732 -0.30037,2.90359 -0.30037,3.30409 0,0.40049 0.70086,1.80223 1.60198,1.40173 0.90111,-0.40049 2.1026,-0.50062 2.20272,-1.20148 0.10013,-0.70087 1.40174,-2.9036 1.40174,-3.30409 0,-0.4005 0.20025,-1.80223 0.40049,-2.40298 0.20025,-0.60074 0.4005,-1.60198 1.00124,-2.20272 0.60075,-0.60075 1.30161,-1.80223 2.20273,-1.90236 0.90111,-0.10012 3.30409,0.20025 3.70458,0.20025 0.4005,0 1.60199,1.10136 1.70211,1.50186 0.10012,0.4005 0.4005,1.50186 0.50062,2.20273 0.10012,0.70086 0,2.00247 0,2.50309 0,0.50062 -1.00124,2.60323 -1.40173,2.80347 -0.4005,0.20025 -2.00248,1.90236 -2.70335,2.10261 -0.70087,0.20024 -1.00124,0.40049 -2.00248,0.70086 -1.00124,0.30037 -2.60322,1.20149 -3.10384,1.80223 -0.50062,0.60075 -0.6508,1.22652 -1.40173,2.40298 -0.75093,1.17646 -1.20149,1.90235 -1.60199,2.30285 -0.40049,0.40049 -1.40173,2.20272 -1.90235,2.40297 -0.50062,0.20025 -2.5031,0.30037 -3.30409,-0.10012 -0.80099,-0.4005 -0.60074,-0.60075 -1.50186,-1.20149 -0.90111,-0.60074 -1.7021,-1.40173 -2.80347,-1.40173 -1.10136,0 -2.1026,-0.20025 -3.40421,-0.20025 -1.30161,0 -1.70211,-0.4005 -3.10384,-0.50062 -1.40174,-0.10013 -1.67708,-0.12516 -2.5031,-0.20025 -0.82602,-0.0751 -0.60074,0.30037 -0.80099,-0.10012 -0.20025,-0.4005 0.22528,-3.50434 1.70211,-6.80843 1.47683,-3.30409 3.8047,-5.20644 4.2052,-6.40793 0.4005,-1.20149 3.81577,-5.9629 3.90483,-6.00743 z"
       style="fill:#000000;fill-opacity:1;fill-rule:evenodd;stroke:none;stroke-width:0.88582677;stroke-linecap:butt;stroke-linejoin:miter;stroke-miterlimit:4;stroke-dasharray:none;stroke-opacity:1" />
    <path
       inkscape:connector-curvature="0"
       sodipodi:nodetypes="cscssss"
       transform="translate(68.03585,223.9898)"
       id="path2916"
       d="m -493.91124,357.83773 c 0.3204,-0.0801 4.73085,0.20025 9.81214,0.20025 5.08129,0 7.78463,0.60074 10.51301,-0.20025 1.82726,6.90855 -2.80346,27.93457 -3.20396,27.83445 -0.4005,-0.10013 -5.90731,-1.50186 -7.50929,-2.00248 -1.60199,-0.50062 -4.50558,0.50062 -4.6057,-1.60198 -0.10013,-2.10261 -5.0863,-24.20997 -5.0062,-24.22999 z"
       style="fill:#000000;fill-opacity:1;fill-rule:evenodd;stroke:none;stroke-width:0.88582677;stroke-linecap:butt;stroke-linejoin:miter;stroke-miterlimit:4;stroke-dasharray:none;stroke-opacity:1" />
    <path
       inkscape:connector-curvature="0"
       sodipodi:nodetypes="csssssssss"
       transform="translate(68.03585,223.9898)"
       id="path2918"
       d="m -448.45498,382.66846 c 1.0127,0.0608 2.55316,-0.15018 3.90483,0.70087 1.35167,0.85105 1.3767,1.65204 1.50186,2.70334 0.12515,1.0513 -0.30038,1.00124 -1.00124,1.50186 -0.70087,0.50062 -1.80223,1.10136 -4.00496,1.00124 -2.20272,-0.10012 -2.12763,0.12515 -3.20396,-0.20025 -1.07633,-0.3254 -1.10137,-0.10012 -1.10137,-1.10136 0,-1.00124 -1.10136,-0.60074 0,-1.80223 1.10137,-1.20149 0.82602,-1.20149 1.80223,-1.90236 0.97621,-0.70087 0.61222,-0.99054 2.10261,-0.90111 z"
       style="fill:#000000;fill-opacity:1;fill-rule:evenodd;stroke:none;stroke-width:0.88582677;stroke-linecap:butt;stroke-linejoin:miter;stroke-miterlimit:4;stroke-dasharray:none;stroke-opacity:1" />
    <path
       inkscape:connector-curvature="0"
       sodipodi:nodetypes="csssssssssssss"
       transform="translate(68.03585,223.9898)"
       id="path2920"
       d="m -412.61063,388.97626 c 1.67707,0.67584 2.12764,0.92616 3.70459,1.80224 1.57695,0.87609 1.7772,0.72589 2.60322,1.7021 0.82602,0.97621 1.15143,1.37671 0.70087,2.20273 -0.45056,0.82602 -1.70211,1.10136 -2.5031,1.10136 -0.80099,0 -2.70335,-0.20025 -3.50434,-0.30037 -0.80099,-0.10012 -3.8047,-0.10012 -4.2052,-0.30037 -0.4005,-0.20025 -1.60198,-0.70087 -2.70335,-1.00124 -1.10136,-0.30037 -2.20272,0.30037 -2.40297,-0.90112 -0.20025,-1.20148 -0.20025,-1.90235 -0.20025,-2.50309 0,-0.60075 -0.90111,-1.40174 0.4005,-2.00248 1.30161,-0.60075 1.90235,-1.20149 2.60322,-1.10137 0.70087,0.10013 1.1264,0.0751 2.5031,0.4005 1.3767,0.3254 1.32663,0.22527 3.00371,0.90111 z"
       style="fill:#000000;fill-opacity:1;fill-rule:evenodd;stroke:none;stroke-width:0.88582677;stroke-linecap:butt;stroke-linejoin:miter;stroke-miterlimit:4;stroke-dasharray:none;stroke-opacity:1" />
    <path
       inkscape:connector-curvature="0"
       sodipodi:nodetypes="cssssssssssssssssss"
       transform="translate(68.03585,223.9898)"
       id="path2922"
       d="m -405.2923,308.0247 c 1.16415,-1.01171 2.07885,-2.18971 3.82508,-3.49246 1.74623,-1.30275 2.55006,-1.77395 3.15985,-1.71852 0.6098,0.0554 1.15029,0.62366 1.88482,1.27503 0.73453,0.65137 0.55437,0.41577 1.05329,1.33046 0.49892,0.91469 0.7761,1.20573 0.94241,2.32831 0.16631,1.12258 -0.0554,2.16201 -0.27718,2.16201 -0.22174,0 -1.60764,0.83153 -1.88482,0.94241 -0.27718,0.11087 -1.60765,2.162 -1.9957,2.27287 -0.38805,0.11087 -0.81768,0.2356 -1.60764,0.94241 -0.78996,0.70681 -1.33046,1.77395 -1.55221,1.88483 -0.22174,0.11087 -1.3859,1.33046 -1.82938,1.38589 -0.44349,0.0554 -0.99785,0.38806 -1.55221,0.0554 -0.55436,-0.33262 -0.66523,-0.27718 -1.21959,-1.05328 -0.55436,-0.77611 -0.27718,0.0554 -1.10872,-1.27503 -0.83154,-1.33046 -1.82939,-0.83154 -1.55221,-2.60549 0.27718,-1.77395 0.16631,-2.21744 0.83154,-2.7718 0.66523,-0.55436 1.33046,-0.69295 2.05113,-1.10872 0.72067,-0.41577 -0.33262,0.45735 0.83154,-0.55436 z"
       style="fill:#000000;fill-opacity:1;fill-rule:evenodd;stroke:none;stroke-width:0.88582677;stroke-linecap:butt;stroke-linejoin:miter;stroke-miterlimit:4;stroke-dasharray:none;stroke-opacity:1" />
    <path
       inkscape:connector-curvature="0"
       sodipodi:nodetypes="cssssssssssssssssss"
       transform="translate(68.03585,223.9898)"
       id="path2924"
       d="m -444.68986,441.08727 c 0.79769,0.30681 6.42656,1.8162 7.05524,1.88605 0.62869,0.0699 3.21328,1.67649 3.84197,1.74635 0.62868,0.0698 5.51845,2.51474 6.07729,2.79415 0.55883,0.27942 1.8162,1.81621 2.16547,2.02577 0.34927,0.20956 0.78585,2.16546 0.69853,3.35298 -0.0873,1.18752 0,1.25737 -1.0478,1.39708 -1.04781,0.13971 -2.37504,1.06527 -3.70226,1.46693 -1.32723,0.40166 0.0699,-0.1397 -1.60664,0.13971 -1.67649,0.27942 -2.93386,0.48898 -3.98167,0.13971 -1.04781,-0.34927 -2.02576,-0.62869 -3.28313,-0.83825 -1.25737,-0.20956 -5.93758,-1.88605 -7.47437,-2.93386 -1.53679,-1.04781 -4.61036,-2.37503 -5.02948,-2.86401 -0.41912,-0.48898 -2.37503,-2.02576 -2.30518,-2.30518 0.0699,-0.27941 0.62869,-0.27941 1.46693,-1.25737 0.83825,-0.97795 1.60664,-1.60664 2.16547,-2.16547 0.55884,-0.55883 2.44489,-1.74635 2.44489,-2.02576 0,-0.27942 0.83825,-1.32723 1.46693,-1.25737 0.62869,0.0698 0.9374,0.65608 1.04781,0.69854 z"
       style="fill:#000000;fill-opacity:1;fill-rule:evenodd;stroke:none;stroke-width:0.88582677;stroke-linecap:butt;stroke-linejoin:miter;stroke-miterlimit:4;stroke-dasharray:none;stroke-opacity:1" />
    <path
       inkscape:connector-curvature="0"
       sodipodi:nodetypes="csssssssssssssss"
       transform="translate(68.03585,223.9898)"
       id="path2926"
       d="m -406.96876,430.53933 c 1.1002,0.66361 2.93386,1.88605 2.93386,2.23532 0,0.34927 1.15259,0.9605 1.53679,2.02577 0.3842,1.06527 0.0699,1.27483 0,2.23532 -0.0699,0.96049 0.0698,1.67649 -0.27942,1.60664 -0.34927,-0.0699 -1.25737,0.20956 -1.88605,-0.27942 -0.62869,-0.48897 -1.32723,-0.83824 -1.74635,-1.32722 -0.41912,-0.48898 0.13971,-0.69854 -1.25737,-1.25737 -1.39708,-0.55883 -1.53678,-0.41912 -2.65445,-1.04781 -1.11766,-0.62868 -0.97795,-0.48897 -1.60664,-0.9081 -0.62868,-0.41912 -1.32722,-0.27941 -1.74634,-1.32722 -0.41913,-1.04781 -0.69854,-1.11766 -0.0699,-1.8162 0.62869,-0.69854 -0.9081,-0.9081 1.04781,-1.11767 1.95591,-0.20956 1.32723,-0.20956 2.16547,-0.20956 0.83825,0 1.20498,0.47152 2.09562,0.7684 0.89064,0.29688 0.36673,-0.24449 1.46693,0.41912 z"
       style="fill:#000000;fill-opacity:1;fill-rule:evenodd;stroke:none;stroke-width:0.88582677;stroke-linecap:butt;stroke-linejoin:miter;stroke-miterlimit:4;stroke-dasharray:none;stroke-opacity:1" />
    <path
       inkscape:connector-curvature="0"
       sodipodi:nodetypes="csssssssssssssssss"
       transform="translate(68.03585,223.9898)"
       id="path2928"
       d="m -401.86943,465.117 c 0.57298,-1.30513 0.97796,-1.88605 1.04781,-2.30517 0.0699,-0.41913 0.69854,-1.46694 1.32723,-1.60664 0.62868,-0.13971 2.16547,0 2.93386,0.1397 0.76839,0.13971 2.23532,0.62869 2.65445,0.62869 0.41912,0 1.25737,0.34927 1.88605,0.62868 0.62869,0.27942 1.22244,1.06527 1.60664,1.88606 0.3842,0.82078 -0.15717,0.78586 -0.0699,1.39708 0.0873,0.61122 0.69854,0.9081 0.41912,1.04781 -0.27941,0.1397 -1.74635,0.34926 -2.02576,0.27941 -0.27942,-0.0699 -0.78586,-0.50644 -1.53679,-0.13971 -0.75093,0.36673 -0.76839,0.97795 -1.46693,1.60664 -0.69854,0.62869 -0.45405,0.47151 -1.32722,0.9081 -0.87317,0.43659 -0.69854,0.69854 -2.16547,0.83825 -1.46693,0.13971 -1.46693,0.0698 -2.37504,-0.20956 -0.9081,-0.27942 -1.25737,-0.55883 -1.74634,-1.04781 -0.48898,-0.48898 -0.62869,-0.69854 -0.62869,-1.18752 0,-0.48897 1.41123,-2.73713 1.46693,-2.86401 z"
       style="fill:#000000;fill-opacity:1;fill-rule:evenodd;stroke:none;stroke-width:0.88582677;stroke-linecap:butt;stroke-linejoin:miter;stroke-miterlimit:4;stroke-dasharray:none;stroke-opacity:1" />
    <path
       inkscape:connector-curvature="0"
       sodipodi:nodetypes="cssssssssssssssssssssssssssssssss"
       transform="translate(68.03585,223.9898)"
       id="path2930"
       d="m -503.66473,298.95234 c 0.79475,-0.007 6.69888,0 7.49366,0 0.79478,0 4.65515,0.5677 5.10932,0 0.45416,-0.5677 1.24894,-1.02186 1.36248,-1.93018 0.11354,-0.90833 0.5677,-2.61143 0.22708,-3.06559 -0.34062,-0.45416 -2.38435,-2.38435 -2.61143,-3.51975 -0.22708,-1.1354 -1.24894,0.11354 -0.22708,-2.27081 1.02186,-2.38434 1.93019,-3.4062 3.06559,-5.22285 1.1354,-1.81664 0.79478,-0.45416 2.15727,-3.29267 1.36248,-2.8385 1.81664,-2.8385 2.2708,-4.20099 0.45416,-1.36248 0.90832,-1.81664 0.90832,-2.61142 0,-0.79479 -0.5677,-1.13541 0,-1.81665 0.56771,-0.68124 0.99348,-0.93671 2.38435,-0.68124 1.39087,0.25547 2.61143,1.7031 3.17913,1.7031 0.5677,0 1.78826,0.39739 3.06559,-0.22708 1.27733,-0.62447 0.90832,0.79478 2.04372,-2.2708 1.1354,-3.06559 0.82317,-2.12888 1.1354,-3.63329 0.31223,-1.50441 -1.58956,-1.13541 0.11354,-2.38435 1.70311,-1.24894 0.56771,-0.34062 1.81665,-1.36248 1.24894,-1.02186 2.15726,-2.04373 2.2708,-2.72497 0.11354,-0.68124 0.45417,-1.93018 0.45417,-3.06559 0,-1.1354 -0.11354,-1.81664 0,-3.17912 0.11354,-1.36249 0.11354,-2.61143 0.11354,-3.63329 0,-1.02187 0,-1.58957 -0.11354,-2.49789 -0.11354,-0.90832 -0.11354,-1.1354 -0.56771,-2.04373 -0.45416,-0.90832 -0.90832,-3.17912 -2.04372,-3.29266 -1.1354,-0.11354 -2.27081,-0.68125 -6.13118,0.45416 -3.86037,1.1354 -8.40198,5.56347 -9.3103,7.15304 -0.90832,1.58956 -9.53738,19.30184 -10.55925,22.02681 -1.02186,2.72497 -5.33639,8.7426 -5.79055,11.58111 -0.45416,2.83851 -3.40621,8.7426 -3.51975,10.33217 -0.11354,1.58956 -0.53932,4.3713 -0.11354,5.79055 0.42577,1.41925 -0.51098,-0.0924 1.81664,-0.11354 z"
       style="fill:#000000;fill-opacity:1;fill-rule:evenodd;stroke:none;stroke-width:0.88582677;stroke-linecap:butt;stroke-linejoin:miter;stroke-miterlimit:4;stroke-dasharray:none;stroke-opacity:1" />
    <path
       inkscape:connector-curvature="0"
       sodipodi:nodetypes="cccccccc"
       id="path2932"
       transform="translate(68.03585,223.9898)"
       d="m -349.15625,136.375 c 0,0 -112.21924,243.5962 -112.65854,250.80072 -0.59531,8.82373 132.53354,-216.23822 132.53354,-216.23822 l -19.875,-34.5625 z m 0.4375,21.59375 3.46875,2.59375 -22.0625,37.15625 c 0,-2.16058 18.59375,-39.75 18.59375,-39.75 z"
       style="fill:#000000;fill-opacity:1;fill-rule:evenodd;stroke:none;stroke-width:0.88582677;stroke-linecap:butt;stroke-linejoin:miter;stroke-miterlimit:4;stroke-dasharray:none;stroke-opacity:1" />
    <path
       inkscape:connector-curvature="0"
       sodipodi:nodetypes="cccc"
       transform="translate(68.03585,223.9898)"
       id="path2934"
       d="m -451.6396,404.4719 c -4.66064,1.39222 166.01079,-161.80477 166.01079,-161.80477 l 17.15815,26.23115 c 0,0 -177.5459,133.90428 -183.16894,135.57362 z"
       style="fill:#000000;fill-opacity:1;fill-rule:evenodd;stroke:none;stroke-width:0.88582677;stroke-linecap:butt;stroke-linejoin:miter;stroke-miterlimit:4;stroke-dasharray:none;stroke-opacity:1" />
    <path
       inkscape:connector-curvature="0"
       sodipodi:nodetypes="cccccssssssc"
       id="path2936"
       transform="translate(68.03585,223.9898)"
       d="m -251.9375,293.65625 c 0,0 -148.77978,85.05949 -156.36869,91.35837 9.60328,-3.13187 163.77495,-73.01463 163.77494,-73.01462 l -7.40625,-18.34375 z m -10.6875,13.53125 c 0.1768,-0.0179 0.39513,0.0564 0.8125,0.21875 1.66949,0.64923 3.49967,2.79894 3.46875,4.4375 -0.0309,1.63855 -0.68762,0.57885 -3.59375,2.09375 -2.90613,1.5149 -5.73846,4.47558 -8.03125,3.96875 -0.64424,-0.14241 -3.4554,-1.89837 -2.21875,-4.0625 1.23666,-2.16414 4.59054,-2.98611 7.1875,-4.59375 1.94771,-1.20572 1.84459,-2.00888 2.375,-2.0625 z"
       style="fill:#000000;fill-opacity:1;fill-rule:evenodd;stroke:none;stroke-width:0.88582677;stroke-linecap:butt;stroke-linejoin:miter;stroke-miterlimit:4;stroke-dasharray:none;stroke-opacity:1" />
    <path
       inkscape:connector-curvature="0"
       sodipodi:nodetypes="cccc"
       transform="translate(68.03585,223.9898)"
       id="path2938"
       d="m -421.31329,401.68589 c 3.57041,-2.52515 201.79826,-47.53278 201.79826,-47.53278 l 11.66714,20.30946 c 0,0 -206.98477,27.22332 -213.4654,27.22332 z"
       style="fill:#000000;fill-opacity:1;fill-rule:evenodd;stroke:none;stroke-width:0.88582677;stroke-linecap:butt;stroke-linejoin:miter;stroke-miterlimit:4;stroke-dasharray:none;stroke-opacity:1" />
    <path
       inkscape:connector-curvature="0"
       transform="translate(68.03585,223.9898)"
       id="path2940"
       d="m -367.73088,411.62456 177.59975,-9.07444 2.16058,13.82772 -179.76033,-4.75328 z"
       style="fill:#000000;fill-opacity:1;fill-rule:evenodd;stroke:none;stroke-width:0.88582677;stroke-linecap:butt;stroke-linejoin:miter;stroke-miterlimit:4;stroke-dasharray:none;stroke-opacity:1" />
    <path
       inkscape:connector-curvature="0"
       sodipodi:nodetypes="ccccccccsc"
       id="path2942"
       transform="translate(68.03585,223.9898)"
       d="m -434.5,418.09375 c 5.9671,5.84951 272.03125,36.53124 272.03125,36.53125 l -5.1875,-24 c 0,0 -261.06553,-13.05351 -266.84375,-12.53125 z m 213.34375,19.96875 38.65625,1.375 0.75,1.8125 0.3125,2.125 c 1e-5,10e-6 0.29588,1.68335 -0.3125,1.53125 -0.60837,-0.15208 -39.40625,-6.69165 -39.40625,-6.84375 z"
       style="fill:#000000;fill-opacity:1;fill-rule:evenodd;stroke:none;stroke-width:0.88582677;stroke-linecap:butt;stroke-linejoin:miter;stroke-miterlimit:4;stroke-dasharray:none;stroke-opacity:1" />
    <path
       inkscape:connector-curvature="0"
       sodipodi:nodetypes="cccc"
       transform="translate(68.03585,223.9898)"
       id="path2944"
       d="m -448.1045,439.28 c 8.90802,-0.41622 262.37413,51.44599 262.37413,51.44599 l -63.60778,-1.52093 c 0,0 -197.34208,-44.45538 -198.76635,-49.92506 z"
       style="fill:#000000;fill-opacity:1;fill-rule:evenodd;stroke:none;stroke-width:0.88582677;stroke-linecap:butt;stroke-linejoin:miter;stroke-miterlimit:4;stroke-dasharray:none;stroke-opacity:1" />
    <path
       inkscape:connector-curvature="0"
       sodipodi:nodetypes="cccc"
       transform="translate(68.03585,223.9898)"
       id="path2946"
       d="m -458.9074,446.62597 c 5.49535,-1.56691 116.67137,42.34739 116.67137,42.34739 l -41.05104,1.72846 c 0,0 -74.3581,-41.13064 -75.62033,-44.07585 z"
       style="fill:#000000;fill-opacity:1;fill-rule:evenodd;stroke:none;stroke-width:0.88582677;stroke-linecap:butt;stroke-linejoin:miter;stroke-miterlimit:4;stroke-dasharray:none;stroke-opacity:1" />
    <path
       inkscape:connector-curvature="0"
       sodipodi:nodetypes="cccc"
       transform="translate(68.03585,223.9898)"
       id="path2948"
       d="m -493.4767,382.24066 c 0,-1.47261 -27.22332,-58.7678 -27.22332,-58.7678 l -9.93867,9.93867 c 0,0 25.80188,51.41622 37.16199,48.82913 z"
       style="fill:#000000;fill-opacity:1;fill-rule:evenodd;stroke:none;stroke-width:0.88582677;stroke-linecap:butt;stroke-linejoin:miter;stroke-miterlimit:4;stroke-dasharray:none;stroke-opacity:1" />
    <path
       inkscape:connector-curvature="0"
       sodipodi:nodetypes="cccc"
       transform="translate(68.03585,223.9898)"
       id="path2950"
       d="m -489.23621,383.73428 c -1.93292,-2.10864 -20.6609,-84.02781 -20.6609,-84.02781 l 4.75328,-19.01312 c 0,0 18.73,106.11988 15.90762,103.04093 z"
       style="fill:#000000;fill-opacity:1;fill-rule:evenodd;stroke:none;stroke-width:0.88582677;stroke-linecap:butt;stroke-linejoin:miter;stroke-miterlimit:4;stroke-dasharray:none;stroke-opacity:1" />
    <path
       inkscape:connector-curvature="0"
       sodipodi:nodetypes="cccc"
       transform="translate(68.03585,223.9898)"
       id="path2952"
       d="m -477.05628,385.69759 c 3.14115,-5.98254 45.80432,-206.98366 45.80432,-206.98366 l -25.49486,13.3956 c 0,0 -22.15452,190.07366 -20.30946,193.58806 z"
       style="fill:#000000;fill-opacity:1;fill-rule:evenodd;stroke:none;stroke-width:0.88582677;stroke-linecap:butt;stroke-linejoin:miter;stroke-miterlimit:4;stroke-dasharray:none;stroke-opacity:1" />
    <path
       inkscape:connector-curvature="0"
       transform="translate(68.03585,223.9898)"
       id="path2954"
       d="m -406.18922,333.41153 99.38672,-125.3137 7.77809,13.82772 -107.16481,111.48598 z"
       style="fill:#000000;fill-opacity:1;fill-rule:evenodd;stroke:none;stroke-width:0.88582677;stroke-linecap:butt;stroke-linejoin:miter;stroke-miterlimit:4;stroke-dasharray:none;stroke-opacity:1" />
  </g>
</svg>
