<svg width="16" height="16" viewBox="0 0 16 16" fill="none" xmlns="http://www.w3.org/2000/svg">
<path fill-rule="evenodd" clip-rule="evenodd" d="M9.29455 3.41064C9.49824 3.20571 9.61256 2.9285 9.61256 2.63956L9.61223 2.61292C9.60519 2.32406 9.48414 2.04973 9.27551 1.84982C9.06689 1.64991 8.78764 1.54067 8.49875 1.54596C8.20985 1.55124 7.93479 1.67062 7.73361 1.87802C7.53244 2.08542 7.4215 2.364 7.42502 2.65292C7.42855 2.94184 7.54625 3.21763 7.75242 3.42006C7.9586 3.6225 8.23649 3.73513 8.52543 3.73336C8.81437 3.7316 9.09086 3.61558 9.29455 3.41064ZM8.84882 4.54378C8.66591 4.34309 8.4154 4.20164 8.12594 4.15819C7.86942 4.11968 7.61956 4.16371 7.40331 4.27036C7.32891 4.28605 7.25667 4.31784 7.19184 4.36648L5.32675 5.76562C5.23178 5.83686 5.16304 5.93752 5.13123 6.0519L4.6199 7.89093C4.54029 8.17725 4.70786 8.47389 4.99418 8.5535C5.28049 8.63311 5.57713 8.46554 5.65674 8.17922L6.11902 6.5166L6.58602 6.16628L6.33781 7.81959C6.33343 7.84879 6.33011 7.8779 6.32784 7.90688C6.30591 7.98475 6.29641 8.06755 6.30147 8.15285L6.46411 10.8926L6.46553 10.9122L5.3189 13.3927C5.1456 13.7675 5.30903 14.2119 5.68391 14.3852C6.0588 14.5585 6.50319 14.3951 6.67649 14.0202L7.93426 11.2993C8.02648 11.0998 8.02334 10.8806 7.94371 10.6931L7.85518 9.20179L9.30934 10.718C9.32319 10.7325 9.33749 10.7463 9.35219 10.7593L9.88058 13.4312C9.95362 13.8005 10.3122 14.0407 10.6816 13.9677C11.0509 13.8946 11.2911 13.536 11.2181 13.1667L10.6215 10.1502C10.6068 10.0759 10.5805 10.0068 10.5449 9.94442C10.5106 9.85136 10.4569 9.76369 10.3839 9.68752L8.78463 8.02L8.97928 6.72338L9.06034 6.85532C9.10287 6.92456 9.16053 6.98326 9.22899 7.02703L10.5721 7.8857C10.8225 8.04577 11.1553 7.97256 11.3153 7.72217C11.4754 7.47179 11.4022 7.13905 11.1518 6.97898L9.91268 6.18681L9.00306 4.7061C8.96223 4.63964 8.90929 4.58517 8.84882 4.54378Z" fill="#858585"/>
</svg>
