<?xml version="1.0" encoding="UTF-8" standalone="no"?>
<svg
   xmlns:dc="http://purl.org/dc/elements/1.1/"
   xmlns:cc="http://creativecommons.org/ns#"
   xmlns:rdf="http://www.w3.org/1999/02/22-rdf-syntax-ns#"
   xmlns:svg="http://www.w3.org/2000/svg"
   xmlns="http://www.w3.org/2000/svg"
   xmlns:sodipodi="http://sodipodi.sourceforge.net/DTD/sodipodi-0.dtd"
   xmlns:inkscape="http://www.inkscape.org/namespaces/inkscape"
   width="580"
   height="580"
   id="svg2"
   version="1.1"
   inkscape:version="0.48.4 r9939"
   sodipodi:docname="oneway_reverse_blue.svg">
  <defs
     id="defs13" />
  <sodipodi:namedview
     pagecolor="#ffffff"
     bordercolor="#666666"
     borderopacity="1"
     objecttolerance="10"
     gridtolerance="10"
     guidetolerance="10"
     inkscape:pageopacity="0"
     inkscape:pageshadow="2"
     inkscape:window-width="1324"
     inkscape:window-height="739"
     id="namedview11"
     showgrid="false"
     inkscape:zoom="0.57543862"
     inkscape:cx="-130.17604"
     inkscape:cy="309.66544"
     inkscape:window-x="42"
     inkscape:window-y="1024"
     inkscape:window-maximized="1"
     inkscape:current-layer="svg2" />
  <metadata
     id="metadata2975">image/svg+xmlen<rdf:RDF>
  <cc:Work
     rdf:about="">
    <dc:format>image/svg+xml</dc:format>
    <dc:type
       rdf:resource="http://purl.org/dc/dcmitype/StillImage" />
    <dc:title />
  </cc:Work>
</rdf:RDF>
</metadata>
  <path
     sodipodi:type="inkscape:offset"
     inkscape:radius="36.28643"
     inkscape:original="M 290.8125 103.75 L 183.90625 284.625 L 251.96875 284.6875 L 251.96875 476.21875 L 327.8125 476.21875 L 327.8125 284.71875 L 396.125 284.75 L 290.8125 103.75 z "
     style="color:#000000;fill:#fefefe;fill-opacity:0.81960785;fill-rule:nonzero;stroke:none;stroke-width:30.54599952999999957;marker:none;visibility:visible;display:inline;overflow:visible;enable-background:accumulate"
     id="path3769"
     d="M 292.40625,67.5 A 36.290059,36.290059 0 0 0 259.5625,85.28125 l -106.90625,180.875 a 36.290059,36.290059 0 0 0 31.21875,54.75 l 31.8125,0.0312 0,155.28125 A 36.290059,36.290059 0 0 0 251.96875,512.5 l 75.84375,0 a 36.290059,36.290059 0 0 0 36.28125,-36.28125 l 0,-155.1875 32,0 A 36.290059,36.290059 0 0 0 427.5,266.5 L 322.1875,85.5 a 36.290059,36.290059 0 0 0 -29.78125,-18 z"
     transform="matrix(-1,0,0,-1,580.02804,579.96438)" />
  <path
     style="color:#000000;fill:#4889cd;fill-opacity:1;fill-rule:nonzero;stroke:none;stroke-width:30.54599953;marker:none;visibility:visible;display:inline;overflow:visible;enable-background:accumulate"
     d="m 289.21494,476.22915 106.89634,-180.8855 -68.05259,-0.0519 0,-191.53125 -75.84375,0 0,191.5 -68.30259,-0.0519 105.30259,181.02069 z"
     id="rect2989"
     inkscape:connector-curvature="0"
     sodipodi:nodetypes="ccccccccc" />
</svg>
