<svg width="580" height="580" viewBox="0 0 580 580" fill="none" xmlns="http://www.w3.org/2000/svg">
<path opacity="0.802372" d="M293.12 578.809C284.588 579.187 276.114 577.239 268.603 573.173C261.093 569.107 254.829 563.076 250.482 555.726L111.696 320.913C107.47 313.761 105.21 305.618 105.146 297.311C105.082 289.004 107.216 280.828 111.331 273.612C115.446 266.395 121.396 260.395 128.577 256.22C135.759 252.044 143.917 249.842 152.224 249.836L193.523 249.795V48.2086C193.526 35.7177 198.489 23.7392 207.322 14.9068C216.154 6.07442 228.133 1.11109 240.624 1.10805H339.084C351.575 1.11109 363.554 6.07443 372.386 14.9068C381.218 23.7392 386.182 35.7177 386.185 48.2086V249.674H427.727C436.013 249.666 444.155 251.844 451.33 255.987C458.505 260.13 464.461 266.093 468.597 273.273C472.732 280.453 474.9 288.597 474.883 296.883C474.866 305.169 472.664 313.303 468.499 320.466L331.782 555.442C327.811 562.264 322.19 567.979 315.434 572.062C308.679 576.145 301.006 578.465 293.12 578.809V578.809Z" fill="#FEFEFE"/>
<path d="M291.051 531.769L152.278 296.943L240.624 296.875V48.2285H339.085V296.835L427.756 296.767L291.051 531.769V531.769Z" fill="#4889CD"/>
</svg>
