<?xml version="1.0"?>
<svg width="580" height="580" xmlns="http://www.w3.org/2000/svg">
 <metadata id="metadata2975">image/svg+xmlen</metadata>
 <g>
  <title>Layer 1</title>
  <g transform="matrix(4.07039 0 0 4.07039 -1083.79 -1381.86)" id="g3757">
   <path stroke="#FF6600" stroke-miterlimit="4" stroke-width="5" fill="none" d="m348.782074,372.602844c-6.887421,14.602661 -13.787262,29.199432 -20.71875,43.78125c-3.839661,-5.299469 -7.704529,-10.580566 -11.59375,-15.84375c-11.918549,19.075684 -23.721313,38.223633 -35.71875,57.25c37.437469,0.317505 74.875092,0.614807 112.3125,0.9375c-14.106293,-30.013123 -28.296295,-59.986847 -42.46875,-89.96875c-0.604187,1.28125 -1.208344,2.5625 -1.8125,3.84375z" id="path3734"/>
   <path fill-rule="nonzero" stroke-width="5" fill="#FF6600" d="m350.59375,362.90625l-2.25,4.78125l-1.8125,3.84375c-6.292511,13.341339 -12.610352,26.677063 -18.9375,40c-3.031097,-4.16568 -6.063416,-8.325592 -9.125,-12.46875l-2.1875,-2.96875l-1.9375,3.125c-11.923889,19.084259 -23.730377,38.238007 -35.71875,57.25l-2.375,3.78125l4.46875,0.031189c37.438354,0.317535 74.876221,0.614838 112.3125,0.9375l4,0.031219l-1.71875,-3.59375c-14.108276,-30.017151 -28.296692,-59.98764 -42.46875,-89.968658l-2.25,-4.78125zm0,42.34375c0.757172,0.002014 1.504944,0.37027 1.96875,0.96875c2.236084,2.816589 4.412476,5.119263 5.28125,5.46875c0.434387,0.174805 0.328308,0.20285 0.78125,-0.093689c0.452942,-0.2966 1.367462,-1.255127 2.375,-3.21875c0.424805,-0.817688 1.328644,-1.356659 2.25,-1.34375c0.921356,0.012878 1.816956,0.576996 2.21875,1.40625l20.375,43.125c0.742523,1.526398 -0.583984,3.616028 -2.28125,3.59375l-92.0625,-0.781311c-0.879059,-0.012085 -1.733063,-0.510681 -2.15625,-1.28125c-0.423157,-0.770569 -0.398987,-1.78299 0.0625,-2.53125l18.125,-29.09375c0.786407,-1.26886 2.808716,-1.513489 3.875,-0.46875c1.615601,1.601776 3.014374,2.449585 4.6875,2.5625c1.673126,0.112915 4.017151,-0.513855 7.46875,-3.0625c1.058563,-0.798157 2.754364,-0.54303 3.53125,0.53125l1.59375,2.1875l6.5625,-13.875c0.383789,-0.838654 1.265747,-1.436554 2.1875,-1.46875c0.921753,-0.032196 1.839813,0.502686 2.28125,1.3125c0.649445,1.178528 1.296387,1.835297 1.78125,2.125c0.484863,0.289642 0.798157,0.341431 1.375,0.21875c1.153687,-0.245361 3.378357,-1.826447 5.6875,-5.1875c0.449554,-0.660889 1.232056,-1.082245 2.03125,-1.09375z" id="path3744"/>
  </g>
  <g id="g4697" transform="matrix(4.07039 0 0 4.07039 -1083.79 -1381.86)">
   <path stroke-miterlimit="4" stroke-width="5" stroke="#FF6600" id="path4699" d="m348.782074,372.602844c-6.887421,14.602661 -13.787262,29.199432 -20.71875,43.78125c-3.839661,-5.299469 -7.704529,-10.580566 -11.59375,-15.84375c-11.918549,19.075684 -23.721313,38.223633 -35.71875,57.25c37.437469,0.317505 74.875092,0.614807 112.3125,0.9375c-14.106293,-30.013123 -28.296295,-59.986847 -42.46875,-89.96875c-0.604187,1.28125 -1.208344,2.5625 -1.8125,3.84375z" fill="none"/>
   <path fill-rule="nonzero" stroke-width="5" opacity="0.25" id="path4701" d="m350.59375,362.90625l-2.25,4.78125l-1.8125,3.84375c-6.292511,13.341339 -12.610352,26.677063 -18.9375,40c-3.031097,-4.16568 -6.063416,-8.325592 -9.125,-12.46875l-2.1875,-2.96875l-1.9375,3.125c-11.923889,19.084259 -23.730377,38.238007 -35.71875,57.25l-2.375,3.78125l4.46875,0.031189c37.438354,0.317535 74.876221,0.614838 112.3125,0.9375l4,0.031219l-1.71875,-3.59375c-14.108276,-30.017151 -28.296692,-59.98764 -42.46875,-89.968658l-2.25,-4.78125z" fill="#FF6600"/>
  </g>
 </g>
</svg>