<?xml version="1.0" encoding="UTF-8" standalone="no"?>
<svg
   xmlns:dc="http://purl.org/dc/elements/1.1/"
   xmlns:cc="http://creativecommons.org/ns#"
   xmlns:rdf="http://www.w3.org/1999/02/22-rdf-syntax-ns#"
   xmlns:svg="http://www.w3.org/2000/svg"
   xmlns="http://www.w3.org/2000/svg"
   xmlns:sodipodi="http://sodipodi.sourceforge.net/DTD/sodipodi-0.dtd"
   xmlns:inkscape="http://www.inkscape.org/namespaces/inkscape"
   width="580"
   height="580"
   id="svg2"
   version="1.1"
   inkscape:version="0.48.4 r9939"
   sodipodi:docname="point_red_4.svg">
  <defs
     id="defs13" />
  <sodipodi:namedview
     pagecolor="#ffffff"
     bordercolor="#666666"
     borderopacity="1"
     objecttolerance="10"
     gridtolerance="10"
     guidetolerance="10"
     inkscape:pageopacity="0"
     inkscape:pageshadow="2"
     inkscape:window-width="1326"
     inkscape:window-height="739"
     id="namedview11"
     showgrid="false"
     inkscape:zoom="0.8137931"
     inkscape:cx="265.6342"
     inkscape:cy="270.3865"
     inkscape:window-x="40"
     inkscape:window-y="1024"
     inkscape:window-maximized="1"
     inkscape:current-layer="svg2" />
  <metadata
     id="metadata2975">image/svg+xmlen<rdf:RDF>
  <cc:Work
     rdf:about="">
    <dc:format>image/svg+xml</dc:format>
    <dc:type
       rdf:resource="http://purl.org/dc/dcmitype/StillImage" />
    <dc:title />
  </cc:Work>
</rdf:RDF>
</metadata>
  <g
     id="g1327" />
  <circle
     style="fill:#fefefe;fill-opacity:0.28627452;stroke:none;stroke-width:2.91442656999999983;stroke-opacity:1"
     sodipodi:ry="70.347656"
     sodipodi:rx="70.347656"
     sodipodi:cy="290"
     sodipodi:cx="290"
     d="m 360.34766,290 c 0,38.85194 -31.49572,70.34766 -70.34766,70.34766 -38.85194,0 -70.34766,-31.49572 -70.34766,-70.34766 0,-38.85194 31.49572,-70.34766 70.34766,-70.34766 38.85194,0 70.34766,31.49572 70.34766,70.34766 z"
     cx="290"
     cy="290"
     r="70.347656"
     id="svg_1-6"
     transform="matrix(0.9631828,0,0,0.9631828,10.67699,10.67699)" />
  <circle
     style="fill:#cb0f0f;fill-opacity:1;stroke:#cb0f0f;stroke-width:5;stroke-opacity:1"
     sodipodi:ry="70.347656"
     sodipodi:rx="70.347656"
     sodipodi:cy="290"
     sodipodi:cx="290"
     d="m 360.34766,290 c 0,38.85194 -31.49572,70.34766 -70.34766,70.34766 -38.85194,0 -70.34766,-31.49572 -70.34766,-70.34766 0,-38.85194 31.49572,-70.34766 70.34766,-70.34766 38.85194,0 70.34766,31.49572 70.34766,70.34766 z"
     cx="290"
     cy="290"
     r="70.347656"
     id="svg_1"
     transform="matrix(0.56142511,0,0,0.56142511,127.18672,127.18672)" />
</svg>
