<svg width="28" height="28" viewBox="0 0 28 28" fill="none" xmlns="http://www.w3.org/2000/svg">
<path d="M25 14V24C25 24.5523 24.5523 25 24 25H4C3.44772 25 3 24.5523 3 24V14C3 7.92487 7.92487 3 14 3C20.0751 3 25 7.92487 25 14Z" fill="white" stroke="#0092DE" stroke-width="2"/>
<path fill-rule="evenodd" clip-rule="evenodd" d="M12 8C9.79086 8 8 9.79086 8 12V18C8 19.1046 8.89543 20 10 20H18C19.1046 20 20 19.1046 20 18V12C20 9.79086 18.2091 8 16 8H12ZM10 12C10 10.8954 10.8954 10 12 10H16C17.1046 10 18 10.8954 18 12V14H10V12ZM12 17C12 17.5523 11.5523 18 11 18C10.4477 18 10 17.5523 10 17C10 16.4477 10.4477 16 11 16C11.5523 16 12 16.4477 12 17ZM18 17C18 17.5523 17.5523 18 17 18C16.4477 18 16 17.5523 16 17C16 16.4477 16.4477 16 17 16C17.5523 16 18 16.4477 18 17Z" fill="#0092DE"/>
<path opacity="0.75" fill-rule="evenodd" clip-rule="evenodd" d="M9 22L10 20H12L11 22H9ZM19 22L18 20H16L17 22H19Z" fill="#0092DE"/>
</svg>
