<svg width="28" height="28" viewBox="0 0 28 28" fill="none" xmlns="http://www.w3.org/2000/svg">
<g opacity="0.75">
<mask id="path-1-outside-1" maskUnits="userSpaceOnUse" x="2" y="2" width="24" height="24" fill="black">
<rect fill="white" x="2" y="2" width="24" height="24"/>
<path fill-rule="evenodd" clip-rule="evenodd" d="M4.80232 5.77914L4 13V18C4 19.1046 4.89543 20 6 20H24V13.5L23.2593 13.0371C21.1613 11.7258 19.6238 9.68327 18.9441 7.30432L18.4144 5.45056C18.1691 4.59196 17.3844 4 16.4914 4H6.79009C5.77099 4 4.91486 4.76627 4.80232 5.77914ZM6 22V24H8C9.31526 23.3424 10.7656 23 12.2361 23H14V24H16C17.3153 23.3424 18.7656 23 20.2361 23H22V22H14H6Z"/>
</mask>
<path fill-rule="evenodd" clip-rule="evenodd" d="M4.80232 5.77914L4 13V18C4 19.1046 4.89543 20 6 20H24V13.5L23.2593 13.0371C21.1613 11.7258 19.6238 9.68327 18.9441 7.30432L18.4144 5.45056C18.1691 4.59196 17.3844 4 16.4914 4H6.79009C5.77099 4 4.91486 4.76627 4.80232 5.77914ZM6 22V24H8C9.31526 23.3424 10.7656 23 12.2361 23H14V24H16C17.3153 23.3424 18.7656 23 20.2361 23H22V22H14H6Z" fill="white"/>
<path d="M4 13L2.01223 12.7791L2 12.8892V13H4ZM4.80232 5.77914L2.81455 5.55827L4.80232 5.77914ZM24 20V22H26V20H24ZM24 13.5H26V12.3915L25.06 11.804L24 13.5ZM23.2593 13.0371L22.1993 14.7331L22.1993 14.7331L23.2593 13.0371ZM18.9441 7.30432L20.8671 6.75487L20.8671 6.75487L18.9441 7.30432ZM18.4144 5.45056L16.4914 6L16.4914 6L18.4144 5.45056ZM6 24H4V26H6V24ZM6 22V20H4V22H6ZM8 24V26H8.47214L8.89443 25.7889L8 24ZM14 23H16V21H14V23ZM14 24H12V26H14V24ZM16 24V26H16.4721L16.8944 25.7889L16 24ZM22 23V25H24V23H22ZM22 22H24V20H22V22ZM5.98777 13.2209L6.79009 6L2.81455 5.55827L2.01223 12.7791L5.98777 13.2209ZM6 18V13H2V18H6ZM6 18H2C2 20.2091 3.79086 22 6 22V18ZM24 18H6V22H24V18ZM22 13.5V20H26V13.5H22ZM22.1993 14.7331L22.94 15.196L25.06 11.804L24.3193 11.3411L22.1993 14.7331ZM17.021 7.85376C17.8367 10.7085 19.6817 13.1595 22.1993 14.7331L24.3193 11.3411C22.6409 10.2921 21.4109 8.65804 20.8671 6.75487L17.021 7.85376ZM16.4914 6L17.021 7.85376L20.8671 6.75487L20.3375 4.90112L16.4914 6ZM16.4914 6L16.4914 6L20.3375 4.90112C19.8469 3.18391 18.2773 2 16.4914 2V6ZM6.79009 6H16.4914V2H6.79009V6ZM6.79009 6L6.79009 6V2C4.75189 2 3.03963 3.53254 2.81455 5.55827L6.79009 6ZM8 24V22H4V24H8ZM8 22H6V26H8V22ZM12.2361 21C10.4551 21 8.69854 21.4147 7.10557 22.2111L8.89443 25.7889C9.93197 25.2701 11.0761 25 12.2361 25V21ZM14 21H12.2361V25H14V21ZM12 23V24H16V23H12ZM14 26H16V22H14V26ZM16.8944 25.7889C17.932 25.2701 19.0761 25 20.2361 25V21C18.4551 21 16.6985 21.4147 15.1056 22.2111L16.8944 25.7889ZM20.2361 25H22V21H20.2361V25ZM24 23V22H20V23H24ZM22 20H14V24H22V20ZM6 24H14V20H6V24Z" fill="white" mask="url(#path-1-outside-1)"/>
</g>
<path fill-rule="evenodd" clip-rule="evenodd" d="M17 12H6.12342L6.79009 6L16.4914 6L16.9682 7.66889L16.5 7L17 12ZM24 13.5L23.2593 13.0371C21.1613 11.7258 19.6238 9.68327 18.9441 7.30432L18.4144 5.45056C18.1691 4.59196 17.3844 4 16.4914 4H6.79009C5.77099 4 4.91486 4.76627 4.80232 5.77914L4 13V18C4 19.1046 4.89543 20 6 20H22H24V18V13.5ZM6 24V22H14H22V23H20.2361C18.7656 23 17.3153 23.3424 16 24H14V23H12.2361C10.7656 23 9.31526 23.3424 8 24H6ZM8 15C8 15.5523 7.55228 16 7 16C6.44772 16 6 15.5523 6 15C6 14.4477 6.44772 14 7 14C7.55228 14 8 14.4477 8 15ZM16 15C16 15.5523 15.5523 16 15 16C14.4477 16 14 15.5523 14 15C14 14.4477 14.4477 14 15 14C15.5523 14 16 14.4477 16 15Z" fill="#0092DA"/>
</svg>
