<?xml version="1.0" encoding="UTF-8" standalone="no"?>
<svg
   xmlns:dc="http://purl.org/dc/elements/1.1/"
   xmlns:cc="http://creativecommons.org/ns#"
   xmlns:rdf="http://www.w3.org/1999/02/22-rdf-syntax-ns#"
   xmlns:svg="http://www.w3.org/2000/svg"
   xmlns="http://www.w3.org/2000/svg"
   xmlns:sodipodi="http://sodipodi.sourceforge.net/DTD/sodipodi-0.dtd"
   xmlns:inkscape="http://www.inkscape.org/namespaces/inkscape"
   width="14"
   height="14"
   viewBox="0 0 14 14"
   fill="none"
   version="1.1"
   id="svg14"
   sodipodi:docname="railway_station_subway_small.svg"
   inkscape:version="0.92.3 (2405546, 2018-03-11)">
  <metadata
     id="metadata20">
    <rdf:RDF>
      <cc:Work
         rdf:about="">
        <dc:format>image/svg+xml</dc:format>
        <dc:type
           rdf:resource="http://purl.org/dc/dcmitype/StillImage" />
      </cc:Work>
    </rdf:RDF>
  </metadata>
  <defs
     id="defs18" />
  <sodipodi:namedview
     pagecolor="#ffffff"
     bordercolor="#666666"
     borderopacity="1"
     objecttolerance="10"
     gridtolerance="10"
     guidetolerance="10"
     inkscape:pageopacity="0"
     inkscape:pageshadow="2"
     inkscape:window-width="1920"
     inkscape:window-height="1006"
     id="namedview16"
     showgrid="false"
     inkscape:zoom="16.857143"
     inkscape:cx="6.7627119"
     inkscape:cy="9.4915254"
     inkscape:window-x="1920"
     inkscape:window-y="0"
     inkscape:window-maximized="1"
     inkscape:current-layer="svg14" />
  <path
     d="M2 7C2 4.23858 4.23858 2 7 2C9.76142 2 12 4.23858 12 7V10C12 11.1046 11.1046 12 10 12H4C2.89543 12 2 11.1046 2 10V7Z"
     fill="white"
     id="path2"
     style="fill:#fefefe;fill-opacity:1" />
  <path
     fill-rule="evenodd"
     clip-rule="evenodd"
     d="M11 11V7C11 4.79086 9.20914 3 7 3C4.79086 3 3 4.79086 3 7V11H11ZM7 2C4.23858 2 2 4.23858 2 7V11C2 11.5523 2.44772 12 3 12H11C11.5523 12 12 11.5523 12 11V7C12 4.23858 9.76142 2 7 2Z"
     fill="#0092DE"
     id="path4" />
  <path
     fill-rule="evenodd"
     clip-rule="evenodd"
     d="M6 4C4.89543 4 4 4.89543 4 6V9C4 9.55228 4.44772 10 5 10H9C9.55228 10 10 9.55228 10 9V6C10 4.89543 9.10457 4 8 4H6ZM5 6C5 5.44772 5.44772 5 6 5H8C8.55228 5 9 5.44772 9 6V7H5V6ZM6 8.5C6 8.77614 5.77614 9 5.5 9C5.22386 9 5 8.77614 5 8.5C5 8.22386 5.22386 8 5.5 8C5.77614 8 6 8.22386 6 8.5ZM9 8.5C9 8.77614 8.77614 9 8.5 9C8.22386 9 8 8.77614 8 8.5C8 8.22386 8.22386 8 8.5 8C8.77614 8 9 8.22386 9 8.5Z"
     fill="#0092DE"
     id="path6" />
  <g
     opacity="0.5"
     id="g12">
    <path
       fill-rule="evenodd"
       clip-rule="evenodd"
       d="M4.5 11L5 10H6L5.5 11H4.5ZM9.5 11L9 10H8L8.5 11H9.5Z"
       fill="#0092DE"
       id="path8" />
    <path
       fill-rule="evenodd"
       clip-rule="evenodd"
       d="M4.5 11L5 10H6L5.5 11H4.5ZM9.5 11L9 10H8L8.5 11H9.5Z"
       fill="#0092DE"
       id="path10" />
  </g>
</svg>
