<svg width="28" height="28" viewBox="0 0 28 28" fill="none" xmlns="http://www.w3.org/2000/svg">
<path opacity="0.7" fill-rule="evenodd" clip-rule="evenodd" d="M26 12.3915L25.0599 11.804L24.3193 11.3411C22.641 10.2921 21.4109 8.658 20.8671 6.75488L20.3375 4.90115C19.8468 3.18402 18.2774 2 16.4914 2H6.79009C4.7519 2 3.03963 3.53254 2.81455 5.55828L2 12.8892V18C2 19.4806 2.8044 20.7733 4 21.4649V26H8.47212L8.89439 25.7889C9.86151 25.3053 10.9212 25.0378 12 25.0037V26H16.4721L16.8944 25.7889C17.932 25.2701 19.0761 25 20.2361 25H24V22H26V12.3915Z" fill="white"/>
<path fill-rule="evenodd" clip-rule="evenodd" d="M17 12H6.12342L6.79009 6H16.4914L16.5 7L17 12ZM24 13.5L23.2593 13.0371C21.1613 11.7258 19.6238 9.68327 18.9441 7.30432L18.4144 5.45056C18.1691 4.59196 17.3844 4 16.4914 4H6.79009C5.77099 4 4.91486 4.76627 4.80232 5.77914L4 13V18C4 19.1046 4.89543 20 6 20H22H24V18V13.5ZM6 24V22H14H22V23H20.2361C18.7656 23 17.3153 23.3424 16 24H14V23H12.2361C10.7656 23 9.31526 23.3424 8 24H6ZM8 15C8 15.5523 7.55228 16 7 16C6.44772 16 6 15.5523 6 15C6 14.4477 6.44772 14 7 14C7.55228 14 8 14.4477 8 15ZM16 15C16 15.5523 15.5523 16 15 16C14.4477 16 14 15.5523 14 15C14 14.4477 14.4477 14 15 14C15.5523 14 16 14.4477 16 15Z" fill="#8A8A8A"/>
</svg>
