<?xml version="1.0" encoding="UTF-8" standalone="no"?>
<svg
   xmlns:dc="http://purl.org/dc/elements/1.1/"
   xmlns:cc="http://creativecommons.org/ns#"
   xmlns:rdf="http://www.w3.org/1999/02/22-rdf-syntax-ns#"
   xmlns:svg="http://www.w3.org/2000/svg"
   xmlns="http://www.w3.org/2000/svg"
   xmlns:sodipodi="http://sodipodi.sourceforge.net/DTD/sodipodi-0.dtd"
   xmlns:inkscape="http://www.inkscape.org/namespaces/inkscape"
   width="580"
   height="580"
   id="svg2"
   version="1.1"
   inkscape:version="0.48.4 r9939"
   sodipodi:docname="rune_stone.svg">
  <defs
     id="defs13" />
  <sodipodi:namedview
     pagecolor="#ffffff"
     bordercolor="#666666"
     borderopacity="1"
     objecttolerance="10"
     gridtolerance="10"
     guidetolerance="10"
     inkscape:pageopacity="0"
     inkscape:pageshadow="2"
     inkscape:window-width="1280"
     inkscape:window-height="995"
     id="namedview11"
     showgrid="false"
     inkscape:zoom="0.40689655"
     inkscape:cx="-102.22412"
     inkscape:cy="354.22835"
     inkscape:window-x="0"
     inkscape:window-y="0"
     inkscape:window-maximized="1"
     inkscape:current-layer="g5" />
  <metadata
     id="metadata2975">image/svg+xmlen<rdf:RDF>
  <cc:Work
     rdf:about="">
    <dc:format>image/svg+xml</dc:format>
    <dc:type
       rdf:resource="http://purl.org/dc/dcmitype/StillImage" />
    <dc:title></dc:title>
  </cc:Work>
</rdf:RDF>
</metadata>
  <g
     id="g5"
     style="fill:#2f2f2f;fill-opacity:1;stroke:#fefefe;stroke-width:65.80000305;stroke-linecap:butt;stroke-linejoin:round;stroke-miterlimit:4;stroke-opacity:0.68181817;stroke-dasharray:none"
     transform="translate(7.413675,0)">
    <title
       id="title7">Layer 1</title>
    <path
       style="opacity:0.464;fill:#fefefe;fill-opacity:0;stroke:none"
       d="m 65.271578,90.001547 62.484242,-60.510021 147.72293,-6.405653 67.31943,76.448023 33.83604,74.386884 14.4476,169.69977 32.24731,7.46021 76.48461,39.32203 41.56883,37.28607 -25.17259,76.21202 -66.80317,24.63803 -217.85992,11.2084 -173.226532,-62.037 -26.85924,-230.0863 z"
       id="path3759"
       inkscape:connector-curvature="0"
       sodipodi:nodetypes="ccccccccccccccc" />
    <path
       style="fill:#4b4b4b;fill-opacity:1;stroke:none"
       d="m 336.03919,386.94399 80.80792,1.7378 69.5122,26.06707 23.46036,20.85367 c 0,0 -7.82013,36.49389 -14.77135,39.9695 -6.95122,3.47561 -43.44511,16.50915 -43.44511,16.50915 l -198.97865,0 83.41462,-77.33232 z"
       id="path3757"
       inkscape:connector-curvature="0"
       sodipodi:nodetypes="ccccscccc" />
    <g
       id="g1327"
       style="fill:#2f2f2f;fill-opacity:1;stroke:#fefefe;stroke-width:65.80000305;stroke-linecap:butt;stroke-linejoin:round;stroke-miterlimit:4;stroke-opacity:0.68181817;stroke-dasharray:none" />
    <path
       style="fill:#939393;fill-opacity:1;fill-rule:evenodd;stroke:none"
       d="m 254.97562,60.955509 -106.16179,4.704947 -37.87528,40.716134 c -27.546902,53.49283 -22.374043,96.23453 -23.648069,138.15991 -1.754457,57.73526 1.847762,116.86716 13.599329,213.34346 l 141.32469,37.25457 c 0,0 66.84276,5.9295 89.64253,-37.93598 35.3946,-68.0972 10.49926,-271.55479 10.49926,-271.55479 L 309.9728,135.83062 C 288.01661,108.79049 294.01445,120.27404 254.97562,60.955509 z"
       id="path4355"
       inkscape:connector-curvature="0"
       sodipodi:nodetypes="cccsccsccc" />
    <path
       style="color:#000000;fill:none;stroke:#434343;stroke-width:35.77569199;stroke-linecap:round;stroke-linejoin:round;stroke-miterlimit:4;stroke-opacity:1;stroke-dasharray:none;stroke-dashoffset:0;marker:none;visibility:visible;display:inline;overflow:visible;enable-background:accumulate"
       d="m 204.82155,194.11355 c 7.54892,15.26959 9.46272,43.3103 -21.35449,43.04534 -16.73726,-0.14391 -41.42808,-17.92128 -32.95856,-59.73842 11.642,-57.48085 100.11869,-69.52063 138.01869,26.25776 14.54296,36.75203 40.46981,164.86659 -21.982,215.32486 -52.90493,42.74482 -140.37101,-8.07162 -138.3752,-65.00801 1.81929,-51.90045 28.52128,-70.78198 62.95889,-74.46607 53.93104,-5.76948 72.92431,63.80257 35.47319,82.76979 -36.22797,18.34776 -45.31379,-9.59857 -49.43101,-18.98618"
       id="path3764"
       inkscape:connector-curvature="0"
       sodipodi:nodetypes="csssssssc" />
  </g>
</svg>
