<?xml version="1.0" encoding="UTF-8" standalone="no"?>
<svg
   xmlns:dc="http://purl.org/dc/elements/1.1/"
   xmlns:cc="http://creativecommons.org/ns#"
   xmlns:rdf="http://www.w3.org/1999/02/22-rdf-syntax-ns#"
   xmlns:svg="http://www.w3.org/2000/svg"
   xmlns="http://www.w3.org/2000/svg"
   xmlns:sodipodi="http://sodipodi.sourceforge.net/DTD/sodipodi-0.dtd"
   xmlns:inkscape="http://www.inkscape.org/namespaces/inkscape"
   width="580"
   height="580"
   id="svg2"
   version="1.1"
   inkscape:version="0.48.4 r9939"
   sodipodi:docname="stub_emergency.svg">
  <defs
     id="defs13" />
  <sodipodi:namedview
     pagecolor="#ffffff"
     bordercolor="#666666"
     borderopacity="1"
     objecttolerance="10"
     gridtolerance="10"
     guidetolerance="10"
     inkscape:pageopacity="0"
     inkscape:pageshadow="2"
     inkscape:window-width="1920"
     inkscape:window-height="1004"
     id="namedview11"
     showgrid="false"
     inkscape:zoom="0.40689655"
     inkscape:cx="-140.86962"
     inkscape:cy="332.98315"
     inkscape:window-x="1680"
     inkscape:window-y="0"
     inkscape:window-maximized="1"
     inkscape:current-layer="svg2" />
  <metadata
     id="metadata2975">image/svg+xmlen<rdf:RDF>
  <cc:Work
     rdf:about="">
    <dc:format>image/svg+xml</dc:format>
    <dc:type
       rdf:resource="http://purl.org/dc/dcmitype/StillImage" />
    <dc:title></dc:title>
  </cc:Work>
</rdf:RDF>
</metadata>
  <g
     transform="matrix(0.98775625,0,0,1.1433262,1.474856,-70.187513)"
     style="font-size:360px;font-style:normal;font-weight:normal;line-height:125%;letter-spacing:0px;word-spacing:0px;fill:#6c003d;fill-opacity:1;stroke:none;font-family:Sans"
     id="flowRoot2989">
    <path
       d="m 26.320312,183.63829 241.874998,0 0,51.15235 -87.01172,0 0,211.28906 -67.67578,0 0,-211.28906 -87.187498,0 0,-51.15235"
       style="font-weight:bold;fill:#6c003d;-inkscape-font-specification:Sans Bold"
       id="path4057" />
    <path
       d="m 422.88281,227.93517 c -20.62513,2.1e-4 -36.62121,7.61739 -47.98828,22.85156 -11.36728,15.23455 -17.05087,36.67985 -17.05078,64.33594 -9e-5,27.53916 5.6835,48.92586 17.05078,64.16015 11.36707,15.23443 27.36315,22.85161 47.98828,22.85157 20.74202,4e-5 36.79669,-7.61714 48.16406,-22.85157 11.36698,-15.23429 17.05057,-36.62099 17.05079,-64.16015 -2.2e-4,-27.65609 -5.68381,-49.10139 -17.05079,-64.33594 -11.36737,-15.23417 -27.42204,-22.85135 -48.16406,-22.85156 m 0,-49.04297 c 42.18731,2.7e-4 75.23415,12.07057 99.14063,36.21094 23.90597,24.14083 35.85908,57.48064 35.85937,100.01953 -2.9e-4,42.42196 -11.9534,75.70318 -35.85937,99.84375 -23.90648,24.14063 -56.95332,36.21093 -99.14063,36.21093 -42.07042,0 -75.11726,-12.0703 -99.14062,-36.21093 -23.90628,-24.14057 -35.8594,-57.42179 -35.85938,-99.84375 -2e-5,-42.53889 11.9531,-75.8787 35.85938,-100.01953 24.02336,-24.14037 57.0702,-36.21067 99.14062,-36.21094"
       style="font-weight:bold;fill:#6c003d;-inkscape-font-specification:Sans Bold"
       id="path4059" />
  </g>
</svg>
