<?xml version="1.0" encoding="UTF-8" standalone="no"?>
<svg
   xmlns:dc="http://purl.org/dc/elements/1.1/"
   xmlns:cc="http://creativecommons.org/ns#"
   xmlns:rdf="http://www.w3.org/1999/02/22-rdf-syntax-ns#"
   xmlns:svg="http://www.w3.org/2000/svg"
   xmlns="http://www.w3.org/2000/svg"
   xmlns:sodipodi="http://sodipodi.sourceforge.net/DTD/sodipodi-0.dtd"
   xmlns:inkscape="http://www.inkscape.org/namespaces/inkscape"
   width="580"
   height="580"
   id="svg2"
   version="1.1"
   inkscape:version="0.48.4 r9939"
   sodipodi:docname="stub_historic.svg">
  <defs
     id="defs13" />
  <sodipodi:namedview
     pagecolor="#ffffff"
     bordercolor="#666666"
     borderopacity="1"
     objecttolerance="10"
     gridtolerance="10"
     guidetolerance="10"
     inkscape:pageopacity="0"
     inkscape:pageshadow="2"
     inkscape:window-width="1332"
     inkscape:window-height="739"
     id="namedview11"
     showgrid="false"
     inkscape:zoom="0.57543862"
     inkscape:cx="321.04134"
     inkscape:cy="345.72381"
     inkscape:window-x="34"
     inkscape:window-y="1024"
     inkscape:window-maximized="1"
     inkscape:current-layer="svg2" />
  <metadata
     id="metadata2975">image/svg+xmlen<rdf:RDF>
  <cc:Work
     rdf:about="">
    <dc:format>image/svg+xml</dc:format>
    <dc:type
       rdf:resource="http://purl.org/dc/dcmitype/StillImage" />
    <dc:title />
  </cc:Work>
</rdf:RDF>
</metadata>
  <path
     sodipodi:type="inkscape:offset"
     inkscape:radius="34.913254"
     inkscape:original="M 384.4375 198.25 C 370.13281 198.25018 359.19162 202.99111 351.5625 212.46875 C 343.93335 221.94672 340.09374 235.48096 340.09375 253.09375 C 340.09374 267.15262 342.82428 278.33201 348.28125 286.625 C 353.79117 294.91817 362.47616 300.95896 374.34375 304.75 L 386.1875 308.65625 C 393.39274 311.02577 398.20957 313.71751 400.59375 316.71875 C 403.03076 319.72012 404.24992 323.97133 404.25 329.5 C 404.24992 335.66062 402.45584 340.40156 398.90625 343.71875 C 395.35651 347.03602 390.23794 348.71878 383.5625 348.71875 C 376.99291 348.71878 370.1618 347.18884 363.0625 344.1875 C 356.01611 341.10725 348.70115 336.56516 341.125 330.5625 L 341.125 369.09375 C 348.70115 373.2798 356.2988 376.42999 363.875 378.5625 C 371.45111 380.695 379.00802 381.75 386.53125 381.75 C 402.47821 381.75 414.29606 377.00907 422.03125 367.53125 C 429.81923 357.97448 433.71864 343.44604 433.71875 323.9375 C 433.71864 309.089 430.93782 297.64998 425.375 289.59375 C 419.81199 281.53771 410.44198 275.51169 397.25 271.5625 L 384.21875 267.65625 C 378.02002 265.76081 373.72781 263.51277 371.34375 260.90625 C 369.01258 258.22099 367.84371 254.52029 367.84375 249.78125 C 367.84371 243.46285 369.59702 238.81395 373.09375 235.8125 C 376.5904 232.81134 382.00118 231.28139 389.3125 231.28125 C 394.82237 231.28139 400.67625 232.41366 406.875 234.625 C 413.07359 236.83663 419.42085 240.09364 425.9375 244.4375 L 425.9375 207 C 418.57317 204.07785 411.44984 201.92185 404.5625 200.5 C 397.67501 198.99953 390.954 198.25018 384.4375 198.25 z M 146.28125 201.4375 L 146.28125 378.3125 L 176.875 378.3125 L 176.875 303.34375 L 222 303.34375 L 222 378.3125 L 252.59375 378.3125 L 252.59375 201.4375 L 222 201.4375 L 222 268.84375 L 176.875 268.84375 L 176.875 201.4375 L 146.28125 201.4375 z M 282.65625 201.4375 L 282.65625 378.3125 L 313.25 378.3125 L 313.25 201.4375 L 282.65625 201.4375 z "
     style="font-size:360px;font-style:normal;font-weight:bold;line-height:125%;letter-spacing:0px;word-spacing:0px;color:#000000;fill:#fefefe;fill-opacity:0.78873243;fill-rule:nonzero;stroke:none;marker:none;visibility:visible;display:inline;overflow:visible;enable-background:accumulate;font-family:Sans;-inkscape-font-specification:Sans Bold"
     id="path3016"
     d="m 384.4375,163.34375 c -15.75819,2e-4 -32.3483,4.94841 -45.78125,14.21875 A 34.916745,34.916745 0 0 0 313.25,166.53125 l -30.59375,0 a 34.916745,34.916745 0 0 0 -15,3.4375 34.916745,34.916745 0 0 0 -15.0625,-3.4375 l -30.59375,0 a 34.916745,34.916745 0 0 0 -22.59375,8.3125 34.916745,34.916745 0 0 0 -22.53125,-8.3125 l -30.59375,0 A 34.916745,34.916745 0 0 0 111.375,201.4375 l 0,176.875 a 34.916745,34.916745 0 0 0 34.90625,34.90625 l 30.59375,0 a 34.916745,34.916745 0 0 0 22.59375,-8.3125 34.916745,34.916745 0 0 0 22.53125,8.3125 l 30.59375,0 a 34.916745,34.916745 0 0 0 15,-3.4375 34.916745,34.916745 0 0 0 15.0625,3.4375 l 30.59375,0 a 34.916745,34.916745 0 0 0 22.3125,-8.09375 c 6.18588,2.7716 12.4375,5.22805 18.84375,7.03125 10.51387,2.95941 21.33779,4.5 32.125,4.5 22.86662,0 47.41931,-8.50776 62.5625,-27.0625 15.12907,-18.56515 19.53111,-41.49545 19.53125,-65.65625 -1.4e-4,-19.20739 -3.27941,-37.89228 -14.53125,-54.1875 -0.58544,-0.84781 -1.25863,-1.59369 -1.875,-2.40625 a 34.916745,34.916745 0 0 0 8.625,-22.90625 l 0,-37.4375 A 34.916745,34.916745 0 0 0 438.8125,174.5625 C 429.8712,171.01461 420.93832,168.27597 412,166.40625 l 0,-0.0312 c -0.12471,-0.0272 -0.25026,-0.0357 -0.375,-0.0625 -9.0184,-1.93909 -18.12056,-2.9685 -27.1875,-2.96875 z M 377.3125,342.75 c 0.73816,0.46479 0.64073,0.4888 0,0 z"
     transform="matrix(1.2332509,0,0,1.2332509,-67.642755,-67.642755)" />
  <g
     transform="matrix(0.55754957,0,0,0.83118367,80.634698,28.14824)"
     style="font-size:360px;font-style:normal;font-weight:normal;line-height:125%;letter-spacing:0px;word-spacing:0px;fill:#6c003d;fill-opacity:1;stroke:none;font-family:Sans"
     id="flowRoot2989">
    <path
       d="m 57.609375,183.63829 67.675785,0 0,100.01953 99.84375,0 0,-100.01953 67.67578,0 0,262.44141 -67.67578,0 0,-111.26953 -99.84375,0 0,111.26953 -67.675785,0 0,-262.44141"
       style="font-weight:bold;fill:#6c003d;-inkscape-font-specification:Sans Bold"
       id="path3182"
       inkscape:connector-curvature="0" />
    <path
       d="m 359.25,183.63829 67.67578,0 0,262.44141 -67.67578,0 0,-262.44141"
       style="font-weight:bold;fill:#6c003d;-inkscape-font-specification:Sans Bold"
       id="path3184"
       inkscape:connector-curvature="0" />
    <path
       d="m 676.18359,191.90001 0,55.54688 c -14.41426,-6.44511 -28.47675,-11.30839 -42.1875,-14.58985 -13.71109,-3.28103 -26.6603,-4.92166 -38.84765,-4.92187 -16.172,2.1e-4 -28.12511,2.22678 -35.85938,6.67968 -7.73446,4.45334 -11.60165,11.36739 -11.60156,20.74219 -9e-5,7.03144 2.57804,12.53924 7.73437,16.52344 5.27334,3.86736 14.76552,7.2072 28.47657,10.01953 l 28.82812,5.80078 c 29.17951,5.85953 49.92168,14.76577 62.22656,26.71875 12.30447,11.95325 18.4568,28.94542 18.45704,50.97656 -2.4e-4,28.94537 -8.61351,50.50785 -25.83985,64.6875 -17.10956,14.06251 -43.30094,21.09375 -78.57422,21.09375 -16.64073,0 -33.33994,-1.58203 -50.09765,-4.74609 -16.75788,-3.16406 -33.51567,-7.85155 -50.27344,-14.0625 l 0,-57.12891 c 16.75777,8.90632 32.92963,15.64459 48.51562,20.21485 15.70304,4.45317 30.82021,6.67973 45.35157,6.67969 14.76549,4e-5 26.07407,-2.4609 33.92578,-7.38282 7.8514,-4.92182 11.77717,-11.95306 11.77734,-21.09375 -1.7e-4,-8.20304 -2.69548,-14.53116 -8.08594,-18.98437 -5.27359,-4.45303 -15.87904,-8.4374 -31.8164,-11.95313 l -26.19141,-5.80078 c -26.25007,-5.62488 -45.4688,-14.58972 -57.65625,-26.89453 -12.07034,-12.30454 -18.10549,-28.88655 -18.10547,-49.74609 -2e-5,-26.1326 8.43747,-46.23024 25.3125,-60.29297 16.87494,-14.06224 41.13272,-21.09348 72.77344,-21.09375 14.41393,2.7e-4 29.23813,1.11355 44.47266,3.33984 15.23419,2.10964 30.99589,5.33229 47.28515,9.66797"
       style="font-weight:bold;fill:#6c003d;-inkscape-font-specification:Sans Bold"
       id="path3186"
       inkscape:connector-curvature="0" />
  </g>
</svg>
