<?xml version="1.0" encoding="UTF-8" standalone="no"?>
<svg
   xmlns:dc="http://purl.org/dc/elements/1.1/"
   xmlns:cc="http://creativecommons.org/ns#"
   xmlns:rdf="http://www.w3.org/1999/02/22-rdf-syntax-ns#"
   xmlns:svg="http://www.w3.org/2000/svg"
   xmlns="http://www.w3.org/2000/svg"
   xmlns:sodipodi="http://sodipodi.sourceforge.net/DTD/sodipodi-0.dtd"
   xmlns:inkscape="http://www.inkscape.org/namespaces/inkscape"
   width="580"
   height="580"
   id="svg2"
   version="1.1"
   inkscape:version="0.48.4 r9939"
   sodipodi:docname="stub_office.svg">
  <defs
     id="defs13" />
  <sodipodi:namedview
     pagecolor="#ffffff"
     bordercolor="#666666"
     borderopacity="1"
     objecttolerance="10"
     gridtolerance="10"
     guidetolerance="10"
     inkscape:pageopacity="0"
     inkscape:pageshadow="2"
     inkscape:window-width="1332"
     inkscape:window-height="739"
     id="namedview11"
     showgrid="false"
     inkscape:zoom="0.57543862"
     inkscape:cx="135.6851"
     inkscape:cy="298.58542"
     inkscape:window-x="34"
     inkscape:window-y="1024"
     inkscape:window-maximized="1"
     inkscape:current-layer="svg2" />
  <metadata
     id="metadata2975">image/svg+xmlen<rdf:RDF>
  <cc:Work
     rdf:about="">
    <dc:format>image/svg+xml</dc:format>
    <dc:type
       rdf:resource="http://purl.org/dc/dcmitype/StillImage" />
    <dc:title />
  </cc:Work>
</rdf:RDF>
</metadata>
  <path
     sodipodi:type="inkscape:offset"
     inkscape:radius="36.270126"
     inkscape:original="M 220.40625 186.09375 C 195.33634 186.09396 175.6281 195.29393 161.3125 213.71875 C 147.06667 232.14392 139.93749 257.59525 139.9375 290.0625 C 139.93749 322.4405 147.06667 347.85628 161.3125 366.28125 C 175.6281 384.70627 195.33634 393.90625 220.40625 393.90625 C 245.5458 393.90625 265.2228 384.70627 279.46875 366.28125 C 293.7144 347.85628 300.84357 322.4405 300.84375 290.0625 C 300.84357 257.59525 293.7144 232.14392 279.46875 213.71875 C 265.2228 195.29393 245.5458 186.09396 220.40625 186.09375 z M 331.21875 189.71875 L 331.21875 390.03125 L 371.53125 390.03125 L 371.53125 305.09375 L 435.96875 305.09375 L 435.96875 266.0625 L 371.53125 266.0625 L 371.53125 228.75 L 440.0625 228.75 L 440.0625 189.71875 L 331.21875 189.71875 z M 220.40625 223.53125 C 232.76648 223.53141 242.31989 229.34147 249.09375 240.96875 C 255.86738 252.59632 259.24987 268.95436 259.25 290.0625 C 259.24987 311.0814 255.86738 327.40388 249.09375 339.03125 C 242.31989 350.65873 232.76648 356.46878 220.40625 356.46875 C 208.11566 356.46878 198.58617 350.65873 191.8125 339.03125 C 185.0387 327.40388 181.62495 311.0814 181.625 290.0625 C 181.62495 268.95436 185.0387 252.59632 191.8125 240.96875 C 198.58617 229.34147 208.11566 223.53141 220.40625 223.53125 z "
     style="font-size:360px;font-style:normal;font-weight:bold;line-height:125%;letter-spacing:0px;word-spacing:0px;color:#000000;fill:#fefefe;fill-opacity:0.78873243;fill-rule:nonzero;stroke:none;marker:none;visibility:visible;display:inline;overflow:visible;enable-background:accumulate;font-family:Sans;-inkscape-font-specification:Sans Bold"
     id="path3011"
     d="m 220.40625,149.8125 c -33.94318,2.8e-4 -67.1281,15.11494 -87.75,41.65625 a 36.273753,36.273753 0 0 0 -0.0312,0.0625 c -20.55036,26.57928 -28.96876,60.75452 -28.96875,98.53125 -1e-5,37.70212 8.43203,71.8449 28.96875,98.40625 a 36.273753,36.273753 0 0 0 0.0312,0.0625 c 20.62187,26.54156 53.80665,41.65625 87.75,41.65625 28.24552,0 55.83182,-10.58614 76.1875,-29.375 a 36.273753,36.273753 0 0 0 34.625,25.5 l 40.3125,0 a 36.273753,36.273753 0 0 0 36.28125,-36.28125 l 0,-48.65625 28.15625,0 A 36.273753,36.273753 0 0 0 472.25,305.09375 l 0,-39.03125 a 36.273753,36.273753 0 0 0 -3.4375,-15.25 36.273753,36.273753 0 0 0 7.53125,-22.0625 l 0,-39.03125 A 36.273753,36.273753 0 0 0 440.0625,153.4375 l -108.84375,0 A 36.273753,36.273753 0 0 0 296.5625,179.15625 C 276.20989,160.38646 248.63659,149.81274 220.40625,149.8125 z M 220.4375,267 c 1.35076,5.32596 2.53119,12.79659 2.53125,23.0625 -6e-5,10.24538 -1.17447,17.69021 -2.53125,23 -1.36544,-5.3138 -2.53127,-12.76756 -2.53125,-23 -2e-5,-10.25458 1.17166,-17.73262 2.53125,-23.0625 z"
     transform="matrix(1.1735481,0,0,1.1735481,-50.328935,-50.328935)" />
  <g
     transform="matrix(0.69932126,0,0,0.89569509,84.190571,7.8248977)"
     style="font-size:360px;font-style:normal;font-weight:normal;line-height:125%;letter-spacing:0px;word-spacing:0px;fill:#6c003d;fill-opacity:1;stroke:none;font-family:Sans"
     id="flowRoot2989">
    <path
       d="m 177.49219,227.93517 c -20.62513,2.1e-4 -36.62121,7.61739 -47.98828,22.85156 -11.36728,15.23455 -17.05087,36.67985 -17.05078,64.33594 -9e-5,27.53916 5.6835,48.92586 17.05078,64.16015 11.36707,15.23443 27.36315,22.85161 47.98828,22.85157 20.74201,4e-5 36.79668,-7.61714 48.16406,-22.85157 11.36698,-15.23429 17.05056,-36.62099 17.05078,-64.16015 -2.2e-4,-27.65609 -5.6838,-49.10139 -17.05078,-64.33594 -11.36738,-15.23417 -27.42205,-22.85135 -48.16406,-22.85156 m 0,-49.04297 c 42.1873,2.7e-4 75.23414,12.07057 99.14062,36.21094 23.90598,24.14083 35.85909,57.48064 35.85938,100.01953 -2.9e-4,42.42196 -11.9534,75.70318 -35.85938,99.84375 -23.90648,24.14063 -56.95332,36.21093 -99.14062,36.21093 -42.07043,0 -75.11727,-12.0703 -99.140628,-36.21093 C 54.445283,390.82585 42.49217,357.54463 42.492187,315.12267 42.49217,272.58378 54.445283,239.24397 78.351562,215.10314 102.37492,190.96277 135.42176,178.89247 177.49219,178.8922"
       style="font-weight:bold;fill:#6c003d;-inkscape-font-specification:Sans Bold"
       id="path3158"
       inkscape:connector-curvature="0" />
    <path
       d="m 363.46875,183.63829 182.63672,0 0,51.15235 -114.96094,0 0,48.86718 108.10547,0 0,51.15235 -108.10547,0 0,111.26953 -67.67578,0 0,-262.44141"
       style="font-weight:bold;fill:#6c003d;-inkscape-font-specification:Sans Bold"
       id="path3160"
       inkscape:connector-curvature="0" />
  </g>
</svg>
