<?xml version="1.0" encoding="UTF-8" standalone="no"?>
<svg
   xmlns:dc="http://purl.org/dc/elements/1.1/"
   xmlns:cc="http://creativecommons.org/ns#"
   xmlns:rdf="http://www.w3.org/1999/02/22-rdf-syntax-ns#"
   xmlns:svg="http://www.w3.org/2000/svg"
   xmlns="http://www.w3.org/2000/svg"
   xmlns:sodipodi="http://sodipodi.sourceforge.net/DTD/sodipodi-0.dtd"
   xmlns:inkscape="http://www.inkscape.org/namespaces/inkscape"
   width="580"
   height="580"
   id="svg2"
   version="1.1"
   inkscape:version="0.48.4 r9939"
   sodipodi:docname="default_icon_shop.svg">
  <defs
     id="defs13" />
  <sodipodi:namedview
     pagecolor="#ffffff"
     bordercolor="#666666"
     borderopacity="1"
     objecttolerance="10"
     gridtolerance="10"
     guidetolerance="10"
     inkscape:pageopacity="0"
     inkscape:pageshadow="2"
     inkscape:window-width="1920"
     inkscape:window-height="1004"
     id="namedview11"
     showgrid="false"
     inkscape:zoom="0.57543862"
     inkscape:cx="135.6851"
     inkscape:cy="298.58542"
     inkscape:window-x="1680"
     inkscape:window-y="0"
     inkscape:window-maximized="1"
     inkscape:current-layer="svg2" />
  <metadata
     id="metadata2975">image/svg+xmlen<rdf:RDF>
  <cc:Work
     rdf:about="">
    <dc:format>image/svg+xml</dc:format>
    <dc:type
       rdf:resource="http://purl.org/dc/dcmitype/StillImage" />
    <dc:title></dc:title>
  </cc:Work>
</rdf:RDF>
</metadata>
  <g
     transform="matrix(0.89266128,0,0,1.1433262,-2.0519212,-69.986538)"
     style="font-size:360px;font-style:normal;font-weight:normal;line-height:125%;letter-spacing:0px;word-spacing:0px;fill:#6c003d;fill-opacity:1;stroke:none;font-family:Sans"
     id="flowRoot2989">
    <path
       d="m 216.86719,398.2672 -105.82031,0 -16.699224,47.8125 -68.027344,0 97.207028,-262.44141 80.6836,0 97.20703,262.44141 -68.02735,0 -16.52343,-47.8125 m -88.94531,-48.69141 71.89453,0 -35.85938,-104.41406 -36.03515,104.41406"
       style="font-weight:bold;fill:#6c003d;-inkscape-font-specification:Sans Bold"
       id="path3089" />
    <path
       d="m 336.04687,183.63829 86.13282,0 59.76562,140.44922 60.11719,-140.44922 85.95703,0 0,262.44141 -63.98437,0 0,-191.95313 -60.46875,141.50391 -42.89063,0 -60.46875,-141.50391 0,191.95313 -64.16016,0 0,-262.44141"
       style="font-weight:bold;fill:#6c003d;-inkscape-font-specification:Sans Bold"
       id="path3091" />
  </g>
</svg>
