<?xml version="1.0" encoding="UTF-8" standalone="no"?>
<svg
   xmlns:dc="http://purl.org/dc/elements/1.1/"
   xmlns:cc="http://creativecommons.org/ns#"
   xmlns:rdf="http://www.w3.org/1999/02/22-rdf-syntax-ns#"
   xmlns:svg="http://www.w3.org/2000/svg"
   xmlns="http://www.w3.org/2000/svg"
   xmlns:sodipodi="http://sodipodi.sourceforge.net/DTD/sodipodi-0.dtd"
   xmlns:inkscape="http://www.inkscape.org/namespaces/inkscape"
   width="580"
   height="580"
   id="svg2"
   version="1.1"
   inkscape:version="0.48.4 r9939"
   sodipodi:docname="stub_amenity.svg">
  <defs
     id="defs13" />
  <sodipodi:namedview
     pagecolor="#ffffff"
     bordercolor="#666666"
     borderopacity="1"
     objecttolerance="10"
     gridtolerance="10"
     guidetolerance="10"
     inkscape:pageopacity="0"
     inkscape:pageshadow="2"
     inkscape:window-width="1137"
     inkscape:window-height="772"
     id="namedview11"
     showgrid="false"
     inkscape:zoom="0.8137931"
     inkscape:cx="342.72694"
     inkscape:cy="287.26537"
     inkscape:window-x="37"
     inkscape:window-y="57"
     inkscape:window-maximized="0"
     inkscape:current-layer="svg2" />
  <metadata
     id="metadata2975">image/svg+xmlen<rdf:RDF>
  <cc:Work
     rdf:about="">
    <dc:format>image/svg+xml</dc:format>
    <dc:type
       rdf:resource="http://purl.org/dc/dcmitype/StillImage" />
    <dc:title />
  </cc:Work>
</rdf:RDF>
</metadata>
  <path
     sodipodi:type="inkscape:offset"
     inkscape:radius="33.987305"
     inkscape:original="M 186.125 204.28125 L 136.53125 375.71875 L 171.25 375.71875 L 179.75 344.5 L 233.75 344.5 L 242.15625 375.71875 L 276.875 375.71875 L 227.28125 204.28125 L 186.125 204.28125 z M 294.53125 204.28125 L 294.53125 375.71875 L 327.25 375.71875 L 327.25 250.3125 L 358.09375 342.78125 L 379.96875 342.78125 L 410.8125 250.3125 L 410.8125 375.71875 L 443.46875 375.71875 L 443.46875 204.28125 L 399.625 204.28125 L 368.9375 296.03125 L 338.46875 204.28125 L 294.53125 204.28125 z M 206.75 244.46875 L 225.03125 312.6875 L 188.375 312.6875 L 206.75 244.46875 z "
     style="font-size:360px;font-style:normal;font-weight:bold;line-height:125%;letter-spacing:0px;word-spacing:0px;fill:#fefefe;fill-opacity:0.78873243;stroke:none;font-family:Sans;-inkscape-font-specification:Sans Bold"
     id="path3779"
     d="m 186.125,170.28125 a 33.990703,33.990703 0 0 0 -32.65625,24.5625 L 103.875,366.28125 a 33.990703,33.990703 0 0 0 32.65625,43.4375 l 34.71875,0 a 33.990703,33.990703 0 0 0 32.78125,-25.0625 l 1.6875,-6.15625 2,0 1.625,6.0625 a 33.990703,33.990703 0 0 0 32.8125,25.15625 l 34.71875,0 a 33.990703,33.990703 0 0 0 8.75,-1.21875 33.990703,33.990703 0 0 0 8.90625,1.21875 l 32.71875,0 a 33.990703,33.990703 0 0 0 33.96875,-32.9375 l 15.65625,0 a 33.990703,33.990703 0 0 0 33.9375,32.9375 l 32.65625,0 a 33.990703,33.990703 0 0 0 34,-34 l 0,-171.4375 a 33.990703,33.990703 0 0 0 -34,-34 l -43.84375,0 a 33.990703,33.990703 0 0 0 -30.5625,19.25 33.990703,33.990703 0 0 0 -30.59375,-19.25 l -43.9375,0 a 33.990703,33.990703 0 0 0 -33.5,28.3125 l -1.09375,-3.75 a 33.990703,33.990703 0 0 0 -32.65625,-24.5625 l -41.15625,0 z"
     transform="matrix(1.2668684,0,0,1.2668684,-77.394773,-77.391839)" />
  <g
     transform="matrix(0.64621185,0,0,0.82767222,78.57598,29.399958)"
     style="font-size:360px;font-style:normal;font-weight:normal;line-height:125%;letter-spacing:0px;word-spacing:0px;fill:#6c003d;fill-opacity:1;stroke:none;font-family:Sans"
     id="flowRoot2989">
    <path
       d="m 216.86719,398.2672 -105.82031,0 -16.699224,47.8125 -68.027344,0 97.207028,-262.44141 80.6836,0 97.20703,262.44141 -68.02735,0 -16.52343,-47.8125 m -88.94531,-48.69141 71.89453,0 -35.85938,-104.41406 -36.03515,104.41406"
       style="font-weight:bold;fill:#6c003d;stroke:none;-inkscape-font-specification:Sans Bold"
       id="path3089"
       inkscape:connector-curvature="0" />
    <path
       d="m 336.04687,183.63829 86.13282,0 59.76562,140.44922 60.11719,-140.44922 85.95703,0 0,262.44141 -63.98437,0 0,-191.95313 -60.46875,141.50391 -42.89063,0 -60.46875,-141.50391 0,191.95313 -64.16016,0 0,-262.44141"
       style="font-weight:bold;fill:#6c003d;stroke:none;-inkscape-font-specification:Sans Bold"
       id="path3091"
       inkscape:connector-curvature="0" />
  </g>
</svg>
