<?xml version="1.0" encoding="UTF-8" standalone="no"?>
<svg
   xmlns:dc="http://purl.org/dc/elements/1.1/"
   xmlns:cc="http://creativecommons.org/ns#"
   xmlns:rdf="http://www.w3.org/1999/02/22-rdf-syntax-ns#"
   xmlns:svg="http://www.w3.org/2000/svg"
   xmlns="http://www.w3.org/2000/svg"
   xmlns:sodipodi="http://sodipodi.sourceforge.net/DTD/sodipodi-0.dtd"
   xmlns:inkscape="http://www.inkscape.org/namespaces/inkscape"
   width="580"
   height="580"
   id="svg2"
   version="1.1"
   inkscape:version="0.48.4 r9939"
   sodipodi:docname="default_icon_healthcare.svg">
  <defs
     id="defs13" />
  <sodipodi:namedview
     pagecolor="#ffffff"
     bordercolor="#666666"
     borderopacity="1"
     objecttolerance="10"
     gridtolerance="10"
     guidetolerance="10"
     inkscape:pageopacity="0"
     inkscape:pageshadow="2"
     inkscape:window-width="1920"
     inkscape:window-height="1004"
     id="namedview11"
     showgrid="false"
     inkscape:zoom="0.40689655"
     inkscape:cx="-56.081482"
     inkscape:cy="332.98315"
     inkscape:window-x="1680"
     inkscape:window-y="0"
     inkscape:window-maximized="1"
     inkscape:current-layer="svg2" />
  <metadata
     id="metadata2975">image/svg+xmlen<rdf:RDF>
  <cc:Work
     rdf:about="">
    <dc:format>image/svg+xml</dc:format>
    <dc:type
       rdf:resource="http://purl.org/dc/dcmitype/StillImage" />
    <dc:title></dc:title>
  </cc:Work>
</rdf:RDF>
</metadata>
  <g
     transform="matrix(0.76693161,0,0,1.1433262,-15.583301,-69.986538)"
     style="font-size:360px;font-style:normal;font-weight:normal;line-height:125%;letter-spacing:0px;word-spacing:0px;fill:#6c003d;fill-opacity:1;stroke:none;font-family:Sans"
     id="flowRoot2989">
    <path
       d="m 57.609375,183.63829 67.675785,0 0,100.01953 99.84375,0 0,-100.01953 67.67578,0 0,262.44141 -67.67578,0 0,-111.26953 -99.84375,0 0,111.26953 -67.675785,0 0,-262.44141"
       style="font-weight:bold;fill:#6c003d;-inkscape-font-specification:Sans Bold"
       id="path3227" />
    <path
       d="m 359.25,183.63829 67.67578,0 0,211.28906 118.82813,0 0,51.15235 -186.50391,0 0,-262.44141"
       style="font-weight:bold;fill:#6c003d;-inkscape-font-specification:Sans Bold"
       id="path3229" />
    <path
       d="m 497.41406,183.63829 241.875,0 0,51.15235 -87.01172,0 0,211.28906 -67.67578,0 0,-211.28906 -87.1875,0 0,-51.15235"
       style="font-weight:bold;fill:#6c003d;-inkscape-font-specification:Sans Bold"
       id="path3231" />
  </g>
</svg>
