<?xml version="1.0" encoding="UTF-8" standalone="no"?>
<svg
   xmlns:dc="http://purl.org/dc/elements/1.1/"
   xmlns:cc="http://creativecommons.org/ns#"
   xmlns:rdf="http://www.w3.org/1999/02/22-rdf-syntax-ns#"
   xmlns:svg="http://www.w3.org/2000/svg"
   xmlns="http://www.w3.org/2000/svg"
   xmlns:sodipodi="http://sodipodi.sourceforge.net/DTD/sodipodi-0.dtd"
   xmlns:inkscape="http://www.inkscape.org/namespaces/inkscape"
   width="16"
   height="16"
   id="svg2"
   version="1.1"
   inkscape:version="0.91 r"
   sodipodi:docname="subway_moscow.svg">
  <defs
     id="defs13" />
  <sodipodi:namedview
     pagecolor="#ffffff"
     bordercolor="#666666"
     borderopacity="1"
     objecttolerance="10"
     gridtolerance="10"
     guidetolerance="10"
     inkscape:pageopacity="0"
     inkscape:pageshadow="2"
     inkscape:window-width="1332"
     inkscape:window-height="739"
     id="namedview11"
     showgrid="true"
     inkscape:zoom="26.041379"
     inkscape:cx="3.8148122"
     inkscape:cy="7.6704371"
     inkscape:window-x="34"
     inkscape:window-y="1024"
     inkscape:window-maximized="1"
     inkscape:current-layer="svg2"
     showguides="false">
    <sodipodi:guide
       position="0,0"
       orientation="0,580"
       id="guide2989" />
    <sodipodi:guide
       position="580,0"
       orientation="-580,0"
       id="guide2991" />
    <sodipodi:guide
       position="580,580"
       orientation="0,-580"
       id="guide2993" />
    <sodipodi:guide
       position="0,580"
       orientation="580,0"
       id="guide2995" />
    <sodipodi:guide
       position="0,0"
       orientation="0,580"
       id="guide2997" />
    <sodipodi:guide
       position="580,0"
       orientation="-580,0"
       id="guide2999" />
    <sodipodi:guide
       position="580,580"
       orientation="0,-580"
       id="guide3001" />
    <sodipodi:guide
       position="0,580"
       orientation="580,0"
       id="guide3003" />
    <inkscape:grid
       type="xygrid"
       id="grid3013"
       empspacing="5"
       visible="true"
       enabled="true"
       snapvisiblegridlinesonly="true" />
  </sodipodi:namedview>
  <metadata
     id="metadata2975">image/svg+xmlen<rdf:RDF>
  <cc:Work
     rdf:about="">
    <dc:format>image/svg+xml</dc:format>
    <dc:type
       rdf:resource="http://purl.org/dc/dcmitype/StillImage" />
    <dc:title></dc:title>
  </cc:Work>
</rdf:RDF>
</metadata>
  <path
     sodipodi:type="inkscape:offset"
     inkscape:radius="7.4861035"
     inkscape:original="M 375.40039 232.30078 L 346.09961 306.19922 L 337.5 306.19922 L 337.5 317.40039 L 381.69922 317.40039 L 381.69922 306.19922 L 375.09961 306.19922 L 381.5 287.80078 L 400 318.19922 L 418.5 287.80078 L 424.90039 306.19922 L 418.30078 306.19922 L 418.30078 317.40039 L 462.5 317.40039 L 462.5 306.19922 L 453.90039 306.19922 L 424.69922 232.30078 L 400 275.5 L 375.40039 232.30078 z "
     style="fill:#ffffff;fill-opacity:1;opacity:0.666"
     id="path4180"
     d="m 424.65625,224.81641 a 7.4868521,7.4868521 0 0 0 -6.45508,3.76953 l -18.1875,31.80859 -18.10742,-31.79883 a 7.4868521,7.4868521 0 0 0 -13.46484,0.94532 l -27.42579,69.17187 -3.51562,0 a 7.4868521,7.4868521 0 0 0 -7.48633,7.48633 l 0,11.20117 a 7.4868521,7.4868521 0 0 0 7.48633,7.48633 l 44.19922,0 a 7.4868521,7.4868521 0 0 0 7.48633,-7.48633 l 0,-2.57031 4.41992,7.26172 a 7.4868521,7.4868521 0 0 0 12.78906,0 l 4.41992,-7.26172 0,2.57031 a 7.4868521,7.4868521 0 0 0 7.48633,7.48633 l 44.19922,0 a 7.4868521,7.4868521 0 0 0 7.48633,-7.48633 l 0,-11.20117 A 7.4868521,7.4868521 0 0 0 462.5,298.71289 l -3.50781,0 -27.33008,-69.16406 a 7.4868521,7.4868521 0 0 0 -7.00586,-4.73242 z"
     transform="matrix(0.11437072,0,0,0.11437072,-37.748287,-23.480539)" />
  <polygon
     transform="matrix(0.11437072,0,0,0.11437072,-37.748287,-23.48054)"
     style="fill:#ff0013"
     points="418.3,306.2 418.3,317.4 462.5,317.4 462.5,306.2 453.9,306.2 424.7,232.3 400,275.5 375.4,232.3 346.1,306.2 337.5,306.2 337.5,317.4 381.7,317.4 381.7,306.2 375.1,306.2 381.5,287.8 400,318.2 418.5,287.8 424.9,306.2 "
     id="polygon4" />
</svg>
