<?xml version="1.0" encoding="UTF-8" standalone="no"?>
<svg
   xmlns:dc="http://purl.org/dc/elements/1.1/"
   xmlns:cc="http://creativecommons.org/ns#"
   xmlns:rdf="http://www.w3.org/1999/02/22-rdf-syntax-ns#"
   xmlns:svg="http://www.w3.org/2000/svg"
   xmlns="http://www.w3.org/2000/svg"
   xmlns:sodipodi="http://sodipodi.sourceforge.net/DTD/sodipodi-0.dtd"
   xmlns:inkscape="http://www.inkscape.org/namespaces/inkscape"
   width="16"
   height="16"
   id="svg2"
   version="1.1"
   inkscape:version="0.91 r"
   sodipodi:docname="subway_germany.svg">
  <defs
     id="defs13" />
  <sodipodi:namedview
     pagecolor="#ffffff"
     bordercolor="#666666"
     borderopacity="1"
     objecttolerance="10"
     gridtolerance="10"
     guidetolerance="10"
     inkscape:pageopacity="0"
     inkscape:pageshadow="2"
     inkscape:window-width="1332"
     inkscape:window-height="739"
     id="namedview11"
     showgrid="true"
     inkscape:zoom="26.041379"
     inkscape:cx="8.860445"
     inkscape:cy="6.8489921"
     inkscape:window-x="34"
     inkscape:window-y="1024"
     inkscape:window-maximized="1"
     inkscape:current-layer="svg2"
     showguides="false">
    <sodipodi:guide
       position="0,0"
       orientation="0,580"
       id="guide2989" />
    <sodipodi:guide
       position="580,0"
       orientation="-580,0"
       id="guide2991" />
    <sodipodi:guide
       position="580,580"
       orientation="0,-580"
       id="guide2993" />
    <sodipodi:guide
       position="0,580"
       orientation="580,0"
       id="guide2995" />
    <sodipodi:guide
       position="0,0"
       orientation="0,580"
       id="guide2997" />
    <sodipodi:guide
       position="580,0"
       orientation="-580,0"
       id="guide2999" />
    <sodipodi:guide
       position="580,580"
       orientation="0,-580"
       id="guide3001" />
    <sodipodi:guide
       position="0,580"
       orientation="580,0"
       id="guide3003" />
    <inkscape:grid
       type="xygrid"
       id="grid3013"
       empspacing="5"
       visible="true"
       enabled="true"
       snapvisiblegridlinesonly="true" />
  </sodipodi:namedview>
  <metadata
     id="metadata2975">image/svg+xmlen<rdf:RDF>
  <cc:Work
     rdf:about="">
    <dc:format>image/svg+xml</dc:format>
    <dc:type
       rdf:resource="http://purl.org/dc/dcmitype/StillImage" />
    <dc:title />
  </cc:Work>
</rdf:RDF>
</metadata>
  <rect
     y="-8.6736174e-16"
     x="0"
     style="opacity:1;fill:#fefefe;color:#000000;clip-rule:nonzero;display:inline;overflow:visible;visibility:visible;isolation:auto;mix-blend-mode:normal;color-interpolation:sRGB;color-interpolation-filters:linearRGB;solid-color:#000000;solid-opacity:1;fill-opacity:1;fill-rule:nonzero;stroke-width:0.11437072;stroke-linecap:butt;stroke-linejoin:miter;stroke-miterlimit:4;stroke-dasharray:none;stroke-dashoffset:0;stroke-opacity:1;filter-blend-mode:normal;filter-gaussianBlur-deviation:0;color-rendering:auto;image-rendering:auto;shape-rendering:auto;text-rendering:auto;enable-background:accumulate"
     x1="0"
     y1="0"
     width="16"
     height="16"
     id="rect4-1" />
  <rect
     y="0.97568512"
     x="0.97568512"
     style="fill:#003399"
     x1="0"
     y1="0"
     width="14.04863"
     height="14.04863"
     id="rect4" />
  <path
     inkscape:connector-curvature="0"
     style="fill:#fefefe;fill-opacity:1"
     d="m 8.5346264,13.957618 c 0.9121283,-0.08903 1.7642746,-0.379221 2.4409636,-0.831246 0.340059,-0.227158 0.819673,-0.697518 1.028184,-1.008343 0.304721,-0.454249 0.526015,-1.00002 0.644402,-1.589277 0.04585,-0.228247 0.05146,-0.6292714 0.06084,-4.3550742 l 0.01033,-4.1036787 -2.811696,0 0,3.7573253 c 0,2.4700007 -0.010831,3.8544712 -0.031615,4.0408652 C 9.838805,10.202111 9.7289742,10.601237 9.6174603,10.807888 9.4775302,11.067198 9.2193609,11.313945 8.9500005,11.445815 8.2089375,11.808617 7.1245612,11.677989 6.610568,11.163996 6.3487979,10.902226 6.1689639,10.480712 6.0934933,9.9520196 6.0750465,9.8227956 6.0637191,8.3027517 6.0633536,5.9074932 l -5.845e-4,-3.8374941 -2.7801497,0 0,3.8861185 c 0,3.898842 0.00747,4.2279684 0.1071958,4.7205164 0.2462885,1.216467 1.0052015,2.18466 2.1670513,2.764644 0.8515844,0.425103 1.9540183,0.616264 2.9777608,0.51634 z"
     id="path6" />
</svg>
