<?xml version="1.0" encoding="UTF-8" standalone="no"?>
<svg
   xmlns:dc="http://purl.org/dc/elements/1.1/"
   xmlns:cc="http://creativecommons.org/ns#"
   xmlns:rdf="http://www.w3.org/1999/02/22-rdf-syntax-ns#"
   xmlns:svg="http://www.w3.org/2000/svg"
   xmlns="http://www.w3.org/2000/svg"
   xmlns:sodipodi="http://sodipodi.sourceforge.net/DTD/sodipodi-0.dtd"
   xmlns:inkscape="http://www.inkscape.org/namespaces/inkscape"
   width="16"
   height="16"
   id="svg2"
   version="1.1"
   inkscape:version="0.91 r"
   sodipodi:docname="subway_budapest_small.svg">
  <defs
     id="defs13" />
  <sodipodi:namedview
     pagecolor="#ffffff"
     bordercolor="#666666"
     borderopacity="1"
     objecttolerance="10"
     gridtolerance="10"
     guidetolerance="10"
     inkscape:pageopacity="0"
     inkscape:pageshadow="2"
     inkscape:window-width="1920"
     inkscape:window-height="1004"
     id="namedview11"
     showgrid="true"
     inkscape:zoom="26.041379"
     inkscape:cx="11.412901"
     inkscape:cy="12.513845"
     inkscape:window-x="1680"
     inkscape:window-y="0"
     inkscape:window-maximized="1"
     inkscape:current-layer="svg2"
     showguides="false">
    <sodipodi:guide
       position="0,0"
       orientation="0,580"
       id="guide2989" />
    <sodipodi:guide
       position="580,0"
       orientation="-580,0"
       id="guide2991" />
    <sodipodi:guide
       position="580,580"
       orientation="0,-580"
       id="guide2993" />
    <sodipodi:guide
       position="0,580"
       orientation="580,0"
       id="guide2995" />
    <sodipodi:guide
       position="0,0"
       orientation="0,580"
       id="guide2997" />
    <sodipodi:guide
       position="580,0"
       orientation="-580,0"
       id="guide2999" />
    <sodipodi:guide
       position="580,580"
       orientation="0,-580"
       id="guide3001" />
    <sodipodi:guide
       position="0,580"
       orientation="580,0"
       id="guide3003" />
    <inkscape:grid
       type="xygrid"
       id="grid3013"
       empspacing="5"
       visible="true"
       enabled="true"
       snapvisiblegridlinesonly="true" />
  </sodipodi:namedview>
  <metadata
     id="metadata2975">image/svg+xmlen<rdf:RDF>
  <cc:Work
     rdf:about="">
    <dc:format>image/svg+xml</dc:format>
    <dc:type
       rdf:resource="http://purl.org/dc/dcmitype/StillImage" />
    <dc:title></dc:title>
  </cc:Work>
</rdf:RDF>
</metadata>
  <path
     sodipodi:type="inkscape:offset"
     inkscape:radius="0.81252086"
     inkscape:original="M -13.742188 -3.0566406 C -18.453043 -3.0566406 -22.271484 0.7619114 -22.271484 5.4726562 C -22.271484 10.183402 -18.453046 14.003906 -13.742188 14.003906 C -9.031441 14.003906 -5.2128906 10.183402 -5.2128906 5.4726562 C -5.2128906 0.7619114 -9.031328 -3.0566406 -13.742188 -3.0566406 z M -13.742188 -1.5996094 C -9.842493 -1.5996094 -6.6816406 1.5612446 -6.6816406 5.4609375 C -6.6816406 9.3606304 -9.842493 12.521484 -13.742188 12.521484 C -17.641993 12.521484 -20.802734 9.3606304 -20.802734 5.4609375 C -20.802734 1.5612446 -17.641993 -1.5996094 -13.742188 -1.5996094 z M -18.107422 1.1796875 L -18.107422 9.7382812 L -16.638672 9.7382812 L -16.640625 3.5527344 L -13.787109 6.3769531 L -9.4648438 2.1972656 L -9.4648438 1.1796875 L -10.425781 1.1796875 L -13.742188 4.484375 L -17.091797 1.1796875 L -18.107422 1.1796875 z M -9.4648438 2.9179688 L -13.787109 7.2246094 L -16.087891 4.9941406 L -16.087891 6.9003906 L -13.787109 9.2011719 L -10.910156 6.265625 L -10.933594 9.7382812 L -9.4648438 9.7382812 L -9.4648438 2.9179688 z "
     style="color:#000000;clip-rule:nonzero;display:inline;overflow:visible;visibility:visible;opacity:0.66600001;isolation:auto;mix-blend-mode:normal;color-interpolation:sRGB;color-interpolation-filters:linearRGB;solid-color:#000000;solid-opacity:1;fill:#ffffff;fill-opacity:1;fill-rule:nonzero;stroke-width:0.13136107;stroke-linecap:butt;stroke-linejoin:miter;stroke-miterlimit:4;stroke-dasharray:none;stroke-dashoffset:0;stroke-opacity:1;color-rendering:auto;image-rendering:auto;shape-rendering:auto;text-rendering:auto;enable-background:accumulate"
     id="path4178"
     d="m -13.742188,-3.8691406 c -5.149933,0 -9.341796,4.19197598 -9.341796,9.3417968 0,5.1498218 4.191636,9.3437498 9.341796,9.3437498 5.1500606,0 9.3417974,-4.193915 9.3417974,-9.3437498 0,-5.14982041 -4.1918588,-9.3417968 -9.3417974,-9.3417968 z m 0,3.08203122 c 1.295489,0 2.427945,0.48397127 3.423829,1.15429688 l -0.107422,0 A 0.81260211,0.81260211 0 0 0 -11,0.60351562 l -2.744141,2.73632818 -2.777343,-2.7382813 a 0.81260211,0.81260211 0 0 0 -0.570313,-0.234375 l -0.07422,0 c 0.99588,-0.67032371 2.128294,-1.15429687 3.423828,-1.15429688 z M -8.6523438,2.03125 c 0.6727432,0.9970318 1.1582032,2.1316547 1.1582032,3.4296875 0,1.2980328 -0.48546,2.4326558 -1.1582032,3.4296875 l 0,-5.9726562 a 0.81260211,0.81260211 0 0 0 -0.085937,-0.359375 0.81260211,0.81260211 0 0 0 0.085937,-0.3613282 l 0,-0.1660156 z m -10.2675782,0.1308594 0,6.5976562 c -0.619445,-0.9703781 -1.070312,-2.0577621 -1.070312,-3.2988281 0,-1.241066 0.450867,-2.3284499 1.070312,-3.2988281 z m 7.183594,6.1074218 -0.0098,1.4628907 a 0.81260211,0.81260211 0 0 0 0.8125,0.8183591 l 0.621094,0 c -0.997032,0.672743 -2.131654,1.158203 -3.429688,1.158203 -1.298079,0 -2.432659,-0.485461 -3.429687,-1.158203 l 0.533203,0 a 0.81260211,0.81260211 0 0 0 0.8125,-0.8124998 l 0,-1.4277343 1.464844,1.4648437 a 0.81260211,0.81260211 0 0 0 1.154297,-0.00586 l 1.470703,-1.5 z"
     transform="matrix(0.63806826,0,0,0.63806826,16.768454,4.5074486)" />
  <path
     d="m 7.9999996,2.5571033 c -3.0058483,0 -5.4422731,2.4364967 -5.4422731,5.4422736 0,3.0057771 2.4364241,5.4435201 5.4422731,5.4435201 3.0057774,0 5.4422734,-2.437743 5.4422734,-5.4435201 0,-3.0057769 -2.436424,-5.4422736 -5.4422734,-5.4422736 z m 0,0.9296853 c 2.4882704,0 4.5051104,2.0168406 4.5051104,4.5051109 0,2.4882695 -2.01684,4.5051105 -4.5051104,4.5051105 -2.4883424,0 -4.5051103,-2.016841 -4.5051103,-4.5051105 0,-2.4882703 2.0167679,-4.5051109 4.5051103,-4.5051109 z m -2.7853173,1.7733812 0,5.4609662 0.9371628,0 -0.00124,-3.9468003 1.820738,1.8020443 2.7578999,-2.6669259 0,-0.6492843 -0.613143,0 -2.1160942,2.1086162 -2.1372792,-2.1086162 -0.6480381,0 z M 10.729237,6.3693119 7.9713369,9.1172425 6.503281,7.6940512 l 0,1.2163177 1.4680559,1.4680551 1.8356922,-1.8730789 -0.014954,2.2157909 0.937163,0 0,-4.3518241 z"
     id="path3"
     inkscape:connector-curvature="0" />
</svg>
