<?xml version="1.0" encoding="UTF-8" standalone="no"?>
<!-- Generator: Adobe Illustrator 16.0.4, SVG Export Plug-In . SVG Version: 6.00 Build 0)  -->

<svg
   xmlns:dc="http://purl.org/dc/elements/1.1/"
   xmlns:cc="http://creativecommons.org/ns#"
   xmlns:rdf="http://www.w3.org/1999/02/22-rdf-syntax-ns#"
   xmlns:svg="http://www.w3.org/2000/svg"
   xmlns="http://www.w3.org/2000/svg"
   xmlns:sodipodi="http://sodipodi.sourceforge.net/DTD/sodipodi-0.dtd"
   xmlns:inkscape="http://www.inkscape.org/namespaces/inkscape"
   version="1.1"
   id="Слой_1"
   x="0px"
   y="0px"
   width="20"
   height="20"
   viewBox="0 0 19.999999 20"
   enable-background="new 0 0 17.113 17.143"
   xml:space="preserve"
   inkscape:version="0.91 r13725"
   sodipodi:docname="subway_station_small_black2.svg"><metadata
     id="metadata13"><rdf:RDF><cc:Work
         rdf:about=""><dc:format>image/svg+xml</dc:format><dc:type
           rdf:resource="http://purl.org/dc/dcmitype/StillImage" /><dc:title /></cc:Work></rdf:RDF></metadata><defs
     id="defs11" /><sodipodi:namedview
     pagecolor="#ffffff"
     bordercolor="#666666"
     borderopacity="1"
     objecttolerance="10"
     gridtolerance="10"
     guidetolerance="10"
     inkscape:pageopacity="0"
     inkscape:pageshadow="2"
     inkscape:window-width="1920"
     inkscape:window-height="1006"
     id="namedview9"
     showgrid="false"
     inkscape:zoom="19.468845"
     inkscape:cx="-11.83525"
     inkscape:cy="9.935574"
     inkscape:window-x="1920"
     inkscape:window-y="0"
     inkscape:window-maximized="1"
     inkscape:current-layer="Слой_1" /><path
     style="fill:#fefefe;fill-opacity:1;fill-rule:evenodd"
     d="m 10,0.559375 c -5.2346864,0 -9.440625,4.2042511 -9.440625,9.440625 0,5.204411 4.2059386,9.440625 9.440625,9.440625 5.235793,0 9.440625,-4.236214 9.440625,-9.440625 C 19.440624,4.7636261 15.235793,0.559375 10,0.559375 Z M 10,7.72 c 1.255471,0 2.28,1.0162202 2.28,2.28 0,1.254705 -1.024529,2.28 -2.28,2.28 C 8.7448341,12.28 7.72,11.254705 7.72,10 7.72,8.7362202 8.7448341,7.72 10,7.72 Z"
     id="path3-7"
     inkscape:connector-curvature="0" /><path
     style="fill:#000000;fill-opacity:1;fill-rule:evenodd"
     d="m 9.9999994,2.02 c -4.4232677,0 -7.98,3.5553064 -7.98,7.98 0,4.397686 3.5567323,7.98 7.98,7.98 C 14.424202,17.98 17.98,14.397686 17.98,10 17.98,5.5753064 14.424202,2.02 9.9999994,2.02 Z m 0,4.5542424 c 1.8951526,0 3.4257586,1.5180629 3.4257586,3.4257576 0,1.893995 -1.530606,3.425758 -3.4257586,3.425758 -1.8946917,0 -3.4257575,-1.531763 -3.4257575,-3.425758 0,-1.9076947 1.5310658,-3.4257576 3.4257575,-3.4257576 z"
     id="path3"
     inkscape:connector-curvature="0" /></svg>