<?xml version="1.0" encoding="UTF-8" standalone="no"?>
<svg
   xmlns:dc="http://purl.org/dc/elements/1.1/"
   xmlns:cc="http://creativecommons.org/ns#"
   xmlns:rdf="http://www.w3.org/1999/02/22-rdf-syntax-ns#"
   xmlns:svg="http://www.w3.org/2000/svg"
   xmlns="http://www.w3.org/2000/svg"
   xmlns:sodipodi="http://sodipodi.sourceforge.net/DTD/sodipodi-0.dtd"
   xmlns:inkscape="http://www.inkscape.org/namespaces/inkscape"
   width="16"
   height="16"
   id="svg2"
   version="1.1"
   inkscape:version="0.91 r"
   sodipodi:docname="subway_yerevan.svg">
  <defs
     id="defs13">
    <linearGradient
       gradientTransform="matrix(0.08596979,0,0,0.08596979,0.67480439,1.9432845)"
       x1="87.101639"
       y1="121.69753"
       x2="87.260849"
       y2="1.2385538"
       id="l1"
       gradientUnits="userSpaceOnUse">
      <stop
         style="stop-color:#e92203;stop-opacity:1"
         offset="0"
         id="stop5" />
      <stop
         style="stop-color:#ff0000;stop-opacity:0.64628822"
         offset="1"
         id="stop7" />
    </linearGradient>
    <linearGradient
       gradientTransform="matrix(0.08400469,0,0,0.08400469,0.8422306,2.0814238)"
       x1="87.101639"
       y1="121.69753"
       x2="87.260849"
       y2="1.2385538"
       id="l1-2"
       gradientUnits="userSpaceOnUse">
      <stop
         style="stop-color:#e92203;stop-opacity:1"
         offset="0"
         id="stop5-8" />
      <stop
         style="stop-color:#ff0000;stop-opacity:0.64628822"
         offset="1"
         id="stop7-4" />
    </linearGradient>
  </defs>
  <sodipodi:namedview
     pagecolor="#ffffff"
     bordercolor="#666666"
     borderopacity="1"
     objecttolerance="10"
     gridtolerance="10"
     guidetolerance="10"
     inkscape:pageopacity="0"
     inkscape:pageshadow="2"
     inkscape:window-width="1332"
     inkscape:window-height="739"
     id="namedview11"
     showgrid="true"
     inkscape:zoom="22.627417"
     inkscape:cx="6.8315778"
     inkscape:cy="8.1359983"
     inkscape:window-x="34"
     inkscape:window-y="1024"
     inkscape:window-maximized="1"
     inkscape:current-layer="svg2"
     showguides="false"
     inkscape:snap-global="false">
    <sodipodi:guide
       position="0,0"
       orientation="0,580"
       id="guide2989" />
    <sodipodi:guide
       position="580,0"
       orientation="-580,0"
       id="guide2991" />
    <sodipodi:guide
       position="580,580"
       orientation="0,-580"
       id="guide2993" />
    <sodipodi:guide
       position="0,580"
       orientation="580,0"
       id="guide2995" />
    <sodipodi:guide
       position="0,0"
       orientation="0,580"
       id="guide2997" />
    <sodipodi:guide
       position="580,0"
       orientation="-580,0"
       id="guide2999" />
    <sodipodi:guide
       position="580,580"
       orientation="0,-580"
       id="guide3001" />
    <sodipodi:guide
       position="0,580"
       orientation="580,0"
       id="guide3003" />
    <inkscape:grid
       type="xygrid"
       id="grid3013"
       empspacing="5"
       visible="true"
       enabled="true"
       snapvisiblegridlinesonly="true" />
  </sodipodi:namedview>
  <metadata
     id="metadata2975">image/svg+xmlen<rdf:RDF>
  <cc:Work
     rdf:about="">
    <dc:format>image/svg+xml</dc:format>
    <dc:type
       rdf:resource="http://purl.org/dc/dcmitype/StillImage" />
    <dc:title></dc:title>
  </cc:Work>
</rdf:RDF>
</metadata>
  <path
     style="opacity:1;fill:#fefefe;fill-opacity:1;fill-rule:evenodd;stroke:none;stroke-width:1px;stroke-linecap:butt;stroke-linejoin:miter;stroke-opacity:1"
     d="M 9.2050781,2.1035156 C 8.7791726,2.0813773 8.3412137,2.0875516 7.8886719,2.1269531 4.4478011,2.42654 2.3887945,3.8840368 1.2675781,5.3378906 0.70696995,6.0648175 0.37489996,6.7818994 0.18164062,7.3476562 0.08501096,7.6305347 0.02267029,7.8748848 -0.015625,8.0703125 c -0.03578624,0.1826236 -0.05655738,0.2543797 -0.04492187,0.4746094 -0.0084192,0.4748157 0.07233978,1.041142 0.19921875,1.5781251 0.001239,0.03939 8.3949e-4,0.08855 0.003906,0.109375 0.009747,0.0662 0.0203761,0.09374 0.0292969,0.125 0.0178415,0.06253 0.0369898,0.115749 0.0625,0.179687 0.0510204,0.127878 0.12376754,0.286178 0.22851562,0.470703 0.20949617,0.369052 0.5429857,0.841264 1.0429688,1.296876 0.9999661,0.911223 2.6954793,1.725364 5.171875,1.480468 4.0424768,-0.399769 5.7111068,-3.258639 6.0800778,-3.9374998 l 1.294922,0.017578 c 0.287234,0.00394 0.551672,-0.1559311 0.681641,-0.4121092 L 15.068359,8.7910156 C 15.14963,8.6290423 15.169741,8.4431871 15.125,8.2675781 15.251862,8.193755 15.354374,8.084454 15.419922,7.953125 l 0.677734,-1.3574219 c 0.113936,-0.2283942 0.104378,-0.4989647 -0.02539,-0.71875 l -0.002,-0.00195 C 16.042895,5.8032044 16.004692,5.7360197 15.956985,5.6757843 15.864802,5.5593892 15.8004,5.4971362 15.783203,5.4765625 l -0.0039,-0.00391 c 0.09738,0.1149034 0.07163,0.084405 -0.0078,-0.00977 -0.01036,-0.012283 0.0134,0.013858 0,-0.00195 C 15.712789,5.3914883 15.641977,5.3332576 15.5625,5.2890625 14.107641,3.6430186 11.968193,2.2471402 9.2050781,2.1035156 Z"
     id="path4381"
     inkscape:connector-curvature="0"
     sodipodi:nodetypes="sssssccccssssccccccccccccsccs" />
  <path
     style="fill:#2d195f;fill-opacity:1;fill-rule:evenodd;stroke:none;stroke-width:1px;stroke-linecap:butt;stroke-linejoin:miter;stroke-opacity:1"
     d="M 9.1660156 2.8554688 C 8.7738791 2.8350858 8.3704879 2.8406145 7.953125 2.8769531 C 1.4290571 3.4449852 0.663431 8.2149601 0.68554688 8.5234375 C 0.67438218 8.9535901 0.74938257 9.5909027 0.88867188 10.111328 C 0.84104342 10.123235 2.0269448 13.487743 6.6035156 13.035156 C 10.731145 12.626966 12.402344 9.0898438 12.402344 9.0898438 L 14.0625 9.1132812 L 14.396484 8.4511719 C 14.396484 8.4511719 13.994794 8.4474381 12.039062 8.4550781 C 10.385521 12.251947 6.4362441 12.617702 6.3925781 12.544922 C 6.3925781 12.544922 4.5698823 12.743175 3.1171875 11.910156 L 6.1074219 11.880859 C 6.0679689 12.06497 9.8060911 11.413318 11.173828 7.6171875 C 14.40642 7.6192975 14.746094 7.6171875 14.746094 7.6171875 L 15.423828 6.2597656 L 15.34375 6.1484375 C 15.357886 6.1448594 15.352569 6.1462328 15.367188 6.1425781 C 15.317417 6.079768 15.256991 6.0210919 15.205078 5.9589844 C 15.202119 5.9554443 15.200232 5.9508032 15.197266 5.9472656 L 15.195312 5.9472656 C 13.850723 4.3439525 11.802563 2.9925146 9.1660156 2.8554688 z M 8.8652344 3.4335938 C 12.215757 3.515286 13.93442 5.2470089 14.505859 5.9472656 L 11.076172 5.9492188 C 10.999235 6.2160391 10.30373 10.720781 5.8828125 11.304688 C 7.5664157 7.2664447 7.9980469 5.9804687 7.9980469 5.9804688 L 5.3046875 5.9492188 L 2.9921875 11.841797 C 2.3089284 11.414933 1.7230924 10.745245 1.4785156 9.6914062 C 0.70842397 6.3732168 4.4721204 3.670305 8.0019531 3.4511719 C 8.3005263 3.4326364 8.588095 3.4268366 8.8652344 3.4335938 z "
     id="path4361" />
</svg>
