<?xml version="1.0" encoding="UTF-8" standalone="no"?>
<svg
   xmlns:dc="http://purl.org/dc/elements/1.1/"
   xmlns:cc="http://creativecommons.org/ns#"
   xmlns:rdf="http://www.w3.org/1999/02/22-rdf-syntax-ns#"
   xmlns:svg="http://www.w3.org/2000/svg"
   xmlns="http://www.w3.org/2000/svg"
   xmlns:sodipodi="http://sodipodi.sourceforge.net/DTD/sodipodi-0.dtd"
   xmlns:inkscape="http://www.inkscape.org/namespaces/inkscape"
   width="16"
   height="16"
   id="svg2"
   version="1.1"
   inkscape:version="0.91 r13725"
   sodipodi:docname="subway_entrance_map.svg">
  <defs
     id="defs13" />
  <sodipodi:namedview
     pagecolor="#ffffff"
     bordercolor="#666666"
     borderopacity="1"
     objecttolerance="10"
     gridtolerance="10"
     guidetolerance="10"
     inkscape:pageopacity="0"
     inkscape:pageshadow="2"
     inkscape:window-width="1920"
     inkscape:window-height="1006"
     id="namedview11"
     showgrid="true"
     inkscape:zoom="36.828071"
     inkscape:cx="5.2105694"
     inkscape:cy="8.672592"
     inkscape:window-x="1920"
     inkscape:window-y="0"
     inkscape:window-maximized="1"
     inkscape:current-layer="svg2"
     showguides="false">
    <sodipodi:guide
       position="0,0"
       orientation="0,580"
       id="guide2989" />
    <sodipodi:guide
       position="580,0"
       orientation="-580,0"
       id="guide2991" />
    <sodipodi:guide
       position="580,580"
       orientation="0,-580"
       id="guide2993" />
    <sodipodi:guide
       position="0,580"
       orientation="580,0"
       id="guide2995" />
    <sodipodi:guide
       position="0,0"
       orientation="0,580"
       id="guide2997" />
    <sodipodi:guide
       position="580,0"
       orientation="-580,0"
       id="guide2999" />
    <sodipodi:guide
       position="580,580"
       orientation="0,-580"
       id="guide3001" />
    <sodipodi:guide
       position="0,580"
       orientation="580,0"
       id="guide3003" />
    <inkscape:grid
       type="xygrid"
       id="grid3013"
       empspacing="5"
       visible="true"
       enabled="true"
       snapvisiblegridlinesonly="true" />
  </sodipodi:namedview>
  <metadata
     id="metadata2975">image/svg+xmlen<rdf:RDF>
  <cc:Work
     rdf:about="">
    <dc:format>image/svg+xml</dc:format>
    <dc:type
       rdf:resource="http://purl.org/dc/dcmitype/StillImage" />
    <dc:title />
  </cc:Work>
</rdf:RDF>
</metadata>
  <path
     sodipodi:type="inkscape:offset"
     inkscape:radius="0.92878234"
     inkscape:original="M 4.9746094 1.4648438 L 0.83789062 12.441406 C 2.0174452 12.441406 4.0100704 12.432 4.4609375 12.4375 L 5.7871094 8.1621094 L 7.8398438 12.169922 L 10.046875 8.1621094 C 10.962692 10.640719 10.9794 10.644744 11.607422 12.458984 L 15.257812 12.458984 C 14.233943 10.107593 12.058124 4.7676562 10.757812 1.4648438 L 7.8398438 7.0957031 L 4.9746094 1.4648438 z "
     style="fill:#fefefe;fill-opacity:1;fill-rule:evenodd;stroke:none"
     id="path4157"
     d="M 4.9746094,0.53710938 A 0.92887522,0.92887522 0 0 0 4.1054688,1.1367188 L -0.03125,12.113281 a 0.92887522,0.92887522 0 0 0 0.86914062,1.257813 c 1.18449208,0 3.20675038,-0.0088 3.61132818,-0.0039 A 0.92887522,0.92887522 0 0 0 5.3476562,12.712891 L 6,10.613281 7.0136719,12.59375 a 0.92887522,0.92887522 0 0 0 1.640625,0.02344 l 1.21875,-2.212891 c 0.2261191,0.613342 0.5119941,1.361498 0.8574221,2.359375 a 0.92887522,0.92887522 0 0 0 0.876953,0.625 l 3.65039,0 a 0.92887522,0.92887522 0 0 0 0.851563,-1.300781 C 15.098705,9.7668119 12.917036,4.4167125 11.621094,1.125 A 0.92887522,0.92887522 0 0 0 9.9335938,1.0371094 L 7.8476562,5.0625 5.8027344,1.0429688 A 0.92887522,0.92887522 0 0 0 4.9746094,0.53710938 Z" />
  <path
     inkscape:connector-curvature="0"
     id="path24"
     style="fill:#ff0013;fill-opacity:1;fill-rule:evenodd;stroke:none"
     d="M 4.9742732,1.465339 7.8405493,7.0964425 10.757609,1.465339 c 1.300311,3.3028125 3.476965,8.642925 4.500834,10.994316 l -3.650917,0 C 10.979504,10.645415 10.963045,10.6404 10.047228,8.1617903 L 7.8405493,12.169262 5.786159,8.1617903 4.4616298,12.438199 c -0.4508671,-0.0055 -2.4438616,0.0023 -3.62341619,0.0023"
     sodipodi:nodetypes="cccccccccc" />
</svg>
