<?xml version="1.0" encoding="UTF-8" standalone="no"?>
<!-- Generator: Adobe Illustrator 16.0.4, SVG Export Plug-In . SVG Version: 6.00 Build 0)  -->

<svg
   xmlns:dc="http://purl.org/dc/elements/1.1/"
   xmlns:cc="http://creativecommons.org/ns#"
   xmlns:rdf="http://www.w3.org/1999/02/22-rdf-syntax-ns#"
   xmlns:svg="http://www.w3.org/2000/svg"
   xmlns="http://www.w3.org/2000/svg"
   xmlns:sodipodi="http://sodipodi.sourceforge.net/DTD/sodipodi-0.dtd"
   xmlns:inkscape="http://www.inkscape.org/namespaces/inkscape"
   version="1.1"
   id="Слой_1"
   x="0px"
   y="0px"
   width="20"
   height="20"
   viewBox="0 0 19.999999 20"
   enable-background="new 0 0 17.113 17.143"
   xml:space="preserve"
   inkscape:version="0.48.4 r9939"
   sodipodi:docname="subway_station_small_yellow2.svg"><metadata
     id="metadata13"><rdf:RDF><cc:Work
         rdf:about=""><dc:format>image/svg+xml</dc:format><dc:type
           rdf:resource="http://purl.org/dc/dcmitype/StillImage" /><dc:title></dc:title></cc:Work></rdf:RDF></metadata><defs
     id="defs11" /><sodipodi:namedview
     pagecolor="#ffffff"
     bordercolor="#666666"
     borderopacity="1"
     objecttolerance="10"
     gridtolerance="10"
     guidetolerance="10"
     inkscape:pageopacity="0"
     inkscape:pageshadow="2"
     inkscape:window-width="1920"
     inkscape:window-height="1004"
     id="namedview9"
     showgrid="false"
     inkscape:zoom="19.468845"
     inkscape:cx="7.1504087"
     inkscape:cy="9.2589666"
     inkscape:window-x="1680"
     inkscape:window-y="0"
     inkscape:window-maximized="1"
     inkscape:current-layer="Слой_1" /><path
     style="fill:#c1ac00;fill-opacity:1;stroke:none"
     d="m 10,1.9238588 c -4.4532669,0 -8.0761412,3.6228743 -8.0761412,8.0761412 0,4.453267 3.6228743,8.076141 8.0761412,8.076141 4.453267,0 8.076141,-3.622874 8.076141,-8.076141 0,-4.4532669 -3.622874,-8.0761412 -8.076141,-8.0761412 z m 0,2.9034062 c 2.847667,0 5.172735,2.3250677 5.172735,5.172735 0,2.847667 -2.325068,5.172735 -5.172735,5.172735 C 7.1523327,15.172735 4.827265,12.847667 4.827265,10 4.827265,7.1523327 7.1523327,4.827265 10,4.827265 z"
     id="path3750"
     inkscape:connector-curvature="0" /><path
     style="fill:#ffed00;fill-opacity:1;fill-rule:evenodd;stroke:none;stroke-opacity:1"
     d="m 9.9999995,3 c -3.8800594,0 -7,3.1186898 -7,7 0,3.857619 3.1199406,7 7,7 C 13.880879,17 17,13.857619 17,10 17,6.1186898 13.880879,3 9.9999995,3 z m 0,3.9949495 c 1.6624145,0 3.0050515,1.3316341 3.0050515,3.0050505 0,1.661399 -1.342637,3.005051 -3.0050515,3.005051 -1.6620103,0 -3.0050505,-1.343652 -3.0050505,-3.005051 0,-1.6734164 1.3430402,-3.0050505 3.0050505,-3.0050505 z"
     id="path3"
     inkscape:connector-curvature="0" /><path
     style="fill:#c1ac00;fill-opacity:1;stroke:none"
     d="m 9.9999997,6.9575426 c -1.6776423,0 -3.0424576,1.3648153 -3.0424576,3.0424574 0,1.677642 1.3648153,3.042458 3.0424576,3.042458 1.6776423,0 3.0424573,-1.364816 3.0424573,-3.042458 0,-1.6776421 -1.364815,-3.0424574 -3.0424573,-3.0424574 z m 0,1.0937761 c 1.0727783,0 1.9486813,0.8759034 1.9486813,1.9486813 0,1.072778 -0.875904,1.948681 -1.9486813,1.948681 -1.0727781,0 -1.9486815,-0.875903 -1.9486815,-1.948681 0,-1.0727779 0.8759034,-1.9486813 1.9486815,-1.9486813 z"
     id="path3750-2"
     inkscape:connector-curvature="0" /></svg>