<?xml version="1.0" encoding="UTF-8" standalone="no"?>
<svg
   xmlns:dc="http://purl.org/dc/elements/1.1/"
   xmlns:cc="http://creativecommons.org/ns#"
   xmlns:rdf="http://www.w3.org/1999/02/22-rdf-syntax-ns#"
   xmlns:svg="http://www.w3.org/2000/svg"
   xmlns="http://www.w3.org/2000/svg"
   xmlns:sodipodi="http://sodipodi.sourceforge.net/DTD/sodipodi-0.dtd"
   xmlns:inkscape="http://www.inkscape.org/namespaces/inkscape"
   width="16"
   height="16"
   id="svg2"
   version="1.1"
   inkscape:version="0.91 r"
   sodipodi:docname="subway_novosibirsk.svg">
  <defs
     id="defs13">
    <linearGradient
       gradientTransform="matrix(0.08596979,0,0,0.08596979,0.67480439,1.9432845)"
       x1="87.101639"
       y1="121.69753"
       x2="87.260849"
       y2="1.2385538"
       id="l1"
       gradientUnits="userSpaceOnUse">
      <stop
         style="stop-color:#e92203;stop-opacity:1"
         offset="0"
         id="stop5" />
      <stop
         style="stop-color:#ff0000;stop-opacity:0.64628822"
         offset="1"
         id="stop7" />
    </linearGradient>
    <linearGradient
       gradientTransform="matrix(0.08400469,0,0,0.08400469,0.8422306,2.0814238)"
       x1="87.101639"
       y1="121.69753"
       x2="87.260849"
       y2="1.2385538"
       id="l1-2"
       gradientUnits="userSpaceOnUse">
      <stop
         style="stop-color:#e92203;stop-opacity:1"
         offset="0"
         id="stop5-8" />
      <stop
         style="stop-color:#ff0000;stop-opacity:0.64628822"
         offset="1"
         id="stop7-4" />
    </linearGradient>
  </defs>
  <sodipodi:namedview
     pagecolor="#ffffff"
     bordercolor="#666666"
     borderopacity="1"
     objecttolerance="10"
     gridtolerance="10"
     guidetolerance="10"
     inkscape:pageopacity="0"
     inkscape:pageshadow="2"
     inkscape:window-width="1332"
     inkscape:window-height="739"
     id="namedview11"
     showgrid="true"
     inkscape:zoom="22.627417"
     inkscape:cx="-4.0297233"
     inkscape:cy="9.129973"
     inkscape:window-x="34"
     inkscape:window-y="1024"
     inkscape:window-maximized="1"
     inkscape:current-layer="svg2"
     showguides="false"
     inkscape:snap-global="false">
    <sodipodi:guide
       position="0,0"
       orientation="0,580"
       id="guide2989" />
    <sodipodi:guide
       position="580,0"
       orientation="-580,0"
       id="guide2991" />
    <sodipodi:guide
       position="580,580"
       orientation="0,-580"
       id="guide2993" />
    <sodipodi:guide
       position="0,580"
       orientation="580,0"
       id="guide2995" />
    <sodipodi:guide
       position="0,0"
       orientation="0,580"
       id="guide2997" />
    <sodipodi:guide
       position="580,0"
       orientation="-580,0"
       id="guide2999" />
    <sodipodi:guide
       position="580,580"
       orientation="0,-580"
       id="guide3001" />
    <sodipodi:guide
       position="0,580"
       orientation="580,0"
       id="guide3003" />
    <inkscape:grid
       type="xygrid"
       id="grid3013"
       empspacing="5"
       visible="true"
       enabled="true"
       snapvisiblegridlinesonly="true" />
  </sodipodi:namedview>
  <metadata
     id="metadata2975">image/svg+xmlen<rdf:RDF>
  <cc:Work
     rdf:about="">
    <dc:format>image/svg+xml</dc:format>
    <dc:type
       rdf:resource="http://purl.org/dc/dcmitype/StillImage" />
    <dc:title />
  </cc:Work>
</rdf:RDF>
</metadata>
  <path
     style="opacity:1;fill:#fefefe;stroke:none;fill-opacity:1"
     d="m 8,3.1269531 c -2.6568444,0 -4.5870262,1.0616695 -4.6132812,1.0761719 -0.00144,6.884e-4 -0.00246,0.00126 -0.00391,0.00195 C 1.4757506,5.115625 0.48122538,6.0948823 0.12109375,7.1132812 -0.23931017,8.1324502 0.08308113,9.12094 0.62890625,9.9238281 1.7205565,11.529604 3.7226562,12.587891 3.7226562,12.587891 c 1.1678764,0.72315 6.1166756,1.261193 8.5546878,0 0,0 2.0021,-1.058287 3.09375,-2.6640629 C 15.916919,9.12094 16.23931,8.1324502 15.878906,7.1132812 15.518775,6.0948824 14.524249,5.115625 12.617188,4.2050781 12.596839,4.1938261 10.660949,3.1269531 8,3.1269531 Z"
     id="path4572"
     inkscape:connector-curvature="0"
     sodipodi:nodetypes="sccssccsscs" />
  <polygon
     transform="matrix(0.02674871,0,0,0.02674871,0.03958391,3.1143484)"
     style="fill:#db2c2d"
     points="388.4,342.9 445.5,342.6 373.4,69 297.6,219.4 221.9,69 149.8,342.6 206.9,342.9 237.2,224.4 297.6,352.2 358.1,224.4 "
     id="polygon5" />
  <path
     inkscape:connector-curvature="0"
     style="fill:#0097f1"
     d="m 8.0000001,4.0077551 c 2.1104739,0 3.9534589,1.0431998 3.9534589,1.0431998 4.520533,3.1081999 0.163167,7.2408761 0.163167,7.2408761 0,0 7.813299,-4.2236217 0.350409,-7.783875 0,0 -1.88311,-1.0431997 -4.4670349,-1.0431997 -2.5839256,0 -4.4670347,1.0431997 -4.4670347,1.0431997 -7.46289,3.5602533 0.350408,7.783875 0.350408,7.783875 0,0 -4.35736471,-4.1326762 0.1631671,-7.2408761 0,0 1.8456611,-1.0431998 3.9534596,-1.0431998 z"
     id="path7" />
</svg>
