<?xml version="1.0" encoding="UTF-8" standalone="no"?>
<!-- Created with Inkscape (http://www.inkscape.org/) -->

<svg
   xmlns:dc="http://purl.org/dc/elements/1.1/"
   xmlns:cc="http://creativecommons.org/ns#"
   xmlns:rdf="http://www.w3.org/1999/02/22-rdf-syntax-ns#"
   xmlns:svg="http://www.w3.org/2000/svg"
   xmlns="http://www.w3.org/2000/svg"
   xmlns:sodipodi="http://sodipodi.sourceforge.net/DTD/sodipodi-0.dtd"
   xmlns:inkscape="http://www.inkscape.org/namespaces/inkscape"
   version="1.0"
   width="580"
   height="580"
   id="svg2"
   sodipodi:version="0.32"
   inkscape:version="0.48.4 r9939"
   sodipodi:docname="tower_communications2.svg"
   inkscape:output_extension="org.inkscape.output.svg.inkscape">
  <metadata
     id="metadata10">
    <rdf:RDF>
      <cc:Work
         rdf:about="">
        <dc:format>image/svg+xml</dc:format>
        <dc:type
           rdf:resource="http://purl.org/dc/dcmitype/StillImage" />
        <cc:license
           rdf:resource="http://web.resource.org/cc/PublicDomain" />
        <dc:language>en</dc:language>
        <dc:title></dc:title>
      </cc:Work>
    </rdf:RDF>
  </metadata>
  <sodipodi:namedview
     inkscape:window-height="1004"
     inkscape:window-width="1920"
     inkscape:pageshadow="2"
     inkscape:pageopacity="0.0"
     guidetolerance="10.0"
     gridtolerance="10.0"
     objecttolerance="10.0"
     borderopacity="1.0"
     bordercolor="#666666"
     pagecolor="#ffffff"
     id="base"
     showgrid="false"
     inkscape:zoom="0.90509668"
     inkscape:cx="441.06455"
     inkscape:cy="356.07164"
     inkscape:window-x="1680"
     inkscape:window-y="0"
     inkscape:current-layer="svg2"
     inkscape:window-maximized="1" />
  <defs
     id="defs4">
    <inkscape:perspective
       sodipodi:type="inkscape:persp3d"
       inkscape:vp_x="0 : 290 : 1"
       inkscape:vp_y="0 : 1000 : 0"
       inkscape:vp_z="580 : 290 : 1"
       inkscape:persp3d-origin="290 : 193.33333 : 1"
       id="perspective12" />
    <style
       type="text/css"
       id="style6">
   
    .fil0 {fill:#EF7900}
   
  </style>
    <inkscape:perspective
       id="perspective6807"
       inkscape:persp3d-origin="29.116032 : 19.410688 : 1"
       inkscape:vp_z="58.232063 : 29.116032 : 1"
       inkscape:vp_y="0 : 1000 : 0"
       inkscape:vp_x="0 : 29.116032 : 1"
       sodipodi:type="inkscape:persp3d" />
    <inkscape:perspective
       id="perspective6954"
       inkscape:persp3d-origin="290 : 193.33333 : 1"
       inkscape:vp_z="580 : 290 : 1"
       inkscape:vp_y="0 : 1000 : 0"
       inkscape:vp_x="0 : 290 : 1"
       sodipodi:type="inkscape:persp3d" />
    <inkscape:perspective
       id="perspective2541"
       inkscape:persp3d-origin="240 : 160 : 1"
       inkscape:vp_z="480 : 240 : 1"
       inkscape:vp_y="0 : 1000 : 0"
       inkscape:vp_x="0 : 240 : 1"
       sodipodi:type="inkscape:persp3d" />
    <inkscape:perspective
       id="perspective2750"
       inkscape:persp3d-origin="215 : 143.33333 : 1"
       inkscape:vp_z="430 : 215 : 1"
       inkscape:vp_y="0 : 1000 : 0"
       inkscape:vp_x="0 : 215 : 1"
       sodipodi:type="inkscape:persp3d" />
    <inkscape:perspective
       id="perspective3730"
       inkscape:persp3d-origin="88.929146 : 101.19778 : 1"
       inkscape:vp_z="177.85829 : 151.79668 : 1"
       inkscape:vp_y="0 : 1000 : 0"
       inkscape:vp_x="0 : 151.79668 : 1"
       sodipodi:type="inkscape:persp3d" />
  </defs>
  <path
     style="font-size:medium;font-style:normal;font-variant:normal;font-weight:normal;font-stretch:normal;text-indent:0;text-align:start;text-decoration:none;line-height:normal;letter-spacing:normal;word-spacing:normal;text-transform:none;direction:ltr;block-progression:tb;writing-mode:lr-tb;text-anchor:start;baseline-shift:baseline;color:#000000;fill:#fefefe;fill-opacity:0.80578512;fill-rule:nonzero;stroke:none;stroke-width:4.81759071000000016;marker:none;visibility:visible;display:inline;overflow:visible;enable-background:accumulate;font-family:Sans;-inkscape-font-specification:Sans"
     d="m 434.125,1.84375 c -21.61827,0.1057641 -37.27354,23.65475 -33.34375,44 -12.16838,-5.100206 -27.76154,-4.555365 -37.25,5.59375 -8.50987,8.084845 -13.15125,20.160366 -12.09375,31.9375 -16.52419,-1.392549 -31.31197,12.332648 -34.875,27.4375 -12.81796,-4.5853 -28.1112,-5.26793 -40.9375,-0.34375 -4.14041,-15.288333 -19.26506,-27.643152 -35.0625,-27.1875 2.01735,-20.115082 -14.12935,-41.489141 -35.3125,-40.625 -4.65145,-0.423653 -11.01097,2.177077 -14.1875,2.25 C 196.5678,20.809159 170.96516,-4.1267565 147,3.25 122.57371,9.4259065 106.82933,31.19961 91.447468,49.601002 39.377498,117.20479 43.5771,222.11254 101.78111,284.72796 c 19.30801,22.33226 43.73221,42.93784 73.65639,47.89704 22.35459,-0.8091 38.71145,-25.58555 33.3125,-46.75 12.36007,2.38978 26.3489,-0.7231 34.8125,-10.34375 -15.77862,83.41833 -45.29205,165.33459 -93.98325,235.20124 -8.79776,13.73358 -12.78478,32.7585 -2.9855,47.08001 12.98454,20.21014 46.40521,24.69589 62.34375,5.59375 27.99,-29.06821 38.4303,-72.66647 72.04832,-96.67717 5.13846,-4.68886 10.22545,-9.39144 15.67043,-13.72908 25.3375,20.88943 48.56028,45.19098 62.67545,75.10009 10.42176,19.3308 23.8943,40.2211 46.1683,46.71241 25.47301,6.59388 50.56138,-19.5216 46.21875,-44.75 -1.98024,-13.0729 -11.99791,-22.7919 -18.07926,-34.07703 -14.07494,-21.20923 -27.11656,-42.9732 -36.42485,-66.77239 -22.00546,-48.75969 -37.60883,-100.45154 -47.55839,-153.02558 8.1658,8.86739 21.60083,13.0936 33.09375,9.9375 -5.50157,21.89942 12.71811,47.53148 36.1875,45.78125 23.77629,-1.0195 41.4815,-19.37297 58.53125,-33.84375 50.79032,-47.8125 73.34836,-125.32393 51.5,-192.375 C 515.47707,63.404124 488.07866,23.281154 447.15625,3.8125 442.99259,2.3867132 438.57577,1.5888663 434.125,1.84375 z"
     id="path1061-7"
     inkscape:connector-curvature="0" />
  <g
     id="g4365"
     style="fill:#292929;fill-opacity:1">
    <path
       id="path1061"
       d="M 296.15625 133.375 C 281.15595 133.83355 268.93344 144.06383 268.71875 156.65625 C 268.57177 165.2721 274.1094 172.89752 282.40625 177.125 C 282.42208 177.76821 282.44254 178.51984 282.46875 179.25 C 281.64292 196.00655 277.04396 248.71307 262.59375 310.75 C 246.39867 380.2779 217.74448 463.12247 169.46875 527.5625 A 14.018751 14.018751 0 1 0 191.90625 544.375 C 208.23456 522.57944 222.33116 499.14055 234.5 475 L 296.5625 417.5625 L 358.84375 475.21875 C 370.93208 499.1261 384.91466 522.3411 401.09375 543.9375 A 14.018751 14.018751 0 1 0 423.53125 527.125 C 375.25554 462.68493 346.60132 379.84042 330.40625 310.3125 C 316.09081 248.85411 311.41985 196.5144 310.53125 179.25 C 310.54708 178.77913 310.58242 178.24546 310.59375 177.8125 C 319.24495 173.94606 325.27275 166.46119 325.65625 157.8125 C 325.65703 157.7948 325.65552 157.7677 325.65625 157.75 C 325.65639 157.7323 325.65639 157.7052 325.65625 157.6875 C 325.66225 157.54366 325.71625 157.42573 325.71875 157.28125 C 325.7193 157.24595 325.7193 157.22284 325.71875 157.1875 C 325.7193 157.1522 325.7193 157.09784 325.71875 157.0625 C 325.76985 144.16124 313.13589 133.55774 297.59375 133.375 C 297.10435 133.36925 296.64013 133.36021 296.15625 133.375 z M 296.5625 286.09375 C 298.50593 295.90835 300.65789 306.09581 303.125 316.6875 C 303.8719 319.89405 304.63959 323.14546 305.4375 326.40625 L 296.71875 334.46875 L 287.75 326.15625 C 288.4888 323.12701 289.21162 320.10715 289.90625 317.125 C 292.41035 306.37452 294.59867 296.04243 296.5625 286.09375 z M 284.375 339.5 L 287.84375 342.6875 L 282.125 347.96875 C 282.89468 345.13727 283.64448 342.30157 284.375 339.5 z M 308.8125 339.71875 C 309.49729 342.33732 310.21857 344.98048 310.9375 347.625 L 305.59375 342.6875 L 308.8125 339.71875 z M 296.71875 350.90625 L 317.34375 370 C 317.97401 372.08051 318.62885 374.15999 319.28125 376.25 L 296.5625 397.3125 L 273.875 376.3125 C 274.49304 374.32997 275.0894 372.34894 275.6875 370.375 L 296.71875 350.90625 z M 324.34375 391.84375 C 329.69526 407.75715 335.70153 423.8315 342.46875 439.8125 L 307.5 407.4375 L 324.34375 391.84375 z M 268.8125 391.875 L 285.625 407.4375 L 250.8125 439.65625 C 257.53848 423.73405 263.48997 407.72462 268.8125 391.875 z "
       style="font-size:medium;font-style:normal;font-variant:normal;font-weight:normal;font-stretch:normal;text-indent:0;text-align:start;text-decoration:none;line-height:normal;letter-spacing:normal;word-spacing:normal;text-transform:none;direction:ltr;block-progression:tb;writing-mode:lr-tb;text-anchor:start;baseline-shift:baseline;color:#000000;fill:#292929;fill-opacity:1;fill-rule:nonzero;stroke:none;stroke-width:4.81759071000000016;marker:none;visibility:visible;display:inline;overflow:visible;enable-background:accumulate;font-family:Sans;-inkscape-font-specification:Sans" />
    <path
       inkscape:connector-curvature="0"
       id="path4190"
       d="m 437.41084,27.884673 a 12.304907,11.033095 0 0 0 -7.34158,19.357128 c 69.89331,55.863699 76.02358,151.621549 13.72034,214.290829 -9.10222,9.15569 -19.40515,17.28163 -30.69024,24.21327 a 12.305675,11.033784 0 0 0 13.90087,18.21054 c 12.92562,-7.93931 24.73296,-17.2608 35.15837,-27.74747 71.15243,-71.57045 64.09934,-181.639345 -15.72122,-245.43759 a 12.304907,11.033095 0 0 0 -9.02654,-2.886707 z"
       style="font-size:medium;font-style:normal;font-variant:normal;font-weight:normal;font-stretch:normal;text-indent:0;text-align:start;text-decoration:none;line-height:normal;letter-spacing:normal;word-spacing:normal;text-transform:none;direction:ltr;block-progression:tb;writing-mode:lr-tb;text-anchor:start;baseline-shift:baseline;color:#000000;fill:#292929;fill-opacity:1;stroke:none;stroke-width:51.11459732000000145;marker:none;visibility:visible;display:inline;overflow:visible;enable-background:accumulate;font-family:Sans;-inkscape-font-specification:Sans" />
    <path
       inkscape:connector-curvature="0"
       id="path4196"
       d="m 388.98153,68.440034 a 12.304907,11.033095 0 0 0 -7.29645,19.788785 c 44.9168,31.856811 52.48387,89.991771 16.95485,130.266051 -7.689,8.71594 -17.0554,16.12347 -27.66634,21.86614 a 12.304907,11.033095 0 1 0 12.71237,18.885 c 13.13519,-7.10879 24.73758,-16.27014 34.25572,-27.05951 C 461.721,182.56 452.30205,110.17644 396.95497,70.922063 a 12.304907,11.033095 0 0 0 -7.97344,-2.482029 z"
       style="font-size:medium;font-style:normal;font-variant:normal;font-weight:normal;font-stretch:normal;text-indent:0;text-align:start;text-decoration:none;line-height:normal;letter-spacing:normal;word-spacing:normal;text-transform:none;direction:ltr;block-progression:tb;writing-mode:lr-tb;text-anchor:start;baseline-shift:baseline;color:#000000;fill:#292929;fill-opacity:1;stroke:none;stroke-width:51.11459732000000145;marker:none;visibility:visible;display:block;overflow:visible;enable-background:accumulate;font-family:Sans;-inkscape-font-specification:Sans" />
    <path
       inkscape:connector-curvature="0"
       id="path4198"
       d="m 353.39028,109.36776 a 12.78932,10.615202 0 0 0 -7.5809,19.02667 c 19.84111,13.0263 23.15458,36.62131 7.46033,53.08953 -3.38478,3.5517 -7.50663,6.56653 -12.17767,8.90664 a 12.78932,10.615202 0 1 0 13.21759,18.17603 c 7.29468,-3.65449 13.73415,-8.36376 19.02007,-13.91036 24.26934,-25.46621 19.03182,-62.76806 -11.65017,-82.91174 a 12.78932,10.615202 0 0 0 -8.28925,-2.37677 z"
       style="font-size:medium;font-style:normal;font-variant:normal;font-weight:normal;font-stretch:normal;text-indent:0;text-align:start;text-decoration:none;line-height:normal;letter-spacing:normal;word-spacing:normal;text-transform:none;direction:ltr;block-progression:tb;writing-mode:lr-tb;text-anchor:start;baseline-shift:baseline;color:#000000;fill:#292929;fill-opacity:1;stroke:none;stroke-width:53.03118134000000339;marker:none;visibility:visible;display:block;overflow:visible;enable-background:accumulate;font-family:Sans;-inkscape-font-specification:Sans" />
    <path
       inkscape:connector-curvature="0"
       id="path4209"
       d="m 154.5113,28.132323 a 12.304907,11.033095 0 0 1 7.34158,19.357128 C 91.959566,103.35315 85.829304,199.111 148.13254,261.78028 c 9.10222,9.15569 19.40515,17.28163 30.69024,24.21327 a 12.305675,11.033784 0 0 1 -13.90087,18.21054 C 151.99629,296.26478 140.18895,286.94329 129.76354,276.45662 58.611112,204.88617 65.664204,94.817275 145.48476,31.01903 a 12.304907,11.033095 0 0 1 9.02654,-2.886707 z"
       style="font-size:medium;font-style:normal;font-variant:normal;font-weight:normal;font-stretch:normal;text-indent:0;text-align:start;text-decoration:none;line-height:normal;letter-spacing:normal;word-spacing:normal;text-transform:none;direction:ltr;block-progression:tb;writing-mode:lr-tb;text-anchor:start;baseline-shift:baseline;color:#000000;fill:#292929;fill-opacity:1;stroke:none;stroke-width:51.11459732000000145;marker:none;visibility:visible;display:inline;overflow:visible;enable-background:accumulate;font-family:Sans;-inkscape-font-specification:Sans" />
    <path
       inkscape:connector-curvature="0"
       id="path4210"
       d="m 202.94202,68.687664 a 12.304907,11.033095 0 0 1 7.29645,19.788785 c -44.9168,31.856811 -52.48387,89.991771 -16.95485,130.266051 7.689,8.71594 17.0554,16.12347 27.66634,21.86614 a 12.304907,11.033095 0 1 1 -12.71237,18.885 C 195.1024,252.38485 183.50001,243.2235 173.98187,232.43413 130.20255,182.80763 139.6215,110.42407 194.96858,71.169693 a 12.304907,11.033095 0 0 1 7.97344,-2.482029 z"
       style="font-size:medium;font-style:normal;font-variant:normal;font-weight:normal;font-stretch:normal;text-indent:0;text-align:start;text-decoration:none;line-height:normal;letter-spacing:normal;word-spacing:normal;text-transform:none;direction:ltr;block-progression:tb;writing-mode:lr-tb;text-anchor:start;baseline-shift:baseline;color:#000000;fill:#292929;fill-opacity:1;stroke:none;stroke-width:51.11459732000000145;marker:none;visibility:visible;display:block;overflow:visible;enable-background:accumulate;font-family:Sans;-inkscape-font-specification:Sans" />
    <path
       inkscape:connector-curvature="0"
       id="path4212"
       d="m 238.54388,109.5974 a 12.78932,10.615202 0 0 1 7.5809,19.02667 c -19.84111,13.0263 -23.15458,36.62131 -7.46033,53.08953 3.38478,3.5517 7.50663,6.56653 12.17767,8.90664 a 12.78932,10.615202 0 1 1 -13.21759,18.17603 c -7.29468,-3.65449 -13.73415,-8.36376 -19.02007,-13.91036 -24.26934,-25.46621 -19.03182,-62.76806 11.65017,-82.91174 a 12.78932,10.615202 0 0 1 8.28925,-2.37677 z"
       style="font-size:medium;font-style:normal;font-variant:normal;font-weight:normal;font-stretch:normal;text-indent:0;text-align:start;text-decoration:none;line-height:normal;letter-spacing:normal;word-spacing:normal;text-transform:none;direction:ltr;block-progression:tb;writing-mode:lr-tb;text-anchor:start;baseline-shift:baseline;color:#000000;fill:#292929;fill-opacity:1;stroke:none;stroke-width:53.03118134000000339;marker:none;visibility:visible;display:block;overflow:visible;enable-background:accumulate;font-family:Sans;-inkscape-font-specification:Sans" />
  </g>
</svg>
