<svg width="48" height="48" viewBox="0 0 48 48" fill="none" xmlns="http://www.w3.org/2000/svg">
<path fill-rule="evenodd" clip-rule="evenodd" d="M11.9995 0H35.9995V10.4244C36.287 10.658 36.5636 10.9072 36.8279 11.1716C38.8586 13.2023 39.9995 15.9565 39.9995 18.8284V36C39.9995 38.3292 39.0041 40.4258 37.4155 41.8879L40.4716 48H7.52734L10.5834 41.8879C8.99485 40.4258 7.99948 38.3292 7.99948 36V18.8284C7.99948 15.9565 9.14033 13.2023 11.1711 11.1716C11.4354 10.9072 11.712 10.658 11.9995 10.4244V0Z" fill="white" fill-opacity="0.75" />
<path fill-rule="evenodd" clip-rule="evenodd" d="M16 4H32V8H28L26 12H29.1716C30.9826 12 32.7194 12.7194 34 14C35.2806 15.2806 36 17.0174 36 18.8284V36C36 38.2091 34.2091 40 32 40L34 44H14L16 40C13.7909 40 12 38.2091 12 36V18.8284C12 17.0174 12.7194 15.2806 14 14C15.2806 12.7194 17.0174 12 18.8284 12H22L24 8H16V4ZM32 28V20H16V28H32ZM18 36C19.1046 36 20 35.1046 20 34C20 32.8954 19.1046 32 18 32C16.8954 32 16 32.8954 16 34C16 35.1046 16.8954 36 18 36ZM32 34C32 35.1046 31.1046 36 30 36C28.8954 36 28 35.1046 28 34C28 32.8954 28.8954 32 30 32C31.1046 32 32 32.8954 32 34Z" fill="#0092DA" />
</svg>