<?xml version="1.0" encoding="UTF-8" standalone="no"?>
<svg
   xmlns:dc="http://purl.org/dc/elements/1.1/"
   xmlns:cc="http://creativecommons.org/ns#"
   xmlns:rdf="http://www.w3.org/1999/02/22-rdf-syntax-ns#"
   xmlns:svg="http://www.w3.org/2000/svg"
   xmlns="http://www.w3.org/2000/svg"
   xmlns:sodipodi="http://sodipodi.sourceforge.net/DTD/sodipodi-0.dtd"
   xmlns:inkscape="http://www.inkscape.org/namespaces/inkscape"
   width="580"
   height="580"
   id="svg2"
   version="1.1"
   inkscape:version="0.48.4 r9939"
   sodipodi:docname="tree_palm.svg">
  <defs
     id="defs13" />
  <sodipodi:namedview
     pagecolor="#ffffff"
     bordercolor="#666666"
     borderopacity="1"
     objecttolerance="10"
     gridtolerance="10"
     guidetolerance="10"
     inkscape:pageopacity="0"
     inkscape:pageshadow="2"
     inkscape:window-width="1920"
     inkscape:window-height="1004"
     id="namedview11"
     showgrid="false"
     inkscape:zoom="0.40689655"
     inkscape:cx="12.789104"
     inkscape:cy="395.02171"
     inkscape:window-x="1680"
     inkscape:window-y="0"
     inkscape:window-maximized="1"
     inkscape:current-layer="g5" />
  <metadata
     id="metadata2975">image/svg+xmlen<rdf:RDF>
  <cc:Work
     rdf:about="">
    <dc:format>image/svg+xml</dc:format>
    <dc:type
       rdf:resource="http://purl.org/dc/dcmitype/StillImage" />
    <dc:title></dc:title>
  </cc:Work>
</rdf:RDF>
</metadata>
  <g
     id="g5"
     style="fill:#2f2f2f;fill-opacity:1;stroke:#fefefe;stroke-width:65.80000305;stroke-linecap:butt;stroke-linejoin:round;stroke-miterlimit:4;stroke-opacity:0.68181817;stroke-dasharray:none"
     transform="translate(7.413675,0)">
    <title
       id="title7">Layer 1</title>
    <path
       style="fill:#51401d;fill-opacity:1;stroke:none"
       d="m 297.67268,452.78827 c -11.33626,16.47396 44.931,16.46359 38.57364,5.63918 -7.29553,-44.24965 -26.03179,-172.85217 -43.45241,-222.41182 -9.30818,-26.48068 -31.07676,-8.81811 -31.07676,-8.81811 0,0 48.81381,202.19302 35.95553,225.59075 z"
       id="path3756"
       inkscape:connector-curvature="0"
       sodipodi:nodetypes="ccscc" />
    <g
       id="g1327"
       style="fill:#2f2f2f;fill-opacity:1;stroke:#fefefe;stroke-width:65.80000305;stroke-linecap:butt;stroke-linejoin:round;stroke-miterlimit:4;stroke-opacity:0.68181817;stroke-dasharray:none" />
    <path
       style="fill:#3e9f1d;fill-opacity:1;stroke:none"
       d="m 175.45779,369.39164 c -36.96453,-89.53111 -7.39019,-124.60696 32.73878,-157.17269 -7.57346,-2.01051 -22.23427,-0.84563 -22.28593,-0.69064 l -2.34819,-8.10077 -4.72782,9.22821 c -21.60002,6.67637 -61.45663,30.80521 -66.5745,40.41088 19.78141,-51.42451 74.71861,-89.71168 143.61771,-68.92808 57.22188,-70.87242 143.72858,-47.6948 151.05201,-45.51795 -27.01057,9.75716 -61.80766,0.98388 -105.56605,51.27789 100.06149,-16.92796 128.30444,72.28569 134.20527,109.97134 -9.14819,-28.75568 -55.53997,-53.87466 -66.27478,-60.95235 l -0.72765,-14.86013 -6.89911,11.71777 c -17.64485,-9.89322 -43.32466,-16.54156 -59.27967,-15.38636 18.40573,6.78506 62.48409,34.43856 69.5561,99.92151 -32.89971,-55.08737 -83.71502,-81.34912 -100.42134,-87.93157 -22.77021,14.35175 -30.09265,102.00941 -2.51993,142.38726 -29.27649,-26.83773 -60.92061,-65.63392 -46.06016,-127.11626 -19.58951,4.78008 -36.71239,39.82626 -35.65117,39.69361 l -8.99142,1.26212 6.7882,5.23925 c -5.92573,11.24529 -10.94538,61.43515 -9.63039,75.54696 z"
       id="path2986"
       inkscape:connector-curvature="0"
       sodipodi:nodetypes="ccccccccccccccccccccccc" />
    <path
       style="fill:#c89c53;fill-opacity:1;stroke:none"
       d="m 310.74915,422.85729 15.08889,-4.20677 0.5945,7.96514 z"
       id="path3754"
       inkscape:connector-curvature="0" />
    <path
       style="fill:#c89c53;fill-opacity:1;stroke:none"
       d="m 304.93666,390.63865 15.3879,-2.73882 0.59971,5.20078 z"
       id="path3754-1"
       inkscape:connector-curvature="0" />
    <path
       style="fill:#c89c53;fill-opacity:1;stroke:none"
       d="m 299.01519,355.95354 15.09222,-4.19482 0.89539,4.27917 z"
       id="path3754-6"
       inkscape:connector-curvature="0"
       sodipodi:nodetypes="cccc" />
    <path
       style="fill:#c89c53;fill-opacity:1;stroke:none"
       d="m 294.09994,326.76922 12.02019,-6.03804 3.96742,5.20078 z"
       id="path3754-8"
       inkscape:connector-curvature="0"
       sodipodi:nodetypes="cccc" />
    <path
       style="fill:#c89c53;fill-opacity:1;stroke:none"
       d="m 284.46349,288.67446 14.28273,-5.23181 1.83277,5.85207 z"
       id="path3754-5"
       inkscape:connector-curvature="0"
       sodipodi:nodetypes="cccc" />
    <path
       style="fill:#c89c53;fill-opacity:1;stroke:none"
       d="m 312.32232,449.87665 19.07947,-2.23979 -3.39906,6.01058 z"
       id="path3754-9"
       inkscape:connector-curvature="0"
       sodipodi:nodetypes="cccc" />
  </g>
</svg>
