<?xml version="1.0" encoding="UTF-8" standalone="no"?>
<!-- Created with Inkscape (http://www.inkscape.org/) -->

<svg
   xmlns:dc="http://purl.org/dc/elements/1.1/"
   xmlns:cc="http://creativecommons.org/ns#"
   xmlns:rdf="http://www.w3.org/1999/02/22-rdf-syntax-ns#"
   xmlns:svg="http://www.w3.org/2000/svg"
   xmlns="http://www.w3.org/2000/svg"
   xmlns:sodipodi="http://sodipodi.sourceforge.net/DTD/sodipodi-0.dtd"
   xmlns:inkscape="http://www.inkscape.org/namespaces/inkscape"
   version="1.0"
   width="580"
   height="580"
   id="svg2"
   sodipodi:version="0.32"
   inkscape:version="0.48.4 r9939"
   sodipodi:docname="zebra_crossing2.svg"
   inkscape:output_extension="org.inkscape.output.svg.inkscape">
  <metadata
     id="metadata2975">
    <rdf:RDF>
      <cc:Work
         rdf:about="">
        <dc:format>image/svg+xml</dc:format>
        <dc:type
           rdf:resource="http://purl.org/dc/dcmitype/StillImage" />
        <cc:license
           rdf:resource="http://web.resource.org/cc/PublicDomain" />
        <dc:language>en</dc:language>
        <dc:title></dc:title>
      </cc:Work>
    </rdf:RDF>
  </metadata>
  <sodipodi:namedview
     inkscape:window-height="870"
     inkscape:window-width="1063"
     inkscape:pageshadow="2"
     inkscape:pageopacity="0.0"
     guidetolerance="10.0"
     gridtolerance="10.0"
     objecttolerance="10.0"
     borderopacity="1.0"
     bordercolor="#666666"
     pagecolor="#ffffff"
     id="base"
     inkscape:zoom="0.6359572"
     inkscape:cx="237.94243"
     inkscape:cy="422.32491"
     inkscape:window-x="75"
     inkscape:window-y="31"
     inkscape:current-layer="svg2"
     showgrid="false"
     inkscape:window-maximized="0" />
  <defs
     id="defs4">
    <inkscape:perspective
       sodipodi:type="inkscape:persp3d"
       inkscape:vp_x="0 : 290 : 1"
       inkscape:vp_y="0 : 1000 : 0"
       inkscape:vp_z="580 : 290 : 1"
       inkscape:persp3d-origin="290 : 193.33333 : 1"
       id="perspective2441" />
    <inkscape:perspective
       id="perspective3452"
       inkscape:persp3d-origin="30 : 20 : 1"
       inkscape:vp_z="60 : 30 : 1"
       inkscape:vp_y="0 : 1000 : 0"
       inkscape:vp_x="0 : 30 : 1"
       sodipodi:type="inkscape:persp3d" />
    <symbol
       viewBox="244.5 110 489 219.9"
       id="symbol-university">
      <path
         id="path4460"
         d="M79,43l57,119c0,0,21-96,104-96s124,106,124,106l43-133l82-17L0,17L79,43z" />
      <path
         id="path4462"
         d="M94,176l-21,39"
         stroke-width="20"
         stroke="#000000"
         fill="none" />
      <path
         id="path4464"
         d="M300,19c0,10.5-22.6,19-50.5,19S199,29.5,199,19s22.6-19,50.5-19S300,8.5,300,19z" />
      <path
         id="path4466"
         d="M112,216l-16-38L64,88c0,0-9-8-4-35s16-24,16-24"
         stroke-width="20"
         stroke="#000000"
         ill="none" />
    </symbol>
    <inkscape:perspective
       id="perspective4471"
       inkscape:persp3d-origin="372.04724 : 350.78739 : 1"
       inkscape:vp_z="744.09448 : 526.18109 : 1"
       inkscape:vp_y="0 : 1000 : 0"
       inkscape:vp_x="0 : 526.18109 : 1"
       sodipodi:type="inkscape:persp3d" />
    <inkscape:perspective
       id="perspective4668"
       inkscape:persp3d-origin="6 : 4 : 1"
       inkscape:vp_z="12 : 6 : 1"
       inkscape:vp_y="0 : 1000 : 0"
       inkscape:vp_x="0 : 6 : 1"
       sodipodi:type="inkscape:persp3d" />
  </defs>
  <path
     style="font-size:medium;font-style:normal;font-variant:normal;font-weight:normal;font-stretch:normal;text-indent:0;text-align:start;text-decoration:none;line-height:normal;letter-spacing:normal;word-spacing:normal;text-transform:none;direction:ltr;block-progression:tb;writing-mode:lr-tb;text-anchor:start;baseline-shift:baseline;color:#000000;fill:#fefefe;fill-opacity:0.87330317;stroke:none;stroke-width:150;marker:none;visibility:visible;display:inline;overflow:visible;enable-background:accumulate;font-family:Sans;-inkscape-font-specification:Sans"
     d="m 308.38751,20.507429 c -3.81963,-0.0131 -7.97069,0.311159 -12.31422,0.858318 l 0,-0.09904 c -1.06824,0.125292 -2.11138,0.331609 -3.16934,0.495183 -0.43254,0.06967 -0.81651,0.0883 -1.25454,0.165061 l 0,0.03301 c -36.46882,6.177939 -66.40695,34.759129 -75.07383,68.467322 -2.62244,10.199431 -2.75099,21.750531 -0.79234,33.441371 l -52.78939,39.61465 c -13.84056,10.39459 -24.11663,25.44804 -28.75519,42.12358 l -17.29934,62.16199 c -3.00661,10.84141 -3.66819,22.32673 -1.92631,33.44163 1.74188,11.11491 5.88533,21.84729 12.0644,31.24932 12.35815,18.80405 33.07169,31.88914 55.36169,34.97291 l 0.72631,9.1774 -32.74989,70.8442 c 0,0 -18.39916,62.43233 38.06731,94.82113 56.46648,32.3888 105.74168,-28.30153 105.74168,-28.30153 l 15.71466,-33.96956 c 0,0 25.72956,84.18917 94.58697,63.98312 68.85742,-20.20605 49.38709,-92.43965 49.38709,-92.43965 l -20.13854,-101.9417 c -5.95892,-18.36756 -14.69184,2.75869 13.6255,-29.97246 12.24858,-14.57114 18.97693,-33.67305 18.564,-52.70353 -0.41295,-19.03049 -7.96356,-37.82259 -20.83268,-51.84877 l -55.49654,-60.51138 c 9.87661,-17.98241 14.9185,-40.23239 9.11186,-63.845611 l 0.099,-0.03296 c -0.27149,-1.127507 -0.62293,-2.170077 -0.92439,-3.268209 -0.14977,-0.519736 -0.23554,-1.030712 -0.39617,-1.551574 l -0.033,0 C 384.29336,40.497612 345.55658,20.645548 308.42053,20.507429 c -0.011,-2e-6 -0.022,-2e-6 -0.033,0 z"
     id="path5329-1"
     inkscape:connector-curvature="0"
     sodipodi:nodetypes="ccccccsccccssccczcczcccscccccccccc" />
  <g
     id="g3000"
     transform="matrix(1.056448,0,0,1.0563907,-7.3504094,-3.727698)"
     style="fill:none;stroke:#0092da;stroke-width:0.94659376;stroke-opacity:1">
    <path
       sodipodi:nodetypes="cc"
       id="path4817"
       d="m 278.88018,195.1665 -12.64267,84.21797"
       style="fill:none;stroke:#0092da;stroke-width:78.37244415;stroke-linecap:round;stroke-linejoin:round;stroke-miterlimit:4;stroke-opacity:1;stroke-dasharray:none"
       inkscape:connector-curvature="0" />
    <path
       sodipodi:nodetypes="ccc"
       id="path5329"
       d="M 372.24046,261.17592 329.26655,233.70113 299.34517,181.70721"
       style="fill:none;stroke:#0092da;stroke-width:34.43317413;stroke-linecap:round;stroke-linejoin:round;stroke-miterlimit:4;stroke-opacity:1;stroke-dasharray:none"
       inkscape:connector-curvature="0" />
    <path
       sodipodi:nodetypes="cc"
       id="path5331"
       d="M 362.24242,448.88842 343.15595,352.37155"
       style="fill:none;stroke:#0092da;stroke-width:43.62239838;stroke-linecap:round;stroke-linejoin:round;stroke-miterlimit:4;stroke-opacity:1;stroke-dasharray:none"
       inkscape:connector-curvature="0" />
    <path
       sodipodi:nodetypes="cc"
       id="path5333"
       d="m 270.39007,277.49829 69.35725,72.32267"
       style="fill:none;stroke:#0092da;stroke-width:47.63607788;stroke-linecap:round;stroke-linejoin:round;stroke-miterlimit:4;stroke-opacity:1;stroke-dasharray:none"
       inkscape:connector-curvature="0" />
    <path
       style="fill:none;stroke:#0092da;stroke-width:47.63607788;stroke-linecap:round;stroke-linejoin:round;stroke-miterlimit:4;stroke-opacity:1;stroke-dasharray:none"
       d="m 248.33383,280.34356 6.97131,90.1388"
       id="path5335"
       sodipodi:nodetypes="cc"
       inkscape:connector-curvature="0" />
    <path
       style="fill:none;stroke:#0092da;stroke-width:47.8537941;stroke-linecap:round;stroke-linejoin:round;stroke-miterlimit:4;stroke-opacity:1;stroke-dasharray:none"
       d="m 216.61347,461.92661 40.24219,-87.05913"
       id="path5337"
       sodipodi:nodetypes="cc"
       inkscape:connector-curvature="0" />
    <path
       style="fill:none;stroke:#0092da;stroke-width:51.57966614;stroke-linecap:round;stroke-linejoin:round;stroke-miterlimit:4;stroke-opacity:1;stroke-dasharray:none"
       d="m 295.17543,101.49159 c -12.2201,1.43336 -16.19518,17.03553 -5.74268,22.0534 9.59081,5.84121 24.42143,-3.29975 21.35098,-13.25723 -1.44444,-5.99905 -8.51614,-10.03882 -15.6083,-8.79617 z"
       id="path5339"
       inkscape:connector-curvature="0" />
    <path
       style="fill:none;stroke:#0092da;stroke-width:34.43317413;stroke-linecap:round;stroke-linejoin:round;stroke-miterlimit:4;stroke-opacity:1;stroke-dasharray:none"
       d="m 189.10949,280.46139 16.36009,-58.84294 59.67344,-44.76783"
       id="path5417"
       sodipodi:nodetypes="ccc"
       inkscape:connector-curvature="0" />
  </g>
</svg>
