<svg width="580" height="580" viewBox="0 0 580 580" fill="none" xmlns="http://www.w3.org/2000/svg">
<g clip-path="url(#clip0)">
<path d="M66.275 3.18221C24.94 3.18221 1.704 24.5532 1.704 68.2182V518.341C1.704 559.185 22.599 580.57 63.896 580.57H515.92C557.227 580.57 578.149 560.255 578.149 518.341V68.2182C578.149 25.6172 557.227 3.18221 514.628 3.18221C514.624 3.18221 66.133 3.03921 66.275 3.18221V3.18221Z" fill="#111111" stroke="#EEEEEE" stroke-width="3.408"/>
<path d="M389.863 375.623C392.345 372.508 394.982 369.529 397.819 366.737C415.414 349.422 439.517 338.704 466.09 338.704C478.422 338.704 490.175 341.1 501.042 345.295V292.469H475.747V225.022H504.872V206.628H317.749V225.022H343.814L307.124 300.139H178.071C178.071 300.139 162.743 297.073 160.832 317.385L137.646 369.119L152.782 416.439C160.956 412.133 170.24 409.662 180.101 409.662C200.344 409.662 218.237 419.952 228.812 435.572L368.775 438.657C368.757 437.813 368.651 436.994 368.651 436.144C368.651 413.275 376.625 392.267 389.863 375.623V375.623ZM367.583 233.451H447.391L448.162 329.265H325.314L367.583 233.451ZM174.242 321.001H255.492V335.334H174.242V321.001ZM174.242 352.053H255.492V366.396H174.242V352.053Z" fill="white"/>
<path d="M477.219 406.127C473.746 404.843 470.009 404.103 466.09 404.103C463.245 404.103 460.491 404.511 457.863 405.208C444.166 408.849 434.049 421.305 434.049 436.144C434.049 453.835 448.399 468.184 466.089 468.184C483.792 468.184 498.131 453.835 498.131 436.144C498.131 422.371 489.424 410.655 477.219 406.127V406.127Z" fill="white"/>
<path d="M180.101 425.017C172.477 425.017 165.327 426.997 159.096 430.44C145.731 437.849 136.673 452.083 136.673 468.445C136.673 492.426 156.115 511.873 180.101 511.873C204.087 511.873 223.529 492.426 223.529 468.445C223.529 458.066 219.874 448.546 213.799 441.071C205.835 431.284 193.703 425.017 180.101 425.017V425.017ZM180.101 491.691C167.26 491.691 156.855 481.281 156.855 468.445C156.855 455.609 167.26 445.199 180.101 445.199C192.942 445.199 203.347 455.609 203.347 468.445C203.347 481.281 192.942 491.691 180.101 491.691V491.691Z" fill="white"/>
<path d="M546.652 448.561V423.698H541.634C541.402 422.3 541.179 420.897 540.876 419.527L545.484 417.675L536.228 394.602L531.573 396.466C530.54 394.771 529.456 393.109 528.301 391.498L531.837 387.961L514.256 370.38L510.909 373.726L510.718 373.916C509.567 373.092 508.399 372.3 507.21 371.536L507.283 371.362L509.17 366.95L497.706 362.049L486.311 357.176L484.34 361.779C482.421 361.308 480.478 360.915 478.507 360.595V355.576H453.644V360.6C452.24 360.83 450.843 361.055 449.467 361.358L447.62 356.755L424.549 366.012L426.412 370.66C425.065 371.48 423.722 372.3 422.432 373.193C422.088 373.428 421.775 373.692 421.438 373.934L420.714 373.209L417.908 370.403L415.044 373.26L407.472 380.839L400.325 387.985L403.863 391.521C403.037 392.672 402.246 393.834 401.482 395.029L396.89 393.07L387.124 415.929L391.727 417.9C391.254 419.814 390.862 421.757 390.542 423.727H385.529V438.581V448.59H390.547C390.778 449.994 391.002 451.391 391.305 452.773L386.701 454.619L395.959 477.691L400.614 475.828C401.647 477.528 402.729 479.185 403.886 480.796L400.35 484.332L417.931 501.914L421.467 498.377C422.618 499.197 423.786 499.994 424.982 500.751L423.017 505.349L445.876 515.116L447.847 510.513C449.76 510.979 451.703 511.372 453.674 511.692V516.711H478.536V511.687C479.94 511.457 481.338 511.233 482.714 510.929L484.565 515.539L507.638 506.281L505.775 501.622C507.469 500.589 509.131 499.512 510.743 498.355L514.279 501.892L531.86 484.309L528.318 480.768C529.144 479.623 529.934 478.455 530.698 477.259L535.29 479.224L545.063 456.366L540.454 454.395C540.926 452.475 541.319 450.533 541.639 448.562H546.652V448.561ZM466.09 484.045C439.639 484.045 418.189 462.595 418.189 436.144C418.189 427.909 420.272 420.161 423.932 413.392C425.723 410.08 427.934 407.032 430.427 404.248C432.28 402.176 434.3 400.256 436.49 398.532C444.642 392.11 454.909 388.243 466.091 388.243C481.304 388.243 494.833 395.361 503.609 406.414C510.091 414.588 513.994 424.906 513.994 436.145C513.992 462.595 492.548 484.045 466.09 484.045V484.045Z" fill="white"/>
<path d="M177.123 20.2279L140.029 20.7279L131.966 56.6029C124.186 58.51 116.786 61.3908 109.904 65.1029L78.2476 43.8529L52.3726 70.4467L72.4038 102.04C69.248 107.689 66.6926 113.687 64.7476 119.978L30.7788 126.665L31.2788 163.759L63.4351 170.978C65.1883 177.853 67.7267 184.43 70.9038 190.603L51.5288 219.978L79.2788 246.853L108.216 229.447C115.408 233.519 123.191 236.661 131.404 238.728L137.591 268.79L176.216 268.134L184.029 236.759C189.42 234.964 194.591 232.706 199.498 230.009L226.06 247.54L252.904 219.759L236.685 192.79C240.043 186.671 242.718 180.143 244.654 173.29L279.341 166.165L278.685 127.54L243.654 118.822C241.641 112.6 239.011 106.68 235.81 101.103L255.216 72.1967L228.623 46.2904L198.935 65.1342C194.416 62.6907 189.675 60.6003 184.748 58.9154L177.123 20.2279ZM155.915 107.634C176.304 107.634 192.81 124.192 192.81 144.582C192.81 164.972 176.304 181.478 155.915 181.478C135.525 181.478 118.966 164.972 118.966 144.582C118.966 124.192 135.525 107.634 155.915 107.634V107.634Z" fill="white"/>
</g>
<defs>
<clipPath id="clip0">
<path d="M0 0H580V580H0V0Z" fill="white"/>
</clipPath>
</defs>
</svg>
