<?xml version="1.0" encoding="UTF-8" standalone="no"?>
<!-- Created with Inkscape (http://www.inkscape.org/) -->

<svg
   xmlns:dc="http://purl.org/dc/elements/1.1/"
   xmlns:cc="http://creativecommons.org/ns#"
   xmlns:rdf="http://www.w3.org/1999/02/22-rdf-syntax-ns#"
   xmlns:svg="http://www.w3.org/2000/svg"
   xmlns="http://www.w3.org/2000/svg"
   xmlns:sodipodi="http://sodipodi.sourceforge.net/DTD/sodipodi-0.dtd"
   xmlns:inkscape="http://www.inkscape.org/namespaces/inkscape"
   version="1.0"
   width="580"
   height="580"
   id="svg2"
   sodipodi:version="0.32"
   inkscape:version="0.92.3 (2405546, 2018-03-11)"
   sodipodi:docname="builder.svg"
   inkscape:output_extension="org.inkscape.output.svg.inkscape">
  <metadata
     id="metadata10">
    <rdf:RDF>
      <cc:Work
         rdf:about="">
        <dc:format>image/svg+xml</dc:format>
        <dc:type
           rdf:resource="http://purl.org/dc/dcmitype/StillImage" />
        <cc:license
           rdf:resource="http://web.resource.org/cc/PublicDomain" />
        <dc:language>en</dc:language>
      </cc:Work>
    </rdf:RDF>
  </metadata>
  <sodipodi:namedview
     inkscape:window-height="1006"
     inkscape:window-width="1920"
     inkscape:pageshadow="2"
     inkscape:pageopacity="0.0"
     guidetolerance="10.0"
     gridtolerance="10.0"
     objecttolerance="10.0"
     borderopacity="1.0"
     bordercolor="#666666"
     pagecolor="#ffffff"
     id="base"
     showgrid="false"
     inkscape:zoom="0.5"
     inkscape:cx="154.4494"
     inkscape:cy="253.74479"
     inkscape:window-x="1920"
     inkscape:window-y="0"
     inkscape:current-layer="svg2"
     inkscape:window-maximized="1" />
  <defs
     id="defs4">
    <inkscape:perspective
       sodipodi:type="inkscape:persp3d"
       inkscape:vp_x="0 : 290 : 1"
       inkscape:vp_y="0 : 1000 : 0"
       inkscape:vp_z="580 : 290 : 1"
       inkscape:persp3d-origin="290 : 193.33333 : 1"
       id="perspective12" />
    <style
       type="text/css"
       id="style6">
   
    .fil0 {fill:#EF7900}
   
  </style>
    <inkscape:perspective
       id="perspective6807"
       inkscape:persp3d-origin="29.116032 : 19.410688 : 1"
       inkscape:vp_z="58.232063 : 29.116032 : 1"
       inkscape:vp_y="0 : 1000 : 0"
       inkscape:vp_x="0 : 29.116032 : 1"
       sodipodi:type="inkscape:persp3d" />
  </defs>
  <g
     id="g1327">
    <path
       d="M 66.275,1.768 C 24.94,1.768 1.704,23.139 1.704,66.804 L 1.704,516.927 C 1.704,557.771 22.598,579.156 63.896,579.156 L 515.92,579.156 C 557.227,579.156 578.149,558.84 578.149,516.927 L 578.149,66.804 C 578.149,24.203 557.227,1.768 514.627,1.768 C 514.624,1.768 66.133,1.625 66.275,1.768 z"
       style="fill:#111111;stroke:#eeeeee;stroke-width:3.40799999"
       id="path1329" />
  </g>
  <path
     style="color:#000000;clip-rule:nonzero;display:inline;overflow:visible;visibility:visible;opacity:1;isolation:auto;mix-blend-mode:normal;color-interpolation:sRGB;color-interpolation-filters:linearRGB;solid-color:#000000;solid-opacity:1;fill:#ffffff;fill-opacity:1;fill-rule:nonzero;stroke:none;stroke-width:25.00000191;stroke-linecap:round;stroke-linejoin:round;stroke-miterlimit:4;stroke-dasharray:none;stroke-dashoffset:0;stroke-opacity:1;marker:none;color-rendering:auto;image-rendering:auto;shape-rendering:auto;text-rendering:auto;enable-background:accumulate"
     d="m 245.19336,22.832031 c -14.65901,0.06289 -43.40447,5.624816 -40.87109,13.740235 l 14.51953,46.0625 c 1.94674,5.920705 -1.33363,12.286378 -7.28516,14.136718 -5.95153,1.85034 -12.26607,-1.532883 -14.01953,-7.513672 L 185.44727,50.369141 C 161.29096,68.692615 144.30161,97.30118 137.83203,129.93359 h -1.91992 c -6.83426,-0.0811 -12.41788,5.43675 -12.41788,12.27149 0,6.83473 5.58362,12.35253 12.41788,12.27148 H 354.125 c 6.83426,0.0811 12.41788,-5.43675 12.41788,-12.27148 0,-6.83474 -5.58362,-12.35254 -12.41788,-12.27149 h -1.91211 C 345.37636,95.331553 326.7281,65.328454 300.39258,47.253906 l -13.05469,42.003906 c -1.75346,5.98079 -8.068,9.364012 -14.01953,7.513672 -5.95152,-1.85034 -9.23189,-8.216013 -7.28516,-14.136718 l 16.26563,-48.363282 c 0.0553,-7.928013 -24.19534,-11.400909 -37.10547,-11.439453 z M 145.54688,194.13477 c -0.61293,5.07992 -0.93554,10.26711 -0.93555,15.53906 0,62.53711 44.51721,113.23047 99.42773,113.23047 54.91054,0 99.41992,-50.69336 99.41992,-113.23047 0,-5.27211 -0.32033,-10.45906 -0.93359,-15.53906 z m 12.96484,163.32031 c -33.62654,0 -62.481505,20.42913 -74.832032,49.55859 l -6.416016,78.31445 v 58.80665 H 327.41992 v -40.67383 c -1.81995,-3.27041 -2.77648,-6.95066 -2.7793,-10.69336 v -46.06055 c 0.009,-0.76961 0.0575,-1.53824 0.14649,-2.30273 h -55.05664 c -12.16287,-8.1e-4 -22.02263,-9.86057 -22.02344,-22.02344 v -46.0625 c 0.0114,-7.73155 4.0759,-14.89098 10.70899,-18.86328 z m 188.15234,157.33594 v 29.34375 h 64.14453 v -29.34375 z"
     id="path4178"
     inkscape:connector-curvature="0"
     sodipodi:nodetypes="cccsccccsccsccccscccccssccsccccccccccccsccccc" />
  <path
     style="color:#000000;clip-rule:nonzero;display:inline;overflow:visible;visibility:visible;opacity:1;isolation:auto;mix-blend-mode:normal;color-interpolation:sRGB;color-interpolation-filters:linearRGB;solid-color:#000000;solid-opacity:1;vector-effect:none;fill:#ffffff;fill-opacity:1;fill-rule:nonzero;stroke:none;stroke-width:20;stroke-linecap:round;stroke-linejoin:miter;stroke-miterlimit:4;stroke-dasharray:none;stroke-dashoffset:0;stroke-opacity:1;marker:none;paint-order:normal;color-rendering:auto;image-rendering:auto;shape-rendering:auto;text-rendering:auto;enable-background:accumulate"
     d="m 347.16406,304.83578 v 46.0625 h 124.45117 v -46.0625 z m 74,70.9082 v 46.0625 h 124.45117 v -46.0625 z m -151.43359,0.57422 v 46.0625 h 124.45117 v -46.0625 z m 76.93359,70.38867 v 46.06055 h 124.45117 v -46.06055 z"
     id="rect900"
     inkscape:connector-curvature="0" />
</svg>
