<svg width="580" height="580" viewBox="0 0 580 580" fill="none" xmlns="http://www.w3.org/2000/svg">
<g clip-path="url(#clip0)">
<path d="M66.2751 1.76799C24.9401 1.76799 1.7041 23.139 1.7041 66.804V516.927C1.7041 557.771 22.5991 579.156 63.8961 579.156H515.92C557.227 579.156 578.149 558.841 578.149 516.927V66.804C578.149 24.203 557.227 1.76799 514.628 1.76799C514.624 1.76799 66.1331 1.62499 66.2751 1.76799Z" fill="#111111" stroke="#EEEEEE" stroke-width="3.408"/>
<path d="M48.4883 333.451V317.158H68.3496H88.2108L89.441 305.178C90.1175 298.59 92.8206 285.172 95.4478 275.361C115.178 201.68 174.594 145.661 249.4 130.209C257.437 128.549 264.257 126.946 264.557 126.647C264.856 126.347 262.932 115.453 260.281 102.437C257.402 88.3006 256.19 78.3203 257.272 77.6517C258.268 77.0361 266.255 74.0591 275.021 71.0361L290.958 65.5399L305.366 70.6832C326.741 78.3137 325.457 75.8762 320.718 99.8261C318.447 111.302 316.203 122.049 315.731 123.709C315.057 126.08 317.47 127.207 326.963 128.956C411.627 144.556 478.114 214.418 489.774 300.032L492.107 317.158H511.809H531.511V333.451V349.743H48.4883V333.451Z" fill="white"/>
<path d="M393.736 464.279L291.592 511.345C291.592 511.345 279.575 518.355 259.548 511.345L94.3181 445.252C94.3181 445.252 71.8634 434.703 101.906 420.684L227.725 453.706C253.166 454.214 289.862 447.166 289.52 429.474L194.457 416.369C194.457 416.369 168.422 404.195 193.457 386.17C270.179 388.176 339.168 377.68 394.242 386.99L499.884 412.193V507.731L393.736 464.279Z" fill="white"/>
</g>
<defs>
<clipPath id="clip0">
<path d="M0 0H580V580H0V0Z" fill="white"/>
</clipPath>
</defs>
</svg>
