<?xml version="1.0" encoding="UTF-8" standalone="no"?>
<!-- Created with Inkscape (http://www.inkscape.org/) -->

<svg
   xmlns:dc="http://purl.org/dc/elements/1.1/"
   xmlns:cc="http://creativecommons.org/ns#"
   xmlns:rdf="http://www.w3.org/1999/02/22-rdf-syntax-ns#"
   xmlns:svg="http://www.w3.org/2000/svg"
   xmlns="http://www.w3.org/2000/svg"
   xmlns:sodipodi="http://sodipodi.sourceforge.net/DTD/sodipodi-0.dtd"
   xmlns:inkscape="http://www.inkscape.org/namespaces/inkscape"
   version="1.0"
   width="580"
   height="580"
   id="svg2"
   sodipodi:version="0.32"
   inkscape:version="0.91 r"
   sodipodi:docname="electrician.svg"
   inkscape:output_extension="org.inkscape.output.svg.inkscape">
  <metadata
     id="metadata2975">
    <rdf:RDF>
      <cc:Work
         rdf:about="">
        <dc:format>image/svg+xml</dc:format>
        <dc:type
           rdf:resource="http://purl.org/dc/dcmitype/StillImage" />
        <cc:license
           rdf:resource="http://web.resource.org/cc/PublicDomain" />
        <dc:language>en</dc:language>
      </cc:Work>
    </rdf:RDF>
  </metadata>
  <sodipodi:namedview
     inkscape:window-height="995"
     inkscape:window-width="1280"
     inkscape:pageshadow="2"
     inkscape:pageopacity="0.0"
     guidetolerance="10.0"
     gridtolerance="10.0"
     objecttolerance="10.0"
     borderopacity="1.0"
     bordercolor="#666666"
     pagecolor="#ffffff"
     id="base"
     inkscape:zoom="0.46083856"
     inkscape:cx="104.99288"
     inkscape:cy="239.766"
     inkscape:window-x="0"
     inkscape:window-y="0"
     inkscape:current-layer="svg2"
     showgrid="false"
     inkscape:window-maximized="1" />
  <defs
     id="defs4">
    <inkscape:perspective
       sodipodi:type="inkscape:persp3d"
       inkscape:vp_x="0 : 290 : 1"
       inkscape:vp_y="0 : 1000 : 0"
       inkscape:vp_z="580 : 290 : 1"
       inkscape:persp3d-origin="290 : 193.33333 : 1"
       id="perspective2441" />
    <inkscape:perspective
       id="perspective3452"
       inkscape:persp3d-origin="30 : 20 : 1"
       inkscape:vp_z="60 : 30 : 1"
       inkscape:vp_y="0 : 1000 : 0"
       inkscape:vp_x="0 : 30 : 1"
       sodipodi:type="inkscape:persp3d" />
  </defs>
  <g
     id="g1327">
    <path
       d="M 66.275,1.768 C 24.94,1.768 1.704,23.139 1.704,66.804 L 1.704,516.927 C 1.704,557.771 22.599,579.156 63.896,579.156 L 515.92,579.156 C 557.227,579.156 578.149,558.841 578.149,516.927 L 578.149,66.804 C 578.149,24.203 557.227,1.768 514.628,1.768 C 514.624,1.768 66.133,1.625 66.275,1.768 z "
       style="fill:#111;stroke:#eee;stroke-width:3.40799999"
       id="path1329" />
  </g>
  <path
     id="path10"
     d="m 379.89187,526.31389 c 1.483,7.04 9.24,12.418 18.604,12.418 9.369,0 17.125,-5.378 18.609,-12.418 l -37.213,0 z"
     inkscape:connector-curvature="0"
     style="fill:#ffffff" />
  <path
     id="path12"
     d="m 445.32487,392.219 -93.655,0 c -14.522,0 -26.333,-11.811 -26.333,-26.34 l 0,-10.481 c -1.253,-34.572 -9.629,-47.314 -19.328,-62.059 -2.378,-3.623 -4.844,-7.367 -7.247,-11.524 -6.712,-7.591 -12.542,-15.901 -17.335,-24.726 l -3.118,-3.641 0.808,-0.817 c -9.028,-18.242 -13.778,-38.553 -13.778,-59.022 0,-73.425 59.739,-133.16 133.157,-133.16 73.424,0 133.163,59.735 133.163,133.16 0,32.724 -11.978,64.151 -33.734,88.56 -2.452,4.263 -4.949,8.051 -7.383,11.714 -9.326,14.114 -17.392,26.31 -18.889,59.728 l 0.007,12.27 c -0.001,14.527 -11.816,26.338 -26.335,26.338 z M 298.53491,250.04263 c 4.1586,7.64361 9.2381,14.8366 15.09517,21.39536 l 0.66984,0.93028 c 2.1697,3.80166 4.47805,7.31478 6.7124,10.71267 9.15472,13.92038 18.61391,28.31949 19.9058,63.96688 l 0,10.01661 c 0,7.5621 6.15405,13.71709 13.7096,13.71709 l 87.73899,0 c 7.55555,0 13.70585,-6.15405 13.70585,-13.71709 l 0,-11.73851 c 1.54109,-34.58783 10.67988,-48.39767 19.50952,-61.75689 2.26901,-3.43162 4.61952,-6.98034 6.82201,-10.8635 l 0.69326,-0.95651 c 18.81158,-20.91196 29.17856,-47.92926 29.17856,-76.07262 0,-62.7387 -51.0386,-113.782918 -113.78104,-113.782918 -62.74244,0 -113.78104,51.044218 -113.78104,113.781978 0,18.73383 4.66542,37.31308 13.47258,53.73012 z"
     inkscape:connector-curvature="0"
     style="fill:#ffffff"
     sodipodi:nodetypes="sssccccccsssccccscccccssssccccssscc" />
  <path
     id="path14"
     d="m 448.69687,436.85586 -100.398,0 c -6.004,0 -10.865,-6.34078 -10.865,-14.15343 0,-7.81265 4.861,-14.15343 10.865,-14.15343 l 100.398,0 c 6.004,0 10.865,6.34078 10.865,14.15343 0,7.81265 -4.861,14.15343 -10.865,14.15343 z"
     inkscape:connector-curvature="0"
     style="fill:#ffffff" />
  <path
     id="path16"
     d="m 448.69687,475.72635 -100.398,0 c -6.004,0 -10.865,-6.34078 -10.865,-14.15473 0,-7.81916 4.861,-14.15994 10.865,-14.15994 l 100.398,0 c 6.004,0 10.865,6.34078 10.865,14.15994 0,7.81395 -4.861,14.15473 -10.865,14.15473 z"
     inkscape:connector-curvature="0"
     style="fill:#ffffff" />
  <path
     id="path18"
     d="m 448.69687,515.35493 -100.398,0 c -6.004,0 -10.865,-6.33297 -10.865,-14.15343 0,-7.82047 4.861,-14.16125 10.865,-14.16125 l 100.398,0 c 6.004,0 10.865,6.34078 10.865,14.16125 0,7.82046 -4.861,14.15343 -10.865,14.15343 z"
     inkscape:connector-curvature="0"
     style="fill:#ffffff" />
  <path
     id="path26"
     d="m 353.87487,206.18484 -23.309,-18.77318 c -1.34,-1.073 -1.59955,-5.29252 0.91882,-8.26691 2.51837,-2.97439 6.55618,-3.17947 7.89218,-2.09947 l 15.024,12.102 22.41,-13.315 21.553,13.353 18.671,-13.498 20.354,13.558 20.564,-12.438 c 1.471,-0.888 6.89762,-1.16603 9.00678,1.99836 2.10916,3.16438 1.31617,8.51233 -0.14983,9.39733 l -29.58295,17.89087 -20.049,-13.356 -18.548,13.414 -21.882,-13.561 z"
     inkscape:connector-curvature="0"
     style="fill:#ffffff"
     sodipodi:nodetypes="cczccccccczcccccc" />
  <path
     inkscape:connector-curvature="0"
     style="fill:#ffffff;fill-opacity:1"
     d="m 151.89017,536.23495 c -0.0651,3.25845 -2.78278,5.88618 -6.03112,5.83152 l -17.78371,-0.29926 c -3.26891,-0.055 -5.87607,-2.77233 -5.83151,-6.03114 l -9.64996,-37.5907 10.65011,-21.84592 3.27268,-195.09661 29.64636,0.49887 -3.26749,194.78823 9.90665,22.33578 -10.91201,37.40923 z"
     id="path3" />
  <path
     inkscape:connector-curvature="0"
     style="fill:#ffffff;fill-opacity:1"
     d="M 93.569624,145.65969 C 94.529728,89.214608 120.74195,37.759876 131.64877,37.933128 l 26.86041,0.462275 c 10.92704,0.19415 35.06235,53.832822 34.14528,108.941907 -0.41472,25.25714 -21.40504,49.92126 -21.67005,65.6696 -0.16371,9.11783 20.15677,23.64963 20.04607,30.22857 -0.29192,17.95862 -15.35948,13.90055 -15.35948,13.90055 l -68.47256,-1.14194 c 0,0 -15.509778,1.44592 -15.242699,-14.42578 0.108283,-6.43502 20.911299,-21.18996 21.072319,-29.53665 0.20688,-12.2944 -20.013965,-32.74724 -19.458436,-66.37197 z"
     id="path5" />
  <path
     style="fill:none;fill-rule:evenodd;stroke:#ffffff;stroke-width:17.39999962;stroke-linecap:butt;stroke-linejoin:miter;stroke-miterlimit:4;stroke-dasharray:none;stroke-opacity:1"
     d="m 426.56085,356.74603 0,-89.7619 60.60846,-60.60847"
     id="path4184"
     inkscape:connector-curvature="0" />
  <path
     style="fill:none;fill-rule:evenodd;stroke:#ffffff;stroke-width:17.39999962;stroke-linecap:butt;stroke-linejoin:miter;stroke-miterlimit:4;stroke-dasharray:none;stroke-opacity:1"
     d="m 371.84336,356.74603 0,-89.7619 -60.60846,-60.60847"
     id="path4184-0"
     inkscape:connector-curvature="0" />
</svg>
