<svg width="580" height="580" viewBox="0 0 580 580" fill="none" xmlns="http://www.w3.org/2000/svg">
<path d="M388.388 84.8167C379.192 100.53 353.086 124.441 353.574 195.067C349.115 178.912 343.799 143.243 345.431 116.008C345.431 116.008 303.787 143.889 303.787 217.162C303.787 270.395 332.085 309.341 369.926 318.936V440.42C334.503 372.484 265.549 337.715 265.549 337.715C265.549 337.715 282.634 375.501 293.498 420.199C305.874 471.055 326.679 493.163 369.926 494.252V494.604H406.892C461.013 492.87 475.839 442.439 523.726 357.063C467.105 374.291 458.688 387.294 406.892 431.645V318.938C444.733 309.346 473.031 270.409 473.031 217.162C473.031 143.889 431.386 116.008 431.386 116.008C433.019 143.243 427.703 178.912 423.244 195.067C423.732 124.441 397.626 100.53 388.429 84.8167C388.429 84.8797 388.419 84.9431 388.41 85.0061C388.41 84.9431 388.398 84.8797 388.388 84.8167Z" fill="white"/>
<path d="M214.773 169.54L146.144 55.1571C142.015 48.2599 130.657 48.2599 126.527 55.1571L57.8979 169.54C56.8342 171.324 56.2737 173.36 56.2737 175.43V186.868V449.948V472.825C56.2737 504.36 81.9297 530.016 113.465 530.016H159.218C190.753 530.016 216.409 504.36 216.409 472.825V449.948V186.868V175.43C216.409 173.36 215.849 171.324 214.773 169.54ZM136.341 83.2838L184.771 163.992H87.9119L136.341 83.2838ZM113.465 461.386H90.5884V186.868H113.465V461.386ZM182.094 461.386H159.218V186.868H182.094V461.386Z" fill="white"/>
</svg>
