<svg width="580" height="580" viewBox="0 0 580 580" fill="none" xmlns="http://www.w3.org/2000/svg">
<g clip-path="url(#clip0)">
<path d="M66.2751 1.76802C24.9401 1.76802 1.7041 23.139 1.7041 66.804V516.927C1.7041 557.771 22.5991 579.156 63.8961 579.156H515.92C557.227 579.156 578.149 558.841 578.149 516.927V66.804C578.149 24.203 557.227 1.76802 514.628 1.76802C514.624 1.76802 66.1331 1.62502 66.2751 1.76802Z" fill="#111111" stroke="#EEEEEE" stroke-width="3.408"/>
<path d="M418.033 468.494C484.281 468.494 537.985 414.789 537.985 348.541C537.985 282.293 484.281 228.588 418.033 228.588C351.785 228.588 298.08 282.293 298.08 348.541C298.08 414.789 351.785 468.494 418.033 468.494Z" stroke="white" stroke-width="40.2183" stroke-linecap="round" stroke-linejoin="round"/>
<g opacity="0.4">
<path opacity="0.4" fill-rule="evenodd" clip-rule="evenodd" d="M366.066 233.516L315.628 139.898L378.613 98.6255H439.041L444.49 224.105L366.066 233.516V233.516Z" fill="white" stroke="white" stroke-width="14.4564"/>
<path opacity="0.4" fill-rule="evenodd" clip-rule="evenodd" d="M470.453 233.516L520.89 139.898L457.905 98.6255H387.51L392.028 224.105L470.453 233.516Z" fill="white" stroke="white" stroke-width="14.4564"/>
</g>
<path opacity="0.6" fill-rule="evenodd" clip-rule="evenodd" d="M378.606 98.6409L315.637 139.908L366.061 233.534L418.26 227.241L470.458 233.534L520.882 139.908L457.913 98.6409H439.034H387.521H378.606V98.6409Z" stroke="white" stroke-width="14.4564"/>
<path opacity="0.6" fill-rule="evenodd" clip-rule="evenodd" d="M378.606 150.275L315.637 139.907L366.061 233.534L418.26 227.241L470.458 233.534L520.882 139.907L457.913 150.275H378.606Z" stroke="white" stroke-width="14.4562" stroke-linejoin="bevel"/>
<path opacity="0.6" fill-rule="evenodd" clip-rule="evenodd" d="M377.598 150.234L366.061 233.534L418.26 227.241L470.458 233.534L461.545 150.673L455.331 98.6409H382.358L377.598 150.234V150.234Z" stroke="white" stroke-width="14.4564"/>
<path d="M129.478 181.376L129.474 469.01C129.47 478.055 136.833 485.427 145.899 485.444L177.375 485.444C181.904 485.444 186.009 483.603 188.982 480.63C191.955 477.657 193.796 473.552 193.796 469.023L193.8 181.38L129.478 181.376Z" fill="white"/>
<path d="M251.706 88.5853L222.617 88.5979C218.386 88.5937 214.65 91.3404 213.324 95.4247C212.7 97.3411 208.628 102.218 205.462 102.214L193.46 102.231C192.878 98.9052 191.33 95.8315 188.898 93.4245C185.778 90.2794 181.639 88.5476 177.241 88.5602L145.702 88.556C145.526 88.556 145.174 88.5811 144.885 88.6105L138.246 88.6063C124.543 88.6063 111.736 88.6063 108.49 88.6147C80.6883 88.6063 29.4077 138.746 23.6544 144.466C23.6502 144.47 23.646 144.474 23.6418 144.479C21.6625 146.458 21.3397 149.548 22.8576 151.897C24.384 154.253 27.3529 155.218 29.9696 154.203C30.2002 154.115 53.5698 145.28 91.8259 146.173C108.981 146.571 129.394 149.448 129.277 161.164C129.289 161.453 129.336 162.9 129.34 168.062C129.34 168.54 129.445 168.897 129.478 169.333L129.478 169.517L193.804 169.517L193.804 163.605C193.808 163.483 193.746 163.387 193.737 163.269L193.733 153.855C193.733 153.855 193.737 153.851 193.741 153.855C194.165 153.851 196.413 153.842 205.462 153.842C208.867 153.842 212.695 158.443 213.207 159.986C214.784 164.707 218.47 167.764 222.588 167.764C224.227 167.769 251.702 167.752 251.702 167.752C256.223 167.752 260.332 165.915 263.309 162.938C266.282 159.965 268.127 155.855 268.136 151.326L268.132 105.019C268.136 95.9573 260.768 88.5895 251.706 88.5853V88.5853Z" fill="white"/>
</g>
<defs>
<clipPath id="clip0">
<path d="M0 0H580V580H0V0Z" fill="white"/>
</clipPath>
</defs>
</svg>
