<svg width="580" height="580" viewBox="0 0 580 580" fill="none" xmlns="http://www.w3.org/2000/svg">
<g clip-path="url(#clip0)">
<path d="M66.275 1.76802C24.94 1.76802 1.70398 23.139 1.70398 66.804V516.927C1.70398 557.771 22.599 579.156 63.896 579.156H515.92C557.227 579.156 578.149 558.841 578.149 516.927V66.804C578.149 24.203 557.227 1.76802 514.628 1.76802C514.624 1.76802 66.133 1.62502 66.275 1.76802Z" fill="#111111" stroke="#EEEEEE" stroke-width="3.408"/>
<path d="M224.582 62.256L195.764 179.744H42.688V517.744H364.688V444.64L456.793 467.232L537.313 138.962L224.582 62.256V62.256ZM79.188 422.744V207.744H188.897H226.479H328.188V337.872V422.744H275.418H79.188V422.744ZM443.974 366.272L364.687 346.824V179.744H233.346L253.361 98.145L495.193 157.462L443.974 366.272Z" fill="white"/>
</g>
<defs>
<clipPath id="clip0">
<path d="M0 0H580V580H0V0Z" fill="white"/>
</clipPath>
</defs>
</svg>
