<svg width="580" height="580" viewBox="0 0 580 580" fill="none" xmlns="http://www.w3.org/2000/svg">
<g clip-path="url(#clip0)">
<path d="M66.275 1.7679C24.94 1.7679 1.70398 23.1389 1.70398 66.8039V516.927C1.70398 557.771 22.599 579.156 63.896 579.156H515.92C557.227 579.156 578.149 558.841 578.149 516.927V66.8039C578.149 24.2029 557.227 1.7679 514.628 1.7679C514.624 1.7679 66.133 1.6249 66.275 1.7679Z" fill="#111111" stroke="#EEEEEE" stroke-width="3.408"/>
<path d="M429.974 215.652H299.719V327.067H429.974V215.652Z" fill="white"/>
<path d="M279.28 215.652H149.026V327.067H279.28V215.652Z" fill="white"/>
<path d="M429.974 346.271H299.719V457.685H429.974V346.271Z" fill="white"/>
<path d="M279.28 346.271H149.026V457.685H279.28V346.271Z" fill="white"/>
<path d="M545 538.669V134.669L456.012 178.669H123.989L35 134.669V538.669L124.011 493.669H455.99L545 538.669ZM450.5 474.648H128.5V197.69H450.5V474.648Z" fill="white"/>
<path d="M229.462 82.824L419.303 113.529C424.211 114.275 427.603 118.88 426.862 123.801L424.259 140.88C423.884 143.338 422.546 145.413 420.687 146.781C418.827 148.148 416.448 148.808 413.99 148.433L224.144 117.727L229.462 82.824Z" fill="white"/>
<path d="M162.002 139.474L164.414 123.691C164.762 121.394 166.562 119.594 168.887 119.213C169.979 119.032 172.962 117.226 173.222 115.508L174.223 108.997C172.467 108.406 170.927 107.312 169.822 105.793C168.374 103.84 167.776 101.451 168.147 99.065L170.753 81.9511C170.768 81.8555 170.81 81.6665 170.85 81.5119L171.397 77.9095C172.53 70.4734 173.589 63.5242 173.862 61.7637C176.157 46.6768 207.606 22.9973 211.185 20.3484C211.188 20.3465 211.191 20.3446 211.193 20.3426C212.431 19.4323 214.135 19.5127 215.283 20.5306C216.436 21.5538 216.714 23.2446 215.947 24.5805C215.88 24.6984 209.153 36.6487 206.473 57.4814C205.271 66.8232 205.143 78.138 211.511 79.0432C211.667 79.074 212.448 79.2187 215.249 79.6479C215.508 79.6874 215.693 79.7738 215.927 79.8281L216.027 79.8433L210.707 114.749L207.498 114.26C207.432 114.252 207.385 114.21 207.322 114.195L202.214 113.415C202.214 113.415 202.211 113.416 202.213 113.419C202.176 113.649 201.985 114.868 201.237 119.778C200.955 121.626 203.135 124.084 203.93 124.489C206.362 125.735 207.716 127.988 207.375 130.222C207.242 131.112 204.96 146.02 204.96 146.02C204.586 148.473 203.25 150.551 201.388 151.92C199.529 153.287 197.146 153.949 194.688 153.579L169.561 149.746C164.643 148.999 161.255 144.392 162.002 139.474V139.474Z" fill="white"/>
</g>
<defs>
<clipPath id="clip0">
<path d="M0 0H580V580H0V0Z" fill="white"/>
</clipPath>
</defs>
</svg>
