<svg width="12" height="12" viewBox="0 0 12 12" fill="none" xmlns="http://www.w3.org/2000/svg">
<path d="M7.75 2.75C8.3 2.75 8.75 2.3 8.75 1.75C8.75 1.2 8.3 0.75 7.75 0.75C7.2 0.75 6.75 1.2 6.75 1.75C6.75 2.3 7.2 2.75 7.75 2.75ZM2.5 6C1.1 6 0 7.1 0 8.5C0 9.9 1.1 11 2.5 11C3.9 11 5 9.9 5 8.5C5 7.1 3.9 6 2.5 6ZM2.5 10.25C1.55 10.25 0.75 9.45 0.75 8.5C0.75 7.55 1.55 6.75 2.5 6.75C3.45 6.75 4.25 7.55 4.25 8.5C4.25 9.45 3.45 10.25 2.5 10.25ZM5.4 5.25L6.6 4.05L7 4.45C7.65 5.1 8.5 5.5 9.55 5.5V4.5C8.8 4.5 8.2 4.2 7.75 3.75L6.8 2.8C6.55 2.6 6.3 2.5 6 2.5C5.7 2.5 5.45 2.6 5.3 2.8L3.9 4.2C3.7 4.4 3.6 4.65 3.6 4.9C3.6 5.2 3.7 5.45 3.9 5.6L5.5 7V9.5H6.5V6.4L5.4 5.25ZM9.5 6C8.1 6 7 7.1 7 8.5C7 9.9 8.1 11 9.5 11C10.9 11 12 9.9 12 8.5C12 7.1 10.9 6 9.5 6ZM9.5 10.25C8.55 10.25 7.75 9.45 7.75 8.5C7.75 7.55 8.55 6.75 9.5 6.75C10.45 6.75 11.25 7.55 11.25 8.5C11.25 9.45 10.45 10.25 9.5 10.25Z" fill="white"/>
</svg>
