<svg width="48" height="48" viewBox="0 0 48 48" fill="none" xmlns="http://www.w3.org/2000/svg">
<path opacity="0.7" fill-rule="evenodd" clip-rule="evenodd" d="M44 24H28V44H44V24ZM40 28H32V40H40V28Z" fill="white" />
<path d="M16 16H12V20H16V16Z" fill="white" />
<path d="M24 16H20V20H24V16Z" fill="white" />
<path d="M12 24H16V28H12V24Z" fill="white" />
<path d="M24 24H20V28H24V24Z" fill="white" />
<path d="M12 32H16V36H12V32Z" fill="white" />
<path d="M24 32H20V36H24V32Z" fill="white" />
<path fill-rule="evenodd" clip-rule="evenodd" d="M4 4H32V44H4V4ZM8 8H28V40H8V8Z" fill="white" />
</svg>