<svg width="12" height="12" viewBox="0 0 12 12" fill="none" xmlns="http://www.w3.org/2000/svg">
<path opacity="0.7" fill-rule="evenodd" clip-rule="evenodd" d="M11 6H7V11H11V6ZM10 7H8V10H10V7Z" fill="white"/>
<path d="M4 4H3V5H4V4Z" fill="white"/>
<path d="M6 4H5V5H6V4Z" fill="white"/>
<path d="M3 6H4V7H3V6Z" fill="white"/>
<path d="M6 6H5V7H6V6Z" fill="white"/>
<path d="M3 8H4V9H3V8Z" fill="white"/>
<path d="M6 8H5V9H6V8Z" fill="white"/>
<path fill-rule="evenodd" clip-rule="evenodd" d="M1 1H8V11H1V1ZM2 2H7V10H2V2Z" fill="white"/>
</svg>
