<svg width="12" height="12" viewBox="0 0 12 12" fill="none" xmlns="http://www.w3.org/2000/svg">
<path d="M9.77933 2C10.2098 2 10.5919 2.27543 10.728 2.68377L11.0001 3.49999C11.0001 3.77614 10.7762 3.99999 10.5001 3.99999H0.00012207C0.00012207 3.17157 0.671693 2.5 1.50012 2.5L6.5001 2.5L7.5001 2H9.77933Z" fill="white"/>
<path fill-rule="evenodd" clip-rule="evenodd" d="M0.00012207 3.99999L10.0001 4.00002L11.0001 6.00001L11.7501 6.50001L11.8233 6.57324C11.9365 6.68642 12.0001 6.83994 12.0001 7.00001V8.50001C12.0001 8.77615 11.7763 9 11.5001 9H10.9148C10.7089 9.5826 10.1532 10 9.50013 10C8.84702 10 8.2914 9.5826 8.08549 9H3.91475C3.70882 9.58258 3.15321 9.99997 2.50011 9.99997C1.84702 9.99997 1.29141 9.58258 1.08548 9H0.000158397L0.00012207 3.99999ZM1.00012 4.50002H3.50011V6.00001H1.00012V4.50002ZM2.50011 9C2.77626 9 3.00011 8.77614 3.00011 8.5C3.00011 8.22386 2.77626 8 2.50011 8C2.22397 8 2.00012 8.22386 2.00012 8.5C2.00012 8.77614 2.22397 9 2.50011 9ZM9.50009 9C9.77623 9 10.0001 8.77615 10.0001 8.5C10.0001 8.22386 9.77623 8.00001 9.50009 8.00001C9.22395 8.00001 9.00009 8.22386 9.00009 8.5C9.00009 8.77615 9.22395 9 9.50009 9ZM4.50011 6.00001L7.0001 6.00001V4.50002H4.50011V6.00001ZM8.0001 4.50002H9.25009L10.0001 6.00001H8.0001V4.50002Z" fill="white"/>
</svg>
