<svg width="48" height="48" viewBox="0 0 48 48" fill="none" xmlns="http://www.w3.org/2000/svg">
<path d="M24 36C26.2091 36 28 34.2091 28 32V31.0263C28 28.8855 26.6301 26.9849 24.5991 26.3079L22.1359 25.4868C18.4716 24.2654 16 20.8362 16 16.9737V16C16 11.5817 19.5817 8 24 8C28.4183 8 32 11.5817 32 16H28C28 13.7909 26.2091 12 24 12C21.7909 12 20 13.7909 20 16V16.9737C20 19.1145 21.3699 21.0151 23.4009 21.6921L25.8641 22.5132C29.5284 23.7346 32 27.1638 32 31.0263V32C32 36.4183 28.4183 40 24 40C19.5817 40 16 36.4183 16 32H20C20 34.2091 21.7909 36 24 36Z" fill="white" />
</svg>