<svg width="12" height="12" viewBox="0 0 12 12" fill="none" xmlns="http://www.w3.org/2000/svg">
<path d="M6 2C6.55228 2 7 1.55228 7 1C7 0.447715 6.55228 0 6 0C5.44772 0 5 0.447715 5 1C5 1.55228 5.44772 2 6 2Z" fill="white"/>
<path d="M7 6V4.66485C7.31224 4.88157 7.68535 5 8.07068 5H8.5V4H8.07068C7.83789 4 7.61463 3.90753 7.45002 3.74292C7.40915 3.70204 7.37241 3.65724 7.34035 3.60914L7.05579 3.18231C6.97907 3.06721 6.88659 2.9642 6.7815 2.87603C6.59825 2.64683 6.31627 2.5 6 2.5C5.44772 2.5 5 2.94772 5 3.5V6C5 6.37014 5.2011 6.69331 5.5 6.86622V8.08535C4.9174 8.29127 4.5 8.84689 4.5 9.5C4.5 10.3284 5.17157 11 6 11C6.82843 11 7.5 10.3284 7.5 9.5C7.5 8.84689 7.0826 8.29127 6.5 8.08535V6.86622C6.7989 6.69331 7 6.37014 7 6Z" fill="white"/>
</svg>
