<svg width="12" height="12" viewBox="0 0 12 12" fill="none" xmlns="http://www.w3.org/2000/svg">
<path fill-rule="evenodd" clip-rule="evenodd" d="M7.08824 3.07692H6.26087V2H7.52046L9.60783 4.15427C9.62258 4.15399 9.63736 4.15385 9.65217 4.15385C10.9488 4.15385 12 5.23869 12 6.57692C12 7.91515 10.9488 9 9.65217 9C8.47514 9 7.5004 8.10609 7.33056 6.9402L7.04348 7.38462H4.56206C4.23975 8.32573 3.37008 9 2.34783 9C1.05116 9 0 7.91515 0 6.57692C0 5.23869 1.05116 4.15385 2.34783 4.15385C2.43907 4.15385 2.52911 4.15922 2.61764 4.16967L2.6087 4.15385H3.13043V3.61538H4.69565V4.15385H8.13171L7.08824 3.07692ZM3.65217 6.57692C3.65217 7.32038 3.0682 7.92308 2.34783 7.92308C1.62745 7.92308 1.04348 7.32038 1.04348 6.57692C1.04348 5.83346 1.62745 5.23077 2.34783 5.23077C3.0682 5.23077 3.65217 5.83346 3.65217 6.57692ZM10.9565 6.57692C10.9565 7.32038 10.3725 7.92308 9.65217 7.92308C8.9318 7.92308 8.34783 7.32038 8.34783 6.57692C8.34783 5.83346 8.9318 5.23077 9.65217 5.23077C10.3725 5.23077 10.9565 5.83346 10.9565 6.57692Z" fill="white"/>
</svg>
