<svg width="12" height="12" viewBox="0 0 12 12" fill="none" xmlns="http://www.w3.org/2000/svg">
<path d="M4.5 3C4.22386 3 4 2.77614 4 2.5C4 2.22386 4.22386 2 4.5 2V3ZM8 9C8.27614 9 8.5 9.22386 8.5 9.5C8.5 9.77614 8.27614 10 8 10V9ZM6.25 3H4.5V2H6.25V3ZM6.25 6.5H6V5.5H6.25V6.5ZM4.5 8V8.5H3.5V8H4.5ZM5 9H8V10H5V9ZM4.5 8.5C4.5 8.77614 4.72386 9 5 9V10C4.17157 10 3.5 9.32843 3.5 8.5H4.5ZM6 6.5C5.17157 6.5 4.5 7.17157 4.5 8H3.5C3.5 6.61929 4.61929 5.5 6 5.5V6.5ZM7.5 4.25C7.5 3.55964 6.94036 3 6.25 3V2C7.49264 2 8.5 3.00736 8.5 4.25H7.5ZM8.5 4.25C8.5 5.49264 7.49264 6.5 6.25 6.5V5.5C6.94036 5.5 7.5 4.94036 7.5 4.25H8.5Z" fill="white"/>
</svg>
