<svg width="24" height="24" viewBox="0 0 24 24" fill="none" xmlns="http://www.w3.org/2000/svg">
<path d="M15 6C15.5523 6 16 5.55228 16 5C16 4.44772 15.5523 4 15 4V6ZM8 18C7.44772 18 7 18.4477 7 19C7 19.5523 7.44772 20 8 20V18ZM9 10V6H7V10H9ZM9 6H15V4H9V6ZM10 13H14V11H10V13ZM15 14V17H17V14H15ZM14 18H8V20H14V18ZM15 17C15 17.5523 14.5523 18 14 18V20C15.6569 20 17 18.6569 17 17H15ZM14 13C14.5523 13 15 13.4477 15 14H17C17 12.3431 15.6569 11 14 11V13ZM9 6L9 6V4C7.89543 4 7 4.89543 7 6H9ZM7 10C7 11.6569 8.34315 13 10 13V11C9.44772 11 9 10.5523 9 10H7Z" fill="white"/>
</svg>
