<svg width="24" height="24" viewBox="0 0 24 24" fill="none" xmlns="http://www.w3.org/2000/svg">
<path fill-rule="evenodd" clip-rule="evenodd" d="M14 10C14 10.5523 13.5523 11 13 11H11C10.4477 11 10 11.4477 10 12C10 12.5523 10.4477 13 11 13H13C13.5523 13 14 13.4477 14 14V17C14 17.5523 13.5523 18 13 18H8C7.44772 18 7 18.4477 7 19C7 19.5523 7.44772 20 8 20H13C14.6569 20 16 18.6569 16 17V14C16 13.2316 15.7111 12.5308 15.2361 12C15.7111 11.4692 16 10.7684 16 10V7C16 5.34315 14.6569 4 13 4H8C7.44772 4 7 4.44772 7 5C7 5.55228 7.44772 6 8 6H13C13.5523 6 14 6.44772 14 7V10Z" fill="white"/>
</svg>
