<svg width="12" height="12" viewBox="0 0 12 12" fill="none" xmlns="http://www.w3.org/2000/svg">
<path d="M7.5 3C7.77614 3 8 2.77614 8 2.5C8 2.22386 7.77614 2 7.5 2V3ZM4 9C3.72386 9 3.5 9.22386 3.5 9.5C3.5 9.77614 3.72386 10 4 10V9ZM4.5 4V3.5H3.5V4H4.5ZM5 3H7.5V2H5V3ZM6 6.5H6.25V5.5H6V6.5ZM6.25 9H4V10H6.25V9ZM7.5 7.75C7.5 8.44036 6.94036 9 6.25 9V10C7.49264 10 8.5 8.99264 8.5 7.75H7.5ZM6.25 6.5C6.94036 6.5 7.5 7.05964 7.5 7.75H8.5C8.5 6.50736 7.49264 5.5 6.25 5.5V6.5ZM4.5 3.5C4.5 3.22386 4.72386 3 5 3V2C4.17157 2 3.5 2.67157 3.5 3.5H4.5ZM3.5 4C3.5 5.38071 4.61929 6.5 6 6.5V5.5C5.17157 5.5 4.5 4.82843 4.5 4H3.5Z" fill="white"/>
</svg>
