<svg width="48" height="48" viewBox="0 0 48 48" fill="none" xmlns="http://www.w3.org/2000/svg">
<path fill-rule="evenodd" clip-rule="evenodd" d="M28 20C28 21.1046 27.1046 22 26 22H22C20.8954 22 20 22.8954 20 24C20 25.1046 20.8954 26 22 26H26C27.1046 26 28 26.8954 28 28V38C28 39.1046 27.1046 40 26 40H14C12.8954 40 12 40.8954 12 42C12 43.1046 12.8954 44 14 44H26C29.3137 44 32 41.3137 32 38V28C32 26.4633 31.4223 25.0615 30.4722 24C31.4223 22.9385 32 21.5367 32 20V10C32 6.68629 29.3137 4 26 4H14C12.8954 4 12 4.89543 12 6C12 7.10457 12.8954 8 14 8H26C27.1046 8 28 8.89543 28 10V20Z" fill="white"/>
</svg>
