<svg width="12" height="12" viewBox="0 0 12 12" fill="none" xmlns="http://www.w3.org/2000/svg">
<path fill-rule="evenodd" clip-rule="evenodd" d="M4 6.94427C4 6.32329 4.14458 5.71084 4.42229 5.15542L6 2H7L5.46363 5.07275C5.63433 5.02534 5.81422 5 6.00002 5C7.10458 5 8 5.89542 8 6.99998V8.00001C8 9.10457 7.10457 10 6.00001 10C4.89544 10 4.00001 9.10456 4.00002 7.99998L4 6.94427ZM7 6.99998C7 6.44771 6.55229 6 6.00002 6C5.44775 6 5.00005 6.4477 5.00004 6.99997L5.00002 8C5.00001 8.55228 5.44773 9 6.00001 9C6.55229 9 7 8.55229 7 8.00001V6.99998Z" fill="white"/>
</svg>
