<svg width="12" height="12" viewBox="0 0 12 12" fill="none" xmlns="http://www.w3.org/2000/svg">
<path fill-rule="evenodd" clip-rule="evenodd" d="M7.39989 5.42839C7.77023 5.0654 8 4.55953 8 4C8 2.89543 7.10457 2 6 2C4.89543 2 4 2.89543 4 4C4 4.55953 4.22977 5.0654 4.60011 5.42839C3.93629 5.87784 3.5 6.63797 3.5 7.5C3.5 8.88071 4.61929 10 6 10C7.38071 10 8.5 8.88071 8.5 7.5C8.5 6.63797 8.06371 5.87784 7.39989 5.42839ZM7 4C7 4.55228 6.55228 5 6 5C5.44772 5 5 4.55228 5 4C5 3.44772 5.44772 3 6 3C6.55228 3 7 3.44772 7 4ZM6 6C5.17157 6 4.5 6.67157 4.5 7.5C4.5 8.32843 5.17157 9 6 9C6.82843 9 7.5 8.32843 7.5 7.5C7.5 6.67157 6.82843 6 6 6Z" fill="white"/>
</svg>
