<svg width="12" height="12" viewBox="0 0 12 12" fill="none" xmlns="http://www.w3.org/2000/svg">
<path fill-rule="evenodd" clip-rule="evenodd" d="M2 2.5C1.44772 2.5 1 2.94772 1 3.5V4H0V7H1V8H2C2 8.82843 2.67157 9.5 3.5 9.5C4.32843 9.5 5 8.82843 5 8H8C8 8.82843 8.67157 9.5 9.5 9.5C10.3284 9.5 11 8.82843 11 8H12V7H11.5V5.5L11 5H8.5L7.5 2.5H2ZM4.5 3.5H2V5H4.5V3.5ZM4 8C4 8.27614 3.77614 8.5 3.5 8.5C3.22386 8.5 3 8.27614 3 8C3 7.72386 3.22386 7.5 3.5 7.5C3.77614 7.5 4 7.72386 4 8ZM10 8C10 8.27614 9.77614 8.5 9.5 8.5C9.22386 8.5 9 8.27614 9 8C9 7.72386 9.22386 7.5 9.5 7.5C9.77614 7.5 10 7.72386 10 8ZM5.5 3.5H7L7.5 5H5.5V3.5Z" fill="white"/>
</svg>
