<svg width="24" height="24" viewBox="0 0 24 24" fill="none" xmlns="http://www.w3.org/2000/svg">
<path d="M13.5 14C15.433 14 17 12.433 17 10.5C17 8.56702 15.433 7.00001 13.5 7.00001C11.567 7.00001 9.99998 8.56702 9.99998 10.5C9.99998 12.433 11.567 14 13.5 14Z" fill="white"/>
<path fill-rule="evenodd" clip-rule="evenodd" d="M11.5335 21.0624L16.298 22.0153L21.0625 21.0624L22.0153 16.2979L21.0625 11.5335L22.0153 6.76903L21.0625 2.00458L16.298 2.95747L11.5335 2.00458L6.76909 2.95747L2.00464 2.00458L2.95753 6.76903L2.00464 11.5335L2.95753 16.2979L2.00464 21.0624L6.76909 22.0153L11.5335 21.0624ZM13.5 16C16.5375 16 19 13.5376 19 10.5C19 7.46245 16.5375 5.00001 13.5 5.00001C10.4624 5.00001 7.99998 7.46245 7.99998 10.5C7.99998 11.6575 8.35755 12.7315 8.96824 13.6175L5.29286 17.2929C4.90234 17.6834 4.90234 18.3166 5.29286 18.7071C5.68339 19.0976 6.31655 19.0976 6.70708 18.7071L10.3825 15.0317C11.2685 15.6424 12.3425 16 13.5 16Z" fill="white"/>
</svg>
