<svg width="12" height="12" viewBox="0 0 12 12" fill="none" xmlns="http://www.w3.org/2000/svg">
<path d="M6.74999 7.00004C7.71649 7.00004 8.49999 6.21654 8.49999 5.25004C8.49999 4.28354 7.71649 3.50004 6.74999 3.50004C5.78349 3.50004 4.99999 4.28354 4.99999 5.25004C4.99999 6.21654 5.78349 7.00004 6.74999 7.00004Z" fill="white"/>
<path fill-rule="evenodd" clip-rule="evenodd" d="M5.76677 10.5312L8.149 11.0077L10.5312 10.5312L11.0077 8.149L10.5312 5.76677L11.0077 3.38455L10.5312 1.00232L8.149 1.47876L5.76677 1.00232L3.38455 1.47876L1.00232 1.00232L1.47876 3.38455L1.00232 5.76677L1.47876 8.149L1.00232 10.5312L3.38455 11.0077L5.76677 10.5312ZM6.74999 8.00004C8.26877 8.00004 9.49999 6.76882 9.49999 5.25004C9.49999 3.73125 8.26877 2.50004 6.74999 2.50004C5.23121 2.50004 3.99999 3.73125 3.99999 5.25004C3.99999 5.82878 4.17877 6.36578 4.48412 6.8088L2.64643 8.64648C2.45117 8.84175 2.45117 9.15833 2.64643 9.35359C2.84169 9.54885 3.15828 9.54885 3.35354 9.35359L5.19123 7.5159C5.63425 7.82125 6.17124 8.00004 6.74999 8.00004Z" fill="white"/>
</svg>
