<svg width="12" height="12" viewBox="0 0 12 12" fill="none" xmlns="http://www.w3.org/2000/svg">
<path fill-rule="evenodd" clip-rule="evenodd" d="M1 5V1H3C3.55228 1 4 1.44772 4 2V3C4 3.55228 3.55228 4 3 4H2V5H1ZM3 3H2V2H3V3Z" fill="white"/>
<path d="M7 5C7.27614 5 7.5 5.22386 7.5 5.5V7H8.5C8.77614 7 9 7.22386 9 7.5C9 7.77614 8.77614 8 8.5 8H7C6.72386 8 6.5 7.77614 6.5 7.5V5.5C6.5 5.22386 6.72386 5 7 5Z" fill="white"/>
<path fill-rule="evenodd" clip-rule="evenodd" d="M7 11C9.20914 11 11 9.20914 11 7C11 4.79086 9.20914 3 7 3C4.79086 3 3 4.79086 3 7C3 9.20914 4.79086 11 7 11ZM7 10C8.65685 10 10 8.65685 10 7C10 5.34315 8.65685 4 7 4C5.34315 4 4 5.34315 4 7C4 8.65685 5.34315 10 7 10Z" fill="white"/>
</svg>
