<svg width="12" height="12" viewBox="0 0 12 12" fill="none" xmlns="http://www.w3.org/2000/svg">
<path fill-rule="evenodd" clip-rule="evenodd" d="M0 4.5H5V2H8.5L9.5 4.5H11C11.2761 4.5 11.5 4.72386 11.5 5V6.5H12V7.5H11C11 8.32843 10.3284 9 9.5 9C8.67157 9 8 8.32843 8 7.5H4C4 8.32843 3.32843 9 2.5 9C1.67157 9 1 8.32843 1 7.5H0V4.5ZM6 3H8L8.5 4.5H6V3ZM2.5 8C2.77614 8 3 7.77614 3 7.5C3 7.22386 2.77614 7 2.5 7C2.22386 7 2 7.22386 2 7.5C2 7.77614 2.22386 8 2.5 8ZM9.5 8C9.77614 8 10 7.77614 10 7.5C10 7.22386 9.77614 7 9.5 7C9.22386 7 9 7.22386 9 7.5C9 7.77614 9.22386 8 9.5 8Z" fill="white"/>
</svg>
