<svg width="12" height="12" viewBox="0 0 12 12" fill="none" xmlns="http://www.w3.org/2000/svg">
<path fill-rule="evenodd" clip-rule="evenodd" d="M9.33673 1.5C9.14501 1.5 8.95759 1.555 8.79817 1.65804C8.63876 1.76108 8.51451 1.90753 8.44114 2.07888C8.36777 2.25023 8.34857 2.43878 8.38597 2.62068C8.42338 2.80258 8.5157 2.96967 8.65127 3.10081C8.78685 3.23196 8.95957 3.32127 9.14762 3.35745C9.33566 3.39364 9.53057 3.37506 9.7077 3.30409C9.88484 3.23311 10.0362 3.11292 10.1428 2.95871C10.2493 2.8045 10.3061 2.6232 10.3061 2.43774C10.3061 2.31459 10.281 2.19265 10.2323 2.07888C10.1836 1.96511 10.1122 1.86173 10.0222 1.77466C9.93218 1.68758 9.82531 1.61851 9.7077 1.57138C9.59009 1.52426 9.46404 1.5 9.33673 1.5V1.5ZM2.67588 1.76032L2.2763 2.35747L6.65793 4.96437V4.9503L7.34968 4.55645C7.34693 4.82506 7.41631 5.08975 7.55102 5.32464C7.68573 5.55953 7.88117 5.75657 8.11821 5.89648L8.13353 5.91111L9.59382 6.78508L10.1173 5.9985L8.64168 5.11009H8.62443C8.45537 5.01857 8.3687 4.80889 8.3687 4.52738V3.63935C8.3687 3.63504 8.3687 3.59809 8.3687 3.59565C8.3687 3.03639 7.94508 2.62041 7.25643 2.62041C6.56425 2.64906 5.90739 2.92396 5.41188 3.39235L2.67588 1.76032ZM4.4898 4.25113L4.20228 4.44055C4.09054 4.54225 4.00624 4.66887 3.95673 4.80935C3.90723 4.94982 3.89403 5.09988 3.91827 5.24643C3.94252 5.39298 4.00349 5.53156 4.09584 5.65006C4.1882 5.76857 4.30914 5.86341 4.44811 5.9263L6.30333 6.74194L4.51965 7.70331L1.49148 6.07165L1 6.85841L7.14844 10.1649C7.55565 10.3896 8.01742 10.5052 8.48619 10.4998C8.91299 10.5023 9.33436 10.4072 9.71596 10.2223L10.5 9.80065L10.0081 9.61122C9.31948 9.93756 8.32954 9.75113 7.64089 9.3781L5.51948 8.24213L6.8107 7.54295H6.82602C6.98228 7.45272 7.11397 7.32763 7.21009 7.17814C7.30621 7.02865 7.36398 6.85909 7.37857 6.68361C7.38413 6.50847 7.34326 6.33486 7.25984 6.17932C7.17643 6.02378 7.05324 5.89148 6.90202 5.79502V5.78039C6.88981 5.77214 6.88263 5.77401 6.87139 5.76576C6.21569 5.32427 5.43165 4.85653 5.31882 4.79051L5.24127 4.74681L4.4898 4.25113Z" fill="white"/>
</svg>
