<svg width="12" height="12" viewBox="0 0 12 12" fill="none" xmlns="http://www.w3.org/2000/svg">
<path d="M9.46 3.005C9.36 2.71 9.08 2.5 8.75 2.5H7.5L7.31063 1.74254C7.275 1.6 7.14693 1.5 7 1.5V1.5H5V1.5C4.85307 1.5 4.725 1.6 4.68937 1.74254L4.5 2.5H3.25C2.92 2.5 2.645 2.71 2.54 3.005L1.5 6V10C1.5 10.275 1.725 10.5 2 10.5H2.5C2.775 10.5 3 10.275 3 10V9.5H9V10C9 10.275 9.225 10.5 9.5 10.5H10C10.275 10.5 10.5 10.275 10.5 10V6L9.46 3.005ZM3.25 8C2.835 8 2.5 7.665 2.5 7.25C2.5 6.835 2.835 6.5 3.25 6.5C3.665 6.5 4 6.835 4 7.25C4 7.665 3.665 8 3.25 8ZM8.75 8C8.335 8 8 7.665 8 7.25C8 6.835 8.335 6.5 8.75 6.5C9.165 6.5 9.5 6.835 9.5 7.25C9.5 7.665 9.165 8 8.75 8ZM2.5 5.5L3.25 3.25H8.75L9.5 5.5H2.5Z" fill="white"/>
</svg>
