<svg width="580" height="580" viewBox="0 0 580 580" fill="none" xmlns="http://www.w3.org/2000/svg">
<g clip-path="url(#clip0)">
<path d="M66.275 1.76799C24.94 1.76799 1.704 23.139 1.704 66.804V516.927C1.704 557.771 22.599 579.156 63.896 579.156H515.92C557.227 579.156 578.149 558.841 578.149 516.927V66.804C578.149 24.203 557.227 1.76799 514.628 1.76799C514.624 1.76799 66.133 1.62499 66.275 1.76799Z" fill="#111111" stroke="#EEEEEE" stroke-width="3.408"/>
<path d="M413.576 518.1H166.425" stroke="white" stroke-width="35.0131"/>
<path d="M434.171 270.949H145.829V476.908H434.171V270.949ZM290 446.014C250.868 446.014 217.914 413.061 217.914 373.928C217.914 334.796 250.868 301.843 290 301.843C329.132 301.843 362.086 334.796 362.086 373.928C362.086 413.061 329.132 446.014 290 446.014V446.014Z" fill="white"/>
<path d="M308.536 320.379L290 373.928L327.073 411.001" stroke="white" stroke-width="20.5959"/>
<path d="M351.788 126.777L290 44.3938L228.212 126.777V188.565L166.424 250.353H413.575L351.788 188.565V126.777Z" fill="white"/>
</g>
<defs>
<clipPath id="clip0">
<path d="M0 0H580V580H0V0Z" fill="white"/>
</clipPath>
</defs>
</svg>
