<svg width="580" height="580" viewBox="0 0 580 580" fill="none" xmlns="http://www.w3.org/2000/svg">
<g clip-path="url(#clip0)">
<path d="M66.2751 1.76799C24.9401 1.76799 1.7041 23.139 1.7041 66.804V516.927C1.7041 557.771 22.5991 579.156 63.8961 579.156H515.92C557.227 579.156 578.149 558.841 578.149 516.927V66.804C578.149 24.203 557.227 1.76799 514.628 1.76799C514.624 1.76799 66.1331 1.62499 66.2751 1.76799Z" fill="#111111" stroke="#EEEEEE" stroke-width="3.408"/>
<path d="M329.07 114.185H250.93V153.255H329.07V114.185Z" fill="white"/>
<path d="M315.396 100.51H262.651V133.719H315.396V100.51Z" fill="white"/>
<path d="M293.907 55.5794H286.093L280.232 114.185H299.767L293.907 55.5794Z" fill="white"/>
<path d="M268.511 133.72C254.837 290 223.581 340.791 205.999 387.675H254.837L276.325 309.535H305.628L327.117 387.675H375.954C358.373 340.791 327.117 290 313.442 133.72H268.511Z" fill="white"/>
<path d="M202.092 524.421C209.906 495.118 231.395 446.28 290 446.28C348.605 446.28 372.047 495.118 377.908 524.421H446.28L381.815 407.21H198.185L133.719 524.421H202.092V524.421Z" fill="white"/>
</g>
<defs>
<clipPath id="clip0">
<path d="M0 0H580V580H0V0Z" fill="white"/>
</clipPath>
</defs>
</svg>
