<?xml version="1.0" encoding="UTF-8" standalone="no"?>
<!-- Created with Inkscape (http://www.inkscape.org/) -->

<svg
   xmlns:dc="http://purl.org/dc/elements/1.1/"
   xmlns:cc="http://creativecommons.org/ns#"
   xmlns:rdf="http://www.w3.org/1999/02/22-rdf-syntax-ns#"
   xmlns:svg="http://www.w3.org/2000/svg"
   xmlns="http://www.w3.org/2000/svg"
   xmlns:sodipodi="http://sodipodi.sourceforge.net/DTD/sodipodi-0.dtd"
   xmlns:inkscape="http://www.inkscape.org/namespaces/inkscape"
   version="1.0"
   width="580"
   height="580"
   id="svg2"
   sodipodi:version="0.32"
   inkscape:version="0.48.4 r9939"
   sodipodi:docname="sagrada_familia.svg"
   inkscape:output_extension="org.inkscape.output.svg.inkscape">
  <metadata
     id="metadata2975">
    <rdf:RDF>
      <cc:Work
         rdf:about="">
        <dc:format>image/svg+xml</dc:format>
        <dc:type
           rdf:resource="http://purl.org/dc/dcmitype/StillImage" />
        <cc:license
           rdf:resource="http://web.resource.org/cc/PublicDomain" />
        <dc:language>en</dc:language>
        <dc:title></dc:title>
      </cc:Work>
    </rdf:RDF>
  </metadata>
  <sodipodi:namedview
     inkscape:window-height="995"
     inkscape:window-width="1280"
     inkscape:pageshadow="2"
     inkscape:pageopacity="0.0"
     guidetolerance="10.0"
     gridtolerance="10.0"
     objecttolerance="10.0"
     borderopacity="1.0"
     bordercolor="#666666"
     pagecolor="#ffffff"
     id="base"
     inkscape:zoom="0.46083856"
     inkscape:cx="447.17446"
     inkscape:cy="429.58033"
     inkscape:window-x="0"
     inkscape:window-y="0"
     inkscape:current-layer="svg2"
     showgrid="false"
     inkscape:window-maximized="1" />
  <defs
     id="defs4">
    <inkscape:perspective
       sodipodi:type="inkscape:persp3d"
       inkscape:vp_x="0 : 290 : 1"
       inkscape:vp_y="0 : 1000 : 0"
       inkscape:vp_z="580 : 290 : 1"
       inkscape:persp3d-origin="290 : 193.33333 : 1"
       id="perspective2441" />
    <inkscape:perspective
       id="perspective3452"
       inkscape:persp3d-origin="30 : 20 : 1"
       inkscape:vp_z="60 : 30 : 1"
       inkscape:vp_y="0 : 1000 : 0"
       inkscape:vp_x="0 : 30 : 1"
       sodipodi:type="inkscape:persp3d" />
  </defs>
  <g
     id="g1327">
    <path
       d="M 66.275,1.768 C 24.94,1.768 1.704,23.139 1.704,66.804 L 1.704,516.927 C 1.704,557.771 22.599,579.156 63.896,579.156 L 515.92,579.156 C 557.227,579.156 578.149,558.841 578.149,516.927 L 578.149,66.804 C 578.149,24.203 557.227,1.768 514.628,1.768 C 514.624,1.768 66.133,1.625 66.275,1.768 z "
       style="fill:#111;stroke:#eee;stroke-width:3.40799999"
       id="path1329" />
  </g>
  <path
     inkscape:connector-curvature="0"
     d="m 357.42331,299.63189 c 0,0 -21.19018,3.85276 -57.79142,3.85276 -36.60124,0 -57.79142,-3.85276 -57.79142,-3.85276 -11.55829,-38.52761 15.41104,-67.42332 57.79142,-67.42332 42.38036,0 67.42332,30.82208 57.79142,67.42332 z"
     id="path3"
     style="fill:#ffffff;fill-opacity:1" />
  <path
     inkscape:connector-curvature="0"
     d="m 357.42331,288.07361 c 0,36.60123 -30.8221,78.98161 -57.79142,78.98161 -26.96933,0 -57.79142,-42.38038 -57.79142,-78.98161 0,-36.60123 25.04294,-44.30676 57.79142,-44.30676 32.74847,0 57.79142,7.70553 57.79142,44.30676 z"
     id="path5"
     style="fill:#ffffff;fill-opacity:1" />
  <path
     inkscape:connector-curvature="0"
     d="m 374.76074,386.31903 h -67.42333 c -25.04295,0 -53.93866,-3.85277 -73.20246,-19.26381 l -11.5583,1.92637 c 0,0 -1.92636,52.01229 -26.96931,73.20248 21.19017,-46.23314 11.55827,-80.90799 11.55827,-80.90799 l -13.48466,-9.63191 C 164.78524,309.2638 151.30058,266.88343 141.66867,228.3558 c -3.85277,-23.11656 -7.70552,-42.38037 -7.70552,-42.38037 0,0 -40.453991,-7.70553 -50.085888,-1.92638 -9.631907,3.85275 -17.337426,36.60124 21.190188,48.15952 5.77913,52.01227 21.19017,96.31902 23.11656,104.02455 1.92638,3.85277 9.63189,25.04296 9.63189,25.04296 0,0 -21.19019,19.26381 -21.19019,67.42332 7.70553,42.38039 48.15953,57.79143 57.79143,57.79143 1.92639,15.41104 11.55829,34.67485 11.55829,34.67485 h 258.13502 c 0,-26.96932 -1.92639,-48.15953 -5.77915,-65.49695 -1.92637,-5.77914 -26.96934,40.45399 -26.96934,40.45399 0,0 17.33744,-69.3497 15.41107,-73.20245 -13.48467,-26.96934 -30.8221,-36.60124 -52.01229,-36.60124 z"
     id="path7"
     style="fill:#ffffff;fill-opacity:1" />
  <path
     inkscape:connector-curvature="0"
     d="M 145.52143,187.9018 H 68.466204 c -5.77914,0 -9.6319,-3.85275 -9.6319,-9.6319 v -13.48466 c 0,-5.77914 3.85276,-9.63189 9.6319,-9.63189 h 77.055226 c 5.77915,0 9.63191,3.85275 9.63191,9.63189 v 13.48466 c 0,5.77915 -3.85276,9.6319 -9.63191,9.6319 z"
     id="path9"
     style="fill:#ffffff;fill-opacity:1" />
  <path
     inkscape:connector-curvature="0"
     d="m 87.730017,162.85886 c 0,0 -38.527619,-28.89571 -9.631908,-61.64418 26.969341,-30.822095 26.969341,-42.380376 26.969341,-42.380376 0,0 26.96931,21.190193 17.33741,40.453995 -7.70551,15.411041 11.55829,11.558281 13.48468,-9.631901 5.77913,7.705534 17.3374,34.674852 1.92636,53.938652 -11.55828,15.41105 -17.33741,21.19019 -17.33741,21.19019 l -32.748473,-1.92638 z"
     id="path11"
     style="fill:#ffffff;fill-opacity:1" />
  <polygon
     points="22.4,24 24,20.8 20.1,18.9 17.4,24 "
     id="polygon13"
     transform="matrix(19.263808,0,0,19.263808,58.834304,58.834304)"
     style="fill:#ffffff;fill-opacity:1" />
  <path
     inkscape:connector-curvature="0"
     d="m 315.04294,274.58895 h -30.8221 c 0,0 11.5583,-100.17181 15.41105,-100.17181 3.85277,0 15.41105,100.17181 15.41105,100.17181 z"
     id="path15"
     style="fill:#ffffff;fill-opacity:1" />
  <path
     inkscape:connector-curvature="0"
     d="m 324.67485,315.04293 v -30.82209 c 0,0 100.17178,11.5583 100.17178,15.41105 0,3.85276 -100.17178,15.41104 -100.17178,15.41104 z"
     id="path17"
     style="fill:#ffffff;fill-opacity:1" />
  <path
     inkscape:connector-curvature="0"
     d="m 274.58894,284.22084 v 30.82209 c 0,0 -100.1718,-11.55828 -100.1718,-15.41104 0,-3.85275 100.1718,-15.41105 100.1718,-15.41105 z"
     id="path19"
     style="fill:#ffffff;fill-opacity:1" />
  <path
     inkscape:connector-curvature="0"
     d="m 328.52759,299.63189 -15.41104,-26.96934 c 0,0 92.46628,-40.45398 94.39266,-36.60122 3.85275,3.85276 -78.98162,63.57056 -78.98162,63.57056 z"
     id="path21"
     style="fill:#ffffff;fill-opacity:1" />
  <path
     inkscape:connector-curvature="0"
     d="m 324.67485,286.14722 -25.04296,-15.41104 c 0,0 59.7178,-80.90798 63.57056,-78.9816 3.85276,1.92636 -38.5276,94.39264 -38.5276,94.39264 z"
     id="path23"
     style="fill:#ffffff;fill-opacity:1" />
  <path
     inkscape:connector-curvature="0"
     d="m 299.63189,270.73618 -26.96933,15.41104 c 0,0 -40.454,-92.46628 -36.60124,-94.39264 3.85277,-1.92638 63.57057,78.9816 63.57057,78.9816 z"
     id="path25"
     style="fill:#ffffff;fill-opacity:1" />
  <path
     inkscape:connector-curvature="0"
     d="m 286.14723,274.58895 -15.41105,25.04294 c 0,0 -80.90798,-59.7178 -78.98162,-63.57056 1.92639,-3.85276 94.39267,38.52762 94.39267,38.52762 z"
     id="path27"
     style="fill:#ffffff;fill-opacity:1" />
</svg>
