<svg width="16" height="16" viewBox="0 0 16 16" fill="none" xmlns="http://www.w3.org/2000/svg">
<path d="M10.2617 5.44612C10.9105 5.44612 11.4365 4.92015 11.4365 4.27133C11.4365 3.6225 10.9105 3.09653 10.2617 3.09653C9.61284 3.09653 9.08687 3.6225 9.08687 4.27133C9.08687 4.92015 9.61284 5.44612 10.2617 5.44612Z" fill="#00AC26"/>
<path d="M4.36872 9.10345C5.13499 9.10345 5.75857 9.72703 5.75857 10.4933C5.75857 11.2596 5.13499 11.8832 4.36872 11.8832C3.60244 11.8832 2.97886 11.2596 2.97886 10.4933C2.97886 9.72703 3.60244 9.10345 4.36872 9.10345ZM4.36872 8.17688C3.08959 8.17688 2.05229 9.21418 2.05229 10.4933C2.05229 11.7724 3.08959 12.8097 4.36872 12.8097C5.64785 12.8097 6.68514 11.7724 6.68514 10.4933C6.68514 9.21418 5.64785 8.17688 4.36872 8.17688Z" fill="#00AC26"/>
<path d="M11.6313 9.1972C12.3976 9.1972 13.0211 9.82078 13.0211 10.5871C13.0211 11.3533 12.3976 11.9769 11.6313 11.9769C10.865 11.9769 10.2414 11.3533 10.2414 10.5871C10.2414 9.82078 10.865 9.1972 11.6313 9.1972ZM11.6313 8.27063C10.3522 8.27063 9.31487 9.30792 9.31487 10.5871C9.31487 11.8662 10.3522 12.9035 11.6313 12.9035C12.9104 12.9035 13.9477 11.8662 13.9477 10.5871C13.9477 9.30792 12.9104 8.27063 11.6313 8.27063Z" fill="#00AC26"/>
<path d="M8.24526 5.04358C7.93162 5.04358 7.56799 5.29497 7.14789 5.60503C6.63279 5.98498 6.11031 6.38446 5.89739 6.5748C5.78232 6.67803 5.59114 6.86432 5.59114 7.31489C5.59114 7.76547 5.93651 7.95246 6.30571 8.18259C6.69212 8.42311 7.45413 8.89716 7.45413 8.89716L7.24997 10.6836C7.24997 10.6836 7.22615 11.0698 7.58173 11.1174C7.93731 11.1651 8.06662 10.7857 8.06662 10.7857C8.06662 10.7857 8.37516 9.20256 8.42391 8.89716C8.47445 8.58208 8.53181 8.36447 8.1687 8.10603C7.81061 7.85117 7.19893 7.51906 7.19893 7.51906C7.19893 7.51906 8.37057 6.59373 8.44943 6.54928C8.53904 6.49874 8.61502 6.40582 8.70463 6.52377C8.79675 6.64456 9.4192 7.4425 9.4192 7.4425C9.4192 7.4425 9.51582 7.54458 9.75097 7.54458H11.3332C11.5312 7.54458 11.6905 7.38526 11.6905 7.1873C11.6905 6.98933 11.5312 6.83001 11.3332 6.83001H9.82753C9.82753 6.83001 9.06006 5.63523 8.90879 5.37535C8.75179 5.10651 8.5141 5.04358 8.24526 5.04358V5.04358Z" fill="#00AC26"/>
</svg>
