<svg width="16" height="16" viewBox="0 0 16 16" fill="none" xmlns="http://www.w3.org/2000/svg">
<path d="M6.44549 3.43894C6.27664 3.65929 6.08524 3.90882 5.82909 4.1411C5.75969 4.20387 5.68653 4.25979 5.61183 4.31261C5.5064 4.13646 5.43656 3.9654 5.41225 3.90197C5.37755 3.81158 5.28517 3.57155 5.41908 3.3764C5.56451 3.16489 5.88166 3.13571 6.20258 3.13571H6.35596C6.48349 3.13571 6.59178 3.13593 6.68682 3.13701C6.60217 3.23669 6.52238 3.33902 6.44547 3.43892L6.44549 3.43894Z" fill="#FFCE00"/>
<path d="M10.365 4.30664C10.2978 4.26067 10.2315 4.21205 10.1658 4.15878C9.91651 3.95612 9.74501 3.71411 9.56289 3.45795C9.49305 3.35938 9.41879 3.2555 9.33768 3.15317C9.503 3.13615 9.66876 3.13571 9.79849 3.13571C10.1196 3.13571 10.4368 3.16488 10.582 3.3764C10.7159 3.57155 10.6235 3.81157 10.589 3.9013C10.5448 4.01667 10.4652 4.16387 10.3649 4.30664L10.365 4.30664Z" fill="#FFCE00"/>
<path d="M10.3318 6.03871C10.2894 6.00025 10.2361 5.98124 10.1831 5.98124C10.1232 5.98124 10.0631 6.00555 10.0195 6.05351C9.93753 6.14391 9.94416 6.28381 10.0343 6.36581L13.3027 9.33514C13.3193 9.53494 13.2799 9.7723 13.1692 10.0866C12.9904 10.5927 12.7402 10.9664 12.4189 11.372C12.2633 11.5683 12.0135 11.6903 11.756 11.713L9.52755 6.85603C9.49021 6.77492 9.41019 6.72717 9.32643 6.72717C9.29549 6.72717 9.26433 6.73357 9.23449 6.74729C9.12354 6.79812 9.0747 6.92941 9.12575 7.04035L11.4018 12.0003C11.2881 12.2576 11.0647 12.4738 10.7734 12.6015C10.4098 12.7609 9.89841 12.8767 9.40379 12.9887C9.24908 13.0236 9.09613 13.0583 8.95071 13.0937C8.88109 13.1107 8.80992 13.1193 8.73942 13.1193C8.54559 13.1193 8.36922 13.0559 8.22158 12.9551V7.19683C8.22158 7.07461 8.12257 6.97582 8.00057 6.97582C7.87857 6.97582 7.77955 7.07461 7.77955 7.19683V12.9096C7.6107 13.0199 7.40162 13.0911 7.15895 13.0911C7.07562 13.0911 6.99076 13.082 6.9218 13.0672C6.35092 12.9887 5.7975 12.8358 5.27679 12.6123C4.91897 12.4592 4.70149 12.2547 4.57949 12.0459L6.92931 7.09804C6.98169 6.98775 6.93459 6.85603 6.82455 6.80365C6.79383 6.78929 6.76156 6.78221 6.72974 6.78221C6.64708 6.78221 6.56796 6.82884 6.52994 6.90841L4.24841 11.7128C3.99867 11.6803 3.75533 11.5459 3.55797 11.3201C3.24324 10.9355 3.00212 10.5202 2.84122 10.0857C2.74265 9.81894 2.70861 9.55262 2.73071 9.31525L6.08018 6.49092C6.17345 6.41224 6.18538 6.27277 6.1067 6.17951C6.06294 6.12779 6.00061 6.10105 5.93763 6.10105C5.88724 6.10105 5.83662 6.11807 5.79529 6.15299L2.69071 8.77089C2.57379 8.62745 2.48848 8.39627 2.47522 8.02828C2.47522 6.07607 3.54868 5.67515 4.58701 5.28705C5.11899 5.08835 5.66909 4.88259 6.12593 4.46841C6.41104 4.21004 6.61569 3.94328 6.79626 3.7079C7.13707 3.26388 7.43124 2.88065 8.03217 2.88065C8.61101 2.88065 8.89811 3.28532 9.20222 3.71387C9.39318 3.98306 9.59076 4.26132 9.8867 4.50178C10.3968 4.9164 10.9449 5.12128 11.4751 5.31931C12.5294 5.71294 13.5248 6.08513 13.5248 8.02828C13.5248 8.2115 13.4647 8.52313 13.3129 8.74702L10.3318 6.03871Z" fill="#FFCE00"/>
</svg>
