<svg width="18" height="18" viewBox="0 0 18 18" fill="none" xmlns="http://www.w3.org/2000/svg">
<path d="M14.0625 9C14.0625 9.66482 13.9316 10.3231 13.6772 10.9373C13.4227 11.5515 13.0498 12.1096 12.5798 12.5798C12.1096 13.0498 11.5515 13.4227 10.9373 13.6772C10.3231 13.9316 9.66482 14.0625 9 14.0625C8.33518 14.0625 7.67688 13.9316 7.06266 13.6772C6.44845 13.4227 5.89036 13.0498 5.42027 12.5798C4.95018 12.1096 4.57728 11.5515 4.32286 10.9373C4.06845 10.3231 3.9375 9.66482 3.9375 9C3.9375 8.33518 4.06845 7.67688 4.32286 7.06266C4.57728 6.44845 4.95018 5.89036 5.42027 5.42027C5.89036 4.95018 6.44845 4.57728 7.06266 4.32286C7.67688 4.06845 8.33518 3.9375 9 3.9375C9.66482 3.9375 10.3231 4.06845 10.9373 4.32286C11.5515 4.57728 12.1096 4.95018 12.5798 5.42027C13.0498 5.89036 13.4227 6.44845 13.6772 7.06266C13.9316 7.67688 14.0625 8.33518 14.0625 9Z" fill="#84387C"/>
<path d="M15 9C15 9.78793 14.8448 10.5681 14.5433 11.2961C14.2417 12.0241 13.7998 12.6855 13.2426 13.2426C12.6855 13.7998 12.0241 14.2417 11.2961 14.5433C10.5681 14.8448 9.78793 15 9 15C8.21207 15 7.43185 14.8448 6.7039 14.5433C5.97595 14.2417 5.31451 13.7998 4.75736 13.2426C4.20021 12.6855 3.75825 12.0241 3.45672 11.2961C3.15519 10.5681 3 9.78793 3 9C3 8.21207 3.15519 7.43185 3.45672 6.7039C3.75825 5.97595 4.20021 5.31451 4.75736 4.75736C5.31451 4.20021 5.97595 3.75825 6.7039 3.45672C7.43185 3.15519 8.21207 3 9 3C9.78793 3 10.5681 3.15519 11.2961 3.45672C12.0241 3.75825 12.6855 4.20021 13.2426 4.75736C13.7998 5.31451 14.2417 5.97595 14.5433 6.7039C14.8448 7.43185 15 8.21207 15 9Z" fill="#84387C"/>
</svg>
