<svg width="18" height="18" viewBox="0 0 18 18" fill="none" xmlns="http://www.w3.org/2000/svg">
<path d="M6 8.12602C4.27477 8.57006 3 10.1362 3 12C3 14.2091 4.79086 16 7 16C8.86384 16 10.4299 14.7252 10.874 13H8.73244C8.38663 13.5978 7.74028 14 7 14C5.89543 14 5 13.1046 5 12C5 11.2597 5.4022 10.6134 6 10.2676V8.12602Z" fill="#0000FF"/>
<path d="M10 3.5C10 4.32843 9.32843 5 8.5 5C7.67157 5 7 4.32843 7 3.5C7 2.67157 7.67157 2 8.5 2C9.32843 2 10 2.67157 10 3.5Z" fill="#0000FF"/>
<path d="M9.5 8.60196V10H10.5585C11.8498 10 12.9962 10.8263 13.4045 12.0513L13.9487 13.6838C14.1233 14.2077 13.8402 14.774 13.3162 14.9487C12.7923 15.1233 12.226 14.8402 12.0513 14.3162L11.5072 12.6838C11.3711 12.2754 10.9889 12 10.5585 12H9C7.89543 12 7 11.1046 7 10V7C7 6.30964 7.55964 5.75 8.25 5.75C8.25943 5.75 8.26883 5.7501 8.2782 5.75031C8.34167 5.74846 8.40471 5.7547 8.46588 5.76857C8.87314 5.83947 9.21272 6.10748 9.38274 6.47071L10.4324 7.42492C10.6625 7.6341 10.9623 7.75 11.2732 7.75H12C12.4142 7.75 12.75 8.08579 12.75 8.5C12.75 8.91421 12.4142 9.25 12 9.25H11.2732C10.6231 9.25 9.99522 9.01974 9.5 8.60196Z" fill="#0000FF"/>
</svg>
