<svg width="16" height="16" viewBox="0 0 16 16" fill="none" xmlns="http://www.w3.org/2000/svg">
<path d="M9.82168 3.33646C9.59694 3.46965 9.42601 3.67924 9.21851 3.83847C9.03545 4.00399 8.8241 4.156 8.67435 4.35305C8.67036 4.53656 8.87819 4.613 8.97263 4.74527C9.3284 5.09688 9.68417 5.4485 10.0399 5.80012C9.53196 6.35487 9.00917 6.89808 8.50504 7.45537C8.4514 7.62243 8.6395 7.70984 8.73163 7.80677C8.80797 7.91925 8.99043 8.05121 9.10671 7.91494C9.58913 7.34439 10.0969 6.78735 10.6019 6.2373C10.9284 6.39739 11.1163 6.73206 11.426 6.91396C11.9799 7.19563 12.5214 7.50925 13.0829 7.77093C13.2104 7.78094 13.2433 7.60229 13.1597 7.52962C12.8127 6.87459 12.5733 6.16473 12.2041 5.52041C12.0181 5.34012 11.8168 5.17214 11.6261 4.99874C11.7351 4.8822 11.9139 4.78799 11.9333 4.61662C11.8228 4.48215 11.6872 4.33229 11.5134 4.29466C11.3704 4.35341 11.2886 4.49275 11.1754 4.58973C10.7396 4.18633 10.3142 3.77601 9.89657 3.35182C9.87353 3.34004 9.84776 3.33299 9.82168 3.33645L9.82168 3.33646ZM7.03286 9.05557C6.84419 9.1767 6.72707 9.37857 6.56134 9.52692C5.77101 10.3772 4.97026 11.2198 4.18642 12.0748C4.13319 12.2544 4.34248 12.3382 4.43925 12.4441C4.55696 12.5333 4.65373 12.7172 4.8201 12.6951C5.32177 12.1879 5.77086 11.6313 6.25428 11.1079C6.69345 10.6075 7.14863 10.1176 7.57628 9.60988C7.61634 9.42196 7.39938 9.33775 7.30169 9.22071C7.23196 9.14525 7.15351 9.02372 7.03286 9.05557Z" fill="#ACACAC"/>
<path d="M6.44848 3.30379C6.1487 3.46347 5.88929 3.68796 5.60353 3.8719C4.81759 4.41978 4.06213 5.04169 3.55276 5.86539C3.30071 6.24973 3.03522 6.63005 2.79427 7.01881C2.80941 7.21363 3.03522 7.25227 3.1505 7.37248C3.42734 7.55806 3.68018 7.80282 3.98283 7.94466C4.16986 7.89995 4.21276 7.67658 4.33456 7.55047C4.63731 7.12265 4.92545 6.68125 5.23745 6.26224C5.34278 6.33165 5.39203 6.45929 5.50044 6.531C7.51231 8.53912 9.51027 10.5611 11.5166 12.5747C11.6713 12.6589 11.7864 12.4799 11.8744 12.382C11.976 12.2569 12.1663 12.1669 12.1788 11.9928C11.9264 11.6869 11.6138 11.4225 11.3274 11.1429C9.46016 9.35589 7.58738 7.55715 5.71559 5.7713C5.71017 5.72929 5.8086 5.72364 5.82708 5.68335C6.336 5.30542 6.86902 4.95354 7.36246 4.55867C7.42184 4.37424 7.21635 4.267 7.14042 4.12503C6.9195 3.85533 6.74263 3.54066 6.48304 3.30635C6.47191 3.30323 6.45995 3.30231 6.44848 3.3038V3.30379Z" fill="#ACACAC"/>
<path d="M6.44848 3.30379C6.1487 3.46347 5.88929 3.68796 5.60353 3.8719C4.81759 4.41978 4.06213 5.04169 3.55276 5.86539C3.30071 6.24973 3.03522 6.63005 2.79427 7.01881C2.80941 7.21363 3.03522 7.25227 3.1505 7.37248C3.42734 7.55806 3.68018 7.80282 3.98283 7.94466C4.16986 7.89995 4.21276 7.67658 4.33456 7.55047C4.63731 7.12265 4.92545 6.68125 5.23745 6.26224C5.34278 6.33165 5.39203 6.45929 5.50044 6.531C7.51231 8.53912 9.51027 10.5611 11.5166 12.5747C11.6713 12.6589 11.7864 12.4799 11.8744 12.382C11.976 12.2569 12.1663 12.1669 12.1788 11.9928C11.9264 11.6869 11.6138 11.4225 11.3274 11.1429C9.46016 9.35589 7.58738 7.55715 5.71559 5.7713C5.71017 5.72929 5.8086 5.72364 5.82708 5.68335C6.336 5.30542 6.86902 4.95354 7.36246 4.55867C7.42184 4.37424 7.21635 4.267 7.14042 4.12503C6.9195 3.85533 6.74263 3.54066 6.48304 3.30635C6.47191 3.30323 6.45995 3.30231 6.44848 3.3038V3.30379Z" stroke="black" stroke-width="0.520256" stroke-linecap="round" stroke-linejoin="round"/>
<path d="M9.82168 3.33646C9.59694 3.46965 9.42601 3.67924 9.21851 3.83847C9.03545 4.00399 8.8241 4.156 8.67435 4.35305C8.67036 4.53656 8.87819 4.613 8.97263 4.74527C9.3284 5.09688 9.68417 5.4485 10.0399 5.80012C9.53196 6.35487 9.00917 6.89808 8.50504 7.45537C8.4514 7.62243 8.6395 7.70984 8.73163 7.80677C8.80797 7.91925 8.99043 8.05121 9.10671 7.91494C9.58913 7.34439 10.0969 6.78735 10.6019 6.2373C10.9284 6.39739 11.1163 6.73206 11.426 6.91396C11.9799 7.19563 12.5214 7.50925 13.0829 7.77093C13.2104 7.78094 13.2433 7.60229 13.1597 7.52962C12.8127 6.87459 12.5733 6.16473 12.2041 5.52041C12.0181 5.34012 11.8168 5.17214 11.6261 4.99874C11.7351 4.8822 11.9139 4.78799 11.9333 4.61662C11.8228 4.48215 11.6872 4.33229 11.5134 4.29466C11.3704 4.35341 11.2886 4.49275 11.1754 4.58973C10.7396 4.18633 10.3142 3.77601 9.89657 3.35182C9.87353 3.34004 9.84776 3.33299 9.82168 3.33645L9.82168 3.33646ZM7.03286 9.05557C6.84419 9.1767 6.72707 9.37857 6.56134 9.52692C5.77101 10.3772 4.97026 11.2198 4.18642 12.0748C4.13319 12.2544 4.34248 12.3382 4.43925 12.4441C4.55696 12.5333 4.65373 12.7172 4.8201 12.6951C5.32177 12.1879 5.77086 11.6313 6.25428 11.1079C6.69345 10.6075 7.14863 10.1176 7.57628 9.60988C7.61634 9.42196 7.39938 9.33775 7.30169 9.22071C7.23196 9.14525 7.15351 9.02372 7.03286 9.05557Z" stroke="black" stroke-width="0.520256" stroke-linecap="round" stroke-linejoin="round"/>
</svg>
