<?xml version="1.0" encoding="UTF-8" standalone="no"?>
<!-- Generator: Adobe Illustrator 16.0.4, SVG Export Plug-In . SVG Version: 6.00 Build 0)  -->

<svg
   xmlns:dc="http://purl.org/dc/elements/1.1/"
   xmlns:cc="http://creativecommons.org/ns#"
   xmlns:rdf="http://www.w3.org/1999/02/22-rdf-syntax-ns#"
   xmlns:svg="http://www.w3.org/2000/svg"
   xmlns="http://www.w3.org/2000/svg"
   xmlns:sodipodi="http://sodipodi.sourceforge.net/DTD/sodipodi-0.dtd"
   xmlns:inkscape="http://www.inkscape.org/namespaces/inkscape"
   version="1.1"
   id="Слой_1"
   x="0px"
   y="0px"
   width="16"
   height="16"
   viewBox="0 0 16 16"
   xml:space="preserve"
   inkscape:version="0.48.4 r9939"
   sodipodi:docname="osmc_yellow_mz.svg"
   style="enable-background:new"><metadata
     id="metadata11"><rdf:RDF><cc:Work
         rdf:about=""><dc:format>image/svg+xml</dc:format><dc:type
           rdf:resource="http://purl.org/dc/dcmitype/StillImage" /><dc:title></dc:title></cc:Work></rdf:RDF></metadata><defs
     id="defs9" /><sodipodi:namedview
     pagecolor="#ffffff"
     bordercolor="#666666"
     borderopacity="1"
     objecttolerance="10"
     gridtolerance="10"
     guidetolerance="10"
     inkscape:pageopacity="0"
     inkscape:pageshadow="2"
     inkscape:window-width="1920"
     inkscape:window-height="1004"
     id="namedview7"
     showgrid="false"
     inkscape:zoom="22.627417"
     inkscape:cx="-3.2743103"
     inkscape:cy="10.577448"
     inkscape:window-x="1680"
     inkscape:window-y="0"
     inkscape:window-maximized="1"
     inkscape:current-layer="Слой_1"
     inkscape:snap-bbox="true"
     inkscape:object-nodes="true"
     inkscape:snap-smooth-nodes="true"
     inkscape:bbox-paths="true"
     inkscape:bbox-nodes="true"
     inkscape:snap-bbox-edge-midpoints="true"
     inkscape:snap-bbox-midpoints="true" /><path
     sodipodi:type="arc"
     style="fill:#ffce00;fill-opacity:1;fill-rule:nonzero;stroke:none;color:#000000;stroke-width:6.24439098px;marker:none;visibility:visible;display:inline;overflow:visible;enable-background:accumulate"
     id="path2821"
     sodipodi:cx="16.970547"
     sodipodi:cy="50.701263"
     sodipodi:rx="7.1528749"
     sodipodi:ry="7.3632541"
     d="m 24.123422,50.701263 a 7.1528749,7.3632541 0 1 1 -14.3057502,0 7.1528749,7.3632541 0 1 1 14.3057502,0 z"
     transform="matrix(0.16014372,0,0,0.16014372,0.24998705,0.06020257)" /><path
     sodipodi:type="arc"
     style="fill:#ffce00;fill-opacity:1;fill-rule:nonzero;stroke:none;color:#000000;stroke-width:6.24439098px;marker:none;visibility:visible;display:inline;overflow:visible;enable-background:accumulate"
     id="path3597"
     sodipodi:cx="36.465637"
     sodipodi:cy="28.26087"
     sodipodi:rx="3.6465638"
     sodipodi:ry="3.7166901"
     d="m 40.112201,28.26087 a 3.6465638,3.7166901 0 1 1 -7.293128,0 3.6465638,3.7166901 0 1 1 7.293128,0 z"
     transform="matrix(0.16014372,0,0,0.16014372,0.94738695,-0.90672461)" /><path
     transform="matrix(0.16014372,0,0,0.16014372,-1.5232732,0.43080252)"
     sodipodi:type="arc"
     style="fill:#ffce00;fill-opacity:1;fill-rule:nonzero;stroke:none;color:#000000;stroke-width:6.24439098px;marker:none;visibility:visible;display:inline;overflow:visible;enable-background:accumulate"
     id="path3597-9"
     sodipodi:cx="36.465637"
     sodipodi:cy="28.26087"
     sodipodi:rx="3.6465638"
     sodipodi:ry="3.7166901"
     d="m 40.112201,28.26087 a 3.6465638,3.7166901 0 1 1 -7.293128,0 3.6465638,3.7166901 0 1 1 7.293128,0 z" /><path
     transform="matrix(0.16014372,0,0,0.16014372,4.1817072,7.8326781)"
     sodipodi:type="arc"
     style="fill:#ffce00;fill-opacity:1;fill-rule:nonzero;stroke:none;color:#000000;stroke-width:6.24439098px;marker:none;visibility:visible;display:inline;overflow:visible;enable-background:accumulate"
     id="path3597-0"
     sodipodi:cx="36.465637"
     sodipodi:cy="28.26087"
     sodipodi:rx="3.6465638"
     sodipodi:ry="3.7166901"
     d="m 40.112201,28.26087 a 3.6465638,3.7166901 0 1 1 -7.293128,0 3.6465638,3.7166901 0 1 1 7.293128,0 z" /><path
     transform="matrix(0.16014372,0,0,0.16014372,6.7197493,6.0010183)"
     sodipodi:type="arc"
     style="fill:#ffce00;fill-opacity:1;fill-rule:nonzero;stroke:none;color:#000000;stroke-width:6.24439098px;marker:none;visibility:visible;display:inline;overflow:visible;enable-background:accumulate"
     id="path3597-6"
     sodipodi:cx="36.465637"
     sodipodi:cy="28.26087"
     sodipodi:rx="3.6465638"
     sodipodi:ry="3.7166901"
     d="m 40.112201,28.26087 a 3.6465638,3.7166901 0 1 1 -7.293128,0 3.6465638,3.7166901 0 1 1 7.293128,0 z" /><path
     transform="matrix(0.16014372,0,0,0.16014372,0.99230784,7.8775826)"
     sodipodi:type="arc"
     style="fill:#ffce00;fill-opacity:1;fill-rule:nonzero;stroke:none;color:#000000;stroke-width:6.24439098px;marker:none;visibility:visible;display:inline;overflow:visible;enable-background:accumulate"
     id="path3597-3"
     sodipodi:cx="36.465637"
     sodipodi:cy="28.26087"
     sodipodi:rx="3.6465638"
     sodipodi:ry="3.7166901"
     d="m 40.112201,28.26087 a 3.6465638,3.7166901 0 1 1 -7.293128,0 3.6465638,3.7166901 0 1 1 7.293128,0 z" /><path
     transform="matrix(0.16014372,0,0,0.16014372,-1.4783524,6.5849927)"
     sodipodi:type="arc"
     style="fill:#ffce00;fill-opacity:1;fill-rule:nonzero;stroke:none;color:#000000;stroke-width:6.24439098px;marker:none;visibility:visible;display:inline;overflow:visible;enable-background:accumulate"
     id="path3597-00"
     sodipodi:cx="36.465637"
     sodipodi:cy="28.26087"
     sodipodi:rx="3.6465638"
     sodipodi:ry="3.7166901"
     d="m 40.112201,28.26087 a 3.6465638,3.7166901 0 1 1 -7.293128,0 3.6465638,3.7166901 0 1 1 7.293128,0 z" /><path
     transform="matrix(0.16014372,0,0,0.16014372,6.5400638,0.79016961)"
     sodipodi:type="arc"
     style="fill:#ffce00;fill-opacity:1;fill-rule:nonzero;stroke:none;color:#000000;stroke-width:6.24439098px;marker:none;visibility:visible;display:inline;overflow:visible;enable-background:accumulate"
     id="path3597-39"
     sodipodi:cx="36.465637"
     sodipodi:cy="28.26087"
     sodipodi:rx="3.6465638"
     sodipodi:ry="3.7166901"
     d="m 40.112201,28.26087 a 3.6465638,3.7166901 0 1 1 -7.293128,0 3.6465638,3.7166901 0 1 1 7.293128,0 z" /><path
     transform="matrix(0.16014372,0,0,0.16014372,3.8447981,-0.92918457)"
     sodipodi:type="arc"
     style="fill:#ffce00;fill-opacity:1;fill-rule:nonzero;stroke:none;color:#000000;stroke-width:6.24439098px;marker:none;visibility:visible;display:inline;overflow:visible;enable-background:accumulate"
     id="path3597-90"
     sodipodi:cx="36.465637"
     sodipodi:cy="28.26087"
     sodipodi:rx="3.6465638"
     sodipodi:ry="3.7166901"
     d="m 40.112201,28.26087 a 3.6465638,3.7166901 0 1 1 -7.293128,0 3.6465638,3.7166901 0 1 1 7.293128,0 z" /><path
     transform="matrix(0.16014372,0,0,0.16014372,7.7540573,3.5078981)"
     sodipodi:type="arc"
     style="fill:#ffce00;fill-opacity:1;fill-rule:nonzero;stroke:none;color:#000000;stroke-width:6.24439098px;marker:none;visibility:visible;display:inline;overflow:visible;enable-background:accumulate"
     id="path3597-1"
     sodipodi:cx="36.465637"
     sodipodi:cy="28.26087"
     sodipodi:rx="3.6465638"
     sodipodi:ry="3.7166901"
     d="m 40.112201,28.26087 a 3.6465638,3.7166901 0 1 1 -7.293128,0 3.6465638,3.7166901 0 1 1 7.293128,0 z" /></svg>