<svg width="18" height="18" viewBox="0 0 18 18" fill="none" xmlns="http://www.w3.org/2000/svg">
<path d="M7.25117 3.86881C7.06121 4.1167 6.84589 4.39742 6.55772 4.65874C6.47965 4.72935 6.39734 4.79226 6.3133 4.85169C6.19469 4.65352 6.11612 4.46107 6.08878 4.38972C6.04974 4.28803 5.94581 4.01799 6.09646 3.79845C6.26007 3.5605 6.61686 3.52767 6.9779 3.52767H7.15045C7.29392 3.52767 7.41575 3.52792 7.52267 3.52914C7.42744 3.64128 7.33767 3.7564 7.25115 3.86879L7.25117 3.86881Z" fill="#FEFEFE"/>
<path d="M11.6606 4.84497C11.585 4.79325 11.5104 4.73856 11.4365 4.67863C11.1561 4.45064 10.9631 4.17837 10.7583 3.89019C10.6797 3.7793 10.5961 3.66244 10.5049 3.54732C10.6909 3.52817 10.8774 3.52767 11.0233 3.52767C11.3845 3.52767 11.7414 3.56049 11.9047 3.79845C12.0554 4.01799 11.9515 4.28802 11.9126 4.38896C11.8629 4.51875 11.7733 4.68435 11.6605 4.84497H11.6606Z" fill="#FEFEFE"/>
<path d="M11.6233 6.79355C11.5756 6.75028 11.5156 6.72889 11.456 6.72889C11.3886 6.72889 11.321 6.75624 11.2719 6.8102C11.1797 6.9119 11.1872 7.06929 11.2886 7.16154L14.9655 10.502C14.9842 10.7268 14.9399 10.9938 14.8154 11.3474C14.6142 11.9168 14.3327 12.3372 13.9712 12.7935C13.7961 13.0143 13.5152 13.1516 13.2255 13.1771L10.7185 7.71303C10.6765 7.62178 10.5865 7.56807 10.4922 7.56807C10.4574 7.56807 10.4224 7.57527 10.3888 7.5907C10.264 7.64788 10.209 7.79559 10.2665 7.92039L12.8269 13.5003C12.6991 13.7898 12.4478 14.033 12.1201 14.1767C11.711 14.356 11.1357 14.4863 10.5792 14.6123C10.4052 14.6515 10.2331 14.6906 10.0695 14.7304C9.99121 14.7495 9.91116 14.7592 9.83183 14.7592C9.61377 14.7592 9.41536 14.6879 9.24927 14.5745V8.09643C9.24927 7.95894 9.13788 7.8478 9.00063 7.8478C8.86338 7.8478 8.75199 7.95894 8.75199 8.09643V14.5233C8.56202 14.6474 8.32682 14.7275 8.0538 14.7275C7.96007 14.7275 7.86459 14.7173 7.78701 14.7006C7.14477 14.6123 6.52218 14.4403 5.93638 14.1888C5.53384 14.0166 5.28917 13.7865 5.15192 13.5516L7.79547 7.98529C7.8544 7.86122 7.80141 7.71303 7.67762 7.65411C7.64305 7.63795 7.60675 7.62999 7.57094 7.62999C7.47795 7.62999 7.38894 7.68244 7.34618 7.77196L4.77946 13.1769C4.49849 13.1403 4.22474 12.9891 4.0027 12.7351C3.64864 12.3024 3.37737 11.8352 3.19636 11.3464C3.08547 11.0463 3.04718 10.7467 3.07204 10.4797L6.84019 7.30228C6.94512 7.21377 6.95855 7.05687 6.87003 6.95195C6.82079 6.89376 6.75068 6.86368 6.67982 6.86368C6.62313 6.86368 6.56619 6.88283 6.5197 6.92211L3.02703 9.86725C2.89551 9.70588 2.79954 9.4458 2.78461 9.03182C2.78461 6.83558 3.99226 6.38454 5.16037 5.94793C5.75885 5.72439 6.37772 5.49291 6.89166 5.02696C7.2124 4.73629 7.44265 4.43619 7.64579 4.17139C8.02919 3.67186 8.36013 3.24073 9.03619 3.24073C9.68737 3.24073 10.0104 3.69598 10.3525 4.1781C10.5673 4.48094 10.7896 4.79398 11.1225 5.0645C11.6964 5.53095 12.313 5.76144 12.9095 5.98422C14.0955 6.42706 15.2154 6.84577 15.2154 9.03182C15.2154 9.23794 15.1478 9.58852 14.9769 9.8404L11.6233 6.79355Z" fill="#FEFEFE"/>
</svg>
