# Blender 4.2.0
# www.blender.org
mtllib map_car_location.mtl
o map_car_location
v 0.000000 0.000000 -2.000000
v -0.517638 0.000000 -1.931852
v -1.000000 0.000000 -1.732051
v -1.414214 0.000000 -1.414214
v -1.732051 0.000000 -1.000000
v -1.931852 0.000000 -0.517638
v -2.000000 0.000000 0.000000
v -1.931852 0.000000 0.517638
v -1.732051 0.000000 1.000000
v -1.414214 0.000000 1.414214
v -1.000000 0.000000 1.732051
v -0.517638 0.000000 1.931852
v 0.000000 0.000000 2.000000
v 0.517638 0.000000 1.931852
v 1.000000 0.000000 1.732051
v 1.414214 0.000000 1.414214
v 1.732051 0.000000 1.000000
v 1.931852 0.000000 0.517638
v 2.000000 0.000000 0.000000
v 1.931852 0.000000 -0.517638
v 1.732051 0.000000 -1.000000
v 1.414214 0.000000 -1.414214
v 1.000000 0.000000 -1.732051
v 0.517638 0.000000 -1.931852
v 0.000000 0.500000 -1.688427
v -0.436997 0.500000 -1.630896
v -0.844214 0.500000 -1.462221
v -1.193898 0.500000 -1.193898
v -1.462221 0.500000 -0.844214
v -1.630896 0.500000 -0.436997
v -1.688427 0.500000 0.000000
v -1.630896 0.500000 0.436997
v -1.462221 0.500000 0.844214
v -1.193898 0.500000 1.193898
v -0.844214 0.500000 1.462221
v -0.436997 0.500000 1.630896
v 0.000000 0.500000 1.688427
v 0.436997 0.500000 1.630896
v 0.844214 0.500000 1.462221
v 1.193898 0.500000 1.193898
v 1.462221 0.500000 0.844214
v 1.630896 0.500000 0.436997
v 1.688427 0.500000 0.000000
v 1.630896 0.500000 -0.436997
v 1.462221 0.500000 -0.844214
v 1.193898 0.500000 -1.193898
v 0.844214 0.500000 -1.462221
v 0.436997 0.500000 -1.630896
v -0.517638 0.500000 -1.931852
v 0.000000 0.500000 -2.000000
v -1.000000 0.500000 -1.732051
v -1.414214 0.500000 -1.414214
v -1.732051 0.500000 -1.000000
v -1.931852 0.500000 -0.517638
v -2.000000 0.500000 0.000000
v -1.931852 0.500000 0.517638
v -1.732051 0.500000 1.000000
v -1.414214 0.500000 1.414214
v -1.000000 0.500000 1.732051
v -0.517638 0.500000 1.931852
v 0.000000 0.500000 2.000000
v 0.517638 0.500000 1.931852
v 1.000000 0.500000 1.732051
v 1.414214 0.500000 1.414214
v 1.732051 0.500000 1.000000
v 1.931852 0.500000 0.517638
v 2.000000 0.500000 0.000000
v 1.931852 0.500000 -0.517638
v 1.732051 0.500000 -1.000000
v 1.414214 0.500000 -1.414214
v 1.000000 0.500000 -1.732051
v 0.517638 0.500000 -1.931852
vn -0.0000 -0.0000 1.0000
vn -0.2588 -0.0000 0.9659
vn -0.9659 -0.0000 -0.2588
vn -0.8660 -0.0000 -0.5000
vn 0.8660 -0.0000 -0.5000
vn 0.9659 -0.0000 -0.2588
vn 0.2588 -0.0000 0.9659
vn -1.0000 -0.0000 -0.0000
vn 0.7071 -0.0000 -0.7071
vn 0.5000 -0.0000 0.8660
vn -0.9659 -0.0000 0.2588
vn 0.5000 -0.0000 -0.8660
vn 0.7071 -0.0000 0.7071
vn -0.8660 -0.0000 0.5000
vn 0.2588 -0.0000 -0.9659
vn -0.2588 -0.0000 -0.9659
vn -0.0000 -0.0000 -1.0000
vn 0.8660 -0.0000 0.5000
vn -0.7071 -0.0000 0.7071
vn -0.5000 -0.0000 -0.8660
vn 0.9659 -0.0000 0.2588
vn -0.5000 -0.0000 0.8660
vn -0.7071 -0.0000 -0.7071
vn 1.0000 -0.0000 -0.0000
vn -0.0000 1.0000 -0.0000
vn -0.0000 -1.0000 -0.0000
vt 0.000000 0.000000
s 1
usemtl bridge
f 13/1/1 60/1/2 12/1/2
f 6/1/3 53/1/4 5/1/4
f 21/1/5 68/1/6 20/1/6
f 14/1/7 61/1/1 13/1/1
f 7/1/8 54/1/3 6/1/3
f 22/1/9 69/1/5 21/1/5
f 15/1/10 62/1/7 14/1/7
f 8/1/11 55/1/8 7/1/8
f 23/1/12 70/1/9 22/1/9
f 16/1/13 63/1/10 15/1/10
f 9/1/14 56/1/11 8/1/11
f 24/1/15 71/1/12 23/1/12
f 2/1/16 50/1/17 1/1/17
f 17/1/18 64/1/13 16/1/13
f 10/1/19 57/1/14 9/1/14
f 1/1/17 72/1/15 24/1/15
f 3/1/20 49/1/16 2/1/16
f 18/1/21 65/1/18 17/1/18
f 11/1/22 58/1/19 10/1/19
f 4/1/23 51/1/20 3/1/20
f 19/1/24 66/1/21 18/1/21
f 12/1/2 59/1/22 11/1/22
f 5/1/4 52/1/23 4/1/23
f 20/1/6 67/1/24 19/1/24
f 25/1/25 49/1/25 26/1/25
f 26/1/25 51/1/25 27/1/25
f 27/1/25 52/1/25 28/1/25
f 29/1/25 52/1/25 53/1/25
f 29/1/25 54/1/25 30/1/25
f 30/1/25 55/1/25 31/1/25
f 31/1/25 56/1/25 32/1/25
f 32/1/25 57/1/25 33/1/25
f 33/1/25 58/1/25 34/1/25
f 35/1/25 58/1/25 59/1/25
f 35/1/25 60/1/25 36/1/25
f 36/1/25 61/1/25 37/1/25
f 37/1/25 62/1/25 38/1/25
f 38/1/25 63/1/25 39/1/25
f 39/1/25 64/1/25 40/1/25
f 41/1/25 64/1/25 65/1/25
f 41/1/25 66/1/25 42/1/25
f 42/1/25 67/1/25 43/1/25
f 43/1/25 68/1/25 44/1/25
f 44/1/25 69/1/25 45/1/25
f 45/1/25 70/1/25 46/1/25
f 47/1/25 70/1/25 71/1/25
f 47/1/25 72/1/25 48/1/25
f 48/1/25 50/1/25 25/1/25
f 19/1/26 11/1/26 3/1/26
f 13/1/1 61/1/1 60/1/2
f 6/1/3 54/1/3 53/1/4
f 21/1/5 69/1/5 68/1/6
f 14/1/7 62/1/7 61/1/1
f 7/1/8 55/1/8 54/1/3
f 22/1/9 70/1/9 69/1/5
f 15/1/10 63/1/10 62/1/7
f 8/1/11 56/1/11 55/1/8
f 23/1/12 71/1/12 70/1/9
f 16/1/13 64/1/13 63/1/10
f 9/1/14 57/1/14 56/1/11
f 24/1/15 72/1/15 71/1/12
f 2/1/16 49/1/16 50/1/17
f 17/1/18 65/1/18 64/1/13
f 10/1/19 58/1/19 57/1/14
f 1/1/17 50/1/17 72/1/15
f 3/1/20 51/1/20 49/1/16
f 18/1/21 66/1/21 65/1/18
f 11/1/22 59/1/22 58/1/19
f 4/1/23 52/1/23 51/1/20
f 19/1/24 67/1/24 66/1/21
f 12/1/2 60/1/2 59/1/22
f 5/1/4 53/1/4 52/1/23
f 20/1/6 68/1/6 67/1/24
f 25/1/25 50/1/25 49/1/25
f 26/1/25 49/1/25 51/1/25
f 27/1/25 51/1/25 52/1/25
f 29/1/25 28/1/25 52/1/25
f 29/1/25 53/1/25 54/1/25
f 30/1/25 54/1/25 55/1/25
f 31/1/25 55/1/25 56/1/25
f 32/1/25 56/1/25 57/1/25
f 33/1/25 57/1/25 58/1/25
f 35/1/25 34/1/25 58/1/25
f 35/1/25 59/1/25 60/1/25
f 36/1/25 60/1/25 61/1/25
f 37/1/25 61/1/25 62/1/25
f 38/1/25 62/1/25 63/1/25
f 39/1/25 63/1/25 64/1/25
f 41/1/25 40/1/25 64/1/25
f 41/1/25 65/1/25 66/1/25
f 42/1/25 66/1/25 67/1/25
f 43/1/25 67/1/25 68/1/25
f 44/1/25 68/1/25 69/1/25
f 45/1/25 69/1/25 70/1/25
f 47/1/25 46/1/25 70/1/25
f 47/1/25 71/1/25 72/1/25
f 48/1/25 72/1/25 50/1/25
f 3/1/26 2/1/26 1/1/26
f 1/1/26 24/1/26 23/1/26
f 23/1/26 22/1/26 21/1/26
f 21/1/26 20/1/26 19/1/26
f 19/1/26 18/1/26 17/1/26
f 17/1/26 16/1/26 15/1/26
f 15/1/26 14/1/26 13/1/26
f 13/1/26 12/1/26 11/1/26
f 11/1/26 10/1/26 9/1/26
f 9/1/26 8/1/26 7/1/26
f 7/1/26 6/1/26 5/1/26
f 5/1/26 4/1/26 3/1/26
f 3/1/26 1/1/26 23/1/26
f 23/1/26 21/1/26 19/1/26
f 19/1/26 17/1/26 15/1/26
f 15/1/26 13/1/26 11/1/26
f 11/1/26 9/1/26 7/1/26
f 7/1/26 5/1/26 3/1/26
f 3/1/26 23/1/26 19/1/26
f 19/1/26 15/1/26 11/1/26
f 11/1/26 7/1/26 3/1/26
usemtl profile_color
f 33/1/25 41/1/25 25/1/25
f 25/1/25 26/1/25 27/1/25
f 27/1/25 28/1/25 29/1/25
f 29/1/25 30/1/25 31/1/25
f 31/1/25 32/1/25 33/1/25
f 33/1/25 34/1/25 35/1/25
f 35/1/25 36/1/25 37/1/25
f 37/1/25 38/1/25 39/1/25
f 39/1/25 40/1/25 41/1/25
f 41/1/25 42/1/25 43/1/25
f 43/1/25 44/1/25 45/1/25
f 45/1/25 46/1/25 47/1/25
f 47/1/25 48/1/25 25/1/25
f 25/1/25 27/1/25 29/1/25
f 29/1/25 31/1/25 33/1/25
f 33/1/25 35/1/25 37/1/25
f 37/1/25 39/1/25 41/1/25
f 41/1/25 43/1/25 45/1/25
f 45/1/25 47/1/25 25/1/25
f 25/1/25 29/1/25 33/1/25
f 33/1/25 37/1/25 41/1/25
f 41/1/25 45/1/25 25/1/25
