<?xml version="1.0" encoding="UTF-8"?>
<svg xmlns="http://www.w3.org/2000/svg" xmlns:xlink="http://www.w3.org/1999/xlink" width="12" height="12" viewBox="0 0 12 12" version="1.1">
<g id="surface1">
<path style=" stroke:none;fill-rule:nonzero;fill:rgb(57.647061%,0%,57.647061%);fill-opacity:1;" d="M 6 1.308594 C 5.207031 1.308594 4.554688 1.960938 4.554688 2.753906 C 4.554688 3.28125 4.847656 3.75 5.277344 4 L 5.277344 4.917969 L 4.195312 4.917969 L 4.195312 5.640625 L 5.277344 5.640625 L 5.277344 8.890625 C 4.402344 8.828125 3.4375 7.6875 2.980469 6.625 C 3.34375 6.644531 3.699219 6.617188 3.699219 6.617188 C 3.699219 6.617188 3 5.5625 2.019531 5.292969 C 1.40625 5.824219 1.308594 7.324219 1.308594 7.324219 C 1.308594 7.324219 1.539062 7.207031 1.820312 6.996094 C 2.289062 8.347656 3.519531 9.515625 5.003906 9.839844 C 5.640625 9.980469 6 10.691406 6 10.691406 C 6 10.691406 6.359375 9.980469 6.996094 9.839844 C 8.472656 9.515625 9.695312 8.359375 10.175781 7.015625 C 10.460938 7.234375 10.691406 7.324219 10.691406 7.324219 C 10.691406 6.890625 10.640625 6.011719 10.015625 5.277344 C 9.035156 5.546875 8.300781 6.617188 8.300781 6.617188 C 8.300781 6.617188 8.65625 6.644531 9.019531 6.625 C 8.5625 7.6875 7.597656 8.828125 6.722656 8.890625 L 6.722656 5.640625 L 7.804688 5.640625 L 7.804688 4.917969 L 6.722656 4.917969 L 6.722656 4 C 7.152344 3.75 7.445312 3.28125 7.445312 2.753906 C 7.445312 1.960938 6.792969 1.308594 6 1.308594 Z M 6 2.03125 C 6.402344 2.03125 6.722656 2.347656 6.722656 2.753906 C 6.722656 3.15625 6.402344 3.472656 6 3.472656 C 5.597656 3.472656 5.277344 3.15625 5.277344 2.753906 C 5.277344 2.347656 5.597656 2.03125 6 2.03125 Z M 6 2.03125 "/>
</g>
</svg>
