<?xml version="1.0" encoding="UTF-8"?>
<svg xmlns="http://www.w3.org/2000/svg" xmlns:xlink="http://www.w3.org/1999/xlink" width="12" height="12" viewBox="0 0 12 12" version="1.1">
<g id="surface1">
<path style=" stroke:none;fill-rule:nonzero;fill:rgb(0%,0%,0%);fill-opacity:1;" d="M 5.777344 2.191406 C 5.746094 2.195312 5.714844 2.203125 5.683594 2.214844 C 5.554688 2.265625 5.457031 2.359375 5.402344 2.484375 C 5.347656 2.609375 5.351562 2.742188 5.402344 2.871094 C 5.453125 3 5.535156 3.085938 5.660156 3.140625 C 5.785156 3.195312 5.90625 3.203125 6.035156 3.152344 C 6.160156 3.105469 6.257812 3.019531 6.316406 2.894531 C 6.375 2.769531 6.367188 2.648438 6.316406 2.519531 C 6.265625 2.390625 6.1875 2.28125 6.058594 2.226562 C 5.996094 2.199219 5.933594 2.191406 5.871094 2.191406 C 5.839844 2.191406 5.808594 2.1875 5.777344 2.191406 Z M 4.570312 3.070312 C 4.378906 3.070312 4.167969 3.167969 4.03125 3.421875 L 3.714844 5.027344 C 3.640625 5.351562 4.484375 5.480469 4.535156 5.261719 C 4.566406 5.128906 4.765625 3.664062 4.980469 3.316406 C 4.929688 3.171875 4.761719 3.070312 4.570312 3.070312 Z M 7.40625 3.234375 C 7.378906 3.234375 7.34375 3.246094 7.3125 3.257812 C 7.253906 3.28125 7.222656 3.308594 7.171875 3.351562 L 6.714844 3.726562 L 5.636719 3.304688 C 5.566406 3.273438 5.503906 3.261719 5.425781 3.292969 C 5.148438 3.324219 5.082031 3.765625 5.027344 3.949219 L 4.769531 5.460938 L 5.085938 6.621094 L 4.792969 8.039062 C 4.789062 8.125 4.824219 8.1875 4.875 8.25 C 4.925781 8.308594 4.988281 8.351562 5.074219 8.355469 C 5.15625 8.359375 5.238281 8.320312 5.296875 8.261719 C 5.355469 8.203125 5.375 8.132812 5.378906 8.050781 L 5.671875 6.796875 C 5.683594 6.746094 5.695312 6.699219 5.695312 6.65625 C 5.703125 6.550781 5.691406 6.488281 5.660156 6.386719 L 5.484375 5.613281 L 6.386719 6 L 6.585938 7.289062 C 6.585938 7.316406 6.578125 7.34375 6.585938 7.359375 C 6.617188 7.433594 6.671875 7.488281 6.75 7.523438 C 6.828125 7.558594 6.90625 7.5625 6.984375 7.535156 C 7.128906 7.480469 7.183594 7.367188 7.160156 7.207031 L 6.925781 5.765625 C 6.90625 5.597656 6.792969 5.480469 6.691406 5.4375 L 5.835938 5.121094 C 5.851562 5.058594 5.871094 4.933594 5.871094 4.933594 C 6.097656 4.992188 6.316406 5.039062 6.539062 5.085938 C 6.816406 5.113281 6.898438 4.707031 6.632812 4.617188 L 5.953125 4.441406 C 5.953125 4.441406 6.015625 4.1875 6.011719 3.972656 L 6.632812 4.207031 C 6.691406 4.234375 6.753906 4.226562 6.808594 4.207031 C 6.878906 4.179688 6.921875 4.152344 7.03125 4.054688 L 7.628906 3.550781 C 7.648438 3.496094 7.636719 3.4375 7.617188 3.386719 C 7.59375 3.324219 7.550781 3.28125 7.488281 3.257812 C 7.457031 3.246094 7.433594 3.234375 7.40625 3.234375 Z M 7.945312 3.304688 L 7.757812 3.316406 L 7.992188 7.089844 L 8.167969 7.019531 Z M 7.160156 5.0625 L 6.984375 5.097656 L 7.511719 7.664062 L 4.242188 8.929688 L 4.382812 9.28125 L 7.582031 8.039062 L 7.757812 8.90625 L 7.933594 8.835938 L 7.757812 7.96875 L 9.023438 7.476562 C 9.164062 7.417969 9.171875 7.375 9.269531 7.253906 C 9.367188 7.125 9.410156 6.84375 9.351562 6.691406 L 9.035156 6.761719 C 9.070312 6.855469 9.082031 6.96875 9.023438 7.042969 C 8.996094 7.078125 8.949219 7.109375 8.90625 7.125 L 7.675781 7.59375 Z M 7.160156 5.0625 "/>
</g>
</svg>
