<?xml version="1.0" encoding="UTF-8"?>
<svg xmlns="http://www.w3.org/2000/svg" xmlns:xlink="http://www.w3.org/1999/xlink" width="24" height="24" viewBox="0 0 24 24">
<defs>
<filter id="filter-remove-color" x="0%" y="0%" width="100%" height="100%">
<feColorMatrix color-interpolation-filters="sRGB" values="0 0 0 0 1 0 0 0 0 1 0 0 0 0 1 0 0 0 1 0" />
</filter>
<mask id="mask-0">
<g filter="url(#filter-remove-color)">
<rect x="-2.4" y="-2.4" width="28.8" height="28.8" fill="rgb(0%, 0%, 0%)" fill-opacity="0.426087"/>
</g>
</mask>
<clipPath id="clip-0">
<path clip-rule="nonzero" d="M 10 0 L 19 0 L 19 23 L 10 23 Z M 10 0 "/>
</clipPath>
<clipPath id="clip-1">
<rect x="0" y="0" width="24" height="24"/>
</clipPath>
<g id="source-7" clip-path="url(#clip-1)">
<g clip-path="url(#clip-0)">
<path fill-rule="nonzero" fill="rgb(67.45098%, 84.705882%, 95.294118%)" fill-opacity="1" d="M 14.433594 -0.0078125 C 14.265625 -0.0078125 14.105469 0.046875 13.976562 0.15625 C 13.847656 0.261719 13.757812 0.40625 13.726562 0.570312 L 12.890625 4.796875 C 12.855469 4.984375 12.894531 5.175781 13 5.332031 C 13.105469 5.492188 13.265625 5.601562 13.453125 5.640625 L 14.078125 5.769531 L 10.457031 21.339844 C 10.4375 21.429688 10.433594 21.527344 10.449219 21.621094 C 10.464844 21.710938 10.496094 21.800781 10.546875 21.882812 C 10.597656 21.960938 10.664062 22.03125 10.742188 22.085938 C 10.816406 22.140625 10.90625 22.179688 10.996094 22.203125 L 11.972656 22.425781 C 12.066406 22.449219 12.164062 22.453125 12.257812 22.433594 C 12.351562 22.417969 12.441406 22.382812 12.523438 22.332031 C 12.605469 22.28125 12.675781 22.214844 12.730469 22.132812 C 12.78125 22.054688 12.820312 21.964844 12.839844 21.871094 L 16.105469 6.1875 L 16.828125 6.335938 C 16.921875 6.355469 17.015625 6.355469 17.109375 6.335938 C 17.203125 6.316406 17.292969 6.28125 17.371094 6.230469 C 17.449219 6.175781 17.519531 6.109375 17.570312 6.03125 C 17.625 5.953125 17.660156 5.863281 17.679688 5.769531 L 18.511719 1.542969 C 18.550781 1.359375 18.511719 1.164062 18.40625 1.007812 C 18.300781 0.847656 18.136719 0.738281 17.953125 0.699219 L 14.578125 0.0078125 C 14.53125 -0.00390625 14.480469 -0.0078125 14.433594 -0.0078125 Z M 14.433594 -0.0078125 "/>
</g>
</g>
</defs>
<g mask="url(#mask-0)">
<use xlink:href="#source-7"/>
</g>
<path fill-rule="nonzero" fill="rgb(0%, 0%, 0%)" fill-opacity="1" d="M 15.097656 4.585938 L 11.160156 21.507812 L 12.136719 21.730469 L 15.679688 4.722656 Z M 15.097656 4.585938 "/>
<path fill-rule="nonzero" fill="rgb(90.980392%, 0%, 0%)" fill-opacity="1" d="M 14.433594 0.714844 L 17.808594 1.410156 L 16.976562 5.636719 L 13.601562 4.941406 Z M 14.433594 0.714844 "/>
</svg>
