<?xml version="1.0" encoding="UTF-8"?>
<svg xmlns="http://www.w3.org/2000/svg" xmlns:xlink="http://www.w3.org/1999/xlink" width="12" height="12" viewBox="0 0 12 12" version="1.1">
<defs>
<filter id="alpha" filterUnits="objectBoundingBox" x="0%" y="0%" width="100%" height="100%">
  <feColorMatrix type="matrix" in="SourceGraphic" values="0 0 0 0 1 0 0 0 0 1 0 0 0 0 1 0 0 0 1 0"/>
</filter>
<mask id="mask0">
  <g filter="url(#alpha)">
<rect x="0" y="0" width="12" height="12" style="fill:rgb(0%,0%,0%);fill-opacity:0.426087;stroke:none;"/>
  </g>
</mask>
<clipPath id="clip1">
  <rect x="0" y="0" width="12" height="12"/>
</clipPath>
<g id="surface5" clip-path="url(#clip1)">
<path style=" stroke:none;fill-rule:nonzero;fill:rgb(67.450982%,84.705883%,95.294118%);fill-opacity:1;" d="M 5.019531 2.722656 C 5.015625 2.722656 5.007812 2.722656 5.003906 2.722656 C 5.023438 2.71875 4.847656 2.757812 4.867188 2.75 C 4.878906 2.746094 4.820312 2.769531 4.78125 2.789062 L 4.777344 2.785156 C 4.785156 2.785156 4.730469 2.8125 4.738281 2.808594 C 4.726562 2.8125 4.714844 2.820312 4.703125 2.828125 C 4.703125 2.828125 4.699219 2.832031 4.699219 2.832031 C 4.699219 2.832031 4.695312 2.835938 4.691406 2.839844 C 4.691406 2.839844 4.6875 2.839844 4.6875 2.839844 C 4.6875 2.839844 4.683594 2.84375 4.679688 2.84375 C 4.679688 2.84375 4.679688 2.847656 4.679688 2.847656 C 4.679688 2.847656 4.675781 2.847656 4.675781 2.847656 C 4.675781 2.851562 4.671875 2.851562 4.671875 2.851562 C 4.667969 2.855469 4.660156 2.859375 4.664062 2.855469 L 4.664062 2.859375 C 4.648438 2.867188 4.636719 2.878906 4.625 2.890625 C 4.625 2.886719 4.617188 2.898438 4.605469 2.90625 C 4.605469 2.90625 4.59375 2.917969 4.59375 2.917969 C 4.59375 2.917969 4.59375 2.921875 4.59375 2.921875 C 4.59375 2.921875 4.589844 2.921875 4.589844 2.921875 C 4.589844 2.925781 4.582031 2.933594 4.582031 2.933594 C 4.570312 2.945312 4.558594 2.960938 4.558594 2.957031 C 4.558594 2.960938 4.554688 2.960938 4.554688 2.960938 C 4.566406 2.949219 4.480469 3.074219 4.488281 3.058594 C 4.496094 3.042969 4.4375 3.179688 4.441406 3.164062 C 4.449219 3.148438 4.414062 3.296875 4.414062 3.277344 C 4.417969 3.273438 4.414062 3.296875 4.414062 3.316406 L 4.410156 3.316406 L 4.328125 3.910156 C 4.046875 3.753906 3.71875 3.660156 3.375 3.660156 C 2.296875 3.660156 1.410156 4.546875 1.410156 5.625 C 1.410156 6.703125 2.296875 7.589844 3.375 7.589844 C 3.53125 7.589844 3.679688 7.566406 3.824219 7.53125 L 3.683594 8.535156 C 3.683594 8.535156 3.570312 9.164062 4.210938 9.265625 C 4.855469 9.371094 4.972656 8.714844 4.972656 8.714844 L 5.347656 6.042969 L 5.347656 8.625 C 5.351562 8.625 5.363281 8.765625 5.359375 8.746094 C 5.355469 8.730469 5.402344 8.886719 5.394531 8.871094 C 5.386719 8.855469 5.464844 9 5.457031 8.984375 C 5.445312 8.96875 5.546875 9.097656 5.535156 9.085938 C 5.523438 9.074219 5.648438 9.179688 5.632812 9.167969 C 5.621094 9.15625 5.765625 9.238281 5.746094 9.230469 C 5.730469 9.222656 5.890625 9.269531 5.871094 9.265625 C 5.851562 9.261719 6.019531 9.28125 6 9.28125 C 5.980469 9.28125 6.148438 9.261719 6.128906 9.265625 C 6.109375 9.269531 6.269531 9.222656 6.253906 9.230469 C 6.234375 9.238281 6.378906 9.15625 6.367188 9.167969 C 6.351562 9.179688 6.476562 9.074219 6.464844 9.085938 C 6.453125 9.097656 6.554688 8.96875 6.542969 8.984375 C 6.535156 9 6.613281 8.855469 6.605469 8.871094 C 6.597656 8.886719 6.644531 8.730469 6.640625 8.746094 C 6.636719 8.765625 6.648438 8.625 6.652344 8.625 C 6.652344 8.625 6.652344 8.617188 6.652344 8.617188 L 6.652344 6.824219 L 6.851562 8.675781 L 6.851562 8.695312 C 6.859375 8.714844 6.875 8.820312 6.871094 8.808594 C 6.867188 8.789062 6.929688 8.945312 6.917969 8.929688 C 6.910156 8.910156 7 9.050781 6.988281 9.039062 C 6.980469 9.023438 7.097656 9.144531 7.082031 9.132812 C 7.066406 9.121094 7.207031 9.214844 7.191406 9.207031 C 7.175781 9.195312 7.328125 9.261719 7.3125 9.253906 C 7.292969 9.25 7.457031 9.28125 7.4375 9.28125 C 7.421875 9.28125 7.589844 9.277344 7.570312 9.28125 C 7.550781 9.28125 7.714844 9.246094 7.699219 9.253906 C 7.679688 9.257812 7.835938 9.191406 7.820312 9.203125 C 7.800781 9.210938 7.941406 9.113281 7.925781 9.125 C 7.910156 9.136719 8.027344 9.015625 8.015625 9.03125 C 8.003906 9.046875 8.09375 8.90625 8.085938 8.921875 C 8.078125 8.9375 8.136719 8.78125 8.132812 8.796875 C 8.125 8.816406 8.152344 8.652344 8.152344 8.667969 C 8.152344 8.6875 8.148438 8.578125 8.148438 8.554688 L 8.144531 8.539062 L 7.589844 3.34375 C 7.589844 3.3125 7.585938 3.285156 7.585938 3.289062 C 7.589844 3.308594 7.550781 3.148438 7.558594 3.167969 C 7.5625 3.183594 7.496094 3.035156 7.503906 3.050781 C 7.507812 3.054688 7.496094 3.035156 7.488281 3.027344 C 7.488281 3.023438 7.484375 3.023438 7.484375 3.019531 C 7.46875 2.996094 7.453125 2.972656 7.433594 2.953125 C 7.433594 2.949219 7.433594 2.949219 7.433594 2.949219 C 7.429688 2.945312 7.429688 2.941406 7.425781 2.941406 C 7.429688 2.945312 7.40625 2.921875 7.394531 2.90625 C 7.394531 2.90625 7.390625 2.902344 7.390625 2.902344 C 7.386719 2.902344 7.378906 2.894531 7.378906 2.894531 C 7.363281 2.890625 7.222656 2.789062 7.238281 2.792969 C 7.238281 2.792969 7.234375 2.792969 7.234375 2.792969 C 7.246094 2.800781 7.0625 2.730469 7.085938 2.738281 C 7.109375 2.742188 6.898438 2.722656 6.921875 2.722656 C 6.921875 2.722656 6.921875 2.722656 6.917969 2.722656 C 6.921875 2.722656 6.90625 2.722656 6.894531 2.722656 L 6.03125 2.722656 C 6.027344 2.722656 6.027344 2.722656 6.023438 2.722656 C 6.019531 2.722656 6 2.722656 6.003906 2.722656 C 6 2.722656 5.992188 2.722656 5.984375 2.722656 C 5.988281 2.722656 5.972656 2.722656 5.960938 2.722656 L 5.089844 2.722656 C 5.050781 2.722656 5.007812 2.722656 5.019531 2.722656 Z M 3.375 4.964844 C 3.75 4.964844 4.035156 5.25 4.035156 5.625 C 4.035156 6 3.75 6.285156 3.375 6.285156 C 3 6.285156 2.714844 6 2.714844 5.625 C 2.714844 5.25 3 4.964844 3.375 4.964844 Z M 3.375 4.964844 "/>
</g>
</defs>
<g id="surface1">
<use xlink:href="#surface5" mask="url(#mask0)"/>
<path style="fill:none;stroke-width:10;stroke-linecap:round;stroke-linejoin:round;stroke:rgb(0%,0%,0%);stroke-opacity:1;stroke-miterlimit:4;" d="M 135 90 L 115.416667 230 " transform="matrix(0.0375,0,0,0.0375,0,0)"/>
<path style="fill:none;stroke-width:10;stroke-linecap:butt;stroke-linejoin:miter;stroke:rgb(0%,0%,0%);stroke-opacity:1;stroke-miterlimit:4;" d="M 125 150 C 125 159.270833 121.354167 168.229167 114.791667 174.791667 C 108.229167 181.354167 99.270833 185 90 185 C 80.729167 185 71.770833 181.354167 65.208333 174.791667 C 58.645833 168.229167 55 159.270833 55 150 C 55 140.729167 58.645833 131.770833 65.208333 125.208333 C 71.770833 118.645833 80.729167 115 90 115 C 99.270833 115 108.229167 118.645833 114.791667 125.208333 C 121.354167 131.770833 125 140.729167 125 150 Z M 125 150 " transform="matrix(0.0375,0,0,0.0375,0,0)"/>
<path style="fill:none;stroke-width:10;stroke-linecap:round;stroke-linejoin:round;stroke:rgb(0%,0%,0%);stroke-opacity:1;stroke-miterlimit:4;" d="M 185 90 L 200 230 " transform="matrix(0.0375,0,0,0.0375,0,0)"/>
<path style="fill:none;stroke-width:10;stroke-linecap:round;stroke-linejoin:round;stroke:rgb(0%,0%,0%);stroke-opacity:1;stroke-miterlimit:4;" d="M 160 90 L 160 230 " transform="matrix(0.0375,0,0,0.0375,0,0)"/>
<path style="fill:none;stroke-width:10;stroke-linecap:round;stroke-linejoin:round;stroke:rgb(0%,0%,0%);stroke-opacity:1;stroke-miterlimit:4;" d="M 185 90 L 135 90 " transform="matrix(0.0375,0,0,0.0375,0,0)"/>
</g>
</svg>
