<svg width="12" height="12" viewBox="0 0 580 580" fill="none" xmlns="http://www.w3.org/2000/svg">
<path d="M406.465 133.801C387.032 133.801 366.572 139.903 350.006 151.336C345.987 147.051 341.135 143.634 335.746 141.294C330.358 138.955 324.548 137.742 318.673 137.732H280.944C274.539 137.752 268.219 139.2 262.445 141.971C256.647 139.189 250.3 137.74 243.869 137.732H206.139C195.93 137.738 186.055 141.371 178.276 147.983C170.517 141.388 160.672 137.756 150.489 137.732H112.759C101.343 137.735 90.3956 142.272 82.3232 150.344C74.2509 158.416 69.7144 169.364 69.7109 180.78V398.911C69.7144 410.327 74.2509 421.275 82.3232 429.347C90.3956 437.419 101.343 441.956 112.759 441.959H150.489C160.698 441.953 170.574 438.32 178.353 431.708C186.111 438.303 195.956 441.935 206.139 441.959H243.869C250.274 441.94 256.594 440.491 262.368 437.72C268.166 440.502 274.513 441.951 280.944 441.959H318.673C328.73 441.947 338.465 438.416 346.19 431.978C353.819 435.396 361.529 438.425 369.429 440.649C382.396 444.299 395.744 446.199 409.048 446.199C437.248 446.199 467.528 435.706 486.203 412.824C504.861 389.928 510.29 361.649 510.29 331.853C510.29 308.166 506.245 285.122 492.369 265.026C491.647 263.981 490.817 263.061 490.057 262.059C496.895 254.234 500.673 244.201 500.694 233.81V187.64C500.69 179.018 498.098 170.596 493.254 163.464C488.41 156.332 481.537 150.818 473.524 147.636C462.497 143.261 451.48 139.883 440.457 137.578V137.539C440.303 137.506 440.148 137.495 439.995 137.462C428.873 135.071 417.647 133.801 406.465 133.801V133.801ZM397.679 355.054C398.589 355.627 398.469 355.657 397.679 355.054V355.054Z" fill="#FEFEFE" fill-opacity="0.788732"/>
<path d="M112.755 180.786H150.487V263.921H206.155V180.786H243.888V398.923H206.155V306.438H150.487V398.923H112.755V180.786" fill="#6C003D"/>
<path d="M280.935 180.786H318.667V398.923H280.935V180.786" fill="#6C003D"/>
<path d="M457.64 187.653V233.822C449.604 228.465 441.763 224.423 434.119 221.696C426.474 218.968 419.254 217.605 412.459 217.605C403.442 217.605 396.778 219.455 392.466 223.157C388.153 226.858 385.997 232.605 385.997 240.397C385.997 246.242 387.435 250.82 390.31 254.131C393.25 257.346 398.542 260.122 406.187 262.459L422.26 267.281C438.529 272.151 450.094 279.554 456.954 289.489C463.815 299.424 467.245 313.548 467.245 331.86C467.245 355.919 462.442 373.841 452.838 385.627C443.299 397.316 428.696 403.16 409.029 403.16C399.751 403.16 390.44 401.845 381.097 399.215C371.754 396.585 362.41 392.689 353.067 387.526V340.042C362.41 347.445 371.427 353.045 380.117 356.844C388.872 360.545 397.301 362.396 405.403 362.396C413.635 362.396 419.94 360.351 424.318 356.26C428.696 352.169 430.884 346.324 430.884 338.727C430.884 331.909 429.382 326.649 426.376 322.947C423.436 319.246 417.523 315.934 408.637 313.012L394.034 308.191C379.398 303.515 368.683 296.064 361.888 285.836C355.158 275.609 351.793 261.826 351.793 244.488C351.793 222.767 356.497 206.062 365.906 194.374C375.315 182.685 388.839 176.841 406.481 176.841C414.517 176.841 422.782 177.766 431.276 179.617C439.77 181.37 448.558 184.049 457.64 187.653" fill="#6C003D"/>
</svg>
