<svg width="64" height="64" viewBox="0 0 48 48" fill="none" xmlns="http://www.w3.org/2000/svg">
<path fill-rule="evenodd" clip-rule="evenodd" d="M33.4545 16H46.5455C47.3488 16 48 16.6512 48 17.4545V30.5455C48 31.3488 47.3488 32 46.5455 32H33.4545C32.6512 32 32 31.3488 32 30.5455V17.4545C32 16.6512 32.6512 16 33.4545 16Z" fill="#930093"/>
<path d="M33 17.7C33 17.3134 33.3134 17 33.7 17H46.3C46.6866 17 47 17.3134 47 17.7V30.3C47 30.6866 46.6866 31 46.3 31H33.7C33.3134 31 33 30.6866 33 30.3V17.7Z" fill="#F4CCCC"/>
</svg>
