<?xml version="1.0" encoding="UTF-8"?>
<svg xmlns="http://www.w3.org/2000/svg" xmlns:xlink="http://www.w3.org/1999/xlink" width="24" height="24" viewBox="0 0 24 24">
<defs>
<filter id="filter-remove-color" x="0%" y="0%" width="100%" height="100%">
<feColorMatrix color-interpolation-filters="sRGB" values="0 0 0 0 1 0 0 0 0 1 0 0 0 0 1 0 0 0 1 0" />
</filter>
<mask id="mask-0">
<g filter="url(#filter-remove-color)">
<rect x="-2.4" y="-2.4" width="28.8" height="28.8" fill="rgb(0%, 0%, 0%)" fill-opacity="0.426087"/>
</g>
</mask>
<clipPath id="clip-0">
<rect x="0" y="0" width="24" height="24"/>
</clipPath>
<g id="source-6" clip-path="url(#clip-0)">
<path fill-rule="nonzero" fill="rgb(67.45098%, 84.705882%, 95.294118%)" fill-opacity="1" d="M 12 9.359375 C 10.644531 9.359375 9.445312 10.507812 9.445312 12 C 9.445312 13.488281 10.644531 14.640625 12 14.640625 C 13.355469 14.640625 14.554688 13.488281 14.554688 12 C 14.554688 10.511719 13.355469 9.359375 12 9.359375 Z M 12 9.359375 "/>
</g>
<mask id="mask-1">
<g filter="url(#filter-remove-color)">
<rect x="-2.4" y="-2.4" width="28.8" height="28.8" fill="rgb(0%, 0%, 0%)" fill-opacity="0.426087"/>
</g>
</mask>
<clipPath id="clip-1">
<rect x="0" y="0" width="24" height="24"/>
</clipPath>
<g id="source-10" clip-path="url(#clip-1)">
<path fill-rule="nonzero" fill="rgb(67.45098%, 84.705882%, 95.294118%)" fill-opacity="1" d="M 2.28125 0.535156 C 1.835938 0.582031 1.421875 0.792969 1.125 1.125 C 0.828125 1.457031 0.660156 1.886719 0.664062 2.332031 L 0.664062 21.414062 C 0.664062 21.890625 0.855469 22.347656 1.191406 22.683594 C 1.527344 23.019531 1.984375 23.210938 2.460938 23.210938 L 21.542969 23.210938 C 22.015625 23.210938 22.472656 23.019531 22.808594 22.683594 C 23.144531 22.347656 23.335938 21.890625 23.335938 21.414062 L 23.335938 2.332031 C 23.335938 1.855469 23.144531 1.402344 22.808594 1.0625 C 22.472656 0.726562 22.015625 0.539062 21.542969 0.535156 L 2.460938 0.535156 C 2.398438 0.535156 2.339844 0.535156 2.28125 0.535156 Z M 6.132812 6.003906 L 17.867188 6.003906 L 17.867188 17.742188 L 6.132812 17.742188 Z M 6.132812 6.003906 "/>
</g>
</defs>
<g mask="url(#mask-0)">
<use xlink:href="#source-6"/>
</g>
<g mask="url(#mask-1)">
<use xlink:href="#source-10"/>
</g>
<path fill="none" stroke-width="44.887798" stroke-linecap="butt" stroke-linejoin="miter" stroke="rgb(0%, 9.411765%, 21.176471%)" stroke-opacity="1" stroke-miterlimit="10" d="M 498.154297 78.82487 L 81.845703 78.82487 L 81.845703 495.039062 L 498.154297 495.039062 Z M 498.154297 78.82487 " transform="matrix(0.0413793, 0, 0, 0.0413793, 0, 0)"/>
<path fill-rule="nonzero" fill="rgb(0%, 9.411765%, 21.176471%)" fill-opacity="1" d="M 13.320312 12 C 13.320312 12.171875 13.285156 12.34375 13.21875 12.503906 C 13.152344 12.664062 13.054688 12.8125 12.933594 12.933594 C 12.8125 13.058594 12.664062 13.152344 12.503906 13.21875 C 12.34375 13.285156 12.171875 13.320312 12 13.320312 C 11.828125 13.320312 11.65625 13.285156 11.496094 13.21875 C 11.335938 13.152344 11.1875 13.058594 11.066406 12.933594 C 10.945312 12.8125 10.847656 12.664062 10.78125 12.503906 C 10.714844 12.34375 10.679688 12.171875 10.679688 12 C 10.679688 11.828125 10.714844 11.65625 10.78125 11.496094 C 10.847656 11.335938 10.945312 11.1875 11.066406 11.066406 C 11.1875 10.941406 11.335938 10.847656 11.496094 10.78125 C 11.65625 10.714844 11.828125 10.679688 12 10.679688 C 12.171875 10.679688 12.34375 10.714844 12.503906 10.78125 C 12.664062 10.847656 12.8125 10.941406 12.933594 11.066406 C 13.054688 11.1875 13.152344 11.335938 13.21875 11.496094 C 13.285156 11.65625 13.320312 11.828125 13.320312 12 Z M 13.320312 12 "/>
</svg>
