<?xml version="1.0" encoding="UTF-8"?>
<svg xmlns="http://www.w3.org/2000/svg" xmlns:xlink="http://www.w3.org/1999/xlink" width="12" height="12" viewBox="0 0 12 12" version="1.1">
<defs>
<filter id="alpha" filterUnits="objectBoundingBox" x="0%" y="0%" width="100%" height="100%">
  <feColorMatrix type="matrix" in="SourceGraphic" values="0 0 0 0 1 0 0 0 0 1 0 0 0 0 1 0 0 0 1 0"/>
</filter>
<mask id="mask0">
  <g filter="url(#alpha)">
<rect x="0" y="0" width="12" height="12" style="fill:rgb(0%,0%,0%);fill-opacity:0.372;stroke:none;"/>
  </g>
</mask>
<clipPath id="clip1">
  <rect x="0" y="0" width="12" height="12"/>
</clipPath>
<g id="surface5" clip-path="url(#clip1)">
<path style=" stroke:none;fill-rule:nonzero;fill:rgb(89.411765%,89.411765%,89.411765%);fill-opacity:1;" d="M 4.535156 1.65625 C 4.429688 1.660156 4.324219 1.703125 4.25 1.777344 C 3.871094 2.160156 3.632812 2.6875 3.632812 3.265625 C 3.632812 3.867188 3.886719 4.414062 4.292969 4.796875 C 4.371094 4.871094 4.472656 4.910156 4.582031 4.910156 C 4.6875 4.910156 4.789062 4.867188 4.867188 4.789062 L 5.011719 4.644531 C 5.050781 4.605469 5.082031 4.5625 5.101562 4.511719 C 5.148438 4.492188 5.195312 4.460938 5.230469 4.425781 L 5.378906 4.277344 C 5.417969 4.238281 5.449219 4.191406 5.46875 4.140625 C 5.488281 4.089844 5.5 4.035156 5.5 3.980469 C 5.496094 3.925781 5.484375 3.871094 5.460938 3.820312 C 5.441406 3.769531 5.40625 3.722656 5.367188 3.6875 C 5.253906 3.582031 5.183594 3.433594 5.183594 3.265625 C 5.183594 3.109375 5.246094 2.972656 5.347656 2.867188 C 5.421875 2.789062 5.464844 2.6875 5.464844 2.578125 C 5.460938 2.46875 5.417969 2.367188 5.34375 2.289062 L 5.195312 2.144531 C 5.160156 2.105469 5.113281 2.078125 5.066406 2.054688 C 5.046875 2.007812 5.015625 1.964844 4.980469 1.925781 L 4.832031 1.777344 C 4.792969 1.738281 4.746094 1.707031 4.695312 1.6875 C 4.644531 1.667969 4.589844 1.65625 4.535156 1.65625 Z M 7 1.65625 C 6.894531 1.660156 6.792969 1.703125 6.714844 1.777344 L 6.570312 1.925781 C 6.53125 1.960938 6.5 2.007812 6.480469 2.054688 C 6.433594 2.074219 6.386719 2.105469 6.351562 2.144531 L 6.203125 2.289062 C 6.128906 2.367188 6.085938 2.46875 6.085938 2.578125 C 6.082031 2.6875 6.125 2.789062 6.199219 2.867188 C 6.300781 2.972656 6.363281 3.109375 6.363281 3.265625 C 6.363281 3.433594 6.292969 3.582031 6.179688 3.6875 C 6.140625 3.722656 6.105469 3.769531 6.085938 3.820312 C 6.0625 3.871094 6.050781 3.925781 6.050781 3.980469 C 6.046875 4.035156 6.058594 4.089844 6.078125 4.140625 C 6.097656 4.191406 6.128906 4.238281 6.167969 4.277344 L 6.316406 4.425781 C 6.355469 4.464844 6.398438 4.492188 6.445312 4.511719 C 6.46875 4.5625 6.496094 4.605469 6.535156 4.644531 L 6.679688 4.789062 C 6.757812 4.867188 6.859375 4.910156 6.964844 4.910156 C 7.074219 4.910156 7.175781 4.871094 7.253906 4.796875 C 7.660156 4.414062 7.914062 3.867188 7.914062 3.265625 C 7.914062 2.6875 7.675781 2.160156 7.296875 1.777344 C 7.257812 1.738281 7.210938 1.710938 7.160156 1.6875 C 7.109375 1.667969 7.054688 1.65625 7 1.65625 Z M 7 1.65625 "/>
</g>
</defs>
<g id="surface1">
<use xlink:href="#surface5" mask="url(#mask0)"/>
<path style=" stroke:none;fill-rule:nonzero;fill:rgb(0%,0%,0%);fill-opacity:1;" d="M 4.542969 2.070312 C 4.234375 2.378906 4.042969 2.800781 4.042969 3.265625 C 4.042969 3.75 4.246094 4.1875 4.574219 4.5 L 4.722656 4.351562 C 4.433594 4.078125 4.253906 3.695312 4.253906 3.265625 C 4.253906 2.859375 4.417969 2.488281 4.6875 2.214844 Z M 7.007812 2.070312 L 6.859375 2.214844 C 7.128906 2.488281 7.292969 2.859375 7.292969 3.265625 C 7.292969 3.695312 7.113281 4.078125 6.824219 4.351562 L 6.972656 4.5 C 7.300781 4.1875 7.503906 3.75 7.503906 3.265625 C 7.503906 2.800781 7.3125 2.378906 7.007812 2.070312 Z M 4.90625 2.433594 C 4.695312 2.648438 4.5625 2.945312 4.5625 3.265625 C 4.5625 3.609375 4.707031 3.917969 4.941406 4.136719 L 5.085938 3.988281 C 4.894531 3.808594 4.773438 3.550781 4.773438 3.265625 C 4.773438 3 4.878906 2.757812 5.054688 2.582031 Z M 6.640625 2.433594 L 6.496094 2.582031 C 6.667969 2.757812 6.773438 3 6.773438 3.265625 C 6.773438 3.550781 6.652344 3.808594 6.460938 3.988281 L 6.605469 4.136719 C 6.839844 3.917969 6.984375 3.609375 6.984375 3.265625 C 6.984375 2.945312 6.855469 2.648438 6.640625 2.433594 Z M 6.640625 2.433594 "/>
</g>
</svg>
