<?xml version="1.0" encoding="UTF-8"?>
<svg xmlns="http://www.w3.org/2000/svg" xmlns:xlink="http://www.w3.org/1999/xlink" width="12" height="12" viewBox="0 0 12 12" version="1.1">
<defs>
<filter id="alpha" filterUnits="objectBoundingBox" x="0%" y="0%" width="100%" height="100%">
  <feColorMatrix type="matrix" in="SourceGraphic" values="0 0 0 0 1 0 0 0 0 1 0 0 0 0 1 0 0 0 1 0"/>
</filter>
<mask id="mask0">
  <g filter="url(#alpha)">
<rect x="0" y="0" width="12" height="12" style="fill:rgb(0%,0%,0%);fill-opacity:0.426087;stroke:none;"/>
  </g>
</mask>
<clipPath id="clip1">
  <rect x="0" y="0" width="12" height="12"/>
</clipPath>
<g id="surface5" clip-path="url(#clip1)">
<path style=" stroke:none;fill-rule:nonzero;fill:rgb(67.450982%,84.705883%,95.294118%);fill-opacity:1;" d="M 6.636719 3.527344 C 6.546875 3.523438 6.460938 3.546875 6.390625 3.597656 C 6.316406 3.644531 6.257812 3.710938 6.226562 3.792969 L 5.304688 6.070312 C 5.296875 6.082031 5.289062 6.097656 5.28125 6.113281 L 4.566406 7.929688 L 4.453125 8.078125 L 4.4375 8.09375 C 4.4375 8.097656 4.433594 8.101562 4.433594 8.101562 L 4.359375 8.199219 C 4.359375 8.199219 4.355469 8.199219 4.355469 8.199219 L 4.144531 8.476562 C 4.140625 8.480469 4.136719 8.484375 4.136719 8.488281 L 2.976562 10 L 2.0625 10 C 2.007812 10 1.953125 10.011719 1.898438 10.035156 C 1.847656 10.054688 1.800781 10.085938 1.761719 10.125 C 1.722656 10.167969 1.691406 10.214844 1.667969 10.265625 C 1.648438 10.316406 1.636719 10.371094 1.636719 10.429688 L 1.636719 10.945312 C 1.636719 11.003906 1.648438 11.058594 1.667969 11.109375 C 1.691406 11.160156 1.722656 11.207031 1.761719 11.25 C 1.800781 11.289062 1.847656 11.320312 1.898438 11.339844 C 1.953125 11.363281 2.007812 11.375 2.0625 11.375 L 4.710938 11.375 C 4.757812 11.449219 4.808594 11.515625 4.867188 11.582031 C 5.109375 11.847656 5.464844 12.019531 5.855469 12.019531 C 6.246094 12.019531 6.597656 11.847656 6.84375 11.582031 C 6.839844 11.582031 6.84375 11.582031 6.851562 11.570312 C 6.867188 11.554688 6.878906 11.542969 6.882812 11.53125 C 6.925781 11.484375 6.960938 11.429688 6.996094 11.375 L 9.414062 11.375 C 9.472656 11.375 9.527344 11.363281 9.578125 11.339844 C 9.632812 11.320312 9.679688 11.289062 9.71875 11.25 C 9.757812 11.207031 9.789062 11.160156 9.8125 11.109375 C 9.832031 11.058594 9.84375 11.003906 9.84375 10.945312 L 9.84375 10.429688 C 9.84375 10.371094 9.832031 10.316406 9.8125 10.265625 C 9.789062 10.214844 9.757812 10.167969 9.71875 10.125 C 9.679688 10.085938 9.632812 10.054688 9.578125 10.035156 C 9.527344 10.011719 9.472656 10 9.414062 10 L 8.328125 10 L 8.144531 9.132812 L 8.144531 9.128906 L 8.058594 8.710938 L 8.105469 8.015625 L 8.1875 6.75 C 8.1875 6.746094 8.1875 6.738281 8.1875 6.734375 L 8.234375 6.0625 L 8.351562 4.289062 C 8.359375 4.1875 8.328125 4.089844 8.269531 4.007812 C 8.207031 3.925781 8.121094 3.867188 8.023438 3.84375 L 6.71875 3.539062 C 6.691406 3.53125 6.664062 3.527344 6.636719 3.527344 Z M 6.636719 3.527344 "/>
</g>
<mask id="mask1">
  <g filter="url(#alpha)">
<rect x="0" y="0" width="12" height="12" style="fill:rgb(0%,0%,0%);fill-opacity:0.426087;stroke:none;"/>
  </g>
</mask>
<clipPath id="clip2">
  <rect x="0" y="0" width="12" height="12"/>
</clipPath>
<g id="surface8" clip-path="url(#clip2)">
<path style=" stroke:none;fill-rule:nonzero;fill:rgb(0%,0%,0%);fill-opacity:1;" d="M 7.617188 4.1875 L 7.917969 4.257812 L 7.632812 8.746094 L 7.988281 10.441406 L 6.914062 10.441406 L 6.757812 8.539062 Z M 7.617188 4.1875 "/>
</g>
</defs>
<g id="surface1">
<use xlink:href="#surface5" mask="url(#mask0)"/>
<path style=" stroke:none;fill-rule:nonzero;fill:rgb(0%,87.450981%,4.705882%);fill-opacity:1;" d="M 4.777344 8.363281 L 2.960938 10.730469 L 4.953125 10.738281 C 4.980469 11.214844 5.378906 11.59375 5.859375 11.59375 C 6.335938 11.59375 6.734375 11.21875 6.765625 10.746094 L 8.054688 10.753906 L 7.683594 8.996094 Z M 4.777344 8.363281 "/>
<path style=" stroke:none;fill-rule:nonzero;fill:rgb(0%,87.450981%,4.705882%);fill-opacity:1;" d="M 6.625 3.953125 L 5.636719 6.390625 L 4.945312 8.144531 L 4.773438 8.363281 L 7.683594 8.996094 L 7.632812 8.746094 L 7.757812 6.71875 L 7.917969 4.257812 "/>
<path style=" stroke:none;fill-rule:nonzero;fill:rgb(90.980393%,0%,0%);fill-opacity:1;" d="M 5.683594 6.273438 L 4.945312 8.144531 L 4.488281 8.734375 L 7.777344 9.449219 L 7.632812 8.738281 L 7.757812 6.71875 "/>
<path style="fill:none;stroke-width:25;stroke-linecap:butt;stroke-linejoin:miter;stroke:rgb(0%,0%,0%);stroke-opacity:1;stroke-miterlimit:4;" d="M 99.876302 516.5625 L 455.390625 516.5625 " transform="matrix(0.0206897,0,0,0.0206897,0,0)"/>
<path style="fill-rule:nonzero;fill:rgb(99.607843%,99.607843%,99.607843%);fill-opacity:1;stroke-width:20.5723;stroke-linecap:round;stroke-linejoin:round;stroke:rgb(0%,0%,0%);stroke-opacity:1;stroke-miterlimit:10;" d="M 316.809896 516.373698 C 316.809896 525.247396 313.222656 533.932292 306.992188 540.16276 C 300.572917 546.393229 292.076823 549.980469 283.203125 549.980469 C 274.329427 549.980469 265.644531 546.393229 259.414062 540.16276 C 253.183594 533.932292 249.596354 525.247396 249.596354 516.373698 C 249.596354 507.5 253.183594 499.003906 259.414062 492.584635 C 265.644531 486.354167 274.329427 482.766927 283.203125 482.766927 C 292.076823 482.766927 300.572917 486.354167 306.992188 492.584635 C 313.222656 499.003906 316.809896 507.5 316.809896 516.373698 Z M 316.809896 516.373698 " transform="matrix(0.0206897,0,0,0.0206897,0,0)"/>
<use xlink:href="#surface8" mask="url(#mask1)"/>
</g>
</svg>
