<?xml version="1.0" encoding="UTF-8"?>
<svg xmlns="http://www.w3.org/2000/svg" xmlns:xlink="http://www.w3.org/1999/xlink" width="24" height="24" viewBox="0 0 24 24">
<defs>
<filter id="filter-remove-color" x="0%" y="0%" width="100%" height="100%">
<feColorMatrix color-interpolation-filters="sRGB" values="0 0 0 0 1 0 0 0 0 1 0 0 0 0 1 0 0 0 1 0" />
</filter>
<mask id="mask-0">
<g filter="url(#filter-remove-color)">
<rect x="-2.4" y="-2.4" width="28.8" height="28.8" fill="rgb(0%, 0%, 0%)" fill-opacity="0.43913"/>
</g>
</mask>
<clipPath id="clip-0">
<path clip-rule="nonzero" d="M 8 0 L 15 0 L 15 23 L 8 23 Z M 8 0 "/>
</clipPath>
<clipPath id="clip-1">
<rect x="0" y="0" width="24" height="24"/>
</clipPath>
<g id="source-7" clip-path="url(#clip-1)">
<g clip-path="url(#clip-0)">
<path fill-rule="nonzero" fill="rgb(67.45098%, 84.705882%, 95.294118%)" fill-opacity="1" d="M 11.820312 -0.101562 C 11.691406 -0.105469 11.5625 -0.078125 11.449219 -0.015625 C 11.332031 0.046875 11.234375 0.136719 11.167969 0.246094 L 8.804688 4.0625 C 8.726562 4.191406 8.6875 4.34375 8.695312 4.496094 C 8.707031 4.644531 8.761719 4.792969 8.855469 4.910156 C 8.765625 5.027344 8.707031 5.171875 8.699219 5.320312 C 8.6875 5.46875 8.722656 5.617188 8.800781 5.746094 L 10.453125 8.539062 L 10.453125 21.285156 C 10.453125 21.382812 10.472656 21.480469 10.507812 21.570312 C 10.546875 21.65625 10.601562 21.738281 10.667969 21.808594 C 10.738281 21.875 10.816406 21.929688 10.90625 21.96875 C 10.996094 22.003906 11.09375 22.023438 11.191406 22.023438 L 12.226562 22.023438 C 12.320312 22.023438 12.417969 22.003906 12.507812 21.96875 C 12.597656 21.929688 12.679688 21.875 12.746094 21.808594 C 12.816406 21.738281 12.871094 21.65625 12.90625 21.570312 C 12.945312 21.480469 12.964844 21.382812 12.964844 21.285156 L 12.964844 8.535156 L 14.683594 5.757812 C 14.761719 5.628906 14.800781 5.476562 14.789062 5.328125 C 14.78125 5.175781 14.726562 5.03125 14.628906 4.910156 C 14.722656 4.792969 14.78125 4.652344 14.789062 4.5 C 14.800781 4.351562 14.765625 4.203125 14.6875 4.074219 L 12.429688 0.257812 C 12.367188 0.152344 12.277344 0.0625 12.171875 0 C 12.066406 -0.0625 11.945312 -0.0976562 11.820312 -0.101562 Z M 11.820312 -0.101562 "/>
</g>
</g>
</defs>
<g mask="url(#mask-0)">
<use xlink:href="#source-7"/>
</g>
<path fill-rule="nonzero" fill="rgb(0%, 0%, 0%)" fill-opacity="1" d="M 14.0625 5.375 L 9.441406 5.375 L 11.699219 9.191406 "/>
<path fill-rule="nonzero" fill="rgb(0%, 0%, 0%)" fill-opacity="1" d="M 9.4375 4.457031 L 14.058594 4.457031 L 11.800781 0.640625 "/>
<path fill="none" stroke-width="25" stroke-linecap="butt" stroke-linejoin="miter" stroke="rgb(0%, 0%, 0%)" stroke-opacity="1" stroke-miterlimit="4" d="M 283.108724 514.580078 L 283.108724 68.818359 " transform="matrix(0.0413793, 0, 0, 0.0413793, 0, 0)"/>
</svg>
