<?xml version="1.0" encoding="UTF-8"?>
<svg xmlns="http://www.w3.org/2000/svg" xmlns:xlink="http://www.w3.org/1999/xlink" width="64" height="64" viewBox="0 0 64 64">
<path fill="none" stroke-width="22" stroke-linecap="butt" stroke-linejoin="miter" stroke="rgb(46.666667%, 46.666667%, 46.666667%)" stroke-opacity="1" stroke-miterlimit="4" d="M 290 568.17627 C 443.637695 568.17627 568.17627 443.637695 568.17627 290 C 568.17627 136.362305 443.637695 11.82373 290 11.82373 C 136.362305 11.82373 11.82373 136.362305 11.82373 290 C 11.82373 443.637695 136.362305 568.17627 290 568.17627 Z M 290 568.17627 " transform="matrix(0.110345, 0, 0, 0.110345, 0, 0)"/>
<path fill="none" stroke-width="55" stroke-linecap="round" stroke-linejoin="miter" stroke="rgb(46.666667%, 46.666667%, 46.666667%)" stroke-opacity="1" stroke-miterlimit="4" d="M 384.731445 131.229248 C 365.827637 173.426514 310.213623 289.398193 310.213623 289.398193 L 384.625244 448.770752 " transform="matrix(0.110345, 0, 0, 0.110345, 0, 0)"/>
<path fill="none" stroke-width="55" stroke-linecap="round" stroke-linejoin="miter" stroke="rgb(46.666667%, 46.666667%, 46.666667%)" stroke-opacity="1" stroke-miterlimit="4" d="M 255.874023 131.229248 C 236.970215 173.426514 181.356201 289.398193 181.356201 289.398193 L 255.767822 448.770752 " transform="matrix(0.110345, 0, 0, 0.110345, 0, 0)"/>
</svg>
