<?xml version="1.0" encoding="UTF-8"?>
<svg xmlns="http://www.w3.org/2000/svg" xmlns:xlink="http://www.w3.org/1999/xlink" width="12" height="12" viewBox="0 0 12 12" version="1.1">
<defs>
<filter id="alpha" filterUnits="objectBoundingBox" x="0%" y="0%" width="100%" height="100%">
  <feColorMatrix type="matrix" in="SourceGraphic" values="0 0 0 0 1 0 0 0 0 1 0 0 0 0 1 0 0 0 1 0"/>
</filter>
<mask id="mask0">
  <g filter="url(#alpha)">
<rect x="0" y="0" width="12" height="12" style="fill:rgb(0%,0%,0%);fill-opacity:0.372;stroke:none;"/>
  </g>
</mask>
<clipPath id="clip1">
  <rect x="0" y="0" width="12" height="12"/>
</clipPath>
<g id="surface5" clip-path="url(#clip1)">
<path style=" stroke:none;fill-rule:nonzero;fill:rgb(89.411765%,89.411765%,89.411765%);fill-opacity:1;" d="M 5.972656 1.339844 C 5.980469 1.339844 5.921875 1.34375 5.921875 1.34375 C 5.921875 1.34375 5.917969 1.34375 5.917969 1.34375 C 5.953125 1.34375 5.617188 1.46875 5.652344 1.445312 C 5.6875 1.417969 5.433594 1.695312 5.457031 1.65625 C 5.457031 1.65625 5.457031 1.65625 5.453125 1.660156 L 3.773438 4.683594 C 3.785156 4.664062 3.710938 4.859375 3.714844 4.835938 C 3.722656 4.8125 3.699219 4.988281 3.699219 4.988281 L 3.695312 4.988281 L 3.695312 6.679688 L 2.09375 7.824219 L 2.097656 7.828125 C 2.066406 7.863281 1.917969 8 1.9375 7.972656 C 1.960938 7.941406 1.824219 8.25 1.832031 8.210938 C 1.84375 8.171875 1.839844 8.503906 1.832031 8.464844 C 1.824219 8.425781 1.957031 8.730469 1.933594 8.699219 C 1.914062 8.667969 2.15625 8.894531 2.125 8.875 C 2.089844 8.851562 2.40625 8.960938 2.363281 8.957031 C 2.339844 8.953125 2.4375 8.945312 2.523438 8.941406 L 2.523438 10.027344 C 2.523438 9.988281 2.582031 10.296875 2.570312 10.261719 C 2.554688 10.230469 2.730469 10.492188 2.703125 10.464844 C 2.675781 10.4375 2.941406 10.617188 2.90625 10.601562 C 2.871094 10.585938 3.179688 10.648438 3.144531 10.648438 L 5.160156 10.648438 C 5.125 10.648438 5.433594 10.585938 5.398438 10.601562 C 5.363281 10.617188 5.628906 10.441406 5.601562 10.464844 C 5.574219 10.492188 5.75 10.230469 5.738281 10.265625 C 5.722656 10.296875 5.785156 9.988281 5.785156 10.027344 C 5.785156 10.027344 5.785156 10.023438 5.785156 10.023438 L 5.785156 8.851562 C 5.785156 8.699219 5.847656 8.632812 6 8.632812 C 6.152344 8.632812 6.214844 8.699219 6.214844 8.851562 L 6.214844 10.023438 C 6.214844 10.023438 6.214844 10.027344 6.214844 10.027344 C 6.214844 9.988281 6.277344 10.296875 6.261719 10.265625 C 6.25 10.230469 6.425781 10.492188 6.398438 10.464844 C 6.371094 10.441406 6.636719 10.617188 6.601562 10.601562 C 6.566406 10.585938 6.875 10.648438 6.839844 10.648438 L 8.855469 10.648438 C 8.820312 10.648438 9.128906 10.585938 9.09375 10.601562 C 9.058594 10.617188 9.324219 10.4375 9.296875 10.464844 C 9.269531 10.492188 9.445312 10.230469 9.429688 10.261719 C 9.417969 10.296875 9.476562 9.988281 9.476562 10.027344 C 9.476562 10.027344 9.476562 10.023438 9.476562 10.023438 L 9.476562 8.941406 C 9.5625 8.945312 9.660156 8.953125 9.636719 8.957031 C 9.59375 8.960938 9.910156 8.851562 9.875 8.875 C 9.84375 8.894531 10.085938 8.667969 10.066406 8.699219 C 10.042969 8.730469 10.175781 8.425781 10.167969 8.464844 C 10.160156 8.503906 10.15625 8.171875 10.167969 8.210938 C 10.175781 8.25 10.039062 7.941406 10.0625 7.972656 C 10.082031 8 9.933594 7.863281 9.902344 7.828125 L 9.90625 7.824219 L 8.304688 6.679688 L 8.304688 4.988281 L 8.300781 4.988281 C 8.300781 4.988281 8.277344 4.8125 8.285156 4.835938 C 8.289062 4.859375 8.214844 4.664062 8.226562 4.683594 L 6.546875 1.660156 C 6.542969 1.65625 6.542969 1.65625 6.542969 1.65625 C 6.558594 1.679688 6.421875 1.503906 6.441406 1.519531 C 6.457031 1.539062 6.28125 1.40625 6.304688 1.417969 C 6.328125 1.429688 6.121094 1.351562 6.144531 1.355469 C 6.171875 1.363281 5.949219 1.339844 5.976562 1.339844 C 5.972656 1.339844 5.972656 1.339844 5.972656 1.339844 Z M 6 3.25 L 6.9375 4.9375 C 6.699219 4.6875 6.367188 4.53125 6 4.53125 C 5.632812 4.53125 5.300781 4.6875 5.0625 4.9375 Z M 6 5.777344 C 6.039062 5.777344 6.046875 5.789062 6.046875 5.828125 C 6.046875 5.863281 6.039062 5.875 6 5.875 C 5.960938 5.875 5.953125 5.863281 5.953125 5.828125 C 5.953125 5.789062 5.960938 5.777344 6 5.777344 Z M 4.945312 6.570312 C 5.179688 6.902344 5.566406 7.121094 6 7.121094 C 6.433594 7.121094 6.820312 6.902344 7.054688 6.570312 L 7.054688 7.003906 C 7.058594 6.992188 7.078125 7.164062 7.070312 7.144531 C 7.066406 7.121094 7.132812 7.300781 7.121094 7.28125 C 7.109375 7.261719 7.214844 7.421875 7.203125 7.40625 C 7.1875 7.386719 7.324219 7.519531 7.308594 7.503906 C 7.308594 7.507812 7.3125 7.507812 7.316406 7.511719 L 8.230469 8.160156 L 8.230469 9.402344 L 7.464844 9.402344 L 7.464844 8.851562 C 7.464844 8.046875 6.804688 7.386719 6 7.386719 C 5.195312 7.386719 4.535156 8.046875 4.535156 8.851562 L 4.535156 9.402344 L 3.769531 9.402344 L 3.769531 8.160156 L 4.683594 7.511719 C 4.6875 7.507812 4.691406 7.507812 4.691406 7.503906 C 4.675781 7.519531 4.8125 7.386719 4.796875 7.40625 C 4.785156 7.421875 4.890625 7.261719 4.878906 7.28125 C 4.867188 7.300781 4.933594 7.121094 4.929688 7.144531 C 4.921875 7.164062 4.941406 6.992188 4.945312 7.003906 Z M 4.945312 6.570312 "/>
</g>
</defs>
<g id="surface1">
<use xlink:href="#surface5" mask="url(#mask0)"/>
<path style="fill:none;stroke-width:16.233999;stroke-linecap:butt;stroke-linejoin:round;stroke:rgb(0%,0%,0%);stroke-opacity:1;stroke-miterlimit:10;" d="M 290 314.355469 C 307.936198 314.355469 322.473958 299.817708 322.473958 281.88151 C 322.473958 263.945312 307.936198 249.407552 290 249.407552 C 272.063802 249.407552 257.526042 263.945312 257.526042 281.88151 C 257.526042 299.817708 272.063802 314.355469 290 314.355469 Z M 290 314.355469 " transform="matrix(0.0206897,0,0,0.0206897,0,0)"/>
<path style="fill:none;stroke-width:16.233999;stroke-linecap:butt;stroke-linejoin:round;stroke:rgb(0%,0%,0%);stroke-opacity:1;stroke-miterlimit:10;" d="M 151.985677 379.303385 L 151.985677 484.84375 L 249.407552 484.84375 C 249.407552 461.998698 249.407552 434.433594 249.407552 428.014323 C 249.407552 405.169271 267.34375 387.421875 290 387.421875 C 312.65625 387.421875 330.592448 405.169271 330.592448 428.014323 C 330.592448 434.433594 330.592448 461.998698 330.592448 484.84375 L 428.014323 484.84375 L 428.014323 379.303385 " transform="matrix(0.0206897,0,0,0.0206897,0,0)"/>
<path style="fill:none;stroke-width:16.233999;stroke-linecap:round;stroke-linejoin:round;stroke:rgb(0%,0%,0%);stroke-opacity:1;stroke-miterlimit:10;" d="M 118.75651 402.903646 L 208.815104 338.710938 L 208.815104 241.289062 L 290 95.15625 L 371.184896 241.289062 L 371.184896 338.710938 L 461.24349 402.903646 " transform="matrix(0.0206897,0,0,0.0206897,0,0)"/>
</g>
</svg>
