<?xml version="1.0" encoding="UTF-8"?>
<svg xmlns="http://www.w3.org/2000/svg" xmlns:xlink="http://www.w3.org/1999/xlink" width="32" height="32" viewBox="0 0 32 32">
<defs>
<filter id="filter-remove-color" x="0%" y="0%" width="100%" height="100%">
<feColorMatrix color-interpolation-filters="sRGB" values="0 0 0 0 1 0 0 0 0 1 0 0 0 0 1 0 0 0 1 0" />
</filter>
<mask id="mask-0">
<g filter="url(#filter-remove-color)">
<rect x="-3.2" y="-3.2" width="38.4" height="38.4" fill="rgb(0%, 0%, 0%)" fill-opacity="0.372"/>
</g>
</mask>
<clipPath id="clip-0">
<rect x="0" y="0" width="32" height="32"/>
</clipPath>
<g id="source-6" clip-path="url(#clip-0)">
<path fill-rule="nonzero" fill="rgb(89.411765%, 89.411765%, 89.411765%)" fill-opacity="1" d="M 13.585938 1.894531 C 13.433594 1.890625 13.28125 1.902344 13.132812 1.933594 C 12.660156 2.027344 12.1875 2.148438 11.726562 2.292969 C 11.230469 2.445312 10.816406 2.78125 10.5625 3.234375 C 10.3125 3.683594 10.242188 4.214844 10.371094 4.71875 L 11.367188 8.601562 C 11.449219 8.917969 11.605469 9.210938 11.824219 9.453125 C 9.652344 10.839844 8.199219 13.265625 8.199219 16.015625 C 8.199219 20.289062 11.710938 23.800781 15.984375 23.800781 C 18.671875 23.800781 21.054688 22.414062 22.457031 20.324219 C 22.691406 20.546875 22.976562 20.710938 23.289062 20.800781 L 27.152344 21.882812 C 27.648438 22.023438 28.183594 21.964844 28.640625 21.722656 C 29.097656 21.480469 29.441406 21.074219 29.605469 20.582031 C 29.761719 20.121094 29.890625 19.65625 30 19.183594 C 30.113281 18.679688 30.027344 18.152344 29.761719 17.707031 C 29.496094 17.261719 29.070312 16.9375 28.574219 16.796875 L 27.671875 16.546875 C 27.679688 16.3125 27.683594 16.078125 27.679688 15.839844 C 28.0625 15.695312 28.382812 15.566406 28.59375 15.511719 C 29.09375 15.382812 29.527344 15.066406 29.800781 14.628906 C 30.074219 14.191406 30.171875 13.664062 30.070312 13.160156 C 29.972656 12.679688 29.851562 12.210938 29.707031 11.753906 C 29.554688 11.257812 29.21875 10.84375 28.765625 10.589844 C 28.316406 10.339844 27.785156 10.269531 27.28125 10.398438 L 26.382812 10.628906 C 26.257812 10.390625 26.125 10.15625 25.984375 9.929688 L 26.648438 9.28125 C 27.019531 8.917969 27.234375 8.429688 27.253906 7.910156 C 27.269531 7.394531 27.089844 6.890625 26.746094 6.503906 C 26.597656 6.332031 26.433594 6.15625 26.257812 5.972656 C 26.074219 5.789062 25.898438 5.621094 25.734375 5.46875 C 25.355469 5.117188 24.855469 4.925781 24.339844 4.933594 C 23.820312 4.941406 23.328125 5.144531 22.957031 5.507812 L 22.289062 6.160156 C 22.066406 6.015625 21.835938 5.878906 21.601562 5.75 L 21.855469 4.847656 C 21.996094 4.351562 21.9375 3.816406 21.695312 3.359375 C 21.453125 2.902344 21.046875 2.558594 20.554688 2.394531 C 20.097656 2.238281 19.632812 2.109375 19.160156 2 C 18.65625 1.886719 18.125 1.972656 17.679688 2.234375 C 17.238281 2.5 16.910156 2.925781 16.773438 3.425781 L 16.519531 4.324219 C 16.25 4.308594 15.980469 4.308594 15.707031 4.3125 L 15.488281 3.425781 C 15.382812 2.996094 15.140625 2.613281 14.796875 2.339844 C 14.453125 2.0625 14.027344 1.90625 13.585938 1.894531 Z M 15.984375 14.023438 C 17.132812 14.023438 17.976562 14.867188 17.976562 16.015625 C 17.976562 17.160156 17.132812 18.003906 15.984375 18.003906 C 14.839844 18.003906 13.996094 17.160156 13.996094 16.015625 C 13.996094 14.867188 14.839844 14.023438 15.984375 14.023438 Z M 15.984375 14.023438 "/>
</g>
</defs>
<g mask="url(#mask-0)">
<use xlink:href="#source-6"/>
</g>
<path fill="none" stroke-width="32" stroke-linecap="round" stroke-linejoin="miter" stroke="rgb(0%, 0%, 0%)" stroke-opacity="1" stroke-miterlimit="4" d="M 378.642578 290 C 378.642578 313.505859 369.296875 336.020508 352.658691 352.658691 C 336.020508 369.296875 313.505859 378.642578 290 378.642578 C 266.494141 378.642578 243.979492 369.296875 227.341309 352.658691 C 210.703125 336.020508 201.357422 313.505859 201.357422 290 C 201.357422 266.494141 210.703125 243.979492 227.341309 227.341309 C 243.979492 210.703125 266.494141 201.357422 290 201.357422 C 313.505859 201.357422 336.020508 210.703125 352.658691 227.341309 C 369.296875 243.979492 378.642578 266.494141 378.642578 290 Z M 378.642578 290 " transform="matrix(0.0551724, 0, 0, 0.0551724, 0, 0)"/>
<path fill="none" stroke-width="25.799999" stroke-linecap="round" stroke-linejoin="miter" stroke="rgb(0%, 0%, 0%)" stroke-opacity="1" stroke-miterlimit="4" d="M 256.794434 130.698242 C 283.769531 125.03418 311.665039 126.379395 338.00293 134.521484 C 364.34082 142.592773 388.129883 157.319336 407.246094 177.143555 C 426.362305 196.967773 440.097656 221.323242 447.248535 247.944336 C 454.328613 274.56543 454.611816 302.531738 447.956543 329.223633 " transform="matrix(0.0551724, 0, 0, 0.0551724, 0, 0)"/>
<path fill-rule="nonzero" fill="rgb(0%, 0%, 0%)" fill-opacity="1" d="M 24.828125 7.371094 C 24.683594 7.21875 24.53125 7.074219 24.378906 6.933594 L 21.519531 9.730469 C 21.671875 9.867188 21.824219 10.011719 21.972656 10.164062 C 22.117188 10.3125 22.257812 10.464844 22.390625 10.625 L 25.253906 7.828125 C 25.117188 7.671875 24.976562 7.519531 24.828125 7.371094 Z M 19.925781 4.289062 C 19.53125 4.15625 19.132812 4.046875 18.726562 3.953125 L 17.644531 7.820312 C 18.050781 7.898438 18.453125 8.011719 18.84375 8.152344 Z M 27.796875 12.335938 L 23.910156 13.332031 C 24.191406 15.476562 26.457031 13.96875 28.105469 13.546875 C 28.023438 13.140625 27.917969 12.734375 27.796875 12.335938 Z M 28.046875 18.726562 L 24.113281 17.632812 C 24.035156 18.039062 23.988281 18.453125 23.847656 18.84375 L 27.710938 19.925781 C 27.84375 19.53125 27.957031 19.128906 28.046875 18.726562 Z M 13.546875 3.894531 C 13.140625 3.976562 12.734375 4.082031 12.335938 4.203125 L 13.332031 8.089844 C 13.726562 7.957031 14.121094 7.929688 14.527344 7.855469 Z M 13.546875 3.894531 "/>
</svg>
