<?xml version="1.0" encoding="UTF-8"?>
<svg xmlns="http://www.w3.org/2000/svg" xmlns:xlink="http://www.w3.org/1999/xlink" width="12" height="12" viewBox="0 0 12 12" version="1.1">
<g id="surface1">
<path style=" stroke:none;fill-rule:nonzero;fill:rgb(34.509805%,34.509805%,34.509805%);fill-opacity:1;" d="M 2.121094 2.292969 C 1.96875 2.292969 1.820312 2.355469 1.710938 2.464844 C 1.601562 2.574219 1.539062 2.71875 1.539062 2.875 L 1.539062 9.125 C 1.539062 9.28125 1.601562 9.425781 1.710938 9.535156 C 1.820312 9.644531 1.96875 9.707031 2.121094 9.707031 L 9.878906 9.707031 C 10.03125 9.707031 10.179688 9.644531 10.289062 9.535156 C 10.398438 9.425781 10.460938 9.28125 10.460938 9.125 L 10.460938 2.875 C 10.460938 2.71875 10.398438 2.574219 10.289062 2.464844 C 10.179688 2.355469 10.03125 2.292969 9.878906 2.292969 Z M 2.121094 2.292969 "/>
<path style=" stroke:none;fill-rule:nonzero;fill:rgb(99.607843%,99.607843%,99.607843%);fill-opacity:1;" d="M 10.054688 2.730469 L 1.945312 2.730469 L 1.945312 9.269531 L 10.054688 9.269531 Z M 10.054688 2.730469 "/>
<path style=" stroke:none;fill-rule:nonzero;fill:rgb(97.647059%,20%,34.117648%);fill-opacity:1;" d="M 3.996094 6.175781 C 4.039062 5.933594 4.0625 5.847656 4.125 5.726562 C 4.175781 5.621094 4.222656 5.554688 4.316406 5.460938 C 4.445312 5.335938 4.617188 5.222656 4.820312 5.128906 C 5.085938 5.011719 5.96875 4.679688 6.019531 4.679688 C 6.027344 4.679688 6.027344 4.679688 6.019531 4.699219 C 5.992188 4.765625 5.871094 4.988281 5.632812 5.40625 L 5.515625 5.621094 L 4.753906 5.921875 C 4.335938 6.089844 3.992188 6.226562 3.992188 6.226562 C 3.988281 6.226562 3.992188 6.203125 3.996094 6.175781 Z M 3.996094 6.175781 "/>
<path style=" stroke:none;fill-rule:nonzero;fill:rgb(0.784314%,33.333334%,76.862746%);fill-opacity:1;" d="M 4.675781 6.652344 C 4.59375 6.640625 4.472656 6.59375 4.339844 6.53125 C 4.195312 6.460938 4.082031 6.386719 4.023438 6.328125 C 3.992188 6.292969 3.980469 6.273438 3.988281 6.257812 C 3.988281 6.253906 3.992188 6.25 3.996094 6.25 C 4.019531 6.238281 4.203125 6.222656 4.441406 6.207031 C 4.585938 6.195312 5.0625 6.167969 5.070312 6.167969 C 5.074219 6.167969 5.0625 6.183594 5.003906 6.285156 C 4.90625 6.457031 4.882812 6.492188 4.839844 6.554688 C 4.796875 6.609375 4.761719 6.648438 4.742188 6.652344 C 4.730469 6.65625 4.699219 6.65625 4.675781 6.652344 Z M 4.675781 6.652344 "/>
<path style=" stroke:none;fill-rule:nonzero;fill:rgb(0.784314%,33.333334%,76.862746%);fill-opacity:1;" d="M 2.457031 8.664062 C 2.425781 8.648438 2.421875 8.613281 2.4375 8.53125 C 2.449219 8.488281 2.578125 8.015625 2.582031 8.011719 C 2.585938 8.011719 2.714844 7.960938 2.871094 7.902344 C 3.882812 7.519531 4.203125 7.386719 4.476562 7.25 C 4.695312 7.136719 4.796875 7.058594 4.835938 6.96875 C 4.847656 6.941406 4.851562 6.894531 4.839844 6.863281 C 4.832031 6.839844 4.804688 6.800781 4.777344 6.765625 C 4.742188 6.722656 4.746094 6.699219 4.800781 6.648438 C 4.886719 6.5625 5.121094 6.390625 5.214844 6.335938 C 5.277344 6.304688 5.339844 6.292969 5.378906 6.304688 C 5.425781 6.320312 5.46875 6.367188 5.523438 6.460938 C 5.667969 6.699219 5.6875 6.949219 5.574219 7.179688 C 5.535156 7.257812 5.472656 7.34375 5.398438 7.417969 C 5.21875 7.601562 4.949219 7.75 4.417969 7.957031 C 4.355469 7.980469 4.007812 8.117188 3.640625 8.257812 C 3.277344 8.394531 2.9375 8.527344 2.886719 8.542969 C 2.597656 8.65625 2.5 8.683594 2.457031 8.664062 Z M 2.457031 8.664062 "/>
<path style=" stroke:none;fill-rule:nonzero;fill:rgb(0.784314%,48.627451%,36.078432%);fill-opacity:1;" d="M 6.179688 5.136719 C 6.167969 5.027344 6.160156 4.875 6.15625 4.800781 L 6.152344 4.660156 L 6.207031 4.636719 C 6.496094 4.507812 9.523438 3.332031 9.566406 3.332031 C 9.585938 3.332031 9.488281 4.019531 9.464844 4.039062 C 9.460938 4.042969 9.332031 4.097656 9.179688 4.160156 C 8.691406 4.355469 6.234375 5.320312 6.210938 5.328125 C 6.199219 5.332031 6.195312 5.304688 6.179688 5.136719 Z M 6.179688 5.136719 "/>
<path style=" stroke:none;fill-rule:nonzero;fill:rgb(99.607843%,30.980393%,11.764706%);fill-opacity:1;" d="M 6.5 7.191406 C 6.5 7.1875 6.503906 7.164062 6.507812 7.144531 C 6.535156 6.988281 6.867188 5.332031 6.871094 5.328125 C 6.878906 5.324219 7.320312 5.007812 7.371094 4.976562 C 7.445312 4.921875 7.578125 4.835938 7.617188 4.8125 C 7.640625 4.796875 7.644531 4.796875 7.644531 4.804688 C 7.652344 4.851562 7.367188 6.179688 7.230469 6.730469 C 7.191406 6.890625 7.183594 6.914062 7.171875 6.925781 C 7.140625 6.96875 6.632812 7.175781 6.511719 7.199219 C 6.496094 7.199219 6.496094 7.199219 6.5 7.191406 Z M 6.5 7.191406 "/>
</g>
</svg>
