<?xml version="1.0" encoding="UTF-8"?>
<svg xmlns="http://www.w3.org/2000/svg" xmlns:xlink="http://www.w3.org/1999/xlink" width="12" height="12" viewBox="0 0 12 12">
<path fill="none" stroke-width="24.011999" stroke-linecap="round" stroke-linejoin="round" stroke="rgb(0%, 0%, 0%)" stroke-opacity="1" stroke-miterlimit="10" d="M 150.097656 352.682292 L 290 231.471354 L 429.902344 352.682292 " transform="matrix(0.0206897, 0, 0, 0.0206897, 0, 0)"/>
<path fill-rule="nonzero" fill="rgb(0%, 0%, 0%)" fill-opacity="1" d="M 6 5.652344 L 3.589844 7.664062 L 3.589844 9.726562 C 3.589844 10 3.796875 9.988281 4.0625 9.988281 L 5.027344 9.988281 C 5.027344 9.398438 5.035156 7.761719 5.035156 7.761719 L 6.964844 7.761719 C 6.964844 7.761719 6.957031 9.398438 6.957031 9.988281 L 7.921875 9.988281 C 8.1875 9.988281 8.410156 10 8.410156 9.726562 L 8.410156 7.664062 Z M 6 5.652344 "/>
<path fill-rule="nonzero" fill="rgb(0%, 0%, 0%)" fill-opacity="1" d="M 2.867188 8.820312 C 2.46875 9.117188 1.890625 9.199219 1.535156 9.199219 L 1.519531 9.199219 L 1.113281 9.921875 C 1.238281 9.925781 1.371094 9.960938 1.535156 9.960938 C 2.292969 9.960938 2.601562 9.792969 2.867188 9.582031 C 3.136719 9.78125 3.480469 9.882812 3.789062 9.929688 L 3.789062 9.167969 C 3.480469 9.121094 3.136719 9.019531 2.867188 8.820312 Z M 9.175781 8.832031 C 8.773438 9.128906 8.199219 9.210938 7.84375 9.210938 C 7.894531 9.53125 7.757812 9.464844 7.84375 9.976562 C 8.199219 9.976562 8.773438 9.890625 9.175781 9.59375 C 9.574219 9.890625 10.152344 9.976562 10.507812 9.976562 C 10.65625 9.976562 10.773438 9.941406 10.886719 9.90625 L 10.492188 9.210938 C 10.136719 9.210938 9.570312 9.125 9.175781 8.832031 Z M 9.175781 8.832031 "/>
<path fill-rule="nonzero" fill="rgb(0%, 0%, 0%)" fill-opacity="1" d="M 1.964844 10.582031 C 1.5625 10.875 0.976562 10.957031 0.617188 10.957031 C 0.601562 10.957031 0.585938 10.957031 0.570312 10.957031 L 0.175781 11.660156 C 0.308594 11.660156 0.441406 11.703125 0.617188 11.703125 C 1.378906 11.703125 1.695312 11.535156 1.964844 11.328125 C 2.371094 11.621094 2.953125 11.703125 3.3125 11.703125 C 3.671875 11.703125 4.253906 11.621094 4.660156 11.328125 C 5.0625 11.621094 5.648438 11.703125 6.007812 11.703125 C 6.367188 11.703125 6.949219 11.621094 7.355469 11.328125 C 7.757812 11.621094 8.339844 11.703125 8.699219 11.703125 C 9.058594 11.703125 9.644531 11.621094 10.050781 11.328125 C 10.453125 11.621094 11.035156 11.703125 11.394531 11.703125 C 11.566406 11.703125 11.695312 11.664062 11.824219 11.625 L 11.445312 10.957031 C 11.429688 10.957031 11.414062 10.957031 11.394531 10.957031 C 11.035156 10.957031 10.453125 10.875 10.050781 10.582031 C 9.644531 10.875 9.058594 10.957031 8.699219 10.957031 C 8.339844 10.957031 7.757812 10.875 7.355469 10.582031 C 6.949219 10.875 6.367188 10.957031 6.007812 10.957031 C 5.648438 10.957031 5.0625 10.875 4.660156 10.582031 C 4.253906 10.875 3.671875 10.957031 3.3125 10.957031 C 2.953125 10.957031 2.371094 10.875 1.964844 10.582031 Z M 1.964844 10.582031 "/>
<path fill-rule="nonzero" fill="rgb(0%, 0%, 0%)" fill-opacity="1" d="M 5.972656 8.933594 C 5.558594 9.230469 4.960938 9.316406 4.59375 9.316406 C 4.578125 9.316406 4.1875 9.285156 4.171875 9.285156 L 3.199219 9.753906 C 3.582031 10.035156 4.414062 10.074219 4.59375 10.074219 C 5.375 10.074219 5.699219 9.90625 5.972656 9.695312 C 6.386719 9.992188 6.984375 10.074219 7.351562 10.074219 C 9.429688 9.9375 9.136719 9.304688 7.351562 9.316406 C 6.984375 9.316406 6.386719 9.230469 5.972656 8.933594 Z M 5.972656 8.933594 "/>
</svg>
