<?xml version="1.0" encoding="UTF-8"?>
<svg xmlns="http://www.w3.org/2000/svg" xmlns:xlink="http://www.w3.org/1999/xlink" width="12" height="12" viewBox="0 0 12 12">
<path fill="none" stroke-width="22.344" stroke-linecap="round" stroke-linejoin="round" stroke="rgb(0%, 0%, 0%)" stroke-opacity="1" stroke-miterlimit="10" d="M 159.915365 355.325521 L 290 242.610677 L 420.084635 355.325521 " transform="matrix(0.0206897, 0, 0, 0.0206897, 0, 0)"/>
<path fill-rule="nonzero" fill="rgb(0%, 0%, 0%)" fill-opacity="1" d="M 6 5.824219 L 3.757812 7.699219 L 3.757812 9.613281 C 3.757812 9.867188 3.949219 9.859375 4.199219 9.859375 L 5.09375 9.859375 C 5.09375 9.308594 5.101562 7.789062 5.101562 7.789062 L 6.898438 7.789062 C 6.898438 7.789062 6.890625 9.308594 6.890625 9.859375 L 7.789062 9.859375 C 8.035156 9.859375 8.242188 9.867188 8.242188 9.613281 L 8.242188 7.699219 Z M 6 5.824219 "/>
<path fill-rule="nonzero" fill="rgb(0%, 0%, 0%)" fill-opacity="1" d="M 3.085938 8.769531 C 2.714844 9.046875 2.175781 9.125 1.847656 9.125 L 1.832031 9.125 L 1.453125 9.796875 C 1.570312 9.800781 1.691406 9.835938 1.847656 9.835938 C 2.550781 9.835938 2.839844 9.679688 3.085938 9.480469 C 3.335938 9.664062 3.65625 9.761719 3.941406 9.804688 L 3.941406 9.097656 C 3.65625 9.054688 3.335938 8.957031 3.085938 8.769531 Z M 8.953125 8.78125 C 8.582031 9.058594 8.046875 9.136719 7.714844 9.136719 C 7.761719 9.433594 7.636719 9.375 7.714844 9.847656 C 8.046875 9.847656 8.582031 9.769531 8.953125 9.492188 C 9.328125 9.769531 9.867188 9.847656 10.195312 9.847656 C 10.335938 9.847656 10.441406 9.816406 10.546875 9.785156 L 10.179688 9.136719 C 9.847656 9.132812 9.320312 9.054688 8.953125 8.78125 Z M 8.953125 8.78125 "/>
<path fill-rule="nonzero" fill="rgb(0%, 0%, 0%)" fill-opacity="1" d="M 2.246094 10.414062 C 1.871094 10.683594 1.324219 10.761719 0.992188 10.761719 C 0.976562 10.761719 0.964844 10.761719 0.949219 10.761719 L 0.582031 11.414062 C 0.703125 11.414062 0.828125 11.453125 0.992188 11.453125 C 1.703125 11.453125 1.996094 11.300781 2.246094 11.105469 C 2.621094 11.375 3.164062 11.453125 3.5 11.453125 C 3.832031 11.453125 4.375 11.375 4.753906 11.105469 C 5.128906 11.375 5.671875 11.453125 6.007812 11.453125 C 6.339844 11.453125 6.882812 11.375 7.261719 11.105469 C 7.636719 11.375 8.179688 11.453125 8.511719 11.453125 C 8.847656 11.453125 9.390625 11.375 9.769531 11.105469 C 10.144531 11.375 10.6875 11.453125 11.019531 11.453125 C 11.179688 11.453125 11.300781 11.417969 11.417969 11.382812 L 11.066406 10.757812 C 11.050781 10.757812 11.035156 10.761719 11.019531 10.761719 C 10.6875 10.761719 10.144531 10.683594 9.769531 10.414062 C 9.390625 10.683594 8.847656 10.761719 8.511719 10.761719 C 8.179688 10.761719 7.636719 10.683594 7.261719 10.414062 C 6.882812 10.683594 6.339844 10.761719 6.007812 10.761719 C 5.671875 10.761719 5.128906 10.683594 4.753906 10.414062 C 4.375 10.683594 3.832031 10.761719 3.5 10.761719 C 3.164062 10.761719 2.621094 10.683594 2.246094 10.414062 Z M 2.246094 10.414062 "/>
<path fill-rule="nonzero" fill="rgb(0%, 0%, 0%)" fill-opacity="1" d="M 5.976562 8.875 C 5.589844 9.152344 5.035156 9.234375 4.691406 9.234375 C 4.675781 9.234375 4.3125 9.207031 4.300781 9.207031 L 3.390625 9.640625 C 3.75 9.902344 4.527344 9.941406 4.691406 9.941406 C 5.417969 9.941406 5.71875 9.785156 5.976562 9.585938 C 6.359375 9.863281 6.914062 9.941406 7.257812 9.941406 C 9.191406 9.8125 8.917969 9.222656 7.257812 9.234375 C 6.914062 9.234375 6.359375 9.152344 5.976562 8.875 Z M 5.976562 8.875 "/>
</svg>
