<?xml version="1.0" encoding="UTF-8"?>
<svg xmlns="http://www.w3.org/2000/svg" xmlns:xlink="http://www.w3.org/1999/xlink" width="12" height="12" viewBox="0 0 12 12" version="1.1">
<defs>
<filter id="alpha" filterUnits="objectBoundingBox" x="0%" y="0%" width="100%" height="100%">
  <feColorMatrix type="matrix" in="SourceGraphic" values="0 0 0 0 1 0 0 0 0 1 0 0 0 0 1 0 0 0 1 0"/>
</filter>
<mask id="mask0">
  <g filter="url(#alpha)">
<rect x="0" y="0" width="12" height="12" style="fill:rgb(0%,0%,0%);fill-opacity:0.426087;stroke:none;"/>
  </g>
</mask>
<clipPath id="clip1">
  <rect x="0" y="0" width="12" height="12"/>
</clipPath>
<g id="surface5" clip-path="url(#clip1)">
<path style=" stroke:none;fill-rule:nonzero;fill:rgb(55.29412%,55.29412%,55.29412%);fill-opacity:1;" d="M 4.890625 4.433594 C 4.785156 4.433594 4.675781 4.480469 4.601562 4.554688 C 4.523438 4.632812 4.480469 4.738281 4.480469 4.847656 L 4.480469 10.019531 L 3.921875 10.019531 C 3.8125 10.019531 3.707031 10.0625 3.628906 10.140625 C 3.550781 10.214844 3.507812 10.324219 3.507812 10.433594 L 3.507812 10.949219 C 3.507812 11.058594 3.550781 11.164062 3.628906 11.242188 C 3.707031 11.320312 3.8125 11.363281 3.921875 11.363281 L 4.726562 11.363281 C 4.960938 11.75 5.378906 12.007812 5.855469 12.007812 C 6.335938 12.007812 6.753906 11.75 6.988281 11.363281 L 7.792969 11.363281 C 7.902344 11.363281 8.007812 11.320312 8.085938 11.242188 C 8.164062 11.164062 8.207031 11.058594 8.207031 10.949219 L 8.207031 10.433594 C 8.207031 10.324219 8.164062 10.214844 8.085938 10.140625 C 8.007812 10.0625 7.902344 10.019531 7.792969 10.019531 L 7.234375 10.019531 L 7.234375 4.847656 C 7.234375 4.738281 7.191406 4.632812 7.113281 4.554688 C 7.035156 4.480469 6.929688 4.433594 6.820312 4.433594 Z M 4.890625 4.433594 "/>
</g>
<mask id="mask1">
  <g filter="url(#alpha)">
<rect x="0" y="0" width="12" height="12" style="fill:rgb(0%,0%,0%);fill-opacity:0.426087;stroke:none;"/>
  </g>
</mask>
<clipPath id="clip2">
  <rect x="0" y="0" width="12" height="12"/>
</clipPath>
<g id="surface8" clip-path="url(#clip2)">
<path style=" stroke:none;fill-rule:nonzero;fill:rgb(0%,0%,0%);fill-opacity:1;" d="M 6.824219 4.996094 L 6.316406 4.996094 L 6.316406 10.589844 L 6.824219 10.589844 Z M 6.824219 4.996094 "/>
</g>
</defs>
<g id="surface1">
<use xlink:href="#surface5" mask="url(#mask0)"/>
<path style=" stroke:none;fill-rule:nonzero;fill:rgb(100%,83.137256%,0%);fill-opacity:1;" d="M 6.824219 4.996094 L 4.894531 4.996094 L 4.894531 10.589844 L 6.824219 10.589844 Z M 6.824219 4.996094 "/>
<path style="fill:none;stroke-width:25;stroke-linecap:butt;stroke-linejoin:miter;stroke:rgb(0%,0%,0%);stroke-opacity:1;stroke-miterlimit:4;" d="M 189.557292 516.5625 L 376.848958 516.5625 " transform="matrix(0.0206897,0,0,0.0206897,0,0)"/>
<path style="fill-rule:nonzero;fill:rgb(99.607843%,99.607843%,99.607843%);fill-opacity:1;stroke-width:20.5723;stroke-linecap:round;stroke-linejoin:round;stroke:rgb(0%,0%,0%);stroke-opacity:1;stroke-miterlimit:10;" d="M 316.809896 516.373698 C 316.809896 525.247396 313.222656 533.932292 306.992188 540.16276 C 300.572917 546.393229 292.076823 549.980469 283.203125 549.980469 C 274.329427 549.980469 265.644531 546.393229 259.414062 540.16276 C 253.183594 533.932292 249.596354 525.247396 249.596354 516.373698 C 249.596354 507.5 253.183594 499.003906 259.414062 492.584635 C 265.644531 486.354167 274.329427 482.766927 283.203125 482.766927 C 292.076823 482.766927 300.572917 486.354167 306.992188 492.584635 C 313.222656 499.003906 316.809896 507.5 316.809896 516.373698 Z M 316.809896 516.373698 " transform="matrix(0.0206897,0,0,0.0206897,0,0)"/>
<use xlink:href="#surface8" mask="url(#mask1)"/>
</g>
</svg>
