<svg width="64" height="64" viewBox="0 0 1060 1060" fill="none" xmlns="http://www.w3.org/2000/svg">
<path opacity="0.873134" d="M462.156 236.891C447.48 236.891 432.403 239.62 419.125 247.203C412.825 241.825 404.815 238.867 396.531 238.859H368.344C363.047 238.86 357.821 240.068 353.061 242.391C348.302 244.714 344.134 248.091 340.875 252.266C337.616 248.091 333.448 244.714 328.689 242.391C323.929 240.068 318.702 238.86 313.406 238.859H279.812C272.696 238.856 265.75 241.032 259.906 245.093C254.063 249.154 249.602 254.907 247.125 261.578L234.844 294.703C233.332 294.489 231.808 294.374 230.281 294.359H215.875L219.031 285.797C220.979 280.528 221.624 274.866 220.912 269.294C220.2 263.722 218.152 258.404 214.941 253.794C211.731 249.185 207.454 245.419 202.475 242.819C197.495 240.218 191.961 238.86 186.344 238.859H158C152.266 238.866 146.623 240.286 141.57 242.995C136.516 245.705 132.21 249.619 129.031 254.391C125.853 249.619 121.546 245.705 116.493 242.995C111.44 240.286 105.796 238.866 100.062 238.859H71.7187C66.1012 238.86 60.567 240.218 55.5876 242.819C50.6082 245.419 46.3312 249.185 43.1209 253.794C39.9106 258.404 37.8621 263.722 37.1501 269.294C36.438 274.866 37.0833 280.528 39.0312 285.797L79.5312 395.141C82.0036 401.817 86.4616 407.577 92.3055 411.644C98.1494 415.711 105.099 417.891 112.219 417.891H145.844C152.964 417.891 159.913 415.711 165.757 411.644C171.601 407.577 176.059 401.817 178.531 395.141L182.187 385.266C182.884 385.318 183.582 385.349 184.281 385.36H204.531C205.12 394.177 209.036 402.442 215.488 408.482C221.939 414.521 230.444 417.884 239.281 417.891H267.625C273.361 417.881 279.007 416.456 284.06 413.741C289.114 411.026 293.419 407.106 296.594 402.328C299.769 407.106 304.074 411.026 309.127 413.741C314.181 416.456 319.826 417.881 325.562 417.891H353.906C356.354 417.887 358.795 417.625 361.187 417.11C363.539 417.616 365.938 417.878 368.344 417.891H396.531C403.47 417.884 410.249 415.805 416 411.922C422.803 414.174 429.695 416.127 436.719 417.453C445.796 419.167 454.949 420.016 464.062 420.016C483.378 420.016 502.708 416.667 518.937 403.328C518.948 403.318 518.958 403.308 518.969 403.297C535.135 389.99 542.437 368.424 542.437 349.422C542.437 337.762 539.388 324.726 532.562 313.704C534.335 309.456 535.248 304.9 535.25 300.297V277.141C535.252 269.459 532.717 261.992 528.038 255.9C523.358 249.808 516.797 245.432 509.375 243.454C501.331 241.313 493.36 239.671 485.469 238.579V238.61C477.592 237.471 469.81 236.891 462.156 236.891L462.156 236.891Z" fill="#ACD8F3"/>
<path d="M462.156 271.734C448.973 271.734 438.875 274.656 431.844 280.516C424.812 286.375 421.313 294.752 421.313 305.641C421.313 314.332 423.814 321.232 428.844 326.359C433.922 331.486 441.937 335.234 452.875 337.578L463.781 339.984C470.422 341.449 474.834 343.098 477.031 344.953C479.277 346.809 480.406 349.441 480.406 352.859C480.406 356.668 478.771 359.621 475.5 361.672C472.228 363.723 467.527 364.734 461.375 364.734C455.32 364.734 449.012 363.809 442.469 361.953C435.975 360.049 429.232 357.227 422.25 353.516V377.328C429.232 379.916 436.205 381.885 443.188 383.203C450.17 384.521 457.129 385.172 464.063 385.172C478.76 385.172 489.684 382.25 496.813 376.391C503.99 370.482 507.594 361.482 507.594 349.422C507.594 340.242 505.033 333.184 499.906 328.203C494.779 323.223 486.127 319.488 473.969 317.047L461.938 314.641C456.225 313.469 452.291 312.065 450.094 310.453C447.945 308.793 446.875 306.508 446.875 303.578C446.875 299.672 448.465 296.777 451.688 294.922C454.91 293.067 459.887 292.141 466.625 292.141C471.703 292.141 477.1 292.836 482.813 294.203C488.525 295.57 494.4 297.611 500.406 300.297V277.141C493.619 275.334 487.035 273.988 480.688 273.109C474.34 272.182 468.162 271.734 462.156 271.734ZM71.7188 273.703L112.219 383.047H145.844L186.344 273.703H158L129.063 354.422L100.063 273.703H71.7188V273.703ZM279.813 273.703L239.281 383.047H267.625L274.594 363.141H318.688L325.563 383.047H353.906L313.406 273.703H279.813ZM368.344 273.703V383.047H396.531V273.703H368.344ZM296.656 299.328L311.594 342.828H281.625L296.656 299.328ZM184.281 329.203V350.516H230.281V329.203H184.281Z" fill="black"/>
</svg>
