<?xml version="1.0" encoding="UTF-8"?>
<svg xmlns="http://www.w3.org/2000/svg" xmlns:xlink="http://www.w3.org/1999/xlink" width="24" height="24" viewBox="0 0 24 24">
<defs>
<filter id="filter-remove-color" x="0%" y="0%" width="100%" height="100%">
<feColorMatrix color-interpolation-filters="sRGB" values="0 0 0 0 1 0 0 0 0 1 0 0 0 0 1 0 0 0 1 0" />
</filter>
<mask id="mask-0">
<g filter="url(#filter-remove-color)">
<rect x="-2.4" y="-2.4" width="28.8" height="28.8" fill="rgb(0%, 0%, 0%)" fill-opacity="0.552"/>
</g>
</mask>
<clipPath id="clip-0">
<path clip-rule="nonzero" d="M 8 0 L 15 0 L 15 22 L 8 22 Z M 8 0 "/>
</clipPath>
<clipPath id="clip-1">
<rect x="0" y="0" width="24" height="24"/>
</clipPath>
<g id="source-7" clip-path="url(#clip-1)">
<g clip-path="url(#clip-0)">
<path fill-rule="nonzero" fill="rgb(55.294118%, 55.294118%, 55.294118%)" fill-opacity="1" d="M 11.808594 -0.101562 C 11.691406 -0.105469 11.578125 -0.078125 11.476562 -0.0234375 C 11.375 0.03125 11.289062 0.109375 11.226562 0.210938 L 8.554688 4.527344 C 8.492188 4.628906 8.457031 4.742188 8.457031 4.859375 C 8.453125 4.976562 8.480469 5.089844 8.539062 5.191406 C 8.597656 5.292969 8.679688 5.378906 8.78125 5.4375 C 8.878906 5.496094 8.996094 5.527344 9.109375 5.53125 L 10.539062 5.53125 L 10.539062 21.292969 C 10.539062 21.464844 10.609375 21.632812 10.730469 21.753906 C 10.855469 21.878906 11.023438 21.949219 11.195312 21.949219 L 12.230469 21.949219 C 12.402344 21.949219 12.570312 21.878906 12.695312 21.753906 C 12.816406 21.632812 12.886719 21.464844 12.886719 21.292969 L 12.886719 5.53125 L 14.34375 5.53125 C 14.457031 5.527344 14.570312 5.5 14.671875 5.441406 C 14.769531 5.382812 14.855469 5.300781 14.910156 5.199219 C 14.96875 5.097656 15 4.984375 14.996094 4.867188 C 14.996094 4.753906 14.964844 4.640625 14.90625 4.539062 L 12.351562 0.222656 C 12.292969 0.125 12.214844 0.046875 12.121094 -0.0078125 C 12.027344 -0.0664062 11.917969 -0.0976562 11.808594 -0.101562 Z M 11.808594 -0.101562 "/>
</g>
</g>
</defs>
<g mask="url(#mask-0)">
<use xlink:href="#source-7"/>
</g>
<path fill="none" stroke-width="25" stroke-linecap="butt" stroke-linejoin="miter" stroke="rgb(0%, 0%, 0%)" stroke-opacity="1" stroke-miterlimit="4" d="M 283.108724 514.580078 L 283.108724 68.818359 " transform="matrix(0.0413793, 0, 0, 0.0413793, 0, 0)"/>
<path fill-rule="nonzero" fill="rgb(90.980392%, 0%, 0%)" fill-opacity="1" d="M 9.113281 4.875 L 14.34375 4.875 L 11.785156 0.554688 "/>
</svg>
