<?xml version="1.0" encoding="UTF-8"?>
<svg xmlns="http://www.w3.org/2000/svg" xmlns:xlink="http://www.w3.org/1999/xlink" width="12" height="12" viewBox="0 0 12 12" version="1.1">
<defs>
<filter id="alpha" filterUnits="objectBoundingBox" x="0%" y="0%" width="100%" height="100%">
  <feColorMatrix type="matrix" in="SourceGraphic" values="0 0 0 0 1 0 0 0 0 1 0 0 0 0 1 0 0 0 1 0"/>
</filter>
<mask id="mask0">
  <g filter="url(#alpha)">
<rect x="0" y="0" width="12" height="12" style="fill:rgb(0%,0%,0%);fill-opacity:0.552;stroke:none;"/>
  </g>
</mask>
<clipPath id="clip1">
  <rect x="0" y="0" width="12" height="12"/>
</clipPath>
<g id="surface5" clip-path="url(#clip1)">
<path style=" stroke:none;fill-rule:nonzero;fill:rgb(55.29412%,55.29412%,55.29412%);fill-opacity:1;" d="M 4.566406 0.09375 C 4.488281 0.09375 4.414062 0.113281 4.347656 0.152344 C 4.28125 0.191406 4.222656 0.246094 4.1875 0.316406 C 4.148438 0.382812 4.128906 0.457031 4.128906 0.535156 C 4.128906 0.613281 4.148438 0.6875 4.1875 0.753906 L 4.488281 1.261719 L 4.492188 1.265625 C 4.496094 1.277344 4.503906 1.289062 4.507812 1.300781 L 4.984375 2.101562 C 4.992188 2.113281 5 2.125 5.007812 2.140625 L 5.15625 2.394531 L 5.15625 10.644531 C 5.15625 10.703125 5.167969 10.761719 5.191406 10.8125 C 5.214844 10.867188 5.246094 10.914062 5.285156 10.957031 C 5.328125 10.996094 5.375 11.03125 5.429688 11.050781 C 5.480469 11.074219 5.539062 11.085938 5.597656 11.085938 L 6.113281 11.085938 C 6.171875 11.085938 6.230469 11.074219 6.28125 11.050781 C 6.335938 11.03125 6.382812 10.996094 6.425781 10.957031 C 6.464844 10.914062 6.496094 10.867188 6.519531 10.8125 C 6.542969 10.761719 6.554688 10.703125 6.554688 10.644531 L 6.554688 2.382812 L 6.722656 2.109375 L 7.21875 1.308594 L 7.554688 0.761719 C 7.59375 0.695312 7.617188 0.621094 7.621094 0.542969 C 7.621094 0.464844 7.601562 0.386719 7.566406 0.320312 C 7.527344 0.25 7.472656 0.195312 7.402344 0.15625 C 7.335938 0.113281 7.257812 0.09375 7.179688 0.09375 Z M 4.566406 0.09375 "/>
</g>
</defs>
<g id="surface1">
<use xlink:href="#surface5" mask="url(#mask0)"/>
<path style="fill:none;stroke-width:25;stroke-linecap:butt;stroke-linejoin:miter;stroke:rgb(0%,0%,0%);stroke-opacity:1;stroke-miterlimit:4;" d="M 283.014323 514.485677 L 283.014323 68.91276 " transform="matrix(0.0206897,0,0,0.0206897,0,0)"/>
<path style=" stroke:none;fill-rule:nonzero;fill:rgb(100%,83.137256%,0%);fill-opacity:1;" d="M 7.183594 0.53125 L 4.570312 0.53125 L 5.847656 2.691406 "/>
</g>
</svg>
