<?xml version="1.0" encoding="UTF-8"?>
<svg xmlns="http://www.w3.org/2000/svg" xmlns:xlink="http://www.w3.org/1999/xlink" width="12" height="12" viewBox="0 0 12 12">
<path fill-rule="nonzero" fill="rgb(0%, 0%, 0%)" fill-opacity="1" d="M 5.296875 3.378906 C 4.925781 3.292969 4.691406 3.410156 4.554688 3.578125 L 3.835938 4.472656 C 3.640625 4.449219 3.257812 4.550781 3.179688 4.894531 L 2.886719 6.171875 L 3.359375 6.277344 L 3.261719 6.6875 C 3.148438 7.191406 4.035156 7.386719 4.152344 6.890625 L 4.246094 6.484375 L 5.839844 6.851562 L 7.4375 7.21875 L 7.34375 7.628906 C 7.230469 8.125 8.113281 8.332031 8.230469 7.832031 L 8.324219 7.421875 L 8.796875 7.53125 L 9.089844 6.253906 C 9.167969 5.910156 8.871094 5.652344 8.683594 5.585938 L 8.429688 4.472656 C 8.382812 4.257812 8.21875 4.050781 7.847656 3.964844 L 5.992188 3.539062 Z M 5.207031 3.742188 L 6.488281 4.035156 L 7.769531 4.332031 C 7.929688 4.371094 7.976562 4.464844 8 4.585938 L 8.183594 5.460938 L 6.261719 5.019531 L 4.34375 4.578125 L 4.890625 3.871094 C 4.960938 3.769531 5.046875 3.707031 5.207031 3.742188 Z M 5.207031 3.742188 "/>
<path fill-rule="nonzero" fill="rgb(0%, 0%, 0%)" fill-opacity="1" d="M 2.789062 11.824219 L 5.035156 11.824219 C 5.035156 11.824219 5.566406 10.828125 4.800781 10.117188 C 4.105469 9.476562 3.542969 9.257812 3.390625 8.90625 C 3.128906 8.300781 3.632812 7.804688 3.632812 7.804688 C 3.632812 7.804688 2.636719 8.132812 2.5625 8.5 C 2.433594 9.121094 2.769531 9.28125 3.757812 10.40625 C 4.40625 11.140625 2.789062 11.824219 2.789062 11.824219 Z M 2.789062 11.824219 "/>
<path fill-rule="nonzero" fill="rgb(0%, 0%, 0%)" fill-opacity="1" d="M 7.21875 11.820312 L 9.464844 11.820312 C 9.464844 11.820312 9.539062 11.394531 8.773438 10.683594 C 8.078125 10.042969 7.425781 9.789062 7.273438 9.4375 C 7.011719 8.832031 7.605469 8.371094 7.605469 8.371094 C 7.605469 8.371094 6.546875 8.589844 6.390625 9.261719 C 6.246094 9.878906 6.53125 9.96875 7.578125 10.902344 C 8.191406 11.453125 7.21875 11.820312 7.21875 11.820312 Z M 7.21875 11.820312 "/>
</svg>
