<svg width="32" height="32" viewBox="0 0 580 580" fill="none" xmlns="http://www.w3.org/2000/svg">
<g clip-path="url(#clip0)">
<path opacity="0.426087" d="M333.781 140.219C329.794 140.101 325.868 141.221 322.544 143.426C319.22 145.631 316.661 148.812 315.219 152.531C284.687 231.177 253.768 305.704 222.594 384.531L216.406 392.5C216.364 392.552 216.323 392.604 216.281 392.656L216.031 393C215.989 393.042 215.948 393.083 215.906 393.125L145.562 484.844H99.7812C94.6686 484.847 89.7664 486.88 86.1513 490.495C82.5361 494.11 80.5036 499.013 80.5 504.125V529.125C80.5036 534.238 82.5361 539.14 86.1513 542.755C89.7664 546.37 94.6686 548.403 99.7812 548.406H228.688C230.602 551.651 232.743 554.755 235.188 557.594C235.423 557.875 235.256 557.703 235.406 557.875C235.8 558.325 236.254 558.816 236.031 558.563C236.083 558.626 236.135 558.688 236.188 558.75C236.268 558.841 236.297 558.851 236.375 558.938C237.226 559.882 237.948 560.601 238.375 561.031C239.005 561.666 239.785 562.443 240.719 563.281C241.259 563.766 242.042 564.475 243.125 565.344C243.146 565.361 243.48 565.636 243.781 565.875C243.907 565.975 243.946 566.003 244.062 566.094C244.702 566.593 245.289 567.033 245.625 567.281V567.25C253.777 573.275 263.533 577.38 274.094 578.906V578.969C274.547 579.058 275.041 579.104 275.5 579.188C277.359 579.528 279.219 579.844 281.188 580.094C282.379 580.247 283.582 580.289 284.781 580.219C308.415 578.805 327.152 565.802 337.5 548.406H455.156C460.269 548.403 465.171 546.37 468.786 542.755C472.401 539.14 474.434 534.238 474.438 529.125V504.125C474.434 499.013 472.401 494.11 468.786 490.495C465.171 486.88 460.269 484.847 455.156 484.844H402.844L388.75 421.813C388.874 419.609 389 417.403 389.125 415.156C389.127 415.125 389.123 415.094 389.125 415.063L403.875 172.656C404.146 168.113 402.801 163.619 400.079 159.971C397.357 156.322 393.433 153.754 389 152.719L372.656 148.906H372.625L337.625 140.719C336.364 140.424 335.076 140.256 333.781 140.219H333.781Z" fill="#8D8D8D"/>
<path opacity="0.928" d="M333.378 159.434C302.401 239.225 271.108 314.546 239.659 394.152L231.44 404.745L231.378 404.808L143.628 519.214L239.972 519.652C242.828 540.657 251.829 556.093 282.402 559.98C309.477 558.36 323.421 543.666 327.597 519.964L389.878 520.245L369.503 423.37C374.222 337.497 379.502 257.304 384.659 171.456L333.378 159.434Z" fill="#FEFEFE"/>
<path d="M99.9238 516.57H455.305" stroke="black" stroke-width="25"/>
<path d="M316.803 516.401C316.803 525.314 313.262 533.862 306.96 540.164C300.658 546.466 292.11 550.007 283.197 550.007C274.285 550.007 265.737 546.466 259.435 540.164C253.132 533.862 249.592 525.314 249.592 516.401C249.592 507.489 253.132 498.941 259.435 492.639C265.737 486.336 274.285 482.796 283.197 482.796C292.11 482.796 300.658 486.336 306.96 492.639C313.262 498.941 316.803 507.489 316.803 516.401V516.401Z" fill="#FEFEFE" stroke="black" stroke-width="20.5723" stroke-miterlimit="10" stroke-linecap="round" stroke-linejoin="round"/>
<path opacity="0.426087" d="M368.393 167.645L384.764 171.44L369.46 423.261L386.804 504.888L336.363 504.512L325.221 413.219L368.393 167.645Z" fill="black"/>
</g>
<defs>
<clipPath id="clip0">
<path d="M0 0H580V580H0V0Z" fill="white"/>
</clipPath>
</defs>
</svg>
