<?xml version="1.0" encoding="UTF-8"?>
<svg xmlns="http://www.w3.org/2000/svg" xmlns:xlink="http://www.w3.org/1999/xlink" width="64" height="64" viewBox="0 0 64 64">
<path fill-rule="nonzero" fill="rgb(57.647059%, 0%, 57.647059%)" fill-opacity="1" d="M 30.386719 28.472656 C 30.386719 28.902344 30.214844 29.3125 29.902344 29.617188 C 29.589844 29.921875 29.167969 30.09375 28.726562 30.09375 C 28.285156 30.09375 27.863281 29.921875 27.550781 29.617188 C 27.238281 29.3125 27.0625 28.902344 27.0625 28.472656 C 27.0625 28.039062 27.238281 27.628906 27.550781 27.324219 C 27.863281 27.019531 28.285156 26.851562 28.726562 26.851562 C 29.167969 26.851562 29.589844 27.019531 29.902344 27.324219 C 30.214844 27.628906 30.386719 28.039062 30.386719 28.472656 Z M 30.386719 28.472656 "/>
<path fill-rule="nonzero" fill="rgb(57.647059%, 0%, 57.647059%)" fill-opacity="1" d="M 25.179688 28.550781 C 25.183594 28.167969 24.878906 27.855469 24.496094 27.847656 C 24.117188 27.84375 23.800781 28.148438 23.796875 28.53125 L 23.699219 36.242188 C 23.695312 36.621094 24 36.933594 24.378906 36.941406 C 24.761719 36.945312 25.074219 36.640625 25.078125 36.257812 L 25.109375 34.078125 L 38.855469 34.167969 L 38.820312 35.9375 C 38.8125 36.320312 39.117188 36.636719 39.5 36.644531 C 39.878906 36.652344 40.195312 36.347656 40.203125 35.964844 L 40.300781 30.925781 C 40.308594 30.542969 40.003906 30.230469 39.625 30.222656 C 39.242188 30.214844 38.925781 30.515625 38.921875 30.898438 L 38.882812 32.789062 L 25.125 32.695312 Z M 25.179688 28.550781 "/>
<path fill-rule="nonzero" fill="rgb(57.647059%, 0%, 57.647059%)" fill-opacity="1" d="M 31.734375 29.667969 L 37.261719 29.667969 C 38.019531 29.667969 38.632812 30.28125 38.632812 31.035156 C 38.632812 31.792969 38.019531 32.40625 37.261719 32.40625 L 31.734375 32.40625 C 30.976562 32.40625 30.363281 31.792969 30.363281 31.035156 C 30.363281 30.28125 30.976562 29.667969 31.734375 29.667969 Z M 31.734375 29.667969 "/>
<path fill-rule="nonzero" fill="rgb(57.647059%, 0%, 57.647059%)" fill-opacity="1" d="M 26.492188 30.613281 C 26.042969 30.613281 25.679688 30.976562 25.679688 31.425781 C 25.679688 31.875 26.042969 32.242188 26.492188 32.242188 L 29.261719 32.242188 C 29.710938 32.242188 30.074219 31.875 30.074219 31.425781 C 30.074219 30.976562 29.710938 30.613281 29.261719 30.613281 Z M 26.492188 30.613281 "/>
</svg>
