<?xml version="1.0" encoding="UTF-8"?>
<svg xmlns="http://www.w3.org/2000/svg" xmlns:xlink="http://www.w3.org/1999/xlink" width="32" height="32" viewBox="0 0 32 32">
<path fill-rule="evenodd" fill="rgb(99.607843%, 99.607843%, 99.607843%)" fill-opacity="1" d="M 8 8.25 C 7.535156 8.25 7.089844 8.433594 6.761719 8.761719 C 6.433594 9.089844 6.25 9.535156 6.25 10 L 6.25 22 C 6.25 22.464844 6.433594 22.910156 6.761719 23.238281 C 7.089844 23.566406 7.535156 23.75 8 23.75 L 24 23.75 C 24.464844 23.75 24.910156 23.566406 25.238281 23.238281 C 25.566406 22.910156 25.75 22.464844 25.75 22 L 25.75 10 C 25.75 9.535156 25.566406 9.089844 25.238281 8.761719 C 24.910156 8.433594 24.464844 8.25 24 8.25 Z M 8 8.25 "/>
<path fill-rule="nonzero" fill="rgb(24.313725%, 47.058824%, 85.490196%)" fill-opacity="1" d="M 24 10 L 8 10 L 8 14 L 24 14 Z M 24 10 "/>
<path fill-rule="nonzero" fill="rgb(96.862745%, 80.392157%, 18.823529%)" fill-opacity="1" d="M 24 14 L 8 14 L 8 18 L 24 18 Z M 24 14 "/>
<path fill-rule="nonzero" fill="rgb(91.764706%, 49.019608%, 3.529412%)" fill-opacity="1" d="M 24 18 L 8 18 L 8 22 L 24 22 Z M 24 18 "/>
</svg>
