<?xml version="1.0" encoding="UTF-8"?>
<svg xmlns="http://www.w3.org/2000/svg" xmlns:xlink="http://www.w3.org/1999/xlink" width="12" height="12" viewBox="0 0 12 12" version="1.1">
<g id="surface1">
<path style=" stroke:none;fill-rule:nonzero;fill:rgb(57.647061%,0%,57.647061%);fill-opacity:1;" d="M 5.660156 3.335938 C 5.152344 3.335938 4.734375 3.75 4.734375 4.261719 C 4.734375 4.601562 4.921875 4.898438 5.199219 5.058594 L 5.199219 5.648438 L 4.503906 5.648438 L 4.503906 6.109375 L 5.199219 6.109375 L 5.199219 8.195312 C 4.636719 8.15625 4.019531 7.425781 3.722656 6.742188 C 3.957031 6.753906 4.183594 6.738281 4.183594 6.738281 C 4.183594 6.738281 3.738281 6.0625 3.109375 5.890625 C 2.714844 6.226562 2.652344 7.191406 2.652344 7.191406 C 2.652344 7.191406 2.800781 7.117188 2.980469 6.980469 C 3.28125 7.847656 4.070312 8.59375 5.023438 8.804688 C 5.429688 8.894531 5.660156 9.347656 5.660156 9.347656 C 5.660156 9.347656 5.890625 8.894531 6.296875 8.804688 C 7.246094 8.597656 8.03125 7.855469 8.335938 6.992188 C 8.519531 7.132812 8.667969 7.191406 8.667969 7.191406 C 8.667969 6.914062 8.636719 6.351562 8.234375 5.878906 C 7.605469 6.050781 7.136719 6.738281 7.136719 6.738281 C 7.136719 6.738281 7.363281 6.753906 7.597656 6.742188 C 7.300781 7.425781 6.683594 8.15625 6.121094 8.195312 L 6.121094 6.109375 L 6.816406 6.109375 L 6.816406 5.648438 L 6.121094 5.648438 L 6.121094 5.058594 C 6.398438 4.898438 6.585938 4.601562 6.585938 4.261719 C 6.585938 3.75 6.167969 3.335938 5.660156 3.335938 Z M 5.660156 3.796875 C 5.917969 3.796875 6.121094 4 6.121094 4.261719 C 6.121094 4.519531 5.917969 4.722656 5.660156 4.722656 C 5.402344 4.722656 5.199219 4.519531 5.199219 4.261719 C 5.199219 4 5.402344 3.796875 5.660156 3.796875 Z M 5.660156 3.796875 "/>
<path style=" stroke:none;fill-rule:nonzero;fill:rgb(57.647061%,0%,57.647061%);fill-opacity:1;" d="M 8.820312 2.5 C 8.542969 3.21875 8.527344 4.011719 8.648438 4.839844 C 8.847656 4.335938 9.320312 4.414062 9.730469 4.613281 C 9.640625 4.539062 8.996094 3.855469 8.820312 2.5 Z M 8.773438 2.617188 C 6.757812 2.828125 7.433594 4.617188 7.679688 4.707031 C 7.519531 4.253906 8.023438 4.089844 8.476562 4.550781 C 8.476562 4.550781 8.082031 3.148438 8.773438 2.617188 Z M 7.128906 4.671875 C 7.390625 5.414062 8.199219 5.339844 8.417969 5.339844 C 8.902344 5.339844 9.710938 5.21875 9.921875 4.988281 Z M 7.128906 4.671875 "/>
</g>
</svg>
