<?xml version="1.0" encoding="UTF-8"?>
<svg xmlns="http://www.w3.org/2000/svg" xmlns:xlink="http://www.w3.org/1999/xlink" width="24" height="24" viewBox="0 0 24 24">
<path fill-rule="nonzero" fill="rgb(99.607843%, 99.607843%, 99.607843%)" fill-opacity="1" d="M 10.1875 6.433594 C 10.070312 6.433594 9.953125 6.453125 9.84375 6.488281 L 9.585938 6.578125 C 9.503906 6.605469 9.429688 6.640625 9.355469 6.6875 L 9.113281 6.84375 C 9.050781 6.886719 8.988281 6.933594 8.933594 6.988281 L 8.710938 7.214844 L 7.453125 8.457031 L 7.445312 8.46875 L 6.425781 9.503906 C 6.382812 9.511719 6.34375 9.523438 6.300781 9.539062 L 5.1875 9.539062 C 4.90625 9.539062 4.632812 9.652344 4.433594 9.851562 L 1.777344 12.539062 C 1.113281 13.207031 1.589844 14.347656 2.53125 14.347656 L 5.617188 14.347656 L 6.144531 15.554688 C 6.3125 15.941406 6.695312 16.191406 7.117188 16.191406 L 7.152344 16.191406 L 7.46875 16.929688 C 7.640625 17.316406 8.019531 17.566406 8.441406 17.566406 L 13.527344 17.566406 C 13.574219 17.566406 13.621094 17.5625 13.667969 17.558594 L 13.777344 17.542969 C 13.789062 17.539062 13.796875 17.539062 13.808594 17.535156 L 13.769531 17.535156 C 13.789062 17.535156 13.808594 17.535156 13.824219 17.535156 C 13.84375 17.53125 13.863281 17.527344 13.882812 17.523438 L 13.847656 17.535156 C 13.910156 17.53125 13.972656 17.519531 14.03125 17.503906 L 14.148438 17.476562 C 14.164062 17.472656 14.179688 17.464844 14.195312 17.460938 L 14.335938 17.417969 C 14.425781 17.390625 14.507812 17.351562 14.582031 17.304688 L 14.699219 17.234375 C 14.707031 17.230469 14.714844 17.222656 14.722656 17.21875 L 14.851562 17.132812 C 14.898438 17.105469 14.941406 17.070312 14.980469 17.035156 L 15.09375 16.933594 L 15.097656 16.929688 C 15.15625 16.890625 15.210938 16.847656 15.261719 16.796875 L 16.53125 15.542969 L 16.542969 15.53125 L 17.621094 14.433594 L 18.8125 14.433594 C 19.09375 14.433594 19.363281 14.324219 19.5625 14.125 L 22.21875 11.464844 C 22.886719 10.796875 22.414062 9.652344 21.46875 9.652344 L 18.378906 9.652344 L 17.824219 8.410156 C 17.652344 8.023438 17.273438 7.777344 16.855469 7.777344 L 16.847656 7.777344 L 16.503906 7.042969 C 16.328125 6.671875 15.953125 6.433594 15.542969 6.433594 Z M 10.1875 6.433594 "/>
<path fill-rule="evenodd" fill="rgb(17.254902%, 35.686275%, 63.921569%)" fill-opacity="1" d="M 10.1875 7.492188 L 9.929688 7.582031 L 9.6875 7.738281 L 9.457031 7.964844 L 8.199219 9.210938 L 7.085938 10.339844 L 6.917969 10.457031 L 6.746094 10.539062 L 6.644531 10.539062 L 6.644531 10.554688 L 6.558594 10.585938 L 6.359375 10.601562 L 5.1875 10.601562 L 2.53125 13.285156 L 8.503906 13.285156 L 8.558594 13.273438 L 8.632812 13.273438 L 8.773438 13.257812 L 8.898438 13.230469 L 9.042969 13.203125 L 9.273438 13.058594 L 9.371094 12.972656 L 9.488281 12.886719 L 10.699219 11.671875 L 11.886719 10.484375 L 12.042969 10.3125 L 12.242188 10.210938 L 12.441406 10.152344 L 17.441406 10.152344 L 16.855469 8.839844 L 12.371094 8.839844 L 12.128906 8.925781 L 11.902344 9.054688 L 11.714844 9.253906 L 10.660156 10.3125 L 10.472656 10.441406 L 10.300781 10.527344 L 10.128906 10.570312 L 9.203125 10.570312 L 10.128906 9.636719 L 11.214844 8.554688 L 11.34375 8.425781 L 11.5 8.335938 L 11.671875 8.28125 L 15.910156 8.28125 L 15.542969 7.492188 Z M 15.183594 10.714844 L 14.925781 10.785156 L 14.683594 10.898438 L 14.484375 11.101562 L 12.085938 13.5 L 12 13.542969 L 11.984375 13.574219 L 11.898438 13.644531 L 11.730469 13.746094 L 11.527344 13.800781 L 11.328125 13.816406 L 6.542969 13.816406 L 7.117188 15.132812 L 11.359375 15.132812 L 11.585938 15.101562 L 11.699219 15.074219 L 11.828125 15.046875 L 12.058594 14.902344 L 12.171875 14.820312 L 12.300781 14.730469 L 13.3125 13.671875 L 13.484375 13.527344 L 13.570312 13.472656 L 13.671875 13.445312 L 13.84375 13.386719 L 14.011719 13.398438 L 14.785156 13.398438 L 13.859375 14.347656 L 12.785156 15.429688 L 12.699219 15.472656 L 12.628906 15.535156 L 12.542969 15.574219 L 12.5 15.574219 L 12.5 15.589844 L 12.472656 15.617188 L 12.371094 15.617188 L 12.371094 15.632812 L 12.289062 15.664062 L 12.085938 15.6875 L 8.089844 15.6875 L 8.445312 16.507812 L 13.527344 16.507812 L 13.640625 16.492188 L 13.699219 16.476562 L 13.769531 16.476562 L 13.882812 16.445312 L 14.027344 16.402344 L 14.140625 16.332031 L 14.269531 16.246094 L 14.386719 16.144531 L 14.445312 16.089844 L 14.46875 16.058594 L 14.46875 16.046875 L 14.515625 16.046875 L 15.785156 14.789062 L 16.882812 13.671875 L 17.042969 13.515625 L 17.210938 13.414062 L 17.398438 13.359375 L 17.613281 13.375 L 18.8125 13.375 L 21.46875 10.714844 Z M 15.183594 10.714844 "/>
</svg>
