<?xml version="1.0" encoding="UTF-8"?>
<svg xmlns="http://www.w3.org/2000/svg" xmlns:xlink="http://www.w3.org/1999/xlink" width="64" height="64" viewBox="0 0 64 64">
<defs>
<filter id="filter-remove-color" x="0%" y="0%" width="100%" height="100%">
<feColorMatrix color-interpolation-filters="sRGB" values="0 0 0 0 1 0 0 0 0 1 0 0 0 0 1 0 0 0 1 0" />
</filter>
<mask id="mask-0">
<g filter="url(#filter-remove-color)">
<rect x="-6.4" y="-6.4" width="76.8" height="76.8" fill="rgb(0%, 0%, 0%)" fill-opacity="0.873134"/>
</g>
</mask>
<clipPath id="clip-0">
<path clip-rule="nonzero" d="M 0 15 L 40 15 L 40 26 L 0 26 Z M 0 15 "/>
</clipPath>
<clipPath id="clip-1">
<rect x="0" y="0" width="64" height="64"/>
</clipPath>
<g id="source-7" clip-path="url(#clip-1)">
<g clip-path="url(#clip-0)">
<path fill-rule="nonzero" fill="rgb(67.45098%, 84.705882%, 95.294118%)" fill-opacity="1" d="M 35.105469 15.351562 C 33.710938 15.351562 32.324219 15.792969 31.3125 16.726562 C 31.164062 16.550781 31 16.390625 30.8125 16.257812 C 30.8125 16.253906 30.808594 16.253906 30.808594 16.253906 C 29.886719 15.589844 28.890625 15.46875 27.839844 15.46875 L 25.34375 15.46875 C 24.851562 15.46875 24.378906 15.652344 24.019531 15.988281 C 23.660156 16.320312 23.441406 16.777344 23.402344 17.265625 C 22.8125 17.042969 22.179688 16.9375 21.558594 16.9375 C 20.902344 16.9375 20.234375 17.054688 19.613281 17.304688 C 19.363281 17.132812 19.074219 17.023438 18.773438 16.988281 C 18.671875 16.972656 18.570312 16.964844 18.457031 16.957031 L 18.457031 16.953125 C 18.433594 16.949219 18.417969 16.953125 18.394531 16.949219 C 18.382812 16.949219 18.378906 16.949219 18.363281 16.945312 L 18.363281 16.949219 C 18.273438 16.941406 18.179688 16.9375 18.105469 16.9375 C 17.734375 16.9375 17.347656 16.992188 16.96875 17.105469 C 16.820312 17.070312 16.671875 17.050781 16.523438 17.050781 L 15 17.050781 C 14.523438 17.050781 14.066406 17.226562 13.710938 17.546875 C 13 17.140625 12.179688 16.9375 11.390625 16.9375 C 10.289062 16.9375 9.148438 17.265625 8.285156 17.996094 L 7.820312 16.738281 C 7.679688 16.363281 7.433594 16.042969 7.105469 15.816406 C 6.78125 15.589844 6.390625 15.46875 5.996094 15.46875 L 4.046875 15.46875 C 3.648438 15.46875 3.261719 15.589844 2.933594 15.816406 C 2.609375 16.042969 2.359375 16.363281 2.222656 16.738281 L -0.125 23.074219 C -0.234375 23.371094 -0.269531 23.6875 -0.230469 23.996094 C -0.191406 24.308594 -0.078125 24.605469 0.101562 24.863281 C 0.28125 25.121094 0.519531 25.328125 0.796875 25.476562 C 1.074219 25.621094 1.382812 25.695312 1.699219 25.695312 L 3.339844 25.695312 C 3.679688 25.695312 4.011719 25.605469 4.304688 25.4375 C 4.601562 25.269531 4.847656 25.023438 5.015625 24.730469 C 5.1875 25.027344 5.433594 25.269531 5.730469 25.4375 C 6.023438 25.609375 6.359375 25.695312 6.699219 25.695312 L 8.339844 25.695312 C 8.695312 25.695312 9.046875 25.597656 9.347656 25.414062 C 10.015625 25.695312 10.75 25.820312 11.472656 25.820312 C 11.960938 25.820312 12.445312 25.769531 12.914062 25.679688 C 12.917969 25.679688 12.925781 25.679688 12.929688 25.675781 C 13.28125 25.609375 13.625 25.511719 13.96875 25.398438 C 14.277344 25.59375 14.636719 25.695312 15 25.695312 L 16.523438 25.695312 C 16.886719 25.695312 17.246094 25.59375 17.554688 25.398438 C 17.863281 25.207031 18.113281 24.929688 18.273438 24.601562 C 18.277344 24.605469 18.28125 24.613281 18.289062 24.617188 C 18.289062 24.621094 18.292969 24.621094 18.292969 24.621094 C 19.171875 25.457031 20.390625 25.820312 21.558594 25.820312 C 22.410156 25.820312 23.289062 25.625 24.042969 25.195312 C 24.398438 25.515625 24.863281 25.695312 25.34375 25.695312 L 26.976562 25.695312 C 27.402344 25.695312 27.8125 25.554688 28.152344 25.296875 C 28.488281 25.554688 28.902344 25.695312 29.328125 25.695312 L 31.066406 25.695312 C 31.550781 25.695312 32.019531 25.515625 32.375 25.1875 C 33.207031 25.613281 34.152344 25.820312 35.105469 25.820312 C 35.601562 25.820312 36.101562 25.765625 36.582031 25.648438 C 37.0625 25.53125 37.523438 25.355469 37.957031 25.128906 C 38.273438 24.964844 38.539062 24.71875 38.722656 24.414062 C 38.90625 24.109375 39.003906 23.761719 39.003906 23.402344 L 39.003906 22.09375 C 39.003906 21.804688 38.941406 21.519531 38.816406 21.257812 C 38.695312 21 38.515625 20.769531 38.292969 20.585938 C 38.515625 20.402344 38.695312 20.175781 38.816406 19.914062 C 38.941406 19.652344 39.003906 19.371094 39.003906 19.082031 L 39.003906 17.769531 C 39.003906 17.414062 38.90625 17.0625 38.722656 16.761719 C 38.539062 16.457031 38.273438 16.207031 37.957031 16.042969 C 37.523438 15.820312 37.0625 15.644531 36.582031 15.527344 C 36.101562 15.410156 35.601562 15.351562 35.105469 15.351562 Z M 26.976562 18.730469 L 26.976562 20.082031 C 26.734375 19.773438 26.679688 19.441406 26.679688 19.402344 C 26.679688 19.371094 26.730469 19.042969 26.976562 18.730469 Z M 35.316406 20.441406 C 35.402344 20.445312 35.484375 20.453125 35.558594 20.476562 C 35.621094 20.496094 35.703125 20.535156 35.792969 20.585938 C 35.703125 20.636719 35.621094 20.675781 35.558594 20.695312 C 35.484375 20.71875 35.402344 20.726562 35.316406 20.734375 C 35.3125 20.691406 35.304688 20.679688 35.304688 20.589844 C 35.304688 20.496094 35.308594 20.484375 35.316406 20.441406 Z M 21.558594 20.84375 C 21.691406 20.84375 22.1875 21.042969 22.351562 21.269531 L 22.210938 21.371094 L 21.558594 20.898438 L 22.210938 21.375 L 22.203125 21.378906 L 21.558594 21.855469 L 21.550781 21.863281 L 20.886719 21.378906 L 20.75 21.277344 C 20.902344 21.070312 21.316406 20.890625 21.5 20.855469 C 21.503906 20.855469 21.503906 20.855469 21.503906 20.855469 C 21.519531 20.855469 21.546875 20.84375 21.558594 20.84375 Z M 10.351562 20.859375 L 11.382812 21.011719 L 11.917969 21.089844 C 12.015625 21.171875 12.085938 21.277344 12.136719 21.371094 C 12.09375 21.441406 12.042969 21.519531 11.964844 21.589844 C 11.949219 21.605469 11.925781 21.613281 11.910156 21.628906 L 11.382812 21.683594 L 10.980469 21.722656 C 10.851562 21.667969 10.722656 21.589844 10.632812 21.5 C 10.441406 21.292969 10.351562 20.953125 10.351562 20.859375 Z M 20.742188 21.289062 L 20.867188 21.378906 L 21.542969 21.867188 L 21.5 21.902344 C 21.3125 21.867188 20.902344 21.683594 20.746094 21.476562 C 20.710938 21.425781 20.710938 21.414062 20.691406 21.378906 C 20.710938 21.347656 20.707031 21.335938 20.742188 21.289062 Z M 22.367188 21.289062 C 22.402344 21.335938 22.398438 21.347656 22.417969 21.378906 C 22.398438 21.414062 22.402344 21.425781 22.359375 21.480469 L 22.230469 21.386719 L 22.242188 21.378906 Z M 22.230469 21.390625 L 22.359375 21.484375 C 22.203125 21.695312 21.773438 21.875 21.605469 21.902344 L 21.558594 21.871094 Z M 21.554688 21.875 C 21.574219 21.886719 21.617188 21.917969 21.597656 21.90625 C 21.585938 21.90625 21.566406 21.914062 21.558594 21.914062 C 21.550781 21.914062 21.527344 21.90625 21.511719 21.902344 Z M 21.554688 21.875 "/>
</g>
</g>
</defs>
<g mask="url(#mask-0)">
<use xlink:href="#source-7"/>
</g>
<path fill-rule="nonzero" fill="rgb(0%, 0%, 0%)" fill-opacity="1" d="M 35.105469 17.296875 C 34.046875 17.296875 33.210938 17.59375 32.59375 18.1875 C 31.976562 18.777344 31.667969 19.574219 31.667969 20.589844 C 31.667969 21.597656 31.976562 22.402344 32.59375 22.992188 C 33.210938 23.582031 34.046875 23.875 35.105469 23.875 C 35.457031 23.875 35.796875 23.835938 36.121094 23.757812 C 36.449219 23.675781 36.761719 23.558594 37.058594 23.402344 L 37.058594 22.09375 C 36.757812 22.300781 36.457031 22.449219 36.164062 22.546875 C 35.871094 22.640625 35.5625 22.691406 35.234375 22.691406 C 34.652344 22.691406 34.195312 22.503906 33.859375 22.128906 C 33.527344 21.757812 33.359375 21.242188 33.359375 20.589844 C 33.359375 19.933594 33.527344 19.417969 33.859375 19.042969 C 34.195312 18.667969 34.652344 18.484375 35.234375 18.484375 C 35.5625 18.484375 35.871094 18.53125 36.164062 18.628906 C 36.457031 18.722656 36.757812 18.875 37.058594 19.082031 L 37.058594 17.769531 C 36.761719 17.613281 36.449219 17.496094 36.121094 17.417969 C 35.796875 17.335938 35.457031 17.296875 35.105469 17.296875 Z M 4.046875 17.414062 L 1.699219 23.75 L 3.339844 23.75 L 3.742188 22.597656 L 6.300781 22.597656 L 6.699219 23.75 L 8.339844 23.75 L 5.996094 17.414062 Z M 25.34375 17.414062 L 25.34375 23.75 L 26.976562 23.75 L 26.976562 21.351562 L 27.441406 21.351562 C 27.707031 21.351562 27.917969 21.410156 28.078125 21.527344 C 28.238281 21.640625 28.398438 21.859375 28.554688 22.175781 L 29.328125 23.75 L 31.066406 23.75 L 30.179688 21.949219 C 30 21.585938 29.816406 21.3125 29.640625 21.136719 C 29.464844 20.953125 29.265625 20.839844 29.042969 20.789062 C 29.449219 20.660156 29.753906 20.464844 29.953125 20.195312 C 30.160156 19.925781 30.261719 19.582031 30.261719 19.164062 C 30.261719 18.554688 30.0625 18.113281 29.671875 17.832031 C 29.285156 17.554688 28.675781 17.414062 27.839844 17.414062 Z M 26.976562 18.597656 L 27.667969 18.597656 C 28.007812 18.597656 28.253906 18.660156 28.398438 18.785156 C 28.550781 18.910156 28.625 19.113281 28.625 19.402344 C 28.625 19.695312 28.550781 19.90625 28.398438 20.03125 C 28.253906 20.160156 28.007812 20.222656 27.667969 20.222656 L 26.976562 20.222656 Z M 11.390625 18.882812 C 10.566406 18.882812 9.921875 19.105469 9.453125 19.550781 C 8.984375 19.992188 8.753906 20.605469 8.753906 21.378906 C 8.753906 22.167969 8.992188 22.78125 9.464844 23.222656 C 9.945312 23.65625 10.613281 23.875 11.472656 23.875 C 11.832031 23.875 12.195312 23.839844 12.554688 23.769531 C 12.914062 23.699219 13.269531 23.597656 13.628906 23.460938 L 13.628906 22.289062 C 13.277344 22.484375 12.929688 22.628906 12.59375 22.722656 C 12.261719 22.816406 11.933594 22.863281 11.613281 22.863281 C 11.21875 22.863281 10.910156 22.773438 10.6875 22.597656 C 10.46875 22.417969 10.339844 22.152344 10.300781 21.792969 L 13.855469 21.792969 L 13.855469 21.363281 C 13.855469 20.609375 13.632812 20.007812 13.179688 19.554688 C 12.734375 19.105469 12.136719 18.882812 11.390625 18.882812 Z M 18.105469 18.882812 C 17.75 18.882812 17.445312 18.953125 17.191406 19.097656 C 16.941406 19.238281 16.71875 19.464844 16.523438 19.777344 L 16.523438 18.996094 L 15 18.996094 L 15 23.75 L 16.523438 23.75 L 16.523438 21.558594 C 16.523438 21.09375 16.625 20.734375 16.835938 20.488281 C 17.046875 20.234375 17.347656 20.109375 17.738281 20.109375 C 17.871094 20.109375 18.003906 20.125 18.136719 20.15625 C 18.269531 20.183594 18.402344 20.230469 18.535156 20.292969 L 18.53125 18.917969 C 18.417969 18.902344 18.332031 18.894531 18.273438 18.890625 C 18.210938 18.886719 18.15625 18.882812 18.105469 18.882812 Z M 21.558594 18.882812 C 20.738281 18.882812 20.097656 19.105469 19.632812 19.546875 C 19.171875 19.988281 18.941406 20.597656 18.941406 21.378906 C 18.941406 22.160156 19.171875 22.773438 19.632812 23.214844 C 20.097656 23.65625 20.738281 23.875 21.558594 23.875 C 22.378906 23.875 23.015625 23.65625 23.476562 23.214844 C 23.9375 22.773438 24.167969 22.160156 24.167969 21.378906 C 24.167969 20.597656 23.9375 19.988281 23.476562 19.546875 C 23.015625 19.105469 22.378906 18.882812 21.558594 18.882812 Z M 5.019531 18.898438 L 5.886719 21.421875 L 4.152344 21.421875 Z M 11.382812 19.890625 C 11.652344 19.890625 11.871094 19.980469 12.039062 20.160156 C 12.210938 20.335938 12.292969 20.566406 12.292969 20.855469 L 10.320312 20.855469 C 10.363281 20.546875 10.480469 20.308594 10.664062 20.144531 C 10.847656 19.976562 11.085938 19.890625 11.382812 19.890625 Z M 21.558594 19.96875 C 21.890625 19.96875 22.144531 20.089844 22.320312 20.332031 C 22.496094 20.574219 22.585938 20.921875 22.585938 21.378906 C 22.585938 21.835938 22.496094 22.183594 22.320312 22.425781 C 22.144531 22.667969 21.890625 22.789062 21.558594 22.789062 C 21.222656 22.789062 20.96875 22.667969 20.789062 22.425781 C 20.613281 22.183594 20.523438 21.835938 20.523438 21.378906 C 20.523438 20.921875 20.613281 20.574219 20.789062 20.332031 C 20.96875 20.089844 21.222656 19.96875 21.558594 19.96875 Z M 21.558594 19.96875 "/>
</svg>
