<?xml version="1.0" encoding="UTF-8"?>
<svg xmlns="http://www.w3.org/2000/svg" xmlns:xlink="http://www.w3.org/1999/xlink" width="12" height="12" viewBox="0 0 12 12" version="1.1">
<g id="surface1">
<path style=" stroke:none;fill-rule:nonzero;fill:rgb(57.647061%,0%,57.647061%);fill-opacity:1;" d="M 5.21875 5.175781 C 5.371094 5.175781 5.492188 5.050781 5.492188 4.902344 C 5.492188 4.75 5.371094 4.625 5.21875 4.625 C 5.066406 4.625 4.945312 4.75 4.945312 4.902344 C 4.945312 5.050781 5.066406 5.175781 5.21875 5.175781 Z M 5.21875 5.175781 "/>
<path style=" stroke:none;fill-rule:nonzero;fill:rgb(57.647061%,0%,57.647061%);fill-opacity:1;" d="M 5.492188 5.394531 L 4.945312 5.394531 L 4.945312 6.492188 L 5.492188 6.492188 Z M 5.492188 5.394531 "/>
<path style="fill:none;stroke-width:19.8444;stroke-linecap:butt;stroke-linejoin:miter;stroke:rgb(57.647061%,0%,57.647061%);stroke-opacity:1;stroke-miterlimit:4;" d="M 427.174479 564.505208 L 427.174479 495.494792 C 427.174479 484.453125 436.145833 475.826823 446.497396 475.826823 L 475.481771 475.826823 C 486.178385 475.826823 494.804688 484.453125 494.804688 495.494792 L 494.804688 564.505208 " transform="matrix(0.0113208,0,0,0.0113208,0,0)"/>
<path style="fill:none;stroke-width:20.089001;stroke-linecap:butt;stroke-linejoin:miter;stroke:rgb(57.647061%,0%,57.647061%);stroke-opacity:1;stroke-miterlimit:4;" d="M 446.497396 641.106771 L 446.497396 554.153646 " transform="matrix(0.0113208,0,0,0.0113208,0,0)"/>
<path style="fill:none;stroke-width:20.089001;stroke-linecap:butt;stroke-linejoin:miter;stroke:rgb(57.647061%,0%,57.647061%);stroke-opacity:1;stroke-miterlimit:4;" d="M 475.481771 641.106771 L 475.481771 554.153646 " transform="matrix(0.0113208,0,0,0.0113208,0,0)"/>
<path style=" stroke:none;fill-rule:nonzero;fill:rgb(57.647061%,0%,57.647061%);fill-opacity:1;" d="M 6.644531 5.175781 C 6.796875 5.175781 6.917969 5.050781 6.917969 4.902344 C 6.917969 4.75 6.796875 4.625 6.644531 4.625 C 6.492188 4.625 6.371094 4.75 6.371094 4.902344 C 6.371094 5.050781 6.492188 5.175781 6.644531 5.175781 Z M 6.644531 5.175781 "/>
<path style=" stroke:none;fill-rule:nonzero;fill:rgb(57.647061%,0%,57.647061%);fill-opacity:1;" d="M 6.152344 6.601562 L 6.4375 5.394531 L 6.855469 5.394531 L 7.140625 6.601562 Z M 6.152344 6.601562 "/>
<path style="fill:none;stroke-width:17.9202;stroke-linecap:butt;stroke-linejoin:miter;stroke:rgb(57.647061%,0%,57.647061%);stroke-opacity:1;stroke-miterlimit:4;" d="M 530.690104 564.85026 L 557.259115 488.248698 C 560.364583 480.3125 567.610677 475.481771 575.546875 475.481771 L 598.320313 475.481771 C 606.601563 475.481771 614.882813 480.3125 616.953125 488.248698 L 643.522135 564.85026 " transform="matrix(0.0113208,0,0,0.0113208,0,0)"/>
<path style="fill:none;stroke-width:20.089001;stroke-linecap:butt;stroke-linejoin:miter;stroke:rgb(57.647061%,0%,57.647061%);stroke-opacity:1;stroke-miterlimit:4;" d="M 572.441406 641.106771 L 572.441406 554.153646 " transform="matrix(0.0113208,0,0,0.0113208,0,0)"/>
<path style="fill:none;stroke-width:20.089001;stroke-linecap:butt;stroke-linejoin:miter;stroke:rgb(57.647061%,0%,57.647061%);stroke-opacity:1;stroke-miterlimit:4;" d="M 601.425781 641.106771 L 601.425781 554.153646 " transform="matrix(0.0113208,0,0,0.0113208,0,0)"/>
</g>
</svg>
