<?xml version="1.0" encoding="UTF-8"?>
<svg xmlns="http://www.w3.org/2000/svg" xmlns:xlink="http://www.w3.org/1999/xlink" width="12" height="12" viewBox="0 0 12 12" version="1.1">
<defs>
<filter id="alpha" filterUnits="objectBoundingBox" x="0%" y="0%" width="100%" height="100%">
  <feColorMatrix type="matrix" in="SourceGraphic" values="0 0 0 0 1 0 0 0 0 1 0 0 0 0 1 0 0 0 1 0"/>
</filter>
<mask id="mask0">
  <g filter="url(#alpha)">
<rect x="0" y="0" width="12" height="12" style="fill:rgb(0%,0%,0%);fill-opacity:0.426087;stroke:none;"/>
  </g>
</mask>
<clipPath id="clip1">
  <rect x="0" y="0" width="12" height="12"/>
</clipPath>
<g id="surface5" clip-path="url(#clip1)">
<path style=" stroke:none;fill-rule:nonzero;fill:rgb(67.450982%,84.705883%,95.294118%);fill-opacity:1;" d="M 4.371094 0.03125 L 4.371094 0.0390625 C 4.363281 0.0351562 4.359375 0.03125 4.371094 0.03125 C 4.394531 0.03125 4.101562 0.0625 4.136719 0.0546875 C 4.128906 0.0585938 4.125 0.0585938 4.121094 0.0585938 C 4.195312 0.0429688 3.648438 0.304688 3.582031 0.320312 C 3.554688 0.371094 3.253906 0.746094 3.207031 0.785156 C 3.207031 0.84375 3.097656 1.3125 3.074219 1.363281 C 3.09375 1.414062 3.175781 1.777344 3.195312 1.90625 L 3.179688 1.910156 L 3.867188 3.527344 C 3.839844 3.460938 4.183594 3.9375 4.207031 3.996094 C 4.230469 4.003906 4.316406 4.046875 4.40625 4.101562 L 3.941406 4.546875 C 3.824219 4.660156 3.738281 4.800781 3.691406 4.953125 C 3.640625 5.023438 3.605469 5.082031 3.613281 5.0625 C 3.636719 5 3.519531 5.6875 3.515625 5.636719 L 3.554688 6.636719 L 2.378906 7.226562 C 2.371094 7.230469 2.363281 7.234375 2.359375 7.238281 C 2.410156 7.210938 1.890625 7.632812 1.929688 7.589844 C 1.953125 7.558594 1.847656 7.753906 1.761719 7.90625 L 1.628906 7.886719 L 1.609375 7.882812 L 1.609375 7.886719 C 1.59375 7.886719 1.332031 7.867188 1.363281 7.867188 C 1.425781 7.867188 0.808594 8 0.875 7.972656 C 0.941406 7.945312 0.410156 8.296875 0.460938 8.246094 C 0.511719 8.195312 0.144531 8.71875 0.171875 8.652344 C 0.203125 8.589844 0.0507812 9.207031 0.0546875 9.136719 C 0.0585938 9.066406 0.140625 9.699219 0.117188 9.632812 C 0.0976562 9.5625 0.40625 10.121094 0.359375 10.066406 C 0.34375 10.046875 0.398438 10.089844 0.46875 10.144531 C 0.375 10.296875 0.328125 10.472656 0.332031 10.648438 C 0.332031 10.828125 0.386719 11 0.480469 11.152344 C 0.574219 11.300781 0.710938 11.421875 0.871094 11.5 C 1.03125 11.578125 1.207031 11.609375 1.386719 11.589844 C 1.386719 11.589844 1.808594 11.550781 2.308594 11.417969 C 2.679688 11.316406 3.117188 11.195312 3.535156 10.902344 L 10.355469 11.960938 L 10.378906 11.964844 L 10.378906 11.957031 C 10.429688 11.945312 10.953125 11.933594 10.886719 11.949219 C 10.8125 11.96875 11.433594 11.691406 11.375 11.734375 C 11.3125 11.777344 11.777344 11.28125 11.738281 11.34375 C 11.695312 11.410156 11.933594 10.769531 11.921875 10.847656 C 11.910156 10.921875 11.878906 10.242188 11.898438 10.316406 C 11.914062 10.390625 11.621094 9.773438 11.667969 9.835938 C 11.714844 9.894531 11.207031 9.441406 11.269531 9.480469 C 11.332031 9.515625 10.828125 9.34375 10.789062 9.320312 L 10.789062 9.3125 L 10.769531 9.308594 L 8.375 8.9375 L 8.703125 7.628906 C 8.703125 7.625 8.707031 7.621094 8.707031 7.617188 C 8.6875 7.699219 8.628906 6.847656 8.644531 6.773438 C 8.589844 6.734375 8.203125 6.234375 8.136719 6.125 L 8.144531 6.113281 L 8.132812 6.105469 L 8.128906 6.109375 C 8.125 6.105469 8.125 6.101562 8.132812 6.105469 L 7.964844 5.984375 L 7.996094 5.957031 L 9.355469 7.054688 C 9.359375 7.058594 9.363281 7.0625 9.371094 7.066406 C 9.3125 7.019531 9.90625 7.320312 9.832031 7.300781 C 9.761719 7.28125 10.425781 7.332031 10.351562 7.339844 C 10.277344 7.347656 10.910156 7.144531 10.847656 7.179688 C 10.78125 7.21875 11.289062 6.789062 11.242188 6.847656 C 11.195312 6.902344 11.503906 6.3125 11.484375 6.382812 C 11.464844 6.457031 11.523438 5.792969 11.53125 5.867188 C 11.539062 5.941406 11.34375 5.304688 11.378906 5.371094 C 11.414062 5.4375 10.992188 4.921875 11.046875 4.96875 C 11.046875 4.96875 11.042969 4.964844 11.042969 4.964844 L 9.453125 3.675781 C 9.789062 3.328125 10 2.859375 10 2.34375 C 10 1.292969 9.128906 0.421875 8.078125 0.421875 C 7.167969 0.421875 6.394531 1.074219 6.203125 1.929688 L 6.09375 1.898438 L 5.644531 0.855469 C 5.652344 0.867188 5.644531 0.867188 5.636719 0.859375 L 5.644531 0.855469 L 5.640625 0.847656 L 5.628906 0.851562 C 5.539062 0.773438 5.167969 0.328125 5.132812 0.253906 C 5.046875 0.25 4.460938 0.0859375 4.375 0.0429688 L 4.375 0.03125 C 4.375 0.03125 4.371094 0.03125 4.371094 0.03125 Z M 3.203125 1.945312 C 3.207031 1.960938 3.214844 1.949219 3.203125 1.945312 Z M 6.273438 8.234375 C 6.277344 8.234375 6.277344 8.238281 6.273438 8.242188 C 6.269531 8.25 6.269531 8.246094 6.269531 8.238281 C 6.269531 8.238281 6.273438 8.234375 6.273438 8.234375 Z M 6.273438 8.234375 "/>
</g>
</defs>
<g id="surface1">
<use xlink:href="#surface5" mask="url(#mask0)"/>
<path style=" stroke:none;fill-rule:nonzero;fill:rgb(69.01961%,11.372549%,11.372549%);fill-opacity:1;" d="M 4.402344 0.976562 C 4.378906 0.976562 4.355469 0.980469 4.332031 0.984375 C 4.277344 0.996094 4.222656 1.023438 4.179688 1.058594 C 4.132812 1.09375 4.09375 1.140625 4.070312 1.191406 C 4.042969 1.246094 4.03125 1.300781 4.03125 1.359375 C 4.03125 1.417969 4.042969 1.476562 4.070312 1.527344 L 4.757812 3.144531 C 4.777344 3.195312 4.8125 3.242188 4.851562 3.277344 C 4.894531 3.316406 4.945312 3.34375 4.996094 3.359375 L 6.175781 3.726562 L 4.609375 5.230469 L 4.617188 5.234375 C 4.570312 5.28125 4.535156 5.335938 4.511719 5.398438 C 4.488281 5.457031 4.476562 5.523438 4.480469 5.589844 L 4.539062 7.207031 L 2.816406 8.074219 C 2.699219 8.132812 2.613281 8.230469 2.570312 8.355469 C 2.53125 8.476562 2.539062 8.609375 2.597656 8.722656 C 2.65625 8.839844 2.757812 8.925781 2.878906 8.96875 C 3 9.007812 3.132812 9 3.25 8.941406 L 5.25 7.941406 C 5.335938 7.898438 5.402344 7.832031 5.449219 7.75 C 5.5 7.671875 5.519531 7.578125 5.515625 7.484375 L 5.480469 6.542969 L 6.769531 7.472656 L 6.382812 9 C 6.359375 9.0625 6.351562 9.128906 6.351562 9.195312 C 6.355469 9.261719 6.375 9.328125 6.402344 9.386719 C 6.433594 9.445312 6.472656 9.496094 6.523438 9.539062 C 6.574219 9.582031 6.632812 9.613281 6.695312 9.632812 L 1.46875 8.820312 C 1.441406 8.816406 1.417969 8.816406 1.390625 8.816406 C 1.296875 8.820312 1.203125 8.859375 1.136719 8.925781 C 1.066406 8.992188 1.023438 9.082031 1.019531 9.179688 C 1.015625 9.277344 1.046875 9.371094 1.105469 9.445312 C 1.167969 9.519531 1.253906 9.570312 1.351562 9.582031 L 1.941406 9.675781 L 1.292969 10.628906 C 1.292969 10.628906 2.707031 10.484375 3.25 9.878906 L 10.53125 11.011719 C 10.582031 11.019531 10.632812 11.019531 10.683594 11.007812 C 10.734375 10.996094 10.78125 10.972656 10.824219 10.945312 C 10.867188 10.914062 10.902344 10.875 10.929688 10.832031 C 10.953125 10.789062 10.972656 10.742188 10.980469 10.691406 C 10.988281 10.640625 10.988281 10.585938 10.972656 10.535156 C 10.960938 10.488281 10.9375 10.441406 10.910156 10.398438 C 10.878906 10.359375 10.839844 10.324219 10.792969 10.296875 C 10.75 10.269531 10.699219 10.253906 10.648438 10.246094 L 6.828125 9.652344 C 6.941406 9.65625 7.058594 9.617188 7.144531 9.539062 C 7.234375 9.464844 7.292969 9.359375 7.3125 9.242188 L 7.78125 7.386719 C 7.804688 7.292969 7.796875 7.195312 7.761719 7.101562 C 7.730469 7.011719 7.667969 6.933594 7.589844 6.878906 L 6.457031 6.0625 L 7.96875 4.683594 L 9.964844 6.300781 C 10.003906 6.335938 10.050781 6.359375 10.097656 6.375 C 10.148438 6.390625 10.199219 6.398438 10.25 6.394531 C 10.304688 6.386719 10.351562 6.371094 10.398438 6.347656 C 10.445312 6.324219 10.484375 6.289062 10.515625 6.25 C 10.550781 6.207031 10.574219 6.164062 10.585938 6.113281 C 10.601562 6.0625 10.605469 6.011719 10.597656 5.957031 C 10.589844 5.90625 10.574219 5.859375 10.546875 5.8125 C 10.523438 5.769531 10.488281 5.730469 10.445312 5.699219 L 7.589844 3.382812 C 7.554688 3.351562 7.511719 3.328125 7.46875 3.3125 L 5.394531 2.671875 L 4.769531 1.214844 C 4.738281 1.140625 4.6875 1.082031 4.621094 1.039062 C 4.554688 0.996094 4.480469 0.976562 4.402344 0.976562 Z M 8.082031 1.371094 C 7.550781 1.371094 7.117188 1.800781 7.117188 2.335938 C 7.117188 2.867188 7.550781 3.300781 8.082031 3.300781 C 8.617188 3.300781 9.046875 2.867188 9.046875 2.335938 C 9.046875 1.800781 8.617188 1.371094 8.082031 1.371094 Z M 8.082031 1.371094 "/>
</g>
</svg>
