<svg width="32" height="32" viewBox="0 0 16 16" fill="none" xmlns="http://www.w3.org/2000/svg">
<path d="M0.912112 3.93164C0.460747 3.9311 0.23237 4.47503 0.548831 4.79688L2.25196 6.51367C2.30915 6.57182 2.37948 6.61536 2.45703 6.64063C2.48173 6.71798 2.52459 6.7883 2.58203 6.8457L4.51172 8.79102C4.56947 8.84943 4.6405 8.89299 4.71875 8.91797C4.74289 8.99514 4.78507 9.06544 4.8418 9.12305L7.61133 11.918C7.80904 12.1186 8.13217 12.1204 8.33203 11.9219L11.123 9.14844C11.1802 9.09159 11.2231 9.02197 11.248 8.94531C11.3231 8.92035 11.3913 8.87822 11.4473 8.82227L13.4004 6.88867C13.4588 6.83093 13.5024 6.75989 13.5273 6.68164C13.6045 6.65751 13.6748 6.61533 13.7324 6.55859L15.4473 4.85547C15.7678 4.53654 15.5439 3.98927 15.0918 3.98633L11.1113 3.9707C11.0534 3.97073 10.996 3.98064 10.9414 4C10.8887 3.98128 10.8333 3.97138 10.7773 3.9707L9.52149 3.96484C9.38224 3.9642 9.24882 4.02068 9.15235 4.12109L7.99414 5.33594L6.84766 4.11328C6.75186 4.01142 6.61835 3.9535 6.47852 3.95313L5.22266 3.94922C5.16684 3.94927 5.11141 3.95851 5.0586 3.97656C5.00527 3.95763 4.94916 3.94773 4.89258 3.94726L0.912112 3.93164Z" fill="#FEFEFE"/>
<path d="M5.20327 8.7656L10.7631 8.78685L7.97343 11.5601L5.20327 8.7656ZM13.0435 6.52636L11.0996 6.51885L11.0907 8.46141L13.0435 6.52637L13.0435 6.52636ZM2.94278 6.48739L4.88224 6.49492L4.87383 8.43438L2.94277 6.48739L2.94278 6.48739ZM15.0892 4.49452L11.1085 4.47919L11.0996 6.18894L13.3756 6.19779L15.0892 4.49452L15.0892 4.49452ZM0.910767 4.43988L4.88977 4.4552L4.88313 6.16503L2.61378 6.15617L0.910767 4.43988ZM7.99114 6.07558L9.5188 4.47328L10.7764 4.47765L10.7631 8.45652L9.63393 8.45205L9.64278 5.98963L7.9867 7.66519L6.33949 5.97724L6.33064 8.43965L5.20504 8.43518L5.22054 4.45641L6.47676 4.46151L7.99114 6.07549L7.99114 6.07558Z" fill="#D9261C"/>
</svg>
