<?xml version="1.0" encoding="UTF-8"?>
<svg xmlns="http://www.w3.org/2000/svg" xmlns:xlink="http://www.w3.org/1999/xlink" width="12" height="12" viewBox="0 0 12 12" version="1.1">
<g id="surface1">
<path style=" stroke:none;fill-rule:evenodd;fill:rgb(100%,100%,100%);fill-opacity:1;" d="M 0 0.5 C 0 0.222656 0.222656 0 0.5 0 L 3.5 0 C 3.777344 0 4 0.222656 4 0.5 L 4 3.5 C 4 3.632812 3.949219 3.761719 3.855469 3.855469 L 2.855469 4.855469 C 2.761719 4.949219 2.632812 5 2.5 5 L 0.5 5 C 0.222656 5 0 4.777344 0 4.5 Z M 0 0.5 "/>
<path style=" stroke:none;fill-rule:evenodd;fill:rgb(0%,54.509807%,7.058824%);fill-opacity:1;" d="M 0.5 0.5 L 3.5 0.5 L 3.5 3 L 2 3 L 2 4.5 L 0.5 4.5 Z M 1 1 L 3 1 L 3 1.5 L 1 1.5 Z M 1 2 L 3 2 L 3 2.5 L 1 2.5 Z M 1.5 3 L 1 3 L 1 3.5 L 1.5 3.5 Z M 1.5 3 "/>
<path style=" stroke:none;fill-rule:nonzero;fill:rgb(0%,54.509807%,7.058824%);fill-opacity:1;" d="M 2.5 3.5 L 2.5 4.5 L 3.5 3.5 Z M 2.5 3.5 "/>
</g>
</svg>
