<?xml version="1.0" encoding="UTF-8"?>
<svg xmlns="http://www.w3.org/2000/svg" xmlns:xlink="http://www.w3.org/1999/xlink" width="24" height="24" viewBox="0 0 24 24">
<path fill-rule="nonzero" fill="rgb(99.607843%, 99.607843%, 99.607843%)" fill-opacity="1" d="M 8.140625 11.261719 L 7.238281 11.261719 L 7.238281 10.984375 C 7.238281 10.855469 7.226562 10.773438 7.203125 10.738281 C 7.179688 10.703125 7.140625 10.683594 7.089844 10.683594 C 7.03125 10.683594 6.984375 10.707031 6.953125 10.757812 C 6.925781 10.804688 6.910156 10.875 6.910156 10.972656 C 6.910156 11.097656 6.925781 11.191406 6.960938 11.253906 C 6.992188 11.316406 7.085938 11.394531 7.234375 11.484375 C 7.667969 11.742188 7.941406 11.953125 8.054688 12.117188 C 8.164062 12.28125 8.222656 12.546875 8.222656 12.914062 C 8.222656 13.179688 8.191406 13.375 8.128906 13.503906 C 8.066406 13.628906 7.945312 13.734375 7.765625 13.820312 C 7.589844 13.90625 7.378906 13.949219 7.144531 13.949219 C 6.882812 13.949219 6.660156 13.898438 6.476562 13.800781 C 6.292969 13.703125 6.171875 13.578125 6.117188 13.425781 C 6.058594 13.273438 6.03125 13.054688 6.03125 12.773438 L 6.03125 12.53125 L 6.933594 12.53125 L 6.933594 12.984375 C 6.933594 13.125 6.945312 13.214844 6.96875 13.253906 C 6.996094 13.296875 7.042969 13.316406 7.105469 13.316406 C 7.171875 13.316406 7.21875 13.289062 7.25 13.238281 C 7.28125 13.1875 7.296875 13.113281 7.296875 13.011719 C 7.296875 12.792969 7.269531 12.648438 7.207031 12.582031 C 7.148438 12.511719 6.996094 12.398438 6.753906 12.242188 C 6.511719 12.082031 6.351562 11.964844 6.273438 11.894531 C 6.195312 11.820312 6.128906 11.71875 6.078125 11.59375 C 6.027344 11.464844 6 11.300781 6 11.101562 C 6 10.816406 6.035156 10.605469 6.109375 10.472656 C 6.183594 10.34375 6.300781 10.238281 6.464844 10.164062 C 6.628906 10.089844 6.824219 10.050781 7.054688 10.050781 C 7.308594 10.050781 7.523438 10.09375 7.699219 10.175781 C 7.878906 10.253906 7.996094 10.359375 8.054688 10.484375 C 8.113281 10.605469 8.140625 10.816406 8.140625 11.113281 L 8.140625 11.261719 "/>
<path fill-rule="nonzero" fill="rgb(99.607843%, 99.607843%, 99.607843%)" fill-opacity="1" d="M 8.53125 10.128906 L 9.507812 10.128906 C 9.773438 10.128906 9.976562 10.152344 10.117188 10.191406 C 10.261719 10.234375 10.367188 10.292969 10.441406 10.371094 C 10.511719 10.453125 10.558594 10.546875 10.585938 10.660156 C 10.613281 10.769531 10.625 10.941406 10.625 11.175781 L 10.625 11.503906 C 10.625 11.742188 10.601562 11.914062 10.550781 12.023438 C 10.5 12.132812 10.410156 12.21875 10.277344 12.277344 C 10.148438 12.335938 9.976562 12.363281 9.761719 12.363281 L 9.5 12.363281 L 9.5 13.871094 L 8.53125 13.871094 Z M 9.5 10.769531 L 9.5 11.722656 C 9.53125 11.722656 9.554688 11.722656 9.574219 11.722656 C 9.664062 11.722656 9.722656 11.703125 9.757812 11.660156 C 9.792969 11.613281 9.8125 11.523438 9.8125 11.382812 L 9.8125 11.078125 C 9.8125 10.949219 9.792969 10.867188 9.75 10.828125 C 9.710938 10.789062 9.628906 10.769531 9.5 10.769531 "/>
<path fill-rule="nonzero" fill="rgb(99.607843%, 99.607843%, 99.607843%)" fill-opacity="1" d="M 13.125 12.320312 C 13.125 12.695312 13.117188 12.960938 13.097656 13.121094 C 13.082031 13.273438 13.027344 13.417969 12.933594 13.546875 C 12.839844 13.675781 12.714844 13.773438 12.554688 13.84375 C 12.398438 13.914062 12.210938 13.949219 12 13.949219 C 11.800781 13.949219 11.621094 13.917969 11.460938 13.851562 C 11.300781 13.785156 11.175781 13.6875 11.078125 13.554688 C 10.980469 13.425781 10.921875 13.28125 10.902344 13.128906 C 10.886719 12.972656 10.875 12.703125 10.875 12.320312 L 10.875 11.679688 C 10.875 11.304688 10.882812 11.039062 10.902344 10.882812 C 10.921875 10.726562 10.976562 10.582031 11.066406 10.453125 C 11.160156 10.324219 11.289062 10.226562 11.445312 10.15625 C 11.605469 10.085938 11.789062 10.050781 12 10.050781 C 12.203125 10.050781 12.378906 10.085938 12.539062 10.152344 C 12.699219 10.214844 12.828125 10.3125 12.925781 10.445312 C 13.023438 10.574219 13.078125 10.71875 13.097656 10.871094 C 13.117188 11.027344 13.125 11.296875 13.125 11.679688 Z M 12.152344 11.089844 C 12.152344 10.917969 12.144531 10.804688 12.125 10.757812 C 12.105469 10.710938 12.066406 10.683594 12.003906 10.683594 C 11.953125 10.683594 11.914062 10.703125 11.886719 10.746094 C 11.863281 10.78125 11.847656 10.898438 11.847656 11.089844 L 11.847656 12.835938 C 11.847656 13.054688 11.855469 13.1875 11.875 13.238281 C 11.894531 13.289062 11.933594 13.316406 12 13.316406 C 12.066406 13.316406 12.105469 13.285156 12.125 13.226562 C 12.144531 13.167969 12.152344 13.03125 12.152344 12.808594 Z M 12.152344 11.089844 "/>
<path fill-rule="nonzero" fill="rgb(99.607843%, 99.607843%, 99.607843%)" fill-opacity="1" d="M 13.492188 10.128906 L 14.179688 10.128906 C 14.636719 10.128906 14.949219 10.148438 15.109375 10.183594 C 15.273438 10.21875 15.40625 10.308594 15.507812 10.457031 C 15.609375 10.601562 15.664062 10.832031 15.664062 11.152344 C 15.664062 11.441406 15.625 11.636719 15.554688 11.738281 C 15.480469 11.839844 15.339844 11.898438 15.125 11.917969 C 15.320312 11.964844 15.449219 12.03125 15.515625 12.109375 C 15.582031 12.191406 15.621094 12.265625 15.636719 12.332031 C 15.652344 12.398438 15.664062 12.582031 15.664062 12.882812 L 15.664062 13.871094 L 14.757812 13.871094 L 14.757812 12.628906 C 14.757812 12.425781 14.742188 12.304688 14.710938 12.253906 C 14.679688 12.207031 14.597656 12.183594 14.464844 12.183594 L 14.464844 13.871094 L 13.492188 13.871094 Z M 14.464844 10.769531 L 14.464844 11.601562 C 14.574219 11.601562 14.648438 11.585938 14.691406 11.558594 C 14.738281 11.527344 14.757812 11.429688 14.757812 11.265625 L 14.757812 11.058594 C 14.757812 10.941406 14.738281 10.863281 14.695312 10.824219 C 14.652344 10.789062 14.574219 10.769531 14.464844 10.769531 Z M 14.464844 10.769531 "/>
<path fill-rule="nonzero" fill="rgb(99.607843%, 99.607843%, 99.607843%)" fill-opacity="1" d="M 18 10.128906 L 18 10.878906 L 17.421875 10.878906 L 17.421875 13.871094 L 16.449219 13.871094 L 16.449219 10.878906 L 15.875 10.878906 L 15.875 10.128906 Z M 18 10.128906 "/>
</svg>
