<?xml version="1.0" encoding="UTF-8"?>
<svg xmlns="http://www.w3.org/2000/svg" xmlns:xlink="http://www.w3.org/1999/xlink" width="24" height="24" viewBox="0 0 24 24">
<defs>
<filter id="filter-remove-color" x="0%" y="0%" width="100%" height="100%">
<feColorMatrix color-interpolation-filters="sRGB" values="0 0 0 0 1 0 0 0 0 1 0 0 0 0 1 0 0 0 1 0" />
</filter>
<mask id="mask-0">
<g filter="url(#filter-remove-color)">
<rect x="-2.4" y="-2.4" width="28.8" height="28.8" fill="rgb(0%, 0%, 0%)" fill-opacity="0.552"/>
</g>
</mask>
<clipPath id="clip-0">
<rect x="0" y="0" width="24" height="24"/>
</clipPath>
<g id="source-6" clip-path="url(#clip-0)">
<path fill-rule="nonzero" fill="rgb(55.294118%, 55.294118%, 55.294118%)" fill-opacity="1" d="M 9.347656 0.761719 C 9.109375 0.761719 8.878906 0.855469 8.710938 1.023438 C 8.542969 1.195312 8.445312 1.421875 8.445312 1.660156 L 8.445312 4.804688 C 8.445312 4.816406 8.445312 4.828125 8.445312 4.835938 L 8.445312 6.210938 C 8.445312 6.449219 8.539062 6.679688 8.707031 6.847656 C 8.875 7.015625 9.101562 7.113281 9.339844 7.113281 L 10.292969 7.113281 L 10.292969 21.300781 C 10.292969 21.539062 10.390625 21.765625 10.558594 21.933594 C 10.726562 22.105469 10.953125 22.199219 11.191406 22.199219 L 12.226562 22.199219 C 12.464844 22.199219 12.695312 22.105469 12.863281 21.933594 C 13.03125 21.765625 13.125 21.539062 13.125 21.300781 L 13.125 7.117188 L 14.085938 7.117188 C 14.203125 7.117188 14.320312 7.09375 14.429688 7.050781 C 14.539062 7.003906 14.636719 6.9375 14.71875 6.855469 C 14.804688 6.769531 14.871094 6.671875 14.914062 6.5625 C 14.960938 6.453125 14.984375 6.335938 14.984375 6.21875 L 14.984375 4.875 C 14.984375 4.855469 14.984375 4.835938 14.984375 4.8125 L 14.988281 3.074219 C 14.988281 3.0625 14.988281 3.054688 14.984375 3.042969 L 14.984375 1.667969 C 14.984375 1.429688 14.890625 1.203125 14.722656 1.035156 C 14.554688 0.863281 14.328125 0.769531 14.089844 0.769531 Z M 9.347656 0.761719 "/>
</g>
</defs>
<g mask="url(#mask-0)">
<use xlink:href="#source-6"/>
</g>
<path fill="none" stroke-width="25" stroke-linecap="butt" stroke-linejoin="miter" stroke="rgb(0%, 0%, 0%)" stroke-opacity="1" stroke-miterlimit="4" d="M 283.108724 514.580078 L 283.108724 68.818359 " transform="matrix(0.0413793, 0, 0, 0.0413793, 0, 0)"/>
<path fill-rule="nonzero" fill="rgb(90.980392%, 0%, 0%)" fill-opacity="1" d="M 9.347656 1.652344 L 14.09375 1.660156 L 14.089844 6.210938 L 9.347656 6.207031 Z M 9.347656 1.652344 "/>
</svg>
