<?xml version="1.0" encoding="UTF-8"?>
<svg xmlns="http://www.w3.org/2000/svg" xmlns:xlink="http://www.w3.org/1999/xlink" width="32" height="32" viewBox="0 0 32 32">
<defs>
<filter id="filter-remove-color" x="0%" y="0%" width="100%" height="100%">
<feColorMatrix color-interpolation-filters="sRGB" values="0 0 0 0 1 0 0 0 0 1 0 0 0 0 1 0 0 0 1 0" />
</filter>
<mask id="mask-0">
<g filter="url(#filter-remove-color)">
<rect x="-3.2" y="-3.2" width="38.4" height="38.4" fill="rgb(0%, 0%, 0%)" fill-opacity="0.426087"/>
</g>
</mask>
<clipPath id="clip-0">
<path clip-rule="nonzero" d="M 0 0 L 32 0 L 32 32 L 0 32 Z M 0 0 "/>
</clipPath>
<clipPath id="clip-1">
<rect x="0" y="0" width="32" height="32"/>
</clipPath>
<g id="source-7" clip-path="url(#clip-1)">
<g clip-path="url(#clip-0)">
<path fill-rule="nonzero" fill="rgb(67.45098%, 84.705882%, 95.294118%)" fill-opacity="1" d="M 25.75 -0.0195312 C 25.664062 -0.0195312 25.542969 -0.015625 25.457031 -0.00390625 C 25.371094 0.00390625 25.25 0.0195312 25.164062 0.0390625 C 25.078125 0.0546875 24.960938 0.0859375 24.875 0.109375 C 24.792969 0.136719 24.679688 0.175781 24.597656 0.210938 C 24.519531 0.242188 24.410156 0.296875 24.332031 0.335938 C 24.253906 0.378906 24.152344 0.441406 24.078125 0.488281 C 24.007812 0.535156 23.910156 0.609375 23.84375 0.664062 C 23.773438 0.71875 23.683594 0.800781 23.625 0.863281 C 23.5625 0.921875 23.480469 1.015625 23.425781 1.082031 C 23.371094 1.148438 23.296875 1.246094 23.25 1.316406 C 23.199219 1.390625 23.136719 1.496094 23.097656 1.570312 C 23.054688 1.648438 23.003906 1.757812 22.972656 1.839844 C 22.9375 1.917969 22.898438 2.03125 22.871094 2.117188 C 22.847656 2.199219 22.816406 2.320312 22.800781 2.402344 C 22.78125 2.488281 22.765625 2.609375 22.757812 2.695312 C 22.746094 2.78125 22.742188 2.902344 22.742188 2.988281 L 22.742188 4.109375 C 22.695312 4.082031 22.652344 4.042969 22.609375 4.019531 C 22.480469 3.945312 22.285156 3.859375 22.144531 3.808594 C 22 3.757812 21.796875 3.703125 21.648438 3.675781 C 21.5 3.648438 21.285156 3.632812 21.136719 3.632812 L 18.308594 3.632812 C 18.222656 3.632812 18.097656 3.636719 18.011719 3.648438 C 17.925781 3.65625 17.804688 3.671875 17.722656 3.691406 C 17.636719 3.707031 17.515625 3.738281 17.433594 3.761719 C 17.351562 3.789062 17.234375 3.828125 17.15625 3.863281 C 17.074219 3.894531 16.964844 3.945312 16.890625 3.988281 C 16.8125 4.027344 16.707031 4.089844 16.636719 4.140625 C 16.5625 4.1875 16.464844 4.261719 16.398438 4.316406 C 16.332031 4.371094 16.242188 4.453125 16.179688 4.515625 C 16.117188 4.574219 16.035156 4.664062 15.980469 4.734375 C 15.925781 4.800781 15.855469 4.898438 15.804688 4.96875 C 15.757812 5.042969 15.695312 5.144531 15.652344 5.222656 C 15.613281 5.300781 15.5625 5.410156 15.527344 5.488281 C 15.496094 5.570312 15.453125 5.683594 15.429688 5.765625 C 15.402344 5.851562 15.371094 5.96875 15.355469 6.054688 C 15.339844 6.140625 15.320312 6.261719 15.3125 6.347656 C 15.304688 6.433594 15.300781 6.554688 15.300781 6.640625 L 15.300781 7.761719 C 15.253906 7.730469 15.207031 7.695312 15.167969 7.671875 C 15.035156 7.597656 14.84375 7.507812 14.699219 7.457031 C 14.558594 7.40625 14.351562 7.351562 14.203125 7.328125 C 14.054688 7.300781 13.84375 7.285156 13.691406 7.285156 L 10.863281 7.285156 C 10.777344 7.285156 10.65625 7.289062 10.570312 7.296875 C 10.484375 7.308594 10.363281 7.324219 10.277344 7.339844 C 10.195312 7.359375 10.074219 7.386719 9.992188 7.414062 C 9.90625 7.4375 9.792969 7.480469 9.714844 7.515625 C 9.632812 7.546875 9.523438 7.597656 9.445312 7.640625 C 9.371094 7.679688 9.265625 7.742188 9.191406 7.792969 C 9.121094 7.839844 9.023438 7.914062 8.957031 7.96875 C 8.890625 8.023438 8.796875 8.105469 8.738281 8.164062 C 8.675781 8.226562 8.59375 8.316406 8.539062 8.382812 C 8.484375 8.453125 8.410156 8.546875 8.363281 8.621094 C 8.316406 8.691406 8.253906 8.796875 8.210938 8.875 C 8.171875 8.949219 8.117188 9.0625 8.085938 9.140625 C 8.050781 9.222656 8.011719 9.335938 7.984375 9.417969 C 7.960938 9.503906 7.929688 9.621094 7.914062 9.707031 C 7.894531 9.792969 7.878906 9.910156 7.871094 10 C 7.859375 10.085938 7.855469 10.207031 7.855469 10.292969 L 7.855469 11.414062 C 7.808594 11.382812 7.765625 11.347656 7.726562 11.324219 C 7.59375 11.25 7.398438 11.160156 7.257812 11.109375 C 7.117188 11.058594 6.910156 11.003906 6.761719 10.980469 C 6.613281 10.953125 6.398438 10.9375 6.25 10.9375 L 3.421875 10.9375 C 3.335938 10.9375 3.214844 10.941406 3.125 10.949219 C 3.039062 10.957031 2.921875 10.976562 2.835938 10.992188 C 2.75 11.011719 2.628906 11.039062 2.546875 11.066406 C 2.464844 11.089844 2.351562 11.132812 2.269531 11.164062 C 2.191406 11.199219 2.078125 11.25 2.003906 11.292969 C 1.925781 11.332031 1.820312 11.394531 1.75 11.441406 C 1.675781 11.492188 1.578125 11.5625 1.511719 11.617188 C 1.445312 11.675781 1.355469 11.757812 1.292969 11.816406 C 1.234375 11.878906 1.152344 11.96875 1.09375 12.035156 C 1.039062 12.101562 0.96875 12.199219 0.917969 12.273438 C 0.871094 12.34375 0.808594 12.449219 0.769531 12.527344 C 0.726562 12.601562 0.675781 12.714844 0.640625 12.792969 C 0.609375 12.875 0.566406 12.988281 0.542969 13.070312 C 0.515625 13.152344 0.488281 13.273438 0.46875 13.359375 C 0.453125 13.445312 0.433594 13.5625 0.425781 13.648438 C 0.417969 13.734375 0.414062 13.859375 0.414062 13.945312 L 0.414062 29.011719 C 0.414062 29.097656 0.417969 29.21875 0.425781 29.304688 C 0.433594 29.390625 0.453125 29.511719 0.46875 29.597656 C 0.488281 29.679688 0.515625 29.800781 0.542969 29.882812 C 0.566406 29.96875 0.609375 30.082031 0.640625 30.160156 C 0.675781 30.242188 0.726562 30.351562 0.769531 30.429688 C 0.808594 30.503906 0.871094 30.609375 0.917969 30.683594 C 0.96875 30.753906 1.039062 30.851562 1.09375 30.917969 C 1.152344 30.984375 1.234375 31.078125 1.292969 31.136719 C 1.355469 31.199219 1.445312 31.28125 1.511719 31.335938 C 1.578125 31.390625 1.675781 31.464844 1.75 31.511719 C 1.820312 31.558594 1.925781 31.621094 2.003906 31.664062 C 2.078125 31.703125 2.191406 31.757812 2.269531 31.789062 C 2.351562 31.824219 2.464844 31.863281 2.546875 31.890625 C 2.628906 31.914062 2.75 31.945312 2.835938 31.960938 C 2.921875 31.980469 3.039062 31.996094 3.125 32.003906 C 3.214844 32.015625 3.335938 32.019531 3.421875 32.019531 L 6.25 32.019531 C 6.335938 32.019531 6.457031 32.015625 6.542969 32.003906 C 6.628906 31.996094 6.75 31.980469 6.835938 31.960938 C 6.921875 31.945312 7.039062 31.914062 7.125 31.890625 C 7.207031 31.863281 7.320312 31.824219 7.402344 31.789062 C 7.480469 31.757812 7.589844 31.703125 7.667969 31.664062 C 7.746094 31.621094 7.847656 31.558594 7.921875 31.511719 C 7.992188 31.464844 8.089844 31.390625 8.15625 31.335938 C 8.226562 31.28125 8.316406 31.199219 8.375 31.136719 C 8.4375 31.078125 8.519531 30.984375 8.574219 30.917969 C 8.628906 30.851562 8.703125 30.753906 8.75 30.683594 C 8.800781 30.609375 8.863281 30.503906 8.902344 30.429688 C 8.945312 30.351562 8.996094 30.242188 9.027344 30.160156 C 9.0625 30.082031 9.101562 29.96875 9.128906 29.882812 C 9.152344 29.800781 9.183594 29.679688 9.199219 29.597656 C 9.21875 29.511719 9.234375 29.390625 9.242188 29.304688 C 9.253906 29.21875 9.257812 29.097656 9.257812 29.011719 L 9.257812 27.890625 C 9.304688 27.917969 9.347656 27.957031 9.390625 27.980469 C 9.519531 28.054688 9.714844 28.140625 9.855469 28.191406 C 10 28.242188 10.203125 28.296875 10.351562 28.324219 C 10.5 28.351562 10.714844 28.367188 10.863281 28.367188 L 13.691406 28.367188 C 13.777344 28.367188 13.902344 28.363281 13.988281 28.351562 C 14.074219 28.34375 14.195312 28.328125 14.277344 28.308594 C 14.363281 28.292969 14.484375 28.261719 14.566406 28.238281 C 14.648438 28.210938 14.765625 28.171875 14.84375 28.136719 C 14.925781 28.105469 15.035156 28.054688 15.109375 28.011719 C 15.1875 27.972656 15.292969 27.910156 15.363281 27.859375 C 15.4375 27.8125 15.535156 27.738281 15.601562 27.683594 C 15.667969 27.628906 15.757812 27.546875 15.820312 27.484375 C 15.882812 27.425781 15.964844 27.335938 16.019531 27.265625 C 16.074219 27.199219 16.144531 27.101562 16.195312 27.03125 C 16.242188 26.957031 16.304688 26.855469 16.347656 26.777344 C 16.386719 26.699219 16.4375 26.589844 16.472656 26.511719 C 16.503906 26.429688 16.546875 26.316406 16.570312 26.234375 C 16.597656 26.148438 16.628906 26.03125 16.644531 25.945312 C 16.660156 25.859375 16.679688 25.738281 16.6875 25.652344 C 16.695312 25.566406 16.699219 25.445312 16.699219 25.359375 L 16.699219 24.238281 C 16.746094 24.269531 16.792969 24.304688 16.832031 24.328125 C 16.964844 24.402344 17.15625 24.492188 17.300781 24.542969 C 17.441406 24.59375 17.648438 24.648438 17.796875 24.671875 C 17.945312 24.699219 18.15625 24.714844 18.308594 24.714844 L 21.136719 24.714844 C 21.222656 24.714844 21.34375 24.710938 21.429688 24.703125 C 21.515625 24.691406 21.636719 24.675781 21.722656 24.660156 C 21.804688 24.640625 21.925781 24.613281 22.007812 24.585938 C 22.09375 24.5625 22.207031 24.519531 22.285156 24.484375 C 22.367188 24.453125 22.476562 24.402344 22.554688 24.359375 C 22.628906 24.320312 22.734375 24.257812 22.808594 24.207031 C 22.878906 24.160156 22.976562 24.085938 23.042969 24.03125 C 23.109375 23.976562 23.203125 23.894531 23.261719 23.835938 C 23.324219 23.773438 23.40625 23.683594 23.460938 23.617188 C 23.515625 23.546875 23.589844 23.453125 23.636719 23.378906 C 23.683594 23.308594 23.746094 23.203125 23.789062 23.125 C 23.828125 23.050781 23.882812 22.9375 23.914062 22.859375 C 23.949219 22.777344 23.988281 22.664062 24.015625 22.582031 C 24.039062 22.496094 24.070312 22.378906 24.085938 22.292969 C 24.105469 22.207031 24.121094 22.089844 24.128906 22 C 24.140625 21.914062 24.144531 21.792969 24.144531 21.707031 L 24.144531 20.585938 C 24.191406 20.617188 24.234375 20.652344 24.273438 20.675781 C 24.40625 20.75 24.601562 20.839844 24.742188 20.890625 C 24.882812 20.941406 25.089844 20.996094 25.238281 21.019531 C 25.386719 21.046875 25.601562 21.0625 25.75 21.0625 L 28.578125 21.0625 C 28.664062 21.0625 28.785156 21.058594 28.875 21.050781 C 28.960938 21.042969 29.078125 21.023438 29.164062 21.007812 C 29.25 20.988281 29.371094 20.960938 29.453125 20.933594 C 29.535156 20.910156 29.648438 20.867188 29.730469 20.835938 C 29.808594 20.800781 29.921875 20.75 29.996094 20.707031 C 30.074219 20.667969 30.179688 20.605469 30.25 20.558594 C 30.324219 20.507812 30.421875 20.4375 30.488281 20.382812 C 30.554688 20.324219 30.644531 20.242188 30.707031 20.183594 C 30.765625 20.121094 30.847656 20.03125 30.90625 19.964844 C 30.960938 19.898438 31.03125 19.800781 31.082031 19.726562 C 31.128906 19.65625 31.191406 19.550781 31.230469 19.472656 C 31.273438 19.398438 31.324219 19.285156 31.359375 19.207031 C 31.390625 19.125 31.433594 19.011719 31.457031 18.929688 C 31.484375 18.847656 31.511719 18.726562 31.53125 18.640625 C 31.546875 18.554688 31.566406 18.4375 31.574219 18.351562 C 31.582031 18.265625 31.585938 18.140625 31.585938 18.054688 L 31.585938 2.988281 C 31.585938 2.902344 31.582031 2.78125 31.574219 2.695312 C 31.566406 2.609375 31.546875 2.488281 31.53125 2.402344 C 31.511719 2.320312 31.484375 2.199219 31.457031 2.117188 C 31.433594 2.03125 31.390625 1.917969 31.359375 1.839844 C 31.324219 1.757812 31.273438 1.648438 31.230469 1.570312 C 31.191406 1.496094 31.128906 1.390625 31.082031 1.316406 C 31.03125 1.246094 30.960938 1.148438 30.90625 1.082031 C 30.847656 1.015625 30.765625 0.921875 30.707031 0.863281 C 30.644531 0.800781 30.554688 0.71875 30.488281 0.664062 C 30.421875 0.609375 30.324219 0.535156 30.25 0.488281 C 30.179688 0.441406 30.074219 0.378906 29.996094 0.335938 C 29.921875 0.296875 29.808594 0.242188 29.730469 0.210938 C 29.648438 0.175781 29.535156 0.136719 29.453125 0.109375 C 29.371094 0.0859375 29.25 0.0546875 29.164062 0.0390625 C 29.078125 0.0195312 28.960938 0.00390625 28.875 -0.00390625 C 28.785156 -0.015625 28.664062 -0.0195312 28.578125 -0.0195312 Z M 25.75 -0.0195312 "/>
</g>
</g>
</defs>
<g mask="url(#mask-0)">
<use xlink:href="#source-7"/>
</g>
<path fill-rule="nonzero" fill="rgb(69.019608%, 11.372549%, 11.372549%)" fill-opacity="1" d="M 3.410156 13.953125 L 3.410156 29.019531 L 6.238281 29.019531 L 6.238281 13.953125 Z M 3.410156 13.953125 "/>
<path fill-rule="nonzero" fill="rgb(82.352941%, 39.607843%, 39.607843%)" fill-opacity="1" d="M 3.410156 22.511719 L 3.410156 29.019531 L 6.238281 29.019531 L 6.238281 22.511719 Z M 3.410156 22.511719 "/>
<path fill-rule="nonzero" fill="rgb(69.019608%, 11.372549%, 11.372549%)" fill-opacity="1" d="M 10.851562 10.300781 L 10.851562 25.367188 L 13.679688 25.367188 L 13.679688 10.300781 Z M 10.851562 10.300781 "/>
<path fill-rule="nonzero" fill="rgb(82.352941%, 39.607843%, 39.607843%)" fill-opacity="1" d="M 10.851562 18.863281 L 10.851562 25.367188 L 13.679688 25.367188 L 13.679688 18.863281 Z M 10.851562 18.863281 "/>
<path fill-rule="nonzero" fill="rgb(69.019608%, 11.372549%, 11.372549%)" fill-opacity="1" d="M 18.296875 6.648438 L 18.296875 21.714844 L 21.121094 21.714844 L 21.121094 6.648438 Z M 18.296875 6.648438 "/>
<path fill-rule="nonzero" fill="rgb(82.352941%, 39.607843%, 39.607843%)" fill-opacity="1" d="M 18.296875 15.210938 L 18.296875 21.714844 L 21.121094 21.714844 L 21.121094 15.210938 Z M 18.296875 15.210938 "/>
<path fill-rule="nonzero" fill="rgb(69.019608%, 11.372549%, 11.372549%)" fill-opacity="1" d="M 25.738281 2.996094 L 25.738281 18.0625 L 28.566406 18.0625 L 28.566406 2.996094 Z M 25.738281 2.996094 "/>
<path fill-rule="nonzero" fill="rgb(82.352941%, 39.607843%, 39.607843%)" fill-opacity="1" d="M 25.738281 11.558594 L 25.738281 18.0625 L 28.566406 18.0625 L 28.566406 11.558594 Z M 25.738281 11.558594 "/>
</svg>
