<?xml version="1.0" encoding="UTF-8"?>
<svg xmlns="http://www.w3.org/2000/svg" xmlns:xlink="http://www.w3.org/1999/xlink" width="12" height="12" viewBox="0 0 12 12" version="1.1">
<defs>
<filter id="alpha" filterUnits="objectBoundingBox" x="0%" y="0%" width="100%" height="100%">
  <feColorMatrix type="matrix" in="SourceGraphic" values="0 0 0 0 1 0 0 0 0 1 0 0 0 0 1 0 0 0 1 0"/>
</filter>
<mask id="mask0">
  <g filter="url(#alpha)">
<rect x="0" y="0" width="12" height="12" style="fill:rgb(0%,0%,0%);fill-opacity:0.824;stroke:none;"/>
  </g>
</mask>
<clipPath id="clip1">
  <rect x="0" y="0" width="12" height="12"/>
</clipPath>
<g id="surface5" clip-path="url(#clip1)">
<path style=" stroke:none;fill-rule:nonzero;fill:rgb(84.705883%,61.176473%,84.705883%);fill-opacity:1;" d="M 0.617188 7.265625 C 0.414062 7.132812 0.25 7.175781 0.121094 7.359375 C 0.304688 8.34375 0.738281 9.238281 1.351562 9.976562 C 1.523438 9.960938 1.6875 9.933594 1.738281 9.65625 C 1.179688 8.980469 0.785156 8.164062 0.617188 7.265625 Z M 0.617188 7.265625 "/>
</g>
<mask id="mask1">
  <g filter="url(#alpha)">
<rect x="0" y="0" width="12" height="12" style="fill:rgb(0%,0%,0%);fill-opacity:0.824;stroke:none;"/>
  </g>
</mask>
<clipPath id="clip2">
  <rect x="0" y="0" width="12" height="12"/>
</clipPath>
<g id="surface8" clip-path="url(#clip2)">
<path style=" stroke:none;fill-rule:nonzero;fill:rgb(84.705883%,61.176473%,84.705883%);fill-opacity:1;" d="M 1.503906 7.101562 C 1.332031 6.984375 1.175781 6.988281 1.050781 7.183594 C 1.203125 8.007812 1.566406 8.753906 2.078125 9.375 C 2.253906 9.378906 2.40625 9.347656 2.433594 9.078125 C 1.96875 8.519531 1.644531 7.84375 1.503906 7.101562 Z M 1.503906 7.101562 "/>
</g>
<mask id="mask2">
  <g filter="url(#alpha)">
<rect x="0" y="0" width="12" height="12" style="fill:rgb(0%,0%,0%);fill-opacity:0.824;stroke:none;"/>
  </g>
</mask>
<clipPath id="clip3">
  <rect x="0" y="0" width="12" height="12"/>
</clipPath>
<g id="surface11" clip-path="url(#clip3)">
<path style=" stroke:none;fill-rule:nonzero;fill:rgb(84.705883%,61.176473%,84.705883%);fill-opacity:1;" d="M 2.320312 6.945312 C 2.140625 6.8125 2.003906 6.855469 1.898438 7.027344 C 2.023438 7.699219 2.320312 8.316406 2.742188 8.824219 C 2.910156 8.820312 3.0625 8.789062 3.074219 8.550781 C 2.699219 8.097656 2.433594 7.550781 2.320312 6.945312 Z M 2.320312 6.945312 "/>
</g>
</defs>
<g id="surface1">
<use xlink:href="#surface5" mask="url(#mask0)"/>
<use xlink:href="#surface8" mask="url(#mask1)"/>
<use xlink:href="#surface11" mask="url(#mask2)"/>
</g>
</svg>
