<?xml version="1.0" encoding="UTF-8"?>
<svg xmlns="http://www.w3.org/2000/svg" xmlns:xlink="http://www.w3.org/1999/xlink" width="32" height="32" viewBox="0 0 32 32">
<path fill-rule="nonzero" fill="rgb(0%, 0%, 0%)" fill-opacity="1" d="M 17.675781 12.253906 L 20.378906 9.015625 L 23.121094 12.253906 L 21.453125 12.253906 L 21.453125 20.632812 L 19.386719 20.632812 L 19.386719 12.253906 L 17.675781 12.253906 "/>
<path fill-rule="nonzero" fill="rgb(0%, 0%, 0%)" fill-opacity="1" d="M 17.675781 17.453125 L 20.378906 14.214844 L 23.121094 17.453125 L 21.453125 17.453125 L 21.453125 18.230469 L 19.386719 18.230469 L 19.386719 17.453125 L 17.675781 17.453125 "/>
<path fill-rule="nonzero" fill="rgb(0%, 0%, 0%)" fill-opacity="1" d="M 9.246094 14.652344 L 11.949219 11.417969 L 14.6875 14.652344 L 13.019531 14.652344 L 13.019531 23.03125 L 10.953125 23.03125 L 10.953125 14.652344 L 9.246094 14.652344 "/>
<path fill-rule="nonzero" fill="rgb(0%, 0%, 0%)" fill-opacity="1" d="M 9.246094 19.453125 L 11.949219 16.21875 L 14.6875 19.453125 L 13.019531 19.453125 L 13.019531 20.234375 L 10.953125 20.234375 L 10.953125 19.453125 L 9.246094 19.453125 "/>
</svg>
