<?xml version="1.0" encoding="UTF-8"?>
<svg xmlns="http://www.w3.org/2000/svg" xmlns:xlink="http://www.w3.org/1999/xlink" width="48" height="48" viewBox="0 0 48 48">
<defs>
<filter id="filter-remove-color" x="0%" y="0%" width="100%" height="100%">
<feColorMatrix color-interpolation-filters="sRGB" values="0 0 0 0 1 0 0 0 0 1 0 0 0 0 1 0 0 0 1 0" />
</filter>
<mask id="mask-0">
<g filter="url(#filter-remove-color)">
<rect x="-4.8" y="-4.8" width="57.6" height="57.6" fill="rgb(0%, 0%, 0%)" fill-opacity="0.41791"/>
</g>
</mask>
<clipPath id="clip-0">
<rect x="0" y="0" width="48" height="48"/>
</clipPath>
<g id="source-6" clip-path="url(#clip-0)">
<path fill="none" stroke-width="29.002001" stroke-linecap="butt" stroke-linejoin="miter" stroke="rgb(77.647059%, 72.54902%, 100%)" stroke-opacity="1" stroke-miterlimit="4" d="M 825.882161 530 C 825.882161 608.499349 794.741211 683.720703 739.187826 739.187826 C 683.720703 794.741211 608.499349 825.882161 530 825.882161 C 451.500651 825.882161 376.279297 794.741211 320.812174 739.187826 C 265.258789 683.720703 234.117839 608.499349 234.117839 530 C 234.117839 451.500651 265.258789 376.279297 320.812174 320.812174 C 376.279297 265.258789 451.500651 234.117839 530 234.117839 C 608.499349 234.117839 683.720703 265.258789 739.187826 320.812174 C 794.741211 376.279297 825.882161 451.500651 825.882161 530 Z M 825.882161 530 " transform="matrix(0.045283, 0, 0, 0.045283, 0, 0)"/>
</g>
</defs>
<g mask="url(#mask-0)">
<use xlink:href="#source-6"/>
</g>
</svg>
