<?xml version="1.0" encoding="UTF-8"?>
<svg xmlns="http://www.w3.org/2000/svg" xmlns:xlink="http://www.w3.org/1999/xlink" width="24" height="24" viewBox="0 0 24 24">
<path fill-rule="nonzero" fill="rgb(99.607843%, 99.607843%, 99.607843%)" fill-opacity="1" d="M 6.601562 5.503906 C 5.996094 5.503906 5.503906 5.996094 5.503906 6.601562 L 5.503906 8.386719 C 5.507812 8.597656 5.570312 8.804688 5.6875 8.984375 C 5.554688 9.167969 5.484375 9.386719 5.480469 9.617188 L 5.480469 17.421875 C 5.480469 18.027344 5.972656 18.519531 6.578125 18.519531 C 17.390625 18.492188 6.613281 18.496094 17.398438 18.496094 C 18.003906 18.496094 18.496094 18.003906 18.496094 17.398438 L 18.496094 10.507812 C 18.496094 7.761719 16.238281 5.503906 13.492188 5.503906 Z M 6.601562 5.503906 "/>
<path fill="none" stroke-width="1.18903" stroke-linecap="butt" stroke-linejoin="miter" stroke="rgb(96.862745%, 56.078431%, 11.764706%)" stroke-opacity="1" stroke-miterlimit="4" d="M 4.401042 4.994792 L 8.997396 4.994792 C 9.260417 4.994792 9.520833 5.046875 9.765625 5.148438 C 10.007812 5.25 10.229167 5.395833 10.416667 5.583333 C 10.604167 5.770833 10.75 5.992188 10.851562 6.234375 C 10.953125 6.479167 11.005208 6.739583 11.005208 7.002604 L 11.005208 11.598958 " transform="matrix(1.5, 0, 0, 1.5, 0, 0)"/>
<path fill-rule="nonzero" fill="rgb(96.862745%, 56.078431%, 11.764706%)" fill-opacity="1" d="M 14.363281 9.636719 L 6.601562 9.636719 L 6.601562 17.398438 L 14.363281 17.398438 Z M 14.363281 9.636719 "/>
</svg>
