<?xml version="1.0" encoding="UTF-8"?>
<svg xmlns="http://www.w3.org/2000/svg" xmlns:xlink="http://www.w3.org/1999/xlink" width="24" height="24" viewBox="0 0 24 24">
<path fill-rule="evenodd" fill="rgb(99.607843%, 99.607843%, 99.607843%)" fill-opacity="1" d="M 7.425781 6.351562 C 6.878906 6.351562 6.417969 6.757812 6.351562 7.300781 L 6.015625 10.09375 C 5.203125 10.304688 4.289062 10.617188 4.289062 10.617188 C 3.128906 11.121094 3.632812 12.867188 4.882812 12.675781 C 5.285156 12.617188 5.398438 12.640625 5.710938 12.628906 L 5.25 16.441406 C 5.171875 17.082031 5.675781 17.648438 6.320312 17.648438 L 9.417969 17.648438 C 9.769531 17.648438 10.09375 17.480469 10.296875 17.195312 C 10.5 17.480469 10.828125 17.648438 11.175781 17.648438 L 12.9375 17.648438 C 13.246094 17.648438 13.542969 17.515625 13.746094 17.28125 C 13.949219 17.515625 14.246094 17.648438 14.554688 17.648438 L 17.628906 17.648438 C 18.265625 17.648438 18.765625 17.097656 18.703125 16.464844 L 18.464844 14.023438 C 19.089844 13.824219 19.632812 13.566406 20.023438 13.132812 C 20.667969 12.445312 20.175781 11.046875 19.027344 11.332031 C 19.023438 11.332031 19.023438 11.335938 19.019531 11.335938 C 19.011719 11.335938 19 11.339844 18.984375 11.34375 C 18.953125 11.351562 18.90625 11.359375 18.847656 11.371094 C 18.734375 11.394531 18.570312 11.425781 18.386719 11.457031 C 18.328125 11.46875 18.28125 11.464844 18.21875 11.472656 L 17.816406 7.324219 C 17.761719 6.773438 17.296875 6.351562 16.742188 6.351562 L 13.359375 6.351562 C 12.898438 6.351562 12.492188 6.640625 12.339844 7.074219 L 11.960938 8.15625 L 11.617188 7.097656 C 11.472656 6.652344 11.058594 6.351562 10.589844 6.351562 Z M 7.425781 6.351562 "/>
<path fill-rule="evenodd" fill="rgb(0%, 0%, 50.196078%)" fill-opacity="1" d="M 7.425781 7.429688 L 7.074219 10.347656 C 7.125 10.347656 10.257812 10.414062 11.804688 11.171875 C 11.808594 11.175781 11.8125 11.175781 11.816406 11.179688 L 10.59375 7.429688 Z M 13.359375 7.429688 L 12.023438 11.261719 C 13.589844 11.984375 15.902344 12.585938 15.902344 12.585938 C 15.902344 12.585938 14.867188 12.566406 11.761719 11.542969 C 10.164062 11.015625 7.4375 10.917969 6.679688 10.992188 C 5.925781 11.070312 4.730469 11.605469 4.730469 11.605469 C 5.621094 11.476562 6.433594 11.398438 6.929688 11.527344 L 6.324219 16.570312 L 9.421875 16.570312 L 9.75 12.53125 L 9.890625 12.53125 L 11.179688 16.570312 L 12.9375 16.570312 L 14.085938 12.980469 L 14.296875 12.980469 L 14.554688 16.570312 L 17.628906 16.570312 L 17.308594 13.277344 L 17.332031 13.230469 C 18.347656 13.039062 18.960938 12.75 19.269531 12.386719 C 19.269531 12.382812 18.054688 12.671875 17.246094 12.632812 L 16.738281 7.429688 Z M 13.359375 7.429688 "/>
</svg>
