<svg width="18" height="18" viewBox="0 0 18 18" fill="none" xmlns="http://www.w3.org/2000/svg">
<path fill-rule="evenodd" clip-rule="evenodd" d="M15 9C15 9 14.3218 9.54257 13.3151 10.2281C11.5883 11.4038 8.89511 13 7 13C4.79086 13 3 11.2091 3 9C3 6.79086 4.79086 5 7 5C8.89511 5 11.5883 6.59619 13.3151 7.77194C14.3218 8.45743 15 9 15 9ZM11.5478 9C11.3952 8.90171 11.2379 8.80244 11.0768 8.70332C10.3141 8.23399 9.5029 7.7897 8.73951 7.46827C7.94337 7.13306 7.35765 7 7 7C5.89543 7 5 7.89543 5 9C5 10.1046 5.89543 11 7 11C7.35765 11 7.94337 10.8669 8.73951 10.5317C9.5029 10.2103 10.3141 9.76601 11.0768 9.29668C11.2379 9.19756 11.3952 9.09829 11.5478 9Z" fill="#F765AF"/>
</svg>
