<?xml version="1.0" encoding="UTF-8"?>
<svg xmlns="http://www.w3.org/2000/svg" xmlns:xlink="http://www.w3.org/1999/xlink" width="24" height="24" viewBox="0 0 24 24">
<path fill-rule="nonzero" fill="rgb(99.607843%, 99.607843%, 99.607843%)" fill-opacity="1" d="M 6.460938 7.355469 C 6.277344 7.351562 6.097656 7.402344 5.9375 7.496094 C 5.78125 7.59375 5.652344 7.730469 5.570312 7.894531 L 5.726562 7.527344 L 4.742188 7.523438 C 4.53125 7.523438 4.328125 7.589844 4.160156 7.710938 C 3.988281 7.832031 3.859375 8.003906 3.792969 8.199219 L 3.710938 8.445312 C 3.6875 8.515625 3.671875 8.589844 3.664062 8.667969 C 3.605469 8.746094 3.5625 8.835938 3.53125 8.929688 L 3.449219 9.179688 C 3.421875 9.253906 3.40625 9.328125 3.402344 9.40625 C 3.351562 9.480469 3.3125 9.558594 3.285156 9.640625 L 3.203125 9.875 C 3.152344 10.015625 3.136719 10.167969 3.152344 10.320312 C 3.035156 10.429688 2.949219 10.566406 2.898438 10.71875 L 2.816406 10.957031 C 2.789062 11.035156 2.773438 11.121094 2.765625 11.203125 C 2.71875 11.273438 2.679688 11.347656 2.652344 11.425781 L 2.5625 11.667969 C 2.535156 11.75 2.515625 11.832031 2.507812 11.917969 C 2.457031 11.992188 2.414062 12.078125 2.386719 12.164062 L 2.304688 12.40625 C 2.273438 12.484375 2.257812 12.570312 2.253906 12.65625 C 2.203125 12.726562 2.164062 12.804688 2.132812 12.886719 L 2.058594 13.09375 C 2.023438 13.183594 2.007812 13.277344 2 13.375 C 1.953125 13.441406 1.914062 13.515625 1.886719 13.59375 L 1.800781 13.835938 C 1.769531 13.917969 1.75 14 1.742188 14.082031 C 1.699219 14.152344 1.660156 14.226562 1.636719 14.304688 L 1.554688 14.53125 C 1.523438 14.617188 1.503906 14.703125 1.496094 14.792969 C 1.441406 14.871094 1.398438 14.957031 1.367188 15.046875 L 1.285156 15.28125 C 1.230469 15.429688 1.214844 15.589844 1.238281 15.75 C 1.261719 15.90625 1.320312 16.054688 1.410156 16.183594 C 1.503906 16.3125 1.625 16.417969 1.765625 16.492188 C 1.90625 16.566406 2.0625 16.605469 2.222656 16.605469 L 10.6875 16.640625 C 10.835938 16.640625 10.984375 16.609375 11.117188 16.542969 C 11.230469 16.589844 11.351562 16.609375 11.476562 16.609375 L 15.105469 16.625 C 15.238281 16.628906 15.367188 16.601562 15.488281 16.554688 C 15.609375 16.601562 15.738281 16.628906 15.871094 16.628906 L 19.5 16.648438 C 19.707031 16.648438 19.90625 16.585938 20.078125 16.464844 C 20.246094 16.347656 20.375 16.179688 20.441406 15.988281 L 22.136719 11.28125 C 22.171875 11.175781 22.195312 11.070312 22.195312 10.960938 C 22.25 10.902344 22.300781 10.835938 22.339844 10.765625 C 22.75 10.039062 22.9375 9.238281 22.59375 8.527344 C 22.25 7.816406 21.542969 7.519531 20.917969 7.417969 C 19.859375 7.242188 18.695312 7.511719 17.597656 7.953125 C 17.050781 7.578125 16.414062 7.363281 15.75 7.355469 C 15.199219 7.351562 14.605469 7.585938 14.023438 7.730469 C 13.929688 7.621094 13.816406 7.535156 13.6875 7.472656 C 13.554688 7.414062 13.414062 7.382812 13.273438 7.382812 Z M 6.460938 7.355469 "/>
<path fill-rule="nonzero" fill="rgb(92.941176%, 10.980392%, 18.039216%)" fill-opacity="1" d="M 4.734375 8.519531 L 6.382812 8.527344 L 6.457031 8.351562 L 13.269531 8.378906 L 13.078125 8.933594 C 14.875 8.164062 16.925781 8.117188 17.4375 9.050781 C 19.605469 8 22.777344 7.96875 21.472656 10.273438 L 17.855469 10.261719 C 18.214844 9.660156 17.34375 9.664062 17.066406 10.257812 C 15.867188 10.25 14.664062 10.246094 13.472656 10.242188 C 13.722656 9.695312 13.050781 9.585938 12.640625 10.238281 L 4.140625 10.203125 L 4.222656 9.96875 L 5.84375 9.972656 L 5.910156 9.804688 L 9.148438 9.820312 L 9.257812 9.503906 L 4.394531 9.488281 L 4.476562 9.238281 L 6.109375 9.246094 L 6.15625 9.085938 L 9.394531 9.097656 L 9.519531 8.773438 L 4.65625 8.761719 L 4.734375 8.519531 "/>
<path fill-rule="nonzero" fill="rgb(92.941176%, 10.980392%, 18.039216%)" fill-opacity="1" d="M 3.839844 11.039062 L 5.417969 11.042969 L 5.496094 10.871094 L 12.375 10.898438 L 10.6875 15.644531 L 2.222656 15.609375 L 2.304688 15.375 L 3.84375 15.394531 L 3.945312 15.183594 L 7.25 15.191406 L 7.351562 14.894531 L 2.488281 14.867188 L 2.570312 14.640625 L 4.128906 14.652344 L 4.191406 14.480469 L 7.488281 14.492188 L 7.597656 14.195312 L 2.734375 14.175781 L 2.824219 13.933594 L 4.390625 13.9375 L 4.457031 13.75 L 7.742188 13.777344 L 7.859375 13.460938 L 2.996094 13.433594 L 3.070312 13.226562 L 4.65625 13.234375 L 4.730469 13.03125 L 7.996094 13.050781 L 8.109375 12.75 L 3.246094 12.726562 L 3.328125 12.484375 L 4.882812 12.492188 L 4.949219 12.324219 L 8.246094 12.335938 L 8.363281 12.027344 L 3.5 12.007812 L 3.589844 11.765625 L 5.148438 11.769531 L 5.195312 11.601562 L 8.5 11.617188 L 8.617188 11.300781 L 3.757812 11.28125 Z M 3.839844 11.039062 "/>
<path fill-rule="nonzero" fill="rgb(92.941176%, 10.980392%, 18.039216%)" fill-opacity="1" d="M 13.191406 10.90625 L 16.800781 10.921875 L 15.105469 15.628906 L 11.476562 15.617188 Z M 13.191406 10.90625 "/>
<path fill-rule="nonzero" fill="rgb(92.941176%, 10.980392%, 18.039216%)" fill-opacity="1" d="M 17.589844 10.925781 L 21.199219 10.941406 L 19.503906 15.648438 L 15.875 15.632812 Z M 17.589844 10.925781 "/>
</svg>
