<svg width="32" height="32" viewBox="0 0 16 16" fill="none" xmlns="http://www.w3.org/2000/svg">
<path d="M4.40039 3.66993C3.99684 3.66963 3.66962 3.99684 3.66992 4.4004V5.58985C3.67074 5.7316 3.71282 5.87005 3.79102 5.98829C3.70279 6.11133 3.65501 6.25876 3.6543 6.41016V6.42579V11.6152C3.654 12.0188 3.98121 12.346 4.38477 12.3457C11.5935 12.3286 4.408 12.3301 11.5996 12.3301C12.0032 12.3304 12.3304 12.0032 12.3301 11.5996V7.00391C12.3301 5.17439 10.8256 3.66992 8.99609 3.66992L4.40039 3.66993Z" fill="#FEFEFE"/>
<path d="M4.40076 4.9953H8.9962C9.25996 4.9953 9.52114 5.04725 9.76482 5.14819C10.0085 5.24912 10.2299 5.39707 10.4164 5.58358C10.6029 5.77008 10.7509 5.9915 10.8518 6.23518C10.9528 6.47886 11.0047 6.74004 11.0047 7.0038V11.5992" stroke="#F78F1E" stroke-width="1.18903"/>
<path d="M9.57465 6.42532H4.40076V11.5992H9.57465V6.42532Z" fill="#F78F1E"/>
</svg>
