<?xml version="1.0" encoding="UTF-8"?>
<svg xmlns="http://www.w3.org/2000/svg" xmlns:xlink="http://www.w3.org/1999/xlink" width="64" height="64" viewBox="0 0 64 64">
<defs>
<filter id="filter-remove-color" x="0%" y="0%" width="100%" height="100%">
<feColorMatrix color-interpolation-filters="sRGB" values="0 0 0 0 1 0 0 0 0 1 0 0 0 0 1 0 0 0 1 0" />
</filter>
<mask id="mask-0">
<g filter="url(#filter-remove-color)">
<rect x="-6.4" y="-6.4" width="76.8" height="76.8" fill="rgb(0%, 0%, 0%)" fill-opacity="0.41791"/>
</g>
</mask>
<clipPath id="clip-0">
<path clip-rule="nonzero" d="M 1 0 L 49 0 L 49 47 L 1 47 Z M 1 0 "/>
</clipPath>
<clipPath id="clip-1">
<rect x="0" y="0" width="64" height="64"/>
</clipPath>
<g id="source-6" clip-path="url(#clip-1)">
<g clip-path="url(#clip-0)">
<path fill="none" stroke-width="57.158501" stroke-linecap="butt" stroke-linejoin="miter" stroke="rgb(18.039216%, 0%, 100%)" stroke-opacity="1" stroke-miterlimit="4" d="M 472.74292 449.581299 L 354.411621 274.057617 " transform="matrix(0.0603774, 0, 0, 0.0603774, 0, 0)"/>
</g>
</g>
<mask id="mask-1">
<g filter="url(#filter-remove-color)">
<rect x="-6.4" y="-6.4" width="76.8" height="76.8" fill="rgb(0%, 0%, 0%)" fill-opacity="0.417722"/>
</g>
</mask>
<clipPath id="clip-2">
<rect x="0" y="0" width="64" height="64"/>
</clipPath>
<g id="source-10" clip-path="url(#clip-2)">
<path fill-rule="nonzero" fill="rgb(18.039216%, 0%, 100%)" fill-opacity="1" d="M 17.464844 26.320312 C 17.464844 26.980469 17.203125 27.613281 16.734375 28.082031 C 16.265625 28.550781 15.632812 28.8125 14.972656 28.8125 C 14.3125 28.8125 13.679688 28.550781 13.210938 28.082031 C 12.746094 27.613281 12.480469 26.980469 12.480469 26.320312 C 12.480469 25.660156 12.746094 25.027344 13.210938 24.558594 C 13.679688 24.09375 14.3125 23.828125 14.972656 23.828125 C 15.632812 23.828125 16.265625 24.09375 16.734375 24.558594 C 17.203125 25.027344 17.464844 25.660156 17.464844 26.320312 Z M 17.464844 26.320312 "/>
</g>
<mask id="mask-2">
<g filter="url(#filter-remove-color)">
<rect x="-6.4" y="-6.4" width="76.8" height="76.8" fill="rgb(0%, 0%, 0%)" fill-opacity="0.417722"/>
</g>
</mask>
<clipPath id="clip-3">
<rect x="0" y="0" width="64" height="64"/>
</clipPath>
<g id="source-14" clip-path="url(#clip-3)">
<path fill-rule="nonzero" fill="rgb(18.039216%, 0%, 100%)" fill-opacity="1" d="M 22.5625 38.03125 C 22.5625 38.570312 22.347656 39.082031 21.96875 39.460938 C 21.589844 39.839844 21.078125 40.050781 20.542969 40.050781 C 20.007812 40.050781 19.492188 39.839844 19.117188 39.460938 C 18.738281 39.082031 18.523438 38.570312 18.523438 38.03125 C 18.523438 37.496094 18.738281 36.984375 19.117188 36.605469 C 19.492188 36.226562 20.007812 36.015625 20.542969 36.015625 C 21.078125 36.015625 21.589844 36.226562 21.96875 36.605469 C 22.347656 36.984375 22.5625 37.496094 22.5625 38.03125 Z M 22.5625 38.03125 "/>
</g>
<mask id="mask-3">
<g filter="url(#filter-remove-color)">
<rect x="-6.4" y="-6.4" width="76.8" height="76.8" fill="rgb(0%, 0%, 0%)" fill-opacity="0.417722"/>
</g>
</mask>
<clipPath id="clip-4">
<rect x="0" y="0" width="64" height="64"/>
</clipPath>
<g id="source-18" clip-path="url(#clip-4)">
<path fill-rule="nonzero" fill="rgb(18.039216%, 0%, 100%)" fill-opacity="1" d="M 46.148438 45.027344 C 46.148438 45.589844 45.925781 46.128906 45.527344 46.523438 C 45.128906 46.921875 44.589844 47.144531 44.027344 47.144531 C 43.46875 47.144531 42.929688 46.921875 42.53125 46.523438 C 42.132812 46.128906 41.910156 45.589844 41.910156 45.027344 C 41.910156 44.464844 42.132812 43.925781 42.53125 43.527344 C 42.929688 43.128906 43.46875 42.90625 44.027344 42.90625 C 44.589844 42.90625 45.128906 43.128906 45.527344 43.527344 C 45.925781 43.925781 46.148438 44.464844 46.148438 45.027344 Z M 46.148438 45.027344 "/>
</g>
<mask id="mask-4">
<g filter="url(#filter-remove-color)">
<rect x="-6.4" y="-6.4" width="76.8" height="76.8" fill="rgb(0%, 0%, 0%)" fill-opacity="0.417722"/>
</g>
</mask>
<clipPath id="clip-5">
<rect x="0" y="0" width="64" height="64"/>
</clipPath>
<g id="source-22" clip-path="url(#clip-5)">
<path fill-rule="nonzero" fill="rgb(18.039216%, 0%, 100%)" fill-opacity="1" d="M 24.890625 47.265625 C 24.890625 47.824219 24.667969 48.363281 24.269531 48.761719 C 23.871094 49.160156 23.332031 49.382812 22.769531 49.382812 C 22.207031 49.382812 21.667969 49.160156 21.273438 48.761719 C 20.875 48.363281 20.652344 47.824219 20.652344 47.265625 C 20.652344 46.703125 20.875 46.164062 21.273438 45.765625 C 21.667969 45.367188 22.207031 45.144531 22.769531 45.144531 C 23.332031 45.144531 23.871094 45.367188 24.269531 45.765625 C 24.667969 46.164062 24.890625 46.703125 24.890625 47.265625 Z M 24.890625 47.265625 "/>
</g>
</defs>
<g mask="url(#mask-0)">
<use xlink:href="#source-6"/>
</g>
<g mask="url(#mask-1)">
<use xlink:href="#source-10"/>
</g>
<g mask="url(#mask-2)">
<use xlink:href="#source-14"/>
</g>
<g mask="url(#mask-3)">
<use xlink:href="#source-18"/>
</g>
<g mask="url(#mask-4)">
<use xlink:href="#source-22"/>
</g>
</svg>
