<?xml version="1.0" encoding="UTF-8"?>
<svg xmlns="http://www.w3.org/2000/svg" xmlns:xlink="http://www.w3.org/1999/xlink" width="24" height="24" viewBox="0 0 24 24">
<path fill="none" stroke-width="1.27" stroke-linecap="butt" stroke-linejoin="round" stroke="rgb(50.196078%, 0%, 0%)" stroke-opacity="1" stroke-miterlimit="4" d="M 2.972867 8.697216 C 4.281337 10.411969 5.589807 12.120747 6.83853 12.987086 C 8.087253 13.871349 9.282203 13.907198 10.471178 13.949021 " transform="matrix(0.653793, 0, 0, 0.653793, -0.0608276, 6.372414)"/>
<path fill="none" stroke-width="1.27" stroke-linecap="butt" stroke-linejoin="round" stroke="rgb(50.196078%, 0%, 0%)" stroke-opacity="1" stroke-miterlimit="4" d="M 25.198935 8.452251 C 26.87784 6.767372 28.550769 5.088467 30.331245 4.712058 C 32.099771 4.329674 33.981817 5.237836 35.857888 6.151973 " transform="matrix(0.653793, 0, 0, 0.653793, -0.0608276, 6.372414)"/>
<path fill="none" stroke-width="1.27" stroke-linecap="butt" stroke-linejoin="round" stroke="rgb(50.196078%, 0%, 0%)" stroke-opacity="1" stroke-miterlimit="4" d="M 17.999362 12.001252 C 19.971029 10.441843 21.942697 8.870484 24.117505 8.500049 C 26.310238 8.117665 29.351386 9.617327 31.119912 9.748772 C 32.888437 9.868267 33.820498 9.55758 34.752559 9.252868 " transform="matrix(0.653793, 0, 0, 0.653793, -0.0608276, 6.372414)"/>
<path fill="none" stroke-width="1.27" stroke-linecap="butt" stroke-linejoin="round" stroke="rgb(50.196078%, 0%, 0%)" stroke-opacity="1" stroke-miterlimit="4" d="M 15.800654 6.169897 C 17.061326 4.909225 18.310049 3.648553 19.642418 3.361765 C 20.980762 3.069002 22.390803 3.762073 23.800844 4.43722 " transform="matrix(0.653793, 0, 0, 0.653793, -0.0608276, 6.372414)"/>
<path fill="none" stroke-width="1.27" stroke-linecap="butt" stroke-linejoin="round" stroke="rgb(50.196078%, 0%, 0%)" stroke-opacity="1" stroke-miterlimit="4" d="M 10.399481 8.822686 C 11.881219 7.651635 13.351007 6.480584 14.988088 6.199771 C 16.631144 5.918958 18.919473 7.04221 20.239893 7.131832 C 21.572262 7.227428 22.271308 6.988438 22.958404 6.761397 " transform="matrix(0.653793, 0, 0, 0.653793, -0.0608276, 6.372414)"/>
<path fill="none" stroke-width="1.27" stroke-linecap="butt" stroke-linejoin="round" stroke="rgb(50.196078%, 0%, 0%)" stroke-opacity="1" stroke-miterlimit="4" d="M 0.971326 9.31859 C 3.420973 8.529923 5.88257 7.741256 9.407672 8.452251 C 12.932774 9.157272 18.728281 12.77797 22.10999 13.572612 C 25.509622 14.361279 27.648582 13.781728 29.787542 13.202177 " transform="matrix(0.653793, 0, 0, 0.653793, -0.0608276, 6.372414)"/>
</svg>
