<?xml version="1.0" encoding="UTF-8"?>
<svg xmlns="http://www.w3.org/2000/svg" xmlns:xlink="http://www.w3.org/1999/xlink" width="12" height="12" viewBox="0 0 12 12" version="1.1">
<defs>
<filter id="alpha" filterUnits="objectBoundingBox" x="0%" y="0%" width="100%" height="100%">
  <feColorMatrix type="matrix" in="SourceGraphic" values="0 0 0 0 1 0 0 0 0 1 0 0 0 0 1 0 0 0 1 0"/>
</filter>
<mask id="mask0">
  <g filter="url(#alpha)">
<rect x="0" y="0" width="12" height="12" style="fill:rgb(0%,0%,0%);fill-opacity:0.726519;stroke:none;"/>
  </g>
</mask>
<clipPath id="clip1">
  <rect x="0" y="0" width="12" height="12"/>
</clipPath>
<g id="surface5" clip-path="url(#clip1)">
<path style=" stroke:none;fill-rule:nonzero;fill:rgb(99.607843%,99.607843%,99.607843%);fill-opacity:1;" d="M 4.242188 2.847656 C 4.222656 2.847656 4.214844 2.851562 4.199219 2.851562 C 4.199219 2.847656 4.191406 2.851562 4.183594 2.851562 C 4.058594 2.859375 4.058594 2.894531 4.042969 2.90625 C 4.015625 2.921875 4 2.9375 3.988281 2.945312 C 3.96875 2.960938 3.957031 2.972656 3.945312 2.988281 C 3.917969 3.011719 3.894531 3.039062 3.863281 3.070312 C 3.777344 3.167969 3.652344 3.3125 3.480469 3.519531 C 3.207031 3.847656 2.691406 4.539062 2.394531 4.976562 C 1.988281 5.511719 1.613281 6.164062 1.367188 6.789062 C 1.367188 6.796875 1.367188 6.800781 1.363281 6.808594 C 1.320312 6.8125 1.257812 6.835938 1.179688 6.910156 C 1.097656 6.984375 1.058594 7.125 1.066406 7.210938 C 1.078125 7.292969 1.101562 7.332031 1.121094 7.359375 C 1.152344 7.410156 1.171875 7.421875 1.1875 7.4375 C 1.214844 7.464844 1.230469 7.472656 1.25 7.488281 C 1.332031 7.542969 1.363281 7.554688 1.449219 7.601562 C 1.535156 7.644531 1.648438 7.703125 1.761719 7.761719 C 1.996094 7.878906 2.25 8.003906 2.40625 8.074219 C 3.667969 8.65625 5.195312 9.046875 6.554688 9.136719 C 6.890625 9.160156 7.769531 9.15625 8.085938 9.128906 C 8.921875 9.050781 9.492188 8.941406 10.058594 8.742188 C 10.277344 8.667969 10.429688 8.609375 10.5625 8.527344 C 10.699219 8.445312 10.816406 8.308594 10.871094 8.179688 C 10.984375 7.914062 10.933594 7.632812 10.824219 7.355469 C 10.71875 7.078125 10.535156 6.785156 10.289062 6.460938 C 10.183594 6.324219 10.082031 6.195312 10.011719 6.117188 C 9.972656 6.074219 9.878906 5.972656 9.808594 5.890625 C 9.625 5.6875 9.339844 5.40625 9.121094 5.210938 C 8.636719 4.558594 8.148438 3.910156 7.652344 3.296875 C 7.585938 3.214844 7.527344 3.148438 7.476562 3.085938 C 7.46875 3.078125 7.457031 3.0625 7.460938 3.066406 C 7.433594 3.035156 7.410156 3.003906 7.378906 2.976562 C 7.351562 2.945312 7.335938 2.917969 7.234375 2.878906 L 7.296875 2.910156 C 7.289062 2.902344 7.277344 2.894531 7.253906 2.886719 C 7.230469 2.875 7.203125 2.847656 7.097656 2.847656 C 6.96875 2.847656 6.9375 2.878906 6.902344 2.898438 C 6.863281 2.917969 6.832031 2.933594 6.800781 2.957031 C 6.738281 2.996094 6.671875 3.046875 6.601562 3.105469 C 6.457031 3.222656 6.296875 3.367188 6.15625 3.515625 C 5.921875 3.757812 5.796875 3.902344 5.644531 4.09375 C 5.433594 3.816406 5.203125 3.542969 5.003906 3.351562 C 4.890625 3.242188 4.765625 3.136719 4.65625 3.050781 C 4.601562 3.007812 4.554688 2.972656 4.503906 2.9375 C 4.480469 2.921875 4.457031 2.910156 4.421875 2.894531 C 4.390625 2.878906 4.371094 2.847656 4.242188 2.847656 Z M 4.242188 2.847656 "/>
</g>
</defs>
<g id="surface1">
<use xlink:href="#surface5" mask="url(#mask0)"/>
<path style=" stroke:none;fill-rule:nonzero;fill:rgb(91.37255%,80.784315%,64.705884%);fill-opacity:1;" d="M 6.578125 8.785156 C 5.269531 8.699219 3.769531 8.316406 2.550781 7.757812 C 2.265625 7.625 1.523438 7.25 1.453125 7.199219 C 1.34375 7.125 1.488281 7.183594 1.796875 7.335938 C 2.230469 7.554688 2.476562 7.660156 2.992188 7.863281 C 3.175781 7.9375 3.292969 7.976562 3.742188 8.121094 C 4.519531 8.371094 5.417969 8.523438 6.230469 8.546875 C 6.925781 8.566406 7.339844 8.527344 8.199219 8.363281 C 8.554688 8.296875 9.359375 8.054688 9.539062 7.960938 C 9.714844 7.867188 9.777344 7.554688 9.679688 7.277344 C 9.652344 7.207031 9.640625 7.144531 9.644531 7.136719 C 9.652344 7.128906 9.644531 7.125 9.628906 7.125 C 9.597656 7.125 8.871094 7.265625 8.339844 7.375 C 8.160156 7.410156 8.003906 7.441406 7.992188 7.441406 C 7.980469 7.441406 7.917969 7.332031 7.855469 7.203125 C 7.796875 7.070312 7.738281 6.964844 7.730469 6.964844 C 7.726562 6.964844 7.726562 7.007812 7.730469 7.0625 C 7.75 7.199219 7.707031 7.28125 7.550781 7.425781 L 7.414062 7.550781 L 6.746094 7.554688 C 6.023438 7.558594 6.117188 7.566406 4.976562 7.386719 C 3.941406 7.21875 3.46875 7.144531 3.453125 7.144531 C 3.445312 7.144531 3.414062 7.199219 3.382812 7.265625 C 3.351562 7.332031 3.316406 7.398438 3.304688 7.414062 C 3.289062 7.4375 3.128906 7.414062 2.539062 7.304688 C 2.128906 7.226562 1.757812 7.160156 1.71875 7.152344 C 1.625 7.136719 1.625 7.105469 1.695312 6.914062 C 1.804688 6.628906 2.207031 5.882812 2.433594 5.546875 C 2.460938 5.511719 2.472656 5.472656 2.464844 5.457031 C 2.460938 5.445312 2.460938 5.441406 2.472656 5.449219 C 2.480469 5.460938 2.578125 5.335938 2.6875 5.175781 C 2.972656 4.75 3.492188 4.046875 3.75 3.742188 C 4.0625 3.367188 4.214844 3.199219 4.242188 3.199219 C 4.289062 3.199219 4.550781 3.402344 4.761719 3.605469 C 4.972656 3.8125 5.261719 4.15625 5.496094 4.480469 C 5.574219 4.589844 5.640625 4.675781 5.644531 4.671875 C 5.648438 4.664062 5.734375 4.554688 5.832031 4.425781 C 6.035156 4.15625 6.132812 4.046875 6.40625 3.757812 C 6.664062 3.492188 7.023438 3.199219 7.097656 3.199219 C 7.109375 3.199219 7.238281 3.34375 7.378906 3.515625 C 7.53125 3.703125 7.644531 3.828125 7.660156 3.820312 C 7.675781 3.8125 7.679688 3.816406 7.667969 3.828125 C 7.648438 3.863281 8.242188 4.652344 8.273438 4.636719 C 8.289062 4.628906 8.289062 4.632812 8.28125 4.648438 C 8.269531 4.664062 8.292969 4.71875 8.339844 4.773438 C 8.382812 4.828125 8.484375 4.976562 8.574219 5.105469 C 8.667969 5.242188 8.796875 5.390625 8.890625 5.476562 C 9.089844 5.65625 9.378906 5.9375 9.546875 6.125 C 9.621094 6.207031 9.710938 6.308594 9.753906 6.351562 C 9.792969 6.394531 9.910156 6.542969 10.011719 6.675781 C 10.476562 7.285156 10.664062 7.765625 10.546875 8.046875 C 10.484375 8.191406 10.371094 8.261719 9.941406 8.414062 C 9.40625 8.601562 8.871094 8.703125 8.050781 8.777344 C 7.824219 8.800781 6.855469 8.804688 6.578125 8.785156 Z M 8.0625 8.738281 C 8.191406 8.714844 8.21875 8.699219 8.246094 8.628906 C 8.257812 8.597656 8.277344 8.578125 8.289062 8.585938 C 8.304688 8.59375 8.320312 8.585938 8.328125 8.566406 C 8.335938 8.546875 8.359375 8.53125 8.382812 8.53125 C 8.40625 8.53125 8.425781 8.519531 8.425781 8.511719 C 8.425781 8.5 8.398438 8.496094 8.363281 8.5 L 8.300781 8.507812 L 8.363281 8.476562 C 8.417969 8.453125 8.421875 8.445312 8.386719 8.421875 C 8.363281 8.40625 8.359375 8.398438 8.375 8.40625 C 8.410156 8.421875 8.480469 8.390625 8.453125 8.371094 C 8.4375 8.363281 8.3125 8.378906 8.171875 8.410156 C 7.59375 8.523438 7.027344 8.582031 6.433594 8.585938 C 6.035156 8.585938 5.960938 8.589844 6.015625 8.613281 C 6.050781 8.628906 6.097656 8.640625 6.121094 8.640625 C 6.15625 8.644531 6.160156 8.648438 6.140625 8.667969 C 6.121094 8.6875 6.105469 8.6875 6.085938 8.671875 C 6.039062 8.632812 5.878906 8.617188 5.804688 8.644531 L 5.738281 8.664062 L 5.820312 8.660156 C 5.867188 8.65625 5.902344 8.660156 5.894531 8.667969 C 5.886719 8.683594 6.296875 8.730469 6.691406 8.757812 C 7.011719 8.777344 7.898438 8.765625 8.0625 8.738281 Z M 5.710938 8.628906 C 5.695312 8.621094 5.667969 8.621094 5.652344 8.628906 C 5.636719 8.632812 5.648438 8.640625 5.679688 8.640625 C 5.710938 8.640625 5.726562 8.632812 5.710938 8.628906 Z M 5.5625 8.605469 C 5.554688 8.597656 5.535156 8.597656 5.519531 8.605469 C 5.5 8.613281 5.503906 8.617188 5.53125 8.617188 C 5.554688 8.621094 5.570312 8.613281 5.5625 8.605469 Z M 5.425781 8.5625 C 5.425781 8.546875 5.417969 8.53125 5.40625 8.53125 C 5.382812 8.53125 5.363281 8.566406 5.378906 8.582031 C 5.40625 8.609375 5.425781 8.597656 5.425781 8.5625 Z M 5.925781 8.585938 C 5.917969 8.578125 5.898438 8.574219 5.882812 8.582031 C 5.863281 8.589844 5.867188 8.59375 5.894531 8.597656 C 5.917969 8.597656 5.933594 8.59375 5.925781 8.585938 Z M 5.339844 8.566406 C 5.339844 8.542969 5.019531 8.480469 5 8.5 C 4.984375 8.511719 5.011719 8.523438 5.070312 8.527344 C 5.121094 8.53125 5.183594 8.539062 5.210938 8.550781 C 5.265625 8.574219 5.339844 8.582031 5.339844 8.566406 Z M 4.851562 8.460938 C 4.890625 8.445312 4.886719 8.441406 4.832031 8.445312 C 4.792969 8.445312 4.742188 8.4375 4.71875 8.421875 C 4.691406 8.410156 4.601562 8.386719 4.519531 8.375 C 4.433594 8.359375 4.347656 8.339844 4.328125 8.332031 C 4.304688 8.324219 4.292969 8.324219 4.300781 8.335938 C 4.3125 8.347656 4.75 8.476562 4.796875 8.480469 C 4.804688 8.480469 4.828125 8.472656 4.851562 8.460938 Z M 8.898438 8.242188 C 8.890625 8.238281 8.871094 8.234375 8.851562 8.242188 C 8.835938 8.25 8.839844 8.253906 8.867188 8.257812 C 8.890625 8.257812 8.902344 8.25 8.898438 8.242188 Z M 9.75 6.941406 C 9.753906 6.917969 9.75 6.902344 9.738281 6.910156 C 9.730469 6.917969 9.71875 6.9375 9.71875 6.953125 C 9.71875 7 9.734375 6.996094 9.75 6.941406 Z M 9.800781 6.757812 C 9.902344 6.640625 9.914062 6.640625 9.964844 6.722656 C 9.992188 6.761719 10.015625 6.78125 10.015625 6.769531 C 10.015625 6.753906 9.972656 6.691406 9.921875 6.628906 C 9.875 6.5625 9.832031 6.503906 9.832031 6.496094 C 9.832031 6.46875 9.664062 6.308594 9.648438 6.320312 C 9.636719 6.328125 9.632812 6.316406 9.640625 6.300781 C 9.65625 6.257812 9.050781 5.636719 9.015625 5.660156 C 8.996094 5.671875 8.992188 5.667969 9 5.65625 C 9.015625 5.632812 8.972656 5.585938 8.871094 5.511719 C 8.839844 5.492188 8.851562 5.519531 8.902344 5.59375 C 8.945312 5.65625 8.988281 5.710938 9 5.71875 C 9.011719 5.726562 9.019531 5.738281 9.019531 5.746094 C 9.015625 5.785156 9.046875 5.828125 9.066406 5.816406 C 9.082031 5.808594 9.085938 5.8125 9.074219 5.828125 C 9.054688 5.859375 9.128906 5.96875 9.160156 5.953125 C 9.171875 5.941406 9.175781 5.949219 9.167969 5.960938 C 9.15625 5.976562 9.210938 6.09375 9.285156 6.222656 C 9.359375 6.347656 9.453125 6.523438 9.496094 6.605469 C 9.535156 6.691406 9.578125 6.753906 9.589844 6.746094 C 9.601562 6.738281 9.605469 6.75 9.597656 6.777344 C 9.589844 6.804688 9.597656 6.835938 9.625 6.863281 C 9.648438 6.890625 9.664062 6.925781 9.65625 6.941406 C 9.652344 6.960938 9.667969 6.945312 9.691406 6.90625 C 9.710938 6.867188 9.761719 6.800781 9.800781 6.757812 Z M 7.429688 6.875 C 7.429688 6.832031 7.414062 6.828125 7.097656 6.828125 C 6.917969 6.828125 6.761719 6.824219 6.753906 6.824219 C 6.742188 6.820312 6.734375 6.839844 6.730469 6.867188 L 6.722656 6.917969 L 7.074219 6.917969 C 7.414062 6.917969 7.429688 6.917969 7.429688 6.875 Z M 6.542969 6.851562 C 6.542969 6.839844 6.535156 6.828125 6.519531 6.828125 C 6.507812 6.828125 6.5 6.839844 6.5 6.851562 C 6.5 6.863281 6.507812 6.875 6.519531 6.875 C 6.535156 6.875 6.542969 6.863281 6.542969 6.851562 Z M 6.65625 6.851562 C 6.65625 6.839844 6.648438 6.828125 6.632812 6.828125 C 6.621094 6.828125 6.613281 6.839844 6.613281 6.851562 C 6.613281 6.863281 6.621094 6.875 6.632812 6.875 C 6.648438 6.875 6.65625 6.863281 6.65625 6.851562 Z M 7.519531 6.851562 C 7.519531 6.839844 7.507812 6.828125 7.496094 6.828125 C 7.484375 6.828125 7.472656 6.839844 7.472656 6.851562 C 7.472656 6.863281 7.484375 6.875 7.496094 6.875 C 7.507812 6.875 7.519531 6.863281 7.519531 6.851562 Z M 7.609375 6.851562 C 7.609375 6.839844 7.597656 6.828125 7.585938 6.828125 C 7.574219 6.828125 7.566406 6.839844 7.574219 6.851562 C 7.582031 6.863281 7.59375 6.875 7.601562 6.875 C 7.605469 6.875 7.609375 6.863281 7.609375 6.851562 Z M 3.695312 6.804688 C 3.738281 6.789062 3.738281 6.785156 3.683594 6.785156 C 3.652344 6.785156 3.613281 6.792969 3.59375 6.804688 C 3.566406 6.824219 3.566406 6.828125 3.605469 6.828125 C 3.628906 6.824219 3.671875 6.816406 3.695312 6.804688 Z M 4.417969 6.761719 C 4.449219 6.761719 4.480469 6.75 4.480469 6.734375 C 4.480469 6.710938 4.449219 6.710938 4.042969 6.753906 C 3.828125 6.773438 3.894531 6.796875 4.132812 6.78125 C 4.253906 6.773438 4.382812 6.765625 4.417969 6.761719 Z M 9.929688 6.738281 C 9.921875 6.714844 9.910156 6.699219 9.898438 6.707031 C 9.882812 6.714844 9.886719 6.730469 9.902344 6.75 C 9.9375 6.792969 9.945312 6.792969 9.929688 6.738281 Z M 3.726562 6.675781 C 3.730469 6.621094 3.726562 6.605469 3.699219 6.613281 C 3.671875 6.625 3.617188 6.714844 3.617188 6.75 C 3.617188 6.757812 3.640625 6.761719 3.667969 6.757812 C 3.707031 6.75 3.722656 6.730469 3.726562 6.675781 Z M 3.792969 6.652344 C 3.785156 6.632812 3.78125 6.644531 3.78125 6.679688 C 3.78125 6.71875 3.785156 6.738281 3.789062 6.722656 C 3.796875 6.707031 3.796875 6.675781 3.792969 6.652344 Z M 3.859375 6.628906 C 3.855469 6.609375 3.847656 6.625 3.847656 6.667969 C 3.847656 6.714844 3.855469 6.730469 3.859375 6.710938 C 3.867188 6.6875 3.867188 6.652344 3.859375 6.628906 Z M 3.984375 6.648438 C 3.992188 6.570312 3.984375 6.554688 3.953125 6.554688 C 3.921875 6.554688 3.910156 6.574219 3.910156 6.632812 C 3.910156 6.675781 3.925781 6.714844 3.941406 6.722656 C 3.957031 6.730469 3.96875 6.734375 3.972656 6.734375 C 3.972656 6.738281 3.980469 6.695312 3.984375 6.648438 Z M 5.214844 6.703125 C 5.441406 6.683594 5.632812 6.671875 5.640625 6.671875 C 5.652344 6.667969 5.660156 6.652344 5.660156 6.632812 C 5.660156 6.601562 5.636719 6.597656 5.484375 6.613281 C 5.386719 6.621094 5.179688 6.640625 5.027344 6.65625 C 4.839844 6.671875 4.742188 6.691406 4.734375 6.710938 C 4.722656 6.746094 4.71875 6.746094 5.214844 6.703125 Z M 4.203125 6.597656 C 4.207031 6.496094 4.207031 6.488281 4.15625 6.488281 C 4.078125 6.488281 4.046875 6.53125 4.046875 6.628906 C 4.046875 6.714844 4.050781 6.71875 4.121094 6.710938 C 4.191406 6.703125 4.195312 6.699219 4.203125 6.597656 Z M 4.429688 6.671875 C 4.449219 6.660156 4.457031 6.617188 4.453125 6.542969 C 4.445312 6.433594 4.445312 6.433594 4.378906 6.441406 C 4.277344 6.449219 4.253906 6.480469 4.253906 6.59375 C 4.253906 6.691406 4.253906 6.691406 4.324219 6.691406 C 4.367188 6.691406 4.414062 6.683594 4.429688 6.671875 Z M 4.59375 6.554688 C 4.59375 6.480469 4.582031 6.421875 4.570312 6.421875 C 4.558594 6.421875 4.546875 6.480469 4.546875 6.554688 C 4.546875 6.632812 4.558594 6.691406 4.570312 6.691406 C 4.582031 6.691406 4.59375 6.632812 4.59375 6.554688 Z M 4.683594 6.570312 C 4.683594 6.515625 4.691406 6.453125 4.695312 6.433594 C 4.707031 6.410156 4.699219 6.398438 4.675781 6.398438 C 4.644531 6.398438 4.636719 6.421875 4.636719 6.535156 C 4.636719 6.609375 4.648438 6.667969 4.660156 6.667969 C 4.671875 6.667969 4.683594 6.625 4.683594 6.570312 Z M 4.894531 6.59375 C 4.914062 6.558594 4.914062 6.335938 4.894531 6.320312 C 4.882812 6.316406 4.851562 6.320312 4.824219 6.332031 C 4.777344 6.347656 4.773438 6.367188 4.773438 6.5 C 4.773438 6.644531 4.777344 6.648438 4.824219 6.632812 C 4.851562 6.625 4.882812 6.605469 4.894531 6.59375 Z M 6.382812 6.5625 C 6.382812 6.523438 6.375 6.511719 6.34375 6.519531 C 6.324219 6.523438 6.246094 6.535156 6.175781 6.542969 C 6.074219 6.554688 6.042969 6.566406 6.042969 6.597656 C 6.042969 6.628906 6.066406 6.632812 6.214844 6.628906 C 6.378906 6.621094 6.382812 6.617188 6.382812 6.5625 Z M 5.199219 6.589844 C 5.203125 6.589844 5.207031 6.511719 5.210938 6.417969 L 5.214844 6.25 L 5.148438 6.253906 C 4.992188 6.265625 4.984375 6.273438 4.972656 6.421875 C 4.953125 6.613281 4.960938 6.621094 5.085938 6.605469 C 5.144531 6.601562 5.195312 6.59375 5.199219 6.589844 Z M 5.578125 6.535156 C 5.605469 6.503906 5.613281 6.457031 5.609375 6.328125 C 5.601562 6.164062 5.601562 6.160156 5.542969 6.164062 C 5.511719 6.164062 5.445312 6.179688 5.394531 6.191406 L 5.300781 6.214844 L 5.285156 6.375 C 5.277344 6.460938 5.277344 6.542969 5.285156 6.554688 C 5.292969 6.570312 5.351562 6.578125 5.417969 6.578125 C 5.507812 6.578125 5.546875 6.566406 5.578125 6.535156 Z M 5.820312 6.476562 C 5.832031 6.425781 5.839844 6.332031 5.839844 6.265625 C 5.839844 6.164062 5.835938 6.148438 5.796875 6.148438 C 5.738281 6.148438 5.726562 6.191406 5.726562 6.402344 C 5.726562 6.5625 5.730469 6.582031 5.765625 6.574219 C 5.792969 6.570312 5.8125 6.535156 5.820312 6.476562 Z M 5.980469 6.386719 C 5.980469 6.292969 5.984375 6.191406 5.984375 6.164062 C 5.984375 6.128906 5.972656 6.113281 5.941406 6.113281 C 5.902344 6.113281 5.894531 6.132812 5.890625 6.335938 C 5.882812 6.542969 5.886719 6.554688 5.929688 6.554688 C 5.972656 6.554688 5.976562 6.542969 5.980469 6.386719 Z M 4.308594 6.363281 C 4.960938 6.179688 4.910156 6.195312 4.910156 6.171875 C 4.910156 6.128906 4.585938 5.71875 4.566406 5.730469 C 4.550781 5.738281 4.546875 5.738281 4.554688 5.722656 C 4.5625 5.710938 4.539062 5.675781 4.503906 5.640625 L 4.441406 5.582031 L 4.382812 5.644531 C 4.289062 5.746094 4.101562 6 3.949219 6.234375 C 3.777344 6.5 3.769531 6.511719 3.78125 6.511719 C 3.785156 6.511719 4.023438 6.445312 4.308594 6.363281 Z M 6.304688 6.453125 C 6.320312 6.40625 6.320312 6 6.304688 5.984375 C 6.296875 5.976562 6.25 5.980469 6.203125 5.996094 L 6.113281 6.015625 L 6.113281 6.488281 L 6.199219 6.488281 C 6.261719 6.488281 6.292969 6.476562 6.304688 6.453125 Z M 6.632812 5.964844 C 6.632812 5.953125 6.625 5.945312 6.609375 5.945312 C 6.597656 5.945312 6.59375 5.953125 6.601562 5.964844 C 6.609375 5.980469 6.617188 5.988281 6.625 5.988281 C 6.628906 5.988281 6.632812 5.980469 6.632812 5.964844 Z M 7.542969 5.980469 C 7.542969 5.972656 7.53125 5.964844 7.519531 5.957031 C 7.507812 5.949219 7.496094 5.953125 7.496094 5.964844 C 7.496094 5.976562 7.507812 5.988281 7.519531 5.988281 C 7.53125 5.988281 7.542969 5.984375 7.542969 5.980469 Z M 6.953125 5.738281 C 6.9375 5.714844 6.914062 5.699219 6.902344 5.707031 C 6.886719 5.71875 6.882812 5.714844 6.890625 5.699219 C 6.898438 5.6875 6.898438 5.667969 6.886719 5.660156 C 6.863281 5.648438 6.746094 5.742188 6.746094 5.769531 C 6.746094 5.777344 6.800781 5.785156 6.863281 5.785156 C 6.96875 5.785156 6.976562 5.78125 6.953125 5.738281 Z M 4.75 8.183594 C 4.75 8.167969 4.785156 8.117188 4.828125 8.078125 L 4.90625 8 L 4.828125 7.910156 C 4.785156 7.859375 4.75 7.808594 4.75 7.800781 C 4.75 7.753906 4.855469 7.789062 4.914062 7.855469 L 4.976562 7.929688 L 5.035156 7.855469 C 5.074219 7.808594 5.113281 7.78125 5.148438 7.78125 C 5.179688 7.78125 5.203125 7.789062 5.203125 7.792969 C 5.203125 7.800781 5.171875 7.851562 5.128906 7.902344 L 5.050781 7.996094 L 5.128906 8.085938 C 5.21875 8.191406 5.222656 8.210938 5.152344 8.210938 C 5.125 8.210938 5.078125 8.183594 5.039062 8.140625 L 4.976562 8.066406 L 4.914062 8.140625 C 4.851562 8.214844 4.75 8.242188 4.75 8.183594 Z M 5.453125 8.191406 C 5.453125 8.179688 5.496094 8.082031 5.542969 7.972656 C 5.628906 7.792969 5.636719 7.78125 5.703125 7.78125 C 5.769531 7.78125 5.777344 7.792969 5.851562 7.949219 C 5.964844 8.199219 5.964844 8.210938 5.902344 8.210938 C 5.867188 8.210938 5.839844 8.191406 5.820312 8.15625 C 5.800781 8.109375 5.78125 8.097656 5.695312 8.097656 C 5.613281 8.097656 5.59375 8.109375 5.570312 8.15625 C 5.546875 8.210938 5.453125 8.238281 5.453125 8.191406 Z M 5.75 7.976562 C 5.75 7.960938 5.738281 7.929688 5.722656 7.910156 C 5.695312 7.875 5.691406 7.875 5.667969 7.9375 C 5.640625 8.003906 5.644531 8.007812 5.695312 8.007812 C 5.726562 8.007812 5.75 7.996094 5.75 7.976562 Z M 6.226562 8.019531 C 6.226562 7.914062 6.222656 7.820312 6.21875 7.808594 C 6.21875 7.800781 6.28125 7.789062 6.363281 7.785156 C 6.488281 7.78125 6.523438 7.789062 6.574219 7.828125 C 6.695312 7.921875 6.621094 8.054688 6.433594 8.070312 C 6.320312 8.082031 6.316406 8.085938 6.320312 8.140625 C 6.328125 8.1875 6.316406 8.203125 6.277344 8.207031 C 6.226562 8.214844 6.226562 8.210938 6.226562 8.019531 Z M 6.511719 7.949219 C 6.53125 7.902344 6.480469 7.871094 6.394531 7.878906 C 6.34375 7.882812 6.328125 7.894531 6.324219 7.933594 C 6.324219 7.980469 6.332031 7.984375 6.410156 7.984375 C 6.472656 7.984375 6.503906 7.972656 6.511719 7.949219 Z M 6.90625 8.019531 C 6.90625 7.914062 6.902344 7.820312 6.902344 7.808594 C 6.898438 7.800781 6.917969 7.789062 6.945312 7.785156 C 6.992188 7.777344 6.996094 7.789062 6.996094 7.859375 C 6.996094 7.902344 7.003906 7.941406 7.015625 7.941406 C 7.027344 7.941406 7.066406 7.90625 7.109375 7.859375 C 7.179688 7.789062 7.261719 7.761719 7.300781 7.796875 C 7.308594 7.804688 7.269531 7.847656 7.210938 7.890625 C 7.15625 7.933594 7.109375 7.976562 7.109375 7.988281 C 7.109375 7.996094 7.15625 8.042969 7.210938 8.09375 C 7.269531 8.144531 7.308594 8.191406 7.300781 8.199219 C 7.261719 8.234375 7.191406 8.207031 7.097656 8.117188 L 6.996094 8.023438 L 6.996094 8.117188 C 6.996094 8.195312 6.988281 8.210938 6.953125 8.210938 C 6.910156 8.210938 6.90625 8.195312 6.90625 8.019531 Z M 7.585938 7.996094 C 7.585938 7.78125 7.589844 7.777344 7.636719 7.785156 C 7.6875 7.792969 7.6875 7.800781 7.6875 7.996094 C 7.6875 8.191406 7.6875 8.203125 7.636719 8.207031 C 7.589844 8.214844 7.585938 8.210938 7.585938 7.996094 Z M 7.996094 8.019531 C 7.996094 7.914062 7.996094 7.820312 7.996094 7.808594 C 7.996094 7.78125 8.25 7.777344 8.316406 7.804688 C 8.390625 7.835938 8.402344 7.902344 8.34375 7.964844 C 8.3125 8.003906 8.308594 8.007812 8.339844 8.007812 C 8.378906 8.007812 8.40625 8.085938 8.390625 8.132812 C 8.371094 8.179688 8.253906 8.210938 8.117188 8.210938 L 7.996094 8.210938 Z M 8.277344 8.078125 C 8.277344 8.054688 8.25 8.039062 8.1875 8.035156 C 8.109375 8.03125 8.09375 8.035156 8.09375 8.078125 C 8.089844 8.117188 8.097656 8.125 8.183594 8.117188 C 8.25 8.113281 8.277344 8.101562 8.277344 8.078125 Z M 8.265625 7.933594 C 8.300781 7.890625 8.273438 7.871094 8.171875 7.871094 C 8.089844 7.871094 8.058594 7.90625 8.101562 7.949219 C 8.128906 7.972656 8.238281 7.964844 8.265625 7.933594 Z M 8.265625 7.933594 "/>
<path style=" stroke:none;fill-rule:nonzero;fill:rgb(63.921571%,61.960787%,60.784316%);fill-opacity:1;" d="M 8.011719 8.765625 C 8.027344 8.757812 8.054688 8.757812 8.070312 8.765625 C 8.085938 8.769531 8.070312 8.777344 8.039062 8.777344 C 8.007812 8.777344 7.996094 8.769531 8.011719 8.765625 Z M 6.277344 8.742188 C 6.300781 8.734375 6.328125 8.734375 6.34375 8.742188 C 6.359375 8.75 6.34375 8.753906 6.304688 8.753906 C 6.269531 8.75 6.253906 8.746094 6.277344 8.742188 Z M 8.261719 8.742188 C 8.28125 8.734375 8.300781 8.734375 8.308594 8.742188 C 8.3125 8.75 8.300781 8.757812 8.277344 8.753906 C 8.25 8.753906 8.246094 8.75 8.261719 8.742188 Z M 6.0625 8.71875 C 6.078125 8.710938 6.101562 8.710938 6.117188 8.71875 C 6.132812 8.726562 6.121094 8.730469 6.089844 8.730469 C 6.058594 8.730469 6.046875 8.726562 6.0625 8.71875 Z M 8.421875 8.71875 C 8.4375 8.710938 8.460938 8.710938 8.476562 8.71875 C 8.492188 8.726562 8.480469 8.730469 8.449219 8.730469 C 8.417969 8.730469 8.40625 8.726562 8.421875 8.71875 Z M 5.902344 8.695312 C 5.921875 8.6875 5.941406 8.691406 5.949219 8.699219 C 5.953125 8.707031 5.941406 8.710938 5.917969 8.710938 C 5.890625 8.707031 5.886719 8.703125 5.902344 8.695312 Z M 8.578125 8.695312 C 8.59375 8.691406 8.621094 8.691406 8.636719 8.695312 C 8.652344 8.703125 8.640625 8.707031 8.609375 8.707031 C 8.578125 8.707031 8.5625 8.703125 8.578125 8.695312 Z M 8.738281 8.671875 C 8.757812 8.667969 8.777344 8.667969 8.78125 8.675781 C 8.789062 8.683594 8.777344 8.6875 8.753906 8.6875 C 8.726562 8.6875 8.722656 8.679688 8.738281 8.671875 Z M 9.101562 8.605469 C 9.117188 8.597656 9.136719 8.597656 9.144531 8.605469 C 9.152344 8.613281 9.140625 8.621094 9.117188 8.617188 C 9.089844 8.617188 9.085938 8.613281 9.101562 8.605469 Z M 6.0625 8.558594 C 6.101562 8.554688 6.164062 8.554688 6.199219 8.558594 C 6.230469 8.5625 6.199219 8.570312 6.125 8.566406 C 6.050781 8.566406 6.019531 8.5625 6.0625 8.558594 Z M 6.800781 8.558594 C 6.820312 8.554688 6.851562 8.554688 6.867188 8.558594 C 6.882812 8.566406 6.863281 8.570312 6.828125 8.570312 C 6.789062 8.570312 6.777344 8.566406 6.800781 8.558594 Z M 9.351562 8.558594 C 9.367188 8.554688 9.386719 8.554688 9.394531 8.5625 C 9.402344 8.570312 9.390625 8.574219 9.367188 8.574219 C 9.339844 8.574219 9.335938 8.566406 9.351562 8.558594 Z M 4.972656 8.535156 C 4.992188 8.53125 5.011719 8.53125 5.015625 8.539062 C 5.023438 8.546875 5.011719 8.550781 4.988281 8.550781 C 4.960938 8.550781 4.957031 8.542969 4.972656 8.535156 Z M 5.734375 8.535156 C 5.753906 8.53125 5.785156 8.53125 5.800781 8.539062 C 5.816406 8.542969 5.796875 8.546875 5.761719 8.546875 C 5.722656 8.546875 5.710938 8.542969 5.734375 8.535156 Z M 7.09375 8.535156 C 7.117188 8.53125 7.152344 8.53125 7.171875 8.535156 C 7.195312 8.542969 7.175781 8.546875 7.132812 8.546875 C 7.089844 8.546875 7.070312 8.542969 7.09375 8.535156 Z M 5.507812 8.515625 C 5.527344 8.507812 5.558594 8.507812 5.574219 8.515625 C 5.589844 8.519531 5.570312 8.527344 5.535156 8.527344 C 5.496094 8.523438 5.484375 8.519531 5.507812 8.515625 Z M 7.332031 8.515625 C 7.347656 8.507812 7.371094 8.507812 7.375 8.515625 C 7.382812 8.523438 7.371094 8.527344 7.347656 8.527344 C 7.320312 8.527344 7.316406 8.523438 7.332031 8.515625 Z M 5.359375 8.492188 C 5.375 8.484375 5.394531 8.484375 5.402344 8.492188 C 5.410156 8.5 5.398438 8.507812 5.375 8.503906 C 5.347656 8.503906 5.339844 8.5 5.359375 8.492188 Z M 7.515625 8.492188 C 7.53125 8.484375 7.550781 8.484375 7.558594 8.492188 C 7.566406 8.5 7.550781 8.507812 7.527344 8.503906 C 7.5 8.503906 7.496094 8.5 7.515625 8.492188 Z M 9.652344 8.476562 C 9.671875 8.457031 9.878906 8.394531 9.878906 8.40625 C 9.878906 8.414062 9.855469 8.425781 9.828125 8.4375 C 9.75 8.464844 9.636719 8.488281 9.652344 8.476562 Z M 4.632812 8.378906 C 4.648438 8.371094 4.667969 8.371094 4.675781 8.378906 C 4.683594 8.386719 4.671875 8.394531 4.648438 8.390625 C 4.621094 8.390625 4.617188 8.386719 4.632812 8.378906 Z M 9.949219 8.382812 C 9.964844 8.367188 10.203125 8.28125 10.214844 8.289062 C 10.21875 8.292969 10.164062 8.320312 10.09375 8.347656 C 9.96875 8.394531 9.929688 8.402344 9.949219 8.382812 Z M 4.046875 8.304688 C 4.007812 8.277344 4.042969 8.277344 4.105469 8.304688 C 4.136719 8.316406 4.136719 8.324219 4.117188 8.324219 C 4.097656 8.324219 4.066406 8.316406 4.046875 8.304688 Z M 10.277344 8.246094 C 10.300781 8.230469 10.332031 8.214844 10.34375 8.214844 C 10.355469 8.214844 10.347656 8.230469 10.320312 8.246094 C 10.296875 8.265625 10.269531 8.28125 10.253906 8.28125 C 10.242188 8.28125 10.253906 8.265625 10.277344 8.246094 Z M 3.71875 8.191406 C 3.710938 8.175781 3.71875 8.171875 3.742188 8.179688 C 3.78125 8.195312 3.789062 8.210938 3.753906 8.210938 C 3.742188 8.210938 3.726562 8.203125 3.71875 8.191406 Z M 4.75 8.195312 C 4.75 8.183594 4.785156 8.132812 4.828125 8.085938 L 4.90625 7.996094 L 4.828125 7.902344 C 4.738281 7.792969 4.734375 7.78125 4.796875 7.78125 C 4.820312 7.78125 4.871094 7.816406 4.910156 7.855469 L 4.980469 7.929688 L 5.035156 7.863281 C 5.085938 7.796875 5.148438 7.773438 5.1875 7.796875 C 5.199219 7.804688 5.183594 7.835938 5.15625 7.867188 C 5.035156 8 5.035156 7.996094 5.125 8.097656 C 5.171875 8.148438 5.207031 8.191406 5.203125 8.191406 C 5.117188 8.210938 5.097656 8.203125 5.039062 8.132812 L 4.972656 8.050781 L 4.925781 8.117188 C 4.902344 8.148438 4.878906 8.179688 4.875 8.183594 C 4.863281 8.203125 4.75 8.210938 4.75 8.195312 Z M 5.496094 8.195312 C 5.472656 8.191406 5.453125 8.183594 5.453125 8.179688 C 5.453125 8.175781 5.496094 8.085938 5.542969 7.980469 C 5.628906 7.796875 5.640625 7.785156 5.703125 7.785156 C 5.765625 7.789062 5.777344 7.804688 5.851562 7.972656 C 5.894531 8.074219 5.929688 8.164062 5.925781 8.179688 C 5.914062 8.222656 5.859375 8.207031 5.828125 8.140625 C 5.800781 8.085938 5.78125 8.078125 5.703125 8.078125 C 5.628906 8.078125 5.609375 8.085938 5.578125 8.144531 C 5.558594 8.183594 5.542969 8.210938 5.539062 8.210938 C 5.535156 8.207031 5.515625 8.203125 5.496094 8.195312 Z M 5.738281 7.941406 C 5.71875 7.902344 5.699219 7.871094 5.695312 7.871094 C 5.691406 7.871094 5.675781 7.902344 5.664062 7.941406 C 5.640625 8.003906 5.640625 8.007812 5.707031 8.007812 L 5.773438 8.007812 Z M 6.234375 8.179688 C 6.230469 8.164062 6.226562 8.070312 6.230469 7.972656 L 6.238281 7.792969 L 6.394531 7.792969 C 6.527344 7.796875 6.558594 7.804688 6.59375 7.847656 C 6.617188 7.875 6.632812 7.914062 6.632812 7.929688 C 6.632812 7.992188 6.550781 8.046875 6.433594 8.0625 C 6.332031 8.074219 6.316406 8.085938 6.316406 8.132812 C 6.316406 8.191406 6.253906 8.230469 6.234375 8.179688 Z M 6.507812 7.929688 C 6.507812 7.890625 6.492188 7.882812 6.414062 7.875 C 6.324219 7.871094 6.316406 7.875 6.316406 7.921875 C 6.316406 7.996094 6.328125 8.003906 6.425781 7.988281 C 6.488281 7.976562 6.507812 7.960938 6.507812 7.929688 Z M 6.921875 8.195312 C 6.914062 8.1875 6.90625 8.089844 6.90625 7.980469 C 6.90625 7.800781 6.910156 7.777344 6.945312 7.785156 C 6.972656 7.789062 6.988281 7.820312 6.992188 7.878906 L 7 7.964844 L 7.101562 7.875 C 7.191406 7.789062 7.292969 7.75 7.292969 7.800781 C 7.292969 7.8125 7.246094 7.859375 7.1875 7.90625 L 7.085938 7.988281 L 7.1875 8.082031 C 7.246094 8.128906 7.292969 8.179688 7.292969 8.191406 C 7.292969 8.230469 7.195312 8.1875 7.09375 8.105469 L 6.996094 8.023438 L 6.996094 8.105469 C 6.996094 8.179688 6.953125 8.230469 6.921875 8.195312 Z M 7.613281 8.191406 C 7.59375 8.179688 7.585938 8.121094 7.589844 7.984375 C 7.597656 7.808594 7.601562 7.792969 7.644531 7.792969 C 7.6875 7.792969 7.6875 7.808594 7.6875 7.996094 C 7.6875 8.191406 7.675781 8.230469 7.613281 8.191406 Z M 8.003906 8.191406 C 8 8.1875 7.996094 8.09375 7.996094 7.984375 L 7.996094 7.785156 L 8.144531 7.785156 C 8.300781 7.789062 8.382812 7.824219 8.382812 7.894531 C 8.382812 7.917969 8.363281 7.949219 8.34375 7.964844 C 8.3125 7.992188 8.3125 7.996094 8.34375 8.011719 C 8.386719 8.035156 8.390625 8.128906 8.351562 8.160156 C 8.324219 8.183594 8.023438 8.210938 8.003906 8.191406 Z M 8.289062 8.109375 C 8.292969 8.105469 8.289062 8.085938 8.28125 8.066406 C 8.273438 8.042969 8.238281 8.03125 8.175781 8.03125 C 8.105469 8.03125 8.085938 8.039062 8.085938 8.074219 C 8.085938 8.09375 8.09375 8.121094 8.101562 8.128906 C 8.113281 8.140625 8.269531 8.125 8.289062 8.109375 Z M 8.265625 7.941406 C 8.328125 7.902344 8.246094 7.863281 8.125 7.871094 C 8.101562 7.871094 8.085938 7.890625 8.085938 7.917969 C 8.085938 7.953125 8.101562 7.960938 8.160156 7.960938 C 8.199219 7.960938 8.25 7.953125 8.265625 7.941406 Z M 3.550781 8.144531 C 3.507812 8.117188 3.542969 8.117188 3.605469 8.144531 C 3.636719 8.15625 3.640625 8.164062 3.617188 8.164062 C 3.597656 8.164062 3.566406 8.15625 3.550781 8.144531 Z M 3.617188 8.117188 C 3.585938 8.105469 3.539062 8.101562 3.507812 8.109375 C 3.464844 8.121094 3.460938 8.117188 3.484375 8.089844 C 3.511719 8.0625 3.527344 8.066406 3.617188 8.09375 C 3.671875 8.113281 3.722656 8.132812 3.730469 8.136719 C 3.746094 8.152344 3.671875 8.140625 3.617188 8.117188 Z M 3.34375 8.050781 C 3.34375 8.039062 3.332031 8.035156 3.316406 8.042969 C 3.296875 8.054688 3.292969 8.054688 3.3125 8.035156 C 3.328125 8.015625 3.355469 8.011719 3.390625 8.027344 L 3.445312 8.046875 L 3.394531 8.058594 C 3.367188 8.066406 3.34375 8.0625 3.34375 8.050781 Z M 3.191406 8.015625 C 3.175781 8.007812 3.167969 7.996094 3.175781 7.984375 C 3.183594 7.972656 3.167969 7.96875 3.148438 7.96875 C 3.105469 7.972656 2.941406 7.921875 2.902344 7.894531 C 2.890625 7.886719 2.832031 7.863281 2.777344 7.839844 C 2.53125 7.746094 1.542969 7.257812 1.496094 7.210938 C 1.484375 7.195312 1.585938 7.242188 1.722656 7.3125 C 1.976562 7.441406 2.566406 7.714844 2.585938 7.714844 C 2.597656 7.714844 2.816406 7.8125 2.898438 7.851562 C 2.917969 7.863281 2.953125 7.871094 2.976562 7.871094 C 3 7.871094 3.027344 7.882812 3.039062 7.890625 C 3.050781 7.902344 3.117188 7.929688 3.183594 7.953125 C 3.269531 7.980469 3.296875 7.996094 3.273438 8.011719 C 3.238281 8.03125 3.234375 8.03125 3.191406 8.015625 Z M 9.59375 7.941406 C 9.617188 7.914062 9.640625 7.894531 9.648438 7.894531 C 9.652344 7.894531 9.640625 7.914062 9.617188 7.941406 C 9.59375 7.964844 9.570312 7.984375 9.566406 7.984375 C 9.558594 7.984375 9.570312 7.964844 9.59375 7.941406 Z M 10.542969 7.847656 C 10.542969 7.769531 10.546875 7.734375 10.550781 7.777344 C 10.558594 7.816406 10.558594 7.882812 10.550781 7.921875 C 10.546875 7.964844 10.542969 7.929688 10.542969 7.847656 Z M 10.515625 7.65625 C 10.515625 7.628906 10.523438 7.621094 10.527344 7.640625 C 10.535156 7.65625 10.535156 7.675781 10.527344 7.683594 C 10.519531 7.691406 10.515625 7.679688 10.515625 7.65625 Z M 5.785156 7.507812 C 5.644531 7.484375 5.234375 7.417969 4.863281 7.363281 C 4.496094 7.304688 4.039062 7.234375 3.851562 7.203125 C 3.664062 7.171875 3.488281 7.144531 3.464844 7.148438 C 3.4375 7.148438 3.40625 7.191406 3.359375 7.296875 C 3.292969 7.441406 3.289062 7.441406 3.222656 7.425781 C 3.183594 7.417969 2.816406 7.347656 2.402344 7.273438 L 1.65625 7.132812 L 1.660156 7.066406 C 1.691406 6.777344 2.292969 5.722656 2.957031 4.796875 C 3.363281 4.226562 4.15625 3.234375 4.230469 3.203125 C 4.257812 3.191406 4.511719 3.378906 4.691406 3.542969 C 4.894531 3.730469 5.238281 4.132812 5.46875 4.457031 C 5.554688 4.574219 5.628906 4.671875 5.640625 4.671875 C 5.648438 4.671875 5.6875 4.625 5.730469 4.566406 C 5.863281 4.375 6.253906 3.917969 6.480469 3.695312 C 6.703125 3.472656 7.042969 3.199219 7.09375 3.199219 C 7.109375 3.199219 7.148438 3.234375 7.179688 3.277344 C 7.210938 3.316406 7.355469 3.503906 7.503906 3.683594 C 8.46875 4.878906 9.453125 6.390625 9.636719 6.957031 C 9.679688 7.085938 9.671875 7.125 9.609375 7.125 C 9.589844 7.125 9.214844 7.195312 8.777344 7.28125 C 8.339844 7.367188 7.984375 7.433594 7.980469 7.433594 C 7.980469 7.429688 7.921875 7.316406 7.851562 7.179688 L 7.722656 6.929688 L 7.726562 7.03125 C 7.730469 7.253906 7.730469 7.253906 7.570312 7.40625 L 7.417969 7.554688 L 6.726562 7.550781 C 6.167969 7.550781 5.984375 7.542969 5.785156 7.507812 Z M 7.417969 6.875 L 7.417969 6.816406 L 7.070312 6.8125 C 6.777344 6.804688 6.722656 6.808594 6.710938 6.839844 C 6.703125 6.859375 6.703125 6.890625 6.710938 6.910156 C 6.722656 6.9375 6.773438 6.945312 7.070312 6.9375 L 7.417969 6.929688 Z M 6.554688 6.851562 C 6.546875 6.839844 6.53125 6.828125 6.519531 6.828125 C 6.507812 6.828125 6.5 6.839844 6.5 6.851562 C 6.5 6.863281 6.515625 6.875 6.535156 6.875 C 6.554688 6.875 6.5625 6.863281 6.554688 6.851562 Z M 6.65625 6.851562 C 6.65625 6.839844 6.648438 6.828125 6.632812 6.828125 C 6.621094 6.828125 6.613281 6.839844 6.613281 6.851562 C 6.613281 6.863281 6.621094 6.875 6.632812 6.875 C 6.648438 6.875 6.65625 6.863281 6.65625 6.851562 Z M 7.519531 6.851562 C 7.519531 6.839844 7.507812 6.828125 7.496094 6.828125 C 7.484375 6.828125 7.472656 6.839844 7.472656 6.851562 C 7.472656 6.863281 7.484375 6.875 7.496094 6.875 C 7.507812 6.875 7.519531 6.863281 7.519531 6.851562 Z M 7.632812 6.851562 C 7.632812 6.839844 7.617188 6.828125 7.597656 6.828125 C 7.578125 6.828125 7.5625 6.839844 7.5625 6.851562 C 7.5625 6.863281 7.578125 6.875 7.597656 6.875 C 7.617188 6.875 7.632812 6.863281 7.632812 6.851562 Z M 3.695312 6.804688 C 3.734375 6.789062 3.726562 6.785156 3.65625 6.785156 C 3.609375 6.785156 3.570312 6.792969 3.570312 6.804688 C 3.570312 6.832031 3.632812 6.832031 3.695312 6.804688 Z M 4.417969 6.761719 C 4.515625 6.757812 4.488281 6.714844 4.382812 6.710938 C 4.304688 6.710938 4.300781 6.707031 4.355469 6.699219 C 4.390625 6.691406 4.429688 6.679688 4.441406 6.667969 C 4.464844 6.648438 4.472656 6.449219 4.449219 6.429688 C 4.441406 6.421875 4.398438 6.425781 4.351562 6.433594 L 4.261719 6.457031 L 4.257812 6.597656 L 4.25 6.738281 L 4.167969 6.734375 C 4.101562 6.730469 4.097656 6.730469 4.140625 6.722656 C 4.195312 6.714844 4.203125 6.699219 4.210938 6.605469 C 4.222656 6.476562 4.214844 6.460938 4.128906 6.484375 C 4.066406 6.5 4.058594 6.515625 4.046875 6.609375 C 4.039062 6.675781 4.042969 6.714844 4.058594 6.714844 C 4.105469 6.714844 4.011719 6.761719 3.964844 6.761719 C 3.933594 6.761719 3.910156 6.769531 3.910156 6.777344 C 3.910156 6.785156 4.011719 6.789062 4.132812 6.78125 C 4.253906 6.773438 4.382812 6.765625 4.417969 6.761719 Z M 3.730469 6.667969 C 3.730469 6.621094 3.722656 6.578125 3.710938 6.578125 C 3.691406 6.578125 3.59375 6.722656 3.59375 6.75 C 3.59375 6.757812 3.625 6.761719 3.664062 6.761719 C 3.726562 6.761719 3.730469 6.753906 3.730469 6.667969 Z M 3.835938 6.730469 C 3.859375 6.738281 3.867188 6.722656 3.867188 6.65625 C 3.867188 6.589844 3.859375 6.578125 3.835938 6.597656 C 3.820312 6.613281 3.800781 6.617188 3.789062 6.609375 C 3.78125 6.601562 3.777344 6.632812 3.777344 6.683594 C 3.777344 6.730469 3.785156 6.757812 3.789062 6.746094 C 3.796875 6.730469 3.816406 6.722656 3.835938 6.730469 Z M 3.988281 6.703125 C 3.996094 6.683594 4.003906 6.636719 4.003906 6.601562 C 4.003906 6.546875 3.992188 6.535156 3.957031 6.535156 C 3.917969 6.535156 3.910156 6.546875 3.910156 6.636719 C 3.910156 6.707031 3.921875 6.738281 3.945312 6.738281 C 3.960938 6.738281 3.980469 6.722656 3.988281 6.703125 Z M 5.214844 6.703125 C 5.441406 6.683594 5.632812 6.671875 5.640625 6.671875 C 5.652344 6.667969 5.660156 6.648438 5.660156 6.625 C 5.660156 6.585938 5.644531 6.582031 5.539062 6.589844 C 5.472656 6.59375 5.449219 6.589844 5.488281 6.585938 C 5.601562 6.570312 5.613281 6.542969 5.613281 6.339844 C 5.613281 6.160156 5.609375 6.148438 5.566406 6.148438 C 5.488281 6.148438 5.308594 6.199219 5.289062 6.226562 C 5.28125 6.238281 5.273438 6.324219 5.273438 6.414062 C 5.273438 6.566406 5.277344 6.582031 5.324219 6.601562 C 5.363281 6.617188 5.351562 6.621094 5.261719 6.621094 C 5.175781 6.621094 5.15625 6.617188 5.1875 6.601562 C 5.21875 6.582031 5.226562 6.542969 5.226562 6.40625 L 5.226562 6.234375 L 5.121094 6.246094 C 4.96875 6.269531 4.957031 6.289062 4.957031 6.46875 L 4.957031 6.625 L 5.050781 6.628906 C 5.117188 6.628906 5.089844 6.636719 4.96875 6.652344 C 4.761719 6.671875 4.730469 6.683594 4.730469 6.714844 C 4.730469 6.742188 4.726562 6.742188 5.214844 6.703125 Z M 4.59375 6.554688 C 4.59375 6.40625 4.5625 6.375 4.539062 6.503906 C 4.515625 6.640625 4.523438 6.691406 4.558594 6.691406 C 4.585938 6.691406 4.59375 6.664062 4.59375 6.554688 Z M 4.707031 6.507812 C 4.707031 6.425781 4.699219 6.398438 4.671875 6.398438 C 4.644531 6.398438 4.636719 6.429688 4.640625 6.550781 C 4.640625 6.691406 4.640625 6.699219 4.671875 6.660156 C 4.691406 6.636719 4.707031 6.566406 4.707031 6.507812 Z M 4.90625 6.46875 L 4.914062 6.300781 L 4.847656 6.316406 C 4.769531 6.335938 4.777344 6.324219 4.769531 6.445312 C 4.761719 6.636719 4.769531 6.652344 4.835938 6.644531 C 4.898438 6.636719 4.898438 6.632812 4.90625 6.46875 Z M 6.25 6.625 C 6.378906 6.625 6.382812 6.621094 6.382812 6.566406 C 6.382812 6.511719 6.382812 6.511719 6.242188 6.523438 C 6.054688 6.542969 6.042969 6.546875 6.042969 6.601562 C 6.042969 6.636719 6.054688 6.648438 6.082031 6.636719 C 6.101562 6.628906 6.175781 6.625 6.25 6.625 Z M 5.835938 6.347656 C 5.839844 6.226562 5.835938 6.125 5.828125 6.125 C 5.820312 6.125 5.792969 6.136719 5.769531 6.148438 C 5.730469 6.167969 5.726562 6.199219 5.726562 6.378906 C 5.726562 6.578125 5.726562 6.582031 5.777344 6.574219 C 5.828125 6.566406 5.828125 6.554688 5.835938 6.347656 Z M 5.980469 6.523438 C 5.992188 6.511719 6 6.410156 6 6.300781 C 6 6.109375 5.996094 6.101562 5.945312 6.101562 C 5.898438 6.101562 5.890625 6.117188 5.878906 6.222656 C 5.859375 6.371094 5.859375 6.542969 5.875 6.5625 C 5.894531 6.578125 5.960938 6.554688 5.980469 6.523438 Z M 4.914062 6.167969 C 4.902344 6.125 4.695312 5.84375 4.5625 5.6875 L 4.449219 5.554688 L 4.394531 5.617188 C 4.191406 5.863281 3.777344 6.460938 3.777344 6.511719 C 3.777344 6.519531 4.035156 6.453125 4.347656 6.363281 C 4.738281 6.25 4.917969 6.1875 4.914062 6.167969 Z M 6.300781 6.472656 C 6.308594 6.46875 6.316406 6.351562 6.316406 6.214844 C 6.316406 5.941406 6.316406 5.9375 6.167969 6 L 6.089844 6.03125 L 6.089844 6.257812 C 6.089844 6.378906 6.097656 6.488281 6.105469 6.496094 C 6.121094 6.511719 6.261719 6.492188 6.300781 6.472656 Z M 6.632812 5.953125 C 6.632812 5.933594 6.625 5.925781 6.613281 5.933594 C 6.597656 5.941406 6.589844 5.957031 6.589844 5.96875 C 6.589844 5.980469 6.597656 5.988281 6.613281 5.988281 C 6.625 5.988281 6.632812 5.972656 6.632812 5.953125 Z M 7.542969 5.964844 C 7.542969 5.953125 7.53125 5.945312 7.519531 5.945312 C 7.507812 5.945312 7.496094 5.953125 7.496094 5.964844 C 7.496094 5.980469 7.507812 5.988281 7.519531 5.988281 C 7.53125 5.988281 7.542969 5.980469 7.542969 5.964844 Z M 6.375 5.875 C 6.367188 5.863281 6.34375 5.851562 6.324219 5.851562 C 6.304688 5.851562 6.296875 5.863281 6.304688 5.875 C 6.3125 5.886719 6.335938 5.898438 6.351562 5.898438 C 6.371094 5.898438 6.382812 5.886719 6.375 5.875 Z M 6.996094 5.792969 C 6.996094 5.785156 6.96875 5.746094 6.933594 5.703125 L 6.875 5.628906 L 6.800781 5.699219 C 6.757812 5.738281 6.726562 5.777344 6.726562 5.785156 C 6.726562 5.789062 6.785156 5.796875 6.859375 5.796875 C 6.9375 5.800781 6.996094 5.796875 6.996094 5.792969 Z M 10.34375 7.234375 C 10.335938 7.222656 10.332031 7.207031 10.339844 7.199219 C 10.34375 7.195312 10.355469 7.207031 10.363281 7.222656 C 10.378906 7.265625 10.363281 7.273438 10.34375 7.234375 Z M 9.921875 6.601562 C 9.910156 6.578125 9.90625 6.554688 9.910156 6.554688 C 9.917969 6.554688 9.933594 6.578125 9.945312 6.601562 C 9.960938 6.625 9.964844 6.648438 9.960938 6.648438 C 9.953125 6.648438 9.9375 6.625 9.921875 6.601562 Z M 9.808594 6.449219 C 9.777344 6.414062 9.78125 6.410156 9.816406 6.441406 C 9.855469 6.46875 9.867188 6.488281 9.847656 6.488281 C 9.84375 6.488281 9.824219 6.46875 9.808594 6.449219 Z M 9.808594 6.449219 "/>
<path style=" stroke:none;fill-rule:nonzero;fill:rgb(6.27451%,45.490196%,68.235296%);fill-opacity:1;" d="M 4.773438 8.171875 C 4.773438 8.160156 4.804688 8.125 4.84375 8.085938 C 4.878906 8.050781 4.910156 8.011719 4.910156 8 C 4.910156 7.988281 4.878906 7.941406 4.835938 7.898438 C 4.773438 7.824219 4.769531 7.816406 4.808594 7.808594 C 4.835938 7.800781 4.875 7.824219 4.914062 7.875 L 4.980469 7.953125 L 5.039062 7.878906 C 5.070312 7.835938 5.117188 7.804688 5.140625 7.804688 C 5.183594 7.804688 5.179688 7.8125 5.113281 7.898438 C 5.0625 7.960938 5.046875 8 5.058594 8.019531 C 5.070312 8.035156 5.105469 8.082031 5.132812 8.121094 C 5.179688 8.183594 5.183594 8.191406 5.144531 8.191406 C 5.121094 8.191406 5.074219 8.15625 5.039062 8.117188 L 4.976562 8.042969 L 4.914062 8.117188 C 4.855469 8.183594 4.773438 8.214844 4.773438 8.171875 Z M 5.476562 8.171875 C 5.476562 8.160156 5.511719 8.074219 5.558594 7.976562 C 5.628906 7.820312 5.644531 7.804688 5.703125 7.804688 C 5.757812 7.804688 5.773438 7.820312 5.839844 7.96875 C 5.878906 8.058594 5.917969 8.144531 5.925781 8.160156 C 5.945312 8.214844 5.863281 8.1875 5.835938 8.132812 C 5.8125 8.085938 5.796875 8.078125 5.703125 8.078125 C 5.613281 8.078125 5.59375 8.085938 5.570312 8.132812 C 5.546875 8.1875 5.476562 8.214844 5.476562 8.171875 Z M 5.773438 8.007812 C 5.773438 7.992188 5.753906 7.953125 5.734375 7.910156 L 5.699219 7.839844 L 5.65625 7.917969 C 5.636719 7.960938 5.621094 8.003906 5.628906 8.015625 C 5.644531 8.039062 5.773438 8.035156 5.773438 8.007812 Z M 6.242188 8.175781 C 6.234375 8.167969 6.226562 8.078125 6.226562 7.980469 L 6.226562 7.804688 L 6.367188 7.804688 C 6.53125 7.804688 6.613281 7.84375 6.613281 7.925781 C 6.613281 8 6.558594 8.035156 6.429688 8.046875 C 6.324219 8.058594 6.316406 8.0625 6.316406 8.125 C 6.316406 8.1875 6.277344 8.210938 6.242188 8.175781 Z M 6.484375 7.996094 C 6.503906 7.988281 6.519531 7.957031 6.519531 7.929688 C 6.519531 7.875 6.472656 7.851562 6.367188 7.851562 C 6.324219 7.847656 6.316406 7.863281 6.316406 7.929688 C 6.316406 8 6.324219 8.007812 6.382812 8.007812 C 6.417969 8.007812 6.464844 8.003906 6.484375 7.996094 Z M 6.90625 7.996094 C 6.90625 7.820312 6.910156 7.804688 6.953125 7.804688 C 6.988281 7.804688 6.996094 7.820312 6.996094 7.882812 C 6.996094 7.925781 7.003906 7.960938 7.015625 7.960938 C 7.027344 7.960938 7.066406 7.925781 7.109375 7.882812 C 7.152344 7.839844 7.207031 7.804688 7.234375 7.804688 C 7.273438 7.804688 7.261719 7.824219 7.179688 7.898438 L 7.078125 7.992188 L 7.1875 8.089844 C 7.285156 8.175781 7.292969 8.191406 7.25 8.191406 C 7.222656 8.191406 7.15625 8.148438 7.097656 8.097656 L 6.996094 8.003906 L 6.996094 8.097656 C 6.996094 8.175781 6.988281 8.191406 6.953125 8.191406 C 6.910156 8.191406 6.90625 8.175781 6.90625 7.996094 Z M 7.609375 7.996094 C 7.609375 7.839844 7.617188 7.804688 7.644531 7.804688 C 7.671875 7.804688 7.679688 7.839844 7.679688 7.996094 C 7.679688 8.152344 7.671875 8.191406 7.644531 8.191406 C 7.617188 8.191406 7.609375 8.152344 7.609375 7.996094 Z M 7.996094 7.996094 L 7.996094 7.804688 L 8.152344 7.804688 C 8.378906 7.804688 8.457031 7.894531 8.304688 7.980469 C 8.265625 8 8.265625 8.003906 8.320312 8.015625 C 8.359375 8.027344 8.382812 8.046875 8.382812 8.074219 C 8.382812 8.148438 8.292969 8.191406 8.136719 8.191406 L 7.996094 8.191406 Z M 8.289062 8.113281 C 8.328125 8.066406 8.257812 8.007812 8.164062 8.007812 C 8.09375 8.007812 8.085938 8.015625 8.085938 8.078125 C 8.085938 8.140625 8.089844 8.144531 8.175781 8.144531 C 8.222656 8.144531 8.273438 8.128906 8.289062 8.113281 Z M 8.277344 7.941406 C 8.320312 7.894531 8.269531 7.847656 8.175781 7.847656 C 8.089844 7.847656 8.085938 7.851562 8.085938 7.914062 C 8.085938 7.980469 8.089844 7.980469 8.171875 7.972656 C 8.21875 7.964844 8.265625 7.953125 8.277344 7.941406 Z M 5.773438 7.496094 C 5.605469 7.464844 5.265625 7.410156 5.023438 7.375 C 4.117188 7.234375 3.535156 7.144531 3.488281 7.132812 C 3.441406 7.125 3.425781 7.144531 3.363281 7.269531 C 3.324219 7.351562 3.277344 7.417969 3.261719 7.417969 C 3.238281 7.417969 2.0625 7.203125 1.765625 7.144531 L 1.648438 7.121094 L 1.699219 6.964844 C 1.964844 6.191406 3.089844 4.5 4.144531 3.300781 C 4.21875 3.214844 4.226562 3.214844 4.285156 3.238281 C 4.5 3.335938 4.996094 3.835938 5.347656 4.308594 C 5.480469 4.488281 5.601562 4.648438 5.613281 4.671875 C 5.628906 4.695312 5.640625 4.699219 5.652344 4.683594 C 5.90625 4.332031 6.296875 3.878906 6.558594 3.628906 C 6.796875 3.40625 7.03125 3.222656 7.085938 3.222656 C 7.144531 3.222656 7.980469 4.285156 8.445312 4.953125 C 8.910156 5.617188 9.246094 6.152344 9.449219 6.554688 C 9.5625 6.78125 9.683594 7.078125 9.667969 7.089844 C 9.65625 7.101562 8.011719 7.421875 7.992188 7.414062 C 7.984375 7.410156 7.917969 7.292969 7.847656 7.152344 C 7.78125 7.011719 7.722656 6.898438 7.71875 6.898438 C 7.714844 6.898438 7.714844 6.972656 7.71875 7.066406 L 7.726562 7.238281 L 7.5625 7.398438 L 7.394531 7.554688 L 6.734375 7.550781 C 6.148438 7.550781 6.046875 7.542969 5.773438 7.496094 Z M 7.679688 7.179688 C 7.679688 7.128906 7.667969 7.125 7.585938 7.125 C 7.511719 7.125 7.496094 7.132812 7.496094 7.167969 C 7.496094 7.207031 7.515625 7.21875 7.648438 7.234375 C 7.664062 7.234375 7.679688 7.210938 7.679688 7.179688 Z M 6.613281 7.167969 C 6.613281 7.132812 6.597656 7.125 6.519531 7.125 C 6.445312 7.125 6.429688 7.132812 6.429688 7.167969 C 6.429688 7.207031 6.445312 7.214844 6.519531 7.214844 C 6.597656 7.214844 6.613281 7.207031 6.613281 7.167969 Z M 6.816406 7.167969 C 6.816406 7.132812 6.800781 7.125 6.726562 7.125 C 6.648438 7.125 6.632812 7.132812 6.632812 7.167969 C 6.632812 7.207031 6.648438 7.214844 6.726562 7.214844 C 6.800781 7.214844 6.816406 7.207031 6.816406 7.167969 Z M 7.042969 7.167969 C 7.042969 7.132812 7.027344 7.125 6.953125 7.125 C 6.875 7.125 6.859375 7.132812 6.859375 7.167969 C 6.859375 7.207031 6.875 7.214844 6.953125 7.214844 C 7.027344 7.214844 7.042969 7.207031 7.042969 7.167969 Z M 7.246094 7.167969 C 7.246094 7.132812 7.230469 7.125 7.15625 7.125 C 7.082031 7.125 7.066406 7.132812 7.066406 7.167969 C 7.066406 7.207031 7.082031 7.214844 7.15625 7.214844 C 7.230469 7.214844 7.246094 7.207031 7.246094 7.167969 Z M 7.472656 7.167969 C 7.472656 7.132812 7.457031 7.125 7.382812 7.125 C 7.308594 7.125 7.292969 7.132812 7.292969 7.167969 C 7.292969 7.207031 7.308594 7.214844 7.382812 7.214844 C 7.457031 7.214844 7.472656 7.207031 7.472656 7.167969 Z M 7.429688 6.875 L 7.429688 6.804688 L 6.703125 6.804688 L 6.703125 6.941406 L 7.429688 6.941406 Z M 6.546875 6.824219 C 6.515625 6.789062 6.488281 6.816406 6.507812 6.867188 C 6.519531 6.894531 6.527344 6.898438 6.546875 6.878906 C 6.570312 6.859375 6.570312 6.84375 6.546875 6.824219 Z M 6.667969 6.871094 C 6.691406 6.835938 6.640625 6.789062 6.609375 6.820312 C 6.582031 6.847656 6.597656 6.898438 6.632812 6.898438 C 6.644531 6.898438 6.660156 6.886719 6.667969 6.871094 Z M 7.527344 6.839844 C 7.511719 6.800781 7.480469 6.796875 7.460938 6.832031 C 7.445312 6.859375 7.496094 6.902344 7.523438 6.882812 C 7.53125 6.878906 7.535156 6.859375 7.527344 6.839844 Z M 7.632812 6.839844 C 7.632812 6.820312 7.617188 6.804688 7.597656 6.804688 C 7.578125 6.804688 7.5625 6.820312 7.5625 6.839844 C 7.5625 6.859375 7.578125 6.875 7.597656 6.875 C 7.617188 6.875 7.632812 6.859375 7.632812 6.839844 Z M 3.6875 6.828125 C 3.75 6.828125 3.753906 6.824219 3.753906 6.714844 C 3.753906 6.625 3.761719 6.597656 3.800781 6.578125 C 3.835938 6.558594 3.855469 6.558594 3.875 6.582031 C 3.894531 6.601562 3.894531 6.605469 3.875 6.59375 C 3.820312 6.5625 3.777344 6.605469 3.777344 6.683594 C 3.777344 6.746094 3.785156 6.761719 3.820312 6.761719 C 3.84375 6.761719 3.867188 6.742188 3.875 6.722656 C 3.878906 6.699219 3.886719 6.707031 3.886719 6.746094 L 3.890625 6.808594 L 4.179688 6.792969 C 4.335938 6.785156 4.472656 6.773438 4.476562 6.769531 C 4.480469 6.765625 4.484375 6.691406 4.484375 6.605469 C 4.484375 6.515625 4.496094 6.429688 4.511719 6.410156 C 4.523438 6.390625 4.578125 6.375 4.625 6.371094 L 4.71875 6.363281 L 4.722656 6.554688 L 4.730469 6.75 L 5.191406 6.714844 L 5.65625 6.683594 L 5.664062 6.417969 C 5.667969 6.261719 5.679688 6.140625 5.695312 6.125 C 5.710938 6.109375 5.777344 6.085938 5.851562 6.066406 C 6.042969 6.015625 6.050781 6.027344 6.042969 6.375 C 6.035156 6.554688 6.042969 6.65625 6.054688 6.65625 C 6.085938 6.648438 6.296875 6.640625 6.332031 6.644531 C 6.351562 6.644531 6.363281 6.679688 6.363281 6.726562 C 6.363281 6.769531 6.371094 6.804688 6.382812 6.804688 C 6.398438 6.804688 6.40625 6.652344 6.40625 6.386719 C 6.40625 5.816406 6.347656 5.863281 7.042969 5.882812 C 7.339844 5.890625 7.609375 5.910156 7.644531 5.921875 L 7.710938 5.945312 L 7.664062 5.898438 C 7.589844 5.8125 7.492188 5.785156 7.242188 5.785156 L 7.007812 5.785156 L 6.9375 5.699219 L 6.863281 5.613281 L 6.777344 5.699219 L 6.6875 5.785156 L 6.488281 5.785156 C 6.304688 5.785156 6.238281 5.800781 5.636719 5.976562 C 5.277344 6.082031 4.972656 6.171875 4.960938 6.171875 C 4.945312 6.171875 4.898438 6.121094 4.859375 6.058594 C 4.761719 5.914062 4.472656 5.558594 4.453125 5.558594 C 4.417969 5.558594 4.175781 5.871094 3.980469 6.171875 C 3.871094 6.339844 3.757812 6.496094 3.734375 6.523438 C 3.679688 6.578125 3.550781 6.796875 3.550781 6.832031 C 3.550781 6.84375 3.566406 6.851562 3.585938 6.84375 C 3.605469 6.835938 3.652344 6.828125 3.6875 6.828125 Z M 4.703125 6.546875 C 4.707031 6.40625 4.683594 6.351562 4.632812 6.390625 C 4.605469 6.417969 4.589844 6.421875 4.546875 6.421875 C 4.535156 6.421875 4.523438 6.480469 4.523438 6.558594 L 4.523438 6.695312 L 4.695312 6.679688 Z M 7.371094 6.363281 L 7.371094 6.070312 L 6.851562 6.070312 L 6.84375 6.339844 C 6.839844 6.488281 6.84375 6.625 6.847656 6.640625 C 6.859375 6.664062 6.917969 6.667969 7.117188 6.664062 L 7.371094 6.660156 Z M 7.644531 6.363281 L 7.644531 6.070312 L 7.460938 6.070312 L 7.457031 6.339844 C 7.453125 6.488281 7.453125 6.625 7.460938 6.640625 C 7.46875 6.660156 7.5 6.671875 7.558594 6.664062 L 7.644531 6.660156 Z M 6.757812 6.351562 L 6.757812 6.070312 L 6.464844 6.070312 L 6.457031 6.328125 C 6.453125 6.472656 6.457031 6.601562 6.464844 6.617188 C 6.472656 6.640625 6.511719 6.648438 6.617188 6.640625 L 6.757812 6.636719 Z M 5.835938 6.550781 C 5.84375 6.539062 5.851562 6.539062 5.863281 6.558594 C 5.875 6.574219 5.902344 6.578125 5.941406 6.570312 C 6 6.554688 6 6.554688 6 6.316406 C 6 6.078125 6 6.078125 5.949219 6.09375 C 5.921875 6.101562 5.882812 6.125 5.867188 6.144531 C 5.851562 6.167969 5.839844 6.167969 5.839844 6.152344 C 5.839844 6.132812 5.820312 6.125 5.789062 6.128906 C 5.742188 6.136719 5.738281 6.152344 5.726562 6.332031 C 5.710938 6.585938 5.71875 6.609375 5.78125 6.589844 C 5.808594 6.578125 5.832031 6.5625 5.835938 6.550781 Z M 6.65625 5.953125 C 6.65625 5.9375 6.640625 5.921875 6.621094 5.921875 C 6.589844 5.921875 6.578125 5.96875 6.601562 5.996094 C 6.625 6.015625 6.65625 5.992188 6.65625 5.953125 Z M 7.546875 5.976562 C 7.550781 5.964844 7.535156 5.953125 7.511719 5.949219 C 7.488281 5.945312 7.472656 5.953125 7.472656 5.976562 C 7.472656 6.015625 7.539062 6.019531 7.546875 5.976562 Z M 7.546875 5.976562 "/>
<path style=" stroke:none;fill-rule:nonzero;fill:rgb(83.137256%,14.509805%,10.980392%);fill-opacity:1;" d="M 4.773438 8.171875 C 4.773438 8.160156 4.804688 8.125 4.84375 8.085938 C 4.878906 8.050781 4.910156 8.011719 4.910156 8 C 4.910156 7.988281 4.878906 7.941406 4.835938 7.898438 C 4.773438 7.824219 4.769531 7.816406 4.808594 7.808594 C 4.835938 7.800781 4.875 7.824219 4.914062 7.875 L 4.980469 7.953125 L 5.039062 7.878906 C 5.070312 7.835938 5.117188 7.804688 5.140625 7.804688 C 5.183594 7.804688 5.179688 7.8125 5.113281 7.898438 C 5.0625 7.960938 5.046875 8 5.058594 8.019531 C 5.070312 8.035156 5.105469 8.082031 5.132812 8.121094 C 5.179688 8.183594 5.183594 8.191406 5.144531 8.191406 C 5.121094 8.191406 5.074219 8.15625 5.039062 8.117188 L 4.976562 8.042969 L 4.914062 8.117188 C 4.855469 8.183594 4.773438 8.214844 4.773438 8.171875 Z M 5.476562 8.171875 C 5.476562 8.160156 5.511719 8.074219 5.558594 7.976562 C 5.628906 7.820312 5.644531 7.804688 5.703125 7.804688 C 5.757812 7.804688 5.773438 7.820312 5.839844 7.96875 C 5.878906 8.058594 5.917969 8.144531 5.925781 8.160156 C 5.945312 8.214844 5.863281 8.1875 5.835938 8.132812 C 5.8125 8.085938 5.796875 8.078125 5.703125 8.078125 C 5.613281 8.078125 5.59375 8.085938 5.570312 8.132812 C 5.546875 8.1875 5.476562 8.214844 5.476562 8.171875 Z M 5.773438 8.007812 C 5.773438 7.992188 5.753906 7.953125 5.734375 7.910156 L 5.699219 7.839844 L 5.65625 7.917969 C 5.636719 7.960938 5.621094 8.003906 5.628906 8.015625 C 5.644531 8.039062 5.773438 8.035156 5.773438 8.007812 Z M 6.242188 8.175781 C 6.234375 8.167969 6.226562 8.078125 6.226562 7.980469 L 6.226562 7.804688 L 6.367188 7.804688 C 6.53125 7.804688 6.613281 7.84375 6.613281 7.925781 C 6.613281 8 6.558594 8.035156 6.429688 8.046875 C 6.324219 8.058594 6.316406 8.0625 6.316406 8.125 C 6.316406 8.1875 6.277344 8.210938 6.242188 8.175781 Z M 6.484375 7.996094 C 6.503906 7.988281 6.519531 7.957031 6.519531 7.929688 C 6.519531 7.875 6.472656 7.851562 6.367188 7.851562 C 6.324219 7.847656 6.316406 7.863281 6.316406 7.929688 C 6.316406 8 6.324219 8.007812 6.382812 8.007812 C 6.417969 8.007812 6.464844 8.003906 6.484375 7.996094 Z M 6.90625 7.996094 C 6.90625 7.820312 6.910156 7.804688 6.953125 7.804688 C 6.988281 7.804688 6.996094 7.820312 6.996094 7.882812 C 6.996094 7.925781 7.003906 7.960938 7.015625 7.960938 C 7.027344 7.960938 7.066406 7.925781 7.109375 7.882812 C 7.152344 7.839844 7.207031 7.804688 7.234375 7.804688 C 7.273438 7.804688 7.261719 7.824219 7.179688 7.898438 L 7.078125 7.992188 L 7.1875 8.089844 C 7.285156 8.175781 7.292969 8.191406 7.25 8.191406 C 7.222656 8.191406 7.15625 8.148438 7.097656 8.097656 L 6.996094 8.003906 L 6.996094 8.097656 C 6.996094 8.175781 6.988281 8.191406 6.953125 8.191406 C 6.910156 8.191406 6.90625 8.175781 6.90625 7.996094 Z M 7.609375 7.996094 C 7.609375 7.839844 7.617188 7.804688 7.644531 7.804688 C 7.671875 7.804688 7.679688 7.839844 7.679688 7.996094 C 7.679688 8.152344 7.671875 8.191406 7.644531 8.191406 C 7.617188 8.191406 7.609375 8.152344 7.609375 7.996094 Z M 7.996094 7.996094 L 7.996094 7.804688 L 8.152344 7.804688 C 8.378906 7.804688 8.457031 7.894531 8.304688 7.980469 C 8.265625 8 8.265625 8.003906 8.320312 8.015625 C 8.359375 8.027344 8.382812 8.046875 8.382812 8.074219 C 8.382812 8.148438 8.292969 8.191406 8.136719 8.191406 L 7.996094 8.191406 Z M 8.289062 8.113281 C 8.328125 8.066406 8.257812 8.007812 8.164062 8.007812 C 8.09375 8.007812 8.085938 8.015625 8.085938 8.078125 C 8.085938 8.140625 8.089844 8.144531 8.175781 8.144531 C 8.222656 8.144531 8.273438 8.128906 8.289062 8.113281 Z M 8.277344 7.941406 C 8.320312 7.894531 8.269531 7.847656 8.175781 7.847656 C 8.089844 7.847656 8.085938 7.851562 8.085938 7.914062 C 8.085938 7.980469 8.089844 7.980469 8.171875 7.972656 C 8.21875 7.964844 8.265625 7.953125 8.277344 7.941406 Z M 5.773438 7.496094 C 5.605469 7.464844 5.265625 7.410156 5.023438 7.375 C 4.117188 7.234375 3.535156 7.144531 3.488281 7.132812 C 3.441406 7.125 3.425781 7.144531 3.363281 7.269531 C 3.324219 7.351562 3.277344 7.417969 3.261719 7.417969 C 3.238281 7.417969 2.0625 7.203125 1.765625 7.144531 L 1.648438 7.121094 L 1.699219 6.964844 C 1.964844 6.191406 3.089844 4.5 4.144531 3.300781 C 4.21875 3.214844 4.226562 3.214844 4.285156 3.238281 C 4.5 3.335938 4.996094 3.835938 5.347656 4.308594 C 5.480469 4.488281 5.601562 4.648438 5.613281 4.671875 C 5.628906 4.695312 5.640625 4.699219 5.652344 4.683594 C 5.90625 4.332031 6.296875 3.878906 6.558594 3.628906 C 6.796875 3.40625 7.03125 3.222656 7.085938 3.222656 C 7.144531 3.222656 7.980469 4.285156 8.445312 4.953125 C 8.910156 5.617188 9.246094 6.152344 9.449219 6.554688 C 9.5625 6.78125 9.683594 7.078125 9.667969 7.089844 C 9.65625 7.101562 8.011719 7.421875 7.992188 7.414062 C 7.984375 7.410156 7.917969 7.292969 7.847656 7.152344 L 7.722656 6.894531 L 7.679688 6.941406 C 7.652344 6.964844 7.609375 6.988281 7.582031 6.988281 C 7.554688 6.988281 7.300781 6.988281 7.023438 6.988281 C 6.605469 6.988281 6.503906 6.980469 6.460938 6.953125 C 6.40625 6.917969 6.40625 6.914062 6.40625 6.441406 C 6.40625 5.984375 6.410156 5.964844 6.457031 5.917969 C 6.503906 5.871094 6.511719 5.867188 7.042969 5.882812 C 7.339844 5.890625 7.609375 5.910156 7.644531 5.921875 L 7.710938 5.945312 L 7.664062 5.898438 C 7.589844 5.8125 7.492188 5.785156 7.242188 5.785156 L 7.007812 5.785156 L 6.9375 5.699219 L 6.863281 5.613281 L 6.777344 5.699219 L 6.6875 5.785156 L 6.488281 5.785156 C 6.304688 5.785156 6.238281 5.800781 5.636719 5.976562 C 5.277344 6.082031 4.972656 6.171875 4.960938 6.171875 C 4.945312 6.171875 4.898438 6.121094 4.859375 6.058594 C 4.761719 5.914062 4.472656 5.558594 4.453125 5.558594 C 4.417969 5.558594 4.175781 5.871094 3.980469 6.171875 C 3.871094 6.339844 3.757812 6.496094 3.734375 6.523438 C 3.675781 6.582031 3.550781 6.800781 3.550781 6.839844 C 3.550781 6.859375 3.542969 6.875 3.53125 6.875 C 3.519531 6.875 3.511719 6.894531 3.511719 6.917969 C 3.507812 6.949219 3.523438 6.96875 3.554688 6.976562 C 3.632812 6.992188 4.386719 7.027344 4.441406 7.015625 C 4.488281 7.007812 4.492188 6.996094 4.484375 6.726562 C 4.484375 6.539062 4.492188 6.4375 4.507812 6.414062 C 4.523438 6.394531 4.578125 6.375 4.625 6.371094 L 4.71875 6.363281 L 4.722656 6.667969 C 4.726562 6.859375 4.722656 6.980469 4.707031 7 C 4.675781 7.035156 4.777344 7.046875 5.296875 7.066406 L 5.671875 7.082031 L 5.671875 6.617188 C 5.671875 6.304688 5.679688 6.140625 5.695312 6.125 C 5.710938 6.113281 5.777344 6.085938 5.851562 6.066406 C 6.054688 6.011719 6.050781 6.003906 6.035156 6.554688 C 6.027344 6.8125 6.015625 7.039062 6.007812 7.058594 C 6 7.089844 6.015625 7.097656 6.070312 7.105469 C 6.136719 7.113281 6.144531 7.121094 6.167969 7.21875 C 6.21875 7.414062 6.175781 7.402344 6.882812 7.382812 C 7.226562 7.375 7.527344 7.363281 7.550781 7.359375 C 7.582031 7.355469 7.566406 7.378906 7.496094 7.453125 L 7.394531 7.554688 L 6.738281 7.550781 C 6.152344 7.550781 6.042969 7.542969 5.773438 7.496094 Z M 7.429688 6.875 L 7.429688 6.804688 L 6.703125 6.804688 L 6.703125 6.941406 L 7.429688 6.941406 Z M 6.546875 6.824219 C 6.515625 6.789062 6.488281 6.816406 6.507812 6.867188 C 6.519531 6.894531 6.527344 6.898438 6.546875 6.878906 C 6.570312 6.859375 6.570312 6.84375 6.546875 6.824219 Z M 6.667969 6.871094 C 6.691406 6.835938 6.640625 6.789062 6.609375 6.820312 C 6.582031 6.847656 6.597656 6.898438 6.632812 6.898438 C 6.644531 6.898438 6.660156 6.886719 6.667969 6.871094 Z M 7.527344 6.839844 C 7.511719 6.800781 7.480469 6.796875 7.460938 6.832031 C 7.445312 6.859375 7.496094 6.902344 7.523438 6.882812 C 7.53125 6.878906 7.535156 6.859375 7.527344 6.839844 Z M 7.632812 6.839844 C 7.632812 6.820312 7.617188 6.804688 7.597656 6.804688 C 7.578125 6.804688 7.5625 6.820312 7.5625 6.839844 C 7.5625 6.859375 7.578125 6.875 7.597656 6.875 C 7.617188 6.875 7.632812 6.859375 7.632812 6.839844 Z M 4.703125 6.546875 C 4.707031 6.40625 4.683594 6.351562 4.632812 6.390625 C 4.605469 6.417969 4.589844 6.421875 4.546875 6.421875 C 4.535156 6.421875 4.523438 6.480469 4.523438 6.558594 L 4.523438 6.695312 L 4.695312 6.679688 Z M 7.371094 6.363281 L 7.371094 6.070312 L 6.851562 6.070312 L 6.84375 6.339844 C 6.839844 6.488281 6.84375 6.625 6.847656 6.640625 C 6.859375 6.664062 6.917969 6.667969 7.117188 6.664062 L 7.371094 6.660156 Z M 7.644531 6.363281 L 7.644531 6.070312 L 7.460938 6.070312 L 7.457031 6.339844 C 7.453125 6.488281 7.453125 6.625 7.460938 6.640625 C 7.46875 6.660156 7.5 6.671875 7.558594 6.664062 L 7.644531 6.660156 Z M 6.757812 6.351562 L 6.757812 6.070312 L 6.464844 6.070312 L 6.457031 6.328125 C 6.453125 6.472656 6.457031 6.601562 6.464844 6.617188 C 6.472656 6.640625 6.511719 6.648438 6.617188 6.640625 L 6.757812 6.636719 Z M 5.835938 6.550781 C 5.84375 6.539062 5.851562 6.539062 5.863281 6.558594 C 5.875 6.574219 5.902344 6.578125 5.941406 6.570312 C 6 6.554688 6 6.554688 6 6.316406 C 6 6.078125 6 6.078125 5.949219 6.09375 C 5.921875 6.101562 5.882812 6.125 5.867188 6.144531 C 5.851562 6.167969 5.839844 6.167969 5.839844 6.152344 C 5.839844 6.132812 5.820312 6.125 5.789062 6.128906 C 5.742188 6.136719 5.738281 6.152344 5.726562 6.332031 C 5.710938 6.585938 5.71875 6.609375 5.78125 6.589844 C 5.808594 6.578125 5.832031 6.5625 5.835938 6.550781 Z M 6.65625 5.953125 C 6.65625 5.9375 6.640625 5.921875 6.621094 5.921875 C 6.589844 5.921875 6.578125 5.96875 6.601562 5.996094 C 6.625 6.015625 6.65625 5.992188 6.65625 5.953125 Z M 7.546875 5.976562 C 7.550781 5.964844 7.535156 5.953125 7.511719 5.949219 C 7.488281 5.945312 7.472656 5.953125 7.472656 5.976562 C 7.472656 6.015625 7.539062 6.019531 7.546875 5.976562 Z M 3.75 6.890625 C 3.746094 6.863281 3.746094 6.785156 3.75 6.71875 C 3.753906 6.628906 3.769531 6.59375 3.804688 6.578125 C 3.835938 6.558594 3.855469 6.558594 3.875 6.582031 C 3.894531 6.601562 3.894531 6.605469 3.875 6.59375 C 3.820312 6.5625 3.777344 6.605469 3.777344 6.683594 C 3.777344 6.746094 3.785156 6.761719 3.820312 6.761719 C 3.84375 6.761719 3.867188 6.742188 3.875 6.722656 C 3.878906 6.699219 3.886719 6.738281 3.886719 6.8125 C 3.890625 6.941406 3.890625 6.941406 3.824219 6.941406 C 3.769531 6.941406 3.753906 6.929688 3.75 6.890625 Z M 3.75 6.890625 "/>
<path style=" stroke:none;fill-rule:nonzero;fill:rgb(17.254902%,14.117648%,14.509805%);fill-opacity:1;" d="M 4.773438 8.171875 C 4.773438 8.160156 4.804688 8.125 4.84375 8.085938 C 4.878906 8.050781 4.910156 8.011719 4.910156 8 C 4.910156 7.988281 4.878906 7.941406 4.835938 7.898438 C 4.773438 7.824219 4.769531 7.816406 4.808594 7.808594 C 4.835938 7.800781 4.875 7.824219 4.914062 7.875 L 4.980469 7.953125 L 5.039062 7.878906 C 5.070312 7.835938 5.117188 7.804688 5.140625 7.804688 C 5.183594 7.804688 5.179688 7.8125 5.113281 7.898438 C 5.0625 7.960938 5.042969 8 5.058594 8.019531 C 5.070312 8.035156 5.105469 8.082031 5.132812 8.121094 C 5.179688 8.183594 5.183594 8.191406 5.144531 8.191406 C 5.121094 8.191406 5.074219 8.15625 5.039062 8.117188 L 4.976562 8.042969 L 4.914062 8.117188 C 4.855469 8.183594 4.773438 8.214844 4.773438 8.171875 Z M 5.476562 8.171875 C 5.476562 8.160156 5.511719 8.074219 5.558594 7.976562 C 5.628906 7.820312 5.644531 7.804688 5.703125 7.804688 C 5.757812 7.804688 5.773438 7.820312 5.839844 7.96875 C 5.878906 8.058594 5.917969 8.144531 5.925781 8.160156 C 5.945312 8.214844 5.863281 8.1875 5.835938 8.132812 C 5.8125 8.085938 5.796875 8.078125 5.703125 8.078125 C 5.613281 8.078125 5.59375 8.085938 5.570312 8.132812 C 5.546875 8.1875 5.476562 8.214844 5.476562 8.171875 Z M 5.773438 8.007812 C 5.773438 7.992188 5.753906 7.953125 5.734375 7.910156 L 5.699219 7.839844 L 5.65625 7.917969 C 5.636719 7.960938 5.621094 8.003906 5.628906 8.015625 C 5.644531 8.039062 5.773438 8.035156 5.773438 8.007812 Z M 6.242188 8.175781 C 6.234375 8.167969 6.226562 8.078125 6.226562 7.980469 L 6.226562 7.804688 L 6.367188 7.804688 C 6.53125 7.804688 6.613281 7.84375 6.613281 7.925781 C 6.613281 8 6.558594 8.035156 6.429688 8.046875 C 6.324219 8.058594 6.316406 8.0625 6.316406 8.125 C 6.316406 8.1875 6.277344 8.210938 6.242188 8.175781 Z M 6.484375 7.996094 C 6.503906 7.988281 6.519531 7.957031 6.519531 7.929688 C 6.519531 7.875 6.472656 7.851562 6.367188 7.851562 C 6.324219 7.847656 6.316406 7.863281 6.316406 7.929688 C 6.316406 8 6.324219 8.007812 6.382812 8.007812 C 6.417969 8.007812 6.464844 8.003906 6.484375 7.996094 Z M 6.90625 7.996094 C 6.90625 7.820312 6.910156 7.804688 6.953125 7.804688 C 6.988281 7.804688 6.996094 7.820312 6.996094 7.882812 C 6.996094 7.925781 7.003906 7.960938 7.015625 7.960938 C 7.027344 7.960938 7.066406 7.925781 7.109375 7.882812 C 7.152344 7.839844 7.207031 7.804688 7.234375 7.804688 C 7.273438 7.804688 7.261719 7.824219 7.179688 7.898438 L 7.078125 7.992188 L 7.1875 8.089844 C 7.285156 8.175781 7.292969 8.191406 7.25 8.191406 C 7.222656 8.191406 7.15625 8.148438 7.097656 8.097656 L 6.996094 8.003906 L 6.996094 8.097656 C 6.996094 8.175781 6.988281 8.191406 6.953125 8.191406 C 6.910156 8.191406 6.90625 8.175781 6.90625 7.996094 Z M 7.609375 7.996094 C 7.609375 7.839844 7.617188 7.804688 7.644531 7.804688 C 7.671875 7.804688 7.675781 7.839844 7.675781 7.996094 C 7.675781 8.152344 7.671875 8.191406 7.644531 8.191406 C 7.617188 8.191406 7.609375 8.152344 7.609375 7.996094 Z M 7.996094 7.996094 L 7.996094 7.804688 L 8.152344 7.804688 C 8.378906 7.804688 8.457031 7.894531 8.304688 7.980469 C 8.265625 8 8.265625 8.003906 8.320312 8.015625 C 8.359375 8.027344 8.382812 8.046875 8.382812 8.074219 C 8.382812 8.148438 8.292969 8.191406 8.136719 8.191406 L 7.996094 8.191406 Z M 8.289062 8.113281 C 8.328125 8.066406 8.257812 8.007812 8.164062 8.007812 C 8.09375 8.007812 8.085938 8.015625 8.085938 8.078125 C 8.085938 8.140625 8.089844 8.144531 8.175781 8.144531 C 8.222656 8.144531 8.273438 8.128906 8.289062 8.113281 Z M 8.277344 7.941406 C 8.320312 7.894531 8.269531 7.847656 8.175781 7.847656 C 8.089844 7.847656 8.085938 7.851562 8.085938 7.914062 C 8.085938 7.980469 8.089844 7.980469 8.171875 7.972656 C 8.21875 7.964844 8.265625 7.953125 8.277344 7.941406 Z M 5.773438 7.496094 C 5.605469 7.464844 5.265625 7.410156 5.023438 7.375 C 4.78125 7.335938 4.320312 7.265625 4.003906 7.214844 C 3.566406 7.148438 3.421875 7.132812 3.410156 7.152344 C 3.375 7.207031 3.390625 7.144531 3.4375 7.046875 C 3.480469 6.957031 3.492188 6.945312 3.535156 6.964844 C 3.585938 6.988281 4.363281 7.03125 4.441406 7.015625 C 4.488281 7.007812 4.492188 6.996094 4.484375 6.726562 C 4.484375 6.539062 4.492188 6.4375 4.507812 6.414062 C 4.523438 6.394531 4.578125 6.375 4.625 6.371094 L 4.71875 6.363281 L 4.722656 6.667969 C 4.726562 6.859375 4.722656 6.980469 4.707031 7 C 4.675781 7.035156 4.777344 7.046875 5.296875 7.066406 L 5.671875 7.082031 L 5.671875 6.617188 C 5.671875 6.304688 5.679688 6.140625 5.695312 6.125 C 5.710938 6.113281 5.777344 6.085938 5.851562 6.066406 C 6.054688 6.011719 6.050781 6.003906 6.035156 6.554688 C 6.027344 6.8125 6.015625 7.039062 6.007812 7.058594 C 6 7.089844 6.015625 7.097656 6.070312 7.105469 C 6.136719 7.113281 6.144531 7.121094 6.167969 7.21875 C 6.21875 7.414062 6.175781 7.402344 6.882812 7.382812 C 7.226562 7.375 7.527344 7.363281 7.550781 7.359375 C 7.582031 7.355469 7.566406 7.378906 7.496094 7.453125 L 7.394531 7.554688 L 6.738281 7.550781 C 6.152344 7.550781 6.042969 7.542969 5.773438 7.496094 Z M 4.703125 6.546875 C 4.707031 6.40625 4.683594 6.351562 4.632812 6.390625 C 4.605469 6.417969 4.589844 6.421875 4.546875 6.421875 C 4.535156 6.421875 4.523438 6.480469 4.523438 6.558594 L 4.523438 6.695312 L 4.695312 6.679688 Z M 5.835938 6.550781 C 5.84375 6.539062 5.851562 6.539062 5.863281 6.558594 C 5.875 6.574219 5.902344 6.578125 5.941406 6.570312 C 6 6.554688 6 6.554688 6 6.316406 C 6 6.078125 6 6.078125 5.949219 6.09375 C 5.917969 6.101562 5.882812 6.125 5.867188 6.144531 C 5.851562 6.167969 5.839844 6.167969 5.839844 6.152344 C 5.839844 6.132812 5.820312 6.125 5.789062 6.128906 C 5.742188 6.136719 5.738281 6.152344 5.726562 6.332031 C 5.710938 6.585938 5.71875 6.609375 5.78125 6.589844 C 5.808594 6.578125 5.832031 6.5625 5.835938 6.550781 Z M 3.085938 7.382812 L 2.949219 7.351562 L 3.074219 7.363281 C 3.140625 7.371094 3.214844 7.378906 3.234375 7.386719 C 3.253906 7.390625 3.28125 7.375 3.300781 7.339844 C 3.339844 7.265625 3.355469 7.28125 3.320312 7.359375 C 3.289062 7.425781 3.277344 7.425781 3.085938 7.382812 Z M 7.851562 7.15625 L 7.722656 6.894531 L 7.679688 6.941406 C 7.652344 6.964844 7.609375 6.988281 7.582031 6.988281 C 7.554688 6.988281 7.300781 6.988281 7.023438 6.988281 C 6.605469 6.988281 6.503906 6.980469 6.460938 6.953125 C 6.40625 6.917969 6.40625 6.914062 6.40625 6.441406 C 6.40625 5.832031 6.375 5.875 6.84375 5.878906 C 7.324219 5.882812 7.625 5.902344 7.660156 5.9375 C 7.679688 5.960938 7.691406 6.089844 7.699219 6.394531 L 7.710938 6.816406 L 7.855469 7.105469 C 7.9375 7.265625 8.003906 7.394531 8.007812 7.394531 C 8.007812 7.394531 8.367188 7.324219 8.804688 7.238281 C 9.242188 7.148438 9.609375 7.078125 9.617188 7.078125 C 9.691406 7.078125 9.382812 6.445312 9.023438 5.863281 C 8.601562 5.179688 7.703125 3.953125 7.175781 3.335938 L 7.089844 3.238281 L 6.964844 3.324219 C 6.667969 3.519531 6.191406 4.019531 5.765625 4.578125 C 5.703125 4.65625 5.648438 4.71875 5.636719 4.71875 C 5.628906 4.71875 5.511719 4.574219 5.378906 4.394531 C 5 3.878906 4.539062 3.402344 4.316406 3.289062 L 4.234375 3.246094 L 4.117188 3.375 C 3.890625 3.617188 3.554688 4.042969 3.167969 4.558594 C 2.894531 4.925781 2.839844 4.996094 2.972656 4.796875 C 3.320312 4.289062 4.175781 3.222656 4.238281 3.222656 C 4.40625 3.222656 5.191406 4.042969 5.554688 4.601562 C 5.589844 4.652344 5.625 4.695312 5.632812 4.695312 C 5.640625 4.695312 5.730469 4.585938 5.832031 4.453125 C 6.167969 4.007812 6.605469 3.554688 6.9375 3.304688 C 7.054688 3.214844 7.101562 3.203125 7.140625 3.253906 C 7.15625 3.269531 7.285156 3.433594 7.429688 3.609375 C 8.472656 4.902344 9.40625 6.324219 9.617188 6.941406 L 9.667969 7.09375 L 9.539062 7.117188 C 8.65625 7.292969 8.019531 7.417969 8 7.417969 C 7.988281 7.417969 7.921875 7.300781 7.851562 7.15625 Z M 7.429688 6.875 L 7.429688 6.804688 L 6.703125 6.804688 L 6.703125 6.941406 L 7.429688 6.941406 Z M 6.546875 6.824219 C 6.515625 6.789062 6.488281 6.816406 6.507812 6.867188 C 6.519531 6.894531 6.527344 6.898438 6.546875 6.878906 C 6.570312 6.859375 6.570312 6.84375 6.546875 6.824219 Z M 6.667969 6.871094 C 6.691406 6.835938 6.640625 6.789062 6.609375 6.820312 C 6.582031 6.847656 6.597656 6.898438 6.632812 6.898438 C 6.644531 6.898438 6.660156 6.886719 6.667969 6.871094 Z M 7.527344 6.839844 C 7.511719 6.800781 7.480469 6.796875 7.460938 6.832031 C 7.445312 6.859375 7.496094 6.902344 7.523438 6.882812 C 7.53125 6.878906 7.535156 6.859375 7.527344 6.839844 Z M 7.632812 6.839844 C 7.632812 6.820312 7.617188 6.804688 7.597656 6.804688 C 7.578125 6.804688 7.5625 6.820312 7.5625 6.839844 C 7.5625 6.859375 7.578125 6.875 7.597656 6.875 C 7.617188 6.875 7.632812 6.859375 7.632812 6.839844 Z M 7.371094 6.363281 L 7.371094 6.070312 L 6.851562 6.070312 L 6.84375 6.339844 C 6.839844 6.488281 6.84375 6.625 6.847656 6.640625 C 6.859375 6.664062 6.917969 6.667969 7.117188 6.664062 L 7.371094 6.660156 Z M 7.644531 6.363281 L 7.644531 6.070312 L 7.460938 6.070312 L 7.457031 6.339844 C 7.453125 6.488281 7.453125 6.625 7.460938 6.640625 C 7.46875 6.660156 7.5 6.671875 7.558594 6.664062 L 7.644531 6.660156 Z M 6.757812 6.351562 L 6.757812 6.070312 L 6.464844 6.070312 L 6.457031 6.328125 C 6.453125 6.472656 6.457031 6.601562 6.464844 6.617188 C 6.472656 6.640625 6.511719 6.648438 6.617188 6.640625 L 6.757812 6.636719 Z M 6.65625 5.953125 C 6.65625 5.9375 6.640625 5.921875 6.621094 5.921875 C 6.589844 5.921875 6.578125 5.96875 6.601562 5.996094 C 6.625 6.015625 6.65625 5.992188 6.65625 5.953125 Z M 7.546875 5.976562 C 7.550781 5.964844 7.535156 5.953125 7.511719 5.949219 C 7.488281 5.945312 7.472656 5.953125 7.472656 5.976562 C 7.472656 6.015625 7.539062 6.019531 7.546875 5.976562 Z M 2.765625 7.328125 C 2.707031 7.3125 2.703125 7.308594 2.753906 7.308594 C 2.785156 7.308594 2.84375 7.316406 2.878906 7.328125 C 2.941406 7.34375 2.941406 7.34375 2.890625 7.34375 C 2.859375 7.34375 2.804688 7.335938 2.765625 7.328125 Z M 2.527344 7.28125 C 2.484375 7.269531 2.480469 7.265625 2.515625 7.265625 C 2.542969 7.265625 2.59375 7.273438 2.628906 7.28125 C 2.691406 7.296875 2.691406 7.300781 2.640625 7.300781 C 2.609375 7.300781 2.558594 7.292969 2.527344 7.28125 Z M 2.375 7.242188 C 2.398438 7.238281 2.429688 7.238281 2.445312 7.246094 C 2.457031 7.25 2.441406 7.253906 2.402344 7.253906 C 2.367188 7.253906 2.351562 7.25 2.375 7.242188 Z M 3.34375 7.238281 C 3.34375 7.226562 3.355469 7.210938 3.367188 7.203125 C 3.378906 7.195312 3.382812 7.203125 3.375 7.222656 C 3.359375 7.265625 3.34375 7.269531 3.34375 7.238281 Z M 2.273438 7.222656 C 2.289062 7.214844 2.308594 7.214844 2.316406 7.222656 C 2.324219 7.230469 2.3125 7.234375 2.289062 7.234375 C 2.261719 7.234375 2.257812 7.230469 2.273438 7.222656 Z M 2.160156 7.199219 C 2.175781 7.191406 2.195312 7.191406 2.203125 7.199219 C 2.210938 7.207031 2.199219 7.214844 2.175781 7.210938 C 2.148438 7.210938 2.144531 7.207031 2.160156 7.199219 Z M 1.742188 7.144531 L 1.648438 7.121094 L 1.699219 6.964844 C 1.832031 6.578125 2.140625 6.019531 2.640625 5.273438 C 2.730469 5.136719 2.820312 5.011719 2.839844 4.992188 C 2.882812 4.953125 2.863281 4.984375 2.609375 5.367188 C 2.328125 5.789062 2.292969 5.847656 2.15625 6.089844 C 1.914062 6.507812 1.757812 6.84375 1.710938 7.027344 C 1.695312 7.097656 1.695312 7.101562 1.78125 7.125 C 1.832031 7.136719 1.871094 7.152344 1.871094 7.160156 C 1.871094 7.171875 1.863281 7.171875 1.742188 7.144531 Z M 3.75 6.890625 C 3.746094 6.863281 3.746094 6.785156 3.75 6.71875 C 3.753906 6.628906 3.769531 6.59375 3.804688 6.578125 C 3.835938 6.558594 3.855469 6.558594 3.875 6.582031 C 3.894531 6.601562 3.894531 6.605469 3.875 6.59375 C 3.820312 6.5625 3.777344 6.605469 3.777344 6.683594 C 3.777344 6.746094 3.785156 6.761719 3.820312 6.761719 C 3.84375 6.761719 3.867188 6.742188 3.875 6.722656 C 3.878906 6.699219 3.886719 6.738281 3.886719 6.8125 C 3.890625 6.941406 3.890625 6.941406 3.824219 6.941406 C 3.769531 6.941406 3.753906 6.929688 3.75 6.890625 Z M 3.730469 6.519531 C 3.730469 6.441406 4.386719 5.535156 4.441406 5.535156 C 4.457031 5.535156 4.523438 5.59375 4.585938 5.664062 C 4.742188 5.847656 4.980469 6.171875 4.957031 6.171875 C 4.949219 6.171875 4.90625 6.121094 4.863281 6.0625 C 4.722656 5.859375 4.472656 5.558594 4.445312 5.558594 C 4.398438 5.5625 4 6.101562 3.78125 6.464844 C 3.753906 6.507812 3.730469 6.535156 3.730469 6.519531 Z M 6.746094 5.707031 C 6.789062 5.660156 6.828125 5.625 6.835938 5.625 C 6.84375 5.625 6.8125 5.660156 6.769531 5.707031 C 6.726562 5.75 6.6875 5.785156 6.683594 5.785156 C 6.675781 5.785156 6.707031 5.75 6.746094 5.707031 Z M 6.929688 5.6875 L 6.855469 5.59375 L 6.941406 5.675781 C 6.988281 5.722656 7.023438 5.765625 7.015625 5.773438 C 7.011719 5.78125 6.972656 5.742188 6.929688 5.6875 Z M 6.929688 5.6875 "/>
</g>
</svg>
