<svg width="48" height="48" viewBox="0 0 48 48" fill="none" xmlns="http://www.w3.org/2000/svg">
<path opacity="0.2" fill-rule="evenodd" clip-rule="evenodd" d="M15.5202 46C12.4715 46 10 43.5285 10 40.4798C10 39.9805 10.0677 39.4835 10.2014 39.0024L19.5377 5.39175C20.0945 3.38724 21.9196 2 24 2C26.0804 2 27.9055 3.38724 28.4623 5.39175L37.7986 39.0024C37.9323 39.4835 38 39.9805 38 40.4798C38 43.5285 35.5285 46 32.4798 46H15.5202Z" fill="#FF99CC"/>
<path d="M16 42L14 40L24 8L34 40L32 42H16Z" fill="#FF99CC"/>
<path fill-rule="evenodd" clip-rule="evenodd" d="M24 11.7452L16.1514 40H31.8485L24 11.7452ZM12.1284 39.5377C11.5219 41.721 13.2226 44 15.5202 44H32.4798C34.7774 44 36.478 41.721 35.8716 39.5377L26.5353 5.92704C26.2189 4.78817 25.182 4 24 4C22.818 4 21.781 4.78816 21.4647 5.92704L12.1284 39.5377Z" fill="#DE0000"/>
</svg>
