<?xml version="1.0" encoding="UTF-8"?>
<svg xmlns="http://www.w3.org/2000/svg" xmlns:xlink="http://www.w3.org/1999/xlink" width="48" height="48" viewBox="0 0 48 48">
<path fill-rule="nonzero" fill="rgb(38.039216%, 38.039216%, 38.039216%)" fill-opacity="1" d="M 31.542969 14.039062 L 29.285156 18.609375 C 29.703125 18.792969 30.105469 18.996094 30.503906 19.214844 L 32.753906 14.652344 C 32.632812 13.785156 32.144531 13.78125 31.542969 14.039062 Z M 31.542969 14.039062 "/>
<path fill-rule="nonzero" fill="rgb(38.039216%, 38.039216%, 38.039216%)" fill-opacity="1" d="M 42.527344 26.3125 C 42.914062 25.757812 42.679688 25.144531 42.070312 25.070312 L 37.316406 26.824219 C 37.488281 27.238281 37.78125 28.097656 37.78125 28.097656 C 37.78125 28.097656 39.015625 27.644531 42.527344 26.3125 Z M 42.527344 26.3125 "/>
<path fill-rule="nonzero" fill="rgb(38.039216%, 38.039216%, 38.039216%)" fill-opacity="1" d="M 35.957031 16.800781 L 32.640625 20.640625 C 32.996094 20.921875 33.339844 21.21875 33.667969 21.53125 L 36.984375 17.691406 C 36.992188 16.976562 36.648438 16.679688 35.957031 16.800781 Z M 35.957031 16.800781 "/>
<path fill-rule="nonzero" fill="rgb(38.039216%, 38.039216%, 38.039216%)" fill-opacity="1" d="M 39.566406 20.582031 L 35.390625 23.464844 C 35.664062 23.824219 35.917969 24.199219 36.160156 24.582031 L 40.335938 21.703125 C 40.605469 20.757812 40.089844 20.667969 39.566406 20.582031 Z M 39.566406 20.582031 "/>
<path fill-rule="nonzero" fill="rgb(16.078431%, 16.078431%, 16.078431%)" fill-opacity="1" d="M 29.285156 18.609375 C 33.617188 20.699219 36.359375 23.800781 37.78125 28.097656 C 38.566406 27.800781 38.382812 27.871094 39.015625 27.644531 C 37.566406 23.070312 34.199219 19.375 29.863281 17.441406 C 29.625 17.925781 29.46875 18.183594 29.285156 18.609375 Z M 29.285156 18.609375 "/>
</svg>
