<svg width="32" height="32" viewBox="0 0 580 580" fill="none" xmlns="http://www.w3.org/2000/svg">
<path opacity="0.372" d="M247.969 55.25C250.898 55.2911 229.174 59.9788 232.031 58.6875C234.9 57.3909 216.859 70.7709 218.937 68.4062C221.015 66.0416 210.083 85.6677 211 82.6562C211.258 81.8088 211.244 83.1151 211.156 85.1562C210.887 86.7605 208.833 95.209 208.844 94.5H208.812L208.781 94.75L162.25 473.406L162.125 474.344L162.344 474.375C162.746 474.62 163.572 492.739 163.031 490.594C162.459 488.319 171.915 508.027 170.5 506.156C169.085 504.285 185.439 518.733 183.406 517.562C181.374 516.392 202.109 523.285 199.781 523C197.453 522.715 219.192 521.01 216.938 521.656C214.683 522.302 234.074 512.244 232.25 513.719C230.426 515.193 244.323 498.337 243.219 500.406C243.018 500.782 243.798 498.24 244 497.375L288.906 465.437L335.812 498.406C336.156 499.761 337.032 502.656 336.781 502.187C335.677 500.118 349.574 516.974 347.75 515.5C345.926 514.026 365.317 524.083 363.062 523.437C360.808 522.792 382.547 524.496 380.219 524.781C377.891 525.066 398.626 518.173 396.594 519.344C394.561 520.514 410.915 506.067 409.5 507.937C408.085 509.808 417.541 490.101 416.969 492.375C416.43 494.516 417.253 476.505 417.656 476.187L417.875 476.156L417.75 475.188L371.219 94.875H371.25C371.253 94.9006 371.218 94.6721 371.219 94.6875C371.219 94.7005 371.188 94.5252 371.188 94.5312C371.142 94.8406 369.573 87.9583 369.375 86.6562C369.387 85.6511 369.442 84.7913 369.5 84.375C368.223 82.7207 362.492 71.4954 361.875 69.4375C359.962 68.4345 350.162 60.8132 348.688 59.1875C346.194 59.0884 329.775 55.2982 332.313 55.25H248H247.969H247.969ZM370.031 101.031L370.281 101.094C370.2 101.521 370.113 101.42 370.031 101.031ZM290.375 359.969L297.562 365.594L288.656 371.938L281.437 366.875L290.375 359.969Z" fill="#E4E4E4"/>
<path d="M205.072 479.633L251.766 99.7969" stroke="black" stroke-width="25.7327" stroke-linecap="round" stroke-linejoin="round"/>
<path d="M374.928 481.429L328.234 99.7969" stroke="black" stroke-width="25.7327" stroke-linecap="round" stroke-linejoin="round"/>
<path d="M247.98 93.918H332.324" stroke="black" stroke-width="16.4258" stroke-linecap="round" stroke-linejoin="round"/>
<path d="M206.868 476.939L361.317 367.109L230.167 264.162" stroke="black" stroke-width="15.5016" stroke-linecap="round" stroke-linejoin="round"/>
<path d="M371.651 476.94L217.202 368.387L352.039 263.883" stroke="black" stroke-width="15.5016" stroke-linejoin="round"/>
<path d="M236.5 262.918L334.378 175.802L257.154 99.8086" stroke="black" stroke-width="15.5016"/>
<path d="M343.909 262.55L246.031 175.435L323.256 99.4414" stroke="black" stroke-width="15.5016"/>
</svg>
