<?xml version="1.0" encoding="UTF-8"?>
<svg xmlns="http://www.w3.org/2000/svg" xmlns:xlink="http://www.w3.org/1999/xlink" width="12" height="12" viewBox="0 0 12 12" version="1.1">
<defs>
<filter id="alpha" filterUnits="objectBoundingBox" x="0%" y="0%" width="100%" height="100%">
  <feColorMatrix type="matrix" in="SourceGraphic" values="0 0 0 0 1 0 0 0 0 1 0 0 0 0 1 0 0 0 1 0"/>
</filter>
<mask id="mask0">
  <g filter="url(#alpha)">
<rect x="0" y="0" width="12" height="12" style="fill:rgb(0%,0%,0%);fill-opacity:0.686;stroke:none;"/>
  </g>
</mask>
<clipPath id="clip1">
  <rect x="0" y="0" width="12" height="12"/>
</clipPath>
<g id="surface5" clip-path="url(#clip1)">
<path style=" stroke:none;fill-rule:nonzero;fill:rgb(99.607843%,99.607843%,99.607843%);fill-opacity:1;" d="M 6 9.378906 C 7.867188 9.378906 9.378906 7.867188 9.378906 6 C 9.378906 4.132812 7.867188 2.621094 6 2.621094 C 4.132812 2.621094 2.621094 4.132812 2.621094 6 C 2.621094 7.867188 4.132812 9.378906 6 9.378906 Z M 6 9.378906 "/>
</g>
</defs>
<g id="surface1">
<use xlink:href="#surface5" mask="url(#mask0)"/>
<path style=" stroke:none;fill-rule:nonzero;fill:rgb(0%,21.960784%,53.333336%);fill-opacity:1;" d="M 6 8.980469 C 7.644531 8.980469 8.980469 7.644531 8.980469 6 C 8.980469 4.355469 7.644531 3.019531 6 3.019531 C 4.355469 3.019531 3.019531 4.355469 3.019531 6 C 3.019531 7.644531 4.355469 8.980469 6 8.980469 Z M 6 8.980469 "/>
<path style=" stroke:none;fill-rule:nonzero;fill:rgb(0%,47.450981%,17.254902%);fill-opacity:1;" d="M 6 8.828125 C 7.5625 8.828125 8.828125 7.5625 8.828125 6 C 8.828125 4.4375 7.5625 3.171875 6 3.171875 C 4.4375 3.171875 3.171875 4.4375 3.171875 6 C 3.171875 7.5625 4.4375 8.828125 6 8.828125 Z M 6 8.828125 "/>
<path style=" stroke:none;fill-rule:nonzero;fill:rgb(99.607843%,99.607843%,99.607843%);fill-opacity:1;" d="M 6 8.234375 C 7.234375 8.234375 8.234375 7.234375 8.234375 6 C 8.234375 4.765625 7.234375 3.765625 6 3.765625 C 4.765625 3.765625 3.765625 4.765625 3.765625 6 C 3.765625 7.234375 4.765625 8.234375 6 8.234375 Z M 6 8.234375 "/>
<path style=" stroke:none;fill-rule:nonzero;fill:rgb(0%,21.960784%,53.333336%);fill-opacity:1;" d="M 4.824219 4.882812 L 4.238281 4.882812 L 4.238281 5.390625 L 4.53125 5.390625 L 5.527344 7.117188 L 6.113281 7.117188 Z M 4.824219 4.882812 "/>
<path style=" stroke:none;fill-rule:nonzero;fill:rgb(0%,47.450981%,17.254902%);fill-opacity:1;" d="M 4.566406 6.582031 C 4.746094 6.582031 4.894531 6.433594 4.894531 6.253906 C 4.894531 6.070312 4.746094 5.925781 4.566406 5.925781 C 4.386719 5.925781 4.238281 6.070312 4.238281 6.253906 C 4.238281 6.433594 4.386719 6.582031 4.566406 6.582031 Z M 4.566406 6.582031 "/>
<path style=" stroke:none;fill-rule:nonzero;fill:rgb(0%,21.960784%,53.333336%);fill-opacity:1;" d="M 4.566406 6.507812 C 4.707031 6.507812 4.820312 6.394531 4.820312 6.253906 C 4.820312 6.113281 4.707031 6 4.566406 6 C 4.425781 6 4.3125 6.113281 4.3125 6.253906 C 4.3125 6.394531 4.425781 6.507812 4.566406 6.507812 Z M 4.566406 6.507812 "/>
<path style=" stroke:none;fill-rule:nonzero;fill:rgb(0%,21.960784%,53.333336%);fill-opacity:1;" d="M 6.644531 4.882812 L 6.0625 4.882812 L 6.0625 5.390625 L 6.351562 5.390625 L 7.351562 7.117188 L 7.933594 7.117188 Z M 6.644531 4.882812 "/>
<path style=" stroke:none;fill-rule:nonzero;fill:rgb(0%,21.960784%,53.333336%);fill-opacity:1;" d="M 5.734375 4.882812 L 5.148438 4.882812 L 5.148438 5.390625 L 5.441406 5.390625 L 6.441406 7.117188 L 7.023438 7.117188 Z M 5.734375 4.882812 "/>
</g>
</svg>
