<?xml version="1.0" encoding="UTF-8"?>
<svg xmlns="http://www.w3.org/2000/svg" xmlns:xlink="http://www.w3.org/1999/xlink" width="12" height="12" viewBox="0 0 12 12">
<path fill-rule="evenodd" fill="rgb(0%, 16.078431%, 23.921569%)" fill-opacity="0.75" d="M 3.3125 5.644531 L 2.136719 6.046875 C 1.378906 6.304688 0.566406 5.886719 0.3125 5.117188 C 0.0625 4.347656 0.46875 3.515625 1.222656 3.257812 L 5.164062 1.917969 C 5.480469 0.945312 6.378906 0.246094 7.441406 0.246094 C 7.949219 0.246094 8.417969 0.40625 8.804688 0.679688 L 9.863281 0.320312 C 10.617188 0.0625 11.433594 0.480469 11.6875 1.25 C 11.9375 2.019531 11.53125 2.851562 10.773438 3.109375 L 9.71875 3.46875 C 9.636719 3.71875 9.511719 3.953125 9.359375 4.164062 C 10.683594 4.164062 11.761719 5.257812 11.761719 6.613281 L 11.761719 10.039062 C 11.761719 11.121094 10.898438 12 9.839844 12 L 5.039062 12 C 3.980469 12 3.121094 11.121094 3.121094 10.039062 L 3.121094 6.613281 C 3.121094 6.269531 3.1875 5.941406 3.3125 5.644531 Z M 3.3125 5.644531 "/>
<path fill-rule="evenodd" fill="rgb(0%, 57.254902%, 85.490196%)" fill-opacity="1" d="M 10.777344 1.558594 C 10.859375 1.816406 10.722656 2.09375 10.472656 2.179688 L 8.878906 2.71875 C 8.867188 3.347656 8.472656 3.878906 7.921875 4.078125 L 7.921875 5.144531 L 9.359375 5.144531 C 10.15625 5.144531 10.800781 5.800781 10.800781 6.613281 L 10.800781 10.039062 C 10.800781 10.582031 10.371094 11.019531 9.839844 11.019531 L 5.039062 11.019531 C 4.511719 11.019531 4.078125 10.582031 4.078125 10.039062 L 4.078125 6.613281 C 4.078125 5.800781 4.726562 5.144531 5.519531 5.144531 L 6.960938 5.144531 L 6.960938 4.078125 C 6.699219 3.984375 6.472656 3.816406 6.304688 3.597656 L 1.832031 5.117188 C 1.582031 5.203125 1.308594 5.066406 1.226562 4.808594 C 1.140625 4.550781 1.277344 4.273438 1.527344 4.1875 L 6 2.667969 C 6.015625 1.867188 6.652344 1.222656 7.441406 1.222656 C 7.902344 1.222656 8.3125 1.445312 8.578125 1.792969 L 10.167969 1.25 C 10.417969 1.164062 10.691406 1.300781 10.777344 1.558594 Z M 9.839844 9.0625 L 9.839844 6.121094 L 5.039062 6.121094 L 5.039062 9.0625 Z M 9.839844 9.0625 "/>
</svg>
