<?xml version="1.0" encoding="UTF-8"?>
<svg xmlns="http://www.w3.org/2000/svg" xmlns:xlink="http://www.w3.org/1999/xlink" width="12" height="12" viewBox="0 0 12 12" version="1.1">
<defs>
<filter id="alpha" filterUnits="objectBoundingBox" x="0%" y="0%" width="100%" height="100%">
  <feColorMatrix type="matrix" in="SourceGraphic" values="0 0 0 0 1 0 0 0 0 1 0 0 0 0 1 0 0 0 1 0"/>
</filter>
<mask id="mask0">
  <g filter="url(#alpha)">
<rect x="0" y="0" width="12" height="12" style="fill:rgb(0%,0%,0%);fill-opacity:0.426087;stroke:none;"/>
  </g>
</mask>
<clipPath id="clip1">
  <rect x="0" y="0" width="12" height="12"/>
</clipPath>
<g id="surface5" clip-path="url(#clip1)">
<path style=" stroke:none;fill-rule:nonzero;fill:rgb(55.29412%,55.29412%,55.29412%);fill-opacity:1;" d="M 4.042969 6.027344 C 3.949219 6.027344 3.859375 6.0625 3.785156 6.121094 C 3.710938 6.183594 3.660156 6.265625 3.640625 6.355469 L 2.851562 10.007812 L 2.074219 10.007812 C 1.960938 10.007812 1.855469 10.050781 1.777344 10.128906 C 1.699219 10.207031 1.652344 10.316406 1.652344 10.425781 L 1.652344 10.945312 C 1.652344 11.054688 1.699219 11.164062 1.777344 11.242188 C 1.855469 11.320312 1.960938 11.363281 2.074219 11.363281 L 4.730469 11.363281 C 4.964844 11.75 5.386719 12.007812 5.863281 12.007812 C 6.34375 12.007812 6.765625 11.75 7 11.363281 L 9.425781 11.363281 C 9.539062 11.363281 9.644531 11.320312 9.722656 11.242188 C 9.800781 11.164062 9.84375 11.054688 9.84375 10.945312 L 9.84375 10.425781 C 9.84375 10.316406 9.800781 10.207031 9.722656 10.128906 C 9.644531 10.050781 9.539062 10.007812 9.425781 10.007812 L 8.902344 10.007812 L 9.425781 7.421875 C 9.4375 7.367188 9.4375 7.3125 9.425781 7.257812 C 9.414062 7.203125 9.394531 7.148438 9.363281 7.101562 C 9.332031 7.058594 9.292969 7.015625 9.246094 6.988281 C 9.199219 6.957031 9.144531 6.9375 9.089844 6.925781 L 8.328125 6.789062 L 4.125 6.03125 C 4.097656 6.027344 4.070312 6.027344 4.042969 6.027344 Z M 4.042969 6.027344 "/>
</g>
<mask id="mask1">
  <g filter="url(#alpha)">
<rect x="0" y="0" width="12" height="12" style="fill:rgb(0%,0%,0%);fill-opacity:0.426087;stroke:none;"/>
  </g>
</mask>
<clipPath id="clip2">
  <rect x="0" y="0" width="12" height="12"/>
</clipPath>
<g id="surface8" clip-path="url(#clip2)">
<path style=" stroke:none;fill-rule:nonzero;fill:rgb(0%,0%,0%);fill-opacity:1;" d="M 8.25 7.203125 L 9.007812 7.339844 L 8.378906 10.4375 L 7.597656 10.453125 Z M 8.25 7.203125 "/>
</g>
</defs>
<g id="surface1">
<use xlink:href="#surface5" mask="url(#mask0)"/>
<path style=" stroke:none;fill-rule:nonzero;fill:rgb(0%,0%,0%);fill-opacity:1;" d="M 9.007812 7.339844 L 4.046875 6.449219 L 3.105469 10.773438 L 4.972656 10.75 C 5.039062 11.183594 5.214844 11.515625 5.851562 11.582031 C 6.410156 11.539062 6.6875 11.214844 6.765625 10.722656 L 8.324219 10.699219 Z M 9.007812 7.339844 "/>
<path style=" stroke:none;fill-rule:nonzero;fill:rgb(100%,83.137256%,0%);fill-opacity:1;" d="M 3.796875 7.585938 L 8.757812 8.566406 L 8.464844 10.007812 L 3.480469 9.054688 Z M 3.796875 7.585938 "/>
<use xlink:href="#surface8" mask="url(#mask1)"/>
<path style="fill:none;stroke-width:25;stroke-linecap:butt;stroke-linejoin:miter;stroke:rgb(0%,0%,0%);stroke-opacity:1;stroke-miterlimit:4;" d="M 99.876302 516.5625 L 455.390625 516.5625 " transform="matrix(0.0206897,0,0,0.0206897,0,0)"/>
<path style="fill-rule:nonzero;fill:rgb(99.607843%,99.607843%,99.607843%);fill-opacity:1;stroke-width:20.5723;stroke-linecap:round;stroke-linejoin:round;stroke:rgb(0%,0%,0%);stroke-opacity:1;stroke-miterlimit:10;" d="M 316.809896 516.373698 C 316.809896 525.247396 313.222656 533.932292 306.992188 540.16276 C 300.572917 546.393229 292.076823 549.980469 283.203125 549.980469 C 274.329427 549.980469 265.644531 546.393229 259.414062 540.16276 C 253.183594 533.932292 249.596354 525.247396 249.596354 516.373698 C 249.596354 507.5 253.183594 499.003906 259.414062 492.584635 C 265.644531 486.354167 274.329427 482.766927 283.203125 482.766927 C 292.076823 482.766927 300.572917 486.354167 306.992188 492.584635 C 313.222656 499.003906 316.809896 507.5 316.809896 516.373698 Z M 316.809896 516.373698 " transform="matrix(0.0206897,0,0,0.0206897,0,0)"/>
</g>
</svg>
