<?xml version="1.0" encoding="UTF-8"?>
<svg xmlns="http://www.w3.org/2000/svg" xmlns:xlink="http://www.w3.org/1999/xlink" width="48" height="48" viewBox="0 0 48 48">
<defs>
<filter id="filter-remove-color" x="0%" y="0%" width="100%" height="100%">
<feColorMatrix color-interpolation-filters="sRGB" values="0 0 0 0 1 0 0 0 0 1 0 0 0 0 1 0 0 0 1 0" />
</filter>
<mask id="mask-0">
<g filter="url(#filter-remove-color)">
<rect x="-4.8" y="-4.8" width="57.6" height="57.6" fill="rgb(0%, 0%, 0%)" fill-opacity="0.41791"/>
</g>
</mask>
<clipPath id="clip-0">
<path clip-rule="nonzero" d="M 1 0 L 37 0 L 37 35 L 1 35 Z M 1 0 "/>
</clipPath>
<clipPath id="clip-1">
<rect x="0" y="0" width="48" height="48"/>
</clipPath>
<g id="source-6" clip-path="url(#clip-1)">
<g clip-path="url(#clip-0)">
<path fill="none" stroke-width="57.158501" stroke-linecap="butt" stroke-linejoin="miter" stroke="rgb(18.039216%, 0%, 100%)" stroke-opacity="1" stroke-miterlimit="4" d="M 472.721354 449.602865 L 354.454753 274.057617 " transform="matrix(0.045283, 0, 0, 0.045283, 0, 0)"/>
</g>
</g>
<mask id="mask-1">
<g filter="url(#filter-remove-color)">
<rect x="-4.8" y="-4.8" width="57.6" height="57.6" fill="rgb(0%, 0%, 0%)" fill-opacity="0.417722"/>
</g>
</mask>
<clipPath id="clip-2">
<rect x="0" y="0" width="48" height="48"/>
</clipPath>
<g id="source-10" clip-path="url(#clip-2)">
<path fill-rule="nonzero" fill="rgb(18.039216%, 0%, 100%)" fill-opacity="1" d="M 13.097656 19.742188 C 13.097656 20.234375 12.902344 20.710938 12.550781 21.0625 C 12.199219 21.410156 11.726562 21.609375 11.230469 21.609375 C 10.734375 21.609375 10.257812 21.410156 9.910156 21.0625 C 9.558594 20.710938 9.359375 20.234375 9.359375 19.742188 C 9.359375 19.246094 9.558594 18.769531 9.910156 18.417969 C 10.257812 18.070312 10.734375 17.871094 11.230469 17.871094 C 11.726562 17.871094 12.199219 18.070312 12.550781 18.417969 C 12.902344 18.769531 13.097656 19.246094 13.097656 19.742188 Z M 13.097656 19.742188 "/>
</g>
<mask id="mask-2">
<g filter="url(#filter-remove-color)">
<rect x="-4.8" y="-4.8" width="57.6" height="57.6" fill="rgb(0%, 0%, 0%)" fill-opacity="0.417722"/>
</g>
</mask>
<clipPath id="clip-3">
<rect x="0" y="0" width="48" height="48"/>
</clipPath>
<g id="source-14" clip-path="url(#clip-3)">
<path fill-rule="nonzero" fill="rgb(18.039216%, 0%, 100%)" fill-opacity="1" d="M 16.921875 28.523438 C 16.921875 28.925781 16.761719 29.3125 16.476562 29.59375 C 16.195312 29.878906 15.808594 30.039062 15.40625 30.039062 C 15.003906 30.039062 14.621094 29.878906 14.335938 29.59375 C 14.050781 29.3125 13.894531 28.925781 13.894531 28.523438 C 13.894531 28.125 14.050781 27.738281 14.335938 27.453125 C 14.621094 27.171875 15.003906 27.011719 15.40625 27.011719 C 15.808594 27.011719 16.195312 27.171875 16.476562 27.453125 C 16.761719 27.738281 16.921875 28.125 16.921875 28.523438 Z M 16.921875 28.523438 "/>
</g>
<mask id="mask-3">
<g filter="url(#filter-remove-color)">
<rect x="-4.8" y="-4.8" width="57.6" height="57.6" fill="rgb(0%, 0%, 0%)" fill-opacity="0.417722"/>
</g>
</mask>
<clipPath id="clip-4">
<rect x="0" y="0" width="48" height="48"/>
</clipPath>
<g id="source-18" clip-path="url(#clip-4)">
<path fill-rule="nonzero" fill="rgb(18.039216%, 0%, 100%)" fill-opacity="1" d="M 34.613281 33.769531 C 34.613281 34.191406 34.445312 34.59375 34.144531 34.894531 C 33.847656 35.191406 33.445312 35.359375 33.023438 35.359375 C 32.601562 35.359375 32.195312 35.191406 31.898438 34.894531 C 31.601562 34.59375 31.433594 34.191406 31.433594 33.769531 C 31.433594 33.347656 31.601562 32.945312 31.898438 32.644531 C 32.195312 32.347656 32.601562 32.179688 33.023438 32.179688 C 33.445312 32.179688 33.847656 32.347656 34.144531 32.644531 C 34.445312 32.945312 34.613281 33.347656 34.613281 33.769531 Z M 34.613281 33.769531 "/>
</g>
<mask id="mask-4">
<g filter="url(#filter-remove-color)">
<rect x="-4.8" y="-4.8" width="57.6" height="57.6" fill="rgb(0%, 0%, 0%)" fill-opacity="0.417722"/>
</g>
</mask>
<clipPath id="clip-5">
<rect x="0" y="0" width="48" height="48"/>
</clipPath>
<g id="source-22" clip-path="url(#clip-5)">
<path fill-rule="nonzero" fill="rgb(18.039216%, 0%, 100%)" fill-opacity="1" d="M 18.667969 35.449219 C 18.667969 35.871094 18.5 36.273438 18.203125 36.570312 C 17.902344 36.871094 17.5 37.039062 17.078125 37.039062 C 16.65625 37.039062 16.253906 36.871094 15.953125 36.570312 C 15.65625 36.273438 15.488281 35.871094 15.488281 35.449219 C 15.488281 35.027344 15.65625 34.621094 15.953125 34.324219 C 16.253906 34.027344 16.65625 33.859375 17.078125 33.859375 C 17.5 33.859375 17.902344 34.027344 18.203125 34.324219 C 18.5 34.621094 18.667969 35.027344 18.667969 35.449219 Z M 18.667969 35.449219 "/>
</g>
</defs>
<g mask="url(#mask-0)">
<use xlink:href="#source-6"/>
</g>
<g mask="url(#mask-1)">
<use xlink:href="#source-10"/>
</g>
<g mask="url(#mask-2)">
<use xlink:href="#source-14"/>
</g>
<g mask="url(#mask-3)">
<use xlink:href="#source-18"/>
</g>
<g mask="url(#mask-4)">
<use xlink:href="#source-22"/>
</g>
</svg>
