<?xml version="1.0" encoding="UTF-8"?>
<svg xmlns="http://www.w3.org/2000/svg" xmlns:xlink="http://www.w3.org/1999/xlink" width="48" height="48" viewBox="0 0 48 48">
<path fill-rule="nonzero" fill="rgb(57.647059%, 0%, 57.647059%)" fill-opacity="1" d="M 28.070312 18.59375 C 27.011719 18.589844 25.949219 19.308594 25.816406 20.476562 L 25.816406 28.816406 L 30.226562 28.816406 L 30.226562 20.476562 C 29.9375 19.164062 29.007812 18.597656 28.070312 18.59375 Z M 27.964844 19.914062 C 28.710938 19.914062 29.316406 20.613281 29.316406 20.945312 C 29.316406 21.277344 28.710938 21.542969 27.964844 21.542969 C 27.21875 21.542969 26.613281 21.277344 26.613281 20.945312 C 26.613281 20.613281 27.21875 19.914062 27.964844 19.914062 Z M 28.136719 22.082031 L 28.960938 22.082031 L 27.835938 24.410156 L 29.539062 24.410156 L 27.933594 27.371094 L 29.070312 27.238281 L 27.097656 28.605469 L 26.332031 26.804688 L 27.226562 27.304688 L 28.363281 25.109375 L 26.746094 25.109375 Z M 28.136719 22.082031 "/>
<path fill="none" stroke-width="15.1461" stroke-linecap="round" stroke-linejoin="round" stroke="rgb(57.647059%, 0%, 57.647059%)" stroke-opacity="1" stroke-miterlimit="4" d="M 577.703451 606.429036 C 577.703451 606.429036 545.096029 599.786784 498.427734 621.611328 C 464.353841 637.483724 378.522135 667.244466 427.433268 611.173503 C 441.062826 595.646159 452.708333 590.125326 452.62207 557.345378 " transform="matrix(0.045283, 0, 0, 0.045283, 0, 0)"/>
<path fill-rule="nonzero" fill="rgb(57.647059%, 0%, 57.647059%)" fill-opacity="1" d="M 21.136719 25.398438 L 19.871094 25.367188 C 18.925781 25.308594 18.660156 25.101562 18.183594 24.867188 L 18.15625 24.097656 L 17.777344 23.910156 L 17.773438 21.769531 C 17.816406 21.589844 17.855469 21.558594 18.019531 21.496094 L 23.019531 21.496094 C 23.234375 21.484375 23.332031 21.636719 23.332031 21.835938 L 23.316406 23.972656 L 22.953125 24.175781 L 22.953125 24.976562 C 22.445312 25.339844 21.925781 25.316406 21.136719 25.398438 Z M 21.136719 25.398438 "/>
<path fill="none" stroke-width="24.251499" stroke-linecap="round" stroke-linejoin="miter" stroke="rgb(57.647059%, 0%, 57.647059%)" stroke-opacity="1" stroke-miterlimit="4" d="M 488.852539 494.200846 L 488.852539 422.516276 " transform="matrix(0.045283, 0, 0, 0.045283, 0, 0)"/>
<path fill="none" stroke-width="24.251499" stroke-linecap="round" stroke-linejoin="miter" stroke="rgb(57.647059%, 0%, 57.647059%)" stroke-opacity="1" stroke-miterlimit="4" d="M 419.842122 492.475586 L 419.842122 420.704753 " transform="matrix(0.045283, 0, 0, 0.045283, 0, 0)"/>
</svg>
