<svg width="32" height="32" viewBox="0 0 16 16" fill="none" xmlns="http://www.w3.org/2000/svg">
<path d="M8.70075 4.25949C7.57731 4.27709 6.03836 4.38775 4.72028 5.25558C4.71169 5.26192 4.70322 5.26843 4.69489 5.27511C3.61742 6.05028 2.50549 6.92433 1.89216 8.35909C1.87148 8.40818 1.85578 8.45922 1.84528 8.51144C1.73327 9.04818 2.00108 9.66707 2.51716 9.92159C2.80972 10.0659 3.01218 10.0559 3.39606 10.0681C3.40987 10.0685 3.45396 10.0677 3.46833 10.0681C3.46555 10.096 3.46425 10.124 3.46442 10.1521L3.47614 10.9392C3.4794 11.1474 3.56397 11.3461 3.71178 11.4928C3.85958 11.6395 4.0589 11.7226 4.26715 11.7243C5.82742 11.7362 7.5314 11.8005 9.2027 11.5896C9.22366 11.5871 9.24451 11.5839 9.2652 11.5798C10.8536 11.249 12.2715 10.208 13.4879 8.79071C13.6988 8.56363 13.8244 8.35522 13.9488 8.09735C14.0778 7.82995 14.1684 7.56414 14.1793 7.2575C14.19 6.9546 14.082 6.57969 13.8218 6.32196C13.783 6.27945 13.7488 6.23384 13.7007 6.19696C13.5412 6.07459 13.3449 5.99747 13.1285 5.95868C13.082 5.95062 13.035 5.9467 12.9879 5.94696H12.8297C12.8339 5.91197 12.8359 5.87674 12.8356 5.84149L12.8258 5.05243C12.823 4.84319 12.7381 4.64342 12.5894 4.49619C12.4407 4.34895 12.2401 4.26605 12.0308 4.26534C12.0308 4.26534 10.6155 4.26334 9.65973 4.26143C9.40861 4.26108 9.07608 4.25359 8.70075 4.25948V4.25949ZM13.8316 6.33175L14.0133 6.613C14.0133 6.613 13.9544 6.47708 13.9019 6.40402C13.8836 6.3785 13.8537 6.35653 13.8316 6.33175L13.8316 6.33175Z" fill="#FEFEFE"/>
<path d="M4.2726 10.9268L4.26123 10.1394C4.26123 10.1394 6.07679 10.1444 7.17573 10.1444C7.78769 10.1444 8.14132 10.1219 8.33931 10.0702C9.34532 9.82609 10.115 9.20717 10.7465 8.52227C11.0456 8.1355 11.091 7.88735 10.8956 7.6686L10.7234 7.59965L8.75391 7.58536C7.50148 7.57627 6.78443 7.55296 6.78443 7.52133C6.78443 7.45622 7.15422 7.19694 7.60701 6.94455L7.96865 6.74298H12.9873C13.2275 6.78604 13.2642 6.88437 13.2642 6.88437C13.4328 7.04707 13.4243 7.34987 13.2308 7.75101C13.1456 7.92776 12.9961 8.15693 12.8986 8.26027C11.7551 9.5971 10.4577 10.5164 9.10247 10.7987C7.51966 10.9984 5.84841 10.9388 4.2726 10.9268V10.9268Z" fill="#A90D18"/>
<path d="M2.87078 9.20693C2.67625 9.11099 2.57998 8.90028 2.62723 8.67386C3.15011 7.45069 4.10374 6.67999 5.15898 5.92081C6.62045 4.95857 8.59828 5.05697 9.65676 5.05849C10.613 5.0604 12.0283 5.06248 12.0283 5.06248L12.0378 5.85136L9.71976 5.87319C7.99953 5.86838 6.73352 6.06164 5.55131 7.15109C5.02923 7.67232 4.9009 7.91127 5.01202 8.15517C5.11976 8.39163 5.22312 8.40432 7.26009 8.43116L9.17196 8.45636L8.83698 8.7504C8.58258 8.9737 8.41546 9.07372 8.14229 9.16614L7.78259 9.28783L5.40638 9.28668C3.35688 9.2857 3.00825 9.27473 2.87078 9.20693Z" fill="#153A63"/>
</svg>
