<?xml version="1.0" encoding="UTF-8"?>
<svg xmlns="http://www.w3.org/2000/svg" xmlns:xlink="http://www.w3.org/1999/xlink" width="12" height="12" viewBox="0 0 12 12">
<defs>
<filter id="filter-remove-color" x="0%" y="0%" width="100%" height="100%">
<feColorMatrix color-interpolation-filters="sRGB" values="0 0 0 0 1 0 0 0 0 1 0 0 0 0 1 0 0 0 1 0" />
</filter>
<mask id="mask-0">
<g filter="url(#filter-remove-color)">
<rect x="-1.2" y="-1.2" width="14.4" height="14.4" fill="rgb(0%, 0%, 0%)" fill-opacity="0.5"/>
</g>
</mask>
<clipPath id="clip-0">
<rect x="0" y="0" width="12" height="12"/>
</clipPath>
<g id="source-9" clip-path="url(#clip-0)">
<path fill-rule="nonzero" fill="rgb(0%, 57.254902%, 85.490196%)" fill-opacity="1" d="M 4 9 L 5 9 L 4.5 10 L 7.5 10 L 8 11 L 3 11 Z M 4 9 "/>
<path fill-rule="nonzero" fill="rgb(0%, 57.254902%, 85.490196%)" fill-opacity="1" d="M 7 9 L 8 9 L 9 11 L 8 11 Z M 7 9 "/>
</g>
</defs>
<path fill-rule="evenodd" fill="rgb(100%, 100%, 100%)" fill-opacity="0.75" d="M 9.355469 9.472656 C 9.75 9.105469 10 8.582031 10 8 L 10 3.707031 C 10 2.988281 9.714844 2.300781 9.207031 1.792969 C 8.699219 1.285156 8.011719 1 7.292969 1 L 4.707031 1 C 3.988281 1 3.300781 1.285156 2.792969 1.792969 C 2.285156 2.300781 2 2.988281 2 3.707031 L 2 8 C 2 8.582031 2.25 9.105469 2.644531 9.472656 L 1.382812 12 L 10.617188 12 Z M 9.355469 9.472656 "/>
<path fill-rule="evenodd" fill="rgb(0%, 57.254902%, 85.490196%)" fill-opacity="1" d="M 4.707031 2 C 4.253906 2 3.820312 2.179688 3.5 2.5 C 3.179688 2.820312 3 3.253906 3 3.707031 L 3 8 C 3 8.550781 3.449219 9 4 9 L 8 9 C 8.550781 9 9 8.550781 9 8 L 9 3.707031 C 9 3.253906 8.820312 2.820312 8.5 2.5 C 8.179688 2.179688 7.746094 2 7.292969 2 Z M 8 4 L 4 4 L 4 6 L 8 6 Z M 4.5 8 C 4.777344 8 5 7.777344 5 7.5 C 5 7.222656 4.777344 7 4.5 7 C 4.222656 7 4 7.222656 4 7.5 C 4 7.777344 4.222656 8 4.5 8 Z M 8 7.5 C 8 7.777344 7.777344 8 7.5 8 C 7.222656 8 7 7.777344 7 7.5 C 7 7.222656 7.222656 7 7.5 7 C 7.777344 7 8 7.222656 8 7.5 Z M 8 7.5 "/>
<g mask="url(#mask-0)">
<use xlink:href="#source-9"/>
</g>
</svg>
