<?xml version="1.0" encoding="UTF-8"?>
<svg xmlns="http://www.w3.org/2000/svg" xmlns:xlink="http://www.w3.org/1999/xlink" width="12" height="12" viewBox="0 0 12 12" version="1.1">
<g id="surface1">
<path style=" stroke:none;fill-rule:nonzero;fill:rgb(99.607843%,99.607843%,99.607843%);fill-opacity:1;" d="M 4.851562 2.738281 C 4.808594 2.738281 4.765625 2.746094 4.722656 2.757812 C 4.722656 2.757812 4.046875 2.957031 3.382812 3.558594 C 3.382812 3.558594 3.382812 3.5625 3.382812 3.5625 C 2.679688 4.199219 2.050781 5.257812 2.152344 6.777344 C 2.238281 8.09375 3.148438 9.085938 3.148438 9.085938 C 3.148438 9.085938 3.148438 9.085938 3.148438 9.089844 C 3.246094 9.199219 3.386719 9.261719 3.53125 9.261719 C 4.824219 9.261719 6.5 9.253906 8.46875 9.261719 C 8.617188 9.261719 8.757812 9.199219 8.855469 9.089844 C 8.855469 9.085938 8.855469 9.085938 8.855469 9.085938 C 8.855469 9.085938 9.769531 8.09375 9.851562 6.773438 C 9.941406 5.257812 9.316406 4.199219 8.605469 3.558594 C 7.941406 2.960938 7.265625 2.761719 7.265625 2.761719 C 7 2.679688 6.71875 2.835938 6.640625 3.101562 L 6.078125 5.015625 C 6.070312 5.03125 6.0625 5.046875 6.046875 5.058594 C 6.03125 5.070312 6.015625 5.074219 5.996094 5.074219 C 5.976562 5.074219 5.960938 5.070312 5.945312 5.058594 C 5.929688 5.046875 5.917969 5.03125 5.914062 5.015625 L 5.347656 3.101562 C 5.285156 2.882812 5.082031 2.734375 4.851562 2.738281 Z M 4.851562 2.738281 "/>
<path style=" stroke:none;fill-rule:nonzero;fill:rgb(13.333334%,31.37255%,63.921571%);fill-opacity:1;" d="M 8.265625 3.933594 C 7.679688 3.40625 7.125 3.242188 7.125 3.242188 L 6.003906 7.0625 L 5.992188 7.0625 L 4.863281 3.242188 C 4.863281 3.242188 4.304688 3.402344 3.722656 3.933594 C 3.097656 4.5 2.5625 5.367188 2.652344 6.742188 C 2.726562 7.832031 3.53125 8.757812 3.53125 8.757812 L 5.085938 8.75 C 5.085938 8.75 3.75 8.042969 3.429688 6.925781 C 3.046875 5.605469 3.644531 4.691406 4.105469 4.253906 C 4.292969 4.09375 4.566406 4.054688 4.664062 4.402344 C 5.011719 5.519531 6 8.71875 6 8.71875 L 6.003906 8.71875 C 6.003906 8.71875 6.984375 5.519531 7.335938 4.402344 C 7.441406 4.054688 7.714844 4.09375 7.898438 4.253906 C 8.355469 4.691406 8.957031 5.605469 8.574219 6.925781 C 8.25 8.042969 6.914062 8.75 6.914062 8.75 L 8.472656 8.757812 C 8.472656 8.757812 9.28125 7.828125 9.347656 6.742188 C 9.429688 5.367188 8.894531 4.5 8.265625 3.933594 Z M 8.265625 3.933594 "/>
</g>
</svg>
