<?xml version="1.0" encoding="UTF-8"?>
<svg xmlns="http://www.w3.org/2000/svg" xmlns:xlink="http://www.w3.org/1999/xlink" width="12" height="12" viewBox="0 0 12 12" version="1.1">
<g id="surface1">
<path style=" stroke:none;fill-rule:nonzero;fill:rgb(0%,0%,0%);fill-opacity:1;" d="M 3.695312 6.984375 L 2.703125 6.984375 C 1.980469 8.628906 5.472656 9.191406 7.023438 8.730469 C 6.363281 8.761719 2.410156 8.136719 3.695312 6.984375 Z M 3.695312 6.984375 "/>
<path style=" stroke:none;fill-rule:nonzero;fill:rgb(0%,0%,0%);fill-opacity:1;" d="M 7.515625 5.992188 L 7.515625 6.984375 C 7.910156 6.984375 8.304688 7.148438 8.304688 7.542969 C 8.304688 8.101562 5.867188 8.234375 5.867188 8.234375 C 7.679688 8.464844 8.964844 8.035156 8.964844 7.3125 C 8.964844 6.585938 8.304688 5.992188 7.515625 5.992188 Z M 7.515625 5.992188 "/>
<path style="fill:none;stroke-width:33.0037;stroke-linecap:butt;stroke-linejoin:miter;stroke:rgb(0%,0%,0%);stroke-opacity:1;stroke-miterlimit:4;" d="M 369.674479 305.670573 C 428.580729 305.670573 465.208333 350.227865 465.208333 385.345052 C 465.208333 437.832031 376.09375 464.830729 282.070312 464.830729 C 188.046875 464.830729 114.791667 428.203125 114.791667 385.345052 C 114.791667 359.856771 138.769531 321.529948 178.606771 321.529948 " transform="matrix(0.0206897,0,0,0.0206897,0,0)"/>
<path style=" stroke:none;fill-rule:nonzero;fill:rgb(0%,0%,0%);fill-opacity:1;" d="M 5.011719 2.371094 C 5.011719 2.371094 4.054688 2.039062 2.046875 2.039062 L 2.046875 7.972656 C 2.410156 6.949219 3.695312 6.652344 3.695312 6.652344 C 3.695312 3.65625 5.011719 2.371094 5.011719 2.371094 Z M 5.011719 2.371094 "/>
<path style=" stroke:none;fill-rule:nonzero;fill:rgb(0%,0%,0%);fill-opacity:1;" d="M 7.976562 2.371094 C 7.976562 2.371094 8.867188 2.039062 9.953125 2.039062 L 9.953125 7.9375 C 9.953125 7.542969 8.832031 6.984375 7.316406 6.984375 C 7.316406 4.644531 7.613281 3.191406 7.976562 2.371094 Z M 7.976562 2.371094 "/>
<path style=" stroke:none;fill-rule:nonzero;fill:rgb(0%,0%,0%);fill-opacity:1;" d="M 7.152344 2.371094 C 6.460938 2.371094 6 4.542969 6 7.3125 C 6 7.476562 6.132812 7.640625 6.328125 7.640625 C 6.496094 7.640625 6.660156 7.511719 6.660156 7.3125 C 6.660156 5.335938 6.855469 2.566406 7.484375 2.371094 Z M 7.152344 2.371094 "/>
<path style=" stroke:none;fill-rule:nonzero;fill:rgb(0%,0%,0%);fill-opacity:1;" d="M 6.03125 2.371094 C 5.375 2.371094 4.351562 4.082031 4.351562 7.3125 C 4.351562 7.476562 4.484375 7.640625 4.683594 7.640625 C 4.847656 7.640625 5.011719 7.511719 5.011719 7.3125 C 5.011719 4.148438 5.703125 2.566406 6.328125 2.371094 Z M 6.03125 2.371094 "/>
</g>
</svg>
