<svg width="32" height="32" viewBox="0 0 16 16" fill="none" xmlns="http://www.w3.org/2000/svg">
<path d="M7.99999 3.50079C5.51718 3.50079 3.50079 5.51718 3.50079 7.99999C3.50079 10.4828 5.51718 12.4992 7.99999 12.4992C10.4828 12.4992 12.4992 10.4828 12.4992 7.99999C12.4992 5.51718 10.4828 3.50079 7.99999 3.50079V3.50079Z" fill="#FEFEFE"/>
<path d="M8.00002 11.8066C10.1023 11.8066 11.8066 10.1023 11.8066 7.99999C11.8066 5.89766 10.1023 4.19339 8.00002 4.19339C5.89769 4.19339 4.19342 5.89766 4.19342 7.99999C4.19342 10.1023 5.89769 11.8066 8.00002 11.8066Z" fill="#FEFEFE" stroke="black" stroke-width="0.348645"/>
<path d="M8.03934 6.51874V10.3772V6.51874ZM6.36603 6.51874H9.6536Z" fill="black"/>
<path d="M6.36603 6.51874H9.6536M8.03934 6.51874V10.3772V6.51874Z" stroke="black" stroke-width="1.45677" stroke-linecap="square"/>
</svg>
