<?xml version="1.0" encoding="UTF-8"?>
<svg xmlns="http://www.w3.org/2000/svg" xmlns:xlink="http://www.w3.org/1999/xlink" width="48" height="48" viewBox="0 0 48 48">
<defs>
<filter id="filter-remove-color" x="0%" y="0%" width="100%" height="100%">
<feColorMatrix color-interpolation-filters="sRGB" values="0 0 0 0 1 0 0 0 0 1 0 0 0 0 1 0 0 0 1 0" />
</filter>
<mask id="mask-0">
<g filter="url(#filter-remove-color)">
<rect x="-4.8" y="-4.8" width="57.6" height="57.6" fill="rgb(0%, 0%, 0%)" fill-opacity="0.372"/>
</g>
</mask>
<clipPath id="clip-0">
<rect x="0" y="0" width="48" height="48"/>
</clipPath>
<g id="source-7" clip-path="url(#clip-0)">
<path fill-rule="nonzero" fill="rgb(89.411765%, 89.411765%, 89.411765%)" fill-opacity="1" d="M 27.539062 11.769531 C 27.683594 11.773438 26.691406 11.96875 26.824219 11.914062 C 26.957031 11.859375 26.121094 12.429688 26.222656 12.324219 C 26.300781 12.242188 25.996094 12.726562 25.875 12.890625 C 25.449219 12.769531 24.871094 12.691406 24.199219 12.90625 L 24.195312 12.902344 C 23.613281 13.066406 23.488281 13.027344 23.671875 13.097656 C 23.636719 13.082031 23.597656 13.070312 23.5625 13.058594 C 23.464844 13.03125 23.007812 12.730469 22.171875 12.75 C 22.152344 12.75 22.136719 12.753906 22.121094 12.753906 C 21.476562 12.792969 21.066406 13.007812 20.839844 13.089844 C 20.746094 13.125 20.714844 13.132812 20.695312 13.140625 C 20.6875 13.132812 20.5625 13.082031 20.25 12.976562 C 20.214844 12.964844 20.164062 12.953125 20.121094 12.941406 C 20.121094 12.9375 20.117188 12.90625 20.121094 12.914062 C 20.175781 13.046875 19.621094 12.210938 19.722656 12.3125 C 19.824219 12.414062 18.988281 11.859375 19.121094 11.914062 C 19.253906 11.96875 18.265625 11.78125 18.410156 11.777344 C 18.550781 11.777344 17.585938 11.984375 17.714844 11.929688 C 17.84375 11.871094 17.03125 12.433594 17.128906 12.332031 C 17.226562 12.230469 16.691406 13.058594 16.742188 12.925781 C 16.789062 12.804688 16.640625 13.609375 16.617188 13.605469 L 16.613281 13.605469 L 16.613281 20.433594 C 16.613281 20.300781 16.804688 21.257812 16.75 21.128906 C 16.695312 21 17.246094 21.820312 17.144531 21.722656 C 17.046875 21.621094 17.867188 22.171875 17.738281 22.117188 C 17.683594 22.09375 17.824219 22.117188 17.984375 22.144531 L 17.601562 31.335938 L 15.503906 31.335938 C 15.316406 31.335938 15.125 31.375 14.949219 31.449219 C 14.773438 31.519531 14.613281 31.628906 14.480469 31.761719 C 14.34375 31.898438 14.238281 32.054688 14.164062 32.234375 C 14.09375 32.410156 14.054688 32.597656 14.054688 32.789062 L 14.054688 33.832031 C 14.054688 34.019531 14.09375 34.210938 14.164062 34.386719 C 14.238281 34.5625 14.34375 34.722656 14.480469 34.855469 C 14.613281 34.992188 14.773438 35.097656 14.949219 35.171875 C 15.125 35.242188 15.316406 35.28125 15.503906 35.28125 L 20.058594 35.28125 C 20.707031 36.269531 21.824219 36.917969 23.078125 36.917969 C 24.335938 36.917969 25.453125 36.269531 26.101562 35.28125 L 30.652344 35.28125 C 30.839844 35.28125 31.03125 35.242188 31.207031 35.171875 C 31.382812 35.097656 31.542969 34.992188 31.675781 34.855469 C 31.8125 34.722656 31.917969 34.5625 31.992188 34.386719 C 32.0625 34.210938 32.101562 34.019531 32.101562 33.832031 L 32.101562 32.789062 C 32.101562 32.597656 32.0625 32.410156 31.992188 32.234375 C 31.917969 32.054688 31.8125 31.898438 31.675781 31.761719 C 31.542969 31.628906 31.382812 31.519531 31.207031 31.449219 C 31.03125 31.375 30.839844 31.335938 30.652344 31.335938 L 28.457031 31.335938 L 28.046875 22.132812 C 28.175781 22.109375 28.273438 22.097656 28.230469 22.113281 C 28.097656 22.167969 28.917969 21.617188 28.820312 21.71875 C 28.71875 21.820312 29.265625 20.996094 29.214844 21.128906 C 29.160156 21.257812 29.347656 20.300781 29.351562 20.433594 C 29.351562 20.433594 29.351562 20.429688 29.351562 20.429688 L 29.351562 13.605469 L 29.328125 13.605469 C 29.285156 13.445312 29.1875 12.835938 29.230469 12.945312 C 29.28125 13.078125 28.742188 12.226562 28.84375 12.332031 C 28.941406 12.433594 28.117188 11.863281 28.25 11.917969 C 28.378906 11.976562 27.394531 11.769531 27.539062 11.769531 Z M 22.976562 26.183594 L 23.421875 26.527344 L 22.96875 26.921875 L 22.523438 26.539062 Z M 23.078125 33.242188 C 23.082031 33.242188 23.148438 33.304688 23.148438 33.308594 C 23.148438 33.316406 23.085938 33.378906 23.078125 33.378906 C 23.074219 33.378906 23.011719 33.316406 23.011719 33.308594 C 23.011719 33.304688 23.074219 33.242188 23.078125 33.242188 Z M 23.078125 33.242188 "/>
</g>
</defs>
<g mask="url(#mask-0)">
<use xlink:href="#source-7"/>
</g>
<path fill="none" stroke-width="17.158001" stroke-linecap="butt" stroke-linejoin="miter" stroke="rgb(0%, 0%, 0%)" stroke-opacity="1" stroke-miterlimit="4" d="M 548.719076 735.478516 C 548.719076 740.568034 547.770182 745.657552 545.786133 750.402018 C 543.802083 755.146484 540.955404 759.459635 537.332357 763.082682 C 533.623047 766.705729 529.396159 769.638672 524.651693 771.536458 C 519.907227 773.520508 514.817708 774.555664 509.641927 774.555664 C 504.552409 774.555664 499.462891 773.520508 494.718424 771.536458 C 489.973958 769.638672 485.660807 766.705729 482.03776 763.082682 C 478.414714 759.459635 475.481771 755.146484 473.497721 750.402018 C 471.599935 745.657552 470.564779 740.568034 470.564779 735.478516 C 470.564779 730.302734 471.599935 725.213216 473.497721 720.46875 C 475.481771 715.724284 478.414714 711.411133 482.03776 707.788086 C 485.660807 704.165039 489.973958 701.318359 494.718424 699.33431 C 499.462891 697.35026 504.552409 696.315104 509.641927 696.315104 C 514.817708 696.315104 519.907227 697.35026 524.651693 699.33431 C 529.396159 701.318359 533.623047 704.165039 537.332357 707.788086 C 540.955404 711.411133 543.802083 715.724284 545.786133 720.46875 C 547.770182 725.213216 548.719076 730.302734 548.719076 735.478516 Z M 548.719076 735.478516 " transform="matrix(0.045283, 0, 0, 0.045283, 0, 0)"/>
<path fill-rule="nonzero" fill="rgb(0%, 0%, 0%)" fill-opacity="1" d="M 15.503906 32.78125 L 15.503906 33.824219 L 21.632812 33.824219 L 21.632812 32.78125 Z M 24.523438 32.78125 L 24.523438 33.824219 L 30.652344 33.824219 L 30.652344 32.78125 Z M 24.523438 32.78125 "/>
<path fill="none" stroke-width="16.4151" stroke-linecap="round" stroke-linejoin="round" stroke="rgb(0%, 0%, 0%)" stroke-opacity="1" stroke-miterlimit="4" d="M 607.895508 300.367839 L 607.895508 451.069336 L 407.075195 451.069336 L 407.075195 300.367839 " transform="matrix(0.045283, 0, 0, 0.045283, 0, 0)"/>
<path fill="none" stroke-width="10.9232" stroke-linecap="round" stroke-linejoin="miter" stroke="rgb(0%, 0%, 0%)" stroke-opacity="1" stroke-miterlimit="4" d="M 577.875977 582.620443 L 435.369466 706.407878 " transform="matrix(0.045283, 0, 0, 0.045283, 0, 0)"/>
<path fill="none" stroke-width="21.8463" stroke-linecap="round" stroke-linejoin="round" stroke="rgb(0%, 0%, 0%)" stroke-opacity="1" stroke-miterlimit="4" d="M 574.943034 456.245117 L 587.019857 728.059896 " transform="matrix(0.045283, 0, 0, 0.045283, 0, 0)"/>
<path fill="none" stroke-width="21.8463" stroke-linecap="round" stroke-linejoin="round" stroke="rgb(0%, 0%, 0%)" stroke-opacity="1" stroke-miterlimit="4" d="M 441.494141 455.46875 L 430.193685 728.059896 " transform="matrix(0.045283, 0, 0, 0.045283, 0, 0)"/>
<path fill="none" stroke-width="10.9232" stroke-linecap="round" stroke-linejoin="miter" stroke="rgb(0%, 0%, 0%)" stroke-opacity="1" stroke-miterlimit="4" d="M 436.490885 582.620443 L 578.997396 706.407878 " transform="matrix(0.045283, 0, 0, 0.045283, 0, 0)"/>
<path fill="none" stroke-width="10.9232" stroke-linecap="round" stroke-linejoin="miter" stroke="rgb(0%, 0%, 0%)" stroke-opacity="1" stroke-miterlimit="4" d="M 575.029297 478.414714 L 438.647461 584.000651 " transform="matrix(0.045283, 0, 0, 0.045283, 0, 0)"/>
<path fill="none" stroke-width="10.9232" stroke-linecap="round" stroke-linejoin="miter" stroke="rgb(0%, 0%, 0%)" stroke-opacity="1" stroke-miterlimit="4" d="M 439.76888 478.414714 L 576.150716 584.000651 " transform="matrix(0.045283, 0, 0, 0.045283, 0, 0)"/>
<path fill-rule="evenodd" fill="rgb(0%, 0%, 0%)" fill-opacity="1" d="M 22.207031 14.195312 C 21.609375 14.230469 21.09375 14.695312 20.476562 14.574219 C 20.007812 14.488281 19.5625 14.136719 19.066406 14.292969 C 18.878906 14.339844 18.695312 14.40625 18.511719 14.472656 C 18.519531 14.71875 18.5 14.996094 18.523438 15.21875 C 18.945312 15.054688 19.445312 14.921875 19.878906 15.128906 C 20.242188 15.269531 20.640625 15.453125 21.035156 15.300781 C 21.53125 15.144531 22.0625 14.832031 22.601562 15.011719 C 23.03125 15.136719 23.484375 15.394531 23.941406 15.230469 C 24.4375 15.09375 24.976562 14.878906 25.496094 15.054688 C 25.976562 15.183594 26.488281 15.449219 26.988281 15.265625 C 27.074219 15.214844 27.261719 15.226562 27.269531 15.121094 C 27.269531 14.886719 27.269531 14.652344 27.269531 14.421875 C 26.878906 14.578125 26.429688 14.621094 26.03125 14.464844 C 25.570312 14.320312 25.070312 14.117188 24.589844 14.292969 C 24.128906 14.421875 23.625 14.628906 23.144531 14.441406 C 22.835938 14.351562 22.539062 14.183594 22.207031 14.195312 Z M 22.207031 14.195312 "/>
</svg>
