<?xml version="1.0" encoding="UTF-8"?>
<svg xmlns="http://www.w3.org/2000/svg" xmlns:xlink="http://www.w3.org/1999/xlink" width="64" height="64" viewBox="0 0 64 64">
<defs>
<filter id="filter-remove-color" x="0%" y="0%" width="100%" height="100%">
<feColorMatrix color-interpolation-filters="sRGB" values="0 0 0 0 1 0 0 0 0 1 0 0 0 0 1 0 0 0 1 0" />
</filter>
<mask id="mask-0">
<g filter="url(#filter-remove-color)">
<rect x="-6.4" y="-6.4" width="76.8" height="76.8" fill="rgb(0%, 0%, 0%)" fill-opacity="0.426087"/>
</g>
</mask>
<clipPath id="clip-0">
<rect x="0" y="0" width="64" height="64"/>
</clipPath>
<g id="source-6" clip-path="url(#clip-0)">
<path fill-rule="nonzero" fill="rgb(67.45098%, 84.705882%, 95.294118%)" fill-opacity="1" d="M 32.097656 3.023438 C 31.699219 3.015625 31.300781 3.058594 30.910156 3.152344 C 28.375 3.75 26.777344 6.328125 27.378906 8.867188 C 27.699219 10.238281 28.601562 11.332031 29.761719 11.957031 L 29.761719 30.316406 C 29.761719 30.703125 29.921875 31.089844 30.195312 31.363281 C 30.46875 31.640625 30.855469 31.800781 31.246094 31.800781 L 32.753906 31.800781 C 33.144531 31.800781 33.53125 31.640625 33.804688 31.363281 C 34.078125 31.089844 34.238281 30.703125 34.238281 30.316406 L 34.238281 11.953125 C 36.082031 10.957031 37.125 8.808594 36.621094 6.683594 C 36.117188 4.542969 34.21875 3.066406 32.097656 3.023438 Z M 32.097656 3.023438 "/>
</g>
</defs>
<g mask="url(#mask-0)">
<use xlink:href="#source-6"/>
</g>
<path fill="none" stroke-width="26.198" stroke-linecap="butt" stroke-linejoin="miter" stroke="rgb(0%, 0%, 0%)" stroke-opacity="1" stroke-miterlimit="4" d="M 529.870605 510.396729 L 529.870605 119.754639 " transform="matrix(0.0603774, 0, 0, 0.0603774, 0, 0)"/>
<path fill-rule="nonzero" fill="rgb(0%, 0%, 0%)" fill-opacity="1" d="M 35.167969 7.035156 C 35.269531 7.453125 35.285156 7.882812 35.214844 8.308594 C 35.144531 8.730469 34.996094 9.136719 34.769531 9.5 C 34.542969 9.867188 34.25 10.183594 33.902344 10.433594 C 33.554688 10.683594 33.160156 10.863281 32.742188 10.960938 C 32.324219 11.058594 31.890625 11.074219 31.46875 11.007812 C 31.046875 10.9375 30.640625 10.785156 30.277344 10.5625 C 29.910156 10.335938 29.59375 10.039062 29.34375 9.691406 C 29.09375 9.34375 28.914062 8.949219 28.816406 8.535156 C 28.71875 8.117188 28.703125 7.683594 28.769531 7.261719 C 28.839844 6.835938 28.992188 6.433594 29.214844 6.066406 C 29.441406 5.703125 29.734375 5.386719 30.082031 5.136719 C 30.433594 4.882812 30.824219 4.703125 31.242188 4.605469 C 31.660156 4.507812 32.09375 4.492188 32.515625 4.5625 C 32.9375 4.628906 33.34375 4.78125 33.710938 5.007812 C 34.074219 5.234375 34.390625 5.527344 34.640625 5.875 C 34.890625 6.222656 35.070312 6.617188 35.167969 7.035156 Z M 35.167969 7.035156 "/>
</svg>
