<?xml version="1.0" encoding="UTF-8"?>
<svg xmlns="http://www.w3.org/2000/svg" xmlns:xlink="http://www.w3.org/1999/xlink" width="12" height="12" viewBox="0 0 12 12" version="1.1">
<defs>
<filter id="alpha" filterUnits="objectBoundingBox" x="0%" y="0%" width="100%" height="100%">
  <feColorMatrix type="matrix" in="SourceGraphic" values="0 0 0 0 1 0 0 0 0 1 0 0 0 0 1 0 0 0 1 0"/>
</filter>
<mask id="mask0">
  <g filter="url(#alpha)">
<rect x="0" y="0" width="12" height="12" style="fill:rgb(0%,0%,0%);fill-opacity:0.43913;stroke:none;"/>
  </g>
</mask>
<clipPath id="clip1">
  <rect x="0" y="0" width="12" height="12"/>
</clipPath>
<g id="surface5" clip-path="url(#clip1)">
<path style=" stroke:none;fill-rule:nonzero;fill:rgb(67.450982%,84.705883%,95.294118%);fill-opacity:1;" d="M 5.285156 0.671875 C 5.183594 0.671875 5.082031 0.730469 5.03125 0.820312 C 4.980469 0.90625 4.980469 1.023438 5.03125 1.113281 L 5.566406 2.015625 L 5.566406 5.726562 C 5.566406 5.800781 5.597656 5.878906 5.652344 5.933594 C 5.707031 5.984375 5.78125 6.019531 5.859375 6.019531 L 6.140625 6.019531 C 6.21875 6.019531 6.292969 5.984375 6.347656 5.933594 C 6.402344 5.878906 6.433594 5.800781 6.433594 5.726562 L 6.433594 1.976562 L 6.964844 1.117188 C 7.019531 1.03125 7.019531 0.910156 6.972656 0.820312 C 6.921875 0.730469 6.820312 0.671875 6.714844 0.671875 Z M 5.285156 0.671875 "/>
</g>
</defs>
<g id="surface1">
<use xlink:href="#surface5" mask="url(#mask0)"/>
<path style="fill:none;stroke-width:24.1387;stroke-linecap:butt;stroke-linejoin:miter;stroke:rgb(0%,0%,0%);stroke-opacity:1;stroke-miterlimit:4;" d="M 530.345052 508.606771 L 530.345052 92.81901 " transform="matrix(0.0113208,0,0,0.0113208,0,0)"/>
<path style=" stroke:none;fill-rule:nonzero;fill:rgb(0%,0%,0%);fill-opacity:1;" d="M 6.71875 0.960938 L 5.285156 0.960938 L 5.984375 2.144531 "/>
</g>
</svg>
