<?xml version="1.0" encoding="UTF-8"?>
<svg xmlns="http://www.w3.org/2000/svg" xmlns:xlink="http://www.w3.org/1999/xlink" width="32" height="32" viewBox="0 0 32 32">
<path fill-rule="nonzero" fill="rgb(0%, 0%, 0%)" fill-opacity="1" d="M 20.808594 11.601562 L 18.007812 12.367188 L 16.449219 11.285156 L 15.910156 11.414062 L 17.453125 12.5 L 8.957031 14.828125 L 9.578125 17.109375 L 18.105469 14.785156 C 21.410156 13.804688 20.808594 11.597656 20.808594 11.597656 "/>
<path fill-rule="nonzero" fill="rgb(0%, 0%, 0%)" fill-opacity="1" d="M 13.441406 17.4375 C 13.453125 17.246094 13.488281 17.0625 13.550781 16.890625 L 9.707031 17.964844 L 9.828125 18.4375 Z M 13.441406 17.4375 "/>
<path fill-rule="nonzero" fill="rgb(0%, 0%, 0%)" fill-opacity="1" d="M 16.933594 16.472656 C 16.828125 16.320312 16.703125 16.183594 16.566406 16.066406 L 22.976562 14.296875 L 22.976562 14.804688 Z M 16.933594 16.472656 "/>
<path fill-rule="nonzero" fill="rgb(0%, 0%, 0%)" fill-opacity="1" d="M 15.347656 18.15625 C 15 18.15625 14.722656 17.878906 14.722656 17.535156 C 14.722656 17.1875 15 16.910156 15.347656 16.910156 C 15.691406 16.910156 15.972656 17.1875 15.972656 17.535156 C 15.972656 17.878906 15.691406 18.15625 15.347656 18.15625 Z M 9.085938 21.988281 C 9.390625 21.988281 9.683594 21.917969 9.941406 21.804688 C 10.207031 21.679688 10.507812 21.609375 10.820312 21.609375 C 11.132812 21.609375 11.433594 21.679688 11.699219 21.804688 C 11.960938 21.917969 12.25 21.988281 12.554688 21.988281 C 12.859375 21.988281 13.148438 21.917969 13.410156 21.804688 C 13.675781 21.679688 13.976562 21.609375 14.289062 21.609375 C 14.601562 21.609375 14.902344 21.679688 15.167969 21.804688 C 15.425781 21.917969 15.71875 21.988281 16.023438 21.988281 C 16.324219 21.988281 16.617188 21.917969 16.875 21.804688 C 17.144531 21.679688 17.445312 21.609375 17.757812 21.609375 C 18.070312 21.609375 18.371094 21.679688 18.636719 21.804688 C 18.894531 21.917969 19.1875 21.988281 19.492188 21.988281 C 19.792969 21.988281 20.085938 21.917969 20.347656 21.804688 C 20.613281 21.679688 20.914062 21.609375 21.226562 21.609375 C 21.535156 21.609375 21.839844 21.679688 22.105469 21.804688 C 22.363281 21.917969 22.65625 21.988281 22.957031 21.988281 L 22.976562 16.898438 L 15.964844 18.828125 C 16.449219 18.59375 16.785156 18.105469 16.785156 17.535156 C 16.785156 16.738281 16.140625 16.09375 15.34375 16.09375 C 14.546875 16.09375 13.902344 16.738281 13.902344 17.535156 C 13.902344 18.328125 14.550781 18.972656 15.34375 18.972656 C 15.390625 18.972656 15.441406 18.964844 15.484375 18.960938 L 9.09375 20.722656 Z M 9.085938 21.988281 "/>
</svg>
