<?xml version="1.0" encoding="UTF-8"?>
<svg xmlns="http://www.w3.org/2000/svg" xmlns:xlink="http://www.w3.org/1999/xlink" width="32" height="32" viewBox="0 0 32 32">
<defs>
<filter id="filter-remove-color" x="0%" y="0%" width="100%" height="100%">
<feColorMatrix color-interpolation-filters="sRGB" values="0 0 0 0 1 0 0 0 0 1 0 0 0 0 1 0 0 0 1 0" />
</filter>
<mask id="mask-0">
<g filter="url(#filter-remove-color)">
<rect x="-3.2" y="-3.2" width="38.4" height="38.4" fill="rgb(0%, 0%, 0%)" fill-opacity="0.426087"/>
</g>
</mask>
<clipPath id="clip-0">
<path clip-rule="nonzero" d="M 9 11 L 22 11 L 22 32 L 9 32 Z M 9 11 "/>
</clipPath>
<clipPath id="clip-1">
<rect x="0" y="0" width="32" height="32"/>
</clipPath>
<g id="source-7" clip-path="url(#clip-1)">
<g clip-path="url(#clip-0)">
<path fill-rule="nonzero" fill="rgb(55.294118%, 55.294118%, 55.294118%)" fill-opacity="1" d="M 14.386719 11.808594 C 14.238281 11.808594 14.089844 11.839844 13.949219 11.894531 C 13.8125 11.953125 13.6875 12.035156 13.582031 12.140625 C 13.472656 12.25 13.390625 12.375 13.332031 12.511719 C 13.277344 12.652344 13.246094 12.796875 13.246094 12.949219 L 13.246094 25.847656 C 12.980469 26.085938 12.753906 26.363281 12.570312 26.671875 L 10.460938 26.671875 C 10.3125 26.671875 10.164062 26.699219 10.023438 26.757812 C 9.886719 26.816406 9.761719 26.898438 9.65625 27.003906 C 9.546875 27.109375 9.464844 27.234375 9.40625 27.375 C 9.351562 27.511719 9.320312 27.660156 9.320312 27.808594 L 9.320312 29.191406 C 9.320312 29.339844 9.351562 29.488281 9.40625 29.625 C 9.464844 29.765625 9.546875 29.890625 9.65625 29.996094 C 9.761719 30.101562 9.886719 30.183594 10.023438 30.242188 C 10.164062 30.300781 10.3125 30.328125 10.460938 30.328125 L 12.589844 30.328125 C 13.21875 31.359375 14.339844 32.050781 15.625 32.050781 C 16.90625 32.050781 18.03125 31.359375 18.660156 30.328125 L 20.785156 30.328125 C 20.933594 30.328125 21.082031 30.300781 21.21875 30.242188 C 21.359375 30.183594 21.484375 30.101562 21.589844 29.996094 C 21.695312 29.890625 21.78125 29.765625 21.835938 29.625 C 21.894531 29.488281 21.925781 29.339844 21.925781 29.191406 L 21.925781 27.808594 C 21.925781 27.660156 21.894531 27.511719 21.835938 27.375 C 21.78125 27.234375 21.695312 27.109375 21.589844 27.003906 C 21.484375 26.898438 21.359375 26.816406 21.21875 26.757812 C 21.082031 26.699219 20.933594 26.671875 20.785156 26.671875 L 18.675781 26.671875 C 18.480469 26.347656 18.242188 26.054688 17.960938 25.808594 L 17.960938 12.949219 C 17.960938 12.796875 17.929688 12.652344 17.875 12.511719 C 17.816406 12.375 17.730469 12.25 17.625 12.140625 C 17.519531 12.035156 17.394531 11.953125 17.257812 11.894531 C 17.117188 11.839844 16.96875 11.808594 16.820312 11.808594 Z M 14.386719 11.808594 "/>
</g>
</g>
</defs>
<g mask="url(#mask-0)">
<use xlink:href="#source-7"/>
</g>
<path fill-rule="nonzero" fill="rgb(100%, 83.137255%, 0%)" fill-opacity="1" d="M 16.820312 12.949219 L 14.386719 12.949219 L 14.386719 28.355469 L 16.820312 28.355469 Z M 16.820312 12.949219 "/>
<path fill="none" stroke-width="25" stroke-linecap="butt" stroke-linejoin="miter" stroke="rgb(0%, 0%, 0%)" stroke-opacity="1" stroke-miterlimit="4" d="M 189.604492 516.5625 L 376.730957 516.5625 " transform="matrix(0.0551724, 0, 0, 0.0551724, 0, 0)"/>
<path fill-rule="nonzero" fill="rgb(99.607843%, 99.607843%, 99.607843%)" fill-opacity="1" stroke-width="20.5723" stroke-linecap="round" stroke-linejoin="round" stroke="rgb(0%, 0%, 0%)" stroke-opacity="1" stroke-miterlimit="10" d="M 316.833496 516.420898 C 316.833496 525.341797 313.293457 533.837891 306.992188 540.13916 C 300.690918 546.44043 292.124023 549.980469 283.203125 549.980469 C 274.282227 549.980469 265.715332 546.44043 259.414062 540.13916 C 253.112793 533.837891 249.572754 525.341797 249.572754 516.420898 C 249.572754 507.5 253.112793 498.933105 259.414062 492.631836 C 265.715332 486.330566 274.282227 482.790527 283.203125 482.790527 C 292.124023 482.790527 300.690918 486.330566 306.992188 492.631836 C 313.293457 498.933105 316.833496 507.5 316.833496 516.420898 Z M 316.833496 516.420898 " transform="matrix(0.0551724, 0, 0, 0.0551724, 0, 0)"/>
<path fill-rule="nonzero" fill="rgb(0%, 0%, 0%)" fill-opacity="1" d="M 16.820312 17.964844 L 14.386719 17.964844 L 14.386719 22.894531 L 16.820312 22.894531 Z M 16.820312 17.964844 "/>
</svg>
