<?xml version="1.0" encoding="UTF-8"?>
<svg xmlns="http://www.w3.org/2000/svg" xmlns:xlink="http://www.w3.org/1999/xlink" width="12" height="12" viewBox="0 0 12 12" version="1.1">
<g id="surface1">
<path style="fill:none;stroke-width:14.6078;stroke-linecap:round;stroke-linejoin:round;stroke:rgb(57.647061%,0%,57.647061%);stroke-opacity:1;stroke-miterlimit:4;" d="M 608.326823 542.421875 L 664.915365 542.421875 L 664.915365 575.546875 L 593.834635 609.016927 L 471.341146 609.016927 L 395.084635 544.147135 L 469.270833 544.147135 L 503.776042 504.466146 L 540.00651 504.466146 " transform="matrix(0.0113208,0,0,0.0113208,0,0)"/>
<path style=" stroke:none;fill-rule:evenodd;fill:rgb(57.647061%,0%,57.647061%);fill-opacity:1;" d="M 5.839844 6.1875 L 6.558594 6.1875 L 6.558594 6.480469 L 6.449219 6.652344 L 5.839844 6.652344 Z M 5.839844 6.1875 "/>
<path style=" stroke:none;fill-rule:nonzero;fill:rgb(57.647061%,0%,57.647061%);fill-opacity:1;" d="M 5.898438 5.023438 C 5.800781 5.023438 5.722656 5.109375 5.722656 5.214844 C 5.71875 5.285156 5.722656 6.570312 5.722656 6.570312 C 5.722656 6.613281 5.761719 6.652344 5.804688 6.652344 L 5.992188 6.652344 C 6.035156 6.652344 6.078125 6.613281 6.078125 6.570312 C 6.078125 6.527344 6.035156 6.488281 5.992188 6.488281 L 5.886719 6.488281 C 5.886719 6.34375 5.886719 5.269531 5.886719 5.214844 C 5.886719 5.191406 5.902344 5.1875 5.898438 5.1875 L 6.417969 5.1875 C 6.433594 5.1875 6.429688 5.191406 6.433594 5.191406 C 6.433594 5.195312 6.4375 5.203125 6.4375 5.214844 L 6.4375 5.527344 C 6.4375 5.574219 6.476562 5.613281 6.519531 5.613281 L 7.125 5.613281 C 7.148438 5.613281 7.171875 5.605469 7.1875 5.589844 C 7.203125 5.574219 7.210938 5.550781 7.210938 5.53125 C 7.210938 5.507812 7.203125 5.484375 7.1875 5.46875 C 7.171875 5.453125 7.148438 5.445312 7.125 5.445312 L 6.605469 5.445312 L 6.605469 5.214844 C 6.605469 5.171875 6.59375 5.128906 6.5625 5.089844 C 6.53125 5.050781 6.476562 5.023438 6.417969 5.023438 Z M 5.898438 5.023438 "/>
<path style=" stroke:none;fill-rule:evenodd;fill:rgb(57.647061%,0%,57.647061%);fill-opacity:1;" d="M 7.550781 5.53125 L 6.894531 5.910156 L 6.894531 5.148438 Z M 7.550781 5.53125 "/>
</g>
</svg>
