<?xml version="1.0" encoding="UTF-8"?>
<svg xmlns="http://www.w3.org/2000/svg" xmlns:xlink="http://www.w3.org/1999/xlink" width="24" height="24" viewBox="0 0 24 24">
<defs>
<filter id="filter-remove-color" x="0%" y="0%" width="100%" height="100%">
<feColorMatrix color-interpolation-filters="sRGB" values="0 0 0 0 1 0 0 0 0 1 0 0 0 0 1 0 0 0 1 0" />
</filter>
<mask id="mask-0">
<g filter="url(#filter-remove-color)">
<rect x="-2.4" y="-2.4" width="28.8" height="28.8" fill="rgb(0%, 0%, 0%)" fill-opacity="0.372"/>
</g>
</mask>
<clipPath id="clip-0">
<rect x="0" y="0" width="24" height="24"/>
</clipPath>
<g id="source-6" clip-path="url(#clip-0)">
<path fill-rule="nonzero" fill="rgb(89.411765%, 89.411765%, 89.411765%)" fill-opacity="1" d="M 11.949219 2.679688 C 11.964844 2.679688 11.84375 2.6875 11.84375 2.6875 C 11.84375 2.6875 11.835938 2.6875 11.839844 2.6875 L 11.839844 2.691406 C 11.90625 2.6875 11.230469 2.9375 11.304688 2.890625 C 11.378906 2.839844 10.867188 3.390625 10.914062 3.3125 C 10.910156 3.3125 10.910156 3.316406 10.910156 3.316406 L 7.550781 9.363281 C 7.550781 9.367188 7.546875 9.367188 7.546875 9.367188 C 7.570312 9.324219 7.417969 9.71875 7.429688 9.667969 C 7.441406 9.625 7.402344 9.976562 7.398438 9.976562 L 7.394531 9.976562 L 7.394531 13.355469 L 4.1875 15.644531 L 4.195312 15.65625 C 4.132812 15.730469 3.835938 16.003906 3.875 15.949219 C 3.921875 15.882812 3.652344 16.496094 3.667969 16.417969 C 3.683594 16.339844 3.683594 17.007812 3.664062 16.929688 C 3.648438 16.851562 3.917969 17.464844 3.871094 17.398438 C 3.824219 17.335938 4.316406 17.789062 4.246094 17.746094 C 4.179688 17.707031 4.808594 17.921875 4.730469 17.914062 C 4.683594 17.90625 4.875 17.890625 5.042969 17.878906 L 5.042969 20.050781 C 5.042969 19.980469 5.167969 20.597656 5.136719 20.527344 C 5.109375 20.457031 5.460938 20.984375 5.40625 20.929688 C 5.351562 20.878906 5.878906 21.230469 5.808594 21.203125 C 5.742188 21.175781 6.363281 21.300781 6.285156 21.296875 C 6.289062 21.296875 6.289062 21.296875 6.289062 21.296875 L 10.320312 21.296875 C 10.25 21.296875 10.867188 21.175781 10.796875 21.203125 C 10.726562 21.234375 11.253906 20.878906 11.203125 20.933594 C 11.148438 20.984375 11.503906 20.457031 11.472656 20.527344 C 11.445312 20.597656 11.566406 19.980469 11.566406 20.050781 L 11.566406 17.699219 C 11.566406 17.394531 11.695312 17.269531 12 17.269531 C 12.304688 17.269531 12.433594 17.394531 12.433594 17.699219 L 12.433594 20.050781 C 12.433594 19.980469 12.554688 20.597656 12.527344 20.527344 C 12.496094 20.457031 12.851562 20.984375 12.796875 20.933594 C 12.746094 20.878906 13.273438 21.234375 13.203125 21.203125 C 13.132812 21.175781 13.75 21.296875 13.679688 21.296875 L 17.710938 21.296875 C 17.710938 21.296875 17.710938 21.296875 17.714844 21.296875 C 17.636719 21.300781 18.257812 21.175781 18.191406 21.203125 C 18.121094 21.230469 18.648438 20.878906 18.59375 20.929688 C 18.539062 20.984375 18.890625 20.457031 18.863281 20.527344 C 18.832031 20.597656 18.957031 19.980469 18.957031 20.050781 L 18.957031 17.878906 C 19.125 17.890625 19.316406 17.90625 19.269531 17.914062 C 19.191406 17.921875 19.820312 17.707031 19.753906 17.746094 C 19.683594 17.789062 20.175781 17.335938 20.128906 17.398438 C 20.082031 17.464844 20.351562 16.851562 20.335938 16.929688 C 20.316406 17.007812 20.316406 16.339844 20.332031 16.417969 C 20.347656 16.496094 20.078125 15.882812 20.125 15.949219 C 20.164062 16.003906 19.867188 15.730469 19.804688 15.65625 L 19.8125 15.644531 L 16.605469 13.355469 L 16.605469 9.976562 L 16.601562 9.976562 C 16.597656 9.976562 16.558594 9.625 16.570312 9.667969 C 16.582031 9.71875 16.429688 9.324219 16.453125 9.367188 C 16.453125 9.367188 16.449219 9.367188 16.449219 9.363281 L 13.089844 3.316406 C 13.089844 3.316406 13.089844 3.316406 13.085938 3.3125 C 13.113281 3.359375 12.84375 3.003906 12.878906 3.042969 C 12.917969 3.078125 12.5625 2.808594 12.609375 2.835938 C 12.652344 2.863281 12.238281 2.699219 12.289062 2.710938 C 12.339844 2.722656 11.898438 2.679688 11.949219 2.679688 Z M 12 6.5 L 13.871094 9.875 C 13.398438 9.375 12.734375 9.0625 12 9.0625 C 11.265625 9.0625 10.601562 9.375 10.128906 9.875 Z M 12 11.558594 C 12.074219 11.558594 12.09375 11.578125 12.09375 11.652344 C 12.09375 11.730469 12.074219 11.75 12 11.75 C 11.925781 11.75 11.902344 11.730469 11.902344 11.652344 C 11.902344 11.578125 11.925781 11.558594 12 11.558594 Z M 9.886719 13.144531 C 10.359375 13.808594 11.132812 14.246094 12 14.246094 C 12.867188 14.246094 13.640625 13.808594 14.113281 13.144531 L 14.113281 14.003906 C 14.117188 13.980469 14.152344 14.332031 14.144531 14.289062 C 14.132812 14.242188 14.261719 14.601562 14.242188 14.5625 C 14.222656 14.523438 14.429688 14.84375 14.402344 14.808594 C 14.375 14.773438 14.652344 15.035156 14.617188 15.007812 C 14.621094 15.011719 14.625 15.015625 14.632812 15.019531 L 16.460938 16.320312 L 16.460938 18.804688 L 14.925781 18.804688 L 14.925781 17.699219 C 14.925781 16.09375 13.605469 14.773438 12 14.773438 C 10.394531 14.773438 9.074219 16.09375 9.074219 17.699219 L 9.074219 18.804688 L 7.539062 18.804688 L 7.539062 16.320312 L 9.367188 15.019531 C 9.375 15.015625 9.378906 15.011719 9.382812 15.007812 C 9.347656 15.035156 9.625 14.773438 9.597656 14.808594 C 9.570312 14.84375 9.777344 14.523438 9.757812 14.5625 C 9.738281 14.601562 9.867188 14.242188 9.855469 14.289062 C 9.847656 14.332031 9.882812 13.980469 9.886719 14.003906 Z M 9.886719 13.144531 "/>
</g>
</defs>
<g mask="url(#mask-0)">
<use xlink:href="#source-6"/>
</g>
<path fill="none" stroke-width="16.233999" stroke-linecap="butt" stroke-linejoin="round" stroke="rgb(0%, 0%, 0%)" stroke-opacity="1" stroke-miterlimit="10" d="M 290 314.355469 C 307.936198 314.355469 322.473958 299.817708 322.473958 281.88151 C 322.473958 263.945312 307.936198 249.407552 290 249.407552 C 272.063802 249.407552 257.526042 263.945312 257.526042 281.88151 C 257.526042 299.817708 272.063802 314.355469 290 314.355469 Z M 290 314.355469 " transform="matrix(0.0413793, 0, 0, 0.0413793, 0, 0)"/>
<path fill="none" stroke-width="16.233999" stroke-linecap="butt" stroke-linejoin="round" stroke="rgb(0%, 0%, 0%)" stroke-opacity="1" stroke-miterlimit="10" d="M 151.985677 379.303385 L 151.985677 484.84375 L 249.407552 484.84375 C 249.407552 462.093099 249.407552 434.527995 249.407552 428.014323 C 249.407552 405.263672 267.249349 387.421875 290 387.421875 C 312.750651 387.421875 330.592448 405.263672 330.592448 428.014323 C 330.592448 434.527995 330.592448 462.093099 330.592448 484.84375 L 428.014323 484.84375 L 428.014323 379.303385 " transform="matrix(0.0413793, 0, 0, 0.0413793, 0, 0)"/>
<path fill="none" stroke-width="16.233999" stroke-linecap="round" stroke-linejoin="round" stroke="rgb(0%, 0%, 0%)" stroke-opacity="1" stroke-miterlimit="10" d="M 118.75651 402.809245 L 208.815104 338.710938 L 208.815104 241.289062 L 290 95.15625 L 371.184896 241.289062 L 371.184896 338.710938 L 461.24349 402.809245 " transform="matrix(0.0413793, 0, 0, 0.0413793, 0, 0)"/>
</svg>
