<?xml version="1.0" encoding="UTF-8"?>
<svg xmlns="http://www.w3.org/2000/svg" xmlns:xlink="http://www.w3.org/1999/xlink" width="64" height="64" viewBox="0 0 64 64">
<defs>
<filter id="filter-remove-color" x="0%" y="0%" width="100%" height="100%">
<feColorMatrix color-interpolation-filters="sRGB" values="0 0 0 0 1 0 0 0 0 1 0 0 0 0 1 0 0 0 1 0" />
</filter>
<mask id="mask-0">
<g filter="url(#filter-remove-color)">
<rect x="-6.4" y="-6.4" width="76.8" height="76.8" fill="rgb(0%, 0%, 0%)" fill-opacity="0.372"/>
</g>
</mask>
<clipPath id="clip-0">
<rect x="0" y="0" width="64" height="64"/>
</clipPath>
<g id="source-6" clip-path="url(#clip-0)">
<path fill-rule="nonzero" fill="rgb(89.411765%, 89.411765%, 89.411765%)" fill-opacity="1" d="M 30.910156 15.824219 C 31.054688 15.824219 29.996094 16.011719 30.132812 15.960938 C 30.269531 15.910156 29.339844 16.453125 29.449219 16.359375 L 26.679688 18.714844 C 26.679688 18.71875 26.675781 18.71875 26.675781 18.722656 C 26.691406 18.707031 26.597656 18.792969 26.589844 18.796875 C 26.589844 18.796875 26.582031 18.804688 26.582031 18.804688 C 26.503906 18.875 26.199219 19.117188 25.875 19.53125 C 25.476562 20.03125 25.164062 20.71875 25.164062 21.566406 L 25.164062 24.09375 C 25.164062 24.800781 25.371094 25.523438 25.820312 26.125 C 25.867188 26.1875 25.925781 26.246094 25.976562 26.308594 L 25.554688 28.753906 L 25.640625 28.769531 C 25.628906 28.859375 25.617188 28.921875 25.601562 29.011719 L 25.515625 28.996094 L 24.738281 33.496094 L 24.742188 33.496094 C 24.738281 33.53125 24.738281 33.523438 24.734375 33.558594 L 24.726562 33.558594 L 23.277344 41.972656 L 22.550781 41.972656 C 22.089844 41.972656 21.648438 42.15625 21.320312 42.484375 C 20.996094 42.808594 20.8125 43.25 20.8125 43.710938 L 20.8125 45.105469 C 20.8125 45.566406 20.996094 46.007812 21.320312 46.332031 C 21.648438 46.660156 22.089844 46.839844 22.550781 46.839844 L 26.867188 46.839844 C 27.683594 48.152344 29.136719 49.023438 30.78125 49.023438 C 32.425781 49.023438 33.878906 48.152344 34.699219 46.839844 L 39.011719 46.839844 C 39.472656 46.839844 39.917969 46.660156 40.242188 46.332031 C 40.566406 46.007812 40.75 45.566406 40.75 45.105469 L 40.75 43.710938 C 40.75 43.25 40.566406 42.808594 40.242188 42.484375 C 39.917969 42.15625 39.472656 41.972656 39.011719 41.972656 L 38.53125 41.972656 L 38.179688 39.945312 L 38.148438 39.953125 C 38.128906 39.863281 38.132812 39.882812 38.117188 39.789062 L 38.152344 39.785156 L 37.542969 36.234375 L 37.523438 36.238281 C 37.511719 36.164062 37.511719 36.175781 37.5 36.097656 L 37.515625 36.09375 L 36.90625 32.554688 L 36.871094 32.558594 C 36.855469 32.46875 36.859375 32.484375 36.84375 32.398438 L 36.878906 32.394531 L 36.273438 28.871094 L 36.222656 28.878906 C 36.207031 28.773438 36.207031 28.792969 36.191406 28.6875 L 36.238281 28.679688 L 35.832031 26.308594 C 35.882812 26.246094 35.941406 26.1875 35.992188 26.125 C 36.4375 25.523438 36.644531 24.800781 36.644531 24.09375 L 36.644531 21.566406 C 36.644531 20.769531 36.375 20.09375 35.964844 19.558594 C 35.640625 19.140625 35.335938 18.902344 35.207031 18.785156 C 35.199219 18.78125 35.195312 18.777344 35.191406 18.773438 C 35.191406 18.773438 35.1875 18.769531 35.1875 18.769531 C 35.167969 18.75 35.148438 18.734375 35.125 18.714844 L 32.359375 16.359375 C 32.359375 16.359375 32.355469 16.359375 32.355469 16.359375 C 32.464844 16.453125 31.546875 15.914062 31.683594 15.964844 C 31.816406 16.015625 30.769531 15.824219 30.914062 15.824219 C 30.914062 15.824219 30.910156 15.824219 30.910156 15.824219 Z M 25.691406 28.332031 C 25.691406 28.335938 25.695312 28.34375 25.695312 28.355469 L 25.679688 28.347656 C 25.683594 28.335938 25.6875 28.332031 25.691406 28.332031 Z M 25.511719 29.417969 C 25.503906 29.441406 25.5 29.445312 25.496094 29.417969 Z M 30.78125 44.300781 C 30.878906 44.300781 30.886719 44.3125 30.886719 44.40625 C 30.886719 44.503906 30.878906 44.511719 30.78125 44.511719 C 30.683594 44.511719 30.675781 44.503906 30.675781 44.40625 C 30.675781 44.308594 30.683594 44.300781 30.78125 44.300781 Z M 30.78125 44.300781 "/>
</g>
</defs>
<g mask="url(#mask-0)">
<use xlink:href="#source-6"/>
</g>
<path fill="none" stroke-width="17.158001" stroke-linecap="butt" stroke-linejoin="miter" stroke="rgb(0%, 0%, 0%)" stroke-opacity="1" stroke-miterlimit="4" d="M 548.762207 735.413818 C 548.762207 740.5896 547.727051 745.635986 545.786133 750.423584 C 543.780518 755.146484 540.933838 759.481201 537.310791 763.104248 C 533.687744 766.727295 529.353027 769.573975 524.630127 771.57959 C 519.842529 773.520508 514.796143 774.555664 509.620361 774.555664 C 504.509277 774.555664 499.462891 773.520508 494.675293 771.57959 C 489.952393 769.573975 485.617676 766.727295 481.994629 763.104248 C 478.371582 759.481201 475.524902 755.146484 473.519287 750.423584 C 471.578369 745.635986 470.543213 740.5896 470.543213 735.413818 C 470.543213 730.302734 471.578369 725.19165 473.519287 720.46875 C 475.524902 715.74585 478.371582 711.411133 481.994629 707.788086 C 485.617676 704.165039 489.952393 701.253662 494.675293 699.312744 C 499.462891 697.371826 504.509277 696.33667 509.620361 696.33667 C 514.796143 696.33667 519.842529 697.371826 524.630127 699.312744 C 529.353027 701.253662 533.687744 704.165039 537.310791 707.788086 C 540.933838 711.411133 543.780518 715.74585 545.786133 720.46875 C 547.727051 725.19165 548.762207 730.302734 548.762207 735.413818 Z M 548.762207 735.413818 " transform="matrix(0.0603774, 0, 0, 0.0603774, 0, 0)"/>
<path fill-rule="nonzero" fill="rgb(0%, 0%, 0%)" fill-opacity="1" d="M 22.539062 43.707031 L 22.539062 45.097656 L 28.308594 45.097656 L 28.308594 43.707031 Z M 33.234375 43.707031 L 33.234375 45.097656 L 39 45.097656 L 39 43.707031 Z M 33.234375 43.707031 "/>
<path fill="none" stroke-width="16.8004" stroke-linecap="round" stroke-linejoin="round" stroke="rgb(0%, 0%, 0%)" stroke-opacity="1" stroke-miterlimit="10" d="M 569.530029 377.185059 C 569.530029 366.251221 569.530029 359.975586 569.530029 357.128906 C 569.530029 348.135986 564.160156 344.318848 557.496338 338.237305 L 511.625977 299.224854 L 465.820312 338.237305 C 459.932861 343.80127 453.721924 348.135986 453.721924 357.128906 C 453.721924 359.975586 453.721924 366.251221 453.721924 377.185059 Z M 569.530029 377.185059 " transform="matrix(0.0603774, 0, 0, 0.0603774, 0, 0)"/>
<path fill="none" stroke-width="16.8004" stroke-linecap="round" stroke-linejoin="round" stroke="rgb(0%, 0%, 0%)" stroke-opacity="1" stroke-miterlimit="10" d="M 453.721924 376.2146 C 453.721924 387.213135 453.721924 396.07666 453.721924 398.988037 C 453.721924 407.91626 459.156494 415.227051 465.820312 415.227051 L 557.496338 415.227051 C 564.160156 415.227051 569.530029 407.91626 569.530029 398.988037 C 569.530029 396.07666 569.530029 387.213135 569.530029 376.2146 Z M 453.721924 376.2146 " transform="matrix(0.0603774, 0, 0, 0.0603774, 0, 0)"/>
<path fill-rule="nonzero" fill="rgb(0%, 0%, 0%)" fill-opacity="1" d="M 28.4375 24.554688 C 28.320312 24.558594 28.207031 24.605469 28.121094 24.683594 C 28.035156 24.761719 27.976562 24.867188 27.957031 24.984375 L 24.710938 43.820312 C 24.699219 43.890625 24.703125 43.964844 24.722656 44.039062 C 24.742188 44.109375 24.773438 44.175781 24.824219 44.234375 C 24.871094 44.289062 24.929688 44.335938 24.996094 44.367188 C 25.0625 44.398438 25.136719 44.414062 25.210938 44.414062 L 28.648438 44.414062 C 28.648438 44.410156 28.648438 44.40625 28.648438 44.402344 C 28.648438 44.039062 28.738281 43.699219 28.898438 43.398438 L 25.8125 43.398438 L 28.957031 25.15625 C 28.972656 25.078125 28.96875 25.003906 28.949219 24.929688 C 28.929688 24.855469 28.894531 24.785156 28.84375 24.726562 C 28.792969 24.671875 28.730469 24.625 28.660156 24.59375 C 28.589844 24.566406 28.511719 24.550781 28.4375 24.554688 Z M 33.328125 24.5625 C 33.253906 24.5625 33.179688 24.578125 33.113281 24.609375 C 33.046875 24.640625 32.988281 24.6875 32.9375 24.742188 C 32.890625 24.796875 32.855469 24.863281 32.835938 24.9375 C 32.816406 25.007812 32.8125 25.082031 32.828125 25.15625 L 35.972656 43.398438 L 32.644531 43.398438 C 32.804688 43.699219 32.894531 44.039062 32.894531 44.402344 C 32.894531 44.40625 32.894531 44.410156 32.894531 44.414062 L 36.574219 44.414062 C 36.648438 44.414062 36.722656 44.398438 36.789062 44.367188 C 36.855469 44.335938 36.914062 44.289062 36.960938 44.234375 C 37.007812 44.175781 37.042969 44.109375 37.0625 44.039062 C 37.082031 43.964844 37.085938 43.890625 37.074219 43.820312 L 33.828125 24.984375 C 33.804688 24.863281 33.746094 24.757812 33.652344 24.679688 C 33.5625 24.605469 33.445312 24.5625 33.328125 24.5625 Z M 33.328125 24.5625 "/>
<path fill="none" stroke-width="16.8004" stroke-linecap="round" stroke-linejoin="round" stroke="rgb(0%, 0%, 0%)" stroke-opacity="1" stroke-miterlimit="10" d="M 419.561768 715.551758 L 584.733887 605.307617 " transform="matrix(0.0603774, 0, 0, 0.0603774, 0, 0)"/>
<path fill-rule="nonzero" fill="rgb(0%, 0%, 0%)" fill-opacity="1" d="M 35.933594 39.730469 C 35.835938 39.734375 35.742188 39.765625 35.660156 39.820312 L 31.675781 42.480469 C 32 42.632812 32.28125 42.867188 32.492188 43.15625 L 36.222656 40.667969 C 36.316406 40.605469 36.386719 40.515625 36.425781 40.414062 C 36.464844 40.308594 36.464844 40.195312 36.433594 40.089844 C 36.398438 39.980469 36.332031 39.890625 36.242188 39.824219 C 36.152344 39.761719 36.042969 39.726562 35.933594 39.730469 Z M 35.933594 39.730469 "/>
<path fill="none" stroke-width="16.8004" stroke-linecap="round" stroke-linejoin="round" stroke="rgb(0%, 0%, 0%)" stroke-opacity="1" stroke-miterlimit="10" d="M 432.824707 638.432617 L 574.188232 544.104004 " transform="matrix(0.0603774, 0, 0, 0.0603774, 0, 0)"/>
<path fill="none" stroke-width="16.8004" stroke-linecap="round" stroke-linejoin="round" stroke="rgb(0%, 0%, 0%)" stroke-opacity="1" stroke-miterlimit="10" d="M 446.152344 561.313477 L 563.642578 482.900391 " transform="matrix(0.0603774, 0, 0, 0.0603774, 0, 0)"/>
<path fill="none" stroke-width="16.8004" stroke-linecap="round" stroke-linejoin="round" stroke="rgb(0%, 0%, 0%)" stroke-opacity="1" stroke-miterlimit="10" d="M 459.415283 484.194336 L 553.096924 421.696777 " transform="matrix(0.0603774, 0, 0, 0.0603774, 0, 0)"/>
</svg>
