<?xml version="1.0" encoding="UTF-8"?>
<svg xmlns="http://www.w3.org/2000/svg" xmlns:xlink="http://www.w3.org/1999/xlink" width="24" height="24" viewBox="0 0 24 24">
<path fill-rule="nonzero" fill="rgb(57.647059%, 0%, 57.647059%)" fill-opacity="1" d="M 14.488281 6.445312 C 14.472656 6.445312 14.453125 6.449219 14.433594 6.449219 L 3.980469 6.449219 L 3.980469 11.414062 L 17.179688 11.414062 L 14.988281 6.804688 C 14.886719 6.589844 14.742188 6.449219 14.488281 6.445312 Z M 4.46875 7.957031 L 6.773438 7.957031 L 6.773438 10.582031 L 4.46875 10.582031 Z M 7.382812 7.957031 L 9.6875 7.957031 L 9.6875 10.582031 L 7.382812 10.582031 Z M 11.003906 7.957031 L 14.097656 7.957031 L 15.277344 10.582031 L 12.183594 10.582031 Z M 11.003906 7.957031 "/>
<path fill-rule="nonzero" fill="rgb(57.647059%, 0%, 57.647059%)" fill-opacity="1" d="M 4.054688 12.402344 L 4.054688 17.960938 L 16.035156 17.960938 C 16.632812 17.945312 18.351562 17.449219 19.144531 16.265625 L 21.570312 12.402344 Z M 15.808594 12.777344 C 16.890625 12.777344 17.78125 13.664062 17.78125 14.75 C 17.78125 15.832031 16.890625 16.71875 15.808594 16.71875 C 14.726562 16.71875 13.835938 15.832031 13.835938 14.75 C 13.835938 13.664062 14.726562 12.777344 15.808594 12.777344 Z M 15.808594 13.902344 C 15.332031 13.902344 14.960938 14.273438 14.960938 14.75 C 14.960938 15.222656 15.332031 15.59375 15.808594 15.59375 C 16.28125 15.59375 16.65625 15.222656 16.65625 14.75 C 16.65625 14.273438 16.28125 13.902344 15.808594 13.902344 Z M 15.808594 13.902344 "/>
<path fill-rule="nonzero" fill="rgb(57.647059%, 0%, 57.647059%)" fill-opacity="1" d="M 4.609375 10.644531 C 4.609375 10.644531 4.609375 10.507812 4.609375 10.492188 C 4.609375 10.296875 4.929688 10.113281 5.28125 10.050781 C 5.28125 10.050781 5.386719 10 5.359375 9.898438 C 5.25 9.773438 5.226562 9.640625 5.226562 9.640625 C 5.207031 9.632812 5.179688 9.617188 5.160156 9.597656 C 5.121094 9.546875 5.085938 9.441406 5.09375 9.367188 C 5.101562 9.289062 5.125 9.3125 5.128906 9.300781 C 5.058594 9.132812 5.089844 8.925781 5.179688 8.777344 C 5.359375 8.472656 5.753906 8.554688 5.804688 8.695312 C 6.175781 8.632812 6.164062 9.152344 6.113281 9.296875 C 6.113281 9.296875 6.148438 9.300781 6.140625 9.433594 C 6.132812 9.566406 6.015625 9.65625 6.015625 9.65625 C 6.011719 9.691406 5.964844 9.800781 5.886719 9.898438 C 5.820312 10.023438 5.953125 10.050781 5.953125 10.050781 C 6.304688 10.113281 6.621094 10.296875 6.621094 10.492188 C 6.621094 10.507812 6.621094 10.644531 6.621094 10.644531 C 6.621094 10.777344 6.09375 10.90625 5.617188 10.90625 C 5.140625 10.90625 4.609375 10.859375 4.609375 10.644531 Z M 4.609375 10.644531 "/>
<path fill-rule="nonzero" fill="rgb(57.647059%, 0%, 57.647059%)" fill-opacity="1" d="M 7.511719 10.644531 C 7.511719 10.644531 7.511719 10.507812 7.511719 10.492188 C 7.511719 10.296875 7.835938 10.113281 8.183594 10.050781 C 8.183594 10.050781 8.289062 10 8.265625 9.898438 C 8.152344 9.773438 8.128906 9.640625 8.128906 9.640625 C 8.109375 9.632812 8.082031 9.617188 8.066406 9.597656 C 8.027344 9.546875 7.992188 9.441406 8 9.367188 C 8.007812 9.289062 8.03125 9.3125 8.03125 9.300781 C 7.960938 9.132812 7.996094 8.925781 8.085938 8.777344 C 8.265625 8.472656 8.660156 8.554688 8.710938 8.695312 C 9.082031 8.632812 9.070312 9.152344 9.019531 9.296875 C 9.019531 9.296875 9.050781 9.300781 9.042969 9.433594 C 9.039062 9.566406 8.917969 9.65625 8.917969 9.65625 C 8.914062 9.691406 8.867188 9.800781 8.789062 9.898438 C 8.726562 10.023438 8.859375 10.050781 8.859375 10.050781 C 9.207031 10.113281 9.527344 10.296875 9.527344 10.492188 C 9.527344 10.507812 9.527344 10.644531 9.527344 10.644531 C 9.527344 10.777344 9 10.90625 8.519531 10.90625 C 8.042969 10.90625 7.511719 10.859375 7.511719 10.644531 Z M 7.511719 10.644531 "/>
</svg>
