<?xml version="1.0" encoding="UTF-8"?>
<svg xmlns="http://www.w3.org/2000/svg" xmlns:xlink="http://www.w3.org/1999/xlink" width="32" height="32" viewBox="0 0 32 32">
<path fill-rule="evenodd" fill="rgb(0%, 0%, 0%)" fill-opacity="1" d="M 15.875 5.78125 C 15.496094 5.800781 15.128906 5.917969 14.804688 6.113281 C 14.480469 6.3125 14.210938 6.589844 14.023438 6.917969 L 5.339844 21.953125 C 5.140625 22.300781 5.035156 22.691406 5.035156 23.09375 C 5.035156 23.492188 5.140625 23.882812 5.339844 24.230469 C 5.539062 24.578125 5.828125 24.863281 6.171875 25.0625 C 6.519531 25.265625 6.910156 25.371094 7.3125 25.371094 L 24.683594 25.382812 C 25.085938 25.382812 25.476562 25.277344 25.824219 25.078125 C 26.171875 24.878906 26.457031 24.589844 26.660156 24.246094 C 26.859375 23.898438 26.964844 23.507812 26.964844 23.105469 C 26.964844 22.707031 26.859375 22.3125 26.660156 21.964844 L 17.96875 6.917969 C 17.757812 6.554688 17.453125 6.253906 17.082031 6.054688 C 16.710938 5.855469 16.292969 5.757812 15.875 5.78125 Z M 15.875 5.78125 "/>
<path fill-rule="nonzero" fill="rgb(99.607843%, 99.607843%, 99.607843%)" fill-opacity="1" d="M 7.304688 23.207031 C 7.132812 22.917969 7.332031 22.363281 7.332031 22.363281 L 15.421875 8.34375 C 15.421875 8.34375 15.773438 7.65625 16.105469 7.660156 C 16.4375 7.660156 16.816406 8.394531 16.816406 8.394531 L 24.8125 22.246094 C 24.8125 22.246094 25.113281 22.871094 24.941406 23.179688 C 24.773438 23.484375 24.28125 23.503906 24.28125 23.503906 L 8.089844 23.488281 C 8.089844 23.488281 7.472656 23.492188 7.304688 23.207031 Z M 7.304688 23.207031 "/>
<path fill-rule="nonzero" fill="rgb(0%, 0%, 0%)" fill-opacity="1" d="M 17.320312 13.21875 C 17.320312 13.269531 17.300781 13.507812 17.261719 13.933594 L 16.742188 19.382812 L 15.257812 19.382812 L 14.738281 13.921875 C 14.738281 13.855469 14.726562 13.746094 14.699219 13.59375 C 14.6875 13.429688 14.679688 13.304688 14.679688 13.21875 C 14.679688 12.886719 14.789062 12.585938 15.003906 12.320312 C 15.21875 12.042969 15.554688 11.90625 16.011719 11.90625 C 16.882812 11.90625 17.320312 12.34375 17.320312 13.21875 Z M 16.707031 20.429688 C 16.90625 20.628906 17.007812 20.867188 17.007812 21.144531 C 17.007812 21.421875 16.90625 21.652344 16.707031 21.84375 C 16.507812 22.027344 16.269531 22.117188 15.992188 22.117188 C 15.746094 22.117188 15.515625 22.019531 15.304688 21.832031 C 15.105469 21.628906 15.007812 21.402344 15.007812 21.144531 C 15.007812 20.867188 15.101562 20.628906 15.292969 20.429688 C 15.484375 20.21875 15.722656 20.113281 16.007812 20.113281 C 16.285156 20.113281 16.515625 20.21875 16.707031 20.429688 "/>
</svg>
