<svg width="32" height="32" fill="none" version="1.1" viewBox="0 0 580 580" xmlns="http://www.w3.org/2000/svg">
 <g clip-path="url(#clip0)">
  <path d="m393.75-1.5931c-3.469-0.02905-6.875 0.93608-9.813 2.7812l-92.25 58.031c-4.076 2.5625-6.967 6.6384-8.04 11.332-1.072 4.6936-0.237 9.6209 2.322 13.699l48.531 77.156-82.438 354.47c-0.545 2.329-0.624 4.743-0.234 7.103s1.243 4.619 2.509 6.649 2.92 3.789 4.868 5.178c1.948 1.388 4.151 2.379 6.482 2.913l23.625 5.407c2.358 0.539 4.799 0.603 7.181 0.187s4.657-1.303 6.691-2.61c2.035-1.307 3.788-3.007 5.157-5.001 1.369-1.993 2.326-4.24 2.815-6.608l74.344-357.22 75.781-47.657c4.076-2.562 6.968-6.638 8.04-11.332 1.073-4.693 0.238-9.621-2.321-13.699l-58.031-92.281c-1.621-2.5792-3.864-4.7095-6.523-6.1949-2.66-1.4853-5.65-2.278-8.696-2.3051z" fill="#8D8D8D" opacity=".42609"/>
  <path d="m364.82 110.85-95.106 408.92 23.622 5.424 85.578-411.09-14.094-3.252z" fill="black"/>
 </g>
 <defs>
  <clipPath id="clip0">
   <path d="M0 0H580V580H0V0Z" fill="white"/>
  </clipPath>
 </defs>
 <path d="m391.39 14.329 61.283 96.848-92.895 58.871-61.283-96.847z" fill="#ffd400" stop-color="#000000" style="-inkscape-stroke:none;font-variation-settings:normal"/>
</svg>
