<?xml version="1.0" encoding="UTF-8"?>
<svg xmlns="http://www.w3.org/2000/svg" xmlns:xlink="http://www.w3.org/1999/xlink" width="12" height="12" viewBox="0 0 12 12" version="1.1">
<g id="surface1">
<path style="fill-rule:nonzero;fill:rgb(69.01961%,15.686275%,9.411765%);fill-opacity:1;stroke-width:1;stroke-linecap:butt;stroke-linejoin:miter;stroke:rgb(46.666667%,46.666667%,46.666667%);stroke-opacity:1;stroke-miterlimit:4;" d="M 9.5 6 C 9.5 6.167969 9.488281 6.335938 9.464844 6.5 L 9.5 6.5 Z M 9.5 6 L 9.5 5.5 L 9.464844 5.5 C 9.488281 5.664062 9.5 5.832031 9.5 6 Z M 6 9.5 C 6.953125 9.5 7.820312 9.117188 8.449219 8.5 L 11.5 8.5 L 11.5 3.5 L 8.449219 3.5 C 7.820312 2.882812 6.953125 2.5 6 2.5 C 5.046875 2.5 4.179688 2.882812 3.550781 3.5 L 0.5 3.5 L 0.5 5.5 L 2.535156 5.5 C 2.511719 5.664062 2.5 5.832031 2.5 6 C 2.5 6.167969 2.511719 6.335938 2.535156 6.5 L 0.5 6.5 L 0.5 8.5 L 3.550781 8.5 C 4.179688 9.117188 5.046875 9.5 6 9.5 Z M 7.9375 6.5 L 4.0625 6.5 C 4.023438 6.339844 4 6.171875 4 6 C 4 5.828125 4.023438 5.660156 4.0625 5.5 L 7.9375 5.5 C 7.976562 5.660156 8 5.828125 8 6 C 8 6.171875 7.976562 6.339844 7.9375 6.5 Z M 7.9375 6.5 "/>
</g>
</svg>
