<?xml version="1.0" encoding="UTF-8"?>
<svg xmlns="http://www.w3.org/2000/svg" xmlns:xlink="http://www.w3.org/1999/xlink" width="12" height="12" viewBox="0 0 12 12" version="1.1">
<g id="surface1">
<path style=" stroke:none;fill-rule:nonzero;fill:rgb(55.686277%,0%,47.058824%);fill-opacity:1;" d="M 5.65625 9.957031 C 5.65625 10.113281 5.59375 10.265625 5.484375 10.375 C 5.371094 10.484375 5.222656 10.546875 5.066406 10.546875 C 4.90625 10.546875 4.757812 10.484375 4.648438 10.375 C 4.535156 10.265625 4.472656 10.113281 4.472656 9.957031 C 4.472656 9.800781 4.535156 9.648438 4.648438 9.539062 C 4.757812 9.429688 4.90625 9.367188 5.066406 9.367188 C 5.222656 9.367188 5.371094 9.429688 5.484375 9.539062 C 5.59375 9.648438 5.65625 9.800781 5.65625 9.957031 Z M 5.65625 9.957031 "/>
<path style=" stroke:none;fill-rule:nonzero;fill:rgb(55.686277%,0%,47.058824%);fill-opacity:1;" d="M 7.933594 8.691406 C 7.933594 8.847656 7.871094 9 7.761719 9.109375 C 7.652344 9.21875 7.5 9.28125 7.34375 9.28125 C 7.1875 9.28125 7.035156 9.21875 6.925781 9.109375 C 6.816406 9 6.753906 8.847656 6.753906 8.691406 C 6.753906 8.535156 6.816406 8.382812 6.925781 8.273438 C 7.035156 8.164062 7.1875 8.101562 7.34375 8.101562 C 7.5 8.101562 7.652344 8.164062 7.761719 8.273438 C 7.871094 8.382812 7.933594 8.535156 7.933594 8.691406 Z M 7.933594 8.691406 "/>
<path style=" stroke:none;fill-rule:nonzero;fill:rgb(55.686277%,0%,47.058824%);fill-opacity:1;" d="M 9.539062 6.179688 C 9.539062 6.335938 9.476562 6.488281 9.367188 6.597656 C 9.253906 6.710938 9.105469 6.773438 8.949219 6.773438 C 8.789062 6.773438 8.640625 6.710938 8.53125 6.597656 C 8.417969 6.488281 8.355469 6.335938 8.355469 6.179688 C 8.355469 6.023438 8.417969 5.875 8.53125 5.761719 C 8.640625 5.652344 8.789062 5.589844 8.949219 5.589844 C 9.105469 5.589844 9.253906 5.652344 9.367188 5.761719 C 9.476562 5.875 9.539062 6.023438 9.539062 6.179688 Z M 9.539062 6.179688 "/>
<path style=" stroke:none;fill-rule:nonzero;fill:rgb(55.686277%,0%,47.058824%);fill-opacity:1;" d="M 10.335938 2.703125 C 10.335938 2.863281 10.273438 3.011719 10.164062 3.121094 C 10.050781 3.234375 9.902344 3.296875 9.746094 3.296875 C 9.585938 3.296875 9.4375 3.234375 9.328125 3.121094 C 9.214844 3.011719 9.152344 2.863281 9.152344 2.703125 C 9.152344 2.546875 9.214844 2.398438 9.328125 2.285156 C 9.4375 2.175781 9.585938 2.113281 9.746094 2.113281 C 9.902344 2.113281 10.050781 2.175781 10.164062 2.285156 C 10.273438 2.398438 10.335938 2.546875 10.335938 2.703125 Z M 10.335938 2.703125 "/>
<path style="fill:none;stroke-width:21.497;stroke-linecap:round;stroke-linejoin:round;stroke:rgb(55.686277%,0%,47.058824%);stroke-opacity:1;stroke-miterlimit:4;" d="M 243.554688 476.536458 C 243.554688 476.536458 252.80599 389.498698 206.171875 333.802083 C 159.726562 277.916667 132.161458 260.358073 122.721354 227.128906 C 118.75651 213.535156 114.036458 182.571615 133.294271 149.720052 C 160.859375 102.897135 246.575521 115.546875 278.105469 126.119792 C 309.635417 136.692708 394.029948 189.934896 455.957031 140.279948 " transform="matrix(0.0206897,0,0,0.0206897,0,0)"/>
<path style="fill:none;stroke-width:20.197001;stroke-linecap:round;stroke-linejoin:round;stroke:rgb(55.686277%,0%,47.058824%);stroke-opacity:1;stroke-miterlimit:4;" d="M 422.539062 299.251302 C 422.539062 299.251302 358.91276 274.895833 307.18099 225.996094 C 210.136719 134.427083 135.371094 153.307292 135.748698 151.041667 " transform="matrix(0.0206897,0,0,0.0206897,0,0)"/>
<path style="fill:none;stroke-width:20.097;stroke-linecap:round;stroke-linejoin:round;stroke:rgb(55.686277%,0%,47.058824%);stroke-opacity:1;stroke-miterlimit:4;" d="M 356.458333 437.454427 C 356.458333 437.454427 343.997396 370.61849 304.726562 333.990885 C 265.644531 297.552083 213.723958 261.302083 180.30599 231.660156 C 162.18099 215.800781 136.88151 191.25651 138.391927 149.720052 " transform="matrix(0.0206897,0,0,0.0206897,0,0)"/>
<path style="fill:none;stroke-width:20.197001;stroke-linecap:round;stroke-linejoin:round;stroke:rgb(55.686277%,0%,47.058824%);stroke-opacity:1;stroke-miterlimit:4;" d="M 241.666667 408.001302 C 249.21875 356.269531 276.217448 352.304688 320.585938 352.49349 C 320.963542 329.459635 330.403646 275.273438 362.688802 268.28776 C 347.018229 234.68099 352.304688 167.278646 394.973958 162.936198 " transform="matrix(0.0206897,0,0,0.0206897,0,0)"/>
<path style="fill:none;stroke-width:20.197001;stroke-linecap:round;stroke-linejoin:round;stroke:rgb(55.686277%,0%,47.058824%);stroke-opacity:1;stroke-miterlimit:4;" d="M 198.619792 324.550781 C 198.619792 324.550781 252.428385 298.873698 272.630208 306.048177 C 279.615885 295.286458 292.265625 245.065104 313.977865 232.226562 C 293.209635 185.026042 312.845052 143.489583 312.845052 143.489583 " transform="matrix(0.0206897,0,0,0.0206897,0,0)"/>
<path style="fill:none;stroke-width:20.197001;stroke-linecap:round;stroke-linejoin:round;stroke:rgb(55.686277%,0%,47.058824%);stroke-opacity:1;stroke-miterlimit:4;" d="M 165.768229 287.545573 C 176.907552 274.518229 209.38151 277.539062 231.848958 273.574219 C 228.072917 261.679688 247.141927 205.605469 272.063802 196.542969 C 264.700521 191.445312 271.497396 132.916667 271.497396 132.916667 " transform="matrix(0.0206897,0,0,0.0206897,0,0)"/>
<path style="fill:none;stroke-width:20.197001;stroke-linecap:round;stroke-linejoin:round;stroke:rgb(55.686277%,0%,47.058824%);stroke-opacity:1;stroke-miterlimit:4;" d="M 123.28776 211.269531 C 123.28776 211.269531 142.923177 210.325521 154.817708 204.472656 C 166.523438 198.619792 187.669271 163.880208 189.746094 156.139323 C 191.822917 148.398438 195.032552 120.644531 191.445312 120.833333 M 233.548177 126.497396 C 233.548177 126.497396 229.394531 152.740885 232.226562 172.1875 C 222.97526 183.138021 197.675781 215.989583 183.326823 234.492188 C 158.216146 238.645833 135.182292 248.652344 135.371094 248.652344 Z M 233.548177 126.497396 " transform="matrix(0.0206897,0,0,0.0206897,0,0)"/>
</g>
</svg>
