<svg width="38" height="18" viewBox="0 0 38 18" fill="none" xmlns="http://www.w3.org/2000/svg">
<path d="M32 9C32 9.78793 31.6637 10.5681 31.0104 11.2961C30.3571 12.0241 29.3995 12.6855 28.1924 13.2426C26.9852 13.7998 25.5521 14.2417 23.9749 14.5433C22.3977 14.8448 20.7072 15 19 15C17.2928 15 15.6023 14.8448 14.0251 14.5433C12.4479 14.2417 11.0148 13.7998 9.80761 13.2426C8.60045 12.6855 7.64288 12.0241 6.98957 11.2961C6.33625 10.5681 6 9.78793 6 9C6 8.21207 6.33625 7.43185 6.98957 6.7039C7.64288 5.97595 8.60045 5.31451 9.80761 4.75736C11.0148 4.20021 12.4479 3.75825 14.0251 3.45672C15.6023 3.15519 17.2928 3 19 3C20.7072 3 22.3977 3.15519 23.9749 3.45672C25.5521 3.75825 26.9852 4.20021 28.1924 4.75736C29.3995 5.31451 30.3571 5.97595 31.0104 6.7039C31.6637 7.43185 32 8.21207 32 9V9Z" fill="#ffce00"/>
</svg>
