<?xml version="1.0" encoding="UTF-8"?>
<svg xmlns="http://www.w3.org/2000/svg" xmlns:xlink="http://www.w3.org/1999/xlink" width="64" height="64" viewBox="0 0 64 64">
<defs>
<filter id="filter-remove-color" x="0%" y="0%" width="100%" height="100%">
<feColorMatrix color-interpolation-filters="sRGB" values="0 0 0 0 1 0 0 0 0 1 0 0 0 0 1 0 0 0 1 0" />
</filter>
<mask id="mask-0">
<g filter="url(#filter-remove-color)">
<rect x="-6.4" y="-6.4" width="76.8" height="76.8" fill="rgb(0%, 0%, 0%)" fill-opacity="0.873134"/>
</g>
</mask>
<clipPath id="clip-0">
<rect x="0" y="0" width="64" height="64"/>
</clipPath>
<g id="source-6" clip-path="url(#clip-0)">
<path fill-rule="nonzero" fill="rgb(67.45098%, 84.705882%, 95.294118%)" fill-opacity="1" d="M 14.773438 13.316406 C 13.070312 13.316406 11.382812 13.828125 10.15625 14.972656 C 10.113281 15.011719 10.082031 15.050781 10.042969 15.089844 C 9.394531 14.488281 8.59375 14.039062 7.75 13.792969 C 7.746094 13.792969 7.746094 13.792969 7.746094 13.792969 C 7.742188 13.792969 7.738281 13.789062 7.730469 13.785156 L 7.730469 13.789062 C 6.773438 13.507812 5.800781 13.453125 4.558594 13.453125 L 2.527344 13.453125 C 1.914062 13.453125 1.328125 13.695312 0.898438 14.128906 C 0.464844 14.558594 0.222656 15.144531 0.222656 15.757812 L 0.222656 23.238281 C 0.222656 23.851562 0.464844 24.4375 0.898438 24.867188 C 1.328125 25.300781 1.914062 25.542969 2.527344 25.542969 L 4.558594 25.542969 C 5.792969 25.542969 6.769531 25.484375 7.722656 25.214844 C 7.722656 25.210938 7.726562 25.210938 7.730469 25.210938 C 8.578125 24.964844 9.375 24.515625 10.03125 23.914062 C 10.058594 23.945312 10.082031 23.976562 10.113281 24.003906 C 10.113281 24.007812 10.117188 24.007812 10.117188 24.007812 C 11.320312 25.15625 12.992188 25.6875 14.667969 25.6875 C 15.382812 25.6875 16.09375 25.613281 16.78125 25.457031 C 17.21875 25.359375 17.644531 25.226562 18.058594 25.0625 C 18.464844 25.375 18.957031 25.542969 19.464844 25.542969 L 21.394531 25.542969 C 22.003906 25.542969 22.589844 25.300781 23.023438 24.867188 C 23.457031 24.4375 23.699219 23.851562 23.699219 23.238281 L 23.699219 22.878906 C 23.984375 22.839844 24.261719 22.785156 24.539062 22.707031 L 24.539062 22.847656 C 24.539062 23.320312 24.683594 23.777344 24.953125 24.164062 C 25.222656 24.550781 25.601562 24.847656 26.042969 25.007812 C 26.636719 25.230469 27.238281 25.398438 27.847656 25.511719 C 28.460938 25.628906 29.082031 25.6875 29.703125 25.6875 C 31.015625 25.6875 32.320312 25.460938 33.410156 24.5625 C 34.496094 23.667969 34.984375 22.21875 34.984375 20.941406 C 34.984375 20.136719 34.777344 19.246094 34.300781 18.5 C 34.425781 18.207031 34.492188 17.894531 34.496094 17.574219 L 34.496094 15.992188 C 34.496094 15.484375 34.328125 14.992188 34.015625 14.589844 C 33.707031 14.1875 33.273438 13.898438 32.78125 13.765625 C 32.242188 13.621094 31.707031 13.511719 31.175781 13.4375 C 31.167969 13.433594 31.164062 13.433594 31.160156 13.433594 C 30.628906 13.359375 30.101562 13.316406 29.574219 13.316406 C 28.34375 13.316406 27.082031 13.59375 26.0625 14.421875 C 25.058594 13.703125 23.855469 13.453125 22.667969 13.453125 L 19.464844 13.453125 C 18.957031 13.453125 18.464844 13.621094 18.0625 13.929688 C 17.609375 13.75 17.144531 13.601562 16.664062 13.503906 C 16.050781 13.378906 15.417969 13.316406 14.773438 13.316406 Z M 21.394531 17.929688 L 21.394531 18.46875 C 21.355469 18.351562 21.332031 18.246094 21.332031 18.199219 C 21.332031 18.152344 21.355469 18.046875 21.394531 17.929688 Z M 21.394531 17.929688 "/>
</g>
</defs>
<g mask="url(#mask-0)">
<use xlink:href="#source-6"/>
</g>
<path fill-rule="nonzero" fill="rgb(0%, 0%, 0%)" fill-opacity="1" d="M 14.773438 15.621094 C 13.484375 15.621094 12.46875 15.96875 11.726562 16.660156 C 10.984375 17.351562 10.613281 18.300781 10.613281 19.503906 C 10.613281 20.699219 10.980469 21.644531 11.707031 22.339844 C 12.4375 23.035156 13.421875 23.386719 14.667969 23.386719 C 15.222656 23.386719 15.753906 23.328125 16.273438 23.210938 C 16.792969 23.09375 17.289062 22.917969 17.773438 22.683594 L 17.773438 19.085938 L 14.765625 19.085938 L 14.765625 20.378906 L 15.941406 20.378906 L 15.941406 21.832031 C 15.804688 21.882812 15.648438 21.925781 15.476562 21.949219 C 15.304688 21.972656 15.121094 21.988281 14.917969 21.988281 C 14.179688 21.988281 13.613281 21.769531 13.210938 21.339844 C 12.808594 20.910156 12.609375 20.296875 12.609375 19.503906 C 12.609375 18.707031 12.816406 18.09375 13.230469 17.667969 C 13.648438 17.234375 14.242188 17.019531 15.007812 17.019531 C 15.421875 17.019531 15.835938 17.078125 16.246094 17.195312 C 16.660156 17.3125 17.078125 17.488281 17.496094 17.726562 L 17.496094 16.175781 C 17.09375 15.992188 16.660156 15.855469 16.203125 15.761719 C 15.746094 15.667969 15.269531 15.621094 14.773438 15.621094 Z M 29.574219 15.621094 C 28.671875 15.621094 27.980469 15.820312 27.5 16.222656 C 27.019531 16.625 26.777344 17.195312 26.777344 17.941406 C 26.777344 18.535156 26.949219 19.007812 27.292969 19.359375 C 27.640625 19.710938 28.1875 19.964844 28.9375 20.125 L 29.683594 20.292969 C 30.140625 20.394531 30.441406 20.507812 30.59375 20.632812 C 30.746094 20.761719 30.824219 20.941406 30.824219 21.171875 C 30.824219 21.433594 30.710938 21.636719 30.488281 21.777344 C 30.261719 21.914062 29.941406 21.988281 29.519531 21.988281 C 29.105469 21.988281 28.675781 21.921875 28.226562 21.796875 C 27.78125 21.664062 27.320312 21.472656 26.84375 21.21875 L 26.84375 22.847656 C 27.320312 23.027344 27.796875 23.160156 28.277344 23.25 C 28.753906 23.339844 29.230469 23.386719 29.703125 23.386719 C 30.710938 23.386719 31.457031 23.183594 31.945312 22.78125 C 32.4375 22.378906 32.679688 21.765625 32.679688 20.941406 C 32.679688 20.3125 32.503906 19.824219 32.15625 19.484375 C 31.804688 19.144531 31.214844 18.890625 30.382812 18.722656 L 29.558594 18.558594 C 29.167969 18.476562 28.898438 18.382812 28.746094 18.273438 C 28.601562 18.160156 28.527344 18.003906 28.527344 17.800781 C 28.527344 17.535156 28.636719 17.335938 28.855469 17.210938 C 29.078125 17.082031 29.417969 17.019531 29.878906 17.019531 C 30.226562 17.019531 30.597656 17.066406 30.988281 17.160156 C 31.378906 17.253906 31.78125 17.390625 32.191406 17.574219 L 32.191406 15.992188 C 31.726562 15.867188 31.277344 15.777344 30.839844 15.71875 C 30.40625 15.652344 29.984375 15.621094 29.574219 15.621094 Z M 2.527344 15.757812 L 2.527344 23.238281 L 4.558594 23.238281 C 5.683594 23.238281 6.527344 23.160156 7.085938 23 C 7.648438 22.835938 8.128906 22.558594 8.53125 22.171875 C 8.882812 21.835938 9.140625 21.445312 9.3125 21.003906 C 9.480469 20.558594 9.566406 20.054688 9.566406 19.492188 C 9.566406 18.933594 9.480469 18.433594 9.3125 17.992188 C 9.140625 17.550781 8.882812 17.160156 8.53125 16.824219 C 8.132812 16.4375 7.652344 16.164062 7.097656 16 C 6.542969 15.839844 5.695312 15.757812 4.558594 15.757812 Z M 19.464844 15.757812 L 19.464844 23.238281 L 21.394531 23.238281 L 21.394531 20.644531 L 22.667969 20.644531 C 23.621094 20.644531 24.351562 20.433594 24.859375 20.011719 C 25.371094 19.585938 25.625 18.984375 25.625 18.199219 C 25.625 17.417969 25.371094 16.8125 24.859375 16.390625 C 24.351562 15.96875 23.621094 15.757812 22.667969 15.757812 Z M 21.394531 17.15625 L 22.460938 17.15625 C 22.835938 17.15625 23.125 17.246094 23.332031 17.425781 C 23.535156 17.605469 23.636719 17.863281 23.636719 18.199219 C 23.636719 18.53125 23.535156 18.789062 23.332031 18.972656 C 23.125 19.152344 22.835938 19.246094 22.460938 19.246094 L 21.394531 19.246094 Z M 4.453125 17.214844 L 5.148438 17.214844 C 5.9375 17.214844 6.542969 17.410156 6.957031 17.796875 C 7.371094 18.183594 7.578125 18.75 7.578125 19.492188 C 7.578125 20.234375 7.367188 20.804688 6.949219 21.195312 C 6.535156 21.585938 5.9375 21.78125 5.148438 21.78125 L 4.453125 21.78125 Z M 4.453125 17.214844 "/>
</svg>
