<?xml version="1.0" encoding="UTF-8"?>
<svg xmlns="http://www.w3.org/2000/svg" xmlns:xlink="http://www.w3.org/1999/xlink" width="12" height="12" viewBox="0 0 12 12" version="1.1">
<g id="surface1">
<path style=" stroke:none;fill-rule:nonzero;fill:rgb(0%,0%,0%);fill-opacity:1;" d="M 9.941406 4.585938 C 10.164062 4.585938 10.355469 4.507812 10.511719 4.351562 C 10.667969 4.195312 10.746094 4.007812 10.746094 3.78125 C 10.746094 3.558594 10.667969 3.367188 10.511719 3.210938 C 10.355469 3.054688 10.164062 2.976562 9.941406 2.976562 C 9.726562 2.976562 9.535156 3.054688 9.375 3.210938 C 9.214844 3.367188 9.136719 3.558594 9.136719 3.78125 C 9.136719 4.007812 9.214844 4.195312 9.375 4.351562 C 9.535156 4.507812 9.726562 4.585938 9.941406 4.585938 Z M 11.015625 10.105469 L 10.535156 9.738281 C 10.4375 9.898438 10.257812 10.019531 10.074219 10.019531 C 9.984375 10.019531 9.898438 9.996094 9.820312 9.949219 L 1.339844 4.9375 L 0.984375 5.542969 L 9.4375 10.515625 C 9.703125 10.664062 9.777344 10.648438 10.078125 10.65625 C 10.390625 10.65625 10.855469 10.367188 11.015625 10.105469 Z M 3.910156 6.230469 C 3.960938 6.242188 4.027344 6.226562 4.113281 6.195312 L 6.433594 5.441406 C 6.65625 5.359375 6.78125 5.234375 6.804688 5.066406 C 6.828125 4.898438 6.839844 4.808594 6.828125 4.789062 L 6.480469 3.53125 L 7.875 4.359375 L 8.042969 5.570312 C 8.074219 5.789062 8.167969 5.941406 8.320312 6.027344 L 10.132812 7.085938 C 10.195312 7.125 10.261719 7.144531 10.324219 7.144531 C 10.445312 7.144531 10.546875 7.101562 10.625 7.019531 C 10.707031 6.933594 10.746094 6.835938 10.746094 6.726562 C 10.746094 6.566406 10.671875 6.445312 10.53125 6.363281 L 9.089844 5.523438 L 8.933594 3.363281 C 8.90625 3.074219 8.785156 2.863281 8.558594 2.738281 L 6.480469 1.511719 C 6.289062 1.398438 6.089844 1.34375 5.882812 1.34375 C 5.503906 1.34375 5.210938 1.496094 5.003906 1.800781 C 4.882812 1.984375 4.824219 2.183594 4.824219 2.402344 C 4.824219 2.496094 4.835938 2.59375 4.859375 2.6875 L 5.425781 4.527344 L 3.730469 5.066406 C 3.492188 5.140625 3.355469 5.316406 3.324219 5.597656 C 3.273438 5.972656 3.46875 6.183594 3.910156 6.230469 Z M 3.910156 6.230469 "/>
</g>
</svg>
