<?xml version="1.0" encoding="UTF-8"?>
<svg xmlns="http://www.w3.org/2000/svg" xmlns:xlink="http://www.w3.org/1999/xlink" width="12" height="12" viewBox="0 0 12 12" version="1.1">
<defs>
<filter id="alpha" filterUnits="objectBoundingBox" x="0%" y="0%" width="100%" height="100%">
  <feColorMatrix type="matrix" in="SourceGraphic" values="0 0 0 0 1 0 0 0 0 1 0 0 0 0 1 0 0 0 1 0"/>
</filter>
<mask id="mask0">
  <g filter="url(#alpha)">
<rect x="0" y="0" width="12" height="12" style="fill:rgb(0%,0%,0%);fill-opacity:0.372;stroke:none;"/>
  </g>
</mask>
<clipPath id="clip1">
  <rect x="0" y="0" width="12" height="12"/>
</clipPath>
<g id="surface5" clip-path="url(#clip1)">
<path style=" stroke:none;fill-rule:nonzero;fill:rgb(89.411765%,89.411765%,89.411765%);fill-opacity:1;" d="M 5.800781 2.839844 C 5.75 2.839844 5.703125 2.847656 5.65625 2.867188 C 5.613281 2.886719 5.570312 2.914062 5.539062 2.953125 L 5.460938 3.039062 L 5.121094 3.421875 L 5.101562 3.441406 C 5.039062 3.503906 5.003906 3.585938 5.003906 3.675781 L 5.003906 3.707031 L 4.84375 7.09375 L 4.824219 7.09375 C 4.78125 7.09375 4.738281 7.101562 4.699219 7.117188 C 4.65625 7.136719 4.621094 7.160156 4.589844 7.191406 C 4.558594 7.21875 4.535156 7.257812 4.519531 7.296875 C 4.503906 7.335938 4.492188 7.378906 4.492188 7.421875 L 4.492188 7.476562 L 4.441406 7.476562 C 4.398438 7.476562 4.355469 7.484375 4.3125 7.503906 C 4.273438 7.519531 4.238281 7.542969 4.207031 7.574219 C 4.175781 7.605469 4.152344 7.640625 4.136719 7.679688 C 4.117188 7.722656 4.109375 7.765625 4.109375 7.808594 L 4.109375 7.863281 L 3.949219 7.863281 C 3.90625 7.863281 3.863281 7.871094 3.824219 7.890625 C 3.78125 7.90625 3.746094 7.929688 3.714844 7.960938 C 3.683594 7.992188 3.660156 8.027344 3.644531 8.066406 C 3.628906 8.109375 3.621094 8.152344 3.621094 8.195312 L 3.621094 8.453125 C 3.621094 8.496094 3.628906 8.539062 3.644531 8.582031 C 3.660156 8.621094 3.683594 8.65625 3.714844 8.6875 C 3.746094 8.71875 3.78125 8.742188 3.824219 8.757812 C 3.863281 8.777344 3.90625 8.785156 3.949219 8.785156 L 5.03125 8.785156 C 5.183594 9.03125 5.457031 9.195312 5.765625 9.195312 C 6.078125 9.195312 6.351562 9.03125 6.503906 8.785156 L 7.585938 8.785156 C 7.628906 8.785156 7.671875 8.777344 7.710938 8.757812 C 7.75 8.742188 7.789062 8.71875 7.820312 8.6875 C 7.847656 8.65625 7.875 8.621094 7.890625 8.582031 C 7.90625 8.539062 7.914062 8.496094 7.914062 8.453125 L 7.914062 8.195312 C 7.914062 8.152344 7.90625 8.109375 7.890625 8.066406 C 7.875 8.027344 7.847656 7.992188 7.820312 7.960938 C 7.789062 7.929688 7.75 7.90625 7.710938 7.890625 C 7.671875 7.871094 7.628906 7.863281 7.585938 7.863281 L 7.460938 7.863281 L 7.460938 7.808594 C 7.460938 7.765625 7.453125 7.722656 7.4375 7.679688 C 7.421875 7.640625 7.398438 7.605469 7.367188 7.574219 C 7.335938 7.542969 7.296875 7.519531 7.257812 7.503906 C 7.21875 7.484375 7.175781 7.476562 7.132812 7.476562 L 7.078125 7.476562 L 7.078125 7.421875 C 7.078125 7.378906 7.070312 7.335938 7.054688 7.296875 C 7.035156 7.257812 7.011719 7.21875 6.980469 7.191406 C 6.953125 7.160156 6.914062 7.136719 6.875 7.117188 C 6.835938 7.101562 6.792969 7.09375 6.75 7.09375 L 6.726562 7.09375 L 6.566406 3.707031 L 6.566406 3.675781 C 6.566406 3.585938 6.53125 3.503906 6.46875 3.441406 L 6.453125 3.421875 L 6.109375 3.039062 L 6.03125 2.953125 C 6.003906 2.917969 5.96875 2.890625 5.925781 2.871094 C 5.886719 2.855469 5.84375 2.84375 5.800781 2.839844 Z M 5.785156 5.699219 L 5.847656 7.074219 L 5.722656 7.074219 Z M 5.765625 8.308594 C 5.785156 8.308594 5.78125 8.308594 5.78125 8.324219 C 5.78125 8.339844 5.785156 8.339844 5.765625 8.339844 C 5.75 8.339844 5.753906 8.339844 5.753906 8.324219 C 5.753906 8.308594 5.75 8.308594 5.765625 8.308594 Z M 5.765625 8.308594 "/>
</g>
</defs>
<g id="surface1">
<use xlink:href="#surface5" mask="url(#mask0)"/>
<path style="fill:none;stroke-width:17.158001;stroke-linecap:butt;stroke-linejoin:miter;stroke:rgb(0%,0%,0%);stroke-opacity:1;stroke-miterlimit:4;" d="M 548.632813 735.30599 C 548.632813 740.481771 547.597656 745.657552 545.872396 750.488281 C 543.802083 754.973958 541.041667 759.459635 537.246094 763.255208 C 533.795573 766.705729 529.309896 769.466146 524.479167 771.536458 C 519.99349 773.606771 514.817708 774.641927 509.641927 774.641927 C 504.466146 774.641927 499.290365 773.606771 494.804688 771.536458 C 489.973958 769.466146 485.488281 766.705729 482.03776 763.255208 C 478.242188 759.459635 475.481771 754.973958 473.411458 750.488281 C 471.686198 745.657552 470.651042 740.481771 470.651042 735.30599 C 470.651042 730.130208 471.686198 725.299479 473.411458 720.46875 C 475.481771 715.638021 478.242188 711.497396 482.03776 707.701823 C 485.488281 704.251302 489.973958 701.145833 494.804688 699.420573 C 499.290365 697.35026 504.466146 696.315104 509.641927 696.315104 C 514.817708 696.315104 519.99349 697.35026 524.479167 699.420573 C 529.309896 701.145833 533.795573 704.251302 537.246094 707.701823 C 541.041667 711.497396 543.802083 715.638021 545.872396 720.46875 C 547.597656 725.299479 548.632813 730.130208 548.632813 735.30599 Z M 548.632813 735.30599 " transform="matrix(0.0113208,0,0,0.0113208,0,0)"/>
<path style=" stroke:none;fill-rule:nonzero;fill:rgb(0%,0%,0%);fill-opacity:1;" d="M 3.953125 8.195312 L 3.953125 8.457031 L 5.375 8.457031 L 5.375 8.195312 Z M 6.164062 8.195312 L 6.164062 8.457031 L 7.585938 8.457031 L 7.585938 8.195312 Z M 6.164062 8.195312 "/>
<path style=" stroke:none;fill-rule:nonzero;fill:rgb(0%,0%,0%);fill-opacity:1;" d="M 4.441406 7.808594 L 4.441406 8.390625 L 5.386719 8.390625 C 5.386719 8.316406 5.410156 8.25 5.445312 8.191406 L 4.640625 8.191406 L 4.640625 8.007812 L 5.554688 8.007812 C 5.734375 7.882812 5.890625 7.929688 6.039062 8.007812 L 6.9375 8.007812 L 6.9375 8.191406 L 6.09375 8.191406 C 6.128906 8.25 6.152344 8.316406 6.152344 8.390625 L 7.132812 8.390625 L 7.132812 7.808594 Z M 4.441406 7.808594 "/>
<path style="fill:none;stroke-width:17.275;stroke-linecap:butt;stroke-linejoin:miter;stroke:rgb(0%,0%,0%);stroke-opacity:1;stroke-miterlimit:4;" d="M 587.623698 698.385417 L 587.623698 664.570313 L 435.110677 664.570313 L 435.110677 698.385417 " transform="matrix(0.0113208,0,0,0.0113208,0,0)"/>
<path style="fill:none;stroke-width:18.8241;stroke-linecap:butt;stroke-linejoin:miter;stroke:rgb(0%,0%,0%);stroke-opacity:1;stroke-miterlimit:4;" d="M 480.657552 328.489583 L 465.130208 663.880208 L 557.604167 663.880208 L 541.731771 328.489583 L 511.367188 294.329427 Z M 480.657552 328.489583 " transform="matrix(0.0113208,0,0,0.0113208,0,0)"/>
</g>
</svg>
