<svg width="32" height="32" viewBox="0 0 16 16" fill="none" xmlns="http://www.w3.org/2000/svg">
<path opacity="0.694352" d="M8.01562 4.28711C7.33937 4.28711 6.75564 4.36378 6.14648 4.53516C4.99491 4.85912 3.99383 5.43618 3.14257 6.26953C2.61881 6.78227 2.20924 7.32468 1.87109 7.95703C1.3705 8.89315 1.09818 9.89387 1.05273 10.9609C1.05273 10.9616 1.05273 10.9623 1.05273 10.9629L1.04296 11.2266C1.04073 11.2896 1.05119 11.3524 1.07374 11.4112C1.09628 11.4701 1.13044 11.5238 1.17418 11.5692C1.21792 11.6146 1.27034 11.6507 1.32833 11.6754C1.38632 11.7001 1.44868 11.7129 1.51171 11.7129H7.99999H14.4883C14.5511 11.7128 14.6133 11.7001 14.6712 11.6756C14.729 11.651 14.7814 11.615 14.8251 11.5699C14.8688 11.5247 14.903 11.4712 14.9257 11.4126C14.9483 11.354 14.959 11.2914 14.957 11.2286L14.9472 10.9493C14.9472 10.9486 14.9472 10.9479 14.9472 10.9473C14.8851 9.30651 14.2239 7.71723 13.0996 6.50977C12.4983 5.86402 11.8507 5.38346 11.0586 4.99219C10.0887 4.51307 9.10568 4.28711 8.01562 4.28711Z" fill="#FEFEFE"/>
<path d="M1.52217 10.9809C1.56479 9.98028 1.81709 9.05415 2.2859 8.17745C2.60285 7.58474 2.97669 7.08855 3.47055 6.60508C4.26877 5.82365 5.1922 5.2902 6.27301 4.98614C6.84349 4.82565 7.37356 4.75549 8.01569 4.75549C9.04235 4.75549 9.93993 4.96402 10.8515 5.41434C11.5995 5.78379 12.1883 6.22191 12.7554 6.83101C13.802 7.95499 14.4205 9.43905 14.4784 10.9647L14.489 11.2445H8H1.51099L1.52225 10.9809H1.52217Z" fill="#EA2A2D"/>
<path d="M10.1562 6.63672L9.13867 7.38086C8.57926 7.78947 8.10347 8.13558 8.08203 8.15039C8.0536 8.17004 8.03548 8.17381 8.01367 8.16211C7.99723 8.1533 7.51851 7.8071 6.95117 7.39258L5.91992 6.63867H5.20117H4.48242V8.58984C4.48242 9.66334 4.48607 10.5467 4.49219 10.5527C4.49819 10.5587 4.86464 10.561 5.30664 10.5586L6.11133 10.5547L6.11523 9.48828C6.11866 8.60368 6.12225 8.41916 6.14062 8.41211C6.15302 8.40734 6.57237 8.68771 7.0918 9.04688L8.01953 9.6875L8.0625 9.66016C8.08573 9.64519 8.50571 9.35977 8.99609 9.02539C9.48648 8.69101 9.90048 8.41439 9.91602 8.41016C9.94264 8.40294 9.94529 8.46396 9.94922 9.4707L9.95312 10.5391H10.7715H11.5898V8.5918V6.64648L10.873 6.64258L10.1562 6.63672Z" fill="#FEFEFE"/>
</svg>
