<svg width="12" height="12" viewBox="0 0 580 580" fill="none" xmlns="http://www.w3.org/2000/svg">
<path d="M180.659 135.765C150.435 135.765 119.976 143.928 97.4745 164.816C75.0589 185.625 64.75 216.715 64.75 246.368C64.75 266.357 69.709 287.179 80.7412 304.73C76.2095 309.001 72.5983 314.153 70.1291 319.869C67.66 325.586 66.385 331.747 66.3825 337.974V383.536C66.3807 392.588 69.0667 401.436 74.1 408.96C79.1333 416.483 86.2872 422.343 94.6547 425.796C109.104 431.761 123.794 436.323 138.658 439.449C153.625 442.597 168.786 444.236 183.924 444.236C212.955 444.236 241.325 438.271 264.065 421.009C268.292 426.928 273.87 431.753 280.336 435.083C286.802 438.413 293.969 440.151 301.242 440.154H349.661C356.536 440.154 363.323 438.602 369.516 435.615C375.709 432.628 381.148 428.282 385.428 422.902C389.7 428.273 395.127 432.612 401.306 435.599C407.485 438.586 414.258 440.143 421.12 440.154H469.539C475.542 440.155 481.487 438.973 487.033 436.676C492.579 434.379 497.618 431.012 501.863 426.767C506.107 422.523 509.474 417.483 511.771 411.937C514.068 406.391 515.25 400.447 515.25 394.444V185.26C515.25 179.257 514.068 173.312 511.771 167.766C509.474 162.22 506.107 157.181 501.863 152.936C497.618 148.691 492.579 145.324 487.033 143.028C481.487 140.731 475.542 139.549 469.539 139.549H421.12C414.245 139.55 407.458 141.101 401.265 144.088C395.073 147.075 389.634 151.421 385.354 156.802C381.081 151.431 375.654 147.091 369.475 144.104C363.296 141.118 356.524 139.561 349.661 139.549H301.242C289.363 139.569 277.959 144.214 269.445 152.498C266.25 150.606 262.836 149.111 259.279 148.046C245.987 144.105 232.846 141.098 219.802 139.067V139.03C219.678 139.01 219.554 139.013 219.431 138.993C206.435 136.896 193.498 135.765 180.659 135.765V135.765Z" fill="#FEFEFE" fill-opacity="0.788732"/>
<path d="M246.295 191.856V236.129C235.981 230.992 225.92 227.116 216.11 224.5C206.299 221.885 197.034 220.578 188.314 220.578C176.743 220.578 168.191 222.352 162.657 225.902C157.123 229.451 154.356 234.962 154.356 242.434C154.356 248.038 156.201 252.428 159.89 255.604C163.663 258.686 170.455 261.348 180.265 263.59L200.891 268.213C221.769 272.883 236.61 279.982 245.414 289.509C254.218 299.036 258.62 312.58 258.62 330.14C258.62 353.21 252.457 370.396 240.132 381.698C227.89 392.907 209.15 398.511 183.912 398.511C172.006 398.511 160.058 397.25 148.068 394.728C136.077 392.206 124.087 388.47 112.097 383.52V337.985C124.087 345.084 135.658 350.455 146.81 354.098C158.045 357.647 168.862 359.422 179.259 359.422C189.823 359.422 197.915 357.46 203.533 353.537C209.15 349.614 211.959 344.01 211.959 336.725C211.959 330.186 210.031 325.143 206.174 321.593C202.401 318.044 194.812 314.868 183.409 312.066L164.669 307.443C145.887 302.959 132.136 295.814 123.416 286.007C114.78 276.199 110.462 262.983 110.462 246.357C110.462 225.528 116.499 209.509 128.573 198.301C140.647 187.093 158.003 181.488 180.642 181.488C190.955 181.488 201.562 182.376 212.462 184.15C223.362 185.832 234.64 188.4 246.295 191.856" fill="#6C003D"/>
<path d="M301.257 185.271H349.679V264.991H421.117V185.271H469.539V394.448H421.117V305.762H349.679V394.448H301.257V185.271" fill="#6C003D"/>
</svg>
