<?xml version="1.0" encoding="UTF-8"?>
<svg xmlns="http://www.w3.org/2000/svg" xmlns:xlink="http://www.w3.org/1999/xlink" width="24" height="24" viewBox="0 0 24 24">
<defs>
<filter id="filter-remove-color" x="0%" y="0%" width="100%" height="100%">
<feColorMatrix color-interpolation-filters="sRGB" values="0 0 0 0 1 0 0 0 0 1 0 0 0 0 1 0 0 0 1 0" />
</filter>
<mask id="mask-0">
<g filter="url(#filter-remove-color)">
<rect x="-2.4" y="-2.4" width="28.8" height="28.8" fill="rgb(0%, 0%, 0%)" fill-opacity="0.552"/>
</g>
</mask>
<clipPath id="clip-0">
<path clip-rule="nonzero" d="M 1 14 L 22 14 L 22 24 L 1 24 Z M 1 14 "/>
</clipPath>
<clipPath id="clip-1">
<rect x="0" y="0" width="24" height="24"/>
</clipPath>
<g id="source-7" clip-path="url(#clip-1)">
<g clip-path="url(#clip-0)">
<path fill-rule="nonzero" fill="rgb(55.294118%, 55.294118%, 55.294118%)" fill-opacity="1" d="M 5.699219 14.835938 C 5.636719 14.835938 5.578125 14.84375 5.519531 14.855469 C 5.371094 14.878906 5.234375 14.941406 5.121094 15.039062 L 5.089844 15.0625 C 4.742188 15.285156 4.164062 15.757812 3.769531 16.667969 C 3.277344 17.789062 3.222656 19.0625 3.261719 20.019531 L 2.515625 20.019531 C 2.40625 20.019531 2.296875 20.042969 2.195312 20.085938 C 2.097656 20.125 2.003906 20.1875 1.929688 20.261719 C 1.851562 20.339844 1.789062 20.429688 1.75 20.53125 C 1.707031 20.632812 1.6875 20.738281 1.6875 20.847656 L 1.6875 21.882812 C 1.6875 21.992188 1.707031 22.097656 1.75 22.199219 C 1.789062 22.300781 1.851562 22.390625 1.929688 22.46875 C 2.003906 22.546875 2.097656 22.605469 2.195312 22.648438 C 2.296875 22.691406 2.40625 22.710938 2.515625 22.710938 L 9.457031 22.710938 C 9.921875 23.480469 10.757812 24.003906 11.714844 24.003906 C 12.671875 24.003906 13.511719 23.480469 13.972656 22.710938 L 20.457031 22.710938 C 20.5625 22.710938 20.671875 22.691406 20.773438 22.648438 C 20.871094 22.605469 20.964844 22.546875 21.039062 22.46875 C 21.117188 22.390625 21.179688 22.300781 21.21875 22.199219 C 21.261719 22.097656 21.285156 21.992188 21.28125 21.882812 L 21.28125 20.847656 C 21.285156 20.738281 21.261719 20.632812 21.21875 20.53125 C 21.179688 20.429688 21.117188 20.339844 21.039062 20.261719 C 20.964844 20.1875 20.871094 20.125 20.773438 20.085938 C 20.671875 20.042969 20.5625 20.019531 20.457031 20.019531 L 19.910156 20.019531 C 19.890625 19.691406 19.863281 19.296875 19.816406 18.777344 C 19.679688 17.238281 19.238281 16.265625 18.753906 15.675781 C 18.507812 15.382812 18.257812 15.1875 18.054688 15.066406 C 17.851562 14.945312 17.628906 14.878906 17.628906 14.878906 C 17.5625 14.863281 17.492188 14.851562 17.421875 14.851562 Z M 5.699219 14.835938 "/>
</g>
</g>
</defs>
<g mask="url(#mask-0)">
<use xlink:href="#source-7"/>
</g>
<path fill-rule="nonzero" fill="rgb(0%, 87.45098%, 4.705882%)" fill-opacity="1" d="M 5.703125 15.671875 C 5.703125 15.671875 4.984375 15.96875 4.53125 17.007812 C 3.789062 18.699219 4.214844 21.351562 4.214844 21.351562 L 19.027344 21.207031 C 19.027344 21.207031 19.246094 21.691406 18.996094 18.859375 C 18.746094 16.027344 17.425781 15.691406 17.425781 15.691406 Z M 5.703125 15.671875 "/>
<path fill="none" stroke-width="25" stroke-linecap="butt" stroke-linejoin="miter" stroke="rgb(0%, 0%, 0%)" stroke-opacity="1" stroke-miterlimit="4" d="M 60.794271 516.5625 L 494.378255 516.5625 " transform="matrix(0.0413793, 0, 0, 0.0413793, 0, 0)"/>
<path fill-rule="nonzero" fill="rgb(99.607843%, 99.607843%, 99.607843%)" fill-opacity="1" stroke-width="20.5723" stroke-linecap="round" stroke-linejoin="round" stroke="rgb(0%, 0%, 0%)" stroke-opacity="1" stroke-miterlimit="10" d="M 316.809896 516.373698 C 316.809896 525.341797 313.222656 533.837891 306.992188 540.16276 C 300.667318 546.48763 292.076823 549.980469 283.203125 549.980469 C 274.329427 549.980469 265.738932 546.48763 259.414062 540.16276 C 253.089193 533.837891 249.596354 525.341797 249.596354 516.373698 C 249.596354 507.5 253.089193 498.909505 259.414062 492.679036 C 265.738932 486.354167 274.329427 482.766927 283.203125 482.766927 C 292.076823 482.766927 300.667318 486.354167 306.992188 492.679036 C 313.222656 498.909505 316.809896 507.5 316.809896 516.373698 Z M 316.809896 516.373698 " transform="matrix(0.0413793, 0, 0, 0.0413793, 0, 0)"/>
<path fill="none" stroke-width="16.799999" stroke-linecap="butt" stroke-linejoin="round" stroke="rgb(0%, 0%, 0%)" stroke-opacity="1" stroke-miterlimit="4" d="M 130.273438 384.401042 C 150.192057 407.906901 162.936198 449.160156 157.932943 519.960938 " transform="matrix(0.0413793, 0, 0, 0.0413793, 0, 0)"/>
</svg>
