<?xml version="1.0" encoding="UTF-8"?>
<svg xmlns="http://www.w3.org/2000/svg" xmlns:xlink="http://www.w3.org/1999/xlink" width="12" height="12" viewBox="0 0 12 12" version="1.1">
<defs>
<filter id="alpha" filterUnits="objectBoundingBox" x="0%" y="0%" width="100%" height="100%">
  <feColorMatrix type="matrix" in="SourceGraphic" values="0 0 0 0 1 0 0 0 0 1 0 0 0 0 1 0 0 0 1 0"/>
</filter>
<mask id="mask0">
  <g filter="url(#alpha)">
<rect x="0" y="0" width="12" height="12" style="fill:rgb(0%,0%,0%);fill-opacity:0.873134;stroke:none;"/>
  </g>
</mask>
<clipPath id="clip1">
  <rect x="0" y="0" width="12" height="12"/>
</clipPath>
<g id="surface5" clip-path="url(#clip1)">
<path style=" stroke:none;fill-rule:nonzero;fill:rgb(67.450982%,84.705883%,95.294118%);fill-opacity:1;" d="M 2.769531 2.496094 C 2.449219 2.496094 2.132812 2.59375 1.902344 2.808594 C 1.898438 2.816406 1.890625 2.824219 1.882812 2.828125 C 1.761719 2.714844 1.613281 2.632812 1.453125 2.585938 C 1.453125 2.585938 1.449219 2.585938 1.449219 2.585938 C 1.269531 2.53125 1.085938 2.523438 0.855469 2.523438 L 0.472656 2.523438 C 0.359375 2.523438 0.25 2.566406 0.167969 2.648438 C 0.0859375 2.730469 0.0429688 2.839844 0.0429688 2.953125 L 0.0429688 4.359375 C 0.0429688 4.472656 0.0859375 4.582031 0.167969 4.664062 C 0.25 4.742188 0.359375 4.789062 0.472656 4.789062 L 0.855469 4.789062 C 1.085938 4.789062 1.269531 4.777344 1.449219 4.726562 C 1.609375 4.679688 1.757812 4.597656 1.878906 4.484375 C 1.886719 4.488281 1.890625 4.496094 1.894531 4.5 C 1.894531 4.5 1.898438 4.5 1.898438 4.5 C 2.121094 4.71875 2.4375 4.816406 2.75 4.816406 C 2.882812 4.816406 3.015625 4.800781 3.144531 4.773438 C 3.226562 4.753906 3.308594 4.730469 3.386719 4.699219 C 3.460938 4.757812 3.554688 4.789062 3.648438 4.789062 L 4.011719 4.789062 C 4.125 4.789062 4.234375 4.742188 4.316406 4.664062 C 4.398438 4.582031 4.441406 4.472656 4.445312 4.359375 L 4.445312 4.289062 C 4.496094 4.28125 4.550781 4.273438 4.601562 4.257812 L 4.601562 4.285156 C 4.601562 4.371094 4.628906 4.457031 4.679688 4.53125 C 4.730469 4.601562 4.800781 4.660156 4.882812 4.6875 C 4.996094 4.730469 5.105469 4.761719 5.222656 4.785156 C 5.335938 4.804688 5.453125 4.816406 5.570312 4.816406 C 5.816406 4.816406 6.058594 4.773438 6.265625 4.605469 C 6.46875 4.4375 6.558594 4.167969 6.558594 3.925781 C 6.558594 3.777344 6.519531 3.609375 6.429688 3.46875 C 6.457031 3.414062 6.46875 3.355469 6.46875 3.296875 L 6.46875 3 C 6.46875 2.902344 6.4375 2.8125 6.378906 2.734375 C 6.320312 2.660156 6.238281 2.605469 6.148438 2.582031 C 6.046875 2.554688 5.945312 2.535156 5.84375 2.519531 C 5.742188 2.503906 5.644531 2.496094 5.546875 2.496094 C 5.316406 2.496094 5.078125 2.550781 4.886719 2.703125 C 4.699219 2.570312 4.472656 2.523438 4.25 2.523438 L 3.648438 2.523438 C 3.554688 2.523438 3.460938 2.554688 3.386719 2.613281 C 3.300781 2.578125 3.214844 2.550781 3.125 2.53125 C 3.007812 2.507812 2.890625 2.496094 2.769531 2.496094 Z M 4.011719 3.363281 L 4.011719 3.460938 C 4.003906 3.441406 4 3.421875 4 3.414062 C 4 3.402344 4.003906 3.382812 4.011719 3.363281 Z M 4.011719 3.363281 "/>
</g>
</defs>
<g id="surface1">
<use xlink:href="#surface5" mask="url(#mask0)"/>
<path style=" stroke:none;fill-rule:nonzero;fill:rgb(0%,0%,0%);fill-opacity:1;" d="M 2.769531 2.929688 C 2.527344 2.929688 2.335938 2.992188 2.199219 3.125 C 2.058594 3.253906 1.992188 3.429688 1.992188 3.65625 C 1.992188 3.882812 2.058594 4.058594 2.195312 4.1875 C 2.332031 4.320312 2.515625 4.382812 2.75 4.382812 C 2.855469 4.382812 2.953125 4.375 3.050781 4.351562 C 3.148438 4.328125 3.242188 4.296875 3.332031 4.253906 L 3.332031 3.578125 L 2.769531 3.578125 L 2.769531 3.820312 L 2.988281 3.820312 L 2.988281 4.09375 C 2.964844 4.101562 2.933594 4.109375 2.902344 4.117188 C 2.871094 4.121094 2.835938 4.121094 2.796875 4.121094 C 2.660156 4.121094 2.550781 4.082031 2.476562 4 C 2.402344 3.921875 2.363281 3.804688 2.363281 3.65625 C 2.363281 3.507812 2.402344 3.390625 2.480469 3.3125 C 2.558594 3.230469 2.671875 3.191406 2.8125 3.191406 C 2.890625 3.191406 2.96875 3.203125 3.046875 3.222656 C 3.125 3.246094 3.203125 3.277344 3.28125 3.324219 L 3.28125 3.035156 C 3.203125 3 3.125 2.972656 3.039062 2.957031 C 2.953125 2.9375 2.863281 2.929688 2.769531 2.929688 Z M 5.546875 2.929688 C 5.375 2.929688 5.246094 2.964844 5.15625 3.042969 C 5.066406 3.117188 5.019531 3.222656 5.019531 3.363281 C 5.019531 3.476562 5.054688 3.5625 5.117188 3.628906 C 5.183594 3.695312 5.285156 3.742188 5.425781 3.773438 L 5.566406 3.804688 C 5.652344 3.824219 5.707031 3.84375 5.734375 3.867188 C 5.765625 3.894531 5.777344 3.925781 5.777344 3.96875 C 5.777344 4.019531 5.757812 4.054688 5.714844 4.082031 C 5.675781 4.109375 5.613281 4.121094 5.535156 4.121094 C 5.457031 4.121094 5.375 4.109375 5.292969 4.085938 C 5.210938 4.0625 5.121094 4.027344 5.03125 3.980469 L 5.03125 4.285156 C 5.121094 4.316406 5.210938 4.34375 5.300781 4.359375 C 5.390625 4.375 5.480469 4.382812 5.570312 4.382812 C 5.757812 4.382812 5.898438 4.347656 5.988281 4.273438 C 6.082031 4.195312 6.128906 4.082031 6.128906 3.925781 C 6.128906 3.808594 6.09375 3.71875 6.027344 3.652344 C 5.964844 3.589844 5.851562 3.542969 5.695312 3.511719 L 5.542969 3.480469 C 5.46875 3.464844 5.417969 3.445312 5.390625 3.425781 C 5.363281 3.40625 5.347656 3.375 5.347656 3.335938 C 5.347656 3.289062 5.371094 3.25 5.410156 3.226562 C 5.453125 3.203125 5.515625 3.191406 5.601562 3.191406 C 5.667969 3.191406 5.738281 3.199219 5.808594 3.21875 C 5.882812 3.234375 5.957031 3.261719 6.035156 3.296875 L 6.035156 3 C 5.949219 2.976562 5.863281 2.957031 5.78125 2.945312 C 5.703125 2.933594 5.621094 2.929688 5.546875 2.929688 Z M 0.472656 2.953125 L 0.472656 4.359375 L 0.855469 4.359375 C 1.066406 4.359375 1.222656 4.34375 1.328125 4.3125 C 1.433594 4.28125 1.523438 4.230469 1.597656 4.15625 C 1.664062 4.09375 1.714844 4.019531 1.746094 3.9375 C 1.777344 3.855469 1.792969 3.761719 1.792969 3.65625 C 1.792969 3.550781 1.777344 3.457031 1.746094 3.375 C 1.714844 3.289062 1.664062 3.21875 1.597656 3.15625 C 1.523438 3.082031 1.433594 3.03125 1.332031 3 C 1.226562 2.96875 1.066406 2.953125 0.855469 2.953125 Z M 3.648438 2.953125 L 3.648438 4.359375 L 4.011719 4.359375 L 4.011719 3.871094 L 4.25 3.871094 C 4.429688 3.871094 4.566406 3.832031 4.660156 3.753906 C 4.757812 3.671875 4.804688 3.558594 4.804688 3.414062 C 4.804688 3.265625 4.757812 3.152344 4.660156 3.074219 C 4.566406 2.992188 4.429688 2.953125 4.25 2.953125 Z M 4.011719 3.214844 L 4.210938 3.214844 C 4.28125 3.214844 4.335938 3.234375 4.375 3.265625 C 4.414062 3.300781 4.433594 3.347656 4.433594 3.414062 C 4.433594 3.476562 4.414062 3.523438 4.375 3.558594 C 4.335938 3.589844 4.28125 3.609375 4.210938 3.609375 L 4.011719 3.609375 Z M 0.835938 3.226562 L 0.964844 3.226562 C 1.113281 3.226562 1.226562 3.265625 1.304688 3.335938 C 1.382812 3.410156 1.421875 3.515625 1.421875 3.65625 C 1.421875 3.792969 1.382812 3.902344 1.304688 3.972656 C 1.226562 4.046875 1.113281 4.082031 0.964844 4.082031 L 0.835938 4.082031 Z M 0.835938 3.226562 "/>
</g>
</svg>
