<?xml version="1.0" encoding="UTF-8"?>
<svg xmlns="http://www.w3.org/2000/svg" xmlns:xlink="http://www.w3.org/1999/xlink" width="32" height="32" viewBox="0 0 32 32">
<defs>
<filter id="filter-remove-color" x="0%" y="0%" width="100%" height="100%">
<feColorMatrix color-interpolation-filters="sRGB" values="0 0 0 0 1 0 0 0 0 1 0 0 0 0 1 0 0 0 1 0" />
</filter>
<mask id="mask-0">
<g filter="url(#filter-remove-color)">
<rect x="-3.2" y="-3.2" width="38.4" height="38.4" fill="rgb(0%, 0%, 0%)" fill-opacity="0.426087"/>
</g>
</mask>
<clipPath id="clip-0">
<rect x="0" y="0" width="32" height="32"/>
</clipPath>
<g id="source-6" clip-path="url(#clip-0)">
<path fill-rule="nonzero" fill="rgb(67.45098%, 84.705882%, 95.294118%)" fill-opacity="1" d="M 16 8.71875 C 12.003906 8.71875 8.71875 12.003906 8.71875 16 C 8.71875 19.996094 12.003906 23.28125 16 23.28125 C 19.996094 23.28125 23.28125 19.996094 23.28125 16 C 23.28125 12.003906 19.996094 8.71875 16 8.71875 Z M 16 14.382812 C 16.9375 14.382812 17.617188 15.058594 17.617188 16 C 17.617188 16.941406 16.9375 17.617188 16 17.617188 C 15.058594 17.617188 14.382812 16.941406 14.382812 16 C 14.382812 15.058594 15.058594 14.382812 16 14.382812 Z M 16 14.382812 "/>
</g>
<mask id="mask-1">
<g filter="url(#filter-remove-color)">
<rect x="-3.2" y="-3.2" width="38.4" height="38.4" fill="rgb(0%, 0%, 0%)" fill-opacity="0.812"/>
</g>
</mask>
<clipPath id="clip-1">
<rect x="0" y="0" width="32" height="32"/>
</clipPath>
<g id="source-10" clip-path="url(#clip-1)">
<path fill="none" stroke-width="61.833401" stroke-linecap="butt" stroke-linejoin="miter" stroke="rgb(9.019608%, 0%, 40%)" stroke-opacity="1" stroke-miterlimit="4" d="M 677.380371 530 C 677.380371 549.40918 673.62793 568.55957 666.123047 586.416016 C 658.747559 604.272461 647.878418 620.576172 634.291992 634.162598 C 620.576172 647.878418 604.272461 658.747559 586.416016 666.123047 C 568.55957 673.62793 549.40918 677.380371 530 677.380371 C 510.720215 677.380371 491.44043 673.62793 473.583984 666.123047 C 455.727539 658.747559 439.553223 647.878418 425.837402 634.162598 C 412.121582 620.576172 401.252441 604.272461 393.876953 586.416016 C 386.501465 568.55957 382.619629 549.40918 382.619629 530 C 382.619629 510.59082 386.501465 491.44043 393.876953 473.583984 C 401.252441 455.727539 412.121582 439.423828 425.837402 425.837402 C 439.553223 412.121582 455.727539 401.252441 473.583984 393.876953 C 491.44043 386.37207 510.720215 382.619629 530 382.619629 C 549.40918 382.619629 568.55957 386.37207 586.416016 393.876953 C 604.272461 401.252441 620.576172 412.121582 634.291992 425.837402 C 647.878418 439.423828 658.747559 455.727539 666.123047 473.583984 C 673.62793 491.44043 677.380371 510.59082 677.380371 530 Z M 677.380371 530 " transform="matrix(0.0301887, 0, 0, 0.0301887, 0, 0)"/>
</g>
</defs>
<g mask="url(#mask-0)">
<use xlink:href="#source-6"/>
</g>
<g mask="url(#mask-1)">
<use xlink:href="#source-10"/>
</g>
</svg>
