<?xml version="1.0" encoding="UTF-8"?>
<svg xmlns="http://www.w3.org/2000/svg" xmlns:xlink="http://www.w3.org/1999/xlink" width="64" height="64" viewBox="0 0 64 64">
<defs>
<filter id="filter-remove-color" x="0%" y="0%" width="100%" height="100%">
<feColorMatrix color-interpolation-filters="sRGB" values="0 0 0 0 1 0 0 0 0 1 0 0 0 0 1 0 0 0 1 0" />
</filter>
<mask id="mask-0">
<g filter="url(#filter-remove-color)">
<rect x="-6.4" y="-6.4" width="76.8" height="76.8" fill="rgb(0%, 0%, 0%)" fill-opacity="0.873134"/>
</g>
</mask>
<clipPath id="clip-0">
<rect x="0" y="0" width="64" height="64"/>
</clipPath>
<g id="source-6" clip-path="url(#clip-0)">
<path fill-rule="nonzero" fill="rgb(67.45098%, 84.705882%, 95.294118%)" fill-opacity="1" d="M 13.832031 14.332031 C 12.5625 14.332031 11.242188 14.617188 10.183594 15.5 C 9.128906 16.378906 8.582031 17.824219 8.582031 19.101562 C 8.582031 19.75 8.726562 20.457031 9.027344 21.105469 C 8.78125 21.492188 8.648438 21.945312 8.648438 22.40625 L 8.648438 24.050781 C 8.648438 24.546875 8.800781 25.03125 9.082031 25.4375 C 9.367188 25.84375 9.765625 26.15625 10.230469 26.328125 C 10.832031 26.546875 11.445312 26.722656 12.070312 26.839844 C 12.699219 26.960938 13.332031 27.019531 13.960938 27.019531 C 15.058594 27.019531 16.15625 26.855469 17.136719 26.285156 C 17.167969 26.300781 17.199219 26.3125 17.230469 26.328125 C 17.832031 26.546875 18.445312 26.722656 19.070312 26.839844 C 19.699219 26.960938 20.332031 27.019531 20.964844 27.019531 C 22.300781 27.019531 23.644531 26.785156 24.765625 25.859375 C 24.765625 25.859375 24.765625 25.859375 24.769531 25.859375 C 25.886719 24.9375 26.394531 23.4375 26.394531 22.125 C 26.394531 21.316406 26.183594 20.417969 25.714844 19.65625 C 25.835938 19.363281 25.898438 19.046875 25.898438 18.730469 L 25.898438 17.132812 C 25.898438 16.597656 25.722656 16.078125 25.398438 15.652344 C 25.070312 15.230469 24.613281 14.925781 24.097656 14.785156 C 23.542969 14.640625 23 14.53125 22.460938 14.453125 C 22.457031 14.453125 22.449219 14.453125 22.445312 14.449219 C 21.902344 14.371094 21.367188 14.332031 20.832031 14.332031 C 19.789062 14.332031 18.714844 14.527344 17.777344 15.085938 C 17.566406 14.953125 17.335938 14.851562 17.097656 14.785156 C 16.542969 14.640625 16 14.53125 15.460938 14.453125 C 15.457031 14.453125 15.449219 14.453125 15.445312 14.449219 C 14.902344 14.371094 14.367188 14.332031 13.832031 14.332031 Z M 13.589844 23.898438 C 13.679688 23.945312 13.695312 23.96875 13.589844 23.898438 Z M 20.589844 23.898438 C 20.679688 23.945312 20.695312 23.96875 20.589844 23.898438 Z M 20.589844 23.898438 "/>
</g>
</defs>
<g mask="url(#mask-0)">
<use xlink:href="#source-6"/>
</g>
<path fill-rule="nonzero" fill="rgb(0%, 0%, 0%)" fill-opacity="1" d="M 13.832031 16.757812 C 12.921875 16.757812 12.222656 16.960938 11.738281 17.363281 C 11.253906 17.769531 11.007812 18.347656 11.007812 19.101562 C 11.007812 19.703125 11.183594 20.179688 11.53125 20.53125 C 11.882812 20.886719 12.433594 21.144531 13.1875 21.304688 L 13.945312 21.472656 C 14.402344 21.574219 14.707031 21.6875 14.859375 21.816406 C 15.015625 21.945312 15.089844 22.128906 15.089844 22.363281 C 15.089844 22.625 14.976562 22.828125 14.75 22.972656 C 14.523438 23.113281 14.199219 23.183594 13.777344 23.183594 C 13.355469 23.183594 12.921875 23.117188 12.46875 22.988281 C 12.019531 22.859375 11.558594 22.664062 11.074219 22.410156 L 11.074219 24.050781 C 11.558594 24.230469 12.039062 24.367188 12.519531 24.457031 C 13.003906 24.546875 13.484375 24.59375 13.960938 24.59375 C 14.976562 24.59375 15.730469 24.390625 16.222656 23.984375 C 16.71875 23.578125 16.96875 22.957031 16.96875 22.125 C 16.96875 21.492188 16.789062 21.003906 16.4375 20.660156 C 16.082031 20.316406 15.484375 20.058594 14.644531 19.890625 L 13.816406 19.722656 C 13.421875 19.644531 13.148438 19.546875 12.996094 19.433594 C 12.847656 19.320312 12.773438 19.160156 12.773438 18.960938 C 12.773438 18.691406 12.886719 18.488281 13.109375 18.359375 C 13.332031 18.234375 13.675781 18.171875 14.140625 18.171875 C 14.492188 18.171875 14.863281 18.21875 15.257812 18.3125 C 15.652344 18.40625 16.058594 18.546875 16.472656 18.730469 L 16.472656 17.132812 C 16.003906 17.007812 15.550781 16.917969 15.113281 16.855469 C 14.671875 16.792969 14.246094 16.757812 13.832031 16.757812 Z M 20.832031 16.757812 C 19.921875 16.757812 19.222656 16.960938 18.738281 17.363281 C 18.253906 17.769531 18.007812 18.347656 18.007812 19.101562 C 18.007812 19.703125 18.183594 20.179688 18.53125 20.53125 C 18.882812 20.886719 19.433594 21.144531 20.1875 21.304688 L 20.945312 21.472656 C 21.402344 21.574219 21.707031 21.6875 21.859375 21.816406 C 22.015625 21.945312 22.089844 22.128906 22.089844 22.363281 C 22.089844 22.625 21.980469 22.828125 21.753906 22.972656 C 21.527344 23.113281 21.199219 23.183594 20.777344 23.183594 C 20.359375 23.183594 19.921875 23.117188 19.472656 22.988281 C 19.023438 22.859375 18.558594 22.664062 18.074219 22.410156 L 18.074219 24.050781 C 18.558594 24.230469 19.039062 24.367188 19.519531 24.457031 C 20.003906 24.546875 20.484375 24.59375 20.964844 24.59375 C 21.980469 24.59375 22.730469 24.390625 23.226562 23.984375 C 23.71875 23.578125 23.96875 22.957031 23.96875 22.125 C 23.96875 21.492188 23.789062 21.003906 23.4375 20.660156 C 23.082031 20.316406 22.484375 20.058594 21.644531 19.890625 L 20.816406 19.722656 C 20.421875 19.644531 20.148438 19.546875 19.996094 19.433594 C 19.847656 19.320312 19.777344 19.160156 19.777344 18.960938 C 19.777344 18.691406 19.886719 18.488281 20.109375 18.359375 C 20.332031 18.234375 20.675781 18.171875 21.140625 18.171875 C 21.492188 18.171875 21.863281 18.21875 22.257812 18.3125 C 22.652344 18.40625 23.058594 18.546875 23.472656 18.730469 L 23.472656 17.132812 C 23.003906 17.007812 22.550781 16.917969 22.113281 16.855469 C 21.671875 16.792969 21.246094 16.757812 20.832031 16.757812 Z M 20.832031 16.757812 "/>
</svg>
