<?xml version="1.0" encoding="UTF-8"?>
<svg xmlns="http://www.w3.org/2000/svg" xmlns:xlink="http://www.w3.org/1999/xlink" width="32" height="32" viewBox="0 0 32 32">
<defs>
<filter id="filter-remove-color" x="0%" y="0%" width="100%" height="100%">
<feColorMatrix color-interpolation-filters="sRGB" values="0 0 0 0 1 0 0 0 0 1 0 0 0 0 1 0 0 0 1 0" />
</filter>
<mask id="mask-0">
<g filter="url(#filter-remove-color)">
<rect x="-3.2" y="-3.2" width="38.4" height="38.4" fill="rgb(0%, 0%, 0%)" fill-opacity="0.426087"/>
</g>
</mask>
<clipPath id="clip-0">
<path clip-rule="nonzero" d="M 4 10 L 27 10 L 27 32 L 4 32 Z M 4 10 "/>
</clipPath>
<clipPath id="clip-1">
<rect x="0" y="0" width="32" height="32"/>
</clipPath>
<g id="source-7" clip-path="url(#clip-1)">
<g clip-path="url(#clip-0)">
<path fill-rule="nonzero" fill="rgb(55.294118%, 55.294118%, 55.294118%)" fill-opacity="1" d="M 17.417969 10.089844 C 17.195312 10.082031 16.972656 10.144531 16.78125 10.265625 C 16.59375 10.390625 16.449219 10.570312 16.363281 10.777344 L 14.015625 16.628906 C 14.015625 16.632812 14.015625 16.632812 14.015625 16.632812 L 13.019531 19.148438 L 12.21875 21.167969 L 12.027344 21.417969 L 12.019531 21.425781 L 11.867188 21.625 C 11.863281 21.625 11.863281 21.628906 11.863281 21.628906 L 11.097656 22.621094 C 11.078125 22.648438 11.054688 22.679688 11.039062 22.707031 C 11.035156 22.710938 11.035156 22.710938 11.035156 22.710938 L 7.964844 26.707031 L 5.511719 26.707031 C 5.367188 26.707031 5.226562 26.738281 5.089844 26.792969 C 4.957031 26.847656 4.835938 26.929688 4.734375 27.03125 C 4.632812 27.132812 4.550781 27.253906 4.496094 27.386719 C 4.441406 27.519531 4.414062 27.664062 4.414062 27.808594 L 4.414062 29.1875 C 4.414062 29.332031 4.441406 29.472656 4.496094 29.605469 C 4.550781 29.738281 4.632812 29.859375 4.734375 29.960938 C 4.835938 30.066406 4.957031 30.144531 5.089844 30.199219 C 5.226562 30.257812 5.367188 30.285156 5.511719 30.285156 L 12.605469 30.285156 C 12.726562 30.488281 12.863281 30.679688 13.019531 30.851562 C 13.0625 30.898438 13.101562 30.941406 13.136719 30.972656 C 13.769531 31.609375 14.65625 32.011719 15.621094 32.011719 C 16.347656 32.011719 17.03125 31.78125 17.589844 31.402344 C 17.777344 31.277344 17.953125 31.132812 18.109375 30.972656 C 18.144531 30.941406 18.183594 30.898438 18.226562 30.851562 C 18.265625 30.808594 18.300781 30.765625 18.335938 30.722656 C 18.367188 30.6875 18.402344 30.644531 18.441406 30.589844 C 18.515625 30.492188 18.578125 30.390625 18.640625 30.285156 L 25.117188 30.285156 C 25.261719 30.285156 25.40625 30.257812 25.539062 30.199219 C 25.671875 30.144531 25.792969 30.066406 25.894531 29.960938 C 25.996094 29.859375 26.078125 29.738281 26.132812 29.605469 C 26.1875 29.472656 26.21875 29.332031 26.21875 29.1875 L 26.21875 27.808594 C 26.21875 27.664062 26.1875 27.519531 26.132812 27.386719 C 26.078125 27.253906 25.996094 27.132812 25.894531 27.03125 C 25.792969 26.929688 25.671875 26.847656 25.539062 26.792969 C 25.40625 26.738281 25.261719 26.707031 25.117188 26.707031 L 22.1875 26.707031 L 21.691406 24.359375 L 21.691406 24.351562 L 21.457031 23.226562 L 21.785156 17.980469 C 21.785156 17.980469 21.785156 17.976562 21.785156 17.972656 L 22.117188 12.109375 C 22.117188 12.089844 22.117188 12.066406 22.117188 12.046875 L 22.117188 12.042969 C 22.117188 12.015625 22.113281 11.984375 22.113281 11.953125 C 22.113281 11.945312 22.109375 11.941406 22.109375 11.933594 C 22.109375 11.929688 22.109375 11.925781 22.109375 11.921875 C 22.105469 11.890625 22.097656 11.859375 22.09375 11.828125 C 22.09375 11.828125 22.09375 11.828125 22.09375 11.824219 C 22.085938 11.789062 22.078125 11.753906 22.066406 11.722656 C 22.054688 11.6875 22.042969 11.652344 22.027344 11.617188 C 22.015625 11.585938 22 11.554688 21.984375 11.523438 C 21.980469 11.519531 21.980469 11.519531 21.980469 11.519531 C 21.980469 11.519531 21.980469 11.515625 21.980469 11.515625 C 21.96875 11.492188 21.953125 11.472656 21.941406 11.453125 C 21.929688 11.433594 21.914062 11.414062 21.902344 11.394531 C 21.898438 11.390625 21.898438 11.390625 21.898438 11.386719 C 21.894531 11.382812 21.890625 11.378906 21.886719 11.375 C 21.867188 11.351562 21.851562 11.332031 21.832031 11.308594 C 21.828125 11.308594 21.828125 11.304688 21.824219 11.304688 C 21.824219 11.300781 21.824219 11.300781 21.820312 11.296875 C 21.800781 11.273438 21.777344 11.253906 21.753906 11.234375 C 21.753906 11.230469 21.75 11.226562 21.75 11.226562 C 21.746094 11.222656 21.742188 11.21875 21.734375 11.21875 C 21.714844 11.199219 21.691406 11.179688 21.667969 11.160156 C 21.667969 11.160156 21.664062 11.160156 21.660156 11.15625 C 21.660156 11.15625 21.65625 11.152344 21.652344 11.152344 C 21.625 11.132812 21.597656 11.113281 21.570312 11.097656 C 21.542969 11.082031 21.511719 11.0625 21.480469 11.046875 C 21.476562 11.046875 21.476562 11.046875 21.472656 11.046875 C 21.472656 11.046875 21.46875 11.046875 21.46875 11.042969 C 21.4375 11.03125 21.402344 11.019531 21.371094 11.007812 C 21.335938 10.992188 21.296875 10.984375 21.261719 10.972656 L 21.117188 10.941406 L 21.109375 10.941406 L 17.636719 10.117188 C 17.566406 10.101562 17.492188 10.089844 17.417969 10.089844 Z M 18.886719 29.34375 C 18.886719 29.34375 18.914062 29.390625 18.921875 29.484375 L 18.917969 29.484375 C 18.910156 29.398438 18.886719 29.34375 18.886719 29.34375 Z M 18.886719 29.34375 "/>
</g>
</g>
<mask id="mask-1">
<g filter="url(#filter-remove-color)">
<rect x="-3.2" y="-3.2" width="38.4" height="38.4" fill="rgb(0%, 0%, 0%)" fill-opacity="0.426087"/>
</g>
</mask>
<clipPath id="clip-2">
<rect x="0" y="0" width="32" height="32"/>
</clipPath>
<g id="source-16" clip-path="url(#clip-2)">
<path fill-rule="nonzero" fill="rgb(0%, 0%, 0%)" fill-opacity="1" d="M 20.214844 11.863281 L 21.019531 12.046875 L 20.351562 23.328125 L 21.308594 27.847656 L 18.4375 27.84375 L 18.019531 22.765625 Z M 20.214844 11.863281 "/>
</g>
</defs>
<g mask="url(#mask-0)">
<use xlink:href="#source-7"/>
</g>
<path fill-rule="nonzero" fill="rgb(0%, 0%, 0%)" fill-opacity="1" d="M 12.734375 22.300781 L 7.890625 28.617188 L 13.207031 28.640625 C 13.285156 29.902344 14.34375 30.914062 15.625 30.914062 C 16.902344 30.914062 17.957031 29.914062 18.039062 28.65625 L 21.476562 28.671875 L 20.492188 23.988281 Z M 12.734375 22.300781 "/>
<path fill-rule="nonzero" fill="rgb(100%, 83.137255%, 0%)" fill-opacity="1" d="M 17.382812 11.191406 L 15.035156 17.042969 L 13.1875 21.714844 L 12.734375 22.304688 L 20.492188 23.988281 L 20.355469 23.328125 L 20.691406 17.914062 L 21.019531 12.050781 "/>
<path fill-rule="nonzero" fill="rgb(0%, 0%, 0%)" fill-opacity="1" d="M 14.042969 19.554688 L 13.1875 21.714844 L 11.96875 23.296875 L 20.742188 25.199219 L 20.355469 23.300781 L 20.511719 20.824219 "/>
<path fill="none" stroke-width="25" stroke-linecap="butt" stroke-linejoin="miter" stroke="rgb(0%, 0%, 0%)" stroke-opacity="1" stroke-miterlimit="4" d="M 99.899902 516.5625 L 455.319824 516.5625 " transform="matrix(0.0551724, 0, 0, 0.0551724, 0, 0)"/>
<path fill-rule="nonzero" fill="rgb(99.607843%, 99.607843%, 99.607843%)" fill-opacity="1" stroke-width="20.5723" stroke-linecap="round" stroke-linejoin="round" stroke="rgb(0%, 0%, 0%)" stroke-opacity="1" stroke-miterlimit="10" d="M 316.833496 516.420898 C 316.833496 525.341797 313.293457 533.837891 306.992188 540.13916 C 300.690918 546.44043 292.124023 549.980469 283.203125 549.980469 C 274.282227 549.980469 265.715332 546.44043 259.414062 540.13916 C 253.112793 533.837891 249.572754 525.341797 249.572754 516.420898 C 249.572754 507.5 253.112793 498.933105 259.414062 492.631836 C 265.715332 486.330566 274.282227 482.790527 283.203125 482.790527 C 292.124023 482.790527 300.690918 486.330566 306.992188 492.631836 C 313.293457 498.933105 316.833496 507.5 316.833496 516.420898 Z M 316.833496 516.420898 " transform="matrix(0.0551724, 0, 0, 0.0551724, 0, 0)"/>
<g mask="url(#mask-1)">
<use xlink:href="#source-16"/>
</g>
</svg>
