<?xml version="1.0" encoding="UTF-8"?>
<svg xmlns="http://www.w3.org/2000/svg" xmlns:xlink="http://www.w3.org/1999/xlink" width="12" height="12" viewBox="0 0 12 12" version="1.1">
<g id="surface1">
<path style=" stroke:none;fill-rule:nonzero;fill:rgb(99.607843%,99.607843%,99.607843%);fill-opacity:1;" d="M 6 2.617188 C 4.136719 2.617188 2.617188 4.136719 2.617188 6 C 2.617188 7.863281 4.136719 9.382812 6 9.382812 C 7.863281 9.382812 9.382812 7.863281 9.382812 6 C 9.382812 4.136719 7.863281 2.617188 6 2.617188 Z M 6 2.617188 "/>
<path style="fill:none;stroke-width:0.296658;stroke-linecap:butt;stroke-linejoin:miter;stroke:rgb(70.588237%,10.196079%,7.843138%);stroke-opacity:1;stroke-miterlimit:4;" d="M 8 11.802083 C 10.098958 11.802083 11.802083 10.098958 11.802083 8 C 11.802083 5.901042 10.098958 4.197917 8 4.197917 C 5.901042 4.197917 4.197917 5.901042 4.197917 8 C 4.197917 10.098958 5.901042 11.802083 8 11.802083 Z M 8 11.802083 " transform="matrix(0.75,0,0,0.75,0,0)"/>
<path style="fill-rule:nonzero;fill:rgb(70.588237%,10.196079%,7.843138%);fill-opacity:1;stroke-width:0.130677;stroke-linecap:butt;stroke-linejoin:miter;stroke:rgb(70.588237%,10.196079%,7.843138%);stroke-opacity:1;stroke-miterlimit:4;" d="M 4.734375 6.692708 L 7.119792 6.692708 L 8 7.598958 L 8.84375 6.692708 L 11.265625 6.692708 L 11.265625 9.317708 L 8.911458 9.317708 L 8.005208 10.244792 L 7.067708 9.317708 L 4.744792 9.317708 Z M 4.734375 6.692708 " transform="matrix(0.75,0,0,0.75,0,0)"/>
<path style="fill:none;stroke-width:0.130677;stroke-linecap:butt;stroke-linejoin:miter;stroke:rgb(99.607843%,99.607843%,99.607843%);stroke-opacity:1;stroke-miterlimit:4;" d="M 7.119792 9.1875 L 4.859375 9.1875 L 4.859375 6.822917 L 7.114583 6.822917 L 8 7.723958 L 8.848958 6.822917 L 11.140625 6.822917 L 11.140625 9.1875 L 8.859375 9.1875 " transform="matrix(0.75,0,0,0.75,0,0)"/>
<path style="fill:none;stroke-width:0.130677;stroke-linecap:butt;stroke-linejoin:miter;stroke:rgb(99.607843%,99.607843%,99.607843%);stroke-opacity:1;stroke-miterlimit:4;" d="M 8.859375 9.1875 L 8 10.067708 L 7.119792 9.1875 L 7.119792 9.010417 L 8 9.885417 L 8.859375 9.020833 L 8.859375 9.1875 " transform="matrix(0.75,0,0,0.75,0,0)"/>
</g>
</svg>
