<svg width="32" height="32" viewBox="0 0 580 580" fill="none" xmlns="http://www.w3.org/2000/svg">
<path opacity="0.426087" d="M157.344 131.438C151.922 131.574 146.766 133.816 142.969 137.688L123.687 157.344C121.766 159.301 120.249 161.617 119.223 164.161C118.197 166.704 117.682 169.425 117.708 172.168C117.734 174.91 118.301 177.621 119.375 180.144C120.449 182.668 122.01 184.955 123.969 186.875L245.344 305.844V483.188H233.031C230.29 483.187 227.575 483.727 225.042 484.776C222.51 485.825 220.208 487.363 218.27 489.301C216.331 491.24 214.794 493.541 213.745 496.074C212.696 498.607 212.156 501.321 212.156 504.063V529.063C212.156 531.804 212.696 534.518 213.745 537.051C214.794 539.584 216.331 541.885 218.27 543.824C220.208 545.762 222.51 547.3 225.042 548.349C227.575 549.398 230.29 549.938 233.031 549.938H333.437C336.179 549.938 338.893 549.398 341.426 548.349C343.959 547.3 346.26 545.762 348.199 543.824C350.137 541.885 351.675 539.584 352.724 537.051C353.773 534.518 354.313 531.804 354.312 529.063V504.063C354.313 501.321 353.773 498.607 352.724 496.074C351.675 493.541 350.137 491.24 348.199 489.301C346.26 487.363 343.959 485.825 341.426 484.776C338.893 483.727 336.179 483.187 333.437 483.188H320.312V309.063L444.969 186.875C448.915 182.999 451.161 177.714 451.213 172.183C451.266 166.652 449.121 161.326 445.25 157.375L426 137.719C422.128 133.769 416.846 131.517 411.315 131.458C405.783 131.4 400.455 133.539 396.5 137.406L284.5 247.156L172.5 137.406C170.503 135.446 168.132 133.908 165.528 132.882C162.924 131.857 160.141 131.366 157.344 131.438Z" fill="#8D8D8D"/>
<path d="M299.396 275.739H266.184V515.653H299.396V275.739Z" fill="#00DF0C"/>
<path d="M232.996 516.57H333.399" stroke="black" stroke-width="25"/>
<path d="M273.412 304.165L292.691 284.498L157.825 152.294L138.547 171.96L273.412 304.165Z" fill="#00DF0C"/>
<path d="M295.443 304.165L276.164 284.498L411.03 152.293L430.308 171.96L295.443 304.165Z" fill="#00DF0C"/>
</svg>
