<?xml version="1.0" encoding="UTF-8"?>
<svg xmlns="http://www.w3.org/2000/svg" xmlns:xlink="http://www.w3.org/1999/xlink" width="12" height="12" viewBox="0 0 12 12" version="1.1">
<g id="surface1">
<path style=" stroke:none;fill-rule:nonzero;fill:rgb(18.431373%,66.666669%,25.490198%);fill-opacity:1;" d="M 5.417969 9.792969 C 5.308594 9.636719 5.511719 9.578125 5.539062 9.152344 C 5.632812 7.566406 5.421875 3.734375 5.375 2.71875 C 5.328125 1.535156 6.6875 1.179688 6.761719 2.625 C 6.757812 3.246094 6.785156 7.46875 6.84375 9.125 C 6.859375 9.539062 7.09375 9.535156 7.09375 9.535156 Z M 5.417969 9.792969 "/>
<path style=" stroke:none;fill-rule:nonzero;fill:rgb(18.431373%,66.666669%,25.490198%);fill-opacity:1;" d="M 6.148438 5.757812 C 6.148438 5.757812 7.152344 6.355469 7.574219 5.515625 C 7.714844 5.238281 7.695312 4.519531 7.683594 3.957031 C 7.597656 3.359375 8.589844 2.824219 8.636719 4.003906 C 8.71875 5.070312 8.523438 5.824219 8.070312 6.269531 C 7.335938 6.988281 6.15625 6.953125 6.113281 6.5625 Z M 6.148438 5.757812 "/>
<path style=" stroke:none;fill-rule:nonzero;fill:rgb(18.431373%,66.666669%,25.490198%);fill-opacity:1;" d="M 6.09375 8.714844 C 6.09375 8.714844 4.210938 8.113281 3.925781 7.007812 C 3.847656 6.707031 3.757812 5.273438 3.746094 4.710938 C 3.660156 4.113281 4.648438 3.578125 4.699219 4.757812 C 4.78125 5.824219 4.613281 6.832031 4.84375 7.078125 C 5.546875 7.828125 6.15625 8.019531 6.113281 7.628906 Z M 6.09375 8.714844 "/>
<path style=" stroke:none;fill-rule:nonzero;fill:rgb(41.960785%,25.098041%,0%);fill-opacity:1;" d="M 3.847656 9.914062 C 3.847656 9.914062 4.800781 9.320312 4.925781 9.394531 C 5.050781 9.464844 5.230469 9.5 5.394531 9.445312 C 5.554688 9.394531 5.714844 9.410156 5.789062 9.410156 C 5.808594 9.410156 7.054688 9.503906 7.390625 9.394531 L 8.484375 10.003906 C 8.484375 10.003906 8.613281 10.292969 7.011719 10.308594 C 6.671875 10.3125 4.640625 10.273438 4.550781 10.253906 C 3.972656 10.148438 3.847656 9.914062 3.847656 9.914062 Z M 3.847656 9.914062 "/>
</g>
</svg>
