<?xml version="1.0" encoding="UTF-8"?>
<svg xmlns="http://www.w3.org/2000/svg" xmlns:xlink="http://www.w3.org/1999/xlink" width="12" height="12" viewBox="0 0 12 12">
<path fill-rule="nonzero" fill="rgb(33.333333%, 75.294118%, 39.607843%)" fill-opacity="1" d="M 6.199219 5.335938 C 6.199219 5.335938 6.199219 7.664062 7.304688 7.664062 C 7.671875 7.664062 7.871094 7.363281 7.871094 7.363281 C 7.984375 7.632812 8.210938 7.796875 8.464844 7.796875 C 8.832031 7.796875 9.117188 7.464844 9.117188 7.066406 C 9.117188 6.800781 9.003906 6.566406 8.832031 6.433594 C 8.945312 6.433594 9.398438 6.199219 9.398438 5.632812 C 9.398438 5.265625 9.144531 4.867188 8.804688 4.835938 C 8.75 4.46875 8.492188 4.203125 8.152344 4.203125 L 8.125 4.203125 C 8.210938 4.070312 8.292969 3.902344 8.292969 3.734375 C 8.292969 3.335938 8.011719 3.003906 7.644531 3.003906 C 7.472656 3.003906 7.304688 3.070312 7.191406 3.203125 C 7.105469 2.871094 6.851562 2.636719 6.566406 2.636719 L 6.480469 2.636719 C 6.398438 2.269531 6.085938 2.003906 5.746094 2.003906 C 5.488281 2.003906 5.261719 2.136719 5.121094 2.371094 C 5.066406 2.335938 4.980469 2.335938 4.921875 2.335938 C 4.554688 2.335938 4.242188 2.671875 4.242188 3.070312 L 4.242188 3.136719 C 4.128906 3.035156 3.988281 2.9375 3.820312 2.9375 C 3.476562 2.9375 3.167969 3.269531 3.167969 3.703125 C 3.167969 3.769531 3.167969 3.835938 3.195312 3.902344 C 2.855469 3.9375 2.601562 4.234375 2.601562 4.636719 C 2.601562 5.035156 2.882812 5.367188 3.25 5.367188 C 3.308594 5.367188 3.363281 5.367188 3.394531 5.335938 C 3.25 5.5 3.167969 5.734375 3.167969 6 L 3.167969 6.035156 C 2.855469 6.101562 2.601562 6.398438 2.601562 6.765625 C 2.601562 7.164062 2.882812 7.5 3.25 7.5 C 3.308594 7.5 3.363281 7.5 3.421875 7.464844 C 3.449219 7.832031 3.734375 8.097656 4.074219 8.097656 C 4.300781 8.097656 4.527344 7.964844 4.640625 7.730469 C 5.363281 7.792969 5.964844 6.910156 6.136719 6.761719 C 6.101562 6.355469 6.136719 5.988281 6.199219 5.335938 Z M 6.199219 5.335938 "/>
<path fill-rule="nonzero" fill="rgb(30.196078%, 21.568627%, 7.058824%)" fill-opacity="1" d="M 5.601562 7.53125 C 5.59375 7.785156 5.574219 8.0625 5.574219 8.363281 C 5.519531 9.828125 4.808594 9.195312 4.582031 9.996094 L 7.699219 9.996094 C 7.558594 9.628906 6.992188 9.863281 6.851562 9.03125 C 6.792969 8.664062 6.738281 8.097656 6.738281 7.964844 C 6.453125 7.671875 6.277344 7.34375 6.199219 6.867188 "/>
</svg>
