<?xml version="1.0" encoding="UTF-8"?>
<svg xmlns="http://www.w3.org/2000/svg" xmlns:xlink="http://www.w3.org/1999/xlink" width="32" height="32" viewBox="0 0 32 32">
<path fill-rule="nonzero" fill="rgb(57.647059%, 0%, 57.647059%)" fill-opacity="1" d="M 19.316406 8.59375 C 19.292969 8.59375 19.269531 8.597656 19.246094 8.597656 L 5.308594 8.597656 L 5.308594 15.21875 L 22.90625 15.21875 L 19.984375 9.074219 C 19.847656 8.789062 19.65625 8.597656 19.316406 8.59375 Z M 5.957031 10.609375 L 9.035156 10.609375 L 9.035156 14.109375 L 5.957031 14.109375 Z M 9.84375 10.609375 L 12.917969 10.609375 L 12.917969 14.109375 L 9.84375 14.109375 Z M 14.671875 10.609375 L 18.796875 10.609375 L 20.371094 14.109375 L 16.246094 14.109375 Z M 14.671875 10.609375 "/>
<path fill-rule="nonzero" fill="rgb(57.647059%, 0%, 57.647059%)" fill-opacity="1" d="M 5.40625 16.539062 L 5.40625 23.945312 L 21.382812 23.945312 C 22.175781 23.925781 24.464844 23.265625 25.523438 21.6875 L 28.761719 16.539062 Z M 21.078125 17.035156 C 22.519531 17.035156 23.707031 18.222656 23.707031 19.664062 C 23.707031 21.109375 22.519531 22.292969 21.078125 22.292969 C 19.632812 22.292969 18.449219 21.109375 18.449219 19.664062 C 18.449219 18.222656 19.632812 17.035156 21.078125 17.035156 Z M 21.078125 18.535156 C 20.445312 18.535156 19.949219 19.03125 19.949219 19.664062 C 19.949219 20.296875 20.445312 20.792969 21.078125 20.792969 C 21.710938 20.792969 22.207031 20.296875 22.207031 19.664062 C 22.207031 19.03125 21.710938 18.535156 21.078125 18.535156 Z M 21.078125 18.535156 "/>
<path fill-rule="nonzero" fill="rgb(57.647059%, 0%, 57.647059%)" fill-opacity="1" d="M 6.144531 14.195312 C 6.144531 14.195312 6.144531 14.011719 6.144531 13.992188 C 6.144531 13.730469 6.574219 13.488281 7.039062 13.402344 C 7.039062 13.402344 7.179688 13.332031 7.144531 13.199219 C 6.996094 13.03125 6.964844 12.855469 6.964844 12.855469 C 6.941406 12.84375 6.90625 12.824219 6.882812 12.796875 C 6.832031 12.730469 6.78125 12.585938 6.792969 12.488281 C 6.804688 12.382812 6.832031 12.417969 6.835938 12.398438 C 6.742188 12.175781 6.789062 11.902344 6.90625 11.699219 C 7.148438 11.296875 7.671875 11.40625 7.742188 11.59375 C 8.234375 11.507812 8.21875 12.203125 8.152344 12.394531 C 8.152344 12.394531 8.199219 12.402344 8.1875 12.578125 C 8.179688 12.753906 8.019531 12.875 8.019531 12.875 C 8.015625 12.921875 7.949219 13.070312 7.847656 13.199219 C 7.761719 13.363281 7.941406 13.402344 7.941406 13.402344 C 8.40625 13.488281 8.828125 13.730469 8.828125 13.992188 C 8.828125 14.011719 8.828125 14.195312 8.828125 14.195312 C 8.828125 14.367188 8.125 14.539062 7.488281 14.539062 C 6.851562 14.539062 6.144531 14.480469 6.144531 14.195312 Z M 6.144531 14.195312 "/>
<path fill-rule="nonzero" fill="rgb(57.647059%, 0%, 57.647059%)" fill-opacity="1" d="M 10.015625 14.195312 C 10.015625 14.195312 10.015625 14.011719 10.015625 13.992188 C 10.015625 13.730469 10.445312 13.488281 10.910156 13.402344 C 10.910156 13.402344 11.050781 13.332031 11.019531 13.199219 C 10.871094 13.03125 10.839844 12.855469 10.839844 12.855469 C 10.8125 12.84375 10.777344 12.824219 10.753906 12.796875 C 10.703125 12.730469 10.65625 12.585938 10.664062 12.488281 C 10.675781 12.382812 10.707031 12.417969 10.710938 12.398438 C 10.617188 12.175781 10.660156 11.902344 10.78125 11.699219 C 11.019531 11.296875 11.542969 11.40625 11.613281 11.59375 C 12.109375 11.507812 12.089844 12.203125 12.023438 12.394531 C 12.023438 12.394531 12.070312 12.402344 12.058594 12.578125 C 12.050781 12.753906 11.890625 12.875 11.890625 12.875 C 11.886719 12.921875 11.824219 13.070312 11.71875 13.199219 C 11.636719 13.363281 11.8125 13.402344 11.8125 13.402344 C 12.277344 13.488281 12.703125 13.730469 12.703125 13.992188 C 12.703125 14.011719 12.703125 14.195312 12.703125 14.195312 C 12.703125 14.367188 12 14.539062 11.363281 14.539062 C 10.726562 14.539062 10.015625 14.480469 10.015625 14.195312 Z M 10.015625 14.195312 "/>
</svg>
