<?xml version="1.0" encoding="UTF-8"?>
<svg xmlns="http://www.w3.org/2000/svg" xmlns:xlink="http://www.w3.org/1999/xlink" width="32" height="32" viewBox="0 0 32 32">
<defs>
<filter id="filter-remove-color" x="0%" y="0%" width="100%" height="100%">
<feColorMatrix color-interpolation-filters="sRGB" values="0 0 0 0 1 0 0 0 0 1 0 0 0 0 1 0 0 0 1 0" />
</filter>
<mask id="mask-0">
<g filter="url(#filter-remove-color)">
<rect x="-3.2" y="-3.2" width="38.4" height="38.4" fill="rgb(0%, 0%, 0%)" fill-opacity="0.617391"/>
</g>
</mask>
<clipPath id="clip-0">
<rect x="0" y="0" width="32" height="32"/>
</clipPath>
<g id="source-6" clip-path="url(#clip-0)">
<path fill-rule="nonzero" fill="rgb(99.607843%, 99.607843%, 99.607843%)" fill-opacity="1" d="M 28.269531 16 C 28.269531 19.28125 26.976562 22.433594 24.675781 24.753906 C 22.375 27.074219 19.253906 28.378906 16 28.378906 C 12.746094 28.378906 9.625 27.074219 7.324219 24.753906 C 5.023438 22.433594 3.730469 19.28125 3.730469 16 C 3.730469 12.714844 5.023438 9.566406 7.324219 7.246094 C 9.625 4.925781 12.746094 3.621094 16 3.621094 C 19.253906 3.621094 22.375 4.925781 24.675781 7.246094 C 26.976562 9.566406 28.269531 12.714844 28.269531 16 Z M 28.269531 16 "/>
</g>
</defs>
<g mask="url(#mask-0)">
<use xlink:href="#source-6"/>
</g>
<path fill="none" stroke-width="27.042999" stroke-linecap="round" stroke-linejoin="miter" stroke="rgb(7.058824%, 30.196078%, 78.431373%)" stroke-opacity="1" stroke-miterlimit="4" d="M 512.385254 290 C 512.385254 349.472656 488.950195 406.608887 447.248535 448.664551 C 405.546875 490.720215 348.977051 514.367676 290 514.367676 C 231.022949 514.367676 174.453125 490.720215 132.751465 448.664551 C 91.049805 406.608887 67.614746 349.472656 67.614746 290 C 67.614746 230.456543 91.049805 173.391113 132.751465 131.335449 C 174.453125 89.279785 231.022949 65.632324 290 65.632324 C 348.977051 65.632324 405.546875 89.279785 447.248535 131.335449 C 488.950195 173.391113 512.385254 230.456543 512.385254 290 Z M 512.385254 290 " transform="matrix(0.0551724, 0, 0, 0.0551724, 0, 0)"/>
<path fill-rule="nonzero" fill="rgb(0%, 0%, 0%)" fill-opacity="1" d="M 13.625 13.207031 C 13.542969 13.210938 13.460938 13.269531 13.398438 13.375 C 12.871094 14.226562 12.011719 14.570312 11.484375 14.570312 C 11.414062 14.570312 11.335938 14.5625 11.257812 14.550781 C 11.140625 15.136719 10.980469 15.636719 10.820312 16.066406 C 11.058594 16.136719 11.285156 16.167969 11.484375 16.167969 C 12.085938 16.167969 12.929688 15.898438 13.640625 14.972656 C 14.347656 15.902344 15.195312 16.167969 15.792969 16.167969 C 16.394531 16.167969 17.238281 15.898438 17.949219 14.972656 C 18.65625 15.902344 19.503906 16.167969 20.101562 16.167969 C 20.394531 16.167969 20.742188 16.105469 21.105469 15.933594 C 20.929688 15.527344 20.753906 15.046875 20.609375 14.484375 C 20.425781 14.542969 20.25 14.570312 20.101562 14.570312 C 19.574219 14.570312 18.714844 14.226562 18.1875 13.375 C 18.121094 13.265625 18.035156 13.203125 17.949219 13.203125 C 17.863281 13.203125 17.777344 13.265625 17.707031 13.375 C 17.179688 14.226562 16.320312 14.570312 15.792969 14.570312 C 15.265625 14.570312 14.40625 14.226562 13.878906 13.375 C 13.808594 13.261719 13.714844 13.199219 13.625 13.207031 Z M 13.625 13.207031 "/>
<path fill="none" stroke-width="19.605499" stroke-linecap="round" stroke-linejoin="round" stroke="rgb(0%, 0%, 0%)" stroke-opacity="1" stroke-miterlimit="4" d="M 292.69043 452.416992 C 342.321777 418.149414 425.725098 412.060547 426.503906 333.684082 C 426.85791 298.566895 405.97168 287.521973 398.679199 244.050293 C 395.422363 224.226074 413.405762 187.480469 413.405762 187.480469 L 378.78418 161.425781 C 358.039551 174.523926 319.099121 182.453613 286.38916 155.478516 C 254.741211 183.728027 215.517578 177.285156 194.277344 164.89502 L 160.788574 192.294922 C 160.788574 192.294922 180.258789 228.261719 177.709961 248.227539 C 172.258301 291.911621 151.796875 303.735352 153.637695 338.852539 C 157.531738 417.087402 241.147461 420.131836 292.124023 452.558594 " transform="matrix(0.0551724, 0, 0, 0.0551724, 0, 0)"/>
<path fill-rule="nonzero" fill="rgb(0%, 0%, 0%)" fill-opacity="1" d="M 13.625 16.585938 C 13.542969 16.589844 13.460938 16.652344 13.398438 16.757812 C 12.871094 17.609375 12.011719 17.949219 11.484375 17.949219 C 11.144531 17.949219 10.664062 17.808594 10.226562 17.476562 C 10.078125 17.855469 10.019531 18.136719 10.042969 18.613281 C 10.042969 18.617188 10.042969 18.617188 10.042969 18.617188 C 10.050781 18.785156 10.066406 18.941406 10.089844 19.089844 C 10.585938 19.433594 11.089844 19.550781 11.484375 19.550781 C 12.085938 19.550781 12.929688 19.28125 13.640625 18.355469 C 14.347656 19.28125 15.195312 19.550781 15.792969 19.550781 C 16.394531 19.550781 17.238281 19.28125 17.949219 18.355469 C 18.65625 19.28125 19.503906 19.550781 20.101562 19.550781 C 20.617188 19.550781 21.316406 19.351562 21.949219 18.707031 C 21.957031 18.609375 21.960938 18.503906 21.960938 18.394531 C 21.964844 17.882812 21.882812 17.597656 21.691406 17.179688 C 21.183594 17.722656 20.53125 17.949219 20.101562 17.949219 C 19.574219 17.949219 18.714844 17.609375 18.1875 16.757812 C 18.121094 16.644531 18.035156 16.585938 17.949219 16.585938 C 17.863281 16.585938 17.777344 16.644531 17.707031 16.757812 C 17.179688 17.609375 16.320312 17.949219 15.792969 17.949219 C 15.265625 17.949219 14.40625 17.609375 13.878906 16.757812 C 13.808594 16.640625 13.714844 16.578125 13.625 16.585938 Z M 13.625 16.585938 "/>
<path fill-rule="nonzero" fill="rgb(0%, 0%, 0%)" fill-opacity="1" d="M 13.625 19.867188 C 13.542969 19.875 13.460938 19.933594 13.398438 20.039062 C 12.945312 20.773438 12.25 21.128906 11.726562 21.214844 C 11.832031 21.273438 11.9375 21.332031 12.054688 21.390625 C 12.441406 21.59375 12.882812 21.78125 13.355469 21.96875 C 13.449219 21.871094 13.546875 21.757812 13.640625 21.636719 C 13.894531 21.972656 14.167969 22.222656 14.441406 22.402344 C 14.734375 22.519531 15.03125 22.648438 15.332031 22.78125 C 15.496094 22.816406 15.652344 22.832031 15.792969 22.832031 C 16.394531 22.832031 17.238281 22.5625 17.949219 21.636719 C 18.070312 21.800781 18.203125 21.945312 18.332031 22.066406 C 18.96875 21.785156 19.566406 21.527344 20.070312 21.238281 C 20.070312 21.234375 20.074219 21.234375 20.078125 21.234375 C 19.546875 21.222656 18.707031 20.878906 18.1875 20.039062 C 18.121094 19.929688 18.035156 19.867188 17.949219 19.867188 C 17.863281 19.867188 17.777344 19.929688 17.707031 20.039062 C 17.179688 20.890625 16.320312 21.234375 15.792969 21.234375 C 15.265625 21.234375 14.40625 20.890625 13.878906 20.039062 C 13.808594 19.925781 13.714844 19.863281 13.625 19.867188 Z M 13.625 19.867188 "/>
</svg>
