<?xml version="1.0" encoding="UTF-8"?>
<svg xmlns="http://www.w3.org/2000/svg" xmlns:xlink="http://www.w3.org/1999/xlink" width="12" height="12" viewBox="0 0 12 12" version="1.1">
<defs>
<filter id="alpha" filterUnits="objectBoundingBox" x="0%" y="0%" width="100%" height="100%">
  <feColorMatrix type="matrix" in="SourceGraphic" values="0 0 0 0 1 0 0 0 0 1 0 0 0 0 1 0 0 0 1 0"/>
</filter>
<mask id="mask0">
  <g filter="url(#alpha)">
<rect x="0" y="0" width="12" height="12" style="fill:rgb(0%,0%,0%);fill-opacity:0.426087;stroke:none;"/>
  </g>
</mask>
<clipPath id="clip1">
  <rect x="0" y="0" width="12" height="12"/>
</clipPath>
<g id="surface5" clip-path="url(#clip1)">
<path style=" stroke:none;fill-rule:nonzero;fill:rgb(67.450982%,84.705883%,95.294118%);fill-opacity:1;" d="M 4.695312 4.101562 C 4.722656 4.101562 4.433594 4.160156 4.457031 4.152344 C 4.484375 4.140625 4.238281 4.304688 4.257812 4.285156 C 4.277344 4.265625 4.113281 4.511719 4.125 4.488281 C 4.132812 4.460938 4.074219 4.75 4.074219 4.722656 L 4.074219 10.015625 L 3.921875 10.015625 C 3.816406 10.015625 3.707031 10.058594 3.628906 10.136719 C 3.554688 10.210938 3.507812 10.320312 3.507812 10.425781 L 3.507812 10.945312 C 3.507812 11.054688 3.554688 11.160156 3.628906 11.238281 C 3.707031 11.3125 3.816406 11.359375 3.921875 11.359375 L 4.730469 11.359375 C 4.960938 11.746094 5.378906 12.003906 5.859375 12.003906 C 6.335938 12.003906 6.757812 11.746094 6.988281 11.359375 L 7.792969 11.359375 C 7.902344 11.359375 8.011719 11.3125 8.085938 11.238281 C 8.164062 11.160156 8.207031 11.054688 8.207031 10.945312 L 8.207031 10.425781 C 8.207031 10.320312 8.164062 10.210938 8.085938 10.136719 C 8.011719 10.058594 7.902344 10.015625 7.792969 10.015625 L 7.644531 10.015625 L 7.644531 4.722656 C 7.644531 4.75 7.585938 4.460938 7.59375 4.488281 C 7.605469 4.511719 7.441406 4.265625 7.460938 4.285156 C 7.480469 4.304688 7.234375 4.140625 7.257812 4.152344 C 7.285156 4.160156 6.996094 4.101562 7.023438 4.101562 Z M 4.695312 4.101562 "/>
</g>
<mask id="mask1">
  <g filter="url(#alpha)">
<rect x="0" y="0" width="12" height="12" style="fill:rgb(0%,0%,0%);fill-opacity:0.772;stroke:none;"/>
  </g>
</mask>
<clipPath id="clip2">
  <rect x="0" y="0" width="12" height="12"/>
</clipPath>
<g id="surface8" clip-path="url(#clip2)">
<path style="fill:none;stroke-width:20;stroke-linecap:butt;stroke-linejoin:round;stroke:rgb(0%,0%,0%);stroke-opacity:1;stroke-miterlimit:4;" d="M 226.940104 512.408854 L 226.940104 229.583333 L 339.466146 229.583333 L 339.466146 514.863281 " transform="matrix(0.0206897,0,0,0.0206897,0,0)"/>
</g>
</defs>
<g id="surface1">
<use xlink:href="#surface5" mask="url(#mask0)"/>
<path style=" stroke:none;fill-rule:nonzero;fill:rgb(74.117649%,74.117649%,74.117649%);fill-opacity:1;" d="M 6.824219 4.902344 L 4.894531 4.902344 L 4.894531 10.613281 L 6.824219 10.613281 Z M 6.824219 4.902344 "/>
<path style="fill:none;stroke-width:25;stroke-linecap:butt;stroke-linejoin:miter;stroke:rgb(0%,0%,0%);stroke-opacity:1;stroke-miterlimit:4;" d="M 189.557292 516.5625 L 376.848958 516.5625 " transform="matrix(0.0206897,0,0,0.0206897,0,0)"/>
<path style="fill-rule:nonzero;fill:rgb(99.607843%,99.607843%,99.607843%);fill-opacity:1;stroke-width:20.5723;stroke-linecap:round;stroke-linejoin:round;stroke:rgb(0%,0%,0%);stroke-opacity:1;stroke-miterlimit:10;" d="M 316.809896 516.373698 C 316.809896 525.247396 313.222656 533.932292 306.992188 540.16276 C 300.572917 546.393229 292.076823 549.980469 283.203125 549.980469 C 274.329427 549.980469 265.644531 546.393229 259.414062 540.16276 C 253.183594 533.932292 249.596354 525.247396 249.596354 516.373698 C 249.596354 507.5 253.183594 499.003906 259.414062 492.584635 C 265.644531 486.354167 274.329427 482.766927 283.203125 482.766927 C 292.076823 482.766927 300.572917 486.354167 306.992188 492.584635 C 313.222656 499.003906 316.809896 507.5 316.809896 516.373698 Z M 316.809896 516.373698 " transform="matrix(0.0206897,0,0,0.0206897,0,0)"/>
<use xlink:href="#surface8" mask="url(#mask1)"/>
</g>
</svg>
