<?xml version="1.0" encoding="UTF-8"?>
<svg xmlns="http://www.w3.org/2000/svg" xmlns:xlink="http://www.w3.org/1999/xlink" width="12" height="12" viewBox="0 0 12 12" version="1.1">
<defs>
<filter id="alpha" filterUnits="objectBoundingBox" x="0%" y="0%" width="100%" height="100%">
  <feColorMatrix type="matrix" in="SourceGraphic" values="0 0 0 0 1 0 0 0 0 1 0 0 0 0 1 0 0 0 1 0"/>
</filter>
<mask id="mask0">
  <g filter="url(#alpha)">
<rect x="0" y="0" width="12" height="12" style="fill:rgb(0%,0%,0%);fill-opacity:0.372;stroke:none;"/>
  </g>
</mask>
<clipPath id="clip1">
  <rect x="0" y="0" width="12" height="12"/>
</clipPath>
<g id="surface5" clip-path="url(#clip1)">
<path style=" stroke:none;fill-rule:nonzero;fill:rgb(89.411765%,89.411765%,89.411765%);fill-opacity:1;" d="M 4.265625 3.808594 C 4.007812 3.808594 3.808594 4.007812 3.808594 4.265625 L 3.808594 7.734375 C 3.808594 7.992188 4.007812 8.191406 4.265625 8.191406 L 7.734375 8.191406 C 7.992188 8.191406 8.191406 7.992188 8.191406 7.734375 L 8.191406 4.265625 C 8.191406 4.007812 7.992188 3.808594 7.734375 3.808594 Z M 4.71875 4.71875 L 7.28125 4.71875 L 7.28125 7.28125 L 4.71875 7.28125 Z M 4.71875 4.71875 "/>
</g>
</defs>
<g id="surface1">
<use xlink:href="#surface5" mask="url(#mask0)"/>
<path style="fill:none;stroke-width:21.4266;stroke-linecap:round;stroke-linejoin:miter;stroke:rgb(0%,0%,0%);stroke-opacity:1;stroke-miterlimit:4;" d="M 683.203125 376.796875 L 376.796875 376.796875 L 376.796875 683.203125 L 683.203125 683.203125 Z M 683.203125 376.796875 " transform="matrix(0.0113208,0,0,0.0113208,0,0)"/>
</g>
</svg>
