<?xml version="1.0" encoding="UTF-8"?>
<svg xmlns="http://www.w3.org/2000/svg" xmlns:xlink="http://www.w3.org/1999/xlink" width="12" height="12" viewBox="0 0 12 12" version="1.1">
<g id="surface1">
<path style=" stroke:none;fill-rule:nonzero;fill:rgb(38.039216%,38.039216%,38.039216%);fill-opacity:1;" d="M 8.132812 1.453125 L 7.570312 2.597656 C 7.675781 2.640625 7.777344 2.691406 7.875 2.746094 L 8.4375 1.605469 C 8.40625 1.390625 8.285156 1.390625 8.132812 1.453125 Z M 8.132812 1.453125 "/>
<path style=" stroke:none;fill-rule:nonzero;fill:rgb(38.039216%,38.039216%,38.039216%);fill-opacity:1;" d="M 10.878906 4.519531 C 10.976562 4.382812 10.917969 4.230469 10.765625 4.210938 L 9.578125 4.648438 C 9.621094 4.753906 9.695312 4.96875 9.695312 4.96875 C 9.695312 4.96875 10.003906 4.855469 10.878906 4.519531 Z M 10.878906 4.519531 "/>
<path style=" stroke:none;fill-rule:nonzero;fill:rgb(38.039216%,38.039216%,38.039216%);fill-opacity:1;" d="M 9.238281 2.144531 L 8.410156 3.105469 C 8.5 3.175781 8.582031 3.25 8.667969 3.328125 L 9.496094 2.367188 C 9.496094 2.1875 9.410156 2.113281 9.238281 2.144531 Z M 9.238281 2.144531 "/>
<path style=" stroke:none;fill-rule:nonzero;fill:rgb(38.039216%,38.039216%,38.039216%);fill-opacity:1;" d="M 10.140625 3.089844 L 9.097656 3.808594 C 9.164062 3.898438 9.230469 3.992188 9.289062 4.089844 L 10.332031 3.371094 C 10.402344 3.132812 10.273438 3.109375 10.140625 3.089844 Z M 10.140625 3.089844 "/>
<path style=" stroke:none;fill-rule:nonzero;fill:rgb(16.078432%,16.078432%,16.078432%);fill-opacity:1;" d="M 7.570312 2.597656 C 8.652344 3.117188 9.339844 3.894531 9.695312 4.96875 C 9.890625 4.894531 9.84375 4.910156 10.003906 4.855469 C 9.640625 3.710938 8.796875 2.789062 7.714844 2.304688 C 7.65625 2.425781 7.617188 2.488281 7.570312 2.597656 Z M 7.570312 2.597656 "/>
</g>
</svg>
