<?xml version="1.0" encoding="UTF-8"?>
<svg xmlns="http://www.w3.org/2000/svg" xmlns:xlink="http://www.w3.org/1999/xlink" width="24" height="24" viewBox="0 0 24 24">
<defs>
<filter id="filter-remove-color" x="0%" y="0%" width="100%" height="100%">
<feColorMatrix color-interpolation-filters="sRGB" values="0 0 0 0 1 0 0 0 0 1 0 0 0 0 1 0 0 0 1 0" />
</filter>
<mask id="mask-0">
<g filter="url(#filter-remove-color)">
<rect x="-2.4" y="-2.4" width="28.8" height="28.8" fill="rgb(0%, 0%, 0%)" fill-opacity="0.426087"/>
</g>
</mask>
<clipPath id="clip-0">
<rect x="0" y="0" width="24" height="24"/>
</clipPath>
<g id="source-6" clip-path="url(#clip-0)">
<path fill-rule="nonzero" fill="rgb(67.45098%, 84.705882%, 95.294118%)" fill-opacity="1" d="M 14.710938 2.46875 C 12.101562 2.46875 9.960938 4.605469 9.960938 7.214844 C 9.960938 9.050781 11.019531 10.652344 12.558594 11.441406 L 10.554688 19.769531 C 10.523438 19.894531 10.519531 20.023438 10.539062 20.148438 C 10.558594 20.277344 10.605469 20.398438 10.671875 20.507812 C 10.742188 20.617188 10.828125 20.710938 10.933594 20.785156 C 11.039062 20.859375 11.15625 20.914062 11.28125 20.941406 L 12.257812 21.167969 C 12.386719 21.195312 12.515625 21.199219 12.644531 21.175781 C 12.773438 21.152344 12.894531 21.105469 13.003906 21.035156 C 13.113281 20.964844 13.207031 20.875 13.28125 20.765625 C 13.355469 20.65625 13.40625 20.535156 13.429688 20.410156 L 15.113281 11.941406 C 17.535156 11.734375 19.457031 9.6875 19.457031 7.214844 C 19.457031 4.605469 17.316406 2.46875 14.710938 2.46875 Z M 14.710938 5.238281 C 15.820312 5.238281 16.683594 6.101562 16.683594 7.214844 C 16.683594 8.324219 15.820312 9.191406 14.710938 9.191406 C 13.601562 9.191406 12.734375 8.324219 12.734375 7.214844 C 12.734375 6.101562 13.597656 5.238281 14.710938 5.238281 Z M 14.710938 5.238281 "/>
</g>
</defs>
<g mask="url(#mask-0)">
<use xlink:href="#source-6"/>
</g>
<path fill-rule="nonzero" fill="rgb(0%, 0%, 0%)" fill-opacity="1" d="M 13.839844 10.273438 L 11.496094 19.992188 L 12.476562 20.214844 L 14.421875 10.410156 Z M 13.839844 10.273438 "/>
<path fill="none" stroke-width="20" stroke-linecap="round" stroke-linejoin="miter" stroke="rgb(0%, 0%, 0%)" stroke-opacity="1" stroke-miterlimit="4" d="M 436.699219 174.264323 C 436.699219 195.78776 428.108724 216.461589 412.910156 231.660156 C 397.711589 246.953125 377.03776 255.449219 355.514323 255.449219 C 333.896484 255.449219 313.222656 246.953125 298.024089 231.660156 C 282.825521 216.461589 274.235026 195.78776 274.235026 174.264323 C 274.235026 152.740885 282.825521 132.067057 298.024089 116.774089 C 313.222656 101.575521 333.896484 92.985026 355.514323 92.985026 C 377.03776 92.985026 397.711589 101.575521 412.910156 116.774089 C 428.108724 132.067057 436.699219 152.740885 436.699219 174.264323 Z M 436.699219 174.264323 " transform="matrix(0.0413793, 0, 0, 0.0413793, 0, 0)"/>
</svg>
