<?xml version="1.0" encoding="UTF-8"?>
<svg xmlns="http://www.w3.org/2000/svg" xmlns:xlink="http://www.w3.org/1999/xlink" width="32" height="32" viewBox="0 0 32 32">
<defs>
<filter id="filter-remove-color" x="0%" y="0%" width="100%" height="100%">
<feColorMatrix color-interpolation-filters="sRGB" values="0 0 0 0 1 0 0 0 0 1 0 0 0 0 1 0 0 0 1 0" />
</filter>
<mask id="mask-0">
<g filter="url(#filter-remove-color)">
<rect x="-3.2" y="-3.2" width="38.4" height="38.4" fill="rgb(0%, 0%, 0%)" fill-opacity="0.426087"/>
</g>
</mask>
<clipPath id="clip-0">
<path clip-rule="nonzero" d="M 8 11 L 23 11 L 23 32 L 8 32 Z M 8 11 "/>
</clipPath>
<clipPath id="clip-1">
<rect x="0" y="0" width="32" height="32"/>
</clipPath>
<g id="source-7" clip-path="url(#clip-1)">
<g clip-path="url(#clip-0)">
<path fill-rule="nonzero" fill="rgb(55.294118%, 55.294118%, 55.294118%)" fill-opacity="1" d="M 16.515625 11.101562 C 16.246094 11.097656 15.980469 11.1875 15.769531 11.347656 C 15.558594 11.511719 15.410156 11.75 15.347656 12.007812 L 14.222656 16.839844 C 14.191406 16.90625 14.167969 16.980469 14.148438 17.054688 L 13.199219 21.226562 L 13.199219 21.230469 L 11.941406 26.628906 L 9.144531 26.628906 C 8.949219 26.628906 8.75 26.753906 8.613281 26.972656 C 8.472656 27.1875 8.390625 27.492188 8.390625 27.800781 L 8.390625 29.179688 C 8.390625 29.484375 8.472656 29.789062 8.613281 30.007812 C 8.75 30.222656 8.949219 30.351562 9.144531 30.351562 L 12.589844 30.351562 C 13.222656 31.378906 14.351562 32.074219 15.636719 32.074219 C 16.441406 32.074219 17.195312 31.796875 17.792969 31.347656 C 17.800781 31.34375 17.804688 31.339844 17.808594 31.335938 C 17.8125 31.332031 17.820312 31.332031 17.824219 31.328125 L 17.820312 31.324219 C 18.183594 31.058594 18.476562 30.71875 18.703125 30.351562 L 21.652344 30.351562 C 21.851562 30.351562 22.046875 30.222656 22.1875 30.007812 C 22.324219 29.789062 22.40625 29.484375 22.40625 29.179688 L 22.40625 27.800781 C 22.40625 27.492188 22.324219 27.1875 22.1875 26.972656 C 22.046875 26.753906 21.851562 26.628906 21.652344 26.628906 L 20.050781 26.628906 L 20.222656 25.773438 L 22.65625 13.632812 C 22.726562 13.265625 22.609375 12.863281 22.347656 12.59375 C 22.320312 12.566406 22.292969 12.539062 22.261719 12.511719 C 22.242188 12.496094 22.222656 12.480469 22.207031 12.46875 C 22.070312 12.363281 21.910156 12.289062 21.742188 12.25 L 20.90625 12.070312 L 16.746094 11.132812 C 16.667969 11.117188 16.589844 11.105469 16.515625 11.101562 Z M 16.515625 11.101562 "/>
</g>
</g>
<mask id="mask-1">
<g filter="url(#filter-remove-color)">
<rect x="-3.2" y="-3.2" width="38.4" height="38.4" fill="rgb(0%, 0%, 0%)" fill-opacity="0.426087"/>
</g>
</mask>
<clipPath id="clip-2">
<rect x="0" y="0" width="32" height="32"/>
</clipPath>
<g id="source-14" clip-path="url(#clip-2)">
<path fill-rule="nonzero" fill="rgb(0%, 0%, 0%)" fill-opacity="1" d="M 19.71875 13.023438 L 21.480469 13.40625 L 18.605469 27.835938 L 16.605469 27.914062 Z M 19.71875 13.023438 "/>
</g>
</defs>
<g mask="url(#mask-0)">
<use xlink:href="#source-7"/>
</g>
<path fill-rule="nonzero" fill="rgb(99.607843%, 99.607843%, 99.607843%)" fill-opacity="1" d="M 21.492188 13.414062 L 16.476562 12.285156 L 12.714844 28.410156 L 13.3125 28.667969 C 13.492188 29.824219 13.960938 30.707031 15.652344 30.890625 C 17.144531 30.773438 17.882812 29.910156 18.085938 28.597656 L 18.554688 28.082031 Z M 21.492188 13.414062 "/>
<path fill-rule="nonzero" fill="rgb(0%, 87.45098%, 4.705882%)" fill-opacity="1" d="M 15.660156 15.75 L 20.796875 16.871094 L 19.914062 21.289062 L 14.644531 20.167969 Z M 15.660156 15.75 "/>
<path fill-rule="nonzero" fill="rgb(0%, 87.45098%, 4.705882%)" fill-opacity="1" d="M 13.679688 24.265625 L 19.101562 25.382812 L 18.507812 28.339844 L 12.6875 28.515625 Z M 13.679688 24.265625 "/>
<g mask="url(#mask-1)">
<use xlink:href="#source-14"/>
</g>
<path fill="none" stroke-width="25" stroke-linecap="butt" stroke-linejoin="miter" stroke="rgb(0%, 0%, 0%)" stroke-opacity="1" stroke-miterlimit="4" d="M 173.532715 516.5625 L 388.413086 516.5625 " transform="matrix(0.0551724, 0, 0, 0.0551724, 0, 0)"/>
<path fill-rule="nonzero" fill="rgb(99.607843%, 99.607843%, 99.607843%)" fill-opacity="1" stroke-width="20.5723" stroke-linecap="round" stroke-linejoin="round" stroke="rgb(0%, 0%, 0%)" stroke-opacity="1" stroke-miterlimit="10" d="M 316.833496 516.420898 C 316.833496 525.341797 313.293457 533.837891 306.992188 540.13916 C 300.690918 546.44043 292.124023 549.980469 283.203125 549.980469 C 274.282227 549.980469 265.715332 546.44043 259.414062 540.13916 C 253.112793 533.837891 249.572754 525.341797 249.572754 516.420898 C 249.572754 507.5 253.112793 498.933105 259.414062 492.631836 C 265.715332 486.330566 274.282227 482.790527 283.203125 482.790527 C 292.124023 482.790527 300.690918 486.330566 306.992188 492.631836 C 313.293457 498.933105 316.833496 507.5 316.833496 516.420898 Z M 316.833496 516.420898 " transform="matrix(0.0551724, 0, 0, 0.0551724, 0, 0)"/>
</svg>
