<?xml version="1.0" encoding="UTF-8"?>
<svg xmlns="http://www.w3.org/2000/svg" xmlns:xlink="http://www.w3.org/1999/xlink" width="12" height="12" viewBox="0 0 12 12" version="1.1">
<g id="surface1">
<path style=" stroke:none;fill-rule:nonzero;fill:rgb(99.607843%,99.607843%,99.607843%);fill-opacity:1;" d="M 9.183594 2.816406 L 2.816406 2.816406 L 2.816406 9.183594 L 9.183594 9.183594 Z M 9.183594 2.816406 "/>
<path style=" stroke:none;fill-rule:nonzero;fill:rgb(0%,20%,60.000002%);fill-opacity:1;" d="M 8.792969 3.207031 L 3.207031 3.207031 L 3.207031 8.792969 L 8.792969 8.792969 Z M 8.792969 3.207031 "/>
<path style=" stroke:none;fill-rule:nonzero;fill:rgb(99.607843%,99.607843%,99.607843%);fill-opacity:1;" d="M 6.210938 8.371094 C 6.574219 8.335938 6.914062 8.21875 7.183594 8.039062 C 7.320312 7.949219 7.511719 7.761719 7.59375 7.636719 C 7.714844 7.457031 7.800781 7.242188 7.847656 7.007812 C 7.867188 6.914062 7.871094 6.753906 7.875 5.273438 L 7.878906 3.640625 L 6.757812 3.640625 L 6.757812 5.136719 C 6.757812 6.117188 6.753906 6.667969 6.746094 6.742188 C 6.730469 6.875 6.6875 7.035156 6.644531 7.117188 C 6.585938 7.21875 6.484375 7.320312 6.378906 7.371094 C 6.082031 7.515625 5.652344 7.464844 5.445312 7.257812 C 5.34375 7.15625 5.273438 6.988281 5.242188 6.777344 C 5.234375 6.726562 5.230469 6.121094 5.230469 5.167969 L 5.230469 3.640625 L 4.125 3.640625 L 4.125 5.1875 C 4.125 6.738281 4.125 6.867188 4.164062 7.066406 C 4.265625 7.546875 4.566406 7.933594 5.027344 8.164062 C 5.367188 8.332031 5.804688 8.410156 6.210938 8.371094 Z M 6.210938 8.371094 "/>
</g>
</svg>
