<?xml version="1.0" encoding="UTF-8"?>
<svg xmlns="http://www.w3.org/2000/svg" xmlns:xlink="http://www.w3.org/1999/xlink" width="12" height="12" viewBox="0 0 12 12" version="1.1">
<g id="surface1">
<path style=" stroke:none;fill-rule:nonzero;fill:rgb(55.29412%,16.078432%,55.29412%);fill-opacity:1;" d="M 6 2.652344 C 5.433594 2.652344 4.972656 3.117188 4.972656 3.683594 C 4.972656 4.0625 5.179688 4.394531 5.488281 4.574219 L 5.488281 5.226562 L 4.714844 5.226562 L 4.714844 5.742188 L 5.488281 5.742188 L 5.488281 8.0625 C 4.863281 8.019531 4.171875 7.207031 3.847656 6.445312 C 4.105469 6.460938 4.359375 6.441406 4.359375 6.441406 C 4.359375 6.441406 3.859375 5.6875 3.160156 5.496094 C 2.722656 5.875 2.652344 6.945312 2.652344 6.945312 C 2.652344 6.945312 2.816406 6.863281 3.015625 6.710938 C 3.351562 7.675781 4.230469 8.511719 5.292969 8.742188 C 5.746094 8.84375 6 9.347656 6 9.347656 C 6 9.347656 6.257812 8.84375 6.710938 8.742188 C 7.769531 8.511719 8.640625 7.683594 8.980469 6.726562 C 9.1875 6.882812 9.351562 6.945312 9.351562 6.945312 C 9.351562 6.636719 9.316406 6.007812 8.867188 5.484375 C 8.167969 5.675781 7.644531 6.441406 7.644531 6.441406 C 7.644531 6.441406 7.898438 6.460938 8.15625 6.445312 C 7.832031 7.207031 7.140625 8.019531 6.515625 8.0625 L 6.515625 5.742188 L 7.289062 5.742188 L 7.289062 5.226562 L 6.515625 5.226562 L 6.515625 4.574219 C 6.824219 4.394531 7.03125 4.0625 7.03125 3.683594 C 7.03125 3.117188 6.566406 2.652344 6 2.652344 Z M 6 3.167969 C 6.289062 3.167969 6.515625 3.394531 6.515625 3.683594 C 6.515625 3.96875 6.289062 4.199219 6 4.199219 C 5.714844 4.199219 5.488281 3.96875 5.488281 3.683594 C 5.488281 3.394531 5.714844 3.167969 6 3.167969 Z M 6 3.167969 "/>
</g>
</svg>
