<?xml version="1.0" encoding="UTF-8"?>
<svg xmlns="http://www.w3.org/2000/svg" xmlns:xlink="http://www.w3.org/1999/xlink" width="32" height="32" viewBox="0 0 32 32">
<path fill-rule="nonzero" fill="rgb(99.607843%, 99.607843%, 99.607843%)" fill-opacity="1" d="M 19.1875 10.15625 C 19.824219 10.15625 20.355469 10.742188 20.25 11.433594 C 20.144531 11.859375 19.824219 12.179688 19.453125 12.230469 C 19.082031 12.335938 18.753906 12.226562 18.488281 12.015625 C 18.277344 11.804688 17.960938 11.75 17.644531 11.75 L 14.355469 11.75 C 14.039062 11.75 13.710938 11.851562 13.445312 12.066406 C 13.285156 12.226562 13.023438 12.28125 12.8125 12.28125 C 12.175781 12.28125 11.644531 11.695312 11.75 11.003906 C 11.855469 10.578125 12.175781 10.257812 12.546875 10.207031 C 12.917969 10.101562 13.246094 10.210938 13.511719 10.421875 C 13.722656 10.632812 14.039062 10.6875 14.355469 10.6875 L 15.46875 10.6875 L 15.46875 10.15625 L 16.53125 10.15625 L 16.53125 10.6875 L 17.644531 10.6875 C 17.960938 10.6875 18.289062 10.585938 18.554688 10.371094 C 18.714844 10.210938 18.976562 10.15625 19.1875 10.15625 Z M 16.53125 12.28125 L 16.53125 14.457031 C 17.171875 14.585938 17.726562 14.96875 18.109375 15.46875 L 20.78125 15.46875 L 20.78125 18.65625 L 18.109375 18.65625 C 17.625 19.292969 16.863281 19.71875 16 19.71875 C 15.136719 19.71875 14.375 19.292969 13.890625 18.65625 L 13.609375 18.65625 C 12.820312 18.65625 12.28125 19.242188 12.28125 19.984375 L 12.28125 21.84375 L 9.09375 21.84375 L 9.09375 19.984375 C 9.09375 17.539062 11.105469 15.46875 13.609375 15.46875 L 13.890625 15.46875 C 14.273438 14.96875 14.828125 14.585938 15.46875 14.457031 L 15.46875 12.28125 Z M 22.90625 13.34375 L 22.90625 20.78125 L 22.058594 20.78125 C 21.632812 20.78125 21.3125 20.460938 21.3125 20.035156 L 21.3125 14.089844 C 21.3125 13.664062 21.632812 13.34375 22.058594 13.34375 Z M 22.90625 13.34375 "/>
</svg>
