<?xml version="1.0" encoding="UTF-8"?>
<svg xmlns="http://www.w3.org/2000/svg" xmlns:xlink="http://www.w3.org/1999/xlink" width="24" height="24" viewBox="0 0 24 24">
<defs>
<filter id="filter-remove-color" x="0%" y="0%" width="100%" height="100%">
<feColorMatrix color-interpolation-filters="sRGB" values="0 0 0 0 1 0 0 0 0 1 0 0 0 0 1 0 0 0 1 0" />
</filter>
<mask id="mask-0">
<g filter="url(#filter-remove-color)">
<rect x="-2.4" y="-2.4" width="28.8" height="28.8" fill="rgb(0%, 0%, 0%)" fill-opacity="0.72"/>
</g>
</mask>
<clipPath id="clip-0">
<rect x="0" y="0" width="24" height="24"/>
</clipPath>
<g id="source-6" clip-path="url(#clip-0)">
<path fill-rule="nonzero" fill="rgb(89.411765%, 89.411765%, 89.411765%)" fill-opacity="1" d="M 13.898438 7.296875 C 12.730469 7.320312 11.777344 7.9375 11.230469 8.75 C 10.625 8.15625 9.773438 7.671875 8.652344 7.488281 C 8.410156 7.449219 8.15625 7.5 7.945312 7.625 C 7.734375 7.753906 7.570312 7.953125 7.492188 8.1875 C 7.410156 8.421875 7.417969 8.675781 7.507812 8.910156 C 7.597656 9.140625 7.765625 9.332031 7.984375 9.449219 C 7.984375 9.449219 9.285156 10.175781 9.285156 11.519531 C 9.285156 11.933594 9.179688 12.324219 9.027344 12.867188 C 8.878906 13.40625 8.695312 14.09375 8.695312 14.9375 C 8.695312 15.914062 8.789062 16.558594 8.90625 17.007812 C 8.964844 17.230469 9.03125 17.40625 9.097656 17.539062 C 9.160156 17.675781 9.285156 17.847656 9.285156 17.847656 C 9.382812 17.964844 9.507812 18.0625 9.648438 18.132812 C 9.789062 18.199219 9.941406 18.234375 10.097656 18.234375 L 12.09375 18.234375 C 12.132812 18.238281 12.171875 18.238281 12.214844 18.242188 L 14.554688 18.242188 C 14.726562 18.242188 14.894531 18.199219 15.042969 18.117188 C 15.195312 18.039062 15.324219 17.925781 15.421875 17.785156 C 15.421875 17.785156 15.652344 17.417969 15.8125 16.902344 C 15.972656 16.382812 16.113281 15.636719 16.113281 14.632812 C 16.113281 13.804688 15.941406 13.199219 15.808594 12.785156 C 15.679688 12.371094 15.605469 12.179688 15.605469 11.742188 C 15.605469 10.917969 15.792969 10.542969 15.90625 10.375 C 15.960938 10.289062 16.003906 10.253906 16.019531 10.246094 C 16.222656 10.132812 16.382812 9.957031 16.476562 9.742188 C 16.570312 9.53125 16.589844 9.289062 16.53125 9.066406 C 16.476562 8.839844 16.34375 8.640625 16.160156 8.496094 C 15.976562 8.351562 15.75 8.273438 15.519531 8.273438 C 15.453125 8.273438 15.386719 8.28125 15.324219 8.285156 C 15.304688 8.035156 15.199219 7.796875 15.019531 7.621094 C 14.84375 7.441406 14.609375 7.332031 14.359375 7.3125 C 14.207031 7.300781 14.050781 7.292969 13.898438 7.296875 Z M 13.898438 7.296875 "/>
</g>
</defs>
<g mask="url(#mask-0)">
<use xlink:href="#source-6"/>
</g>
<path fill-rule="nonzero" fill="rgb(77.647059%, 0%, 81.960784%)" fill-opacity="1" d="M 15.519531 9.324219 C 15.519531 9.324219 14.554688 9.753906 14.554688 11.746094 C 14.554688 12.921875 15.066406 13.234375 15.066406 14.632812 C 15.066406 16.445312 14.554688 17.191406 14.554688 17.191406 L 12.214844 17.191406 C 12.214844 17.191406 13.726562 16.398438 13.726562 14.769531 C 13.726562 13.394531 13.195312 12.453125 13.652344 11.0625 C 13.976562 10.207031 14.523438 9.324219 15.519531 9.324219 Z M 15.519531 9.324219 "/>
<path fill-rule="nonzero" fill="rgb(77.647059%, 0%, 81.960784%)" fill-opacity="1" d="M 14.277344 8.359375 C 14.277344 8.359375 12.445312 8.898438 12.421875 10.652344 C 12.410156 11.828125 13.40625 13.421875 13.40625 14.820312 C 13.40625 16.632812 13.351562 17.164062 13.351562 17.164062 L 10.96875 17.164062 C 10.96875 17.164062 12.289062 16.308594 12.289062 14.683594 C 12.289062 13.308594 11.417969 11.144531 11.875 9.753906 C 12.214844 8.851562 12.945312 8.253906 14.277344 8.359375 Z M 14.277344 8.359375 "/>
<path fill-rule="nonzero" fill="rgb(77.647059%, 0%, 81.960784%)" fill-opacity="1" d="M 8.484375 8.527344 C 8.484375 8.527344 10.335938 9.527344 10.335938 11.519531 C 10.335938 12.695312 9.746094 13.539062 9.746094 14.9375 C 9.746094 16.75 10.097656 17.183594 10.097656 17.183594 L 12.4375 17.183594 C 12.4375 17.183594 11.179688 16.507812 11.179688 14.878906 C 11.179688 13.503906 11.464844 12.886719 11.472656 12.292969 C 11.484375 11.699219 11.511719 9.019531 8.484375 8.527344 Z M 8.484375 8.527344 "/>
</svg>
