<?xml version="1.0" encoding="UTF-8"?>
<svg xmlns="http://www.w3.org/2000/svg" xmlns:xlink="http://www.w3.org/1999/xlink" width="12" height="12" viewBox="0 0 12 12" version="1.1">
<g id="surface1">
<path style=" stroke:none;fill-rule:nonzero;fill:rgb(57.647061%,0%,57.647061%);fill-opacity:1;" d="M 6 2.804688 C 5.460938 2.804688 5.015625 3.25 5.015625 3.789062 C 5.015625 4.148438 5.214844 4.46875 5.507812 4.636719 L 5.507812 5.261719 L 4.769531 5.261719 L 4.769531 5.753906 L 5.507812 5.753906 L 5.507812 7.96875 C 4.914062 7.925781 4.253906 7.148438 3.945312 6.425781 C 4.191406 6.4375 4.433594 6.417969 4.433594 6.417969 C 4.433594 6.417969 3.957031 5.703125 3.289062 5.519531 C 2.871094 5.878906 2.804688 6.902344 2.804688 6.902344 C 2.804688 6.902344 2.960938 6.824219 3.152344 6.679688 C 3.472656 7.597656 4.308594 8.394531 5.320312 8.617188 C 5.757812 8.710938 6 9.195312 6 9.195312 C 6 9.195312 6.242188 8.710938 6.679688 8.617188 C 7.683594 8.394531 8.519531 7.605469 8.84375 6.691406 C 9.039062 6.839844 9.195312 6.902344 9.195312 6.902344 C 9.195312 6.605469 9.160156 6.007812 8.734375 5.507812 C 8.066406 5.691406 7.566406 6.417969 7.566406 6.417969 C 7.566406 6.417969 7.808594 6.4375 8.054688 6.425781 C 7.746094 7.148438 7.085938 7.925781 6.492188 7.96875 L 6.492188 5.753906 L 7.230469 5.753906 L 7.230469 5.261719 L 6.492188 5.261719 L 6.492188 4.636719 C 6.785156 4.46875 6.984375 4.148438 6.984375 3.789062 C 6.984375 3.25 6.539062 2.804688 6 2.804688 Z M 6 3.296875 C 6.273438 3.296875 6.492188 3.515625 6.492188 3.789062 C 6.492188 4.0625 6.273438 4.28125 6 4.28125 C 5.726562 4.28125 5.507812 4.0625 5.507812 3.789062 C 5.507812 3.515625 5.726562 3.296875 6 3.296875 Z M 6 3.296875 "/>
<path style="fill:none;stroke-width:17.631001;stroke-linecap:round;stroke-linejoin:miter;stroke:rgb(57.647061%,0%,57.647061%);stroke-opacity:1;stroke-miterlimit:4;" d="M 482.200521 290 C 482.200521 340.976562 461.998698 389.876302 425.9375 425.9375 C 389.876302 461.998698 340.976562 482.200521 290 482.200521 C 239.023438 482.200521 190.123698 461.998698 154.0625 425.9375 C 118.001302 389.876302 97.799479 340.976562 97.799479 290 C 97.799479 239.023438 118.001302 190.123698 154.0625 154.0625 C 190.123698 118.001302 239.023438 97.799479 290 97.799479 C 340.976562 97.799479 389.876302 118.001302 425.9375 154.0625 C 461.998698 190.123698 482.200521 239.023438 482.200521 290 Z M 482.200521 290 " transform="matrix(0.0206897,0,0,0.0206897,0,0)"/>
</g>
</svg>
