<svg width="32" height="32" viewBox="0 0 580 580" fill="none" xmlns="http://www.w3.org/2000/svg">
<path opacity="0.426087" d="M283.781 296.156C190.454 296.156 114.375 372.235 114.375 465.562C114.375 471.714 114.51 478.046 114.844 484.438H100.344C97.7706 484.437 95.2227 484.944 92.8455 485.929C90.4682 486.914 88.3082 488.357 86.4887 490.176C84.6693 491.996 83.226 494.156 82.2414 496.533C81.2567 498.91 80.7499 501.458 80.75 504.031V529.031C80.7499 531.604 81.2567 534.152 82.2414 536.53C83.226 538.907 84.6693 541.067 86.4887 542.886C88.3082 544.706 90.4682 546.149 92.8455 547.134C95.2227 548.118 97.7706 548.625 100.344 548.625H173C184.978 549.249 197.347 548.968 208.562 548.625C208.753 548.619 208.966 548.631 209.156 548.625H229.062C231.41 552.585 234.154 556.275 237.281 559.625C237.402 559.755 237.503 559.903 237.625 560.031L237.656 560C243.177 566.033 250.963 571.92 260.969 575.594V575.625C261.082 575.669 261.199 575.707 261.312 575.75C261.343 575.762 261.375 575.77 261.406 575.781C268.321 578.386 275.837 579.844 283.625 579.844C286.265 579.844 288.791 579.639 291.219 579.344V579.375C291.29 579.368 291.366 579.351 291.437 579.344C291.547 579.33 291.672 579.327 291.781 579.312V579.281C303.445 577.989 315.984 572.982 326.25 563.312C326.472 563.103 326.748 562.806 327.031 562.531L327.062 562.562C327.186 562.446 327.284 562.305 327.406 562.187C331.57 558.209 335.193 553.653 338.187 548.625H378.562H379.062C383.556 548.735 388.065 548.762 392.594 548.625C392.813 548.618 393.03 548.632 393.25 548.625H455.75C458.323 548.625 460.871 548.118 463.248 547.134C465.625 546.149 467.785 544.706 469.605 542.886C471.424 541.067 472.868 538.907 473.852 536.529C474.837 534.152 475.344 531.604 475.344 529.031V504.031C475.344 501.458 474.837 498.91 473.852 496.533C472.868 494.156 471.424 491.996 469.605 490.176C467.785 488.357 465.625 486.914 463.248 485.929C460.871 484.944 458.323 484.437 455.75 484.438H453.375C453.62 476.462 453.57 467.735 453.031 458.719C453.022 458.57 453.04 458.43 453.031 458.281H453C449.168 368.259 374.664 296.156 283.781 296.156H283.781Z" fill="#ACD8F3"/>
<path d="M433.157 465.611C433.157 489.96 435.215 515.78 418.381 524.028C396.172 534.91 351.203 524.306 325.489 529.498C315.521 552.943 298.983 560.326 283.93 560.147C248.37 559.722 242.774 529.51 240.717 529.038C222.988 526.214 147.112 536.674 140.077 517.883C134.298 502.447 133.53 483.997 133.53 465.611C133.53 382.871 200.603 315.798 283.343 315.798C366.083 315.798 433.157 382.871 433.157 465.611Z" fill="#E80000"/>
<path opacity="0.426087" d="M385.621 380.891C395.526 379.134 418.527 405.667 426.681 432.915C438.821 473.477 416.511 518.932 416.511 518.932L392.746 522.556C392.746 522.556 405.877 495.31 405.075 460.438C403.89 408.883 375.717 382.648 385.621 380.891Z" fill="black"/>
<path d="M283.197 472.51C271.557 472.51 260.393 477.134 252.161 485.366C246.908 490.619 243.124 497.066 241.074 504.07H99.9238V529.07H241.174C243.246 535.944 246.993 542.269 252.161 547.438C260.393 555.669 271.557 560.293 283.197 560.293C294.838 560.293 306.002 555.669 314.234 547.438C319.402 542.269 323.149 535.944 325.221 529.07H455.305V504.07H325.321C323.271 497.066 319.487 490.619 314.234 485.366C306.002 477.134 294.838 472.51 283.197 472.51Z" fill="black"/>
<path d="M306 516C306 522.1 303.577 527.95 299.263 532.263C294.95 536.577 289.1 539 283 539C276.9 539 271.05 536.577 266.737 532.263C262.423 527.95 260 522.1 260 516C260 509.9 262.423 504.05 266.737 499.737C271.05 495.423 276.9 493 283 493C289.1 493 294.95 495.423 299.263 499.737C303.577 504.05 306 509.9 306 516Z" fill="#FEFEFE"/>
<path opacity="0.444" d="M231.068 346.512C224.239 341.475 195.194 354.927 180.074 373.559C167.813 388.669 164.855 396.435 160.628 413.218C158.361 422.218 157.205 445.457 164.252 439.416C168.731 435.577 171.176 422.841 184.844 400.005C207.188 362.675 237.897 351.55 231.068 346.512Z" fill="white"/>
</svg>
