<?xml version="1.0" encoding="UTF-8"?>
<svg xmlns="http://www.w3.org/2000/svg" xmlns:xlink="http://www.w3.org/1999/xlink" width="64" height="64" viewBox="0 0 64 64">
<path fill="none" stroke-width="14.6078" stroke-linecap="round" stroke-linejoin="round" stroke="rgb(57.647059%, 0%, 57.647059%)" stroke-opacity="1" stroke-miterlimit="4" d="M 959.20166 542.29248 L 1016.005859 542.29248 L 1016.005859 575.611572 L 944.77417 608.930664 L 822.561035 608.930664 L 746.088867 544.298096 L 820.231934 544.298096 L 854.974365 504.573975 L 890.881348 504.573975 " transform="matrix(0.0603774, 0, 0, 0.0603774, 0, 0)"/>
<path fill-rule="evenodd" fill="rgb(57.647059%, 0%, 57.647059%)" fill-opacity="1" d="M 52.339844 32.992188 L 56.179688 32.992188 L 56.179688 34.570312 L 55.585938 35.476562 L 52.339844 35.476562 Z M 52.339844 32.992188 "/>
<path fill-rule="nonzero" fill="rgb(57.647059%, 0%, 57.647059%)" fill-opacity="1" d="M 52.652344 26.792969 C 52.125 26.792969 51.707031 27.246094 51.707031 27.808594 C 51.703125 28.183594 51.707031 35.035156 51.707031 35.035156 C 51.707031 35.265625 51.914062 35.476562 52.144531 35.476562 L 53.160156 35.476562 C 53.390625 35.476562 53.601562 35.265625 53.601562 35.035156 C 53.601562 34.804688 53.390625 34.59375 53.160156 34.59375 L 52.585938 34.59375 C 52.585938 33.84375 52.585938 28.105469 52.585938 27.8125 C 52.585938 27.691406 52.683594 27.675781 52.652344 27.675781 L 55.421875 27.675781 C 55.511719 27.675781 55.496094 27.683594 55.503906 27.695312 C 55.515625 27.707031 55.53125 27.757812 55.53125 27.804688 L 55.53125 29.488281 C 55.53125 29.71875 55.742188 29.929688 55.972656 29.929688 L 59.199219 29.929688 C 59.320312 29.9375 59.4375 29.890625 59.523438 29.808594 C 59.609375 29.726562 59.660156 29.609375 59.660156 29.488281 C 59.660156 29.371094 59.609375 29.253906 59.523438 29.171875 C 59.4375 29.089844 59.320312 29.042969 59.199219 29.050781 L 56.414062 29.050781 L 56.414062 27.804688 C 56.414062 27.589844 56.359375 27.351562 56.191406 27.144531 C 56.027344 26.9375 55.734375 26.792969 55.421875 26.792969 Z M 52.652344 26.792969 "/>
<path fill-rule="evenodd" fill="rgb(57.647059%, 0%, 57.647059%)" fill-opacity="1" d="M 61.460938 29.488281 L 57.957031 31.511719 L 57.957031 27.464844 Z M 61.460938 29.488281 "/>
</svg>
