<?xml version="1.0" encoding="UTF-8"?>
<svg xmlns="http://www.w3.org/2000/svg" xmlns:xlink="http://www.w3.org/1999/xlink" width="12" height="12" viewBox="0 0 12 12" version="1.1">
<defs>
<filter id="alpha" filterUnits="objectBoundingBox" x="0%" y="0%" width="100%" height="100%">
  <feColorMatrix type="matrix" in="SourceGraphic" values="0 0 0 0 1 0 0 0 0 1 0 0 0 0 1 0 0 0 1 0"/>
</filter>
<mask id="mask0">
  <g filter="url(#alpha)">
<rect x="0" y="0" width="12" height="12" style="fill:rgb(0%,0%,0%);fill-opacity:0.426087;stroke:none;"/>
  </g>
</mask>
<clipPath id="clip1">
  <rect x="0" y="0" width="12" height="12"/>
</clipPath>
<g id="surface5" clip-path="url(#clip1)">
<path style=" stroke:none;fill-rule:nonzero;fill:rgb(55.29412%,55.29412%,55.29412%);fill-opacity:1;" d="M 7.175781 4.722656 C 7.175781 4.722656 3.425781 6.371094 2.699219 10.027344 L 2.070312 10.027344 C 1.960938 10.027344 1.855469 10.070312 1.78125 10.144531 C 1.707031 10.21875 1.664062 10.324219 1.664062 10.433594 L 1.664062 10.949219 C 1.664062 11.054688 1.707031 11.160156 1.78125 11.238281 C 1.855469 11.3125 1.960938 11.355469 2.070312 11.355469 L 4.730469 11.355469 C 4.730469 11.355469 4.730469 11.359375 4.730469 11.359375 C 4.730469 11.359375 4.734375 11.359375 4.734375 11.359375 C 4.734375 11.359375 4.734375 11.363281 4.738281 11.367188 C 4.800781 11.472656 4.878906 11.570312 4.972656 11.65625 C 4.976562 11.660156 4.980469 11.660156 4.980469 11.664062 C 5.207031 11.863281 5.5 11.992188 5.824219 12 C 5.84375 12.003906 5.863281 12.003906 5.886719 12 C 5.914062 12 5.921875 12 5.902344 12 C 6.050781 11.996094 6.191406 11.964844 6.324219 11.917969 C 6.324219 11.917969 6.324219 11.917969 6.328125 11.914062 C 6.328125 11.914062 6.332031 11.914062 6.335938 11.914062 L 6.332031 11.910156 C 6.550781 11.832031 6.738281 11.691406 6.875 11.523438 C 6.871094 11.523438 6.875 11.523438 6.882812 11.511719 C 6.882812 11.511719 6.882812 11.511719 6.886719 11.511719 C 6.886719 11.507812 6.886719 11.507812 6.886719 11.507812 C 6.890625 11.503906 6.890625 11.5 6.894531 11.5 C 6.917969 11.464844 6.917969 11.460938 6.898438 11.492188 C 6.933594 11.449219 6.960938 11.402344 6.992188 11.355469 L 9.421875 11.355469 C 9.527344 11.355469 9.632812 11.3125 9.710938 11.238281 C 9.785156 11.160156 9.828125 11.054688 9.828125 10.949219 L 9.828125 10.433594 C 9.828125 10.324219 9.785156 10.21875 9.710938 10.144531 C 9.632812 10.070312 9.527344 10.027344 9.421875 10.027344 L 8.792969 10.027344 C 8.832031 9.550781 8.832031 9.019531 8.773438 8.460938 C 8.769531 8.441406 8.769531 8.429688 8.769531 8.414062 C 8.769531 8.433594 8.769531 8.421875 8.765625 8.40625 L 8.769531 8.40625 C 8.726562 8.027344 8.664062 7.683594 8.585938 7.375 C 8.585938 7.375 8.585938 7.375 8.585938 7.371094 C 8.582031 7.347656 8.574219 7.320312 8.566406 7.292969 C 8.5625 7.28125 8.5625 7.273438 8.558594 7.265625 C 8.558594 7.265625 8.558594 7.261719 8.558594 7.261719 C 8.464844 6.59375 7.84375 5.4375 7.175781 4.722656 Z M 7.175781 4.722656 "/>
</g>
<mask id="mask1">
  <g filter="url(#alpha)">
<rect x="0" y="0" width="12" height="12" style="fill:rgb(0%,0%,0%);fill-opacity:0.426087;stroke:none;"/>
  </g>
</mask>
<clipPath id="clip2">
  <rect x="0" y="0" width="12" height="12"/>
</clipPath>
<g id="surface8" clip-path="url(#clip2)">
<path style=" stroke:none;fill-rule:nonzero;fill:rgb(0%,0%,0%);fill-opacity:1;" d="M 7.035156 5.285156 C 7.820312 6.03125 8.203125 7.191406 8.34375 8.308594 C 8.445312 9.089844 8.421875 9.851562 8.339844 10.433594 L 7.226562 10.511719 C 7.351562 8.445312 7.386719 7.421875 7.035156 5.285156 Z M 7.035156 5.285156 "/>
</g>
</defs>
<g id="surface1">
<use xlink:href="#surface5" mask="url(#mask0)"/>
<path style=" stroke:none;fill-rule:nonzero;fill:rgb(0%,87.450981%,4.705882%);fill-opacity:1;" d="M 7.035156 5.285156 C 7.035156 5.285156 3.65625 6.796875 2.960938 10.730469 L 4.953125 10.738281 C 5.011719 11.175781 5.226562 11.511719 5.859375 11.59375 C 6.417969 11.558594 6.679688 11.238281 6.765625 10.746094 L 8.304688 10.753906 C 8.847656 6.800781 7.035156 5.285156 7.035156 5.285156 Z M 7.035156 5.285156 "/>
<path style="fill:none;stroke-width:25;stroke-linecap:butt;stroke-linejoin:miter;stroke:rgb(0%,0%,0%);stroke-opacity:1;stroke-miterlimit:4;" d="M 99.876302 516.5625 L 455.390625 516.5625 " transform="matrix(0.0206897,0,0,0.0206897,0,0)"/>
<path style="fill-rule:nonzero;fill:rgb(99.607843%,99.607843%,99.607843%);fill-opacity:1;stroke-width:20.5723;stroke-linecap:round;stroke-linejoin:round;stroke:rgb(0%,0%,0%);stroke-opacity:1;stroke-miterlimit:10;" d="M 316.809896 516.373698 C 316.809896 525.247396 313.222656 533.932292 306.992188 540.16276 C 300.572917 546.393229 292.076823 549.980469 283.203125 549.980469 C 274.329427 549.980469 265.644531 546.393229 259.414062 540.16276 C 253.183594 533.932292 249.596354 525.247396 249.596354 516.373698 C 249.596354 507.5 253.183594 499.003906 259.414062 492.584635 C 265.644531 486.354167 274.329427 482.766927 283.203125 482.766927 C 292.076823 482.766927 300.572917 486.354167 306.992188 492.584635 C 313.222656 499.003906 316.809896 507.5 316.809896 516.373698 Z M 316.809896 516.373698 " transform="matrix(0.0206897,0,0,0.0206897,0,0)"/>
<path style=" stroke:none;fill-rule:nonzero;fill:rgb(90.980393%,0%,0%);fill-opacity:1;" d="M 4.847656 6.941406 L 8.234375 7.667969 C 8.234375 7.667969 8.355469 8.304688 8.390625 8.796875 C 8.429688 9.289062 8.394531 9.878906 8.394531 9.878906 L 3.566406 8.828125 C 3.566406 8.828125 3.789062 8.359375 4.113281 7.867188 C 4.441406 7.371094 4.847656 6.941406 4.847656 6.941406 Z M 4.847656 6.941406 "/>
<use xlink:href="#surface8" mask="url(#mask1)"/>
</g>
</svg>
