<?xml version="1.0" encoding="UTF-8"?>
<svg xmlns="http://www.w3.org/2000/svg" xmlns:xlink="http://www.w3.org/1999/xlink" width="12" height="12" viewBox="0 0 12 12" version="1.1">
<g id="surface1">
<path style=" stroke:none;fill-rule:nonzero;fill:rgb(99.607843%,99.607843%,99.607843%);fill-opacity:1;" d="M 4.070312 5.632812 L 3.617188 5.632812 L 3.617188 5.492188 C 3.617188 5.429688 3.613281 5.386719 3.601562 5.367188 C 3.589844 5.351562 3.570312 5.34375 3.542969 5.34375 C 3.515625 5.34375 3.492188 5.355469 3.476562 5.378906 C 3.460938 5.402344 3.453125 5.4375 3.453125 5.488281 C 3.453125 5.550781 3.464844 5.597656 3.480469 5.628906 C 3.496094 5.660156 3.542969 5.695312 3.617188 5.742188 C 3.835938 5.871094 3.96875 5.976562 4.027344 6.058594 C 4.082031 6.140625 4.109375 6.273438 4.109375 6.457031 C 4.109375 6.589844 4.09375 6.6875 4.0625 6.75 C 4.03125 6.816406 3.972656 6.867188 3.882812 6.910156 C 3.792969 6.953125 3.691406 6.972656 3.570312 6.972656 C 3.441406 6.972656 3.332031 6.949219 3.238281 6.898438 C 3.144531 6.851562 3.085938 6.789062 3.058594 6.710938 C 3.027344 6.636719 3.015625 6.527344 3.015625 6.386719 L 3.015625 6.265625 L 3.464844 6.265625 L 3.464844 6.492188 C 3.464844 6.5625 3.472656 6.609375 3.484375 6.628906 C 3.5 6.648438 3.519531 6.65625 3.554688 6.65625 C 3.585938 6.65625 3.609375 6.644531 3.625 6.621094 C 3.640625 6.59375 3.648438 6.554688 3.648438 6.507812 C 3.648438 6.394531 3.632812 6.324219 3.605469 6.289062 C 3.574219 6.257812 3.496094 6.199219 3.375 6.121094 C 3.253906 6.039062 3.175781 5.984375 3.136719 5.945312 C 3.097656 5.910156 3.0625 5.859375 3.039062 5.796875 C 3.011719 5.730469 3 5.652344 3 5.550781 C 3 5.40625 3.019531 5.304688 3.054688 5.238281 C 3.089844 5.171875 3.152344 5.121094 3.230469 5.082031 C 3.3125 5.042969 3.414062 5.027344 3.527344 5.027344 C 3.652344 5.027344 3.761719 5.046875 3.851562 5.085938 C 3.9375 5.128906 4 5.179688 4.027344 5.242188 C 4.054688 5.304688 4.070312 5.410156 4.070312 5.558594 L 4.070312 5.632812 "/>
<path style=" stroke:none;fill-rule:nonzero;fill:rgb(99.607843%,99.607843%,99.607843%);fill-opacity:1;" d="M 4.265625 5.066406 L 4.753906 5.066406 C 4.886719 5.066406 4.988281 5.074219 5.058594 5.097656 C 5.132812 5.117188 5.183594 5.148438 5.21875 5.1875 C 5.257812 5.226562 5.28125 5.273438 5.292969 5.328125 C 5.304688 5.386719 5.3125 5.472656 5.3125 5.589844 L 5.3125 5.75 C 5.3125 5.871094 5.300781 5.957031 5.273438 6.011719 C 5.25 6.066406 5.207031 6.109375 5.140625 6.136719 C 5.074219 6.167969 4.988281 6.183594 4.882812 6.183594 L 4.75 6.183594 L 4.75 6.933594 L 4.265625 6.933594 Z M 4.75 5.386719 L 4.75 5.859375 C 4.765625 5.863281 4.777344 5.863281 4.785156 5.863281 C 4.832031 5.863281 4.863281 5.851562 4.878906 5.828125 C 4.898438 5.808594 4.90625 5.761719 4.90625 5.691406 L 4.90625 5.539062 C 4.90625 5.476562 4.894531 5.433594 4.875 5.414062 C 4.855469 5.394531 4.8125 5.386719 4.75 5.386719 "/>
<path style=" stroke:none;fill-rule:nonzero;fill:rgb(99.607843%,99.607843%,99.607843%);fill-opacity:1;" d="M 6.5625 6.160156 C 6.5625 6.347656 6.558594 6.480469 6.550781 6.558594 C 6.539062 6.636719 6.511719 6.707031 6.464844 6.773438 C 6.417969 6.839844 6.355469 6.886719 6.277344 6.921875 C 6.199219 6.957031 6.105469 6.972656 6 6.972656 C 5.902344 6.972656 5.808594 6.957031 5.730469 6.925781 C 5.652344 6.894531 5.585938 6.84375 5.539062 6.777344 C 5.488281 6.710938 5.460938 6.640625 5.453125 6.5625 C 5.441406 6.488281 5.4375 6.351562 5.4375 6.160156 L 5.4375 5.839844 C 5.4375 5.652344 5.441406 5.519531 5.449219 5.441406 C 5.460938 5.363281 5.488281 5.292969 5.535156 5.226562 C 5.582031 5.160156 5.644531 5.113281 5.722656 5.078125 C 5.800781 5.042969 5.894531 5.027344 6 5.027344 C 6.101562 5.027344 6.191406 5.042969 6.269531 5.074219 C 6.351562 5.109375 6.414062 5.15625 6.460938 5.222656 C 6.511719 5.289062 6.539062 5.359375 6.550781 5.4375 C 6.558594 5.511719 6.5625 5.648438 6.5625 5.839844 Z M 6.078125 5.546875 C 6.078125 5.457031 6.070312 5.402344 6.0625 5.378906 C 6.050781 5.355469 6.03125 5.34375 6.003906 5.34375 C 5.976562 5.34375 5.957031 5.351562 5.945312 5.371094 C 5.929688 5.390625 5.925781 5.449219 5.925781 5.546875 L 5.925781 6.417969 C 5.925781 6.527344 5.929688 6.59375 5.9375 6.621094 C 5.945312 6.644531 5.96875 6.65625 6 6.65625 C 6.03125 6.65625 6.054688 6.644531 6.0625 6.613281 C 6.070312 6.585938 6.078125 6.515625 6.078125 6.40625 Z M 6.078125 5.546875 "/>
<path style=" stroke:none;fill-rule:nonzero;fill:rgb(99.607843%,99.607843%,99.607843%);fill-opacity:1;" d="M 6.746094 5.066406 L 7.089844 5.066406 C 7.320312 5.066406 7.472656 5.074219 7.554688 5.089844 C 7.636719 5.109375 7.703125 5.15625 7.753906 5.226562 C 7.804688 5.300781 7.832031 5.417969 7.832031 5.574219 C 7.832031 5.722656 7.8125 5.820312 7.777344 5.867188 C 7.742188 5.917969 7.667969 5.949219 7.5625 5.960938 C 7.660156 5.984375 7.722656 6.015625 7.757812 6.054688 C 7.789062 6.09375 7.8125 6.132812 7.820312 6.164062 C 7.828125 6.199219 7.832031 6.289062 7.832031 6.441406 L 7.832031 6.933594 L 7.378906 6.933594 L 7.378906 6.3125 C 7.378906 6.214844 7.371094 6.152344 7.355469 6.128906 C 7.339844 6.105469 7.296875 6.09375 7.230469 6.09375 L 7.230469 6.933594 L 6.746094 6.933594 Z M 7.230469 5.386719 L 7.230469 5.800781 C 7.285156 5.800781 7.324219 5.792969 7.347656 5.777344 C 7.367188 5.761719 7.378906 5.714844 7.378906 5.632812 L 7.378906 5.53125 C 7.378906 5.46875 7.367188 5.429688 7.347656 5.414062 C 7.328125 5.394531 7.289062 5.386719 7.230469 5.386719 Z M 7.230469 5.386719 "/>
<path style=" stroke:none;fill-rule:nonzero;fill:rgb(99.607843%,99.607843%,99.607843%);fill-opacity:1;" d="M 9 5.066406 L 9 5.4375 L 8.710938 5.4375 L 8.710938 6.933594 L 8.226562 6.933594 L 8.226562 5.4375 L 7.9375 5.4375 L 7.9375 5.066406 Z M 9 5.066406 "/>
</g>
</svg>
