<?xml version="1.0" encoding="UTF-8"?>
<svg xmlns="http://www.w3.org/2000/svg" xmlns:xlink="http://www.w3.org/1999/xlink" width="32" height="32" viewBox="0 0 32 32">
<defs>
<filter id="filter-remove-color" x="0%" y="0%" width="100%" height="100%">
<feColorMatrix color-interpolation-filters="sRGB" values="0 0 0 0 1 0 0 0 0 1 0 0 0 0 1 0 0 0 1 0" />
</filter>
<mask id="mask-0">
<g filter="url(#filter-remove-color)">
<rect x="-3.2" y="-3.2" width="38.4" height="38.4" fill="rgb(0%, 0%, 0%)" fill-opacity="0.426087"/>
</g>
</mask>
<clipPath id="clip-0">
<path clip-rule="nonzero" d="M 0 0 L 32 0 L 32 32 L 0 32 Z M 0 0 "/>
</clipPath>
<clipPath id="clip-1">
<rect x="0" y="0" width="32" height="32"/>
</clipPath>
<g id="source-7" clip-path="url(#clip-1)">
<g clip-path="url(#clip-0)">
<path fill-rule="nonzero" fill="rgb(67.45098%, 84.705882%, 95.294118%)" fill-opacity="1" d="M 25.484375 -0.160156 C 22.292969 -0.160156 19.636719 2.496094 19.636719 5.6875 C 19.636719 5.953125 19.664062 6.214844 19.699219 6.472656 L 14.28125 7.546875 C 13.988281 7.605469 13.707031 7.703125 13.441406 7.839844 C 13.441406 7.839844 13.277344 7.90625 13.046875 8.042969 L 3.949219 8.003906 C 3.519531 8 3.097656 8.085938 2.699219 8.246094 C 2.304688 8.410156 1.945312 8.648438 1.640625 8.949219 C 1.335938 9.25 1.09375 9.609375 0.929688 10.003906 C 0.765625 10.398438 0.675781 10.820312 0.675781 11.25 L 0.671875 12.5 C 0.667969 12.929688 0.75 13.351562 0.914062 13.75 C 1.074219 14.144531 1.3125 14.503906 1.617188 14.808594 C 1.917969 15.113281 2.273438 15.355469 2.667969 15.519531 C 3.0625 15.683594 3.488281 15.769531 3.914062 15.773438 L 12.890625 15.808594 C 13.328125 16.042969 13.613281 16.039062 13.859375 16.105469 C 13.867188 16.105469 13.871094 16.109375 13.878906 16.109375 L 13.21875 16.394531 L 13.167969 16.414062 L 13.171875 16.417969 C 12.859375 16.546875 12.582031 16.714844 12.320312 16.898438 C 11.683594 17.28125 11.132812 17.808594 10.726562 18.476562 L 10.722656 18.476562 L 10.6875 18.539062 L 8.40625 22.238281 C 8.160156 21.722656 7.78125 21.28125 7.308594 20.957031 C 6.835938 20.632812 6.285156 20.441406 5.714844 20.398438 L 4.46875 20.304688 C 4.042969 20.273438 3.613281 20.324219 3.207031 20.460938 C 2.800781 20.59375 2.425781 20.804688 2.101562 21.085938 C 1.777344 21.363281 1.511719 21.707031 1.316406 22.089844 C 1.125 22.46875 1.007812 22.886719 0.976562 23.3125 C 0.800781 25.691406 1.707031 27.820312 3.15625 29.050781 C 4.539062 30.222656 6.140625 30.40625 6.140625 30.40625 C 6.164062 30.40625 6.1875 30.410156 6.207031 30.410156 L 19.421875 32.132812 C 20.277344 32.246094 21.144531 32.011719 21.828125 31.484375 C 22.515625 30.957031 22.960938 30.179688 23.074219 29.324219 L 23.234375 28.085938 C 23.292969 27.660156 23.261719 27.230469 23.152344 26.816406 C 23.039062 26.402344 22.847656 26.015625 22.585938 25.675781 C 22.328125 25.335938 22 25.050781 21.628906 24.835938 C 21.257812 24.625 20.847656 24.484375 20.425781 24.429688 L 19.050781 24.25 L 23.332031 22.546875 L 23.304688 22.476562 C 23.835938 22.128906 25.261719 21.28125 25.132812 21.40625 C 24.992188 21.546875 26.070312 19.804688 26.324219 19.457031 L 26.359375 19.46875 L 28.859375 12.472656 L 28.84375 12.46875 C 28.804688 12.441406 29.121094 10.070312 29.140625 10.277344 C 29.140625 10.285156 29.121094 10.234375 29.121094 10.234375 C 30.460938 9.15625 31.328125 7.507812 31.328125 5.6875 C 31.328125 2.496094 28.671875 -0.160156 25.484375 -0.160156 Z M 25.484375 -0.160156 "/>
</g>
</g>
</defs>
<g mask="url(#mask-0)">
<use xlink:href="#source-7"/>
</g>
<path fill-rule="nonzero" fill="rgb(69.019608%, 11.372549%, 11.372549%)" fill-opacity="1" d="M 22.238281 16.402344 C 21.917969 16.320312 21.574219 16.355469 21.273438 16.488281 L 14.453125 19.410156 C 14.089844 19.554688 13.792969 19.855469 13.644531 20.21875 C 13.496094 20.578125 13.503906 21 13.660156 21.359375 C 13.816406 21.71875 14.121094 22.007812 14.484375 22.148438 C 14.851562 22.285156 15.273438 22.273438 15.628906 22.105469 L 22.339844 19.433594 C 22.90625 19.195312 23.394531 18.332031 23.347656 17.71875 C 23.304688 17.105469 22.832031 16.550781 22.238281 16.402344 Z M 22.238281 16.402344 "/>
<path fill-rule="nonzero" fill="rgb(69.019608%, 11.372549%, 11.372549%)" fill-opacity="1" d="M 24.332031 8.960938 C 23.921875 8.910156 23.503906 9 23.152344 9.21875 C 22.800781 9.4375 22.535156 9.773438 22.402344 10.167969 L 19.902344 17.164062 C 19.816406 17.386719 19.777344 17.625 19.785156 17.867188 C 19.792969 18.105469 19.847656 18.339844 19.949219 18.558594 C 20.046875 18.777344 20.191406 18.972656 20.367188 19.132812 C 20.542969 19.296875 20.75 19.421875 20.976562 19.5 C 21.203125 19.582031 21.441406 19.617188 21.683594 19.601562 C 21.921875 19.589844 22.15625 19.527344 22.371094 19.425781 C 22.585938 19.320312 22.777344 19.171875 22.9375 18.992188 C 23.09375 18.8125 23.214844 18.601562 23.289062 18.375 L 25.789062 11.375 C 25.882812 11.121094 25.921875 10.847656 25.894531 10.578125 C 25.871094 10.308594 25.785156 10.050781 25.644531 9.816406 C 25.503906 9.585938 25.3125 9.386719 25.085938 9.238281 C 24.859375 9.089844 24.601562 8.996094 24.332031 8.960938 Z M 24.332031 8.960938 "/>
<path fill-rule="nonzero" fill="rgb(69.019608%, 11.372549%, 11.372549%)" fill-opacity="1" d="M 13.820312 11.859375 C 13.8125 12.179688 13.945312 12.5 14.175781 12.71875 C 14.40625 12.9375 15.050781 13.03125 15.050781 13.03125 L 23.953125 11.269531 C 23.953125 11.269531 24.789062 10.300781 24.539062 9.746094 C 24.289062 9.195312 23.699219 9.003906 23.699219 9.003906 L 14.914062 10.742188 C 14.914062 10.742188 13.832031 11.285156 13.820312 11.859375 Z M 13.820312 11.859375 "/>
<path fill-rule="nonzero" fill="rgb(69.019608%, 11.372549%, 11.372549%)" fill-opacity="1" d="M 28.070312 5.6875 C 28.070312 6.371094 27.796875 7.03125 27.3125 7.515625 C 26.828125 8 26.167969 8.273438 25.484375 8.273438 C 24.796875 8.273438 24.136719 8 23.652344 7.515625 C 23.167969 7.03125 22.894531 6.371094 22.894531 5.6875 C 22.894531 5 23.167969 4.339844 23.652344 3.855469 C 24.136719 3.371094 24.796875 3.097656 25.484375 3.097656 C 26.167969 3.097656 26.828125 3.371094 27.3125 3.855469 C 27.796875 4.339844 28.070312 5 28.070312 5.6875 Z M 28.070312 5.6875 "/>
<path fill-rule="nonzero" fill="rgb(69.019608%, 11.372549%, 11.372549%)" fill-opacity="1" d="M 14.234375 19.558594 C 13.929688 19.675781 13.664062 19.902344 13.5 20.183594 L 10.234375 25.480469 C 10.027344 25.808594 9.953125 26.226562 10.042969 26.605469 C 10.132812 26.988281 10.378906 27.328125 10.714844 27.53125 C 11.050781 27.734375 11.464844 27.796875 11.84375 27.699219 C 12.222656 27.601562 12.558594 27.34375 12.753906 27.003906 L 16.015625 21.710938 C 16.34375 21.191406 16.292969 20.464844 15.902344 19.992188 C 15.511719 19.519531 14.808594 19.335938 14.234375 19.558594 Z M 14.234375 19.558594 "/>
<path fill-rule="nonzero" fill="rgb(69.019608%, 11.372549%, 11.372549%)" fill-opacity="1" d="M 4.226562 23.554688 C 4.117188 25.054688 4.652344 26.046875 5.265625 26.566406 C 5.878906 27.085938 6.5625 27.171875 6.5625 27.171875 L 19.84375 28.902344 L 20.003906 27.660156 L 6.71875 25.933594 C 6.71875 25.933594 6.40625 25.894531 6.074219 25.613281 C 5.742188 25.328125 5.382812 24.84375 5.472656 23.648438 Z M 4.226562 23.554688 "/>
<path fill-rule="nonzero" fill="rgb(69.019608%, 11.372549%, 11.372549%)" fill-opacity="1" d="M 3.933594 11.261719 L 3.929688 12.515625 L 14.726562 12.558594 L 14.730469 11.308594 Z M 3.933594 11.261719 "/>
</svg>
