<?xml version="1.0" encoding="UTF-8"?>
<svg xmlns="http://www.w3.org/2000/svg" xmlns:xlink="http://www.w3.org/1999/xlink" width="32" height="32" viewBox="0 0 32 32">
<path fill-rule="nonzero" fill="rgb(99.607843%, 99.607843%, 99.607843%)" fill-opacity="1" d="M 16 8.441406 C 10.878906 8.441406 7.160156 10.109375 7.109375 10.132812 C 7.109375 10.132812 7.105469 10.132812 7.101562 10.136719 C 3.429688 11.566406 1.511719 13.105469 0.816406 14.707031 C 0.125 16.308594 0.746094 17.863281 1.796875 19.125 C 3.898438 21.648438 7.757812 23.3125 7.757812 23.3125 C 10.007812 24.449219 19.542969 25.296875 24.242188 23.3125 C 24.242188 23.3125 28.101562 21.648438 30.203125 19.125 C 31.253906 17.863281 31.875 16.308594 31.183594 14.707031 C 30.488281 13.105469 28.570312 11.566406 24.898438 10.136719 C 24.859375 10.117188 21.128906 8.441406 16 8.441406 Z M 16 8.441406 "/>
<path fill-rule="nonzero" fill="rgb(85.882353%, 17.254902%, 17.647059%)" fill-opacity="1" d="M 16 17.59375 L 12.269531 11.546875 L 8.71875 22.546875 L 11.53125 22.558594 L 13.023438 17.796875 L 16 22.933594 L 18.980469 17.796875 L 20.472656 22.558594 L 23.289062 22.546875 L 19.734375 11.546875 Z M 16 17.59375 "/>
<path fill-rule="nonzero" fill="rgb(0%, 59.215686%, 94.509804%)" fill-opacity="1" d="M 16 10.117188 C 19.886719 10.117188 23.28125 11.683594 23.28125 11.683594 C 31.609375 16.355469 23.582031 22.566406 23.582031 22.566406 C 23.582031 22.566406 37.976562 16.21875 24.230469 10.867188 C 24.230469 10.867188 20.761719 9.300781 16 9.300781 C 11.238281 9.300781 7.769531 10.867188 7.769531 10.867188 C -5.976562 16.21875 8.417969 22.566406 8.417969 22.566406 C 8.417969 22.566406 0.390625 16.355469 8.71875 11.683594 C 8.71875 11.683594 12.117188 10.117188 16 10.117188 Z M 16 10.117188 "/>
</svg>
