<?xml version="1.0" encoding="UTF-8"?>
<svg xmlns="http://www.w3.org/2000/svg" xmlns:xlink="http://www.w3.org/1999/xlink" width="12" height="12" viewBox="0 0 12 12">
<path fill-rule="nonzero" fill="rgb(23.137255%, 67.058824%, 29.411765%)" fill-opacity="1" d="M 4.757812 6.957031 C 4.757812 6.957031 3.667969 8.589844 2.957031 9.113281 C 2.957031 9.1875 3.515625 10.039062 4.351562 9.667969 C 4.605469 10.335938 5.316406 10.632812 6 10.113281 C 6.632812 10.671875 7.371094 10.261719 7.597656 9.742188 C 8.308594 10.039062 8.867188 9.59375 9.042969 9.148438 C 8.789062 8.925781 8.054688 8.21875 7.519531 7.515625 C 7.519531 7.515625 6.886719 8.257812 6.125 7.625 C 5.136719 7.8125 4.757812 6.957031 4.757812 6.957031 Z M 4.757812 6.957031 "/>
<path fill-rule="nonzero" fill="rgb(23.137255%, 67.058824%, 29.411765%)" fill-opacity="1" d="M 6 1.621094 C 6 1.621094 5.085938 3.140625 4.378906 3.996094 C 4.378906 4.070312 4.65625 4.441406 5.136719 4.328125 C 5.289062 4.773438 5.796875 4.847656 5.976562 4.625 C 6.277344 4.921875 6.8125 4.699219 6.8125 4.328125 C 7.242188 4.515625 7.570312 4.070312 7.597656 3.996094 C 6.9375 3.140625 6 1.621094 6 1.621094 Z M 6 1.621094 "/>
<path fill-rule="nonzero" fill="rgb(23.137255%, 67.058824%, 29.411765%)" fill-opacity="1" d="M 6.914062 4.746094 C 6.761719 5.082031 6.277344 5.042969 6.125 4.785156 C 5.695312 4.933594 5.339844 4.636719 5.265625 4.375 C 4.832031 5.007812 4.300781 5.675781 3.667969 6.453125 C 3.667969 6.527344 3.945312 7.273438 4.730469 7.121094 C 5.085938 7.644531 5.695312 7.679688 6.023438 7.347656 C 6.480469 7.679688 6.964844 7.605469 7.242188 7.160156 C 8.105469 7.308594 8.359375 6.527344 8.359375 6.453125 C 7.75 5.933594 6.914062 4.746094 6.914062 4.746094 Z M 6.914062 4.746094 "/>
</svg>
