<?xml version="1.0" encoding="UTF-8"?>
<svg xmlns="http://www.w3.org/2000/svg" xmlns:xlink="http://www.w3.org/1999/xlink" width="12" height="12" viewBox="0 0 12 12" version="1.1">
<g id="surface1">
<path style=" stroke:none;fill-rule:evenodd;fill:rgb(99.607843%,99.607843%,99.607843%);fill-opacity:1;" d="M 2.589844 2.910156 C 2.496094 2.914062 2.402344 2.949219 2.332031 3.019531 C 2.265625 3.089844 2.226562 3.179688 2.226562 3.277344 L 2.226562 8.722656 C 2.226562 8.820312 2.265625 8.910156 2.332031 8.980469 C 2.402344 9.050781 2.496094 9.085938 2.589844 9.089844 L 9.410156 9.089844 C 9.503906 9.085938 9.597656 9.050781 9.667969 8.980469 C 9.734375 8.910156 9.773438 8.820312 9.773438 8.722656 L 9.773438 3.277344 C 9.773438 3.179688 9.734375 3.089844 9.667969 3.019531 C 9.597656 2.949219 9.503906 2.914062 9.410156 2.910156 Z M 2.589844 2.910156 "/>
<path style=" stroke:none;fill-rule:nonzero;fill:rgb(90.588236%,15.294118%,11.764706%);fill-opacity:1;" d="M 9.410156 3.277344 L 2.589844 3.277344 L 2.589844 8.722656 L 9.410156 8.722656 Z M 9.410156 3.277344 "/>
<path style=" stroke:none;fill-rule:nonzero;fill:rgb(99.607843%,99.607843%,99.607843%);fill-opacity:1;" d="M 8.902344 3.851562 L 8.902344 8.113281 L 7.582031 8.113281 L 7.582031 6.058594 L 6.515625 8.113281 L 5.75 8.113281 L 5.34375 5.929688 L 4.683594 8.113281 L 3.292969 8.113281 L 4.53125 4.484375 L 6.269531 4.484375 L 6.507812 5.769531 L 7.503906 3.851562 Z M 8.902344 3.851562 "/>
<path style=" stroke:none;fill-rule:nonzero;fill:rgb(99.607843%,99.607843%,99.607843%);fill-opacity:1;" d="M 6.246094 4.359375 L 6.152344 3.851562 L 4.75 3.851562 L 4.574219 4.359375 Z M 6.246094 4.359375 "/>
<path style=" stroke:none;fill-rule:nonzero;fill:rgb(99.607843%,99.607843%,99.607843%);fill-opacity:1;" d="M 3.3125 3.847656 L 3.753906 3.847656 L 3.664062 4.019531 L 3.402344 4.019531 L 3.015625 4.761719 L 2.835938 4.761719 Z M 3.3125 3.847656 "/>
<path style=" stroke:none;fill-rule:nonzero;fill:rgb(99.607843%,99.607843%,99.607843%);fill-opacity:1;" d="M 2.742188 4.484375 L 2.914062 4.484375 L 2.980469 4.359375 L 2.742188 4.359375 Z M 2.742188 4.484375 "/>
<path style=" stroke:none;fill-rule:nonzero;fill:rgb(99.607843%,99.607843%,99.607843%);fill-opacity:1;" d="M 4.574219 4.359375 L 4.53125 4.484375 L 3.226562 4.484375 L 3.292969 4.359375 Z M 4.574219 4.359375 "/>
<path style=" stroke:none;fill-rule:nonzero;fill:rgb(99.607843%,99.607843%,99.607843%);fill-opacity:1;" d="M 3.578125 4.308594 L 3.882812 4.308594 L 3.945312 4.191406 L 3.757812 4.191406 L 3.875 3.964844 L 4.0625 3.964844 L 4.125 3.847656 L 3.820312 3.847656 Z M 3.578125 4.308594 "/>
<path style=" stroke:none;fill-rule:nonzero;fill:rgb(99.607843%,99.607843%,99.607843%);fill-opacity:1;" d="M 3.949219 4.3125 L 4.285156 4.3125 L 4.347656 4.191406 L 4.128906 4.191406 L 4.167969 4.121094 L 4.308594 4.121094 L 4.351562 4.039062 L 4.210938 4.039062 L 4.246094 3.964844 L 4.464844 3.964844 L 4.527344 3.847656 L 4.191406 3.847656 Z M 3.949219 4.3125 "/>
</g>
</svg>
