<?xml version="1.0" encoding="UTF-8"?>
<svg xmlns="http://www.w3.org/2000/svg" xmlns:xlink="http://www.w3.org/1999/xlink" width="12" height="12" viewBox="0 0 12 12" version="1.1">
<defs>
<filter id="alpha" filterUnits="objectBoundingBox" x="0%" y="0%" width="100%" height="100%">
  <feColorMatrix type="matrix" in="SourceGraphic" values="0 0 0 0 1 0 0 0 0 1 0 0 0 0 1 0 0 0 1 0"/>
</filter>
<mask id="mask0">
  <g filter="url(#alpha)">
<rect x="0" y="0" width="12" height="12" style="fill:rgb(0%,0%,0%);fill-opacity:0.543554;stroke:none;"/>
  </g>
</mask>
<clipPath id="clip1">
  <rect x="0" y="0" width="12" height="12"/>
</clipPath>
<g id="surface5" clip-path="url(#clip1)">
<path style=" stroke:none;fill-rule:nonzero;fill:rgb(99.607843%,99.607843%,99.607843%);fill-opacity:1;" d="M 2.527344 2.933594 C 1.960938 2.933594 1.488281 3.394531 1.488281 3.964844 L 1.488281 8.03125 C 1.488281 8.601562 1.960938 9.066406 2.527344 9.066406 L 9.46875 9.066406 C 10.039062 9.066406 10.511719 8.601562 10.511719 8.03125 L 10.511719 3.964844 C 10.507812 3.394531 10.035156 2.933594 9.46875 2.933594 Z M 2.527344 2.933594 "/>
</g>
</defs>
<g id="surface1">
<use xlink:href="#surface5" mask="url(#mask0)"/>
<path style=" stroke:none;fill-rule:nonzero;fill:rgb(4.313726%,48.627451%,75.686276%);fill-opacity:1;" d="M 10.089844 3.964844 C 10.089844 3.628906 9.8125 3.355469 9.46875 3.355469 L 2.527344 3.355469 C 2.1875 3.355469 1.910156 3.628906 1.910156 3.964844 L 1.910156 8.03125 C 1.910156 8.371094 2.1875 8.644531 2.527344 8.644531 L 9.46875 8.644531 C 9.8125 8.644531 10.089844 8.371094 10.089844 8.03125 L 10.089844 3.964844 "/>
<path style=" stroke:none;fill-rule:nonzero;fill:rgb(99.607843%,99.607843%,99.607843%);fill-opacity:1;" d="M 6.847656 3.792969 L 9.460938 3.792969 C 9.5625 3.792969 9.648438 3.875 9.648438 3.976562 L 9.648438 7.617188 C 9.648438 7.71875 9.5625 7.800781 9.460938 7.800781 L 6.953125 7.800781 L 6.953125 4.003906 C 6.953125 3.914062 6.882812 3.792969 6.847656 3.792969 "/>
<path style=" stroke:none;fill-rule:nonzero;fill:rgb(99.607843%,99.607843%,99.607843%);fill-opacity:1;" d="M 3.59375 5.539062 L 3.59375 7.804688 L 2.546875 7.804688 C 2.449219 7.804688 2.359375 7.71875 2.359375 7.617188 L 2.359375 4.035156 C 2.359375 3.933594 2.429688 3.84375 2.527344 3.84375 C 2.601562 3.84375 2.664062 3.878906 2.691406 3.929688 L 3.59375 5.539062 "/>
<path style=" stroke:none;fill-rule:nonzero;fill:rgb(99.607843%,99.607843%,99.607843%);fill-opacity:1;" d="M 5.851562 6.820312 L 4.8125 6.820312 C 4.613281 6.820312 4.472656 6.785156 4.355469 6.589844 L 2.832031 3.871094 C 2.824219 3.84375 2.796875 3.808594 2.761719 3.789062 L 3.78125 3.789062 C 3.980469 3.789062 4.125 3.828125 4.238281 4.023438 L 5.726562 6.691406 C 5.773438 6.777344 5.816406 6.820312 5.851562 6.820312 "/>
<path style=" stroke:none;fill-rule:nonzero;fill:rgb(99.607843%,99.607843%,99.607843%);fill-opacity:1;" d="M 5.40625 5.773438 L 5.871094 6.601562 C 5.933594 6.71875 6.085938 6.898438 6.238281 6.621094 L 6.8125 5.605469 L 6.8125 4.148438 C 6.8125 3.753906 6.507812 3.796875 6.355469 4.070312 Z M 5.40625 5.773438 "/>
</g>
</svg>
