<?xml version="1.0" encoding="UTF-8"?>
<svg xmlns="http://www.w3.org/2000/svg" xmlns:xlink="http://www.w3.org/1999/xlink" width="24" height="24" viewBox="0 0 24 24">
<defs>
<filter id="filter-remove-color" x="0%" y="0%" width="100%" height="100%">
<feColorMatrix color-interpolation-filters="sRGB" values="0 0 0 0 1 0 0 0 0 1 0 0 0 0 1 0 0 0 1 0" />
</filter>
<mask id="mask-0">
<g filter="url(#filter-remove-color)">
<rect x="-2.4" y="-2.4" width="28.8" height="28.8" fill="rgb(0%, 0%, 0%)" fill-opacity="0.426087"/>
</g>
</mask>
<clipPath id="clip-0">
<path clip-rule="nonzero" d="M 6 8 L 18 8 L 18 24 L 6 24 Z M 6 8 "/>
</clipPath>
<clipPath id="clip-1">
<rect x="0" y="0" width="24" height="24"/>
</clipPath>
<g id="source-7" clip-path="url(#clip-1)">
<g clip-path="url(#clip-0)">
<path fill-rule="nonzero" fill="rgb(55.294118%, 55.294118%, 55.294118%)" fill-opacity="1" d="M 12.386719 8.328125 C 12.1875 8.324219 11.984375 8.390625 11.828125 8.511719 C 11.671875 8.632812 11.554688 8.8125 11.511719 9.007812 L 10.667969 12.628906 C 10.644531 12.679688 10.625 12.734375 10.613281 12.792969 L 9.898438 15.917969 L 9.898438 15.921875 L 8.957031 19.972656 L 6.796875 19.972656 C 6.644531 19.972656 6.496094 20.066406 6.386719 20.230469 C 6.277344 20.390625 6.214844 20.621094 6.214844 20.851562 L 6.214844 21.882812 C 6.214844 22.113281 6.277344 22.34375 6.386719 22.503906 C 6.496094 22.667969 6.644531 22.761719 6.796875 22.761719 L 9.441406 22.761719 C 9.917969 23.535156 10.761719 24.054688 11.726562 24.054688 C 12.332031 24.054688 12.894531 23.847656 13.34375 23.511719 L 13.347656 23.511719 C 13.351562 23.507812 13.355469 23.503906 13.359375 23.503906 C 13.359375 23.5 13.363281 23.496094 13.367188 23.496094 C 13.636719 23.292969 13.859375 23.039062 14.027344 22.761719 L 16.378906 22.761719 C 16.53125 22.761719 16.683594 22.667969 16.789062 22.503906 C 16.898438 22.34375 16.960938 22.113281 16.960938 21.882812 L 16.960938 20.851562 C 16.960938 20.621094 16.898438 20.390625 16.789062 20.230469 C 16.683594 20.066406 16.53125 19.972656 16.378906 19.972656 L 15.039062 19.972656 L 15.167969 19.328125 L 16.992188 10.226562 C 17.046875 9.949219 16.957031 9.648438 16.761719 9.445312 C 16.738281 9.421875 16.71875 9.402344 16.695312 9.382812 C 16.683594 9.371094 16.667969 9.359375 16.652344 9.351562 C 16.550781 9.273438 16.433594 9.214844 16.308594 9.1875 L 15.679688 9.050781 L 15.679688 9.054688 L 12.558594 8.347656 C 12.5 8.335938 12.445312 8.328125 12.386719 8.328125 Z M 12.386719 8.328125 "/>
</g>
</g>
<mask id="mask-1">
<g filter="url(#filter-remove-color)">
<rect x="-2.4" y="-2.4" width="28.8" height="28.8" fill="rgb(0%, 0%, 0%)" fill-opacity="0.426087"/>
</g>
</mask>
<clipPath id="clip-2">
<rect x="0" y="0" width="24" height="24"/>
</clipPath>
<g id="source-13" clip-path="url(#clip-2)">
<path fill-rule="nonzero" fill="rgb(0%, 0%, 0%)" fill-opacity="1" d="M 14.789062 9.769531 L 16.109375 10.054688 L 13.953125 20.878906 L 12.453125 20.9375 Z M 14.789062 9.769531 "/>
</g>
</defs>
<g mask="url(#mask-0)">
<use xlink:href="#source-7"/>
</g>
<path fill-rule="nonzero" fill="rgb(0%, 0%, 0%)" fill-opacity="1" d="M 16.121094 10.0625 L 12.355469 9.214844 L 9.539062 21.304688 L 9.984375 21.5 C 10.117188 22.367188 10.472656 23.03125 11.738281 23.167969 C 12.859375 23.082031 13.410156 22.429688 13.566406 21.449219 L 13.914062 21.0625 Z M 16.121094 10.0625 "/>
<path fill-rule="nonzero" fill="rgb(100%, 83.137255%, 0%)" fill-opacity="1" d="M 11.03125 14.898438 L 14.976562 15.765625 L 13.777344 21.777344 L 9.617188 20.949219 Z M 11.03125 14.898438 "/>
<g mask="url(#mask-1)">
<use xlink:href="#source-13"/>
</g>
<path fill="none" stroke-width="25" stroke-linecap="butt" stroke-linejoin="miter" stroke="rgb(0%, 0%, 0%)" stroke-opacity="1" stroke-miterlimit="4" d="M 173.603516 516.5625 L 388.460286 516.5625 " transform="matrix(0.0413793, 0, 0, 0.0413793, 0, 0)"/>
<path fill-rule="nonzero" fill="rgb(99.607843%, 99.607843%, 99.607843%)" fill-opacity="1" stroke-width="20.5723" stroke-linecap="round" stroke-linejoin="round" stroke="rgb(0%, 0%, 0%)" stroke-opacity="1" stroke-miterlimit="10" d="M 316.809896 516.373698 C 316.809896 525.341797 313.222656 533.837891 306.992188 540.16276 C 300.667318 546.48763 292.076823 549.980469 283.203125 549.980469 C 274.329427 549.980469 265.738932 546.48763 259.414062 540.16276 C 253.089193 533.837891 249.596354 525.341797 249.596354 516.373698 C 249.596354 507.5 253.089193 498.909505 259.414062 492.679036 C 265.738932 486.354167 274.329427 482.766927 283.203125 482.766927 C 292.076823 482.766927 300.667318 486.354167 306.992188 492.679036 C 313.222656 498.909505 316.809896 507.5 316.809896 516.373698 Z M 316.809896 516.373698 " transform="matrix(0.0413793, 0, 0, 0.0413793, 0, 0)"/>
</svg>
