<?xml version="1.0" encoding="UTF-8"?>
<svg xmlns="http://www.w3.org/2000/svg" xmlns:xlink="http://www.w3.org/1999/xlink" width="12" height="12" viewBox="0 0 12 12" version="1.1">
<defs>
<filter id="alpha" filterUnits="objectBoundingBox" x="0%" y="0%" width="100%" height="100%">
  <feColorMatrix type="matrix" in="SourceGraphic" values="0 0 0 0 1 0 0 0 0 1 0 0 0 0 1 0 0 0 1 0"/>
</filter>
<mask id="mask0">
  <g filter="url(#alpha)">
<rect x="0" y="0" width="12" height="12" style="fill:rgb(0%,0%,0%);fill-opacity:0.426087;stroke:none;"/>
  </g>
</mask>
<clipPath id="clip1">
  <rect x="0" y="0" width="12" height="12"/>
</clipPath>
<g id="surface5" clip-path="url(#clip1)">
<path style=" stroke:none;fill-rule:nonzero;fill:rgb(55.29412%,55.29412%,55.29412%);fill-opacity:1;" d="M 5.394531 4.378906 C 5.277344 4.378906 5.160156 4.425781 5.078125 4.507812 C 4.992188 4.59375 4.945312 4.707031 4.945312 4.828125 L 4.945312 9.667969 C 4.851562 9.757812 4.769531 9.855469 4.699219 9.964844 L 3.925781 9.964844 C 3.804688 9.964844 3.691406 10.015625 3.605469 10.097656 C 3.523438 10.183594 3.472656 10.296875 3.472656 10.414062 L 3.472656 10.933594 C 3.472656 11.050781 3.523438 11.167969 3.605469 11.25 C 3.691406 11.335938 3.804688 11.382812 3.925781 11.382812 L 4.710938 11.382812 C 4.949219 11.769531 5.375 12.027344 5.859375 12.027344 C 6.34375 12.027344 6.769531 11.769531 7.011719 11.382812 L 7.792969 11.382812 C 7.914062 11.382812 8.027344 11.335938 8.113281 11.25 C 8.195312 11.167969 8.246094 11.050781 8.246094 10.933594 L 8.246094 10.414062 C 8.246094 10.296875 8.195312 10.183594 8.113281 10.097656 C 8.027344 10.015625 7.914062 9.964844 7.792969 9.964844 L 7.015625 9.964844 C 6.945312 9.851562 6.859375 9.746094 6.757812 9.65625 L 6.757812 4.828125 C 6.757812 4.707031 6.710938 4.59375 6.625 4.507812 C 6.542969 4.425781 6.425781 4.378906 6.308594 4.378906 Z M 5.394531 4.378906 "/>
</g>
</defs>
<g id="surface1">
<use xlink:href="#surface5" mask="url(#mask0)"/>
<path style="fill:none;stroke-width:25;stroke-linecap:butt;stroke-linejoin:miter;stroke:rgb(0%,0%,0%);stroke-opacity:1;stroke-miterlimit:4;" d="M 189.557292 516.5625 L 376.848958 516.5625 " transform="matrix(0.0206897,0,0,0.0206897,0,0)"/>
<path style=" stroke:none;fill-rule:nonzero;fill:rgb(100%,83.137256%,0%);fill-opacity:1;" d="M 6.308594 7.605469 L 5.394531 7.605469 L 5.394531 10.171875 L 6.308594 10.171875 Z M 6.308594 7.605469 "/>
<path style="fill-rule:nonzero;fill:rgb(99.607843%,99.607843%,99.607843%);fill-opacity:1;stroke-width:20.5723;stroke-linecap:round;stroke-linejoin:round;stroke:rgb(0%,0%,0%);stroke-opacity:1;stroke-miterlimit:10;" d="M 316.809896 516.373698 C 316.809896 525.247396 313.222656 533.932292 306.992188 540.16276 C 300.572917 546.393229 292.076823 549.980469 283.203125 549.980469 C 274.329427 549.980469 265.644531 546.393229 259.414062 540.16276 C 253.183594 533.932292 249.596354 525.247396 249.596354 516.373698 C 249.596354 507.5 253.183594 499.003906 259.414062 492.584635 C 265.644531 486.354167 274.329427 482.766927 283.203125 482.766927 C 292.076823 482.766927 300.572917 486.354167 306.992188 492.584635 C 313.222656 499.003906 316.809896 507.5 316.809896 516.373698 Z M 316.809896 516.373698 " transform="matrix(0.0206897,0,0,0.0206897,0,0)"/>
<path style=" stroke:none;fill-rule:nonzero;fill:rgb(0%,0%,0%);fill-opacity:1;" d="M 6.308594 4.839844 L 5.394531 4.839844 L 5.394531 6.222656 L 6.308594 6.222656 Z M 6.308594 4.839844 "/>
<path style=" stroke:none;fill-rule:nonzero;fill:rgb(0%,0%,0%);fill-opacity:1;" d="M 6.308594 6.199219 L 5.394531 6.199219 L 5.394531 7.605469 L 6.308594 7.605469 Z M 6.308594 6.199219 "/>
</g>
</svg>
