<?xml version="1.0" encoding="UTF-8"?>
<svg xmlns="http://www.w3.org/2000/svg" xmlns:xlink="http://www.w3.org/1999/xlink" width="32" height="32" viewBox="0 0 32 32">
<defs>
<filter id="filter-remove-color" x="0%" y="0%" width="100%" height="100%">
<feColorMatrix color-interpolation-filters="sRGB" values="0 0 0 0 1 0 0 0 0 1 0 0 0 0 1 0 0 0 1 0" />
</filter>
<mask id="mask-0">
<g filter="url(#filter-remove-color)">
<rect x="-3.2" y="-3.2" width="38.4" height="38.4" fill="rgb(0%, 0%, 0%)" fill-opacity="0.552"/>
</g>
</mask>
<clipPath id="clip-0">
<rect x="0" y="0" width="32" height="32"/>
</clipPath>
<g id="source-6" clip-path="url(#clip-0)">
<path fill-rule="nonzero" fill="rgb(55.294118%, 55.294118%, 55.294118%)" fill-opacity="1" d="M 12.183594 0.179688 C 11.945312 0.179688 11.707031 0.246094 11.5 0.363281 C 11.292969 0.484375 11.125 0.65625 11.003906 0.867188 C 10.886719 1.074219 10.824219 1.308594 10.828125 1.546875 C 10.828125 1.789062 10.894531 2.023438 11.015625 2.226562 L 13.574219 6.546875 L 13.574219 28.382812 C 13.574219 28.742188 13.714844 29.085938 13.96875 29.339844 C 14.222656 29.59375 14.566406 29.738281 14.925781 29.738281 L 16.308594 29.738281 C 16.667969 29.738281 17.011719 29.59375 17.265625 29.339844 C 17.519531 29.085938 17.660156 28.742188 17.660156 28.382812 L 17.660156 6.53125 L 20.308594 2.25 C 20.4375 2.042969 20.507812 1.808594 20.511719 1.566406 C 20.519531 1.328125 20.457031 1.085938 20.339844 0.875 C 20.222656 0.664062 20.050781 0.488281 19.84375 0.367188 C 19.636719 0.246094 19.398438 0.179688 19.15625 0.179688 Z M 12.183594 0.179688 "/>
</g>
</defs>
<g mask="url(#mask-0)">
<use xlink:href="#source-6"/>
</g>
<path fill="none" stroke-width="25" stroke-linecap="butt" stroke-linejoin="miter" stroke="rgb(0%, 0%, 0%)" stroke-opacity="1" stroke-miterlimit="4" d="M 283.061523 514.580078 L 283.061523 68.818359 " transform="matrix(0.0551724, 0, 0, 0.0551724, 0, 0)"/>
<path fill-rule="nonzero" fill="rgb(90.980392%, 0%, 0%)" fill-opacity="1" d="M 19.15625 1.542969 L 12.183594 1.542969 L 15.59375 7.304688 "/>
<path fill-rule="nonzero" fill="rgb(99.607843%, 99.607843%, 99.607843%)" fill-opacity="1" d="M 17.335938 2.558594 L 14.007812 2.558594 L 15.632812 5.304688 "/>
</svg>
