<svg width="32" height="32" viewBox="0 0 16 16" fill="none" xmlns="http://www.w3.org/2000/svg">
<path d="M9.95711 3.99673C9.85298 3.99734 9.75083 4.0253 9.6609 4.07781C9.57098 4.13033 9.49643 4.20555 9.44473 4.29594L8.00107 6.8208L6.56376 4.29672C6.50834 4.19942 6.42655 4.11976 6.32783 4.06692C6.2291 4.01408 6.11746 3.9902 6.00576 3.99804C5.89406 4.00588 5.78685 4.04512 5.69647 4.11124C5.6061 4.17736 5.53625 4.26767 5.49497 4.37175L3.318 9.86238H3.03894C2.88134 9.86239 2.7302 9.925 2.61876 10.0364C2.50732 10.1479 2.44471 10.299 2.4447 10.4566V11.3457C2.44471 11.5033 2.50732 11.6545 2.61876 11.7659C2.7302 11.8774 2.88134 11.94 3.03894 11.94H6.54733C6.70493 11.94 6.85607 11.8774 6.96751 11.7659C7.07894 11.6545 7.14155 11.5033 7.14157 11.3457V11.1417L7.4924 11.7181C7.54544 11.8052 7.61998 11.8772 7.70888 11.9271C7.79777 11.9771 7.89802 12.0033 7.99998 12.0033C8.10194 12.0033 8.20219 11.9771 8.29109 11.9271C8.37998 11.8772 8.45452 11.8052 8.50756 11.7181L8.8584 11.1417V11.3457C8.85841 11.5033 8.92102 11.6545 9.03246 11.7659C9.14389 11.8774 9.29504 11.94 9.45263 11.94H12.961C13.1186 11.94 13.2698 11.8774 13.3812 11.7659C13.4926 11.6545 13.5552 11.5033 13.5553 11.3457V10.4566C13.5552 10.299 13.4926 10.1479 13.3812 10.0364C13.2698 9.925 13.1186 9.86239 12.961 9.86238H12.6826L10.5132 4.37237C10.4692 4.26102 10.3925 4.16558 10.2933 4.09854C10.194 4.03151 10.0769 3.99603 9.95711 3.99673V3.99673Z" fill="#FEFEFE"/>
<path d="M12.961 11.3457V10.4567H12.2784L9.96058 4.59076L7.99998 8.01983L6.04731 4.59076L3.72158 10.4567H3.03894V11.3457H6.54739V10.4567H6.0235L6.53151 8.99616L7.99998 11.4092L9.46845 8.99616L9.97646 10.4567H9.45257V11.3457H12.961Z" fill="#FF0013"/>
</svg>
