<?xml version="1.0" encoding="UTF-8"?>
<svg xmlns="http://www.w3.org/2000/svg" xmlns:xlink="http://www.w3.org/1999/xlink" width="32" height="32" viewBox="0 0 32 32">
<path fill-rule="evenodd" fill="rgb(99.607843%, 99.607843%, 99.607843%)" fill-opacity="1" d="M 15.023438 7.363281 C 14.207031 7.96875 13.332031 8.707031 12.625 9.363281 C 12.5 9.558594 12.421875 9.777344 12.386719 10.003906 C 11.65625 9.644531 10.910156 9.238281 10.234375 8.933594 C 9.726562 8.703125 9.136719 8.746094 8.667969 9.046875 C 8.199219 9.351562 7.917969 9.867188 7.917969 10.425781 L 7.917969 13.628906 C 8.003906 13.992188 8.214844 14.316406 8.511719 14.546875 C 8.179688 14.816406 7.964844 15.210938 7.917969 15.636719 L 7.917969 23.261719 C 7.917969 23.695312 8.089844 24.113281 8.398438 24.421875 C 8.707031 24.730469 9.125 24.902344 9.558594 24.902344 L 12.808594 24.902344 C 13.214844 24.734375 13.535156 24.414062 13.703125 24.007812 C 13.867188 24.414062 14.1875 24.734375 14.59375 24.902344 L 17.40625 24.902344 C 17.792969 24.738281 18.105469 24.425781 18.269531 24.039062 C 18.4375 24.460938 18.769531 24.792969 19.191406 24.960938 L 22.441406 24.960938 C 22.875 24.960938 23.292969 24.789062 23.601562 24.480469 C 23.910156 24.171875 24.082031 23.753906 24.082031 23.320312 L 24.082031 15.636719 C 24.035156 15.210938 23.820312 14.816406 23.488281 14.546875 C 23.785156 14.316406 23.996094 13.992188 24.082031 13.628906 L 24.082031 10.425781 C 24.082031 9.867188 23.800781 9.351562 23.332031 9.046875 C 22.863281 8.746094 22.273438 8.703125 21.765625 8.933594 C 21.121094 9.226562 20.40625 9.617188 19.710938 9.957031 C 19.640625 9.738281 19.527344 9.535156 19.375 9.363281 C 18.675781 8.71875 17.878906 8.035156 16.980469 7.367188 C 16.402344 6.933594 15.605469 6.933594 15.023438 7.363281 Z M 15.023438 7.363281 "/>
<path fill-rule="evenodd" fill="rgb(20%, 60%, 40%)" fill-opacity="1" d="M 17.40625 23.261719 L 17.40625 19.574219 C 17.40625 18.601562 17.507812 17.644531 18.105469 16.683594 C 19.078125 15.121094 20.828125 14.363281 22.441406 13.628906 L 22.441406 10.425781 C 20.074219 11.5 17.511719 12.609375 16 14.820312 C 14.488281 12.609375 11.925781 11.5 9.558594 10.425781 L 9.558594 13.628906 C 11.171875 14.363281 12.921875 15.121094 13.894531 16.683594 C 14.492188 17.644531 14.59375 18.601562 14.59375 19.574219 L 14.59375 23.261719 Z M 16 8.679688 C 16.84375 9.308594 17.597656 9.953125 18.261719 10.566406 C 17.398438 11.078125 16.621094 11.671875 16 12.394531 C 15.378906 11.671875 14.601562 11.078125 13.738281 10.566406 C 14.402344 9.953125 15.246094 9.238281 16 8.679688 Z M 19.191406 19.476562 C 19.191406 18.847656 19.253906 18.230469 19.640625 17.609375 C 20.015625 17.007812 20.679688 16.433594 21.867188 15.894531 L 22.441406 15.636719 L 22.441406 23.320312 L 19.191406 23.320312 Z M 12.808594 19.476562 C 12.808594 18.847656 12.746094 18.230469 12.359375 17.609375 C 11.984375 17.007812 11.320312 16.433594 10.132812 15.894531 L 9.558594 15.636719 L 9.558594 23.261719 L 12.808594 23.261719 Z M 12.808594 19.476562 "/>
</svg>
