<?xml version="1.0" encoding="UTF-8"?>
<svg xmlns="http://www.w3.org/2000/svg" xmlns:xlink="http://www.w3.org/1999/xlink" width="12" height="12" viewBox="0 0 12 12" version="1.1">
<g id="surface1">
<path style=" stroke:none;fill-rule:nonzero;fill:rgb(99.607843%,99.607843%,99.607843%);fill-opacity:1;" d="M 4.199219 3.507812 C 4.039062 3.507812 3.890625 3.648438 3.890625 3.804688 L 3.890625 8.195312 C 3.890625 8.351562 4.039062 8.492188 4.199219 8.492188 L 4.769531 8.492188 C 4.933594 8.492188 5.078125 8.351562 5.078125 8.195312 L 5.078125 6.710938 L 6.179688 6.710938 C 6.835938 6.710938 7.359375 6.574219 7.679688 6.21875 C 7.960938 5.910156 8.109375 5.507812 8.109375 5.074219 C 8.109375 4.816406 8.054688 4.570312 7.945312 4.347656 C 7.839844 4.128906 7.691406 3.941406 7.5 3.808594 C 7.316406 3.679688 7.09375 3.597656 6.84375 3.554688 C 6.84375 3.554688 6.84375 3.554688 6.839844 3.550781 C 6.65625 3.519531 6.425781 3.507812 6.128906 3.507812 Z M 5.078125 4.621094 L 6.175781 4.621094 C 6.425781 4.621094 6.597656 4.644531 6.628906 4.652344 C 6.710938 4.675781 6.761719 4.710938 6.820312 4.789062 C 6.871094 4.867188 6.902344 4.957031 6.902344 5.09375 C 6.902344 5.285156 6.855469 5.382812 6.769531 5.460938 C 6.703125 5.523438 6.519531 5.59375 6.1875 5.59375 L 5.078125 5.59375 Z M 5.078125 4.621094 "/>
</g>
</svg>
