<svg width="64" height="64" viewBox="0 0 1060 1060" fill="none" xmlns="http://www.w3.org/2000/svg">
<path opacity="0.372" d="M530.021 311.506C409.989 311.506 311.506 409.933 311.506 529.979C311.506 650.025 409.976 748.494 530.021 748.494C650.067 748.494 748.494 650.011 748.494 529.979C748.494 409.947 650.053 311.506 530.021 311.506ZM530.021 433.638C584.114 433.638 626.362 475.886 626.362 529.979C626.362 584.072 584.098 626.362 530.021 626.362C475.945 626.362 433.638 584.055 433.638 529.979C433.638 475.903 475.928 433.638 530.021 433.638Z" fill="#E4E4E4"/>
<path d="M696.877 530C696.877 574.258 679.295 616.704 648 648C616.704 679.295 574.258 696.877 530 696.877C485.742 696.877 443.296 679.295 412 648C380.705 616.704 363.123 574.258 363.123 530C363.123 485.742 380.705 443.296 412 412C443.296 380.705 485.742 363.123 530 363.123C574.258 363.123 616.704 380.705 648 412C679.295 443.296 696.877 485.742 696.877 530V530Z" stroke="black" stroke-width="30.629" stroke-linecap="round"/>
</svg>
