<?xml version="1.0" encoding="UTF-8"?>
<svg xmlns="http://www.w3.org/2000/svg" xmlns:xlink="http://www.w3.org/1999/xlink" width="32" height="32" viewBox="0 0 32 32">
<defs>
<filter id="filter-remove-color" x="0%" y="0%" width="100%" height="100%">
<feColorMatrix color-interpolation-filters="sRGB" values="0 0 0 0 1 0 0 0 0 1 0 0 0 0 1 0 0 0 1 0" />
</filter>
<mask id="mask-0">
<g filter="url(#filter-remove-color)">
<rect x="-3.2" y="-3.2" width="38.4" height="38.4" fill="rgb(0%, 0%, 0%)" fill-opacity="0.372"/>
</g>
</mask>
<clipPath id="clip-0">
<path clip-rule="nonzero" d="M 0 10 L 31 10 L 31 32 L 0 32 Z M 0 10 "/>
</clipPath>
<clipPath id="clip-1">
<rect x="0" y="0" width="32" height="32"/>
</clipPath>
<g id="source-7" clip-path="url(#clip-1)">
<g clip-path="url(#clip-0)">
<path fill-rule="nonzero" fill="rgb(89.411765%, 89.411765%, 89.411765%)" fill-opacity="1" d="M 24.425781 10.464844 C 24.28125 10.527344 23.457031 10.734375 23.316406 10.746094 C 23.234375 10.839844 22.601562 11.355469 22.441406 11.457031 L 22.421875 11.445312 L 22.40625 11.46875 L 22.414062 11.476562 C 22.394531 11.488281 22.390625 11.484375 22.40625 11.46875 L 14.910156 20.628906 L 4.03125 15.855469 C 3.6875 15.707031 3.304688 15.65625 2.933594 15.710938 C 2.5625 15.765625 2.207031 15.925781 1.921875 16.167969 C 1.636719 16.410156 1.421875 16.734375 1.308594 17.09375 C 1.195312 17.449219 1.183594 17.839844 1.277344 18.203125 C 1.277344 18.203125 2.464844 22.785156 3.25 25.800781 L 2.976562 25.800781 C 2.449219 25.800781 1.925781 26.019531 1.554688 26.390625 C 1.183594 26.761719 0.964844 27.285156 0.964844 27.8125 L 0.964844 29.191406 C 0.964844 29.71875 1.183594 30.242188 1.554688 30.617188 C 1.925781 30.988281 2.449219 31.207031 2.976562 31.207031 L 12.175781 31.207031 C 12.992188 32.25 14.25 32.925781 15.664062 32.925781 C 17.078125 32.925781 18.335938 32.25 19.152344 31.207031 L 28.347656 31.207031 C 28.875 31.207031 29.398438 30.988281 29.769531 30.617188 C 30.140625 30.242188 30.359375 29.71875 30.359375 29.191406 L 30.359375 27.8125 C 30.359375 27.285156 30.140625 26.761719 29.769531 26.390625 C 29.398438 26.019531 28.875 25.800781 28.347656 25.800781 L 26.695312 25.800781 L 20.042969 22.882812 L 26.582031 14.890625 C 26.5625 14.914062 26.558594 14.90625 26.5625 14.875 L 26.582031 14.890625 L 26.601562 14.867188 L 26.574219 14.84375 C 26.636719 14.605469 27.066406 13.636719 27.175781 13.484375 C 27.105469 13.300781 26.917969 12.175781 26.929688 11.984375 C 26.769531 11.867188 26.003906 11.023438 25.90625 10.859375 C 25.714844 10.851562 24.609375 10.558594 24.4375 10.472656 C 24.429688 10.46875 24.429688 10.46875 24.425781 10.464844 Z M 24.425781 10.464844 "/>
</g>
</g>
</defs>
<g mask="url(#mask-0)">
<use xlink:href="#source-7"/>
</g>
<path fill-rule="nonzero" fill="rgb(0%, 0%, 0%)" fill-opacity="1" stroke-width="1" stroke-linecap="butt" stroke-linejoin="miter" stroke="rgb(0%, 0%, 0%)" stroke-opacity="1" stroke-miterlimit="4" d="M 108.112793 514.863281 C 106.90918 509.978027 57.773438 320.727539 57.773438 320.727539 L 489.091797 509.978027 L 109.387207 521.022949 Z M 108.112793 514.863281 " transform="matrix(0.0551724, 0, 0, 0.0551724, 0, 0)"/>
<path fill="none" stroke-width="25" stroke-linecap="butt" stroke-linejoin="miter" stroke="rgb(0%, 0%, 0%)" stroke-opacity="1" stroke-miterlimit="4" d="M 53.312988 516.5625 L 513.093262 516.5625 " transform="matrix(0.0551724, 0, 0, 0.0551724, 0, 0)"/>
<path fill-rule="nonzero" fill="rgb(99.607843%, 99.607843%, 99.607843%)" fill-opacity="1" stroke-width="20.5723" stroke-linecap="round" stroke-linejoin="round" stroke="rgb(0%, 0%, 0%)" stroke-opacity="1" stroke-miterlimit="10" d="M 316.833496 516.420898 C 316.833496 525.341797 313.293457 533.837891 306.992188 540.13916 C 300.690918 546.44043 292.124023 549.980469 283.203125 549.980469 C 274.282227 549.980469 265.715332 546.44043 259.414062 540.13916 C 253.112793 533.837891 249.572754 525.341797 249.572754 516.420898 C 249.572754 507.5 253.112793 498.933105 259.414062 492.631836 C 265.715332 486.330566 274.282227 482.790527 283.203125 482.790527 C 292.124023 482.790527 300.690918 486.330566 306.992188 492.631836 C 313.293457 498.933105 316.833496 507.5 316.833496 516.420898 Z M 316.833496 516.420898 " transform="matrix(0.0551724, 0, 0, 0.0551724, 0, 0)"/>
<path fill="none" stroke-width="25" stroke-linecap="round" stroke-linejoin="miter" stroke="rgb(0%, 0%, 0%)" stroke-opacity="1" stroke-miterlimit="4" d="M 277.680664 441.159668 L 443.566895 238.38623 " transform="matrix(0.0551724, 0, 0, 0.0551724, 0, 0)"/>
</svg>
