<?xml version="1.0" encoding="UTF-8"?>
<svg xmlns="http://www.w3.org/2000/svg" xmlns:xlink="http://www.w3.org/1999/xlink" width="12" height="12" viewBox="0 0 12 12" version="1.1">
<g id="surface1">
<path style="fill:none;stroke-width:1;stroke-linecap:butt;stroke-linejoin:round;stroke:rgb(0%,0%,0%);stroke-opacity:1;stroke-miterlimit:4;" d="M 0.902125 7.773224 C 1.033237 8.680215 1.16435 9.57795 1.496502 10.327605 C 1.837394 11.077261 2.379326 11.845426 2.93874 12.271156 C 3.489412 12.696886 4.337274 12.974537 4.809279 12.900497 C 5.281284 12.826457 5.753289 11.873191 5.753289 11.873191 " transform="matrix(0,0.446897,-0.422069,0,9.202712,-0.200031)"/>
<path style="fill:none;stroke-width:1;stroke-linecap:butt;stroke-linejoin:round;stroke:rgb(0%,0%,0%);stroke-opacity:1;stroke-miterlimit:4;" d="M 3.419486 3.895377 C 3.340818 4.978213 3.262151 6.061048 3.419486 7.180904 C 3.594303 8.291504 3.900232 9.74454 4.415941 10.577491 C 4.949132 11.428951 5.928106 12.012016 6.59241 12.243391 C 7.256713 12.484021 7.990944 12.141586 8.401763 11.993506 C 8.803841 11.836171 8.917472 11.586286 9.031103 11.327146 " transform="matrix(0,0.446897,-0.422069,0,9.202712,-0.200031)"/>
<path style="fill:none;stroke-width:1;stroke-linecap:butt;stroke-linejoin:round;stroke:rgb(0%,0%,0%);stroke-opacity:1;stroke-miterlimit:4;" d="M 13.899749 10.596001 C 13.829823 11.179066 13.759896 11.762131 13.401522 12.169351 C 13.051888 12.567316 12.361362 12.909752 11.749503 13.011557 C 11.128904 13.113362 10.176153 13.085597 9.721629 12.789437 C 9.258365 12.493276 9.170957 11.845426 8.99614 11.234596 C 8.830064 10.614511 8.698951 9.938895 8.716433 9.068925 C 8.733915 8.198954 8.908731 7.106864 9.092289 6.005518 " transform="matrix(0,0.446897,-0.422069,0,9.202712,-0.200031)"/>
<path style="fill:none;stroke-width:1;stroke-linecap:butt;stroke-linejoin:round;stroke:rgb(0%,0%,0%);stroke-opacity:1;stroke-miterlimit:4;" d="M 17.500974 10.799611 C 17.317417 11.086516 17.133859 11.382676 16.784226 11.521501 C 16.425851 11.660326 15.883919 11.808406 15.411914 11.651071 C 14.939909 11.493736 14.371755 11.179066 13.952194 10.549725 C 13.532634 9.92964 13.139297 8.680215 12.868331 7.902794 C 12.606106 7.116119 12.509956 6.653369 12.34388 5.866693 C 12.160323 5.080018 12.002988 4.126753 11.828171 3.182742 " transform="matrix(0,0.446897,-0.422069,0,9.202712,-0.200031)"/>
<path style="fill:none;stroke-width:1;stroke-linecap:butt;stroke-linejoin:round;stroke:rgb(0%,0%,0%);stroke-opacity:1;stroke-miterlimit:4;" d="M 20.90116 9.957405 C 20.717602 10.364625 20.551526 10.753336 20.201893 10.993966 C 19.861 11.234596 19.310328 11.410441 18.838322 11.401186 C 18.383799 11.382676 17.780681 11.290126 17.422307 10.901416 C 17.063932 10.512705 16.801707 9.72603 16.696817 9.050415 C 16.591927 8.384055 16.688076 7.652909 16.792966 6.829214 C 16.880375 6.024028 17.081414 5.080018 17.273713 4.154518 " transform="matrix(0,0.446897,-0.422069,0,9.202712,-0.200031)"/>
<path style="fill:none;stroke-width:1;stroke-linecap:butt;stroke-linejoin:round;stroke:rgb(0%,0%,0%);stroke-opacity:1;stroke-miterlimit:4;" d="M 26.399146 5.653828 C 26.573963 6.347954 26.740039 7.051334 26.783743 7.828754 C 26.818707 8.61543 26.801225 9.679755 26.652631 10.37388 C 26.504036 11.049496 26.294256 11.614051 25.892178 11.928721 C 25.481358 12.252646 24.825796 12.298921 24.222678 12.271156 C 23.610819 12.252646 22.789181 12.150841 22.238508 11.771386 C 21.687835 11.401186 21.207089 10.744081 20.927382 10.02219 C 20.638935 9.3003 20.516563 8.78202 20.507822 7.458554 C 20.499081 6.144343 20.682639 4.108243 20.857456 2.081397 " transform="matrix(0,0.446897,-0.422069,0,9.202712,-0.200031)"/>
</g>
</svg>
