<?xml version="1.0" encoding="UTF-8"?>
<svg xmlns="http://www.w3.org/2000/svg" xmlns:xlink="http://www.w3.org/1999/xlink" width="12" height="12" viewBox="0 0 12 12" version="1.1">
<g id="surface1">
<path style=" stroke:none;fill-rule:evenodd;fill:rgb(99.607843%,99.607843%,99.607843%);fill-opacity:1;" d="M 3.398438 2.800781 C 3.269531 2.800781 3.144531 2.851562 3.054688 2.941406 C 2.964844 3.03125 2.914062 3.15625 2.914062 3.28125 L 2.914062 8.734375 C 2.914062 8.859375 2.964844 8.988281 3.054688 9.078125 C 3.144531 9.164062 3.269531 9.21875 3.398438 9.21875 L 8.617188 9.21875 C 8.742188 9.21875 8.871094 9.164062 8.957031 9.078125 C 9.046875 8.988281 9.101562 8.859375 9.097656 8.734375 L 9.097656 3.28125 C 9.101562 3.15625 9.046875 3.03125 8.957031 2.941406 C 8.871094 2.851562 8.742188 2.800781 8.617188 2.800781 Z M 3.398438 2.800781 "/>
<path style=" stroke:none;fill-rule:nonzero;fill:rgb(3.921569%,34.117648%,64.705884%);fill-opacity:1;" d="M 4.734375 8.722656 L 5.582031 8.722656 L 4.734375 5.382812 Z M 4.734375 8.722656 "/>
<path style=" stroke:none;fill-rule:nonzero;fill:rgb(3.921569%,34.117648%,64.705884%);fill-opacity:1;" d="M 6.414062 8.722656 L 7.265625 8.722656 L 7.265625 5.382812 Z M 6.414062 8.722656 "/>
<path style=" stroke:none;fill-rule:nonzero;fill:rgb(3.921569%,34.117648%,64.705884%);fill-opacity:1;" d="M 3.390625 3.277344 L 3.390625 8.722656 L 3.929688 8.722656 L 3.929688 4.480469 L 5.226562 4.480469 L 6.003906 7.375 L 6.773438 4.480469 L 8.070312 4.480469 L 8.070312 8.722656 L 8.609375 8.722656 L 8.609375 3.277344 Z M 3.390625 3.277344 "/>
<path style=" stroke:none;fill-rule:nonzero;fill:rgb(65.490198%,78.039217%,89.803922%);fill-opacity:1;" d="M 4.824219 3.277344 L 4.09375 3.277344 L 4.09375 3.652344 L 4.824219 3.652344 Z M 4.824219 3.277344 "/>
<path style=" stroke:none;fill-rule:nonzero;fill:rgb(65.490198%,78.039217%,89.803922%);fill-opacity:1;" d="M 6.171875 3.277344 L 5.441406 3.277344 L 5.441406 3.652344 L 6.171875 3.652344 Z M 6.171875 3.277344 "/>
<path style=" stroke:none;fill-rule:nonzero;fill:rgb(65.490198%,78.039217%,89.803922%);fill-opacity:1;" d="M 7.523438 3.277344 L 6.792969 3.277344 L 6.792969 3.652344 L 7.523438 3.652344 Z M 7.523438 3.277344 "/>
</g>
</svg>
