<?xml version="1.0" encoding="UTF-8"?>
<svg xmlns="http://www.w3.org/2000/svg" xmlns:xlink="http://www.w3.org/1999/xlink" width="24" height="24" viewBox="0 0 24 24">
<defs>
<filter id="filter-remove-color" x="0%" y="0%" width="100%" height="100%">
<feColorMatrix color-interpolation-filters="sRGB" values="0 0 0 0 1 0 0 0 0 1 0 0 0 0 1 0 0 0 1 0" />
</filter>
<mask id="mask-0">
<g filter="url(#filter-remove-color)">
<rect x="-2.4" y="-2.4" width="28.8" height="28.8" fill="rgb(0%, 0%, 0%)" fill-opacity="0.372"/>
</g>
</mask>
<clipPath id="clip-0">
<rect x="0" y="0" width="24" height="24"/>
</clipPath>
<g id="source-6" clip-path="url(#clip-0)">
<path fill-rule="nonzero" fill="rgb(89.411765%, 89.411765%, 89.411765%)" fill-opacity="1" d="M 8.90625 6.472656 C 9.929688 6.472656 10.503906 6.675781 10.769531 6.738281 C 11.035156 6.800781 11.019531 6.839844 11.664062 6.539062 C 11.773438 6.488281 11.890625 6.464844 12.011719 6.472656 C 12.128906 6.480469 12.246094 6.519531 12.34375 6.582031 C 12.445312 6.648438 12.527344 6.734375 12.585938 6.839844 C 12.640625 6.945312 12.671875 7.0625 12.671875 7.179688 L 12.671875 8.199219 C 12.671875 8.273438 12.660156 8.351562 12.632812 8.421875 L 13.542969 8.691406 C 13.660156 8.726562 13.765625 8.792969 13.851562 8.882812 C 13.9375 8.96875 13.996094 9.078125 14.027344 9.199219 C 14.054688 9.316406 14.054688 9.441406 14.023438 9.558594 C 13.988281 9.675781 13.925781 9.785156 13.839844 9.871094 C 13.269531 10.441406 13.019531 11.417969 12.964844 12.289062 C 12.957031 12.402344 12.957031 12.503906 12.957031 12.609375 C 13.28125 12.28125 13.722656 12.078125 14.207031 12.078125 L 16.550781 12.078125 C 17.3125 12.078125 17.875 12.828125 17.757812 13.515625 C 17.757812 13.519531 17.757812 13.527344 17.757812 13.53125 L 17.449219 15.113281 C 17.449219 15.125 17.445312 15.136719 17.441406 15.148438 C 17.308594 15.675781 16.902344 16.003906 16.386719 16.035156 C 16.347656 16.175781 16.203125 16.65625 15.949219 17.226562 C 15.800781 17.558594 15.628906 17.898438 15.390625 18.199219 C 15.152344 18.503906 14.808594 18.84375 14.257812 18.84375 L 7.480469 18.84375 C 6.667969 18.84375 5.96875 18.472656 5.429688 17.988281 C 4.890625 17.503906 4.480469 16.902344 4.152344 16.316406 C 3.5 15.148438 3.179688 13.996094 3.179688 13.996094 L 3.183594 13.996094 C 3.097656 13.734375 3.132812 13.460938 3.253906 13.222656 C 3.152344 13.097656 3.097656 12.9375 3.101562 12.777344 C 3.101562 12.613281 3.160156 12.457031 3.265625 12.332031 C 3.265625 12.332031 5.625 9.480469 7.46875 8.136719 C 7.601562 8.039062 7.761719 7.992188 7.925781 8.003906 C 8.089844 8.011719 8.242188 8.078125 8.363281 8.1875 C 8.472656 8.074219 8.582031 7.964844 8.707031 7.859375 C 8.542969 7.8125 8.40625 7.707031 8.3125 7.5625 C 8.21875 7.417969 8.183594 7.25 8.207031 7.082031 C 8.230469 6.910156 8.316406 6.757812 8.441406 6.644531 C 8.570312 6.535156 8.734375 6.472656 8.90625 6.472656 Z M 8.90625 6.472656 "/>
</g>
</defs>
<g mask="url(#mask-0)">
<use xlink:href="#source-6"/>
</g>
<path fill-rule="nonzero" fill="rgb(0%, 0%, 0%)" fill-opacity="1" d="M 7.582031 14.457031 C 7.683594 14.660156 7.886719 14.8125 8.140625 14.8125 L 12.269531 14.8125 C 12.675781 14.8125 12.828125 14.558594 12.984375 14.152344 L 13.1875 13.539062 C 13.339844 13.082031 13.746094 12.773438 14.207031 12.773438 L 16.550781 12.773438 C 16.90625 12.773438 17.109375 13.082031 17.058594 13.386719 L 16.753906 14.964844 C 16.703125 15.171875 16.5 15.324219 16.296875 15.324219 C 16.039062 15.324219 15.835938 15.476562 15.734375 15.730469 C 15.734375 15.730469 15.074219 18.125 14.257812 18.125 C 13.441406 18.125 8.703125 18.125 7.480469 18.125 C 5.082031 18.125 3.859375 13.792969 3.859375 13.792969 C 3.757812 13.589844 3.910156 13.335938 4.164062 13.335938 L 6 13.640625 C 6.664062 13.84375 7.375 13.945312 7.582031 14.457031 Z M 7.582031 14.457031 "/>
<path fill-rule="nonzero" fill="rgb(0%, 0%, 0%)" fill-opacity="1" d="M 3.808594 12.773438 C 3.808594 12.773438 6.203125 9.921875 7.886719 8.699219 C 7.886719 8.699219 6.5625 10.582031 6.613281 13.082031 C 5.390625 13.03125 3.808594 12.773438 3.808594 12.773438 Z M 3.808594 12.773438 "/>
<path fill-rule="nonzero" fill="rgb(0%, 0%, 0%)" fill-opacity="1" d="M 13.339844 9.359375 L 9.414062 8.1875 C 6.917969 10.023438 7.886719 13.539062 7.886719 13.539062 L 12.320312 13.996094 C 12.320312 13.945312 11.8125 10.890625 13.339844 9.359375 Z M 13.339844 9.359375 "/>
<path fill-rule="nonzero" fill="rgb(0%, 0%, 0%)" fill-opacity="1" d="M 11.964844 8.1875 L 11.964844 7.167969 C 10.535156 7.832031 10.792969 7.167969 8.90625 7.167969 C 10.179688 7.472656 9.824219 8.1875 11.964844 8.1875 Z M 11.964844 8.1875 "/>
</svg>
