<?xml version="1.0" encoding="UTF-8"?>
<svg xmlns="http://www.w3.org/2000/svg" xmlns:xlink="http://www.w3.org/1999/xlink" width="32" height="32" viewBox="0 0 32 32">
<path fill-rule="nonzero" fill="rgb(99.607843%, 99.607843%, 99.607843%)" fill-opacity="1" stroke-width="0.281048" stroke-linecap="butt" stroke-linejoin="miter" stroke="rgb(11.372549%, 44.313725%, 72.54902%)" stroke-opacity="1" stroke-miterlimit="10" d="M 8 11.84375 L 11.210938 11.84375 C 11.210938 11.84375 13.09375 10.130859 12.439453 7.421875 C 12.439453 7.421875 11.568359 4.15625 8 4.15625 C 4.431641 4.15625 3.560547 7.419922 3.560547 7.419922 C 2.90625 10.130859 4.789062 11.841797 4.789062 11.841797 Z M 8 11.84375 " transform="matrix(2, 0, 0, 2, 0, 0)"/>
<path fill-rule="nonzero" fill="rgb(13.333333%, 68.627451%, 13.333333%)" fill-opacity="1" d="M 14.351562 21.753906 L 10.960938 21.753906 L 10.960938 17.550781 L 14.351562 20.917969 Z M 14.351562 21.753906 "/>
<path fill-rule="nonzero" fill="rgb(10.980392%, 64.705882%, 10.980392%)" fill-opacity="1" d="M 21.03125 16.625 L 21.03125 12.242188 L 15.992188 17.214844 L 10.960938 12.242188 L 10.960938 16.625 L 15.992188 21.753906 Z M 21.03125 16.625 "/>
<path fill-rule="nonzero" fill="rgb(10.980392%, 64.705882%, 10.980392%)" fill-opacity="1" d="M 17.640625 21.753906 L 21.03125 21.753906 L 21.03125 17.550781 L 17.640625 20.917969 Z M 17.640625 21.753906 "/>
<path fill="none" stroke-width="0.201945" stroke-linecap="butt" stroke-linejoin="miter" stroke="rgb(11.372549%, 44.313725%, 72.54902%)" stroke-opacity="1" stroke-miterlimit="10" d="M 8.003906 11.339844 L 10.935547 11.339844 C 10.935547 11.339844 12.544922 9.734375 11.898438 7.5 C 11.898438 7.5 10.970703 4.638672 8.001953 4.638672 C 5.03125 4.638672 4.101562 7.5 4.101562 7.5 C 3.537109 9.75 5.017578 11.339844 5.017578 11.339844 Z M 8.003906 11.339844 " transform="matrix(2, 0, 0, 2, 0, 0)"/>
</svg>
