<?xml version="1.0" encoding="UTF-8"?>
<svg xmlns="http://www.w3.org/2000/svg" xmlns:xlink="http://www.w3.org/1999/xlink" width="48" height="48" viewBox="0 0 48 48">
<defs>
<filter id="filter-remove-color" x="0%" y="0%" width="100%" height="100%">
<feColorMatrix color-interpolation-filters="sRGB" values="0 0 0 0 1 0 0 0 0 1 0 0 0 0 1 0 0 0 1 0" />
</filter>
<mask id="mask-0">
<g filter="url(#filter-remove-color)">
<rect x="-4.8" y="-4.8" width="57.6" height="57.6" fill="rgb(0%, 0%, 0%)" fill-opacity="0.372"/>
</g>
</mask>
<clipPath id="clip-0">
<rect x="0" y="0" width="48" height="48"/>
</clipPath>
<g id="source-6" clip-path="url(#clip-0)">
<path fill-rule="nonzero" fill="rgb(89.411765%, 89.411765%, 89.411765%)" fill-opacity="1" d="M 24 20.707031 C 22.199219 20.707031 20.707031 22.203125 20.707031 24 C 20.707031 25.796875 22.199219 27.292969 24 27.292969 C 25.796875 27.292969 27.292969 25.796875 27.292969 24 C 27.292969 22.203125 25.796875 20.707031 24 20.707031 Z M 24 20.707031 "/>
</g>
<mask id="mask-1">
<g filter="url(#filter-remove-color)">
<rect x="-4.8" y="-4.8" width="57.6" height="57.6" fill="rgb(0%, 0%, 0%)" fill-opacity="0.372"/>
</g>
</mask>
<clipPath id="clip-1">
<rect x="0" y="0" width="48" height="48"/>
</clipPath>
<g id="source-10" clip-path="url(#clip-1)">
<path fill-rule="nonzero" fill="rgb(89.411765%, 89.411765%, 89.411765%)" fill-opacity="1" d="M 24 16.664062 C 19.96875 16.664062 16.664062 19.96875 16.664062 24 C 16.664062 28.03125 19.96875 31.335938 24 31.335938 C 28.03125 31.335938 31.335938 28.03125 31.335938 24 C 31.335938 19.96875 28.03125 16.664062 24 16.664062 Z M 24 20.765625 C 25.816406 20.765625 27.234375 22.183594 27.234375 24 C 27.234375 25.816406 25.816406 27.234375 24 27.234375 C 22.183594 27.234375 20.765625 25.816406 20.765625 24 C 20.765625 22.183594 22.183594 20.765625 24 20.765625 Z M 24 20.765625 "/>
</g>
</defs>
<g mask="url(#mask-0)">
<use xlink:href="#source-6"/>
</g>
<g mask="url(#mask-1)">
<use xlink:href="#source-10"/>
</g>
<path fill="none" stroke-width="21.4266" stroke-linecap="round" stroke-linejoin="miter" stroke="rgb(0%, 0%, 0%)" stroke-opacity="1" stroke-miterlimit="4" d="M 646.713867 530 C 646.713867 560.968424 634.464518 590.642904 612.553711 612.553711 C 590.642904 634.464518 560.968424 646.713867 530 646.713867 C 499.031576 646.713867 469.357096 634.464518 447.446289 612.553711 C 425.535482 590.642904 413.286133 560.968424 413.286133 530 C 413.286133 499.031576 425.535482 469.357096 447.446289 447.446289 C 469.357096 425.535482 499.031576 413.286133 530 413.286133 C 560.968424 413.286133 590.642904 425.535482 612.553711 447.446289 C 634.464518 469.357096 646.713867 499.031576 646.713867 530 Z M 646.713867 530 " transform="matrix(0.045283, 0, 0, 0.045283, 0, 0)"/>
<path fill-rule="nonzero" fill="rgb(0%, 0%, 0%)" fill-opacity="1" d="M 26.519531 24 C 26.519531 24.667969 26.253906 25.308594 25.78125 25.78125 C 25.308594 26.253906 24.667969 26.519531 24 26.519531 C 23.332031 26.519531 22.691406 26.253906 22.21875 25.78125 C 21.746094 25.308594 21.480469 24.667969 21.480469 24 C 21.480469 23.332031 21.746094 22.691406 22.21875 22.21875 C 22.691406 21.746094 23.332031 21.480469 24 21.480469 C 24.667969 21.480469 25.308594 21.746094 25.78125 22.21875 C 26.253906 22.691406 26.519531 23.332031 26.519531 24 Z M 26.519531 24 "/>
</svg>
