<?xml version="1.0" encoding="UTF-8"?>
<svg xmlns="http://www.w3.org/2000/svg" xmlns:xlink="http://www.w3.org/1999/xlink" width="32" height="32" viewBox="0 0 32 32">
<defs>
<filter id="filter-remove-color" x="0%" y="0%" width="100%" height="100%">
<feColorMatrix color-interpolation-filters="sRGB" values="0 0 0 0 1 0 0 0 0 1 0 0 0 0 1 0 0 0 1 0" />
</filter>
<mask id="mask-0">
<g filter="url(#filter-remove-color)">
<rect x="-3.2" y="-3.2" width="38.4" height="38.4" fill="rgb(0%, 0%, 0%)" fill-opacity="0.727273"/>
</g>
</mask>
<clipPath id="clip-0">
<rect x="0" y="0" width="32" height="32"/>
</clipPath>
<g id="source-6" clip-path="url(#clip-0)">
<path fill-rule="nonzero" fill="rgb(89.411765%, 89.411765%, 89.411765%)" fill-opacity="1" d="M 13.734375 10.136719 C 13.679688 10.136719 13.621094 10.144531 13.566406 10.152344 C 13.464844 10.167969 12.648438 10.265625 11.917969 10.820312 C 10.082031 12.214844 9.484375 14.261719 10.265625 15.648438 C 10.054688 15.703125 9.816406 15.757812 9.867188 15.734375 C 9.945312 15.691406 9.289062 16.226562 9.347656 16.15625 C 9.402344 16.085938 9.039062 16.847656 9.058594 16.761719 C 9.078125 16.675781 9.074219 17.453125 9.058594 17.414062 L 9.050781 17.414062 C 9.039062 17.355469 9.085938 17.726562 9.253906 18.070312 C 9.300781 18.167969 9.359375 18.261719 9.417969 18.351562 C 9.40625 18.363281 9.363281 18.40625 9.367188 18.398438 C 9.402344 18.355469 9.125 18.800781 9.148438 18.75 C 9.171875 18.699219 9.023438 19.199219 9.03125 19.144531 C 9.042969 19.089844 9.035156 19.613281 9.027344 19.554688 C 9.019531 19.5 9.152344 20.007812 9.132812 19.957031 C 9.109375 19.90625 9.347656 20.308594 9.332031 20.300781 C 9.332031 20.304688 9.335938 20.304688 9.335938 20.308594 C 9.335938 20.308594 9.339844 20.3125 9.339844 20.3125 C 9.675781 20.75 10.160156 21.082031 10.75 21.226562 C 10.527344 21.605469 10.394531 22.046875 10.386719 22.519531 L 10.382812 22.519531 C 10.382812 22.515625 10.386719 22.527344 10.386719 22.527344 C 10.386719 22.539062 10.382812 22.546875 10.382812 22.558594 L 10.390625 22.558594 C 10.410156 22.582031 10.511719 23.191406 10.484375 23.117188 C 10.453125 23.042969 10.867188 23.695312 10.808594 23.632812 C 10.753906 23.574219 11.386719 24.011719 11.3125 23.980469 C 11.234375 23.945312 11.992188 24.101562 11.910156 24.101562 C 11.824219 24.101562 12.582031 23.945312 12.503906 23.980469 C 12.429688 24.011719 13.066406 23.574219 13.007812 23.632812 C 12.949219 23.695312 13.363281 23.042969 13.332031 23.117188 C 13.320312 23.15625 13.34375 22.992188 13.371094 22.824219 C 13.4375 22.789062 13.609375 22.71875 13.863281 22.617188 C 14.003906 22.738281 14.15625 22.871094 14.335938 23.007812 C 14.71875 23.304688 15.296875 23.628906 15.996094 23.628906 C 16.699219 23.628906 17.277344 23.300781 17.660156 23.007812 C 17.839844 22.867188 17.992188 22.738281 18.132812 22.617188 C 18.917969 23.601562 19.433594 24.117188 20.582031 23.914062 C 21.730469 23.710938 21.613281 22.558594 21.613281 22.558594 C 21.53125 21.949219 21.476562 21.617188 21.246094 21.226562 C 21.835938 21.082031 22.316406 20.75 22.652344 20.3125 L 22.65625 20.3125 C 22.65625 20.3125 22.660156 20.308594 22.660156 20.308594 C 22.660156 20.304688 22.664062 20.304688 22.664062 20.300781 C 22.648438 20.3125 22.894531 19.878906 22.871094 19.933594 C 22.851562 19.988281 22.976562 19.449219 22.972656 19.507812 C 22.96875 19.566406 22.9375 19.015625 22.949219 19.070312 C 22.960938 19.128906 22.773438 18.609375 22.800781 18.660156 C 22.828125 18.707031 22.609375 18.40625 22.578125 18.351562 C 22.636719 18.261719 22.691406 18.167969 22.742188 18.070312 C 22.910156 17.726562 22.957031 17.355469 22.945312 17.414062 L 22.9375 17.414062 C 22.917969 17.457031 22.914062 16.660156 22.933594 16.75 C 22.957031 16.839844 22.578125 16.066406 22.636719 16.136719 C 22.695312 16.210938 22.011719 15.679688 22.097656 15.71875 C 22.164062 15.75 21.75 15.660156 21.574219 15.613281 C 21.605469 15.347656 21.601562 15.105469 21.5625 14.886719 C 21.539062 14.765625 21.507812 14.648438 21.445312 14.507812 C 21.453125 13.117188 20.429688 11.683594 18.601562 10.898438 C 17.757812 10.539062 16.9375 10.644531 16.839844 10.652344 C 16.445312 10.683594 16.082031 10.953125 15.933594 11.316406 C 15.882812 11.324219 15.832031 11.332031 15.78125 11.34375 C 15.753906 11.277344 15.722656 11.210938 15.6875 11.144531 C 15.585938 10.953125 15.425781 10.792969 15.234375 10.691406 C 15.042969 10.589844 14.816406 10.550781 14.601562 10.578125 C 14.402344 10.304688 14.070312 10.136719 13.734375 10.136719 Z M 13.425781 22.558594 L 13.429688 22.558594 C 13.425781 22.566406 13.421875 22.582031 13.417969 22.59375 C 13.417969 22.589844 13.425781 22.558594 13.425781 22.558594 Z M 13.425781 22.558594 "/>
</g>
</defs>
<g mask="url(#mask-0)">
<use xlink:href="#source-6"/>
</g>
<path fill-rule="nonzero" fill="rgb(77.647059%, 0%, 81.960784%)" fill-opacity="1" d="M 13.738281 11.207031 C 13.574219 11.234375 13.046875 11.308594 12.566406 11.671875 C 10.78125 13.027344 10.726562 14.789062 11.476562 15.480469 C 11.519531 15.882812 11.722656 16.417969 12.332031 16.832031 C 12.351562 17.121094 12.671875 17.46875 13.132812 17.644531 C 13.085938 17.730469 13.039062 17.820312 12.992188 17.917969 C 11.910156 17.65625 11.367188 17.445312 11.160156 17.316406 C 11.050781 17.242188 11.042969 17.21875 11.035156 17.203125 C 11.027344 17.183594 11.015625 17.136719 10.992188 17.015625 C 10.96875 16.910156 10.914062 16.8125 10.832031 16.746094 C 10.746094 16.679688 10.644531 16.644531 10.535156 16.644531 C 10.46875 16.648438 10.402344 16.664062 10.34375 16.691406 C 10.28125 16.722656 10.230469 16.765625 10.1875 16.820312 C 10.144531 16.871094 10.117188 16.933594 10.101562 17 C 10.085938 17.066406 10.085938 17.132812 10.101562 17.199219 C 10.117188 17.277344 10.132812 17.421875 10.21875 17.601562 C 10.304688 17.777344 10.460938 17.945312 10.675781 18.082031 C 11.046875 18.316406 11.601562 18.519531 12.625 18.765625 C 12.5625 18.925781 12.496094 19.09375 12.429688 19.277344 C 12.417969 19.304688 12.410156 19.332031 12.402344 19.359375 C 11.824219 19.359375 11.449219 19.347656 11.253906 19.3125 C 11.027344 19.273438 11.035156 19.269531 10.90625 19.105469 C 10.863281 19.042969 10.800781 18.992188 10.734375 18.960938 C 10.664062 18.929688 10.589844 18.914062 10.511719 18.917969 C 10.429688 18.925781 10.351562 18.953125 10.28125 19 C 10.214844 19.046875 10.160156 19.109375 10.128906 19.1875 C 10.09375 19.261719 10.082031 19.34375 10.089844 19.425781 C 10.101562 19.507812 10.132812 19.585938 10.183594 19.652344 C 10.390625 19.921875 10.710938 20.140625 11.09375 20.207031 C 11.460938 20.273438 11.90625 20.269531 12.621094 20.269531 C 12.757812 20.4375 12.9375 20.59375 13.148438 20.753906 C 12.765625 20.894531 12.441406 21.042969 12.167969 21.234375 C 11.742188 21.527344 11.453125 22.007812 11.453125 22.558594 C 11.453125 22.621094 11.460938 22.679688 11.484375 22.738281 C 11.503906 22.792969 11.539062 22.847656 11.582031 22.890625 C 11.625 22.933594 11.675781 22.96875 11.730469 22.992188 C 11.785156 23.015625 11.847656 23.03125 11.910156 23.03125 C 11.96875 23.03125 12.03125 23.015625 12.085938 22.992188 C 12.140625 22.96875 12.195312 22.933594 12.234375 22.890625 C 12.277344 22.847656 12.3125 22.792969 12.332031 22.738281 C 12.355469 22.679688 12.363281 22.621094 12.363281 22.558594 C 12.363281 22.253906 12.425781 22.160156 12.683594 21.980469 C 12.941406 21.800781 13.414062 21.617188 14.0625 21.398438 C 14.742188 21.878906 15.203125 22.558594 15.996094 22.558594 C 16.792969 22.558594 17.25 21.878906 17.933594 21.398438 C 18.582031 21.617188 19.054688 21.800781 19.3125 21.980469 C 19.570312 22.160156 19.632812 22.253906 19.632812 22.558594 C 19.632812 22.679688 19.679688 22.792969 19.765625 22.878906 C 19.851562 22.964844 19.964844 23.011719 20.085938 23.011719 C 20.207031 23.011719 20.324219 22.964844 20.40625 22.878906 C 20.492188 22.792969 20.542969 22.679688 20.542969 22.558594 C 20.542969 22.007812 20.253906 21.527344 19.828125 21.234375 C 19.554688 21.042969 19.230469 20.894531 18.847656 20.753906 C 19.058594 20.59375 19.238281 20.4375 19.375 20.269531 C 20.089844 20.269531 20.535156 20.273438 20.902344 20.207031 C 21.285156 20.140625 21.605469 19.921875 21.8125 19.652344 C 21.867188 19.582031 21.898438 19.5 21.90625 19.414062 C 21.914062 19.324219 21.898438 19.238281 21.855469 19.160156 C 21.816406 19.082031 21.753906 19.019531 21.675781 18.976562 C 21.597656 18.933594 21.511719 18.914062 21.425781 18.917969 C 21.359375 18.921875 21.292969 18.941406 21.234375 18.972656 C 21.179688 19.007812 21.128906 19.050781 21.089844 19.105469 C 20.960938 19.269531 20.96875 19.273438 20.742188 19.3125 C 20.546875 19.347656 20.171875 19.359375 19.59375 19.359375 C 19.585938 19.332031 19.578125 19.304688 19.566406 19.277344 C 19.5 19.09375 19.433594 18.925781 19.371094 18.765625 C 20.390625 18.519531 20.949219 18.316406 21.320312 18.082031 C 21.535156 17.945312 21.691406 17.777344 21.777344 17.601562 C 21.863281 17.421875 21.878906 17.277344 21.894531 17.199219 C 21.910156 17.132812 21.910156 17.0625 21.894531 16.996094 C 21.878906 16.929688 21.847656 16.867188 21.804688 16.8125 C 21.761719 16.761719 21.707031 16.71875 21.644531 16.6875 C 21.582031 16.660156 21.511719 16.644531 21.445312 16.644531 C 21.339844 16.648438 21.238281 16.683594 21.160156 16.75 C 21.078125 16.816406 21.023438 16.910156 21.003906 17.015625 C 20.976562 17.136719 20.96875 17.183594 20.960938 17.203125 C 20.953125 17.21875 20.945312 17.242188 20.832031 17.316406 C 20.628906 17.445312 20.085938 17.65625 19.003906 17.917969 C 18.957031 17.820312 18.910156 17.730469 18.863281 17.644531 C 19.324219 17.46875 19.644531 17.121094 19.664062 16.832031 C 20.785156 16.066406 20.542969 14.898438 20.414062 14.871094 C 20.378906 14.898438 20.347656 14.929688 20.316406 14.957031 C 20.570312 14.050781 19.980469 12.65625 18.179688 11.882812 C 17.625 11.648438 17.09375 11.707031 16.929688 11.71875 C 17.136719 11.984375 18.109375 13.160156 18.179688 13.628906 C 17.625 13.605469 16.488281 12.734375 16.0625 12.378906 C 15.859375 13.113281 16.476562 14.691406 17.355469 15.234375 C 17.574219 15.371094 18.046875 15.625 18.5625 15.75 C 18.695312 16.046875 18.394531 16.125 18.675781 16.574219 C 18.46875 16.582031 18.292969 16.640625 18.160156 16.710938 C 17.644531 16.28125 17.003906 16.199219 15.996094 16.199219 C 14.992188 16.199219 14.351562 16.28125 13.835938 16.710938 C 13.703125 16.640625 13.527344 16.582031 13.320312 16.574219 C 13.621094 16.09375 13.476562 16 13.496094 15.671875 C 13.378906 15.660156 13.269531 15.648438 13.167969 15.632812 C 13.6875 15.4375 14.140625 15.117188 14.324219 14.925781 C 15.042969 14.1875 15.308594 12.742188 14.738281 11.640625 C 14.410156 12.089844 13.519531 13.207031 12.988281 13.363281 C 12.941406 12.890625 13.597656 11.515625 13.738281 11.207031 Z M 15.726562 17.105469 C 15.8125 17.105469 15.902344 17.105469 15.996094 17.105469 C 17.519531 17.105469 17.792969 17.105469 18.714844 19.59375 C 18.71875 19.605469 18.722656 19.617188 18.722656 19.621094 C 18.652344 19.808594 18.070312 20.203125 17.683594 20.46875 L 17.445312 20.632812 C 17.195312 20.804688 16.980469 20.992188 16.789062 21.15625 C 16.429688 21.472656 16.214844 21.648438 15.996094 21.648438 C 15.78125 21.648438 15.566406 21.472656 15.207031 21.15625 C 15.015625 20.992188 14.800781 20.804688 14.550781 20.632812 L 14.3125 20.46875 C 13.921875 20.199219 13.328125 19.796875 13.273438 19.628906 C 13.273438 19.628906 13.273438 19.617188 13.28125 19.59375 C 14.144531 17.261719 14.441406 17.117188 15.726562 17.105469 Z M 15.726562 17.105469 "/>
</svg>
