<?xml version="1.0" encoding="UTF-8"?>
<svg xmlns="http://www.w3.org/2000/svg" xmlns:xlink="http://www.w3.org/1999/xlink" width="24" height="24" viewBox="0 0 24 24">
<path fill-rule="nonzero" fill="rgb(0%, 0%, 0%)" fill-opacity="1" d="M 10.390625 10.46875 L 10.546875 11.691406 L 13.507812 13.027344 L 13.636719 12.003906 Z M 10.390625 10.46875 "/>
<path fill-rule="nonzero" fill="rgb(0%, 0%, 0%)" fill-opacity="1" d="M 13.1875 14.535156 L 13.359375 13.683594 L 10.703125 12.503906 L 10.867188 13.488281 Z M 13.1875 14.535156 "/>
<path fill-rule="nonzero" fill="rgb(0%, 0%, 0%)" fill-opacity="1" d="M 10.234375 5.445312 L 10.253906 9.574219 L 13.75 11.210938 L 13.765625 5.457031 Z M 10.234375 5.445312 "/>
<path fill-rule="nonzero" fill="rgb(0%, 0%, 0%)" fill-opacity="1" d="M 11.03125 14.46875 L 11.199219 15.320312 L 12.039062 15.855469 L 12.953125 15.351562 Z M 11.03125 14.46875 "/>
<path fill-rule="nonzero" fill="rgb(0%, 0%, 0%)" fill-opacity="1" d="M 7.789062 9.421875 L 8.980469 9.421875 C 9.335938 12.695312 9.339844 17.152344 12.15625 17.152344 C 14.972656 17.152344 14.996094 12.140625 15.140625 9.445312 L 16.359375 9.421875 L 16.359375 18.257812 L 7.789062 18.257812 Z M 7.789062 9.421875 "/>
</svg>
