<?xml version="1.0" encoding="UTF-8"?>
<svg xmlns="http://www.w3.org/2000/svg" xmlns:xlink="http://www.w3.org/1999/xlink" width="64" height="64" viewBox="0 0 64 64">
<defs>
<filter id="filter-remove-color" x="0%" y="0%" width="100%" height="100%">
<feColorMatrix color-interpolation-filters="sRGB" values="0 0 0 0 1 0 0 0 0 1 0 0 0 0 1 0 0 0 1 0" />
</filter>
<mask id="mask-0">
<g filter="url(#filter-remove-color)">
<rect x="-6.4" y="-6.4" width="76.8" height="76.8" fill="rgb(0%, 0%, 0%)" fill-opacity="0.43913"/>
</g>
</mask>
<clipPath id="clip-0">
<rect x="0" y="0" width="64" height="64"/>
</clipPath>
<g id="source-6" clip-path="url(#clip-0)">
<path fill-rule="nonzero" fill="rgb(67.45098%, 84.705882%, 95.294118%)" fill-opacity="1" d="M 32.113281 3.410156 C 31.738281 3.398438 31.359375 3.597656 31.160156 3.921875 L 27.710938 9.488281 C 27.597656 9.675781 27.542969 9.898438 27.554688 10.117188 C 27.566406 10.335938 27.652344 10.550781 27.789062 10.722656 C 27.789062 10.726562 27.789062 10.726562 27.789062 10.726562 C 27.519531 11.066406 27.484375 11.570312 27.703125 11.941406 L 30.117188 16.019531 L 30.117188 30.875 C 30.117188 31.15625 30.230469 31.4375 30.429688 31.636719 C 30.628906 31.835938 30.910156 31.953125 31.195312 31.953125 L 32.703125 31.953125 C 32.984375 31.953125 33.265625 31.835938 33.464844 31.636719 C 33.664062 31.4375 33.78125 31.15625 33.78125 30.875 L 33.78125 16.015625 L 36.289062 11.960938 C 36.402344 11.773438 36.457031 11.550781 36.445312 11.332031 C 36.433594 11.113281 36.347656 10.898438 36.210938 10.726562 C 36.484375 10.386719 36.519531 9.878906 36.296875 9.503906 L 33 3.9375 C 32.816406 3.628906 32.472656 3.425781 32.113281 3.410156 Z M 32.113281 3.410156 "/>
</g>
</defs>
<g mask="url(#mask-0)">
<use xlink:href="#source-6"/>
</g>
<path fill-rule="nonzero" fill="rgb(0%, 0%, 0%)" fill-opacity="1" d="M 35.371094 11.402344 L 28.628906 11.402344 L 31.925781 16.972656 "/>
<path fill-rule="nonzero" fill="rgb(0%, 0%, 0%)" fill-opacity="1" d="M 28.628906 10.0625 L 35.371094 10.0625 L 32.074219 4.496094 "/>
<path fill="none" stroke-width="23.1021" stroke-linecap="butt" stroke-linejoin="miter" stroke="rgb(0%, 0%, 0%)" stroke-opacity="1" stroke-miterlimit="4" d="M 530 506.57959 L 530 125.965576 " transform="matrix(0.0603774, 0, 0, 0.0603774, 0, 0)"/>
</svg>
