<?xml version="1.0" encoding="UTF-8"?>
<svg xmlns="http://www.w3.org/2000/svg" xmlns:xlink="http://www.w3.org/1999/xlink" width="24" height="24" viewBox="0 0 24 24">
<path fill-rule="nonzero" fill="rgb(0%, 0%, 0%)" fill-opacity="1" d="M 15.5625 7.042969 C 15.878906 7.050781 17.007812 7.011719 17.101562 7.179688 C 17.105469 7.203125 16.949219 7.328125 16.816406 7.5 C 16.566406 7.824219 16.183594 8.316406 16.246094 8.375 C 16.277344 8.40625 16.554688 8.1875 17.0625 7.796875 C 17.496094 7.457031 17.574219 7.542969 17.320312 8.074219 C 17.011719 8.714844 16.496094 9.4375 15.421875 10.367188 C 15.410156 10.378906 15.398438 10.390625 15.386719 10.402344 C 15.382812 10.910156 15.277344 11.476562 15.035156 11.753906 C 14.394531 12.480469 14.273438 11.933594 13.878906 11.480469 C 13.550781 11.667969 13.214844 11.851562 12.890625 12.050781 C 12.839844 12.097656 12.652344 12.199219 12.476562 12.277344 C 11.492188 12.824219 10.652344 13.238281 10.089844 13.929688 C 9.542969 14.535156 9.550781 15.3125 9.375 16.054688 C 9.359375 16.070312 9.316406 16.265625 9.285156 16.476562 C 9.203125 17.058594 9.082031 17.109375 8.878906 16.644531 C 8.714844 16.265625 8.269531 15.46875 8.171875 15.378906 C 7.765625 15.171875 7.285156 14.898438 6.855469 14.738281 C 6.640625 14.679688 6.488281 14.554688 6.550781 14.492188 C 6.558594 14.480469 6.621094 14.453125 6.683594 14.429688 C 6.75 14.40625 6.917969 14.34375 7.054688 14.292969 C 7.195312 14.238281 7.375 14.191406 7.460938 14.183594 C 7.921875 14.089844 8.308594 13.878906 8.628906 13.527344 C 8.929688 13.074219 9.359375 12.527344 9.480469 11.898438 C 9.746094 11.007812 9.769531 10.933594 9.925781 10.609375 C 10.011719 10.433594 10.078125 10.277344 10.078125 10.265625 C 10.078125 10.253906 10.007812 10.246094 9.917969 10.25 C 9.832031 10.253906 9.742188 10.230469 9.722656 10.199219 C 9.699219 10.171875 9.769531 9.960938 9.871094 9.738281 C 9.988281 9.476562 10.058594 9.1875 10.070312 8.933594 C 10.082031 8.730469 10.121094 8.546875 10.160156 8.511719 C 10.160156 8.507812 10.164062 8.507812 10.167969 8.503906 C 10.207031 8.488281 10.546875 8.503906 10.914062 8.542969 L 11.585938 8.613281 L 11.820312 8.410156 C 12.9375 7.535156 14.15625 7.132812 15.5625 7.042969 Z M 15.519531 7.582031 C 15.464844 7.582031 15.410156 7.605469 15.367188 7.644531 C 15.285156 7.730469 15.285156 7.863281 15.367188 7.949219 C 15.453125 8.03125 15.585938 8.03125 15.671875 7.949219 C 15.753906 7.863281 15.753906 7.730469 15.671875 7.644531 C 15.628906 7.605469 15.574219 7.582031 15.519531 7.582031 Z M 15.519531 7.582031 "/>
</svg>
