<?xml version="1.0" encoding="UTF-8"?>
<svg xmlns="http://www.w3.org/2000/svg" xmlns:xlink="http://www.w3.org/1999/xlink" width="12" height="12" viewBox="0 0 12 12" version="1.1">
<g id="surface1">
<path style=" stroke:none;fill-rule:nonzero;fill:rgb(99.607843%,99.607843%,99.607843%);fill-opacity:1;" d="M 6 2.6875 C 5.132812 2.691406 4.273438 3.046875 3.660156 3.660156 C 3.046875 4.273438 2.691406 5.132812 2.6875 6 C 2.691406 6.867188 3.046875 7.726562 3.660156 8.339844 C 4.273438 8.953125 5.132812 9.308594 6 9.3125 C 6.867188 9.308594 7.726562 8.953125 8.339844 8.339844 C 8.953125 7.726562 9.308594 6.867188 9.3125 6 C 9.308594 5.132812 8.953125 4.273438 8.339844 3.660156 C 7.726562 3.046875 6.867188 2.691406 6 2.6875 Z M 6 2.6875 "/>
<path style=" stroke:none;fill-rule:nonzero;fill:rgb(4.313726%,26.274511%,44.705883%);fill-opacity:1;" d="M 6 8.988281 C 7.648438 8.988281 8.988281 7.648438 8.988281 6 C 8.988281 4.351562 7.648438 3.011719 6 3.011719 C 4.351562 3.011719 3.011719 4.351562 3.011719 6 C 3.011719 7.648438 4.351562 8.988281 6 8.988281 Z M 6 8.988281 "/>
<path style="fill:none;stroke-width:0.101892;stroke-linecap:butt;stroke-linejoin:miter;stroke:rgb(93.725491%,87.843138%,33.333334%);stroke-opacity:1;stroke-miterlimit:10;" d="M 6.536458 4.760417 L 6.4375 4.583333 C 7.239583 4.213542 8.171875 4.119792 9.088542 4.385417 C 9.244792 4.427083 9.395833 4.484375 9.541667 4.546875 L 9.463542 4.71875 " transform="matrix(0.75,0,0,0.75,0,0)"/>
<path style="fill:none;stroke-width:0.101892;stroke-linecap:butt;stroke-linejoin:miter;stroke:rgb(93.725491%,87.843138%,33.333334%);stroke-opacity:1;stroke-miterlimit:10;" d="M 4.494792 7.28125 L 4.296875 7.255208 C 4.489583 6.390625 4.979167 5.59375 5.744792 5.026042 C 5.875 4.927083 6.010417 4.838542 6.151042 4.760417 L 6.239583 4.932292 " transform="matrix(0.75,0,0,0.75,0,0)"/>
<path style="fill:none;stroke-width:0.101892;stroke-linecap:butt;stroke-linejoin:miter;stroke:rgb(93.725491%,87.843138%,33.333334%);stroke-opacity:1;stroke-miterlimit:10;" d="M 5.369792 10.416667 L 5.229167 10.567708 C 4.635417 9.911458 4.265625 9.052083 4.239583 8.098958 C 4.234375 7.9375 4.239583 7.776042 4.255208 7.619792 L 4.447917 7.640625 " transform="matrix(0.75,0,0,0.75,0,0)"/>
<path style="fill:none;stroke-width:0.101892;stroke-linecap:butt;stroke-linejoin:miter;stroke:rgb(93.725491%,87.843138%,33.333334%);stroke-opacity:1;stroke-miterlimit:10;" d="M 11.5 7.234375 L 11.703125 7.208333 C 11.505208 6.34375 11.015625 5.546875 10.25 4.979167 C 10.119792 4.880208 9.984375 4.791667 9.848958 4.713542 L 9.755208 4.885417 " transform="matrix(0.75,0,0,0.75,0,0)"/>
<path style="fill:none;stroke-width:0.101892;stroke-linecap:butt;stroke-linejoin:miter;stroke:rgb(93.725491%,87.843138%,33.333334%);stroke-opacity:1;stroke-miterlimit:10;" d="M 10.630208 10.369792 L 10.770833 10.520833 C 11.364583 9.864583 11.734375 9.005208 11.760417 8.052083 C 11.765625 7.890625 11.755208 7.729167 11.739583 7.572917 L 11.552083 7.59375 " transform="matrix(0.75,0,0,0.75,0,0)"/>
<path style=" stroke:none;fill-rule:nonzero;fill:rgb(96.470588%,89.803922%,28.235295%);fill-opacity:1;" d="M 7.96875 8.109375 C 7.449219 8.59375 6.761719 8.882812 6 8.882812 C 5.238281 8.882812 4.546875 8.589844 4.03125 8.109375 L 7.96875 8.109375 "/>
<path style="fill-rule:nonzero;fill:rgb(99.215686%,1.568628%,0.784314%);fill-opacity:1;stroke-width:0.101892;stroke-linecap:butt;stroke-linejoin:miter;stroke:rgb(93.725491%,87.843138%,33.333334%);stroke-opacity:1;stroke-miterlimit:10;" d="M 8.098958 10.145833 L 9.203125 7.817708 C 9.354167 8.807292 9.598958 9.520833 10.880208 9.432292 L 9.53125 5.447917 L 8.098958 7.942708 L 6.666667 5.447917 L 5.322917 9.432292 C 6.604167 9.520833 6.848958 8.807292 6.994792 7.817708 Z M 8.098958 10.145833 " transform="matrix(0.75,0,0,0.75,0,0)"/>
</g>
</svg>
