<?xml version="1.0" encoding="UTF-8"?>
<svg xmlns="http://www.w3.org/2000/svg" xmlns:xlink="http://www.w3.org/1999/xlink" width="12" height="12" viewBox="0 0 12 12" version="1.1">
<defs>
<filter id="alpha" filterUnits="objectBoundingBox" x="0%" y="0%" width="100%" height="100%">
  <feColorMatrix type="matrix" in="SourceGraphic" values="0 0 0 0 1 0 0 0 0 1 0 0 0 0 1 0 0 0 1 0"/>
</filter>
<mask id="mask0">
  <g filter="url(#alpha)">
<rect x="0" y="0" width="12" height="12" style="fill:rgb(0%,0%,0%);fill-opacity:0.43913;stroke:none;"/>
  </g>
</mask>
<clipPath id="clip1">
  <rect x="0" y="0" width="12" height="12"/>
</clipPath>
<g id="surface5" clip-path="url(#clip1)">
<path style=" stroke:none;fill-rule:nonzero;fill:rgb(67.450982%,84.705883%,95.294118%);fill-opacity:1;" d="M 5.824219 -0.0546875 C 5.734375 -0.0507812 5.644531 -0.0390625 5.558594 -0.0195312 C 4.851562 0.148438 4.410156 0.863281 4.574219 1.570312 C 4.640625 1.839844 4.785156 2.066406 4.976562 2.242188 C 4.632812 2.554688 4.464844 3.039062 4.578125 3.519531 C 4.667969 3.90625 4.921875 4.207031 5.246094 4.382812 L 5.246094 10.644531 C 5.246094 10.742188 5.285156 10.832031 5.351562 10.898438 C 5.417969 10.964844 5.507812 11 5.601562 11 L 6.117188 11 C 6.210938 11 6.300781 10.964844 6.371094 10.898438 C 6.4375 10.832031 6.472656 10.742188 6.472656 10.644531 L 6.472656 4.390625 C 6.996094 4.117188 7.292969 3.511719 7.152344 2.914062 C 7.085938 2.644531 6.941406 2.414062 6.75 2.242188 C 7.09375 1.929688 7.261719 1.445312 7.148438 0.964844 C 7.003906 0.34375 6.4375 -0.0742188 5.824219 -0.0546875 Z M 5.824219 -0.0546875 "/>
</g>
</defs>
<g id="surface1">
<use xlink:href="#surface5" mask="url(#mask0)"/>
<path style="fill:none;stroke-width:25;stroke-linecap:butt;stroke-linejoin:miter;stroke:rgb(0%,0%,0%);stroke-opacity:1;stroke-miterlimit:4;" d="M 283.014323 514.485677 L 283.014323 68.91276 " transform="matrix(0.0206897,0,0,0.0206897,0,0)"/>
<path style=" stroke:none;fill-rule:nonzero;fill:rgb(0%,0%,0%);fill-opacity:1;" d="M 6.800781 1.042969 C 6.828125 1.167969 6.832031 1.296875 6.8125 1.421875 C 6.792969 1.546875 6.746094 1.667969 6.679688 1.773438 C 6.613281 1.882812 6.527344 1.976562 6.421875 2.050781 C 6.320312 2.125 6.203125 2.179688 6.082031 2.207031 C 5.957031 2.234375 5.828125 2.242188 5.703125 2.21875 C 5.578125 2.199219 5.457031 2.15625 5.351562 2.089844 C 5.242188 2.023438 5.148438 1.933594 5.074219 1.832031 C 5 1.730469 4.949219 1.613281 4.917969 1.488281 C 4.890625 1.363281 4.886719 1.238281 4.90625 1.113281 C 4.925781 0.988281 4.96875 0.867188 5.035156 0.757812 C 5.105469 0.652344 5.191406 0.558594 5.292969 0.484375 C 5.398438 0.410156 5.511719 0.355469 5.636719 0.328125 C 5.761719 0.296875 5.886719 0.292969 6.015625 0.3125 C 6.140625 0.332031 6.257812 0.378906 6.367188 0.445312 C 6.476562 0.511719 6.570312 0.597656 6.644531 0.703125 C 6.71875 0.804688 6.769531 0.921875 6.800781 1.042969 Z M 6.800781 1.042969 "/>
<path style=" stroke:none;fill-rule:nonzero;fill:rgb(0%,0%,0%);fill-opacity:1;" d="M 6.800781 2.996094 C 6.832031 3.121094 6.835938 3.246094 6.816406 3.371094 C 6.796875 3.496094 6.75 3.617188 6.683594 3.726562 C 6.617188 3.832031 6.53125 3.925781 6.425781 4 C 6.324219 4.074219 6.207031 4.128906 6.082031 4.15625 C 5.960938 4.1875 5.832031 4.191406 5.707031 4.171875 C 5.582031 4.152344 5.460938 4.105469 5.355469 4.039062 C 5.246094 3.972656 5.152344 3.886719 5.078125 3.78125 C 5.003906 3.679688 4.949219 3.5625 4.921875 3.4375 C 4.890625 3.316406 4.886719 3.1875 4.90625 3.0625 C 4.929688 2.9375 4.972656 2.816406 5.039062 2.710938 C 5.105469 2.601562 5.195312 2.507812 5.296875 2.433594 C 5.398438 2.359375 5.515625 2.304688 5.640625 2.277344 C 5.761719 2.246094 5.890625 2.242188 6.015625 2.265625 C 6.140625 2.285156 6.261719 2.328125 6.371094 2.394531 C 6.476562 2.460938 6.570312 2.550781 6.644531 2.652344 C 6.71875 2.753906 6.773438 2.871094 6.800781 2.996094 Z M 6.800781 2.996094 "/>
</g>
</svg>
