<?xml version="1.0" encoding="UTF-8"?>
<svg xmlns="http://www.w3.org/2000/svg" xmlns:xlink="http://www.w3.org/1999/xlink" width="12" height="12" viewBox="0 0 12 12" version="1.1">
<defs>
<filter id="alpha" filterUnits="objectBoundingBox" x="0%" y="0%" width="100%" height="100%">
  <feColorMatrix type="matrix" in="SourceGraphic" values="0 0 0 0 1 0 0 0 0 1 0 0 0 0 1 0 0 0 1 0"/>
</filter>
<mask id="mask0">
  <g filter="url(#alpha)">
<rect x="0" y="0" width="12" height="12" style="fill:rgb(0%,0%,0%);fill-opacity:0.830435;stroke:none;"/>
  </g>
</mask>
<clipPath id="clip1">
  <rect x="0" y="0" width="12" height="12"/>
</clipPath>
<g id="surface5" clip-path="url(#clip1)">
<path style=" stroke:none;fill-rule:nonzero;fill:rgb(0%,0%,0%);fill-opacity:1;" d="M 10.460938 2.984375 C 10.042969 3.320312 9.84375 3.445312 9.421875 3.765625 C 9.832031 4.25 10.121094 4.851562 10.234375 5.527344 C 10.296875 5.929688 10.296875 6.324219 10.234375 6.703125 C 10.734375 6.761719 11.015625 6.800781 11.515625 6.855469 C 11.71875 6.824219 11.769531 6.539062 11.5625 6.441406 L 10.714844 6.347656 C 10.730469 6.058594 10.71875 5.757812 10.667969 5.457031 C 10.65625 5.378906 10.640625 5.304688 10.625 5.230469 L 11.46875 5.011719 C 11.625 4.925781 11.542969 4.601562 11.355469 4.613281 L 10.515625 4.832031 C 10.394531 4.46875 10.226562 4.128906 10.019531 3.824219 L 10.710938 3.316406 C 10.839844 3.140625 10.65625 2.910156 10.460938 2.984375 Z M 10.460938 2.984375 "/>
</g>
</defs>
<g id="surface1">
<use xlink:href="#surface5" mask="url(#mask0)"/>
</g>
</svg>
