<?xml version="1.0" encoding="UTF-8"?>
<svg xmlns="http://www.w3.org/2000/svg" xmlns:xlink="http://www.w3.org/1999/xlink" width="32" height="32" viewBox="0 0 32 32">
<defs>
<filter id="filter-remove-color" x="0%" y="0%" width="100%" height="100%">
<feColorMatrix color-interpolation-filters="sRGB" values="0 0 0 0 1 0 0 0 0 1 0 0 0 0 1 0 0 0 1 0" />
</filter>
<mask id="mask-0">
<g filter="url(#filter-remove-color)">
<rect x="-3.2" y="-3.2" width="38.4" height="38.4" fill="rgb(0%, 0%, 0%)" fill-opacity="0.426087"/>
</g>
</mask>
<clipPath id="clip-0">
<path clip-rule="nonzero" d="M 0 1 L 32 1 L 32 32 L 0 32 Z M 0 1 "/>
</clipPath>
<clipPath id="clip-1">
<rect x="0" y="0" width="32" height="32"/>
</clipPath>
<g id="source-7" clip-path="url(#clip-1)">
<g clip-path="url(#clip-0)">
<path fill-rule="nonzero" fill="rgb(67.45098%, 84.705882%, 95.294118%)" fill-opacity="1" d="M 6.519531 1.589844 C 6.132812 1.589844 5.648438 1.59375 5.179688 1.609375 C 4.710938 1.625 4.246094 1.648438 3.71875 1.734375 C 3.453125 1.777344 3.175781 1.828125 2.777344 1.972656 C 2.382812 2.121094 1.6875 2.253906 1.019531 3.425781 C 0.984375 3.488281 0.953125 3.554688 0.921875 3.617188 C 0.800781 3.710938 0.683594 3.8125 0.574219 3.929688 C -0.199219 4.773438 -0.253906 5.640625 -0.25 6.121094 C -0.246094 6.601562 -0.167969 6.882812 -0.0976562 7.128906 C 0.0390625 7.625 0.203125 7.976562 0.394531 8.378906 C 1.214844 10.097656 2.558594 11.980469 4.824219 14.089844 C 4.898438 15.320312 5.179688 16.617188 6.390625 17.992188 C 6.929688 18.609375 7.464844 19.175781 8.460938 19.585938 C 9.460938 19.992188 11.0625 19.804688 11.882812 19.28125 C 11.945312 19.238281 11.996094 19.199219 12.054688 19.160156 C 12.074219 19.171875 12.09375 19.179688 12.113281 19.191406 C 12.453125 19.46875 12.578125 19.492188 12.792969 19.609375 C 12.980469 19.714844 13.191406 19.8125 13.398438 19.910156 C 15.859375 21.277344 17.519531 22.195312 18.324219 23.1875 C 18.355469 23.226562 18.390625 23.265625 18.425781 23.304688 C 18.894531 23.828125 18.933594 24.871094 19.464844 27.136719 C 19.488281 27.242188 19.519531 27.339844 19.554688 27.441406 C 19.574219 27.542969 19.609375 27.726562 19.636719 27.917969 C 19.699219 28.363281 19.765625 28.757812 19.929688 29.25 C 20.09375 29.742188 20.125 30.703125 21.84375 31.410156 C 22.699219 31.765625 23.863281 31.617188 24.484375 31.292969 C 25.109375 30.972656 25.386719 30.632812 25.59375 30.371094 C 26.007812 29.847656 26.15625 29.492188 26.328125 29.09375 C 26.445312 28.828125 26.800781 28.117188 27.117188 27.550781 C 27.214844 27.382812 27.285156 27.261719 27.367188 27.121094 C 28.195312 26.695312 28.984375 26.285156 29.519531 26.078125 C 30.023438 25.925781 30.476562 25.722656 31 25.296875 C 31.304688 25.054688 31.683594 24.761719 32.015625 23.972656 C 32.351562 23.179688 32.207031 21.441406 31.40625 20.601562 C 30.820312 19.988281 30.761719 20.082031 30.644531 20.015625 C 30.523438 19.949219 30.445312 19.914062 30.371094 19.882812 C 30.222656 19.8125 30.09375 19.761719 29.945312 19.707031 C 29.800781 19.65625 29.390625 19.5 29.070312 19.378906 C 28.566406 19.191406 28.296875 19.050781 27.558594 18.96875 C 27.101562 18.867188 26.824219 18.722656 26.523438 18.429688 C 25.761719 17.28125 25.167969 16.335938 25.070312 15.8125 C 25.050781 15.707031 25.023438 15.605469 24.996094 15.503906 C 24.691406 14.5 24.5 13.890625 24.324219 13.390625 C 24.621094 12.769531 24.542969 12.417969 24.542969 12.179688 C 24.539062 11.882812 24.507812 11.71875 24.484375 11.578125 C 24.429688 11.296875 24.378906 11.125 24.320312 10.949219 C 24.207031 10.59375 24.074219 10.257812 23.914062 9.902344 C 23.777344 9.59375 23.6875 9.183594 23.679688 9.027344 C 23.664062 8.636719 23.621094 8.28125 23.542969 7.898438 C 23.503906 7.707031 23.457031 7.515625 23.363281 7.25 C 23.265625 6.988281 23.273438 6.660156 22.527344 5.960938 C 22.523438 5.957031 22.523438 5.957031 22.523438 5.957031 C 22.214844 5.667969 21.8125 5.457031 21.652344 5.386719 C 21.652344 5.386719 21.652344 5.386719 21.648438 5.386719 C 20.890625 5.054688 20.804688 5.148438 20.648438 5.136719 C 20.492188 5.121094 20.386719 5.121094 20.285156 5.121094 C 20.082031 5.121094 19.902344 5.125 19.703125 5.136719 C 19.296875 5.15625 18.828125 5.195312 18.328125 5.246094 L 17.941406 5.289062 C 14.828125 2.964844 11.28125 1.835938 7.558594 1.59375 C 7.464844 1.585938 7.371094 1.585938 7.277344 1.589844 C 7.199219 1.589844 6.90625 1.585938 6.519531 1.589844 Z M 27.746094 26.617188 C 27.753906 26.609375 27.632812 26.722656 27.617188 26.742188 C 27.671875 26.683594 27.726562 26.628906 27.746094 26.617188 Z M 19.613281 27.589844 C 19.726562 27.871094 19.886719 28.136719 20.082031 28.371094 C 19.605469 27.839844 19.652344 27.699219 19.613281 27.589844 Z M 19.613281 27.589844 "/>
</g>
</g>
</defs>
<g mask="url(#mask-0)">
<use xlink:href="#source-7"/>
</g>
<path fill-rule="nonzero" fill="rgb(69.019608%, 11.372549%, 11.372549%)" fill-opacity="1" d="M 7.363281 4.578125 C 6.589844 4.601562 3.851562 4.503906 3.621094 4.910156 C 3.617188 4.972656 3.996094 5.269531 4.316406 5.6875 C 4.921875 6.472656 5.855469 7.675781 5.703125 7.816406 C 5.625 7.886719 4.953125 7.363281 3.722656 6.40625 C 2.664062 5.589844 2.476562 5.796875 3.09375 7.089844 C 3.835938 8.636719 5.085938 10.394531 7.695312 12.648438 C 7.726562 12.675781 7.753906 12.707031 7.78125 12.734375 C 7.796875 13.972656 8.046875 15.34375 8.636719 16.019531 C 10.191406 17.785156 10.484375 16.457031 11.445312 15.355469 C 12.242188 15.8125 13.054688 16.253906 13.847656 16.742188 C 13.972656 16.855469 14.425781 17.105469 14.851562 17.292969 C 17.238281 18.621094 19.285156 19.625 20.648438 21.300781 C 21.976562 22.777344 21.960938 24.664062 22.378906 26.457031 C 22.425781 26.503906 22.523438 26.96875 22.597656 27.488281 C 22.804688 28.902344 23.09375 29.019531 23.585938 27.898438 C 23.988281 26.972656 25.066406 25.039062 25.300781 24.820312 C 26.292969 24.316406 27.453125 23.65625 28.503906 23.261719 C 29.019531 23.121094 29.390625 22.820312 29.242188 22.667969 C 29.21875 22.640625 29.070312 22.574219 28.914062 22.515625 C 28.757812 22.457031 28.347656 22.304688 28.011719 22.179688 C 27.679688 22.054688 27.234375 21.9375 27.023438 21.921875 C 25.914062 21.691406 24.972656 21.175781 24.191406 20.324219 C 23.460938 19.230469 22.417969 17.902344 22.128906 16.367188 C 21.480469 14.210938 21.421875 14.03125 21.042969 13.242188 C 20.839844 12.8125 20.671875 12.4375 20.671875 12.40625 C 20.675781 12.375 20.847656 12.359375 21.0625 12.367188 C 21.273438 12.378906 21.488281 12.324219 21.539062 12.25 C 21.589844 12.175781 21.425781 11.667969 21.179688 11.125 C 20.894531 10.488281 20.722656 9.785156 20.691406 9.171875 C 20.667969 8.675781 20.574219 8.234375 20.480469 8.144531 C 20.472656 8.136719 20.46875 8.132812 20.460938 8.132812 C 20.359375 8.085938 19.542969 8.128906 18.644531 8.222656 L 17.011719 8.394531 L 16.441406 7.90625 C 13.730469 5.78125 10.769531 4.800781 7.363281 4.578125 Z M 7.464844 5.894531 C 7.597656 5.894531 7.726562 5.945312 7.828125 6.046875 C 8.03125 6.246094 8.03125 6.574219 7.828125 6.777344 C 7.628906 6.980469 7.300781 6.980469 7.097656 6.777344 C 6.894531 6.574219 6.894531 6.246094 7.097656 6.046875 C 7.199219 5.945312 7.332031 5.894531 7.464844 5.894531 Z M 7.464844 5.894531 "/>
</svg>
