<svg width="32" height="32" viewBox="0 0 580 580" fill="none" xmlns="http://www.w3.org/2000/svg">
<path opacity="0.426087" d="M355.5 59.625C292.479 59.625 240.75 111.272 240.75 174.312C240.75 218.718 266.288 257.421 303.531 276.469L255.062 477.719C254.335 480.74 254.215 483.875 254.707 486.943C255.2 490.011 256.296 492.951 257.932 495.593C259.568 498.235 261.712 500.526 264.239 502.334C266.767 504.141 269.628 505.43 272.656 506.125L296.25 511.531C299.314 512.235 302.489 512.317 305.585 511.773C308.682 511.228 311.637 510.067 314.277 508.36C316.917 506.652 319.188 504.432 320.954 501.832C322.721 499.231 323.948 496.302 324.562 493.219L365.219 288.562C423.763 283.57 470.25 234.077 470.25 174.312C470.25 111.272 418.521 59.625 355.5 59.625ZM355.5 126.594C382.349 126.594 403.219 147.463 403.219 174.312C403.219 201.162 382.324 222.094 355.5 222.094C328.676 222.094 307.781 201.162 307.781 174.312C307.781 147.463 328.651 126.594 355.5 126.594Z" fill="#ACD8F3"/>
<path d="M334.445 248.289L277.867 483.105L301.488 488.53L348.539 251.541L334.445 248.289Z" fill="black"/>
<path d="M436.703 174.242C436.703 195.787 428.145 216.449 412.911 231.683C397.677 246.917 377.015 255.475 355.47 255.475C333.926 255.475 313.264 246.917 298.03 231.683C282.796 216.449 274.238 195.787 274.238 174.242C274.238 152.698 282.796 132.036 298.03 116.802C313.264 101.568 333.926 93.0098 355.47 93.0098C377.015 93.0098 397.677 101.568 412.911 116.802C428.145 132.036 436.703 152.698 436.703 174.242V174.242Z" stroke="black" stroke-width="20" stroke-linecap="round"/>
</svg>
