<?xml version="1.0" encoding="UTF-8"?>
<svg xmlns="http://www.w3.org/2000/svg" xmlns:xlink="http://www.w3.org/1999/xlink" width="12" height="12" viewBox="0 0 12 12" version="1.1">
<defs>
<filter id="alpha" filterUnits="objectBoundingBox" x="0%" y="0%" width="100%" height="100%">
  <feColorMatrix type="matrix" in="SourceGraphic" values="0 0 0 0 1 0 0 0 0 1 0 0 0 0 1 0 0 0 1 0"/>
</filter>
<mask id="mask0">
  <g filter="url(#alpha)">
<rect x="0" y="0" width="12" height="12" style="fill:rgb(0%,0%,0%);fill-opacity:0.426087;stroke:none;"/>
  </g>
</mask>
<clipPath id="clip1">
  <rect x="0" y="0" width="12" height="12"/>
</clipPath>
<g id="surface5" clip-path="url(#clip1)">
<path style=" stroke:none;fill-rule:nonzero;fill:rgb(67.450982%,84.705883%,95.294118%);fill-opacity:1;" d="M 7.269531 1.113281 C 7.050781 1.113281 6.871094 1.21875 6.75 1.347656 C 6.644531 1.464844 6.320312 1.566406 6.226562 1.566406 C 6.128906 1.566406 5.804688 1.464844 5.699219 1.347656 C 5.574219 1.210938 5.378906 1.105469 5.152344 1.117188 C 4.945312 1.125 4.777344 1.226562 4.664062 1.347656 C 4.558594 1.464844 4.234375 1.566406 4.140625 1.566406 C 4.078125 1.566406 3.902344 1.535156 3.777344 1.46875 C 3.65625 1.40625 3.511719 1.390625 3.378906 1.429688 C 3.246094 1.472656 3.132812 1.558594 3.0625 1.679688 C 2.964844 1.851562 2.886719 2.125 2.902344 2.363281 C 2.910156 2.445312 2.921875 2.523438 2.933594 2.59375 C 2.953125 2.675781 2.988281 2.75 3.039062 2.816406 C 3.09375 2.882812 3.160156 2.933594 3.234375 2.96875 C 3.558594 3.125 3.878906 3.171875 4.140625 3.171875 C 4.441406 3.171875 4.816406 3.105469 5.183594 2.898438 C 5.546875 3.105469 5.925781 3.171875 6.226562 3.171875 C 6.324219 3.171875 6.425781 3.164062 6.539062 3.148438 C 6.535156 3.15625 6.535156 3.164062 6.53125 3.171875 L 5.640625 7.191406 C 4.808594 7.359375 4.175781 8.101562 4.175781 8.980469 C 4.175781 9.980469 5 10.804688 6 10.804688 C 7 10.804688 7.824219 9.980469 7.824219 8.980469 C 7.824219 8.429688 7.578125 7.9375 7.191406 7.601562 L 8.097656 3.519531 C 8.125 3.398438 8.109375 3.269531 8.050781 3.15625 C 8.140625 3.167969 8.230469 3.171875 8.3125 3.171875 C 8.65625 3.171875 9.09375 3.089844 9.511719 2.800781 C 9.578125 2.753906 9.632812 2.695312 9.671875 2.628906 C 9.710938 2.5625 9.738281 2.484375 9.742188 2.40625 C 9.75 2.355469 9.75 2.304688 9.75 2.261719 C 9.753906 2.003906 9.644531 1.722656 9.53125 1.550781 C 9.488281 1.492188 9.4375 1.4375 9.375 1.398438 C 9.316406 1.359375 9.246094 1.332031 9.175781 1.320312 C 9.105469 1.308594 9.03125 1.308594 8.960938 1.324219 C 8.890625 1.339844 8.820312 1.371094 8.761719 1.414062 C 8.636719 1.507812 8.390625 1.566406 8.3125 1.566406 C 8.214844 1.566406 7.890625 1.464844 7.785156 1.347656 C 7.667969 1.21875 7.484375 1.113281 7.269531 1.113281 Z M 6 8.757812 C 6.136719 8.757812 6.222656 8.84375 6.222656 8.980469 C 6.222656 9.117188 6.136719 9.203125 6 9.203125 C 5.863281 9.203125 5.777344 9.117188 5.777344 8.980469 C 5.777344 8.84375 5.863281 8.757812 6 8.757812 Z M 6 8.757812 "/>
</g>
</defs>
<g id="surface1">
<use xlink:href="#surface5" mask="url(#mask0)"/>
<path style="fill-rule:nonzero;fill:rgb(99.607843%,99.607843%,99.607843%);fill-opacity:1;stroke-width:25.2735;stroke-linecap:butt;stroke-linejoin:miter;stroke:rgb(69.01961%,11.372549%,11.372549%);stroke-opacity:1;stroke-miterlimit:4;" d="M 290 483.522135 C 317.376302 483.522135 339.466146 461.432292 339.466146 434.05599 C 339.466146 406.679688 317.376302 384.589844 290 384.589844 C 262.623698 384.589844 240.533854 406.679688 240.533854 434.05599 C 240.533854 461.432292 262.623698 483.522135 290 483.522135 Z M 290 483.522135 " transform="matrix(0.0206897,0,0,0.0206897,0,0)"/>
<path style="fill:none;stroke-width:25.2735;stroke-linecap:butt;stroke-linejoin:miter;stroke:rgb(69.01961%,11.372549%,11.372549%);stroke-opacity:1;stroke-miterlimit:4;" d="M 303.782552 385.533854 L 353.626302 161.803385 " transform="matrix(0.0206897,0,0,0.0206897,0,0)"/>
<path style=" stroke:none;fill-rule:nonzero;fill:rgb(69.01961%,11.372549%,11.372549%);fill-opacity:1;" d="M 5.175781 1.65625 C 5.136719 1.65625 5.097656 1.675781 5.066406 1.710938 C 4.8125 1.992188 4.394531 2.105469 4.140625 2.105469 C 3.976562 2.105469 3.742188 2.058594 3.53125 1.949219 C 3.460938 2.074219 3.429688 2.167969 3.441406 2.324219 C 3.445312 2.382812 3.453125 2.433594 3.464844 2.480469 C 3.707031 2.59375 3.949219 2.632812 4.140625 2.632812 C 4.429688 2.632812 4.839844 2.542969 5.183594 2.238281 C 5.523438 2.542969 5.933594 2.632812 6.226562 2.632812 C 6.515625 2.632812 6.925781 2.542969 7.269531 2.238281 C 7.609375 2.542969 8.019531 2.632812 8.3125 2.632812 C 8.558594 2.632812 8.898438 2.566406 9.207031 2.355469 C 9.207031 2.324219 9.210938 2.289062 9.210938 2.253906 C 9.214844 2.082031 9.171875 1.988281 9.082031 1.851562 C 8.832031 2.03125 8.519531 2.105469 8.3125 2.105469 C 8.054688 2.105469 7.640625 1.992188 7.386719 1.710938 C 7.351562 1.675781 7.308594 1.65625 7.269531 1.65625 C 7.226562 1.65625 7.183594 1.675781 7.152344 1.710938 C 6.898438 1.992188 6.480469 2.105469 6.226562 2.105469 C 5.96875 2.105469 5.554688 1.992188 5.296875 1.710938 C 5.265625 1.675781 5.21875 1.652344 5.175781 1.65625 Z M 5.175781 1.65625 "/>
</g>
</svg>
