<svg width="18" height="18" fill="none" version="1.1" viewBox="0 0 18 18" xmlns="http://www.w3.org/2000/svg">
 <g fill="#00ac26">
  <path d="m7.85 4.15c0-0.63513 0.51487-1.15 1.15-1.15 0.63512 0 1.15 0.51487 1.15 1.15s-0.51488 1.15-1.15 1.15c-0.63513 0-1.15-0.51487-1.15-1.15z"/>
  <path d="m6.0805 15h1.0154l0.70454-3.9924 1.053 1.0531c0.09376 0.0937 0.14644 0.2209 0.14644 0.3535v2.5858h1v-2.5858c0-0.3978-0.15803-0.7793-0.43934-1.0606l-0.52953-0.5296 0.30054-2.4113c0.47045 0.39582 1.0578 0.5873 1.6683 0.5873v6h1v-7.5c0-0.27614-0.2238-0.5-0.5-0.5-0.2761 0-0.5 0.22386-0.5 0.5v0.5c-0.6628 0-1.2672-0.38268-1.4815-1.0257-0.15554-0.46662-0.31098-0.88187-0.87443-0.9639-0.53859-0.07841-1.041 0.28831-1.1305 0.82517 0 0-0.95304 5.4441-1.4331 8.1644z"/>
  <path d="M4.72737 8.5165L4.54289 9.48063C4.51485 9.62714 4.55873 9.77861 4.65981 9.88426C4.73999 9.96807 4.84873 10.0151 4.96212 10.0151H6.00928C6.29496 10.0151 6.53715 9.79559 6.57755 9.5L7.07041 6.59397C7.11325 6.28048 6.88052 6 6.57755 6H6.45171C6.1883 6 5.95869 6.18738 5.89481 6.45448L5.49739 7.9312C5.45748 8.09807 5.24362 8.21515 5.07905 8.21515C4.90809 8.21515 4.7609 8.34128 4.72737 8.5165Z"/>
 </g>
</svg>
