<?xml version="1.0" encoding="UTF-8"?>
<svg xmlns="http://www.w3.org/2000/svg" xmlns:xlink="http://www.w3.org/1999/xlink" width="32" height="32" viewBox="0 0 32 32">
<defs>
<filter id="filter-remove-color" x="0%" y="0%" width="100%" height="100%">
<feColorMatrix color-interpolation-filters="sRGB" values="0 0 0 0 1 0 0 0 0 1 0 0 0 0 1 0 0 0 1 0" />
</filter>
<mask id="mask-0">
<g filter="url(#filter-remove-color)">
<rect x="-3.2" y="-3.2" width="38.4" height="38.4" fill="rgb(0%, 0%, 0%)" fill-opacity="0.694352"/>
</g>
</mask>
<clipPath id="clip-0">
<rect x="0" y="0" width="32" height="32"/>
</clipPath>
<g id="source-6" clip-path="url(#clip-0)">
<path fill-rule="nonzero" fill="rgb(99.607843%, 99.607843%, 99.607843%)" fill-opacity="1" d="M 16.03125 8.574219 C 14.679688 8.574219 13.511719 8.726562 12.292969 9.070312 C 9.988281 9.71875 7.988281 10.871094 6.285156 12.539062 C 5.238281 13.566406 4.417969 14.648438 3.742188 15.914062 C 2.742188 17.785156 2.195312 19.789062 2.105469 21.921875 C 2.105469 21.921875 2.105469 21.925781 2.105469 21.925781 L 2.085938 22.453125 C 2.082031 22.578125 2.101562 22.703125 2.148438 22.824219 C 2.191406 22.941406 2.261719 23.046875 2.347656 23.136719 C 2.4375 23.230469 2.539062 23.300781 2.65625 23.351562 C 2.773438 23.398438 2.898438 23.425781 3.023438 23.425781 L 28.976562 23.425781 C 29.101562 23.425781 29.226562 23.398438 29.34375 23.351562 C 29.457031 23.300781 29.5625 23.230469 29.648438 23.140625 C 29.738281 23.050781 29.804688 22.941406 29.851562 22.824219 C 29.898438 22.707031 29.917969 22.582031 29.914062 22.457031 L 29.894531 21.898438 C 29.894531 21.898438 29.894531 21.894531 29.894531 21.894531 C 29.769531 18.613281 28.449219 15.433594 26.199219 13.019531 C 24.996094 11.726562 23.703125 10.765625 22.117188 9.984375 C 20.175781 9.027344 18.210938 8.574219 16.03125 8.574219 Z M 16.03125 8.574219 "/>
</g>
</defs>
<g mask="url(#mask-0)">
<use xlink:href="#source-6"/>
</g>
<path fill-rule="nonzero" fill="rgb(91.764706%, 16.470588%, 17.647059%)" fill-opacity="1" d="M 3.042969 21.960938 C 3.128906 19.960938 3.632812 18.109375 4.570312 16.355469 C 5.207031 15.167969 5.953125 14.175781 6.941406 13.210938 C 8.539062 11.648438 10.382812 10.582031 12.546875 9.972656 C 13.6875 9.652344 14.746094 9.511719 16.03125 9.511719 C 18.085938 9.511719 19.878906 9.929688 21.703125 10.828125 C 23.199219 11.566406 24.375 12.445312 25.511719 13.660156 C 27.605469 15.910156 28.839844 18.878906 28.957031 21.929688 L 28.976562 22.488281 L 3.023438 22.488281 Z M 3.042969 21.960938 "/>
<path fill-rule="nonzero" fill="rgb(99.607843%, 99.607843%, 99.607843%)" fill-opacity="1" d="M 20.3125 13.273438 L 18.277344 14.761719 C 17.160156 15.578125 16.207031 16.269531 16.164062 16.300781 C 16.105469 16.339844 16.070312 16.347656 16.027344 16.324219 C 15.996094 16.304688 15.035156 15.613281 13.902344 14.785156 L 11.839844 13.277344 L 8.964844 13.277344 L 8.964844 17.179688 C 8.964844 19.328125 8.972656 21.09375 8.984375 21.105469 C 8.996094 21.117188 9.730469 21.121094 10.613281 21.117188 L 12.222656 21.109375 L 12.230469 18.976562 C 12.238281 17.207031 12.246094 16.839844 12.28125 16.824219 C 12.304688 16.816406 13.144531 17.375 14.183594 18.09375 L 16.039062 19.375 L 16.125 19.320312 C 16.171875 19.289062 17.011719 18.71875 17.992188 18.050781 C 18.972656 17.382812 19.800781 16.828125 19.832031 16.820312 C 19.886719 16.804688 19.890625 16.929688 19.898438 18.941406 L 19.90625 21.078125 L 23.179688 21.078125 L 23.179688 13.292969 L 21.746094 13.285156 Z M 20.3125 13.273438 "/>
</svg>
