<?xml version="1.0" encoding="UTF-8"?>
<svg xmlns="http://www.w3.org/2000/svg" xmlns:xlink="http://www.w3.org/1999/xlink" width="24" height="24" viewBox="0 0 24 24">
<path fill-rule="nonzero" fill="rgb(0%, 0%, 0%)" fill-opacity="1" d="M 14.574219 12 C 14.574219 12.339844 14.507812 12.671875 14.378906 12.984375 C 14.25 13.296875 14.058594 13.582031 13.820312 13.820312 C 13.582031 14.058594 13.296875 14.25 12.984375 14.378906 C 12.671875 14.507812 12.339844 14.574219 12 14.574219 C 11.660156 14.574219 11.328125 14.507812 11.015625 14.378906 C 10.703125 14.25 10.417969 14.058594 10.179688 13.820312 C 9.941406 13.582031 9.75 13.296875 9.621094 12.984375 C 9.492188 12.671875 9.425781 12.339844 9.425781 12 C 9.425781 11.660156 9.492188 11.328125 9.621094 11.015625 C 9.75 10.703125 9.941406 10.417969 10.179688 10.179688 C 10.417969 9.941406 10.703125 9.75 11.015625 9.621094 C 11.328125 9.492188 11.660156 9.425781 12 9.425781 C 12.339844 9.425781 12.671875 9.492188 12.984375 9.621094 C 13.296875 9.75 13.582031 9.941406 13.820312 10.179688 C 14.058594 10.417969 14.25 10.703125 14.378906 11.015625 C 14.507812 11.328125 14.574219 11.660156 14.574219 12 Z M 14.574219 12 "/>
</svg>
