<?xml version="1.0" encoding="UTF-8"?>
<svg xmlns="http://www.w3.org/2000/svg" xmlns:xlink="http://www.w3.org/1999/xlink" width="12" height="12" viewBox="0 0 12 12" version="1.1">
<g id="surface1">
<path style=" stroke:none;fill-rule:nonzero;fill:rgb(99.607843%,99.607843%,99.607843%);fill-opacity:1;" d="M 5.191406 4.699219 C 5.324219 4.699219 5.4375 4.652344 5.527344 4.5625 C 5.621094 4.46875 5.667969 4.355469 5.664062 4.222656 C 5.664062 4.09375 5.621094 3.984375 5.53125 3.886719 C 5.4375 3.792969 5.328125 3.746094 5.191406 3.75 C 5.058594 3.746094 4.945312 3.792969 4.855469 3.886719 C 4.761719 3.980469 4.71875 4.089844 4.71875 4.222656 C 4.71875 4.355469 4.761719 4.464844 4.851562 4.558594 C 4.945312 4.652344 5.054688 4.699219 5.191406 4.699219 Z M 7.09375 5.21875 L 6.050781 4.839844 C 5.953125 4.789062 5.878906 4.8125 5.828125 4.910156 C 5.792969 4.976562 5.804688 5.039062 5.851562 5.09375 L 6.347656 5.464844 L 6.167969 5.851562 L 5.378906 6.21875 L 5.457031 5.847656 L 5.890625 5.707031 C 6.023438 5.652344 6.074219 5.5625 6.042969 5.433594 C 6.027344 5.375 5.988281 5.328125 5.925781 5.296875 C 5.863281 5.261719 5.804688 5.257812 5.746094 5.28125 L 5.445312 5.355469 L 5.425781 5.265625 C 5.429688 5.136719 5.382812 5.027344 5.289062 4.929688 C 5.195312 4.835938 5.085938 4.789062 4.957031 4.792969 C 4.824219 4.792969 4.710938 4.835938 4.617188 4.929688 C 4.523438 5.023438 4.476562 5.136719 4.476562 5.261719 L 4.464844 6.488281 C 4.519531 6.632812 4.480469 6.59375 4.480469 6.59375 L 3.199219 7.167969 L 3.199219 8.046875 C 3.339844 7.933594 3.941406 7.839844 4.089844 7.800781 C 4.230469 7.765625 4.378906 7.761719 4.535156 7.792969 C 4.625 7.808594 4.71875 7.804688 4.808594 7.78125 C 4.902344 7.753906 4.984375 7.714844 5.054688 7.65625 C 5.171875 7.558594 5.304688 7.492188 5.449219 7.453125 C 5.539062 7.433594 5.660156 7.425781 5.816406 7.441406 C 5.976562 7.453125 6.09375 7.449219 6.171875 7.429688 C 6.261719 7.40625 6.34375 7.367188 6.417969 7.308594 C 6.539062 7.210938 6.671875 7.140625 6.820312 7.105469 C 6.910156 7.082031 7.003906 7.070312 7.09375 7.078125 C 7.1875 7.082031 7.277344 7.089844 7.367188 7.101562 C 8.457031 6.492188 8.777344 5.925781 8.863281 5.570312 C 8.980469 5.101562 8.9375 4.730469 8.9375 4.730469 C 8.9375 4.730469 8.277344 4.769531 7.09375 5.21875 Z M 8.390625 7.832031 C 8.304688 7.824219 8.183594 7.835938 8.027344 7.875 C 7.871094 7.910156 7.753906 7.921875 7.675781 7.914062 C 7.589844 7.90625 7.476562 7.867188 7.328125 7.800781 C 7.183594 7.734375 6.898438 7.570312 6.820312 7.582031 C 6.734375 7.59375 6.707031 7.585938 6.5625 7.660156 C 6.421875 7.734375 6.308594 7.777344 6.222656 7.789062 C 6.136719 7.800781 6.019531 7.789062 5.863281 7.761719 C 5.707031 7.730469 5.589844 7.722656 5.503906 7.734375 C 5.421875 7.746094 5.308594 7.789062 5.167969 7.859375 C 5.027344 7.933594 4.914062 7.976562 4.832031 7.988281 C 4.746094 8 4.628906 7.992188 4.472656 7.960938 C 4.316406 7.929688 4.199219 7.921875 4.113281 7.933594 C 4.027344 7.945312 3.914062 7.988281 3.773438 8.0625 C 3.628906 8.132812 3.292969 8.222656 3.207031 8.234375 L 3.203125 8.707031 C 3.289062 8.695312 3.703125 8.648438 3.847656 8.574219 C 3.988281 8.5 4.101562 8.457031 4.1875 8.445312 C 4.265625 8.433594 4.386719 8.445312 4.542969 8.472656 C 4.699219 8.503906 4.820312 8.511719 4.90625 8.5 C 4.988281 8.488281 5.101562 8.445312 5.242188 8.375 C 5.382812 8.300781 5.492188 8.257812 5.578125 8.246094 C 5.664062 8.234375 5.78125 8.242188 5.9375 8.273438 C 6.09375 8.304688 6.210938 8.3125 6.296875 8.300781 C 6.378906 8.289062 6.492188 8.246094 6.636719 8.171875 C 6.777344 8.101562 6.757812 8.109375 6.84375 8.097656 C 6.921875 8.085938 7.132812 8.25 7.277344 8.316406 C 7.421875 8.382812 7.535156 8.421875 7.621094 8.429688 C 7.703125 8.4375 7.820312 8.425781 7.976562 8.390625 C 8.132812 8.351562 8.25 8.339844 8.335938 8.347656 C 8.421875 8.355469 8.535156 8.394531 8.679688 8.460938 C 8.742188 8.488281 8.773438 8.523438 8.800781 8.546875 L 8.800781 7.996094 C 8.769531 7.964844 8.753906 7.957031 8.730469 7.945312 C 8.589844 7.878906 8.472656 7.839844 8.390625 7.832031 Z M 8.390625 7.832031 "/>
</g>
</svg>
