<svg width="32" height="32" viewBox="0 0 320 320" fill="none" xmlns="http://www.w3.org/2000/svg">
<path d="M178.395 112.002L202.797 82.7891L227.524 112L212.476 112V137.156L111.19 197.122L111.134 236H92.4761V187.557L193.815 128.239L193.812 112.004L178.395 112.001" fill="black"/>
<path d="M111.125 84.7812L111.156 101.438L92.4688 101.312V84.7812H111.125ZM92.4688 115.406L111.188 115.531V125.656L126.063 134.469L117.313 149.75L92.4688 135.219V115.406ZM141.625 142.875L179.844 166.312L171.25 181.344L132.938 158.094L141.625 142.875ZM195.781 174.906L212.469 185.625V210.781H227.531L202.813 240L178.406 210.781H193.813V194.562L187.219 189.875L195.781 174.906Z" fill="black"/>
</svg>
