<?xml version="1.0" encoding="UTF-8"?>
<svg xmlns="http://www.w3.org/2000/svg" xmlns:xlink="http://www.w3.org/1999/xlink" width="12" height="12" viewBox="0 0 12 12" version="1.1">
<g id="surface1">
<path style=" stroke:none;fill-rule:nonzero;fill:rgb(99.607843%,99.607843%,99.607843%);fill-opacity:1;" d="M 3.042969 2.828125 C 2.917969 2.828125 2.800781 2.878906 2.710938 2.964844 C 2.625 3.054688 2.574219 3.171875 2.574219 3.296875 L 2.574219 6.054688 C 2.574219 6.15625 2.605469 6.257812 2.667969 6.339844 C 2.601562 6.441406 2.574219 6.5625 2.597656 6.683594 C 2.617188 6.804688 2.683594 6.910156 2.785156 6.980469 L 5.726562 9.082031 C 5.804688 9.140625 5.902344 9.171875 6 9.171875 L 6.011719 9.171875 C 6.109375 9.171875 6.207031 9.140625 6.285156 9.082031 L 9.21875 6.980469 C 9.316406 6.910156 9.382812 6.804688 9.40625 6.683594 C 9.425781 6.5625 9.398438 6.4375 9.332031 6.339844 C 9.394531 6.257812 9.425781 6.15625 9.425781 6.054688 L 9.425781 3.296875 C 9.425781 3.171875 9.375 3.054688 9.289062 2.964844 C 9.199219 2.878906 9.082031 2.828125 8.957031 2.828125 L 7.820312 2.828125 C 7.722656 2.828125 7.628906 2.859375 7.550781 2.914062 L 6 4.003906 L 4.453125 2.914062 C 4.371094 2.859375 4.277344 2.828125 4.183594 2.828125 Z M 7.363281 5.429688 L 7.363281 6.054688 C 7.363281 6.078125 7.363281 6.101562 7.367188 6.125 L 7.164062 6.125 C 7.070312 6.125 6.972656 6.15625 6.894531 6.210938 L 6.003906 6.847656 L 5.109375 6.214844 C 5.03125 6.15625 4.9375 6.128906 4.839844 6.128906 L 4.632812 6.128906 C 4.636719 6.105469 4.636719 6.082031 4.636719 6.058594 L 4.640625 5.4375 L 5.722656 6.199219 C 5.75 6.222656 5.785156 6.238281 5.816406 6.253906 L 5.832031 6.257812 C 5.90625 6.289062 5.984375 6.296875 6.0625 6.289062 C 6.140625 6.28125 6.214844 6.25 6.28125 6.207031 Z M 7.363281 5.429688 "/>
<path style=" stroke:none;fill-rule:nonzero;fill:rgb(5.490196%,41.568628%,73.725492%);fill-opacity:1;" d="M 3.058594 6.601562 L 4.839844 6.59375 L 6.003906 7.421875 L 7.164062 6.59375 L 8.945312 6.601562 L 6.015625 8.703125 L 6 8.703125 Z M 3.042969 3.296875 L 4.183594 3.296875 L 6 4.578125 L 7.820312 3.296875 L 8.957031 3.296875 L 8.957031 6.054688 L 7.832031 6.054688 L 7.832031 4.519531 L 6.007812 5.824219 L 5.992188 5.820312 L 4.175781 4.53125 L 4.167969 6.054688 L 3.042969 6.054688 Z M 3.042969 3.296875 "/>
</g>
</svg>
