<?xml version="1.0" encoding="UTF-8"?>
<svg xmlns="http://www.w3.org/2000/svg" xmlns:xlink="http://www.w3.org/1999/xlink" width="12" height="12" viewBox="0 0 12 12" version="1.1">
<g id="surface1">
<path style=" stroke:none;fill-rule:nonzero;fill:rgb(0%,0%,0%);fill-opacity:1;" d="M 6.683594 6.347656 C 6.683594 6.558594 6.597656 6.757812 6.449219 6.90625 C 6.300781 7.058594 6.097656 7.140625 5.886719 7.140625 C 5.675781 7.140625 5.476562 7.058594 5.324219 6.90625 C 5.175781 6.757812 5.09375 6.558594 5.09375 6.347656 C 5.09375 6.136719 5.175781 5.933594 5.324219 5.785156 C 5.476562 5.636719 5.675781 5.550781 5.886719 5.550781 C 6.097656 5.550781 6.300781 5.636719 6.449219 5.785156 C 6.597656 5.933594 6.683594 6.136719 6.683594 6.347656 Z M 6.683594 6.347656 "/>
<path style=" stroke:none;fill-rule:nonzero;fill:rgb(0%,0%,0%);fill-opacity:1;" d="M 4.640625 7.917969 C 4.65625 8.261719 4.40625 8.558594 4.0625 8.582031 C 3.71875 8.601562 3.453125 8.339844 3.398438 8 C 3.152344 6.40625 5.503906 6.265625 5.804688 6.246094 C 5.945312 6.238281 6.144531 6.296875 5.816406 6.574219 C 5.449219 6.882812 4.605469 7.042969 4.640625 7.917969 Z M 4.640625 7.917969 "/>
<path style=" stroke:none;fill-rule:nonzero;fill:rgb(0%,0%,0%);fill-opacity:1;" d="M 7.765625 7.027344 C 8.085938 6.90625 8.445312 7.054688 8.574219 7.371094 C 8.703125 7.691406 8.539062 8.027344 8.230469 8.183594 C 6.796875 8.921875 5.921875 6.730469 5.808594 6.453125 C 5.757812 6.320312 5.75 6.113281 6.117188 6.339844 C 6.527344 6.589844 6.941406 7.339844 7.765625 7.027344 Z M 7.765625 7.027344 "/>
<path style=" stroke:none;fill-rule:nonzero;fill:rgb(0%,0%,0%);fill-opacity:1;" d="M 5.347656 4.535156 C 5.074219 4.328125 5.003906 3.945312 5.207031 3.664062 C 5.40625 3.386719 5.777344 3.347656 6.074219 3.523438 C 7.460938 4.34375 6.078125 6.25 5.902344 6.496094 C 5.820312 6.609375 5.648438 6.726562 5.640625 6.296875 C 5.636719 5.816406 6.050781 5.0625 5.347656 4.535156 Z M 5.347656 4.535156 "/>
</g>
</svg>
