<?xml version="1.0" encoding="UTF-8"?>
<svg xmlns="http://www.w3.org/2000/svg" xmlns:xlink="http://www.w3.org/1999/xlink" width="12" height="12" viewBox="0 0 12 12">
<defs>
<filter id="filter-remove-color" x="0%" y="0%" width="100%" height="100%">
<feColorMatrix color-interpolation-filters="sRGB" values="0 0 0 0 1 0 0 0 0 1 0 0 0 0 1 0 0 0 1 0" />
</filter>
<mask id="mask-0">
<g filter="url(#filter-remove-color)">
<rect x="-1.2" y="-1.2" width="14.4" height="14.4" fill="rgb(0%, 0%, 0%)" fill-opacity="0.2"/>
</g>
</mask>
<clipPath id="clip-0">
<rect x="0" y="0" width="12" height="12"/>
</clipPath>
<g id="source-6" clip-path="url(#clip-0)">
<path fill-rule="nonzero" fill="rgb(0%, 0%, 0%)" fill-opacity="1" d="M 3 3 L 8 3 L 8 9 L 3 9 Z M 3 3 "/>
</g>
</defs>
<g mask="url(#mask-0)">
<use xlink:href="#source-6"/>
</g>
<path fill-rule="nonzero" fill="rgb(0%, 0%, 0%)" fill-opacity="1" d="M 4 2 C 3.449219 2 3 2.449219 3 3 L 3 4.5 C 3 4.777344 3.222656 5 3.5 5 C 3.777344 5 4 4.777344 4 4.5 L 4 3 L 8 3 L 8 9 L 4 9 L 4 7.5 C 4 7.222656 3.777344 7 3.5 7 C 3.222656 7 3 7.222656 3 7.5 L 3 9 C 3 9.550781 3.449219 10 4 10 L 8 10 C 8.550781 10 9 9.550781 9 9 L 9 3 C 9 2.449219 8.550781 2 8 2 Z M 4 2 "/>
<path fill-rule="nonzero" fill="rgb(0%, 0%, 0%)" fill-opacity="1" d="M 5.855469 4.144531 C 5.660156 3.953125 5.339844 3.953125 5.144531 4.144531 C 4.953125 4.339844 4.953125 4.660156 5.144531 4.855469 L 5.792969 5.5 L 2.5 5.5 C 2.222656 5.5 2 5.722656 2 6 C 2 6.277344 2.222656 6.5 2.5 6.5 L 5.792969 6.5 L 5.144531 7.144531 C 4.953125 7.339844 4.953125 7.660156 5.144531 7.855469 C 5.339844 8.046875 5.660156 8.046875 5.855469 7.855469 L 7.355469 6.355469 C 7.546875 6.160156 7.546875 5.839844 7.355469 5.644531 Z M 5.855469 4.144531 "/>
</svg>
