<?xml version="1.0" encoding="UTF-8"?>
<svg xmlns="http://www.w3.org/2000/svg" xmlns:xlink="http://www.w3.org/1999/xlink" width="12" height="12" viewBox="0 0 12 12" version="1.1">
<g id="surface1">
<path style=" stroke:none;fill-rule:nonzero;fill:rgb(0%,0%,0%);fill-opacity:1;" d="M 8.730469 2.535156 L 3.296875 2.535156 C 2.890625 2.535156 2.5625 2.863281 2.5625 3.269531 L 2.5625 8.703125 C 2.5625 9.109375 2.890625 9.4375 3.296875 9.4375 L 8.730469 9.4375 C 9.132812 9.4375 9.464844 9.109375 9.464844 8.703125 L 9.464844 3.269531 C 9.464844 2.863281 9.132812 2.535156 8.730469 2.535156 Z M 8.730469 2.535156 "/>
<path style=" stroke:none;fill-rule:nonzero;fill:rgb(87.058824%,92.54902%,96.470588%);fill-opacity:1;" d="M 8.488281 2.84375 L 3.535156 2.84375 C 3.167969 2.84375 2.867188 3.140625 2.867188 3.511719 L 2.867188 8.460938 C 2.867188 8.832031 3.167969 9.132812 3.535156 9.132812 L 8.488281 9.132812 C 8.855469 9.132812 9.15625 8.832031 9.15625 8.460938 L 9.15625 3.511719 C 9.15625 3.140625 8.855469 2.84375 8.488281 2.84375 Z M 8.488281 2.84375 "/>
<path style=" stroke:none;fill-rule:evenodd;fill:rgb(1.176471%,53.333336%,89.803922%);fill-opacity:1;" d="M 2.863281 7.914062 L 4.347656 7.890625 C 4.894531 7.882812 6.925781 6.105469 7.734375 6.066406 C 8.5625 6.03125 8.886719 6.328125 8.886719 6.328125 C 7.988281 6.414062 7.894531 6.882812 7.816406 7.15625 C 7.738281 7.433594 7.878906 8.148438 8.808594 8.476562 L 9.148438 8.582031 C 9.082031 8.921875 8.828125 9.101562 8.546875 9.136719 L 3.46875 9.136719 C 3.121094 9.082031 2.941406 8.875 2.867188 8.59375 Z M 2.863281 7.914062 "/>
<path style=" stroke:none;fill-rule:nonzero;fill:rgb(99.215686%,34.117648%,3.137255%);fill-opacity:1;" d="M 4.605469 7.296875 L 6.210938 5.722656 L 5.253906 5.722656 L 5.253906 3.335938 L 3.957031 3.335938 L 3.957031 5.722656 L 3 5.722656 Z M 4.605469 7.296875 "/>
</g>
</svg>
