<?xml version="1.0" encoding="UTF-8"?>
<svg xmlns="http://www.w3.org/2000/svg" xmlns:xlink="http://www.w3.org/1999/xlink" width="32" height="32" viewBox="0 0 32 32">
<defs>
<filter id="filter-remove-color" x="0%" y="0%" width="100%" height="100%">
<feColorMatrix color-interpolation-filters="sRGB" values="0 0 0 0 1 0 0 0 0 1 0 0 0 0 1 0 0 0 1 0" />
</filter>
<mask id="mask-0">
<g filter="url(#filter-remove-color)">
<rect x="-3.2" y="-3.2" width="38.4" height="38.4" fill="rgb(0%, 0%, 0%)" fill-opacity="0.426087"/>
</g>
</mask>
<clipPath id="clip-0">
<path clip-rule="nonzero" d="M 4 12 L 27 12 L 27 32 L 4 32 Z M 4 12 "/>
</clipPath>
<clipPath id="clip-1">
<rect x="0" y="0" width="32" height="32"/>
</clipPath>
<g id="source-7" clip-path="url(#clip-1)">
<g clip-path="url(#clip-0)">
<path fill-rule="nonzero" fill="rgb(55.294118%, 55.294118%, 55.294118%)" fill-opacity="1" d="M 19.140625 12.597656 C 19.140625 12.597656 9.140625 16.988281 7.203125 26.734375 L 5.515625 26.734375 C 5.234375 26.734375 4.953125 26.851562 4.75 27.050781 C 4.550781 27.253906 4.433594 27.535156 4.433594 27.820312 L 4.433594 29.199219 C 4.433594 29.480469 4.550781 29.765625 4.75 29.964844 C 4.953125 30.164062 5.234375 30.28125 5.515625 30.28125 L 12.613281 30.28125 C 12.617188 30.285156 12.617188 30.289062 12.617188 30.292969 C 12.617188 30.292969 12.621094 30.292969 12.621094 30.292969 C 12.621094 30.296875 12.625 30.304688 12.632812 30.316406 L 12.636719 30.316406 C 12.796875 30.59375 13.007812 30.855469 13.265625 31.082031 C 13.269531 31.089844 13.277344 31.09375 13.285156 31.101562 C 13.882812 31.640625 14.671875 31.976562 15.527344 32 C 15.582031 32.007812 15.640625 32.007812 15.695312 32.003906 C 15.777344 32 15.789062 32 15.738281 32 C 16.128906 31.988281 16.507812 31.910156 16.859375 31.777344 L 16.859375 31.78125 C 16.863281 31.777344 16.867188 31.777344 16.871094 31.777344 C 16.878906 31.773438 16.882812 31.773438 16.890625 31.769531 L 16.890625 31.765625 C 17.472656 31.550781 17.972656 31.183594 18.332031 30.726562 C 18.328125 30.734375 18.335938 30.722656 18.355469 30.699219 C 18.359375 30.695312 18.359375 30.695312 18.359375 30.691406 C 18.363281 30.691406 18.363281 30.6875 18.367188 30.683594 C 18.375 30.675781 18.378906 30.667969 18.382812 30.660156 C 18.449219 30.574219 18.453125 30.566406 18.394531 30.648438 C 18.484375 30.53125 18.566406 30.410156 18.640625 30.28125 L 25.125 30.28125 C 25.410156 30.28125 25.691406 30.164062 25.894531 29.964844 C 26.09375 29.765625 26.210938 29.480469 26.210938 29.199219 L 26.210938 27.820312 C 26.210938 27.535156 26.09375 27.253906 25.894531 27.050781 C 25.691406 26.851562 25.410156 26.734375 25.125 26.734375 L 23.453125 26.734375 C 23.546875 25.472656 23.546875 24.046875 23.394531 22.5625 C 23.394531 22.5625 23.394531 22.558594 23.394531 22.558594 C 23.390625 22.515625 23.386719 22.476562 23.382812 22.441406 C 23.382812 22.4375 23.382812 22.4375 23.382812 22.433594 C 23.386719 22.488281 23.382812 22.464844 23.378906 22.414062 L 23.382812 22.414062 C 23.273438 21.410156 23.105469 20.492188 22.898438 19.664062 C 22.898438 19.664062 22.898438 19.660156 22.898438 19.660156 C 22.882812 19.589844 22.863281 19.519531 22.84375 19.445312 C 22.84375 19.445312 22.84375 19.445312 22.84375 19.441406 C 22.835938 19.414062 22.832031 19.390625 22.824219 19.371094 C 22.824219 19.371094 22.824219 19.367188 22.824219 19.367188 C 22.570312 17.582031 20.917969 14.5 19.140625 12.597656 Z M 19.140625 12.597656 "/>
</g>
</g>
<mask id="mask-1">
<g filter="url(#filter-remove-color)">
<rect x="-3.2" y="-3.2" width="38.4" height="38.4" fill="rgb(0%, 0%, 0%)" fill-opacity="0.426087"/>
</g>
</mask>
<clipPath id="clip-2">
<rect x="0" y="0" width="32" height="32"/>
</clipPath>
<g id="source-15" clip-path="url(#clip-2)">
<path fill-rule="nonzero" fill="rgb(0%, 0%, 0%)" fill-opacity="1" d="M 18.761719 14.09375 C 20.847656 16.082031 21.875 19.175781 22.253906 22.152344 C 22.519531 24.242188 22.460938 26.273438 22.242188 27.820312 L 19.273438 28.03125 C 19.601562 22.519531 19.703125 19.789062 18.761719 14.09375 Z M 18.761719 14.09375 "/>
</g>
</defs>
<g mask="url(#mask-0)">
<use xlink:href="#source-7"/>
</g>
<path fill-rule="nonzero" fill="rgb(0%, 0%, 0%)" fill-opacity="1" d="M 18.765625 14.089844 C 18.765625 14.089844 9.753906 18.125 7.890625 28.617188 L 13.207031 28.640625 C 13.363281 29.796875 13.9375 30.699219 15.625 30.914062 C 17.117188 30.824219 17.8125 29.964844 18.042969 28.65625 L 22.148438 28.671875 C 23.589844 18.128906 18.765625 14.089844 18.765625 14.089844 Z M 18.765625 14.089844 "/>
<path fill="none" stroke-width="25" stroke-linecap="butt" stroke-linejoin="miter" stroke="rgb(0%, 0%, 0%)" stroke-opacity="1" stroke-miterlimit="4" d="M 99.899902 516.5625 L 455.319824 516.5625 " transform="matrix(0.0551724, 0, 0, 0.0551724, 0, 0)"/>
<path fill-rule="nonzero" fill="rgb(99.607843%, 99.607843%, 99.607843%)" fill-opacity="1" stroke-width="20.5723" stroke-linecap="round" stroke-linejoin="round" stroke="rgb(0%, 0%, 0%)" stroke-opacity="1" stroke-miterlimit="10" d="M 316.833496 516.420898 C 316.833496 525.341797 313.293457 533.837891 306.992188 540.13916 C 300.690918 546.44043 292.124023 549.980469 283.203125 549.980469 C 274.282227 549.980469 265.715332 546.44043 259.414062 540.13916 C 253.112793 533.837891 249.572754 525.341797 249.572754 516.420898 C 249.572754 507.5 253.112793 498.933105 259.414062 492.631836 C 265.715332 486.330566 274.282227 482.790527 283.203125 482.790527 C 292.124023 482.790527 300.690918 486.330566 306.992188 492.631836 C 313.293457 498.933105 316.833496 507.5 316.833496 516.420898 Z M 316.833496 516.420898 " transform="matrix(0.0551724, 0, 0, 0.0551724, 0, 0)"/>
<path fill-rule="nonzero" fill="rgb(90.980392%, 0%, 0%)" fill-opacity="1" d="M 12.921875 18.515625 L 21.960938 20.445312 C 21.960938 20.445312 22.28125 22.144531 22.378906 23.460938 C 22.480469 24.777344 22.386719 26.339844 22.386719 26.339844 L 9.507812 23.539062 C 9.507812 23.539062 10.101562 22.289062 10.972656 20.976562 C 11.839844 19.660156 12.921875 18.515625 12.921875 18.515625 Z M 12.921875 18.515625 "/>
<g mask="url(#mask-1)">
<use xlink:href="#source-15"/>
</g>
</svg>
