<?xml version="1.0" encoding="UTF-8"?>
<svg xmlns="http://www.w3.org/2000/svg" xmlns:xlink="http://www.w3.org/1999/xlink" width="24" height="24" viewBox="0 0 24 24">
<path fill-rule="nonzero" fill="rgb(57.647059%, 0%, 57.647059%)" fill-opacity="1" d="M 11.320312 6.667969 C 10.304688 6.667969 9.46875 7.503906 9.46875 8.519531 C 9.46875 9.199219 9.84375 9.796875 10.394531 10.121094 L 10.394531 11.296875 L 9.007812 11.296875 L 9.007812 12.222656 L 10.394531 12.222656 L 10.394531 16.390625 C 9.273438 16.308594 8.035156 14.847656 7.449219 13.484375 C 7.914062 13.511719 8.371094 13.476562 8.371094 13.476562 C 8.371094 13.476562 7.476562 12.125 6.21875 11.777344 C 5.429688 12.457031 5.304688 14.378906 5.304688 14.378906 C 5.304688 14.378906 5.601562 14.234375 5.960938 13.960938 C 6.5625 15.691406 8.140625 17.191406 10.042969 17.609375 C 10.863281 17.789062 11.320312 18.699219 11.320312 18.699219 C 11.320312 18.699219 11.777344 17.789062 12.597656 17.609375 C 14.492188 17.191406 16.0625 15.707031 16.671875 13.988281 C 17.039062 14.265625 17.335938 14.378906 17.335938 14.378906 C 17.335938 13.824219 17.273438 12.699219 16.46875 11.757812 C 15.210938 12.101562 14.269531 13.476562 14.269531 13.476562 C 14.269531 13.476562 14.726562 13.511719 15.191406 13.484375 C 14.605469 14.847656 13.367188 16.308594 12.246094 16.390625 L 12.246094 12.222656 L 13.632812 12.222656 L 13.632812 11.296875 L 12.246094 11.296875 L 12.246094 10.121094 C 12.796875 9.796875 13.171875 9.199219 13.171875 8.519531 C 13.171875 7.503906 12.335938 6.667969 11.320312 6.667969 Z M 11.320312 7.59375 C 11.835938 7.59375 12.246094 8.003906 12.246094 8.519531 C 12.246094 9.035156 11.835938 9.445312 11.320312 9.445312 C 10.804688 9.445312 10.394531 9.035156 10.394531 8.519531 C 10.394531 8.003906 10.804688 7.59375 11.320312 7.59375 Z M 11.320312 7.59375 "/>
<path fill-rule="nonzero" fill="rgb(57.647059%, 0%, 57.647059%)" fill-opacity="1" d="M 14.96875 5.777344 L 14.96875 6.414062 L 14.335938 6.414062 L 14.335938 8 L 15.921875 8 L 15.921875 7.367188 L 16.242188 7.046875 L 16.242188 6.414062 L 15.289062 6.414062 L 15.289062 5.777344 Z M 14.335938 8.320312 L 14.335938 8.828125 C 14.335938 9.113281 14.429688 9.367188 14.589844 9.589844 L 15.289062 10.542969 L 18.625 10.542969 C 19.132812 10.542969 19.738281 10.097656 20.054688 9.65625 C 20.375 9.210938 20.691406 8.605469 20.691406 8.320312 Z M 19.101562 8.953125 L 19.738281 8.953125 L 19.738281 9.273438 L 19.101562 9.273438 Z M 19.101562 8.953125 "/>
</svg>
