<?xml version="1.0" encoding="UTF-8"?>
<svg xmlns="http://www.w3.org/2000/svg" xmlns:xlink="http://www.w3.org/1999/xlink" width="24" height="24" viewBox="0 0 24 24">
<defs>
<filter id="filter-remove-color" x="0%" y="0%" width="100%" height="100%">
<feColorMatrix color-interpolation-filters="sRGB" values="0 0 0 0 1 0 0 0 0 1 0 0 0 0 1 0 0 0 1 0" />
</filter>
<mask id="mask-0">
<g filter="url(#filter-remove-color)">
<rect x="-2.4" y="-2.4" width="28.8" height="28.8" fill="rgb(0%, 0%, 0%)" fill-opacity="0.372"/>
</g>
</mask>
<clipPath id="clip-0">
<path clip-rule="nonzero" d="M 4 1 L 19 1 L 19 24 L 4 24 Z M 4 1 "/>
</clipPath>
<clipPath id="clip-1">
<rect x="0" y="0" width="24" height="24"/>
</clipPath>
<g id="source-7" clip-path="url(#clip-1)">
<g clip-path="url(#clip-0)">
<path fill-rule="nonzero" fill="rgb(89.411765%, 89.411765%, 89.411765%)" fill-opacity="1" d="M 11.078125 1.78125 C 10.933594 1.777344 10.789062 1.808594 10.652344 1.863281 C 10.519531 1.917969 10.398438 2 10.292969 2.105469 C 10.191406 2.207031 10.109375 2.332031 10.054688 2.464844 C 9.996094 2.601562 9.96875 2.746094 9.96875 2.890625 L 9.96875 6.054688 L 8.144531 6.054688 C 8 6.054688 7.855469 6.082031 7.71875 6.140625 C 7.585938 6.195312 7.464844 6.277344 7.359375 6.378906 C 7.257812 6.484375 7.175781 6.605469 7.117188 6.738281 C 7.0625 6.875 7.035156 7.019531 7.035156 7.164062 L 7.035156 8.382812 C 7.035156 8.527344 7.0625 8.671875 7.117188 8.808594 C 7.175781 8.941406 7.257812 9.0625 7.359375 9.167969 C 7.464844 9.269531 7.585938 9.351562 7.71875 9.40625 C 7.855469 9.464844 8 9.492188 8.144531 9.492188 L 9.96875 9.492188 L 9.96875 10.117188 L 5.628906 10.117188 C 5.480469 10.117188 5.335938 10.144531 5.203125 10.203125 C 5.066406 10.257812 4.945312 10.339844 4.84375 10.441406 C 4.738281 10.546875 4.65625 10.667969 4.601562 10.804688 C 4.546875 10.9375 4.515625 11.082031 4.515625 11.226562 L 4.515625 12.445312 C 4.515625 12.589844 4.546875 12.734375 4.601562 12.871094 C 4.65625 13.003906 4.738281 13.128906 4.84375 13.230469 C 4.945312 13.332031 5.066406 13.414062 5.203125 13.472656 C 5.335938 13.527344 5.480469 13.554688 5.628906 13.554688 L 9.96875 13.554688 L 9.96875 14.46875 L 8.144531 14.46875 C 8 14.46875 7.855469 14.496094 7.71875 14.554688 C 7.585938 14.609375 7.464844 14.691406 7.359375 14.792969 C 7.257812 14.898438 7.175781 15.019531 7.117188 15.152344 C 7.0625 15.289062 7.035156 15.433594 7.035156 15.578125 L 7.035156 16.796875 C 7.035156 16.941406 7.0625 17.085938 7.117188 17.222656 C 7.175781 17.355469 7.257812 17.476562 7.359375 17.582031 C 7.464844 17.683594 7.585938 17.765625 7.71875 17.824219 C 7.855469 17.878906 8 17.90625 8.144531 17.90625 L 9.96875 17.90625 L 9.96875 19.015625 C 9.699219 19.214844 9.464844 19.457031 9.28125 19.738281 L 5.816406 19.738281 C 5.671875 19.738281 5.527344 19.765625 5.394531 19.824219 C 5.257812 19.878906 5.136719 19.960938 5.03125 20.0625 C 4.929688 20.167969 4.847656 20.289062 4.792969 20.421875 C 4.734375 20.558594 4.707031 20.703125 4.707031 20.847656 L 4.707031 21.882812 C 4.707031 22.027344 4.734375 22.171875 4.792969 22.308594 C 4.847656 22.441406 4.929688 22.566406 5.03125 22.667969 C 5.136719 22.773438 5.257812 22.855469 5.394531 22.910156 C 5.527344 22.964844 5.671875 22.992188 5.816406 22.992188 L 9.289062 22.992188 C 9.816406 23.773438 10.703125 24.285156 11.707031 24.285156 C 12.710938 24.285156 13.597656 23.773438 14.128906 22.992188 L 17.597656 22.992188 C 17.742188 22.992188 17.886719 22.964844 18.023438 22.910156 C 18.15625 22.855469 18.28125 22.773438 18.382812 22.667969 C 18.488281 22.566406 18.566406 22.441406 18.625 22.308594 C 18.679688 22.171875 18.707031 22.027344 18.707031 21.882812 L 18.707031 20.847656 C 18.707031 20.703125 18.679688 20.558594 18.625 20.421875 C 18.566406 20.289062 18.488281 20.167969 18.382812 20.0625 C 18.28125 19.960938 18.15625 19.878906 18.023438 19.824219 C 17.886719 19.765625 17.742188 19.738281 17.597656 19.738281 L 14.136719 19.738281 C 13.949219 19.460938 13.71875 19.214844 13.449219 19.015625 L 13.449219 17.90625 L 15.273438 17.90625 C 15.421875 17.90625 15.566406 17.878906 15.699219 17.824219 C 15.835938 17.765625 15.957031 17.683594 16.058594 17.582031 C 16.164062 17.476562 16.246094 17.355469 16.300781 17.222656 C 16.355469 17.085938 16.386719 16.941406 16.386719 16.796875 L 16.386719 15.578125 C 16.386719 15.433594 16.355469 15.289062 16.300781 15.152344 C 16.246094 15.019531 16.164062 14.898438 16.058594 14.792969 C 15.957031 14.691406 15.835938 14.609375 15.699219 14.554688 C 15.566406 14.496094 15.421875 14.46875 15.273438 14.46875 L 13.449219 14.46875 L 13.449219 13.554688 L 17.789062 13.554688 C 17.9375 13.554688 18.082031 13.527344 18.214844 13.472656 C 18.351562 13.414062 18.472656 13.332031 18.574219 13.230469 C 18.679688 13.128906 18.761719 13.003906 18.816406 12.871094 C 18.871094 12.734375 18.902344 12.589844 18.902344 12.445312 L 18.902344 11.226562 C 18.902344 11.082031 18.871094 10.9375 18.816406 10.804688 C 18.761719 10.667969 18.679688 10.546875 18.574219 10.441406 C 18.472656 10.339844 18.351562 10.257812 18.214844 10.203125 C 18.082031 10.144531 17.9375 10.117188 17.789062 10.117188 L 13.449219 10.117188 L 13.449219 9.492188 L 15.273438 9.492188 C 15.421875 9.492188 15.566406 9.464844 15.699219 9.40625 C 15.835938 9.351562 15.957031 9.269531 16.058594 9.167969 C 16.164062 9.0625 16.246094 8.941406 16.300781 8.808594 C 16.355469 8.671875 16.386719 8.527344 16.386719 8.382812 L 16.386719 7.164062 C 16.386719 7.019531 16.355469 6.875 16.300781 6.738281 C 16.246094 6.605469 16.164062 6.484375 16.058594 6.378906 C 15.957031 6.277344 15.835938 6.195312 15.699219 6.140625 C 15.566406 6.082031 15.421875 6.054688 15.273438 6.054688 L 13.449219 6.054688 L 13.449219 2.890625 C 13.449219 2.746094 13.421875 2.601562 13.367188 2.464844 C 13.308594 2.332031 13.230469 2.207031 13.125 2.105469 C 13.023438 2 12.898438 1.917969 12.765625 1.863281 C 12.628906 1.808594 12.484375 1.777344 12.339844 1.78125 Z M 11.589844 21.28125 L 11.707031 21.355469 L 11.828125 21.28125 C 11.828125 21.28125 11.828125 21.285156 11.828125 21.285156 L 11.714844 21.359375 L 11.832031 21.433594 C 11.832031 21.433594 11.828125 21.433594 11.824219 21.4375 L 11.707031 21.363281 L 11.589844 21.4375 C 11.589844 21.433594 11.585938 21.433594 11.582031 21.433594 L 11.703125 21.359375 L 11.585938 21.285156 C 11.585938 21.285156 11.589844 21.28125 11.589844 21.28125 Z M 11.589844 21.28125 "/>
</g>
</g>
</defs>
<g mask="url(#mask-0)">
<use xlink:href="#source-7"/>
</g>
<path fill="none" stroke-width="25" stroke-linecap="butt" stroke-linejoin="miter" stroke="rgb(0%, 0%, 0%)" stroke-opacity="1" stroke-miterlimit="4" d="M 140.846354 516.5625 L 425.559896 516.5625 " transform="matrix(0.0413793, 0, 0, 0.0413793, 0, 0)"/>
<path fill-rule="nonzero" fill="rgb(99.607843%, 99.607843%, 99.607843%)" fill-opacity="1" stroke-width="20.5723" stroke-linecap="round" stroke-linejoin="round" stroke="rgb(0%, 0%, 0%)" stroke-opacity="1" stroke-miterlimit="10" d="M 316.809896 516.373698 C 316.809896 525.341797 313.222656 533.837891 306.992188 540.16276 C 300.667318 546.48763 292.076823 549.980469 283.203125 549.980469 C 274.329427 549.980469 265.738932 546.48763 259.414062 540.16276 C 253.089193 533.837891 249.596354 525.341797 249.596354 516.373698 C 249.596354 507.5 253.089193 498.909505 259.414062 492.679036 C 265.738932 486.354167 274.329427 482.766927 283.203125 482.766927 C 292.076823 482.766927 300.667318 486.354167 306.992188 492.679036 C 313.222656 498.909505 316.809896 507.5 316.809896 516.373698 Z M 316.809896 516.373698 " transform="matrix(0.0413793, 0, 0, 0.0413793, 0, 0)"/>
<path fill="none" stroke-width="30.4842" stroke-linecap="butt" stroke-linejoin="miter" stroke="rgb(0%, 0%, 0%)" stroke-opacity="1" stroke-miterlimit="4" d="M 283.203125 490.507812 L 283.203125 70.045573 " transform="matrix(0.0413793, 0, 0, 0.0413793, 0, 0)"/>
<path fill="none" stroke-width="29.412201" stroke-linecap="butt" stroke-linejoin="miter" stroke="rgb(0%, 0%, 0%)" stroke-opacity="1" stroke-miterlimit="4" d="M 136.315104 286.318359 L 430.185547 286.318359 " transform="matrix(0.0413793, 0, 0, 0.0413793, 0, 0)"/>
<path fill="none" stroke-width="29.412201" stroke-linecap="butt" stroke-linejoin="miter" stroke="rgb(0%, 0%, 0%)" stroke-opacity="1" stroke-miterlimit="4" d="M 197.109375 188.046875 L 369.391276 188.046875 " transform="matrix(0.0413793, 0, 0, 0.0413793, 0, 0)"/>
<path fill="none" stroke-width="29.412201" stroke-linecap="butt" stroke-linejoin="miter" stroke="rgb(0%, 0%, 0%)" stroke-opacity="1" stroke-miterlimit="4" d="M 197.109375 391.386719 L 369.391276 391.386719 " transform="matrix(0.0413793, 0, 0, 0.0413793, 0, 0)"/>
</svg>
