<?xml version="1.0" encoding="UTF-8"?>
<svg xmlns="http://www.w3.org/2000/svg" xmlns:xlink="http://www.w3.org/1999/xlink" width="12" height="12" viewBox="0 0 12 12" version="1.1">
<defs>
<filter id="alpha" filterUnits="objectBoundingBox" x="0%" y="0%" width="100%" height="100%">
  <feColorMatrix type="matrix" in="SourceGraphic" values="0 0 0 0 1 0 0 0 0 1 0 0 0 0 1 0 0 0 1 0"/>
</filter>
<mask id="mask0">
  <g filter="url(#alpha)">
<rect x="0" y="0" width="12" height="12" style="fill:rgb(0%,0%,0%);fill-opacity:0.552;stroke:none;"/>
  </g>
</mask>
<clipPath id="clip1">
  <rect x="0" y="0" width="12" height="12"/>
</clipPath>
<g id="surface5" clip-path="url(#clip1)">
<path style=" stroke:none;fill-rule:nonzero;fill:rgb(55.29412%,55.29412%,55.29412%);fill-opacity:1;" d="M 5.433594 0.0078125 C 5.371094 0.0078125 5.3125 0.0195312 5.253906 0.0429688 C 5.199219 0.0664062 5.144531 0.101562 5.101562 0.144531 C 5.058594 0.1875 5.023438 0.238281 5 0.296875 C 4.976562 0.351562 4.964844 0.414062 4.964844 0.476562 L 4.964844 1.070312 L 4.371094 1.070312 C 4.308594 1.070312 4.246094 1.082031 4.191406 1.105469 C 4.132812 1.128906 4.082031 1.164062 4.039062 1.207031 C 3.996094 1.25 3.960938 1.300781 3.9375 1.359375 C 3.914062 1.414062 3.902344 1.476562 3.902344 1.539062 L 3.902344 2.359375 C 3.902344 2.421875 3.914062 2.484375 3.9375 2.539062 C 3.960938 2.597656 3.996094 2.648438 4.039062 2.691406 C 4.082031 2.734375 4.132812 2.769531 4.191406 2.792969 C 4.246094 2.816406 4.308594 2.828125 4.371094 2.828125 L 4.964844 2.828125 L 4.964844 3.421875 C 4.964844 3.488281 4.980469 3.554688 5.007812 3.617188 C 5.035156 3.675781 5.074219 3.730469 5.125 3.773438 L 5.125 10.644531 C 5.125 10.707031 5.136719 10.765625 5.160156 10.824219 C 5.183594 10.878906 5.21875 10.929688 5.261719 10.976562 C 5.304688 11.019531 5.359375 11.050781 5.414062 11.074219 C 5.472656 11.097656 5.53125 11.113281 5.59375 11.113281 L 6.109375 11.113281 C 6.171875 11.113281 6.234375 11.097656 6.289062 11.074219 C 6.347656 11.050781 6.398438 11.019531 6.441406 10.976562 C 6.484375 10.929688 6.519531 10.878906 6.542969 10.824219 C 6.566406 10.765625 6.578125 10.707031 6.578125 10.644531 L 6.578125 3.761719 C 6.625 3.71875 6.660156 3.664062 6.683594 3.609375 C 6.710938 3.550781 6.722656 3.488281 6.722656 3.421875 L 6.722656 2.828125 L 7.316406 2.828125 C 7.378906 2.828125 7.441406 2.816406 7.496094 2.792969 C 7.554688 2.769531 7.605469 2.734375 7.648438 2.691406 C 7.691406 2.648438 7.726562 2.597656 7.75 2.539062 C 7.773438 2.484375 7.785156 2.421875 7.785156 2.359375 L 7.785156 1.539062 C 7.785156 1.476562 7.773438 1.414062 7.75 1.359375 C 7.726562 1.300781 7.691406 1.25 7.648438 1.207031 C 7.605469 1.164062 7.554688 1.128906 7.496094 1.105469 C 7.441406 1.082031 7.378906 1.070312 7.316406 1.070312 L 6.722656 1.070312 L 6.722656 0.476562 C 6.722656 0.414062 6.710938 0.351562 6.6875 0.296875 C 6.664062 0.238281 6.628906 0.1875 6.585938 0.144531 C 6.542969 0.101562 6.492188 0.0664062 6.433594 0.0429688 C 6.378906 0.0195312 6.316406 0.0078125 6.257812 0.0078125 Z M 5.433594 0.0078125 "/>
</g>
</defs>
<g id="surface1">
<use xlink:href="#surface5" mask="url(#mask0)"/>
<path style="fill:none;stroke-width:25;stroke-linecap:butt;stroke-linejoin:miter;stroke:rgb(0%,0%,0%);stroke-opacity:1;stroke-miterlimit:4;" d="M 283.014323 514.485677 L 283.014323 68.91276 " transform="matrix(0.0206897,0,0,0.0206897,0,0)"/>
<path style=" stroke:none;fill-rule:nonzero;fill:rgb(100%,83.137256%,0%);fill-opacity:1;" d="M 7.324219 1.539062 L 4.375 1.539062 L 4.375 2.363281 L 7.324219 2.363281 Z M 7.324219 1.539062 "/>
<path style=" stroke:none;fill-rule:nonzero;fill:rgb(100%,83.137256%,0%);fill-opacity:1;" d="M 5.4375 0.476562 L 5.4375 3.425781 L 6.261719 3.425781 L 6.261719 0.476562 Z M 5.4375 0.476562 "/>
</g>
</svg>
