<?xml version="1.0" encoding="UTF-8"?>
<svg xmlns="http://www.w3.org/2000/svg" xmlns:xlink="http://www.w3.org/1999/xlink" width="12" height="12" viewBox="0 0 12 12" version="1.1">
<g id="surface1">
<path style=" stroke:none;fill-rule:nonzero;fill:rgb(99.607843%,99.607843%,99.607843%);fill-opacity:1;" d="M 6 9.492188 C 7.929688 9.492188 9.492188 7.929688 9.492188 6 C 9.492188 4.070312 7.929688 2.507812 6 2.507812 C 4.070312 2.507812 2.507812 4.070312 2.507812 6 C 2.507812 7.929688 4.070312 9.492188 6 9.492188 Z M 6 9.492188 "/>
<path style=" stroke:none;fill-rule:nonzero;fill:rgb(99.607843%,0%,0%);fill-opacity:1;" d="M 4.046875 3.761719 C 4.542969 3.328125 5.1875 3.058594 5.847656 3.027344 C 6.335938 3.003906 6.839844 3.101562 7.28125 3.316406 C 8.085938 3.707031 8.691406 4.46875 8.898438 5.332031 C 8.929688 5.410156 8.855469 5.488281 8.777344 5.480469 C 8.539062 5.484375 8.300781 5.484375 8.0625 5.480469 C 7.988281 5.480469 7.964844 5.402344 7.945312 5.347656 C 7.769531 4.8125 7.359375 4.359375 6.84375 4.128906 C 6.121094 3.792969 5.207031 3.933594 4.625 4.480469 C 4.289062 4.785156 4.0625 5.203125 3.980469 5.644531 C 3.957031 5.710938 4.007812 5.796875 4.078125 5.792969 C 4.164062 5.800781 4.25 5.804688 4.335938 5.789062 C 4.40625 5.738281 4.457031 5.664062 4.515625 5.597656 C 4.738281 5.34375 4.953125 5.085938 5.175781 4.832031 C 5.214844 4.78125 5.292969 4.757812 5.339844 4.808594 C 5.539062 5.023438 5.71875 5.25 5.910156 5.46875 C 5.953125 5.519531 6.035156 5.539062 6.078125 5.480469 C 6.28125 5.265625 6.460938 5.027344 6.664062 4.808594 C 6.71875 4.75 6.800781 4.792969 6.84375 4.847656 C 7.085938 5.132812 7.332031 5.417969 7.578125 5.703125 C 7.617188 5.746094 7.65625 5.804688 7.722656 5.796875 C 8.09375 5.800781 8.464844 5.796875 8.832031 5.796875 C 8.898438 5.792969 8.972656 5.828125 8.96875 5.902344 C 8.992188 6.445312 8.867188 7.003906 8.578125 7.46875 C 8.292969 7.96875 7.859375 8.386719 7.347656 8.648438 C 6.9375 8.867188 6.472656 8.976562 6.007812 8.972656 L 5.992188 8.972656 C 4.917969 8.992188 3.878906 8.347656 3.378906 7.402344 C 3.339844 7.316406 3.261719 7.21875 3.304688 7.121094 C 3.359375 7.0625 3.441406 7.078125 3.511719 7.074219 C 3.738281 7.078125 3.96875 7.070312 4.195312 7.078125 C 4.277344 7.074219 4.308594 7.167969 4.351562 7.222656 C 4.617188 7.574219 4.992188 7.84375 5.417969 7.96875 C 5.820312 8.089844 6.261719 8.082031 6.664062 7.945312 C 7.167969 7.777344 7.59375 7.398438 7.832031 6.925781 C 7.882812 6.859375 7.832031 6.757812 7.75 6.75 C 7.617188 6.738281 7.484375 6.753906 7.351562 6.746094 C 7.316406 6.746094 7.277344 6.746094 7.253906 6.71875 C 7.15625 6.621094 7.074219 6.515625 6.984375 6.414062 C 6.902344 6.324219 6.839844 6.214844 6.726562 6.164062 C 6.609375 6.242188 6.53125 6.359375 6.4375 6.464844 C 6.316406 6.601562 6.203125 6.746094 6.082031 6.878906 C 6.042969 6.925781 5.960938 6.925781 5.921875 6.878906 C 5.707031 6.644531 5.519531 6.382812 5.289062 6.164062 C 5.175781 6.195312 5.117188 6.300781 5.042969 6.382812 C 4.945312 6.492188 4.855469 6.609375 4.753906 6.71875 C 4.722656 6.753906 4.667969 6.742188 4.625 6.746094 C 4.175781 6.746094 3.730469 6.75 3.28125 6.75 C 3.238281 6.746094 3.191406 6.75 3.144531 6.730469 C 3.105469 6.691406 3.097656 6.636719 3.085938 6.582031 C 3.058594 6.429688 3.039062 6.273438 3.027344 6.113281 L 3.027344 5.910156 C 3.054688 5.09375 3.429688 4.296875 4.046875 3.761719 Z M 4.046875 3.761719 "/>
</g>
</svg>
