<svg width="32" height="32" viewBox="0 0 320 320" fill="none" xmlns="http://www.w3.org/2000/svg">
<path d="M119.14 189.692H108.814L90.7754 130.309H101.438L111.469 168.451C111.469 168.451 111.778 169.743 112.396 172.328L113.239 175.953C113.52 177.245 113.773 178.481 113.998 179.661C114.223 178.509 114.475 177.301 114.756 176.037C114.981 174.969 115.248 173.761 115.557 172.412L116.484 168.451L126.473 130.309H137.052L119.14 189.692Z" fill="black"/>
<path d="M173.634 189.692V164.236H152.435V189.692H142.236V130.309H152.435V153.952H173.634V130.309H183.834V189.692H173.634Z" fill="black"/>
<path d="M203.516 139.918V158.293H228.466V167.903H203.516V189.692H193.316V130.309H229.225V139.918H203.516Z" fill="black"/>
</svg>
