<?xml version="1.0" encoding="UTF-8"?>
<svg xmlns="http://www.w3.org/2000/svg" xmlns:xlink="http://www.w3.org/1999/xlink" width="12" height="12" viewBox="0 0 12 12" version="1.1">
<defs>
<filter id="alpha" filterUnits="objectBoundingBox" x="0%" y="0%" width="100%" height="100%">
  <feColorMatrix type="matrix" in="SourceGraphic" values="0 0 0 0 1 0 0 0 0 1 0 0 0 0 1 0 0 0 1 0"/>
</filter>
<mask id="mask0">
  <g filter="url(#alpha)">
<rect x="0" y="0" width="12" height="12" style="fill:rgb(0%,0%,0%);fill-opacity:0.754;stroke:none;"/>
  </g>
</mask>
<clipPath id="clip1">
  <rect x="0" y="0" width="12" height="12"/>
</clipPath>
<g id="surface5" clip-path="url(#clip1)">
<path style=" stroke:none;fill-rule:nonzero;fill:rgb(99.607843%,99.607843%,99.607843%);fill-opacity:1;" d="M 6 0.175781 C 2.726562 0.175781 0.0507812 2.851562 0.0507812 6.125 C 0.0507812 9.398438 2.726562 12.074219 6 12.074219 C 9.273438 12.074219 11.949219 9.398438 11.949219 6.125 C 11.949219 2.851562 9.273438 0.175781 6 0.175781 Z M 6 0.175781 "/>
</g>
<mask id="mask1">
  <g filter="url(#alpha)">
<rect x="0" y="0" width="12" height="12" style="fill:rgb(0%,0%,0%);fill-opacity:0.749;stroke:none;"/>
  </g>
</mask>
<clipPath id="clip2">
  <rect x="0" y="0" width="12" height="12"/>
</clipPath>
<g id="surface8" clip-path="url(#clip2)">
<path style="fill:none;stroke-width:36.48;stroke-linecap:round;stroke-linejoin:round;stroke:rgb(100%,0%,0%);stroke-opacity:1;stroke-miterlimit:4;" d="M 290 536.197917 C 422.727865 536.197917 530.15625 428.580729 530.15625 296.041667 C 530.15625 163.313802 422.727865 55.885417 290 55.885417 C 157.272135 55.885417 49.84375 163.313802 49.84375 296.041667 C 49.84375 428.580729 157.272135 536.197917 290 536.197917 Z M 290 536.197917 " transform="matrix(0.0206897,0,0,0.0206897,0,0)"/>
</g>
</defs>
<g id="surface1">
<use xlink:href="#surface5" mask="url(#mask0)"/>
<path style=" stroke:none;fill-rule:nonzero;fill:rgb(0%,57.254905%,85.490197%);fill-opacity:1;" d="M 5.972656 2.324219 C 5.980469 2.324219 5.988281 2.324219 6 2.324219 C 6.007812 2.324219 6.019531 2.324219 6.027344 2.324219 Z M 6 2.324219 C 5.324219 2.332031 4.410156 2.519531 4.03125 2.679688 C 3.644531 2.839844 3.386719 3 3.304688 3.40625 L 3.015625 5.636719 L 3.015625 8.714844 L 3.515625 8.714844 L 3.515625 9.199219 C 3.515625 9.789062 4.375 9.789062 4.375 9.199219 L 4.375 8.714844 L 7.625 8.714844 L 7.625 9.199219 C 7.625 9.789062 8.484375 9.789062 8.484375 9.199219 L 8.484375 8.714844 L 8.984375 8.714844 L 8.984375 5.636719 L 8.695312 3.40625 C 8.613281 3 8.355469 2.839844 7.96875 2.679688 C 7.589844 2.519531 6.675781 2.332031 6 2.324219 Z M 4.121094 3.617188 L 7.878906 3.617188 C 8.136719 3.617188 8.203125 3.746094 8.234375 3.945312 L 8.457031 5.566406 C 8.480469 5.71875 8.433594 5.875 8.21875 5.875 L 3.78125 5.875 C 3.566406 5.875 3.519531 5.71875 3.542969 5.566406 L 3.765625 3.945312 C 3.796875 3.746094 3.863281 3.617188 4.121094 3.617188 Z M 3.945312 6.925781 C 4.175781 6.925781 4.359375 7.109375 4.359375 7.339844 C 4.359375 7.566406 4.175781 7.75 3.945312 7.75 C 3.71875 7.75 3.53125 7.566406 3.53125 7.339844 C 3.53125 7.109375 3.71875 6.925781 3.945312 6.925781 Z M 8.054688 6.925781 C 8.28125 6.925781 8.46875 7.109375 8.46875 7.339844 C 8.46875 7.566406 8.28125 7.75 8.054688 7.75 C 7.824219 7.75 7.640625 7.566406 7.640625 7.339844 C 7.640625 7.109375 7.824219 6.925781 8.054688 6.925781 Z M 8.054688 6.925781 "/>
<use xlink:href="#surface8" mask="url(#mask1)"/>
</g>
</svg>
