<?xml version="1.0" encoding="UTF-8"?>
<svg xmlns="http://www.w3.org/2000/svg" xmlns:xlink="http://www.w3.org/1999/xlink" width="32" height="32" viewBox="0 0 32 32">
<path fill-rule="nonzero" fill="rgb(99.607843%, 99.607843%, 99.607843%)" fill-opacity="1" d="M 23.171875 7.769531 L 8.828125 7.769531 C 8.210938 7.769531 7.707031 8.269531 7.707031 8.890625 L 7.707031 23.109375 C 7.707031 23.730469 8.210938 24.230469 8.828125 24.230469 L 23.171875 24.230469 C 23.789062 24.230469 24.292969 23.730469 24.292969 23.109375 L 24.292969 8.890625 C 24.292969 8.269531 23.789062 7.769531 23.171875 7.769531 Z M 23.171875 7.769531 "/>
<path fill-rule="nonzero" fill="rgb(86.666667%, 23.529412%, 13.72549%)" fill-opacity="1" d="M 9.253906 9.257812 L 13.96875 9.257812 L 16.007812 18.109375 L 17.875 9.25 L 22.746094 9.25 L 22.746094 22.75 L 19.996094 22.75 L 19.996094 12.40625 L 17.742188 22.75 L 14.316406 22.75 L 11.902344 12.402344 L 11.90625 22.75 L 9.253906 22.75 Z M 9.253906 9.257812 "/>
</svg>
