<?xml version="1.0" encoding="UTF-8"?>
<svg xmlns="http://www.w3.org/2000/svg" xmlns:xlink="http://www.w3.org/1999/xlink" width="32" height="32" viewBox="0 0 32 32">
<path fill-rule="nonzero" fill="rgb(99.607843%, 99.607843%, 99.607843%)" fill-opacity="1" d="M 8.617188 7.78125 C 6.777344 7.78125 5.261719 9.304688 5.261719 11.140625 L 5.261719 20.773438 C 5.261719 22.609375 6.777344 24.132812 8.617188 24.132812 L 23.378906 24.132812 C 25.21875 24.132812 26.734375 22.609375 26.734375 20.773438 L 26.734375 11.140625 C 26.734375 9.304688 25.21875 7.78125 23.378906 7.78125 Z M 8.617188 7.78125 "/>
<path fill-rule="nonzero" fill="rgb(94.509804%, 27.843137%, 15.686275%)" fill-opacity="1" d="M 23.632812 9.21875 L 19.59375 9.21875 L 13.230469 13.710938 L 19.160156 13.710938 L 23.777344 18.304688 L 19.320312 22.785156 L 23.632812 22.785156 C 24.652344 22.785156 25.398438 21.777344 25.398438 21.058594 L 25.398438 10.957031 C 25.398438 10.230469 24.652344 9.21875 23.632812 9.21875 Z M 23.632812 9.21875 "/>
<path fill-rule="nonzero" fill="rgb(12.156863%, 30.980392%, 63.921569%)" fill-opacity="1" d="M 8.355469 22.785156 L 12.390625 22.785156 L 18.75 18.3125 L 12.832031 18.3125 L 8.195312 13.710938 L 12.679688 9.21875 L 8.355469 9.21875 C 7.328125 9.21875 6.601562 10.230469 6.601562 10.964844 L 6.601562 21.066406 C 6.601562 21.777344 7.328125 22.785156 8.355469 22.785156 Z M 8.355469 22.785156 "/>
<path fill-rule="nonzero" fill="rgb(94.509804%, 27.843137%, 15.686275%)" fill-opacity="1" d="M 14.25 14.132812 L 13.683594 14.132812 L 17.15625 17.605469 C 17.316406 17.738281 17.441406 17.898438 17.714844 17.878906 L 18.308594 17.878906 L 14.816406 14.417969 C 14.65625 14.242188 14.542969 14.132812 14.25 14.132812 Z M 14.25 14.132812 "/>
</svg>
