<?xml version="1.0" encoding="UTF-8"?>
<svg xmlns="http://www.w3.org/2000/svg" xmlns:xlink="http://www.w3.org/1999/xlink" width="64" height="64" viewBox="0 0 64 64">
<path fill-rule="nonzero" fill="rgb(57.647059%, 0%, 57.647059%)" fill-opacity="1" d="M 36.148438 30.574219 L 27.851562 30.574219 C 27.851562 28.609375 29.707031 27.015625 32 27.015625 C 34.292969 27.015625 36.148438 28.609375 36.148438 30.574219 Z M 36.148438 30.574219 "/>
<path fill-rule="nonzero" fill="rgb(57.647059%, 0%, 57.647059%)" fill-opacity="1" d="M 27.257812 31.164062 C 27.175781 31.164062 27.097656 31.175781 27.023438 31.203125 C 26.949219 31.234375 26.878906 31.277344 26.824219 31.332031 C 26.765625 31.386719 26.71875 31.453125 26.6875 31.527344 C 26.65625 31.597656 26.640625 31.679688 26.640625 31.757812 C 26.640625 31.835938 26.65625 31.917969 26.6875 31.988281 C 26.71875 32.0625 26.765625 32.128906 26.824219 32.183594 C 26.878906 32.242188 26.949219 32.285156 27.023438 32.3125 C 27.097656 32.339844 27.175781 32.351562 27.257812 32.351562 L 36.742188 32.351562 C 36.824219 32.351562 36.902344 32.339844 36.976562 32.3125 C 37.050781 32.285156 37.121094 32.242188 37.175781 32.183594 C 37.234375 32.128906 37.28125 32.0625 37.3125 31.988281 C 37.34375 31.917969 37.359375 31.835938 37.359375 31.757812 C 37.359375 31.679688 37.34375 31.597656 37.3125 31.527344 C 37.28125 31.453125 37.234375 31.386719 37.175781 31.332031 C 37.121094 31.277344 37.050781 31.234375 36.976562 31.203125 C 36.902344 31.175781 36.824219 31.164062 36.742188 31.164062 Z M 27.257812 31.164062 "/>
<path fill-rule="nonzero" fill="rgb(57.647059%, 0%, 57.647059%)" fill-opacity="1" d="M 31.40625 24.050781 L 31.40625 28.792969 L 32.59375 28.792969 L 32.59375 24.050781 Z M 31.40625 24.050781 "/>
<path fill-rule="nonzero" fill="rgb(57.647059%, 0%, 57.647059%)" fill-opacity="1" d="M 32.59375 34.128906 C 32.59375 34.457031 32.328125 34.722656 32 34.722656 C 31.671875 34.722656 31.40625 34.457031 31.40625 34.128906 C 31.40625 33.800781 31.671875 33.535156 32 33.535156 C 32.328125 33.535156 32.59375 33.800781 32.59375 34.128906 Z M 32.59375 34.128906 "/>
<path fill-rule="nonzero" fill="rgb(57.647059%, 0%, 57.647059%)" fill-opacity="1" d="M 34.964844 34.128906 C 34.964844 34.457031 34.699219 34.722656 34.371094 34.722656 C 34.042969 34.722656 33.777344 34.457031 33.777344 34.128906 C 33.777344 33.800781 34.042969 33.535156 34.371094 33.535156 C 34.699219 33.535156 34.964844 33.800781 34.964844 34.128906 Z M 34.964844 34.128906 "/>
<path fill-rule="nonzero" fill="rgb(57.647059%, 0%, 57.647059%)" fill-opacity="1" d="M 30.222656 34.128906 C 30.222656 34.457031 29.957031 34.722656 29.628906 34.722656 C 29.300781 34.722656 29.035156 34.457031 29.035156 34.128906 C 29.035156 33.800781 29.300781 33.535156 29.628906 33.535156 C 29.957031 33.535156 30.222656 33.800781 30.222656 34.128906 Z M 30.222656 34.128906 "/>
<path fill-rule="nonzero" fill="rgb(57.647059%, 0%, 57.647059%)" fill-opacity="1" d="M 32.59375 38.871094 C 32.59375 39.199219 32.328125 39.464844 32 39.464844 C 31.671875 39.464844 31.40625 39.199219 31.40625 38.871094 C 31.40625 38.542969 31.671875 38.277344 32 38.277344 C 32.328125 38.277344 32.59375 38.542969 32.59375 38.871094 Z M 32.59375 38.871094 "/>
<path fill-rule="nonzero" fill="rgb(57.647059%, 0%, 57.647059%)" fill-opacity="1" d="M 34.964844 38.871094 C 34.964844 39.199219 34.699219 39.464844 34.371094 39.464844 C 34.042969 39.464844 33.777344 39.199219 33.777344 38.871094 C 33.777344 38.542969 34.042969 38.277344 34.371094 38.277344 C 34.699219 38.277344 34.964844 38.542969 34.964844 38.871094 Z M 34.964844 38.871094 "/>
<path fill-rule="nonzero" fill="rgb(57.647059%, 0%, 57.647059%)" fill-opacity="1" d="M 37.335938 38.871094 C 37.335938 39.199219 37.070312 39.464844 36.742188 39.464844 C 36.414062 39.464844 36.148438 39.199219 36.148438 38.871094 C 36.148438 38.542969 36.414062 38.277344 36.742188 38.277344 C 37.070312 38.277344 37.335938 38.542969 37.335938 38.871094 Z M 37.335938 38.871094 "/>
<path fill-rule="nonzero" fill="rgb(57.647059%, 0%, 57.647059%)" fill-opacity="1" d="M 30.222656 38.871094 C 30.222656 39.199219 29.957031 39.464844 29.628906 39.464844 C 29.300781 39.464844 29.035156 39.199219 29.035156 38.871094 C 29.035156 38.542969 29.300781 38.277344 29.628906 38.277344 C 29.957031 38.277344 30.222656 38.542969 30.222656 38.871094 Z M 30.222656 38.871094 "/>
<path fill-rule="nonzero" fill="rgb(57.647059%, 0%, 57.647059%)" fill-opacity="1" d="M 27.851562 38.871094 C 27.851562 39.199219 27.585938 39.464844 27.257812 39.464844 C 26.929688 39.464844 26.664062 39.199219 26.664062 38.871094 C 26.664062 38.542969 26.929688 38.277344 27.257812 38.277344 C 27.585938 38.277344 27.851562 38.542969 27.851562 38.871094 Z M 27.851562 38.871094 "/>
<path fill-rule="nonzero" fill="rgb(57.647059%, 0%, 57.647059%)" fill-opacity="1" d="M 31.40625 36.5 C 31.40625 36.828125 31.140625 37.09375 30.8125 37.09375 C 30.488281 37.09375 30.222656 36.828125 30.222656 36.5 C 30.222656 36.171875 30.488281 35.90625 30.8125 35.90625 C 31.140625 35.90625 31.40625 36.171875 31.40625 36.5 Z M 31.40625 36.5 "/>
<path fill-rule="nonzero" fill="rgb(57.647059%, 0%, 57.647059%)" fill-opacity="1" d="M 33.777344 36.5 C 33.777344 36.828125 33.511719 37.09375 33.1875 37.09375 C 32.859375 37.09375 32.59375 36.828125 32.59375 36.5 C 32.59375 36.171875 32.859375 35.90625 33.1875 35.90625 C 33.511719 35.90625 33.777344 36.171875 33.777344 36.5 Z M 33.777344 36.5 "/>
<path fill-rule="nonzero" fill="rgb(57.647059%, 0%, 57.647059%)" fill-opacity="1" d="M 36.148438 36.5 C 36.148438 36.828125 35.882812 37.09375 35.558594 37.09375 C 35.230469 37.09375 34.964844 36.828125 34.964844 36.5 C 34.964844 36.171875 35.230469 35.90625 35.558594 35.90625 C 35.882812 35.90625 36.148438 36.171875 36.148438 36.5 Z M 36.148438 36.5 "/>
<path fill-rule="nonzero" fill="rgb(57.647059%, 0%, 57.647059%)" fill-opacity="1" d="M 29.035156 36.5 C 29.035156 36.828125 28.769531 37.09375 28.441406 37.09375 C 28.117188 37.09375 27.851562 36.828125 27.851562 36.5 C 27.851562 36.171875 28.117188 35.90625 28.441406 35.90625 C 28.769531 35.90625 29.035156 36.171875 29.035156 36.5 Z M 29.035156 36.5 "/>
</svg>
