<svg width="32" height="32" viewBox="0 0 48 48" fill="none" xmlns="http://www.w3.org/2000/svg">
<path d="M39.7643 18.3471C40.6606 18.3471 41.4211 18.0348 42.0458 17.4101C42.6704 16.7855 42.9827 16.025 42.9828 15.1286C42.9827 14.2313 42.6704 13.4703 42.0458 12.8456C41.4211 12.221 40.6606 11.9087 39.7643 11.9087C38.8992 11.9087 38.1462 12.221 37.5055 12.8456C36.8647 13.4703 36.5443 14.2313 36.5444 15.1286C36.5443 16.025 36.8647 16.7855 37.5055 17.4101C38.1462 18.0348 38.8992 18.3471 39.7643 18.3471V18.3471ZM44.0692 40.4176L42.1392 38.9492C41.755 39.5895 41.0284 40.0757 40.2914 40.0757C39.9394 40.0757 39.5941 39.9808 39.2735 39.7892L5.35567 19.7569L3.93115 22.1776L37.7565 42.069C38.8089 42.6627 39.1073 42.5924 40.3132 42.6256C41.5624 42.6256 43.4279 41.4743 44.0692 40.4176ZM15.6442 24.9292C15.8367 24.9614 16.109 24.9135 16.4609 24.7855L25.735 21.7591C26.6314 21.4385 27.1277 20.9419 27.224 20.2694C27.3203 19.5969 27.3523 19.2283 27.3201 19.1638L25.9271 14.1184L31.5004 17.4336L32.1734 22.287C32.3014 23.1521 32.6695 23.7606 33.2775 24.1125L40.5326 28.3412C40.7887 28.5015 41.0448 28.5817 41.301 28.5817C41.7818 28.5817 42.1824 28.4133 42.5026 28.0765C42.8226 27.7398 42.9827 27.3476 42.9828 26.8998C42.9827 26.2586 42.6948 25.7782 42.1191 25.4585L36.3523 22.0949L35.7277 13.4468C35.6318 12.2934 35.1357 11.4605 34.2394 10.9483L25.9271 6.04655C25.1578 5.59888 24.3567 5.37503 23.5239 5.375C22.0185 5.37503 20.8494 5.98353 20.0166 7.20051C19.5366 7.93758 19.2966 8.73816 19.2966 9.60226C19.2966 9.98644 19.3445 10.3711 19.4403 10.7562L21.6984 18.1066L14.9242 20.2694C13.9633 20.5578 13.4188 21.2625 13.2908 22.3837C13.0982 23.8891 13.8827 24.7376 15.6442 24.9292Z" fill="#000000"/>
</svg>
