<?xml version="1.0" encoding="UTF-8"?>
<svg xmlns="http://www.w3.org/2000/svg" xmlns:xlink="http://www.w3.org/1999/xlink" width="12" height="12" viewBox="0 0 12 12" version="1.1">
<defs>
<filter id="alpha" filterUnits="objectBoundingBox" x="0%" y="0%" width="100%" height="100%">
  <feColorMatrix type="matrix" in="SourceGraphic" values="0 0 0 0 1 0 0 0 0 1 0 0 0 0 1 0 0 0 1 0"/>
</filter>
<mask id="mask0">
  <g filter="url(#alpha)">
<rect x="0" y="0" width="12" height="12" style="fill:rgb(0%,0%,0%);fill-opacity:0.835821;stroke:none;"/>
  </g>
</mask>
<clipPath id="clip1">
  <rect x="0" y="0" width="12" height="12"/>
</clipPath>
<g id="surface5" clip-path="url(#clip1)">
<path style=" stroke:none;fill-rule:nonzero;fill:rgb(54.11765%,29.019609%,54.11765%);fill-opacity:1;" d="M 6 2.300781 C 5.433594 2.300781 4.96875 2.765625 4.96875 3.328125 C 4.96875 3.707031 5.175781 4.042969 5.484375 4.21875 L 5.484375 4.335938 L 4.710938 4.335938 L 4.710938 4.851562 L 5.527344 4.851562 C 4.875 5.054688 4.398438 5.664062 4.398438 6.378906 C 4.398438 7.078125 4.855469 7.675781 5.484375 7.890625 L 5.484375 8.414062 C 4.859375 8.371094 4.171875 7.929688 3.84375 7.171875 C 4.101562 7.183594 4.355469 7.164062 4.355469 7.164062 C 4.355469 7.164062 3.859375 6.414062 3.160156 6.21875 C 2.722656 6.597656 2.652344 7.667969 2.652344 7.667969 C 2.652344 7.667969 2.816406 7.585938 3.015625 7.433594 C 3.351562 8.398438 4.230469 8.859375 5.289062 9.09375 C 5.746094 9.195312 6 9.699219 6 9.699219 C 6 9.699219 6.253906 9.195312 6.710938 9.09375 C 7.765625 8.863281 8.640625 8.40625 8.980469 7.449219 C 9.183594 7.605469 9.347656 7.667969 9.347656 7.667969 C 9.347656 7.359375 9.3125 6.730469 8.867188 6.207031 C 8.164062 6.398438 7.640625 7.164062 7.640625 7.164062 C 7.640625 7.164062 7.894531 7.183594 8.15625 7.171875 C 7.828125 7.929688 7.140625 8.371094 6.515625 8.414062 L 6.515625 7.890625 C 7.140625 7.671875 7.59375 7.078125 7.59375 6.378906 C 7.59375 5.664062 7.121094 5.054688 6.46875 4.851562 L 7.289062 4.851562 L 7.289062 4.335938 L 6.515625 4.335938 L 6.515625 4.21875 C 6.824219 4.042969 7.03125 3.707031 7.03125 3.328125 C 7.03125 2.765625 6.566406 2.300781 6 2.300781 Z M 6 2.8125 C 6.285156 2.8125 6.515625 3.042969 6.515625 3.328125 C 6.515625 3.617188 6.285156 3.84375 6 3.84375 C 5.710938 3.84375 5.484375 3.617188 5.484375 3.328125 C 5.484375 3.042969 5.710938 2.8125 6 2.8125 Z M 5.996094 5.324219 C 6.585938 5.324219 7.054688 5.792969 7.054688 6.378906 C 7.054688 6.964844 6.585938 7.4375 5.996094 7.4375 C 5.410156 7.4375 4.941406 6.964844 4.941406 6.378906 C 4.941406 5.792969 5.410156 5.324219 5.996094 5.324219 Z M 5.996094 5.324219 "/>
</g>
</defs>
<g id="surface1">
<use xlink:href="#surface5" mask="url(#mask0)"/>
</g>
</svg>
