<?xml version="1.0" encoding="UTF-8"?>
<svg xmlns="http://www.w3.org/2000/svg" xmlns:xlink="http://www.w3.org/1999/xlink" width="48" height="48" viewBox="0 0 48 48">
<defs>
<filter id="filter-remove-color" x="0%" y="0%" width="100%" height="100%">
<feColorMatrix color-interpolation-filters="sRGB" values="0 0 0 0 1 0 0 0 0 1 0 0 0 0 1 0 0 0 1 0" />
</filter>
<mask id="mask-0">
<g filter="url(#filter-remove-color)">
<rect x="-4.8" y="-4.8" width="57.6" height="57.6" fill="rgb(0%, 0%, 0%)" fill-opacity="0.372"/>
</g>
</mask>
<clipPath id="clip-0">
<rect x="0" y="0" width="48" height="48"/>
</clipPath>
<g id="source-6" clip-path="url(#clip-0)">
<path fill-rule="nonzero" fill="rgb(89.411765%, 89.411765%, 89.411765%)" fill-opacity="1" d="M 19.992188 11.652344 C 19.746094 11.652344 19.652344 11.628906 19.230469 11.800781 C 19.226562 11.800781 19.226562 11.800781 19.222656 11.800781 C 18.699219 12.011719 18.316406 12.496094 18.203125 12.695312 C 17.6875 13.613281 17.859375 13.90625 18.097656 14.480469 C 18.191406 14.707031 18.445312 15.074219 18.671875 15.265625 C 18.886719 15.441406 18.925781 15.449219 18.847656 15.394531 L 20.410156 16.566406 L 20.410156 20.589844 L 16.710938 20.589844 L 15.328125 18.753906 L 15.289062 18.785156 C 15.089844 18.570312 14.769531 18.226562 14.546875 18.125 C 14.542969 18.125 14.539062 18.121094 14.535156 18.121094 C 13.90625 17.835938 13.566406 17.691406 12.667969 18.21875 C 12.664062 18.21875 12.664062 18.222656 12.664062 18.222656 C 12.394531 18.378906 12.035156 18.835938 11.84375 19.191406 L 11.820312 19.183594 C 11.886719 19.023438 11.652344 19.070312 11.652344 19.992188 L 11.652344 28.007812 C 11.652344 28.273438 11.625 28.335938 11.796875 28.765625 C 12.039062 29.378906 12.464844 29.660156 12.648438 29.769531 C 12.652344 29.769531 12.660156 29.777344 12.664062 29.777344 C 13.25 30.125 13.582031 30.066406 13.785156 30.058594 C 13.992188 30.046875 14.101562 30.019531 14.210938 29.992188 C 14.558594 29.902344 14.980469 29.59375 15.214844 29.363281 L 15.226562 29.371094 L 15.234375 29.359375 L 15.222656 29.351562 C 15.273438 29.300781 15.324219 29.25 15.355469 29.210938 C 15.320312 29.257812 15.300781 29.285156 15.234375 29.359375 L 16.585938 27.835938 L 20.410156 27.835938 L 20.410156 31.289062 L 18.757812 32.671875 L 18.785156 32.710938 C 18.570312 32.910156 18.226562 33.230469 18.125 33.453125 C 18.125 33.457031 18.121094 33.460938 18.121094 33.464844 C 17.835938 34.09375 17.695312 34.433594 18.21875 35.332031 C 18.222656 35.335938 18.222656 35.339844 18.222656 35.339844 C 18.382812 35.609375 18.835938 35.964844 19.1875 36.15625 L 19.179688 36.179688 C 19.023438 36.113281 19.070312 36.347656 19.992188 36.347656 L 28.007812 36.347656 C 28.273438 36.347656 28.335938 36.371094 28.761719 36.207031 C 29.378906 35.964844 29.664062 35.53125 29.769531 35.347656 L 29.773438 35.347656 C 29.773438 35.347656 29.773438 35.34375 29.777344 35.34375 C 29.777344 35.339844 29.777344 35.339844 29.78125 35.335938 C 30.125 34.75 30.066406 34.417969 30.058594 34.214844 C 30.050781 34.007812 30.023438 33.894531 29.992188 33.785156 C 29.878906 33.351562 29.425781 32.800781 29.210938 32.644531 C 29.257812 32.679688 29.292969 32.703125 29.371094 32.773438 L 27.839844 31.414062 L 27.839844 27.835938 L 31.527344 27.835938 L 32.71875 29.304688 L 32.761719 29.269531 C 32.972656 29.496094 33.246094 29.777344 33.441406 29.871094 C 33.445312 29.871094 33.449219 29.871094 33.453125 29.875 C 34.097656 30.167969 34.445312 30.285156 35.3125 29.792969 C 35.316406 29.789062 35.320312 29.789062 35.320312 29.789062 C 35.589844 29.632812 35.964844 29.164062 36.160156 28.796875 L 36.1875 28.808594 C 36.113281 28.980469 36.347656 28.941406 36.347656 28.007812 L 36.347656 19.992188 C 36.347656 19.746094 36.371094 19.652344 36.199219 19.226562 C 36.199219 19.226562 36.199219 19.226562 36.199219 19.222656 C 35.988281 18.699219 35.511719 18.324219 35.308594 18.207031 L 35.308594 18.203125 C 35.308594 18.203125 35.304688 18.203125 35.300781 18.203125 C 34.378906 17.683594 34.09375 17.859375 33.519531 18.097656 C 33.292969 18.191406 32.925781 18.445312 32.734375 18.671875 C 32.558594 18.886719 32.550781 18.925781 32.605469 18.847656 L 31.433594 20.589844 L 27.839844 20.589844 L 27.839844 16.472656 L 29.304688 15.28125 L 29.269531 15.238281 C 29.496094 15.027344 29.777344 14.753906 29.871094 14.558594 C 29.871094 14.554688 29.871094 14.550781 29.875 14.546875 C 30.167969 13.902344 30.292969 13.558594 29.789062 12.679688 C 29.632812 12.410156 29.160156 12.035156 28.792969 11.839844 L 28.804688 11.8125 C 28.984375 11.886719 28.945312 11.652344 28.007812 11.652344 Z M 28.355469 11.671875 C 28.324219 11.660156 28.414062 11.6875 28.511719 11.714844 C 28.59375 11.738281 28.671875 11.757812 28.804688 11.8125 L 28.792969 11.839844 C 28.6875 11.78125 28.589844 11.734375 28.511719 11.714844 C 28.425781 11.695312 28.375 11.679688 28.355469 11.671875 Z M 11.816406 19.1875 L 11.839844 19.195312 C 11.785156 19.300781 11.738281 19.398438 11.71875 19.476562 C 11.632812 19.808594 11.65625 19.5625 11.816406 19.1875 Z M 24.214844 23.921875 C 24.300781 24.03125 24.398438 24.128906 24.503906 24.214844 C 24.398438 24.300781 24.300781 24.398438 24.214844 24.503906 C 24.128906 24.398438 24.03125 24.300781 23.921875 24.214844 C 24.03125 24.128906 24.128906 24.03125 24.214844 23.921875 Z M 36.328125 28.355469 C 36.339844 28.324219 36.3125 28.414062 36.285156 28.511719 C 36.261719 28.59375 36.242188 28.667969 36.1875 28.800781 L 36.160156 28.792969 C 36.21875 28.6875 36.265625 28.589844 36.285156 28.511719 C 36.304688 28.425781 36.320312 28.375 36.328125 28.355469 Z M 19.195312 36.160156 C 19.300781 36.214844 19.398438 36.261719 19.476562 36.28125 C 19.804688 36.363281 19.558594 36.339844 19.1875 36.183594 Z M 19.195312 36.160156 "/>
</g>
</defs>
<g mask="url(#mask-0)">
<use xlink:href="#source-6"/>
</g>
<path fill-rule="nonzero" fill="rgb(0%, 0%, 0%)" fill-opacity="1" stroke-width="21.514099" stroke-linecap="butt" stroke-linejoin="bevel" stroke="rgb(0%, 0%, 0%)" stroke-opacity="1" stroke-miterlimit="4" d="M 441.494141 302.438151 C 441.407878 302.438151 441.235352 302.438151 441.321615 302.524414 L 495.839844 341.860352 L 495.839844 499.807943 L 346.518555 499.807943 L 302.524414 441.235352 C 302.438151 441.235352 302.438151 441.321615 302.438151 441.494141 L 302.438151 618.505859 C 302.438151 618.592122 302.438151 618.764648 302.524414 618.678385 L 346.000977 569.68099 L 495.839844 569.68099 L 495.839844 713.481445 L 441.321615 757.475586 C 441.235352 757.561849 441.407878 757.561849 441.494141 757.561849 L 618.505859 757.561849 C 618.678385 757.561849 618.764648 757.561849 618.764648 757.475586 L 569.68099 713.999023 L 569.68099 569.68099 L 717.62207 569.68099 L 757.475586 618.678385 C 757.561849 618.764648 757.561849 618.592122 757.561849 618.505859 L 757.561849 441.494141 C 757.561849 441.321615 757.561849 441.235352 757.475586 441.235352 L 718.139648 499.807943 L 569.68099 499.807943 L 569.68099 342.37793 L 618.764648 302.524414 C 618.764648 302.438151 618.678385 302.438151 618.505859 302.438151 Z M 441.494141 302.438151 " transform="matrix(0.045283, 0, 0, 0.045283, 0, 0)"/>
</svg>
