<?xml version="1.0" encoding="UTF-8"?>
<svg xmlns="http://www.w3.org/2000/svg" xmlns:xlink="http://www.w3.org/1999/xlink" width="24" height="24" viewBox="0 0 24 24">
<path fill-rule="nonzero" fill="rgb(55.686275%, 0%, 47.058824%)" fill-opacity="1" d="M 11.3125 19.914062 C 11.3125 20.226562 11.1875 20.527344 10.964844 20.75 C 10.742188 20.972656 10.441406 21.097656 10.128906 21.097656 C 9.816406 21.097656 9.515625 20.972656 9.292969 20.75 C 9.070312 20.527344 8.945312 20.226562 8.945312 19.914062 C 8.945312 19.601562 9.070312 19.300781 9.292969 19.078125 C 9.515625 18.855469 9.816406 18.730469 10.128906 18.730469 C 10.441406 18.730469 10.742188 18.855469 10.964844 19.078125 C 11.1875 19.300781 11.3125 19.601562 11.3125 19.914062 Z M 11.3125 19.914062 "/>
<path fill-rule="nonzero" fill="rgb(55.686275%, 0%, 47.058824%)" fill-opacity="1" d="M 15.871094 17.382812 C 15.871094 17.695312 15.746094 17.996094 15.523438 18.21875 C 15.300781 18.441406 15 18.566406 14.6875 18.566406 C 14.375 18.566406 14.074219 18.441406 13.851562 18.21875 C 13.628906 17.996094 13.503906 17.695312 13.503906 17.382812 C 13.503906 17.070312 13.628906 16.769531 13.851562 16.546875 C 14.074219 16.324219 14.375 16.199219 14.6875 16.199219 C 15 16.199219 15.300781 16.324219 15.523438 16.546875 C 15.746094 16.769531 15.871094 17.070312 15.871094 17.382812 Z M 15.871094 17.382812 "/>
<path fill-rule="nonzero" fill="rgb(55.686275%, 0%, 47.058824%)" fill-opacity="1" d="M 19.078125 12.359375 C 19.078125 12.675781 18.953125 12.976562 18.730469 13.195312 C 18.507812 13.417969 18.207031 13.542969 17.894531 13.542969 C 17.582031 13.542969 17.28125 13.417969 17.058594 13.195312 C 16.835938 12.976562 16.710938 12.675781 16.710938 12.359375 C 16.710938 12.046875 16.835938 11.746094 17.058594 11.523438 C 17.28125 11.304688 17.582031 11.179688 17.894531 11.179688 C 18.207031 11.179688 18.507812 11.304688 18.730469 11.523438 C 18.953125 11.746094 19.078125 12.046875 19.078125 12.359375 Z M 19.078125 12.359375 "/>
<path fill-rule="nonzero" fill="rgb(55.686275%, 0%, 47.058824%)" fill-opacity="1" d="M 20.671875 5.410156 C 20.671875 5.722656 20.546875 6.023438 20.324219 6.246094 C 20.101562 6.46875 19.800781 6.59375 19.488281 6.59375 C 19.175781 6.59375 18.875 6.46875 18.652344 6.246094 C 18.429688 6.023438 18.304688 5.722656 18.304688 5.410156 C 18.304688 5.097656 18.429688 4.796875 18.652344 4.574219 C 18.875 4.351562 19.175781 4.226562 19.488281 4.226562 C 19.800781 4.226562 20.101562 4.351562 20.324219 4.574219 C 20.546875 4.796875 20.671875 5.097656 20.671875 5.410156 Z M 20.671875 5.410156 "/>
<path fill="none" stroke-width="21.497" stroke-linecap="round" stroke-linejoin="round" stroke="rgb(55.686275%, 0%, 47.058824%)" stroke-opacity="1" stroke-miterlimit="4" d="M 243.460286 476.630859 C 243.460286 476.630859 252.80599 389.593099 206.266276 333.707682 C 159.726562 277.916667 132.161458 260.452474 122.721354 227.223307 C 118.850911 213.440755 114.036458 182.571615 133.388672 149.720052 C 160.859375 102.897135 246.575521 115.641276 278.105469 126.119792 C 309.541016 136.692708 394.029948 189.934896 456.051432 140.185547 " transform="matrix(0.0413793, 0, 0, 0.0413793, 0, 0)"/>
<path fill="none" stroke-width="20.197001" stroke-linecap="round" stroke-linejoin="round" stroke="rgb(55.686275%, 0%, 47.058824%)" stroke-opacity="1" stroke-miterlimit="4" d="M 422.444661 299.251302 C 422.444661 299.251302 358.91276 274.895833 307.18099 225.996094 C 210.136719 134.332682 135.276693 153.401693 135.843099 150.947266 " transform="matrix(0.0413793, 0, 0, 0.0413793, 0, 0)"/>
<path fill="none" stroke-width="20.097" stroke-linecap="round" stroke-linejoin="round" stroke="rgb(55.686275%, 0%, 47.058824%)" stroke-opacity="1" stroke-miterlimit="4" d="M 356.458333 437.360026 C 356.458333 437.360026 343.997396 370.524089 304.820964 333.990885 C 265.55013 297.457682 213.723958 261.302083 180.211589 231.754557 C 162.18099 215.800781 136.975911 191.162109 138.486328 149.625651 " transform="matrix(0.0413793, 0, 0, 0.0413793, 0, 0)"/>
<path fill="none" stroke-width="20.197001" stroke-linecap="round" stroke-linejoin="round" stroke="rgb(55.686275%, 0%, 47.058824%)" stroke-opacity="1" stroke-miterlimit="4" d="M 241.761068 408.001302 C 249.21875 356.17513 276.311849 352.399089 320.585938 352.49349 C 320.963542 329.365234 330.403646 275.273438 362.594401 268.28776 C 347.11263 234.68099 352.210286 167.278646 394.973958 162.936198 " transform="matrix(0.0413793, 0, 0, 0.0413793, 0, 0)"/>
<path fill="none" stroke-width="20.197001" stroke-linecap="round" stroke-linejoin="round" stroke="rgb(55.686275%, 0%, 47.058824%)" stroke-opacity="1" stroke-miterlimit="4" d="M 198.525391 324.550781 C 198.525391 324.550781 252.428385 298.873698 272.724609 306.142578 C 279.615885 295.380859 292.265625 244.970703 313.977865 232.226562 C 293.209635 185.120443 312.750651 143.583984 312.750651 143.583984 " transform="matrix(0.0413793, 0, 0, 0.0413793, 0, 0)"/>
<path fill="none" stroke-width="20.197001" stroke-linecap="round" stroke-linejoin="round" stroke="rgb(55.686275%, 0%, 47.058824%)" stroke-opacity="1" stroke-miterlimit="4" d="M 165.86263 287.545573 C 176.813151 274.518229 209.38151 277.444661 231.943359 273.574219 C 228.072917 261.585286 247.141927 205.69987 271.969401 196.63737 C 264.700521 191.445312 271.497396 132.916667 271.497396 132.916667 " transform="matrix(0.0413793, 0, 0, 0.0413793, 0, 0)"/>
<path fill="none" stroke-width="20.197001" stroke-linecap="round" stroke-linejoin="round" stroke="rgb(55.686275%, 0%, 47.058824%)" stroke-opacity="1" stroke-miterlimit="4" d="M 123.28776 211.269531 C 123.28776 211.269531 143.017578 210.419922 154.817708 204.472656 C 166.617839 198.525391 187.669271 163.880208 189.746094 156.233724 C 191.822917 148.492839 194.938151 120.738932 191.445312 120.833333 M 233.548177 126.591797 C 233.548177 126.591797 229.394531 152.646484 232.226562 172.281901 C 222.97526 183.232422 197.675781 215.989583 183.421224 234.492188 C 158.216146 238.551432 135.182292 248.557943 135.276693 248.746745 Z M 233.548177 126.591797 " transform="matrix(0.0413793, 0, 0, 0.0413793, 0, 0)"/>
</svg>
