<svg width="32" height="32" viewBox="0 0 16 16" fill="none" xmlns="http://www.w3.org/2000/svg">
<path d="M8 3.53906C5.54349 3.53906 3.53906 5.54023 3.53906 8C3.53906 10.4597 5.54337 12.4609 8 12.4609C10.4581 12.4609 12.4609 10.4594 12.4609 8C12.4609 5.54035 10.458 3.53906 8 3.53906Z" fill="#FEFEFE"/>
<path d="M3.98596 8C3.98596 5.78187 5.78531 3.98581 8.00027 3.98581C10.2169 3.98581 12.014 5.78176 12.014 8C12.014 10.218 10.217 12.0142 8.00027 12.0142C5.7852 12.0142 3.98596 10.218 3.98596 8Z" fill="black"/>
<path d="M10.4237 5.61087V10.4272H9.4122V7.70833C9.37307 7.81509 8.82352 9.40158 8.64169 9.93809L8.18969 8.58932L9.18378 5.61087H10.4237ZM6.84914 5.61087H5.61041V10.4272H6.61898V7.70833C6.66928 7.84654 7.56759 10.4272 7.56759 10.4272H8.4695L6.84914 5.61087V5.61087Z" fill="#FEFEFE"/>
</svg>
