<?xml version="1.0" encoding="UTF-8"?>
<svg xmlns="http://www.w3.org/2000/svg" xmlns:xlink="http://www.w3.org/1999/xlink" width="48" height="48" viewBox="0 0 48 48">
<defs>
<filter id="filter-remove-color" x="0%" y="0%" width="100%" height="100%">
<feColorMatrix color-interpolation-filters="sRGB" values="0 0 0 0 1 0 0 0 0 1 0 0 0 0 1 0 0 0 1 0" />
</filter>
<mask id="mask-0">
<g filter="url(#filter-remove-color)">
<rect x="-4.8" y="-4.8" width="57.6" height="57.6" fill="rgb(0%, 0%, 0%)" fill-opacity="0.372"/>
</g>
</mask>
<clipPath id="clip-0">
<rect x="0" y="0" width="48" height="48"/>
</clipPath>
<g id="source-6" clip-path="url(#clip-0)">
<path fill-rule="nonzero" fill="rgb(89.411765%, 89.411765%, 89.411765%)" fill-opacity="1" d="M 22.527344 9.480469 C 22.117188 9.480469 21.707031 9.644531 21.40625 9.925781 L 21.042969 10.261719 C 17.84375 13.238281 17.375 18.355469 19.601562 22.714844 C 19.820312 23.132812 20.058594 23.53125 20.3125 23.914062 L 19.394531 31.128906 L 18.820312 31.128906 C 18.390625 31.128906 17.960938 31.308594 17.65625 31.613281 C 17.347656 31.917969 17.171875 32.347656 17.171875 32.78125 L 17.171875 33.824219 C 17.171875 34.257812 17.347656 34.6875 17.65625 34.992188 C 17.960938 35.296875 18.390625 35.476562 18.820312 35.476562 L 19.945312 35.476562 C 20.636719 36.464844 21.78125 37.113281 23.066406 37.113281 C 24.351562 37.113281 25.5 36.464844 26.191406 35.476562 L 27.3125 35.476562 C 27.746094 35.476562 28.175781 35.296875 28.480469 34.992188 C 28.789062 34.6875 28.964844 34.257812 28.964844 33.824219 L 28.964844 32.78125 C 28.964844 32.347656 28.789062 31.917969 28.480469 31.613281 C 28.175781 31.308594 27.746094 31.128906 27.3125 31.128906 L 26.914062 31.128906 L 26.707031 28.6875 C 27.957031 29.015625 29.257812 29.085938 30.539062 28.832031 C 30.539062 28.832031 30.542969 28.832031 30.542969 28.832031 L 31.03125 28.734375 C 31.527344 28.636719 31.972656 28.292969 32.191406 27.835938 C 32.414062 27.378906 32.40625 26.816406 32.175781 26.363281 L 31.949219 25.921875 L 29.542969 21.214844 L 29.644531 21.03125 C 31.128906 21.039062 32.507812 20.046875 32.902344 18.554688 C 33.375 16.785156 32.300781 14.9375 30.53125 14.464844 C 29.21875 14.117188 27.867188 14.621094 27.0625 15.621094 L 26.675781 15.613281 L 24.226562 10.824219 L 24 10.382812 C 23.863281 10.113281 23.648438 9.882812 23.390625 9.722656 C 23.132812 9.566406 22.832031 9.480469 22.527344 9.480469 Z M 22.527344 9.480469 "/>
</g>
</defs>
<g mask="url(#mask-0)">
<use xlink:href="#source-6"/>
</g>
<path fill="none" stroke-width="17.158001" stroke-linecap="butt" stroke-linejoin="miter" stroke="rgb(0%, 0%, 0%)" stroke-opacity="1" stroke-miterlimit="4" d="M 548.719076 735.478516 C 548.719076 740.568034 547.770182 745.657552 545.786133 750.402018 C 543.802083 755.146484 540.955404 759.459635 537.332357 763.082682 C 533.623047 766.705729 529.396159 769.638672 524.651693 771.536458 C 519.907227 773.520508 514.817708 774.555664 509.641927 774.555664 C 504.552409 774.555664 499.462891 773.520508 494.718424 771.536458 C 489.973958 769.638672 485.660807 766.705729 482.03776 763.082682 C 478.414714 759.459635 475.481771 755.146484 473.497721 750.402018 C 471.599935 745.657552 470.564779 740.568034 470.564779 735.478516 C 470.564779 730.302734 471.599935 725.213216 473.497721 720.46875 C 475.481771 715.724284 478.414714 711.411133 482.03776 707.788086 C 485.660807 704.165039 489.973958 701.318359 494.718424 699.33431 C 499.462891 697.35026 504.552409 696.315104 509.641927 696.315104 C 514.817708 696.315104 519.907227 697.35026 524.651693 699.33431 C 529.396159 701.318359 533.623047 704.165039 537.332357 707.788086 C 540.955404 711.411133 543.802083 715.724284 545.786133 720.46875 C 547.770182 725.213216 548.719076 730.302734 548.719076 735.478516 Z M 548.719076 735.478516 " transform="matrix(0.045283, 0, 0, 0.045283, 0, 0)"/>
<path fill-rule="nonzero" fill="rgb(0%, 0%, 0%)" fill-opacity="1" d="M 18.832031 32.78125 L 18.832031 33.824219 L 21.515625 33.824219 L 21.515625 32.78125 Z M 24.640625 32.78125 L 24.640625 33.824219 L 27.324219 33.824219 L 27.324219 32.78125 Z M 24.640625 32.78125 "/>
<path fill="none" stroke-width="17.316" stroke-linecap="round" stroke-linejoin="round" stroke="rgb(0%, 0%, 0%)" stroke-opacity="1" stroke-miterlimit="10" d="M 552.514648 725.817057 L 538.626302 561.313477 " transform="matrix(0.045283, 0, 0, 0.045283, 0, 0)"/>
<path fill="none" stroke-width="17.316" stroke-linecap="round" stroke-linejoin="round" stroke="rgb(0%, 0%, 0%)" stroke-opacity="1" stroke-miterlimit="10" d="M 495.408529 519.130859 L 468.666992 728.922526 " transform="matrix(0.045283, 0, 0, 0.045283, 0, 0)"/>
<path fill="none" stroke-width="16.6" stroke-linecap="round" stroke-linejoin="miter" stroke="rgb(0%, 0%, 0%)" stroke-opacity="1" stroke-miterlimit="4" d="M 495.408529 259.392904 C 442.61556 308.476563 431.48763 400.001628 472.980143 481.17513 C 514.472656 562.434896 595.301107 606.860352 665.950521 592.799479 Z M 495.408529 259.392904 " transform="matrix(0.045283, 0, 0, 0.045283, 0, 0)"/>
<path fill="none" stroke-width="15.345" stroke-linecap="round" stroke-linejoin="round" stroke="rgb(0%, 0%, 0%)" stroke-opacity="1" stroke-miterlimit="10" d="M 647.921549 419.49707 C 663.707682 423.637695 679.92513 414.235026 684.152018 398.448893 C 688.378906 382.576497 678.976237 366.359049 663.103841 362.132161 C 647.317708 357.991536 631.10026 367.394206 626.873372 383.180339 C 622.646484 399.052734 632.049154 415.270182 647.921549 419.49707 Z M 647.921549 419.49707 " transform="matrix(0.045283, 0, 0, 0.045283, 0, 0)"/>
<path fill="none" stroke-width="15.345" stroke-linecap="round" stroke-linejoin="round" stroke="rgb(0%, 0%, 0%)" stroke-opacity="1" stroke-miterlimit="10" d="M 634.205729 411.474609 L 606.170247 460.989583 " transform="matrix(0.045283, 0, 0, 0.045283, 0, 0)"/>
<path fill="none" stroke-width="15.345" stroke-linecap="round" stroke-linejoin="round" stroke="rgb(0%, 0%, 0%)" stroke-opacity="1" stroke-miterlimit="10" d="M 564.073893 388.442383 L 625.148112 389.736328 " transform="matrix(0.045283, 0, 0, 0.045283, 0, 0)"/>
</svg>
