<?xml version="1.0" encoding="UTF-8"?>
<svg xmlns="http://www.w3.org/2000/svg" xmlns:xlink="http://www.w3.org/1999/xlink" width="32" height="32" viewBox="0 0 32 32">
<path fill-rule="nonzero" fill="rgb(100%, 100%, 100%)" fill-opacity="1" d="M 28 4 L 4 4 L 4 28 L 28 28 Z M 28 4 "/>
<path fill-rule="nonzero" fill="rgb(2.352941%, 39.215686%, 67.058824%)" fill-opacity="1" d="M 25 7 L 7 7 L 7 25 L 25 25 Z M 25 7 "/>
<path fill-rule="nonzero" fill="rgb(100%, 100%, 100%)" fill-opacity="1" d="M 16.679688 23.167969 C 17.839844 23.0625 18.921875 22.710938 19.78125 22.164062 C 20.214844 21.890625 20.824219 21.320312 21.089844 20.945312 C 21.476562 20.394531 21.757812 19.738281 21.910156 19.023438 C 21.96875 18.75 21.976562 18.261719 21.988281 13.761719 L 22 8.800781 L 18.425781 8.800781 L 18.425781 13.339844 C 18.425781 16.328125 18.410156 18 18.382812 18.226562 C 18.335938 18.628906 18.199219 19.113281 18.054688 19.363281 C 17.878906 19.675781 17.550781 19.972656 17.207031 20.132812 C 16.265625 20.570312 14.886719 20.414062 14.230469 19.792969 C 13.898438 19.476562 13.671875 18.964844 13.574219 18.328125 C 13.550781 18.171875 13.535156 16.332031 13.535156 13.4375 L 13.535156 8.800781 L 10 8.800781 L 10 13.496094 C 10 18.210938 10.007812 18.609375 10.136719 19.203125 C 10.449219 20.671875 11.414062 21.84375 12.890625 22.542969 C 13.976562 23.058594 15.375 23.289062 16.679688 23.167969 Z M 16.679688 23.167969 "/>
</svg>
