<?xml version="1.0" encoding="UTF-8"?>
<svg xmlns="http://www.w3.org/2000/svg" xmlns:xlink="http://www.w3.org/1999/xlink" width="24" height="24" viewBox="0 0 24 24">
<defs>
<filter id="filter-remove-color" x="0%" y="0%" width="100%" height="100%">
<feColorMatrix color-interpolation-filters="sRGB" values="0 0 0 0 1 0 0 0 0 1 0 0 0 0 1 0 0 0 1 0" />
</filter>
<mask id="mask-0">
<g filter="url(#filter-remove-color)">
<rect x="-2.4" y="-2.4" width="28.8" height="28.8" fill="rgb(0%, 0%, 0%)" fill-opacity="0.42609"/>
</g>
</mask>
<clipPath id="clip-0">
<path clip-rule="nonzero" d="M 10 0 L 20 0 L 20 23 L 10 23 Z M 10 0 "/>
</clipPath>
<clipPath id="clip-1">
<rect x="0" y="0" width="24" height="24"/>
</clipPath>
<g id="source-7" clip-path="url(#clip-1)">
<g clip-path="url(#clip-0)">
<path fill-rule="nonzero" fill="rgb(55.294118%, 55.294118%, 55.294118%)" fill-opacity="1" d="M 16.292969 -0.0664062 C 16.148438 -0.0664062 16.007812 -0.0273438 15.886719 0.0507812 L 12.070312 2.449219 C 11.902344 2.554688 11.78125 2.726562 11.738281 2.917969 C 11.691406 3.113281 11.726562 3.316406 11.832031 3.484375 L 13.839844 6.679688 L 10.429688 21.347656 C 10.40625 21.441406 10.40625 21.542969 10.421875 21.640625 C 10.4375 21.738281 10.472656 21.832031 10.523438 21.914062 C 10.578125 22 10.644531 22.074219 10.726562 22.128906 C 10.804688 22.1875 10.898438 22.226562 10.992188 22.25 L 11.972656 22.472656 C 12.070312 22.496094 12.171875 22.5 12.269531 22.480469 C 12.367188 22.464844 12.460938 22.429688 12.546875 22.375 C 12.628906 22.320312 12.703125 22.25 12.757812 22.167969 C 12.816406 22.085938 12.855469 21.992188 12.875 21.894531 L 15.953125 7.113281 L 19.085938 5.140625 C 19.257812 5.035156 19.375 4.867188 19.421875 4.671875 C 19.464844 4.476562 19.429688 4.273438 19.324219 4.105469 L 16.921875 0.285156 C 16.855469 0.179688 16.761719 0.0898438 16.652344 0.03125 C 16.542969 -0.03125 16.417969 -0.0664062 16.292969 -0.0664062 Z M 16.292969 -0.0664062 "/>
</g>
</g>
</defs>
<g mask="url(#mask-0)">
<use xlink:href="#source-7"/>
</g>
<path fill-rule="nonzero" fill="rgb(0%, 0%, 0%)" fill-opacity="1" d="M 15.097656 4.585938 L 11.160156 21.507812 L 12.136719 21.730469 L 15.679688 4.722656 Z M 15.097656 4.585938 "/>
<path fill-rule="nonzero" fill="rgb(100%, 0%, 0%)" fill-opacity="1" d="M 16.195312 0.59375 L 18.730469 4.601562 L 14.886719 7.035156 L 12.351562 3.027344 Z M 16.195312 0.59375 "/>
</svg>
