<?xml version="1.0" encoding="UTF-8"?>
<svg xmlns="http://www.w3.org/2000/svg" xmlns:xlink="http://www.w3.org/1999/xlink" width="24" height="24" viewBox="0 0 24 24">
<path fill-rule="nonzero" fill="rgb(74.901961%, 74.901961%, 74.901961%)" fill-opacity="1" d="M 3.378906 15.984375 C 4.882812 19.25 8.175781 21.496094 12.027344 21.496094 C 15.882812 21.496094 19.175781 19.246094 20.679688 15.984375 Z M 3.378906 15.984375 "/>
<path fill-rule="nonzero" fill="rgb(17.254902%, 17.254902%, 17.254902%)" fill-opacity="1" d="M 6.746094 14.988281 C 6.171875 15.429688 5.347656 15.558594 4.839844 15.558594 C 4.351562 15.558594 3.566406 15.441406 3 15.035156 C 3.171875 15.542969 3.382812 16.03125 3.632812 16.496094 C 4.066406 16.648438 4.515625 16.699219 4.839844 16.699219 C 5.347656 16.699219 6.171875 16.574219 6.746094 16.128906 C 7.316406 16.574219 8.140625 16.699219 8.648438 16.699219 C 8.683594 16.699219 8.714844 16.699219 8.746094 16.699219 C 9.753906 16.683594 10.183594 16.4375 10.550781 16.128906 C 10.570312 16.144531 10.585938 16.15625 10.605469 16.171875 C 10.699219 16.238281 10.796875 16.296875 10.898438 16.347656 C 10.9375 16.367188 10.976562 16.386719 11.019531 16.40625 C 11.042969 16.417969 11.066406 16.425781 11.09375 16.4375 C 11.109375 16.445312 11.125 16.453125 11.144531 16.457031 C 11.269531 16.507812 11.398438 16.546875 11.527344 16.582031 C 11.613281 16.601562 11.699219 16.621094 11.78125 16.636719 C 11.824219 16.644531 11.863281 16.652344 11.90625 16.65625 C 11.984375 16.671875 12.066406 16.679688 12.140625 16.6875 C 12.214844 16.691406 12.289062 16.695312 12.355469 16.699219 C 12.390625 16.699219 12.425781 16.699219 12.457031 16.699219 C 12.488281 16.699219 12.519531 16.699219 12.554688 16.699219 C 12.621094 16.695312 12.695312 16.691406 12.769531 16.6875 C 12.769531 16.6875 12.773438 16.6875 12.773438 16.6875 C 12.847656 16.679688 12.925781 16.671875 13.007812 16.65625 C 13.046875 16.652344 13.089844 16.644531 13.132812 16.636719 C 13.214844 16.621094 13.296875 16.601562 13.382812 16.582031 C 13.511719 16.546875 13.640625 16.507812 13.769531 16.457031 C 13.851562 16.425781 13.933594 16.390625 14.015625 16.347656 C 14.117188 16.296875 14.214844 16.238281 14.304688 16.171875 C 14.324219 16.15625 14.34375 16.144531 14.359375 16.128906 C 14.378906 16.144531 14.394531 16.15625 14.414062 16.171875 C 14.503906 16.238281 14.601562 16.296875 14.703125 16.347656 C 14.785156 16.390625 14.867188 16.425781 14.953125 16.457031 C 15.078125 16.507812 15.207031 16.546875 15.335938 16.582031 C 15.421875 16.601562 15.503906 16.621094 15.589844 16.636719 C 15.628906 16.644531 15.671875 16.652344 15.710938 16.65625 C 15.789062 16.667969 15.863281 16.679688 15.9375 16.683594 C 15.941406 16.683594 15.945312 16.6875 15.949219 16.6875 C 15.953125 16.6875 15.953125 16.6875 15.957031 16.6875 C 16.03125 16.691406 16.097656 16.695312 16.164062 16.699219 C 16.199219 16.699219 16.230469 16.699219 16.261719 16.699219 C 16.769531 16.699219 17.597656 16.574219 18.167969 16.128906 C 18.738281 16.574219 19.5625 16.699219 20.070312 16.699219 C 20.148438 16.699219 20.230469 16.699219 20.316406 16.691406 C 20.539062 16.296875 20.738281 15.890625 20.902344 15.464844 C 20.597656 15.53125 20.300781 15.558594 20.070312 15.558594 C 19.5625 15.558594 18.738281 15.429688 18.167969 14.988281 C 17.597656 15.429688 16.769531 15.558594 16.261719 15.558594 C 16.199219 15.558594 16.132812 15.554688 16.058594 15.550781 C 16.058594 15.550781 16.054688 15.550781 16.050781 15.550781 C 15.980469 15.546875 15.910156 15.539062 15.832031 15.53125 C 15.675781 15.511719 15.507812 15.484375 15.335938 15.441406 C 15.265625 15.421875 15.191406 15.398438 15.121094 15.375 C 15.019531 15.34375 14.921875 15.308594 14.828125 15.265625 C 14.742188 15.226562 14.664062 15.1875 14.585938 15.140625 C 14.546875 15.117188 14.507812 15.09375 14.46875 15.066406 C 14.449219 15.054688 14.433594 15.042969 14.414062 15.027344 C 14.394531 15.015625 14.378906 15 14.359375 14.988281 C 14.324219 15.015625 14.289062 15.042969 14.25 15.066406 C 14.210938 15.09375 14.175781 15.117188 14.136719 15.140625 C 14.058594 15.1875 13.976562 15.226562 13.894531 15.265625 C 13.808594 15.300781 13.726562 15.335938 13.640625 15.363281 C 13.554688 15.390625 13.46875 15.417969 13.382812 15.441406 C 13.214844 15.484375 13.042969 15.511719 12.886719 15.53125 C 12.808594 15.539062 12.734375 15.546875 12.660156 15.550781 C 12.625 15.554688 12.589844 15.554688 12.554688 15.558594 C 12.519531 15.558594 12.488281 15.558594 12.457031 15.558594 C 12.394531 15.558594 12.324219 15.554688 12.253906 15.550781 C 12.179688 15.546875 12.101562 15.539062 12.023438 15.53125 C 11.867188 15.511719 11.699219 15.484375 11.527344 15.441406 C 11.441406 15.417969 11.355469 15.390625 11.273438 15.363281 C 11.171875 15.328125 11.074219 15.289062 10.980469 15.246094 C 10.910156 15.210938 10.84375 15.179688 10.777344 15.140625 C 10.738281 15.117188 10.699219 15.09375 10.660156 15.066406 C 10.644531 15.054688 10.625 15.042969 10.605469 15.027344 C 10.585938 15.015625 10.570312 15 10.550781 14.988281 C 10.515625 15.015625 10.480469 15.042969 10.441406 15.066406 C 10.402344 15.09375 10.367188 15.117188 10.328125 15.140625 C 10.25 15.1875 10.167969 15.226562 10.085938 15.265625 C 10.003906 15.300781 9.917969 15.335938 9.832031 15.363281 C 9.746094 15.390625 9.660156 15.417969 9.578125 15.441406 C 9.40625 15.484375 9.238281 15.511719 9.082031 15.53125 C 9 15.539062 8.925781 15.546875 8.851562 15.550781 C 8.816406 15.554688 8.78125 15.554688 8.746094 15.558594 C 8.710938 15.558594 8.679688 15.558594 8.648438 15.558594 C 8.140625 15.558594 7.316406 15.429688 6.746094 14.988281 Z M 6.746094 14.988281 "/>
<path fill-rule="nonzero" fill="rgb(17.254902%, 17.254902%, 17.254902%)" fill-opacity="1" d="M 6.316406 17.296875 C 5.789062 17.707031 5.039062 17.847656 4.527344 17.867188 C 4.816406 18.230469 5.128906 18.574219 5.464844 18.894531 C 5.847656 18.789062 6.09375 18.625 6.316406 18.441406 C 6.890625 18.882812 7.714844 19.011719 8.222656 19.011719 C 8.730469 19.011719 9.554688 18.882812 10.125 18.441406 C 10.699219 18.882812 11.523438 19.011719 12.03125 19.011719 C 12.539062 19.011719 13.363281 18.882812 13.933594 18.441406 C 14.503906 18.882812 15.332031 19.011719 15.839844 19.011719 C 16.34375 19.011719 17.171875 18.882812 17.742188 18.441406 C 18 18.640625 18.3125 18.777344 18.621094 18.863281 C 18.949219 18.554688 19.25 18.21875 19.53125 17.867188 C 19.019531 17.847656 18.269531 17.707031 17.742188 17.296875 C 17.171875 17.742188 16.34375 17.867188 15.839844 17.867188 C 15.332031 17.867188 14.503906 17.742188 13.933594 17.296875 C 13.363281 17.742188 12.539062 17.867188 12.03125 17.867188 C 11.523438 17.867188 10.699219 17.742188 10.125 17.296875 C 9.554688 17.742188 8.730469 17.867188 8.222656 17.867188 C 7.714844 17.867188 6.890625 17.742188 6.316406 17.296875 Z M 6.316406 17.296875 "/>
<path fill-rule="nonzero" fill="rgb(17.254902%, 17.254902%, 17.254902%)" fill-opacity="1" d="M 9.523438 5.902344 L 5.605469 9.46875 L 2.863281 9.46875 C 2.796875 9.710938 2.742188 9.957031 2.695312 10.210938 L 5.566406 10.234375 L 4.996094 10.972656 L 2.585938 10.941406 C 2.550781 11.28125 2.53125 11.625 2.53125 11.976562 C 2.53125 12.058594 2.53125 12.140625 2.535156 12.222656 C 2.625 12.222656 2.730469 12.222656 2.8125 12.222656 C 3.972656 12.292969 3.988281 12.824219 3.988281 12.960938 L 3.988281 15.8125 L 6.121094 15.8125 C 6.101562 14.429688 6.101562 13.082031 6.105469 11.734375 L 7.484375 11.742188 L 10.785156 7.179688 Z M 14.453125 6.046875 L 13.144531 7.226562 L 16.042969 11.558594 L 16.140625 11.710938 L 16.324219 11.722656 L 17.980469 11.851562 C 17.933594 13.160156 17.9375 14.503906 17.9375 15.8125 L 20.097656 15.8125 L 20.097656 12.960938 C 20.097656 12.792969 20.214844 12.234375 21.449219 12.195312 C 21.464844 12.195312 21.488281 12.195312 21.511719 12.195312 C 21.515625 12.121094 21.515625 12.050781 21.515625 11.976562 C 21.515625 11.601562 21.492188 11.230469 21.449219 10.867188 L 18.445312 10.839844 L 17.941406 10.226562 L 21.351562 10.210938 C 21.304688 9.960938 21.25 9.710938 21.183594 9.46875 L 17.335938 9.488281 Z M 14.453125 6.046875 "/>
<path fill-rule="nonzero" fill="rgb(17.254902%, 17.254902%, 17.254902%)" fill-opacity="1" d="M 9.886719 11.222656 L 9.886719 12.636719 L 13.707031 12.636719 L 13.707031 11.222656 C 13.707031 10.957031 13.476562 10.726562 13.210938 10.726562 L 10.382812 10.726562 C 10.113281 10.726562 9.886719 10.957031 9.886719 11.222656 Z M 9.886719 11.222656 "/>
<path fill-rule="nonzero" fill="rgb(17.254902%, 17.254902%, 17.254902%)" fill-opacity="1" d="M 11.371094 9.582031 L 11.371094 10.34375 L 12.222656 10.34375 L 12.222656 9.582031 C 12.230469 9.089844 11.375 9.101562 11.371094 9.582031 Z M 11.371094 9.582031 "/>
<path fill-rule="nonzero" fill="rgb(17.254902%, 17.254902%, 17.254902%)" fill-opacity="1" d="M 14.855469 13.019531 L 8.738281 13.019531 L 8.738281 13.859375 C 8.738281 14.550781 9.046875 15.160156 9.578125 15.582031 L 12.050781 16.257812 L 14.011719 15.582031 C 14.546875 15.160156 14.855469 14.550781 14.855469 13.859375 Z M 14.089844 13.976562 L 13.324219 14.167969 L 13.324219 13.785156 L 14.089844 13.785156 Z M 10.269531 14.167969 L 9.503906 13.976562 L 9.503906 13.785156 L 10.269531 13.785156 Z M 10.269531 14.167969 "/>
</svg>
