<?xml version="1.0" encoding="UTF-8"?>
<svg xmlns="http://www.w3.org/2000/svg" xmlns:xlink="http://www.w3.org/1999/xlink" width="32" height="32" viewBox="0 0 32 32">
<defs>
<filter id="filter-remove-color" x="0%" y="0%" width="100%" height="100%">
<feColorMatrix color-interpolation-filters="sRGB" values="0 0 0 0 1 0 0 0 0 1 0 0 0 0 1 0 0 0 1 0" />
</filter>
<mask id="mask-0">
<g filter="url(#filter-remove-color)">
<rect x="-3.2" y="-3.2" width="38.4" height="38.4" fill="rgb(0%, 0%, 0%)" fill-opacity="0.684385"/>
</g>
</mask>
<clipPath id="clip-0">
<rect x="0" y="0" width="32" height="32"/>
</clipPath>
<g id="source-6" clip-path="url(#clip-0)">
<path fill-rule="nonzero" fill="rgb(99.607843%, 99.607843%, 99.607843%)" fill-opacity="1" d="M 8.914062 7.839844 C 8.628906 7.839844 8.355469 7.953125 8.15625 8.15625 C 7.953125 8.355469 7.839844 8.628906 7.839844 8.914062 L 7.839844 23.085938 C 7.839844 23.371094 7.953125 23.644531 8.15625 23.84375 C 8.355469 24.046875 8.628906 24.160156 8.914062 24.160156 L 23.085938 24.160156 C 23.371094 24.160156 23.644531 24.046875 23.84375 23.84375 C 24.046875 23.644531 24.160156 23.371094 24.160156 23.085938 L 24.160156 8.914062 C 24.160156 8.628906 24.046875 8.355469 23.84375 8.15625 C 23.644531 7.953125 23.371094 7.839844 23.085938 7.839844 Z M 8.914062 7.839844 "/>
</g>
</defs>
<g mask="url(#mask-0)">
<use xlink:href="#source-6"/>
</g>
<path fill-rule="nonzero" fill="rgb(10.980392%, 38.823529%, 71.764706%)" fill-opacity="1" d="M 8.914062 8.914062 L 23.085938 8.914062 L 23.085938 23.085938 L 8.914062 23.085938 "/>
<path fill-rule="nonzero" fill="rgb(99.607843%, 99.607843%, 99.607843%)" fill-opacity="1" d="M 15.996094 10 C 12.722656 10.015625 10.0625 12.695312 10.070312 15.964844 C 10.078125 19.238281 12.753906 21.898438 16.023438 21.898438 C 19.296875 21.898438 21.96875 19.238281 21.976562 15.964844 C 21.984375 12.695312 19.324219 10.015625 16.050781 10 Z M 16.804688 11.761719 C 18.828125 12.136719 20.375 13.828125 20.371094 15.960938 C 20.363281 18.367188 18.429688 20.292969 16.023438 20.292969 C 13.617188 20.292969 11.683594 18.367188 11.675781 15.960938 C 11.671875 13.84375 13.195312 12.167969 15.195312 11.769531 L 15.195312 17.035156 L 12.976562 14.820312 L 11.839844 15.953125 L 16 20.113281 L 20.15625 15.953125 L 19.023438 14.820312 L 16.804688 17.035156 Z M 16.804688 11.761719 "/>
</svg>
