<?xml version="1.0" encoding="UTF-8"?>
<svg xmlns="http://www.w3.org/2000/svg" xmlns:xlink="http://www.w3.org/1999/xlink" width="64" height="64" viewBox="0 0 64 64">
<defs>
<filter id="filter-remove-color" x="0%" y="0%" width="100%" height="100%">
<feColorMatrix color-interpolation-filters="sRGB" values="0 0 0 0 1 0 0 0 0 1 0 0 0 0 1 0 0 0 1 0" />
</filter>
<mask id="mask-0">
<g filter="url(#filter-remove-color)">
<rect x="-6.4" y="-6.4" width="76.8" height="76.8" fill="rgb(0%, 0%, 0%)" fill-opacity="0.873134"/>
</g>
</mask>
<clipPath id="clip-0">
<rect x="0" y="0" width="64" height="64"/>
</clipPath>
<g id="source-6" clip-path="url(#clip-0)">
<path fill-rule="nonzero" fill="rgb(67.45098%, 84.705882%, 95.294118%)" fill-opacity="1" d="M 22.09375 14.164062 C 20.515625 14.164062 18.996094 14.65625 17.898438 15.707031 L 17.898438 15.703125 C 17.898438 15.703125 17.898438 15.707031 17.894531 15.707031 C 17.78125 15.816406 17.675781 15.9375 17.570312 16.054688 C 17.351562 15.699219 17.074219 15.378906 16.730469 15.132812 C 16.730469 15.132812 16.726562 15.132812 16.726562 15.128906 C 15.777344 14.445312 14.703125 14.296875 13.519531 14.296875 L 10.570312 14.296875 C 10.335938 14.296875 10.105469 14.34375 9.886719 14.433594 C 9.671875 14.523438 9.472656 14.65625 9.308594 14.820312 C 9.140625 14.988281 9.011719 15.183594 8.921875 15.402344 C 8.832031 15.617188 8.785156 15.851562 8.785156 16.085938 L 8.785156 23.566406 C 8.785156 23.800781 8.832031 24.035156 8.921875 24.25 C 9.011719 24.46875 9.140625 24.664062 9.308594 24.832031 C 9.472656 24.996094 9.671875 25.128906 9.886719 25.21875 C 10.105469 25.308594 10.335938 25.355469 10.570312 25.355469 L 12.5 25.355469 C 12.769531 25.355469 13.03125 25.292969 13.269531 25.179688 C 13.511719 25.066406 13.722656 24.898438 13.886719 24.691406 C 14.054688 24.898438 14.265625 25.066406 14.507812 25.179688 C 14.746094 25.292969 15.007812 25.355469 15.273438 25.355469 L 17.328125 25.355469 C 17.609375 25.355469 17.882812 25.289062 18.132812 25.160156 C 18.382812 25.035156 18.601562 24.851562 18.765625 24.625 C 19.734375 25.214844 20.898438 25.5 22.09375 25.5 C 22.648438 25.5 23.195312 25.4375 23.722656 25.308594 C 24.242188 25.179688 24.746094 24.992188 25.226562 24.742188 C 25.519531 24.589844 25.761719 24.363281 25.933594 24.085938 C 26.101562 23.804688 26.191406 23.484375 26.191406 23.15625 L 26.191406 21.609375 C 26.191406 21.164062 26.027344 20.738281 25.730469 20.410156 C 25.433594 20.082031 25.027344 19.875 24.585938 19.832031 C 25.027344 19.789062 25.433594 19.582031 25.730469 19.253906 C 26.027344 18.925781 26.191406 18.496094 26.191406 18.054688 L 26.191406 16.503906 C 26.191406 16.179688 26.101562 15.859375 25.933594 15.578125 C 25.761719 15.296875 25.519531 15.070312 25.226562 14.921875 C 24.746094 14.671875 24.242188 14.480469 23.722656 14.355469 C 23.195312 14.226562 22.648438 14.164062 22.09375 14.164062 Z M 22.25 19.132812 C 22.453125 19.132812 22.625 19.164062 22.792969 19.21875 C 22.957031 19.269531 23.160156 19.367188 23.398438 19.53125 C 23.644531 19.699219 23.929688 19.800781 24.226562 19.832031 C 23.929688 19.859375 23.644531 19.964844 23.398438 20.132812 C 23.160156 20.296875 22.957031 20.390625 22.792969 20.445312 C 22.625 20.5 22.453125 20.527344 22.25 20.527344 C 21.945312 20.527344 22.011719 20.519531 21.957031 20.460938 C 21.90625 20.40625 21.820312 20.300781 21.820312 19.832031 C 21.820312 19.363281 21.910156 19.253906 21.957031 19.199219 C 22.011719 19.140625 21.945312 19.132812 22.25 19.132812 Z M 22.25 19.132812 "/>
</g>
</defs>
<g mask="url(#mask-0)">
<use xlink:href="#source-6"/>
</g>
<path fill-rule="nonzero" fill="rgb(0%, 0%, 0%)" fill-opacity="1" d="M 13.3125 19.402344 C 13.71875 19.402344 14.007812 19.328125 14.179688 19.175781 C 14.359375 19.027344 14.445312 18.78125 14.445312 18.433594 C 14.445312 18.09375 14.359375 17.851562 14.179688 17.703125 C 14.007812 17.558594 13.71875 17.484375 13.3125 17.484375 L 12.503906 17.484375 L 12.503906 19.402344 Z M 12.503906 20.734375 L 12.503906 23.566406 L 10.574219 23.566406 L 10.574219 16.085938 L 13.519531 16.085938 C 14.503906 16.085938 15.226562 16.25 15.683594 16.582031 C 16.144531 16.910156 16.375 17.433594 16.375 18.148438 C 16.375 18.644531 16.257812 19.050781 16.015625 19.367188 C 15.777344 19.683594 15.417969 19.917969 14.9375 20.070312 C 15.203125 20.128906 15.4375 20.265625 15.644531 20.480469 C 15.855469 20.691406 16.066406 21.011719 16.28125 21.441406 L 17.328125 23.566406 L 15.273438 23.566406 L 14.363281 21.707031 C 14.175781 21.332031 13.992188 21.078125 13.800781 20.941406 C 13.613281 20.804688 13.363281 20.734375 13.046875 20.734375 Z M 12.503906 20.734375 "/>
<path fill-rule="nonzero" fill="rgb(0%, 0%, 0%)" fill-opacity="1" d="M 24.40625 23.15625 C 24.050781 23.339844 23.683594 23.480469 23.296875 23.574219 C 22.914062 23.664062 22.511719 23.710938 22.09375 23.710938 C 20.847656 23.710938 19.859375 23.367188 19.132812 22.671875 C 18.402344 21.972656 18.039062 21.027344 18.039062 19.832031 C 18.039062 18.636719 18.402344 17.691406 19.132812 16.996094 C 19.859375 16.296875 20.847656 15.949219 22.09375 15.949219 C 22.511719 15.949219 22.914062 15.996094 23.296875 16.089844 C 23.683594 16.183594 24.050781 16.320312 24.40625 16.503906 L 24.40625 18.054688 C 24.046875 17.808594 23.695312 17.632812 23.347656 17.519531 C 23 17.40625 22.632812 17.347656 22.25 17.347656 C 21.5625 17.347656 21.019531 17.566406 20.625 18.007812 C 20.230469 18.449219 20.035156 19.058594 20.035156 19.832031 C 20.035156 20.605469 20.230469 21.210938 20.625 21.652344 C 21.019531 22.09375 21.5625 22.3125 22.25 22.3125 C 22.632812 22.3125 23 22.257812 23.347656 22.144531 C 23.695312 22.03125 24.046875 21.851562 24.40625 21.609375 L 24.40625 23.15625 "/>
</svg>
