<?xml version="1.0" encoding="UTF-8"?>
<svg xmlns="http://www.w3.org/2000/svg" xmlns:xlink="http://www.w3.org/1999/xlink" width="12" height="12" viewBox="0 0 12 12" version="1.1">
<defs>
<filter id="alpha" filterUnits="objectBoundingBox" x="0%" y="0%" width="100%" height="100%">
  <feColorMatrix type="matrix" in="SourceGraphic" values="0 0 0 0 1 0 0 0 0 1 0 0 0 0 1 0 0 0 1 0"/>
</filter>
<mask id="mask0">
  <g filter="url(#alpha)">
<rect x="0" y="0" width="12" height="12" style="fill:rgb(0%,0%,0%);fill-opacity:0.552;stroke:none;"/>
  </g>
</mask>
<clipPath id="clip1">
  <rect x="0" y="0" width="12" height="12"/>
</clipPath>
<g id="surface5" clip-path="url(#clip1)">
<path style=" stroke:none;fill-rule:nonzero;fill:rgb(55.29412%,55.29412%,55.29412%);fill-opacity:1;" d="M 4.671875 0.382812 C 4.554688 0.382812 4.441406 0.429688 4.355469 0.511719 C 4.269531 0.597656 4.222656 0.710938 4.222656 0.832031 L 4.222656 2.402344 C 4.222656 2.40625 4.222656 2.414062 4.222656 2.417969 L 4.222656 3.105469 C 4.222656 3.226562 4.269531 3.339844 4.351562 3.425781 C 4.4375 3.507812 4.550781 3.554688 4.671875 3.554688 L 5.148438 3.558594 L 5.148438 10.648438 C 5.148438 10.769531 5.195312 10.882812 5.277344 10.96875 C 5.363281 11.050781 5.476562 11.097656 5.597656 11.097656 L 6.113281 11.097656 C 6.234375 11.097656 6.347656 11.050781 6.429688 10.96875 C 6.515625 10.882812 6.5625 10.769531 6.5625 10.648438 L 6.5625 3.558594 L 7.042969 3.558594 C 7.101562 3.558594 7.160156 3.546875 7.214844 3.523438 C 7.269531 3.503906 7.320312 3.46875 7.359375 3.425781 C 7.402344 3.386719 7.433594 3.335938 7.457031 3.28125 C 7.480469 3.226562 7.492188 3.167969 7.492188 3.109375 L 7.492188 2.4375 C 7.492188 2.429688 7.492188 2.417969 7.492188 2.40625 L 7.492188 1.535156 C 7.492188 1.53125 7.492188 1.527344 7.492188 1.523438 L 7.492188 0.835938 C 7.492188 0.714844 7.445312 0.601562 7.363281 0.515625 C 7.277344 0.433594 7.164062 0.386719 7.042969 0.382812 Z M 4.671875 0.382812 "/>
</g>
</defs>
<g id="surface1">
<use xlink:href="#surface5" mask="url(#mask0)"/>
<path style="fill:none;stroke-width:25;stroke-linecap:butt;stroke-linejoin:miter;stroke:rgb(0%,0%,0%);stroke-opacity:1;stroke-miterlimit:4;" d="M 283.014323 514.485677 L 283.014323 68.91276 " transform="matrix(0.0206897,0,0,0.0206897,0,0)"/>
<path style=" stroke:none;fill-rule:nonzero;fill:rgb(90.980393%,0%,0%);fill-opacity:1;" d="M 4.675781 0.828125 L 7.046875 0.828125 L 7.042969 3.105469 L 4.671875 3.101562 Z M 4.675781 0.828125 "/>
<path style=" stroke:none;fill-rule:nonzero;fill:rgb(99.607843%,99.607843%,99.607843%);fill-opacity:1;" d="M 6.5 1.292969 L 5.203125 1.292969 L 5.203125 2.589844 L 6.5 2.589844 Z M 6.5 1.292969 "/>
</g>
</svg>
