<?xml version="1.0" encoding="UTF-8"?>
<svg xmlns="http://www.w3.org/2000/svg" xmlns:xlink="http://www.w3.org/1999/xlink" width="64" height="64" viewBox="0 0 64 64">
<defs>
<filter id="filter-remove-color" x="0%" y="0%" width="100%" height="100%">
<feColorMatrix color-interpolation-filters="sRGB" values="0 0 0 0 1 0 0 0 0 1 0 0 0 0 1 0 0 0 1 0" />
</filter>
<mask id="mask-0">
<g filter="url(#filter-remove-color)">
<rect x="-6.4" y="-6.4" width="76.8" height="76.8" fill="rgb(0%, 0%, 0%)" fill-opacity="0.372"/>
</g>
</mask>
<clipPath id="clip-0">
<rect x="0" y="0" width="64" height="64"/>
</clipPath>
<g id="source-6" clip-path="url(#clip-0)">
<path fill-rule="nonzero" fill="rgb(89.411765%, 89.411765%, 89.411765%)" fill-opacity="1" d="M 30.28125 9.769531 C 29.5625 9.777344 29.011719 9.980469 28.660156 10.109375 C 28.167969 10.285156 27.695312 10.507812 27.222656 10.757812 C 26.324219 11.238281 25.417969 11.804688 24.625 12.621094 L 24.625 12.617188 L 24.617188 12.625 C 24.609375 12.636719 24.597656 12.644531 24.589844 12.65625 C 24.585938 12.660156 24.585938 12.660156 24.582031 12.664062 C 24.660156 12.582031 24.65625 12.582031 24.574219 12.667969 C 24.574219 12.671875 24.574219 12.671875 24.570312 12.671875 C 23.652344 13.644531 22.851562 14.800781 22.359375 16.121094 C 21.359375 18.792969 21.554688 21.816406 22.871094 24.347656 C 23.3125 25.195312 23.933594 26.074219 24.835938 26.941406 C 25.773438 27.847656 26.742188 28.457031 27.640625 28.867188 C 27.6875 28.886719 27.738281 28.902344 27.78125 28.921875 L 27.78125 40.265625 C 27.320312 40.597656 26.917969 41.003906 26.589844 41.46875 L 24.335938 41.46875 C 23.753906 41.46875 23.171875 41.710938 22.761719 42.125 C 22.347656 42.535156 22.109375 43.117188 22.109375 43.699219 L 22.109375 45.089844 C 22.109375 45.675781 22.347656 46.253906 22.761719 46.667969 C 23.171875 47.082031 23.753906 47.320312 24.335938 47.320312 L 26.589844 47.320312 C 27.515625 48.640625 29.046875 49.503906 30.769531 49.503906 C 32.488281 49.503906 34.019531 48.640625 34.949219 47.320312 L 37.199219 47.320312 C 37.78125 47.320312 38.363281 47.082031 38.773438 46.667969 C 39.1875 46.253906 39.429688 45.675781 39.429688 45.089844 L 39.429688 43.699219 C 39.429688 43.117188 39.1875 42.535156 38.773438 42.125 C 38.363281 41.710938 37.78125 41.46875 37.199219 41.46875 L 34.945312 41.46875 C 34.589844 40.964844 34.152344 40.535156 33.644531 40.1875 L 33.644531 29.589844 C 34.566406 29.429688 35.464844 29.148438 36.308594 28.714844 C 36.769531 28.476562 37.238281 28.214844 37.671875 27.902344 C 39.367188 26.707031 40.644531 24.960938 41.3125 23 C 41.5 22.449219 41.648438 21.925781 41.726562 21.371094 C 41.757812 21.152344 41.804688 20.710938 41.738281 20.25 C 41.726562 20.160156 41.582031 19.449219 41.246094 18.957031 C 40.890625 18.433594 40.578125 18.242188 40.207031 18.042969 C 39.835938 17.847656 39.40625 17.664062 38.722656 17.695312 C 38.71875 17.695312 38.714844 17.695312 38.710938 17.695312 L 38.671875 17.695312 C 38.578125 17.703125 38.484375 17.710938 38.390625 17.730469 C 38.386719 17.730469 38.378906 17.730469 38.375 17.730469 C 38.363281 17.734375 38.355469 17.734375 38.34375 17.738281 L 38.058594 17.785156 C 37.414062 17.898438 36.824219 18.316406 36.5 18.890625 L 36.363281 19.132812 L 36.359375 19.132812 C 36.238281 19.347656 36.09375 19.546875 35.921875 19.730469 C 34.730469 20.984375 32.832031 21.039062 31.554688 19.828125 C 30.273438 18.613281 30.222656 16.714844 31.414062 15.460938 C 31.585938 15.28125 31.761719 15.132812 31.953125 15.007812 L 31.957031 15.003906 L 32.203125 14.84375 C 32.773438 14.472656 33.15625 13.824219 33.210938 13.144531 L 33.230469 12.847656 C 33.242188 12.738281 33.234375 12.824219 33.234375 12.828125 L 33.230469 12.828125 L 33.28125 12.222656 C 33.328125 11.636719 33.132812 11.03125 32.746094 10.585938 C 32.363281 10.140625 31.796875 9.855469 31.210938 9.816406 L 30.597656 9.777344 C 30.597656 9.777344 30.59375 9.777344 30.59375 9.777344 C 30.5 9.769531 30.394531 9.765625 30.28125 9.769531 Z M 30.769531 44.007812 C 30.933594 44.007812 31.15625 44.230469 31.15625 44.394531 C 31.15625 44.5625 30.933594 44.78125 30.769531 44.78125 C 30.601562 44.78125 30.382812 44.5625 30.382812 44.394531 C 30.382812 44.230469 30.601562 44.007812 30.769531 44.007812 Z M 30.769531 44.007812 "/>
</g>
</defs>
<g mask="url(#mask-0)">
<use xlink:href="#source-6"/>
</g>
<path fill="none" stroke-width="20" stroke-linecap="butt" stroke-linejoin="miter" stroke="rgb(0%, 0%, 0%)" stroke-opacity="1" stroke-miterlimit="4" d="M 441.105957 238.344727 C 431.595459 248.308105 418.397217 268.687744 414.321289 279.621582 C 403.063965 309.641113 405.522461 348.977051 420.532227 377.702637 C 425.966797 388.248291 432.177734 397.111816 444.017334 408.563232 C 455.856934 419.949951 466.402588 426.549072 477.207031 431.466064 C 508.261719 445.505371 550.897217 444.923096 579.946289 429.978027 C 585.639648 427.06665 593.273926 422.537842 596.896973 420.014648 C 614.688721 407.398682 632.609863 383.201904 639.855957 361.916504 C 644.837646 347.489014 646.455078 335.9729 643.543701 336.102295 C 643.349609 336.102295 643.284912 336.166992 643.09082 336.166992 C 639.273682 342.895508 634.615479 349.300537 629.051514 355.187988 C 591.915283 394.459229 529.805908 395.947266 490.340576 358.616943 C 450.939941 321.221924 449.128418 259.177246 486.264648 219.906006 C 491.634521 214.277344 497.457275 209.425049 503.668213 205.349121 C 503.668213 205.219727 503.668213 205.090332 503.668213 204.89624 C 491.375732 204.119873 455.209961 223.399658 441.105957 238.344727 Z M 441.105957 238.344727 " transform="matrix(0.0603774, 0, 0, 0.0603774, 0, 0)"/>
<path fill="none" stroke-width="17.158001" stroke-linecap="butt" stroke-linejoin="miter" stroke="rgb(0%, 0%, 0%)" stroke-opacity="1" stroke-miterlimit="4" d="M 548.762207 735.413818 C 548.762207 740.5896 547.727051 745.635986 545.786133 750.423584 C 543.780518 755.146484 540.933838 759.481201 537.310791 763.104248 C 533.687744 766.727295 529.353027 769.573975 524.630127 771.57959 C 519.842529 773.520508 514.796143 774.555664 509.620361 774.555664 C 504.509277 774.555664 499.462891 773.520508 494.675293 771.57959 C 489.952393 769.573975 485.617676 766.727295 481.994629 763.104248 C 478.371582 759.481201 475.524902 755.146484 473.519287 750.423584 C 471.578369 745.635986 470.543213 740.5896 470.543213 735.413818 C 470.543213 730.302734 471.578369 725.19165 473.519287 720.46875 C 475.524902 715.74585 478.371582 711.411133 481.994629 707.788086 C 485.617676 704.165039 489.952393 701.253662 494.675293 699.312744 C 499.462891 697.371826 504.509277 696.33667 509.620361 696.33667 C 514.796143 696.33667 519.842529 697.371826 524.630127 699.312744 C 529.353027 701.253662 533.687744 704.165039 537.310791 707.788086 C 540.933838 711.411133 543.780518 715.74585 545.786133 720.46875 C 547.727051 725.19165 548.762207 730.302734 548.762207 735.413818 Z M 548.762207 735.413818 " transform="matrix(0.0603774, 0, 0, 0.0603774, 0, 0)"/>
<path fill-rule="nonzero" fill="rgb(0%, 0%, 0%)" fill-opacity="1" d="M 24.339844 43.707031 L 24.339844 45.097656 L 28.402344 45.097656 L 28.402344 43.707031 Z M 33.136719 43.707031 L 33.136719 45.097656 L 37.199219 45.097656 L 37.199219 43.707031 Z M 33.136719 43.707031 "/>
<path fill="none" stroke-width="23.200001" stroke-linecap="butt" stroke-linejoin="miter" stroke="rgb(0%, 0%, 0%)" stroke-opacity="1" stroke-miterlimit="4" d="M 508.7146 696.271973 L 508.7146 444.211426 " transform="matrix(0.0603774, 0, 0, 0.0603774, 0, 0)"/>
</svg>
