<?xml version="1.0" encoding="UTF-8"?>
<svg xmlns="http://www.w3.org/2000/svg" xmlns:xlink="http://www.w3.org/1999/xlink" width="48" height="48" viewBox="0 0 48 48">
<path fill="none" stroke-width="30.299999" stroke-linecap="butt" stroke-linejoin="miter" stroke="rgb(57.647059%, 0%, 57.647059%)" stroke-opacity="1" stroke-miterlimit="4" d="M 435.024414 644.988607 C 435.024414 644.988607 435.024414 615.745443 435.024414 489.973958 C 435.024414 406.212565 580.032552 406.212565 580.032552 489.973958 C 580.032552 644.988607 580.032552 644.988607 580.032552 644.988607 " transform="matrix(0.045283, 0, 0, 0.045283, 0, 0)"/>
<path fill="none" stroke-width="30" stroke-linecap="butt" stroke-linejoin="miter" stroke="rgb(57.647059%, 0%, 57.647059%)" stroke-opacity="1" stroke-miterlimit="4" d="M 394.998372 604.962565 L 604.962565 604.962565 " transform="matrix(0.045283, 0, 0, 0.045283, 0, 0)"/>
<path fill="none" stroke-width="15" stroke-linecap="butt" stroke-linejoin="miter" stroke="rgb(57.647059%, 0%, 57.647059%)" stroke-opacity="1" stroke-miterlimit="4" d="M 661.464844 602.460938 C 661.464844 609.793294 658.618164 616.780599 653.442383 621.95638 C 648.266602 627.132161 641.279297 629.978841 634.033203 629.978841 C 626.700846 629.978841 619.713542 627.132161 614.53776 621.95638 C 609.361979 616.780599 606.515299 609.793294 606.515299 602.460938 C 606.515299 595.214844 609.361979 588.227539 614.53776 583.051758 C 619.713542 577.875977 626.700846 575.029297 634.033203 575.029297 C 641.279297 575.029297 648.266602 577.875977 653.442383 583.051758 C 658.618164 588.227539 661.464844 595.214844 661.464844 602.460938 Z M 661.464844 602.460938 " transform="matrix(0.045283, 0, 0, 0.045283, 0, 0)"/>
</svg>
