<?xml version="1.0" encoding="UTF-8"?>
<svg xmlns="http://www.w3.org/2000/svg" xmlns:xlink="http://www.w3.org/1999/xlink" width="32" height="32" viewBox="0 0 32 32">
<path fill-rule="nonzero" fill="rgb(0%, 0%, 0%)" fill-opacity="1" d="M 23.277344 6.761719 L 8.789062 6.761719 C 7.707031 6.761719 6.828125 7.640625 6.828125 8.722656 L 6.828125 23.210938 C 6.828125 24.292969 7.707031 25.171875 8.789062 25.171875 L 23.277344 25.171875 C 24.359375 25.171875 25.238281 24.292969 25.238281 23.210938 L 25.238281 8.722656 C 25.238281 7.640625 24.359375 6.761719 23.277344 6.761719 Z M 23.277344 6.761719 "/>
<path fill-rule="nonzero" fill="rgb(87.058824%, 92.54902%, 96.470588%)" fill-opacity="1" d="M 22.632812 7.582031 L 9.429688 7.582031 C 8.445312 7.582031 7.644531 8.378906 7.644531 9.367188 L 7.644531 22.566406 C 7.644531 23.554688 8.445312 24.351562 9.429688 24.351562 L 22.632812 24.351562 C 23.617188 24.351562 24.417969 23.554688 24.417969 22.566406 L 24.417969 9.367188 C 24.417969 8.378906 23.617188 7.582031 22.632812 7.582031 Z M 22.632812 7.582031 "/>
<path fill-rule="evenodd" fill="rgb(1.176471%, 53.333333%, 89.803922%)" fill-opacity="1" d="M 7.636719 18.550781 C 7.636719 18.550781 12.414062 16.230469 13.460938 16.183594 C 15.667969 16.082031 16.527344 16.871094 16.527344 16.871094 C 14.132812 17.109375 13.890625 18.347656 13.679688 19.082031 C 13.472656 19.816406 14.164062 21.835938 15.773438 22.605469 C 17.382812 23.378906 24.40625 22.796875 24.40625 22.796875 C 24.253906 23.773438 23.578125 24.304688 22.683594 24.367188 L 9.273438 24.363281 C 9.210938 24.425781 7.78125 24.136719 7.621094 22.867188 Z M 7.636719 18.550781 "/>
<path fill-rule="nonzero" fill="rgb(99.215686%, 34.117647%, 3.137255%)" fill-opacity="1" d="M 19.234375 8.898438 L 23.515625 13.097656 L 20.96875 13.097656 L 20.96875 19.457031 L 17.511719 19.457031 L 17.511719 13.097656 L 14.960938 13.097656 Z M 19.234375 8.898438 "/>
</svg>
