<?xml version="1.0" encoding="UTF-8"?>
<svg xmlns="http://www.w3.org/2000/svg" xmlns:xlink="http://www.w3.org/1999/xlink" width="24" height="24" viewBox="0 0 24 24">
<defs>
<filter id="filter-remove-color" x="0%" y="0%" width="100%" height="100%">
<feColorMatrix color-interpolation-filters="sRGB" values="0 0 0 0 1 0 0 0 0 1 0 0 0 0 1 0 0 0 1 0" />
</filter>
<mask id="mask-0">
<g filter="url(#filter-remove-color)">
<rect x="-2.4" y="-2.4" width="28.8" height="28.8" fill="rgb(0%, 0%, 0%)" fill-opacity="0.561265"/>
</g>
</mask>
<clipPath id="clip-0">
<rect x="0" y="0" width="24" height="24"/>
</clipPath>
<g id="source-6" clip-path="url(#clip-0)">
<path fill-rule="nonzero" fill="rgb(99.607843%, 99.607843%, 99.607843%)" fill-opacity="1" d="M 12 9 C 10.351562 9 9 10.351562 9 12 C 9 13.648438 10.351562 15 12 15 C 13.648438 15 15 13.648438 15 12 C 15 10.351562 13.648438 9 12 9 Z M 12 9 "/>
</g>
</defs>
<g mask="url(#mask-0)">
<use xlink:href="#source-6"/>
</g>
<path fill-rule="nonzero" fill="rgb(97.254902%, 0%, 87.843137%)" fill-opacity="1" d="M 13.5 12 C 13.5 12.398438 13.34375 12.78125 13.0625 13.0625 C 12.78125 13.34375 12.398438 13.5 12 13.5 C 11.601562 13.5 11.21875 13.34375 10.9375 13.0625 C 10.65625 12.78125 10.5 12.398438 10.5 12 C 10.5 11.601562 10.65625 11.21875 10.9375 10.9375 C 11.21875 10.65625 11.601562 10.5 12 10.5 C 12.398438 10.5 12.78125 10.65625 13.0625 10.9375 C 13.34375 11.21875 13.5 11.601562 13.5 12 Z M 13.5 12 "/>
</svg>
