<svg width="12" height="12" viewBox="0 0 48 48" fill="none" xmlns="http://www.w3.org/2000/svg">
<path fill-rule="evenodd" clip-rule="evenodd" d="M14.3428 10.7689C15.9912 9.00275 18.2988 8 20.7147 8H27.2826C29.6986 8 32.0061 9.00275 33.6545 10.7689C35.1609 12.3829 35.9987 14.5083 35.9987 16.716V28C35.9987 29.7865 35.4131 31.4363 34.4233 32.7678L40 38V40L8 40V38L13.574 32.7678C12.5843 31.4363 11.9987 29.7865 11.9987 28V16.716C11.9987 14.5083 12.8365 12.3829 14.3428 10.7689Z" fill="#00293D" fill-opacity="0.75"/>
<path fill-rule="evenodd" clip-rule="evenodd" d="M17.2679 13.4982C18.1598 12.5426 19.4083 12 20.7155 12H27.2835C28.5907 12 29.8392 12.5426 30.7312 13.4982C31.5462 14.3715 31.9995 15.5215 31.9995 16.716V28C31.9995 30.2091 30.2086 32 27.9995 32L31.9995 34V36H15.9995V34L19.9995 32C17.7904 32 15.9995 30.2091 15.9995 28V16.716C15.9995 15.5215 16.4528 14.3715 17.2679 13.4982ZM19.9998 18H27.9998V24H19.9998V18ZM21.9998 28C21.9998 28.5523 21.5521 29 20.9998 29C20.4475 29 19.9998 28.5523 19.9998 28C19.9998 27.4477 20.4475 27 20.9998 27C21.5521 27 21.9998 27.4477 21.9998 28ZM26.9998 29C27.5521 29 27.9998 28.5523 27.9998 28C27.9998 27.4477 27.5521 27 26.9998 27C26.4475 27 25.9998 27.4477 25.9998 28C25.9998 28.5523 26.4475 29 26.9998 29Z" fill="#0092DA"/>
</svg>
