<?xml version="1.0" encoding="UTF-8"?>
<svg xmlns="http://www.w3.org/2000/svg" xmlns:xlink="http://www.w3.org/1999/xlink" width="32" height="32" viewBox="0 0 32 32">
<path fill-rule="nonzero" fill="rgb(0%, 0%, 0%)" fill-opacity="1" d="M 14.160156 11.199219 L 11.71875 8.277344 L 9.246094 11.199219 L 10.753906 11.199219 L 10.753906 13.714844 L 20.882812 19.710938 L 20.886719 23.601562 L 22.753906 23.601562 L 22.753906 18.753906 L 12.617188 12.824219 L 12.617188 11.199219 L 14.160156 11.199219 "/>
<path fill-rule="nonzero" fill="rgb(0%, 0%, 0%)" fill-opacity="1" d="M 20.886719 8.476562 L 20.882812 10.144531 L 22.753906 10.132812 L 22.753906 8.476562 Z M 22.753906 11.539062 L 20.882812 11.554688 L 20.882812 12.566406 L 19.394531 13.445312 L 20.269531 14.976562 L 22.753906 13.523438 Z M 17.835938 14.289062 L 14.015625 16.632812 L 14.875 18.132812 L 18.707031 15.808594 Z M 12.421875 17.492188 L 10.753906 18.5625 L 10.753906 21.078125 L 9.246094 21.078125 L 11.71875 24 L 14.160156 21.078125 L 12.617188 21.078125 L 12.617188 19.457031 L 13.277344 18.988281 Z M 12.421875 17.492188 "/>
</svg>
