<svg width="12" height="12" viewBox="0 0 580 580" fill="none" xmlns="http://www.w3.org/2000/svg">
<path d="M381.417 131.631C355.099 132.185 329.437 139.81 307.814 153.546C303.766 148.001 298.468 143.489 292.349 140.376C286.23 137.263 279.464 135.636 272.598 135.628H96.5169C84.9386 135.63 73.8351 140.23 65.648 148.417C57.4609 156.605 52.8605 167.708 52.8584 179.286V222.394C52.8605 233.972 57.4609 245.075 65.648 253.262C73.8351 261.45 84.9386 266.05 96.5169 266.052H116.33V400.439C116.332 412.017 120.933 423.121 129.12 431.308C137.307 439.495 148.411 444.095 159.989 444.097H209.264C220.842 444.095 231.946 439.495 240.133 431.308C248.32 423.121 252.92 412.017 252.923 400.439V353.817C258.88 371.799 267.67 388.352 279.869 402.61C279.892 402.633 279.915 402.656 279.938 402.679C305.639 432.573 344.931 448.37 385.208 448.37C425.543 448.37 464.913 432.611 490.581 402.61C516.214 372.648 527.141 332.886 527.141 290.069C527.141 247.174 516.232 207.374 490.581 177.391C464.913 147.39 425.543 131.631 385.208 131.631C384.855 131.631 383.594 131.585 381.417 131.631ZM385.276 263.226C387.031 268.011 389.032 276.713 389.032 290.069C389.032 303.335 387.033 311.963 385.276 316.74C383.52 311.963 381.521 303.335 381.521 290.069C381.521 276.714 383.523 268.011 385.276 263.226Z" fill="#FEFEFE" fill-opacity="0.788732"/>
<path d="M96.5029 179.273H272.596V222.379H209.248V400.432H159.978V222.379H96.5029V179.273" fill="#6C003D"/>
<path d="M385.213 216.603C370.197 216.603 358.552 223.022 350.276 235.86C342 248.698 337.862 266.77 337.862 290.075C337.862 313.282 342 331.305 350.276 344.143C358.552 356.981 370.197 363.4 385.213 363.4C400.314 363.4 412.002 356.981 420.278 344.143C428.553 331.305 432.691 313.282 432.691 290.075C432.691 266.77 428.553 248.698 420.278 235.86C412.002 223.022 400.314 216.603 385.213 216.603V216.603ZM385.213 175.274C415.927 175.275 439.986 185.446 457.39 205.789C474.795 226.133 483.497 254.228 483.497 290.075C483.497 325.824 474.795 353.87 457.39 374.213C439.986 394.556 415.927 404.728 385.213 404.728C354.584 404.728 330.525 394.556 313.035 374.213C295.631 353.87 286.929 325.824 286.929 290.075C286.929 254.228 295.631 226.133 313.035 205.789C330.525 185.446 354.584 175.275 385.213 175.274Z" fill="#6C003D"/>
</svg>
