<?xml version="1.0" encoding="UTF-8"?>
<svg xmlns="http://www.w3.org/2000/svg" xmlns:xlink="http://www.w3.org/1999/xlink" width="12" height="12" viewBox="0 0 12 12" version="1.1">
<g id="surface1">
<path style=" stroke:none;fill-rule:nonzero;fill:rgb(0%,0%,0%);fill-opacity:1;" d="M 4.671875 4.523438 C 4.785156 4.523438 4.878906 4.484375 4.960938 4.40625 C 5.039062 4.328125 5.074219 4.234375 5.074219 4.121094 C 5.074219 4.011719 5.035156 3.917969 4.960938 3.835938 C 4.882812 3.757812 4.789062 3.71875 4.675781 3.71875 C 4.5625 3.71875 4.464844 3.757812 4.386719 3.835938 C 4.308594 3.914062 4.269531 4.007812 4.273438 4.117188 C 4.273438 4.230469 4.308594 4.328125 4.386719 4.40625 C 4.464844 4.484375 4.558594 4.523438 4.671875 4.523438 Z M 6.800781 5.269531 C 6.152344 5.28125 6.074219 5.265625 6.074219 5.265625 C 5.980469 5.238281 5.953125 5.3125 5.929688 5.351562 C 5.898438 5.402344 5.894531 5.460938 5.964844 5.5 L 6.464844 5.808594 C 6.464844 5.808594 6.457031 6.015625 6.273438 6.1875 C 6.089844 6.363281 5.277344 6.613281 5.277344 6.613281 L 5.269531 6.394531 L 4.824219 6.046875 L 4.847656 5.488281 L 5.488281 5.601562 C 5.601562 5.554688 5.644531 5.476562 5.617188 5.371094 C 5.601562 5.320312 5.570312 5.28125 5.515625 5.253906 C 5.464844 5.222656 5.414062 5.21875 5.367188 5.242188 L 4.910156 5.136719 L 4.871094 5.003906 C 4.875 4.894531 4.835938 4.800781 4.757812 4.71875 C 4.675781 4.640625 4.582031 4.601562 4.472656 4.605469 C 4.359375 4.601562 4.265625 4.640625 4.1875 4.71875 C 4.109375 4.796875 4.070312 4.894531 4.066406 5 L 4.117188 6.179688 C 4.136719 6.230469 4.71875 6.5625 4.71875 6.5625 L 4.730469 6.800781 C 4.730469 6.800781 4.046875 7.128906 3.851562 7.359375 C 3.683594 7.554688 3.679688 7.945312 3.679688 7.945312 C 3.800781 7.847656 3.972656 7.792969 4.097656 7.773438 C 4.292969 7.742188 4.386719 7.796875 4.519531 7.824219 C 4.597656 7.835938 4.671875 7.832031 4.75 7.8125 C 4.828125 7.792969 4.898438 7.757812 4.960938 7.710938 C 5.058594 7.625 5.171875 7.570312 5.296875 7.539062 C 5.371094 7.519531 5.472656 7.515625 5.605469 7.527344 C 5.738281 7.539062 5.839844 7.535156 5.90625 7.519531 C 5.984375 7.496094 6.050781 7.464844 6.113281 7.414062 C 6.21875 7.332031 6.332031 7.273438 6.453125 7.242188 C 6.53125 7.222656 6.609375 7.214844 6.6875 7.21875 C 6.765625 7.222656 6.84375 7.230469 6.917969 7.238281 C 7.84375 6.722656 7.773438 6.6875 8.011719 6.414062 C 8.253906 6.136719 8.425781 5.515625 8.425781 5.515625 C 7.957031 5.203125 7.449219 5.257812 6.800781 5.269531 Z M 7.785156 7.855469 C 7.710938 7.851562 7.609375 7.863281 7.480469 7.890625 C 7.347656 7.921875 7.246094 7.933594 7.179688 7.929688 C 7.105469 7.921875 7.007812 7.886719 6.886719 7.832031 C 6.761719 7.773438 6.523438 7.636719 6.457031 7.644531 C 6.382812 7.65625 6.359375 7.648438 6.238281 7.710938 C 6.117188 7.773438 6.019531 7.808594 5.949219 7.820312 C 5.878906 7.832031 5.777344 7.824219 5.644531 7.796875 C 5.511719 7.769531 5.410156 7.761719 5.339844 7.773438 C 5.269531 7.785156 5.175781 7.820312 5.054688 7.882812 C 4.9375 7.941406 4.839844 7.980469 4.769531 7.988281 C 4.699219 8 4.597656 7.992188 4.464844 7.964844 C 4.335938 7.941406 4.234375 7.933594 4.164062 7.941406 C 4.089844 7.953125 3.996094 7.988281 3.875 8.050781 C 3.753906 8.113281 3.46875 8.1875 3.394531 8.199219 L 3.390625 8.597656 C 3.464844 8.585938 3.816406 8.546875 3.9375 8.484375 C 4.058594 8.421875 4.152344 8.386719 4.222656 8.378906 C 4.292969 8.367188 4.390625 8.375 4.527344 8.402344 C 4.660156 8.425781 4.761719 8.433594 4.832031 8.421875 C 4.902344 8.414062 5 8.378906 5.117188 8.316406 C 5.238281 8.253906 5.332031 8.21875 5.402344 8.207031 C 5.472656 8.199219 5.574219 8.207031 5.707031 8.230469 C 5.839844 8.257812 5.941406 8.265625 6.011719 8.253906 C 6.082031 8.246094 6.179688 8.207031 6.300781 8.144531 C 6.417969 8.085938 6.402344 8.09375 6.472656 8.082031 C 6.542969 8.074219 6.71875 8.210938 6.839844 8.269531 C 6.964844 8.324219 7.0625 8.355469 7.132812 8.363281 C 7.203125 8.371094 7.300781 8.359375 7.433594 8.328125 C 7.566406 8.296875 7.667969 8.285156 7.738281 8.292969 C 7.8125 8.300781 8.164062 8.289062 8.378906 8.476562 C 8.429688 8.5 8.460938 8.527344 8.484375 8.546875 L 8.480469 8.082031 C 8.457031 8.054688 8.441406 8.046875 8.425781 8.039062 C 8.179688 7.859375 7.855469 7.863281 7.785156 7.855469 Z M 7.785156 7.855469 "/>
<path style=" stroke:none;fill-rule:nonzero;fill:rgb(0%,0%,0%);fill-opacity:1;" d="M 5.96875 5.242188 C 6 5.179688 5.980469 5.105469 5.921875 5.070312 C 5.863281 5.039062 5.789062 5.066406 5.753906 5.125 L 5.65625 5.308594 C 5.621094 5.371094 5.640625 5.449219 5.699219 5.480469 C 5.757812 5.511719 5.832031 5.488281 5.867188 5.425781 Z M 5.96875 5.242188 "/>
</g>
</svg>
