<?xml version="1.0" encoding="UTF-8"?>
<svg xmlns="http://www.w3.org/2000/svg" xmlns:xlink="http://www.w3.org/1999/xlink" width="12" height="12" viewBox="0 0 12 12" version="1.1">
<g id="surface1">
<path style=" stroke:none;fill-rule:nonzero;fill:rgb(0%,0%,0%);fill-opacity:1;" d="M 4.285156 5.671875 L 3.886719 5.671875 L 3.886719 5.550781 C 3.886719 5.492188 3.882812 5.457031 3.871094 5.441406 C 3.859375 5.425781 3.84375 5.417969 3.820312 5.417969 C 3.792969 5.417969 3.773438 5.425781 3.761719 5.449219 C 3.746094 5.46875 3.742188 5.5 3.742188 5.542969 C 3.742188 5.597656 3.75 5.640625 3.761719 5.667969 C 3.777344 5.699219 3.816406 5.730469 3.886719 5.769531 C 4.078125 5.886719 4.199219 5.980469 4.25 6.050781 C 4.296875 6.125 4.324219 6.242188 4.324219 6.40625 C 4.324219 6.523438 4.308594 6.609375 4.28125 6.667969 C 4.253906 6.722656 4.199219 6.769531 4.121094 6.808594 C 4.042969 6.847656 3.949219 6.863281 3.84375 6.863281 C 3.730469 6.863281 3.628906 6.84375 3.546875 6.800781 C 3.464844 6.753906 3.414062 6.699219 3.386719 6.632812 C 3.363281 6.566406 3.351562 6.46875 3.351562 6.34375 L 3.351562 6.234375 L 3.75 6.234375 L 3.75 6.4375 C 3.75 6.5 3.757812 6.539062 3.765625 6.558594 C 3.777344 6.574219 3.800781 6.582031 3.828125 6.582031 C 3.855469 6.582031 3.878906 6.574219 3.890625 6.550781 C 3.90625 6.527344 3.914062 6.492188 3.914062 6.449219 C 3.914062 6.351562 3.898438 6.289062 3.871094 6.257812 C 3.84375 6.226562 3.777344 6.175781 3.671875 6.105469 C 3.5625 6.035156 3.492188 5.984375 3.457031 5.953125 C 3.421875 5.921875 3.394531 5.875 3.371094 5.820312 C 3.347656 5.761719 3.335938 5.691406 3.335938 5.601562 C 3.335938 5.472656 3.351562 5.382812 3.382812 5.324219 C 3.417969 5.265625 3.46875 5.21875 3.542969 5.183594 C 3.613281 5.152344 3.703125 5.136719 3.804688 5.136719 C 3.917969 5.136719 4.011719 5.152344 4.089844 5.1875 C 4.171875 5.226562 4.222656 5.269531 4.25 5.328125 C 4.273438 5.382812 4.285156 5.476562 4.285156 5.605469 L 4.285156 5.671875 "/>
<path style=" stroke:none;fill-rule:nonzero;fill:rgb(0%,0%,0%);fill-opacity:1;" d="M 4.460938 5.171875 L 4.894531 5.171875 C 5.011719 5.171875 5.101562 5.179688 5.164062 5.199219 C 5.226562 5.214844 5.277344 5.242188 5.308594 5.277344 C 5.339844 5.3125 5.359375 5.355469 5.371094 5.40625 C 5.382812 5.453125 5.390625 5.53125 5.390625 5.632812 L 5.390625 5.777344 C 5.390625 5.886719 5.378906 5.960938 5.355469 6.011719 C 5.335938 6.058594 5.292969 6.097656 5.234375 6.121094 C 5.175781 6.148438 5.101562 6.160156 5.007812 6.160156 L 4.890625 6.160156 L 4.890625 6.828125 L 4.460938 6.828125 Z M 4.890625 5.453125 L 4.890625 5.875 C 4.902344 5.878906 4.914062 5.878906 4.921875 5.878906 C 4.960938 5.878906 4.988281 5.867188 5.003906 5.847656 C 5.019531 5.828125 5.027344 5.789062 5.027344 5.726562 L 5.027344 5.589844 C 5.027344 5.535156 5.019531 5.496094 5 5.480469 C 4.984375 5.460938 4.945312 5.453125 4.890625 5.453125 "/>
<path style=" stroke:none;fill-rule:nonzero;fill:rgb(0%,0%,0%);fill-opacity:1;" d="M 6.5 6.140625 C 6.5 6.308594 6.496094 6.425781 6.488281 6.496094 C 6.480469 6.566406 6.457031 6.628906 6.414062 6.6875 C 6.371094 6.742188 6.316406 6.789062 6.246094 6.820312 C 6.175781 6.847656 6.09375 6.863281 6 6.863281 C 5.910156 6.863281 5.832031 6.851562 5.761719 6.820312 C 5.691406 6.792969 5.632812 6.75 5.589844 6.691406 C 5.546875 6.632812 5.523438 6.570312 5.511719 6.5 C 5.503906 6.433594 5.5 6.3125 5.5 6.140625 L 5.5 5.859375 C 5.5 5.691406 5.503906 5.574219 5.511719 5.503906 C 5.519531 5.433594 5.546875 5.371094 5.585938 5.3125 C 5.628906 5.257812 5.683594 5.210938 5.753906 5.179688 C 5.824219 5.152344 5.90625 5.136719 6 5.136719 C 6.089844 5.136719 6.167969 5.148438 6.238281 5.179688 C 6.308594 5.207031 6.367188 5.25 6.410156 5.308594 C 6.453125 5.367188 6.480469 5.429688 6.488281 5.5 C 6.496094 5.566406 6.5 5.6875 6.5 5.859375 Z M 6.066406 5.597656 C 6.066406 5.519531 6.0625 5.46875 6.054688 5.449219 C 6.046875 5.425781 6.027344 5.417969 6.003906 5.417969 C 5.980469 5.417969 5.960938 5.425781 5.949219 5.441406 C 5.9375 5.460938 5.933594 5.511719 5.933594 5.597656 L 5.933594 6.371094 C 5.933594 6.46875 5.9375 6.527344 5.945312 6.550781 C 5.953125 6.574219 5.972656 6.582031 6 6.582031 C 6.027344 6.582031 6.046875 6.570312 6.054688 6.546875 C 6.0625 6.519531 6.066406 6.457031 6.066406 6.359375 Z M 6.066406 5.597656 "/>
<path style=" stroke:none;fill-rule:nonzero;fill:rgb(0%,0%,0%);fill-opacity:1;" d="M 6.660156 5.171875 L 6.96875 5.171875 C 7.171875 5.171875 7.308594 5.179688 7.378906 5.195312 C 7.453125 5.210938 7.511719 5.25 7.558594 5.316406 C 7.601562 5.378906 7.625 5.480469 7.625 5.625 C 7.625 5.753906 7.609375 5.839844 7.578125 5.882812 C 7.546875 5.929688 7.480469 5.953125 7.386719 5.964844 C 7.472656 5.984375 7.53125 6.011719 7.558594 6.046875 C 7.589844 6.085938 7.609375 6.117188 7.613281 6.148438 C 7.621094 6.175781 7.625 6.257812 7.625 6.390625 L 7.625 6.828125 L 7.226562 6.828125 L 7.226562 6.277344 C 7.226562 6.191406 7.21875 6.132812 7.203125 6.113281 C 7.191406 6.09375 7.152344 6.082031 7.09375 6.082031 L 7.09375 6.828125 L 6.660156 6.828125 Z M 7.09375 5.453125 L 7.09375 5.824219 C 7.140625 5.824219 7.175781 5.816406 7.195312 5.804688 C 7.214844 5.789062 7.226562 5.746094 7.226562 5.671875 L 7.226562 5.582031 C 7.226562 5.53125 7.214844 5.496094 7.195312 5.480469 C 7.175781 5.460938 7.144531 5.453125 7.09375 5.453125 Z M 7.09375 5.453125 "/>
<path style=" stroke:none;fill-rule:nonzero;fill:rgb(0%,0%,0%);fill-opacity:1;" d="M 8.664062 5.171875 L 8.664062 5.503906 L 8.40625 5.503906 L 8.40625 6.828125 L 7.976562 6.828125 L 7.976562 5.503906 L 7.71875 5.503906 L 7.71875 5.171875 Z M 8.664062 5.171875 "/>
</g>
</svg>
