<svg width="64" height="64" viewBox="0 0 1060 1060" fill="none" xmlns="http://www.w3.org/2000/svg">
<path opacity="0.372" d="M497.25 211.469C491.681 211.468 486.167 212.565 481.021 214.696C475.876 216.827 471.201 219.951 467.263 223.888C463.326 227.826 460.202 232.501 458.071 237.646C455.94 242.792 454.843 248.306 454.844 253.875V664.125C448.366 669.114 442.558 674.92 437.656 681.469H403.281C397.712 681.468 392.198 682.565 387.053 684.696C381.908 686.827 377.233 689.951 373.295 693.888C369.357 697.826 366.233 702.501 364.102 707.646C361.971 712.792 360.875 718.306 360.875 723.875V746.938C360.875 752.506 361.971 758.021 364.102 763.166C366.233 768.311 369.357 772.986 373.295 776.924C377.233 780.862 381.908 783.985 387.053 786.116C392.198 788.247 397.712 789.344 403.281 789.344H437.812C454.319 811.297 480.508 825.469 509.781 825.469C539.055 825.469 565.265 811.296 581.781 789.344H616.281C621.85 789.344 627.365 788.247 632.51 786.116C637.655 783.985 642.33 780.862 646.268 776.924C650.206 772.986 653.329 768.311 655.46 763.166C657.591 758.021 658.688 752.506 658.688 746.938V723.875C658.688 718.306 657.591 712.792 655.46 707.646C653.329 702.501 650.206 697.826 646.268 693.888C642.33 689.951 637.655 686.827 632.51 684.696C627.365 682.565 621.85 681.468 616.281 681.469H581.812C576.45 674.319 570.094 667.985 562.875 662.719V446.156C566.08 447.255 569.349 448.603 572.938 450.281C588.917 457.753 608.688 473.669 631.531 493.438C677.54 533.253 745.553 590.861 845.312 578.188C844.788 578.253 844.87 578.141 845.281 577.938L845.312 578.188C845.334 578.184 845.354 578.191 845.375 578.188L845.344 577.906C847.679 576.775 861.062 572.526 863.469 572.156C865.148 570.336 876.214 561.523 878.375 560.281C879.286 557.989 886.51 545.702 888.063 543.812C888.109 540.882 891.371 522.126 891.5 524.938L890.625 476.094C890.625 476.073 890.625 476.052 890.625 476.031C890.693 479.555 886.232 455.688 887.438 459C888.643 462.312 876.693 441.164 878.906 443.906C881.119 446.649 862.987 430.528 865.969 432.406C868.903 434.254 847.52 425.3 850.094 425.781V425.719C806.561 415.326 758.187 370.136 706.438 320.562C680.512 295.727 653.289 270.168 620.969 250.219C599.475 236.952 574.97 226.168 548 221.719C540.337 215.131 530.574 211.496 520.469 211.469H497.25ZM509.781 723.5C515.409 723.5 521.688 729.778 521.688 735.406C521.688 741.034 515.461 747.281 509.781 747.281C504.101 747.281 497.906 741.086 497.906 735.406C497.906 729.726 504.153 723.5 509.781 723.5Z" fill="#E4E4E4"/>
<path d="M548.745 735.437C548.745 740.571 547.735 745.655 545.771 750.399C543.806 755.143 540.927 759.453 537.297 763.084C533.666 766.715 529.356 769.596 524.613 771.561C519.869 773.526 514.785 774.537 509.651 774.537C504.516 774.537 499.432 773.526 494.688 771.561C489.945 769.596 485.635 766.715 482.005 763.084C478.374 759.453 475.495 755.143 473.531 750.399C471.566 745.655 470.556 740.571 470.557 735.437C470.556 730.302 471.566 725.218 473.531 720.474C475.495 715.73 478.374 711.42 482.005 707.789C485.635 704.158 489.945 701.277 494.688 699.312C499.432 697.347 504.516 696.336 509.651 696.336C514.785 696.336 519.869 697.347 524.613 699.312C529.356 701.277 533.666 704.158 537.297 707.789C540.927 711.42 543.806 715.73 545.771 720.474C547.735 725.218 548.745 730.302 548.745 735.437Z" stroke="black" stroke-width="17.158"/>
<path d="M403.143 723.913V746.962H470.443V723.913H403.143ZM548.838 723.913V746.962H616.138V723.913H548.838Z" fill="black"/>
<path d="M508.729 696.271V253.898" stroke="black" stroke-width="23.2"/>
<path d="M510.107 272.876C628.687 260.369 708.138 446.131 837.725 477.068L838.594 525.907C682.261 545.812 644.79 356.326 507.5 396.441" stroke="black" stroke-width="20.7" stroke-linecap="round" stroke-linejoin="round"/>
<path d="M566.588 391.322L588.609 293.47" stroke="black" stroke-width="19.4"/>
<path d="M619.286 415.576L659.361 351.674" stroke="black" stroke-width="19.4"/>
<path d="M673.834 458.14L711.197 401.952" stroke="black" stroke-width="19.4"/>
<path d="M722.492 492.896L754.642 439.314" stroke="black" stroke-width="19.4"/>
<path d="M779.84 517.66L797.218 464.078" stroke="black" stroke-width="19.4"/>
</svg>
