<?xml version="1.0" encoding="UTF-8"?>
<svg xmlns="http://www.w3.org/2000/svg" xmlns:xlink="http://www.w3.org/1999/xlink" width="12" height="12" viewBox="0 0 12 12">
<path fill-rule="nonzero" fill="rgb(99.607843%, 99.607843%, 99.607843%)" fill-opacity="0.788732" d="M 4.464844 2.289062 C 3.496094 2.289062 2.542969 2.648438 1.898438 3.347656 C 1.25 4.046875 0.957031 5 0.957031 6 C 0.957031 7 1.253906 7.957031 1.898438 8.65625 C 2.542969 9.355469 3.496094 9.710938 4.464844 9.710938 C 4.808594 9.710938 5.144531 9.667969 5.472656 9.578125 C 5.679688 9.519531 5.878906 9.445312 6.074219 9.351562 C 6.273438 9.519531 6.523438 9.613281 6.785156 9.613281 L 9.9375 9.613281 C 10.230469 9.613281 10.511719 9.496094 10.71875 9.289062 C 10.925781 9.082031 11.042969 8.800781 11.042969 8.507812 L 11.042969 7.527344 C 11.042969 7.234375 10.925781 6.953125 10.71875 6.746094 C 10.511719 6.539062 10.230469 6.421875 9.9375 6.421875 L 9.035156 6.421875 L 9.035156 3.484375 C 9.035156 3.191406 8.917969 2.910156 8.710938 2.703125 C 8.503906 2.496094 8.222656 2.378906 7.929688 2.378906 L 6.785156 2.378906 C 6.523438 2.378906 6.269531 2.472656 6.066406 2.644531 C 5.875 2.554688 5.675781 2.480469 5.472656 2.421875 C 5.144531 2.332031 4.808594 2.289062 4.464844 2.289062 Z M 4.472656 5.433594 C 4.472656 5.433594 4.488281 5.441406 4.558594 5.441406 C 4.664062 5.441406 4.742188 5.457031 4.824219 5.484375 C 4.90625 5.515625 5.019531 5.574219 5.160156 5.683594 C 5.308594 5.800781 5.488281 5.875 5.679688 5.902344 L 5.679688 6.097656 C 5.488281 6.125 5.308594 6.199219 5.160156 6.316406 C 5.019531 6.425781 4.90625 6.484375 4.824219 6.515625 C 4.742188 6.542969 4.664062 6.558594 4.558594 6.558594 C 4.417969 6.558594 4.503906 6.585938 4.464844 6.539062 C 4.425781 6.488281 4.351562 6.355469 4.351562 6 C 4.351562 5.648438 4.425781 5.511719 4.464844 5.460938 C 4.484375 5.4375 4.472656 5.433594 4.472656 5.433594 Z M 4.472656 5.433594 "/>
<path fill-rule="nonzero" fill="rgb(42.352941%, 0%, 23.921569%)" fill-opacity="1" d="M 5.835938 8.230469 C 5.625 8.355469 5.40625 8.449219 5.179688 8.511719 C 4.953125 8.574219 4.714844 8.605469 4.464844 8.605469 C 3.726562 8.605469 3.144531 8.371094 2.710938 7.90625 C 2.28125 7.4375 2.0625 6.800781 2.0625 6 C 2.0625 5.199219 2.28125 4.5625 2.710938 4.097656 C 3.144531 3.628906 3.726562 3.394531 4.464844 3.394531 C 4.714844 3.394531 4.953125 3.425781 5.179688 3.488281 C 5.40625 3.550781 5.625 3.644531 5.835938 3.769531 L 5.835938 4.808594 C 5.625 4.644531 5.414062 4.523438 5.207031 4.449219 C 5.003906 4.371094 4.785156 4.332031 4.558594 4.332031 C 4.148438 4.332031 3.828125 4.480469 3.597656 4.777344 C 3.363281 5.074219 3.246094 5.480469 3.246094 6 C 3.246094 6.519531 3.363281 6.925781 3.597656 7.222656 C 3.828125 7.519531 4.148438 7.667969 4.558594 7.667969 C 4.785156 7.667969 5.003906 7.628906 5.207031 7.550781 C 5.414062 7.476562 5.625 7.355469 5.835938 7.191406 Z M 5.835938 8.230469 "/>
<path fill-rule="nonzero" fill="rgb(42.352941%, 0%, 23.921569%)" fill-opacity="1" d="M 6.785156 3.484375 L 7.929688 3.484375 L 7.929688 7.527344 L 9.9375 7.527344 L 9.9375 8.507812 L 6.785156 8.507812 L 6.785156 3.484375 "/>
</svg>
