<?xml version="1.0" encoding="UTF-8"?>
<svg xmlns="http://www.w3.org/2000/svg" xmlns:xlink="http://www.w3.org/1999/xlink" width="32" height="32" viewBox="0 0 32 32">
<defs>
<filter id="filter-remove-color" x="0%" y="0%" width="100%" height="100%">
<feColorMatrix color-interpolation-filters="sRGB" values="0 0 0 0 1 0 0 0 0 1 0 0 0 0 1 0 0 0 1 0" />
</filter>
<mask id="mask-0">
<g filter="url(#filter-remove-color)">
<rect x="-3.2" y="-3.2" width="38.4" height="38.4" fill="rgb(0%, 0%, 0%)" fill-opacity="0.426087"/>
</g>
</mask>
<clipPath id="clip-0">
<rect x="0" y="0" width="32" height="32"/>
</clipPath>
<g id="source-6" clip-path="url(#clip-0)">
<path fill-rule="nonzero" fill="rgb(67.45098%, 84.705882%, 95.294118%)" fill-opacity="1" d="M 22 16 C 22 17.589844 21.367188 19.117188 20.242188 20.242188 C 19.117188 21.367188 17.589844 22 16 22 C 14.410156 22 12.882812 21.367188 11.757812 20.242188 C 10.632812 19.117188 10 17.589844 10 16 C 10 14.410156 10.632812 12.882812 11.757812 11.757812 C 12.882812 10.632812 14.410156 10 16 10 C 17.589844 10 19.117188 10.632812 20.242188 11.757812 C 21.367188 12.882812 22 14.410156 22 16 Z M 22 16 "/>
</g>
</defs>
<g mask="url(#mask-0)">
<use xlink:href="#source-6"/>
</g>
<path fill-rule="nonzero" fill="rgb(99.607843%, 99.607843%, 99.607843%)" fill-opacity="1" stroke-width="10" stroke-linecap="butt" stroke-linejoin="miter" stroke="rgb(0%, 0%, 0%)" stroke-opacity="1" stroke-miterlimit="4" d="M 205 160 C 205 171.953125 200.273438 183.398438 191.835938 191.835938 C 183.398438 200.273438 171.953125 205 160 205 C 148.046875 205 136.601562 200.273438 128.164062 191.835938 C 119.726562 183.398438 115 171.953125 115 160 C 115 148.046875 119.726562 136.601562 128.164062 128.164062 C 136.601562 119.726562 148.046875 115 160 115 C 171.953125 115 183.398438 119.726562 191.835938 128.164062 C 200.273438 136.601562 205 148.046875 205 160 Z M 205 160 " transform="matrix(0.1, 0, 0, 0.1, 0, 0)"/>
</svg>
