<?xml version="1.0" encoding="UTF-8"?>
<svg xmlns="http://www.w3.org/2000/svg" xmlns:xlink="http://www.w3.org/1999/xlink" width="48" height="48" viewBox="0 0 48 48">
<defs>
<filter id="filter-remove-color" x="0%" y="0%" width="100%" height="100%">
<feColorMatrix color-interpolation-filters="sRGB" values="0 0 0 0 1 0 0 0 0 1 0 0 0 0 1 0 0 0 1 0" />
</filter>
<mask id="mask-0">
<g filter="url(#filter-remove-color)">
<rect x="-4.8" y="-4.8" width="57.6" height="57.6" fill="rgb(0%, 0%, 0%)" fill-opacity="0.372"/>
</g>
</mask>
<clipPath id="clip-0">
<rect x="0" y="0" width="48" height="48"/>
</clipPath>
<g id="source-6" clip-path="url(#clip-0)">
<path fill-rule="nonzero" fill="rgb(89.411765%, 89.411765%, 89.411765%)" fill-opacity="1" d="M 23.199219 11.367188 C 23.003906 11.359375 22.808594 11.394531 22.628906 11.46875 C 22.449219 11.546875 22.285156 11.664062 22.15625 11.808594 L 21.84375 12.160156 L 21.84375 12.164062 L 20.484375 13.691406 L 20.410156 13.765625 C 20.160156 14.011719 20.019531 14.347656 20.019531 14.695312 L 20.019531 14.820312 L 19.378906 28.371094 L 19.292969 28.371094 C 19.121094 28.371094 18.949219 28.40625 18.789062 28.472656 C 18.628906 28.539062 18.484375 28.636719 18.359375 28.757812 C 18.238281 28.882812 18.140625 29.027344 18.074219 29.1875 C 18.007812 29.347656 17.972656 29.519531 17.972656 29.691406 L 17.972656 29.910156 L 17.757812 29.910156 C 17.585938 29.910156 17.414062 29.945312 17.253906 30.011719 C 17.09375 30.074219 16.949219 30.171875 16.824219 30.296875 C 16.703125 30.417969 16.605469 30.5625 16.539062 30.722656 C 16.472656 30.882812 16.4375 31.054688 16.4375 31.230469 L 16.4375 31.453125 L 15.796875 31.453125 C 15.625 31.453125 15.453125 31.488281 15.292969 31.554688 C 15.132812 31.621094 14.988281 31.71875 14.863281 31.839844 C 14.742188 31.964844 14.644531 32.109375 14.578125 32.269531 C 14.511719 32.429688 14.476562 32.601562 14.476562 32.773438 L 14.476562 33.816406 C 14.476562 33.992188 14.511719 34.164062 14.578125 34.324219 C 14.644531 34.484375 14.742188 34.628906 14.863281 34.75 C 14.988281 34.875 15.132812 34.972656 15.292969 35.039062 C 15.453125 35.105469 15.625 35.136719 15.796875 35.136719 L 20.121094 35.136719 C 20.742188 36.121094 21.835938 36.777344 23.070312 36.777344 C 24.304688 36.777344 25.398438 36.121094 26.015625 35.136719 L 30.339844 35.136719 C 30.515625 35.136719 30.6875 35.105469 30.847656 35.039062 C 31.007812 34.972656 31.152344 34.875 31.273438 34.75 C 31.398438 34.628906 31.496094 34.484375 31.5625 34.324219 C 31.628906 34.164062 31.660156 33.992188 31.660156 33.816406 L 31.660156 32.773438 C 31.660156 32.601562 31.628906 32.429688 31.5625 32.269531 C 31.496094 32.109375 31.398438 31.964844 31.273438 31.839844 C 31.152344 31.71875 31.007812 31.621094 30.847656 31.554688 C 30.6875 31.488281 30.515625 31.453125 30.339844 31.453125 L 29.851562 31.453125 L 29.851562 31.230469 C 29.851562 31.054688 29.816406 30.882812 29.75 30.722656 C 29.683594 30.5625 29.585938 30.417969 29.464844 30.296875 C 29.339844 30.171875 29.195312 30.074219 29.035156 30.011719 C 28.875 29.945312 28.703125 29.910156 28.53125 29.910156 L 28.316406 29.910156 L 28.316406 29.691406 C 28.316406 29.519531 28.28125 29.347656 28.214844 29.1875 C 28.148438 29.027344 28.050781 28.882812 27.929688 28.757812 C 27.804688 28.636719 27.660156 28.539062 27.5 28.472656 C 27.339844 28.40625 27.167969 28.371094 26.996094 28.371094 L 26.910156 28.371094 L 26.269531 14.820312 L 26.269531 14.695312 C 26.269531 14.347656 26.128906 14.011719 25.878906 13.765625 L 25.804688 13.691406 L 24.441406 12.160156 L 24.128906 11.804688 C 24.011719 11.675781 23.867188 11.566406 23.710938 11.492188 C 23.550781 11.417969 23.375 11.375 23.199219 11.367188 Z M 23.144531 22.796875 L 23.394531 28.300781 L 22.894531 28.300781 Z M 23.070312 33.234375 C 23.132812 33.234375 23.132812 33.230469 23.132812 33.296875 C 23.132812 33.363281 23.136719 33.359375 23.070312 33.359375 C 23.003906 33.359375 23.007812 33.359375 23.007812 33.296875 C 23.007812 33.234375 23.007812 33.234375 23.070312 33.234375 Z M 23.070312 33.234375 "/>
</g>
</defs>
<g mask="url(#mask-0)">
<use xlink:href="#source-6"/>
</g>
<path fill="none" stroke-width="17.158001" stroke-linecap="butt" stroke-linejoin="miter" stroke="rgb(0%, 0%, 0%)" stroke-opacity="1" stroke-miterlimit="4" d="M 548.719076 735.478516 C 548.719076 740.568034 547.770182 745.657552 545.786133 750.402018 C 543.802083 755.146484 540.955404 759.459635 537.332357 763.082682 C 533.623047 766.705729 529.396159 769.638672 524.651693 771.536458 C 519.907227 773.520508 514.817708 774.555664 509.641927 774.555664 C 504.552409 774.555664 499.462891 773.520508 494.718424 771.536458 C 489.973958 769.638672 485.660807 766.705729 482.03776 763.082682 C 478.414714 759.459635 475.481771 755.146484 473.497721 750.402018 C 471.599935 745.657552 470.564779 740.568034 470.564779 735.478516 C 470.564779 730.302734 471.599935 725.213216 473.497721 720.46875 C 475.481771 715.724284 478.414714 711.411133 482.03776 707.788086 C 485.660807 704.165039 489.973958 701.318359 494.718424 699.33431 C 499.462891 697.35026 504.552409 696.315104 509.641927 696.315104 C 514.817708 696.315104 519.907227 697.35026 524.651693 699.33431 C 529.396159 701.318359 533.623047 704.165039 537.332357 707.788086 C 540.955404 711.411133 543.802083 715.724284 545.786133 720.46875 C 547.770182 725.213216 548.719076 730.302734 548.719076 735.478516 Z M 548.719076 735.478516 " transform="matrix(0.045283, 0, 0, 0.045283, 0, 0)"/>
<path fill-rule="nonzero" fill="rgb(0%, 0%, 0%)" fill-opacity="1" d="M 15.808594 32.78125 L 15.808594 33.824219 L 21.492188 33.824219 L 21.492188 32.78125 Z M 24.664062 32.78125 L 24.664062 33.824219 L 30.347656 33.824219 L 30.347656 32.78125 Z M 24.664062 32.78125 "/>
<path fill-rule="nonzero" fill="rgb(0%, 0%, 0%)" fill-opacity="1" d="M 17.769531 31.234375 L 17.769531 33.5625 L 21.546875 33.5625 C 21.550781 33.273438 21.632812 33 21.777344 32.769531 L 18.558594 32.769531 L 18.558594 32.027344 L 22.214844 32.027344 C 22.941406 31.53125 23.558594 31.714844 24.15625 32.027344 L 27.746094 32.027344 L 27.746094 32.769531 L 24.378906 32.769531 C 24.523438 33 24.605469 33.273438 24.609375 33.5625 L 28.539062 33.5625 L 28.539062 31.234375 Z M 17.769531 31.234375 "/>
<path fill="none" stroke-width="17.275" stroke-linecap="butt" stroke-linejoin="miter" stroke="rgb(0%, 0%, 0%)" stroke-opacity="1" stroke-miterlimit="4" d="M 587.537435 698.47168 L 587.537435 664.570313 L 435.024414 664.570313 L 435.024414 698.47168 " transform="matrix(0.045283, 0, 0, 0.045283, 0, 0)"/>
<path fill="none" stroke-width="18.8241" stroke-linecap="butt" stroke-linejoin="miter" stroke="rgb(0%, 0%, 0%)" stroke-opacity="1" stroke-miterlimit="4" d="M 480.830078 328.575846 L 465.130208 663.793945 L 557.431641 663.793945 L 541.731771 328.575846 L 511.280924 294.41569 Z M 480.830078 328.575846 " transform="matrix(0.045283, 0, 0, 0.045283, 0, 0)"/>
</svg>
