<?xml version="1.0" encoding="UTF-8"?>
<svg xmlns="http://www.w3.org/2000/svg" xmlns:xlink="http://www.w3.org/1999/xlink" width="48" height="48" viewBox="0 0 48 48">
<path fill-rule="nonzero" fill="rgb(57.647059%, 0%, 57.647059%)" fill-opacity="1" d="M 19.660156 19.488281 L 22.171875 20.171875 L 23.566406 19.203125 L 24.050781 19.320312 L 22.671875 20.292969 L 30.285156 22.378906 L 29.726562 24.421875 L 22.085938 22.339844 C 19.125 21.460938 19.664062 19.484375 19.664062 19.484375 "/>
<path fill-rule="nonzero" fill="rgb(57.647059%, 0%, 57.647059%)" fill-opacity="1" d="M 26.261719 24.714844 C 26.253906 24.546875 26.222656 24.382812 26.167969 24.230469 L 29.613281 25.1875 L 29.5 25.613281 Z M 26.261719 24.714844 "/>
<path fill-rule="nonzero" fill="rgb(57.647059%, 0%, 57.647059%)" fill-opacity="1" d="M 23.136719 23.851562 C 23.230469 23.714844 23.339844 23.59375 23.464844 23.488281 L 17.714844 21.902344 L 17.714844 22.359375 Z M 23.136719 23.851562 "/>
<path fill-rule="nonzero" fill="rgb(57.647059%, 0%, 57.647059%)" fill-opacity="1" d="M 24.554688 25.363281 C 24.863281 25.363281 25.117188 25.113281 25.117188 24.804688 C 25.117188 24.496094 24.863281 24.242188 24.554688 24.242188 C 24.246094 24.242188 23.996094 24.496094 23.996094 24.804688 C 23.996094 25.113281 24.246094 25.363281 24.554688 25.363281 Z M 30.164062 28.796875 C 29.890625 28.796875 29.632812 28.734375 29.402344 28.628906 C 29.160156 28.519531 28.894531 28.453125 28.613281 28.453125 C 28.332031 28.453125 28.0625 28.519531 27.824219 28.628906 C 27.589844 28.734375 27.332031 28.796875 27.058594 28.796875 C 26.785156 28.796875 26.527344 28.734375 26.292969 28.628906 C 26.054688 28.519531 25.785156 28.453125 25.503906 28.453125 C 25.222656 28.453125 24.957031 28.519531 24.714844 28.628906 C 24.484375 28.734375 24.222656 28.796875 23.949219 28.796875 C 23.679688 28.796875 23.417969 28.734375 23.183594 28.628906 C 22.945312 28.519531 22.675781 28.453125 22.394531 28.453125 C 22.117188 28.453125 21.84375 28.519531 21.609375 28.628906 C 21.375 28.734375 21.113281 28.796875 20.839844 28.796875 C 20.570312 28.796875 20.308594 28.734375 20.074219 28.628906 C 19.835938 28.519531 19.566406 28.453125 19.289062 28.453125 C 19.007812 28.453125 18.738281 28.519531 18.5 28.628906 C 18.269531 28.734375 18.003906 28.796875 17.734375 28.796875 L 17.714844 24.234375 L 24 25.964844 C 23.566406 25.753906 23.269531 25.316406 23.269531 24.804688 C 23.269531 24.089844 23.847656 23.511719 24.558594 23.511719 C 25.269531 23.511719 25.847656 24.089844 25.847656 24.804688 C 25.847656 25.515625 25.269531 26.09375 24.558594 26.09375 C 24.515625 26.09375 24.472656 26.085938 24.433594 26.082031 L 30.160156 27.660156 Z M 30.164062 28.796875 "/>
</svg>
