<?xml version="1.0" encoding="UTF-8"?>
<svg xmlns="http://www.w3.org/2000/svg" xmlns:xlink="http://www.w3.org/1999/xlink" width="24" height="24" viewBox="0 0 24 24">
<path fill-rule="nonzero" fill="rgb(0%, 0%, 0%)" fill-opacity="1" d="M 12.050781 17.445312 C 12.804688 17.445312 13.421875 16.824219 13.421875 16.070312 C 13.421875 15.320312 12.804688 14.699219 12.050781 14.699219 C 11.296875 14.699219 10.679688 15.320312 10.679688 16.070312 C 10.679688 16.824219 11.296875 17.445312 12.050781 17.445312 Z M 12.050781 16.757812 C 11.667969 16.757812 11.367188 16.453125 11.367188 16.070312 C 11.367188 15.6875 11.667969 15.386719 12.050781 15.386719 C 12.433594 15.386719 12.738281 15.6875 12.738281 16.070312 C 12.738281 16.453125 12.433594 16.757812 12.050781 16.757812 Z M 12.050781 16.757812 "/>
<path fill-rule="nonzero" fill="rgb(0%, 0%, 0%)" fill-opacity="1" d="M 9.132812 10.644531 C 9.132812 10.644531 8.339844 11.582031 7.578125 11.839844 C 7.089844 11.140625 6.949219 10.257812 6.949219 9.847656 C 6.949219 9.847656 7.503906 10.101562 7.859375 10.679688 C 8.136719 10.488281 9.132812 10.644531 9.132812 10.644531 Z M 9.132812 10.644531 "/>
<path fill-rule="nonzero" fill="rgb(0%, 0%, 0%)" fill-opacity="1" d="M 14.929688 10.664062 C 14.929688 10.664062 15.734375 11.566406 16.5 11.820312 C 16.976562 11.320312 17.050781 9.894531 17.050781 9.894531 C 17.050781 9.894531 16.582031 10.175781 16.246094 10.679688 C 15.96875 10.488281 14.929688 10.664062 14.929688 10.664062 Z M 14.929688 10.664062 "/>
<path fill-rule="nonzero" fill="rgb(0%, 0%, 0%)" fill-opacity="1" d="M 8.433594 11.035156 C 8.847656 9.332031 10.667969 8.339844 11.492188 8.269531 L 11.492188 15.042969 L 12.613281 15.042969 L 12.613281 8.269531 C 13.4375 8.339844 15.382812 9.238281 15.667969 11.035156 L 16.898438 10.625 C 16.585938 9.117188 14.769531 7.636719 12.828125 7.363281 C 12.328125 7.230469 12.050781 6.554688 12.050781 6.554688 C 12.050781 6.554688 11.773438 7.230469 11.277344 7.363281 C 9.265625 7.625 7.515625 9.117188 7.203125 10.625 Z M 8.433594 11.035156 "/>
<path fill-rule="nonzero" fill="rgb(0%, 0%, 0%)" fill-opacity="1" d="M 13.457031 14.5625 L 10.648438 14.5625 L 10.648438 13.875 L 13.457031 13.875 Z M 13.457031 14.5625 "/>
</svg>
