<?xml version="1.0" encoding="UTF-8"?>
<svg xmlns="http://www.w3.org/2000/svg" xmlns:xlink="http://www.w3.org/1999/xlink" width="12" height="12" viewBox="0 0 12 12" version="1.1">
<defs>
<filter id="alpha" filterUnits="objectBoundingBox" x="0%" y="0%" width="100%" height="100%">
  <feColorMatrix type="matrix" in="SourceGraphic" values="0 0 0 0 1 0 0 0 0 1 0 0 0 0 1 0 0 0 1 0"/>
</filter>
<mask id="mask0">
  <g filter="url(#alpha)">
<rect x="0" y="0" width="12" height="12" style="fill:rgb(0%,0%,0%);fill-opacity:0.41791;stroke:none;"/>
  </g>
</mask>
<clipPath id="clip1">
  <rect x="0" y="0" width="12" height="12"/>
</clipPath>
<g id="surface5" clip-path="url(#clip1)">
<path style="fill:none;stroke-width:29.002001;stroke-linecap:butt;stroke-linejoin:miter;stroke:rgb(77.64706%,72.549021%,100%);stroke-opacity:1;stroke-miterlimit:4;" d="M 825.709635 530 C 825.709635 608.326823 794.654948 683.893229 739.101563 739.101563 C 683.893229 794.654948 608.326823 825.709635 530 825.709635 C 451.673177 825.709635 376.106771 794.654948 320.898438 739.101563 C 265.345052 683.893229 234.290365 608.326823 234.290365 530 C 234.290365 451.673177 265.345052 376.106771 320.898438 320.898438 C 376.106771 265.345052 451.673177 234.290365 530 234.290365 C 608.326823 234.290365 683.893229 265.345052 739.101563 320.898438 C 794.654948 376.106771 825.709635 451.673177 825.709635 530 Z M 825.709635 530 " transform="matrix(0.0113208,0,0,0.0113208,0,0)"/>
</g>
</defs>
<g id="surface1">
<use xlink:href="#surface5" mask="url(#mask0)"/>
</g>
</svg>
