<?xml version="1.0" encoding="UTF-8"?>
<svg xmlns="http://www.w3.org/2000/svg" xmlns:xlink="http://www.w3.org/1999/xlink" width="12" height="12" viewBox="0 0 12 12" version="1.1">
<defs>
<filter id="alpha" filterUnits="objectBoundingBox" x="0%" y="0%" width="100%" height="100%">
  <feColorMatrix type="matrix" in="SourceGraphic" values="0 0 0 0 1 0 0 0 0 1 0 0 0 0 1 0 0 0 1 0"/>
</filter>
<mask id="mask0">
  <g filter="url(#alpha)">
<rect x="0" y="0" width="12" height="12" style="fill:rgb(0%,0%,0%);fill-opacity:0.675958;stroke:none;"/>
  </g>
</mask>
<clipPath id="clip1">
  <rect x="0" y="0" width="12" height="12"/>
</clipPath>
<g id="surface5" clip-path="url(#clip1)">
<path style=" stroke:none;fill-rule:nonzero;fill:rgb(99.607843%,99.607843%,99.607843%);fill-opacity:1;" d="M 3.824219 2.910156 C 3.742188 2.914062 3.664062 2.9375 3.597656 2.984375 C 3.535156 3.035156 3.484375 3.101562 3.460938 3.179688 L 2.21875 7.113281 C 2.203125 7.171875 2.195312 7.230469 2.207031 7.289062 C 2.21875 7.347656 2.242188 7.40625 2.277344 7.453125 C 2.3125 7.5 2.355469 7.539062 2.410156 7.566406 C 2.464844 7.59375 2.523438 7.609375 2.582031 7.609375 L 3.324219 7.609375 L 3.558594 8.78125 C 3.574219 8.867188 3.621094 8.945312 3.691406 9 C 3.757812 9.058594 3.84375 9.085938 3.933594 9.089844 L 8.160156 9.089844 C 8.242188 9.085938 8.324219 9.058594 8.394531 9.007812 C 8.460938 8.957031 8.507812 8.882812 8.527344 8.800781 L 8.832031 7.609375 L 9.417969 7.609375 C 9.476562 7.609375 9.535156 7.59375 9.585938 7.570312 C 9.636719 7.542969 9.683594 7.507812 9.71875 7.460938 C 9.753906 7.414062 9.78125 7.359375 9.792969 7.304688 C 9.804688 7.246094 9.800781 7.1875 9.785156 7.128906 L 8.75 3.195312 C 8.730469 3.113281 8.683594 3.042969 8.613281 2.992188 C 8.546875 2.941406 8.464844 2.910156 8.382812 2.910156 L 6.726562 2.910156 C 6.714844 2.910156 6.703125 2.914062 6.691406 2.914062 C 6.03125 2.972656 5.6875 2.949219 5.441406 2.914062 C 5.421875 2.914062 5.40625 2.910156 5.386719 2.910156 Z M 3.824219 2.910156 "/>
</g>
</defs>
<g id="surface1">
<use xlink:href="#surface5" mask="url(#mask0)"/>
<path style=" stroke:none;fill-rule:nonzero;fill:rgb(0%,0%,0%);fill-opacity:1;" d="M 5.410156 3.386719 L 6.691406 3.386719 L 6.097656 5.554688 Z M 5.410156 3.386719 "/>
<path style=" stroke:none;fill-rule:nonzero;fill:rgb(0%,0%,0%);fill-opacity:1;" d="M 7.476562 4.964844 L 8.660156 6.738281 L 8.160156 8.707031 L 3.929688 8.707031 L 3.539062 6.738281 L 4.71875 5.160156 Z M 7.476562 4.964844 "/>
<path style=" stroke:none;fill-rule:nonzero;fill:rgb(0%,0%,0%);fill-opacity:1;" d="M 6.886719 7.132812 L 5.308594 7.132812 L 4.71875 5.359375 L 4.128906 7.132812 L 2.75 7.132812 L 3.929688 3.386719 L 5.417969 3.386719 L 6.097656 5.160156 L 6.691406 3.386719 L 8.265625 3.386719 L 9.25 7.132812 L 8.070312 7.132812 L 7.476562 5.359375 Z M 6.886719 7.132812 "/>
<path style=" stroke:none;fill-rule:nonzero;fill:rgb(0%,0%,0%);fill-opacity:1;" d="M 6.886719 7.226562 L 5.308594 7.226562 L 4.71875 5.453125 L 4.128906 7.226562 L 2.75 7.226562 L 3.929688 3.484375 L 5.417969 3.484375 L 6.097656 5.257812 L 6.691406 3.484375 L 8.265625 3.484375 L 9.25 7.226562 L 8.070312 7.226562 L 7.476562 5.453125 Z M 6.886719 7.226562 "/>
<path style=" stroke:none;fill-rule:nonzero;fill:rgb(0%,0%,0%);fill-opacity:1;" d="M 6.933594 7.226562 L 5.273438 7.226562 L 4.652344 5.363281 L 4.03125 7.226562 L 2.582031 7.226562 L 3.824219 3.292969 L 5.386719 3.292969 L 6.105469 5.15625 L 6.726562 3.292969 L 8.382812 3.292969 L 9.417969 7.226562 L 8.175781 7.226562 L 7.554688 5.363281 Z M 6.933594 7.226562 "/>
<path style=" stroke:none;fill-rule:nonzero;fill:rgb(100%,88.627452%,0%);fill-opacity:1;" d="M 6.886719 7.132812 L 5.308594 7.132812 L 4.71875 5.359375 L 4.128906 7.132812 L 2.75 7.132812 L 3.929688 3.386719 L 5.417969 3.386719 L 6.097656 5.160156 L 6.691406 3.386719 L 8.265625 3.386719 L 9.25 7.132812 L 8.070312 7.132812 L 7.476562 5.359375 Z M 6.886719 7.132812 "/>
</g>
</svg>
