<svg width="32" height="32" viewBox="0 0 580 580" fill="none" xmlns="http://www.w3.org/2000/svg">
<path opacity="0.830435" d="M505.668 144.264C485.357 160.392 475.873 166.443 455.434 181.945C475.291 205.465 489.247 234.52 494.572 267.161C497.73 286.515 497.608 305.632 494.625 323.956C518.875 326.793 532.409 328.614 556.677 331.262C566.37 329.865 568.791 316.036 558.852 311.402L517.869 306.897C518.683 292.743 517.983 278.292 515.607 263.729C515.005 260.043 514.303 256.402 513.507 252.8L554.246 242.235C561.864 238.122 557.886 222.4 548.912 222.936L508.209 233.526C502.414 215.983 494.275 199.652 484.214 184.848L517.707 160.221C523.884 151.869 515.002 140.652 505.667 144.264H505.668Z" fill="black"/>
</svg>
