<svg width="48" height="18" viewBox="0 0 48 18" fill="none" xmlns="http://www.w3.org/2000/svg">
<path d="M40 9C40 9.78793 39.5861 10.5681 38.7821 11.2961C37.978 12.0241 36.7994 12.6855 35.3137 13.2426C33.828 13.7998 32.0641 14.2417 30.1229 14.5433C28.1817 14.8448 26.1011 15 24 15C21.8988 15 19.8183 14.8448 17.8771 14.5433C15.9359 14.2417 14.172 13.7998 12.6863 13.2426C11.2006 12.6855 10.022 12.0241 9.21793 11.2961C8.41385 10.5681 8 9.78793 8 9C8 8.21207 8.41385 7.43185 9.21793 6.7039C10.022 5.97595 11.2006 5.31451 12.6863 4.75736C14.172 4.20021 15.9359 3.75825 17.8771 3.45672C19.8183 3.15519 21.8988 3 24 3C26.1011 3 28.1817 3.15519 30.1229 3.45672C32.0641 3.75825 33.828 4.20021 35.3137 4.75736C36.7994 5.31451 37.978 5.97595 38.7821 6.7039C39.5861 7.43185 40 8.21207 40 9V9Z" fill="#007C7C"/>
</svg>
