<?xml version="1.0" encoding="UTF-8"?>
<svg xmlns="http://www.w3.org/2000/svg" xmlns:xlink="http://www.w3.org/1999/xlink" width="12" height="12" viewBox="0 0 12 12" version="1.1">
<defs>
<filter id="alpha" filterUnits="objectBoundingBox" x="0%" y="0%" width="100%" height="100%">
  <feColorMatrix type="matrix" in="SourceGraphic" values="0 0 0 0 1 0 0 0 0 1 0 0 0 0 1 0 0 0 1 0"/>
</filter>
<mask id="mask0">
  <g filter="url(#alpha)">
<rect x="0" y="0" width="12" height="12" style="fill:rgb(0%,0%,0%);fill-opacity:0.61;stroke:none;"/>
  </g>
</mask>
<clipPath id="clip1">
  <rect x="0" y="0" width="12" height="12"/>
</clipPath>
<g id="surface5" clip-path="url(#clip1)">
<path style=" stroke:none;fill-rule:nonzero;fill:rgb(21.568628%,21.568628%,21.568628%);fill-opacity:1;" d="M 12 7.875 L 7.125 7.875 L 7.125 12 L 12 12 Z M 12 7.875 "/>
</g>
</defs>
<g id="surface1">
<use xlink:href="#surface5" mask="url(#mask0)"/>
<path style=" stroke:none;fill-rule:nonzero;fill:rgb(99.607843%,99.607843%,99.607843%);fill-opacity:1;" d="M 11.625 8.25 L 7.5 8.25 L 7.5 11.625 L 11.625 11.625 Z M 11.625 8.25 "/>
<path style="fill:none;stroke-width:10;stroke-linecap:butt;stroke-linejoin:miter;stroke:rgb(0%,12.54902%,100%);stroke-opacity:1;stroke-miterlimit:4;" d="M 214.791667 302.916667 C 214.791667 302.916667 240.520833 294.791667 237.5 280 C 234.375 265.208333 225.416667 270 228.4375 246.5625 " transform="matrix(0.0375,0,0,0.0375,0,0)"/>
<path style=" stroke:none;fill-rule:nonzero;fill:rgb(0%,0%,0%);fill-opacity:1;" d="M 11.363281 9.929688 L 9.488281 11.25 L 9.878906 9.9375 L 9.488281 8.625 Z M 11.363281 9.929688 "/>
<path style=" stroke:none;fill-rule:nonzero;fill:rgb(0%,12.54902%,100%);fill-opacity:1;" d="M 8.5625 8.441406 L 9.472656 9.558594 L 7.660156 9.558594 Z M 8.5625 8.441406 "/>
</g>
</svg>
