<?xml version="1.0" encoding="UTF-8"?>
<svg xmlns="http://www.w3.org/2000/svg" xmlns:xlink="http://www.w3.org/1999/xlink" width="24" height="24" viewBox="0 0 24 24">
<path fill-rule="nonzero" fill="rgb(99.607843%, 99.607843%, 99.607843%)" fill-opacity="1" d="M 6.097656 4.386719 C 4.9375 4.386719 3.960938 5.355469 3.960938 6.519531 L 3.960938 17.480469 C 3.960938 18.644531 4.9375 19.613281 6.097656 19.613281 L 17.902344 19.613281 C 19.0625 19.613281 20.039062 18.644531 20.039062 17.480469 L 20.039062 6.519531 C 20.039062 5.355469 19.0625 4.386719 17.902344 4.386719 Z M 6.097656 4.386719 "/>
<path fill-rule="nonzero" fill="rgb(0%, 58.431373%, 82.745098%)" fill-opacity="1" d="M 17.90625 5.542969 L 6.09375 5.542969 C 5.554688 5.542969 5.117188 5.980469 5.117188 6.519531 L 5.117188 17.480469 C 5.117188 18.019531 5.554688 18.457031 6.09375 18.457031 L 17.90625 18.457031 C 18.445312 18.457031 18.882812 18.019531 18.882812 17.480469 L 18.882812 6.519531 C 18.882812 5.980469 18.445312 5.542969 17.90625 5.542969 Z M 17.90625 5.542969 "/>
<path fill-rule="nonzero" fill="rgb(99.607843%, 99.607843%, 100%)" fill-opacity="0.941176" d="M 7.890625 16.417969 C 8.210938 16.40625 8.261719 16.382812 8.324219 16.101562 C 8.378906 15.878906 8.34375 15.808594 8.03125 15.808594 L 7.476562 15.808594 L 7.335938 16.417969 Z M 6.28125 17.476562 L 6.789062 15.304688 L 8.308594 15.304688 C 9.058594 15.304688 9.289062 15.535156 9.15625 16.101562 C 9.015625 16.710938 8.777344 16.921875 7.933594 16.921875 L 7.21875 16.921875 L 7.089844 17.476562 Z M 6.28125 17.476562 "/>
<path fill-rule="nonzero" fill="rgb(99.607843%, 99.607843%, 100%)" fill-opacity="0.941176" d="M 10.816406 15.738281 L 10.808594 15.738281 L 10.21875 16.679688 L 10.96875 16.679688 Z M 9.949219 17.101562 L 9.710938 17.476562 L 8.871094 17.476562 L 10.285156 15.304688 L 11.511719 15.304688 L 11.925781 17.476562 L 11.101562 17.476562 L 11.03125 17.101562 Z M 9.949219 17.101562 "/>
<path fill-rule="nonzero" fill="rgb(99.607843%, 99.607843%, 100%)" fill-opacity="0.941176" d="M 13.46875 17.476562 L 12.660156 17.476562 L 13.050781 15.808594 L 12.273438 15.808594 L 12.394531 15.304688 L 14.789062 15.304688 L 14.671875 15.808594 L 13.855469 15.808594 Z M 13.46875 17.476562 "/>
<path fill-rule="nonzero" fill="rgb(99.607843%, 99.607843%, 100%)" fill-opacity="0.941176" d="M 17.210938 17.476562 L 16.40625 17.476562 L 16.601562 16.625 L 15.550781 16.625 L 15.351562 17.476562 L 14.542969 17.476562 L 15.050781 15.304688 L 15.859375 15.304688 L 15.667969 16.121094 L 16.722656 16.121094 L 16.910156 15.304688 L 17.71875 15.304688 Z M 17.210938 17.476562 "/>
<path fill-rule="nonzero" fill="rgb(99.607843%, 99.607843%, 100%)" fill-opacity="0.941176" d="M 14.546875 6.609375 C 14.546875 6.609375 14.4375 7.078125 14.414062 7.179688 C 14.289062 7.179688 8.820312 7.179688 8.820312 7.179688 C 7.386719 7.179688 7.15625 8.277344 7.152344 8.285156 C 7.152344 8.285156 6.4375 11.1875 6.4375 11.1875 L 6.40625 11.316406 L 9.839844 10.472656 L 9.851562 10.425781 C 9.855469 10.40625 10.257812 8.472656 10.378906 8.097656 C 10.449219 7.882812 10.621094 7.875 10.792969 7.882812 L 10.839844 7.882812 C 10.839844 7.882812 14.054688 7.882812 14.246094 7.882812 C 14.214844 8.027344 14.085938 8.574219 14.085938 8.574219 L 17.738281 7.578125 L 14.566406 6.523438 Z M 14.546875 6.609375 "/>
<path fill-rule="nonzero" fill="rgb(99.607843%, 99.607843%, 100%)" fill-opacity="0.941176" d="M 17.378906 7.910156 L 14.019531 8.871094 L 14.007812 8.917969 C 14.003906 8.9375 13.566406 10.839844 13.488281 11.214844 C 13.445312 11.425781 13.3125 11.4375 13.117188 11.429688 L 13.027344 11.429688 C 12.964844 11.433594 10.808594 11.429688 9.589844 11.429688 C 9.625 11.285156 9.765625 10.738281 9.765625 10.738281 L 6.261719 11.605469 L 8.789062 14.765625 C 8.789062 14.765625 9.378906 12.242188 9.410156 12.121094 C 9.535156 12.121094 15.050781 12.121094 15.050781 12.121094 C 16.550781 12.121094 16.746094 11.105469 16.757812 11.015625 C 16.761719 11.011719 17.511719 7.871094 17.511719 7.871094 L 17.378906 7.910156 "/>
</svg>
