<svg width="32" height="32" viewBox="0 0 16 16" fill="none" xmlns="http://www.w3.org/2000/svg">
<path d="M7.6891 3.43199C6.58297 3.50383 5.52348 3.99045 4.74636 4.77954L4.74525 4.78065L4.74414 4.78176C3.91805 5.61071 3.43634 6.75368 3.42224 7.92529C3.40166 8.93915 3.72814 9.94747 4.34143 10.7554C4.96957 11.5913 5.88302 12.197 6.90155 12.4443C7.90655 12.694 8.98833 12.5953 9.92906 12.1542C10.9669 11.6767 11.8011 10.8057 12.2337 9.74805V9.74691C12.6392 8.77356 12.6891 7.67123 12.3821 6.66588C12.0539 5.57299 11.3054 4.63156 10.3251 4.05556H10.3274C9.53579 3.58573 8.60725 3.36928 7.69133 3.43199H7.6891Z" fill="#FEFEFE"/>
<path d="M7.72987 4.02063C8.52679 3.96567 9.33909 4.15583 10.0261 4.56363C10.8779 5.06413 11.5342 5.89035 11.8181 6.83785C12.0849 7.71134 12.0413 8.67789 11.6895 9.5217C11.3147 10.4395 10.5819 11.2035 9.6813 11.6179C8.8657 12.0011 7.91747 12.0898 7.04325 11.8725C6.1595 11.6585 5.35966 11.1265 4.81373 10.4C4.28099 9.69867 3.993 8.81529 4.01132 7.93484C4.02305 6.91809 4.44623 5.9149 5.164 5.19567C5.8389 4.50941 6.76918 4.08255 7.72987 4.02063ZM6.87251 4.9271C6.12213 5.19823 5.48533 5.75992 5.10941 6.4623C7.03665 6.46156 8.96353 6.46156 10.8908 6.4623C10.5258 5.77017 9.90187 5.22021 9.17054 4.94212C8.43995 4.66073 7.6064 4.65487 6.87251 4.9271ZM4.85513 7.09286C4.69318 7.6377 4.68293 8.2243 4.81886 8.77572C5.40216 8.76986 5.98693 8.78671 6.5695 8.76766C7.16819 8.21514 7.76248 7.65601 8.35238 7.0936C7.18688 7.09543 6.021 7.09689 4.85513 7.09286V7.09286ZM9.15882 7.1383C8.58138 7.68643 7.99734 8.22833 7.4188 8.77535C8.67591 8.77389 9.93301 8.77939 11.1905 8.77279C11.3121 8.22063 11.3059 7.64173 11.152 7.09653C10.5442 7.09213 9.93668 7.09763 9.32883 7.09396C9.2702 7.09726 9.19912 7.08407 9.15882 7.1383V7.1383ZM5.04126 9.40702C5.45932 10.2838 6.27931 10.958 7.22645 11.1822C7.86398 11.3361 8.5484 11.2965 9.16175 11.062C9.94254 10.7685 10.6006 10.1625 10.9567 9.40775C8.98478 9.40775 7.01284 9.40922 5.04126 9.40702V9.40702Z" fill="#C0282C"/>
</svg>
