<?xml version="1.0" encoding="UTF-8"?>
<svg xmlns="http://www.w3.org/2000/svg" xmlns:xlink="http://www.w3.org/1999/xlink" width="12" height="12" viewBox="0 0 12 12" version="1.1">
<defs>
<filter id="alpha" filterUnits="objectBoundingBox" x="0%" y="0%" width="100%" height="100%">
  <feColorMatrix type="matrix" in="SourceGraphic" values="0 0 0 0 1 0 0 0 0 1 0 0 0 0 1 0 0 0 1 0"/>
</filter>
<mask id="mask0">
  <g filter="url(#alpha)">
<rect x="0" y="0" width="12" height="12" style="fill:rgb(0%,0%,0%);fill-opacity:0.189873;stroke:none;"/>
  </g>
</mask>
<clipPath id="clip1">
  <rect x="0" y="0" width="12" height="12"/>
</clipPath>
<g id="surface5" clip-path="url(#clip1)">
<path style=" stroke:none;fill-rule:nonzero;fill:rgb(67.450982%,84.705883%,95.294118%);fill-opacity:1;" d="M 6 2.183594 C 3.902344 2.183594 2.183594 3.90625 2.183594 6 C 2.183594 8.09375 3.90625 9.816406 6 9.816406 C 8.09375 9.816406 9.816406 8.09375 9.816406 6 C 9.816406 3.90625 8.097656 2.183594 6 2.183594 Z M 6 4.894531 C 6.632812 4.894531 7.105469 5.367188 7.105469 6 C 7.105469 6.632812 6.632812 7.105469 6 7.105469 C 5.367188 7.105469 4.894531 6.632812 4.894531 6 C 4.894531 5.367188 5.367188 4.894531 6 4.894531 Z M 6 4.894531 "/>
</g>
</defs>
<g id="surface1">
<use xlink:href="#surface5" mask="url(#mask0)"/>
<path style="fill:none;stroke-width:47.400002;stroke-linecap:round;stroke-linejoin:round;stroke:rgb(47.058824%,19.215687%,49.019608%);stroke-opacity:1;stroke-miterlimit:4;" d="M 408.945312 290 C 408.945312 305.670573 405.924479 321.152344 399.882812 335.501302 C 393.841146 350.039062 385.15625 363.066406 374.016927 374.016927 C 363.066406 385.15625 350.039062 393.841146 335.501302 399.882812 C 321.152344 405.924479 305.670573 408.945312 290 408.945312 C 274.329427 408.945312 258.847656 405.924479 244.498698 399.882812 C 229.960938 393.841146 216.933594 385.15625 205.983073 374.016927 C 194.84375 363.066406 186.158854 350.039062 180.117188 335.501302 C 174.075521 321.152344 171.054688 305.670573 171.054688 290 C 171.054688 274.329427 174.075521 258.847656 180.117188 244.498698 C 186.158854 229.960938 194.84375 216.933594 205.983073 205.983073 C 216.933594 194.84375 229.960938 186.158854 244.498698 180.117188 C 258.847656 174.075521 274.329427 171.054688 290 171.054688 C 305.670573 171.054688 321.152344 174.075521 335.501302 180.117188 C 350.039062 186.158854 363.066406 194.84375 374.016927 205.983073 C 385.15625 216.933594 393.841146 229.960938 399.882812 244.498698 C 405.924479 258.847656 408.945312 274.329427 408.945312 290 Z M 408.945312 290 " transform="matrix(0.0206897,0,0,0.0206897,0,0)"/>
</g>
</svg>
