<?xml version="1.0" encoding="UTF-8"?>
<svg xmlns="http://www.w3.org/2000/svg" xmlns:xlink="http://www.w3.org/1999/xlink" width="24" height="24" viewBox="0 0 24 24">
<path fill-rule="nonzero" fill="rgb(0%, 0%, 0%)" fill-opacity="1" d="M 17.457031 5.070312 L 6.589844 5.070312 C 5.777344 5.070312 5.121094 5.730469 5.121094 6.542969 L 5.121094 17.410156 C 5.121094 18.21875 5.777344 18.878906 6.589844 18.878906 L 17.457031 18.878906 C 18.269531 18.878906 18.925781 18.21875 18.925781 17.410156 L 18.925781 6.542969 C 18.925781 5.730469 18.269531 5.070312 17.457031 5.070312 Z M 17.457031 5.070312 "/>
<path fill-rule="nonzero" fill="rgb(87.058824%, 92.54902%, 96.470588%)" fill-opacity="1" d="M 16.976562 5.6875 L 7.074219 5.6875 C 6.335938 5.6875 5.734375 6.285156 5.734375 7.023438 L 5.734375 16.925781 C 5.734375 17.664062 6.335938 18.265625 7.074219 18.265625 L 16.976562 18.265625 C 17.714844 18.265625 18.3125 17.664062 18.3125 16.925781 L 18.3125 7.023438 C 18.3125 6.285156 17.714844 5.6875 16.976562 5.6875 Z M 16.976562 5.6875 "/>
<path fill-rule="evenodd" fill="rgb(1.176471%, 53.333333%, 89.803922%)" fill-opacity="1" d="M 5.726562 15.824219 L 8.691406 15.785156 C 9.789062 15.761719 13.851562 12.207031 15.46875 12.136719 C 17.128906 12.0625 17.769531 12.65625 17.769531 12.65625 C 15.972656 12.832031 15.792969 13.761719 15.636719 14.3125 C 15.476562 14.863281 15.757812 16.296875 17.613281 16.957031 L 18.292969 17.160156 C 18.160156 17.84375 17.652344 18.199219 17.089844 18.273438 L 6.933594 18.277344 C 6.242188 18.160156 5.882812 17.75 5.734375 17.1875 Z M 5.726562 15.824219 "/>
<path fill-rule="nonzero" fill="rgb(99.215686%, 34.117647%, 3.137255%)" fill-opacity="1" d="M 9.210938 14.59375 L 12.417969 11.445312 L 10.507812 11.445312 L 10.507812 6.675781 L 7.917969 6.675781 L 7.917969 11.445312 L 6.003906 11.445312 Z M 9.210938 14.59375 "/>
</svg>
