<?xml version="1.0" encoding="UTF-8"?>
<svg xmlns="http://www.w3.org/2000/svg" xmlns:xlink="http://www.w3.org/1999/xlink" width="12" height="12" viewBox="0 0 12 12" version="1.1">
<g id="surface1">
<path style=" stroke:none;fill-rule:evenodd;fill:rgb(99.607843%,99.607843%,99.607843%);fill-opacity:1;" d="M 8.980469 4.867188 L 8.265625 6.148438 L 11.996094 6.148438 L 10.859375 7.636719 L 7.4375 7.632812 C 7.4375 7.632812 7.121094 8.25 6.042969 8.257812 C 4.964844 8.25 4.566406 7.632812 4.566406 7.632812 L 1.140625 7.636719 L 0.00390625 6.144531 L 3.734375 6.144531 L 3.023438 4.867188 L 3.707031 4.867188 L 3.277344 3.742188 L 8.71875 3.742188 L 8.285156 4.867188 Z M 8.980469 4.867188 "/>
<path style="fill:none;stroke-width:0.0909474;stroke-linecap:butt;stroke-linejoin:miter;stroke:rgb(100%,0%,0%);stroke-opacity:1;stroke-miterlimit:2.613;" d="M 11.973958 6.489583 L 11.020833 8.197917 L 14.713542 8.197917 L 13.442708 10.182292 L 9.916667 10.177083 C 9.916667 10.177083 9.494792 11 8.057292 11.010417 C 6.619792 11 6.088542 10.177083 6.088542 10.177083 L 2.557292 10.182292 L 1.286458 8.192708 L 4.979167 8.192708 L 4.03125 6.489583 L 4.942708 6.489583 L 4.369792 4.989583 L 11.625 4.989583 L 11.046875 6.489583 Z M 11.973958 6.489583 " transform="matrix(0.75,0,0,0.75,0,0)"/>
<path style=" stroke:none;fill-rule:evenodd;fill:rgb(100%,0%,0%);fill-opacity:1;" d="M 6.046875 8.023438 C 6.5625 8.03125 6.910156 7.769531 7.175781 7.125 L 8.390625 3.964844 L 3.609375 3.960938 L 4.832031 7.125 C 5.09375 7.769531 5.527344 8.03125 6.042969 8.023438 Z M 6.046875 8.023438 "/>
<path style=" stroke:none;fill-rule:evenodd;fill:rgb(100%,0%,0%);fill-opacity:1;" d="M 3.886719 6.363281 L 4.460938 7.390625 L 2.050781 7.390625 L 1.394531 6.363281 Z M 3.886719 6.363281 "/>
<path style=" stroke:none;fill-rule:evenodd;fill:rgb(100%,0%,0%);fill-opacity:1;" d="M 8.113281 6.363281 L 7.542969 7.390625 L 9.949219 7.390625 L 10.605469 6.363281 Z M 8.113281 6.363281 "/>
<path style=" stroke:none;fill-rule:evenodd;fill:rgb(99.607843%,99.607843%,99.607843%);fill-opacity:1;" d="M 5.953125 5.683594 C 5.953125 5.683594 6.78125 5.617188 7.078125 6.023438 L 7.191406 5.960938 L 6.894531 5.632812 C 6.894531 5.632812 6.855469 5.683594 6.789062 5.683594 C 6.71875 5.683594 6.636719 5.652344 6.636719 5.652344 C 6.40625 5.574219 6.1875 5.523438 5.917969 5.523438 C 5.230469 5.523438 4.714844 5.832031 4.734375 6.234375 C 4.757812 6.699219 5.296875 6.882812 5.554688 6.933594 C 5.804688 6.976562 6.542969 7.15625 7.179688 6.535156 L 7.085938 6.445312 C 6.324219 7.144531 5.460938 6.621094 5.460938 6.621094 C 5.296875 6.527344 5.183594 6.375 5.183594 6.21875 C 5.183594 5.941406 5.53125 5.691406 5.953125 5.683594 Z M 5.953125 5.683594 "/>
<path style="fill-rule:evenodd;fill:rgb(99.607843%,99.607843%,99.607843%);fill-opacity:1;stroke-width:0.0454737;stroke-linecap:butt;stroke-linejoin:miter;stroke:rgb(100%,0%,0%);stroke-opacity:1;stroke-miterlimit:2.613;" d="M 9.359375 6.859375 L 9.692708 7.302083 L 9.572917 7.416667 C 9.572917 7.416667 9.369792 7.130208 9.083333 7.130208 L 8.463542 7.130208 L 8.463542 8.927083 C 8.463542 9.40625 8.90625 9.348958 8.90625 9.348958 L 8.90625 9.546875 L 7.489583 9.546875 L 7.489583 9.348958 C 7.489583 9.348958 7.921875 9.40625 7.921875 8.927083 L 7.921875 7.130208 L 7.307292 7.130208 C 7.020833 7.130208 6.817708 7.411458 6.817708 7.411458 L 6.703125 7.296875 L 7.03125 6.859375 Z M 9.359375 6.859375 " transform="matrix(0.75,0,0,0.75,0,0)"/>
<path style=" stroke:none;fill-rule:evenodd;fill:rgb(99.607843%,99.607843%,99.607843%);fill-opacity:1;" d="M 6.472656 4.628906 L 6.726562 4.960938 L 6.636719 5.046875 C 6.636719 5.046875 6.484375 4.835938 6.265625 4.835938 L 5.800781 4.835938 L 5.800781 6.179688 C 5.800781 6.542969 6.132812 6.496094 6.132812 6.496094 L 6.132812 6.644531 L 5.070312 6.644531 L 5.070312 6.496094 C 5.070312 6.496094 5.398438 6.542969 5.398438 6.179688 L 5.398438 4.835938 L 4.9375 4.835938 C 4.71875 4.835938 4.570312 5.042969 4.570312 5.042969 L 4.480469 4.957031 L 4.730469 4.628906 Z M 6.472656 4.628906 "/>
</g>
</svg>
