<?xml version="1.0" encoding="UTF-8"?>
<svg xmlns="http://www.w3.org/2000/svg" xmlns:xlink="http://www.w3.org/1999/xlink" width="12" height="12" viewBox="0 0 12 12" version="1.1">
<defs>
<filter id="alpha" filterUnits="objectBoundingBox" x="0%" y="0%" width="100%" height="100%">
  <feColorMatrix type="matrix" in="SourceGraphic" values="0 0 0 0 1 0 0 0 0 1 0 0 0 0 1 0 0 0 1 0"/>
</filter>
<mask id="mask0">
  <g filter="url(#alpha)">
<rect x="0" y="0" width="12" height="12" style="fill:rgb(0%,0%,0%);fill-opacity:0.426087;stroke:none;"/>
  </g>
</mask>
<clipPath id="clip1">
  <rect x="0" y="0" width="12" height="12"/>
</clipPath>
<g id="surface5" clip-path="url(#clip1)">
<path style=" stroke:none;fill-rule:nonzero;fill:rgb(55.29412%,55.29412%,55.29412%);fill-opacity:1;" d="M 6.53125 3.785156 C 6.449219 3.78125 6.363281 3.804688 6.292969 3.851562 C 6.222656 3.894531 6.167969 3.964844 6.136719 4.042969 L 5.253906 6.234375 C 5.253906 6.238281 5.253906 6.238281 5.253906 6.238281 L 4.882812 7.179688 L 4.582031 7.9375 L 4.507812 8.03125 L 4.507812 8.035156 L 4.449219 8.109375 L 4.160156 8.484375 C 4.152344 8.492188 4.144531 8.503906 4.140625 8.515625 C 4.140625 8.515625 4.136719 8.515625 4.136719 8.515625 L 2.988281 10.015625 L 2.066406 10.015625 C 2.011719 10.015625 1.960938 10.027344 1.910156 10.046875 C 1.859375 10.066406 1.8125 10.097656 1.777344 10.136719 C 1.738281 10.175781 1.707031 10.21875 1.6875 10.269531 C 1.664062 10.320312 1.65625 10.375 1.65625 10.425781 L 1.65625 10.945312 C 1.65625 11 1.664062 11.050781 1.6875 11.101562 C 1.707031 11.152344 1.738281 11.199219 1.777344 11.234375 C 1.8125 11.273438 1.859375 11.304688 1.910156 11.324219 C 1.960938 11.347656 2.011719 11.355469 2.066406 11.355469 L 4.726562 11.355469 C 4.773438 11.433594 4.824219 11.503906 4.882812 11.570312 C 4.898438 11.585938 4.914062 11.601562 4.925781 11.617188 C 5.164062 11.851562 5.496094 12.003906 5.859375 12.003906 C 6.128906 12.003906 6.386719 11.917969 6.597656 11.777344 C 6.664062 11.730469 6.730469 11.675781 6.792969 11.617188 C 6.804688 11.601562 6.820312 11.585938 6.835938 11.570312 C 6.851562 11.554688 6.863281 11.535156 6.875 11.523438 C 6.886719 11.507812 6.902344 11.492188 6.914062 11.472656 C 6.941406 11.433594 6.964844 11.394531 6.988281 11.355469 L 9.417969 11.355469 C 9.472656 11.355469 9.527344 11.347656 9.578125 11.324219 C 9.628906 11.304688 9.671875 11.273438 9.710938 11.234375 C 9.75 11.199219 9.78125 11.152344 9.800781 11.101562 C 9.820312 11.050781 9.832031 11 9.832031 10.945312 L 9.832031 10.425781 C 9.832031 10.375 9.820312 10.320312 9.800781 10.269531 C 9.78125 10.21875 9.75 10.175781 9.710938 10.136719 C 9.671875 10.097656 9.628906 10.066406 9.578125 10.046875 C 9.527344 10.027344 9.472656 10.015625 9.417969 10.015625 L 8.320312 10.015625 L 8.132812 9.132812 L 8.046875 8.710938 L 8.167969 6.742188 L 8.292969 4.539062 C 8.292969 4.53125 8.292969 4.523438 8.292969 4.515625 C 8.292969 4.503906 8.292969 4.492188 8.292969 4.484375 C 8.292969 4.480469 8.292969 4.476562 8.292969 4.476562 C 8.292969 4.472656 8.289062 4.472656 8.289062 4.46875 C 8.289062 4.457031 8.289062 4.445312 8.285156 4.433594 C 8.28125 4.421875 8.277344 4.40625 8.273438 4.394531 C 8.269531 4.382812 8.265625 4.371094 8.261719 4.355469 C 8.253906 4.34375 8.25 4.332031 8.242188 4.320312 C 8.242188 4.320312 8.242188 4.320312 8.242188 4.316406 C 8.238281 4.308594 8.234375 4.300781 8.226562 4.292969 C 8.222656 4.289062 8.21875 4.28125 8.214844 4.273438 C 8.210938 4.273438 8.210938 4.269531 8.210938 4.269531 C 8.210938 4.269531 8.207031 4.265625 8.207031 4.265625 C 8.199219 4.257812 8.195312 4.25 8.1875 4.242188 C 8.1875 4.242188 8.183594 4.238281 8.183594 4.238281 C 8.183594 4.238281 8.183594 4.238281 8.183594 4.234375 C 8.175781 4.226562 8.167969 4.21875 8.15625 4.210938 C 8.152344 4.207031 8.152344 4.207031 8.152344 4.207031 C 8.144531 4.199219 8.132812 4.191406 8.125 4.1875 C 8.125 4.183594 8.125 4.183594 8.125 4.183594 C 8.121094 4.183594 8.121094 4.183594 8.121094 4.183594 C 8.109375 4.175781 8.101562 4.167969 8.089844 4.160156 C 8.078125 4.15625 8.066406 4.148438 8.054688 4.144531 C 8.054688 4.144531 8.054688 4.144531 8.054688 4.140625 C 8.050781 4.140625 8.050781 4.140625 8.050781 4.140625 C 8.039062 4.136719 8.027344 4.132812 8.015625 4.128906 C 8 4.121094 7.988281 4.117188 7.972656 4.117188 L 7.917969 4.101562 L 7.914062 4.101562 L 6.613281 3.792969 C 6.585938 3.789062 6.558594 3.785156 6.53125 3.785156 Z M 7.082031 11.003906 C 7.082031 11.003906 7.09375 11.019531 7.097656 11.058594 L 7.09375 11.054688 C 7.089844 11.023438 7.082031 11.003906 7.082031 11.003906 Z M 7.082031 11.003906 "/>
</g>
<mask id="mask1">
  <g filter="url(#alpha)">
<rect x="0" y="0" width="12" height="12" style="fill:rgb(0%,0%,0%);fill-opacity:0.426087;stroke:none;"/>
  </g>
</mask>
<clipPath id="clip2">
  <rect x="0" y="0" width="12" height="12"/>
</clipPath>
<g id="surface8" clip-path="url(#clip2)">
<path style=" stroke:none;fill-rule:nonzero;fill:rgb(0%,0%,0%);fill-opacity:1;" d="M 7.582031 4.449219 L 7.882812 4.519531 L 7.632812 8.746094 L 7.988281 10.441406 L 6.914062 10.441406 L 6.757812 8.539062 Z M 7.582031 4.449219 "/>
</g>
</defs>
<g id="surface1">
<use xlink:href="#surface5" mask="url(#mask0)"/>
<path style=" stroke:none;fill-rule:nonzero;fill:rgb(0%,0%,0%);fill-opacity:1;" d="M 4.777344 8.363281 L 2.960938 10.730469 L 4.953125 10.738281 C 4.980469 11.214844 5.378906 11.59375 5.859375 11.59375 C 6.335938 11.59375 6.734375 11.21875 6.765625 10.746094 L 8.054688 10.753906 L 7.683594 8.996094 Z M 4.777344 8.363281 "/>
<path style=" stroke:none;fill-rule:nonzero;fill:rgb(100%,83.137256%,0%);fill-opacity:1;" d="M 6.519531 4.195312 L 5.636719 6.390625 L 4.945312 8.144531 L 4.773438 8.363281 L 7.683594 8.996094 L 7.632812 8.746094 L 7.757812 6.71875 L 7.882812 4.519531 "/>
<path style=" stroke:none;fill-rule:nonzero;fill:rgb(0%,0%,0%);fill-opacity:1;" d="M 5.265625 7.332031 L 4.945312 8.144531 L 4.488281 8.734375 L 7.777344 9.449219 L 7.632812 8.738281 L 7.691406 7.808594 "/>
<path style="fill:none;stroke-width:25;stroke-linecap:butt;stroke-linejoin:miter;stroke:rgb(0%,0%,0%);stroke-opacity:1;stroke-miterlimit:4;" d="M 99.876302 516.5625 L 455.390625 516.5625 " transform="matrix(0.0206897,0,0,0.0206897,0,0)"/>
<path style="fill-rule:nonzero;fill:rgb(99.607843%,99.607843%,99.607843%);fill-opacity:1;stroke-width:20.5723;stroke-linecap:round;stroke-linejoin:round;stroke:rgb(0%,0%,0%);stroke-opacity:1;stroke-miterlimit:10;" d="M 316.809896 516.373698 C 316.809896 525.247396 313.222656 533.932292 306.992188 540.16276 C 300.572917 546.393229 292.076823 549.980469 283.203125 549.980469 C 274.329427 549.980469 265.644531 546.393229 259.414062 540.16276 C 253.183594 533.932292 249.596354 525.247396 249.596354 516.373698 C 249.596354 507.5 253.183594 499.003906 259.414062 492.584635 C 265.644531 486.354167 274.329427 482.766927 283.203125 482.766927 C 292.076823 482.766927 300.572917 486.354167 306.992188 492.584635 C 313.222656 499.003906 316.809896 507.5 316.809896 516.373698 Z M 316.809896 516.373698 " transform="matrix(0.0206897,0,0,0.0206897,0,0)"/>
<use xlink:href="#surface8" mask="url(#mask1)"/>
</g>
</svg>
