<?xml version="1.0" encoding="UTF-8"?>
<svg xmlns="http://www.w3.org/2000/svg" xmlns:xlink="http://www.w3.org/1999/xlink" width="12" height="12" viewBox="0 0 12 12" version="1.1">
<g id="surface1">
<path style=" stroke:none;fill-rule:nonzero;fill:rgb(57.647061%,0%,57.647061%);fill-opacity:1;" d="M 5.515625 6.332031 C 5.75 6.222656 5.921875 5.90625 5.921875 5.535156 C 5.921875 5.074219 5.535156 4.570312 5.335938 4.570312 C 5.136719 4.570312 4.753906 5.074219 4.753906 5.535156 C 4.753906 5.90625 4.921875 6.222656 5.15625 6.332031 L 5.109375 7.429688 L 5.566406 7.429688 Z M 5.515625 6.332031 "/>
<path style=" stroke:none;fill-rule:nonzero;fill:rgb(57.647061%,0%,57.647061%);fill-opacity:1;" d="M 6.925781 6.519531 C 7.160156 6.410156 7.246094 6.269531 7.246094 5.898438 L 7.1875 4.636719 C 7.1875 4.609375 7.167969 4.589844 7.144531 4.589844 L 7.113281 4.589844 C 7.089844 4.589844 7.070312 4.609375 7.070312 4.636719 L 7.089844 5.898438 L 6.964844 5.898438 L 6.933594 4.625 C 6.933594 4.597656 6.914062 4.578125 6.890625 4.578125 L 6.851562 4.578125 C 6.828125 4.578125 6.808594 4.597656 6.808594 4.625 L 6.824219 5.898438 L 6.667969 5.898438 L 6.6875 4.625 C 6.6875 4.597656 6.667969 4.578125 6.640625 4.578125 L 6.605469 4.578125 C 6.582031 4.578125 6.5625 4.597656 6.5625 4.625 L 6.53125 5.898438 L 6.40625 5.898438 L 6.425781 4.636719 C 6.425781 4.613281 6.40625 4.59375 6.382812 4.59375 L 6.355469 4.59375 C 6.328125 4.59375 6.308594 4.613281 6.308594 4.636719 L 6.246094 5.898438 C 6.246094 6.269531 6.332031 6.410156 6.566406 6.519531 L 6.519531 7.429688 L 6.976562 7.429688 Z M 6.925781 6.519531 "/>
</g>
</svg>
