<?xml version="1.0" encoding="UTF-8"?>
<svg xmlns="http://www.w3.org/2000/svg" xmlns:xlink="http://www.w3.org/1999/xlink" width="12" height="12" viewBox="0 0 12 12" version="1.1">
<defs>
<filter id="alpha" filterUnits="objectBoundingBox" x="0%" y="0%" width="100%" height="100%">
  <feColorMatrix type="matrix" in="SourceGraphic" values="0 0 0 0 1 0 0 0 0 1 0 0 0 0 1 0 0 0 1 0"/>
</filter>
<mask id="mask0">
  <g filter="url(#alpha)">
<rect x="0" y="0" width="12" height="12" style="fill:rgb(0%,0%,0%);fill-opacity:0.426087;stroke:none;"/>
  </g>
</mask>
<clipPath id="clip1">
  <rect x="0" y="0" width="12" height="12"/>
</clipPath>
<g id="surface5" clip-path="url(#clip1)">
<path style=" stroke:none;fill-rule:nonzero;fill:rgb(55.29412%,55.29412%,55.29412%);fill-opacity:1;" d="M 5.875 3.011719 C 5.761719 3.015625 5.652344 3.058594 5.570312 3.140625 L 5.359375 3.34375 C 5.359375 3.34375 5.359375 3.347656 5.359375 3.347656 C 5.351562 3.351562 5.347656 3.359375 5.339844 3.363281 L 5.203125 3.496094 L 2.550781 6.101562 C 2.464844 6.183594 2.417969 6.292969 2.417969 6.410156 C 2.417969 6.527344 2.460938 6.640625 2.542969 6.722656 L 2.941406 7.128906 C 3.023438 7.214844 3.136719 7.261719 3.253906 7.261719 C 3.367188 7.265625 3.480469 7.21875 3.566406 7.136719 L 5.070312 5.660156 L 5.070312 9.984375 L 4.824219 9.984375 C 4.769531 9.984375 4.710938 9.996094 4.65625 10.015625 C 4.605469 10.039062 4.554688 10.070312 4.515625 10.113281 C 4.472656 10.152344 4.441406 10.203125 4.417969 10.253906 C 4.394531 10.308594 4.386719 10.367188 4.386719 10.425781 L 4.386719 10.941406 C 4.386719 11 4.394531 11.058594 4.417969 11.109375 C 4.441406 11.164062 4.472656 11.210938 4.515625 11.253906 C 4.554688 11.292969 4.605469 11.328125 4.65625 11.347656 C 4.710938 11.371094 4.769531 11.382812 4.824219 11.382812 L 6.902344 11.382812 C 6.960938 11.382812 7.019531 11.371094 7.070312 11.347656 C 7.125 11.328125 7.175781 11.292969 7.214844 11.253906 C 7.257812 11.210938 7.289062 11.164062 7.3125 11.109375 C 7.332031 11.058594 7.34375 11 7.34375 10.941406 L 7.34375 10.425781 C 7.34375 10.367188 7.332031 10.308594 7.3125 10.253906 C 7.289062 10.203125 7.257812 10.152344 7.214844 10.113281 C 7.175781 10.070312 7.125 10.039062 7.070312 10.015625 C 7.019531 9.996094 6.960938 9.984375 6.902344 9.984375 L 6.640625 9.984375 L 6.640625 5.621094 L 8.1875 7.136719 C 8.269531 7.21875 8.382812 7.265625 8.5 7.261719 C 8.617188 7.261719 8.730469 7.214844 8.8125 7.128906 L 9.210938 6.722656 C 9.292969 6.640625 9.335938 6.527344 9.335938 6.410156 C 9.335938 6.292969 9.285156 6.183594 9.203125 6.101562 L 6.414062 3.363281 C 6.40625 3.359375 6.398438 3.351562 6.394531 3.347656 L 6.191406 3.144531 C 6.152344 3.101562 6.101562 3.070312 6.046875 3.046875 C 5.992188 3.023438 5.933594 3.011719 5.875 3.011719 Z M 5.875 3.011719 "/>
</g>
</defs>
<g id="surface1">
<use xlink:href="#surface5" mask="url(#mask0)"/>
<path style=" stroke:none;fill-rule:nonzero;fill:rgb(90.980393%,0%,0%);fill-opacity:1;" d="M 5.507812 3.816406 L 5.875 3.457031 L 6.191406 3.78125 L 6.195312 10.667969 L 5.507812 10.667969 Z M 5.507812 3.816406 "/>
<path style="fill:none;stroke-width:25;stroke-linecap:butt;stroke-linejoin:miter;stroke:rgb(0%,0%,0%);stroke-opacity:1;stroke-miterlimit:4;" d="M 232.981771 516.5625 L 333.424479 516.5625 " transform="matrix(0.0206897,0,0,0.0206897,0,0)"/>
<path style=" stroke:none;fill-rule:nonzero;fill:rgb(90.980393%,0%,0%);fill-opacity:1;" d="M 5.644531 3.683594 L 6.042969 4.089844 L 3.25 6.828125 L 2.851562 6.417969 Z M 5.644531 3.683594 "/>
<path style=" stroke:none;fill-rule:nonzero;fill:rgb(90.980393%,0%,0%);fill-opacity:1;" d="M 6.097656 3.683594 L 5.699219 4.089844 L 8.492188 6.828125 L 8.890625 6.417969 Z M 6.097656 3.683594 "/>
</g>
</svg>
