<?xml version="1.0" encoding="UTF-8"?>
<svg xmlns="http://www.w3.org/2000/svg" xmlns:xlink="http://www.w3.org/1999/xlink" width="64" height="64" viewBox="0 0 64 64">
<path fill-rule="nonzero" fill="rgb(57.647059%, 0%, 57.647059%)" fill-opacity="1" d="M 27.066406 24.824219 L 29.570312 27.328125 C 29.570312 27.328125 29.570312 28.078125 28.824219 28.824219 C 28.078125 29.570312 27.328125 29.570312 27.328125 29.570312 L 24.824219 27.066406 C 24.472656 28.476562 24.949219 30.179688 25.992188 31.222656 C 26.957031 32.183594 27.988281 32.171875 28.996094 31.625 C 29.164062 31.53125 29.539062 31.382812 29.96875 31.8125 C 32.183594 34.023438 36.367188 38.695312 36.449219 38.773438 C 37.117188 39.445312 38.179688 39.464844 38.820312 38.820312 C 39.464844 38.179688 39.445312 37.117188 38.773438 36.449219 C 38.695312 36.367188 33.921875 32.09375 31.746094 29.914062 C 31.34375 29.511719 31.5 29.214844 31.585938 29.066406 C 32.167969 28.035156 32.207031 26.980469 31.21875 25.992188 C 30.179688 24.949219 28.476562 24.472656 27.066406 24.824219 Z M 38.195312 37.46875 C 38.195312 37.871094 37.871094 38.195312 37.46875 38.195312 C 37.066406 38.195312 36.738281 37.871094 36.738281 37.46875 C 36.738281 37.066406 37.066406 36.738281 37.46875 36.738281 C 37.871094 36.738281 38.195312 37.066406 38.195312 37.46875 Z M 38.195312 37.46875 "/>
</svg>
