<?xml version="1.0" encoding="UTF-8"?>
<svg xmlns="http://www.w3.org/2000/svg" xmlns:xlink="http://www.w3.org/1999/xlink" width="12" height="12" viewBox="0 0 12 12" version="1.1">
<defs>
<filter id="alpha" filterUnits="objectBoundingBox" x="0%" y="0%" width="100%" height="100%">
  <feColorMatrix type="matrix" in="SourceGraphic" values="0 0 0 0 1 0 0 0 0 1 0 0 0 0 1 0 0 0 1 0"/>
</filter>
<mask id="mask0">
  <g filter="url(#alpha)">
<rect x="0" y="0" width="12" height="12" style="fill:rgb(0%,0%,0%);fill-opacity:0.43913;stroke:none;"/>
  </g>
</mask>
<clipPath id="clip1">
  <rect x="0" y="0" width="12" height="12"/>
</clipPath>
<g id="surface5" clip-path="url(#clip1)">
<path style=" stroke:none;fill-rule:nonzero;fill:rgb(67.450982%,84.705883%,95.294118%);fill-opacity:1;" d="M 6.019531 0.640625 C 5.949219 0.636719 5.878906 0.675781 5.84375 0.734375 L 5.195312 1.777344 C 5.175781 1.8125 5.164062 1.855469 5.167969 1.898438 C 5.167969 1.9375 5.183594 1.980469 5.210938 2.011719 C 5.160156 2.074219 5.152344 2.167969 5.195312 2.238281 L 5.648438 3.003906 L 5.648438 5.789062 C 5.648438 5.84375 5.667969 5.894531 5.707031 5.933594 C 5.742188 5.96875 5.796875 5.992188 5.847656 5.992188 L 6.132812 5.992188 C 6.183594 5.992188 6.238281 5.96875 6.273438 5.933594 C 6.3125 5.894531 6.332031 5.84375 6.332031 5.789062 L 6.332031 3.003906 L 6.804688 2.242188 C 6.824219 2.207031 6.835938 2.164062 6.832031 2.125 C 6.832031 2.082031 6.816406 2.042969 6.789062 2.011719 C 6.839844 1.949219 6.847656 1.851562 6.804688 1.78125 L 6.1875 0.738281 C 6.152344 0.679688 6.089844 0.640625 6.019531 0.640625 Z M 6.019531 0.640625 "/>
</g>
</defs>
<g id="surface1">
<use xlink:href="#surface5" mask="url(#mask0)"/>
<path style=" stroke:none;fill-rule:nonzero;fill:rgb(0%,0%,0%);fill-opacity:1;" d="M 6.632812 2.136719 L 5.367188 2.136719 L 5.984375 3.183594 "/>
<path style=" stroke:none;fill-rule:nonzero;fill:rgb(0%,0%,0%);fill-opacity:1;" d="M 5.367188 1.886719 L 6.632812 1.886719 L 6.015625 0.84375 "/>
<path style="fill:none;stroke-width:23.1021;stroke-linecap:butt;stroke-linejoin:miter;stroke:rgb(0%,0%,0%);stroke-opacity:1;stroke-miterlimit:4;" d="M 530 506.536458 L 530 125.94401 " transform="matrix(0.0113208,0,0,0.0113208,0,0)"/>
</g>
</svg>
