<svg width="32" height="32" viewBox="0 0 320 320" fill="none" xmlns="http://www.w3.org/2000/svg">
<path opacity="0.426087" d="M85.0938 73.625C82.0529 73.6278 79.1374 74.837 76.9872 76.9872C74.837 79.1374 73.6278 82.0529 73.625 85.0938V234.906C73.6278 237.947 74.837 240.863 76.9872 243.013C79.1374 245.163 82.0529 246.372 85.0938 246.375H234.906C237.947 246.372 240.863 245.163 243.013 243.013C245.163 240.863 246.372 237.947 246.375 234.906V85.0938C246.372 82.0529 245.163 79.1374 243.013 76.9872C240.863 74.837 237.947 73.6278 234.906 73.625H85.0938Z" fill="#ACD8F3"/>
<path d="M94.7789 94.7793H225.221V225.221H94.7789V94.7793Z" fill="#BDBDBD"/>
<path opacity="0.608209" d="M90 230V90H230V230H90Z" stroke="black" stroke-width="10"/>
<path d="M160 110V152.832" stroke="black" stroke-width="10" stroke-linecap="round" stroke-linejoin="round"/>
<path d="M195 175C195 184.283 191.313 193.185 184.749 199.749C178.185 206.313 169.283 210 160 210C150.717 210 141.815 206.313 135.251 199.749C128.687 193.185 125 184.283 125 175C125 165.717 128.687 156.815 135.251 150.251C141.815 143.687 150.717 140 160 140C169.283 140 178.185 143.687 184.749 150.251C191.313 156.815 195 165.717 195 175V175Z" stroke="black" stroke-width="10"/>
</svg>
