<?xml version="1.0" encoding="UTF-8"?>
<svg xmlns="http://www.w3.org/2000/svg" xmlns:xlink="http://www.w3.org/1999/xlink" width="12" height="12" viewBox="0 0 12 12" version="1.1">
<defs>
<filter id="alpha" filterUnits="objectBoundingBox" x="0%" y="0%" width="100%" height="100%">
  <feColorMatrix type="matrix" in="SourceGraphic" values="0 0 0 0 1 0 0 0 0 1 0 0 0 0 1 0 0 0 1 0"/>
</filter>
<mask id="mask0">
  <g filter="url(#alpha)">
<rect x="0" y="0" width="12" height="12" style="fill:rgb(0%,0%,0%);fill-opacity:0.41791;stroke:none;"/>
  </g>
</mask>
<clipPath id="clip1">
  <rect x="0" y="0" width="12" height="12"/>
</clipPath>
<g id="surface5" clip-path="url(#clip1)">
<path style="fill:none;stroke-width:29.002001;stroke-linecap:butt;stroke-linejoin:miter;stroke:rgb(77.64706%,72.549021%,100%);stroke-opacity:1;stroke-miterlimit:4;" d="M 804.661458 727.02474 C 804.661458 805.351563 773.261719 880.572917 718.053385 936.126302 C 662.5 991.679688 587.278646 1022.734375 508.606771 1022.734375 C 430.279948 1022.734375 355.058594 991.679688 299.505208 936.126302 C 243.951823 880.572917 212.897135 805.351563 212.897135 727.02474 C 212.897135 648.352865 243.951823 573.13151 299.505208 517.923177 C 355.058594 462.369792 430.279948 430.970052 508.606771 430.970052 C 587.278646 430.970052 662.5 462.369792 718.053385 517.923177 C 773.261719 573.13151 804.661458 648.352865 804.661458 727.02474 Z M 804.661458 727.02474 " transform="matrix(0.0113208,0,0,0.0113208,0,0)"/>
</g>
</defs>
<g id="surface1">
<use xlink:href="#surface5" mask="url(#mask0)"/>
</g>
</svg>
