<?xml version="1.0" encoding="UTF-8"?>
<svg xmlns="http://www.w3.org/2000/svg" xmlns:xlink="http://www.w3.org/1999/xlink" width="12" height="12" viewBox="0 0 12 12">
<path fill-rule="nonzero" fill="rgb(0%, 0%, 0%)" fill-opacity="1" d="M 7.933594 4.75 L 7.527344 5.746094 L 7.066406 7.109375 C 7.066406 7.109375 6.570312 7.605469 6.21875 8.371094 C 5.867188 9.136719 6.410156 9.914062 5.164062 10.167969 C 4.757812 10.253906 4.25 10.84375 4.027344 11.101562 C 3.785156 11.378906 3.730469 11.535156 3.726562 11.683594 L 12 11.691406 Z M 7.933594 4.75 "/>
<path fill="none" stroke-width="21.816999" stroke-linecap="round" stroke-linejoin="round" stroke="rgb(0%, 0%, 0%)" stroke-opacity="1" stroke-miterlimit="4" d="M 343.049743 203.335787 C 216.770023 454.660218 188.673557 487.542346 131.708744 461.144018 C 105.464793 448.948299 108.39794 425.483119 110.867959 412.515519 C 117.197383 378.244006 170.765919 359.718863 172.77281 390.285348 " transform="matrix(0.0253034, 0, 0, 0.0253034, -1.453779, -0.875566)"/>
<path fill="none" stroke-width="21.816999" stroke-linecap="round" stroke-linejoin="round" stroke="rgb(0%, 0%, 0%)" stroke-opacity="1" stroke-miterlimit="4" d="M 309.241358 150.076003 C 275.741726 225.565958 250.424032 283.920156 208.588085 344.435621 " transform="matrix(0.0253034, 0, 0, 0.0253034, -1.453779, -0.875566)"/>
<path fill="none" stroke-width="21.816999" stroke-linecap="round" stroke-linejoin="round" stroke="rgb(0%, 0%, 0%)" stroke-opacity="1" stroke-miterlimit="4" d="M 127.84934 370.216444 C 115.807997 317.265412 162.275229 293.800232 177.712848 311.244741 " transform="matrix(0.0253034, 0, 0, 0.0253034, -1.453779, -0.875566)"/>
</svg>
