<?xml version="1.0" encoding="UTF-8"?>
<svg xmlns="http://www.w3.org/2000/svg" xmlns:xlink="http://www.w3.org/1999/xlink" width="12" height="12" viewBox="0 0 12 12" version="1.1">
<g id="surface1">
<path style=" stroke:none;fill-rule:nonzero;fill:rgb(0%,0%,0%);fill-opacity:1;" d="M 7.804688 4.351562 L 6.753906 4.636719 L 6.167969 4.230469 L 5.964844 4.28125 L 6.542969 4.6875 L 3.359375 5.5625 L 3.589844 6.417969 L 6.789062 5.542969 C 8.027344 5.175781 7.800781 4.351562 7.800781 4.351562 "/>
<path style=" stroke:none;fill-rule:nonzero;fill:rgb(0%,0%,0%);fill-opacity:1;" d="M 5.039062 6.539062 C 5.042969 6.46875 5.058594 6.398438 5.082031 6.335938 L 3.640625 6.738281 L 3.6875 6.914062 Z M 5.039062 6.539062 "/>
<path style=" stroke:none;fill-rule:nonzero;fill:rgb(0%,0%,0%);fill-opacity:1;" d="M 6.351562 6.175781 C 6.308594 6.121094 6.265625 6.070312 6.210938 6.023438 L 8.617188 5.359375 L 8.617188 5.550781 Z M 6.351562 6.175781 "/>
<path style=" stroke:none;fill-rule:nonzero;fill:rgb(0%,0%,0%);fill-opacity:1;" d="M 5.753906 6.808594 C 5.625 6.808594 5.519531 6.703125 5.519531 6.574219 C 5.519531 6.445312 5.625 6.339844 5.753906 6.339844 C 5.882812 6.339844 5.988281 6.445312 5.988281 6.574219 C 5.988281 6.703125 5.882812 6.808594 5.753906 6.808594 Z M 3.40625 8.246094 C 3.523438 8.246094 3.628906 8.21875 3.726562 8.175781 C 3.828125 8.128906 3.941406 8.101562 4.058594 8.101562 C 4.175781 8.101562 4.289062 8.128906 4.386719 8.175781 C 4.484375 8.21875 4.59375 8.246094 4.707031 8.246094 C 4.820312 8.246094 4.929688 8.21875 5.027344 8.175781 C 5.128906 8.128906 5.242188 8.101562 5.359375 8.101562 C 5.476562 8.101562 5.585938 8.128906 5.6875 8.175781 C 5.785156 8.21875 5.894531 8.246094 6.007812 8.246094 C 6.121094 8.246094 6.230469 8.21875 6.328125 8.175781 C 6.429688 8.128906 6.542969 8.101562 6.660156 8.101562 C 6.777344 8.101562 6.890625 8.128906 6.988281 8.175781 C 7.085938 8.21875 7.195312 8.246094 7.308594 8.246094 C 7.421875 8.246094 7.53125 8.21875 7.628906 8.175781 C 7.730469 8.128906 7.84375 8.101562 7.960938 8.101562 C 8.078125 8.101562 8.1875 8.128906 8.289062 8.175781 C 8.386719 8.21875 8.496094 8.246094 8.609375 8.246094 L 8.617188 6.335938 L 5.988281 7.0625 C 6.167969 6.972656 6.292969 6.789062 6.292969 6.574219 C 6.292969 6.277344 6.050781 6.035156 5.753906 6.035156 C 5.457031 6.035156 5.214844 6.277344 5.214844 6.574219 C 5.214844 6.875 5.457031 7.117188 5.753906 7.117188 C 5.773438 7.117188 5.789062 7.113281 5.808594 7.109375 L 3.410156 7.769531 Z M 3.40625 8.246094 "/>
</g>
</svg>
