<?xml version="1.0" encoding="UTF-8"?>
<svg xmlns="http://www.w3.org/2000/svg" xmlns:xlink="http://www.w3.org/1999/xlink" width="48" height="48" viewBox="0 0 48 48">
<defs>
<filter id="filter-remove-color" x="0%" y="0%" width="100%" height="100%">
<feColorMatrix color-interpolation-filters="sRGB" values="0 0 0 0 1 0 0 0 0 1 0 0 0 0 1 0 0 0 1 0" />
</filter>
<mask id="mask-0">
<g filter="url(#filter-remove-color)">
<rect x="-4.8" y="-4.8" width="57.6" height="57.6" fill="rgb(0%, 0%, 0%)" fill-opacity="0.42609"/>
</g>
</mask>
<clipPath id="clip-0">
<rect x="0" y="0" width="48" height="48"/>
</clipPath>
<g id="source-6" clip-path="url(#clip-0)">
<path fill-rule="nonzero" fill="rgb(67.45098%, 84.705882%, 95.294118%)" fill-opacity="1" d="M 23.960938 2.496094 C 23.695312 2.503906 23.4375 2.613281 23.253906 2.800781 L 19.78125 6.308594 C 19.59375 6.5 19.484375 6.765625 19.484375 7.035156 C 19.488281 7.300781 19.597656 7.566406 19.789062 7.757812 L 22.402344 10.339844 L 22.402344 23.246094 C 22.402344 23.515625 22.511719 23.78125 22.703125 23.972656 C 22.890625 24.160156 23.15625 24.269531 23.425781 24.269531 L 24.558594 24.269531 C 24.824219 24.269531 25.09375 24.160156 25.28125 23.972656 C 25.472656 23.78125 25.582031 23.515625 25.582031 23.246094 L 25.582031 10.378906 L 28.21875 7.710938 C 28.40625 7.519531 28.515625 7.253906 28.515625 6.984375 C 28.511719 6.71875 28.402344 6.453125 28.210938 6.265625 L 24.699219 2.792969 C 24.507812 2.601562 24.234375 2.492188 23.960938 2.496094 Z M 23.960938 2.496094 "/>
</g>
</defs>
<g mask="url(#mask-0)">
<use xlink:href="#source-6"/>
</g>
<path fill="none" stroke-width="25" stroke-linecap="butt" stroke-linejoin="miter" stroke="rgb(0%, 0%, 0%)" stroke-opacity="1" stroke-miterlimit="4" d="M 530 513.351237 L 530 129.65332 " transform="matrix(0.045283, 0, 0, 0.045283, 0, 0)"/>
<path fill-rule="nonzero" fill="rgb(0%, 0%, 0%)" fill-opacity="1" d="M 23.929688 3.324219 L 27.59375 7 L 24.070312 10.519531 L 20.40625 6.84375 Z M 23.929688 3.324219 "/>
</svg>
