<?xml version="1.0" encoding="UTF-8"?>
<svg xmlns="http://www.w3.org/2000/svg" xmlns:xlink="http://www.w3.org/1999/xlink" width="12" height="12" viewBox="0 0 12 12" version="1.1">
<g id="surface1">
<path style=" stroke:none;fill-rule:nonzero;fill:rgb(99.607843%,99.607843%,99.607843%);fill-opacity:1;" d="M 5.09375 3.21875 C 5.035156 3.214844 4.976562 3.226562 4.921875 3.246094 L 4.792969 3.289062 C 4.753906 3.300781 4.714844 3.320312 4.679688 3.34375 L 4.558594 3.421875 C 4.523438 3.441406 4.496094 3.464844 4.46875 3.492188 L 4.355469 3.605469 L 3.726562 4.230469 L 3.722656 4.234375 L 3.210938 4.753906 C 3.191406 4.757812 3.171875 4.761719 3.152344 4.769531 L 2.59375 4.769531 C 2.453125 4.769531 2.316406 4.824219 2.21875 4.925781 L 0.890625 6.269531 C 0.558594 6.605469 0.792969 7.171875 1.265625 7.171875 L 2.808594 7.171875 L 3.070312 7.777344 C 3.15625 7.96875 3.347656 8.097656 3.558594 8.097656 L 3.574219 8.097656 L 3.734375 8.464844 C 3.820312 8.65625 4.011719 8.78125 4.222656 8.78125 L 6.765625 8.78125 C 6.789062 8.785156 6.8125 8.78125 6.832031 8.777344 L 6.890625 8.769531 C 6.894531 8.769531 6.898438 8.769531 6.902344 8.769531 L 6.882812 8.769531 C 6.894531 8.769531 6.902344 8.769531 6.914062 8.765625 C 6.921875 8.765625 6.933594 8.761719 6.941406 8.761719 L 6.925781 8.765625 C 6.957031 8.765625 6.984375 8.761719 7.015625 8.753906 L 7.074219 8.738281 C 7.082031 8.734375 7.089844 8.734375 7.097656 8.730469 L 7.167969 8.707031 C 7.210938 8.695312 7.253906 8.675781 7.292969 8.652344 L 7.347656 8.617188 C 7.355469 8.613281 7.359375 8.613281 7.363281 8.609375 L 7.425781 8.566406 C 7.449219 8.550781 7.46875 8.535156 7.488281 8.519531 L 7.546875 8.464844 C 7.578125 8.445312 7.605469 8.425781 7.628906 8.398438 L 8.265625 7.769531 L 8.269531 7.765625 L 8.8125 7.21875 L 9.40625 7.21875 C 9.546875 7.21875 9.679688 7.160156 9.78125 7.0625 L 11.109375 5.730469 C 11.441406 5.398438 11.207031 4.828125 10.734375 4.828125 L 9.1875 4.828125 L 8.910156 4.203125 C 8.828125 4.011719 8.636719 3.890625 8.425781 3.890625 L 8.25 3.523438 C 8.164062 3.335938 7.976562 3.214844 7.769531 3.21875 Z M 5.09375 3.21875 "/>
<path style=" stroke:none;fill-rule:evenodd;fill:rgb(17.254902%,35.686275%,63.921571%);fill-opacity:1;" d="M 5.09375 3.746094 L 4.964844 3.792969 L 4.84375 3.867188 L 4.730469 3.984375 L 4.101562 4.605469 L 3.542969 5.171875 L 3.457031 5.226562 L 3.371094 5.269531 L 3.324219 5.269531 L 3.324219 5.277344 L 3.28125 5.292969 L 3.179688 5.300781 L 2.59375 5.300781 L 1.265625 6.644531 L 4.25 6.644531 L 4.277344 6.636719 L 4.316406 6.636719 L 4.386719 6.628906 L 4.449219 6.617188 L 4.523438 6.601562 L 4.636719 6.527344 L 4.6875 6.488281 L 4.742188 6.445312 L 5.351562 5.835938 L 5.941406 5.242188 L 6.023438 5.15625 L 6.121094 5.105469 L 6.222656 5.078125 L 8.71875 5.078125 L 8.425781 4.417969 L 6.1875 4.417969 L 6.066406 4.460938 L 5.949219 4.527344 L 5.859375 4.628906 L 5.328125 5.15625 L 5.238281 5.222656 L 5.152344 5.261719 L 5.0625 5.285156 L 4.601562 5.285156 L 5.0625 4.820312 L 5.609375 4.277344 L 5.671875 4.214844 L 5.75 4.167969 L 5.835938 4.140625 L 7.957031 4.140625 L 7.769531 3.746094 Z M 7.59375 5.355469 L 7.464844 5.390625 L 7.34375 5.449219 L 6.042969 6.75 L 6.015625 6.765625 L 6 6.773438 L 5.992188 6.785156 L 5.949219 6.820312 L 5.863281 6.871094 L 5.765625 6.902344 L 5.664062 6.910156 L 3.273438 6.910156 L 3.558594 7.566406 L 5.679688 7.566406 L 5.792969 7.550781 L 5.851562 7.535156 L 5.914062 7.523438 L 6.027344 7.453125 L 6.085938 7.410156 L 6.148438 7.367188 L 6.65625 6.835938 L 6.742188 6.765625 L 6.785156 6.738281 L 6.835938 6.722656 L 6.921875 6.695312 L 7.007812 6.699219 L 7.390625 6.699219 L 6.929688 7.171875 L 6.394531 7.714844 L 6.351562 7.738281 L 6.3125 7.765625 L 6.269531 7.785156 L 6.25 7.785156 L 6.25 7.792969 L 6.234375 7.808594 L 6.1875 7.808594 L 6.1875 7.816406 L 6.144531 7.832031 L 6.042969 7.84375 L 4.042969 7.84375 L 4.222656 8.253906 L 6.765625 8.253906 L 6.820312 8.246094 L 6.847656 8.238281 L 6.886719 8.238281 L 6.941406 8.222656 L 7.011719 8.203125 L 7.070312 8.167969 L 7.136719 8.125 L 7.191406 8.074219 L 7.222656 8.046875 L 7.234375 8.03125 L 7.234375 8.023438 L 7.257812 8.023438 L 7.890625 7.394531 L 8.441406 6.835938 L 8.519531 6.757812 L 8.605469 6.707031 L 8.699219 6.679688 L 8.808594 6.6875 L 9.40625 6.6875 L 10.734375 5.355469 Z M 7.59375 5.355469 "/>
</g>
</svg>
