<?xml version="1.0" encoding="UTF-8"?>
<svg xmlns="http://www.w3.org/2000/svg" xmlns:xlink="http://www.w3.org/1999/xlink" width="24" height="24" viewBox="0 0 24 24">
<defs>
<filter id="filter-remove-color" x="0%" y="0%" width="100%" height="100%">
<feColorMatrix color-interpolation-filters="sRGB" values="0 0 0 0 1 0 0 0 0 1 0 0 0 0 1 0 0 0 1 0" />
</filter>
<mask id="mask-0">
<g filter="url(#filter-remove-color)">
<rect x="-2.4" y="-2.4" width="28.8" height="28.8" fill="rgb(0%, 0%, 0%)" fill-opacity="0.426087"/>
</g>
</mask>
<clipPath id="clip-0">
<path clip-rule="nonzero" d="M 7 8 L 17 8 L 17 24 L 7 24 Z M 7 8 "/>
</clipPath>
<clipPath id="clip-1">
<rect x="0" y="0" width="24" height="24"/>
</clipPath>
<g id="source-7" clip-path="url(#clip-1)">
<g clip-path="url(#clip-0)">
<path fill-rule="nonzero" fill="rgb(55.294118%, 55.294118%, 55.294118%)" fill-opacity="1" d="M 10.789062 8.84375 C 10.679688 8.84375 10.570312 8.863281 10.46875 8.90625 C 10.371094 8.949219 10.277344 9.007812 10.199219 9.085938 C 10.121094 9.164062 10.0625 9.257812 10.019531 9.355469 C 9.976562 9.457031 9.957031 9.566406 9.957031 9.675781 L 9.957031 19.394531 C 9.75 19.574219 9.578125 19.789062 9.4375 20.023438 L 7.847656 20.023438 C 7.738281 20.023438 7.628906 20.046875 7.527344 20.089844 C 7.425781 20.128906 7.335938 20.191406 7.257812 20.269531 C 7.179688 20.347656 7.117188 20.4375 7.074219 20.539062 C 7.035156 20.640625 7.011719 20.75 7.011719 20.859375 L 7.011719 21.894531 C 7.011719 22.003906 7.035156 22.113281 7.074219 22.210938 C 7.117188 22.3125 7.179688 22.40625 7.257812 22.484375 C 7.335938 22.5625 7.425781 22.621094 7.527344 22.664062 C 7.628906 22.707031 7.738281 22.726562 7.847656 22.726562 L 9.453125 22.726562 C 9.917969 23.5 10.757812 24.019531 11.71875 24.019531 C 12.675781 24.019531 13.515625 23.5 13.980469 22.726562 L 15.589844 22.726562 C 15.699219 22.726562 15.804688 22.707031 15.90625 22.664062 C 16.007812 22.621094 16.101562 22.5625 16.179688 22.484375 C 16.253906 22.40625 16.316406 22.3125 16.359375 22.210938 C 16.402344 22.113281 16.421875 22.003906 16.421875 21.894531 L 16.421875 20.859375 C 16.421875 20.75 16.402344 20.640625 16.359375 20.539062 C 16.316406 20.4375 16.253906 20.347656 16.179688 20.269531 C 16.101562 20.191406 16.007812 20.128906 15.90625 20.089844 C 15.804688 20.046875 15.699219 20.023438 15.589844 20.023438 L 13.996094 20.023438 C 13.851562 19.777344 13.664062 19.554688 13.449219 19.367188 L 13.449219 9.675781 C 13.449219 9.566406 13.429688 9.457031 13.386719 9.355469 C 13.34375 9.257812 13.28125 9.164062 13.207031 9.085938 C 13.128906 9.007812 13.035156 8.949219 12.933594 8.90625 C 12.832031 8.863281 12.726562 8.84375 12.617188 8.84375 Z M 10.789062 8.84375 "/>
</g>
</g>
</defs>
<g mask="url(#mask-0)">
<use xlink:href="#source-7"/>
</g>
<path fill-rule="nonzero" fill="rgb(0%, 0%, 0%)" fill-opacity="1" d="M 12.617188 9.675781 L 10.789062 9.675781 L 10.789062 21.265625 L 12.617188 21.265625 Z M 12.617188 9.675781 "/>
<path fill="none" stroke-width="25" stroke-linecap="butt" stroke-linejoin="miter" stroke="rgb(0%, 0%, 0%)" stroke-opacity="1" stroke-miterlimit="4" d="M 189.651693 516.5625 L 376.754557 516.5625 " transform="matrix(0.0413793, 0, 0, 0.0413793, 0, 0)"/>
<path fill-rule="nonzero" fill="rgb(99.607843%, 99.607843%, 99.607843%)" fill-opacity="1" stroke-width="20.5723" stroke-linecap="round" stroke-linejoin="round" stroke="rgb(0%, 0%, 0%)" stroke-opacity="1" stroke-miterlimit="10" d="M 316.809896 516.373698 C 316.809896 525.341797 313.222656 533.837891 306.992188 540.16276 C 300.667318 546.48763 292.076823 549.980469 283.203125 549.980469 C 274.329427 549.980469 265.738932 546.48763 259.414062 540.16276 C 253.089193 533.837891 249.596354 525.341797 249.596354 516.373698 C 249.596354 507.5 253.089193 498.909505 259.414062 492.679036 C 265.738932 486.354167 274.329427 482.766927 283.203125 482.766927 C 292.076823 482.766927 300.667318 486.354167 306.992188 492.679036 C 313.222656 498.909505 316.809896 507.5 316.809896 516.373698 Z M 316.809896 516.373698 " transform="matrix(0.0413793, 0, 0, 0.0413793, 0, 0)"/>
<path fill-rule="nonzero" fill="rgb(100%, 83.137255%, 0%)" fill-opacity="1" d="M 12.617188 13.449219 L 10.789062 13.449219 L 10.789062 17.160156 L 12.617188 17.160156 Z M 12.617188 13.449219 "/>
</svg>
