<?xml version="1.0" encoding="UTF-8"?>
<svg xmlns="http://www.w3.org/2000/svg" xmlns:xlink="http://www.w3.org/1999/xlink" width="32" height="32" viewBox="0 0 32 32">
<defs>
<filter id="filter-remove-color" x="0%" y="0%" width="100%" height="100%">
<feColorMatrix color-interpolation-filters="sRGB" values="0 0 0 0 1 0 0 0 0 1 0 0 0 0 1 0 0 0 1 0" />
</filter>
<mask id="mask-0">
<g filter="url(#filter-remove-color)">
<rect x="-3.2" y="-3.2" width="38.4" height="38.4" fill="rgb(0%, 0%, 0%)" fill-opacity="0.426087"/>
</g>
</mask>
<clipPath id="clip-0">
<rect x="0" y="0" width="32" height="32"/>
</clipPath>
<g id="source-6" clip-path="url(#clip-0)">
<path fill-rule="nonzero" fill="rgb(67.45098%, 84.705882%, 95.294118%)" fill-opacity="1" d="M 11.65625 0.078125 L 11.65625 0.105469 C 11.632812 0.0898438 11.628906 0.0820312 11.652344 0.0820312 C 11.714844 0.0820312 10.941406 0.167969 11.027344 0.148438 C 11.015625 0.152344 11 0.15625 10.988281 0.160156 C 11.1875 0.113281 9.734375 0.808594 9.554688 0.851562 C 9.484375 0.992188 8.679688 1.988281 8.558594 2.089844 C 8.550781 2.25 8.261719 3.496094 8.195312 3.636719 C 8.253906 3.773438 8.472656 4.742188 8.523438 5.082031 L 8.484375 5.097656 L 10.316406 9.40625 C 10.316406 9.40625 10.316406 9.40625 10.316406 9.410156 C 10.238281 9.226562 11.152344 10.5 11.222656 10.65625 C 11.28125 10.675781 11.511719 10.796875 11.753906 10.933594 L 10.511719 12.128906 C 10.199219 12.425781 9.972656 12.796875 9.84375 13.207031 C 9.714844 13.402344 9.609375 13.546875 9.632812 13.496094 C 9.691406 13.335938 9.386719 15.164062 9.375 15.027344 L 9.375 15.035156 L 9.472656 17.695312 L 6.339844 19.273438 C 6.324219 19.285156 6.304688 19.292969 6.289062 19.304688 C 6.429688 19.226562 5.039062 20.359375 5.144531 20.234375 C 5.210938 20.152344 4.925781 20.675781 4.691406 21.089844 L 4.347656 21.035156 L 4.292969 21.027344 L 4.292969 21.03125 C 4.25 21.035156 3.550781 20.984375 3.632812 20.980469 C 3.636719 20.980469 3.628906 20.980469 3.632812 20.980469 L 3.632812 20.984375 C 3.796875 20.984375 2.160156 21.328125 2.335938 21.257812 C 2.507812 21.183594 1.089844 22.121094 1.226562 21.988281 C 1.363281 21.859375 0.382812 23.25 0.460938 23.074219 C 0.539062 22.902344 0.132812 24.554688 0.144531 24.367188 C 0.152344 24.175781 0.375 25.863281 0.316406 25.683594 C 0.257812 25.503906 1.082031 26.992188 0.960938 26.847656 C 0.917969 26.796875 1.066406 26.910156 1.25 27.054688 C 1.003906 27.460938 0.878906 27.925781 0.882812 28.402344 C 0.890625 28.875 1.027344 29.335938 1.28125 29.738281 C 1.535156 30.136719 1.894531 30.457031 2.320312 30.667969 C 2.746094 30.875 3.222656 30.957031 3.691406 30.910156 C 3.691406 30.910156 4.820312 30.796875 6.152344 30.441406 C 7.140625 30.179688 8.316406 29.855469 9.425781 29.074219 L 27.617188 31.898438 L 27.675781 31.910156 L 27.679688 31.890625 C 27.808594 31.855469 29.214844 31.828125 29.035156 31.867188 C 28.835938 31.910156 30.492188 31.171875 30.328125 31.289062 C 30.164062 31.40625 31.40625 30.082031 31.296875 30.253906 C 31.191406 30.425781 31.820312 28.722656 31.789062 28.921875 C 31.757812 29.121094 31.675781 27.308594 31.722656 27.507812 C 31.773438 27.703125 30.996094 26.0625 31.117188 26.226562 C 31.238281 26.386719 29.882812 25.179688 30.058594 25.28125 C 30.214844 25.375 28.875 24.917969 28.769531 24.851562 L 28.773438 24.832031 L 28.71875 24.824219 L 22.328125 23.828125 L 23.210938 20.347656 C 23.214844 20.335938 23.214844 20.324219 23.21875 20.308594 C 23.164062 20.535156 23.011719 18.257812 23.054688 18.066406 C 22.910156 17.957031 21.871094 16.628906 21.695312 16.335938 L 21.71875 16.304688 L 21.683594 16.28125 L 21.675781 16.292969 C 21.667969 16.277344 21.667969 16.269531 21.683594 16.28125 L 21.242188 15.957031 L 21.324219 15.882812 L 24.945312 18.8125 C 24.960938 18.824219 24.972656 18.832031 24.984375 18.84375 C 24.828125 18.722656 26.414062 19.519531 26.222656 19.46875 C 26.03125 19.414062 27.800781 19.554688 27.601562 19.574219 C 27.40625 19.597656 29.097656 19.054688 28.925781 19.148438 C 28.75 19.246094 30.105469 18.101562 29.984375 18.257812 C 29.859375 18.410156 30.679688 16.835938 30.625 17.027344 C 30.570312 17.214844 30.730469 15.449219 30.75 15.648438 C 30.769531 15.84375 30.246094 14.144531 30.339844 14.320312 C 30.433594 14.496094 29.308594 13.125 29.460938 13.25 C 29.457031 13.246094 29.449219 13.242188 29.445312 13.238281 L 25.207031 9.804688 C 26.105469 8.878906 26.664062 7.625 26.664062 6.253906 C 26.664062 3.453125 24.339844 1.128906 21.539062 1.128906 C 19.117188 1.128906 17.050781 2.867188 16.539062 5.148438 L 16.25 5.0625 L 15.054688 2.28125 C 15.066406 2.3125 15.054688 2.3125 15.027344 2.292969 L 15.054688 2.28125 L 15.042969 2.257812 L 15.007812 2.273438 C 14.769531 2.066406 13.78125 0.878906 13.683594 0.675781 C 13.457031 0.671875 11.902344 0.230469 11.664062 0.109375 L 11.664062 0.078125 C 11.664062 0.078125 11.65625 0.078125 11.65625 0.078125 Z M 8.539062 5.191406 C 8.554688 5.230469 8.570312 5.195312 8.539062 5.191406 Z M 16.730469 21.960938 C 16.738281 21.957031 16.738281 21.964844 16.730469 21.976562 C 16.71875 21.996094 16.714844 21.988281 16.714844 21.96875 C 16.71875 21.964844 16.726562 21.960938 16.730469 21.960938 Z M 16.730469 21.960938 "/>
</g>
</defs>
<g mask="url(#mask-0)">
<use xlink:href="#source-6"/>
</g>
<path fill-rule="nonzero" fill="rgb(69.019608%, 11.372549%, 11.372549%)" fill-opacity="1" d="M 11.738281 2.605469 C 11.679688 2.605469 11.617188 2.613281 11.558594 2.625 C 11.40625 2.660156 11.265625 2.726562 11.140625 2.820312 C 11.019531 2.917969 10.921875 3.039062 10.855469 3.179688 C 10.785156 3.320312 10.75 3.472656 10.75 3.625 C 10.75 3.78125 10.78125 3.933594 10.851562 4.074219 L 12.683594 8.382812 C 12.742188 8.519531 12.828125 8.640625 12.941406 8.742188 C 13.050781 8.839844 13.183594 8.917969 13.324219 8.960938 L 16.464844 9.9375 L 12.296875 13.941406 L 12.3125 13.953125 C 12.191406 14.078125 12.09375 14.226562 12.03125 14.390625 C 11.964844 14.554688 11.9375 14.730469 11.941406 14.90625 L 12.101562 19.214844 L 7.507812 21.53125 C 7.199219 21.683594 6.964844 21.953125 6.859375 22.277344 C 6.75 22.601562 6.773438 22.957031 6.929688 23.265625 C 7.082031 23.574219 7.351562 23.804688 7.675781 23.914062 C 8 24.023438 8.355469 24 8.664062 23.84375 L 14 21.175781 C 14.222656 21.0625 14.410156 20.886719 14.535156 20.671875 C 14.660156 20.453125 14.722656 20.203125 14.707031 19.953125 L 14.613281 17.445312 L 18.050781 19.921875 L 17.023438 24.003906 C 16.960938 24.171875 16.933594 24.347656 16.941406 24.523438 C 16.949219 24.699219 16.996094 24.871094 17.074219 25.027344 C 17.152344 25.1875 17.261719 25.328125 17.398438 25.441406 C 17.53125 25.554688 17.691406 25.640625 17.859375 25.691406 L 3.914062 23.523438 C 3.847656 23.511719 3.78125 23.507812 3.710938 23.507812 C 3.453125 23.515625 3.210938 23.621094 3.027344 23.800781 C 2.84375 23.980469 2.734375 24.222656 2.71875 24.480469 C 2.707031 24.738281 2.789062 24.988281 2.949219 25.1875 C 3.113281 25.386719 3.34375 25.519531 3.601562 25.554688 L 5.175781 25.800781 L 3.449219 28.34375 C 3.449219 28.34375 7.21875 27.957031 8.667969 26.34375 L 28.085938 29.359375 C 28.21875 29.382812 28.359375 29.382812 28.492188 29.351562 C 28.625 29.320312 28.75 29.265625 28.863281 29.183594 C 28.976562 29.105469 29.070312 29.003906 29.140625 28.886719 C 29.214844 28.769531 29.261719 28.640625 29.28125 28.503906 C 29.304688 28.371094 29.296875 28.230469 29.265625 28.097656 C 29.230469 27.964844 29.171875 27.839844 29.089844 27.730469 C 29.007812 27.621094 28.902344 27.527344 28.785156 27.460938 C 28.667969 27.390625 28.535156 27.34375 28.398438 27.328125 L 18.203125 25.742188 C 18.515625 25.75 18.820312 25.640625 19.058594 25.4375 C 19.296875 25.238281 19.453125 24.957031 19.5 24.648438 L 20.75 19.695312 C 20.8125 19.445312 20.792969 19.183594 20.703125 18.941406 C 20.609375 18.703125 20.449219 18.492188 20.234375 18.347656 L 17.21875 16.164062 L 21.246094 12.488281 L 26.570312 16.804688 C 26.675781 16.894531 26.796875 16.960938 26.929688 17.003906 C 27.0625 17.046875 27.199219 17.058594 27.335938 17.046875 C 27.476562 17.035156 27.609375 16.992188 27.730469 16.929688 C 27.851562 16.863281 27.957031 16.773438 28.042969 16.664062 C 28.132812 16.558594 28.195312 16.433594 28.230469 16.300781 C 28.269531 16.167969 28.28125 16.027344 28.261719 15.890625 C 28.242188 15.753906 28.199219 15.621094 28.128906 15.503906 C 28.058594 15.382812 27.964844 15.277344 27.855469 15.195312 L 20.234375 9.023438 C 20.140625 8.941406 20.035156 8.875 19.914062 8.832031 L 14.386719 7.128906 L 12.714844 3.238281 C 12.632812 3.046875 12.5 2.882812 12.324219 2.769531 C 12.152344 2.65625 11.945312 2.601562 11.738281 2.605469 Z M 21.554688 3.65625 C 20.136719 3.65625 18.984375 4.808594 18.984375 6.226562 C 18.984375 7.648438 20.136719 8.796875 21.554688 8.796875 C 22.976562 8.796875 24.128906 7.648438 24.128906 6.226562 C 24.128906 4.808594 22.976562 3.65625 21.554688 3.65625 Z M 21.554688 3.65625 "/>
</svg>
