<?xml version="1.0" encoding="UTF-8"?>
<svg xmlns="http://www.w3.org/2000/svg" xmlns:xlink="http://www.w3.org/1999/xlink" width="12" height="12" viewBox="0 0 12 12" version="1.1">
<defs>
<filter id="alpha" filterUnits="objectBoundingBox" x="0%" y="0%" width="100%" height="100%">
  <feColorMatrix type="matrix" in="SourceGraphic" values="0 0 0 0 1 0 0 0 0 1 0 0 0 0 1 0 0 0 1 0"/>
</filter>
<mask id="mask0">
  <g filter="url(#alpha)">
<rect x="0" y="0" width="12" height="12" style="fill:rgb(0%,0%,0%);fill-opacity:0.372;stroke:none;"/>
  </g>
</mask>
<clipPath id="clip1">
  <rect x="0" y="0" width="12" height="12"/>
</clipPath>
<g id="surface5" clip-path="url(#clip1)">
<path style=" stroke:none;fill-rule:nonzero;fill:rgb(89.411765%,89.411765%,89.411765%);fill-opacity:1;" d="M 5.597656 2.472656 C 5.488281 2.472656 5.382812 2.511719 5.304688 2.585938 C 5.230469 2.65625 5.183594 2.757812 5.183594 2.859375 L 5.183594 3.832031 L 4.183594 3.832031 C 4.089844 3.835938 3.996094 3.875 3.929688 3.949219 C 3.863281 4.019531 3.824219 4.121094 3.824219 4.222656 L 3.824219 4.527344 C 3.824219 4.628906 3.863281 4.726562 3.929688 4.800781 C 3.996094 4.871094 4.089844 4.914062 4.183594 4.914062 L 5.183594 4.914062 L 5.183594 7.6875 C 5.109375 7.742188 5.042969 7.804688 4.992188 7.878906 L 4.566406 7.878906 C 4.457031 7.878906 4.351562 7.921875 4.273438 7.992188 C 4.199219 8.0625 4.152344 8.164062 4.152344 8.265625 L 4.152344 8.511719 C 4.152344 8.613281 4.199219 8.710938 4.273438 8.785156 C 4.351562 8.855469 4.457031 8.898438 4.566406 8.898438 L 4.992188 8.898438 C 5.164062 9.128906 5.449219 9.28125 5.773438 9.28125 C 6.09375 9.28125 6.378906 9.128906 6.554688 8.898438 L 6.976562 8.898438 C 7.085938 8.898438 7.195312 8.855469 7.269531 8.785156 C 7.347656 8.710938 7.390625 8.613281 7.390625 8.511719 L 7.390625 8.265625 C 7.390625 8.164062 7.347656 8.0625 7.269531 7.992188 C 7.195312 7.921875 7.085938 7.878906 6.976562 7.878906 L 6.554688 7.878906 C 6.5 7.804688 6.433594 7.742188 6.359375 7.6875 L 6.359375 4.914062 L 7.359375 4.914062 C 7.453125 4.914062 7.546875 4.871094 7.613281 4.800781 C 7.679688 4.726562 7.71875 4.628906 7.71875 4.527344 L 7.71875 4.222656 C 7.71875 4.121094 7.679688 4.019531 7.613281 3.949219 C 7.546875 3.875 7.453125 3.835938 7.359375 3.832031 L 6.359375 3.832031 L 6.359375 2.859375 C 6.359375 2.757812 6.316406 2.65625 6.238281 2.585938 C 6.164062 2.511719 6.054688 2.472656 5.945312 2.472656 Z M 5.773438 8.324219 C 5.800781 8.324219 5.839844 8.359375 5.839844 8.386719 C 5.839844 8.414062 5.800781 8.453125 5.773438 8.453125 C 5.742188 8.453125 5.703125 8.414062 5.703125 8.386719 C 5.703125 8.359375 5.742188 8.324219 5.773438 8.324219 Z M 5.773438 8.324219 "/>
</g>
</defs>
<g id="surface1">
<use xlink:href="#surface5" mask="url(#mask0)"/>
<path style="fill:none;stroke-width:17.158001;stroke-linecap:butt;stroke-linejoin:miter;stroke:rgb(0%,0%,0%);stroke-opacity:1;stroke-miterlimit:4;" d="M 548.632813 735.30599 C 548.632813 740.481771 547.597656 745.657552 545.872396 750.488281 C 543.802083 754.973958 541.041667 759.459635 537.246094 763.255208 C 533.795573 766.705729 529.309896 769.466146 524.479167 771.536458 C 519.99349 773.606771 514.817708 774.641927 509.641927 774.641927 C 504.466146 774.641927 499.290365 773.606771 494.804688 771.536458 C 489.973958 769.466146 485.488281 766.705729 482.03776 763.255208 C 478.242188 759.459635 475.481771 754.973958 473.411458 750.488281 C 471.686198 745.657552 470.651042 740.481771 470.651042 735.30599 C 470.651042 730.130208 471.686198 725.299479 473.411458 720.46875 C 475.481771 715.638021 478.242188 711.497396 482.03776 707.701823 C 485.488281 704.251302 489.973958 701.145833 494.804688 699.420573 C 499.290365 697.35026 504.466146 696.315104 509.641927 696.315104 C 514.817708 696.315104 519.99349 697.35026 524.479167 699.420573 C 529.309896 701.145833 533.795573 704.251302 537.246094 707.701823 C 541.041667 711.497396 543.802083 715.638021 545.872396 720.46875 C 547.597656 725.299479 548.632813 730.130208 548.632813 735.30599 Z M 548.632813 735.30599 " transform="matrix(0.0113208,0,0,0.0113208,0,0)"/>
<path style=" stroke:none;fill-rule:nonzero;fill:rgb(0%,0%,0%);fill-opacity:1;" d="M 4.5625 8.195312 L 4.5625 8.457031 L 5.324219 8.457031 L 5.324219 8.195312 Z M 6.214844 8.195312 L 6.214844 8.457031 L 6.976562 8.457031 L 6.976562 8.195312 Z M 6.214844 8.195312 "/>
<path style="fill:none;stroke-width:29.51;stroke-linecap:butt;stroke-linejoin:miter;stroke:rgb(0%,0%,0%);stroke-opacity:1;stroke-miterlimit:4;" d="M 509.641927 696.315104 L 509.641927 254.99349 " transform="matrix(0.0113208,0,0,0.0113208,0,0)"/>
<path style="fill:none;stroke-width:27.5224;stroke-linecap:butt;stroke-linejoin:miter;stroke:rgb(0%,0%,0%);stroke-opacity:1;stroke-miterlimit:4;" d="M 371.966146 385.768229 L 647.317708 385.768229 " transform="matrix(0.0113208,0,0,0.0113208,0,0)"/>
</g>
</svg>
