<?xml version="1.0" encoding="UTF-8"?>
<svg xmlns="http://www.w3.org/2000/svg" xmlns:xlink="http://www.w3.org/1999/xlink" width="48" height="48" viewBox="0 0 48 48">
<defs>
<filter id="filter-remove-color" x="0%" y="0%" width="100%" height="100%">
<feColorMatrix color-interpolation-filters="sRGB" values="0 0 0 0 1 0 0 0 0 1 0 0 0 0 1 0 0 0 1 0" />
</filter>
<mask id="mask-0">
<g filter="url(#filter-remove-color)">
<rect x="-4.8" y="-4.8" width="57.6" height="57.6" fill="rgb(0%, 0%, 0%)" fill-opacity="0.372"/>
</g>
</mask>
<clipPath id="clip-0">
<rect x="0" y="0" width="48" height="48"/>
</clipPath>
<g id="source-6" clip-path="url(#clip-0)">
<path fill-rule="nonzero" fill="rgb(89.411765%, 89.411765%, 89.411765%)" fill-opacity="1" d="M 24 14.105469 C 18.566406 14.105469 14.105469 18.5625 14.105469 24 C 14.105469 29.433594 18.566406 33.894531 24 33.894531 C 29.4375 33.894531 33.894531 29.433594 33.894531 24 C 33.894531 18.5625 29.4375 14.105469 24 14.105469 Z M 24 19.636719 C 26.449219 19.636719 28.363281 21.550781 28.363281 24 C 28.363281 26.449219 26.449219 28.363281 24 28.363281 C 21.550781 28.363281 19.636719 26.449219 19.636719 24 C 19.636719 21.550781 21.550781 19.636719 24 19.636719 Z M 24 19.636719 "/>
</g>
</defs>
<g mask="url(#mask-0)">
<use xlink:href="#source-6"/>
</g>
<path fill="none" stroke-width="30.629" stroke-linecap="round" stroke-linejoin="miter" stroke="rgb(0%, 0%, 0%)" stroke-opacity="1" stroke-miterlimit="4" d="M 696.918945 530 C 696.918945 574.25293 679.321289 616.694336 648.007813 648.007813 C 616.694336 679.321289 574.25293 696.918945 530 696.918945 C 485.74707 696.918945 443.305664 679.321289 411.992188 648.007813 C 380.678711 616.694336 363.081055 574.25293 363.081055 530 C 363.081055 485.74707 380.678711 443.305664 411.992188 411.992188 C 443.305664 380.678711 485.74707 363.081055 530 363.081055 C 574.25293 363.081055 616.694336 380.678711 648.007813 411.992188 C 679.321289 443.305664 696.918945 485.74707 696.918945 530 Z M 696.918945 530 " transform="matrix(0.045283, 0, 0, 0.045283, 0, 0)"/>
</svg>
