<?xml version="1.0" encoding="UTF-8"?>
<svg xmlns="http://www.w3.org/2000/svg" xmlns:xlink="http://www.w3.org/1999/xlink" width="48" height="48" viewBox="0 0 48 48">
<defs>
<filter id="filter-remove-color" x="0%" y="0%" width="100%" height="100%">
<feColorMatrix color-interpolation-filters="sRGB" values="0 0 0 0 1 0 0 0 0 1 0 0 0 0 1 0 0 0 1 0" />
</filter>
<mask id="mask-0">
<g filter="url(#filter-remove-color)">
<rect x="-4.8" y="-4.8" width="57.6" height="57.6" fill="rgb(0%, 0%, 0%)" fill-opacity="0.372"/>
</g>
</mask>
<clipPath id="clip-0">
<rect x="0" y="0" width="48" height="48"/>
</clipPath>
<g id="source-6" clip-path="url(#clip-0)">
<path fill-rule="nonzero" fill="rgb(89.411765%, 89.411765%, 89.411765%)" fill-opacity="1" d="M 22.515625 9.574219 C 22.265625 9.574219 22.015625 9.625 21.78125 9.722656 C 21.550781 9.820312 21.335938 9.960938 21.160156 10.136719 C 20.980469 10.316406 20.839844 10.527344 20.742188 10.761719 C 20.644531 10.996094 20.597656 11.242188 20.597656 11.496094 L 20.597656 30.074219 C 20.304688 30.300781 20.039062 30.5625 19.820312 30.859375 L 18.261719 30.859375 C 18.007812 30.859375 17.761719 30.910156 17.527344 31.003906 C 17.292969 31.101562 17.082031 31.242188 16.902344 31.421875 C 16.726562 31.601562 16.585938 31.8125 16.488281 32.042969 C 16.390625 32.277344 16.339844 32.527344 16.339844 32.777344 L 16.339844 33.824219 C 16.339844 34.074219 16.390625 34.324219 16.488281 34.558594 C 16.585938 34.792969 16.726562 35.003906 16.902344 35.179688 C 17.082031 35.359375 17.292969 35.5 17.527344 35.597656 C 17.761719 35.695312 18.007812 35.742188 18.261719 35.742188 L 19.824219 35.742188 C 20.574219 36.738281 21.757812 37.378906 23.085938 37.378906 C 24.410156 37.378906 25.597656 36.738281 26.34375 35.742188 L 27.90625 35.742188 C 28.160156 35.742188 28.410156 35.695312 28.640625 35.597656 C 28.875 35.5 29.085938 35.359375 29.265625 35.179688 C 29.441406 35.003906 29.585938 34.792969 29.679688 34.558594 C 29.777344 34.324219 29.828125 34.074219 29.828125 33.824219 L 29.828125 32.777344 C 29.828125 32.527344 29.777344 32.277344 29.679688 32.042969 C 29.585938 31.8125 29.441406 31.601562 29.265625 31.421875 C 29.085938 31.242188 28.875 31.101562 28.640625 31.003906 C 28.410156 30.910156 28.160156 30.859375 27.90625 30.859375 L 26.347656 30.859375 C 26.101562 30.535156 25.816406 30.25 25.488281 30.011719 L 25.488281 20.203125 C 25.632812 20.253906 25.78125 20.3125 25.945312 20.390625 C 26.667969 20.726562 27.5625 21.449219 28.597656 22.34375 C 30.679688 24.148438 33.761719 26.757812 38.277344 26.183594 C 38.253906 26.183594 38.257812 26.179688 38.277344 26.171875 L 38.277344 26.183594 C 38.277344 26.183594 38.28125 26.183594 38.28125 26.183594 L 38.28125 26.167969 C 38.386719 26.117188 38.992188 25.925781 39.101562 25.910156 C 39.175781 25.828125 39.675781 25.425781 39.777344 25.371094 C 39.816406 25.265625 40.144531 24.710938 40.214844 24.625 C 40.214844 24.492188 40.363281 23.644531 40.371094 23.769531 L 40.332031 21.558594 C 40.332031 21.558594 40.332031 21.558594 40.332031 21.554688 C 40.332031 21.714844 40.132812 20.636719 40.1875 20.785156 C 40.242188 20.933594 39.699219 19.976562 39.800781 20.101562 C 39.898438 20.226562 39.078125 19.496094 39.214844 19.582031 C 39.347656 19.664062 38.378906 19.257812 38.496094 19.28125 L 38.496094 19.277344 C 36.523438 18.808594 34.332031 16.761719 31.988281 14.515625 C 30.816406 13.390625 29.582031 12.234375 28.121094 11.332031 C 27.144531 10.730469 26.035156 10.242188 24.816406 10.039062 C 24.46875 9.742188 24.027344 9.578125 23.570312 9.574219 Z M 23.085938 32.761719 C 23.339844 32.761719 23.625 33.046875 23.625 33.300781 C 23.625 33.554688 23.339844 33.839844 23.085938 33.839844 C 22.828125 33.839844 22.546875 33.558594 22.546875 33.300781 C 22.546875 33.042969 22.828125 32.761719 23.085938 32.761719 Z M 23.085938 32.761719 "/>
</g>
</defs>
<g mask="url(#mask-0)">
<use xlink:href="#source-6"/>
</g>
<path fill="none" stroke-width="17.158001" stroke-linecap="butt" stroke-linejoin="miter" stroke="rgb(0%, 0%, 0%)" stroke-opacity="1" stroke-miterlimit="4" d="M 548.719076 735.478516 C 548.719076 740.568034 547.770182 745.657552 545.786133 750.402018 C 543.802083 755.146484 540.955404 759.459635 537.332357 763.082682 C 533.623047 766.705729 529.396159 769.638672 524.651693 771.536458 C 519.907227 773.520508 514.817708 774.555664 509.641927 774.555664 C 504.552409 774.555664 499.462891 773.520508 494.718424 771.536458 C 489.973958 769.638672 485.660807 766.705729 482.03776 763.082682 C 478.414714 759.459635 475.481771 755.146484 473.497721 750.402018 C 471.599935 745.657552 470.564779 740.568034 470.564779 735.478516 C 470.564779 730.302734 471.599935 725.213216 473.497721 720.46875 C 475.481771 715.724284 478.414714 711.411133 482.03776 707.788086 C 485.660807 704.165039 489.973958 701.318359 494.718424 699.33431 C 499.462891 697.35026 504.552409 696.315104 509.641927 696.315104 C 514.817708 696.315104 519.907227 697.35026 524.651693 699.33431 C 529.396159 701.318359 533.623047 704.165039 537.332357 707.788086 C 540.955404 711.411133 543.802083 715.724284 545.786133 720.46875 C 547.770182 725.213216 548.719076 730.302734 548.719076 735.478516 Z M 548.719076 735.478516 " transform="matrix(0.045283, 0, 0, 0.045283, 0, 0)"/>
<path fill-rule="nonzero" fill="rgb(0%, 0%, 0%)" fill-opacity="1" d="M 18.253906 32.78125 L 18.253906 33.824219 L 21.304688 33.824219 L 21.304688 32.78125 Z M 24.851562 32.78125 L 24.851562 33.824219 L 27.902344 33.824219 L 27.902344 32.78125 Z M 24.851562 32.78125 "/>
<path fill="none" stroke-width="23.200001" stroke-linecap="butt" stroke-linejoin="miter" stroke="rgb(0%, 0%, 0%)" stroke-opacity="1" stroke-miterlimit="4" d="M 508.693034 696.228841 L 508.693034 253.87207 " transform="matrix(0.045283, 0, 0, 0.045283, 0, 0)"/>
<path fill="none" stroke-width="20.700001" stroke-linecap="round" stroke-linejoin="round" stroke="rgb(0%, 0%, 0%)" stroke-opacity="1" stroke-miterlimit="4" d="M 510.073242 272.849935 C 628.684896 260.341797 708.133138 446.152344 837.700195 477.034505 L 838.562826 525.945638 C 682.254232 545.786133 644.816081 356.352539 507.485352 396.464844 " transform="matrix(0.045283, 0, 0, 0.045283, 0, 0)"/>
<path fill="none" stroke-width="19.4" stroke-linecap="butt" stroke-linejoin="miter" stroke="rgb(0%, 0%, 0%)" stroke-opacity="1" stroke-miterlimit="4" d="M 566.575521 391.289063 L 588.572591 293.466797 " transform="matrix(0.045283, 0, 0, 0.045283, 0, 0)"/>
<path fill="none" stroke-width="19.4" stroke-linecap="butt" stroke-linejoin="miter" stroke="rgb(0%, 0%, 0%)" stroke-opacity="1" stroke-miterlimit="4" d="M 619.282227 415.615234 L 659.394531 351.694336 " transform="matrix(0.045283, 0, 0, 0.045283, 0, 0)"/>
<path fill="none" stroke-width="19.4" stroke-linecap="butt" stroke-linejoin="miter" stroke="rgb(0%, 0%, 0%)" stroke-opacity="1" stroke-miterlimit="4" d="M 673.800456 458.142904 L 711.238607 401.985677 " transform="matrix(0.045283, 0, 0, 0.045283, 0, 0)"/>
<path fill="none" stroke-width="19.4" stroke-linecap="butt" stroke-linejoin="miter" stroke="rgb(0%, 0%, 0%)" stroke-opacity="1" stroke-miterlimit="4" d="M 722.452799 492.906901 L 754.628906 439.337565 " transform="matrix(0.045283, 0, 0, 0.045283, 0, 0)"/>
<path fill="none" stroke-width="19.4" stroke-linecap="butt" stroke-linejoin="miter" stroke="rgb(0%, 0%, 0%)" stroke-opacity="1" stroke-miterlimit="4" d="M 779.817708 517.664388 L 797.242839 464.095052 " transform="matrix(0.045283, 0, 0, 0.045283, 0, 0)"/>
</svg>
