<?xml version="1.0" encoding="UTF-8"?>
<svg xmlns="http://www.w3.org/2000/svg" xmlns:xlink="http://www.w3.org/1999/xlink" width="12" height="12" viewBox="0 0 12 12" version="1.1">
<defs>
<filter id="alpha" filterUnits="objectBoundingBox" x="0%" y="0%" width="100%" height="100%">
  <feColorMatrix type="matrix" in="SourceGraphic" values="0 0 0 0 1 0 0 0 0 1 0 0 0 0 1 0 0 0 1 0"/>
</filter>
<mask id="mask0">
  <g filter="url(#alpha)">
<rect x="0" y="0" width="12" height="12" style="fill:rgb(0%,0%,0%);fill-opacity:0.426087;stroke:none;"/>
  </g>
</mask>
<clipPath id="clip1">
  <rect x="0" y="0" width="12" height="12"/>
</clipPath>
<g id="surface5" clip-path="url(#clip1)">
<path style=" stroke:none;fill-rule:nonzero;fill:rgb(67.450982%,84.705883%,95.294118%);fill-opacity:1;" d="M 7.941406 -0.0078125 C 7.253906 -0.0078125 6.691406 0.554688 6.691406 1.242188 C 6.691406 1.535156 6.792969 1.800781 6.960938 2.015625 C 6.539062 2.214844 6.246094 2.644531 6.246094 3.140625 C 6.246094 3.578125 6.472656 3.960938 6.8125 4.183594 L 5.304688 10.691406 C 5.292969 10.726562 5.292969 10.765625 5.300781 10.800781 C 5.304688 10.839844 5.320312 10.875 5.339844 10.90625 C 5.359375 10.9375 5.386719 10.964844 5.414062 10.988281 C 5.445312 11.007812 5.480469 11.023438 5.515625 11.03125 L 6.003906 11.144531 C 6.042969 11.152344 6.082031 11.152344 6.117188 11.148438 C 6.15625 11.140625 6.191406 11.125 6.222656 11.105469 C 6.253906 11.085938 6.28125 11.058594 6.304688 11.027344 C 6.324219 10.996094 6.339844 10.960938 6.347656 10.925781 L 7.710938 4.371094 C 8.296875 4.269531 8.746094 3.753906 8.746094 3.140625 C 8.746094 2.851562 8.644531 2.582031 8.476562 2.371094 C 8.898438 2.167969 9.191406 1.738281 9.191406 1.242188 C 9.191406 0.554688 8.628906 -0.0078125 7.941406 -0.0078125 Z M 7.941406 -0.0078125 "/>
</g>
</defs>
<g id="surface1">
<use xlink:href="#surface5" mask="url(#mask0)"/>
<path style=" stroke:none;fill-rule:nonzero;fill:rgb(0%,0%,0%);fill-opacity:1;" d="M 8.90625 1.242188 C 8.90625 1.367188 8.882812 1.492188 8.835938 1.609375 C 8.785156 1.726562 8.714844 1.835938 8.625 1.925781 C 8.535156 2.015625 8.429688 2.085938 8.3125 2.132812 C 8.195312 2.183594 8.070312 2.207031 7.941406 2.207031 C 7.816406 2.207031 7.6875 2.183594 7.570312 2.132812 C 7.453125 2.085938 7.347656 2.015625 7.257812 1.925781 C 7.167969 1.835938 7.097656 1.726562 7.050781 1.609375 C 7 1.492188 6.976562 1.367188 6.976562 1.242188 C 6.976562 1.113281 7 0.988281 7.050781 0.871094 C 7.097656 0.753906 7.167969 0.648438 7.257812 0.558594 C 7.347656 0.46875 7.453125 0.398438 7.570312 0.347656 C 7.6875 0.300781 7.816406 0.273438 7.941406 0.273438 C 8.070312 0.273438 8.195312 0.300781 8.3125 0.347656 C 8.429688 0.398438 8.535156 0.46875 8.625 0.558594 C 8.714844 0.648438 8.785156 0.753906 8.835938 0.871094 C 8.882812 0.988281 8.90625 1.113281 8.90625 1.242188 Z M 8.90625 1.242188 "/>
<path style=" stroke:none;fill-rule:nonzero;fill:rgb(0%,0%,0%);fill-opacity:1;" d="M 8.460938 3.140625 C 8.460938 3.269531 8.4375 3.394531 8.390625 3.511719 C 8.339844 3.628906 8.269531 3.734375 8.179688 3.824219 C 8.089844 3.914062 7.984375 3.984375 7.867188 4.035156 C 7.75 4.082031 7.625 4.105469 7.496094 4.105469 C 7.371094 4.105469 7.242188 4.082031 7.125 4.035156 C 7.007812 3.984375 6.902344 3.914062 6.8125 3.824219 C 6.722656 3.734375 6.652344 3.628906 6.605469 3.511719 C 6.554688 3.394531 6.53125 3.269531 6.53125 3.140625 C 6.53125 3.015625 6.554688 2.886719 6.605469 2.769531 C 6.652344 2.652344 6.722656 2.546875 6.8125 2.457031 C 6.902344 2.367188 7.007812 2.296875 7.125 2.25 C 7.242188 2.199219 7.371094 2.175781 7.496094 2.175781 C 7.625 2.175781 7.75 2.199219 7.867188 2.25 C 7.984375 2.296875 8.089844 2.367188 8.179688 2.457031 C 8.269531 2.546875 8.339844 2.652344 8.390625 2.769531 C 8.4375 2.886719 8.460938 3.015625 8.460938 3.140625 Z M 8.460938 3.140625 "/>
<path style=" stroke:none;fill-rule:nonzero;fill:rgb(0%,0%,0%);fill-opacity:1;" d="M 7.578125 2.132812 L 5.582031 10.753906 L 6.070312 10.867188 L 7.871094 2.203125 Z M 7.578125 2.132812 "/>
</g>
</svg>
