<?xml version="1.0" encoding="UTF-8"?>
<svg xmlns="http://www.w3.org/2000/svg" xmlns:xlink="http://www.w3.org/1999/xlink" width="12" height="12" viewBox="0 0 12 12">
<path fill-rule="nonzero" fill="rgb(99.607843%, 99.607843%, 99.607843%)" fill-opacity="0.788732" d="M 1.949219 2.875 C 1.691406 2.875 1.445312 2.976562 1.261719 3.160156 C 1.082031 3.339844 0.976562 3.589844 0.976562 3.847656 L 0.976562 8.152344 C 0.976562 8.410156 1.082031 8.660156 1.261719 8.839844 C 1.445312 9.023438 1.691406 9.125 1.949219 9.125 L 2.75 9.125 C 2.980469 9.125 3.207031 9.042969 3.382812 8.890625 C 3.558594 8.738281 3.675781 8.527344 3.710938 8.296875 L 3.828125 8.296875 C 3.863281 8.527344 3.980469 8.738281 4.15625 8.890625 C 4.332031 9.042969 4.554688 9.125 4.789062 9.125 L 5.585938 9.125 C 5.726562 9.125 5.871094 9.09375 6 9.03125 C 6.128906 9.09375 6.269531 9.125 6.414062 9.125 L 7.214844 9.125 C 7.445312 9.125 7.671875 9.042969 7.847656 8.890625 C 8.023438 8.738281 8.140625 8.527344 8.171875 8.296875 L 8.292969 8.296875 C 8.328125 8.527344 8.441406 8.738281 8.617188 8.890625 C 8.796875 9.042969 9.019531 9.125 9.253906 9.125 L 10.050781 9.125 C 10.308594 9.125 10.554688 9.023438 10.738281 8.839844 C 10.917969 8.660156 11.023438 8.410156 11.023438 8.152344 L 11.023438 3.847656 C 11.023438 3.589844 10.917969 3.339844 10.738281 3.160156 C 10.554688 2.976562 10.308594 2.875 10.050781 2.875 L 8.980469 2.875 C 8.835938 2.875 8.695312 2.90625 8.566406 2.964844 C 8.4375 3.027344 8.324219 3.113281 8.234375 3.222656 C 8.140625 3.113281 8.027344 3.027344 7.898438 2.964844 C 7.769531 2.90625 7.628906 2.875 7.488281 2.875 L 6.414062 2.875 C 6.273438 2.875 6.128906 2.90625 6 2.96875 C 5.871094 2.90625 5.730469 2.875 5.585938 2.875 L 4.515625 2.875 C 4.371094 2.875 4.230469 2.90625 4.101562 2.964844 C 3.972656 3.027344 3.859375 3.113281 3.769531 3.222656 C 3.679688 3.113281 3.5625 3.027344 3.433594 2.964844 C 3.304688 2.90625 3.164062 2.875 3.023438 2.875 Z M 1.949219 2.875 "/>
<path fill-rule="nonzero" fill="rgb(42.352941%, 0%, 23.921569%)" fill-opacity="1" d="M 1.949219 3.847656 L 3.023438 3.847656 L 3.765625 6.152344 L 4.515625 3.847656 L 5.585938 3.847656 L 5.585938 8.152344 L 4.789062 8.152344 L 4.789062 5.003906 L 4.035156 7.324219 L 3.5 7.324219 L 2.75 5.003906 L 2.75 8.152344 L 1.949219 8.152344 L 1.949219 3.847656 "/>
<path fill-rule="nonzero" fill="rgb(42.352941%, 0%, 23.921569%)" fill-opacity="1" d="M 6.414062 3.847656 L 7.488281 3.847656 L 8.230469 6.152344 L 8.980469 3.847656 L 10.050781 3.847656 L 10.050781 8.152344 L 9.253906 8.152344 L 9.253906 5.003906 L 8.5 7.324219 L 7.964844 7.324219 L 7.214844 5.003906 L 7.214844 8.152344 L 6.414062 8.152344 L 6.414062 3.847656 "/>
</svg>
