<?xml version="1.0" encoding="UTF-8"?>
<svg xmlns="http://www.w3.org/2000/svg" xmlns:xlink="http://www.w3.org/1999/xlink" width="12" height="12" viewBox="0 0 12 12" version="1.1">
<g id="surface1">
<path style=" stroke:none;fill-rule:nonzero;fill:rgb(0%,0%,0%);fill-opacity:1;" d="M 7.886719 5.054688 C 8.023438 5.054688 8.140625 5.007812 8.234375 4.910156 C 8.332031 4.816406 8.378906 4.699219 8.378906 4.5625 C 8.378906 4.425781 8.332031 4.308594 8.234375 4.210938 C 8.140625 4.117188 8.023438 4.066406 7.886719 4.066406 C 7.753906 4.066406 7.636719 4.117188 7.539062 4.210938 C 7.441406 4.308594 7.390625 4.425781 7.390625 4.5625 C 7.390625 4.699219 7.441406 4.816406 7.539062 4.910156 C 7.636719 5.007812 7.753906 5.054688 7.886719 5.054688 Z M 8.542969 8.4375 L 8.25 8.214844 C 8.191406 8.3125 8.078125 8.386719 7.964844 8.386719 C 7.910156 8.386719 7.859375 8.371094 7.808594 8.34375 L 2.609375 5.269531 L 2.390625 5.640625 L 7.578125 8.691406 C 7.738281 8.78125 7.785156 8.773438 7.96875 8.777344 C 8.160156 8.777344 8.445312 8.601562 8.542969 8.4375 Z M 4.1875 6.0625 C 4.21875 6.070312 4.257812 6.0625 4.3125 6.042969 L 5.734375 5.578125 C 5.871094 5.527344 5.949219 5.453125 5.960938 5.351562 C 5.976562 5.246094 5.980469 5.191406 5.976562 5.179688 L 5.765625 4.40625 L 6.617188 4.914062 L 6.722656 5.660156 C 6.742188 5.792969 6.796875 5.886719 6.890625 5.9375 L 8.003906 6.585938 C 8.042969 6.613281 8.082031 6.625 8.121094 6.625 C 8.195312 6.625 8.253906 6.597656 8.304688 6.546875 C 8.355469 6.496094 8.378906 6.433594 8.378906 6.367188 C 8.378906 6.269531 8.335938 6.195312 8.246094 6.144531 L 7.363281 5.628906 L 7.265625 4.304688 C 7.25 4.125 7.175781 4 7.039062 3.921875 L 5.765625 3.167969 C 5.644531 3.101562 5.523438 3.066406 5.394531 3.066406 C 5.164062 3.066406 4.984375 3.160156 4.859375 3.347656 C 4.785156 3.460938 4.746094 3.582031 4.746094 3.714844 C 4.746094 3.773438 4.753906 3.832031 4.769531 3.890625 L 5.117188 5.019531 L 4.078125 5.351562 C 3.929688 5.394531 3.847656 5.5 3.828125 5.671875 C 3.796875 5.90625 3.917969 6.035156 4.1875 6.0625 Z M 4.1875 6.0625 "/>
</g>
</svg>
