<?xml version="1.0" encoding="UTF-8"?>
<svg xmlns="http://www.w3.org/2000/svg" xmlns:xlink="http://www.w3.org/1999/xlink" width="24" height="24" viewBox="0 0 24 24">
<defs>
<filter id="filter-remove-color" x="0%" y="0%" width="100%" height="100%">
<feColorMatrix color-interpolation-filters="sRGB" values="0 0 0 0 1 0 0 0 0 1 0 0 0 0 1 0 0 0 1 0" />
</filter>
<mask id="mask-0">
<g filter="url(#filter-remove-color)">
<rect x="-2.4" y="-2.4" width="28.8" height="28.8" fill="rgb(0%, 0%, 0%)" fill-opacity="0.617391"/>
</g>
</mask>
<clipPath id="clip-0">
<rect x="0" y="0" width="24" height="24"/>
</clipPath>
<g id="source-6" clip-path="url(#clip-0)">
<path fill-rule="nonzero" fill="rgb(99.607843%, 99.607843%, 99.607843%)" fill-opacity="1" d="M 21.199219 12 C 21.199219 14.460938 20.230469 16.824219 18.507812 18.566406 C 16.78125 20.304688 14.441406 21.285156 12 21.285156 C 9.558594 21.285156 7.21875 20.304688 5.492188 18.566406 C 3.769531 16.824219 2.800781 14.460938 2.800781 12 C 2.800781 9.539062 3.769531 7.175781 5.492188 5.433594 C 7.21875 3.695312 9.558594 2.714844 12 2.714844 C 14.441406 2.714844 16.78125 3.695312 18.507812 5.433594 C 20.230469 7.175781 21.199219 9.539062 21.199219 12 Z M 21.199219 12 "/>
</g>
</defs>
<g mask="url(#mask-0)">
<use xlink:href="#source-6"/>
</g>
<path fill="none" stroke-width="12.0298" stroke-linecap="round" stroke-linejoin="round" stroke="rgb(0%, 0%, 0%)" stroke-opacity="1" stroke-miterlimit="10" d="M 390.914714 180.494792 L 390.914714 155.195312 L 288.678385 144.433594 C 283.863932 143.772786 280.843099 149.248047 283.203125 152.835286 L 306.708984 180.494792 " transform="matrix(0.0413793, 0, 0, 0.0413793, 0, 0)"/>
<path fill="none" stroke-width="12.0298" stroke-linecap="round" stroke-linejoin="round" stroke="rgb(0%, 0%, 0%)" stroke-opacity="1" stroke-miterlimit="10" d="M 208.059896 312.845052 L 150.947266 312.845052 C 147.265625 312.845052 144.905599 311.617839 144.339193 308.030599 L 126.214193 219.576823 C 125.647786 215.328776 126.875 210.514323 133.483073 210.514323 L 188.802083 210.514323 C 193.05013 210.514323 196.070964 212.402344 196.63737 215.989583 L 214.667969 306.236979 C 215.234375 309.163411 213.440755 312.845052 208.059896 312.845052 Z M 208.059896 312.845052 " transform="matrix(0.0413793, 0, 0, 0.0413793, 0, 0)"/>
<path fill="none" stroke-width="12.0298" stroke-linecap="round" stroke-linejoin="round" stroke="rgb(0%, 0%, 0%)" stroke-opacity="1" stroke-miterlimit="10" d="M 131.028646 211.17513 L 205.605469 180.494792 C 208.626302 179.928385 211.647135 181.722005 212.307943 184.648438 L 232.698568 287.545573 " transform="matrix(0.0413793, 0, 0, 0.0413793, 0, 0)"/>
<path fill="none" stroke-width="12.0298" stroke-linecap="round" stroke-linejoin="round" stroke="rgb(0%, 0%, 0%)" stroke-opacity="1" stroke-miterlimit="10" d="M 380.719401 270.742188 L 311.523438 270.742188 C 301.894531 270.742188 288.017578 276.123047 280.843099 282.164714 L 224.296875 332.669271 L 204.472656 312.845052 L 147.265625 312.845052 L 207.49349 378.359375 C 211.647135 382.607422 217.688802 384.967448 223.069661 384.967448 C 228.544922 384.967448 233.359375 383.173828 237.513021 379.586589 L 269.986979 351.266276 L 269.986979 433.111979 L 414.326172 433.111979 L 414.326172 305.009766 C 414.986979 285.751953 399.977214 270.742188 380.719401 270.742188 Z M 380.719401 270.742188 " transform="matrix(0.0413793, 0, 0, 0.0413793, 0, 0)"/>
<path fill="none" stroke-width="12.0298" stroke-linecap="round" stroke-linejoin="round" stroke="rgb(0%, 0%, 0%)" stroke-opacity="1" stroke-miterlimit="10" d="M 290.472005 433.678385 L 408.378906 284.52474 " transform="matrix(0.0413793, 0, 0, 0.0413793, 0, 0)"/>
<path fill="none" stroke-width="12.0298" stroke-linecap="round" stroke-linejoin="round" stroke="rgb(0%, 0%, 0%)" stroke-opacity="1" stroke-miterlimit="10" d="M 270.647786 402.998047 L 376.471354 271.308594 " transform="matrix(0.0413793, 0, 0, 0.0413793, 0, 0)"/>
<path fill="none" stroke-width="12.0298" stroke-linecap="round" stroke-linejoin="round" stroke="rgb(0%, 0%, 0%)" stroke-opacity="1" stroke-miterlimit="10" d="M 306.708984 204.567057 C 306.708984 227.978516 325.30599 246.669922 348.811849 246.669922 C 372.223307 246.669922 390.914714 227.978516 390.914714 204.567057 " transform="matrix(0.0413793, 0, 0, 0.0413793, 0, 0)"/>
<path fill="none" stroke-width="12.0298" stroke-linecap="round" stroke-linejoin="round" stroke="rgb(0%, 0%, 0%)" stroke-opacity="1" stroke-miterlimit="10" d="M 390.914714 204.567057 L 286.223958 204.567057 C 283.203125 204.567057 281.409505 200.979818 283.863932 198.525391 L 306.708984 180.494792 L 390.914714 180.494792 Z M 390.914714 204.567057 " transform="matrix(0.0413793, 0, 0, 0.0413793, 0, 0)"/>
<path fill="none" stroke-width="27.083" stroke-linecap="round" stroke-linejoin="miter" stroke="rgb(7.058824%, 30.196078%, 78.431373%)" stroke-opacity="1" stroke-miterlimit="4" d="M 512.314453 290 C 512.314453 349.472656 488.902995 406.585286 447.272135 448.688151 C 405.546875 490.696615 349.000651 514.391276 290 514.391276 C 230.999349 514.391276 174.453125 490.696615 132.727865 448.688151 C 91.097005 406.585286 67.685547 349.472656 67.685547 290 C 67.685547 230.527344 91.097005 173.414714 132.727865 131.311849 C 174.453125 89.303385 230.999349 65.608724 290 65.608724 C 349.000651 65.608724 405.546875 89.303385 447.272135 131.311849 C 488.902995 173.414714 512.314453 230.527344 512.314453 290 Z M 512.314453 290 " transform="matrix(0.0413793, 0, 0, 0.0413793, 0, 0)"/>
</svg>
