<svg width="32" height="32" viewBox="0 0 580 580" fill="none" xmlns="http://www.w3.org/2000/svg">
<path opacity="0.426087" d="M155.969 300.063C152.16 300.062 148.433 301.174 145.247 303.261C142.061 305.349 139.553 308.321 138.031 311.812L62.6562 484.594H61C55.812 484.595 50.8368 486.656 47.1684 490.325C43.5 493.993 41.4386 498.968 41.4375 504.156V529.156C41.4386 534.344 43.5 539.319 47.1684 542.988C50.8368 546.656 55.812 548.718 61 548.719H229C240.109 567.356 260.301 579.938 283.375 579.938C306.449 579.938 326.641 567.356 337.75 548.719H494.562C499.75 548.718 504.726 546.656 508.394 542.988C512.063 539.319 514.124 534.344 514.125 529.156V504.156C514.124 498.968 512.063 493.993 508.394 490.325C504.726 486.656 499.75 484.595 494.562 484.594H486.5L441.75 340.594C440.608 336.924 438.41 333.672 435.431 331.243C432.453 328.815 428.825 327.317 425 326.938L157.906 300.156C157.262 300.093 156.616 300.062 155.969 300.063V300.063Z" fill="#8D8D8D"/>
<path d="M155.811 319.548L71.7153 512.315L474.565 512.538L422.897 346.312L155.811 319.548Z" fill="#FFD400"/>
<path d="M60.8232 516.57H494.405" stroke="black" stroke-width="25"/>
<path d="M316.803 516.401C316.803 525.314 313.262 533.862 306.96 540.164C300.658 546.466 292.11 550.007 283.197 550.007C274.285 550.007 265.737 546.466 259.435 540.164C253.132 533.862 249.592 525.314 249.592 516.401C249.592 507.489 253.132 498.941 259.435 492.639C265.737 486.336 274.285 482.796 283.197 482.796C292.11 482.796 300.658 486.336 306.96 492.639C313.262 498.941 316.803 507.489 316.803 516.401V516.401Z" fill="#FEFEFE" stroke="black" stroke-width="20.5723" stroke-miterlimit="10" stroke-linecap="round" stroke-linejoin="round"/>
</svg>
