<?xml version="1.0" encoding="UTF-8"?>
<svg xmlns="http://www.w3.org/2000/svg" xmlns:xlink="http://www.w3.org/1999/xlink" width="12" height="12" viewBox="0 0 12 12" version="1.1">
<g id="surface1">
<path style=" stroke:none;fill-rule:nonzero;fill:rgb(0%,0%,0%);fill-opacity:1;" d="M 4.269531 3.570312 C 4.109375 3.574219 3.960938 3.714844 3.960938 3.871094 L 3.960938 8.257812 C 3.960938 8.414062 4.109375 8.558594 4.269531 8.558594 L 4.839844 8.558594 C 5 8.558594 5.148438 8.414062 5.148438 8.257812 L 5.148438 6.773438 L 6.25 6.773438 C 6.90625 6.773438 7.425781 6.640625 7.75 6.285156 C 8.03125 5.972656 8.175781 5.574219 8.175781 5.140625 C 8.175781 4.882812 8.125 4.636719 8.015625 4.414062 C 7.910156 4.195312 7.761719 4.007812 7.570312 3.875 C 7.382812 3.742188 7.160156 3.660156 6.914062 3.617188 C 6.914062 3.617188 6.910156 3.617188 6.910156 3.617188 C 6.722656 3.585938 6.496094 3.570312 6.199219 3.570312 Z M 5.148438 4.6875 L 6.246094 4.6875 C 6.496094 4.6875 6.667969 4.707031 6.699219 4.714844 C 6.78125 4.738281 6.832031 4.777344 6.886719 4.855469 C 6.941406 4.933594 6.972656 5.023438 6.972656 5.160156 C 6.972656 5.351562 6.925781 5.449219 6.835938 5.527344 C 6.769531 5.585938 6.589844 5.65625 6.257812 5.65625 L 5.148438 5.65625 Z M 5.148438 4.6875 "/>
</g>
</svg>
