<?xml version="1.0" encoding="UTF-8"?>
<svg xmlns="http://www.w3.org/2000/svg" xmlns:xlink="http://www.w3.org/1999/xlink" width="12" height="12" viewBox="0 0 12 12" version="1.1">
<g id="surface1">
<path style=" stroke:none;fill-rule:nonzero;fill:rgb(99.607843%,99.607843%,99.607843%);fill-opacity:1;" d="M 6 3.039062 C 5.621094 3.039062 5.253906 3.085938 4.90625 3.179688 C 3.5625 3.53125 2.410156 4.589844 2.410156 6 C 2.410156 6.167969 2.429688 6.332031 2.457031 6.480469 C 2.742188 7.929688 4.25 8.960938 6 8.960938 C 7.941406 8.960938 9.589844 7.679688 9.589844 6 C 9.589844 4.320312 7.941406 3.039062 6 3.039062 Z M 6 3.039062 "/>
<path style=" stroke:none;fill-rule:nonzero;fill:rgb(81.568629%,3.921569%,17.254902%);fill-opacity:1;" d="M 6.789062 5.992188 L 5.988281 7.4375 L 5.1875 5.992188 L 5.988281 4.542969 Z M 8.402344 5.992188 L 7.601562 7.4375 L 6.800781 5.992188 L 7.601562 4.542969 Z M 5.175781 5.992188 L 4.378906 7.4375 L 3.578125 5.992188 L 4.378906 4.542969 Z M 6 3.40625 C 7.78125 3.40625 9.222656 4.566406 9.222656 6 C 9.222656 7.433594 7.78125 8.59375 6 8.59375 C 4.394531 8.59375 3.0625 7.644531 2.816406 6.410156 C 2.792969 6.285156 2.777344 6.140625 2.777344 6 C 2.777344 4.796875 3.78125 3.855469 5 3.535156 C 5.320312 3.449219 5.652344 3.40625 6 3.40625 Z M 3.019531 6.097656 C 3.078125 7.273438 4.242188 8.222656 5.71875 8.328125 C 5.84375 8.339844 5.96875 8.339844 6.09375 8.339844 C 7.558594 8.296875 8.753906 7.398438 8.921875 6.277344 C 8.941406 6.148438 8.953125 6.019531 8.949219 5.890625 C 8.941406 5.644531 8.894531 5.40625 8.792969 5.191406 C 8.414062 4.378906 7.476562 3.78125 6.34375 3.675781 C 6.195312 3.660156 6.046875 3.65625 5.894531 3.660156 C 5.691406 3.664062 5.496094 3.6875 5.304688 3.722656 C 4.386719 3.875 3.195312 4.578125 3.035156 5.746094 C 3.015625 5.867188 3.019531 6.011719 3.019531 6.097656 "/>
<path style=" stroke:none;fill-rule:nonzero;fill:rgb(81.568629%,3.921569%,17.254902%);fill-opacity:1;" d="M 6 3.40625 C 5.652344 3.40625 5.316406 3.449219 5 3.535156 C 3.78125 3.855469 2.777344 4.796875 2.777344 6 C 2.777344 6.140625 2.792969 6.28125 2.816406 6.410156 C 3.0625 7.644531 4.394531 8.59375 6 8.59375 C 7.78125 8.59375 9.222656 7.433594 9.222656 6 C 9.222656 4.566406 7.78125 3.40625 6 3.40625 Z M 5.894531 3.660156 C 6.046875 3.65625 6.195312 3.664062 6.34375 3.675781 C 7.476562 3.78125 8.414062 4.378906 8.792969 5.191406 C 8.894531 5.40625 8.945312 5.644531 8.949219 5.890625 C 8.953125 6.019531 8.941406 6.152344 8.921875 6.277344 C 8.753906 7.398438 7.558594 8.296875 6.09375 8.339844 C 5.96875 8.339844 5.84375 8.339844 5.71875 8.328125 C 4.246094 8.222656 3.078125 7.269531 3.019531 6.097656 C 3.019531 6.011719 3.015625 5.867188 3.035156 5.746094 C 3.195312 4.578125 4.386719 3.875 5.304688 3.722656 C 5.496094 3.6875 5.691406 3.664062 5.894531 3.660156 Z M 4.378906 4.542969 L 3.578125 5.992188 L 4.378906 7.4375 L 5.175781 5.992188 Z M 5.988281 4.542969 L 5.1875 5.992188 L 5.988281 7.4375 L 6.789062 5.992188 Z M 7.601562 4.542969 L 6.800781 5.992188 L 7.601562 7.4375 L 8.402344 5.992188 Z M 7.601562 4.542969 "/>
</g>
</svg>
