<svg width="32" height="32" viewBox="0 0 48 48" fill="none" xmlns="http://www.w3.org/2000/svg">
<path fill-rule="evenodd" clip-rule="evenodd" d="M24 19.5H21.75C19.6789 19.5 18 17.8211 18 15.75C18 14.7945 18.3574 13.9224 18.9458 13.2602C19.2792 12.8849 19.6869 12.577 20.1457 12.3595C19.8685 12.009 19.6679 11.5952 19.5691 11.1433C19.5239 10.936 19.5 10.7208 19.5 10.5C19.5 9.1016 20.4568 7.92667 21.7514 7.59414C21.7505 7.56288 21.75 7.5315 21.75 7.5C21.75 6.10212 22.7061 4.92755 24 4.59451C24.2397 4.53281 24.491 4.5 24.75 4.5C26.4069 4.5 27.75 5.84315 27.75 7.5C27.75 7.5315 27.7495 7.56288 27.7486 7.59414C29.0432 7.92667 30 9.1016 30 10.5C30 10.7208 29.9761 10.936 29.9309 11.1433C29.8321 11.5952 29.6315 12.009 29.3543 12.3595C29.8131 12.577 30.2208 12.8849 30.5542 13.2602C31.1426 13.9224 31.5 14.7945 31.5 15.75C31.5 17.8211 29.8211 19.5 27.75 19.5H25.5V22.5H31.5V24H24V19.5ZM21.75 18H24V6.20067C23.5516 6.46003 23.25 6.94479 23.25 7.5C23.25 7.51609 23.2502 7.53206 23.2507 7.54792C23.2724 8.24955 22.8045 8.87235 22.1246 9.04698C21.477 9.21333 21 9.80285 21 10.5C21 10.8527 21.1199 11.1732 21.3222 11.429C21.6057 11.7875 21.7103 12.2557 21.6064 12.7008C21.5024 13.1458 21.2012 13.5192 20.7882 13.715C20.0236 14.0774 19.5 14.854 19.5 15.75C19.5 16.9926 20.5074 18 21.75 18Z" fill="#277C27"/>
</svg>
