<?xml version="1.0" encoding="UTF-8"?>
<svg xmlns="http://www.w3.org/2000/svg" xmlns:xlink="http://www.w3.org/1999/xlink" width="24" height="24" viewBox="0 0 24 24">
<defs>
<filter id="filter-remove-color" x="0%" y="0%" width="100%" height="100%">
<feColorMatrix color-interpolation-filters="sRGB" values="0 0 0 0 1 0 0 0 0 1 0 0 0 0 1 0 0 0 1 0" />
</filter>
<mask id="mask-0">
<g filter="url(#filter-remove-color)">
<rect x="-2.4" y="-2.4" width="28.8" height="28.8" fill="rgb(0%, 0%, 0%)" fill-opacity="0.985"/>
</g>
</mask>
<clipPath id="clip-0">
<rect x="0" y="0" width="24" height="24"/>
</clipPath>
<g id="source-13" clip-path="url(#clip-0)">
<path fill-rule="nonzero" fill="rgb(100%, 0%, 0%)" fill-opacity="1" d="M 11.898438 9.46875 C 12.460938 9.46875 12.917969 9.125 12.917969 8.699219 C 12.917969 8.277344 12.460938 7.933594 11.898438 7.933594 C 11.339844 7.933594 10.882812 8.277344 10.882812 8.699219 C 10.882812 9.125 11.339844 9.46875 11.898438 9.46875 Z M 11.898438 9.46875 "/>
</g>
</defs>
<path fill-rule="nonzero" fill="rgb(99.607843%, 99.607843%, 99.607843%)" fill-opacity="1" d="M 12 18.363281 C 15.511719 18.363281 18.363281 15.511719 18.363281 12 C 18.363281 8.488281 15.511719 5.636719 12 5.636719 C 8.488281 5.636719 5.636719 8.488281 5.636719 12 C 5.636719 15.511719 8.488281 18.363281 12 18.363281 Z M 12 18.363281 "/>
<path fill-rule="nonzero" fill="rgb(12.941176%, 40.784314%, 79.607843%)" fill-opacity="1" d="M 12 17.726562 C 15.160156 17.726562 17.726562 15.160156 17.726562 12 C 17.726562 8.839844 15.160156 6.273438 12 6.273438 C 8.839844 6.273438 6.273438 8.839844 6.273438 12 C 6.273438 15.160156 8.839844 17.726562 12 17.726562 Z M 12 17.726562 "/>
<path fill-rule="nonzero" fill="rgb(99.607843%, 99.607843%, 99.607843%)" fill-opacity="1" d="M 12 17.105469 C 14.820312 17.105469 17.105469 14.820312 17.105469 12 C 17.105469 9.179688 14.820312 6.894531 12 6.894531 C 9.179688 6.894531 6.894531 9.179688 6.894531 12 C 6.894531 14.820312 9.179688 17.105469 12 17.105469 Z M 12 17.105469 "/>
<path fill-rule="nonzero" fill="rgb(12.941176%, 40.784314%, 79.607843%)" fill-opacity="1" d="M 15.089844 10.433594 L 9.34375 10.433594 L 9.34375 14.855469 L 15.089844 14.855469 Z M 15.089844 10.433594 "/>
<path fill-rule="evenodd" fill="rgb(100%, 90.588235%, 0%)" fill-opacity="1" d="M 7.335938 11.382812 C 7.925781 10.800781 8.71875 9.761719 9.082031 9.746094 L 9.523438 10.277344 C 11.324219 9.789062 13.132812 9.367188 14.984375 9.480469 L 14.914062 10.417969 C 14.914062 10.417969 10.257812 10.898438 9.1875 11.515625 C 8.441406 11.945312 7.242188 11.796875 7.335938 11.382812 Z M 7.335938 11.382812 "/>
<path fill-rule="evenodd" fill="rgb(17.254902%, 73.72549%, 0%)" fill-opacity="1" d="M 10.652344 11.285156 C 10.652344 11.285156 12.367188 10.914062 12.492188 11.039062 C 12.617188 11.160156 11.359375 13.617188 11.238281 15.332031 C 10.660156 16.242188 9.601562 15.433594 9.71875 15.632812 C 9.71875 15.632812 9.894531 13.742188 10.070312 13.070312 C 10.246094 12.398438 10.652344 11.285156 10.652344 11.285156 Z M 10.652344 11.285156 "/>
<path fill-rule="nonzero" fill="rgb(99.607843%, 99.607843%, 99.607843%)" fill-opacity="1" d="M 12.277344 12.503906 L 13.117188 12.503906 L 13.117188 13.898438 C 13.117188 14.089844 13.160156 14.230469 13.25 14.3125 C 13.335938 14.394531 13.480469 14.4375 13.679688 14.4375 C 13.878906 14.4375 14.023438 14.394531 14.109375 14.3125 C 14.199219 14.230469 14.242188 14.089844 14.242188 13.898438 L 14.242188 12.503906 L 15.082031 12.503906 L 15.082031 13.898438 C 15.082031 14.230469 14.964844 14.472656 14.734375 14.636719 C 14.503906 14.796875 14.152344 14.878906 13.679688 14.878906 C 13.207031 14.878906 12.855469 14.796875 12.625 14.636719 C 12.394531 14.472656 12.277344 14.230469 12.277344 13.898438 Z M 12.277344 12.503906 "/>
<g mask="url(#mask-0)">
<use xlink:href="#source-13"/>
</g>
</svg>
