<?xml version="1.0" encoding="UTF-8"?>
<svg xmlns="http://www.w3.org/2000/svg" xmlns:xlink="http://www.w3.org/1999/xlink" width="12" height="12" viewBox="0 0 12 12" version="1.1">
<g id="surface1">
<path style=" stroke:none;fill-rule:nonzero;fill:rgb(57.647061%,0%,57.647061%);fill-opacity:1;" d="M 5.699219 5.339844 C 5.699219 5.417969 5.664062 5.496094 5.605469 5.554688 C 5.546875 5.609375 5.46875 5.640625 5.386719 5.640625 C 5.304688 5.640625 5.222656 5.609375 5.164062 5.554688 C 5.105469 5.496094 5.074219 5.417969 5.074219 5.339844 C 5.074219 5.257812 5.105469 5.179688 5.164062 5.125 C 5.222656 5.066406 5.304688 5.035156 5.386719 5.035156 C 5.46875 5.035156 5.546875 5.066406 5.605469 5.125 C 5.664062 5.179688 5.699219 5.257812 5.699219 5.339844 Z M 5.699219 5.339844 "/>
<path style=" stroke:none;fill-rule:nonzero;fill:rgb(57.647061%,0%,57.647061%);fill-opacity:1;" d="M 4.722656 5.351562 C 4.722656 5.28125 4.664062 5.222656 4.59375 5.222656 C 4.523438 5.222656 4.464844 5.277344 4.460938 5.347656 L 4.445312 6.796875 C 4.441406 6.867188 4.5 6.925781 4.570312 6.925781 C 4.644531 6.925781 4.703125 6.871094 4.703125 6.796875 L 4.707031 6.390625 L 7.285156 6.40625 L 7.277344 6.738281 C 7.277344 6.808594 7.335938 6.871094 7.40625 6.871094 C 7.476562 6.871094 7.535156 6.816406 7.539062 6.742188 L 7.554688 5.796875 C 7.558594 5.726562 7.5 5.667969 7.429688 5.667969 C 7.359375 5.664062 7.300781 5.722656 7.296875 5.792969 L 7.289062 6.148438 L 4.710938 6.128906 Z M 4.722656 5.351562 "/>
<path style=" stroke:none;fill-rule:nonzero;fill:rgb(57.647061%,0%,57.647061%);fill-opacity:1;" d="M 5.949219 5.5625 L 6.988281 5.5625 C 7.128906 5.5625 7.242188 5.675781 7.242188 5.820312 C 7.242188 5.960938 7.128906 6.078125 6.988281 6.078125 L 5.949219 6.078125 C 5.808594 6.078125 5.691406 5.960938 5.691406 5.820312 C 5.691406 5.675781 5.808594 5.5625 5.949219 5.5625 Z M 5.949219 5.5625 "/>
<path style=" stroke:none;fill-rule:nonzero;fill:rgb(57.647061%,0%,57.647061%);fill-opacity:1;" d="M 4.96875 5.738281 C 4.882812 5.738281 4.816406 5.808594 4.816406 5.890625 C 4.816406 5.976562 4.882812 6.046875 4.96875 6.046875 L 5.484375 6.046875 C 5.570312 6.046875 5.640625 5.976562 5.640625 5.890625 C 5.640625 5.808594 5.570312 5.738281 5.484375 5.738281 Z M 4.96875 5.738281 "/>
</g>
</svg>
