<?xml version="1.0" encoding="UTF-8"?>
<svg xmlns="http://www.w3.org/2000/svg" xmlns:xlink="http://www.w3.org/1999/xlink" width="24" height="24" viewBox="0 0 24 24">
<path fill="none" stroke-width="1" stroke-linecap="butt" stroke-linejoin="round" stroke="rgb(0%, 0%, 0%)" stroke-opacity="1" stroke-miterlimit="4" d="M 0.902125 7.768597 C 1.028867 8.680215 1.159979 9.57795 1.500872 10.332233 C 1.841765 11.081888 2.379326 11.850054 2.93874 12.271156 C 3.489412 12.701514 4.341644 12.969909 4.809279 12.900497 C 5.281284 12.831084 5.748919 11.868564 5.748919 11.868564 " transform="matrix(0, 0.893793, -0.844138, 0, 18.405423, -0.400063)"/>
<path fill="none" stroke-width="1" stroke-linecap="butt" stroke-linejoin="round" stroke="rgb(0%, 0%, 0%)" stroke-opacity="1" stroke-miterlimit="4" d="M 3.419486 3.900005 C 3.340818 4.978213 3.262151 6.061048 3.419486 7.180904 C 3.589932 8.291504 3.900232 9.739913 4.420312 10.582118 C 4.949132 11.428951 5.928106 12.012016 6.588039 12.238764 C 7.261084 12.479394 7.990944 12.141586 8.401763 11.988879 C 8.799471 11.840799 8.921843 11.590913 9.031103 11.331773 " transform="matrix(0, 0.893793, -0.844138, 0, 18.405423, -0.400063)"/>
<path fill="none" stroke-width="1" stroke-linecap="butt" stroke-linejoin="round" stroke="rgb(0%, 0%, 0%)" stroke-opacity="1" stroke-miterlimit="4" d="M 13.899749 10.600628 C 13.829823 11.179066 13.759896 11.762131 13.401522 12.169351 C 13.051888 12.571944 12.361362 12.909752 11.749503 13.011557 C 11.128904 13.108734 10.180523 13.090224 9.721629 12.789437 C 9.258365 12.488649 9.170957 11.850054 9.00051 11.229968 C 8.830064 10.609883 8.698951 9.938895 8.720803 9.068925 C 8.729544 8.198954 8.908731 7.111491 9.087919 6.010146 " transform="matrix(0, 0.893793, -0.844138, 0, 18.405423, -0.400063)"/>
<path fill="none" stroke-width="1" stroke-linecap="butt" stroke-linejoin="round" stroke="rgb(0%, 0%, 0%)" stroke-opacity="1" stroke-miterlimit="4" d="M 17.500974 10.799611 C 17.321787 11.091143 17.129489 11.378048 16.779855 11.521501 C 16.430222 11.660326 15.879549 11.808406 15.411914 11.651071 C 14.939909 11.489108 14.371755 11.179066 13.947824 10.549725 C 13.528264 9.92964 13.139297 8.680215 12.868331 7.898167 C 12.610476 7.120746 12.509956 6.648741 12.33951 5.871321 C 12.160323 5.080018 11.998617 4.13138 11.828171 3.178115 " transform="matrix(0, 0.893793, -0.844138, 0, 18.405423, -0.400063)"/>
<path fill="none" stroke-width="1" stroke-linecap="butt" stroke-linejoin="round" stroke="rgb(0%, 0%, 0%)" stroke-opacity="1" stroke-miterlimit="4" d="M 20.90116 9.962033 C 20.721973 10.359998 20.551526 10.748708 20.201893 10.989338 C 19.861 11.229968 19.310328 11.410441 18.838322 11.401186 C 18.379428 11.378048 17.780681 11.290126 17.417936 10.901416 C 17.059562 10.508078 16.801707 9.730658 16.701188 9.050415 C 16.591927 8.379427 16.688076 7.648282 16.788596 6.829214 C 16.880375 6.019401 17.081414 5.080018 17.269342 4.14989 " transform="matrix(0, 0.893793, -0.844138, 0, 18.405423, -0.400063)"/>
<path fill="none" stroke-width="1" stroke-linecap="butt" stroke-linejoin="round" stroke="rgb(0%, 0%, 0%)" stroke-opacity="1" stroke-miterlimit="4" d="M 26.399146 5.649201 C 26.569593 6.347954 26.740039 7.051334 26.779373 7.828754 C 26.818707 8.620057 26.801225 9.679755 26.64826 10.369253 C 26.499666 11.049496 26.289886 11.609423 25.892178 11.928721 C 25.481358 12.248019 24.830166 12.298921 24.218308 12.271156 C 23.610819 12.248019 22.789181 12.150841 22.238508 11.771386 C 21.687835 11.401186 21.21146 10.739453 20.931753 10.02219 C 20.638935 9.3003 20.520933 8.78202 20.507822 7.458554 C 20.499081 6.139716 20.678269 4.108243 20.861826 2.081397 " transform="matrix(0, 0.893793, -0.844138, 0, 18.405423, -0.400063)"/>
</svg>
