<svg width="32" height="32" viewBox="0 0 580 580" fill="none" xmlns="http://www.w3.org/2000/svg">
<path opacity="0.426087" d="M313.094 188.125C309.407 188.358 305.859 189.621 302.854 191.77C299.849 193.919 297.507 196.868 296.094 200.281L254.188 301.125C254.145 301.229 254.103 301.333 254.062 301.438L221.656 383.5L221.219 384.063L221.188 384.094L215.438 391.562L215.125 391.938C215.104 391.958 215.083 391.979 215.062 392L201.219 409.969C200.934 410.344 200.663 410.73 200.406 411.125L144.406 484.125H99.8438C97.2501 484.125 94.6819 484.636 92.2856 485.628C89.8894 486.621 87.7121 488.075 85.8782 489.909C84.0442 491.743 82.5894 493.921 81.5969 496.317C80.6044 498.713 80.0936 501.281 80.0938 503.875V528.875C80.0936 531.469 80.6044 534.037 81.5969 536.433C82.5894 538.829 84.0442 541.007 85.8782 542.841C87.7121 544.675 89.8894 546.129 92.2856 547.122C94.6819 548.114 97.2501 548.625 99.8438 548.625H228.531C230.743 552.331 233.219 555.837 236.062 558.969C236.84 559.825 237.561 560.561 238.188 561.188C249.641 572.649 265.636 579.906 283.125 579.906C296.254 579.906 308.6 575.805 318.719 568.938C322.081 566.656 325.214 564.04 328.094 561.156C328.706 560.543 329.429 559.839 330.219 558.969C330.934 558.181 331.607 557.398 332.219 556.656C332.699 556.074 333.289 555.34 333.969 554.438C335.14 552.88 334.896 553.159 334.125 554.188C333.969 554.396 334.271 554.001 334.156 554.156C333.337 555.26 333.119 555.565 334.344 553.906C334.354 553.906 334.365 553.906 334.375 553.906C335.607 552.233 336.68 550.421 337.75 548.625H455.25C457.844 548.625 460.412 548.114 462.808 547.122C465.204 546.129 467.382 544.675 469.216 542.841C471.05 541.007 472.504 538.829 473.497 536.433C474.489 534.037 475 531.469 475 528.875V503.875C475 501.281 474.489 498.713 473.497 496.317C472.504 493.921 471.05 491.743 469.216 489.909C467.382 488.075 465.204 486.621 462.808 485.628C460.412 484.636 457.844 484.125 455.25 484.125H401.969L392.969 441.406L392.938 441.313L388.75 420.875L394.688 325.75C394.688 325.74 394.688 325.729 394.688 325.719L400.75 225.063C401.026 220.435 399.664 215.858 396.905 212.133C394.145 208.408 390.163 205.772 385.656 204.688L318.969 188.656C317.048 188.186 315.068 188.007 313.094 188.125ZM342.125 531.75C342.123 531.736 342.593 532.59 342.75 534.188L342.656 534.156C342.49 532.786 342.127 531.763 342.125 531.75L342.125 531.75Z" fill="#8D8D8D"/>
<path d="M230.829 404.203L143.038 518.667L239.378 519.104C240.767 542.001 259.971 560.351 283.197 560.351C306.32 560.351 325.45 542.166 326.991 519.413L389.283 519.695L371.411 434.811L230.829 404.203Z" fill="#FEFEFE"/>
<path d="M314.424 208.029L272.516 308.871L239.048 393.594L230.788 404.238L371.397 434.78L368.915 422.815L375.028 324.721L381.091 224.068" fill="#E80000"/>
<path d="M254.52 354.425L238.998 393.606L216.939 422.227L375.972 456.71L368.916 422.309L371.753 377.458" fill="#FEFEFE"/>
<path d="M99.9238 516.57H455.305" stroke="black" stroke-width="25"/>
<path d="M316.803 516.401C316.803 525.314 313.262 533.862 306.96 540.164C300.658 546.466 292.11 550.007 283.197 550.007C274.285 550.007 265.737 546.466 259.435 540.164C253.132 533.862 249.592 525.314 249.592 516.401C249.592 507.489 253.132 498.941 259.435 492.639C265.737 486.336 274.285 482.796 283.197 482.796C292.11 482.796 300.658 486.336 306.96 492.639C313.262 498.941 316.803 507.489 316.803 516.401V516.401Z" fill="#FEFEFE" stroke="black" stroke-width="20.5723" stroke-miterlimit="10" stroke-linecap="round" stroke-linejoin="round"/>
<path opacity="0.426087" d="M366.351 220.991L380.88 224.321L368.885 422.814L386.191 504.743L334.214 504.687L326.616 412.652L366.351 220.991Z" fill="black"/>
</svg>
