<?xml version="1.0" encoding="UTF-8"?>
<svg xmlns="http://www.w3.org/2000/svg" xmlns:xlink="http://www.w3.org/1999/xlink" width="32" height="32" viewBox="0 0 32 32">
<path fill-rule="nonzero" fill="rgb(0%, 0%, 0%)" fill-opacity="1" d="M 11.433594 15.125 L 10.363281 15.125 L 10.363281 14.796875 C 10.363281 14.644531 10.347656 14.546875 10.320312 14.503906 C 10.292969 14.464844 10.25 14.441406 10.183594 14.441406 C 10.117188 14.441406 10.0625 14.472656 10.027344 14.527344 C 9.992188 14.585938 9.976562 14.667969 9.976562 14.785156 C 9.976562 14.933594 9.996094 15.042969 10.035156 15.117188 C 10.074219 15.191406 10.183594 15.28125 10.359375 15.390625 C 10.871094 15.691406 11.195312 15.941406 11.328125 16.136719 C 11.460938 16.332031 11.527344 16.648438 11.527344 17.082031 C 11.527344 17.398438 11.492188 17.628906 11.414062 17.777344 C 11.34375 17.929688 11.199219 18.054688 10.988281 18.15625 C 10.777344 18.257812 10.53125 18.304688 10.25 18.304688 C 9.941406 18.304688 9.679688 18.25 9.460938 18.132812 C 9.242188 18.015625 9.101562 17.867188 9.035156 17.6875 C 8.964844 17.503906 8.933594 17.25 8.933594 16.917969 L 8.933594 16.628906 L 10.003906 16.628906 L 10.003906 17.167969 C 10.003906 17.332031 10.015625 17.4375 10.046875 17.484375 C 10.078125 17.535156 10.128906 17.558594 10.207031 17.558594 C 10.285156 17.558594 10.339844 17.527344 10.375 17.46875 C 10.414062 17.40625 10.433594 17.316406 10.433594 17.199219 C 10.433594 16.9375 10.398438 16.769531 10.328125 16.6875 C 10.253906 16.609375 10.074219 16.472656 9.789062 16.285156 C 9.503906 16.097656 9.3125 15.957031 9.21875 15.871094 C 9.128906 15.789062 9.050781 15.667969 8.988281 15.515625 C 8.925781 15.367188 8.898438 15.171875 8.898438 14.9375 C 8.898438 14.597656 8.941406 14.351562 9.027344 14.195312 C 9.113281 14.039062 9.253906 13.914062 9.445312 13.828125 C 9.640625 13.738281 9.875 13.695312 10.148438 13.695312 C 10.445312 13.695312 10.699219 13.742188 10.910156 13.839844 C 11.121094 13.933594 11.261719 14.058594 11.328125 14.203125 C 11.398438 14.351562 11.433594 14.597656 11.433594 14.953125 L 11.433594 15.125 "/>
<path fill-rule="nonzero" fill="rgb(0%, 0%, 0%)" fill-opacity="1" d="M 11.890625 13.785156 L 13.050781 13.785156 C 13.363281 13.785156 13.605469 13.8125 13.773438 13.859375 C 13.941406 13.910156 14.070312 13.980469 14.152344 14.074219 C 14.238281 14.167969 14.296875 14.28125 14.324219 14.414062 C 14.355469 14.542969 14.371094 14.75 14.371094 15.023438 L 14.371094 15.410156 C 14.371094 15.691406 14.34375 15.898438 14.285156 16.027344 C 14.226562 16.15625 14.117188 16.257812 13.960938 16.328125 C 13.804688 16.394531 13.601562 16.429688 13.351562 16.429688 L 13.042969 16.429688 L 13.042969 18.214844 L 11.890625 18.214844 Z M 13.042969 14.542969 L 13.042969 15.671875 C 13.074219 15.671875 13.105469 15.671875 13.128906 15.671875 C 13.234375 15.671875 13.304688 15.648438 13.347656 15.597656 C 13.386719 15.542969 13.410156 15.433594 13.410156 15.269531 L 13.410156 14.90625 C 13.410156 14.757812 13.386719 14.65625 13.339844 14.613281 C 13.289062 14.566406 13.191406 14.542969 13.042969 14.542969 "/>
<path fill-rule="nonzero" fill="rgb(0%, 0%, 0%)" fill-opacity="1" d="M 17.332031 16.378906 C 17.332031 16.824219 17.320312 17.140625 17.300781 17.324219 C 17.28125 17.507812 17.214844 17.675781 17.101562 17.832031 C 16.992188 17.984375 16.84375 18.101562 16.65625 18.183594 C 16.46875 18.265625 16.25 18.304688 16 18.304688 C 15.765625 18.304688 15.550781 18.269531 15.363281 18.191406 C 15.171875 18.113281 15.023438 17.996094 14.90625 17.839844 C 14.792969 17.6875 14.722656 17.519531 14.703125 17.335938 C 14.679688 17.152344 14.667969 16.835938 14.667969 16.378906 L 14.667969 15.621094 C 14.667969 15.175781 14.679688 14.863281 14.699219 14.679688 C 14.722656 14.492188 14.789062 14.324219 14.898438 14.167969 C 15.007812 14.015625 15.15625 13.898438 15.34375 13.816406 C 15.53125 13.734375 15.75 13.695312 16 13.695312 C 16.238281 13.695312 16.449219 13.734375 16.636719 13.8125 C 16.828125 13.886719 16.980469 14.003906 17.09375 14.160156 C 17.210938 14.3125 17.277344 14.480469 17.300781 14.664062 C 17.320312 14.847656 17.332031 15.164062 17.332031 15.621094 Z M 16.183594 14.925781 C 16.183594 14.71875 16.171875 14.585938 16.144531 14.53125 C 16.125 14.472656 16.078125 14.441406 16.007812 14.441406 C 15.945312 14.441406 15.898438 14.464844 15.867188 14.515625 C 15.835938 14.558594 15.820312 14.695312 15.820312 14.925781 L 15.820312 16.992188 C 15.820312 17.25 15.832031 17.40625 15.851562 17.46875 C 15.871094 17.527344 15.921875 17.558594 16 17.558594 C 16.078125 17.558594 16.128906 17.523438 16.148438 17.453125 C 16.171875 17.382812 16.183594 17.21875 16.183594 16.957031 Z M 16.183594 14.925781 "/>
<path fill-rule="nonzero" fill="rgb(0%, 0%, 0%)" fill-opacity="1" d="M 17.765625 13.785156 L 18.578125 13.785156 C 19.125 13.785156 19.492188 13.808594 19.683594 13.847656 C 19.875 13.890625 20.03125 14 20.152344 14.171875 C 20.273438 14.34375 20.335938 14.617188 20.335938 14.996094 C 20.335938 15.339844 20.292969 15.570312 20.207031 15.691406 C 20.121094 15.808594 19.953125 15.878906 19.699219 15.902344 C 19.929688 15.960938 20.082031 16.035156 20.160156 16.128906 C 20.238281 16.226562 20.285156 16.3125 20.304688 16.390625 C 20.324219 16.472656 20.335938 16.6875 20.335938 17.046875 L 20.335938 18.214844 L 19.265625 18.214844 L 19.265625 16.742188 C 19.265625 16.503906 19.246094 16.359375 19.207031 16.300781 C 19.171875 16.246094 19.074219 16.21875 18.917969 16.21875 L 18.917969 18.214844 L 17.765625 18.214844 Z M 18.917969 14.542969 L 18.917969 15.527344 C 19.046875 15.527344 19.136719 15.511719 19.1875 15.476562 C 19.238281 15.441406 19.265625 15.324219 19.265625 15.128906 L 19.265625 14.886719 C 19.265625 14.746094 19.242188 14.652344 19.191406 14.609375 C 19.140625 14.566406 19.050781 14.542969 18.917969 14.542969 Z M 18.917969 14.542969 "/>
<path fill-rule="nonzero" fill="rgb(0%, 0%, 0%)" fill-opacity="1" d="M 23.101562 13.785156 L 23.101562 14.671875 L 22.417969 14.671875 L 22.417969 18.214844 L 21.269531 18.214844 L 21.269531 14.671875 L 20.585938 14.671875 L 20.585938 13.785156 Z M 23.101562 13.785156 "/>
</svg>
