<?xml version="1.0" encoding="UTF-8"?>
<svg xmlns="http://www.w3.org/2000/svg" xmlns:xlink="http://www.w3.org/1999/xlink" width="12" height="12" viewBox="0 0 12 12" version="1.1">
<g id="surface1">
<path style=" stroke:none;fill-rule:nonzero;fill:rgb(99.607843%,99.607843%,99.607843%);fill-opacity:1;" d="M 6 2.632812 C 4.09375 2.632812 2.546875 4.140625 2.546875 6 C 2.546875 7.859375 4.09375 9.367188 6 9.367188 C 7.90625 9.367188 9.453125 7.859375 9.453125 6 C 9.453125 4.140625 7.90625 2.632812 6 2.632812 Z M 6 2.632812 "/>
<path style="fill-rule:nonzero;fill:rgb(46.666667%,46.666667%,46.666667%);fill-opacity:1;stroke-width:0.403126;stroke-linecap:butt;stroke-linejoin:miter;stroke:rgb(82.745099%,6.666667%,27.058825%);stroke-opacity:1;stroke-miterlimit:4;" d="M 11.817708 8.005208 C 11.817708 10.109375 10.114583 11.817708 8.005208 11.817708 C 5.895833 11.817708 4.182292 10.109375 4.182292 8.005208 C 4.182292 5.885417 5.895833 4.177083 8.005208 4.177083 C 10.114583 4.177083 11.817708 5.885417 11.817708 8.005208 Z M 11.817708 8.005208 " transform="matrix(0.75,0,0,0.75,0,0)"/>
<path style=" stroke:none;fill-rule:nonzero;fill:rgb(0%,47.058824%,75.686276%);fill-opacity:1;" d="M 8.597656 6.003906 C 8.597656 7.433594 7.433594 8.59375 6.003906 8.59375 C 4.574219 8.59375 3.410156 7.433594 3.410156 6.003906 C 3.410156 4.5625 4.574219 3.40625 6.003906 3.40625 C 7.433594 3.40625 8.597656 4.5625 8.597656 6.003906 Z M 8.597656 6.003906 "/>
<path style=" stroke:none;fill-rule:nonzero;fill:rgb(99.607843%,99.607843%,99.607843%);fill-opacity:1;" d="M 4.851562 5.726562 C 4.824219 5.691406 4.777344 5.683594 4.710938 5.683594 C 4.464844 5.683594 4.402344 6.015625 4.402344 6.160156 C 4.402344 6.316406 4.433594 6.449219 4.597656 6.449219 C 4.742188 6.449219 4.808594 6.304688 4.84375 6.222656 L 5.382812 6.222656 C 5.285156 6.664062 5.015625 6.878906 4.589844 6.878906 C 3.960938 6.878906 3.835938 6.460938 3.835938 6.171875 C 3.835938 5.640625 4.164062 5.25 4.726562 5.25 C 5.136719 5.25 5.445312 5.445312 5.4375 5.878906 L 4.890625 5.878906 C 4.898438 5.804688 4.882812 5.761719 4.851562 5.726562 Z M 4.851562 5.726562 "/>
<path style=" stroke:none;fill-rule:nonzero;fill:rgb(99.607843%,99.607843%,99.607843%);fill-opacity:1;" d="M 6.371094 6.410156 L 6.289062 6.835938 C 6.289062 6.835938 6.140625 6.84375 6.050781 6.84375 C 5.9375 6.851562 5.773438 6.859375 5.683594 6.808594 C 5.585938 6.75 5.546875 6.628906 5.546875 6.519531 C 5.546875 6.441406 5.5625 6.382812 5.578125 6.316406 L 5.707031 5.703125 L 5.464844 5.703125 L 5.535156 5.34375 L 5.78125 5.34375 L 5.871094 4.890625 L 6.429688 4.890625 L 6.328125 5.34375 L 6.625 5.34375 L 6.550781 5.703125 L 6.273438 5.703125 L 6.175781 6.1875 C 6.175781 6.210938 6.15625 6.28125 6.15625 6.332031 C 6.15625 6.382812 6.214844 6.410156 6.246094 6.410156 C 6.339844 6.410156 6.386719 6.410156 6.371094 6.410156 "/>
<path style=" stroke:none;fill-rule:nonzero;fill:rgb(99.607843%,99.607843%,99.607843%);fill-opacity:1;" d="M 7.179688 6.484375 C 7.113281 6.492188 7 6.484375 7 6.375 C 7 6.265625 7.105469 6.222656 7.203125 6.203125 C 7.300781 6.1875 7.382812 6.171875 7.472656 6.117188 C 7.441406 6.347656 7.3125 6.460938 7.179688 6.484375 Z M 7.410156 5.234375 C 7.039062 5.234375 6.78125 5.367188 6.648438 5.71875 L 7.1875 5.71875 C 7.246094 5.640625 7.3125 5.597656 7.425781 5.597656 C 7.507812 5.589844 7.628906 5.597656 7.613281 5.703125 C 7.589844 5.8125 7.328125 5.855469 7.171875 5.863281 C 6.738281 5.898438 6.445312 6.042969 6.445312 6.449219 C 6.445312 6.75 6.671875 6.859375 6.933594 6.859375 C 7.097656 6.859375 7.292969 6.800781 7.390625 6.671875 L 7.402344 6.671875 L 7.367188 6.835938 L 7.90625 6.835938 C 7.90625 6.835938 8.136719 5.890625 8.136719 5.648438 C 8.136719 5.273438 7.679688 5.234375 7.410156 5.234375 Z M 7.410156 5.234375 "/>
<path style=" stroke:none;fill-rule:nonzero;fill:rgb(99.607843%,99.607843%,99.607843%);fill-opacity:1;" d="M 8.273438 6.894531 C 8.195312 6.894531 8.121094 6.835938 8.121094 6.742188 C 8.121094 6.65625 8.195312 6.585938 8.273438 6.585938 C 8.355469 6.585938 8.429688 6.65625 8.429688 6.742188 C 8.429688 6.835938 8.355469 6.894531 8.273438 6.894531 Z M 8.273438 6.894531 "/>
<path style=" stroke:none;fill-rule:nonzero;fill:rgb(99.607843%,99.607843%,99.607843%);fill-opacity:1;" d="M 8.273438 6.613281 C 8.210938 6.613281 8.152344 6.671875 8.152344 6.742188 C 8.152344 6.816406 8.210938 6.867188 8.273438 6.867188 C 8.347656 6.867188 8.398438 6.816406 8.398438 6.742188 C 8.398438 6.671875 8.347656 6.613281 8.273438 6.613281 Z M 8.273438 6.613281 "/>
<path style=" stroke:none;fill-rule:nonzero;fill:rgb(99.607843%,99.607843%,99.607843%);fill-opacity:1;" d="M 8.324219 6.835938 L 8.273438 6.757812 L 8.242188 6.757812 L 8.242188 6.835938 L 8.21875 6.835938 L 8.21875 6.65625 L 8.285156 6.65625 C 8.324219 6.65625 8.347656 6.671875 8.347656 6.707031 C 8.347656 6.734375 8.324219 6.75 8.300781 6.757812 L 8.347656 6.835938 L 8.324219 6.835938 "/>
<path style=" stroke:none;fill-rule:nonzero;fill:rgb(99.607843%,99.607843%,99.607843%);fill-opacity:1;" d="M 8.316406 6.707031 C 8.316406 6.679688 8.300781 6.671875 8.285156 6.671875 L 8.242188 6.671875 L 8.242188 6.734375 L 8.273438 6.734375 C 8.300781 6.734375 8.316406 6.734375 8.316406 6.707031 "/>
</g>
</svg>
