<?xml version="1.0" encoding="UTF-8"?>
<svg xmlns="http://www.w3.org/2000/svg" xmlns:xlink="http://www.w3.org/1999/xlink" width="32" height="32" viewBox="0 0 32 32">
<path fill-rule="nonzero" fill="rgb(55.686275%, 0%, 47.058824%)" fill-opacity="1" d="M 15.082031 26.550781 C 15.082031 26.972656 14.917969 27.371094 14.621094 27.667969 C 14.324219 27.964844 13.925781 28.128906 13.507812 28.128906 C 13.089844 28.128906 12.6875 27.964844 12.390625 27.667969 C 12.09375 27.371094 11.929688 26.972656 11.929688 26.550781 C 11.929688 26.132812 12.09375 25.734375 12.390625 25.4375 C 12.6875 25.140625 13.089844 24.976562 13.507812 24.976562 C 13.925781 24.976562 14.324219 25.140625 14.621094 25.4375 C 14.917969 25.734375 15.082031 26.132812 15.082031 26.550781 Z M 15.082031 26.550781 "/>
<path fill-rule="nonzero" fill="rgb(55.686275%, 0%, 47.058824%)" fill-opacity="1" d="M 21.160156 23.179688 C 21.160156 23.597656 20.996094 23.996094 20.699219 24.292969 C 20.402344 24.589844 20.003906 24.753906 19.582031 24.753906 C 19.164062 24.753906 18.765625 24.589844 18.46875 24.292969 C 18.171875 23.996094 18.007812 23.597656 18.007812 23.179688 C 18.007812 22.757812 18.171875 22.359375 18.46875 22.0625 C 18.765625 21.765625 19.164062 21.601562 19.582031 21.601562 C 20.003906 21.601562 20.402344 21.765625 20.699219 22.0625 C 20.996094 22.359375 21.160156 22.757812 21.160156 23.179688 Z M 21.160156 23.179688 "/>
<path fill-rule="nonzero" fill="rgb(55.686275%, 0%, 47.058824%)" fill-opacity="1" d="M 25.4375 16.480469 C 25.4375 16.898438 25.269531 17.300781 24.976562 17.597656 C 24.679688 17.890625 24.277344 18.058594 23.859375 18.058594 C 23.441406 18.058594 23.039062 17.890625 22.746094 17.597656 C 22.449219 17.300781 22.285156 16.898438 22.285156 16.480469 C 22.285156 16.0625 22.449219 15.664062 22.746094 15.367188 C 23.039062 15.070312 23.441406 14.90625 23.859375 14.90625 C 24.277344 14.90625 24.679688 15.070312 24.976562 15.367188 C 25.269531 15.664062 25.4375 16.0625 25.4375 16.480469 Z M 25.4375 16.480469 "/>
<path fill-rule="nonzero" fill="rgb(55.686275%, 0%, 47.058824%)" fill-opacity="1" d="M 27.5625 7.210938 C 27.5625 7.632812 27.394531 8.03125 27.097656 8.328125 C 26.804688 8.625 26.402344 8.789062 25.984375 8.789062 C 25.566406 8.789062 25.164062 8.625 24.871094 8.328125 C 24.574219 8.03125 24.40625 7.632812 24.40625 7.210938 C 24.40625 6.792969 24.574219 6.394531 24.871094 6.097656 C 25.164062 5.800781 25.566406 5.636719 25.984375 5.636719 C 26.402344 5.636719 26.804688 5.800781 27.097656 6.097656 C 27.394531 6.394531 27.5625 6.792969 27.5625 7.210938 Z M 27.5625 7.210938 "/>
<path fill="none" stroke-width="21.497" stroke-linecap="round" stroke-linejoin="round" stroke="rgb(55.686275%, 0%, 47.058824%)" stroke-opacity="1" stroke-miterlimit="4" d="M 243.483887 476.630859 C 243.483887 476.630859 252.758789 389.545898 206.242676 333.754883 C 159.726562 277.893066 132.185059 260.405273 122.768555 227.199707 C 118.803711 213.464355 114.060059 182.595215 133.317871 149.743652 C 160.859375 102.873535 246.599121 115.617676 278.105469 126.166992 C 309.611816 136.716309 394.006348 189.958496 456.027832 140.185547 " transform="matrix(0.0551724, 0, 0, 0.0551724, 0, 0)"/>
<path fill="none" stroke-width="20.197001" stroke-linecap="round" stroke-linejoin="round" stroke="rgb(55.686275%, 0%, 47.058824%)" stroke-opacity="1" stroke-miterlimit="4" d="M 422.468262 299.274902 C 422.468262 299.274902 358.88916 274.848633 307.133789 225.996094 C 210.136719 134.379883 135.300293 153.354492 135.795898 150.947266 " transform="matrix(0.0551724, 0, 0, 0.0551724, 0, 0)"/>
<path fill="none" stroke-width="20.097" stroke-linecap="round" stroke-linejoin="round" stroke="rgb(55.686275%, 0%, 47.058824%)" stroke-opacity="1" stroke-miterlimit="4" d="M 356.481934 437.407227 C 356.481934 437.407227 344.020996 370.571289 304.797363 334.038086 C 265.57373 297.434082 213.676758 261.254883 180.187988 231.730957 C 162.20459 215.800781 136.999512 191.162109 138.486328 149.672852 " transform="matrix(0.0551724, 0, 0, 0.0551724, 0, 0)"/>
<path fill="none" stroke-width="20.197001" stroke-linecap="round" stroke-linejoin="round" stroke="rgb(55.686275%, 0%, 47.058824%)" stroke-opacity="1" stroke-miterlimit="4" d="M 241.713867 408.024902 C 249.21875 356.19873 276.264648 352.375488 320.585938 352.51709 C 321.010742 329.365234 330.427246 275.273438 362.570801 268.334961 C 347.06543 234.70459 352.233887 167.302246 394.926758 162.983398 " transform="matrix(0.0551724, 0, 0, 0.0551724, 0, 0)"/>
<path fill="none" stroke-width="20.197001" stroke-linecap="round" stroke-linejoin="round" stroke="rgb(55.686275%, 0%, 47.058824%)" stroke-opacity="1" stroke-miterlimit="4" d="M 198.525391 324.550781 C 198.525391 324.550781 252.404785 298.850098 272.724609 306.142578 C 279.592285 295.310059 292.265625 244.970703 314.001465 232.297363 C 293.256836 185.073242 312.797852 143.513184 312.797852 143.513184 " transform="matrix(0.0551724, 0, 0, 0.0551724, 0, 0)"/>
<path fill="none" stroke-width="20.197001" stroke-linecap="round" stroke-linejoin="round" stroke="rgb(55.686275%, 0%, 47.058824%)" stroke-opacity="1" stroke-miterlimit="4" d="M 165.81543 287.592773 C 176.860352 274.494629 209.35791 277.468262 231.872559 273.64502 C 228.049316 261.608887 247.165527 205.67627 271.945801 196.61377 C 264.724121 191.445312 271.450195 132.893066 271.450195 132.893066 " transform="matrix(0.0551724, 0, 0, 0.0551724, 0, 0)"/>
<path fill="none" stroke-width="20.197001" stroke-linecap="round" stroke-linejoin="round" stroke="rgb(55.686275%, 0%, 47.058824%)" stroke-opacity="1" stroke-miterlimit="4" d="M 123.26416 211.269531 C 123.26416 211.269531 143.017578 210.419922 154.770508 204.472656 C 166.594238 198.525391 187.62207 163.903809 189.746094 156.186523 C 191.870117 148.469238 194.914551 120.715332 191.516113 120.856934 M 233.500977 126.520996 C 233.500977 126.520996 229.394531 152.646484 232.226562 172.258301 C 222.95166 183.232422 197.675781 215.942383 183.374023 234.492188 C 158.168945 238.598633 135.158691 248.581543 135.300293 248.723145 Z M 233.500977 126.520996 " transform="matrix(0.0551724, 0, 0, 0.0551724, 0, 0)"/>
</svg>
