<?xml version="1.0" encoding="UTF-8"?>
<svg xmlns="http://www.w3.org/2000/svg" xmlns:xlink="http://www.w3.org/1999/xlink" width="32" height="32" viewBox="0 0 32 32">
<defs>
<filter id="filter-remove-color" x="0%" y="0%" width="100%" height="100%">
<feColorMatrix color-interpolation-filters="sRGB" values="0 0 0 0 1 0 0 0 0 1 0 0 0 0 1 0 0 0 1 0" />
</filter>
<mask id="mask-0">
<g filter="url(#filter-remove-color)">
<rect x="-3.2" y="-3.2" width="38.4" height="38.4" fill="rgb(0%, 0%, 0%)" fill-opacity="0.426087"/>
</g>
</mask>
<clipPath id="clip-0">
<rect x="0" y="0" width="32" height="32"/>
</clipPath>
<g id="source-6" clip-path="url(#clip-0)">
<path fill-rule="nonzero" fill="rgb(67.45098%, 84.705882%, 95.294118%)" fill-opacity="1" d="M 16 10 C 12.710938 10 10 12.710938 10 16 C 10 19.289062 12.710938 22 16 22 C 19.289062 22 22 19.289062 22 16 C 22 12.710938 19.289062 10 16 10 Z M 16 10 "/>
</g>
</defs>
<g mask="url(#mask-0)">
<use xlink:href="#source-6"/>
</g>
<path fill-rule="nonzero" fill="rgb(0%, 0%, 0%)" fill-opacity="1" stroke-width="10" stroke-linecap="butt" stroke-linejoin="miter" stroke="rgb(0%, 0%, 0%)" stroke-opacity="1" stroke-miterlimit="4" d="M 203.28125 160 C 203.28125 171.484375 198.75 182.5 190.625 190.625 C 182.5 198.75 171.484375 203.28125 160 203.28125 C 148.515625 203.28125 137.5 198.75 129.375 190.625 C 121.25 182.5 116.71875 171.484375 116.71875 160 C 116.71875 148.515625 121.25 137.5 129.375 129.375 C 137.5 121.25 148.515625 116.71875 160 116.71875 C 171.484375 116.71875 182.5 121.25 190.625 129.375 C 198.75 137.5 203.28125 148.515625 203.28125 160 Z M 203.28125 160 " transform="matrix(0.1, 0, 0, 0.1, 0, 0)"/>
</svg>
