<svg width="12" height="12" viewBox="0 0 12 12" fill="none" xmlns="http://www.w3.org/2000/svg">
<path fill-rule="evenodd" clip-rule="evenodd" d="M3 0H9V2.60609C9.07188 2.6645 9.14102 2.72681 9.20711 2.79289C9.71479 3.30057 10 3.98914 10 4.70711V9C10 9.58229 9.75116 10.1065 9.35402 10.472L10.118 12H1.88197L2.64598 10.472C2.24884 10.1065 2 9.58229 2 9V4.70711C2 3.98914 2.28521 3.30057 2.79289 2.79289C2.85898 2.72681 2.92812 2.6645 3 2.60609V0Z" fill="white"/>
<path fill-rule="evenodd" clip-rule="evenodd" d="M4 1H8V2H7L6.5 3H7.29289C7.74565 3 8.17986 3.17986 8.5 3.5C8.82014 3.82014 9 4.25435 9 4.70711V9C9 9.55229 8.55228 10 8 10L8.5 11H3.5L4 10C3.44772 10 3 9.55229 3 9V4.70711C3 4.25435 3.17986 3.82014 3.5 3.5C3.82014 3.17986 4.25435 3 4.70711 3H5.5L6 2H4V1ZM8 7V5H4V7H8ZM4.5 9C4.77614 9 5 8.77614 5 8.5C5 8.22386 4.77614 8 4.5 8C4.22386 8 4 8.22386 4 8.5C4 8.77614 4.22386 9 4.5 9ZM8 8.5C8 8.77614 7.77614 9 7.5 9C7.22386 9 7 8.77614 7 8.5C7 8.22386 7.22386 8 7.5 8C7.77614 8 8 8.22386 8 8.5Z" fill="#0092DA"/>
</svg>
