<?xml version="1.0" encoding="UTF-8"?>
<svg xmlns="http://www.w3.org/2000/svg" xmlns:xlink="http://www.w3.org/1999/xlink" width="24" height="24" viewBox="0 0 24 24">
<defs>
<filter id="filter-remove-color" x="0%" y="0%" width="100%" height="100%">
<feColorMatrix color-interpolation-filters="sRGB" values="0 0 0 0 1 0 0 0 0 1 0 0 0 0 1 0 0 0 1 0" />
</filter>
<mask id="mask-0">
<g filter="url(#filter-remove-color)">
<rect x="-2.4" y="-2.4" width="28.8" height="28.8" fill="rgb(0%, 0%, 0%)" fill-opacity="0.426087"/>
</g>
</mask>
<clipPath id="clip-0">
<rect x="0" y="0" width="24" height="24"/>
</clipPath>
<g id="source-6" clip-path="url(#clip-0)">
<path fill-rule="nonzero" fill="rgb(67.45098%, 84.705882%, 95.294118%)" fill-opacity="1" d="M 12 5.527344 C 8.445312 5.527344 5.527344 8.445312 5.527344 12 C 5.527344 15.554688 8.445312 18.472656 12 18.472656 C 15.554688 18.472656 18.472656 15.554688 18.472656 12 C 18.472656 8.445312 15.550781 5.527344 12 5.527344 Z M 12 5.527344 "/>
</g>
</defs>
<g mask="url(#mask-0)">
<use xlink:href="#source-6"/>
</g>
<path fill="none" stroke-width="62.218201" stroke-linecap="butt" stroke-linejoin="miter" stroke="rgb(6.666667%, 0%, 28.235294%)" stroke-opacity="1" stroke-miterlimit="4" d="M 721.158854 530 C 721.158854 555.016276 716.155599 579.860026 706.666667 603.151042 C 697.005208 626.269531 682.858073 647.317708 665.087891 665.087891 C 647.490234 682.858073 626.269531 697.005208 603.151042 706.666667 C 580.032552 716.155599 555.016276 721.158854 530 721.158854 C 504.811198 721.158854 479.967448 716.155599 456.848958 706.666667 C 433.557943 697.005208 412.509766 682.858073 394.739583 665.087891 C 376.969401 647.317708 362.994792 626.269531 353.333333 603.151042 C 343.844401 579.860026 338.841146 555.016276 338.841146 530 C 338.841146 504.811198 343.844401 479.967448 353.333333 456.848958 C 362.994792 433.557943 376.969401 412.509766 394.739583 394.739583 C 412.509766 376.969401 433.557943 362.994792 456.848958 353.333333 C 479.967448 343.671875 504.811198 338.841146 530 338.841146 C 555.016276 338.841146 580.032552 343.671875 603.151042 353.333333 C 626.269531 362.994792 647.490234 376.969401 665.087891 394.739583 C 682.858073 412.509766 697.005208 433.557943 706.666667 456.848958 C 716.155599 479.967448 721.158854 504.811198 721.158854 530 Z M 721.158854 530 " transform="matrix(0.0226415, 0, 0, 0.0226415, 0, 0)"/>
<path fill-rule="nonzero" fill="rgb(6.666667%, 0%, 28.235294%)" fill-opacity="1" d="M 13.074219 12 C 13.074219 12.285156 12.960938 12.558594 12.757812 12.757812 C 12.558594 12.960938 12.285156 13.074219 12 13.074219 C 11.714844 13.074219 11.441406 12.960938 11.242188 12.757812 C 11.039062 12.558594 10.925781 12.285156 10.925781 12 C 10.925781 11.714844 11.039062 11.441406 11.242188 11.238281 C 11.441406 11.039062 11.714844 10.925781 12 10.925781 C 12.285156 10.925781 12.558594 11.039062 12.757812 11.238281 C 12.960938 11.441406 13.074219 11.714844 13.074219 12 Z M 13.074219 12 "/>
</svg>
