<?xml version="1.0" encoding="UTF-8"?>
<svg xmlns="http://www.w3.org/2000/svg" xmlns:xlink="http://www.w3.org/1999/xlink" width="24" height="24" viewBox="0 0 24 24">
<path fill-rule="nonzero" fill="rgb(99.607843%, 99.607843%, 99.607843%)" fill-opacity="1" stroke-width="0.281048" stroke-linecap="butt" stroke-linejoin="miter" stroke="rgb(11.372549%, 44.313725%, 72.54902%)" stroke-opacity="1" stroke-miterlimit="10" d="M 8 11.84375 L 11.210938 11.84375 C 11.210938 11.84375 13.09375 10.132812 12.4375 7.421875 C 12.4375 7.421875 11.570312 4.15625 8 4.15625 C 4.429688 4.15625 3.5625 7.419271 3.5625 7.419271 C 2.90625 10.130208 4.789062 11.841146 4.789062 11.841146 Z M 8 11.84375 " transform="matrix(1.5, 0, 0, 1.5, 0, 0)"/>
<path fill-rule="nonzero" fill="rgb(13.333333%, 68.627451%, 13.333333%)" fill-opacity="1" d="M 10.765625 16.3125 L 8.222656 16.3125 L 8.222656 13.164062 L 10.765625 15.6875 Z M 10.765625 16.3125 "/>
<path fill-rule="nonzero" fill="rgb(10.980392%, 64.705882%, 10.980392%)" fill-opacity="1" d="M 15.773438 12.46875 L 15.773438 9.183594 L 11.992188 12.910156 L 8.222656 9.183594 L 8.222656 12.46875 L 11.992188 16.3125 Z M 15.773438 12.46875 "/>
<path fill-rule="nonzero" fill="rgb(10.980392%, 64.705882%, 10.980392%)" fill-opacity="1" d="M 13.230469 16.3125 L 15.773438 16.3125 L 15.773438 13.164062 L 13.230469 15.6875 Z M 13.230469 16.3125 "/>
<path fill="none" stroke-width="0.201945" stroke-linecap="butt" stroke-linejoin="miter" stroke="rgb(11.372549%, 44.313725%, 72.54902%)" stroke-opacity="1" stroke-miterlimit="10" d="M 8.005208 11.338542 L 10.934896 11.338542 C 10.934896 11.338542 12.544271 9.734375 11.898438 7.5 C 11.898438 7.5 10.971354 4.638021 8.002604 4.638021 C 5.03125 4.638021 4.101562 7.5 4.101562 7.5 C 3.536458 9.75 5.015625 11.338542 5.015625 11.338542 Z M 8.005208 11.338542 " transform="matrix(1.5, 0, 0, 1.5, 0, 0)"/>
</svg>
