<?xml version="1.0" encoding="UTF-8"?>
<svg xmlns="http://www.w3.org/2000/svg" xmlns:xlink="http://www.w3.org/1999/xlink" width="24" height="24" viewBox="0 0 24 24">
<path fill-rule="nonzero" fill="rgb(100%, 100%, 100%)" fill-opacity="1" d="M 17.273438 0 C 16.945312 -0.00390625 16.613281 0.0351562 16.285156 0.121094 C 15.953125 0.207031 15.695312 0.464844 15.605469 0.796875 C 15.515625 1.125 15.609375 1.480469 15.851562 1.722656 L 17.054688 2.921875 C 17.035156 2.949219 17.035156 2.964844 17.007812 2.996094 C 16.972656 3.027344 16.957031 3.027344 16.925781 3.046875 L 15.71875 1.847656 C 15.476562 1.605469 15.125 1.511719 14.792969 1.601562 C 14.464844 1.691406 14.207031 1.949219 14.121094 2.28125 C 13.777344 3.582031 14.183594 4.972656 15.128906 5.914062 C 15.890625 6.671875 16.894531 6.753906 17.519531 6.667969 C 17.734375 6.640625 17.851562 6.609375 17.984375 6.582031 C 18.566406 7.183594 19.132812 7.796875 19.535156 8.265625 C 19.769531 8.539062 19.964844 8.773438 20.105469 8.941406 C 20.175781 9.027344 20.234375 9.097656 20.277344 9.148438 C 20.320312 9.203125 20.292969 9.1875 20.417969 9.308594 C 21.226562 10.113281 22.523438 10.152344 23.328125 9.347656 C 24.136719 8.539062 24.054688 7.203125 23.289062 6.4375 C 23.171875 6.324219 23.214844 6.371094 23.199219 6.359375 C 23.183594 6.34375 23.160156 6.328125 23.136719 6.308594 C 23.085938 6.265625 23.019531 6.210938 22.933594 6.140625 C 22.761719 5.996094 22.523438 5.796875 22.242188 5.554688 C 21.757812 5.140625 21.136719 4.570312 20.535156 3.988281 C 20.570312 3.863281 20.597656 3.757812 20.632812 3.558594 C 20.738281 2.929688 20.65625 1.90625 19.886719 1.132812 C 19.199219 0.414062 18.25 0.0117188 17.273438 0 Z M 21.773438 7.277344 C 21.945312 7.277344 22.25 7.578125 22.25 7.753906 C 22.25 7.929688 21.945312 8.230469 21.773438 8.230469 C 21.597656 8.230469 21.296875 7.929688 21.296875 7.753906 C 21.296875 7.578125 21.597656 7.277344 21.773438 7.277344 Z M 21.773438 7.277344 "/>
<path fill-rule="nonzero" fill="rgb(97.254902%, 0%, 87.843137%)" fill-opacity="1" d="M 16.5625 1.078125 L 18.203125 2.714844 C 18.203125 2.714844 18.203125 3.195312 17.722656 3.714844 C 17.203125 4.195312 16.722656 4.195312 16.722656 4.195312 L 15.078125 2.554688 C 14.839844 3.476562 15.160156 4.59375 15.839844 5.273438 C 16.882812 6.308594 18.164062 5.390625 18.445312 5.671875 C 19.886719 7.109375 21.046875 8.585938 21.125 8.664062 C 21.566406 9.105469 22.289062 9.105469 22.6875 8.707031 C 23.128906 8.265625 23.089844 7.585938 22.648438 7.148438 C 22.609375 7.109375 21.046875 5.871094 19.605469 4.433594 C 19.324219 4.152344 20.324219 2.914062 19.246094 1.835938 C 18.605469 1.160156 17.480469 0.839844 16.5625 1.078125 Z M 22.289062 7.785156 C 22.289062 8.066406 22.085938 8.265625 21.808594 8.265625 C 21.527344 8.265625 21.328125 8.066406 21.328125 7.785156 C 21.328125 7.507812 21.527344 7.308594 21.808594 7.308594 C 22.085938 7.308594 22.289062 7.507812 22.289062 7.785156 Z M 22.289062 7.785156 "/>
</svg>
