<?xml version="1.0" encoding="UTF-8"?>
<svg xmlns="http://www.w3.org/2000/svg" xmlns:xlink="http://www.w3.org/1999/xlink" width="24" height="24" viewBox="0 0 24 24">
<defs>
<filter id="filter-remove-color" x="0%" y="0%" width="100%" height="100%">
<feColorMatrix color-interpolation-filters="sRGB" values="0 0 0 0 1 0 0 0 0 1 0 0 0 0 1 0 0 0 1 0" />
</filter>
<mask id="mask-0">
<g filter="url(#filter-remove-color)">
<rect x="-2.4" y="-2.4" width="28.8" height="28.8" fill="rgb(0%, 0%, 0%)" fill-opacity="0.426087"/>
</g>
</mask>
<clipPath id="clip-0">
<path clip-rule="nonzero" d="M 0 5 L 24 5 L 24 21 L 0 21 Z M 0 5 "/>
</clipPath>
<clipPath id="clip-1">
<rect x="0" y="0" width="24" height="24"/>
</clipPath>
<g id="source-7" clip-path="url(#clip-1)">
<g clip-path="url(#clip-0)">
<path fill-rule="nonzero" fill="rgb(67.45098%, 84.705882%, 95.294118%)" fill-opacity="1" d="M 20.769531 5.441406 C 20.574219 5.445312 20.386719 5.488281 20.21875 5.5625 C 19.550781 5.859375 19.1875 6.640625 19.371094 7.355469 C 19.375 7.375 19.378906 7.394531 19.386719 7.414062 L 19.871094 8.84375 C 19.167969 8.746094 18.445312 8.707031 17.796875 8.710938 C 17.773438 8.652344 17.742188 8.59375 17.703125 8.539062 C 17.792969 8.445312 17.875 8.339844 17.949219 8.226562 C 18.222656 7.804688 18.328125 7.25 18.226562 6.75 C 18.175781 6.507812 18.097656 6.226562 17.867188 5.949219 C 17.636719 5.671875 17.21875 5.480469 16.847656 5.472656 C 16.601562 5.46875 16.371094 5.515625 16.140625 5.59375 C 16.128906 5.59375 16.121094 5.597656 16.113281 5.601562 C 15.59375 5.789062 12.363281 6.933594 8.621094 7.867188 C 8.390625 7.910156 8.101562 7.921875 7.734375 8.207031 C 7.546875 8.355469 7.375 8.609375 7.3125 8.863281 C 7.25 9.117188 7.269531 9.347656 7.3125 9.5625 C 7.425781 10.101562 7.796875 10.304688 8.113281 10.445312 C 8.417969 10.582031 8.769531 10.660156 9.199219 10.703125 C 9.195312 10.765625 9.203125 10.824219 9.214844 10.882812 L 9.261719 11.109375 C 7.617188 11.675781 5.753906 12.328125 5.199219 12.523438 L 4.484375 11.507812 C 4.441406 11.445312 4.390625 11.390625 4.332031 11.34375 C 3.839844 10.933594 3.222656 10.574219 2.46875 10.53125 L 0.9375 10.4375 C 0.804688 10.429688 0.675781 10.453125 0.558594 10.503906 C 0.4375 10.554688 0.332031 10.632812 0.246094 10.730469 C 0.164062 10.828125 0.101562 10.945312 0.0703125 11.070312 C 0.0390625 11.195312 0.0351562 11.328125 0.0625 11.453125 L 1.179688 16.636719 C 1.199219 16.722656 1.230469 16.804688 1.273438 16.882812 C 1.445312 17.175781 1.738281 17.351562 1.976562 17.429688 C 2.214844 17.507812 2.429688 17.519531 2.636719 17.519531 C 3.046875 17.511719 3.453125 17.433594 3.859375 17.34375 C 4.265625 17.253906 4.667969 17.152344 5 17.078125 C 5.332031 17.007812 5.625 16.988281 5.621094 16.984375 C 5.632812 16.988281 5.648438 16.988281 5.660156 16.988281 C 7.960938 17.085938 9.609375 17.449219 14.421875 16.589844 L 15.308594 17.21875 C 15.394531 17.28125 15.492188 17.324219 15.597656 17.347656 C 15.550781 17.65625 15.554688 17.972656 15.621094 18.289062 C 15.921875 19.757812 17.375 20.714844 18.84375 20.414062 C 20.3125 20.113281 21.269531 18.65625 20.96875 17.1875 C 20.769531 16.234375 20.089844 15.492188 19.226562 15.175781 C 19.949219 14.816406 20.597656 14.402344 21.160156 13.960938 L 21.421875 15.449219 C 21.425781 15.472656 21.429688 15.492188 21.433594 15.511719 C 21.523438 15.871094 21.761719 16.230469 22.125 16.414062 C 22.492188 16.597656 22.925781 16.574219 23.261719 16.425781 C 23.933594 16.128906 24.292969 15.347656 24.113281 14.632812 C 24.105469 14.613281 24.101562 14.59375 24.09375 14.570312 L 23.074219 11.550781 C 23.144531 11.289062 23.171875 11.007812 23.113281 10.710938 C 23.042969 10.371094 22.859375 10.101562 22.644531 9.890625 L 22.058594 6.539062 C 22.054688 6.515625 22.050781 6.496094 22.046875 6.476562 C 21.910156 5.941406 21.359375 5.433594 20.769531 5.441406 Z M 15.425781 9.777344 C 15.308594 10.117188 15.179688 10.28125 14.90625 10.464844 C 14.554688 10.699219 13.835938 10.945312 12.582031 11.203125 C 12.164062 11.289062 11.933594 11.203125 11.789062 11.105469 L 11.691406 10.609375 C 12.113281 10.554688 12.5625 10.480469 13.0625 10.378906 C 13.96875 10.191406 14.742188 10 15.425781 9.777344 Z M 18.203125 12.488281 C 18.195312 12.515625 18.179688 12.539062 18.152344 12.582031 C 18.09375 12.671875 17.933594 12.832031 17.625 13.003906 C 17.007812 13.339844 15.867188 13.691406 14.339844 14.003906 C 13.609375 14.15625 12.996094 14.238281 12.46875 14.289062 C 15.378906 13.484375 17.648438 12.6875 18.203125 12.488281 Z M 10.394531 14.171875 C 10.398438 14.171875 10.410156 14.179688 10.417969 14.1875 C 10.417969 14.1875 10.410156 14.183594 10.410156 14.183594 C 10.390625 14.175781 10.386719 14.171875 10.394531 14.171875 Z M 10.394531 14.171875 "/>
</g>
</g>
</defs>
<g mask="url(#mask-0)">
<use xlink:href="#source-7"/>
</g>
<path fill-rule="nonzero" fill="rgb(69.019608%, 11.372549%, 11.372549%)" fill-opacity="1" d="M 20.554688 6.3125 C 20.257812 6.445312 20.089844 6.777344 20.179688 7.128906 L 21.511719 11.074219 L 22.246094 15.289062 C 22.335938 15.636719 22.617188 15.769531 22.917969 15.636719 C 23.21875 15.503906 23.382812 15.171875 23.292969 14.824219 L 21.960938 10.875 L 21.226562 6.664062 C 21.140625 6.3125 20.855469 6.179688 20.554688 6.3125 Z M 20.554688 6.3125 "/>
<path fill-rule="nonzero" fill="rgb(69.019608%, 11.372549%, 11.372549%)" fill-opacity="1" d="M 17.785156 9.53125 C 17.1875 9.535156 16.664062 9.574219 16.332031 9.644531 C 15.964844 11.023438 15.324219 11.480469 12.746094 12.007812 C 11.496094 12.265625 10.914062 11.410156 10.914062 11.410156 C 9.617188 11.839844 4.871094 13.507812 4.871094 13.507812 L 3.792969 11.972656 C 3.398438 11.644531 2.890625 11.378906 2.414062 11.351562 L 0.882812 11.257812 L 2 16.441406 C 2.378906 17.097656 4.863281 16.054688 5.691406 16.128906 C 8.320312 16.242188 9.800781 16.6875 15.894531 15.433594 C 19.410156 14.710938 22.558594 12.191406 22.285156 10.863281 C 22.078125 9.867188 19.582031 9.527344 17.785156 9.53125 Z M 18.441406 11.570312 C 18.796875 11.578125 18.9375 11.824219 19.011719 12.175781 C 19.269531 13.425781 17.628906 14.167969 14.503906 14.8125 C 11.222656 15.484375 9.828125 15.039062 9.746094 14.648438 C 9.636719 14.101562 9.949219 14.039062 10.417969 13.941406 C 14.214844 12.996094 17.476562 11.839844 18.007812 11.648438 C 18.179688 11.59375 18.320312 11.570312 18.441406 11.570312 Z M 18.441406 11.570312 "/>
<path fill-rule="nonzero" fill="rgb(69.019608%, 11.372549%, 11.372549%)" fill-opacity="1" d="M 18.671875 19.570312 C 19.691406 19.363281 20.351562 18.363281 20.140625 17.339844 C 19.929688 16.320312 18.933594 15.660156 17.910156 15.871094 C 16.886719 16.082031 16.230469 17.078125 16.4375 18.101562 C 16.648438 19.125 17.648438 19.78125 18.671875 19.570312 Z M 18.671875 19.570312 "/>
<path fill-rule="nonzero" fill="rgb(69.019608%, 11.372549%, 11.372549%)" fill-opacity="1" d="M 14.457031 15.566406 L 15.789062 16.515625 C 15.835938 15.933594 16.550781 15.460938 16.550781 15.460938 L 16.082031 15.152344 C 14.988281 15.375 14.691406 15.519531 14.457031 15.566406 Z M 14.457031 15.566406 "/>
<path fill-rule="nonzero" fill="rgb(69.019608%, 11.372549%, 11.372549%)" fill-opacity="1" d="M 16.394531 6.375 C 15.863281 6.5625 12.601562 7.722656 8.804688 8.667969 C 8.335938 8.761719 8.023438 8.828125 8.132812 9.375 C 8.214844 9.765625 9.609375 10.210938 12.890625 9.535156 C 16.015625 8.894531 17.65625 8.152344 17.398438 6.902344 C 17.300781 6.433594 17.082031 6.152344 16.394531 6.375 Z M 16.394531 6.375 "/>
<path fill-rule="nonzero" fill="rgb(69.019608%, 11.372549%, 11.372549%)" fill-opacity="1" d="M 10.035156 10.695312 L 10.402344 12.492188 L 11.183594 12.332031 L 10.832031 10.609375 C 10.519531 10.675781 10.269531 10.644531 10.035156 10.695312 Z M 10.035156 10.695312 "/>
<path fill-rule="nonzero" fill="rgb(69.019608%, 11.372549%, 11.372549%)" fill-opacity="1" d="M 16.285156 9.410156 L 16.652344 11.207031 L 17.433594 11.046875 L 17.019531 9.015625 C 16.800781 9.140625 16.582031 9.265625 16.285156 9.410156 Z M 16.285156 9.410156 "/>
</svg>
