<?xml version="1.0" encoding="UTF-8"?>
<svg xmlns="http://www.w3.org/2000/svg" xmlns:xlink="http://www.w3.org/1999/xlink" width="32" height="32" viewBox="0 0 32 32">
<path fill-rule="nonzero" fill="rgb(99.607843%, 99.607843%, 99.607843%)" fill-opacity="1" d="M 20.898438 9.292969 C 20.558594 9.292969 20.234375 9.441406 20.007812 9.695312 C 19.8125 9.566406 19.585938 9.496094 19.351562 9.496094 L 5.40625 9.496094 C 4.75 9.496094 4.21875 10.027344 4.21875 10.683594 L 4.21875 19.097656 C 4.21875 20.019531 6.019531 20.113281 6.019531 20.113281 L 6.363281 20.632812 C 6.363281 20.632812 5.777344 22.832031 6.976562 22.835938 L 26.4375 22.835938 C 27.09375 22.835938 27.625 22.304688 27.625 21.648438 L 27.625 13.921875 C 27.625 13.382812 27.261719 12.910156 26.738281 12.773438 L 28.050781 11.257812 C 28.71875 10.488281 28.171875 9.292969 27.152344 9.292969 Z M 20.898438 9.292969 "/>
<path fill-rule="nonzero" fill="rgb(32.941176%, 60.784314%, 87.843137%)" fill-opacity="1" d="M 5.40625 10.683594 L 19.351562 10.683594 L 5.40625 19.097656 Z M 5.40625 10.683594 "/>
<path fill-rule="nonzero" fill="rgb(32.941176%, 60.784314%, 87.843137%)" fill-opacity="1" d="M 20.59375 21.648438 L 6.976562 21.648438 L 19.789062 13.921875 Z M 20.59375 21.648438 "/>
<path fill-rule="nonzero" fill="rgb(32.941176%, 60.784314%, 87.843137%)" fill-opacity="1" d="M 26.4375 21.648438 L 19.738281 21.648438 L 26.4375 13.921875 Z M 26.4375 21.648438 "/>
<path fill-rule="nonzero" fill="rgb(9.019608%, 69.019608%, 13.72549%)" fill-opacity="1" d="M 20.898438 10.480469 L 27.152344 10.480469 L 20.898438 17.695312 Z M 20.898438 10.480469 "/>
</svg>
