<?xml version="1.0" encoding="UTF-8"?>
<svg xmlns="http://www.w3.org/2000/svg" xmlns:xlink="http://www.w3.org/1999/xlink" width="32" height="32" viewBox="0 0 32 32">
<defs>
<filter id="filter-remove-color" x="0%" y="0%" width="100%" height="100%">
<feColorMatrix color-interpolation-filters="sRGB" values="0 0 0 0 1 0 0 0 0 1 0 0 0 0 1 0 0 0 1 0" />
</filter>
<mask id="mask-0">
<g filter="url(#filter-remove-color)">
<rect x="-3.2" y="-3.2" width="38.4" height="38.4" fill="rgb(0%, 0%, 0%)" fill-opacity="0.426087"/>
</g>
</mask>
<clipPath id="clip-0">
<rect x="0" y="0" width="32" height="32"/>
</clipPath>
<g id="source-6" clip-path="url(#clip-0)">
<path fill-rule="nonzero" fill="rgb(67.45098%, 84.705882%, 95.294118%)" fill-opacity="1" d="M 19.613281 3.289062 C 16.136719 3.289062 13.28125 6.140625 13.28125 9.617188 C 13.28125 12.066406 14.691406 14.203125 16.746094 15.253906 L 14.074219 26.355469 C 14.03125 26.523438 14.027344 26.695312 14.054688 26.867188 C 14.078125 27.035156 14.140625 27.199219 14.230469 27.34375 C 14.320312 27.488281 14.4375 27.613281 14.578125 27.714844 C 14.71875 27.816406 14.875 27.886719 15.042969 27.925781 L 16.34375 28.222656 C 16.515625 28.261719 16.6875 28.265625 16.859375 28.234375 C 17.03125 28.207031 17.195312 28.140625 17.339844 28.046875 C 17.484375 27.953125 17.609375 27.832031 17.707031 27.6875 C 17.804688 27.542969 17.871094 27.382812 17.90625 27.210938 L 20.148438 15.921875 C 23.378906 15.644531 25.945312 12.914062 25.945312 9.617188 C 25.945312 6.140625 23.089844 3.289062 19.613281 3.289062 Z M 19.613281 6.984375 C 21.09375 6.984375 22.246094 8.136719 22.246094 9.617188 C 22.246094 11.097656 21.09375 12.253906 19.613281 12.253906 C 18.132812 12.253906 16.980469 11.097656 16.980469 9.617188 C 16.980469 8.136719 18.132812 6.984375 19.613281 6.984375 Z M 19.613281 6.984375 "/>
</g>
</defs>
<g mask="url(#mask-0)">
<use xlink:href="#source-6"/>
</g>
<path fill-rule="nonzero" fill="rgb(0%, 0%, 0%)" fill-opacity="1" d="M 18.453125 13.699219 L 15.332031 26.652344 L 16.632812 26.953125 L 19.230469 13.878906 Z M 18.453125 13.699219 "/>
<path fill="none" stroke-width="20" stroke-linecap="round" stroke-linejoin="miter" stroke="rgb(0%, 0%, 0%)" stroke-opacity="1" stroke-miterlimit="4" d="M 436.699219 174.240723 C 436.699219 195.76416 428.132324 216.437988 412.910156 231.660156 C 397.687988 246.882324 377.01416 255.449219 355.490723 255.449219 C 333.896484 255.449219 313.293457 246.882324 298.000488 231.660156 C 282.77832 216.437988 274.211426 195.76416 274.211426 174.240723 C 274.211426 152.717285 282.77832 132.043457 298.000488 116.821289 C 313.293457 101.599121 333.896484 93.032227 355.490723 93.032227 C 377.01416 93.032227 397.687988 101.599121 412.910156 116.821289 C 428.132324 132.043457 436.699219 152.717285 436.699219 174.240723 Z M 436.699219 174.240723 " transform="matrix(0.0551724, 0, 0, 0.0551724, 0, 0)"/>
</svg>
