<?xml version="1.0" encoding="UTF-8"?>
<svg xmlns="http://www.w3.org/2000/svg" xmlns:xlink="http://www.w3.org/1999/xlink" width="12" height="12" viewBox="0 0 12 12" version="1.1">
<g id="surface1">
<path style=" stroke:none;fill-rule:nonzero;fill:rgb(99.607843%,99.607843%,99.607843%);fill-opacity:1;" d="M 0.683594 2.949219 C 0.34375 2.949219 0.175781 3.355469 0.410156 3.597656 L 1.6875 4.886719 C 1.730469 4.929688 1.785156 4.960938 1.84375 4.980469 C 1.859375 5.039062 1.894531 5.089844 1.9375 5.132812 L 3.382812 6.59375 C 3.425781 6.636719 3.480469 6.667969 3.539062 6.6875 C 3.558594 6.746094 3.589844 6.800781 3.632812 6.84375 L 5.707031 8.9375 C 5.855469 9.089844 6.097656 9.089844 6.25 8.941406 L 8.34375 6.863281 C 8.386719 6.820312 8.417969 6.765625 8.4375 6.707031 C 8.492188 6.691406 8.542969 6.660156 8.585938 6.617188 L 10.050781 5.167969 C 10.09375 5.125 10.125 5.070312 10.144531 5.011719 C 10.203125 4.992188 10.257812 4.960938 10.300781 4.917969 L 11.585938 3.640625 C 11.824219 3.402344 11.65625 2.992188 11.320312 2.988281 L 8.332031 2.976562 C 8.289062 2.976562 8.246094 2.984375 8.207031 3 C 8.167969 2.984375 8.125 2.980469 8.082031 2.976562 L 7.140625 2.972656 C 7.035156 2.972656 6.9375 3.015625 6.863281 3.089844 L 5.996094 4.003906 L 5.136719 3.085938 C 5.0625 3.007812 4.964844 2.964844 4.859375 2.964844 L 3.917969 2.960938 C 3.875 2.960938 3.832031 2.96875 3.792969 2.980469 C 3.753906 2.96875 3.710938 2.960938 3.667969 2.960938 Z M 0.683594 2.949219 "/>
<path style=" stroke:none;fill-rule:nonzero;fill:rgb(85.09804%,14.901961%,10.980392%);fill-opacity:1;" d="M 3.902344 6.574219 L 8.074219 6.589844 L 5.980469 8.671875 Z M 9.78125 4.894531 L 8.324219 4.890625 L 8.316406 6.347656 Z M 2.207031 4.867188 L 3.660156 4.871094 L 3.65625 6.324219 Z M 11.316406 3.371094 L 8.332031 3.359375 L 8.324219 4.640625 L 10.03125 4.648438 Z M 0.683594 3.328125 L 3.667969 3.339844 L 3.664062 4.625 L 1.960938 4.617188 Z M 5.992188 4.558594 L 7.140625 3.355469 L 8.082031 3.359375 L 8.074219 6.34375 L 7.226562 6.339844 L 7.230469 4.492188 L 5.988281 5.75 L 4.753906 4.484375 L 4.746094 6.328125 L 3.902344 6.328125 L 3.914062 3.34375 L 4.859375 3.347656 L 5.992188 4.554688 Z M 5.992188 4.558594 "/>
</g>
</svg>
