<?xml version="1.0" encoding="UTF-8"?>
<svg xmlns="http://www.w3.org/2000/svg" xmlns:xlink="http://www.w3.org/1999/xlink" width="12" height="12" viewBox="0 0 12 12" version="1.1">
<defs>
<filter id="alpha" filterUnits="objectBoundingBox" x="0%" y="0%" width="100%" height="100%">
  <feColorMatrix type="matrix" in="SourceGraphic" values="0 0 0 0 1 0 0 0 0 1 0 0 0 0 1 0 0 0 1 0"/>
</filter>
<mask id="mask0">
  <g filter="url(#alpha)">
<rect x="0" y="0" width="12" height="12" style="fill:rgb(0%,0%,0%);fill-opacity:0.372;stroke:none;"/>
  </g>
</mask>
<clipPath id="clip1">
  <rect x="0" y="0" width="12" height="12"/>
</clipPath>
<g id="surface5" clip-path="url(#clip1)">
<path style=" stroke:none;fill-rule:nonzero;fill:rgb(89.411765%,89.411765%,89.411765%);fill-opacity:1;" d="M 5.785156 2.921875 C 5.703125 2.917969 5.617188 2.945312 5.550781 2.996094 C 5.484375 3.046875 5.433594 3.121094 5.417969 3.203125 L 5.285156 3.78125 L 4.375 7.828125 L 4.148438 7.828125 C 4.0625 7.828125 3.980469 7.867188 3.921875 7.933594 C 3.859375 8 3.828125 8.09375 3.828125 8.191406 L 3.828125 8.449219 C 3.828125 8.546875 3.859375 8.640625 3.921875 8.707031 C 3.980469 8.773438 4.0625 8.8125 4.148438 8.8125 L 5.015625 8.8125 C 5.175781 9.058594 5.457031 9.222656 5.769531 9.222656 C 6.082031 9.222656 6.363281 9.058594 6.523438 8.8125 L 7.390625 8.8125 C 7.476562 8.8125 7.558594 8.773438 7.617188 8.707031 C 7.679688 8.640625 7.714844 8.546875 7.714844 8.449219 L 7.714844 8.191406 C 7.714844 8.09375 7.679688 8 7.617188 7.933594 C 7.558594 7.867188 7.476562 7.828125 7.390625 7.828125 L 7.179688 7.828125 L 6.253906 3.78125 L 6.121094 3.203125 C 6.105469 3.128906 6.0625 3.058594 6 3.007812 C 5.941406 2.957031 5.863281 2.925781 5.785156 2.921875 Z M 5.785156 2.921875 "/>
</g>
</defs>
<g id="surface1">
<use xlink:href="#surface5" mask="url(#mask0)"/>
<path style="fill:none;stroke-width:17.158001;stroke-linecap:butt;stroke-linejoin:miter;stroke:rgb(0%,0%,0%);stroke-opacity:1;stroke-miterlimit:4;" d="M 548.632813 735.30599 C 548.632813 740.481771 547.597656 745.657552 545.872396 750.488281 C 543.802083 754.973958 541.041667 759.459635 537.246094 763.255208 C 533.795573 766.705729 529.309896 769.466146 524.479167 771.536458 C 519.99349 773.606771 514.817708 774.641927 509.641927 774.641927 C 504.466146 774.641927 499.290365 773.606771 494.804688 771.536458 C 489.973958 769.466146 485.488281 766.705729 482.03776 763.255208 C 478.242188 759.459635 475.481771 754.973958 473.411458 750.488281 C 471.686198 745.657552 470.651042 740.481771 470.651042 735.30599 C 470.651042 730.130208 471.686198 725.299479 473.411458 720.46875 C 475.481771 715.638021 478.242188 711.497396 482.03776 707.701823 C 485.488281 704.251302 489.973958 701.145833 494.804688 699.420573 C 499.290365 697.35026 504.466146 696.315104 509.641927 696.315104 C 514.817708 696.315104 519.99349 697.35026 524.479167 699.420573 C 529.309896 701.145833 533.795573 704.251302 537.246094 707.701823 C 541.041667 711.497396 543.802083 715.638021 545.872396 720.46875 C 547.597656 725.299479 548.632813 730.130208 548.632813 735.30599 Z M 548.632813 735.30599 " transform="matrix(0.0113208,0,0,0.0113208,0,0)"/>
<path style=" stroke:none;fill-rule:nonzero;fill:rgb(0%,0%,0%);fill-opacity:1;" d="M 4.1875 8.195312 L 4.1875 8.457031 L 5.425781 8.457031 L 5.425781 8.195312 Z M 6.113281 8.195312 L 6.113281 8.457031 L 7.351562 8.457031 L 7.351562 8.195312 Z M 6.113281 8.195312 "/>
<path style=" stroke:none;fill-rule:nonzero;fill:rgb(0%,0%,0%);fill-opacity:1;" d="M 5.769531 3.304688 L 5.65625 3.789062 L 4.636719 8.253906 L 4.875 8.257812 L 5.769531 4.347656 L 6.664062 8.28125 L 6.882812 8.214844 L 5.878906 3.789062 Z M 5.769531 3.304688 "/>
</g>
</svg>
