<?xml version="1.0" encoding="UTF-8"?>
<svg xmlns="http://www.w3.org/2000/svg" xmlns:xlink="http://www.w3.org/1999/xlink" width="24" height="24" viewBox="0 0 24 24">
<defs>
<filter id="filter-remove-color" x="0%" y="0%" width="100%" height="100%">
<feColorMatrix color-interpolation-filters="sRGB" values="0 0 0 0 1 0 0 0 0 1 0 0 0 0 1 0 0 0 1 0" />
</filter>
<mask id="mask-0">
<g filter="url(#filter-remove-color)">
<rect x="-2.4" y="-2.4" width="28.8" height="28.8" fill="rgb(0%, 0%, 0%)" fill-opacity="0.426087"/>
</g>
</mask>
<clipPath id="clip-0">
<rect x="0" y="0" width="24" height="24"/>
</clipPath>
<g id="source-6" clip-path="url(#clip-0)">
<path fill-rule="nonzero" fill="rgb(55.294118%, 55.294118%, 55.294118%)" fill-opacity="1" d="M 11.742188 12.253906 C 7.878906 12.253906 4.734375 15.402344 4.734375 19.265625 C 4.734375 19.519531 4.738281 19.78125 4.753906 20.046875 L 4.152344 20.046875 C 4.046875 20.046875 3.941406 20.066406 3.84375 20.105469 C 3.742188 20.148438 3.652344 20.207031 3.578125 20.28125 C 3.503906 20.359375 3.445312 20.449219 3.402344 20.546875 C 3.363281 20.644531 3.339844 20.75 3.339844 20.855469 L 3.339844 21.890625 C 3.339844 21.996094 3.363281 22.101562 3.402344 22.203125 C 3.445312 22.300781 3.503906 22.390625 3.578125 22.464844 C 3.652344 22.539062 3.742188 22.597656 3.84375 22.640625 C 3.941406 22.679688 4.046875 22.703125 4.152344 22.703125 L 7.160156 22.703125 C 7.652344 22.726562 8.167969 22.714844 8.628906 22.703125 C 8.636719 22.703125 8.648438 22.703125 8.65625 22.703125 L 9.476562 22.703125 C 9.574219 22.867188 9.6875 23.019531 9.820312 23.15625 C 9.824219 23.164062 9.828125 23.167969 9.832031 23.171875 L 9.835938 23.171875 C 10.0625 23.421875 10.382812 23.664062 10.796875 23.816406 L 10.796875 23.820312 C 10.804688 23.820312 10.808594 23.824219 10.8125 23.824219 C 10.8125 23.824219 10.816406 23.824219 10.816406 23.824219 C 11.101562 23.933594 11.414062 23.992188 11.734375 23.992188 C 11.84375 23.992188 11.949219 23.984375 12.050781 23.972656 C 12.054688 23.972656 12.054688 23.972656 12.058594 23.972656 C 12.0625 23.972656 12.070312 23.972656 12.074219 23.972656 L 12.074219 23.96875 C 12.554688 23.917969 13.074219 23.710938 13.5 23.308594 C 13.507812 23.300781 13.519531 23.289062 13.53125 23.277344 L 13.535156 23.277344 C 13.539062 23.273438 13.542969 23.269531 13.546875 23.261719 C 13.71875 23.097656 13.871094 22.910156 13.992188 22.703125 L 15.683594 22.703125 C 15.871094 22.707031 16.058594 22.707031 16.246094 22.703125 C 16.253906 22.703125 16.261719 22.703125 16.273438 22.703125 L 18.859375 22.703125 C 18.964844 22.703125 19.070312 22.679688 19.167969 22.640625 C 19.265625 22.597656 19.355469 22.539062 19.433594 22.464844 C 19.507812 22.390625 19.566406 22.300781 19.609375 22.203125 C 19.648438 22.101562 19.667969 21.996094 19.667969 21.890625 L 19.667969 20.855469 C 19.667969 20.75 19.648438 20.644531 19.609375 20.546875 C 19.566406 20.449219 19.507812 20.359375 19.433594 20.28125 C 19.355469 20.207031 19.265625 20.148438 19.167969 20.105469 C 19.070312 20.066406 18.964844 20.046875 18.859375 20.046875 L 18.761719 20.046875 C 18.769531 19.714844 18.769531 19.355469 18.746094 18.980469 C 18.746094 18.976562 18.746094 18.96875 18.746094 18.964844 C 18.585938 15.238281 15.503906 12.253906 11.742188 12.253906 Z M 11.742188 12.253906 "/>
</g>
<mask id="mask-1">
<g filter="url(#filter-remove-color)">
<rect x="-2.4" y="-2.4" width="28.8" height="28.8" fill="rgb(0%, 0%, 0%)" fill-opacity="0.426087"/>
</g>
</mask>
<clipPath id="clip-1">
<rect x="0" y="0" width="24" height="24"/>
</clipPath>
<g id="source-12" clip-path="url(#clip-1)">
<path fill-rule="nonzero" fill="rgb(0%, 0%, 0%)" fill-opacity="1" d="M 15.957031 15.761719 C 16.367188 15.6875 17.316406 16.785156 17.65625 17.914062 C 18.15625 19.59375 17.234375 21.472656 17.234375 21.472656 L 16.25 21.621094 C 16.25 21.621094 16.792969 20.496094 16.761719 19.050781 C 16.710938 16.917969 15.546875 15.832031 15.957031 15.761719 Z M 15.957031 15.761719 "/>
</g>
<mask id="mask-2">
<g filter="url(#filter-remove-color)">
<rect x="-2.4" y="-2.4" width="28.8" height="28.8" fill="rgb(0%, 0%, 0%)" fill-opacity="0.856"/>
</g>
</mask>
<clipPath id="clip-2">
<rect x="0" y="0" width="24" height="24"/>
</clipPath>
<g id="source-18" clip-path="url(#clip-2)">
<path fill-rule="nonzero" fill="rgb(99.607843%, 99.607843%, 99.607843%)" fill-opacity="1" d="M 9.5625 14.339844 C 9.277344 14.128906 8.078125 14.6875 7.453125 15.457031 C 6.945312 16.082031 6.820312 16.402344 6.648438 17.097656 C 6.554688 17.472656 6.503906 18.433594 6.796875 18.183594 C 6.980469 18.023438 7.082031 17.496094 7.648438 16.550781 C 8.574219 15.007812 9.84375 14.546875 9.5625 14.339844 Z M 9.5625 14.339844 "/>
</g>
</defs>
<g mask="url(#mask-0)">
<use xlink:href="#source-6"/>
</g>
<path fill-rule="nonzero" fill="rgb(90.980392%, 0%, 0%)" fill-opacity="1" d="M 17.921875 19.265625 C 17.921875 20.273438 18.007812 21.34375 17.3125 21.683594 C 16.394531 22.132812 14.53125 21.695312 13.46875 21.910156 C 13.054688 22.878906 12.371094 23.1875 11.75 23.179688 C 10.277344 23.160156 10.046875 21.910156 9.960938 21.890625 C 9.226562 21.773438 6.085938 22.207031 5.796875 21.429688 C 5.558594 20.789062 5.523438 20.027344 5.523438 19.265625 C 5.523438 15.84375 8.300781 13.066406 11.722656 13.066406 C 15.148438 13.066406 17.921875 15.84375 17.921875 19.265625 Z M 17.921875 19.265625 "/>
<path fill-rule="nonzero" fill="rgb(0%, 87.45098%, 4.705882%)" fill-opacity="1" d="M 6.863281 15.429688 C 6.027344 16.484375 5.523438 17.816406 5.523438 19.265625 C 5.523438 19.859375 5.546875 20.453125 5.667969 20.988281 C 6.144531 21.308594 6.664062 21.613281 7.214844 21.894531 C 8.246094 21.945312 9.527344 21.820312 9.960938 21.890625 C 10.046875 21.910156 10.277344 23.160156 11.75 23.179688 C 12.371094 23.1875 13.054688 22.878906 13.46875 21.910156 C 14.53125 21.695312 16.394531 22.132812 17.3125 21.683594 C 18.007812 21.34375 17.921875 20.273438 17.921875 19.265625 C 17.921875 18.871094 17.886719 18.484375 17.816406 18.105469 C 17.773438 18.15625 17.730469 18.207031 17.675781 18.253906 C 17.617188 18.308594 17.546875 18.363281 17.472656 18.414062 C 17.398438 18.464844 17.316406 18.515625 17.226562 18.5625 C 17.140625 18.609375 17.042969 18.652344 16.945312 18.695312 C 16.84375 18.738281 16.734375 18.777344 16.625 18.816406 C 16.511719 18.851562 16.394531 18.886719 16.273438 18.917969 C 16.148438 18.949219 16.023438 18.976562 15.890625 19.003906 C 15.757812 19.027344 15.625 19.050781 15.484375 19.070312 C 15.34375 19.089844 15.199219 19.105469 15.050781 19.117188 C 14.90625 19.128906 14.753906 19.140625 14.601562 19.144531 C 14.449219 19.148438 14.292969 19.148438 14.132812 19.148438 C 13.972656 19.144531 13.8125 19.136719 13.648438 19.128906 C 13.488281 19.117188 13.324219 19.101562 13.15625 19.082031 C 12.988281 19.0625 12.824219 19.039062 12.65625 19.011719 C 12.484375 18.984375 12.316406 18.949219 12.148438 18.910156 C 11.976562 18.875 11.808594 18.832031 11.636719 18.785156 C 11.472656 18.738281 11.3125 18.6875 11.152344 18.636719 C 10.996094 18.582031 10.839844 18.527344 10.6875 18.46875 C 10.535156 18.410156 10.382812 18.347656 10.238281 18.285156 C 10.09375 18.222656 9.949219 18.15625 9.8125 18.085938 C 9.671875 18.019531 9.535156 17.949219 9.40625 17.875 C 9.273438 17.804688 9.144531 17.730469 9.023438 17.65625 C 8.898438 17.578125 8.78125 17.503906 8.664062 17.425781 C 8.550781 17.347656 8.441406 17.269531 8.335938 17.1875 C 8.230469 17.109375 8.128906 17.027344 8.03125 16.945312 C 7.9375 16.863281 7.84375 16.78125 7.757812 16.699219 C 7.671875 16.617188 7.589844 16.535156 7.515625 16.453125 C 7.441406 16.371094 7.371094 16.292969 7.304688 16.210938 C 7.242188 16.128906 7.183594 16.046875 7.128906 15.96875 C 7.078125 15.886719 7.03125 15.808594 6.988281 15.730469 C 6.949219 15.652344 6.914062 15.578125 6.886719 15.5 C 6.875 15.476562 6.871094 15.453125 6.863281 15.429688 Z M 6.863281 15.429688 "/>
<g mask="url(#mask-1)">
<use xlink:href="#source-12"/>
</g>
<path fill="none" stroke-width="25" stroke-linecap="butt" stroke-linejoin="miter" stroke="rgb(0%, 0%, 0%)" stroke-opacity="1" stroke-miterlimit="4" d="M 99.970703 516.5625 L 455.296224 516.5625 " transform="matrix(0.0413793, 0, 0, 0.0413793, 0, 0)"/>
<path fill-rule="nonzero" fill="rgb(99.607843%, 99.607843%, 99.607843%)" fill-opacity="1" stroke-width="20.5723" stroke-linecap="round" stroke-linejoin="round" stroke="rgb(0%, 0%, 0%)" stroke-opacity="1" stroke-miterlimit="10" d="M 316.809896 516.373698 C 316.809896 525.341797 313.222656 533.837891 306.992188 540.16276 C 300.667318 546.48763 292.076823 549.980469 283.203125 549.980469 C 274.329427 549.980469 265.738932 546.48763 259.414062 540.16276 C 253.089193 533.837891 249.596354 525.341797 249.596354 516.373698 C 249.596354 507.5 253.089193 498.909505 259.414062 492.679036 C 265.738932 486.354167 274.329427 482.766927 283.203125 482.766927 C 292.076823 482.766927 300.667318 486.354167 306.992188 492.679036 C 313.222656 498.909505 316.809896 507.5 316.809896 516.373698 Z M 316.809896 516.373698 " transform="matrix(0.0413793, 0, 0, 0.0413793, 0, 0)"/>
<g mask="url(#mask-2)">
<use xlink:href="#source-18"/>
</g>
</svg>
