<?xml version="1.0" encoding="UTF-8"?>
<svg xmlns="http://www.w3.org/2000/svg" xmlns:xlink="http://www.w3.org/1999/xlink" width="24" height="24" viewBox="0 0 24 24">
<defs>
<filter id="filter-remove-color" x="0%" y="0%" width="100%" height="100%">
<feColorMatrix color-interpolation-filters="sRGB" values="0 0 0 0 1 0 0 0 0 1 0 0 0 0 1 0 0 0 1 0" />
</filter>
<mask id="mask-0">
<g filter="url(#filter-remove-color)">
<rect x="-2.4" y="-2.4" width="28.8" height="28.8" fill="rgb(0%, 0%, 0%)" fill-opacity="0.426087"/>
</g>
</mask>
<clipPath id="clip-0">
<path clip-rule="nonzero" d="M 3 7 L 20 7 L 20 24 L 3 24 Z M 3 7 "/>
</clipPath>
<clipPath id="clip-1">
<rect x="0" y="0" width="24" height="24"/>
</clipPath>
<g id="source-7" clip-path="url(#clip-1)">
<g clip-path="url(#clip-0)">
<path fill-rule="nonzero" fill="rgb(55.294118%, 55.294118%, 55.294118%)" fill-opacity="1" d="M 13.0625 7.566406 C 12.894531 7.5625 12.730469 7.609375 12.585938 7.699219 C 12.445312 7.792969 12.335938 7.925781 12.273438 8.082031 L 10.511719 12.472656 C 10.511719 12.472656 10.511719 12.472656 10.511719 12.476562 L 9.765625 14.359375 L 9.164062 15.875 L 9.019531 16.0625 L 9.015625 16.070312 L 8.898438 16.21875 C 8.898438 16.21875 8.898438 16.21875 8.898438 16.222656 L 8.324219 16.964844 C 8.308594 16.988281 8.292969 17.007812 8.277344 17.03125 C 8.277344 17.03125 8.277344 17.035156 8.277344 17.035156 L 5.972656 20.03125 L 4.132812 20.03125 C 4.027344 20.03125 3.917969 20.054688 3.820312 20.09375 C 3.71875 20.136719 3.628906 20.195312 3.550781 20.273438 C 3.476562 20.347656 3.414062 20.441406 3.371094 20.539062 C 3.332031 20.640625 3.308594 20.746094 3.308594 20.855469 L 3.308594 21.890625 C 3.308594 21.996094 3.332031 22.105469 3.371094 22.203125 C 3.414062 22.304688 3.476562 22.394531 3.550781 22.472656 C 3.628906 22.546875 3.71875 22.609375 3.820312 22.652344 C 3.917969 22.691406 4.027344 22.714844 4.132812 22.714844 L 9.453125 22.714844 C 9.546875 22.867188 9.648438 23.007812 9.765625 23.140625 C 9.796875 23.175781 9.828125 23.203125 9.851562 23.230469 C 10.328125 23.707031 10.992188 24.007812 11.71875 24.007812 C 12.261719 24.007812 12.773438 23.835938 13.191406 23.550781 C 13.332031 23.457031 13.464844 23.351562 13.582031 23.230469 C 13.609375 23.207031 13.636719 23.175781 13.671875 23.140625 C 13.699219 23.105469 13.726562 23.074219 13.753906 23.042969 C 13.773438 23.015625 13.800781 22.984375 13.832031 22.945312 C 13.886719 22.871094 13.933594 22.792969 13.980469 22.714844 L 18.839844 22.714844 C 18.949219 22.714844 19.054688 22.691406 19.15625 22.652344 C 19.253906 22.609375 19.34375 22.546875 19.421875 22.472656 C 19.5 22.394531 19.558594 22.304688 19.601562 22.203125 C 19.640625 22.105469 19.664062 21.996094 19.664062 21.890625 L 19.664062 20.855469 C 19.664062 20.746094 19.640625 20.640625 19.601562 20.539062 C 19.558594 20.441406 19.5 20.347656 19.421875 20.273438 C 19.34375 20.195312 19.253906 20.136719 19.15625 20.09375 C 19.054688 20.054688 18.949219 20.03125 18.839844 20.03125 L 16.640625 20.03125 L 16.269531 18.269531 L 16.265625 18.265625 L 16.09375 17.421875 L 16.339844 13.484375 C 16.339844 13.484375 16.339844 13.480469 16.339844 13.480469 L 16.585938 9.082031 C 16.585938 9.066406 16.585938 9.050781 16.585938 9.035156 C 16.585938 9.011719 16.585938 8.988281 16.585938 8.964844 C 16.582031 8.960938 16.582031 8.957031 16.582031 8.949219 C 16.582031 8.949219 16.582031 8.945312 16.582031 8.941406 C 16.578125 8.917969 16.574219 8.894531 16.570312 8.871094 C 16.570312 8.867188 16.570312 8.867188 16.570312 8.867188 C 16.5625 8.84375 16.558594 8.816406 16.550781 8.789062 C 16.539062 8.765625 16.53125 8.738281 16.519531 8.714844 C 16.511719 8.6875 16.5 8.664062 16.488281 8.640625 C 16.488281 8.640625 16.484375 8.640625 16.484375 8.640625 C 16.484375 8.636719 16.484375 8.636719 16.484375 8.636719 C 16.476562 8.621094 16.464844 8.605469 16.457031 8.589844 C 16.445312 8.574219 16.4375 8.558594 16.425781 8.546875 C 16.425781 8.542969 16.421875 8.542969 16.421875 8.539062 C 16.417969 8.539062 16.417969 8.535156 16.414062 8.53125 C 16.402344 8.515625 16.386719 8.5 16.375 8.484375 C 16.371094 8.480469 16.371094 8.480469 16.371094 8.476562 C 16.367188 8.476562 16.367188 8.472656 16.367188 8.472656 C 16.351562 8.457031 16.332031 8.441406 16.316406 8.425781 C 16.316406 8.421875 16.3125 8.421875 16.3125 8.417969 C 16.308594 8.417969 16.304688 8.414062 16.300781 8.414062 C 16.285156 8.398438 16.269531 8.382812 16.25 8.371094 C 16.25 8.371094 16.25 8.367188 16.246094 8.367188 C 16.246094 8.367188 16.242188 8.363281 16.238281 8.363281 C 16.21875 8.347656 16.199219 8.335938 16.179688 8.324219 C 16.15625 8.308594 16.132812 8.296875 16.109375 8.285156 C 16.109375 8.285156 16.105469 8.285156 16.105469 8.285156 C 16.105469 8.285156 16.101562 8.285156 16.101562 8.285156 C 16.078125 8.273438 16.050781 8.261719 16.027344 8.253906 C 16 8.246094 15.972656 8.238281 15.945312 8.230469 L 15.839844 8.207031 L 15.832031 8.203125 L 13.226562 7.589844 C 13.171875 7.574219 13.117188 7.570312 13.0625 7.566406 Z M 14.164062 22.007812 C 14.164062 22.007812 14.1875 22.042969 14.191406 22.113281 L 14.1875 22.113281 C 14.183594 22.046875 14.164062 22.007812 14.164062 22.007812 Z M 14.164062 22.007812 "/>
</g>
</g>
<mask id="mask-1">
<g filter="url(#filter-remove-color)">
<rect x="-2.4" y="-2.4" width="28.8" height="28.8" fill="rgb(0%, 0%, 0%)" fill-opacity="0.426087"/>
</g>
</mask>
<clipPath id="clip-2">
<rect x="0" y="0" width="24" height="24"/>
</clipPath>
<g id="source-16" clip-path="url(#clip-2)">
<path fill-rule="nonzero" fill="rgb(0%, 0%, 0%)" fill-opacity="1" d="M 15.164062 8.898438 L 15.761719 9.035156 L 15.265625 17.496094 L 15.980469 20.886719 L 13.828125 20.882812 L 13.515625 17.074219 Z M 15.164062 8.898438 "/>
</g>
</defs>
<g mask="url(#mask-0)">
<use xlink:href="#source-7"/>
</g>
<path fill-rule="nonzero" fill="rgb(0%, 0%, 0%)" fill-opacity="1" d="M 9.550781 16.726562 L 5.917969 21.460938 L 9.90625 21.480469 C 9.960938 22.425781 10.757812 23.1875 11.71875 23.1875 C 12.675781 23.1875 13.46875 22.433594 13.53125 21.492188 L 16.109375 21.503906 L 15.367188 17.992188 Z M 9.550781 16.726562 "/>
<path fill-rule="nonzero" fill="rgb(100%, 83.137255%, 0%)" fill-opacity="1" d="M 13.039062 8.390625 L 11.277344 12.78125 L 9.890625 16.285156 L 9.550781 16.726562 L 15.367188 17.992188 L 15.265625 17.496094 L 15.519531 13.4375 L 15.765625 9.039062 "/>
<path fill-rule="nonzero" fill="rgb(0%, 0%, 0%)" fill-opacity="1" d="M 10.53125 14.664062 L 9.890625 16.289062 L 8.976562 17.472656 L 15.558594 18.898438 L 15.265625 17.476562 L 15.382812 15.617188 "/>
<path fill="none" stroke-width="25" stroke-linecap="butt" stroke-linejoin="miter" stroke="rgb(0%, 0%, 0%)" stroke-opacity="1" stroke-miterlimit="4" d="M 99.970703 516.5625 L 455.296224 516.5625 " transform="matrix(0.0413793, 0, 0, 0.0413793, 0, 0)"/>
<path fill-rule="nonzero" fill="rgb(99.607843%, 99.607843%, 99.607843%)" fill-opacity="1" stroke-width="20.5723" stroke-linecap="round" stroke-linejoin="round" stroke="rgb(0%, 0%, 0%)" stroke-opacity="1" stroke-miterlimit="10" d="M 316.809896 516.373698 C 316.809896 525.341797 313.222656 533.837891 306.992188 540.16276 C 300.667318 546.48763 292.076823 549.980469 283.203125 549.980469 C 274.329427 549.980469 265.738932 546.48763 259.414062 540.16276 C 253.089193 533.837891 249.596354 525.341797 249.596354 516.373698 C 249.596354 507.5 253.089193 498.909505 259.414062 492.679036 C 265.738932 486.354167 274.329427 482.766927 283.203125 482.766927 C 292.076823 482.766927 300.667318 486.354167 306.992188 492.679036 C 313.222656 498.909505 316.809896 507.5 316.809896 516.373698 Z M 316.809896 516.373698 " transform="matrix(0.0413793, 0, 0, 0.0413793, 0, 0)"/>
<g mask="url(#mask-1)">
<use xlink:href="#source-16"/>
</g>
</svg>
