<?xml version="1.0" encoding="UTF-8"?>
<svg xmlns="http://www.w3.org/2000/svg" xmlns:xlink="http://www.w3.org/1999/xlink" width="32" height="32" viewBox="0 0 32 32">
<path fill-rule="nonzero" fill="rgb(99.607843%, 99.607843%, 99.607843%)" fill-opacity="1" d="M 25.15625 16 C 25.15625 21.054688 21.054688 25.15625 16 25.15625 C 10.945312 25.15625 6.84375 21.054688 6.84375 16 C 6.84375 10.945312 10.945312 6.84375 16 6.84375 C 21.054688 6.84375 25.15625 10.945312 25.15625 16 Z M 25.15625 16 "/>
<path fill-rule="evenodd" fill="rgb(0%, 55.294118%, 30.980392%)" fill-opacity="1" d="M 23.785156 16 C 23.785156 11.703125 20.292969 8.214844 16 8.214844 C 11.703125 8.214844 8.210938 11.703125 8.210938 16 C 8.210938 20.296875 11.703125 23.785156 16 23.785156 C 20.292969 23.785156 23.785156 20.296875 23.785156 16 "/>
<path fill-rule="evenodd" fill="rgb(99.607843%, 99.607843%, 99.607843%)" fill-opacity="1" d="M 21.113281 18.070312 C 21.113281 19.957031 19.28125 22.15625 16.195312 22.15625 C 14.476562 22.15625 12.492188 21.382812 11.410156 20.410156 L 11.410156 17.960938 C 12.4375 19.4375 14.308594 20.578125 16.195312 20.578125 C 17.351562 20.578125 18.28125 19.917969 18.28125 19.210938 C 18.28125 16.550781 11.308594 18.195312 11.308594 13.609375 C 11.308594 11.199219 13.660156 9.90625 15.773438 9.90625 C 17.53125 9.90625 19.109375 10.480469 20.363281 11.453125 L 20.363281 13.496094 C 19.28125 12.324219 17.648438 11.296875 15.734375 11.296875 C 14.648438 11.296875 14.03125 11.871094 14.03125 12.546875 C 14.03125 15.394531 21.113281 13.394531 21.113281 18.070312 "/>
</svg>
