<?xml version="1.0" encoding="UTF-8"?>
<svg xmlns="http://www.w3.org/2000/svg" xmlns:xlink="http://www.w3.org/1999/xlink" width="64" height="64" viewBox="0 0 64 64">
<defs>
<filter id="filter-remove-color" x="0%" y="0%" width="100%" height="100%">
<feColorMatrix color-interpolation-filters="sRGB" values="0 0 0 0 1 0 0 0 0 1 0 0 0 0 1 0 0 0 1 0" />
</filter>
<mask id="mask-0">
<g filter="url(#filter-remove-color)">
<rect x="-6.4" y="-6.4" width="76.8" height="76.8" fill="rgb(0%, 0%, 0%)" fill-opacity="0.873134"/>
</g>
</mask>
<clipPath id="clip-0">
<rect x="0" y="0" width="64" height="64"/>
</clipPath>
<g id="source-6" clip-path="url(#clip-0)">
<path fill-rule="nonzero" fill="rgb(67.45098%, 84.705882%, 95.294118%)" fill-opacity="1" d="M 27.902344 14.304688 C 27.019531 14.304688 26.105469 14.46875 25.304688 14.925781 C 24.925781 14.601562 24.441406 14.421875 23.941406 14.421875 L 22.238281 14.421875 C 21.917969 14.421875 21.605469 14.496094 21.316406 14.636719 C 21.03125 14.773438 20.777344 14.980469 20.582031 15.230469 C 20.382812 14.980469 20.132812 14.773438 19.84375 14.636719 C 19.558594 14.496094 19.242188 14.421875 18.921875 14.421875 L 16.894531 14.421875 C 16.464844 14.421875 16.046875 14.554688 15.691406 14.796875 C 15.339844 15.042969 15.070312 15.390625 14.921875 15.792969 L 14.179688 17.792969 C 14.089844 17.78125 13.996094 17.773438 13.902344 17.773438 L 13.035156 17.773438 L 13.222656 17.253906 C 13.34375 16.9375 13.382812 16.59375 13.339844 16.257812 C 13.296875 15.921875 13.171875 15.601562 12.976562 15.324219 C 12.785156 15.046875 12.527344 14.816406 12.226562 14.660156 C 11.925781 14.503906 11.589844 14.421875 11.25 14.421875 L 9.539062 14.421875 C 9.195312 14.421875 8.851562 14.507812 8.546875 14.671875 C 8.242188 14.835938 7.984375 15.070312 7.789062 15.359375 C 7.597656 15.070312 7.339844 14.835938 7.035156 14.671875 C 6.726562 14.507812 6.386719 14.421875 6.042969 14.421875 L 4.332031 14.421875 C 3.992188 14.421875 3.65625 14.503906 3.355469 14.660156 C 3.054688 14.816406 2.796875 15.046875 2.605469 15.324219 C 2.410156 15.601562 2.285156 15.921875 2.242188 16.257812 C 2.199219 16.59375 2.238281 16.9375 2.355469 17.253906 L 4.800781 23.859375 C 4.949219 24.261719 5.21875 24.609375 5.574219 24.855469 C 5.925781 25.097656 6.34375 25.230469 6.777344 25.230469 L 8.804688 25.230469 C 9.234375 25.230469 9.65625 25.097656 10.007812 24.855469 C 10.359375 24.609375 10.628906 24.261719 10.777344 23.859375 L 11 23.261719 C 11.042969 23.265625 11.085938 23.265625 11.125 23.265625 L 12.347656 23.265625 C 12.382812 23.800781 12.621094 24.296875 13.011719 24.664062 C 13.398438 25.027344 13.914062 25.230469 14.445312 25.230469 L 16.160156 25.230469 C 16.503906 25.230469 16.847656 25.144531 17.152344 24.980469 C 17.457031 24.816406 17.714844 24.578125 17.90625 24.292969 C 18.097656 24.578125 18.359375 24.816406 18.664062 24.980469 C 18.96875 25.144531 19.308594 25.230469 19.65625 25.230469 L 21.367188 25.230469 C 21.515625 25.230469 21.664062 25.214844 21.808594 25.183594 C 21.949219 25.214844 22.09375 25.230469 22.238281 25.230469 L 23.941406 25.230469 C 24.359375 25.230469 24.769531 25.105469 25.117188 24.871094 C 25.527344 25.007812 25.945312 25.125 26.367188 25.203125 C 26.914062 25.308594 27.46875 25.359375 28.019531 25.359375 C 29.183594 25.359375 30.351562 25.15625 31.332031 24.351562 C 32.308594 23.546875 32.75 22.246094 32.75 21.097656 C 32.75 20.394531 32.566406 19.605469 32.15625 18.941406 C 32.261719 18.683594 32.316406 18.410156 32.316406 18.132812 L 32.316406 16.734375 C 32.316406 16.269531 32.164062 15.820312 31.882812 15.449219 C 31.597656 15.082031 31.203125 14.820312 30.753906 14.699219 C 30.269531 14.570312 29.789062 14.46875 29.3125 14.40625 C 28.835938 14.335938 28.367188 14.304688 27.902344 14.304688 Z M 27.902344 14.304688 "/>
</g>
</defs>
<g mask="url(#mask-0)">
<use xlink:href="#source-6"/>
</g>
<path fill-rule="nonzero" fill="rgb(0%, 0%, 0%)" fill-opacity="1" d="M 27.902344 16.40625 C 27.109375 16.40625 26.5 16.582031 26.074219 16.9375 C 25.648438 17.289062 25.4375 17.796875 25.4375 18.453125 C 25.4375 18.980469 25.589844 19.394531 25.890625 19.703125 C 26.199219 20.015625 26.683594 20.242188 27.34375 20.382812 L 28 20.527344 C 28.402344 20.617188 28.667969 20.714844 28.800781 20.828125 C 28.9375 20.9375 29.003906 21.097656 29.003906 21.304688 C 29.003906 21.535156 28.90625 21.714844 28.710938 21.835938 C 28.511719 21.960938 28.226562 22.023438 27.855469 22.023438 C 27.492188 22.023438 27.109375 21.964844 26.714844 21.855469 C 26.324219 21.738281 25.914062 21.570312 25.496094 21.34375 L 25.496094 22.78125 C 25.914062 22.9375 26.335938 23.058594 26.757812 23.136719 C 27.179688 23.214844 27.601562 23.253906 28.019531 23.253906 C 28.90625 23.253906 29.566406 23.078125 29.996094 22.726562 C 30.429688 22.367188 30.648438 21.824219 30.648438 21.097656 C 30.648438 20.542969 30.492188 20.117188 30.183594 19.816406 C 29.875 19.515625 29.351562 19.289062 28.617188 19.140625 L 27.890625 18.996094 C 27.546875 18.925781 27.308594 18.839844 27.175781 18.746094 C 27.046875 18.644531 26.980469 18.507812 26.980469 18.328125 C 26.980469 18.09375 27.078125 17.917969 27.273438 17.804688 C 27.464844 17.695312 27.765625 17.640625 28.171875 17.640625 C 28.480469 17.640625 28.804688 17.679688 29.152344 17.761719 C 29.496094 17.847656 29.851562 17.96875 30.214844 18.132812 L 30.214844 16.734375 C 29.804688 16.625 29.40625 16.542969 29.023438 16.488281 C 28.640625 16.433594 28.265625 16.40625 27.902344 16.40625 Z M 4.332031 16.527344 L 6.777344 23.128906 L 8.804688 23.128906 L 11.25 16.527344 L 9.539062 16.527344 L 7.792969 21.398438 L 6.042969 16.527344 Z M 16.894531 16.527344 L 14.445312 23.128906 L 16.160156 23.128906 L 16.578125 21.925781 L 19.242188 21.925781 L 19.65625 23.128906 L 21.367188 23.128906 L 18.921875 16.527344 Z M 22.238281 16.527344 L 22.238281 23.128906 L 23.941406 23.128906 L 23.941406 16.527344 Z M 17.910156 18.074219 L 18.8125 20.699219 L 17.003906 20.699219 Z M 11.125 19.875 L 11.125 21.164062 L 13.902344 21.164062 L 13.902344 19.875 Z M 11.125 19.875 "/>
</svg>
