<?xml version="1.0" encoding="UTF-8"?>
<svg xmlns="http://www.w3.org/2000/svg" xmlns:xlink="http://www.w3.org/1999/xlink" width="32" height="32" viewBox="0 0 32 32">
<path fill-rule="nonzero" fill="rgb(99.607843%, 99.607843%, 99.607843%)" fill-opacity="1" d="M 17.402344 8.519531 C 15.15625 8.554688 12.078125 8.777344 9.441406 10.511719 C 9.421875 10.523438 9.40625 10.535156 9.390625 10.550781 C 7.234375 12.101562 5.011719 13.847656 3.785156 16.71875 C 3.742188 16.816406 3.710938 16.917969 3.691406 17.023438 C 3.464844 18.097656 4.003906 19.335938 5.035156 19.84375 C 5.621094 20.132812 6.023438 20.113281 6.792969 20.136719 C 6.820312 20.136719 6.90625 20.136719 6.9375 20.136719 C 6.929688 20.191406 6.929688 20.246094 6.929688 20.304688 L 6.953125 21.878906 C 6.957031 22.292969 7.128906 22.691406 7.421875 22.984375 C 7.71875 23.277344 8.117188 23.445312 8.535156 23.449219 C 11.65625 23.472656 15.0625 23.601562 18.40625 23.179688 C 18.449219 23.175781 18.488281 23.167969 18.53125 23.160156 C 21.707031 22.496094 24.542969 20.414062 26.976562 17.582031 C 27.398438 17.128906 27.648438 16.710938 27.898438 16.195312 C 28.15625 15.660156 28.335938 15.128906 28.359375 14.515625 C 28.378906 13.910156 28.164062 13.160156 27.644531 12.644531 C 27.566406 12.558594 27.496094 12.46875 27.402344 12.394531 C 27.082031 12.148438 26.691406 11.996094 26.257812 11.917969 C 26.164062 11.902344 26.070312 11.894531 25.976562 11.894531 L 25.660156 11.894531 C 25.667969 11.824219 25.671875 11.753906 25.671875 11.683594 L 25.652344 10.105469 C 25.644531 9.6875 25.476562 9.285156 25.179688 8.992188 C 24.882812 8.699219 24.480469 8.53125 24.0625 8.53125 C 24.0625 8.53125 21.230469 8.527344 19.320312 8.523438 C 18.816406 8.523438 18.152344 8.507812 17.402344 8.519531 Z M 27.664062 12.664062 L 28.027344 13.226562 C 28.027344 13.226562 27.910156 12.953125 27.804688 12.808594 C 27.765625 12.757812 27.707031 12.714844 27.664062 12.664062 Z M 27.664062 12.664062 "/>
<path fill-rule="nonzero" fill="rgb(66.27451%, 5.098039%, 9.411765%)" fill-opacity="1" d="M 8.546875 21.855469 L 8.523438 20.277344 C 8.523438 20.277344 12.152344 20.289062 14.351562 20.289062 C 15.574219 20.289062 16.28125 20.242188 16.679688 20.140625 C 18.691406 19.652344 20.230469 18.414062 21.492188 17.042969 C 22.089844 16.269531 22.183594 15.773438 21.792969 15.335938 L 21.445312 15.199219 L 17.507812 15.171875 C 15.003906 15.152344 13.570312 15.105469 13.570312 15.042969 C 13.570312 14.914062 14.308594 14.394531 15.214844 13.890625 L 15.9375 13.484375 L 25.972656 13.484375 C 26.453125 13.570312 26.527344 13.769531 26.527344 13.769531 C 26.867188 14.09375 26.847656 14.699219 26.460938 15.503906 C 26.292969 15.855469 25.992188 16.3125 25.796875 16.519531 C 23.511719 19.195312 20.914062 21.03125 18.203125 21.597656 C 15.039062 21.996094 11.695312 21.878906 8.546875 21.855469 Z M 8.546875 21.855469 "/>
<path fill-rule="nonzero" fill="rgb(8.235294%, 22.745098%, 38.823529%)" fill-opacity="1" d="M 5.742188 18.414062 C 5.351562 18.222656 5.160156 17.800781 5.253906 17.347656 C 6.300781 14.902344 8.207031 13.359375 10.316406 11.839844 C 13.242188 9.917969 17.195312 10.113281 19.3125 10.117188 C 21.226562 10.121094 24.054688 10.125 24.054688 10.125 L 24.074219 11.703125 L 19.441406 11.746094 C 16 11.738281 13.46875 12.125 11.101562 14.300781 C 10.058594 15.34375 9.800781 15.824219 10.023438 16.308594 C 10.238281 16.785156 10.445312 16.808594 14.519531 16.863281 L 18.34375 16.914062 L 17.675781 17.5 C 17.164062 17.949219 16.832031 18.148438 16.285156 18.332031 L 15.566406 18.574219 L 10.8125 18.574219 C 6.714844 18.570312 6.015625 18.550781 5.742188 18.414062 Z M 5.742188 18.414062 "/>
</svg>
