<?xml version="1.0" encoding="UTF-8"?>
<svg xmlns="http://www.w3.org/2000/svg" xmlns:xlink="http://www.w3.org/1999/xlink" width="32" height="32" viewBox="0 0 32 32">
<defs>
<filter id="filter-remove-color" x="0%" y="0%" width="100%" height="100%">
<feColorMatrix color-interpolation-filters="sRGB" values="0 0 0 0 1 0 0 0 0 1 0 0 0 0 1 0 0 0 1 0" />
</filter>
<mask id="mask-0">
<g filter="url(#filter-remove-color)">
<rect x="-3.2" y="-3.2" width="38.4" height="38.4" fill="rgb(0%, 0%, 0%)" fill-opacity="0.72"/>
</g>
</mask>
<clipPath id="clip-0">
<rect x="0" y="0" width="32" height="32"/>
</clipPath>
<g id="source-6" clip-path="url(#clip-0)">
<path fill-rule="nonzero" fill="rgb(89.411765%, 89.411765%, 89.411765%)" fill-opacity="1" d="M 20.585938 10.832031 C 20.546875 10.832031 20.507812 10.832031 20.472656 10.832031 C 18.652344 10.953125 16.941406 11.507812 15.4375 12.652344 L 15.152344 12.625 C 14.910156 12.597656 14.683594 12.578125 14.492188 12.570312 C 14.394531 12.566406 14.308594 12.5625 14.21875 12.5625 C 14.171875 12.5625 14.128906 12.566406 14.058594 12.570312 C 13.992188 12.578125 13.953125 12.539062 13.644531 12.671875 C 13.644531 12.671875 13.644531 12.671875 13.640625 12.671875 C 13.316406 12.8125 13.242188 12.945312 13.28125 12.910156 C 12.976562 13.199219 12.976562 13.335938 12.933594 13.449219 C 12.890625 13.558594 12.871094 13.644531 12.855469 13.730469 C 12.816406 13.902344 12.796875 14.070312 12.789062 14.253906 C 12.785156 14.367188 12.734375 14.589844 12.65625 14.765625 C 12.582031 14.933594 12.515625 15.09375 12.464844 15.257812 C 12.4375 15.335938 12.414062 15.414062 12.390625 15.535156 C 12.382812 15.59375 12.371094 15.664062 12.367188 15.785156 C 12.367188 15.894531 12.339844 16.058594 12.496094 16.351562 C 12.40625 16.601562 12.304688 16.925781 12.136719 17.484375 C 12.125 17.523438 12.113281 17.566406 12.105469 17.609375 C 12.042969 17.941406 11.714844 18.441406 11.34375 19 C 11.152344 19.191406 10.972656 19.289062 10.695312 19.347656 C 10.371094 19.382812 10.226562 19.449219 9.996094 19.535156 C 9.832031 19.597656 9.625 19.675781 9.5625 19.699219 C 9.5 19.722656 9.445312 19.742188 9.378906 19.773438 C 9.347656 19.789062 9.3125 19.804688 9.261719 19.832031 C 9.210938 19.859375 9.183594 19.820312 8.9375 20.078125 C 8.605469 20.425781 8.546875 21.140625 8.683594 21.46875 C 8.824219 21.800781 8.980469 21.921875 9.113281 22.027344 C 9.335938 22.210938 9.539062 22.296875 9.757812 22.363281 L 9.757812 22.367188 C 10.058594 22.480469 10.480469 22.703125 10.914062 22.929688 C 10.960938 23.007812 11.015625 23.09375 11.074219 23.203125 C 11.234375 23.488281 11.410156 23.832031 11.472656 23.976562 C 11.554688 24.164062 11.621094 24.328125 11.800781 24.550781 C 11.890625 24.664062 12.003906 24.804688 12.265625 24.941406 C 12.523438 25.074219 13.003906 25.136719 13.363281 24.992188 C 14.074219 24.695312 14.09375 24.292969 14.164062 24.078125 C 14.238281 23.859375 14.265625 23.675781 14.296875 23.464844 C 14.3125 23.363281 14.332031 23.265625 14.34375 23.210938 C 14.34375 23.203125 14.34375 23.207031 14.34375 23.203125 C 14.359375 23.15625 14.375 23.109375 14.386719 23.0625 C 14.636719 21.988281 14.652344 21.410156 14.949219 21.078125 C 14.964844 21.0625 14.980469 21.046875 14.992188 21.03125 C 15.429688 20.492188 16.277344 20.03125 17.476562 19.367188 C 17.578125 19.316406 17.683594 19.269531 17.773438 19.21875 C 17.863281 19.171875 17.9375 19.132812 18.046875 19.050781 C 18.117188 19.007812 18.199219 18.960938 18.273438 18.917969 C 18.339844 18.96875 18.382812 19.011719 18.464844 19.066406 C 18.816406 19.289062 19.492188 19.371094 19.921875 19.195312 C 20.351562 19.015625 20.59375 18.765625 20.847656 18.476562 C 21.40625 17.839844 21.527344 17.203125 21.558594 16.597656 C 22.683594 15.5625 23.355469 14.644531 23.75 13.820312 C 23.84375 13.628906 23.917969 13.464844 23.980469 13.246094 C 24.007812 13.136719 24.042969 13.015625 24.042969 12.8125 C 24.046875 12.609375 24.019531 12.253906 23.703125 11.90625 C 23.648438 11.847656 23.585938 11.804688 23.523438 11.761719 C 23.503906 11.710938 23.480469 11.660156 23.453125 11.613281 C 23.175781 11.128906 22.886719 11.070312 22.714844 11.007812 C 22.542969 10.945312 22.421875 10.921875 22.300781 10.902344 C 22.058594 10.863281 21.835938 10.851562 21.613281 10.84375 C 21.164062 10.824219 20.683594 10.835938 20.585938 10.832031 Z M 20.5 11.992188 C 20.753906 11.992188 21.007812 12.082031 21.191406 12.269531 C 21.195312 12.269531 21.195312 12.273438 21.199219 12.277344 C 21.109375 12.347656 20.96875 12.457031 20.914062 12.496094 C 20.847656 12.546875 20.796875 12.574219 20.828125 12.558594 C 20.84375 12.546875 20.871094 12.523438 21.003906 12.480469 C 21.066406 12.460938 21.15625 12.433594 21.316406 12.425781 C 21.550781 12.800781 21.511719 13.324219 21.191406 13.648438 C 21.003906 13.832031 20.746094 13.933594 20.5 13.933594 C 20.257812 13.933594 19.996094 13.832031 19.8125 13.648438 C 19.441406 13.277344 19.441406 12.636719 19.8125 12.269531 C 19.996094 12.082031 20.25 11.992188 20.5 11.992188 Z M 14.324219 23.253906 C 14.308594 23.289062 14.324219 23.328125 14.230469 23.453125 C 14.214844 23.476562 14.183594 23.511719 14.160156 23.539062 C 14.179688 23.511719 14.199219 23.480469 14.21875 23.453125 C 14.261719 23.390625 14.296875 23.324219 14.324219 23.253906 Z M 14.324219 23.253906 "/>
</g>
</defs>
<g mask="url(#mask-0)">
<use xlink:href="#source-6"/>
</g>
<path fill-rule="nonzero" fill="rgb(77.647059%, 0%, 81.960784%)" fill-opacity="1" d="M 20.550781 12.058594 C 20.929688 12.070312 22.273438 12.023438 22.386719 12.222656 C 22.386719 12.253906 22.203125 12.398438 22.042969 12.605469 C 21.746094 12.988281 21.289062 13.578125 21.363281 13.648438 C 21.402344 13.683594 21.730469 13.425781 22.335938 12.957031 C 22.855469 12.554688 22.945312 12.65625 22.644531 13.289062 C 22.28125 14.050781 21.664062 14.910156 20.386719 16.015625 C 20.375 16.03125 20.359375 16.042969 20.34375 16.058594 C 20.335938 16.664062 20.214844 17.335938 19.925781 17.667969 C 19.164062 18.53125 19.019531 17.882812 18.550781 17.34375 C 18.160156 17.566406 17.761719 17.78125 17.371094 18.019531 C 17.3125 18.078125 17.089844 18.199219 16.878906 18.292969 C 15.710938 18.941406 14.707031 19.433594 14.039062 20.257812 C 13.386719 20.980469 13.394531 21.90625 13.191406 22.785156 C 13.167969 22.808594 13.121094 23.035156 13.082031 23.289062 C 12.980469 23.980469 12.839844 24.039062 12.597656 23.488281 C 12.402344 23.035156 11.871094 22.089844 11.757812 21.980469 C 11.273438 21.734375 10.703125 21.410156 10.1875 21.21875 C 9.9375 21.148438 9.753906 21 9.828125 20.925781 C 9.839844 20.914062 9.910156 20.878906 9.988281 20.851562 C 10.0625 20.824219 10.265625 20.75 10.429688 20.6875 C 10.59375 20.625 10.808594 20.566406 10.914062 20.558594 C 11.457031 20.445312 11.917969 20.195312 12.300781 19.777344 C 12.660156 19.242188 13.171875 18.589844 13.3125 17.835938 C 13.628906 16.78125 13.660156 16.691406 13.84375 16.304688 C 13.945312 16.097656 14.027344 15.910156 14.027344 15.894531 C 14.027344 15.882812 13.941406 15.875 13.835938 15.878906 C 13.734375 15.882812 13.625 15.855469 13.601562 15.820312 C 13.578125 15.78125 13.65625 15.535156 13.777344 15.265625 C 13.917969 14.957031 14.003906 14.613281 14.015625 14.3125 C 14.027344 14.070312 14.074219 13.851562 14.121094 13.808594 C 14.125 13.804688 14.128906 13.800781 14.128906 13.800781 C 14.179688 13.78125 14.582031 13.800781 15.019531 13.847656 L 15.820312 13.929688 L 16.101562 13.691406 C 17.429688 12.648438 18.882812 12.167969 20.550781 12.058594 Z M 20.5 12.703125 C 20.4375 12.703125 20.371094 12.730469 20.320312 12.777344 C 20.222656 12.878906 20.222656 13.039062 20.320312 13.136719 C 20.421875 13.238281 20.582031 13.238281 20.679688 13.136719 C 20.78125 13.039062 20.78125 12.878906 20.679688 12.777344 C 20.632812 12.730469 20.566406 12.703125 20.5 12.703125 Z M 20.5 12.703125 "/>
</svg>
