<?xml version="1.0" encoding="UTF-8"?>
<svg xmlns="http://www.w3.org/2000/svg" xmlns:xlink="http://www.w3.org/1999/xlink" width="64" height="64" viewBox="0 0 64 64">
<defs>
<filter id="filter-remove-color" x="0%" y="0%" width="100%" height="100%">
<feColorMatrix color-interpolation-filters="sRGB" values="0 0 0 0 1 0 0 0 0 1 0 0 0 0 1 0 0 0 1 0" />
</filter>
<mask id="mask-0">
<g filter="url(#filter-remove-color)">
<rect x="-6.4" y="-6.4" width="76.8" height="76.8" fill="rgb(0%, 0%, 0%)" fill-opacity="0.372"/>
</g>
</mask>
<clipPath id="clip-0">
<rect x="0" y="0" width="64" height="64"/>
</clipPath>
<g id="source-6" clip-path="url(#clip-0)">
<path fill-rule="nonzero" fill="rgb(89.411765%, 89.411765%, 89.411765%)" fill-opacity="1" d="M 30.808594 25.691406 C 27.175781 25.691406 24.1875 28.675781 24.1875 32.308594 C 24.1875 32.558594 24.203125 32.804688 24.230469 33.046875 C 21.46875 33.839844 19.417969 36.394531 19.417969 39.402344 C 19.417969 40.449219 19.675781 41.4375 20.113281 42.320312 C 19.898438 42.472656 19.71875 42.679688 19.597656 42.917969 C 19.472656 43.152344 19.410156 43.417969 19.410156 43.683594 L 19.410156 45.074219 C 19.410156 45.296875 19.453125 45.515625 19.539062 45.71875 C 19.621094 45.921875 19.746094 46.105469 19.902344 46.261719 C 20.058594 46.417969 20.242188 46.542969 20.445312 46.628906 C 20.648438 46.710938 20.867188 46.753906 21.089844 46.753906 L 26.898438 46.753906 C 27.707031 48.066406 29.148438 48.9375 30.785156 48.9375 C 32.417969 48.9375 33.859375 48.0625 34.667969 46.753906 L 40.480469 46.753906 C 40.699219 46.753906 40.917969 46.710938 41.121094 46.628906 C 41.324219 46.542969 41.511719 46.417969 41.667969 46.261719 C 41.824219 46.105469 41.945312 45.921875 42.03125 45.71875 C 42.113281 45.515625 42.160156 45.296875 42.160156 45.074219 L 42.160156 43.683594 C 42.15625 43.425781 42.097656 43.167969 41.980469 42.9375 C 41.863281 42.703125 41.695312 42.5 41.488281 42.34375 C 41.933594 41.457031 42.199219 40.460938 42.199219 39.402344 C 42.199219 36.394531 40.152344 33.839844 37.386719 33.046875 C 37.410156 32.804688 37.429688 32.558594 37.429688 32.308594 C 37.429688 28.675781 34.441406 25.691406 30.808594 25.691406 Z M 30.808594 30.324219 C 31.941406 30.324219 32.796875 31.175781 32.796875 32.308594 C 32.796875 32.882812 32.5625 33.371094 32.195312 33.726562 C 31.992188 33.851562 31.792969 33.980469 31.605469 34.125 C 31.363281 34.230469 31.101562 34.296875 30.808594 34.296875 C 30.515625 34.296875 30.25 34.230469 30.003906 34.121094 C 29.820312 33.980469 29.625 33.851562 29.425781 33.730469 C 29.054688 33.371094 28.824219 32.882812 28.824219 32.308594 C 28.824219 31.175781 29.675781 30.324219 30.808594 30.324219 Z M 26.039062 37.417969 C 26.332031 37.417969 26.59375 37.484375 26.835938 37.589844 C 27.023438 37.730469 27.222656 37.863281 27.425781 37.984375 C 27.792969 38.34375 28.027344 38.828125 28.027344 39.402344 C 28.027344 40.535156 27.171875 41.390625 26.039062 41.390625 C 24.90625 41.390625 24.054688 40.535156 24.054688 39.402344 C 24.054688 38.269531 24.90625 37.417969 26.039062 37.417969 Z M 35.578125 37.417969 C 36.710938 37.417969 37.566406 38.269531 37.566406 39.402344 C 37.566406 40.535156 36.710938 41.390625 35.578125 41.390625 C 34.445312 41.390625 33.59375 40.535156 33.59375 39.402344 C 33.59375 38.828125 33.824219 38.339844 34.195312 37.984375 C 34.394531 37.863281 34.589844 37.730469 34.777344 37.589844 C 35.019531 37.484375 35.285156 37.417969 35.578125 37.417969 Z M 30.785156 44.21875 C 30.914062 44.21875 30.945312 44.25 30.945312 44.382812 C 30.945312 44.511719 30.914062 44.542969 30.785156 44.542969 C 30.65625 44.542969 30.621094 44.507812 30.621094 44.382812 C 30.621094 44.253906 30.65625 44.21875 30.785156 44.21875 Z M 30.785156 44.21875 "/>
</g>
</defs>
<g mask="url(#mask-0)">
<use xlink:href="#source-6"/>
</g>
<path fill="none" stroke-width="17.158001" stroke-linecap="butt" stroke-linejoin="miter" stroke="rgb(0%, 0%, 0%)" stroke-opacity="1" stroke-miterlimit="4" d="M 548.762207 735.413818 C 548.762207 740.5896 547.727051 745.635986 545.786133 750.423584 C 543.780518 755.146484 540.933838 759.481201 537.310791 763.104248 C 533.687744 766.727295 529.353027 769.573975 524.630127 771.57959 C 519.842529 773.520508 514.796143 774.555664 509.620361 774.555664 C 504.509277 774.555664 499.462891 773.520508 494.675293 771.57959 C 489.952393 769.573975 485.617676 766.727295 481.994629 763.104248 C 478.371582 759.481201 475.524902 755.146484 473.519287 750.423584 C 471.578369 745.635986 470.543213 740.5896 470.543213 735.413818 C 470.543213 730.302734 471.578369 725.19165 473.519287 720.46875 C 475.524902 715.74585 478.371582 711.411133 481.994629 707.788086 C 485.617676 704.165039 489.952393 701.253662 494.675293 699.312744 C 499.462891 697.371826 504.509277 696.33667 509.620361 696.33667 C 514.796143 696.33667 519.842529 697.371826 524.630127 699.312744 C 529.353027 701.253662 533.687744 704.165039 537.310791 707.788086 C 540.933838 711.411133 543.780518 715.74585 545.786133 720.46875 C 547.727051 725.19165 548.762207 730.302734 548.762207 735.413818 Z M 548.762207 735.413818 " transform="matrix(0.0603774, 0, 0, 0.0603774, 0, 0)"/>
<path fill-rule="nonzero" fill="rgb(0%, 0%, 0%)" fill-opacity="1" d="M 21.078125 43.707031 L 21.078125 45.097656 L 28.65625 45.097656 L 28.65625 43.707031 Z M 32.886719 43.707031 L 32.886719 45.097656 L 40.464844 45.097656 L 40.464844 43.707031 Z M 32.886719 43.707031 "/>
<path fill="none" stroke-width="21.1" stroke-linecap="round" stroke-linejoin="miter" stroke="rgb(0%, 0%, 0%)" stroke-opacity="1" stroke-miterlimit="4" d="M 502.30957 652.989502 C 502.30957 662.370605 500.498047 671.622314 496.875 680.291748 C 493.31665 688.961182 488.076172 696.789551 481.477051 703.453369 C 474.813232 710.05249 466.984863 715.292969 458.31543 718.851318 C 449.645996 722.474365 440.394287 724.285889 431.077881 724.285889 C 421.696777 724.285889 412.445068 722.474365 403.775635 718.851318 C 395.106201 715.292969 387.277832 710.05249 380.614014 703.453369 C 374.014893 696.789551 368.774414 688.961182 365.216064 680.291748 C 361.593018 671.622314 359.781494 662.370605 359.781494 652.989502 C 359.781494 643.673096 361.593018 634.356689 365.216064 625.751953 C 368.774414 617.08252 374.014893 609.25415 380.614014 602.590332 C 387.277832 595.991211 395.106201 590.750732 403.775635 587.127686 C 412.445068 583.569336 421.696777 581.757812 431.077881 581.757812 C 440.394287 581.757812 449.645996 583.569336 458.31543 587.127686 C 466.984863 590.750732 474.813232 595.991211 481.477051 602.590332 C 488.076172 609.25415 493.31665 617.08252 496.875 625.751953 C 500.498047 634.356689 502.30957 643.673096 502.30957 652.989502 Z M 502.30957 652.989502 " transform="matrix(0.0603774, 0, 0, 0.0603774, 0, 0)"/>
<path fill="none" stroke-width="21.1" stroke-linecap="round" stroke-linejoin="miter" stroke="rgb(0%, 0%, 0%)" stroke-opacity="1" stroke-miterlimit="4" d="M 660.300293 652.989502 C 660.300293 662.370605 658.48877 671.622314 654.865723 680.291748 C 651.307373 688.961182 646.066895 696.789551 639.467773 703.453369 C 632.803955 710.05249 624.975586 715.292969 616.306152 718.851318 C 607.701416 722.474365 598.38501 724.285889 589.068604 724.285889 C 579.6875 724.285889 570.435791 722.474365 561.766357 718.851318 C 553.096924 715.292969 545.268555 710.05249 538.669434 703.453369 C 532.005615 696.789551 526.765137 688.961182 523.206787 680.291748 C 519.58374 671.622314 517.772217 662.370605 517.772217 652.989502 C 517.772217 643.673096 519.58374 634.356689 523.206787 625.751953 C 526.765137 617.08252 532.005615 609.25415 538.669434 602.590332 C 545.268555 595.991211 553.096924 590.750732 561.766357 587.127686 C 570.435791 583.569336 579.6875 581.757812 589.068604 581.757812 C 598.38501 581.757812 607.701416 583.569336 616.306152 587.127686 C 624.975586 590.750732 632.803955 595.991211 639.467773 602.590332 C 646.066895 609.25415 651.307373 617.08252 654.865723 625.751953 C 658.48877 634.356689 660.300293 643.673096 660.300293 652.989502 Z M 660.300293 652.989502 " transform="matrix(0.0603774, 0, 0, 0.0603774, 0, 0)"/>
<path fill="none" stroke-width="21.1" stroke-linecap="round" stroke-linejoin="miter" stroke="rgb(0%, 0%, 0%)" stroke-opacity="1" stroke-miterlimit="4" d="M 581.304932 535.499268 C 581.304932 544.880371 579.493408 554.13208 575.870361 562.801514 C 572.312012 571.470947 567.071533 579.299316 560.472412 585.898438 C 553.808594 592.562256 545.980225 597.802734 537.310791 601.361084 C 528.706055 604.984131 519.389648 606.795654 510.073242 606.795654 C 500.692139 606.795654 491.44043 604.984131 482.770996 601.361084 C 474.101562 597.802734 466.273193 592.562256 459.674072 585.898438 C 453.010254 579.299316 447.769775 571.470947 444.211426 562.801514 C 440.588379 554.13208 438.776855 544.880371 438.776855 535.499268 C 438.776855 526.182861 440.588379 516.866455 444.211426 508.261719 C 447.769775 499.592285 453.010254 491.763916 459.674072 485.100098 C 466.273193 478.500977 474.101562 473.260498 482.770996 469.637451 C 491.44043 466.079102 500.692139 464.202881 510.073242 464.202881 C 519.389648 464.202881 528.706055 466.079102 537.310791 469.637451 C 545.980225 473.260498 553.808594 478.500977 560.472412 485.100098 C 567.071533 491.763916 572.312012 499.592285 575.870361 508.261719 C 579.493408 516.866455 581.304932 526.182861 581.304932 535.499268 Z M 581.304932 535.499268 " transform="matrix(0.0603774, 0, 0, 0.0603774, 0, 0)"/>
</svg>
