<?xml version="1.0" encoding="UTF-8"?>
<svg xmlns="http://www.w3.org/2000/svg" xmlns:xlink="http://www.w3.org/1999/xlink" width="12" height="12" viewBox="0 0 12 12" version="1.1">
<g id="surface1">
<path style=" stroke:none;fill-rule:nonzero;fill:rgb(57.647061%,0%,57.647061%);fill-opacity:1;" d="M 5.074219 4.65625 L 5.542969 5.125 C 5.542969 5.125 5.542969 5.265625 5.40625 5.40625 C 5.265625 5.542969 5.125 5.542969 5.125 5.542969 L 4.65625 5.074219 C 4.589844 5.339844 4.679688 5.660156 4.875 5.855469 C 5.054688 6.035156 5.246094 6.03125 5.4375 5.929688 C 5.46875 5.914062 5.539062 5.882812 5.617188 5.964844 C 6.035156 6.378906 6.820312 7.253906 6.832031 7.269531 C 6.960938 7.394531 7.160156 7.398438 7.277344 7.277344 C 7.398438 7.160156 7.394531 6.960938 7.269531 6.832031 C 7.253906 6.820312 6.359375 6.015625 5.953125 5.609375 C 5.875 5.535156 5.90625 5.476562 5.921875 5.449219 C 6.03125 5.257812 6.039062 5.058594 5.855469 4.875 C 5.660156 4.679688 5.339844 4.589844 5.074219 4.65625 Z M 7.160156 7.023438 C 7.160156 7.101562 7.101562 7.160156 7.023438 7.160156 C 6.949219 7.160156 6.886719 7.101562 6.886719 7.023438 C 6.886719 6.949219 6.949219 6.886719 7.023438 6.886719 C 7.101562 6.886719 7.160156 6.949219 7.160156 7.023438 Z M 7.160156 7.023438 "/>
</g>
</svg>
