<?xml version="1.0" encoding="UTF-8"?>
<svg xmlns="http://www.w3.org/2000/svg" xmlns:xlink="http://www.w3.org/1999/xlink" width="12" height="12" viewBox="0 0 12 12" version="1.1">
<g id="surface1">
<path style=" stroke:none;fill-rule:evenodd;fill:rgb(83.137256%,0%,0%);fill-opacity:1;" d="M 1.261719 11.394531 L 5.589844 3.898438 L 9.921875 11.402344 Z M 1.261719 11.394531 "/>
<path style=" stroke:none;fill-rule:evenodd;fill:rgb(83.137256%,0%,0%);fill-opacity:1;" d="M 9.195312 1.058594 C 8.886719 0.886719 8.300781 0.566406 7.859375 0.566406 C 7.070312 0.566406 6.609375 0.980469 6.371094 1.355469 C 5.070312 1.253906 5.253906 3.628906 5.253906 3.628906 C 5.503906 2.039062 6.488281 1.96875 6.488281 2.113281 C 6.488281 2.113281 6.851562 1.476562 7.570312 1.304688 C 8.289062 1.132812 9.121094 1.710938 9.121094 1.710938 C 9.121094 1.710938 9.976562 0.992188 11.410156 1.234375 C 11.410156 1.234375 10.425781 0.375 9.195312 1.058594 Z M 9.195312 1.058594 "/>
<path style=" stroke:none;fill-rule:evenodd;fill:rgb(83.137256%,0%,0%);fill-opacity:1;" d="M 8.386719 2.644531 C 9.824219 3.464844 11.339844 2.257812 11.339844 2.257812 C 11.339844 2.257812 10.296875 4.410156 8.417969 3.351562 C 7.765625 3.011719 6.449219 3.429688 5.96875 3.875 C 6.414062 3.125 7.773438 2.269531 8.386719 2.644531 Z M 8.386719 2.644531 "/>
</g>
</svg>
