<svg width="48" height="48" viewBox="0 0 48 48" fill="none" xmlns="http://www.w3.org/2000/svg">
<path opacity="0.2" fill-rule="evenodd" clip-rule="evenodd" d="M4 19.1716L19.1716 4C20.4522 2.71942 22.189 2 24 2C25.811 2 27.5478 2.71942 28.8284 4L44 19.1716C45.2806 20.4522 46 22.189 46 24C46 25.811 45.2806 27.5478 44 28.8284L28.8284 44C27.5478 45.2806 25.811 46 24 46C22.189 46 20.4522 45.2806 19.1716 44L4 28.8284C2.71942 27.5478 2 25.811 2 24C2 22.189 2.71942 20.4522 4 19.1716Z" fill="white"/>
<path d="M5.41421 20.5858L20.5858 5.41421C21.4913 4.50871 22.7194 4 24 4C25.2806 4 26.5087 4.50871 27.4142 5.41421L42.5858 20.5858C43.4913 21.4913 44 22.7194 44 24C44 25.2806 43.4913 26.5087 42.5858 27.4142L27.4142 42.5858C26.5087 43.4913 25.2806 44 24 44C22.7194 44 21.4913 43.4913 20.5858 42.5858L5.41421 27.4142C4.50871 26.5087 4 25.2806 4 24C4 22.7194 4.50871 21.4913 5.41421 20.5858Z" fill="#008000"/>
<path d="M23.4142 8.24264L8.24264 23.4142C8.08728 23.5696 8 23.7803 8 24C8 24.2197 8.08728 24.4304 8.24264 24.5858L23.4142 39.7574C23.5696 39.9127 23.7803 40 24 40C24.2197 40 24.4304 39.9127 24.5858 39.7574L39.7574 24.5858C39.9127 24.4304 40 24.2197 40 24C40 23.7803 39.9127 23.5696 39.7574 23.4142L24.5858 8.24264C24.4304 8.08728 24.2197 8 24 8C23.7803 8 23.5696 8.08728 23.4142 8.24264Z" fill="#00FF00"/>
<path d="M26 16C26 14.8954 25.1046 14 24 14C22.8954 14 22 14.8954 22 16V22H16C14.8954 22 14 22.8954 14 24C14 25.1046 14.8954 26 16 26H22V32C22 33.1046 22.8954 34 24 34C25.1046 34 26 33.1046 26 32V26H32C33.1046 26 34 25.1046 34 24C34 22.8954 33.1046 22 32 22H26V16Z" fill="#008000"/>
</svg>
