<?xml version="1.0" encoding="UTF-8"?>
<svg xmlns="http://www.w3.org/2000/svg" xmlns:xlink="http://www.w3.org/1999/xlink" width="12" height="12" viewBox="0 0 12 12" version="1.1">
<g id="surface1">
<path style="fill:none;stroke-width:14.6078;stroke-linecap:round;stroke-linejoin:round;stroke:rgb(57.647061%,0%,57.647061%);stroke-opacity:1;stroke-miterlimit:4;" d="M 959.244792 542.421875 L 1015.833333 542.421875 L 1015.833333 575.546875 L 944.752604 609.016927 L 822.604167 609.016927 L 746.002604 544.147135 L 820.188802 544.147135 L 855.039063 504.466146 L 890.924479 504.466146 " transform="matrix(0.0113208,0,0,0.0113208,0,0)"/>
<path style=" stroke:none;fill-rule:evenodd;fill:rgb(57.647061%,0%,57.647061%);fill-opacity:1;" d="M 9.8125 6.1875 L 10.535156 6.1875 L 10.535156 6.480469 L 10.421875 6.652344 L 9.8125 6.652344 Z M 9.8125 6.1875 "/>
<path style=" stroke:none;fill-rule:nonzero;fill:rgb(57.647061%,0%,57.647061%);fill-opacity:1;" d="M 9.871094 5.023438 C 9.773438 5.023438 9.695312 5.109375 9.695312 5.214844 C 9.695312 5.285156 9.695312 6.570312 9.695312 6.570312 C 9.695312 6.613281 9.734375 6.652344 9.777344 6.652344 L 9.96875 6.652344 C 10.011719 6.652344 10.050781 6.613281 10.050781 6.570312 C 10.050781 6.527344 10.011719 6.488281 9.96875 6.488281 L 9.859375 6.488281 C 9.859375 6.34375 9.859375 5.269531 9.859375 5.214844 C 9.859375 5.191406 9.878906 5.1875 9.871094 5.1875 L 10.390625 5.1875 C 10.410156 5.1875 10.40625 5.191406 10.40625 5.191406 C 10.410156 5.195312 10.414062 5.203125 10.414062 5.214844 L 10.414062 5.527344 C 10.414062 5.574219 10.453125 5.613281 10.496094 5.613281 L 11.101562 5.613281 C 11.121094 5.613281 11.144531 5.605469 11.160156 5.589844 C 11.175781 5.574219 11.1875 5.550781 11.1875 5.53125 C 11.1875 5.507812 11.175781 5.484375 11.160156 5.46875 C 11.144531 5.453125 11.121094 5.445312 11.101562 5.445312 L 10.578125 5.445312 L 10.578125 5.214844 C 10.578125 5.171875 10.566406 5.128906 10.535156 5.089844 C 10.503906 5.050781 10.449219 5.023438 10.390625 5.023438 Z M 9.871094 5.023438 "/>
<path style=" stroke:none;fill-rule:evenodd;fill:rgb(57.647061%,0%,57.647061%);fill-opacity:1;" d="M 11.523438 5.53125 L 10.867188 5.910156 L 10.867188 5.148438 Z M 11.523438 5.53125 "/>
</g>
</svg>
