<?xml version="1.0" encoding="UTF-8"?>
<svg xmlns="http://www.w3.org/2000/svg" xmlns:xlink="http://www.w3.org/1999/xlink" width="24" height="24" viewBox="0 0 24 24">
<path fill-rule="evenodd" fill="rgb(99.607843%, 99.607843%, 99.607843%)" fill-opacity="1" d="M 17.960938 9.734375 L 16.53125 12.292969 L 23.992188 12.292969 L 21.71875 15.273438 L 14.875 15.265625 C 14.875 15.265625 14.246094 16.5 12.085938 16.515625 C 9.929688 16.5 9.132812 15.265625 9.132812 15.265625 L 2.28125 15.273438 L 0.0078125 12.285156 L 7.46875 12.285156 L 6.042969 9.734375 L 7.414062 9.734375 L 6.550781 7.484375 L 17.433594 7.484375 L 16.570312 9.734375 Z M 17.960938 9.734375 "/>
<path fill="none" stroke-width="0.0909474" stroke-linecap="butt" stroke-linejoin="miter" stroke="rgb(100%, 0%, 0%)" stroke-opacity="1" stroke-miterlimit="2.613" d="M 11.973958 6.489583 L 11.020833 8.195312 L 14.713542 8.195312 L 13.442708 10.182292 L 9.916667 10.177083 C 9.916667 10.177083 9.497396 11 8.057292 11.010417 C 6.619792 11 6.088542 10.177083 6.088542 10.177083 L 2.557292 10.182292 L 1.286458 8.190104 L 4.979167 8.190104 L 4.028646 6.489583 L 4.942708 6.489583 L 4.367188 4.989583 L 11.622396 4.989583 L 11.046875 6.489583 Z M 11.973958 6.489583 " transform="matrix(1.5, 0, 0, 1.5, 0, 0)"/>
<path fill-rule="evenodd" fill="rgb(100%, 0%, 0%)" fill-opacity="1" d="M 12.09375 16.046875 C 13.121094 16.0625 13.820312 15.539062 14.351562 14.25 L 16.78125 7.933594 L 7.21875 7.925781 L 9.660156 14.25 C 10.1875 15.539062 11.058594 16.0625 12.085938 16.046875 Z M 12.09375 16.046875 "/>
<path fill-rule="evenodd" fill="rgb(100%, 0%, 0%)" fill-opacity="1" d="M 7.773438 12.726562 L 8.921875 14.785156 L 4.101562 14.785156 L 2.789062 12.726562 Z M 7.773438 12.726562 "/>
<path fill-rule="evenodd" fill="rgb(100%, 0%, 0%)" fill-opacity="1" d="M 16.226562 12.726562 L 15.082031 14.785156 L 19.898438 14.785156 L 21.207031 12.726562 Z M 16.226562 12.726562 "/>
<path fill-rule="evenodd" fill="rgb(99.607843%, 99.607843%, 99.607843%)" fill-opacity="1" d="M 11.90625 11.363281 C 11.90625 11.363281 13.5625 11.230469 14.160156 12.046875 L 14.386719 11.917969 L 13.789062 11.265625 C 13.789062 11.265625 13.710938 11.363281 13.578125 11.363281 C 13.4375 11.363281 13.269531 11.304688 13.269531 11.304688 C 12.816406 11.152344 12.375 11.042969 11.839844 11.042969 C 10.460938 11.042969 9.433594 11.667969 9.464844 12.46875 C 9.511719 13.394531 10.597656 13.761719 11.109375 13.863281 C 11.613281 13.957031 13.089844 14.3125 14.359375 13.070312 L 14.171875 12.886719 C 12.648438 14.289062 10.921875 13.242188 10.921875 13.242188 C 10.597656 13.054688 10.367188 12.746094 10.367188 12.441406 C 10.367188 11.878906 11.0625 11.386719 11.90625 11.363281 Z M 11.90625 11.363281 "/>
<path fill-rule="evenodd" fill="rgb(99.607843%, 99.607843%, 99.607843%)" fill-opacity="1" stroke-width="0.0454737" stroke-linecap="butt" stroke-linejoin="miter" stroke="rgb(100%, 0%, 0%)" stroke-opacity="1" stroke-miterlimit="2.613" d="M 9.359375 6.859375 L 9.692708 7.299479 L 9.572917 7.416667 C 9.572917 7.416667 9.372396 7.132812 9.083333 7.132812 L 8.463542 7.132812 L 8.463542 8.927083 C 8.463542 9.40625 8.903646 9.348958 8.903646 9.348958 L 8.903646 9.544271 L 7.486979 9.544271 L 7.486979 9.348958 C 7.486979 9.348958 7.924479 9.40625 7.924479 8.927083 L 7.924479 7.132812 L 7.309896 7.132812 C 7.018229 7.132812 6.817708 7.411458 6.817708 7.411458 L 6.703125 7.296875 L 7.033854 6.859375 Z M 9.359375 6.859375 " transform="matrix(1.5, 0, 0, 1.5, 0, 0)"/>
<path fill-rule="evenodd" fill="rgb(99.607843%, 99.607843%, 99.607843%)" fill-opacity="1" d="M 12.949219 9.261719 L 13.449219 9.921875 L 13.269531 10.097656 C 13.269531 10.097656 12.96875 9.667969 12.535156 9.667969 L 11.605469 9.667969 L 11.605469 12.359375 C 11.605469 13.082031 12.265625 12.996094 12.265625 12.996094 L 12.265625 13.289062 L 10.140625 13.289062 L 10.140625 12.996094 C 10.140625 12.996094 10.796875 13.082031 10.796875 12.359375 L 10.796875 9.667969 L 9.875 9.667969 C 9.4375 9.667969 9.136719 10.089844 9.136719 10.089844 L 8.964844 9.914062 L 9.460938 9.261719 Z M 12.949219 9.261719 "/>
</svg>
