<?xml version="1.0" encoding="UTF-8"?>
<svg xmlns="http://www.w3.org/2000/svg" xmlns:xlink="http://www.w3.org/1999/xlink" width="32" height="32" viewBox="0 0 32 32">
<path fill-rule="nonzero" fill="rgb(0%, 0%, 0%)" fill-opacity="1" d="M 13.972656 12.769531 C 14.308594 12.761719 14.59375 12.644531 14.828125 12.414062 C 15.058594 12.1875 15.171875 11.902344 15.164062 11.566406 C 15.167969 11.242188 15.058594 10.960938 14.828125 10.722656 C 14.601562 10.484375 14.320312 10.371094 13.980469 10.375 C 13.648438 10.371094 13.363281 10.484375 13.128906 10.71875 C 12.898438 10.953125 12.785156 11.234375 12.792969 11.558594 C 12.785156 11.894531 12.898438 12.179688 13.125 12.410156 C 13.355469 12.644531 13.636719 12.761719 13.972656 12.769531 Z M 18.761719 14.074219 L 16.136719 13.113281 C 15.898438 12.992188 15.710938 13.050781 15.574219 13.292969 C 15.496094 13.460938 15.515625 13.617188 15.636719 13.757812 L 16.886719 14.6875 L 16.429688 15.664062 L 14.445312 16.585938 L 14.648438 15.648438 L 15.738281 15.296875 C 16.070312 15.164062 16.195312 14.933594 16.113281 14.613281 C 16.074219 14.460938 15.980469 14.347656 15.824219 14.261719 C 15.664062 14.179688 15.515625 14.167969 15.371094 14.230469 L 14.617188 14.410156 L 14.570312 14.191406 C 14.574219 13.867188 14.460938 13.585938 14.226562 13.347656 C 13.992188 13.109375 13.710938 12.992188 13.386719 13 C 13.050781 12.996094 12.765625 13.109375 12.535156 13.34375 C 12.300781 13.578125 12.183594 13.859375 12.179688 14.183594 L 12.148438 17.265625 C 12.289062 17.625 12.191406 17.527344 12.191406 17.527344 L 8.96875 18.96875 L 8.964844 21.183594 C 9.324219 20.894531 10.835938 20.660156 11.207031 20.566406 C 11.5625 20.476562 11.933594 20.464844 12.324219 20.539062 C 12.554688 20.578125 12.785156 20.570312 13.015625 20.507812 C 13.246094 20.449219 13.453125 20.347656 13.636719 20.203125 C 13.929688 19.957031 14.261719 19.785156 14.628906 19.691406 C 14.851562 19.636719 15.15625 19.625 15.550781 19.660156 C 15.949219 19.691406 16.242188 19.683594 16.441406 19.632812 C 16.671875 19.574219 16.878906 19.472656 17.0625 19.328125 C 17.367188 19.078125 17.703125 18.90625 18.074219 18.8125 C 18.304688 18.753906 18.535156 18.730469 18.765625 18.746094 C 18.996094 18.757812 19.226562 18.78125 19.453125 18.808594 C 22.195312 17.273438 22.992188 15.847656 23.214844 14.949219 C 23.507812 13.773438 23.402344 12.839844 23.402344 12.839844 C 23.402344 12.839844 21.738281 12.9375 18.761719 14.074219 Z M 22.023438 20.640625 C 21.808594 20.621094 21.503906 20.65625 21.113281 20.746094 C 20.722656 20.835938 20.425781 20.871094 20.222656 20.851562 C 20.011719 20.828125 19.71875 20.734375 19.355469 20.566406 C 18.988281 20.394531 18.273438 19.984375 18.074219 20.011719 C 17.863281 20.042969 17.785156 20.027344 17.425781 20.210938 C 17.066406 20.394531 16.78125 20.5 16.570312 20.53125 C 16.359375 20.5625 16.058594 20.539062 15.667969 20.460938 C 15.277344 20.386719 14.976562 20.363281 14.765625 20.394531 C 14.554688 20.425781 14.269531 20.53125 13.917969 20.714844 C 13.566406 20.898438 13.28125 21.003906 13.070312 21.035156 C 12.859375 21.0625 12.558594 21.042969 12.167969 20.964844 C 11.777344 20.890625 11.476562 20.867188 11.265625 20.894531 C 11.054688 20.925781 10.769531 21.035156 10.410156 21.21875 C 10.050781 21.402344 9.203125 21.628906 8.988281 21.660156 L 8.980469 22.839844 C 9.191406 22.808594 10.238281 22.691406 10.59375 22.507812 C 10.953125 22.324219 11.238281 22.21875 11.449219 22.1875 C 11.652344 22.15625 11.949219 22.179688 12.34375 22.257812 C 12.742188 22.332031 13.042969 22.355469 13.257812 22.324219 C 13.46875 22.292969 13.75 22.1875 14.101562 22.003906 C 14.457031 21.820312 14.738281 21.714844 14.949219 21.683594 C 15.160156 21.652344 15.464844 21.675781 15.851562 21.753906 C 16.242188 21.828125 16.542969 21.851562 16.753906 21.820312 C 16.96875 21.792969 17.253906 21.683594 17.609375 21.5 C 17.96875 21.316406 17.917969 21.339844 18.128906 21.308594 C 18.328125 21.28125 18.855469 21.691406 19.222656 21.863281 C 19.585938 22.03125 19.875 22.125 20.089844 22.148438 C 20.289062 22.167969 20.585938 22.132812 20.980469 22.042969 C 21.371094 21.953125 21.675781 21.917969 21.886719 21.9375 C 22.101562 21.960938 22.386719 22.054688 22.746094 22.222656 C 22.902344 22.292969 22.988281 22.375 23.058594 22.441406 L 23.050781 21.050781 C 22.976562 20.976562 22.933594 20.953125 22.878906 20.929688 C 22.519531 20.757812 22.234375 20.664062 22.023438 20.640625 Z M 22.023438 20.640625 "/>
</svg>
