<?xml version="1.0" encoding="UTF-8"?>
<svg xmlns="http://www.w3.org/2000/svg" xmlns:xlink="http://www.w3.org/1999/xlink" width="12" height="12" viewBox="0 0 12 12" version="1.1">
<g id="surface1">
<path style=" stroke:none;fill-rule:nonzero;fill:rgb(57.647061%,0%,57.647061%);fill-opacity:1;" d="M 7.65625 6.710938 C 7.65625 6.984375 7.679688 7.277344 7.488281 7.371094 C 7.238281 7.496094 6.726562 7.375 6.433594 7.433594 C 6.320312 7.699219 6.132812 7.785156 5.964844 7.78125 C 5.558594 7.777344 5.496094 7.433594 5.472656 7.429688 C 5.273438 7.398438 4.410156 7.515625 4.332031 7.300781 C 4.265625 7.125 4.257812 6.917969 4.257812 6.710938 C 4.257812 5.769531 5.019531 5.007812 5.957031 5.007812 C 6.894531 5.007812 7.65625 5.769531 7.65625 6.710938 Z M 7.65625 6.710938 "/>
<path style="fill:none;stroke-width:25.0522;stroke-linecap:butt;stroke-linejoin:miter;stroke:rgb(57.647061%,0%,57.647061%);stroke-opacity:1;stroke-miterlimit:4;" d="M 350.917969 643.522135 L 707.011719 643.522135 " transform="matrix(0.0113208,0,0,0.0113208,0,0)"/>
<path style="fill-rule:nonzero;fill:rgb(99.607843%,99.607843%,99.607843%);fill-opacity:1;stroke-width:20.6152;stroke-linecap:round;stroke-linejoin:round;stroke:rgb(57.647061%,0%,57.647061%);stroke-opacity:1;stroke-miterlimit:10;" d="M 559.674479 643.522135 C 559.674479 652.49349 556.223958 661.119792 550.013021 667.330729 C 543.457031 673.541667 534.830729 677.33724 526.204427 677.33724 C 517.233073 677.33724 508.606771 673.541667 502.395833 667.330729 C 495.839844 661.119792 492.389323 652.49349 492.389323 643.522135 C 492.389323 634.550781 495.839844 625.924479 502.395833 619.713542 C 508.606771 613.502604 517.233073 609.707031 526.204427 609.707031 C 534.830729 609.707031 543.457031 613.502604 550.013021 619.713542 C 556.223958 625.924479 559.674479 634.550781 559.674479 643.522135 Z M 559.674479 643.522135 " transform="matrix(0.0113208,0,0,0.0113208,0,0)"/>
<path style="fill-rule:nonzero;fill:rgb(99.607843%,99.607843%,99.607843%);fill-opacity:1;stroke-width:20.6152;stroke-linecap:round;stroke-linejoin:round;stroke:rgb(57.647061%,0%,57.647061%);stroke-opacity:1;stroke-miterlimit:10;" d="M 639.036458 426.484375 C 639.036458 435.455729 635.240885 444.082031 629.029948 450.292969 C 622.81901 456.503906 614.192708 460.299479 605.221354 460.299479 C 596.25 460.299479 587.623698 456.503906 581.41276 450.292969 C 575.201823 444.082031 571.751302 435.455729 571.751302 426.484375 C 571.751302 417.513021 575.201823 408.886719 581.41276 402.675781 C 587.623698 396.464844 596.25 392.669271 605.221354 392.669271 C 614.192708 392.669271 622.81901 396.464844 629.029948 402.675781 C 635.240885 408.886719 639.036458 417.513021 639.036458 426.484375 Z M 639.036458 426.484375 " transform="matrix(0.0113208,0,0,0.0113208,0,0)"/>
<path style=" stroke:none;fill-rule:nonzero;fill:rgb(99.607843%,99.607843%,99.607843%);fill-opacity:1;" d="M 6.484375 5.449219 L 6 6.773438 L 5.617188 6.773438 L 5.136719 5.449219 L 5.496094 5.449219 L 5.8125 6.378906 L 6.132812 5.449219 L 6.484375 5.449219 "/>
</g>
</svg>
