<svg width="64" height="64" viewBox="0 0 1060 1060" fill="none" xmlns="http://www.w3.org/2000/svg">
<path d="M619.906 410.594C596.498 410.499 573.009 426.359 570.125 452.219V636.344H667.531V452.219C661.143 423.181 640.561 410.677 619.906 410.594ZM617.562 439.781C634.031 439.781 647.406 455.225 647.406 462.531C647.406 469.838 634.031 475.75 617.562 475.75C601.094 475.75 587.75 469.838 587.75 462.531C587.75 455.225 601.094 439.781 617.562 439.781ZM621.375 487.656H639.562L614.719 539.062H652.312L616.87 604.418L642.005 601.53L598.441 631.716L581.527 591.972L601.214 602.963L626.375 554.469H590.656L621.375 487.656Z" fill="#930093"/>
<path d="M577.715 606.468C577.715 606.468 545.112 599.788 498.402 621.576C464.345 637.461 378.538 667.218 427.474 611.194C441.03 595.675 452.746 590.162 452.595 557.387" stroke="#930093" stroke-width="15.1461" stroke-linecap="round" stroke-linejoin="round"/>
<path d="M466.76 560.915L438.825 560.233C417.959 558.911 412.073 554.285 401.534 549.154L400.939 532.197L392.578 527.986L392.458 480.741C393.413 476.783 394.315 476.109 397.896 474.722H508.323C513.124 474.405 515.29 477.768 515.207 482.216L514.947 529.39L506.897 533.887L506.841 551.58C495.681 559.607 484.178 559.041 466.76 560.915H466.76Z" fill="#930093"/>
<path d="M488.812 494.189V422.475" stroke="#930093" stroke-width="24.2515" stroke-linecap="round"/>
<path d="M419.884 492.454V420.739" stroke="#930093" stroke-width="24.2515" stroke-linecap="round"/>
</svg>
