<?xml version="1.0" encoding="UTF-8"?>
<svg xmlns="http://www.w3.org/2000/svg" xmlns:xlink="http://www.w3.org/1999/xlink" width="32" height="32" viewBox="0 0 32 32">
<path fill-rule="evenodd" fill="rgb(99.607843%, 99.607843%, 99.607843%)" fill-opacity="1" d="M 9.058594 7.46875 C 8.722656 7.46875 8.386719 7.605469 8.148438 7.84375 C 7.910156 8.082031 7.773438 8.417969 7.773438 8.753906 L 7.773438 23.292969 C 7.773438 23.628906 7.910156 23.964844 8.148438 24.203125 C 8.386719 24.441406 8.722656 24.578125 9.058594 24.578125 L 22.980469 24.578125 C 23.316406 24.578125 23.652344 24.441406 23.890625 24.203125 C 24.128906 23.964844 24.265625 23.628906 24.265625 23.292969 L 24.265625 8.753906 C 24.265625 8.417969 24.128906 8.082031 23.890625 7.84375 C 23.652344 7.605469 23.316406 7.46875 22.980469 7.46875 Z M 9.058594 7.46875 "/>
<path fill-rule="nonzero" fill="rgb(3.921569%, 34.117647%, 64.705882%)" fill-opacity="1" d="M 12.625 23.261719 L 14.886719 23.261719 L 12.625 14.351562 Z M 12.625 23.261719 "/>
<path fill-rule="nonzero" fill="rgb(3.921569%, 34.117647%, 64.705882%)" fill-opacity="1" d="M 17.105469 23.261719 L 19.375 23.261719 L 19.375 14.351562 Z M 17.105469 23.261719 "/>
<path fill-rule="nonzero" fill="rgb(3.921569%, 34.117647%, 64.705882%)" fill-opacity="1" d="M 9.039062 8.738281 L 9.039062 23.261719 L 10.484375 23.261719 L 10.484375 11.945312 L 13.933594 11.945312 L 16.007812 19.664062 L 18.058594 11.945312 L 21.519531 11.945312 L 21.519531 23.261719 L 22.960938 23.261719 L 22.960938 8.738281 Z M 9.039062 8.738281 "/>
<path fill-rule="nonzero" fill="rgb(65.490196%, 78.039216%, 89.803922%)" fill-opacity="1" d="M 12.863281 8.738281 L 10.914062 8.738281 L 10.914062 9.738281 L 12.863281 9.738281 Z M 12.863281 8.738281 "/>
<path fill-rule="nonzero" fill="rgb(65.490196%, 78.039216%, 89.803922%)" fill-opacity="1" d="M 16.457031 8.738281 L 14.507812 8.738281 L 14.507812 9.738281 L 16.457031 9.738281 Z M 16.457031 8.738281 "/>
<path fill-rule="nonzero" fill="rgb(65.490196%, 78.039216%, 89.803922%)" fill-opacity="1" d="M 20.066406 8.738281 L 18.113281 8.738281 L 18.113281 9.738281 L 20.066406 9.738281 Z M 20.066406 8.738281 "/>
</svg>
