<?xml version="1.0" encoding="UTF-8"?>
<svg xmlns="http://www.w3.org/2000/svg" xmlns:xlink="http://www.w3.org/1999/xlink" width="48" height="48" viewBox="0 0 48 48">
<path fill-rule="nonzero" fill="rgb(57.647059%, 0%, 57.647059%)" fill-opacity="1" d="M 36.847656 20.703125 C 37.453125 20.703125 37.945312 20.210938 37.945312 19.605469 C 37.945312 19 37.453125 18.507812 36.847656 18.507812 C 36.242188 18.507812 35.75 19 35.75 19.605469 C 35.75 20.210938 36.242188 20.703125 36.847656 20.703125 Z M 36.847656 20.703125 "/>
<path fill-rule="nonzero" fill="rgb(57.647059%, 0%, 57.647059%)" fill-opacity="1" d="M 37.945312 21.578125 L 35.75 21.578125 L 35.75 25.964844 L 37.945312 25.964844 Z M 37.945312 21.578125 "/>
<path fill="none" stroke-width="19.8444" stroke-linecap="butt" stroke-linejoin="miter" stroke="rgb(57.647059%, 0%, 57.647059%)" stroke-opacity="1" stroke-miterlimit="4" d="M 779.990234 564.591471 L 779.990234 495.408529 C 779.990234 484.539388 788.616536 475.654297 799.226888 475.654297 L 828.211263 475.654297 C 838.821615 475.654297 847.447917 484.539388 847.447917 495.408529 L 847.447917 564.591471 " transform="matrix(0.045283, 0, 0, 0.045283, 0, 0)"/>
<path fill="none" stroke-width="20.089001" stroke-linecap="butt" stroke-linejoin="miter" stroke="rgb(57.647059%, 0%, 57.647059%)" stroke-opacity="1" stroke-miterlimit="4" d="M 799.226888 641.279297 L 799.226888 554.067383 " transform="matrix(0.045283, 0, 0, 0.045283, 0, 0)"/>
<path fill="none" stroke-width="20.089001" stroke-linecap="butt" stroke-linejoin="miter" stroke="rgb(57.647059%, 0%, 57.647059%)" stroke-opacity="1" stroke-miterlimit="4" d="M 828.297526 641.279297 L 828.297526 554.067383 " transform="matrix(0.045283, 0, 0, 0.045283, 0, 0)"/>
<path fill-rule="nonzero" fill="rgb(57.647059%, 0%, 57.647059%)" fill-opacity="1" d="M 42.550781 20.703125 C 43.15625 20.703125 43.648438 20.210938 43.648438 19.605469 C 43.648438 19 43.15625 18.507812 42.550781 18.507812 C 41.945312 18.507812 41.453125 19 41.453125 19.605469 C 41.453125 20.210938 41.945312 20.703125 42.550781 20.703125 Z M 42.550781 20.703125 "/>
<path fill-rule="nonzero" fill="rgb(57.647059%, 0%, 57.647059%)" fill-opacity="1" d="M 41.71875 21.578125 L 43.386719 21.578125 L 44.527344 26.40625 L 40.578125 26.40625 Z M 41.71875 21.578125 "/>
<path fill="none" stroke-width="17.9202" stroke-linecap="butt" stroke-linejoin="miter" stroke="rgb(57.647059%, 0%, 57.647059%)" stroke-opacity="1" stroke-miterlimit="4" d="M 883.24707 564.763997 L 909.902344 488.421224 C 913.007813 480.485026 920.167643 475.481771 928.36263 475.481771 L 950.963542 475.481771 C 959.158529 475.481771 967.439779 480.485026 969.423828 488.421224 L 996.165365 564.763997 " transform="matrix(0.045283, 0, 0, 0.045283, 0, 0)"/>
<path fill="none" stroke-width="20.089001" stroke-linecap="butt" stroke-linejoin="miter" stroke="rgb(57.647059%, 0%, 57.647059%)" stroke-opacity="1" stroke-miterlimit="4" d="M 925.170898 641.279297 L 925.170898 554.067383 " transform="matrix(0.045283, 0, 0, 0.045283, 0, 0)"/>
<path fill="none" stroke-width="20.089001" stroke-linecap="butt" stroke-linejoin="miter" stroke="rgb(57.647059%, 0%, 57.647059%)" stroke-opacity="1" stroke-miterlimit="4" d="M 954.241536 641.279297 L 954.241536 554.067383 " transform="matrix(0.045283, 0, 0, 0.045283, 0, 0)"/>
</svg>
