<?xml version="1.0" encoding="UTF-8"?>
<svg xmlns="http://www.w3.org/2000/svg" xmlns:xlink="http://www.w3.org/1999/xlink" width="24" height="24" viewBox="0 0 24 24">
<path fill-rule="nonzero" fill="rgb(0%, 0%, 0%)" fill-opacity="1" d="M 13.378906 8.398438 L 15.210938 6.210938 L 17.0625 8.398438 L 15.9375 8.398438 L 15.9375 10.285156 L 8.339844 14.785156 L 8.335938 17.699219 L 6.9375 17.699219 L 6.9375 14.066406 L 14.535156 9.617188 L 14.535156 8.398438 L 13.378906 8.398438 "/>
<path fill-rule="nonzero" fill="rgb(0%, 0%, 0%)" fill-opacity="1" d="M 8.335938 6.359375 L 8.335938 7.609375 L 6.933594 7.597656 L 6.933594 6.359375 Z M 6.933594 8.65625 L 8.339844 8.664062 L 8.339844 9.425781 L 9.453125 10.085938 L 8.796875 11.230469 L 6.933594 10.140625 Z M 10.621094 10.714844 L 13.488281 12.472656 L 12.84375 13.601562 L 9.96875 11.855469 Z M 14.683594 13.117188 L 15.933594 13.921875 L 15.933594 15.808594 L 17.066406 15.808594 L 15.210938 18 L 13.378906 15.808594 L 14.535156 15.808594 L 14.535156 14.59375 L 14.042969 14.242188 Z M 14.683594 13.117188 "/>
</svg>
