<?xml version="1.0" encoding="UTF-8"?>
<svg xmlns="http://www.w3.org/2000/svg" xmlns:xlink="http://www.w3.org/1999/xlink" width="24" height="24" viewBox="0 0 24 24">
<defs>
<filter id="filter-remove-color" x="0%" y="0%" width="100%" height="100%">
<feColorMatrix color-interpolation-filters="sRGB" values="0 0 0 0 1 0 0 0 0 1 0 0 0 0 1 0 0 0 1 0" />
</filter>
<mask id="mask-0">
<g filter="url(#filter-remove-color)">
<rect x="-2.4" y="-2.4" width="28.8" height="28.8" fill="rgb(0%, 0%, 0%)" fill-opacity="0.612"/>
</g>
</mask>
<clipPath id="clip-0">
<rect x="0" y="0" width="24" height="24"/>
</clipPath>
<g id="source-6" clip-path="url(#clip-0)">
<path fill-rule="nonzero" fill="rgb(21.568627%, 21.568627%, 21.568627%)" fill-opacity="1" d="M 8.140625 7.222656 L 7.875 7.484375 L 3.742188 11.628906 L 3.480469 11.894531 L 3.746094 12.160156 L 7.886719 16.308594 L 8.152344 16.574219 L 8.417969 16.308594 L 11.957031 12.753906 L 15.527344 16.308594 L 15.792969 16.574219 L 16.058594 16.308594 L 20.199219 12.15625 L 20.464844 11.890625 L 20.199219 11.628906 L 16.046875 7.484375 L 15.78125 7.222656 L 15.515625 7.484375 L 11.953125 11.023438 L 8.40625 7.484375 Z M 8.140625 8.28125 L 11.363281 11.5 L 10.96875 11.894531 L 11.363281 12.289062 L 8.152344 15.511719 L 4.539062 11.894531 Z M 15.78125 8.28125 L 19.402344 11.894531 L 15.792969 15.511719 L 12.578125 12.289062 L 12.976562 11.890625 L 12.707031 11.628906 L 12.578125 11.496094 Z M 15.78125 8.28125 "/>
</g>
</defs>
<g mask="url(#mask-0)">
<use xlink:href="#source-6"/>
</g>
<path fill-rule="nonzero" fill="rgb(100%, 91.764706%, 0%)" fill-opacity="1" d="M 15.78125 8.027344 L 19.648438 11.894531 L 15.78125 15.761719 Z M 15.78125 8.027344 "/>
<path fill-rule="nonzero" fill="rgb(100%, 91.764706%, 0%)" fill-opacity="1" d="M 8.140625 8.027344 L 12.007812 11.894531 L 8.140625 15.761719 Z M 8.140625 8.027344 "/>
<path fill-rule="nonzero" fill="rgb(100%, 91.764706%, 0%)" fill-opacity="1" d="M 15.78125 8.027344 L 11.914062 11.894531 L 15.78125 15.761719 Z M 15.78125 8.027344 "/>
<path fill-rule="nonzero" fill="rgb(100%, 91.764706%, 0%)" fill-opacity="1" d="M 8.144531 8.027344 L 4.273438 11.894531 L 8.144531 15.761719 Z M 8.144531 8.027344 "/>
</svg>
