<?xml version="1.0" encoding="UTF-8"?>
<svg xmlns="http://www.w3.org/2000/svg" xmlns:xlink="http://www.w3.org/1999/xlink" width="32" height="32" viewBox="0 0 32 32">
<path fill-rule="nonzero" fill="rgb(99.607843%, 99.607843%, 99.607843%)" fill-opacity="1" d="M 8.613281 9.804688 C 8.367188 9.804688 8.128906 9.871094 7.917969 9.996094 C 7.707031 10.125 7.539062 10.304688 7.425781 10.523438 L 7.636719 10.035156 L 6.320312 10.03125 C 6.042969 10.03125 5.769531 10.117188 5.542969 10.28125 C 5.316406 10.441406 5.148438 10.671875 5.058594 10.933594 L 4.949219 11.257812 C 4.914062 11.355469 4.894531 11.453125 4.882812 11.554688 C 4.808594 11.664062 4.746094 11.78125 4.707031 11.90625 L 4.597656 12.238281 C 4.566406 12.335938 4.542969 12.4375 4.535156 12.542969 C 4.46875 12.636719 4.417969 12.742188 4.378906 12.851562 L 4.269531 13.164062 C 4.203125 13.355469 4.179688 13.558594 4.203125 13.757812 C 4.050781 13.90625 3.933594 14.085938 3.863281 14.289062 L 3.753906 14.609375 C 3.71875 14.714844 3.695312 14.824219 3.6875 14.9375 C 3.625 15.03125 3.574219 15.128906 3.535156 15.234375 L 3.417969 15.558594 C 3.378906 15.664062 3.355469 15.777344 3.34375 15.890625 C 3.273438 15.992188 3.21875 16.101562 3.179688 16.21875 L 3.070312 16.539062 C 3.035156 16.648438 3.011719 16.761719 3.003906 16.875 C 2.9375 16.96875 2.882812 17.070312 2.84375 17.179688 L 2.742188 17.457031 C 2.699219 17.578125 2.675781 17.703125 2.667969 17.832031 C 2.605469 17.921875 2.554688 18.019531 2.515625 18.125 L 2.398438 18.449219 C 2.359375 18.554688 2.335938 18.664062 2.324219 18.777344 C 2.265625 18.867188 2.214844 18.96875 2.179688 19.070312 L 2.070312 19.375 C 2.03125 19.488281 2.003906 19.605469 1.996094 19.722656 C 1.921875 19.828125 1.863281 19.941406 1.820312 20.0625 L 1.710938 20.375 C 1.640625 20.574219 1.621094 20.789062 1.652344 20.996094 C 1.679688 21.207031 1.757812 21.40625 1.882812 21.578125 C 2.003906 21.753906 2.164062 21.894531 2.351562 21.992188 C 2.542969 22.089844 2.75 22.140625 2.960938 22.140625 L 14.25 22.1875 C 14.449219 22.1875 14.644531 22.144531 14.824219 22.058594 C 14.976562 22.117188 15.136719 22.148438 15.300781 22.148438 L 20.140625 22.167969 C 20.316406 22.167969 20.488281 22.136719 20.652344 22.070312 C 20.8125 22.136719 20.984375 22.171875 21.160156 22.171875 L 26 22.195312 C 26.273438 22.195312 26.542969 22.113281 26.769531 21.957031 C 26.992188 21.796875 27.164062 21.574219 27.257812 21.316406 L 29.515625 15.039062 C 29.566406 14.902344 29.589844 14.757812 29.59375 14.613281 C 29.667969 14.535156 29.730469 14.449219 29.785156 14.355469 C 30.332031 13.386719 30.585938 12.316406 30.125 11.371094 C 29.667969 10.425781 28.722656 10.027344 27.890625 9.890625 C 26.476562 9.65625 24.925781 10.015625 23.460938 10.601562 C 22.734375 10.105469 21.886719 9.816406 21 9.808594 C 20.265625 9.800781 19.476562 10.117188 18.699219 10.304688 C 18.574219 10.160156 18.421875 10.042969 18.246094 9.964844 C 18.074219 9.886719 17.886719 9.84375 17.695312 9.84375 Z M 8.613281 9.804688 "/>
<path fill-rule="nonzero" fill="rgb(92.941176%, 10.980392%, 18.039216%)" fill-opacity="1" d="M 6.316406 11.359375 L 8.507812 11.367188 L 8.609375 11.132812 L 17.691406 11.171875 L 17.4375 11.910156 C 19.835938 10.882812 22.570312 10.824219 23.246094 12.070312 C 26.140625 10.667969 30.367188 10.625 28.628906 13.699219 L 23.808594 13.679688 C 24.289062 12.882812 23.128906 12.886719 22.753906 13.675781 C 21.15625 13.667969 19.554688 13.660156 17.960938 13.65625 C 18.296875 12.929688 17.398438 12.78125 16.855469 13.652344 L 5.523438 13.601562 L 5.632812 13.289062 L 7.789062 13.300781 L 7.882812 13.074219 L 12.199219 13.09375 L 12.34375 12.667969 L 5.859375 12.652344 L 5.96875 12.320312 L 8.144531 12.328125 L 8.210938 12.113281 L 12.527344 12.128906 L 12.691406 11.699219 L 6.207031 11.683594 L 6.316406 11.359375 "/>
<path fill-rule="nonzero" fill="rgb(92.941176%, 10.980392%, 18.039216%)" fill-opacity="1" d="M 5.121094 14.71875 L 7.226562 14.726562 L 7.324219 14.492188 L 16.5 14.53125 L 14.253906 20.859375 L 2.964844 20.8125 L 3.074219 20.5 L 5.125 20.527344 L 5.261719 20.246094 L 9.667969 20.257812 L 9.804688 19.863281 L 3.320312 19.824219 L 3.429688 19.519531 L 5.507812 19.539062 L 5.589844 19.304688 L 9.988281 19.324219 L 10.132812 18.929688 L 3.648438 18.902344 L 3.765625 18.578125 L 5.851562 18.585938 L 5.941406 18.335938 L 10.324219 18.371094 L 10.476562 17.949219 L 3.992188 17.914062 L 4.09375 17.636719 L 6.207031 17.644531 L 6.304688 17.375 L 10.660156 17.402344 L 10.816406 16.996094 L 4.328125 16.96875 L 4.4375 16.648438 L 6.507812 16.65625 L 6.597656 16.433594 L 10.996094 16.449219 L 11.152344 16.035156 L 4.667969 16.011719 L 4.785156 15.6875 L 6.863281 15.695312 L 6.925781 15.46875 L 11.332031 15.488281 L 11.488281 15.066406 L 5.011719 15.039062 Z M 5.121094 14.71875 "/>
<path fill-rule="nonzero" fill="rgb(92.941176%, 10.980392%, 18.039216%)" fill-opacity="1" d="M 17.589844 14.542969 L 22.398438 14.5625 L 20.144531 20.839844 L 15.304688 20.820312 Z M 17.589844 14.542969 "/>
<path fill-rule="nonzero" fill="rgb(92.941176%, 10.980392%, 18.039216%)" fill-opacity="1" d="M 23.453125 14.570312 L 28.265625 14.589844 L 26.007812 20.867188 L 21.167969 20.84375 Z M 23.453125 14.570312 "/>
</svg>
