<?xml version="1.0" encoding="UTF-8"?>
<svg xmlns="http://www.w3.org/2000/svg" xmlns:xlink="http://www.w3.org/1999/xlink" width="12" height="12" viewBox="0 0 12 12" version="1.1">
<defs>
<filter id="alpha" filterUnits="objectBoundingBox" x="0%" y="0%" width="100%" height="100%">
  <feColorMatrix type="matrix" in="SourceGraphic" values="0 0 0 0 1 0 0 0 0 1 0 0 0 0 1 0 0 0 1 0"/>
</filter>
<mask id="mask0">
  <g filter="url(#alpha)">
<rect x="0" y="0" width="12" height="12" style="fill:rgb(0%,0%,0%);fill-opacity:0.426087;stroke:none;"/>
  </g>
</mask>
<clipPath id="clip1">
  <rect x="0" y="0" width="12" height="12"/>
</clipPath>
<g id="surface5" clip-path="url(#clip1)">
<path style=" stroke:none;fill-rule:nonzero;fill:rgb(67.450982%,84.705883%,95.294118%);fill-opacity:1;" d="M 6.019531 0.566406 C 5.945312 0.566406 5.867188 0.574219 5.796875 0.589844 C 5.320312 0.703125 5.019531 1.1875 5.132812 1.664062 C 5.195312 1.917969 5.363281 2.125 5.582031 2.242188 L 5.582031 5.683594 C 5.582031 5.757812 5.609375 5.828125 5.660156 5.882812 C 5.714844 5.933594 5.785156 5.960938 5.859375 5.960938 L 6.140625 5.960938 C 6.214844 5.960938 6.285156 5.933594 6.339844 5.882812 C 6.390625 5.828125 6.417969 5.757812 6.421875 5.683594 L 6.421875 2.242188 C 6.765625 2.054688 6.960938 1.652344 6.867188 1.253906 C 6.773438 0.851562 6.414062 0.574219 6.019531 0.566406 Z M 6.019531 0.566406 "/>
</g>
</defs>
<g id="surface1">
<use xlink:href="#surface5" mask="url(#mask0)"/>
<path style="fill:none;stroke-width:26.198;stroke-linecap:butt;stroke-linejoin:miter;stroke:rgb(0%,0%,0%);stroke-opacity:1;stroke-miterlimit:4;" d="M 530 510.332031 L 530 119.733073 " transform="matrix(0.0113208,0,0,0.0113208,0,0)"/>
<path style=" stroke:none;fill-rule:nonzero;fill:rgb(0%,0%,0%);fill-opacity:1;" d="M 6.59375 1.320312 C 6.613281 1.398438 6.617188 1.476562 6.601562 1.558594 C 6.589844 1.636719 6.5625 1.714844 6.519531 1.78125 C 6.476562 1.851562 6.421875 1.910156 6.355469 1.957031 C 6.292969 2.003906 6.21875 2.035156 6.140625 2.054688 C 6.0625 2.074219 5.980469 2.078125 5.902344 2.0625 C 5.820312 2.050781 5.746094 2.023438 5.675781 1.980469 C 5.609375 1.9375 5.550781 1.882812 5.503906 1.816406 C 5.453125 1.753906 5.421875 1.679688 5.402344 1.601562 C 5.382812 1.523438 5.382812 1.441406 5.394531 1.363281 C 5.40625 1.28125 5.4375 1.207031 5.476562 1.136719 C 5.519531 1.070312 5.574219 1.011719 5.640625 0.960938 C 5.707031 0.914062 5.78125 0.882812 5.859375 0.863281 C 5.9375 0.84375 6.015625 0.84375 6.097656 0.855469 C 6.175781 0.867188 6.253906 0.898438 6.320312 0.9375 C 6.390625 0.980469 6.449219 1.035156 6.496094 1.101562 C 6.542969 1.167969 6.574219 1.242188 6.59375 1.320312 Z M 6.59375 1.320312 "/>
</g>
</svg>
