<?xml version="1.0" encoding="UTF-8"?>
<svg xmlns="http://www.w3.org/2000/svg" xmlns:xlink="http://www.w3.org/1999/xlink" width="12" height="12" viewBox="0 0 12 12" version="1.1">
<defs>
<filter id="alpha" filterUnits="objectBoundingBox" x="0%" y="0%" width="100%" height="100%">
  <feColorMatrix type="matrix" in="SourceGraphic" values="0 0 0 0 1 0 0 0 0 1 0 0 0 0 1 0 0 0 1 0"/>
</filter>
<mask id="mask0">
  <g filter="url(#alpha)">
<rect x="0" y="0" width="12" height="12" style="fill:rgb(0%,0%,0%);fill-opacity:0.43913;stroke:none;"/>
  </g>
</mask>
<clipPath id="clip1">
  <rect x="0" y="0" width="12" height="12"/>
</clipPath>
<g id="surface5" clip-path="url(#clip1)">
<path style=" stroke:none;fill-rule:nonzero;fill:rgb(67.450982%,84.705883%,95.294118%);fill-opacity:1;" d="M 4.691406 0 C 4.625 0.00390625 4.558594 0.0195312 4.496094 0.046875 C 4.4375 0.0742188 4.382812 0.117188 4.34375 0.167969 L 3.949219 0.648438 C 3.871094 0.742188 3.835938 0.863281 3.847656 0.984375 C 3.859375 1.105469 3.917969 1.214844 4.011719 1.292969 L 4.664062 1.828125 L 4.03125 2.355469 C 3.9375 2.433594 3.878906 2.546875 3.867188 2.667969 C 3.855469 2.789062 3.894531 2.90625 3.972656 3 L 4.371094 3.476562 C 4.445312 3.570312 4.558594 3.628906 4.679688 3.640625 C 4.800781 3.652344 4.921875 3.613281 5.015625 3.535156 L 5.136719 3.433594 L 5.136719 10.644531 C 5.136719 10.703125 5.148438 10.761719 5.171875 10.816406 C 5.195312 10.875 5.230469 10.925781 5.273438 10.964844 C 5.316406 11.007812 5.363281 11.042969 5.421875 11.066406 C 5.476562 11.089844 5.535156 11.101562 5.597656 11.101562 L 6.113281 11.101562 C 6.171875 11.101562 6.234375 11.089844 6.289062 11.066406 C 6.34375 11.042969 6.394531 11.007812 6.4375 10.964844 C 6.480469 10.925781 6.511719 10.875 6.535156 10.816406 C 6.558594 10.761719 6.570312 10.703125 6.570312 10.644531 L 6.570312 3.390625 L 6.742188 3.535156 C 6.835938 3.609375 6.957031 3.648438 7.078125 3.636719 C 7.199219 3.625 7.308594 3.566406 7.386719 3.46875 L 7.78125 2.992188 C 7.859375 2.898438 7.894531 2.777344 7.882812 2.65625 C 7.871094 2.535156 7.8125 2.425781 7.71875 2.347656 L 7.074219 1.816406 L 7.707031 1.289062 C 7.800781 1.210938 7.859375 1.097656 7.871094 0.980469 C 7.878906 0.859375 7.84375 0.738281 7.765625 0.644531 L 7.367188 0.167969 C 7.289062 0.0742188 7.179688 0.015625 7.058594 0.00390625 C 6.9375 -0.00390625 6.816406 0.03125 6.722656 0.109375 L 5.863281 0.824219 L 4.984375 0.105469 C 4.902344 0.0351562 4.796875 0 4.691406 0 Z M 4.691406 0 "/>
</g>
</defs>
<g id="surface1">
<use xlink:href="#surface5" mask="url(#mask0)"/>
<path style="fill:none;stroke-width:25;stroke-linecap:butt;stroke-linejoin:miter;stroke:rgb(0%,0%,0%);stroke-opacity:1;stroke-miterlimit:4;" d="M 283.014323 514.485677 L 283.014323 68.91276 " transform="matrix(0.0206897,0,0,0.0206897,0,0)"/>
<path style="fill:none;stroke-width:30;stroke-linecap:butt;stroke-linejoin:miter;stroke:rgb(0%,0%,0%);stroke-opacity:1;stroke-miterlimit:4;" d="M 217.5 33.984375 L 349.661458 142.356771 " transform="matrix(0.0206897,0,0,0.0206897,0,0)"/>
<path style="fill:none;stroke-width:30;stroke-linecap:butt;stroke-linejoin:miter;stroke:rgb(0%,0%,0%);stroke-opacity:1;stroke-miterlimit:4;" d="M 218.632812 142.545573 L 348.90625 33.984375 " transform="matrix(0.0206897,0,0,0.0206897,0,0)"/>
</g>
</svg>
