<?xml version="1.0" encoding="UTF-8"?>
<svg xmlns="http://www.w3.org/2000/svg" xmlns:xlink="http://www.w3.org/1999/xlink" width="24" height="24" viewBox="0 0 24 24">
<path fill-rule="nonzero" fill="rgb(99.607843%, 99.607843%, 99.607843%)" fill-opacity="1" d="M 6.085938 5.65625 C 5.835938 5.65625 5.597656 5.757812 5.421875 5.933594 C 5.246094 6.109375 5.148438 6.347656 5.148438 6.59375 L 5.148438 12.113281 C 5.148438 12.316406 5.214844 12.515625 5.335938 12.675781 C 5.203125 12.878906 5.148438 13.125 5.191406 13.367188 C 5.234375 13.605469 5.371094 13.820312 5.570312 13.960938 L 11.453125 18.167969 C 11.609375 18.28125 11.800781 18.34375 11.996094 18.34375 L 12.027344 18.34375 C 12.222656 18.34375 12.414062 18.28125 12.570312 18.167969 L 18.433594 13.960938 C 18.632812 13.820312 18.765625 13.605469 18.808594 13.367188 C 18.851562 13.125 18.796875 12.878906 18.660156 12.675781 C 18.785156 12.515625 18.851562 12.316406 18.851562 12.113281 L 18.851562 6.59375 C 18.851562 6.347656 18.753906 6.109375 18.578125 5.933594 C 18.402344 5.757812 18.164062 5.65625 17.914062 5.65625 L 15.640625 5.65625 C 15.449219 5.65625 15.261719 5.714844 15.101562 5.828125 L 12.003906 8.007812 L 8.902344 5.828125 C 8.746094 5.714844 8.558594 5.65625 8.363281 5.65625 Z M 14.726562 10.859375 L 14.726562 12.113281 C 14.726562 12.160156 14.730469 12.207031 14.738281 12.253906 L 14.332031 12.253906 C 14.136719 12.25 13.945312 12.3125 13.789062 12.425781 L 12.007812 13.695312 L 10.222656 12.429688 C 10.0625 12.316406 9.871094 12.253906 9.675781 12.253906 L 9.261719 12.253906 C 9.269531 12.207031 9.273438 12.160156 9.273438 12.113281 L 9.277344 10.871094 L 11.441406 12.402344 C 11.503906 12.445312 11.566406 12.480469 11.636719 12.507812 L 11.664062 12.519531 C 11.8125 12.578125 11.96875 12.597656 12.125 12.578125 C 12.28125 12.558594 12.433594 12.5 12.558594 12.410156 Z M 14.726562 10.859375 "/>
<path fill-rule="nonzero" fill="rgb(5.490196%, 41.568627%, 73.72549%)" fill-opacity="1" d="M 6.113281 13.203125 L 9.679688 13.191406 L 12.007812 14.839844 L 14.328125 13.191406 L 17.886719 13.203125 L 12.027344 17.40625 L 11.996094 17.40625 Z M 6.085938 6.59375 L 8.363281 6.59375 L 12.003906 9.15625 L 15.640625 6.59375 L 17.914062 6.59375 L 17.914062 12.109375 L 15.664062 12.109375 L 15.664062 9.035156 L 12.015625 11.648438 L 11.984375 11.636719 L 8.347656 9.066406 L 8.335938 12.109375 L 6.085938 12.109375 Z M 6.085938 6.59375 "/>
</svg>
