<?xml version="1.0" encoding="UTF-8"?>
<svg xmlns="http://www.w3.org/2000/svg" xmlns:xlink="http://www.w3.org/1999/xlink" width="24" height="24" viewBox="0 0 24 24">
<path fill-rule="nonzero" fill="rgb(0%, 0%, 0%)" fill-opacity="1" d="M 7.386719 13.964844 L 5.410156 13.964844 C 3.960938 17.261719 10.945312 18.378906 14.042969 17.457031 C 12.726562 17.523438 4.816406 16.273438 7.386719 13.964844 Z M 7.386719 13.964844 "/>
<path fill-rule="nonzero" fill="rgb(0%, 0%, 0%)" fill-opacity="1" d="M 15.03125 11.988281 L 15.03125 13.964844 C 15.824219 13.964844 16.613281 14.292969 16.613281 15.085938 C 16.613281 16.207031 11.738281 16.46875 11.738281 16.46875 C 15.359375 16.929688 17.929688 16.074219 17.929688 14.625 C 17.929688 13.175781 16.613281 11.988281 15.03125 11.988281 Z M 15.03125 11.988281 "/>
<path fill="none" stroke-width="33.0037" stroke-linecap="butt" stroke-linejoin="miter" stroke="rgb(0%, 0%, 0%)" stroke-opacity="1" stroke-miterlimit="4" d="M 369.674479 305.670573 C 428.580729 305.670573 465.208333 350.227865 465.208333 385.250651 C 465.208333 437.832031 375.999349 464.92513 282.070312 464.92513 C 188.046875 464.92513 114.791667 428.297526 114.791667 385.250651 C 114.791667 359.76237 138.67513 321.529948 178.51237 321.529948 " transform="matrix(0.0413793, 0, 0, 0.0413793, 0, 0)"/>
<path fill-rule="nonzero" fill="rgb(0%, 0%, 0%)" fill-opacity="1" d="M 10.023438 4.738281 C 10.023438 4.738281 8.113281 4.078125 4.089844 4.078125 L 4.089844 15.941406 C 4.816406 13.898438 7.386719 13.304688 7.386719 13.304688 C 7.386719 7.308594 10.023438 4.738281 10.023438 4.738281 Z M 10.023438 4.738281 "/>
<path fill-rule="nonzero" fill="rgb(0%, 0%, 0%)" fill-opacity="1" d="M 15.953125 4.738281 C 15.953125 4.738281 17.734375 4.078125 19.910156 4.078125 L 19.910156 15.875 C 19.910156 15.085938 17.667969 13.964844 14.636719 13.964844 C 14.636719 9.285156 15.230469 6.386719 15.953125 4.738281 Z M 15.953125 4.738281 "/>
<path fill-rule="nonzero" fill="rgb(0%, 0%, 0%)" fill-opacity="1" d="M 14.304688 4.738281 C 12.921875 4.738281 12 9.089844 12 14.625 C 12 14.953125 12.261719 15.285156 12.660156 15.285156 C 12.988281 15.285156 13.316406 15.019531 13.316406 14.625 C 13.316406 10.671875 13.714844 5.132812 14.964844 4.738281 Z M 14.304688 4.738281 "/>
<path fill-rule="nonzero" fill="rgb(0%, 0%, 0%)" fill-opacity="1" d="M 12.066406 4.738281 C 10.746094 4.738281 8.703125 8.164062 8.703125 14.625 C 8.703125 14.953125 8.96875 15.285156 9.363281 15.285156 C 9.695312 15.285156 10.023438 15.019531 10.023438 14.625 C 10.023438 8.296875 11.40625 5.132812 12.660156 4.738281 Z M 12.066406 4.738281 "/>
</svg>
