<?xml version="1.0" encoding="UTF-8"?>
<svg xmlns="http://www.w3.org/2000/svg" xmlns:xlink="http://www.w3.org/1999/xlink" width="12" height="12" viewBox="0 0 12 12" version="1.1">
<g id="surface1">
<path style=" stroke:none;fill-rule:nonzero;fill:rgb(0%,0%,0%);fill-opacity:1;" d="M 6.628906 4.59375 L 7.644531 3.382812 L 8.667969 4.59375 L 8.042969 4.59375 L 8.042969 7.738281 L 7.269531 7.738281 L 7.269531 4.59375 L 6.628906 4.59375 "/>
<path style=" stroke:none;fill-rule:nonzero;fill:rgb(0%,0%,0%);fill-opacity:1;" d="M 6.628906 6.542969 L 7.644531 5.332031 L 8.667969 6.542969 L 8.042969 6.542969 L 8.042969 6.835938 L 7.269531 6.835938 L 7.269531 6.542969 L 6.628906 6.542969 "/>
<path style=" stroke:none;fill-rule:nonzero;fill:rgb(0%,0%,0%);fill-opacity:1;" d="M 3.464844 5.496094 L 4.480469 4.28125 L 5.507812 5.496094 L 4.882812 5.496094 L 4.882812 8.636719 L 4.105469 8.636719 L 4.105469 5.496094 L 3.464844 5.496094 "/>
<path style=" stroke:none;fill-rule:nonzero;fill:rgb(0%,0%,0%);fill-opacity:1;" d="M 3.464844 7.296875 L 4.480469 6.082031 L 5.507812 7.296875 L 4.882812 7.296875 L 4.882812 7.585938 L 4.105469 7.585938 L 4.105469 7.296875 L 3.464844 7.296875 "/>
</g>
</svg>
