<?xml version="1.0" encoding="UTF-8"?>
<svg xmlns="http://www.w3.org/2000/svg" xmlns:xlink="http://www.w3.org/1999/xlink" width="12" height="12" viewBox="0 0 12 12" version="1.1">
<g id="surface1">
<path style=" stroke:none;fill-rule:nonzero;fill:rgb(99.607843%,99.607843%,99.607843%);fill-opacity:1;" d="M 4.511719 2.207031 L 3.347656 2.207031 C 3.214844 2.210938 3.085938 2.25 2.976562 2.328125 C 2.867188 2.402344 2.785156 2.511719 2.738281 2.632812 C 2.695312 2.757812 2.6875 2.894531 2.722656 3.023438 C 2.753906 3.152344 2.828125 3.265625 2.929688 3.351562 C 3.699219 4.011719 4.1875 4.988281 4.1875 6.085938 L 4.1875 9.140625 C 4.1875 9.226562 4.203125 9.3125 4.238281 9.390625 C 4.269531 9.46875 4.316406 9.542969 4.378906 9.601562 C 4.4375 9.664062 4.511719 9.710938 4.589844 9.742188 C 4.667969 9.777344 4.753906 9.792969 4.839844 9.792969 L 5.761719 9.792969 C 5.84375 9.792969 5.925781 9.777344 6 9.746094 C 6.078125 9.777344 6.15625 9.792969 6.238281 9.792969 L 7.160156 9.792969 C 7.246094 9.792969 7.332031 9.777344 7.410156 9.742188 C 7.488281 9.710938 7.558594 9.664062 7.621094 9.601562 C 7.679688 9.542969 7.730469 9.46875 7.761719 9.390625 C 7.792969 9.3125 7.8125 9.226562 7.8125 9.140625 L 7.8125 6.085938 C 7.8125 4.988281 8.300781 4.011719 9.070312 3.351562 C 9.171875 3.265625 9.246094 3.152344 9.277344 3.023438 C 9.3125 2.894531 9.304688 2.757812 9.261719 2.632812 C 9.214844 2.511719 9.132812 2.402344 9.023438 2.328125 C 8.914062 2.25 8.785156 2.210938 8.652344 2.210938 L 7.488281 2.207031 C 7.316406 2.207031 7.152344 2.273438 7.03125 2.398438 C 6.59375 2.828125 6.25 3.347656 6 3.914062 C 5.75 3.347656 5.402344 2.828125 4.96875 2.398438 C 4.910156 2.335938 4.839844 2.289062 4.757812 2.257812 C 4.679688 2.222656 4.59375 2.207031 4.511719 2.207031 Z M 4.511719 2.207031 "/>
<path style=" stroke:none;fill-rule:nonzero;fill:rgb(77.254903%,9.803922%,20.784314%);fill-opacity:1;" d="M 4.511719 2.859375 L 3.351562 2.859375 C 4.261719 3.636719 4.835938 4.796875 4.839844 6.085938 L 4.839844 9.140625 L 5.761719 9.140625 L 5.761719 5.835938 C 5.753906 4.671875 5.273438 3.621094 4.511719 2.859375 Z M 7.488281 2.859375 C 6.722656 3.621094 6.246094 4.671875 6.238281 5.835938 L 6.238281 9.140625 L 7.160156 9.140625 L 7.160156 6.085938 C 7.160156 4.796875 7.742188 3.636719 8.648438 2.859375 Z M 7.488281 2.859375 "/>
</g>
</svg>
