<svg width="48" height="48" viewBox="0 0 48 48" fill="none" xmlns="http://www.w3.org/2000/svg">
<path opacity="0.2" d="M46 24C46 36.1503 36.1503 46 24 46C11.8497 46 2 36.1503 2 24C2 11.8497 11.8497 2 24 2C36.1503 2 46 11.8497 46 24Z" fill="white"/>
<path d="M44 24C44 35.0457 35.0457 44 24 44C12.9543 44 4 35.0457 4 24C4 12.9543 12.9543 4 24 4C35.0457 4 44 12.9543 44 24Z" fill="#DE0000"/>
<path d="M40 24C40 32.8366 32.8366 40 24 40C15.1634 40 8 32.8366 8 24C8 15.1634 15.1634 8 24 8C32.8366 8 40 15.1634 40 24Z" fill="#FF99CC"/>
<path d="M34.5858 10.5858C35.3668 9.80474 36.6332 9.80474 37.4142 10.5858C38.1953 11.3668 38.1953 12.6332 37.4142 13.4142L26.8284 24L37.4142 34.5858C38.1953 35.3668 38.1953 36.6332 37.4142 37.4142C36.6332 38.1953 35.3668 38.1953 34.5858 37.4142L24 26.8284L13.4142 37.4142C12.6332 38.1953 11.3668 38.1953 10.5858 37.4142C9.80474 36.6332 9.80474 35.3668 10.5858 34.5858L21.1716 24L10.5858 13.4142C9.80474 12.6332 9.80474 11.3668 10.5858 10.5858C11.3668 9.80474 12.6332 9.80474 13.4142 10.5858L24 21.1716L34.5858 10.5858Z" fill="#DE0000"/>
</svg>
