<?xml version="1.0" encoding="UTF-8"?>
<svg xmlns="http://www.w3.org/2000/svg" xmlns:xlink="http://www.w3.org/1999/xlink" width="24" height="24" viewBox="0 0 24 24">
<defs>
<filter id="filter-remove-color" x="0%" y="0%" width="100%" height="100%">
<feColorMatrix color-interpolation-filters="sRGB" values="0 0 0 0 1 0 0 0 0 1 0 0 0 0 1 0 0 0 1 0" />
</filter>
<mask id="mask-0">
<g filter="url(#filter-remove-color)">
<rect x="-2.4" y="-2.4" width="28.8" height="28.8" fill="rgb(0%, 0%, 0%)" fill-opacity="0.43913"/>
</g>
</mask>
<clipPath id="clip-0">
<path clip-rule="nonzero" d="M 10 0 L 19 0 L 19 23 L 10 23 Z M 10 0 "/>
</clipPath>
<clipPath id="clip-1">
<rect x="0" y="0" width="24" height="24"/>
</clipPath>
<g id="source-7" clip-path="url(#clip-1)">
<g clip-path="url(#clip-0)">
<path fill-rule="nonzero" fill="rgb(67.45098%, 84.705882%, 95.294118%)" fill-opacity="1" d="M 13.957031 -0.0703125 C 13.878906 -0.0703125 13.804688 -0.0546875 13.738281 -0.0195312 C 13.667969 0.015625 13.609375 0.0664062 13.5625 0.125 C 13.519531 0.1875 13.488281 0.257812 13.476562 0.335938 C 13.464844 0.410156 13.472656 0.488281 13.496094 0.558594 L 14.496094 3.542969 L 13.320312 3.292969 C 13.238281 3.273438 13.152344 3.277344 13.070312 3.304688 C 12.992188 3.332031 12.917969 3.378906 12.863281 3.441406 C 12.804688 3.503906 12.765625 3.582031 12.75 3.664062 C 12.734375 3.746094 12.738281 3.832031 12.765625 3.910156 L 13.921875 7.375 L 10.695312 21.402344 C 10.667969 21.527344 10.691406 21.65625 10.757812 21.761719 C 10.824219 21.871094 10.933594 21.949219 11.054688 21.976562 L 12.035156 22.203125 C 12.097656 22.214844 12.160156 22.21875 12.222656 22.207031 C 12.285156 22.195312 12.347656 22.171875 12.398438 22.136719 C 12.453125 22.101562 12.5 22.058594 12.535156 22.003906 C 12.570312 21.953125 12.597656 21.894531 12.609375 21.832031 L 15.523438 7.722656 L 18.082031 5.0625 C 18.140625 5.003906 18.183594 4.925781 18.203125 4.84375 C 18.222656 4.761719 18.21875 4.671875 18.195312 4.59375 C 18.167969 4.511719 18.125 4.4375 18.058594 4.378906 C 17.996094 4.320312 17.921875 4.28125 17.835938 4.261719 L 16.613281 4 L 18.8125 1.710938 C 18.871094 1.652344 18.914062 1.574219 18.933594 1.492188 C 18.953125 1.410156 18.949219 1.320312 18.925781 1.238281 C 18.902344 1.160156 18.855469 1.085938 18.792969 1.027344 C 18.730469 0.96875 18.652344 0.929688 18.570312 0.910156 L 14.050781 -0.0585938 C 14.019531 -0.0664062 13.988281 -0.0703125 13.957031 -0.0703125 Z M 13.957031 -0.0703125 "/>
</g>
</g>
</defs>
<g mask="url(#mask-0)">
<use xlink:href="#source-7"/>
</g>
<path fill-rule="nonzero" fill="rgb(0%, 0%, 0%)" fill-opacity="1" d="M 17.734375 4.730469 L 13.214844 3.757812 L 14.621094 7.964844 "/>
<path fill-rule="nonzero" fill="rgb(0%, 0%, 0%)" fill-opacity="1" d="M 18.464844 1.378906 L 13.949219 0.40625 L 15.355469 4.613281 "/>
<path fill-rule="nonzero" fill="rgb(0%, 0%, 0%)" fill-opacity="1" d="M 15.222656 3.839844 L 11.160156 21.507812 L 12.136719 21.730469 L 15.804688 3.976562 Z M 15.222656 3.839844 "/>
</svg>
