<?xml version="1.0" encoding="UTF-8"?>
<svg xmlns="http://www.w3.org/2000/svg" xmlns:xlink="http://www.w3.org/1999/xlink" width="32" height="32" viewBox="0 0 32 32">
<path fill-rule="nonzero" fill="rgb(99.607843%, 99.607843%, 99.607843%)" fill-opacity="1" d="M 16 7.171875 C 13.6875 7.171875 11.390625 8.121094 9.757812 9.757812 C 8.121094 11.390625 7.171875 13.6875 7.171875 16 C 7.171875 18.3125 8.121094 20.609375 9.757812 22.242188 C 11.390625 23.878906 13.6875 24.828125 16 24.828125 C 18.3125 24.828125 20.609375 23.878906 22.242188 22.242188 C 23.878906 20.609375 24.828125 18.3125 24.828125 16 C 24.828125 13.6875 23.878906 11.390625 22.242188 9.757812 C 20.609375 8.121094 18.3125 7.171875 16 7.171875 Z M 16 7.171875 "/>
<path fill-rule="nonzero" fill="rgb(4.313725%, 26.27451%, 44.705882%)" fill-opacity="1" d="M 16 23.964844 C 20.398438 23.964844 23.964844 20.398438 23.964844 16 C 23.964844 11.601562 20.398438 8.035156 16 8.035156 C 11.601562 8.035156 8.035156 11.601562 8.035156 16 C 8.035156 20.398438 11.601562 23.964844 16 23.964844 Z M 16 23.964844 "/>
<path fill="none" stroke-width="0.101892" stroke-linecap="butt" stroke-linejoin="miter" stroke="rgb(93.72549%, 87.843137%, 33.333333%)" stroke-opacity="1" stroke-miterlimit="10" d="M 6.537109 4.761719 L 6.439453 4.585938 C 7.240234 4.216797 8.173828 4.121094 9.087891 4.384766 C 9.246094 4.429688 9.396484 4.482422 9.542969 4.544922 L 9.464844 4.720703 " transform="matrix(2, 0, 0, 2, 0, 0)"/>
<path fill="none" stroke-width="0.101892" stroke-linecap="butt" stroke-linejoin="miter" stroke="rgb(93.72549%, 87.843137%, 33.333333%)" stroke-opacity="1" stroke-miterlimit="10" d="M 4.496094 7.28125 L 4.296875 7.253906 C 4.490234 6.390625 4.980469 5.591797 5.746094 5.025391 C 5.876953 4.927734 6.011719 4.839844 6.150391 4.761719 L 6.242188 4.929688 " transform="matrix(2, 0, 0, 2, 0, 0)"/>
<path fill="none" stroke-width="0.101892" stroke-linecap="butt" stroke-linejoin="miter" stroke="rgb(93.72549%, 87.843137%, 33.333333%)" stroke-opacity="1" stroke-miterlimit="10" d="M 5.367188 10.419922 L 5.228516 10.566406 C 4.634766 9.914062 4.263672 9.052734 4.238281 8.099609 C 4.234375 7.9375 4.240234 7.775391 4.255859 7.617188 L 4.445312 7.640625 " transform="matrix(2, 0, 0, 2, 0, 0)"/>
<path fill="none" stroke-width="0.101892" stroke-linecap="butt" stroke-linejoin="miter" stroke="rgb(93.72549%, 87.843137%, 33.333333%)" stroke-opacity="1" stroke-miterlimit="10" d="M 11.5 7.234375 L 11.701172 7.207031 C 11.507812 6.345703 11.015625 5.546875 10.251953 4.978516 C 10.121094 4.880859 9.984375 4.792969 9.845703 4.714844 L 9.755859 4.882812 " transform="matrix(2, 0, 0, 2, 0, 0)"/>
<path fill="none" stroke-width="0.101892" stroke-linecap="butt" stroke-linejoin="miter" stroke="rgb(93.72549%, 87.843137%, 33.333333%)" stroke-opacity="1" stroke-miterlimit="10" d="M 10.630859 10.373047 L 10.769531 10.519531 C 11.363281 9.867188 11.734375 9.005859 11.759766 8.052734 C 11.763672 7.890625 11.757812 7.728516 11.742188 7.570312 L 11.552734 7.59375 " transform="matrix(2, 0, 0, 2, 0, 0)"/>
<path fill-rule="nonzero" fill="rgb(96.470588%, 89.803922%, 28.235294%)" fill-opacity="1" d="M 21.246094 21.625 C 19.871094 22.914062 18.035156 23.691406 16 23.691406 C 13.96875 23.691406 12.125 22.90625 10.75 21.621094 L 21.246094 21.625 "/>
<path fill-rule="nonzero" fill="rgb(99.215686%, 1.568627%, 0.784314%)" fill-opacity="1" stroke-width="0.101892" stroke-linecap="butt" stroke-linejoin="miter" stroke="rgb(93.72549%, 87.843137%, 33.333333%)" stroke-opacity="1" stroke-miterlimit="10" d="M 8.101562 10.144531 L 9.205078 7.818359 C 9.355469 8.806641 9.597656 9.519531 10.878906 9.431641 L 9.533203 5.447266 L 8.101562 7.941406 L 6.667969 5.447266 L 5.322266 9.431641 C 6.605469 9.519531 6.845703 8.806641 6.996094 7.818359 Z M 8.101562 10.144531 " transform="matrix(2, 0, 0, 2, 0, 0)"/>
</svg>
