<?xml version="1.0" encoding="UTF-8" standalone="no"?>
<!-- Generator: Adobe Illustrator 16.0.4, SVG Export Plug-In . SVG Version: 6.00 Build 0)  -->

<svg
   xmlns:dc="http://purl.org/dc/elements/1.1/"
   xmlns:cc="http://creativecommons.org/ns#"
   xmlns:rdf="http://www.w3.org/1999/02/22-rdf-syntax-ns#"
   xmlns:svg="http://www.w3.org/2000/svg"
   xmlns="http://www.w3.org/2000/svg"
   xmlns:sodipodi="http://sodipodi.sourceforge.net/DTD/sodipodi-0.dtd"
   xmlns:inkscape="http://www.inkscape.org/namespaces/inkscape"
   version="1.1"
   id="Слой_1"
   x="0px"
   y="0px"
   width="16"
   height="16"
   viewBox="0 0 16 16"
   xml:space="preserve"
   inkscape:version="0.48.4 r9939"
   sodipodi:docname="osmc_white_shell.svg"
   style="enable-background:new"><metadata
     id="metadata11"><rdf:RDF><cc:Work
         rdf:about=""><dc:format>image/svg+xml</dc:format><dc:type
           rdf:resource="http://purl.org/dc/dcmitype/StillImage" /><dc:title /></cc:Work></rdf:RDF></metadata><defs
     id="defs9" /><sodipodi:namedview
     pagecolor="#ffffff"
     bordercolor="#666666"
     borderopacity="1"
     objecttolerance="10"
     gridtolerance="10"
     guidetolerance="10"
     inkscape:pageopacity="0"
     inkscape:pageshadow="2"
     inkscape:window-width="1920"
     inkscape:window-height="1004"
     id="namedview7"
     showgrid="false"
     inkscape:zoom="22.627417"
     inkscape:cx="-2.0359608"
     inkscape:cy="6.7212069"
     inkscape:window-x="1680"
     inkscape:window-y="0"
     inkscape:window-maximized="1"
     inkscape:current-layer="Слой_1"
     inkscape:snap-bbox="true"
     inkscape:object-nodes="true"
     inkscape:snap-smooth-nodes="true"
     inkscape:bbox-paths="true"
     inkscape:bbox-nodes="true"
     inkscape:snap-bbox-edge-midpoints="true"
     inkscape:snap-bbox-midpoints="true" /><path
     inkscape:connector-curvature="0"
     d="M 6.4454993,3.4389363 C 6.2766442,3.6592873 6.0852465,3.9088123 5.8290914,4.1410973 5.7596935,4.2038683 5.6865372,4.2597823 5.6118346,4.3126043 5.5064108,4.1364563 5.4365703,3.9653913 5.412259,3.9019613 5.37756,3.8115713 5.2851763,3.5715453 5.419089,3.3763893 5.5645157,3.1648793 5.8816708,3.1357053 6.2025834,3.1357053 H 6.355967 c 0.1275246,0 0.2358217,2.21e-4 0.3308578,0.0013 -0.084649,0.09968 -0.1644348,0.202007 -0.2413472,0.301905 z"
     id="path3"
     style="stroke:none;fill:#fefefe;fill-opacity:1" /><path
     inkscape:connector-curvature="0"
     d="m 10.36496,4.3066373 c -0.06719,-0.04597 -0.133493,-0.09459 -0.199134,-0.147859 -0.2493034,-0.202669 -0.4208101,-0.444679 -0.6029261,-0.700834 -0.069838,-0.09857 -0.1441005,-0.202449 -0.225213,-0.304779 0.1653184,-0.01702 0.3310794,-0.01746 0.4608145,-0.01746 0.3211326,0 0.6382876,0.02917 0.7834946,0.240684 0.133934,0.195155 0.04155,0.435176 0.007,0.524908 -0.0442,0.115369 -0.123768,0.262565 -0.224109,0.405339 z"
     id="path5"
     style="stroke:none;fill:#fefefe;fill-opacity:1" /><path
     inkscape:connector-curvature="0"
     d="m 10.331808,6.0387233 c -0.04243,-0.03846 -0.0957,-0.05747 -0.148742,-0.05747 -0.05989,0 -0.120011,0.02431 -0.163551,0.07227 -0.081996,0.0904 -0.075366,0.230297 0.01481,0.312293 l 3.268352,2.9693314 c 0.01658,0.199797 -0.02276,0.437166 -0.133492,0.7514483 -0.178801,0.506122 -0.428988,0.879856 -0.750343,1.285417 -0.155593,0.19626 -0.405339,0.31826 -0.662821,0.341024 L 9.5275383,6.8560353 c -0.037348,-0.08111 -0.1173586,-0.128852 -0.2011227,-0.128852 -0.030941,0 -0.062103,0.0064 -0.091942,0.02012 -0.1109486,0.050827 -0.1597928,0.182112 -0.1087388,0.293061 l 2.2760012,4.9599947 c -0.113601,0.25726 -0.337046,0.473412 -0.628343,0.601157 -0.363567,0.159351 -0.8749934,0.275163 -1.3696225,0.387217 -0.1547098,0.03492 -0.3076517,0.06962 -0.4530787,0.104982 -0.06962,0.01702 -0.1407858,0.02563 -0.2112893,0.02563 -0.1938288,0 -0.3701983,-0.06343 -0.5178356,-0.164213 V 7.1968399 c 0,-0.1222206 -0.099014,-0.2210146 -0.2210136,-0.2210146 -0.1219997,0 -0.2210144,0.09879 -0.2210144,0.2210146 v 5.7127681 c -0.1688543,0.110286 -0.3779332,0.181452 -0.6206066,0.181452 -0.083322,0 -0.1681916,-0.0091 -0.2371485,-0.02387 C 6.3509051,12.988733 5.7974866,12.835792 5.2767776,12.612347 4.9189562,12.459184 4.7014785,12.254747 4.5794788,12.045888 L 6.9292983,7.0980493 c 0.052379,-0.110286 0.00528,-0.24201 -0.1047604,-0.29439 -0.030721,-0.01436 -0.062991,-0.02144 -0.094815,-0.02144 -0.082659,0 -0.1617817,0.04663 -0.1997965,0.1262 L 4.2483994,11.712822 C 3.9986541,11.680332 3.7553174,11.545957 3.5579523,11.32008 3.2432287,10.935516 3.0021024,10.520231 2.8412043,10.085717 2.7426322,9.8189527 2.708596,9.5526307 2.7306975,9.3152627 L 6.0801629,6.4909263 c 0.093268,-0.07868 0.1052029,-0.218142 0.026523,-0.311409 -0.043763,-0.05172 -0.1060866,-0.07846 -0.1690753,-0.07846 -0.05039,0 -0.1010035,0.01702 -0.1423333,0.05194 L 2.6906938,8.7708975 C 2.5737771,8.627459 2.4884659,8.3962786 2.475205,8.0282904 c 0,-1.9522161 1.0734648,-2.3531351 2.1117881,-2.7412351 0.5319804,-0.198692 1.0820838,-0.404456 1.5389198,-0.818636 0.2851076,-0.258365 0.489767,-0.525129 0.6703352,-0.760509 0.3408036,-0.444017 0.6349727,-0.827255 1.23591,-0.827255 0.5788353,0 0.8659324,0.404677 1.1700472,0.833222 0.1909567,0.269195 0.3885426,0.547452 0.6844805,0.787915 0.5101002,0.414622 1.0582142,0.619502 1.5884262,0.81753 1.054237,0.393627 2.049683,0.765813 2.049683,2.7089681 0,0.1832206 -0.06011,0.49485 -0.211952,0.7187376 L 10.331808,6.0387233 z"
     id="path7"
     style="stroke:none;fill:#fefefe;fill-opacity:1" /></svg>