<?xml version="1.0" encoding="UTF-8"?>
<svg xmlns="http://www.w3.org/2000/svg" xmlns:xlink="http://www.w3.org/1999/xlink" width="12" height="12" viewBox="0 0 12 12" version="1.1">
<defs>
<filter id="alpha" filterUnits="objectBoundingBox" x="0%" y="0%" width="100%" height="100%">
  <feColorMatrix type="matrix" in="SourceGraphic" values="0 0 0 0 1 0 0 0 0 1 0 0 0 0 1 0 0 0 1 0"/>
</filter>
<mask id="mask0">
  <g filter="url(#alpha)">
<rect x="0" y="0" width="12" height="12" style="fill:rgb(0%,0%,0%);fill-opacity:0.372;stroke:none;"/>
  </g>
</mask>
<clipPath id="clip1">
  <rect x="0" y="0" width="12" height="12"/>
</clipPath>
<g id="surface5" clip-path="url(#clip1)">
<path style=" stroke:none;fill-rule:nonzero;fill:rgb(89.411765%,89.411765%,89.411765%);fill-opacity:1;" d="M 6.675781 0.769531 L 5.183594 0.78125 L 5.179688 0.78125 L 5.179688 0.785156 C 5.214844 0.785156 4.84375 0.859375 4.882812 0.84375 L 3.144531 1.570312 C 3.132812 1.574219 3.097656 1.578125 3.101562 1.578125 C 3.113281 1.574219 3.070312 1.589844 3.035156 1.605469 C 3.039062 1.601562 3.011719 1.617188 3.003906 1.617188 C 2.949219 1.644531 2.894531 1.667969 2.90625 1.660156 L 2.910156 1.667969 C 2.851562 1.695312 2.792969 1.726562 2.808594 1.714844 C 2.839844 1.695312 2.605469 1.925781 2.625 1.894531 C 2.648438 1.863281 2.5 2.160156 2.511719 2.121094 C 2.523438 2.085938 2.480469 2.378906 2.476562 2.363281 L 2.476562 3.238281 L 2.480469 3.238281 C 2.488281 3.246094 2.542969 3.570312 2.527344 3.527344 C 2.507812 3.480469 2.730469 3.828125 2.695312 3.792969 C 2.664062 3.757812 3 3.992188 2.957031 3.972656 C 2.910156 3.953125 3.316406 4.035156 3.265625 4.035156 C 3.21875 4.035156 3.621094 3.953125 3.574219 3.972656 C 3.53125 3.992188 3.871094 3.757812 3.835938 3.792969 C 3.800781 3.828125 4.023438 3.480469 4.003906 3.527344 C 3.988281 3.570312 4.042969 3.246094 4.050781 3.238281 L 4.058594 3.238281 L 4.058594 3.128906 L 4.308594 3.128906 L 4.171875 4.238281 L 1.667969 5.082031 L 1.671875 5.089844 C 1.585938 5.109375 1.5 5.125 1.523438 5.117188 C 1.566406 5.097656 1.234375 5.328125 1.269531 5.292969 C 1.300781 5.257812 1.082031 5.59375 1.101562 5.550781 C 1.117188 5.507812 1.050781 5.867188 1.046875 5.847656 L 1.042969 5.847656 L 1.042969 6.71875 C 1.042969 6.671875 1.125 7.066406 1.105469 7.023438 C 1.085938 6.976562 1.308594 7.3125 1.277344 7.277344 C 1.242188 7.246094 1.578125 7.46875 1.53125 7.449219 C 1.488281 7.433594 1.882812 7.511719 1.835938 7.511719 C 1.789062 7.511719 2.183594 7.433594 2.136719 7.449219 C 2.09375 7.46875 2.429688 7.246094 2.394531 7.277344 C 2.359375 7.3125 2.585938 6.976562 2.566406 7.023438 C 2.546875 7.066406 2.628906 6.671875 2.625 6.71875 L 2.625 6.636719 L 3.875 6.636719 L 3.433594 10.242188 C 3.433594 10.246094 3.433594 10.246094 3.433594 10.246094 C 3.4375 10.203125 3.46875 10.613281 3.457031 10.574219 C 3.445312 10.535156 3.628906 10.898438 3.605469 10.867188 C 3.578125 10.835938 3.890625 11.101562 3.855469 11.082031 C 3.820312 11.0625 4.207031 11.1875 4.167969 11.183594 C 4.125 11.179688 4.535156 11.148438 4.496094 11.160156 C 4.457031 11.171875 4.820312 10.988281 4.789062 11.011719 C 4.757812 11.035156 5.023438 10.726562 5.003906 10.761719 C 5 10.769531 5.015625 10.714844 5.027344 10.683594 L 6.003906 9.988281 L 7.019531 10.703125 C 7.027344 10.738281 7.046875 10.800781 7.039062 10.789062 C 7.019531 10.753906 7.285156 11.074219 7.253906 11.046875 C 7.222656 11.023438 7.59375 11.214844 7.550781 11.203125 C 7.511719 11.191406 7.929688 11.222656 7.886719 11.230469 C 7.847656 11.234375 8.242188 11.101562 8.207031 11.125 C 8.167969 11.144531 8.484375 10.867188 8.457031 10.902344 C 8.433594 10.933594 8.613281 10.558594 8.601562 10.597656 C 8.59375 10.636719 8.609375 10.289062 8.617188 10.28125 L 8.621094 10.28125 L 8.617188 10.261719 L 8.175781 6.636719 L 9.375 6.636719 L 9.375 6.738281 C 9.375 6.738281 9.417969 7.484375 10.160156 7.492188 C 10.902344 7.5 10.957031 6.738281 10.957031 6.738281 L 10.957031 5.921875 L 10.945312 5.921875 C 10.945312 5.863281 10.945312 5.851562 10.945312 5.8125 L 10.957031 5.808594 C 10.957031 5.816406 10.949219 5.78125 10.945312 5.777344 C 10.945312 5.773438 10.945312 5.738281 10.949219 5.742188 L 10.9375 5.746094 C 10.914062 5.667969 10.875 5.507812 10.886719 5.539062 C 10.90625 5.578125 10.703125 5.277344 10.730469 5.308594 C 10.761719 5.339844 10.464844 5.128906 10.503906 5.144531 C 10.519531 5.152344 10.453125 5.136719 10.402344 5.121094 L 10.40625 5.113281 C 10.414062 5.121094 10.359375 5.109375 10.332031 5.101562 C 10.28125 5.089844 10.21875 5.070312 10.234375 5.074219 L 7.890625 4.304688 L 7.746094 3.128906 L 7.902344 3.128906 L 7.902344 3.238281 L 7.90625 3.238281 C 7.917969 3.246094 7.96875 3.570312 7.953125 3.527344 C 7.9375 3.480469 8.15625 3.828125 8.125 3.792969 C 8.089844 3.757812 8.429688 3.992188 8.382812 3.972656 C 8.339844 3.953125 8.742188 4.035156 8.695312 4.035156 C 8.644531 4.035156 9.046875 3.953125 9.003906 3.972656 C 8.957031 3.992188 9.296875 3.757812 9.261719 3.792969 C 9.230469 3.828125 9.449219 3.480469 9.433594 3.527344 C 9.417969 3.570312 9.46875 3.246094 9.480469 3.238281 L 9.484375 3.238281 L 9.484375 2.433594 L 9.480469 2.433594 C 9.484375 2.378906 9.488281 2.320312 9.488281 2.335938 C 9.492188 2.363281 9.464844 2.238281 9.453125 2.167969 L 9.460938 2.167969 C 9.460938 2.167969 9.449219 2.148438 9.449219 2.148438 C 9.449219 2.136719 9.4375 2.101562 9.441406 2.109375 L 9.429688 2.113281 C 9.390625 2.046875 9.285156 1.835938 9.3125 1.867188 C 9.335938 1.894531 9.210938 1.796875 9.128906 1.726562 L 9.140625 1.710938 C 9.148438 1.71875 9.105469 1.695312 9.085938 1.6875 C 9.082031 1.679688 9.050781 1.652344 9.054688 1.65625 L 9.050781 1.667969 C 8.96875 1.628906 8.875 1.578125 8.902344 1.585938 C 8.910156 1.589844 8.859375 1.582031 8.828125 1.578125 L 6.980469 0.828125 C 6.980469 0.824219 6.980469 0.824219 6.980469 0.824219 C 7.023438 0.84375 6.632812 0.769531 6.675781 0.769531 Z M 6.035156 7.859375 L 6.242188 8.011719 L 6 8.183594 L 5.789062 8.035156 Z M 6.035156 7.859375 "/>
</g>
</defs>
<g id="surface1">
<use xlink:href="#surface5" mask="url(#mask0)"/>
<path style="fill:none;stroke-width:25.7327;stroke-linecap:round;stroke-linejoin:round;stroke:rgb(0%,0%,0%);stroke-opacity:1;stroke-miterlimit:4;" d="M 206.360677 500.136719 L 252.994792 120.455729 " transform="matrix(0.0206897,0,0,0.0206897,0,0)"/>
<path style="fill:none;stroke-width:25.7327;stroke-linecap:round;stroke-linejoin:round;stroke:rgb(0%,0%,0%);stroke-opacity:1;stroke-miterlimit:4;" d="M 376.09375 502.02474 L 329.459635 120.455729 " transform="matrix(0.0206897,0,0,0.0206897,0,0)"/>
<path style="fill:none;stroke-width:20.6688;stroke-linecap:round;stroke-linejoin:round;stroke:rgb(0%,0%,0%);stroke-opacity:1;stroke-miterlimit:4;" d="M 160.481771 113.092448 L 418.196615 113.092448 " transform="matrix(0.0206897,0,0,0.0206897,0,0)"/>
<path style="fill:none;stroke-width:20.6688;stroke-linecap:round;stroke-linejoin:round;stroke:rgb(0%,0%,0%);stroke-opacity:1;stroke-miterlimit:4;" d="M 161.425781 113.470052 L 250.729167 76.276042 L 323.040365 75.520833 L 419.895833 114.980469 " transform="matrix(0.0206897,0,0,0.0206897,0,0)"/>
<path style="fill:none;stroke-width:20.6688;stroke-linecap:round;stroke-linejoin:round;stroke:rgb(0%,0%,0%);stroke-opacity:1;stroke-miterlimit:4;" d="M 157.838542 114.414062 L 157.838542 156.516927 " transform="matrix(0.0206897,0,0,0.0206897,0,0)"/>
<path style="fill:none;stroke-width:20.6688;stroke-linecap:round;stroke-linejoin:round;stroke:rgb(0%,0%,0%);stroke-opacity:1;stroke-miterlimit:4;" d="M 420.084635 114.414062 L 420.084635 156.516927 " transform="matrix(0.0206897,0,0,0.0206897,0,0)"/>
<path style="fill:none;stroke-width:20.6688;stroke-linecap:round;stroke-linejoin:round;stroke:rgb(0%,0%,0%);stroke-opacity:1;stroke-miterlimit:4;" d="M 89.303385 282.636719 L 488.242188 282.636719 " transform="matrix(0.0206897,0,0,0.0206897,0,0)"/>
<path style="fill:none;stroke-width:20.6688;stroke-linecap:round;stroke-linejoin:round;stroke:rgb(0%,0%,0%);stroke-opacity:1;stroke-miterlimit:4;" d="M 90.813802 282.636719 L 229.016927 236.002604 L 340.976562 235.058594 L 491.074219 284.52474 " transform="matrix(0.0206897,0,0,0.0206897,0,0)"/>
<path style="fill:none;stroke-width:20.6688;stroke-linecap:round;stroke-linejoin:round;stroke:rgb(0%,0%,0%);stroke-opacity:1;stroke-miterlimit:4;" d="M 88.736979 282.636719 L 88.736979 324.928385 " transform="matrix(0.0206897,0,0,0.0206897,0,0)"/>
<path style="fill:none;stroke-width:20.6688;stroke-linecap:round;stroke-linejoin:round;stroke:rgb(0%,0%,0%);stroke-opacity:1;stroke-miterlimit:4;" d="M 491.263021 283.580729 L 491.263021 325.683594 " transform="matrix(0.0206897,0,0,0.0206897,0,0)"/>
<path style="fill:none;stroke-width:15.5016;stroke-linecap:round;stroke-linejoin:round;stroke:rgb(0%,0%,0%);stroke-opacity:1;stroke-miterlimit:4;" d="M 208.059896 497.49349 L 362.5 387.610677 L 220.709635 283.769531 " transform="matrix(0.0206897,0,0,0.0206897,0,0)"/>
<path style="fill:none;stroke-width:15.5016;stroke-linecap:butt;stroke-linejoin:round;stroke:rgb(0%,0%,0%);stroke-opacity:1;stroke-miterlimit:4;" d="M 372.884115 497.49349 L 218.44401 388.932292 L 360.423177 286.223958 " transform="matrix(0.0206897,0,0,0.0206897,0,0)"/>
<path style="fill:none;stroke-width:15.5016;stroke-linecap:butt;stroke-linejoin:miter;stroke:rgb(0%,0%,0%);stroke-opacity:1;stroke-miterlimit:4;" d="M 237.701823 283.391927 L 335.690104 196.354167 L 258.470052 120.455729 " transform="matrix(0.0206897,0,0,0.0206897,0,0)"/>
<path style="fill:none;stroke-width:15.5016;stroke-linecap:butt;stroke-linejoin:miter;stroke:rgb(0%,0%,0%);stroke-opacity:1;stroke-miterlimit:4;" d="M 345.130208 283.203125 L 247.330729 195.976562 L 324.550781 120.078125 " transform="matrix(0.0206897,0,0,0.0206897,0,0)"/>
</g>
</svg>
