<?xml version="1.0" encoding="UTF-8"?>
<svg xmlns="http://www.w3.org/2000/svg" xmlns:xlink="http://www.w3.org/1999/xlink" width="24" height="24" viewBox="0 0 24 24">
<defs>
<filter id="filter-remove-color" x="0%" y="0%" width="100%" height="100%">
<feColorMatrix color-interpolation-filters="sRGB" values="0 0 0 0 1 0 0 0 0 1 0 0 0 0 1 0 0 0 1 0" />
</filter>
<mask id="mask-0">
<g filter="url(#filter-remove-color)">
<rect x="-2.4" y="-2.4" width="28.8" height="28.8" fill="rgb(0%, 0%, 0%)" fill-opacity="0.426087"/>
</g>
</mask>
<clipPath id="clip-0">
<rect x="0" y="0" width="24" height="24"/>
</clipPath>
<g id="source-6" clip-path="url(#clip-0)">
<path fill-rule="nonzero" fill="rgb(67.45098%, 84.705882%, 95.294118%)" fill-opacity="1" d="M 12.019531 2.796875 C 11.820312 2.800781 11.617188 2.871094 11.457031 2.992188 C 11.292969 3.113281 11.167969 3.285156 11.105469 3.476562 L 9.414062 8.519531 L 4.09375 8.46875 C 3.882812 8.46875 3.671875 8.535156 3.5 8.65625 C 3.332031 8.777344 3.199219 8.953125 3.132812 9.152344 C 3.066406 9.351562 3.0625 9.570312 3.128906 9.773438 C 3.191406 9.972656 3.316406 10.152344 3.484375 10.277344 L 7.761719 13.441406 L 6.066406 18.488281 C 6 18.6875 5.996094 18.90625 6.058594 19.105469 C 6.125 19.304688 6.25 19.484375 6.417969 19.609375 C 6.589844 19.734375 6.796875 19.804688 7.007812 19.808594 C 7.214844 19.808594 7.425781 19.742188 7.597656 19.621094 L 11.933594 16.535156 L 16.203125 19.703125 C 16.375 19.828125 16.582031 19.898438 16.792969 19.902344 C 17 19.902344 17.210938 19.835938 17.382812 19.714844 C 17.550781 19.59375 17.683594 19.417969 17.75 19.21875 C 17.816406 19.019531 17.820312 18.800781 17.757812 18.601562 L 16.164062 13.527344 L 20.496094 10.441406 C 20.667969 10.316406 20.800781 10.140625 20.867188 9.941406 C 20.933594 9.742188 20.9375 9.523438 20.871094 9.324219 C 20.808594 9.121094 20.683594 8.945312 20.515625 8.820312 C 20.34375 8.695312 20.136719 8.625 19.925781 8.621094 L 14.605469 8.570312 L 13.011719 3.496094 C 12.945312 3.289062 12.8125 3.105469 12.632812 2.980469 C 12.457031 2.851562 12.238281 2.789062 12.019531 2.796875 Z M 12.003906 10.648438 C 12.792969 10.648438 13.398438 11.253906 13.398438 12.042969 C 13.398438 12.828125 12.792969 13.433594 12.003906 13.433594 C 11.21875 13.433594 10.613281 12.828125 10.613281 12.042969 C 10.613281 11.253906 11.21875 10.648438 12.003906 10.648438 Z M 12.003906 10.648438 "/>
</g>
</defs>
<g mask="url(#mask-0)">
<use xlink:href="#source-6"/>
</g>
<path fill-rule="nonzero" fill="rgb(0%, 0%, 0%)" fill-opacity="1" d="M 12.046875 4.738281 L 10.363281 9.757812 L 5.070312 9.707031 L 9.324219 12.855469 L 7.636719 17.875 L 11.949219 14.804688 L 16.203125 17.960938 L 14.617188 12.910156 L 18.929688 9.839844 L 13.636719 9.789062 Z M 12 9.949219 C 13.144531 9.949219 14.074219 10.878906 14.074219 12.023438 C 14.074219 13.167969 13.144531 14.097656 12 14.097656 C 10.855469 14.097656 9.925781 13.167969 9.925781 12.023438 C 9.925781 10.878906 10.855469 9.949219 12 9.949219 Z M 12 9.949219 "/>
</svg>
