<?xml version="1.0" encoding="UTF-8"?>
<svg xmlns="http://www.w3.org/2000/svg" xmlns:xlink="http://www.w3.org/1999/xlink" width="24" height="24" viewBox="0 0 24 24">
<defs>
<filter id="filter-remove-color" x="0%" y="0%" width="100%" height="100%">
<feColorMatrix color-interpolation-filters="sRGB" values="0 0 0 0 1 0 0 0 0 1 0 0 0 0 1 0 0 0 1 0" />
</filter>
<mask id="mask-0">
<g filter="url(#filter-remove-color)">
<rect x="-2.4" y="-2.4" width="28.8" height="28.8" fill="rgb(0%, 0%, 0%)" fill-opacity="0.426087"/>
</g>
</mask>
<clipPath id="clip-0">
<path clip-rule="nonzero" d="M 7 8 L 17 8 L 17 24 L 7 24 Z M 7 8 "/>
</clipPath>
<clipPath id="clip-1">
<rect x="0" y="0" width="24" height="24"/>
</clipPath>
<g id="source-7" clip-path="url(#clip-1)">
<g clip-path="url(#clip-0)">
<path fill-rule="nonzero" fill="rgb(67.45098%, 84.705882%, 95.294118%)" fill-opacity="1" d="M 9.390625 8.207031 C 9.445312 8.207031 8.867188 8.324219 8.917969 8.300781 C 8.96875 8.28125 8.476562 8.609375 8.515625 8.570312 C 8.554688 8.53125 8.226562 9.023438 8.246094 8.972656 C 8.265625 8.921875 8.152344 9.5 8.152344 9.449219 L 8.152344 20.027344 L 7.847656 20.027344 C 7.628906 20.027344 7.414062 20.117188 7.261719 20.269531 C 7.109375 20.421875 7.019531 20.636719 7.019531 20.855469 L 7.019531 21.890625 C 7.019531 22.105469 7.109375 22.320312 7.261719 22.476562 C 7.414062 22.628906 7.628906 22.71875 7.847656 22.71875 L 9.460938 22.71875 C 9.921875 23.488281 10.761719 24.007812 11.71875 24.007812 C 12.675781 24.007812 13.515625 23.488281 13.976562 22.71875 L 15.589844 22.71875 C 15.804688 22.71875 16.023438 22.628906 16.175781 22.476562 C 16.328125 22.320312 16.417969 22.105469 16.417969 21.890625 L 16.417969 20.855469 C 16.417969 20.636719 16.328125 20.421875 16.175781 20.269531 C 16.023438 20.117188 15.804688 20.027344 15.589844 20.027344 L 15.285156 20.027344 L 15.285156 9.449219 C 15.285156 9.5 15.167969 8.921875 15.191406 8.972656 C 15.210938 9.023438 14.882812 8.53125 14.921875 8.570312 C 14.960938 8.609375 14.46875 8.28125 14.519531 8.300781 C 14.570312 8.324219 13.992188 8.207031 14.042969 8.207031 Z M 9.390625 8.207031 "/>
</g>
</g>
<mask id="mask-1">
<g filter="url(#filter-remove-color)">
<rect x="-2.4" y="-2.4" width="28.8" height="28.8" fill="rgb(0%, 0%, 0%)" fill-opacity="0.772"/>
</g>
</mask>
<clipPath id="clip-2">
<rect x="0" y="0" width="24" height="24"/>
</clipPath>
<g id="source-14" clip-path="url(#clip-2)">
<path fill="none" stroke-width="20" stroke-linecap="butt" stroke-linejoin="round" stroke="rgb(0%, 0%, 0%)" stroke-opacity="1" stroke-miterlimit="4" d="M 226.940104 512.314453 L 226.940104 229.488932 L 339.371745 229.488932 L 339.371745 514.76888 " transform="matrix(0.0413793, 0, 0, 0.0413793, 0, 0)"/>
</g>
</defs>
<g mask="url(#mask-0)">
<use xlink:href="#source-7"/>
</g>
<path fill-rule="nonzero" fill="rgb(74.117647%, 74.117647%, 74.117647%)" fill-opacity="1" d="M 13.644531 9.804688 L 9.789062 9.804688 L 9.789062 21.226562 L 13.644531 21.226562 Z M 13.644531 9.804688 "/>
<path fill="none" stroke-width="25" stroke-linecap="butt" stroke-linejoin="miter" stroke="rgb(0%, 0%, 0%)" stroke-opacity="1" stroke-miterlimit="4" d="M 189.651693 516.5625 L 376.754557 516.5625 " transform="matrix(0.0413793, 0, 0, 0.0413793, 0, 0)"/>
<path fill-rule="nonzero" fill="rgb(99.607843%, 99.607843%, 99.607843%)" fill-opacity="1" stroke-width="20.5723" stroke-linecap="round" stroke-linejoin="round" stroke="rgb(0%, 0%, 0%)" stroke-opacity="1" stroke-miterlimit="10" d="M 316.809896 516.373698 C 316.809896 525.341797 313.222656 533.837891 306.992188 540.16276 C 300.667318 546.48763 292.076823 549.980469 283.203125 549.980469 C 274.329427 549.980469 265.738932 546.48763 259.414062 540.16276 C 253.089193 533.837891 249.596354 525.341797 249.596354 516.373698 C 249.596354 507.5 253.089193 498.909505 259.414062 492.679036 C 265.738932 486.354167 274.329427 482.766927 283.203125 482.766927 C 292.076823 482.766927 300.667318 486.354167 306.992188 492.679036 C 313.222656 498.909505 316.809896 507.5 316.809896 516.373698 Z M 316.809896 516.373698 " transform="matrix(0.0413793, 0, 0, 0.0413793, 0, 0)"/>
<g mask="url(#mask-1)">
<use xlink:href="#source-14"/>
</g>
</svg>
