<?xml version="1.0" encoding="UTF-8"?>
<svg xmlns="http://www.w3.org/2000/svg" xmlns:xlink="http://www.w3.org/1999/xlink" width="24" height="24" viewBox="0 0 24 24">
<defs>
<filter id="filter-remove-color" x="0%" y="0%" width="100%" height="100%">
<feColorMatrix color-interpolation-filters="sRGB" values="0 0 0 0 1 0 0 0 0 1 0 0 0 0 1 0 0 0 1 0" />
</filter>
<mask id="mask-0">
<g filter="url(#filter-remove-color)">
<rect x="-2.4" y="-2.4" width="28.8" height="28.8" fill="rgb(0%, 0%, 0%)" fill-opacity="0.426087"/>
</g>
</mask>
<clipPath id="clip-0">
<path clip-rule="nonzero" d="M 6 8 L 17 8 L 17 24 L 6 24 Z M 6 8 "/>
</clipPath>
<clipPath id="clip-1">
<rect x="0" y="0" width="24" height="24"/>
</clipPath>
<g id="source-7" clip-path="url(#clip-1)">
<g clip-path="url(#clip-0)">
<path fill-rule="nonzero" fill="rgb(55.294118%, 55.294118%, 55.294118%)" fill-opacity="1" d="M 10.789062 8.753906 C 10.550781 8.753906 10.324219 8.851562 10.15625 9.019531 C 9.988281 9.1875 9.890625 9.414062 9.890625 9.652344 L 9.890625 19.339844 C 9.703125 19.511719 9.539062 19.710938 9.402344 19.933594 L 7.847656 19.933594 C 7.609375 19.933594 7.382812 20.027344 7.210938 20.195312 C 7.042969 20.363281 6.949219 20.59375 6.949219 20.832031 L 6.949219 21.867188 C 6.949219 22.105469 7.042969 22.332031 7.210938 22.5 C 7.382812 22.671875 7.609375 22.765625 7.847656 22.765625 L 9.417969 22.765625 C 9.898438 23.539062 10.75 24.058594 11.71875 24.058594 C 12.6875 24.058594 13.539062 23.539062 14.019531 22.765625 L 15.589844 22.765625 C 15.828125 22.765625 16.054688 22.671875 16.226562 22.5 C 16.394531 22.332031 16.488281 22.105469 16.488281 21.867188 L 16.488281 20.832031 C 16.488281 20.59375 16.394531 20.363281 16.226562 20.195312 C 16.054688 20.027344 15.828125 19.933594 15.589844 19.933594 L 14.035156 19.933594 C 13.890625 19.703125 13.71875 19.492188 13.515625 19.3125 L 13.515625 9.652344 C 13.515625 9.414062 13.421875 9.1875 13.253906 9.019531 C 13.082031 8.851562 12.855469 8.753906 12.617188 8.753906 Z M 10.789062 8.753906 "/>
</g>
</g>
</defs>
<g mask="url(#mask-0)">
<use xlink:href="#source-7"/>
</g>
<path fill="none" stroke-width="25" stroke-linecap="butt" stroke-linejoin="miter" stroke="rgb(0%, 0%, 0%)" stroke-opacity="1" stroke-miterlimit="4" d="M 189.651693 516.5625 L 376.754557 516.5625 " transform="matrix(0.0413793, 0, 0, 0.0413793, 0, 0)"/>
<path fill-rule="nonzero" fill="rgb(100%, 83.137255%, 0%)" fill-opacity="1" d="M 12.617188 15.210938 L 10.789062 15.210938 L 10.789062 20.34375 L 12.617188 20.34375 Z M 12.617188 15.210938 "/>
<path fill-rule="nonzero" fill="rgb(99.607843%, 99.607843%, 99.607843%)" fill-opacity="1" stroke-width="20.5723" stroke-linecap="round" stroke-linejoin="round" stroke="rgb(0%, 0%, 0%)" stroke-opacity="1" stroke-miterlimit="10" d="M 316.809896 516.373698 C 316.809896 525.341797 313.222656 533.837891 306.992188 540.16276 C 300.667318 546.48763 292.076823 549.980469 283.203125 549.980469 C 274.329427 549.980469 265.738932 546.48763 259.414062 540.16276 C 253.089193 533.837891 249.596354 525.341797 249.596354 516.373698 C 249.596354 507.5 253.089193 498.909505 259.414062 492.679036 C 265.738932 486.354167 274.329427 482.766927 283.203125 482.766927 C 292.076823 482.766927 300.667318 486.354167 306.992188 492.679036 C 313.222656 498.909505 316.809896 507.5 316.809896 516.373698 Z M 316.809896 516.373698 " transform="matrix(0.0413793, 0, 0, 0.0413793, 0, 0)"/>
<path fill-rule="nonzero" fill="rgb(0%, 0%, 0%)" fill-opacity="1" d="M 12.617188 9.679688 L 10.789062 9.679688 L 10.789062 12.449219 L 12.617188 12.449219 Z M 12.617188 9.679688 "/>
<path fill-rule="nonzero" fill="rgb(0%, 0%, 0%)" fill-opacity="1" d="M 12.617188 12.394531 L 10.789062 12.394531 L 10.789062 15.210938 L 12.617188 15.210938 Z M 12.617188 12.394531 "/>
</svg>
