<?xml version="1.0" encoding="UTF-8"?>
<svg xmlns="http://www.w3.org/2000/svg" xmlns:xlink="http://www.w3.org/1999/xlink" width="64" height="64" viewBox="0 0 64 64">
<path fill-rule="nonzero" fill="rgb(38.039216%, 38.039216%, 38.039216%)" fill-opacity="1" d="M 43.386719 7.75 L 40.378906 13.847656 C 40.929688 14.089844 41.472656 14.363281 42 14.652344 L 45 8.570312 C 44.839844 7.414062 44.1875 7.410156 43.386719 7.75 Z M 43.386719 7.75 "/>
<path fill-rule="nonzero" fill="rgb(38.039216%, 38.039216%, 38.039216%)" fill-opacity="1" d="M 58.03125 24.113281 C 58.546875 23.378906 58.238281 22.558594 57.425781 22.460938 L 51.082031 24.796875 C 51.3125 25.351562 51.703125 26.496094 51.703125 26.496094 C 51.703125 26.496094 53.351562 25.890625 58.03125 24.113281 Z M 58.03125 24.113281 "/>
<path fill-rule="nonzero" fill="rgb(38.039216%, 38.039216%, 38.039216%)" fill-opacity="1" d="M 49.269531 11.433594 L 44.851562 16.554688 C 45.324219 16.929688 45.78125 17.328125 46.21875 17.742188 L 50.640625 12.621094 C 50.652344 11.667969 50.195312 11.273438 49.269531 11.433594 Z M 49.269531 11.433594 "/>
<path fill-rule="nonzero" fill="rgb(38.039216%, 38.039216%, 38.039216%)" fill-opacity="1" d="M 54.085938 16.476562 L 48.515625 20.316406 C 48.878906 20.800781 49.222656 21.296875 49.542969 21.808594 L 55.109375 17.972656 C 55.46875 16.710938 54.78125 16.589844 54.085938 16.476562 Z M 54.085938 16.476562 "/>
<path fill-rule="nonzero" fill="rgb(16.078431%, 16.078431%, 16.078431%)" fill-opacity="1" d="M 40.378906 13.847656 C 46.152344 16.628906 49.808594 20.765625 51.703125 26.496094 C 52.75 26.101562 52.507812 26.195312 53.351562 25.890625 C 51.414062 19.792969 46.925781 14.867188 41.144531 12.289062 C 40.828125 12.933594 40.621094 13.277344 40.378906 13.847656 Z M 40.378906 13.847656 "/>
</svg>
