<?xml version="1.0" encoding="UTF-8"?>
<svg xmlns="http://www.w3.org/2000/svg" xmlns:xlink="http://www.w3.org/1999/xlink" width="12" height="12" viewBox="0 0 12 12" version="1.1">
<defs>
<filter id="alpha" filterUnits="objectBoundingBox" x="0%" y="0%" width="100%" height="100%">
  <feColorMatrix type="matrix" in="SourceGraphic" values="0 0 0 0 1 0 0 0 0 1 0 0 0 0 1 0 0 0 1 0"/>
</filter>
<mask id="mask0">
  <g filter="url(#alpha)">
<rect x="0" y="0" width="12" height="12" style="fill:rgb(0%,0%,0%);fill-opacity:0.561265;stroke:none;"/>
  </g>
</mask>
<clipPath id="clip1">
  <rect x="0" y="0" width="12" height="12"/>
</clipPath>
<g id="surface5" clip-path="url(#clip1)">
<path style=" stroke:none;fill-rule:nonzero;fill:rgb(99.607843%,99.607843%,99.607843%);fill-opacity:1;" d="M 6 4.5 C 5.175781 4.5 4.5 5.175781 4.5 6 C 4.5 6.824219 5.175781 7.5 6 7.5 C 6.824219 7.5 7.5 6.824219 7.5 6 C 7.5 5.175781 6.824219 4.5 6 4.5 Z M 6 4.5 "/>
</g>
</defs>
<g id="surface1">
<use xlink:href="#surface5" mask="url(#mask0)"/>
<path style=" stroke:none;fill-rule:nonzero;fill:rgb(97.254902%,0%,87.843138%);fill-opacity:1;" d="M 6.75 6 C 6.75 6.199219 6.671875 6.390625 6.53125 6.53125 C 6.390625 6.671875 6.199219 6.75 6 6.75 C 5.800781 6.75 5.609375 6.671875 5.46875 6.53125 C 5.328125 6.390625 5.25 6.199219 5.25 6 C 5.25 5.800781 5.328125 5.609375 5.46875 5.46875 C 5.609375 5.328125 5.800781 5.25 6 5.25 C 6.199219 5.25 6.390625 5.328125 6.53125 5.46875 C 6.671875 5.609375 6.75 5.800781 6.75 6 Z M 6.75 6 "/>
</g>
</svg>
