<?xml version="1.0" encoding="UTF-8"?>
<svg xmlns="http://www.w3.org/2000/svg" xmlns:xlink="http://www.w3.org/1999/xlink" width="12" height="12" viewBox="0 0 12 12" version="1.1">
<g id="surface1">
<path style=" stroke:none;fill-rule:nonzero;fill:rgb(99.607843%,99.607843%,99.607843%);fill-opacity:1;" d="M 5.953125 2.671875 C 3.992188 2.671875 2.398438 4.136719 2.257812 5.984375 C 2.191406 5.960938 2.128906 5.9375 2.058594 5.914062 C 1.976562 5.882812 1.886719 5.886719 1.808594 5.917969 C 1.730469 5.953125 1.664062 6.011719 1.628906 6.089844 L 1.535156 6.285156 C 1.496094 6.363281 1.488281 6.453125 1.511719 6.535156 C 1.535156 6.617188 1.589844 6.6875 1.664062 6.730469 L 5.773438 9.273438 C 5.828125 9.308594 5.894531 9.328125 5.957031 9.328125 C 6.019531 9.328125 6.082031 9.308594 6.136719 9.273438 L 10.335938 6.703125 C 10.410156 6.65625 10.460938 6.585938 10.488281 6.503906 C 10.511719 6.421875 10.503906 6.335938 10.46875 6.257812 L 10.371094 6.058594 C 10.351562 6.015625 10.324219 5.980469 10.289062 5.949219 C 10.253906 5.917969 10.214844 5.894531 10.167969 5.878906 C 10.125 5.863281 10.078125 5.859375 10.03125 5.863281 C 9.984375 5.867188 9.941406 5.878906 9.898438 5.902344 C 9.816406 5.945312 9.742188 5.976562 9.660156 6.015625 C 9.535156 4.152344 7.929688 2.671875 5.953125 2.671875 Z M 5.953125 2.671875 "/>
<path style=" stroke:none;fill-rule:nonzero;fill:rgb(99.607843%,99.607843%,99.607843%);fill-opacity:1;" d="M 5.953125 3.179688 C 4.136719 3.179688 2.660156 4.496094 2.660156 6.117188 C 2.660156 6.3125 2.683594 6.507812 2.730469 6.703125 L 6.035156 7.789062 L 9.183594 6.675781 C 9.226562 6.492188 9.246094 6.304688 9.246094 6.117188 C 9.246094 4.496094 7.773438 3.179688 5.953125 3.179688 Z M 5.953125 3.179688 "/>
<path style=" stroke:none;fill-rule:nonzero;fill:rgb(42.352942%,66.666669%,89.411765%);fill-opacity:1;" d="M 6.007812 3.488281 C 4.085938 3.488281 3.023438 5.320312 3.464844 6.832031 L 6.078125 7.789062 L 8.550781 6.773438 C 8.949219 5.101562 7.929688 3.488281 6.007812 3.488281 Z M 6.007812 3.488281 "/>
<path style=" stroke:none;fill-rule:nonzero;fill:rgb(23.529412%,53.333336%,81.176472%);fill-opacity:1;" d="M 6 3.019531 C 4.121094 3.019531 2.597656 4.457031 2.597656 6.230469 C 2.597656 6.359375 2.617188 6.46875 2.636719 6.5625 C 2.746094 6.601562 2.835938 6.636719 2.972656 6.683594 C 2.945312 6.519531 2.90625 6.402344 2.90625 6.230469 C 2.90625 4.617188 4.289062 3.3125 6 3.3125 C 7.710938 3.3125 9.09375 4.617188 9.09375 6.230469 C 9.09375 6.390625 9.0625 6.511719 9.035156 6.667969 L 9.375 6.539062 C 9.390625 6.425781 9.402344 6.347656 9.402344 6.230469 C 9.402344 4.457031 7.878906 3.019531 6 3.019531 Z M 6 3.019531 "/>
<path style="fill-rule:evenodd;fill:rgb(16.470589%,13.725491%,27.843139%);fill-opacity:1;stroke-width:0.29379;stroke-linecap:square;stroke-linejoin:miter;stroke:rgb(23.529412%,53.333336%,81.176472%);stroke-opacity:1;stroke-miterlimit:4;" d="M 2.536458 8.458333 L 7.942708 11.802083 L 13.463542 8.416667 L 7.9375 10.385417 Z M 2.536458 8.458333 " transform="matrix(0.75,0,0,0.75,0,0)"/>
<path style=" stroke:none;fill-rule:evenodd;fill:rgb(83.137256%,80.392158%,34.509805%);fill-opacity:1;" d="M 5.519531 6.578125 C 5.332031 6.585938 5.128906 6.804688 5.042969 6.867188 C 4.957031 6.929688 4.832031 6.882812 4.75 6.84375 C 4.671875 6.804688 4.648438 6.695312 4.648438 6.695312 C 4.648438 6.695312 4.546875 6.621094 4.4375 6.664062 C 4.328125 6.703125 4.324219 6.789062 4.378906 6.90625 C 4.421875 7 4.519531 6.953125 4.605469 6.964844 C 4.835938 7.105469 4.96875 7.089844 5.105469 7.042969 C 5.242188 7 5.324219 6.8125 5.519531 6.773438 C 5.667969 6.742188 5.890625 6.917969 5.859375 6.980469 C 5.824219 7.042969 5.632812 6.917969 5.539062 6.972656 C 5.417969 7.042969 5.320312 7.203125 5.386719 7.285156 C 5.457031 7.367188 5.515625 7.238281 5.664062 7.152344 C 5.851562 7.003906 6 7.355469 6 7.355469 L 6 7.351562 L 6 7.355469 C 6 7.355469 6.132812 7.125 6.335938 7.152344 C 6.507812 7.175781 6.542969 7.367188 6.613281 7.285156 C 6.679688 7.203125 6.582031 7.042969 6.460938 6.972656 C 6.367188 6.917969 6.175781 7.042969 6.140625 6.980469 C 6.109375 6.917969 6.332031 6.742188 6.480469 6.773438 C 6.675781 6.8125 6.757812 7 6.894531 7.042969 C 7.03125 7.089844 7.164062 7.105469 7.394531 6.964844 C 7.480469 6.953125 7.578125 7 7.621094 6.90625 C 7.675781 6.789062 7.671875 6.703125 7.5625 6.664062 C 7.453125 6.621094 7.351562 6.695312 7.351562 6.695312 C 7.351562 6.695312 7.328125 6.804688 7.25 6.84375 C 7.167969 6.882812 7.042969 6.929688 6.957031 6.867188 C 6.871094 6.804688 6.667969 6.585938 6.480469 6.578125 C 6.3125 6.574219 6.199219 6.625 6 6.789062 C 5.800781 6.625 5.6875 6.574219 5.519531 6.578125 Z M 5.519531 6.578125 "/>
<path style=" stroke:none;fill-rule:evenodd;fill:rgb(100%,5.098039%,0%);fill-opacity:1;" d="M 5.371094 3.746094 L 3.808594 6.472656 L 4.890625 6.472656 L 5.394531 5.472656 L 5.996094 6.371094 L 6.648438 5.472656 L 7.273438 6.472656 L 8.179688 6.472656 L 8.191406 6.460938 L 6.695312 3.757812 L 6 4.882812 Z M 5.371094 3.746094 "/>
</g>
</svg>
