<?xml version="1.0" encoding="UTF-8"?>
<svg xmlns="http://www.w3.org/2000/svg" xmlns:xlink="http://www.w3.org/1999/xlink" width="12" height="12" viewBox="0 0 12 12" version="1.1">
<g id="surface1">
<path style=" stroke:none;fill-rule:nonzero;fill:rgb(0%,0%,0%);fill-opacity:1;" d="M 6.316406 5.804688 L 4.90625 5.753906 L 5.613281 4.527344 L 5.832031 4.917969 C 5.832031 4.917969 6.953125 4.308594 8.074219 5.425781 C 8.917969 6.265625 8.753906 8.207031 6 8.0625 C 5.8125 7.8125 5.816406 7.800781 5.652344 7.53125 C 8.074219 7.738281 8.3125 6.523438 7.785156 5.875 C 6.964844 4.867188 6.097656 5.402344 6.097656 5.402344 Z M 6.316406 5.804688 "/>
<path style=" stroke:none;fill-rule:nonzero;fill:rgb(0%,0%,0%);fill-opacity:1;" d="M 6.71875 4.597656 L 7.972656 3.953125 L 6.8125 3.144531 L 6.78125 3.589844 C 6.78125 3.589844 5.550781 3.390625 4.59375 4 C 3.042969 4.984375 2.707031 8.460938 6.226562 8.855469 C 6.316406 8.617188 6.316406 8.628906 6.441406 8.355469 C 3.589844 8.234375 3.53125 5.414062 4.824219 4.480469 C 5.527344 3.976562 6.746094 4.140625 6.746094 4.140625 L 6.71875 4.597656 "/>
</g>
</svg>
