<?xml version="1.0" encoding="UTF-8"?>
<svg xmlns="http://www.w3.org/2000/svg" xmlns:xlink="http://www.w3.org/1999/xlink" width="12" height="12" viewBox="0 0 12 12" version="1.1">
<g id="surface1">
<path style=" stroke:none;fill-rule:nonzero;fill:rgb(57.647061%,0%,57.647061%);fill-opacity:1;" d="M 9.210938 5.175781 C 9.363281 5.175781 9.484375 5.050781 9.484375 4.902344 C 9.484375 4.75 9.363281 4.625 9.210938 4.625 C 9.0625 4.625 8.9375 4.75 8.9375 4.902344 C 8.9375 5.050781 9.0625 5.175781 9.210938 5.175781 Z M 9.210938 5.175781 "/>
<path style=" stroke:none;fill-rule:nonzero;fill:rgb(57.647061%,0%,57.647061%);fill-opacity:1;" d="M 9.484375 5.394531 L 8.9375 5.394531 L 8.9375 6.492188 L 9.484375 6.492188 Z M 9.484375 5.394531 "/>
<path style="fill:none;stroke-width:19.8444;stroke-linecap:butt;stroke-linejoin:miter;stroke:rgb(57.647061%,0%,57.647061%);stroke-opacity:1;stroke-miterlimit:4;" d="M 779.817708 564.505208 L 779.817708 495.494792 C 779.817708 484.453125 788.789063 475.826823 799.140625 475.826823 L 828.125 475.826823 C 838.821615 475.826823 847.447917 484.453125 847.447917 495.494792 L 847.447917 564.505208 " transform="matrix(0.0113208,0,0,0.0113208,0,0)"/>
<path style="fill:none;stroke-width:20.089001;stroke-linecap:butt;stroke-linejoin:miter;stroke:rgb(57.647061%,0%,57.647061%);stroke-opacity:1;stroke-miterlimit:4;" d="M 799.140625 641.106771 L 799.140625 554.153646 " transform="matrix(0.0113208,0,0,0.0113208,0,0)"/>
<path style="fill:none;stroke-width:20.089001;stroke-linecap:butt;stroke-linejoin:miter;stroke:rgb(57.647061%,0%,57.647061%);stroke-opacity:1;stroke-miterlimit:4;" d="M 828.125 641.106771 L 828.125 554.153646 " transform="matrix(0.0113208,0,0,0.0113208,0,0)"/>
<path style=" stroke:none;fill-rule:nonzero;fill:rgb(57.647061%,0%,57.647061%);fill-opacity:1;" d="M 10.636719 5.175781 C 10.789062 5.175781 10.914062 5.050781 10.914062 4.902344 C 10.914062 4.75 10.789062 4.625 10.636719 4.625 C 10.488281 4.625 10.363281 4.75 10.363281 4.902344 C 10.363281 5.050781 10.488281 5.175781 10.636719 5.175781 Z M 10.636719 5.175781 "/>
<path style=" stroke:none;fill-rule:nonzero;fill:rgb(57.647061%,0%,57.647061%);fill-opacity:1;" d="M 10.429688 5.394531 L 10.847656 5.394531 L 11.132812 6.601562 L 10.144531 6.601562 Z M 10.429688 5.394531 "/>
<path style="fill:none;stroke-width:17.9202;stroke-linecap:butt;stroke-linejoin:miter;stroke:rgb(57.647061%,0%,57.647061%);stroke-opacity:1;stroke-miterlimit:4;" d="M 883.333333 564.85026 L 909.902344 488.248698 C 913.007813 480.3125 920.253906 475.481771 928.535156 475.481771 L 950.963542 475.481771 C 959.244792 475.481771 967.526042 480.3125 969.596354 488.248698 L 996.165365 564.85026 " transform="matrix(0.0113208,0,0,0.0113208,0,0)"/>
<path style="fill:none;stroke-width:20.089001;stroke-linecap:butt;stroke-linejoin:miter;stroke:rgb(57.647061%,0%,57.647061%);stroke-opacity:1;stroke-miterlimit:4;" d="M 925.084635 641.106771 L 925.084635 554.153646 " transform="matrix(0.0113208,0,0,0.0113208,0,0)"/>
<path style="fill:none;stroke-width:20.089001;stroke-linecap:butt;stroke-linejoin:miter;stroke:rgb(57.647061%,0%,57.647061%);stroke-opacity:1;stroke-miterlimit:4;" d="M 954.06901 641.106771 L 954.06901 554.153646 " transform="matrix(0.0113208,0,0,0.0113208,0,0)"/>
</g>
</svg>
