<?xml version="1.0" encoding="UTF-8"?>
<svg xmlns="http://www.w3.org/2000/svg" xmlns:xlink="http://www.w3.org/1999/xlink" width="24" height="24" viewBox="0 0 24 24">
<path fill-rule="nonzero" fill="rgb(0%, 0%, 0%)" fill-opacity="1" d="M 10.480469 9.574219 C 10.730469 9.570312 10.945312 9.484375 11.121094 9.3125 C 11.292969 9.140625 11.378906 8.925781 11.375 8.675781 C 11.378906 8.433594 11.292969 8.222656 11.121094 8.042969 C 10.949219 7.863281 10.738281 7.777344 10.488281 7.78125 C 10.234375 7.777344 10.023438 7.863281 9.847656 8.039062 C 9.671875 8.214844 9.589844 8.425781 9.59375 8.667969 C 9.589844 8.921875 9.671875 9.132812 9.84375 9.308594 C 10.015625 9.480469 10.226562 9.570312 10.480469 9.574219 Z M 14.070312 10.554688 L 12.101562 9.835938 C 11.921875 9.742188 11.78125 9.789062 11.679688 9.972656 C 11.621094 10.097656 11.636719 10.210938 11.730469 10.316406 L 12.667969 11.015625 L 12.324219 11.75 L 10.832031 12.441406 L 10.984375 11.738281 L 11.804688 11.472656 C 12.054688 11.375 12.148438 11.203125 12.085938 10.960938 C 12.058594 10.847656 11.984375 10.761719 11.867188 10.699219 C 11.75 10.636719 11.636719 10.628906 11.527344 10.671875 L 10.964844 10.808594 L 10.929688 10.644531 C 10.929688 10.402344 10.84375 10.191406 10.667969 10.011719 C 10.492188 9.832031 10.285156 9.746094 10.039062 9.75 C 9.789062 9.746094 9.574219 9.832031 9.402344 10.007812 C 9.226562 10.183594 9.136719 10.394531 9.132812 10.636719 L 9.113281 12.949219 C 9.21875 13.21875 9.144531 13.144531 9.144531 13.144531 L 6.726562 14.226562 L 6.726562 15.886719 C 6.992188 15.671875 8.128906 15.496094 8.402344 15.425781 C 8.671875 15.355469 8.953125 15.351562 9.242188 15.40625 C 9.414062 15.433594 9.589844 15.425781 9.761719 15.382812 C 9.933594 15.339844 10.089844 15.261719 10.226562 15.152344 C 10.449219 14.96875 10.695312 14.839844 10.972656 14.769531 C 11.136719 14.726562 11.367188 14.71875 11.664062 14.742188 C 11.960938 14.769531 12.183594 14.761719 12.328125 14.726562 C 12.503906 14.679688 12.660156 14.605469 12.796875 14.496094 C 13.027344 14.308594 13.277344 14.179688 13.554688 14.109375 C 13.726562 14.0625 13.902344 14.046875 14.074219 14.058594 C 14.246094 14.070312 14.417969 14.085938 14.589844 14.105469 C 16.644531 12.953125 17.242188 11.886719 17.410156 11.210938 C 17.628906 10.328125 17.550781 9.628906 17.550781 9.628906 C 17.550781 9.628906 16.304688 9.703125 14.070312 10.554688 Z M 16.515625 15.480469 C 16.355469 15.464844 16.128906 15.492188 15.835938 15.558594 C 15.539062 15.628906 15.316406 15.65625 15.167969 15.640625 C 15.007812 15.621094 14.789062 15.550781 14.515625 15.421875 C 14.242188 15.296875 13.707031 14.988281 13.554688 15.007812 C 13.398438 15.03125 13.339844 15.019531 13.070312 15.15625 C 12.800781 15.296875 12.585938 15.375 12.425781 15.398438 C 12.269531 15.421875 12.042969 15.40625 11.75 15.347656 C 11.457031 15.289062 11.234375 15.273438 11.074219 15.296875 C 10.914062 15.316406 10.703125 15.398438 10.4375 15.535156 C 10.175781 15.671875 9.960938 15.753906 9.804688 15.777344 C 9.644531 15.796875 9.417969 15.78125 9.125 15.722656 C 8.832031 15.667969 8.609375 15.648438 8.449219 15.671875 C 8.289062 15.695312 8.074219 15.777344 7.808594 15.914062 C 7.539062 16.050781 6.902344 16.222656 6.742188 16.242188 L 6.734375 17.128906 C 6.894531 17.105469 7.675781 17.019531 7.945312 16.878906 C 8.214844 16.742188 8.429688 16.664062 8.589844 16.640625 C 8.738281 16.617188 8.960938 16.636719 9.257812 16.691406 C 9.554688 16.75 9.785156 16.765625 9.941406 16.742188 C 10.101562 16.71875 10.3125 16.640625 10.578125 16.503906 C 10.84375 16.367188 11.054688 16.285156 11.210938 16.261719 C 11.371094 16.238281 11.597656 16.257812 11.890625 16.316406 C 12.183594 16.371094 12.40625 16.390625 12.566406 16.367188 C 12.726562 16.34375 12.941406 16.261719 13.207031 16.125 C 13.476562 15.988281 13.4375 16.003906 13.597656 15.980469 C 13.746094 15.960938 14.140625 16.269531 14.417969 16.394531 C 14.691406 16.523438 14.90625 16.59375 15.066406 16.609375 C 15.21875 16.625 15.441406 16.601562 15.734375 16.53125 C 16.027344 16.464844 16.257812 16.4375 16.414062 16.453125 C 16.574219 16.46875 16.789062 16.542969 17.058594 16.667969 C 17.175781 16.71875 17.242188 16.78125 17.292969 16.832031 L 17.289062 15.789062 C 17.234375 15.734375 17.203125 15.714844 17.160156 15.695312 C 16.890625 15.570312 16.675781 15.496094 16.515625 15.480469 Z M 16.515625 15.480469 "/>
</svg>
