<?xml version="1.0" encoding="UTF-8"?>
<svg xmlns="http://www.w3.org/2000/svg" xmlns:xlink="http://www.w3.org/1999/xlink" width="64" height="64" viewBox="0 0 64 64">
<path fill-rule="nonzero" fill="rgb(38.039216%, 38.039216%, 38.039216%)" fill-opacity="1" d="M 42.054688 18.71875 L 39.050781 24.8125 C 39.601562 25.058594 40.144531 25.328125 40.667969 25.621094 L 43.671875 19.535156 C 43.511719 18.382812 42.859375 18.375 42.054688 18.71875 Z M 42.054688 18.71875 "/>
<path fill-rule="nonzero" fill="rgb(38.039216%, 38.039216%, 38.039216%)" fill-opacity="1" d="M 56.703125 35.082031 C 57.21875 34.34375 56.910156 33.527344 56.097656 33.425781 L 49.753906 35.765625 C 49.984375 36.320312 50.375 37.464844 50.375 37.464844 C 50.375 37.464844 52.023438 36.855469 56.703125 35.082031 Z M 56.703125 35.082031 "/>
<path fill-rule="nonzero" fill="rgb(38.039216%, 38.039216%, 38.039216%)" fill-opacity="1" d="M 47.941406 22.402344 L 43.523438 27.519531 C 43.996094 27.898438 44.453125 28.292969 44.890625 28.710938 L 49.3125 23.585938 C 49.324219 22.632812 48.867188 22.242188 47.941406 22.402344 Z M 47.941406 22.402344 "/>
<path fill-rule="nonzero" fill="rgb(38.039216%, 38.039216%, 38.039216%)" fill-opacity="1" d="M 52.757812 27.445312 L 47.1875 31.285156 C 47.550781 31.765625 47.894531 32.265625 48.214844 32.777344 L 53.78125 28.9375 C 54.140625 27.675781 53.453125 27.558594 52.757812 27.445312 Z M 52.757812 27.445312 "/>
<path fill-rule="nonzero" fill="rgb(16.078431%, 16.078431%, 16.078431%)" fill-opacity="1" d="M 39.050781 24.8125 C 44.824219 27.597656 48.480469 31.730469 50.375 37.464844 C 51.421875 37.070312 51.179688 37.160156 52.023438 36.855469 C 50.085938 30.757812 45.597656 25.832031 39.816406 23.257812 C 39.5 23.902344 39.292969 24.242188 39.050781 24.8125 Z M 39.050781 24.8125 "/>
</svg>
