<?xml version="1.0" encoding="UTF-8"?>
<svg xmlns="http://www.w3.org/2000/svg" xmlns:xlink="http://www.w3.org/1999/xlink" width="24" height="24" viewBox="0 0 24 24">
<path fill-rule="nonzero" fill="rgb(0%, 0%, 0%)" fill-opacity="1" d="M 5.976562 10.558594 L 5.976562 15.578125 L 10.585938 15.578125 C 11.753906 14.855469 12.917969 14.121094 14.085938 12.859375 L 10.148438 12.859375 C 9.453125 12.105469 9.460938 11.433594 7.84375 10.566406 Z M 5.976562 10.558594 "/>
<path fill-rule="nonzero" fill="rgb(0%, 0%, 0%)" fill-opacity="1" stroke-width="1" stroke-linecap="butt" stroke-linejoin="miter" stroke="rgb(0%, 0%, 0%)" stroke-opacity="1" stroke-miterlimit="4" d="M 144.166667 229.53125 C 143.020833 230.9375 190.364583 176.510417 236.822917 193.802083 L 236.770833 229.53125 Z M 144.166667 229.53125 " transform="matrix(0.075, 0, 0, 0.075, 0, 0)"/>
<path fill-rule="nonzero" fill="rgb(0%, 0%, 0%)" fill-opacity="1" d="M 14.671875 10.195312 L 14.671875 13.28125 L 17.714844 13.28125 L 17.714844 10.195312 Z M 15.421875 10.921875 L 16.96875 10.921875 L 16.96875 12.550781 L 15.421875 12.550781 Z M 15.421875 10.921875 "/>
<path fill-rule="nonzero" fill="rgb(0%, 0%, 0%)" fill-opacity="1" d="M 11.875 5.945312 C 11.429688 5.925781 10.988281 5.960938 10.566406 6.054688 C 8.878906 6.417969 7.386719 7.691406 7.355469 9.527344 L 8.492188 9.546875 C 8.515625 8.316406 9.5 7.453125 10.808594 7.167969 C 12.121094 6.886719 13.460938 7.289062 14.390625 8.527344 L 15.402344 7.894531 C 14.480469 6.671875 13.207031 6 11.875 5.945312 Z M 11.875 5.945312 "/>
<path fill-rule="evenodd" fill="rgb(0%, 0%, 0%)" fill-opacity="1" stroke-width="0.2" stroke-linecap="butt" stroke-linejoin="miter" stroke="rgb(0%, 0%, 0%)" stroke-opacity="1" stroke-miterlimit="4" d="M 212.239583 129.010417 L 170.677083 118.125 L 215.572917 85.3125 Z M 212.239583 129.010417 " transform="matrix(0.075, 0, 0, 0.075, 0, 0)"/>
</svg>
