<svg width="32" height="32" viewBox="0 0 48 48" fill="none" xmlns="http://www.w3.org/2000/svg">
<path fill-rule="evenodd" clip-rule="evenodd" d="M33.9948 19.0314C33.0415 19.0314 32.4961 19.3298 31.4033 20.8893C30.4868 22.5373 29.25 22.5 29.25 22.5H26.25C25.1693 22.1691 24.9572 21.3252 24.648 20.0956C24.4949 19.4865 24.318 18.7828 24 18C23.3809 16.4771 22.5985 15 21 15H15C13.6098 15 12.75 16.2749 12.75 17.25C12.75 17.25 15.6701 18.0678 13.997 21.489C12.5293 24.4904 14.5904 26.3128 15.75 27.0001L17.25 27.0001C17.25 27.5158 16.9839 28.108 16.546 28.7209C16.1958 29.2111 15.7837 29.6496 15.4382 30H12C11.5858 30 11.25 30.3358 11.25 30.75C11.25 31.1642 11.5858 31.5 12 31.5H33C33.6198 31.5 34.3206 31.3764 34.8952 31.052C35.4951 30.7133 36 30.119 36 29.25C36 28.5273 35.7411 27.9945 35.4679 27.6418C35.3338 27.4687 35.1983 27.3412 35.0921 27.2543C35.0246 27.1991 34.9539 27.1467 34.8785 27.1025C34.8785 27.1025 34.1577 26.7773 33.8517 27.3729C33.6138 27.7818 33.8198 28.1515 34.1423 28.4153C34.1767 28.4434 34.2287 28.4915 34.2821 28.5604C34.3839 28.6918 34.5 28.909 34.5 29.25C34.5 29.4447 34.4152 29.6004 34.1577 29.7458C33.8749 29.9055 33.4507 30 33 30H31.7556C30.803 29.2282 29.797 28.9415 29.0688 27.8348C28.8605 27.5183 28.7105 27.2246 28.6078 26.9949C29.4681 26.9199 31.8278 26.0264 32.4912 24.5155C32.7124 24.0116 32.9822 23.3483 33.2354 22.7257C33.5279 22.0066 33.7984 21.3418 33.9464 21.0395C34.0345 21.4351 34.3881 21.7306 34.8134 21.7306C35.3046 21.7306 35.7541 21.3359 35.7541 20.8479C35.7541 19.6841 34.9762 19.0314 33.9948 19.0314ZM17.4572 30L18.75 27.0001L27.0038 27C27.0311 27.0867 27.087 27.2519 27.1794 27.4712C27.3097 27.7805 27.5143 28.2012 27.8158 28.6594C28.0993 29.0903 28.4722 29.5595 28.9531 30H17.4572Z" fill="#000000"/>
</svg>
