<?xml version="1.0" encoding="UTF-8"?>
<svg xmlns="http://www.w3.org/2000/svg" xmlns:xlink="http://www.w3.org/1999/xlink" width="24" height="24" viewBox="0 0 24 24">
<path fill-rule="evenodd" fill="rgb(0%, 0%, 0%)" fill-opacity="1" d="M 11.90625 4.335938 C 11.621094 4.351562 11.34375 4.4375 11.101562 4.585938 C 10.859375 4.734375 10.660156 4.941406 10.515625 5.1875 L 4.003906 16.464844 C 3.855469 16.726562 3.777344 17.019531 3.777344 17.320312 C 3.777344 17.617188 3.855469 17.914062 4.003906 18.171875 C 4.15625 18.433594 4.371094 18.648438 4.628906 18.796875 C 4.890625 18.949219 5.183594 19.027344 5.484375 19.027344 L 18.511719 19.039062 C 18.8125 19.039062 19.109375 18.957031 19.367188 18.808594 C 19.628906 18.660156 19.84375 18.445312 19.996094 18.183594 C 20.144531 17.925781 20.222656 17.628906 20.222656 17.328125 C 20.222656 17.03125 20.144531 16.734375 19.996094 16.476562 L 13.476562 5.1875 C 13.320312 4.914062 13.089844 4.691406 12.8125 4.539062 C 12.535156 4.390625 12.21875 4.320312 11.90625 4.335938 Z M 11.90625 4.335938 "/>
<path fill-rule="nonzero" fill="rgb(99.607843%, 99.607843%, 99.607843%)" fill-opacity="1" d="M 5.476562 17.40625 C 5.351562 17.1875 5.496094 16.773438 5.496094 16.773438 L 11.566406 6.257812 C 11.566406 6.257812 11.832031 5.742188 12.078125 5.742188 C 12.328125 5.746094 12.613281 6.292969 12.613281 6.292969 L 18.609375 16.683594 C 18.609375 16.683594 18.835938 17.152344 18.707031 17.382812 C 18.578125 17.613281 18.210938 17.628906 18.210938 17.628906 L 6.070312 17.613281 C 6.070312 17.613281 5.605469 17.621094 5.476562 17.40625 Z M 5.476562 17.40625 "/>
<path fill-rule="nonzero" fill="rgb(0%, 0%, 0%)" fill-opacity="1" d="M 12.992188 16.445312 L 12.992188 15.921875 L 11.972656 15.921875 C 11.160156 15.921875 11.035156 15.917969 11.046875 15.894531 C 11.050781 15.878906 11.277344 15.480469 11.550781 15.007812 C 11.820312 14.535156 12.042969 14.144531 12.042969 14.140625 C 12.042969 14.136719 11.921875 14.132812 11.777344 14.132812 C 11.628906 14.132812 11.511719 14.125 11.511719 14.117188 C 11.511719 14.109375 11.714844 13.746094 11.964844 13.316406 L 12.414062 12.527344 L 12.1875 12.523438 C 12.066406 12.519531 11.964844 12.511719 11.964844 12.503906 C 11.964844 12.480469 13.433594 9.980469 13.445312 9.984375 C 13.460938 9.988281 14.898438 12.496094 14.898438 12.519531 C 14.898438 12.527344 14.800781 12.539062 14.683594 12.542969 L 14.46875 12.546875 L 14.910156 13.304688 C 15.15625 13.722656 15.359375 14.074219 15.363281 14.085938 C 15.371094 14.105469 15.304688 14.113281 15.078125 14.113281 C 14.914062 14.113281 14.777344 14.117188 14.777344 14.121094 C 14.777344 14.128906 15.007812 14.535156 15.289062 15.027344 C 15.574219 15.519531 15.804688 15.925781 15.804688 15.933594 C 15.804688 15.9375 15.375 15.941406 14.847656 15.941406 L 13.808594 15.941406 L 13.808594 16.964844 L 12.992188 16.964844 Z M 12.992188 16.445312 "/>
<path fill-rule="nonzero" fill="rgb(0%, 0%, 0%)" fill-opacity="1" d="M 8.398438 16.621094 L 8.398438 16.359375 L 7.886719 16.359375 C 7.476562 16.359375 7.414062 16.359375 7.417969 16.347656 C 7.421875 16.339844 7.535156 16.136719 7.671875 15.898438 C 7.808594 15.660156 7.921875 15.464844 7.921875 15.464844 C 7.921875 15.460938 7.859375 15.457031 7.785156 15.457031 C 7.714844 15.457031 7.652344 15.457031 7.652344 15.453125 C 7.652344 15.445312 7.757812 15.265625 7.878906 15.046875 L 8.109375 14.652344 L 7.996094 14.648438 C 7.933594 14.648438 7.882812 14.644531 7.882812 14.640625 C 7.882812 14.628906 8.621094 13.367188 8.625 13.371094 C 8.632812 13.375 9.355469 14.636719 9.355469 14.648438 C 9.355469 14.652344 9.308594 14.65625 9.25 14.660156 L 9.140625 14.660156 L 9.363281 15.042969 C 9.488281 15.253906 9.589844 15.429688 9.59375 15.4375 C 9.597656 15.445312 9.5625 15.449219 9.449219 15.449219 C 9.363281 15.449219 9.296875 15.449219 9.296875 15.453125 C 9.296875 15.457031 9.414062 15.660156 9.554688 15.910156 C 9.695312 16.15625 9.8125 16.363281 9.8125 16.363281 C 9.8125 16.367188 9.597656 16.371094 9.332031 16.371094 L 8.808594 16.371094 L 8.808594 16.886719 L 8.398438 16.886719 Z M 8.398438 16.621094 "/>
</svg>
