<?xml version="1.0" encoding="UTF-8"?>
<svg xmlns="http://www.w3.org/2000/svg" xmlns:xlink="http://www.w3.org/1999/xlink" width="12" height="12" viewBox="0 0 12 12" version="1.1">
<defs>
<filter id="alpha" filterUnits="objectBoundingBox" x="0%" y="0%" width="100%" height="100%">
  <feColorMatrix type="matrix" in="SourceGraphic" values="0 0 0 0 1 0 0 0 0 1 0 0 0 0 1 0 0 0 1 0"/>
</filter>
<mask id="mask0">
  <g filter="url(#alpha)">
<rect x="0" y="0" width="12" height="12" style="fill:rgb(0%,0%,0%);fill-opacity:0.426087;stroke:none;"/>
  </g>
</mask>
<clipPath id="clip1">
  <rect x="0" y="0" width="12" height="12"/>
</clipPath>
<g id="surface5" clip-path="url(#clip1)">
<path style=" stroke:none;fill-rule:nonzero;fill:rgb(55.29412%,55.29412%,55.29412%);fill-opacity:1;" d="M 5.398438 3.019531 C 5.34375 3.019531 5.289062 3.03125 5.238281 3.050781 C 5.183594 3.074219 5.140625 3.105469 5.101562 3.144531 C 5.058594 3.183594 5.027344 3.230469 5.007812 3.28125 C 4.988281 3.332031 4.976562 3.386719 4.976562 3.441406 L 4.976562 9.703125 C 4.875 9.792969 4.789062 9.898438 4.71875 10.015625 L 3.925781 10.015625 C 3.871094 10.015625 3.816406 10.023438 3.765625 10.046875 C 3.714844 10.066406 3.667969 10.097656 3.628906 10.136719 C 3.589844 10.175781 3.558594 10.222656 3.535156 10.273438 C 3.515625 10.324219 3.503906 10.382812 3.503906 10.4375 L 3.503906 10.953125 C 3.503906 11.007812 3.515625 11.0625 3.535156 11.117188 C 3.558594 11.167969 3.589844 11.214844 3.628906 11.253906 C 3.667969 11.292969 3.714844 11.324219 3.765625 11.34375 C 3.816406 11.367188 3.871094 11.375 3.925781 11.375 L 4.730469 11.375 C 4.964844 11.761719 5.382812 12.023438 5.863281 12.023438 C 6.34375 12.023438 6.761719 11.761719 6.996094 11.375 L 7.796875 11.375 C 7.855469 11.375 7.910156 11.367188 7.960938 11.34375 C 8.011719 11.324219 8.058594 11.292969 8.097656 11.253906 C 8.136719 11.214844 8.167969 11.167969 8.1875 11.117188 C 8.210938 11.0625 8.222656 11.007812 8.222656 10.953125 L 8.222656 10.4375 C 8.222656 10.382812 8.210938 10.324219 8.1875 10.273438 C 8.167969 10.222656 8.136719 10.175781 8.097656 10.136719 C 8.058594 10.097656 8.011719 10.066406 7.960938 10.046875 C 7.910156 10.023438 7.855469 10.015625 7.796875 10.015625 L 7.003906 10.015625 C 6.933594 9.890625 6.839844 9.78125 6.734375 9.6875 L 6.734375 3.441406 C 6.734375 3.386719 6.722656 3.332031 6.703125 3.28125 C 6.679688 3.230469 6.648438 3.183594 6.609375 3.144531 C 6.570312 3.105469 6.523438 3.074219 6.472656 3.050781 C 6.421875 3.03125 6.367188 3.019531 6.3125 3.019531 Z M 5.398438 3.019531 "/>
</g>
</defs>
<g id="surface1">
<use xlink:href="#surface5" mask="url(#mask0)"/>
<path style=" stroke:none;fill-rule:nonzero;fill:rgb(99.607843%,99.607843%,99.607843%);fill-opacity:1;" d="M 6.308594 3.4375 L 5.394531 3.4375 L 5.394531 10.632812 L 6.308594 10.632812 Z M 6.308594 3.4375 "/>
<path style="fill:none;stroke-width:25;stroke-linecap:butt;stroke-linejoin:miter;stroke:rgb(0%,0%,0%);stroke-opacity:1;stroke-miterlimit:4;" d="M 189.557292 516.5625 L 376.848958 516.5625 " transform="matrix(0.0206897,0,0,0.0206897,0,0)"/>
<path style="fill-rule:nonzero;fill:rgb(99.607843%,99.607843%,99.607843%);fill-opacity:1;stroke-width:20.5723;stroke-linecap:round;stroke-linejoin:round;stroke:rgb(0%,0%,0%);stroke-opacity:1;stroke-miterlimit:10;" d="M 316.809896 516.373698 C 316.809896 525.247396 313.222656 533.932292 306.992188 540.16276 C 300.572917 546.393229 292.076823 549.980469 283.203125 549.980469 C 274.329427 549.980469 265.644531 546.393229 259.414062 540.16276 C 253.183594 533.932292 249.596354 525.247396 249.596354 516.373698 C 249.596354 507.5 253.183594 499.003906 259.414062 492.584635 C 265.644531 486.354167 274.329427 482.766927 283.203125 482.766927 C 292.076823 482.766927 300.572917 486.354167 306.992188 492.584635 C 313.222656 499.003906 316.809896 507.5 316.809896 516.373698 Z M 316.809896 516.373698 " transform="matrix(0.0206897,0,0,0.0206897,0,0)"/>
<path style=" stroke:none;fill-rule:nonzero;fill:rgb(90.980393%,0%,0%);fill-opacity:1;" d="M 6.308594 3.4375 L 5.394531 3.4375 L 5.394531 5.15625 L 6.308594 5.15625 Z M 6.308594 3.4375 "/>
<path style=" stroke:none;fill-rule:nonzero;fill:rgb(90.980393%,0%,0%);fill-opacity:1;" d="M 6.308594 5.121094 L 5.394531 5.121094 L 5.394531 6.871094 L 6.308594 6.871094 Z M 6.308594 5.121094 "/>
<path style=" stroke:none;fill-rule:nonzero;fill:rgb(99.607843%,99.607843%,99.607843%);fill-opacity:1;" d="M 6.308594 6.871094 L 5.394531 6.871094 L 5.394531 8.589844 L 6.308594 8.589844 Z M 6.308594 6.871094 "/>
</g>
</svg>
