<?xml version="1.0" encoding="UTF-8"?>
<svg xmlns="http://www.w3.org/2000/svg" xmlns:xlink="http://www.w3.org/1999/xlink" width="12" height="12" viewBox="0 0 12 12" version="1.1">
<g id="surface1">
<path style=" stroke:none;fill-rule:evenodd;fill:rgb(99.607843%,99.607843%,99.607843%);fill-opacity:1;" d="M 3 3.09375 C 2.824219 3.09375 2.660156 3.164062 2.535156 3.285156 C 2.414062 3.410156 2.34375 3.574219 2.34375 3.75 L 2.34375 8.25 C 2.34375 8.425781 2.414062 8.589844 2.535156 8.714844 C 2.660156 8.835938 2.824219 8.90625 3 8.90625 L 9 8.90625 C 9.175781 8.90625 9.339844 8.835938 9.464844 8.714844 C 9.585938 8.589844 9.65625 8.425781 9.65625 8.25 L 9.65625 3.75 C 9.65625 3.574219 9.585938 3.410156 9.464844 3.285156 C 9.339844 3.164062 9.175781 3.09375 9 3.09375 Z M 3 3.09375 "/>
<path style=" stroke:none;fill-rule:nonzero;fill:rgb(24.313726%,47.058824%,85.490197%);fill-opacity:1;" d="M 9 3.75 L 3 3.75 L 3 5.25 L 9 5.25 Z M 9 3.75 "/>
<path style=" stroke:none;fill-rule:nonzero;fill:rgb(96.862745%,80.392158%,18.82353%);fill-opacity:1;" d="M 9 5.25 L 3 5.25 L 3 6.75 L 9 6.75 Z M 9 5.25 "/>
<path style=" stroke:none;fill-rule:nonzero;fill:rgb(91.764706%,49.019608%,3.529412%);fill-opacity:1;" d="M 9 6.75 L 3 6.75 L 3 8.25 L 9 8.25 Z M 9 6.75 "/>
</g>
</svg>
