<?xml version="1.0" encoding="UTF-8"?>
<svg xmlns="http://www.w3.org/2000/svg" xmlns:xlink="http://www.w3.org/1999/xlink" width="24" height="24" viewBox="0 0 24 24">
<path fill-rule="nonzero" fill="rgb(99.607843%, 99.607843%, 99.607843%)" fill-opacity="1" d="M 11.910156 5.347656 C 7.980469 5.347656 4.796875 8.269531 4.511719 11.964844 C 4.378906 11.917969 4.253906 11.875 4.113281 11.824219 C 3.953125 11.769531 3.777344 11.773438 3.617188 11.835938 C 3.460938 11.902344 3.332031 12.023438 3.257812 12.179688 L 3.066406 12.570312 C 2.992188 12.726562 2.976562 12.902344 3.027344 13.066406 C 3.074219 13.234375 3.179688 13.375 3.328125 13.464844 L 11.550781 18.550781 C 11.660156 18.617188 11.785156 18.652344 11.914062 18.652344 C 12.042969 18.652344 12.167969 18.617188 12.277344 18.550781 L 20.671875 13.402344 C 20.816406 13.3125 20.925781 13.171875 20.972656 13.007812 C 21.023438 12.84375 21.007812 12.667969 20.933594 12.515625 L 20.746094 12.117188 C 20.707031 12.035156 20.648438 11.960938 20.578125 11.898438 C 20.507812 11.835938 20.425781 11.789062 20.339844 11.757812 C 20.25 11.730469 20.15625 11.71875 20.066406 11.726562 C 19.972656 11.734375 19.882812 11.757812 19.800781 11.800781 C 19.632812 11.890625 19.480469 11.949219 19.320312 12.027344 C 19.070312 8.304688 15.859375 5.347656 11.910156 5.347656 Z M 11.910156 5.347656 "/>
<path fill-rule="nonzero" fill="rgb(99.607843%, 99.607843%, 99.607843%)" fill-opacity="1" d="M 11.90625 6.359375 C 8.269531 6.359375 5.320312 8.988281 5.320312 12.234375 C 5.324219 12.628906 5.371094 13.019531 5.460938 13.402344 L 12.074219 15.578125 L 18.371094 13.351562 C 18.453125 12.984375 18.492188 12.609375 18.496094 12.234375 C 18.496094 8.988281 15.546875 6.359375 11.90625 6.359375 Z M 11.90625 6.359375 "/>
<path fill-rule="nonzero" fill="rgb(42.352941%, 66.666667%, 89.411765%)" fill-opacity="1" d="M 12.019531 6.976562 C 8.175781 6.976562 6.046875 10.640625 6.925781 13.664062 L 12.15625 15.578125 L 17.097656 13.546875 C 17.898438 10.203125 15.863281 6.976562 12.019531 6.976562 Z M 12.019531 6.976562 "/>
<path fill-rule="nonzero" fill="rgb(23.529412%, 53.333333%, 81.176471%)" fill-opacity="1" d="M 12 6.039062 C 8.242188 6.039062 5.191406 8.917969 5.191406 12.457031 C 5.191406 12.71875 5.238281 12.941406 5.273438 13.128906 C 5.492188 13.203125 5.675781 13.269531 5.949219 13.367188 C 5.886719 13.039062 5.816406 12.804688 5.816406 12.457031 C 5.816406 9.234375 8.582031 6.628906 12 6.628906 C 15.417969 6.628906 18.183594 9.234375 18.183594 12.457031 C 18.183594 12.785156 18.128906 13.023438 18.074219 13.335938 L 18.75 13.082031 C 18.777344 12.851562 18.808594 12.695312 18.808594 12.457031 C 18.808594 8.917969 15.757812 6.039062 12 6.039062 Z M 12 6.039062 "/>
<path fill-rule="evenodd" fill="rgb(16.470588%, 13.72549%, 27.843137%)" fill-opacity="1" stroke-width="0.29379" stroke-linecap="square" stroke-linejoin="miter" stroke="rgb(23.529412%, 53.333333%, 81.176471%)" stroke-opacity="1" stroke-miterlimit="4" d="M 2.539062 8.458333 L 7.942708 11.802083 L 13.463542 8.416667 L 7.9375 10.382812 Z M 2.539062 8.458333 " transform="matrix(1.5, 0, 0, 1.5, 0, 0)"/>
<path fill-rule="evenodd" fill="rgb(83.137255%, 80.392157%, 34.509804%)" fill-opacity="1" d="M 11.039062 13.160156 C 10.664062 13.171875 10.257812 13.605469 10.085938 13.730469 C 9.914062 13.859375 9.660156 13.765625 9.5 13.6875 C 9.339844 13.605469 9.292969 13.394531 9.292969 13.394531 C 9.292969 13.394531 9.09375 13.246094 8.875 13.324219 C 8.65625 13.40625 8.644531 13.582031 8.753906 13.8125 C 8.839844 13.996094 9.039062 13.910156 9.214844 13.925781 C 9.671875 14.214844 9.941406 14.179688 10.210938 14.089844 C 10.484375 13.996094 10.652344 13.628906 11.039062 13.546875 C 11.335938 13.488281 11.785156 13.835938 11.714844 13.960938 C 11.648438 14.089844 11.261719 13.839844 11.078125 13.945312 C 10.839844 14.082031 10.636719 14.410156 10.773438 14.570312 C 10.914062 14.730469 11.027344 14.476562 11.332031 14.304688 C 11.703125 14.007812 11.996094 14.707031 11.996094 14.707031 L 12 14.703125 L 12.003906 14.707031 C 12.003906 14.707031 12.269531 14.25 12.667969 14.304688 C 13.015625 14.355469 13.085938 14.730469 13.226562 14.570312 C 13.363281 14.410156 13.160156 14.082031 12.921875 13.945312 C 12.738281 13.839844 12.351562 14.089844 12.285156 13.960938 C 12.214844 13.835938 12.664062 13.488281 12.960938 13.546875 C 13.347656 13.628906 13.515625 13.996094 13.789062 14.089844 C 14.058594 14.179688 14.328125 14.214844 14.785156 13.925781 C 14.960938 13.910156 15.160156 13.996094 15.246094 13.8125 C 15.355469 13.582031 15.34375 13.40625 15.125 13.324219 C 14.90625 13.246094 14.707031 13.394531 14.707031 13.394531 C 14.707031 13.394531 14.660156 13.605469 14.5 13.6875 C 14.339844 13.765625 14.085938 13.859375 13.914062 13.730469 C 13.742188 13.605469 13.335938 13.171875 12.960938 13.160156 C 12.628906 13.148438 12.402344 13.25 12 13.582031 C 11.597656 13.25 11.375 13.148438 11.039062 13.160156 Z M 11.039062 13.160156 "/>
<path fill-rule="evenodd" fill="rgb(100%, 5.098039%, 0%)" fill-opacity="1" d="M 10.738281 7.496094 L 7.621094 12.941406 L 9.78125 12.941406 L 10.789062 10.945312 L 11.992188 12.738281 L 13.296875 10.945312 L 14.550781 12.941406 L 16.359375 12.941406 L 16.378906 12.921875 L 13.394531 7.519531 L 12 9.765625 Z M 10.738281 7.496094 "/>
</svg>
