<?xml version="1.0" encoding="UTF-8"?>
<svg xmlns="http://www.w3.org/2000/svg" xmlns:xlink="http://www.w3.org/1999/xlink" width="48" height="48" viewBox="0 0 48 48">
<defs>
<filter id="filter-remove-color" x="0%" y="0%" width="100%" height="100%">
<feColorMatrix color-interpolation-filters="sRGB" values="0 0 0 0 1 0 0 0 0 1 0 0 0 0 1 0 0 0 1 0" />
</filter>
<mask id="mask-0">
<g filter="url(#filter-remove-color)">
<rect x="-4.8" y="-4.8" width="57.6" height="57.6" fill="rgb(0%, 0%, 0%)" fill-opacity="0.873134"/>
</g>
</mask>
<clipPath id="clip-0">
<rect x="0" y="0" width="48" height="48"/>
</clipPath>
<g id="source-6" clip-path="url(#clip-0)">
<path fill-rule="nonzero" fill="rgb(67.45098%, 84.705882%, 95.294118%)" fill-opacity="1" d="M 5.09375 11.414062 C 4.917969 11.414062 4.742188 11.457031 4.582031 11.539062 C 4.421875 11.621094 4.285156 11.738281 4.183594 11.882812 C 4.078125 12.027344 4.011719 12.195312 3.988281 12.371094 C 3.960938 12.550781 3.980469 12.730469 4.035156 12.898438 L 5.933594 18.386719 C 6.007812 18.605469 6.152344 18.796875 6.339844 18.933594 C 6.53125 19.070312 6.757812 19.140625 6.992188 19.140625 L 8.566406 19.140625 C 8.800781 19.140625 9.027344 19.070312 9.214844 18.933594 C 9.40625 18.796875 9.550781 18.605469 9.625 18.386719 L 10.019531 17.242188 L 10.019531 18.023438 C 10.019531 18.167969 10.046875 18.316406 10.105469 18.449219 C 10.160156 18.585938 10.242188 18.710938 10.347656 18.8125 C 10.453125 18.917969 10.574219 19 10.710938 19.054688 C 10.847656 19.113281 10.992188 19.140625 11.140625 19.140625 L 12.460938 19.140625 C 12.65625 19.140625 12.851562 19.089844 13.023438 18.988281 C 13.195312 18.886719 13.335938 18.742188 13.433594 18.570312 C 13.53125 18.742188 13.671875 18.886719 13.84375 18.988281 C 14.015625 19.089844 14.210938 19.140625 14.40625 19.140625 L 15.726562 19.140625 C 15.960938 19.140625 16.1875 19.070312 16.378906 18.933594 C 16.566406 19.066406 16.792969 19.140625 17.027344 19.140625 L 18.347656 19.140625 C 18.492188 19.140625 18.640625 19.113281 18.773438 19.054688 C 18.910156 19 19.035156 18.917969 19.136719 18.8125 C 19.242188 18.710938 19.324219 18.585938 19.378906 18.449219 C 19.4375 18.316406 19.464844 18.167969 19.464844 18.023438 L 19.464844 16.8125 L 20.457031 16.8125 C 20.601562 16.8125 20.75 16.785156 20.882812 16.726562 C 21.019531 16.671875 21.144531 16.589844 21.246094 16.484375 C 21.351562 16.382812 21.433594 16.257812 21.488281 16.121094 C 21.546875 15.988281 21.574219 15.839844 21.574219 15.695312 L 21.574219 14.625 C 21.574219 14.492188 21.550781 14.363281 21.507812 14.242188 C 21.636719 14.054688 21.707031 13.832031 21.707031 13.601562 L 21.707031 12.53125 C 21.707031 12.386719 21.679688 12.242188 21.625 12.105469 C 21.566406 11.96875 21.484375 11.84375 21.378906 11.742188 C 21.277344 11.636719 21.152344 11.554688 21.015625 11.5 C 20.882812 11.441406 20.734375 11.414062 20.589844 11.414062 L 17.027344 11.414062 C 16.792969 11.414062 16.566406 11.484375 16.375 11.621094 C 16.1875 11.488281 15.960938 11.414062 15.726562 11.414062 L 14.40625 11.414062 C 14.210938 11.414062 14.015625 11.464844 13.84375 11.566406 C 13.671875 11.667969 13.53125 11.8125 13.433594 11.984375 C 13.335938 11.8125 13.195312 11.667969 13.023438 11.566406 C 12.851562 11.464844 12.65625 11.414062 12.460938 11.414062 L 11.140625 11.414062 C 11.023438 11.414062 10.910156 11.429688 10.800781 11.464844 C 10.691406 11.429688 10.578125 11.414062 10.460938 11.414062 L 9.136719 11.414062 C 8.902344 11.414062 8.671875 11.488281 8.480469 11.625 C 8.289062 11.761719 8.148438 11.957031 8.074219 12.175781 L 7.78125 13.058594 L 7.484375 12.175781 C 7.410156 11.957031 7.265625 11.761719 7.078125 11.625 C 6.886719 11.488281 6.65625 11.414062 6.421875 11.414062 Z M 5.09375 11.414062 "/>
</g>
</defs>
<g mask="url(#mask-0)">
<use xlink:href="#source-6"/>
</g>
<path fill-rule="nonzero" fill="rgb(0%, 0%, 0%)" fill-opacity="1" d="M 5.09375 12.539062 L 6.421875 12.539062 L 7.78125 16.59375 L 9.136719 12.539062 L 10.464844 12.539062 L 8.566406 18.03125 L 6.992188 18.03125 Z M 5.09375 12.539062 "/>
<path fill-rule="nonzero" fill="rgb(0%, 0%, 0%)" fill-opacity="1" d="M 11.140625 12.539062 L 12.460938 12.539062 L 12.460938 14.632812 L 14.410156 14.632812 L 14.410156 12.539062 L 15.730469 12.539062 L 15.730469 18.03125 L 14.410156 18.03125 L 14.410156 15.703125 L 12.460938 15.703125 L 12.460938 18.03125 L 11.140625 18.03125 Z M 11.140625 12.539062 "/>
<path fill-rule="nonzero" fill="rgb(0%, 0%, 0%)" fill-opacity="1" d="M 17.027344 12.539062 L 20.589844 12.539062 L 20.589844 13.609375 L 18.347656 13.609375 L 18.347656 14.632812 L 20.457031 14.632812 L 20.457031 15.703125 L 18.347656 15.703125 L 18.347656 18.03125 L 17.027344 18.03125 Z M 17.027344 12.539062 "/>
</svg>
