<?xml version="1.0" encoding="UTF-8"?>
<svg xmlns="http://www.w3.org/2000/svg" xmlns:xlink="http://www.w3.org/1999/xlink" width="12" height="12" viewBox="0 0 12 12" version="1.1">
<g id="surface1">
<path style=" stroke:none;fill-rule:nonzero;fill:rgb(15.294118%,48.627451%,15.294118%);fill-opacity:1;" d="M 7.359375 1.078125 C 6.914062 1.027344 6.460938 1.292969 6.152344 1.867188 C 5.726562 1.304688 5.273438 1.070312 4.863281 1.152344 C 4.386719 1.246094 4.125 1.734375 4.125 2.25 L 4.125 2.625 L 4.5 2.625 L 4.5 2.25 C 4.5 1.828125 4.707031 1.566406 4.933594 1.519531 C 5.160156 1.476562 5.554688 1.609375 6 2.304688 L 6 6 L 7.875 6 L 7.875 5.625 L 6.375 5.625 L 6.375 2.285156 C 6.640625 1.605469 7.039062 1.417969 7.3125 1.453125 C 7.597656 1.484375 7.875 1.757812 7.875 2.25 L 7.875 2.625 L 8.25 2.625 L 8.25 2.25 C 8.25 1.617188 7.871094 1.140625 7.359375 1.078125 Z M 7.359375 1.078125 "/>
</g>
</svg>
