<?xml version="1.0" encoding="UTF-8"?>
<svg xmlns="http://www.w3.org/2000/svg" xmlns:xlink="http://www.w3.org/1999/xlink" width="32" height="32" viewBox="0 0 32 32">
<path fill-rule="nonzero" fill="rgb(0%, 0%, 0%)" fill-opacity="1" d="M 17.839844 11.199219 L 20.28125 8.277344 L 22.753906 11.199219 L 21.246094 11.199219 L 21.246094 13.714844 L 11.117188 19.710938 L 11.113281 23.601562 L 9.246094 23.601562 L 9.246094 18.753906 L 19.382812 12.824219 L 19.382812 11.199219 L 17.839844 11.199219 "/>
<path fill-rule="nonzero" fill="rgb(0%, 0%, 0%)" fill-opacity="1" d="M 11.113281 8.476562 L 11.117188 10.144531 L 9.246094 10.132812 L 9.246094 8.476562 Z M 9.246094 11.539062 L 11.117188 11.554688 L 11.117188 12.566406 L 12.605469 13.445312 L 11.730469 14.976562 L 9.246094 13.523438 Z M 14.164062 14.289062 L 17.984375 16.632812 L 17.125 18.132812 L 13.292969 15.808594 Z M 19.578125 17.492188 L 21.246094 18.5625 L 21.246094 21.078125 L 22.753906 21.078125 L 20.28125 24 L 17.839844 21.078125 L 19.382812 21.078125 L 19.382812 19.457031 L 18.722656 18.988281 Z M 19.578125 17.492188 "/>
</svg>
