<?xml version="1.0" encoding="UTF-8"?>
<svg xmlns="http://www.w3.org/2000/svg" xmlns:xlink="http://www.w3.org/1999/xlink" width="64" height="64" viewBox="0 0 64 64">
<path fill-rule="nonzero" fill="rgb(57.647059%, 0%, 57.647059%)" fill-opacity="1" d="M 35.417969 39.417969 L 24.578125 39.417969 L 24.578125 38.847656 C 24.578125 38.53125 24.835938 38.277344 25.148438 38.277344 L 34.847656 38.277344 C 35.160156 38.277344 35.417969 38.53125 35.417969 38.847656 Z M 35.417969 39.417969 "/>
<path fill-rule="nonzero" fill="rgb(57.647059%, 0%, 57.647059%)" fill-opacity="1" d="M 32.566406 24.582031 L 27.429688 24.582031 C 26.484375 24.582031 25.71875 25.347656 25.71875 26.292969 L 25.71875 38.847656 L 34.277344 38.847656 L 34.277344 26.292969 C 34.277344 25.347656 33.511719 24.582031 32.566406 24.582031 Z M 33.136719 29.71875 C 33.136719 30.03125 32.878906 30.289062 32.566406 30.289062 L 27.429688 30.289062 C 27.117188 30.289062 26.859375 30.03125 26.859375 29.71875 L 26.859375 26.292969 C 26.859375 25.980469 27.117188 25.722656 27.429688 25.722656 L 32.566406 25.722656 C 32.878906 25.722656 33.136719 25.980469 33.136719 26.292969 Z M 33.136719 29.71875 "/>
<path fill-rule="nonzero" fill="rgb(57.647059%, 0%, 57.647059%)" fill-opacity="1" d="M 35.410156 25.71875 C 35.296875 25.71875 35.1875 25.753906 35.09375 25.816406 C 35 25.878906 34.925781 25.96875 34.882812 26.074219 C 34.84375 26.179688 34.832031 26.296875 34.855469 26.40625 C 34.878906 26.515625 34.933594 26.617188 35.015625 26.699219 C 36.914062 28.597656 37.769531 29.5 38.089844 29.953125 C 38.246094 30.179688 38.265625 30.25 38.277344 30.339844 C 38.285156 30.425781 38.269531 30.597656 38.269531 30.894531 L 38.269531 34.28125 C 38.269531 35.40625 38.167969 36.214844 38 36.648438 C 37.914062 36.867188 37.824219 36.980469 37.742188 37.042969 C 37.664062 37.101562 37.582031 37.132812 37.414062 37.132812 C 37.246094 37.132812 37.167969 37.101562 37.085938 37.042969 C 37.007812 36.980469 36.914062 36.867188 36.832031 36.648438 C 36.660156 36.214844 36.558594 35.40625 36.558594 34.28125 C 36.558594 33.800781 36.519531 33.414062 36.398438 33.070312 C 36.273438 32.726562 36.035156 32.425781 35.734375 32.257812 C 35.132812 31.925781 34.507812 32 33.707031 32 C 33.554688 32 33.410156 32.058594 33.300781 32.167969 C 33.195312 32.273438 33.136719 32.417969 33.136719 32.570312 C 33.136719 32.722656 33.195312 32.867188 33.300781 32.972656 C 33.410156 33.082031 33.554688 33.140625 33.707031 33.140625 C 34.527344 33.140625 35.042969 33.179688 35.179688 33.253906 C 35.246094 33.292969 35.269531 33.308594 35.324219 33.453125 C 35.375 33.597656 35.417969 33.871094 35.417969 34.28125 C 35.417969 35.464844 35.492188 36.363281 35.769531 37.0625 C 35.90625 37.414062 36.105469 37.726562 36.390625 37.945312 C 36.679688 38.167969 37.046875 38.277344 37.414062 38.277344 C 37.78125 38.277344 38.148438 38.167969 38.4375 37.945312 C 38.726562 37.726562 38.925781 37.414062 39.0625 37.0625 C 39.335938 36.363281 39.410156 35.464844 39.410156 34.28125 L 39.410156 30.894531 C 39.410156 30.664062 39.445312 30.472656 39.40625 30.191406 C 39.371094 29.914062 39.246094 29.613281 39.023438 29.296875 C 38.578125 28.664062 37.722656 27.792969 35.820312 25.890625 C 35.765625 25.835938 35.703125 25.792969 35.632812 25.761719 C 35.5625 25.734375 35.488281 25.71875 35.410156 25.71875 Z M 35.410156 25.71875 "/>
<path fill-rule="nonzero" fill="rgb(57.647059%, 0%, 57.647059%)" fill-opacity="1" d="M 38.863281 32.394531 C 38.863281 32.707031 38.609375 32.664062 38.292969 32.292969 L 37.152344 31.171875 C 36.839844 30.800781 36.582031 30.539062 36.582031 29.929688 L 36.582031 27.980469 C 36.582031 27.667969 36.839844 27.710938 37.152344 28.082031 L 38.292969 29.066406 C 38.609375 29.433594 38.863281 29.921875 38.863281 30.234375 Z M 38.863281 32.394531 "/>
</svg>
