<?xml version="1.0" encoding="UTF-8"?>
<svg xmlns="http://www.w3.org/2000/svg" xmlns:xlink="http://www.w3.org/1999/xlink" width="12" height="12" viewBox="0 0 12 12" version="1.1">
<g id="surface1">
<path style=" stroke:none;fill-rule:nonzero;fill:rgb(99.607843%,99.607843%,99.607843%);fill-opacity:1;" d="M 6 9.417969 C 7.886719 9.417969 9.417969 7.886719 9.417969 6 C 9.417969 4.113281 7.886719 2.582031 6 2.582031 C 4.113281 2.582031 2.582031 4.113281 2.582031 6 C 2.582031 7.886719 4.113281 9.417969 6 9.417969 Z M 6 9.417969 "/>
<path style=" stroke:none;fill-rule:nonzero;fill:rgb(0.784314%,36.078432%,62.7451%);fill-opacity:1;" d="M 6 8.992188 C 7.652344 8.992188 8.992188 7.652344 8.992188 6 C 8.992188 4.347656 7.652344 3.007812 6 3.007812 C 4.347656 3.007812 3.007812 4.347656 3.007812 6 C 3.007812 7.652344 4.347656 8.992188 6 8.992188 Z M 6 8.992188 "/>
<path style="fill:none;stroke-width:1.57012;stroke-linecap:butt;stroke-linejoin:miter;stroke:rgb(99.607843%,99.607843%,99.607843%);stroke-opacity:1;stroke-miterlimit:4;" d="M 6.302083 5.598958 L 6.302083 8.703125 C 6.302083 9.15625 6.479167 9.588542 6.796875 9.90625 C 7.119792 10.223958 7.552083 10.401042 8 10.401042 C 8.447917 10.401042 8.880208 10.223958 9.203125 9.90625 C 9.520833 9.588542 9.697917 9.15625 9.697917 8.703125 L 9.697917 5.598958 " transform="matrix(0.75,0,0,0.75,0,0)"/>
</g>
</svg>
