<?xml version="1.0" encoding="UTF-8"?>
<svg xmlns="http://www.w3.org/2000/svg" xmlns:xlink="http://www.w3.org/1999/xlink" width="12" height="12" viewBox="0 0 12 12" version="1.1">
<g id="surface1">
<path style=" stroke:none;fill-rule:evenodd;fill:rgb(0%,0%,0%);fill-opacity:1;" d="M 8.5 4.757812 C 8.261719 4.757812 8.125 4.832031 7.851562 5.222656 C 7.621094 5.632812 7.3125 5.625 7.3125 5.625 L 6.5625 5.625 C 6.292969 5.542969 6.238281 5.332031 6.160156 5.023438 C 6.125 4.871094 6.078125 4.695312 6 4.5 C 5.84375 4.121094 5.648438 3.75 5.25 3.75 L 3.75 3.75 C 3.402344 3.75 3.1875 4.070312 3.1875 4.3125 C 3.1875 4.3125 3.917969 4.515625 3.5 5.371094 C 3.132812 6.121094 3.648438 6.578125 3.9375 6.75 L 4.3125 6.75 C 4.3125 6.878906 4.246094 7.027344 4.136719 7.179688 C 4.050781 7.304688 3.945312 7.414062 3.859375 7.5 L 3 7.5 C 2.894531 7.5 2.8125 7.582031 2.8125 7.6875 C 2.8125 7.792969 2.894531 7.875 3 7.875 L 8.25 7.875 C 8.40625 7.875 8.582031 7.84375 8.722656 7.761719 C 8.875 7.679688 9 7.53125 9 7.3125 C 9 7.132812 8.933594 7 8.867188 6.910156 C 8.832031 6.867188 8.800781 6.835938 8.773438 6.8125 C 8.757812 6.800781 8.738281 6.785156 8.71875 6.777344 C 8.71875 6.777344 8.539062 6.695312 8.464844 6.84375 C 8.402344 6.945312 8.453125 7.039062 8.535156 7.105469 C 8.542969 7.109375 8.558594 7.121094 8.570312 7.140625 C 8.597656 7.171875 8.625 7.226562 8.625 7.3125 C 8.625 7.359375 8.605469 7.398438 8.539062 7.4375 C 8.46875 7.476562 8.363281 7.5 8.25 7.5 L 7.9375 7.5 C 7.699219 7.308594 7.449219 7.234375 7.265625 6.957031 C 7.214844 6.878906 7.175781 6.804688 7.152344 6.75 C 7.367188 6.730469 7.957031 6.507812 8.121094 6.128906 C 8.179688 6.003906 8.246094 5.835938 8.308594 5.679688 C 8.382812 5.5 8.449219 5.335938 8.488281 5.261719 C 8.507812 5.359375 8.597656 5.433594 8.703125 5.433594 C 8.824219 5.433594 8.9375 5.332031 8.9375 5.210938 C 8.9375 4.921875 8.742188 4.757812 8.5 4.757812 Z M 4.363281 7.5 L 4.6875 6.75 L 6.75 6.75 C 6.757812 6.773438 6.773438 6.8125 6.792969 6.867188 C 6.828125 6.945312 6.878906 7.050781 6.953125 7.164062 C 7.023438 7.273438 7.117188 7.390625 7.238281 7.5 Z M 4.363281 7.5 "/>
</g>
</svg>
