<?xml version="1.0" encoding="UTF-8"?>
<svg xmlns="http://www.w3.org/2000/svg" xmlns:xlink="http://www.w3.org/1999/xlink" width="24" height="24" viewBox="0 0 24 24">
<defs>
<filter id="filter-remove-color" x="0%" y="0%" width="100%" height="100%">
<feColorMatrix color-interpolation-filters="sRGB" values="0 0 0 0 1 0 0 0 0 1 0 0 0 0 1 0 0 0 1 0" />
</filter>
<mask id="mask-0">
<g filter="url(#filter-remove-color)">
<rect x="-2.4" y="-2.4" width="28.8" height="28.8" fill="rgb(0%, 0%, 0%)" fill-opacity="0.426087"/>
</g>
</mask>
<clipPath id="clip-0">
<rect x="0" y="0" width="24" height="24"/>
</clipPath>
<g id="source-6" clip-path="url(#clip-0)">
<path fill-rule="nonzero" fill="rgb(55.294118%, 55.294118%, 55.294118%)" fill-opacity="1" d="M 10.109375 6.574219 C 9.8125 6.574219 9.53125 6.691406 9.320312 6.902344 C 9.109375 7.113281 8.992188 7.394531 8.992188 7.691406 L 8.992188 19.820312 C 8.726562 19.863281 8.484375 19.996094 8.308594 20.199219 C 8.132812 20.402344 8.039062 20.660156 8.039062 20.925781 L 8.039062 21.90625 C 8.039062 22.203125 8.15625 22.488281 8.367188 22.699219 C 8.574219 22.90625 8.859375 23.023438 9.15625 23.023438 L 14.296875 23.023438 C 14.59375 23.023438 14.878906 22.90625 15.089844 22.699219 C 15.296875 22.488281 15.417969 22.203125 15.417969 21.90625 L 15.417969 20.925781 C 15.414062 20.652344 15.316406 20.390625 15.132812 20.183594 C 14.949219 19.980469 14.699219 19.851562 14.429688 19.816406 L 14.429688 7.691406 C 14.429688 7.394531 14.308594 7.113281 14.101562 6.902344 C 13.890625 6.691406 13.605469 6.574219 13.308594 6.574219 Z M 10.109375 6.574219 "/>
</g>
<mask id="mask-1">
<g filter="url(#filter-remove-color)">
<rect x="-2.4" y="-2.4" width="28.8" height="28.8" fill="rgb(0%, 0%, 0%)" fill-opacity="0.788"/>
</g>
</mask>
<clipPath id="clip-1">
<rect x="0" y="0" width="24" height="24"/>
</clipPath>
<g id="source-10" clip-path="url(#clip-1)">
<path fill-rule="nonzero" fill="rgb(90.980392%, 0%, 0%)" fill-opacity="1" d="M 13.300781 7.675781 L 10.101562 7.675781 L 10.101562 21.335938 L 13.300781 21.335938 Z M 13.300781 7.675781 "/>
</g>
</defs>
<g mask="url(#mask-0)">
<use xlink:href="#source-6"/>
</g>
<g mask="url(#mask-1)">
<use xlink:href="#source-10"/>
</g>
<path fill-rule="nonzero" fill="rgb(99.607843%, 99.607843%, 99.607843%)" fill-opacity="1" d="M 13.300781 7.675781 L 11.757812 7.675781 L 11.757812 21.335938 L 13.300781 21.335938 Z M 13.300781 7.675781 "/>
<path fill="none" stroke-width="25" stroke-linecap="butt" stroke-linejoin="miter" stroke="rgb(0%, 0%, 0%)" stroke-opacity="1" stroke-miterlimit="4" d="M 221.08724 516.5625 L 345.31901 516.5625 " transform="matrix(0.0413793, 0, 0, 0.0413793, 0, 0)"/>
</svg>
