<?xml version="1.0" encoding="UTF-8"?>
<svg xmlns="http://www.w3.org/2000/svg" xmlns:xlink="http://www.w3.org/1999/xlink" width="12" height="12" viewBox="0 0 12 12" version="1.1">
<g id="surface1">
<path style=" stroke:none;fill-rule:nonzero;fill:rgb(99.607843%,99.607843%,99.607843%);fill-opacity:1;" d="M 3.230469 2.917969 C 2.542969 2.917969 1.972656 3.488281 1.972656 4.175781 L 1.972656 7.789062 C 1.972656 8.480469 2.542969 9.050781 3.230469 9.050781 L 8.765625 9.050781 C 9.457031 9.050781 10.027344 8.480469 10.027344 7.789062 L 10.027344 4.175781 C 10.027344 3.488281 9.457031 2.917969 8.765625 2.917969 Z M 3.230469 2.917969 "/>
<path style=" stroke:none;fill-rule:nonzero;fill:rgb(94.509804%,27.843139%,15.686275%);fill-opacity:1;" d="M 8.863281 3.457031 L 7.347656 3.457031 L 4.960938 5.140625 L 7.183594 5.140625 L 8.917969 6.863281 L 7.246094 8.542969 L 8.863281 8.542969 C 9.246094 8.542969 9.523438 8.164062 9.523438 7.898438 L 9.523438 4.109375 C 9.523438 3.835938 9.246094 3.457031 8.863281 3.457031 Z M 8.863281 3.457031 "/>
<path style=" stroke:none;fill-rule:nonzero;fill:rgb(12.156863%,30.980393%,63.921571%);fill-opacity:1;" d="M 3.132812 8.542969 L 4.644531 8.542969 L 7.03125 6.867188 L 4.8125 6.867188 L 3.074219 5.140625 L 4.753906 3.457031 L 3.132812 3.457031 C 2.75 3.457031 2.476562 3.835938 2.476562 4.113281 L 2.476562 7.898438 C 2.476562 8.164062 2.75 8.542969 3.132812 8.542969 Z M 3.132812 8.542969 "/>
<path style=" stroke:none;fill-rule:nonzero;fill:rgb(94.509804%,27.843139%,15.686275%);fill-opacity:1;" d="M 5.34375 5.300781 L 5.132812 5.300781 L 6.433594 6.601562 C 6.492188 6.652344 6.539062 6.710938 6.644531 6.703125 L 6.867188 6.703125 L 5.554688 5.40625 C 5.496094 5.339844 5.453125 5.300781 5.34375 5.300781 Z M 5.34375 5.300781 "/>
</g>
</svg>
