<?xml version="1.0" encoding="UTF-8"?>
<svg xmlns="http://www.w3.org/2000/svg" xmlns:xlink="http://www.w3.org/1999/xlink" width="12" height="12" viewBox="0 0 12 12" version="1.1">
<defs>
<filter id="alpha" filterUnits="objectBoundingBox" x="0%" y="0%" width="100%" height="100%">
  <feColorMatrix type="matrix" in="SourceGraphic" values="0 0 0 0 1 0 0 0 0 1 0 0 0 0 1 0 0 0 1 0"/>
</filter>
<mask id="mask0">
  <g filter="url(#alpha)">
<rect x="0" y="0" width="12" height="12" style="fill:rgb(0%,0%,0%);fill-opacity:0.426087;stroke:none;"/>
  </g>
</mask>
<clipPath id="clip1">
  <rect x="0" y="0" width="12" height="12"/>
</clipPath>
<g id="surface5" clip-path="url(#clip1)">
<path style=" stroke:none;fill-rule:nonzero;fill:rgb(67.450982%,84.705883%,95.294118%);fill-opacity:1;" d="M 6 2.800781 C 4.242188 2.800781 2.800781 4.242188 2.800781 6 C 2.800781 7.757812 4.242188 9.199219 6 9.199219 C 7.757812 9.199219 9.199219 7.757812 9.199219 6 C 9.199219 4.242188 7.757812 2.800781 6 2.800781 Z M 6 2.800781 "/>
</g>
</defs>
<g id="surface1">
<use xlink:href="#surface5" mask="url(#mask0)"/>
<path style="fill:none;stroke-width:61.508598;stroke-linecap:butt;stroke-linejoin:miter;stroke:rgb(0%,0%,0%);stroke-opacity:1;stroke-miterlimit:4;" d="M 719.088542 530 C 719.088542 554.84375 713.91276 579.342448 704.596354 602.460938 C 694.934896 625.234375 681.132813 645.9375 663.535156 663.535156 C 645.9375 681.132813 625.234375 694.934896 602.460938 704.596354 C 579.342448 714.257813 554.84375 719.088542 530 719.088542 C 505.15625 719.088542 480.657552 714.257813 457.539063 704.596354 C 434.765625 694.934896 414.0625 681.132813 396.464844 663.535156 C 378.867188 645.9375 364.720052 625.234375 355.403646 602.460938 C 345.742188 579.342448 340.911458 554.84375 340.911458 530 C 340.911458 505.15625 345.742188 480.657552 355.403646 457.539063 C 364.720052 434.765625 378.867188 413.717448 396.464844 396.464844 C 414.0625 378.867188 434.765625 364.720052 457.539063 355.403646 C 480.657552 345.742188 505.15625 340.911458 530 340.911458 C 554.84375 340.911458 579.342448 345.742188 602.460938 355.403646 C 625.234375 364.720052 645.9375 378.867188 663.535156 396.464844 C 681.132813 413.717448 694.934896 434.765625 704.596354 457.539063 C 713.91276 480.657552 719.088542 505.15625 719.088542 530 Z M 719.088542 530 " transform="matrix(0.0113208,0,0,0.0113208,0,0)"/>
<path style=" stroke:none;fill-rule:nonzero;fill:rgb(0%,0%,0%);fill-opacity:1;" d="M 6.988281 6 C 6.988281 6.261719 6.886719 6.515625 6.699219 6.699219 C 6.515625 6.886719 6.261719 6.988281 6 6.988281 C 5.738281 6.988281 5.484375 6.886719 5.300781 6.699219 C 5.113281 6.515625 5.011719 6.261719 5.011719 6 C 5.011719 5.738281 5.113281 5.484375 5.300781 5.300781 C 5.484375 5.113281 5.738281 5.011719 6 5.011719 C 6.261719 5.011719 6.515625 5.113281 6.699219 5.300781 C 6.886719 5.484375 6.988281 5.738281 6.988281 6 Z M 6.988281 6 "/>
</g>
</svg>
