<?xml version="1.0" encoding="UTF-8"?>
<svg xmlns="http://www.w3.org/2000/svg" xmlns:xlink="http://www.w3.org/1999/xlink" width="24" height="24" viewBox="0 0 24 24">
<path fill-rule="nonzero" fill="rgb(74.901961%, 74.901961%, 74.901961%)" fill-opacity="1" d="M 3.371094 15.980469 C 4.867188 19.246094 8.152344 21.492188 12 21.492188 C 15.847656 21.492188 19.132812 19.246094 20.628906 15.980469 Z M 3.371094 15.980469 "/>
<path fill-rule="nonzero" fill="rgb(17.254902%, 17.254902%, 17.254902%)" fill-opacity="1" d="M 15.929688 4.273438 L 15.40625 5.351562 L 15.40625 5.898438 L 8.621094 5.898438 L 8.621094 5.351562 L 8.121094 4.285156 L 7.246094 4.277344 L 6.757812 5.363281 L 6.730469 9.75 L 2.800781 9.75 C 2.742188 9.992188 2.695312 10.234375 2.65625 10.480469 L 6.726562 10.480469 L 6.722656 11.101562 L 2.585938 11.074219 C 2.558594 11.367188 2.542969 11.660156 2.542969 11.957031 C 2.542969 12.101562 2.550781 12.242188 2.554688 12.378906 C 3.34375 12.382812 4.273438 12.390625 4.671875 12.390625 C 5.675781 12.503906 5.6875 13.382812 5.6875 13.609375 L 5.6875 15.460938 C 5.378906 15.53125 5.078125 15.558594 4.84375 15.558594 C 4.371094 15.558594 3.621094 15.445312 3.0625 15.070312 C 3.234375 15.574219 3.449219 16.058594 3.699219 16.515625 C 4.113281 16.652344 4.539062 16.699219 4.84375 16.699219 C 5.351562 16.699219 6.179688 16.574219 6.75 16.128906 C 7.320312 16.574219 8.144531 16.699219 8.652344 16.699219 C 8.6875 16.699219 8.71875 16.699219 8.75 16.699219 C 9.757812 16.683594 10.1875 16.4375 10.558594 16.128906 C 10.574219 16.144531 10.59375 16.15625 10.609375 16.171875 C 10.703125 16.238281 10.800781 16.296875 10.902344 16.347656 C 10.941406 16.367188 10.980469 16.386719 11.023438 16.40625 C 11.046875 16.417969 11.074219 16.425781 11.097656 16.4375 C 11.113281 16.445312 11.132812 16.453125 11.148438 16.457031 C 11.277344 16.507812 11.40625 16.546875 11.53125 16.582031 C 11.617188 16.601562 11.703125 16.621094 11.785156 16.636719 C 11.828125 16.644531 11.867188 16.652344 11.910156 16.65625 C 11.992188 16.671875 12.070312 16.679688 12.144531 16.6875 C 12.222656 16.691406 12.292969 16.695312 12.363281 16.699219 C 12.394531 16.699219 12.429688 16.699219 12.460938 16.699219 C 12.492188 16.699219 12.527344 16.699219 12.558594 16.699219 C 12.628906 16.695312 12.699219 16.691406 12.777344 16.6875 C 12.851562 16.679688 12.929688 16.671875 13.011719 16.65625 C 13.054688 16.652344 13.09375 16.644531 13.136719 16.636719 C 13.21875 16.621094 13.304688 16.601562 13.390625 16.582031 C 13.515625 16.546875 13.644531 16.507812 13.773438 16.457031 C 13.855469 16.425781 13.941406 16.390625 14.019531 16.347656 C 14.121094 16.296875 14.21875 16.238281 14.3125 16.171875 C 14.328125 16.15625 14.347656 16.144531 14.363281 16.128906 C 14.382812 16.144531 14.402344 16.15625 14.417969 16.171875 C 14.511719 16.238281 14.609375 16.296875 14.710938 16.347656 C 14.789062 16.390625 14.875 16.425781 14.957031 16.457031 C 15.082031 16.507812 15.214844 16.546875 15.339844 16.582031 C 15.425781 16.601562 15.511719 16.621094 15.59375 16.636719 C 15.636719 16.644531 15.675781 16.652344 15.71875 16.65625 C 15.792969 16.667969 15.871094 16.679688 15.941406 16.683594 C 15.945312 16.683594 15.949219 16.6875 15.953125 16.6875 C 15.957031 16.6875 15.960938 16.6875 15.960938 16.6875 C 16.035156 16.691406 16.105469 16.695312 16.171875 16.699219 C 16.203125 16.699219 16.238281 16.699219 16.269531 16.699219 C 16.777344 16.699219 17.601562 16.574219 18.171875 16.128906 C 18.746094 16.574219 19.570312 16.699219 20.078125 16.699219 C 20.136719 16.699219 20.199219 16.699219 20.265625 16.695312 C 20.339844 16.566406 20.410156 16.4375 20.476562 16.304688 C 20.511719 16.238281 20.546875 16.167969 20.578125 16.097656 C 20.582031 16.097656 20.582031 16.097656 20.582031 16.097656 C 20.605469 16.046875 20.628906 15.992188 20.652344 15.941406 C 20.675781 15.894531 20.699219 15.84375 20.71875 15.792969 C 20.71875 15.792969 20.71875 15.789062 20.71875 15.789062 C 20.722656 15.789062 20.722656 15.785156 20.722656 15.785156 C 20.742188 15.734375 20.765625 15.683594 20.785156 15.632812 C 20.808594 15.578125 20.828125 15.527344 20.851562 15.472656 C 20.5625 15.535156 20.292969 15.558594 20.078125 15.558594 C 19.628906 15.558594 18.929688 15.460938 18.382812 15.128906 L 18.382812 13.609375 C 18.382812 13.332031 18.480469 12.410156 19.550781 12.347656 C 19.875 12.34375 20.71875 12.34375 21.503906 12.339844 C 21.507812 12.21875 21.511719 12.097656 21.511719 11.976562 C 21.511719 11.671875 21.496094 11.367188 21.46875 11.070312 L 17.222656 11.074219 L 17.222656 10.480469 L 21.425781 10.480469 C 21.386719 10.234375 21.339844 9.992188 21.28125 9.75 L 17.222656 9.75 L 17.226562 5.355469 L 16.683594 4.28125 Z M 8.621094 6.589844 L 15.40625 6.589844 L 15.40625 7.109375 L 8.621094 7.109375 Z M 8.621094 8.601562 L 15.40625 8.601562 L 15.40625 12.730469 C 15.625 12.960938 15.84375 13.269531 15.84375 13.609375 L 15.84375 15.53125 C 15.839844 15.53125 15.839844 15.53125 15.839844 15.53125 C 15.679688 15.511719 15.511719 15.484375 15.339844 15.441406 C 15.269531 15.421875 15.195312 15.398438 15.125 15.375 C 15.027344 15.34375 14.929688 15.308594 14.832031 15.265625 C 14.75 15.226562 14.667969 15.1875 14.589844 15.140625 C 14.550781 15.117188 14.511719 15.09375 14.476562 15.066406 C 14.457031 15.054688 14.4375 15.042969 14.417969 15.027344 C 14.402344 15.015625 14.382812 15 14.363281 14.988281 C 14.328125 15.015625 14.292969 15.042969 14.253906 15.066406 C 14.21875 15.09375 14.179688 15.117188 14.140625 15.140625 C 14.0625 15.1875 13.980469 15.226562 13.898438 15.265625 C 13.816406 15.300781 13.730469 15.335938 13.644531 15.363281 C 13.5625 15.390625 13.472656 15.417969 13.390625 15.441406 C 13.21875 15.484375 13.050781 15.511719 12.890625 15.53125 C 12.8125 15.539062 12.738281 15.546875 12.664062 15.550781 C 12.628906 15.554688 12.59375 15.554688 12.558594 15.558594 C 12.527344 15.558594 12.492188 15.558594 12.460938 15.558594 C 12.398438 15.558594 12.328125 15.554688 12.257812 15.550781 C 12.183594 15.546875 12.109375 15.539062 12.03125 15.53125 C 11.871094 15.511719 11.703125 15.484375 11.53125 15.441406 C 11.449219 15.417969 11.363281 15.390625 11.277344 15.363281 C 11.179688 15.328125 11.082031 15.289062 10.984375 15.246094 C 10.914062 15.210938 10.847656 15.179688 10.78125 15.140625 C 10.742188 15.117188 10.703125 15.09375 10.667969 15.066406 C 10.648438 15.054688 10.628906 15.042969 10.609375 15.027344 C 10.59375 15.015625 10.574219 15 10.558594 14.988281 C 10.519531 15.015625 10.484375 15.042969 10.445312 15.066406 C 10.410156 15.09375 10.371094 15.117188 10.332031 15.140625 C 10.253906 15.1875 10.171875 15.226562 10.089844 15.265625 C 10.007812 15.300781 9.921875 15.335938 9.839844 15.363281 C 9.753906 15.390625 9.667969 15.417969 9.582031 15.441406 C 9.410156 15.484375 9.242188 15.511719 9.085938 15.53125 C 9.007812 15.539062 8.929688 15.546875 8.859375 15.550781 C 8.820312 15.554688 8.785156 15.554688 8.75 15.558594 C 8.71875 15.558594 8.683594 15.558594 8.652344 15.558594 C 8.527344 15.558594 8.382812 15.550781 8.226562 15.53125 L 8.226562 13.609375 C 8.226562 13.25 8.378906 12.925781 8.621094 12.695312 Z M 6.324219 17.296875 C 5.8125 17.695312 5.097656 17.835938 4.589844 17.863281 C 4.875 18.222656 5.183594 18.5625 5.519531 18.878906 C 5.875 18.773438 6.109375 18.617188 6.324219 18.441406 C 6.894531 18.882812 7.71875 19.011719 8.226562 19.011719 C 8.734375 19.011719 9.558594 18.882812 10.132812 18.441406 C 10.703125 18.882812 11.527344 19.011719 12.035156 19.011719 C 12.542969 19.011719 13.367188 18.882812 13.9375 18.441406 C 14.507812 18.882812 15.335938 19.011719 15.84375 19.011719 C 16.351562 19.011719 17.175781 18.882812 17.746094 18.441406 C 17.992188 18.628906 18.285156 18.761719 18.578125 18.851562 C 18.902344 18.542969 19.203125 18.214844 19.480469 17.863281 C 18.972656 17.839844 18.257812 17.695312 17.746094 17.296875 C 17.175781 17.742188 16.351562 17.867188 15.84375 17.867188 C 15.335938 17.867188 14.507812 17.742188 13.9375 17.296875 C 13.367188 17.742188 12.542969 17.867188 12.035156 17.867188 C 11.527344 17.867188 10.703125 17.742188 10.132812 17.296875 C 9.558594 17.742188 8.734375 17.867188 8.226562 17.867188 C 7.71875 17.867188 6.894531 17.742188 6.324219 17.296875 Z M 6.324219 17.296875 "/>
<path fill-rule="nonzero" fill="rgb(17.254902%, 17.254902%, 17.254902%)" fill-opacity="1" d="M 10.238281 11.621094 L 10.238281 12.882812 L 13.644531 12.882812 L 13.644531 11.621094 C 13.644531 11.382812 13.441406 11.179688 13.203125 11.179688 L 10.679688 11.179688 C 10.441406 11.179688 10.238281 11.382812 10.238281 11.621094 Z M 10.238281 11.621094 "/>
<path fill-rule="nonzero" fill="rgb(17.254902%, 17.254902%, 17.254902%)" fill-opacity="1" d="M 11.558594 10.15625 L 11.558594 10.835938 L 12.324219 10.835938 L 12.324219 10.15625 C 12.328125 9.71875 11.566406 9.726562 11.558594 10.15625 Z M 11.558594 10.15625 "/>
<path fill-rule="nonzero" fill="rgb(17.254902%, 17.254902%, 17.254902%)" fill-opacity="1" d="M 14.667969 13.222656 L 9.214844 13.222656 L 9.214844 13.972656 C 9.214844 14.589844 9.488281 15.132812 9.964844 15.507812 L 11.941406 16.589844 L 13.917969 15.507812 C 14.394531 15.132812 14.667969 14.589844 14.667969 13.972656 Z M 13.988281 14.078125 L 13.304688 14.246094 L 13.304688 13.90625 L 13.988281 13.90625 Z M 10.578125 14.246094 L 9.894531 14.078125 L 9.894531 13.90625 L 10.578125 13.90625 Z M 10.578125 14.246094 "/>
</svg>
