<?xml version="1.0" encoding="UTF-8"?>
<svg xmlns="http://www.w3.org/2000/svg" xmlns:xlink="http://www.w3.org/1999/xlink" width="32" height="32" viewBox="0 0 32 32">
<defs>
<filter id="filter-remove-color" x="0%" y="0%" width="100%" height="100%">
<feColorMatrix color-interpolation-filters="sRGB" values="0 0 0 0 1 0 0 0 0 1 0 0 0 0 1 0 0 0 1 0" />
</filter>
<mask id="mask-0">
<g filter="url(#filter-remove-color)">
<rect x="-3.2" y="-3.2" width="38.4" height="38.4" fill="rgb(0%, 0%, 0%)" fill-opacity="0.426087"/>
</g>
</mask>
<clipPath id="clip-0">
<rect x="0" y="0" width="32" height="32"/>
</clipPath>
<g id="source-6" clip-path="url(#clip-0)">
<path fill-rule="nonzero" fill="rgb(55.294118%, 55.294118%, 55.294118%)" fill-opacity="1" d="M 8.679688 7.25 C 8.382812 7.257812 8.097656 7.382812 7.886719 7.597656 L 6.824219 8.679688 C 6.71875 8.789062 6.632812 8.917969 6.578125 9.058594 C 6.519531 9.199219 6.492188 9.347656 6.496094 9.5 C 6.496094 9.648438 6.527344 9.800781 6.585938 9.9375 C 6.644531 10.078125 6.730469 10.203125 6.839844 10.308594 L 13.535156 16.875 L 13.535156 26.660156 L 12.855469 26.660156 C 12.707031 26.660156 12.554688 26.6875 12.417969 26.746094 C 12.277344 26.804688 12.148438 26.890625 12.042969 26.996094 C 11.933594 27.101562 11.851562 27.230469 11.792969 27.371094 C 11.734375 27.507812 11.707031 27.660156 11.707031 27.808594 L 11.707031 29.191406 C 11.707031 29.339844 11.734375 29.492188 11.792969 29.628906 C 11.851562 29.769531 11.933594 29.898438 12.042969 30.003906 C 12.148438 30.109375 12.277344 30.195312 12.417969 30.253906 C 12.554688 30.3125 12.707031 30.339844 12.855469 30.339844 L 18.398438 30.339844 C 18.546875 30.339844 18.699219 30.3125 18.835938 30.253906 C 18.976562 30.195312 19.105469 30.109375 19.210938 30.003906 C 19.316406 29.898438 19.402344 29.769531 19.460938 29.628906 C 19.519531 29.492188 19.546875 29.339844 19.546875 29.191406 L 19.546875 27.808594 C 19.546875 27.660156 19.519531 27.507812 19.460938 27.371094 C 19.402344 27.230469 19.316406 27.101562 19.210938 26.996094 C 19.105469 26.890625 18.976562 26.804688 18.835938 26.746094 C 18.699219 26.6875 18.546875 26.660156 18.398438 26.660156 L 17.671875 26.660156 L 17.671875 17.050781 L 24.550781 10.308594 C 24.769531 10.097656 24.890625 9.804688 24.894531 9.5 C 24.898438 9.195312 24.777344 8.902344 24.566406 8.683594 L 23.503906 7.597656 C 23.289062 7.378906 23 7.257812 22.691406 7.253906 C 22.386719 7.25 22.09375 7.367188 21.875 7.582031 L 15.695312 13.636719 L 9.515625 7.582031 C 9.40625 7.472656 9.277344 7.386719 9.132812 7.332031 C 8.988281 7.273438 8.835938 7.246094 8.679688 7.25 Z M 8.679688 7.25 "/>
</g>
</defs>
<g mask="url(#mask-0)">
<use xlink:href="#source-6"/>
</g>
<path fill-rule="nonzero" fill="rgb(0%, 87.45098%, 4.705882%)" fill-opacity="1" d="M 16.519531 15.214844 L 14.6875 15.214844 L 14.6875 28.449219 L 16.519531 28.449219 Z M 16.519531 15.214844 "/>
<path fill="none" stroke-width="25" stroke-linecap="butt" stroke-linejoin="miter" stroke="rgb(0%, 0%, 0%)" stroke-opacity="1" stroke-miterlimit="4" d="M 233.005371 516.5625 L 333.400879 516.5625 " transform="matrix(0.0551724, 0, 0, 0.0551724, 0, 0)"/>
<path fill-rule="nonzero" fill="rgb(0%, 87.45098%, 4.705882%)" fill-opacity="1" d="M 15.085938 16.78125 L 16.148438 15.695312 L 8.707031 8.402344 L 7.644531 9.488281 Z M 15.085938 16.78125 "/>
<path fill-rule="nonzero" fill="rgb(0%, 87.45098%, 4.705882%)" fill-opacity="1" d="M 16.300781 16.78125 L 15.238281 15.695312 L 22.675781 8.402344 L 23.742188 9.488281 Z M 16.300781 16.78125 "/>
</svg>
