<?xml version="1.0" encoding="UTF-8"?>
<svg xmlns="http://www.w3.org/2000/svg" xmlns:xlink="http://www.w3.org/1999/xlink" width="12" height="12" viewBox="0 0 12 12">
<path fill-rule="evenodd" fill="rgb(100%, 100%, 100%)" fill-opacity="1" d="M 3.5 0.5 C 3.222656 0.5 3 0.722656 3 1 L 3 10.5 C 3 10.777344 3.222656 11 3.5 11 L 4 11 C 4.277344 11 4.5 10.777344 4.5 10.5 L 4.5 9.5 L 8 9.5 L 8 10.5 C 8 10.777344 8.222656 11 8.5 11 L 9 11 C 9.277344 11 9.5 10.777344 9.5 10.5 L 9.5 1 C 9.5 0.722656 9.277344 0.5 9 0.5 L 8.5 0.5 C 8.222656 0.5 8 0.722656 8 1 L 8 2 L 4.5 2 L 4.5 1 C 4.5 0.722656 4.277344 0.5 4 0.5 Z M 4.5 3.5 L 8 3.5 L 8 4 L 4.5 4 Z M 4.5 5.5 L 8 5.5 L 8 6 L 4.5 6 Z M 4.5 7.5 L 8 7.5 L 8 8 L 4.5 8 Z M 4.5 7.5 "/>
<path fill="none" stroke-width="2" stroke-linecap="butt" stroke-linejoin="miter" stroke="rgb(0%, 0%, 0%)" stroke-opacity="1" stroke-miterlimit="4" d="M 15 42 L 15 4 " transform="matrix(0.25, 0, 0, 0.25, 0, 0)"/>
<path fill="none" stroke-width="2" stroke-linecap="butt" stroke-linejoin="miter" stroke="rgb(0%, 0%, 0%)" stroke-opacity="1" stroke-miterlimit="4" d="M 35 42 L 35 4 " transform="matrix(0.25, 0, 0, 0.25, 0, 0)"/>
<path fill="none" stroke-width="2" stroke-linecap="butt" stroke-linejoin="miter" stroke="rgb(0%, 0%, 0%)" stroke-opacity="1" stroke-miterlimit="4" d="M 16 11 L 34 11 " transform="matrix(0.25, 0, 0, 0.25, 0, 0)"/>
<path fill="none" stroke-width="2" stroke-linecap="butt" stroke-linejoin="miter" stroke="rgb(0%, 0%, 0%)" stroke-opacity="1" stroke-miterlimit="4" d="M 16 19 L 34 19 " transform="matrix(0.25, 0, 0, 0.25, 0, 0)"/>
<path fill="none" stroke-width="2" stroke-linecap="butt" stroke-linejoin="miter" stroke="rgb(0%, 0%, 0%)" stroke-opacity="1" stroke-miterlimit="4" d="M 16 27 L 34 27 " transform="matrix(0.25, 0, 0, 0.25, 0, 0)"/>
<path fill="none" stroke-width="2" stroke-linecap="butt" stroke-linejoin="miter" stroke="rgb(0%, 0%, 0%)" stroke-opacity="1" stroke-miterlimit="4" d="M 16 35 L 34 35 " transform="matrix(0.25, 0, 0, 0.25, 0, 0)"/>
</svg>
