<?xml version="1.0" encoding="UTF-8"?>
<svg xmlns="http://www.w3.org/2000/svg" xmlns:xlink="http://www.w3.org/1999/xlink" width="24" height="24" viewBox="0 0 24 24">
<defs>
<filter id="filter-remove-color" x="0%" y="0%" width="100%" height="100%">
<feColorMatrix color-interpolation-filters="sRGB" values="0 0 0 0 1 0 0 0 0 1 0 0 0 0 1 0 0 0 1 0" />
</filter>
<mask id="mask-0">
<g filter="url(#filter-remove-color)">
<rect x="-2.4" y="-2.4" width="28.8" height="28.8" fill="rgb(0%, 0%, 0%)" fill-opacity="0.426087"/>
</g>
</mask>
<clipPath id="clip-0">
<rect x="0" y="0" width="24" height="24"/>
</clipPath>
<g id="source-6" clip-path="url(#clip-0)">
<path fill-rule="nonzero" fill="rgb(67.45098%, 84.705882%, 95.294118%)" fill-opacity="1" d="M 8.742188 0.0585938 L 8.742188 0.078125 C 8.722656 0.0703125 8.722656 0.0625 8.738281 0.0625 C 8.785156 0.0625 8.203125 0.125 8.269531 0.113281 C 8.261719 0.113281 8.25 0.117188 8.242188 0.117188 C 8.390625 0.0859375 7.300781 0.605469 7.167969 0.640625 C 7.113281 0.746094 6.511719 1.492188 6.417969 1.566406 C 6.414062 1.6875 6.195312 2.621094 6.144531 2.726562 C 6.191406 2.828125 6.351562 3.558594 6.394531 3.8125 L 6.363281 3.824219 L 7.738281 7.054688 C 7.679688 6.917969 8.363281 7.875 8.417969 7.992188 C 8.460938 8.003906 8.632812 8.097656 8.816406 8.199219 L 7.882812 9.097656 C 7.652344 9.320312 7.480469 9.597656 7.382812 9.90625 C 7.285156 10.050781 7.207031 10.160156 7.222656 10.121094 C 7.269531 10.003906 7.039062 11.371094 7.03125 11.269531 L 7.03125 11.277344 L 7.105469 13.273438 L 4.757812 14.457031 C 4.742188 14.460938 4.730469 14.46875 4.714844 14.476562 C 4.824219 14.421875 3.78125 15.269531 3.855469 15.175781 C 3.90625 15.113281 3.695312 15.507812 3.519531 15.816406 L 3.261719 15.777344 L 3.21875 15.769531 L 3.21875 15.773438 C 3.1875 15.777344 2.664062 15.738281 2.726562 15.734375 C 2.726562 15.734375 2.722656 15.734375 2.722656 15.734375 L 2.722656 15.738281 C 2.847656 15.738281 1.621094 15.996094 1.75 15.941406 C 1.882812 15.886719 0.816406 16.589844 0.917969 16.492188 C 1.023438 16.394531 0.285156 17.4375 0.34375 17.308594 C 0.402344 17.175781 0.0976562 18.417969 0.105469 18.273438 C 0.113281 18.132812 0.28125 19.398438 0.238281 19.261719 C 0.195312 19.128906 0.8125 20.246094 0.71875 20.136719 C 0.6875 20.097656 0.800781 20.183594 0.9375 20.292969 C 0.753906 20.597656 0.660156 20.945312 0.664062 21.300781 C 0.667969 21.65625 0.769531 22.003906 0.960938 22.304688 C 1.152344 22.601562 1.421875 22.84375 1.742188 23 C 2.058594 23.15625 2.417969 23.21875 2.769531 23.183594 C 2.769531 23.183594 3.613281 23.097656 4.613281 22.832031 C 5.355469 22.636719 6.238281 22.390625 7.070312 21.804688 L 20.714844 23.925781 L 20.757812 23.929688 L 20.757812 23.917969 C 20.855469 23.894531 21.910156 23.871094 21.777344 23.902344 C 21.628906 23.933594 22.871094 23.378906 22.746094 23.46875 C 22.625 23.554688 23.554688 22.5625 23.472656 22.691406 C 23.394531 22.820312 23.863281 21.542969 23.839844 21.691406 C 23.816406 21.84375 23.757812 20.484375 23.792969 20.628906 C 23.828125 20.777344 23.246094 19.546875 23.335938 19.667969 C 23.425781 19.789062 22.410156 18.886719 22.542969 18.960938 C 22.660156 19.03125 21.65625 18.6875 21.578125 18.636719 L 21.582031 18.625 L 21.539062 18.617188 L 16.746094 17.871094 L 17.40625 15.261719 C 17.410156 15.25 17.414062 15.242188 17.414062 15.234375 C 17.375 15.402344 17.257812 13.695312 17.292969 13.550781 C 17.183594 13.46875 16.402344 12.472656 16.269531 12.25 L 16.289062 12.226562 L 16.261719 12.210938 L 16.253906 12.222656 C 16.25 12.207031 16.25 12.203125 16.261719 12.210938 L 15.929688 11.96875 L 15.996094 11.910156 L 18.710938 14.109375 C 18.71875 14.117188 18.730469 14.125 18.738281 14.132812 C 18.621094 14.042969 19.808594 14.640625 19.667969 14.601562 C 19.523438 14.558594 20.851562 14.664062 20.703125 14.683594 C 20.554688 14.699219 21.824219 14.289062 21.691406 14.363281 C 21.5625 14.433594 22.578125 13.578125 22.488281 13.691406 C 22.394531 13.808594 23.011719 12.628906 22.96875 12.769531 C 22.925781 12.910156 23.046875 11.585938 23.0625 11.734375 C 23.078125 11.882812 22.6875 10.609375 22.757812 10.742188 C 22.828125 10.871094 21.980469 9.84375 22.09375 9.9375 C 22.09375 9.933594 22.089844 9.929688 22.085938 9.929688 L 18.90625 7.351562 C 19.578125 6.660156 19.996094 5.71875 19.996094 4.691406 C 19.996094 2.589844 18.253906 0.84375 16.152344 0.84375 C 14.335938 0.84375 12.789062 2.152344 12.402344 3.863281 L 12.1875 3.796875 L 11.292969 1.710938 C 11.300781 1.734375 11.292969 1.734375 11.273438 1.71875 L 11.292969 1.710938 L 11.285156 1.691406 L 11.253906 1.703125 C 11.078125 1.550781 10.335938 0.660156 10.261719 0.507812 C 10.09375 0.503906 8.925781 0.175781 8.746094 0.0820312 L 8.746094 0.0585938 C 8.75 0.0585938 8.742188 0.0585938 8.742188 0.0585938 Z M 6.40625 3.890625 C 6.414062 3.925781 6.429688 3.894531 6.40625 3.890625 Z M 12.546875 16.46875 C 12.550781 16.46875 12.554688 16.472656 12.546875 16.484375 C 12.539062 16.496094 12.535156 16.488281 12.535156 16.476562 C 12.539062 16.476562 12.546875 16.472656 12.546875 16.46875 Z M 12.546875 16.46875 "/>
</g>
</defs>
<g mask="url(#mask-0)">
<use xlink:href="#source-6"/>
</g>
<path fill-rule="nonzero" fill="rgb(69.019608%, 11.372549%, 11.372549%)" fill-opacity="1" d="M 8.804688 1.953125 C 8.757812 1.953125 8.710938 1.960938 8.667969 1.96875 C 8.554688 1.996094 8.449219 2.042969 8.355469 2.117188 C 8.265625 2.1875 8.191406 2.28125 8.140625 2.382812 C 8.089844 2.488281 8.0625 2.601562 8.0625 2.71875 C 8.0625 2.835938 8.085938 2.949219 8.136719 3.054688 L 9.511719 6.285156 C 9.554688 6.390625 9.621094 6.480469 9.707031 6.554688 C 9.789062 6.632812 9.886719 6.6875 9.996094 6.71875 L 12.347656 7.453125 L 9.222656 10.457031 L 9.234375 10.464844 C 9.140625 10.558594 9.070312 10.671875 9.023438 10.792969 C 8.972656 10.917969 8.953125 11.046875 8.957031 11.179688 L 9.078125 14.410156 L 5.628906 16.148438 C 5.398438 16.261719 5.226562 16.464844 5.144531 16.707031 C 5.0625 16.953125 5.082031 17.21875 5.195312 17.449219 C 5.3125 17.679688 5.511719 17.855469 5.757812 17.9375 C 6 18.015625 6.265625 18 6.496094 17.882812 L 10.5 15.882812 C 10.667969 15.796875 10.808594 15.664062 10.902344 15.503906 C 10.996094 15.339844 11.039062 15.152344 11.03125 14.964844 L 10.960938 13.085938 L 13.539062 14.941406 L 12.765625 18.003906 C 12.71875 18.128906 12.699219 18.261719 12.707031 18.390625 C 12.714844 18.523438 12.746094 18.652344 12.804688 18.773438 C 12.863281 18.890625 12.945312 18.996094 13.046875 19.082031 C 13.148438 19.164062 13.265625 19.230469 13.394531 19.265625 L 2.9375 17.640625 C 2.886719 17.632812 2.835938 17.628906 2.785156 17.632812 C 2.589844 17.636719 2.40625 17.714844 2.269531 17.851562 C 2.132812 17.984375 2.050781 18.167969 2.039062 18.359375 C 2.027344 18.554688 2.089844 18.742188 2.214844 18.890625 C 2.335938 19.039062 2.507812 19.140625 2.699219 19.167969 L 3.882812 19.351562 L 2.585938 21.257812 C 2.585938 21.257812 5.414062 20.96875 6.5 19.757812 L 21.0625 22.019531 C 21.164062 22.039062 21.269531 22.035156 21.367188 22.011719 C 21.46875 21.992188 21.5625 21.949219 21.648438 21.890625 C 21.730469 21.828125 21.800781 21.753906 21.855469 21.664062 C 21.910156 21.578125 21.945312 21.480469 21.960938 21.378906 C 21.976562 21.277344 21.972656 21.171875 21.949219 21.074219 C 21.921875 20.972656 21.878906 20.878906 21.816406 20.796875 C 21.753906 20.714844 21.675781 20.648438 21.589844 20.59375 C 21.5 20.542969 21.402344 20.507812 21.300781 20.496094 L 13.652344 19.308594 C 13.886719 19.3125 14.113281 19.230469 14.292969 19.078125 C 14.472656 18.929688 14.589844 18.71875 14.625 18.484375 L 15.5625 14.773438 C 15.609375 14.585938 15.59375 14.386719 15.527344 14.207031 C 15.457031 14.027344 15.335938 13.871094 15.175781 13.761719 L 12.914062 12.121094 L 15.933594 9.367188 L 19.929688 12.601562 C 20.007812 12.671875 20.097656 12.722656 20.195312 12.753906 C 20.296875 12.785156 20.398438 12.796875 20.503906 12.785156 C 20.605469 12.777344 20.707031 12.746094 20.796875 12.695312 C 20.886719 12.648438 20.96875 12.578125 21.035156 12.5 C 21.097656 12.417969 21.144531 12.324219 21.175781 12.226562 C 21.203125 12.125 21.210938 12.019531 21.195312 11.917969 C 21.183594 11.816406 21.148438 11.714844 21.097656 11.625 C 21.042969 11.539062 20.972656 11.460938 20.890625 11.398438 L 15.175781 6.769531 C 15.105469 6.707031 15.023438 6.65625 14.9375 6.625 L 10.789062 5.347656 L 9.535156 2.429688 C 9.476562 2.285156 9.375 2.164062 9.242188 2.078125 C 9.113281 1.992188 8.960938 1.949219 8.804688 1.953125 Z M 16.167969 2.742188 C 15.101562 2.742188 14.238281 3.605469 14.238281 4.671875 C 14.238281 5.734375 15.101562 6.597656 16.167969 6.597656 C 17.230469 6.597656 18.09375 5.734375 18.09375 4.671875 C 18.09375 3.605469 17.230469 2.742188 16.167969 2.742188 Z M 16.167969 2.742188 "/>
</svg>
