<?xml version="1.0" encoding="UTF-8"?>
<svg xmlns="http://www.w3.org/2000/svg" xmlns:xlink="http://www.w3.org/1999/xlink" width="12" height="12" viewBox="0 0 12 12" version="1.1">
<defs>
<filter id="alpha" filterUnits="objectBoundingBox" x="0%" y="0%" width="100%" height="100%">
  <feColorMatrix type="matrix" in="SourceGraphic" values="0 0 0 0 1 0 0 0 0 1 0 0 0 0 1 0 0 0 1 0"/>
</filter>
<mask id="mask0">
  <g filter="url(#alpha)">
<rect x="0" y="0" width="12" height="12" style="fill:rgb(0%,0%,0%);fill-opacity:0.426087;stroke:none;"/>
  </g>
</mask>
<clipPath id="clip1">
  <rect x="0" y="0" width="12" height="12"/>
</clipPath>
<g id="surface5" clip-path="url(#clip1)">
<path style=" stroke:none;fill-rule:nonzero;fill:rgb(67.450982%,84.705883%,95.294118%);fill-opacity:1;" d="M 4.945312 0.816406 C 4.816406 0.816406 4.683594 0.871094 4.589844 0.960938 C 4.5 1.054688 4.445312 1.1875 4.445312 1.316406 L 4.445312 1.933594 C 4.445312 2.078125 4.511719 2.222656 4.621094 2.316406 L 4.621094 2.484375 L 4.460938 3.105469 C 4.40625 2.8125 4.292969 2.53125 4.125 2.261719 C 3.875 1.859375 3.515625 1.480469 3.027344 1.027344 C 2.898438 0.90625 2.703125 0.863281 2.535156 0.914062 C 2.367188 0.96875 2.230469 1.117188 2.195312 1.289062 C 2.109375 1.6875 1.933594 1.980469 1.738281 2.3125 C 1.539062 2.644531 1.304688 3.035156 1.304688 3.554688 C 1.304688 4.25 1.820312 4.773438 2.382812 4.964844 C 2.546875 5.023438 2.742188 4.984375 2.875 4.871094 C 2.984375 4.976562 3.140625 5.027344 3.289062 5.003906 C 3.601562 4.960938 3.875 4.804688 4.085938 4.585938 L 3.824219 5.679688 C 6.316406 5.671875 5.71875 5.6875 8.148438 5.679688 L 7.820312 4.433594 C 8.089844 4.75 8.492188 4.953125 8.9375 4.953125 C 9.746094 4.953125 10.414062 4.289062 10.414062 3.480469 C 10.414062 2.90625 10.113281 2.441406 9.855469 2.011719 C 9.597656 1.578125 9.339844 1.238281 9.339844 1.238281 C 9.246094 1.113281 9.09375 1.035156 8.9375 1.035156 C 8.78125 1.035156 8.625 1.117188 8.535156 1.242188 C 8.535156 1.242188 8.277344 1.59375 8.023438 2.027344 C 7.8125 2.375 7.582031 2.738281 7.5 3.167969 L 7.324219 2.484375 L 7.324219 2.316406 C 7.433594 2.222656 7.5 2.078125 7.5 1.933594 L 7.5 1.316406 C 7.5 1.1875 7.445312 1.054688 7.355469 0.960938 C 7.261719 0.871094 7.128906 0.816406 7 0.816406 Z M 2.988281 4.035156 C 2.964844 4.0625 2.945312 4.085938 2.933594 4.09375 C 2.917969 4.105469 2.902344 4.117188 2.890625 4.128906 C 2.878906 4.117188 2.867188 4.105469 2.855469 4.097656 C 2.851562 4.09375 2.84375 4.082031 2.839844 4.074219 C 2.890625 4.070312 2.941406 4.054688 2.988281 4.035156 Z M 2.988281 4.035156 "/>
</g>
</defs>
<g id="surface1">
<use xlink:href="#surface5" mask="url(#mask0)"/>
<path style="fill:none;stroke-width:37.327499;stroke-linecap:round;stroke-linejoin:miter;stroke:rgb(0%,9.411765%,21.176471%);stroke-opacity:1;stroke-miterlimit:4;" d="M 621.783854 383.697917 L 404.401042 560.364583 " transform="matrix(0.0113208,0,0,0.0113208,0,0)"/>
<path style="fill:none;stroke-width:59.883598;stroke-linecap:round;stroke-linejoin:round;stroke:rgb(0%,9.411765%,21.176471%);stroke-opacity:1;stroke-miterlimit:4;" d="M 571.061198 222.213542 L 664.570313 591.419271 " transform="matrix(0.0113208,0,0,0.0113208,0,0)"/>
<path style="fill:none;stroke-width:59.883598;stroke-linecap:round;stroke-linejoin:round;stroke:rgb(0%,9.411765%,21.176471%);stroke-opacity:1;stroke-miterlimit:4;" d="M 484.108073 222.213542 L 390.253906 591.419271 " transform="matrix(0.0113208,0,0,0.0113208,0,0)"/>
<path style="fill:none;stroke-width:37.327499;stroke-linecap:round;stroke-linejoin:miter;stroke:rgb(0%,9.411765%,21.176471%);stroke-opacity:1;stroke-miterlimit:4;" d="M 442.356771 389.563802 L 649.733073 560.364583 " transform="matrix(0.0113208,0,0,0.0113208,0,0)"/>
<path style="fill:none;stroke-width:37.327499;stroke-linecap:round;stroke-linejoin:miter;stroke:rgb(0%,9.411765%,21.176471%);stroke-opacity:1;stroke-miterlimit:4;" d="M 581.757813 280.182292 L 445.807292 397.845052 " transform="matrix(0.0113208,0,0,0.0113208,0,0)"/>
<path style="fill:none;stroke-width:37.327499;stroke-linecap:round;stroke-linejoin:miter;stroke:rgb(0%,9.411765%,21.176471%);stroke-opacity:1;stroke-miterlimit:4;" d="M 472.03125 276.041667 L 607.981771 393.704427 " transform="matrix(0.0113208,0,0,0.0113208,0,0)"/>
<path style=" stroke:none;fill-rule:nonzero;fill:rgb(0%,9.411765%,21.176471%);fill-opacity:1;" d="M 6.824219 2.179688 L 5.121094 2.179688 L 5.121094 2.644531 L 6.824219 2.644531 Z M 6.824219 2.179688 "/>
<path style=" stroke:none;fill-rule:nonzero;fill:rgb(0%,9.411765%,21.176471%);fill-opacity:1;" d="M 7 1.324219 L 4.945312 1.324219 L 4.945312 1.941406 L 7 1.941406 Z M 7 1.324219 "/>
<path style=" stroke:none;fill-rule:nonzero;fill:rgb(0%,9.411765%,21.176471%);fill-opacity:1;" d="M 8.9375 1.542969 C 8.9375 1.542969 7.964844 2.878906 7.964844 3.488281 C 7.964844 4.023438 8.402344 4.460938 8.9375 4.460938 C 9.472656 4.460938 9.910156 4.023438 9.910156 3.488281 C 9.910156 2.84375 8.9375 1.542969 8.9375 1.542969 Z M 8.574219 3.511719 C 8.574219 3.9375 8.753906 4.09375 8.753906 4.09375 C 8.753906 4.09375 8.332031 3.984375 8.332031 3.402344 C 8.332031 3.003906 8.816406 2.152344 8.816406 2.152344 C 8.816406 2.152344 8.574219 2.894531 8.574219 3.511719 Z M 8.574219 3.511719 "/>
<path style=" stroke:none;fill-rule:nonzero;fill:rgb(0%,9.411765%,21.176471%);fill-opacity:1;" d="M 2.683594 1.398438 C 2.476562 2.382812 1.804688 2.832031 1.804688 3.5625 C 1.804688 4.042969 2.113281 4.351562 2.542969 4.5 C 2.417969 4.402344 2.246094 4.191406 2.246094 3.992188 C 2.246094 3.617188 2.4375 3.503906 2.539062 3.097656 C 2.777344 3.304688 2.78125 3.585938 2.78125 3.585938 C 2.78125 3.585938 3.117188 3.09375 3.027344 2.488281 C 4.003906 3.339844 3.605469 4.25 3.214844 4.515625 C 3.648438 4.453125 4.003906 4.054688 4.003906 3.554688 C 4.003906 2.824219 3.632812 2.28125 2.683594 1.398438 Z M 2.683594 1.398438 "/>
</g>
</svg>
