<svg width="64" height="64" viewBox="0 0 1060 1060" fill="none" xmlns="http://www.w3.org/2000/svg">
<path opacity="0.372" d="M510.281 425.5C450.101 425.5 400.625 474.932 400.625 535.125C400.625 539.237 400.895 543.301 401.344 547.312C355.548 560.465 321.625 602.809 321.625 652.625C321.625 669.949 325.91 686.283 333.156 700.906C329.547 703.474 326.603 706.867 324.57 710.802C322.537 714.738 321.474 719.102 321.469 723.531V746.562C321.468 750.215 322.187 753.832 323.585 757.207C324.982 760.581 327.031 763.648 329.613 766.23C332.196 768.813 335.262 770.862 338.637 772.259C342.012 773.657 345.629 774.376 349.281 774.375H445.531C458.867 796.078 482.8 810.531 509.875 810.531C536.938 810.531 560.826 796.054 574.156 774.375H670.438C674.09 774.376 677.707 773.657 681.082 772.259C684.456 770.862 687.523 768.813 690.105 766.23C692.688 763.648 694.737 760.581 696.134 757.207C697.532 753.832 698.251 750.215 698.25 746.562V723.531C698.244 719.227 697.239 714.982 695.314 711.132C693.389 707.282 690.597 703.931 687.156 701.344C694.538 686.606 698.906 670.125 698.906 652.625C698.906 602.809 664.991 560.458 619.188 547.312C619.638 543.304 619.906 539.238 619.906 535.125C619.906 474.945 570.461 425.5 510.281 425.5ZM510.281 502.219C529.041 502.219 543.188 516.366 543.188 535.125C543.188 544.636 539.324 552.681 533.219 558.625C529.845 560.644 526.595 562.83 523.469 565.188C519.45 566.943 515.097 568.031 510.281 568.031C505.429 568.031 501.045 566.931 496.969 565.125C493.875 562.799 490.664 560.642 487.344 558.656C481.232 552.714 477.375 544.649 477.375 535.125C477.375 516.366 491.522 502.219 510.281 502.219ZM431.281 619.719C436.097 619.719 440.45 620.807 444.469 622.562C447.595 624.92 450.845 627.106 454.219 629.125C460.325 635.068 464.188 643.11 464.188 652.625C464.188 671.384 450.041 685.531 431.281 685.531C412.522 685.531 398.375 671.384 398.375 652.625C398.375 633.866 412.522 619.719 431.281 619.719ZM589.281 619.719C608.041 619.719 622.188 633.866 622.188 652.625C622.188 671.384 608.041 685.531 589.281 685.531C570.522 685.531 556.375 671.384 556.375 652.625C556.375 643.097 560.231 635.036 566.344 629.094C569.672 627.106 572.885 624.934 576 622.594C580.043 620.813 584.43 619.719 589.281 619.719ZM509.875 732.344C511.986 732.344 512.562 732.917 512.562 735.062C512.562 737.208 512.02 737.75 509.875 737.75C507.73 737.75 507.156 737.173 507.156 735.062C507.156 732.952 507.764 732.344 509.875 732.344Z" fill="#E4E4E4"/>
<path d="M548.745 735.437C548.745 740.571 547.735 745.655 545.771 750.399C543.806 755.143 540.927 759.453 537.297 763.084C533.666 766.715 529.356 769.596 524.613 771.561C519.869 773.526 514.785 774.537 509.651 774.537C504.516 774.537 499.432 773.526 494.688 771.561C489.945 769.596 485.635 766.715 482.005 763.084C478.374 759.453 475.495 755.143 473.531 750.399C471.566 745.655 470.556 740.571 470.557 735.437C470.556 730.302 471.566 725.218 473.531 720.474C475.495 715.73 478.374 711.42 482.005 707.789C485.635 704.158 489.945 701.277 494.688 699.312C499.432 697.347 504.516 696.336 509.651 696.336C514.785 696.336 519.869 697.347 524.613 699.312C529.356 701.277 533.666 704.158 537.297 707.789C540.927 711.42 543.806 715.73 545.771 720.474C547.735 725.218 548.745 730.302 548.745 735.437Z" stroke="black" stroke-width="17.158"/>
<path d="M349.075 723.913V746.962H474.627V723.913H349.075ZM544.654 723.913V746.962H670.207V723.913H544.654Z" fill="black"/>
<path d="M502.317 653.018C502.319 662.379 500.477 671.648 496.896 680.297C493.316 688.946 488.066 696.805 481.448 703.425C474.83 710.045 466.972 715.296 458.324 718.879C449.676 722.462 440.406 724.306 431.046 724.306C421.685 724.306 412.416 722.462 403.767 718.879C395.119 715.296 387.262 710.045 380.643 703.425C374.025 696.805 368.775 688.946 365.195 680.297C361.614 671.648 359.772 662.379 359.774 653.018C359.772 643.657 361.614 634.387 365.195 625.738C368.775 617.089 374.025 609.23 380.643 602.61C387.262 595.99 395.119 590.739 403.767 587.156C412.416 583.574 421.685 581.73 431.046 581.73C440.406 581.73 449.676 583.574 458.324 587.156C466.972 590.739 474.83 595.99 481.448 602.61C488.066 609.23 493.316 617.089 496.896 625.738C500.477 634.387 502.319 643.657 502.317 653.018V653.018Z" stroke="black" stroke-width="21.1" stroke-linecap="round"/>
<path d="M660.317 653.018C660.319 662.379 658.477 671.648 654.896 680.297C651.316 688.946 646.066 696.805 639.448 703.425C632.83 710.045 624.972 715.296 616.324 718.879C607.676 722.462 598.406 724.306 589.046 724.306C579.685 724.306 570.416 722.462 561.767 718.879C553.119 715.296 545.262 710.045 538.643 703.425C532.025 696.805 526.775 688.946 523.195 680.297C519.614 671.648 517.772 662.379 517.774 653.018C517.772 643.657 519.614 634.387 523.195 625.738C526.775 617.089 532.025 609.23 538.643 602.61C545.262 595.99 553.119 590.739 561.767 587.156C570.416 583.574 579.685 581.73 589.046 581.73C598.406 581.73 607.676 583.574 616.324 587.156C624.972 590.739 632.83 595.99 639.448 602.61C646.066 609.23 651.316 617.089 654.896 625.738C658.477 634.387 660.319 643.657 660.317 653.018V653.018Z" stroke="black" stroke-width="21.1" stroke-linecap="round"/>
<path d="M581.321 535.519C581.323 544.88 579.482 554.15 575.901 562.799C572.32 571.447 567.071 579.306 560.452 585.926C553.834 592.546 545.976 597.798 537.328 601.38C528.68 604.963 519.411 606.807 510.05 606.807C500.689 606.807 491.42 604.963 482.772 601.38C474.124 597.798 466.266 592.546 459.648 585.926C453.029 579.306 447.78 571.447 444.199 562.799C440.618 554.15 438.777 544.88 438.779 535.519C438.777 526.158 440.618 516.889 444.199 508.24C447.78 499.591 453.029 491.732 459.648 485.112C466.266 478.492 474.124 473.241 482.772 469.658C491.42 466.075 500.689 464.231 510.05 464.231C519.411 464.231 528.68 466.075 537.328 469.658C545.976 473.241 553.834 478.492 560.452 485.112C567.071 491.732 572.32 499.591 575.901 508.24C579.482 516.889 581.323 526.158 581.321 535.519V535.519Z" stroke="black" stroke-width="21.1" stroke-linecap="round"/>
</svg>
