<svg width="64" height="64" viewBox="0 0 1060 1060" fill="none" xmlns="http://www.w3.org/2000/svg">
<path opacity="0.873134" d="M244.688 220.562C216.498 220.563 188.539 229.024 168.188 248C167.531 248.612 166.979 249.306 166.344 249.938C155.586 239.938 142.364 232.515 128.344 228.438C128.324 228.431 128.301 228.444 128.281 228.438C128.205 228.416 128.138 228.366 128.062 228.344V228.375C112.17 223.729 96.0535 222.813 75.5312 222.812H41.8438C31.7253 222.817 22.0225 226.838 14.8677 233.993C7.71294 241.148 3.6916 250.85 3.6875 260.969V384.906C3.6916 395.025 7.71294 404.727 14.8677 411.882C22.0225 419.037 31.7253 423.058 41.8438 423.062H75.5312C95.9638 423.062 112.148 422.087 127.875 417.594C127.938 417.584 128 417.573 128.062 417.563C142.062 413.479 155.284 406.065 166.125 396.094C166.604 396.575 167.009 397.123 167.5 397.594C167.521 397.615 167.542 397.636 167.562 397.656C187.484 416.664 215.214 425.469 242.969 425.469C254.801 425.469 266.524 424.202 277.938 421.625C285.161 419.994 292.228 417.785 299.125 415.125C305.797 420.267 313.983 423.058 322.406 423.063H354.344C364.462 423.058 374.165 419.037 381.32 411.882C388.475 404.728 392.496 395.025 392.5 384.906V378.938C397.21 378.297 401.865 377.352 406.438 376.062V378.438C406.44 386.231 408.828 393.837 413.28 400.234C417.732 406.63 424.036 411.51 431.344 414.219C441.184 417.866 451.146 420.661 461.219 422.562C471.368 424.479 481.663 425.469 491.969 425.469C513.71 425.469 535.311 421.665 553.344 406.844C553.344 406.833 553.344 406.823 553.344 406.813C571.312 392.022 579.437 368.026 579.438 346.813C579.437 333.54 575.973 318.771 568.094 306.375C570.208 301.558 571.304 296.355 571.312 291.094V264.875C571.31 256.465 568.531 248.29 563.405 241.622C558.28 234.954 551.096 230.165 542.969 228C533.981 225.608 525.117 223.79 516.344 222.562C516.342 222.562 516.346 222.532 516.344 222.531C516.25 222.518 516.156 222.514 516.062 222.5C507.315 221.234 498.552 220.563 489.812 220.563C469.463 220.563 448.524 225.167 431.688 238.875C415.051 226.971 395.077 222.813 375.438 222.813H322.406C314.008 222.822 305.847 225.601 299.188 230.719C291.638 227.753 283.933 225.278 276 223.656V223.688C265.85 221.6 255.373 220.563 244.688 220.563V220.562ZM354.344 296.938V301.406V305.875C353.717 303.918 353.313 302.19 353.312 301.406C353.313 300.617 353.717 298.885 354.344 296.938Z" fill="#ACD8F3"/>
<path d="M244.688 258.719C223.327 258.719 206.504 264.451 194.219 275.906C181.934 287.361 175.812 303.085 175.812 323.062C175.812 342.818 181.842 358.466 193.906 370.031C205.97 381.542 222.327 387.312 242.969 387.312C252.1 387.312 260.954 386.343 269.531 384.406C278.109 382.469 286.375 379.561 294.344 375.688V316.094H244.531V337.5H264.031V361.562C261.762 362.448 259.19 363.12 256.312 363.562C253.49 363.95 250.414 364.156 247.094 364.156C234.864 364.156 225.453 360.576 218.812 353.438C212.172 346.299 208.844 336.178 208.844 323.062C208.844 309.837 212.263 299.677 219.125 292.594C226.042 285.455 235.866 281.875 248.594 281.875C255.456 281.875 262.287 282.844 269.094 284.781C275.956 286.718 282.864 289.665 289.781 293.594V267.938C283.085 264.894 275.925 262.612 268.344 261.062C260.818 259.513 252.933 258.719 244.688 258.719ZM489.812 258.719C474.871 258.719 463.437 262.047 455.469 268.688C447.5 275.328 443.5 284.816 443.5 297.156C443.5 307.007 446.363 314.846 452.062 320.656C457.818 326.467 466.885 330.688 479.281 333.344L491.656 336.094C499.182 337.754 504.197 339.647 506.688 341.75C509.233 343.853 510.5 346.814 510.5 350.688C510.5 355.004 508.645 358.332 504.938 360.656C501.23 362.98 495.879 364.156 488.906 364.156C482.044 364.156 474.915 363.103 467.5 361C460.14 358.842 452.507 355.643 444.594 351.438V378.438C452.507 381.37 460.399 383.568 468.312 385.062C476.226 386.557 484.111 387.312 491.969 387.312C508.626 387.312 521.014 383.984 529.094 377.344C537.228 370.648 541.281 360.481 541.281 346.812C541.281 336.409 538.373 328.363 532.562 322.719C526.752 317.074 516.967 312.892 503.188 310.125L489.562 307.375C483.088 306.047 478.615 304.482 476.125 302.656C473.69 300.775 472.469 298.164 472.469 294.844C472.469 290.417 474.285 287.134 477.938 285.031C481.59 282.928 487.238 281.875 494.875 281.875C500.63 281.875 506.744 282.669 513.219 284.219C519.693 285.768 526.35 288.05 533.156 291.094V264.875C525.464 262.828 518.006 261.309 510.812 260.312C503.618 259.261 496.619 258.719 489.812 258.719ZM41.8438 260.969V384.906H75.5312C94.1249 384.906 108.078 383.562 117.375 380.906C126.672 378.195 134.641 373.638 141.281 367.219C147.092 361.63 151.396 355.18 154.219 347.875C157.041 340.515 158.469 332.165 158.469 322.812C158.469 313.571 157.041 305.305 154.219 298C151.396 290.695 147.092 284.246 141.281 278.656C134.696 272.237 126.773 267.688 117.531 265.031C108.345 262.32 94.3463 260.969 75.5312 260.969H41.8438ZM322.406 260.969V384.906H354.344V341.906H375.438C391.209 341.906 403.307 338.41 411.719 331.438C420.185 324.41 424.406 314.411 424.406 301.406C424.406 288.457 420.185 278.473 411.719 271.5C403.307 264.472 391.209 260.969 375.438 260.969H322.406ZM354.344 284.125H372.031C378.229 284.125 383.031 285.637 386.406 288.625C389.782 291.613 391.469 295.872 391.469 301.406C391.469 306.94 389.782 311.206 386.406 314.25C383.031 317.238 378.229 318.75 372.031 318.75H354.344V284.125ZM73.7812 285.125H85.25C98.3652 285.125 108.357 288.331 115.219 294.75C122.081 301.169 125.5 310.527 125.5 322.812C125.5 335.153 122.042 344.557 115.125 351.031C108.263 357.506 98.3098 360.75 85.25 360.75H73.7812V285.125Z" fill="black"/>
</svg>
