<?xml version="1.0" encoding="UTF-8"?>
<svg xmlns="http://www.w3.org/2000/svg" xmlns:xlink="http://www.w3.org/1999/xlink" width="12" height="12" viewBox="0 0 12 12">
<path fill-rule="evenodd" fill="rgb(0%, 16.078431%, 23.921569%)" fill-opacity="0.75" d="M 7.617188 2 L 9.117188 5 L 12 5 L 12 6.234375 L 9.617188 11 L 0 11 L 0 2 Z M 7.617188 2 "/>
<path fill-rule="evenodd" fill="rgb(0%, 57.254902%, 85.490196%)" fill-opacity="1" d="M 7 3 L 1 3 L 1 10 L 9 10 L 11 6 L 8.5 6 Z M 3 4 L 2 4 L 2 6 L 3 6 Z M 4 4 L 6.382812 4 L 7.28125 6 L 4 6 Z M 9 7.5 C 9 7.777344 8.777344 8 8.5 8 C 8.222656 8 8 7.777344 8 7.5 C 8 7.222656 8.222656 7 8.5 7 C 8.777344 7 9 7.222656 9 7.5 Z M 9 7.5 "/>
</svg>
