<?xml version="1.0" encoding="UTF-8"?>
<svg xmlns="http://www.w3.org/2000/svg" xmlns:xlink="http://www.w3.org/1999/xlink" width="12" height="12" viewBox="0 0 12 12" version="1.1">
<g id="surface1">
<path style=" stroke:none;fill-rule:nonzero;fill:rgb(0%,0%,0%);fill-opacity:1;" d="M 6.691406 4.199219 L 7.605469 3.105469 L 8.53125 4.199219 L 7.96875 4.199219 L 7.96875 5.144531 L 4.167969 7.390625 L 4.167969 8.851562 L 3.46875 8.851562 L 3.46875 7.035156 L 7.269531 4.808594 L 7.269531 4.199219 L 6.691406 4.199219 "/>
<path style=" stroke:none;fill-rule:nonzero;fill:rgb(0%,0%,0%);fill-opacity:1;" d="M 4.167969 3.179688 L 4.167969 3.804688 L 3.46875 3.800781 L 3.46875 3.179688 Z M 3.46875 4.328125 L 4.167969 4.332031 L 4.167969 4.710938 L 4.726562 5.042969 L 4.398438 5.617188 L 3.46875 5.070312 Z M 5.3125 5.359375 L 6.746094 6.238281 L 6.421875 6.800781 L 4.984375 5.929688 Z M 7.339844 6.558594 L 7.96875 6.960938 L 7.96875 7.902344 L 8.53125 7.902344 L 7.605469 9 L 6.691406 7.902344 L 7.269531 7.902344 L 7.269531 7.296875 L 7.019531 7.121094 Z M 7.339844 6.558594 "/>
</g>
</svg>
