<?xml version="1.0" encoding="UTF-8"?>
<svg xmlns="http://www.w3.org/2000/svg" xmlns:xlink="http://www.w3.org/1999/xlink" width="24" height="24" viewBox="0 0 24 24">
<defs>
<filter id="filter-remove-color" x="0%" y="0%" width="100%" height="100%">
<feColorMatrix color-interpolation-filters="sRGB" values="0 0 0 0 1 0 0 0 0 1 0 0 0 0 1 0 0 0 1 0" />
</filter>
<mask id="mask-0">
<g filter="url(#filter-remove-color)">
<rect x="-2.4" y="-2.4" width="28.8" height="28.8" fill="rgb(0%, 0%, 0%)" fill-opacity="0.426087"/>
</g>
</mask>
<clipPath id="clip-0">
<path clip-rule="nonzero" d="M 0 0 L 24 0 L 24 24 L 0 24 Z M 0 0 "/>
</clipPath>
<clipPath id="clip-1">
<rect x="0" y="0" width="24" height="24"/>
</clipPath>
<g id="source-7" clip-path="url(#clip-1)">
<g clip-path="url(#clip-0)">
<path fill-rule="nonzero" fill="rgb(67.45098%, 84.705882%, 95.294118%)" fill-opacity="1" d="M 11.558594 0.0117188 C 10.769531 0.015625 9.863281 0.046875 8.976562 0.160156 C 8.09375 0.277344 7.269531 0.207031 6.117188 1.226562 C 6.117188 1.226562 6.113281 1.226562 6.113281 1.226562 C 5.949219 1.371094 5.394531 1.867188 4.765625 2.421875 C 4.746094 2.4375 4.726562 2.449219 4.710938 2.464844 C 4.707031 2.46875 4.707031 2.46875 4.707031 2.46875 L 3.515625 3.519531 C 3.515625 3.523438 3.515625 3.523438 3.511719 3.523438 C 3.277344 3.734375 3.09375 3.976562 2.960938 4.195312 C 2.902344 4.296875 2.847656 4.410156 2.796875 4.523438 C 2.628906 4.570312 2.5 4.613281 2.5 4.613281 C 2.246094 4.714844 2.011719 4.855469 1.808594 5.039062 L 0.710938 6.007812 C 0.707031 6.011719 0.707031 6.011719 0.707031 6.011719 C -0.445312 7.035156 -0.554688 8.84375 0.464844 10 C 0.464844 10 0.464844 10.003906 0.46875 10.003906 L 2.011719 11.75 C 2.015625 11.75 2.015625 11.753906 2.015625 11.753906 C 3.039062 12.902344 4.851562 13.015625 6.007812 11.992188 L 6.605469 11.464844 L 7.253906 12.285156 L 2.589844 16.769531 C 2.578125 16.777344 2.566406 16.789062 2.554688 16.800781 C 2.054688 17.300781 1.496094 18.007812 1.296875 19.121094 C 1.097656 20.234375 1.542969 21.6875 2.472656 22.613281 C 2.5 22.640625 2.527344 22.667969 2.558594 22.695312 C 3.339844 23.398438 4.992188 23.90625 6.199219 23.550781 C 6.257812 23.535156 6.316406 23.515625 6.371094 23.492188 C 7.203125 23.175781 7.917969 22.601562 8.210938 22.308594 C 8.222656 22.292969 8.234375 22.28125 8.25 22.269531 L 12.003906 18.320312 L 15.429688 22.675781 C 15.460938 22.71875 15.5 22.761719 15.535156 22.800781 C 16.425781 23.777344 17.777344 24.082031 18.757812 23.964844 C 19.742188 23.84375 20.507812 23.472656 21.175781 22.886719 C 22.25 21.945312 22.351562 20.867188 22.367188 20.097656 C 22.375 19.710938 22.34375 19.367188 22.269531 19.019531 C 22.195312 18.671875 22.28125 18.410156 21.628906 17.65625 L 17.339844 12.714844 L 17.613281 12.425781 C 17.949219 12.492188 18.289062 12.527344 18.632812 12.527344 C 20.050781 12.527344 21.417969 11.945312 22.414062 10.949219 L 22.589844 10.777344 L 22.589844 10.773438 C 24.625 8.742188 24.195312 6.339844 24.199219 5.519531 C 24.199219 5.519531 24.199219 5.515625 24.199219 5.511719 C 24.199219 4.980469 23.992188 4.136719 23.421875 3.558594 C 23.421875 3.558594 23.417969 3.554688 23.417969 3.554688 C 22.957031 3.09375 22.316406 2.8125 21.667969 2.785156 C 21.660156 2.464844 21.601562 2.125 21.453125 1.792969 C 21.167969 1.152344 20.027344 0.222656 18.980469 0.21875 C 18.976562 0.21875 18.972656 0.21875 18.972656 0.21875 L 18.855469 0.21875 C 17.925781 0.21875 16.519531 0.125 15.117188 0.804688 C 14.714844 0.363281 14.15625 0.0976562 13.558594 0.0585938 C 13.558594 0.0585938 12.824219 0.015625 11.863281 0.0117188 C 11.769531 0.0117188 11.667969 0.0117188 11.558594 0.0117188 Z M 4.398438 4.585938 C 4.476562 4.621094 4.574219 4.667969 4.730469 4.761719 C 4.609375 4.691406 4.503906 4.636719 4.398438 4.585938 Z M 11.972656 5.371094 C 11.941406 5.773438 11.957031 6.175781 12.011719 6.574219 L 11.558594 6.050781 C 11.503906 5.988281 11.449219 5.929688 11.390625 5.875 C 11.375 5.855469 11.363281 5.832031 11.351562 5.808594 C 11.527344 5.648438 11.742188 5.503906 11.972656 5.371094 Z M 11.972656 5.371094 "/>
</g>
</g>
</defs>
<g mask="url(#mask-0)">
<use xlink:href="#source-7"/>
</g>
<path fill-rule="nonzero" fill="rgb(69.019608%, 11.372549%, 11.372549%)" fill-opacity="1" d="M 11.570312 2.3125 C 10.105469 2.320312 8.21875 2.4375 7.636719 2.949219 C 7.484375 3.085938 6.914062 3.59375 6.273438 4.15625 C 6.273438 4.15625 6.273438 4.15625 6.273438 4.160156 C 6.257812 4.167969 6.242188 4.179688 6.230469 4.191406 L 5.042969 5.242188 C 5 5.28125 4.96875 5.324219 4.941406 5.367188 C 4.90625 5.429688 4.878906 5.492188 4.871094 5.5625 C 4.867188 5.574219 4.867188 5.59375 4.867188 5.605469 C 4.867188 5.609375 4.867188 5.609375 4.867188 5.609375 C 4.863281 5.625 4.863281 5.640625 4.863281 5.660156 C 4.867188 5.78125 4.910156 5.898438 4.996094 5.992188 L 5.101562 6.113281 C 5.035156 6.167969 4.757812 6.414062 4.433594 6.703125 C 4.1875 6.921875 3.71875 6.835938 3.5625 6.742188 C 3.488281 6.699219 3.332031 6.761719 3.332031 6.761719 L 2.234375 7.730469 C 2.015625 7.925781 1.996094 8.261719 2.1875 8.476562 L 3.734375 10.226562 C 3.929688 10.445312 4.265625 10.464844 4.484375 10.269531 L 5.582031 9.300781 C 5.582031 9.300781 5.640625 9.132812 5.597656 9.035156 C 5.527344 8.867188 5.519531 8.417969 5.761719 8.203125 C 6.117188 7.890625 6.371094 7.664062 6.429688 7.613281 L 6.542969 7.742188 C 6.554688 7.753906 6.566406 7.769531 6.582031 7.78125 C 6.582031 7.78125 6.582031 7.78125 6.585938 7.785156 L 7.347656 8.644531 L 9.328125 6.894531 L 8.867188 6.375 C 8.863281 6.367188 8.855469 6.355469 8.847656 6.347656 C 8.46875 5.925781 8.578125 5.246094 9.789062 4.121094 C 11.261719 2.753906 13.425781 2.355469 13.425781 2.355469 C 13.425781 2.355469 12.753906 2.316406 11.855469 2.3125 C 11.761719 2.3125 11.667969 2.3125 11.570312 2.3125 Z M 18.855469 2.519531 C 17.738281 2.519531 16.148438 2.621094 15.296875 3.46875 L 15.121094 3.644531 C 13.914062 4.859375 13.917969 6.765625 15.132812 7.988281 L 16.457031 9.3125 C 17.046875 9.902344 17.820312 10.230469 18.632812 10.230469 C 19.441406 10.230469 20.207031 9.90625 20.789062 9.324219 L 20.964844 9.148438 C 21.886719 8.226562 21.894531 6.316406 21.898438 5.503906 C 21.898438 5.359375 21.863281 5.253906 21.785156 5.175781 C 21.726562 5.113281 21.640625 5.078125 21.550781 5.078125 C 21.410156 5.078125 21.296875 5.164062 21.242188 5.214844 L 19.519531 6.945312 C 19.484375 6.953125 19.402344 6.964844 19.242188 6.964844 C 18.664062 6.964844 17.851562 6.851562 17.652344 6.765625 C 17.519531 6.472656 17.410156 5.191406 17.5 4.925781 C 17.769531 4.65625 19.242188 3.183594 19.25 3.171875 C 19.296875 3.121094 19.441406 2.933594 19.351562 2.730469 C 19.316406 2.652344 19.222656 2.519531 18.972656 2.519531 Z M 9.820312 7.558594 L 7.839844 9.308594 L 10.347656 12.5 L 4.183594 18.425781 C 3.644531 18.960938 3.089844 19.976562 4.097656 20.988281 C 4.53125 21.375 4.957031 21.519531 5.550781 21.34375 C 6.109375 21.132812 6.347656 20.917969 6.582031 20.683594 L 12.167969 14.8125 L 17.234375 21.253906 C 17.917969 22.003906 19.074219 21.671875 19.660156 21.15625 C 20.246094 20.640625 20.082031 19.382812 19.890625 19.164062 L 14.230469 12.640625 L 16.625 10.125 L 16.203125 9.804688 L 15.019531 8.746094 L 14.695312 8.320312 L 12.398438 10.53125 Z M 9.820312 7.558594 "/>
</svg>
