<svg width="32" height="32" viewBox="0 0 16 16" fill="none" xmlns="http://www.w3.org/2000/svg">
<path d="M12.2436 3.75647H3.75647V12.2436H12.2436V3.75647Z" fill="#FEFEFE"/>
<path d="M11.726 4.27402H4.27399V11.726H11.726V4.27402Z" fill="#003399"/>
<path d="M8.28357 11.1602C8.7674 11.1129 9.21942 10.959 9.57836 10.7192C9.75874 10.5987 10.0131 10.3492 10.1238 10.1844C10.2854 9.94341 10.4028 9.65391 10.4656 9.34134C10.4899 9.22027 10.4929 9.00755 10.4978 7.03123L10.5033 4.85446H9.0119V6.84751C9.0119 8.1577 9.00615 8.89208 8.99513 8.99095C8.97536 9.16808 8.9171 9.37979 8.85795 9.48941C8.78373 9.62696 8.64678 9.75784 8.5039 9.82779C8.11081 10.0202 7.53561 9.95095 7.26297 9.6783C7.12411 9.53945 7.02872 9.31586 6.98869 9.03542C6.9789 8.96688 6.97289 8.16058 6.9727 6.89003L6.97239 4.85446H5.49768V6.91582C5.49768 8.98394 5.50164 9.15852 5.55454 9.41979C5.68518 10.0651 6.08774 10.5786 6.70404 10.8863C7.15575 11.1118 7.74053 11.2132 8.28357 11.1602H8.28357Z" fill="#FEFEFE"/>
</svg>
