<?xml version="1.0" encoding="UTF-8"?>
<svg xmlns="http://www.w3.org/2000/svg" xmlns:xlink="http://www.w3.org/1999/xlink" width="48" height="48" viewBox="0 0 48 48">
<path fill-rule="nonzero" fill="rgb(57.647059%, 0%, 57.647059%)" fill-opacity="1" d="M 26.5625 29.5625 L 18.433594 29.5625 L 18.433594 29.136719 C 18.433594 28.898438 18.625 28.707031 18.863281 28.707031 L 26.136719 28.707031 C 26.371094 28.707031 26.5625 28.898438 26.5625 29.136719 Z M 26.5625 29.5625 "/>
<path fill-rule="nonzero" fill="rgb(57.647059%, 0%, 57.647059%)" fill-opacity="1" d="M 24.425781 18.4375 L 20.574219 18.4375 C 19.863281 18.4375 19.289062 19.011719 19.289062 19.722656 L 19.289062 29.136719 L 25.707031 29.136719 L 25.707031 19.722656 C 25.707031 19.011719 25.132812 18.4375 24.425781 18.4375 Z M 24.851562 22.289062 C 24.851562 22.523438 24.660156 22.714844 24.425781 22.714844 L 20.574219 22.714844 C 20.335938 22.714844 20.144531 22.523438 20.144531 22.289062 L 20.144531 19.722656 C 20.144531 19.484375 20.335938 19.292969 20.574219 19.292969 L 24.425781 19.292969 C 24.660156 19.292969 24.851562 19.484375 24.851562 19.722656 Z M 24.851562 22.289062 "/>
<path fill-rule="nonzero" fill="rgb(57.647059%, 0%, 57.647059%)" fill-opacity="1" d="M 26.558594 19.289062 C 26.472656 19.289062 26.390625 19.316406 26.320312 19.363281 C 26.25 19.410156 26.195312 19.476562 26.164062 19.554688 C 26.132812 19.636719 26.125 19.722656 26.140625 19.804688 C 26.160156 19.886719 26.199219 19.964844 26.261719 20.023438 C 27.683594 21.449219 28.328125 22.125 28.566406 22.464844 C 28.683594 22.632812 28.699219 22.6875 28.707031 22.753906 C 28.714844 22.820312 28.703125 22.949219 28.703125 23.171875 L 28.703125 25.710938 C 28.703125 26.554688 28.625 27.160156 28.5 27.488281 C 28.433594 27.648438 28.367188 27.734375 28.308594 27.78125 C 28.246094 27.828125 28.1875 27.851562 28.0625 27.851562 C 27.933594 27.851562 27.875 27.828125 27.816406 27.78125 C 27.753906 27.734375 27.6875 27.648438 27.621094 27.488281 C 27.496094 27.160156 27.417969 26.554688 27.417969 25.710938 C 27.417969 25.351562 27.390625 25.058594 27.296875 24.800781 C 27.207031 24.542969 27.023438 24.320312 26.800781 24.195312 C 26.351562 23.945312 25.882812 24 25.277344 24 C 25.164062 24 25.058594 24.046875 24.976562 24.125 C 24.894531 24.207031 24.851562 24.316406 24.851562 24.429688 C 24.851562 24.542969 24.894531 24.652344 24.976562 24.730469 C 25.058594 24.8125 25.164062 24.855469 25.277344 24.855469 C 25.894531 24.855469 26.28125 24.882812 26.382812 24.941406 C 26.433594 24.96875 26.453125 24.980469 26.492188 25.089844 C 26.53125 25.199219 26.5625 25.402344 26.5625 25.710938 C 26.5625 26.597656 26.621094 27.273438 26.824219 27.796875 C 26.929688 28.0625 27.078125 28.292969 27.292969 28.460938 C 27.511719 28.625 27.785156 28.707031 28.0625 28.707031 C 28.335938 28.707031 28.613281 28.625 28.828125 28.460938 C 29.042969 28.292969 29.195312 28.0625 29.296875 27.796875 C 29.503906 27.273438 29.558594 26.597656 29.558594 25.710938 L 29.558594 23.171875 C 29.558594 23 29.582031 22.855469 29.554688 22.644531 C 29.527344 22.433594 29.433594 22.210938 29.265625 21.972656 C 28.933594 21.5 28.292969 20.84375 26.867188 19.417969 C 26.824219 19.378906 26.777344 19.34375 26.726562 19.324219 C 26.671875 19.300781 26.617188 19.289062 26.558594 19.289062 Z M 26.558594 19.289062 "/>
<path fill-rule="nonzero" fill="rgb(57.647059%, 0%, 57.647059%)" fill-opacity="1" d="M 29.148438 24.292969 C 29.148438 24.53125 28.957031 24.496094 28.71875 24.21875 L 27.863281 23.378906 C 27.628906 23.101562 27.4375 22.902344 27.4375 22.449219 L 27.4375 20.988281 C 27.4375 20.75 27.628906 20.785156 27.863281 21.0625 L 28.71875 21.800781 C 28.957031 22.078125 29.148438 22.441406 29.148438 22.675781 Z M 29.148438 24.292969 "/>
</svg>
