<?xml version="1.0" encoding="UTF-8"?>
<svg xmlns="http://www.w3.org/2000/svg" xmlns:xlink="http://www.w3.org/1999/xlink" width="32" height="32" viewBox="0 0 32 32">
<defs>
<filter id="filter-remove-color" x="0%" y="0%" width="100%" height="100%">
<feColorMatrix color-interpolation-filters="sRGB" values="0 0 0 0 1 0 0 0 0 1 0 0 0 0 1 0 0 0 1 0" />
</filter>
<mask id="mask-0">
<g filter="url(#filter-remove-color)">
<rect x="-3.2" y="-3.2" width="38.4" height="38.4" fill="rgb(0%, 0%, 0%)" fill-opacity="0.873134"/>
</g>
</mask>
<clipPath id="clip-0">
<rect x="0" y="0" width="32" height="32"/>
</clipPath>
<g id="source-8" clip-path="url(#clip-0)">
<path fill-rule="nonzero" fill="rgb(0%, 0%, 0%)" fill-opacity="1" d="M 11.539062 21.8125 C 11.539062 21.582031 11.492188 21.355469 11.40625 21.144531 C 11.316406 20.933594 11.191406 20.742188 11.027344 20.578125 C 10.867188 20.417969 10.675781 20.289062 10.464844 20.203125 C 10.25 20.113281 10.023438 20.070312 9.796875 20.070312 C 9.566406 20.070312 9.339844 20.113281 9.128906 20.203125 C 8.917969 20.289062 8.726562 20.417969 8.5625 20.578125 C 8.402344 20.742188 8.273438 20.933594 8.1875 21.144531 C 8.097656 21.355469 8.054688 21.582031 8.054688 21.8125 C 8.054688 22.039062 8.097656 22.265625 8.1875 22.476562 C 8.273438 22.691406 8.402344 22.882812 8.5625 23.042969 C 8.726562 23.207031 8.917969 23.332031 9.128906 23.421875 C 9.339844 23.507812 9.566406 23.554688 9.796875 23.554688 C 10.023438 23.554688 10.25 23.507812 10.464844 23.421875 C 10.675781 23.332031 10.867188 23.207031 11.027344 23.042969 C 11.191406 22.882812 11.316406 22.691406 11.40625 22.476562 C 11.492188 22.265625 11.539062 22.039062 11.539062 21.8125 Z M 11.539062 21.8125 "/>
</g>
<mask id="mask-1">
<g filter="url(#filter-remove-color)">
<rect x="-3.2" y="-3.2" width="38.4" height="38.4" fill="rgb(0%, 0%, 0%)" fill-opacity="0.873134"/>
</g>
</mask>
<clipPath id="clip-1">
<rect x="0" y="0" width="32" height="32"/>
</clipPath>
<g id="source-12" clip-path="url(#clip-1)">
<path fill-rule="nonzero" fill="rgb(0%, 0%, 0%)" fill-opacity="1" d="M 23.945312 21.777344 C 23.945312 21.546875 23.902344 21.320312 23.8125 21.109375 C 23.726562 20.898438 23.597656 20.707031 23.4375 20.542969 C 23.273438 20.382812 23.082031 20.253906 22.871094 20.164062 C 22.660156 20.078125 22.433594 20.03125 22.203125 20.03125 C 21.976562 20.03125 21.75 20.078125 21.539062 20.164062 C 21.324219 20.253906 21.132812 20.382812 20.972656 20.542969 C 20.808594 20.707031 20.683594 20.898438 20.59375 21.109375 C 20.507812 21.320312 20.460938 21.546875 20.460938 21.777344 C 20.460938 22.003906 20.507812 22.230469 20.59375 22.441406 C 20.683594 22.652344 20.808594 22.847656 20.972656 23.007812 C 21.132812 23.167969 21.324219 23.296875 21.539062 23.386719 C 21.75 23.472656 21.976562 23.519531 22.203125 23.519531 C 22.433594 23.519531 22.660156 23.472656 22.871094 23.386719 C 23.082031 23.296875 23.273438 23.167969 23.4375 23.007812 C 23.597656 22.847656 23.726562 22.652344 23.8125 22.441406 C 23.902344 22.230469 23.945312 22.003906 23.945312 21.777344 Z M 23.945312 21.777344 "/>
</g>
<mask id="mask-2">
<g filter="url(#filter-remove-color)">
<rect x="-3.2" y="-3.2" width="38.4" height="38.4" fill="rgb(0%, 0%, 0%)" fill-opacity="0.873134"/>
</g>
</mask>
<clipPath id="clip-2">
<rect x="0" y="0" width="32" height="32"/>
</clipPath>
<g id="source-16" clip-path="url(#clip-2)">
<path fill-rule="nonzero" fill="rgb(0%, 0%, 0%)" fill-opacity="1" d="M 11.539062 10.355469 C 11.539062 10.125 11.492188 9.898438 11.40625 9.6875 C 11.316406 9.476562 11.191406 9.285156 11.027344 9.121094 C 10.867188 8.960938 10.675781 8.832031 10.464844 8.746094 C 10.25 8.65625 10.023438 8.613281 9.796875 8.613281 C 9.566406 8.613281 9.339844 8.65625 9.128906 8.746094 C 8.917969 8.832031 8.726562 8.960938 8.5625 9.121094 C 8.402344 9.285156 8.273438 9.476562 8.1875 9.6875 C 8.097656 9.898438 8.054688 10.125 8.054688 10.355469 C 8.054688 10.582031 8.097656 10.808594 8.1875 11.019531 C 8.273438 11.234375 8.402344 11.425781 8.5625 11.585938 C 8.726562 11.75 8.917969 11.878906 9.128906 11.964844 C 9.339844 12.050781 9.566406 12.097656 9.796875 12.097656 C 10.023438 12.097656 10.25 12.050781 10.464844 11.964844 C 10.675781 11.878906 10.867188 11.75 11.027344 11.585938 C 11.191406 11.425781 11.316406 11.234375 11.40625 11.019531 C 11.492188 10.808594 11.539062 10.582031 11.539062 10.355469 Z M 11.539062 10.355469 "/>
</g>
<mask id="mask-3">
<g filter="url(#filter-remove-color)">
<rect x="-3.2" y="-3.2" width="38.4" height="38.4" fill="rgb(0%, 0%, 0%)" fill-opacity="0.873134"/>
</g>
</mask>
<clipPath id="clip-3">
<rect x="0" y="0" width="32" height="32"/>
</clipPath>
<g id="source-20" clip-path="url(#clip-3)">
<path fill-rule="nonzero" fill="rgb(0%, 0%, 0%)" fill-opacity="1" d="M 23.945312 10.320312 C 23.945312 10.089844 23.902344 9.863281 23.8125 9.652344 C 23.726562 9.441406 23.597656 9.25 23.4375 9.085938 C 23.273438 8.925781 23.082031 8.796875 22.871094 8.710938 C 22.660156 8.621094 22.433594 8.578125 22.203125 8.578125 C 21.976562 8.578125 21.75 8.621094 21.539062 8.710938 C 21.324219 8.796875 21.132812 8.925781 20.972656 9.085938 C 20.808594 9.25 20.683594 9.441406 20.59375 9.652344 C 20.507812 9.863281 20.460938 10.089844 20.460938 10.320312 C 20.460938 10.546875 20.507812 10.773438 20.59375 10.984375 C 20.683594 11.199219 20.808594 11.390625 20.972656 11.550781 C 21.132812 11.714844 21.324219 11.839844 21.539062 11.929688 C 21.75 12.015625 21.976562 12.0625 22.203125 12.0625 C 22.433594 12.0625 22.660156 12.015625 22.871094 11.929688 C 23.082031 11.839844 23.273438 11.714844 23.4375 11.550781 C 23.597656 11.390625 23.726562 11.199219 23.8125 10.984375 C 23.902344 10.773438 23.945312 10.546875 23.945312 10.320312 Z M 23.945312 10.320312 "/>
</g>
</defs>
<path fill="none" stroke-width="50" stroke-linecap="butt" stroke-linejoin="miter" stroke="rgb(0%, 0%, 0%)" stroke-opacity="1" stroke-miterlimit="4" d="M 122.485352 290 L 457.514648 290 " transform="matrix(0.0551724, 0, 0, 0.0551724, 0, 0)"/>
<path fill="none" stroke-width="50" stroke-linecap="butt" stroke-linejoin="miter" stroke="rgb(0%, 0%, 0%)" stroke-opacity="1" stroke-miterlimit="4" d="M 290 457.514648 L 290 122.485352 " transform="matrix(0.0551724, 0, 0, 0.0551724, 0, 0)"/>
<g mask="url(#mask-0)">
<use xlink:href="#source-8"/>
</g>
<g mask="url(#mask-1)">
<use xlink:href="#source-12"/>
</g>
<g mask="url(#mask-2)">
<use xlink:href="#source-16"/>
</g>
<g mask="url(#mask-3)">
<use xlink:href="#source-20"/>
</g>
</svg>
