<?xml version="1.0" encoding="UTF-8"?>
<svg xmlns="http://www.w3.org/2000/svg" xmlns:xlink="http://www.w3.org/1999/xlink" width="12" height="12" viewBox="0 0 12 12" version="1.1">
<g id="surface1">
<path style=" stroke:none;fill-rule:nonzero;fill:rgb(99.607843%,99.607843%,99.607843%);fill-opacity:1;" d="M 5.976562 2.722656 C 5.875 2.726562 5.777344 2.757812 5.695312 2.808594 L 1.179688 5.722656 C 1.058594 5.800781 0.988281 5.925781 0.988281 6.054688 C 0.988281 6.179688 1.058594 6.304688 1.179688 6.382812 L 1.625 6.667969 L 5.695312 9.292969 C 5.867188 9.40625 6.132812 9.40625 6.304688 9.292969 L 10.820312 6.382812 C 10.941406 6.304688 11.011719 6.179688 11.011719 6.050781 C 11.011719 5.925781 10.941406 5.800781 10.820312 5.722656 L 6.304688 2.808594 C 6.210938 2.75 6.09375 2.71875 5.976562 2.722656 Z M 5.976562 2.722656 "/>
<path style="fill:none;stroke-width:1.41849;stroke-linecap:round;stroke-linejoin:miter;stroke:rgb(92.941177%,10.980392%,13.725491%);stroke-opacity:1;stroke-miterlimit:4;" d="M 8 4.953125 L 3.166667 8.067708 L 8 11.1875 L 12.833333 8.067708 Z M 8 4.953125 " transform="matrix(0.75,0,0,0.75,0,0)"/>
<path style=" stroke:none;fill-rule:nonzero;fill:rgb(4.705882%,30.19608%,63.529414%);fill-opacity:1;" d="M 8.292969 5.089844 L 3.660156 5.089844 L 3.660156 7.007812 L 8.292969 7.007812 Z M 8.292969 5.089844 "/>
<path style=" stroke:none;fill-rule:nonzero;fill:rgb(99.607843%,99.607843%,99.607843%);fill-opacity:1;" d="M 5.191406 6.539062 L 4.996094 6.539062 L 4.996094 5.691406 L 4.707031 6.539062 L 4.605469 6.539062 L 4.316406 5.691406 L 4.316406 6.539062 L 4.148438 6.539062 L 4.148438 5.570312 L 4.457031 5.570312 L 4.675781 6.195312 L 4.890625 5.570312 L 5.191406 5.570312 Z M 5.839844 6.3125 L 6 6.332031 C 5.980469 6.394531 5.9375 6.449219 5.878906 6.492188 C 5.820312 6.535156 5.746094 6.554688 5.65625 6.554688 C 5.546875 6.554688 5.460938 6.523438 5.394531 6.453125 C 5.328125 6.386719 5.296875 6.296875 5.296875 6.183594 C 5.296875 6.074219 5.328125 5.984375 5.394531 5.914062 C 5.460938 5.84375 5.550781 5.804688 5.664062 5.804688 C 5.777344 5.804688 5.863281 5.839844 5.921875 5.910156 C 5.984375 5.980469 6.011719 6.070312 6.011719 6.183594 L 6.011719 6.199219 L 5.480469 6.199219 C 5.480469 6.25 5.484375 6.289062 5.496094 6.316406 C 5.503906 6.347656 5.523438 6.375 5.554688 6.394531 C 5.582031 6.417969 5.621094 6.429688 5.664062 6.429688 C 5.753906 6.429688 5.8125 6.390625 5.839844 6.3125 Z M 5.828125 6.097656 C 5.828125 6.042969 5.8125 6.003906 5.78125 5.96875 C 5.746094 5.9375 5.707031 5.921875 5.65625 5.921875 C 5.609375 5.921875 5.570312 5.9375 5.535156 5.964844 C 5.503906 5.996094 5.484375 6.039062 5.480469 6.097656 Z M 6.414062 6.554688 C 6.367188 6.554688 6.324219 6.546875 6.292969 6.53125 C 6.257812 6.511719 6.234375 6.488281 6.21875 6.457031 C 6.203125 6.429688 6.195312 6.382812 6.195312 6.320312 L 6.195312 5.949219 L 6.097656 5.949219 L 6.097656 5.820312 L 6.203125 5.820312 L 6.203125 5.621094 L 6.363281 5.621094 L 6.363281 5.820312 L 6.519531 5.820312 L 6.519531 5.949219 L 6.363281 5.949219 L 6.363281 6.296875 C 6.363281 6.34375 6.371094 6.375 6.390625 6.390625 C 6.410156 6.40625 6.484375 6.414062 6.53125 6.414062 L 6.53125 6.554688 Z M 6.859375 6.539062 L 6.683594 6.539062 L 6.683594 5.820312 L 6.839844 5.820312 L 6.839844 5.992188 C 6.863281 5.925781 6.894531 5.878906 6.933594 5.847656 C 6.972656 5.816406 7.015625 5.800781 7.054688 5.800781 C 7.0625 5.800781 7.070312 5.800781 7.078125 5.800781 L 7.078125 5.976562 C 6.988281 5.976562 6.929688 6 6.902344 6.054688 C 6.871094 6.105469 6.859375 6.15625 6.859375 6.207031 Z M 7.507812 6.554688 C 7.394531 6.554688 7.308594 6.515625 7.246094 6.441406 C 7.1875 6.363281 7.15625 6.277344 7.15625 6.179688 C 7.15625 6.070312 7.1875 5.984375 7.257812 5.914062 C 7.324219 5.84375 7.410156 5.804688 7.519531 5.804688 C 7.625 5.804688 7.710938 5.839844 7.777344 5.910156 C 7.84375 5.980469 7.878906 6.066406 7.878906 6.179688 C 7.878906 6.292969 7.84375 6.382812 7.773438 6.453125 C 7.703125 6.519531 7.617188 6.554688 7.507812 6.554688 Z M 7.515625 6.421875 C 7.632812 6.421875 7.691406 6.339844 7.691406 6.175781 C 7.691406 6.105469 7.679688 6.046875 7.648438 6.003906 C 7.621094 5.960938 7.578125 5.941406 7.519531 5.941406 C 7.460938 5.941406 7.414062 5.960938 7.386719 6.003906 C 7.355469 6.050781 7.34375 6.109375 7.34375 6.179688 C 7.34375 6.257812 7.355469 6.316406 7.386719 6.359375 C 7.417969 6.402344 7.460938 6.421875 7.515625 6.421875 Z M 7.515625 6.421875 "/>
</g>
</svg>
