<?xml version="1.0" encoding="UTF-8"?>
<svg xmlns="http://www.w3.org/2000/svg" xmlns:xlink="http://www.w3.org/1999/xlink" width="24" height="24" viewBox="0 0 24 24">
<defs>
<filter id="filter-remove-color" x="0%" y="0%" width="100%" height="100%">
<feColorMatrix color-interpolation-filters="sRGB" values="0 0 0 0 1 0 0 0 0 1 0 0 0 0 1 0 0 0 1 0" />
</filter>
<mask id="mask-0">
<g filter="url(#filter-remove-color)">
<rect x="-2.4" y="-2.4" width="28.8" height="28.8" fill="rgb(0%, 0%, 0%)" fill-opacity="0.426087"/>
</g>
</mask>
<clipPath id="clip-0">
<path clip-rule="nonzero" d="M 0 0 L 24 0 L 24 24 L 0 24 Z M 0 0 "/>
</clipPath>
<clipPath id="clip-1">
<rect x="0" y="0" width="24" height="24"/>
</clipPath>
<g id="source-7" clip-path="url(#clip-1)">
<g clip-path="url(#clip-0)">
<path fill-rule="nonzero" fill="rgb(67.45098%, 84.705882%, 95.294118%)" fill-opacity="1" d="M 19.113281 -0.121094 C 16.71875 -0.121094 14.726562 1.871094 14.726562 4.265625 C 14.726562 4.464844 14.746094 4.660156 14.773438 4.855469 L 10.710938 5.660156 C 10.492188 5.703125 10.277344 5.777344 10.078125 5.878906 C 10.078125 5.878906 9.960938 5.929688 9.785156 6.03125 L 2.960938 6.003906 C 2.640625 6 2.320312 6.0625 2.023438 6.183594 C 1.726562 6.304688 1.457031 6.484375 1.230469 6.710938 C 1.003906 6.9375 0.820312 7.207031 0.695312 7.5 C 0.574219 7.796875 0.507812 8.117188 0.507812 8.4375 L 0.503906 9.375 C 0.5 9.695312 0.5625 10.015625 0.683594 10.3125 C 0.804688 10.609375 0.984375 10.878906 1.210938 11.105469 C 1.4375 11.335938 1.707031 11.515625 2.003906 11.640625 C 2.296875 11.761719 2.617188 11.828125 2.9375 11.828125 L 9.667969 11.855469 C 9.996094 12.03125 10.210938 12.03125 10.394531 12.078125 C 10.402344 12.082031 10.402344 12.082031 10.410156 12.082031 L 9.914062 12.292969 L 9.875 12.308594 L 9.878906 12.3125 C 9.644531 12.410156 9.4375 12.535156 9.242188 12.671875 C 8.761719 12.960938 8.351562 13.355469 8.046875 13.859375 L 8.042969 13.855469 L 8.015625 13.902344 L 6.304688 16.679688 C 6.121094 16.292969 5.835938 15.960938 5.480469 15.71875 C 5.125 15.476562 4.714844 15.332031 4.285156 15.296875 L 3.351562 15.230469 C 3.03125 15.203125 2.710938 15.246094 2.40625 15.34375 C 2.101562 15.445312 1.820312 15.605469 1.574219 15.8125 C 1.332031 16.023438 1.132812 16.277344 0.988281 16.566406 C 0.84375 16.851562 0.757812 17.164062 0.734375 17.484375 C 0.601562 19.269531 1.28125 20.863281 2.367188 21.789062 C 3.40625 22.667969 4.605469 22.804688 4.605469 22.804688 C 4.621094 22.804688 4.640625 22.808594 4.65625 22.808594 L 14.566406 24.097656 C 15.210938 24.183594 15.859375 24.007812 16.371094 23.613281 C 16.886719 23.21875 17.222656 22.636719 17.304688 21.992188 L 17.425781 21.0625 C 17.46875 20.746094 17.445312 20.421875 17.363281 20.113281 C 17.28125 19.800781 17.136719 19.511719 16.941406 19.257812 C 16.746094 19 16.5 18.789062 16.222656 18.628906 C 15.945312 18.46875 15.636719 18.363281 15.316406 18.324219 L 14.289062 18.1875 L 17.5 16.910156 L 17.480469 16.859375 C 17.878906 16.597656 18.945312 15.960938 18.847656 16.054688 C 18.742188 16.160156 19.554688 14.855469 19.746094 14.59375 L 19.769531 14.601562 L 21.644531 9.355469 L 21.632812 9.351562 C 21.601562 9.332031 21.839844 7.550781 21.855469 7.707031 C 21.855469 7.714844 21.84375 7.675781 21.839844 7.675781 C 22.84375 6.867188 23.496094 5.632812 23.496094 4.265625 C 23.496094 1.871094 21.503906 -0.121094 19.113281 -0.121094 Z M 19.113281 -0.121094 "/>
</g>
</g>
</defs>
<g mask="url(#mask-0)">
<use xlink:href="#source-7"/>
</g>
<path fill-rule="nonzero" fill="rgb(69.019608%, 11.372549%, 11.372549%)" fill-opacity="1" d="M 16.679688 12.300781 C 16.4375 12.242188 16.179688 12.265625 15.957031 12.367188 L 10.839844 14.554688 C 10.566406 14.667969 10.34375 14.890625 10.234375 15.164062 C 10.121094 15.433594 10.125 15.75 10.242188 16.019531 C 10.359375 16.289062 10.589844 16.507812 10.863281 16.609375 C 11.136719 16.714844 11.453125 16.703125 11.722656 16.582031 L 16.753906 14.574219 C 17.179688 14.398438 17.546875 13.746094 17.511719 13.289062 C 17.476562 12.828125 17.125 12.414062 16.679688 12.300781 Z M 16.679688 12.300781 "/>
<path fill-rule="nonzero" fill="rgb(69.019608%, 11.372549%, 11.372549%)" fill-opacity="1" d="M 18.25 6.722656 C 17.941406 6.683594 17.628906 6.75 17.363281 6.914062 C 17.101562 7.078125 16.902344 7.332031 16.800781 7.625 L 14.925781 12.875 C 14.863281 13.042969 14.832031 13.21875 14.839844 13.398438 C 14.84375 13.578125 14.886719 13.757812 14.960938 13.917969 C 15.035156 14.082031 15.144531 14.230469 15.277344 14.351562 C 15.410156 14.472656 15.5625 14.566406 15.734375 14.625 C 15.902344 14.6875 16.082031 14.710938 16.261719 14.703125 C 16.441406 14.691406 16.617188 14.648438 16.777344 14.566406 C 16.9375 14.488281 17.082031 14.378906 17.203125 14.242188 C 17.320312 14.109375 17.410156 13.949219 17.46875 13.78125 L 19.339844 8.53125 C 19.414062 8.339844 19.441406 8.136719 19.421875 7.933594 C 19.402344 7.734375 19.339844 7.535156 19.234375 7.363281 C 19.128906 7.1875 18.984375 7.039062 18.816406 6.929688 C 18.644531 6.820312 18.453125 6.746094 18.25 6.722656 Z M 18.25 6.722656 "/>
<path fill-rule="nonzero" fill="rgb(69.019608%, 11.372549%, 11.372549%)" fill-opacity="1" d="M 10.363281 8.894531 C 10.359375 9.132812 10.457031 9.375 10.632812 9.539062 C 10.804688 9.703125 11.289062 9.773438 11.289062 9.773438 L 17.964844 8.453125 C 17.964844 8.453125 18.589844 7.722656 18.402344 7.3125 C 18.21875 6.898438 17.773438 6.753906 17.773438 6.753906 L 11.183594 8.058594 C 11.183594 8.058594 10.375 8.464844 10.363281 8.894531 Z M 10.363281 8.894531 "/>
<path fill-rule="nonzero" fill="rgb(69.019608%, 11.372549%, 11.372549%)" fill-opacity="1" d="M 21.054688 4.265625 C 21.054688 4.78125 20.847656 5.273438 20.484375 5.636719 C 20.121094 6 19.625 6.207031 19.113281 6.207031 C 18.597656 6.207031 18.101562 6 17.738281 5.636719 C 17.375 5.273438 17.171875 4.78125 17.171875 4.265625 C 17.171875 3.75 17.375 3.257812 17.738281 2.890625 C 18.101562 2.527344 18.597656 2.324219 19.113281 2.324219 C 19.625 2.324219 20.121094 2.527344 20.484375 2.890625 C 20.847656 3.257812 21.054688 3.75 21.054688 4.265625 Z M 21.054688 4.265625 "/>
<path fill-rule="nonzero" fill="rgb(69.019608%, 11.372549%, 11.372549%)" fill-opacity="1" d="M 10.675781 14.667969 C 10.445312 14.757812 10.25 14.925781 10.125 15.136719 L 7.675781 19.109375 C 7.519531 19.359375 7.464844 19.667969 7.53125 19.953125 C 7.597656 20.242188 7.785156 20.496094 8.035156 20.648438 C 8.289062 20.800781 8.601562 20.847656 8.882812 20.773438 C 9.167969 20.699219 9.417969 20.507812 9.566406 20.253906 L 12.011719 16.28125 C 12.257812 15.890625 12.21875 15.347656 11.925781 14.992188 C 11.632812 14.636719 11.105469 14.5 10.675781 14.667969 Z M 10.675781 14.667969 "/>
<path fill-rule="nonzero" fill="rgb(69.019608%, 11.372549%, 11.372549%)" fill-opacity="1" d="M 3.171875 17.664062 C 3.085938 18.792969 3.492188 19.535156 3.949219 19.921875 C 4.410156 20.3125 4.921875 20.378906 4.921875 20.378906 L 14.882812 21.675781 L 15.003906 20.746094 L 5.039062 19.449219 C 5.039062 19.449219 4.804688 19.417969 4.554688 19.207031 C 4.304688 18.996094 4.039062 18.632812 4.105469 17.734375 Z M 3.171875 17.664062 "/>
<path fill-rule="nonzero" fill="rgb(69.019608%, 11.372549%, 11.372549%)" fill-opacity="1" d="M 2.953125 8.445312 L 2.945312 9.386719 L 11.042969 9.417969 L 11.046875 8.480469 Z M 2.953125 8.445312 "/>
</svg>
