<?xml version="1.0" encoding="UTF-8"?>
<svg xmlns="http://www.w3.org/2000/svg" xmlns:xlink="http://www.w3.org/1999/xlink" width="12" height="12" viewBox="0 0 12 12" version="1.1">
<g id="surface1">
<path style=" stroke:none;fill-rule:evenodd;fill:rgb(57.647061%,0%,57.647061%);fill-opacity:1;" d="M 8.363281 4 L 11.636719 4 C 11.835938 4 12 4.164062 12 4.363281 L 12 7.636719 C 12 7.835938 11.835938 8 11.636719 8 L 8.363281 8 C 8.164062 8 8 7.835938 8 7.636719 L 8 4.363281 C 8 4.164062 8.164062 4 8.363281 4 Z M 8.363281 4 "/>
<path style=" stroke:none;fill-rule:nonzero;fill:rgb(95.686275%,80.000001%,80.000001%);fill-opacity:1;" d="M 8.25 4.425781 C 8.25 4.328125 8.328125 4.25 8.425781 4.25 L 11.574219 4.25 C 11.671875 4.25 11.75 4.328125 11.75 4.425781 L 11.75 7.574219 C 11.75 7.671875 11.671875 7.75 11.574219 7.75 L 8.425781 7.75 C 8.328125 7.75 8.25 7.671875 8.25 7.574219 Z M 8.25 4.425781 "/>
</g>
</svg>
