<?xml version="1.0" encoding="UTF-8"?>
<svg xmlns="http://www.w3.org/2000/svg" xmlns:xlink="http://www.w3.org/1999/xlink" width="32" height="32" viewBox="0 0 32 32">
<defs>
<filter id="filter-remove-color" x="0%" y="0%" width="100%" height="100%">
<feColorMatrix color-interpolation-filters="sRGB" values="0 0 0 0 1 0 0 0 0 1 0 0 0 0 1 0 0 0 1 0" />
</filter>
<mask id="mask-0">
<g filter="url(#filter-remove-color)">
<rect x="-3.2" y="-3.2" width="38.4" height="38.4" fill="rgb(0%, 0%, 0%)" fill-opacity="0.426087"/>
</g>
</mask>
<clipPath id="clip-0">
<rect x="0" y="0" width="32" height="32"/>
</clipPath>
<g id="source-6" clip-path="url(#clip-0)">
<path fill-rule="nonzero" fill="rgb(67.45098%, 84.705882%, 95.294118%)" fill-opacity="1" d="M 19.382812 2.972656 C 18.804688 2.972656 18.320312 3.25 18.003906 3.597656 C 17.71875 3.910156 16.855469 4.175781 16.601562 4.175781 C 16.347656 4.175781 15.480469 3.910156 15.199219 3.597656 C 15.199219 3.597656 15.195312 3.597656 15.195312 3.597656 C 14.863281 3.230469 14.339844 2.949219 13.738281 2.976562 C 13.191406 3 12.742188 3.265625 12.441406 3.597656 C 12.15625 3.910156 11.296875 4.175781 11.039062 4.175781 C 10.875 4.175781 10.410156 4.089844 10.074219 3.917969 C 9.746094 3.746094 9.363281 3.710938 9.007812 3.816406 C 8.652344 3.921875 8.351562 4.160156 8.167969 4.480469 C 7.90625 4.933594 7.691406 5.667969 7.742188 6.304688 C 7.757812 6.523438 7.785156 6.726562 7.824219 6.914062 C 7.871094 7.128906 7.96875 7.335938 8.105469 7.511719 C 8.246094 7.683594 8.421875 7.824219 8.625 7.921875 C 9.492188 8.328125 10.339844 8.460938 11.039062 8.460938 C 11.839844 8.460938 12.847656 8.285156 13.820312 7.734375 C 14.796875 8.285156 15.800781 8.460938 16.601562 8.460938 C 16.859375 8.460938 17.140625 8.441406 17.433594 8.398438 C 17.425781 8.417969 17.421875 8.4375 17.417969 8.460938 L 15.039062 19.175781 C 12.820312 19.625 11.128906 21.601562 11.128906 23.945312 C 11.128906 26.617188 13.328125 28.816406 16 28.816406 C 18.671875 28.816406 20.871094 26.617188 20.871094 23.945312 C 20.871094 22.484375 20.210938 21.167969 19.175781 20.273438 L 21.59375 9.386719 C 21.667969 9.058594 21.621094 8.714844 21.46875 8.414062 C 21.710938 8.445312 21.945312 8.460938 22.164062 8.460938 C 23.078125 8.460938 24.253906 8.234375 25.367188 7.46875 C 25.539062 7.347656 25.683594 7.191406 25.792969 7.011719 C 25.898438 6.828125 25.964844 6.628906 25.984375 6.417969 C 25.996094 6.277344 26.003906 6.148438 26.003906 6.027344 C 26.015625 5.339844 25.71875 4.59375 25.414062 4.136719 C 25.304688 3.976562 25.167969 3.835938 25.003906 3.730469 C 24.84375 3.625 24.660156 3.554688 24.46875 3.519531 C 24.277344 3.484375 24.082031 3.488281 23.894531 3.53125 C 23.703125 3.578125 23.527344 3.65625 23.367188 3.769531 C 23.027344 4.019531 22.371094 4.175781 22.164062 4.175781 C 21.90625 4.175781 21.046875 3.910156 20.761719 3.597656 C 20.445312 3.25 19.957031 2.972656 19.382812 2.972656 Z M 16 23.355469 C 16.363281 23.355469 16.59375 23.582031 16.59375 23.945312 C 16.59375 24.3125 16.363281 24.539062 16 24.539062 C 15.636719 24.539062 15.40625 24.3125 15.40625 23.945312 C 15.40625 23.582031 15.636719 23.355469 16 23.355469 Z M 16 23.355469 "/>
</g>
</defs>
<g mask="url(#mask-0)">
<use xlink:href="#source-6"/>
</g>
<path fill-rule="nonzero" fill="rgb(99.607843%, 99.607843%, 99.607843%)" fill-opacity="1" stroke-width="25.2735" stroke-linecap="butt" stroke-linejoin="miter" stroke="rgb(69.019608%, 11.372549%, 11.372549%)" stroke-opacity="1" stroke-miterlimit="4" d="M 290 483.569336 C 317.329102 483.569336 339.489746 461.337891 339.489746 434.008789 C 339.489746 406.679688 317.329102 384.519043 290 384.519043 C 262.670898 384.519043 240.510254 406.679688 240.510254 434.008789 C 240.510254 461.337891 262.670898 483.569336 290 483.569336 Z M 290 483.569336 " transform="matrix(0.0551724, 0, 0, 0.0551724, 0, 0)"/>
<path fill="none" stroke-width="25.2735" stroke-linecap="butt" stroke-linejoin="miter" stroke="rgb(69.019608%, 11.372549%, 11.372549%)" stroke-opacity="1" stroke-miterlimit="4" d="M 303.876953 385.581055 L 353.508301 161.708984 " transform="matrix(0.0551724, 0, 0, 0.0551724, 0, 0)"/>
<path fill-rule="nonzero" fill="rgb(69.019608%, 11.372549%, 11.372549%)" fill-opacity="1" d="M 13.800781 4.414062 C 13.695312 4.421875 13.59375 4.472656 13.507812 4.566406 C 12.828125 5.316406 11.722656 5.617188 11.039062 5.617188 C 10.601562 5.617188 9.980469 5.488281 9.417969 5.199219 C 9.222656 5.535156 9.148438 5.78125 9.179688 6.199219 C 9.191406 6.351562 9.210938 6.488281 9.238281 6.617188 C 9.882812 6.917969 10.53125 7.019531 11.039062 7.019531 C 11.816406 7.019531 12.90625 6.785156 13.820312 5.96875 C 14.734375 6.785156 15.828125 7.019531 16.601562 7.019531 C 17.375 7.019531 18.46875 6.785156 19.382812 5.96875 C 20.296875 6.785156 21.386719 7.019531 22.164062 7.019531 C 22.828125 7.019531 23.730469 6.847656 24.546875 6.28125 C 24.558594 6.195312 24.5625 6.101562 24.5625 6.007812 C 24.570312 5.554688 24.460938 5.304688 24.214844 4.9375 C 23.554688 5.417969 22.71875 5.617188 22.164062 5.617188 C 21.480469 5.617188 20.371094 5.316406 19.691406 4.566406 C 19.605469 4.46875 19.492188 4.414062 19.382812 4.414062 C 19.269531 4.414062 19.160156 4.46875 19.070312 4.566406 C 18.390625 5.316406 17.28125 5.617188 16.601562 5.617188 C 15.921875 5.617188 14.808594 5.316406 14.128906 4.566406 C 14.039062 4.464844 13.917969 4.410156 13.800781 4.414062 Z M 13.800781 4.414062 "/>
</svg>
