<?xml version="1.0" encoding="UTF-8"?>
<svg xmlns="http://www.w3.org/2000/svg" xmlns:xlink="http://www.w3.org/1999/xlink" width="32" height="32" viewBox="0 0 32 32">
<defs>
<filter id="filter-remove-color" x="0%" y="0%" width="100%" height="100%">
<feColorMatrix color-interpolation-filters="sRGB" values="0 0 0 0 1 0 0 0 0 1 0 0 0 0 1 0 0 0 1 0" />
</filter>
<mask id="mask-0">
<g filter="url(#filter-remove-color)">
<rect x="-3.2" y="-3.2" width="38.4" height="38.4" fill="rgb(0%, 0%, 0%)" fill-opacity="0.372"/>
</g>
</mask>
<clipPath id="clip-0">
<rect x="0" y="0" width="32" height="32"/>
</clipPath>
<g id="source-6" clip-path="url(#clip-0)">
<path fill-rule="nonzero" fill="rgb(89.411765%, 89.411765%, 89.411765%)" fill-opacity="1" d="M 20.515625 4.175781 C 19.820312 4.175781 19.53125 4.441406 19.207031 4.714844 C 18.902344 4.976562 18.652344 5.277344 18.417969 5.628906 C 17.957031 6.332031 17.585938 7.191406 17.585938 8.210938 C 17.585938 9.324219 17.925781 10.378906 18.664062 11.082031 C 18.683594 11.101562 18.699219 11.128906 18.710938 11.15625 C 18.722656 11.183594 18.726562 11.210938 18.726562 11.242188 L 18.621094 13.660156 C 18.617188 13.714844 18.617188 13.726562 18.621094 13.78125 C 18.621094 13.839844 18.625 13.851562 18.632812 13.90625 C 18.640625 13.960938 18.644531 13.972656 18.660156 14.027344 C 18.671875 14.082031 18.675781 14.09375 18.695312 14.148438 C 18.714844 14.199219 18.71875 14.210938 18.746094 14.261719 C 18.769531 14.308594 18.777344 14.320312 18.808594 14.367188 C 18.835938 14.414062 18.84375 14.425781 18.878906 14.46875 C 18.910156 14.515625 18.921875 14.527344 18.957031 14.566406 C 18.996094 14.605469 19.007812 14.613281 19.046875 14.648438 C 19.089844 14.6875 19.101562 14.695312 19.148438 14.726562 C 19.195312 14.757812 19.207031 14.765625 19.253906 14.792969 C 19.300781 14.816406 19.3125 14.824219 19.363281 14.847656 C 19.414062 14.867188 19.429688 14.875 19.480469 14.890625 C 19.535156 14.90625 19.546875 14.910156 19.601562 14.921875 C 19.65625 14.933594 19.667969 14.933594 19.722656 14.941406 C 19.78125 14.945312 19.792969 14.945312 19.847656 14.945312 L 21.179688 14.945312 C 21.269531 14.945312 21.289062 14.945312 21.378906 14.929688 C 21.464844 14.914062 21.488281 14.910156 21.570312 14.882812 C 21.65625 14.851562 21.675781 14.84375 21.753906 14.804688 C 21.832031 14.761719 21.851562 14.75 21.921875 14.695312 C 21.992188 14.644531 22.007812 14.628906 22.070312 14.5625 C 22.128906 14.5 22.144531 14.480469 22.195312 14.410156 C 22.246094 14.335938 22.253906 14.316406 22.292969 14.234375 C 22.332031 14.15625 22.339844 14.136719 22.363281 14.050781 C 22.375 14.007812 22.402344 13.96875 22.4375 13.941406 C 22.472656 13.914062 22.519531 13.902344 22.5625 13.902344 C 22.605469 13.902344 22.652344 13.914062 22.6875 13.941406 C 22.722656 13.96875 22.75 14.007812 22.761719 14.050781 C 22.785156 14.136719 22.792969 14.15625 22.832031 14.234375 C 22.867188 14.316406 22.878906 14.335938 22.929688 14.410156 C 22.980469 14.480469 22.996094 14.5 23.054688 14.5625 C 23.117188 14.628906 23.132812 14.644531 23.203125 14.695312 C 23.273438 14.75 23.292969 14.761719 23.371094 14.804688 C 23.449219 14.84375 23.46875 14.851562 23.554688 14.882812 C 23.636719 14.910156 23.660156 14.914062 23.746094 14.929688 C 23.835938 14.945312 23.855469 14.945312 23.945312 14.945312 L 25.277344 14.945312 C 25.332031 14.945312 25.34375 14.945312 25.398438 14.941406 C 25.457031 14.933594 25.46875 14.933594 25.523438 14.921875 C 25.578125 14.910156 25.59375 14.90625 25.644531 14.886719 C 25.699219 14.871094 25.710938 14.867188 25.761719 14.84375 C 25.8125 14.824219 25.824219 14.816406 25.875 14.789062 C 25.921875 14.761719 25.9375 14.757812 25.980469 14.722656 C 26.027344 14.691406 26.039062 14.683594 26.078125 14.648438 C 26.121094 14.613281 26.132812 14.601562 26.167969 14.5625 C 26.207031 14.523438 26.214844 14.511719 26.25 14.46875 C 26.285156 14.421875 26.292969 14.410156 26.324219 14.363281 C 26.351562 14.316406 26.359375 14.304688 26.382812 14.253906 C 26.40625 14.207031 26.414062 14.191406 26.429688 14.140625 C 26.449219 14.085938 26.457031 14.074219 26.46875 14.019531 C 26.484375 13.96875 26.484375 13.953125 26.492188 13.898438 C 26.5 13.84375 26.503906 13.828125 26.507812 13.773438 C 26.511719 13.71875 26.507812 13.703125 26.503906 13.648438 L 26.40625 11.78125 C 26.402344 11.75 26.410156 11.722656 26.421875 11.695312 C 26.433594 11.664062 26.449219 11.640625 26.472656 11.621094 C 26.65625 11.445312 26.824219 11.253906 26.941406 11.027344 C 27.238281 10.472656 27.296875 9.898438 27.296875 9.261719 C 27.296875 9.234375 27.292969 9.230469 27.292969 9.203125 L 27.121094 5.574219 C 27.117188 5.5625 27.113281 5.546875 27.113281 5.535156 C 27.078125 4.820312 26.484375 4.234375 25.761719 4.234375 L 25.679688 4.234375 C 25.609375 4.234375 25.539062 4.242188 25.460938 4.257812 C 25.429688 4.261719 25.398438 4.261719 25.371094 4.253906 C 25.253906 4.222656 25.136719 4.199219 25.023438 4.199219 L 24.914062 4.199219 C 24.824219 4.199219 24.738281 4.207031 24.652344 4.226562 C 24.625 4.230469 24.597656 4.230469 24.570312 4.226562 C 24.484375 4.207031 24.394531 4.199219 24.308594 4.199219 L 24.199219 4.199219 C 24.082031 4.199219 23.96875 4.21875 23.847656 4.25 C 23.820312 4.257812 23.789062 4.261719 23.761719 4.257812 C 23.683594 4.246094 23.613281 4.234375 23.550781 4.234375 L 23.46875 4.234375 C 22.992188 4.234375 22.570312 4.488281 22.328125 4.867188 C 22.3125 4.894531 22.289062 4.917969 22.261719 4.933594 C 22.238281 4.949219 22.207031 4.957031 22.175781 4.960938 C 22.144531 4.964844 22.113281 4.960938 22.085938 4.953125 C 22.058594 4.941406 22.03125 4.925781 22.007812 4.902344 C 21.933594 4.828125 21.875 4.761719 21.820312 4.714844 C 21.496094 4.441406 21.207031 4.175781 20.515625 4.175781 Z M 22.527344 11.484375 C 22.554688 11.484375 22.582031 11.488281 22.609375 11.5 C 22.632812 11.511719 22.65625 11.527344 22.675781 11.546875 C 22.703125 11.574219 22.726562 11.601562 22.75 11.621094 C 22.773438 11.640625 22.789062 11.664062 22.800781 11.695312 C 22.8125 11.722656 22.816406 11.75 22.816406 11.78125 L 22.773438 12.558594 C 22.773438 12.613281 22.753906 12.664062 22.714844 12.703125 C 22.675781 12.742188 22.621094 12.765625 22.566406 12.765625 C 22.511719 12.765625 22.460938 12.742188 22.421875 12.703125 C 22.382812 12.664062 22.359375 12.613281 22.359375 12.558594 L 22.324219 11.699219 C 22.320312 11.671875 22.324219 11.644531 22.335938 11.617188 C 22.34375 11.59375 22.359375 11.570312 22.378906 11.550781 C 22.398438 11.527344 22.421875 11.511719 22.445312 11.5 C 22.472656 11.492188 22.5 11.484375 22.527344 11.484375 Z M 22.527344 11.484375 "/>
</g>
</defs>
<g mask="url(#mask-0)">
<use xlink:href="#source-6"/>
</g>
<path fill-rule="nonzero" fill="rgb(0%, 0%, 0%)" fill-opacity="1" d="M 21.058594 10.65625 C 21.738281 10.339844 22.230469 9.425781 22.230469 8.347656 C 22.230469 7.007812 21.113281 5.539062 20.53125 5.539062 C 19.953125 5.539062 18.835938 7.007812 18.835938 8.347656 C 18.835938 9.425781 19.328125 10.339844 20.007812 10.65625 L 19.867188 13.851562 L 21.199219 13.851562 Z M 21.058594 10.65625 "/>
<path fill-rule="nonzero" fill="rgb(0%, 0%, 0%)" fill-opacity="1" d="M 25.152344 11.199219 C 25.835938 10.882812 26.082031 10.476562 26.082031 9.398438 L 25.90625 5.730469 C 25.90625 5.660156 25.847656 5.605469 25.777344 5.605469 L 25.695312 5.605469 C 25.625 5.605469 25.570312 5.660156 25.570312 5.730469 L 25.628906 9.398438 L 25.261719 9.398438 L 25.167969 5.695312 C 25.167969 5.625 25.113281 5.566406 25.042969 5.566406 L 24.933594 5.566406 C 24.863281 5.566406 24.804688 5.625 24.804688 5.695312 L 24.855469 9.398438 L 24.402344 9.398438 L 24.453125 5.695312 C 24.453125 5.625 24.394531 5.566406 24.324219 5.566406 L 24.214844 5.566406 C 24.148438 5.566406 24.089844 5.625 24.089844 5.695312 L 23.996094 9.398438 L 23.636719 9.398438 L 23.699219 5.730469 C 23.699219 5.660156 23.640625 5.605469 23.570312 5.605469 L 23.488281 5.605469 C 23.417969 5.605469 23.359375 5.660156 23.359375 5.730469 L 23.175781 9.398438 C 23.175781 10.476562 23.425781 10.882812 24.105469 11.199219 L 23.964844 13.851562 L 25.292969 13.851562 Z M 25.152344 11.199219 "/>
</svg>
