<svg width="32" height="32" viewBox="0 0 320 320" fill="none" xmlns="http://www.w3.org/2000/svg">
<path d="M168.485 154.773L130.824 153.471L149.722 120.719L155.469 131.149C155.469 131.149 185.381 114.934 215.261 144.658C237.841 167.121 233.39 218.816 159.997 214.97C155.042 208.349 155.098 208.005 150.702 200.823C215.28 206.398 221.643 173.946 207.568 156.674C185.679 129.814 162.6 144.084 162.6 144.084L168.485 154.773Z" fill="black"/>
<path d="M179.122 122.626L212.651 105.428L181.617 83.8252L180.852 95.7097C180.852 95.7097 148.028 90.396 122.449 106.658C81.1918 132.888 72.1665 225.622 166.03 236.175C168.482 229.759 168.467 230.062 171.736 222.806C95.7534 219.612 94.143 144.405 128.649 119.508C147.363 106.006 179.901 110.449 179.901 110.449L179.122 122.626" fill="black"/>
</svg>
