<?xml version="1.0" encoding="UTF-8"?>
<svg xmlns="http://www.w3.org/2000/svg" xmlns:xlink="http://www.w3.org/1999/xlink" width="12" height="12" viewBox="0 0 12 12" version="1.1">
<g id="surface1">
<path style=" stroke:none;fill-rule:evenodd;fill:rgb(0%,0%,0%);fill-opacity:1;" d="M 5.9375 0.828125 C 5.742188 0.839844 5.554688 0.898438 5.386719 1 C 5.222656 1.101562 5.085938 1.242188 4.988281 1.410156 L 0.542969 9.105469 C 0.441406 9.28125 0.386719 9.480469 0.386719 9.6875 C 0.386719 9.890625 0.441406 10.09375 0.542969 10.269531 C 0.644531 10.445312 0.792969 10.59375 0.96875 10.695312 C 1.148438 10.796875 1.347656 10.851562 1.554688 10.851562 L 10.445312 10.859375 C 10.648438 10.859375 10.851562 10.804688 11.027344 10.703125 C 11.207031 10.601562 11.351562 10.453125 11.457031 10.277344 C 11.558594 10.101562 11.613281 9.898438 11.613281 9.695312 C 11.613281 9.488281 11.558594 9.289062 11.457031 9.109375 L 7.007812 1.410156 C 6.898438 1.222656 6.742188 1.070312 6.554688 0.96875 C 6.363281 0.863281 6.152344 0.816406 5.9375 0.828125 Z M 5.9375 0.828125 "/>
<path style=" stroke:none;fill-rule:nonzero;fill:rgb(100%,94.901961%,0%);fill-opacity:1;" d="M 1.550781 9.746094 C 1.460938 9.597656 1.5625 9.3125 1.5625 9.3125 L 5.703125 2.140625 C 5.703125 2.140625 5.882812 1.785156 6.054688 1.789062 C 6.222656 1.789062 6.417969 2.164062 6.417969 2.164062 L 10.511719 9.253906 C 10.511719 9.253906 10.664062 9.574219 10.578125 9.730469 C 10.488281 9.886719 10.238281 9.898438 10.238281 9.898438 L 1.953125 9.890625 C 1.953125 9.890625 1.636719 9.890625 1.550781 9.746094 Z M 1.550781 9.746094 "/>
<path style=" stroke:none;fill-rule:nonzero;fill:rgb(0%,0%,0%);fill-opacity:1;" d="M 3.574219 7.90625 C 3.230469 7.996094 2.972656 8.308594 2.972656 8.683594 C 2.972656 9.128906 3.335938 9.488281 3.777344 9.488281 C 4.046875 9.488281 4.289062 9.355469 4.433594 9.148438 C 4.414062 9.132812 4.390625 9.113281 4.386719 9.089844 C 4.378906 9.066406 4.386719 9.035156 4.367188 9.011719 C 4.347656 8.996094 4.339844 8.976562 4.3125 8.96875 C 4.289062 8.960938 4.25 8.960938 4.222656 8.964844 C 4.203125 8.96875 4.144531 8.992188 4.144531 8.964844 C 4.144531 8.941406 4.148438 8.921875 4.136719 8.90625 C 4.121094 8.886719 4.074219 8.914062 4.066406 8.890625 C 4.0625 8.863281 4.097656 8.863281 4.121094 8.835938 C 4.125 8.832031 4.097656 8.808594 4.132812 8.824219 C 4.160156 8.835938 4.125 8.757812 4.144531 8.734375 C 4.164062 8.710938 4.242188 8.691406 4.242188 8.65625 C 4.242188 8.632812 4.238281 8.625 4.242188 8.578125 C 4.25 8.542969 4.238281 8.550781 4.191406 8.5625 C 4.183594 8.566406 4.175781 8.546875 4.167969 8.546875 C 4.148438 8.550781 4.097656 8.566406 4.070312 8.558594 C 4.042969 8.550781 4.039062 8.527344 4.019531 8.511719 C 3.996094 8.492188 3.988281 8.492188 3.960938 8.492188 C 3.925781 8.492188 3.914062 8.464844 3.890625 8.441406 C 3.863281 8.414062 3.84375 8.402344 3.804688 8.402344 C 3.757812 8.402344 3.71875 8.410156 3.671875 8.410156 C 3.648438 8.410156 3.59375 8.421875 3.574219 8.402344 C 3.554688 8.382812 3.554688 8.359375 3.566406 8.328125 C 3.578125 8.304688 3.601562 8.289062 3.613281 8.273438 C 3.628906 8.238281 3.683594 8.242188 3.707031 8.210938 C 3.722656 8.191406 3.722656 8.164062 3.722656 8.128906 C 3.722656 8.09375 3.703125 8.054688 3.683594 8.027344 C 3.667969 8.003906 3.636719 7.996094 3.628906 7.984375 C 3.617188 7.96875 3.605469 7.933594 3.589844 7.921875 C 3.585938 7.914062 3.582031 7.910156 3.574219 7.90625 Z M 3.574219 7.90625 "/>
<path style=" stroke:none;fill-rule:evenodd;fill:rgb(0%,0%,0%);fill-opacity:1;" d="M 3.292969 7.808594 C 3.332031 7.832031 3.351562 7.878906 3.332031 7.910156 C 3.3125 7.945312 3.257812 7.945312 3.214844 7.945312 C 3.171875 7.945312 3.171875 7.9375 3.160156 7.90625 C 3.152344 7.878906 3.140625 7.851562 3.175781 7.824219 C 3.207031 7.800781 3.253906 7.789062 3.292969 7.808594 Z M 3.292969 7.808594 "/>
<path style=" stroke:none;fill-rule:evenodd;fill:rgb(0%,0%,0%);fill-opacity:1;" d="M 3.476562 7.730469 C 3.503906 7.746094 3.515625 7.777344 3.511719 7.800781 C 3.503906 7.824219 3.472656 7.828125 3.449219 7.824219 C 3.421875 7.824219 3.417969 7.808594 3.40625 7.789062 C 3.398438 7.769531 3.390625 7.757812 3.40625 7.742188 C 3.425781 7.730469 3.453125 7.71875 3.476562 7.730469 Z M 3.476562 7.730469 "/>
<path style=" stroke:none;fill-rule:evenodd;fill:rgb(0%,0%,0%);fill-opacity:1;" d="M 4 8.0625 C 4.050781 8.054688 4.074219 8.035156 4.128906 8.042969 C 4.179688 8.050781 4.171875 8.074219 4.214844 8.09375 C 4.257812 8.113281 4.261719 8.097656 4.304688 8.121094 C 4.34375 8.144531 4.378906 8.160156 4.378906 8.183594 C 4.375 8.207031 4.332031 8.191406 4.296875 8.214844 C 4.257812 8.238281 4.261719 8.25 4.230469 8.273438 C 4.199219 8.292969 4.199219 8.28125 4.167969 8.296875 C 4.140625 8.3125 4.136719 8.335938 4.113281 8.339844 C 4.085938 8.339844 4.097656 8.324219 4.066406 8.300781 C 4.035156 8.277344 4.007812 8.246094 3.988281 8.246094 C 3.96875 8.246094 3.917969 8.253906 3.875 8.246094 C 3.832031 8.242188 3.828125 8.246094 3.816406 8.21875 C 3.808594 8.191406 3.804688 8.167969 3.832031 8.132812 C 3.863281 8.097656 3.894531 8.097656 3.9375 8.078125 C 3.976562 8.0625 3.953125 8.074219 4 8.0625 Z M 4 8.0625 "/>
<path style=" stroke:none;fill-rule:evenodd;fill:rgb(0%,0%,0%);fill-opacity:1;" d="M 4.371094 8.496094 C 4.398438 8.449219 4.390625 8.417969 4.410156 8.378906 C 4.429688 8.339844 4.402344 8.347656 4.449219 8.339844 C 4.496094 8.328125 4.519531 8.339844 4.597656 8.339844 C 4.679688 8.339844 4.710938 8.332031 4.761719 8.339844 C 4.816406 8.34375 4.800781 8.34375 4.8125 8.363281 C 4.824219 8.382812 4.824219 8.394531 4.816406 8.417969 C 4.808594 8.445312 4.800781 8.453125 4.78125 8.46875 C 4.757812 8.484375 4.746094 8.460938 4.730469 8.480469 C 4.714844 8.5 4.707031 8.527344 4.714844 8.546875 C 4.722656 8.566406 4.738281 8.539062 4.757812 8.5625 C 4.78125 8.585938 4.800781 8.605469 4.800781 8.636719 C 4.800781 8.667969 4.789062 8.667969 4.757812 8.691406 C 4.730469 8.710938 4.734375 8.710938 4.683594 8.726562 C 4.636719 8.742188 4.617188 8.742188 4.558594 8.746094 C 4.5 8.753906 4.46875 8.75 4.449219 8.75 C 4.425781 8.75 4.382812 8.753906 4.339844 8.746094 C 4.300781 8.738281 4.300781 8.746094 4.28125 8.71875 C 4.261719 8.691406 4.257812 8.675781 4.261719 8.640625 C 4.269531 8.605469 4.269531 8.609375 4.296875 8.574219 C 4.324219 8.539062 4.339844 8.546875 4.371094 8.496094 Z M 4.371094 8.496094 "/>
<path style=" stroke:none;fill-rule:evenodd;fill:rgb(0%,0%,0%);fill-opacity:1;" d="M 4.683594 9.371094 C 4.734375 9.386719 4.769531 9.382812 4.808594 9.421875 C 4.847656 9.464844 4.828125 9.488281 4.835938 9.53125 C 4.84375 9.570312 4.859375 9.570312 4.835938 9.585938 C 4.816406 9.601562 4.789062 9.601562 4.75 9.589844 C 4.714844 9.578125 4.726562 9.566406 4.6875 9.542969 C 4.652344 9.519531 4.648438 9.511719 4.609375 9.496094 C 4.566406 9.480469 4.550781 9.5 4.53125 9.480469 C 4.507812 9.460938 4.519531 9.445312 4.515625 9.414062 C 4.515625 9.386719 4.496094 9.375 4.523438 9.363281 C 4.546875 9.347656 4.574219 9.355469 4.617188 9.359375 C 4.65625 9.359375 4.636719 9.355469 4.683594 9.371094 Z M 4.683594 9.371094 "/>
<path style=" stroke:none;fill-rule:evenodd;fill:rgb(0%,0%,0%);fill-opacity:1;" d="M 5.203125 4.585938 C 5.234375 4.554688 5.257812 4.542969 5.292969 4.496094 C 5.324219 4.453125 5.332031 4.417969 5.339844 4.402344 C 5.351562 4.390625 5.378906 4.339844 5.398438 4.300781 C 5.417969 4.261719 5.398438 4.273438 5.417969 4.25 C 5.441406 4.222656 5.472656 4.199219 5.484375 4.199219 C 5.496094 4.199219 5.53125 4.214844 5.5625 4.222656 C 5.59375 4.230469 5.582031 4.234375 5.617188 4.234375 C 5.648438 4.234375 5.65625 4.230469 5.691406 4.21875 C 5.726562 4.210938 5.71875 4.195312 5.753906 4.203125 C 5.789062 4.210938 5.8125 4.222656 5.832031 4.253906 C 5.855469 4.28125 5.84375 4.285156 5.832031 4.320312 C 5.824219 4.355469 5.804688 4.386719 5.796875 4.394531 C 5.792969 4.40625 5.789062 4.441406 5.773438 4.472656 C 5.757812 4.503906 5.757812 4.484375 5.734375 4.515625 C 5.707031 4.542969 5.675781 4.585938 5.667969 4.589844 C 5.660156 4.59375 5.625 4.625 5.601562 4.65625 C 5.578125 4.6875 5.597656 4.6875 5.578125 4.71875 C 5.554688 4.75 5.550781 4.75 5.515625 4.785156 C 5.484375 4.820312 5.472656 4.820312 5.441406 4.855469 C 5.410156 4.890625 5.425781 4.910156 5.394531 4.925781 C 5.363281 4.941406 5.335938 4.925781 5.316406 4.921875 C 5.296875 4.917969 5.25 4.871094 5.242188 4.863281 C 5.234375 4.855469 5.203125 4.808594 5.195312 4.800781 C 5.191406 4.792969 5.160156 4.738281 5.15625 4.730469 C 5.152344 4.722656 5.140625 4.65625 5.148438 4.648438 C 5.15625 4.636719 5.199219 4.589844 5.203125 4.585938 Z M 5.203125 4.585938 "/>
<path style=" stroke:none;fill-rule:evenodd;fill:rgb(0%,0%,0%);fill-opacity:1;" d="M 6.71875 4.5625 C 6.757812 4.554688 6.800781 4.539062 6.804688 4.53125 C 6.8125 4.523438 6.824219 4.503906 6.851562 4.484375 C 6.878906 4.46875 6.871094 4.460938 6.910156 4.460938 C 6.949219 4.460938 6.980469 4.460938 7.011719 4.484375 C 7.039062 4.507812 7.019531 4.519531 7.027344 4.550781 C 7.03125 4.582031 7.023438 4.578125 7.03125 4.605469 C 7.042969 4.632812 7.070312 4.632812 7.066406 4.664062 C 7.0625 4.695312 7.03125 4.722656 7.019531 4.730469 C 7.003906 4.742188 6.984375 4.765625 6.957031 4.800781 C 6.933594 4.835938 6.933594 4.859375 6.917969 4.871094 C 6.90625 4.882812 6.859375 4.921875 6.847656 4.925781 C 6.835938 4.929688 6.785156 4.976562 6.769531 4.988281 C 6.753906 4.996094 6.730469 5.027344 6.695312 5.050781 C 6.660156 5.078125 6.640625 5.089844 6.628906 5.089844 C 6.617188 5.089844 6.570312 5.097656 6.546875 5.089844 C 6.527344 5.085938 6.515625 5.070312 6.496094 5.070312 C 6.472656 5.070312 6.441406 5.0625 6.425781 5.054688 C 6.414062 5.046875 6.394531 5.011719 6.386719 5.003906 C 6.375 4.996094 6.367188 4.9375 6.359375 4.929688 C 6.355469 4.917969 6.351562 4.886719 6.351562 4.871094 C 6.351562 4.851562 6.359375 4.820312 6.371094 4.804688 C 6.382812 4.789062 6.386719 4.785156 6.398438 4.753906 C 6.410156 4.722656 6.425781 4.691406 6.429688 4.679688 C 6.429688 4.667969 6.464844 4.628906 6.476562 4.617188 C 6.488281 4.609375 6.511719 4.585938 6.519531 4.574219 C 6.53125 4.566406 6.558594 4.5625 6.589844 4.558594 C 6.621094 4.554688 6.632812 4.5625 6.648438 4.5625 C 6.664062 4.5625 6.679688 4.570312 6.71875 4.5625 Z M 6.71875 4.5625 "/>
<path style=" stroke:none;fill-rule:evenodd;fill:rgb(0%,0%,0%);fill-opacity:1;" d="M 7.105469 7.304688 C 7.164062 7.273438 7.210938 7.25 7.292969 7.210938 C 7.375 7.171875 7.421875 7.152344 7.433594 7.152344 C 7.445312 7.152344 7.484375 7.167969 7.523438 7.195312 C 7.5625 7.222656 7.578125 7.238281 7.59375 7.269531 C 7.613281 7.300781 7.597656 7.28125 7.59375 7.3125 C 7.59375 7.34375 7.605469 7.359375 7.585938 7.394531 C 7.5625 7.429688 7.519531 7.445312 7.511719 7.449219 C 7.503906 7.453125 7.503906 7.5 7.464844 7.511719 C 7.425781 7.527344 7.394531 7.519531 7.355469 7.507812 C 7.316406 7.5 7.320312 7.480469 7.308594 7.480469 C 7.296875 7.484375 7.230469 7.5 7.214844 7.5 C 7.195312 7.5 7.160156 7.519531 7.132812 7.519531 C 7.101562 7.523438 7.074219 7.492188 7.042969 7.460938 C 7.011719 7.433594 7.003906 7.40625 7.007812 7.398438 C 7.011719 7.390625 7.03125 7.359375 7.054688 7.335938 C 7.078125 7.3125 7.046875 7.335938 7.105469 7.304688 Z M 7.105469 7.304688 "/>
<path style=" stroke:none;fill-rule:evenodd;fill:rgb(0%,0%,0%);fill-opacity:1;" d="M 6.273438 9.007812 C 6.3125 9.023438 6.339844 9.035156 6.382812 9.054688 C 6.421875 9.078125 6.429688 9.070312 6.441406 9.09375 C 6.453125 9.117188 6.46875 9.132812 6.425781 9.148438 C 6.382812 9.164062 6.292969 9.160156 6.269531 9.15625 C 6.25 9.15625 6.179688 9.148438 6.144531 9.121094 C 6.105469 9.09375 6.128906 9.066406 6.121094 9.054688 C 6.117188 9.042969 6.117188 8.992188 6.125 8.992188 C 6.132812 8.992188 6.171875 9 6.207031 9.003906 C 6.242188 9.007812 6.230469 8.988281 6.273438 9.007812 Z M 6.273438 9.007812 "/>
<path style=" stroke:none;fill-rule:evenodd;fill:rgb(0%,0%,0%);fill-opacity:1;" d="M 6.710938 8.910156 C 6.757812 8.898438 6.808594 8.90625 6.878906 8.90625 C 6.953125 8.902344 6.988281 8.898438 7.003906 8.898438 C 7.019531 8.898438 7.160156 8.90625 7.175781 8.910156 C 7.191406 8.910156 7.199219 8.9375 7.234375 8.960938 C 7.269531 8.984375 7.28125 8.984375 7.320312 9.007812 C 7.359375 9.035156 7.375 9.035156 7.394531 9.0625 C 7.414062 9.089844 7.398438 9.085938 7.394531 9.113281 C 7.386719 9.140625 7.398438 9.152344 7.371094 9.171875 C 7.34375 9.1875 7.3125 9.191406 7.277344 9.1875 C 7.242188 9.183594 7.105469 9.160156 7.089844 9.160156 C 7.074219 9.160156 6.917969 9.148438 6.902344 9.152344 C 6.886719 9.152344 6.796875 9.148438 6.789062 9.148438 C 6.78125 9.148438 6.742188 9.148438 6.714844 9.132812 C 6.6875 9.113281 6.6875 9.105469 6.683594 9.078125 C 6.679688 9.050781 6.699219 9.035156 6.699219 9.023438 C 6.699219 9.015625 6.695312 8.976562 6.683594 8.964844 C 6.675781 8.949219 6.707031 8.910156 6.710938 8.910156 Z M 6.710938 8.910156 "/>
<path style=" stroke:none;fill-rule:evenodd;fill:rgb(0%,0%,0%);fill-opacity:1;" d="M 6.929688 9.90625 C 6.945312 9.894531 6.855469 9.835938 6.789062 9.789062 C 6.726562 9.746094 6.707031 9.75 6.671875 9.730469 C 6.640625 9.707031 6.648438 9.730469 6.660156 9.707031 C 6.671875 9.683594 6.695312 9.667969 6.71875 9.636719 C 6.742188 9.609375 6.707031 9.589844 6.753906 9.585938 C 6.800781 9.582031 6.777344 9.589844 6.910156 9.621094 C 7.039062 9.648438 7.109375 9.652344 7.277344 9.699219 C 7.445312 9.75 7.574219 9.8125 7.582031 9.8125 C 7.589844 9.816406 7.816406 9.90625 7.816406 9.90625 Z M 6.929688 9.90625 "/>
<path style=" stroke:none;fill-rule:evenodd;fill:rgb(0%,0%,0%);fill-opacity:1;" d="M 4.242188 6.660156 C 4.195312 6.847656 4.191406 6.695312 4.136719 6.699219 C 4.082031 6.703125 4.027344 6.675781 4.019531 6.671875 C 4.011719 6.667969 3.953125 6.628906 3.945312 6.621094 C 3.933594 6.617188 3.898438 6.585938 3.890625 6.5625 C 3.882812 6.542969 3.882812 6.476562 3.878906 6.464844 C 3.871094 6.449219 3.863281 6.398438 3.871094 6.359375 C 3.882812 6.324219 3.890625 6.335938 3.917969 6.308594 C 3.945312 6.28125 3.957031 6.28125 3.980469 6.25 C 4.003906 6.21875 4.015625 6.191406 4.015625 6.183594 C 4.015625 6.175781 3.996094 6.078125 3.992188 6.066406 C 3.992188 6.054688 3.980469 6.019531 3.976562 6 C 3.972656 5.980469 3.988281 5.957031 4.019531 5.941406 C 4.054688 5.925781 4.078125 5.949219 4.101562 5.941406 C 4.128906 5.9375 4.117188 5.929688 4.121094 5.921875 C 4.121094 5.914062 4.132812 5.898438 4.167969 5.902344 C 4.207031 5.910156 4.234375 5.933594 4.273438 5.949219 C 4.308594 5.960938 4.324219 5.773438 4.316406 5.953125 C 4.308594 6.128906 4.285156 6.472656 4.242188 6.660156 Z M 4.242188 6.660156 "/>
<path style=" stroke:none;fill-rule:evenodd;fill:rgb(0%,0%,0%);fill-opacity:1;" d="M 4.71875 6.34375 C 4.71875 6.335938 4.691406 6.292969 4.699219 6.25 C 4.707031 6.207031 4.714844 6.210938 4.746094 6.171875 C 4.777344 6.132812 4.789062 6.128906 4.824219 6.097656 C 4.855469 6.066406 4.847656 6.058594 4.878906 6.046875 C 4.90625 6.039062 4.917969 6.042969 4.941406 6.054688 C 4.964844 6.070312 4.960938 6.070312 4.972656 6.101562 C 4.988281 6.128906 4.992188 6.144531 4.988281 6.171875 C 4.984375 6.195312 4.96875 6.191406 4.960938 6.199219 C 4.957031 6.207031 4.9375 6.234375 4.933594 6.269531 C 4.929688 6.308594 4.945312 6.3125 4.949219 6.347656 C 4.953125 6.382812 4.964844 6.390625 4.949219 6.410156 C 4.933594 6.433594 4.910156 6.429688 4.894531 6.4375 C 4.875 6.441406 4.808594 6.457031 4.796875 6.449219 C 4.785156 6.441406 4.75 6.414062 4.746094 6.40625 C 4.742188 6.398438 4.71875 6.347656 4.71875 6.34375 Z M 4.71875 6.34375 "/>
<path style=" stroke:none;fill-rule:evenodd;fill:rgb(0%,0%,0%);fill-opacity:1;" d="M 4.757812 6.648438 C 4.785156 6.675781 4.792969 6.734375 4.785156 6.738281 C 4.777344 6.738281 4.769531 6.785156 4.75 6.785156 C 4.726562 6.789062 4.6875 6.792969 4.675781 6.792969 C 4.667969 6.792969 4.632812 6.800781 4.613281 6.785156 C 4.597656 6.769531 4.601562 6.753906 4.605469 6.730469 C 4.605469 6.710938 4.613281 6.675781 4.613281 6.667969 C 4.617188 6.65625 4.632812 6.640625 4.667969 6.636719 C 4.703125 6.632812 4.726562 6.625 4.757812 6.648438 Z M 4.757812 6.648438 "/>
<path style=" stroke:none;fill-rule:evenodd;fill:rgb(0%,0%,0%);fill-opacity:1;" d="M 3.484375 7.453125 C 3.515625 7.539062 3.46875 7.492188 3.441406 7.527344 C 3.414062 7.558594 3.382812 7.582031 3.375 7.582031 C 3.367188 7.582031 3.34375 7.59375 3.328125 7.59375 C 3.316406 7.59375 3.300781 7.597656 3.277344 7.582031 C 3.253906 7.566406 3.25 7.550781 3.238281 7.53125 C 3.226562 7.507812 3.207031 7.472656 3.195312 7.457031 C 3.183594 7.445312 3.15625 7.414062 3.148438 7.398438 C 3.140625 7.382812 3.136719 7.359375 3.140625 7.339844 C 3.144531 7.324219 3.167969 7.300781 3.183594 7.292969 C 3.199219 7.28125 3.230469 7.261719 3.242188 7.25 C 3.253906 7.238281 3.273438 7.230469 3.285156 7.21875 C 3.296875 7.207031 3.273438 7.121094 3.324219 7.179688 C 3.375 7.238281 3.457031 7.367188 3.484375 7.453125 Z M 3.484375 7.453125 "/>
<path style=" stroke:none;fill-rule:evenodd;fill:rgb(0%,0%,0%);fill-opacity:1;" d="M 4.789062 7.269531 C 4.828125 7.253906 4.824219 7.300781 4.851562 7.320312 C 4.878906 7.34375 4.890625 7.339844 4.90625 7.355469 C 4.921875 7.371094 4.933594 7.40625 4.941406 7.445312 C 4.949219 7.484375 4.9375 7.503906 4.9375 7.511719 C 4.9375 7.519531 4.953125 7.550781 4.96875 7.542969 C 4.988281 7.535156 5.015625 7.53125 5.015625 7.515625 C 5.019531 7.503906 5.046875 7.457031 5.046875 7.449219 C 5.046875 7.441406 5.050781 7.410156 5.054688 7.398438 C 5.058594 7.386719 5.0625 7.363281 5.074219 7.351562 C 5.085938 7.339844 5.101562 7.3125 5.121094 7.3125 C 5.140625 7.308594 5.191406 7.316406 5.199219 7.316406 C 5.207031 7.316406 5.230469 7.339844 5.234375 7.347656 C 5.234375 7.355469 5.242188 7.378906 5.242188 7.394531 C 5.246094 7.410156 5.242188 7.4375 5.242188 7.445312 C 5.242188 7.457031 5.222656 7.5 5.214844 7.503906 C 5.207031 7.507812 5.171875 7.542969 5.160156 7.546875 C 5.144531 7.550781 5.136719 7.558594 5.117188 7.5625 C 5.09375 7.570312 5.0625 7.589844 5.050781 7.601562 C 5.042969 7.613281 5.039062 7.625 5.023438 7.652344 C 5.007812 7.675781 4.996094 7.691406 4.988281 7.699219 C 4.980469 7.707031 4.960938 7.746094 4.949219 7.75 C 4.9375 7.753906 4.898438 7.753906 4.878906 7.746094 C 4.863281 7.738281 4.867188 7.734375 4.847656 7.722656 C 4.832031 7.710938 4.8125 7.691406 4.789062 7.691406 C 4.765625 7.691406 4.746094 7.6875 4.71875 7.6875 C 4.691406 7.6875 4.683594 7.679688 4.65625 7.679688 C 4.625 7.675781 4.621094 7.675781 4.601562 7.675781 C 4.585938 7.671875 4.589844 7.679688 4.585938 7.671875 C 4.582031 7.664062 4.589844 7.597656 4.621094 7.53125 C 4.652344 7.460938 4.699219 7.421875 4.707031 7.394531 C 4.71875 7.371094 4.789062 7.269531 4.789062 7.269531 Z M 4.789062 7.269531 "/>
<path style=" stroke:none;fill-rule:evenodd;fill:rgb(0%,0%,0%);fill-opacity:1;" d="M 3.769531 7.234375 C 3.773438 7.234375 3.867188 7.238281 3.972656 7.238281 C 4.078125 7.238281 4.136719 7.25 4.191406 7.234375 C 4.230469 7.378906 4.132812 7.816406 4.125 7.816406 C 4.117188 7.8125 4.003906 7.785156 3.96875 7.773438 C 3.933594 7.765625 3.875 7.785156 3.871094 7.742188 C 3.871094 7.695312 3.765625 7.234375 3.769531 7.234375 Z M 3.769531 7.234375 "/>
<path style=" stroke:none;fill-rule:evenodd;fill:rgb(0%,0%,0%);fill-opacity:1;" d="M 4.71875 7.753906 C 4.738281 7.753906 4.769531 7.75 4.796875 7.769531 C 4.828125 7.785156 4.828125 7.800781 4.832031 7.824219 C 4.832031 7.847656 4.824219 7.84375 4.808594 7.855469 C 4.792969 7.867188 4.773438 7.878906 4.726562 7.875 C 4.679688 7.875 4.679688 7.878906 4.660156 7.871094 C 4.636719 7.867188 4.636719 7.871094 4.636719 7.847656 C 4.636719 7.828125 4.613281 7.835938 4.636719 7.8125 C 4.660156 7.785156 4.652344 7.785156 4.671875 7.773438 C 4.695312 7.757812 4.6875 7.75 4.71875 7.753906 Z M 4.71875 7.753906 "/>
<path style=" stroke:none;fill-rule:evenodd;fill:rgb(0%,0%,0%);fill-opacity:1;" d="M 5.464844 7.886719 C 5.5 7.898438 5.511719 7.90625 5.542969 7.921875 C 5.574219 7.941406 5.582031 7.9375 5.597656 7.957031 C 5.613281 7.980469 5.621094 7.988281 5.613281 8.003906 C 5.601562 8.023438 5.578125 8.027344 5.558594 8.027344 C 5.542969 8.027344 5.503906 8.023438 5.488281 8.019531 C 5.46875 8.019531 5.40625 8.019531 5.398438 8.015625 C 5.390625 8.011719 5.367188 8 5.34375 7.992188 C 5.320312 7.988281 5.296875 8 5.292969 7.976562 C 5.289062 7.949219 5.289062 7.933594 5.289062 7.921875 C 5.289062 7.910156 5.269531 7.894531 5.296875 7.882812 C 5.324219 7.867188 5.335938 7.855469 5.351562 7.859375 C 5.367188 7.859375 5.375 7.859375 5.402344 7.867188 C 5.433594 7.875 5.429688 7.871094 5.464844 7.886719 Z M 5.464844 7.886719 "/>
<path style=" stroke:none;fill-rule:evenodd;fill:rgb(0%,0%,0%);fill-opacity:1;" d="M 5.617188 6.195312 C 5.644531 6.175781 5.660156 6.148438 5.699219 6.121094 C 5.734375 6.09375 5.75 6.085938 5.765625 6.085938 C 5.777344 6.085938 5.789062 6.097656 5.804688 6.113281 C 5.820312 6.125 5.816406 6.121094 5.824219 6.140625 C 5.835938 6.160156 5.84375 6.164062 5.84375 6.1875 C 5.847656 6.210938 5.84375 6.234375 5.839844 6.234375 C 5.835938 6.234375 5.804688 6.25 5.800781 6.253906 C 5.792969 6.257812 5.765625 6.300781 5.757812 6.300781 C 5.75 6.304688 5.742188 6.304688 5.726562 6.320312 C 5.707031 6.335938 5.695312 6.359375 5.691406 6.359375 C 5.6875 6.363281 5.664062 6.386719 5.65625 6.390625 C 5.644531 6.390625 5.632812 6.398438 5.621094 6.390625 C 5.609375 6.382812 5.609375 6.386719 5.597656 6.367188 C 5.585938 6.351562 5.589844 6.371094 5.574219 6.34375 C 5.554688 6.3125 5.535156 6.324219 5.539062 6.289062 C 5.546875 6.25 5.542969 6.242188 5.558594 6.230469 C 5.570312 6.21875 5.585938 6.214844 5.601562 6.207031 C 5.617188 6.199219 5.59375 6.214844 5.617188 6.195312 Z M 5.617188 6.195312 "/>
<path style=" stroke:none;fill-rule:evenodd;fill:rgb(0%,0%,0%);fill-opacity:1;" d="M 4.796875 8.972656 C 4.8125 8.980469 4.929688 9.011719 4.941406 9.011719 C 4.957031 9.015625 5.011719 9.046875 5.023438 9.050781 C 5.035156 9.050781 5.136719 9.101562 5.148438 9.105469 C 5.160156 9.113281 5.1875 9.144531 5.195312 9.148438 C 5.203125 9.152344 5.210938 9.195312 5.210938 9.21875 C 5.207031 9.246094 5.210938 9.246094 5.1875 9.25 C 5.167969 9.25 5.136719 9.269531 5.109375 9.28125 C 5.082031 9.289062 5.113281 9.277344 5.078125 9.28125 C 5.042969 9.289062 5.015625 9.292969 4.996094 9.285156 C 4.972656 9.277344 4.953125 9.273438 4.925781 9.269531 C 4.898438 9.261719 4.800781 9.226562 4.769531 9.207031 C 4.738281 9.183594 4.671875 9.15625 4.664062 9.148438 C 4.65625 9.136719 4.613281 9.105469 4.617188 9.097656 C 4.617188 9.09375 4.628906 9.09375 4.648438 9.070312 C 4.664062 9.050781 4.679688 9.039062 4.691406 9.027344 C 4.703125 9.015625 4.742188 8.992188 4.742188 8.984375 C 4.742188 8.980469 4.761719 8.957031 4.773438 8.957031 C 4.789062 8.960938 4.792969 8.972656 4.796875 8.972656 Z M 4.796875 8.972656 "/>
<path style=" stroke:none;fill-rule:evenodd;fill:rgb(0%,0%,0%);fill-opacity:1;" d="M 5.582031 8.753906 C 5.605469 8.765625 5.644531 8.792969 5.644531 8.800781 C 5.644531 8.808594 5.667969 8.820312 5.675781 8.84375 C 5.683594 8.863281 5.679688 8.867188 5.675781 8.886719 C 5.675781 8.910156 5.679688 8.921875 5.671875 8.921875 C 5.664062 8.921875 5.644531 8.925781 5.632812 8.917969 C 5.617188 8.90625 5.605469 8.898438 5.59375 8.886719 C 5.585938 8.878906 5.597656 8.875 5.570312 8.863281 C 5.539062 8.851562 5.535156 8.851562 5.511719 8.839844 C 5.488281 8.828125 5.492188 8.832031 5.480469 8.820312 C 5.464844 8.8125 5.453125 8.816406 5.445312 8.792969 C 5.433594 8.773438 5.429688 8.769531 5.441406 8.753906 C 5.457031 8.742188 5.421875 8.738281 5.464844 8.734375 C 5.503906 8.726562 5.492188 8.726562 5.507812 8.726562 C 5.527344 8.726562 5.535156 8.738281 5.554688 8.742188 C 5.570312 8.75 5.558594 8.738281 5.582031 8.753906 Z M 5.582031 8.753906 "/>
<path style=" stroke:none;fill-rule:evenodd;fill:rgb(0%,0%,0%);fill-opacity:1;" d="M 5.691406 9.476562 C 5.703125 9.449219 5.710938 9.433594 5.710938 9.425781 C 5.714844 9.417969 5.726562 9.394531 5.738281 9.394531 C 5.753906 9.390625 5.785156 9.394531 5.800781 9.394531 C 5.816406 9.398438 5.847656 9.410156 5.855469 9.410156 C 5.863281 9.410156 5.882812 9.417969 5.894531 9.421875 C 5.910156 9.429688 5.921875 9.445312 5.929688 9.460938 C 5.9375 9.480469 5.925781 9.476562 5.925781 9.492188 C 5.929688 9.503906 5.941406 9.511719 5.9375 9.511719 C 5.929688 9.515625 5.898438 9.519531 5.894531 9.519531 C 5.886719 9.515625 5.878906 9.507812 5.863281 9.515625 C 5.847656 9.523438 5.847656 9.535156 5.832031 9.550781 C 5.816406 9.5625 5.820312 9.558594 5.804688 9.566406 C 5.785156 9.578125 5.789062 9.582031 5.757812 9.585938 C 5.726562 9.589844 5.726562 9.585938 5.707031 9.582031 C 5.691406 9.574219 5.683594 9.570312 5.671875 9.558594 C 5.664062 9.550781 5.660156 9.542969 5.660156 9.535156 C 5.660156 9.523438 5.6875 9.476562 5.691406 9.476562 Z M 5.691406 9.476562 "/>
<path style=" stroke:none;fill-rule:evenodd;fill:rgb(0%,0%,0%);fill-opacity:1;" d="M 3.566406 6.003906 C 3.582031 6.003906 3.703125 6.003906 3.722656 6.003906 C 3.738281 6.003906 3.816406 6.015625 3.828125 6.003906 C 3.835938 5.992188 3.855469 5.984375 3.855469 5.964844 C 3.859375 5.945312 3.867188 5.910156 3.859375 5.902344 C 3.855469 5.890625 3.8125 5.851562 3.804688 5.828125 C 3.800781 5.804688 3.78125 5.832031 3.800781 5.78125 C 3.824219 5.730469 3.84375 5.710938 3.867188 5.671875 C 3.890625 5.632812 3.882812 5.660156 3.910156 5.601562 C 3.9375 5.542969 3.949219 5.542969 3.957031 5.515625 C 3.96875 5.488281 3.976562 5.476562 3.976562 5.460938 C 3.976562 5.445312 3.964844 5.4375 3.976562 5.421875 C 3.988281 5.40625 3.996094 5.402344 4.027344 5.40625 C 4.054688 5.414062 4.082031 5.445312 4.09375 5.445312 C 4.105469 5.445312 4.128906 5.453125 4.15625 5.4375 C 4.183594 5.425781 4.175781 5.457031 4.199219 5.390625 C 4.222656 5.328125 4.21875 5.347656 4.222656 5.316406 C 4.230469 5.285156 4.191406 5.292969 4.226562 5.265625 C 4.261719 5.238281 4.238281 5.257812 4.265625 5.238281 C 4.289062 5.214844 4.308594 5.195312 4.3125 5.179688 C 4.3125 5.167969 4.320312 5.140625 4.320312 5.117188 C 4.320312 5.09375 4.320312 5.078125 4.320312 5.050781 C 4.324219 5.023438 4.324219 4.996094 4.324219 4.972656 C 4.324219 4.953125 4.324219 4.941406 4.320312 4.921875 C 4.320312 4.902344 4.320312 4.898438 4.308594 4.878906 C 4.300781 4.859375 4.289062 4.8125 4.265625 4.8125 C 4.242188 4.808594 4.21875 4.796875 4.136719 4.820312 C 4.058594 4.84375 3.960938 4.9375 3.945312 4.96875 C 3.925781 5.003906 3.746094 5.371094 3.722656 5.429688 C 3.703125 5.488281 3.613281 5.613281 3.601562 5.671875 C 3.59375 5.730469 3.53125 5.855469 3.527344 5.886719 C 3.527344 5.921875 3.519531 5.976562 3.527344 6.007812 C 3.535156 6.039062 3.515625 6.007812 3.566406 6.003906 Z M 3.566406 6.003906 "/>
<path style=" stroke:none;fill-rule:evenodd;fill:rgb(0%,0%,0%);fill-opacity:1;" d="M 6.789062 2.609375 C 6.789062 2.609375 4.449219 7.695312 4.4375 7.847656 C 4.425781 8.03125 7.207031 3.332031 7.207031 3.332031 Z M 6.800781 3.0625 L 6.871094 3.117188 L 6.410156 3.890625 C 6.410156 3.847656 6.800781 3.0625 6.800781 3.0625 Z M 6.800781 3.0625 "/>
<path style=" stroke:none;fill-rule:evenodd;fill:rgb(0%,0%,0%);fill-opacity:1;" d="M 4.652344 8.207031 C 4.554688 8.238281 8.117188 4.832031 8.117188 4.832031 L 8.476562 5.378906 C 8.476562 5.378906 4.769531 8.171875 4.652344 8.207031 Z M 4.652344 8.207031 "/>
<path style=" stroke:none;fill-rule:evenodd;fill:rgb(0%,0%,0%);fill-opacity:1;" d="M 8.820312 5.894531 C 8.820312 5.894531 5.714844 7.671875 5.554688 7.800781 C 5.757812 7.738281 8.976562 6.277344 8.976562 6.277344 Z M 8.597656 6.175781 C 8.601562 6.175781 8.605469 6.179688 8.613281 6.183594 C 8.648438 6.195312 8.6875 6.242188 8.6875 6.273438 C 8.6875 6.308594 8.671875 6.285156 8.613281 6.320312 C 8.550781 6.351562 8.492188 6.410156 8.445312 6.402344 C 8.429688 6.398438 8.371094 6.363281 8.398438 6.316406 C 8.421875 6.269531 8.492188 6.253906 8.546875 6.21875 C 8.589844 6.195312 8.585938 6.179688 8.597656 6.175781 Z M 8.597656 6.175781 "/>
<path style=" stroke:none;fill-rule:evenodd;fill:rgb(0%,0%,0%);fill-opacity:1;" d="M 5.285156 8.152344 C 5.359375 8.097656 9.496094 7.15625 9.496094 7.15625 L 9.742188 7.582031 C 9.742188 7.582031 5.417969 8.152344 5.285156 8.152344 Z M 5.285156 8.152344 "/>
<path style=" stroke:none;fill-rule:evenodd;fill:rgb(0%,0%,0%);fill-opacity:1;" d="M 6.402344 8.359375 L 10.109375 8.167969 L 10.15625 8.457031 Z M 6.402344 8.359375 "/>
<path style=" stroke:none;fill-rule:evenodd;fill:rgb(0%,0%,0%);fill-opacity:1;" d="M 5.007812 8.492188 C 5.132812 8.613281 10.6875 9.253906 10.6875 9.253906 L 10.578125 8.753906 C 10.578125 8.753906 5.128906 8.480469 5.007812 8.492188 Z M 9.460938 8.910156 L 10.269531 8.9375 L 10.285156 8.976562 L 10.292969 9.019531 C 10.292969 9.019531 10.296875 9.054688 10.285156 9.054688 C 10.273438 9.050781 9.460938 8.914062 9.460938 8.910156 Z M 9.460938 8.910156 "/>
<path style=" stroke:none;fill-rule:evenodd;fill:rgb(0%,0%,0%);fill-opacity:1;" d="M 4.722656 8.933594 C 4.910156 8.925781 10.203125 10.007812 10.203125 10.007812 L 8.875 9.976562 C 8.875 9.976562 4.753906 9.050781 4.722656 8.933594 Z M 4.722656 8.933594 "/>
<path style=" stroke:none;fill-rule:evenodd;fill:rgb(0%,0%,0%);fill-opacity:1;" d="M 4.5 9.089844 C 4.613281 9.054688 6.933594 9.972656 6.933594 9.972656 L 6.078125 10.007812 C 6.078125 10.007812 4.527344 9.148438 4.5 9.089844 Z M 4.5 9.089844 "/>
<path style=" stroke:none;fill-rule:evenodd;fill:rgb(0%,0%,0%);fill-opacity:1;" d="M 3.777344 7.746094 C 3.777344 7.714844 3.207031 6.515625 3.207031 6.515625 L 3 6.726562 C 3 6.726562 3.539062 7.796875 3.777344 7.746094 Z M 3.777344 7.746094 "/>
<path style=" stroke:none;fill-rule:evenodd;fill:rgb(0%,0%,0%);fill-opacity:1;" d="M 3.867188 7.777344 C 3.824219 7.730469 3.433594 6.019531 3.433594 6.019531 L 3.535156 5.625 C 3.535156 5.625 3.925781 7.839844 3.867188 7.777344 Z M 3.867188 7.777344 "/>
<path style=" stroke:none;fill-rule:evenodd;fill:rgb(0%,0%,0%);fill-opacity:1;" d="M 4.121094 7.816406 C 4.1875 7.691406 5.078125 3.496094 5.078125 3.496094 L 4.542969 3.773438 C 4.542969 3.773438 4.082031 7.742188 4.121094 7.816406 Z M 4.121094 7.816406 "/>
<path style=" stroke:none;fill-rule:evenodd;fill:rgb(0%,0%,0%);fill-opacity:1;" d="M 5.601562 6.726562 L 7.675781 4.109375 L 7.835938 4.398438 Z M 5.601562 6.726562 "/>
</g>
</svg>
