<?xml version="1.0" encoding="UTF-8"?>
<svg xmlns="http://www.w3.org/2000/svg" xmlns:xlink="http://www.w3.org/1999/xlink" width="24" height="24" viewBox="0 0 24 24">
<path fill-rule="nonzero" fill="rgb(99.607843%, 99.607843%, 99.607843%)" fill-opacity="1" d="M 12 4.6875 C 10.085938 4.6875 8.183594 5.476562 6.828125 6.828125 C 5.476562 8.183594 4.6875 10.085938 4.6875 12 C 4.6875 13.914062 5.476562 15.816406 6.828125 17.171875 C 8.183594 18.523438 10.085938 19.3125 12 19.3125 C 13.914062 19.3125 15.816406 18.523438 17.171875 17.171875 C 18.523438 15.816406 19.3125 13.914062 19.3125 12 C 19.3125 10.085938 18.523438 8.183594 17.171875 6.828125 C 15.816406 5.476562 13.914062 4.6875 12 4.6875 Z M 12 4.6875 "/>
<path fill-rule="nonzero" fill="rgb(86.27451%, 14.509804%, 10.588235%)" fill-opacity="1" stroke-width="0.016391" stroke-linecap="butt" stroke-linejoin="round" stroke="rgb(86.27451%, 14.509804%, 10.588235%)" stroke-opacity="1" stroke-miterlimit="4" d="M 5.505208 9.671875 C 5.398438 9.669271 5.320312 9.666667 5.328125 9.666667 C 5.338542 9.664062 5.341146 9.653646 5.341146 9.585938 C 5.341146 9.536458 5.351562 9.447917 5.367188 9.354167 C 5.398438 9.148438 5.398438 9.15625 5.416667 9.15625 C 5.429688 9.15625 5.432292 9.148438 5.432292 9.059896 C 5.432292 8.924479 5.476562 8.640625 5.5 8.640625 C 5.513021 8.640625 5.513021 8.630208 5.513021 8.552083 C 5.513021 8.494792 5.520833 8.416667 5.539062 8.317708 C 5.570312 8.125 5.567708 8.130208 5.588542 8.130208 C 5.601562 8.130208 5.604167 8.125 5.604167 8.03125 C 5.604167 7.911458 5.648438 7.614583 5.666667 7.614583 C 5.671875 7.614583 5.677083 7.591146 5.679688 7.536458 C 5.682292 7.492188 5.697917 7.377604 5.710938 7.283854 C 5.734375 7.140625 5.742188 7.111979 5.752604 7.109375 C 5.765625 7.106771 5.768229 7.09375 5.768229 7.023438 C 5.768229 6.971354 5.776042 6.888021 5.791667 6.791667 C 5.825521 6.598958 5.825521 6.598958 5.835938 6.598958 C 5.846354 6.598958 5.848958 6.575521 5.851562 6.510417 C 5.859375 6.385417 5.90625 6.091146 5.919271 6.091146 C 5.927083 6.091146 5.932292 6.065104 5.934896 6.002604 C 5.940104 5.927083 5.960938 5.765625 5.976562 5.6875 L 5.981771 5.664062 L 7.039062 5.664062 L 7.039062 5.778646 C 7.039062 5.841146 7.036458 5.898438 7.033854 5.90625 C 7.028646 5.914062 7.018229 5.919271 6.992188 5.919271 L 6.955729 5.919271 L 6.955729 6.135417 C 6.955729 6.252604 6.953125 6.367188 6.950521 6.388021 L 6.945312 6.427083 L 6.875 6.427083 L 6.875 6.627604 C 6.875 6.739583 6.869792 6.854167 6.864583 6.882812 L 6.856771 6.934896 L 6.786458 6.934896 L 6.78125 7.174479 C 6.778646 7.307292 6.776042 7.421875 6.770833 7.432292 C 6.765625 7.447917 6.760417 7.450521 6.734375 7.450521 L 6.703125 7.450521 L 6.703125 7.643229 C 6.703125 7.75 6.697917 7.854167 6.692708 7.880208 C 6.6875 7.903646 6.682292 7.929688 6.679688 7.940104 C 6.677083 7.955729 6.671875 7.958333 6.643229 7.958333 L 6.611979 7.958333 L 6.611979 8.151042 C 6.611979 8.255208 6.606771 8.369792 6.601562 8.403646 L 6.59375 8.466146 L 6.53125 8.466146 L 6.528646 8.669271 C 6.526042 8.789062 6.520833 8.895833 6.513021 8.924479 C 6.502604 8.973958 6.502604 8.976562 6.476562 8.976562 L 6.447917 8.976562 L 6.445312 9.158854 C 6.442708 9.291667 6.440104 9.359375 6.427083 9.416667 L 6.414062 9.492188 L 6.356771 9.492188 L 6.356771 9.679688 L 6.028646 9.679688 C 5.846354 9.677083 5.611979 9.674479 5.505208 9.671875 Z M 5.505208 9.671875 " transform="matrix(1.5, 0, 0, 1.5, 0, 0)"/>
<path fill-rule="nonzero" fill="rgb(98.823529%, 96.470588%, 1.568627%)" fill-opacity="1" stroke-width="0.511873" stroke-linecap="butt" stroke-linejoin="round" stroke="rgb(86.27451%, 14.509804%, 10.588235%)" stroke-opacity="1" stroke-miterlimit="4" d="M 8 11.882812 C 10.143229 11.882812 11.882812 10.143229 11.882812 8 C 11.882812 5.856771 10.143229 4.117188 8 4.117188 C 5.856771 4.117188 4.117188 5.856771 4.117188 8 C 4.117188 10.143229 5.856771 11.882812 8 11.882812 Z M 8 11.882812 " transform="matrix(1.5, 0, 0, 1.5, 0, 0)"/>
<path fill-rule="nonzero" fill="rgb(86.27451%, 14.509804%, 10.588235%)" fill-opacity="1" d="M 9.628906 14.59375 L 7.886719 14.578125 L 8.921875 8.371094 L 10.699219 8.40625 Z M 9.628906 14.59375 "/>
<path fill-rule="nonzero" fill="rgb(86.27451%, 14.509804%, 10.588235%)" fill-opacity="1" d="M 14.4375 14.636719 L 16.179688 14.621094 L 15.144531 8.410156 L 13.367188 8.445312 Z M 14.4375 14.636719 "/>
<path fill-rule="nonzero" fill="rgb(86.27451%, 14.509804%, 10.588235%)" fill-opacity="1" d="M 12.238281 11.777344 L 13.382812 8.417969 L 13.960938 11.824219 L 13.535156 12.769531 L 12.726562 12.949219 Z M 12.238281 11.777344 "/>
<path fill-rule="nonzero" fill="rgb(86.27451%, 14.509804%, 10.588235%)" fill-opacity="1" d="M 10.9375 9.28125 L 10.371094 12.671875 L 10.84375 13.996094 L 9.835938 14.414062 L 12.410156 15.875 L 13.476562 13.160156 L 12.441406 13.378906 Z M 10.9375 9.28125 "/>
</svg>
