<svg width="32" height="32" viewBox="0 0 16 16" fill="none" xmlns="http://www.w3.org/2000/svg">
<path d="M4.06398 2.92456C3.291 2.92456 2.64062 3.57043 2.64062 4.34606V11.654C2.64062 12.4296 3.291 13.0755 4.06398 13.0755H11.936C12.709 13.0755 13.3594 12.4296 13.3594 11.654V4.34606C13.3594 3.57043 12.709 2.92456 11.936 2.92456H4.06398V2.92456Z" fill="#FEFEFE"/>
<path d="M11.9366 3.69595H4.06339C3.70393 3.69595 3.41254 3.98735 3.41254 4.34681V11.6532C3.41254 12.0126 3.70393 12.304 4.06339 12.304H11.9366C12.2961 12.304 12.5875 12.0126 12.5875 11.6532V4.34681C12.5875 3.98735 12.2961 3.69595 11.9366 3.69595Z" fill="#0095D3"/>
<path d="M5.25913 10.9443C5.47299 10.9386 5.50663 10.9213 5.55034 10.7341C5.58522 10.5855 5.56359 10.5391 5.35377 10.5391H4.98546L4.89067 10.9443H5.25913V10.9443ZM4.18768 11.6506L4.52588 10.2034H5.53997C6.04004 10.2034 6.19275 10.3558 6.10447 10.7341C6.00934 11.1411 5.85046 11.2801 5.28828 11.2801H4.81227L4.72577 11.6506H4.18768V11.6506Z" fill="#FEFEFF" fill-opacity="0.941176"/>
<path d="M7.20991 10.4929H7.20447L6.81313 11.12H7.31358L7.20992 10.4929H7.20991ZM6.63179 11.4016L6.47411 11.6506H5.91449L6.85789 10.2035H7.67557L7.95064 11.6506H7.402L7.35535 11.4016H6.63179V11.4016Z" fill="#FEFEFF" fill-opacity="0.941176"/>
<path d="M8.97827 11.6506H8.44029L8.69998 10.5391H8.18353L8.26189 10.2034H9.85961L9.78096 10.5391H9.23787L8.97827 11.6506Z" fill="#FEFEFF" fill-opacity="0.941176"/>
<path d="M11.4742 11.6506H10.9362L11.0687 11.0832H10.3666L10.2343 11.6506H9.69617L10.0343 10.2034H10.5724L10.445 10.7475H11.1472L11.2743 10.2034H11.8123L11.4742 11.6506Z" fill="#FEFEFF" fill-opacity="0.941176"/>
<path d="M9.69826 4.40746C9.69826 4.40746 9.62534 4.71886 9.60957 4.78701C9.52514 4.78701 5.88128 4.78701 5.88128 4.78701C4.92426 4.78701 4.77021 5.51743 4.76867 5.52469C4.76919 5.52256 4.29266 7.4572 4.29266 7.4572L4.27124 7.54427L6.56005 6.98287L6.56695 6.94942C6.56981 6.9363 6.83976 5.64734 6.92031 5.39756C6.96586 5.25628 7.08125 5.24938 7.19539 5.25437L7.22774 5.2554C7.22774 5.2554 9.36911 5.2554 9.49836 5.2554C9.47584 5.35135 9.39016 5.71622 9.39016 5.71622L11.8252 5.05198L9.71161 4.34937L9.69826 4.40746Z" fill="#FEFEFF" fill-opacity="0.941176"/>
<path d="M11.5862 5.27256L9.34553 5.91377L9.33827 5.94509C9.33541 5.95764 9.04366 7.22561 8.99202 7.47693C8.96312 7.61748 8.87553 7.62511 8.74488 7.62101L8.68473 7.62049C8.64291 7.62192 7.20629 7.62101 6.39342 7.62049C6.41785 7.52351 6.5094 7.15988 6.5094 7.15988L4.17474 7.73808L5.85873 9.8446C5.85873 9.8446 6.25383 8.16157 6.27246 8.08191C6.35675 8.08191 10.0326 8.08191 10.0326 8.08191C11.0335 8.08191 11.1632 7.4035 11.1723 7.34438C11.1732 7.34048 11.6756 5.24673 11.6756 5.24673L11.5862 5.27256" fill="#FEFEFF" fill-opacity="0.941176"/>
</svg>
