<?xml version="1.0" encoding="UTF-8"?>
<svg xmlns="http://www.w3.org/2000/svg" xmlns:xlink="http://www.w3.org/1999/xlink" width="32" height="32" viewBox="0 0 32 32">
<path fill-rule="evenodd" fill="rgb(99.607843%, 99.607843%, 99.607843%)" fill-opacity="1" d="M 23.949219 12.980469 L 22.042969 16.390625 L 31.992188 16.390625 L 28.960938 20.363281 L 19.832031 20.355469 C 19.832031 20.355469 18.996094 22 16.117188 22.019531 C 13.238281 22 12.175781 20.355469 12.175781 20.355469 L 3.039062 20.363281 L 0.0078125 16.382812 L 9.957031 16.382812 L 8.058594 12.980469 L 9.886719 12.980469 L 8.734375 9.980469 L 23.246094 9.980469 L 22.097656 12.980469 Z M 23.949219 12.980469 "/>
<path fill="none" stroke-width="0.0909474" stroke-linecap="butt" stroke-linejoin="miter" stroke="rgb(100%, 0%, 0%)" stroke-opacity="1" stroke-miterlimit="2.613" d="M 11.974609 6.490234 L 11.021484 8.195312 L 14.714844 8.195312 L 13.441406 10.181641 L 9.916016 10.177734 C 9.916016 10.177734 9.498047 11 8.058594 11.009766 C 6.619141 11 6.087891 10.177734 6.087891 10.177734 L 2.558594 10.181641 L 1.285156 8.191406 L 4.978516 8.191406 L 4.029297 6.490234 L 4.943359 6.490234 L 4.367188 4.990234 L 11.623047 4.990234 L 11.048828 6.490234 Z M 11.974609 6.490234 " transform="matrix(2, 0, 0, 2, 0, 0)"/>
<path fill-rule="evenodd" fill="rgb(100%, 0%, 0%)" fill-opacity="1" d="M 16.125 21.398438 C 17.496094 21.414062 18.425781 20.71875 19.136719 19 L 22.371094 10.578125 L 9.625 10.566406 L 12.878906 19 C 13.582031 20.71875 14.742188 21.414062 16.117188 21.398438 Z M 16.125 21.398438 "/>
<path fill-rule="evenodd" fill="rgb(100%, 0%, 0%)" fill-opacity="1" d="M 10.363281 16.96875 L 11.898438 19.714844 L 5.46875 19.714844 L 3.722656 16.96875 Z M 10.363281 16.96875 "/>
<path fill-rule="evenodd" fill="rgb(100%, 0%, 0%)" fill-opacity="1" d="M 21.636719 16.96875 L 20.109375 19.714844 L 26.53125 19.714844 L 28.277344 16.96875 Z M 21.636719 16.96875 "/>
<path fill-rule="evenodd" fill="rgb(99.607843%, 99.607843%, 99.607843%)" fill-opacity="1" d="M 15.875 15.152344 C 15.875 15.152344 18.085938 14.976562 18.878906 16.0625 L 19.183594 15.894531 L 18.386719 15.019531 C 18.386719 15.019531 18.28125 15.152344 18.105469 15.152344 C 17.914062 15.152344 17.691406 15.074219 17.691406 15.074219 C 17.085938 14.871094 16.5 14.726562 15.785156 14.726562 C 13.949219 14.726562 12.578125 15.554688 12.621094 16.621094 C 12.683594 17.859375 14.128906 18.351562 14.8125 18.484375 C 15.484375 18.609375 17.453125 19.082031 19.144531 17.425781 L 18.894531 17.183594 C 16.863281 19.054688 14.5625 17.65625 14.5625 17.65625 C 14.128906 17.40625 13.824219 16.996094 13.824219 16.585938 C 13.824219 15.839844 14.75 15.179688 15.875 15.152344 Z M 15.875 15.152344 "/>
<path fill-rule="evenodd" fill="rgb(99.607843%, 99.607843%, 99.607843%)" fill-opacity="1" stroke-width="0.0454737" stroke-linecap="butt" stroke-linejoin="miter" stroke="rgb(100%, 0%, 0%)" stroke-opacity="1" stroke-miterlimit="2.613" d="M 9.359375 6.859375 L 9.693359 7.300781 L 9.572266 7.416016 C 9.572266 7.416016 9.373047 7.130859 9.082031 7.130859 L 8.462891 7.130859 L 8.462891 8.925781 C 8.462891 9.40625 8.904297 9.349609 8.904297 9.349609 L 8.904297 9.544922 L 7.488281 9.544922 L 7.488281 9.349609 C 7.488281 9.349609 7.923828 9.40625 7.923828 8.925781 L 7.923828 7.130859 L 7.308594 7.130859 C 7.019531 7.130859 6.818359 7.412109 6.818359 7.412109 L 6.703125 7.296875 L 7.033203 6.859375 Z M 9.359375 6.859375 " transform="matrix(2, 0, 0, 2, 0, 0)"/>
<path fill-rule="evenodd" fill="rgb(99.607843%, 99.607843%, 99.607843%)" fill-opacity="1" d="M 17.265625 12.347656 L 17.933594 13.230469 L 17.691406 13.460938 C 17.691406 13.460938 17.292969 12.890625 16.710938 12.890625 L 15.472656 12.890625 L 15.472656 16.480469 C 15.472656 17.441406 16.355469 17.328125 16.355469 17.328125 L 16.355469 17.71875 L 13.523438 17.71875 L 13.523438 17.328125 C 13.523438 17.328125 14.394531 17.441406 14.394531 16.480469 L 14.394531 12.890625 L 13.164062 12.890625 C 12.585938 12.890625 12.183594 13.453125 12.183594 13.453125 L 11.953125 13.222656 L 12.613281 12.347656 Z M 17.265625 12.347656 "/>
</svg>
