<svg xmlns="http://www.w3.org/2000/svg" width="18" height="18" viewBox="0 0 18 18" fill="none" version="1.1" id="svg4"><path d="M5.09 3.67c-.16-.39-.07-.57.77-.57 1.15 0 1.36 0 1.36.19 0 .41-1 1.31-1.34 1.31-.28 0-.62-.5-.8-.93zm7.04.93c.28 0 .62-.5.8-.93.16-.39.06-.57-.78-.57-1.15 0-1.36 0-1.36.19 0 .41 1 1.31 1.34 1.31zm-9.5 4.57l3.32-2.5c.03-.03.2-.07.28 0l.1.1c.08.07.02.22 0 .25 0 0-3.18 2.86-3.59 3.25-.4.38-.38.97-.29 1.2.24.58.55 1.03.95 1.5.32.37.8.16 1.19-.63.54-1.1 2.52-4.81 2.52-4.81.02-.04.1-.04.17-.01l.12.04c.08.03.13.09.11.12 0 0-2.2 5.06-2.34 5.45-.14.39-.39.99.29 1.26.6.25 1.6.49 2.4.6.32.05.64-.07.63-.96 0-1.1.26-5.9.26-5.9 0-.04.07-.07.17-.07h.14c.09 0 .16.03.17.07l.27 6.26c.02.49.18.69.88.55a7.6 7.6 0 0 0 2.1-.53c.67-.3.55-.52.33-1.13-.22-.61-2.4-5.6-2.4-5.6-.02-.03.03-.09.1-.12l.12-.04c.08-.03.16-.03.18 0l2.73 5.05c.3.56.66.8 1.1.33.37-.42.68-.9.9-1.43.28-.72-.16-.98-.4-1.22l-3.55-3.23c-.03-.03-.08-.18 0-.25l.1-.1c.07-.07.24-.03.27 0l3.3 2.48s.71.6.74-.11c0-3.36-2.85-2.59-4.72-4.16C10.18 3.96 9.98 3 8.96 3c-1.02 0-1.2 1.13-2.27 1.93C4.6 6.52 2 5.73 2 9.03c0 .21-.04.66.64.14z" id="path2" style="fill:#ffce00;stroke-width:1"/></svg>
