<?xml version="1.0" encoding="UTF-8"?>
<svg xmlns="http://www.w3.org/2000/svg" xmlns:xlink="http://www.w3.org/1999/xlink" width="32" height="32" viewBox="0 0 32 32">
<path fill-rule="nonzero" fill="rgb(99.607843%, 99.607843%, 99.607843%)" fill-opacity="1" d="M 27.609375 9.460938 L 4.390625 9.460938 C 3.964844 9.460938 3.621094 9.804688 3.621094 10.230469 L 3.621094 21.769531 C 3.621094 22.195312 3.964844 22.539062 4.390625 22.539062 L 27.609375 22.539062 C 28.035156 22.539062 28.378906 22.195312 28.378906 21.769531 L 28.378906 10.230469 C 28.378906 9.804688 28.035156 9.460938 27.609375 9.460938 Z M 27.609375 9.460938 "/>
<path fill-rule="nonzero" fill="rgb(82.745098%, 6.666667%, 27.058824%)" fill-opacity="1" d="M 5.371094 20.023438 L 5.371094 10.992188 L 10.929688 10.992188 C 11.039062 11.253906 11.910156 13.574219 12.164062 14.304688 C 12.21875 14.464844 12.242188 14.660156 12.242188 14.703125 C 12.234375 14.875 12.132812 15.011719 11.957031 15.210938 C 11.75 15.449219 11.628906 15.507812 11.628906 15.726562 C 11.628906 15.890625 11.691406 15.945312 11.75 16.070312 C 12.351562 17.085938 14.5625 20.855469 14.628906 21.007812 L 11.519531 21.007812 C 11.519531 21.007812 9.652344 17.800781 9.164062 16.917969 C 9.078125 16.769531 8.992188 16.574219 8.992188 16.460938 C 8.992188 16.160156 9.1875 16.011719 9.390625 15.777344 C 9.539062 15.613281 9.679688 15.539062 9.679688 15.335938 C 9.679688 15.164062 9.574219 15.007812 9.503906 14.824219 L 8.429688 12.117188 C 8.367188 11.964844 8.355469 11.832031 8.175781 11.839844 C 8.023438 11.84375 8.023438 12.035156 8.023438 12.164062 L 8.023438 20.023438 Z M 5.371094 20.023438 "/>
<path fill-rule="nonzero" fill="rgb(82.745098%, 6.666667%, 27.058824%)" fill-opacity="1" d="M 13.027344 10.992188 L 13.027344 12.359375 L 14.726562 12.359375 C 14.984375 12.359375 15.101562 12.542969 15.101562 12.722656 L 15.101562 21.007812 L 17.703125 21.007812 L 17.703125 12.71875 C 17.703125 12.539062 17.816406 12.359375 18.050781 12.359375 L 19.820312 12.359375 L 19.820312 10.992188 Z M 13.027344 10.992188 "/>
<path fill-rule="nonzero" fill="rgb(82.745098%, 6.666667%, 27.058824%)" fill-opacity="1" d="M 23.84375 19.988281 L 26.628906 19.988281 L 26.628906 10.992188 L 22.269531 10.992188 L 18.050781 21.007812 L 20.988281 21.007812 L 22.726562 16.863281 C 22.796875 16.691406 22.84375 16.597656 22.84375 16.417969 C 22.84375 16.234375 22.808594 16.097656 22.550781 15.800781 C 22.328125 15.554688 22.269531 15.476562 22.269531 15.214844 C 22.269531 15.066406 22.316406 14.929688 22.40625 14.742188 L 23.542969 12.011719 C 23.582031 11.925781 23.613281 11.777344 23.71875 11.777344 C 23.804688 11.777344 23.84375 11.867188 23.84375 11.949219 Z M 23.84375 19.988281 "/>
</svg>
