<?xml version="1.0" encoding="UTF-8"?>
<svg xmlns="http://www.w3.org/2000/svg" xmlns:xlink="http://www.w3.org/1999/xlink" width="12" height="12" viewBox="0 0 12 12" version="1.1">
<defs>
<filter id="alpha" filterUnits="objectBoundingBox" x="0%" y="0%" width="100%" height="100%">
  <feColorMatrix type="matrix" in="SourceGraphic" values="0 0 0 0 1 0 0 0 0 1 0 0 0 0 1 0 0 0 1 0"/>
</filter>
<mask id="mask0">
  <g filter="url(#alpha)">
<rect x="0" y="0" width="12" height="12" style="fill:rgb(0%,0%,0%);fill-opacity:0.426087;stroke:none;"/>
  </g>
</mask>
<clipPath id="clip1">
  <rect x="0" y="0" width="12" height="12"/>
</clipPath>
<g id="surface5" clip-path="url(#clip1)">
<path style=" stroke:none;fill-rule:nonzero;fill:rgb(67.450982%,84.705883%,95.294118%);fill-opacity:1;" d="M 5.777344 0.0078125 C 5.382812 0.0078125 4.933594 0.0234375 4.488281 0.0820312 C 4.046875 0.136719 3.636719 0.101562 3.058594 0.613281 C 2.976562 0.6875 2.695312 0.933594 2.382812 1.210938 C 2.375 1.21875 2.363281 1.226562 2.355469 1.234375 C 2.355469 1.234375 2.351562 1.234375 2.351562 1.234375 L 1.757812 1.761719 C 1.636719 1.867188 1.546875 1.988281 1.480469 2.097656 C 1.449219 2.148438 1.421875 2.203125 1.398438 2.261719 C 1.316406 2.285156 1.25 2.308594 1.25 2.308594 C 1.125 2.355469 1.007812 2.429688 0.902344 2.519531 L 0.355469 3.003906 C 0.355469 3.003906 0.355469 3.003906 0.351562 3.007812 C -0.222656 3.519531 -0.277344 4.421875 0.230469 5 C 0.234375 5 0.234375 5 0.234375 5 L 1.007812 5.875 C 1.007812 5.875 1.007812 5.875 1.007812 5.878906 C 1.519531 6.453125 2.425781 6.507812 3.003906 5.996094 L 3.304688 5.730469 L 3.628906 6.140625 L 1.292969 8.382812 C 1.289062 8.390625 1.28125 8.394531 1.277344 8.398438 C 1.027344 8.648438 0.75 9.003906 0.648438 9.5625 C 0.546875 10.117188 0.773438 10.84375 1.234375 11.308594 C 1.25 11.320312 1.265625 11.335938 1.277344 11.347656 C 1.667969 11.699219 2.496094 11.953125 3.101562 11.773438 C 3.128906 11.765625 3.15625 11.757812 3.1875 11.746094 C 3.601562 11.585938 3.957031 11.300781 4.105469 11.152344 C 4.113281 11.148438 4.117188 11.140625 4.125 11.132812 L 6 9.160156 L 7.714844 11.335938 C 7.730469 11.359375 7.75 11.378906 7.769531 11.402344 C 8.210938 11.890625 8.886719 12.039062 9.378906 11.980469 C 9.871094 11.921875 10.253906 11.738281 10.589844 11.441406 C 11.125 10.972656 11.175781 10.433594 11.183594 10.046875 C 11.1875 9.855469 11.171875 9.683594 11.132812 9.511719 C 11.097656 9.335938 11.140625 9.203125 10.8125 8.828125 L 8.667969 6.355469 L 8.804688 6.210938 C 8.972656 6.246094 9.144531 6.265625 9.316406 6.265625 C 10.027344 6.265625 10.710938 5.972656 11.207031 5.476562 L 11.292969 5.386719 C 12.3125 4.371094 12.097656 3.167969 12.097656 2.761719 C 12.097656 2.757812 12.097656 2.757812 12.097656 2.757812 C 12.101562 2.492188 11.996094 2.066406 11.710938 1.78125 C 11.710938 1.777344 11.710938 1.777344 11.707031 1.777344 C 11.480469 1.546875 11.15625 1.40625 10.832031 1.390625 C 10.828125 1.230469 10.800781 1.0625 10.726562 0.898438 C 10.726562 0.898438 10.726562 0.894531 10.726562 0.894531 C 10.582031 0.578125 10.011719 0.113281 9.488281 0.109375 C 9.488281 0.109375 9.488281 0.109375 9.484375 0.109375 L 9.429688 0.109375 C 8.964844 0.109375 8.257812 0.0625 7.558594 0.402344 C 7.359375 0.183594 7.078125 0.046875 6.78125 0.03125 C 6.78125 0.03125 6.410156 0.0078125 5.933594 0.0078125 C 5.882812 0.0078125 5.832031 0.0078125 5.777344 0.0078125 Z M 2.199219 2.292969 C 2.238281 2.308594 2.289062 2.335938 2.363281 2.378906 C 2.304688 2.34375 2.25 2.316406 2.199219 2.292969 Z M 5.984375 2.6875 C 5.96875 2.886719 5.976562 3.089844 6.007812 3.289062 L 5.777344 3.023438 C 5.75 2.996094 5.722656 2.964844 5.695312 2.9375 C 5.6875 2.925781 5.683594 2.914062 5.675781 2.90625 C 5.761719 2.824219 5.871094 2.75 5.984375 2.6875 Z M 5.984375 2.6875 "/>
</g>
</defs>
<g id="surface1">
<use xlink:href="#surface5" mask="url(#mask0)"/>
<path style=" stroke:none;fill-rule:nonzero;fill:rgb(69.01961%,11.372549%,11.372549%);fill-opacity:1;" d="M 5.785156 1.15625 C 5.054688 1.160156 4.109375 1.21875 3.820312 1.476562 C 3.742188 1.542969 3.457031 1.796875 3.136719 2.078125 C 3.128906 2.085938 3.121094 2.089844 3.113281 2.097656 L 2.519531 2.621094 C 2.5 2.640625 2.484375 2.660156 2.46875 2.683594 C 2.453125 2.714844 2.441406 2.746094 2.433594 2.78125 C 2.433594 2.789062 2.433594 2.796875 2.433594 2.804688 C 2.433594 2.8125 2.433594 2.820312 2.433594 2.828125 C 2.433594 2.828125 2.433594 2.832031 2.433594 2.832031 C 2.433594 2.890625 2.457031 2.949219 2.5 2.996094 L 2.550781 3.054688 C 2.519531 3.085938 2.378906 3.207031 2.21875 3.351562 C 2.09375 3.460938 1.859375 3.417969 1.78125 3.371094 C 1.746094 3.347656 1.667969 3.378906 1.667969 3.378906 L 1.117188 3.867188 C 1.007812 3.960938 1 4.128906 1.09375 4.238281 L 1.867188 5.113281 C 1.964844 5.222656 2.132812 5.230469 2.242188 5.136719 L 2.789062 4.648438 C 2.789062 4.648438 2.820312 4.566406 2.800781 4.515625 C 2.761719 4.433594 2.757812 4.210938 2.882812 4.101562 C 3.058594 3.945312 3.1875 3.832031 3.214844 3.804688 L 3.273438 3.871094 C 3.277344 3.878906 3.285156 3.882812 3.289062 3.890625 C 3.292969 3.890625 3.292969 3.890625 3.292969 3.890625 L 3.675781 4.324219 L 4.664062 3.449219 L 4.433594 3.1875 C 4.429688 3.183594 4.429688 3.175781 4.421875 3.171875 C 4.234375 2.960938 4.289062 2.621094 4.894531 2.0625 C 5.632812 1.378906 6.714844 1.179688 6.714844 1.179688 C 6.714844 1.179688 6.375 1.160156 5.929688 1.15625 C 5.882812 1.15625 5.832031 1.15625 5.785156 1.15625 Z M 9.429688 1.261719 C 8.867188 1.261719 8.074219 1.308594 7.648438 1.734375 L 7.558594 1.824219 C 6.957031 2.429688 6.957031 3.382812 7.566406 3.992188 L 8.230469 4.65625 C 8.523438 4.953125 8.910156 5.113281 9.316406 5.113281 C 9.71875 5.113281 10.101562 4.953125 10.394531 4.664062 L 10.480469 4.574219 C 10.945312 4.113281 10.945312 3.160156 10.949219 2.75 C 10.949219 2.679688 10.933594 2.625 10.894531 2.589844 C 10.863281 2.558594 10.820312 2.539062 10.777344 2.539062 C 10.707031 2.539062 10.648438 2.582031 10.621094 2.609375 L 9.757812 3.472656 C 9.742188 3.476562 9.703125 3.480469 9.621094 3.480469 C 9.332031 3.480469 8.925781 3.425781 8.824219 3.382812 C 8.757812 3.238281 8.707031 2.597656 8.75 2.460938 C 8.882812 2.328125 9.621094 1.589844 9.625 1.585938 C 9.648438 1.558594 9.722656 1.464844 9.675781 1.363281 C 9.660156 1.324219 9.609375 1.261719 9.484375 1.261719 Z M 4.910156 3.777344 L 3.917969 4.65625 L 5.175781 6.25 L 2.089844 9.214844 C 1.824219 9.480469 1.542969 9.988281 2.050781 10.492188 C 2.265625 10.6875 2.476562 10.761719 2.773438 10.671875 C 3.054688 10.566406 3.175781 10.457031 3.292969 10.339844 L 6.082031 7.40625 L 8.617188 10.625 C 8.960938 11 9.535156 10.835938 9.832031 10.578125 C 10.125 10.320312 10.042969 9.691406 9.945312 9.582031 L 7.117188 6.320312 L 8.3125 5.0625 L 8.101562 4.902344 L 7.507812 4.371094 L 7.347656 4.160156 L 6.199219 5.265625 Z M 4.910156 3.777344 "/>
</g>
</svg>
