<?xml version="1.0" encoding="UTF-8"?>
<svg xmlns="http://www.w3.org/2000/svg" xmlns:xlink="http://www.w3.org/1999/xlink" width="32" height="32" viewBox="0 0 32 32">
<path fill-rule="nonzero" fill="rgb(99.607843%, 99.607843%, 99.607843%)" fill-opacity="1" d="M 11.75 7.65625 C 9.488281 7.65625 7.625 9.519531 7.625 11.78125 L 7.625 20.21875 C 7.625 22.480469 9.488281 24.34375 11.75 24.34375 L 20.25 24.34375 C 22.511719 24.34375 24.375 22.480469 24.375 20.21875 L 24.375 11.78125 C 24.375 9.519531 22.511719 7.65625 20.25 7.65625 Z M 11.75 7.65625 "/>
<path fill-rule="nonzero" fill="rgb(99.607843%, 94.509804%, 1.568627%)" fill-opacity="1" d="M 20.25 8.96875 L 11.75 8.96875 C 10.195312 8.96875 8.9375 10.226562 8.9375 11.78125 L 8.9375 20.21875 C 8.9375 21.773438 10.195312 23.03125 11.75 23.03125 L 20.25 23.03125 C 21.804688 23.03125 23.0625 21.773438 23.0625 20.21875 L 23.0625 11.78125 C 23.0625 10.226562 21.804688 8.96875 20.25 8.96875 Z M 20.25 8.96875 "/>
<path fill-rule="nonzero" fill="rgb(0%, 0%, 0%)" fill-opacity="1" d="M 13.871094 10.707031 C 13.949219 10.644531 14.042969 10.597656 14.144531 10.605469 C 15.460938 10.605469 16.777344 10.605469 18.089844 10.605469 C 18.21875 10.601562 18.332031 10.683594 18.421875 10.765625 C 18.621094 10.949219 18.773438 11.175781 18.910156 11.40625 C 19.453125 12.367188 19.675781 13.46875 19.769531 14.558594 C 19.8125 15.105469 19.785156 15.65625 19.796875 16.207031 C 19.804688 16.5625 19.800781 16.917969 19.800781 17.269531 C 19.800781 17.625 19.671875 17.992188 19.402344 18.226562 C 19.109375 18.480469 18.714844 18.589844 18.335938 18.585938 C 18.851562 19.367188 19.398438 20.128906 19.925781 20.902344 C 19.96875 20.960938 19.960938 21.039062 19.972656 21.109375 C 19.722656 21.113281 19.472656 21.117188 19.222656 21.109375 C 19.164062 21.117188 19.132812 21.058594 19.101562 21.023438 C 18.972656 20.851562 18.863281 20.667969 18.734375 20.492188 C 18.707031 20.445312 18.65625 20.417969 18.601562 20.425781 C 17.46875 20.425781 16.332031 20.425781 15.199219 20.425781 C 14.644531 20.433594 14.085938 20.414062 13.53125 20.433594 C 13.367188 20.65625 13.222656 20.894531 13.050781 21.109375 C 12.785156 21.113281 12.515625 21.117188 12.25 21.109375 C 12.253906 21.035156 12.246094 20.953125 12.296875 20.894531 C 12.828125 20.121094 13.367188 19.359375 13.890625 18.585938 C 13.40625 18.59375 12.882812 18.40625 12.613281 17.980469 C 12.484375 17.78125 12.425781 17.542969 12.433594 17.308594 C 12.4375 16.878906 12.429688 16.445312 12.4375 16.015625 C 12.449219 15.511719 12.425781 15.011719 12.457031 14.511719 C 12.554688 13.398438 12.789062 12.269531 13.375 11.304688 C 13.511719 11.082031 13.667969 10.871094 13.871094 10.707031 Z M 14.070312 11.296875 C 13.808594 11.5625 13.621094 11.886719 13.46875 12.222656 C 13.171875 12.917969 13.035156 13.679688 13.058594 14.4375 C 13.066406 14.613281 13.054688 14.789062 13.070312 14.964844 C 13.109375 15.238281 13.363281 15.464844 13.640625 15.457031 C 15.292969 15.457031 16.945312 15.460938 18.59375 15.457031 C 18.8125 15.457031 19.019531 15.3125 19.105469 15.113281 C 19.1875 14.953125 19.164062 14.765625 19.167969 14.589844 C 19.199219 13.652344 19.035156 12.691406 18.574219 11.863281 C 18.4375 11.632812 18.277344 11.40625 18.074219 11.230469 C 17.980469 11.152344 17.867188 11.078125 17.742188 11.085938 C 16.660156 11.085938 15.578125 11.085938 14.496094 11.085938 C 14.324219 11.074219 14.1875 11.191406 14.070312 11.296875 Z M 13.769531 16.554688 C 13.5 16.625 13.304688 16.914062 13.355469 17.191406 C 13.394531 17.414062 13.578125 17.601562 13.800781 17.652344 C 14.140625 17.734375 14.503906 17.421875 14.476562 17.074219 C 14.472656 16.730469 14.101562 16.453125 13.769531 16.554688 Z M 18.183594 16.546875 C 17.933594 16.605469 17.726562 16.847656 17.746094 17.113281 C 17.738281 17.390625 17.980469 17.625 18.246094 17.660156 C 18.570312 17.703125 18.898438 17.40625 18.867188 17.074219 C 18.867188 16.738281 18.507812 16.460938 18.183594 16.546875 Z M 14.648438 18.582031 C 14.652344 18.707031 14.640625 18.835938 14.578125 18.949219 C 15.601562 18.957031 16.628906 18.953125 17.652344 18.953125 C 17.582031 18.84375 17.558594 18.714844 17.570312 18.589844 C 17.496094 18.578125 17.421875 18.574219 17.347656 18.578125 C 16.449219 18.582031 15.550781 18.574219 14.648438 18.582031 Z M 14.355469 19.234375 C 14.195312 19.476562 14.019531 19.707031 13.867188 19.953125 C 15.234375 19.957031 16.605469 19.953125 17.972656 19.953125 C 18.101562 19.957031 18.230469 19.960938 18.355469 19.945312 C 18.1875 19.703125 18.023438 19.460938 17.851562 19.222656 C 16.914062 19.203125 15.980469 19.222656 15.042969 19.214844 C 14.8125 19.222656 14.582031 19.199219 14.355469 19.234375 Z M 14.355469 19.234375 "/>
<path fill-rule="nonzero" fill="rgb(40%, 40%, 40%)" fill-opacity="1" d="M 14.867188 12.363281 C 15.0625 12.367188 15.257812 12.351562 15.453125 12.371094 C 15.714844 12.617188 15.898438 12.941406 16.160156 13.1875 C 16.347656 12.960938 16.535156 12.730469 16.722656 12.5 C 16.765625 12.453125 16.804688 12.402344 16.859375 12.367188 C 17.050781 12.351562 17.246094 12.367188 17.4375 12.363281 C 17.4375 13.066406 17.4375 13.765625 17.441406 14.464844 C 17.441406 14.488281 17.441406 14.535156 17.441406 14.558594 C 17.222656 14.558594 17 14.558594 16.777344 14.558594 C 16.777344 14.53125 16.78125 14.476562 16.78125 14.449219 C 16.777344 14.0625 16.789062 13.679688 16.773438 13.296875 C 16.539062 13.519531 16.371094 13.804688 16.140625 14.035156 C 15.917969 13.796875 15.742188 13.519531 15.507812 13.289062 C 15.492188 13.691406 15.5 14.09375 15.503906 14.496094 C 15.5 14.511719 15.492188 14.542969 15.488281 14.558594 C 15.28125 14.558594 15.070312 14.558594 14.863281 14.558594 C 14.867188 14.476562 14.867188 14.390625 14.867188 14.308594 C 14.871094 13.660156 14.867188 13.011719 14.867188 12.363281 Z M 14.867188 12.363281 "/>
</svg>
