<?xml version="1.0" encoding="UTF-8"?>
<svg xmlns="http://www.w3.org/2000/svg" xmlns:xlink="http://www.w3.org/1999/xlink" width="32" height="32" viewBox="0 0 32 32">
<defs>
<filter id="filter-remove-color" x="0%" y="0%" width="100%" height="100%">
<feColorMatrix color-interpolation-filters="sRGB" values="0 0 0 0 1 0 0 0 0 1 0 0 0 0 1 0 0 0 1 0" />
</filter>
<mask id="mask-0">
<g filter="url(#filter-remove-color)">
<rect x="-3.2" y="-3.2" width="38.4" height="38.4" fill="rgb(0%, 0%, 0%)" fill-opacity="0.426087"/>
</g>
</mask>
<clipPath id="clip-0">
<rect x="0" y="0" width="32" height="32"/>
</clipPath>
<g id="source-6" clip-path="url(#clip-0)">
<path fill-rule="nonzero" fill="rgb(55.294118%, 55.294118%, 55.294118%)" fill-opacity="1" d="M 15.65625 16.339844 C 10.507812 16.339844 6.308594 20.535156 6.308594 25.6875 C 6.308594 26.027344 6.316406 26.375 6.335938 26.726562 L 5.535156 26.726562 C 5.394531 26.726562 5.253906 26.753906 5.121094 26.808594 C 4.992188 26.863281 4.871094 26.945312 4.773438 27.042969 C 4.671875 27.144531 4.589844 27.265625 4.539062 27.394531 C 4.484375 27.527344 4.457031 27.667969 4.457031 27.808594 L 4.457031 29.1875 C 4.457031 29.328125 4.484375 29.46875 4.539062 29.601562 C 4.589844 29.734375 4.671875 29.851562 4.773438 29.953125 C 4.871094 30.054688 4.992188 30.132812 5.121094 30.1875 C 5.253906 30.242188 5.394531 30.269531 5.535156 30.269531 L 9.542969 30.269531 C 10.207031 30.304688 10.886719 30.289062 11.507812 30.269531 C 11.515625 30.269531 11.527344 30.269531 11.539062 30.269531 L 12.636719 30.269531 C 12.765625 30.488281 12.917969 30.691406 13.089844 30.875 C 13.097656 30.882812 13.105469 30.890625 13.109375 30.898438 L 13.113281 30.898438 C 13.417969 31.230469 13.847656 31.554688 14.398438 31.757812 C 14.40625 31.761719 14.410156 31.761719 14.417969 31.765625 C 14.417969 31.765625 14.421875 31.765625 14.421875 31.765625 C 14.804688 31.910156 15.21875 31.992188 15.648438 31.992188 C 15.792969 31.992188 15.933594 31.980469 16.066406 31.964844 C 16.070312 31.964844 16.074219 31.964844 16.078125 31.964844 C 16.085938 31.964844 16.09375 31.960938 16.097656 31.960938 C 16.742188 31.890625 17.433594 31.613281 18 31.078125 C 18.011719 31.066406 18.027344 31.050781 18.042969 31.035156 L 18.042969 31.039062 C 18.050781 31.03125 18.058594 31.023438 18.0625 31.015625 C 18.292969 30.796875 18.492188 30.546875 18.660156 30.269531 L 20.914062 30.269531 C 21.160156 30.273438 21.410156 30.277344 21.660156 30.269531 C 21.671875 30.269531 21.683594 30.269531 21.695312 30.269531 L 25.144531 30.269531 C 25.285156 30.269531 25.425781 30.242188 25.558594 30.1875 C 25.691406 30.132812 25.808594 30.054688 25.910156 29.953125 C 26.007812 29.851562 26.089844 29.734375 26.144531 29.601562 C 26.199219 29.46875 26.226562 29.328125 26.226562 29.1875 L 26.226562 27.808594 C 26.226562 27.667969 26.199219 27.527344 26.144531 27.394531 C 26.089844 27.265625 26.007812 27.144531 25.910156 27.042969 C 25.808594 26.945312 25.691406 26.863281 25.558594 26.808594 C 25.425781 26.753906 25.285156 26.726562 25.144531 26.726562 L 25.015625 26.726562 C 25.027344 26.289062 25.023438 25.804688 24.996094 25.308594 C 24.996094 25.300781 24.996094 25.292969 24.996094 25.285156 L 24.992188 25.285156 C 24.78125 20.316406 20.671875 16.339844 15.65625 16.339844 Z M 15.65625 16.339844 "/>
</g>
<mask id="mask-1">
<g filter="url(#filter-remove-color)">
<rect x="-3.2" y="-3.2" width="38.4" height="38.4" fill="rgb(0%, 0%, 0%)" fill-opacity="0.426087"/>
</g>
</mask>
<clipPath id="clip-1">
<rect x="0" y="0" width="32" height="32"/>
</clipPath>
<g id="source-12" clip-path="url(#clip-1)">
<path fill-rule="nonzero" fill="rgb(0%, 0%, 0%)" fill-opacity="1" d="M 21.277344 21.015625 C 21.820312 20.917969 23.089844 22.382812 23.542969 23.886719 C 24.210938 26.121094 22.980469 28.628906 22.980469 28.628906 L 21.667969 28.832031 C 21.667969 28.832031 22.394531 27.328125 22.347656 25.402344 C 22.285156 22.558594 20.730469 21.113281 21.277344 21.015625 Z M 21.277344 21.015625 "/>
</g>
<mask id="mask-2">
<g filter="url(#filter-remove-color)">
<rect x="-3.2" y="-3.2" width="38.4" height="38.4" fill="rgb(0%, 0%, 0%)" fill-opacity="0.856"/>
</g>
</mask>
<clipPath id="clip-2">
<rect x="0" y="0" width="32" height="32"/>
</clipPath>
<g id="source-18" clip-path="url(#clip-2)">
<path fill-rule="nonzero" fill="rgb(99.607843%, 99.607843%, 99.607843%)" fill-opacity="1" d="M 12.75 19.117188 C 12.371094 18.839844 10.769531 19.582031 9.933594 20.609375 C 9.257812 21.445312 9.09375 21.871094 8.863281 22.796875 C 8.738281 23.292969 8.671875 24.578125 9.0625 24.242188 C 9.308594 24.03125 9.445312 23.328125 10.199219 22.070312 C 11.429688 20.007812 13.125 19.394531 12.75 19.117188 Z M 12.75 19.117188 "/>
</g>
</defs>
<g mask="url(#mask-0)">
<use xlink:href="#source-6"/>
</g>
<path fill-rule="nonzero" fill="rgb(0%, 87.45098%, 4.705882%)" fill-opacity="1" d="M 23.898438 25.6875 C 23.898438 27.03125 24.011719 28.457031 23.082031 28.910156 C 21.859375 29.511719 19.375 28.925781 17.957031 29.214844 C 17.40625 30.507812 16.496094 30.914062 15.664062 30.90625 C 13.703125 30.882812 13.394531 29.214844 13.28125 29.1875 C 12.304688 29.03125 8.117188 29.609375 7.726562 28.574219 C 7.410156 27.722656 7.367188 26.703125 7.367188 25.6875 C 7.367188 21.125 11.066406 17.421875 15.632812 17.421875 C 20.199219 17.421875 23.898438 21.125 23.898438 25.6875 Z M 23.898438 25.6875 "/>
<path fill-rule="nonzero" fill="rgb(90.980392%, 0%, 0%)" fill-opacity="1" d="M 9.152344 20.570312 C 8.039062 21.980469 7.367188 23.753906 7.367188 25.6875 C 7.367188 26.476562 7.394531 27.269531 7.554688 27.984375 C 8.195312 28.410156 8.882812 28.816406 9.621094 29.195312 C 10.996094 29.261719 12.699219 29.097656 13.28125 29.1875 C 13.394531 29.214844 13.703125 30.882812 15.664062 30.90625 C 16.496094 30.914062 17.40625 30.507812 17.957031 29.214844 C 19.375 28.925781 21.859375 29.511719 23.082031 28.910156 C 24.011719 28.457031 23.898438 27.03125 23.898438 25.6875 C 23.898438 25.160156 23.847656 24.644531 23.753906 24.144531 C 23.699219 24.210938 23.640625 24.277344 23.570312 24.339844 C 23.488281 24.414062 23.398438 24.484375 23.296875 24.554688 C 23.195312 24.621094 23.085938 24.6875 22.96875 24.75 C 22.851562 24.8125 22.726562 24.871094 22.589844 24.925781 C 22.457031 24.984375 22.316406 25.035156 22.164062 25.085938 C 22.015625 25.136719 21.859375 25.179688 21.695312 25.222656 C 21.53125 25.265625 21.363281 25.304688 21.1875 25.339844 C 21.011719 25.371094 20.832031 25.402344 20.644531 25.425781 C 20.457031 25.453125 20.265625 25.472656 20.070312 25.492188 C 19.875 25.507812 19.671875 25.519531 19.46875 25.523438 C 19.261719 25.53125 19.054688 25.535156 18.84375 25.53125 C 18.632812 25.527344 18.417969 25.519531 18.199219 25.503906 C 17.984375 25.488281 17.761719 25.46875 17.542969 25.441406 C 17.320312 25.417969 17.097656 25.386719 16.871094 25.347656 C 16.648438 25.308594 16.421875 25.265625 16.195312 25.214844 C 15.96875 25.164062 15.746094 25.109375 15.519531 25.046875 C 15.300781 24.984375 15.082031 24.917969 14.871094 24.847656 C 14.660156 24.777344 14.453125 24.703125 14.25 24.625 C 14.046875 24.546875 13.847656 24.464844 13.652344 24.378906 C 13.457031 24.296875 13.265625 24.207031 13.082031 24.117188 C 12.894531 24.027344 12.714844 23.933594 12.539062 23.835938 C 12.363281 23.738281 12.195312 23.640625 12.03125 23.539062 C 11.867188 23.441406 11.707031 23.335938 11.554688 23.234375 C 11.402344 23.128906 11.253906 23.023438 11.113281 22.917969 C 10.972656 22.808594 10.835938 22.703125 10.710938 22.59375 C 10.582031 22.484375 10.460938 22.375 10.34375 22.269531 C 10.230469 22.160156 10.121094 22.050781 10.019531 21.941406 C 9.921875 21.832031 9.828125 21.722656 9.742188 21.613281 C 9.65625 21.503906 9.578125 21.398438 9.507812 21.289062 C 9.4375 21.183594 9.371094 21.078125 9.320312 20.976562 C 9.265625 20.871094 9.21875 20.769531 9.179688 20.667969 C 9.167969 20.636719 9.160156 20.605469 9.152344 20.570312 Z M 9.152344 20.570312 "/>
<g mask="url(#mask-1)">
<use xlink:href="#source-12"/>
</g>
<path fill="none" stroke-width="25" stroke-linecap="butt" stroke-linejoin="miter" stroke="rgb(0%, 0%, 0%)" stroke-opacity="1" stroke-miterlimit="4" d="M 99.899902 516.5625 L 455.319824 516.5625 " transform="matrix(0.0551724, 0, 0, 0.0551724, 0, 0)"/>
<path fill-rule="nonzero" fill="rgb(99.607843%, 99.607843%, 99.607843%)" fill-opacity="1" stroke-width="20.5723" stroke-linecap="round" stroke-linejoin="round" stroke="rgb(0%, 0%, 0%)" stroke-opacity="1" stroke-miterlimit="10" d="M 316.833496 516.420898 C 316.833496 525.341797 313.293457 533.837891 306.992188 540.13916 C 300.690918 546.44043 292.124023 549.980469 283.203125 549.980469 C 274.282227 549.980469 265.715332 546.44043 259.414062 540.13916 C 253.112793 533.837891 249.572754 525.341797 249.572754 516.420898 C 249.572754 507.5 253.112793 498.933105 259.414062 492.631836 C 265.715332 486.330566 274.282227 482.790527 283.203125 482.790527 C 292.124023 482.790527 300.690918 486.330566 306.992188 492.631836 C 313.293457 498.933105 316.833496 507.5 316.833496 516.420898 Z M 316.833496 516.420898 " transform="matrix(0.0551724, 0, 0, 0.0551724, 0, 0)"/>
<g mask="url(#mask-2)">
<use xlink:href="#source-18"/>
</g>
</svg>
