<svg width="32" height="32" viewBox="0 0 580 580" fill="none" xmlns="http://www.w3.org/2000/svg">
<g clip-path="url(#clip0)">
<path opacity="0.426087" d="M195.406 291.281C190.853 291.382 186.466 293.012 182.952 295.908C179.437 298.805 177 302.8 176.031 307.25L137.75 483.688H100.219C94.8403 483.689 89.6825 485.826 85.8794 489.63C82.0762 493.433 79.939 498.591 79.9375 503.969V528.969C79.939 534.347 82.0762 539.505 85.8794 543.308C89.6825 547.112 94.8403 549.249 100.219 549.25H228.688C239.97 567.9 260.283 580.469 283.469 580.469C306.663 580.469 326.992 567.916 338.281 549.25H455.594C460.972 549.249 466.13 547.112 469.933 543.308C473.736 539.505 475.874 534.347 475.875 528.969V503.969C475.874 498.591 473.736 493.433 469.933 489.63C466.13 485.826 460.972 483.689 455.594 483.688H430.219L455.625 358.75C456.162 356.103 456.166 353.375 455.634 350.726C455.103 348.077 454.048 345.562 452.532 343.326C451.015 341.091 449.068 339.18 446.803 337.708C444.538 336.235 442.002 335.23 439.344 334.75L402.531 328.125L199.438 291.594C198.108 291.356 196.757 291.251 195.406 291.281Z" fill="#8D8D8D"/>
<path d="M435.46 354.827L195.572 311.655L150.18 520.779L240.372 519.577C243.611 540.527 252.139 556.539 282.777 559.87C309.818 557.757 323.17 542.07 326.913 518.296L402.427 517.223L435.46 354.827Z" fill="#FEFEFE"/>
<path opacity="0.426087" d="M398.661 348.197L435.46 354.826L404.962 504.39L367.212 505.245L398.661 348.197Z" fill="black"/>
<path d="M99.9238 516.57H455.305" stroke="black" stroke-width="25"/>
<path d="M316.803 516.401C316.803 525.314 313.262 533.862 306.96 540.164C300.658 546.466 292.11 550.007 283.197 550.007C274.285 550.007 265.737 546.466 259.435 540.164C253.132 533.862 249.592 525.314 249.592 516.401C249.592 507.489 253.132 498.941 259.435 492.639C265.737 486.336 274.285 482.796 283.197 482.796C292.11 482.796 300.658 486.336 306.96 492.639C313.262 498.941 316.803 507.489 316.803 516.401V516.401Z" fill="#FEFEFE" stroke="black" stroke-width="20.5723" stroke-miterlimit="10" stroke-linecap="round" stroke-linejoin="round"/>
</g>
<defs>
<clipPath id="clip0">
<path d="M0 0H580V580H0V0Z" fill="white"/>
</clipPath>
</defs>
</svg>
