<?xml version="1.0" encoding="UTF-8"?>
<svg xmlns="http://www.w3.org/2000/svg" xmlns:xlink="http://www.w3.org/1999/xlink" width="32" height="32" viewBox="0 0 32 32">
<path fill-rule="evenodd" fill="rgb(100%, 100%, 100%)" fill-opacity="1" d="M 0 1.332031 C 0 0.597656 0.597656 0 1.332031 0 L 9.332031 0 C 10.070312 0 10.667969 0.597656 10.667969 1.332031 L 10.667969 9.332031 C 10.667969 9.6875 10.527344 10.027344 10.277344 10.277344 L 7.609375 12.941406 C 7.359375 13.191406 7.019531 13.332031 6.667969 13.332031 L 1.332031 13.332031 C 0.597656 13.332031 0 12.738281 0 12 Z M 0 1.332031 "/>
<path fill-rule="evenodd" fill="rgb(0%, 54.509804%, 7.058824%)" fill-opacity="1" d="M 1.332031 1.332031 L 9.332031 1.332031 L 9.332031 8 L 5.332031 8 L 5.332031 12 L 1.332031 12 Z M 2.667969 2.667969 L 8 2.667969 L 8 4 L 2.667969 4 Z M 2.667969 5.332031 L 8 5.332031 L 8 6.667969 L 2.667969 6.667969 Z M 4 8 L 2.667969 8 L 2.667969 9.332031 L 4 9.332031 Z M 4 8 "/>
<path fill-rule="nonzero" fill="rgb(0%, 54.509804%, 7.058824%)" fill-opacity="1" d="M 6.667969 9.332031 L 6.667969 12 L 9.332031 9.332031 Z M 6.667969 9.332031 "/>
</svg>
