<?xml version="1.0" encoding="UTF-8"?>
<svg xmlns="http://www.w3.org/2000/svg" xmlns:xlink="http://www.w3.org/1999/xlink" width="32" height="32" viewBox="0 0 32 32">
<defs>
<filter id="filter-remove-color" x="0%" y="0%" width="100%" height="100%">
<feColorMatrix color-interpolation-filters="sRGB" values="0 0 0 0 1 0 0 0 0 1 0 0 0 0 1 0 0 0 1 0" />
</filter>
<mask id="mask-0">
<g filter="url(#filter-remove-color)">
<rect x="-3.2" y="-3.2" width="38.4" height="38.4" fill="rgb(0%, 0%, 0%)" fill-opacity="0.61"/>
</g>
</mask>
<clipPath id="clip-0">
<rect x="0" y="0" width="32" height="32"/>
</clipPath>
<g id="source-6" clip-path="url(#clip-0)">
<path fill-rule="nonzero" fill="rgb(21.568627%, 21.568627%, 21.568627%)" fill-opacity="1" d="M 32 21 L 19 21 L 19 32 L 32 32 Z M 32 21 "/>
</g>
</defs>
<g mask="url(#mask-0)">
<use xlink:href="#source-6"/>
</g>
<path fill-rule="nonzero" fill="rgb(99.607843%, 99.607843%, 99.607843%)" fill-opacity="1" d="M 31 22 L 20 22 L 20 31 L 31 31 Z M 31 22 "/>
<path fill="none" stroke-width="10" stroke-linecap="butt" stroke-linejoin="miter" stroke="rgb(0%, 12.54902%, 100%)" stroke-opacity="1" stroke-miterlimit="4" d="M 214.765625 302.890625 C 214.765625 302.890625 240.507812 294.765625 237.460938 280 C 234.375 265.234375 225.429688 270 228.476562 246.5625 " transform="matrix(0.1, 0, 0, 0.1, 0, 0)"/>
<path fill-rule="nonzero" fill="rgb(0%, 0%, 0%)" fill-opacity="1" d="M 30.308594 26.480469 L 25.308594 30 L 26.34375 26.5 L 25.308594 23 Z M 30.308594 26.480469 "/>
<path fill-rule="nonzero" fill="rgb(0%, 12.54902%, 100%)" fill-opacity="1" d="M 22.828125 22.507812 L 25.257812 25.492188 L 20.425781 25.492188 Z M 22.828125 22.507812 "/>
</svg>
