<svg width="32" height="32" viewBox="0 0 48 48" fill="none" xmlns="http://www.w3.org/2000/svg">
<path d="M24.9805 10.0625C23.7374 10.0625 22.716 11.1136 22.716 12.3723C22.716 13.631 23.7374 14.6368 24.9805 14.6368C26.2236 14.6368 27.1997 13.631 27.1997 12.3723C27.1997 11.1136 26.2236 10.0625 24.9805 10.0625V10.0625ZM21.9461 15.2709L19.8627 22.5626C19.6512 23.8478 19.6351 24.7978 20.9044 25.8688L21.8102 26.6387L23.9841 28.8579V34.655C24.1113 36.0969 27.1232 35.7868 26.928 34.655V28.2238C26.9226 27.8288 26.7591 27.453 26.4751 27.1822L24.2106 24.8724L23.5765 24.0572L24.6182 19.7093L26.5657 21.7474C26.9883 22.1914 27.6411 22.3183 28.1961 22.0644L30.5512 20.8416V35.742H32.0005V20.1169L32.4534 19.8905C34.0561 19.3964 33.6753 16.9979 32.0005 17.0372V16.4484H30.5512V17.626L27.8791 18.9847L25.4334 16.4031C25.2243 16.1903 24.9554 16.0479 24.6635 15.9955C24.6199 15.9672 24.5673 15.9183 24.5276 15.9049L21.9461 15.2709ZM19.9986 15.3615C19.1507 15.3815 18.1426 15.5546 17.1906 16.3578C15.9213 17.4288 15.0924 19.2228 14.8808 20.6151C14.6692 21.9003 15.6346 22.3319 16.6924 22.6532C17.7502 22.9745 18.7001 22.5423 18.9116 21.7927C19.229 20.8288 20.8138 15.3615 20.8138 15.3615C20.5758 15.3615 20.2812 15.3549 19.9986 15.3615V15.3615ZM19.4551 25.5064L19.0022 28.405V28.4503C18.9861 28.4799 18.971 28.5102 18.9569 28.5409C18.9048 28.6121 18.8594 28.6879 18.821 28.7673L16.6924 34.1116C15.9452 35.7763 18.5127 35.8001 19.4098 35.1985L21.5385 29.8543C21.6311 29.6559 21.6775 29.4391 21.6743 29.2202C21.6753 29.19 21.6753 29.1598 21.6743 29.1296L21.9461 28.3144C20.571 27.1363 19.4551 26.2561 19.4551 25.5064V25.5064Z" fill="#000000"/>
<path d="M34.1069 35.6426C34.1054 36.0571 33.9342 36.4944 33.5976 36.7036C33.4369 36.8034 33.2444 36.8738 33.0459 36.8733L12.123 36.9158V38.486L32.961 38.4012C33.6029 38.3858 33.7169 38.2607 34.2767 37.9343C34.8472 37.5799 35.4167 36.4985 35.4226 35.8123L34.1069 35.6426Z" fill="#000000"/>
</svg>
