<svg width="64" height="64" viewBox="0 0 1060 1060" fill="none" xmlns="http://www.w3.org/2000/svg">
<path d="M813.726 457.155C827.104 457.155 837.949 446.31 837.949 432.932C837.949 419.554 827.104 408.709 813.726 408.709C800.349 408.709 789.504 419.554 789.504 432.932C789.504 446.31 800.349 457.155 813.726 457.155Z" fill="#930093"/>
<path d="M837.949 476.533H789.504V573.423H837.949V476.533Z" fill="#930093"/>
<path d="M779.968 564.585V495.438C779.968 484.572 788.649 475.682 799.259 475.682H828.194C838.804 475.682 847.485 484.572 847.485 495.438V564.585" stroke="#930093" stroke-width="19.8444"/>
<path d="M799.193 641.246V554.045" stroke="#930093" stroke-width="20.089"/>
<path d="M828.26 641.246V554.045" stroke="#930093" stroke-width="20.089"/>
<path d="M939.684 457.155C953.061 457.155 963.906 446.31 963.906 432.932C963.906 419.554 953.061 408.709 939.684 408.709C926.306 408.709 915.461 419.554 915.461 432.932C915.461 446.31 926.306 457.155 939.684 457.155Z" fill="#930093"/>
<path d="M921.275 476.533H958.093L983.284 583.112H896.083L921.275 476.533Z" fill="#930093"/>
<path d="M883.204 564.774L909.903 488.389C912.984 480.453 920.172 475.493 928.388 475.493H950.98C959.195 475.493 967.41 480.453 969.464 488.389L996.164 564.774" stroke="#930093" stroke-width="17.9202"/>
<path d="M925.15 641.246V554.045" stroke="#930093" stroke-width="20.089"/>
<path d="M954.217 641.246V554.045" stroke="#930093" stroke-width="20.089"/>
</svg>
