<?xml version="1.0" encoding="UTF-8"?>
<svg xmlns="http://www.w3.org/2000/svg" xmlns:xlink="http://www.w3.org/1999/xlink" width="12" height="12" viewBox="0 0 12 12" version="1.1">
<g id="surface1">
<path style=" stroke:none;fill-rule:nonzero;fill:rgb(0%,0%,0%);fill-opacity:1;" d="M 3.996094 4.417969 L 3.996094 4.671875 C 3.929688 4.640625 3.863281 4.621094 3.800781 4.605469 C 3.738281 4.589844 3.679688 4.582031 3.625 4.582031 C 3.550781 4.582031 3.496094 4.59375 3.460938 4.613281 C 3.421875 4.632812 3.40625 4.664062 3.40625 4.707031 C 3.40625 4.738281 3.417969 4.765625 3.441406 4.785156 C 3.464844 4.800781 3.507812 4.816406 3.570312 4.828125 L 3.703125 4.855469 C 3.839844 4.882812 3.933594 4.921875 3.988281 4.976562 C 4.046875 5.035156 4.074219 5.109375 4.074219 5.210938 C 4.074219 5.34375 4.035156 5.445312 3.957031 5.507812 C 3.878906 5.574219 3.757812 5.605469 3.59375 5.605469 C 3.519531 5.605469 3.441406 5.597656 3.367188 5.582031 C 3.289062 5.570312 3.210938 5.546875 3.136719 5.519531 L 3.136719 5.257812 C 3.210938 5.296875 3.285156 5.328125 3.359375 5.351562 C 3.429688 5.371094 3.5 5.378906 3.566406 5.378906 C 3.632812 5.378906 3.683594 5.371094 3.722656 5.347656 C 3.757812 5.324219 3.773438 5.292969 3.773438 5.25 C 3.773438 5.210938 3.761719 5.183594 3.738281 5.164062 C 3.714844 5.140625 3.664062 5.125 3.59375 5.109375 L 3.472656 5.082031 C 3.351562 5.054688 3.265625 5.015625 3.207031 4.957031 C 3.152344 4.902344 3.125 4.824219 3.125 4.730469 C 3.125 4.609375 3.164062 4.519531 3.242188 4.453125 C 3.316406 4.390625 3.429688 4.355469 3.574219 4.355469 C 3.640625 4.355469 3.707031 4.363281 3.777344 4.371094 C 3.847656 4.382812 3.921875 4.398438 3.996094 4.417969 "/>
<path style=" stroke:none;fill-rule:nonzero;fill:rgb(0%,0%,0%);fill-opacity:1;" d="M 4.347656 4.378906 L 4.863281 4.378906 C 5.015625 4.378906 5.132812 4.414062 5.214844 4.480469 C 5.296875 4.550781 5.335938 4.644531 5.335938 4.769531 C 5.335938 4.898438 5.296875 4.996094 5.214844 5.0625 C 5.132812 5.128906 5.015625 5.164062 4.863281 5.164062 L 4.65625 5.164062 L 4.65625 5.582031 L 4.347656 5.582031 Z M 4.65625 4.605469 L 4.65625 4.941406 L 4.828125 4.941406 C 4.890625 4.941406 4.9375 4.925781 4.96875 4.894531 C 5 4.867188 5.019531 4.824219 5.019531 4.769531 C 5.019531 4.71875 5 4.675781 4.96875 4.648438 C 4.9375 4.617188 4.890625 4.605469 4.828125 4.605469 L 4.65625 4.605469 "/>
<path style=" stroke:none;fill-rule:nonzero;fill:rgb(0%,0%,0%);fill-opacity:1;" d="M 5.554688 4.378906 L 6.394531 4.378906 L 6.394531 4.613281 L 5.867188 4.613281 L 5.867188 4.835938 L 6.363281 4.835938 L 6.363281 5.070312 L 5.867188 5.070312 L 5.867188 5.347656 L 6.410156 5.347656 L 6.410156 5.582031 L 5.554688 5.582031 L 5.554688 4.378906 "/>
<path style=" stroke:none;fill-rule:nonzero;fill:rgb(0%,0%,0%);fill-opacity:1;" d="M 6.683594 4.378906 L 7.519531 4.378906 L 7.519531 4.613281 L 6.996094 4.613281 L 6.996094 4.835938 L 7.488281 4.835938 L 7.488281 5.070312 L 6.996094 5.070312 L 6.996094 5.347656 L 7.539062 5.347656 L 7.539062 5.582031 L 6.683594 5.582031 L 6.683594 4.378906 "/>
<path style=" stroke:none;fill-rule:nonzero;fill:rgb(0%,0%,0%);fill-opacity:1;" d="M 8.121094 4.613281 L 8.121094 5.347656 L 8.234375 5.347656 C 8.359375 5.347656 8.457031 5.316406 8.523438 5.253906 C 8.589844 5.191406 8.625 5.097656 8.625 4.980469 C 8.625 4.859375 8.589844 4.769531 8.523438 4.707031 C 8.457031 4.644531 8.359375 4.613281 8.234375 4.613281 Z M 7.8125 4.378906 L 8.140625 4.378906 C 8.320312 4.378906 8.457031 4.390625 8.546875 4.417969 C 8.636719 4.445312 8.714844 4.488281 8.777344 4.550781 C 8.832031 4.605469 8.875 4.667969 8.902344 4.738281 C 8.929688 4.808594 8.945312 4.890625 8.945312 4.980469 C 8.945312 5.070312 8.929688 5.152344 8.902344 5.222656 C 8.875 5.292969 8.832031 5.355469 8.777344 5.410156 C 8.714844 5.472656 8.636719 5.515625 8.546875 5.542969 C 8.457031 5.570312 8.320312 5.582031 8.140625 5.582031 L 7.8125 5.582031 Z M 7.8125 4.378906 "/>
<path style=" stroke:none;fill-rule:nonzero;fill:rgb(0%,0%,0%);fill-opacity:1;" d="M 3.644531 6.441406 L 3.953125 6.441406 L 3.953125 7.410156 L 4.5 7.410156 L 4.5 7.644531 L 3.644531 7.644531 L 3.644531 6.441406 "/>
<path style=" stroke:none;fill-rule:nonzero;fill:rgb(0%,0%,0%);fill-opacity:1;" d="M 4.695312 6.441406 L 5.003906 6.441406 L 5.003906 7.644531 L 4.695312 7.644531 Z M 4.695312 6.441406 "/>
<path style=" stroke:none;fill-rule:nonzero;fill:rgb(0%,0%,0%);fill-opacity:1;" d="M 5.3125 6.441406 L 5.707031 6.441406 L 5.980469 7.085938 L 6.253906 6.441406 L 6.648438 6.441406 L 6.648438 7.644531 L 6.355469 7.644531 L 6.355469 6.765625 L 6.078125 7.414062 L 5.882812 7.414062 L 5.605469 6.765625 L 5.605469 7.644531 L 5.3125 7.644531 L 5.3125 6.441406 "/>
<path style=" stroke:none;fill-rule:nonzero;fill:rgb(0%,0%,0%);fill-opacity:1;" d="M 6.953125 6.441406 L 7.265625 6.441406 L 7.265625 7.644531 L 6.953125 7.644531 Z M 6.953125 6.441406 "/>
<path style=" stroke:none;fill-rule:nonzero;fill:rgb(0%,0%,0%);fill-opacity:1;" d="M 7.425781 6.441406 L 8.535156 6.441406 L 8.535156 6.675781 L 8.136719 6.675781 L 8.136719 7.644531 L 7.828125 7.644531 L 7.828125 6.675781 L 7.425781 6.675781 Z M 7.425781 6.441406 "/>
</g>
</svg>
