<?xml version="1.0" encoding="UTF-8"?>
<svg xmlns="http://www.w3.org/2000/svg" xmlns:xlink="http://www.w3.org/1999/xlink" width="64" height="64" viewBox="0 0 64 64">
<path fill-rule="nonzero" fill="rgb(57.647059%, 0%, 57.647059%)" fill-opacity="1" d="M 31.746094 28.3125 C 31.398438 28.320312 31.054688 28.46875 30.8125 28.714844 C 30.570312 28.964844 30.867188 29.386719 30.871094 29.734375 C 30.871094 31.703125 30.976562 32.035156 32.359375 33.625 C 33.058594 34.429688 33.492188 34.621094 33.492188 35.769531 C 33.492188 35.824219 33.398438 36.449219 33.152344 36.832031 C 32.90625 37.210938 32.671875 37.492188 31.769531 37.492188 C 30.425781 37.410156 30.136719 36.667969 29.789062 35.921875 C 29.441406 35.175781 29.359375 34.449219 28.714844 34.4375 C 28.300781 34.683594 27.992188 35.390625 27.886719 35.964844 C 27.78125 36.539062 27.835938 37.753906 28.683594 38.613281 C 29.546875 39.492188 30.585938 40.058594 31.804688 40.007812 C 33.507812 39.933594 34.761719 39.25 35.386719 38.273438 C 36.015625 37.300781 36.152344 36.398438 36.152344 35.769531 C 36.152344 33.761719 34.996094 32.484375 34.226562 31.730469 C 33.457031 30.972656 32.878906 30.863281 33.097656 29.660156 C 33.101562 29.308594 32.957031 28.953125 32.707031 28.703125 C 32.457031 28.453125 32.101562 28.308594 31.746094 28.3125 Z M 31.746094 28.3125 "/>
<path fill="none" stroke-width="26.808399" stroke-linecap="round" stroke-linejoin="round" stroke="rgb(57.647059%, 0%, 57.647059%)" stroke-opacity="1" stroke-miterlimit="10" d="M 529.547119 482.382812 C 549.344482 482.382812 565.389404 466.337891 565.389404 446.605225 C 565.389404 426.807861 549.344482 410.762939 529.547119 410.762939 C 509.749756 410.762939 493.704834 426.807861 493.704834 446.605225 C 493.704834 466.337891 509.749756 482.382812 529.547119 482.382812 Z M 529.547119 482.382812 " transform="matrix(0.0603774, 0, 0, 0.0603774, 0, 0)"/>
</svg>
