<?xml version="1.0" encoding="UTF-8"?>
<svg xmlns="http://www.w3.org/2000/svg" xmlns:xlink="http://www.w3.org/1999/xlink" width="12" height="12" viewBox="0 0 12 12" version="1.1">
<defs>
<filter id="alpha" filterUnits="objectBoundingBox" x="0%" y="0%" width="100%" height="100%">
  <feColorMatrix type="matrix" in="SourceGraphic" values="0 0 0 0 1 0 0 0 0 1 0 0 0 0 1 0 0 0 1 0"/>
</filter>
<mask id="mask0">
  <g filter="url(#alpha)">
<rect x="0" y="0" width="12" height="12" style="fill:rgb(0%,0%,0%);fill-opacity:0.873134;stroke:none;"/>
  </g>
</mask>
<clipPath id="clip1">
  <rect x="0" y="0" width="12" height="12"/>
</clipPath>
<g id="surface5" clip-path="url(#clip1)">
<path style=" stroke:none;fill-rule:nonzero;fill:rgb(67.450982%,84.705883%,95.294118%);fill-opacity:1;" d="M 5.230469 2.683594 C 5.066406 2.683594 4.894531 2.710938 4.746094 2.796875 C 4.671875 2.738281 4.582031 2.703125 4.488281 2.703125 L 4.171875 2.703125 C 4.109375 2.703125 4.050781 2.71875 3.996094 2.742188 C 3.941406 2.769531 3.894531 2.808594 3.859375 2.855469 C 3.820312 2.808594 3.773438 2.769531 3.722656 2.742188 C 3.667969 2.71875 3.609375 2.703125 3.546875 2.703125 L 3.167969 2.703125 C 3.085938 2.703125 3.007812 2.730469 2.941406 2.773438 C 2.875 2.820312 2.824219 2.886719 2.796875 2.960938 L 2.660156 3.335938 C 2.640625 3.332031 2.625 3.332031 2.605469 3.332031 L 2.445312 3.332031 L 2.480469 3.234375 C 2.5 3.175781 2.507812 3.113281 2.5 3.046875 C 2.492188 2.984375 2.46875 2.925781 2.433594 2.875 C 2.398438 2.820312 2.347656 2.777344 2.292969 2.75 C 2.234375 2.71875 2.171875 2.703125 2.109375 2.703125 L 1.789062 2.703125 C 1.722656 2.703125 1.660156 2.71875 1.601562 2.75 C 1.546875 2.78125 1.496094 2.824219 1.460938 2.878906 C 1.425781 2.824219 1.375 2.78125 1.320312 2.75 C 1.261719 2.71875 1.199219 2.703125 1.132812 2.703125 L 0.8125 2.703125 C 0.75 2.703125 0.6875 2.71875 0.628906 2.75 C 0.574219 2.777344 0.523438 2.820312 0.488281 2.875 C 0.453125 2.925781 0.429688 2.984375 0.421875 3.046875 C 0.414062 3.113281 0.417969 3.175781 0.441406 3.234375 L 0.898438 4.472656 C 0.929688 4.550781 0.980469 4.613281 1.046875 4.660156 C 1.109375 4.707031 1.191406 4.730469 1.269531 4.730469 L 1.652344 4.730469 C 1.730469 4.730469 1.808594 4.707031 1.875 4.660156 C 1.941406 4.613281 1.992188 4.550781 2.019531 4.472656 L 2.0625 4.363281 C 2.070312 4.363281 2.078125 4.363281 2.085938 4.363281 L 2.316406 4.363281 C 2.320312 4.460938 2.367188 4.554688 2.441406 4.625 C 2.511719 4.691406 2.609375 4.730469 2.707031 4.730469 L 3.03125 4.730469 C 3.09375 4.730469 3.160156 4.714844 3.214844 4.683594 C 3.273438 4.652344 3.320312 4.609375 3.359375 4.554688 C 3.394531 4.609375 3.441406 4.652344 3.5 4.683594 C 3.558594 4.714844 3.621094 4.730469 3.6875 4.730469 L 4.007812 4.730469 C 4.035156 4.730469 4.0625 4.726562 4.089844 4.722656 C 4.117188 4.726562 4.144531 4.730469 4.171875 4.730469 L 4.488281 4.730469 C 4.566406 4.730469 4.644531 4.707031 4.710938 4.664062 C 4.785156 4.6875 4.863281 4.710938 4.945312 4.726562 C 5.046875 4.746094 5.148438 4.753906 5.253906 4.753906 C 5.472656 4.753906 5.691406 4.71875 5.875 4.566406 C 6.058594 4.414062 6.140625 4.171875 6.140625 3.957031 C 6.140625 3.824219 6.105469 3.675781 6.027344 3.550781 C 6.050781 3.503906 6.058594 3.453125 6.058594 3.398438 L 6.058594 3.136719 C 6.058594 3.050781 6.03125 2.964844 5.976562 2.898438 C 5.925781 2.828125 5.851562 2.777344 5.765625 2.757812 C 5.675781 2.730469 5.585938 2.714844 5.496094 2.699219 L 5.496094 2.703125 C 5.40625 2.6875 5.320312 2.683594 5.230469 2.683594 Z M 5.230469 2.683594 "/>
</g>
</defs>
<g id="surface1">
<use xlink:href="#surface5" mask="url(#mask0)"/>
<path style=" stroke:none;fill-rule:nonzero;fill:rgb(0%,0%,0%);fill-opacity:1;" d="M 5.230469 3.078125 C 5.082031 3.078125 4.96875 3.109375 4.890625 3.175781 C 4.808594 3.242188 4.769531 3.335938 4.769531 3.460938 C 4.769531 3.558594 4.796875 3.636719 4.855469 3.695312 C 4.914062 3.753906 5.003906 3.796875 5.125 3.820312 L 5.25 3.847656 C 5.324219 3.867188 5.375 3.882812 5.398438 3.90625 C 5.425781 3.925781 5.4375 3.957031 5.4375 3.996094 C 5.4375 4.039062 5.421875 4.070312 5.382812 4.09375 C 5.347656 4.117188 5.292969 4.128906 5.222656 4.128906 C 5.15625 4.128906 5.082031 4.117188 5.007812 4.097656 C 4.9375 4.074219 4.859375 4.042969 4.78125 4.003906 L 4.78125 4.273438 C 4.859375 4.300781 4.9375 4.324219 5.015625 4.339844 C 5.097656 4.351562 5.175781 4.359375 5.253906 4.359375 C 5.421875 4.359375 5.542969 4.328125 5.625 4.261719 C 5.707031 4.195312 5.746094 4.09375 5.746094 3.957031 C 5.746094 3.851562 5.71875 3.773438 5.660156 3.714844 C 5.601562 3.660156 5.503906 3.617188 5.367188 3.589844 L 5.230469 3.5625 C 5.164062 3.546875 5.121094 3.53125 5.09375 3.515625 C 5.070312 3.496094 5.058594 3.46875 5.058594 3.4375 C 5.058594 3.390625 5.078125 3.359375 5.113281 3.339844 C 5.148438 3.316406 5.207031 3.308594 5.28125 3.308594 C 5.339844 3.308594 5.402344 3.316406 5.464844 3.332031 C 5.53125 3.347656 5.597656 3.371094 5.664062 3.398438 L 5.664062 3.136719 C 5.589844 3.117188 5.511719 3.101562 5.441406 3.09375 C 5.371094 3.082031 5.300781 3.078125 5.230469 3.078125 Z M 0.8125 3.097656 L 1.269531 4.335938 L 1.652344 4.335938 L 2.109375 3.097656 L 1.789062 3.097656 L 1.460938 4.011719 L 1.132812 3.097656 Z M 3.167969 3.097656 L 2.707031 4.335938 L 3.03125 4.335938 L 3.109375 4.109375 L 3.609375 4.109375 L 3.6875 4.335938 L 4.007812 4.335938 L 3.546875 3.097656 Z M 4.171875 3.097656 L 4.171875 4.335938 L 4.488281 4.335938 L 4.488281 3.097656 Z M 3.359375 3.386719 L 3.527344 3.882812 L 3.1875 3.882812 Z M 2.085938 3.726562 L 2.085938 3.96875 L 2.605469 3.96875 L 2.605469 3.726562 Z M 2.085938 3.726562 "/>
</g>
</svg>
