<?xml version="1.0" encoding="UTF-8"?>
<svg xmlns="http://www.w3.org/2000/svg" xmlns:xlink="http://www.w3.org/1999/xlink" width="12" height="12" viewBox="0 0 12 12" version="1.1">
<g id="surface1">
<path style=" stroke:none;fill-rule:nonzero;fill:rgb(0%,0%,0%);fill-opacity:1;" d="M 4.46875 7.113281 L 4.082031 7.113281 L 3.402344 4.886719 L 3.804688 4.886719 L 4.179688 6.316406 C 4.179688 6.316406 4.191406 6.367188 4.214844 6.460938 L 4.246094 6.597656 C 4.257812 6.648438 4.265625 6.691406 4.273438 6.738281 C 4.285156 6.695312 4.292969 6.648438 4.304688 6.601562 C 4.3125 6.5625 4.320312 6.515625 4.332031 6.464844 L 4.367188 6.316406 L 4.742188 4.886719 L 5.140625 4.886719 Z M 4.46875 7.113281 "/>
<path style=" stroke:none;fill-rule:nonzero;fill:rgb(0%,0%,0%);fill-opacity:1;" d="M 6.511719 7.113281 L 6.511719 6.160156 L 5.714844 6.160156 L 5.714844 7.113281 L 5.332031 7.113281 L 5.332031 4.886719 L 5.714844 4.886719 L 5.714844 5.773438 L 6.511719 5.773438 L 6.511719 4.886719 L 6.894531 4.886719 L 6.894531 7.113281 Z M 6.511719 7.113281 "/>
<path style=" stroke:none;fill-rule:nonzero;fill:rgb(0%,0%,0%);fill-opacity:1;" d="M 7.632812 5.246094 L 7.632812 5.9375 L 8.566406 5.9375 L 8.566406 6.296875 L 7.632812 6.296875 L 7.632812 7.113281 L 7.25 7.113281 L 7.25 4.886719 L 8.597656 4.886719 L 8.597656 5.246094 Z M 7.632812 5.246094 "/>
</g>
</svg>
