<?xml version="1.0" encoding="UTF-8"?>
<svg xmlns="http://www.w3.org/2000/svg" xmlns:xlink="http://www.w3.org/1999/xlink" width="32" height="32" viewBox="0 0 32 32">
<path fill-rule="nonzero" fill="rgb(99.607843%, 99.607843%, 99.607843%)" fill-opacity="1" d="M 15.675781 8.167969 C 10.886719 8.246094 6.3125 9.933594 4.546875 13.550781 C 4.191406 14.28125 4 15.132812 4 15.992188 C 4 16.601562 4.074219 17.128906 4.179688 17.476562 C 4.28125 17.808594 4.394531 18.074219 4.527344 18.359375 C 4.59375 18.5 4.65625 18.625 4.726562 18.757812 C 4.765625 18.824219 4.796875 18.882812 4.855469 18.972656 C 4.902344 19.042969 4.914062 19.105469 4.917969 19.121094 C 4.921875 19.136719 4.917969 19.128906 4.929688 19.144531 C 4.953125 19.175781 5.070312 19.285156 5.347656 19.460938 C 5.355469 19.464844 5.367188 19.46875 5.378906 19.472656 C 5.417969 19.488281 5.46875 19.507812 5.527344 19.527344 C 5.644531 19.570312 5.78125 19.617188 5.875 19.652344 C 5.914062 19.667969 5.953125 19.691406 5.980469 19.722656 C 6.011719 19.753906 6.035156 19.789062 6.046875 19.832031 C 6.113281 20.046875 6.179688 20.269531 6.25 20.449219 C 6.320312 20.628906 6.410156 20.757812 6.4375 20.78125 C 6.890625 21.148438 7.355469 21.472656 7.863281 21.773438 C 7.867188 21.773438 7.867188 21.777344 7.871094 21.777344 C 7.871094 21.777344 7.875 21.78125 7.875 21.78125 C 7.875 21.78125 7.878906 21.78125 7.878906 21.78125 L 8.425781 22.105469 C 8.796875 22.324219 9.265625 22.375 9.675781 22.246094 C 9.730469 22.230469 9.789062 22.230469 9.839844 22.246094 C 9.894531 22.265625 9.941406 22.296875 9.976562 22.34375 C 10.34375 22.828125 10.816406 23.066406 10.9375 23.101562 C 11.167969 23.171875 11.304688 23.195312 11.507812 23.246094 C 12.5 23.496094 13.476562 23.652344 14.515625 23.742188 C 15.515625 23.828125 17.101562 23.800781 18.101562 23.679688 C 20.070312 23.441406 21.824219 22.949219 23.386719 22.167969 C 24.457031 21.632812 25.296875 21.042969 26.070312 20.265625 C 26.667969 19.664062 27.132812 19.027344 27.460938 18.332031 C 28.265625 16.628906 28.125 14.597656 27.117188 12.992188 C 25.792969 10.882812 23.402344 9.46875 20.496094 8.726562 C 18.902344 8.320312 17.273438 8.140625 15.675781 8.167969 Z M 15.675781 8.167969 "/>
<path fill-rule="nonzero" fill="rgb(92.941176%, 8.235294%, 29.411765%)" fill-opacity="1" d="M 15.699219 9.703125 C 11.304688 9.773438 7.253906 11.507812 5.925781 14.226562 C 5.601562 14.890625 5.535156 15.195312 5.535156 15.992188 C 5.535156 16.601562 5.546875 16.691406 5.648438 17.027344 C 5.757812 17.382812 6.097656 18.121094 6.175781 18.167969 C 6.195312 18.179688 6.332031 18.046875 6.480469 17.867188 C 6.859375 17.410156 7.867188 16.402344 8.492188 15.871094 C 9.539062 14.976562 10.617188 14.203125 11.589844 13.640625 C 14.792969 11.792969 18.667969 10.976562 21.605469 11.527344 C 23.191406 11.824219 24.164062 12.515625 24.164062 13.347656 C 24.164062 13.9375 23.699219 14.464844 22.695312 15.015625 C 21.183594 15.847656 18.019531 16.640625 16.226562 16.640625 C 16.019531 16.640625 15.859375 16.632812 15.871094 16.621094 C 15.882812 16.609375 16.105469 16.570312 16.371094 16.535156 C 18.796875 16.199219 21.355469 15.378906 22.335938 14.621094 C 22.839844 14.230469 23.117188 13.703125 23.117188 13.125 C 23.117188 12.496094 22.734375 12.105469 21.894531 11.859375 C 21.515625 11.75 20.273438 11.695312 19.832031 11.773438 C 18.855469 11.945312 17.507812 12.65625 16.261719 13.65625 C 15.625 14.167969 14.597656 15.191406 14.152344 15.753906 C 13.148438 17.023438 12.199219 18.75 11.375 20.8125 C 11.046875 21.632812 10.996094 21.53125 11.882812 21.753906 C 12.796875 21.980469 13.679688 22.125 14.648438 22.210938 C 15.304688 22.269531 17.25 22.234375 17.917969 22.152344 C 19.75 21.929688 21.316406 21.484375 22.699219 20.792969 C 23.671875 20.304688 24.300781 19.863281 24.980469 19.179688 C 25.503906 18.652344 25.804688 18.234375 26.070312 17.675781 C 26.671875 16.40625 26.578125 15.023438 25.816406 13.808594 C 24.789062 12.175781 22.746094 10.886719 20.117188 10.214844 C 18.664062 9.84375 17.164062 9.679688 15.699219 9.703125 Z M 18.691406 11.65625 C 18.652344 11.652344 18.484375 11.679688 18.183594 11.738281 C 16.199219 12.117188 14.4375 12.855469 12.65625 14.046875 C 11.648438 14.722656 10.953125 15.300781 9.972656 16.28125 C 9.019531 17.234375 8.339844 18.042969 7.714844 18.976562 C 7.390625 19.460938 7.347656 19.539062 7.402344 19.585938 C 7.800781 19.90625 8.207031 20.1875 8.664062 20.460938 L 9.210938 20.785156 L 9.644531 20.074219 C 11.191406 17.523438 12.699219 15.621094 14.292969 14.21875 C 15.808594 12.882812 17.125 12.09375 18.394531 11.757812 C 18.632812 11.695312 18.730469 11.660156 18.691406 11.65625 Z M 18.691406 11.65625 "/>
</svg>
