<?xml version="1.0" encoding="UTF-8"?>
<svg xmlns="http://www.w3.org/2000/svg" xmlns:xlink="http://www.w3.org/1999/xlink" width="32" height="32" viewBox="0 0 32 32">
<path fill-rule="nonzero" fill="rgb(0%, 0%, 0%)" fill-opacity="1" d="M 8.671875 18.144531 L 11.375 21.378906 L 14.117188 18.144531 L 12.449219 18.144531 L 12.449219 10.5625 L 10.382812 10.5625 L 10.382812 18.144531 L 8.671875 18.144531 "/>
<path fill-rule="nonzero" fill="rgb(0%, 0%, 0%)" fill-opacity="1" d="M 8.671875 13.34375 L 11.375 16.578125 L 14.117188 13.34375 L 12.449219 13.34375 L 12.449219 12.5625 L 10.382812 12.5625 L 10.382812 13.34375 L 8.671875 13.34375 "/>
<path fill-rule="nonzero" fill="rgb(0%, 0%, 0%)" fill-opacity="1" d="M 17.742188 14.101562 L 20.445312 10.863281 L 23.183594 14.101562 L 21.515625 14.101562 L 21.515625 21.679688 L 19.449219 21.679688 L 19.449219 14.101562 L 17.742188 14.101562 "/>
<path fill-rule="nonzero" fill="rgb(0%, 0%, 0%)" fill-opacity="1" d="M 17.742188 18.902344 L 20.445312 15.664062 L 23.183594 18.902344 L 21.515625 18.902344 L 21.515625 19.679688 L 19.449219 19.679688 L 19.449219 18.902344 L 17.742188 18.902344 "/>
</svg>
