<?xml version="1.0" encoding="UTF-8"?>
<svg xmlns="http://www.w3.org/2000/svg" xmlns:xlink="http://www.w3.org/1999/xlink" width="12" height="12" viewBox="0 0 12 12" version="1.1">
<defs>
<filter id="alpha" filterUnits="objectBoundingBox" x="0%" y="0%" width="100%" height="100%">
  <feColorMatrix type="matrix" in="SourceGraphic" values="0 0 0 0 1 0 0 0 0 1 0 0 0 0 1 0 0 0 1 0"/>
</filter>
<mask id="mask0">
  <g filter="url(#alpha)">
<rect x="0" y="0" width="12" height="12" style="fill:rgb(0%,0%,0%);fill-opacity:0.617391;stroke:none;"/>
  </g>
</mask>
<clipPath id="clip1">
  <rect x="0" y="0" width="12" height="12"/>
</clipPath>
<g id="surface5" clip-path="url(#clip1)">
<path style=" stroke:none;fill-rule:nonzero;fill:rgb(99.607843%,99.607843%,99.607843%);fill-opacity:1;" d="M 10.601562 6 C 10.601562 7.230469 10.117188 8.410156 9.253906 9.28125 C 8.390625 10.152344 7.21875 10.640625 6 10.640625 C 4.78125 10.640625 3.609375 10.152344 2.746094 9.28125 C 1.882812 8.410156 1.398438 7.230469 1.398438 6 C 1.398438 4.769531 1.882812 3.589844 2.746094 2.71875 C 3.609375 1.847656 4.78125 1.359375 6 1.359375 C 7.21875 1.359375 8.390625 1.847656 9.253906 2.71875 C 10.117188 3.589844 10.601562 4.769531 10.601562 6 Z M 10.601562 6 "/>
</g>
</defs>
<g id="surface1">
<use xlink:href="#surface5" mask="url(#mask0)"/>
<path style="fill:none;stroke-width:27.042999;stroke-linecap:round;stroke-linejoin:miter;stroke:rgb(7.058824%,30.19608%,78.431374%);stroke-opacity:1;stroke-miterlimit:4;" d="M 512.408854 290 C 512.408854 349.472656 488.997396 406.490885 447.272135 448.59375 C 405.546875 490.696615 348.90625 514.296875 290 514.296875 C 231.09375 514.296875 174.453125 490.696615 132.727865 448.59375 C 91.002604 406.490885 67.591146 349.472656 67.591146 290 C 67.591146 230.527344 91.002604 173.509115 132.727865 131.40625 C 174.453125 89.303385 231.09375 65.703125 290 65.703125 C 348.90625 65.703125 405.546875 89.303385 447.272135 131.40625 C 488.997396 173.509115 512.408854 230.527344 512.408854 290 Z M 512.408854 290 " transform="matrix(0.0206897,0,0,0.0206897,0,0)"/>
<path style=" stroke:none;fill-rule:nonzero;fill:rgb(0%,0%,0%);fill-opacity:1;" d="M 5.109375 4.953125 C 5.078125 4.953125 5.046875 4.976562 5.023438 5.015625 C 4.828125 5.335938 4.503906 5.464844 4.308594 5.464844 C 4.28125 5.464844 4.25 5.460938 4.222656 5.457031 C 4.175781 5.675781 4.117188 5.863281 4.058594 6.023438 C 4.148438 6.050781 4.230469 6.0625 4.308594 6.0625 C 4.53125 6.0625 4.847656 5.960938 5.113281 5.613281 C 5.378906 5.964844 5.699219 6.0625 5.921875 6.0625 C 6.148438 6.0625 6.464844 5.960938 6.730469 5.613281 C 6.996094 5.964844 7.3125 6.0625 7.539062 6.0625 C 7.648438 6.0625 7.777344 6.039062 7.914062 5.976562 C 7.847656 5.820312 7.78125 5.640625 7.726562 5.433594 C 7.660156 5.453125 7.59375 5.464844 7.539062 5.464844 C 7.339844 5.464844 7.019531 5.335938 6.820312 5.015625 C 6.796875 4.976562 6.761719 4.953125 6.730469 4.953125 C 6.699219 4.953125 6.664062 4.976562 6.640625 5.015625 C 6.441406 5.335938 6.121094 5.464844 5.921875 5.464844 C 5.726562 5.464844 5.402344 5.335938 5.203125 5.015625 C 5.179688 4.972656 5.144531 4.949219 5.109375 4.953125 Z M 5.109375 4.953125 "/>
<path style="fill:none;stroke-width:19.605499;stroke-linecap:round;stroke-linejoin:round;stroke:rgb(0%,0%,0%);stroke-opacity:1;stroke-miterlimit:4;" d="M 292.643229 452.369792 C 342.298177 418.196615 425.748698 411.966146 426.503906 333.802083 C 426.88151 298.496094 405.924479 287.545573 398.75 244.121094 C 395.351562 224.296875 413.476562 187.480469 413.476562 187.480469 L 378.736979 161.425781 C 358.157552 174.453125 319.075521 182.382812 286.41276 155.384115 C 254.69401 183.704427 215.611979 177.285156 194.277344 164.824219 L 160.670573 192.200521 C 160.670573 192.200521 180.30599 228.261719 177.66276 248.27474 C 172.1875 291.888021 151.796875 303.782552 153.684896 338.89974 C 157.460938 417.063802 241.10026 420.084635 292.076823 452.558594 " transform="matrix(0.0206897,0,0,0.0206897,0,0)"/>
<path style=" stroke:none;fill-rule:nonzero;fill:rgb(0%,0%,0%);fill-opacity:1;" d="M 5.109375 6.21875 C 5.078125 6.222656 5.046875 6.246094 5.023438 6.285156 C 4.828125 6.601562 4.503906 6.730469 4.308594 6.730469 C 4.179688 6.730469 4 6.679688 3.835938 6.554688 C 3.78125 6.695312 3.757812 6.800781 3.765625 6.980469 C 3.769531 7.042969 3.773438 7.101562 3.78125 7.160156 C 3.96875 7.289062 4.160156 7.332031 4.308594 7.332031 C 4.53125 7.332031 4.847656 7.230469 5.113281 6.882812 C 5.378906 7.230469 5.699219 7.332031 5.921875 7.332031 C 6.148438 7.332031 6.464844 7.230469 6.730469 6.882812 C 6.996094 7.230469 7.3125 7.332031 7.539062 7.332031 C 7.730469 7.332031 7.992188 7.257812 8.230469 7.015625 C 8.234375 6.976562 8.234375 6.9375 8.234375 6.898438 C 8.238281 6.707031 8.207031 6.597656 8.136719 6.441406 C 7.941406 6.648438 7.699219 6.730469 7.539062 6.730469 C 7.339844 6.730469 7.019531 6.601562 6.820312 6.285156 C 6.796875 6.242188 6.761719 6.21875 6.730469 6.21875 C 6.699219 6.21875 6.664062 6.242188 6.640625 6.285156 C 6.441406 6.601562 6.121094 6.730469 5.921875 6.730469 C 5.726562 6.730469 5.402344 6.601562 5.203125 6.285156 C 5.179688 6.242188 5.144531 6.21875 5.109375 6.21875 Z M 5.109375 6.21875 "/>
<path style=" stroke:none;fill-rule:nonzero;fill:rgb(0%,0%,0%);fill-opacity:1;" d="M 5.109375 7.449219 C 5.078125 7.453125 5.046875 7.476562 5.023438 7.515625 C 4.855469 7.789062 4.59375 7.921875 4.398438 7.957031 C 4.4375 7.976562 4.476562 8 4.519531 8.019531 C 4.664062 8.097656 4.832031 8.167969 5.007812 8.238281 C 5.042969 8.203125 5.078125 8.160156 5.113281 8.113281 C 5.210938 8.238281 5.3125 8.332031 5.414062 8.402344 C 5.523438 8.445312 5.636719 8.492188 5.75 8.542969 C 5.8125 8.554688 5.871094 8.5625 5.921875 8.5625 C 6.148438 8.5625 6.464844 8.460938 6.730469 8.113281 C 6.777344 8.175781 6.824219 8.230469 6.875 8.277344 C 7.113281 8.171875 7.335938 8.074219 7.527344 7.964844 C 7.527344 7.964844 7.527344 7.964844 7.527344 7.960938 C 7.332031 7.957031 7.015625 7.828125 6.820312 7.515625 C 6.796875 7.472656 6.761719 7.449219 6.730469 7.449219 C 6.699219 7.449219 6.664062 7.472656 6.640625 7.515625 C 6.441406 7.835938 6.121094 7.964844 5.921875 7.964844 C 5.726562 7.964844 5.402344 7.835938 5.203125 7.515625 C 5.179688 7.472656 5.144531 7.449219 5.109375 7.449219 Z M 5.109375 7.449219 "/>
</g>
</svg>
