<?xml version="1.0" encoding="UTF-8"?>
<svg xmlns="http://www.w3.org/2000/svg" xmlns:xlink="http://www.w3.org/1999/xlink" width="24" height="24" viewBox="0 0 24 24">
<path fill-rule="evenodd" fill="rgb(99.607843%, 99.607843%, 99.607843%)" fill-opacity="1" d="M 13.339844 5.535156 C 12.875 5.511719 12.394531 5.519531 11.902344 5.5625 C 8.140625 5.890625 5.886719 7.484375 4.660156 9.074219 C 4.050781 9.867188 3.6875 10.652344 3.472656 11.269531 C 3.367188 11.578125 3.300781 11.847656 3.257812 12.0625 C 3.21875 12.261719 3.195312 12.339844 3.210938 12.578125 C 3.199219 13.097656 3.289062 13.71875 3.425781 14.304688 C 3.429688 14.347656 3.429688 14.402344 3.433594 14.425781 C 3.441406 14.496094 3.453125 14.527344 3.464844 14.5625 C 3.484375 14.628906 3.503906 14.6875 3.53125 14.757812 C 3.585938 14.898438 3.667969 15.070312 3.78125 15.273438 C 4.011719 15.675781 4.375 16.191406 4.921875 16.691406 C 6.015625 17.6875 7.871094 18.578125 10.578125 18.308594 C 14.996094 17.871094 16.820312 14.746094 17.226562 14.003906 L 18.640625 14.023438 C 18.953125 14.027344 19.242188 13.851562 19.386719 13.574219 L 19.75 12.847656 C 19.839844 12.671875 19.863281 12.46875 19.8125 12.277344 C 19.953125 12.195312 20.0625 12.074219 20.136719 11.933594 L 20.875 10.449219 C 21 10.199219 20.992188 9.902344 20.847656 9.664062 L 20.847656 9.660156 C 20.816406 9.582031 20.773438 9.507812 20.722656 9.441406 C 20.621094 9.316406 20.550781 9.246094 20.53125 9.226562 L 20.527344 9.21875 C 20.636719 9.347656 20.605469 9.3125 20.519531 9.210938 C 20.507812 9.195312 20.535156 9.226562 20.519531 9.207031 C 20.457031 9.132812 20.378906 9.066406 20.292969 9.019531 C 18.699219 7.21875 16.363281 5.695312 13.339844 5.535156 Z M 13.339844 5.535156 "/>
<path fill-rule="evenodd" fill="rgb(17.647059%, 9.803922%, 37.254902%)" fill-opacity="1" d="M 13.296875 6.359375 C 12.867188 6.335938 12.429688 6.34375 11.972656 6.382812 C 4.839844 7.003906 4 12.21875 4.027344 12.554688 C 4.011719 13.027344 4.09375 13.722656 4.246094 14.292969 C 4.195312 14.304688 5.492188 17.984375 10.496094 17.488281 C 15.007812 17.042969 16.835938 13.175781 16.835938 13.175781 L 18.652344 13.199219 L 19.015625 12.476562 C 19.015625 12.476562 18.578125 12.472656 16.4375 12.480469 C 14.632812 16.632812 10.3125 17.03125 10.265625 16.953125 C 10.265625 16.953125 8.273438 17.167969 6.683594 16.257812 L 9.953125 16.226562 C 10.769531 16.222656 13.996094 15.714844 15.492188 11.566406 C 19.027344 11.566406 19.398438 11.566406 19.398438 11.566406 L 20.140625 10.082031 C 18.382812 7.417969 15.347656 6.5 13.296875 6.359375 Z M 12.96875 6.992188 C 16.632812 7.082031 18.511719 8.972656 19.136719 9.738281 L 15.386719 9.742188 C 15.300781 10.03125 14.542969 14.957031 9.707031 15.597656 C 11.550781 11.183594 12.019531 9.777344 12.019531 9.777344 L 9.074219 9.742188 L 6.546875 16.183594 C 5.800781 15.71875 5.160156 14.984375 4.890625 13.832031 C 4.050781 10.203125 8.164062 7.25 12.023438 7.011719 C 12.351562 6.988281 12.664062 6.984375 12.96875 6.992188 Z M 12.96875 6.992188 "/>
</svg>
