<?xml version="1.0" encoding="UTF-8"?>
<svg xmlns="http://www.w3.org/2000/svg" xmlns:xlink="http://www.w3.org/1999/xlink" width="48" height="48" viewBox="0 0 48 48">
<defs>
<filter id="filter-remove-color" x="0%" y="0%" width="100%" height="100%">
<feColorMatrix color-interpolation-filters="sRGB" values="0 0 0 0 1 0 0 0 0 1 0 0 0 0 1 0 0 0 1 0" />
</filter>
<mask id="mask-0">
<g filter="url(#filter-remove-color)">
<rect x="-4.8" y="-4.8" width="57.6" height="57.6" fill="rgb(0%, 0%, 0%)" fill-opacity="0.372"/>
</g>
</mask>
<clipPath id="clip-0">
<rect x="0" y="0" width="48" height="48"/>
</clipPath>
<g id="source-6" clip-path="url(#clip-0)">
<path fill-rule="nonzero" fill="rgb(89.411765%, 89.411765%, 89.411765%)" fill-opacity="1" d="M 23.070312 8.867188 C 22.332031 8.867188 21.632812 9.410156 21.535156 9.507812 C 21.359375 9.683594 21.207031 9.921875 21.175781 9.976562 C 21.066406 10.160156 20.988281 10.34375 20.9375 10.472656 C 20.832031 10.75 20.75 11.027344 20.660156 11.34375 C 20.484375 11.984375 20.292969 12.789062 20.113281 13.667969 C 19.851562 14.945312 19.617188 16.324219 19.496094 17.542969 C 18.910156 18.09375 18.542969 18.871094 18.542969 19.734375 C 18.542969 20.558594 18.875 21.304688 19.417969 21.851562 L 19.417969 31.082031 L 18.945312 31.082031 C 18.503906 31.082031 18.0625 31.261719 17.75 31.578125 C 17.4375 31.890625 17.253906 32.328125 17.253906 32.773438 L 17.253906 33.816406 C 17.253906 34.257812 17.4375 34.699219 17.75 35.011719 C 18.0625 35.324219 18.503906 35.507812 18.945312 35.507812 L 19.925781 35.507812 C 20.625 36.496094 21.777344 37.144531 23.070312 37.144531 C 24.359375 37.144531 25.511719 36.5 26.214844 35.507812 L 27.191406 35.507812 C 27.636719 35.507812 28.074219 35.324219 28.386719 35.011719 C 28.703125 34.699219 28.882812 34.257812 28.882812 33.816406 L 28.882812 32.773438 C 28.882812 32.328125 28.703125 31.890625 28.386719 31.578125 C 28.074219 31.261719 27.636719 31.082031 27.191406 31.082031 L 26.722656 31.082031 L 26.722656 21.855469 C 27.265625 21.308594 27.597656 20.558594 27.597656 19.734375 C 27.597656 18.871094 27.230469 18.09375 26.640625 17.542969 C 26.523438 16.320312 26.285156 14.9375 26.023438 13.660156 C 25.84375 12.78125 25.65625 11.976562 25.480469 11.339844 C 25.390625 11.019531 25.304688 10.738281 25.199219 10.472656 C 25.15625 10.359375 25.082031 10.171875 24.960938 9.972656 C 24.925781 9.90625 24.769531 9.671875 24.601562 9.503906 C 24.511719 9.417969 23.808594 8.867188 23.070312 8.867188 Z M 23.070312 8.867188 "/>
</g>
</defs>
<g mask="url(#mask-0)">
<use xlink:href="#source-6"/>
</g>
<path fill="none" stroke-width="17.158001" stroke-linecap="butt" stroke-linejoin="miter" stroke="rgb(0%, 0%, 0%)" stroke-opacity="1" stroke-miterlimit="4" d="M 548.719076 735.478516 C 548.719076 740.568034 547.770182 745.657552 545.786133 750.402018 C 543.802083 755.146484 540.955404 759.459635 537.332357 763.082682 C 533.623047 766.705729 529.396159 769.638672 524.651693 771.536458 C 519.907227 773.520508 514.817708 774.555664 509.641927 774.555664 C 504.552409 774.555664 499.462891 773.520508 494.718424 771.536458 C 489.973958 769.638672 485.660807 766.705729 482.03776 763.082682 C 478.414714 759.459635 475.481771 755.146484 473.497721 750.402018 C 471.599935 745.657552 470.564779 740.568034 470.564779 735.478516 C 470.564779 730.302734 471.599935 725.213216 473.497721 720.46875 C 475.481771 715.724284 478.414714 711.411133 482.03776 707.788086 C 485.660807 704.165039 489.973958 701.318359 494.718424 699.33431 C 499.462891 697.35026 504.552409 696.315104 509.641927 696.315104 C 514.817708 696.315104 519.907227 697.35026 524.651693 699.33431 C 529.396159 701.318359 533.623047 704.165039 537.332357 707.788086 C 540.955404 711.411133 543.802083 715.724284 545.786133 720.46875 C 547.770182 725.213216 548.719076 730.302734 548.719076 735.478516 Z M 548.719076 735.478516 " transform="matrix(0.045283, 0, 0, 0.045283, 0, 0)"/>
<path fill-rule="nonzero" fill="rgb(0%, 0%, 0%)" fill-opacity="1" d="M 18.953125 32.78125 L 18.953125 33.824219 L 21.539062 33.824219 L 21.539062 32.78125 Z M 24.617188 32.78125 L 24.617188 33.824219 L 27.203125 33.824219 L 27.203125 32.78125 Z M 24.617188 32.78125 "/>
<path fill="none" stroke-width="19.260099" stroke-linecap="round" stroke-linejoin="round" stroke="rgb(0%, 0%, 0%)" stroke-opacity="1" stroke-miterlimit="10" d="M 475.913086 713.740234 L 475.913086 457.19401 M 543.370768 457.19401 L 543.370768 713.740234 Z M 543.370768 457.19401 " transform="matrix(0.045283, 0, 0, 0.045283, 0, 0)"/>
<path fill="none" stroke-width="19.260099" stroke-linecap="round" stroke-linejoin="round" stroke="rgb(0%, 0%, 0%)" stroke-opacity="1" stroke-miterlimit="10" d="M 475.913086 416.477865 L 543.370768 416.477865 " transform="matrix(0.045283, 0, 0, 0.045283, 0, 0)"/>
<path fill="none" stroke-width="19.260099" stroke-linecap="round" stroke-linejoin="round" stroke="rgb(0%, 0%, 0%)" stroke-opacity="1" stroke-miterlimit="10" d="M 475.913086 416.477865 C 475.913086 367.911784 503.344727 243.00293 509.641927 243.00293 C 516.025391 243.00293 543.370768 367.394206 543.370768 416.477865 " transform="matrix(0.045283, 0, 0, 0.045283, 0, 0)"/>
<path fill="none" stroke-width="19.260099" stroke-linecap="round" stroke-linejoin="round" stroke="rgb(0%, 0%, 0%)" stroke-opacity="1" stroke-miterlimit="10" d="M 543.370768 455.46875 C 553.98112 455.46875 562.607422 446.756185 562.607422 435.973307 C 562.607422 425.19043 553.98112 416.477865 543.370768 416.477865 C 532.760417 416.477865 524.134115 425.19043 524.134115 435.973307 C 524.134115 446.756185 532.760417 455.46875 543.370768 455.46875 Z M 543.370768 455.46875 " transform="matrix(0.045283, 0, 0, 0.045283, 0, 0)"/>
<path fill="none" stroke-width="19.260099" stroke-linecap="round" stroke-linejoin="round" stroke="rgb(0%, 0%, 0%)" stroke-opacity="1" stroke-miterlimit="10" d="M 475.913086 455.46875 C 486.609701 455.46875 495.236003 446.756185 495.236003 435.973307 C 495.236003 425.19043 486.609701 416.477865 475.913086 416.477865 C 465.302734 416.477865 456.676432 425.19043 456.676432 435.973307 C 456.676432 446.756185 465.302734 455.46875 475.913086 455.46875 Z M 475.913086 455.46875 " transform="matrix(0.045283, 0, 0, 0.045283, 0, 0)"/>
</svg>
