<?xml version="1.0" encoding="UTF-8"?>
<svg xmlns="http://www.w3.org/2000/svg" xmlns:xlink="http://www.w3.org/1999/xlink" width="32" height="32" viewBox="0 0 32 32">
<path fill-rule="nonzero" fill="rgb(0%, 0%, 0%)" fill-opacity="1" d="M 11.914062 18.96875 L 10.882812 18.96875 L 9.078125 13.03125 L 10.144531 13.03125 L 11.148438 16.84375 C 11.148438 16.84375 11.179688 16.972656 11.238281 17.234375 L 11.324219 17.59375 C 11.351562 17.722656 11.378906 17.847656 11.398438 17.964844 C 11.421875 17.851562 11.449219 17.730469 11.476562 17.605469 C 11.5 17.496094 11.523438 17.375 11.554688 17.242188 L 11.648438 16.84375 L 12.648438 13.03125 L 13.707031 13.03125 Z M 11.914062 18.96875 "/>
<path fill-rule="nonzero" fill="rgb(0%, 0%, 0%)" fill-opacity="1" d="M 17.363281 18.96875 L 17.363281 16.421875 L 15.242188 16.421875 L 15.242188 18.96875 L 14.222656 18.96875 L 14.222656 13.03125 L 15.242188 13.03125 L 15.242188 15.394531 L 17.363281 15.394531 L 17.363281 13.03125 L 18.382812 13.03125 L 18.382812 18.96875 Z M 17.363281 18.96875 "/>
<path fill-rule="nonzero" fill="rgb(0%, 0%, 0%)" fill-opacity="1" d="M 20.351562 13.992188 L 20.351562 15.828125 L 22.847656 15.828125 L 22.847656 16.789062 L 20.351562 16.789062 L 20.351562 18.96875 L 19.332031 18.96875 L 19.332031 13.03125 L 22.921875 13.03125 L 22.921875 13.992188 Z M 20.351562 13.992188 "/>
</svg>
