<?xml version="1.0" encoding="UTF-8"?>
<svg xmlns="http://www.w3.org/2000/svg" xmlns:xlink="http://www.w3.org/1999/xlink" width="12" height="12" viewBox="0 0 12 12">
<path fill-rule="nonzero" fill="rgb(0%, 0%, 0%)" fill-opacity="1" d="M 3 3 C 3 1.34375 4.34375 0 6 0 C 7.65625 0 9 1.34375 9 3 L 9 9 C 9 10.65625 7.65625 12 6 12 C 4.34375 12 3 10.65625 3 9 Z M 3 3 "/>
<path fill-rule="nonzero" fill="rgb(100%, 0%, 0%)" fill-opacity="1" d="M 8 3 C 8 4.105469 7.105469 5 6 5 C 4.894531 5 4 4.105469 4 3 C 4 1.894531 4.894531 1 6 1 C 7.105469 1 8 1.894531 8 3 Z M 8 3 "/>
<path fill-rule="nonzero" fill="rgb(0%, 89.019608%, 8.627451%)" fill-opacity="1" d="M 8 9 C 8 10.105469 7.105469 11 6 11 C 4.894531 11 4 10.105469 4 9 C 4 7.894531 4.894531 7 6 7 C 7.105469 7 8 7.894531 8 9 Z M 8 9 "/>
</svg>
