<?xml version="1.0" encoding="UTF-8"?>
<svg xmlns="http://www.w3.org/2000/svg" xmlns:xlink="http://www.w3.org/1999/xlink" width="32" height="32" viewBox="0 0 32 32">
<defs>
<filter id="filter-remove-color" x="0%" y="0%" width="100%" height="100%">
<feColorMatrix color-interpolation-filters="sRGB" values="0 0 0 0 1 0 0 0 0 1 0 0 0 0 1 0 0 0 1 0" />
</filter>
<mask id="mask-0">
<g filter="url(#filter-remove-color)">
<rect x="-3.2" y="-3.2" width="38.4" height="38.4" fill="rgb(0%, 0%, 0%)" fill-opacity="0.561265"/>
</g>
</mask>
<clipPath id="clip-0">
<rect x="0" y="0" width="32" height="32"/>
</clipPath>
<g id="source-6" clip-path="url(#clip-0)">
<path fill-rule="nonzero" fill="rgb(99.607843%, 99.607843%, 99.607843%)" fill-opacity="1" d="M 16 10.667969 C 13.070312 10.667969 10.667969 13.070312 10.667969 16 C 10.667969 18.929688 13.070312 21.332031 16 21.332031 C 18.929688 21.332031 21.332031 18.929688 21.332031 16 C 21.332031 13.070312 18.929688 10.667969 16 10.667969 Z M 16 10.667969 "/>
</g>
</defs>
<g mask="url(#mask-0)">
<use xlink:href="#source-6"/>
</g>
<path fill-rule="nonzero" fill="rgb(97.254902%, 0%, 87.843137%)" fill-opacity="1" d="M 18.667969 16 C 18.667969 16.707031 18.386719 17.386719 17.886719 17.886719 C 17.386719 18.386719 16.707031 18.667969 16 18.667969 C 15.292969 18.667969 14.613281 18.386719 14.113281 17.886719 C 13.613281 17.386719 13.332031 16.707031 13.332031 16 C 13.332031 15.292969 13.613281 14.613281 14.113281 14.113281 C 14.613281 13.613281 15.292969 13.332031 16 13.332031 C 16.707031 13.332031 17.386719 13.613281 17.886719 14.113281 C 18.386719 14.613281 18.667969 15.292969 18.667969 16 Z M 18.667969 16 "/>
</svg>
