<?xml version="1.0" encoding="UTF-8"?>
<svg xmlns="http://www.w3.org/2000/svg" xmlns:xlink="http://www.w3.org/1999/xlink" width="12" height="12" viewBox="0 0 12 12" version="1.1">
<defs>
<filter id="alpha" filterUnits="objectBoundingBox" x="0%" y="0%" width="100%" height="100%">
  <feColorMatrix type="matrix" in="SourceGraphic" values="0 0 0 0 1 0 0 0 0 1 0 0 0 0 1 0 0 0 1 0"/>
</filter>
<mask id="mask0">
  <g filter="url(#alpha)">
<rect x="0" y="0" width="12" height="12" style="fill:rgb(0%,0%,0%);fill-opacity:0.612;stroke:none;"/>
  </g>
</mask>
<clipPath id="clip1">
  <rect x="0" y="0" width="12" height="12"/>
</clipPath>
<g id="surface5" clip-path="url(#clip1)">
<path style="fill:none;stroke-width:10;stroke-linecap:butt;stroke-linejoin:miter;stroke:rgb(21.568628%,21.568628%,21.568628%);stroke-opacity:1;stroke-miterlimit:4;" d="M 55.208333 55 L 265.208333 55 L 265.208333 265.208333 L 55.208333 265.208333 Z M 55.208333 55 " transform="matrix(0.0375,0,0,0.0375,0,0)"/>
</g>
</defs>
<g id="surface1">
<path style=" stroke:none;fill-rule:nonzero;fill:rgb(100%,0%,0%);fill-opacity:1;" d="M 9.757812 2.242188 L 2.242188 2.242188 L 2.242188 9.757812 L 9.757812 9.757812 Z M 9.757812 2.242188 "/>
<path style=" stroke:none;fill-rule:nonzero;fill:rgb(83.92157%,83.92157%,83.92157%);fill-opacity:1;" d="M 9 3 L 3 3 L 3 9 L 9 9 Z M 9 3 "/>
<use xlink:href="#surface5" mask="url(#mask0)"/>
<path style="fill:none;stroke-width:24.200001;stroke-linecap:butt;stroke-linejoin:miter;stroke:rgb(100%,0%,0%);stroke-opacity:1;stroke-miterlimit:4;" d="M 70 70 L 250 250 " transform="matrix(0.0375,0,0,0.0375,0,0)"/>
</g>
</svg>
