<?xml version="1.0" encoding="UTF-8"?>
<svg xmlns="http://www.w3.org/2000/svg" xmlns:xlink="http://www.w3.org/1999/xlink" width="48" height="48" viewBox="0 0 48 48">
<defs>
<filter id="filter-remove-color" x="0%" y="0%" width="100%" height="100%">
<feColorMatrix color-interpolation-filters="sRGB" values="0 0 0 0 1 0 0 0 0 1 0 0 0 0 1 0 0 0 1 0" />
</filter>
<mask id="mask-0">
<g filter="url(#filter-remove-color)">
<rect x="-4.8" y="-4.8" width="57.6" height="57.6" fill="rgb(0%, 0%, 0%)" fill-opacity="0.873134"/>
</g>
</mask>
<clipPath id="clip-0">
<path clip-rule="nonzero" d="M 0 11 L 30 11 L 30 20 L 0 20 Z M 0 11 "/>
</clipPath>
<clipPath id="clip-1">
<rect x="0" y="0" width="48" height="48"/>
</clipPath>
<g id="source-7" clip-path="url(#clip-1)">
<g clip-path="url(#clip-0)">
<path fill-rule="nonzero" fill="rgb(67.45098%, 84.705882%, 95.294118%)" fill-opacity="1" d="M 26.328125 11.515625 C 25.285156 11.515625 24.242188 11.84375 23.484375 12.542969 C 23.371094 12.414062 23.25 12.292969 23.109375 12.191406 C 23.109375 12.191406 23.105469 12.191406 23.105469 12.191406 C 22.414062 11.691406 21.667969 11.601562 20.878906 11.601562 L 19.007812 11.601562 C 18.640625 11.601562 18.285156 11.738281 18.015625 11.988281 C 17.746094 12.238281 17.582031 12.582031 17.554688 12.949219 C 17.109375 12.78125 16.636719 12.703125 16.171875 12.703125 C 15.679688 12.703125 15.175781 12.792969 14.710938 12.976562 C 14.523438 12.851562 14.304688 12.769531 14.078125 12.738281 C 14.003906 12.730469 13.929688 12.722656 13.84375 12.71875 L 13.84375 12.714844 C 13.824219 12.714844 13.8125 12.714844 13.796875 12.714844 C 13.785156 12.710938 13.78125 12.710938 13.773438 12.710938 C 13.703125 12.707031 13.632812 12.703125 13.578125 12.703125 C 13.300781 12.703125 13.011719 12.742188 12.726562 12.828125 C 12.617188 12.800781 12.503906 12.789062 12.390625 12.789062 L 11.25 12.789062 C 10.894531 12.789062 10.550781 12.921875 10.28125 13.160156 C 9.75 12.855469 9.132812 12.703125 8.542969 12.703125 C 7.714844 12.703125 6.863281 12.949219 6.214844 13.496094 L 5.863281 12.554688 C 5.761719 12.273438 5.574219 12.03125 5.328125 11.863281 C 5.085938 11.691406 4.792969 11.601562 4.496094 11.601562 L 3.035156 11.601562 C 2.734375 11.601562 2.445312 11.691406 2.199219 11.863281 C 1.957031 12.03125 1.769531 12.273438 1.664062 12.554688 L -0.09375 17.304688 C -0.175781 17.527344 -0.203125 17.765625 -0.171875 17.996094 C -0.144531 18.230469 -0.0585938 18.453125 0.078125 18.648438 C 0.210938 18.839844 0.390625 18.996094 0.597656 19.105469 C 0.808594 19.214844 1.039062 19.273438 1.273438 19.273438 L 2.503906 19.273438 C 2.757812 19.273438 3.007812 19.203125 3.230469 19.078125 C 3.449219 18.949219 3.632812 18.769531 3.761719 18.550781 C 3.890625 18.769531 4.074219 18.953125 4.296875 19.078125 C 4.519531 19.207031 4.769531 19.273438 5.023438 19.273438 L 6.257812 19.273438 C 6.523438 19.273438 6.785156 19.199219 7.011719 19.058594 C 7.511719 19.273438 8.0625 19.367188 8.605469 19.367188 C 8.972656 19.367188 9.332031 19.328125 9.6875 19.257812 C 9.691406 19.257812 9.691406 19.257812 9.695312 19.257812 C 9.960938 19.207031 10.21875 19.132812 10.476562 19.046875 C 10.707031 19.195312 10.976562 19.273438 11.25 19.273438 L 12.390625 19.273438 C 12.664062 19.273438 12.933594 19.195312 13.164062 19.050781 C 13.398438 18.902344 13.585938 18.695312 13.703125 18.449219 C 13.707031 18.453125 13.710938 18.460938 13.714844 18.464844 C 13.71875 18.464844 13.71875 18.464844 13.71875 18.46875 C 14.378906 19.09375 15.292969 19.367188 16.171875 19.367188 C 16.808594 19.367188 17.464844 19.21875 18.03125 18.894531 C 18.300781 19.136719 18.648438 19.273438 19.007812 19.273438 L 20.234375 19.273438 C 20.550781 19.269531 20.859375 19.167969 21.113281 18.972656 C 21.367188 19.167969 21.675781 19.273438 21.996094 19.273438 L 23.300781 19.273438 C 23.664062 19.273438 24.011719 19.136719 24.28125 18.890625 C 24.902344 19.210938 25.613281 19.367188 26.328125 19.367188 C 26.703125 19.367188 27.074219 19.324219 27.4375 19.234375 C 27.796875 19.148438 28.140625 19.015625 28.46875 18.847656 C 28.703125 18.722656 28.902344 18.539062 29.042969 18.308594 C 29.179688 18.082031 29.253906 17.820312 29.253906 17.554688 L 29.253906 16.570312 C 29.253906 16.351562 29.207031 16.140625 29.113281 15.945312 C 29.019531 15.75 28.886719 15.578125 28.71875 15.441406 C 28.886719 15.304688 29.019531 15.132812 29.113281 14.9375 C 29.207031 14.742188 29.253906 14.527344 29.253906 14.3125 L 29.253906 13.328125 C 29.253906 13.058594 29.179688 12.796875 29.042969 12.570312 C 28.902344 12.339844 28.703125 12.15625 28.46875 12.03125 C 28.140625 11.863281 27.796875 11.730469 27.4375 11.644531 C 27.074219 11.554688 26.703125 11.515625 26.328125 11.515625 Z M 20.234375 14.050781 L 20.234375 15.0625 C 20.050781 14.828125 20.007812 14.582031 20.007812 14.554688 C 20.007812 14.527344 20.046875 14.28125 20.234375 14.050781 Z M 26.484375 15.328125 C 26.550781 15.335938 26.613281 15.339844 26.671875 15.359375 C 26.714844 15.371094 26.777344 15.402344 26.847656 15.441406 C 26.777344 15.476562 26.714844 15.507812 26.671875 15.523438 C 26.613281 15.539062 26.550781 15.546875 26.484375 15.550781 C 26.484375 15.519531 26.476562 15.507812 26.476562 15.441406 C 26.476562 15.371094 26.484375 15.363281 26.484375 15.328125 Z M 16.171875 15.632812 C 16.269531 15.632812 16.640625 15.78125 16.765625 15.949219 L 16.660156 16.027344 L 16.171875 15.671875 L 16.65625 16.03125 L 16.652344 16.035156 L 16.171875 16.390625 L 16.160156 16.398438 L 15.664062 16.035156 L 15.5625 15.960938 C 15.675781 15.804688 15.988281 15.667969 16.125 15.640625 C 16.125 15.640625 16.128906 15.640625 16.128906 15.640625 C 16.140625 15.640625 16.160156 15.632812 16.171875 15.632812 Z M 7.761719 15.644531 L 8.535156 15.757812 L 8.9375 15.816406 C 9.011719 15.878906 9.066406 15.957031 9.101562 16.027344 C 9.070312 16.082031 9.03125 16.140625 8.972656 16.191406 C 8.960938 16.203125 8.945312 16.210938 8.933594 16.222656 L 8.535156 16.261719 L 8.234375 16.292969 C 8.136719 16.25 8.042969 16.195312 7.976562 16.125 C 7.832031 15.972656 7.765625 15.714844 7.761719 15.644531 Z M 15.554688 15.964844 L 15.652344 16.035156 L 16.15625 16.398438 L 16.125 16.425781 C 15.984375 16.402344 15.675781 16.261719 15.558594 16.105469 C 15.53125 16.066406 15.53125 16.058594 15.519531 16.035156 C 15.53125 16.007812 15.53125 16.003906 15.554688 15.964844 Z M 16.777344 15.964844 C 16.800781 16.003906 16.800781 16.007812 16.8125 16.035156 C 16.800781 16.0625 16.800781 16.070312 16.769531 16.109375 L 16.675781 16.039062 L 16.679688 16.035156 Z M 16.671875 16.042969 L 16.769531 16.113281 C 16.652344 16.269531 16.328125 16.40625 16.203125 16.429688 L 16.171875 16.402344 Z M 16.167969 16.40625 C 16.179688 16.414062 16.214844 16.4375 16.199219 16.429688 C 16.191406 16.429688 16.175781 16.4375 16.171875 16.4375 C 16.164062 16.4375 16.144531 16.429688 16.136719 16.429688 Z M 16.167969 16.40625 "/>
</g>
</g>
</defs>
<g mask="url(#mask-0)">
<use xlink:href="#source-7"/>
</g>
<path fill-rule="nonzero" fill="rgb(0%, 0%, 0%)" fill-opacity="1" d="M 26.328125 12.972656 C 25.535156 12.972656 24.910156 13.195312 24.445312 13.640625 C 23.984375 14.082031 23.753906 14.679688 23.753906 15.441406 C 23.753906 16.199219 23.984375 16.800781 24.445312 17.246094 C 24.910156 17.6875 25.535156 17.90625 26.328125 17.90625 C 26.59375 17.90625 26.847656 17.875 27.09375 17.816406 C 27.335938 17.757812 27.570312 17.667969 27.796875 17.554688 L 27.796875 16.570312 C 27.566406 16.722656 27.34375 16.835938 27.125 16.910156 C 26.902344 16.980469 26.671875 17.019531 26.425781 17.019531 C 25.988281 17.019531 25.644531 16.878906 25.394531 16.597656 C 25.144531 16.316406 25.019531 15.933594 25.019531 15.441406 C 25.019531 14.949219 25.144531 14.5625 25.394531 14.28125 C 25.644531 14.003906 25.988281 13.863281 26.425781 13.863281 C 26.671875 13.863281 26.902344 13.898438 27.125 13.972656 C 27.34375 14.042969 27.566406 14.15625 27.796875 14.3125 L 27.796875 13.328125 C 27.570312 13.210938 27.335938 13.121094 27.09375 13.0625 C 26.847656 13.003906 26.59375 12.972656 26.328125 12.972656 Z M 3.035156 13.058594 L 1.273438 17.8125 L 2.503906 17.8125 L 2.808594 16.945312 L 4.726562 16.945312 L 5.023438 17.8125 L 6.257812 17.8125 L 4.496094 13.058594 Z M 19.007812 13.058594 L 19.007812 17.8125 L 20.234375 17.8125 L 20.234375 16.015625 L 20.582031 16.015625 C 20.78125 16.015625 20.9375 16.058594 21.058594 16.144531 C 21.179688 16.230469 21.296875 16.394531 21.414062 16.632812 L 21.996094 17.8125 L 23.300781 17.8125 L 22.632812 16.464844 C 22.5 16.1875 22.363281 15.984375 22.230469 15.851562 C 22.097656 15.714844 21.949219 15.628906 21.78125 15.589844 C 22.085938 15.496094 22.316406 15.347656 22.464844 15.144531 C 22.617188 14.945312 22.695312 14.6875 22.695312 14.371094 C 22.695312 13.917969 22.546875 13.585938 22.253906 13.375 C 21.964844 13.164062 21.507812 13.058594 20.878906 13.058594 Z M 20.234375 13.949219 L 20.75 13.949219 C 21.007812 13.949219 21.191406 13.996094 21.300781 14.089844 C 21.414062 14.183594 21.46875 14.335938 21.46875 14.554688 C 21.46875 14.769531 21.414062 14.929688 21.300781 15.023438 C 21.191406 15.121094 21.007812 15.167969 20.75 15.167969 L 20.234375 15.167969 Z M 8.542969 14.164062 C 7.925781 14.164062 7.441406 14.328125 7.089844 14.660156 C 6.738281 14.996094 6.566406 15.453125 6.566406 16.035156 C 6.566406 16.625 6.742188 17.085938 7.097656 17.414062 C 7.457031 17.742188 7.960938 17.90625 8.605469 17.90625 C 8.875 17.90625 9.144531 17.878906 9.414062 17.824219 C 9.683594 17.773438 9.953125 17.699219 10.222656 17.597656 L 10.222656 16.71875 C 9.957031 16.863281 9.699219 16.972656 9.445312 17.042969 C 9.195312 17.113281 8.953125 17.148438 8.710938 17.148438 C 8.414062 17.148438 8.183594 17.082031 8.015625 16.945312 C 7.851562 16.8125 7.753906 16.613281 7.726562 16.347656 L 10.390625 16.347656 L 10.390625 16.023438 C 10.390625 15.457031 10.222656 15.003906 9.886719 14.667969 C 9.550781 14.328125 9.101562 14.164062 8.542969 14.164062 Z M 13.578125 14.164062 C 13.3125 14.164062 13.085938 14.214844 12.894531 14.324219 C 12.707031 14.429688 12.539062 14.597656 12.390625 14.832031 L 12.390625 14.246094 L 11.25 14.246094 L 11.25 17.8125 L 12.390625 17.8125 L 12.390625 16.171875 C 12.390625 15.820312 12.46875 15.550781 12.625 15.363281 C 12.785156 15.175781 13.011719 15.082031 13.304688 15.082031 C 13.40625 15.082031 13.503906 15.09375 13.601562 15.117188 C 13.703125 15.140625 13.800781 15.171875 13.902344 15.21875 L 13.898438 14.1875 C 13.8125 14.175781 13.75 14.171875 13.703125 14.167969 C 13.660156 14.164062 13.617188 14.164062 13.578125 14.164062 Z M 16.171875 14.164062 C 15.554688 14.164062 15.074219 14.328125 14.726562 14.660156 C 14.378906 14.988281 14.207031 15.449219 14.207031 16.035156 C 14.207031 16.621094 14.378906 17.078125 14.726562 17.410156 C 15.074219 17.742188 15.554688 17.90625 16.171875 17.90625 C 16.785156 17.90625 17.261719 17.742188 17.605469 17.410156 C 17.953125 17.078125 18.125 16.621094 18.125 16.035156 C 18.125 15.449219 17.953125 14.988281 17.605469 14.660156 C 17.261719 14.328125 16.785156 14.164062 16.171875 14.164062 Z M 3.765625 14.175781 L 4.414062 16.066406 L 3.113281 16.066406 Z M 8.535156 14.917969 C 8.738281 14.917969 8.90625 14.988281 9.03125 15.121094 C 9.15625 15.25 9.222656 15.425781 9.222656 15.640625 L 7.738281 15.640625 C 7.773438 15.410156 7.859375 15.230469 8 15.109375 C 8.136719 14.980469 8.316406 14.917969 8.535156 14.917969 Z M 16.171875 14.976562 C 16.417969 14.976562 16.609375 15.066406 16.742188 15.25 C 16.871094 15.429688 16.9375 15.691406 16.9375 16.035156 C 16.9375 16.375 16.871094 16.636719 16.742188 16.820312 C 16.609375 17 16.417969 17.089844 16.171875 17.089844 C 15.917969 17.089844 15.726562 17 15.589844 16.820312 C 15.460938 16.636719 15.394531 16.375 15.394531 16.035156 C 15.394531 15.691406 15.460938 15.429688 15.589844 15.25 C 15.726562 15.066406 15.917969 14.976562 16.171875 14.976562 Z M 16.171875 14.976562 "/>
</svg>
