<?xml version="1.0" encoding="UTF-8"?>
<svg xmlns="http://www.w3.org/2000/svg" xmlns:xlink="http://www.w3.org/1999/xlink" width="12" height="12" viewBox="0 0 12 12" version="1.1">
<defs>
<filter id="alpha" filterUnits="objectBoundingBox" x="0%" y="0%" width="100%" height="100%">
  <feColorMatrix type="matrix" in="SourceGraphic" values="0 0 0 0 1 0 0 0 0 1 0 0 0 0 1 0 0 0 1 0"/>
</filter>
<mask id="mask0">
  <g filter="url(#alpha)">
<rect x="0" y="0" width="12" height="12" style="fill:rgb(0%,0%,0%);fill-opacity:0.43913;stroke:none;"/>
  </g>
</mask>
<clipPath id="clip1">
  <rect x="0" y="0" width="12" height="12"/>
</clipPath>
<g id="surface5" clip-path="url(#clip1)">
<path style=" stroke:none;fill-rule:nonzero;fill:rgb(67.450982%,84.705883%,95.294118%);fill-opacity:1;" d="M 6.03125 0.640625 C 5.964844 0.636719 5.894531 0.671875 5.859375 0.730469 L 5.210938 1.777344 C 5.175781 1.835938 5.175781 1.910156 5.207031 1.972656 C 5.242188 2.03125 5.308594 2.070312 5.378906 2.070312 L 5.589844 2.070312 L 5.191406 2.710938 C 5.15625 2.769531 5.15625 2.847656 5.1875 2.90625 C 5.222656 2.96875 5.289062 3.007812 5.359375 3.007812 L 5.664062 3.007812 L 5.664062 5.851562 C 5.664062 5.902344 5.6875 5.949219 5.722656 5.988281 C 5.757812 6.023438 5.808594 6.042969 5.859375 6.042969 L 6.140625 6.042969 C 6.191406 6.042969 6.242188 6.023438 6.277344 5.988281 C 6.316406 5.949219 6.335938 5.902344 6.335938 5.851562 L 6.335938 3.007812 L 6.621094 3.007812 C 6.691406 3.007812 6.757812 2.96875 6.789062 2.910156 C 6.824219 2.851562 6.824219 2.773438 6.789062 2.714844 L 6.410156 2.070312 L 6.640625 2.070312 C 6.710938 2.070312 6.777344 2.03125 6.808594 1.972656 C 6.84375 1.914062 6.84375 1.835938 6.808594 1.777344 L 6.191406 0.734375 C 6.15625 0.679688 6.097656 0.640625 6.03125 0.640625 Z M 6.03125 0.640625 "/>
</g>
</defs>
<g id="surface1">
<use xlink:href="#surface5" mask="url(#mask0)"/>
<path style=" stroke:none;fill-rule:nonzero;fill:rgb(0%,0%,0%);fill-opacity:1;" d="M 5.367188 1.878906 L 6.632812 1.878906 L 6.015625 0.835938 "/>
<path style="fill:none;stroke-width:23.3538;stroke-linecap:butt;stroke-linejoin:miter;stroke:rgb(0%,0%,0%);stroke-opacity:1;stroke-miterlimit:4;" d="M 530 514.472656 L 530 125.598958 " transform="matrix(0.0113208,0,0,0.0113208,0,0)"/>
<path style=" stroke:none;fill-rule:nonzero;fill:rgb(0%,0%,0%);fill-opacity:1;" d="M 5.367188 2.816406 L 6.632812 2.816406 L 6.015625 1.773438 "/>
</g>
</svg>
