<?xml version="1.0" encoding="UTF-8"?>
<svg xmlns="http://www.w3.org/2000/svg" xmlns:xlink="http://www.w3.org/1999/xlink" width="24" height="24" viewBox="0 0 24 24">
<path fill-rule="nonzero" fill="rgb(0%, 0%, 0%)" fill-opacity="1" d="M 8.535156 7.144531 C 8.214844 7.144531 7.921875 7.429688 7.921875 7.742188 L 7.921875 16.519531 C 7.921875 16.832031 8.214844 17.117188 8.535156 17.117188 L 9.679688 17.117188 C 10.003906 17.117188 10.292969 16.832031 10.292969 16.519531 L 10.292969 13.546875 L 12.5 13.546875 C 13.8125 13.546875 14.855469 13.28125 15.496094 12.570312 C 16.0625 11.945312 16.351562 11.148438 16.351562 10.28125 C 16.351562 9.765625 16.246094 9.273438 16.03125 8.828125 C 15.820312 8.390625 15.523438 8.015625 15.140625 7.75 C 14.769531 7.488281 14.324219 7.324219 13.828125 7.238281 C 13.824219 7.238281 13.824219 7.234375 13.820312 7.234375 C 13.449219 7.167969 12.988281 7.144531 12.398438 7.144531 Z M 10.292969 9.375 L 12.492188 9.375 C 12.988281 9.375 13.335938 9.417969 13.394531 9.433594 C 13.394531 9.433594 13.398438 9.433594 13.398438 9.433594 C 13.5625 9.480469 13.664062 9.554688 13.773438 9.710938 C 13.882812 9.863281 13.945312 10.046875 13.945312 10.316406 C 13.945312 10.703125 13.847656 10.898438 13.675781 11.054688 C 13.542969 11.171875 13.175781 11.316406 12.515625 11.316406 L 10.292969 11.316406 Z M 10.292969 9.375 "/>
</svg>
