<?xml version="1.0" encoding="UTF-8"?>
<svg xmlns="http://www.w3.org/2000/svg" xmlns:xlink="http://www.w3.org/1999/xlink" width="12" height="12" viewBox="0 0 12 12" version="1.1">
<defs>
<filter id="alpha" filterUnits="objectBoundingBox" x="0%" y="0%" width="100%" height="100%">
  <feColorMatrix type="matrix" in="SourceGraphic" values="0 0 0 0 1 0 0 0 0 1 0 0 0 0 1 0 0 0 1 0"/>
</filter>
<mask id="mask0">
  <g filter="url(#alpha)">
<rect x="0" y="0" width="12" height="12" style="fill:rgb(0%,0%,0%);fill-opacity:0.426087;stroke:none;"/>
  </g>
</mask>
<clipPath id="clip1">
  <rect x="0" y="0" width="12" height="12"/>
</clipPath>
<g id="surface5" clip-path="url(#clip1)">
<path style=" stroke:none;fill-rule:nonzero;fill:rgb(67.450982%,84.705883%,95.294118%);fill-opacity:1;" d="M 5.527344 0.679688 C 5.464844 0.679688 5.402344 0.707031 5.355469 0.75 C 5.3125 0.796875 5.285156 0.859375 5.285156 0.921875 L 5.285156 2.105469 C 5.285156 2.167969 5.3125 2.230469 5.355469 2.277344 C 5.402344 2.320312 5.464844 2.347656 5.527344 2.347656 L 5.617188 2.347656 L 5.617188 5.765625 C 5.617188 5.828125 5.644531 5.890625 5.6875 5.9375 C 5.734375 5.980469 5.796875 6.007812 5.859375 6.007812 L 6.144531 6.007812 C 6.207031 6.007812 6.269531 5.980469 6.316406 5.9375 C 6.359375 5.890625 6.386719 5.828125 6.386719 5.765625 L 6.386719 2.347656 L 6.472656 2.347656 C 6.535156 2.347656 6.597656 2.320312 6.644531 2.277344 C 6.6875 2.230469 6.714844 2.167969 6.714844 2.105469 L 6.714844 0.921875 C 6.714844 0.859375 6.6875 0.796875 6.644531 0.75 C 6.597656 0.707031 6.535156 0.679688 6.472656 0.679688 Z M 5.527344 0.679688 "/>
</g>
</defs>
<g id="surface1">
<use xlink:href="#surface5" mask="url(#mask0)"/>
<path style="fill:none;stroke-width:25;stroke-linecap:butt;stroke-linejoin:miter;stroke:rgb(0%,0%,0%);stroke-opacity:1;stroke-miterlimit:4;" d="M 530 510.677083 L 530 127.324219 " transform="matrix(0.0113208,0,0,0.0113208,0,0)"/>
<path style=" stroke:none;fill-rule:nonzero;fill:rgb(0%,0%,0%);fill-opacity:1;" d="M 6.472656 0.921875 L 5.527344 0.921875 L 5.527344 2.105469 L 6.472656 2.105469 Z M 6.472656 0.921875 "/>
</g>
</svg>
