<?xml version="1.0" encoding="UTF-8"?>
<svg xmlns="http://www.w3.org/2000/svg" xmlns:xlink="http://www.w3.org/1999/xlink" width="12" height="12" viewBox="0 0 12 12" version="1.1">
<g id="surface1">
<path style=" stroke:none;fill-rule:nonzero;fill:rgb(99.607843%,99.607843%,99.607843%);fill-opacity:1;" d="M 6.007812 2.785156 C 4.234375 2.785156 2.785156 4.234375 2.785156 6.015625 C 2.785156 7.78125 4.234375 9.214844 6.007812 9.214844 C 7.777344 9.214844 9.214844 7.785156 9.214844 6.015625 C 9.214844 4.230469 7.726562 2.785156 6.007812 2.785156 Z M 6.007812 2.785156 "/>
<path style=" stroke:none;fill-rule:nonzero;fill:rgb(7.843138%,28.235295%,61.960787%);fill-opacity:1;" d="M 8.804688 6.015625 C 8.804688 4.457031 7.5 3.195312 6.007812 3.195312 C 4.457031 3.195312 3.195312 4.457031 3.195312 6.015625 C 3.195312 7.558594 4.457031 8.804688 6.007812 8.804688 C 7.558594 8.804688 8.804688 7.5625 8.804688 6.015625 Z M 8.804688 6.015625 "/>
<path style=" stroke:none;fill-rule:nonzero;fill:rgb(99.607843%,99.607843%,99.607843%);fill-opacity:1;" d="M 8.417969 6.015625 C 8.417969 7.332031 7.332031 8.433594 6.007812 8.433594 C 4.675781 8.433594 3.582031 7.347656 3.582031 6.015625 C 3.582031 4.675781 4.675781 3.566406 6.007812 3.566406 C 7.332031 3.566406 8.417969 4.679688 8.417969 6.015625 Z M 8.417969 6.015625 "/>
<path style=" stroke:none;fill-rule:nonzero;fill:rgb(7.843138%,28.235295%,61.960787%);fill-opacity:1;" d="M 7.394531 7.253906 L 7.394531 4.808594 C 7.394531 4.667969 7.320312 4.519531 7.085938 4.519531 C 6.910156 4.519531 6.839844 4.597656 6.765625 4.75 L 6.007812 6.328125 L 6 6.328125 L 5.234375 4.75 C 5.160156 4.597656 5.089844 4.519531 4.914062 4.519531 C 4.679688 4.519531 4.605469 4.667969 4.605469 4.808594 L 4.605469 7.253906 C 4.605469 7.390625 4.710938 7.464844 4.835938 7.464844 C 4.949219 7.464844 5.074219 7.390625 5.074219 7.253906 L 5.074219 5.433594 L 5.082031 5.433594 L 5.777344 6.847656 C 5.824219 6.945312 5.886719 7.003906 6 7.003906 C 6.113281 7.003906 6.175781 6.945312 6.222656 6.847656 L 6.917969 5.433594 L 6.925781 5.433594 L 6.925781 7.253906 C 6.925781 7.390625 7.050781 7.464844 7.164062 7.464844 C 7.289062 7.464844 7.394531 7.390625 7.394531 7.253906 Z M 7.394531 7.253906 "/>
</g>
</svg>
