<?xml version="1.0" encoding="UTF-8"?>
<svg xmlns="http://www.w3.org/2000/svg" xmlns:xlink="http://www.w3.org/1999/xlink" width="12" height="12" viewBox="0 0 12 12" version="1.1">
<defs>
<filter id="alpha" filterUnits="objectBoundingBox" x="0%" y="0%" width="100%" height="100%">
  <feColorMatrix type="matrix" in="SourceGraphic" values="0 0 0 0 1 0 0 0 0 1 0 0 0 0 1 0 0 0 1 0"/>
</filter>
<mask id="mask0">
  <g filter="url(#alpha)">
<rect x="0" y="0" width="12" height="12" style="fill:rgb(0%,0%,0%);fill-opacity:0.612;stroke:none;"/>
  </g>
</mask>
<clipPath id="clip1">
  <rect x="0" y="0" width="12" height="12"/>
</clipPath>
<g id="surface5" clip-path="url(#clip1)">
<path style=" stroke:none;fill-rule:nonzero;fill:rgb(21.568628%,21.568628%,21.568628%);fill-opacity:1;" d="M 4.070312 3.609375 L 3.9375 3.742188 L 1.871094 5.816406 L 1.738281 5.949219 L 1.871094 6.078125 L 3.941406 8.152344 L 4.074219 8.285156 L 4.207031 8.152344 L 5.980469 6.375 L 7.761719 8.152344 L 7.894531 8.285156 L 8.027344 8.152344 L 10.097656 6.078125 L 10.234375 5.945312 L 10.097656 5.8125 L 8.023438 3.742188 L 7.890625 3.609375 L 7.757812 3.742188 L 5.976562 5.511719 L 4.203125 3.742188 Z M 4.070312 4.140625 L 5.683594 5.75 L 5.484375 5.949219 L 5.617188 6.078125 L 5.683594 6.144531 L 4.074219 7.753906 L 2.269531 5.949219 Z M 7.890625 4.140625 L 9.699219 5.949219 L 7.894531 7.753906 L 6.289062 6.144531 L 6.488281 5.945312 L 6.289062 5.746094 Z M 7.890625 4.140625 "/>
</g>
</defs>
<g id="surface1">
<use xlink:href="#surface5" mask="url(#mask0)"/>
<path style=" stroke:none;fill-rule:nonzero;fill:rgb(100%,91.764706%,0%);fill-opacity:1;" d="M 7.890625 4.011719 L 9.824219 5.949219 L 7.890625 7.882812 Z M 7.890625 4.011719 "/>
<path style=" stroke:none;fill-rule:nonzero;fill:rgb(100%,91.764706%,0%);fill-opacity:1;" d="M 4.070312 4.011719 L 6.003906 5.949219 L 4.070312 7.882812 Z M 4.070312 4.011719 "/>
<path style=" stroke:none;fill-rule:nonzero;fill:rgb(100%,91.764706%,0%);fill-opacity:1;" d="M 7.890625 4.011719 L 5.957031 5.949219 L 7.890625 7.882812 Z M 7.890625 4.011719 "/>
<path style=" stroke:none;fill-rule:nonzero;fill:rgb(100%,91.764706%,0%);fill-opacity:1;" d="M 4.070312 4.011719 L 2.136719 5.949219 L 4.070312 7.882812 Z M 4.070312 4.011719 "/>
</g>
</svg>
