<svg width="64" height="64" viewBox="0 0 1060 1060" fill="none" xmlns="http://www.w3.org/2000/svg">
<path d="M461.057 457.155C474.434 457.155 485.279 446.31 485.279 432.932C485.279 419.554 474.434 408.709 461.057 408.709C447.679 408.709 436.834 419.554 436.834 432.932C436.834 446.31 447.679 457.155 461.057 457.155Z" fill="#930093"/>
<path d="M485.279 476.533H436.834V573.423H485.279V476.533Z" fill="#930093"/>
<path d="M427.299 564.585V495.438C427.299 484.572 435.98 475.682 446.589 475.682H475.525C486.135 475.682 494.816 484.572 494.816 495.438V564.585" stroke="#930093" stroke-width="19.8444"/>
<path d="M446.523 641.246V554.045" stroke="#930093" stroke-width="20.089"/>
<path d="M475.591 641.246V554.045" stroke="#930093" stroke-width="20.089"/>
<path d="M587.015 457.155C600.392 457.155 611.237 446.31 611.237 432.932C611.237 419.554 600.392 408.709 587.015 408.709C573.637 408.709 562.792 419.554 562.792 432.932C562.792 446.31 573.637 457.155 587.015 457.155Z" fill="#930093"/>
<path d="M543.414 583.112L568.606 476.533H605.424L630.615 583.112H543.414Z" fill="#930093"/>
<path d="M530.534 564.774L557.234 488.389C560.315 480.453 567.503 475.493 575.718 475.493H598.31C606.525 475.493 614.741 480.453 616.794 488.389L643.494 564.774" stroke="#930093" stroke-width="17.9202"/>
<path d="M572.48 641.246V554.045" stroke="#930093" stroke-width="20.089"/>
<path d="M601.548 641.246V554.045" stroke="#930093" stroke-width="20.089"/>
</svg>
