<svg width="32" height="32" viewBox="0 0 16 16" fill="none" xmlns="http://www.w3.org/2000/svg">
<g clip-path="url(#clip0)">
<path d="M8 3.125C6.72378 3.1249 5.45516 3.65031 4.55273 4.55273C3.65031 5.45516 3.1249 6.72378 3.125 8C3.1249 9.27622 3.65031 10.5448 4.55273 11.4473C5.45516 12.3497 6.72378 12.8751 8 12.875C9.27622 12.8751 10.5448 12.3497 11.4473 11.4473C12.3497 10.5448 12.8751 9.27622 12.875 8C12.8751 6.72378 12.3497 5.45516 11.4473 4.55273C10.5448 3.65031 9.27622 3.1249 8 3.125Z" fill="#FEFEFE"/>
<path d="M5.50539 9.67217C5.39946 9.66963 5.31925 9.66681 5.32713 9.66577C5.33967 9.66417 5.34148 9.65405 5.34148 9.58533C5.34148 9.53738 5.35108 9.44709 5.36608 9.35381C5.39896 9.14955 5.39738 9.15583 5.41589 9.15583C5.43052 9.15583 5.43162 9.14906 5.43151 9.05954C5.43135 8.92501 5.47721 8.63952 5.49899 8.63952C5.51207 8.63952 5.51358 8.63049 5.51358 8.55267C5.51358 8.49457 5.52174 8.41657 5.53823 8.31705C5.57014 8.12438 5.56828 8.13139 5.5875 8.13139C5.60281 8.13139 5.60372 8.12565 5.60358 8.031C5.60339 7.91249 5.64782 7.61508 5.66572 7.61508C5.67289 7.61508 5.67739 7.5911 5.68073 7.53517C5.68335 7.49122 5.69745 7.37817 5.71206 7.28395C5.73432 7.14034 5.74096 7.11202 5.75313 7.10884C5.7658 7.10555 5.76764 7.09463 5.76764 7.02325C5.76764 6.9706 5.77645 6.88845 5.79237 6.79269C5.82472 6.59809 5.82454 6.59884 5.83717 6.59884C5.84521 6.59884 5.84925 6.57599 5.85278 6.51074C5.85954 6.38543 5.90644 6.09072 5.91962 6.09072C5.927 6.09072 5.93148 6.06538 5.93521 6.00262C5.93966 5.92772 5.96129 5.76605 5.97742 5.68709L5.98202 5.66455H6.50998H7.03794V5.77862C7.03794 5.84135 7.0357 5.89852 7.03296 5.90565C7.02947 5.91475 7.01725 5.91861 6.99198 5.91861H6.95598V6.13465C6.95598 6.25347 6.95364 6.3678 6.95077 6.38871L6.94556 6.42673H6.90979H6.87403V6.6289C6.87403 6.74009 6.86997 6.85442 6.86499 6.88296L6.85595 6.93485H6.82056H6.78517L6.7817 7.17457C6.77979 7.30641 6.77538 7.42259 6.7719 7.43273C6.76679 7.4476 6.75941 7.45117 6.73374 7.45117H6.70192V7.64336C6.70192 7.74906 6.69806 7.85509 6.69335 7.87898C6.68864 7.90286 6.68303 7.93071 6.6809 7.94085C6.67766 7.95624 6.67162 7.95929 6.6444 7.95929H6.61177L6.61183 8.14983C6.61186 8.25516 6.60756 8.36879 6.60222 8.40389L6.59255 8.46741H6.56182H6.53108L6.52771 8.67025C6.52575 8.788 6.51997 8.89457 6.51391 8.92431C6.50363 8.97478 6.50308 8.97553 6.47623 8.97553H6.44899L6.44606 9.15788C6.44391 9.29206 6.43916 9.36026 6.42806 9.41604L6.413 9.49185H6.38535H6.35771V9.5861V9.68035L6.02784 9.67856C5.84641 9.67753 5.6113 9.6747 5.50537 9.67216L5.50539 9.67217Z" fill="#DC251B" stroke="#DC251B" stroke-width="0.016391" stroke-linejoin="round"/>
<path d="M8 11.8829C10.1445 11.8829 11.8829 10.1445 11.8829 8C11.8829 5.85555 10.1445 4.11713 8 4.11713C5.85555 4.11713 4.11713 5.85555 4.11713 8C4.11713 10.1445 5.85555 11.8829 8 11.8829Z" fill="#FCF604" stroke="#DC251B" stroke-width="0.511873" stroke-linejoin="round"/>
<path d="M6.42014 9.72899L5.25842 9.71875L5.94685 5.58002L7.1334 5.60355L6.42014 9.72899Z" fill="#DC251B"/>
<path d="M9.62373 9.75667L10.7854 9.74643L10.097 5.6077L8.91046 5.63123L9.62373 9.75667Z" fill="#DC251B"/>
<path d="M8.15991 7.85087L8.92186 5.61279L9.30705 7.88295L9.02465 8.51377L8.48375 8.63249L8.15991 7.85087Z" fill="#DC251B"/>
<path d="M7.29064 6.18878L6.91396 8.44887L7.22924 9.33095L6.55701 9.60912L8.27236 10.5827L8.98515 8.77462L8.29554 8.9195L7.29064 6.18878Z" fill="#DC251B"/>
</g>
<defs>
<clipPath id="clip0">
<path d="M0 0H16V16H0V0Z" fill="#777777"/>
</clipPath>
</defs>
</svg>
