<?xml version="1.0" encoding="UTF-8"?>
<svg xmlns="http://www.w3.org/2000/svg" xmlns:xlink="http://www.w3.org/1999/xlink" width="32" height="32" viewBox="0 0 32 32">
<defs>
<filter id="filter-remove-color" x="0%" y="0%" width="100%" height="100%">
<feColorMatrix color-interpolation-filters="sRGB" values="0 0 0 0 1 0 0 0 0 1 0 0 0 0 1 0 0 0 1 0" />
</filter>
<mask id="mask-0">
<g filter="url(#filter-remove-color)">
<rect x="-3.2" y="-3.2" width="38.4" height="38.4" fill="rgb(0%, 0%, 0%)" fill-opacity="0.426087"/>
</g>
</mask>
<clipPath id="clip-0">
<rect x="0" y="0" width="32" height="32"/>
</clipPath>
<g id="source-6" clip-path="url(#clip-0)">
<path fill-rule="nonzero" fill="rgb(67.45098%, 84.705882%, 95.294118%)" fill-opacity="1" d="M 18.441406 0.0234375 C 18.183594 0.0234375 17.933594 0.109375 17.734375 0.265625 L 16.429688 1.289062 C 16.3125 1.382812 16.214844 1.496094 16.140625 1.628906 C 16.070312 1.757812 16.023438 1.902344 16.003906 2.050781 C 15.988281 2.199219 16 2.347656 16.039062 2.492188 C 16.078125 2.636719 16.148438 2.769531 16.238281 2.886719 L 17.691406 4.734375 L 15.648438 5.792969 C 15.515625 5.863281 15.394531 5.957031 15.300781 6.074219 C 15.203125 6.1875 15.128906 6.320312 15.085938 6.460938 C 15.039062 6.605469 15.023438 6.753906 15.035156 6.902344 C 15.050781 7.050781 15.089844 7.195312 15.160156 7.328125 L 15.921875 8.796875 C 15.992188 8.929688 16.085938 9.046875 16.199219 9.144531 C 16.3125 9.242188 16.445312 9.3125 16.589844 9.359375 C 16.730469 9.40625 16.882812 9.421875 17.03125 9.410156 C 17.179688 9.394531 17.324219 9.351562 17.457031 9.285156 L 18.328125 8.832031 L 13.773438 28.414062 C 13.738281 28.5625 13.734375 28.710938 13.757812 28.859375 C 13.78125 29.007812 13.835938 29.148438 13.914062 29.277344 C 13.996094 29.402344 14.097656 29.511719 14.21875 29.601562 C 14.34375 29.6875 14.480469 29.75 14.625 29.78125 L 15.929688 30.082031 C 16.078125 30.117188 16.230469 30.121094 16.378906 30.09375 C 16.527344 30.070312 16.671875 30.015625 16.796875 29.933594 C 16.925781 29.851562 17.035156 29.746094 17.121094 29.621094 C 17.207031 29.496094 17.265625 29.355469 17.296875 29.207031 L 21.410156 9.460938 L 22.066406 10.292969 C 22.15625 10.414062 22.273438 10.511719 22.402344 10.582031 C 22.53125 10.65625 22.675781 10.703125 22.824219 10.722656 C 22.972656 10.738281 23.125 10.726562 23.269531 10.6875 C 23.410156 10.648438 23.546875 10.578125 23.664062 10.484375 L 24.964844 9.464844 C 25.082031 9.371094 25.179688 9.257812 25.253906 9.125 C 25.324219 8.996094 25.371094 8.851562 25.390625 8.703125 C 25.410156 8.554688 25.398438 8.40625 25.355469 8.261719 C 25.316406 8.117188 25.246094 7.984375 25.15625 7.867188 L 23.71875 6.039062 L 25.761719 4.980469 C 25.894531 4.910156 26.011719 4.816406 26.109375 4.703125 C 26.207031 4.585938 26.277344 4.457031 26.324219 4.3125 C 26.367188 4.171875 26.386719 4.019531 26.371094 3.871094 C 26.359375 3.722656 26.316406 3.578125 26.25 3.445312 L 25.484375 1.976562 C 25.417969 1.84375 25.324219 1.726562 25.207031 1.628906 C 25.09375 1.53125 24.960938 1.460938 24.820312 1.414062 C 24.675781 1.371094 24.527344 1.351562 24.378906 1.367188 C 24.230469 1.378906 24.085938 1.421875 23.953125 1.488281 L 21.246094 2.894531 L 19.332031 0.457031 C 19.226562 0.324219 19.089844 0.214844 18.9375 0.140625 C 18.78125 0.0625 18.613281 0.0234375 18.441406 0.0234375 Z M 18.441406 0.0234375 "/>
</g>
</defs>
<g mask="url(#mask-0)">
<use xlink:href="#source-6"/>
</g>
<path fill-rule="nonzero" fill="rgb(0%, 0%, 0%)" fill-opacity="1" d="M 20.128906 6.117188 L 14.882812 28.675781 L 16.183594 28.976562 L 20.90625 6.296875 Z M 20.128906 6.117188 "/>
<path fill="none" stroke-width="30" stroke-linecap="butt" stroke-linejoin="miter" stroke="rgb(90.980392%, 0%, 0%)" stroke-opacity="1" stroke-miterlimit="4" d="M 322.355957 30.373535 L 427.919922 164.611816 " transform="matrix(0.0551724, 0, 0, 0.0551724, 0, 0)"/>
<path fill="none" stroke-width="30" stroke-linecap="butt" stroke-linejoin="miter" stroke="rgb(90.980392%, 0%, 0%)" stroke-opacity="1" stroke-miterlimit="4" d="M 299.98291 136.716309 L 450.505371 58.693848 " transform="matrix(0.0551724, 0, 0, 0.0551724, 0, 0)"/>
</svg>
