<?xml version="1.0" encoding="UTF-8"?>
<svg xmlns="http://www.w3.org/2000/svg" xmlns:xlink="http://www.w3.org/1999/xlink" width="32" height="32" viewBox="0 0 32 32">
<path fill-rule="nonzero" fill="rgb(0%, 0%, 0%)" fill-opacity="1" d="M 16.652344 6.707031 C 15.824219 6.707031 15.144531 7.410156 15.144531 8.25 C 15.144531 9.085938 15.824219 9.757812 16.652344 9.757812 C 17.480469 9.757812 18.132812 9.085938 18.132812 8.25 C 18.132812 7.410156 17.480469 6.707031 16.652344 6.707031 Z M 14.628906 10.179688 L 13.242188 15.042969 C 13.101562 15.898438 13.089844 16.53125 13.9375 17.246094 L 14.539062 17.757812 L 15.988281 19.238281 L 15.988281 23.101562 C 16.074219 24.066406 18.082031 23.859375 17.953125 23.101562 L 17.953125 18.816406 C 17.949219 18.550781 17.839844 18.300781 17.648438 18.121094 L 16.140625 16.582031 L 15.71875 16.039062 L 16.414062 13.140625 L 17.710938 14.5 C 17.992188 14.792969 18.425781 14.878906 18.796875 14.710938 L 20.367188 13.894531 L 20.367188 23.828125 L 21.332031 23.828125 L 21.332031 13.410156 L 21.636719 13.261719 C 22.703125 12.929688 22.449219 11.332031 21.332031 11.359375 L 21.332031 10.964844 L 20.367188 10.964844 L 20.367188 11.75 L 18.585938 12.65625 L 16.957031 10.933594 C 16.816406 10.792969 16.636719 10.699219 16.441406 10.664062 C 16.414062 10.644531 16.378906 10.613281 16.351562 10.601562 Z M 13.332031 10.242188 C 12.765625 10.253906 12.09375 10.371094 11.460938 10.90625 C 10.613281 11.621094 10.0625 12.816406 9.921875 13.742188 C 9.78125 14.601562 10.421875 14.886719 11.128906 15.101562 C 11.832031 15.316406 12.464844 15.027344 12.609375 14.527344 C 12.820312 13.886719 13.875 10.242188 13.875 10.242188 C 13.71875 10.242188 13.519531 10.238281 13.332031 10.242188 Z M 12.96875 17.003906 L 12.667969 18.9375 L 12.667969 18.96875 C 12.65625 18.988281 12.648438 19.007812 12.636719 19.027344 C 12.601562 19.074219 12.574219 19.125 12.546875 19.179688 L 11.128906 22.742188 C 10.628906 23.851562 12.34375 23.867188 12.941406 23.464844 L 14.359375 19.902344 C 14.421875 19.769531 14.453125 19.625 14.449219 19.480469 C 14.449219 19.460938 14.449219 19.441406 14.449219 19.417969 L 14.628906 18.875 C 13.714844 18.089844 12.96875 17.503906 12.96875 17.003906 Z M 12.96875 17.003906 "/>
<path fill-rule="nonzero" fill="rgb(0%, 0%, 0%)" fill-opacity="1" d="M 22.738281 23.761719 C 22.738281 24.039062 22.621094 24.328125 22.398438 24.46875 C 22.292969 24.535156 22.164062 24.582031 22.03125 24.582031 L 8.082031 24.609375 L 8.082031 25.65625 L 21.972656 25.601562 C 22.402344 25.589844 22.476562 25.507812 22.851562 25.289062 C 23.230469 25.054688 23.609375 24.332031 23.613281 23.875 Z M 22.738281 23.761719 "/>
</svg>
