<?xml version="1.0" encoding="UTF-8"?>
<svg xmlns="http://www.w3.org/2000/svg" xmlns:xlink="http://www.w3.org/1999/xlink" width="12" height="12" viewBox="0 0 12 12" version="1.1">
<g id="surface1">
<path style=" stroke:none;fill-rule:nonzero;fill:rgb(99.607843%,99.607843%,99.607843%);fill-opacity:1;" d="M 7.902344 2.835938 L 5.898438 2.875 C 5.742188 2.878906 5.59375 2.960938 5.507812 3.089844 L 4.929688 3.96875 C 4.765625 4.21875 4.617188 4.46875 4.503906 4.671875 C 4.445312 4.777344 4.402344 4.867188 4.363281 4.949219 C 4.351562 4.980469 4.324219 5.085938 4.304688 5.183594 C 4.296875 5.210938 4.28125 5.238281 4.257812 5.257812 C 4.238281 5.277344 4.207031 5.289062 4.179688 5.292969 C 4.140625 5.292969 4.089844 5.292969 4.042969 5.292969 C 3.996094 5.296875 3.945312 5.296875 3.9375 5.296875 C 3.566406 5.335938 3.230469 5.488281 3.078125 5.644531 C 2.730469 5.988281 2.445312 6.523438 2.140625 7.105469 C 1.992188 7.394531 1.855469 7.675781 1.757812 7.914062 C 1.710938 8.03125 1.671875 8.136719 1.640625 8.246094 C 1.617188 8.332031 1.589844 8.363281 1.582031 8.40625 C 1.574219 8.453125 1.578125 8.53125 1.640625 8.695312 C 1.695312 8.839844 1.898438 9.015625 2.019531 9.066406 C 2.167969 9.128906 2.289062 9.140625 2.460938 9.15625 C 2.792969 9.183594 3.261719 9.183594 4.042969 9.167969 L 5.914062 9.128906 C 6.054688 9.125 6.199219 9.054688 6.285156 8.9375 L 6.929688 8.082031 C 7.117188 7.832031 7.285156 7.589844 7.414062 7.378906 C 7.476562 7.277344 7.53125 7.183594 7.574219 7.09375 C 7.585938 7.070312 7.613281 6.957031 7.636719 6.855469 C 7.644531 6.824219 7.664062 6.796875 7.6875 6.777344 C 7.710938 6.761719 7.742188 6.75 7.773438 6.75 L 8.292969 6.75 C 8.453125 6.75 8.609375 6.664062 8.695312 6.53125 L 9.503906 5.273438 C 9.730469 4.917969 9.941406 4.570312 10.09375 4.285156 C 10.171875 4.140625 10.234375 4.015625 10.285156 3.902344 C 10.351562 3.75 10.390625 3.8125 10.390625 3.519531 C 10.390625 3.488281 10.371094 3.375 10.332031 3.269531 C 10.289062 3.164062 10.222656 3.0625 10.144531 3.003906 C 9.953125 2.859375 9.835938 2.863281 9.652344 2.84375 C 9.3125 2.8125 8.828125 2.820312 7.902344 2.835938 Z M 7.902344 2.835938 "/>
<path style=" stroke:none;fill-rule:nonzero;fill:rgb(67.058825%,16.470589%,20%);fill-opacity:1;" d="M 2.085938 8.523438 C 2.003906 8.308594 3 6.390625 3.414062 5.980469 C 3.636719 5.757812 3.90625 5.730469 5.839844 5.730469 C 7.035156 5.730469 8.011719 5.695312 8.011719 5.652344 C 8.011719 5.609375 7.8125 5.378906 7.570312 5.140625 C 7.328125 4.902344 7.054688 4.585938 6.96875 4.4375 C 6.832031 4.210938 6.804688 4.203125 6.796875 4.394531 C 6.792969 4.519531 6.949219 4.808594 7.140625 5.039062 L 7.492188 5.457031 L 6.121094 5.457031 C 5.097656 5.457031 4.75 5.414062 4.75 5.285156 C 4.75 5.1875 5.011719 4.714844 5.328125 4.230469 L 5.90625 3.351562 L 7.910156 3.3125 C 9.753906 3.277344 9.914062 3.296875 9.914062 3.515625 C 9.914062 3.648438 9.546875 4.324219 9.101562 5.015625 L 8.292969 6.273438 L 6.101562 6.273438 C 4.898438 6.273438 3.933594 6.328125 3.957031 6.390625 C 4.050781 6.636719 5.046875 7.652344 5.121094 7.578125 C 5.164062 7.539062 5.03125 7.289062 4.832031 7.023438 L 4.464844 6.542969 L 5.832031 6.542969 C 6.929688 6.542969 7.199219 6.582031 7.199219 6.742188 C 7.199219 6.847656 6.90625 7.324219 6.550781 7.792969 L 5.902344 8.652344 L 4.035156 8.6875 C 2.480469 8.71875 2.152344 8.691406 2.085938 8.523438 Z M 2.085938 8.523438 "/>
</g>
</svg>
