<?xml version="1.0" encoding="UTF-8"?>
<svg xmlns="http://www.w3.org/2000/svg" xmlns:xlink="http://www.w3.org/1999/xlink" width="32" height="32" viewBox="0 0 32 32">
<defs>
<filter id="filter-remove-color" x="0%" y="0%" width="100%" height="100%">
<feColorMatrix color-interpolation-filters="sRGB" values="0 0 0 0 1 0 0 0 0 1 0 0 0 0 1 0 0 0 1 0" />
</filter>
<mask id="mask-0">
<g filter="url(#filter-remove-color)">
<rect x="-3.2" y="-3.2" width="38.4" height="38.4" fill="rgb(0%, 0%, 0%)" fill-opacity="0.426087"/>
</g>
</mask>
<clipPath id="clip-0">
<path clip-rule="nonzero" d="M 0 7 L 32 7 L 32 28 L 0 28 Z M 0 7 "/>
</clipPath>
<clipPath id="clip-1">
<rect x="0" y="0" width="32" height="32"/>
</clipPath>
<g id="source-7" clip-path="url(#clip-1)">
<g clip-path="url(#clip-0)">
<path fill-rule="nonzero" fill="rgb(67.45098%, 84.705882%, 95.294118%)" fill-opacity="1" d="M 27.691406 7.253906 C 27.429688 7.257812 27.183594 7.320312 26.957031 7.417969 C 26.066406 7.816406 25.585938 8.851562 25.824219 9.804688 C 25.832031 9.832031 25.839844 9.859375 25.851562 9.886719 L 26.492188 11.789062 C 25.554688 11.660156 24.59375 11.609375 23.730469 11.613281 C 23.695312 11.535156 23.652344 11.457031 23.601562 11.386719 C 23.722656 11.257812 23.835938 11.121094 23.933594 10.96875 C 24.296875 10.40625 24.4375 9.667969 24.300781 9 C 24.234375 8.675781 24.132812 8.300781 23.824219 7.929688 C 23.515625 7.5625 22.957031 7.308594 22.464844 7.296875 C 22.136719 7.292969 21.832031 7.355469 21.519531 7.457031 C 21.507812 7.460938 21.496094 7.464844 21.484375 7.46875 C 20.789062 7.714844 16.484375 9.246094 11.496094 10.488281 C 11.1875 10.546875 10.800781 10.5625 10.3125 10.945312 C 10.0625 11.140625 9.832031 11.480469 9.75 11.816406 C 9.667969 12.15625 9.691406 12.460938 9.75 12.75 C 9.898438 13.464844 10.394531 13.738281 10.816406 13.925781 C 11.226562 14.109375 11.691406 14.210938 12.261719 14.273438 C 12.261719 14.351562 12.269531 14.429688 12.285156 14.507812 L 12.347656 14.808594 C 10.15625 15.566406 7.671875 16.4375 6.929688 16.699219 L 5.976562 15.34375 C 5.921875 15.261719 5.851562 15.1875 5.777344 15.125 C 5.121094 14.578125 4.292969 14.101562 3.289062 14.039062 L 1.25 13.917969 C 1.074219 13.90625 0.902344 13.9375 0.742188 14.003906 C 0.585938 14.070312 0.441406 14.175781 0.328125 14.304688 C 0.21875 14.4375 0.136719 14.59375 0.09375 14.761719 C 0.0507812 14.929688 0.046875 15.101562 0.0859375 15.273438 L 1.574219 22.183594 C 1.597656 22.296875 1.640625 22.40625 1.699219 22.507812 C 1.929688 22.902344 2.316406 23.136719 2.636719 23.242188 C 2.957031 23.34375 3.238281 23.359375 3.511719 23.355469 C 4.066406 23.347656 4.605469 23.242188 5.144531 23.125 C 5.6875 23.003906 6.222656 22.867188 6.667969 22.773438 C 7.109375 22.675781 7.5 22.648438 7.496094 22.648438 C 7.511719 22.648438 7.53125 22.652344 7.546875 22.652344 C 10.613281 22.78125 12.808594 23.269531 19.230469 22.117188 L 20.410156 22.957031 C 20.527344 23.039062 20.65625 23.097656 20.792969 23.132812 C 20.734375 23.539062 20.738281 23.960938 20.824219 24.386719 C 21.226562 26.34375 23.167969 27.621094 25.125 27.21875 C 27.082031 26.816406 28.359375 24.875 27.957031 22.917969 C 27.695312 21.644531 26.785156 20.65625 25.636719 20.234375 C 26.597656 19.753906 27.464844 19.203125 28.214844 18.617188 L 28.558594 20.601562 C 28.566406 20.628906 28.570312 20.65625 28.578125 20.683594 C 28.699219 21.160156 29.015625 21.636719 29.5 21.882812 C 29.988281 22.128906 30.570312 22.097656 31.015625 21.898438 C 31.910156 21.503906 32.390625 20.464844 32.148438 19.511719 C 32.144531 19.484375 32.136719 19.457031 32.125 19.429688 L 30.761719 15.398438 C 30.859375 15.050781 30.894531 14.675781 30.816406 14.28125 C 30.722656 13.828125 30.480469 13.46875 30.191406 13.1875 L 29.414062 8.71875 C 29.410156 8.6875 29.402344 8.660156 29.394531 8.632812 C 29.214844 7.921875 28.480469 7.246094 27.691406 7.253906 Z M 20.566406 13.035156 C 20.410156 13.492188 20.238281 13.707031 19.875 13.953125 C 19.40625 14.265625 18.449219 14.59375 16.777344 14.9375 C 16.21875 15.050781 15.910156 14.9375 15.71875 14.808594 L 15.585938 14.148438 C 16.152344 14.070312 16.75 13.976562 17.417969 13.839844 C 18.621094 13.589844 19.660156 13.332031 20.566406 13.035156 Z M 24.269531 16.652344 C 24.261719 16.6875 24.242188 16.722656 24.203125 16.777344 C 24.128906 16.898438 23.910156 17.109375 23.5 17.335938 C 22.675781 17.789062 21.15625 18.253906 19.117188 18.675781 C 18.148438 18.875 17.328125 18.988281 16.628906 19.050781 C 20.503906 17.980469 23.53125 16.917969 24.269531 16.652344 Z M 13.859375 18.894531 C 13.863281 18.894531 13.878906 18.910156 13.890625 18.914062 C 13.890625 18.914062 13.882812 18.914062 13.878906 18.910156 C 13.855469 18.902344 13.851562 18.894531 13.859375 18.894531 Z M 13.859375 18.894531 "/>
</g>
</g>
</defs>
<g mask="url(#mask-0)">
<use xlink:href="#source-7"/>
</g>
<path fill-rule="nonzero" fill="rgb(69.019608%, 11.372549%, 11.372549%)" fill-opacity="1" d="M 27.410156 8.417969 C 27.007812 8.59375 26.789062 9.039062 26.90625 9.503906 L 28.683594 14.765625 L 29.660156 20.382812 C 29.78125 20.851562 30.15625 21.027344 30.558594 20.851562 C 30.957031 20.671875 31.175781 20.230469 31.058594 19.765625 L 29.28125 14.5 L 28.304688 8.886719 C 28.183594 8.417969 27.808594 8.242188 27.410156 8.417969 Z M 27.410156 8.417969 "/>
<path fill-rule="nonzero" fill="rgb(69.019608%, 11.372549%, 11.372549%)" fill-opacity="1" d="M 23.714844 12.710938 C 22.914062 12.714844 22.21875 12.769531 21.777344 12.859375 C 21.285156 14.695312 20.433594 15.304688 16.996094 16.011719 C 15.328125 16.355469 14.550781 15.210938 14.550781 15.210938 C 12.824219 15.785156 6.496094 18.011719 6.496094 18.011719 L 5.054688 15.964844 C 4.53125 15.527344 3.855469 15.171875 3.21875 15.132812 L 1.175781 15.011719 L 2.664062 21.921875 C 3.171875 22.796875 6.484375 21.410156 7.589844 21.507812 C 11.09375 21.65625 13.066406 22.25 21.191406 20.578125 C 25.878906 19.617188 30.074219 16.253906 29.710938 14.484375 C 29.4375 13.15625 26.109375 12.703125 23.714844 12.710938 Z M 24.585938 15.425781 C 25.0625 15.4375 25.25 15.765625 25.347656 16.234375 C 25.691406 17.898438 23.507812 18.890625 19.339844 19.75 C 14.964844 20.648438 13.101562 20.050781 12.996094 19.53125 C 12.847656 18.800781 13.265625 18.714844 13.890625 18.589844 C 18.953125 17.332031 23.300781 15.785156 24.007812 15.53125 C 24.238281 15.457031 24.425781 15.425781 24.585938 15.425781 Z M 24.585938 15.425781 "/>
<path fill-rule="nonzero" fill="rgb(69.019608%, 11.372549%, 11.372549%)" fill-opacity="1" d="M 24.894531 26.09375 C 26.257812 25.816406 27.132812 24.484375 26.855469 23.121094 C 26.574219 21.757812 25.242188 20.878906 23.878906 21.160156 C 22.515625 21.441406 21.640625 22.773438 21.917969 24.136719 C 22.199219 25.496094 23.53125 26.375 24.894531 26.09375 Z M 24.894531 26.09375 "/>
<path fill-rule="nonzero" fill="rgb(69.019608%, 11.372549%, 11.372549%)" fill-opacity="1" d="M 19.273438 20.753906 L 21.054688 22.019531 C 21.113281 21.246094 22.070312 20.617188 22.070312 20.617188 L 21.441406 20.203125 C 19.980469 20.5 19.585938 20.691406 19.273438 20.753906 Z M 19.273438 20.753906 "/>
<path fill-rule="nonzero" fill="rgb(69.019608%, 11.372549%, 11.372549%)" fill-opacity="1" d="M 21.859375 8.5 C 21.152344 8.753906 16.800781 10.296875 11.738281 11.554688 C 11.113281 11.683594 10.695312 11.769531 10.847656 12.5 C 10.953125 13.019531 12.8125 13.613281 17.1875 12.714844 C 21.355469 11.859375 23.539062 10.867188 23.195312 9.199219 C 23.070312 8.574219 22.773438 8.203125 21.859375 8.5 Z M 21.859375 8.5 "/>
<path fill-rule="nonzero" fill="rgb(69.019608%, 11.372549%, 11.372549%)" fill-opacity="1" d="M 13.378906 14.257812 L 13.871094 16.65625 L 14.914062 16.441406 L 14.441406 14.148438 C 14.027344 14.234375 13.691406 14.195312 13.378906 14.257812 Z M 13.378906 14.257812 "/>
<path fill-rule="nonzero" fill="rgb(69.019608%, 11.372549%, 11.372549%)" fill-opacity="1" d="M 21.714844 12.546875 L 22.207031 14.941406 L 23.246094 14.726562 L 22.691406 12.019531 C 22.398438 12.1875 22.109375 12.355469 21.714844 12.546875 Z M 21.714844 12.546875 "/>
</svg>
