<?xml version="1.0" encoding="UTF-8"?>
<svg xmlns="http://www.w3.org/2000/svg" xmlns:xlink="http://www.w3.org/1999/xlink" width="24" height="24" viewBox="0 0 24 24">
<path fill-rule="nonzero" fill="rgb(99.607843%, 99.607843%, 99.607843%)" fill-opacity="1" d="M 13.050781 6.390625 C 11.367188 6.414062 9.058594 6.582031 7.082031 7.882812 C 7.066406 7.894531 7.054688 7.902344 7.042969 7.914062 C 5.425781 9.074219 3.757812 10.386719 2.839844 12.539062 C 2.808594 12.613281 2.785156 12.6875 2.769531 12.765625 C 2.601562 13.574219 3 14.5 3.777344 14.882812 C 4.214844 15.097656 4.519531 15.082031 5.09375 15.101562 C 5.113281 15.101562 5.179688 15.101562 5.203125 15.101562 C 5.199219 15.144531 5.195312 15.1875 5.195312 15.226562 L 5.214844 16.410156 C 5.21875 16.722656 5.347656 17.019531 5.566406 17.238281 C 5.789062 17.460938 6.089844 17.582031 6.402344 17.585938 C 8.742188 17.605469 11.296875 17.699219 13.804688 17.382812 C 13.835938 17.378906 13.867188 17.375 13.898438 17.371094 C 16.28125 16.875 18.40625 15.3125 20.230469 13.1875 C 20.546875 12.84375 20.738281 12.53125 20.921875 12.144531 C 21.117188 11.746094 21.253906 11.347656 21.269531 10.886719 C 21.285156 10.433594 21.121094 9.871094 20.734375 9.484375 C 20.675781 9.417969 20.625 9.351562 20.550781 9.296875 C 20.3125 9.113281 20.015625 8.996094 19.691406 8.9375 C 19.621094 8.925781 19.550781 8.921875 19.480469 8.921875 L 19.246094 8.921875 C 19.25 8.867188 19.253906 8.816406 19.253906 8.761719 L 19.238281 7.578125 C 19.234375 7.265625 19.105469 6.964844 18.882812 6.746094 C 18.660156 6.523438 18.359375 6.398438 18.046875 6.398438 C 18.046875 6.398438 15.921875 6.394531 14.488281 6.390625 C 14.113281 6.390625 13.613281 6.378906 13.050781 6.390625 Z M 20.746094 9.496094 L 21.019531 9.917969 C 21.019531 9.917969 20.929688 9.714844 20.851562 9.605469 C 20.824219 9.566406 20.78125 9.535156 20.746094 9.496094 Z M 20.746094 9.496094 "/>
<path fill-rule="nonzero" fill="rgb(66.27451%, 5.098039%, 9.411765%)" fill-opacity="1" d="M 6.410156 16.390625 L 6.390625 15.210938 C 6.390625 15.210938 9.113281 15.214844 10.761719 15.214844 C 11.679688 15.214844 12.210938 15.183594 12.507812 15.105469 C 14.019531 14.738281 15.171875 13.8125 16.121094 12.785156 C 16.570312 12.203125 16.636719 11.832031 16.34375 11.503906 L 16.085938 11.398438 L 13.132812 11.378906 C 11.253906 11.363281 10.175781 11.328125 10.175781 11.28125 C 10.175781 11.183594 10.730469 10.796875 11.410156 10.417969 L 11.953125 10.113281 L 19.480469 10.113281 C 19.839844 10.179688 19.894531 10.328125 19.894531 10.328125 C 20.148438 10.570312 20.136719 11.023438 19.847656 11.625 C 19.71875 11.890625 19.496094 12.234375 19.347656 12.390625 C 17.632812 14.394531 15.6875 15.773438 13.652344 16.199219 C 11.28125 16.496094 8.773438 16.40625 6.410156 16.390625 Z M 6.410156 16.390625 "/>
<path fill-rule="nonzero" fill="rgb(8.235294%, 22.745098%, 38.823529%)" fill-opacity="1" d="M 4.304688 13.808594 C 4.015625 13.667969 3.871094 13.351562 3.941406 13.011719 C 4.726562 11.175781 6.15625 10.019531 7.738281 8.882812 C 9.929688 7.4375 12.898438 7.585938 14.484375 7.585938 C 15.917969 7.589844 18.042969 7.59375 18.042969 7.59375 L 18.058594 8.777344 L 14.578125 8.808594 C 12 8.800781 10.101562 9.09375 8.328125 10.726562 C 7.542969 11.507812 7.351562 11.867188 7.519531 12.234375 C 7.679688 12.585938 7.835938 12.605469 10.890625 12.648438 L 13.757812 12.683594 L 13.253906 13.125 C 12.875 13.460938 12.625 13.609375 12.214844 13.75 L 11.675781 13.933594 L 8.109375 13.929688 C 5.035156 13.929688 4.511719 13.910156 4.304688 13.808594 Z M 4.304688 13.808594 "/>
</svg>
