<?xml version="1.0" encoding="UTF-8"?>
<svg xmlns="http://www.w3.org/2000/svg" xmlns:xlink="http://www.w3.org/1999/xlink" width="12" height="12" viewBox="0 0 12 12">
<path fill-rule="nonzero" fill="rgb(0%, 0%, 0%)" fill-opacity="1" d="M 3.265625 9.128906 C 2.867188 9.230469 2.574219 9.59375 2.574219 10.023438 C 2.574219 10.535156 2.988281 10.949219 3.5 10.949219 C 3.8125 10.949219 4.085938 10.796875 4.253906 10.5625 C 4.230469 10.542969 4.207031 10.519531 4.199219 10.492188 C 4.191406 10.464844 4.203125 10.429688 4.175781 10.40625 C 4.15625 10.382812 4.144531 10.359375 4.117188 10.351562 C 4.085938 10.34375 4.042969 10.339844 4.011719 10.347656 C 3.988281 10.351562 3.921875 10.378906 3.921875 10.347656 C 3.921875 10.324219 3.925781 10.300781 3.914062 10.28125 C 3.894531 10.261719 3.839844 10.289062 3.832031 10.261719 C 3.824219 10.234375 3.867188 10.230469 3.894531 10.203125 C 3.898438 10.195312 3.867188 10.167969 3.90625 10.1875 C 3.941406 10.199219 3.898438 10.109375 3.921875 10.082031 C 3.945312 10.054688 4.035156 10.03125 4.035156 9.992188 C 4.035156 9.964844 4.027344 9.953125 4.035156 9.90625 C 4.042969 9.863281 4.03125 9.871094 3.972656 9.886719 C 3.96875 9.886719 3.957031 9.863281 3.949219 9.867188 C 3.925781 9.871094 3.867188 9.886719 3.835938 9.878906 C 3.804688 9.871094 3.800781 9.84375 3.777344 9.824219 C 3.75 9.804688 3.742188 9.804688 3.710938 9.804688 C 3.667969 9.804688 3.65625 9.769531 3.628906 9.742188 C 3.597656 9.710938 3.574219 9.703125 3.53125 9.703125 C 3.476562 9.703125 3.433594 9.710938 3.378906 9.710938 C 3.351562 9.710938 3.289062 9.722656 3.265625 9.703125 C 3.238281 9.675781 3.242188 9.648438 3.257812 9.617188 C 3.269531 9.585938 3.296875 9.570312 3.308594 9.550781 C 3.328125 9.511719 3.390625 9.515625 3.417969 9.480469 C 3.4375 9.453125 3.4375 9.425781 3.4375 9.386719 C 3.4375 9.34375 3.414062 9.300781 3.390625 9.265625 C 3.371094 9.242188 3.335938 9.230469 3.328125 9.21875 C 3.316406 9.199219 3.300781 9.160156 3.285156 9.144531 C 3.28125 9.140625 3.273438 9.132812 3.265625 9.128906 Z M 3.265625 9.128906 "/>
<path fill-rule="evenodd" fill="rgb(0%, 0%, 0%)" fill-opacity="1" d="M 2.941406 9.015625 C 2.988281 9.042969 3.011719 9.097656 2.988281 9.136719 C 2.964844 9.175781 2.902344 9.175781 2.851562 9.171875 C 2.800781 9.171875 2.800781 9.164062 2.789062 9.128906 C 2.777344 9.097656 2.765625 9.0625 2.804688 9.035156 C 2.839844 9.007812 2.894531 8.992188 2.941406 9.015625 Z M 2.941406 9.015625 "/>
<path fill-rule="evenodd" fill="rgb(0%, 0%, 0%)" fill-opacity="1" d="M 3.152344 8.925781 C 3.183594 8.945312 3.199219 8.980469 3.191406 9.007812 C 3.183594 9.035156 3.148438 9.039062 3.121094 9.035156 C 3.089844 9.03125 3.085938 9.015625 3.074219 8.992188 C 3.0625 8.96875 3.050781 8.957031 3.074219 8.941406 C 3.09375 8.925781 3.125 8.910156 3.152344 8.925781 Z M 3.152344 8.925781 "/>
<path fill-rule="evenodd" fill="rgb(0%, 0%, 0%)" fill-opacity="1" d="M 3.757812 9.308594 C 3.8125 9.296875 3.84375 9.277344 3.902344 9.285156 C 3.964844 9.292969 3.953125 9.320312 4.003906 9.34375 C 4.054688 9.363281 4.058594 9.347656 4.105469 9.375 C 4.152344 9.402344 4.195312 9.417969 4.191406 9.445312 C 4.1875 9.472656 4.140625 9.457031 4.097656 9.484375 C 4.054688 9.511719 4.058594 9.527344 4.019531 9.550781 C 3.984375 9.574219 3.984375 9.558594 3.949219 9.578125 C 3.917969 9.597656 3.914062 9.625 3.882812 9.625 C 3.855469 9.625 3.867188 9.609375 3.832031 9.582031 C 3.796875 9.558594 3.765625 9.523438 3.742188 9.523438 C 3.71875 9.523438 3.660156 9.53125 3.609375 9.523438 C 3.5625 9.511719 3.554688 9.523438 3.542969 9.488281 C 3.53125 9.457031 3.53125 9.429688 3.5625 9.390625 C 3.597656 9.347656 3.632812 9.347656 3.679688 9.328125 C 3.730469 9.308594 3.703125 9.320312 3.757812 9.308594 Z M 3.757812 9.308594 "/>
<path fill-rule="evenodd" fill="rgb(0%, 0%, 0%)" fill-opacity="1" d="M 4.183594 9.808594 C 4.214844 9.753906 4.207031 9.71875 4.230469 9.671875 C 4.25 9.625 4.21875 9.636719 4.269531 9.625 C 4.324219 9.613281 4.355469 9.625 4.445312 9.625 C 4.535156 9.625 4.574219 9.617188 4.636719 9.625 C 4.695312 9.632812 4.675781 9.628906 4.691406 9.652344 C 4.707031 9.675781 4.707031 9.6875 4.695312 9.71875 C 4.6875 9.75 4.679688 9.757812 4.652344 9.777344 C 4.628906 9.792969 4.617188 9.769531 4.597656 9.789062 C 4.578125 9.8125 4.570312 9.84375 4.578125 9.867188 C 4.585938 9.890625 4.605469 9.859375 4.628906 9.886719 C 4.65625 9.910156 4.675781 9.933594 4.675781 9.96875 C 4.675781 10.007812 4.664062 10.003906 4.628906 10.03125 C 4.597656 10.058594 4.601562 10.058594 4.546875 10.074219 C 4.488281 10.089844 4.46875 10.089844 4.398438 10.097656 C 4.332031 10.105469 4.296875 10.101562 4.269531 10.101562 C 4.246094 10.101562 4.195312 10.105469 4.148438 10.097656 C 4.101562 10.089844 4.101562 10.09375 4.078125 10.0625 C 4.054688 10.035156 4.054688 10.015625 4.058594 9.976562 C 4.0625 9.933594 4.066406 9.941406 4.097656 9.898438 C 4.128906 9.859375 4.148438 9.867188 4.183594 9.808594 Z M 4.183594 9.808594 "/>
<path fill-rule="evenodd" fill="rgb(0%, 0%, 0%)" fill-opacity="1" d="M 4.546875 10.816406 C 4.601562 10.832031 4.644531 10.832031 4.6875 10.875 C 4.730469 10.921875 4.710938 10.953125 4.71875 11 C 4.726562 11.046875 4.746094 11.046875 4.71875 11.066406 C 4.695312 11.082031 4.664062 11.082031 4.621094 11.070312 C 4.578125 11.058594 4.589844 11.039062 4.550781 11.011719 C 4.507812 10.984375 4.5 10.980469 4.457031 10.960938 C 4.410156 10.945312 4.390625 10.964844 4.367188 10.941406 C 4.339844 10.917969 4.355469 10.902344 4.351562 10.867188 C 4.347656 10.832031 4.328125 10.820312 4.355469 10.804688 C 4.382812 10.789062 4.417969 10.796875 4.464844 10.800781 C 4.511719 10.804688 4.488281 10.796875 4.546875 10.816406 Z M 4.546875 10.816406 "/>
<path fill-rule="evenodd" fill="rgb(0%, 0%, 0%)" fill-opacity="1" d="M 5.140625 5.300781 C 5.175781 5.265625 5.203125 5.253906 5.242188 5.199219 C 5.285156 5.148438 5.289062 5.109375 5.300781 5.089844 C 5.3125 5.074219 5.347656 5.019531 5.371094 4.972656 C 5.390625 4.929688 5.367188 4.945312 5.390625 4.914062 C 5.414062 4.882812 5.453125 4.855469 5.464844 4.855469 C 5.476562 4.855469 5.519531 4.871094 5.554688 4.882812 C 5.59375 4.894531 5.582031 4.898438 5.617188 4.898438 C 5.65625 4.898438 5.664062 4.890625 5.707031 4.882812 C 5.746094 4.871094 5.734375 4.851562 5.777344 4.859375 C 5.816406 4.871094 5.84375 4.886719 5.867188 4.917969 C 5.890625 4.953125 5.878906 4.953125 5.867188 4.996094 C 5.859375 5.035156 5.835938 5.070312 5.828125 5.082031 C 5.820312 5.09375 5.820312 5.136719 5.800781 5.171875 C 5.78125 5.207031 5.78125 5.1875 5.753906 5.21875 C 5.722656 5.253906 5.6875 5.300781 5.675781 5.308594 C 5.667969 5.3125 5.628906 5.34375 5.601562 5.382812 C 5.574219 5.417969 5.597656 5.417969 5.574219 5.457031 C 5.546875 5.492188 5.542969 5.492188 5.503906 5.53125 C 5.464844 5.570312 5.453125 5.574219 5.417969 5.613281 C 5.382812 5.65625 5.398438 5.675781 5.363281 5.695312 C 5.324219 5.714844 5.296875 5.695312 5.273438 5.691406 C 5.25 5.683594 5.195312 5.632812 5.1875 5.621094 C 5.179688 5.613281 5.140625 5.558594 5.136719 5.546875 C 5.128906 5.539062 5.09375 5.476562 5.085938 5.46875 C 5.082031 5.457031 5.070312 5.386719 5.078125 5.375 C 5.085938 5.363281 5.140625 5.304688 5.140625 5.300781 Z M 5.140625 5.300781 "/>
<path fill-rule="evenodd" fill="rgb(0%, 0%, 0%)" fill-opacity="1" d="M 6.886719 5.273438 C 6.933594 5.265625 6.984375 5.246094 6.988281 5.238281 C 6.996094 5.230469 7.011719 5.207031 7.042969 5.1875 C 7.070312 5.167969 7.0625 5.160156 7.109375 5.15625 C 7.152344 5.15625 7.191406 5.15625 7.222656 5.183594 C 7.257812 5.210938 7.234375 5.226562 7.242188 5.261719 C 7.25 5.296875 7.238281 5.289062 7.25 5.324219 C 7.261719 5.355469 7.292969 5.355469 7.289062 5.390625 C 7.285156 5.429688 7.246094 5.457031 7.234375 5.46875 C 7.21875 5.480469 7.191406 5.507812 7.164062 5.546875 C 7.136719 5.589844 7.132812 5.617188 7.121094 5.632812 C 7.105469 5.644531 7.050781 5.691406 7.035156 5.695312 C 7.023438 5.699219 6.964844 5.75 6.945312 5.761719 C 6.929688 5.773438 6.902344 5.808594 6.863281 5.839844 C 6.820312 5.867188 6.796875 5.882812 6.785156 5.882812 C 6.769531 5.882812 6.714844 5.890625 6.691406 5.882812 C 6.667969 5.875 6.652344 5.859375 6.628906 5.859375 C 6.605469 5.859375 6.570312 5.851562 6.550781 5.839844 C 6.535156 5.832031 6.515625 5.792969 6.503906 5.78125 C 6.492188 5.773438 6.484375 5.707031 6.476562 5.695312 C 6.46875 5.683594 6.46875 5.648438 6.46875 5.628906 C 6.46875 5.609375 6.476562 5.570312 6.488281 5.554688 C 6.5 5.535156 6.507812 5.53125 6.519531 5.496094 C 6.53125 5.460938 6.550781 5.421875 6.554688 5.410156 C 6.558594 5.394531 6.597656 5.347656 6.609375 5.339844 C 6.621094 5.332031 6.652344 5.300781 6.660156 5.289062 C 6.671875 5.277344 6.703125 5.277344 6.738281 5.269531 C 6.777344 5.265625 6.789062 5.273438 6.808594 5.273438 C 6.824219 5.273438 6.84375 5.28125 6.886719 5.273438 Z M 6.886719 5.273438 "/>
<path fill-rule="evenodd" fill="rgb(0%, 0%, 0%)" fill-opacity="1" d="M 7.335938 8.433594 C 7.402344 8.398438 7.457031 8.371094 7.550781 8.328125 C 7.644531 8.285156 7.699219 8.257812 7.714844 8.257812 C 7.726562 8.257812 7.769531 8.273438 7.816406 8.308594 C 7.863281 8.34375 7.878906 8.359375 7.898438 8.394531 C 7.917969 8.429688 7.902344 8.410156 7.898438 8.445312 C 7.894531 8.480469 7.910156 8.5 7.886719 8.539062 C 7.863281 8.578125 7.8125 8.597656 7.804688 8.601562 C 7.792969 8.605469 7.792969 8.660156 7.746094 8.675781 C 7.703125 8.691406 7.667969 8.679688 7.625 8.671875 C 7.578125 8.660156 7.582031 8.636719 7.566406 8.636719 C 7.550781 8.640625 7.476562 8.660156 7.457031 8.660156 C 7.4375 8.660156 7.398438 8.679688 7.363281 8.683594 C 7.332031 8.683594 7.296875 8.652344 7.261719 8.617188 C 7.226562 8.582031 7.21875 8.550781 7.222656 8.542969 C 7.222656 8.535156 7.246094 8.5 7.277344 8.472656 C 7.304688 8.445312 7.265625 8.46875 7.335938 8.433594 Z M 7.335938 8.433594 "/>
<path fill-rule="evenodd" fill="rgb(0%, 0%, 0%)" fill-opacity="1" d="M 6.375 10.394531 C 6.417969 10.414062 6.453125 10.425781 6.5 10.453125 C 6.546875 10.476562 6.554688 10.46875 6.570312 10.496094 C 6.582031 10.523438 6.597656 10.539062 6.550781 10.558594 C 6.5 10.578125 6.398438 10.574219 6.371094 10.570312 C 6.347656 10.566406 6.269531 10.558594 6.226562 10.527344 C 6.183594 10.5 6.207031 10.464844 6.203125 10.453125 C 6.195312 10.4375 6.195312 10.378906 6.203125 10.378906 C 6.214844 10.378906 6.257812 10.390625 6.296875 10.394531 C 6.339844 10.398438 6.328125 10.375 6.375 10.394531 Z M 6.375 10.394531 "/>
<path fill-rule="evenodd" fill="rgb(0%, 0%, 0%)" fill-opacity="1" d="M 6.878906 10.285156 C 6.933594 10.273438 6.992188 10.28125 7.074219 10.28125 C 7.160156 10.277344 7.199219 10.273438 7.214844 10.273438 C 7.234375 10.273438 7.394531 10.28125 7.414062 10.285156 C 7.433594 10.285156 7.441406 10.316406 7.480469 10.34375 C 7.523438 10.371094 7.535156 10.367188 7.582031 10.398438 C 7.628906 10.425781 7.644531 10.429688 7.667969 10.460938 C 7.6875 10.488281 7.671875 10.488281 7.667969 10.519531 C 7.660156 10.550781 7.671875 10.5625 7.640625 10.585938 C 7.605469 10.605469 7.574219 10.609375 7.535156 10.605469 C 7.492188 10.597656 7.332031 10.574219 7.316406 10.574219 C 7.300781 10.574219 7.121094 10.5625 7.101562 10.5625 C 7.082031 10.566406 6.976562 10.558594 6.96875 10.558594 C 6.957031 10.558594 6.914062 10.558594 6.882812 10.539062 C 6.851562 10.519531 6.851562 10.507812 6.847656 10.476562 C 6.84375 10.449219 6.867188 10.429688 6.867188 10.417969 C 6.867188 10.40625 6.863281 10.359375 6.851562 10.347656 C 6.839844 10.332031 6.875 10.285156 6.878906 10.285156 Z M 6.878906 10.285156 "/>
<path fill-rule="evenodd" fill="rgb(0%, 0%, 0%)" fill-opacity="1" d="M 7.128906 11.429688 C 7.152344 11.417969 7.042969 11.351562 6.96875 11.300781 C 6.898438 11.25 6.875 11.253906 6.835938 11.226562 C 6.796875 11.203125 6.804688 11.226562 6.820312 11.203125 C 6.832031 11.175781 6.863281 11.160156 6.890625 11.125 C 6.917969 11.089844 6.875 11.070312 6.929688 11.066406 C 6.984375 11.058594 6.957031 11.070312 7.109375 11.101562 C 7.257812 11.136719 7.339844 11.140625 7.535156 11.195312 C 7.726562 11.25 7.871094 11.324219 7.882812 11.324219 C 7.890625 11.328125 8.152344 11.433594 8.152344 11.433594 Z M 7.128906 11.429688 "/>
<path fill-rule="evenodd" fill="rgb(0%, 0%, 0%)" fill-opacity="1" d="M 4.03125 7.691406 C 3.980469 7.90625 3.976562 7.734375 3.914062 7.738281 C 3.847656 7.742188 3.789062 7.710938 3.777344 7.703125 C 3.769531 7.699219 3.703125 7.65625 3.691406 7.648438 C 3.679688 7.640625 3.640625 7.605469 3.628906 7.582031 C 3.621094 7.558594 3.617188 7.484375 3.613281 7.464844 C 3.609375 7.449219 3.597656 7.390625 3.609375 7.347656 C 3.621094 7.304688 3.628906 7.320312 3.660156 7.289062 C 3.691406 7.253906 3.707031 7.253906 3.734375 7.21875 C 3.761719 7.179688 3.773438 7.152344 3.773438 7.144531 C 3.773438 7.132812 3.75 7.019531 3.75 7.007812 C 3.746094 6.996094 3.730469 6.953125 3.726562 6.929688 C 3.722656 6.910156 3.742188 6.878906 3.78125 6.863281 C 3.816406 6.847656 3.84375 6.871094 3.875 6.867188 C 3.902344 6.859375 3.890625 6.851562 3.894531 6.84375 C 3.894531 6.832031 3.90625 6.8125 3.949219 6.820312 C 3.996094 6.828125 4.027344 6.855469 4.070312 6.871094 C 4.109375 6.882812 4.128906 6.671875 4.121094 6.875 C 4.109375 7.082031 4.085938 7.476562 4.03125 7.691406 Z M 4.03125 7.691406 "/>
<path fill-rule="evenodd" fill="rgb(0%, 0%, 0%)" fill-opacity="1" d="M 4.582031 7.328125 C 4.582031 7.316406 4.550781 7.269531 4.558594 7.21875 C 4.566406 7.171875 4.578125 7.171875 4.613281 7.128906 C 4.648438 7.085938 4.667969 7.078125 4.703125 7.042969 C 4.742188 7.007812 4.734375 7 4.765625 6.988281 C 4.800781 6.972656 4.8125 6.980469 4.839844 6.996094 C 4.867188 7.011719 4.863281 7.011719 4.878906 7.046875 C 4.890625 7.078125 4.898438 7.101562 4.894531 7.128906 C 4.890625 7.15625 4.871094 7.148438 4.863281 7.160156 C 4.855469 7.167969 4.835938 7.199219 4.832031 7.242188 C 4.828125 7.289062 4.84375 7.292969 4.847656 7.332031 C 4.855469 7.375 4.867188 7.378906 4.847656 7.40625 C 4.832031 7.429688 4.804688 7.425781 4.785156 7.433594 C 4.765625 7.441406 4.6875 7.457031 4.671875 7.449219 C 4.660156 7.441406 4.617188 7.410156 4.613281 7.402344 C 4.609375 7.390625 4.582031 7.332031 4.582031 7.328125 Z M 4.582031 7.328125 "/>
<path fill-rule="evenodd" fill="rgb(0%, 0%, 0%)" fill-opacity="1" d="M 4.628906 7.679688 C 4.660156 7.710938 4.671875 7.777344 4.660156 7.78125 C 4.652344 7.785156 4.640625 7.835938 4.617188 7.835938 C 4.59375 7.839844 4.546875 7.847656 4.535156 7.847656 C 4.523438 7.847656 4.484375 7.851562 4.464844 7.835938 C 4.441406 7.816406 4.449219 7.796875 4.453125 7.773438 C 4.453125 7.75 4.460938 7.710938 4.464844 7.699219 C 4.464844 7.691406 4.484375 7.671875 4.523438 7.664062 C 4.566406 7.660156 4.59375 7.652344 4.628906 7.679688 Z M 4.628906 7.679688 "/>
<path fill-rule="evenodd" fill="rgb(0%, 0%, 0%)" fill-opacity="1" d="M 3.164062 8.605469 C 3.195312 8.703125 3.140625 8.652344 3.109375 8.6875 C 3.078125 8.726562 3.046875 8.753906 3.035156 8.753906 C 3.027344 8.753906 3 8.769531 2.984375 8.769531 C 2.964844 8.769531 2.949219 8.773438 2.921875 8.753906 C 2.894531 8.734375 2.890625 8.71875 2.875 8.695312 C 2.863281 8.671875 2.839844 8.628906 2.828125 8.613281 C 2.816406 8.59375 2.78125 8.558594 2.773438 8.542969 C 2.761719 8.527344 2.757812 8.5 2.761719 8.476562 C 2.769531 8.457031 2.796875 8.429688 2.8125 8.417969 C 2.832031 8.40625 2.867188 8.382812 2.882812 8.371094 C 2.894531 8.359375 2.917969 8.351562 2.933594 8.335938 C 2.945312 8.320312 2.917969 8.222656 2.976562 8.292969 C 3.03125 8.359375 3.128906 8.503906 3.164062 8.605469 Z M 3.164062 8.605469 "/>
<path fill-rule="evenodd" fill="rgb(0%, 0%, 0%)" fill-opacity="1" d="M 4.667969 8.394531 C 4.707031 8.375 4.703125 8.429688 4.734375 8.453125 C 4.769531 8.476562 4.78125 8.476562 4.796875 8.496094 C 4.816406 8.511719 4.832031 8.550781 4.84375 8.59375 C 4.851562 8.640625 4.835938 8.664062 4.835938 8.675781 C 4.835938 8.683594 4.851562 8.71875 4.875 8.707031 C 4.894531 8.699219 4.925781 8.695312 4.925781 8.679688 C 4.929688 8.664062 4.960938 8.609375 4.960938 8.601562 C 4.960938 8.589844 4.964844 8.558594 4.96875 8.542969 C 4.972656 8.527344 4.980469 8.503906 4.992188 8.488281 C 5.007812 8.476562 5.023438 8.445312 5.046875 8.445312 C 5.070312 8.441406 5.125 8.449219 5.136719 8.449219 C 5.144531 8.449219 5.175781 8.476562 5.175781 8.484375 C 5.179688 8.496094 5.1875 8.519531 5.1875 8.539062 C 5.191406 8.554688 5.1875 8.585938 5.1875 8.597656 C 5.1875 8.609375 5.164062 8.660156 5.15625 8.664062 C 5.144531 8.671875 5.105469 8.710938 5.089844 8.714844 C 5.074219 8.722656 5.066406 8.726562 5.042969 8.734375 C 5.019531 8.738281 4.980469 8.761719 4.96875 8.777344 C 4.957031 8.789062 4.953125 8.804688 4.933594 8.835938 C 4.914062 8.863281 4.90625 8.878906 4.894531 8.890625 C 4.886719 8.898438 4.863281 8.941406 4.847656 8.945312 C 4.835938 8.953125 4.789062 8.953125 4.769531 8.945312 C 4.75 8.933594 4.753906 8.929688 4.734375 8.914062 C 4.710938 8.902344 4.691406 8.882812 4.667969 8.882812 C 4.640625 8.882812 4.617188 8.878906 4.585938 8.878906 C 4.554688 8.878906 4.542969 8.867188 4.507812 8.867188 C 4.476562 8.863281 4.46875 8.863281 4.449219 8.859375 C 4.429688 8.859375 4.433594 8.867188 4.429688 8.859375 C 4.425781 8.847656 4.4375 8.773438 4.472656 8.695312 C 4.507812 8.613281 4.5625 8.570312 4.574219 8.539062 C 4.582031 8.511719 4.664062 8.398438 4.667969 8.394531 Z M 4.667969 8.394531 "/>
<path fill-rule="evenodd" fill="rgb(0%, 0%, 0%)" fill-opacity="1" d="M 3.488281 8.355469 C 3.496094 8.351562 3.601562 8.359375 3.722656 8.359375 C 3.847656 8.359375 3.910156 8.375 3.976562 8.355469 C 4.019531 8.519531 3.910156 9.027344 3.898438 9.023438 C 3.890625 9.023438 3.757812 8.988281 3.71875 8.976562 C 3.679688 8.964844 3.609375 8.988281 3.609375 8.9375 C 3.605469 8.886719 3.488281 8.355469 3.488281 8.355469 Z M 3.488281 8.355469 "/>
<path fill-rule="evenodd" fill="rgb(0%, 0%, 0%)" fill-opacity="1" d="M 4.582031 8.953125 C 4.605469 8.953125 4.644531 8.949219 4.675781 8.96875 C 4.707031 8.988281 4.710938 9.007812 4.710938 9.035156 C 4.714844 9.058594 4.703125 9.058594 4.6875 9.070312 C 4.671875 9.082031 4.644531 9.097656 4.589844 9.09375 C 4.539062 9.089844 4.539062 9.097656 4.515625 9.089844 C 4.488281 9.082031 4.488281 9.085938 4.488281 9.0625 C 4.488281 9.039062 4.460938 9.046875 4.488281 9.019531 C 4.515625 8.992188 4.507812 8.992188 4.53125 8.972656 C 4.554688 8.957031 4.546875 8.949219 4.582031 8.953125 Z M 4.582031 8.953125 "/>
<path fill-rule="evenodd" fill="rgb(0%, 0%, 0%)" fill-opacity="1" d="M 5.445312 9.105469 C 5.484375 9.121094 5.496094 9.125 5.535156 9.148438 C 5.570312 9.167969 5.574219 9.164062 5.597656 9.1875 C 5.617188 9.210938 5.625 9.222656 5.613281 9.242188 C 5.601562 9.261719 5.570312 9.269531 5.550781 9.269531 C 5.535156 9.269531 5.488281 9.261719 5.46875 9.261719 C 5.449219 9.257812 5.375 9.257812 5.367188 9.253906 C 5.359375 9.25 5.328125 9.238281 5.300781 9.230469 C 5.277344 9.222656 5.25 9.238281 5.246094 9.207031 C 5.238281 9.179688 5.238281 9.160156 5.238281 9.148438 C 5.238281 9.132812 5.21875 9.113281 5.25 9.097656 C 5.28125 9.085938 5.296875 9.070312 5.3125 9.074219 C 5.328125 9.074219 5.339844 9.074219 5.371094 9.082031 C 5.40625 9.089844 5.402344 9.085938 5.445312 9.105469 Z M 5.445312 9.105469 "/>
<path fill-rule="evenodd" fill="rgb(0%, 0%, 0%)" fill-opacity="1" d="M 5.621094 7.15625 C 5.648438 7.132812 5.671875 7.105469 5.710938 7.074219 C 5.753906 7.039062 5.773438 7.03125 5.789062 7.03125 C 5.804688 7.03125 5.816406 7.046875 5.832031 7.0625 C 5.851562 7.078125 5.847656 7.070312 5.859375 7.09375 C 5.871094 7.117188 5.878906 7.121094 5.882812 7.148438 C 5.886719 7.175781 5.878906 7.203125 5.875 7.203125 C 5.871094 7.203125 5.835938 7.222656 5.828125 7.222656 C 5.824219 7.226562 5.792969 7.277344 5.78125 7.277344 C 5.773438 7.28125 5.761719 7.285156 5.742188 7.300781 C 5.722656 7.320312 5.710938 7.34375 5.707031 7.347656 C 5.699219 7.351562 5.671875 7.378906 5.660156 7.378906 C 5.652344 7.382812 5.636719 7.390625 5.625 7.382812 C 5.609375 7.375 5.609375 7.375 5.59375 7.355469 C 5.582031 7.335938 5.589844 7.359375 5.570312 7.324219 C 5.546875 7.292969 5.523438 7.304688 5.53125 7.261719 C 5.539062 7.21875 5.535156 7.210938 5.550781 7.195312 C 5.566406 7.183594 5.582031 7.179688 5.601562 7.167969 C 5.617188 7.160156 5.59375 7.179688 5.621094 7.15625 Z M 5.621094 7.15625 "/>
<path fill-rule="evenodd" fill="rgb(0%, 0%, 0%)" fill-opacity="1" d="M 4.671875 10.359375 C 4.691406 10.363281 4.828125 10.402344 4.84375 10.402344 C 4.855469 10.40625 4.917969 10.441406 4.933594 10.445312 C 4.949219 10.445312 5.066406 10.503906 5.082031 10.511719 C 5.09375 10.519531 5.125 10.554688 5.132812 10.5625 C 5.140625 10.566406 5.152344 10.613281 5.148438 10.640625 C 5.148438 10.671875 5.148438 10.671875 5.125 10.675781 C 5.097656 10.679688 5.066406 10.699219 5.035156 10.710938 C 5.003906 10.71875 5.039062 10.707031 4.996094 10.714844 C 4.957031 10.71875 4.925781 10.726562 4.902344 10.71875 C 4.875 10.707031 4.851562 10.703125 4.820312 10.695312 C 4.792969 10.691406 4.679688 10.652344 4.640625 10.625 C 4.605469 10.601562 4.53125 10.570312 4.519531 10.558594 C 4.511719 10.546875 4.464844 10.507812 4.464844 10.503906 C 4.46875 10.496094 4.480469 10.496094 4.5 10.472656 C 4.519531 10.449219 4.539062 10.433594 4.554688 10.417969 C 4.566406 10.40625 4.613281 10.378906 4.613281 10.371094 C 4.613281 10.363281 4.632812 10.339844 4.648438 10.339844 C 4.664062 10.34375 4.667969 10.355469 4.671875 10.359375 Z M 4.671875 10.359375 "/>
<path fill-rule="evenodd" fill="rgb(0%, 0%, 0%)" fill-opacity="1" d="M 5.582031 10.105469 C 5.605469 10.121094 5.652344 10.148438 5.652344 10.15625 C 5.652344 10.164062 5.679688 10.179688 5.6875 10.207031 C 5.695312 10.230469 5.6875 10.238281 5.6875 10.261719 C 5.6875 10.28125 5.6875 10.300781 5.679688 10.296875 C 5.671875 10.296875 5.652344 10.304688 5.636719 10.292969 C 5.621094 10.28125 5.605469 10.273438 5.59375 10.261719 C 5.582031 10.25 5.597656 10.242188 5.5625 10.230469 C 5.53125 10.214844 5.527344 10.21875 5.5 10.203125 C 5.472656 10.1875 5.476562 10.191406 5.460938 10.183594 C 5.445312 10.171875 5.429688 10.175781 5.417969 10.152344 C 5.410156 10.125 5.402344 10.125 5.417969 10.105469 C 5.433594 10.089844 5.394531 10.085938 5.441406 10.082031 C 5.488281 10.074219 5.472656 10.074219 5.496094 10.074219 C 5.515625 10.074219 5.523438 10.085938 5.542969 10.09375 C 5.566406 10.101562 5.554688 10.085938 5.582031 10.105469 Z M 5.582031 10.105469 "/>
<path fill-rule="evenodd" fill="rgb(0%, 0%, 0%)" fill-opacity="1" d="M 5.703125 10.933594 C 5.714844 10.902344 5.726562 10.890625 5.726562 10.878906 C 5.730469 10.871094 5.746094 10.84375 5.761719 10.839844 C 5.773438 10.839844 5.8125 10.839844 5.832031 10.84375 C 5.847656 10.847656 5.882812 10.859375 5.894531 10.859375 C 5.90625 10.859375 5.925781 10.867188 5.941406 10.875 C 5.953125 10.882812 5.96875 10.902344 5.976562 10.921875 C 5.988281 10.941406 5.976562 10.9375 5.976562 10.953125 C 5.980469 10.96875 5.992188 10.976562 5.988281 10.980469 C 5.980469 10.984375 5.945312 10.988281 5.9375 10.984375 C 5.929688 10.984375 5.917969 10.972656 5.902344 10.984375 C 5.882812 10.992188 5.882812 11.007812 5.867188 11.019531 C 5.847656 11.035156 5.855469 11.03125 5.832031 11.042969 C 5.8125 11.054688 5.816406 11.058594 5.78125 11.0625 C 5.746094 11.066406 5.746094 11.066406 5.726562 11.058594 C 5.703125 11.050781 5.695312 11.042969 5.683594 11.03125 C 5.671875 11.019531 5.667969 11.015625 5.667969 11.003906 C 5.667969 10.992188 5.703125 10.9375 5.703125 10.933594 Z M 5.703125 10.933594 "/>
<path fill-rule="evenodd" fill="rgb(0%, 0%, 0%)" fill-opacity="1" d="M 3.253906 6.9375 C 3.273438 6.9375 3.414062 6.9375 3.433594 6.9375 C 3.453125 6.9375 3.546875 6.953125 3.558594 6.9375 C 3.566406 6.925781 3.585938 6.914062 3.589844 6.890625 C 3.59375 6.871094 3.601562 6.828125 3.59375 6.816406 C 3.585938 6.808594 3.539062 6.761719 3.53125 6.734375 C 3.527344 6.707031 3.503906 6.734375 3.527344 6.679688 C 3.550781 6.621094 3.574219 6.597656 3.601562 6.550781 C 3.628906 6.507812 3.621094 6.542969 3.652344 6.472656 C 3.683594 6.40625 3.695312 6.40625 3.707031 6.371094 C 3.71875 6.339844 3.730469 6.328125 3.730469 6.308594 C 3.730469 6.289062 3.714844 6.28125 3.730469 6.265625 C 3.742188 6.25 3.753906 6.242188 3.785156 6.25 C 3.820312 6.253906 3.847656 6.289062 3.863281 6.289062 C 3.875 6.289062 3.90625 6.300781 3.9375 6.285156 C 3.96875 6.269531 3.957031 6.304688 3.984375 6.230469 C 4.011719 6.15625 4.003906 6.179688 4.011719 6.144531 C 4.019531 6.105469 3.976562 6.117188 4.015625 6.085938 C 4.058594 6.054688 4.03125 6.078125 4.058594 6.054688 C 4.089844 6.027344 4.113281 6.003906 4.113281 5.988281 C 4.117188 5.972656 4.125 5.941406 4.125 5.914062 C 4.125 5.886719 4.121094 5.871094 4.125 5.835938 C 4.128906 5.804688 4.128906 5.773438 4.128906 5.75 C 4.128906 5.726562 4.128906 5.710938 4.125 5.691406 C 4.121094 5.667969 4.121094 5.664062 4.113281 5.640625 C 4.101562 5.617188 4.089844 5.5625 4.0625 5.5625 C 4.035156 5.558594 4.007812 5.542969 3.914062 5.570312 C 3.820312 5.597656 3.710938 5.707031 3.691406 5.742188 C 3.667969 5.78125 3.460938 6.207031 3.4375 6.273438 C 3.410156 6.339844 3.308594 6.484375 3.296875 6.550781 C 3.285156 6.621094 3.214844 6.761719 3.210938 6.800781 C 3.210938 6.839844 3.199219 6.90625 3.210938 6.941406 C 3.21875 6.976562 3.199219 6.9375 3.253906 6.9375 Z M 3.253906 6.9375 "/>
<path fill-rule="evenodd" fill="rgb(0%, 0%, 0%)" fill-opacity="1" d="M 6.972656 3.027344 C 6.972656 3.027344 4.269531 8.886719 4.261719 9.058594 C 4.246094 9.273438 7.449219 3.859375 7.449219 3.859375 Z M 6.980469 3.546875 L 7.066406 3.609375 L 6.535156 4.503906 C 6.535156 4.449219 6.980469 3.546875 6.980469 3.546875 Z M 6.980469 3.546875 "/>
<path fill-rule="evenodd" fill="rgb(0%, 0%, 0%)" fill-opacity="1" d="M 4.503906 9.476562 C 4.394531 9.511719 8.5 5.582031 8.5 5.582031 L 8.910156 6.214844 C 8.910156 6.214844 4.640625 9.4375 4.503906 9.476562 Z M 4.503906 9.476562 "/>
<path fill-rule="evenodd" fill="rgb(0%, 0%, 0%)" fill-opacity="1" d="M 9.308594 6.808594 C 9.308594 6.808594 5.730469 8.855469 5.546875 9.007812 C 5.777344 8.933594 9.488281 7.25 9.488281 7.25 Z M 9.054688 7.136719 C 9.058594 7.136719 9.0625 7.136719 9.074219 7.140625 C 9.113281 7.15625 9.15625 7.207031 9.15625 7.25 C 9.15625 7.289062 9.140625 7.261719 9.070312 7.296875 C 9 7.335938 8.929688 7.40625 8.875 7.394531 C 8.859375 7.390625 8.792969 7.347656 8.824219 7.296875 C 8.851562 7.242188 8.933594 7.222656 8.996094 7.1875 C 9.042969 7.15625 9.039062 7.136719 9.054688 7.136719 Z M 9.054688 7.136719 "/>
<path fill-rule="evenodd" fill="rgb(0%, 0%, 0%)" fill-opacity="1" d="M 5.234375 9.410156 C 5.320312 9.347656 10.089844 8.265625 10.089844 8.265625 L 10.371094 8.753906 C 10.371094 8.753906 5.390625 9.410156 5.234375 9.410156 Z M 5.234375 9.410156 "/>
<path fill-rule="evenodd" fill="rgb(0%, 0%, 0%)" fill-opacity="1" d="M 6.523438 9.648438 L 10.796875 9.429688 L 10.847656 9.761719 Z M 6.523438 9.648438 "/>
<path fill-rule="evenodd" fill="rgb(0%, 0%, 0%)" fill-opacity="1" d="M 4.917969 9.804688 C 5.0625 9.945312 11.460938 10.683594 11.460938 10.683594 L 11.335938 10.105469 C 11.335938 10.105469 5.058594 9.792969 4.917969 9.804688 Z M 10.050781 10.285156 L 10.980469 10.316406 L 11 10.363281 L 11.007812 10.414062 C 11.007812 10.414062 11.011719 10.453125 11 10.449219 C 10.984375 10.445312 10.050781 10.289062 10.050781 10.285156 Z M 10.050781 10.285156 "/>
<path fill-rule="evenodd" fill="rgb(0%, 0%, 0%)" fill-opacity="1" d="M 4.589844 10.3125 C 4.804688 10.304688 10.902344 11.550781 10.902344 11.550781 L 9.371094 11.515625 C 9.371094 11.515625 4.625 10.445312 4.589844 10.3125 Z M 4.589844 10.3125 "/>
<path fill-rule="evenodd" fill="rgb(0%, 0%, 0%)" fill-opacity="1" d="M 4.332031 10.492188 C 4.460938 10.453125 7.136719 11.507812 7.136719 11.507812 L 6.148438 11.550781 C 6.148438 11.550781 4.359375 10.5625 4.332031 10.492188 Z M 4.332031 10.492188 "/>
<path fill-rule="evenodd" fill="rgb(0%, 0%, 0%)" fill-opacity="1" d="M 3.5 8.941406 C 3.5 8.90625 2.84375 7.527344 2.84375 7.527344 L 2.605469 7.765625 C 2.605469 7.765625 3.226562 9.003906 3.5 8.941406 Z M 3.5 8.941406 "/>
<path fill-rule="evenodd" fill="rgb(0%, 0%, 0%)" fill-opacity="1" d="M 3.601562 8.976562 C 3.554688 8.925781 3.105469 6.957031 3.105469 6.957031 L 3.21875 6.5 C 3.21875 6.5 3.667969 9.050781 3.601562 8.976562 Z M 3.601562 8.976562 "/>
<path fill-rule="evenodd" fill="rgb(0%, 0%, 0%)" fill-opacity="1" d="M 3.894531 9.023438 C 3.96875 8.882812 4.996094 4.046875 4.996094 4.046875 L 4.382812 4.367188 C 4.382812 4.367188 3.847656 8.941406 3.894531 9.023438 Z M 3.894531 9.023438 "/>
<path fill-rule="evenodd" fill="rgb(0%, 0%, 0%)" fill-opacity="1" d="M 5.597656 7.765625 L 7.988281 4.753906 L 8.175781 5.085938 Z M 5.597656 7.765625 "/>
</svg>
