<svg width="64" height="64" viewBox="0 0 1060 1060" fill="none" xmlns="http://www.w3.org/2000/svg">
<path d="M718.562 128.36L668.75 229.329C677.927 233.389 686.862 237.878 695.594 242.704L745.312 141.922C742.679 122.805 731.844 122.727 718.562 128.36Z" fill="#616161"/>
<path d="M961.125 399.391C969.678 387.196 964.551 373.654 951.094 371.985L846.031 410.704C849.852 419.896 856.312 438.86 856.312 438.86C856.312 438.86 883.608 428.803 961.125 399.391Z" fill="#616161"/>
<path d="M816.031 189.391L742.844 274.172C750.683 280.397 758.243 286.982 765.5 293.86L838.719 209.016C838.91 193.242 831.341 186.715 816.031 189.391Z" fill="#616161"/>
<path d="M895.781 272.922L803.562 336.516C809.569 344.492 815.23 352.737 820.531 361.235L912.781 297.641C918.708 276.747 907.344 274.769 895.781 272.922Z" fill="#616161"/>
<path d="M668.75 229.329C764.37 275.433 824.951 343.919 856.312 438.86C873.646 432.333 869.642 433.84 883.608 428.803C851.569 327.789 777.198 246.227 681.438 203.547C676.192 214.244 672.806 219.897 668.75 229.329Z" fill="#292929"/>
</svg>
