<?xml version="1.0" encoding="UTF-8"?>
<svg xmlns="http://www.w3.org/2000/svg" xmlns:xlink="http://www.w3.org/1999/xlink" width="32" height="32" viewBox="0 0 32 32">
<path fill-rule="nonzero" fill="rgb(3.529412%, 6.27451%, 37.647059%)" fill-opacity="1" d="M 7.199219 7.679688 C 5.921875 7.679688 4.847656 8.746094 4.847656 10.027344 L 4.847656 21.972656 C 4.847656 23.253906 5.921875 24.320312 7.199219 24.320312 L 24.800781 24.320312 C 26.078125 24.320312 27.152344 23.253906 27.152344 21.972656 L 27.152344 10.027344 C 27.152344 8.746094 26.078125 7.679688 24.800781 7.679688 Z M 7.199219 7.679688 "/>
<path fill-rule="nonzero" fill="rgb(99.607843%, 99.607843%, 99.607843%)" fill-opacity="1" d="M 24.976562 8.796875 L 7.023438 8.796875 C 6.40625 8.796875 5.90625 9.296875 5.90625 9.910156 L 5.90625 22.089844 C 5.90625 22.703125 6.40625 23.203125 7.023438 23.203125 L 24.976562 23.203125 C 25.59375 23.203125 26.09375 22.703125 26.09375 22.089844 L 26.09375 9.910156 C 26.09375 9.296875 25.59375 8.796875 24.976562 8.796875 Z M 24.976562 8.796875 "/>
<path fill-rule="nonzero" fill="rgb(0%, 51.372549%, 82.352941%)" fill-opacity="1" d="M 19.527344 14.007812 C 18.390625 14.007812 17.964844 14.070312 17.058594 14.496094 C 16.546875 14.738281 16.292969 14.890625 16.277344 15.050781 L 15.824219 19.507812 L 16.453125 20.109375 L 16.882812 20.382812 C 17.648438 20.867188 18.417969 21.042969 19.601562 21.003906 C 20.492188 20.972656 20.714844 20.929688 21.203125 20.707031 C 21.488281 20.578125 21.71875 20.53125 21.71875 20.660156 L 21.734375 20.992188 L 24.453125 20.992188 L 24.4375 17.425781 L 24.4375 14.007812 L 21.71875 14.007812 L 21.71875 14.425781 C 20.875 14.058594 20.503906 14.007812 19.527344 14.007812 Z M 19.535156 15.4375 C 19.804688 15.433594 20.066406 15.492188 20.339844 15.617188 C 21.042969 15.9375 21.4375 16.4375 21.574219 17.191406 C 21.714844 17.96875 21.160156 18.957031 20.390625 19.304688 C 19.179688 19.855469 17.785156 19.082031 17.53125 17.714844 C 17.386719 16.957031 17.925781 16.015625 18.710938 15.648438 C 19 15.511719 19.269531 15.441406 19.535156 15.4375 Z M 19.535156 15.4375 "/>
<path fill-rule="nonzero" fill="rgb(0%, 0%, 0%)" fill-opacity="1" d="M 7.546875 10.882812 L 7.546875 15.742188 L 7.5625 20.992188 L 10.398438 20.992188 L 10.363281 20.511719 C 10.464844 20.238281 10.433594 20.535156 10.804688 20.726562 C 10.953125 20.804688 11.519531 20.921875 11.8125 20.992188 C 13.121094 21.3125 14.628906 21 15.859375 20.335938 C 16.957031 19.746094 17.355469 18.746094 17.410156 17.410156 C 17.4375 16.625 17.195312 16.371094 17.019531 15.90625 C 16.640625 14.902344 15.445312 14.1875 14.066406 13.867188 C 13.265625 13.675781 11.96875 13.75 11.363281 13.980469 C 11.0625 14.09375 10.6875 14.308594 10.378906 14.402344 L 10.378906 10.882812 Z M 12.816406 15.445312 C 13.453125 15.398438 14.132812 15.625 14.65625 16.207031 C 15.375 17.007812 15.011719 18.589844 14.015625 19.175781 C 12.695312 19.851562 11.21875 19.167969 11.015625 17.664062 C 10.839844 16.386719 11.761719 15.53125 12.816406 15.445312 Z M 12.816406 15.445312 "/>
</svg>
