<?xml version="1.0" encoding="UTF-8"?>
<svg xmlns="http://www.w3.org/2000/svg" xmlns:xlink="http://www.w3.org/1999/xlink" width="32" height="32" viewBox="0 0 32 32">
<path fill-rule="nonzero" fill="rgb(99.607843%, 99.607843%, 99.607843%)" fill-opacity="1" d="M 16 29.332031 C 23.363281 29.332031 29.332031 23.363281 29.332031 16 C 29.332031 8.636719 23.363281 2.667969 16 2.667969 C 8.636719 2.667969 2.667969 8.636719 2.667969 16 C 2.667969 23.363281 8.636719 29.332031 16 29.332031 Z M 16 29.332031 "/>
<path fill-rule="evenodd" fill="rgb(0%, 55.294118%, 30.980392%)" fill-opacity="1" d="M 26.667969 16 C 26.667969 10.117188 21.882812 5.332031 16 5.332031 C 10.117188 5.332031 5.332031 10.117188 5.332031 16 C 5.332031 21.882812 10.117188 26.667969 16 26.667969 C 21.882812 26.667969 26.667969 21.882812 26.667969 16 Z M 26.667969 16 "/>
<path fill-rule="evenodd" fill="rgb(99.607843%, 99.607843%, 99.607843%)" fill-opacity="1" d="M 22.769531 18.667969 C 22.769531 21.132812 20.28125 24 16.085938 24 C 13.746094 24 11.046875 22.992188 9.574219 21.722656 L 9.574219 18.519531 C 10.972656 20.453125 13.519531 21.941406 16.085938 21.941406 C 17.65625 21.941406 18.917969 21.078125 18.917969 20.15625 C 18.917969 16.679688 9.4375 18.828125 9.4375 12.835938 C 9.4375 9.691406 12.636719 8 15.507812 8 C 17.902344 8 20.046875 8.753906 21.753906 10.023438 L 21.753906 12.691406 C 20.28125 11.160156 18.058594 9.820312 15.453125 9.820312 C 13.980469 9.820312 13.136719 10.570312 13.136719 11.453125 C 13.136719 15.171875 22.769531 12.5625 22.769531 18.667969 Z M 22.769531 18.667969 "/>
</svg>
