<?xml version="1.0" encoding="UTF-8"?>
<svg xmlns="http://www.w3.org/2000/svg" xmlns:xlink="http://www.w3.org/1999/xlink" width="32" height="32" viewBox="0 0 32 32">
<path fill-rule="evenodd" fill="rgb(0%, 0%, 0%)" fill-opacity="1" d="M 22.664062 12.6875 C 22.027344 12.6875 21.664062 12.886719 20.933594 13.925781 C 20.324219 15.023438 19.5 15 19.5 15 L 17.5 15 C 16.78125 14.78125 16.636719 14.21875 16.433594 13.398438 C 16.328125 12.992188 16.210938 12.523438 16 12 C 15.585938 10.984375 15.066406 10 14 10 L 10 10 C 9.074219 10 8.5 10.851562 8.5 11.5 C 8.5 11.5 10.445312 12.046875 9.332031 14.324219 C 8.351562 16.328125 9.726562 17.542969 10.5 18 L 11.5 18 C 11.5 18.34375 11.324219 18.738281 11.03125 19.148438 C 10.796875 19.472656 10.523438 19.765625 10.292969 20 L 8 20 C 7.722656 20 7.5 20.222656 7.5 20.5 C 7.5 20.777344 7.722656 21 8 21 L 22 21 C 22.414062 21 22.878906 20.917969 23.261719 20.703125 C 23.664062 20.476562 24 20.078125 24 19.5 C 24 19.019531 23.828125 18.664062 23.644531 18.429688 C 23.554688 18.3125 23.464844 18.226562 23.394531 18.167969 C 23.351562 18.132812 23.300781 18.097656 23.253906 18.066406 C 23.253906 18.066406 22.773438 17.851562 22.566406 18.25 C 22.410156 18.519531 22.546875 18.769531 22.761719 18.945312 C 22.785156 18.960938 22.820312 18.996094 22.855469 19.039062 C 22.921875 19.128906 23 19.273438 23 19.5 C 23 19.628906 22.945312 19.734375 22.773438 19.832031 C 22.582031 19.9375 22.300781 20 22 20 L 21.171875 20 C 20.535156 19.484375 19.863281 19.292969 19.378906 18.554688 C 19.242188 18.34375 19.140625 18.148438 19.070312 17.996094 C 19.644531 17.945312 21.21875 17.351562 21.660156 16.34375 C 21.808594 16.007812 21.988281 15.566406 22.15625 15.152344 C 22.351562 14.671875 22.53125 14.226562 22.632812 14.027344 C 22.691406 14.289062 22.925781 14.488281 23.207031 14.488281 C 23.535156 14.488281 23.835938 14.222656 23.835938 13.898438 C 23.835938 13.121094 23.316406 12.6875 22.664062 12.6875 Z M 11.636719 20 L 12.5 18 L 18.003906 18 C 18.019531 18.058594 18.058594 18.167969 18.121094 18.3125 C 18.207031 18.519531 18.34375 18.800781 18.542969 19.105469 C 18.734375 19.394531 18.980469 19.707031 19.300781 20 Z M 11.636719 20 "/>
</svg>
