<?xml version="1.0" encoding="UTF-8"?>
<svg xmlns="http://www.w3.org/2000/svg" xmlns:xlink="http://www.w3.org/1999/xlink" width="12" height="12" viewBox="0 0 12 12" version="1.1">
<g id="surface1">
<path style=" stroke:none;fill-rule:evenodd;fill:rgb(100%,100%,100%);fill-opacity:0.74902;" d="M 3.3125 5.652344 L 2.136719 6.046875 C 1.378906 6.296875 0.566406 5.890625 0.3125 5.136719 C 0.0625 4.378906 0.46875 3.566406 1.222656 3.3125 L 5.164062 2 C 5.480469 1.046875 6.378906 0.359375 7.441406 0.359375 C 7.949219 0.359375 8.417969 0.519531 8.804688 0.785156 L 9.863281 0.433594 C 10.617188 0.183594 11.433594 0.589844 11.6875 1.34375 C 11.9375 2.097656 11.53125 2.914062 10.773438 3.164062 L 9.71875 3.519531 C 9.636719 3.765625 9.511719 3.996094 9.359375 4.199219 C 10.683594 4.199219 11.761719 5.273438 11.761719 6.601562 L 11.761719 9.960938 C 11.761719 11.019531 10.898438 11.878906 9.839844 11.878906 L 5.039062 11.878906 C 3.980469 11.878906 3.121094 11.019531 3.121094 9.960938 L 3.121094 6.601562 C 3.121094 6.265625 3.1875 5.945312 3.3125 5.652344 Z M 3.3125 5.652344 "/>
<path style=" stroke:none;fill-rule:evenodd;fill:rgb(0%,57.254905%,85.490197%);fill-opacity:1;" d="M 10.777344 1.648438 C 10.859375 1.898438 10.722656 2.171875 10.472656 2.253906 L 8.878906 2.785156 C 8.867188 3.402344 8.472656 3.921875 7.921875 4.117188 L 7.921875 5.160156 L 9.359375 5.160156 C 10.15625 5.160156 10.800781 5.804688 10.800781 6.601562 L 10.800781 9.960938 C 10.800781 10.488281 10.371094 10.921875 9.839844 10.921875 L 5.039062 10.921875 C 4.511719 10.921875 4.078125 10.488281 4.078125 9.960938 L 4.078125 6.601562 C 4.078125 5.804688 4.726562 5.160156 5.519531 5.160156 L 6.960938 5.160156 L 6.960938 4.117188 C 6.699219 4.027344 6.472656 3.859375 6.304688 3.644531 L 1.832031 5.136719 C 1.582031 5.21875 1.308594 5.082031 1.226562 4.832031 C 1.140625 4.582031 1.277344 4.308594 1.527344 4.222656 L 6 2.734375 C 6.015625 1.949219 6.652344 1.320312 7.441406 1.320312 C 7.902344 1.320312 8.3125 1.539062 8.578125 1.875 L 10.167969 1.34375 C 10.417969 1.261719 10.691406 1.398438 10.777344 1.648438 Z M 9.839844 9 L 9.839844 6.121094 L 5.039062 6.121094 L 5.039062 9 Z M 9.839844 9 "/>
</g>
</svg>
