<?xml version="1.0" encoding="UTF-8"?>
<svg xmlns="http://www.w3.org/2000/svg" xmlns:xlink="http://www.w3.org/1999/xlink" width="32" height="32" viewBox="0 0 32 32">
<path fill-rule="nonzero" fill="rgb(46.666667%, 46.666667%, 46.666667%)" fill-opacity="1" d="M 29.332031 2.667969 L 2.667969 2.667969 L 2.667969 29.332031 L 29.332031 29.332031 Z M 29.332031 2.667969 "/>
<path fill-rule="nonzero" fill="rgb(2.352941%, 39.215686%, 67.058824%)" fill-opacity="1" d="M 26.667969 5.332031 L 5.332031 5.332031 L 5.332031 26.667969 L 26.667969 26.667969 Z M 26.667969 5.332031 "/>
<path fill-rule="nonzero" fill="rgb(46.666667%, 46.666667%, 46.666667%)" fill-opacity="1" d="M 16.753906 23.964844 C 18.042969 23.84375 19.246094 23.457031 20.203125 22.847656 C 20.683594 22.542969 21.359375 21.910156 21.65625 21.496094 C 22.085938 20.882812 22.398438 20.152344 22.566406 19.359375 C 22.632812 19.054688 22.640625 18.515625 22.652344 13.511719 L 22.667969 8 L 18.695312 8 L 18.695312 13.046875 C 18.695312 16.363281 18.679688 18.222656 18.648438 18.472656 C 18.597656 18.921875 18.441406 19.457031 18.285156 19.734375 C 18.085938 20.082031 17.722656 20.414062 17.339844 20.589844 C 16.292969 21.078125 14.761719 20.902344 14.035156 20.214844 C 13.664062 19.863281 13.410156 19.296875 13.304688 18.585938 C 13.277344 18.410156 13.261719 16.371094 13.261719 13.152344 L 13.261719 8 L 9.332031 8 L 9.332031 13.21875 C 9.332031 18.457031 9.34375 18.898438 9.484375 19.558594 C 9.832031 21.191406 10.90625 22.492188 12.546875 23.273438 C 13.75 23.84375 15.308594 24.097656 16.753906 23.964844 Z M 16.753906 23.964844 "/>
</svg>
