<?xml version="1.0" encoding="UTF-8"?>
<svg xmlns="http://www.w3.org/2000/svg" xmlns:xlink="http://www.w3.org/1999/xlink" width="12" height="12" viewBox="0 0 12 12" version="1.1">
<g id="surface1">
<path style=" stroke:none;fill-rule:nonzero;fill:rgb(99.607843%,99.607843%,99.607843%);fill-opacity:0.788235;" d="M 7.890625 2.722656 C 7.347656 2.734375 6.816406 2.894531 6.367188 3.175781 C 6.285156 3.0625 6.175781 2.96875 6.046875 2.90625 C 5.921875 2.839844 5.78125 2.804688 5.640625 2.804688 L 1.996094 2.804688 C 1.757812 2.804688 1.527344 2.902344 1.359375 3.070312 C 1.1875 3.238281 1.09375 3.46875 1.09375 3.710938 L 1.09375 4.601562 C 1.09375 4.839844 1.1875 5.070312 1.359375 5.238281 C 1.527344 5.410156 1.757812 5.503906 1.996094 5.503906 L 2.40625 5.503906 L 2.40625 8.285156 C 2.40625 8.523438 2.503906 8.753906 2.671875 8.921875 C 2.839844 9.09375 3.070312 9.1875 3.308594 9.1875 L 4.328125 9.1875 C 4.570312 9.1875 4.800781 9.09375 4.96875 8.921875 C 5.136719 8.753906 5.234375 8.523438 5.234375 8.285156 L 5.234375 7.320312 C 5.355469 7.691406 5.539062 8.035156 5.789062 8.328125 C 5.789062 8.332031 5.792969 8.332031 5.792969 8.332031 C 6.324219 8.949219 7.136719 9.277344 7.96875 9.277344 C 8.804688 9.277344 9.617188 8.949219 10.148438 8.328125 C 10.679688 7.710938 10.90625 6.886719 10.90625 6 C 10.90625 5.113281 10.679688 4.289062 10.148438 3.671875 C 9.617188 3.050781 8.804688 2.722656 7.96875 2.722656 C 7.960938 2.722656 7.9375 2.722656 7.890625 2.722656 Z M 7.972656 5.445312 C 8.007812 5.546875 8.050781 5.726562 8.050781 6 C 8.050781 6.277344 8.007812 6.453125 7.972656 6.554688 C 7.933594 6.453125 7.894531 6.277344 7.894531 6 C 7.894531 5.726562 7.933594 5.546875 7.972656 5.445312 Z M 7.972656 5.445312 "/>
<path style=" stroke:none;fill-rule:nonzero;fill:rgb(42.352942%,0%,23.921569%);fill-opacity:1;" d="M 1.996094 3.710938 L 5.640625 3.710938 L 5.640625 4.601562 L 4.328125 4.601562 L 4.328125 8.285156 L 3.308594 8.285156 L 3.308594 4.601562 L 1.996094 4.601562 L 1.996094 3.710938 "/>
<path style=" stroke:none;fill-rule:nonzero;fill:rgb(42.352942%,0%,23.921569%);fill-opacity:1;" d="M 7.96875 4.480469 C 7.660156 4.480469 7.417969 4.613281 7.246094 4.878906 C 7.074219 5.144531 6.992188 5.519531 6.992188 6 C 6.992188 6.480469 7.074219 6.855469 7.246094 7.121094 C 7.417969 7.386719 7.660156 7.519531 7.96875 7.519531 C 8.28125 7.519531 8.523438 7.386719 8.695312 7.121094 C 8.867188 6.855469 8.953125 6.480469 8.953125 6 C 8.953125 5.519531 8.867188 5.144531 8.695312 4.878906 C 8.523438 4.613281 8.28125 4.480469 7.96875 4.480469 Z M 7.96875 3.625 C 8.605469 3.625 9.101562 3.835938 9.464844 4.257812 C 9.824219 4.679688 10.003906 5.261719 10.003906 6 C 10.003906 6.742188 9.824219 7.320312 9.464844 7.742188 C 9.101562 8.164062 8.605469 8.375 7.96875 8.375 C 7.335938 8.375 6.839844 8.164062 6.476562 7.742188 C 6.117188 7.320312 5.9375 6.742188 5.9375 6 C 5.9375 5.261719 6.117188 4.679688 6.476562 4.257812 C 6.839844 3.835938 7.335938 3.625 7.96875 3.625 Z M 7.96875 3.625 "/>
</g>
</svg>
