<?xml version="1.0" encoding="UTF-8"?>
<svg xmlns="http://www.w3.org/2000/svg" xmlns:xlink="http://www.w3.org/1999/xlink" width="32" height="32" viewBox="0 0 32 32">
<path fill-rule="nonzero" fill="rgb(99.607843%, 99.607843%, 99.607843%)" fill-opacity="1" d="M 9.644531 4.734375 C 9.496094 4.730469 9.347656 4.761719 9.210938 4.828125 C 9.078125 4.890625 8.964844 4.988281 8.875 5.109375 C 8.875 5.109375 8.304688 5.894531 7.730469 6.863281 C 7.152344 7.835938 6.5 8.867188 6.5 10.046875 C 6.5 11.753906 7.90625 13.160156 9.617188 13.160156 C 11.328125 13.160156 12.734375 11.753906 12.734375 10.046875 C 12.734375 8.855469 12.082031 7.792969 11.503906 6.828125 C 10.925781 5.867188 10.351562 5.101562 10.351562 5.101562 C 10.269531 4.988281 10.164062 4.898438 10.039062 4.835938 C 9.917969 4.773438 9.78125 4.738281 9.644531 4.734375 Z M 9.644531 4.734375 "/>
<path fill-rule="nonzero" fill="rgb(5.882353%, 36.078431%, 94.117647%)" fill-opacity="1" d="M 9.617188 5.871094 C 9.617188 5.871094 7.566406 8.691406 7.566406 9.972656 C 7.566406 11.101562 8.488281 12.023438 9.617188 12.023438 C 10.746094 12.023438 11.667969 11.101562 11.667969 9.972656 C 11.667969 8.613281 9.617188 5.871094 9.617188 5.871094 Z M 9.617188 6.875 C 9.617188 6.875 11.152344 8.925781 11.152344 9.941406 C 11.152344 10.785156 10.460938 11.476562 9.617188 11.476562 C 8.773438 11.476562 8.082031 10.785156 8.082031 9.941406 C 8.082031 8.984375 9.617188 6.875 9.617188 6.875 Z M 9.617188 6.875 "/>
</svg>
