<?xml version="1.0" encoding="UTF-8"?>
<svg xmlns="http://www.w3.org/2000/svg" xmlns:xlink="http://www.w3.org/1999/xlink" width="32" height="32" viewBox="0 0 32 32">
<defs>
<filter id="filter-remove-color" x="0%" y="0%" width="100%" height="100%">
<feColorMatrix color-interpolation-filters="sRGB" values="0 0 0 0 1 0 0 0 0 1 0 0 0 0 1 0 0 0 1 0" />
</filter>
<mask id="mask-0">
<g filter="url(#filter-remove-color)">
<rect x="-3.2" y="-3.2" width="38.4" height="38.4" fill="rgb(0%, 0%, 0%)" fill-opacity="0.426087"/>
</g>
</mask>
<clipPath id="clip-0">
<path clip-rule="nonzero" d="M 3 17 L 28 17 L 28 32 L 3 32 Z M 3 17 "/>
</clipPath>
<clipPath id="clip-1">
<rect x="0" y="0" width="32" height="32"/>
</clipPath>
<g id="source-7" clip-path="url(#clip-1)">
<g clip-path="url(#clip-0)">
<path fill-rule="nonzero" fill="rgb(55.294118%, 55.294118%, 55.294118%)" fill-opacity="1" d="M 12.726562 17.441406 C 12.484375 17.441406 12.25 17.511719 12.054688 17.648438 C 11.855469 17.78125 11.699219 17.972656 11.613281 18.195312 L 10.363281 21.328125 L 9.574219 21.328125 L 5.730469 19.65625 C 5.507812 19.558594 5.265625 19.53125 5.027344 19.578125 C 4.789062 19.621094 4.574219 19.734375 4.402344 19.90625 C 4.230469 20.078125 4.117188 20.292969 4.070312 20.53125 C 4.027344 20.765625 4.054688 21.011719 4.148438 21.234375 L 6.492188 26.628906 L 4.707031 26.628906 C 4.550781 26.628906 4.394531 26.660156 4.25 26.71875 C 4.105469 26.777344 3.972656 26.867188 3.859375 26.980469 C 3.75 27.089844 3.660156 27.222656 3.601562 27.367188 C 3.539062 27.515625 3.507812 27.671875 3.507812 27.828125 L 3.507812 29.207031 C 3.507812 29.363281 3.539062 29.519531 3.601562 29.667969 C 3.660156 29.8125 3.75 29.945312 3.859375 30.054688 C 3.972656 30.167969 4.105469 30.253906 4.25 30.316406 C 4.394531 30.375 4.550781 30.40625 4.707031 30.40625 L 12.558594 30.40625 C 13.203125 31.4375 14.335938 32.128906 15.628906 32.128906 C 16.921875 32.128906 18.054688 31.4375 18.695312 30.40625 L 26.546875 30.40625 C 26.703125 30.40625 26.859375 30.375 27.003906 30.316406 C 27.152344 30.253906 27.285156 30.167969 27.394531 30.054688 C 27.507812 29.945312 27.59375 29.8125 27.65625 29.667969 C 27.714844 29.519531 27.746094 29.363281 27.746094 29.207031 L 27.746094 27.828125 C 27.746094 27.671875 27.714844 27.515625 27.65625 27.367188 C 27.59375 27.222656 27.507812 27.089844 27.394531 26.980469 C 27.285156 26.867188 27.152344 26.777344 27.003906 26.71875 C 26.859375 26.660156 26.703125 26.628906 26.546875 26.628906 L 24.695312 26.628906 L 26.976562 21.21875 C 27.070312 20.996094 27.09375 20.753906 27.046875 20.515625 C 27 20.28125 26.882812 20.066406 26.710938 19.898438 C 26.539062 19.730469 26.320312 19.617188 26.085938 19.574219 C 25.847656 19.53125 25.605469 19.558594 25.382812 19.65625 L 21.613281 21.328125 L 20.84375 21.328125 L 20.742188 21.078125 C 20.722656 21.03125 20.699219 20.984375 20.675781 20.9375 L 19.578125 18.195312 C 19.492188 17.972656 19.335938 17.78125 19.136719 17.648438 C 18.941406 17.511719 18.707031 17.441406 18.464844 17.441406 Z M 12.726562 17.441406 "/>
</g>
</g>
<mask id="mask-1">
<g filter="url(#filter-remove-color)">
<rect x="-3.2" y="-3.2" width="38.4" height="38.4" fill="rgb(0%, 0%, 0%)" fill-opacity="0.130435"/>
</g>
</mask>
<clipPath id="clip-2">
<rect x="0" y="0" width="32" height="32"/>
</clipPath>
<g id="source-17" clip-path="url(#clip-2)">
<path fill-rule="nonzero" fill="rgb(0%, 0%, 0%)" fill-opacity="1" d="M 23.339844 21.890625 L 25.867188 20.734375 L 22.652344 28.355469 L 21.363281 28.347656 Z M 23.339844 21.890625 "/>
</g>
</defs>
<g mask="url(#mask-0)">
<use xlink:href="#source-7"/>
</g>
<path fill-rule="nonzero" fill="rgb(90.980392%, 0%, 0%)" fill-opacity="1" d="M 5.246094 20.738281 L 9.320312 22.511719 L 21.863281 22.511719 L 25.867188 20.734375 L 22.652344 28.355469 L 8.554688 28.355469 Z M 5.246094 20.738281 "/>
<path fill-rule="nonzero" fill="rgb(90.980392%, 0%, 0%)" fill-opacity="1" d="M 12.722656 18.625 L 18.460938 18.625 L 20.03125 22.554688 L 11.152344 22.554688 Z M 12.722656 18.625 "/>
<path fill-rule="nonzero" fill="rgb(99.607843%, 99.607843%, 99.607843%)" fill-opacity="1" d="M 15.722656 18.625 L 15.722656 28.355469 L 22.652344 28.355469 L 25.867188 20.734375 L 21.863281 22.511719 L 20.015625 22.511719 L 18.460938 18.625 Z M 15.722656 18.625 "/>
<path fill="none" stroke-width="25" stroke-linecap="butt" stroke-linejoin="miter" stroke="rgb(0%, 0%, 0%)" stroke-opacity="1" stroke-miterlimit="4" d="M 85.314941 516.5625 L 481.091309 516.5625 " transform="matrix(0.0551724, 0, 0, 0.0551724, 0, 0)"/>
<path fill-rule="nonzero" fill="rgb(99.607843%, 99.607843%, 99.607843%)" fill-opacity="1" stroke-width="20.5723" stroke-linecap="round" stroke-linejoin="round" stroke="rgb(0%, 0%, 0%)" stroke-opacity="1" stroke-miterlimit="10" d="M 316.833496 516.420898 C 316.833496 525.341797 313.293457 533.837891 306.992188 540.13916 C 300.690918 546.44043 292.124023 549.980469 283.203125 549.980469 C 274.282227 549.980469 265.715332 546.44043 259.414062 540.13916 C 253.112793 533.837891 249.572754 525.341797 249.572754 516.420898 C 249.572754 507.5 253.112793 498.933105 259.414062 492.631836 C 265.715332 486.330566 274.282227 482.790527 283.203125 482.790527 C 292.124023 482.790527 300.690918 486.330566 306.992188 492.631836 C 313.293457 498.933105 316.833496 507.5 316.833496 516.420898 Z M 316.833496 516.420898 " transform="matrix(0.0551724, 0, 0, 0.0551724, 0, 0)"/>
<path fill-rule="nonzero" fill="rgb(0%, 0%, 0%)" fill-opacity="1" d="M 11.578125 21.507812 L 11.164062 22.511719 L 20.027344 22.511719 L 19.625 21.507812 Z M 11.578125 21.507812 "/>
<g mask="url(#mask-1)">
<use xlink:href="#source-17"/>
</g>
</svg>
