<?xml version="1.0" encoding="UTF-8"?>
<svg xmlns="http://www.w3.org/2000/svg" xmlns:xlink="http://www.w3.org/1999/xlink" width="24" height="24" viewBox="0 0 24 24">
<path fill-rule="evenodd" fill="rgb(0%, 0%, 0%)" fill-opacity="1" d="M 4.929688 4.929688 C 6.804688 3.054688 9.347656 2 12 2 C 14.652344 2 17.195312 3.054688 19.070312 4.929688 C 20.945312 6.804688 22 9.347656 22 12 C 22 14.652344 20.945312 17.195312 19.070312 19.070312 C 17.195312 20.945312 14.652344 22 12 22 C 9.347656 22 6.804688 20.945312 4.929688 19.070312 C 3.054688 17.195312 2 14.652344 2 12 C 2 9.347656 3.054688 6.804688 4.929688 4.929688 Z M 4.929688 4.929688 "/>
<path fill-rule="nonzero" fill="rgb(99.607843%, 99.607843%, 99.607843%)" fill-opacity="1" d="M 20 12 C 20 14.121094 19.15625 16.15625 17.65625 17.65625 C 16.15625 19.15625 14.121094 20 12 20 C 9.878906 20 7.84375 19.15625 6.34375 17.65625 C 4.84375 16.15625 4 14.121094 4 12 C 4 9.878906 4.84375 7.84375 6.34375 6.34375 C 7.84375 4.84375 9.878906 4 12 4 C 14.121094 4 16.15625 4.84375 17.65625 6.34375 C 19.15625 7.84375 20 9.878906 20 12 Z M 20 12 "/>
</svg>
