<?xml version="1.0" encoding="UTF-8"?>
<svg xmlns="http://www.w3.org/2000/svg" xmlns:xlink="http://www.w3.org/1999/xlink" width="12" height="12" viewBox="0 0 12 12" version="1.1">
<g id="surface1">
<path style=" stroke:none;fill-rule:nonzero;fill:rgb(99.607843%,99.607843%,99.607843%);fill-opacity:1;" d="M 5.898438 2.609375 C 5.492188 2.625 5.085938 2.722656 4.707031 2.90625 C 4.558594 2.980469 4.40625 3.074219 4.277344 3.167969 C 4.210938 3.214844 4.152344 3.257812 4.09375 3.308594 C 4.070312 3.328125 4.042969 3.355469 4.015625 3.386719 C 4.015625 3.390625 4.015625 3.390625 4.011719 3.390625 C 3.984375 3.410156 3.96875 3.425781 3.957031 3.433594 C 3.929688 3.457031 3.914062 3.472656 3.898438 3.492188 C 3.867188 3.523438 3.835938 3.558594 3.800781 3.601562 C 3.734375 3.679688 3.660156 3.769531 3.597656 3.855469 C 3.433594 4.085938 3.300781 4.355469 3.214844 4.625 C 2.980469 5.367188 3.039062 6.148438 3.382812 6.839844 C 3.433594 6.941406 3.511719 7.027344 3.570312 7.117188 C 3.542969 7.214844 3.539062 7.320312 3.570312 7.417969 C 3.597656 7.515625 3.65625 7.601562 3.734375 7.667969 L 5.671875 9.273438 C 5.765625 9.351562 5.886719 9.394531 6.007812 9.394531 C 6.132812 9.390625 6.25 9.347656 6.339844 9.265625 L 8.203125 7.65625 C 8.261719 7.605469 8.308594 7.539062 8.339844 7.46875 C 8.371094 7.394531 8.382812 7.316406 8.378906 7.234375 C 8.382812 7.226562 8.390625 7.21875 8.398438 7.210938 C 8.5625 6.980469 8.699219 6.710938 8.78125 6.4375 C 8.972656 5.84375 8.972656 5.222656 8.78125 4.625 C 8.699219 4.355469 8.5625 4.085938 8.398438 3.855469 C 8.335938 3.769531 8.261719 3.675781 8.191406 3.589844 C 8.15625 3.550781 8.121094 3.511719 8.089844 3.476562 C 8.074219 3.460938 8.054688 3.445312 8.03125 3.421875 C 8.015625 3.410156 8.003906 3.398438 7.972656 3.375 C 7.972656 3.375 7.96875 3.375 7.96875 3.375 C 7.941406 3.34375 7.914062 3.320312 7.894531 3.300781 C 7.867188 3.277344 7.835938 3.25 7.800781 3.222656 C 7.25 2.792969 6.574219 2.585938 5.898438 2.609375 Z M 5.898438 2.609375 "/>
<path style=" stroke:none;fill-rule:nonzero;fill:rgb(88.235295%,3.529412%,8.627451%);fill-opacity:1;" d="M 4.0625 7.269531 L 4.90625 7.261719 L 4.90625 5.039062 L 5.953125 5.785156 L 7.0625 5.039062 L 7.0625 7.273438 L 7.863281 7.269531 L 6.003906 8.875 Z M 4.0625 7.269531 "/>
<path style=" stroke:none;fill-rule:nonzero;fill:rgb(0.392157%,13.333334%,41.176471%);fill-opacity:1;" d="M 4.203125 7.140625 C 4.050781 6.964844 3.945312 6.808594 3.84375 6.609375 C 3.558594 6.03125 3.511719 5.40625 3.710938 4.78125 C 3.769531 4.597656 3.914062 4.304688 4.019531 4.160156 C 4.113281 4.027344 4.296875 3.808594 4.316406 3.808594 C 4.332031 3.808594 4.324219 7.222656 4.328125 7.257812 C 4.328125 7.265625 4.257812 7.207031 4.203125 7.140625 Z M 7.671875 3.796875 C 7.6875 3.796875 7.886719 4.023438 7.980469 4.15625 C 8.085938 4.304688 8.230469 4.597656 8.289062 4.78125 C 8.449219 5.289062 8.449219 5.777344 8.289062 6.28125 C 8.230469 6.46875 8.085938 6.761719 7.980469 6.910156 C 7.890625 7.035156 7.6875 7.253906 7.671875 7.253906 C 7.664062 6.105469 7.652344 4.949219 7.671875 3.796875 Z M 4.382812 3.757812 C 4.371094 3.71875 4.71875 3.476562 4.933594 3.371094 C 5.765625 2.964844 6.757812 3.066406 7.480469 3.632812 C 7.539062 3.675781 7.59375 3.722656 7.605469 3.734375 C 7.0625 4.199219 5.984375 4.957031 5.984375 4.957031 C 5.984375 4.957031 4.972656 4.210938 4.382812 3.757812 Z M 4.382812 3.757812 "/>
</g>
</svg>
