<?xml version="1.0" encoding="UTF-8"?>
<svg xmlns="http://www.w3.org/2000/svg" xmlns:xlink="http://www.w3.org/1999/xlink" width="64" height="64" viewBox="0 0 64 64">
<defs>
<filter id="filter-remove-color" x="0%" y="0%" width="100%" height="100%">
<feColorMatrix color-interpolation-filters="sRGB" values="0 0 0 0 1 0 0 0 0 1 0 0 0 0 1 0 0 0 1 0" />
</filter>
<mask id="mask-0">
<g filter="url(#filter-remove-color)">
<rect x="-6.4" y="-6.4" width="76.8" height="76.8" fill="rgb(0%, 0%, 0%)" fill-opacity="0.41791"/>
</g>
</mask>
<clipPath id="clip-0">
<path clip-rule="nonzero" d="M 2 16 L 59 16 L 59 64 L 2 64 Z M 2 16 "/>
</clipPath>
<clipPath id="clip-1">
<rect x="0" y="0" width="64" height="64"/>
</clipPath>
<g id="source-6" clip-path="url(#clip-1)">
<g clip-path="url(#clip-0)">
<path fill="none" stroke-width="29.002001" stroke-linecap="butt" stroke-linejoin="miter" stroke="rgb(77.647059%, 72.54902%, 100%)" stroke-opacity="1" stroke-miterlimit="4" d="M 804.575195 727.003174 C 804.575195 805.480957 773.455811 880.723877 717.945557 936.234131 C 662.435303 991.679688 587.192383 1022.86377 508.7146 1022.86377 C 430.236816 1022.86377 354.993896 991.679688 299.483643 936.234131 C 244.038086 880.723877 212.854004 805.480957 212.854004 727.003174 C 212.854004 648.525391 244.038086 573.282471 299.483643 517.772217 C 354.993896 462.261963 430.236816 431.142578 508.7146 431.142578 C 587.192383 431.142578 662.435303 462.261963 717.945557 517.772217 C 773.455811 573.282471 804.575195 648.525391 804.575195 727.003174 Z M 804.575195 727.003174 " transform="matrix(0.0603774, 0, 0, 0.0603774, 0, 0)"/>
</g>
</g>
</defs>
<g mask="url(#mask-0)">
<use xlink:href="#source-6"/>
</g>
</svg>
