<?xml version="1.0" encoding="UTF-8"?>
<svg xmlns="http://www.w3.org/2000/svg" xmlns:xlink="http://www.w3.org/1999/xlink" width="24" height="24" viewBox="0 0 24 24">
<path fill-rule="nonzero" fill="rgb(0%, 0%, 0%)" fill-opacity="1" d="M 6.503906 13.609375 L 8.53125 16.035156 L 10.585938 13.609375 L 9.335938 13.609375 L 9.335938 7.921875 L 7.785156 7.921875 L 7.785156 13.609375 L 6.503906 13.609375 "/>
<path fill-rule="nonzero" fill="rgb(0%, 0%, 0%)" fill-opacity="1" d="M 6.503906 10.007812 L 8.53125 12.433594 L 10.585938 10.007812 L 9.335938 10.007812 L 9.335938 9.421875 L 7.785156 9.421875 L 7.785156 10.007812 L 6.503906 10.007812 "/>
<path fill-rule="nonzero" fill="rgb(0%, 0%, 0%)" fill-opacity="1" d="M 13.304688 10.574219 L 15.332031 8.148438 L 17.386719 10.574219 L 16.136719 10.574219 L 16.136719 16.261719 L 14.585938 16.261719 L 14.585938 10.574219 L 13.304688 10.574219 "/>
<path fill-rule="nonzero" fill="rgb(0%, 0%, 0%)" fill-opacity="1" d="M 13.304688 14.175781 L 15.332031 11.75 L 17.386719 14.175781 L 16.136719 14.175781 L 16.136719 14.761719 L 14.585938 14.761719 L 14.585938 14.175781 L 13.304688 14.175781 "/>
</svg>
