<?xml version="1.0" encoding="UTF-8"?>
<svg xmlns="http://www.w3.org/2000/svg" xmlns:xlink="http://www.w3.org/1999/xlink" width="12" height="12" viewBox="0 0 12 12" version="1.1">
<defs>
<filter id="alpha" filterUnits="objectBoundingBox" x="0%" y="0%" width="100%" height="100%">
  <feColorMatrix type="matrix" in="SourceGraphic" values="0 0 0 0 1 0 0 0 0 1 0 0 0 0 1 0 0 0 1 0"/>
</filter>
<mask id="mask0">
  <g filter="url(#alpha)">
<rect x="0" y="0" width="12" height="12" style="fill:rgb(0%,0%,0%);fill-opacity:0.5;stroke:none;"/>
  </g>
</mask>
<clipPath id="clip1">
  <rect x="0" y="0" width="12" height="12"/>
</clipPath>
<g id="surface5" clip-path="url(#clip1)">
<path style=" stroke:none;fill-rule:nonzero;fill:rgb(100%,100%,100%);fill-opacity:1;" d="M 10 10 L 3 10 L 3 4 L 2 4 L 2 11 C 2 11.550781 2.449219 12 3 12 L 9 12 C 9.550781 12 10 11.550781 10 11 Z M 10 10 "/>
</g>
</defs>
<g id="surface1">
<path style=" stroke:none;fill-rule:evenodd;fill:rgb(100%,100%,100%);fill-opacity:0.2;" d="M 3 10 C 3 10.550781 3.449219 11 4 11 L 10 11 C 10.550781 11 11 10.550781 11 10 L 11 2 C 11 1.449219 10.550781 1 10 1 L 4 1 C 3.449219 1 3 1.449219 3 2 Z M 3 10 "/>
<use xlink:href="#surface5" mask="url(#mask0)"/>
<path style=" stroke:none;fill-rule:evenodd;fill:rgb(100%,100%,100%);fill-opacity:1;" d="M 1 1 C 0.449219 1 0 1.449219 0 2 L 0 3 C 0 3.550781 0.449219 4 1 4 L 3 4 L 3 10 C 3 10.550781 3.449219 11 4 11 L 10 11 C 10.550781 11 11 10.550781 11 10 L 11 4 C 11.550781 4 12 3.550781 12 3 L 12 2 C 12 1.449219 11.550781 1 11 1 Z M 1 3 L 1 2 L 3 2 L 3 3 Z M 10 2 L 10 10 L 7 10 C 7.277344 10 7.5 9.777344 7.5 9.5 L 7.5 9 C 8.328125 9 9 8.328125 9 7.5 C 9 6.671875 8.328125 6 7.5 6 L 6.5 6 C 6.222656 6 6 5.777344 6 5.5 C 6 5.222656 6.222656 5 6.5 5 L 8.5 5 C 8.777344 5 9 4.777344 9 4.5 C 9 4.222656 8.777344 4 8.5 4 L 7.5 4 L 7.5 3.5 C 7.5 3.222656 7.277344 3 7 3 C 6.722656 3 6.5 3.222656 6.5 3.5 L 6.5 4 C 5.671875 4 5 4.671875 5 5.5 C 5 6.328125 5.671875 7 6.5 7 L 7.5 7 C 7.777344 7 8 7.222656 8 7.5 C 8 7.777344 7.777344 8 7.5 8 L 5.5 8 C 5.222656 8 5 8.222656 5 8.5 C 5 8.777344 5.222656 9 5.5 9 L 6.5 9 L 6.5 9.5 C 6.5 9.777344 6.722656 10 7 10 L 4 10 L 4 2 Z M 10 2 "/>
</g>
</svg>
