<?xml version="1.0" encoding="UTF-8"?>
<svg xmlns="http://www.w3.org/2000/svg" xmlns:xlink="http://www.w3.org/1999/xlink" width="12" height="12" viewBox="0 0 12 12" version="1.1">
<g id="surface1">
<path style=" stroke:none;fill-rule:nonzero;fill:rgb(24.705882%,24.705882%,24.705882%);fill-opacity:1;" d="M 1.125 6.457031 L 1.125 6.480469 C 1.125 6.472656 1.125 6.464844 1.125 6.457031 Z M 1.125 6.480469 L 1.125 9.1875 L 1.132812 9.1875 C 1.199219 9.792969 1.804688 10.324219 2.707031 10.664062 C 2.707031 9.996094 2.71875 9.105469 2.71875 9.105469 C 3.027344 9.253906 3.378906 9.367188 3.699219 9.429688 C 3.699219 9.429688 3.703125 9.460938 3.703125 10.9375 C 4.117188 11.011719 4.5625 11.050781 5.023438 11.050781 C 7.101562 11.050781 8.800781 10.226562 8.917969 9.1875 L 8.921875 9.1875 L 8.921875 6.480469 C 8.921875 7.574219 7.175781 8.460938 5.023438 8.460938 C 2.871094 8.460938 1.125 7.574219 1.125 6.480469 Z M 8.921875 6.480469 L 8.921875 6.457031 C 8.921875 6.464844 8.921875 6.472656 8.921875 6.480469 Z M 8.921875 6.480469 "/>
<path style=" stroke:none;fill-rule:nonzero;fill:rgb(24.705882%,24.705882%,24.705882%);fill-opacity:1;" d="M 5.570312 6.59375 C 5.5 5.285156 5.023438 3.410156 4.046875 2.394531 C 2.367188 2.777344 1.125 4.121094 1.125 5.722656 C 1.125 5.738281 1.125 5.753906 1.125 5.773438 C 1.179688 6.84375 2.90625 7.699219 5.023438 7.699219 C 7.140625 7.699219 8.867188 6.84375 8.921875 5.773438 C 8.921875 5.757812 8.921875 5.738281 8.921875 5.722656 C 8.921875 4.070312 7.601562 2.691406 5.839844 2.359375 C 6.371094 2.929688 6.675781 3.453125 6.878906 4.054688 C 7.117188 4.773438 7.277344 5.453125 7.339844 6.117188 C 6.917969 6.386719 6.183594 6.539062 5.570312 6.59375 Z M 5.570312 6.59375 "/>
<path style=" stroke:none;fill-rule:nonzero;fill:rgb(24.705882%,24.705882%,24.705882%);fill-opacity:1;" d="M 6.710938 4.6875 C 6.710938 5.003906 6.453125 5.261719 6.136719 5.261719 C 5.820312 5.261719 5.5625 5.003906 5.5625 4.6875 C 5.5625 4.367188 5.820312 4.113281 6.136719 4.113281 C 6.453125 4.113281 6.710938 4.367188 6.710938 4.6875 Z M 6.710938 4.6875 "/>
<path style=" stroke:none;fill-rule:nonzero;fill:rgb(24.705882%,24.705882%,24.705882%);fill-opacity:1;" d="M 11.371094 1.824219 L 10.566406 2.496094 L 10.824219 3.511719 L 9.9375 2.953125 L 9.050781 3.511719 L 9.304688 2.496094 L 8.503906 1.824219 L 9.546875 1.753906 L 9.9375 0.78125 L 10.328125 1.753906 Z M 11.371094 1.824219 "/>
</g>
</svg>
