<?xml version="1.0" encoding="UTF-8"?>
<svg xmlns="http://www.w3.org/2000/svg" xmlns:xlink="http://www.w3.org/1999/xlink" width="32" height="32" viewBox="0 0 32 32">
<path fill-rule="nonzero" fill="rgb(100%, 100%, 100%)" fill-opacity="1" d="M 2.640625 23.671875 L 2.640625 3.265625 L 10.339844 3.265625 C 11.695312 3.265625 12.730469 3.328125 13.445312 3.460938 C 14.445312 3.625 15.285156 3.945312 15.964844 4.414062 C 16.640625 4.882812 17.1875 5.539062 17.597656 6.382812 C 18.011719 7.226562 18.21875 8.15625 18.21875 9.167969 C 18.21875 10.902344 17.667969 12.371094 16.5625 13.570312 C 15.457031 14.773438 13.460938 15.375 10.574219 15.375 L 5.34375 15.375 L 5.34375 23.671875 Z M 5.34375 12.964844 L 10.617188 12.964844 C 12.363281 12.964844 13.601562 12.640625 14.335938 11.992188 C 15.066406 11.34375 15.433594 10.429688 15.433594 9.25 C 15.433594 8.394531 15.21875 7.664062 14.785156 7.058594 C 14.355469 6.449219 13.785156 6.046875 13.082031 5.851562 C 12.628906 5.734375 11.785156 5.671875 10.5625 5.671875 L 5.34375 5.671875 Z M 5.34375 12.964844 "/>
<path fill-rule="nonzero" fill="rgb(100%, 100%, 100%)" fill-opacity="1" d="M 21.75 15.234375 C 21.523438 14.371094 20.734375 13.730469 19.804688 13.730469 C 18.691406 13.730469 17.792969 14.625 17.792969 15.734375 C 17.792969 15.921875 17.816406 16.09375 17.863281 16.261719 L 18.671875 16.261719 C 18.730469 16.398438 18.792969 16.480469 18.792969 16.480469 C 19.035156 16.828125 19.441406 17.054688 19.902344 17.054688 C 20.644531 17.054688 21.25 16.449219 21.25 15.707031 C 21.25 15.535156 21.292969 15.378906 21.21875 15.234375 Z M 21.75 15.234375 "/>
<path fill-rule="nonzero" fill="rgb(100%, 100%, 100%)" fill-opacity="1" d="M 21.691406 27.222656 C 21.480469 27.4375 21.191406 27.601562 20.863281 27.601562 L 20.859375 23.230469 L 23.882812 22.363281 L 24.640625 23.855469 Z M 21.691406 27.222656 "/>
<path fill-rule="nonzero" fill="rgb(100%, 100%, 100%)" fill-opacity="1" d="M 19.15625 17.226562 C 18.957031 17.007812 18.667969 16.867188 18.34375 16.867188 C 18 16.867188 17.691406 17.023438 17.496094 17.273438 L 15.09375 20.941406 C 14.996094 21.101562 14.941406 21.292969 14.941406 21.496094 C 14.941406 21.875 15.132812 22.203125 15.421875 22.398438 L 18.640625 24.183594 L 18.640625 27.222656 C 18.640625 27.652344 18.988281 28.003906 19.417969 28.003906 C 19.847656 28.003906 20.199219 27.652344 20.199219 27.222656 L 20.199219 23.429688 C 20.199219 23.429688 20.300781 22.824219 19.613281 22.492188 L 17.605469 21.441406 L 19.070312 19.210938 L 19.84375 20.429688 C 20 20.675781 20.210938 20.769531 20.402344 20.765625 L 22.394531 20.757812 C 23.203125 20.757812 23.203125 19.703125 22.394531 19.707031 L 20.777344 19.707031 Z M 19.15625 17.226562 "/>
<path fill-rule="nonzero" fill="rgb(100%, 100%, 100%)" fill-opacity="1" d="M 27.976562 22.207031 C 28.007812 22.242188 28.023438 22.28125 28.023438 22.332031 C 28.023438 22.429688 27.945312 22.507812 27.847656 22.507812 C 27.824219 22.507812 27.804688 22.507812 27.785156 22.5 C 27.441406 22.351562 27.222656 22.261719 26.820312 22.261719 C 26.558594 22.261719 26.230469 22.351562 25.851562 22.660156 L 25.5 21.964844 C 25.9375 21.835938 26.296875 21.71875 26.671875 21.71875 C 27.269531 21.71875 27.585938 21.84375 27.976562 22.207031 Z M 27.976562 22.207031 "/>
<path fill-rule="nonzero" fill="rgb(100%, 100%, 100%)" fill-opacity="1" d="M 14.59375 22.742188 L 17.96875 24.605469 L 17.976562 25.351562 L 14.121094 23.226562 C 13.839844 23.085938 13.464844 23 13.199219 23 C 12.800781 23 12.578125 23.09375 12.238281 23.238281 C 12.214844 23.246094 12.195312 23.246094 12.175781 23.246094 C 12.078125 23.246094 11.996094 23.167969 11.996094 23.074219 C 11.996094 23.023438 12.015625 22.980469 12.046875 22.949219 C 12.4375 22.582031 12.839844 22.460938 13.433594 22.460938 C 13.742188 22.460938 14.113281 22.496094 14.59375 22.742188 Z M 14.59375 22.742188 "/>
<path fill-rule="nonzero" fill="rgb(100%, 100%, 100%)" fill-opacity="1" d="M 14.90625 29.59375 C 16.003906 29.59375 16.898438 28.699219 16.898438 27.597656 C 16.898438 26.496094 16.003906 25.605469 14.90625 25.605469 C 13.804688 25.605469 12.914062 26.496094 12.914062 27.597656 C 12.914062 28.699219 13.804688 29.59375 14.90625 29.59375 Z M 12.03125 27.601562 C 12.03125 26.015625 13.320312 24.722656 14.90625 24.722656 C 16.496094 24.722656 17.78125 26.015625 17.78125 27.601562 C 17.78125 29.1875 16.496094 30.476562 14.90625 30.476562 C 13.320312 30.476562 12.03125 29.1875 12.03125 27.601562 Z M 12.03125 27.601562 "/>
<path fill-rule="nonzero" fill="rgb(100%, 100%, 100%)" fill-opacity="1" d="M 26.792969 29.59375 C 27.894531 29.59375 28.789062 28.699219 28.789062 27.597656 C 28.789062 26.496094 27.894531 25.605469 26.792969 25.605469 C 25.691406 25.605469 24.800781 26.496094 24.800781 27.597656 C 24.800781 28.699219 25.695312 29.59375 26.792969 29.59375 Z M 23.917969 27.601562 C 23.917969 26.015625 25.203125 24.722656 26.792969 24.722656 C 28.378906 24.722656 29.667969 26.015625 29.667969 27.601562 C 29.667969 29.1875 28.378906 30.476562 26.792969 30.476562 C 25.203125 30.476562 23.917969 29.1875 23.917969 27.601562 Z M 23.917969 27.601562 "/>
<path fill-rule="nonzero" fill="rgb(100%, 100%, 100%)" fill-opacity="1" d="M 26.15625 24.3125 L 24.761719 21.519531 C 24.578125 21.1875 24.222656 20.957031 23.8125 20.957031 L 22.898438 20.957031 C 22.722656 20.957031 22.578125 21.101562 22.578125 21.28125 C 22.578125 21.460938 22.722656 21.605469 22.898438 21.605469 L 23.8125 21.601562 C 23.964844 21.601562 24.136719 21.703125 24.199219 21.855469 L 25.515625 24.535156 Z M 26.15625 24.3125 "/>
<path fill-rule="nonzero" fill="rgb(100%, 100%, 100%)" fill-opacity="1" d="M 26.890625 7.683594 C 26.902344 7.691406 26.941406 7.699219 27.015625 7.714844 C 28.160156 7.902344 29.019531 8.246094 29.597656 8.75 C 30.171875 9.25 30.460938 9.90625 30.460938 10.722656 C 30.460938 11.554688 30.144531 12.273438 29.511719 12.886719 C 28.882812 13.496094 28.007812 13.828125 26.890625 13.878906 L 26.890625 15.167969 L 25.992188 15.167969 L 25.992188 13.894531 C 24.855469 13.785156 23.980469 13.46875 23.371094 12.953125 C 22.761719 12.433594 22.417969 11.710938 22.339844 10.777344 L 23.847656 10.550781 C 23.964844 11.25 24.203125 11.789062 24.5625 12.167969 C 24.917969 12.546875 25.394531 12.761719 25.992188 12.8125 L 25.992188 8.75 C 24.859375 8.542969 24.011719 8.195312 23.445312 7.707031 C 22.882812 7.21875 22.601562 6.59375 22.601562 5.824219 C 22.601562 5.066406 22.878906 4.410156 23.4375 3.863281 C 23.996094 3.316406 24.847656 3.003906 25.992188 2.917969 L 25.992188 2.308594 L 26.890625 2.308594 L 26.890625 2.917969 C 27.839844 2.996094 28.589844 3.253906 29.136719 3.683594 C 29.683594 4.113281 30.027344 4.71875 30.167969 5.492188 L 28.597656 5.683594 C 28.511719 5.203125 28.324219 4.820312 28.039062 4.539062 C 27.753906 4.257812 27.371094 4.074219 26.890625 3.996094 Z M 25.992188 7.527344 L 25.992188 3.980469 C 25.386719 4.070312 24.917969 4.277344 24.59375 4.601562 C 24.269531 4.925781 24.109375 5.300781 24.109375 5.726562 C 24.109375 6.214844 24.277344 6.597656 24.609375 6.878906 C 24.945312 7.160156 25.40625 7.378906 25.992188 7.527344 Z M 26.890625 12.8125 C 27.476562 12.738281 27.960938 12.523438 28.339844 12.164062 C 28.71875 11.808594 28.910156 11.359375 28.910156 10.8125 C 28.910156 10.335938 28.765625 9.953125 28.476562 9.660156 C 28.191406 9.371094 27.660156 9.121094 26.890625 8.917969 Z M 26.890625 12.8125 "/>
<path fill="none" stroke-width="26.569401" stroke-linecap="round" stroke-linejoin="round" stroke="rgb(100%, 100%, 100%)" stroke-opacity="1" stroke-miterlimit="4" d="M 478.47168 41.489258 L 478.47168 276.264648 " transform="matrix(0.0551724, 0, 0, 0.0551724, 0, 0)"/>
</svg>
