<svg width="12" height="12" viewBox="0 0 48 48" fill="none" xmlns="http://www.w3.org/2000/svg">
<path fill-rule="evenodd" clip-rule="evenodd" d="M12 24C12 21.7909 13.7909 20 16 20H24C26.2091 20 28 21.7909 28 24V32V40H30C31.1046 40 32 39.1046 32 38V36C29.7909 36 28 34.2091 28 32C28 29.7909 29.7909 28 32 28L28 20H32L36 28V38C36 41.3137 33.3137 44 30 44H14C12.8954 44 12 43.1046 12 42V24ZM16 24H24V32H16V24Z" fill="#ffffff"/>
<path opacity="0.5" d="M18 16L27.8096 8L20 8L14 16L18 16Z" fill="#ffffff"/>
<path d="M18 0L25.3572 6L38 6C39.1046 6 40 6.89543 40 8C40 9.10457 39.1046 10 38 10L12 10L10 12H8L10 8L8.00002 4H10L12 6L18.5 6L14 0H18Z" fill="#ffffff"/>
</svg>
