<?xml version="1.0" encoding="UTF-8"?>
<svg xmlns="http://www.w3.org/2000/svg" xmlns:xlink="http://www.w3.org/1999/xlink" width="32" height="32" viewBox="0 0 32 32">
<path fill-rule="nonzero" fill="rgb(100%, 100%, 100%)" fill-opacity="1" d="M 7.769531 7.089844 L 6.148438 3.949219 L 1.320312 3.933594 L 5.980469 8.695312 Z M 7.769531 7.089844 "/>
<path fill-rule="nonzero" fill="rgb(100%, 100%, 100%)" fill-opacity="1" d="M 22.320312 17.273438 C 23.203125 17.515625 24.148438 17.015625 24.398438 16.121094 C 24.640625 15.242188 24.128906 14.316406 23.242188 14.066406 L 22.550781 13.875 L 21.65625 17.074219 Z M 22.320312 17.273438 "/>
<path fill-rule="nonzero" fill="rgb(100%, 100%, 100%)" fill-opacity="1" d="M 21.78125 13.671875 L 16.203125 12.101562 C 15.835938 12.003906 15.46875 12.222656 15.367188 12.589844 L 14.84375 14.457031 C 14.738281 14.820312 14.941406 15.195312 15.316406 15.308594 L 20.890625 16.863281 Z M 21.78125 13.671875 "/>
<path fill-rule="nonzero" fill="rgb(100%, 100%, 100%)" fill-opacity="1" d="M 22.660156 18.96875 C 22.234375 18.5625 21.707031 18.242188 21.089844 18.074219 L 14.328125 16.179688 L 10.175781 8.8125 C 9.957031 8.433594 9.605469 8.128906 9.148438 8.003906 C 8.238281 7.75 7.292969 8.285156 7.042969 9.195312 C 6.917969 9.628906 6.976562 10.070312 7.175781 10.441406 L 12.371094 19.554688 C 12.371094 19.554688 12.796875 20.238281 13.867188 20.589844 L 23.3125 23.238281 L 27.695312 27.6875 C 27.839844 27.839844 28.03125 27.957031 28.257812 28.019531 C 28.917969 28.203125 29.609375 27.808594 29.800781 27.15625 C 29.925781 26.695312 29.777344 26.207031 29.449219 25.90625 Z M 22.660156 18.96875 "/>
<path fill-rule="nonzero" fill="rgb(100%, 100%, 100%)" fill-opacity="1" d="M 27.703125 20.808594 L 28.683594 22.09375 L 30.679688 19.914062 L 28.992188 18.976562 C 29.152344 17.792969 28.421875 16.652344 27.246094 16.320312 C 25.953125 15.960938 24.613281 16.710938 24.253906 18 C 23.886719 19.300781 24.640625 20.636719 25.933594 20.996094 C 26.546875 21.171875 27.171875 21.074219 27.703125 20.808594 Z M 27.703125 20.808594 "/>
</svg>
