<?xml version="1.0" encoding="UTF-8"?>
<svg xmlns="http://www.w3.org/2000/svg" xmlns:xlink="http://www.w3.org/1999/xlink" width="32" height="32" viewBox="0 0 32 32">
<path fill-rule="nonzero" fill="rgb(24.705882%, 24.705882%, 24.705882%)" fill-opacity="1" d="M 3.296875 4.964844 L 3.296875 27.730469 L 28.878906 27.730469 L 28.878906 13.800781 C 28.410156 14.375 27.816406 14.992188 27.503906 15.304688 C 26.878906 15.929688 26.453125 11.726562 26.035156 11.519531 C 25.835938 11.417969 25.515625 11.261719 25.136719 11.089844 L 25.136719 21.792969 L 17.90625 21.792969 L 17.90625 15.851562 C 17.160156 15.429688 16.523438 15.066406 16.238281 14.925781 C 14.492188 14.050781 15.128906 10.828125 14.414062 10.355469 C 14.167969 10.1875 14.125 10.074219 13.878906 9.996094 L 13.878906 21.503906 L 6.929688 21.503906 L 6.929688 9.269531 L 12.933594 9.269531 C 12.070312 7.003906 7.101562 8.324219 6.488281 7.710938 C 5.960938 7.183594 6.375 5.769531 6.199219 4.964844 Z M 3.296875 4.964844 "/>
</svg>
