<?xml version="1.0" encoding="UTF-8"?>
<svg xmlns="http://www.w3.org/2000/svg" xmlns:xlink="http://www.w3.org/1999/xlink" width="12" height="12" viewBox="0 0 12 12" version="1.1">
<g id="surface1">
<path style=" stroke:none;fill-rule:evenodd;fill:rgb(100%,100%,100%);fill-opacity:1;" d="M 10 2 L 2 2 L 2 10 L 10 10 Z M 8 3 L 9 3 L 9 4 L 8 4 Z M 8 5 L 9 5 L 9 6 L 8 6 Z M 9 7 L 8 7 L 8 8 L 9 8 Z M 8 9 L 9 9 L 9 10 L 8 10 Z M 4 3 L 3 3 L 3 4 L 4 4 Z M 4 5 L 3 5 L 3 6 L 4 6 Z M 3 7 L 4 7 L 4 8 L 3 8 Z M 4 9 L 3 9 L 3 10 L 4 10 Z M 4 9 "/>
</g>
</svg>
