<?xml version="1.0" encoding="UTF-8"?>
<svg xmlns="http://www.w3.org/2000/svg" xmlns:xlink="http://www.w3.org/1999/xlink" width="32" height="32" viewBox="0 0 32 32">
<path fill-rule="nonzero" fill="rgb(100%, 100%, 100%)" fill-opacity="1" d="M 17.332031 8 C 18.804688 8 20 6.804688 20 5.332031 C 20 3.859375 18.804688 2.667969 17.332031 2.667969 C 15.859375 2.667969 14.667969 3.859375 14.667969 5.332031 C 14.667969 6.804688 15.859375 8 17.332031 8 Z M 17.332031 8 "/>
<path fill-rule="nonzero" fill="rgb(100%, 100%, 100%)" fill-opacity="1" d="M 17.890625 9.59375 C 16.070312 8.644531 14.582031 10.113281 14.394531 12 L 14.011719 15.816406 L 12 29.332031 L 14.667969 29.332031 L 16.015625 20 L 17.0625 20 L 18.335938 21.457031 C 18.550781 21.699219 18.667969 22.011719 18.667969 22.335938 L 18.667969 29.332031 L 21.332031 29.332031 L 21.332031 22.335938 C 21.332031 21.367188 20.980469 20.429688 20.34375 19.703125 L 18.3125 17.378906 C 18.582031 16.335938 18.742188 15.222656 18.832031 13.957031 C 19.496094 14.417969 20.285156 14.667969 21.105469 14.667969 L 23.714844 14.667969 L 22.667969 29.332031 L 25.332031 29.332031 L 26.667969 10.667969 L 24 10.667969 L 23.90625 12 L 21.105469 12 C 20.75 12 20.410156 11.859375 20.160156 11.609375 L 18.933594 10.378906 C 18.648438 10.097656 18.371094 9.875 18.097656 9.707031 C 18.027344 9.664062 17.960938 9.628906 17.890625 9.59375 Z M 17.890625 9.59375 "/>
<path fill-rule="nonzero" fill="rgb(100%, 100%, 100%)" fill-opacity="1" d="M 13.8125 10.652344 L 12.832031 17.523438 C 12.738281 18.179688 12.175781 18.667969 11.511719 18.667969 L 9.078125 18.667969 C 8.816406 18.667969 8.5625 18.5625 8.375 18.375 C 8.140625 18.140625 8.039062 17.804688 8.105469 17.480469 L 8.53125 15.335938 C 8.609375 14.945312 8.953125 14.667969 9.347656 14.667969 C 9.730469 14.667969 10.066406 14.40625 10.15625 14.035156 L 11.082031 10.34375 C 11.230469 9.75 11.761719 9.332031 12.375 9.332031 L 12.667969 9.332031 C 13.371094 9.332031 13.910156 9.957031 13.8125 10.652344 Z M 13.8125 10.652344 "/>
</svg>
