<?xml version="1.0" encoding="UTF-8"?>
<svg xmlns="http://www.w3.org/2000/svg" xmlns:xlink="http://www.w3.org/1999/xlink" width="12" height="12" viewBox="0 0 12 12" version="1.1">
<g id="surface1">
<path style=" stroke:none;fill-rule:nonzero;fill:rgb(100%,100%,100%);fill-opacity:1;" d="M 1.765625 5.667969 L 0.707031 10.902344 L 1.816406 10.910156 L 2.78125 5.914062 Z M 1.765625 5.667969 "/>
<path style=" stroke:none;fill-rule:nonzero;fill:rgb(100%,100%,100%);fill-opacity:1;" d="M 1.890625 5.179688 L 1.761719 5.675781 L 10.835938 10.921875 L 11.8125 10.921875 Z M 1.890625 5.179688 "/>
<path style="fill:none;stroke-width:45.299999;stroke-linecap:round;stroke-linejoin:round;stroke:rgb(100%,100%,100%);stroke-opacity:1;stroke-miterlimit:4;" d="M 169.544271 142.734375 L 166.71224 243.74349 " transform="matrix(0.0206897,0,0,0.0206897,0,0)"/>
<path style="fill:none;stroke-width:30;stroke-linecap:round;stroke-linejoin:round;stroke:rgb(100%,100%,100%);stroke-opacity:1;stroke-miterlimit:4;" d="M 166.71224 251.673177 L 250.917969 240.345052 L 288.300781 321.341146 " transform="matrix(0.0206897,0,0,0.0206897,0,0)"/>
<path style=" stroke:none;fill-rule:evenodd;fill:rgb(100%,100%,100%);fill-opacity:1;" d="M 4.320312 1.417969 C 4.320312 1.527344 4.296875 1.632812 4.257812 1.730469 C 4.214844 1.828125 4.15625 1.917969 4.082031 1.992188 C 4.007812 2.066406 3.917969 2.125 3.820312 2.167969 C 3.722656 2.207031 3.617188 2.230469 3.507812 2.230469 C 3.402344 2.230469 3.296875 2.207031 3.199219 2.167969 C 3.101562 2.125 3.011719 2.066406 2.9375 1.992188 C 2.863281 1.917969 2.800781 1.828125 2.761719 1.730469 C 2.722656 1.632812 2.699219 1.527344 2.699219 1.417969 C 2.699219 1.3125 2.722656 1.207031 2.761719 1.109375 C 2.800781 1.011719 2.863281 0.921875 2.9375 0.847656 C 3.011719 0.773438 3.101562 0.710938 3.199219 0.671875 C 3.296875 0.632812 3.402344 0.609375 3.507812 0.609375 C 3.617188 0.609375 3.722656 0.632812 3.820312 0.671875 C 3.917969 0.710938 4.007812 0.773438 4.082031 0.847656 C 4.15625 0.921875 4.214844 1.011719 4.257812 1.109375 C 4.296875 1.207031 4.320312 1.3125 4.320312 1.417969 Z M 4.320312 1.417969 "/>
</g>
</svg>
