<?xml version="1.0" encoding="UTF-8"?>
<svg xmlns="http://www.w3.org/2000/svg" xmlns:xlink="http://www.w3.org/1999/xlink" width="12" height="12" viewBox="0 0 12 12" version="1.1">
<g id="surface1">
<path style=" stroke:none;fill-rule:nonzero;fill:rgb(100%,100%,100%);fill-opacity:1;" d="M 5.847656 10.601562 L 6.589844 10.601562 L 6.589844 1.265625 L 5.847656 1.265625 Z M 3.621094 2.972656 L 2.125 2.972656 C 1.890625 2.972656 1.679688 3.054688 1.496094 3.222656 C 1.355469 3.351562 1.261719 3.496094 1.214844 3.65625 L 0.574219 5.792969 C 0.554688 5.839844 0.542969 5.882812 0.542969 5.921875 C 0.542969 6.132812 0.652344 6.242188 0.867188 6.242188 C 1.015625 6.242188 1.113281 6.15625 1.160156 5.988281 L 1.746094 4.03125 L 2.066406 4.03125 L 1.105469 7.511719 L 2.039062 7.511719 L 2.039062 10.226562 C 2.039062 10.46875 2.15625 10.589844 2.390625 10.589844 C 2.621094 10.589844 2.738281 10.46875 2.738281 10.226562 L 2.738281 7.5 L 3.089844 7.5 L 3.089844 10.238281 C 3.089844 10.472656 3.207031 10.589844 3.4375 10.589844 C 3.671875 10.589844 3.789062 10.472656 3.789062 10.238281 L 3.789062 7.511719 L 4.722656 7.511719 L 3.746094 4.03125 L 4.082031 4.03125 L 4.667969 5.988281 C 4.714844 6.15625 4.8125 6.242188 4.960938 6.242188 C 5.175781 6.242188 5.28125 6.132812 5.28125 5.921875 C 5.28125 5.875 5.273438 5.832031 5.253906 5.792969 L 4.613281 3.65625 C 4.566406 3.507812 4.457031 3.363281 4.289062 3.222656 C 4.085938 3.054688 3.863281 2.972656 3.621094 2.972656 Z M 2.90625 2.816406 C 3.121094 2.816406 3.304688 2.742188 3.453125 2.59375 C 3.601562 2.445312 3.675781 2.265625 3.675781 2.0625 C 3.675781 1.847656 3.601562 1.667969 3.453125 1.515625 C 3.304688 1.367188 3.121094 1.292969 2.90625 1.292969 C 2.703125 1.292969 2.523438 1.367188 2.375 1.515625 C 2.226562 1.667969 2.152344 1.847656 2.152344 2.0625 C 2.152344 2.265625 2.226562 2.445312 2.375 2.59375 C 2.523438 2.742188 2.703125 2.816406 2.90625 2.816406 Z M 9.445312 2.804688 C 9.652344 2.804688 9.828125 2.730469 9.976562 2.578125 C 10.125 2.429688 10.199219 2.253906 10.199219 2.046875 C 10.199219 1.835938 10.125 1.65625 9.976562 1.511719 C 9.828125 1.367188 9.652344 1.292969 9.445312 1.292969 C 9.242188 1.292969 9.0625 1.367188 8.914062 1.511719 C 8.765625 1.65625 8.691406 1.835938 8.691406 2.046875 C 8.691406 2.253906 8.765625 2.429688 8.914062 2.578125 C 9.0625 2.730469 9.242188 2.804688 9.445312 2.804688 Z M 10.4375 2.957031 L 8.4375 2.957031 C 8.167969 2.957031 7.9375 3.050781 7.746094 3.242188 C 7.554688 3.433594 7.460938 3.671875 7.460938 3.949219 L 7.460938 6.269531 C 7.460938 6.492188 7.5625 6.605469 7.769531 6.605469 C 7.964844 6.605469 8.0625 6.492188 8.0625 6.269531 L 8.0625 4.003906 L 8.425781 4.003906 L 8.425781 10.15625 C 8.425781 10.433594 8.566406 10.574219 8.84375 10.574219 C 9.125 10.574219 9.265625 10.433594 9.265625 10.15625 L 9.265625 6.589844 L 9.628906 6.589844 L 9.628906 10.15625 C 9.628906 10.433594 9.765625 10.574219 10.046875 10.574219 C 10.335938 10.574219 10.480469 10.433594 10.480469 10.15625 L 10.480469 4.003906 L 10.828125 4.003906 L 10.828125 6.269531 C 10.828125 6.503906 10.925781 6.617188 11.121094 6.617188 C 11.320312 6.617188 11.417969 6.503906 11.417969 6.269531 L 11.417969 3.964844 C 11.417969 3.691406 11.324219 3.457031 11.144531 3.257812 C 10.960938 3.058594 10.726562 2.957031 10.4375 2.957031 Z M 10.4375 2.957031 "/>
</g>
</svg>
