<?xml version="1.0" encoding="UTF-8"?>
<svg xmlns="http://www.w3.org/2000/svg" xmlns:xlink="http://www.w3.org/1999/xlink" width="12" height="12" viewBox="0 0 12 12" version="1.1">
<defs>
<filter id="alpha" filterUnits="objectBoundingBox" x="0%" y="0%" width="100%" height="100%">
  <feColorMatrix type="matrix" in="SourceGraphic" values="0 0 0 0 1 0 0 0 0 1 0 0 0 0 1 0 0 0 1 0"/>
</filter>
<mask id="mask0">
  <g filter="url(#alpha)">
<rect x="0" y="0" width="12" height="12" style="fill:rgb(0%,0%,0%);fill-opacity:0.874;stroke:none;"/>
  </g>
</mask>
<clipPath id="clip1">
  <rect x="0" y="0" width="12" height="12"/>
</clipPath>
<g id="surface5" clip-path="url(#clip1)">
<path style="fill-rule:evenodd;fill:rgb(100%,100%,100%);fill-opacity:1;stroke-width:1.24142;stroke-linecap:butt;stroke-linejoin:miter;stroke:rgb(100%,100%,100%);stroke-opacity:1;stroke-miterlimit:4;" d="M 286.979167 43.990885 L 34.928385 235.813802 L 85.338542 235.813802 L 85.338542 543.75 L 488.619792 543.75 L 488.619792 235.813802 L 539.029948 235.813802 Z M 184.83724 163.502604 C 185.026042 163.502604 185.214844 163.502604 185.403646 163.502604 C 185.592448 163.502604 185.78125 163.502604 185.970052 163.502604 C 191.067708 163.502604 195.598958 165.390625 199.375 169.166667 C 203.339844 172.753906 205.227865 177.473958 205.227865 182.760417 C 205.227865 188.046875 203.339844 192.766927 199.375 196.354167 C 195.598958 200.130208 191.067708 202.018229 185.970052 202.018229 C 185.78125 202.018229 185.592448 202.018229 185.403646 202.018229 C 185.214844 202.018229 185.026042 202.018229 184.83724 202.018229 C 179.550781 202.018229 175.208333 200.130208 171.24349 196.354167 C 167.467448 192.766927 165.579427 188.046875 165.579427 182.760417 C 165.579427 177.473958 167.467448 172.753906 171.24349 169.166667 C 175.208333 165.390625 179.550781 163.502604 184.83724 163.502604 Z M 284.902344 163.502604 C 285.091146 163.502604 285.279948 163.502604 285.46875 163.502604 C 285.657552 163.502604 285.846354 163.502604 286.035156 163.502604 C 291.132812 163.502604 295.664062 165.390625 299.440104 169.166667 C 303.216146 172.753906 305.292969 177.473958 305.292969 182.760417 C 305.292969 188.046875 303.216146 192.766927 299.440104 196.354167 C 295.664062 200.130208 291.132812 202.018229 286.035156 202.018229 C 285.846354 202.018229 285.657552 202.018229 285.46875 202.018229 C 285.279948 202.018229 285.091146 202.018229 284.902344 202.018229 C 279.615885 202.018229 275.084635 200.130208 271.308594 196.354167 C 267.532552 192.766927 265.644531 188.046875 265.644531 182.760417 C 265.644531 177.473958 267.532552 172.753906 271.308594 169.166667 C 275.084635 165.390625 279.615885 163.502604 284.902344 163.502604 Z M 384.778646 163.502604 C 384.967448 163.502604 385.15625 163.502604 385.345052 163.502604 C 385.533854 163.502604 385.722656 163.502604 385.911458 163.502604 C 391.197917 163.502604 395.540365 165.390625 399.505208 169.166667 C 403.28125 172.753906 405.169271 177.473958 405.169271 182.760417 C 405.169271 188.046875 403.28125 192.766927 399.505208 196.354167 C 395.540365 200.130208 391.197917 202.018229 385.911458 202.018229 C 385.722656 202.018229 385.533854 202.018229 385.345052 202.018229 C 385.15625 202.018229 384.967448 202.018229 384.778646 202.018229 C 379.68099 202.018229 375.14974 200.130208 371.373698 196.354167 C 367.408854 192.766927 365.520833 188.046875 365.520833 182.760417 C 365.520833 177.473958 367.408854 172.753906 371.373698 169.166667 C 375.14974 165.390625 379.68099 163.502604 384.778646 163.502604 Z M 170.110677 206.360677 L 200.696615 206.360677 C 201.640625 206.360677 202.773438 206.360677 203.717448 206.738281 C 207.871094 206.927083 211.835938 208.815104 214.667969 211.835938 C 217.5 214.856771 219.199219 219.010417 219.010417 223.164062 L 219.388021 261.490885 C 219.576823 264.700521 218.632812 267.721354 216.933594 270.553385 C 215.234375 273.196615 212.779948 275.46224 209.759115 276.783854 L 209.759115 283.958333 L 185.403646 283.203125 L 161.048177 283.958333 L 161.048177 277.539062 C 157.64974 276.40625 154.628906 274.329427 152.552083 271.497396 C 150.47526 268.665365 149.342448 265.266927 149.342448 261.679688 L 149.153646 223.352865 C 148.964844 219.010417 150.664062 214.856771 153.684896 211.647135 C 156.705729 208.626302 160.670573 206.738281 165.013021 206.549479 C 165.768229 206.549479 166.334635 206.738281 167.089844 206.738281 C 168.033854 206.549479 168.977865 206.360677 170.110677 206.360677 Z M 270.175781 206.360677 L 300.572917 206.360677 C 301.705729 206.360677 302.64974 206.360677 303.59375 206.738281 C 307.747396 206.927083 311.71224 208.815104 314.733073 211.835938 C 317.565104 214.856771 319.075521 219.010417 319.075521 223.164062 L 319.453125 261.490885 C 319.453125 264.700521 318.697917 267.721354 316.998698 270.553385 C 315.299479 273.196615 312.65625 275.46224 309.824219 276.783854 L 309.824219 283.958333 L 285.46875 283.203125 L 260.924479 283.958333 L 260.924479 277.539062 C 257.526042 276.40625 254.69401 274.329427 252.617188 271.497396 C 250.540365 268.665365 249.407552 265.266927 249.407552 261.679688 L 249.029948 223.352865 C 249.029948 219.010417 250.540365 214.856771 253.561198 211.647135 C 256.582031 208.626302 260.735677 206.738281 265.078125 206.549479 C 265.644531 206.549479 266.39974 206.738281 266.966146 206.738281 C 267.910156 206.549479 269.042969 206.360677 270.175781 206.360677 Z M 370.240885 206.360677 L 400.638021 206.360677 C 401.770833 206.360677 402.714844 206.360677 403.658854 206.738281 C 407.8125 206.927083 411.777344 208.815104 414.609375 211.835938 C 417.441406 214.856771 419.140625 219.010417 419.140625 223.164062 L 419.518229 261.490885 C 419.518229 264.700521 418.574219 267.721354 416.875 270.553385 C 415.175781 273.196615 412.721354 275.46224 409.889323 276.783854 L 409.889323 283.958333 L 385.345052 283.203125 L 360.989583 283.958333 L 360.989583 277.539062 C 357.591146 276.40625 354.759115 274.329427 352.682292 271.497396 C 350.605469 268.665365 349.472656 265.266927 349.472656 261.679688 L 349.095052 223.352865 C 348.90625 219.010417 350.605469 214.856771 353.626302 211.647135 C 356.647135 208.626302 360.800781 206.738281 365.143229 206.549479 C 365.709635 206.549479 366.276042 206.738281 367.03125 206.738281 C 367.97526 206.549479 368.919271 206.360677 370.240885 206.360677 Z M 202.96224 303.782552 C 203.339844 303.782552 203.717448 303.782552 203.90625 303.782552 C 204.283854 303.782552 204.661458 303.782552 205.039062 303.782552 C 214.290365 303.782552 222.408854 307.18099 229.205729 313.977865 C 236.002604 320.585938 239.589844 328.704427 239.589844 338.333333 C 239.589844 347.96224 236.002604 356.080729 229.205729 362.877604 C 222.408854 369.485677 214.290365 372.884115 205.039062 372.884115 C 204.661458 372.884115 204.283854 372.884115 203.90625 372.884115 C 203.717448 372.884115 203.339844 372.884115 202.96224 372.884115 C 193.710938 372.884115 185.592448 369.485677 178.795573 362.877604 C 171.809896 356.080729 168.411458 347.96224 168.411458 338.333333 C 168.411458 328.704427 171.809896 320.585938 178.795573 313.977865 C 185.592448 307.18099 193.710938 303.782552 202.96224 303.782552 Z M 369.485677 303.782552 C 369.863281 303.782552 370.240885 303.782552 370.61849 303.782552 C 370.807292 303.782552 371.184896 303.782552 371.5625 303.782552 C 380.813802 303.782552 388.932292 307.18099 395.729167 313.977865 C 402.714844 320.585938 406.113281 328.704427 406.113281 338.333333 C 406.113281 347.96224 402.714844 356.080729 395.729167 362.877604 C 388.932292 369.485677 380.813802 372.884115 371.5625 372.884115 C 371.184896 372.884115 370.807292 372.884115 370.61849 372.884115 C 370.240885 372.884115 369.863281 372.884115 369.485677 372.884115 C 360.234375 372.884115 352.115885 369.485677 345.31901 362.877604 C 338.522135 356.080729 334.934896 347.96224 334.934896 338.333333 C 334.934896 328.704427 338.522135 320.585938 345.31901 313.977865 C 352.115885 307.18099 360.234375 303.782552 369.485677 303.782552 Z M 176.71875 380.625 L 231.282552 380.625 C 233.359375 380.625 235.058594 380.813802 236.757812 381.191406 C 244.309896 381.56901 251.295573 384.967448 256.393229 390.442708 C 261.490885 395.917969 264.511719 403.092448 264.322917 410.644531 L 265.078125 479.179688 C 265.078125 485.032552 263.567708 490.696615 260.546875 495.605469 C 257.526042 500.514323 252.994792 504.290365 247.708333 506.744792 L 247.708333 519.583333 L 203.90625 518.261719 L 160.292969 519.583333 L 160.292969 507.877604 C 154.251302 506.178385 148.964844 502.402344 145.188802 497.304688 C 141.601562 492.207031 139.52474 486.165365 139.52474 479.746094 L 138.958333 411.210938 C 138.769531 403.470052 141.790365 395.917969 147.076823 390.253906 C 152.552083 384.589844 159.915365 381.380208 167.65625 381.191406 C 168.789062 381.191406 169.921875 381.191406 171.054688 381.191406 C 172.753906 380.813802 174.641927 380.625 176.71875 380.625 Z M 343.242188 380.625 L 397.80599 380.625 C 399.882812 380.625 401.582031 380.813802 403.28125 381.191406 C 410.833333 381.56901 417.81901 384.967448 422.916667 390.442708 C 428.203125 395.917969 431.035156 403.092448 431.035156 410.644531 L 431.601562 479.179688 C 431.601562 485.032552 430.091146 490.696615 427.070312 495.605469 C 424.049479 500.514323 419.518229 504.290365 414.231771 506.744792 L 414.231771 519.583333 L 370.61849 518.261719 L 326.816406 519.583333 L 326.816406 507.877604 C 320.77474 506.178385 315.488281 502.402344 311.901042 497.304688 C 308.125 492.207031 306.048177 486.165365 306.048177 479.746094 L 305.481771 411.210938 C 305.292969 403.470052 308.313802 395.917969 313.60026 390.253906 C 319.075521 384.589844 326.438802 381.380208 334.179688 381.191406 C 335.3125 381.191406 336.445312 381.191406 337.578125 381.191406 C 339.277344 380.813802 341.165365 380.625 343.242188 380.625 Z M 343.242188 380.625 " transform="matrix(0.0206897,0,0,0.0206897,0,0)"/>
</g>
</defs>
<g id="surface1">
<use xlink:href="#surface5" mask="url(#mask0)"/>
<path style="fill:none;stroke-width:20;stroke-linecap:butt;stroke-linejoin:round;stroke:rgb(100%,100%,100%);stroke-opacity:1;stroke-miterlimit:4;" d="M 286.979167 33.984375 L 34.928385 225.996094 L 85.338542 225.996094 L 85.338542 543.75 L 488.619792 543.75 L 488.619792 225.996094 L 539.029948 225.996094 Z M 286.979167 33.984375 " transform="matrix(0.0206897,0,0,0.0206897,0,0)"/>
</g>
</svg>
