<?xml version="1.0" encoding="UTF-8"?>
<svg xmlns="http://www.w3.org/2000/svg" xmlns:xlink="http://www.w3.org/1999/xlink" width="12" height="12" viewBox="0 0 12 12">
<defs>
<filter id="filter-remove-color" x="0%" y="0%" width="100%" height="100%">
<feColorMatrix color-interpolation-filters="sRGB" values="0 0 0 0 1 0 0 0 0 1 0 0 0 0 1 0 0 0 1 0" />
</filter>
<mask id="mask-0">
<g filter="url(#filter-remove-color)">
<rect x="-1.2" y="-1.2" width="14.4" height="14.4" fill="rgb(0%, 0%, 0%)" fill-opacity="0.75"/>
</g>
</mask>
<clipPath id="clip-0">
<rect x="0" y="0" width="12" height="12"/>
</clipPath>
<g id="source-6" clip-path="url(#clip-0)">
<path fill-rule="nonzero" fill="rgb(100%, 100%, 100%)" fill-opacity="1" stroke-width="16" stroke-linecap="round" stroke-linejoin="round" stroke="rgb(100%, 100%, 100%)" stroke-opacity="1" stroke-miterlimit="4" d="M 437.832031 503.346354 L 294.342448 428.769531 L 151.419271 504.667969 L 178.040365 345.130208 L 61.549479 232.792969 L 221.464844 208.626302 L 292.454427 63.248698 L 364.765625 207.871094 L 525.058594 230.338542 L 409.700521 343.997396 Z M 437.832031 503.346354 " transform="matrix(0.0206897, 0, 0, 0.0206897, 0, 0)"/>
</g>
</defs>
<g mask="url(#mask-0)">
<use xlink:href="#source-6"/>
</g>
<path fill="none" stroke-width="20" stroke-linecap="round" stroke-linejoin="round" stroke="rgb(100%, 100%, 100%)" stroke-opacity="1" stroke-miterlimit="4" d="M 437.832031 503.346354 L 294.342448 428.769531 L 151.419271 504.667969 L 178.040365 345.130208 L 61.549479 232.792969 L 221.464844 208.626302 L 292.454427 63.248698 L 364.765625 207.871094 L 525.058594 230.338542 L 409.700521 343.997396 Z M 437.832031 503.346354 " transform="matrix(0.0206897, 0, 0, 0.0206897, 0, 0)"/>
</svg>
