<?xml version="1.0" encoding="UTF-8"?>
<svg xmlns="http://www.w3.org/2000/svg" xmlns:xlink="http://www.w3.org/1999/xlink" width="32" height="32" viewBox="0 0 32 32">
<path fill-rule="evenodd" fill="rgb(100%, 100%, 100%)" fill-opacity="1" d="M 22.09375 20.734375 C 22.78125 21.261719 23.5625 21.949219 23.527344 22.898438 C 23.5625 23.492188 23.539062 24.09375 23.679688 24.675781 C 24.121094 25.371094 24.523438 26.128906 24.648438 26.953125 C 24.710938 28.140625 23.816406 29.257812 22.707031 29.613281 C 21.566406 29.851562 20.296875 29.558594 19.457031 28.71875 C 18.902344 28.21875 18.492188 27.472656 17.710938 27.292969 C 17.003906 27.101562 16.238281 27.011719 15.636719 26.554688 C 15.03125 26.167969 14.660156 25.539062 14.320312 24.929688 C 13.949219 24.183594 13.988281 23.261719 14.453125 22.566406 C 15.097656 21.484375 16.441406 21.074219 17.640625 21.140625 C 18.140625 21.183594 18.675781 21.21875 19.109375 20.910156 C 19.664062 20.582031 20.257812 20.109375 20.945312 20.292969 C 21.351562 20.371094 21.734375 20.53125 22.09375 20.734375 Z M 22.09375 20.734375 "/>
<path fill-rule="evenodd" fill="rgb(100%, 100%, 100%)" fill-opacity="1" d="M 16.203125 15.441406 C 16.691406 14.980469 17.449219 14.730469 18.089844 15.011719 C 18.546875 15.207031 18.925781 15.578125 19.179688 16.003906 C 19.59375 16.867188 19.535156 17.875 19.300781 18.777344 C 19.199219 19.214844 19.039062 19.652344 18.71875 19.980469 C 18.367188 20.378906 17.8125 20.566406 17.285156 20.492188 C 16.542969 20.496094 15.84375 20.023438 15.539062 19.355469 C 15.347656 18.964844 15.234375 18.53125 15.265625 18.097656 C 15.292969 17.152344 15.53125 16.144531 16.203125 15.441406 Z M 16.203125 15.441406 "/>
<path fill-rule="evenodd" fill="rgb(100%, 100%, 100%)" fill-opacity="1" d="M 23.785156 14.480469 C 23.785156 14.480469 24.691406 15.027344 24.503906 16.488281 C 24.503906 16.488281 24.398438 17.449219 23.589844 18.539062 C 23.589844 18.539062 22.878906 19.695312 21.902344 19.757812 C 21.902344 19.757812 20.449219 20.054688 20.050781 18.257812 C 20.050781 18.257812 19.777344 16.996094 20.308594 15.761719 C 20.308594 15.761719 20.847656 14.476562 22.003906 14.203125 C 22.003906 14.203125 22.972656 13.992188 23.785156 14.480469 Z M 23.785156 14.480469 "/>
<path fill-rule="evenodd" fill="rgb(100%, 100%, 100%)" fill-opacity="1" d="M 28.414062 17.574219 C 28.414062 17.574219 29.339844 18.570312 28.457031 19.78125 C 28.457031 19.78125 27.910156 20.84375 26.746094 21.421875 C 26.746094 21.421875 25.445312 22.210938 24.550781 21.847656 C 24.550781 21.847656 23.480469 21.589844 23.648438 19.8125 C 23.648438 19.8125 24.117188 17.960938 25.472656 17.328125 C 25.472656 17.328125 27.253906 16.257812 28.414062 17.574219 Z M 28.414062 17.574219 "/>
<path fill-rule="evenodd" fill="rgb(100%, 100%, 100%)" fill-opacity="1" d="M 29.203125 22.46875 C 29.632812 22.941406 29.703125 23.671875 29.429688 24.238281 C 29.191406 24.753906 28.785156 25.175781 28.351562 25.53125 C 27.691406 26.039062 26.867188 26.335938 26.035156 26.355469 C 25.429688 26.335938 24.921875 25.886719 24.667969 25.359375 C 24.542969 25.175781 24.53125 24.957031 24.558594 24.742188 C 24.609375 24.023438 24.972656 23.320312 25.566406 22.898438 C 26.101562 22.488281 26.691406 22.09375 27.371094 21.984375 C 27.898438 21.875 28.496094 21.886719 28.949219 22.222656 C 29.042969 22.292969 29.128906 22.378906 29.203125 22.46875 Z M 29.203125 22.46875 "/>
<path fill-rule="nonzero" fill="rgb(100%, 100%, 100%)" fill-opacity="1" d="M 10.386719 23.171875 C 9.5625 21.839844 11.039062 20.117188 12.046875 21.230469 C 12.359375 21.574219 12.214844 21.613281 11.515625 21.367188 C 10.894531 21.148438 10.894531 21.148438 10.824219 22.007812 C 10.785156 22.480469 10.742188 22.9375 10.730469 23.027344 C 10.707031 23.214844 10.476562 23.3125 10.386719 23.171875 Z M 8.796875 21.566406 C 8.757812 21.507812 9.214844 21.152344 9.804688 20.773438 C 10.394531 20.390625 10.878906 20.003906 10.878906 19.910156 C 10.878906 19.78125 10.816406 19.796875 10.617188 19.984375 C 10.289062 20.292969 10.179688 20.292969 10.222656 19.992188 C 10.25 19.8125 10.410156 19.707031 10.878906 19.5625 C 11.21875 19.457031 11.609375 19.308594 11.746094 19.234375 C 12.113281 19.035156 12.152344 19.757812 11.792969 20.15625 C 11.457031 20.53125 8.898438 21.734375 8.796875 21.566406 Z M 9.375 20.226562 C 8.792969 19.53125 9.109375 18.929688 10.335938 18.390625 C 11.027344 18.082031 11.195312 17.917969 11.003906 17.726562 C 10.910156 17.636719 10.878906 17.636719 10.878906 17.734375 C 10.878906 17.804688 10.726562 17.945312 10.542969 18.039062 C 10.203125 18.214844 9.992188 17.902344 10.3125 17.703125 C 11.382812 17.042969 12.113281 17.066406 12.113281 17.761719 C 12.113281 18.726562 11.691406 19.1875 10.625 19.390625 C 10.125 19.484375 10.007812 19.609375 9.960938 20.109375 C 9.910156 20.617188 9.734375 20.652344 9.375 20.226562 Z M 8.929688 18.5625 C 8.300781 17.871094 8.996094 16.753906 10.328125 16.3125 C 11.511719 15.921875 11.835938 15.34375 11.101562 14.953125 C 10.894531 14.839844 10.878906 14.867188 10.878906 15.332031 C 10.878906 15.78125 10.847656 15.839844 10.542969 15.945312 C 10.203125 16.0625 10.203125 16.0625 10.203125 15.519531 C 10.203125 14.972656 10.203125 14.972656 10.851562 14.777344 C 11.203125 14.667969 11.644531 14.503906 11.824219 14.414062 C 12.140625 14.257812 12.167969 14.265625 12.414062 14.550781 C 13.21875 15.488281 12.71875 16.570312 11.242188 17.082031 C 10.015625 17.507812 9.847656 17.617188 9.886719 17.960938 C 9.914062 18.199219 9.84375 18.320312 9.554688 18.515625 C 9.109375 18.820312 9.160156 18.816406 8.929688 18.5625 Z M 8.46875 16.261719 C 7.683594 15.230469 8.378906 14.214844 10.398438 13.445312 C 10.921875 13.246094 11.3125 13.015625 11.5 12.792969 C 11.777344 12.464844 11.792969 12.339844 11.613281 11.910156 C 11.554688 11.761719 11.640625 11.714844 12.066406 11.65625 C 12.359375 11.617188 12.667969 11.523438 12.757812 11.449219 C 12.976562 11.269531 13.191406 11.554688 13.292969 12.15625 C 13.449219 13.089844 12.738281 13.8125 11.085938 14.398438 C 9.640625 14.90625 9.214844 15.425781 9.867188 15.882812 C 10.082031 16.035156 10.066406 16.054688 9.523438 16.339844 C 8.804688 16.710938 8.8125 16.710938 8.46875 16.261719 Z M 8.113281 13.429688 C 6.980469 12.226562 8.410156 10.246094 10.414062 10.234375 C 11.867188 10.226562 13.515625 9.628906 13.515625 9.105469 C 13.515625 8.746094 13.214844 8.703125 12.8125 9.003906 C 11.847656 9.714844 10.765625 8.824219 11.667969 8.0625 C 12.597656 7.277344 14.695312 7.960938 14.695312 9.050781 C 14.695312 10.277344 13.476562 11.113281 11.164062 11.46875 C 9.203125 11.769531 8.742188 12.214844 9.628906 12.957031 C 9.949219 13.226562 9.949219 13.226562 9.371094 13.527344 C 8.636719 13.914062 8.566406 13.910156 8.113281 13.429688 Z M 10.203125 12.484375 C 10.203125 11.808594 10.203125 11.808594 10.542969 11.808594 C 10.871094 11.808594 10.878906 11.820312 10.878906 12.375 C 10.878906 12.910156 10.679688 13.15625 10.253906 13.15625 C 10.226562 13.15625 10.203125 12.851562 10.203125 12.484375 Z M 7.285156 10.585938 C 5.671875 9.503906 6.074219 7.972656 8.039062 7.722656 C 9.0625 7.59375 10.070312 8.363281 9.683594 8.980469 C 9.496094 9.277344 8.667969 9.296875 8.28125 9.011719 C 7.8125 8.664062 7.511719 8.703125 7.511719 9.105469 C 7.511719 9.46875 8.0625 9.8125 8.894531 9.964844 C 9.320312 10.039062 9.320312 10.039062 8.761719 10.359375 C 8.453125 10.539062 8.167969 10.734375 8.128906 10.796875 C 8.011719 10.984375 7.796875 10.929688 7.285156 10.585938 Z M 10.167969 7.796875 C 10.125 6.636719 10.09375 5.25 10.09375 4.714844 C 10.09375 3.875 10.0625 3.71875 9.871094 3.585938 C 8.867188 2.878906 9.882812 1.300781 10.980469 1.867188 C 11.613281 2.195312 11.691406 2.957031 11.160156 3.59375 C 10.878906 3.925781 10.878906 3.925781 10.878906 6.914062 C 10.878906 9.902344 10.878906 9.902344 10.558594 9.902344 C 10.238281 9.902344 10.238281 9.902344 10.167969 7.796875 Z M 7.0625 6.863281 C 6.890625 6.75 6.691406 6.570312 6.613281 6.46875 C 6.484375 6.289062 6.445312 6.289062 5.992188 6.46875 C 5.417969 6.695312 4.828125 6.496094 4.601562 6.003906 C 4.503906 5.789062 4.390625 5.722656 4.125 5.722656 C 3.6875 5.722656 3.273438 5.441406 3.273438 5.152344 C 3.273438 4.976562 3.222656 4.945312 3.007812 5 C 2.585938 5.105469 1.703125 4.523438 1.703125 4.140625 C 1.703125 4.101562 2.675781 4.039062 3.863281 4.003906 C 5.761719 3.945312 6.132812 3.902344 6.910156 3.648438 C 8.160156 3.246094 8.5 3.265625 8.789062 3.75 C 8.914062 3.964844 9.113281 4.171875 9.234375 4.207031 C 9.667969 4.347656 9.546875 6.910156 9.097656 6.996094 C 8.382812 7.140625 7.382812 7.074219 7.0625 6.863281 Z M 11.855469 6.972656 C 11.414062 6.84375 11.355469 4.328125 11.789062 4.21875 C 11.941406 4.179688 12.097656 4.046875 12.136719 3.925781 C 12.339844 3.285156 12.816406 3.222656 14.15625 3.65625 C 14.949219 3.910156 15.3125 3.949219 17.210938 4.007812 C 19.367188 4.070312 19.367188 4.070312 19.203125 4.386719 C 18.996094 4.785156 18.433594 5.089844 18.074219 5 C 17.878906 4.949219 17.808594 4.976562 17.808594 5.101562 C 17.808594 5.40625 17.378906 5.722656 16.972656 5.722656 C 16.664062 5.722656 16.546875 5.789062 16.390625 6.046875 C 16.066406 6.601562 15.53125 6.75 14.953125 6.445312 C 14.636719 6.28125 14.613281 6.285156 14.246094 6.644531 C 13.847656 7.027344 12.617188 7.199219 11.855469 6.972656 Z M 11.855469 6.972656 "/>
</svg>
