<?xml version="1.0" encoding="UTF-8"?>
<svg xmlns="http://www.w3.org/2000/svg" xmlns:xlink="http://www.w3.org/1999/xlink" width="12" height="12" viewBox="0 0 12 12" version="1.1">
<g id="surface1">
<path style="fill:none;stroke-width:24.7344;stroke-linecap:round;stroke-linejoin:round;stroke:rgb(100%,100%,100%);stroke-opacity:1;stroke-miterlimit:4;" d="M 437.076823 41.72526 L 200.130208 314.921875 " transform="matrix(0.0206897,0,0,0.0206897,0,0)"/>
<path style=" stroke:none;fill-rule:nonzero;fill:rgb(100%,100%,100%);fill-opacity:1;" d="M 3.84375 2.777344 C 3.949219 2.421875 3.742188 2.046875 3.382812 1.941406 C 3.023438 1.839844 2.652344 2.042969 2.546875 2.402344 C 2.441406 2.761719 2.648438 3.136719 3.007812 3.238281 C 3.367188 3.34375 3.738281 3.136719 3.84375 2.777344 Z M 3.84375 2.777344 "/>
<path style="fill:none;stroke-width:56.554798;stroke-linecap:round;stroke-linejoin:round;stroke:rgb(100%,100%,100%);stroke-opacity:1;stroke-miterlimit:4;" d="M 158.59375 206.927083 L 176.71875 304.348958 " transform="matrix(0.0206897,0,0,0.0206897,0,0)"/>
<path style="fill:none;stroke-width:40.383999;stroke-linecap:round;stroke-linejoin:round;stroke:rgb(100%,100%,100%);stroke-opacity:1;stroke-miterlimit:4;" d="M 305.859375 451.236979 L 270.742188 350.227865 L 181.25 315.299479 " transform="matrix(0.0206897,0,0,0.0206897,0,0)"/>
<path style=" stroke:none;fill-rule:nonzero;fill:rgb(100%,100%,100%);fill-opacity:1;" d="M 10.835938 8.632812 L 10.476562 8.679688 C 10.503906 8.789062 10.480469 8.914062 10.402344 8.992188 C 10.363281 9.03125 10.320312 9.054688 10.265625 9.070312 L 3.261719 10.910156 L 3.363281 11.316406 L 10.34375 9.46875 C 10.519531 9.421875 10.542969 9.382812 10.671875 9.257812 C 10.804688 9.128906 10.878906 8.808594 10.835938 8.632812 Z M 10.835938 8.632812 "/>
<path style="fill:none;stroke-width:36.484001;stroke-linecap:round;stroke-linejoin:round;stroke:rgb(100%,100%,100%);stroke-opacity:1;stroke-miterlimit:4;" d="M 312.089844 172.1875 L 162.558594 194.466146 " transform="matrix(0.0206897,0,0,0.0206897,0,0)"/>
<path style=" stroke:none;fill-rule:nonzero;fill:rgb(100%,100%,100%);fill-opacity:1;" d="M 3.832031 7.765625 C 3.902344 7.527344 3.761719 7.273438 3.519531 7.203125 C 3.28125 7.132812 3.027344 7.273438 2.957031 7.511719 C 2.886719 7.753906 3.027344 8.007812 3.265625 8.078125 C 3.507812 8.148438 3.761719 8.007812 3.832031 7.765625 Z M 3.832031 7.765625 "/>
</g>
</svg>
