<?xml version="1.0" encoding="UTF-8"?>
<svg xmlns="http://www.w3.org/2000/svg" xmlns:xlink="http://www.w3.org/1999/xlink" width="32" height="32" viewBox="0 0 32 32">
<path fill-rule="nonzero" fill="rgb(100%, 100%, 100%)" fill-opacity="1" d="M 12.757812 3.011719 C 6.589844 3.011719 3.558594 4.960938 3.558594 7.339844 L 3.558594 28.988281 L 21.957031 28.988281 L 21.957031 7.339844 C 21.957031 4.960938 18.925781 3.011719 12.757812 3.011719 Z M 27.371094 6.257812 C 26.175781 6.257812 25.207031 7.226562 25.207031 8.421875 C 25.207031 8.925781 25.394531 9.375 25.679688 9.742188 L 24.191406 13.429688 C 24.140625 13.558594 24.121094 13.695312 24.125 13.835938 L 24.125 18.164062 L 23.039062 18.164062 L 23.039062 23.578125 L 26.289062 23.578125 C 26.9375 23.578125 27.371094 23.144531 27.371094 22.496094 L 27.371094 19.246094 C 27.371094 18.597656 26.828125 18.164062 26.289062 18.164062 L 26.289062 14.070312 L 27.675781 10.554688 C 28.726562 10.40625 29.535156 9.515625 29.535156 8.421875 C 29.535156 7.226562 28.566406 6.257812 27.371094 6.257812 Z M 5.722656 8.421875 L 19.792969 8.421875 L 19.792969 16 L 5.722656 16 Z M 6.804688 9.503906 L 6.804688 14.917969 L 10.050781 14.917969 L 10.050781 9.503906 Z M 11.132812 9.503906 L 11.132812 14.917969 L 14.382812 14.917969 L 14.382812 9.503906 Z M 15.464844 9.503906 L 15.464844 14.917969 L 18.710938 14.917969 L 18.710938 9.503906 Z M 8.96875 21.410156 L 16.546875 21.410156 L 18.710938 23.578125 L 6.804688 23.578125 Z M 8.96875 21.410156 "/>
</svg>
