<?xml version="1.0" encoding="UTF-8"?>
<svg xmlns="http://www.w3.org/2000/svg" xmlns:xlink="http://www.w3.org/1999/xlink" width="32" height="32" viewBox="0 0 32 32">
<path fill-rule="nonzero" fill="rgb(100%, 100%, 100%)" fill-opacity="1" d="M 12.703125 9.265625 C 13.335938 9.265625 13.882812 9.046875 14.339844 8.613281 C 14.796875 8.179688 15.023438 7.644531 15.023438 7.011719 C 15.023438 6.378906 14.796875 5.84375 14.339844 5.410156 C 13.882812 4.976562 13.335938 4.757812 12.703125 4.757812 C 12.070312 4.757812 11.53125 4.976562 11.082031 5.410156 C 10.636719 5.84375 10.414062 6.378906 10.414062 7.011719 C 10.414062 7.644531 10.636719 8.179688 11.082031 8.613281 C 11.53125 9.046875 12.070312 9.265625 12.703125 9.265625 Z M 12.703125 9.265625 "/>
<path fill-rule="nonzero" fill="rgb(100%, 100%, 100%)" fill-opacity="1" d="M 24.386719 9.230469 C 24.316406 8.925781 24.140625 8.664062 23.859375 8.453125 C 23.859375 8.453125 23.761719 8.375 23.476562 8.328125 L 23.476562 1.835938 C 23.476562 1.402344 23.125 1.046875 22.6875 1.046875 C 22.253906 1.046875 21.902344 1.402344 21.902344 1.835938 L 21.902344 8.421875 C 20.585938 8.65625 13.125 10.003906 13.125 10.003906 C 12.796875 10.074219 12.53125 10.242188 12.332031 10.515625 C 12.132812 10.785156 12.082031 11.070312 12.175781 11.375 L 14.109375 18.941406 L 7.773438 28.410156 C 7.65625 28.621094 7.597656 28.84375 7.597656 29.078125 C 7.597656 29.453125 7.734375 29.777344 8.003906 30.046875 C 8.273438 30.316406 8.597656 30.453125 8.972656 30.453125 C 9.464844 30.453125 9.863281 30.21875 10.167969 29.746094 L 16.785156 19.789062 L 17.4375 22.53125 L 16.152344 28.621094 C 16.105469 28.996094 16.1875 29.332031 16.398438 29.625 C 16.609375 29.917969 16.902344 30.101562 17.277344 30.171875 C 17.652344 30.242188 18 30.164062 18.316406 29.941406 C 18.632812 29.71875 18.8125 29.417969 18.863281 29.042969 L 20.179688 22.777344 C 20.207031 22.519531 20.183594 22.25 20.113281 21.964844 L 18.25 14.371094 C 19.796875 13.257812 18.878906 12.417969 17.558594 11.621094 L 21.902344 10.84375 L 21.902344 30.164062 C 21.902344 30.597656 22.253906 30.953125 22.6875 30.953125 C 23.125 30.953125 23.476562 30.597656 23.476562 30.164062 L 23.476562 10.558594 C 23.761719 10.503906 23.996094 10.351562 24.175781 10.089844 C 24.363281 9.820312 24.433594 9.535156 24.386719 9.230469 Z M 24.386719 9.230469 "/>
</svg>
