<?xml version="1.0" encoding="UTF-8"?>
<svg xmlns="http://www.w3.org/2000/svg" xmlns:xlink="http://www.w3.org/1999/xlink" width="32" height="32" viewBox="0 0 32 32">
<path fill-rule="evenodd" fill="rgb(100%, 100%, 100%)" fill-opacity="1" d="M 4 6.667969 C 2.527344 6.667969 1.332031 7.859375 1.332031 9.332031 L 1.332031 22.667969 L 4 22.667969 C 4 24.875 5.789062 26.667969 8 26.667969 C 10.210938 26.667969 12 24.875 12 22.667969 L 20 22.667969 C 20 24.875 21.789062 26.667969 24 26.667969 C 26.210938 26.667969 28 24.875 28 22.667969 L 30.667969 22.667969 L 30.667969 14.667969 L 22.667969 6.667969 Z M 4 9.332031 L 9.332031 9.332031 L 9.332031 14.667969 L 4 14.667969 Z M 8 24 C 8.738281 24 9.332031 23.402344 9.332031 22.667969 C 9.332031 21.929688 8.738281 21.332031 8 21.332031 C 7.261719 21.332031 6.667969 21.929688 6.667969 22.667969 C 6.667969 23.402344 7.261719 24 8 24 Z M 24 24 C 24.738281 24 25.332031 23.402344 25.332031 22.667969 C 25.332031 21.929688 24.738281 21.332031 24 21.332031 C 23.261719 21.332031 22.667969 21.929688 22.667969 22.667969 C 22.667969 23.402344 23.261719 24 24 24 Z M 17.332031 9.332031 L 12 9.332031 L 12 14.667969 L 17.332031 14.667969 Z M 20 9.332031 L 21.332031 9.332031 L 26.667969 14.667969 L 20 14.667969 Z M 20 9.332031 "/>
</svg>
