<?xml version="1.0" encoding="UTF-8"?>
<svg xmlns="http://www.w3.org/2000/svg" xmlns:xlink="http://www.w3.org/1999/xlink" width="32" height="32" viewBox="0 0 32 32">
<path fill-rule="evenodd" fill="rgb(100%, 100%, 100%)" fill-opacity="1" d="M 21.332031 10.667969 L 24 10.667969 L 24 21.28125 L 16.832031 26.375 L 15.167969 24.292969 L 21.332031 20 Z M 21.332031 10.667969 "/>
<path fill-rule="nonzero" fill="rgb(100%, 100%, 100%)" fill-opacity="1" d="M 20 25.332031 C 20 27.542969 18.210938 29.332031 16 29.332031 C 13.789062 29.332031 12 27.542969 12 25.332031 C 12 23.125 13.789062 21.332031 16 21.332031 C 18.210938 21.332031 20 23.125 20 25.332031 Z M 20 25.332031 "/>
<path fill-rule="nonzero" fill="rgb(100%, 100%, 100%)" fill-opacity="1" d="M 18.667969 2.667969 C 18.667969 4.140625 17.472656 5.332031 16 5.332031 C 14.527344 5.332031 13.332031 4.140625 13.332031 2.667969 C 13.332031 1.195312 14.527344 0 16 0 C 17.472656 0 18.667969 1.195312 18.667969 2.667969 Z M 18.667969 2.667969 "/>
<path fill-rule="nonzero" fill="rgb(100%, 100%, 100%)" fill-opacity="1" d="M 18.667969 12.457031 L 18.667969 16 C 18.667969 16.988281 18.128906 17.847656 17.332031 18.308594 L 17.332031 25.332031 L 14.667969 25.332031 L 14.667969 18.308594 C 13.871094 17.847656 13.332031 16.988281 13.332031 16 L 13.332031 9.332031 C 13.332031 7.859375 14.527344 6.667969 16 6.667969 C 16.84375 6.667969 17.59375 7.058594 18.085938 7.667969 C 18.363281 7.90625 18.609375 8.179688 18.816406 8.484375 L 19.574219 9.625 C 19.660156 9.753906 19.757812 9.871094 19.867188 9.980469 C 20.304688 10.421875 20.710938 10.667969 21.332031 10.667969 L 21.332031 13.332031 C 20.316406 13.332031 19.441406 13.023438 18.667969 12.457031 Z M 18.667969 12.457031 "/>
</svg>
