<?xml version="1.0" encoding="UTF-8"?>
<svg xmlns="http://www.w3.org/2000/svg" xmlns:xlink="http://www.w3.org/1999/xlink" width="12" height="12" viewBox="0 0 12 12" version="1.1">
<g id="surface1">
<path style=" stroke:none;fill-rule:nonzero;fill:rgb(100%,100%,100%);fill-opacity:1;" d="M 11.398438 3.175781 L 11.125 3.835938 L 5.90625 1.226562 L 0.882812 3.832031 L 0.601562 3.179688 L 5.898438 0.425781 Z M 11.398438 3.175781 "/>
<path style=" stroke:none;fill-rule:nonzero;fill:rgb(100%,100%,100%);fill-opacity:1;" d="M 11.328125 4.242188 L 10.625 4.242188 L 10.625 11.304688 L 11.328125 11.304688 Z M 11.328125 4.242188 "/>
<path style=" stroke:none;fill-rule:nonzero;fill:rgb(100%,100%,100%);fill-opacity:1;" d="M 8.71875 7.28125 L 7.378906 6.878906 C 7.289062 7.003906 7.109375 7.164062 6.789062 7.195312 C 6.789062 7.195312 5.121094 7.265625 4.859375 7.320312 C 4.859375 7.320312 4.449219 7.296875 4.125 7.554688 C 4.0625 7.5625 3.460938 7.65625 2.972656 8.382812 C 2.972656 8.382812 2.621094 8.855469 2.269531 8.835938 C 2.269531 8.835938 2.847656 9.003906 3.550781 8.257812 C 3.550781 8.257812 3.65625 7.988281 3.882812 7.839844 C 3.816406 7.957031 3.765625 8.097656 3.742188 8.269531 C 3.742188 8.269531 3.496094 10.449219 3.410156 10.558594 C 3.410156 10.558594 3.273438 11.082031 3.535156 11.113281 C 3.535156 11.113281 4.210938 11.25 3.757812 10.933594 C 3.757812 10.933594 3.550781 11.042969 3.90625 9.828125 C 3.90625 9.828125 3.945312 9.808594 4.007812 9.773438 L 3.890625 10.820312 C 3.890625 10.820312 3.957031 11.066406 4.382812 11.144531 C 4.570312 11.179688 4.523438 11.074219 4.5 11.007812 C 4.5 11.007812 4.125 10.855469 4.175781 10.601562 L 4.511719 9.429688 C 4.773438 9.214844 5.03125 8.929688 5.09375 8.601562 C 5.9375 8.78125 6.449219 9.195312 6.949219 9.28125 C 6.945312 9.695312 6.941406 10.640625 6.941406 10.84375 C 6.941406 10.84375 7.671875 11.324219 7.589844 10.910156 C 7.589844 10.910156 7.328125 10.910156 7.257812 10.5 C 7.257812 10.5 7.324219 9.96875 7.441406 9.484375 C 7.496094 9.894531 7.601562 10.710938 7.601562 10.90625 C 7.601562 10.90625 8.332031 11.386719 8.25 10.972656 C 8.25 10.972656 7.988281 10.972656 7.921875 10.558594 C 7.921875 10.558594 7.894531 9.261719 8.183594 8.929688 C 8.195312 8.914062 8.207031 8.902344 8.222656 8.890625 C 8.554688 8.644531 8.652344 8.3125 8.71875 7.679688 C 8.71875 7.679688 8.699219 7.507812 8.71875 7.28125 Z M 8.71875 7.28125 "/>
<path style=" stroke:none;fill-rule:nonzero;fill:rgb(100%,100%,100%);fill-opacity:1;" d="M 9.710938 6.230469 L 9.105469 5.898438 C 9.105469 5.898438 9.160156 5.757812 8.746094 5.488281 C 8.699219 5.457031 8.707031 5.429688 8.707031 5.429688 L 8.503906 4.855469 L 8.214844 5.414062 C 8.214844 5.414062 7.769531 6.042969 7.542969 6.539062 L 8.785156 6.914062 C 8.820312 6.792969 8.867188 6.671875 8.941406 6.5625 C 8.941406 6.5625 9.578125 6.738281 9.726562 6.285156 C 9.746094 6.230469 9.710938 6.230469 9.710938 6.230469 Z M 9.710938 6.230469 "/>
<path style=" stroke:none;fill-rule:nonzero;fill:rgb(100%,100%,100%);fill-opacity:1;" d="M 1.5625 4.242188 L 0.859375 4.242188 L 0.859375 11.304688 L 1.5625 11.304688 Z M 1.5625 4.242188 "/>
<path style="fill:none;stroke-width:20;stroke-linecap:round;stroke-linejoin:round;stroke:rgb(100%,100%,100%);stroke-opacity:1;stroke-miterlimit:4;" d="M 290 282.447917 C 336.25651 282.447917 373.828125 244.876302 373.828125 198.43099 C 373.828125 152.174479 336.25651 114.602865 290 114.602865 C 243.74349 114.602865 206.171875 152.174479 206.171875 198.43099 C 206.171875 244.876302 243.74349 282.447917 290 282.447917 Z M 290 282.447917 " transform="matrix(0.0206897,0,0,0.0206897,0,0)"/>
<path style="fill:none;stroke-width:18;stroke-linecap:butt;stroke-linejoin:miter;stroke:rgb(100%,100%,100%);stroke-opacity:1;stroke-miterlimit:4;" d="M 251.295573 159.726562 L 290 198.43099 L 323.795573 198.43099 " transform="matrix(0.0206897,0,0,0.0206897,0,0)"/>
</g>
</svg>
