<?xml version="1.0" encoding="UTF-8"?>
<svg xmlns="http://www.w3.org/2000/svg" xmlns:xlink="http://www.w3.org/1999/xlink" width="12" height="12" viewBox="0 0 12 12">
<path fill-rule="nonzero" fill="rgb(100%, 100%, 100%)" fill-opacity="1" d="M 2.328125 10.769531 C 2.472656 10.769531 2.675781 10.816406 2.929688 10.90625 C 3.183594 10.992188 3.386719 11.039062 3.53125 11.039062 C 3.675781 11.039062 3.878906 10.992188 4.132812 10.90625 C 4.386719 10.816406 4.589844 10.769531 4.734375 10.769531 C 4.878906 10.769531 5.082031 10.816406 5.34375 10.90625 C 5.601562 10.992188 5.800781 11.039062 5.9375 11.039062 C 6.082031 11.039062 6.285156 10.992188 6.546875 10.90625 C 6.804688 10.816406 7.007812 10.769531 7.152344 10.769531 C 7.289062 10.769531 7.488281 10.816406 7.75 10.90625 C 8.007812 10.992188 8.210938 11.039062 8.355469 11.039062 C 8.503906 11.039062 8.703125 10.992188 8.957031 10.90625 C 9.214844 10.816406 9.414062 10.769531 9.558594 10.769531 C 9.707031 10.769531 9.90625 10.816406 10.160156 10.90625 C 10.417969 10.992188 10.617188 11.039062 10.761719 11.039062 L 10.761719 10.140625 C 10.617188 10.140625 10.417969 10.097656 10.160156 10.011719 C 9.90625 9.925781 9.707031 9.882812 9.558594 9.882812 C 9.414062 9.882812 9.210938 9.925781 8.953125 10.011719 C 8.691406 10.097656 8.492188 10.140625 8.355469 10.140625 C 8.210938 10.140625 8.007812 10.097656 7.75 10.011719 C 7.488281 9.925781 7.289062 9.882812 7.152344 9.882812 C 7.007812 9.882812 6.804688 9.925781 6.546875 10.011719 C 6.285156 10.097656 6.082031 10.140625 5.9375 10.140625 C 5.800781 10.140625 5.601562 10.097656 5.34375 10.011719 C 5.082031 9.925781 4.878906 9.882812 4.734375 9.882812 C 4.589844 9.882812 4.386719 9.925781 4.132812 10.011719 C 3.878906 10.097656 3.675781 10.140625 3.53125 10.140625 C 3.386719 10.140625 3.183594 10.097656 2.929688 10.011719 C 2.675781 9.925781 2.472656 9.882812 2.328125 9.882812 C 2.183594 9.882812 1.980469 9.925781 1.71875 10.011719 C 1.460938 10.097656 1.261719 10.140625 1.125 10.140625 L 1.125 11.039062 C 1.261719 11.039062 1.460938 10.992188 1.71875 10.90625 C 1.980469 10.816406 2.183594 10.769531 2.328125 10.769531 Z M 3.847656 6.664062 C 4.074219 6.664062 4.265625 6.585938 4.425781 6.425781 C 4.582031 6.269531 4.660156 6.074219 4.660156 5.847656 C 4.660156 5.628906 4.582031 5.441406 4.425781 5.285156 C 4.265625 5.125 4.074219 5.046875 3.847656 5.046875 C 3.621094 5.046875 3.429688 5.125 3.269531 5.285156 C 3.113281 5.441406 3.03125 5.628906 3.03125 5.847656 C 3.03125 6.074219 3.113281 6.269531 3.269531 6.425781 C 3.429688 6.585938 3.621094 6.664062 3.847656 6.664062 Z M 3.566406 9.714844 C 3.746094 9.714844 3.878906 9.636719 3.96875 9.484375 L 5.28125 7.199219 L 8.148438 5.421875 C 8.269531 5.34375 8.363281 5.246094 8.429688 5.132812 L 10.410156 1.765625 C 10.457031 1.683594 10.484375 1.589844 10.484375 1.484375 C 10.484375 1.332031 10.429688 1.199219 10.320312 1.085938 C 10.210938 0.972656 10.078125 0.914062 9.925781 0.914062 C 9.707031 0.914062 9.539062 1.011719 9.425781 1.207031 L 7.773438 4.015625 L 5.355469 5.472656 C 5.226562 5.554688 5.128906 5.652344 5.0625 5.765625 L 3.167969 9.019531 C 3.125 9.085938 3.105469 9.164062 3.105469 9.253906 C 3.105469 9.375 3.152344 9.480469 3.246094 9.574219 C 3.339844 9.667969 3.445312 9.714844 3.566406 9.714844 Z M 3.566406 9.714844 "/>
</svg>
