<?xml version="1.0" encoding="UTF-8"?>
<svg xmlns="http://www.w3.org/2000/svg" xmlns:xlink="http://www.w3.org/1999/xlink" width="32" height="32" viewBox="0 0 32 32">
<path fill-rule="nonzero" fill="rgb(100%, 100%, 100%)" fill-opacity="1" d="M 8.382812 16.898438 C 7.546875 16.898438 6.832031 17.410156 6.523438 18.132812 L 6.363281 20.082031 L 6.363281 22.21875 C 6.363281 22.480469 6.414062 22.726562 6.503906 22.957031 L 2.136719 22.957031 L 2.136719 30.148438 L 3.503906 30.148438 L 3.503906 25.027344 L 17.519531 25.027344 L 17.519531 30.148438 L 18.886719 30.148438 L 18.886719 22.957031 L 14.523438 22.957031 C 14.613281 22.726562 14.660156 22.480469 14.660156 22.21875 L 14.660156 20.082031 L 14.5 18.132812 C 14.195312 17.410156 13.476562 16.898438 12.640625 16.898438 Z M 7.960938 19.613281 L 8.4375 19.613281 L 8.4375 22.957031 L 7.960938 22.957031 Z M 12.585938 19.613281 L 13.066406 19.613281 L 13.066406 22.957031 L 12.585938 22.957031 Z M 12.585938 19.613281 "/>
<path fill-rule="nonzero" fill="rgb(100%, 100%, 100%)" fill-opacity="1" d="M 10.511719 11.09375 C 9.144531 11.09375 8.039062 12.199219 8.039062 13.566406 C 8.039062 14.933594 9.144531 16.039062 10.511719 16.039062 C 11.878906 16.039062 12.984375 14.933594 12.984375 13.566406 C 12.984375 12.199219 11.878906 11.09375 10.511719 11.09375 Z M 10.511719 11.09375 "/>
<path fill-rule="nonzero" fill="rgb(100%, 100%, 100%)" fill-opacity="1" d="M 22.019531 6.363281 C 21.742188 6.363281 21.523438 6.488281 21.367188 6.734375 C 21.214844 6.972656 21.136719 7.320312 21.136719 7.769531 C 21.136719 8.226562 21.210938 8.574219 21.363281 8.820312 C 21.515625 9.0625 21.738281 9.183594 22.019531 9.183594 C 22.304688 9.183594 22.523438 9.0625 22.671875 8.820312 C 22.824219 8.574219 22.898438 8.226562 22.898438 7.769531 C 22.898438 7.320312 22.820312 6.972656 22.667969 6.734375 C 22.515625 6.488281 22.300781 6.363281 22.019531 6.363281 Z M 22.019531 5.367188 C 22.757812 5.367188 23.335938 5.582031 23.757812 6.007812 C 24.183594 6.4375 24.394531 7.023438 24.394531 7.769531 C 24.394531 8.519531 24.183594 9.109375 23.757812 9.542969 C 23.335938 9.976562 22.757812 10.191406 22.019531 10.191406 C 21.285156 10.191406 20.703125 9.976562 20.277344 9.542969 C 19.855469 9.109375 19.640625 8.519531 19.640625 7.769531 C 19.640625 7.027344 19.855469 6.441406 20.277344 6.015625 C 20.703125 5.582031 21.285156 5.367188 22.019531 5.367188 Z M 16.582031 10.191406 L 15.269531 10.191406 L 20.804688 1.003906 L 22.121094 1.003906 Z M 15.363281 1.003906 C 16.101562 1.003906 16.679688 1.21875 17.097656 1.648438 C 17.519531 2.074219 17.730469 2.664062 17.730469 3.410156 C 17.730469 4.15625 17.519531 4.746094 17.097656 5.179688 C 16.679688 5.609375 16.101562 5.824219 15.363281 5.824219 C 14.628906 5.824219 14.050781 5.609375 13.625 5.179688 C 13.207031 4.746094 12.996094 4.15625 12.996094 3.410156 C 12.996094 2.664062 13.207031 2.074219 13.625 1.648438 C 14.050781 1.21875 14.628906 1.003906 15.363281 1.003906 Z M 15.363281 2 C 15.082031 2 14.859375 2.121094 14.707031 2.367188 C 14.550781 2.613281 14.476562 2.960938 14.476562 3.410156 C 14.476562 3.867188 14.550781 4.21875 14.707031 4.464844 C 14.859375 4.710938 15.082031 4.835938 15.363281 4.835938 C 15.648438 4.835938 15.867188 4.710938 16.015625 4.464844 C 16.171875 4.21875 16.25 3.867188 16.25 3.410156 C 16.25 2.960938 16.171875 2.613281 16.015625 2.367188 C 15.863281 2.121094 15.644531 2 15.363281 2 Z M 15.363281 2 "/>
<path fill-rule="nonzero" fill="rgb(100%, 100%, 100%)" fill-opacity="1" d="M 25.429688 4.539062 L 30.800781 4.539062 L 30.800781 6.054688 L 25.429688 6.054688 Z M 25.429688 4.539062 "/>
<path fill-rule="nonzero" fill="rgb(100%, 100%, 100%)" fill-opacity="1" d="M 20.214844 11.761719 L 20.214844 15.015625 L 23.453125 15.015625 L 23.453125 16.476562 L 20.214844 16.476562 L 20.214844 19.730469 L 18.738281 19.730469 L 18.738281 16.476562 L 15.5 16.476562 L 15.5 15.015625 L 18.738281 15.015625 L 18.738281 11.761719 Z M 20.214844 11.761719 "/>
<path fill-rule="nonzero" fill="rgb(100%, 100%, 100%)" fill-opacity="1" d="M 28.453125 11.261719 L 29.609375 11.261719 L 26.867188 20.015625 L 25.714844 20.015625 Z M 28.453125 11.261719 "/>
</svg>
