<?xml version="1.0" encoding="UTF-8"?>
<svg xmlns="http://www.w3.org/2000/svg" xmlns:xlink="http://www.w3.org/1999/xlink" width="12" height="12" viewBox="0 0 12 12" version="1.1">
<g id="surface1">
<path style="fill:none;stroke-width:38.715801;stroke-linecap:round;stroke-linejoin:round;stroke:rgb(100%,100%,100%);stroke-opacity:1;stroke-miterlimit:10;" d="M 334.557292 340.410156 C 295.852865 357.779948 245.442708 367.408854 202.96224 367.408854 C 123.476562 367.408854 57.773438 307.369792 57.773438 231.848958 C 57.773438 156.516927 123.476562 96.477865 202.96224 96.477865 C 249.407552 96.477865 290 115.735677 317.1875 146.699219 " transform="matrix(0.0206897,0,0,0.0206897,0,0)"/>
<path style=" stroke:none;fill-rule:nonzero;fill:rgb(100%,100%,100%);fill-opacity:1;" d="M 8.683594 5.398438 L 6.082031 6.402344 C 5.839844 6.480469 5.558594 6.28125 5.597656 6.039062 C 5.679688 5.597656 5.839844 5.039062 6.28125 4.839844 C 6.839844 4.597656 7.640625 4.277344 8.164062 4.078125 C 8.324219 3.996094 8.523438 4.039062 8.601562 4.238281 L 8.84375 4.878906 C 8.964844 5.078125 8.882812 5.320312 8.683594 5.398438 Z M 8.683594 5.398438 "/>
<path style=" stroke:none;fill-rule:nonzero;fill:rgb(100%,100%,100%);fill-opacity:1;" d="M 6.761719 4.796875 C 6.980469 4.796875 7.160156 4.621094 7.160156 4.398438 C 7.160156 4.175781 6.980469 3.996094 6.761719 3.996094 C 6.539062 3.996094 6.359375 4.175781 6.359375 4.398438 C 6.359375 4.621094 6.539062 4.796875 6.761719 4.796875 Z M 6.761719 4.796875 "/>
<path style=" stroke:none;fill-rule:nonzero;fill:rgb(100%,100%,100%);fill-opacity:1;" d="M 7.800781 4.398438 C 8.023438 4.398438 8.203125 4.21875 8.203125 3.996094 C 8.203125 3.777344 8.023438 3.597656 7.800781 3.597656 C 7.582031 3.597656 7.402344 3.777344 7.402344 3.996094 C 7.402344 4.21875 7.582031 4.398438 7.800781 4.398438 Z M 7.800781 4.398438 "/>
<path style=" stroke:none;fill-rule:nonzero;fill:rgb(100%,100%,100%);fill-opacity:1;" d="M 9.484375 3.71875 C 9.707031 3.71875 9.886719 3.539062 9.886719 3.316406 C 9.886719 3.09375 9.707031 2.917969 9.484375 2.917969 C 9.261719 2.917969 9.082031 3.09375 9.082031 3.316406 C 9.082031 3.539062 9.261719 3.71875 9.484375 3.71875 Z M 9.484375 3.71875 "/>
<path style=" stroke:none;fill-rule:nonzero;fill:rgb(100%,100%,100%);fill-opacity:1;" d="M 10.644531 3.277344 C 10.867188 3.277344 11.046875 3.097656 11.046875 2.875 C 11.046875 2.65625 10.867188 2.476562 10.644531 2.476562 C 10.425781 2.476562 10.246094 2.65625 10.246094 2.875 C 10.246094 3.097656 10.425781 3.277344 10.644531 3.277344 Z M 10.644531 3.277344 "/>
<path style=" stroke:none;fill-rule:nonzero;fill:rgb(100%,100%,100%);fill-opacity:1;" d="M 11.207031 2.957031 C 11.125 2.957031 11.085938 2.957031 11.007812 2.996094 C 10.40625 3.238281 9.644531 3.515625 9.082031 3.71875 C 8.921875 3.796875 8.804688 3.917969 8.882812 4.117188 L 9.164062 4.757812 C 9.203125 4.957031 9.445312 5.078125 9.644531 5 L 11.207031 4.398438 Z M 11.207031 2.957031 "/>
<path style=" stroke:none;fill-rule:nonzero;fill:rgb(100%,100%,100%);fill-opacity:1;" d="M 11.207031 4.796875 L 6.800781 6.679688 C 6.601562 6.761719 6.519531 7 6.601562 7.203125 C 6.679688 7.363281 6.800781 7.441406 6.960938 7.441406 C 7 7.441406 7.082031 7.441406 7.121094 7.402344 L 11.207031 5.679688 Z M 11.207031 4.796875 "/>
<path style=" stroke:none;fill-rule:nonzero;fill:rgb(100%,100%,100%);fill-opacity:1;" d="M 1.59375 7.402344 L 1.59375 10.40625 L 0.792969 10.40625 L 0.792969 6.402344 C 0.992188 6.800781 1.273438 7.121094 1.59375 7.402344 Z M 6 8.164062 L 6 10.40625 L 6.800781 10.40625 L 6.800781 7.960938 C 6.5625 8.042969 6.28125 8.121094 6 8.164062 Z M 10.003906 6.601562 L 10.003906 10.40625 L 10.804688 10.40625 L 10.804688 6.28125 Z M 10.003906 6.601562 "/>
</g>
</svg>
