<?xml version="1.0" encoding="UTF-8"?>
<svg xmlns="http://www.w3.org/2000/svg" xmlns:xlink="http://www.w3.org/1999/xlink" width="12" height="12" viewBox="0 0 12 12" version="1.1">
<g id="surface1">
<path style=" stroke:none;fill-rule:evenodd;fill:rgb(100%,100%,100%);fill-opacity:1;" d="M 2 1 C 1.449219 1 1 1.449219 1 2 L 1 4 C 1 4.550781 1.449219 5 2 5 L 4.5 5 C 4.777344 5 5 4.777344 5 4.5 L 5 4 L 10.292969 4 C 10.425781 4 10.550781 3.949219 10.644531 3.855469 L 11 3.5 L 7 3.5 L 7 3 L 11 3 L 10.636719 2.277344 C 10.554688 2.105469 10.378906 2 10.191406 2 L 5 2 L 5 1.5 C 5 1.222656 4.777344 1 4.5 1 Z M 3 2 L 2 2 L 2 4 L 3 4 Z M 3 2 "/>
<path style=" stroke:none;fill-rule:evenodd;fill:rgb(100%,100%,100%);fill-opacity:1;" d="M 6.5 5 C 6.222656 5 6 5.222656 6 5.5 C 6 5.777344 6.222656 6 6.5 6 L 7 6 L 7 7 L 4.707031 7 L 4.675781 6.96875 C 4.863281 6.898438 5 6.714844 5 6.5 C 5 6.222656 4.777344 6 4.5 6 L 3.5 6 C 3.296875 6 3.117188 6.121094 3.039062 6.308594 C 2.960938 6.496094 3.003906 6.710938 3.144531 6.855469 L 3.890625 7.597656 L 3.683594 8.011719 C 3.625 8.003906 3.5625 8 3.5 8 C 2.671875 8 2 8.671875 2 9.5 C 2 10.328125 2.671875 11 3.5 11 C 4.152344 11 4.707031 10.582031 4.914062 10 L 7.085938 10 C 7.292969 10.582031 7.847656 11 8.5 11 C 9.328125 11 10 10.328125 10 9.5 C 10 8.671875 9.328125 8 8.5 8 C 8.4375 8 8.375 8.003906 8.316406 8.011719 L 8 7.382812 L 8 5.5 C 8 5.222656 7.777344 5 7.5 5 Z M 4.914062 9 C 4.84375 8.796875 4.726562 8.613281 4.578125 8.457031 L 4.808594 8 L 7.191406 8 L 7.421875 8.457031 C 7.273438 8.613281 7.15625 8.796875 7.085938 9 Z M 4 9.5 C 4 9.777344 3.777344 10 3.5 10 C 3.222656 10 3 9.777344 3 9.5 C 3 9.222656 3.222656 9 3.5 9 C 3.777344 9 4 9.222656 4 9.5 Z M 9 9.5 C 9 9.777344 8.777344 10 8.5 10 C 8.222656 10 8 9.777344 8 9.5 C 8 9.222656 8.222656 9 8.5 9 C 8.777344 9 9 9.222656 9 9.5 Z M 9 9.5 "/>
</g>
</svg>
