<?xml version="1.0" encoding="UTF-8"?>
<svg xmlns="http://www.w3.org/2000/svg" xmlns:xlink="http://www.w3.org/1999/xlink" width="32" height="32" viewBox="0 0 32 32">
<defs>
<filter id="filter-remove-color" x="0%" y="0%" width="100%" height="100%">
<feColorMatrix color-interpolation-filters="sRGB" values="0 0 0 0 1 0 0 0 0 1 0 0 0 0 1 0 0 0 1 0" />
</filter>
<mask id="mask-0">
<g filter="url(#filter-remove-color)">
<rect x="-3.2" y="-3.2" width="38.4" height="38.4" fill="rgb(0%, 0%, 0%)" fill-opacity="0.8"/>
</g>
</mask>
<clipPath id="clip-0">
<rect x="0" y="0" width="32" height="32"/>
</clipPath>
<g id="source-7" clip-path="url(#clip-0)">
<path fill-rule="nonzero" fill="rgb(24.705882%, 24.705882%, 24.705882%)" fill-opacity="1" d="M 5.332031 10.667969 L 2.667969 10.667969 L 2.667969 13.332031 L 5.332031 13.332031 Z M 5.332031 10.667969 "/>
<path fill-rule="nonzero" fill="rgb(24.705882%, 24.705882%, 24.705882%)" fill-opacity="1" d="M 29.332031 10.667969 L 26.667969 10.667969 L 26.667969 13.332031 L 29.332031 13.332031 Z M 29.332031 10.667969 "/>
</g>
<mask id="mask-1">
<g filter="url(#filter-remove-color)">
<rect x="-3.2" y="-3.2" width="38.4" height="38.4" fill="rgb(0%, 0%, 0%)" fill-opacity="0.3"/>
</g>
</mask>
<clipPath id="clip-1">
<rect x="0" y="0" width="32" height="32"/>
</clipPath>
<g id="source-11" clip-path="url(#clip-1)">
<path fill-rule="nonzero" fill="rgb(24.705882%, 24.705882%, 24.705882%)" fill-opacity="1" d="M 8 8 L 24 8 L 24 29.332031 L 8 29.332031 Z M 8 8 "/>
</g>
<mask id="mask-2">
<g filter="url(#filter-remove-color)">
<rect x="-3.2" y="-3.2" width="38.4" height="38.4" fill="rgb(0%, 0%, 0%)" fill-opacity="0.15"/>
</g>
</mask>
<clipPath id="clip-2">
<rect x="0" y="0" width="32" height="32"/>
</clipPath>
<g id="source-15" clip-path="url(#clip-2)">
<path fill-rule="nonzero" fill="rgb(24.705882%, 24.705882%, 24.705882%)" fill-opacity="1" d="M 8 5.332031 L 24 5.332031 L 24 8 L 8 8 Z M 8 5.332031 "/>
</g>
<mask id="mask-3">
<g filter="url(#filter-remove-color)">
<rect x="-3.2" y="-3.2" width="38.4" height="38.4" fill="rgb(0%, 0%, 0%)" fill-opacity="0.5"/>
</g>
</mask>
<clipPath id="clip-3">
<rect x="0" y="0" width="32" height="32"/>
</clipPath>
<g id="source-25" clip-path="url(#clip-3)">
<path fill-rule="nonzero" fill="rgb(24.705882%, 24.705882%, 24.705882%)" fill-opacity="1" d="M 8 5.332031 L 5.332031 5.332031 L 5.332031 8 L 8 8 Z M 8 5.332031 "/>
<path fill-rule="nonzero" fill="rgb(24.705882%, 24.705882%, 24.705882%)" fill-opacity="1" d="M 26.667969 5.332031 L 24 5.332031 L 24 8 L 26.667969 8 Z M 26.667969 5.332031 "/>
<path fill-rule="nonzero" fill="rgb(24.705882%, 24.705882%, 24.705882%)" fill-opacity="1" d="M 12 26.667969 C 12.738281 26.667969 13.332031 26.070312 13.332031 25.332031 C 13.332031 24.597656 12.738281 24 12 24 C 11.261719 24 10.667969 24.597656 10.667969 25.332031 C 10.667969 26.070312 11.261719 26.667969 12 26.667969 Z M 12 26.667969 "/>
<path fill-rule="nonzero" fill="rgb(24.705882%, 24.705882%, 24.705882%)" fill-opacity="1" d="M 20 26.667969 C 20.738281 26.667969 21.332031 26.070312 21.332031 25.332031 C 21.332031 24.597656 20.738281 24 20 24 C 19.261719 24 18.667969 24.597656 18.667969 25.332031 C 18.667969 26.070312 19.261719 26.667969 20 26.667969 Z M 20 26.667969 "/>
</g>
</defs>
<g mask="url(#mask-0)">
<use xlink:href="#source-7"/>
</g>
<g mask="url(#mask-1)">
<use xlink:href="#source-11"/>
</g>
<g mask="url(#mask-2)">
<use xlink:href="#source-15"/>
</g>
<path fill-rule="nonzero" fill="rgb(24.705882%, 24.705882%, 24.705882%)" fill-opacity="1" d="M 2.667969 13.332031 C 1.195312 13.332031 0 12.140625 0 10.667969 L 0 5.332031 C 0 3.859375 1.195312 2.667969 2.667969 2.667969 L 29.332031 2.667969 C 30.804688 2.667969 32 3.859375 32 5.332031 L 32 10.667969 C 32 12.140625 30.804688 13.332031 29.332031 13.332031 L 29.332031 5.332031 L 2.667969 5.332031 Z M 2.667969 13.332031 "/>
<path fill-rule="nonzero" fill="rgb(24.705882%, 24.705882%, 24.705882%)" fill-opacity="1" d="M 8 32 C 6.527344 32 5.332031 30.804688 5.332031 29.332031 L 5.332031 8 L 8 8 L 8 29.332031 L 24 29.332031 L 24 8 L 26.667969 8 L 26.667969 29.332031 C 26.667969 30.804688 25.472656 32 24 32 Z M 8 32 "/>
<path fill-rule="nonzero" fill="rgb(24.705882%, 24.705882%, 24.705882%)" fill-opacity="1" d="M 16 18.667969 C 18.945312 18.667969 21.332031 16.875 21.332031 14.667969 C 21.332031 12.457031 18.945312 10.667969 16 10.667969 C 13.054688 10.667969 10.667969 12.457031 10.667969 14.667969 C 10.667969 16.875 13.054688 18.667969 16 18.667969 Z M 16 18.667969 "/>
<g mask="url(#mask-3)">
<use xlink:href="#source-25"/>
</g>
</svg>
