<?xml version="1.0" encoding="UTF-8"?>
<svg xmlns="http://www.w3.org/2000/svg" xmlns:xlink="http://www.w3.org/1999/xlink" width="12" height="12" viewBox="0 0 12 12" version="1.1">
<g id="surface1">
<path style=" stroke:none;fill-rule:evenodd;fill:rgb(100%,100%,100%);fill-opacity:1;" d="M 8.285156 7.777344 C 8.542969 7.972656 8.835938 8.230469 8.824219 8.585938 C 8.835938 8.808594 8.828125 9.035156 8.878906 9.253906 C 9.046875 9.515625 9.195312 9.796875 9.242188 10.105469 C 9.265625 10.554688 8.929688 10.972656 8.515625 11.105469 C 8.085938 11.195312 7.609375 11.085938 7.296875 10.769531 C 7.085938 10.582031 6.933594 10.300781 6.640625 10.234375 C 6.375 10.164062 6.089844 10.128906 5.863281 9.957031 C 5.636719 9.8125 5.496094 9.578125 5.371094 9.347656 C 5.230469 9.070312 5.246094 8.722656 5.421875 8.460938 C 5.660156 8.058594 6.164062 7.902344 6.613281 7.929688 C 6.804688 7.945312 7.003906 7.957031 7.167969 7.839844 C 7.375 7.71875 7.597656 7.539062 7.855469 7.609375 C 8.007812 7.636719 8.152344 7.699219 8.285156 7.777344 Z M 8.285156 7.777344 "/>
<path style=" stroke:none;fill-rule:evenodd;fill:rgb(100%,100%,100%);fill-opacity:1;" d="M 6.078125 5.789062 C 6.261719 5.617188 6.542969 5.523438 6.785156 5.628906 C 6.957031 5.703125 7.097656 5.84375 7.191406 6 C 7.347656 6.324219 7.324219 6.703125 7.238281 7.042969 C 7.199219 7.207031 7.140625 7.371094 7.019531 7.492188 C 6.886719 7.640625 6.679688 7.714844 6.484375 7.683594 C 6.203125 7.6875 5.941406 7.507812 5.828125 7.257812 C 5.757812 7.113281 5.710938 6.949219 5.726562 6.785156 C 5.734375 6.429688 5.824219 6.054688 6.078125 5.789062 Z M 6.078125 5.789062 "/>
<path style=" stroke:none;fill-rule:evenodd;fill:rgb(100%,100%,100%);fill-opacity:1;" d="M 8.917969 5.429688 C 8.917969 5.429688 9.257812 5.636719 9.1875 6.183594 C 9.1875 6.183594 9.148438 6.542969 8.847656 6.953125 C 8.847656 6.953125 8.578125 7.386719 8.214844 7.410156 C 8.214844 7.410156 7.667969 7.519531 7.519531 6.847656 C 7.519531 6.847656 7.414062 6.375 7.617188 5.910156 C 7.617188 5.910156 7.816406 5.429688 8.25 5.328125 C 8.25 5.328125 8.613281 5.246094 8.917969 5.429688 Z M 8.917969 5.429688 "/>
<path style=" stroke:none;fill-rule:evenodd;fill:rgb(100%,100%,100%);fill-opacity:1;" d="M 10.65625 6.589844 C 10.65625 6.589844 11 6.964844 10.671875 7.417969 C 10.671875 7.417969 10.464844 7.816406 10.03125 8.03125 C 10.03125 8.03125 9.542969 8.328125 9.207031 8.191406 C 9.207031 8.191406 8.804688 8.097656 8.867188 7.429688 C 8.867188 7.429688 9.042969 6.734375 9.550781 6.5 C 9.550781 6.5 10.21875 6.097656 10.65625 6.589844 Z M 10.65625 6.589844 "/>
<path style=" stroke:none;fill-rule:evenodd;fill:rgb(100%,100%,100%);fill-opacity:1;" d="M 10.953125 8.425781 C 11.113281 8.605469 11.136719 8.875 11.035156 9.089844 C 10.945312 9.285156 10.792969 9.441406 10.632812 9.574219 C 10.382812 9.765625 10.074219 9.875 9.761719 9.882812 C 9.535156 9.875 9.34375 9.707031 9.25 9.507812 C 9.203125 9.441406 9.199219 9.359375 9.210938 9.277344 C 9.230469 9.007812 9.363281 8.746094 9.585938 8.585938 C 9.789062 8.433594 10.007812 8.285156 10.261719 8.246094 C 10.460938 8.203125 10.6875 8.207031 10.855469 8.332031 C 10.890625 8.359375 10.921875 8.390625 10.953125 8.425781 Z M 10.953125 8.425781 "/>
<path style=" stroke:none;fill-rule:nonzero;fill:rgb(100%,100%,100%);fill-opacity:1;" d="M 3.894531 8.6875 C 3.585938 8.191406 4.140625 7.542969 4.519531 7.960938 C 4.636719 8.089844 4.582031 8.105469 4.320312 8.011719 C 4.085938 7.929688 4.085938 7.929688 4.058594 8.253906 C 4.042969 8.429688 4.027344 8.601562 4.023438 8.636719 C 4.015625 8.707031 3.929688 8.742188 3.894531 8.6875 Z M 3.296875 8.085938 C 3.285156 8.066406 3.457031 7.933594 3.675781 7.789062 C 3.898438 7.648438 4.078125 7.5 4.078125 7.464844 C 4.078125 7.417969 4.054688 7.425781 3.980469 7.496094 C 3.859375 7.609375 3.816406 7.609375 3.835938 7.496094 C 3.84375 7.429688 3.90625 7.390625 4.078125 7.335938 C 4.207031 7.296875 4.351562 7.242188 4.40625 7.214844 C 4.542969 7.140625 4.554688 7.410156 4.421875 7.558594 C 4.296875 7.699219 3.335938 8.152344 3.296875 8.085938 Z M 3.515625 7.585938 C 3.296875 7.324219 3.414062 7.097656 3.875 6.894531 C 4.136719 6.78125 4.199219 6.71875 4.125 6.648438 C 4.089844 6.613281 4.078125 6.613281 4.078125 6.648438 C 4.078125 6.675781 4.023438 6.730469 3.953125 6.765625 C 3.824219 6.832031 3.746094 6.714844 3.867188 6.640625 C 4.269531 6.390625 4.542969 6.398438 4.542969 6.660156 C 4.542969 7.023438 4.382812 7.195312 3.984375 7.269531 C 3.796875 7.304688 3.753906 7.351562 3.734375 7.539062 C 3.71875 7.730469 3.652344 7.746094 3.515625 7.585938 Z M 3.347656 6.960938 C 3.113281 6.699219 3.371094 6.28125 3.875 6.117188 C 4.316406 5.972656 4.4375 5.753906 4.164062 5.605469 C 4.085938 5.566406 4.078125 5.574219 4.078125 5.75 C 4.078125 5.917969 4.066406 5.941406 3.953125 5.980469 C 3.828125 6.023438 3.828125 6.023438 3.828125 5.820312 C 3.828125 5.613281 3.828125 5.613281 4.070312 5.542969 C 4.203125 5.5 4.367188 5.441406 4.433594 5.40625 C 4.550781 5.347656 4.5625 5.351562 4.65625 5.457031 C 4.957031 5.808594 4.769531 6.214844 4.214844 6.40625 C 3.753906 6.566406 3.691406 6.605469 3.707031 6.734375 C 3.71875 6.824219 3.691406 6.871094 3.582031 6.945312 C 3.417969 7.058594 3.433594 7.054688 3.347656 6.960938 Z M 3.175781 6.097656 C 2.882812 5.710938 3.140625 5.332031 3.898438 5.042969 C 4.097656 4.96875 4.242188 4.882812 4.3125 4.796875 C 4.417969 4.675781 4.421875 4.628906 4.355469 4.464844 C 4.332031 4.410156 4.367188 4.394531 4.523438 4.371094 C 4.632812 4.355469 4.75 4.320312 4.785156 4.292969 C 4.867188 4.226562 4.945312 4.332031 4.984375 4.558594 C 5.042969 4.910156 4.777344 5.179688 4.15625 5.398438 C 3.617188 5.589844 3.457031 5.785156 3.699219 5.957031 C 3.78125 6.011719 3.773438 6.019531 3.570312 6.128906 C 3.300781 6.265625 3.304688 6.265625 3.175781 6.097656 Z M 3.042969 5.035156 C 2.617188 4.585938 3.152344 3.839844 3.90625 3.839844 C 4.449219 3.835938 5.070312 3.609375 5.070312 3.414062 C 5.070312 3.28125 4.957031 3.265625 4.804688 3.375 C 4.445312 3.640625 4.035156 3.308594 4.375 3.023438 C 4.722656 2.730469 5.511719 2.984375 5.511719 3.394531 C 5.511719 3.855469 5.054688 4.167969 4.1875 4.300781 C 3.449219 4.414062 3.277344 4.582031 3.609375 4.859375 C 3.730469 4.960938 3.730469 4.960938 3.515625 5.074219 C 3.238281 5.21875 3.210938 5.214844 3.042969 5.035156 Z M 3.828125 4.679688 C 3.828125 4.429688 3.828125 4.429688 3.953125 4.429688 C 4.078125 4.429688 4.078125 4.433594 4.078125 4.640625 C 4.078125 4.839844 4.003906 4.933594 3.84375 4.933594 C 3.835938 4.933594 3.828125 4.820312 3.828125 4.679688 Z M 2.730469 3.96875 C 2.125 3.5625 2.277344 2.988281 3.015625 2.894531 C 3.398438 2.847656 3.777344 3.136719 3.632812 3.367188 C 3.5625 3.480469 3.25 3.484375 3.105469 3.378906 C 2.929688 3.25 2.816406 3.261719 2.816406 3.414062 C 2.816406 3.550781 3.023438 3.679688 3.335938 3.734375 C 3.496094 3.765625 3.496094 3.765625 3.285156 3.886719 C 3.167969 3.953125 3.0625 4.023438 3.046875 4.046875 C 3.003906 4.117188 2.921875 4.097656 2.730469 3.96875 Z M 3.8125 2.921875 C 3.796875 2.488281 3.785156 1.96875 3.785156 1.769531 C 3.785156 1.453125 3.773438 1.394531 3.703125 1.34375 C 3.324219 1.082031 3.707031 0.488281 4.117188 0.699219 C 4.355469 0.824219 4.386719 1.109375 4.183594 1.347656 C 4.078125 1.472656 4.078125 1.472656 4.078125 2.59375 C 4.078125 3.710938 4.078125 3.710938 3.960938 3.710938 C 3.839844 3.710938 3.839844 3.710938 3.8125 2.921875 Z M 2.648438 2.574219 C 2.585938 2.53125 2.507812 2.464844 2.480469 2.425781 C 2.429688 2.359375 2.417969 2.359375 2.246094 2.425781 C 2.03125 2.511719 1.808594 2.4375 1.726562 2.25 C 1.691406 2.171875 1.644531 2.144531 1.546875 2.144531 C 1.382812 2.144531 1.226562 2.042969 1.226562 1.929688 C 1.226562 1.867188 1.207031 1.855469 1.128906 1.875 C 0.96875 1.914062 0.640625 1.695312 0.640625 1.554688 C 0.640625 1.539062 1.003906 1.515625 1.449219 1.5 C 2.160156 1.480469 2.300781 1.464844 2.59375 1.367188 C 3.058594 1.21875 3.1875 1.222656 3.296875 1.40625 C 3.34375 1.488281 3.417969 1.5625 3.460938 1.578125 C 3.625 1.628906 3.578125 2.589844 3.414062 2.625 C 3.144531 2.679688 2.769531 2.652344 2.648438 2.574219 Z M 4.445312 2.613281 C 4.28125 2.566406 4.257812 1.621094 4.421875 1.582031 C 4.476562 1.566406 4.535156 1.519531 4.550781 1.472656 C 4.628906 1.234375 4.804688 1.207031 5.308594 1.371094 C 5.605469 1.464844 5.742188 1.480469 6.453125 1.503906 C 7.261719 1.527344 7.261719 1.527344 7.199219 1.644531 C 7.125 1.792969 6.914062 1.90625 6.777344 1.875 C 6.707031 1.855469 6.675781 1.867188 6.675781 1.914062 C 6.675781 2.027344 6.515625 2.144531 6.363281 2.144531 C 6.25 2.144531 6.203125 2.171875 6.148438 2.269531 C 6.023438 2.476562 5.824219 2.53125 5.605469 2.417969 C 5.488281 2.355469 5.480469 2.359375 5.34375 2.492188 C 5.191406 2.636719 4.730469 2.699219 4.445312 2.613281 Z M 4.445312 2.613281 "/>
</g>
</svg>
