<?xml version="1.0" encoding="UTF-8"?>
<svg xmlns="http://www.w3.org/2000/svg" xmlns:xlink="http://www.w3.org/1999/xlink" width="12" height="12" viewBox="0 0 12 12">
<path fill-rule="nonzero" fill="rgb(100%, 100%, 100%)" fill-opacity="1" d="M 6.75 2.75 C 7.300781 2.75 7.75 2.300781 7.75 1.75 C 7.75 1.199219 7.300781 0.75 6.75 0.75 C 6.199219 0.75 5.75 1.199219 5.75 1.75 C 5.75 2.300781 6.199219 2.75 6.75 2.75 Z M 4.898438 4.449219 L 3.5 11.5 L 4.550781 11.5 L 5.449219 7.5 L 6.5 8.5 L 6.5 11.5 L 7.5 11.5 L 7.5 7.75 L 6.449219 6.75 L 6.75 5.25 C 7.398438 6 8.398438 6.5 9.5 6.5 L 9.5 5.5 C 8.550781 5.5 7.75 5 7.351562 4.300781 L 6.851562 3.5 C 6.648438 3.199219 6.351562 3 6 3 C 5.851562 3 5.75 3.050781 5.601562 3.050781 L 3 4.148438 L 3 6.5 L 4 6.5 L 4 4.800781 Z M 4.898438 4.449219 "/>
</svg>
