<?xml version="1.0" encoding="UTF-8"?>
<svg xmlns="http://www.w3.org/2000/svg" xmlns:xlink="http://www.w3.org/1999/xlink" width="12" height="12" viewBox="0 0 12 12" version="1.1">
<g id="surface1">
<path style=" stroke:none;fill-rule:evenodd;fill:rgb(100%,100%,100%);fill-opacity:1;" d="M 8 2 L 0 2 L 0 8.5 L 1 8.5 C 1 9.328125 1.671875 10 2.5 10 C 3.328125 10 4 9.328125 4 8.5 L 8.5 8.5 C 8.5 9.328125 9.171875 10 10 10 C 10.828125 10 11.5 9.328125 11.5 8.5 L 12 8.5 L 12 6 L 10.285156 3 L 8 3 Z M 10.75 8.5 C 10.75 8.085938 10.414062 7.75 10 7.75 C 9.585938 7.75 9.25 8.085938 9.25 8.5 C 9.25 8.914062 9.585938 9.25 10 9.25 C 10.414062 9.25 10.75 8.914062 10.75 8.5 Z M 2.5 9.25 C 2.085938 9.25 1.75 8.914062 1.75 8.5 C 1.75 8.085938 2.085938 7.75 2.5 7.75 C 2.914062 7.75 3.25 8.085938 3.25 8.5 C 3.25 8.914062 2.914062 9.25 2.5 9.25 Z M 9.75 4 L 8.5 4 L 8.5 5.5 L 10.75 5.5 Z M 9.75 4 "/>
</g>
</svg>
