<?xml version="1.0" encoding="UTF-8"?>
<svg xmlns="http://www.w3.org/2000/svg" xmlns:xlink="http://www.w3.org/1999/xlink" width="32" height="32" viewBox="0 0 32 32">
<path fill-rule="nonzero" fill="rgb(100%, 100%, 100%)" fill-opacity="1" stroke-width="11.5757" stroke-linecap="round" stroke-linejoin="round" stroke="rgb(100%, 100%, 100%)" stroke-opacity="1" stroke-miterlimit="4" d="M 191.657715 84.819336 C 145.495605 84.536133 106.696777 132.680664 116.538086 177.851562 C 122.980957 215.588379 159.584961 246.740723 198.525391 242.84668 C 224.509277 241.289062 248.864746 225.783691 261.962891 203.410645 C 273.857422 194.135742 291.557617 206.455078 303.239746 196.401367 C 311.240234 188.117676 317.895508 177.143555 329.152832 173.391113 C 338.144531 175.939941 342.180176 185.78125 349.614258 190.3125 C 357.119141 185.498047 361.437988 174.099121 371.704102 174.169922 C 378.925781 178.48877 383.527832 186.206055 390.324707 190.737305 C 398.112793 185.78125 402.714844 173.886719 413.26416 173.886719 C 420.627441 178.063965 424.733887 186.772461 432.451172 190.100098 C 443.14209 180.400391 454.116211 170.41748 463.10791 158.876953 C 463.037109 152.363281 454.257812 148.752441 450.717773 143.442383 C 443.496094 136.999512 437.336426 125.175781 425.866699 127.653809 C 410.432129 128.857422 394.572754 127.229004 378.996582 127.866211 C 341.118164 127.866211 302.956543 128.786621 265.290527 126.945801 C 255.024414 118.095703 249.501953 104.21875 236.828613 97.91748 C 223.659668 89.138184 207.587891 84.32373 191.657715 84.819336 Z M 160.222168 136.645508 C 182.807617 136.079102 196.330566 168.222656 179.904785 183.798828 C 166.594238 198.45459 138.203125 193.710938 132.609863 174.099121 C 126.379395 156.540527 140.822754 134.733887 160.222168 136.645508 Z M 160.222168 136.645508 " transform="matrix(0.0551724, 0, 0, 0.0551724, 0, 0)"/>
<path fill-rule="nonzero" fill="rgb(100%, 100%, 100%)" fill-opacity="1" stroke-width="11.5757" stroke-linecap="round" stroke-linejoin="round" stroke="rgb(100%, 100%, 100%)" stroke-opacity="1" stroke-miterlimit="4" d="M 502.119141 408.662109 C 502.04834 415.529785 499.287109 441.018066 476.418457 453.054199 C 473.728027 454.682617 470.541992 455.81543 467.214355 455.81543 L 119.370117 455.673828 L 119.299316 481.799316 L 465.727539 481.23291 C 476.418457 480.949707 481.303711 481.303711 490.578613 475.852051 C 519.32373 458.151855 523.78418 422.893066 523.925781 411.494141 Z M 502.119141 408.662109 " transform="matrix(0.0551724, 0, 0, 0.0551724, 0, 0)"/>
<path fill-rule="nonzero" fill="rgb(100%, 100%, 100%)" fill-opacity="1" stroke-width="11.5757" stroke-linecap="round" stroke-linejoin="round" stroke="rgb(100%, 100%, 100%)" stroke-opacity="1" stroke-miterlimit="4" d="M 446.115723 291.486816 C 446.611328 298.354492 445.90332 323.984375 424.09668 337.790527 C 421.547852 339.631348 418.432617 341.047363 415.175781 341.259766 L 68.393555 368.942871 L 70.446777 394.997559 L 415.671387 366.677246 C 426.291504 365.615234 431.176758 365.544434 440.026855 359.384766 C 467.285156 339.418945 468.913574 303.947754 468.134766 292.548828 Z M 446.115723 291.486816 " transform="matrix(0.0551724, 0, 0, 0.0551724, 0, 0)"/>
</svg>
