<?xml version="1.0" encoding="UTF-8"?>
<svg xmlns="http://www.w3.org/2000/svg" xmlns:xlink="http://www.w3.org/1999/xlink" width="32" height="32" viewBox="0 0 32 32">
<path fill="none" stroke-width="35" stroke-linecap="butt" stroke-linejoin="miter" stroke="rgb(100%, 100%, 100%)" stroke-opacity="1" stroke-miterlimit="4" d="M 521.022949 116.679688 L 521.022949 521.306152 L 58.977051 521.306152 L 58.977051 116.679688 " transform="matrix(0.0551724, 0, 0, 0.0551724, 0, 0)"/>
<path fill-rule="evenodd" fill="rgb(100%, 100%, 100%)" fill-opacity="1" d="M 2.316406 6.453125 L 3.550781 8.246094 L 28.324219 8.246094 L 29.628906 6.425781 L 15.800781 1.761719 Z M 2.316406 6.453125 "/>
<path fill-rule="nonzero" fill="rgb(100%, 100%, 100%)" fill-opacity="0.814516" d="M 21.558594 10.445312 L 21.359375 11.757812 C 21.414062 11.816406 21.472656 11.882812 21.53125 11.949219 C 21.632812 11.632812 21.792969 11.292969 22.054688 11.011719 C 22.132812 10.929688 22.160156 10.808594 22.125 10.699219 C 22.09375 10.589844 22.003906 10.507812 21.890625 10.480469 C 21.789062 10.457031 21.683594 10.441406 21.574219 10.441406 C 21.570312 10.441406 21.5625 10.445312 21.558594 10.445312 Z M 21.558594 10.445312 "/>
<path fill-rule="nonzero" fill="rgb(100%, 100%, 100%)" fill-opacity="0.814516" d="M 10.210938 18.886719 C 10.210938 13.902344 14.082031 11.445312 18.199219 11.164062 C 18.304688 10.898438 18.480469 10.492188 18.839844 10.066406 C 18.574219 9.894531 18.449219 9.890625 18.398438 9.890625 C 18.386719 9.890625 18.375 9.890625 18.359375 9.894531 C 18.113281 9.925781 17.933594 10.128906 17.761719 10.324219 C 17.6875 10.410156 17.554688 10.5625 17.484375 10.597656 C 17.417969 10.582031 17.277344 10.484375 17.1875 10.425781 C 16.9375 10.253906 16.625 10.042969 16.273438 10.125 C 15.980469 10.183594 15.800781 10.460938 15.628906 10.730469 C 15.5625 10.839844 15.4375 11.03125 15.367188 11.085938 C 15.292969 11.0625 15.148438 10.976562 15.054688 10.921875 C 14.777344 10.753906 14.492188 10.585938 14.203125 10.683594 C 13.898438 10.78125 13.796875 11.121094 13.707031 11.421875 C 13.675781 11.519531 13.625 11.675781 13.585938 11.746094 C 13.503906 11.734375 13.34375 11.667969 13.246094 11.621094 C 12.953125 11.496094 12.625 11.355469 12.324219 11.503906 C 12.011719 11.660156 12.023438 12.039062 12.035156 12.339844 C 12.035156 12.429688 12.039062 12.570312 12.03125 12.640625 C 11.949219 12.675781 11.816406 12.695312 11.6875 12.714844 C 11.425781 12.753906 11.128906 12.800781 10.90625 13 C 10.679688 13.191406 10.679688 13.488281 10.679688 13.75 C 10.679688 13.855469 10.679688 14.050781 10.648438 14.09375 C 10.605469 14.128906 10.421875 14.152344 10.3125 14.167969 C 10.042969 14.199219 9.707031 14.242188 9.535156 14.5 C 9.332031 14.773438 9.457031 15.113281 9.5625 15.386719 C 9.601562 15.492188 9.675781 15.691406 9.671875 15.738281 C 9.628906 15.785156 9.433594 15.855469 9.316406 15.898438 C 9.011719 16.003906 8.636719 16.140625 8.515625 16.507812 C 8.445312 16.761719 8.597656 17.003906 8.746094 17.238281 C 8.789062 17.300781 8.847656 17.398438 8.878906 17.460938 C 8.832031 17.503906 8.730469 17.558594 8.664062 17.59375 C 8.449219 17.714844 8.152344 17.878906 8.085938 18.226562 C 8.050781 18.480469 8.230469 18.695312 8.40625 18.90625 C 8.460938 18.972656 8.546875 19.074219 8.585938 19.140625 C 8.546875 19.179688 8.46875 19.238281 8.417969 19.273438 C 8.222656 19.421875 7.957031 19.617188 7.957031 19.949219 C 7.957031 20.175781 8.113281 20.375 8.285156 20.585938 C 8.34375 20.664062 8.449219 20.792969 8.472656 20.847656 C 8.476562 20.90625 8.429688 20.964844 8.332031 21.082031 C 8.203125 21.234375 8.023438 21.445312 8.054688 21.757812 C 8.089844 22.082031 8.40625 22.246094 8.664062 22.375 C 8.742188 22.414062 8.867188 22.480469 8.914062 22.519531 C 8.929688 22.566406 8.960938 22.605469 9 22.640625 C 9.027344 22.667969 9.691406 23.238281 11.21875 23.230469 C 10.53125 22.207031 10.210938 20.039062 10.210938 18.886719 Z M 10.210938 18.886719 "/>
<path fill-rule="nonzero" fill="rgb(100%, 100%, 100%)" fill-opacity="1" d="M 23.300781 16.816406 C 22.730469 14.359375 21.703125 13.144531 21.3125 12.683594 L 21.257812 12.617188 C 21.039062 12.355469 20.808594 12.109375 20.675781 11.972656 L 20.941406 10.195312 C 20.957031 10.089844 20.921875 9.984375 20.84375 9.914062 C 20.765625 9.839844 20.65625 9.8125 20.550781 9.835938 C 20.511719 9.84375 19.746094 10.042969 19.335938 10.445312 C 18.925781 10.847656 18.71875 11.382812 18.636719 11.785156 C 14.671875 11.914062 10.855469 14.148438 10.855469 18.886719 C 10.855469 20.109375 11.210938 22.078125 11.757812 22.882812 C 11.757812 22.882812 12.28125 23.929688 14.777344 25.328125 C 16.476562 25.894531 18.175781 25.949219 18.738281 25.949219 C 18.839844 25.949219 18.90625 25.945312 18.925781 25.945312 C 19.0625 25.941406 19.179688 25.851562 19.222656 25.722656 C 19.234375 25.683594 19.527344 24.757812 19.527344 23.753906 C 19.527344 22.707031 19.109375 22.03125 18.703125 21.378906 C 18.269531 20.683594 17.820312 19.964844 17.820312 18.691406 C 17.820312 18.039062 18.050781 17.550781 18.511719 17.238281 C 19.175781 18.484375 20.433594 18.789062 20.957031 18.863281 C 21.066406 19.175781 21.304688 19.710938 21.742188 19.882812 C 21.886719 19.941406 22.097656 19.976562 22.347656 19.882812 C 22.445312 19.9375 22.5625 19.980469 22.679688 19.964844 C 23.023438 19.960938 23.371094 19.714844 23.609375 19.304688 C 23.632812 19.265625 23.660156 19.226562 23.691406 19.179688 C 23.953125 18.785156 24.496094 17.96875 23.300781 16.816406 Z M 20.6875 15.628906 C 20.421875 15.628906 20.207031 15.414062 20.207031 15.144531 C 20.207031 14.878906 20.421875 14.664062 20.6875 14.664062 C 20.957031 14.664062 21.171875 14.878906 21.171875 15.144531 C 21.171875 15.414062 20.957031 15.628906 20.6875 15.628906 Z M 20.6875 15.628906 "/>
</svg>
