<svg width="12" height="12" viewBox="0 0 50 49" fill="none" xmlns="http://www.w3.org/2000/svg">
<path fill-rule="evenodd" clip-rule="evenodd" d="M13.8074 23.0549L8.89704 24.6917C5.75339 25.7395 2.35546 24.0406 1.30757 20.8969C0.259689 17.7533 1.95865 14.3554 5.10231 13.3075L21.5094 7.83844C22.8327 3.8646 26.5811 1 30.9991 1C33.1146 1 35.0771 1.65881 36.6912 2.77782L41.1023 1.30747C44.246 0.259582 47.6439 1.95854 48.6918 5.1022C49.7397 8.24586 48.0407 11.6438 44.897 12.6917L40.4892 14.1609C40.1458 15.1927 39.6389 16.1491 38.9995 17C44.5222 17.0002 48.9991 21.4773 48.9991 27V41C48.9991 45.4183 45.4174 49 40.9991 49H20.9991C16.5809 49 12.9991 45.4183 12.9991 41V27C12.9991 25.599 13.2872 24.2653 13.8074 23.0549Z" fill="white" fill-opacity="0.75"/>
<path fill-rule="evenodd" clip-rule="evenodd" d="M44.8979 6.36711C45.2472 7.415 44.6809 8.54764 43.633 8.89693L36.999 11.1083C36.9537 13.6737 35.2981 15.8463 33 16.6586V21H39C42.3137 21 45 23.6863 45 27V41C45 43.2091 43.2091 45 41 45H21C18.7909 45 17 43.2091 17 41V27C17 23.6863 19.6863 21 23 21H29V16.6586C27.9092 16.2731 26.9632 15.5811 26.2655 14.6861L7.633 20.8969C6.58511 21.2462 5.45247 20.6799 5.10318 19.632C4.75388 18.5841 5.3202 17.4515 6.36809 17.1022L25.001 10.8912C25.059 7.62771 27.7226 5 31 5C32.9239 5 34.6362 5.90547 35.7342 7.31349L42.3681 5.1022C43.416 4.7529 44.5486 5.31922 44.8979 6.36711ZM41 37V25H21V37H41Z" fill="#0092DA"/>
</svg>
