<?xml version="1.0" encoding="UTF-8"?>
<svg xmlns="http://www.w3.org/2000/svg" xmlns:xlink="http://www.w3.org/1999/xlink" width="12" height="12" viewBox="0 0 12 12" version="1.1">
<g id="surface1">
<path style=" stroke:none;fill-rule:nonzero;fill:rgb(100%,100%,100%);fill-opacity:1;" d="M 6.25 1.75 C 6.25 1.199219 6.699219 0.75 7.25 0.75 C 7.800781 0.75 8.25 1.199219 8.25 1.75 C 8.25 2.300781 7.800781 2.75 7.25 2.75 C 6.699219 2.75 6.25 2.300781 6.25 1.75 Z M 3.160156 9.515625 L 2.589844 8.78125 L 2 9.25 L 3.191406 10.769531 C 3.445312 11.09375 3.769531 11.34375 4.128906 11.476562 C 4.269531 11.523438 4.394531 11.496094 4.488281 11.421875 C 4.640625 11.304688 4.699219 11.070312 4.550781 10.886719 C 4.511719 10.835938 4.449219 10.800781 4.394531 10.773438 C 4.179688 10.683594 3.984375 10.550781 3.824219 10.359375 L 3.785156 10.308594 L 5.5 9.101562 L 5.945312 7.488281 L 7 8.488281 L 7 10.75 L 6 10.75 L 6 11.5 L 7.933594 11.5 C 8.34375 11.5 8.738281 11.394531 9.066406 11.195312 C 9.195312 11.113281 9.25 11 9.25 10.875 C 9.25 10.683594 9.101562 10.5 8.863281 10.5 C 8.800781 10.5 8.734375 10.519531 8.679688 10.550781 C 8.480469 10.664062 8.246094 10.734375 8 10.75 L 8 7.738281 L 6.945312 6.738281 L 7.246094 5.238281 C 7.894531 5.988281 8.898438 6.5 10 6.5 L 10 5.5 C 9.050781 5.5 8.246094 4.988281 7.84375 4.289062 L 7.34375 3.5 C 7.144531 3.199219 6.84375 3 6.496094 3 C 6.121094 3 5.789062 3.171875 3.5 4.140625 L 3.5 6.5 L 4.5 6.5 L 4.5 4.789062 L 5.394531 4.441406 L 4.601562 8.5 Z M 3.160156 9.515625 "/>
</g>
</svg>
