<?xml version="1.0" encoding="UTF-8"?>
<svg xmlns="http://www.w3.org/2000/svg" xmlns:xlink="http://www.w3.org/1999/xlink" width="12" height="12" viewBox="0 0 12 12" version="1.1">
<g id="surface1">
<path style=" stroke:none;fill-rule:nonzero;fill:rgb(100%,100%,100%);fill-opacity:1;" d="M 8.695312 10.289062 C 8.972656 9.96875 9.203125 9.632812 9.203125 9.546875 C 9.199219 9.460938 9.566406 8.980469 10.015625 8.480469 C 11.167969 7.191406 11.308594 6.328125 10.464844 5.707031 C 10.082031 5.425781 9.933594 5.40625 9.34375 5.558594 C 8.691406 5.730469 8.640625 5.714844 8.101562 5.179688 C 7.433594 4.523438 6.75 4.445312 6.277344 4.976562 C 6.015625 5.265625 5.949219 5.691406 5.867188 7.570312 C 5.796875 9.308594 5.820312 9.871094 5.988281 10.039062 C 6.285156 10.347656 6.769531 10.0625 7.226562 9.3125 C 7.6875 8.558594 7.816406 8.6875 7.554688 9.640625 C 7.394531 10.234375 7.394531 10.433594 7.558594 10.632812 C 7.878906 11.007812 8.140625 10.929688 8.695312 10.289062 Z M 8.695312 10.289062 "/>
<path style=" stroke:none;fill-rule:nonzero;fill:rgb(100%,100%,100%);fill-opacity:1;" d="M 3.789062 8.671875 C 3.46875 8.15625 4.039062 7.488281 4.429688 7.917969 C 4.550781 8.054688 4.496094 8.066406 4.226562 7.972656 C 3.984375 7.886719 3.984375 7.886719 3.957031 8.21875 C 3.941406 8.402344 3.925781 8.582031 3.921875 8.613281 C 3.910156 8.6875 3.820312 8.726562 3.789062 8.671875 Z M 3.171875 8.050781 C 3.15625 8.027344 3.332031 7.890625 3.5625 7.742188 C 3.789062 7.59375 3.976562 7.445312 3.976562 7.410156 C 3.976562 7.359375 3.953125 7.363281 3.875 7.4375 C 3.75 7.554688 3.707031 7.558594 3.726562 7.441406 C 3.734375 7.371094 3.796875 7.328125 3.976562 7.273438 C 4.109375 7.234375 4.261719 7.175781 4.3125 7.148438 C 4.457031 7.070312 4.46875 7.347656 4.332031 7.503906 C 4.203125 7.648438 3.210938 8.113281 3.171875 8.050781 Z M 3.398438 7.53125 C 3.171875 7.261719 3.292969 7.03125 3.765625 6.820312 C 4.035156 6.703125 4.101562 6.636719 4.027344 6.5625 C 3.992188 6.527344 3.976562 6.527344 3.976562 6.566406 C 3.976562 6.59375 3.917969 6.648438 3.847656 6.683594 C 3.714844 6.753906 3.632812 6.632812 3.757812 6.554688 C 4.171875 6.300781 4.457031 6.308594 4.457031 6.578125 C 4.457031 6.953125 4.292969 7.128906 3.878906 7.207031 C 3.6875 7.242188 3.640625 7.292969 3.621094 7.484375 C 3.605469 7.683594 3.535156 7.695312 3.398438 7.53125 Z M 3.222656 6.886719 C 2.980469 6.621094 3.25 6.1875 3.765625 6.015625 C 4.222656 5.867188 4.347656 5.644531 4.0625 5.492188 C 3.984375 5.449219 3.976562 5.457031 3.976562 5.636719 C 3.976562 5.8125 3.964844 5.832031 3.847656 5.875 C 3.71875 5.921875 3.71875 5.921875 3.71875 5.710938 C 3.71875 5.5 3.71875 5.5 3.964844 5.421875 C 4.105469 5.378906 4.273438 5.316406 4.34375 5.28125 C 4.464844 5.222656 4.476562 5.226562 4.570312 5.335938 C 4.882812 5.699219 4.6875 6.117188 4.117188 6.316406 C 3.644531 6.480469 3.578125 6.519531 3.59375 6.65625 C 3.605469 6.746094 3.578125 6.792969 3.464844 6.871094 C 3.292969 6.988281 3.3125 6.984375 3.222656 6.886719 Z M 3.046875 5.996094 C 2.742188 5.597656 3.011719 5.203125 3.792969 4.910156 C 3.996094 4.832031 4.144531 4.742188 4.21875 4.65625 C 4.324219 4.527344 4.332031 4.480469 4.261719 4.3125 C 4.238281 4.257812 4.273438 4.238281 4.4375 4.214844 C 4.550781 4.199219 4.671875 4.164062 4.707031 4.136719 C 4.789062 4.066406 4.871094 4.175781 4.910156 4.410156 C 4.972656 4.769531 4.695312 5.050781 4.058594 5.277344 C 3.5 5.472656 3.335938 5.675781 3.585938 5.851562 C 3.671875 5.910156 3.664062 5.917969 3.453125 6.027344 C 3.175781 6.171875 3.179688 6.171875 3.046875 5.996094 Z M 2.90625 4.902344 C 2.46875 4.4375 3.023438 3.667969 3.796875 3.664062 C 4.359375 3.664062 4.996094 3.429688 4.996094 3.230469 C 4.996094 3.089844 4.882812 3.074219 4.726562 3.1875 C 4.351562 3.464844 3.933594 3.121094 4.28125 2.824219 C 4.644531 2.523438 5.453125 2.785156 5.453125 3.207031 C 5.453125 3.683594 4.984375 4.003906 4.089844 4.144531 C 3.328125 4.257812 3.152344 4.429688 3.492188 4.71875 C 3.617188 4.824219 3.617188 4.824219 3.394531 4.941406 C 3.109375 5.089844 3.082031 5.085938 2.90625 4.902344 Z M 3.71875 4.535156 C 3.71875 4.273438 3.71875 4.273438 3.847656 4.273438 C 3.976562 4.273438 3.976562 4.28125 3.976562 4.492188 C 3.976562 4.699219 3.902344 4.796875 3.734375 4.796875 C 3.726562 4.796875 3.71875 4.679688 3.71875 4.535156 Z M 2.585938 3.800781 C 1.964844 3.382812 2.121094 2.789062 2.878906 2.695312 C 3.273438 2.644531 3.664062 2.941406 3.515625 3.179688 C 3.441406 3.296875 3.121094 3.300781 2.972656 3.191406 C 2.792969 3.058594 2.675781 3.074219 2.675781 3.230469 C 2.675781 3.371094 2.890625 3.503906 3.210938 3.5625 C 3.375 3.589844 3.375 3.589844 3.160156 3.714844 C 3.039062 3.78125 2.929688 3.859375 2.914062 3.882812 C 2.871094 3.957031 2.785156 3.933594 2.585938 3.800781 Z M 3.703125 2.722656 C 3.6875 2.273438 3.671875 1.738281 3.671875 1.53125 C 3.671875 1.207031 3.660156 1.144531 3.589844 1.09375 C 3.199219 0.820312 3.59375 0.210938 4.015625 0.429688 C 4.261719 0.554688 4.292969 0.851562 4.085938 1.097656 C 3.976562 1.226562 3.976562 1.226562 3.976562 2.382812 C 3.976562 3.535156 3.976562 3.535156 3.855469 3.535156 C 3.730469 3.535156 3.730469 3.535156 3.703125 2.722656 Z M 2.5 2.359375 C 2.4375 2.316406 2.359375 2.25 2.328125 2.207031 C 2.277344 2.140625 2.261719 2.140625 2.089844 2.207031 C 1.863281 2.296875 1.636719 2.21875 1.550781 2.027344 C 1.511719 1.945312 1.46875 1.917969 1.363281 1.917969 C 1.195312 1.917969 1.035156 1.8125 1.035156 1.699219 C 1.035156 1.632812 1.015625 1.621094 0.933594 1.640625 C 0.769531 1.679688 0.429688 1.457031 0.429688 1.308594 C 0.429688 1.292969 0.804688 1.269531 1.265625 1.253906 C 2 1.234375 2.140625 1.214844 2.441406 1.117188 C 2.925781 0.960938 3.058594 0.96875 3.167969 1.15625 C 3.21875 1.242188 3.296875 1.320312 3.339844 1.335938 C 3.511719 1.386719 3.460938 2.378906 3.289062 2.414062 C 3.011719 2.46875 2.625 2.441406 2.5 2.359375 Z M 4.355469 2.40625 C 4.183594 2.355469 4.160156 1.378906 4.332031 1.339844 C 4.390625 1.324219 4.449219 1.273438 4.464844 1.226562 C 4.542969 0.976562 4.726562 0.953125 5.246094 1.121094 C 5.550781 1.21875 5.691406 1.234375 6.425781 1.257812 C 7.261719 1.28125 7.261719 1.28125 7.199219 1.40625 C 7.117188 1.558594 6.902344 1.675781 6.761719 1.640625 C 6.6875 1.621094 6.65625 1.632812 6.65625 1.679688 C 6.65625 1.796875 6.492188 1.917969 6.335938 1.917969 C 6.214844 1.917969 6.167969 1.945312 6.109375 2.046875 C 5.984375 2.261719 5.777344 2.316406 5.554688 2.199219 C 5.429688 2.136719 5.421875 2.140625 5.28125 2.277344 C 5.125 2.425781 4.648438 2.492188 4.355469 2.40625 Z M 4.355469 2.40625 "/>
</g>
</svg>
