<?xml version="1.0" encoding="UTF-8"?>
<svg xmlns="http://www.w3.org/2000/svg" xmlns:xlink="http://www.w3.org/1999/xlink" width="32" height="32" viewBox="0 0 32 32">
<path fill-rule="nonzero" fill="rgb(100%, 100%, 100%)" fill-opacity="1" d="M 14.667969 16 L 14.667969 18.667969 L 12 18.667969 L 12 21.332031 L 14.667969 21.332031 L 14.667969 24 L 17.332031 24 L 17.332031 21.332031 L 20 21.332031 L 20 18.667969 L 17.332031 18.667969 L 17.332031 16 Z M 14.667969 16 "/>
<path fill-rule="evenodd" fill="rgb(100%, 100%, 100%)" fill-opacity="1" d="M 8 10.667969 L 5.332031 10.667969 C 3.859375 10.667969 2.667969 11.859375 2.667969 13.332031 L 2.667969 26.667969 C 2.667969 28.140625 3.859375 29.332031 5.332031 29.332031 L 26.667969 29.332031 C 28.140625 29.332031 29.332031 28.140625 29.332031 26.667969 L 29.332031 13.332031 C 29.332031 11.859375 28.140625 10.667969 26.667969 10.667969 L 24 10.667969 L 24 6.667969 C 24 4.457031 22.210938 2.667969 20 2.667969 L 12 2.667969 C 9.789062 2.667969 8 4.457031 8 6.667969 Z M 10.667969 6.667969 C 10.667969 5.929688 11.261719 5.332031 12 5.332031 L 20 5.332031 C 20.738281 5.332031 21.332031 5.929688 21.332031 6.667969 L 21.332031 10.667969 L 10.667969 10.667969 Z M 22.667969 20 C 22.667969 23.683594 19.683594 26.667969 16 26.667969 C 12.316406 26.667969 9.332031 23.683594 9.332031 20 C 9.332031 16.316406 12.316406 13.332031 16 13.332031 C 19.683594 13.332031 22.667969 16.316406 22.667969 20 Z M 22.667969 20 "/>
</svg>
