<?xml version="1.0" encoding="UTF-8"?>
<svg xmlns="http://www.w3.org/2000/svg" xmlns:xlink="http://www.w3.org/1999/xlink" width="32" height="32" viewBox="0 0 32 32">
<defs>
<filter id="filter-remove-color" x="0%" y="0%" width="100%" height="100%">
<feColorMatrix color-interpolation-filters="sRGB" values="0 0 0 0 1 0 0 0 0 1 0 0 0 0 1 0 0 0 1 0" />
</filter>
<mask id="mask-0">
<g filter="url(#filter-remove-color)">
<rect x="-3.2" y="-3.2" width="38.4" height="38.4" fill="rgb(0%, 0%, 0%)" fill-opacity="0.9"/>
</g>
</mask>
<clipPath id="clip-0">
<rect x="0" y="0" width="32" height="32"/>
</clipPath>
<g id="source-6" clip-path="url(#clip-0)">
<path fill-rule="evenodd" fill="rgb(100%, 100%, 100%)" fill-opacity="1" d="M 6.667969 22.667969 C 7.402344 22.667969 8 22.070312 8 21.332031 C 8 20.597656 7.402344 20 6.667969 20 C 5.929688 20 5.332031 20.597656 5.332031 21.332031 C 5.332031 22.070312 5.929688 22.667969 6.667969 22.667969 Z M 6.667969 25.332031 C 8.875 25.332031 10.667969 23.542969 10.667969 21.332031 C 10.667969 19.125 8.875 17.332031 6.667969 17.332031 C 4.457031 17.332031 2.667969 19.125 2.667969 21.332031 C 2.667969 23.542969 4.457031 25.332031 6.667969 25.332031 Z M 6.667969 25.332031 "/>
</g>
<mask id="mask-1">
<g filter="url(#filter-remove-color)">
<rect x="-3.2" y="-3.2" width="38.4" height="38.4" fill="rgb(0%, 0%, 0%)" fill-opacity="0.9"/>
</g>
</mask>
<clipPath id="clip-1">
<rect x="0" y="0" width="32" height="32"/>
</clipPath>
<g id="source-10" clip-path="url(#clip-1)">
<path fill-rule="evenodd" fill="rgb(100%, 100%, 100%)" fill-opacity="1" d="M 25.332031 22.667969 C 26.070312 22.667969 26.667969 22.070312 26.667969 21.332031 C 26.667969 20.597656 26.070312 20 25.332031 20 C 24.597656 20 24 20.597656 24 21.332031 C 24 22.070312 24.597656 22.667969 25.332031 22.667969 Z M 25.332031 25.332031 C 27.542969 25.332031 29.332031 23.542969 29.332031 21.332031 C 29.332031 19.125 27.542969 17.332031 25.332031 17.332031 C 23.125 17.332031 21.332031 19.125 21.332031 21.332031 C 21.332031 23.542969 23.125 25.332031 25.332031 25.332031 Z M 25.332031 25.332031 "/>
</g>
</defs>
<g mask="url(#mask-0)">
<use xlink:href="#source-6"/>
</g>
<g mask="url(#mask-1)">
<use xlink:href="#source-10"/>
</g>
<path fill-rule="nonzero" fill="rgb(100%, 100%, 100%)" fill-opacity="1" d="M 17.332031 9.332031 L 20.21875 9.332031 L 21.332031 15.453125 L 21.332031 18.667969 L 13.332031 18.667969 L 13.332031 14.667969 C 14.070312 14.667969 14.667969 14.070312 14.667969 13.332031 C 14.667969 12.597656 14.070312 12 13.332031 12 L 8 12 C 7.261719 12 6.667969 12.597656 6.667969 13.332031 C 6.667969 14.070312 7.261719 14.667969 8 14.667969 L 6.667969 14.667969 C 4.457031 14.667969 2.667969 16.457031 2.667969 18.667969 L 2.667969 21.332031 L 29.332031 21.332031 L 29.332031 20 C 29.332031 17.054688 26.945312 14.667969 24 14.667969 C 23.96875 14.667969 23.933594 14.667969 23.902344 14.667969 L 23.390625 11.851562 C 23.570312 11.945312 23.78125 12 24 12 L 25.332031 12 L 25.332031 9.332031 L 24 9.332031 C 23.609375 9.332031 23.253906 9.503906 23.011719 9.773438 L 22.84375 8.855469 C 22.613281 7.589844 21.507812 6.667969 20.21875 6.667969 L 17.332031 6.667969 Z M 17.332031 9.332031 "/>
</svg>
