<?xml version="1.0" encoding="UTF-8"?>
<svg xmlns="http://www.w3.org/2000/svg" xmlns:xlink="http://www.w3.org/1999/xlink" width="32" height="32" viewBox="0 0 32 32">
<path fill-rule="nonzero" fill="rgb(100%, 100%, 100%)" fill-opacity="1" d="M 16 1.753906 C 8.140625 1.753906 1.753906 8.140625 1.753906 16 C 1.753906 18.660156 2.488281 21.15625 3.761719 23.289062 L 4.839844 22.417969 C 3.753906 20.53125 3.132812 18.339844 3.132812 16 C 3.132812 8.886719 8.886719 3.132812 16 3.132812 C 18.367188 3.132812 21.046875 4.070312 22.949219 5.179688 L 23.882812 4.148438 C 21.683594 2.757812 18.792969 1.753906 16 1.753906 Z M 27.695312 7.699219 L 26.683594 8.511719 C 28.480469 10.976562 28.867188 12.707031 28.867188 16 C 28.867188 23.113281 23.113281 28.867188 16 28.867188 C 12.5625 28.867188 9.441406 27.523438 7.136719 25.332031 L 6.148438 26.222656 C 8.714844 28.722656 12.136719 30.246094 16 30.246094 C 23.859375 30.246094 30.246094 23.859375 30.246094 16 C 30.246094 12.378906 29.757812 10.425781 27.695312 7.699219 Z M 27.695312 7.699219 "/>
<path fill-rule="nonzero" fill="rgb(100%, 100%, 100%)" fill-opacity="1" d="M 16 5.824219 C 10.386719 5.824219 5.824219 10.386719 5.824219 16 C 5.824219 18.898438 7.042969 21.515625 8.992188 23.367188 L 10.492188 22.933594 C 8.457031 21.039062 7.203125 18.378906 7.203125 16 C 7.203125 11.132812 11.132812 7.203125 16 7.203125 C 16.445312 7.203125 16.886719 7.238281 17.3125 7.300781 L 17.640625 5.957031 C 17.105469 5.871094 16.558594 5.824219 16 5.824219 Z M 25.835938 13.0625 L 24.589844 13.667969 C 24.78125 14.636719 24.796875 15.011719 24.796875 16 C 24.796875 20.867188 20.867188 24.796875 16 24.796875 C 14.859375 24.796875 13.007812 24.363281 12.007812 23.96875 L 11.476562 25.136719 C 12.675781 25.636719 14.621094 26.175781 16 26.175781 C 21.613281 26.175781 26.175781 21.613281 26.175781 16 C 26.175781 14.796875 26.15625 14.238281 25.835938 13.0625 Z M 25.835938 13.0625 "/>
<path fill-rule="nonzero" fill="rgb(100%, 100%, 100%)" fill-opacity="1" d="M 16 9.777344 C 12.570312 9.777344 9.777344 12.570312 9.777344 16 C 9.777344 18.847656 11.703125 21.261719 14.324219 21.996094 L 14.375 20.566406 C 12.496094 19.902344 11.15625 18.113281 11.15625 16 C 11.15625 13.316406 13.316406 11.15625 16 11.15625 C 16.601562 11.15625 17.175781 11.265625 17.707031 11.460938 L 18.621094 10.355469 C 17.824219 9.984375 16.933594 9.777344 16 9.777344 Z M 21.183594 12.425781 L 20.015625 13.277344 C 20.539062 14.050781 20.84375 14.988281 20.84375 16 C 20.84375 18.363281 19.171875 20.316406 16.941406 20.753906 L 16.890625 22.160156 C 19.898438 21.726562 22.222656 19.128906 22.222656 16 C 22.222656 14.566406 22.003906 13.480469 21.183594 12.425781 Z M 21.183594 12.425781 "/>
<path fill-rule="nonzero" fill="rgb(100%, 100%, 100%)" fill-opacity="1" d="M 16 13.605469 C 14.6875 13.605469 13.605469 14.6875 13.605469 16 C 13.605469 16.363281 13.691406 16.710938 13.839844 17.019531 L 14.988281 16.035156 C 14.988281 16.023438 14.984375 16.011719 14.984375 16 C 14.984375 15.433594 15.433594 14.984375 16 14.984375 C 16.367188 14.984375 16.679688 15.171875 16.859375 15.457031 L 18.371094 15.679688 C 18.210938 14.515625 17.207031 13.605469 16 13.605469 Z M 16.652344 16.765625 C 16.507812 16.875 16.4375 16.921875 16.230469 16.972656 C 15.953125 17.046875 15.710938 16.953125 15.664062 16.945312 L 14.742188 17.859375 C 15.117188 18.109375 15.519531 18.394531 16 18.394531 C 16.960938 18.394531 17.796875 17.816406 18.175781 16.992188 Z M 16.652344 16.765625 "/>
<path fill="none" stroke-width="25" stroke-linecap="butt" stroke-linejoin="miter" stroke="rgb(100%, 100%, 100%)" stroke-opacity="1" stroke-miterlimit="4" d="M 326.037598 273.999023 L 502.897949 155.124512 " transform="matrix(0.0551724, 0, 0, 0.0551724, 0, 0)"/>
<path fill="none" stroke-width="25" stroke-linecap="butt" stroke-linejoin="miter" stroke="rgb(100%, 100%, 100%)" stroke-opacity="1" stroke-miterlimit="4" d="M 326.391602 211.481934 L 420.839844 69.80957 " transform="matrix(0.0551724, 0, 0, 0.0551724, 0, 0)"/>
<path fill="none" stroke-width="25" stroke-linecap="butt" stroke-linejoin="miter" stroke="rgb(100%, 100%, 100%)" stroke-opacity="1" stroke-miterlimit="4" d="M 122.980957 481.23291 L 183.798828 409.65332 " transform="matrix(0.0551724, 0, 0, 0.0551724, 0, 0)"/>
<path fill="none" stroke-width="25" stroke-linecap="butt" stroke-linejoin="miter" stroke="rgb(100%, 100%, 100%)" stroke-opacity="1" stroke-miterlimit="4" d="M 220.048828 459.213867 L 278.671875 328.586426 " transform="matrix(0.0551724, 0, 0, 0.0551724, 0, 0)"/>
</svg>
