<?xml version="1.0" encoding="UTF-8"?>
<svg xmlns="http://www.w3.org/2000/svg" xmlns:xlink="http://www.w3.org/1999/xlink" width="32" height="32" viewBox="0 0 32 32">
<path fill-rule="evenodd" fill="rgb(100%, 100%, 100%)" fill-opacity="1" d="M 16 2.667969 L 5.332031 8 L 5.332031 10.667969 L 16 10.667969 C 15.261719 10.667969 14.667969 11.261719 14.667969 12 L 14.667969 13.332031 C 13.195312 13.332031 12 14.527344 12 16 L 12 17.332031 C 12 18.804688 13.195312 20 14.667969 20 L 17.332031 20 L 17.332031 21.332031 L 13.332031 21.332031 C 12.597656 21.332031 12 21.929688 12 22.667969 C 12 23.402344 12.597656 24 13.332031 24 L 14.667969 24 L 14.667969 25.332031 C 14.667969 26.070312 15.261719 26.667969 16 26.667969 L 5.332031 26.667969 L 5.332031 29.332031 L 26.667969 29.332031 L 26.667969 26.667969 L 16 26.667969 C 16.738281 26.667969 17.332031 26.070312 17.332031 25.332031 L 17.332031 24 C 18.804688 24 20 22.804688 20 21.332031 L 20 20 C 20 18.527344 18.804688 17.332031 17.332031 17.332031 L 14.667969 17.332031 L 14.667969 16 L 18.667969 16 C 19.402344 16 20 15.402344 20 14.667969 C 20 13.929688 19.402344 13.332031 18.667969 13.332031 L 17.332031 13.332031 L 17.332031 12 C 17.332031 11.261719 16.738281 10.667969 16 10.667969 L 26.667969 10.667969 L 26.667969 8 Z M 16 8 C 16.738281 8 17.332031 7.402344 17.332031 6.667969 C 17.332031 5.929688 16.738281 5.332031 16 5.332031 C 15.261719 5.332031 14.667969 5.929688 14.667969 6.667969 C 14.667969 7.402344 15.261719 8 16 8 Z M 16 8 "/>
<path fill-rule="nonzero" fill="rgb(100%, 100%, 100%)" fill-opacity="1" d="M 5.332031 13.332031 L 8 13.332031 L 8 24 L 5.332031 24 Z M 5.332031 13.332031 "/>
<path fill-rule="nonzero" fill="rgb(100%, 100%, 100%)" fill-opacity="1" d="M 26.667969 13.332031 L 24 13.332031 L 24 24 L 26.667969 24 Z M 26.667969 13.332031 "/>
</svg>
