<svg width="12" height="12" viewBox="0 0 48 48" fill="none" xmlns="http://www.w3.org/2000/svg">
<path d="M36.125 12.1243H12.125V36.1243H36.125V12.1243Z" fill="#292929"/>
<path d="M25.0362 27.8645L29.1717 32H32V29.1715L27.8645 25.036C27.9529 24.7056 28 24.3583 28 24C28 23.6417 27.9529 23.2945 27.8646 22.9641L32 18.8286V16H29.1718L25.0362 20.1355C24.7057 20.0471 24.3584 20 24 20C23.6417 20 23.2944 20.0471 22.964 20.1355L18.8285 16H16V18.8283L20.1355 22.9638C20.0471 23.2943 20 23.6416 20 24C20 24.3584 20.0471 24.7057 20.1355 25.0362L16 29.1718V32H18.8286L22.9641 27.8646C23.2945 27.9529 23.6417 28 24 28C24.3584 28 24.7057 27.9529 25.0362 27.8645Z" fill="#FEFEFE"/>
</svg>
