<?xml version="1.0" encoding="UTF-8"?>
<svg xmlns="http://www.w3.org/2000/svg" xmlns:xlink="http://www.w3.org/1999/xlink" width="12" height="12" viewBox="0 0 12 12" version="1.1">
<g id="surface1">
<path style=" stroke:none;fill-rule:nonzero;fill:rgb(100%,100%,100%);fill-opacity:1;" d="M 8 2 C 8 2.550781 7.550781 3 7 3 C 6.449219 3 6 2.550781 6 2 C 6 1.449219 6.449219 1 7 1 C 7.550781 1 8 1.449219 8 2 Z M 8 2 "/>
<path style=" stroke:none;fill-rule:nonzero;fill:rgb(100%,100%,100%);fill-opacity:1;" d="M 7 3.5 C 7.472656 3.5 7.867188 3.828125 7.972656 4.265625 L 8.5625 4.855469 C 8.65625 4.949219 8.78125 5 8.914062 5 L 9.5 5 C 9.777344 5 10 5.222656 10 5.5 C 10 5.777344 9.777344 6 9.5 6 L 8.914062 6 C 8.582031 6 8.261719 5.890625 8 5.6875 L 8 7 L 9 7 C 9.1875 7 9.363281 7.105469 9.445312 7.277344 L 10.222656 8.828125 L 10.777344 8.554688 C 11.023438 8.429688 11.324219 8.53125 11.445312 8.777344 C 11.570312 9.023438 11.46875 9.324219 11.222656 9.445312 L 10.222656 9.945312 C 9.976562 10.070312 9.675781 9.96875 9.554688 9.722656 L 8.691406 8 L 7 8 C 6.449219 8 6 7.550781 6 7 L 6 4.5 C 6 3.949219 6.449219 3.5 7 3.5 Z M 7 3.5 "/>
<path style=" stroke:none;fill-rule:nonzero;fill:rgb(100%,100%,100%);fill-opacity:1;" d="M 3 8 C 3 6.695312 3.835938 5.582031 5 5.171875 L 5 6.265625 C 4.402344 6.613281 4 7.257812 4 8 C 4 9.105469 4.894531 10 6 10 C 6.71875 10 7.347656 9.621094 7.703125 9.050781 L 8.292969 9.9375 C 7.742188 10.585938 6.917969 11 6 11 C 4.34375 11 3 9.65625 3 8 Z M 3 8 "/>
<path style=" stroke:none;fill-rule:evenodd;fill:rgb(100%,100%,100%);fill-opacity:1;" d="M 1 1 L 1 5 L 2 5 L 2 4 L 3 4 C 3.550781 4 4 3.550781 4 3 L 4 2 C 4 1.449219 3.550781 1 3 1 Z M 2 3 L 3 3 L 3 2 L 2 2 Z M 2 3 "/>
</g>
</svg>
