<?xml version="1.0" encoding="UTF-8"?>
<svg xmlns="http://www.w3.org/2000/svg" xmlns:xlink="http://www.w3.org/1999/xlink" width="32" height="32" viewBox="0 0 32 32">
<path fill-rule="nonzero" fill="rgb(20%, 20%, 20%)" fill-opacity="1" d="M 14.667969 8 C 16.140625 8 17.332031 6.804688 17.332031 5.332031 C 17.332031 3.859375 16.140625 2.667969 14.667969 2.667969 C 13.195312 2.667969 12 3.859375 12 5.332031 C 12 6.804688 13.195312 8 14.667969 8 Z M 14.667969 8 "/>
<path fill-rule="evenodd" fill="rgb(20%, 20%, 20%)" fill-opacity="1" d="M 10.730469 28.40625 C 10.574219 27.921875 10.710938 27.394531 11.070312 27.046875 L 17.042969 21.070312 L 15 16.984375 C 14.828125 16.640625 14.695312 16.277344 14.601562 15.902344 L 13.773438 12.597656 L 10.988281 13.292969 C 10.46875 13.421875 9.921875 13.230469 9.601562 12.800781 L 5.601562 7.464844 C 5.15625 6.878906 5.277344 6.042969 5.867188 5.601562 C 6.457031 5.160156 7.292969 5.277344 7.734375 5.867188 L 11.203125 10.492188 C 11.203125 10.492188 14.101562 9.726562 15.050781 9.53125 C 16 9.332031 16.015625 9.332031 16.507812 9.332031 C 17.519531 9.332031 18.441406 9.902344 18.894531 10.808594 L 19.773438 12.566406 C 19.859375 12.738281 19.933594 12.910156 19.992188 13.089844 L 21.976562 19.042969 C 22.53125 20.710938 21.933594 22.542969 20.503906 23.5625 L 16.160156 26.667969 L 22.667969 26.667969 C 23.402344 26.667969 24 27.261719 24 28 C 24 28.738281 23.402344 29.332031 22.667969 29.332031 L 12 29.332031 C 11.421875 29.332031 10.90625 28.957031 10.730469 28.40625 Z M 10.730469 28.40625 "/>
</svg>
