<?xml version="1.0" encoding="UTF-8"?>
<svg xmlns="http://www.w3.org/2000/svg" xmlns:xlink="http://www.w3.org/1999/xlink" width="12" height="12" viewBox="0 0 12 12">
<path fill-rule="evenodd" fill="rgb(100%, 100%, 100%)" fill-opacity="1" d="M 2.5 3 C 1.949219 3 1.5 3.449219 1.5 4 L 1.5 9 L 3 9 C 3 9.828125 3.671875 10.5 4.5 10.5 C 5.328125 10.5 6 9.828125 6 9 L 12 9 L 12 8 L 10.5 8 L 10.5 4 C 10.5 3.449219 10.050781 3 9.5 3 Z M 7 4.5 L 2.5 4.5 L 2.5 6 L 7 6 Z M 4.5 9.5 C 4.777344 9.5 5 9.277344 5 9 C 5 8.722656 4.777344 8.5 4.5 8.5 C 4.222656 8.5 4 8.722656 4 9 C 4 9.277344 4.222656 9.5 4.5 9.5 Z M 9.5 7.5 L 8 7.5 L 8 4.5 L 9.5 4.5 Z M 9.5 7.5 "/>
</svg>
