<?xml version="1.0" encoding="UTF-8"?>
<svg xmlns="http://www.w3.org/2000/svg" xmlns:xlink="http://www.w3.org/1999/xlink" width="12" height="12" viewBox="0 0 12 12" version="1.1">
<defs>
<filter id="alpha" filterUnits="objectBoundingBox" x="0%" y="0%" width="100%" height="100%">
  <feColorMatrix type="matrix" in="SourceGraphic" values="0 0 0 0 1 0 0 0 0 1 0 0 0 0 1 0 0 0 1 0"/>
</filter>
<mask id="mask0">
  <g filter="url(#alpha)">
<rect x="0" y="0" width="12" height="12" style="fill:rgb(0%,0%,0%);fill-opacity:0.5;stroke:none;"/>
  </g>
</mask>
<clipPath id="clip1">
  <rect x="0" y="0" width="12" height="12"/>
</clipPath>
<g id="surface5" clip-path="url(#clip1)">
<path style=" stroke:none;fill-rule:nonzero;fill:rgb(100%,100%,100%);fill-opacity:1;" d="M 2 1 L 9 1 L 9 4 C 7 3 5 5.15625 2 4 Z M 2 1 "/>
</g>
</defs>
<g id="surface1">
<use xlink:href="#surface5" mask="url(#mask0)"/>
<path style=" stroke:none;fill-rule:evenodd;fill:rgb(100%,100%,100%);fill-opacity:1;" d="M 8 2 L 3 2 L 3 8 L 8 8 Z M 8 9 L 3 9 L 3 10 L 8 10 Z M 9 10 L 9 7 L 10 7 C 10.550781 7 11 6.550781 11 6 L 11 3 C 11 2.449219 10.550781 2 10 2 L 9 2 L 9 1 L 2 1 L 2 10 C 2 10.550781 2.449219 11 3 11 L 8 11 C 8.550781 11 9 10.550781 9 10 Z M 9 6 L 9 3 L 10 3 L 10 6 Z M 9 6 "/>
</g>
</svg>
