<?xml version="1.0" encoding="UTF-8"?>
<svg xmlns="http://www.w3.org/2000/svg" xmlns:xlink="http://www.w3.org/1999/xlink" width="12" height="12" viewBox="0 0 12 12" version="1.1">
<g id="surface1">
<path style=" stroke:none;fill-rule:evenodd;fill:rgb(100%,100%,100%);fill-opacity:1;" d="M 9.921875 6.382812 C 9.921875 5.921875 9.652344 5.617188 9.152344 5.617188 C 8.652344 5.617188 8.382812 6.039062 8.382812 6.769531 C 8.382812 7.421875 7.882812 7.921875 7.230469 7.921875 C 6.578125 7.921875 6.078125 7.421875 6.078125 6.769531 C 6.078125 6.027344 6.398438 5.332031 6.703125 4.679688 C 7.359375 3.265625 7.921875 2.050781 4.921875 1 C 5.707031 2.253906 5.25 3.578125 4.875 4.660156 C 4.695312 5.171875 4.539062 5.628906 4.539062 6 C 4.539062 7.5 5.730469 8.691406 7.230469 8.691406 C 8.71875 8.691406 9.03125 7.824219 9.273438 7.152344 C 9.425781 6.730469 9.550781 6.382812 9.921875 6.382812 Z M 8 6.769531 C 8 7.195312 7.65625 7.539062 7.230469 7.539062 C 6.804688 7.539062 6.460938 7.195312 6.460938 6.769531 C 6.460938 6.34375 6.804688 6 7.230469 6 C 7.65625 6 8 6.34375 8 6.769531 Z M 5.308594 9.847656 L 9.152344 9.847656 C 9.347656 9.847656 9.539062 9.691406 9.539062 9.460938 L 9.539062 9.078125 L 4.921875 9.078125 L 4.921875 9.460938 C 4.921875 9.691406 5.078125 9.847656 5.308594 9.847656 Z M 9.152344 10.921875 L 9.152344 11 L 5.308594 11 L 5.308594 10.921875 C 5.308594 10.539062 5.617188 10.230469 6 10.230469 L 8.421875 10.230469 C 8.847656 10.230469 9.152344 10.539062 9.152344 10.921875 Z M 4.539062 3.691406 C 4.539062 2.347656 3 2.152344 3 2.152344 C 3.585938 2.632812 3.542969 3.09375 3.464844 3.988281 C 3.429688 4.382812 3.382812 4.859375 3.382812 5.460938 C 3.382812 8.421875 6.078125 8.691406 6.078125 8.691406 C 6.078125 8.691406 4.152344 8.269531 4.152344 5.960938 C 4.152344 5.222656 4.277344 4.839844 4.382812 4.507812 C 4.464844 4.25 4.539062 4.027344 4.539062 3.691406 Z M 4.539062 3.691406 "/>
</g>
</svg>
