<?xml version="1.0" encoding="UTF-8"?>
<svg xmlns="http://www.w3.org/2000/svg" xmlns:xlink="http://www.w3.org/1999/xlink" width="32" height="32" viewBox="0 0 32 32">
<defs>
<filter id="filter-remove-color" x="0%" y="0%" width="100%" height="100%">
<feColorMatrix color-interpolation-filters="sRGB" values="0 0 0 0 1 0 0 0 0 1 0 0 0 0 1 0 0 0 1 0" />
</filter>
<mask id="mask-0">
<g filter="url(#filter-remove-color)">
<rect x="-3.2" y="-3.2" width="38.4" height="38.4" fill="rgb(0%, 0%, 0%)" fill-opacity="0.5"/>
</g>
</mask>
<clipPath id="clip-0">
<rect x="0" y="0" width="32" height="32"/>
</clipPath>
<g id="source-7" clip-path="url(#clip-0)">
<path fill-rule="nonzero" fill="rgb(100%, 100%, 100%)" fill-opacity="1" d="M 12 10.667969 L 18.539062 5.332031 L 13.332031 5.332031 L 9.332031 10.667969 Z M 12 10.667969 "/>
</g>
</defs>
<path fill-rule="evenodd" fill="rgb(100%, 100%, 100%)" fill-opacity="1" d="M 8 16 C 8 14.527344 9.195312 13.332031 10.667969 13.332031 L 16 13.332031 C 17.472656 13.332031 18.667969 14.527344 18.667969 16 L 18.667969 26.667969 L 20 26.667969 C 20.738281 26.667969 21.332031 26.070312 21.332031 25.332031 L 21.332031 24 C 19.859375 24 18.667969 22.804688 18.667969 21.332031 C 18.667969 19.859375 19.859375 18.667969 21.332031 18.667969 L 18.667969 13.332031 L 21.332031 13.332031 L 24 18.667969 L 24 25.332031 C 24 27.542969 22.210938 29.332031 20 29.332031 L 9.332031 29.332031 C 8.597656 29.332031 8 28.738281 8 28 Z M 10.667969 16 L 16 16 L 16 21.332031 L 10.667969 21.332031 Z M 10.667969 16 "/>
<g mask="url(#mask-0)">
<use xlink:href="#source-7"/>
</g>
<path fill-rule="nonzero" fill="rgb(100%, 100%, 100%)" fill-opacity="1" d="M 12 0 L 16.90625 4 L 25.332031 4 C 26.070312 4 26.667969 4.597656 26.667969 5.332031 C 26.667969 6.070312 26.070312 6.667969 25.332031 6.667969 L 8 6.667969 L 6.667969 8 L 5.332031 8 L 6.667969 5.332031 L 5.332031 2.667969 L 6.667969 2.667969 L 8 4 L 12.332031 4 L 9.332031 0 Z M 12 0 "/>
</svg>
