<svg width="12" height="12" viewBox="0 0 48 48" fill="none" xmlns="http://www.w3.org/2000/svg">
<path fill-rule="evenodd" clip-rule="evenodd" d="M43.8974 5.36754C44.2467 6.41542 43.6803 7.54806 42.6324 7.89736L38 9.44151V14C38 17.3137 35.3137 20 32 20C36.4183 20 40 23.5817 40 28V36C40 40.4183 36.4183 44 32 44H28C23.5817 44 20 40.4183 20 36V28C20 23.5817 23.5817 20 28 20H30C28.8954 20 28 19.1046 28 18C28 16.8954 28.8954 16 30 16H32C33.1046 16 34 15.1046 34 14V10.7748L6.63245 19.8974C5.58456 20.2467 4.45192 19.6803 4.10263 18.6324C3.75333 17.5846 4.31965 16.4519 5.36754 16.1026L41.3675 4.10263C42.4154 3.75333 43.5481 4.31965 43.8974 5.36754ZM26 24C24.8954 24 24 24.8954 24 26V34C24 35.1046 24.8954 36 26 36H34C35.1046 36 36 35.1046 36 34V26C36 24.8954 35.1046 24 34 24H26Z" fill="#ffffff"/>
</svg>
