<?xml version="1.0" encoding="UTF-8"?>
<svg xmlns="http://www.w3.org/2000/svg" xmlns:xlink="http://www.w3.org/1999/xlink" width="12" height="12" viewBox="0 0 12 12" version="1.1">
<g id="surface1">
<path style=" stroke:none;fill-rule:nonzero;fill:rgb(100%,100%,100%);fill-opacity:1;" d="M 4.417969 5.832031 C 3.980469 5.832031 3.746094 6.074219 3.636719 6.355469 L 3.066406 7.832031 C 2.839844 7.859375 2.4375 8.125 2.4375 8.632812 L 2.4375 10.507812 L 2.992188 10.507812 L 2.992188 11.109375 C 2.992188 11.847656 4.039062 11.839844 4.039062 11.109375 L 4.039062 10.507812 L 7.800781 10.507812 L 7.800781 11.109375 C 7.800781 11.839844 8.847656 11.847656 8.847656 11.109375 L 8.847656 10.507812 L 9.402344 10.507812 L 9.402344 8.632812 C 9.402344 8.125 9.003906 7.859375 8.777344 7.832031 L 8.203125 6.355469 C 8.09375 6.074219 7.863281 5.832031 7.421875 5.832031 Z M 4.410156 6.371094 L 7.429688 6.371094 C 7.617188 6.375 7.699219 6.492188 7.75 6.65625 L 8.183594 7.816406 L 3.65625 7.816406 L 4.089844 6.65625 C 4.144531 6.492188 4.222656 6.375 4.410156 6.371094 Z M 3.535156 8.382812 C 3.800781 8.382812 4.015625 8.605469 4.015625 8.878906 C 4.015625 9.152344 3.800781 9.378906 3.535156 9.378906 C 3.265625 9.378906 3.050781 9.152344 3.050781 8.878906 C 3.050781 8.605469 3.265625 8.382812 3.535156 8.382812 Z M 8.308594 8.382812 C 8.574219 8.382812 8.789062 8.605469 8.789062 8.878906 C 8.789062 9.152344 8.574219 9.378906 8.308594 9.378906 C 8.042969 9.378906 7.824219 9.152344 7.824219 8.878906 C 7.824219 8.605469 8.042969 8.382812 8.308594 8.382812 Z M 8.308594 8.382812 "/>
<path style="fill-rule:nonzero;fill:rgb(100%,100%,100%);fill-opacity:1;stroke-width:1.55348;stroke-linecap:round;stroke-linejoin:round;stroke:rgb(100%,100%,100%);stroke-opacity:1;stroke-miterlimit:4;" d="M 169.733073 20.957031 C 159.160156 20.957031 149.720052 24.921875 141.979167 32.66276 C 134.049479 40.403646 130.084635 49.654948 130.084635 60.794271 C 130.084635 71.933594 134.049479 81.373698 141.979167 89.114583 C 149.720052 96.855469 159.160156 100.63151 169.733073 100.63151 C 170.110677 100.63151 170.677083 100.63151 171.054688 100.63151 C 171.432292 100.63151 171.809896 100.63151 172.1875 100.63151 C 182.949219 100.63151 192.200521 96.855469 200.130208 89.114583 C 208.059896 81.373698 212.02474 71.933594 212.02474 60.794271 C 212.02474 49.654948 208.059896 40.403646 200.130208 32.66276 C 192.200521 24.921875 182.949219 20.957031 172.1875 20.957031 C 171.809896 20.957031 171.432292 21.145833 171.054688 21.145833 C 170.677083 21.145833 170.110677 20.957031 169.733073 20.957031 Z M 139.52474 109.505208 C 137.070312 109.505208 134.99349 109.882812 132.916667 110.260417 C 131.595052 110.260417 130.46224 110.071615 129.140625 110.260417 C 120.078125 110.449219 111.582031 114.22526 105.351562 120.644531 C 99.121094 127.252604 95.722656 135.9375 95.911458 144.811198 L 96.666667 223.919271 C 96.477865 231.282552 98.74349 238.457031 103.085938 244.498698 C 107.428385 250.351562 113.470052 254.882812 120.455729 256.959635 L 120.455729 269.986979 L 171.054688 268.476562 L 221.464844 269.986979 L 221.464844 255.449219 C 227.695312 252.80599 232.792969 248.27474 236.380208 242.421875 C 239.778646 236.757812 241.666667 230.14974 241.289062 223.352865 L 240.722656 144.244792 C 240.722656 135.559896 237.324219 127.252604 231.471354 121.022135 C 225.61849 114.602865 217.5 110.826823 208.815104 110.260417 C 206.927083 109.882812 204.85026 109.505208 202.584635 109.505208 Z M 139.52474 109.505208 " transform="matrix(0.0206897,0,0,0.0206897,0,0)"/>
<path style="fill-rule:nonzero;fill:rgb(100%,100%,100%);fill-opacity:1;stroke-width:1.55348;stroke-linecap:round;stroke-linejoin:round;stroke:rgb(100%,100%,100%);stroke-opacity:1;stroke-miterlimit:4;" d="M 397.80599 20.957031 C 387.044271 20.957031 377.792969 24.921875 369.863281 32.66276 C 361.933594 40.403646 357.96875 49.654948 357.96875 60.794271 C 357.96875 71.933594 361.933594 81.373698 369.863281 89.114583 C 377.792969 96.855469 387.044271 100.63151 397.80599 100.63151 C 398.183594 100.63151 398.561198 100.63151 398.938802 100.63151 C 399.316406 100.63151 399.69401 100.63151 400.260417 100.63151 C 410.833333 100.63151 420.084635 96.855469 428.014323 89.114583 C 435.94401 81.373698 439.908854 71.933594 439.908854 60.794271 C 439.908854 49.654948 435.94401 40.403646 428.014323 32.66276 C 420.084635 24.921875 410.833333 20.957031 400.260417 20.957031 C 399.69401 20.957031 399.316406 21.145833 398.938802 21.145833 C 398.561198 21.145833 398.183594 20.957031 397.80599 20.957031 Z M 367.597656 109.505208 C 365.143229 109.505208 362.877604 109.882812 360.989583 110.260417 C 359.667969 110.260417 358.346354 110.071615 357.02474 110.260417 C 348.151042 110.449219 339.466146 114.22526 333.424479 120.644531 C 327.19401 127.252604 323.795573 135.9375 323.984375 144.811198 L 324.739583 223.919271 C 324.550781 231.282552 326.816406 238.457031 331.158854 244.498698 C 335.3125 250.351562 341.542969 254.882812 348.528646 256.959635 L 348.528646 269.986979 L 398.938802 268.476562 L 449.53776 269.986979 L 449.53776 255.449219 C 455.579427 252.80599 460.677083 248.27474 464.264323 242.421875 C 467.851562 236.757812 469.550781 230.14974 469.361979 223.352865 L 468.606771 144.244792 C 468.606771 135.559896 465.397135 127.252604 459.544271 121.022135 C 453.502604 114.602865 445.384115 110.826823 436.699219 110.260417 C 434.811198 109.882812 432.734375 109.505208 430.46875 109.505208 Z M 367.597656 109.505208 " transform="matrix(0.0206897,0,0,0.0206897,0,0)"/>
</g>
</svg>
