<?xml version="1.0" encoding="UTF-8"?>
<svg xmlns="http://www.w3.org/2000/svg" xmlns:xlink="http://www.w3.org/1999/xlink" width="12" height="12" viewBox="0 0 12 12">
<path fill-rule="evenodd" fill="rgb(100%, 100%, 100%)" fill-opacity="1" d="M 7.425781 3 L 6.5 3 L 6.5 2 L 7.75 2 C 7.945312 2 8.125 2.117188 8.207031 2.292969 L 8.914062 3.867188 C 9.101562 3.816406 9.296875 3.78125 9.5 3.765625 C 9.910156 3.734375 10.351562 3.777344 10.8125 3.917969 C 11.113281 4.007812 11.421875 4.136719 11.738281 4.3125 L 11.261719 5.1875 C 10.519531 4.785156 9.894531 4.695312 9.378906 4.789062 C 9.363281 4.789062 9.347656 4.792969 9.332031 4.796875 L 9.660156 5.527344 C 9.769531 5.507812 9.882812 5.5 10 5.5 C 11.105469 5.5 12 6.394531 12 7.5 C 12 8.605469 11.105469 9.5 10 9.5 C 8.894531 9.5 8 8.605469 8 7.5 C 8 6.867188 8.292969 6.304688 8.75 5.9375 L 8.425781 5.21875 C 7.824219 5.695312 7.5 6.441406 7.5 7 L 7.5 7.453125 L 3.976562 7.804688 C 3.832031 8.765625 3 9.5 2 9.5 C 0.894531 9.5 0 8.605469 0 7.5 C 0 6.394531 0.894531 5.5 2 5.5 C 2.863281 5.5 3.597656 6.046875 3.878906 6.808594 L 4.457031 6.75 C 4.402344 6.40625 4.285156 6.078125 4.117188 5.78125 C 3.808594 5.226562 3.328125 4.773438 2.734375 4.5 L 1.25 4.5 L 1.25 3.5 L 3.082031 3.5 L 4.582031 4 L 7.875 4 Z M 2.8125 6.917969 C 2.628906 6.664062 2.335938 6.5 2 6.5 C 1.449219 6.5 1 6.949219 1 7.5 C 1 8.050781 1.449219 8.5 2 8.5 C 2.40625 8.5 2.753906 8.257812 2.910156 7.910156 L 2.050781 7.996094 C 1.773438 8.023438 1.53125 7.824219 1.503906 7.550781 C 1.476562 7.273438 1.675781 7.03125 1.949219 7.003906 Z M 9.1875 6.914062 C 9.070312 7.078125 9 7.28125 9 7.5 C 9 8.050781 9.449219 8.5 10 8.5 C 10.550781 8.5 11 8.050781 11 7.5 C 11 6.980469 10.605469 6.554688 10.101562 6.503906 L 10.457031 7.292969 C 10.570312 7.546875 10.457031 7.84375 10.207031 7.957031 C 9.953125 8.070312 9.65625 7.957031 9.542969 7.707031 Z M 7.242188 5 L 4.8125 5 C 5.128906 5.472656 5.347656 6.011719 5.445312 6.585938 L 5.457031 6.652344 L 6.539062 6.542969 C 6.632812 6.019531 6.871094 5.46875 7.242188 5 Z M 7.242188 5 "/>
</svg>
