<?xml version="1.0" encoding="UTF-8"?>
<svg xmlns="http://www.w3.org/2000/svg" xmlns:xlink="http://www.w3.org/1999/xlink" width="12" height="12" viewBox="0 0 12 12" version="1.1">
<g id="surface1">
<path style=" stroke:none;fill-rule:evenodd;fill:rgb(100%,100%,100%);fill-opacity:1;" d="M 0.75 3.628906 C 0.902344 3.25 1.269531 3 1.675781 3 L 7.5 3 L 9 5 L 11.5 5.5 L 11.5 6.5 L 12 7 L 11.75 8 L 10.914062 8 C 10.707031 8.582031 10.152344 9 9.5 9 C 8.847656 9 8.292969 8.582031 8.085938 8 L 3.914062 8 C 3.707031 8.582031 3.152344 9 2.5 9 C 1.847656 9 1.292969 8.582031 1.085938 8 L 0 8 L 0 5.5 Z M 2.5 8 C 2.777344 8 3 7.777344 3 7.5 C 3 7.222656 2.777344 7 2.5 7 C 2.222656 7 2 7.222656 2 7.5 C 2 7.777344 2.222656 8 2.5 8 Z M 9.5 8 C 9.777344 8 10 7.777344 10 7.5 C 10 7.222656 9.777344 7 9.5 7 C 9.222656 7 9 7.222656 9 7.5 C 9 7.777344 9.222656 8 9.5 8 Z M 2 5.5 L 2 4 L 1.675781 4 L 1.078125 5.5 Z M 5.5 5.5 L 8.125 5.5 L 7 4 L 5.5 4 Z M 4.5 4 L 4.5 5.5 L 3 5.5 L 3 4 Z M 4.5 4 "/>
</g>
</svg>
