<svg width="12" height="12" viewBox="0 0 580 580" fill="none" xmlns="http://www.w3.org/2000/svg">
<path d="M160.741 22C143.925 22 132.741 37.1833 132.741 52.5254V518.475C132.741 533.817 143.925 549 160.741 549H393.741C410.558 549 421.741 533.817 421.741 518.475V400.042L244.741 263V22H160.741Z" fill="#ffffff"/>
<path fill-rule="evenodd" clip-rule="evenodd" d="M283.741 23V260C283.741 260 329.844 236.132 330.242 143C330.639 49.8681 283.741 23 283.741 23Z" fill="#ffffff"/>
<path d="M370.011 97.7531L434.581 60.4736" stroke="#ffffff" stroke-width="25" stroke-linecap="round"/>
<path d="M370.011 190.836L434.581 228.116" stroke="#ffffff" stroke-width="25" stroke-linecap="round"/>
<path d="M370.011 143.008H434.581" stroke="#ffffff" stroke-width="25" stroke-linecap="round"/>
<path d="M360.309 354.246L383.174 327.254" stroke="#ffffff" stroke-width="35" stroke-linecap="round"/>
<path d="M395.741 328.5C405.13 328.5 412.741 320.889 412.741 311.5C412.741 302.111 405.13 294.5 395.741 294.5C386.353 294.5 378.741 302.111 378.741 311.5C378.741 320.889 386.353 328.5 395.741 328.5Z" fill="#ffffff" stroke="#ffffff" stroke-width="30" stroke-linecap="round"/>
</svg>
