<?xml version="1.0" encoding="UTF-8"?>
<svg xmlns="http://www.w3.org/2000/svg" xmlns:xlink="http://www.w3.org/1999/xlink" width="32" height="32" viewBox="0 0 32 32">
<defs>
<filter id="filter-remove-color" x="0%" y="0%" width="100%" height="100%">
<feColorMatrix color-interpolation-filters="sRGB" values="0 0 0 0 1 0 0 0 0 1 0 0 0 0 1 0 0 0 1 0" />
</filter>
<mask id="mask-0">
<g filter="url(#filter-remove-color)">
<rect x="-3.2" y="-3.2" width="38.4" height="38.4" fill="rgb(0%, 0%, 0%)" fill-opacity="0.2"/>
</g>
</mask>
<clipPath id="clip-0">
<rect x="0" y="0" width="32" height="32"/>
</clipPath>
<g id="source-6" clip-path="url(#clip-0)">
<path fill-rule="nonzero" fill="rgb(100%, 100%, 100%)" fill-opacity="1" d="M 5.332031 23.332031 C 5.332031 22.964844 5.632812 22.667969 6 22.667969 L 26 22.667969 C 26.367188 22.667969 26.667969 22.964844 26.667969 23.332031 C 26.667969 23.703125 26.367188 24 26 24 L 6 24 C 5.632812 24 5.332031 23.703125 5.332031 23.332031 Z M 5.332031 23.332031 "/>
</g>
</defs>
<g mask="url(#mask-0)">
<use xlink:href="#source-6"/>
</g>
<path fill-rule="evenodd" fill="rgb(100%, 100%, 100%)" fill-opacity="1" d="M 14.667969 6.667969 C 14.667969 5.929688 14.070312 5.332031 13.332031 5.332031 L 7.78125 5.332031 C 7.136719 5.332031 6.582031 5.792969 6.46875 6.429688 L 4.855469 15.285156 C 4.410156 17.738281 6.296875 20 8.792969 20 L 12.667969 20 C 10.824219 20 9.332031 21.492188 9.332031 23.332031 C 9.332031 21.492188 7.839844 20 6 20 C 4.160156 20 2.667969 21.492188 2.667969 23.332031 C 2.667969 25.175781 4.160156 26.667969 6 26.667969 C 7.839844 26.667969 9.332031 25.175781 9.332031 23.332031 C 9.332031 25.175781 10.824219 26.667969 12.667969 26.667969 C 14.507812 26.667969 16 25.175781 16 23.332031 C 16 25.175781 17.492188 26.667969 19.332031 26.667969 C 21.175781 26.667969 22.667969 25.175781 22.667969 23.332031 C 22.667969 25.175781 24.160156 26.667969 26 26.667969 C 27.839844 26.667969 29.332031 25.175781 29.332031 23.332031 C 29.332031 21.492188 27.839844 20 26 20 C 24.160156 20 22.667969 21.492188 22.667969 23.332031 C 22.667969 21.492188 21.175781 20 19.332031 20 L 24.941406 20 C 26.628906 20 28 18.628906 28 16.941406 C 28 15.589844 27.113281 14.402344 25.820312 14.011719 L 23.097656 13.195312 L 22.605469 14.277344 C 22.453125 14.609375 22.058594 14.757812 21.722656 14.605469 C 21.390625 14.453125 21.242188 14.058594 21.394531 13.722656 L 21.808594 12.808594 L 20.53125 12.425781 L 19.929688 13.632812 C 19.765625 13.960938 19.363281 14.09375 19.035156 13.929688 C 18.707031 13.765625 18.574219 13.363281 18.738281 13.035156 L 19.234375 12.039062 L 17.988281 11.664062 L 17.25 12.992188 C 17.070312 13.3125 16.664062 13.429688 16.34375 13.25 C 16.019531 13.070312 15.90625 12.664062 16.082031 12.34375 L 16.679688 11.269531 L 15.617188 10.953125 C 15.054688 10.78125 14.667969 10.261719 14.667969 9.675781 Z M 19.332031 20 C 17.492188 20 16 21.492188 16 23.332031 C 16 21.492188 14.507812 20 12.667969 20 Z M 6 24 C 6.367188 24 6.667969 23.703125 6.667969 23.332031 C 6.667969 22.964844 6.367188 22.667969 6 22.667969 C 5.632812 22.667969 5.332031 22.964844 5.332031 23.332031 C 5.332031 23.703125 5.632812 24 6 24 Z M 12.667969 24 C 13.035156 24 13.332031 23.703125 13.332031 23.332031 C 13.332031 22.964844 13.035156 22.667969 12.667969 22.667969 C 12.296875 22.667969 12 22.964844 12 23.332031 C 12 23.703125 12.296875 24 12.667969 24 Z M 20 23.332031 C 20 23.703125 19.703125 24 19.332031 24 C 18.964844 24 18.667969 23.703125 18.667969 23.332031 C 18.667969 22.964844 18.964844 22.667969 19.332031 22.667969 C 19.703125 22.667969 20 22.964844 20 23.332031 Z M 26 24 C 26.367188 24 26.667969 23.703125 26.667969 23.332031 C 26.667969 22.964844 26.367188 22.667969 26 22.667969 C 25.632812 22.667969 25.332031 22.964844 25.332031 23.332031 C 25.332031 23.703125 25.632812 24 26 24 Z M 26 24 "/>
</svg>
