<?xml version="1.0" encoding="UTF-8"?>
<svg xmlns="http://www.w3.org/2000/svg" xmlns:xlink="http://www.w3.org/1999/xlink" width="12" height="12" viewBox="0 0 12 12">
<path fill-rule="nonzero" fill="rgb(100%, 100%, 100%)" fill-opacity="1" d="M 8.503906 4.5 L 3.503906 4.5 L 3.503906 7 L 8.503906 7 Z M 8.503906 4.5 "/>
<path fill-rule="nonzero" fill="rgb(100%, 100%, 100%)" fill-opacity="1" d="M 4.5 8.5 C 4.777344 8.5 5 8.277344 5 8 C 5 7.722656 4.777344 7.5 4.5 7.5 C 4.222656 7.5 4 7.722656 4 8 C 4 8.277344 4.222656 8.5 4.5 8.5 Z M 4.5 8.5 "/>
<path fill-rule="nonzero" fill="rgb(100%, 100%, 100%)" fill-opacity="1" d="M 7.5 8.5 C 7.777344 8.5 8 8.277344 8 8 C 8 7.722656 7.777344 7.5 7.5 7.5 C 7.222656 7.5 7 7.722656 7 8 C 7 8.277344 7.222656 8.5 7.5 8.5 Z M 7.5 8.5 "/>
<path fill-rule="evenodd" fill="rgb(100%, 100%, 100%)" fill-opacity="1" d="M 6 1 C 6.929688 1 8 1.046875 8.898438 1.398438 C 10.234375 1.921875 11 3.023438 11 4.429688 L 11 11 L 1 11 L 1 4.429688 C 1 3.023438 1.765625 1.921875 3.101562 1.398438 C 4 1.046875 5.070312 1 6 1 Z M 7.683594 9.25 C 8.410156 9.25 9 8.664062 9 7.941406 L 9 4.5 C 9 3.191406 7.660156 3 6 3 C 4.5 3 3 3.183594 3 4.5 L 3 7.941406 C 3 8.660156 3.589844 9.25 4.308594 9.25 L 3.75 9.808594 L 3.75 10 L 4.585938 10 L 5.335938 9.25 L 6.75 9.25 L 7.5 10 L 8.25 10 L 8.25 9.808594 Z M 7.683594 9.25 "/>
</svg>
