<?xml version="1.0" encoding="UTF-8"?>
<svg xmlns="http://www.w3.org/2000/svg" xmlns:xlink="http://www.w3.org/1999/xlink" width="12" height="12" viewBox="0 0 12 12" version="1.1">
<defs>
<filter id="alpha" filterUnits="objectBoundingBox" x="0%" y="0%" width="100%" height="100%">
  <feColorMatrix type="matrix" in="SourceGraphic" values="0 0 0 0 1 0 0 0 0 1 0 0 0 0 1 0 0 0 1 0"/>
</filter>
<mask id="mask0">
  <g filter="url(#alpha)">
<rect x="0" y="0" width="12" height="12" style="fill:rgb(0%,0%,0%);fill-opacity:0.5;stroke:none;"/>
  </g>
</mask>
<clipPath id="clip1">
  <rect x="0" y="0" width="12" height="12"/>
</clipPath>
<g id="surface5" clip-path="url(#clip1)">
<path style=" stroke:none;fill-rule:nonzero;fill:rgb(100%,100%,100%);fill-opacity:1;" d="M 2 2.5 L 6 2.5 L 7.25 3.5 L 5.5 3.5 L 5.5 3 L 4.5 3 L 4.5 3.5 L 3.5 3.5 L 3.5 3 L 2.5 3 L 2.5 3.5 L 1.5 3.5 Z M 2 2.5 "/>
</g>
</defs>
<g id="surface1">
<path style=" stroke:none;fill-rule:evenodd;fill:rgb(100%,100%,100%);fill-opacity:1;" d="M 1.5 3.5 L 1 4 L 0 6 L 0 8 L 0.5 8.5 L 1.5 8.5 C 1.5 9.050781 1.949219 9.5 2.5 9.5 C 3.050781 9.5 3.5 9.050781 3.5 8.5 L 9 8.5 C 9 9.050781 9.449219 9.5 10 9.5 C 10.550781 9.5 11 9.050781 11 8.5 L 11.5 8.5 L 12 8 L 12 6.5 L 9 6 L 7.25 3.5 Z M 2 4.5 L 2 6 L 1 6 L 1.679688 4.5 Z M 5 6 L 5 4.5 L 3 4.5 L 3 6 Z M 7.75 6 L 6.75 4.5 L 6 4.5 L 6 6 Z M 2.5 9 C 2.777344 9 3 8.777344 3 8.5 C 3 8.222656 2.777344 8 2.5 8 C 2.222656 8 2 8.222656 2 8.5 C 2 8.777344 2.222656 9 2.5 9 Z M 10 9 C 10.277344 9 10.5 8.777344 10.5 8.5 C 10.5 8.222656 10.277344 8 10 8 C 9.722656 8 9.5 8.222656 9.5 8.5 C 9.5 8.777344 9.722656 9 10 9 Z M 10 9 "/>
<use xlink:href="#surface5" mask="url(#mask0)"/>
</g>
</svg>
