<?xml version="1.0" encoding="UTF-8"?>
<svg xmlns="http://www.w3.org/2000/svg" xmlns:xlink="http://www.w3.org/1999/xlink" width="32" height="32" viewBox="0 0 32 32">
<path fill-rule="nonzero" fill="rgb(100%, 100%, 100%)" fill-opacity="1" d="M 2.640625 23.671875 L 2.640625 3.265625 L 10.339844 3.265625 C 11.695312 3.265625 12.730469 3.328125 13.445312 3.460938 C 14.445312 3.625 15.285156 3.945312 15.964844 4.414062 C 16.640625 4.882812 17.1875 5.539062 17.597656 6.382812 C 18.011719 7.226562 18.21875 8.15625 18.21875 9.167969 C 18.21875 10.902344 17.667969 12.371094 16.5625 13.570312 C 15.457031 14.773438 13.460938 15.375 10.574219 15.375 L 5.34375 15.375 L 5.34375 23.671875 Z M 5.34375 12.964844 L 10.617188 12.964844 C 12.363281 12.964844 13.601562 12.640625 14.335938 11.992188 C 15.066406 11.34375 15.433594 10.429688 15.433594 9.25 C 15.433594 8.394531 15.21875 7.664062 14.785156 7.058594 C 14.355469 6.449219 13.785156 6.046875 13.082031 5.851562 C 12.628906 5.734375 11.785156 5.671875 10.5625 5.671875 L 5.34375 5.671875 Z M 5.34375 12.964844 "/>
<path fill-rule="nonzero" fill="rgb(100%, 100%, 100%)" fill-opacity="1" d="M 22.410156 15.234375 C 22.1875 14.371094 21.398438 13.730469 20.46875 13.730469 C 19.355469 13.730469 18.457031 14.625 18.457031 15.734375 C 18.457031 15.921875 18.480469 16.09375 18.527344 16.261719 L 19.332031 16.261719 C 19.390625 16.398438 19.457031 16.480469 19.457031 16.480469 C 19.699219 16.828125 20.105469 17.054688 20.5625 17.054688 C 21.304688 17.054688 21.910156 16.449219 21.910156 15.707031 C 21.910156 15.535156 21.953125 15.378906 21.882812 15.234375 Z M 22.410156 15.234375 "/>
<path fill-rule="nonzero" fill="rgb(100%, 100%, 100%)" fill-opacity="1" d="M 22.355469 27.222656 C 22.144531 27.4375 21.851562 27.601562 21.523438 27.601562 L 21.523438 23.230469 L 24.542969 22.363281 L 25.300781 23.855469 Z M 22.355469 27.222656 "/>
<path fill-rule="nonzero" fill="rgb(100%, 100%, 100%)" fill-opacity="1" d="M 19.816406 17.226562 C 19.617188 17.007812 19.332031 16.867188 19.007812 16.867188 C 18.664062 16.867188 18.355469 17.023438 18.15625 17.273438 L 15.757812 20.941406 C 15.660156 21.101562 15.605469 21.292969 15.605469 21.496094 C 15.605469 21.875 15.796875 22.203125 16.085938 22.398438 L 19.304688 24.183594 L 19.304688 27.222656 C 19.304688 27.652344 19.652344 28.003906 20.082031 28.003906 C 20.507812 28.003906 20.859375 27.652344 20.859375 27.222656 L 20.859375 23.429688 C 20.859375 23.429688 20.960938 22.824219 20.277344 22.492188 L 18.269531 21.441406 L 19.730469 19.210938 L 20.507812 20.429688 C 20.664062 20.675781 20.871094 20.769531 21.0625 20.765625 L 23.054688 20.757812 C 23.867188 20.757812 23.867188 19.703125 23.054688 19.707031 L 21.441406 19.707031 Z M 19.816406 17.226562 "/>
<path fill-rule="nonzero" fill="rgb(100%, 100%, 100%)" fill-opacity="1" d="M 28.636719 22.207031 C 28.667969 22.242188 28.6875 22.28125 28.6875 22.332031 C 28.6875 22.429688 28.605469 22.507812 28.511719 22.507812 C 28.484375 22.507812 28.46875 22.507812 28.449219 22.5 C 28.101562 22.351562 27.886719 22.261719 27.484375 22.261719 C 27.21875 22.261719 26.890625 22.351562 26.511719 22.660156 L 26.164062 21.964844 C 26.601562 21.835938 26.957031 21.71875 27.332031 21.71875 C 27.933594 21.71875 28.246094 21.84375 28.636719 22.207031 Z M 28.636719 22.207031 "/>
<path fill-rule="nonzero" fill="rgb(100%, 100%, 100%)" fill-opacity="1" d="M 15.253906 22.742188 L 18.632812 24.605469 L 18.640625 25.351562 L 14.78125 23.226562 C 14.503906 23.085938 14.128906 23 13.859375 23 C 13.464844 23 13.242188 23.09375 12.898438 23.238281 C 12.878906 23.246094 12.859375 23.246094 12.835938 23.246094 C 12.742188 23.246094 12.660156 23.167969 12.660156 23.074219 C 12.660156 23.023438 12.679688 22.980469 12.710938 22.949219 C 13.101562 22.582031 13.5 22.460938 14.097656 22.460938 C 14.40625 22.460938 14.777344 22.496094 15.253906 22.742188 Z M 15.253906 22.742188 "/>
<path fill-rule="nonzero" fill="rgb(100%, 100%, 100%)" fill-opacity="1" d="M 15.566406 29.59375 C 16.667969 29.59375 17.558594 28.699219 17.558594 27.597656 C 17.558594 26.496094 16.667969 25.605469 15.566406 25.605469 C 14.46875 25.605469 13.574219 26.496094 13.574219 27.597656 C 13.574219 28.699219 14.46875 29.59375 15.566406 29.59375 Z M 12.695312 27.601562 C 12.695312 26.015625 13.980469 24.722656 15.566406 24.722656 C 17.15625 24.722656 18.445312 26.015625 18.445312 27.601562 C 18.445312 29.1875 17.15625 30.476562 15.566406 30.476562 C 13.980469 30.476562 12.695312 29.1875 12.695312 27.601562 Z M 12.695312 27.601562 "/>
<path fill-rule="nonzero" fill="rgb(100%, 100%, 100%)" fill-opacity="1" d="M 27.457031 29.59375 C 28.554688 29.59375 29.449219 28.699219 29.449219 27.597656 C 29.449219 26.496094 28.558594 25.605469 27.457031 25.605469 C 26.355469 25.605469 25.464844 26.496094 25.464844 27.597656 C 25.464844 28.699219 26.355469 29.59375 27.457031 29.59375 Z M 24.582031 27.601562 C 24.582031 26.015625 25.867188 24.722656 27.457031 24.722656 C 29.042969 24.722656 30.328125 26.015625 30.328125 27.601562 C 30.328125 29.1875 29.042969 30.476562 27.457031 30.476562 C 25.867188 30.476562 24.582031 29.1875 24.582031 27.601562 Z M 24.582031 27.601562 "/>
<path fill-rule="nonzero" fill="rgb(100%, 100%, 100%)" fill-opacity="1" d="M 26.820312 24.3125 L 25.421875 21.519531 C 25.238281 21.1875 24.882812 20.957031 24.472656 20.957031 L 23.5625 20.957031 C 23.382812 20.957031 23.238281 21.101562 23.238281 21.28125 C 23.238281 21.460938 23.382812 21.605469 23.5625 21.605469 L 24.472656 21.601562 C 24.625 21.601562 24.796875 21.703125 24.863281 21.855469 L 26.179688 24.535156 Z M 26.820312 24.3125 "/>
</svg>
