<?xml version="1.0" encoding="UTF-8"?>
<svg xmlns="http://www.w3.org/2000/svg" xmlns:xlink="http://www.w3.org/1999/xlink" width="32" height="32" viewBox="0 0 32 32">
<defs>
<filter id="filter-remove-color" x="0%" y="0%" width="100%" height="100%">
<feColorMatrix color-interpolation-filters="sRGB" values="0 0 0 0 1 0 0 0 0 1 0 0 0 0 1 0 0 0 1 0" />
</filter>
<mask id="mask-0">
<g filter="url(#filter-remove-color)">
<rect x="-3.2" y="-3.2" width="38.4" height="38.4" fill="rgb(0%, 0%, 0%)" fill-opacity="0.75"/>
</g>
</mask>
<clipPath id="clip-0">
<rect x="0" y="0" width="32" height="32"/>
</clipPath>
<g id="source-7" clip-path="url(#clip-0)">
<path fill-rule="evenodd" fill="rgb(100%, 100%, 100%)" fill-opacity="1" d="M 15.332031 10.667969 C 15.332031 9.929688 15.929688 9.332031 16.667969 9.332031 L 19.957031 9.332031 L 23.691406 13.8125 L 21.640625 15.519531 L 18.707031 12 L 16.667969 12 C 15.929688 12 15.332031 11.402344 15.332031 10.667969 Z M 15.332031 10.667969 "/>
</g>
</defs>
<g mask="url(#mask-0)">
<use xlink:href="#source-7"/>
</g>
<path fill-rule="nonzero" fill="rgb(100%, 100%, 100%)" fill-opacity="1" d="M 18.667969 6.667969 C 17.929688 6.667969 17.332031 7.261719 17.332031 8 C 17.332031 8.738281 17.929688 9.332031 18.667969 9.332031 L 20.726562 9.332031 L 23.5 12.5 L 22.667969 13.332031 L 13.332031 13.332031 L 12 12 L 5.332031 12 C 3.859375 12 2.667969 13.195312 2.667969 14.667969 L 2.667969 18.667969 L 5.332031 18.667969 C 3.859375 18.667969 2.667969 19.859375 2.667969 21.332031 C 2.667969 22.804688 3.859375 24 5.332031 24 L 10.492188 24 C 12.796875 24 14.667969 22.132812 14.667969 19.824219 L 14.667969 18.667969 L 23.628906 18.667969 L 24.699219 21.332031 L 20 21.332031 C 19.261719 21.332031 18.667969 21.929688 18.667969 22.667969 C 18.667969 23.402344 19.261719 24 20 24 L 27.070312 24 L 31.40625 21.109375 C 32.019531 20.699219 32.183594 19.875 31.777344 19.261719 C 31.367188 18.648438 30.539062 18.480469 29.925781 18.890625 L 27.292969 20.644531 L 26.410156 18.441406 C 27.347656 18.023438 28 17.089844 28 16 L 28 13.332031 L 26.171875 11.507812 L 21.9375 6.667969 Z M 18.667969 6.667969 "/>
</svg>
