<?xml version="1.0" encoding="UTF-8"?>
<svg xmlns="http://www.w3.org/2000/svg" xmlns:xlink="http://www.w3.org/1999/xlink" width="32" height="32" viewBox="0 0 32 32">
<path fill-rule="nonzero" fill="rgb(100%, 100%, 100%)" fill-opacity="1" d="M 17.121094 4.726562 C 17.097656 4.726562 17.074219 4.730469 17.046875 4.730469 L 2.394531 4.730469 L 2.394531 11.6875 L 20.894531 11.6875 L 17.820312 5.230469 C 17.679688 4.929688 17.476562 4.730469 17.121094 4.726562 Z M 3.628906 6.84375 L 6.089844 6.84375 L 6.089844 10.527344 L 3.628906 10.527344 Z M 7.160156 6.84375 L 10.394531 6.84375 L 10.394531 10.527344 L 7.160156 10.527344 Z M 12.238281 6.84375 L 16.574219 6.84375 L 18.226562 10.527344 L 13.890625 10.527344 Z M 12.238281 6.84375 "/>
<path fill-rule="nonzero" fill="rgb(100%, 100%, 100%)" fill-opacity="1" d="M 2.496094 13.296875 L 2.496094 21.085938 L 21.207031 21.085938 C 22.039062 21.066406 22.480469 20.320312 22.558594 20.183594 L 27.046875 13.296875 Z M 18.972656 14.371094 C 20.488281 14.371094 21.734375 15.617188 21.734375 17.136719 C 21.734375 18.652344 20.488281 19.898438 18.972656 19.898438 C 17.453125 19.898438 16.207031 18.652344 16.207031 17.136719 C 16.207031 15.617188 17.453125 14.371094 18.972656 14.371094 Z M 18.972656 15.949219 C 18.308594 15.949219 17.785156 16.472656 17.785156 17.136719 C 17.785156 17.800781 18.308594 18.320312 18.972656 18.320312 C 19.636719 18.320312 20.15625 17.800781 20.15625 17.136719 C 20.15625 16.472656 19.636719 15.949219 18.972656 15.949219 Z M 18.972656 15.949219 "/>
<path fill="none" stroke-width="34.501499" stroke-linecap="round" stroke-linejoin="miter" stroke="rgb(100%, 100%, 100%)" stroke-opacity="1" stroke-miterlimit="4" d="M 57.915039 490.720215 C 112.785645 433.15918 167.727051 449.868164 212.473145 490.720215 C 271.804199 431.176758 330.852051 448.310547 371.420898 490.720215 C 419.919434 445.336914 471.674805 432.734375 531.855469 490.720215 " transform="matrix(0.0551724, 0, 0, 0.0551724, 0, 0)"/>
</svg>
