<?xml version="1.0" encoding="UTF-8"?>
<svg xmlns="http://www.w3.org/2000/svg" xmlns:xlink="http://www.w3.org/1999/xlink" width="32" height="32" viewBox="0 0 32 32">
<path fill-rule="evenodd" fill="rgb(100%, 100%, 100%)" fill-opacity="1" d="M 5.332031 4 L 4 4 L 4 24 L 8 24 L 8 26.667969 L 2.667969 26.667969 L 2.667969 29.332031 L 24 29.332031 C 27.683594 29.332031 30.667969 26.347656 30.667969 22.667969 L 28 22.667969 C 28 24.875 26.210938 26.667969 24 26.667969 L 21.332031 26.667969 L 21.332031 24 L 25.332031 24 L 25.332031 18.636719 C 25.332031 16.503906 24.0625 14.574219 22.101562 13.734375 L 17.617188 11.8125 C 16.636719 11.394531 16 10.429688 16 9.363281 L 16 4 Z M 18.667969 24 L 10.667969 24 L 10.667969 26.667969 L 18.667969 26.667969 Z M 6.667969 21.332031 L 6.667969 6.667969 L 13.332031 6.667969 L 13.332031 8 L 12 8 C 11.261719 8 10.667969 8.597656 10.667969 9.332031 C 10.667969 10.070312 11.261719 10.667969 12 10.667969 L 13.496094 10.667969 C 13.613281 11.136719 13.792969 11.585938 14.03125 12 L 12 12 C 11.261719 12 10.667969 12.597656 10.667969 13.332031 C 10.667969 14.070312 11.261719 14.667969 12 14.667969 L 17.503906 14.667969 L 21.050781 16.1875 C 22.03125 16.605469 22.667969 17.570312 22.667969 18.636719 L 22.667969 21.332031 Z M 6.667969 21.332031 "/>
<path fill-rule="evenodd" fill="rgb(100%, 100%, 100%)" fill-opacity="1" d="M 4 4 L 4 24 L 8 24 L 8 26.667969 L 2.667969 26.667969 L 2.667969 29.332031 L 24 29.332031 C 27.683594 29.332031 30.667969 26.347656 30.667969 22.667969 L 28 22.667969 C 28 24.875 26.210938 26.667969 24 26.667969 L 21.332031 26.667969 L 21.332031 24 L 25.332031 24 L 25.332031 18.636719 C 25.332031 16.503906 24.0625 14.574219 22.101562 13.734375 L 17.617188 11.8125 C 16.636719 11.394531 16 10.429688 16 9.363281 L 16 4 Z M 18.667969 24 L 10.667969 24 L 10.667969 26.667969 L 18.667969 26.667969 Z M 6.667969 21.332031 L 6.667969 6.667969 L 13.332031 6.667969 L 13.332031 8 L 12 8 C 11.261719 8 10.667969 8.597656 10.667969 9.332031 C 10.667969 10.070312 11.261719 10.667969 12 10.667969 L 13.496094 10.667969 C 13.613281 11.136719 13.792969 11.585938 14.03125 12 L 12 12 C 11.261719 12 10.667969 12.597656 10.667969 13.332031 C 10.667969 14.070312 11.261719 14.667969 12 14.667969 L 17.503906 14.667969 L 21.050781 16.1875 C 22.03125 16.605469 22.667969 17.570312 22.667969 18.636719 L 22.667969 21.332031 Z M 6.667969 21.332031 "/>
</svg>
