<?xml version="1.0" encoding="UTF-8"?>
<svg xmlns="http://www.w3.org/2000/svg" xmlns:xlink="http://www.w3.org/1999/xlink" width="12" height="12" viewBox="0 0 12 12" version="1.1">
<g id="surface1">
<path style=" stroke:none;fill-rule:evenodd;fill:rgb(100%,100%,100%);fill-opacity:0.25098;" d="M 4 1 L 2 1 L 2 11 L 4 11 L 4 8 L 6.5 8 C 8.433594 8 10 6.433594 10 4.5 C 10 2.566406 8.433594 1 6.5 1 Z M 4 3 L 4 6 L 6.5 6 C 7.328125 6 8 5.328125 8 4.5 C 8 3.671875 7.328125 3 6.5 3 Z M 4 3 "/>
<path style=" stroke:none;fill-rule:evenodd;fill:rgb(100%,100%,100%);fill-opacity:0.25098;" d="M 4 8 L 6.5 8 C 8.433594 8 10 6.433594 10 4.5 C 10 2.566406 8.433594 1 6.5 1 L 2 1 L 2 11 L 4 11 Z M 3.5 10.5 L 3.5 7.5 L 6.5 7.5 C 8.15625 7.5 9.5 6.15625 9.5 4.5 C 9.5 2.84375 8.15625 1.5 6.5 1.5 L 2.5 1.5 L 2.5 10.5 Z M 3.5 2.5 L 6.5 2.5 C 7.605469 2.5 8.5 3.394531 8.5 4.5 C 8.5 5.605469 7.605469 6.5 6.5 6.5 L 3.5 6.5 Z M 4 6 L 4 3 L 6.5 3 C 7.328125 3 8 3.671875 8 4.5 C 8 5.328125 7.328125 6 6.5 6 Z M 4 6 "/>
</g>
</svg>
