<?xml version="1.0" encoding="UTF-8"?>
<svg xmlns="http://www.w3.org/2000/svg" xmlns:xlink="http://www.w3.org/1999/xlink" width="12" height="12" viewBox="0 0 12 12">
<defs>
<filter id="filter-remove-color" x="0%" y="0%" width="100%" height="100%">
<feColorMatrix color-interpolation-filters="sRGB" values="0 0 0 0 1 0 0 0 0 1 0 0 0 0 1 0 0 0 1 0" />
</filter>
<mask id="mask-0">
<g filter="url(#filter-remove-color)">
<rect x="-1.2" y="-1.2" width="14.4" height="14.4" fill="rgb(0%, 0%, 0%)" fill-opacity="0.5"/>
</g>
</mask>
<clipPath id="clip-0">
<rect x="0" y="0" width="12" height="12"/>
</clipPath>
<g id="source-7" clip-path="url(#clip-0)">
<path fill-rule="nonzero" fill="rgb(100%, 100%, 100%)" fill-opacity="1" d="M 2.605469 8.304688 C 1.855469 7.363281 1.355469 6.167969 1.050781 5.015625 C 1.074219 5.0625 1.105469 5.105469 1.144531 5.144531 C 1.339844 5.339844 1.671875 5.355469 1.917969 5.226562 C 1.976562 5.195312 2.046875 5.160156 2.125 5.125 C 2.347656 5.84375 2.628906 6.4375 2.867188 6.871094 C 3.0625 6.300781 3.316406 5.523438 3.546875 4.703125 C 3.859375 4.644531 4.21875 4.59375 4.621094 4.558594 C 4.328125 5.675781 3.976562 6.785156 3.578125 7.871094 L 3.355469 7.644531 C 3.160156 7.453125 2.839844 7.453125 2.644531 7.644531 C 2.464844 7.828125 2.453125 8.109375 2.605469 8.304688 Z M 2.605469 8.304688 "/>
<path fill-rule="nonzero" fill="rgb(100%, 100%, 100%)" fill-opacity="1" d="M 9.398438 8.304688 C 10.144531 7.363281 10.644531 6.167969 10.949219 5.015625 C 10.925781 5.0625 10.894531 5.105469 10.855469 5.144531 C 10.660156 5.339844 10.328125 5.355469 10.085938 5.226562 C 10.023438 5.195312 9.953125 5.160156 9.878906 5.125 C 9.652344 5.84375 9.375 6.4375 9.132812 6.871094 C 8.9375 6.300781 8.6875 5.523438 8.457031 4.703125 C 8.140625 4.644531 7.785156 4.59375 7.378906 4.558594 C 7.671875 5.675781 8.023438 6.785156 8.421875 7.871094 L 8.648438 7.644531 C 8.84375 7.453125 9.160156 7.453125 9.355469 7.644531 C 9.535156 7.828125 9.550781 8.109375 9.398438 8.304688 Z M 9.398438 8.304688 "/>
</g>
</defs>
<g mask="url(#mask-0)">
<use xlink:href="#source-7"/>
</g>
<path fill-rule="nonzero" fill="rgb(100%, 100%, 100%)" fill-opacity="1" d="M 1.421875 1.734375 C 1.132812 1.875 1 2.179688 1 2.5 L 1 4.792969 C 1 4.925781 1.050781 5.050781 1.144531 5.144531 C 1.339844 5.339844 1.671875 5.355469 1.917969 5.226562 C 2.484375 4.929688 3.703125 4.5 6 4.5 C 8.296875 4.5 9.515625 4.929688 10.082031 5.226562 C 10.328125 5.355469 10.660156 5.339844 10.855469 5.144531 C 10.949219 5.050781 11 4.925781 11 4.792969 L 11 2.5 C 11 2.179688 10.867188 1.875 10.578125 1.734375 C 9.980469 1.4375 8.648438 1 6 1 C 3.351562 1 2.019531 1.4375 1.421875 1.734375 Z M 1.421875 1.734375 "/>
<path fill-rule="nonzero" fill="rgb(100%, 100%, 100%)" fill-opacity="1" d="M 6 8 C 6.550781 8 7 7.550781 7 7 C 7 6.449219 6.550781 6 6 6 C 5.449219 6 5 6.449219 5 7 C 5 7.550781 5.449219 8 6 8 Z M 6 8 "/>
<path fill-rule="nonzero" fill="rgb(100%, 100%, 100%)" fill-opacity="1" d="M 9.121094 8.585938 C 8.660156 9.046875 8.105469 9.398438 7.5 9.617188 L 7.5 11 L 4.5 11 L 4.5 9.617188 C 3.894531 9.398438 3.339844 9.046875 2.878906 8.585938 L 2.644531 8.355469 C 2.453125 8.160156 2.453125 7.839844 2.644531 7.644531 C 2.839844 7.453125 3.160156 7.453125 3.355469 7.644531 L 3.585938 7.878906 C 4.023438 8.316406 4.574219 8.628906 5.171875 8.777344 C 5.714844 8.914062 6.285156 8.914062 6.828125 8.777344 C 7.425781 8.628906 7.976562 8.316406 8.414062 7.878906 L 8.644531 7.644531 C 8.839844 7.453125 9.160156 7.453125 9.355469 7.644531 C 9.546875 7.839844 9.546875 8.160156 9.355469 8.355469 Z M 9.121094 8.585938 "/>
</svg>
