<?xml version="1.0" encoding="UTF-8"?>
<svg xmlns="http://www.w3.org/2000/svg" xmlns:xlink="http://www.w3.org/1999/xlink" width="12" height="12" viewBox="0 0 12 12" version="1.1">
<g id="surface1">
<path style=" stroke:none;fill-rule:nonzero;fill:rgb(100%,100%,100%);fill-opacity:1;" d="M 11.152344 11.242188 C 10.9375 11.242188 10.730469 11.191406 10.542969 11.109375 C 10.355469 11.019531 10.140625 10.96875 9.917969 10.96875 C 9.695312 10.96875 9.480469 11.019531 9.289062 11.109375 C 9.105469 11.191406 8.898438 11.242188 8.679688 11.242188 C 8.464844 11.242188 8.257812 11.191406 8.070312 11.109375 C 7.882812 11.019531 7.667969 10.96875 7.445312 10.96875 C 7.222656 10.96875 7.007812 11.019531 6.816406 11.109375 C 6.632812 11.191406 6.421875 11.242188 6.207031 11.242188 C 5.992188 11.242188 5.785156 11.191406 5.601562 11.109375 C 5.410156 11.019531 5.195312 10.96875 4.972656 10.96875 C 4.75 10.96875 4.535156 11.019531 4.34375 11.109375 C 4.160156 11.191406 3.953125 11.242188 3.734375 11.242188 C 3.519531 11.242188 3.3125 11.191406 3.128906 11.109375 C 2.9375 11.019531 2.722656 10.96875 2.5 10.96875 C 2.277344 10.96875 2.0625 11.019531 1.875 11.109375 C 1.6875 11.191406 1.480469 11.242188 1.265625 11.242188 L 1.265625 10.324219 C 1.480469 10.324219 1.6875 10.277344 1.875 10.195312 C 2.0625 10.109375 2.277344 10.054688 2.5 10.054688 C 2.722656 10.054688 2.9375 10.109375 3.128906 10.195312 C 3.3125 10.277344 3.519531 10.324219 3.734375 10.324219 C 3.953125 10.324219 4.160156 10.277344 4.34375 10.195312 C 4.535156 10.109375 4.75 10.054688 4.972656 10.054688 C 5.195312 10.054688 5.410156 10.109375 5.601562 10.195312 C 5.785156 10.277344 5.992188 10.324219 6.207031 10.324219 C 6.425781 10.324219 6.632812 10.277344 6.816406 10.195312 C 7.007812 10.109375 7.222656 10.054688 7.445312 10.054688 C 7.667969 10.054688 7.882812 10.109375 8.070312 10.195312 C 8.257812 10.277344 8.464844 10.324219 8.679688 10.324219 C 8.898438 10.324219 9.105469 10.277344 9.289062 10.195312 C 9.480469 10.109375 9.695312 10.054688 9.917969 10.054688 C 10.140625 10.054688 10.355469 10.109375 10.542969 10.195312 C 10.730469 10.277344 10.9375 10.324219 11.152344 10.324219 Z M 11.152344 11.242188 "/>
<path style=" stroke:none;fill-rule:nonzero;fill:rgb(100%,100%,100%);fill-opacity:1;" d="M 4.957031 8.671875 L 3.242188 8.671875 C 2.988281 8.671875 2.769531 8.519531 2.671875 8.304688 L 2.039062 6.859375 C 2.023438 6.808594 2.019531 6.761719 2.019531 6.710938 C 2.019531 6.363281 2.300781 6.082031 2.644531 6.082031 L 4.039062 6.078125 L 4.992188 5.644531 C 5.007812 5.632812 5.046875 5.625 5.089844 5.625 C 5.253906 5.625 5.386719 5.757812 5.386719 5.921875 C 5.386719 6.023438 5.335938 6.113281 5.257812 6.167969 L 4.21875 6.636719 C 4.148438 6.691406 4.019531 6.699219 4.019531 6.699219 L 3.394531 6.699219 L 3.917969 7.863281 L 5.078125 7.863281 C 5.191406 7.863281 5.273438 7.902344 5.34375 7.964844 L 6.476562 9.042969 C 6.636719 9.191406 6.644531 9.4375 6.5 9.597656 C 6.347656 9.757812 6.101562 9.765625 5.941406 9.617188 Z M 4.957031 8.671875 "/>
<path style=" stroke:none;fill-rule:nonzero;fill:rgb(100%,100%,100%);fill-opacity:1;" d="M 10.296875 6.710938 C 10.320312 6.75 10.375 6.765625 10.421875 6.765625 C 10.519531 6.765625 10.597656 6.683594 10.597656 6.585938 C 10.597656 6.539062 10.574219 6.5 10.554688 6.457031 C 9.484375 4.414062 6.589844 5.023438 6.234375 5.15625 C 6.175781 5.179688 6.140625 5.242188 6.140625 5.308594 C 6.140625 5.40625 6.222656 5.484375 6.316406 5.484375 C 6.347656 5.484375 6.363281 5.484375 6.386719 5.476562 C 9.222656 4.839844 10.148438 6.453125 10.296875 6.710938 Z M 10.792969 6.898438 L 7.164062 9.183594 L 3.859375 0.75 C 6.816406 1.140625 10.574219 3.4375 10.792969 6.898438 Z M 10.792969 6.898438 "/>
<path style=" stroke:none;fill-rule:nonzero;fill:rgb(100%,100%,100%);fill-opacity:1;" d="M 2.320312 5.953125 C 2.652344 5.953125 2.921875 5.6875 2.921875 5.355469 C 2.921875 5.023438 2.652344 4.757812 2.320312 4.757812 C 1.992188 4.757812 1.722656 5.023438 1.722656 5.355469 C 1.722656 5.6875 1.992188 5.953125 2.320312 5.953125 Z M 2.320312 5.953125 "/>
</g>
</svg>
