<?xml version="1.0" encoding="UTF-8"?>
<svg xmlns="http://www.w3.org/2000/svg" xmlns:xlink="http://www.w3.org/1999/xlink" width="32" height="32" viewBox="0 0 32 32">
<path fill="none" stroke-width="27.500999" stroke-linecap="round" stroke-linejoin="round" stroke="rgb(100%, 100%, 100%)" stroke-opacity="1" stroke-miterlimit="4" d="M 539.431152 383.669434 L 387.988281 383.032227 L 69.384766 473.586426 L 538.935547 475.356445 Z M 539.431152 383.669434 " transform="matrix(0.0551724, 0, 0, 0.0551724, 0, 0)"/>
<path fill-rule="nonzero" fill="rgb(100%, 100%, 100%)" fill-opacity="1" d="M 24.414062 18.03125 C 25.753906 17.707031 26.582031 16.359375 26.257812 15.019531 C 25.933594 13.679688 24.585938 12.851562 23.246094 13.175781 C 21.90625 13.5 21.078125 14.847656 21.402344 16.1875 C 21.726562 17.527344 23.074219 18.351562 24.414062 18.03125 Z M 24.414062 18.03125 "/>
<path fill-rule="nonzero" fill="rgb(100%, 100%, 100%)" fill-opacity="1" d="M 10.691406 21.332031 C 12.035156 21.011719 12.859375 19.660156 12.535156 18.320312 C 12.214844 16.980469 10.867188 16.15625 9.523438 16.476562 C 8.183594 16.800781 7.359375 18.148438 7.679688 19.488281 C 8.003906 20.828125 9.351562 21.65625 10.691406 21.332031 Z M 10.691406 21.332031 "/>
<path fill-rule="nonzero" fill="rgb(100%, 100%, 100%)" fill-opacity="1" d="M 23.9375 9.09375 C 21.761719 9.15625 20.664062 7.550781 18.285156 6.484375 C 17.894531 6.246094 17.183594 6.082031 16.550781 6.234375 L 9.164062 8.011719 C 8.527344 8.164062 8.078125 8.605469 8.046875 8.949219 C 8.046875 8.949219 6.542969 11.046875 5.953125 12.304688 C 5.46875 13.539062 5.46875 13.539062 4.519531 13.765625 C 3.882812 13.917969 2.828125 14.171875 2.828125 14.171875 C 2.195312 14.324219 1.875 14.847656 2.027344 15.484375 L 2.867188 18.972656 C 3.019531 19.605469 3.542969 19.925781 4.175781 19.773438 L 6.289062 19.265625 C 6.066406 17.421875 7.292969 15.5625 9.195312 15.105469 C 11.09375 14.648438 13.035156 15.746094 13.675781 17.488281 L 20.007812 15.964844 C 19.789062 14.121094 21.015625 12.261719 22.914062 11.804688 C 24.816406 11.347656 26.730469 12.335938 27.398438 14.1875 L 29.507812 13.679688 C 30.140625 13.527344 30.460938 13.003906 30.308594 12.371094 L 29.984375 11.023438 C 29.730469 9.96875 28.558594 8.9375 23.9375 9.09375 Z M 7.894531 12.953125 L 9.617188 10.359375 C 9.617188 10.359375 9.882812 10.070312 9.988281 10.046875 L 12.835938 9.359375 L 13.382812 11.632812 Z M 15.496094 11.125 L 14.949219 8.851562 L 16.636719 8.445312 C 16.953125 8.371094 17.425781 8.480469 17.453125 8.585938 L 20.246094 9.980469 Z M 15.496094 11.125 "/>
<path fill-rule="nonzero" fill="rgb(100%, 100%, 100%)" fill-opacity="1" d="M 30.289062 21.214844 L 27.722656 21.214844 L 27.722656 25.902344 L 30.289062 25.902344 Z M 30.289062 21.214844 "/>
<path fill-rule="nonzero" fill="rgb(100%, 100%, 100%)" fill-opacity="1" d="M 25.984375 21.1875 L 22.511719 21.1875 L 22.511719 25.875 L 25.984375 25.875 Z M 25.984375 21.1875 "/>
<path fill-rule="nonzero" fill="rgb(100%, 100%, 100%)" fill-opacity="1" d="M 20.550781 21.875 L 17.074219 21.875 L 17.074219 25.847656 L 20.550781 25.847656 Z M 20.550781 21.875 "/>
<path fill-rule="nonzero" fill="rgb(100%, 100%, 100%)" fill-opacity="1" d="M 15.117188 23.253906 L 11.640625 23.253906 L 11.640625 26.179688 L 15.117188 26.179688 Z M 15.117188 23.253906 "/>
</svg>
