<?xml version="1.0" encoding="UTF-8"?>
<svg xmlns="http://www.w3.org/2000/svg" xmlns:xlink="http://www.w3.org/1999/xlink" width="12" height="12" viewBox="0 0 12 12" version="1.1">
<g id="surface1">
<path style=" stroke:none;fill-rule:nonzero;fill:rgb(100%,100%,100%);fill-opacity:1;" d="M 6.761719 2.054688 L 5.238281 2.054688 L 5.238281 10.789062 L 6.761719 10.789062 Z M 6.761719 2.054688 "/>
<path style=" stroke:none;fill-rule:evenodd;fill:rgb(100%,100%,100%);fill-opacity:1;" d="M 1.039062 1.664062 L 4 1.664062 C 4 1.664062 4.570312 0.625 5.953125 0.613281 C 7.335938 0.605469 7.96875 1.664062 7.96875 1.664062 L 10.960938 1.664062 L 10.625 2.875 L 1.375 2.875 Z M 1.039062 1.664062 "/>
<path style="fill:none;stroke-width:20;stroke-linecap:round;stroke-linejoin:round;stroke:rgb(100%,100%,100%);stroke-opacity:1;stroke-miterlimit:4;" d="M 97.044271 123.28776 L 42.291667 321.152344 " transform="matrix(0.0206897,0,0,0.0206897,0,0)"/>
<path style=" stroke:none;fill-rule:nonzero;fill:rgb(100%,100%,100%);fill-opacity:1;" d="M 0.699219 5.8125 L 0.433594 6.753906 L 1.164062 6.953125 L 1.429688 6.015625 Z M 0.699219 5.8125 "/>
<path style="fill:none;stroke-width:20;stroke-linecap:round;stroke-linejoin:round;stroke:rgb(100%,100%,100%);stroke-opacity:1;stroke-miterlimit:4;" d="M 185.026042 138.580729 L 157.64974 342.298177 " transform="matrix(0.0206897,0,0,0.0206897,0,0)"/>
<path style=" stroke:none;fill-rule:nonzero;fill:rgb(100%,100%,100%);fill-opacity:1;" d="M 2.976562 6.28125 L 2.839844 7.246094 L 3.589844 7.347656 L 3.726562 6.382812 Z M 2.976562 6.28125 "/>
<path style="fill:none;stroke-width:20;stroke-linecap:round;stroke-linejoin:round;stroke:rgb(100%,100%,100%);stroke-opacity:1;stroke-miterlimit:4;" d="M 487.298177 125.364583 L 542.050781 323.417969 " transform="matrix(0.0206897,0,0,0.0206897,0,0)"/>
<path style=" stroke:none;fill-rule:nonzero;fill:rgb(100%,100%,100%);fill-opacity:1;" d="M 11.390625 5.859375 L 11.660156 6.796875 L 10.929688 6.996094 L 10.660156 6.058594 Z M 11.390625 5.859375 "/>
<path style="fill:none;stroke-width:20;stroke-linecap:round;stroke-linejoin:round;stroke:rgb(100%,100%,100%);stroke-opacity:1;stroke-miterlimit:4;" d="M 399.505208 140.846354 L 426.692708 344.375 " transform="matrix(0.0206897,0,0,0.0206897,0,0)"/>
<path style=" stroke:none;fill-rule:nonzero;fill:rgb(100%,100%,100%);fill-opacity:1;" d="M 9.117188 6.324219 L 9.253906 7.292969 L 8.5 7.390625 L 8.363281 6.425781 Z M 9.117188 6.324219 "/>
<path style=" stroke:none;fill-rule:evenodd;fill:rgb(100%,100%,100%);fill-opacity:1;" d="M 6.039062 9.921875 C 5.527344 9.921875 4.816406 10.117188 4.410156 10.792969 C 5.480469 10.792969 6.550781 10.792969 7.621094 10.792969 C 7.160156 10.117188 6.550781 9.921875 6.039062 9.921875 Z M 6.039062 9.921875 "/>
</g>
</svg>
