<?xml version="1.0" encoding="UTF-8"?>
<svg xmlns="http://www.w3.org/2000/svg" xmlns:xlink="http://www.w3.org/1999/xlink" width="12" height="12" viewBox="0 0 12 12" version="1.1">
<defs>
<filter id="alpha" filterUnits="objectBoundingBox" x="0%" y="0%" width="100%" height="100%">
  <feColorMatrix type="matrix" in="SourceGraphic" values="0 0 0 0 1 0 0 0 0 1 0 0 0 0 1 0 0 0 1 0"/>
</filter>
<mask id="mask0">
  <g filter="url(#alpha)">
<rect x="0" y="0" width="12" height="12" style="fill:rgb(0%,0%,0%);fill-opacity:0.75;stroke:none;"/>
  </g>
</mask>
<clipPath id="clip1">
  <rect x="0" y="0" width="12" height="12"/>
</clipPath>
<g id="surface5" clip-path="url(#clip1)">
<path style=" stroke:none;fill-rule:nonzero;fill:rgb(100%,100%,100%);fill-opacity:1;" d="M 7.183594 0.835938 C 6.960938 0.839844 6.824219 1.066406 6.863281 1.273438 C 6.863281 1.535156 6.863281 2.210938 6.863281 2.46875 C 7.121094 2.46875 7.378906 2.464844 7.640625 2.464844 C 7.644531 2.160156 7.628906 1.851562 7.648438 1.550781 C 7.671875 1.433594 7.835938 1.425781 7.894531 1.527344 C 8.605469 2.089844 9.308594 2.667969 10.015625 3.230469 C 10.117188 3.285156 10.246094 3.417969 10.152344 3.539062 C 9.414062 4.136719 8.671875 4.734375 7.933594 5.332031 C 7.863281 5.421875 7.71875 5.507812 7.621094 5.402344 C 7.578125 5.074219 7.609375 4.746094 7.601562 4.414062 C 7.355469 4.414062 7.109375 4.414062 6.863281 4.414062 C 6.863281 6.6875 6.855469 8.550781 6.867188 10.820312 C 6.890625 11.027344 7.109375 11.140625 7.304688 11.105469 C 8.5 11.101562 9.695312 11.113281 10.890625 11.101562 C 11.089844 11.066406 11.195312 10.855469 11.160156 10.667969 C 11.160156 7.488281 11.164062 4.3125 11.160156 1.136719 C 11.144531 0.921875 10.921875 0.796875 10.722656 0.832031 C 9.542969 0.832031 8.363281 0.832031 7.183594 0.835938 Z M 7.183594 0.835938 "/>
</g>
</defs>
<g id="surface1">
<use xlink:href="#surface5" mask="url(#mask0)"/>
<path style="fill-rule:nonzero;fill:rgb(100%,100%,100%);fill-opacity:1;stroke-width:10;stroke-linecap:round;stroke-linejoin:round;stroke:rgb(100%,100%,100%);stroke-opacity:1;stroke-miterlimit:4;" d="M 389.309896 136.692708 C 387.233073 141.223958 377.415365 137.636719 372.317708 138.958333 C 342.675781 139.147135 312.845052 139.52474 283.203125 139.902344 C 283.203125 157.64974 283.203125 175.585938 283.203125 193.522135 C 317.942708 193.522135 352.682292 193.522135 387.421875 193.522135 C 387.421875 205.227865 387.421875 217.122396 387.421875 228.828125 C 413.098958 208.059896 438.964844 187.102865 464.641927 166.334635 C 439.53125 146.132812 414.420573 125.742188 389.309896 105.540365 C 389.309896 115.924479 389.309896 126.308594 389.309896 136.692708 Z M 389.309896 136.692708 " transform="matrix(0.0206897,0,0,0.0206897,0,0)"/>
<path style="fill-rule:nonzero;fill:rgb(100%,100%,100%);fill-opacity:1;stroke-width:10;stroke-linecap:round;stroke-linejoin:round;stroke:rgb(100%,100%,100%);stroke-opacity:1;stroke-miterlimit:4;" d="M 181.816406 392.708333 C 152.552083 416.119792 123.28776 439.720052 94.023438 463.320312 C 124.986979 488.43099 155.950521 513.541667 186.914062 538.463542 C 186.914062 524.492188 186.914062 510.520833 186.914062 496.549479 C 221.653646 496.549479 256.393229 496.549479 290.94401 496.549479 C 290.94401 474.648438 290.94401 452.747396 290.94401 431.035156 C 255.638021 430.46875 220.332031 430.279948 185.026042 429.902344 C 185.026042 416.497396 185.026042 403.28125 185.026042 390.065104 C 183.893229 390.820312 182.949219 391.764323 181.816406 392.708333 Z M 181.816406 392.708333 " transform="matrix(0.0206897,0,0,0.0206897,0,0)"/>
<path style=" stroke:none;fill-rule:nonzero;fill:rgb(100%,100%,100%);fill-opacity:1;" d="M 2.976562 1.074219 C 1.679688 1.109375 0.636719 2.171875 0.636719 3.480469 C 0.636719 4.808594 1.710938 5.886719 3.039062 5.886719 C 4.367188 5.886719 5.445312 4.808594 5.445312 3.480469 C 5.445312 2.152344 4.367188 1.074219 3.039062 1.074219 C 3.019531 1.074219 3 1.074219 2.976562 1.074219 Z M 3.003906 1.699219 C 3.246094 1.699219 3.441406 1.726562 3.582031 1.78125 C 3.726562 1.835938 3.84375 1.929688 3.945312 2.054688 C 4.042969 2.183594 4.109375 2.335938 4.148438 2.515625 L 3.335938 2.644531 C 3.292969 2.492188 3.246094 2.390625 3.191406 2.339844 C 3.140625 2.292969 3.078125 2.265625 3.011719 2.265625 C 2.929688 2.265625 2.863281 2.292969 2.8125 2.347656 C 2.761719 2.402344 2.734375 2.476562 2.734375 2.578125 C 2.734375 2.628906 2.738281 2.679688 2.75 2.730469 C 2.757812 2.777344 2.792969 2.894531 2.851562 3.074219 L 3.496094 3.074219 L 3.496094 3.585938 L 2.925781 3.585938 C 2.917969 3.703125 2.898438 3.8125 2.859375 3.910156 C 2.832031 3.984375 2.78125 4.058594 2.710938 4.140625 C 2.792969 4.121094 2.859375 4.113281 2.917969 4.113281 C 2.988281 4.113281 3.082031 4.125 3.199219 4.15625 C 3.359375 4.191406 3.484375 4.210938 3.578125 4.210938 C 3.65625 4.210938 3.726562 4.203125 3.78125 4.1875 C 3.839844 4.175781 3.914062 4.148438 4.007812 4.105469 L 4.300781 4.738281 C 4.160156 4.808594 4.035156 4.859375 3.929688 4.886719 C 3.824219 4.914062 3.707031 4.925781 3.585938 4.925781 C 3.453125 4.925781 3.300781 4.902344 3.128906 4.855469 C 2.902344 4.792969 2.761719 4.757812 2.710938 4.746094 C 2.65625 4.738281 2.597656 4.734375 2.535156 4.734375 C 2.351562 4.734375 2.148438 4.796875 1.929688 4.925781 L 1.652344 4.320312 C 1.953125 4.109375 2.101562 3.894531 2.101562 3.679688 C 2.101562 3.667969 2.097656 3.636719 2.097656 3.585938 L 1.652344 3.585938 L 1.652344 3.074219 L 1.972656 3.074219 C 1.917969 2.886719 1.886719 2.78125 1.878906 2.75 C 1.871094 2.703125 1.867188 2.648438 1.867188 2.582031 C 1.867188 2.40625 1.914062 2.246094 2.007812 2.105469 C 2.101562 1.960938 2.226562 1.859375 2.382812 1.796875 C 2.535156 1.734375 2.742188 1.699219 3.003906 1.699219 Z M 3.003906 1.699219 "/>
</g>
</svg>
