<?xml version="1.0" encoding="UTF-8"?>
<svg xmlns="http://www.w3.org/2000/svg" xmlns:xlink="http://www.w3.org/1999/xlink" width="12" height="12" viewBox="0 0 12 12" version="1.1">
<g id="surface1">
<path style=" stroke:none;fill-rule:nonzero;fill:rgb(33.333334%,33.333334%,33.333334%);fill-opacity:1;" d="M 4.453125 7.308594 L 3.167969 5.066406 L 0.578125 5.066406 L 1.628906 5.675781 L 0.980469 6.796875 C 0.925781 6.898438 0.894531 7.003906 0.894531 7.117188 C 0.894531 7.226562 0.925781 7.332031 0.980469 7.433594 L 2.003906 9.21875 C 2.050781 9.089844 2.097656 8.980469 2.140625 8.886719 L 3.417969 6.699219 Z M 2.53125 9.109375 C 2.457031 9.230469 2.417969 9.359375 2.417969 9.496094 C 2.417969 9.710938 2.496094 9.890625 2.648438 10.035156 C 2.800781 10.183594 2.980469 10.257812 3.195312 10.257812 L 5.742188 10.257812 L 5.742188 8.195312 L 3.054688 8.195312 C 3.039062 8.230469 2.96875 8.351562 2.847656 8.554688 Z M 5.976562 4 L 8.554688 4 L 9.855469 1.757812 L 8.800781 2.367188 L 8.152344 1.246094 C 8.03125 1.03125 7.847656 0.925781 7.597656 0.925781 L 5.546875 0.925781 C 5.632812 1.019531 5.699219 1.109375 5.757812 1.203125 L 7.015625 3.390625 L 6.808594 3.515625 Z M 4.71875 1.039062 C 4.421875 1.039062 4.199219 1.167969 4.054688 1.425781 L 2.765625 3.640625 C 3.253906 3.925781 3.851562 4.269531 4.550781 4.664062 C 4.96875 3.953125 5.414062 3.179688 5.894531 2.339844 L 5.382812 1.425781 C 5.234375 1.167969 5.011719 1.039062 4.71875 1.039062 Z M 8.027344 8.167969 L 8.027344 6.964844 L 6.738281 9.207031 L 8.027344 11.433594 L 8.027344 10.230469 L 9.3125 10.230469 C 9.5625 10.230469 9.753906 10.125 9.882812 9.910156 L 10.90625 8.125 C 10.769531 8.164062 10.652344 8.179688 10.558594 8.179688 Z M 9.9375 4.375 C 9.890625 4.402344 9.296875 4.742188 8.152344 5.398438 C 8.722656 6.386719 9.175781 7.167969 9.507812 7.738281 L 10.546875 7.738281 C 10.851562 7.738281 11.078125 7.609375 11.226562 7.351562 C 11.363281 7.101562 11.359375 6.847656 11.210938 6.589844 Z M 9.9375 4.375 "/>
</g>
</svg>
