<?xml version="1.0" encoding="UTF-8"?>
<svg xmlns="http://www.w3.org/2000/svg" xmlns:xlink="http://www.w3.org/1999/xlink" width="32" height="32" viewBox="0 0 32 32">
<defs>
<filter id="filter-remove-color" x="0%" y="0%" width="100%" height="100%">
<feColorMatrix color-interpolation-filters="sRGB" values="0 0 0 0 1 0 0 0 0 1 0 0 0 0 1 0 0 0 1 0" />
</filter>
<mask id="mask-0">
<g filter="url(#filter-remove-color)">
<rect x="-3.2" y="-3.2" width="38.4" height="38.4" fill="rgb(0%, 0%, 0%)" fill-opacity="0.2"/>
</g>
</mask>
<clipPath id="clip-0">
<rect x="0" y="0" width="32" height="32"/>
</clipPath>
<g id="source-13" clip-path="url(#clip-0)">
<path fill-rule="evenodd" fill="rgb(24.705882%, 24.705882%, 24.705882%)" fill-opacity="1" stroke-width="19.5152" stroke-linecap="round" stroke-linejoin="round" stroke="rgb(24.705882%, 24.705882%, 24.705882%)" stroke-opacity="1" stroke-miterlimit="4" d="M 37.17041 370.712891 C 37.028809 369.72168 106.342773 394.926758 106.342773 394.926758 L 62.871094 426.85791 L 118.73291 462.470703 L 64.499512 478.613281 L 120.219727 513.518066 L 172.541504 498.579102 L 185.852051 519.748535 L 240.368652 537.590332 L 332.763672 531.359863 L 390.324707 513.588867 L 461.196289 521.872559 L 476.914062 506.083984 L 508.774414 501.906738 L 542.82959 473.657227 L 505.163574 420.910645 L 381.191406 374.111328 L 508.774414 345.861816 L 452.912598 331.772461 L 357.260742 332.480469 L 249.926758 342.180176 L 178.842773 339.914551 L 153.496094 352.587891 C 153.496094 352.587891 59.331055 367.810059 37.17041 370.712891 Z M 37.17041 370.712891 " transform="matrix(0.0551724, 0, 0, 0.0551724, 0, 0)"/>
</g>
</defs>
<path fill-rule="evenodd" fill="rgb(24.705882%, 24.705882%, 24.705882%)" fill-opacity="1" stroke-width="15.4835" stroke-linecap="round" stroke-linejoin="round" stroke="rgb(24.705882%, 24.705882%, 24.705882%)" stroke-opacity="1" stroke-miterlimit="4" d="M 260.334473 38.586426 L 298.071289 38.586426 L 298.071289 451.921387 L 260.688477 451.921387 Z M 260.334473 38.586426 " transform="matrix(0.0551724, 0, 0, 0.0551724, 0, 0)"/>
<path fill-rule="evenodd" fill="rgb(24.705882%, 24.705882%, 24.705882%)" fill-opacity="1" stroke-width="15.5688" stroke-linecap="round" stroke-linejoin="round" stroke="rgb(24.705882%, 24.705882%, 24.705882%)" stroke-opacity="1" stroke-miterlimit="4" d="M 445.478516 183.798828 L 420.48584 202.348633 L 273.361816 174.02832 L 274.282227 132.893066 L 419.777832 151.796875 Z M 445.478516 183.798828 " transform="matrix(0.0551724, 0, 0, 0.0551724, 0, 0)"/>
<path fill-rule="evenodd" fill="rgb(24.705882%, 24.705882%, 24.705882%)" fill-opacity="1" stroke-width="15.5688" stroke-linecap="round" stroke-linejoin="round" stroke="rgb(24.705882%, 24.705882%, 24.705882%)" stroke-opacity="1" stroke-miterlimit="4" d="M 103.510742 212.331543 L 131.618652 228.261719 L 278.742676 181.108398 L 280.512695 138.203125 L 132.255859 177.709961 Z M 103.510742 212.331543 " transform="matrix(0.0551724, 0, 0, 0.0551724, 0, 0)"/>
<path fill-rule="evenodd" fill="rgb(24.705882%, 24.705882%, 24.705882%)" fill-opacity="1" stroke-width="14.9316" stroke-linecap="round" stroke-linejoin="round" stroke="rgb(24.705882%, 24.705882%, 24.705882%)" stroke-opacity="1" stroke-miterlimit="4" d="M 403.139648 67.189941 L 385.722656 97.138672 L 264.016113 129.990234 L 254.953613 88.146973 L 385.15625 54.375 Z M 403.139648 67.189941 " transform="matrix(0.0551724, 0, 0, 0.0551724, 0, 0)"/>
<path fill-rule="evenodd" fill="rgb(24.705882%, 24.705882%, 24.705882%)" fill-opacity="1" stroke-width="14.9316" stroke-linecap="round" stroke-linejoin="round" stroke="rgb(24.705882%, 24.705882%, 24.705882%)" stroke-opacity="1" stroke-miterlimit="4" d="M 153.920898 72.924805 L 171.26709 102.802734 L 292.973633 135.654297 L 302.036133 93.881836 L 171.904297 60.109863 Z M 153.920898 72.924805 " transform="matrix(0.0551724, 0, 0, 0.0551724, 0, 0)"/>
<path fill="none" stroke-width="19.5152" stroke-linecap="round" stroke-linejoin="round" stroke="rgb(24.705882%, 24.705882%, 24.705882%)" stroke-opacity="1" stroke-miterlimit="4" d="M 37.17041 370.712891 C 37.028809 369.72168 106.342773 394.926758 106.342773 394.926758 L 62.871094 426.85791 L 118.73291 462.470703 L 64.499512 478.613281 L 120.219727 513.518066 L 172.541504 498.579102 L 185.852051 519.748535 L 240.368652 537.590332 L 332.763672 531.359863 L 390.324707 513.588867 L 461.196289 521.872559 L 476.914062 506.083984 L 508.774414 501.906738 L 542.82959 473.657227 L 505.163574 420.910645 L 381.191406 374.111328 L 508.774414 345.861816 L 452.912598 331.772461 L 357.260742 332.480469 L 249.926758 342.180176 L 178.842773 339.914551 L 153.496094 352.587891 C 153.496094 352.587891 59.331055 367.810059 37.17041 370.712891 Z M 37.17041 370.712891 " transform="matrix(0.0551724, 0, 0, 0.0551724, 0, 0)"/>
<g mask="url(#mask-0)">
<use xlink:href="#source-13"/>
</g>
</svg>
