<svg width="12" height="12" viewBox="0 0 580 580" fill="none" xmlns="http://www.w3.org/2000/svg">
<path d="M505.771 76.3984L474.632 186.255H316.031L354.216 489.366H484.025L522.802 186.255H493.437L523.985 81.6869L505.771 76.3984ZM297.225 363.07C300.356 335.654 279.603 320.774 234.965 318.432H127.456C82.8179 320.774 61.8671 335.654 64.6041 363.07H297.225ZM64.6041 445.319C61.8671 472.724 82.8179 487.406 127.456 489.366H234.965C279.603 487.406 300.356 472.724 297.225 445.319H64.6041ZM287.24 384.224H73.9978C68.5241 384.224 63.8272 386.181 59.9072 390.095C55.9871 394.009 54.0271 398.512 54.0271 403.603C54.0271 409.483 55.9871 414.282 59.9072 417.998C63.8272 421.715 68.5241 423.574 73.9978 423.574H287.24C292.725 423.574 297.425 421.715 301.34 417.998C305.253 414.282 307.211 409.483 307.211 403.603C307.211 398.512 305.253 394.009 301.34 390.095C297.425 386.181 292.725 384.224 287.24 384.224Z" fill="#ffffff"/>
</svg>
