<?xml version="1.0" encoding="UTF-8"?>
<svg xmlns="http://www.w3.org/2000/svg" xmlns:xlink="http://www.w3.org/1999/xlink" width="12" height="12" viewBox="0 0 12 12" version="1.1">
<g id="surface1">
<path style=" stroke:none;fill-rule:evenodd;fill:rgb(100%,100%,100%);fill-opacity:1;" d="M 3.53125 9.640625 C 2.78125 9.21875 2.324219 8.226562 2.660156 6.746094 C 2.898438 5.707031 3.589844 4.425781 3.058594 3.359375 C 3.703125 3.800781 4.371094 4.859375 5.042969 6.050781 C 5.089844 4.761719 4.421875 3.917969 4.902344 2.152344 C 5.234375 4.335938 6.558594 4.46875 7.230469 6.453125 C 7.515625 5.519531 8.109375 5.214844 7.820312 2.898438 C 10.742188 6.890625 9.078125 8.308594 8.492188 9.738281 L 8.683594 7.753906 C 7.765625 10.402344 7.03125 10.890625 6.367188 11.484375 C 6.738281 10.242188 6.882812 8.996094 6.132812 7.753906 C 5.949219 9.796875 5.433594 9.371094 5.328125 11.011719 C 4.296875 10.234375 4.082031 9.433594 3.898438 8.128906 C 3.757812 8.28125 3.519531 8.921875 3.53125 9.640625 Z M 3.53125 9.640625 "/>
<path style=" stroke:none;fill-rule:evenodd;fill:rgb(100%,100%,100%);fill-opacity:1;" d="M 5.671875 0.109375 C 4.90625 3.214844 6.300781 3.1875 7.074219 5.011719 C 7.617188 2.199219 5.996094 2.832031 5.671875 0.109375 Z M 5.671875 0.109375 "/>
</g>
</svg>
