<?xml version="1.0" encoding="UTF-8"?>
<svg xmlns="http://www.w3.org/2000/svg" xmlns:xlink="http://www.w3.org/1999/xlink" width="32" height="32" viewBox="0 0 32 32">
<path fill-rule="nonzero" fill="rgb(100%, 100%, 100%)" fill-opacity="1" d="M 24.445312 3.027344 C 23.175781 2.339844 17.53125 1.308594 10.371094 11.316406 C 2.828125 21.851562 5.804688 27.253906 7.011719 28.058594 L 11.910156 21.039062 C 10.929688 20.355469 11.476562 19.152344 12.785156 16.792969 C 13.652344 15.234375 14.867188 13.402344 16.308594 11.742188 C 17.320312 10.578125 18.410156 9.515625 19.433594 10.230469 Z M 24.445312 3.027344 "/>
<path fill-rule="nonzero" fill="rgb(100%, 100%, 100%)" fill-opacity="1" d="M 9.53125 29.832031 C 9.984375 30.148438 10.566406 30.007812 10.855469 29.59375 L 10.863281 29.589844 C 10.863281 29.589844 14.675781 24.117188 14.675781 24.113281 C 14.980469 23.679688 14.867188 23.089844 14.4375 22.792969 L 12.449219 21.40625 L 7.542969 28.445312 C 7.542969 28.445312 9.523438 29.832031 9.527344 29.832031 Z M 9.53125 29.832031 "/>
<path fill-rule="nonzero" fill="rgb(100%, 100%, 100%)" fill-opacity="1" d="M 21.96875 11.996094 C 22.421875 12.3125 23.003906 12.167969 23.292969 11.753906 L 23.300781 11.753906 C 23.300781 11.753906 27.222656 6.121094 27.222656 6.117188 C 27.527344 5.683594 27.414062 5.097656 26.984375 4.796875 L 24.996094 3.410156 L 19.976562 10.609375 C 19.976562 10.609375 21.960938 11.996094 21.964844 11.996094 Z M 21.96875 11.996094 "/>
</svg>
