<?xml version="1.0" encoding="UTF-8"?>
<svg xmlns="http://www.w3.org/2000/svg" xmlns:xlink="http://www.w3.org/1999/xlink" width="12" height="12" viewBox="0 0 12 12" version="1.1">
<defs>
<filter id="alpha" filterUnits="objectBoundingBox" x="0%" y="0%" width="100%" height="100%">
  <feColorMatrix type="matrix" in="SourceGraphic" values="0 0 0 0 1 0 0 0 0 1 0 0 0 0 1 0 0 0 1 0"/>
</filter>
<mask id="mask0">
  <g filter="url(#alpha)">
<rect x="0" y="0" width="12" height="12" style="fill:rgb(0%,0%,0%);fill-opacity:0.2;stroke:none;"/>
  </g>
</mask>
<clipPath id="clip1">
  <rect x="0" y="0" width="12" height="12"/>
</clipPath>
<g id="surface5" clip-path="url(#clip1)">
<path style="fill-rule:evenodd;fill:rgb(24.705882%,24.705882%,24.705882%);fill-opacity:1;stroke-width:19.5152;stroke-linecap:round;stroke-linejoin:round;stroke:rgb(24.705882%,24.705882%,24.705882%);stroke-opacity:1;stroke-miterlimit:4;" d="M 37.19401 370.807292 C 37.005208 369.674479 106.295573 394.973958 106.295573 394.973958 L 62.871094 426.88151 L 118.75651 462.565104 L 64.38151 478.613281 L 120.266927 513.541667 L 172.565104 498.626302 L 185.970052 519.772135 L 240.345052 537.708333 L 332.858073 531.289062 L 390.253906 513.541667 L 461.24349 521.848958 L 476.914062 505.989583 L 508.821615 501.835938 L 542.80599 473.704427 L 505.234375 420.839844 L 381.191406 374.016927 L 508.821615 345.885417 L 452.936198 331.72526 L 357.213542 332.480469 L 249.973958 342.109375 L 178.795573 339.84375 L 153.496094 352.49349 C 153.496094 352.49349 59.283854 367.786458 37.19401 370.807292 Z M 37.19401 370.807292 " transform="matrix(0.0206897,0,0,0.0206897,0,0)"/>
</g>
</defs>
<g id="surface1">
<path style="fill-rule:evenodd;fill:rgb(24.705882%,24.705882%,24.705882%);fill-opacity:1;stroke-width:15.4835;stroke-linecap:round;stroke-linejoin:round;stroke:rgb(24.705882%,24.705882%,24.705882%);stroke-opacity:1;stroke-miterlimit:4;" d="M 260.358073 38.515625 L 298.11849 38.515625 L 298.11849 451.803385 L 260.735677 451.803385 Z M 260.358073 38.515625 " transform="matrix(0.0206897,0,0,0.0206897,0,0)"/>
<path style="fill-rule:evenodd;fill:rgb(24.705882%,24.705882%,24.705882%);fill-opacity:1;stroke-width:15.5688;stroke-linecap:round;stroke-linejoin:round;stroke:rgb(24.705882%,24.705882%,24.705882%);stroke-opacity:1;stroke-miterlimit:4;" d="M 445.572917 183.704427 L 420.46224 202.395833 L 273.385417 174.075521 L 274.329427 132.916667 L 419.895833 151.796875 Z M 445.572917 183.704427 " transform="matrix(0.0206897,0,0,0.0206897,0,0)"/>
<path style="fill-rule:evenodd;fill:rgb(24.705882%,24.705882%,24.705882%);fill-opacity:1;stroke-width:15.5688;stroke-linecap:round;stroke-linejoin:round;stroke:rgb(24.705882%,24.705882%,24.705882%);stroke-opacity:1;stroke-miterlimit:4;" d="M 103.463542 212.402344 L 131.595052 228.261719 L 278.671875 181.061198 L 280.559896 138.203125 L 132.35026 177.66276 Z M 103.463542 212.402344 " transform="matrix(0.0206897,0,0,0.0206897,0,0)"/>
<path style="fill-rule:evenodd;fill:rgb(24.705882%,24.705882%,24.705882%);fill-opacity:1;stroke-width:14.9316;stroke-linecap:round;stroke-linejoin:round;stroke:rgb(24.705882%,24.705882%,24.705882%);stroke-opacity:1;stroke-miterlimit:4;" d="M 403.092448 67.213542 L 385.722656 97.044271 L 264.134115 129.895833 L 255.071615 88.170573 L 385.15625 54.375 Z M 403.092448 67.213542 " transform="matrix(0.0206897,0,0,0.0206897,0,0)"/>
<path style="fill-rule:evenodd;fill:rgb(24.705882%,24.705882%,24.705882%);fill-opacity:1;stroke-width:14.9316;stroke-linecap:round;stroke-linejoin:round;stroke:rgb(24.705882%,24.705882%,24.705882%);stroke-opacity:1;stroke-miterlimit:4;" d="M 153.873698 72.877604 L 171.24349 102.897135 L 293.020833 135.748698 L 302.083333 93.834635 L 171.809896 60.039062 Z M 153.873698 72.877604 " transform="matrix(0.0206897,0,0,0.0206897,0,0)"/>
<path style="fill:none;stroke-width:19.5152;stroke-linecap:round;stroke-linejoin:round;stroke:rgb(24.705882%,24.705882%,24.705882%);stroke-opacity:1;stroke-miterlimit:4;" d="M 37.19401 370.807292 C 37.005208 369.674479 106.295573 394.973958 106.295573 394.973958 L 62.871094 426.88151 L 118.75651 462.565104 L 64.38151 478.613281 L 120.266927 513.541667 L 172.565104 498.626302 L 185.970052 519.772135 L 240.345052 537.708333 L 332.858073 531.289062 L 390.253906 513.541667 L 461.24349 521.848958 L 476.914062 505.989583 L 508.821615 501.835938 L 542.80599 473.704427 L 505.234375 420.839844 L 381.191406 374.016927 L 508.821615 345.885417 L 452.936198 331.72526 L 357.213542 332.480469 L 249.973958 342.109375 L 178.795573 339.84375 L 153.496094 352.49349 C 153.496094 352.49349 59.283854 367.786458 37.19401 370.807292 Z M 37.19401 370.807292 " transform="matrix(0.0206897,0,0,0.0206897,0,0)"/>
<use xlink:href="#surface5" mask="url(#mask0)"/>
</g>
</svg>
