<?xml version="1.0" encoding="UTF-8"?>
<svg xmlns="http://www.w3.org/2000/svg" xmlns:xlink="http://www.w3.org/1999/xlink" width="12" height="12" viewBox="0 0 12 12" version="1.1">
<g id="surface1">
<path style=" stroke:none;fill-rule:nonzero;fill:rgb(100%,100%,100%);fill-opacity:1;" d="M 0.992188 8.875 L 0.992188 1.222656 L 3.878906 1.222656 C 4.386719 1.222656 4.773438 1.25 5.042969 1.296875 C 5.417969 1.359375 5.730469 1.480469 5.984375 1.65625 C 6.238281 1.832031 6.445312 2.078125 6.597656 2.394531 C 6.753906 2.710938 6.832031 3.058594 6.832031 3.4375 C 6.832031 4.089844 6.625 4.640625 6.210938 5.089844 C 5.796875 5.539062 5.046875 5.765625 3.964844 5.765625 L 2.003906 5.765625 L 2.003906 8.875 Z M 2.003906 4.863281 L 3.980469 4.863281 C 4.636719 4.863281 5.101562 4.742188 5.375 4.496094 C 5.648438 4.253906 5.789062 3.910156 5.789062 3.46875 C 5.789062 3.148438 5.707031 2.875 5.546875 2.648438 C 5.382812 2.417969 5.171875 2.269531 4.90625 2.195312 C 4.734375 2.148438 4.421875 2.128906 3.960938 2.128906 L 2.003906 2.128906 Z M 2.003906 4.863281 "/>
<path style=" stroke:none;fill-rule:nonzero;fill:rgb(100%,100%,100%);fill-opacity:1;" d="M 8.402344 5.710938 C 8.320312 5.390625 8.023438 5.148438 7.675781 5.148438 C 7.257812 5.148438 6.921875 5.484375 6.921875 5.902344 C 6.921875 5.972656 6.929688 6.035156 6.945312 6.097656 L 7.25 6.097656 C 7.273438 6.148438 7.296875 6.179688 7.296875 6.179688 C 7.386719 6.3125 7.539062 6.394531 7.710938 6.394531 C 7.988281 6.394531 8.214844 6.167969 8.214844 5.890625 C 8.214844 5.824219 8.234375 5.769531 8.207031 5.710938 Z M 8.402344 5.710938 "/>
<path style=" stroke:none;fill-rule:nonzero;fill:rgb(100%,100%,100%);fill-opacity:1;" d="M 8.382812 10.207031 C 8.304688 10.289062 8.195312 10.351562 8.070312 10.351562 L 8.070312 8.710938 L 9.203125 8.386719 L 9.488281 8.945312 Z M 8.382812 10.207031 "/>
<path style=" stroke:none;fill-rule:nonzero;fill:rgb(100%,100%,100%);fill-opacity:1;" d="M 7.429688 6.460938 C 7.355469 6.378906 7.25 6.324219 7.128906 6.324219 C 7 6.324219 6.882812 6.382812 6.808594 6.476562 L 5.910156 7.851562 C 5.871094 7.914062 5.851562 7.984375 5.851562 8.0625 C 5.851562 8.203125 5.921875 8.328125 6.03125 8.398438 L 7.238281 9.070312 L 7.238281 10.207031 C 7.238281 10.371094 7.371094 10.5 7.53125 10.5 C 7.691406 10.5 7.824219 10.371094 7.824219 10.207031 L 7.824219 8.785156 C 7.824219 8.785156 7.859375 8.558594 7.601562 8.433594 L 6.851562 8.042969 L 7.398438 7.203125 L 7.691406 7.660156 C 7.75 7.753906 7.828125 7.789062 7.898438 7.789062 L 8.644531 7.785156 C 8.949219 7.785156 8.949219 7.390625 8.644531 7.390625 L 8.039062 7.390625 Z M 7.429688 6.460938 "/>
<path style=" stroke:none;fill-rule:nonzero;fill:rgb(100%,100%,100%);fill-opacity:1;" d="M 10.738281 8.328125 C 10.75 8.339844 10.757812 8.355469 10.757812 8.375 C 10.757812 8.410156 10.726562 8.441406 10.691406 8.441406 C 10.683594 8.441406 10.675781 8.441406 10.667969 8.4375 C 10.539062 8.382812 10.457031 8.347656 10.304688 8.347656 C 10.207031 8.347656 10.085938 8.382812 9.941406 8.496094 L 9.8125 8.238281 C 9.976562 8.1875 10.109375 8.144531 10.25 8.144531 C 10.476562 8.144531 10.59375 8.191406 10.738281 8.328125 Z M 10.738281 8.328125 "/>
<path style=" stroke:none;fill-rule:nonzero;fill:rgb(100%,100%,100%);fill-opacity:1;" d="M 5.71875 8.527344 L 6.988281 9.226562 L 6.988281 9.507812 L 5.542969 8.710938 C 5.4375 8.65625 5.296875 8.625 5.199219 8.625 C 5.050781 8.625 4.964844 8.660156 4.835938 8.714844 C 4.828125 8.71875 4.820312 8.71875 4.8125 8.71875 C 4.777344 8.71875 4.746094 8.6875 4.746094 8.652344 C 4.746094 8.632812 4.753906 8.617188 4.765625 8.605469 C 4.914062 8.46875 5.0625 8.421875 5.285156 8.421875 C 5.402344 8.421875 5.539062 8.4375 5.71875 8.527344 Z M 5.71875 8.527344 "/>
<path style=" stroke:none;fill-rule:nonzero;fill:rgb(100%,100%,100%);fill-opacity:1;" d="M 5.839844 11.097656 C 6.25 11.097656 6.585938 10.761719 6.585938 10.347656 C 6.585938 9.9375 6.25 9.601562 5.839844 9.601562 C 5.425781 9.601562 5.089844 9.9375 5.089844 10.347656 C 5.089844 10.761719 5.425781 11.097656 5.839844 11.097656 Z M 4.761719 10.351562 C 4.761719 9.753906 5.242188 9.273438 5.839844 9.273438 C 6.433594 9.273438 6.917969 9.753906 6.917969 10.351562 C 6.917969 10.945312 6.433594 11.429688 5.839844 11.429688 C 5.242188 11.429688 4.761719 10.945312 4.761719 10.351562 Z M 4.761719 10.351562 "/>
<path style=" stroke:none;fill-rule:nonzero;fill:rgb(100%,100%,100%);fill-opacity:1;" d="M 10.296875 11.097656 C 10.707031 11.097656 11.042969 10.761719 11.042969 10.347656 C 11.042969 9.9375 10.710938 9.601562 10.296875 9.601562 C 9.882812 9.601562 9.550781 9.9375 9.550781 10.347656 C 9.550781 10.761719 9.882812 11.097656 10.296875 11.097656 Z M 9.21875 10.351562 C 9.21875 9.753906 9.699219 9.273438 10.296875 9.273438 C 10.890625 9.273438 11.375 9.753906 11.375 10.351562 C 11.375 10.945312 10.890625 11.429688 10.296875 11.429688 C 9.699219 11.429688 9.21875 10.945312 9.21875 10.351562 Z M 9.21875 10.351562 "/>
<path style=" stroke:none;fill-rule:nonzero;fill:rgb(100%,100%,100%);fill-opacity:1;" d="M 10.058594 9.117188 L 9.535156 8.070312 C 9.464844 7.945312 9.332031 7.859375 9.175781 7.859375 L 8.835938 7.859375 C 8.769531 7.859375 8.714844 7.914062 8.714844 7.980469 C 8.714844 8.046875 8.769531 8.101562 8.835938 8.101562 L 9.175781 8.101562 C 9.234375 8.101562 9.300781 8.140625 9.324219 8.195312 L 9.816406 9.199219 Z M 10.058594 9.117188 "/>
</g>
</svg>
