<?xml version="1.0" encoding="UTF-8"?>
<svg xmlns="http://www.w3.org/2000/svg" xmlns:xlink="http://www.w3.org/1999/xlink" width="12" height="12" viewBox="0 0 12 12" version="1.1">
<defs>
<filter id="alpha" filterUnits="objectBoundingBox" x="0%" y="0%" width="100%" height="100%">
  <feColorMatrix type="matrix" in="SourceGraphic" values="0 0 0 0 1 0 0 0 0 1 0 0 0 0 1 0 0 0 1 0"/>
</filter>
<mask id="mask0">
  <g filter="url(#alpha)">
<rect x="0" y="0" width="12" height="12" style="fill:rgb(0%,0%,0%);fill-opacity:0.5;stroke:none;"/>
  </g>
</mask>
<clipPath id="clip1">
  <rect x="0" y="0" width="12" height="12"/>
</clipPath>
<g id="surface5" clip-path="url(#clip1)">
<path style=" stroke:none;fill-rule:nonzero;fill:rgb(100%,100%,100%);fill-opacity:1;" d="M 7 3 L 2 3 L 2 8 L 7 8 Z M 7 3 "/>
<path style=" stroke:none;fill-rule:nonzero;fill:rgb(100%,100%,100%);fill-opacity:1;" d="M 10 3 L 8 3 L 8 4 L 10 4 Z M 10 3 "/>
</g>
</defs>
<g id="surface1">
<use xlink:href="#surface5" mask="url(#mask0)"/>
<path style=" stroke:none;fill-rule:nonzero;fill:rgb(100%,100%,100%);fill-opacity:1;" d="M 4.148438 4.855469 C 4 4.707031 3.777344 4.671875 3.589844 4.761719 L 3.222656 4.945312 C 2.976562 5.070312 2.675781 4.96875 2.554688 4.722656 C 2.429688 4.476562 2.53125 4.175781 2.777344 4.054688 L 3.144531 3.867188 C 3.714844 3.582031 4.402344 3.695312 4.855469 4.144531 C 5 4.292969 5.222656 4.328125 5.410156 4.238281 L 5.777344 4.054688 C 6.023438 3.929688 6.324219 4.03125 6.449219 4.277344 C 6.570312 4.523438 6.46875 4.824219 6.222656 4.945312 L 5.855469 5.132812 C 5.285156 5.417969 4.597656 5.304688 4.148438 4.855469 Z M 4.148438 4.855469 "/>
<path style=" stroke:none;fill-rule:nonzero;fill:rgb(100%,100%,100%);fill-opacity:1;" d="M 4.148438 6.855469 C 4 6.707031 3.777344 6.671875 3.589844 6.761719 L 3.222656 6.945312 C 2.976562 7.070312 2.675781 6.96875 2.554688 6.722656 C 2.429688 6.476562 2.53125 6.175781 2.777344 6.054688 L 3.144531 5.867188 C 3.714844 5.582031 4.402344 5.695312 4.855469 6.144531 C 5 6.292969 5.222656 6.328125 5.410156 6.238281 L 5.777344 6.054688 C 6.023438 5.929688 6.324219 6.03125 6.449219 6.277344 C 6.570312 6.523438 6.46875 6.824219 6.222656 6.945312 L 5.855469 7.132812 C 5.285156 7.417969 4.597656 7.304688 4.148438 6.855469 Z M 4.148438 6.855469 "/>
<path style=" stroke:none;fill-rule:evenodd;fill:rgb(100%,100%,100%);fill-opacity:1;" d="M 1.5 2 C 1.222656 2 1 2.222656 1 2.5 L 1 8.5 C 1 8.777344 1.222656 9 1.5 9 L 2 9 L 2 9.25 C 2 9.664062 2.335938 10 2.75 10 C 3.164062 10 3.5 9.664062 3.5 9.25 L 3.5 9 L 8.5 9 L 8.5 9.25 C 8.5 9.664062 8.835938 10 9.25 10 C 9.664062 10 10 9.664062 10 9.25 L 10 9 L 10.5 9 C 10.777344 9 11 8.777344 11 8.5 L 11 2.5 C 11 2.222656 10.777344 2 10.5 2 Z M 2 3 L 7 3 L 7 8 L 2 8 Z M 10 3 L 8 3 L 8 4 L 10 4 Z M 9 8 C 9.550781 8 10 7.550781 10 7 C 10 6.449219 9.550781 6 9 6 C 8.449219 6 8 6.449219 8 7 C 8 7.550781 8.449219 8 9 8 Z M 9 8 "/>
</g>
</svg>
