<?xml version="1.0" encoding="UTF-8"?>
<svg xmlns="http://www.w3.org/2000/svg" xmlns:xlink="http://www.w3.org/1999/xlink" width="32" height="32" viewBox="0 0 32 32">
<defs>
<filter id="filter-remove-color" x="0%" y="0%" width="100%" height="100%">
<feColorMatrix color-interpolation-filters="sRGB" values="0 0 0 0 1 0 0 0 0 1 0 0 0 0 1 0 0 0 1 0" />
</filter>
<mask id="mask-0">
<g filter="url(#filter-remove-color)">
<rect x="-3.2" y="-3.2" width="38.4" height="38.4" fill="rgb(0%, 0%, 0%)" fill-opacity="0.496094"/>
</g>
</mask>
<mask id="mask-1">
<g filter="url(#filter-remove-color)">
<rect x="-7.04" y="-7.04" width="46.08" height="46.08" fill="rgb(0%, 0%, 0%)" fill-opacity="0.496094"/>
</g>
</mask>
<clipPath id="clip-0">
<rect x="0" y="0" width="32" height="32"/>
</clipPath>
<g id="source-15" clip-path="url(#clip-0)">
<path fill-rule="nonzero" fill="rgb(100%, 100%, 100%)" fill-opacity="1" stroke-width="49.681599" stroke-linecap="round" stroke-linejoin="round" stroke="rgb(100%, 100%, 100%)" stroke-opacity="1" stroke-miterlimit="4" d="M 137.849121 123.901367 C 127.441406 124.396973 123.405762 139.406738 131.972656 145.070801 C 139.760742 151.584473 152.717285 143.725586 150.593262 133.742676 C 149.672852 127.724609 143.937988 123.26416 137.849121 123.901367 Z M 137.849121 123.901367 " transform="matrix(0.0551724, 0, 0, 0.0551724, 0, 0)"/>
</g>
<mask id="mask-2">
<g filter="url(#filter-remove-color)">
<rect x="-7.04" y="-7.04" width="46.08" height="46.08" fill="rgb(0%, 0%, 0%)" fill-opacity="0.496094"/>
</g>
</mask>
<clipPath id="clip-1">
<rect x="0" y="0" width="32" height="32"/>
</clipPath>
<g id="source-19" clip-path="url(#clip-1)">
<path fill-rule="evenodd" fill="rgb(100%, 100%, 100%)" fill-opacity="1" d="M 5.617188 4.875 C 5.832031 4.371094 5.601562 3.789062 5.097656 3.574219 C 4.59375 3.359375 4.011719 3.59375 3.796875 4.09375 L 2.320312 7.550781 C 2.148438 7.953125 2.261719 8.421875 2.597656 8.703125 L 5.425781 11.039062 C 5.390625 11.121094 5.363281 11.203125 5.335938 11.289062 L 4.0625 15.679688 C 4.050781 15.722656 4.039062 15.761719 4.03125 15.804688 C 3.972656 15.890625 3.929688 15.984375 3.894531 16.085938 L 2.242188 20.707031 C 2.195312 20.832031 2.171875 20.957031 2.164062 21.085938 C 2.136719 21.191406 2.121094 21.300781 2.117188 21.414062 L 2.054688 26.710938 C 2.046875 27.46875 2.65625 28.09375 3.414062 28.101562 C 4.175781 28.113281 4.796875 27.503906 4.808594 26.742188 L 4.871094 21.488281 L 5.925781 18.542969 C 6.082031 18.566406 6.242188 18.570312 6.398438 18.558594 L 8.097656 21.867188 L 7.710938 26.417969 C 7.652344 27.109375 8.164062 27.71875 8.855469 27.777344 C 9.542969 27.835938 10.152344 27.324219 10.210938 26.632812 L 10.621094 21.820312 C 10.765625 21.464844 10.761719 21.050781 10.570312 20.679688 L 8.484375 16.621094 L 9.667969 12.546875 C 9.742188 12.285156 9.769531 12.019531 9.75 11.761719 C 9.875 11.707031 9.988281 11.625 10.085938 11.519531 L 12.648438 8.722656 C 12.917969 8.425781 12.984375 7.996094 12.816406 7.632812 L 11.15625 4.070312 C 10.925781 3.574219 10.335938 3.359375 9.839844 3.589844 C 9.34375 3.820312 9.128906 4.410156 9.359375 4.90625 L 10.738281 7.871094 L 8.753906 10.042969 C 8.566406 9.917969 8.359375 9.820312 8.128906 9.753906 C 7.730469 9.640625 7.328125 9.636719 6.953125 9.734375 L 4.433594 7.648438 Z M 5.617188 4.875 "/>
</g>
<clipPath id="clip-2">
<rect x="0" y="0" width="32" height="32"/>
</clipPath>
<g id="source-21" clip-path="url(#clip-2)">
<g mask="url(#mask-1)">
<use xlink:href="#source-15"/>
</g>
<g mask="url(#mask-2)">
<use xlink:href="#source-19"/>
</g>
</g>
<mask id="mask-3">
<g filter="url(#filter-remove-color)">
<rect x="-3.2" y="-3.2" width="38.4" height="38.4" fill="rgb(0%, 0%, 0%)" fill-opacity="0.496094"/>
</g>
</mask>
<mask id="mask-4">
<g filter="url(#filter-remove-color)">
<rect x="-7.04" y="-7.04" width="46.08" height="46.08" fill="rgb(0%, 0%, 0%)" fill-opacity="0.496094"/>
</g>
</mask>
<clipPath id="clip-3">
<rect x="0" y="0" width="32" height="32"/>
</clipPath>
<g id="source-26" clip-path="url(#clip-3)">
<path fill-rule="nonzero" fill="rgb(100%, 100%, 100%)" fill-opacity="1" stroke-width="49.681599" stroke-linecap="round" stroke-linejoin="round" stroke="rgb(100%, 100%, 100%)" stroke-opacity="1" stroke-miterlimit="4" d="M 489.587402 121.777344 C 479.179688 122.202148 475.073242 137.211914 483.640137 142.946777 C 491.499023 149.389648 504.455566 141.530762 502.331543 131.547852 C 501.411133 125.600586 495.605469 121.069336 489.587402 121.777344 Z M 489.587402 121.777344 " transform="matrix(0.0551724, 0, 0, 0.0551724, 0, 0)"/>
</g>
<mask id="mask-5">
<g filter="url(#filter-remove-color)">
<rect x="-7.04" y="-7.04" width="46.08" height="46.08" fill="rgb(0%, 0%, 0%)" fill-opacity="0.496094"/>
</g>
</mask>
<clipPath id="clip-4">
<rect x="0" y="0" width="32" height="32"/>
</clipPath>
<g id="source-30" clip-path="url(#clip-4)">
<path fill-rule="evenodd" fill="rgb(100%, 100%, 100%)" fill-opacity="1" d="M 27.644531 9.632812 C 27.792969 9.675781 27.933594 9.734375 28.0625 9.800781 C 28.507812 9.816406 28.902344 10.128906 29 10.582031 L 29.054688 10.835938 C 29.199219 11.144531 29.277344 11.484375 29.273438 11.835938 L 29.539062 13.070312 L 30.496094 14.292969 C 30.832031 14.726562 30.753906 15.347656 30.324219 15.683594 C 29.890625 16.023438 29.269531 15.945312 28.933594 15.511719 L 28.460938 14.910156 L 28 16.5 L 30.085938 20.558594 C 30.277344 20.929688 30.28125 21.34375 30.136719 21.703125 L 29.726562 26.511719 C 29.667969 27.203125 29.058594 27.714844 28.367188 27.65625 C 27.679688 27.597656 27.164062 26.988281 27.226562 26.300781 L 27.613281 21.746094 L 25.953125 18.515625 L 25.789062 21.421875 C 25.785156 21.492188 25.777344 21.5625 25.765625 21.628906 C 25.761719 21.6875 25.757812 21.75 25.75 21.808594 L 25.027344 26.746094 C 24.917969 27.5 24.21875 28.019531 23.464844 27.910156 C 22.710938 27.796875 22.191406 27.097656 22.300781 26.347656 L 23.023438 21.410156 C 23.03125 21.359375 23.042969 21.3125 23.054688 21.265625 L 23.328125 16.347656 C 23.34375 16.105469 23.421875 15.878906 23.542969 15.6875 C 23.554688 15.644531 23.566406 15.601562 23.578125 15.558594 L 24.308594 13.035156 L 23.277344 13.597656 C 22.847656 13.832031 22.3125 13.71875 22.015625 13.328125 L 20.800781 11.730469 C 20.46875 11.292969 20.554688 10.671875 20.988281 10.339844 C 21.421875 10.007812 22.046875 10.09375 22.375 10.53125 L 23.078125 11.449219 L 25.496094 10.132812 C 26.058594 9.625 26.863281 9.40625 27.644531 9.632812 Z M 27.644531 9.632812 "/>
</g>
<clipPath id="clip-5">
<rect x="0" y="0" width="32" height="32"/>
</clipPath>
<g id="source-32" clip-path="url(#clip-5)">
<g mask="url(#mask-4)">
<use xlink:href="#source-26"/>
</g>
<g mask="url(#mask-5)">
<use xlink:href="#source-30"/>
</g>
</g>
</defs>
<path fill="none" stroke-width="96.539597" stroke-linecap="round" stroke-linejoin="round" stroke="rgb(100%, 100%, 100%)" stroke-opacity="1" stroke-miterlimit="4" d="M 316.550293 201.357422 L 309.753418 299.133301 " transform="matrix(0.0551724, 0, 0, 0.0551724, 0, 0)"/>
<path fill="none" stroke-width="42.415001" stroke-linecap="round" stroke-linejoin="round" stroke="rgb(100%, 100%, 100%)" stroke-opacity="1" stroke-miterlimit="4" d="M 399.316406 49.064941 L 379.492188 117.8125 L 345.932617 181.037598 " transform="matrix(0.0551724, 0, 0, 0.0551724, 0, 0)"/>
<path fill="none" stroke-width="53.734299" stroke-linecap="round" stroke-linejoin="round" stroke="rgb(100%, 100%, 100%)" stroke-opacity="1" stroke-miterlimit="4" d="M 363.137207 516.5625 L 322.285156 428.486328 " transform="matrix(0.0551724, 0, 0, 0.0551724, 0, 0)"/>
<path fill="none" stroke-width="58.678398" stroke-linecap="round" stroke-linejoin="round" stroke="rgb(100%, 100%, 100%)" stroke-opacity="1" stroke-miterlimit="4" d="M 326.320801 309.116211 L 322.001953 421.689453 " transform="matrix(0.0551724, 0, 0, 0.0551724, 0, 0)"/>
<path fill="none" stroke-width="58.678398" stroke-linecap="round" stroke-linejoin="round" stroke="rgb(100%, 100%, 100%)" stroke-opacity="1" stroke-miterlimit="4" d="M 292.548828 302.956543 L 246.882324 405.688477 " transform="matrix(0.0551724, 0, 0, 0.0551724, 0, 0)"/>
<path fill="none" stroke-width="58.946602" stroke-linecap="round" stroke-linejoin="round" stroke="rgb(100%, 100%, 100%)" stroke-opacity="1" stroke-miterlimit="4" d="M 219.128418 520.881348 L 246.174316 411.352539 " transform="matrix(0.0551724, 0, 0, 0.0551724, 0, 0)"/>
<path fill-rule="nonzero" fill="rgb(100%, 100%, 100%)" fill-opacity="1" stroke-width="58.678398" stroke-linecap="round" stroke-linejoin="round" stroke="rgb(100%, 100%, 100%)" stroke-opacity="1" stroke-miterlimit="4" d="M 306.142578 95.085449 C 293.894043 95.651855 289.008789 113.352051 299.204102 120.078125 C 308.408203 127.724609 323.771973 118.520508 321.223145 106.696777 C 320.090332 99.616699 313.293457 94.306641 306.142578 95.085449 Z M 306.142578 95.085449 " transform="matrix(0.0551724, 0, 0, 0.0551724, 0, 0)"/>
<path fill="none" stroke-width="42.415001" stroke-linecap="round" stroke-linejoin="round" stroke="rgb(100%, 100%, 100%)" stroke-opacity="1" stroke-miterlimit="4" d="M 200.29541 290.778809 L 256.228027 242.492676 L 291.911621 182.453613 " transform="matrix(0.0551724, 0, 0, 0.0551724, 0, 0)"/>
<g mask="url(#mask-0)">
<use xlink:href="#source-21"/>
</g>
<g mask="url(#mask-3)">
<use xlink:href="#source-32"/>
</g>
</svg>
