<?xml version="1.0" encoding="UTF-8"?>
<svg xmlns="http://www.w3.org/2000/svg" xmlns:xlink="http://www.w3.org/1999/xlink" width="32" height="32" viewBox="0 0 32 32">
<path fill-rule="nonzero" fill="rgb(100%, 100%, 100%)" fill-opacity="1" d="M 14.765625 1.46875 C 14.351562 1.46875 14.09375 1.707031 14.09375 2.175781 L 14.09375 3.347656 L 11.582031 3.347656 C 10.230469 3.347656 9.515625 4.078125 9.183594 4.933594 L 7.425781 9.425781 C 6.726562 9.515625 5.496094 10.324219 5.496094 11.855469 L 5.496094 17.570312 L 7.207031 17.570312 L 7.207031 19.398438 C 7.207031 21.644531 10.417969 21.617188 10.417969 19.398438 L 10.417969 17.570312 L 21.976562 17.570312 L 21.976562 19.398438 C 21.976562 21.617188 25.191406 21.644531 25.191406 19.398438 L 25.191406 17.570312 L 26.898438 17.570312 L 26.898438 11.855469 C 26.898438 10.324219 25.664062 9.515625 24.96875 9.425781 L 23.210938 4.933594 C 22.878906 4.078125 22.160156 3.347656 20.808594 3.347656 L 18.328125 3.347656 L 18.328125 2.175781 C 18.328125 1.707031 18.074219 1.46875 17.660156 1.46875 Z M 11.5625 4.984375 L 20.832031 4.984375 C 21.410156 4.988281 21.660156 5.347656 21.824219 5.84375 L 23.148438 9.320312 L 9.246094 9.320312 L 10.570312 5.84375 C 10.734375 5.347656 10.984375 4.988281 11.5625 4.984375 Z M 8.863281 11.050781 C 9.683594 11.050781 10.347656 11.726562 10.347656 12.5625 C 10.347656 13.398438 9.683594 14.078125 8.863281 14.078125 C 8.042969 14.078125 7.378906 13.398438 7.378906 12.5625 C 7.378906 11.726562 8.042969 11.050781 8.863281 11.050781 Z M 23.53125 11.050781 C 24.351562 11.050781 25.015625 11.726562 25.015625 12.5625 C 25.015625 13.398438 24.351562 14.078125 23.53125 14.078125 C 22.710938 14.078125 22.046875 13.398438 22.046875 12.5625 C 22.046875 11.726562 22.710938 11.050781 23.53125 11.050781 Z M 23.53125 11.050781 "/>
<path fill-rule="nonzero" fill="rgb(100%, 100%, 100%)" fill-opacity="1" d="M 5.792969 23.554688 L 11.132812 23.554688 L 11.132812 24.957031 L 9.339844 24.957031 L 9.339844 29.238281 L 7.582031 29.238281 L 7.582031 24.957031 L 5.792969 24.957031 Z M 15.429688 28.300781 L 13.429688 28.300781 L 13.15625 29.238281 L 11.359375 29.238281 L 13.496094 23.554688 L 15.410156 23.554688 L 17.550781 29.238281 L 15.710938 29.238281 Z M 15.0625 27.070312 L 14.433594 25.027344 L 13.808594 27.070312 Z M 17.714844 23.554688 L 19.652344 23.554688 L 20.660156 25.300781 L 21.636719 23.554688 L 23.554688 23.554688 L 21.785156 26.308594 L 23.722656 29.238281 L 21.746094 29.238281 L 20.625 27.414062 L 19.5 29.238281 L 17.539062 29.238281 L 19.5 26.277344 Z M 24.355469 23.554688 L 26.113281 23.554688 L 26.113281 29.238281 L 24.355469 29.238281 Z M 24.355469 23.554688 "/>
</svg>
