<?xml version="1.0" encoding="UTF-8"?>
<svg xmlns="http://www.w3.org/2000/svg" xmlns:xlink="http://www.w3.org/1999/xlink" width="12" height="12" viewBox="0 0 12 12" version="1.1">
<g id="surface1">
<path style=" stroke:none;fill-rule:nonzero;fill:rgb(100%,100%,100%);fill-opacity:1;" d="M 6 2 C 6.550781 2 7 1.550781 7 1 C 7 0.449219 6.550781 0 6 0 C 5.449219 0 5 0.449219 5 1 C 5 1.550781 5.449219 2 6 2 Z M 6 2 "/>
<path style=" stroke:none;fill-rule:nonzero;fill:rgb(100%,100%,100%);fill-opacity:1;" d="M 7 6 L 7 4.664062 C 7.3125 4.882812 7.683594 5 8.070312 5 L 8.5 5 L 8.5 4 L 8.070312 4 C 7.839844 4 7.613281 3.90625 7.449219 3.742188 C 7.410156 3.703125 7.371094 3.65625 7.339844 3.609375 L 7.054688 3.183594 C 6.980469 3.066406 6.886719 2.964844 6.78125 2.875 C 6.597656 2.648438 6.316406 2.5 6 2.5 C 5.449219 2.5 5 2.949219 5 3.5 L 5 6 C 5 6.371094 5.199219 6.691406 5.5 6.867188 L 5.5 8.085938 C 4.917969 8.292969 4.5 8.847656 4.5 9.5 C 4.5 10.328125 5.171875 11 6 11 C 6.828125 11 7.5 10.328125 7.5 9.5 C 7.5 8.847656 7.082031 8.292969 6.5 8.085938 L 6.5 6.867188 C 6.800781 6.691406 7 6.371094 7 6 Z M 7 6 "/>
</g>
</svg>
