<?xml version="1.0" encoding="UTF-8"?>
<svg xmlns="http://www.w3.org/2000/svg" xmlns:xlink="http://www.w3.org/1999/xlink" width="32" height="32" viewBox="0 0 32 32">
<path fill-rule="nonzero" fill="rgb(100%, 100%, 100%)" fill-opacity="1" d="M 6.207031 28.722656 C 6.597656 28.722656 7.132812 28.84375 7.8125 29.078125 C 8.492188 29.316406 9.027344 29.4375 9.417969 29.4375 C 9.804688 29.4375 10.339844 29.316406 11.019531 29.078125 C 11.703125 28.84375 12.238281 28.722656 12.625 28.722656 C 13.015625 28.722656 13.554688 28.84375 14.246094 29.078125 C 14.9375 29.316406 15.464844 29.4375 15.835938 29.4375 C 16.222656 29.4375 16.761719 29.316406 17.453125 29.078125 C 18.144531 28.84375 18.6875 28.722656 19.074219 28.722656 C 19.441406 28.722656 19.972656 28.84375 20.664062 29.078125 C 21.355469 29.316406 21.894531 29.4375 22.285156 29.4375 C 22.671875 29.4375 23.207031 29.316406 23.886719 29.078125 C 24.570312 28.84375 25.101562 28.722656 25.492188 28.722656 C 25.882812 28.722656 26.414062 28.84375 27.097656 29.078125 C 27.777344 29.316406 28.3125 29.4375 28.699219 29.4375 L 28.699219 27.039062 C 28.3125 27.039062 27.777344 26.925781 27.097656 26.699219 C 26.414062 26.472656 25.882812 26.359375 25.492188 26.359375 C 25.101562 26.359375 24.5625 26.472656 23.871094 26.699219 C 23.179688 26.925781 22.652344 27.039062 22.285156 27.039062 C 21.894531 27.039062 21.355469 26.925781 20.664062 26.699219 C 19.972656 26.472656 19.441406 26.359375 19.074219 26.359375 C 18.6875 26.359375 18.144531 26.472656 17.453125 26.699219 C 16.761719 26.925781 16.222656 27.039062 15.835938 27.039062 C 15.464844 27.039062 14.9375 26.925781 14.246094 26.699219 C 13.554688 26.472656 13.015625 26.359375 12.625 26.359375 C 12.238281 26.359375 11.703125 26.472656 11.019531 26.699219 C 10.339844 26.925781 9.804688 27.039062 9.417969 27.039062 C 9.027344 27.039062 8.492188 26.925781 7.8125 26.699219 C 7.132812 26.472656 6.597656 26.359375 6.207031 26.359375 C 5.820312 26.359375 5.28125 26.472656 4.585938 26.699219 C 3.894531 26.925781 3.367188 27.039062 3 27.039062 L 3 29.4375 C 3.367188 29.4375 3.894531 29.316406 4.585938 29.078125 C 5.28125 28.84375 5.820312 28.722656 6.207031 28.722656 Z M 10.257812 17.769531 C 10.863281 17.769531 11.378906 17.558594 11.800781 17.136719 C 12.21875 16.714844 12.429688 16.203125 12.429688 15.597656 C 12.429688 15.015625 12.21875 14.511719 11.800781 14.089844 C 11.378906 13.667969 10.863281 13.457031 10.257812 13.457031 C 9.65625 13.457031 9.140625 13.667969 8.71875 14.089844 C 8.296875 14.511719 8.089844 15.015625 8.089844 15.597656 C 8.089844 16.203125 8.296875 16.714844 8.71875 17.136719 C 9.140625 17.558594 9.65625 17.769531 10.257812 17.769531 Z M 9.515625 25.90625 C 9.988281 25.90625 10.347656 25.699219 10.582031 25.289062 L 14.082031 19.195312 L 21.730469 14.460938 C 22.058594 14.246094 22.304688 13.988281 22.476562 13.683594 L 27.761719 4.707031 C 27.890625 4.492188 27.957031 4.242188 27.957031 3.960938 C 27.957031 3.550781 27.808594 3.195312 27.519531 2.894531 C 27.226562 2.589844 26.875 2.441406 26.464844 2.441406 C 25.882812 2.441406 25.4375 2.699219 25.136719 3.21875 L 20.726562 10.703125 L 14.277344 14.59375 C 13.933594 14.808594 13.671875 15.066406 13.5 15.371094 L 8.445312 24.058594 C 8.335938 24.230469 8.28125 24.433594 8.28125 24.671875 C 8.28125 24.996094 8.40625 25.28125 8.65625 25.53125 C 8.902344 25.78125 9.191406 25.90625 9.515625 25.90625 Z M 9.515625 25.90625 "/>
</svg>
