<?xml version="1.0" encoding="UTF-8"?>
<svg xmlns="http://www.w3.org/2000/svg" xmlns:xlink="http://www.w3.org/1999/xlink" width="12" height="12" viewBox="0 0 12 12">
<defs>
<filter id="filter-remove-color" x="0%" y="0%" width="100%" height="100%">
<feColorMatrix color-interpolation-filters="sRGB" values="0 0 0 0 1 0 0 0 0 1 0 0 0 0 1 0 0 0 1 0" />
</filter>
<mask id="mask-0">
<g filter="url(#filter-remove-color)">
<rect x="-1.2" y="-1.2" width="14.4" height="14.4" fill="rgb(0%, 0%, 0%)" fill-opacity="0.1"/>
</g>
</mask>
<clipPath id="clip-0">
<rect x="0" y="0" width="12" height="12"/>
</clipPath>
<g id="source-9" clip-path="url(#clip-0)">
<path fill-rule="nonzero" fill="rgb(0%, 57.254902%, 85.490196%)" fill-opacity="1" stroke-width="40" stroke-linecap="round" stroke-linejoin="round" stroke="rgb(0%, 57.254902%, 85.490196%)" stroke-opacity="1" stroke-miterlimit="4" d="M 243.177083 263.190104 L 81.940104 263.190104 L 81.940104 520.527344 L 243.177083 520.527344 Z M 243.177083 263.190104 " transform="matrix(0.0206897, 0, 0, 0.0206897, 0, 0)"/>
</g>
</defs>
<path fill-rule="nonzero" fill="rgb(0%, 57.254902%, 85.490196%)" fill-opacity="1" d="M 10.707031 1.195312 C 11.050781 0.933594 11.441406 1.449219 11.089844 1.71875 L 9.652344 2.816406 L 9.980469 5.753906 L 9.449219 6.160156 L 8.578125 3.652344 L 7.503906 4.472656 L 7.496094 5.214844 L 7.078125 5.535156 L 6.753906 4.652344 L 5.984375 4.105469 L 6.40625 3.785156 L 7.117188 3.96875 L 8.191406 3.144531 L 6.003906 1.648438 L 6.535156 1.242188 L 9.257812 2.300781 Z M 10.707031 1.195312 "/>
<path fill="none" stroke-width="37.376999" stroke-linecap="round" stroke-linejoin="round" stroke="rgb(0%, 57.254902%, 85.490196%)" stroke-opacity="1" stroke-miterlimit="4" d="M 68.723958 524.114583 L 68.723958 243.74349 L 259.22526 243.74349 L 259.22526 524.114583 " transform="matrix(0.0206897, 0, 0, 0.0206897, 0, 0)"/>
<g mask="url(#mask-0)">
<use xlink:href="#source-9"/>
</g>
</svg>
