<?xml version="1.0" encoding="UTF-8"?>
<svg xmlns="http://www.w3.org/2000/svg" xmlns:xlink="http://www.w3.org/1999/xlink" width="32" height="32" viewBox="0 0 32 32">
<defs>
<filter id="filter-remove-color" x="0%" y="0%" width="100%" height="100%">
<feColorMatrix color-interpolation-filters="sRGB" values="0 0 0 0 1 0 0 0 0 1 0 0 0 0 1 0 0 0 1 0" />
</filter>
<mask id="mask-0">
<g filter="url(#filter-remove-color)">
<rect x="-3.2" y="-3.2" width="38.4" height="38.4" fill="rgb(0%, 0%, 0%)" fill-opacity="0.5"/>
</g>
</mask>
<clipPath id="clip-0">
<rect x="0" y="0" width="32" height="32"/>
</clipPath>
<g id="source-9" clip-path="url(#clip-0)">
<path fill-rule="evenodd" fill="rgb(100%, 100%, 100%)" fill-opacity="1" d="M 2.667969 10.667969 L 10.667969 10.667969 L 10.667969 29.332031 L 2.667969 29.332031 Z M 5.332031 13.332031 L 8 13.332031 L 8 18.667969 L 5.332031 18.667969 Z M 8 21.332031 L 5.332031 21.332031 L 5.332031 26.667969 L 8 26.667969 Z M 8 21.332031 "/>
<path fill-rule="evenodd" fill="rgb(100%, 100%, 100%)" fill-opacity="1" d="M 29.332031 29.332031 L 21.332031 29.332031 L 21.332031 10.667969 L 29.332031 10.667969 Z M 24 13.332031 L 26.667969 13.332031 L 26.667969 18.667969 L 24 18.667969 Z M 24 21.332031 L 26.667969 21.332031 L 26.667969 26.667969 L 24 26.667969 Z M 24 21.332031 "/>
<path fill-rule="nonzero" fill="rgb(100%, 100%, 100%)" fill-opacity="1" d="M 18.667969 21.332031 L 13.332031 21.332031 L 13.332031 29.332031 L 18.667969 29.332031 Z M 18.667969 21.332031 "/>
</g>
</defs>
<g mask="url(#mask-0)">
<use xlink:href="#source-9"/>
</g>
<path fill-rule="evenodd" fill="rgb(100%, 100%, 100%)" fill-opacity="1" d="M 24 2.667969 L 8 2.667969 L 8 29.332031 L 13.332031 29.332031 L 13.332031 21.332031 L 18.667969 21.332031 L 18.667969 29.332031 L 24 29.332031 Z M 14.667969 8 L 14.667969 5.332031 L 17.332031 5.332031 L 17.332031 8 L 20 8 L 20 10.667969 L 17.332031 10.667969 L 17.332031 13.332031 L 14.667969 13.332031 L 14.667969 10.667969 L 12 10.667969 L 12 8 Z M 14.667969 8 "/>
</svg>
