<?xml version="1.0" encoding="UTF-8"?>
<svg xmlns="http://www.w3.org/2000/svg" xmlns:xlink="http://www.w3.org/1999/xlink" width="32" height="32" viewBox="0 0 32 32">
<path fill-rule="evenodd" fill="rgb(100%, 100%, 100%)" fill-opacity="1" d="M 0 13.332031 L 13.332031 13.332031 L 13.332031 6.667969 L 22.667969 6.667969 L 25.332031 13.332031 L 29.332031 13.332031 C 30.070312 13.332031 30.667969 13.929688 30.667969 14.667969 L 30.667969 18.667969 L 32 18.667969 L 32 21.332031 L 29.332031 21.332031 C 29.332031 23.542969 27.542969 25.332031 25.332031 25.332031 C 23.125 25.332031 21.332031 23.542969 21.332031 21.332031 L 10.667969 21.332031 C 10.667969 23.542969 8.875 25.332031 6.667969 25.332031 C 4.457031 25.332031 2.667969 23.542969 2.667969 21.332031 L 0 21.332031 Z M 16 9.332031 L 21.332031 9.332031 L 22.667969 13.332031 L 16 13.332031 Z M 6.667969 22.667969 C 7.402344 22.667969 8 22.070312 8 21.332031 C 8 20.597656 7.402344 20 6.667969 20 C 5.929688 20 5.332031 20.597656 5.332031 21.332031 C 5.332031 22.070312 5.929688 22.667969 6.667969 22.667969 Z M 25.332031 22.667969 C 26.070312 22.667969 26.667969 22.070312 26.667969 21.332031 C 26.667969 20.597656 26.070312 20 25.332031 20 C 24.597656 20 24 20.597656 24 21.332031 C 24 22.070312 24.597656 22.667969 25.332031 22.667969 Z M 25.332031 22.667969 "/>
</svg>
