<?xml version="1.0" encoding="UTF-8"?>
<svg xmlns="http://www.w3.org/2000/svg" xmlns:xlink="http://www.w3.org/1999/xlink" width="12" height="12" viewBox="0 0 12 12" version="1.1">
<g id="surface1">
<path style=" stroke:none;fill-rule:evenodd;fill:rgb(100%,100%,100%);fill-opacity:1;" d="M 2 1.5 L 1.5 1.5 L 1.5 9 L 3 9 L 3 10 L 1 10 L 1 11 L 9 11 C 10.378906 11 11.5 9.878906 11.5 8.5 L 10.5 8.5 C 10.5 9.328125 9.828125 10 9 10 L 8 10 L 8 9 L 9.5 9 L 9.5 6.988281 C 9.5 6.1875 9.023438 5.464844 8.289062 5.152344 L 6.605469 4.429688 C 6.238281 4.273438 6 3.910156 6 3.511719 L 6 1.5 Z M 7 9 L 4 9 L 4 10 L 7 10 Z M 2.5 8 L 2.5 2.5 L 5 2.5 L 5 3 L 4.5 3 C 4.222656 3 4 3.222656 4 3.5 C 4 3.777344 4.222656 4 4.5 4 L 5.0625 4 C 5.105469 4.175781 5.171875 4.34375 5.261719 4.5 L 4.5 4.5 C 4.222656 4.5 4 4.722656 4 5 C 4 5.277344 4.222656 5.5 4.5 5.5 L 6.5625 5.5 L 7.894531 6.070312 C 8.261719 6.226562 8.5 6.589844 8.5 6.988281 L 8.5 8 Z M 2.5 8 "/>
<path style=" stroke:none;fill-rule:evenodd;fill:rgb(100%,100%,100%);fill-opacity:1;" d="M 1.5 1.5 L 1.5 9 L 3 9 L 3 10 L 1 10 L 1 11 L 9 11 C 10.378906 11 11.5 9.878906 11.5 8.5 L 10.5 8.5 C 10.5 9.328125 9.828125 10 9 10 L 8 10 L 8 9 L 9.5 9 L 9.5 6.988281 C 9.5 6.1875 9.023438 5.464844 8.289062 5.152344 L 6.605469 4.429688 C 6.238281 4.273438 6 3.910156 6 3.511719 L 6 1.5 Z M 7 9 L 4 9 L 4 10 L 7 10 Z M 2.5 8 L 2.5 2.5 L 5 2.5 L 5 3 L 4.5 3 C 4.222656 3 4 3.222656 4 3.5 C 4 3.777344 4.222656 4 4.5 4 L 5.0625 4 C 5.105469 4.175781 5.171875 4.34375 5.261719 4.5 L 4.5 4.5 C 4.222656 4.5 4 4.722656 4 5 C 4 5.277344 4.222656 5.5 4.5 5.5 L 6.5625 5.5 L 7.894531 6.070312 C 8.261719 6.226562 8.5 6.589844 8.5 6.988281 L 8.5 8 Z M 2.5 8 "/>
</g>
</svg>
