<?xml version="1.0" encoding="UTF-8"?>
<svg xmlns="http://www.w3.org/2000/svg" xmlns:xlink="http://www.w3.org/1999/xlink" width="32" height="32" viewBox="0 0 32 32">
<path fill-rule="nonzero" fill="rgb(100%, 100%, 100%)" fill-opacity="1" d="M 15.59375 28.273438 L 17.570312 28.273438 L 17.570312 3.375 L 15.59375 3.375 Z M 9.652344 7.921875 L 5.664062 7.921875 C 5.042969 7.921875 4.484375 8.144531 3.988281 8.59375 C 3.613281 8.941406 3.367188 9.328125 3.242188 9.75 L 1.527344 15.453125 C 1.476562 15.574219 1.453125 15.6875 1.453125 15.789062 C 1.453125 16.359375 1.738281 16.644531 2.308594 16.644531 C 2.707031 16.644531 2.96875 16.421875 3.09375 15.972656 L 4.660156 10.753906 L 5.515625 10.753906 L 2.941406 20.035156 L 5.441406 20.035156 L 5.441406 27.265625 C 5.441406 27.914062 5.75 28.234375 6.371094 28.234375 C 6.992188 28.234375 7.304688 27.914062 7.304688 27.265625 L 7.304688 20 L 8.238281 20 L 8.238281 27.304688 C 8.238281 27.925781 8.546875 28.234375 9.167969 28.234375 C 9.789062 28.234375 10.101562 27.925781 10.101562 27.304688 L 10.101562 20.035156 L 12.597656 20.035156 L 9.988281 10.753906 L 10.882812 10.753906 L 12.449219 15.972656 C 12.574219 16.421875 12.832031 16.644531 13.230469 16.644531 C 13.800781 16.644531 14.089844 16.359375 14.089844 15.789062 C 14.089844 15.664062 14.0625 15.550781 14.015625 15.453125 L 12.300781 9.75 C 12.175781 9.351562 11.890625 8.964844 11.441406 8.59375 C 10.894531 8.144531 10.300781 7.921875 9.652344 7.921875 Z M 7.753906 7.511719 C 8.324219 7.511719 8.808594 7.3125 9.207031 6.917969 C 9.601562 6.519531 9.800781 6.046875 9.800781 5.5 C 9.800781 4.929688 9.601562 4.445312 9.207031 4.046875 C 8.808594 3.648438 8.324219 3.449219 7.753906 3.449219 C 7.207031 3.449219 6.734375 3.648438 6.335938 4.046875 C 5.9375 4.445312 5.738281 4.929688 5.738281 5.5 C 5.738281 6.046875 5.9375 6.519531 6.335938 6.917969 C 6.734375 7.3125 7.207031 7.511719 7.753906 7.511719 Z M 25.1875 7.476562 C 25.734375 7.476562 26.207031 7.277344 26.605469 6.878906 C 27.003906 6.480469 27.199219 6.007812 27.199219 5.460938 C 27.199219 4.890625 27.003906 4.414062 26.605469 4.027344 C 26.207031 3.644531 25.734375 3.449219 25.1875 3.449219 C 24.640625 3.449219 24.167969 3.644531 23.773438 4.027344 C 23.375 4.414062 23.175781 4.890625 23.175781 5.460938 C 23.175781 6.007812 23.375 6.480469 23.773438 6.878906 C 24.167969 7.277344 24.640625 7.476562 25.1875 7.476562 Z M 27.835938 7.886719 L 22.503906 7.886719 C 21.785156 7.886719 21.167969 8.140625 20.660156 8.648438 C 20.148438 9.160156 19.894531 9.785156 19.894531 10.53125 L 19.894531 16.71875 C 19.894531 17.316406 20.167969 17.613281 20.714844 17.613281 C 21.238281 17.613281 21.496094 17.316406 21.496094 16.71875 L 21.496094 10.679688 L 22.46875 10.679688 L 22.46875 27.082031 C 22.46875 27.828125 22.839844 28.199219 23.585938 28.199219 C 24.332031 28.199219 24.703125 27.828125 24.703125 27.082031 L 24.703125 17.578125 L 25.671875 17.578125 L 25.671875 27.082031 C 25.671875 27.828125 26.046875 28.199219 26.789062 28.199219 C 27.5625 28.199219 27.945312 27.828125 27.945312 27.082031 L 27.945312 10.679688 L 28.878906 10.679688 L 28.878906 16.71875 C 28.878906 17.339844 29.136719 17.652344 29.660156 17.652344 C 30.183594 17.652344 30.445312 17.339844 30.445312 16.71875 L 30.445312 10.570312 C 30.445312 9.847656 30.203125 9.222656 29.71875 8.6875 C 29.234375 8.152344 28.605469 7.886719 27.835938 7.886719 Z M 27.835938 7.886719 "/>
</svg>
