<?xml version="1.0" encoding="UTF-8"?>
<svg xmlns="http://www.w3.org/2000/svg" xmlns:xlink="http://www.w3.org/1999/xlink" width="32" height="32" viewBox="0 0 32 32">
<path fill-rule="evenodd" fill="rgb(100%, 100%, 100%)" fill-opacity="1" d="M 19.804688 8 L 17.332031 8 L 17.332031 5.332031 L 20.667969 5.332031 C 21.191406 5.332031 21.667969 5.640625 21.882812 6.121094 L 23.769531 10.316406 C 24.269531 10.175781 24.792969 10.082031 25.332031 10.039062 C 26.425781 9.953125 27.597656 10.074219 28.839844 10.449219 C 29.636719 10.691406 30.457031 11.035156 31.304688 11.496094 L 30.027344 13.835938 C 28.058594 12.761719 26.382812 12.527344 25.007812 12.765625 C 24.964844 12.773438 24.925781 12.78125 24.882812 12.789062 L 25.761719 14.742188 C 26.058594 14.691406 26.359375 14.667969 26.667969 14.667969 C 29.613281 14.667969 32 17.054688 32 20 C 32 22.945312 29.613281 25.332031 26.667969 25.332031 C 23.722656 25.332031 21.332031 22.945312 21.332031 20 C 21.332031 18.316406 22.113281 16.816406 23.332031 15.835938 L 22.46875 13.921875 C 20.867188 15.191406 20 17.175781 20 18.667969 L 20 19.875 L 10.605469 20.8125 C 10.214844 23.371094 8.003906 25.332031 5.332031 25.332031 C 2.386719 25.332031 0 22.945312 0 20 C 0 17.054688 2.386719 14.667969 5.332031 14.667969 C 7.632812 14.667969 9.589844 16.121094 10.339844 18.160156 L 11.890625 18.003906 C 11.738281 17.085938 11.425781 16.210938 10.984375 15.414062 C 10.160156 13.933594 8.875 12.722656 7.292969 12 L 3.332031 12 L 3.332031 9.332031 L 8.214844 9.332031 L 12.214844 10.667969 L 21.003906 10.667969 Z M 7.5 18.445312 C 7.015625 17.769531 6.226562 17.332031 5.332031 17.332031 C 3.859375 17.332031 2.667969 18.527344 2.667969 20 C 2.667969 21.472656 3.859375 22.667969 5.332031 22.667969 C 6.414062 22.667969 7.347656 22.023438 7.765625 21.097656 L 5.464844 21.328125 C 4.734375 21.398438 4.078125 20.867188 4.007812 20.132812 C 3.933594 19.398438 4.46875 18.746094 5.199219 18.671875 Z M 24.503906 18.441406 C 24.1875 18.878906 24 19.417969 24 20 C 24 21.472656 25.195312 22.667969 26.667969 22.667969 C 28.140625 22.667969 29.332031 21.472656 29.332031 20 C 29.332031 18.617188 28.28125 17.480469 26.933594 17.347656 L 27.882812 19.453125 C 28.183594 20.125 27.886719 20.914062 27.214844 21.214844 C 26.542969 21.519531 25.753906 21.21875 25.449219 20.546875 Z M 19.316406 13.332031 L 12.832031 13.332031 C 13.679688 14.589844 14.265625 16.03125 14.519531 17.566406 L 14.550781 17.738281 L 17.441406 17.449219 C 17.683594 16.046875 18.328125 14.585938 19.316406 13.332031 Z M 19.316406 13.332031 "/>
</svg>
