<?xml version="1.0" encoding="UTF-8"?>
<svg xmlns="http://www.w3.org/2000/svg" xmlns:xlink="http://www.w3.org/1999/xlink" width="32" height="32" viewBox="0 0 32 32">
<path fill-rule="nonzero" fill="rgb(24.705882%, 24.705882%, 24.705882%)" fill-opacity="1" d="M 15.855469 29.636719 C 15.824219 29.21875 15.769531 28.679688 15.742188 28.441406 L 15.683594 28.007812 L 15.128906 27.980469 L 14.570312 27.953125 L 14.464844 27.585938 C 14.40625 27.371094 14.300781 27.203125 14.210938 27.1875 C 14.09375 27.164062 12.015625 27.664062 10.976562 27.964844 C 10.832031 28.007812 10.816406 27.9375 10.816406 27.335938 L 10.820312 26.660156 L 12.433594 24.082031 L 14.046875 21.5 L 14.039062 19.921875 L 11.480469 22.535156 C 10.074219 23.96875 8.878906 25.144531 8.828125 25.140625 C 8.671875 25.136719 8.199219 23.164062 8.269531 22.792969 C 8.304688 22.609375 8.886719 21.621094 9.652344 20.449219 C 10.507812 19.136719 11.417969 17.582031 12.226562 16.035156 L 13.476562 13.644531 L 13.542969 12.609375 L 13.609375 11.570312 L 14.667969 11.570312 L 14.726562 11.140625 C 14.757812 10.90625 14.785156 10.324219 14.785156 9.847656 C 14.785156 8.792969 15.03125 5.363281 15.160156 4.601562 C 15.273438 3.949219 15.917969 1.601562 15.984375 1.601562 C 16.050781 1.601562 16.695312 3.949219 16.808594 4.601562 C 16.941406 5.382812 17.183594 8.679688 17.183594 9.722656 C 17.183594 10.207031 17.210938 10.820312 17.242188 11.085938 L 17.300781 11.570312 L 18.363281 11.570312 L 18.429688 12.609375 L 18.492188 13.644531 L 19.75 16.046875 C 20.546875 17.566406 21.453125 19.128906 22.230469 20.3125 C 23.628906 22.445312 23.738281 22.636719 23.738281 22.972656 C 23.738281 23.351562 23.246094 25.136719 23.140625 25.140625 C 23.085938 25.144531 21.894531 23.96875 20.488281 22.535156 L 17.929688 19.921875 L 17.929688 20.707031 L 17.925781 21.492188 L 19.539062 24.074219 L 21.152344 26.652344 L 21.152344 27.332031 C 21.152344 27.9375 21.136719 28.007812 20.992188 27.964844 C 20.261719 27.753906 17.921875 27.167969 17.804688 27.167969 C 17.660156 27.167969 17.628906 27.234375 17.515625 27.746094 C 17.460938 27.988281 17.4375 28 16.871094 28 L 16.285156 28 L 16.230469 28.4375 C 16.199219 28.679688 16.144531 29.21875 16.113281 29.636719 C 16.078125 30.054688 16.019531 30.398438 15.984375 30.398438 C 15.949219 30.398438 15.890625 30.054688 15.855469 29.636719 Z M 15.855469 29.636719 "/>
</svg>
