<?xml version="1.0" encoding="UTF-8"?>
<svg xmlns="http://www.w3.org/2000/svg" xmlns:xlink="http://www.w3.org/1999/xlink" width="32" height="32" viewBox="0 0 32 32">
<path fill="none" stroke-width="57.587502" stroke-linecap="butt" stroke-linejoin="round" stroke="rgb(100%, 100%, 100%)" stroke-opacity="1" stroke-miterlimit="10" d="M 174.807129 515.571289 L 290 265.998535 L 405.192871 515.571289 " transform="matrix(0.0551724, 0, 0, 0.0551724, 0, 0)"/>
<path fill-rule="nonzero" fill="rgb(100%, 100%, 100%)" fill-opacity="1" d="M 16 17.851562 C 17.753906 17.851562 19.175781 16.429688 19.175781 14.675781 C 19.175781 12.921875 17.753906 11.5 16 11.5 C 14.246094 11.5 12.824219 12.921875 12.824219 14.675781 C 12.824219 16.429688 14.246094 17.851562 16 17.851562 Z M 16 17.851562 "/>
<path fill="none" stroke-width="38.391701" stroke-linecap="butt" stroke-linejoin="round" stroke="rgb(100%, 100%, 100%)" stroke-opacity="1" stroke-miterlimit="10" d="M 347.561035 515.571289 L 462.753906 515.571289 " transform="matrix(0.0551724, 0, 0, 0.0551724, 0, 0)"/>
<path fill="none" stroke-width="38.391701" stroke-linecap="butt" stroke-linejoin="round" stroke="rgb(100%, 100%, 100%)" stroke-opacity="1" stroke-miterlimit="10" d="M 117.246094 515.571289 L 232.438965 515.571289 " transform="matrix(0.0551724, 0, 0, 0.0551724, 0, 0)"/>
<path fill-rule="nonzero" fill="rgb(100%, 100%, 100%)" fill-opacity="1" d="M 27.648438 12.558594 L 27.4375 12.558594 C 27.121094 10.863281 26.484375 9.378906 25.53125 8.003906 L 25.53125 6.203125 C 25.53125 5.675781 25.109375 5.144531 24.472656 5.144531 L 22.777344 5.144531 C 21.296875 4.191406 19.8125 3.554688 18.117188 3.238281 L 18.117188 3.027344 C 18.117188 2.390625 17.695312 1.96875 17.058594 1.96875 L 14.941406 1.96875 C 14.410156 1.96875 13.882812 2.390625 13.882812 3.027344 L 13.882812 3.238281 C 12.1875 3.554688 10.703125 4.191406 9.328125 5.144531 L 7.527344 5.144531 C 6.890625 5.144531 6.46875 5.566406 6.46875 6.203125 L 6.46875 8.003906 C 5.515625 9.378906 4.878906 10.863281 4.5625 12.558594 L 4.351562 12.558594 C 3.820312 12.558594 3.292969 12.980469 3.292969 13.617188 L 3.292969 15.734375 C 3.292969 16.371094 3.714844 16.792969 4.351562 16.792969 L 4.5625 16.792969 C 4.878906 18.488281 5.515625 19.972656 6.46875 21.347656 L 6.46875 23.148438 C 6.46875 23.785156 6.890625 24.207031 7.527344 24.207031 L 9.328125 24.207031 C 10.703125 25.160156 12.1875 25.796875 13.882812 26.113281 L 13.882812 26.324219 C 13.882812 26.855469 14.304688 27.386719 14.941406 27.386719 L 17.058594 27.386719 C 17.589844 27.386719 18.117188 26.960938 18.117188 26.324219 L 18.117188 26.113281 C 19.8125 25.796875 21.296875 25.160156 22.671875 24.207031 L 24.472656 24.207031 C 25.003906 24.207031 25.53125 23.785156 25.53125 23.148438 L 25.53125 21.453125 C 26.484375 19.972656 27.121094 18.488281 27.4375 16.792969 L 27.648438 16.792969 C 28.179688 16.792969 28.710938 16.371094 28.710938 15.734375 L 28.710938 13.617188 C 28.710938 13.085938 28.285156 12.558594 27.648438 12.558594 Z M 24.472656 6.203125 L 24.472656 7.261719 L 22.355469 7.261719 L 22.355469 6.203125 Z M 14.941406 3.027344 L 17.058594 3.027344 L 17.058594 4.085938 L 14.941406 4.085938 Z M 7.527344 6.203125 L 9.644531 6.203125 L 9.644531 7.261719 L 7.527344 7.261719 Z M 4.351562 14.675781 L 4.351562 13.617188 L 6.46875 13.617188 L 6.46875 14.675781 Z M 7.527344 22.089844 L 7.527344 21.03125 L 9.644531 21.03125 L 9.644531 22.089844 Z M 17.058594 25.265625 L 14.941406 25.265625 L 14.941406 24.207031 L 17.058594 24.207031 Z M 24.472656 22.089844 L 22.355469 22.089844 L 22.355469 21.03125 L 24.472656 21.03125 Z M 24.15625 19.972656 L 22.355469 19.972656 C 21.824219 19.972656 21.296875 20.394531 21.296875 21.03125 L 21.296875 22.726562 C 20.34375 23.359375 19.28125 23.785156 18.117188 24.101562 L 18.117188 24.207031 C 18.117188 23.574219 17.695312 23.148438 17.058594 23.148438 L 14.941406 23.148438 C 14.410156 23.148438 13.882812 23.574219 13.882812 24.207031 C 12.71875 23.890625 11.65625 23.464844 10.703125 22.832031 L 10.703125 21.03125 C 10.703125 20.5 10.28125 19.972656 9.644531 19.972656 L 7.949219 19.972656 C 7.316406 19.019531 6.890625 17.960938 6.574219 16.792969 L 6.46875 16.792969 C 6.996094 16.792969 7.527344 16.371094 7.527344 15.734375 L 7.527344 13.617188 C 7.527344 13.085938 7.105469 12.558594 6.46875 12.558594 C 6.679688 11.394531 7.210938 10.332031 7.84375 9.378906 L 9.644531 9.378906 C 10.175781 9.378906 10.703125 8.957031 10.703125 8.320312 L 10.703125 6.628906 C 11.65625 5.992188 12.71875 5.566406 13.882812 5.25 L 13.882812 5.144531 C 13.882812 5.675781 14.304688 6.203125 14.941406 6.203125 L 17.058594 6.203125 C 17.589844 6.203125 18.117188 5.78125 18.117188 5.144531 C 19.28125 5.460938 20.34375 5.886719 21.296875 6.519531 L 21.296875 8.320312 C 21.296875 8.957031 21.71875 9.378906 22.355469 9.378906 L 24.050781 9.378906 C 24.683594 10.332031 25.109375 11.394531 25.425781 12.558594 C 24.894531 12.558594 24.472656 12.980469 24.472656 13.617188 L 24.472656 15.734375 C 24.472656 16.371094 24.894531 16.792969 25.53125 16.792969 C 25.320312 17.960938 24.789062 19.019531 24.15625 19.972656 Z M 27.648438 14.675781 L 25.53125 14.675781 L 25.53125 13.617188 L 27.648438 13.617188 Z M 27.648438 14.675781 "/>
</svg>
