<?xml version="1.0" encoding="UTF-8"?>
<svg xmlns="http://www.w3.org/2000/svg" xmlns:xlink="http://www.w3.org/1999/xlink" width="32" height="32" viewBox="0 0 32 32">
<path fill-rule="evenodd" fill="rgb(100%, 100%, 100%)" fill-opacity="1" d="M 20.667969 7.332031 C 22.132812 7.332031 23.332031 6.132812 23.332031 4.667969 C 23.332031 3.199219 22.132812 2 20.667969 2 C 19.199219 2 18 3.199219 18 4.667969 C 18 6.132812 19.199219 7.332031 20.667969 7.332031 Z M 17.601562 10.800781 L 18.667969 11.867188 C 20.398438 13.601562 22.667969 14.667969 25.464844 14.667969 L 25.464844 12 C 23.464844 12 21.867188 11.199219 20.667969 10 L 18.132812 7.464844 C 17.464844 6.933594 16.800781 6.667969 16 6.667969 C 15.199219 6.667969 14.535156 6.933594 14.132812 7.464844 L 10.398438 11.199219 C 9.867188 11.734375 9.601562 12.398438 9.601562 13.066406 C 9.601562 13.867188 9.867188 14.535156 10.398438 14.933594 L 14.667969 18.667969 L 14.667969 25.332031 L 17.332031 25.332031 L 17.332031 17.066406 L 14.398438 14 Z M 6.667969 26.667969 C 8.875 26.667969 10.667969 24.875 10.667969 22.667969 C 10.667969 20.457031 8.875 18.667969 6.667969 18.667969 C 4.457031 18.667969 2.667969 20.457031 2.667969 22.667969 C 2.667969 24.875 4.457031 26.667969 6.667969 26.667969 Z M 6.667969 29.332031 C 10.347656 29.332031 13.332031 26.347656 13.332031 22.667969 C 13.332031 18.984375 10.347656 16 6.667969 16 C 2.984375 16 0 18.984375 0 22.667969 C 0 26.347656 2.984375 29.332031 6.667969 29.332031 Z M 29.332031 22.667969 C 29.332031 24.875 27.542969 26.667969 25.332031 26.667969 C 23.125 26.667969 21.332031 24.875 21.332031 22.667969 C 21.332031 20.457031 23.125 18.667969 25.332031 18.667969 C 27.542969 18.667969 29.332031 20.457031 29.332031 22.667969 Z M 32 22.667969 C 32 26.347656 29.015625 29.332031 25.332031 29.332031 C 21.652344 29.332031 18.667969 26.347656 18.667969 22.667969 C 18.667969 18.984375 21.652344 16 25.332031 16 C 29.015625 16 32 18.984375 32 22.667969 Z M 32 22.667969 "/>
</svg>
