<?xml version="1.0" encoding="UTF-8"?>
<svg xmlns="http://www.w3.org/2000/svg" xmlns:xlink="http://www.w3.org/1999/xlink" width="32" height="32" viewBox="0 0 32 32">
<path fill-rule="evenodd" fill="rgb(100%, 100%, 100%)" fill-opacity="1" d="M 26.667969 5.332031 L 5.332031 5.332031 L 5.332031 26.667969 L 26.667969 26.667969 Z M 21.332031 8 L 24 8 L 24 10.667969 L 21.332031 10.667969 Z M 21.332031 13.332031 L 24 13.332031 L 24 16 L 21.332031 16 Z M 24 18.667969 L 21.332031 18.667969 L 21.332031 21.332031 L 24 21.332031 Z M 21.332031 24 L 24 24 L 24 26.667969 L 21.332031 26.667969 Z M 10.667969 8 L 8 8 L 8 10.667969 L 10.667969 10.667969 Z M 10.667969 13.332031 L 8 13.332031 L 8 16 L 10.667969 16 Z M 8 18.667969 L 10.667969 18.667969 L 10.667969 21.332031 L 8 21.332031 Z M 10.667969 24 L 8 24 L 8 26.667969 L 10.667969 26.667969 Z M 10.667969 24 "/>
</svg>
