<?xml version="1.0" encoding="UTF-8"?>
<svg xmlns="http://www.w3.org/2000/svg" xmlns:xlink="http://www.w3.org/1999/xlink" width="32" height="32" viewBox="0 0 32 32">
<defs>
<filter id="filter-remove-color" x="0%" y="0%" width="100%" height="100%">
<feColorMatrix color-interpolation-filters="sRGB" values="0 0 0 0 1 0 0 0 0 1 0 0 0 0 1 0 0 0 1 0" />
</filter>
<mask id="mask-0">
<g filter="url(#filter-remove-color)">
<rect x="-3.2" y="-3.2" width="38.4" height="38.4" fill="rgb(0%, 0%, 0%)" fill-opacity="0.5"/>
</g>
</mask>
<clipPath id="clip-0">
<rect x="0" y="0" width="32" height="32"/>
</clipPath>
<g id="source-7" clip-path="url(#clip-0)">
<path fill-rule="nonzero" fill="rgb(100%, 100%, 100%)" fill-opacity="1" d="M 26.667969 15.21875 L 24.945312 16.941406 C 24.550781 16.117188 23.882812 15.449219 23.058594 15.054688 L 26.667969 11.449219 Z M 26.667969 15.21875 "/>
<path fill-rule="nonzero" fill="rgb(100%, 100%, 100%)" fill-opacity="1" d="M 16.78125 5.332031 L 20.550781 5.332031 L 16.945312 8.941406 C 16.550781 8.117188 15.882812 7.449219 15.058594 7.054688 Z M 16.78125 5.332031 "/>
</g>
</defs>
<g mask="url(#mask-0)">
<use xlink:href="#source-7"/>
</g>
<path fill-rule="nonzero" fill="rgb(100%, 100%, 100%)" fill-opacity="1" d="M 29.332031 25.332031 L 29.332031 7.609375 C 29.332031 6.296875 28.8125 5.042969 27.886719 4.113281 C 26.957031 3.1875 25.703125 2.667969 24.390625 2.667969 L 6.667969 2.667969 C 4.457031 2.667969 2.667969 4.457031 2.667969 6.667969 L 2.667969 7.332031 C 2.667969 8.59375 3.257812 9.777344 4.265625 10.535156 L 9.382812 14.371094 C 9.351562 14.101562 9.332031 13.832031 9.332031 13.5625 L 9.332031 11 L 5.867188 8.398438 C 5.53125 8.148438 5.332031 7.753906 5.332031 7.332031 L 5.332031 6.667969 C 5.332031 5.929688 5.929688 5.332031 6.667969 5.332031 L 24.390625 5.332031 C 24.992188 5.332031 25.574219 5.574219 26 6 C 26.425781 6.425781 26.667969 7.003906 26.667969 7.609375 L 26.667969 25.332031 C 26.667969 26.070312 26.070312 26.667969 25.332031 26.667969 L 24.667969 26.667969 C 24.246094 26.667969 23.851562 26.46875 23.601562 26.132812 L 21 22.667969 L 18.4375 22.667969 C 18.167969 22.667969 17.898438 22.648438 17.628906 22.617188 L 21.464844 27.734375 C 22.222656 28.742188 23.40625 29.332031 24.667969 29.332031 L 25.332031 29.332031 C 27.542969 29.332031 29.332031 27.542969 29.332031 25.332031 Z M 29.332031 25.332031 "/>
<path fill-rule="nonzero" fill="rgb(100%, 100%, 100%)" fill-opacity="1" d="M 18.667969 15.332031 C 19.769531 15.332031 20.667969 14.4375 20.667969 13.332031 C 20.667969 12.230469 19.769531 11.332031 18.667969 11.332031 C 17.5625 11.332031 16.667969 12.230469 16.667969 13.332031 C 16.667969 14.4375 17.5625 15.332031 18.667969 15.332031 Z M 18.667969 15.332031 "/>
<path fill-rule="nonzero" fill="rgb(100%, 100%, 100%)" fill-opacity="1" d="M 12.734375 15.875 L 9.832031 18.292969 L 3.847656 22.949219 C 3.265625 23.398438 3.164062 24.238281 3.613281 24.820312 C 4.066406 25.398438 4.902344 25.503906 5.484375 25.050781 L 8.183594 22.953125 L 5.671875 25.78125 C 5.179688 26.332031 5.230469 27.175781 5.78125 27.664062 C 6.332031 28.152344 7.175781 28.101562 7.664062 27.550781 L 12.929688 21.628906 L 15.9375 19.121094 C 16.644531 19.6875 17.523438 20 18.4375 20 L 21.332031 20 C 22.070312 20 22.667969 19.402344 22.667969 18.667969 C 22.667969 17.929688 22.070312 17.332031 21.332031 17.332031 L 18.4375 17.332031 C 18.085938 17.332031 17.746094 17.191406 17.496094 16.941406 L 15.058594 14.503906 C 14.808594 14.253906 14.667969 13.914062 14.667969 13.5625 L 14.667969 10.667969 C 14.667969 9.929688 14.070312 9.332031 13.332031 9.332031 C 12.597656 9.332031 12 9.929688 12 10.667969 L 12 13.5625 C 12 14.394531 12.261719 15.203125 12.734375 15.875 Z M 12.734375 15.875 "/>
</svg>
