<?xml version="1.0" encoding="UTF-8"?>
<svg xmlns="http://www.w3.org/2000/svg" xmlns:xlink="http://www.w3.org/1999/xlink" width="12" height="12" viewBox="0 0 12 12" version="1.1">
<defs>
<filter id="alpha" filterUnits="objectBoundingBox" x="0%" y="0%" width="100%" height="100%">
  <feColorMatrix type="matrix" in="SourceGraphic" values="0 0 0 0 1 0 0 0 0 1 0 0 0 0 1 0 0 0 1 0"/>
</filter>
<mask id="mask0">
  <g filter="url(#alpha)">
<rect x="0" y="0" width="12" height="12" style="fill:rgb(0%,0%,0%);fill-opacity:0.5;stroke:none;"/>
  </g>
</mask>
<clipPath id="clip1">
  <rect x="0" y="0" width="12" height="12"/>
</clipPath>
<g id="surface5" clip-path="url(#clip1)">
<path style=" stroke:none;fill-rule:nonzero;fill:rgb(100%,100%,100%);fill-opacity:1;" d="M 3 5 C 3.277344 5 3.5 4.777344 3.5 4.5 C 3.5 4.222656 3.277344 4 3 4 C 2.722656 4 2.5 4.222656 2.5 4.5 C 2.5 4.777344 2.722656 5 3 5 Z M 3 5 "/>
<path style=" stroke:none;fill-rule:nonzero;fill:rgb(100%,100%,100%);fill-opacity:1;" d="M 5 7 C 5.277344 7 5.5 6.777344 5.5 6.5 C 5.5 6.222656 5.277344 6 5 6 C 4.722656 6 4.5 6.222656 4.5 6.5 C 4.5 6.777344 4.722656 7 5 7 Z M 5 7 "/>
<path style=" stroke:none;fill-rule:nonzero;fill:rgb(100%,100%,100%);fill-opacity:1;" d="M 7 7 C 7.277344 7 7.5 6.777344 7.5 6.5 C 7.5 6.222656 7.277344 6 7 6 C 6.722656 6 6.5 6.222656 6.5 6.5 C 6.5 6.777344 6.722656 7 7 7 Z M 7 7 "/>
<path style=" stroke:none;fill-rule:nonzero;fill:rgb(100%,100%,100%);fill-opacity:1;" d="M 9.5 6.5 C 9.5 6.777344 9.277344 7 9 7 C 8.722656 7 8.5 6.777344 8.5 6.5 C 8.5 6.222656 8.722656 6 9 6 C 9.277344 6 9.5 6.222656 9.5 6.5 Z M 9.5 6.5 "/>
<path style=" stroke:none;fill-rule:nonzero;fill:rgb(100%,100%,100%);fill-opacity:1;" d="M 3 7 C 3.277344 7 3.5 6.777344 3.5 6.5 C 3.5 6.222656 3.277344 6 3 6 C 2.722656 6 2.5 6.222656 2.5 6.5 C 2.5 6.777344 2.722656 7 3 7 Z M 3 7 "/>
<path style=" stroke:none;fill-rule:nonzero;fill:rgb(100%,100%,100%);fill-opacity:1;" d="M 5.5 3 C 5.5 3.277344 5.277344 3.5 5 3.5 C 4.722656 3.5 4.5 3.277344 4.5 3 C 4.5 2.722656 4.722656 2.5 5 2.5 C 5.277344 2.5 5.5 2.722656 5.5 3 Z M 5.5 3 "/>
<path style=" stroke:none;fill-rule:nonzero;fill:rgb(100%,100%,100%);fill-opacity:1;" d="M 5 5 C 5.277344 5 5.5 4.777344 5.5 4.5 C 5.5 4.222656 5.277344 4 5 4 C 4.722656 4 4.5 4.222656 4.5 4.5 C 4.5 4.777344 4.722656 5 5 5 Z M 5 5 "/>
<path style=" stroke:none;fill-rule:nonzero;fill:rgb(100%,100%,100%);fill-opacity:1;" d="M 7.5 3 C 7.5 3.277344 7.277344 3.5 7 3.5 C 6.722656 3.5 6.5 3.277344 6.5 3 C 6.5 2.722656 6.722656 2.5 7 2.5 C 7.277344 2.5 7.5 2.722656 7.5 3 Z M 7.5 3 "/>
<path style=" stroke:none;fill-rule:nonzero;fill:rgb(100%,100%,100%);fill-opacity:1;" d="M 7.5 4.5 C 7.5 4.777344 7.277344 5 7 5 C 6.722656 5 6.5 4.777344 6.5 4.5 C 6.5 4.222656 6.722656 4 7 4 C 7.277344 4 7.5 4.222656 7.5 4.5 Z M 7.5 4.5 "/>
<path style=" stroke:none;fill-rule:nonzero;fill:rgb(100%,100%,100%);fill-opacity:1;" d="M 9 5 C 9.277344 5 9.5 4.777344 9.5 4.5 C 9.5 4.222656 9.277344 4 9 4 C 8.722656 4 8.5 4.222656 8.5 4.5 C 8.5 4.777344 8.722656 5 9 5 Z M 9 5 "/>
</g>
</defs>
<g id="surface1">
<use xlink:href="#surface5" mask="url(#mask0)"/>
<path style=" stroke:none;fill-rule:evenodd;fill:rgb(100%,100%,100%);fill-opacity:1;" d="M 8.59375 5.378906 L 9 7 C 9.277344 7 9.5 7.222656 9.5 7.5 C 9.5 7.777344 9.277344 8 9 8 L 9 10.5 C 9 10.777344 8.777344 11 8.5 11 C 8.222656 11 8 10.777344 8 10.5 L 8 10 L 4 10 L 4 10.5 C 4 10.777344 3.777344 11 3.5 11 C 3.222656 11 3 10.777344 3 10.5 L 3 8 C 2.722656 8 2.5 7.777344 2.5 7.5 C 2.5 7.222656 2.722656 7 3 7 L 3.40625 5.378906 C 3.460938 5.15625 3.660156 5 3.890625 5 L 8.109375 5 C 8.339844 5 8.539062 5.15625 8.59375 5.378906 Z M 4.03125 7 L 4.28125 6 L 7.71875 6 L 7.96875 7 Z M 4 8.5 C 4 8.222656 4.222656 8 4.5 8 C 4.777344 8 5 8.222656 5 8.5 C 5 8.777344 4.777344 9 4.5 9 C 4.222656 9 4 8.777344 4 8.5 Z M 7 8.5 C 7 8.222656 7.222656 8 7.5 8 C 7.777344 8 8 8.222656 8 8.5 C 8 8.777344 7.777344 9 7.5 9 C 7.222656 9 7 8.777344 7 8.5 Z M 7 8.5 "/>
<path style=" stroke:none;fill-rule:nonzero;fill:rgb(100%,100%,100%);fill-opacity:1;" d="M 6 1 C 5.449219 1 5 1.449219 5 2 L 4.5 2 C 4.222656 2 4 2.222656 4 2.5 C 4 2.777344 4.222656 3 4.5 3 L 7.5 3 C 7.777344 3 8 2.777344 8 2.5 C 8 2.222656 7.777344 2 7.5 2 L 7 2 C 7 1.449219 6.550781 1 6 1 Z M 6 1 "/>
</g>
</svg>
