<?xml version="1.0" encoding="UTF-8"?>
<svg xmlns="http://www.w3.org/2000/svg" xmlns:xlink="http://www.w3.org/1999/xlink" width="12" height="12" viewBox="0 0 12 12">
<defs>
<filter id="filter-remove-color" x="0%" y="0%" width="100%" height="100%">
<feColorMatrix color-interpolation-filters="sRGB" values="0 0 0 0 1 0 0 0 0 1 0 0 0 0 1 0 0 0 1 0" />
</filter>
<mask id="mask-0">
<g filter="url(#filter-remove-color)">
<rect x="-1.2" y="-1.2" width="14.4" height="14.4" fill="rgb(0%, 0%, 0%)" fill-opacity="0.2"/>
</g>
</mask>
<clipPath id="clip-0">
<rect x="0" y="0" width="12" height="12"/>
</clipPath>
<g id="source-6" clip-path="url(#clip-0)">
<path fill-rule="nonzero" fill="rgb(100%, 100%, 100%)" fill-opacity="1" d="M 2 8.75 C 2 8.613281 2.113281 8.5 2.25 8.5 L 9.75 8.5 C 9.886719 8.5 10 8.613281 10 8.75 C 10 8.886719 9.886719 9 9.75 9 L 2.25 9 C 2.113281 9 2 8.886719 2 8.75 Z M 2 8.75 "/>
</g>
</defs>
<g mask="url(#mask-0)">
<use xlink:href="#source-6"/>
</g>
<path fill-rule="evenodd" fill="rgb(100%, 100%, 100%)" fill-opacity="1" d="M 5.5 2.5 C 5.5 2.222656 5.277344 2 5 2 L 2.917969 2 C 2.675781 2 2.46875 2.171875 2.425781 2.410156 L 1.820312 5.730469 C 1.652344 6.652344 2.363281 7.5 3.296875 7.5 L 4.75 7.5 C 4.058594 7.5 3.5 8.058594 3.5 8.75 C 3.5 8.058594 2.941406 7.5 2.25 7.5 C 1.558594 7.5 1 8.058594 1 8.75 C 1 9.441406 1.558594 10 2.25 10 C 2.941406 10 3.5 9.441406 3.5 8.75 C 3.5 9.441406 4.058594 10 4.75 10 C 5.441406 10 6 9.441406 6 8.75 C 6 9.441406 6.558594 10 7.25 10 C 7.941406 10 8.5 9.441406 8.5 8.75 C 8.5 9.441406 9.058594 10 9.75 10 C 10.441406 10 11 9.441406 11 8.75 C 11 8.058594 10.441406 7.5 9.75 7.5 C 9.058594 7.5 8.5 8.058594 8.5 8.75 C 8.5 8.058594 7.941406 7.5 7.25 7.5 L 9.351562 7.5 C 9.988281 7.5 10.5 6.988281 10.5 6.351562 C 10.5 5.847656 10.167969 5.398438 9.683594 5.253906 L 8.660156 4.949219 L 8.476562 5.351562 C 8.421875 5.480469 8.273438 5.535156 8.148438 5.476562 C 8.019531 5.421875 7.964844 5.273438 8.023438 5.148438 L 8.179688 4.804688 L 7.699219 4.660156 L 7.472656 5.113281 C 7.410156 5.234375 7.261719 5.285156 7.136719 5.222656 C 7.015625 5.160156 6.964844 5.011719 7.027344 4.886719 L 7.214844 4.515625 L 6.746094 4.375 L 6.46875 4.871094 C 6.402344 4.992188 6.25 5.035156 6.128906 4.96875 C 6.007812 4.902344 5.964844 4.75 6.03125 4.628906 L 6.253906 4.226562 L 5.855469 4.105469 C 5.644531 4.042969 5.5 3.847656 5.5 3.628906 Z M 7.25 7.5 C 6.558594 7.5 6 8.058594 6 8.75 C 6 8.058594 5.441406 7.5 4.75 7.5 Z M 2.25 9 C 2.386719 9 2.5 8.886719 2.5 8.75 C 2.5 8.613281 2.386719 8.5 2.25 8.5 C 2.113281 8.5 2 8.613281 2 8.75 C 2 8.886719 2.113281 9 2.25 9 Z M 4.75 9 C 4.886719 9 5 8.886719 5 8.75 C 5 8.613281 4.886719 8.5 4.75 8.5 C 4.613281 8.5 4.5 8.613281 4.5 8.75 C 4.5 8.886719 4.613281 9 4.75 9 Z M 7.5 8.75 C 7.5 8.886719 7.386719 9 7.25 9 C 7.113281 9 7 8.886719 7 8.75 C 7 8.613281 7.113281 8.5 7.25 8.5 C 7.386719 8.5 7.5 8.613281 7.5 8.75 Z M 9.75 9 C 9.886719 9 10 8.886719 10 8.75 C 10 8.613281 9.886719 8.5 9.75 8.5 C 9.613281 8.5 9.5 8.613281 9.5 8.75 C 9.5 8.886719 9.613281 9 9.75 9 Z M 9.75 9 "/>
</svg>
