<?xml version="1.0" encoding="UTF-8"?>
<svg xmlns="http://www.w3.org/2000/svg" xmlns:xlink="http://www.w3.org/1999/xlink" width="12" height="12" viewBox="0 0 12 12" version="1.1">
<g id="surface1">
<path style=" stroke:none;fill-rule:nonzero;fill:rgb(100%,100%,100%);fill-opacity:1;" d="M 3.144531 6.335938 C 2.832031 6.335938 2.5625 6.527344 2.445312 6.800781 L 2.386719 7.53125 L 2.386719 8.332031 C 2.386719 8.429688 2.40625 8.523438 2.4375 8.609375 L 0.800781 8.609375 L 0.800781 11.304688 L 1.3125 11.304688 L 1.3125 9.382812 L 6.570312 9.382812 L 6.570312 11.304688 L 7.082031 11.304688 L 7.082031 8.609375 L 5.445312 8.609375 C 5.480469 8.523438 5.496094 8.429688 5.496094 8.332031 L 5.496094 7.53125 L 5.4375 6.800781 C 5.324219 6.527344 5.054688 6.335938 4.738281 6.335938 Z M 2.984375 7.355469 L 3.164062 7.355469 L 3.164062 8.609375 L 2.984375 8.609375 Z M 4.71875 7.355469 L 4.898438 7.355469 L 4.898438 8.609375 L 4.71875 8.609375 Z M 4.71875 7.355469 "/>
<path style=" stroke:none;fill-rule:nonzero;fill:rgb(100%,100%,100%);fill-opacity:1;" d="M 3.941406 4.160156 C 3.429688 4.160156 3.015625 4.574219 3.015625 5.085938 C 3.015625 5.601562 3.429688 6.015625 3.941406 6.015625 C 4.453125 6.015625 4.871094 5.601562 4.871094 5.085938 C 4.871094 4.574219 4.453125 4.160156 3.941406 4.160156 Z M 3.941406 4.160156 "/>
<path style=" stroke:none;fill-rule:nonzero;fill:rgb(100%,100%,100%);fill-opacity:1;" d="M 8.257812 2.386719 C 8.152344 2.386719 8.070312 2.433594 8.011719 2.523438 C 7.957031 2.617188 7.925781 2.746094 7.925781 2.914062 C 7.925781 3.085938 7.953125 3.214844 8.011719 3.308594 C 8.070312 3.398438 8.152344 3.445312 8.257812 3.445312 C 8.363281 3.445312 8.445312 3.398438 8.503906 3.308594 C 8.558594 3.214844 8.585938 3.085938 8.585938 2.914062 C 8.585938 2.746094 8.558594 2.617188 8.5 2.523438 C 8.445312 2.433594 8.363281 2.386719 8.257812 2.386719 Z M 8.257812 2.011719 C 8.535156 2.011719 8.75 2.09375 8.910156 2.253906 C 9.070312 2.414062 9.148438 2.632812 9.148438 2.914062 C 9.148438 3.195312 9.070312 3.417969 8.910156 3.578125 C 8.75 3.742188 8.535156 3.820312 8.257812 3.820312 C 7.980469 3.820312 7.765625 3.742188 7.605469 3.578125 C 7.445312 3.417969 7.367188 3.195312 7.367188 2.914062 C 7.367188 2.636719 7.445312 2.414062 7.605469 2.253906 C 7.765625 2.09375 7.980469 2.011719 8.257812 2.011719 Z M 6.21875 3.820312 L 5.726562 3.820312 L 7.800781 0.375 L 8.296875 0.375 Z M 5.761719 0.375 C 6.039062 0.375 6.253906 0.457031 6.410156 0.617188 C 6.570312 0.777344 6.648438 1 6.648438 1.277344 C 6.648438 1.558594 6.570312 1.78125 6.410156 1.941406 C 6.253906 2.105469 6.039062 2.183594 5.761719 2.183594 C 5.484375 2.183594 5.269531 2.105469 5.109375 1.941406 C 4.953125 1.78125 4.875 1.558594 4.875 1.277344 C 4.875 1 4.953125 0.777344 5.109375 0.617188 C 5.269531 0.457031 5.484375 0.375 5.761719 0.375 Z M 5.761719 0.75 C 5.65625 0.75 5.574219 0.796875 5.515625 0.886719 C 5.457031 0.980469 5.429688 1.109375 5.429688 1.277344 C 5.429688 1.449219 5.457031 1.582031 5.515625 1.675781 C 5.574219 1.765625 5.65625 1.8125 5.761719 1.8125 C 5.867188 1.8125 5.949219 1.765625 6.007812 1.675781 C 6.0625 1.582031 6.09375 1.449219 6.09375 1.277344 C 6.09375 1.109375 6.0625 0.980469 6.007812 0.886719 C 5.949219 0.796875 5.867188 0.75 5.761719 0.75 Z M 5.761719 0.75 "/>
<path style=" stroke:none;fill-rule:nonzero;fill:rgb(100%,100%,100%);fill-opacity:1;" d="M 9.535156 1.703125 L 11.550781 1.703125 L 11.550781 2.269531 L 9.535156 2.269531 Z M 9.535156 1.703125 "/>
<path style=" stroke:none;fill-rule:nonzero;fill:rgb(100%,100%,100%);fill-opacity:1;" d="M 7.582031 4.410156 L 7.582031 5.628906 L 8.796875 5.628906 L 8.796875 6.179688 L 7.582031 6.179688 L 7.582031 7.398438 L 7.027344 7.398438 L 7.027344 6.179688 L 5.8125 6.179688 L 5.8125 5.628906 L 7.027344 5.628906 L 7.027344 4.410156 Z M 7.582031 4.410156 "/>
<path style=" stroke:none;fill-rule:nonzero;fill:rgb(100%,100%,100%);fill-opacity:1;" d="M 10.667969 4.222656 L 11.101562 4.222656 L 10.074219 7.507812 L 9.644531 7.507812 Z M 10.667969 4.222656 "/>
</g>
</svg>
