<?xml version="1.0" encoding="UTF-8"?>
<svg xmlns="http://www.w3.org/2000/svg" xmlns:xlink="http://www.w3.org/1999/xlink" width="12" height="12" viewBox="0 0 12 12" version="1.1">
<g id="surface1">
<path style=" stroke:none;fill-rule:nonzero;fill:rgb(100%,100%,100%);fill-opacity:1;" d="M 7 1 C 7 1.277344 6.777344 1.5 6.5 1.5 C 6.222656 1.5 6 1.277344 6 1 C 6 0.722656 6.222656 0.5 6.5 0.5 C 6.777344 0.5 7 0.722656 7 1 Z M 7 1 "/>
<path style=" stroke:none;fill-rule:nonzero;fill:rgb(100%,100%,100%);fill-opacity:1;" d="M 5.5 1.5 C 5.5 1.777344 5.277344 2 5 2 C 4.722656 2 4.5 1.777344 4.5 1.5 C 4.5 1.222656 4.722656 1 5 1 C 5.277344 1 5.5 1.222656 5.5 1.5 Z M 5.5 1.5 "/>
<path style=" stroke:none;fill-rule:nonzero;fill:rgb(100%,100%,100%);fill-opacity:1;" d="M 10.609375 1.988281 C 10.878906 1.929688 11.046875 1.660156 10.988281 1.390625 C 10.929688 1.121094 10.660156 0.953125 10.390625 1.011719 L 1.390625 3.011719 C 1.121094 3.070312 0.953125 3.339844 1.011719 3.609375 C 1.070312 3.878906 1.339844 4.046875 1.609375 3.988281 Z M 10.609375 1.988281 "/>
<path style=" stroke:none;fill-rule:evenodd;fill:rgb(100%,100%,100%);fill-opacity:1;" d="M 1 7 C 1 5.894531 1.894531 5 3 5 L 4.140625 5 L 4.523438 3.851562 L 5.660156 3.597656 L 5.195312 5 L 6.804688 5 L 6.292969 3.460938 L 7.273438 3.242188 L 7.859375 5 L 9 5 C 10.105469 5 11 5.894531 11 7 L 11 10 C 11 10.550781 10.550781 11 10 11 L 2 11 C 1.449219 11 1 10.550781 1 10 Z M 8 6 L 9 6 C 9.550781 6 10 6.449219 10 7 L 10 9 L 8 9 Z M 3 6 C 2.449219 6 2 6.449219 2 7 L 2 9 L 4 9 L 4 6 Z M 5 6 L 7 6 L 7 10 L 5 10 Z M 5 6 "/>
</g>
</svg>
