<?xml version="1.0" encoding="UTF-8"?>
<svg xmlns="http://www.w3.org/2000/svg" xmlns:xlink="http://www.w3.org/1999/xlink" width="32" height="32" viewBox="0 0 32 32">
<path fill-rule="nonzero" fill="rgb(100%, 100%, 100%)" fill-opacity="1" d="M 22.667969 12 L 22.667969 21.332031 L 18.667969 25.332031 L 8.976562 25.332031 C 8.515625 24.535156 7.652344 24 6.667969 24 C 5.195312 24 4 25.195312 4 26.667969 C 4 28.140625 5.195312 29.332031 6.667969 29.332031 C 7.652344 29.332031 8.515625 28.796875 8.976562 28 L 20 28 L 25.332031 22.667969 L 25.332031 9.332031 L 21.332031 9.332031 L 21.332031 12 Z M 22.667969 12 "/>
<path fill-rule="nonzero" fill="rgb(100%, 100%, 100%)" fill-opacity="1" d="M 24 29.332031 C 23.261719 29.332031 22.597656 29.035156 22.113281 28.550781 L 25.886719 24.78125 C 26.367188 25.261719 26.667969 25.929688 26.667969 26.667969 C 26.667969 28.140625 25.472656 29.332031 24 29.332031 Z M 24 29.332031 "/>
<path fill-rule="nonzero" fill="rgb(100%, 100%, 100%)" fill-opacity="1" d="M 16 2.667969 C 16 4.140625 14.804688 5.332031 13.332031 5.332031 C 11.859375 5.332031 10.667969 4.140625 10.667969 2.667969 C 10.667969 1.195312 11.859375 0 13.332031 0 C 14.804688 0 16 1.195312 16 2.667969 Z M 16 2.667969 "/>
<path fill-rule="nonzero" fill="rgb(100%, 100%, 100%)" fill-opacity="1" d="M 15.585938 7.90625 C 15.632812 7.933594 15.683594 7.964844 15.730469 7.996094 L 17.402344 9.109375 C 17.621094 9.253906 17.878906 9.332031 18.140625 9.332031 L 20 9.332031 L 20 12 L 18.140625 12 C 17.382812 12 16.640625 11.785156 16 11.378906 L 16 16.78125 L 17.496094 18.277344 C 18.246094 19.027344 18.667969 20.042969 18.667969 21.105469 L 18.667969 25.332031 L 16 25.332031 L 16 21.105469 C 16 20.75 15.859375 20.410156 15.609375 20.160156 L 14.113281 18.667969 L 13.332031 18.667969 L 13.332031 25.332031 L 10.667969 25.332031 L 10.667969 9.332031 C 10.667969 7.859375 11.859375 6.667969 13.332031 6.667969 C 14.28125 6.667969 15.113281 7.160156 15.585938 7.90625 Z M 15.585938 7.90625 "/>
</svg>
