<?xml version="1.0" encoding="UTF-8"?>
<svg xmlns="http://www.w3.org/2000/svg" xmlns:xlink="http://www.w3.org/1999/xlink" width="12" height="12" viewBox="0 0 12 12" version="1.1">
<g id="surface1">
<path style=" stroke:none;fill-rule:evenodd;fill:rgb(26.666668%,26.666668%,26.666668%);fill-opacity:1;" d="M 10 1.25 C 10.414062 1.25 10.75 1.585938 10.75 2 L 10.75 10 C 10.75 10.414062 10.414062 10.75 10 10.75 C 9.585938 10.75 9.25 10.414062 9.25 10 L 9.25 9.25 L 2.5 9.25 C 1.808594 9.25 1.25 8.691406 1.25 8 L 1.25 4 C 1.25 3.308594 1.808594 2.75 2.5 2.75 L 9.25 2.75 L 9.25 2 C 9.25 1.585938 9.585938 1.25 10 1.25 Z M 9.25 4.25 L 9.25 7.75 L 5.558594 7.75 L 8.359375 4.25 Z M 6.4375 4.25 L 3.640625 7.75 L 2.75 7.75 L 2.75 4.25 Z M 6.4375 4.25 "/>
</g>
</svg>
