<?xml version="1.0" encoding="UTF-8"?>
<svg xmlns="http://www.w3.org/2000/svg" xmlns:xlink="http://www.w3.org/1999/xlink" width="32" height="32" viewBox="0 0 32 32">
<path fill-rule="evenodd" fill="rgb(34.901961%, 22.352941%, 2.352941%)" fill-opacity="1" d="M 25.3125 24.011719 C 24.578125 24.023438 23.988281 24.628906 24 25.367188 L 24 28 C 24 28.738281 24.597656 29.332031 25.332031 29.332031 C 26.070312 29.332031 26.667969 28.738281 26.667969 28 L 26.667969 25.367188 C 26.671875 25.007812 26.53125 24.660156 26.277344 24.402344 C 26.019531 24.148438 25.675781 24.007812 25.3125 24.011719 Z M 25.3125 24.011719 "/>
<path fill-rule="evenodd" fill="rgb(34.901961%, 22.352941%, 2.352941%)" fill-opacity="1" d="M 6.648438 24 C 5.910156 24.011719 5.320312 24.617188 5.332031 25.351562 L 5.332031 27.980469 C 5.332031 28.714844 5.929688 29.3125 6.667969 29.3125 C 7.402344 29.3125 8 28.714844 8 27.980469 L 8 25.351562 C 8.003906 24.992188 7.863281 24.644531 7.609375 24.390625 C 7.355469 24.136719 7.007812 23.996094 6.648438 24 Z M 6.648438 24 "/>
<path fill-rule="nonzero" fill="rgb(34.901961%, 22.352941%, 2.352941%)" fill-opacity="1" d="M 4 2.667969 C 3.261719 2.667969 2.667969 3.261719 2.667969 4 L 2.667969 25.332031 C 2.667969 26.070312 3.261719 26.667969 4 26.667969 L 28 26.667969 C 28.738281 26.667969 29.332031 26.070312 29.332031 25.332031 L 29.332031 4 C 29.332031 3.261719 28.738281 2.667969 28 2.667969 Z M 5.332031 5.332031 L 26.667969 5.332031 L 26.667969 24 L 5.332031 24 Z M 5.332031 5.332031 "/>
<path fill-rule="nonzero" fill="rgb(34.901961%, 22.352941%, 2.352941%)" fill-opacity="1" d="M 8.667969 6.667969 L 8.601562 6.667969 L 8.519531 6.6875 C 8.375 6.71875 8.234375 6.800781 8.140625 6.914062 C 8.046875 7.019531 8 7.160156 8 7.300781 C 8 8.613281 8.945312 9.828125 10.375 10.71875 C 11.152344 11.214844 12.105469 11.613281 13.167969 11.875 C 12.851562 12.09375 12.574219 12.359375 12.332031 12.640625 C 11.96875 12.070312 11.359375 11.699219 10.6875 11.640625 C 9.566406 11.492188 8.441406 11.785156 8.394531 11.800781 C 8.246094 11.84375 8.125 11.949219 8.058594 12.085938 C 7.992188 12.21875 7.980469 12.375 8.039062 12.507812 C 8.171875 12.808594 8.90625 14.308594 10.019531 14.621094 C 10.460938 14.738281 10.921875 14.765625 11.375 14.699219 C 11.347656 14.894531 11.332031 15.085938 11.332031 15.292969 C 11.332031 17.753906 14.121094 22.667969 16 22.667969 C 17.878906 22.667969 20.667969 17.753906 20.667969 15.292969 C 20.667969 15.09375 20.652344 14.894531 20.625 14.691406 C 21.078125 14.746094 21.535156 14.722656 21.980469 14.621094 C 23.085938 14.3125 23.828125 12.808594 23.960938 12.507812 C 24.015625 12.371094 24.011719 12.214844 23.941406 12.085938 C 23.875 11.949219 23.753906 11.84375 23.605469 11.800781 C 22.855469 11.613281 22.082031 11.5625 21.3125 11.648438 C 20.640625 11.707031 20.03125 12.074219 19.667969 12.648438 C 19.421875 12.355469 19.140625 12.097656 18.832031 11.875 C 19.886719 11.605469 20.820312 11.207031 21.605469 10.71875 C 23.035156 9.828125 24 8.613281 24 7.300781 C 24 7.21875 23.984375 7.140625 23.953125 7.066406 C 23.917969 6.992188 23.867188 6.921875 23.808594 6.867188 C 23.679688 6.746094 23.507812 6.675781 23.332031 6.679688 C 23.160156 6.679688 22.992188 6.742188 22.859375 6.859375 C 22.796875 6.914062 22.75 6.984375 22.714844 7.058594 C 22.679688 7.136719 22.664062 7.21875 22.667969 7.300781 C 22.667969 8.027344 22.039062 8.960938 20.851562 9.699219 C 20.488281 9.933594 20.058594 10.132812 19.605469 10.320312 C 20.277344 9.453125 20.648438 8.394531 20.667969 7.300781 C 20.667969 7.21875 20.652344 7.140625 20.621094 7.066406 C 20.585938 6.992188 20.535156 6.921875 20.472656 6.867188 C 20.347656 6.746094 20.175781 6.675781 20 6.679688 C 19.824219 6.679688 19.65625 6.746094 19.527344 6.859375 C 19.464844 6.914062 19.414062 6.984375 19.378906 7.058594 C 19.347656 7.136719 19.332031 7.21875 19.332031 7.300781 C 19.332031 8.160156 18.953125 9.125 18.332031 9.832031 C 17.765625 10.546875 16.910156 10.972656 16 11 C 15.089844 10.976562 14.238281 10.554688 13.667969 9.847656 C 13.050781 9.140625 12.699219 8.246094 12.667969 7.3125 C 12.667969 7.21875 12.648438 7.125 12.605469 7.039062 C 12.5625 6.953125 12.5 6.878906 12.421875 6.820312 C 12.257812 6.699219 12.050781 6.652344 11.851562 6.691406 C 11.707031 6.726562 11.566406 6.808594 11.472656 6.921875 C 11.382812 7.027344 11.332031 7.164062 11.332031 7.308594 C 11.332031 8.375 11.734375 9.453125 12.421875 10.347656 C 11.96875 10.175781 11.535156 9.964844 11.125 9.714844 C 9.933594 8.960938 9.332031 8.027344 9.332031 7.308594 C 9.339844 7.222656 9.324219 7.136719 9.292969 7.058594 C 9.257812 6.984375 9.207031 6.914062 9.148438 6.859375 C 9.015625 6.738281 8.84375 6.667969 8.667969 6.667969 Z M 13.667969 15.292969 C 14.21875 15.292969 14.667969 15.707031 14.667969 16.214844 C 14.667969 16.71875 14.21875 17.132812 13.667969 17.132812 C 13.113281 17.132812 12.667969 16.71875 12.667969 16.214844 C 12.667969 15.707031 13.113281 15.292969 13.667969 15.292969 Z M 18.332031 15.292969 C 18.886719 15.292969 19.332031 15.707031 19.332031 16.214844 C 19.332031 16.71875 18.886719 17.132812 18.332031 17.132812 C 17.78125 17.132812 17.332031 16.71875 17.332031 16.214844 C 17.332031 15.707031 17.78125 15.292969 18.332031 15.292969 Z M 16 19.59375 C 16.554688 19.59375 17 19.671875 17 20.058594 C 17 20.433594 16.554688 20.980469 16 20.980469 C 15.445312 20.980469 15 20.433594 15 20.054688 C 15 19.671875 15.445312 19.59375 16 19.59375 Z M 16 19.59375 "/>
</svg>
