<?xml version="1.0" encoding="UTF-8"?>
<svg xmlns="http://www.w3.org/2000/svg" xmlns:xlink="http://www.w3.org/1999/xlink" width="32" height="32" viewBox="0 0 32 32">
<path fill-rule="nonzero" fill="rgb(100%, 100%, 100%)" fill-opacity="1" d="M 6.332031 25.144531 L 26.21875 25.144531 C 26.21875 25.144531 24 28.257812 22.050781 28.746094 C 21.046875 28.996094 19.832031 27.949219 18.800781 27.929688 C 17.816406 27.90625 16.585938 28.957031 15.601562 28.933594 C 14.472656 28.902344 13.082031 27.761719 12.035156 27.773438 C 10.761719 27.792969 10.039062 28.628906 9.105469 28.695312 C 8.054688 28.769531 6.648438 28.617188 6.648438 28.617188 Z M 6.332031 25.144531 "/>
<path fill-rule="nonzero" fill="rgb(100%, 100%, 100%)" fill-opacity="1" d="M 13.199219 3.847656 L 13.199219 24.160156 L 1.144531 24.160156 Z M 13.199219 3.847656 "/>
<path fill-rule="nonzero" fill="rgb(100%, 100%, 100%)" fill-opacity="1" d="M 14.203125 7.753906 C 18.613281 11.476562 25.214844 24.59375 23.242188 23.9375 C 19.179688 22.578125 14.089844 24.269531 14.089844 24.269531 C 14.089844 24.269531 14.210938 11.195312 14.203125 7.753906 Z M 14.203125 7.753906 "/>
<path fill-rule="nonzero" fill="rgb(100%, 100%, 100%)" fill-opacity="1" stroke-width="11.5757" stroke-linecap="round" stroke-linejoin="round" stroke="rgb(100%, 100%, 100%)" stroke-opacity="1" stroke-miterlimit="4" d="M 528.740234 108.820801 C 528.952637 70.800781 489.729004 38.869629 452.912598 46.940918 C 422.043457 52.250977 396.696777 82.412109 399.812012 114.414062 C 401.086426 135.866699 413.759766 155.83252 432.026367 166.594238 C 439.602051 176.364746 429.54834 190.949707 437.69043 200.578613 C 444.487305 207.163086 453.408203 212.614746 456.452637 221.889648 C 454.399414 229.32373 446.398926 232.651367 442.717285 238.740234 C 446.611328 244.899902 455.88623 248.510742 455.88623 256.865234 C 452.346191 262.883301 446.044922 266.635742 442.29248 272.229004 C 446.398926 278.671875 456.098633 282.424316 456.098633 291.132812 C 452.700195 297.22168 445.620117 300.549316 442.858887 306.921387 C 450.788574 315.700684 458.930664 324.763184 468.347168 332.126465 C 473.657227 332.055664 476.560059 324.833984 480.949707 321.931152 C 486.188965 315.983887 495.817871 310.957031 493.835449 301.540527 C 492.844238 288.796387 494.118652 275.769043 493.623047 262.883301 C 493.623047 231.801758 492.915039 200.366211 494.401855 169.42627 C 501.623535 160.930176 512.95166 156.398926 518.049316 145.92041 C 525.270996 135.087891 529.165039 121.918945 528.740234 108.820801 Z M 486.472168 82.907715 C 486.896973 101.52832 460.700684 112.644043 448.027344 99.121094 C 436.062012 88.217773 439.885254 64.782715 455.88623 60.180664 C 470.187988 55.083008 488.029785 66.977539 486.472168 82.907715 Z M 486.472168 82.907715 " transform="matrix(0.0551724, 0, 0, 0.0551724, 0, 0)"/>
</svg>
