<?xml version="1.0" encoding="UTF-8"?>
<svg xmlns="http://www.w3.org/2000/svg" xmlns:xlink="http://www.w3.org/1999/xlink" width="32" height="32" viewBox="0 0 32 32">
<path fill="none" stroke-width="30" stroke-linecap="round" stroke-linejoin="round" stroke="rgb(100%, 100%, 100%)" stroke-opacity="1" stroke-miterlimit="4" d="M 538.085938 225.712891 L 302.67334 56.003418 L 302.67334 189.675293 L 366.252441 189.675293 " transform="matrix(0.0551724, 0, 0, 0.0551724, 0, 0)"/>
<path fill="none" stroke-width="30" stroke-linecap="round" stroke-linejoin="round" stroke="rgb(100%, 100%, 100%)" stroke-opacity="1" stroke-miterlimit="4" d="M 366.889648 102.307129 L 366.889648 236.333008 L 429.194336 236.333008 " transform="matrix(0.0551724, 0, 0, 0.0551724, 0, 0)"/>
<path fill="none" stroke-width="30" stroke-linecap="round" stroke-linejoin="round" stroke="rgb(100%, 100%, 100%)" stroke-opacity="1" stroke-miterlimit="4" d="M 429.335938 147.336426 L 429.335938 283.69873 L 486.118164 283.69873 " transform="matrix(0.0551724, 0, 0, 0.0551724, 0, 0)"/>
<path fill="none" stroke-width="30" stroke-linecap="round" stroke-linejoin="round" stroke="rgb(100%, 100%, 100%)" stroke-opacity="1" stroke-miterlimit="4" d="M 489.729004 193.144531 L 489.729004 324.055176 L 547.290039 324.055176 " transform="matrix(0.0551724, 0, 0, 0.0551724, 0, 0)"/>
<path fill="none" stroke-width="21.256901" stroke-linecap="butt" stroke-linejoin="miter" stroke="rgb(100%, 100%, 100%)" stroke-opacity="1" stroke-miterlimit="4" d="M 170.275879 550.688477 C 137.353516 550.688477 110.732422 523.996582 110.732422 491.074219 C 110.732422 458.151855 137.353516 431.530762 170.275879 431.530762 C 203.198242 431.530762 229.890137 458.151855 229.890137 491.074219 C 229.890137 523.996582 203.198242 550.688477 170.275879 550.688477 Z M 170.275879 550.688477 " transform="matrix(0.0551724, 0, 0, 0.0551724, 0, 0)"/>
<path fill="none" stroke-width="21.256901" stroke-linecap="butt" stroke-linejoin="miter" stroke="rgb(100%, 100%, 100%)" stroke-opacity="1" stroke-miterlimit="4" d="M 425.725098 549.555664 C 392.802734 549.555664 366.11084 522.86377 366.11084 489.941406 C 366.11084 457.019043 392.802734 430.327148 425.725098 430.327148 C 458.57666 430.327148 485.268555 457.019043 485.268555 489.941406 C 485.268555 522.86377 458.57666 549.555664 425.725098 549.555664 Z M 425.725098 549.555664 " transform="matrix(0.0551724, 0, 0, 0.0551724, 0, 0)"/>
<path fill="none" stroke-width="17.066799" stroke-linecap="butt" stroke-linejoin="round" stroke="rgb(100%, 100%, 100%)" stroke-opacity="1" stroke-miterlimit="4" d="M 378.500977 388.554688 L 225.217285 389.333496 L 171.054688 489.941406 L 274.777832 489.941406 L 383.103027 416.379395 " transform="matrix(0.0551724, 0, 0, 0.0551724, 0, 0)"/>
<path fill-rule="evenodd" fill="rgb(100%, 100%, 100%)" fill-opacity="1" d="M 20.558594 18.109375 C 21.015625 18.109375 21.363281 18.101562 21.71875 18.644531 C 21.820312 18.824219 21.867188 19.046875 21.832031 19.265625 C 21.785156 19.515625 21.636719 19.761719 21.460938 19.910156 C 21.230469 20.101562 21.011719 20.085938 21.046875 20.261719 C 21.09375 20.484375 21.230469 20.792969 21.382812 21.292969 C 21.535156 21.804688 21.714844 22.425781 21.894531 23.039062 C 22.070312 23.65625 22.246094 24.261719 22.382812 24.730469 C 22.453125 24.96875 22.511719 25.171875 22.558594 25.320312 C 22.605469 25.46875 22.644531 25.585938 22.640625 25.578125 C 22.785156 25.828125 22.804688 25.996094 23.042969 26.210938 C 23.316406 26.445312 23.535156 26.621094 23.613281 26.675781 C 23.804688 26.816406 23.894531 27.113281 23.792969 27.261719 C 23.664062 27.460938 23.398438 27.492188 23.203125 27.433594 C 23.015625 27.375 22.722656 27.273438 22.382812 26.992188 L 22.382812 26.988281 L 22.378906 26.984375 C 21.90625 26.578125 21.730469 26.085938 21.710938 26.058594 L 21.6875 26.019531 L 21.667969 25.976562 C 21.628906 25.875 21.605469 25.789062 21.554688 25.628906 C 21.507812 25.46875 21.445312 25.265625 21.375 25.027344 C 21.238281 24.550781 21.0625 23.945312 20.886719 23.332031 C 20.707031 22.71875 20.527344 22.097656 20.378906 21.59375 C 20.226562 21.09375 20.132812 20.679688 20.097656 20.589844 C 20.011719 20.378906 19.96875 20.144531 20.027344 19.914062 C 20.085938 19.683594 20.257812 19.496094 20.414062 19.453125 C 20.773438 19.351562 20.679688 19.09375 20.496094 19.09375 L 18.960938 19.089844 L 18.957031 18.109375 C 18.957031 18.109375 19.953125 18.109375 20.558594 18.109375 Z M 20.558594 18.109375 "/>
<path fill-rule="evenodd" fill="rgb(100%, 100%, 100%)" fill-opacity="1" d="M 15.050781 26.855469 L 12.152344 19.761719 Z M 15.050781 26.855469 "/>
<path fill="none" stroke-width="20.439301" stroke-linecap="butt" stroke-linejoin="miter" stroke="rgb(100%, 100%, 100%)" stroke-opacity="1" stroke-miterlimit="4" d="M 272.79541 486.755371 L 220.26123 358.181152 " transform="matrix(0.0551724, 0, 0, 0.0551724, 0, 0)"/>
<path fill-rule="evenodd" fill="rgb(100%, 100%, 100%)" fill-opacity="1" d="M 16.046875 25.046875 L 14.296875 29.121094 Z M 16.046875 25.046875 "/>
<path fill="none" stroke-width="7.46035" stroke-linecap="round" stroke-linejoin="miter" stroke="rgb(100%, 100%, 100%)" stroke-opacity="1" stroke-miterlimit="4" d="M 290.849609 453.974609 L 259.130859 527.819824 " transform="matrix(0.0551724, 0, 0, 0.0551724, 0, 0)"/>
<path fill-rule="nonzero" fill="rgb(100%, 100%, 100%)" fill-opacity="1" stroke-width="6.78202" stroke-linecap="butt" stroke-linejoin="miter" stroke="rgb(100%, 100%, 100%)" stroke-opacity="1" stroke-miterlimit="4" d="M 274.211426 504.951172 C 264.936523 504.951172 257.36084 498.295898 257.36084 490.153809 C 257.36084 481.940918 264.936523 475.285645 274.211426 475.285645 C 283.486328 475.285645 290.991211 481.940918 290.991211 490.153809 C 290.991211 498.295898 283.486328 504.951172 274.211426 504.951172 Z M 274.211426 504.951172 " transform="matrix(0.0551724, 0, 0, 0.0551724, 0, 0)"/>
<path fill-rule="evenodd" fill="rgb(100%, 100%, 100%)" fill-opacity="1" d="M 16.828125 25.046875 L 15.28125 25.0625 Z M 16.828125 25.046875 "/>
<path fill="none" stroke-width="10.4245" stroke-linecap="round" stroke-linejoin="miter" stroke="rgb(100%, 100%, 100%)" stroke-opacity="1" stroke-miterlimit="4" d="M 305.009766 453.974609 L 276.972656 454.257812 " transform="matrix(0.0551724, 0, 0, 0.0551724, 0, 0)"/>
<path fill-rule="evenodd" fill="rgb(100%, 100%, 100%)" fill-opacity="1" d="M 15.085938 29.0625 L 13.539062 29.078125 Z M 15.085938 29.0625 "/>
<path fill="none" stroke-width="10.4241" stroke-linecap="round" stroke-linejoin="miter" stroke="rgb(100%, 100%, 100%)" stroke-opacity="1" stroke-miterlimit="4" d="M 273.432617 526.757812 L 245.395508 527.041016 " transform="matrix(0.0551724, 0, 0, 0.0551724, 0, 0)"/>
<path fill-rule="evenodd" fill="rgb(100%, 100%, 100%)" fill-opacity="1" d="M 10.734375 19.128906 L 14.371094 19.128906 C 14.507812 19.128906 14.683594 19.367188 14.507812 19.527344 C 14.316406 19.707031 12.613281 20.078125 12.613281 20.078125 C 12.613281 20.078125 12.144531 20.207031 11.894531 20.175781 C 11.644531 20.148438 10.785156 20.070312 10.734375 19.128906 Z M 10.734375 19.128906 "/>
<path fill-rule="nonzero" fill="rgb(100%, 100%, 100%)" fill-opacity="1" d="M 2.472656 2.386719 C 2.378906 2.386719 2.289062 2.425781 2.226562 2.488281 C 2.160156 2.554688 2.125 2.644531 2.125 2.738281 L 2.125 17.726562 C 2.125 17.816406 2.160156 17.90625 2.226562 17.972656 C 2.289062 18.035156 2.378906 18.074219 2.472656 18.074219 L 4.453125 18.074219 C 4.546875 18.074219 4.636719 18.035156 4.703125 17.972656 C 4.765625 17.90625 4.804688 17.816406 4.804688 17.726562 L 4.804688 11.980469 L 8.300781 11.980469 C 10.46875 11.980469 12.039062 11.539062 12.953125 10.542969 C 13.820312 9.597656 14.261719 8.421875 14.261719 7.070312 C 14.261719 6.28125 14.097656 5.542969 13.773438 4.875 C 13.445312 4.207031 13.003906 3.675781 12.453125 3.292969 C 11.90625 2.914062 11.242188 2.664062 10.464844 2.535156 C 9.902344 2.433594 9.128906 2.386719 8.125 2.386719 Z M 4.804688 4.855469 L 8.289062 4.855469 C 9.175781 4.855469 9.789062 4.90625 10.050781 4.976562 C 10.496094 5.097656 10.832031 5.339844 11.109375 5.726562 C 11.378906 6.109375 11.519531 6.566406 11.519531 7.132812 C 11.519531 7.925781 11.289062 8.476562 10.828125 8.886719 C 10.394531 9.273438 9.570312 9.515625 8.332031 9.515625 L 4.804688 9.515625 Z M 4.804688 4.855469 "/>
</svg>
