<?xml version="1.0" encoding="UTF-8"?>
<svg xmlns="http://www.w3.org/2000/svg" xmlns:xlink="http://www.w3.org/1999/xlink" width="12" height="12" viewBox="0 0 12 12">
<path fill-rule="evenodd" fill="rgb(26.666667%, 26.666667%, 26.666667%)" fill-opacity="1" d="M 11 0 C 11.550781 0 12 0.449219 12 1 L 12 11 C 12 11.550781 11.550781 12 11 12 C 10.449219 12 10 11.550781 10 11 L 10 10 L 4.015625 10 C 4.003906 10 3.996094 10 3.984375 10 L 1 10 C 0.449219 10 0 9.550781 0 9 L 0 3 C 0 2.449219 0.449219 2 1 2 L 7.984375 2 C 7.996094 2 8.003906 2 8.015625 2 L 10 2 L 10 1 C 10 0.449219 10.449219 0 11 0 Z M 2 8 L 3.464844 8 L 6.132812 4 L 2 4 Z M 5.867188 8 L 10 8 L 10 4 L 8.535156 4 Z M 5.867188 8 "/>
</svg>
