<?xml version="1.0" encoding="UTF-8"?>
<svg xmlns="http://www.w3.org/2000/svg" xmlns:xlink="http://www.w3.org/1999/xlink" width="12" height="12" viewBox="0 0 12 12" version="1.1">
<g id="surface1">
<path style=" stroke:none;fill-rule:nonzero;fill:rgb(100%,100%,100%);fill-opacity:1;" d="M 6 3.3125 C 6.691406 3.3125 7.25 2.753906 7.25 2.0625 C 7.25 1.375 6.691406 0.816406 6 0.816406 C 5.308594 0.816406 4.75 1.375 4.75 2.0625 C 4.75 2.753906 5.308594 3.3125 6 3.3125 Z M 6 3.3125 "/>
<path style=" stroke:none;fill-rule:nonzero;fill:rgb(100%,100%,100%);fill-opacity:1;" d="M 3.667969 5.988281 L 4.679688 4.96875 L 4.679688 5.921875 L 7.308594 5.921875 L 7.308594 4.964844 L 8.347656 6.003906 C 8.761719 6.441406 9.398438 5.851562 8.964844 5.417969 L 7.273438 3.726562 C 7.136719 3.589844 6.976562 3.507812 6.742188 3.507812 L 5.242188 3.507812 C 5.007812 3.507812 4.859375 3.589844 4.722656 3.726562 L 3.050781 5.402344 C 2.59375 5.859375 3.210938 6.441406 3.667969 5.988281 Z M 3.667969 5.988281 "/>
<path style=" stroke:none;fill-rule:nonzero;fill:rgb(100%,100%,100%);fill-opacity:1;" d="M 6.917969 9.5 L 8.097656 8.269531 C 8.351562 8.011719 8.421875 7.535156 8.148438 7.261719 C 8.148438 7.261719 7.304688 6.417969 7.304688 6.417969 L 6.3125 7.410156 L 7.042969 8.136719 L 6.292969 8.882812 C 5.855469 9.324219 6.460938 9.953125 6.917969 9.5 Z M 6.917969 9.5 "/>
<path style=" stroke:none;fill-rule:nonzero;fill:rgb(100%,100%,100%);fill-opacity:1;" d="M 4.679688 6.417969 C 4.679688 6.417969 3.835938 7.261719 3.832031 7.261719 C 3.5625 7.535156 3.632812 8.011719 3.886719 8.269531 L 5.066406 9.5 C 5.519531 9.953125 6.128906 9.324219 5.6875 8.882812 L 4.941406 8.136719 L 5.671875 7.410156 Z M 4.679688 6.417969 "/>
<path style=" stroke:none;fill-rule:nonzero;fill:rgb(100%,100%,100%);fill-opacity:1;" d="M 9.785156 4.625 L 9.785156 9.507812 C 9.785156 9.976562 9.40625 10.355469 8.9375 10.355469 L 3.0625 10.355469 C 2.59375 10.355469 2.214844 9.976562 2.214844 9.507812 L 2.214844 4.625 L 1.386719 4.625 L 1.386719 9.507812 C 1.386719 10.433594 2.136719 11.183594 3.0625 11.183594 L 8.9375 11.183594 C 9.863281 11.183594 10.613281 10.433594 10.613281 9.507812 L 10.613281 4.625 Z M 9.785156 4.625 "/>
</g>
</svg>
