<?xml version="1.0" encoding="UTF-8"?>
<svg xmlns="http://www.w3.org/2000/svg" xmlns:xlink="http://www.w3.org/1999/xlink" width="12" height="12" viewBox="0 0 12 12" version="1.1">
<g id="surface1">
<path style=" stroke:none;fill-rule:nonzero;fill:rgb(24.705882%,24.705882%,24.705882%);fill-opacity:1;" d="M 10.988281 6.894531 C 10.652344 6.894531 10.113281 6.808594 9.738281 6.519531 C 9.367188 6.808594 8.824219 6.894531 8.492188 6.894531 C 8.160156 6.894531 7.621094 6.808594 7.246094 6.519531 C 6.871094 6.808594 6.332031 6.894531 6 6.894531 C 5.667969 6.894531 5.128906 6.808594 4.753906 6.519531 C 4.378906 6.808594 3.839844 6.894531 3.507812 6.894531 C 3.175781 6.894531 2.632812 6.808594 2.261719 6.519531 C 1.886719 6.808594 1.347656 6.894531 1.011719 6.894531 L 1.011719 7.640625 C 1.71875 7.640625 2.011719 7.476562 2.261719 7.265625 C 2.632812 7.558594 3.175781 7.640625 3.507812 7.640625 C 3.839844 7.640625 4.378906 7.558594 4.753906 7.265625 C 5.128906 7.558594 5.667969 7.640625 6 7.640625 C 6.332031 7.640625 6.871094 7.558594 7.246094 7.265625 C 7.621094 7.558594 8.160156 7.640625 8.492188 7.640625 C 8.824219 7.640625 9.367188 7.558594 9.738281 7.265625 C 10.113281 7.558594 10.652344 7.640625 10.988281 7.640625 Z M 10.988281 6.894531 "/>
<path style=" stroke:none;fill-rule:nonzero;fill:rgb(24.705882%,24.705882%,24.705882%);fill-opacity:1;" d="M 10.988281 8.554688 C 10.652344 8.554688 10.113281 8.472656 9.738281 8.179688 C 9.367188 8.472656 8.824219 8.554688 8.492188 8.554688 C 8.160156 8.554688 7.621094 8.472656 7.246094 8.179688 C 6.871094 8.472656 6.332031 8.554688 6 8.554688 C 5.667969 8.554688 5.128906 8.472656 4.753906 8.179688 C 4.378906 8.472656 3.839844 8.554688 3.507812 8.554688 C 3.175781 8.554688 2.632812 8.472656 2.261719 8.179688 C 1.886719 8.472656 1.347656 8.554688 1.011719 8.554688 L 1.011719 9.304688 C 1.71875 9.304688 2.011719 9.136719 2.261719 8.929688 C 2.632812 9.21875 3.175781 9.304688 3.507812 9.304688 C 3.839844 9.304688 4.378906 9.21875 4.753906 8.929688 C 5.128906 9.21875 5.667969 9.304688 6 9.304688 C 6.332031 9.304688 6.871094 9.21875 7.246094 8.929688 C 7.621094 9.21875 8.160156 9.304688 8.492188 9.304688 C 8.824219 9.304688 9.367188 9.21875 9.738281 8.929688 C 10.113281 9.21875 10.652344 9.304688 10.988281 9.304688 Z M 10.988281 8.554688 "/>
<path style=" stroke:none;fill-rule:nonzero;fill:rgb(24.705882%,24.705882%,24.705882%);fill-opacity:1;" d="M 10.988281 2.695312 L 1.011719 2.695312 L 1.011719 3.527344 C 1.46875 3.527344 1.84375 3.902344 1.84375 4.359375 L 1.84375 7.101562 L 3.507812 7.101562 L 3.507812 4.359375 C 3.507812 3.902344 3.878906 3.527344 4.335938 3.527344 L 7.664062 3.527344 C 8.121094 3.527344 8.492188 3.902344 8.492188 4.359375 L 8.492188 7.101562 L 10.15625 7.101562 L 10.15625 4.359375 C 10.15625 3.902344 10.53125 3.527344 10.988281 3.527344 Z M 10.988281 2.695312 "/>
</g>
</svg>
