<?xml version="1.0" encoding="UTF-8"?>
<svg xmlns="http://www.w3.org/2000/svg" xmlns:xlink="http://www.w3.org/1999/xlink" width="32" height="32" viewBox="0 0 32 32">
<defs>
<filter id="filter-remove-color" x="0%" y="0%" width="100%" height="100%">
<feColorMatrix color-interpolation-filters="sRGB" values="0 0 0 0 1 0 0 0 0 1 0 0 0 0 1 0 0 0 1 0" />
</filter>
<mask id="mask-0">
<g filter="url(#filter-remove-color)">
<rect x="-3.2" y="-3.2" width="38.4" height="38.4" fill="rgb(0%, 0%, 0%)" fill-opacity="0.2"/>
</g>
</mask>
<clipPath id="clip-0">
<rect x="0" y="0" width="32" height="32"/>
</clipPath>
<g id="source-6" clip-path="url(#clip-0)">
<path fill-rule="nonzero" fill="rgb(26.666667%, 26.666667%, 26.666667%)" fill-opacity="1" d="M 8 8 L 21.332031 8 L 21.332031 24 L 8 24 Z M 8 8 "/>
</g>
</defs>
<g mask="url(#mask-0)">
<use xlink:href="#source-6"/>
</g>
<path fill-rule="evenodd" fill="rgb(26.666667%, 26.666667%, 26.666667%)" fill-opacity="1" d="M 8 8 C 8 6.527344 9.195312 5.332031 10.667969 5.332031 L 21.332031 5.332031 C 22.804688 5.332031 24 6.527344 24 8 L 24 24 C 24 25.472656 22.804688 26.667969 21.332031 26.667969 L 10.667969 26.667969 C 9.195312 26.667969 8 25.472656 8 24 L 8 20 C 8 19.261719 8.597656 18.667969 9.332031 18.667969 C 10.070312 18.667969 10.667969 19.261719 10.667969 20 L 10.667969 24 L 21.332031 24 L 21.332031 8 L 10.667969 8 L 10.667969 12 C 10.667969 12.738281 10.070312 13.332031 9.332031 13.332031 C 8.597656 13.332031 8 12.738281 8 12 Z M 8 8 "/>
<path fill-rule="evenodd" fill="rgb(26.666667%, 26.666667%, 26.666667%)" fill-opacity="1" d="M 13.722656 11.058594 C 14.246094 10.535156 15.089844 10.535156 15.609375 11.058594 L 19.609375 15.058594 C 20.128906 15.578125 20.128906 16.421875 19.609375 16.941406 L 15.609375 20.941406 C 15.089844 21.464844 14.246094 21.464844 13.722656 20.941406 C 13.203125 20.421875 13.203125 19.578125 13.722656 19.058594 L 15.449219 17.332031 L 6.667969 17.332031 C 5.929688 17.332031 5.332031 16.738281 5.332031 16 C 5.332031 15.261719 5.929688 14.667969 6.667969 14.667969 L 15.449219 14.667969 L 13.722656 12.941406 C 13.203125 12.421875 13.203125 11.578125 13.722656 11.058594 Z M 13.722656 11.058594 "/>
</svg>
