<?xml version="1.0" encoding="UTF-8"?>
<svg xmlns="http://www.w3.org/2000/svg" xmlns:xlink="http://www.w3.org/1999/xlink" width="12" height="12" viewBox="0 0 12 12" version="1.1">
<g id="surface1">
<path style=" stroke:none;fill-rule:nonzero;fill:rgb(85.09804%,85.09804%,85.09804%);fill-opacity:1;" d="M 9 2.5 L 12 3.5 L 9 4 Z M 9 2.5 "/>
<path style=" stroke:none;fill-rule:evenodd;fill:rgb(100%,100%,100%);fill-opacity:1;" d="M 5.34375 7.027344 C 5.605469 6.9375 5.886719 7.078125 5.972656 7.34375 L 6.859375 10 L 7.5 10 C 7.777344 10 8 10.222656 8 10.5 C 8 10.777344 7.777344 11 7.5 11 L 6.140625 11 L 5.027344 7.65625 C 4.9375 7.394531 5.078125 7.113281 5.34375 7.027344 Z M 5.34375 7.027344 "/>
<path style=" stroke:none;fill-rule:nonzero;fill:rgb(100%,100%,100%);fill-opacity:1;" d="M 6 5.5 C 8.976562 3.632812 8.5 4.296875 8.992188 4.296875 C 8.992188 7.5 8.683594 8.09375 8 8.5 C 7.316406 8.90625 6.898438 8.953125 6.5 9 C 6.101562 9.046875 5.578125 9 4.992188 9 C 4 8.703125 5.511719 6.203125 6 5.5 Z M 6 5.5 "/>
<path style=" stroke:none;fill-rule:nonzero;fill:rgb(100%,100%,100%);fill-opacity:1;" d="M 1 9 C 1.429688 8.699219 1 9 6 5.5 C 6 5.5 7.5 9 5 9 C 2.5 9 2.429688 9.695312 1.5 10 C 0.570312 10.304688 0.570312 9.300781 1 9 Z M 1 9 "/>
<path style=" stroke:none;fill-rule:evenodd;fill:rgb(100%,100%,100%);fill-opacity:1;" d="M 8.5 5 C 9.328125 5 10 4.328125 10 3.5 C 10 2.671875 9.328125 2 8.5 2 C 7.671875 2 7 2.671875 7 3.5 C 7 4.328125 7.671875 5 8.5 5 Z M 8.5 4 C 8.777344 4 9 3.777344 9 3.5 C 9 3.222656 8.777344 3 8.5 3 C 8.222656 3 8 3.222656 8 3.5 C 8 3.777344 8.222656 4 8.5 4 Z M 8.5 4 "/>
</g>
</svg>
