<?xml version="1.0" encoding="UTF-8"?>
<svg xmlns="http://www.w3.org/2000/svg" xmlns:xlink="http://www.w3.org/1999/xlink" width="12" height="12" viewBox="0 0 12 12">
<defs>
<filter id="filter-remove-color" x="0%" y="0%" width="100%" height="100%">
<feColorMatrix color-interpolation-filters="sRGB" values="0 0 0 0 1 0 0 0 0 1 0 0 0 0 1 0 0 0 1 0" />
</filter>
<mask id="mask-0">
<g filter="url(#filter-remove-color)">
<rect x="-1.2" y="-1.2" width="14.4" height="14.4" fill="rgb(0%, 0%, 0%)" fill-opacity="0.8"/>
</g>
</mask>
<clipPath id="clip-0">
<rect x="0" y="0" width="12" height="12"/>
</clipPath>
<g id="source-7" clip-path="url(#clip-0)">
<path fill-rule="nonzero" fill="rgb(24.705882%, 24.705882%, 24.705882%)" fill-opacity="1" d="M 8.53125 9.390625 C 7.820312 9.5 6.945312 9.558594 6 9.558594 C 5.6875 9.558594 5.386719 9.550781 5.09375 9.539062 C 4.496094 9.515625 3.945312 9.464844 3.46875 9.390625 C 3.46875 9.390625 2.914062 9.707031 2.707031 10.503906 C 3.011719 10.582031 3.371094 10.648438 3.769531 10.699219 C 3.945312 10.722656 4.128906 10.742188 4.320312 10.757812 C 4.835938 10.800781 5.402344 10.824219 6 10.824219 C 6.8125 10.824219 7.578125 10.78125 8.230469 10.699219 C 8.628906 10.648438 8.988281 10.582031 9.292969 10.503906 C 9.085938 9.707031 8.53125 9.390625 8.53125 9.390625 Z M 8.53125 9.390625 "/>
</g>
<mask id="mask-1">
<g filter="url(#filter-remove-color)">
<rect x="-1.2" y="-1.2" width="14.4" height="14.4" fill="rgb(0%, 0%, 0%)" fill-opacity="0.8"/>
</g>
</mask>
<clipPath id="clip-1">
<rect x="0" y="0" width="12" height="12"/>
</clipPath>
<g id="source-11" clip-path="url(#clip-1)">
<path fill-rule="nonzero" fill="rgb(24.705882%, 24.705882%, 24.705882%)" fill-opacity="1" d="M 5.886719 3.472656 L 5.824219 1.175781 L 6.175781 1.175781 L 6.113281 3.472656 Z M 5.886719 3.472656 "/>
</g>
<mask id="mask-2">
<g filter="url(#filter-remove-color)">
<rect x="-1.2" y="-1.2" width="14.4" height="14.4" fill="rgb(0%, 0%, 0%)" fill-opacity="0.8"/>
</g>
</mask>
<clipPath id="clip-2">
<rect x="0" y="0" width="12" height="12"/>
</clipPath>
<g id="source-15" clip-path="url(#clip-2)">
<path fill-rule="nonzero" fill="rgb(24.705882%, 24.705882%, 24.705882%)" fill-opacity="1" d="M 7.398438 3.796875 L 8.417969 1.738281 L 8.726562 1.902344 L 7.597656 3.902344 Z M 7.398438 3.796875 "/>
</g>
<mask id="mask-3">
<g filter="url(#filter-remove-color)">
<rect x="-1.2" y="-1.2" width="14.4" height="14.4" fill="rgb(0%, 0%, 0%)" fill-opacity="0.8"/>
</g>
</mask>
<clipPath id="clip-3">
<rect x="0" y="0" width="12" height="12"/>
</clipPath>
<g id="source-19" clip-path="url(#clip-3)">
<path fill-rule="nonzero" fill="rgb(24.705882%, 24.705882%, 24.705882%)" fill-opacity="1" d="M 8.578125 4.789062 L 10.445312 3.449219 L 10.640625 3.738281 L 8.707031 4.976562 Z M 8.578125 4.789062 "/>
</g>
<mask id="mask-4">
<g filter="url(#filter-remove-color)">
<rect x="-1.2" y="-1.2" width="14.4" height="14.4" fill="rgb(0%, 0%, 0%)" fill-opacity="0.8"/>
</g>
</mask>
<clipPath id="clip-4">
<rect x="0" y="0" width="12" height="12"/>
</clipPath>
<g id="source-23" clip-path="url(#clip-4)">
<path fill-rule="nonzero" fill="rgb(24.705882%, 24.705882%, 24.705882%)" fill-opacity="1" d="M 9.15625 6.21875 L 11.433594 5.910156 L 11.472656 6.257812 L 9.183594 6.441406 Z M 9.15625 6.21875 "/>
</g>
<mask id="mask-5">
<g filter="url(#filter-remove-color)">
<rect x="-1.2" y="-1.2" width="14.4" height="14.4" fill="rgb(0%, 0%, 0%)" fill-opacity="0.8"/>
</g>
</mask>
<clipPath id="clip-5">
<rect x="0" y="0" width="12" height="12"/>
</clipPath>
<g id="source-27" clip-path="url(#clip-5)">
<path fill-rule="nonzero" fill="rgb(24.705882%, 24.705882%, 24.705882%)" fill-opacity="1" d="M 4.601562 3.796875 L 3.582031 1.738281 L 3.273438 1.902344 L 4.402344 3.902344 Z M 4.601562 3.796875 "/>
</g>
<mask id="mask-6">
<g filter="url(#filter-remove-color)">
<rect x="-1.2" y="-1.2" width="14.4" height="14.4" fill="rgb(0%, 0%, 0%)" fill-opacity="0.8"/>
</g>
</mask>
<clipPath id="clip-6">
<rect x="0" y="0" width="12" height="12"/>
</clipPath>
<g id="source-31" clip-path="url(#clip-6)">
<path fill-rule="nonzero" fill="rgb(24.705882%, 24.705882%, 24.705882%)" fill-opacity="1" d="M 3.421875 4.789062 L 1.554688 3.449219 L 1.359375 3.738281 L 3.292969 4.976562 Z M 3.421875 4.789062 "/>
</g>
<mask id="mask-7">
<g filter="url(#filter-remove-color)">
<rect x="-1.2" y="-1.2" width="14.4" height="14.4" fill="rgb(0%, 0%, 0%)" fill-opacity="0.8"/>
</g>
</mask>
<clipPath id="clip-7">
<rect x="0" y="0" width="12" height="12"/>
</clipPath>
<g id="source-35" clip-path="url(#clip-7)">
<path fill-rule="nonzero" fill="rgb(24.705882%, 24.705882%, 24.705882%)" fill-opacity="1" d="M 2.84375 6.21875 L 0.566406 5.910156 L 0.527344 6.257812 L 2.816406 6.441406 Z M 2.84375 6.21875 "/>
</g>
</defs>
<path fill-rule="nonzero" fill="rgb(24.705882%, 24.705882%, 24.705882%)" fill-opacity="1" d="M 6 3.808594 C 4.601562 3.808594 3.46875 4.941406 3.46875 6.339844 L 3.46875 9.390625 C 3.523438 9.398438 3.578125 9.40625 3.632812 9.414062 C 3.648438 9.417969 3.664062 9.417969 3.679688 9.421875 C 3.722656 9.425781 3.769531 9.433594 3.8125 9.4375 C 3.828125 9.441406 3.839844 9.441406 3.855469 9.445312 C 3.976562 9.457031 4.097656 9.472656 4.222656 9.484375 C 4.234375 9.484375 4.246094 9.484375 4.253906 9.484375 C 4.3125 9.492188 4.371094 9.496094 4.429688 9.5 C 4.4375 9.5 4.441406 9.5 4.449219 9.5 C 4.585938 9.511719 4.722656 9.519531 4.867188 9.527344 C 4.871094 9.527344 4.875 9.53125 4.878906 9.53125 C 4.949219 9.535156 5.019531 9.535156 5.089844 9.539062 C 5.09375 9.539062 5.09375 9.539062 5.09375 9.539062 C 5.386719 9.550781 5.6875 9.558594 6 9.558594 C 6.945312 9.558594 7.820312 9.5 8.53125 9.390625 L 8.53125 6.339844 C 8.53125 4.941406 7.398438 3.808594 6 3.808594 Z M 6 3.808594 "/>
<g mask="url(#mask-0)">
<use xlink:href="#source-7"/>
</g>
<g mask="url(#mask-1)">
<use xlink:href="#source-11"/>
</g>
<g mask="url(#mask-2)">
<use xlink:href="#source-15"/>
</g>
<g mask="url(#mask-3)">
<use xlink:href="#source-19"/>
</g>
<g mask="url(#mask-4)">
<use xlink:href="#source-23"/>
</g>
<g mask="url(#mask-5)">
<use xlink:href="#source-27"/>
</g>
<g mask="url(#mask-6)">
<use xlink:href="#source-31"/>
</g>
<g mask="url(#mask-7)">
<use xlink:href="#source-35"/>
</g>
</svg>
