<?xml version="1.0" encoding="UTF-8"?>
<svg xmlns="http://www.w3.org/2000/svg" xmlns:xlink="http://www.w3.org/1999/xlink" width="12" height="12" viewBox="0 0 12 12" version="1.1">
<g id="surface1">
<path style=" stroke:none;fill-rule:nonzero;fill:rgb(24.705882%,24.705882%,24.705882%);fill-opacity:1;" d="M 2.5 1 L 2 4 L 3 4 Z M 9.5 1 L 9 4 L 10 4 Z M 6 2 L 4 5 L 4 11 L 5 11 L 5 7 C 5 6.542969 5.234375 6 6 6 C 6.765625 6 7 6.542969 7 7 L 7 11 L 8 11 L 8 5 Z M 2 5 L 2 11 L 3 11 L 3 5 Z M 9 5 L 9 11 L 10 11 L 10 5 Z M 10 7 L 10 11 L 11 11 L 11 8.082031 Z M 10 7 "/>
<path style=" stroke:none;fill-rule:nonzero;fill:rgb(24.705882%,24.705882%,24.705882%);fill-opacity:1;" d="M 2 11 L 2 7 L 1 8.082031 L 1 11 Z M 2 11 "/>
</g>
</svg>
