<svg width="12" height="12" viewBox="0 0 580 580" fill="none" xmlns="http://www.w3.org/2000/svg">
<g opacity="0.75">
<path opacity="0.75" d="M437.475 387.703H81.3452V485.406H437.475V387.703Z" fill="#444444"/>
</g>
<g opacity="0.75">
<path opacity="0.75" d="M502.613 253.79H146.482V322.569H502.613V253.79Z" fill="#444444"/>
</g>
<path d="M203.978 122.67L179.049 102.214V94.593H146.482V141.395L106.828 189.721H81.7766V220.249L50.3589 258.536L75.536 279.195L81.7766 271.591V309.095L50.3589 347.381L75.536 368.04L81.7766 360.436V485.406H114.344V320.749L146.482 281.583V322.569H179.049V241.895L203.978 211.516L179.049 191.06V153.049L203.978 122.67ZM146.482 230.241L114.344 269.407V231.902L146.482 192.738V230.241Z" fill="#444444"/>
<path d="M504.462 190.857L502.613 193.113V155.613L529.641 122.669L504.462 102.011L502.613 104.268V94.594H470.044V143.961L432.499 189.721H404.91V223.345L376.035 258.536L401.214 279.194L404.91 274.69V312.191L376.035 347.381L401.214 368.038L404.91 363.535V485.406H437.475V323.844L470.043 284.149V324.031H502.611V244.458L529.64 211.515L504.462 190.857ZM437.475 272.499V234.998L470.043 195.304V232.805L437.475 272.499Z" fill="#444444"/>
</svg>
