<?xml version="1.0" encoding="UTF-8"?>
<svg xmlns="http://www.w3.org/2000/svg" xmlns:xlink="http://www.w3.org/1999/xlink" width="32" height="32" viewBox="0 0 32 32">
<path fill-rule="evenodd" fill="rgb(26.666667%, 26.666667%, 26.666667%)" fill-opacity="1" d="M 2.667969 13.332031 L 20 13.332031 L 20 12 L 2.667969 12 Z M 2.667969 13.332031 "/>
<path fill-rule="evenodd" fill="rgb(26.666667%, 26.666667%, 26.666667%)" fill-opacity="1" d="M 4 2.667969 L 4 29.332031 L 6.667969 29.332031 L 6.667969 2.667969 Z M 4 2.667969 "/>
<path fill-rule="evenodd" fill="rgb(26.666667%, 26.666667%, 26.666667%)" fill-opacity="1" d="M 10.667969 2.667969 L 10.667969 29.332031 L 13.332031 29.332031 L 13.332031 2.667969 Z M 10.667969 2.667969 "/>
<path fill-rule="evenodd" fill="rgb(26.666667%, 26.666667%, 26.666667%)" fill-opacity="1" d="M 2.667969 21.332031 L 18.667969 21.332031 L 18.667969 20 L 2.667969 20 Z M 2.667969 21.332031 "/>
<path fill-rule="evenodd" fill="rgb(26.666667%, 26.666667%, 26.666667%)" fill-opacity="1" d="M 20 2.667969 L 17.332031 29.332031 L 20 29.332031 L 22.667969 2.667969 Z M 20 2.667969 "/>
<path fill-rule="evenodd" fill="rgb(26.666667%, 26.666667%, 26.666667%)" fill-opacity="1" d="M 17.332031 8 L 29.332031 8 L 29.332031 6.667969 L 17.332031 6.667969 Z M 17.332031 8 "/>
<path fill-rule="evenodd" fill="rgb(26.666667%, 26.666667%, 26.666667%)" fill-opacity="1" d="M 25.332031 2.667969 L 25.332031 29.332031 L 28 29.332031 L 28 2.667969 Z M 25.332031 2.667969 "/>
<path fill-rule="evenodd" fill="rgb(26.666667%, 26.666667%, 26.666667%)" fill-opacity="1" d="M 16 26.667969 L 29.332031 26.667969 L 29.332031 25.332031 L 16 25.332031 Z M 16 26.667969 "/>
</svg>
