<?xml version="1.0" encoding="UTF-8"?>
<svg xmlns="http://www.w3.org/2000/svg" xmlns:xlink="http://www.w3.org/1999/xlink" width="12" height="12" viewBox="0 0 12 12" version="1.1">
<g id="surface1">
<path style=" stroke:none;fill-rule:nonzero;fill:rgb(26.666668%,26.666668%,26.666668%);fill-opacity:1;" d="M 6.203125 2.992188 C 6.109375 2.96875 6.023438 2.96875 5.960938 3.023438 C 5.570312 3.339844 5.339844 3.726562 4.886719 3.71875 C 3.878906 3.703125 2.675781 3.152344 1.976562 3.027344 C 0.8125 2.972656 0.0351562 5.042969 1.269531 5.671875 C 4.4375 6.738281 7.746094 8.058594 9.28125 8.832031 C 9.28125 8.828125 9.28125 8.828125 9.28125 8.828125 C 9.710938 9.175781 10.3125 9.050781 10.773438 8.515625 C 11.359375 7.835938 11.535156 6.722656 11.164062 6.011719 L 11.109375 5.914062 C 10.96875 5.691406 10.777344 5.542969 10.554688 5.480469 C 10.53125 5.472656 10.507812 5.46875 10.484375 5.464844 C 9.542969 5.199219 7.089844 4.628906 7.019531 4.414062 C 6.96875 4.265625 7.316406 3.105469 7.253906 3.125 C 6.726562 3.285156 6.40625 3.046875 6.203125 2.992188 Z M 10.40625 6.023438 C 10.558594 6.066406 10.691406 6.171875 10.785156 6.324219 L 10.824219 6.394531 C 11.082031 6.882812 10.960938 7.648438 10.554688 8.117188 C 10.152344 8.585938 9.613281 8.582031 9.339844 8.109375 C 9.070312 7.640625 9.167969 6.871094 9.5625 6.386719 C 9.808594 6.082031 10.128906 5.945312 10.40625 6.023438 Z M 10.183594 6.835938 C 10.089844 6.808594 9.988281 6.855469 9.90625 6.957031 C 9.777344 7.117188 9.742188 7.367188 9.832031 7.523438 C 9.921875 7.679688 10.101562 7.679688 10.234375 7.527344 C 10.367188 7.371094 10.40625 7.117188 10.320312 6.957031 L 10.308594 6.933594 C 10.277344 6.882812 10.234375 6.851562 10.183594 6.835938 Z M 10.183594 6.835938 "/>
</g>
</svg>
