<?xml version="1.0" encoding="UTF-8"?>
<svg xmlns="http://www.w3.org/2000/svg" xmlns:xlink="http://www.w3.org/1999/xlink" width="32" height="32" viewBox="0 0 32 32">
<path fill-rule="nonzero" fill="rgb(100%, 100%, 100%)" fill-opacity="1" d="M 9.519531 2.746094 C 4.953125 2.746094 1.273438 6.429688 1.273438 10.992188 C 1.273438 17.472656 16 29.253906 16 29.253906 C 16 29.253906 30.726562 17.472656 30.726562 10.992188 C 30.726562 6.429688 27.046875 2.746094 22.480469 2.746094 C 19.832031 2.746094 17.472656 4.074219 16 6.132812 C 14.527344 4.074219 12.167969 2.746094 9.519531 2.746094 Z M 21.621094 4.023438 L 22.667969 4.023438 L 22.667969 5.390625 C 23.199219 5.449219 23.699219 5.5625 24.164062 5.734375 C 24.628906 5.902344 25.039062 6.140625 25.394531 6.441406 C 25.75 6.746094 26.035156 7.117188 26.261719 7.566406 C 26.484375 8.015625 26.613281 8.546875 26.648438 9.160156 L 24.136719 9.160156 C 24.125 8.691406 23.976562 8.289062 23.691406 7.957031 C 23.410156 7.625 23.066406 7.457031 22.667969 7.457031 L 22.667969 10.59375 C 22.808594 10.628906 22.953125 10.664062 23.101562 10.699219 C 23.25 10.734375 23.40625 10.777344 23.570312 10.824219 C 24.445312 11.058594 25.117188 11.355469 25.589844 11.703125 C 26.0625 12.050781 26.410156 12.414062 26.632812 12.792969 C 26.859375 13.167969 26.988281 13.546875 27.03125 13.925781 C 27.074219 14.300781 27.09375 14.636719 27.09375 14.933594 C 27.09375 15.195312 27.03125 15.519531 26.898438 15.914062 C 26.769531 16.3125 26.535156 16.699219 26.199219 17.074219 C 25.863281 17.453125 25.410156 17.789062 24.84375 18.085938 C 24.277344 18.378906 23.550781 18.554688 22.667969 18.617188 L 22.667969 20.121094 L 21.621094 20.121094 L 21.621094 18.617188 C 20.300781 18.519531 19.265625 18.113281 18.523438 17.394531 C 17.78125 16.675781 17.347656 15.621094 17.230469 14.226562 L 19.726562 14.226562 C 19.714844 14.898438 19.890625 15.429688 20.257812 15.820312 C 20.621094 16.207031 21.078125 16.457031 21.621094 16.5625 L 21.621094 12.863281 C 21.5625 12.839844 21.480469 12.8125 21.382812 12.78125 C 21.28125 12.75 21.171875 12.726562 21.054688 12.703125 C 20.617188 12.585938 20.1875 12.445312 19.761719 12.285156 C 19.335938 12.125 18.957031 11.914062 18.617188 11.648438 C 18.28125 11.378906 18.011719 11.050781 17.8125 10.65625 C 17.613281 10.261719 17.511719 9.765625 17.511719 9.175781 C 17.511719 8.574219 17.628906 8.042969 17.859375 7.585938 C 18.089844 7.125 18.390625 6.738281 18.769531 6.425781 C 19.148438 6.109375 19.585938 5.867188 20.082031 5.695312 C 20.578125 5.523438 21.089844 5.425781 21.621094 5.386719 Z M 7.71875 5.410156 C 8.117188 5.40625 8.824219 5.457031 9.28125 5.785156 C 9.871094 6.316406 9.710938 6.769531 10.378906 7.246094 C 11.152344 7.882812 13.011719 6.863281 14.027344 8.378906 C 14.5625 9.175781 14.40625 9.972656 13.929688 10.292969 C 13.292969 10.722656 12.574219 10.511719 12.039062 9.714844 C 11.554688 9 11.582031 8.519531 11.128906 8.359375 C 10.675781 8.203125 10.273438 8.125 9.820312 7.621094 C 9.367188 7.117188 9.285156 6.476562 8.9375 6.132812 C 8.351562 5.601562 7.417969 5.417969 7.417969 5.417969 C 7.417969 5.417969 7.535156 5.410156 7.71875 5.410156 Z M 21.621094 7.457031 C 21.421875 7.457031 21.226562 7.488281 21.039062 7.550781 C 20.847656 7.609375 20.679688 7.699219 20.527344 7.824219 C 20.371094 7.945312 20.25 8.101562 20.160156 8.28125 C 20.074219 8.464844 20.027344 8.683594 20.027344 8.929688 C 20.027344 9.320312 20.152344 9.621094 20.398438 9.832031 C 20.648438 10.042969 21.054688 10.214844 21.621094 10.34375 Z M 3.359375 9.125 C 3.359375 9.125 5.988281 9.445312 7.101562 10.824219 C 8.175781 12.101562 7.761719 13.0625 8.878906 14.441406 C 10.246094 16.171875 14.726562 14.851562 16.207031 18.585938 C 17.027344 20.648438 16.375 22.15625 15.097656 22.664062 C 13.425781 23.328125 12.074219 22.5 11.195312 20.574219 C 10.457031 18.707031 10.832031 17.644531 9.929688 17.09375 C 8.992188 16.441406 8.167969 16.085938 7.464844 14.886719 C 6.800781 13.785156 6.921875 12.375 6.296875 11.371094 C 5.417969 10.015625 3.359375 9.125 3.359375 9.125 Z M 22.667969 13.164062 L 22.667969 16.5625 C 22.878906 16.539062 23.101562 16.488281 23.332031 16.410156 C 23.5625 16.335938 23.765625 16.226562 23.949219 16.085938 C 24.132812 15.945312 24.285156 15.769531 24.402344 15.5625 C 24.519531 15.355469 24.578125 15.109375 24.578125 14.824219 C 24.578125 14.367188 24.433594 14.019531 24.144531 13.789062 C 23.855469 13.558594 23.363281 13.351562 22.667969 13.164062 Z M 22.667969 13.164062 "/>
</svg>
