<?xml version="1.0" encoding="UTF-8"?>
<svg xmlns="http://www.w3.org/2000/svg" xmlns:xlink="http://www.w3.org/1999/xlink" width="12" height="12" viewBox="0 0 12 12">
<path fill-rule="nonzero" fill="rgb(26.666667%, 26.666667%, 26.666667%)" fill-opacity="1" d="M 3 2 L 5 2 L 5 6 L 1 6 Z M 3 2 "/>
<path fill-rule="nonzero" fill="rgb(26.666667%, 26.666667%, 26.666667%)" fill-opacity="1" d="M 3 2 L 5 2 L 5 6 L 1 6 Z M 3 2 "/>
<path fill-rule="nonzero" fill="rgb(26.666667%, 26.666667%, 26.666667%)" fill-opacity="1" d="M 3 2 L 5 2 L 5 6 L 1 6 Z M 3 2 "/>
<path fill-rule="nonzero" fill="rgb(26.666667%, 26.666667%, 26.666667%)" fill-opacity="1" d="M 3 2 L 5 2 L 5 6 L 1 6 Z M 3 2 "/>
<path fill-rule="nonzero" fill="rgb(26.666667%, 26.666667%, 26.666667%)" fill-opacity="1" d="M 3 2 L 5 2 L 5 6 L 1 6 Z M 3 2 "/>
<path fill-rule="nonzero" fill="rgb(26.666667%, 26.666667%, 26.666667%)" fill-opacity="1" d="M 3 2 L 5 2 L 5 6 L 1 6 Z M 3 2 "/>
<path fill-rule="nonzero" fill="rgb(26.666667%, 26.666667%, 26.666667%)" fill-opacity="1" d="M 9 2 L 7 2 L 7 6 L 11 6 Z M 9 2 "/>
<path fill-rule="nonzero" fill="rgb(26.666667%, 26.666667%, 26.666667%)" fill-opacity="1" d="M 9 2 L 7 2 L 7 6 L 11 6 Z M 9 2 "/>
<path fill-rule="nonzero" fill="rgb(26.666667%, 26.666667%, 26.666667%)" fill-opacity="1" d="M 9 2 L 7 2 L 7 6 L 11 6 Z M 9 2 "/>
<path fill-rule="nonzero" fill="rgb(26.666667%, 26.666667%, 26.666667%)" fill-opacity="1" d="M 9 2 L 7 2 L 7 6 L 11 6 Z M 9 2 "/>
<path fill-rule="nonzero" fill="rgb(26.666667%, 26.666667%, 26.666667%)" fill-opacity="1" d="M 9 2 L 7 2 L 7 6 L 11 6 Z M 9 2 "/>
<path fill-rule="nonzero" fill="rgb(26.666667%, 26.666667%, 26.666667%)" fill-opacity="1" d="M 9 2 L 7 2 L 7 6 L 11 6 Z M 9 2 "/>
<path fill-rule="nonzero" fill="rgb(26.666667%, 26.666667%, 26.666667%)" fill-opacity="0.7" d="M 5 6 L 7 6 L 7 10 L 5 10 Z M 5 6 "/>
<path fill-rule="nonzero" fill="rgb(26.666667%, 26.666667%, 26.666667%)" fill-opacity="1" d="M 3 2 L 5 2 L 5 6 L 1 6 Z M 3 2 "/>
<path fill-rule="nonzero" fill="rgb(26.666667%, 26.666667%, 26.666667%)" fill-opacity="1" d="M 3 2 L 5 2 L 5 6 L 1 6 Z M 3 2 "/>
<path fill-rule="nonzero" fill="rgb(26.666667%, 26.666667%, 26.666667%)" fill-opacity="1" d="M 3 2 L 5 2 L 5 6 L 1 6 Z M 3 2 "/>
<path fill-rule="nonzero" fill="rgb(26.666667%, 26.666667%, 26.666667%)" fill-opacity="1" d="M 3 2 L 5 2 L 5 6 L 1 6 Z M 3 2 "/>
<path fill-rule="nonzero" fill="rgb(26.666667%, 26.666667%, 26.666667%)" fill-opacity="1" d="M 3 2 L 5 2 L 5 6 L 1 6 Z M 3 2 "/>
<path fill-rule="nonzero" fill="rgb(26.666667%, 26.666667%, 26.666667%)" fill-opacity="1" d="M 3 2 L 5 2 L 5 6 L 1 6 Z M 3 2 "/>
<path fill-rule="nonzero" fill="rgb(26.666667%, 26.666667%, 26.666667%)" fill-opacity="1" d="M 9 2 L 7 2 L 7 6 L 11 6 Z M 9 2 "/>
<path fill-rule="nonzero" fill="rgb(26.666667%, 26.666667%, 26.666667%)" fill-opacity="1" d="M 9 2 L 7 2 L 7 6 L 11 6 Z M 9 2 "/>
<path fill-rule="nonzero" fill="rgb(26.666667%, 26.666667%, 26.666667%)" fill-opacity="1" d="M 9 2 L 7 2 L 7 6 L 11 6 Z M 9 2 "/>
<path fill-rule="nonzero" fill="rgb(26.666667%, 26.666667%, 26.666667%)" fill-opacity="1" d="M 9 2 L 7 2 L 7 6 L 11 6 Z M 9 2 "/>
<path fill-rule="nonzero" fill="rgb(26.666667%, 26.666667%, 26.666667%)" fill-opacity="1" d="M 9 2 L 7 2 L 7 6 L 11 6 Z M 9 2 "/>
<path fill-rule="nonzero" fill="rgb(26.666667%, 26.666667%, 26.666667%)" fill-opacity="1" d="M 9 2 L 7 2 L 7 6 L 11 6 Z M 9 2 "/>
<path fill-rule="nonzero" fill="rgb(26.666667%, 26.666667%, 26.666667%)" fill-opacity="0.7" d="M 5 6 L 7 6 L 7 10 L 5 10 Z M 5 6 "/>
</svg>
