<?xml version="1.0" encoding="UTF-8"?>
<svg xmlns="http://www.w3.org/2000/svg" xmlns:xlink="http://www.w3.org/1999/xlink" width="32" height="32" viewBox="0 0 32 32">
<path fill-rule="nonzero" fill="rgb(24.705882%, 24.705882%, 24.705882%)" fill-opacity="1" d="M 22.582031 5.332031 L 21.699219 7.148438 L 21.699219 8.070312 L 10.25 8.070312 L 10.25 7.148438 L 9.410156 5.347656 L 7.929688 5.335938 L 7.109375 7.171875 L 7.0625 14.574219 L 0.429688 14.574219 C 0.335938 14.976562 0.253906 15.386719 0.191406 15.800781 L 7.054688 15.800781 L 7.046875 16.851562 L 0.0703125 16.808594 C 0.0234375 17.296875 0 17.792969 0 18.296875 C 0 18.535156 0.0078125 18.773438 0.015625 19.007812 C 1.351562 19.015625 2.914062 19.023438 3.589844 19.027344 C 5.28125 19.21875 5.304688 20.699219 5.304688 21.082031 L 5.304688 29.113281 L 9.585938 29.113281 L 9.585938 21.082031 C 9.585938 20.476562 9.84375 19.929688 10.25 19.539062 L 10.25 12.632812 L 21.699219 12.632812 L 21.699219 19.601562 C 22.070312 19.988281 22.4375 20.511719 22.4375 21.082031 L 22.4375 29.113281 L 26.71875 29.113281 L 26.71875 21.082031 C 26.71875 20.617188 26.890625 19.0625 28.691406 18.953125 C 29.238281 18.945312 30.664062 18.945312 31.988281 18.941406 C 31.996094 18.738281 32 18.53125 32 18.324219 C 32 17.8125 31.976562 17.300781 31.929688 16.800781 L 24.765625 16.804688 L 24.765625 15.800781 L 31.855469 15.800781 C 31.792969 15.386719 31.710938 14.976562 31.617188 14.574219 L 24.765625 14.574219 L 24.769531 7.15625 L 23.851562 5.347656 Z M 10.25 9.238281 L 21.699219 9.238281 L 21.699219 10.117188 L 10.25 10.117188 Z M 10.25 9.238281 "/>
</svg>
