<?xml version="1.0" encoding="UTF-8"?>
<svg xmlns="http://www.w3.org/2000/svg" xmlns:xlink="http://www.w3.org/1999/xlink" width="12" height="12" viewBox="0 0 12 12" version="1.1">
<g id="surface1">
<path style=" stroke:none;fill-rule:nonzero;fill:rgb(26.666668%,26.666668%,26.666668%);fill-opacity:1;" d="M 2.667969 2.476562 L 5.984375 5.523438 L 9.300781 2.535156 L 7.046875 1.292969 C 7.046875 1.292969 4.9375 1.382812 4.714844 1.425781 C 4.488281 1.472656 3.210938 2.078125 3.210938 2.078125 Z M 2.667969 2.476562 "/>
<path style="fill:none;stroke-width:37;stroke-linecap:round;stroke-linejoin:round;stroke:rgb(26.666668%,26.666668%,26.666668%);stroke-opacity:1;stroke-miterlimit:4;" d="M 519.394531 290 C 519.394531 350.794271 495.227865 409.134115 452.18099 452.18099 C 409.134115 495.227865 350.794271 519.394531 290 519.394531 C 229.205729 519.394531 170.865885 495.227865 127.81901 452.18099 C 84.772135 409.134115 60.605469 350.794271 60.605469 290 C 60.605469 229.205729 84.772135 170.865885 127.81901 127.81901 C 170.865885 84.772135 229.205729 60.605469 290 60.605469 C 350.794271 60.605469 409.134115 84.772135 452.18099 127.81901 C 495.227865 170.865885 519.394531 229.205729 519.394531 290 Z M 519.394531 290 " transform="matrix(0.0206897,0,0,0.0206897,0,0)"/>
<path style=" stroke:none;fill-rule:nonzero;fill:rgb(26.666668%,26.666668%,26.666668%);fill-opacity:1;" d="M 3.476562 9.941406 L 5.957031 7.65625 L 8.375 9.917969 L 6.761719 10.828125 C 6.761719 10.828125 5.179688 10.761719 5.011719 10.726562 C 4.84375 10.691406 3.882812 10.238281 3.882812 10.238281 Z M 3.476562 9.941406 "/>
</g>
</svg>
