<?xml version="1.0" encoding="UTF-8"?>
<svg xmlns="http://www.w3.org/2000/svg" xmlns:xlink="http://www.w3.org/1999/xlink" width="32" height="32" viewBox="0 0 32 32">
<path fill-rule="nonzero" fill="rgb(24.705882%, 24.705882%, 24.705882%)" fill-opacity="1" d="M 6.667969 2.667969 L 5.332031 10.667969 L 8 10.667969 Z M 25.332031 2.667969 L 24 10.667969 L 26.667969 10.667969 Z M 16 5.332031 L 10.667969 13.332031 L 10.667969 29.332031 L 13.332031 29.332031 L 13.332031 18.667969 C 13.332031 17.445312 13.957031 16 16 16 C 18.042969 16 18.667969 17.445312 18.667969 18.667969 L 18.667969 29.332031 L 21.332031 29.332031 L 21.332031 13.332031 Z M 5.332031 13.332031 L 5.332031 29.332031 L 8 29.332031 L 8 13.332031 Z M 24 13.332031 L 24 29.332031 L 26.667969 29.332031 L 26.667969 13.332031 Z M 26.667969 18.667969 L 26.667969 29.332031 L 29.332031 29.332031 L 29.332031 21.554688 Z M 26.667969 18.667969 "/>
<path fill-rule="nonzero" fill="rgb(24.705882%, 24.705882%, 24.705882%)" fill-opacity="1" d="M 5.332031 29.332031 L 5.332031 18.667969 L 2.667969 21.554688 L 2.667969 29.332031 Z M 5.332031 29.332031 "/>
</svg>
