<?xml version="1.0" encoding="UTF-8"?>
<svg xmlns="http://www.w3.org/2000/svg" xmlns:xlink="http://www.w3.org/1999/xlink" width="12" height="12" viewBox="0 0 12 12" version="1.1">
<g id="surface1">
<path style=" stroke:none;fill-rule:nonzero;fill:rgb(100%,100%,100%);fill-opacity:1;" d="M 10.210938 3.316406 L 6.492188 3.316406 C 6.375 3.316406 6.339844 3.199219 6.414062 3.125 L 6.992188 2.546875 L 10.210938 2.546875 Z M 10.210938 3.316406 "/>
<path style=" stroke:none;fill-rule:nonzero;fill:rgb(100%,100%,100%);fill-opacity:1;" d="M 10.210938 1.589844 C 10.210938 1.472656 10.136719 1.398438 10.058594 1.398438 L 6.605469 1.015625 C 6.453125 1.015625 6.339844 1.167969 6.414062 1.320312 L 7.144531 2.164062 L 10.210938 2.164062 Z M 10.210938 1.589844 "/>
<path style=" stroke:none;fill-rule:nonzero;fill:rgb(100%,100%,100%);fill-opacity:1;" d="M 7.375 2.546875 C 7.21875 2.777344 7.144531 3.046875 7.144531 3.316406 C 7.144531 4.160156 7.835938 4.847656 8.679688 4.847656 C 9.523438 4.847656 10.210938 4.160156 10.210938 3.316406 C 10.210938 3.046875 10.136719 2.777344 9.980469 2.546875 Z M 7.375 2.546875 "/>
<path style=" stroke:none;fill-rule:nonzero;fill:rgb(100%,100%,100%);fill-opacity:1;" d="M 3.84375 6.765625 L 1.851562 6.765625 C 1.734375 6.765625 1.660156 6.730469 1.621094 6.613281 L 1.046875 3.621094 C 1.007812 3.46875 1.046875 3.351562 1.160156 3.316406 L 3.15625 3.316406 C 3.269531 3.316406 3.347656 3.351562 3.386719 3.46875 L 4 6.535156 C 4.039062 6.652344 3.960938 6.730469 3.84375 6.765625 Z M 3.84375 6.765625 "/>
<path style="fill:none;stroke-width:18.5385;stroke-linecap:round;stroke-linejoin:round;stroke:rgb(100%,100%,100%);stroke-opacity:1;stroke-miterlimit:10;" d="M 59.85026 175.019531 C 56.074219 163.880208 61.738281 161.992188 67.213542 160.292969 L 169.166667 113.847656 C 174.641927 113.847656 178.417969 115.735677 180.30599 121.210938 L 209.947917 269.609375 " transform="matrix(0.0206897,0,0,0.0206897,0,0)"/>
<path style=" stroke:none;fill-rule:nonzero;fill:rgb(100%,100%,100%);fill-opacity:1;" d="M 5.992188 10.335938 L 9.523438 5.617188 L 7.296875 5.617188 C 6.953125 5.617188 6.605469 5.730469 6.339844 6 L 4.496094 7.648438 L 4 7.152344 L 1.851562 7.152344 L 3.921875 9.222656 C 4.074219 9.375 4.265625 9.453125 4.460938 9.453125 C 4.652344 9.453125 4.804688 9.375 4.957031 9.261719 L 5.992188 8.378906 Z M 5.992188 10.335938 "/>
<path style=" stroke:none;fill-rule:nonzero;fill:rgb(100%,100%,100%);fill-opacity:1;" d="M 10.519531 5.847656 L 6.683594 10.984375 L 10.980469 10.984375 L 10.980469 6.765625 C 10.980469 6.382812 10.789062 6.078125 10.519531 5.847656 Z M 10.519531 5.847656 "/>
</g>
</svg>
