<?xml version="1.0" encoding="UTF-8"?>
<svg xmlns="http://www.w3.org/2000/svg" xmlns:xlink="http://www.w3.org/1999/xlink" width="32" height="32" viewBox="0 0 32 32">
<path fill-rule="nonzero" fill="rgb(100%, 100%, 100%)" fill-opacity="1" d="M 27.234375 8.839844 L 17.3125 8.839844 C 17.003906 8.839844 16.902344 8.535156 17.105469 8.328125 L 18.640625 6.792969 L 27.234375 6.792969 Z M 27.234375 8.839844 "/>
<path fill-rule="nonzero" fill="rgb(100%, 100%, 100%)" fill-opacity="1" d="M 27.234375 4.238281 C 27.234375 3.929688 27.027344 3.726562 26.824219 3.726562 L 17.617188 2.703125 C 17.210938 2.703125 16.902344 3.113281 17.105469 3.523438 L 19.050781 5.773438 L 27.234375 5.773438 Z M 27.234375 4.238281 "/>
<path fill-rule="nonzero" fill="rgb(100%, 100%, 100%)" fill-opacity="1" d="M 19.664062 6.792969 C 19.253906 7.410156 19.050781 8.125 19.050781 8.839844 C 19.050781 11.089844 20.890625 12.929688 23.140625 12.929688 C 25.390625 12.929688 27.234375 11.089844 27.234375 8.839844 C 27.234375 8.125 27.027344 7.410156 26.621094 6.792969 Z M 19.664062 6.792969 "/>
<path fill-rule="nonzero" fill="rgb(100%, 100%, 100%)" fill-opacity="1" d="M 10.253906 18.046875 L 4.9375 18.046875 C 4.628906 18.046875 4.425781 17.941406 4.320312 17.636719 L 2.789062 9.660156 C 2.683594 9.25 2.789062 8.941406 3.09375 8.839844 L 8.414062 8.839844 C 8.71875 8.839844 8.925781 8.941406 9.027344 9.25 L 10.664062 17.433594 C 10.765625 17.738281 10.5625 17.941406 10.253906 18.046875 Z M 10.253906 18.046875 "/>
<path fill="none" stroke-width="18.5385" stroke-linecap="round" stroke-linejoin="round" stroke="rgb(100%, 100%, 100%)" stroke-opacity="1" stroke-miterlimit="10" d="M 59.82666 175.090332 C 56.074219 163.903809 61.66748 162.062988 67.189941 160.222168 L 169.143066 113.918457 C 174.736328 113.918457 178.417969 115.759277 180.32959 121.281738 L 209.924316 269.609375 " transform="matrix(0.0551724, 0, 0, 0.0551724, 0, 0)"/>
<path fill-rule="nonzero" fill="rgb(100%, 100%, 100%)" fill-opacity="1" d="M 15.980469 27.558594 L 25.390625 14.976562 L 19.460938 14.976562 C 18.539062 14.976562 17.617188 15.285156 16.902344 16 L 11.992188 20.398438 L 10.664062 19.070312 L 4.9375 19.070312 L 10.457031 24.589844 C 10.867188 25 11.378906 25.207031 11.890625 25.207031 C 12.402344 25.207031 12.8125 25 13.21875 24.695312 L 15.980469 22.339844 Z M 15.980469 27.558594 "/>
<path fill-rule="nonzero" fill="rgb(100%, 100%, 100%)" fill-opacity="1" d="M 28.050781 15.589844 L 17.824219 29.296875 L 29.277344 29.296875 L 29.277344 18.046875 C 29.277344 17.023438 28.765625 16.203125 28.050781 15.589844 Z M 28.050781 15.589844 "/>
</svg>
