<?xml version="1.0" encoding="UTF-8"?>
<svg xmlns="http://www.w3.org/2000/svg" xmlns:xlink="http://www.w3.org/1999/xlink" width="12" height="12" viewBox="0 0 12 12">
<path fill-rule="nonzero" fill="rgb(26.666667%, 26.666667%, 26.666667%)" fill-opacity="1" d="M 6 2.269531 C 5.292969 2.296875 5.039062 2.28125 4.210938 2.871094 L 4.210938 8.96875 C 4.609375 9.410156 7.429688 9.449219 7.847656 8.96875 L 7.847656 2.871094 C 7.179688 2.316406 6.726562 2.285156 6 2.269531 Z M 6 2.269531 "/>
<path fill-rule="nonzero" fill="rgb(26.666667%, 26.666667%, 26.666667%)" fill-opacity="1" d="M 6.0625 8.4375 C 5.371094 8.445312 4.621094 8.429688 4.015625 8.597656 C 3.816406 8.652344 3.730469 8.75 3.726562 8.851562 C 3.722656 8.960938 3.738281 9.273438 3.730469 9.535156 C 3.75 9.710938 5.191406 9.238281 5.742188 9.257812 C 6.496094 9.269531 8.351562 9.703125 8.34375 9.554688 C 8.34375 9.3125 8.347656 9.085938 8.34375 8.855469 C 8.34375 8.792969 8.3125 8.730469 8.222656 8.679688 C 7.957031 8.511719 7.449219 8.480469 7.011719 8.457031 C 6.699219 8.441406 6.378906 8.4375 6.0625 8.4375 Z M 6.0625 8.4375 "/>
<path fill-rule="nonzero" fill="rgb(26.666667%, 26.666667%, 26.666667%)" fill-opacity="1" d="M 6.0625 9.140625 C 5.371094 9.148438 4.621094 9.132812 4.015625 9.300781 C 3.597656 9.417969 3.640625 9.734375 4.101562 9.828125 C 4.585938 9.957031 5.191406 9.941406 5.742188 9.960938 C 6.496094 9.972656 7.285156 9.964844 7.976562 9.832031 C 8.3125 9.738281 8.472656 9.527344 8.222656 9.382812 C 7.957031 9.214844 7.449219 9.183594 7.011719 9.160156 C 6.699219 9.144531 6.378906 9.140625 6.0625 9.140625 Z M 6.0625 9.140625 "/>
</svg>
