<?xml version="1.0" encoding="UTF-8"?>
<svg xmlns="http://www.w3.org/2000/svg" xmlns:xlink="http://www.w3.org/1999/xlink" width="32" height="32" viewBox="0 0 32 32">
<defs>
<filter id="filter-remove-color" x="0%" y="0%" width="100%" height="100%">
<feColorMatrix color-interpolation-filters="sRGB" values="0 0 0 0 1 0 0 0 0 1 0 0 0 0 1 0 0 0 1 0" />
</filter>
<mask id="mask-0">
<g filter="url(#filter-remove-color)">
<rect x="-3.2" y="-3.2" width="38.4" height="38.4" fill="rgb(0%, 0%, 0%)" fill-opacity="0.7"/>
</g>
</mask>
<clipPath id="clip-0">
<rect x="0" y="0" width="32" height="32"/>
</clipPath>
<g id="source-7" clip-path="url(#clip-0)">
<path fill-rule="evenodd" fill="rgb(24.705882%, 24.705882%, 24.705882%)" fill-opacity="1" d="M 15.648438 16.308594 L 15.140625 20.363281 C 15.078125 20.878906 15.480469 21.332031 16 21.332031 C 16.519531 21.332031 16.921875 20.878906 16.859375 20.363281 L 16.351562 16.308594 C 16.328125 16.132812 16.179688 16 16 16 C 15.820312 16 15.671875 16.132812 15.648438 16.308594 Z M 18.996094 15.980469 C 18.808594 14.46875 17.523438 13.332031 16 13.332031 C 14.476562 13.332031 13.191406 14.46875 13.003906 15.980469 L 12.496094 20.03125 C 12.234375 22.136719 13.875 24 16 24 C 18.125 24 19.765625 22.136719 19.503906 20.03125 Z M 18.996094 15.980469 "/>
</g>
</defs>
<path fill-rule="evenodd" fill="rgb(24.705882%, 24.705882%, 24.705882%)" fill-opacity="1" d="M 5.332031 26.667969 L 5.332031 11.949219 L 16 3.414062 L 26.667969 11.949219 L 26.667969 26.667969 Z M 16 0 L 2.667969 10.667969 L 2.667969 29.332031 L 29.332031 29.332031 L 29.332031 10.667969 Z M 16 0 "/>
<g mask="url(#mask-0)">
<use xlink:href="#source-7"/>
</g>
<path fill-rule="nonzero" fill="rgb(24.705882%, 24.705882%, 24.705882%)" fill-opacity="1" d="M 13.332031 10.667969 C 13.332031 9.195312 14.527344 8 16 8 C 17.472656 8 18.667969 9.195312 18.667969 10.667969 C 18.667969 12.140625 17.472656 13.332031 16 13.332031 C 14.527344 13.332031 13.332031 12.140625 13.332031 10.667969 Z M 13.332031 10.667969 "/>
<path fill-rule="nonzero" fill="rgb(24.705882%, 24.705882%, 24.705882%)" fill-opacity="1" d="M 16 13.332031 L 21.332031 13.332031 C 22.804688 13.332031 24 14.527344 24 16 C 24 17.472656 22.804688 18.667969 21.332031 18.667969 C 18.386719 18.667969 16 16.277344 16 13.332031 Z M 16 13.332031 "/>
<path fill-rule="nonzero" fill="rgb(24.705882%, 24.705882%, 24.705882%)" fill-opacity="1" d="M 16 13.332031 C 16 16.277344 13.613281 18.667969 10.667969 18.667969 C 9.195312 18.667969 8 17.472656 8 16 C 8 14.527344 9.195312 13.332031 10.667969 13.332031 Z M 16 13.332031 "/>
</svg>
