<?xml version="1.0" encoding="UTF-8"?>
<svg xmlns="http://www.w3.org/2000/svg" xmlns:xlink="http://www.w3.org/1999/xlink" width="12" height="12" viewBox="0 0 12 12" version="1.1">
<g id="surface1">
<path style=" stroke:none;fill-rule:nonzero;fill:rgb(24.705882%,24.705882%,24.705882%);fill-opacity:1;" d="M 2.25 1 C 2.132812 1.015625 1.996094 1.148438 1.707031 2.175781 C 1.652344 2.371094 1.5 2.929688 1.429688 3.40625 C 1.617188 3.414062 1.792969 3.484375 1.925781 3.601562 L 2.675781 3.601562 C 2.808594 3.484375 2.980469 3.414062 3.167969 3.40625 C 3.101562 2.929688 2.949219 2.367188 2.894531 2.167969 C 2.5625 1 2.425781 1 2.300781 1 C 2.285156 1 2.265625 1 2.25 1 Z M 9.648438 1 C 9.535156 1.015625 9.398438 1.148438 9.105469 2.175781 C 9.050781 2.371094 8.898438 2.929688 8.832031 3.40625 C 9.019531 3.414062 9.191406 3.484375 9.324219 3.601562 L 10.074219 3.601562 C 10.207031 3.484375 10.382812 3.414062 10.570312 3.40625 C 10.5 2.929688 10.347656 2.367188 10.292969 2.167969 C 9.960938 1 9.828125 1 9.699219 1 C 9.683594 1 9.667969 1 9.648438 1 Z M 1.398438 3.800781 C 1.179688 3.800781 1 3.980469 1 4.199219 C 1 4.421875 1.179688 4.601562 1.398438 4.601562 C 1.621094 4.601562 1.800781 4.421875 1.800781 4.199219 C 1.800781 3.980469 1.621094 3.800781 1.398438 3.800781 Z M 3.199219 3.800781 C 2.980469 3.800781 2.800781 3.980469 2.800781 4.199219 C 2.800781 4.421875 2.980469 4.601562 3.199219 4.601562 C 3.421875 4.601562 3.601562 4.421875 3.601562 4.199219 C 3.601562 3.980469 3.421875 3.800781 3.199219 3.800781 Z M 6 3.800781 C 5.929688 3.800781 5.867188 3.835938 5.832031 3.894531 C 5.753906 4.019531 5.515625 4.15625 5.261719 4.292969 C 4.628906 4.648438 3.773438 5.121094 3.625 6.402344 L 8.367188 6.402344 C 8.207031 5.144531 7.363281 4.644531 6.738281 4.292969 C 6.484375 4.15625 6.246094 4.019531 6.167969 3.894531 C 6.132812 3.835938 6.070312 3.800781 6 3.800781 Z M 8.800781 3.800781 C 8.578125 3.800781 8.398438 3.980469 8.398438 4.199219 C 8.398438 4.421875 8.578125 4.601562 8.800781 4.601562 C 9.019531 4.601562 9.199219 4.421875 9.199219 4.199219 C 9.199219 3.980469 9.019531 3.800781 8.800781 3.800781 Z M 10.601562 3.800781 C 10.378906 3.800781 10.199219 3.980469 10.199219 4.199219 C 10.199219 4.421875 10.378906 4.601562 10.601562 4.601562 C 10.820312 4.601562 11 4.421875 11 4.199219 C 11 3.980469 10.820312 3.800781 10.601562 3.800781 Z M 2.167969 4 C 2.183594 4.066406 2.199219 4.132812 2.199219 4.199219 C 2.199219 4.640625 1.839844 5 1.398438 5 L 1.398438 10.800781 C 1.398438 10.910156 1.488281 11 1.601562 11 L 3 11 C 3.003906 11 3.003906 11 3.007812 11 C 3.007812 11 3.011719 11 3.011719 11 L 3.199219 11 L 3.199219 5 C 2.757812 5 2.398438 4.640625 2.398438 4.199219 C 2.398438 4.132812 2.414062 4.066406 2.429688 4 Z M 9.570312 4 C 9.585938 4.066406 9.601562 4.132812 9.601562 4.199219 C 9.601562 4.640625 9.242188 5 8.800781 5 L 8.800781 11 L 10.398438 11 C 10.511719 11 10.601562 10.910156 10.601562 10.800781 L 10.601562 5 C 10.160156 5 9.800781 4.640625 9.800781 4.199219 C 9.800781 4.132812 9.816406 4.066406 9.832031 4 Z M 3.601562 6.800781 L 3.601562 11 L 5 11 C 5.109375 11 5.199219 10.910156 5.199219 10.800781 L 5.199219 10.0625 C 5.199219 9.613281 5.714844 9.207031 6 9.03125 C 6.289062 9.207031 6.800781 9.613281 6.800781 10.0625 L 6.800781 10.800781 C 6.800781 10.910156 6.890625 11 7 11 L 8.398438 11 L 8.398438 6.800781 Z M 3.601562 6.800781 "/>
</g>
</svg>
