<?xml version="1.0" encoding="UTF-8"?>
<svg xmlns="http://www.w3.org/2000/svg" xmlns:xlink="http://www.w3.org/1999/xlink" width="32" height="32" viewBox="0 0 32 32">
<defs>
<filter id="filter-remove-color" x="0%" y="0%" width="100%" height="100%">
<feColorMatrix color-interpolation-filters="sRGB" values="0 0 0 0 1 0 0 0 0 1 0 0 0 0 1 0 0 0 1 0" />
</filter>
<mask id="mask-0">
<g filter="url(#filter-remove-color)">
<rect x="-3.2" y="-3.2" width="38.4" height="38.4" fill="rgb(0%, 0%, 0%)" fill-opacity="0.5"/>
</g>
</mask>
<clipPath id="clip-0">
<rect x="0" y="0" width="32" height="32"/>
</clipPath>
<g id="source-9" clip-path="url(#clip-0)">
<path fill-rule="evenodd" fill="rgb(100%, 100%, 100%)" fill-opacity="1" d="M 18.667969 5.332031 C 17.195312 5.332031 16 6.527344 16 8 L 16 12 C 16 12.738281 15.402344 13.332031 14.667969 13.332031 C 13.929688 13.332031 13.332031 12.738281 13.332031 12 L 13.332031 8 C 13.332031 5.054688 15.722656 2.667969 18.667969 2.667969 C 21.613281 2.667969 24 5.054688 24 8 L 24 12 C 24 12.738281 23.402344 13.332031 22.667969 13.332031 C 21.929688 13.332031 21.332031 12.738281 21.332031 12 L 21.332031 8 C 21.332031 6.527344 20.140625 5.332031 18.667969 5.332031 Z M 18.667969 5.332031 "/>
</g>
</defs>
<path fill-rule="evenodd" fill="rgb(100%, 100%, 100%)" fill-opacity="1" d="M 2.667969 2.667969 L 2.667969 13.332031 L 5.332031 13.332031 L 5.332031 10.667969 L 8 10.667969 C 9.472656 10.667969 10.667969 9.472656 10.667969 8 L 10.667969 5.332031 C 10.667969 3.859375 9.472656 2.667969 8 2.667969 Z M 5.332031 8 L 8 8 L 8 5.332031 L 5.332031 5.332031 Z M 5.332031 8 "/>
<path fill-rule="evenodd" fill="rgb(100%, 100%, 100%)" fill-opacity="1" d="M 10.667969 17.332031 C 10.667969 16.597656 11.261719 16 12 16 L 14.667969 16 C 15.402344 16 16 16.597656 16 17.332031 L 16 22.351562 L 16.839844 24.03125 C 17 24.011719 17.164062 24 17.332031 24 C 19.542969 24 21.332031 25.789062 21.332031 28 C 21.332031 30.210938 19.542969 32 17.332031 32 C 15.589844 32 14.109375 30.886719 13.5625 29.332031 L 7.773438 29.332031 C 7.222656 30.886719 5.742188 32 4 32 C 1.789062 32 0 30.210938 0 28 C 0 25.789062 1.789062 24 4 24 C 4.167969 24 4.332031 24.011719 4.496094 24.03125 L 5.042969 22.929688 L 3.058594 20.941406 C 2.675781 20.5625 2.5625 19.988281 2.769531 19.488281 C 2.972656 18.992188 3.460938 18.667969 4 18.667969 L 6.667969 18.667969 C 7.402344 18.667969 8 19.261719 8 20 C 8 20.570312 7.640625 21.058594 7.132812 21.25 L 7.21875 21.332031 L 13.332031 21.332031 L 13.332031 18.667969 L 12 18.667969 C 11.261719 18.667969 10.667969 18.070312 10.667969 17.332031 Z M 6.878906 25.222656 C 7.273438 25.628906 7.578125 26.121094 7.773438 26.667969 L 13.5625 26.667969 C 13.753906 26.121094 14.0625 25.628906 14.453125 25.222656 L 13.84375 24 L 7.492188 24 Z M 4 29.332031 C 4.738281 29.332031 5.332031 28.738281 5.332031 28 C 5.332031 27.261719 4.738281 26.667969 4 26.667969 C 3.261719 26.667969 2.667969 27.261719 2.667969 28 C 2.667969 28.738281 3.261719 29.332031 4 29.332031 Z M 17.332031 29.332031 C 18.070312 29.332031 18.667969 28.738281 18.667969 28 C 18.667969 27.261719 18.070312 26.667969 17.332031 26.667969 C 16.597656 26.667969 16 27.261719 16 28 C 16 28.738281 16.597656 29.332031 17.332031 29.332031 Z M 17.332031 29.332031 "/>
<path fill-rule="evenodd" fill="rgb(100%, 100%, 100%)" fill-opacity="1" d="M 24 5.332031 C 22.527344 5.332031 21.332031 6.527344 21.332031 8 L 21.332031 12 C 21.332031 12.738281 20.738281 13.332031 20 13.332031 C 19.261719 13.332031 18.667969 12.738281 18.667969 12 L 18.667969 8 C 18.667969 5.054688 21.054688 2.667969 24 2.667969 C 26.945312 2.667969 29.332031 5.054688 29.332031 8 L 29.332031 12 C 29.332031 12.738281 28.738281 13.332031 28 13.332031 C 27.261719 13.332031 26.667969 12.738281 26.667969 12 L 26.667969 8 C 26.667969 6.527344 25.472656 5.332031 24 5.332031 Z M 24 5.332031 "/>
<g mask="url(#mask-0)">
<use xlink:href="#source-9"/>
</g>
</svg>
