<?xml version="1.0" encoding="UTF-8"?>
<svg xmlns="http://www.w3.org/2000/svg" xmlns:xlink="http://www.w3.org/1999/xlink" width="12" height="12" viewBox="0 0 12 12" version="1.1">
<g id="surface1">
<path style=" stroke:none;fill-rule:evenodd;fill:rgb(100%,100%,100%);fill-opacity:1;" d="M 1 1 L 1 5 L 2 5 L 2 4 L 3 4 C 3.550781 4 4 3.550781 4 3 L 4 2 C 4 1.449219 3.550781 1 3 1 Z M 2 3 L 3 3 L 3 2 L 2 2 Z M 2 3 "/>
<path style=" stroke:none;fill-rule:evenodd;fill:rgb(100%,100%,100%);fill-opacity:1;" d="M 4 6.5 C 4 6.222656 4.222656 6 4.5 6 L 5.5 6 C 5.777344 6 6 6.222656 6 6.5 L 6 8.382812 L 6.316406 9.011719 C 6.375 9.003906 6.4375 9 6.5 9 C 7.328125 9 8 9.671875 8 10.5 C 8 11.328125 7.328125 12 6.5 12 C 5.847656 12 5.292969 11.582031 5.085938 11 L 2.914062 11 C 2.707031 11.582031 2.152344 12 1.5 12 C 0.671875 12 0 11.328125 0 10.5 C 0 9.671875 0.671875 9 1.5 9 C 1.5625 9 1.625 9.003906 1.683594 9.011719 L 1.890625 8.597656 L 1.144531 7.855469 C 1.003906 7.710938 0.960938 7.496094 1.039062 7.308594 C 1.117188 7.121094 1.296875 7 1.5 7 L 2.5 7 C 2.777344 7 3 7.222656 3 7.5 C 3 7.714844 2.863281 7.898438 2.675781 7.96875 L 2.707031 8 L 5 8 L 5 7 L 4.5 7 C 4.222656 7 4 6.777344 4 6.5 Z M 2.578125 9.457031 C 2.726562 9.613281 2.84375 9.796875 2.914062 10 L 5.085938 10 C 5.15625 9.796875 5.273438 9.613281 5.421875 9.457031 L 5.191406 9 L 2.808594 9 Z M 1.5 11 C 1.777344 11 2 10.777344 2 10.5 C 2 10.222656 1.777344 10 1.5 10 C 1.222656 10 1 10.222656 1 10.5 C 1 10.777344 1.222656 11 1.5 11 Z M 6.5 11 C 6.777344 11 7 10.777344 7 10.5 C 7 10.222656 6.777344 10 6.5 10 C 6.222656 10 6 10.222656 6 10.5 C 6 10.777344 6.222656 11 6.5 11 Z M 6.5 11 "/>
<path style=" stroke:none;fill-rule:evenodd;fill:rgb(100%,100%,100%);fill-opacity:1;" d="M 8 2 C 8 1.449219 8.449219 1 9 1 C 9.550781 1 10 1.449219 10 2 C 11.105469 2 12 2.894531 12 4 C 12 5.105469 11.105469 6 10 6 L 10 8 L 8 8 L 8 6 C 6.894531 6 6 5.105469 6 4 C 6 2.894531 6.894531 2 8 2 Z M 7 4 C 7 3.449219 7.449219 3 8 3 L 8 5 C 7.449219 5 7 4.550781 7 4 Z M 11 4 C 11 3.449219 10.550781 3 10 3 L 10 5 C 10.550781 5 11 4.550781 11 4 Z M 11 4 "/>
</g>
</svg>
