<?xml version="1.0" encoding="UTF-8"?>
<svg xmlns="http://www.w3.org/2000/svg" xmlns:xlink="http://www.w3.org/1999/xlink" width="32" height="32" viewBox="0 0 32 32">
<path fill-rule="nonzero" fill="rgb(26.666667%, 26.666667%, 26.666667%)" fill-opacity="1" d="M 16.539062 7.984375 C 16.289062 7.917969 16.066406 7.921875 15.898438 8.058594 C 14.851562 8.902344 14.234375 9.9375 13.03125 9.917969 C 10.34375 9.878906 7.136719 8.40625 5.273438 8.074219 C 2.164062 7.925781 0.0898438 13.449219 3.382812 15.125 C 11.839844 17.972656 20.65625 21.484375 24.75 23.550781 C 24.75 23.546875 24.75 23.542969 24.746094 23.539062 C 25.898438 24.464844 27.5 24.132812 28.730469 22.707031 C 30.292969 20.898438 30.757812 17.929688 29.769531 16.035156 L 29.621094 15.777344 C 29.246094 15.179688 28.738281 14.777344 28.148438 14.613281 C 28.089844 14.597656 28.023438 14.582031 27.960938 14.574219 C 25.453125 13.867188 18.910156 12.34375 18.714844 11.773438 C 18.578125 11.371094 19.503906 8.28125 19.347656 8.328125 C 17.933594 8.761719 17.082031 8.128906 16.539062 7.984375 Z M 27.75 16.066406 C 28.15625 16.179688 28.507812 16.457031 28.765625 16.867188 L 28.867188 17.046875 C 29.546875 18.355469 29.226562 20.398438 28.148438 21.648438 C 27.070312 22.894531 25.632812 22.886719 24.910156 21.628906 C 24.1875 20.371094 24.453125 18.328125 25.503906 17.03125 C 26.160156 16.21875 27.007812 15.855469 27.75 16.066406 Z M 27.15625 18.230469 C 26.910156 18.160156 26.632812 18.28125 26.414062 18.546875 C 26.070312 18.976562 25.984375 19.648438 26.21875 20.0625 C 26.457031 20.476562 26.933594 20.480469 27.289062 20.070312 C 27.644531 19.65625 27.75 18.984375 27.523438 18.554688 L 27.492188 18.496094 C 27.40625 18.359375 27.289062 18.269531 27.15625 18.230469 Z M 27.15625 18.230469 "/>
</svg>
