<?xml version="1.0" encoding="UTF-8"?>
<svg xmlns="http://www.w3.org/2000/svg" xmlns:xlink="http://www.w3.org/1999/xlink" width="32" height="32" viewBox="0 0 32 32">
<path fill-rule="evenodd" fill="rgb(24.705882%, 24.705882%, 24.705882%)" fill-opacity="1" d="M 19.332031 7.824219 L 19.335938 9.089844 L 21.320312 9.09375 C 21.558594 9.097656 21.679688 9.429688 21.21875 9.558594 C 21.015625 9.613281 20.789062 9.855469 20.714844 10.15625 C 20.636719 10.457031 20.695312 10.753906 20.804688 11.03125 C 20.828125 11.09375 20.882812 11.292969 20.953125 11.5625 L 16.058594 11.589844 L 17.183594 12.714844 L 21.277344 12.695312 C 21.378906 13.042969 21.488281 13.410156 21.601562 13.804688 L 19.617188 15.148438 L 20.433594 15.964844 L 21.933594 14.949219 C 21.988281 15.132812 22.039062 15.316406 22.089844 15.496094 C 21.699219 15.8125 21.355469 16.1875 21.074219 16.605469 L 22.09375 17.625 C 22.21875 17.402344 22.363281 17.195312 22.53125 17.007812 C 22.589844 17.203125 22.648438 17.40625 22.691406 17.546875 C 22.753906 17.753906 22.785156 17.867188 22.839844 18 L 22.863281 18.054688 L 22.894531 18.101562 C 22.910156 18.128906 23.042969 18.492188 23.363281 18.894531 L 23.839844 19.371094 C 24.246094 19.6875 24.597656 19.808594 24.824219 19.878906 C 25.074219 19.957031 25.421875 19.917969 25.585938 19.660156 C 25.71875 19.46875 25.601562 19.082031 25.351562 18.902344 C 25.253906 18.832031 24.96875 18.605469 24.617188 18.300781 C 24.304688 18.019531 24.28125 17.808594 24.09375 17.480469 C 24.097656 17.492188 24.046875 17.34375 23.988281 17.152344 C 23.929688 16.953125 23.851562 16.691406 23.761719 16.386719 C 23.742188 16.320312 23.710938 16.214844 23.691406 16.144531 C 24.144531 15.933594 24.652344 15.8125 25.191406 15.8125 C 27.15625 15.8125 28.738281 17.394531 28.738281 19.363281 C 28.738281 20.695312 28.007812 21.851562 26.925781 22.457031 L 27.945312 23.476562 C 29.273438 22.585938 30.148438 21.074219 30.148438 19.363281 C 30.148438 16.632812 27.917969 14.402344 25.191406 14.402344 C 24.519531 14.402344 23.878906 14.539062 23.296875 14.78125 C 23.238281 14.574219 23.1875 14.410156 23.128906 14.199219 C 22.898438 13.40625 22.664062 12.597656 22.46875 11.941406 C 22.273438 11.289062 22.09375 10.890625 22.035156 10.601562 C 21.988281 10.378906 22.273438 10.398438 22.570312 10.148438 C 22.796875 9.960938 22.988281 9.640625 23.046875 9.316406 C 23.097656 9.035156 23.035156 8.746094 22.902344 8.511719 C 22.445312 7.808594 21.996094 7.824219 21.402344 7.824219 C 20.621094 7.824219 19.332031 7.824219 19.332031 7.824219 Z M 10.257812 12.152344 L 8.808594 14.84375 C 8.238281 14.613281 7.613281 14.484375 6.964844 14.484375 C 4.234375 14.484375 2.003906 16.714844 2.003906 19.445312 C 2.003906 22.175781 4.234375 24.402344 6.964844 24.402344 C 9.53125 24.402344 11.652344 22.433594 11.898438 19.929688 L 13.082031 19.929688 C 13.21875 20.171875 13.4375 20.371094 13.707031 20.496094 L 13.207031 21.65625 L 12.316406 21.664062 C 12.273438 21.664062 12.226562 21.671875 12.183594 21.6875 C 12.140625 21.707031 12.101562 21.734375 12.070312 21.765625 C 12.039062 21.796875 12.011719 21.835938 11.996094 21.878906 C 11.980469 21.921875 11.96875 21.964844 11.96875 22.011719 C 11.972656 22.058594 11.980469 22.101562 12 22.144531 C 12.015625 22.1875 12.042969 22.226562 12.074219 22.257812 C 12.109375 22.289062 12.148438 22.3125 12.191406 22.332031 C 12.230469 22.347656 12.277344 22.355469 12.324219 22.355469 L 14.324219 22.335938 C 14.371094 22.335938 14.414062 22.328125 14.457031 22.308594 C 14.5 22.292969 14.539062 22.265625 14.570312 22.234375 C 14.601562 22.203125 14.628906 22.164062 14.644531 22.121094 C 14.664062 22.078125 14.671875 22.03125 14.671875 21.988281 C 14.671875 21.941406 14.660156 21.894531 14.644531 21.855469 C 14.625 21.8125 14.597656 21.773438 14.566406 21.742188 C 14.535156 21.710938 14.496094 21.683594 14.453125 21.667969 C 14.410156 21.652344 14.363281 21.644531 14.316406 21.644531 L 13.75 21.648438 L 14.1875 20.632812 C 14.25 20.640625 14.3125 20.644531 14.378906 20.644531 C 15.167969 20.644531 15.816406 20.074219 15.816406 19.375 C 15.816406 19.289062 15.804688 19.203125 15.785156 19.117188 L 16.644531 18.535156 L 15.828125 17.722656 L 15.277344 18.09375 L 15.554688 17.449219 L 14.574219 16.46875 L 14.570312 16.46875 C 14.523438 16.46875 14.480469 16.476562 14.4375 16.496094 C 14.394531 16.511719 14.355469 16.539062 14.324219 16.570312 C 14.292969 16.601562 14.265625 16.640625 14.25 16.683594 C 14.230469 16.726562 14.222656 16.769531 14.222656 16.816406 C 14.222656 16.863281 14.234375 16.910156 14.25 16.949219 C 14.269531 16.992188 14.296875 17.03125 14.328125 17.0625 C 14.363281 17.09375 14.402344 17.121094 14.441406 17.136719 C 14.484375 17.152344 14.53125 17.160156 14.578125 17.160156 L 15.140625 17.15625 L 14.71875 18.140625 C 14.675781 18.132812 14.636719 18.125 14.59375 18.121094 L 13.46875 15.359375 Z M 11.058594 13.050781 L 13.300781 18.535156 C 13.222656 18.613281 13.152344 18.703125 13.097656 18.796875 L 11.878906 18.796875 C 11.691406 17.390625 10.914062 16.164062 9.804688 15.382812 Z M 6.964844 15.898438 C 7.375 15.898438 7.769531 15.964844 8.132812 16.09375 L 6.519531 19.09375 C 6.472656 19.179688 6.449219 19.277344 6.453125 19.375 C 6.453125 19.472656 6.480469 19.566406 6.53125 19.652344 C 6.582031 19.734375 6.652344 19.804688 6.738281 19.855469 C 6.824219 19.902344 6.921875 19.929688 7.019531 19.929688 L 10.476562 19.929688 C 10.242188 21.664062 8.765625 22.992188 6.964844 22.992188 C 4.996094 22.992188 3.414062 21.410156 3.414062 19.445312 C 3.414062 17.476562 4.996094 15.898438 6.964844 15.898438 Z M 9.132812 16.632812 C 9.808594 17.152344 10.289062 17.917969 10.449219 18.796875 L 7.964844 18.796875 Z M 9.132812 16.632812 "/>
<path fill-rule="evenodd" fill="rgb(24.705882%, 24.705882%, 24.705882%)" fill-opacity="1" d="M 7.570312 5.277344 L 5.394531 7.453125 L 26.25 28.308594 L 27.253906 27.304688 L 27.257812 27.304688 L 28.425781 26.132812 Z M 7.570312 5.277344 "/>
</svg>
