<?xml version="1.0" encoding="UTF-8"?>
<svg xmlns="http://www.w3.org/2000/svg" xmlns:xlink="http://www.w3.org/1999/xlink" width="32" height="32" viewBox="0 0 32 32">
<path fill-rule="evenodd" fill="rgb(26.666667%, 26.666667%, 26.666667%)" fill-opacity="1" d="M 26.667969 3.332031 C 27.769531 3.332031 28.667969 4.230469 28.667969 5.332031 L 28.667969 26.667969 C 28.667969 27.769531 27.769531 28.667969 26.667969 28.667969 C 25.5625 28.667969 24.667969 27.769531 24.667969 26.667969 L 24.667969 24.667969 L 6.667969 24.667969 C 4.824219 24.667969 3.332031 23.175781 3.332031 21.332031 L 3.332031 10.667969 C 3.332031 8.824219 4.824219 7.332031 6.667969 7.332031 L 24.667969 7.332031 L 24.667969 5.332031 C 24.667969 4.230469 25.5625 3.332031 26.667969 3.332031 Z M 24.667969 11.332031 L 24.667969 20.667969 L 14.828125 20.667969 L 22.292969 11.332031 Z M 17.171875 11.332031 L 9.703125 20.667969 L 7.332031 20.667969 L 7.332031 11.332031 Z M 17.171875 11.332031 "/>
</svg>
