<?xml version="1.0" encoding="UTF-8"?>
<svg xmlns="http://www.w3.org/2000/svg" xmlns:xlink="http://www.w3.org/1999/xlink" width="32" height="32" viewBox="0 0 32 32">
<path fill-rule="nonzero" fill="rgb(100%, 100%, 100%)" fill-opacity="1" d="M 4.136719 7.324219 L 11.015625 13.433594 C 11.082031 13.492188 11.160156 13.542969 11.234375 13.578125 L 14.890625 18.679688 C 14.929688 18.796875 14.980469 18.90625 15.050781 19.011719 L 20.128906 26.664062 C 20.382812 27.046875 20.804688 27.257812 21.230469 27.257812 C 21.484375 27.257812 21.738281 27.183594 21.964844 27.035156 C 22.574219 26.632812 22.738281 25.808594 22.335938 25.199219 L 17.78125 18.339844 L 18.304688 17.964844 L 22.8125 24.761719 C 23.066406 25.144531 23.488281 25.351562 23.917969 25.351562 C 24.167969 25.351562 24.421875 25.28125 24.648438 25.132812 C 25.257812 24.726562 25.425781 23.90625 25.019531 23.296875 L 19.941406 15.644531 C 19.9375 15.640625 19.933594 15.632812 19.929688 15.625 C 19.90625 15.582031 19.882812 15.539062 19.851562 15.5 L 17.03125 11.566406 L 24.296875 11.710938 C 24.304688 11.710938 24.3125 11.710938 24.316406 11.710938 C 24.855469 11.710938 25.300781 11.28125 25.308594 10.738281 C 25.320312 10.191406 24.886719 9.734375 24.335938 9.726562 L 15.140625 9.539062 C 14.789062 9.53125 14.480469 9.707031 14.300781 9.972656 L 13.660156 10.429688 L 12.148438 11.625 C 12.148438 11.625 7.570312 7.714844 5.457031 5.839844 C 5.046875 5.476562 4.417969 5.511719 4.054688 5.921875 C 3.6875 6.332031 3.726562 6.960938 4.136719 7.324219 Z M 4.136719 7.324219 "/>
<path fill-rule="nonzero" fill="rgb(100%, 100%, 100%)" fill-opacity="1" d="M 5.910156 5.105469 C 7.039062 5.105469 7.957031 4.191406 7.957031 3.058594 C 7.957031 1.929688 7.039062 1.011719 5.910156 1.011719 C 4.78125 1.011719 3.863281 1.929688 3.863281 3.058594 C 3.863281 4.191406 4.78125 5.105469 5.910156 5.105469 Z M 5.910156 5.105469 "/>
<path fill="none" stroke-width="21.3442" stroke-linecap="butt" stroke-linejoin="miter" stroke="rgb(100%, 100%, 100%)" stroke-opacity="1" stroke-miterlimit="4" d="M 536.45752 521.660156 C 536.032715 519.465332 534.121094 518.049316 532.138672 518.544922 C 521.164551 521.235352 490.153809 526.616211 478.754883 519.040527 C 461.408691 507.641602 426.787109 518.190918 425.300293 518.615723 L 424.592285 518.898926 C 424.238281 519.111328 387.351074 540.13916 360.800781 519.182129 C 344.445801 506.296387 302.956543 517.270508 298.283691 518.544922 L 298.071289 518.686523 C 297.717285 518.757324 261.679688 531.501465 243.76709 519.040527 C 213.676758 498.295898 180.683594 516.916504 177.426758 518.828125 C 174.665527 520.031738 138.69873 535.183105 115.900879 519.111328 C 96.855469 505.65918 45.454102 518.049316 43.330078 518.544922 C 41.347656 519.040527 40.073242 521.235352 40.498047 523.430176 C 40.922852 525.625 42.905273 527.041016 44.887695 526.54541 C 58.90625 523.146973 98.271484 516.350098 111.936035 526.049805 C 138.769531 544.953613 178.701172 527.111816 180.400391 526.333008 L 180.754395 526.120605 C 181.108398 525.979004 212.543945 507.145996 239.873047 526.049805 C 260.334473 540.13916 297.363281 527.536621 300.195312 526.474609 C 312.089844 523.217773 345.012207 516.845703 356.552734 525.908203 C 366.889648 534.050293 378.359375 536.740723 389.050293 536.740723 C 408.237305 536.740723 424.875488 527.961426 427.636719 526.403809 C 437.124023 523.500977 462.966309 518.190918 475.002441 526.049805 C 491.286621 536.811523 531.99707 526.970215 533.696289 526.54541 C 535.678711 526.049805 536.953125 523.85498 536.45752 521.660156 Z M 536.45752 521.660156 " transform="matrix(0.0551724, 0, 0, 0.0551724, 0, 0)"/>
<path fill-rule="nonzero" fill="rgb(100%, 100%, 100%)" fill-opacity="1" d="M 12.121094 9.828125 C 13.433594 9.828125 14.496094 8.765625 14.496094 7.453125 C 14.496094 6.140625 13.433594 5.078125 12.121094 5.078125 C 10.808594 5.078125 9.742188 6.140625 9.742188 7.453125 C 9.742188 8.765625 10.808594 9.828125 12.121094 9.828125 Z M 12.121094 9.828125 "/>
</svg>
