<?xml version="1.0" encoding="UTF-8"?>
<svg xmlns="http://www.w3.org/2000/svg" xmlns:xlink="http://www.w3.org/1999/xlink" width="12" height="12" viewBox="0 0 12 12" version="1.1">
<g id="surface1">
<path style=" stroke:none;fill-rule:nonzero;fill:rgb(100%,100%,100%);fill-opacity:1;" d="M 2.375 9.429688 L 9.832031 9.429688 C 9.832031 9.429688 9 10.597656 8.269531 10.78125 C 7.894531 10.875 7.4375 10.480469 7.050781 10.472656 C 6.679688 10.464844 6.21875 10.859375 5.851562 10.847656 C 5.425781 10.839844 4.90625 10.410156 4.511719 10.414062 C 4.035156 10.421875 3.765625 10.734375 3.414062 10.761719 C 3.019531 10.789062 2.492188 10.730469 2.492188 10.730469 Z M 2.375 9.429688 "/>
<path style=" stroke:none;fill-rule:nonzero;fill:rgb(100%,100%,100%);fill-opacity:1;" d="M 4.949219 1.441406 L 4.949219 9.058594 L 0.429688 9.058594 Z M 4.949219 1.441406 "/>
<path style=" stroke:none;fill-rule:nonzero;fill:rgb(100%,100%,100%);fill-opacity:1;" d="M 5.324219 2.90625 C 6.980469 4.304688 9.453125 9.222656 8.714844 8.976562 C 7.191406 8.464844 5.285156 9.101562 5.285156 9.101562 C 5.285156 9.101562 5.328125 4.199219 5.324219 2.90625 Z M 5.324219 2.90625 "/>
<path style="fill-rule:nonzero;fill:rgb(100%,100%,100%);fill-opacity:1;stroke-width:11.5757;stroke-linecap:round;stroke-linejoin:round;stroke:rgb(100%,100%,100%);stroke-opacity:1;stroke-miterlimit:4;" d="M 528.834635 108.75 C 529.023438 70.800781 489.752604 38.893229 452.936198 47.011719 C 421.972656 52.298177 396.673177 82.317708 399.882812 114.414062 C 401.015625 135.748698 413.665365 155.950521 431.979167 166.71224 C 439.53125 176.341146 429.52474 191.067708 437.643229 200.507812 C 444.440104 207.115885 453.502604 212.591146 456.523438 221.842448 C 454.446615 229.394531 446.328125 232.604167 442.740885 238.834635 C 446.705729 244.876302 455.957031 248.463542 455.957031 256.959635 C 452.369792 262.8125 446.139323 266.588542 442.363281 272.252604 C 446.328125 278.671875 456.145833 282.447917 456.145833 291.132812 C 452.747396 297.174479 445.572917 300.572917 442.929688 306.992188 C 450.859375 315.677083 458.977865 324.739583 468.417969 332.102865 C 473.704427 332.102865 476.536458 324.928385 480.878906 321.907552 C 486.165365 316.054688 495.794271 310.957031 493.90625 301.516927 C 492.773438 288.867188 494.095052 275.839844 493.717448 263.001302 C 493.717448 231.848958 492.96224 200.31901 494.472656 169.355469 C 501.647135 160.859375 512.97526 156.328125 518.072917 145.94401 C 525.247396 135.182292 529.21224 121.966146 528.834635 108.75 Z M 486.542969 82.884115 C 486.920573 101.575521 460.677083 112.714844 448.027344 99.121094 C 436.132812 88.170573 439.908854 64.759115 455.957031 60.227865 C 470.30599 55.130208 488.053385 67.02474 486.542969 82.884115 Z M 486.542969 82.884115 " transform="matrix(0.0206897,0,0,0.0206897,0,0)"/>
</g>
</svg>
