<?xml version="1.0" encoding="UTF-8"?>
<svg xmlns="http://www.w3.org/2000/svg" xmlns:xlink="http://www.w3.org/1999/xlink" width="12" height="12" viewBox="0 0 12 12" version="1.1">
<defs>
<filter id="alpha" filterUnits="objectBoundingBox" x="0%" y="0%" width="100%" height="100%">
  <feColorMatrix type="matrix" in="SourceGraphic" values="0 0 0 0 1 0 0 0 0 1 0 0 0 0 1 0 0 0 1 0"/>
</filter>
<mask id="mask0">
  <g filter="url(#alpha)">
<rect x="0" y="0" width="12" height="12" style="fill:rgb(0%,0%,0%);fill-opacity:0.75;stroke:none;"/>
  </g>
</mask>
<clipPath id="clip1">
  <rect x="0" y="0" width="12" height="12"/>
</clipPath>
<g id="surface5" clip-path="url(#clip1)">
<path style=" stroke:none;fill-rule:nonzero;fill:rgb(26.666668%,26.666668%,26.666668%);fill-opacity:1;" d="M 5.222656 5.628906 C 5.222656 5.628906 5.257812 5.039062 5.984375 5.058594 C 6.710938 5.078125 6.777344 5.628906 6.777344 5.628906 L 6.777344 10.035156 L 5.222656 10.035156 Z M 5.222656 5.628906 "/>
</g>
</defs>
<g id="surface1">
<path style=" stroke:none;fill-rule:nonzero;fill:rgb(26.666668%,26.666668%,26.666668%);fill-opacity:1;" d="M 2.238281 2.34375 L 9.761719 2.34375 L 9.761719 10.039062 L 7.933594 10.039062 C 7.933594 10.039062 7.933594 10.035156 7.933594 5.507812 C 7.945312 4.316406 6.980469 3.871094 6.015625 3.863281 C 5.046875 3.855469 4.09375 4.339844 4.070312 5.507812 C 4.078125 9.96875 4.070312 10.039062 4.070312 10.039062 L 2.238281 10.039062 Z M 2.238281 2.34375 "/>
<use xlink:href="#surface5" mask="url(#mask0)"/>
</g>
</svg>
