<?xml version="1.0" encoding="UTF-8"?>
<svg xmlns="http://www.w3.org/2000/svg" xmlns:xlink="http://www.w3.org/1999/xlink" width="32" height="32" viewBox="0 0 32 32">
<path fill-rule="evenodd" fill="rgb(100%, 100%, 100%)" fill-opacity="1" d="M 15.890625 2.558594 C 9.90625 2.605469 4.476562 6.671875 2.960938 12.75 C 1.164062 19.949219 5.546875 27.242188 12.746094 29.039062 C 19.949219 30.835938 27.242188 26.453125 29.039062 19.253906 C 30.832031 12.050781 26.453125 4.757812 19.25 2.960938 C 18.125 2.679688 16.996094 2.550781 15.890625 2.558594 Z M 15.402344 6.546875 L 16.992188 6.941406 L 16.355469 9.507812 C 16.78125 9.605469 17.210938 9.703125 17.628906 9.804688 L 18.265625 7.257812 L 19.855469 7.65625 L 19.203125 10.269531 C 21.214844 10.964844 22.683594 12.003906 22.394531 13.933594 C 22.1875 15.347656 21.402344 16.03125 20.363281 16.269531 C 21.792969 17.015625 22.519531 18.15625 21.828125 20.132812 C 20.96875 22.589844 18.925781 22.792969 16.210938 22.28125 L 15.550781 24.921875 L 13.960938 24.527344 L 14.609375 21.921875 C 14.195312 21.816406 13.773438 21.707031 13.339844 21.589844 L 12.6875 24.207031 L 11.097656 23.8125 L 11.757812 21.167969 C 11.382812 21.070312 11.007812 20.96875 10.621094 20.875 L 8.550781 20.355469 L 9.339844 18.535156 C 9.339844 18.535156 10.511719 18.84375 10.496094 18.824219 C 10.945312 18.933594 11.148438 18.640625 11.226562 18.445312 L 12.265625 14.269531 L 12.269531 14.257812 L 13.011719 11.277344 C 13.03125 10.941406 12.914062 10.511719 12.269531 10.351562 C 12.296875 10.335938 11.113281 10.066406 11.113281 10.066406 L 11.539062 8.367188 L 13.734375 8.914062 L 13.730469 8.921875 C 14.0625 9.003906 14.402344 9.082031 14.75 9.160156 Z M 15.925781 11.386719 L 15.132812 14.566406 C 16.03125 14.789062 18.800781 15.703125 19.25 13.902344 C 19.71875 12.027344 16.824219 11.609375 15.925781 11.386719 Z M 14.730469 16.171875 L 13.855469 19.675781 C 14.9375 19.941406 18.265625 21.011719 18.757812 19.035156 C 19.273438 16.972656 15.8125 16.4375 14.730469 16.171875 Z M 14.730469 16.171875 "/>
</svg>
