<?xml version="1.0" encoding="UTF-8"?>
<svg xmlns="http://www.w3.org/2000/svg" xmlns:xlink="http://www.w3.org/1999/xlink" width="12" height="12" viewBox="0 0 12 12" version="1.1">
<g id="surface1">
<path style=" stroke:none;fill-rule:nonzero;fill:rgb(24.705882%,24.705882%,24.705882%);fill-opacity:1;" d="M 6 1 C 5.9375 1 5.875 1.035156 5.84375 1.09375 L 4.769531 2.996094 L 7.230469 2.996094 L 6.15625 1.09375 C 6.125 1.035156 6.0625 1 6 1 Z M 4.6875 3.394531 L 4.6875 5.203125 L 6.011719 4.546875 L 7.3125 5.203125 L 7.3125 3.394531 Z M 6 4.976562 C 5.972656 4.976562 5.945312 4.980469 5.917969 4.996094 L 3.105469 6.496094 C 3.042969 6.53125 3 6.601562 3 6.679688 L 3 10.800781 C 3 10.910156 3.085938 11 3.1875 11 L 4.875 11 C 4.976562 11 5.0625 10.910156 5.0625 10.800781 L 5.0625 8.796875 C 5.0625 8.246094 5.484375 7.796875 6 7.796875 C 6.515625 7.796875 6.9375 8.246094 6.9375 8.796875 L 6.9375 10.800781 C 6.9375 10.910156 7.019531 11 7.125 11 L 8.8125 11 C 8.917969 11 9 10.910156 9 10.800781 L 9 6.679688 C 9 6.601562 8.957031 6.53125 8.894531 6.496094 L 6.082031 4.996094 C 6.054688 4.980469 6.027344 4.976562 6 4.976562 Z M 6 4.976562 "/>
</g>
</svg>
