<?xml version="1.0" encoding="UTF-8"?>
<svg xmlns="http://www.w3.org/2000/svg" xmlns:xlink="http://www.w3.org/1999/xlink" width="32" height="32" viewBox="0 0 32 32">
<path fill-rule="nonzero" fill="rgb(100%, 100%, 100%)" fill-opacity="1" d="M 10.667969 10.667969 C 9.195312 10.667969 8 11.859375 8 13.332031 L 8 25.332031 C 8 26.070312 8.597656 26.667969 9.332031 26.667969 L 14.667969 26.667969 C 15.402344 26.667969 16 26.070312 16 25.332031 L 16 13.332031 C 16 11.859375 14.804688 10.667969 13.332031 10.667969 L 13.332031 2.667969 L 10.667969 2.667969 Z M 10.667969 10.667969 "/>
<path fill-rule="nonzero" fill="rgb(100%, 100%, 100%)" fill-opacity="1" d="M 20 13.332031 L 18.667969 14.667969 L 18.667969 25.332031 L 20 26.667969 L 25.332031 26.667969 L 26.667969 25.332031 L 26.667969 14.667969 L 25.332031 13.332031 L 25.332031 12 L 20 12 Z M 20 13.332031 "/>
</svg>
