<?xml version="1.0" encoding="UTF-8"?>
<svg xmlns="http://www.w3.org/2000/svg" xmlns:xlink="http://www.w3.org/1999/xlink" width="12" height="12" viewBox="0 0 12 12" version="1.1">
<g id="surface1">
<path style=" stroke:none;fill-rule:nonzero;fill:rgb(24.705882%,24.705882%,24.705882%);fill-opacity:1;" d="M 8.96875 3.242188 C 9.105469 2.707031 8.777344 2.164062 8.242188 2.03125 C 7.707031 1.894531 7.164062 2.222656 7.03125 2.757812 L 6.21875 6 L 3 6 C 2.449219 6 2 6.449219 2 7 C 2 7.550781 2.449219 8 3 8 L 5 8 L 5 10 L 3.5 10 C 3.222656 10 3 10.222656 3 10.5 C 3 10.777344 3.222656 11 3.5 11 L 7.5 11 C 7.777344 11 8 10.777344 8 10.5 C 8 10.222656 7.777344 10 7.5 10 L 6 10 L 6 8 L 7 8 C 7.457031 8 7.859375 7.6875 7.96875 7.242188 Z M 8.96875 3.242188 "/>
</g>
</svg>
