<?xml version="1.0" encoding="UTF-8"?>
<svg xmlns="http://www.w3.org/2000/svg" xmlns:xlink="http://www.w3.org/1999/xlink" width="12" height="12" viewBox="0 0 12 12" version="1.1">
<g id="surface1">
<path style="fill:none;stroke-width:30;stroke-linecap:round;stroke-linejoin:round;stroke:rgb(100%,100%,100%);stroke-opacity:1;stroke-miterlimit:4;" d="M 538.085938 225.807292 L 302.64974 56.074219 L 302.64974 189.746094 L 366.276042 189.746094 " transform="matrix(0.0206897,0,0,0.0206897,0,0)"/>
<path style="fill:none;stroke-width:30;stroke-linecap:round;stroke-linejoin:round;stroke:rgb(100%,100%,100%);stroke-opacity:1;stroke-miterlimit:4;" d="M 366.842448 102.330729 L 366.842448 236.380208 L 429.147135 236.380208 " transform="matrix(0.0206897,0,0,0.0206897,0,0)"/>
<path style="fill:none;stroke-width:30;stroke-linecap:round;stroke-linejoin:round;stroke:rgb(100%,100%,100%);stroke-opacity:1;stroke-miterlimit:4;" d="M 429.335938 147.265625 L 429.335938 283.769531 L 486.165365 283.769531 " transform="matrix(0.0206897,0,0,0.0206897,0,0)"/>
<path style="fill:none;stroke-width:30;stroke-linecap:round;stroke-linejoin:round;stroke:rgb(100%,100%,100%);stroke-opacity:1;stroke-miterlimit:4;" d="M 489.752604 193.144531 L 489.752604 323.984375 L 547.33724 323.984375 " transform="matrix(0.0206897,0,0,0.0206897,0,0)"/>
<path style="fill:none;stroke-width:21.256901;stroke-linecap:butt;stroke-linejoin:miter;stroke:rgb(100%,100%,100%);stroke-opacity:1;stroke-miterlimit:4;" d="M 170.299479 550.735677 C 137.447917 550.735677 110.638021 523.925781 110.638021 491.074219 C 110.638021 458.222656 137.447917 431.41276 170.299479 431.41276 C 203.151042 431.41276 229.960938 458.222656 229.960938 491.074219 C 229.960938 523.925781 203.151042 550.735677 170.299479 550.735677 Z M 170.299479 550.735677 " transform="matrix(0.0206897,0,0,0.0206897,0,0)"/>
<path style="fill:none;stroke-width:21.256901;stroke-linecap:butt;stroke-linejoin:miter;stroke:rgb(100%,100%,100%);stroke-opacity:1;stroke-miterlimit:4;" d="M 425.748698 549.602865 C 392.708333 549.602865 366.08724 522.792969 366.08724 489.941406 C 366.08724 457.089844 392.708333 430.279948 425.748698 430.279948 C 458.60026 430.279948 485.221354 457.089844 485.221354 489.941406 C 485.221354 522.792969 458.60026 549.602865 425.748698 549.602865 Z M 425.748698 549.602865 " transform="matrix(0.0206897,0,0,0.0206897,0,0)"/>
<path style="fill:none;stroke-width:17.066799;stroke-linecap:butt;stroke-linejoin:round;stroke:rgb(100%,100%,100%);stroke-opacity:1;stroke-miterlimit:4;" d="M 378.548177 388.554688 L 225.240885 389.309896 L 171.054688 489.941406 L 274.707031 489.941406 L 383.079427 416.497396 " transform="matrix(0.0206897,0,0,0.0206897,0,0)"/>
<path style=" stroke:none;fill-rule:evenodd;fill:rgb(100%,100%,100%);fill-opacity:1;" d="M 7.707031 6.792969 C 7.882812 6.792969 8.011719 6.789062 8.144531 6.992188 C 8.183594 7.058594 8.199219 7.140625 8.1875 7.226562 C 8.167969 7.320312 8.113281 7.410156 8.046875 7.464844 C 7.960938 7.539062 7.878906 7.53125 7.890625 7.597656 C 7.910156 7.679688 7.960938 7.796875 8.019531 7.984375 C 8.074219 8.175781 8.144531 8.410156 8.210938 8.640625 C 8.277344 8.871094 8.34375 9.097656 8.394531 9.273438 C 8.417969 9.363281 8.441406 9.4375 8.460938 9.496094 C 8.476562 9.550781 8.492188 9.59375 8.488281 9.589844 C 8.542969 9.6875 8.550781 9.746094 8.640625 9.828125 C 8.742188 9.917969 8.824219 9.984375 8.855469 10.003906 C 8.925781 10.054688 8.960938 10.167969 8.921875 10.222656 C 8.875 10.296875 8.773438 10.308594 8.699219 10.285156 C 8.632812 10.265625 8.523438 10.226562 8.394531 10.121094 L 8.390625 10.117188 C 8.214844 9.96875 8.148438 9.78125 8.140625 9.773438 L 8.125 9.742188 C 8.109375 9.703125 8.101562 9.671875 8.082031 9.609375 C 8.066406 9.550781 8.042969 9.472656 8.015625 9.386719 C 7.964844 9.207031 7.898438 8.980469 7.832031 8.75 C 7.765625 8.519531 7.699219 8.285156 7.640625 8.097656 C 7.585938 7.910156 7.550781 7.753906 7.535156 7.722656 C 7.503906 7.640625 7.488281 7.554688 7.507812 7.46875 C 7.53125 7.382812 7.597656 7.3125 7.65625 7.292969 C 7.789062 7.257812 7.753906 7.160156 7.6875 7.160156 L 7.109375 7.160156 L 7.109375 6.792969 C 7.109375 6.792969 7.480469 6.792969 7.707031 6.792969 Z M 7.707031 6.792969 "/>
<path style=" stroke:none;fill-rule:evenodd;fill:rgb(100%,100%,100%);fill-opacity:1;" d="M 5.644531 10.070312 L 4.558594 7.410156 Z M 5.644531 10.070312 "/>
<path style="fill:none;stroke-width:20.439301;stroke-linecap:butt;stroke-linejoin:miter;stroke:rgb(100%,100%,100%);stroke-opacity:1;stroke-miterlimit:4;" d="M 272.81901 486.731771 L 220.332031 358.157552 " transform="matrix(0.0206897,0,0,0.0206897,0,0)"/>
<path style=" stroke:none;fill-rule:evenodd;fill:rgb(100%,100%,100%);fill-opacity:1;" d="M 6.019531 9.390625 L 5.359375 10.921875 Z M 6.019531 9.390625 "/>
<path style="fill:none;stroke-width:7.46035;stroke-linecap:round;stroke-linejoin:miter;stroke:rgb(100%,100%,100%);stroke-opacity:1;stroke-miterlimit:4;" d="M 290.94401 453.880208 L 259.036458 527.890625 " transform="matrix(0.0206897,0,0,0.0206897,0,0)"/>
<path style="fill-rule:nonzero;fill:rgb(100%,100%,100%);fill-opacity:1;stroke-width:6.78202;stroke-linecap:butt;stroke-linejoin:miter;stroke:rgb(100%,100%,100%);stroke-opacity:1;stroke-miterlimit:4;" d="M 274.140625 505.045573 C 264.889323 505.045573 257.33724 498.248698 257.33724 490.130208 C 257.33724 482.011719 264.889323 475.214844 274.140625 475.214844 C 283.391927 475.214844 290.94401 482.011719 290.94401 490.130208 C 290.94401 498.248698 283.391927 505.045573 274.140625 505.045573 Z M 274.140625 505.045573 " transform="matrix(0.0206897,0,0,0.0206897,0,0)"/>
<path style=" stroke:none;fill-rule:evenodd;fill:rgb(100%,100%,100%);fill-opacity:1;" d="M 6.308594 9.394531 L 5.730469 9.398438 Z M 6.308594 9.394531 "/>
<path style="fill:none;stroke-width:10.4245;stroke-linecap:round;stroke-linejoin:miter;stroke:rgb(100%,100%,100%);stroke-opacity:1;stroke-miterlimit:4;" d="M 304.915365 454.06901 L 276.972656 454.257812 " transform="matrix(0.0206897,0,0,0.0206897,0,0)"/>
<path style=" stroke:none;fill-rule:evenodd;fill:rgb(100%,100%,100%);fill-opacity:1;" d="M 5.65625 10.898438 L 5.078125 10.902344 Z M 5.65625 10.898438 "/>
<path style="fill:none;stroke-width:10.4241;stroke-linecap:round;stroke-linejoin:miter;stroke:rgb(100%,100%,100%);stroke-opacity:1;stroke-miterlimit:4;" d="M 273.385417 526.757812 L 245.442708 526.946615 " transform="matrix(0.0206897,0,0,0.0206897,0,0)"/>
<path style=" stroke:none;fill-rule:evenodd;fill:rgb(100%,100%,100%);fill-opacity:1;" d="M 4.023438 7.171875 L 5.390625 7.171875 C 5.441406 7.171875 5.507812 7.261719 5.441406 7.324219 C 5.367188 7.390625 4.730469 7.53125 4.730469 7.53125 C 4.730469 7.53125 4.554688 7.578125 4.460938 7.566406 C 4.367188 7.554688 4.042969 7.527344 4.023438 7.171875 Z M 4.023438 7.171875 "/>
<path style=" stroke:none;fill-rule:nonzero;fill:rgb(100%,100%,100%);fill-opacity:1;" d="M 0.925781 0.894531 C 0.890625 0.894531 0.859375 0.910156 0.835938 0.933594 C 0.808594 0.957031 0.796875 0.992188 0.796875 1.027344 L 0.796875 6.648438 C 0.796875 6.679688 0.808594 6.714844 0.835938 6.738281 C 0.859375 6.765625 0.890625 6.777344 0.925781 6.777344 L 1.671875 6.777344 C 1.707031 6.777344 1.738281 6.765625 1.761719 6.738281 C 1.789062 6.714844 1.800781 6.679688 1.800781 6.648438 L 1.800781 4.492188 L 3.113281 4.492188 C 3.925781 4.492188 4.515625 4.328125 4.855469 3.953125 C 5.183594 3.601562 5.347656 3.15625 5.347656 2.652344 C 5.347656 2.355469 5.289062 2.078125 5.164062 1.828125 C 5.042969 1.578125 4.878906 1.378906 4.671875 1.234375 C 4.464844 1.09375 4.214844 1 3.925781 0.949219 C 3.714844 0.914062 3.421875 0.894531 3.046875 0.894531 Z M 1.800781 1.820312 L 3.109375 1.820312 C 3.441406 1.820312 3.671875 1.839844 3.769531 1.867188 C 3.933594 1.914062 4.0625 2 4.164062 2.148438 C 4.269531 2.289062 4.320312 2.460938 4.320312 2.675781 C 4.320312 2.972656 4.234375 3.179688 4.0625 3.332031 C 3.898438 3.476562 3.589844 3.566406 3.125 3.566406 L 1.800781 3.566406 Z M 1.800781 1.820312 "/>
</g>
</svg>
