<?xml version="1.0" encoding="UTF-8"?>
<svg xmlns="http://www.w3.org/2000/svg" xmlns:xlink="http://www.w3.org/1999/xlink" width="12" height="12" viewBox="0 0 12 12">
<defs>
<filter id="filter-remove-color" x="0%" y="0%" width="100%" height="100%">
<feColorMatrix color-interpolation-filters="sRGB" values="0 0 0 0 1 0 0 0 0 1 0 0 0 0 1 0 0 0 1 0" />
</filter>
<mask id="mask-0">
<g filter="url(#filter-remove-color)">
<rect x="-1.2" y="-1.2" width="14.4" height="14.4" fill="rgb(0%, 0%, 0%)" fill-opacity="0.5"/>
</g>
</mask>
<clipPath id="clip-0">
<rect x="0" y="0" width="12" height="12"/>
</clipPath>
<g id="source-7" clip-path="url(#clip-0)">
<path fill-rule="nonzero" fill="rgb(24.705882%, 24.705882%, 24.705882%)" fill-opacity="1" d="M 7 10 L 8 10 L 8 11 L 7 11 Z M 7 10 "/>
</g>
</defs>
<path fill-rule="evenodd" fill="rgb(24.705882%, 24.705882%, 24.705882%)" fill-opacity="1" d="M 9 1 L 3 1 L 3 11 L 7 11 L 7 10 L 8 10 L 8 11 L 9 11 Z M 4 2 L 5 2 L 5 3 L 4 3 Z M 8 2 L 6 2 L 6 3 L 8 3 Z M 8 6 L 6 6 L 6 7 L 8 7 Z M 5 6 L 4 6 L 4 7 L 5 7 Z M 4 4 L 5 4 L 5 5 L 4 5 Z M 5 8 L 4 8 L 4 9 L 5 9 Z M 8 4 L 6 4 L 6 5 L 8 5 Z M 6 8 L 8 8 L 8 9 L 6 9 Z M 6 8 "/>
<g mask="url(#mask-0)">
<use xlink:href="#source-7"/>
</g>
</svg>
