<?xml version="1.0" encoding="UTF-8"?>
<svg xmlns="http://www.w3.org/2000/svg" xmlns:xlink="http://www.w3.org/1999/xlink" width="32" height="32" viewBox="0 0 32 32">
<path fill-rule="nonzero" fill="rgb(100%, 100%, 100%)" fill-opacity="1" d="M 21.070312 1.550781 L 19.644531 5.84375 L 17.757812 4.289062 L 17.757812 4.351562 L 16.78125 6.824219 L 14.628906 5.511719 L 14.636719 5.542969 L 13.914062 8.792969 L 11.605469 7.46875 L 11.613281 7.640625 L 11.417969 10.636719 L 8.679688 9.550781 L 8.710938 9.621094 L 8.660156 9.566406 L 8.785156 12.761719 L 6.441406 12.070312 L 6.445312 12.097656 L 6.398438 12.054688 L 6.855469 15.277344 L 1.929688 14.867188 L 19.242188 25.527344 L 19.289062 25.496094 L 19.761719 26.160156 C 19.773438 26.152344 19.777344 26.140625 19.789062 26.132812 L 25.820312 21.84375 L 25.351562 21.183594 L 25.398438 21.152344 Z M 20.175781 7.175781 L 20.890625 5.03125 L 24.210938 20.078125 C 24.132812 20.03125 24.042969 19.984375 23.949219 19.941406 L 18.394531 5.882812 Z M 17.316406 7.996094 L 17.773438 6.828125 L 22.835938 19.636719 C 22.726562 19.628906 22.613281 19.625 22.492188 19.628906 L 15.457031 6.996094 Z M 14.59375 10.003906 L 15.015625 8.101562 L 21.535156 19.808594 C 21.257812 19.902344 20.96875 20.035156 20.671875 20.222656 L 12.742188 9.070312 Z M 12.273438 11.769531 L 12.378906 10.15625 L 19.929688 20.773438 C 19.664062 21.003906 19.449219 21.242188 19.277344 21.476562 L 9.796875 10.84375 Z M 9.746094 13.695312 L 9.683594 12.105469 L 18.800781 22.335938 C 18.761719 22.441406 18.726562 22.546875 18.699219 22.652344 L 7.699219 13.175781 Z M 5.71875 16.113281 L 7.933594 16.296875 L 7.660156 14.363281 L 18.601562 23.789062 C 18.609375 23.886719 18.621094 23.980469 18.636719 24.070312 Z M 5.71875 16.113281 "/>
<path fill-rule="nonzero" fill="rgb(100%, 100%, 100%)" fill-opacity="1" d="M 25.914062 28.453125 C 28.832031 26.277344 26.550781 22.929688 26.550781 22.929688 L 20.488281 27.238281 C 20.488281 27.238281 23 30.628906 25.914062 28.453125 Z M 25.914062 28.453125 "/>
</svg>
