<?xml version="1.0" encoding="UTF-8"?>
<svg xmlns="http://www.w3.org/2000/svg" xmlns:xlink="http://www.w3.org/1999/xlink" width="12" height="12" viewBox="0 0 12 12" version="1.1">
<g id="surface1">
<path style=" stroke:none;fill-rule:evenodd;fill:rgb(24.705882%,24.705882%,24.705882%);fill-opacity:1;" d="M 10.144531 1.144531 C 10.339844 0.953125 10.660156 0.953125 10.855469 1.144531 C 11.046875 1.339844 11.046875 1.660156 10.855469 1.855469 L 6 6.707031 L 6 7 L 8.527344 7.84375 C 8.808594 7.9375 9 8.203125 9 8.5 L 8 11 L 5 11 L 3.535156 9.171875 L 1.855469 10.855469 C 1.660156 11.046875 1.339844 11.046875 1.144531 10.855469 C 0.953125 10.660156 0.953125 10.339844 1.144531 10.144531 Z M 4.222656 8.484375 L 5 9 L 5 7.707031 Z M 4.222656 8.484375 "/>
<path style=" stroke:none;fill-rule:nonzero;fill:rgb(24.705882%,24.705882%,24.705882%);fill-opacity:1;" d="M 5.5 1 C 6.527344 1 7.40625 1.617188 7.792969 2.5 L 6.695312 3.597656 C 6.421875 3.234375 5.988281 3 5.5 3 C 4.671875 3 4 3.671875 4 4.5 L 4 5.5 C 3.394531 5.042969 3 4.316406 3 3.5 C 3 2.121094 4.121094 1 5.5 1 Z M 5.5 1 "/>
<path style=" stroke:none;fill-rule:nonzero;fill:rgb(24.705882%,24.705882%,24.705882%);fill-opacity:1;" d="M 5.5 4 C 5.714844 4 5.898438 4.136719 5.96875 4.324219 L 5 5.292969 L 5 4.5 C 5 4.222656 5.222656 4 5.5 4 Z M 5.5 4 "/>
</g>
</svg>
