<?xml version="1.0" encoding="UTF-8"?>
<svg xmlns="http://www.w3.org/2000/svg" xmlns:xlink="http://www.w3.org/1999/xlink" width="12" height="12" viewBox="0 0 12 12" version="1.1">
<defs>
<filter id="alpha" filterUnits="objectBoundingBox" x="0%" y="0%" width="100%" height="100%">
  <feColorMatrix type="matrix" in="SourceGraphic" values="0 0 0 0 1 0 0 0 0 1 0 0 0 0 1 0 0 0 1 0"/>
</filter>
<mask id="mask0">
  <g filter="url(#alpha)">
<rect x="0" y="0" width="12" height="12" style="fill:rgb(0%,0%,0%);fill-opacity:0.75;stroke:none;"/>
  </g>
</mask>
<clipPath id="clip1">
  <rect x="0" y="0" width="12" height="12"/>
</clipPath>
<g id="surface5" clip-path="url(#clip1)">
<path style=" stroke:none;fill-rule:nonzero;fill:rgb(100%,100%,100%);fill-opacity:1;" d="M 7.40625 5.574219 L 6.253906 4.664062 L 5.609375 5.574219 Z M 7.40625 5.574219 "/>
</g>
</defs>
<g id="surface1">
<use xlink:href="#surface5" mask="url(#mask0)"/>
<path style=" stroke:none;fill-rule:nonzero;fill:rgb(100%,100%,100%);fill-opacity:1;" d="M 7.785156 7.136719 C 8.328125 6.726562 8.675781 6.078125 8.675781 5.347656 L 4.347656 5.347656 L 4.347656 0.941406 L 4.34375 0.941406 C 3.105469 0.945312 2.101562 1.949219 2.105469 3.1875 C 2.105469 4.371094 3.027344 5.34375 4.191406 5.421875 C 4.214844 6.148438 4.585938 6.785156 5.140625 7.179688 L 3.40625 11.195312 C 3.40625 11.195312 3.351562 11.410156 3.554688 11.503906 C 3.753906 11.601562 3.894531 11.40625 3.894531 11.40625 L 5.605469 7.433594 C 5.863281 7.535156 6.140625 7.589844 6.433594 7.589844 C 6.75 7.589844 7.050781 7.523438 7.324219 7.40625 L 9.050781 11.40625 C 9.050781 11.40625 9.183594 11.609375 9.398438 11.511719 C 9.613281 11.414062 9.535156 11.195312 9.535156 11.195312 Z M 7.785156 7.136719 "/>
<path style="fill:none;stroke-width:23;stroke-linecap:round;stroke-linejoin:miter;stroke:rgb(100%,100%,100%);stroke-opacity:1;stroke-miterlimit:4;" d="M 257.903646 46.634115 C 257.903646 46.634115 275.839844 66.269531 275.839844 93.079427 C 275.839844 119.700521 256.393229 118.567708 256.393229 154.0625 C 256.393229 178.417969 275.839844 193.522135 275.839844 193.522135 " transform="matrix(0.0206897,0,0,0.0206897,0,0)"/>
<path style="fill:none;stroke-width:23;stroke-linecap:round;stroke-linejoin:miter;stroke:rgb(100%,100%,100%);stroke-opacity:1;stroke-miterlimit:4;" d="M 318.886719 46.634115 C 318.886719 46.634115 336.822917 66.269531 336.822917 93.079427 C 336.822917 119.700521 317.376302 118.567708 317.376302 154.0625 C 317.376302 178.417969 336.634115 193.522135 336.634115 193.522135 " transform="matrix(0.0206897,0,0,0.0206897,0,0)"/>
<path style="fill:none;stroke-width:23;stroke-linecap:round;stroke-linejoin:miter;stroke:rgb(100%,100%,100%);stroke-opacity:1;stroke-miterlimit:4;" d="M 379.68099 46.634115 C 379.68099 46.634115 397.617188 66.269531 397.617188 93.079427 C 397.617188 119.700521 378.170573 118.567708 378.170573 154.0625 C 378.170573 178.417969 397.617188 193.522135 397.617188 193.522135 " transform="matrix(0.0206897,0,0,0.0206897,0,0)"/>
</g>
</svg>
