<?xml version="1.0" encoding="UTF-8"?>
<svg xmlns="http://www.w3.org/2000/svg" xmlns:xlink="http://www.w3.org/1999/xlink" width="32" height="32" viewBox="0 0 32 32">
<path fill-rule="nonzero" fill="rgb(100%, 100%, 100%)" fill-opacity="1" d="M 19.574219 1.941406 L 20.535156 12.136719 L 22.09375 14.179688 L 23.527344 29.378906 L 30.984375 29.378906 L 26.746094 14.175781 L 26.738281 14.175781 L 24.910156 12.136719 L 22.179688 1.941406 Z M 19.574219 1.941406 "/>
<path fill-rule="nonzero" fill="rgb(100%, 100%, 100%)" fill-opacity="1" d="M 10.085938 1.941406 L 7.355469 12.136719 L 5.316406 14.175781 L 5.308594 14.175781 L 1.015625 29.378906 L 8.738281 29.378906 L 10.171875 14.195312 L 11.730469 12.136719 L 12.695312 1.941406 Z M 10.085938 1.941406 "/>
<path fill-rule="nonzero" fill="rgb(100%, 100%, 100%)" fill-opacity="1" d="M 12.792969 13.113281 C 12.722656 13.167969 12.648438 13.21875 12.570312 13.269531 L 11.484375 14.707031 L 11.386719 15.730469 C 11.886719 15.582031 12.378906 15.355469 12.792969 15.035156 C 13.757812 15.78125 15.144531 15.996094 16 15.996094 C 16.855469 15.996094 18.242188 15.78125 19.207031 15.035156 C 19.695312 15.417969 20.300781 15.660156 20.886719 15.804688 L 20.78125 14.695312 L 19.898438 13.535156 C 19.652344 13.417969 19.417969 13.277344 19.207031 13.113281 C 18.242188 13.859375 16.855469 14.074219 16 14.074219 C 15.144531 14.074219 13.757812 13.859375 12.792969 13.113281 Z M 16.085938 18.398438 C 15.097656 19.167969 13.667969 19.386719 12.785156 19.386719 C 12.320312 19.386719 11.695312 19.324219 11.066406 19.148438 L 10.882812 21.074219 C 11.574219 21.289062 12.273438 21.367188 12.785156 21.367188 C 13.667969 21.367188 15.097656 21.144531 16.085938 20.375 C 17.078125 21.144531 18.507812 21.367188 19.386719 21.367188 C 19.921875 21.367188 20.660156 21.285156 21.382812 21.046875 L 21.199219 19.125 C 20.539062 19.316406 19.875 19.386719 19.386719 19.386719 C 18.507812 19.386719 17.078125 19.167969 16.085938 18.398438 Z M 12.511719 25.34375 C 11.894531 25.820312 11.121094 26.097656 10.394531 26.246094 L 10.195312 28.375 C 10.972656 28.242188 11.839844 27.957031 12.511719 27.433594 C 13.558594 28.25 15.070312 28.480469 16 28.480469 C 16.929688 28.480469 18.441406 28.25 19.488281 27.433594 C 20.242188 28.019531 21.234375 28.304688 22.078125 28.417969 L 21.878906 26.296875 C 21.078125 26.164062 20.183594 25.882812 19.488281 25.34375 C 18.441406 26.15625 16.929688 26.390625 16 26.390625 C 15.070312 26.390625 13.558594 26.15625 12.511719 25.34375 Z M 12.511719 25.34375 "/>
<path fill-rule="nonzero" fill="rgb(100%, 100%, 100%)" fill-opacity="1" d="M 15.15625 2.828125 C 14.796875 3.003906 14.367188 3.121094 13.9375 3.199219 L 13.839844 4.214844 C 14.300781 4.140625 14.769531 4.015625 15.15625 3.828125 C 15.953125 4.21875 17.109375 4.328125 17.820312 4.328125 C 18 4.328125 18.210938 4.320312 18.4375 4.304688 L 18.339844 3.3125 C 18.152344 3.324219 17.976562 3.328125 17.820312 3.328125 C 17.109375 3.328125 15.953125 3.21875 15.15625 2.828125 Z M 17.5625 5.597656 C 16.882812 6.03125 15.386719 6.152344 14.78125 6.152344 C 14.527344 6.152344 14.109375 6.132812 13.664062 6.074219 L 13.5625 7.167969 C 14.046875 7.238281 14.507812 7.265625 14.78125 7.265625 C 15.386719 7.265625 16.882812 7.140625 17.5625 6.710938 C 17.84375 6.886719 18.261719 7.011719 18.699219 7.097656 L 18.59375 5.964844 C 18.195312 5.882812 17.820312 5.761719 17.5625 5.597656 Z M 15.28125 8.855469 C 14.71875 9.226562 13.992188 9.425781 13.339844 9.519531 L 13.199219 11.011719 C 13.886719 10.925781 14.675781 10.726562 15.28125 10.328125 C 16.15625 10.902344 17.421875 11.066406 18.199219 11.066406 C 18.449219 11.066406 18.75 11.046875 19.070312 11.007812 L 18.929688 9.550781 C 18.664062 9.582031 18.414062 9.59375 18.199219 9.59375 C 17.421875 9.59375 16.15625 9.429688 15.28125 8.855469 Z M 15.28125 8.855469 "/>
</svg>
