<?xml version="1.0" encoding="UTF-8"?>
<svg xmlns="http://www.w3.org/2000/svg" xmlns:xlink="http://www.w3.org/1999/xlink" width="32" height="32" viewBox="0 0 32 32">
<path fill-rule="nonzero" fill="rgb(100%, 100%, 100%)" fill-opacity="1" stroke-width="13" stroke-linecap="butt" stroke-linejoin="miter" stroke="rgb(100%, 100%, 100%)" stroke-opacity="1" stroke-miterlimit="4" d="M 279.379883 219.624023 L 279.379883 533.129883 L 289.787598 533.129883 L 289.787598 180.825195 L 279.379883 186.347656 Z M 279.379883 219.624023 " transform="matrix(0.0551724, 0, 0, 0.0551724, 0, 0)"/>
<path fill-rule="nonzero" fill="rgb(100%, 100%, 100%)" fill-opacity="1" stroke-width="13" stroke-linecap="butt" stroke-linejoin="miter" stroke="rgb(100%, 100%, 100%)" stroke-opacity="1" stroke-miterlimit="4" d="M 301.257324 186.347656 L 290.849609 180.825195 L 290.849609 533.129883 L 301.257324 533.129883 Z M 301.257324 186.347656 " transform="matrix(0.0551724, 0, 0, 0.0551724, 0, 0)"/>
<path fill-rule="nonzero" fill="rgb(100%, 100%, 100%)" fill-opacity="1" stroke-width="13" stroke-linecap="butt" stroke-linejoin="miter" stroke="rgb(100%, 100%, 100%)" stroke-opacity="1" stroke-miterlimit="4" d="M 33.063965 301.044922 L 33.063965 499.287109 L 43.825684 499.287109 L 43.825684 345.507812 L 165.744629 294.956055 L 165.744629 514.226074 L 178.984375 514.226074 L 178.984375 289.504395 L 278.317871 248.29834 L 278.317871 234.492188 L 178.984375 275.698242 L 178.984375 247.873535 L 278.317871 200.649414 L 278.317871 186.560059 L 37.453613 301.044922 Z M 165.744629 254.104004 L 165.744629 281.149902 L 43.825684 331.70166 L 43.825684 312.019043 Z M 165.744629 254.104004 " transform="matrix(0.0551724, 0, 0, 0.0551724, 0, 0)"/>
<path fill-rule="nonzero" fill="rgb(100%, 100%, 100%)" fill-opacity="1" stroke-width="13" stroke-linecap="butt" stroke-linejoin="miter" stroke="rgb(100%, 100%, 100%)" stroke-opacity="1" stroke-miterlimit="4" d="M 542.546387 301.044922 L 301.682129 186.560059 L 301.682129 200.649414 L 401.015625 247.873535 L 401.015625 275.698242 L 301.682129 234.492188 L 301.682129 248.29834 L 401.015625 289.504395 L 401.015625 514.226074 L 414.255371 514.226074 L 414.255371 294.956055 L 536.174316 345.507812 L 536.174316 499.287109 L 546.936035 499.287109 L 546.936035 301.044922 Z M 536.174316 312.019043 L 536.174316 331.70166 L 414.255371 281.149902 L 414.255371 254.104004 Z M 536.174316 312.019043 " transform="matrix(0.0551724, 0, 0, 0.0551724, 0, 0)"/>
<path fill-rule="nonzero" fill="rgb(100%, 100%, 100%)" fill-opacity="1" d="M 13.660156 5.125 L 26.832031 8.734375 C 27.160156 8.816406 27.359375 9.15625 27.273438 9.484375 L 26.976562 10.628906 C 26.933594 10.792969 26.828125 10.925781 26.691406 11.007812 C 26.554688 11.085938 26.390625 11.113281 26.222656 11.070312 L 13.054688 7.464844 Z M 13.660156 5.125 "/>
<path fill-rule="nonzero" fill="rgb(100%, 100%, 100%)" fill-opacity="1" d="M 9.132812 8.695312 L 9.410156 7.636719 C 9.449219 7.484375 9.582031 7.371094 9.746094 7.363281 C 9.820312 7.359375 10.035156 7.257812 10.066406 7.140625 L 10.179688 6.703125 C 10.0625 6.652344 9.96875 6.566406 9.902344 6.457031 C 9.816406 6.3125 9.792969 6.144531 9.835938 5.984375 L 10.132812 4.839844 C 10.136719 4.832031 10.140625 4.820312 10.144531 4.808594 L 10.207031 4.570312 C 10.335938 4.070312 10.457031 3.605469 10.488281 3.488281 C 10.75 2.476562 13.054688 1.085938 13.316406 0.929688 C 13.410156 0.875 13.523438 0.894531 13.59375 0.972656 C 13.667969 1.046875 13.671875 1.164062 13.613281 1.25 C 13.605469 1.257812 13.066406 2.023438 12.738281 3.425781 C 12.589844 4.050781 12.5 4.820312 12.929688 4.925781 C 12.9375 4.929688 12.992188 4.945312 13.179688 4.996094 C 13.195312 5 13.207031 5.007812 13.222656 5.011719 L 13.230469 5.011719 L 12.621094 7.351562 L 12.40625 7.296875 C 12.402344 7.296875 12.402344 7.292969 12.394531 7.292969 L 12.054688 7.203125 C 12.050781 7.21875 12.027344 7.300781 11.941406 7.628906 C 11.910156 7.753906 12.042969 7.933594 12.09375 7.96875 C 12.25 8.070312 12.328125 8.234375 12.289062 8.382812 C 12.273438 8.441406 12.011719 9.441406 12.011719 9.441406 C 11.96875 9.605469 11.863281 9.738281 11.726562 9.816406 C 11.589844 9.898438 11.425781 9.925781 11.261719 9.882812 L 9.578125 9.445312 C 9.246094 9.359375 9.046875 9.023438 9.132812 8.695312 Z M 9.132812 8.695312 "/>
</svg>
