<?xml version="1.0" encoding="UTF-8"?>
<svg xmlns="http://www.w3.org/2000/svg" xmlns:xlink="http://www.w3.org/1999/xlink" width="12" height="12" viewBox="0 0 12 12" version="1.1">
<g id="surface1">
<path style=" stroke:none;fill-rule:nonzero;fill:rgb(100%,100%,100%);fill-opacity:1;" d="M 2.964844 6.382812 C 2.652344 6.382812 2.382812 6.574219 2.265625 6.84375 L 2.207031 7.574219 L 2.207031 8.378906 C 2.207031 8.476562 2.226562 8.566406 2.257812 8.652344 L 0.621094 8.652344 L 0.621094 11.351562 L 1.132812 11.351562 L 1.132812 9.429688 L 6.390625 9.429688 L 6.390625 11.351562 L 6.902344 11.351562 L 6.902344 8.652344 L 5.265625 8.652344 C 5.300781 8.566406 5.320312 8.476562 5.320312 8.378906 L 5.320312 7.574219 L 5.257812 6.84375 C 5.144531 6.574219 4.875 6.382812 4.558594 6.382812 Z M 2.804688 7.398438 L 2.984375 7.398438 L 2.984375 8.652344 L 2.804688 8.652344 Z M 4.539062 7.398438 L 4.71875 7.398438 L 4.71875 8.652344 L 4.539062 8.652344 Z M 4.539062 7.398438 "/>
<path style=" stroke:none;fill-rule:nonzero;fill:rgb(100%,100%,100%);fill-opacity:1;" d="M 3.761719 4.203125 C 3.25 4.203125 2.835938 4.621094 2.835938 5.132812 C 2.835938 5.644531 3.25 6.058594 3.761719 6.058594 C 4.273438 6.058594 4.691406 5.644531 4.691406 5.132812 C 4.691406 4.621094 4.273438 4.203125 3.761719 4.203125 Z M 3.761719 4.203125 "/>
<path style=" stroke:none;fill-rule:nonzero;fill:rgb(100%,100%,100%);fill-opacity:1;" d="M 9.132812 3.371094 C 9.914062 3.371094 10.546875 2.738281 10.546875 1.957031 C 10.546875 1.175781 9.914062 0.542969 9.132812 0.542969 C 8.351562 0.542969 7.71875 1.175781 7.71875 1.957031 C 7.71875 2.738281 8.351562 3.371094 9.132812 3.371094 Z M 9.132812 3.371094 "/>
<path style=" stroke:none;fill-rule:nonzero;fill:rgb(100%,100%,100%);fill-opacity:1;" d="M 7.671875 8.035156 L 7.671875 5.414062 L 7.945312 5.414062 L 7.945312 8.460938 L 10.320312 8.460938 L 10.320312 5.414062 L 10.59375 5.414062 L 10.59375 8.035156 C 11.113281 7.921875 11.503906 7.460938 11.503906 6.90625 L 11.503906 5.679688 L 11.414062 4.566406 C 11.238281 4.152344 10.828125 3.863281 10.351562 3.863281 L 7.917969 3.863281 C 7.4375 3.863281 7.027344 4.152344 6.851562 4.566406 L 6.761719 5.679688 L 6.761719 6.90625 C 6.761719 7.460938 7.152344 7.921875 7.671875 8.035156 Z M 8.941406 4.410156 L 8.75 4.082031 L 9.515625 4.082031 L 9.324219 4.410156 L 9.226562 4.578125 L 9.324219 4.742188 L 9.515625 5.070312 L 9.132812 6.996094 L 8.75 5.070312 L 8.941406 4.742188 L 9.039062 4.578125 Z M 8.941406 4.410156 "/>
</g>
</svg>
