<?xml version="1.0" encoding="UTF-8"?>
<svg xmlns="http://www.w3.org/2000/svg" xmlns:xlink="http://www.w3.org/1999/xlink" width="12" height="12" viewBox="0 0 12 12" version="1.1">
<g id="surface1">
<path style=" stroke:none;fill-rule:evenodd;fill:rgb(100%,100%,100%);fill-opacity:1;" d="M 10.5 1.5 C 10.5 1.777344 10.277344 2 10 2 C 9.722656 2 9.5 1.777344 9.5 1.5 C 9.5 1.222656 9.722656 1 10 1 C 10.277344 1 10.5 1.222656 10.5 1.5 Z M 10.5 4.5 L 10.5 3.25 C 10.5 3.386719 10.613281 3.5 10.75 3.5 C 10.886719 3.5 11 3.386719 11 3.25 L 11 2.25 C 11 2.113281 10.886719 2 10.75 2 L 9.25 2 C 9.113281 2 9 2.113281 9 2.25 L 9 3.25 C 9 3.386719 9.113281 3.5 9.25 3.5 C 9.386719 3.5 9.5 3.386719 9.5 3.25 L 9.5 4.5 Z M 10.5 4.5 "/>
<path style=" stroke:none;fill-rule:evenodd;fill:rgb(100%,100%,100%);fill-opacity:1;" d="M 10.5 5.5 C 10.5 5.777344 10.277344 6 10 6 C 9.722656 6 9.5 5.777344 9.5 5.5 C 9.5 5.222656 9.722656 5 10 5 C 10.277344 5 10.5 5.222656 10.5 5.5 Z M 10.5 8.5 L 10.5 7.25 C 10.5 7.386719 10.613281 7.5 10.75 7.5 C 10.886719 7.5 11 7.386719 11 7.25 L 11 6.25 C 11 6.113281 10.886719 6 10.75 6 L 9.25 6 C 9.113281 6 9 6.113281 9 6.25 L 9 7.25 C 9 7.386719 9.113281 7.5 9.25 7.5 C 9.386719 7.5 9.5 7.386719 9.5 7.25 L 9.5 8.5 Z M 10.5 8.5 "/>
<path style=" stroke:none;fill-rule:evenodd;fill:rgb(100%,100%,100%);fill-opacity:1;" d="M 2 2 C 1.449219 2 1 2.449219 1 3 C 1 3.550781 1.449219 4 2 4 C 2.183594 4 2.351562 3.949219 2.5 3.859375 L 2.5 9.5 C 2.5 10.085938 3.023438 10.507812 3.507812 10.507812 C 4.058594 10.507812 4.507812 10.058594 4.507812 9.507812 L 4.507812 9.5 L 8 9.5 L 8 2.898438 L 7.988281 2.886719 C 7.933594 2.425781 7.574219 2.066406 7.113281 2.011719 L 7.101562 2 Z M 2 2.5 L 2.011719 2.5 C 2.289062 2.507812 2.5 2.726562 2.5 3 C 2.5 3.28125 2.28125 3.5 2 3.5 C 1.71875 3.5 1.5 3.28125 1.5 3 C 1.5 2.722656 1.71875 2.5 2 2.5 Z M 3.25 3 L 4.75 3 C 4.886719 3 5 3.113281 5 3.25 C 5 3.386719 4.886719 3.5 4.75 3.5 L 3.25 3.5 C 3.113281 3.5 3 3.386719 3 3.25 C 3 3.113281 3.113281 3 3.25 3 Z M 3.25 4 L 7.25 4 C 7.386719 4 7.5 4.113281 7.5 4.25 C 7.5 4.386719 7.386719 4.5 7.25 4.5 L 3.25 4.5 C 3.113281 4.5 3 4.386719 3 4.25 C 3 4.113281 3.113281 4 3.25 4 Z M 3.25 5 L 7.25 5 C 7.386719 5 7.5 5.113281 7.5 5.25 C 7.5 5.386719 7.386719 5.5 7.25 5.5 L 3.25 5.5 C 3.113281 5.5 3 5.386719 3 5.25 C 3 5.113281 3.113281 5 3.25 5 Z M 3.25 6 L 7.25 6 C 7.386719 6 7.5 6.113281 7.5 6.25 C 7.5 6.386719 7.386719 6.5 7.25 6.5 L 3.25 6.5 C 3.113281 6.5 3 6.386719 3 6.25 C 3 6.113281 3.113281 6 3.25 6 Z M 3.25 7 L 7.25 7 C 7.386719 7 7.5 7.113281 7.5 7.25 C 7.5 7.386719 7.386719 7.5 7.25 7.5 L 3.25 7.5 C 3.113281 7.5 3 7.386719 3 7.25 C 3 7.113281 3.113281 7 3.25 7 Z M 3.25 8 L 7.25 8 C 7.386719 8 7.5 8.113281 7.5 8.25 C 7.5 8.386719 7.386719 8.5 7.25 8.5 L 3.25 8.5 C 3.113281 8.5 3 8.386719 3 8.25 C 3 8.113281 3.113281 8 3.25 8 Z M 4.90625 10 C 4.695312 10.597656 4.132812 10.996094 3.5 11 L 8.5 11 C 9.050781 11 9.5 10.550781 9.5 10 Z M 4.90625 10 "/>
</g>
</svg>
