<?xml version="1.0" encoding="UTF-8"?>
<svg xmlns="http://www.w3.org/2000/svg" xmlns:xlink="http://www.w3.org/1999/xlink" width="32" height="32" viewBox="0 0 32 32">
<defs>
<filter id="filter-remove-color" x="0%" y="0%" width="100%" height="100%">
<feColorMatrix color-interpolation-filters="sRGB" values="0 0 0 0 1 0 0 0 0 1 0 0 0 0 1 0 0 0 1 0" />
</filter>
<mask id="mask-0">
<g filter="url(#filter-remove-color)">
<rect x="-3.2" y="-3.2" width="38.4" height="38.4" fill="rgb(0%, 0%, 0%)" fill-opacity="0.5"/>
</g>
</mask>
<clipPath id="clip-0">
<rect x="0" y="0" width="32" height="32"/>
</clipPath>
<g id="source-10" clip-path="url(#clip-0)">
<path fill-rule="evenodd" fill="rgb(98.039216%, 98.039216%, 98.039216%)" fill-opacity="1" d="M 13.394531 15.960938 L 13.714844 14.667969 L 14.039062 13.375 L 14.066406 13.375 L 14.121094 13.394531 C 14.40625 13.46875 14.691406 13.554688 14.972656 13.652344 C 15.507812 13.832031 16.238281 14.105469 16.972656 14.472656 C 17.707031 14.839844 18.511719 15.332031 19.160156 15.972656 C 19.914062 16.671875 20.351562 17.640625 20.378906 18.667969 C 20.378906 21.875 18.398438 24.535156 16.660156 26.273438 C 15.597656 27.332031 14.425781 28.273438 13.167969 29.085938 L 13.101562 29.125 L 13.078125 29.140625 L 13.074219 29.140625 L 12.375 28 C 12.144531 27.621094 11.917969 27.238281 11.6875 26.859375 L 11.699219 26.851562 L 11.738281 26.828125 C 12.046875 26.636719 12.339844 26.433594 12.625 26.214844 C 13.214844 25.785156 13.992188 25.167969 14.765625 24.394531 C 16.359375 22.792969 17.707031 20.792969 17.707031 18.667969 C 17.707031 18.480469 17.621094 18.214844 17.265625 17.859375 C 16.824219 17.453125 16.324219 17.113281 15.78125 16.859375 C 15.027344 16.488281 14.238281 16.191406 13.425781 15.972656 Z M 13.394531 15.960938 Z M 13.394531 15.960938 "/>
</g>
</defs>
<path fill-rule="evenodd" fill="rgb(98.039216%, 98.039216%, 98.039216%)" fill-opacity="1" d="M 29.332031 13.332031 C 29.332031 14.070312 28.738281 14.667969 28 14.667969 C 27.261719 14.667969 26.667969 14.070312 26.667969 13.332031 C 26.667969 12.597656 27.261719 12 28 12 C 28.738281 12 29.332031 12.597656 29.332031 13.332031 Z M 29.332031 21.332031 L 29.332031 18 C 29.332031 18.367188 29.632812 18.667969 30 18.667969 C 30.367188 18.667969 30.667969 18.367188 30.667969 18 L 30.667969 15.332031 C 30.667969 14.964844 30.367188 14.667969 30 14.667969 L 26 14.667969 C 25.632812 14.667969 25.332031 14.964844 25.332031 15.332031 L 25.332031 18 C 25.332031 18.367188 25.632812 18.667969 26 18.667969 C 26.367188 18.667969 26.667969 18.367188 26.667969 18 L 26.667969 21.332031 Z M 29.332031 21.332031 "/>
<path fill-rule="evenodd" fill="rgb(98.039216%, 98.039216%, 98.039216%)" fill-opacity="1" d="M 29.332031 2.667969 C 29.332031 3.402344 28.738281 4 28 4 C 27.261719 4 26.667969 3.402344 26.667969 2.667969 C 26.667969 1.929688 27.261719 1.332031 28 1.332031 C 28.738281 1.332031 29.332031 1.929688 29.332031 2.667969 Z M 29.332031 10.667969 L 29.332031 7.332031 C 29.332031 7.703125 29.632812 8 30 8 C 30.367188 8 30.667969 7.703125 30.667969 7.332031 L 30.667969 4.667969 C 30.667969 4.296875 30.367188 4 30 4 L 26 4 C 25.632812 4 25.332031 4.296875 25.332031 4.667969 L 25.332031 7.332031 C 25.332031 7.703125 25.632812 8 26 8 C 26.367188 8 26.667969 7.703125 26.667969 7.332031 L 26.667969 10.667969 Z M 29.332031 10.667969 "/>
<path fill-rule="evenodd" fill="rgb(98.039216%, 98.039216%, 98.039216%)" fill-opacity="1" d="M 11.765625 12.71875 C 12.820312 12.753906 13.652344 12.160156 14.433594 11.386719 "/>
<path fill-rule="evenodd" fill="rgb(98.039216%, 98.039216%, 98.039216%)" fill-opacity="1" d="M 11.898438 17.988281 C 13.632812 17.875 15.339844 17.234375 16.988281 15.625 "/>
<g mask="url(#mask-0)">
<use xlink:href="#source-10"/>
</g>
<path fill-rule="evenodd" fill="rgb(98.039216%, 98.039216%, 98.039216%)" fill-opacity="1" d="M 15.054688 6.667969 C 15.054688 8.066406 14.320312 9.820312 13.625 11.179688 C 14.453125 9.898438 15.613281 8.386719 16.828125 7.691406 C 17.972656 7.027344 20.285156 5.691406 21.621094 8 C 22.953125 10.308594 20.640625 11.640625 19.488281 12.308594 C 18.273438 13.007812 16.378906 13.253906 14.847656 13.332031 C 16.378906 13.414062 18.273438 13.660156 19.488281 14.359375 C 20.640625 15.027344 22.953125 16.359375 21.621094 18.667969 C 20.285156 20.972656 17.972656 19.640625 16.820312 18.972656 C 15.621094 18.28125 14.460938 16.773438 13.621094 15.488281 C 14.320312 16.847656 15.054688 18.605469 15.054688 20 C 15.054688 21.332031 15.054688 24 12.386719 24 C 9.71875 24 9.71875 21.332031 9.71875 20 C 9.71875 18.601562 10.453125 16.832031 11.148438 15.464844 C 10.320312 16.753906 9.152344 18.273438 7.945312 18.972656 C 6.785156 19.640625 4.480469 20.972656 3.148438 18.667969 C 1.8125 16.359375 4.121094 15.027344 5.28125 14.359375 C 6.488281 13.660156 8.386719 13.414062 9.914062 13.332031 C 8.378906 13.253906 6.488281 13.007812 5.273438 12.308594 C 4.121094 11.640625 1.808594 10.308594 3.140625 8 C 4.472656 5.691406 6.785156 7.027344 7.941406 7.691406 C 9.152344 8.394531 10.320312 9.914062 11.148438 11.199219 C 10.453125 9.832031 9.71875 8.066406 9.71875 6.667969 C 9.71875 5.332031 9.71875 2.667969 12.386719 2.667969 C 15.054688 2.667969 15.054688 5.332031 15.054688 6.667969 Z M 12.386719 14.667969 C 13.121094 14.667969 13.71875 14.070312 13.71875 13.332031 C 13.71875 12.597656 13.121094 12 12.386719 12 C 11.648438 12 11.054688 12.597656 11.054688 13.332031 C 11.054688 14.070312 11.648438 14.667969 12.386719 14.667969 Z M 12.386719 14.667969 "/>
</svg>
