<?xml version="1.0" encoding="UTF-8"?>
<svg xmlns="http://www.w3.org/2000/svg" xmlns:xlink="http://www.w3.org/1999/xlink" width="12" height="12" viewBox="0 0 12 12" version="1.1">
<defs>
<filter id="alpha" filterUnits="objectBoundingBox" x="0%" y="0%" width="100%" height="100%">
  <feColorMatrix type="matrix" in="SourceGraphic" values="0 0 0 0 1 0 0 0 0 1 0 0 0 0 1 0 0 0 1 0"/>
</filter>
<mask id="mask0">
  <g filter="url(#alpha)">
<rect x="0" y="0" width="12" height="12" style="fill:rgb(0%,0%,0%);fill-opacity:0.754;stroke:none;"/>
  </g>
</mask>
<clipPath id="clip1">
  <rect x="0" y="0" width="12" height="12"/>
</clipPath>
<g id="surface5" clip-path="url(#clip1)">
<path style=" stroke:none;fill-rule:nonzero;fill:rgb(100%,100%,100%);fill-opacity:1;" d="M 3.417969 0.832031 L 3.285156 0.832031 L 3.289062 1.398438 L 3.144531 1.398438 L 3.144531 2.015625 L 2.945312 2.015625 L 2.945312 2.636719 L 2.546875 2.636719 L 2.546875 7.734375 C 2.691406 7.578125 2.859375 7.441406 3.042969 7.320312 C 3.363281 7.105469 3.742188 6.929688 4.144531 6.800781 L 4.144531 5.859375 C 4.128906 5.839844 4.109375 5.820312 4.09375 5.796875 C 4.089844 5.792969 4.089844 5.792969 4.089844 5.789062 C 3.84375 5.457031 3.726562 5.082031 3.769531 4.628906 C 3.777344 4.53125 3.789062 4.4375 3.824219 4.34375 C 3.675781 3.765625 3.753906 3.160156 3.972656 2.636719 L 3.746094 2.636719 L 3.746094 2.015625 L 3.546875 2.015625 L 3.546875 1.398438 L 3.417969 1.398438 Z M 9.832031 3.953125 L 9.832031 8.425781 C 9.851562 8.507812 9.859375 8.597656 9.859375 8.691406 L 9.859375 9.234375 C 9.859375 9.300781 9.847656 9.367188 9.832031 9.425781 L 9.832031 10.757812 L 11.296875 10.757812 L 11.296875 4.660156 L 10.605469 4.660156 L 10.605469 3.953125 Z M 8.242188 4.972656 C 8.210938 5.457031 7.949219 5.792969 7.78125 5.960938 C 7.75 6.0625 7.707031 6.152344 7.65625 6.265625 C 7.59375 6.394531 7.515625 6.535156 7.425781 6.679688 C 7.996094 6.8125 8.53125 7.027344 8.964844 7.320312 C 9.035156 7.367188 9.105469 7.417969 9.171875 7.472656 L 9.171875 6.269531 Z M 0.566406 5.515625 L 0.566406 10.835938 L 1.878906 10.835938 L 1.878906 5.867188 Z M 0.804688 6.175781 L 1.042969 6.175781 L 1.042969 6.449219 L 0.804688 6.449219 Z M 1.40625 6.175781 L 1.644531 6.175781 L 1.644531 6.449219 L 1.40625 6.449219 Z M 7.25 6.636719 C 7.246094 6.636719 7.246094 6.640625 7.246094 6.640625 L 7.230469 6.640625 C 7.238281 6.640625 7.246094 6.644531 7.257812 6.644531 C 7.253906 6.644531 7.25 6.636719 7.25 6.636719 Z M 0.808594 6.765625 L 1.046875 6.765625 L 1.046875 7.046875 L 0.808594 7.046875 Z M 1.402344 6.765625 L 1.640625 6.765625 L 1.640625 7.046875 L 1.402344 7.046875 Z M 0.808594 7.324219 L 1.046875 7.324219 L 1.046875 7.605469 L 0.808594 7.605469 Z M 1.402344 7.324219 L 1.640625 7.324219 L 1.640625 7.605469 L 1.402344 7.605469 Z M 0.808594 7.886719 L 1.046875 7.886719 L 1.046875 8.167969 L 0.808594 8.167969 Z M 1.402344 7.886719 L 1.640625 7.886719 L 1.640625 8.167969 L 1.402344 8.167969 Z M 0.808594 8.457031 L 1.046875 8.457031 L 1.046875 8.734375 L 0.808594 8.734375 Z M 1.402344 8.457031 L 1.640625 8.457031 L 1.640625 8.734375 L 1.402344 8.734375 Z M 0.808594 9.015625 L 1.046875 9.015625 L 1.046875 9.296875 L 0.808594 9.296875 Z M 1.402344 9.015625 L 1.640625 9.015625 L 1.640625 9.296875 L 1.402344 9.296875 Z M 0.808594 9.574219 L 1.046875 9.574219 L 1.046875 9.855469 L 0.808594 9.855469 Z M 1.402344 9.574219 L 1.640625 9.574219 L 1.640625 9.855469 L 1.402344 9.855469 Z M 2.546875 10.019531 L 2.546875 10.757812 L 4.144531 10.757812 L 4.144531 10.546875 C 3.960938 10.519531 3.785156 10.492188 3.617188 10.457031 C 3.261719 10.382812 2.945312 10.285156 2.667969 10.109375 C 2.628906 10.082031 2.585938 10.050781 2.546875 10.019531 Z M 9.171875 10.070312 C 8.953125 10.179688 8.699219 10.265625 8.414062 10.339844 C 8.027344 10.445312 7.582031 10.527344 7.117188 10.582031 L 7.117188 10.757812 L 9.171875 10.757812 Z M 0.808594 10.136719 L 1.046875 10.136719 L 1.046875 10.417969 L 0.808594 10.417969 Z M 1.402344 10.136719 L 1.640625 10.136719 L 1.640625 10.417969 L 1.402344 10.417969 Z M 4.773438 10.605469 L 4.773438 10.757812 L 6.316406 10.757812 L 6.316406 10.640625 C 6.214844 10.640625 6.109375 10.644531 6.003906 10.644531 C 5.597656 10.644531 5.179688 10.632812 4.773438 10.605469 Z M 4.773438 10.605469 "/>
</g>
</defs>
<g id="surface1">
<use xlink:href="#surface5" mask="url(#mask0)"/>
<path style=" stroke:none;fill-rule:nonzero;fill:rgb(100%,100%,100%);fill-opacity:1;" d="M 7.136719 7.117188 C 7.136719 7.117188 6.691406 7.019531 6.902344 6.578125 C 7.164062 6.230469 7.320312 5.835938 7.335938 5.707031 C 7.335938 5.707031 7.734375 5.390625 7.757812 4.921875 C 7.78125 4.449219 7.671875 4.429688 7.671875 4.429688 C 7.839844 3.917969 7.894531 1.992188 6.652344 2.222656 C 6.445312 1.816406 5.148438 1.5 4.546875 2.578125 C 4.242188 3.113281 4.132812 3.84375 4.367188 4.441406 C 4.359375 4.488281 4.285156 4.398438 4.257812 4.675781 C 4.230469 4.941406 4.351562 5.324219 4.480469 5.5 C 4.539062 5.574219 4.628906 5.628906 4.695312 5.65625 C 4.695312 5.65625 4.773438 6.128906 5.144531 6.578125 C 5.230469 6.933594 4.875 7.117188 4.875 7.117188 C 3.703125 7.34375 2.628906 7.992188 2.628906 8.691406 C 2.628906 8.742188 2.628906 9.234375 2.628906 9.234375 C 2.628906 9.992188 4.40625 10.15625 6.003906 10.15625 C 7.605469 10.15625 9.371094 9.699219 9.371094 9.234375 C 9.371094 9.234375 9.371094 8.742188 9.371094 8.691406 C 9.371094 7.992188 8.308594 7.34375 7.136719 7.117188 Z M 5.5 9.824219 C 5.5 8.921875 5.898438 8.296875 5.898438 8.296875 L 5.488281 8.066406 C 5.488281 7.871094 6 7.644531 6 7.644531 C 6 7.644531 6.488281 7.863281 6.488281 8.066406 L 6.101562 8.296875 C 6.101562 8.296875 6.492188 8.921875 6.492188 9.835938 C 6.492188 9.960938 5.5 9.929688 5.5 9.824219 Z M 5.5 9.824219 "/>
</g>
</svg>
