<?xml version="1.0" encoding="UTF-8"?>
<svg xmlns="http://www.w3.org/2000/svg" xmlns:xlink="http://www.w3.org/1999/xlink" width="32" height="32" viewBox="0 0 32 32">
<path fill-rule="nonzero" fill="rgb(100%, 100%, 100%)" fill-opacity="1" d="M 12.28125 15.804688 C 11.191406 15.804688 10.613281 16.398438 10.347656 17.09375 L 8.933594 20.75 C 8.371094 20.820312 7.375 21.480469 7.375 22.726562 L 7.375 27.378906 L 8.753906 27.378906 L 8.753906 28.863281 C 8.753906 30.695312 11.34375 30.671875 11.34375 28.863281 L 11.34375 27.378906 L 20.65625 27.378906 L 20.65625 28.863281 C 20.65625 30.671875 23.246094 30.695312 23.246094 28.863281 L 23.246094 27.378906 L 24.625 27.378906 L 24.625 22.726562 C 24.625 21.480469 23.628906 20.820312 23.066406 20.75 L 21.652344 17.09375 C 21.382812 16.398438 20.804688 15.804688 19.71875 15.804688 Z M 12.265625 17.132812 L 19.734375 17.132812 C 20.199219 17.140625 20.398438 17.429688 20.535156 17.835938 L 21.601562 20.710938 L 10.398438 20.710938 L 11.464844 17.835938 C 11.597656 17.429688 11.796875 17.140625 12.265625 17.132812 Z M 10.089844 22.109375 C 10.75 22.109375 11.285156 22.664062 11.285156 23.34375 C 11.285156 24.023438 10.75 24.574219 10.089844 24.574219 C 9.429688 24.574219 8.894531 24.023438 8.894531 23.34375 C 8.894531 22.664062 9.429688 22.109375 10.089844 22.109375 Z M 21.910156 22.109375 C 22.570312 22.109375 23.105469 22.664062 23.105469 23.34375 C 23.105469 24.023438 22.570312 24.574219 21.910156 24.574219 C 21.25 24.574219 20.714844 24.023438 20.714844 23.34375 C 20.714844 22.664062 21.25 22.109375 21.910156 22.109375 Z M 21.910156 22.109375 "/>
<path fill="none" stroke-width="28.801001" stroke-linecap="round" stroke-linejoin="miter" stroke="rgb(100%, 100%, 100%)" stroke-opacity="1" stroke-miterlimit="4" d="M 36.108398 55.649414 C 55.649414 64.853516 69.526367 77.597656 81.491699 92.324219 " transform="matrix(0.0551724, 0, 0, 0.0551724, 0, 0)"/>
<path fill-rule="nonzero" fill="rgb(100%, 100%, 100%)" fill-opacity="1" d="M 5.539062 4.316406 C 5.4375 4.316406 5.207031 4.394531 5.121094 4.449219 C 4.402344 4.972656 4.265625 5.050781 3.636719 5.527344 C 3.519531 5.605469 3.441406 5.730469 3.414062 5.867188 C 3.390625 6.003906 3.398438 6.203125 3.476562 6.320312 C 3.535156 6.492188 3.871094 6.945312 3.871094 6.945312 L 6.5 5.035156 C 6.5 5.035156 6.292969 4.75 6.148438 4.585938 C 6 4.414062 5.769531 4.316406 5.539062 4.316406 Z M 5.539062 4.316406 "/>
<path fill-rule="nonzero" fill="rgb(100%, 100%, 100%)" fill-opacity="1" d="M 4.832031 8.386719 C 4.949219 8.550781 4.992188 8.753906 4.957031 8.949219 C 4.921875 9.148438 4.808594 9.320312 4.644531 9.4375 C 4.480469 9.550781 4.277344 9.59375 4.082031 9.558594 C 3.886719 9.523438 3.710938 9.410156 3.597656 9.246094 C 3.484375 9.082031 3.4375 8.882812 3.472656 8.683594 C 3.507812 8.488281 3.621094 8.3125 3.785156 8.199219 C 3.949219 8.085938 4.152344 8.039062 4.347656 8.074219 C 4.542969 8.109375 4.71875 8.222656 4.832031 8.386719 Z M 4.832031 8.386719 "/>
<path fill-rule="nonzero" fill="rgb(100%, 100%, 100%)" fill-opacity="1" d="M 5.0625 11.90625 C 5.203125 12.109375 5.257812 12.363281 5.214844 12.605469 C 5.171875 12.851562 5.03125 13.066406 4.828125 13.210938 C 4.625 13.351562 4.371094 13.40625 4.128906 13.363281 C 3.882812 13.316406 3.667969 13.179688 3.523438 12.976562 C 3.382812 12.769531 3.328125 12.519531 3.371094 12.273438 C 3.414062 12.03125 3.554688 11.8125 3.757812 11.671875 C 3.960938 11.53125 4.214844 11.476562 4.457031 11.519531 C 4.703125 11.5625 4.921875 11.703125 5.0625 11.90625 Z M 5.0625 11.90625 "/>
<path fill-rule="nonzero" fill="rgb(100%, 100%, 100%)" fill-opacity="1" d="M 6.792969 7.121094 C 6.90625 7.285156 6.949219 7.488281 6.914062 7.6875 C 6.878906 7.882812 6.769531 8.058594 6.605469 8.171875 C 6.441406 8.285156 6.238281 8.328125 6.039062 8.292969 C 5.84375 8.257812 5.667969 8.148438 5.554688 7.984375 C 5.441406 7.820312 5.398438 7.617188 5.433594 7.417969 C 5.46875 7.222656 5.578125 7.046875 5.742188 6.933594 C 5.90625 6.820312 6.109375 6.777344 6.308594 6.8125 C 6.503906 6.847656 6.679688 6.957031 6.792969 7.121094 Z M 6.792969 7.121094 "/>
<path fill-rule="nonzero" fill="rgb(100%, 100%, 100%)" fill-opacity="1" d="M 8.011719 10.671875 C 8.152344 10.875 8.207031 11.125 8.164062 11.371094 C 8.121094 11.617188 7.980469 11.832031 7.777344 11.972656 C 7.574219 12.117188 7.320312 12.171875 7.078125 12.128906 C 6.832031 12.082031 6.617188 11.945312 6.472656 11.742188 C 6.332031 11.535156 6.277344 11.285156 6.320312 11.039062 C 6.363281 10.796875 6.503906 10.578125 6.707031 10.4375 C 6.910156 10.296875 7.164062 10.242188 7.40625 10.285156 C 7.652344 10.328125 7.867188 10.46875 8.011719 10.671875 Z M 8.011719 10.671875 "/>
<path fill-rule="nonzero" fill="rgb(100%, 100%, 100%)" fill-opacity="1" d="M 8.84375 5.542969 C 8.957031 5.707031 9.003906 5.910156 8.96875 6.109375 C 8.933594 6.304688 8.820312 6.480469 8.65625 6.59375 C 8.492188 6.707031 8.289062 6.75 8.09375 6.714844 C 7.894531 6.679688 7.722656 6.570312 7.609375 6.40625 C 7.492188 6.242188 7.449219 6.039062 7.484375 5.84375 C 7.519531 5.644531 7.632812 5.46875 7.796875 5.355469 C 7.960938 5.242188 8.164062 5.199219 8.359375 5.234375 C 8.554688 5.269531 8.730469 5.378906 8.84375 5.542969 Z M 8.84375 5.542969 "/>
<path fill-rule="nonzero" fill="rgb(100%, 100%, 100%)" fill-opacity="1" d="M 12.316406 6.503906 C 12.460938 6.707031 12.515625 6.960938 12.46875 7.207031 C 12.425781 7.449219 12.289062 7.667969 12.082031 7.808594 C 11.878906 7.949219 11.628906 8.003906 11.382812 7.960938 C 11.140625 7.917969 10.921875 7.777344 10.78125 7.574219 C 10.636719 7.371094 10.582031 7.117188 10.628906 6.875 C 10.671875 6.628906 10.808594 6.414062 11.015625 6.269531 C 11.21875 6.128906 11.46875 6.074219 11.714844 6.117188 C 11.957031 6.164062 12.175781 6.300781 12.316406 6.503906 Z M 12.316406 6.503906 "/>
<path fill-rule="nonzero" fill="rgb(100%, 100%, 100%)" fill-opacity="1" d="M 4.871094 15.691406 C 5.011719 15.894531 5.066406 16.148438 5.023438 16.390625 C 4.980469 16.636719 4.839844 16.855469 4.636719 16.996094 C 4.433594 17.136719 4.179688 17.191406 3.9375 17.148438 C 3.691406 17.105469 3.476562 16.964844 3.332031 16.761719 C 3.191406 16.558594 3.136719 16.304688 3.179688 16.0625 C 3.226562 15.816406 3.363281 15.601562 3.566406 15.457031 C 3.773438 15.316406 4.023438 15.261719 4.269531 15.304688 C 4.511719 15.347656 4.730469 15.488281 4.871094 15.691406 Z M 4.871094 15.691406 "/>
<path fill-rule="nonzero" fill="rgb(100%, 100%, 100%)" fill-opacity="1" d="M 9.042969 13.84375 C 9.183594 14.046875 9.238281 14.296875 9.195312 14.542969 C 9.152344 14.785156 9.011719 15.003906 8.808594 15.144531 C 8.605469 15.289062 8.351562 15.34375 8.109375 15.296875 C 7.863281 15.253906 7.648438 15.117188 7.503906 14.910156 C 7.363281 14.707031 7.308594 14.457031 7.351562 14.210938 C 7.394531 13.96875 7.535156 13.75 7.738281 13.609375 C 7.941406 13.464844 8.195312 13.410156 8.4375 13.457031 C 8.683594 13.5 8.902344 13.636719 9.042969 13.84375 Z M 9.042969 13.84375 "/>
<path fill-rule="nonzero" fill="rgb(100%, 100%, 100%)" fill-opacity="1" d="M 16 7.746094 C 16.140625 7.953125 16.195312 8.203125 16.152344 8.449219 C 16.109375 8.691406 15.96875 8.910156 15.765625 9.050781 C 15.5625 9.191406 15.308594 9.246094 15.066406 9.203125 C 14.820312 9.160156 14.605469 9.019531 14.460938 8.816406 C 14.320312 8.613281 14.265625 8.363281 14.308594 8.117188 C 14.351562 7.871094 14.492188 7.65625 14.695312 7.515625 C 14.898438 7.371094 15.152344 7.316406 15.394531 7.359375 C 15.640625 7.40625 15.859375 7.542969 16 7.746094 Z M 16 7.746094 "/>
<path fill-rule="nonzero" fill="rgb(100%, 100%, 100%)" fill-opacity="1" d="M 10.4375 8.933594 C 10.578125 9.140625 10.632812 9.390625 10.589844 9.636719 C 10.546875 9.878906 10.40625 10.097656 10.203125 10.238281 C 10 10.378906 9.746094 10.433594 9.503906 10.390625 C 9.257812 10.347656 9.042969 10.207031 8.898438 10.003906 C 8.757812 9.800781 8.703125 9.550781 8.746094 9.304688 C 8.792969 9.058594 8.929688 8.84375 9.132812 8.703125 C 9.339844 8.558594 9.589844 8.503906 9.835938 8.546875 C 10.078125 8.59375 10.296875 8.730469 10.4375 8.933594 Z M 10.4375 8.933594 "/>
<path fill-rule="nonzero" fill="rgb(100%, 100%, 100%)" fill-opacity="1" d="M 12.824219 11.191406 C 12.964844 11.394531 13.019531 11.648438 12.976562 11.890625 C 12.933594 12.136719 12.792969 12.355469 12.589844 12.496094 C 12.386719 12.636719 12.132812 12.691406 11.890625 12.648438 C 11.644531 12.605469 11.425781 12.464844 11.285156 12.261719 C 11.144531 12.058594 11.089844 11.804688 11.132812 11.5625 C 11.175781 11.316406 11.316406 11.101562 11.519531 10.957031 C 11.722656 10.816406 11.976562 10.761719 12.21875 10.804688 C 12.464844 10.847656 12.679688 10.988281 12.824219 11.191406 Z M 12.824219 11.191406 "/>
<path fill-rule="nonzero" fill="rgb(100%, 100%, 100%)" fill-opacity="1" d="M 30.867188 7.507812 C 28.742188 1.019531 25.160156 3.039062 23.640625 3.699219 C 22.042969 4.390625 22.242188 8.683594 24.066406 10.585938 C 27.449219 13.300781 31.539062 11.441406 30.867188 7.507812 Z M 30.867188 7.507812 "/>
<path fill="none" stroke-width="38.101002" stroke-linecap="round" stroke-linejoin="miter" stroke="rgb(100%, 100%, 100%)" stroke-opacity="1" stroke-miterlimit="4" d="M 479.675293 250.13916 C 491.14502 232.86377 521.09375 196.188965 533.413086 180.825195 " transform="matrix(0.0551724, 0, 0, 0.0551724, 0, 0)"/>
<path fill="none" stroke-width="31.801001" stroke-linecap="round" stroke-linejoin="miter" stroke="rgb(100%, 100%, 100%)" stroke-opacity="1" stroke-miterlimit="4" d="M 366.748047 240.368652 C 386.572266 232.438965 461.621094 199.304199 479.958496 192.08252 " transform="matrix(0.0551724, 0, 0, 0.0551724, 0, 0)"/>
<path fill="none" stroke-width="31.801001" stroke-linecap="round" stroke-linejoin="miter" stroke="rgb(100%, 100%, 100%)" stroke-opacity="1" stroke-miterlimit="4" d="M 327.878418 210.349121 C 346.640625 201.782227 406.679688 176.789551 424.946289 169.49707 " transform="matrix(0.0551724, 0, 0, 0.0551724, 0, 0)"/>
<path fill="none" stroke-width="31.801001" stroke-linecap="round" stroke-linejoin="miter" stroke="rgb(100%, 100%, 100%)" stroke-opacity="1" stroke-miterlimit="4" d="M 326.533203 165.88623 C 346.711426 156.682129 404.838867 133.317871 422.963867 126.096191 " transform="matrix(0.0551724, 0, 0, 0.0551724, 0, 0)"/>
<path fill="none" stroke-width="27.900999" stroke-linecap="round" stroke-linejoin="miter" stroke="rgb(100%, 100%, 100%)" stroke-opacity="1" stroke-miterlimit="4" d="M 348.410645 115.97168 C 368.022461 107.758789 419.56543 85.810547 437.548828 78.447266 " transform="matrix(0.0551724, 0, 0, 0.0551724, 0, 0)"/>
</svg>
