<?xml version="1.0" encoding="UTF-8"?>
<svg xmlns="http://www.w3.org/2000/svg" xmlns:xlink="http://www.w3.org/1999/xlink" width="12" height="12" viewBox="0 0 12 12" version="1.1">
<g id="surface1">
<path style=" stroke:none;fill-rule:nonzero;fill:rgb(100%,100%,100%);fill-opacity:1;" d="M 10.617188 4.566406 L 9.292969 4.566406 L 9.292969 8.984375 L 10.617188 8.984375 Z M 10.617188 4.566406 "/>
<path style=" stroke:none;fill-rule:nonzero;fill:rgb(100%,100%,100%);fill-opacity:1;" d="M 3.632812 4.492188 C 4.277344 4.492188 4.800781 3.96875 4.800781 3.324219 C 4.800781 3.261719 4.796875 3.203125 4.789062 3.144531 L 5.375 3.144531 L 4.800781 2.453125 L 5.492188 1.492188 L 2.460938 1.519531 L 2.460938 3.144531 L 2.472656 3.144531 C 2.464844 3.203125 2.460938 3.261719 2.460938 3.324219 C 2.460938 3.96875 2.984375 4.492188 3.632812 4.492188 Z M 3.632812 4.492188 "/>
<path style=" stroke:none;fill-rule:nonzero;fill:rgb(100%,100%,100%);fill-opacity:1;" d="M 8.523438 9.1875 C 8.535156 9.179688 8.542969 9.175781 8.550781 9.167969 C 8.757812 9.007812 8.792969 8.710938 8.632812 8.503906 L 5.867188 4.957031 C 5.777344 4.84375 5.640625 4.773438 5.492188 4.773438 L 1.855469 4.773438 C 1.804688 4.773438 1.757812 4.78125 1.710938 4.796875 L 5.492188 8.707031 L 5.492188 6.019531 L 7.886719 9.085938 C 7.917969 9.125 7.953125 9.160156 7.992188 9.1875 L 5.972656 9.1875 L 5.972656 10.507812 L 10.242188 10.507812 L 10.242188 9.1875 Z M 8.523438 9.1875 "/>
<path style=" stroke:none;fill-rule:nonzero;fill:rgb(100%,100%,100%);fill-opacity:1;" d="M 5.628906 9.410156 L 2.816406 9.410156 L 2.816406 8.960938 L 5.113281 8.960938 L 1.398438 5.121094 C 1.390625 5.164062 1.382812 5.203125 1.382812 5.25 L 1.382812 9.789062 C 1.382812 10.050781 1.59375 10.261719 1.855469 10.261719 L 5.34375 10.261719 C 5.605469 10.261719 5.816406 10.050781 5.816406 9.789062 C 5.816406 9.632812 5.742188 9.5 5.628906 9.410156 Z M 5.628906 9.410156 "/>
</g>
</svg>
