<?xml version="1.0" encoding="UTF-8"?>
<svg xmlns="http://www.w3.org/2000/svg" xmlns:xlink="http://www.w3.org/1999/xlink" width="32" height="32" viewBox="0 0 32 32">
<path fill-rule="nonzero" fill="rgb(100%, 100%, 100%)" fill-opacity="1" d="M 28.3125 12.179688 L 24.785156 12.179688 L 24.785156 23.964844 L 28.3125 23.964844 Z M 28.3125 12.179688 "/>
<path fill-rule="nonzero" fill="rgb(100%, 100%, 100%)" fill-opacity="1" d="M 9.683594 11.984375 C 11.40625 11.984375 12.804688 10.585938 12.804688 8.863281 C 12.804688 8.699219 12.792969 8.539062 12.769531 8.386719 L 14.328125 8.386719 L 12.804688 6.542969 L 14.648438 3.976562 L 6.5625 4.054688 L 6.5625 8.386719 L 6.597656 8.386719 C 6.574219 8.539062 6.5625 8.699219 6.5625 8.863281 C 6.5625 10.585938 7.960938 11.984375 9.683594 11.984375 Z M 9.683594 11.984375 "/>
<path fill-rule="nonzero" fill="rgb(100%, 100%, 100%)" fill-opacity="1" d="M 22.734375 24.496094 C 22.757812 24.480469 22.777344 24.46875 22.800781 24.449219 C 23.351562 24.023438 23.449219 23.226562 23.019531 22.679688 L 15.644531 13.21875 C 15.40625 12.914062 15.039062 12.734375 14.648438 12.734375 L 4.949219 12.734375 C 4.816406 12.734375 4.6875 12.753906 4.566406 12.792969 L 14.648438 23.21875 L 14.648438 16.050781 L 21.027344 24.230469 C 21.109375 24.335938 21.207031 24.425781 21.3125 24.496094 L 15.933594 24.496094 L 15.933594 28.023438 L 27.3125 28.023438 L 27.3125 24.496094 Z M 22.734375 24.496094 "/>
<path fill-rule="nonzero" fill="rgb(100%, 100%, 100%)" fill-opacity="1" d="M 15.015625 25.097656 L 7.511719 25.097656 L 7.511719 23.894531 L 13.632812 23.894531 L 3.734375 13.660156 C 3.703125 13.769531 3.6875 13.878906 3.6875 13.996094 L 3.6875 26.101562 C 3.6875 26.796875 4.253906 27.363281 4.949219 27.363281 L 14.25 27.363281 C 14.945312 27.363281 15.511719 26.796875 15.511719 26.101562 C 15.511719 25.691406 15.316406 25.328125 15.015625 25.097656 Z M 15.015625 25.097656 "/>
</svg>
