<?xml version="1.0" encoding="UTF-8"?>
<svg xmlns="http://www.w3.org/2000/svg" xmlns:xlink="http://www.w3.org/1999/xlink" width="32" height="32" viewBox="0 0 32 32">
<defs>
<filter id="filter-remove-color" x="0%" y="0%" width="100%" height="100%">
<feColorMatrix color-interpolation-filters="sRGB" values="0 0 0 0 1 0 0 0 0 1 0 0 0 0 1 0 0 0 1 0" />
</filter>
<mask id="mask-0">
<g filter="url(#filter-remove-color)">
<rect x="-3.2" y="-3.2" width="38.4" height="38.4" fill="rgb(0%, 0%, 0%)" fill-opacity="0.645"/>
</g>
</mask>
<clipPath id="clip-0">
<rect x="0" y="0" width="32" height="32"/>
</clipPath>
<g id="source-11" clip-path="url(#clip-0)">
<path fill-rule="nonzero" fill="rgb(100%, 100%, 100%)" fill-opacity="1" d="M 8 2.667969 L 9.332031 2.667969 L 9.332031 6.667969 L 10.667969 6.667969 L 10.667969 2.667969 L 16 2.667969 L 16.066406 6.667969 L 17.332031 6.667969 L 17.332031 2.667969 L 18.667969 2.667969 L 18.667969 8 L 8 8 Z M 8 2.667969 "/>
</g>
</defs>
<path fill-rule="evenodd" fill="rgb(100%, 100%, 100%)" fill-opacity="1" d="M 28 14.667969 C 28 15.402344 27.402344 16 26.667969 16 C 25.929688 16 25.332031 15.402344 25.332031 14.667969 C 25.332031 13.929688 25.929688 13.332031 26.667969 13.332031 C 27.402344 13.332031 28 13.929688 28 14.667969 Z M 28 22.667969 L 28 19.332031 C 28 19.703125 28.296875 20 28.667969 20 C 29.035156 20 29.332031 19.703125 29.332031 19.332031 L 29.332031 16.667969 C 29.332031 16.296875 29.035156 16 28.667969 16 L 24.667969 16 C 24.296875 16 24 16.296875 24 16.667969 L 24 19.332031 C 24 19.703125 24.296875 20 24.667969 20 C 25.035156 20 25.332031 19.703125 25.332031 19.332031 L 25.332031 22.667969 Z M 28 22.667969 "/>
<path fill-rule="evenodd" fill="rgb(100%, 100%, 100%)" fill-opacity="1" d="M 28 4 C 28 4.738281 27.402344 5.332031 26.667969 5.332031 C 25.929688 5.332031 25.332031 4.738281 25.332031 4 C 25.332031 3.261719 25.929688 2.667969 26.667969 2.667969 C 27.402344 2.667969 28 3.261719 28 4 Z M 28 12 L 28 8.667969 C 28 9.035156 28.296875 9.332031 28.667969 9.332031 C 29.035156 9.332031 29.332031 9.035156 29.332031 8.667969 L 29.332031 6 C 29.332031 5.632812 29.035156 5.332031 28.667969 5.332031 L 24.667969 5.332031 C 24.296875 5.332031 24 5.632812 24 6 L 24 8.667969 C 24 9.035156 24.296875 9.332031 24.667969 9.332031 C 25.035156 9.332031 25.332031 9.035156 25.332031 8.667969 L 25.332031 12 Z M 28 12 "/>
<path fill-rule="nonzero" fill="rgb(100%, 100%, 100%)" fill-opacity="1" d="M 6.667969 26.667969 L 20 26.667969 C 20.738281 26.667969 21.332031 27.261719 21.332031 28 L 21.332031 29.332031 L 5.332031 29.332031 L 5.332031 28 C 5.332031 27.265625 5.933594 26.667969 6.667969 26.667969 Z M 6.667969 26.667969 "/>
<path fill-rule="nonzero" fill="rgb(100%, 100%, 100%)" fill-opacity="1" d="M 6.667969 24 C 10.667969 21.332031 10.667969 16.679688 10.667969 12 L 16 12 C 15.972656 16.511719 16 21.332031 20 24 L 20 25.332031 L 6.667969 25.332031 Z M 6.667969 24 "/>
<path fill-rule="nonzero" fill="rgb(100%, 100%, 100%)" fill-opacity="1" d="M 9.332031 9.332031 L 17.332031 9.332031 L 17.332031 10.667969 L 9.332031 10.667969 Z M 9.332031 9.332031 "/>
<g mask="url(#mask-0)">
<use xlink:href="#source-11"/>
</g>
</svg>
