<?xml version="1.0" encoding="UTF-8"?>
<svg xmlns="http://www.w3.org/2000/svg" xmlns:xlink="http://www.w3.org/1999/xlink" width="12" height="12" viewBox="0 0 12 12" version="1.1">
<g id="surface1">
<path style=" stroke:none;fill-rule:nonzero;fill:rgb(100%,100%,100%);fill-opacity:1;" d="M 1.394531 4.097656 L 1.210938 6.8125 L 0.792969 7.371094 L 0.792969 10.3125 L 6.308594 10.3125 L 6.308594 8.035156 L 5.851562 7.269531 L 2.554688 6.8125 L 2.40625 4.097656 Z M 1.394531 4.097656 "/>
<path style=" stroke:none;fill-rule:nonzero;fill:rgb(100%,100%,100%);fill-opacity:1;" d="M 1.921875 3.476562 C 2.128906 3.476562 2.296875 3.3125 2.296875 3.105469 C 2.296875 3.097656 2.296875 3.09375 2.292969 3.085938 C 2.339844 3.097656 2.386719 3.105469 2.433594 3.105469 C 2.71875 3.105469 2.949219 2.875 2.949219 2.59375 C 2.949219 2.554688 2.941406 2.511719 2.933594 2.476562 C 2.972656 2.480469 3.007812 2.484375 3.046875 2.484375 C 3.386719 2.484375 3.660156 2.28125 3.660156 2.035156 C 3.660156 1.785156 3.386719 1.585938 3.046875 1.585938 C 2.710938 1.585938 2.433594 1.785156 2.433594 2.035156 C 2.433594 2.050781 2.4375 2.066406 2.4375 2.082031 C 2.4375 2.082031 2.4375 2.082031 2.433594 2.082031 C 2.152344 2.082031 1.921875 2.3125 1.921875 2.59375 C 1.921875 2.644531 1.929688 2.691406 1.941406 2.734375 C 1.9375 2.734375 1.929688 2.734375 1.921875 2.734375 C 1.71875 2.734375 1.550781 2.898438 1.550781 3.105469 C 1.550781 3.3125 1.71875 3.476562 1.921875 3.476562 Z M 1.921875 3.476562 "/>
<path style=" stroke:none;fill-rule:evenodd;fill:rgb(100%,100%,100%);fill-opacity:1;" d="M 10.519531 4.507812 C 10.515625 4.605469 10.441406 4.65625 10.4375 4.761719 C 10.4375 4.839844 10.5 4.898438 10.492188 4.972656 C 10.484375 5.058594 10.289062 5.164062 10.359375 5.183594 C 11.394531 5.515625 11.234375 6.585938 11.128906 7.371094 C 11.078125 7.734375 10.902344 8.160156 10.757812 8.445312 C 10.691406 8.578125 10.59375 8.742188 10.492188 8.910156 C 10.402344 9.054688 10.234375 9.261719 10.226562 9.359375 C 10.21875 9.464844 10.304688 9.542969 10.28125 9.71875 C 10.21875 10.179688 9.636719 10.460938 9.019531 10.40625 C 8.625 10.375 8.1875 10.183594 8.132812 9.773438 C 8.113281 9.625 8.15625 9.472656 8.132812 9.347656 C 8.113281 9.242188 7.988281 9.101562 7.90625 8.964844 C 7.691406 8.59375 7.480469 8.152344 7.363281 7.691406 C 7.308594 7.480469 6.859375 5.769531 7.960938 5.183594 C 7.964844 5.117188 7.851562 5.085938 7.839844 4.984375 C 7.832031 4.921875 7.894531 4.84375 7.894531 4.761719 C 7.890625 4.65625 7.808594 4.605469 7.8125 4.535156 C 7.824219 4.398438 8 4.339844 8.160156 4.335938 C 8.25 4.039062 8.40625 3.804688 8.621094 3.632812 C 8.796875 3.578125 8.945312 3.496094 9.035156 3.355469 C 8.941406 3.144531 9.011719 2.867188 9.230469 2.929688 C 9.265625 2.941406 9.34375 3.011719 9.351562 3.089844 C 9.363281 3.195312 9.285156 3.214844 9.296875 3.34375 C 9.304688 3.410156 9.339844 3.402344 9.351562 3.476562 C 9.71875 3.640625 9.964844 3.921875 10.148438 4.269531 C 10.289062 4.332031 10.453125 4.371094 10.519531 4.507812 Z M 10.519531 4.507812 "/>
</g>
</svg>
