<?xml version="1.0" encoding="UTF-8"?>
<svg xmlns="http://www.w3.org/2000/svg" xmlns:xlink="http://www.w3.org/1999/xlink" width="12" height="12" viewBox="0 0 12 12" version="1.1">
<g id="surface1">
<path style=" stroke:none;fill-rule:evenodd;fill:rgb(100%,100%,100%);fill-opacity:1;" d="M 4.519531 2.84375 C 5.039062 2.066406 5.382812 1.550781 6.46875 1.074219 C 6.765625 0.945312 7.101562 0.984375 7.5 1.191406 C 7.871094 1.386719 8.050781 2.050781 7.988281 3.011719 C 7.914062 4.164062 7.519531 5.558594 6.867188 6.9375 C 5.949219 8.878906 4.683594 10.429688 3.648438 10.882812 C 3.339844 11.019531 3.085938 11.035156 2.894531 10.9375 C 2.441406 10.699219 2.183594 10.410156 2.109375 10.046875 C 1.851562 8.839844 2.058594 7.867188 2.609375 6.617188 C 2.839844 6.050781 3.03125 5.660156 3.199219 5.308594 C 3.253906 5.199219 3.304688 5.09375 3.351562 4.992188 C 3.394531 4.898438 3.4375 4.808594 3.480469 4.714844 C 3.652344 4.34375 3.839844 3.925781 4.230469 3.269531 C 4.335938 3.121094 4.429688 2.976562 4.519531 2.84375 Z M 6.257812 3.71875 C 6.570312 2.917969 6.980469 1.851562 7.453125 1.253906 C 6.269531 1.738281 5.378906 3.3125 4.976562 4.257812 C 4.925781 4.421875 4.882812 4.574219 4.84375 4.714844 C 4.582031 5.628906 4.445312 6.097656 3.785156 7.179688 C 2.957031 8.492188 2.847656 9.769531 2.964844 10.390625 C 3.085938 9.796875 3.464844 9.292969 3.863281 8.753906 C 4.03125 8.53125 4.203125 8.300781 4.359375 8.054688 C 5.144531 6.859375 5.457031 5.941406 5.742188 5.105469 C 5.847656 4.800781 5.945312 4.511719 6.0625 4.222656 C 6.121094 4.074219 6.1875 3.902344 6.257812 3.71875 Z M 9.324219 7.585938 C 10.679688 5.058594 9.738281 2.472656 8.742188 2 C 8.75 2.058594 8.765625 2.125 8.789062 2.203125 C 8.921875 2.726562 9.191406 3.796875 7.804688 6.828125 C 7.25 8.035156 6.632812 8.863281 6.136719 9.414062 C 5.355469 10.28125 4.679688 10.53125 4.199219 10.710938 C 4.128906 10.734375 4.0625 10.761719 4 10.785156 C 5.929688 11.574219 7.972656 10.113281 9.324219 7.585938 Z M 9.324219 7.585938 "/>
</g>
</svg>
