<?xml version="1.0" encoding="UTF-8"?>
<svg xmlns="http://www.w3.org/2000/svg" xmlns:xlink="http://www.w3.org/1999/xlink" width="32" height="32" viewBox="0 0 32 32">
<defs>
<filter id="filter-remove-color" x="0%" y="0%" width="100%" height="100%">
<feColorMatrix color-interpolation-filters="sRGB" values="0 0 0 0 1 0 0 0 0 1 0 0 0 0 1 0 0 0 1 0" />
</filter>
<mask id="mask-0">
<g filter="url(#filter-remove-color)">
<rect x="-3.2" y="-3.2" width="38.4" height="38.4" fill="rgb(0%, 0%, 0%)" fill-opacity="0.6"/>
</g>
</mask>
<clipPath id="clip-0">
<rect x="0" y="0" width="32" height="32"/>
</clipPath>
<g id="source-7" clip-path="url(#clip-0)">
<path fill-rule="nonzero" fill="rgb(24.705882%, 24.705882%, 24.705882%)" fill-opacity="1" d="M 18.667969 8 C 18.667969 9.472656 17.472656 10.667969 16 10.667969 C 14.527344 10.667969 13.332031 9.472656 13.332031 8 C 13.332031 6.527344 14.527344 5.332031 16 5.332031 C 17.472656 5.332031 18.667969 6.527344 18.667969 8 Z M 18.667969 8 "/>
</g>
<mask id="mask-1">
<g filter="url(#filter-remove-color)">
<rect x="-3.2" y="-3.2" width="38.4" height="38.4" fill="rgb(0%, 0%, 0%)" fill-opacity="0.2"/>
</g>
</mask>
<clipPath id="clip-1">
<rect x="0" y="0" width="32" height="32"/>
</clipPath>
<g id="source-11" clip-path="url(#clip-1)">
<path fill-rule="nonzero" fill="rgb(24.705882%, 24.705882%, 24.705882%)" fill-opacity="1" d="M 18.667969 16 C 18.667969 17.472656 17.472656 18.667969 16 18.667969 C 14.527344 18.667969 13.332031 17.472656 13.332031 16 C 13.332031 14.527344 14.527344 13.332031 16 13.332031 C 17.472656 13.332031 18.667969 14.527344 18.667969 16 Z M 18.667969 16 "/>
</g>
<mask id="mask-2">
<g filter="url(#filter-remove-color)">
<rect x="-3.2" y="-3.2" width="38.4" height="38.4" fill="rgb(0%, 0%, 0%)" fill-opacity="0.3"/>
</g>
</mask>
<clipPath id="clip-2">
<rect x="0" y="0" width="32" height="32"/>
</clipPath>
<g id="source-15" clip-path="url(#clip-2)">
<path fill-rule="nonzero" fill="rgb(24.705882%, 24.705882%, 24.705882%)" fill-opacity="1" d="M 18.667969 24 C 18.667969 25.472656 17.472656 26.667969 16 26.667969 C 14.527344 26.667969 13.332031 25.472656 13.332031 24 C 13.332031 22.527344 14.527344 21.332031 16 21.332031 C 17.472656 21.332031 18.667969 22.527344 18.667969 24 Z M 18.667969 24 "/>
</g>
</defs>
<path fill-rule="evenodd" fill="rgb(24.705882%, 24.705882%, 24.705882%)" fill-opacity="1" d="M 16 2.667969 C 13.054688 2.667969 10.667969 5.054688 10.667969 8 L 10.667969 24 C 10.667969 26.945312 13.054688 29.332031 16 29.332031 C 18.945312 29.332031 21.332031 26.945312 21.332031 24 L 21.332031 8 C 21.332031 5.054688 18.945312 2.667969 16 2.667969 Z M 16 10.667969 C 17.472656 10.667969 18.667969 9.472656 18.667969 8 C 18.667969 6.527344 17.472656 5.332031 16 5.332031 C 14.527344 5.332031 13.332031 6.527344 13.332031 8 C 13.332031 9.472656 14.527344 10.667969 16 10.667969 Z M 16 18.667969 C 17.472656 18.667969 18.667969 17.472656 18.667969 16 C 18.667969 14.527344 17.472656 13.332031 16 13.332031 C 14.527344 13.332031 13.332031 14.527344 13.332031 16 C 13.332031 17.472656 14.527344 18.667969 16 18.667969 Z M 18.667969 24 C 18.667969 25.472656 17.472656 26.667969 16 26.667969 C 14.527344 26.667969 13.332031 25.472656 13.332031 24 C 13.332031 22.527344 14.527344 21.332031 16 21.332031 C 17.472656 21.332031 18.667969 22.527344 18.667969 24 Z M 18.667969 24 "/>
<g mask="url(#mask-0)">
<use xlink:href="#source-7"/>
</g>
<g mask="url(#mask-1)">
<use xlink:href="#source-11"/>
</g>
<g mask="url(#mask-2)">
<use xlink:href="#source-15"/>
</g>
</svg>
