<?xml version="1.0" encoding="UTF-8"?>
<svg xmlns="http://www.w3.org/2000/svg" xmlns:xlink="http://www.w3.org/1999/xlink" width="32" height="32" viewBox="0 0 32 32">
<defs>
<filter id="filter-remove-color" x="0%" y="0%" width="100%" height="100%">
<feColorMatrix color-interpolation-filters="sRGB" values="0 0 0 0 1 0 0 0 0 1 0 0 0 0 1 0 0 0 1 0" />
</filter>
<mask id="mask-0">
<g filter="url(#filter-remove-color)">
<rect x="-3.2" y="-3.2" width="38.4" height="38.4" fill="rgb(0%, 0%, 0%)" fill-opacity="0.3"/>
</g>
</mask>
<clipPath id="clip-0">
<rect x="0" y="0" width="32" height="32"/>
</clipPath>
<g id="source-7" clip-path="url(#clip-0)">
<path fill-rule="nonzero" fill="rgb(24.705882%, 24.705882%, 24.705882%)" fill-opacity="1" d="M 9.15625 10.261719 L 5.332031 16 L 5.332031 25.332031 C 5.332031 26.070312 5.929688 26.667969 6.667969 26.667969 L 25.332031 26.667969 C 25.40625 26.667969 25.476562 26.660156 25.546875 26.648438 Z M 9.15625 10.261719 "/>
<path fill-rule="nonzero" fill="rgb(24.705882%, 24.705882%, 24.705882%)" fill-opacity="1" d="M 26.667969 20.230469 L 26.667969 16 L 21.332031 8 L 14.4375 8 Z M 26.667969 20.230469 "/>
</g>
</defs>
<g mask="url(#mask-0)">
<use xlink:href="#source-7"/>
</g>
<path fill-rule="nonzero" fill="rgb(24.705882%, 24.705882%, 24.705882%)" fill-opacity="1" d="M 10.730469 12.617188 L 27.058594 28.941406 C 27.578125 29.464844 28.421875 29.464844 28.941406 28.941406 C 29.464844 28.421875 29.464844 27.578125 28.941406 27.058594 L 4.941406 3.058594 C 4.421875 2.535156 3.578125 2.535156 3.058594 3.058594 C 2.535156 3.578125 2.535156 4.421875 3.058594 4.941406 L 6.921875 8.808594 L 3.734375 11.199219 C 2.554688 12.082031 2.316406 13.753906 3.199219 14.933594 C 4.082031 16.113281 5.753906 16.351562 6.933594 15.464844 Z M 10.730469 12.617188 "/>
<path fill-rule="nonzero" fill="rgb(24.705882%, 24.705882%, 24.705882%)" fill-opacity="1" d="M 16 8.667969 L 15.488281 9.050781 L 11.679688 5.242188 L 16 2 L 28.265625 11.199219 C 29.445312 12.082031 29.683594 13.753906 28.800781 14.933594 C 27.917969 16.113281 26.246094 16.351562 25.066406 15.464844 Z M 16 8.667969 "/>
</svg>
