<?xml version="1.0" encoding="UTF-8"?>
<svg xmlns="http://www.w3.org/2000/svg" xmlns:xlink="http://www.w3.org/1999/xlink" width="12" height="12" viewBox="0 0 12 12" version="1.1">
<g id="surface1">
<path style=" stroke:none;fill-rule:evenodd;fill:rgb(100%,100%,100%);fill-opacity:1;" d="M 7.5 1.5 C 7.5 1.777344 7.277344 2 7 2 C 6.722656 2 6.5 1.777344 6.5 1.5 C 6.5 1.222656 6.722656 1 7 1 C 7.277344 1 7.5 1.222656 7.5 1.5 Z M 7.5 4.5 L 7.5 3.25 C 7.5 3.386719 7.613281 3.5 7.75 3.5 C 7.886719 3.5 8 3.386719 8 3.25 L 8 2.25 C 8 2.113281 7.886719 2 7.75 2 L 6.25 2 C 6.113281 2 6 2.113281 6 2.25 L 6 3.25 C 6 3.386719 6.113281 3.5 6.25 3.5 C 6.386719 3.5 6.5 3.386719 6.5 3.25 L 6.5 4.5 Z M 7.5 4.5 "/>
<path style=" stroke:none;fill-rule:evenodd;fill:rgb(100%,100%,100%);fill-opacity:1;" d="M 10.5 1.5 C 10.5 1.777344 10.277344 2 10 2 C 9.722656 2 9.5 1.777344 9.5 1.5 C 9.5 1.222656 9.722656 1 10 1 C 10.277344 1 10.5 1.222656 10.5 1.5 Z M 10.5 4.5 L 10.5 3.25 C 10.5 3.386719 10.613281 3.5 10.75 3.5 C 10.886719 3.5 11 3.386719 11 3.25 L 11 2.25 C 11 2.113281 10.886719 2 10.75 2 L 9.25 2 C 9.113281 2 9 2.113281 9 2.25 L 9 3.25 C 9 3.386719 9.113281 3.5 9.25 3.5 C 9.386719 3.5 9.5 3.386719 9.5 3.25 L 9.5 4.5 Z M 10.5 4.5 "/>
<path style=" stroke:none;fill-rule:nonzero;fill:rgb(100%,100%,100%);fill-opacity:1;" d="M 3 5.5 C 1.605469 5.5 0.5 6.601562 0.5 8 C 0.5 9.398438 1.601562 10.5 3 10.5 C 3.804688 10.5 4.550781 10.140625 5.027344 9.5 L 6.972656 9.5 C 7.449219 10.144531 8.195312 10.5 9 10.5 C 10.398438 10.5 11.5 9.398438 11.5 8 C 11.5 6.601562 10.394531 5.5 9 5.5 Z M 2.5 6.5 L 3.5 6.5 L 3.5 7.5 L 4.5 7.5 L 4.5 8.5 L 3.5 8.5 L 3.5 9.5 L 2.5 9.5 L 2.5 8.5 L 1.5 8.5 L 1.5 7.5 L 2.5 7.5 Z M 9 6.5 C 9.277344 6.5 9.5 6.722656 9.5 7 C 9.5 7.277344 9.277344 7.5 9 7.5 C 8.722656 7.5 8.5 7.277344 8.5 7 C 8.5 6.722656 8.722656 6.5 9 6.5 Z M 8 7.5 C 8.277344 7.5 8.5 7.722656 8.5 8 C 8.5 8.277344 8.277344 8.5 8 8.5 C 7.722656 8.5 7.5 8.277344 7.5 8 C 7.5 7.722656 7.722656 7.5 8 7.5 Z M 10 7.5 C 10.277344 7.5 10.5 7.722656 10.5 8 C 10.5 8.277344 10.277344 8.5 10 8.5 C 9.722656 8.5 9.5 8.277344 9.5 8 C 9.5 7.722656 9.722656 7.5 10 7.5 Z M 9 8.5 C 9.277344 8.5 9.5 8.722656 9.5 9 C 9.5 9.277344 9.277344 9.5 9 9.5 C 8.722656 9.5 8.5 9.277344 8.5 9 C 8.5 8.722656 8.722656 8.5 9 8.5 Z M 9 8.5 "/>
</g>
</svg>
