<?xml version="1.0" encoding="UTF-8"?>
<svg xmlns="http://www.w3.org/2000/svg" xmlns:xlink="http://www.w3.org/1999/xlink" width="32" height="32" viewBox="0 0 32 32">
<path fill-rule="nonzero" fill="rgb(100%, 100%, 100%)" fill-opacity="1" d="M 9.539062 26.125 L 16.355469 29.261719 C 16.355469 29.261719 17.15625 29.730469 18.492188 29.261719 L 29.519531 24.855469 C 29.519531 24.855469 31.097656 23.859375 29.09375 22.921875 L 21.03125 24.585938 L 17.492188 23.71875 L 22.835938 23.382812 C 22.835938 23.382812 24.574219 22.113281 22.902344 20.910156 L 17.292969 20.910156 C 17.292969 20.910156 14.820312 19.507812 11.210938 20.175781 L 2.457031 19.707031 L 2.457031 26.378906 C 5.054688 26.214844 8.484375 25.773438 9.539062 26.125 Z M 9.539062 26.125 "/>
<path fill-rule="nonzero" fill="rgb(100%, 100%, 100%)" fill-opacity="1" d="M 17.792969 19.265625 C 17.109375 18.910156 16.097656 18.625 15.679688 18.484375 L 14.78125 18.328125 L 14.78125 17.128906 L 21.601562 17.128906 L 21.601562 17.84375 C 21.601562 18.238281 21.566406 18.730469 21.523438 18.941406 L 21.449219 19.320312 L 19.847656 19.3125 C 18.582031 19.304688 18.460938 19.34375 17.792969 19.265625 Z M 14.75 13.238281 C 14.726562 11.488281 14.683594 11.070312 14.535156 10.976562 C 14.402344 10.890625 13.78125 11.183594 12.171875 12.101562 C 10.972656 12.78125 9.851562 13.390625 9.683594 13.453125 C 9.101562 13.675781 8.445312 13.160156 8.445312 12.480469 C 8.445312 12.09375 9.070312 11.675781 12.457031 9.792969 L 15.800781 7.933594 L 16.355469 8.207031 C 16.757812 8.410156 17.199219 8.5 17.953125 8.539062 C 18.867188 8.585938 19.09375 8.554688 19.769531 8.28125 C 20.386719 8.035156 20.59375 7.996094 20.796875 8.105469 C 22.222656 8.851562 27.542969 11.945312 27.65625 12.089844 C 28.082031 12.636719 27.527344 13.636719 26.855469 13.539062 C 26.671875 13.511719 25.460938 12.890625 24.167969 12.160156 C 21.9375 10.90625 21.804688 10.847656 21.644531 11.0625 C 21.519531 11.238281 21.476562 11.796875 21.476562 13.339844 L 21.476562 15.386719 L 14.785156 15.386719 Z M 17.46875 6.882812 C 16.21875 6.539062 15.445312 5.527344 15.445312 4.234375 C 15.441406 3.140625 15.953125 2.300781 16.921875 1.820312 C 17.398438 1.578125 17.582031 1.539062 18.183594 1.539062 C 18.761719 1.539062 18.964844 1.582031 19.332031 1.773438 C 20.339844 2.304688 20.878906 3.164062 20.875 4.234375 C 20.863281 6.046875 19.183594 7.351562 17.46875 6.882812 Z M 17.46875 6.882812 "/>
</svg>
