<?xml version="1.0" encoding="UTF-8"?>
<svg xmlns="http://www.w3.org/2000/svg" xmlns:xlink="http://www.w3.org/1999/xlink" width="32" height="32" viewBox="0 0 32 32">
<path fill-rule="nonzero" fill="rgb(24.705882%, 24.705882%, 24.705882%)" fill-opacity="1" d="M 16 8 C 16 9.472656 14.804688 10.667969 13.332031 10.667969 C 11.859375 10.667969 10.667969 9.472656 10.667969 8 C 10.667969 6.527344 11.859375 5.332031 13.332031 5.332031 C 14.804688 5.332031 16 6.527344 16 8 Z M 16 8 "/>
<path fill-rule="nonzero" fill="rgb(24.705882%, 24.705882%, 24.705882%)" fill-opacity="1" d="M 15.988281 13.078125 C 15.859375 11.726562 14.71875 10.667969 13.332031 10.667969 C 11.859375 10.667969 10.667969 11.859375 10.667969 13.332031 L 10.667969 19.730469 L 9.386719 21.332031 L 5.332031 21.332031 C 3.859375 21.332031 2.667969 22.527344 2.667969 24 C 2.667969 25.472656 3.859375 26.667969 5.332031 26.667969 L 11.949219 26.667969 L 22.613281 13.332031 L 26.667969 13.332031 C 28.140625 13.332031 29.332031 12.140625 29.332031 10.667969 C 29.332031 9.195312 28.140625 8 26.667969 8 L 20.050781 8 Z M 15.988281 13.078125 "/>
</svg>
