<?xml version="1.0" encoding="UTF-8"?>
<svg xmlns="http://www.w3.org/2000/svg" xmlns:xlink="http://www.w3.org/1999/xlink" width="32" height="32" viewBox="0 0 32 32">
<path fill-rule="evenodd" fill="rgb(100%, 100%, 100%)" fill-opacity="1" stroke-width="1" stroke-linecap="butt" stroke-linejoin="miter" stroke="rgb(0%, 0%, 0%)" stroke-opacity="1" stroke-miterlimit="4" d="M 343.879395 167.089844 L 330.427246 188.825684 L 307.487793 169.567871 L 307.487793 415.246582 L 544.599609 415.246582 L 528.103027 328.161621 L 508.632812 341.188965 L 492.13623 312.939453 L 483.144531 291.132812 L 453.195801 273.71582 L 460.700684 243.271484 L 432.23877 210.561523 L 403.776855 201.923828 L 397.82959 219.27002 L 369.367676 191.020508 Z M 225.571289 175.79834 L 212.119141 206.242676 L 161.142578 208.4375 L 149.177246 245.395508 L 108.75 262.8125 L 96.784668 299.841309 L 56.357422 328.161621 L 50.339355 369.509277 L 35.32959 382.536621 L 41.347656 415.246582 L 272.512207 415.246582 L 272.512207 181.179199 L 270.529785 182.312012 Z M 225.571289 175.79834 " transform="matrix(0.0551724, 0, 0, 0.0551724, 0, 0)"/>
</svg>
