<svg width="12" height="12" viewBox="0 0 580 580" fill="none" xmlns="http://www.w3.org/2000/svg">
<path d="M316.533 201.34L309.752 299.132" stroke="#ffffff" stroke-width="96.5396" stroke-linecap="round" stroke-linejoin="round"/>
<path d="M399.319 49.0552L379.5 117.842L345.959 181.047" stroke="#ffffff" stroke-width="42.415" stroke-linecap="round" stroke-linejoin="round"/>
<path d="M363.14 516.578L322.278 428.485" stroke="#ffffff" stroke-width="53.7343" stroke-linecap="round" stroke-linejoin="round"/>
<path d="M326.287 309.108L322.005 421.701" stroke="#ffffff" stroke-width="58.6784" stroke-linecap="round" stroke-linejoin="round"/>
<path d="M292.524 302.925L246.902 405.712" stroke="#ffffff" stroke-width="58.6784" stroke-linecap="round" stroke-linejoin="round"/>
<path d="M219.142 520.865L246.143 411.358" stroke="#ffffff" stroke-width="58.9466" stroke-linecap="round" stroke-linejoin="round"/>
<path d="M306.141 95.1059C293.87 95.6626 289.039 113.361 299.189 120.111C308.433 127.736 323.737 118.494 321.226 106.694C320.117 99.6204 313.286 94.3073 306.141 95.1059Z" fill="#ffffff" stroke="#ffffff" stroke-width="58.6784" stroke-linecap="round" stroke-linejoin="round"/>
<path d="M200.328 290.78L256.255 242.509L291.943 182.471" stroke="#ffffff" stroke-width="42.415" stroke-linecap="round" stroke-linejoin="round"/>
<g opacity="0.496094">
<path opacity="0.496094" d="M137.854 123.93C127.464 124.402 123.373 139.386 131.967 145.101C139.794 151.557 152.751 143.733 150.625 133.741C149.687 127.752 143.903 123.254 137.854 123.93Z" fill="#ffffff" stroke="#ffffff" stroke-width="49.6816" stroke-linecap="round" stroke-linejoin="round"/>
<path opacity="0.496094" fill-rule="evenodd" clip-rule="evenodd" d="M101.833 88.3469C105.732 79.2289 101.501 68.6764 92.3835 64.7771C83.2655 60.8778 72.7129 65.1084 68.8136 74.2264L42.0395 136.834C38.9101 144.152 40.9713 152.657 47.1037 157.73L98.3338 200.11C97.7168 201.573 97.1784 203.086 96.7249 204.648L73.6241 284.191C73.4038 284.949 73.2066 285.709 73.0318 286.469C72.0369 288.023 71.2007 289.713 70.5531 291.524L40.6062 375.296C39.7943 377.567 39.3331 379.879 39.1946 382.171C38.7011 384.079 38.4273 386.077 38.4024 388.137L37.2401 484.109C37.0733 497.889 48.1096 509.196 61.8905 509.363C75.6713 509.53 86.9782 498.494 87.1451 484.713L88.2985 389.474L107.381 336.093C110.271 336.488 113.151 336.567 115.98 336.351L146.796 396.323L139.748 478.845C138.679 491.362 147.96 502.377 160.477 503.446C172.995 504.515 184.009 495.234 185.079 482.716L192.527 395.513C195.148 389.045 195.044 381.515 191.603 374.819L153.791 301.23L175.219 227.444C176.606 222.668 177.083 217.843 176.75 213.156C178.988 212.181 181.062 210.731 182.816 208.814L229.239 158.063C234.133 152.713 235.329 144.944 232.27 138.37L202.223 73.779C198.04 64.7875 187.361 60.8893 178.369 65.0721C169.378 69.2548 165.479 79.9347 169.662 88.9261L194.659 142.66L158.646 182.03C155.262 179.776 151.482 177.993 147.37 176.799C140.148 174.701 132.815 174.687 126.014 176.402L80.336 138.614L101.833 88.3469Z" fill="#ffffff"/>
</g>
<g opacity="0.496094">
<path opacity="0.496094" d="M489.557 121.76C479.167 122.232 475.076 137.216 483.67 142.931C491.497 149.387 504.454 141.563 502.328 131.571C501.39 125.583 495.606 121.084 489.557 121.76Z" fill="#ffffff" stroke="#ffffff" stroke-width="49.6816" stroke-linecap="round" stroke-linejoin="round"/>
<path opacity="0.496094" fill-rule="evenodd" clip-rule="evenodd" d="M501.074 174.629C503.737 175.402 506.261 176.423 508.628 177.658C516.685 177.898 523.848 183.58 525.629 191.812L526.624 196.409C529.267 201.993 530.657 208.188 530.549 214.545L535.381 236.868L552.719 259.095C558.818 266.915 557.424 278.198 549.604 284.297C541.785 290.396 530.502 289.002 524.403 281.183L515.865 270.238L507.494 299.06L545.307 372.649C548.747 379.344 548.852 386.874 546.23 393.343L538.782 480.547C537.713 493.064 526.699 502.345 514.181 501.276C501.663 500.207 492.383 489.193 493.452 476.675L500.5 394.153L470.408 335.59L467.458 388.301C467.387 389.572 467.221 390.815 466.969 392.024C466.953 393.109 466.866 394.206 466.705 395.309L453.608 484.771C451.612 498.407 438.939 507.843 425.302 505.847C411.666 503.851 402.229 491.178 404.226 477.541L417.323 388.079C417.456 387.172 417.636 386.283 417.86 385.415L422.846 296.328C423.095 291.892 424.492 287.793 426.734 284.304C426.909 283.542 427.107 282.781 427.328 282.021L440.61 236.287L421.926 246.462C414.138 250.703 404.42 248.624 399.049 241.567L376.999 212.594C370.994 204.702 372.522 193.436 380.414 187.431C388.305 181.425 399.571 182.954 405.577 190.845L418.29 207.55L462.137 183.671C472.305 174.418 486.903 170.513 501.074 174.629Z" fill="#ffffff"/>
</g>
</svg>
