<?xml version="1.0" encoding="UTF-8"?>
<svg xmlns="http://www.w3.org/2000/svg" xmlns:xlink="http://www.w3.org/1999/xlink" width="12" height="12" viewBox="0 0 12 12" version="1.1">
<g id="surface1">
<path style=" stroke:none;fill-rule:evenodd;fill:rgb(100%,100%,100%);fill-opacity:1;" d="M 1 2 C 1 1.449219 1.449219 1 2 1 L 6 1 C 6.550781 1 7 1.449219 7 2 L 7 6 L 7.5 6 C 8.328125 6 9 6.671875 9 7.5 L 9 9.5 C 9 9.777344 9.222656 10 9.5 10 C 9.777344 10 10 9.777344 10 9.5 L 10 7.804688 C 10 7.703125 9.972656 7.609375 9.917969 7.527344 L 9.25 6.527344 C 9.085938 6.28125 9 5.992188 9 5.695312 L 9 5 L 8.5 5 C 7.949219 5 7.5 4.550781 7.5 4 L 7.5 2.5 L 8 2.5 L 8 1.5 C 8 1.222656 8.222656 1 8.5 1 C 8.777344 1 9 1.222656 9 1.5 L 9 2.5 L 10 2.5 L 10 1.5 C 10 1.222656 10.222656 1 10.5 1 C 10.777344 1 11 1.222656 11 1.5 L 11 2.5 L 11.5 2.5 L 11.5 4 C 11.5 4.550781 11.050781 5 10.5 5 L 10 5 L 10 5.695312 C 10 5.796875 10.027344 5.890625 10.082031 5.972656 L 10.75 6.972656 C 10.914062 7.21875 11 7.507812 11 7.804688 L 11 9.5 C 11 10.328125 10.328125 11 9.5 11 C 8.671875 11 8 10.328125 8 9.5 L 8 7.5 C 8 7.222656 7.777344 7 7.5 7 L 7 7 L 7 11 L 1 11 Z M 5 3 L 2.5 3 L 2 6 L 3.75 6 L 3 9 L 6 5 L 4.332031 5 Z M 5 3 "/>
</g>
</svg>
