<?xml version="1.0" encoding="UTF-8"?>
<svg xmlns="http://www.w3.org/2000/svg" xmlns:xlink="http://www.w3.org/1999/xlink" width="32" height="32" viewBox="0 0 32 32">
<path fill-rule="nonzero" fill="rgb(100%, 100%, 100%)" fill-opacity="1" d="M 14.21875 6.808594 C 14.21875 6.207031 14.414062 5.714844 14.800781 5.332031 C 15.191406 4.949219 15.691406 4.757812 16.300781 4.757812 C 16.953125 4.757812 17.5 4.960938 17.929688 5.367188 C 18.363281 5.773438 18.582031 6.230469 18.582031 6.742188 C 18.582031 7.117188 18.496094 7.496094 18.324219 7.871094 C 18.152344 8.25 17.878906 8.550781 17.507812 8.78125 C 17.136719 9.007812 16.753906 9.121094 16.367188 9.121094 C 15.835938 9.121094 15.34375 8.894531 14.894531 8.4375 C 14.445312 7.984375 14.21875 7.441406 14.21875 6.808594 Z M 11.890625 26.664062 L 11.855469 25.582031 L 13.738281 25.332031 C 14.015625 25.257812 14.207031 25.140625 14.3125 24.992188 C 14.417969 24.84375 14.46875 24.507812 14.46875 23.984375 L 14.46875 23.800781 C 14.46875 23.667969 14.476562 23.425781 14.492188 23.078125 C 14.511719 22.730469 14.519531 22.421875 14.519531 22.152344 C 14.519531 21.945312 14.503906 21.539062 14.46875 20.9375 L 14.484375 20.105469 L 14.46875 19.324219 L 14.503906 16.609375 C 14.503906 16.265625 14.46875 15.914062 14.402344 15.546875 C 14.28125 15.378906 14.058594 15.234375 13.738281 15.113281 C 13.414062 14.992188 12.855469 14.902344 12.054688 14.847656 L 12.054688 13.914062 C 13.199219 13.847656 14.203125 13.609375 15.066406 13.199219 C 15.65625 12.933594 16.292969 12.460938 16.984375 11.785156 L 18.097656 11.785156 C 18.140625 13.160156 18.164062 14.945312 18.164062 17.144531 L 18.046875 23.933594 C 18.046875 24.402344 18.070312 24.824219 18.113281 25.199219 C 18.457031 25.324219 19.019531 25.445312 19.796875 25.566406 C 20.09375 25.609375 20.332031 25.667969 20.511719 25.734375 L 20.496094 26.648438 C 20.195312 26.660156 19.972656 26.664062 19.828125 26.664062 C 19.664062 26.664062 19.40625 26.652344 19.0625 26.632812 C 17.929688 26.578125 16.417969 26.546875 14.519531 26.546875 C 13.976562 26.546875 13.449219 26.566406 12.9375 26.605469 C 12.425781 26.644531 12.078125 26.664062 11.890625 26.664062 Z M 11.890625 26.664062 "/>
</svg>
