<svg xmlns="http://www.w3.org/2000/svg" width="12" height="12" viewBox="0 0 48 48" version="1.1" id="svg8" style="fill:none"><path style="clip-rule:evenodd;fill:#fff;fill-opacity:1;fill-rule:evenodd" d="M34 4a2 2 0 1 1-4 0 2 2 0 0 1 4 0zm0 12v-5a1 1 0 1 0 2 0V7a1 1 0 0 0-1-1h-6a1 1 0 0 0-1 1v4a1 1 0 1 0 2 0v5z" id="path8-3"/><path style="clip-rule:evenodd;fill:#fff;fill-opacity:1;fill-rule:evenodd" d="M44 4a2 2 0 1 1-4 0 2 2 0 0 1 4 0zm0 12v-5a1 1 0 1 0 2 0V7a1 1 0 0 0-1-1h-6a1 1 0 0 0-1 1v4a1 1 0 1 0 2 0v5z" id="path8-6"/><path style="fill:#fff;fill-opacity:1;stroke-width:.99999994" d="M20 12L2 34h18z" id="path860"/><path style="fill:#fff;fill-opacity:1;stroke-width:.99999994" d="M22 34h12c0-4-1.92-8.28-4-10.9-2.02-2.6-5.22-5.79-8-7.1z" id="path858"/><path style="fill:#fff;fill-opacity:1;stroke-width:.99999994" d="M6 36v4c.59 0 1.55.66 2 1.03.46.36 1.52.97 2 .97s1.15-.33 2.01-1c.86-.66 1.52-.99 1.98-.99.48 0 1.15.33 2.01 1 .86.66 1.52.99 1.98.99.48 0 1.15-.33 2-1 .87-.66 1.54-.99 2.02-.99.46 0 1.12.33 1.98 1 .86.66 1.32.99 2.01.99.7 0 1.56-.55 2-.93.7-.6 1.3-1.03 2.01-1.07l4-4z" id="path2-3"/><path style="fill:#fff;fill-opacity:1;stroke-width:.99999994" d="M22 42c-.7.04-1.3.47-2.01 1.07-.44.38-1.3.93-2 .93s-1.15-.33-2.01-1c-.86-.66-1.52-.99-1.98-.99-.48 0-1.15.33-2.01 1-.86.66-1.53.99-2.01.99-.46 0-1.12-.33-1.98-1-.86-.66-1.53-.99-2.01-.99-.46 0-1.12.33-1.98 1-.86.66-1.53.99-2.01.99v2c.48 0 1.15-.33 2.01-1 .86-.66 1.52-.99 1.98-.99.48 0 1.15.33 2.01 1 .86.66 1.52.99 1.98.99.48 0 1.15-.33 2.01-1 .86-.66 1.53-.99 2.01-.99.46 0 1.12.33 1.98 1 .86.66 1.32.99 2.01.99.7 0 1.56-.55 2-.93.7-.6 1.3-1.03 2.01-1.07z" id="path2-3-5"/><path style="fill:#fff;fill-opacity:1;stroke-width:.99999994" d="M38 42c-.7.04-1.3.47-2.01 1.07-.44.38-1.3.93-2 .93s-1.15-.33-2.01-1c-.86-.66-1.52-.99-1.98-.99-.48 0-1.15.33-2.01 1-.86.66-1.53.99-2.01.99-.46 0-1.12-.33-1.98-1-.86-.66-1.53-.99-2.01-.99-.46 0-1.12.33-1.98 1-.86.66-1.53.99-2.01.99a5 5 0 0 1-2-.97c-.45-.37-1.41-1.03-2-1.03v2c.59 0 1.55.66 2 1.03.46.36 1.52.97 2 .97s1.15-.33 2.01-1c.86-.66 1.52-.99 1.98-.99.48 0 1.15.33 2.01 1 .86.66 1.52.99 1.98.99.48 0 1.15-.33 2.01-1 .86-.66 1.53-.99 2.01-.99.46 0 1.12.33 1.98 1 .86.66 1.32.99 2.01.99.7 0 1.56-.55 2-.93.7-.6 1.3-1.03 2.01-1.07v-2z" id="path2-3-5-5"/></svg>
