<?xml version="1.0" encoding="UTF-8"?>
<svg xmlns="http://www.w3.org/2000/svg" xmlns:xlink="http://www.w3.org/1999/xlink" width="12" height="12" viewBox="0 0 12 12" version="1.1">
<g id="surface1">
<path style=" stroke:none;fill-rule:evenodd;fill:rgb(100%,100%,100%);fill-opacity:1;" d="M 7.5 1.5 C 7.5 1.777344 7.277344 2 7 2 C 6.722656 2 6.5 1.777344 6.5 1.5 C 6.5 1.222656 6.722656 1 7 1 C 7.277344 1 7.5 1.222656 7.5 1.5 Z M 7.5 4.5 L 7.5 3.25 C 7.5 3.386719 7.613281 3.5 7.75 3.5 C 7.886719 3.5 8 3.386719 8 3.25 L 8 2.25 C 8 2.113281 7.886719 2 7.75 2 L 6.25 2 C 6.113281 2 6 2.113281 6 2.25 L 6 3.25 C 6 3.386719 6.113281 3.5 6.25 3.5 C 6.386719 3.5 6.5 3.386719 6.5 3.25 L 6.5 4.5 Z M 7.5 4.5 "/>
<path style=" stroke:none;fill-rule:evenodd;fill:rgb(100%,100%,100%);fill-opacity:1;" d="M 10.5 1.5 C 10.5 1.777344 10.277344 2 10 2 C 9.722656 2 9.5 1.777344 9.5 1.5 C 9.5 1.222656 9.722656 1 10 1 C 10.277344 1 10.5 1.222656 10.5 1.5 Z M 10.5 4.5 L 10.5 3.25 C 10.5 3.386719 10.613281 3.5 10.75 3.5 C 10.886719 3.5 11 3.386719 11 3.25 L 11 2.25 C 11 2.113281 10.886719 2 10.75 2 L 9.25 2 C 9.113281 2 9 2.113281 9 2.25 L 9 3.25 C 9 3.386719 9.113281 3.5 9.25 3.5 C 9.386719 3.5 9.5 3.386719 9.5 3.25 L 9.5 4.5 Z M 10.5 4.5 "/>
<path style=" stroke:none;fill-rule:nonzero;fill:rgb(100%,100%,100%);fill-opacity:1;" d="M 4 4.5 C 4.550781 4.5 5 4.050781 5 3.5 C 5 2.949219 4.550781 2.5 4 2.5 C 3.449219 2.5 3 2.949219 3 3.5 C 3 4.050781 3.449219 4.5 4 4.5 Z M 4 4.5 "/>
<path style=" stroke:none;fill-rule:nonzero;fill:rgb(100%,100%,100%);fill-opacity:1;" d="M 1.871094 11 L 2.878906 11 L 3.21875 8.746094 L 3.777344 9.121094 C 3.917969 9.210938 4 9.367188 4 9.535156 L 4 11 L 5 11 L 5 9.535156 C 5 9.03125 4.75 8.5625 4.332031 8.285156 L 3.871094 7.976562 L 4.085938 6.902344 C 4.496094 7.285156 5.039062 7.5 5.601562 7.5 L 6 7.5 L 6 11 L 7 11 L 7 6 C 7 5.722656 6.777344 5.5 6.5 5.5 C 6.222656 5.5 6 5.722656 6 6 L 6 6.5 L 5.601562 6.5 C 5.125 6.5 4.6875 6.222656 4.488281 5.789062 L 4.363281 5.519531 C 4.195312 5.160156 3.8125 4.949219 3.417969 5.007812 C 3.023438 5.0625 2.710938 5.375 2.65625 5.765625 Z M 1.871094 11 "/>
<path style=" stroke:none;fill-rule:nonzero;fill:rgb(100%,100%,100%);fill-opacity:1;" d="M 2.160156 5.691406 C 2.199219 5.429688 2.308594 5.191406 2.472656 5 L 2.144531 5 C 2.050781 5 1.960938 5.039062 1.898438 5.101562 C 1.632812 5.367188 1.414062 5.671875 1.25 6.007812 L 1 6.5 C 0.722656 6.5 0.5 6.722656 0.5 7 L 0.5 7.636719 C 0.5 7.859375 0.625 8.0625 0.824219 8.164062 C 1.113281 8.308594 1.425781 8.40625 1.746094 8.460938 Z M 2.160156 5.691406 "/>
</g>
</svg>
