<?xml version="1.0" encoding="UTF-8"?>
<svg xmlns="http://www.w3.org/2000/svg" xmlns:xlink="http://www.w3.org/1999/xlink" width="12" height="12" viewBox="0 0 12 12" version="1.1">
<g id="surface1">
<path style=" stroke:none;fill-rule:nonzero;fill:rgb(24.705882%,24.705882%,24.705882%);fill-opacity:1;" d="M 1 1 L 1 6.886719 C 1 7.582031 1.367188 8.191406 1.902344 8.5 C 1.597656 8.664062 1.238281 8.714844 1 8.714844 L 1 9.527344 C 1.636719 9.527344 1.898438 9.363281 2.125 9.160156 C 2.460938 9.445312 2.949219 9.527344 3.25 9.527344 C 3.550781 9.527344 4.039062 9.445312 4.375 9.160156 C 4.710938 9.445312 5.199219 9.527344 5.5 9.527344 C 5.800781 9.527344 6.289062 9.445312 6.625 9.160156 C 6.960938 9.445312 7.449219 9.527344 7.75 9.527344 C 8.050781 9.527344 8.539062 9.445312 8.875 9.160156 C 9.210938 9.445312 9.699219 9.527344 10 9.527344 L 10 8.714844 C 9.761719 8.714844 9.402344 8.664062 9.097656 8.5 C 9.632812 8.191406 10 7.582031 10 6.886719 L 10 6.683594 L 1.75 6.683594 L 1.75 4.425781 L 2.769531 3.320312 L 2.875 3.195312 L 2.875 1 Z M 1.75 1.8125 L 2.125 1.8125 L 2.125 2.851562 L 1.75 3.257812 Z M 2.125 9.820312 C 1.789062 10.105469 1.300781 10.1875 1 10.1875 L 1 11 C 1.636719 11 1.898438 10.835938 2.125 10.632812 C 2.460938 10.917969 2.949219 11 3.25 11 C 3.550781 11 4.039062 10.917969 4.375 10.632812 C 4.710938 10.917969 5.199219 11 5.5 11 C 5.800781 11 6.289062 10.917969 6.625 10.632812 C 6.960938 10.917969 7.449219 11 7.75 11 C 8.050781 11 8.539062 10.917969 8.875 10.632812 C 9.210938 10.917969 9.699219 11 10 11 L 10 10.1875 C 9.699219 10.1875 9.210938 10.105469 8.875 9.820312 C 8.539062 10.105469 8.050781 10.1875 7.75 10.1875 C 7.449219 10.1875 6.960938 10.105469 6.625 9.820312 C 6.289062 10.105469 5.800781 10.1875 5.5 10.1875 C 5.199219 10.1875 4.710938 10.105469 4.375 9.820312 C 4.039062 10.105469 3.550781 10.1875 3.25 10.1875 C 2.949219 10.1875 2.460938 10.105469 2.125 9.820312 Z M 2.125 9.820312 "/>
<path style=" stroke:none;fill-rule:nonzero;fill:rgb(24.705882%,24.705882%,24.705882%);fill-opacity:1;" d="M 5.503906 1.953125 C 5.660156 1.953125 5.796875 1.90625 5.90625 1.8125 C 6.019531 1.71875 6.078125 1.605469 6.078125 1.476562 C 6.078125 1.34375 6.019531 1.226562 5.90625 1.136719 C 5.796875 1.046875 5.660156 1 5.503906 1 C 5.351562 1 5.214844 1.046875 5.101562 1.136719 C 4.988281 1.226562 4.933594 1.34375 4.933594 1.476562 C 4.933594 1.605469 4.988281 1.71875 5.101562 1.8125 C 5.214844 1.90625 5.351562 1.953125 5.503906 1.953125 Z M 6.257812 2.183594 L 4.742188 2.183594 C 4.539062 2.183594 4.363281 2.242188 4.21875 2.363281 C 4.074219 2.484375 4 2.632812 4 2.808594 L 4 4.277344 C 4 4.417969 4.078125 4.488281 4.234375 4.488281 C 4.382812 4.488281 4.457031 4.417969 4.457031 4.277344 L 4.457031 2.84375 L 4.730469 2.84375 L 4.730469 6.734375 C 4.730469 6.910156 4.835938 7 5.050781 7 C 5.261719 7 5.367188 6.910156 5.367188 6.734375 L 5.367188 4.480469 L 5.644531 4.480469 L 5.644531 6.734375 C 5.644531 6.910156 5.75 7 5.960938 7 C 6.179688 7 6.289062 6.910156 6.289062 6.734375 L 6.289062 2.84375 L 6.554688 2.84375 L 6.554688 4.277344 C 6.554688 4.425781 6.628906 4.5 6.777344 4.5 C 6.925781 4.5 7 4.425781 7 4.277344 L 7 2.820312 C 7 2.648438 6.929688 2.5 6.792969 2.371094 C 6.65625 2.246094 6.476562 2.183594 6.257812 2.183594 Z M 6.257812 2.183594 "/>
<path style=" stroke:none;fill-rule:nonzero;fill:rgb(24.705882%,24.705882%,24.705882%);fill-opacity:1;" d="M 9.503906 1.953125 C 9.660156 1.953125 9.796875 1.90625 9.90625 1.8125 C 10.019531 1.71875 10.078125 1.605469 10.078125 1.476562 C 10.078125 1.34375 10.019531 1.226562 9.90625 1.136719 C 9.796875 1.046875 9.660156 1 9.503906 1 C 9.351562 1 9.214844 1.046875 9.101562 1.136719 C 8.988281 1.226562 8.933594 1.34375 8.933594 1.476562 C 8.933594 1.605469 8.988281 1.71875 9.101562 1.8125 C 9.214844 1.90625 9.351562 1.953125 9.503906 1.953125 Z M 10.257812 2.183594 L 8.742188 2.183594 C 8.539062 2.183594 8.363281 2.242188 8.21875 2.363281 C 8.074219 2.484375 8 2.632812 8 2.808594 L 8 4.277344 C 8 4.417969 8.078125 4.488281 8.234375 4.488281 C 8.382812 4.488281 8.457031 4.417969 8.457031 4.277344 L 8.457031 2.84375 L 8.730469 2.84375 L 8.730469 6.734375 C 8.730469 6.910156 8.835938 7 9.050781 7 C 9.261719 7 9.367188 6.910156 9.367188 6.734375 L 9.367188 4.480469 L 9.644531 4.480469 L 9.644531 6.734375 C 9.644531 6.910156 9.75 7 9.960938 7 C 10.179688 7 10.289062 6.910156 10.289062 6.734375 L 10.289062 2.84375 L 10.554688 2.84375 L 10.554688 4.277344 C 10.554688 4.425781 10.628906 4.5 10.777344 4.5 C 10.925781 4.5 11 4.425781 11 4.277344 L 11 2.820312 C 11 2.648438 10.929688 2.5 10.792969 2.371094 C 10.65625 2.246094 10.476562 2.183594 10.257812 2.183594 Z M 10.257812 2.183594 "/>
</g>
</svg>
