<?xml version="1.0" encoding="UTF-8"?>
<svg xmlns="http://www.w3.org/2000/svg" xmlns:xlink="http://www.w3.org/1999/xlink" width="12" height="12" viewBox="0 0 12 12" version="1.1">
<g id="surface1">
<path style=" stroke:none;fill-rule:evenodd;fill:rgb(100%,100%,100%);fill-opacity:1;" d="M 7.5 1 C 7.5 1.277344 7.277344 1.5 7 1.5 C 6.722656 1.5 6.5 1.277344 6.5 1 C 6.5 0.722656 6.722656 0.5 7 0.5 C 7.277344 0.5 7.5 0.722656 7.5 1 Z M 7.5 4 L 7.5 2.75 C 7.5 2.886719 7.613281 3 7.75 3 C 7.886719 3 8 2.886719 8 2.75 L 8 1.75 C 8 1.613281 7.886719 1.5 7.75 1.5 L 6.25 1.5 C 6.113281 1.5 6 1.613281 6 1.75 L 6 2.75 C 6 2.886719 6.113281 3 6.25 3 C 6.386719 3 6.5 2.886719 6.5 2.75 L 6.5 4 Z M 7.5 4 "/>
<path style=" stroke:none;fill-rule:evenodd;fill:rgb(100%,100%,100%);fill-opacity:1;" d="M 6.5 5 C 6.222656 5 6 5.222656 6 5.5 C 6 5.777344 6.222656 6 6.5 6 L 7 6 L 7 7 L 4.707031 7 L 4.675781 6.96875 C 4.898438 6.882812 5.03125 6.648438 4.988281 6.410156 C 4.945312 6.175781 4.742188 6 4.5 6 L 3.5 6 C 3.296875 6 3.117188 6.121094 3.039062 6.308594 C 2.964844 6.496094 3.003906 6.710938 3.148438 6.851562 L 3.890625 7.597656 L 3.683594 8.011719 C 2.90625 7.914062 2.179688 8.4375 2.027344 9.210938 C 1.875 9.980469 2.34375 10.738281 3.105469 10.949219 C 3.863281 11.15625 4.652344 10.742188 4.914062 10 L 7.085938 10 C 7.347656 10.742188 8.136719 11.15625 8.894531 10.949219 C 9.65625 10.738281 10.125 9.980469 9.972656 9.210938 C 9.820312 8.4375 9.09375 7.914062 8.316406 8.011719 L 8 7.382812 L 8 5.5 C 8 5.222656 7.777344 5 7.5 5 Z M 4.914062 9 C 4.84375 8.796875 4.730469 8.613281 4.578125 8.457031 L 4.808594 8 L 7.191406 8 L 7.421875 8.457031 C 7.269531 8.613281 7.15625 8.796875 7.085938 9 Z M 4 9.5 C 4 9.777344 3.777344 10 3.5 10 C 3.222656 10 3 9.777344 3 9.5 C 3 9.222656 3.222656 9 3.5 9 C 3.777344 9 4 9.222656 4 9.5 Z M 9 9.5 C 9 9.777344 8.777344 10 8.5 10 C 8.222656 10 8 9.777344 8 9.5 C 8 9.222656 8.222656 9 8.5 9 C 8.777344 9 9 9.222656 9 9.5 Z M 9 9.5 "/>
<path style=" stroke:none;fill-rule:evenodd;fill:rgb(100%,100%,100%);fill-opacity:1;" d="M 10.5 1 C 10.5 1.277344 10.277344 1.5 10 1.5 C 9.722656 1.5 9.5 1.277344 9.5 1 C 9.5 0.722656 9.722656 0.5 10 0.5 C 10.277344 0.5 10.5 0.722656 10.5 1 Z M 10.5 4 L 10.5 2.75 C 10.5 2.886719 10.613281 3 10.75 3 C 10.886719 3 11 2.886719 11 2.75 L 11 1.75 C 11 1.613281 10.886719 1.5 10.75 1.5 L 9.25 1.5 C 9.113281 1.5 9 1.613281 9 1.75 L 9 2.75 C 9 2.886719 9.113281 3 9.25 3 C 9.386719 3 9.5 2.886719 9.5 2.75 L 9.5 4 Z M 10.5 4 "/>
</g>
</svg>
