<?xml version="1.0" encoding="UTF-8"?>
<svg xmlns="http://www.w3.org/2000/svg" xmlns:xlink="http://www.w3.org/1999/xlink" width="12" height="12" viewBox="0 0 12 12" version="1.1">
<g id="surface1">
<path style=" stroke:none;fill-rule:nonzero;fill:rgb(100%,100%,100%);fill-opacity:1;" d="M 6.472656 3.558594 C 6.472656 3.445312 6.382812 3.355469 6.269531 3.355469 L 5.574219 3.355469 L 5.9375 2.847656 C 5.960938 2.808594 5.972656 2.769531 5.972656 2.726562 C 5.972656 2.664062 5.945312 2.601562 5.886719 2.5625 C 5.796875 2.496094 5.667969 2.515625 5.605469 2.609375 L 5.074219 3.355469 L 3.957031 3.355469 L 4.523438 2.394531 L 5.4375 2.316406 C 5.542969 2.304688 5.625 2.21875 5.625 2.113281 C 5.625 2.105469 5.625 2.101562 5.625 2.09375 C 5.613281 1.980469 5.515625 1.898438 5.402344 1.910156 L 4.78125 1.960938 L 5.132812 1.363281 C 5.152344 1.332031 5.164062 1.292969 5.164062 1.257812 C 5.164062 1.1875 5.125 1.121094 5.0625 1.082031 C 4.964844 1.027344 4.839844 1.058594 4.78125 1.15625 L 4.429688 1.753906 L 4.175781 1.183594 C 4.128906 1.078125 4.007812 1.035156 3.90625 1.078125 C 3.804688 1.125 3.757812 1.246094 3.800781 1.347656 L 4.175781 2.1875 L 3.601562 3.152344 L 3.039062 2.179688 L 3.417969 1.34375 C 3.429688 1.316406 3.433594 1.289062 3.433594 1.261719 C 3.433594 1.183594 3.390625 1.109375 3.316406 1.074219 C 3.210938 1.027344 3.089844 1.074219 3.046875 1.175781 L 2.785156 1.746094 L 2.4375 1.144531 C 2.382812 1.046875 2.257812 1.011719 2.160156 1.070312 C 2.0625 1.125 2.027344 1.25 2.085938 1.347656 L 2.433594 1.949219 L 1.808594 1.890625 C 1.699219 1.878906 1.597656 1.964844 1.589844 2.074219 C 1.578125 2.1875 1.660156 2.285156 1.773438 2.296875 L 2.683594 2.382812 L 3.246094 3.351562 L 2.125 3.351562 L 1.59375 2.605469 C 1.527344 2.515625 1.398438 2.492188 1.308594 2.558594 C 1.214844 2.625 1.195312 2.75 1.261719 2.84375 L 1.621094 3.351562 L 0.925781 3.351562 C 0.8125 3.351562 0.722656 3.441406 0.722656 3.554688 C 0.722656 3.667969 0.8125 3.761719 0.925781 3.761719 L 1.621094 3.761719 L 1.261719 4.269531 C 1.195312 4.359375 1.214844 4.488281 1.308594 4.554688 C 1.398438 4.621094 1.527344 4.597656 1.59375 4.507812 L 2.125 3.761719 L 3.238281 3.761719 L 2.671875 4.722656 L 1.757812 4.800781 C 1.644531 4.808594 1.5625 4.910156 1.574219 5.019531 C 1.582031 5.132812 1.679688 5.214844 1.792969 5.207031 L 2.417969 5.152344 L 2.0625 5.753906 C 2.003906 5.847656 2.035156 5.976562 2.132812 6.03125 C 2.230469 6.089844 2.355469 6.058594 2.414062 5.960938 L 2.765625 5.363281 L 3.019531 5.933594 C 3.066406 6.035156 3.1875 6.082031 3.289062 6.035156 C 3.367188 6.003906 3.410156 5.929688 3.410156 5.851562 C 3.410156 5.820312 3.40625 5.792969 3.394531 5.765625 L 3.023438 4.929688 L 3.59375 3.960938 L 4.160156 4.9375 L 3.78125 5.769531 C 3.734375 5.871094 3.777344 5.996094 3.882812 6.039062 C 3.984375 6.085938 4.105469 6.042969 4.152344 5.941406 L 4.410156 5.371094 L 4.757812 5.972656 C 4.816406 6.070312 4.941406 6.101562 5.039062 6.046875 C 5.101562 6.007812 5.140625 5.941406 5.140625 5.871094 C 5.140625 5.835938 5.128906 5.800781 5.113281 5.769531 L 4.761719 5.164062 L 5.386719 5.222656 C 5.5 5.234375 5.597656 5.152344 5.609375 5.039062 C 5.609375 5.035156 5.609375 5.027344 5.609375 5.019531 C 5.609375 4.917969 5.53125 4.828125 5.425781 4.816406 L 4.511719 4.730469 L 3.953125 3.765625 L 5.074219 3.765625 L 5.605469 4.511719 C 5.667969 4.601562 5.796875 4.625 5.886719 4.558594 C 5.980469 4.492188 6.003906 4.363281 5.9375 4.273438 L 5.574219 3.765625 L 6.269531 3.765625 C 6.382812 3.765625 6.472656 3.671875 6.472656 3.558594 Z M 6.472656 3.558594 "/>
<path style="fill:none;stroke-width:30;stroke-linecap:round;stroke-linejoin:miter;stroke:rgb(100%,100%,100%);stroke-opacity:1;stroke-miterlimit:4;" d="M 313.411458 277.161458 C 313.411458 277.161458 348.151042 288.678385 348.151042 341.542969 C 348.151042 394.21875 300.950521 389.6875 300.950521 447.272135 C 300.950521 498.815104 347.395833 514.674479 347.395833 514.674479 " transform="matrix(0.0206897,0,0,0.0206897,0,0)"/>
<path style="fill:none;stroke-width:30;stroke-linecap:round;stroke-linejoin:miter;stroke:rgb(100%,100%,100%);stroke-opacity:1;stroke-miterlimit:4;" d="M 404.414062 277.161458 C 404.414062 277.161458 439.153646 288.678385 439.153646 341.542969 C 439.153646 394.21875 391.953125 389.6875 391.953125 447.272135 C 391.953125 498.815104 438.398438 514.674479 438.398438 514.674479 " transform="matrix(0.0206897,0,0,0.0206897,0,0)"/>
<path style="fill:none;stroke-width:30;stroke-linecap:round;stroke-linejoin:miter;stroke:rgb(100%,100%,100%);stroke-opacity:1;stroke-miterlimit:4;" d="M 495.227865 277.161458 C 495.227865 277.161458 529.967448 288.678385 529.967448 341.542969 C 529.967448 394.21875 482.766927 389.6875 482.766927 447.272135 C 482.766927 498.815104 529.21224 514.674479 529.21224 514.674479 " transform="matrix(0.0206897,0,0,0.0206897,0,0)"/>
</g>
</svg>
