<?xml version="1.0" encoding="UTF-8"?>
<svg xmlns="http://www.w3.org/2000/svg" xmlns:xlink="http://www.w3.org/1999/xlink" width="32" height="32" viewBox="0 0 32 32">
<path fill-rule="evenodd" fill="rgb(100%, 100%, 100%)" fill-opacity="1" d="M 28 16 C 28 16.738281 27.402344 17.332031 26.667969 17.332031 C 25.929688 17.332031 25.332031 16.738281 25.332031 16 C 25.332031 15.261719 25.929688 14.667969 26.667969 14.667969 C 27.402344 14.667969 28 15.261719 28 16 Z M 28 24 L 28 20.667969 C 28 21.035156 28.296875 21.332031 28.667969 21.332031 C 29.035156 21.332031 29.332031 21.035156 29.332031 20.667969 L 29.332031 18 C 29.332031 17.632812 29.035156 17.332031 28.667969 17.332031 L 24.667969 17.332031 C 24.296875 17.332031 24 17.632812 24 18 L 24 20.667969 C 24 21.035156 24.296875 21.332031 24.667969 21.332031 C 25.035156 21.332031 25.332031 21.035156 25.332031 20.667969 L 25.332031 24 Z M 28 24 "/>
<path fill-rule="evenodd" fill="rgb(100%, 100%, 100%)" fill-opacity="1" d="M 28 4 C 28 4.738281 27.402344 5.332031 26.667969 5.332031 C 25.929688 5.332031 25.332031 4.738281 25.332031 4 C 25.332031 3.261719 25.929688 2.667969 26.667969 2.667969 C 27.402344 2.667969 28 3.261719 28 4 Z M 28 12 L 28 8.667969 C 28 9.035156 28.296875 9.332031 28.667969 9.332031 C 29.035156 9.332031 29.332031 9.035156 29.332031 8.667969 L 29.332031 6 C 29.332031 5.632812 29.035156 5.332031 28.667969 5.332031 L 24.667969 5.332031 C 24.296875 5.332031 24 5.632812 24 6 L 24 8.667969 C 24 9.035156 24.296875 9.332031 24.667969 9.332031 C 25.035156 9.332031 25.332031 9.035156 25.332031 8.667969 L 25.332031 12 Z M 28 12 "/>
<path fill-rule="nonzero" fill="rgb(100%, 100%, 100%)" fill-opacity="1" d="M 20.414062 23.121094 C 19.125 22.753906 16.585938 22.105469 16.464844 21.199219 C 16.394531 20.652344 16.28125 20.132812 16.367188 19.480469 C 16.933594 18.886719 17.292969 18.367188 17.746094 17.746094 C 16.734375 14.914062 15.300781 12.660156 13.613281 10.160156 C 11.773438 11.828125 9.992188 15.359375 9.171875 17.671875 C 9.554688 18.3125 10.121094 18.886719 10.558594 19.351562 C 10.648438 19.964844 10.472656 20.667969 10.386719 21.167969 C 10.074219 21.941406 7.851562 22.726562 6.453125 23.21875 C 4.105469 24.046875 4.300781 23.914062 3.398438 24.894531 C 2.5 25.875 2.679688 28 2.679688 28 L 24 28 C 24 28 24.140625 26.152344 23.214844 24.785156 C 22.566406 23.839844 20.898438 23.253906 20.421875 23.121094 Z M 20.625 7.566406 C 19.179688 4.738281 15.785156 3.441406 11.375 4.226562 C 14.019531 7.78125 16.519531 9.378906 19.238281 16.460938 C 21.078125 14.953125 22.078125 10.394531 20.625 7.566406 Z M 12.375 8.535156 C 12.273438 8.394531 12.375 8.535156 9.339844 4.785156 C 4.671875 6.441406 4.140625 12.773438 7.554688 16.566406 C 8.683594 13.632812 10.316406 10.914062 12.375 8.535156 Z M 12.375 8.535156 "/>
</svg>
