<?xml version="1.0" encoding="UTF-8"?>
<svg xmlns="http://www.w3.org/2000/svg" xmlns:xlink="http://www.w3.org/1999/xlink" width="32" height="32" viewBox="0 0 32 32">
<path fill-rule="evenodd" fill="rgb(100%, 100%, 100%)" fill-opacity="0.41" d="M 19.199219 9.601562 C 19.789062 9.160156 20.625 9.277344 21.066406 9.867188 L 26.175781 16.679688 L 16.855469 19.785156 L 11.777344 27.40625 C 11.367188 28.019531 10.539062 28.183594 9.925781 27.777344 C 9.3125 27.367188 9.148438 26.539062 9.558594 25.925781 L 15.144531 17.546875 L 21.824219 15.320312 L 18.933594 11.464844 C 18.492188 10.878906 18.609375 10.042969 19.199219 9.601562 Z M 19.199219 9.601562 "/>
<path fill-rule="nonzero" fill="rgb(100%, 100%, 100%)" fill-opacity="1" d="M 8 2.667969 L 13.332031 13.332031 L 2.667969 13.332031 Z M 8 2.667969 "/>
<path fill-rule="nonzero" fill="rgb(100%, 100%, 100%)" fill-opacity="1" d="M 13.332031 26.667969 C 13.332031 28.140625 12.140625 29.332031 10.667969 29.332031 C 9.195312 29.332031 8 28.140625 8 26.667969 C 8 25.195312 9.195312 24 10.667969 24 C 12.140625 24 13.332031 25.195312 13.332031 26.667969 Z M 13.332031 26.667969 "/>
<path fill-rule="nonzero" fill="rgb(100%, 100%, 100%)" fill-opacity="1" d="M 18.667969 18.667969 C 18.667969 20.140625 17.472656 21.332031 16 21.332031 C 14.527344 21.332031 13.332031 20.140625 13.332031 18.667969 C 13.332031 17.195312 14.527344 16 16 16 C 17.472656 16 18.667969 17.195312 18.667969 18.667969 Z M 18.667969 18.667969 "/>
<path fill-rule="nonzero" fill="rgb(100%, 100%, 100%)" fill-opacity="1" d="M 26.667969 16 C 26.667969 17.472656 25.472656 18.667969 24 18.667969 C 22.527344 18.667969 21.332031 17.472656 21.332031 16 C 21.332031 14.527344 22.527344 13.332031 24 13.332031 C 25.472656 13.332031 26.667969 14.527344 26.667969 16 Z M 26.667969 16 "/>
<path fill-rule="nonzero" fill="rgb(100%, 100%, 100%)" fill-opacity="1" d="M 18.667969 0 L 26.667969 0 L 26.667969 5.332031 L 18.667969 5.332031 Z M 18.667969 0 "/>
<path fill-rule="evenodd" fill="rgb(100%, 100%, 100%)" fill-opacity="1" d="M 18.667969 10.667969 L 18.667969 1.332031 L 21.332031 1.332031 L 21.332031 10.667969 Z M 18.667969 10.667969 "/>
</svg>
