<?xml version="1.0" encoding="UTF-8"?>
<svg xmlns="http://www.w3.org/2000/svg" xmlns:xlink="http://www.w3.org/1999/xlink" width="12" height="12" viewBox="0 0 12 12" version="1.1">
<g id="surface1">
<path style=" stroke:none;fill-rule:nonzero;fill:rgb(100%,100%,100%);fill-opacity:1;" d="M 2.964844 6.382812 C 2.652344 6.382812 2.382812 6.574219 2.265625 6.84375 L 2.207031 7.574219 L 2.207031 8.378906 C 2.207031 8.476562 2.226562 8.566406 2.257812 8.652344 L 0.621094 8.652344 L 0.621094 11.351562 L 1.132812 11.351562 L 1.132812 9.429688 L 6.390625 9.429688 L 6.390625 11.351562 L 6.902344 11.351562 L 6.902344 8.652344 L 5.265625 8.652344 C 5.300781 8.566406 5.320312 8.476562 5.320312 8.378906 L 5.320312 7.574219 L 5.257812 6.84375 C 5.144531 6.574219 4.875 6.382812 4.558594 6.382812 Z M 2.804688 7.398438 L 2.984375 7.398438 L 2.984375 8.652344 L 2.804688 8.652344 Z M 4.539062 7.398438 L 4.71875 7.398438 L 4.71875 8.652344 L 4.539062 8.652344 Z M 4.539062 7.398438 "/>
<path style=" stroke:none;fill-rule:nonzero;fill:rgb(100%,100%,100%);fill-opacity:1;" d="M 3.761719 4.203125 C 3.25 4.203125 2.835938 4.621094 2.835938 5.132812 C 2.835938 5.644531 3.25 6.058594 3.761719 6.058594 C 4.273438 6.058594 4.691406 5.644531 4.691406 5.132812 C 4.691406 4.621094 4.273438 4.203125 3.761719 4.203125 Z M 3.761719 4.203125 "/>
<path style=" stroke:none;fill-rule:nonzero;fill:rgb(100%,100%,100%);fill-opacity:1;" d="M 10.707031 2.890625 C 11.003906 2.890625 11.246094 2.652344 11.246094 2.351562 C 11.246094 2.054688 11.003906 1.8125 10.707031 1.8125 C 10.40625 1.8125 10.167969 2.054688 10.167969 2.351562 C 10.167969 2.652344 10.40625 2.890625 10.707031 2.890625 Z M 10.707031 2.890625 "/>
<path style=" stroke:none;fill-rule:nonzero;fill:rgb(100%,100%,100%);fill-opacity:1;" d="M 9.800781 3.773438 L 9.800781 4.238281 C 9.800781 4.449219 9.949219 4.628906 10.148438 4.671875 L 10.148438 3.671875 L 10.253906 3.671875 L 10.253906 5.054688 L 11.15625 5.054688 L 11.15625 3.671875 L 11.261719 3.671875 L 11.261719 4.671875 C 11.460938 4.628906 11.609375 4.449219 11.609375 4.238281 L 11.609375 3.773438 L 11.574219 3.347656 C 11.507812 3.191406 11.351562 3.078125 11.167969 3.078125 L 10.242188 3.078125 C 10.058594 3.078125 9.902344 3.191406 9.835938 3.347656 Z M 9.800781 3.773438 "/>
<path style=" stroke:none;fill-rule:nonzero;fill:rgb(100%,100%,100%);fill-opacity:1;" d="M 5.980469 2.890625 C 6.28125 2.890625 6.523438 2.652344 6.523438 2.351562 C 6.523438 2.054688 6.28125 1.8125 5.980469 1.8125 C 5.683594 1.8125 5.441406 2.054688 5.441406 2.351562 C 5.441406 2.652344 5.683594 2.890625 5.980469 2.890625 Z M 5.980469 2.890625 "/>
<path style=" stroke:none;fill-rule:nonzero;fill:rgb(100%,100%,100%);fill-opacity:1;" d="M 5.078125 3.773438 L 5.078125 4.238281 C 5.078125 4.449219 5.226562 4.628906 5.425781 4.671875 L 5.425781 3.671875 L 5.53125 3.671875 L 5.53125 5.054688 L 6.433594 5.054688 L 6.433594 3.671875 L 6.539062 3.671875 L 6.539062 4.671875 C 6.738281 4.628906 6.886719 4.449219 6.886719 4.238281 L 6.886719 3.773438 L 6.851562 3.347656 C 6.785156 3.191406 6.628906 3.078125 6.445312 3.078125 L 5.519531 3.078125 C 5.335938 3.078125 5.179688 3.191406 5.113281 3.347656 Z M 5.078125 3.773438 "/>
<path style=" stroke:none;fill-rule:nonzero;fill:rgb(100%,100%,100%);fill-opacity:1;" d="M 8.378906 1.472656 C 8.679688 1.472656 8.917969 1.230469 8.917969 0.933594 C 8.917969 0.636719 8.679688 0.394531 8.378906 0.394531 C 8.082031 0.394531 7.839844 0.636719 7.839844 0.933594 C 7.839844 1.230469 8.082031 1.472656 8.378906 1.472656 Z M 8.378906 1.472656 "/>
<path style=" stroke:none;fill-rule:nonzero;fill:rgb(100%,100%,100%);fill-opacity:1;" d="M 7.476562 2.351562 L 7.476562 2.820312 C 7.476562 3.03125 7.625 3.207031 7.824219 3.25 L 7.824219 2.25 L 7.929688 2.25 L 7.929688 3.636719 L 8.832031 3.636719 L 8.832031 2.25 L 8.9375 2.25 L 8.9375 3.25 C 9.136719 3.207031 9.285156 3.03125 9.285156 2.820312 L 9.285156 2.351562 L 9.25 1.929688 C 9.183594 1.769531 9.027344 1.660156 8.84375 1.660156 L 7.917969 1.660156 C 7.734375 1.660156 7.578125 1.769531 7.511719 1.929688 Z M 7.476562 2.351562 "/>
<path style=" stroke:none;fill-rule:nonzero;fill:rgb(100%,100%,100%);fill-opacity:1;" d="M 8.378906 5.855469 C 8.679688 5.855469 8.917969 5.613281 8.917969 5.316406 C 8.917969 5.019531 8.679688 4.777344 8.378906 4.777344 C 8.082031 4.777344 7.839844 5.019531 7.839844 5.316406 C 7.839844 5.613281 8.082031 5.855469 8.378906 5.855469 Z M 8.378906 5.855469 "/>
<path style=" stroke:none;fill-rule:nonzero;fill:rgb(100%,100%,100%);fill-opacity:1;" d="M 7.476562 6.738281 L 7.476562 7.203125 C 7.476562 7.414062 7.625 7.589844 7.824219 7.632812 L 7.824219 6.632812 L 7.929688 6.632812 L 7.929688 8.019531 L 8.832031 8.019531 L 8.832031 6.632812 L 8.9375 6.632812 L 8.9375 7.632812 C 9.136719 7.589844 9.285156 7.414062 9.285156 7.203125 L 9.285156 6.738281 L 9.25 6.3125 C 9.183594 6.152344 9.027344 6.042969 8.84375 6.042969 L 7.917969 6.042969 C 7.734375 6.042969 7.578125 6.152344 7.511719 6.3125 Z M 7.476562 6.738281 "/>
</g>
</svg>
