<?xml version="1.0" encoding="UTF-8"?>
<svg xmlns="http://www.w3.org/2000/svg" xmlns:xlink="http://www.w3.org/1999/xlink" width="32" height="32" viewBox="0 0 32 32">
<path fill-rule="evenodd" fill="rgb(100%, 100%, 100%)" fill-opacity="1" d="M 29.332031 2.667969 C 29.332031 3.402344 28.738281 4 28 4 C 27.261719 4 26.667969 3.402344 26.667969 2.667969 C 26.667969 1.929688 27.261719 1.332031 28 1.332031 C 28.738281 1.332031 29.332031 1.929688 29.332031 2.667969 Z M 29.332031 10.667969 L 29.332031 7.332031 C 29.332031 7.703125 29.632812 8 30 8 C 30.367188 8 30.667969 7.703125 30.667969 7.332031 L 30.667969 4.667969 C 30.667969 4.296875 30.367188 4 30 4 L 26 4 C 25.632812 4 25.332031 4.296875 25.332031 4.667969 L 25.332031 7.332031 C 25.332031 7.703125 25.632812 8 26 8 C 26.367188 8 26.667969 7.703125 26.667969 7.332031 L 26.667969 10.667969 Z M 29.332031 10.667969 "/>
<path fill-rule="evenodd" fill="rgb(100%, 100%, 100%)" fill-opacity="1" d="M 21.332031 2.667969 C 21.332031 3.402344 20.738281 4 20 4 C 19.261719 4 18.667969 3.402344 18.667969 2.667969 C 18.667969 1.929688 19.261719 1.332031 20 1.332031 C 20.738281 1.332031 21.332031 1.929688 21.332031 2.667969 Z M 21.332031 10.667969 L 21.332031 7.332031 C 21.332031 7.703125 21.632812 8 22 8 C 22.367188 8 22.667969 7.703125 22.667969 7.332031 L 22.667969 4.667969 C 22.667969 4.296875 22.367188 4 22 4 L 18 4 C 17.632812 4 17.332031 4.296875 17.332031 4.667969 L 17.332031 7.332031 C 17.332031 7.703125 17.632812 8 18 8 C 18.367188 8 18.667969 7.703125 18.667969 7.332031 L 18.667969 10.667969 Z M 21.332031 10.667969 "/>
<path fill-rule="nonzero" fill="rgb(100%, 100%, 100%)" fill-opacity="1" d="M 4 14.667969 L 17.332031 14.667969 L 17.332031 22.667969 L 4 22.667969 Z M 4 14.667969 "/>
<path fill-rule="nonzero" fill="rgb(100%, 100%, 100%)" fill-opacity="1" d="M 8 25.332031 L 13.332031 25.332031 L 13.332031 28 L 8 28 Z M 8 25.332031 "/>
<path fill-rule="nonzero" fill="rgb(100%, 100%, 100%)" fill-opacity="1" d="M 26.667969 17.332031 C 27.402344 17.332031 28 16.738281 28 16 C 28 15.261719 27.402344 14.667969 26.667969 14.667969 C 25.929688 14.667969 25.332031 15.261719 25.332031 16 C 25.332031 16.738281 25.929688 17.332031 26.667969 17.332031 Z M 26.667969 17.332031 "/>
<path fill-rule="evenodd" fill="rgb(100%, 100%, 100%)" fill-opacity="1" d="M 2.667969 12 C 1.929688 12 1.332031 12.597656 1.332031 13.332031 L 1.332031 24 C 1.332031 24.734375 1.933594 25.332031 2.667969 25.332031 L 18.667969 25.332031 C 19.402344 25.332031 20 24.738281 20 24 L 20 13.332031 C 20 12.597656 19.402344 12 18.667969 12 Z M 4 14.667969 L 4 22.667969 L 17.332031 22.667969 L 17.332031 14.667969 Z M 4 14.667969 "/>
<path fill-rule="nonzero" fill="rgb(100%, 100%, 100%)" fill-opacity="1" d="M 5.332031 28 L 16 28 L 16 30.667969 L 5.332031 30.667969 Z M 5.332031 28 "/>
<path fill-rule="evenodd" fill="rgb(100%, 100%, 100%)" fill-opacity="1" d="M 22.667969 13.332031 C 22.667969 12.601562 23.265625 12 24 12 L 29.332031 12 C 30.070312 12 30.667969 12.597656 30.667969 13.332031 L 30.667969 29.332031 C 30.667969 30.070312 30.070312 30.667969 29.332031 30.667969 L 24 30.667969 C 23.261719 30.667969 22.667969 30.070312 22.667969 29.332031 Z M 25.332031 16 C 25.332031 15.261719 25.929688 14.667969 26.667969 14.667969 C 27.402344 14.667969 28 15.261719 28 16 L 28 18.667969 C 28 19.402344 27.402344 20 26.667969 20 C 25.929688 20 25.332031 19.402344 25.332031 18.667969 Z M 25.332031 16 "/>
</svg>
