<?xml version="1.0" encoding="UTF-8"?>
<svg xmlns="http://www.w3.org/2000/svg" xmlns:xlink="http://www.w3.org/1999/xlink" width="12" height="12" viewBox="0 0 12 12" version="1.1">
<defs>
<filter id="alpha" filterUnits="objectBoundingBox" x="0%" y="0%" width="100%" height="100%">
  <feColorMatrix type="matrix" in="SourceGraphic" values="0 0 0 0 1 0 0 0 0 1 0 0 0 0 1 0 0 0 1 0"/>
</filter>
<mask id="mask0">
  <g filter="url(#alpha)">
<rect x="0" y="0" width="12" height="12" style="fill:rgb(0%,0%,0%);fill-opacity:0.2;stroke:none;"/>
  </g>
</mask>
<clipPath id="clip1">
  <rect x="0" y="0" width="12" height="12"/>
</clipPath>
<g id="surface5" clip-path="url(#clip1)">
<path style=" stroke:none;fill-rule:nonzero;fill:rgb(100%,100%,100%);fill-opacity:1;" d="M 11 5 L 11 4 L 9 3.398438 L 9 2 L 8 2 L 8 3.101562 L 1 1 L 1 11 L 10 11 L 10 5 Z M 11 5 "/>
</g>
<mask id="mask1">
  <g filter="url(#alpha)">
<rect x="0" y="0" width="12" height="12" style="fill:rgb(0%,0%,0%);fill-opacity:0.5;stroke:none;"/>
  </g>
</mask>
<clipPath id="clip2">
  <rect x="0" y="0" width="12" height="12"/>
</clipPath>
<g id="surface8" clip-path="url(#clip2)">
<path style=" stroke:none;fill-rule:nonzero;fill:rgb(100%,100%,100%);fill-opacity:1;" d="M 3.5 7 C 4.328125 7 5 6.328125 5 5.5 C 5 4.671875 4.328125 4 3.5 4 C 2.671875 4 2 4.671875 2 5.5 C 2 6.328125 2.671875 7 3.5 7 Z M 3.5 7 "/>
<path style=" stroke:none;fill-rule:nonzero;fill:rgb(100%,100%,100%);fill-opacity:1;" d="M 5.988281 11 L 1 11 L 1 10 C 1 8.535156 2.503906 8 3.5 8 C 4.496094 8 5.988281 8.535156 5.988281 10 C 6.011719 10.589844 5.988281 11 5.988281 11 Z M 5.988281 11 "/>
</g>
</defs>
<g id="surface1">
<use xlink:href="#surface5" mask="url(#mask0)"/>
<path style=" stroke:none;fill-rule:nonzero;fill:rgb(100%,100%,100%);fill-opacity:1;" d="M 7.5 7 C 8.328125 7 9 6.328125 9 5.5 C 9 4.671875 8.328125 4 7.5 4 C 6.671875 4 6 4.671875 6 5.5 C 6 6.328125 6.671875 7 7.5 7 Z M 7.5 7 "/>
<path style=" stroke:none;fill-rule:nonzero;fill:rgb(100%,100%,100%);fill-opacity:1;" d="M 9.988281 11 L 5 11 L 5 10 C 5 8.535156 6.503906 8 7.5 8 C 8.496094 8 9.988281 8.535156 9.988281 10 C 10.011719 10.589844 9.988281 11 9.988281 11 Z M 9.988281 11 "/>
<use xlink:href="#surface8" mask="url(#mask1)"/>
</g>
</svg>
