<?xml version="1.0" encoding="UTF-8"?>
<svg xmlns="http://www.w3.org/2000/svg" xmlns:xlink="http://www.w3.org/1999/xlink" width="12" height="12" viewBox="0 0 12 12" version="1.1">
<g id="surface1">
<path style=" stroke:none;fill-rule:nonzero;fill:rgb(100%,100%,100%);fill-opacity:1;" d="M 10.398438 11.09375 C 10.398438 11.160156 10.339844 11.214844 10.273438 11.214844 L 9.90625 11.207031 C 9.839844 11.207031 9.785156 11.152344 9.785156 11.085938 L 9.585938 10.304688 L 9.804688 9.855469 L 9.875 5.816406 L 10.488281 5.828125 L 10.417969 9.859375 L 10.625 10.320312 Z M 10.398438 11.09375 "/>
<path style=" stroke:none;fill-rule:nonzero;fill:rgb(100%,100%,100%);fill-opacity:1;" d="M 9.191406 3.011719 C 9.210938 1.847656 9.753906 0.78125 9.980469 0.785156 L 10.535156 0.792969 C 10.761719 0.796875 11.261719 1.90625 11.242188 3.046875 C 11.234375 3.570312 10.800781 4.082031 10.792969 4.40625 C 10.789062 4.59375 11.210938 4.894531 11.207031 5.03125 C 11.203125 5.402344 10.890625 5.320312 10.890625 5.320312 L 9.472656 5.296875 C 9.472656 5.296875 9.152344 5.328125 9.160156 4.996094 C 9.160156 4.863281 9.589844 4.558594 9.59375 4.386719 C 9.597656 4.132812 9.179688 3.710938 9.191406 3.011719 Z M 9.191406 3.011719 "/>
<path style=" stroke:none;fill-rule:nonzero;fill:rgb(100%,100%,100%);fill-opacity:1;" d="M 4.582031 2.074219 C 2.414062 2.074219 0.65625 3.832031 0.65625 6 C 0.65625 8.167969 2.414062 9.925781 4.582031 9.925781 C 6.75 9.925781 8.507812 8.167969 8.507812 6 C 8.507812 3.832031 6.75 2.074219 4.582031 2.074219 Z M 4.335938 2.632812 L 4.828125 2.632812 L 4.828125 4.105469 L 4.335938 4.105469 Z M 6.140625 2.992188 L 6.5625 3.242188 L 6.179688 3.886719 L 5.757812 3.636719 Z M 3.085938 3.023438 L 3.128906 3.09375 L 3.183594 3.0625 C 3.222656 3.035156 3.277344 3.050781 3.300781 3.09375 L 4.816406 5.722656 L 6.410156 4.984375 C 6.429688 4.972656 6.453125 4.972656 6.472656 4.980469 C 6.496094 4.988281 6.511719 5.003906 6.523438 5.023438 L 6.746094 5.5 C 6.765625 5.546875 6.746094 5.597656 6.703125 5.617188 L 5.152344 6.335938 C 5.152344 6.339844 5.152344 6.347656 5.152344 6.351562 C 5.144531 6.371094 5.132812 6.390625 5.113281 6.402344 L 4.65625 6.667969 C 4.640625 6.675781 4.628906 6.679688 4.613281 6.679688 C 4.582031 6.679688 4.554688 6.664062 4.539062 6.632812 L 4.53125 6.625 L 4.316406 6.726562 C 4.304688 6.730469 4.289062 6.734375 4.277344 6.734375 C 4.246094 6.734375 4.214844 6.714844 4.199219 6.683594 L 3.980469 6.207031 C 3.96875 6.1875 3.96875 6.164062 3.976562 6.140625 C 3.984375 6.121094 4 6.101562 4.019531 6.09375 L 4.183594 6.019531 L 2.695312 3.441406 C 2.683594 3.421875 2.679688 3.398438 2.6875 3.375 C 2.6875 3.363281 2.695312 3.351562 2.703125 3.34375 L 2.664062 3.273438 Z M 7.386719 4.042969 L 7.648438 4.457031 L 7.015625 4.859375 L 6.753906 4.445312 Z M 1.839844 4.074219 L 2.472656 4.476562 L 2.210938 4.890625 L 1.578125 4.488281 Z M 1.214844 5.753906 L 2.6875 5.753906 L 2.6875 6.246094 L 1.214844 6.246094 Z M 6.507812 5.753906 L 7.976562 5.753906 L 7.976562 6.246094 L 6.507812 6.246094 Z M 2.261719 7 L 2.523438 7.414062 L 1.890625 7.816406 L 1.628906 7.402344 Z M 6.933594 7.074219 L 7.566406 7.476562 L 7.304688 7.890625 L 6.671875 7.488281 Z M 4.335938 7.894531 L 4.828125 7.894531 L 4.828125 9.367188 L 4.335938 9.367188 Z M 3.097656 7.96875 L 3.519531 8.21875 L 3.136719 8.867188 L 2.714844 8.617188 Z M 6.097656 8.046875 L 6.480469 8.691406 L 6.058594 8.941406 L 5.675781 8.296875 Z M 6.097656 8.046875 "/>
</g>
</svg>
