<?xml version="1.0" encoding="UTF-8"?>
<svg xmlns="http://www.w3.org/2000/svg" xmlns:xlink="http://www.w3.org/1999/xlink" width="12" height="12" viewBox="0 0 12 12" version="1.1">
<g id="surface1">
<path style=" stroke:none;fill-rule:nonzero;fill:rgb(100%,100%,100%);fill-opacity:1;" d="M 9.078125 2.414062 C 9.238281 2.550781 9.320312 2.644531 9.320312 2.648438 C 9.359375 2.699219 9.417969 2.722656 9.476562 2.722656 C 9.515625 2.722656 9.558594 2.710938 9.59375 2.683594 C 9.675781 2.617188 9.691406 2.496094 9.628906 2.414062 C 9.617188 2.398438 9.523438 2.285156 9.34375 2.132812 C 9.300781 2.160156 9.253906 2.195312 9.214844 2.234375 C 9.15625 2.289062 9.113281 2.351562 9.078125 2.414062 Z M 9.078125 2.414062 "/>
<path style=" stroke:none;fill-rule:nonzero;fill:rgb(100%,100%,100%);fill-opacity:1;" d="M 6.390625 1.179688 C 6.285156 1.179688 6.199219 1.269531 6.199219 1.375 C 6.199219 1.480469 6.285156 1.566406 6.390625 1.566406 C 7.335938 1.566406 8.027344 1.792969 8.503906 2.039062 C 8.59375 1.910156 8.679688 1.804688 8.746094 1.726562 C 8.226562 1.445312 7.457031 1.179688 6.390625 1.179688 Z M 6.390625 1.179688 "/>
<path style=" stroke:none;fill-rule:nonzero;fill:rgb(100%,100%,100%);fill-opacity:1;" d="M 10.632812 10.433594 C 10.519531 10.433594 7.933594 10.410156 7.933594 8.503906 C 7.933594 7.714844 8.507812 7.148438 9.117188 6.546875 C 9.765625 5.90625 10.4375 5.246094 10.4375 4.265625 C 10.4375 4.050781 10.402344 3.851562 10.359375 3.683594 C 10.261719 3.761719 10.148438 3.84375 10.019531 3.933594 C 10.039062 4.035156 10.050781 4.148438 10.050781 4.265625 C 10.050781 5.085938 9.46875 5.664062 8.847656 6.273438 C 8.207031 6.902344 7.546875 7.554688 7.546875 8.503906 C 7.546875 10.332031 9.484375 10.816406 10.632812 10.816406 C 10.738281 10.816406 10.824219 10.730469 10.824219 10.625 C 10.824219 10.519531 10.738281 10.433594 10.632812 10.433594 Z M 10.632812 10.433594 "/>
<path style=" stroke:none;fill-rule:nonzero;fill:rgb(100%,100%,100%);fill-opacity:1;" d="M 10.542969 1.460938 C 10.359375 1.277344 10.125 1.179688 9.867188 1.179688 C 9.441406 1.179688 9.03125 1.4375 8.792969 1.679688 C 8.617188 1.855469 8.328125 2.28125 8.023438 2.734375 C 7.710938 3.195312 7.390625 3.671875 7.1875 3.886719 C 6.308594 4.8125 5.109375 6.105469 4.230469 7.046875 C 3.605469 7.722656 3.109375 8.253906 3.035156 8.328125 C 2.972656 8.390625 2.503906 8.90625 2.050781 9.425781 C 1.101562 10.527344 1.101562 10.609375 1.246094 10.757812 L 1.3125 10.816406 L 1.394531 10.820312 C 1.699219 10.820312 3.65625 8.988281 3.675781 8.96875 C 3.75 8.894531 4.289062 8.394531 4.96875 7.761719 C 5.910156 6.886719 7.199219 5.683594 8.121094 4.8125 C 8.332031 4.613281 8.800781 4.296875 9.25 3.992188 C 9.707031 3.683594 10.140625 3.394531 10.324219 3.210938 C 10.546875 2.988281 10.714844 2.703125 10.785156 2.425781 C 10.882812 2.050781 10.796875 1.71875 10.542969 1.460938 Z M 9.769531 2.789062 C 9.550781 3.007812 9.25 3.0625 9.09375 2.90625 C 8.941406 2.753906 8.996094 2.453125 9.214844 2.234375 C 9.433594 2.015625 9.734375 1.964844 9.886719 2.117188 C 10.039062 2.269531 9.984375 2.570312 9.769531 2.789062 Z M 9.769531 2.789062 "/>
</g>
</svg>
