<?xml version="1.0" encoding="UTF-8"?>
<svg xmlns="http://www.w3.org/2000/svg" xmlns:xlink="http://www.w3.org/1999/xlink" width="32" height="32" viewBox="0 0 32 32">
<path fill-rule="nonzero" fill="rgb(100%, 100%, 100%)" fill-opacity="1" d="M 22.789062 15.21875 L 7.644531 15.21875 L 7.644531 8.429688 L 29.054688 8.429688 L 29.054688 8.953125 C 29.054688 12.40625 26.242188 15.21875 22.789062 15.21875 Z M 22.789062 15.21875 "/>
<path fill-rule="nonzero" fill="rgb(100%, 100%, 100%)" fill-opacity="1" d="M 6.601562 9.472656 L 3.46875 9.472656 C 3.179688 9.472656 2.945312 9.707031 2.945312 9.996094 C 2.945312 12.011719 4.585938 13.652344 6.601562 13.652344 Z M 6.601562 9.472656 "/>
<path fill-rule="nonzero" fill="rgb(100%, 100%, 100%)" fill-opacity="1" d="M 24.875 18.871094 L 24.355469 18.871094 C 22.6875 18.871094 21.480469 17.820312 21.261719 16.261719 L 11.785156 16.261719 C 11.5625 17.820312 10.355469 18.871094 8.691406 18.871094 L 8.167969 18.871094 C 7.363281 18.871094 6.601562 19.632812 6.601562 20.4375 L 6.601562 23.570312 L 13.050781 23.570312 L 13.195312 23.453125 C 13.214844 23.441406 15.007812 22.003906 17.042969 22.003906 C 19.015625 22.003906 20.300781 23.386719 20.3125 23.398438 L 20.464844 23.570312 L 26.441406 23.570312 L 26.441406 20.4375 C 26.441406 19.632812 25.679688 18.871094 24.875 18.871094 Z M 24.875 18.871094 "/>
</svg>
