<?xml version="1.0" encoding="UTF-8"?>
<svg xmlns="http://www.w3.org/2000/svg" xmlns:xlink="http://www.w3.org/1999/xlink" width="32" height="32" viewBox="0 0 32 32">
<path fill-rule="nonzero" fill="rgb(100%, 100%, 100%)" fill-opacity="1" d="M 9.746094 25.324219 C 9.46875 25.292969 9.203125 25.269531 8.949219 25.253906 C 8.6875 25.238281 8.4375 25.230469 8.199219 25.222656 C 7.960938 25.21875 7.730469 25.222656 7.515625 25.226562 C 7.085938 25.238281 6.703125 25.265625 6.363281 25.304688 C 4.992188 25.507812 3.253906 26.078125 3.25 26.707031 C 3.246094 27.582031 5.410156 28.3125 8.085938 28.335938 C 10.761719 28.359375 12.9375 27.671875 12.941406 26.796875 C 12.945312 26.152344 11.15625 25.542969 9.746094 25.324219 Z M 9.746094 25.324219 "/>
<path fill-rule="nonzero" fill="rgb(100%, 100%, 100%)" fill-opacity="1" d="M 7.882812 3.664062 L 6.699219 6.480469 L 6.421875 24.195312 C 6.652344 24.171875 6.886719 24.148438 7.144531 24.136719 C 7.480469 24.121094 7.835938 24.113281 8.21875 24.121094 C 8.539062 24.128906 8.875 24.140625 9.226562 24.167969 C 9.371094 24.179688 9.53125 24.199219 9.683594 24.214844 L 9.167969 6.226562 Z M 7.882812 3.664062 "/>
<path fill-rule="nonzero" fill="rgb(100%, 100%, 100%)" fill-opacity="1" d="M 21 9.296875 L 20.988281 27.039062 C 20.988281 27.546875 21.398438 27.957031 21.90625 27.957031 L 23.664062 27.960938 C 23.917969 27.960938 24.144531 27.859375 24.3125 27.691406 C 24.476562 27.527344 24.582031 27.296875 24.582031 27.042969 L 24.59375 9.300781 Z M 21 9.296875 "/>
<path fill-rule="nonzero" fill="rgb(100%, 100%, 100%)" fill-opacity="1" d="M 27.832031 3.902344 L 26.207031 3.898438 C 25.972656 3.898438 25.761719 4.054688 25.6875 4.28125 C 25.652344 4.386719 25.425781 4.660156 25.25 4.660156 L 24.578125 4.660156 C 24.546875 4.472656 24.460938 4.300781 24.324219 4.167969 C 24.152344 3.992188 23.917969 3.894531 23.671875 3.894531 L 21.914062 3.894531 C 21.902344 3.894531 21.882812 3.894531 21.867188 3.898438 L 21.496094 3.898438 C 20.730469 3.894531 20.015625 3.894531 19.832031 3.894531 C 18.28125 3.894531 15.414062 6.691406 15.09375 7.011719 C 15.09375 7.011719 15.09375 7.011719 15.089844 7.011719 C 14.980469 7.125 14.960938 7.296875 15.046875 7.425781 C 15.132812 7.558594 15.296875 7.613281 15.445312 7.554688 C 15.457031 7.550781 16.761719 7.058594 18.898438 7.109375 C 19.859375 7.132812 21 7.296875 20.992188 7.949219 C 20.992188 7.964844 20.996094 8.046875 20.996094 8.335938 C 20.996094 8.363281 21 8.382812 21.003906 8.40625 L 21.003906 8.417969 L 24.59375 8.417969 L 24.597656 8.089844 C 24.597656 8.082031 24.59375 8.078125 24.59375 8.070312 L 24.59375 7.542969 C 24.617188 7.542969 24.742188 7.542969 25.246094 7.542969 C 25.4375 7.542969 25.652344 7.800781 25.679688 7.886719 C 25.769531 8.152344 25.972656 8.320312 26.203125 8.320312 C 26.296875 8.324219 27.828125 8.324219 27.828125 8.324219 C 28.082031 8.324219 28.3125 8.21875 28.476562 8.054688 C 28.644531 7.886719 28.746094 7.660156 28.75 7.40625 L 28.75 4.820312 C 28.75 4.3125 28.339844 3.902344 27.832031 3.902344 Z M 27.832031 3.902344 "/>
</svg>
