<svg xmlns="http://www.w3.org/2000/svg" width="12" height="12" viewBox="0 0 48 48" version="1.1" id="svg8" style="fill:none"><path style="clip-rule:evenodd;fill:#fff;fill-opacity:1;fill-rule:evenodd;stroke:none" d="M44 4a2 2 0 1 1-4 0 2 2 0 0 1 4 0zm0 12v-5a1 1 0 1 0 2 0V7a1 1 0 0 0-1-1h-6a1 1 0 0 0-1 1v4a1 1 0 1 0 2 0v5z" id="path8-3"/><path style="clip-rule:evenodd;fill:#fff;fill-opacity:1;fill-rule:evenodd;stroke:none" d="M32 4a2 2 0 1 1-4 0 2 2 0 0 1 4 0zm0 12v-5a1 1 0 1 0 2 0V7a1 1 0 0 0-1-1h-6a1 1 0 0 0-1 1v4a1 1 0 1 0 2 0v5z" id="path8-6-5"/><path id="path2" d="M6 22h20v12H6z" style="fill:#fff;fill-opacity:1;stroke:none"/><path id="path4" d="M12 38h8v4h-8z" style="fill:#fff;fill-opacity:1;stroke:none"/><path id="path6" d="M40 26a2 2 0 1 0 0-4 2 2 0 0 0 0 4z" style="fill:#fff;fill-opacity:1;stroke:none"/><path style="clip-rule:evenodd;fill:#fff;fill-opacity:1;fill-rule:evenodd;stroke:none" d="M4 18a2 2 0 0 0-2 2v16c0 1.1.9 2 2 2h24a2 2 0 0 0 2-2V20a2 2 0 0 0-2-2zm2 4v12h20V22z" id="path10"/><path style="fill:#fff;fill-opacity:1;stroke:none" d="M8 42h16v4H8z" id="path12"/><path style="clip-rule:evenodd;fill:#fff;fill-opacity:1;fill-rule:evenodd;stroke:none" d="M34 20c0-1.1.9-2 2-2h8a2 2 0 0 1 2 2v24a2 2 0 0 1-2 2h-8a2 2 0 0 1-2-2zm4 4a2 2 0 1 1 4 0v4a2 2 0 1 1-4 0z" id="path14"/></svg>
