<?xml version="1.0" encoding="UTF-8"?>
<svg xmlns="http://www.w3.org/2000/svg" xmlns:xlink="http://www.w3.org/1999/xlink" width="32" height="32" viewBox="0 0 32 32">
<path fill-rule="nonzero" fill="rgb(100%, 100%, 100%)" fill-opacity="1" d="M 17.261719 9.492188 C 17.261719 9.191406 17.019531 8.949219 16.71875 8.949219 L 14.863281 8.949219 L 15.832031 7.589844 C 15.898438 7.496094 15.929688 7.382812 15.929688 7.273438 C 15.929688 7.105469 15.851562 6.9375 15.703125 6.832031 C 15.457031 6.65625 15.117188 6.714844 14.945312 6.957031 L 13.527344 8.949219 L 10.550781 8.949219 L 12.066406 6.382812 L 14.5 6.175781 C 14.785156 6.148438 15 5.914062 15 5.632812 C 15 5.617188 15 5.601562 14.996094 5.585938 C 14.972656 5.285156 14.707031 5.0625 14.410156 5.089844 L 12.746094 5.230469 L 13.691406 3.632812 C 13.742188 3.546875 13.765625 3.453125 13.765625 3.359375 C 13.765625 3.171875 13.671875 2.992188 13.5 2.890625 C 13.242188 2.734375 12.90625 2.820312 12.753906 3.082031 L 11.8125 4.679688 L 11.132812 3.152344 C 11.011719 2.878906 10.6875 2.753906 10.414062 2.878906 C 10.140625 3 10.015625 3.320312 10.136719 3.597656 L 11.128906 5.828125 L 9.605469 8.410156 L 8.101562 5.808594 L 9.113281 3.585938 C 9.144531 3.515625 9.160156 3.4375 9.160156 3.363281 C 9.160156 3.15625 9.042969 2.957031 8.839844 2.867188 C 8.566406 2.742188 8.246094 2.863281 8.121094 3.136719 L 7.429688 4.652344 L 6.5 3.046875 C 6.351562 2.789062 6.015625 2.699219 5.757812 2.851562 C 5.496094 3 5.40625 3.332031 5.558594 3.59375 L 6.488281 5.199219 L 4.828125 5.042969 C 4.527344 5.015625 4.261719 5.234375 4.234375 5.535156 C 4.203125 5.835938 4.425781 6.097656 4.726562 6.125 L 7.15625 6.355469 L 8.652344 8.9375 L 5.664062 8.9375 L 4.246094 6.949219 C 4.070312 6.703125 3.734375 6.648438 3.488281 6.820312 C 3.242188 6.996094 3.1875 7.335938 3.359375 7.582031 L 4.328125 8.9375 L 2.472656 8.9375 C 2.171875 8.9375 1.929688 9.183594 1.929688 9.480469 C 1.929688 9.78125 2.171875 10.027344 2.472656 10.027344 L 4.328125 10.027344 L 3.359375 11.386719 C 3.1875 11.628906 3.242188 11.96875 3.488281 12.144531 C 3.734375 12.316406 4.070312 12.261719 4.246094 12.015625 L 5.664062 10.027344 L 8.640625 10.027344 L 7.121094 12.59375 L 4.6875 12.800781 C 4.390625 12.824219 4.164062 13.089844 4.191406 13.390625 C 4.21875 13.6875 4.480469 13.910156 4.78125 13.886719 L 6.441406 13.742188 L 5.5 15.339844 C 5.347656 15.597656 5.433594 15.933594 5.691406 16.085938 C 5.949219 16.238281 6.28125 16.152344 6.4375 15.894531 L 7.378906 14.296875 L 8.058594 15.820312 C 8.179688 16.097656 8.5 16.21875 8.777344 16.097656 C 8.976562 16.007812 9.097656 15.808594 9.097656 15.597656 C 9.097656 15.527344 9.085938 15.449219 9.050781 15.378906 L 8.058594 13.144531 L 9.585938 10.566406 L 11.089844 13.164062 L 10.078125 15.386719 C 9.953125 15.660156 10.074219 15.984375 10.347656 16.109375 C 10.621094 16.234375 10.945312 16.113281 11.070312 15.839844 L 11.761719 14.320312 L 12.691406 15.925781 C 12.839844 16.1875 13.171875 16.273438 13.433594 16.125 C 13.609375 16.023438 13.707031 15.839844 13.707031 15.652344 C 13.707031 15.558594 13.683594 15.46875 13.632812 15.382812 L 12.703125 13.777344 L 14.363281 13.933594 C 14.660156 13.960938 14.925781 13.742188 14.957031 13.441406 C 14.957031 13.421875 14.957031 13.40625 14.957031 13.390625 C 14.957031 13.113281 14.746094 12.875 14.464844 12.847656 L 12.03125 12.621094 L 10.535156 10.035156 L 13.527344 10.035156 L 14.945312 12.027344 C 15.117188 12.269531 15.457031 12.328125 15.703125 12.152344 C 15.949219 11.980469 16.003906 11.636719 15.832031 11.394531 L 14.863281 10.035156 L 16.71875 10.035156 C 17.019531 10.035156 17.261719 9.792969 17.261719 9.492188 Z M 17.261719 9.492188 "/>
<path fill="none" stroke-width="30" stroke-linecap="round" stroke-linejoin="miter" stroke="rgb(100%, 100%, 100%)" stroke-opacity="1" stroke-miterlimit="4" d="M 313.435059 277.255859 C 313.435059 277.255859 348.198242 288.725586 348.198242 341.472168 C 348.198242 394.21875 301.044922 389.758301 301.044922 447.319336 C 301.044922 498.791504 347.419434 514.580078 347.419434 514.580078 " transform="matrix(0.0551724, 0, 0, 0.0551724, 0, 0)"/>
<path fill="none" stroke-width="30" stroke-linecap="round" stroke-linejoin="miter" stroke="rgb(100%, 100%, 100%)" stroke-opacity="1" stroke-miterlimit="4" d="M 404.343262 277.255859 C 404.343262 277.255859 439.177246 288.725586 439.177246 341.472168 C 439.177246 394.21875 391.953125 389.758301 391.953125 447.319336 C 391.953125 498.791504 438.327637 514.580078 438.327637 514.580078 " transform="matrix(0.0551724, 0, 0, 0.0551724, 0, 0)"/>
<path fill="none" stroke-width="30" stroke-linecap="round" stroke-linejoin="miter" stroke="rgb(100%, 100%, 100%)" stroke-opacity="1" stroke-miterlimit="4" d="M 495.251465 277.255859 C 495.251465 277.255859 530.085449 288.725586 530.085449 341.472168 C 530.085449 394.21875 482.861328 389.758301 482.861328 447.319336 C 482.861328 498.791504 529.23584 514.580078 529.23584 514.580078 " transform="matrix(0.0551724, 0, 0, 0.0551724, 0, 0)"/>
</svg>
