<?xml version="1.0" encoding="UTF-8"?>
<svg xmlns="http://www.w3.org/2000/svg" xmlns:xlink="http://www.w3.org/1999/xlink" width="12" height="12" viewBox="0 0 12 12" version="1.1">
<defs>
<filter id="alpha" filterUnits="objectBoundingBox" x="0%" y="0%" width="100%" height="100%">
  <feColorMatrix type="matrix" in="SourceGraphic" values="0 0 0 0 1 0 0 0 0 1 0 0 0 0 1 0 0 0 1 0"/>
</filter>
<mask id="mask0">
  <g filter="url(#alpha)">
<rect x="0" y="0" width="12" height="12" style="fill:rgb(0%,0%,0%);fill-opacity:0.7;stroke:none;"/>
  </g>
</mask>
<clipPath id="clip1">
  <rect x="0" y="0" width="12" height="12"/>
</clipPath>
<g id="surface5" clip-path="url(#clip1)">
<path style=" stroke:none;fill-rule:nonzero;fill:rgb(100%,100%,100%);fill-opacity:1;" d="M 4.335938 2 C 4.445312 2 4.554688 2.015625 4.660156 2.046875 L 11 4 L 1 4 L 3.722656 2.183594 C 3.902344 2.066406 4.117188 2 4.335938 2 Z M 4.335938 2 "/>
</g>
<mask id="mask1">
  <g filter="url(#alpha)">
<rect x="0" y="0" width="12" height="12" style="fill:rgb(0%,0%,0%);fill-opacity:0.5;stroke:none;"/>
  </g>
</mask>
<clipPath id="clip2">
  <rect x="0" y="0" width="12" height="12"/>
</clipPath>
<g id="surface8" clip-path="url(#clip2)">
<path style=" stroke:none;fill-rule:evenodd;fill:rgb(100%,100%,100%);fill-opacity:1;" d="M 4 6 C 4 6.550781 3.550781 7 3 7 C 2.449219 7 2 6.550781 2 6 C 2 5.449219 2.449219 5 3 5 C 3.550781 5 4 5.449219 4 6 Z M 10 5.5 C 10 5.777344 9.777344 6 9.5 6 C 9.222656 6 9 5.777344 9 5.5 C 9 5.222656 9.222656 5 9.5 5 C 9.777344 5 10 5.222656 10 5.5 Z M 2.5 9 C 2.777344 9 3 8.777344 3 8.5 C 3 8.222656 2.777344 8 2.5 8 C 2.222656 8 2 8.222656 2 8.5 C 2 8.777344 2.222656 9 2.5 9 Z M 6 7.5 C 6 7.777344 5.777344 8 5.5 8 C 5.222656 8 5 7.777344 5 7.5 C 5 7.222656 5.222656 7 5.5 7 C 5.777344 7 6 7.222656 6 7.5 Z M 9 9 C 9.550781 9 10 8.550781 10 8 C 10 7.449219 9.550781 7 9 7 C 8.449219 7 8 7.449219 8 8 C 8 8.550781 8.449219 9 9 9 Z M 9 9 "/>
</g>
</defs>
<g id="surface1">
<use xlink:href="#surface5" mask="url(#mask0)"/>
<path style=" stroke:none;fill-rule:evenodd;fill:rgb(100%,100%,100%);fill-opacity:1;" d="M 11 4 L 1 4 L 1 9.5 C 1 9.777344 1.222656 10 1.5 10 L 10.5 10 C 10.777344 10 11 9.777344 11 9.5 Z M 3 7 C 3.550781 7 4 6.550781 4 6 C 4 5.449219 3.550781 5 3 5 C 2.449219 5 2 5.449219 2 6 C 2 6.550781 2.449219 7 3 7 Z M 9.5 6 C 9.777344 6 10 5.777344 10 5.5 C 10 5.222656 9.777344 5 9.5 5 C 9.222656 5 9 5.222656 9 5.5 C 9 5.777344 9.222656 6 9.5 6 Z M 3 8.5 C 3 8.777344 2.777344 9 2.5 9 C 2.222656 9 2 8.777344 2 8.5 C 2 8.222656 2.222656 8 2.5 8 C 2.777344 8 3 8.222656 3 8.5 Z M 5.5 8 C 5.777344 8 6 7.777344 6 7.5 C 6 7.222656 5.777344 7 5.5 7 C 5.222656 7 5 7.222656 5 7.5 C 5 7.777344 5.222656 8 5.5 8 Z M 10 8 C 10 8.550781 9.550781 9 9 9 C 8.449219 9 8 8.550781 8 8 C 8 7.449219 8.449219 7 9 7 C 9.550781 7 10 7.449219 10 8 Z M 10 8 "/>
<use xlink:href="#surface8" mask="url(#mask1)"/>
</g>
</svg>
