<?xml version="1.0" encoding="UTF-8"?>
<svg xmlns="http://www.w3.org/2000/svg" xmlns:xlink="http://www.w3.org/1999/xlink" width="12" height="12" viewBox="0 0 12 12" version="1.1">
<defs>
<filter id="alpha" filterUnits="objectBoundingBox" x="0%" y="0%" width="100%" height="100%">
  <feColorMatrix type="matrix" in="SourceGraphic" values="0 0 0 0 1 0 0 0 0 1 0 0 0 0 1 0 0 0 1 0"/>
</filter>
<mask id="mask0">
  <g filter="url(#alpha)">
<rect x="0" y="0" width="12" height="12" style="fill:rgb(0%,0%,0%);fill-opacity:0.5;stroke:none;"/>
  </g>
</mask>
<clipPath id="clip1">
  <rect x="0" y="0" width="12" height="12"/>
</clipPath>
<g id="surface5" clip-path="url(#clip1)">
<path style=" stroke:none;fill-rule:evenodd;fill:rgb(100%,100%,100%);fill-opacity:1;" d="M 5.5 2 L 2 2 L 2 1 L 9.5 1 L 9.5 2 L 6.5 2 L 6.5 5.5 L 10 5.5 L 10 6.5 L 6.5 6.5 L 6.5 10 L 10 10 L 10 11 L 2 11 L 2 10 L 5.5 10 L 5.5 6.5 L 2 6.5 L 2 5.5 L 5.5 5.5 Z M 5.5 2 "/>
</g>
</defs>
<g id="surface1">
<use xlink:href="#surface5" mask="url(#mask0)"/>
<path style=" stroke:none;fill-rule:nonzero;fill:rgb(100%,100%,100%);fill-opacity:1;" d="M 1.101562 1 C 1.042969 1 1 1.042969 1 1.101562 L 1 10.800781 C 1 10.910156 1.089844 11 1.199219 11 L 2.394531 11 C 2.460938 11 2.523438 10.96875 2.550781 10.90625 C 2.746094 10.539062 3.355469 9.070312 2.5 6.5 C 5.238281 5.128906 5.058594 1.675781 5.007812 1.085938 C 5.003906 1.035156 4.960938 1 4.910156 1 Z M 1.101562 1 "/>
<path style=" stroke:none;fill-rule:nonzero;fill:rgb(100%,100%,100%);fill-opacity:1;" d="M 10.929688 1 C 10.988281 1 11.03125 1.042969 11.03125 1.101562 L 11.03125 10.800781 C 11.03125 10.910156 10.941406 11 10.832031 11 L 9.636719 11 C 9.570312 11 9.507812 10.96875 9.480469 10.90625 C 9.285156 10.539062 8.675781 9.070312 9.53125 6.5 C 6.792969 5.128906 6.972656 1.675781 7.023438 1.085938 C 7.027344 1.035156 7.070312 1 7.121094 1 Z M 10.929688 1 "/>
</g>
</svg>
