<?xml version="1.0" encoding="UTF-8"?>
<svg xmlns="http://www.w3.org/2000/svg" xmlns:xlink="http://www.w3.org/1999/xlink" width="12" height="12" viewBox="0 0 12 12" version="1.1">
<g id="surface1">
<path style=" stroke:none;fill-rule:evenodd;fill:rgb(24.705882%,24.705882%,24.705882%);fill-opacity:1;" d="M 6.054688 0.726562 C 6.015625 0.726562 5.976562 0.726562 5.933594 0.726562 C 5.53125 0.75 5.167969 0.972656 4.964844 1.320312 L 3.28125 4.238281 L 4.117188 4.574219 L 5.691406 1.851562 C 5.691406 1.851562 5.789062 1.667969 5.992188 1.667969 C 6.195312 1.667969 6.289062 1.847656 6.289062 1.847656 L 8.992188 6.523438 L 10.347656 7.066406 L 7.027344 1.320312 C 6.828125 0.96875 6.460938 0.746094 6.054688 0.726562 Z M 2.578125 5.453125 L 0.429688 9.179688 C -0.03125 9.972656 0.542969 10.964844 1.457031 10.964844 L 10.539062 10.972656 C 11.457031 10.972656 12.03125 9.980469 11.570312 9.1875 L 11.429688 8.945312 C 11.324219 8.769531 11.203125 8.65625 11.203125 8.65625 L 10.121094 8.472656 L 10.789062 9.625 C 10.789062 9.625 10.867188 9.804688 10.789062 9.941406 C 10.710938 10.078125 10.523438 10.078125 10.523438 10.078125 L 1.636719 10.066406 C 1.636719 10.066406 1.363281 10.074219 1.265625 9.867188 C 1.167969 9.65625 1.316406 9.421875 1.316406 9.421875 L 3.417969 5.789062 Z M 2.578125 5.453125 "/>
<path style=" stroke:none;fill-rule:nonzero;fill:rgb(24.705882%,24.705882%,24.705882%);fill-opacity:1;" d="M 6.089844 3.441406 C 5.953125 3.445312 5.820312 3.5 5.726562 3.601562 C 5.628906 3.699219 5.578125 3.832031 5.578125 3.96875 C 5.582031 4.105469 5.636719 4.238281 5.734375 4.332031 C 5.832031 4.429688 5.964844 4.484375 6.101562 4.480469 C 6.238281 4.480469 6.371094 4.425781 6.46875 4.328125 C 6.566406 4.230469 6.621094 4.097656 6.621094 3.960938 L 6.621094 3.949219 C 6.617188 3.8125 6.558594 3.679688 6.460938 3.585938 C 6.359375 3.492188 6.226562 3.4375 6.089844 3.441406 Z M 5.847656 4.667969 C 5.742188 4.664062 5.640625 4.691406 5.546875 4.742188 C 5.519531 4.75 5.492188 4.765625 5.46875 4.78125 L 5.179688 5 L 6.753906 5.628906 L 6.351562 4.933594 C 6.320312 4.878906 6.273438 4.835938 6.210938 4.816406 C 6.113281 4.726562 5.980469 4.675781 5.847656 4.667969 Z M 4.332031 6.15625 L 4.246094 6.457031 C 4.238281 6.492188 4.234375 6.523438 4.238281 6.558594 C 4.242188 6.59375 4.25 6.625 4.269531 6.65625 C 4.285156 6.683594 4.304688 6.710938 4.332031 6.730469 C 4.359375 6.753906 4.390625 6.769531 4.421875 6.777344 C 4.457031 6.785156 4.488281 6.789062 4.523438 6.785156 C 4.558594 6.78125 4.589844 6.769531 4.617188 6.753906 C 4.648438 6.734375 4.675781 6.710938 4.695312 6.6875 C 4.714844 6.660156 4.730469 6.628906 4.738281 6.59375 L 4.808594 6.347656 Z M 5.027344 6.433594 C 5.019531 6.472656 5.015625 6.511719 5.019531 6.550781 L 5.125 7.890625 C 5.125 7.890625 5.125 7.894531 5.125 7.894531 L 4.578125 9.074219 C 4.558594 9.117188 4.546875 9.160156 4.542969 9.210938 C 4.542969 9.257812 4.546875 9.304688 4.5625 9.347656 C 4.578125 9.390625 4.605469 9.433594 4.636719 9.46875 C 4.667969 9.503906 4.707031 9.53125 4.75 9.550781 C 4.792969 9.570312 4.839844 9.582031 4.886719 9.582031 C 4.933594 9.585938 4.980469 9.578125 5.023438 9.558594 C 5.066406 9.542969 5.109375 9.519531 5.144531 9.484375 C 5.175781 9.453125 5.203125 9.414062 5.222656 9.371094 L 5.820312 8.078125 C 5.84375 8.03125 5.855469 7.980469 5.855469 7.929688 C 5.855469 7.875 5.847656 7.824219 5.824219 7.777344 L 5.769531 7.085938 C 5.773438 7.082031 5.78125 7.082031 5.785156 7.082031 L 6.476562 7.800781 C 6.480469 7.808594 6.488281 7.816406 6.496094 7.820312 L 6.746094 9.089844 C 6.753906 9.132812 6.769531 9.175781 6.792969 9.210938 C 6.816406 9.246094 6.847656 9.277344 6.882812 9.300781 C 6.917969 9.328125 6.957031 9.34375 7 9.351562 C 7.042969 9.359375 7.085938 9.359375 7.128906 9.351562 C 7.171875 9.34375 7.210938 9.328125 7.246094 9.304688 C 7.28125 9.277344 7.3125 9.25 7.335938 9.210938 C 7.359375 9.175781 7.375 9.136719 7.382812 9.09375 C 7.390625 9.050781 7.390625 9.007812 7.382812 8.964844 L 7.097656 7.53125 C 7.09375 7.5 7.082031 7.464844 7.066406 7.4375 C 7.046875 7.390625 7.019531 7.347656 6.984375 7.3125 L 6.839844 7.15625 Z M 5.027344 6.433594 "/>
<path style=" stroke:none;fill-rule:evenodd;fill:rgb(24.705882%,24.705882%,24.705882%);fill-opacity:1;" d="M 0.609375 3.675781 L 0.488281 3.972656 L 0.257812 4.550781 L 11.230469 8.9375 L 11.351562 8.640625 L 11.582031 8.0625 Z M 0.609375 3.675781 "/>
</g>
</svg>
