<?xml version="1.0" encoding="UTF-8"?>
<svg xmlns="http://www.w3.org/2000/svg" xmlns:xlink="http://www.w3.org/1999/xlink" width="12" height="12" viewBox="0 0 12 12" version="1.1">
<g id="surface1">
<path style=" stroke:none;fill-rule:nonzero;fill:rgb(100%,100%,100%);fill-opacity:1;" d="M 6.742188 4.976562 C 6.671875 5.074219 6.457031 5.398438 6.257812 5.925781 L 7.0625 5.925781 C 7.136719 5.515625 7.214844 5.183594 7.269531 4.976562 Z M 7.675781 4.976562 C 7.625 5.148438 7.535156 5.484375 7.453125 5.925781 L 8.335938 5.925781 L 8.335938 4.976562 Z M 8.722656 4.976562 L 8.722656 5.925781 L 9.601562 5.925781 C 9.519531 5.484375 9.433594 5.148438 9.382812 4.976562 Z M 9.785156 4.976562 C 9.84375 5.183594 9.921875 5.515625 9.996094 5.925781 L 10.8125 5.925781 C 10.613281 5.402344 10.386719 5.070312 10.316406 4.976562 Z M 6.027344 6.71875 C 5.949219 7.070312 5.898438 7.46875 5.886719 7.910156 C 5.871094 8.398438 5.925781 8.851562 6.011719 9.261719 L 6.945312 9.261719 C 6.902344 8.855469 6.875 8.417969 6.875 7.96875 C 6.875 7.527344 6.902344 7.105469 6.945312 6.71875 Z M 7.335938 6.71875 C 7.292969 7.101562 7.261719 7.527344 7.261719 7.96875 C 7.261719 8.417969 7.292969 8.855469 7.335938 9.261719 L 8.335938 9.261719 L 8.335938 6.71875 Z M 8.722656 6.71875 L 8.722656 9.261719 L 9.71875 9.261719 C 9.765625 8.855469 9.796875 8.417969 9.796875 7.96875 C 9.796875 7.527344 9.765625 7.101562 9.722656 6.71875 Z M 10.113281 6.71875 C 10.15625 7.105469 10.183594 7.527344 10.183594 7.96875 C 10.183594 8.417969 10.15625 8.855469 10.109375 9.261719 L 11.015625 9.261719 C 11.015625 9.261719 11.019531 9.261719 11.019531 9.261719 C 11.109375 8.847656 11.171875 8.390625 11.171875 7.90625 C 11.175781 7.46875 11.125 7.070312 11.046875 6.71875 Z M 6.21875 10.015625 C 6.433594 10.632812 6.675781 11.050781 6.75 11.164062 L 7.277344 11.164062 C 7.21875 10.921875 7.128906 10.515625 7.046875 10.015625 Z M 7.441406 10.015625 C 7.527344 10.546875 7.625 10.960938 7.679688 11.164062 L 8.335938 11.164062 L 8.335938 10.015625 Z M 8.722656 10.015625 L 8.722656 11.164062 L 9.378906 11.164062 C 9.429688 10.960938 9.527344 10.546875 9.617188 10.015625 Z M 10.007812 10.015625 C 9.929688 10.515625 9.835938 10.921875 9.777344 11.164062 L 10.304688 11.164062 C 10.375 11.042969 10.605469 10.621094 10.808594 10.015625 Z M 4.71875 12.070312 C 1.488281 12.355469 3.101562 12.210938 4.71875 12.070312 Z M 4.71875 12.070312 "/>
<path style="fill-rule:nonzero;fill:rgb(100%,100%,100%);fill-opacity:1;stroke-width:15.7203;stroke-linecap:round;stroke-linejoin:round;stroke:rgb(100%,100%,100%);stroke-opacity:1;stroke-miterlimit:4;" d="M 138.391927 33.984375 L 176.341146 33.984375 L 176.341146 219.765625 L 138.391927 219.765625 Z M 138.391927 33.984375 " transform="matrix(0.0206897,0,0,0.0206897,0,0)"/>
<path style="fill-rule:nonzero;fill:rgb(100%,100%,100%);fill-opacity:1;stroke-width:47.516602;stroke-linecap:round;stroke-linejoin:round;stroke:rgb(100%,100%,100%);stroke-opacity:1;stroke-miterlimit:4;" d="M 101.764323 247.141927 C 100.065104 237.135417 141.979167 216.367188 157.460938 216.178385 C 172.942708 216.178385 213.346354 239.967448 216.367188 247.141927 L 216.367188 519.394531 C 187.669271 535.065104 118.190104 532.044271 101.764323 519.394531 Z M 101.764323 247.141927 " transform="matrix(0.0206897,0,0,0.0206897,0,0)"/>
</g>
</svg>
