<?xml version="1.0" encoding="UTF-8"?>
<svg xmlns="http://www.w3.org/2000/svg" xmlns:xlink="http://www.w3.org/1999/xlink" width="12" height="12" viewBox="0 0 12 12" version="1.1">
<g id="surface1">
<path style=" stroke:none;fill-rule:nonzero;fill:rgb(100%,100%,100%);fill-opacity:1;" d="M 3.65625 9.496094 C 3.550781 9.484375 3.449219 9.476562 3.355469 9.46875 C 3.257812 9.464844 3.164062 9.460938 3.074219 9.460938 C 2.984375 9.457031 2.898438 9.457031 2.820312 9.460938 C 2.65625 9.464844 2.515625 9.476562 2.386719 9.488281 C 1.871094 9.566406 1.21875 9.777344 1.21875 10.015625 C 1.214844 10.34375 2.027344 10.617188 3.03125 10.625 C 4.035156 10.636719 4.851562 10.375 4.851562 10.046875 C 4.855469 9.808594 4.183594 9.578125 3.65625 9.496094 Z M 3.65625 9.496094 "/>
<path style=" stroke:none;fill-rule:nonzero;fill:rgb(100%,100%,100%);fill-opacity:1;" d="M 2.957031 1.375 L 2.511719 2.429688 L 2.410156 9.074219 C 2.496094 9.0625 2.582031 9.054688 2.679688 9.050781 C 2.804688 9.046875 2.9375 9.042969 3.082031 9.046875 C 3.203125 9.046875 3.328125 9.054688 3.460938 9.0625 C 3.515625 9.066406 3.574219 9.074219 3.632812 9.082031 L 3.4375 2.335938 Z M 2.957031 1.375 "/>
<path style=" stroke:none;fill-rule:nonzero;fill:rgb(100%,100%,100%);fill-opacity:1;" d="M 7.875 3.488281 L 7.871094 10.140625 C 7.871094 10.328125 8.023438 10.484375 8.214844 10.484375 L 8.875 10.484375 C 8.96875 10.484375 9.054688 10.445312 9.117188 10.382812 C 9.179688 10.320312 9.21875 10.234375 9.21875 10.140625 L 9.222656 3.488281 Z M 7.875 3.488281 "/>
<path style=" stroke:none;fill-rule:nonzero;fill:rgb(100%,100%,100%);fill-opacity:1;" d="M 10.4375 1.460938 L 9.828125 1.460938 C 9.738281 1.460938 9.660156 1.519531 9.632812 1.605469 C 9.621094 1.644531 9.535156 1.746094 9.46875 1.746094 L 9.21875 1.746094 C 9.203125 1.679688 9.171875 1.613281 9.121094 1.5625 C 9.054688 1.496094 8.96875 1.460938 8.878906 1.460938 L 8.21875 1.460938 C 8.214844 1.460938 8.207031 1.460938 8.199219 1.460938 L 8.0625 1.460938 C 7.773438 1.460938 7.503906 1.460938 7.4375 1.460938 C 6.855469 1.460938 5.78125 2.511719 5.660156 2.628906 C 5.617188 2.671875 5.609375 2.734375 5.644531 2.785156 C 5.675781 2.835938 5.738281 2.855469 5.792969 2.832031 C 5.796875 2.832031 6.285156 2.648438 7.085938 2.667969 C 7.445312 2.675781 7.875 2.734375 7.871094 2.980469 C 7.871094 2.988281 7.871094 3.015625 7.871094 3.125 C 7.871094 3.136719 7.875 3.144531 7.875 3.152344 L 7.875 3.15625 L 9.222656 3.15625 L 9.222656 3.035156 C 9.222656 3.03125 9.222656 3.027344 9.222656 3.027344 L 9.222656 2.828125 C 9.230469 2.828125 9.277344 2.828125 9.46875 2.828125 C 9.539062 2.828125 9.621094 2.925781 9.628906 2.957031 C 9.664062 3.058594 9.738281 3.121094 9.828125 3.121094 C 9.859375 3.121094 10.4375 3.121094 10.4375 3.121094 C 10.53125 3.121094 10.617188 3.082031 10.679688 3.019531 C 10.742188 2.957031 10.78125 2.871094 10.78125 2.777344 L 10.78125 1.808594 C 10.78125 1.617188 10.628906 1.464844 10.4375 1.460938 Z M 10.4375 1.460938 "/>
</g>
</svg>
