<?xml version="1.0" encoding="UTF-8"?>
<svg xmlns="http://www.w3.org/2000/svg" xmlns:xlink="http://www.w3.org/1999/xlink" width="12" height="12" viewBox="0 0 12 12" version="1.1">
<g id="surface1">
<path style="fill-rule:nonzero;fill:rgb(100%,100%,100%);fill-opacity:1;stroke-width:13;stroke-linecap:butt;stroke-linejoin:miter;stroke:rgb(100%,100%,100%);stroke-opacity:1;stroke-miterlimit:4;" d="M 279.427083 219.576823 L 279.427083 533.177083 L 289.811198 533.177083 L 289.811198 180.872396 L 279.427083 186.347656 Z M 279.427083 219.576823 " transform="matrix(0.0206897,0,0,0.0206897,0,0)"/>
<path style="fill-rule:nonzero;fill:rgb(100%,100%,100%);fill-opacity:1;stroke-width:13;stroke-linecap:butt;stroke-linejoin:miter;stroke:rgb(100%,100%,100%);stroke-opacity:1;stroke-miterlimit:4;" d="M 301.328125 186.347656 L 290.94401 180.872396 L 290.94401 533.177083 L 301.328125 533.177083 Z M 301.328125 186.347656 " transform="matrix(0.0206897,0,0,0.0206897,0,0)"/>
<path style="fill-rule:nonzero;fill:rgb(100%,100%,100%);fill-opacity:1;stroke-width:13;stroke-linecap:butt;stroke-linejoin:miter;stroke:rgb(100%,100%,100%);stroke-opacity:1;stroke-miterlimit:4;" d="M 33.040365 300.950521 L 33.040365 499.192708 L 43.802083 499.192708 L 43.802083 345.507812 L 165.768229 294.908854 L 165.768229 514.108073 L 178.984375 514.108073 L 178.984375 289.433594 L 278.294271 248.27474 L 278.294271 234.492188 L 178.984375 275.651042 L 178.984375 247.897135 L 278.294271 200.696615 L 278.294271 186.536458 L 37.382812 300.950521 Z M 165.768229 254.127604 L 165.768229 281.126302 L 43.802083 331.72526 L 43.802083 312.089844 Z M 165.768229 254.127604 " transform="matrix(0.0206897,0,0,0.0206897,0,0)"/>
<path style="fill-rule:nonzero;fill:rgb(100%,100%,100%);fill-opacity:1;stroke-width:13;stroke-linecap:butt;stroke-linejoin:miter;stroke:rgb(100%,100%,100%);stroke-opacity:1;stroke-miterlimit:4;" d="M 542.617188 300.950521 L 301.705729 186.536458 L 301.705729 200.696615 L 401.015625 247.897135 L 401.015625 275.651042 L 301.705729 234.492188 L 301.705729 248.27474 L 401.015625 289.433594 L 401.015625 514.108073 L 414.231771 514.108073 L 414.231771 294.908854 L 536.197917 345.507812 L 536.197917 499.192708 L 546.959635 499.192708 L 546.959635 300.950521 Z M 536.197917 312.089844 L 536.197917 331.72526 L 414.231771 281.126302 L 414.231771 254.127604 Z M 536.197917 312.089844 " transform="matrix(0.0206897,0,0,0.0206897,0,0)"/>
<path style=" stroke:none;fill-rule:nonzero;fill:rgb(100%,100%,100%);fill-opacity:1;" d="M 5.121094 1.921875 L 10.0625 3.273438 C 10.183594 3.308594 10.257812 3.433594 10.226562 3.558594 L 10.117188 3.984375 C 10.101562 4.046875 10.058594 4.097656 10.007812 4.128906 C 9.957031 4.15625 9.894531 4.167969 9.835938 4.152344 L 4.894531 2.800781 Z M 5.121094 1.921875 "/>
<path style=" stroke:none;fill-rule:nonzero;fill:rgb(100%,100%,100%);fill-opacity:1;" d="M 3.425781 3.261719 L 3.527344 2.863281 C 3.542969 2.804688 3.59375 2.765625 3.652344 2.761719 C 3.683594 2.757812 3.761719 2.722656 3.773438 2.679688 L 3.816406 2.515625 C 3.773438 2.496094 3.738281 2.460938 3.714844 2.421875 C 3.679688 2.367188 3.671875 2.304688 3.6875 2.246094 L 3.800781 1.816406 C 3.800781 1.8125 3.800781 1.808594 3.804688 1.804688 L 3.828125 1.714844 C 3.875 1.527344 3.921875 1.351562 3.933594 1.308594 C 4.03125 0.929688 4.894531 0.40625 4.992188 0.347656 C 4.996094 0.347656 4.996094 0.347656 4.996094 0.347656 C 5.027344 0.328125 5.070312 0.335938 5.097656 0.363281 C 5.125 0.394531 5.128906 0.4375 5.105469 0.46875 C 5.101562 0.472656 4.898438 0.757812 4.777344 1.285156 C 4.722656 1.519531 4.6875 1.808594 4.847656 1.847656 C 4.851562 1.847656 4.871094 1.855469 4.941406 1.875 C 4.949219 1.875 4.953125 1.878906 4.957031 1.878906 L 4.960938 1.878906 L 4.734375 2.757812 L 4.652344 2.734375 C 4.652344 2.734375 4.648438 2.734375 4.648438 2.734375 L 4.519531 2.699219 C 4.519531 2.707031 4.511719 2.738281 4.480469 2.859375 C 4.464844 2.90625 4.515625 2.976562 4.535156 2.988281 C 4.59375 3.027344 4.621094 3.085938 4.609375 3.144531 C 4.601562 3.164062 4.503906 3.539062 4.503906 3.539062 C 4.488281 3.601562 4.449219 3.652344 4.398438 3.679688 C 4.347656 3.710938 4.285156 3.722656 4.222656 3.707031 L 3.589844 3.542969 C 3.46875 3.511719 3.394531 3.382812 3.425781 3.261719 Z M 3.425781 3.261719 "/>
</g>
</svg>
