<?xml version="1.0" encoding="UTF-8"?>
<svg xmlns="http://www.w3.org/2000/svg" xmlns:xlink="http://www.w3.org/1999/xlink" width="32" height="32" viewBox="0 0 32 32">
<path fill-rule="nonzero" fill="rgb(100%, 100%, 100%)" fill-opacity="1" d="M 24.210938 6.441406 C 24.640625 6.796875 24.851562 7.054688 24.859375 7.0625 C 24.960938 7.195312 25.113281 7.261719 25.265625 7.261719 C 25.375 7.261719 25.488281 7.226562 25.578125 7.15625 C 25.804688 6.980469 25.84375 6.660156 25.671875 6.433594 C 25.640625 6.394531 25.394531 6.089844 24.917969 5.683594 C 24.796875 5.761719 24.679688 5.851562 24.570312 5.960938 C 24.421875 6.109375 24.300781 6.273438 24.210938 6.441406 Z M 24.210938 6.441406 "/>
<path fill-rule="nonzero" fill="rgb(100%, 100%, 100%)" fill-opacity="1" d="M 17.042969 3.152344 C 16.757812 3.152344 16.527344 3.382812 16.527344 3.664062 C 16.527344 3.949219 16.757812 4.179688 17.042969 4.179688 C 19.5625 4.179688 21.40625 4.785156 22.671875 5.4375 C 22.917969 5.097656 23.140625 4.8125 23.324219 4.609375 C 21.933594 3.851562 19.882812 3.152344 17.042969 3.152344 Z M 17.042969 3.152344 "/>
<path fill-rule="nonzero" fill="rgb(100%, 100%, 100%)" fill-opacity="1" d="M 28.347656 27.820312 C 28.054688 27.820312 21.152344 27.761719 21.152344 22.679688 C 21.152344 20.570312 22.6875 19.0625 24.3125 17.460938 C 26.046875 15.753906 27.835938 13.992188 27.835938 11.375 C 27.835938 10.796875 27.746094 10.273438 27.628906 9.828125 C 27.363281 10.03125 27.0625 10.253906 26.722656 10.492188 C 26.773438 10.765625 26.808594 11.0625 26.808594 11.375 C 26.808594 13.5625 25.246094 15.097656 23.59375 16.726562 C 21.890625 18.40625 20.125 20.144531 20.125 22.679688 C 20.125 27.550781 25.296875 28.847656 28.347656 28.847656 C 28.632812 28.847656 28.863281 28.617188 28.863281 28.335938 C 28.863281 28.050781 28.632812 27.820312 28.347656 27.820312 Z M 28.347656 27.820312 "/>
<path fill-rule="nonzero" fill="rgb(100%, 100%, 100%)" fill-opacity="1" d="M 28.109375 3.898438 C 27.621094 3.410156 27.003906 3.152344 26.316406 3.152344 C 25.175781 3.152344 24.085938 3.835938 23.449219 4.476562 C 22.980469 4.945312 22.207031 6.085938 21.390625 7.292969 C 20.5625 8.519531 19.703125 9.785156 19.164062 10.359375 C 16.824219 12.835938 13.621094 16.277344 11.28125 18.792969 C 9.613281 20.589844 8.292969 22.011719 8.089844 22.210938 C 7.925781 22.378906 6.671875 23.75 5.472656 25.140625 C 2.9375 28.070312 2.933594 28.292969 3.324219 28.6875 L 3.503906 28.847656 L 3.714844 28.847656 C 4.535156 28.847656 9.75 23.96875 9.800781 23.921875 C 10.003906 23.714844 11.433594 22.382812 13.246094 20.699219 C 15.757812 18.363281 19.199219 15.160156 21.660156 12.832031 C 22.222656 12.300781 23.464844 11.460938 24.667969 10.648438 C 25.890625 9.824219 27.042969 9.046875 27.527344 8.558594 C 28.121094 7.96875 28.570312 7.207031 28.761719 6.472656 C 29.019531 5.46875 28.792969 4.578125 28.109375 3.898438 Z M 26.046875 7.4375 C 25.464844 8.019531 24.660156 8.164062 24.253906 7.753906 C 23.847656 7.34375 23.988281 6.542969 24.570312 5.960938 C 25.152344 5.375 25.957031 5.234375 26.367188 5.644531 C 26.773438 6.050781 26.628906 6.855469 26.046875 7.4375 Z M 26.046875 7.4375 "/>
</svg>
