<?xml version="1.0" encoding="UTF-8"?>
<svg xmlns="http://www.w3.org/2000/svg" xmlns:xlink="http://www.w3.org/1999/xlink" width="32" height="32" viewBox="0 0 32 32">
<path fill-rule="nonzero" fill="rgb(100%, 100%, 100%)" fill-opacity="1" d="M 27.730469 29.585938 C 27.726562 29.765625 27.578125 29.910156 27.398438 29.90625 L 26.417969 29.890625 C 26.234375 29.886719 26.09375 29.738281 26.09375 29.558594 L 25.5625 27.484375 L 26.148438 26.277344 L 26.332031 15.515625 L 27.964844 15.542969 L 27.785156 26.289062 L 28.332031 27.519531 Z M 27.730469 29.585938 "/>
<path fill-rule="nonzero" fill="rgb(100%, 100%, 100%)" fill-opacity="1" d="M 24.511719 8.035156 C 24.566406 4.921875 26.011719 2.082031 26.613281 2.09375 L 28.09375 2.117188 C 28.699219 2.128906 30.03125 5.089844 29.980469 8.128906 C 29.957031 9.523438 28.796875 10.882812 28.785156 11.753906 C 28.773438 12.253906 29.894531 13.058594 29.890625 13.417969 C 29.875 14.410156 29.042969 14.1875 29.042969 14.1875 L 25.265625 14.125 C 25.265625 14.125 24.410156 14.203125 24.421875 13.328125 C 24.429688 12.972656 25.578125 12.160156 25.585938 11.699219 C 25.597656 11.019531 24.480469 9.890625 24.511719 8.035156 Z M 24.511719 8.035156 "/>
<path fill-rule="nonzero" fill="rgb(100%, 100%, 100%)" fill-opacity="1" d="M 12.214844 5.53125 C 6.433594 5.53125 1.75 10.21875 1.75 16 C 1.75 21.78125 6.433594 26.46875 12.214844 26.46875 C 17.996094 26.46875 22.683594 21.78125 22.683594 16 C 22.683594 10.21875 17.996094 5.53125 12.214844 5.53125 Z M 11.5625 7.019531 L 12.871094 7.019531 L 12.871094 10.945312 L 11.5625 10.945312 Z M 16.375 7.980469 L 17.5 8.644531 L 16.480469 10.367188 L 15.355469 9.703125 Z M 8.234375 8.066406 L 8.339844 8.246094 L 8.484375 8.160156 C 8.597656 8.097656 8.734375 8.136719 8.800781 8.246094 L 12.847656 15.257812 L 17.089844 13.285156 C 17.144531 13.261719 17.207031 13.257812 17.265625 13.277344 C 17.320312 13.300781 17.367188 13.34375 17.394531 13.398438 L 17.988281 14.671875 C 18.039062 14.785156 17.988281 14.921875 17.875 14.976562 L 13.746094 16.898438 C 13.742188 16.910156 13.742188 16.921875 13.738281 16.933594 C 13.722656 16.992188 13.683594 17.042969 13.632812 17.074219 L 12.414062 17.777344 C 12.378906 17.796875 12.339844 17.808594 12.300781 17.808594 C 12.222656 17.808594 12.144531 17.765625 12.101562 17.691406 L 12.085938 17.667969 L 11.507812 17.9375 C 11.476562 17.953125 11.441406 17.957031 11.410156 17.957031 C 11.324219 17.957031 11.242188 17.910156 11.203125 17.824219 L 10.609375 16.550781 C 10.582031 16.496094 10.582031 16.433594 10.601562 16.375 C 10.621094 16.320312 10.664062 16.273438 10.722656 16.246094 L 11.152344 16.046875 L 7.183594 9.175781 C 7.15625 9.125 7.148438 9.0625 7.164062 9.003906 C 7.171875 8.96875 7.1875 8.9375 7.210938 8.910156 L 7.105469 8.734375 Z M 19.699219 10.78125 L 20.398438 11.886719 L 18.707031 12.957031 L 18.007812 11.851562 Z M 4.90625 10.867188 L 6.597656 11.9375 L 5.898438 13.042969 L 4.207031 11.972656 Z M 3.238281 15.347656 L 7.164062 15.347656 L 7.164062 16.652344 L 3.238281 16.652344 Z M 17.351562 15.347656 L 21.273438 15.347656 L 21.273438 16.652344 L 17.351562 16.652344 Z M 6.03125 18.667969 L 6.730469 19.773438 L 5.039062 20.84375 L 4.339844 19.738281 Z M 18.488281 18.867188 L 20.179688 19.9375 L 19.480469 21.042969 L 17.789062 19.972656 Z M 11.5625 21.054688 L 12.871094 21.054688 L 12.871094 24.980469 L 11.5625 24.980469 Z M 8.257812 21.253906 L 9.382812 21.921875 L 8.363281 23.644531 L 7.238281 22.976562 Z M 16.261719 21.457031 L 17.28125 23.175781 L 16.15625 23.84375 L 15.136719 22.121094 Z M 16.261719 21.457031 "/>
</svg>
