<?xml version="1.0" encoding="UTF-8"?>
<svg xmlns="http://www.w3.org/2000/svg" xmlns:xlink="http://www.w3.org/1999/xlink" width="12" height="12" viewBox="0 0 12 12" version="1.1">
<g id="surface1">
<path style=" stroke:none;fill-rule:nonzero;fill:rgb(100%,100%,100%);fill-opacity:1;" d="M 5.953125 0.984375 C 5.890625 0.992188 5.832031 1.011719 5.78125 1.046875 L 1.152344 4.132812 C 1.066406 4.191406 1.007812 4.28125 0.988281 4.382812 C 0.964844 4.484375 0.988281 4.589844 1.042969 4.675781 C 1.101562 4.761719 1.191406 4.820312 1.292969 4.84375 C 1.394531 4.863281 1.5 4.839844 1.585938 4.785156 L 6 1.84375 L 10.414062 4.785156 C 10.457031 4.8125 10.503906 4.832031 10.554688 4.84375 C 10.605469 4.851562 10.65625 4.851562 10.707031 4.84375 C 10.757812 4.832031 10.804688 4.8125 10.847656 4.785156 C 10.890625 4.753906 10.925781 4.71875 10.957031 4.675781 C 10.984375 4.632812 11.003906 4.585938 11.011719 4.535156 C 11.023438 4.484375 11.023438 4.433594 11.011719 4.382812 C 11.003906 4.332031 10.984375 4.285156 10.953125 4.242188 C 10.925781 4.199219 10.890625 4.160156 10.847656 4.132812 L 6.21875 1.046875 C 6.140625 0.996094 6.042969 0.972656 5.953125 0.984375 Z M 6 2.722656 L 1.371094 5.617188 L 1.371094 9.859375 C 1.371094 10.5 1.886719 11.015625 2.527344 11.015625 L 9.472656 11.015625 C 10.109375 11.015625 10.628906 10.5 10.628906 9.859375 L 10.628906 5.617188 Z M 5.226562 5.230469 L 6.773438 5.230469 L 6.773438 6.773438 L 8.316406 6.773438 L 8.316406 8.316406 L 6.773438 8.316406 L 6.773438 9.859375 L 5.226562 9.859375 L 5.226562 8.316406 L 3.683594 8.316406 L 3.683594 6.773438 L 5.226562 6.773438 Z M 5.226562 5.230469 "/>
</g>
</svg>
