<?xml version="1.0" encoding="UTF-8"?>
<svg xmlns="http://www.w3.org/2000/svg" xmlns:xlink="http://www.w3.org/1999/xlink" width="12" height="12" viewBox="0 0 12 12" version="1.1">
<g id="surface1">
<path style=" stroke:none;fill-rule:nonzero;fill:rgb(100%,100%,100%);fill-opacity:1;" d="M 1.03125 10.675781 L 3.292969 5.296875 L 4.03125 5.789062 L 1.125 10.714844 Z M 1.03125 10.675781 "/>
<path style=" stroke:none;fill-rule:nonzero;fill:rgb(100%,100%,100%);fill-opacity:1;" d="M 4.253906 0.949219 L 2.886719 2.898438 C 2.617188 3.285156 2.71875 3.78125 3.132812 4.015625 L 5.28125 5.46875 C 5.695312 5.703125 6.261719 5.578125 6.539062 5.195312 L 6.886719 4.722656 L 10.46875 7.519531 C 10.679688 7.6875 10.980469 7.644531 11.140625 7.425781 C 11.300781 7.207031 11.25 6.910156 11.027344 6.757812 L 7.273438 4.195312 L 7.671875 3.648438 C 7.949219 3.265625 7.890625 2.699219 7.535156 2.382812 L 5.40625 0.824219 C 5.050781 0.511719 4.535156 0.566406 4.253906 0.949219 Z M 4.253906 0.949219 "/>
</g>
</svg>
