<?xml version="1.0" encoding="UTF-8"?>
<svg xmlns="http://www.w3.org/2000/svg" xmlns:xlink="http://www.w3.org/1999/xlink" width="12" height="12" viewBox="0 0 12 12" version="1.1">
<g id="surface1">
<path style=" stroke:none;fill-rule:nonzero;fill:rgb(100%,100%,100%);fill-opacity:1;" d="M 0.964844 4.121094 C 0.78125 2.886719 1.632812 1.742188 2.863281 1.558594 C 4.09375 1.375 5.242188 2.222656 5.425781 3.453125 C 5.578125 4.457031 5.039062 5.40625 4.171875 5.820312 L 4.234375 10.054688 L 3.597656 10.46875 L 2.8125 9.503906 L 3.203125 8.886719 L 3.203125 8.507812 L 2.875 8.164062 L 2.792969 7.226562 L 2.207031 6.914062 L 2.238281 5.828125 C 1.578125 5.519531 1.082031 4.894531 0.964844 4.121094 Z M 2.941406 2.085938 C 2.671875 2.125 2.484375 2.378906 2.527344 2.648438 C 2.566406 2.917969 2.816406 3.105469 3.089844 3.0625 C 3.359375 3.023438 3.542969 2.773438 3.503906 2.5 C 3.464844 2.230469 3.210938 2.046875 2.941406 2.085938 Z M 2.941406 2.085938 "/>
<path style=" stroke:none;fill-rule:nonzero;fill:rgb(100%,100%,100%);fill-opacity:1;" d="M 8.585938 3.515625 L 8.582031 10.167969 C 8.582031 10.355469 8.738281 10.511719 8.925781 10.511719 L 9.585938 10.511719 C 9.679688 10.511719 9.765625 10.472656 9.828125 10.410156 C 9.890625 10.347656 9.929688 10.261719 9.929688 10.167969 L 9.933594 3.515625 Z M 8.585938 3.515625 "/>
<path style=" stroke:none;fill-rule:nonzero;fill:rgb(100%,100%,100%);fill-opacity:1;" d="M 11.148438 1.488281 L 10.539062 1.488281 C 10.453125 1.488281 10.375 1.546875 10.34375 1.632812 C 10.332031 1.671875 10.246094 1.773438 10.179688 1.773438 L 9.929688 1.773438 C 9.917969 1.707031 9.882812 1.640625 9.832031 1.589844 C 9.769531 1.523438 9.683594 1.488281 9.589844 1.488281 L 8.929688 1.488281 C 8.925781 1.488281 8.917969 1.488281 8.910156 1.488281 L 8.773438 1.488281 C 8.484375 1.488281 8.21875 1.488281 8.148438 1.488281 C 7.566406 1.488281 6.492188 2.539062 6.371094 2.65625 C 6.328125 2.699219 6.324219 2.761719 6.355469 2.8125 C 6.386719 2.863281 6.449219 2.882812 6.503906 2.859375 C 6.507812 2.859375 7 2.675781 7.800781 2.695312 C 8.160156 2.703125 8.585938 2.761719 8.582031 3.007812 C 8.585938 3.015625 8.585938 3.042969 8.585938 3.152344 C 8.585938 3.164062 8.585938 3.171875 8.589844 3.179688 L 8.589844 3.183594 L 9.933594 3.183594 L 9.933594 3.058594 C 9.9375 3.058594 9.933594 3.054688 9.933594 3.054688 L 9.933594 2.855469 C 9.941406 2.855469 9.992188 2.855469 10.179688 2.855469 C 10.25 2.855469 10.332031 2.953125 10.34375 2.984375 C 10.375 3.082031 10.453125 3.148438 10.539062 3.148438 C 10.574219 3.148438 11.148438 3.148438 11.148438 3.148438 C 11.242188 3.148438 11.328125 3.109375 11.390625 3.046875 C 11.453125 2.984375 11.492188 2.898438 11.492188 2.804688 L 11.492188 1.835938 C 11.492188 1.644531 11.339844 1.492188 11.148438 1.488281 Z M 11.148438 1.488281 "/>
</g>
</svg>
