<?xml version="1.0" encoding="UTF-8"?>
<svg xmlns="http://www.w3.org/2000/svg" xmlns:xlink="http://www.w3.org/1999/xlink" width="32" height="32" viewBox="0 0 32 32">
<path fill-rule="nonzero" fill="rgb(100%, 100%, 100%)" fill-opacity="1" d="M 17.976562 13.269531 C 17.792969 13.527344 17.21875 14.394531 16.691406 15.808594 L 18.828125 15.808594 C 19.027344 14.707031 19.242188 13.824219 19.390625 13.269531 Z M 20.464844 13.269531 C 20.332031 13.730469 20.097656 14.625 19.878906 15.808594 L 22.226562 15.808594 L 22.226562 13.269531 Z M 23.261719 13.269531 L 23.261719 15.808594 L 25.605469 15.808594 C 25.386719 14.625 25.152344 13.730469 25.023438 13.269531 Z M 26.09375 13.269531 C 26.246094 13.824219 26.460938 14.707031 26.65625 15.808594 L 28.835938 15.808594 C 28.296875 14.40625 27.699219 13.523438 27.515625 13.269531 Z M 16.070312 17.917969 C 15.867188 18.851562 15.722656 19.910156 15.695312 21.09375 C 15.660156 22.394531 15.804688 23.609375 16.03125 24.695312 L 18.523438 24.695312 C 18.40625 23.613281 18.328125 22.445312 18.328125 21.253906 C 18.328125 20.070312 18.40625 18.945312 18.519531 17.917969 Z M 19.5625 17.917969 C 19.441406 18.941406 19.363281 20.070312 19.363281 21.253906 C 19.363281 22.445312 19.445312 23.613281 19.566406 24.695312 L 22.226562 24.695312 L 22.226562 17.917969 Z M 23.261719 17.917969 L 23.261719 24.695312 L 25.921875 24.695312 C 26.039062 23.613281 26.121094 22.445312 26.121094 21.253906 C 26.121094 20.070312 26.042969 18.941406 25.921875 17.917969 Z M 26.964844 17.917969 C 27.078125 18.945312 27.15625 20.070312 27.15625 21.253906 C 27.15625 22.445312 27.078125 23.613281 26.960938 24.695312 L 29.375 24.695312 C 29.378906 24.695312 29.382812 24.695312 29.386719 24.695312 C 29.628906 23.597656 29.792969 22.375 29.796875 21.082031 C 29.796875 19.910156 29.664062 18.855469 29.460938 17.917969 Z M 16.585938 26.703125 C 17.152344 28.351562 17.808594 29.464844 17.996094 29.769531 L 19.410156 29.769531 C 19.253906 29.128906 19.011719 28.042969 18.792969 26.703125 Z M 19.84375 26.703125 C 20.078125 28.125 20.339844 29.226562 20.476562 29.769531 L 22.226562 29.769531 L 22.226562 26.703125 Z M 23.261719 26.703125 L 23.261719 29.769531 L 25.007812 29.769531 C 25.148438 29.226562 25.40625 28.125 25.640625 26.703125 Z M 26.691406 26.703125 C 26.476562 28.042969 26.234375 29.128906 26.074219 29.769531 L 27.480469 29.769531 C 27.667969 29.449219 28.277344 28.324219 28.824219 26.703125 Z M 12.578125 32.183594 C 3.972656 32.945312 8.277344 32.566406 12.578125 32.183594 Z M 12.578125 32.183594 "/>
<path fill-rule="nonzero" fill="rgb(100%, 100%, 100%)" fill-opacity="1" stroke-width="15.7203" stroke-linecap="round" stroke-linejoin="round" stroke="rgb(100%, 100%, 100%)" stroke-opacity="1" stroke-miterlimit="4" d="M 138.344727 34.055176 L 176.293945 34.055176 L 176.293945 219.694824 L 138.344727 219.694824 Z M 138.344727 34.055176 " transform="matrix(0.0551724, 0, 0, 0.0551724, 0, 0)"/>
<path fill-rule="nonzero" fill="rgb(100%, 100%, 100%)" fill-opacity="1" stroke-width="47.516602" stroke-linecap="round" stroke-linejoin="round" stroke="rgb(100%, 100%, 100%)" stroke-opacity="1" stroke-miterlimit="4" d="M 101.740723 247.236328 C 100.041504 237.182617 141.955566 216.296387 157.460938 216.296387 C 173.037109 216.225586 213.322754 240.014648 216.296387 247.236328 L 216.296387 519.394531 C 187.55127 535.112305 118.237305 532.067871 101.740723 519.394531 Z M 101.740723 247.236328 " transform="matrix(0.0551724, 0, 0, 0.0551724, 0, 0)"/>
</svg>
