<?xml version="1.0" encoding="UTF-8"?>
<svg xmlns="http://www.w3.org/2000/svg" xmlns:xlink="http://www.w3.org/1999/xlink" width="12" height="12" viewBox="0 0 12 12" version="1.1">
<g id="surface1">
<path style=" stroke:none;fill-rule:nonzero;fill:rgb(100%,100%,100%);fill-opacity:1;" d="M 3.578125 9.796875 L 6.132812 10.972656 C 6.132812 10.972656 6.433594 11.148438 6.933594 10.972656 L 11.070312 9.320312 C 11.070312 9.320312 11.664062 8.945312 10.910156 8.597656 L 7.886719 9.21875 L 6.558594 8.894531 L 8.5625 8.769531 C 8.5625 8.769531 9.214844 8.292969 8.589844 7.84375 L 6.484375 7.84375 C 6.484375 7.84375 5.558594 7.316406 4.203125 7.566406 L 0.921875 7.390625 L 0.921875 9.890625 C 1.894531 9.832031 3.179688 9.664062 3.578125 9.796875 Z M 3.578125 9.796875 "/>
<path style=" stroke:none;fill-rule:nonzero;fill:rgb(100%,100%,100%);fill-opacity:1;" d="M 6.671875 7.222656 C 6.414062 7.089844 6.035156 6.984375 5.878906 6.933594 L 5.542969 6.871094 L 5.542969 6.421875 L 8.101562 6.421875 L 8.101562 6.691406 C 8.101562 6.839844 8.085938 7.023438 8.070312 7.101562 L 8.042969 7.246094 L 7.445312 7.242188 C 6.96875 7.238281 6.921875 7.253906 6.671875 7.222656 Z M 5.53125 4.964844 C 5.523438 4.308594 5.507812 4.152344 5.449219 4.117188 C 5.398438 4.085938 5.167969 4.195312 4.5625 4.539062 C 4.113281 4.792969 3.695312 5.023438 3.628906 5.046875 C 3.414062 5.128906 3.167969 4.933594 3.167969 4.679688 C 3.167969 4.535156 3.402344 4.378906 4.671875 3.671875 L 5.925781 2.972656 L 6.132812 3.078125 C 6.285156 3.152344 6.449219 3.1875 6.734375 3.203125 C 7.074219 3.21875 7.160156 3.207031 7.414062 3.105469 C 7.644531 3.011719 7.722656 3 7.800781 3.039062 C 8.332031 3.320312 10.328125 4.480469 10.371094 4.535156 C 10.53125 4.738281 10.324219 5.113281 10.070312 5.078125 C 10.003906 5.066406 9.546875 4.835938 9.0625 4.5625 C 8.226562 4.089844 8.175781 4.066406 8.117188 4.148438 C 8.070312 4.214844 8.054688 4.425781 8.054688 5.003906 L 8.054688 5.769531 L 5.542969 5.769531 Z M 6.550781 2.582031 C 6.082031 2.453125 5.792969 2.074219 5.792969 1.589844 C 5.789062 1.175781 5.984375 0.863281 6.34375 0.683594 C 6.523438 0.59375 6.59375 0.578125 6.820312 0.578125 C 7.035156 0.578125 7.113281 0.59375 7.25 0.664062 C 7.628906 0.863281 7.828125 1.1875 7.828125 1.589844 C 7.824219 2.269531 7.195312 2.757812 6.550781 2.582031 Z M 6.550781 2.582031 "/>
</g>
</svg>
