<?xml version="1.0" encoding="UTF-8"?>
<svg xmlns="http://www.w3.org/2000/svg" xmlns:xlink="http://www.w3.org/1999/xlink" width="12" height="12" viewBox="0 0 12 12" version="1.1">
<g id="surface1">
<path style=" stroke:none;fill-rule:nonzero;fill:rgb(24.705882%,24.705882%,24.705882%);fill-opacity:1;" d="M 1.855469 1.144531 C 1.660156 0.953125 1.339844 0.953125 1.144531 1.144531 C 0.953125 1.339844 0.953125 1.660156 1.144531 1.855469 L 4.5 5.207031 L 4.5 10 C 4.222656 10 4 10.222656 4 10.5 C 4 10.777344 4.222656 11 4.5 11 L 7.5 11 C 7.777344 11 8 10.777344 8 10.5 C 8 10.222656 7.777344 10 7.5 10 L 7.5 8.207031 L 10.144531 10.855469 C 10.339844 11.046875 10.660156 11.046875 10.855469 10.855469 C 11.046875 10.660156 11.046875 10.339844 10.855469 10.144531 Z M 1.855469 1.144531 "/>
<path style=" stroke:none;fill-rule:nonzero;fill:rgb(24.705882%,24.705882%,24.705882%);fill-opacity:1;" d="M 10.714844 7.1875 C 10.59375 7.433594 10.410156 7.632812 10.1875 7.773438 L 9.414062 7 C 9.585938 6.996094 9.742188 6.894531 9.820312 6.742188 L 10.054688 6.277344 C 10.175781 6.03125 10.476562 5.929688 10.722656 6.054688 C 10.96875 6.175781 11.070312 6.476562 10.945312 6.722656 Z M 10.714844 7.1875 "/>
<path style=" stroke:none;fill-rule:nonzero;fill:rgb(24.705882%,24.705882%,24.705882%);fill-opacity:1;" d="M 7.5 4.5 L 7.5 5.085938 L 5.5 3.085938 L 5.5 2 L 4.5 2 C 4.46875 2 4.4375 1.996094 4.40625 1.992188 L 4.007812 1.59375 C 4.003906 1.5625 4 1.53125 4 1.5 C 4 1.222656 4.222656 1 4.5 1 L 7.5 1 C 7.777344 1 8 1.222656 8 1.5 C 8 1.777344 7.777344 2 7.5 2 L 6.5 2 L 6.5 3.085938 C 7.082031 3.292969 7.5 3.847656 7.5 4.5 Z M 7.5 4.5 "/>
</g>
</svg>
