<?xml version="1.0" encoding="UTF-8"?>
<svg xmlns="http://www.w3.org/2000/svg" xmlns:xlink="http://www.w3.org/1999/xlink" width="12" height="12" viewBox="0 0 12 12" version="1.1">
<g id="surface1">
<path style=" stroke:none;fill-rule:evenodd;fill:rgb(100%,100%,100%);fill-opacity:1;" d="M 8 8 L 7.15625 4.976562 C 7.0625 4.691406 6.796875 4.5 6.5 4.5 L 2 4.5 C 1.699219 4.5 1.4375 4.691406 1.34375 4.976562 L 0.5 8 L 0.5 10.75 C 0.5 11.75 2 11.75 2 10.75 L 2 10.5 L 6.5 10.5 L 6.5 10.75 C 6.5 11.75 8 11.75 8 10.75 Z M 6.28125 5.5 L 6.945312 8 L 1.554688 8 L 2.21875 5.5 Z M 2.5 9.5 C 2.5 10.167969 1.5 10.167969 1.5 9.5 C 1.5 8.832031 2.5 8.832031 2.5 9.5 Z M 7 9.5 C 7 10.167969 6 10.167969 6 9.5 C 6 8.832031 7 8.832031 7 9.5 Z M 7 9.5 "/>
<path style=" stroke:none;fill-rule:evenodd;fill:rgb(100%,100%,100%);fill-opacity:1;" d="M 6 1 C 6 1.277344 5.777344 1.5 5.5 1.5 C 5.222656 1.5 5 1.277344 5 1 C 5 0.722656 5.222656 0.5 5.5 0.5 C 5.777344 0.5 6 0.722656 6 1 Z M 6 4 L 6 2.75 C 6 2.886719 6.113281 3 6.25 3 C 6.386719 3 6.5 2.886719 6.5 2.75 L 6.5 1.75 C 6.5 1.613281 6.386719 1.5 6.25 1.5 L 4.75 1.5 C 4.613281 1.5 4.5 1.613281 4.5 1.75 L 4.5 2.75 C 4.5 2.886719 4.613281 3 4.75 3 C 4.886719 3 5 2.886719 5 2.75 L 5 4 Z M 6 4 "/>
<path style=" stroke:none;fill-rule:evenodd;fill:rgb(100%,100%,100%);fill-opacity:1;" d="M 8.5 1 C 8.5 1.277344 8.277344 1.5 8 1.5 C 7.722656 1.5 7.5 1.277344 7.5 1 C 7.5 0.722656 7.722656 0.5 8 0.5 C 8.277344 0.5 8.5 0.722656 8.5 1 Z M 8.5 4 L 8.5 2.75 C 8.5 2.886719 8.613281 3 8.75 3 C 8.886719 3 9 2.886719 9 2.75 L 9 1.75 C 9 1.613281 8.886719 1.5 8.75 1.5 L 7.25 1.5 C 7.113281 1.5 7 1.613281 7 1.75 L 7 2.75 C 7 2.886719 7.113281 3 7.25 3 C 7.386719 3 7.5 2.886719 7.5 2.75 L 7.5 4 Z M 8.5 4 "/>
<path style=" stroke:none;fill-rule:evenodd;fill:rgb(100%,100%,100%);fill-opacity:1;" d="M 11 1 C 11 1.277344 10.777344 1.5 10.5 1.5 C 10.222656 1.5 10 1.277344 10 1 C 10 0.722656 10.222656 0.5 10.5 0.5 C 10.777344 0.5 11 0.722656 11 1 Z M 11 4 L 11 2.75 C 11 2.886719 11.113281 3 11.25 3 C 11.386719 3 11.5 2.886719 11.5 2.75 L 11.5 1.75 C 11.5 1.613281 11.386719 1.5 11.25 1.5 L 9.75 1.5 C 9.613281 1.5 9.5 1.613281 9.5 1.75 L 9.5 2.75 C 9.5 2.886719 9.613281 3 9.75 3 C 9.886719 3 10 2.886719 10 2.75 L 10 4 Z M 11 4 "/>
</g>
</svg>
