<?xml version="1.0" encoding="UTF-8"?>
<svg xmlns="http://www.w3.org/2000/svg" xmlns:xlink="http://www.w3.org/1999/xlink" width="32" height="32" viewBox="0 0 32 32">
<path fill-rule="evenodd" fill="rgb(100%, 100%, 100%)" fill-opacity="1" d="M 22.667969 2.667969 C 22.667969 3.402344 22.070312 4 21.332031 4 C 20.597656 4 20 3.402344 20 2.667969 C 20 1.929688 20.597656 1.332031 21.332031 1.332031 C 22.070312 1.332031 22.667969 1.929688 22.667969 2.667969 Z M 22.667969 10.667969 L 22.667969 7.332031 C 22.667969 7.703125 22.964844 8 23.332031 8 C 23.703125 8 24 7.703125 24 7.332031 L 24 4.667969 C 24 4.296875 23.703125 4 23.332031 4 L 19.332031 4 C 18.964844 4 18.667969 4.296875 18.667969 4.667969 L 18.667969 7.332031 C 18.667969 7.703125 18.964844 8 19.332031 8 C 19.703125 8 20 7.703125 20 7.332031 L 20 10.667969 Z M 22.667969 10.667969 "/>
<path fill-rule="evenodd" fill="rgb(100%, 100%, 100%)" fill-opacity="1" d="M 29.332031 2.667969 C 29.332031 3.402344 28.738281 4 28 4 C 27.261719 4 26.667969 3.402344 26.667969 2.667969 C 26.667969 1.929688 27.261719 1.332031 28 1.332031 C 28.738281 1.332031 29.332031 1.929688 29.332031 2.667969 Z M 29.332031 10.667969 L 29.332031 7.332031 C 29.332031 7.703125 29.632812 8 30 8 C 30.367188 8 30.667969 7.703125 30.667969 7.332031 L 30.667969 4.667969 C 30.667969 4.296875 30.367188 4 30 4 L 26 4 C 25.632812 4 25.332031 4.296875 25.332031 4.667969 L 25.332031 7.332031 C 25.332031 7.703125 25.632812 8 26 8 C 26.367188 8 26.667969 7.703125 26.667969 7.332031 L 26.667969 10.667969 Z M 29.332031 10.667969 "/>
<path fill-rule="nonzero" fill="rgb(100%, 100%, 100%)" fill-opacity="1" d="M 13.332031 8 L 1.332031 22.667969 L 13.332031 22.667969 Z M 13.332031 8 "/>
<path fill-rule="nonzero" fill="rgb(100%, 100%, 100%)" fill-opacity="1" d="M 14.667969 22.667969 L 22.667969 22.667969 C 22.667969 20 21.386719 17.148438 20 15.398438 C 18.652344 13.667969 16.519531 11.539062 14.667969 10.667969 Z M 14.667969 22.667969 "/>
<path fill-rule="nonzero" fill="rgb(100%, 100%, 100%)" fill-opacity="1" d="M 4 24 L 4 26.667969 C 4.394531 26.667969 5.035156 27.105469 5.332031 27.351562 C 5.640625 27.59375 6.347656 28 6.667969 28 C 6.988281 28 7.433594 27.78125 8.007812 27.332031 C 8.578125 26.894531 9.019531 26.671875 9.328125 26.671875 C 9.648438 26.671875 10.09375 26.894531 10.667969 27.339844 C 11.238281 27.78125 11.679688 28 11.988281 28 C 12.308594 28 12.753906 27.78125 13.320312 27.332031 C 13.898438 26.894531 14.347656 26.671875 14.667969 26.671875 C 14.972656 26.671875 15.414062 26.894531 15.988281 27.339844 C 16.558594 27.78125 16.867188 28 17.328125 28 C 17.792969 28 18.367188 27.632812 18.660156 27.378906 C 19.125 26.980469 19.527344 26.691406 20 26.667969 L 22.667969 24 Z M 4 24 "/>
<path fill-rule="nonzero" fill="rgb(100%, 100%, 100%)" fill-opacity="1" d="M 14.667969 28 C 14.199219 28.027344 13.800781 28.3125 13.328125 28.714844 C 13.035156 28.964844 12.460938 29.332031 11.992188 29.332031 C 11.527344 29.332031 11.226562 29.113281 10.652344 28.667969 C 10.078125 28.226562 9.640625 28.007812 9.332031 28.007812 C 9.011719 28.007812 8.566406 28.226562 7.992188 28.671875 C 7.421875 29.113281 6.972656 29.332031 6.652344 29.332031 C 6.347656 29.332031 5.90625 29.113281 5.332031 28.667969 C 4.761719 28.226562 4.3125 28.007812 3.992188 28.007812 C 3.6875 28.007812 3.246094 28.226562 2.671875 28.671875 C 2.101562 29.113281 1.652344 29.332031 1.332031 29.332031 L 1.332031 30.667969 C 1.652344 30.667969 2.101562 30.445312 2.671875 30 C 3.246094 29.558594 3.6875 29.339844 3.992188 29.339844 C 4.3125 29.339844 4.761719 29.558594 5.332031 30.007812 C 5.90625 30.445312 6.347656 30.667969 6.652344 30.667969 C 6.972656 30.667969 7.421875 30.445312 7.992188 30 C 8.566406 29.558594 9.011719 29.339844 9.332031 29.339844 C 9.640625 29.339844 10.078125 29.558594 10.652344 30.007812 C 11.226562 30.445312 11.535156 30.667969 11.992188 30.667969 C 12.460938 30.667969 13.035156 30.300781 13.328125 30.046875 C 13.792969 29.648438 14.191406 29.359375 14.667969 29.332031 Z M 14.667969 28 "/>
<path fill-rule="nonzero" fill="rgb(100%, 100%, 100%)" fill-opacity="1" d="M 25.332031 28 C 24.867188 28.027344 24.464844 28.3125 23.992188 28.714844 C 23.699219 28.964844 23.125 29.332031 22.660156 29.332031 C 22.191406 29.332031 21.894531 29.113281 21.320312 28.667969 C 20.746094 28.226562 20.308594 28.007812 20 28.007812 C 19.679688 28.007812 19.234375 28.226562 18.660156 28.671875 C 18.085938 29.113281 17.640625 29.332031 17.320312 29.332031 C 17.011719 29.332031 16.574219 29.113281 16 28.667969 C 15.425781 28.226562 14.980469 28.007812 14.660156 28.007812 C 14.351562 28.007812 13.914062 28.226562 13.339844 28.671875 C 12.765625 29.113281 12.320312 29.332031 12 29.332031 C 11.511719 29.21875 11.058594 29 10.667969 28.6875 C 10.367188 28.441406 9.726562 28 9.332031 28 L 9.332031 29.332031 C 9.726562 29.332031 10.367188 29.773438 10.667969 30.019531 C 10.972656 30.261719 11.679688 30.667969 12 30.667969 C 12.320312 30.667969 12.765625 30.445312 13.339844 30 C 13.914062 29.558594 14.351562 29.339844 14.660156 29.339844 C 14.980469 29.339844 15.425781 29.558594 16 30.007812 C 16.574219 30.445312 17.011719 30.667969 17.320312 30.667969 C 17.640625 30.667969 18.085938 30.445312 18.660156 30 C 19.234375 29.558594 19.679688 29.339844 20 29.339844 C 20.308594 29.339844 20.746094 29.558594 21.320312 30.007812 C 21.894531 30.445312 22.199219 30.667969 22.660156 30.667969 C 23.125 30.667969 23.699219 30.300781 23.992188 30.046875 C 24.460938 29.648438 24.859375 29.359375 25.332031 29.332031 Z M 25.332031 28 "/>
</svg>
