<?xml version="1.0" encoding="UTF-8"?>
<svg xmlns="http://www.w3.org/2000/svg" xmlns:xlink="http://www.w3.org/1999/xlink" width="12" height="12" viewBox="0 0 12 12" version="1.1">
<g id="surface1">
<path style=" stroke:none;fill-rule:nonzero;fill:rgb(24.705882%,24.705882%,24.705882%);fill-opacity:1;" d="M 9 7 L 9 8 L 3 8 L 3 7 C 1.894531 7 1 6.105469 1 5 C 1 3.894531 1.894531 3 3 3 C 3.1875 3 3.367188 3.023438 3.535156 3.074219 C 3.738281 1.894531 4.765625 1 6 1 C 7.234375 1 8.261719 1.894531 8.464844 3.074219 C 8.632812 3.023438 8.8125 3 9 3 C 10.105469 3 11 3.894531 11 5 C 11 6.105469 10.105469 7 9 7 Z M 9 7 "/>
<path style=" stroke:none;fill-rule:nonzero;fill:rgb(24.705882%,24.705882%,24.705882%);fill-opacity:1;" d="M 9 9 L 9 10 L 3 10 L 3 9 Z M 9 9 "/>
</g>
</svg>
