<?xml version="1.0" encoding="UTF-8"?>
<svg xmlns="http://www.w3.org/2000/svg" xmlns:xlink="http://www.w3.org/1999/xlink" width="32" height="32" viewBox="0 0 32 32">
<path fill-rule="nonzero" fill="rgb(100%, 100%, 100%)" fill-opacity="0.4" d="M 19.824219 17.132812 L 16 20 L 15.144531 23.421875 C 14.839844 24.636719 14.023438 25.65625 12.90625 26.214844 L 12.859375 26.238281 C 12.292969 26.519531 11.671875 26.667969 11.039062 26.667969 C 7.886719 26.667969 5.332031 24.113281 5.332031 20.960938 C 5.332031 20.328125 5.480469 19.707031 5.761719 19.140625 L 5.785156 19.09375 C 6.34375 17.976562 7.363281 17.160156 8.578125 16.855469 L 12 16 L 14.867188 12.175781 C 15.464844 11.378906 16.628906 11.296875 17.332031 12 L 20 14.667969 C 20.703125 15.371094 20.621094 16.535156 19.824219 17.132812 Z M 19.824219 17.132812 "/>
<path fill-rule="nonzero" fill="rgb(100%, 100%, 100%)" fill-opacity="1" d="M 17.332031 16 C 17.332031 16.738281 16.738281 17.332031 16 17.332031 C 15.261719 17.332031 14.667969 16.738281 14.667969 16 C 14.667969 15.261719 15.261719 14.667969 16 14.667969 C 16.738281 14.667969 17.332031 15.261719 17.332031 16 Z M 17.332031 16 "/>
<path fill-rule="nonzero" fill="rgb(100%, 100%, 100%)" fill-opacity="1" d="M 10.277344 19.058594 C 9.753906 18.535156 8.910156 18.535156 8.390625 19.058594 C 7.871094 19.578125 7.871094 20.421875 8.390625 20.941406 L 11.058594 23.609375 C 11.578125 24.128906 12.421875 24.128906 12.941406 23.609375 C 13.464844 23.089844 13.464844 22.246094 12.941406 21.722656 Z M 10.277344 19.058594 "/>
<path fill-rule="evenodd" fill="rgb(100%, 100%, 100%)" fill-opacity="1" d="M 29.414062 2.585938 C 30.195312 3.367188 30.195312 4.632812 29.414062 5.414062 L 28.082031 6.746094 C 27.660156 7.167969 27.105469 7.359375 26.554688 7.332031 L 21.496094 12.390625 L 21.886719 12.78125 C 23.738281 14.632812 23.519531 17.695312 21.425781 19.265625 L 18.355469 21.566406 L 17.730469 24.070312 C 16.976562 27.089844 14.152344 29.332031 11.039062 29.332031 C 6.414062 29.332031 2.667969 25.585938 2.667969 20.960938 C 2.667969 17.839844 4.90625 15.023438 7.929688 14.269531 L 10.433594 13.640625 L 12.734375 10.574219 C 14.304688 8.480469 17.367188 8.261719 19.21875 10.113281 L 19.609375 10.503906 L 24.667969 5.445312 C 24.640625 4.894531 24.832031 4.339844 25.253906 3.917969 L 26.585938 2.585938 C 27.367188 1.804688 28.632812 1.804688 29.414062 2.585938 Z M 17.332031 12 C 16.628906 11.296875 15.464844 11.378906 14.867188 12.175781 L 12 16 L 8.578125 16.855469 C 6.726562 17.320312 5.332031 19.046875 5.332031 20.960938 C 5.332031 24.113281 7.886719 26.667969 11.039062 26.667969 C 12.949219 26.667969 14.683594 25.269531 15.144531 23.421875 L 16 20 L 19.824219 17.132812 C 20.621094 16.535156 20.703125 15.371094 20 14.667969 Z M 17.332031 12 "/>
</svg>
