<svg width="48" height="48" viewBox="0 0 48 48" fill="none" xmlns="http://www.w3.org/2000/svg">
<circle opacity="0.3" cx="24" cy="36" r="4" fill="#3f3f3f"/>
<path opacity="0.2" d="M20.4666 22.1235C20.1688 22.6831 20 23.3218 20 24C20 26.2092 21.7909 28 24 28C24.6782 28 25.3169 27.8312 25.8765 27.5334L20.4666 22.1235Z" fill="#3f3f3f"/>
<path opacity="0.6" d="M25.4036 15.7468C26.9204 15.1783 28 13.7152 28 12C28 9.79086 26.2091 8 24 8C22.2847 8 20.8216 9.0796 20.2532 10.5964L25.4036 15.7468Z" fill="#3f3f3f"/>
<path fill-rule="evenodd" clip-rule="evenodd" d="M7.41421 4.58579C6.63317 3.80474 5.36683 3.80474 4.58579 4.58579C3.80474 5.36683 3.80474 6.63317 4.58579 7.41421L16 18.8284V36C16 40.4183 19.5817 44 24 44C28.4183 44 32 40.4183 32 36V34.8284L40.5858 43.4142C41.3668 44.1953 42.6332 44.1953 43.4142 43.4142C44.1953 42.6332 44.1953 41.3668 43.4142 40.5858L7.41421 4.58579ZM25.0361 27.8645L20.1355 22.9639C20.0471 23.2944 20 23.6417 20 24C20 26.2091 21.7909 28 24 28C24.3583 28 24.7056 27.9529 25.0361 27.8645ZM28 36C28 38.2091 26.2091 40 24 40C21.7909 40 20 38.2091 20 36C20 33.7909 21.7909 32 24 32C26.2091 32 28 33.7909 28 36Z" fill="#3f3f3f"/>
<path d="M32 12V22.3431L25.4036 15.7468C26.9204 15.1783 28 13.7152 28 12C28 9.79086 26.2091 8 24 8C22.2848 8 20.8217 9.0796 20.2532 10.5964L17.2936 7.6367C18.7209 5.44727 21.1915 4 24 4C28.4183 4 32 7.58172 32 12Z" fill="#3f3f3f"/>
</svg>
