<?xml version="1.0" encoding="UTF-8"?>
<svg xmlns="http://www.w3.org/2000/svg" xmlns:xlink="http://www.w3.org/1999/xlink" width="32" height="32" viewBox="0 0 32 32">
<path fill-rule="evenodd" fill="rgb(100%, 100%, 100%)" fill-opacity="1" d="M 20 2.667969 C 20 3.402344 19.402344 4 18.667969 4 C 17.929688 4 17.332031 3.402344 17.332031 2.667969 C 17.332031 1.929688 17.929688 1.332031 18.667969 1.332031 C 19.402344 1.332031 20 1.929688 20 2.667969 Z M 20 10.667969 L 20 7.332031 C 20 7.703125 20.296875 8 20.667969 8 C 21.035156 8 21.332031 7.703125 21.332031 7.332031 L 21.332031 4.667969 C 21.332031 4.296875 21.035156 4 20.667969 4 L 16.667969 4 C 16.296875 4 16 4.296875 16 4.667969 L 16 7.332031 C 16 7.703125 16.296875 8 16.667969 8 C 17.035156 8 17.332031 7.703125 17.332031 7.332031 L 17.332031 10.667969 Z M 20 10.667969 "/>
<path fill-rule="evenodd" fill="rgb(100%, 100%, 100%)" fill-opacity="1" d="M 17.332031 13.332031 C 16.597656 13.332031 16 13.929688 16 14.667969 C 16 15.402344 16.597656 16 17.332031 16 L 18.667969 16 L 18.667969 18.667969 L 12.554688 18.667969 L 12.464844 18.578125 C 13.066406 18.351562 13.421875 17.726562 13.304688 17.097656 C 13.191406 16.464844 12.640625 16.003906 12 16 L 9.332031 16 C 8.796875 16.003906 8.3125 16.328125 8.105469 16.824219 C 7.902344 17.320312 8.015625 17.890625 8.394531 18.273438 L 10.378906 20.261719 L 9.828125 21.367188 C 7.746094 21.109375 5.816406 22.503906 5.410156 24.558594 C 5.003906 26.617188 6.253906 28.640625 8.277344 29.195312 C 10.300781 29.75 12.410156 28.644531 13.105469 26.667969 L 18.894531 26.667969 C 19.589844 28.644531 21.699219 29.75 23.722656 29.195312 C 25.746094 28.640625 26.996094 26.617188 26.589844 24.558594 C 26.183594 22.503906 24.253906 21.109375 22.171875 21.367188 L 21.332031 19.6875 L 21.332031 14.667969 C 21.332031 13.929688 20.738281 13.332031 20 13.332031 Z M 13.105469 24 C 12.914062 23.460938 12.613281 22.964844 12.214844 22.554688 L 12.828125 21.332031 L 19.171875 21.332031 L 19.785156 22.554688 C 19.386719 22.964844 19.085938 23.460938 18.894531 24 Z M 10.667969 25.332031 C 10.667969 26.070312 10.070312 26.667969 9.332031 26.667969 C 8.597656 26.667969 8 26.070312 8 25.332031 C 8 24.597656 8.597656 24 9.332031 24 C 10.070312 24 10.667969 24.597656 10.667969 25.332031 Z M 24 25.332031 C 24 26.070312 23.402344 26.667969 22.667969 26.667969 C 21.929688 26.667969 21.332031 26.070312 21.332031 25.332031 C 21.332031 24.597656 21.929688 24 22.667969 24 C 23.402344 24 24 24.597656 24 25.332031 Z M 24 25.332031 "/>
<path fill-rule="evenodd" fill="rgb(100%, 100%, 100%)" fill-opacity="1" d="M 28 2.667969 C 28 3.402344 27.402344 4 26.667969 4 C 25.929688 4 25.332031 3.402344 25.332031 2.667969 C 25.332031 1.929688 25.929688 1.332031 26.667969 1.332031 C 27.402344 1.332031 28 1.929688 28 2.667969 Z M 28 10.667969 L 28 7.332031 C 28 7.703125 28.296875 8 28.667969 8 C 29.035156 8 29.332031 7.703125 29.332031 7.332031 L 29.332031 4.667969 C 29.332031 4.296875 29.035156 4 28.667969 4 L 24.667969 4 C 24.296875 4 24 4.296875 24 4.667969 L 24 7.332031 C 24 7.703125 24.296875 8 24.667969 8 C 25.035156 8 25.332031 7.703125 25.332031 7.332031 L 25.332031 10.667969 Z M 28 10.667969 "/>
</svg>
