<svg width="12" height="12" viewBox="0 0 580 580" fill="none" xmlns="http://www.w3.org/2000/svg">
<path d="M513.16 220.769H449.233V434.338H513.16V220.769Z" fill="#ffffff"/>
<path d="M175.517 217.207C206.77 217.207 232.104 191.874 232.104 160.622C232.104 157.684 231.878 154.797 231.447 151.98H259.707L232.104 118.565L265.518 72.073L118.93 73.525V151.979H119.586C119.154 154.796 118.93 157.683 118.93 160.621C118.93 191.873 144.265 217.207 175.517 217.207Z" fill="#ffffff"/>
<path d="M412.049 444.004C412.45 443.729 412.858 443.465 413.248 443.162C423.214 435.391 424.995 421.013 417.224 411.047L283.564 239.608C279.228 234.046 272.57 230.796 265.517 230.796H89.7231C87.3051 230.796 84.9771 231.176 82.7891 231.871L265.518 420.815V290.894L381.133 439.186C382.624 441.099 384.362 442.704 386.263 444.004H288.765V507.928H495.068V444.004H412.049Z" fill="#ffffff"/>
<path d="M272.133 454.9H136.135V433.106H247.089L67.6821 247.6C67.1491 249.538 66.8401 251.57 66.8401 253.678V473.059C66.8401 485.697 77.0851 495.942 89.7231 495.942H258.254C270.892 495.942 281.137 485.697 281.137 473.059C281.137 465.646 277.6 459.077 272.133 454.9Z" fill="#ffffff"/>
</svg>
