<?xml version="1.0" encoding="UTF-8"?>
<svg xmlns="http://www.w3.org/2000/svg" xmlns:xlink="http://www.w3.org/1999/xlink" width="12" height="12" viewBox="0 0 12 12" version="1.1">
<g id="surface1">
<path style=" stroke:none;fill-rule:nonzero;fill:rgb(100%,100%,100%);fill-opacity:1;" d="M 10.109375 1.875 C 9.882812 1.617188 9.605469 1.464844 9.367188 1.464844 C 9.246094 1.464844 9.140625 1.507812 9.0625 1.589844 L 6.277344 4.519531 C 6.121094 4.679688 6.0625 4.898438 6.101562 5.085938 L 5.082031 5.902344 C 5.050781 5.925781 5.035156 5.960938 5.035156 6 L 5.035156 7.925781 L 4.195312 7.507812 C 3.808594 7.316406 3.308594 7.457031 3.078125 7.824219 L 1.679688 10.050781 C 1.449219 10.414062 1.601562 10.617188 2.015625 10.503906 L 6.542969 9.253906 C 6.957031 9.140625 6.980469 8.890625 6.59375 8.699219 L 5.460938 8.164062 L 5.460938 6.171875 L 6.394531 5.429688 C 6.445312 5.472656 6.457031 5.503906 6.613281 5.503906 C 6.753906 5.503906 6.890625 5.433594 7.007812 5.347656 L 10.261719 2.949219 C 10.355469 2.882812 10.410156 2.777344 10.425781 2.648438 C 10.449219 2.417969 10.332031 2.128906 10.109375 1.875 Z M 10.109375 1.875 "/>
</g>
</svg>
