<?xml version="1.0" encoding="UTF-8"?>
<svg xmlns="http://www.w3.org/2000/svg" xmlns:xlink="http://www.w3.org/1999/xlink" width="32" height="32" viewBox="0 0 32 32">
<path fill-rule="nonzero" fill="rgb(100%, 100%, 100%)" fill-opacity="1" d="M 3.714844 10.925781 L 3.222656 18.167969 L 2.117188 19.652344 L 2.117188 27.496094 L 16.820312 27.496094 L 16.820312 21.425781 L 15.605469 19.382812 L 6.8125 18.167969 L 6.421875 10.925781 Z M 3.714844 10.925781 "/>
<path fill-rule="nonzero" fill="rgb(100%, 100%, 100%)" fill-opacity="1" d="M 5.128906 9.277344 C 5.675781 9.277344 6.121094 8.832031 6.121094 8.28125 C 6.121094 8.265625 6.121094 8.246094 6.121094 8.230469 C 6.238281 8.265625 6.363281 8.28125 6.496094 8.28125 C 7.25 8.28125 7.859375 7.671875 7.859375 6.917969 C 7.859375 6.808594 7.847656 6.703125 7.824219 6.601562 C 7.921875 6.613281 8.023438 6.621094 8.128906 6.621094 C 9.03125 6.621094 9.761719 6.085938 9.761719 5.425781 C 9.761719 4.765625 9.03125 4.226562 8.128906 4.226562 C 7.226562 4.226562 6.496094 4.765625 6.496094 5.425781 C 6.496094 5.46875 6.496094 5.511719 6.503906 5.550781 C 6.5 5.550781 6.496094 5.550781 6.496094 5.550781 C 5.742188 5.550781 5.128906 6.164062 5.128906 6.917969 C 5.128906 7.046875 5.148438 7.171875 5.183594 7.292969 C 5.164062 7.292969 5.148438 7.289062 5.128906 7.289062 C 4.582031 7.289062 4.136719 7.734375 4.136719 8.28125 C 4.136719 8.832031 4.582031 9.277344 5.128906 9.277344 Z M 5.128906 9.277344 "/>
<path fill-rule="evenodd" fill="rgb(100%, 100%, 100%)" fill-opacity="1" d="M 28.046875 12.023438 C 28.046875 12.277344 27.84375 12.414062 27.835938 12.695312 C 27.832031 12.902344 27.996094 13.058594 27.976562 13.261719 C 27.957031 13.488281 27.4375 13.765625 27.625 13.828125 C 30.382812 14.710938 29.960938 17.566406 29.675781 19.660156 C 29.542969 20.625 29.070312 21.761719 28.683594 22.523438 C 28.507812 22.878906 28.25 23.316406 27.976562 23.761719 C 27.746094 24.140625 27.289062 24.695312 27.269531 24.960938 C 27.25 25.242188 27.476562 25.453125 27.414062 25.917969 C 27.246094 27.140625 25.699219 27.898438 24.054688 27.753906 C 22.996094 27.664062 21.828125 27.15625 21.683594 26.058594 C 21.632812 25.664062 21.746094 25.257812 21.683594 24.925781 C 21.632812 24.644531 21.296875 24.269531 21.085938 23.902344 C 20.515625 22.917969 19.949219 21.738281 19.636719 20.507812 C 19.492188 19.949219 18.292969 15.382812 21.226562 13.828125 C 21.242188 13.648438 20.9375 13.5625 20.90625 13.296875 C 20.886719 13.128906 21.054688 12.914062 21.050781 12.695312 C 21.042969 12.417969 20.824219 12.285156 20.835938 12.09375 C 20.863281 11.730469 21.332031 11.574219 21.757812 11.5625 C 22.003906 10.777344 22.410156 10.144531 22.992188 9.691406 C 23.457031 9.542969 23.851562 9.324219 24.089844 8.949219 C 23.84375 8.390625 24.03125 7.644531 24.621094 7.816406 C 24.710938 7.84375 24.917969 8.035156 24.9375 8.242188 C 24.964844 8.515625 24.757812 8.574219 24.796875 8.914062 C 24.816406 9.089844 24.902344 9.074219 24.9375 9.265625 C 25.914062 9.703125 26.570312 10.460938 27.058594 11.386719 C 27.433594 11.554688 27.878906 11.652344 28.046875 12.023438 Z M 28.046875 12.023438 "/>
</svg>
