<?xml version="1.0" encoding="UTF-8"?>
<svg xmlns="http://www.w3.org/2000/svg" xmlns:xlink="http://www.w3.org/1999/xlink" width="12" height="12" viewBox="0 0 12 12" version="1.1">
<g id="surface1">
<path style=" stroke:none;fill-rule:nonzero;fill:rgb(100%,100%,100%);fill-opacity:1;" d="M 5 9.5 C 5 10.328125 4.328125 11 3.5 11 C 2.671875 11 2 10.328125 2 9.5 C 2 8.671875 2.671875 8 3.5 8 C 4.328125 8 5 8.671875 5 9.5 Z M 5 9.5 "/>
<path style=" stroke:none;fill-rule:evenodd;fill:rgb(100%,100%,100%);fill-opacity:0.698039;" d="M 9.199219 1.980469 C 9.65625 1.886719 10 1.484375 10 1 C 10 0.449219 9.550781 0 9 0 C 8.449219 0 8 0.449219 8 1 C 8 1.253906 8.09375 1.488281 8.25 1.664062 L 7.800781 3.019531 C 7.40625 3.101562 7.101562 3.40625 7.019531 3.800781 L 5.664062 4.25 C 5.488281 4.09375 5.253906 4 5 4 C 4.449219 4 4 4.449219 4 5 C 4 5.253906 4.09375 5.488281 4.25 5.664062 L 3.027344 9.34375 L 3.972656 9.65625 L 5.199219 5.980469 C 5.59375 5.898438 5.898438 5.59375 5.980469 5.199219 L 7.335938 4.75 C 7.511719 4.90625 7.746094 5 8 5 C 8.550781 5 9 4.550781 9 4 C 9 3.746094 8.90625 3.511719 8.75 3.335938 Z M 9.199219 1.980469 "/>
</g>
</svg>
