<?xml version="1.0" encoding="UTF-8"?>
<svg xmlns="http://www.w3.org/2000/svg" xmlns:xlink="http://www.w3.org/1999/xlink" width="12" height="12" viewBox="0 0 12 12" version="1.1">
<g id="surface1">
<path style=" stroke:none;fill-rule:evenodd;fill:rgb(98.823529%,98.823529%,98.823529%);fill-opacity:1;" d="M 2 1 C 2 1.277344 1.777344 1.5 1.5 1.5 C 1.222656 1.5 1 1.277344 1 1 C 1 0.722656 1.222656 0.5 1.5 0.5 C 1.777344 0.5 2 0.722656 2 1 Z M 2 4 L 2 2.75 C 2 2.886719 2.113281 3 2.25 3 C 2.386719 3 2.5 2.886719 2.5 2.75 L 2.5 1.75 C 2.5 1.613281 2.386719 1.5 2.25 1.5 L 0.75 1.5 C 0.613281 1.5 0.5 1.613281 0.5 1.75 L 0.5 2.75 C 0.5 2.886719 0.613281 3 0.75 3 C 0.886719 3 1 2.886719 1 2.75 L 1 4 Z M 2 4 "/>
<path style=" stroke:none;fill-rule:evenodd;fill:rgb(98.823529%,98.823529%,98.823529%);fill-opacity:1;" d="M 4.5 1 C 4.5 1.277344 4.277344 1.5 4 1.5 C 3.722656 1.5 3.5 1.277344 3.5 1 C 3.5 0.722656 3.722656 0.5 4 0.5 C 4.277344 0.5 4.5 0.722656 4.5 1 Z M 4.5 4 L 4.5 2.75 C 4.5 2.886719 4.613281 3 4.75 3 C 4.886719 3 5 2.886719 5 2.75 L 5 1.75 C 5 1.613281 4.886719 1.5 4.75 1.5 L 3.25 1.5 C 3.113281 1.5 3 1.613281 3 1.75 L 3 2.75 C 3 2.886719 3.113281 3 3.25 3 C 3.386719 3 3.5 2.886719 3.5 2.75 L 3.5 4 Z M 4.5 4 "/>
<path style=" stroke:none;fill-rule:evenodd;fill:rgb(100%,100%,100%);fill-opacity:1;" d="M 10 2.5 L 8 4.5 L 9.5 6 L 10 5.5 C 10 5.5 10.199219 5.78125 10.5 5.78125 C 10.800781 5.78125 11 5.5 11 5.5 L 11.5 5 L 10 3.5 Z M 2.5 4.5 L 2 5 L 3 6 L 3 7.5 L 2.5 8 L 2.5 11 L 3.5 11 L 3.5 9.5 L 4.5 8 L 8 8 L 8 11 L 9 11 L 9 6.5 L 7.5 5 L 7 5.5 L 3.5 5.5 Z M 2.5 4.5 "/>
</g>
</svg>
