<?xml version="1.0" encoding="UTF-8"?>
<svg xmlns="http://www.w3.org/2000/svg" xmlns:xlink="http://www.w3.org/1999/xlink" width="12" height="12" viewBox="0 0 12 12" version="1.1">
<g id="surface1">
<path style=" stroke:none;fill-rule:nonzero;fill:rgb(100%,100%,100%);fill-opacity:1;" d="M 6.984375 6.636719 C 6.523438 7.25 5.53125 8.035156 5.898438 8.542969 C 6.3125 9.117188 7.332031 8.113281 8.234375 8.125 C 9.136719 8.144531 10.347656 8.960938 10.675781 8.582031 C 11.195312 7.992188 9.957031 7.027344 9.292969 6.253906 C 8.707031 5.585938 7.710938 5.679688 6.984375 6.636719 Z M 6.984375 6.636719 "/>
<path style=" stroke:none;fill-rule:nonzero;fill:rgb(100%,100%,100%);fill-opacity:1;" d="M 6.039062 7.046875 C 6.449219 7.054688 6.738281 6.683594 6.683594 6.210938 C 6.628906 5.742188 6.253906 5.355469 5.828125 5.316406 C 5.429688 5.332031 5.140625 5.710938 5.199219 6.179688 C 5.25 6.648438 5.628906 7.039062 6.039062 7.046875 Z M 6.039062 7.046875 "/>
<path style=" stroke:none;fill-rule:nonzero;fill:rgb(100%,100%,100%);fill-opacity:1;" d="M 8.167969 4.714844 C 8.242188 4.140625 7.953125 3.519531 7.523438 3.332031 C 7.082031 3.144531 6.667969 3.457031 6.589844 4.035156 C 6.515625 4.609375 6.804688 5.226562 7.238281 5.417969 C 7.675781 5.605469 8.089844 5.292969 8.167969 4.714844 Z M 8.167969 4.714844 "/>
<path style=" stroke:none;fill-rule:nonzero;fill:rgb(100%,100%,100%);fill-opacity:1;" d="M 10.070312 5.070312 C 10.371094 4.550781 10.351562 3.871094 10.019531 3.542969 C 9.683594 3.21875 9.167969 3.375 8.871094 3.890625 L 8.867188 3.894531 C 8.566406 4.414062 8.59375 5.09375 8.921875 5.417969 C 9.253906 5.746094 9.769531 5.589844 10.070312 5.070312 Z M 10.070312 5.070312 "/>
<path style=" stroke:none;fill-rule:nonzero;fill:rgb(100%,100%,100%);fill-opacity:1;" d="M 11.464844 5.855469 C 11.230469 5.527344 10.753906 5.511719 10.394531 5.8125 C 10.039062 6.117188 9.9375 6.617188 10.164062 6.941406 C 10.398438 7.265625 10.875 7.28125 11.230469 6.984375 C 11.589844 6.683594 11.691406 6.179688 11.464844 5.855469 Z M 11.464844 5.855469 "/>
<path style=" stroke:none;fill-rule:nonzero;fill:rgb(100%,100%,100%);fill-opacity:1;" d="M 2.800781 1.878906 C 2.800781 1.878906 2.179688 3.113281 1.675781 3.800781 C 1.675781 3.871094 1.871094 4.144531 2.207031 4.074219 C 2.207031 4.109375 2.238281 4.179688 2.265625 4.214844 C 1.984375 4.730469 1.617188 5.246094 1.167969 5.828125 C 1.167969 5.898438 1.363281 6.480469 1.898438 6.378906 C 1.730469 6.6875 1.113281 7.71875 0.691406 8.0625 C 0.691406 8.128906 1.082031 8.816406 1.644531 8.507812 C 1.777344 8.9375 2.117188 9.179688 2.488281 9.046875 C 2.457031 9.976562 1.964844 9.785156 2.019531 10.121094 L 3.382812 10.121094 C 3.15625 9.8125 3.109375 10.019531 3.082031 9.125 L 3.082031 9.035156 C 3.433594 9.148438 3.792969 8.867188 3.925781 8.542969 C 4.429688 8.78125 4.796875 8.4375 4.9375 8.0625 C 4.738281 7.890625 4.234375 7.304688 3.867188 6.753906 C 3.867188 6.753906 3.417969 7.375 2.882812 6.859375 C 2.546875 6.960938 2.320312 6.824219 2.152344 6.6875 C 2.378906 6.824219 2.628906 6.789062 2.769531 6.585938 C 3.082031 6.859375 3.417969 6.789062 3.613281 6.414062 C 4.207031 6.515625 4.375 5.898438 4.402344 5.863281 C 3.980469 5.449219 3.417969 4.488281 3.417969 4.488281 C 3.304688 4.761719 2.996094 4.730469 2.882812 4.523438 C 2.6875 4.589844 2.519531 4.523438 2.40625 4.386719 C 2.546875 4.488281 2.714844 4.453125 2.800781 4.316406 C 3.023438 4.558594 3.390625 4.386719 3.390625 4.074219 C 3.699219 4.246094 3.925781 3.871094 3.925781 3.800781 C 3.445312 3.113281 2.800781 1.878906 2.800781 1.878906 Z M 2.800781 1.878906 "/>
</g>
</svg>
