<?xml version="1.0" encoding="UTF-8"?>
<svg xmlns="http://www.w3.org/2000/svg" xmlns:xlink="http://www.w3.org/1999/xlink" width="12" height="12" viewBox="0 0 12 12" version="1.1">
<g id="surface1">
<path style=" stroke:none;fill-rule:nonzero;fill:rgb(100%,100%,100%);fill-opacity:1;" d="M 6 8.5 C 6 8.324219 6.03125 8.15625 6.085938 8 C 6.066406 8 6.046875 8 6.027344 8 L 6 8 L 6 7 L 5 7 L 5 8 L 3 8 L 3 7 L 2 7 L 2 8 L 1 8 L 1 9 L 6.027344 9 C 6.046875 9 6.066406 9 6.085938 9 C 6.03125 8.84375 6 8.675781 6 8.5 Z M 6 8.5 "/>
<path style=" stroke:none;fill-rule:nonzero;fill:rgb(100%,100%,100%);fill-opacity:1;" d="M 1 7 L 6.597656 7 C 6.664062 6.738281 6.757812 6.484375 6.878906 6.242188 C 6.761719 6.027344 6.5625 5.855469 6.316406 5.773438 L 1.957031 4.320312 C 1.890625 3.835938 1.742188 3.367188 1.523438 2.933594 L 1.445312 2.777344 L 0.554688 3.222656 L 0.628906 3.378906 C 0.875 3.863281 1 4.402344 1 4.945312 Z M 1 7 "/>
<path style=" stroke:none;fill-rule:nonzero;fill:rgb(100%,100%,100%);fill-opacity:1;" d="M 9 3 L 9.5 3 L 10 4 L 11.5 4 L 11.5 4.5 C 11.5 5.050781 11.050781 5.5 10.5 5.5 L 10.027344 5.5 L 10.859375 8 L 11 8 C 11.277344 8 11.5 8.222656 11.5 8.5 C 11.5 8.777344 11.277344 9 11 9 L 10.140625 9 L 9.636719 7.492188 L 9.617188 7.5 C 9.496094 7.5625 9.386719 7.644531 9.296875 7.742188 C 9.425781 7.964844 9.5 8.222656 9.5 8.5 L 9.5 9 L 7.5 9 C 7.222656 9 7 8.777344 7 8.5 C 7 8.222656 7.222656 8 7.5 8 L 7.5 7.828125 C 7.5 7.164062 7.761719 6.53125 8.230469 6.0625 L 8.5625 5.730469 L 9 4.417969 Z M 9 3 "/>
</g>
</svg>
