<?xml version="1.0" encoding="UTF-8"?>
<svg xmlns="http://www.w3.org/2000/svg" xmlns:xlink="http://www.w3.org/1999/xlink" width="32" height="32" viewBox="0 0 32 32">
<path fill-rule="nonzero" fill="rgb(100%, 100%, 100%)" fill-opacity="1" d="M 12.867188 9.945312 C 13.378906 9.011719 14.410156 8 16.035156 8 C 17.652344 8 18.675781 8.996094 19.164062 9.914062 C 19.3125 10.191406 19.421875 10.460938 19.503906 10.710938 C 19.003906 10.597656 18.496094 10.511719 17.984375 10.445312 C 17.636719 9.835938 17.121094 9.316406 16.035156 9.316406 C 14.984375 9.316406 14.449219 9.824219 14.082031 10.429688 C 13.5625 10.488281 13.046875 10.570312 12.542969 10.679688 C 12.625 10.449219 12.734375 10.199219 12.867188 9.945312 Z M 12.867188 9.945312 "/>
<path fill-rule="nonzero" fill="rgb(100%, 100%, 100%)" fill-opacity="1" d="M 15.628906 11.292969 C 14.570312 11.316406 13.523438 11.445312 12.523438 11.675781 C 10.511719 12.136719 8.757812 12.984375 7.496094 14.113281 C 6.230469 15.242188 5.515625 16.59375 5.441406 17.996094 L 26.558594 17.996094 C 26.519531 17.300781 26.324219 16.613281 25.976562 15.957031 C 25.238281 14.554688 23.832031 13.34375 21.96875 12.507812 C 20.105469 11.667969 17.886719 11.242188 15.628906 11.292969 Z M 15.628906 11.292969 "/>
<path fill-rule="nonzero" fill="rgb(100%, 100%, 100%)" fill-opacity="1" d="M 2.632812 20.03125 C 2.632812 19.296875 3.226562 18.699219 3.964844 18.699219 L 28.035156 18.699219 C 28.769531 18.699219 29.367188 19.296875 29.367188 20.03125 C 29.367188 20.769531 28.769531 21.363281 28.035156 21.363281 L 3.964844 21.363281 C 3.226562 21.363281 2.632812 20.769531 2.632812 20.03125 Z M 2.632812 20.03125 "/>
</svg>
