<?xml version="1.0" encoding="UTF-8"?>
<svg xmlns="http://www.w3.org/2000/svg" xmlns:xlink="http://www.w3.org/1999/xlink" width="12" height="12" viewBox="0 0 12 12">
<defs>
<filter id="filter-remove-color" x="0%" y="0%" width="100%" height="100%">
<feColorMatrix color-interpolation-filters="sRGB" values="0 0 0 0 1 0 0 0 0 1 0 0 0 0 1 0 0 0 1 0" />
</filter>
<mask id="mask-0">
<g filter="url(#filter-remove-color)">
<rect x="-1.2" y="-1.2" width="14.4" height="14.4" fill="rgb(0%, 0%, 0%)" fill-opacity="0.47"/>
</g>
</mask>
<mask id="mask-1">
<g filter="url(#filter-remove-color)">
<rect x="-2.64" y="-2.64" width="17.28" height="17.28" fill="rgb(0%, 0%, 0%)" fill-opacity="0.47"/>
</g>
</mask>
<clipPath id="clip-0">
<rect x="0" y="0" width="12" height="12"/>
</clipPath>
<g id="source-7" clip-path="url(#clip-0)">
<path fill-rule="nonzero" fill="rgb(24.705882%, 24.705882%, 24.705882%)" fill-opacity="1" d="M 2.636719 1.507812 C 2.007812 1.507812 1.652344 1.835938 1.652344 2.5 L 1.652344 9.375 C 1.652344 10 1.972656 10.324219 2.601562 10.324219 L 9.503906 10.324219 C 10.136719 10.324219 10.457031 10.015625 10.457031 9.375 L 10.457031 2.5 C 10.457031 1.851562 10.136719 1.507812 9.484375 1.507812 C 9.484375 1.507812 2.636719 1.507812 2.636719 1.507812 Z M 2.636719 1.507812 "/>
</g>
<clipPath id="clip-1">
<rect x="0" y="0" width="12" height="12"/>
</clipPath>
<g id="source-9" clip-path="url(#clip-1)">
<g mask="url(#mask-1)">
<use xlink:href="#source-7"/>
</g>
</g>
</defs>
<g mask="url(#mask-0)">
<use xlink:href="#source-9"/>
</g>
<path fill-rule="nonzero" fill="rgb(24.705882%, 24.705882%, 24.705882%)" fill-opacity="1" d="M 4.078125 2.203125 C 3.535156 2.203125 3.175781 2.203125 3.175781 2.203125 C 2.644531 2.203125 2.347656 2.480469 2.347656 3.039062 L 2.347656 8.828125 C 2.347656 9.355469 2.617188 9.628906 3.148438 9.628906 L 8.960938 9.628906 C 9.492188 9.628906 9.761719 9.367188 9.761719 8.828125 L 9.761719 3.039062 C 9.761719 2.492188 9.492188 2.203125 8.945312 2.203125 C 8.945312 2.203125 5.699219 2.203125 4.078125 2.203125 Z M 4.085938 3.851562 L 8.027344 3.851562 L 8.027344 5.65625 L 6.945312 5.65625 L 6.945312 9.589844 L 5.140625 9.589844 L 5.140625 5.65625 L 4.085938 5.65625 Z M 4.085938 3.851562 "/>
</svg>
