<?xml version="1.0" encoding="UTF-8"?>
<svg xmlns="http://www.w3.org/2000/svg" xmlns:xlink="http://www.w3.org/1999/xlink" width="32" height="32" viewBox="0 0 32 32">
<path fill-rule="nonzero" fill="rgb(100%, 100%, 100%)" fill-opacity="1" d="M 21.332031 16 L 18.667969 14.667969 L 18.277344 14.277344 C 17.671875 13.671875 16.855469 13.332031 16 13.332031 C 15.144531 13.332031 14.328125 13.671875 13.722656 14.277344 L 13.332031 14.667969 L 10.667969 16 C 10.667969 13.054688 13.054688 10.667969 16 10.667969 C 18.945312 10.667969 21.332031 13.054688 21.332031 16 Z M 21.332031 16 "/>
<path fill-rule="nonzero" fill="rgb(100%, 100%, 100%)" fill-opacity="1" d="M 17.332031 17.332031 L 17.332031 21.164062 C 18.808594 20.785156 20.039062 19.789062 20.730469 18.464844 Z M 17.332031 17.332031 "/>
<path fill-rule="nonzero" fill="rgb(100%, 100%, 100%)" fill-opacity="1" d="M 14.667969 17.332031 L 14.667969 21.164062 C 13.191406 20.785156 11.960938 19.789062 11.269531 18.464844 Z M 14.667969 17.332031 "/>
<path fill-rule="evenodd" fill="rgb(100%, 100%, 100%)" fill-opacity="1" d="M 24 2.667969 C 25.472656 2.667969 26.667969 3.859375 26.667969 5.332031 L 26.667969 24 C 26.667969 25.472656 25.472656 26.667969 24 26.667969 L 9.332031 26.667969 C 8.597656 26.667969 8 27.261719 8 28 C 8 28.738281 8.597656 29.332031 9.332031 29.332031 L 25.332031 29.332031 C 26.070312 29.332031 26.667969 29.929688 26.667969 30.667969 C 26.667969 31.402344 26.070312 32 25.332031 32 L 10.667969 32 C 7.722656 32 5.332031 29.613281 5.332031 26.667969 L 5.332031 8 C 5.332031 5.054688 7.722656 2.667969 10.667969 2.667969 Z M 16 24 C 20.417969 24 24 20.417969 24 16 C 24 11.582031 20.417969 8 16 8 C 11.582031 8 8 11.582031 8 16 C 8 20.417969 11.582031 24 16 24 Z M 16 24 "/>
</svg>
