<?xml version="1.0" encoding="UTF-8"?>
<svg xmlns="http://www.w3.org/2000/svg" xmlns:xlink="http://www.w3.org/1999/xlink" width="32" height="32" viewBox="0 0 32 32">
<path fill-rule="nonzero" fill="rgb(100%, 100%, 100%)" fill-opacity="1" d="M 14.667969 8 C 13.929688 8 13.332031 7.402344 13.332031 6.667969 C 13.332031 5.929688 13.929688 5.332031 14.667969 5.332031 C 15.402344 5.332031 16 5.929688 16 6.667969 C 16 7.402344 15.402344 8 14.667969 8 Z M 14.667969 8 "/>
<path fill-rule="nonzero" fill="rgb(100%, 100%, 100%)" fill-opacity="1" d="M 9.332031 8 C 8.597656 8 8 7.402344 8 6.667969 C 8 5.929688 8.597656 5.332031 9.332031 5.332031 C 10.070312 5.332031 10.667969 5.929688 10.667969 6.667969 C 10.667969 7.402344 10.070312 8 9.332031 8 Z M 9.332031 8 "/>
<path fill-rule="evenodd" fill="rgb(100%, 100%, 100%)" fill-opacity="1" d="M 18.113281 2.113281 C 17.613281 1.613281 16.933594 1.332031 16.226562 1.332031 L 7.773438 1.332031 C 7.066406 1.332031 6.386719 1.613281 5.886719 2.113281 L 5.851562 2.148438 C 5.511719 2.488281 5.269531 2.914062 5.152344 3.378906 L 4.332031 6.707031 C 3.753906 6.5625 3.148438 6.824219 2.851562 7.34375 C 2.558594 7.863281 2.644531 8.515625 3.066406 8.941406 L 4 9.886719 L 4 17.332031 C 4 18.070312 4.597656 18.667969 5.332031 18.667969 C 6.070312 18.667969 6.667969 18.070312 6.667969 17.332031 L 6.667969 16 L 17.332031 16 L 17.332031 17.332031 C 17.332031 18.070312 17.929688 18.667969 18.667969 18.667969 C 19.402344 18.667969 20 18.070312 20 17.332031 L 20 9.886719 L 20.941406 8.941406 C 21.359375 8.515625 21.449219 7.863281 21.152344 7.34375 C 20.859375 6.824219 20.253906 6.5625 19.671875 6.707031 L 18.847656 3.378906 C 18.730469 2.914062 18.488281 2.488281 18.148438 2.148438 Z M 16.265625 4.035156 L 16.226562 4 L 7.773438 4 L 7.738281 4.027344 L 6.746094 8 L 17.253906 8 Z M 8 10.667969 C 7.261719 10.667969 6.667969 11.261719 6.667969 12 C 6.667969 12.738281 7.261719 13.332031 8 13.332031 C 8.738281 13.332031 9.332031 12.738281 9.332031 12 C 9.332031 11.261719 8.738281 10.667969 8 10.667969 Z M 16 10.667969 C 15.261719 10.667969 14.667969 11.261719 14.667969 12 C 14.667969 12.738281 15.261719 13.332031 16 13.332031 C 16.738281 13.332031 17.332031 12.738281 17.332031 12 C 17.332031 11.261719 16.738281 10.667969 16 10.667969 Z M 16 10.667969 "/>
<path fill-rule="evenodd" fill="rgb(100%, 100%, 100%)" fill-opacity="1" d="M 25.332031 18.667969 L 25.332031 28 L 26.667969 28 C 27.402344 28 28 28.597656 28 29.332031 C 28 30.070312 27.402344 30.667969 26.667969 30.667969 L 21.332031 30.667969 C 20.597656 30.667969 20 30.070312 20 29.332031 C 20 28.601562 21.332031 28 21.332031 28 L 22.667969 28 L 22.667969 18.667969 Z M 25.332031 18.667969 "/>
<path fill-rule="nonzero" fill="rgb(100%, 100%, 100%)" fill-opacity="1" d="M 24 18.667969 L 30.667969 18.667969 L 30.667969 25.332031 L 24 25.332031 Z M 24 18.667969 "/>
<path fill-rule="nonzero" fill="rgb(100%, 100%, 100%)" fill-opacity="1" d="M 5.332031 20 C 3.140625 20 1.332031 21.808594 1.332031 24 C 1.332031 26.191406 3.140625 28 5.332031 28 C 7.527344 28 9.332031 26.191406 9.332031 24 C 9.332031 21.808594 7.527344 20 5.332031 20 Z M 5.332031 22.667969 C 6.085938 22.667969 6.667969 23.246094 6.667969 24 C 6.667969 24.753906 6.085938 25.332031 5.332031 25.332031 C 4.578125 25.332031 4 24.753906 4 24 C 4 23.246094 4.578125 22.667969 5.332031 22.667969 Z M 5.332031 22.667969 "/>
<path fill-rule="evenodd" fill="rgb(100%, 100%, 100%)" fill-opacity="1" d="M 14.007812 18.667969 L 12 20.421875 L 13.960938 22.667969 L 6.667969 22.667969 L 6.667969 25.332031 L 13.960938 25.332031 L 12 27.578125 L 14.007812 29.332031 L 18.667969 24 Z M 14.007812 18.667969 "/>
</svg>
