<?xml version="1.0" encoding="UTF-8"?>
<svg xmlns="http://www.w3.org/2000/svg" xmlns:xlink="http://www.w3.org/1999/xlink" width="32" height="32" viewBox="0 0 32 32">
<path fill-rule="evenodd" fill="rgb(100%, 100%, 100%)" fill-opacity="1" d="M 2.667969 28 C 2.667969 27.261719 3.261719 26.667969 4 26.667969 L 30.667969 26.667969 C 31.402344 26.667969 32 27.261719 32 28 C 32 28.738281 31.402344 29.332031 30.667969 29.332031 L 4 29.332031 C 3.261719 29.332031 2.667969 28.738281 2.667969 28 Z M 2.667969 28 "/>
<path fill-rule="evenodd" fill="rgb(100%, 100%, 100%)" fill-opacity="1" d="M 23.933594 5.34375 C 25.683594 7.058594 26.667969 9.382812 26.667969 11.808594 L 26.667969 24 L 8 24 L 8 11.808594 C 8 9.382812 8.984375 7.058594 10.734375 5.34375 C 12.484375 3.628906 14.859375 2.667969 17.332031 2.667969 C 19.808594 2.667969 22.183594 3.628906 23.933594 5.34375 Z M 18.667969 13.332031 L 18.667969 8 L 16 8 L 16 13.332031 L 10.667969 13.332031 L 10.667969 16 L 16 16 L 16 21.332031 L 18.667969 21.332031 L 18.667969 16 L 24 16 L 24 13.332031 Z M 18.667969 13.332031 "/>
</svg>
