<?xml version="1.0" encoding="UTF-8"?>
<svg xmlns="http://www.w3.org/2000/svg" xmlns:xlink="http://www.w3.org/1999/xlink" width="12" height="12" viewBox="0 0 12 12" version="1.1">
<g id="surface1">
<path style=" stroke:none;fill-rule:evenodd;fill:rgb(100%,100%,100%);fill-opacity:1;" d="M 1 11 L 2.167969 3.144531 C 2.433594 1.371094 3.332031 1 4.5 1 C 5.667969 1 6.535156 1.351562 6.832031 3.144531 L 8 11 C 6.746094 9.945312 5.597656 10.15625 4.5 11 C 3.3125 10.019531 2.148438 10.074219 1 11 Z M 5.5 4.5 C 5.5 3.671875 5.050781 3 4.5 3 C 3.949219 3 3.5 3.671875 3.5 4.5 C 3.5 5.328125 3.949219 6 4.5 6 C 5.050781 6 5.5 5.328125 5.5 4.5 Z M 5.5 4.5 "/>
<path style=" stroke:none;fill-rule:nonzero;fill:rgb(100%,100%,100%);fill-opacity:1;" d="M 11 11 C 10.269531 10.386719 9.578125 10.199219 8.910156 10.320312 L 8.203125 5.566406 C 8.386719 5.292969 8.5 4.917969 8.5 4.5 C 8.5 3.847656 8.222656 3.292969 7.835938 3.085938 L 7.824219 2.996094 L 7.820312 2.980469 C 7.6875 2.191406 7.441406 1.527344 7.03125 1.023438 C 7.179688 1.007812 7.335938 1 7.5 1 C 8.667969 1 9.535156 1.351562 9.832031 3.144531 Z M 11 11 "/>
</g>
</svg>
