<?xml version="1.0" encoding="UTF-8"?>
<svg xmlns="http://www.w3.org/2000/svg" xmlns:xlink="http://www.w3.org/1999/xlink" width="32" height="32" viewBox="0 0 32 32">
<path fill-rule="nonzero" fill="rgb(100%, 100%, 100%)" fill-opacity="1" d="M 8.53125 5.355469 C 7.449219 5.371094 5.753906 6.121094 5.410156 7.480469 C 4.902344 7.492188 4 7.585938 4 8 C 5.980469 8.640625 6.753906 10.167969 6.667969 12 C 6.5625 14.152344 5.332031 14.667969 5.332031 18.667969 C 5.332031 22.667969 8 26.667969 14.667969 26.667969 C 10.773438 24.976562 9.34375 21.992188 9.332031 18.667969 C 9.332031 16 9.839844 12.8125 13.332031 10.667969 C 13.007812 10.101562 12.765625 9.519531 12.523438 8.867188 C 11.980469 7.445312 11.140625 5.332031 8.53125 5.355469 Z M 8.667969 6.667969 C 9.035156 6.667969 9.332031 6.964844 9.332031 7.332031 C 9.332031 7.703125 9.035156 8 8.667969 8 C 8.296875 8 8 7.703125 8 7.332031 C 8 6.964844 8.296875 6.667969 8.667969 6.667969 Z M 29.332031 9.332031 C 28.167969 10.769531 26.269531 11.808594 24 12 C 21.4375 11.929688 20.617188 10.675781 17.332031 10.667969 C 14.046875 10.65625 10.667969 13.332031 10.667969 18.667969 C 10.667969 24 20 22.984375 22.667969 21.332031 C 25.332031 19.679688 27.609375 16.691406 28 16 C 27.140625 16.195312 26.042969 16.125 25.332031 16 C 27.742188 15.167969 29.332031 12 29.332031 9.332031 Z M 29.332031 9.332031 "/>
</svg>
