<svg width="48" height="48" viewBox="0 0 48 48" fill="none" xmlns="http://www.w3.org/2000/svg">
<path fill-rule="evenodd" clip-rule="evenodd" d="M4 5.99965V4H5.99965C5.99942 4 5.99988 4 5.99965 4H6.53475C6.52267 4.0209 6.5108 4.04189 6.49912 4.06296C6.83441 4.14901 7.15172 4.32329 7.41421 4.58579L43.4142 40.5858C44.1953 41.3668 44.1953 42.6332 43.4142 43.4142C42.6332 44.1953 41.3668 44.1953 40.5858 43.4142L39 41.8284V42.6667C39 43.403 36.7614 44 34 44C31.2386 44 29 43.403 29 42.6667V37.5417C28.5196 37.2708 28.2188 37.0417 28.2188 37.0417L28.1016 36.9167C28.1016 36.9167 27.7207 36.4794 27.3203 35.7083C26.92 34.9373 26.4054 33.7557 25.9141 32C25.5963 30.8647 25.284 29.4909 25.0068 27.8352L20 22.8284V28H4V5.99965C4 5.99988 4 5.99942 4 5.99965ZM7.2 10.0284V12H9.17157L7.2 10.0284ZM13.1716 16H7.2V20H16.8V19.6284L13.1716 16ZM28.3032 31.1316C28.3141 31.1715 28.325 31.2109 28.3359 31.25C28.7821 32.8443 29.205 33.8336 29.5078 34.4167C29.7606 34.9036 29.832 34.9733 29.8558 34.9965L29.8594 35C29.8928 35.0314 30.0413 35.1708 30.6406 35.4167C31.1848 35.6399 32.0001 35.884 33.1404 35.9689L28.3032 31.1316ZM35.7313 38.5597C35.2076 38.627 34.631 38.6667 34 38.6667C32.7461 38.6667 31.7106 38.5106 30.875 38.2917C32.2231 38.8562 34.2166 39.4617 36.6111 39.4396L35.7313 38.5597ZM16.8 24H10.4V26H16.8V24Z" fill="#3f3f3f"/>
<path d="M24.0037 14.3468L26.6434 16.9866C26.6335 16.6627 26.6248 16.3338 26.6172 16H41.3828C41.2325 22.6701 40.6171 27.3384 39.9267 30.2698L41.9995 32.3427C42.0284 32.2442 42.0572 32.1439 42.0859 32.0417C43.0696 28.5443 44 22.7619 44 13.3333V12H24V13.3333C24 13.6759 24.0012 14.0137 24.0037 14.3468Z" fill="#3f3f3f"/>
<path d="M32.3235 22.6667L35.25 25.5931V25.3333H37.75V22.6667H35.25V20H32.75V22.6667H32.3235Z" fill="#3f3f3f"/>
<path d="M13.6569 4L20 10.3431V4H13.6569Z" fill="#3f3f3f"/>
</svg>
