<svg width="12" height="12" viewBox="0 0 12 12" fill="none" xmlns="http://www.w3.org/2000/svg">
<path d="M6 8.5C6 8.32426 6.03022 8.15558 6.08575 7.99888C6.06648 7.99962 6.04719 8 6.02787 8L6 8V7H5V8H3V7H2V8L1 8V9H6.02787C6.04696 9 6.06605 8.99978 6.08512 8.99934C6.02999 8.84314 6 8.67507 6 8.5Z" fill="#ffffff"/>
<path d="M1 7H6.59944C6.66332 6.73784 6.75724 6.4842 6.87911 6.2441C6.76083 6.0261 6.56275 5.85425 6.31623 5.77207L1.95632 4.31877C1.88877 3.8375 1.7435 3.36895 1.52492 2.93181L1.44721 2.77639L0.552788 3.2236L0.630497 3.37902C0.873494 3.86502 1 4.40091 1 4.94427V7Z" fill="#ffffff"/>
<path d="M9 3H9.5L10 4H11.5V4.5C11.5 5.05228 11.0523 5.5 10.5 5.5H10.027L10.8604 8H11C11.2761 8 11.5 8.22386 11.5 8.5C11.5 8.77614 11.2761 9 11 9H10.1396L9.63654 7.49075L9.61803 7.5C9.49442 7.56181 9.38567 7.64467 9.29524 7.74299C9.4254 7.96519 9.5 8.22388 9.5 8.5V9H7.5C7.22386 9 7 8.77614 7 8.5C7 8.22386 7.22386 8 7.5 8V7.82843C7.5 7.16539 7.76339 6.5295 8.23223 6.06066L8.56298 5.72991L9 4.41886V3Z" fill="#ffffff"/>
</svg>
