<?xml version="1.0" encoding="UTF-8"?>
<svg xmlns="http://www.w3.org/2000/svg" xmlns:xlink="http://www.w3.org/1999/xlink" width="32" height="32" viewBox="0 0 32 32">
<path fill-rule="evenodd" fill="rgb(24.705882%, 24.705882%, 24.705882%)" fill-opacity="1" d="M 2.667969 4 L 2.667969 2.667969 L 4.355469 2.667969 C 4.347656 2.679688 4.339844 2.695312 4.332031 2.707031 C 4.554688 2.765625 4.769531 2.882812 4.941406 3.058594 L 28.941406 27.058594 C 29.464844 27.578125 29.464844 28.421875 28.941406 28.941406 C 28.421875 29.464844 27.578125 29.464844 27.058594 28.941406 L 26 27.886719 L 26 28.445312 C 26 28.933594 24.507812 29.332031 22.667969 29.332031 C 20.824219 29.332031 19.332031 28.933594 19.332031 28.445312 L 19.332031 25.027344 C 19.011719 24.847656 18.8125 24.695312 18.8125 24.695312 L 18.734375 24.609375 C 18.734375 24.609375 18.480469 24.320312 18.214844 23.804688 C 17.945312 23.292969 17.605469 22.503906 17.277344 21.332031 C 17.0625 20.578125 16.855469 19.660156 16.671875 18.558594 L 13.332031 15.21875 L 13.332031 18.667969 L 2.667969 18.667969 Z M 4.800781 6.6875 L 4.800781 8 L 6.113281 8 Z M 8.78125 10.667969 L 4.800781 10.667969 L 4.800781 13.332031 L 11.199219 13.332031 L 11.199219 13.085938 Z M 18.867188 20.753906 C 18.875 20.78125 18.882812 20.808594 18.890625 20.832031 C 19.1875 21.894531 19.46875 22.554688 19.671875 22.945312 C 19.839844 23.269531 19.886719 23.316406 19.902344 23.332031 L 19.90625 23.332031 C 19.929688 23.355469 20.027344 23.445312 20.425781 23.609375 C 20.789062 23.761719 21.332031 23.921875 22.09375 23.980469 Z M 23.820312 25.707031 C 23.472656 25.75 23.085938 25.777344 22.667969 25.777344 C 21.832031 25.777344 21.140625 25.671875 20.582031 25.527344 C 21.480469 25.902344 22.8125 26.308594 24.40625 26.292969 Z M 11.199219 16 L 6.933594 16 L 6.933594 17.332031 L 11.199219 17.332031 Z M 11.199219 16 "/>
<path fill-rule="nonzero" fill="rgb(24.705882%, 24.705882%, 24.705882%)" fill-opacity="1" d="M 16.003906 9.566406 L 17.761719 11.324219 C 17.753906 11.109375 17.75 10.890625 17.746094 10.667969 L 27.589844 10.667969 C 27.488281 15.113281 27.078125 18.226562 26.617188 20.179688 L 28 21.5625 C 28.019531 21.496094 28.039062 21.429688 28.058594 21.359375 C 28.714844 19.03125 29.332031 15.175781 29.332031 8.890625 L 29.332031 8 L 16 8 L 16 8.890625 C 16 9.117188 16 9.34375 16.003906 9.566406 Z M 16.003906 9.566406 "/>
<path fill-rule="nonzero" fill="rgb(24.705882%, 24.705882%, 24.705882%)" fill-opacity="1" d="M 21.550781 15.109375 L 23.5 17.0625 L 23.5 16.890625 L 25.167969 16.890625 L 25.167969 15.109375 L 23.5 15.109375 L 23.5 13.332031 L 21.832031 13.332031 L 21.832031 15.109375 Z M 21.550781 15.109375 "/>
<path fill-rule="nonzero" fill="rgb(24.705882%, 24.705882%, 24.705882%)" fill-opacity="1" d="M 9.105469 2.667969 L 13.332031 6.894531 L 13.332031 2.667969 Z M 9.105469 2.667969 "/>
</svg>
