<?xml version="1.0" encoding="UTF-8"?>
<svg xmlns="http://www.w3.org/2000/svg" xmlns:xlink="http://www.w3.org/1999/xlink" width="32" height="32" viewBox="0 0 32 32">
<path fill-rule="nonzero" fill="rgb(24.705882%, 24.705882%, 24.705882%)" fill-opacity="1" d="M 2.90625 6.3125 L 2.90625 8.40625 L 12.332031 8.40625 L 12.332031 9.761719 L 2.90625 9.761719 L 2.90625 11.117188 L 10.761719 11.117188 L 10.761719 12.472656 L 2.90625 12.472656 L 2.90625 13.828125 L 9.191406 13.828125 L 9.191406 15.183594 L 2.90625 15.183594 L 2.90625 16.539062 L 7.621094 16.539062 L 7.621094 17.894531 L 2.90625 17.894531 L 2.90625 21.5 C 2.90625 22.363281 3.613281 23.070312 4.476562 23.070312 L 6.203125 23.070312 L 18.480469 10.792969 L 18.480469 7.832031 C 18.480469 7.023438 17.769531 6.3125 16.957031 6.3125 Z M 21.636719 9.976562 L 19.859375 11.753906 L 19.859375 23.070312 L 20.761719 23.070312 C 21.011719 24.554688 22.300781 25.6875 23.855469 25.6875 C 25.410156 25.6875 26.699219 24.554688 26.949219 23.070312 L 27.523438 23.070312 C 28.332031 23.070312 29.09375 22.308594 29.09375 21.5 L 29.09375 16.476562 C 29.09375 15.449219 28.351562 14.347656 28.257812 14.214844 L 26.097656 11.320312 C 25.695312 10.816406 24.867188 9.976562 23.855469 9.976562 Z M 22.75 11.5625 L 23.796875 11.5625 C 24.210938 11.5625 24.738281 11.925781 25.203125 12.511719 L 26.808594 14.867188 C 26.96875 15.09375 27.347656 15.734375 27.429688 16.292969 L 23.332031 16.261719 C 23.097656 16.261719 22.808594 15.972656 22.808594 15.738281 Z M 18.480469 13.132812 L 10.597656 21.015625 C 11.128906 21.320312 11.480469 21.886719 11.480469 22.546875 C 11.480469 23.527344 10.695312 24.3125 9.714844 24.3125 C 9.058594 24.3125 8.488281 23.960938 8.183594 23.429688 L 7.195312 24.417969 C 7.769531 25.1875 8.683594 25.6875 9.714844 25.6875 C 11.269531 25.6875 12.558594 24.554688 12.808594 23.070312 L 18.480469 23.070312 Z M 23.855469 20.8125 C 24.8125 20.8125 25.59375 21.589844 25.59375 22.546875 C 25.59375 23.503906 24.8125 24.28125 23.855469 24.28125 C 22.898438 24.28125 22.121094 23.503906 22.121094 22.546875 C 22.121094 21.589844 22.898438 20.8125 23.855469 20.8125 Z M 23.855469 20.8125 "/>
<path fill="none" stroke-width="30" stroke-linecap="butt" stroke-linejoin="miter" stroke="rgb(24.705882%, 24.705882%, 24.705882%)" stroke-opacity="1" stroke-miterlimit="4" d="M 87.86377 505.163574 L 496.950684 96.07666 " transform="matrix(0.0551724, 0, 0, 0.0551724, 0, 0)"/>
</svg>
