<?xml version="1.0" encoding="UTF-8"?>
<svg xmlns="http://www.w3.org/2000/svg" xmlns:xlink="http://www.w3.org/1999/xlink" width="32" height="32" viewBox="0 0 32 32">
<path fill-rule="nonzero" fill="rgb(100%, 100%, 100%)" fill-opacity="1" d="M 11.917969 6.578125 C 13.378906 6.578125 14.566406 5.394531 14.566406 3.929688 C 14.566406 2.464844 13.378906 1.28125 11.917969 1.28125 C 10.453125 1.28125 9.269531 2.464844 9.269531 3.929688 C 9.269531 5.394531 10.453125 6.578125 11.917969 6.578125 Z M 11.917969 6.578125 "/>
<path fill-rule="nonzero" fill="rgb(100%, 100%, 100%)" fill-opacity="1" d="M 23.222656 8.167969 C 22.867188 7.640625 22.222656 7.523438 21.691406 7.875 L 19.160156 9.582031 L 16.507812 6.933594 C 16.273438 6.695312 15.863281 6.578125 15.507812 6.636719 L 10.09375 7.757812 C 9.738281 7.816406 9.445312 8.109375 9.328125 8.40625 L 7.5 13.054688 L 4.085938 12.171875 C 3.496094 12.054688 2.910156 12.410156 2.792969 12.996094 C 2.671875 13.585938 3.027344 14.175781 3.554688 14.351562 L 7.914062 15.46875 C 7.972656 15.46875 8.089844 15.527344 8.148438 15.527344 C 8.5625 15.527344 8.972656 15.234375 9.148438 14.824219 L 9.796875 13.234375 L 9.796875 18.414062 L 8.089844 23.183594 C 7.972656 23.417969 7.972656 23.714844 8.089844 24.007812 L 10.46875 30.011719 C 10.648438 30.425781 11.058594 30.71875 11.472656 30.71875 C 11.589844 30.71875 11.765625 30.71875 11.882812 30.660156 C 12.414062 30.425781 12.707031 29.777344 12.472656 29.246094 L 10.621094 23.476562 L 12.859375 18.53125 L 13.507812 23.417969 C 13.507812 23.652344 13.566406 23.890625 13.742188 24.066406 L 17.316406 28.878906 C 17.550781 29.175781 17.84375 29.292969 18.199219 29.292969 C 18.433594 29.292969 18.667969 29.234375 18.847656 29.058594 C 19.316406 28.703125 19.433594 27.996094 19.082031 27.527344 L 15.804688 23.007812 L 15.804688 9.171875 L 18.335938 11.761719 C 18.6875 12.113281 19.277344 12.171875 19.691406 11.878906 L 22.929688 9.699219 C 23.398438 9.347656 23.574219 8.699219 23.222656 8.167969 Z M 23.222656 8.167969 "/>
<path fill-rule="nonzero" fill="rgb(100%, 100%, 100%)" fill-opacity="1" d="M 28.699219 16 C 27.519531 16 27.109375 15.410156 25.988281 15.410156 C 25.753906 15.410156 25.695312 15.585938 25.695312 16 C 25.695312 16.765625 25.695312 19.296875 25.695312 20.121094 C 25.695312 20.945312 25.578125 22.476562 23.339844 22.476562 C 21.335938 22.476562 20.984375 21.179688 20.984375 20.710938 C 20.984375 19.652344 21.632812 18.945312 23.339844 18.945312 C 24.515625 18.945312 24.515625 18.414062 24.515625 17.765625 C 24.515625 15.410156 24.515625 14 24.515625 13.644531 C 24.515625 13.351562 24.632812 13.054688 25.105469 13.054688 C 27.105469 13.054688 26.519531 13.644531 28.640625 13.644531 C 28.992188 13.644531 29.226562 13.761719 29.226562 14.234375 C 29.226562 14.527344 29.226562 14.703125 29.226562 15.46875 C 29.285156 16 28.699219 16 28.699219 16 Z M 28.699219 16 "/>
</svg>
