<?xml version="1.0" encoding="UTF-8"?>
<svg xmlns="http://www.w3.org/2000/svg" xmlns:xlink="http://www.w3.org/1999/xlink" width="12" height="12" viewBox="0 0 12 12" version="1.1">
<g id="surface1">
<path style=" stroke:none;fill-rule:evenodd;fill:rgb(100%,100%,100%);fill-opacity:1;" d="M 1 10.5 C 1 10.222656 1.222656 10 1.5 10 L 11.5 10 C 11.777344 10 12 10.222656 12 10.5 C 12 10.777344 11.777344 11 11.5 11 L 1.5 11 C 1.222656 11 1 10.777344 1 10.5 Z M 1 10.5 "/>
<path style=" stroke:none;fill-rule:evenodd;fill:rgb(100%,100%,100%);fill-opacity:1;" d="M 8.976562 2.003906 C 9.632812 2.648438 10 3.519531 10 4.429688 L 10 9 L 3 9 L 3 4.429688 C 3 3.519531 3.367188 2.648438 4.023438 2.003906 C 4.679688 1.359375 5.570312 1 6.5 1 C 7.429688 1 8.320312 1.359375 8.976562 2.003906 Z M 7 5 L 7 3 L 6 3 L 6 5 L 4 5 L 4 6 L 6 6 L 6 8 L 7 8 L 7 6 L 9 6 L 9 5 Z M 7 5 "/>
</g>
</svg>
