<?xml version="1.0" encoding="UTF-8"?>
<svg xmlns="http://www.w3.org/2000/svg" xmlns:xlink="http://www.w3.org/1999/xlink" width="12" height="12" viewBox="0 0 12 12">
<path fill-rule="nonzero" fill="rgb(99.607843%, 99.607843%, 99.607843%)" fill-opacity="1" d="M 3 2 C 3 2.265625 2.894531 2.519531 2.707031 2.707031 C 2.519531 2.894531 2.265625 3 2 3 C 1.734375 3 1.480469 2.894531 1.292969 2.707031 C 1.105469 2.519531 1 2.265625 1 2 C 1 1.734375 1.105469 1.480469 1.292969 1.292969 C 1.480469 1.105469 1.734375 1 2 1 C 2.265625 1 2.519531 1.105469 2.707031 1.292969 C 2.894531 1.480469 3 1.734375 3 2 Z M 3 2 "/>
<path fill-rule="nonzero" fill="rgb(100%, 100%, 100%)" fill-opacity="1" d="M 2.953125 4.367188 C 2.855469 4.269531 2.855469 4.109375 2.953125 4.011719 L 4.011719 2.953125 C 4.109375 2.855469 4.269531 2.855469 4.367188 2.953125 L 6.40625 4.992188 C 6.503906 5.089844 6.503906 5.246094 6.40625 5.34375 L 5.246094 6.503906 C 5.203125 6.546875 5.132812 6.546875 5.089844 6.503906 Z M 2.953125 4.367188 "/>
<path fill-rule="nonzero" fill="rgb(85.098039%, 85.098039%, 85.098039%)" fill-opacity="1" d="M 5 10.5 L 5 6.5 C 5 6.222656 5.222656 6 5.5 6 C 5.777344 6 6 6.222656 6 6.5 L 6 10.5 C 6 10.777344 5.777344 11 5.5 11 C 5.222656 11 5 10.777344 5 10.5 Z M 5 10.5 "/>
<path fill-rule="nonzero" fill="rgb(100%, 100%, 100%)" fill-opacity="1" d="M 9.148438 1.144531 C 9.339844 0.953125 9.660156 0.953125 9.855469 1.144531 C 10.046875 1.339844 10.046875 1.660156 9.855469 1.851562 L 5.855469 5.851562 C 5.660156 6.046875 5.339844 6.046875 5.148438 5.851562 C 4.953125 5.660156 4.953125 5.339844 5.148438 5.144531 Z M 9.148438 1.144531 "/>
<path fill-rule="nonzero" fill="rgb(100%, 100%, 100%)" fill-opacity="1" d="M 5.34375 0.527344 C 5.605469 0.4375 5.886719 0.578125 5.972656 0.84375 L 6.472656 2.34375 C 6.558594 2.59375 6.429688 2.867188 6.1875 2.964844 L 3.882812 3.882812 L 3.113281 5.808594 L 4.277344 6.585938 C 4.507812 6.738281 4.570312 7.046875 4.414062 7.277344 C 4.261719 7.507812 3.953125 7.570312 3.722656 7.417969 L 2.222656 6.417969 C 2.027344 6.285156 1.949219 6.035156 2.035156 5.816406 L 3.035156 3.316406 L 3.082031 3.226562 C 3.140625 3.140625 3.21875 3.074219 3.3125 3.035156 L 5.375 2.210938 L 5.023438 1.160156 C 4.9375 0.894531 5.078125 0.613281 5.34375 0.527344 Z M 5.34375 0.527344 "/>
<path fill-rule="nonzero" fill="rgb(100%, 100%, 100%)" fill-opacity="1" d="M 5 10.5 L 5 5.5 C 5 5.222656 5.222656 5 5.5 5 C 5.777344 5 6 5.222656 6 5.5 L 6 10.5 C 6 10.777344 5.777344 11 5.5 11 C 5.222656 11 5 10.777344 5 10.5 Z M 5 10.5 "/>
</svg>
