<?xml version="1.0" encoding="UTF-8"?>
<svg xmlns="http://www.w3.org/2000/svg" xmlns:xlink="http://www.w3.org/1999/xlink" width="32" height="32" viewBox="0 0 32 32">
<defs>
<filter id="filter-remove-color" x="0%" y="0%" width="100%" height="100%">
<feColorMatrix color-interpolation-filters="sRGB" values="0 0 0 0 1 0 0 0 0 1 0 0 0 0 1 0 0 0 1 0" />
</filter>
<mask id="mask-0">
<g filter="url(#filter-remove-color)">
<rect x="-3.2" y="-3.2" width="38.4" height="38.4" fill="rgb(0%, 0%, 0%)" fill-opacity="0.5"/>
</g>
</mask>
<clipPath id="clip-0">
<rect x="0" y="0" width="32" height="32"/>
</clipPath>
<g id="source-8" clip-path="url(#clip-0)">
<path fill-rule="nonzero" fill="rgb(85.490196%, 0%, 57.254902%)" fill-opacity="1" d="M 5.332031 16 L 2.667969 16 L 2.667969 18.667969 L 5.332031 18.667969 Z M 5.332031 16 "/>
<path fill-rule="nonzero" fill="rgb(85.490196%, 0%, 57.254902%)" fill-opacity="1" d="M 29.332031 16 L 26.667969 16 L 26.667969 18.667969 L 29.332031 18.667969 Z M 29.332031 16 "/>
</g>
</defs>
<path fill-rule="nonzero" fill="rgb(85.490196%, 0%, 57.254902%)" fill-opacity="1" d="M 13.332031 0 L 18.667969 0 L 18.667969 2.710938 C 20.179688 2.964844 21.332031 4.28125 21.332031 5.867188 L 21.332031 8 L 24 8 L 24 10.667969 L 21.332031 10.667969 L 21.332031 13.332031 L 24 13.332031 L 26.667969 16 L 26.667969 18.667969 L 24 21.332031 L 21.332031 21.332031 L 21.332031 29.332031 L 24 29.332031 L 24 32 L 8 32 L 8 29.332031 L 10.667969 29.332031 L 10.667969 21.332031 L 8 21.332031 L 5.332031 18.667969 L 5.332031 16 L 8 13.332031 L 10.667969 13.332031 L 10.667969 10.667969 L 8 10.667969 L 8 8 L 10.667969 8 L 10.667969 5.867188 C 10.667969 4.28125 11.820312 2.964844 13.332031 2.710938 Z M 13.332031 0 "/>
<g mask="url(#mask-0)">
<use xlink:href="#source-8"/>
</g>
</svg>
