<?xml version="1.0" encoding="UTF-8"?>
<svg xmlns="http://www.w3.org/2000/svg" xmlns:xlink="http://www.w3.org/1999/xlink" width="12" height="12" viewBox="0 0 12 12" version="1.1">
<g id="surface1">
<path style=" stroke:none;fill-rule:nonzero;fill:rgb(24.705882%,24.705882%,24.705882%);fill-opacity:1;" d="M 4.5 3.628906 L 3.589844 3.628906 L 4.03125 3.257812 C 4.21875 3.105469 4.339844 2.980469 4.398438 2.886719 C 4.457031 2.796875 4.484375 2.695312 4.484375 2.589844 C 4.484375 2.402344 4.417969 2.257812 4.28125 2.15625 C 4.144531 2.050781 3.953125 2 3.703125 2 C 3.59375 2 3.476562 2.011719 3.359375 2.03125 C 3.242188 2.050781 3.125 2.078125 3.003906 2.117188 L 3.003906 2.546875 C 3.117188 2.480469 3.222656 2.429688 3.320312 2.398438 C 3.421875 2.363281 3.511719 2.347656 3.59375 2.347656 C 3.703125 2.347656 3.789062 2.375 3.851562 2.429688 C 3.917969 2.488281 3.949219 2.558594 3.949219 2.652344 C 3.949219 2.710938 3.933594 2.769531 3.902344 2.824219 C 3.871094 2.878906 3.820312 2.9375 3.753906 2.996094 L 3 3.628906 L 3 4 L 4.5 4 Z M 4.5 3.628906 "/>
<path style=" stroke:none;fill-rule:evenodd;fill:rgb(24.705882%,24.705882%,24.705882%);fill-opacity:1;" d="M 6.375 2.441406 L 6.375 2.082031 C 6.296875 2.054688 6.214844 2.035156 6.132812 2.019531 C 6.050781 2.007812 5.96875 2 5.882812 2 C 5.609375 2 5.390625 2.089844 5.234375 2.273438 C 5.078125 2.457031 5 2.707031 5 3.023438 C 5 3.335938 5.066406 3.578125 5.199219 3.746094 C 5.335938 3.914062 5.523438 4 5.769531 4 C 5.992188 4 6.167969 3.9375 6.300781 3.8125 C 6.433594 3.6875 6.5 3.523438 6.5 3.316406 C 6.5 3.128906 6.441406 2.976562 6.320312 2.863281 C 6.203125 2.746094 6.046875 2.6875 5.855469 2.6875 C 5.78125 2.6875 5.707031 2.699219 5.644531 2.722656 C 5.578125 2.742188 5.519531 2.773438 5.464844 2.816406 C 5.476562 2.652344 5.523438 2.53125 5.605469 2.449219 C 5.6875 2.367188 5.796875 2.324219 5.941406 2.324219 C 6.011719 2.324219 6.078125 2.335938 6.148438 2.355469 C 6.222656 2.371094 6.296875 2.402344 6.375 2.441406 Z M 5.582031 3.09375 C 5.625 3.039062 5.691406 3.007812 5.773438 3.007812 C 5.859375 3.007812 5.925781 3.039062 5.96875 3.09375 C 6.011719 3.152344 6.03125 3.234375 6.03125 3.347656 C 6.03125 3.460938 6.011719 3.546875 5.96875 3.601562 C 5.925781 3.660156 5.859375 3.6875 5.773438 3.6875 C 5.691406 3.6875 5.625 3.660156 5.582031 3.601562 C 5.542969 3.546875 5.519531 3.460938 5.519531 3.347656 C 5.519531 3.234375 5.542969 3.152344 5.582031 3.09375 Z M 5.582031 3.09375 "/>
<path style=" stroke:none;fill-rule:nonzero;fill:rgb(24.705882%,24.705882%,24.705882%);fill-opacity:1;" d="M 7.078125 2 L 8.355469 2 L 8.355469 2.371094 L 7.488281 2.371094 L 7.488281 2.675781 C 7.527344 2.664062 7.566406 2.65625 7.605469 2.652344 C 7.644531 2.644531 7.6875 2.640625 7.730469 2.640625 C 7.972656 2.640625 8.160156 2.703125 8.296875 2.824219 C 8.433594 2.941406 8.5 3.109375 8.5 3.320312 C 8.5 3.535156 8.425781 3.699219 8.277344 3.820312 C 8.132812 3.941406 7.925781 4 7.664062 4 C 7.554688 4 7.441406 3.988281 7.328125 3.96875 C 7.21875 3.945312 7.109375 3.914062 7 3.871094 L 7 3.472656 C 7.109375 3.53125 7.210938 3.578125 7.308594 3.609375 C 7.40625 3.640625 7.5 3.65625 7.585938 3.65625 C 7.710938 3.65625 7.808594 3.625 7.878906 3.566406 C 7.949219 3.507812 7.984375 3.425781 7.984375 3.320312 C 7.984375 3.21875 7.949219 3.136719 7.878906 3.078125 C 7.808594 3.019531 7.710938 2.988281 7.585938 2.988281 C 7.511719 2.988281 7.433594 2.996094 7.347656 3.015625 C 7.265625 3.035156 7.175781 3.0625 7.078125 3.105469 Z M 7.078125 2 "/>
<path style=" stroke:none;fill-rule:nonzero;fill:rgb(24.705882%,24.705882%,24.705882%);fill-opacity:1;" d="M 5.917969 5 L 3 9.929688 C 3.160156 9.972656 3.328125 10 3.4375 10 C 3.644531 10 4.070312 9.90625 4.246094 9.761719 C 4.371094 9.664062 4.53125 9.605469 4.695312 9.605469 C 4.859375 9.605469 5.015625 9.664062 5.140625 9.761719 C 5.320312 9.90625 5.742188 10 5.949219 10 C 6.15625 10 6.578125 9.90625 6.757812 9.761719 C 6.882812 9.664062 7.042969 9.605469 7.207031 9.605469 C 7.371094 9.605469 7.527344 9.664062 7.652344 9.761719 C 7.828125 9.90625 8.253906 10 8.460938 10 C 8.59375 10 8.8125 9.960938 9 9.898438 Z M 5.917969 5 "/>
<path style=" stroke:none;fill-rule:nonzero;fill:rgb(24.705882%,24.705882%,24.705882%);fill-opacity:1;" d="M 2.203125 10 C 1.84375 10.242188 1.339844 10.324219 1 10.332031 C 1.007812 10.53125 1.003906 10.585938 1.003906 10.710938 C 1.003906 10.777344 1.003906 10.863281 1.007812 10.996094 C 1.488281 11.023438 2.054688 10.777344 2.203125 10.667969 C 2.582031 10.925781 3.132812 11 3.472656 11 C 3.8125 11 4.363281 10.925781 4.746094 10.667969 C 5.125 10.925781 5.675781 11 6.015625 11 C 6.355469 11 6.90625 10.925781 7.285156 10.667969 C 7.667969 10.925781 8.21875 11 8.558594 11 C 8.898438 11 9.445312 10.925781 9.828125 10.667969 C 9.996094 10.78125 10.628906 10.949219 11 10.988281 C 10.996094 10.828125 10.996094 10.738281 11 10.652344 C 11 10.5625 11 10.480469 11 10.332031 C 10.660156 10.316406 10.171875 10.234375 9.828125 10 C 9.445312 10.257812 8.898438 10.332031 8.558594 10.332031 C 8.21875 10.332031 7.667969 10.257812 7.285156 10 C 6.90625 10.257812 6.355469 10.332031 6.015625 10.332031 C 5.675781 10.332031 5.125 10.257812 4.746094 10 C 4.363281 10.257812 3.8125 10.332031 3.472656 10.332031 C 3.132812 10.332031 2.582031 10.257812 2.203125 10 Z M 2.203125 10 "/>
</g>
</svg>
