<?xml version="1.0" encoding="UTF-8"?>
<svg xmlns="http://www.w3.org/2000/svg" xmlns:xlink="http://www.w3.org/1999/xlink" width="12" height="12" viewBox="0 0 12 12" version="1.1">
<defs>
<filter id="alpha" filterUnits="objectBoundingBox" x="0%" y="0%" width="100%" height="100%">
  <feColorMatrix type="matrix" in="SourceGraphic" values="0 0 0 0 1 0 0 0 0 1 0 0 0 0 1 0 0 0 1 0"/>
</filter>
<mask id="mask0">
  <g filter="url(#alpha)">
<rect x="0" y="0" width="12" height="12" style="fill:rgb(0%,0%,0%);fill-opacity:0.2;stroke:none;"/>
  </g>
</mask>
<clipPath id="clip1">
  <rect x="0" y="0" width="12" height="12"/>
</clipPath>
<g id="surface5" clip-path="url(#clip1)">
<path style=" stroke:none;fill-rule:nonzero;fill:rgb(47.843137%,47.843137%,47.843137%);fill-opacity:1;" d="M 4 4 L 8 4 L 8 8 L 4 8 Z M 4 4 "/>
</g>
<mask id="mask1">
  <g filter="url(#alpha)">
<rect x="0" y="0" width="12" height="12" style="fill:rgb(0%,0%,0%);fill-opacity:0.2;stroke:none;"/>
  </g>
</mask>
<clipPath id="clip2">
  <rect x="0" y="0" width="12" height="12"/>
</clipPath>
<g id="surface8" clip-path="url(#clip2)">
<path style=" stroke:none;fill-rule:nonzero;fill:rgb(26.666668%,26.666668%,26.666668%);fill-opacity:1;" d="M 4 4 L 8 4 L 8 8 L 4 8 Z M 4 4 "/>
</g>
</defs>
<g id="surface1">
<use xlink:href="#surface5" mask="url(#mask0)"/>
<path style=" stroke:none;fill-rule:nonzero;fill:rgb(47.843137%,47.843137%,47.843137%);fill-opacity:1;" d="M 4.375 4.5 C 4.375 4.570312 4.429688 4.625 4.5 4.625 C 4.570312 4.625 4.625 4.570312 4.625 4.5 Z M 4.625 7.5 C 4.625 7.429688 4.570312 7.375 4.5 7.375 C 4.429688 7.375 4.375 7.429688 4.375 7.5 Z M 4.625 4.5 L 4.625 3.625 L 4.375 3.625 L 4.375 4.5 Z M 4.625 3.625 L 8.375 3.625 L 8.375 3.375 L 4.625 3.375 Z M 8.375 3.625 L 8.375 8.375 L 8.625 8.375 L 8.625 3.625 Z M 8.375 8.375 L 4.625 8.375 L 4.625 8.625 L 8.375 8.625 Z M 4.625 8.375 L 4.625 7.5 L 4.375 7.5 L 4.375 8.375 Z M 4.625 8.375 L 4.375 8.375 C 4.375 8.511719 4.488281 8.625 4.625 8.625 Z M 8.375 8.375 L 8.375 8.625 C 8.511719 8.625 8.625 8.511719 8.625 8.375 Z M 8.375 3.625 L 8.625 3.625 C 8.625 3.488281 8.511719 3.375 8.375 3.375 Z M 4.625 3.625 L 4.625 3.375 C 4.488281 3.375 4.375 3.488281 4.375 3.625 Z M 4.625 3.625 "/>
<path style="fill:none;stroke-width:1;stroke-linecap:round;stroke-linejoin:round;stroke:rgb(47.843137%,47.843137%,47.843137%);stroke-opacity:1;stroke-miterlimit:4;" d="M 24 20 L 28 24 M 28 24 L 24 28 M 28 24 L 14 24 " transform="matrix(0.25,0,0,0.25,0,0)"/>
<use xlink:href="#surface8" mask="url(#mask1)"/>
<path style=" stroke:none;fill-rule:nonzero;fill:rgb(26.666668%,26.666668%,26.666668%);fill-opacity:1;" d="M 5 3 C 4.449219 3 4 3.449219 4 4 L 4 4.5 C 4 4.777344 4.222656 5 4.5 5 C 4.777344 5 5 4.777344 5 4.5 L 5 4 L 8 4 L 8 8 L 5 8 L 5 7.5 C 5 7.222656 4.777344 7 4.5 7 C 4.222656 7 4 7.222656 4 7.5 L 4 8 C 4 8.550781 4.449219 9 5 9 L 8 9 C 8.550781 9 9 8.550781 9 8 L 9 4 C 9 3.449219 8.550781 3 8 3 Z M 5 3 "/>
<path style=" stroke:none;fill-rule:nonzero;fill:rgb(26.666668%,26.666668%,26.666668%);fill-opacity:1;" d="M 6.355469 4.644531 C 6.160156 4.453125 5.839844 4.453125 5.644531 4.644531 C 5.453125 4.839844 5.453125 5.160156 5.644531 5.355469 L 5.792969 5.5 L 3.5 5.5 C 3.222656 5.5 3 5.722656 3 6 C 3 6.277344 3.222656 6.5 3.5 6.5 L 5.792969 6.5 L 5.644531 6.644531 C 5.453125 6.839844 5.453125 7.160156 5.644531 7.355469 C 5.839844 7.546875 6.160156 7.546875 6.355469 7.355469 L 7.355469 6.355469 C 7.546875 6.160156 7.546875 5.839844 7.355469 5.644531 Z M 6.355469 4.644531 "/>
</g>
</svg>
