<svg width="12" height="12" viewBox="0 0 48 48" fill="none" xmlns="http://www.w3.org/2000/svg">
<path d="M34 4C30.6863 4 28 6.68629 28 10C28 13.3137 30.6863 16 34 16C34.7068 16 35.3851 15.8778 36.0148 15.6533C36.005 15.7676 36 15.8832 36 16C36 18.2091 37.7909 20 40 20C42.2091 20 44 18.2091 44 16C44 13.7909 42.2091 12 40 12C39.8832 12 39.7676 12.005 39.6533 12.0148C39.8778 11.3851 40 10.7068 40 10C40 6.68629 37.3137 4 34 4Z" fill="#ffffff"/>
<path d="M42 20C43.1046 20 44 20.8954 44 22C44 23.1046 43.1046 24 42 24C40.8954 24 40 23.1046 40 22C40 20.8954 40.8954 20 42 20Z" fill="#ffffff"/>
<path fill-rule="evenodd" clip-rule="evenodd" d="M8 30H4V34H8L12 36H36V28H12L8 30ZM32 29C32.5523 29 33 29.4477 33 30V31H34C34.5523 31 35 31.4477 35 32C35 32.5523 34.5523 33 34 33H33V34C33 34.5523 32.5523 35 32 35C31.4477 35 31 34.5523 31 34V33H30C29.4477 33 29 32.5523 29 32C29 31.4477 29.4477 31 30 31H31V30C31 29.4477 31.4477 29 32 29ZM9 32C9 31.4477 9.44772 31 10 31H14C14.5523 31 15 31.4477 15 32C15 32.5523 14.5523 33 14 33H10C9.44772 33 9 32.5523 9 32Z" fill="#ffffff"/>
<path d="M48 30H38V34H48V30Z" fill="#ffffff"/>
</svg>
