<?xml version="1.0" encoding="UTF-8"?>
<svg xmlns="http://www.w3.org/2000/svg" xmlns:xlink="http://www.w3.org/1999/xlink" width="32" height="32" viewBox="0 0 32 32">
<defs>
<filter id="filter-remove-color" x="0%" y="0%" width="100%" height="100%">
<feColorMatrix color-interpolation-filters="sRGB" values="0 0 0 0 1 0 0 0 0 1 0 0 0 0 1 0 0 0 1 0" />
</filter>
<mask id="mask-0">
<g filter="url(#filter-remove-color)">
<rect x="-3.2" y="-3.2" width="38.4" height="38.4" fill="rgb(0%, 0%, 0%)" fill-opacity="0.75"/>
</g>
</mask>
<clipPath id="clip-0">
<rect x="0" y="0" width="32" height="32"/>
</clipPath>
<g id="source-6" clip-path="url(#clip-0)">
<path fill-rule="evenodd" fill="rgb(100%, 100%, 100%)" fill-opacity="1" stroke-width="5.73613" stroke-linecap="round" stroke-linejoin="round" stroke="rgb(100%, 100%, 100%)" stroke-opacity="1" stroke-miterlimit="4" d="M 189.958496 330.639648 L 99.829102 393.723145 C 65.065918 433.088379 138.415527 431.955566 173.037109 450.43457 L 214.73877 469.338379 L 211.340332 437.832031 L 167.443848 406.325684 L 212.473145 359.667969 Z M 189.958496 330.639648 " transform="matrix(0.0551724, 0, 0, 0.0551724, 0, 0)"/>
</g>
<mask id="mask-1">
<g filter="url(#filter-remove-color)">
<rect x="-3.2" y="-3.2" width="38.4" height="38.4" fill="rgb(0%, 0%, 0%)" fill-opacity="0.75"/>
</g>
</mask>
<clipPath id="clip-1">
<rect x="0" y="0" width="32" height="32"/>
</clipPath>
<g id="source-10" clip-path="url(#clip-1)">
<path fill-rule="evenodd" fill="rgb(100%, 100%, 100%)" fill-opacity="1" stroke-width="5.73613" stroke-linecap="round" stroke-linejoin="round" stroke="rgb(100%, 100%, 100%)" stroke-opacity="1" stroke-miterlimit="4" d="M 411.918945 354.570312 C 427.565918 399.245605 458.505859 484.277344 448.027344 513.518066 L 485.197754 512.243652 C 467.001953 459.709473 464.523926 407.175293 458.151855 354.570312 Z M 411.918945 354.570312 " transform="matrix(0.0551724, 0, 0, 0.0551724, 0, 0)"/>
</g>
</defs>
<g mask="url(#mask-0)">
<use xlink:href="#source-6"/>
</g>
<g mask="url(#mask-1)">
<use xlink:href="#source-10"/>
</g>
<path fill-rule="evenodd" fill="rgb(100%, 100%, 100%)" fill-opacity="1" stroke-width="5.81476" stroke-linecap="round" stroke-linejoin="round" stroke="rgb(100%, 100%, 100%)" stroke-opacity="1" stroke-miterlimit="4" d="M 133.742676 216.154785 C 154.628906 199.729004 248.935547 134.592285 259.414062 126.733398 C 270.10498 118.73291 274.919434 120.007324 282.424316 121.848145 L 350.039062 138.769531 C 395.068359 152.717285 360.871582 205.534668 331.914062 221.889648 C 328.374023 243.908691 344.870605 266.210938 395.98877 294.672852 L 331.914062 305.576172 C 329.931641 266.210938 265.078125 278.955078 263.024902 256.015625 L 299.345703 196.826172 C 282.070312 195.905762 268.26416 193.144531 250.98877 185.002441 C 201.782227 205.180664 177.285156 221.889648 145.849609 239.094238 Z M 133.742676 216.154785 " transform="matrix(0.0551724, 0, 0, 0.0551724, 0, 0)"/>
<path fill-rule="evenodd" fill="rgb(100%, 100%, 100%)" fill-opacity="1" stroke-width="8.06056" stroke-linecap="round" stroke-linejoin="round" stroke="rgb(100%, 100%, 100%)" stroke-opacity="1" stroke-miterlimit="4" d="M 171.833496 71.57959 L 227.553711 75.19043 L 222.102051 83.190918 L 170.134277 74.765625 Z M 171.833496 71.57959 " transform="matrix(0.0551724, 0, 0, 0.0551724, 0, 0)"/>
<path fill-rule="nonzero" fill="rgb(100%, 100%, 100%)" fill-opacity="1" stroke-width="14.3075" stroke-linecap="round" stroke-linejoin="round" stroke="rgb(100%, 100%, 100%)" stroke-opacity="1" stroke-miterlimit="4" d="M 224.863281 57.561035 C 212.402344 57.561035 201.853027 65.632324 198.312988 76.889648 L 252.687988 86.306152 C 252.687988 86.022949 252.687988 85.668945 252.687988 85.385742 C 252.687988 70.021973 240.227051 57.561035 224.863281 57.561035 Z M 224.863281 57.561035 " transform="matrix(0.0551724, 0, 0, 0.0551724, 0, 0)"/>
<path fill-rule="evenodd" fill="rgb(100%, 100%, 100%)" fill-opacity="1" stroke-width="6.50514" stroke-linecap="round" stroke-linejoin="round" stroke="rgb(100%, 100%, 100%)" stroke-opacity="1" stroke-miterlimit="4" d="M 190.737305 92.46582 C 190.595703 93.527832 190.524902 94.589844 190.524902 95.651855 C 190.170898 112.148438 203.269043 125.812988 219.836426 126.166992 C 234.208984 126.450195 246.386719 116.538086 249.501953 103.015137 Z M 190.737305 92.46582 " transform="matrix(0.0551724, 0, 0, 0.0551724, 0, 0)"/>
<path fill-rule="evenodd" fill="rgb(100%, 100%, 100%)" fill-opacity="1" stroke-width="11.4723" stroke-linecap="round" stroke-linejoin="round" stroke="rgb(100%, 100%, 100%)" stroke-opacity="1" stroke-miterlimit="4" d="M 213.605957 247.37793 L 331.914062 220.898438 C 386.07666 212.614746 413.972168 223.87207 432.23877 242.351074 C 503.464355 225.217285 532.280273 249.714355 556.210938 278.955078 L 540.705566 299.628906 C 521.518555 273.007812 489.729004 247.944336 440.805664 258.068848 C 447.036133 290.283203 466.931152 316.26709 494.189453 338.356934 C 511.535645 380.200195 529.377441 441.726074 558.476562 476.914062 L 540.422363 504.667969 C 520.810547 458.293457 492.277832 390.749512 451.638184 364.482422 C 420.344238 355.561523 391.45752 347.561035 369.155273 322.001953 L 354.216309 317.1875 C 317.612305 351.030273 261.538086 362.783203 210.20752 363.632812 C 175.515137 400.307617 146.203613 451.779785 97.563477 513.518066 L 63.720703 498.366699 C 104.147949 466.931152 135.087891 397.971191 169.638672 353.508301 C 168.151855 298.212891 136.149902 249.785156 114.343262 234.70459 C 92.536621 219.624023 66.340332 251.130371 41.206055 254.953613 C 26.762695 257.219238 15.930176 236.403809 24.284668 225.996094 C 32.993164 215.092773 66.12793 177.001953 95.297852 161.638184 L 106.555176 132.609863 L 113.352051 160.36377 C 148.186035 183.09082 184.436035 199.233398 213.605957 247.37793 Z M 213.605957 247.37793 " transform="matrix(0.0551724, 0, 0, 0.0551724, 0, 0)"/>
</svg>
