<?xml version="1.0" encoding="UTF-8"?>
<svg xmlns="http://www.w3.org/2000/svg" xmlns:xlink="http://www.w3.org/1999/xlink" width="32" height="32" viewBox="0 0 32 32">
<path fill-rule="evenodd" fill="rgb(100%, 100%, 100%)" fill-opacity="1" d="M 17.332031 5.332031 C 18.070312 5.332031 18.667969 4.738281 18.667969 4 C 18.667969 3.261719 18.070312 2.667969 17.332031 2.667969 C 16.597656 2.667969 16 3.261719 16 4 C 16 4.738281 16.597656 5.332031 17.332031 5.332031 Z M 17.332031 5.332031 L 19.332031 5.332031 C 19.703125 5.332031 20 5.632812 20 6 L 20 8.667969 C 20 9.035156 19.703125 9.332031 19.332031 9.332031 C 18.964844 9.332031 18.667969 9.035156 18.667969 8.667969 L 18.667969 10.667969 L 16 10.667969 L 16 8.667969 C 16 9.035156 15.703125 9.332031 15.332031 9.332031 C 14.964844 9.332031 14.667969 9.035156 14.667969 8.667969 L 14.667969 6 C 14.667969 5.632812 14.964844 5.332031 15.332031 5.332031 Z M 17.332031 5.332031 "/>
<path fill-rule="evenodd" fill="rgb(100%, 100%, 100%)" fill-opacity="1" d="M 9.332031 5.332031 C 10.070312 5.332031 10.667969 4.738281 10.667969 4 C 10.667969 3.261719 10.070312 2.667969 9.332031 2.667969 C 8.597656 2.667969 8 3.261719 8 4 C 8 4.738281 8.597656 5.332031 9.332031 5.332031 Z M 9.332031 5.332031 L 11.332031 5.332031 C 11.703125 5.332031 12 5.632812 12 6 L 12 8.667969 C 12 9.035156 11.703125 9.332031 11.332031 9.332031 C 10.964844 9.332031 10.667969 9.035156 10.667969 8.667969 L 10.667969 10.667969 L 8 10.667969 L 8 8.667969 C 8 9.035156 7.703125 9.332031 7.332031 9.332031 C 6.964844 9.332031 6.667969 9.035156 6.667969 8.667969 L 6.667969 6 C 6.667969 5.632812 6.964844 5.332031 7.332031 5.332031 Z M 9.332031 5.332031 "/>
<path fill-rule="evenodd" fill="rgb(100%, 100%, 100%)" fill-opacity="1" d="M 25.332031 5.332031 C 26.070312 5.332031 26.667969 4.738281 26.667969 4 C 26.667969 3.261719 26.070312 2.667969 25.332031 2.667969 C 24.597656 2.667969 24 3.261719 24 4 C 24 4.738281 24.597656 5.332031 25.332031 5.332031 Z M 25.332031 5.332031 L 27.332031 5.332031 C 27.703125 5.332031 28 5.632812 28 6 L 28 8.667969 C 28 9.035156 27.703125 9.332031 27.332031 9.332031 C 26.964844 9.332031 26.667969 9.035156 26.667969 8.667969 L 26.667969 10.667969 L 24 10.667969 L 24 8.667969 C 24 9.035156 23.703125 9.332031 23.332031 9.332031 C 22.964844 9.332031 22.667969 9.035156 22.667969 8.667969 L 22.667969 6 C 22.667969 5.632812 22.964844 5.332031 23.332031 5.332031 Z M 25.332031 5.332031 "/>
<path fill-rule="evenodd" fill="rgb(100%, 100%, 100%)" fill-opacity="1" d="M 10.667969 14.667969 C 10.667969 15.402344 10.070312 16 9.332031 16 C 8.597656 16 8 15.402344 8 14.667969 C 8 13.929688 8.597656 13.332031 9.332031 13.332031 C 10.070312 13.332031 10.667969 13.929688 10.667969 14.667969 Z M 10.667969 21.332031 L 10.667969 19.332031 C 10.667969 19.703125 10.964844 20 11.332031 20 C 11.703125 20 12 19.703125 12 19.332031 L 12 16.667969 C 12 16.296875 11.703125 16 11.332031 16 L 7.332031 16 C 6.964844 16 6.667969 16.296875 6.667969 16.667969 L 6.667969 19.332031 C 6.667969 19.703125 6.964844 20 7.332031 20 C 7.703125 20 8 19.703125 8 19.332031 L 8 21.332031 L 2.667969 21.332031 L 2.667969 29.332031 L 5.332031 29.332031 L 5.332031 24 L 13.332031 24 L 13.332031 29.332031 L 16 29.332031 L 16 21.332031 Z M 10.667969 21.332031 "/>
</svg>
