<?xml version="1.0" encoding="UTF-8"?>
<svg xmlns="http://www.w3.org/2000/svg" xmlns:xlink="http://www.w3.org/1999/xlink" width="32" height="32" viewBox="0 0 32 32">
<path fill-rule="evenodd" fill="rgb(100%, 100%, 100%)" fill-opacity="1" d="M 9.613281 5.332031 C 11.9375 5.332031 14.105469 6.496094 15.394531 8.425781 L 16 9.332031 L 16.605469 8.425781 C 17.894531 6.496094 20.0625 5.332031 22.386719 5.332031 C 26.222656 5.332031 29.332031 8.445312 29.332031 12.28125 L 29.332031 12.875 C 29.332031 14.875 28.539062 16.792969 27.125 18.210938 L 16 29.332031 L 4.875 18.210938 C 3.460938 16.792969 2.667969 14.875 2.667969 12.875 L 2.667969 12.28125 C 2.667969 8.445312 5.777344 5.332031 9.613281 5.332031 Z M 6.195312 11.527344 C 6.457031 11.269531 6.878906 11.269531 7.136719 11.527344 L 8 12.390625 L 8.863281 11.527344 C 9.121094 11.269531 9.542969 11.269531 9.804688 11.527344 C 10.066406 11.789062 10.066406 12.210938 9.804688 12.472656 L 8.941406 13.332031 L 9.804688 14.195312 C 10.066406 14.457031 10.066406 14.878906 9.804688 15.136719 C 9.542969 15.398438 9.121094 15.398438 8.863281 15.136719 L 8 14.277344 L 7.136719 15.136719 C 6.878906 15.398438 6.457031 15.398438 6.195312 15.136719 C 5.933594 14.878906 5.933594 14.457031 6.195312 14.195312 L 7.058594 13.332031 L 6.195312 12.472656 C 5.933594 12.210938 5.933594 11.789062 6.195312 11.527344 Z M 15.136719 11.527344 C 14.878906 11.269531 14.457031 11.269531 14.195312 11.527344 C 13.933594 11.789062 13.933594 12.210938 14.195312 12.472656 L 15.058594 13.332031 L 14.195312 14.195312 C 13.933594 14.457031 13.933594 14.878906 14.195312 15.136719 C 14.457031 15.398438 14.878906 15.398438 15.136719 15.136719 L 16 14.277344 L 16.863281 15.136719 C 17.121094 15.398438 17.542969 15.398438 17.804688 15.136719 C 18.066406 14.878906 18.066406 14.457031 17.804688 14.195312 L 16.941406 13.332031 L 17.804688 12.472656 C 18.066406 12.210938 18.066406 11.789062 17.804688 11.527344 C 17.542969 11.269531 17.121094 11.269531 16.863281 11.527344 L 16 12.390625 Z M 23.136719 11.527344 C 22.878906 11.269531 22.457031 11.269531 22.195312 11.527344 C 21.933594 11.789062 21.933594 12.210938 22.195312 12.472656 L 23.058594 13.332031 L 22.195312 14.195312 C 21.933594 14.457031 21.933594 14.878906 22.195312 15.136719 C 22.457031 15.398438 22.878906 15.398438 23.136719 15.136719 L 24 14.277344 L 24.863281 15.136719 C 25.121094 15.398438 25.542969 15.398438 25.804688 15.136719 C 26.066406 14.878906 26.066406 14.457031 25.804688 14.195312 L 24.941406 13.332031 L 25.804688 12.472656 C 26.066406 12.210938 26.066406 11.789062 25.804688 11.527344 C 25.542969 11.269531 25.121094 11.269531 24.863281 11.527344 L 24 12.390625 Z M 23.136719 11.527344 "/>
</svg>
