<?xml version="1.0" encoding="UTF-8"?>
<svg xmlns="http://www.w3.org/2000/svg" xmlns:xlink="http://www.w3.org/1999/xlink" width="32" height="32" viewBox="0 0 32 32">
<path fill-rule="nonzero" fill="rgb(100%, 100%, 100%)" fill-opacity="1" d="M 22.667969 2.667969 C 20.457031 2.667969 18.667969 4.457031 18.667969 6.667969 C 18.667969 8.875 20.457031 10.667969 22.667969 10.667969 C 23.136719 10.667969 23.589844 10.585938 24.011719 10.433594 C 24.003906 10.511719 24 10.589844 24 10.667969 C 24 12.140625 25.195312 13.332031 26.667969 13.332031 C 28.140625 13.332031 29.332031 12.140625 29.332031 10.667969 C 29.332031 9.195312 28.140625 8 26.667969 8 C 26.589844 8 26.511719 8.003906 26.433594 8.011719 C 26.585938 7.589844 26.667969 7.136719 26.667969 6.667969 C 26.667969 4.457031 24.875 2.667969 22.667969 2.667969 Z M 22.667969 2.667969 "/>
<path fill-rule="nonzero" fill="rgb(100%, 100%, 100%)" fill-opacity="1" d="M 28 13.332031 C 28.738281 13.332031 29.332031 13.929688 29.332031 14.667969 C 29.332031 15.402344 28.738281 16 28 16 C 27.261719 16 26.667969 15.402344 26.667969 14.667969 C 26.667969 13.929688 27.261719 13.332031 28 13.332031 Z M 28 13.332031 "/>
<path fill-rule="evenodd" fill="rgb(100%, 100%, 100%)" fill-opacity="1" d="M 5.332031 20 L 2.667969 20 L 2.667969 22.667969 L 5.332031 22.667969 L 8 24 L 24 24 L 24 18.667969 L 8 18.667969 Z M 21.332031 19.332031 C 21.703125 19.332031 22 19.632812 22 20 L 22 20.667969 L 22.667969 20.667969 C 23.035156 20.667969 23.332031 20.964844 23.332031 21.332031 C 23.332031 21.703125 23.035156 22 22.667969 22 L 22 22 L 22 22.667969 C 22 23.035156 21.703125 23.332031 21.332031 23.332031 C 20.964844 23.332031 20.667969 23.035156 20.667969 22.667969 L 20.667969 22 L 20 22 C 19.632812 22 19.332031 21.703125 19.332031 21.332031 C 19.332031 20.964844 19.632812 20.667969 20 20.667969 L 20.667969 20.667969 L 20.667969 20 C 20.667969 19.632812 20.964844 19.332031 21.332031 19.332031 Z M 6 21.332031 C 6 20.964844 6.296875 20.667969 6.667969 20.667969 L 9.332031 20.667969 C 9.703125 20.667969 10 20.964844 10 21.332031 C 10 21.703125 9.703125 22 9.332031 22 L 6.667969 22 C 6.296875 22 6 21.703125 6 21.332031 Z M 6 21.332031 "/>
<path fill-rule="nonzero" fill="rgb(100%, 100%, 100%)" fill-opacity="1" d="M 32 20 L 25.332031 20 L 25.332031 22.667969 L 32 22.667969 Z M 32 20 "/>
</svg>
