<?xml version="1.0" encoding="UTF-8"?>
<svg xmlns="http://www.w3.org/2000/svg" xmlns:xlink="http://www.w3.org/1999/xlink" width="12" height="12" viewBox="0 0 12 12" version="1.1">
<g id="surface1">
<path style=" stroke:none;fill-rule:nonzero;fill:rgb(100%,100%,100%);fill-opacity:1;" d="M 3 2.5 C 3 2.222656 3.222656 2 3.5 2 L 4.5 2 C 4.777344 2 5 2.222656 5 2.5 L 5 3 L 3 3 Z M 3 2.5 "/>
<path style=" stroke:none;fill-rule:nonzero;fill:rgb(100%,100%,100%);fill-opacity:1;" d="M 7 2.5 C 7 2.222656 7.222656 2 7.5 2 L 8.5 2 C 8.777344 2 9 2.222656 9 2.5 L 9 3 L 7 3 Z M 7 2.5 "/>
<path style=" stroke:none;fill-rule:evenodd;fill:rgb(100%,100%,100%);fill-opacity:1;" d="M 2 5 C 2 4.449219 2.449219 4 3 4 L 9 4 C 9.550781 4 10 4.449219 10 5 L 10 9 C 10 9.550781 9.550781 10 9 10 L 3 10 C 2.449219 10 2 9.550781 2 9 Z M 7 6 L 8 6 L 8 7 L 9 7 L 9 8 L 8 8 L 8 9 L 7 9 L 7 8 L 6 8 L 6 7 L 7 7 Z M 5 8 L 5 7 L 3 7 L 3 8 Z M 5 8 "/>
</g>
</svg>
