<?xml version="1.0" encoding="UTF-8"?>
<svg xmlns="http://www.w3.org/2000/svg" xmlns:xlink="http://www.w3.org/1999/xlink" width="12" height="12" viewBox="0 0 12 12" version="1.1">
<g id="surface1">
<path style=" stroke:none;fill-rule:nonzero;fill:rgb(100%,100%,100%);fill-opacity:1;" d="M 0.644531 1.355469 L 2.644531 3.355469 L 2 4 L 4 4 L 4 2 L 3.355469 2.644531 L 1.355469 0.644531 Z M 0.644531 1.355469 "/>
<path style=" stroke:none;fill-rule:nonzero;fill:rgb(100%,100%,100%);fill-opacity:1;" d="M 7 3 L 5 3 L 5 5 L 3 5 L 3 7 L 5 7 L 5 9 L 7 9 L 7 7 L 9 7 L 9 5 L 7 5 Z M 7 3 "/>
<path style=" stroke:none;fill-rule:nonzero;fill:rgb(100%,100%,100%);fill-opacity:1;" d="M 2.644531 8.644531 L 0.644531 10.644531 L 1.355469 11.355469 L 3.355469 9.355469 L 4 10 L 4 8 L 2 8 Z M 2.644531 8.644531 "/>
<path style=" stroke:none;fill-rule:nonzero;fill:rgb(100%,100%,100%);fill-opacity:1;" d="M 11.355469 1.355469 L 9.355469 3.355469 L 10 4 L 8 4 L 8 2 L 8.644531 2.644531 L 10.644531 0.644531 Z M 11.355469 1.355469 "/>
<path style=" stroke:none;fill-rule:nonzero;fill:rgb(100%,100%,100%);fill-opacity:1;" d="M 9.355469 8.644531 L 11.355469 10.644531 L 10.644531 11.355469 L 8.644531 9.355469 L 8 10 L 8 8 L 10 8 Z M 9.355469 8.644531 "/>
</g>
</svg>
