<?xml version="1.0" encoding="UTF-8"?>
<svg xmlns="http://www.w3.org/2000/svg" xmlns:xlink="http://www.w3.org/1999/xlink" width="12" height="12" viewBox="0 0 12 12" version="1.1">
<g id="surface1">
<path style=" stroke:none;fill-rule:evenodd;fill:rgb(24.705882%,24.705882%,24.705882%);fill-opacity:1;" d="M 1.03125 1.144531 L 1.03125 10.855469 L 2.679688 9.84375 L 4.230469 9.871094 C 4.230469 9.871094 4.910156 9.367188 4.9375 9.363281 C 5.539062 9.332031 4.351562 7.464844 4.351562 7.464844 L 3.761719 6.414062 L 4.300781 4.621094 C 4.300781 4.621094 2.363281 2.492188 2.460938 2.476562 C 2.539062 2.464844 5.515625 3.738281 5.515625 3.738281 L 5.589844 5.675781 C 5.589844 5.675781 7.53125 6.816406 7.570312 6.792969 C 7.613281 6.773438 8.414062 5.6875 8.414062 5.6875 C 8.414062 5.6875 8.242188 4.890625 8.519531 4.363281 C 9 3.457031 10.144531 2.570312 10.144531 2.570312 L 10.96875 1.144531 Z M 1.03125 1.144531 "/>
</g>
</svg>
