<?xml version="1.0" encoding="UTF-8"?>
<svg xmlns="http://www.w3.org/2000/svg" xmlns:xlink="http://www.w3.org/1999/xlink" width="12" height="12" viewBox="0 0 12 12" version="1.1">
<g id="surface1">
<path style=" stroke:none;fill-rule:evenodd;fill:rgb(24.705882%,24.705882%,24.705882%);fill-opacity:1;" d="M 6 2.5 C 6.414062 2.5 6.75 2.164062 6.75 1.75 C 6.75 1.335938 6.414062 1 6 1 C 5.585938 1 5.25 1.335938 5.25 1.75 C 5.25 2.164062 5.585938 2.5 6 2.5 Z M 4.429688 3.136719 C 4.472656 3.054688 4.558594 3 4.65625 3 L 7.34375 3 C 7.441406 3 7.527344 3.054688 7.570312 3.136719 L 8 4 L 8.894531 6.6875 C 8.945312 6.839844 8.832031 7 8.671875 7 C 8.570312 7 8.476562 6.933594 8.445312 6.835938 L 7.5 4 L 7 4 L 8 8 L 7 8 L 7 10.75 C 7 10.886719 6.886719 11 6.75 11 C 6.613281 11 6.5 10.886719 6.5 10.75 L 6.5 8 L 5.5 8 L 5.5 10.75 C 5.5 10.886719 5.386719 11 5.25 11 C 5.113281 11 5 10.886719 5 10.75 L 5 8 L 4 8 L 5 4 L 4.5 4 L 3.554688 6.835938 C 3.523438 6.933594 3.429688 7 3.328125 7 C 3.167969 7 3.054688 6.839844 3.105469 6.6875 L 4 4 Z M 4.429688 3.136719 "/>
</g>
</svg>
