<?xml version="1.0" encoding="UTF-8"?>
<svg xmlns="http://www.w3.org/2000/svg" xmlns:xlink="http://www.w3.org/1999/xlink" width="32" height="32" viewBox="0 0 32 32">
<path fill-rule="nonzero" fill="rgb(100%, 100%, 100%)" fill-opacity="1" d="M 21.332031 2.667969 L 29.332031 0 L 29.332031 10.667969 L 21.332031 8 L 21.332031 6.667969 L 18.667969 6.667969 L 18.667969 8 L 13.332031 8 L 13.332031 6.667969 L 10.667969 6.667969 C 9.195312 6.667969 8 7.859375 8 9.332031 L 8 10.667969 L 5.332031 10.667969 L 5.332031 9.332031 C 5.332031 6.386719 7.722656 4 10.667969 4 L 13.332031 4 L 13.332031 2.667969 L 18.667969 2.667969 L 18.667969 4 L 21.332031 4 Z M 21.332031 2.667969 "/>
<path fill-rule="nonzero" fill="rgb(100%, 100%, 100%)" fill-opacity="1" d="M 13.847656 10.667969 C 13.519531 10.667969 13.203125 10.796875 12.96875 11.03125 C 10.640625 13.359375 9.332031 16.515625 9.332031 19.808594 L 9.332031 30.667969 C 9.332031 31.402344 9.929688 32 10.667969 32 L 21.332031 32 C 22.070312 32 22.667969 31.402344 22.667969 30.667969 L 22.667969 19.808594 C 22.667969 16.515625 21.359375 13.359375 19.03125 11.03125 C 18.796875 10.796875 18.480469 10.667969 18.152344 10.667969 Z M 13.847656 10.667969 "/>
</svg>
