<?xml version="1.0" encoding="UTF-8"?>
<svg xmlns="http://www.w3.org/2000/svg" xmlns:xlink="http://www.w3.org/1999/xlink" width="12" height="12" viewBox="0 0 12 12" version="1.1">
<g id="surface1">
<path style=" stroke:none;fill-rule:nonzero;fill:rgb(100%,100%,100%);fill-opacity:1;" d="M 9.15625 11.125 L 11.125 11.125 L 11.125 4.816406 C 11.125 4.816406 10.21875 6.277344 9.15625 11.125 Z M 9.15625 11.125 "/>
<path style=" stroke:none;fill-rule:nonzero;fill:rgb(100%,100%,100%);fill-opacity:1;" d="M 7.972656 11.125 L 4.816406 11.125 C 6.828125 6.671875 10.335938 4.699219 10.335938 4.699219 C 10.335938 4.699219 8.679688 7.894531 7.972656 11.125 Z M 7.972656 11.125 "/>
<path style=" stroke:none;fill-rule:nonzero;fill:rgb(100%,100%,100%);fill-opacity:1;" d="M 3.632812 11.125 L 0.875 11.125 L 0.875 9.546875 C 4.855469 5.527344 8.957031 4.542969 8.957031 4.542969 C 8.957031 4.542969 6.277344 6 3.632812 11.125 Z M 3.632812 11.125 "/>
<path style=" stroke:none;fill-rule:nonzero;fill:rgb(100%,100%,100%);fill-opacity:1;" d="M 0.875 8.367188 L 0.875 5.605469 C 3.632812 4.382812 7.578125 4.421875 7.578125 4.421875 C 7.578125 4.421875 4.105469 5.09375 0.875 8.367188 Z M 0.875 8.367188 "/>
<path style=" stroke:none;fill-rule:nonzero;fill:rgb(100%,100%,100%);fill-opacity:1;" d="M 1.976562 4.265625 C 2.015625 4.382812 1.976562 4.582031 1.9375 4.777344 C 2.214844 4.699219 2.492188 4.621094 2.765625 4.542969 C 2.53125 4.304688 2.371094 3.988281 2.371094 3.632812 C 2.371094 2.925781 2.925781 2.371094 3.632812 2.371094 C 4.34375 2.371094 4.894531 2.925781 4.894531 3.632812 C 4.894531 3.832031 4.855469 4.027344 4.738281 4.1875 C 4.976562 4.148438 5.171875 4.148438 5.367188 4.105469 C 5.722656 3.910156 6.394531 3.632812 6.394531 3.632812 C 6.394531 3.632812 5.367188 3.238281 5.289062 3.003906 C 5.171875 2.609375 5.605469 1.703125 5.605469 1.703125 C 5.605469 1.703125 4.660156 2.175781 4.34375 2.015625 C 4.066406 1.859375 3.632812 0.875 3.632812 0.875 C 3.632812 0.875 3.277344 1.859375 2.964844 2.015625 C 2.648438 2.136719 1.703125 1.664062 1.703125 1.664062 C 1.703125 1.664062 2.136719 2.648438 2.015625 2.964844 C 1.9375 3.199219 0.875 3.632812 0.875 3.632812 C 0.875 3.632812 1.898438 3.988281 1.976562 4.265625 Z M 1.976562 4.265625 "/>
</g>
</svg>
