<?xml version="1.0" encoding="UTF-8"?>
<svg xmlns="http://www.w3.org/2000/svg" xmlns:xlink="http://www.w3.org/1999/xlink" width="32" height="32" viewBox="0 0 32 32">
<path fill-rule="nonzero" fill="rgb(85.490196%, 0%, 57.254902%)" fill-opacity="1" d="M 13.914062 1.699219 L 13.914062 2.679688 C 11.265625 3.113281 9.695312 4.421875 9.601562 6.929688 L 8.546875 6.929688 L 8.546875 7.589844 L 10.035156 7.589844 L 10.035156 11.175781 L 9.144531 11.964844 L 8.394531 11.964844 L 8.394531 11.277344 L 7.277344 11.277344 L 7.277344 11.921875 L 4.421875 13.726562 L 3.890625 13.726562 L 3.890625 14.703125 L 4.410156 14.703125 L 7.234375 16.472656 L 7.234375 17.136719 L 8.429688 17.136719 L 8.429688 16.464844 L 9.03125 16.464844 L 9.871094 17.207031 L 9.871094 26.285156 L 7.203125 28.640625 L 7.203125 30.390625 L 24.796875 30.390625 L 24.796875 28.640625 L 22.128906 26.285156 L 22.128906 17.207031 L 22.96875 16.464844 L 23.570312 16.464844 L 23.570312 17.136719 L 24.765625 17.136719 L 24.765625 16.472656 L 27.585938 14.703125 L 28.109375 14.703125 L 28.109375 13.726562 L 27.578125 13.726562 L 24.722656 11.921875 L 24.722656 11.277344 L 23.605469 11.277344 L 23.605469 11.964844 L 22.855469 11.964844 L 21.964844 11.175781 L 21.964844 7.589844 L 23.453125 7.589844 L 23.453125 6.929688 L 22.398438 6.929688 C 22.304688 4.421875 20.734375 3.113281 18.085938 2.679688 L 18.085938 1.699219 Z M 15.042969 10.324219 L 17.253906 10.324219 L 17.253906 20.53125 L 20.535156 17.25 L 20.535156 20.042969 L 16.082031 24.496094 L 11.464844 19.882812 L 11.464844 16.953125 L 15.042969 20.53125 Z M 15.042969 10.324219 "/>
</svg>
