<?xml version="1.0" encoding="UTF-8"?>
<svg xmlns="http://www.w3.org/2000/svg" xmlns:xlink="http://www.w3.org/1999/xlink" width="32" height="32" viewBox="0 0 32 32">
<path fill-rule="evenodd" fill="rgb(100%, 100%, 100%)" fill-opacity="1" d="M 23.164062 4.203125 C 21.46875 2.792969 18.894531 2.703125 16.832031 2.699219 C 16.53125 2.699219 16.25 2.691406 15.976562 2.683594 C 14.371094 2.632812 13.179688 2.597656 11.636719 4.289062 C 10.347656 5.707031 8.667969 8.429688 8.667969 10.445312 C 8.667969 11.910156 9.574219 12.992188 10.703125 13.675781 C 11.832031 14.359375 13.265625 14.710938 14.585938 14.710938 C 15.898438 14.710938 17.394531 14.570312 18.582031 14.164062 C 19.730469 13.773438 20.894531 13.011719 20.894531 11.617188 C 20.894531 10.867188 20.574219 10.28125 20.09375 9.863281 C 19.632812 9.464844 19.039062 9.222656 18.46875 9.074219 C 17.328125 8.773438 16.03125 8.769531 15.378906 8.769531 C 14.714844 8.769531 13.765625 8.882812 12.972656 9.097656 C 12.242188 9.292969 11.148438 9.675781 11.148438 10.59375 C 11.148438 11.101562 11.539062 11.472656 11.945312 11.710938 C 12.3125 11.921875 12.785156 12.09375 13.292969 12.214844 C 14.304688 12.460938 15.601562 12.546875 16.710938 12.261719 C 17.066406 12.167969 17.28125 11.804688 17.191406 11.449219 C 17.101562 11.09375 16.738281 10.878906 16.378906 10.96875 C 15.234375 11.261719 13.761719 11.15625 12.691406 10.601562 C 14.304688 9.855469 16.457031 9.921875 18.128906 10.363281 C 19.035156 10.601562 19.5625 10.925781 19.5625 11.617188 C 19.5625 12.09375 19.1875 12.546875 18.152344 12.902344 C 17.160156 13.242188 15.835938 13.375 14.585938 13.375 C 13.476562 13.375 12.285156 13.078125 11.394531 12.539062 C 10.503906 12 10 11.285156 10 10.445312 C 10 9.753906 10.457031 9.082031 11.460938 8.550781 C 14.085938 7.15625 18.757812 7.210938 21.039062 9.21875 C 22.007812 10.070312 22.363281 11.261719 22.113281 12.753906 C 22.054688 13.117188 22.296875 13.460938 22.660156 13.523438 C 23.019531 13.582031 23.355469 13.347656 23.425781 12.992188 C 23.484375 13.125 25.683594 7.148438 23.164062 4.203125 Z M 23.164062 4.203125 "/>
<path fill-rule="evenodd" fill="rgb(100%, 100%, 100%)" fill-opacity="1" d="M 23.164062 19.464844 C 20.5625 17.304688 14.015625 16.9375 11.636719 19.550781 C 10.414062 20.898438 8.667969 23.746094 8.667969 25.707031 C 8.667969 27.171875 9.574219 28.253906 10.703125 28.9375 C 11.832031 29.621094 13.265625 29.972656 14.585938 29.972656 C 15.898438 29.972656 17.394531 29.832031 18.582031 29.425781 C 19.730469 29.035156 20.894531 28.273438 20.894531 26.878906 C 20.894531 26.128906 20.574219 25.542969 20.09375 25.125 C 19.632812 24.726562 19.039062 24.484375 18.46875 24.335938 C 17.328125 24.035156 16.03125 24.03125 15.378906 24.03125 C 14.714844 24.03125 13.765625 24.144531 12.972656 24.359375 C 12.578125 24.464844 12.175781 24.605469 11.859375 24.792969 C 11.585938 24.957031 11.148438 25.292969 11.148438 25.855469 C 11.148438 26.363281 11.539062 26.734375 11.945312 26.972656 C 12.3125 27.183594 12.785156 27.355469 13.292969 27.476562 C 14.304688 27.722656 15.601562 27.808594 16.710938 27.523438 C 17.066406 27.433594 17.28125 27.070312 17.191406 26.710938 C 17.101562 26.355469 16.738281 26.140625 16.378906 26.230469 C 15.539062 26.445312 14.472656 26.390625 13.605469 26.183594 C 12.921875 26.015625 12.429688 25.882812 13.316406 25.648438 C 14 25.464844 14.832031 25.367188 15.378906 25.367188 C 16.4375 25.367188 19.5625 25.242188 19.5625 26.878906 C 19.5625 28.644531 15.675781 28.636719 14.585938 28.636719 C 12.902344 28.636719 10 27.839844 10 25.707031 C 10 25.015625 10.457031 24.34375 11.460938 23.8125 C 14.085938 22.417969 18.757812 22.472656 21.039062 24.480469 C 22.007812 25.332031 22.363281 26.523438 22.113281 28.019531 C 22.054688 28.382812 22.296875 28.722656 22.660156 28.785156 C 23.019531 28.84375 23.355469 28.609375 23.425781 28.253906 C 23.484375 28.386719 25.683594 22.410156 23.164062 19.464844 Z M 23.164062 19.464844 "/>
</svg>
