<?xml version="1.0" encoding="UTF-8"?>
<svg xmlns="http://www.w3.org/2000/svg" xmlns:xlink="http://www.w3.org/1999/xlink" width="12" height="12" viewBox="0 0 12 12" version="1.1">
<g id="surface1">
<path style=" stroke:none;fill-rule:nonzero;fill:rgb(100%,100%,100%);fill-opacity:1;" d="M 3.253906 7.316406 C 4.347656 7.316406 5.507812 6.371094 5.507812 4.625 C 5.507812 2.949219 4.523438 1 3.253906 1 C 1.984375 1 1 2.949219 1 4.625 C 1 6.371094 2.160156 7.316406 3.253906 7.316406 Z M 3.253906 7.316406 "/>
<path style=" stroke:none;fill-rule:evenodd;fill:rgb(100%,100%,100%);fill-opacity:1;" d="M 8.152344 4.511719 C 8.6875 4.496094 9.660156 4.820312 9.96875 6.113281 C 10.910156 6.617188 11.046875 7.195312 10.988281 7.589844 C 10.84375 8.625 8.988281 9.945312 7.621094 10.390625 C 7.375 10.484375 6.972656 10.609375 6.664062 10.617188 C 6.414062 10.625 5.167969 10.636719 5.132812 10.179688 C 5.113281 9.9375 5.726562 8.988281 6.019531 8.667969 C 6.3125 8.351562 6.367188 8.035156 6.449219 7.574219 C 6.472656 7.453125 6.496094 7.316406 6.527344 7.167969 C 6.546875 7.054688 6.570312 6.929688 6.597656 6.792969 C 6.765625 5.859375 7.441406 4.59375 8.054688 4.519531 C 8.085938 4.515625 8.117188 4.511719 8.152344 4.511719 Z M 8.625 5.433594 C 8.355469 5.296875 8.039062 5.429688 7.90625 5.734375 C 7.773438 6.042969 7.871094 6.410156 8.140625 6.5625 C 8.410156 6.695312 8.726562 6.5625 8.859375 6.257812 C 8.992188 5.953125 8.894531 5.582031 8.625 5.433594 Z M 8.625 5.433594 "/>
</g>
</svg>
