<?xml version="1.0" encoding="UTF-8"?>
<svg xmlns="http://www.w3.org/2000/svg" xmlns:xlink="http://www.w3.org/1999/xlink" width="12" height="12" viewBox="0 0 12 12" version="1.1">
<g id="surface1">
<path style=" stroke:none;fill-rule:nonzero;fill:rgb(24.705882%,24.705882%,24.705882%);fill-opacity:1;" d="M 1.855469 1.144531 C 1.660156 0.953125 1.339844 0.953125 1.144531 1.144531 C 0.953125 1.339844 0.953125 1.660156 1.144531 1.855469 L 3.824219 4.53125 L 3.105469 6.6875 C 3.054688 6.839844 3.167969 7 3.328125 7 C 3.429688 7 3.523438 6.933594 3.554688 6.835938 L 4.199219 4.90625 L 4.660156 5.367188 L 4 8 L 5 8 L 5 10.75 C 5 10.886719 5.113281 11 5.25 11 C 5.386719 11 5.5 10.886719 5.5 10.75 L 5.5 8 L 6.5 8 L 6.5 10.75 C 6.5 10.886719 6.613281 11 6.75 11 C 6.886719 11 7 10.886719 7 10.75 L 7 8 L 7.292969 8 L 10.144531 10.855469 C 10.339844 11.046875 10.660156 11.046875 10.855469 10.855469 C 11.046875 10.660156 11.046875 10.339844 10.855469 10.144531 Z M 1.855469 1.144531 "/>
<path style=" stroke:none;fill-rule:nonzero;fill:rgb(24.705882%,24.705882%,24.705882%);fill-opacity:1;" d="M 7.5 4 L 8.042969 5.628906 L 8.792969 6.378906 L 8 4 L 7.777344 3.554688 C 7.605469 3.214844 7.261719 3 6.882812 3 L 5.414062 3 L 7.195312 4.78125 L 7 4 Z M 7.5 4 "/>
<path style=" stroke:none;fill-rule:nonzero;fill:rgb(24.705882%,24.705882%,24.705882%);fill-opacity:1;" d="M 6 2.5 C 6.414062 2.5 6.75 2.164062 6.75 1.75 C 6.75 1.335938 6.414062 1 6 1 C 5.585938 1 5.25 1.335938 5.25 1.75 C 5.25 2.164062 5.585938 2.5 6 2.5 Z M 6 2.5 "/>
</g>
</svg>
