<?xml version="1.0" encoding="UTF-8"?>
<svg xmlns="http://www.w3.org/2000/svg" xmlns:xlink="http://www.w3.org/1999/xlink" width="32" height="32" viewBox="0 0 32 32">
<path fill-rule="nonzero" fill="rgb(100%, 100%, 100%)" fill-opacity="1" d="M 13 13.046875 L 8.4375 9.9375 L 4.347656 13.042969 L 1.839844 16.925781 L 1.210938 17.898438 L 2.75 17.898438 L 2.75 25.070312 L 14.21875 25.070312 L 14.21875 17.898438 L 15.710938 17.898438 Z M 7.011719 14.078125 L 9.910156 14.078125 L 9.910156 17.453125 L 7.011719 17.453125 Z M 11.820312 23.773438 L 5.101562 23.773438 L 5.101562 19.382812 L 11.820312 19.382812 Z M 11.820312 23.773438 "/>
<path fill="none" stroke-width="24" stroke-linecap="butt" stroke-linejoin="miter" stroke="rgb(100%, 100%, 100%)" stroke-opacity="1" stroke-miterlimit="4" d="M 315.134277 327.949219 L 554.157715 327.949219 " transform="matrix(0.0551724, 0, 0, 0.0551724, 0, 0)"/>
<path fill="none" stroke-width="24" stroke-linecap="butt" stroke-linejoin="miter" stroke="rgb(100%, 100%, 100%)" stroke-opacity="1" stroke-miterlimit="4" d="M 315.134277 423.671875 L 554.157715 423.671875 " transform="matrix(0.0551724, 0, 0, 0.0551724, 0, 0)"/>
<path fill="none" stroke-width="48" stroke-linecap="butt" stroke-linejoin="miter" stroke="rgb(100%, 100%, 100%)" stroke-opacity="1" stroke-miterlimit="4" d="M 354.995117 284.973145 L 354.995117 458.010254 " transform="matrix(0.0551724, 0, 0, 0.0551724, 0, 0)"/>
<path fill="none" stroke-width="48" stroke-linecap="butt" stroke-linejoin="miter" stroke="rgb(100%, 100%, 100%)" stroke-opacity="1" stroke-miterlimit="4" d="M 434.575195 284.973145 L 434.575195 458.010254 " transform="matrix(0.0551724, 0, 0, 0.0551724, 0, 0)"/>
<path fill="none" stroke-width="48" stroke-linecap="butt" stroke-linejoin="miter" stroke="rgb(100%, 100%, 100%)" stroke-opacity="1" stroke-miterlimit="4" d="M 514.084473 284.973145 L 514.084473 458.010254 " transform="matrix(0.0551724, 0, 0, 0.0551724, 0, 0)"/>
</svg>
