<?xml version="1.0" encoding="UTF-8"?>
<svg xmlns="http://www.w3.org/2000/svg" xmlns:xlink="http://www.w3.org/1999/xlink" width="12" height="12" viewBox="0 0 12 12" version="1.1">
<g id="surface1">
<path style=" stroke:none;fill-rule:nonzero;fill:rgb(100%,100%,100%);fill-opacity:1;" d="M 2.964844 6.382812 C 2.652344 6.382812 2.382812 6.574219 2.265625 6.84375 L 2.207031 7.574219 L 2.207031 8.378906 C 2.207031 8.476562 2.226562 8.566406 2.257812 8.652344 L 0.621094 8.652344 L 0.621094 11.351562 L 1.132812 11.351562 L 1.132812 9.429688 L 6.390625 9.429688 L 6.390625 11.351562 L 6.902344 11.351562 L 6.902344 8.652344 L 5.265625 8.652344 C 5.300781 8.566406 5.320312 8.476562 5.320312 8.378906 L 5.320312 7.574219 L 5.257812 6.84375 C 5.144531 6.574219 4.875 6.382812 4.558594 6.382812 Z M 2.804688 7.398438 L 2.984375 7.398438 L 2.984375 8.652344 L 2.804688 8.652344 Z M 4.539062 7.398438 L 4.71875 7.398438 L 4.71875 8.652344 L 4.539062 8.652344 Z M 4.539062 7.398438 "/>
<path style=" stroke:none;fill-rule:nonzero;fill:rgb(100%,100%,100%);fill-opacity:1;" d="M 3.761719 4.203125 C 3.25 4.203125 2.835938 4.621094 2.835938 5.132812 C 2.835938 5.644531 3.25 6.058594 3.761719 6.058594 C 4.273438 6.058594 4.691406 5.644531 4.691406 5.132812 C 4.691406 4.621094 4.273438 4.203125 3.761719 4.203125 Z M 3.761719 4.203125 "/>
<path style=" stroke:none;fill-rule:nonzero;fill:rgb(100%,100%,100%);fill-opacity:1;" d="M 8.621094 3.464844 C 8.621094 3.464844 8.621094 5.558594 9.613281 5.558594 C 9.945312 5.558594 10.125 5.289062 10.125 5.289062 C 10.226562 5.53125 10.429688 5.679688 10.660156 5.679688 C 10.988281 5.679688 11.242188 5.378906 11.242188 5.019531 C 11.242188 4.78125 11.140625 4.574219 10.988281 4.453125 C 11.089844 4.453125 11.5 4.242188 11.5 3.734375 C 11.5 3.40625 11.269531 3.046875 10.964844 3.015625 C 10.914062 2.6875 10.683594 2.449219 10.378906 2.449219 L 10.351562 2.449219 C 10.429688 2.328125 10.503906 2.179688 10.503906 2.03125 C 10.503906 1.671875 10.25 1.371094 9.921875 1.371094 C 9.765625 1.371094 9.613281 1.429688 9.511719 1.550781 C 9.4375 1.25 9.207031 1.042969 8.953125 1.042969 L 8.875 1.042969 C 8.800781 0.714844 8.519531 0.472656 8.214844 0.472656 C 7.984375 0.472656 7.78125 0.59375 7.65625 0.800781 C 7.601562 0.773438 7.527344 0.773438 7.476562 0.773438 C 7.144531 0.773438 6.863281 1.070312 6.863281 1.429688 L 6.863281 1.492188 C 6.761719 1.402344 6.636719 1.3125 6.484375 1.3125 C 6.175781 1.3125 5.898438 1.609375 5.898438 2 C 5.898438 2.058594 5.898438 2.117188 5.921875 2.179688 C 5.617188 2.207031 5.386719 2.476562 5.386719 2.835938 C 5.386719 3.195312 5.644531 3.496094 5.972656 3.496094 C 6.023438 3.496094 6.074219 3.496094 6.101562 3.464844 C 5.972656 3.613281 5.898438 3.824219 5.898438 4.0625 L 5.898438 4.09375 C 5.617188 4.152344 5.386719 4.421875 5.386719 4.75 C 5.386719 5.109375 5.644531 5.410156 5.972656 5.410156 C 6.023438 5.410156 6.074219 5.410156 6.125 5.378906 C 6.152344 5.710938 6.40625 5.949219 6.710938 5.949219 C 6.914062 5.949219 7.121094 5.828125 7.222656 5.621094 C 7.871094 5.671875 8.414062 4.882812 8.566406 4.75 C 8.535156 4.382812 8.566406 4.054688 8.621094 3.464844 Z M 8.621094 3.464844 "/>
<path style=" stroke:none;fill-rule:nonzero;fill:rgb(100%,100%,100%);fill-opacity:1;" d="M 8.085938 5.4375 C 8.078125 5.667969 8.0625 5.917969 8.0625 6.1875 C 8.011719 7.503906 7.375 6.9375 7.171875 7.652344 L 9.972656 7.652344 C 9.84375 7.324219 9.335938 7.535156 9.207031 6.785156 C 9.15625 6.457031 9.105469 5.949219 9.105469 5.828125 C 8.851562 5.5625 8.691406 5.273438 8.621094 4.84375 "/>
</g>
</svg>
