<?xml version="1.0" encoding="UTF-8"?>
<svg xmlns="http://www.w3.org/2000/svg" xmlns:xlink="http://www.w3.org/1999/xlink" width="32" height="32" viewBox="0 0 32 32">
<path fill-rule="nonzero" fill="rgb(100%, 100%, 100%)" fill-opacity="1" d="M 6.667969 17.867188 C 4.308594 19.011719 2.667969 20.652344 2.667969 22.667969 C 2.667969 24.707031 4.347656 26.367188 6.761719 27.511719 C 9.167969 28.652344 12.421875 29.332031 16 29.332031 C 19.578125 29.332031 22.832031 28.652344 25.238281 27.511719 C 27.652344 26.367188 29.332031 24.707031 29.332031 22.667969 C 29.332031 20.652344 27.691406 19.011719 25.332031 17.867188 L 25.332031 19.375 C 27.074219 20.347656 28 21.527344 28 22.667969 C 28 23.941406 26.847656 25.28125 24.667969 26.308594 C 22.507812 27.339844 19.421875 28 16 28 C 12.578125 28 9.5 27.332031 7.332031 26.308594 C 5.148438 25.28125 4 23.941406 4 22.667969 C 4 21.535156 4.925781 20.347656 6.667969 19.375 Z M 6.667969 17.867188 "/>
<path fill="none" stroke-width="2" stroke-linecap="butt" stroke-linejoin="miter" stroke="rgb(100%, 100%, 100%)" stroke-opacity="1" stroke-miterlimit="4" d="M 36 34.998047 L 18 34.998047 " transform="matrix(0.666667, 0, 0, 0.666667, 0, 0)"/>
<path fill="none" stroke-width="2" stroke-linecap="butt" stroke-linejoin="miter" stroke="rgb(100%, 100%, 100%)" stroke-opacity="1" stroke-miterlimit="4" d="M 31.998047 28.998047 L 13.998047 28.998047 " transform="matrix(0.666667, 0, 0, 0.666667, 0, 0)"/>
<path fill="none" stroke-width="2" stroke-linecap="butt" stroke-linejoin="miter" stroke="rgb(100%, 100%, 100%)" stroke-opacity="1" stroke-miterlimit="4" d="M 30 22.998047 L 12 22.998047 " transform="matrix(0.666667, 0, 0, 0.666667, 0, 0)"/>
<path fill="none" stroke-width="2" stroke-linecap="butt" stroke-linejoin="miter" stroke="rgb(100%, 100%, 100%)" stroke-opacity="1" stroke-miterlimit="4" d="M 30 16.998047 L 13.998047 16.998047 " transform="matrix(0.666667, 0, 0, 0.666667, 0, 0)"/>
<path fill="none" stroke-width="2" stroke-linecap="butt" stroke-linejoin="miter" stroke="rgb(100%, 100%, 100%)" stroke-opacity="1" stroke-miterlimit="4" d="M 30 10.998047 L 18 10.998047 " transform="matrix(0.666667, 0, 0, 0.666667, 0, 0)"/>
<path fill="none" stroke-width="2" stroke-linecap="butt" stroke-linejoin="miter" stroke="rgb(100%, 100%, 100%)" stroke-opacity="1" stroke-miterlimit="4" d="M 31.998047 4.998047 L 22.001953 4.998047 " transform="matrix(0.666667, 0, 0, 0.666667, 0, 0)"/>
</svg>
