<?xml version="1.0" encoding="UTF-8"?>
<svg xmlns="http://www.w3.org/2000/svg" xmlns:xlink="http://www.w3.org/1999/xlink" width="12" height="12" viewBox="0 0 12 12" version="1.1">
<g id="surface1">
<path style=" stroke:none;fill-rule:evenodd;fill:rgb(24.705882%,24.705882%,24.705882%);fill-opacity:1;" d="M 1.855469 1.144531 C 1.660156 0.953125 1.339844 0.953125 1.144531 1.144531 C 0.953125 1.339844 0.953125 1.660156 1.144531 1.855469 L 2.101562 2.808594 C 2.035156 3.027344 2 3.261719 2 3.5 C 2 4.878906 3.171875 6 4.621094 6 C 4.828125 6 5.03125 5.976562 5.226562 5.933594 L 6.292969 7 L 5 7 L 5 9 L 4 9 L 6 11 L 8 9 L 7 9 L 7 7.707031 L 10.144531 10.855469 C 10.339844 11.046875 10.660156 11.046875 10.855469 10.855469 C 11.046875 10.660156 11.046875 10.339844 10.855469 10.144531 Z M 4.570312 5.277344 L 4.046875 4.753906 C 4.015625 4.777344 3.976562 4.796875 3.929688 4.8125 C 3.917969 4.816406 3.90625 4.820312 3.894531 4.824219 C 3.863281 4.832031 3.835938 4.84375 3.71875 4.855469 L 3.667969 4.859375 C 3.539062 4.871094 3.445312 4.878906 3.378906 4.882812 L 3.378906 5.277344 Z M 4.570312 5.277344 "/>
<path style=" stroke:none;fill-rule:nonzero;fill:rgb(24.705882%,24.705882%,24.705882%);fill-opacity:1;" d="M 5.152344 2.308594 C 5.148438 2.460938 5.144531 2.597656 5.140625 2.726562 L 6.988281 4.574219 C 7.148438 4.246094 7.238281 3.882812 7.238281 3.5 C 7.238281 2.121094 6.066406 1 4.621094 1 C 4.261719 1 3.917969 1.070312 3.609375 1.195312 L 4.398438 1.984375 C 4.550781 1.902344 4.667969 1.820312 4.742188 1.730469 L 5.171875 1.730469 C 5.167969 1.808594 5.164062 1.894531 5.164062 1.984375 C 5.160156 2.074219 5.160156 2.167969 5.15625 2.269531 Z M 5.152344 2.308594 "/>
<path style=" stroke:none;fill-rule:nonzero;fill:rgb(24.705882%,24.705882%,24.705882%);fill-opacity:1;" d="M 7.390625 4.976562 L 7.765625 5.351562 C 8.292969 4.890625 8.621094 4.234375 8.621094 3.5 C 8.621094 2.226562 7.621094 1.171875 6.328125 1.019531 C 7.21875 1.515625 7.824219 2.441406 7.824219 3.5 C 7.824219 4.039062 7.664062 4.546875 7.390625 4.976562 Z M 7.390625 4.976562 "/>
<path style=" stroke:none;fill-rule:nonzero;fill:rgb(24.705882%,24.705882%,24.705882%);fill-opacity:1;" d="M 8.117188 5.703125 L 8.269531 5.855469 C 9.277344 5.507812 10 4.582031 10 3.5 C 10 2.226562 9 1.171875 7.707031 1.019531 C 8.597656 1.515625 9.199219 2.441406 9.199219 3.5 C 9.199219 4.382812 8.78125 5.175781 8.117188 5.703125 Z M 8.117188 5.703125 "/>
</g>
</svg>
