<?xml version="1.0" encoding="UTF-8"?>
<svg xmlns="http://www.w3.org/2000/svg" xmlns:xlink="http://www.w3.org/1999/xlink" width="12" height="12" viewBox="0 0 12 12">
<path fill-rule="nonzero" fill="rgb(100%, 100%, 100%)" fill-opacity="1" d="M 9.464844 10.855469 L 7.941406 9.324219 L 6.832031 10.425781 L 6.390625 9.980469 C 6.207031 9.796875 6.117188 9.574219 6.117188 9.3125 C 6.117188 9.050781 6.207031 8.828125 6.390625 8.644531 L 8.605469 6.417969 C 8.785156 6.234375 9.007812 6.144531 9.269531 6.144531 C 9.527344 6.144531 9.75 6.234375 9.933594 6.417969 L 10.375 6.863281 L 9.28125 7.976562 L 10.804688 9.496094 C 10.898438 9.589844 10.949219 9.703125 10.949219 9.828125 C 10.949219 9.953125 10.898438 10.066406 10.804688 10.164062 L 10.128906 10.855469 C 10.03125 10.953125 9.921875 11 9.796875 11 C 9.667969 11 9.558594 10.953125 9.464844 10.855469 Z M 11 2.910156 L 5.453125 8.488281 L 5.609375 8.644531 C 5.792969 8.828125 5.882812 9.050781 5.882812 9.3125 C 5.882812 9.574219 5.792969 9.796875 5.609375 9.980469 L 5.167969 10.425781 L 4.074219 9.324219 L 2.550781 10.855469 C 2.453125 10.953125 2.34375 11 2.21875 11 C 2.089844 11 1.980469 10.953125 1.886719 10.855469 L 1.207031 10.175781 C 1.113281 10.078125 1.066406 9.96875 1.066406 9.839844 C 1.066406 9.714844 1.113281 9.605469 1.207031 9.507812 L 2.71875 7.976562 L 1.625 6.863281 L 2.054688 6.433594 C 2.238281 6.25 2.457031 6.15625 2.71875 6.152344 C 2.980469 6.144531 3.199219 6.234375 3.382812 6.417969 L 3.566406 6.601562 L 9.125 1 L 11 1 Z M 3.695312 5.59375 L 1 2.886719 L 1 1 L 2.902344 1 L 5.582031 3.695312 L 4.917969 4.363281 L 2.511719 1.941406 L 1.9375 1.941406 L 1.9375 2.492188 L 4.359375 4.925781 Z M 4.789062 7.820312 L 10.0625 2.519531 L 10.0625 1.941406 L 9.515625 1.941406 L 4.242188 7.269531 Z M 4.789062 7.820312 "/>
</svg>
