<?xml version="1.0" encoding="UTF-8"?>
<svg xmlns="http://www.w3.org/2000/svg" xmlns:xlink="http://www.w3.org/1999/xlink" width="32" height="32" viewBox="0 0 32 32">
<path fill-rule="evenodd" fill="rgb(24.705882%, 24.705882%, 24.705882%)" fill-opacity="1" d="M 16 6.667969 C 17.105469 6.667969 18 5.769531 18 4.667969 C 18 3.5625 17.105469 2.667969 16 2.667969 C 14.894531 2.667969 14 3.5625 14 4.667969 C 14 5.769531 14.894531 6.667969 16 6.667969 Z M 11.816406 8.367188 C 11.929688 8.144531 12.160156 8 12.410156 8 L 19.585938 8 C 19.839844 8 20.070312 8.144531 20.183594 8.367188 L 21.332031 10.667969 L 23.722656 17.835938 C 23.859375 18.242188 23.554688 18.667969 23.121094 18.667969 C 22.851562 18.667969 22.609375 18.492188 22.523438 18.234375 L 20 10.667969 L 18.667969 10.667969 L 21.332031 21.332031 L 18.667969 21.332031 L 18.667969 28.667969 C 18.667969 29.035156 18.367188 29.332031 18 29.332031 C 17.632812 29.332031 17.332031 29.035156 17.332031 28.667969 L 17.332031 21.332031 L 14.667969 21.332031 L 14.667969 28.667969 C 14.667969 29.035156 14.367188 29.332031 14 29.332031 C 13.632812 29.332031 13.332031 29.035156 13.332031 28.667969 L 13.332031 21.332031 L 10.667969 21.332031 L 13.332031 10.667969 L 12 10.667969 L 9.476562 18.234375 C 9.390625 18.492188 9.148438 18.667969 8.878906 18.667969 C 8.445312 18.667969 8.140625 18.242188 8.277344 17.835938 L 10.667969 10.667969 Z M 11.816406 8.367188 "/>
</svg>
