<?xml version="1.0" encoding="UTF-8"?>
<svg xmlns="http://www.w3.org/2000/svg" xmlns:xlink="http://www.w3.org/1999/xlink" width="12" height="12" viewBox="0 0 12 12" version="1.1">
<g id="surface1">
<path style=" stroke:none;fill-rule:evenodd;fill:rgb(100%,100%,100%);fill-opacity:1;" d="M 1 6 L 7 6 L 7 7 L 1 7 Z M 1 6 "/>
<path style=" stroke:none;fill-rule:evenodd;fill:rgb(100%,100%,100%);fill-opacity:1;" d="M 3.175781 6.03125 C 3.433594 6.128906 3.566406 6.417969 3.46875 6.675781 L 1.96875 10.675781 C 1.871094 10.933594 1.582031 11.066406 1.324219 10.96875 C 1.066406 10.871094 0.933594 10.582031 1.03125 10.324219 L 2.53125 6.324219 C 2.628906 6.066406 2.917969 5.933594 3.175781 6.03125 Z M 3.175781 6.03125 "/>
<path style=" stroke:none;fill-rule:evenodd;fill:rgb(100%,100%,100%);fill-opacity:1;" d="M 4.824219 6.03125 C 5.082031 5.933594 5.371094 6.066406 5.46875 6.324219 L 6.96875 10.324219 C 7.066406 10.582031 6.933594 10.871094 6.675781 10.96875 C 6.417969 11.066406 6.128906 10.933594 6.03125 10.675781 L 4.53125 6.675781 C 4.433594 6.417969 4.566406 6.128906 4.824219 6.03125 Z M 4.824219 6.03125 "/>
<path style=" stroke:none;fill-rule:evenodd;fill:rgb(100%,100%,100%);fill-opacity:1;" d="M 1 8 L 7 8 L 7 9 L 1 9 Z M 1 8 "/>
<path style=" stroke:none;fill-rule:evenodd;fill:rgb(100%,100%,100%);fill-opacity:1;" d="M 6 0 L 12 0 L 12 1 L 6 1 Z M 6 0 "/>
<path style=" stroke:none;fill-rule:evenodd;fill:rgb(100%,100%,100%);fill-opacity:1;" d="M 8.175781 0.03125 C 8.433594 0.128906 8.566406 0.417969 8.46875 0.675781 L 6.96875 4.675781 C 6.871094 4.933594 6.582031 5.066406 6.324219 4.96875 C 6.066406 4.871094 5.933594 4.582031 6.03125 4.324219 L 7.53125 0.324219 C 7.628906 0.0664062 7.917969 -0.0664062 8.175781 0.03125 Z M 8.175781 0.03125 "/>
<path style=" stroke:none;fill-rule:evenodd;fill:rgb(100%,100%,100%);fill-opacity:1;" d="M 9.824219 0.03125 C 10.082031 -0.0664062 10.371094 0.0664062 10.46875 0.324219 L 11.96875 4.324219 C 12.066406 4.582031 11.933594 4.871094 11.675781 4.96875 C 11.417969 5.066406 11.128906 4.933594 11.03125 4.675781 L 9.53125 0.675781 C 9.433594 0.417969 9.566406 0.128906 9.824219 0.03125 Z M 9.824219 0.03125 "/>
<path style=" stroke:none;fill-rule:evenodd;fill:rgb(100%,100%,100%);fill-opacity:1;" d="M 6 2 L 12 2 L 12 3 L 6 3 Z M 6 2 "/>
</g>
</svg>
