<?xml version="1.0" encoding="UTF-8"?>
<svg xmlns="http://www.w3.org/2000/svg" xmlns:xlink="http://www.w3.org/1999/xlink" width="12" height="12" viewBox="0 0 12 12" version="1.1">
<g id="surface1">
<path style=" stroke:none;fill-rule:evenodd;fill:rgb(100%,100%,100%);fill-opacity:1;" d="M 7.414062 3 L 8 3 L 8 9 L 9 9 L 9 10 L 3 10 L 3 9 L 4 9 L 4 3 L 4.585938 3 C 4.792969 2.417969 5.347656 2 6 2 C 6.652344 2 7.207031 2.417969 7.414062 3 Z M 7 5 L 7 6 L 5 6 L 5 5 Z M 7 5 "/>
<path style=" stroke:none;fill-rule:nonzero;fill:rgb(100%,100%,100%);fill-opacity:1;" d="M 11.5 10 L 10 10 L 10 8 L 9 8 L 9 7 L 10.5 7 L 10.5 6 L 9 6 L 9 4.132812 C 9.148438 4.046875 9.316406 4 9.5 4 C 10.050781 4 10.5 4.449219 10.5 5 L 11 5 L 11 9 L 11.5 9 Z M 11.5 10 "/>
<path style=" stroke:none;fill-rule:nonzero;fill:rgb(100%,100%,100%);fill-opacity:1;" d="M 2.5 4 C 2.683594 4 2.851562 4.046875 3 4.132812 L 3 6 L 1.5 6 L 1.5 7 L 3 7 L 3 8 L 2 8 L 2 10 L 0.5 10 L 0.5 9 L 1 9 L 1 5 L 1.5 5 C 1.5 4.449219 1.949219 4 2.5 4 Z M 2.5 4 "/>
</g>
</svg>
