<?xml version="1.0" encoding="UTF-8"?>
<svg xmlns="http://www.w3.org/2000/svg" xmlns:xlink="http://www.w3.org/1999/xlink" width="12" height="12" viewBox="0 0 12 12" version="1.1">
<defs>
<filter id="alpha" filterUnits="objectBoundingBox" x="0%" y="0%" width="100%" height="100%">
  <feColorMatrix type="matrix" in="SourceGraphic" values="0 0 0 0 1 0 0 0 0 1 0 0 0 0 1 0 0 0 1 0"/>
</filter>
<mask id="mask0">
  <g filter="url(#alpha)">
<rect x="0" y="0" width="12" height="12" style="fill:rgb(0%,0%,0%);fill-opacity:0.1;stroke:none;"/>
  </g>
</mask>
<clipPath id="clip1">
  <rect x="0" y="0" width="12" height="12"/>
</clipPath>
<g id="surface5" clip-path="url(#clip1)">
<path style="fill-rule:evenodd;fill:rgb(24.705882%,24.705882%,24.705882%);fill-opacity:1;stroke-width:6.67402;stroke-linecap:square;stroke-linejoin:miter;stroke:rgb(24.705882%,24.705882%,24.705882%);stroke-opacity:1;stroke-miterlimit:4;" d="M 169.166667 32.285156 C 158.404948 108.75 124.231771 109.316406 120.455729 148.776042 C 116.679688 188.424479 156.894531 212.96875 163.691406 214.667969 C 163.691406 214.667969 144.622396 192.766927 146.510417 173.886719 C 147.643229 161.048177 152.929688 156.328125 163.125 142.167969 C 170.299479 131.972656 178.417969 118.001302 184.459635 97.233073 C 205.794271 116.113281 215.045573 126.875 219.388021 149.53125 C 223.541667 172.1875 205.983073 212.779948 205.983073 212.779948 C 269.798177 164.635417 253.372396 91.191406 169.166667 32.285156 Z M 169.166667 32.285156 " transform="matrix(0.0206897,0,0,0.0206897,0,0)"/>
</g>
<mask id="mask1">
  <g filter="url(#alpha)">
<rect x="0" y="0" width="12" height="12" style="fill:rgb(0%,0%,0%);fill-opacity:0.2;stroke:none;"/>
  </g>
</mask>
<clipPath id="clip2">
  <rect x="0" y="0" width="12" height="12"/>
</clipPath>
<g id="surface8" clip-path="url(#clip2)">
<path style="fill-rule:evenodd;fill:rgb(24.705882%,24.705882%,24.705882%);fill-opacity:1;stroke-width:6.67402;stroke-linecap:square;stroke-linejoin:miter;stroke:rgb(24.705882%,24.705882%,24.705882%);stroke-opacity:1;stroke-miterlimit:4;" d="M 163.691406 214.667969 C 163.691406 214.667969 144.622396 192.766927 146.510417 173.886719 C 147.643229 161.048177 152.929688 156.328125 163.125 142.167969 C 170.299479 131.972656 178.417969 118.001302 184.459635 97.233073 C 205.794271 116.113281 215.045573 126.875 219.388021 149.53125 C 223.541667 172.1875 205.983073 212.779948 205.983073 212.779948 C 190.690104 223.541667 180.494792 219.388021 163.691406 214.667969 Z M 163.691406 214.667969 " transform="matrix(0.0206897,0,0,0.0206897,0,0)"/>
</g>
</defs>
<g id="surface1">
<path style="fill-rule:nonzero;fill:rgb(24.705882%,24.705882%,24.705882%);fill-opacity:1;stroke-width:9.4229;stroke-linecap:round;stroke-linejoin:round;stroke:rgb(24.705882%,24.705882%,24.705882%);stroke-opacity:1;stroke-miterlimit:4;" d="M 111.770833 221.842448 C 121.39974 323.040365 114.22526 420.273438 89.114583 539.029948 L 281.503906 539.029948 C 256.393229 420.273438 249.21875 323.040365 258.847656 221.842448 C 227.317708 235.625 209.38151 233.548177 185.214844 235.436198 C 161.236979 233.548177 143.111979 235.625 111.770833 221.842448 Z M 111.770833 221.842448 " transform="matrix(0.0206897,0,0,0.0206897,0,0)"/>
<path style="fill-rule:nonzero;fill:rgb(24.705882%,24.705882%,24.705882%);fill-opacity:1;stroke-width:7.88587;stroke-linecap:round;stroke-linejoin:round;stroke:rgb(24.705882%,24.705882%,24.705882%);stroke-opacity:1;stroke-miterlimit:4;" d="M 255.826823 425.371094 L 475.026042 425.371094 L 475.026042 539.029948 L 255.826823 539.029948 Z M 255.826823 425.371094 " transform="matrix(0.0206897,0,0,0.0206897,0,0)"/>
<path style="fill:none;stroke-width:6.67402;stroke-linecap:square;stroke-linejoin:miter;stroke:rgb(24.705882%,24.705882%,24.705882%);stroke-opacity:1;stroke-miterlimit:4;" d="M 169.166667 32.285156 C 158.404948 108.75 124.231771 109.316406 120.455729 148.776042 C 116.679688 188.424479 156.894531 212.96875 163.691406 214.667969 C 163.691406 214.667969 144.622396 192.766927 146.510417 173.886719 C 147.643229 161.048177 152.929688 156.328125 163.125 142.167969 C 170.299479 131.972656 178.417969 118.001302 184.459635 97.233073 C 205.794271 116.113281 215.045573 126.875 219.388021 149.53125 C 223.541667 172.1875 205.983073 212.779948 205.983073 212.779948 C 269.798177 164.635417 253.372396 91.191406 169.166667 32.285156 Z M 169.166667 32.285156 " transform="matrix(0.0206897,0,0,0.0206897,0,0)"/>
<use xlink:href="#surface5" mask="url(#mask0)"/>
<use xlink:href="#surface8" mask="url(#mask1)"/>
<path style=" stroke:none;fill-rule:nonzero;fill:rgb(24.705882%,24.705882%,24.705882%);fill-opacity:1;" d="M 8.761719 0.714844 L 6.847656 4.546875 L 8.78125 4.546875 L 7.160156 8.082031 L 10.855469 3.429688 L 8.765625 3.429688 L 10.414062 0.714844 Z M 8.761719 0.714844 "/>
</g>
</svg>
