<?xml version="1.0" encoding="UTF-8"?>
<svg xmlns="http://www.w3.org/2000/svg" xmlns:xlink="http://www.w3.org/1999/xlink" width="12" height="12" viewBox="0 0 12 12" version="1.1">
<g id="surface1">
<path style=" stroke:none;fill-rule:nonzero;fill:rgb(24.705882%,24.705882%,24.705882%);fill-opacity:1;" d="M 6.730469 3.046875 C 7.734375 2.507812 8.160156 2.351562 8.699219 2.855469 C 8.199219 2.003906 7.347656 2.3125 6.652344 2.738281 C 4.835938 3.742188 4.253906 1.964844 4.214844 1.8125 C 4.214844 1.964844 4.5625 4.167969 6.730469 3.046875 Z M 6.730469 3.046875 "/>
<path style=" stroke:none;fill-rule:nonzero;fill:rgb(24.705882%,24.705882%,24.705882%);fill-opacity:1;" d="M 10.421875 5.714844 C 10.308594 4.476562 10.074219 2.429688 10.074219 2.429688 C 10.074219 2.3125 10 2.234375 9.882812 2.234375 L 9.570312 2.234375 C 8.75 0.597656 7.328125 1.15625 7.136719 1.347656 C 6.25 0.765625 5.242188 1.734375 5.28125 2.042969 C 5.515625 1.734375 6.636719 1.191406 7.097656 1.773438 C 8.292969 1.007812 9.285156 1.953125 9.542969 2.234375 L 9.148438 2.234375 C 9.03125 2.234375 8.953125 2.3125 8.953125 2.429688 L 8.527344 5.714844 C 8.527344 5.714844 8.527344 4.554688 8.527344 4.402344 C 8.527344 4.246094 8.453125 4.167969 8.335938 4.167969 C 8.257812 4.167969 5.28125 4.167969 5.28125 4.167969 C 5.128906 4.167969 5.050781 4.246094 5.050781 4.402344 L 5.050781 5.714844 L 0.867188 5.714844 L 0.867188 11.128906 L 5.121094 11.128906 C 5.121094 10.507812 4.964844 10.394531 4.734375 10.199219 C 4.308594 9.890625 3.960938 9.542969 3.960938 8.421875 L 3.1875 8.421875 L 4.347656 6.875 L 5.507812 8.421875 L 4.734375 8.421875 C 4.734375 9.234375 4.925781 9.386719 5.199219 9.582031 C 5.585938 9.890625 5.894531 10.199219 5.894531 11.128906 L 8.214844 11.128906 C 8.214844 10.507812 8.058594 10.394531 7.828125 10.199219 C 7.402344 9.890625 7.054688 9.542969 7.054688 8.421875 L 6.28125 8.421875 L 7.441406 6.875 L 8.601562 8.421875 L 7.828125 8.421875 C 7.828125 9.234375 8.019531 9.386719 8.289062 9.582031 C 8.675781 9.890625 8.988281 10.199219 8.988281 11.128906 L 10.917969 11.128906 L 10.917969 5.714844 Z M 6.597656 5.328125 L 5.824219 5.328125 L 5.824219 4.941406 L 6.597656 4.941406 Z M 7.757812 5.328125 L 6.984375 5.328125 L 6.984375 4.941406 L 7.757812 4.941406 Z M 7.757812 5.328125 "/>
<path style=" stroke:none;fill-rule:nonzero;fill:rgb(24.705882%,24.705882%,24.705882%);fill-opacity:1;" d="M 2.152344 0.507812 L 0.9375 2.941406 L 2.164062 2.941406 L 1.132812 5.183594 L 3.480469 2.234375 L 2.15625 2.234375 L 3.199219 0.507812 Z M 2.152344 0.507812 "/>
</g>
</svg>
