<?xml version="1.0" encoding="UTF-8"?>
<svg xmlns="http://www.w3.org/2000/svg" xmlns:xlink="http://www.w3.org/1999/xlink" width="12" height="12" viewBox="0 0 12 12" version="1.1">
<g id="surface1">
<path style=" stroke:none;fill-rule:nonzero;fill:rgb(100%,100%,100%);fill-opacity:1;" d="M 11.132812 2.320312 L 11.449219 2.191406 L 11.132812 2.066406 C 10.859375 1.957031 10.730469 1.644531 10.847656 1.375 L 10.980469 1.0625 L 10.667969 1.195312 C 10.398438 1.308594 10.085938 1.179688 9.976562 0.90625 L 9.847656 0.59375 L 9.722656 0.90625 C 9.613281 1.179688 9.300781 1.308594 9.027344 1.195312 L 8.714844 1.0625 L 8.847656 1.375 C 8.964844 1.644531 8.835938 1.957031 8.5625 2.066406 L 8.246094 2.191406 L 8.5625 2.320312 C 8.835938 2.429688 8.964844 2.742188 8.847656 3.011719 L 8.714844 3.324219 L 9.027344 3.191406 C 9.300781 3.078125 9.613281 3.207031 9.722656 3.480469 L 9.847656 3.792969 L 9.976562 3.480469 C 10.085938 3.207031 10.398438 3.078125 10.667969 3.191406 L 10.980469 3.324219 L 10.847656 3.011719 C 10.730469 2.742188 10.859375 2.429688 11.132812 2.320312 Z M 9.847656 2.933594 C 9.441406 2.933594 9.109375 2.601562 9.109375 2.191406 C 9.109375 1.785156 9.441406 1.453125 9.847656 1.453125 C 10.257812 1.453125 10.585938 1.785156 10.585938 2.191406 C 10.585938 2.601562 10.257812 2.933594 9.847656 2.933594 Z M 9.847656 2.933594 "/>
<path style="fill:none;stroke-width:30;stroke-linecap:butt;stroke-linejoin:round;stroke:rgb(100%,100%,100%);stroke-opacity:1;stroke-miterlimit:4;" d="M 78.541667 509.576823 L 501.080729 509.576823 L 501.080729 265.833333 L 287.545573 144.433594 L 78.541667 265.833333 Z M 78.541667 509.576823 " transform="matrix(0.0206897,0,0,0.0206897,0,0)"/>
<path style="fill:none;stroke-width:23;stroke-linecap:round;stroke-linejoin:round;stroke:rgb(100%,100%,100%);stroke-opacity:1;stroke-miterlimit:4;" d="M 207.115885 455.390625 L 207.115885 312.278646 " transform="matrix(0.0206897,0,0,0.0206897,0,0)"/>
<path style=" stroke:none;fill-rule:evenodd;fill:rgb(100%,100%,100%);fill-opacity:1;" d="M 5.628906 6.917969 C 4.460938 6.910156 4.375 7.589844 4.28125 8.261719 C 5.445312 8.269531 5.535156 7.589844 5.628906 6.917969 Z M 5.628906 6.917969 "/>
<path style=" stroke:none;fill-rule:evenodd;fill:rgb(100%,100%,100%);fill-opacity:1;" d="M 5.382812 5.1875 C 4.21875 5.183594 4.128906 5.863281 4.039062 6.535156 C 5.203125 6.539062 5.292969 5.863281 5.382812 5.1875 Z M 5.382812 5.1875 "/>
<path style=" stroke:none;fill-rule:evenodd;fill:rgb(100%,100%,100%);fill-opacity:1;" d="M 2.957031 5.992188 C 4.121094 5.984375 4.207031 6.664062 4.300781 7.335938 C 3.136719 7.34375 3.046875 6.664062 2.957031 5.992188 Z M 2.957031 5.992188 "/>
<path style=" stroke:none;fill-rule:evenodd;fill:rgb(100%,100%,100%);fill-opacity:1;" d="M 2.992188 7.769531 C 4.15625 7.761719 4.246094 8.441406 4.335938 9.113281 C 3.171875 9.117188 3.085938 8.441406 2.992188 7.769531 Z M 2.992188 7.769531 "/>
<path style="fill:none;stroke-width:23;stroke-linecap:round;stroke-linejoin:round;stroke:rgb(100%,100%,100%);stroke-opacity:1;stroke-miterlimit:4;" d="M 358.723958 457.278646 L 358.723958 314.166667 " transform="matrix(0.0206897,0,0,0.0206897,0,0)"/>
<path style=" stroke:none;fill-rule:evenodd;fill:rgb(100%,100%,100%);fill-opacity:1;" d="M 8.761719 6.953125 C 7.597656 6.949219 7.511719 7.628906 7.417969 8.300781 C 8.582031 8.304688 8.671875 7.628906 8.761719 6.953125 Z M 8.761719 6.953125 "/>
<path style=" stroke:none;fill-rule:evenodd;fill:rgb(100%,100%,100%);fill-opacity:1;" d="M 8.519531 5.226562 C 7.355469 5.222656 7.265625 5.902344 7.175781 6.574219 C 8.339844 6.578125 8.425781 5.902344 8.519531 5.226562 Z M 8.519531 5.226562 "/>
<path style=" stroke:none;fill-rule:evenodd;fill:rgb(100%,100%,100%);fill-opacity:1;" d="M 6.089844 6.03125 C 7.257812 6.023438 7.34375 6.703125 7.4375 7.375 C 6.273438 7.382812 6.183594 6.703125 6.089844 6.03125 Z M 6.089844 6.03125 "/>
<path style=" stroke:none;fill-rule:evenodd;fill:rgb(100%,100%,100%);fill-opacity:1;" d="M 6.128906 7.804688 C 7.292969 7.800781 7.382812 8.480469 7.472656 9.152344 C 6.308594 9.15625 6.21875 8.480469 6.128906 7.804688 Z M 6.128906 7.804688 "/>
</g>
</svg>
