<?xml version="1.0" encoding="UTF-8"?>
<svg xmlns="http://www.w3.org/2000/svg" xmlns:xlink="http://www.w3.org/1999/xlink" width="12" height="12" viewBox="0 0 12 12" version="1.1">
<g id="surface1">
<path style=" stroke:none;fill-rule:evenodd;fill:rgb(100%,100%,100%);fill-opacity:1;" d="M 7.085938 7.238281 L 2.824219 7.851562 C 3.335938 8.230469 3.597656 8.867188 3.5 9.5 L 6.636719 9.5 C 6.546875 9.257812 6.503906 9.003906 6.503906 8.75 C 6.503906 8.199219 6.71875 7.648438 7.089844 7.238281 Z M 7.085938 7.238281 "/>
<path style=" stroke:none;fill-rule:nonzero;fill:rgb(100%,100%,100%);fill-opacity:1;" d="M 1.75 8 C 1.058594 8 0.5 8.558594 0.5 9.25 C 0.5 9.941406 1.058594 10.5 1.75 10.5 C 2.441406 10.5 3 9.941406 3 9.25 C 3 8.558594 2.441406 8 1.75 8 Z M 1.75 8.5 C 2.164062 8.5 2.5 8.835938 2.5 9.25 C 2.5 9.664062 2.164062 10 1.75 10 C 1.335938 10 1 9.664062 1 9.25 C 1 8.835938 1.335938 8.5 1.75 8.5 Z M 1.75 8.5 "/>
<path style=" stroke:none;fill-rule:nonzero;fill:rgb(100%,100%,100%);fill-opacity:1;" d="M 8.75 7 C 7.785156 7 7 7.785156 7 8.75 C 7 9.714844 7.785156 10.5 8.75 10.5 C 9.714844 10.5 10.5 9.714844 10.5 8.75 C 10.5 7.785156 9.714844 7 8.75 7 Z M 8.75 7.5 C 9.441406 7.5 10 8.058594 10 8.75 C 10 9.441406 9.441406 10 8.75 10 C 8.058594 10 7.5 9.441406 7.5 8.75 C 7.5 8.058594 8.058594 7.5 8.75 7.5 Z M 8.75 7.5 "/>
<path style=" stroke:none;fill-rule:evenodd;fill:rgb(100%,100%,100%);fill-opacity:1;" d="M 7 6.734375 L 7 5.5 L 4 5.5 L 4 7.214844 Z M 7 6.734375 "/>
<path style=" stroke:none;fill-rule:nonzero;fill:rgb(100%,100%,100%);fill-opacity:1;" d="M 5.5 4 C 4.949219 4 4.5 4.449219 4.5 5 L 6.5 5 C 6.5 4.449219 6.050781 4 5.5 4 Z M 4.886719 5.789062 C 5.0625 5.925781 5.277344 6 5.5 6 C 5.722656 6 5.9375 5.925781 6.113281 5.789062 Z M 4.886719 5.789062 "/>
<path style="fill:none;stroke-width:2;stroke-linecap:round;stroke-linejoin:miter;stroke:rgb(100%,100%,100%);stroke-opacity:1;stroke-miterlimit:4;" d="M 35 25 L 41 5 L 44.921875 4.9375 " transform="matrix(0.25,0,0,0.25,0,0)"/>
</g>
</svg>
