<?xml version="1.0" encoding="UTF-8"?>
<svg xmlns="http://www.w3.org/2000/svg" xmlns:xlink="http://www.w3.org/1999/xlink" width="12" height="12" viewBox="0 0 12 12" version="1.1">
<g id="surface1">
<path style=" stroke:none;fill-rule:evenodd;fill:rgb(100%,100%,100%);fill-opacity:1;" d="M 4 5.5 C 4 5.777344 3.777344 6 3.5 6 C 3.222656 6 3 5.777344 3 5.5 C 3 5.222656 3.222656 5 3.5 5 C 3.777344 5 4 5.222656 4 5.5 Z M 4 8 L 4 7.25 C 4 7.386719 4.113281 7.5 4.25 7.5 C 4.386719 7.5 4.5 7.386719 4.5 7.25 L 4.5 6.25 C 4.5 6.113281 4.386719 6 4.25 6 L 2.75 6 C 2.613281 6 2.5 6.113281 2.5 6.25 L 2.5 7.25 C 2.5 7.386719 2.613281 7.5 2.75 7.5 C 2.886719 7.5 3 7.386719 3 7.25 L 3 8 L 1 8 L 1 11 L 2 11 L 2 9 L 5 9 L 5 11 L 6 11 L 6 8 Z M 4 8 "/>
<path style=" stroke:none;fill-rule:nonzero;fill:rgb(100%,100%,100%);fill-opacity:1;" d="M 11 1.5 L 10 2 L 9 2 L 9 3 L 10 3 L 10 4 L 9 4 L 9 6 L 8 6 L 8 4 L 7 4 L 6 3.5 L 7 3 L 8 3 L 8 2 L 7 2 L 7 1 L 10 1 Z M 11 1.5 "/>
</g>
</svg>
