<?xml version="1.0" encoding="UTF-8"?>
<svg xmlns="http://www.w3.org/2000/svg" xmlns:xlink="http://www.w3.org/1999/xlink" width="32" height="32" viewBox="0 0 32 32">
<defs>
<filter id="filter-remove-color" x="0%" y="0%" width="100%" height="100%">
<feColorMatrix color-interpolation-filters="sRGB" values="0 0 0 0 1 0 0 0 0 1 0 0 0 0 1 0 0 0 1 0" />
</filter>
<mask id="mask-0">
<g filter="url(#filter-remove-color)">
<rect x="-3.2" y="-3.2" width="38.4" height="38.4" fill="rgb(0%, 0%, 0%)" fill-opacity="0.1"/>
</g>
</mask>
<clipPath id="clip-0">
<path clip-rule="nonzero" d="M 4 0 L 16 0 L 16 14 L 4 14 Z M 4 0 "/>
</clipPath>
<clipPath id="clip-1">
<rect x="0" y="0" width="32" height="32"/>
</clipPath>
<g id="source-9" clip-path="url(#clip-1)">
<path fill-rule="evenodd" fill="rgb(24.705882%, 24.705882%, 24.705882%)" fill-opacity="1" d="M 9.339844 1.78125 C 8.742188 5.996094 6.851562 6.035156 6.644531 8.210938 C 6.433594 10.398438 8.660156 11.75 9.027344 11.839844 C 9.027344 11.839844 7.980469 10.632812 8.078125 9.597656 C 8.148438 8.882812 8.441406 8.625 8.996094 7.84375 C 9.398438 7.28125 9.847656 6.507812 10.179688 5.371094 C 11.359375 6.402344 11.863281 7.003906 12.097656 8.25 C 12.335938 9.496094 11.363281 11.738281 11.363281 11.738281 C 14.878906 9.085938 13.980469 5.035156 9.339844 1.78125 Z M 9.339844 1.78125 "/>
<g clip-path="url(#clip-0)">
<path fill="none" stroke-width="6.67402" stroke-linecap="square" stroke-linejoin="miter" stroke="rgb(24.705882%, 24.705882%, 24.705882%)" stroke-opacity="1" stroke-miterlimit="4" d="M 169.284668 32.285156 C 158.452148 108.679199 124.18457 109.387207 120.432129 148.823242 C 116.608887 188.47168 156.965332 212.96875 163.620605 214.597168 C 163.620605 214.597168 144.645996 192.719727 146.416016 173.95752 C 147.69043 161.000977 153.000488 156.328125 163.054199 142.167969 C 170.34668 131.972656 178.48877 117.954102 184.506836 97.351074 C 205.888672 116.04248 215.021973 126.945801 219.27002 149.53125 C 223.588867 172.116699 205.959473 212.756348 205.959473 212.756348 C 269.680176 164.682617 253.395996 91.262207 169.284668 32.285156 Z M 169.284668 32.285156 " transform="matrix(0.0551724, 0, 0, 0.0551724, 0, 0)"/>
</g>
</g>
<mask id="mask-1">
<g filter="url(#filter-remove-color)">
<rect x="-3.2" y="-3.2" width="38.4" height="38.4" fill="rgb(0%, 0%, 0%)" fill-opacity="0.2"/>
</g>
</mask>
<clipPath id="clip-2">
<rect x="0" y="0" width="32" height="32"/>
</clipPath>
<g id="source-13" clip-path="url(#clip-2)">
<path fill-rule="evenodd" fill="rgb(24.705882%, 24.705882%, 24.705882%)" fill-opacity="1" stroke-width="6.67402" stroke-linecap="square" stroke-linejoin="miter" stroke="rgb(24.705882%, 24.705882%, 24.705882%)" stroke-opacity="1" stroke-miterlimit="4" d="M 163.620605 214.597168 C 163.620605 214.597168 144.645996 192.719727 146.416016 173.95752 C 147.69043 161.000977 153.000488 156.328125 163.054199 142.167969 C 170.34668 131.972656 178.48877 117.954102 184.506836 97.351074 C 205.888672 116.04248 215.021973 126.945801 219.27002 149.53125 C 223.588867 172.116699 205.959473 212.756348 205.959473 212.756348 C 190.666504 223.588867 180.400391 219.34082 163.620605 214.597168 Z M 163.620605 214.597168 " transform="matrix(0.0551724, 0, 0, 0.0551724, 0, 0)"/>
</g>
</defs>
<path fill-rule="nonzero" fill="rgb(24.705882%, 24.705882%, 24.705882%)" fill-opacity="1" stroke-width="9.4229" stroke-linecap="round" stroke-linejoin="round" stroke="rgb(24.705882%, 24.705882%, 24.705882%)" stroke-opacity="1" stroke-miterlimit="4" d="M 111.723633 221.818848 C 121.352539 323.063965 114.20166 420.344238 89.138184 538.935547 L 281.503906 538.935547 C 256.369629 420.344238 249.21875 323.063965 258.847656 221.818848 C 227.412109 235.554199 209.35791 233.642578 185.285645 235.412598 C 161.213379 233.642578 143.22998 235.554199 111.723633 221.818848 Z M 111.723633 221.818848 " transform="matrix(0.0551724, 0, 0, 0.0551724, 0, 0)"/>
<path fill-rule="nonzero" fill="rgb(24.705882%, 24.705882%, 24.705882%)" fill-opacity="1" stroke-width="7.88587" stroke-linecap="round" stroke-linejoin="round" stroke="rgb(24.705882%, 24.705882%, 24.705882%)" stroke-opacity="1" stroke-miterlimit="4" d="M 255.803223 425.441895 L 475.002441 425.441895 L 475.002441 539.077148 L 255.803223 539.077148 Z M 255.803223 425.441895 " transform="matrix(0.0551724, 0, 0, 0.0551724, 0, 0)"/>
<path fill="none" stroke-width="6.67402" stroke-linecap="square" stroke-linejoin="miter" stroke="rgb(24.705882%, 24.705882%, 24.705882%)" stroke-opacity="1" stroke-miterlimit="4" d="M 169.284668 32.285156 C 158.452148 108.679199 124.18457 109.387207 120.432129 148.823242 C 116.608887 188.47168 156.965332 212.96875 163.620605 214.597168 C 163.620605 214.597168 144.645996 192.719727 146.416016 173.95752 C 147.69043 161.000977 153.000488 156.328125 163.054199 142.167969 C 170.34668 131.972656 178.48877 117.954102 184.506836 97.351074 C 205.888672 116.04248 215.021973 126.945801 219.27002 149.53125 C 223.588867 172.116699 205.959473 212.756348 205.959473 212.756348 C 269.680176 164.682617 253.395996 91.262207 169.284668 32.285156 Z M 169.284668 32.285156 " transform="matrix(0.0551724, 0, 0, 0.0551724, 0, 0)"/>
<g mask="url(#mask-0)">
<use xlink:href="#source-9"/>
</g>
<g mask="url(#mask-1)">
<use xlink:href="#source-13"/>
</g>
<path fill-rule="nonzero" fill="rgb(24.705882%, 24.705882%, 24.705882%)" fill-opacity="1" d="M 23.363281 1.90625 L 18.261719 12.128906 L 23.417969 12.128906 L 19.089844 21.550781 L 28.945312 9.148438 L 23.375 9.148438 L 27.769531 1.90625 Z M 23.363281 1.90625 "/>
</svg>
