<?xml version="1.0" encoding="UTF-8"?>
<svg xmlns="http://www.w3.org/2000/svg" xmlns:xlink="http://www.w3.org/1999/xlink" width="32" height="32" viewBox="0 0 32 32">
<path fill-rule="nonzero" fill="rgb(100%, 100%, 100%)" fill-opacity="1" d="M 2.144531 4.757812 L 3.308594 3.710938 C 3.476562 3.5625 3.734375 3.578125 3.882812 3.742188 L 4.191406 4.085938 C 4.339844 4.253906 4.324219 4.511719 4.160156 4.660156 L 4 4.800781 L 21.292969 22.09375 C 21.292969 22.09375 23.21875 24.675781 26.324219 24.136719 C 28.054688 23.839844 28.257812 28.171875 26.765625 28.503906 C 25.273438 28.835938 23.835938 29.773438 21.460938 27.121094 C 19.265625 24.671875 5.324219 8.023438 3.214844 5.503906 L 2.992188 5.703125 C 2.824219 5.851562 2.570312 5.839844 2.421875 5.671875 L 2.113281 5.328125 C 1.964844 5.164062 1.976562 4.90625 2.144531 4.757812 Z M 2.144531 4.757812 "/>
<path fill-rule="nonzero" fill="rgb(100%, 100%, 100%)" fill-opacity="1" d="M 28.265625 20.90625 C 29.125 20.90625 29.820312 20.207031 29.820312 19.347656 C 29.820312 18.488281 29.125 17.792969 28.265625 17.792969 C 27.40625 17.792969 26.707031 18.488281 26.707031 19.347656 C 26.707031 20.207031 27.40625 20.90625 28.265625 20.90625 Z M 28.265625 20.90625 "/>
</svg>
