<?xml version="1.0" encoding="UTF-8"?>
<svg xmlns="http://www.w3.org/2000/svg" xmlns:xlink="http://www.w3.org/1999/xlink" width="12" height="12" viewBox="0 0 12 12" version="1.1">
<g id="surface1">
<path style=" stroke:none;fill-rule:nonzero;fill:rgb(24.705882%,24.705882%,24.705882%);fill-opacity:1;" d="M 5.972656 0.339844 C 5.226562 0.339844 4.625 0.941406 4.625 1.6875 C 4.625 1.726562 4.632812 1.765625 4.636719 1.800781 C 4.320312 1.953125 4.035156 2.152344 3.792969 2.394531 L 2.976562 1.578125 C 2.449219 2.105469 2.449219 2.957031 2.976562 3.484375 C 3.003906 3.511719 3.035156 3.535156 3.066406 3.558594 C 2.953125 3.875 2.890625 4.21875 2.890625 4.574219 L 1.738281 4.574219 C 1.738281 5.316406 2.339844 5.921875 3.085938 5.921875 C 3.125 5.921875 3.160156 5.914062 3.199219 5.910156 C 3.351562 6.222656 3.550781 6.507812 3.792969 6.75 L 2.976562 7.566406 C 3.503906 8.09375 4.355469 8.09375 4.882812 7.566406 C 4.910156 7.539062 4.929688 7.507812 4.957031 7.476562 C 5.273438 7.589844 5.613281 7.652344 5.972656 7.652344 L 5.972656 8.808594 C 6.714844 8.808594 7.316406 8.203125 7.316406 7.460938 C 7.316406 7.421875 7.308594 7.382812 7.304688 7.34375 C 7.621094 7.195312 7.90625 6.996094 8.148438 6.75 L 8.964844 7.566406 C 9.492188 7.042969 9.492188 6.1875 8.964844 5.664062 C 8.9375 5.632812 8.90625 5.613281 8.875 5.589844 C 8.988281 5.269531 9.050781 4.929688 9.050781 4.574219 L 10.203125 4.574219 C 10.203125 3.828125 9.601562 3.226562 8.855469 3.226562 C 8.816406 3.226562 8.78125 3.234375 8.742188 3.238281 C 8.589844 2.925781 8.390625 2.640625 8.148438 2.394531 L 8.964844 1.578125 C 8.4375 1.054688 7.585938 1.054688 7.058594 1.578125 C 7.03125 1.605469 7.011719 1.640625 6.988281 1.667969 C 6.667969 1.558594 6.328125 1.496094 5.972656 1.496094 Z M 5.917969 2.269531 L 7.003906 2.269531 L 5.921875 4.054688 L 7.296875 4.054688 L 4.863281 7.113281 L 5.929688 4.789062 L 4.660156 4.789062 Z M 5.917969 2.269531 "/>
<path style="fill:none;stroke-width:25.254299;stroke-linecap:round;stroke-linejoin:round;stroke:rgb(24.705882%,24.705882%,24.705882%);stroke-opacity:1;stroke-miterlimit:10;" d="M 540.729167 460.299479 C 513.352865 472.571615 473.893229 476.536458 448.216146 476.536458 C 422.35026 476.536458 382.890625 472.571615 355.514323 460.299479 C 328.138021 472.571615 288.678385 476.536458 263.001302 476.536458 C 237.135417 476.536458 197.675781 472.571615 170.299479 460.299479 C 142.923177 472.571615 103.463542 476.536458 77.786458 476.536458 C 66.080729 476.536458 56.074219 475.970052 46.822917 475.214844 " transform="matrix(0.0206897,0,0,0.0206897,0,0)"/>
<path style="fill:none;stroke-width:25.254299;stroke-linecap:round;stroke-linejoin:round;stroke:rgb(24.705882%,24.705882%,24.705882%);stroke-opacity:1;stroke-miterlimit:10;" d="M 540.729167 528.645833 C 513.352865 540.917969 473.893229 544.882812 448.216146 544.882812 C 422.35026 544.882812 382.890625 540.917969 355.514323 528.645833 C 328.138021 540.917969 288.678385 544.882812 263.001302 544.882812 C 237.135417 544.882812 197.675781 540.917969 170.299479 528.645833 C 142.923177 540.917969 103.463542 544.882812 77.786458 544.882812 C 66.080729 544.882812 56.074219 544.316406 46.822917 543.372396 " transform="matrix(0.0206897,0,0,0.0206897,0,0)"/>
</g>
</svg>
