<?xml version="1.0" encoding="UTF-8"?>
<svg xmlns="http://www.w3.org/2000/svg" xmlns:xlink="http://www.w3.org/1999/xlink" width="12" height="12" viewBox="0 0 12 12" version="1.1">
<g id="surface1">
<path style=" stroke:none;fill-rule:evenodd;fill:rgb(100%,100%,100%);fill-opacity:1;" d="M 1 10 L 7 10 L 7 11 L 1 11 Z M 1 10 "/>
<path style=" stroke:none;fill-rule:evenodd;fill:rgb(100%,100%,100%);fill-opacity:1;" d="M 4 6.597656 L 6.417969 10.222656 C 6.570312 10.453125 6.507812 10.761719 6.277344 10.917969 C 6.046875 11.070312 5.738281 11.007812 5.582031 10.777344 L 4 8.402344 L 2.417969 10.777344 C 2.261719 11.007812 1.953125 11.070312 1.722656 10.917969 C 1.492188 10.761719 1.429688 10.453125 1.582031 10.222656 Z M 4 6.597656 "/>
<path style=" stroke:none;fill-rule:evenodd;fill:rgb(100%,100%,100%);fill-opacity:1;" d="M 5 5 L 11 5 L 11 6 L 5 6 Z M 5 5 "/>
<path style=" stroke:none;fill-rule:evenodd;fill:rgb(100%,100%,100%);fill-opacity:1;" d="M 8 1.597656 L 10.417969 5.222656 C 10.570312 5.453125 10.507812 5.761719 10.277344 5.917969 C 10.046875 6.070312 9.738281 6.007812 9.582031 5.777344 L 8 3.402344 L 6.417969 5.777344 C 6.261719 6.007812 5.953125 6.070312 5.722656 5.917969 C 5.492188 5.761719 5.429688 5.453125 5.582031 5.222656 Z M 8 1.597656 "/>
</g>
</svg>
