<?xml version="1.0" encoding="UTF-8"?>
<svg xmlns="http://www.w3.org/2000/svg" xmlns:xlink="http://www.w3.org/1999/xlink" width="32" height="32" viewBox="0 0 32 32">
<path fill-rule="nonzero" fill="rgb(24.705882%, 24.705882%, 24.705882%)" fill-opacity="1" d="M 17.945312 8.128906 C 20.625 6.683594 21.757812 6.273438 23.199219 7.613281 C 21.859375 5.34375 19.59375 6.167969 17.738281 7.304688 C 12.890625 9.984375 11.347656 5.242188 11.242188 4.828125 C 11.242188 5.242188 12.171875 11.117188 17.945312 8.128906 Z M 17.945312 8.128906 "/>
<path fill-rule="nonzero" fill="rgb(24.705882%, 24.705882%, 24.705882%)" fill-opacity="1" d="M 27.796875 15.242188 C 27.488281 11.941406 26.867188 6.480469 26.867188 6.480469 C 26.867188 6.167969 26.660156 5.964844 26.351562 5.964844 L 25.523438 5.964844 C 23.335938 1.59375 19.539062 3.085938 19.035156 3.59375 C 16.664062 2.046875 13.984375 4.625 14.085938 5.449219 C 14.703125 4.625 17.695312 3.179688 18.929688 4.726562 C 22.117188 2.691406 24.765625 5.207031 25.453125 5.964844 L 24.394531 5.964844 C 24.085938 5.964844 23.878906 6.167969 23.878906 6.480469 L 22.746094 15.242188 C 22.746094 15.242188 22.746094 12.148438 22.746094 11.734375 C 22.746094 11.324219 22.539062 11.117188 22.230469 11.117188 C 22.023438 11.117188 14.085938 11.117188 14.085938 11.117188 C 13.671875 11.117188 13.46875 11.324219 13.46875 11.734375 L 13.46875 15.242188 L 2.316406 15.242188 L 2.316406 29.671875 L 13.65625 29.671875 C 13.65625 28.023438 13.242188 27.714844 12.625 27.199219 C 11.492188 26.375 10.5625 25.445312 10.5625 22.457031 L 8.5 22.457031 L 11.59375 18.332031 L 14.6875 22.457031 L 12.625 22.457031 C 12.625 24.621094 13.140625 25.035156 13.863281 25.550781 C 14.894531 26.375 15.71875 27.199219 15.71875 29.671875 L 21.902344 29.671875 C 21.902344 28.023438 21.492188 27.714844 20.871094 27.199219 C 19.738281 26.375 18.808594 25.445312 18.808594 22.457031 L 16.75 22.457031 L 19.839844 18.332031 L 22.933594 22.457031 L 20.871094 22.457031 C 20.871094 24.621094 21.386719 25.035156 22.109375 25.550781 C 23.140625 26.375 23.964844 27.199219 23.964844 29.671875 L 29.117188 29.671875 L 29.117188 15.242188 Z M 17.589844 14.210938 L 15.527344 14.210938 L 15.527344 13.179688 L 17.589844 13.179688 Z M 20.683594 14.210938 L 18.621094 14.210938 L 18.621094 13.179688 L 20.683594 13.179688 Z M 20.683594 14.210938 "/>
<path fill-rule="nonzero" fill="rgb(24.705882%, 24.705882%, 24.705882%)" fill-opacity="1" d="M 5.738281 1.359375 L 2.5 7.84375 L 5.773438 7.84375 L 3.027344 13.828125 L 9.28125 5.953125 L 5.746094 5.953125 L 8.535156 1.359375 Z M 5.738281 1.359375 "/>
</svg>
