<?xml version="1.0" encoding="UTF-8"?>
<svg xmlns="http://www.w3.org/2000/svg" xmlns:xlink="http://www.w3.org/1999/xlink" width="32" height="32" viewBox="0 0 32 32">
<path fill-rule="evenodd" fill="rgb(100%, 100%, 100%)" fill-opacity="1" d="M 10.667969 14.667969 C 10.667969 15.402344 10.070312 16 9.332031 16 C 8.597656 16 8 15.402344 8 14.667969 C 8 13.929688 8.597656 13.332031 9.332031 13.332031 C 10.070312 13.332031 10.667969 13.929688 10.667969 14.667969 Z M 10.667969 21.332031 L 10.667969 19.332031 C 10.667969 19.703125 10.964844 20 11.332031 20 C 11.703125 20 12 19.703125 12 19.332031 L 12 16.667969 C 12 16.296875 11.703125 16 11.332031 16 L 7.332031 16 C 6.964844 16 6.667969 16.296875 6.667969 16.667969 L 6.667969 19.332031 C 6.667969 19.703125 6.964844 20 7.332031 20 C 7.703125 20 8 19.703125 8 19.332031 L 8 21.332031 L 2.667969 21.332031 L 2.667969 29.332031 L 5.332031 29.332031 L 5.332031 24 L 13.332031 24 L 13.332031 29.332031 L 16 29.332031 L 16 21.332031 Z M 10.667969 21.332031 "/>
<path fill-rule="nonzero" fill="rgb(100%, 100%, 100%)" fill-opacity="1" d="M 29.332031 4 L 26.667969 5.332031 L 24 5.332031 L 24 8 L 26.667969 8 L 26.667969 10.667969 L 24 10.667969 L 24 16 L 21.332031 16 L 21.332031 10.667969 L 18.667969 10.667969 L 16 9.332031 L 18.667969 8 L 21.332031 8 L 21.332031 5.332031 L 18.667969 5.332031 L 18.667969 2.667969 L 26.667969 2.667969 Z M 29.332031 4 "/>
</svg>
