<?xml version="1.0" encoding="UTF-8"?>
<svg xmlns="http://www.w3.org/2000/svg" xmlns:xlink="http://www.w3.org/1999/xlink" width="32" height="32" viewBox="0 0 32 32">
<path fill-rule="nonzero" fill="rgb(100%, 100%, 100%)" fill-opacity="1" d="M 2.539062 2.539062 L 2.539062 14.921875 L 14.785156 14.921875 L 14.785156 2.539062 Z M 3.539062 6.59375 L 6.617188 3.550781 L 8.292969 3.550781 L 3.539062 8.25 Z M 3.539062 9.9375 L 3.539062 9.109375 L 9.164062 3.550781 L 10 3.550781 Z M 13.851562 10.113281 L 10.269531 13.882812 L 9.304688 13.882812 L 13.851562 9.101562 Z M 13.851562 10.113281 "/>
<path fill-rule="nonzero" fill="rgb(100%, 100%, 100%)" fill-opacity="1" d="M 17.214844 2.539062 L 17.214844 14.921875 L 29.460938 14.921875 L 29.460938 2.539062 Z M 18.214844 6.59375 L 21.292969 3.550781 L 22.96875 3.550781 L 18.214844 8.25 Z M 18.214844 9.9375 L 18.214844 9.109375 L 23.839844 3.550781 L 24.675781 3.550781 Z M 28.527344 10.113281 L 24.945312 13.882812 L 23.980469 13.882812 L 28.527344 9.101562 Z M 28.527344 10.113281 "/>
<path fill-rule="nonzero" fill="rgb(100%, 100%, 100%)" fill-opacity="1" d="M 2.539062 17.269531 L 2.539062 29.652344 L 14.785156 29.652344 L 14.785156 17.269531 Z M 3.539062 21.324219 L 6.617188 18.28125 L 8.292969 18.28125 L 3.539062 22.980469 Z M 3.539062 24.667969 L 3.539062 23.839844 L 9.164062 18.28125 L 10 18.28125 Z M 13.851562 24.84375 L 10.269531 28.613281 L 9.304688 28.613281 L 13.851562 23.832031 Z M 13.851562 24.84375 "/>
<path fill-rule="nonzero" fill="rgb(100%, 100%, 100%)" fill-opacity="1" d="M 17.214844 17.269531 L 17.214844 29.652344 L 29.460938 29.652344 L 29.460938 17.269531 Z M 18.214844 21.324219 L 21.292969 18.28125 L 22.96875 18.28125 L 18.214844 22.980469 Z M 18.214844 24.667969 L 18.214844 23.839844 L 23.839844 18.28125 L 24.675781 18.28125 Z M 28.527344 24.84375 L 24.945312 28.613281 L 23.980469 28.613281 L 28.527344 23.832031 Z M 28.527344 24.84375 "/>
</svg>
