<?xml version="1.0" encoding="UTF-8"?>
<svg xmlns="http://www.w3.org/2000/svg" xmlns:xlink="http://www.w3.org/1999/xlink" width="32" height="32" viewBox="0 0 32 32">
<defs>
<filter id="filter-remove-color" x="0%" y="0%" width="100%" height="100%">
<feColorMatrix color-interpolation-filters="sRGB" values="0 0 0 0 1 0 0 0 0 1 0 0 0 0 1 0 0 0 1 0" />
</filter>
<mask id="mask-0">
<g filter="url(#filter-remove-color)">
<rect x="-3.2" y="-3.2" width="38.4" height="38.4" fill="rgb(0%, 0%, 0%)" fill-opacity="0.25"/>
</g>
</mask>
<clipPath id="clip-0">
<rect x="0" y="0" width="32" height="32"/>
</clipPath>
<g id="source-9" clip-path="url(#clip-0)">
<path fill-rule="nonzero" fill="rgb(24.705882%, 24.705882%, 24.705882%)" fill-opacity="1" d="M 18.9375 5.257812 L 18.433594 6.332031 L 18.027344 7.195312 C 16.613281 10.191406 15.195312 13.1875 13.773438 16.179688 C 13.09375 15.242188 12.410156 14.308594 11.722656 13.378906 L 11.234375 12.710938 L 10.796875 13.414062 C 8.121094 17.699219 5.46875 22 2.777344 26.269531 L 2.242188 27.121094 L 3.246094 27.125 C 11.65625 27.199219 20.0625 27.265625 28.46875 27.335938 L 29.367188 27.34375 L 28.980469 26.535156 C 25.8125 19.796875 22.625 13.066406 19.445312 6.332031 Z M 18.9375 5.257812 "/>
</g>
</defs>
<path fill="none" stroke-width="20.351999" stroke-linecap="butt" stroke-linejoin="miter" stroke="rgb(24.705882%, 24.705882%, 24.705882%)" stroke-opacity="1" stroke-miterlimit="4" d="M 335.878906 134.804688 C 307.841797 194.206543 279.804688 253.608398 251.555176 313.010254 C 235.908203 291.416016 220.19043 269.892578 204.331055 248.510742 C 155.83252 326.179199 107.82959 404.060059 58.977051 481.516113 C 211.340332 482.790527 363.774414 484.064941 516.137695 485.339355 C 458.718262 363.208008 400.944824 241.147461 343.242188 119.157715 C 340.834961 124.326172 338.356934 129.56543 335.878906 134.804688 Z M 335.878906 134.804688 " transform="matrix(0.0551724, 0, 0, 0.0551724, 0, 0)"/>
<path fill-rule="nonzero" fill="rgb(24.705882%, 24.705882%, 24.705882%)" fill-opacity="1" d="M 18.9375 5.257812 L 18.433594 6.332031 L 18.027344 7.195312 C 16.613281 10.191406 15.195312 13.1875 13.773438 16.179688 C 13.09375 15.242188 12.410156 14.308594 11.722656 13.378906 L 11.234375 12.710938 L 10.796875 13.414062 C 8.121094 17.699219 5.46875 22 2.777344 26.269531 L 2.242188 27.121094 L 3.246094 27.125 C 11.65625 27.199219 20.0625 27.265625 28.46875 27.335938 L 29.367188 27.34375 L 28.980469 26.535156 C 25.8125 19.796875 22.625 13.066406 19.445312 6.332031 Z M 18.9375 14.769531 C 19.109375 14.769531 19.277344 14.851562 19.378906 14.984375 C 19.882812 15.617188 20.371094 16.136719 20.566406 16.214844 C 20.664062 16.253906 20.640625 16.257812 20.742188 16.191406 C 20.84375 16.125 21.050781 15.910156 21.277344 15.46875 C 21.371094 15.285156 21.574219 15.164062 21.78125 15.167969 C 21.988281 15.171875 22.1875 15.296875 22.277344 15.484375 L 26.855469 25.167969 C 27.023438 25.511719 26.722656 25.980469 26.34375 25.976562 L 5.667969 25.800781 C 5.46875 25.796875 5.277344 25.6875 5.183594 25.511719 C 5.089844 25.339844 5.09375 25.113281 5.199219 24.945312 L 9.269531 18.410156 C 9.445312 18.125 9.898438 18.070312 10.136719 18.304688 C 10.5 18.664062 10.816406 18.855469 11.191406 18.878906 C 11.566406 18.90625 12.09375 18.765625 12.867188 18.191406 C 13.105469 18.011719 13.488281 18.070312 13.660156 18.3125 L 14.019531 18.804688 L 15.492188 15.6875 C 15.578125 15.5 15.777344 15.363281 15.984375 15.359375 C 16.191406 15.351562 16.398438 15.46875 16.496094 15.652344 C 16.640625 15.917969 16.789062 16.066406 16.898438 16.128906 C 17.003906 16.195312 17.074219 16.207031 17.207031 16.179688 C 17.464844 16.125 17.964844 15.769531 18.484375 15.015625 C 18.582031 14.867188 18.757812 14.769531 18.9375 14.769531 Z M 18.9375 14.769531 "/>
<path fill="none" stroke-width="20.351999" stroke-linecap="butt" stroke-linejoin="miter" stroke="rgb(24.705882%, 24.705882%, 24.705882%)" stroke-opacity="1" stroke-miterlimit="4" d="M 335.878906 134.804688 C 307.841797 194.206543 279.804688 253.608398 251.555176 313.010254 C 235.908203 291.416016 220.19043 269.892578 204.331055 248.510742 C 155.83252 326.179199 107.82959 404.060059 58.977051 481.516113 C 211.340332 482.790527 363.774414 484.064941 516.137695 485.339355 C 458.718262 363.208008 400.944824 241.147461 343.242188 119.157715 C 340.834961 124.326172 338.356934 129.56543 335.878906 134.804688 Z M 335.878906 134.804688 " transform="matrix(0.0551724, 0, 0, 0.0551724, 0, 0)"/>
<g mask="url(#mask-0)">
<use xlink:href="#source-9"/>
</g>
</svg>
