<svg width="12" height="12" viewBox="0 0 580 580" fill="none" xmlns="http://www.w3.org/2000/svg">
<path d="M182.104 105.98L213.786 290.385L286.086 318.818L367.322 286.323L390.881 101.918L182.104 105.98Z" fill="#FFD200" stroke="black" stroke-width="1.32218"/>
<path d="M250.348 306.634L265.093 342.731V551.089C283.987 566.289 300.096 563.004 314.906 551.089V343.751L329.652 306.634H250.348Z" fill="black"/>
<path d="M168.37 103.297L293.02 152.698L410.707 101.603L367.138 69.7019C367.138 69.7019 311.902 72.8779 293.595 3.92188C268.32 74.0016 205.133 71.1295 205.133 71.1295L168.37 103.297Z" fill="black" stroke="black" stroke-width="1.32218"/>
<path d="M182.205 101.204L213.555 288.61L289.595 316.97L366.744 291.593L396.467 108.009C345.415 70.8019 292.214 89.5066 292.749 150.974L293.041 316.396" stroke="black" stroke-width="28.6914"/>
</svg>
