<?xml version="1.0" encoding="UTF-8"?>
<svg xmlns="http://www.w3.org/2000/svg" xmlns:xlink="http://www.w3.org/1999/xlink" width="12" height="12" viewBox="0 0 12 12" version="1.1">
<g id="surface1">
<path style=" stroke:none;fill-rule:nonzero;fill:rgb(100%,100%,100%);fill-opacity:1;" d="M 0 4 L 0 2 L 1 2 L 1 3 L 1.5 3 L 1.5 2 L 2.5 2 L 2.5 3 L 3 3 L 3 2 L 4 2 L 4 4 L 3 4 L 3 6 L 4 6 L 4 5 L 5 5 L 5 6 L 5.5 6 L 5.5 5 L 6.5 5 L 6.5 6 L 7 6 L 7 5 L 8 5 L 8 6 L 9 6 L 9 4 L 8 4 L 8 2 L 9 2 L 9 3 L 9.5 3 L 9.5 2 L 10.5 2 L 10.5 3 L 11 3 L 11 2 L 12 2 L 12 4 L 11 4 L 11 9 L 12 9 L 12 10 L 7 10 L 7 8 L 5 8 L 5 10 L 0 10 L 0 9 L 1 9 L 1 4 Z M 0 4 "/>
</g>
</svg>
