<?xml version="1.0" encoding="UTF-8"?>
<svg xmlns="http://www.w3.org/2000/svg" xmlns:xlink="http://www.w3.org/1999/xlink" width="32" height="32" viewBox="0 0 32 32">
<defs>
<filter id="filter-remove-color" x="0%" y="0%" width="100%" height="100%">
<feColorMatrix color-interpolation-filters="sRGB" values="0 0 0 0 1 0 0 0 0 1 0 0 0 0 1 0 0 0 1 0" />
</filter>
<mask id="mask-0">
<g filter="url(#filter-remove-color)">
<rect x="-3.2" y="-3.2" width="38.4" height="38.4" fill="rgb(0%, 0%, 0%)" fill-opacity="0.7"/>
</g>
</mask>
<clipPath id="clip-0">
<rect x="0" y="0" width="32" height="32"/>
</clipPath>
<g id="source-8" clip-path="url(#clip-0)">
<path fill-rule="nonzero" fill="rgb(100%, 100%, 100%)" fill-opacity="1" d="M 13.332031 14.667969 L 18.667969 14.667969 L 18.667969 16 L 13.332031 16 Z M 13.332031 14.667969 "/>
</g>
</defs>
<path fill-rule="evenodd" fill="rgb(100%, 100%, 100%)" fill-opacity="1" d="M 10.667969 5.332031 L 13.035156 0.597656 C 13.21875 0.230469 13.589844 0 14 0 C 14.410156 0 14.78125 0.230469 14.964844 0.597656 L 16 2.667969 L 17.035156 0.597656 C 17.21875 0.230469 17.589844 0 18 0 C 18.410156 0 18.78125 0.230469 18.964844 0.597656 L 21.332031 5.332031 L 22.667969 5.332031 C 23.402344 5.332031 24 5.929688 24 6.667969 C 24 7.402344 23.402344 8 22.667969 8 L 21.332031 8 L 21.332031 10.351562 C 21.332031 12.179688 20.300781 13.847656 18.667969 14.667969 L 13.332031 14.667969 C 11.699219 13.847656 10.667969 12.179688 10.667969 10.351562 L 10.667969 8 L 9.332031 8 C 8.597656 8 8 7.402344 8 6.667969 C 8 5.929688 8.597656 5.332031 9.332031 5.332031 Z M 11.554688 8 L 14.667969 9.332031 L 14.667969 8 Z M 17.332031 8 L 17.332031 9.332031 L 20 8 Z M 17.332031 8 "/>
<path fill-rule="nonzero" fill="rgb(100%, 100%, 100%)" fill-opacity="1" d="M 5.332031 16 L 5.332031 26.667969 L 4 26.667969 L 4 29.332031 L 28 29.332031 L 28 26.667969 L 26.667969 26.667969 L 26.667969 16 Z M 5.332031 16 "/>
<g mask="url(#mask-0)">
<use xlink:href="#source-8"/>
</g>
</svg>
