<?xml version="1.0" encoding="UTF-8"?>
<svg xmlns="http://www.w3.org/2000/svg" xmlns:xlink="http://www.w3.org/1999/xlink" width="12" height="12" viewBox="0 0 12 12" version="1.1">
<defs>
<filter id="alpha" filterUnits="objectBoundingBox" x="0%" y="0%" width="100%" height="100%">
  <feColorMatrix type="matrix" in="SourceGraphic" values="0 0 0 0 1 0 0 0 0 1 0 0 0 0 1 0 0 0 1 0"/>
</filter>
<mask id="mask0">
  <g filter="url(#alpha)">
<rect x="0" y="0" width="12" height="12" style="fill:rgb(0%,0%,0%);fill-opacity:0.2;stroke:none;"/>
  </g>
</mask>
<clipPath id="clip1">
  <rect x="0" y="0" width="12" height="12"/>
</clipPath>
<g id="surface5" clip-path="url(#clip1)">
<path style="fill-rule:nonzero;fill:rgb(100%,100%,100%);fill-opacity:1;stroke-width:10.9734;stroke-linecap:round;stroke-linejoin:round;stroke:rgb(100%,100%,100%);stroke-opacity:1;stroke-miterlimit:4;" d="M 550.735677 346.074219 L 30.77474 346.074219 L 30.77474 530.722656 L 550.735677 530.722656 Z M 550.735677 346.074219 " transform="matrix(0.0206897,0,0,0.0206897,0,0)"/>
</g>
</defs>
<g id="surface1">
<use xlink:href="#surface5" mask="url(#mask0)"/>
<path style="fill:none;stroke-width:20;stroke-linecap:butt;stroke-linejoin:miter;stroke:rgb(100%,100%,100%);stroke-opacity:1;stroke-miterlimit:4;" d="M 21.71224 342.486979 L 558.665365 342.486979 " transform="matrix(0.0206897,0,0,0.0206897,0,0)"/>
<path style="fill:none;stroke-width:20;stroke-linecap:butt;stroke-linejoin:miter;stroke:rgb(100%,100%,100%);stroke-opacity:1;stroke-miterlimit:4;" d="M 21.71224 530.345052 L 558.665365 530.345052 " transform="matrix(0.0206897,0,0,0.0206897,0,0)"/>
<path style="fill:none;stroke-width:19.466999;stroke-linecap:butt;stroke-linejoin:miter;stroke:rgb(100%,100%,100%);stroke-opacity:1;stroke-dasharray:38.93,38.93;stroke-miterlimit:4;" d="M 37.19401 434.433594 L 546.015625 434.433594 " transform="matrix(0.0206897,0,0,0.0206897,0,0)"/>
<path style=" stroke:none;fill-rule:nonzero;fill:rgb(100%,100%,100%);fill-opacity:1;" d="M 5.359375 6.507812 L 5.335938 3.648438 L 3.875 3.636719 L 3.875 2.1875 L 5.328125 2.160156 L 5.355469 0.558594 L 6.839844 0.53125 L 6.839844 2.164062 L 8.316406 2.164062 L 8.316406 3.621094 L 6.839844 3.621094 L 6.839844 6.539062 C 6.367188 6.484375 5.816406 6.628906 5.359375 6.507812 Z M 5.359375 6.507812 "/>
<path style=" stroke:none;fill-rule:nonzero;fill:rgb(100%,100%,100%);fill-opacity:1;" d="M 6.832031 6.507812 L 6.855469 3.648438 L 8.316406 3.636719 L 8.316406 2.1875 L 6.863281 2.160156 L 6.839844 0.558594 L 5.355469 0.53125 L 5.355469 2.164062 L 3.875 2.164062 L 3.875 3.621094 L 5.355469 3.621094 L 5.355469 6.539062 C 5.824219 6.484375 6.375 6.628906 6.832031 6.507812 Z M 6.832031 6.507812 "/>
</g>
</svg>
