<?xml version="1.0" encoding="UTF-8"?>
<svg xmlns="http://www.w3.org/2000/svg" xmlns:xlink="http://www.w3.org/1999/xlink" width="12" height="12" viewBox="0 0 12 12" version="1.1">
<g id="surface1">
<path style=" stroke:none;fill-rule:nonzero;fill:rgb(100%,100%,100%);fill-opacity:1;" d="M 6 1.199219 C 4.71875 1.199219 3.886719 1.289062 3.296875 1.601562 C 3 1.761719 2.765625 1.992188 2.632812 2.265625 C 2.496094 2.542969 2.460938 2.84375 2.460938 3.164062 L 3.246094 3.164062 C 3.246094 2.914062 3.285156 2.738281 3.34375 2.609375 C 3.40625 2.484375 3.488281 2.386719 3.664062 2.292969 C 4.019531 2.105469 4.765625 1.984375 6 1.984375 C 7.238281 1.984375 7.984375 2.097656 8.335938 2.28125 C 8.511719 2.371094 8.59375 2.460938 8.65625 2.585938 C 8.714844 2.714844 8.753906 2.902344 8.753906 3.164062 L 9.539062 3.164062 C 9.539062 2.835938 9.503906 2.53125 9.367188 2.253906 C 9.234375 1.976562 9 1.746094 8.703125 1.589844 C 8.109375 1.28125 7.277344 1.199219 6 1.199219 Z M 2.460938 3.640625 C 2.222656 3.640625 1.28125 5.214844 1.28125 7.179688 C 1.28125 9.144531 1.4375 10.71875 1.675781 10.71875 L 10.324219 10.71875 C 10.5625 10.71875 10.71875 9.144531 10.71875 7.179688 C 10.71875 5.214844 9.777344 3.640625 9.539062 3.640625 Z M 6 5.214844 C 7.101562 5.214844 7.964844 6.078125 7.964844 7.179688 C 7.964844 8.28125 7.101562 9.144531 6 9.144531 C 4.898438 9.144531 4.035156 8.28125 4.035156 7.179688 C 4.035156 6.078125 4.898438 5.214844 6 5.214844 Z M 5.605469 6 L 5.605469 6.785156 L 4.820312 6.785156 L 4.820312 7.574219 L 5.605469 7.574219 L 5.605469 8.359375 L 6.394531 8.359375 L 6.394531 7.574219 L 7.179688 7.574219 L 7.179688 6.785156 L 6.394531 6.785156 L 6.394531 6 Z M 5.605469 6 "/>
</g>
</svg>
