<?xml version="1.0" encoding="UTF-8"?>
<svg xmlns="http://www.w3.org/2000/svg" xmlns:xlink="http://www.w3.org/1999/xlink" width="12" height="12" viewBox="0 0 12 12" version="1.1">
<g id="surface1">
<path style=" stroke:none;fill-rule:nonzero;fill:rgb(100%,100%,100%);fill-opacity:1;" d="M 6 3 C 6.550781 3 7 2.550781 7 2 C 7 1.449219 6.550781 1 6 1 C 5.449219 1 5 1.449219 5 2 C 5 2.550781 5.449219 3 6 3 Z M 6 3 "/>
<path style=" stroke:none;fill-rule:nonzero;fill:rgb(100%,100%,100%);fill-opacity:1;" d="M 6.300781 3.699219 C 6.078125 3.367188 5.46875 3.457031 5.277344 3.554688 L 3 4.691406 L 3 7 L 4 7 L 4 5.308594 L 4.84375 4.886719 L 3.398438 11 L 4.449219 11 L 5.292969 7.84375 L 6.5 8.75 L 6.5 11 L 7.5 11 L 7.5 8.25 L 6.144531 7.230469 C 6.144531 7.230469 6.316406 6.070312 6.378906 5.535156 C 6.800781 5.835938 7.304688 6 7.828125 6 L 8.5 6 L 8.5 5 L 7.828125 5 C 7.429688 5 7.050781 4.84375 6.769531 4.5625 C 6.769531 4.5625 6.523438 4.03125 6.300781 3.699219 Z M 6.300781 3.699219 "/>
</g>
</svg>
