<?xml version="1.0" encoding="UTF-8"?>
<svg xmlns="http://www.w3.org/2000/svg" xmlns:xlink="http://www.w3.org/1999/xlink" width="32" height="32" viewBox="0 0 32 32">
<defs>
<filter id="filter-remove-color" x="0%" y="0%" width="100%" height="100%">
<feColorMatrix color-interpolation-filters="sRGB" values="0 0 0 0 1 0 0 0 0 1 0 0 0 0 1 0 0 0 1 0" />
</filter>
<mask id="mask-0">
<g filter="url(#filter-remove-color)">
<rect x="-3.2" y="-3.2" width="38.4" height="38.4" fill="rgb(0%, 0%, 0%)" fill-opacity="0.5"/>
</g>
</mask>
<clipPath id="clip-0">
<rect x="0" y="0" width="32" height="32"/>
</clipPath>
<g id="source-7" clip-path="url(#clip-0)">
<path fill-rule="nonzero" fill="rgb(100%, 100%, 100%)" fill-opacity="1" d="M 5.332031 5.332031 L 26.667969 5.332031 L 26.667969 8 L 5.332031 8 Z M 5.332031 5.332031 "/>
</g>
</defs>
<path fill-rule="evenodd" fill="rgb(100%, 100%, 100%)" fill-opacity="1" d="M 8 2.667969 C 6.527344 2.667969 5.332031 3.859375 5.332031 5.332031 L 5.332031 8 L 3.21875 10.113281 C 2.867188 10.46875 2.667969 10.949219 2.667969 11.449219 C 2.667969 12.488281 3.511719 13.332031 4.550781 13.332031 L 4.636719 13.332031 C 4.871094 13.332031 5.105469 13.304688 5.332031 13.25 L 5.332031 24 C 5.332031 26.945312 7.722656 29.332031 10.667969 29.332031 L 21.332031 29.332031 C 24.277344 29.332031 26.667969 26.945312 26.667969 24 L 26.667969 13.25 C 26.894531 13.304688 27.128906 13.332031 27.363281 13.332031 L 27.449219 13.332031 C 28.488281 13.332031 29.332031 12.488281 29.332031 11.449219 C 29.332031 10.949219 29.132812 10.46875 28.78125 10.113281 L 26.667969 8 L 5.332031 8 L 5.332031 5.332031 L 26.667969 5.332031 C 26.667969 3.859375 25.472656 2.667969 24 2.667969 Z M 8 12 L 8.28125 11.859375 C 9.78125 11.109375 11.550781 11.109375 13.050781 11.859375 L 13.613281 12.140625 C 15.117188 12.890625 16.882812 12.890625 18.386719 12.140625 L 18.949219 11.859375 C 20.449219 11.109375 22.21875 11.109375 23.71875 11.859375 L 24 12 L 24 16.667969 L 22 13.332031 L 18 13.332031 L 16 16.667969 L 18 20 L 22 20 L 24 16.667969 L 24 24 C 24 25.472656 22.804688 26.667969 21.332031 26.667969 L 10.667969 26.667969 C 9.195312 26.667969 8 25.472656 8 24 L 8 20.648438 L 10 23.980469 L 14 23.980469 L 16 20.648438 L 14 17.3125 L 10 17.3125 L 8 20.648438 Z M 8 12 "/>
<g mask="url(#mask-0)">
<use xlink:href="#source-7"/>
</g>
</svg>
