<?xml version="1.0" encoding="UTF-8"?>
<svg xmlns="http://www.w3.org/2000/svg" xmlns:xlink="http://www.w3.org/1999/xlink" width="12" height="12" viewBox="0 0 12 12" version="1.1">
<g id="surface1">
<path style=" stroke:none;fill-rule:evenodd;fill:rgb(100%,100%,100%);fill-opacity:1;" d="M 6.730469 1 L 10.195312 3 C 9.921875 3.476562 9.308594 3.640625 8.832031 3.367188 L 8.332031 4.230469 C 8.320312 4.421875 8.324219 4.597656 8.34375 4.757812 L 9.058594 4.285156 C 9.449219 4.027344 9.953125 4.015625 10.359375 4.246094 C 10.949219 4.589844 11.152344 5.34375 10.808594 5.9375 L 9.429688 8.332031 C 9.171875 8.773438 8.894531 9.136719 8.613281 9.433594 C 8.382812 9.476562 8.148438 9.5 7.914062 9.5 C 7.4375 9.5 6.964844 9.410156 6.523438 9.230469 L 5.414062 8.789062 C 4.9375 8.597656 4.429688 8.5 3.917969 8.5 C 3.121094 8.5 2.34375 8.734375 1.683594 9.175781 L 1.316406 9.421875 L 1.300781 9.410156 C 1.058594 9.273438 0.976562 8.964844 1.117188 8.726562 C 1.253906 8.488281 1.558594 8.40625 1.800781 8.542969 L 2.230469 8.792969 C 2.230469 8.792969 1 6.929688 2.5 4.332031 L 3.882812 1.9375 C 4.222656 1.34375 4.980469 1.144531 5.570312 1.484375 C 5.976562 1.71875 6.214844 2.160156 6.1875 2.628906 L 6.136719 3.484375 C 6.285156 3.417969 6.4375 3.335938 6.597656 3.230469 L 7.097656 2.367188 C 6.621094 2.089844 6.457031 1.476562 6.730469 1 Z M 5.121094 3.6875 L 5.1875 2.570312 C 5.195312 2.480469 5.148438 2.394531 5.070312 2.351562 C 4.957031 2.285156 4.8125 2.324219 4.746094 2.4375 L 4.089844 3.574219 C 4.171875 3.585938 4.253906 3.597656 4.335938 3.609375 C 4.582031 3.644531 4.84375 3.683594 5.121094 3.6875 Z M 9.285156 6.574219 L 9.945312 5.4375 C 10.007812 5.324219 9.96875 5.179688 9.859375 5.113281 C 9.78125 5.070312 9.683594 5.070312 9.609375 5.121094 L 8.675781 5.738281 C 8.816406 5.980469 8.980469 6.183594 9.132812 6.378906 C 9.1875 6.445312 9.238281 6.511719 9.285156 6.574219 Z M 9.285156 6.574219 "/>
<path style=" stroke:none;fill-rule:nonzero;fill:rgb(100%,100%,100%);fill-opacity:1;" d="M 2.515625 10.425781 C 2.929688 10.148438 3.417969 10 3.917969 10 C 4.238281 10 4.558594 10.0625 4.855469 10.179688 L 5.964844 10.625 C 6.585938 10.871094 7.246094 11 7.914062 11 C 8.34375 11 8.773438 10.949219 9.1875 10.84375 L 10.621094 10.484375 C 10.890625 10.417969 11.050781 10.148438 10.984375 9.878906 C 10.917969 9.609375 10.648438 9.449219 10.378906 9.515625 L 8.945312 9.875 C 8.609375 9.957031 8.261719 10 7.914062 10 C 7.375 10 6.839844 9.898438 6.335938 9.695312 L 5.226562 9.253906 C 4.808594 9.085938 4.367188 9 3.917969 9 C 3.21875 9 2.539062 9.207031 1.960938 9.59375 L 1.222656 10.082031 C 0.992188 10.238281 0.929688 10.546875 1.082031 10.777344 C 1.238281 11.007812 1.546875 11.070312 1.777344 10.917969 Z M 2.515625 10.425781 "/>
</g>
</svg>
