<?xml version="1.0" encoding="UTF-8"?>
<svg xmlns="http://www.w3.org/2000/svg" xmlns:xlink="http://www.w3.org/1999/xlink" width="32" height="32" viewBox="0 0 32 32">
<path fill-rule="evenodd" fill="rgb(100%, 100%, 100%)" fill-opacity="1" d="M 17.953125 2.667969 L 27.191406 8 C 26.453125 9.277344 24.824219 9.710938 23.546875 8.976562 L 22.214844 11.285156 C 22.183594 11.792969 22.199219 12.257812 22.25 12.691406 L 24.15625 11.433594 C 25.199219 10.742188 26.539062 10.703125 27.621094 11.328125 C 29.195312 12.238281 29.738281 14.253906 28.828125 15.832031 L 25.140625 22.214844 C 24.460938 23.394531 23.722656 24.363281 22.964844 25.160156 C 22.351562 25.273438 21.730469 25.332031 21.105469 25.332031 C 19.835938 25.332031 18.574219 25.089844 17.390625 24.617188 L 14.433594 23.433594 C 13.164062 22.925781 11.8125 22.667969 10.445312 22.667969 C 8.324219 22.667969 6.25 23.292969 4.488281 24.472656 L 3.511719 25.121094 L 3.464844 25.09375 C 2.828125 24.726562 2.609375 23.910156 2.976562 23.273438 C 3.34375 22.636719 4.160156 22.417969 4.796875 22.785156 L 5.953125 23.453125 C 5.953125 23.453125 2.667969 18.476562 6.667969 11.546875 L 10.351562 5.164062 C 11.261719 3.585938 13.277344 3.046875 14.855469 3.957031 C 15.9375 4.582031 16.570312 5.761719 16.496094 7.007812 L 16.359375 9.289062 C 16.757812 9.117188 17.171875 8.898438 17.59375 8.617188 L 18.929688 6.308594 C 17.652344 5.574219 17.214844 3.941406 17.953125 2.667969 Z M 13.65625 9.828125 L 13.835938 6.851562 C 13.847656 6.613281 13.726562 6.386719 13.519531 6.265625 C 13.21875 6.09375 12.835938 6.195312 12.660156 6.496094 L 10.90625 9.535156 C 11.121094 9.5625 11.339844 9.59375 11.5625 9.625 C 12.21875 9.722656 12.914062 9.828125 13.65625 9.828125 Z M 24.765625 17.535156 L 26.519531 14.496094 C 26.691406 14.195312 26.589844 13.8125 26.289062 13.636719 C 26.082031 13.519531 25.824219 13.527344 25.625 13.65625 L 23.136719 15.300781 C 23.507812 15.941406 23.945312 16.496094 24.359375 17.015625 C 24.496094 17.191406 24.632812 17.363281 24.765625 17.535156 Z M 24.765625 17.535156 "/>
<path fill-rule="nonzero" fill="rgb(100%, 100%, 100%)" fill-opacity="1" d="M 6.707031 27.800781 C 7.8125 27.0625 9.113281 26.667969 10.445312 26.667969 C 11.300781 26.667969 12.152344 26.832031 12.949219 27.148438 L 15.90625 28.332031 C 17.558594 28.992188 19.324219 29.332031 21.105469 29.332031 C 22.25 29.332031 23.390625 29.191406 24.503906 28.914062 L 28.324219 27.960938 C 29.039062 27.78125 29.472656 27.058594 29.292969 26.34375 C 29.113281 25.628906 28.390625 25.195312 27.675781 25.375 L 23.855469 26.328125 C 22.957031 26.554688 22.035156 26.667969 21.105469 26.667969 C 19.664062 26.667969 18.234375 26.390625 16.894531 25.855469 L 13.9375 24.671875 C 12.828125 24.226562 11.640625 24 10.445312 24 C 8.585938 24 6.773438 24.550781 5.226562 25.582031 L 3.261719 26.890625 C 2.648438 27.300781 2.480469 28.125 2.890625 28.738281 C 3.300781 29.351562 4.125 29.519531 4.738281 29.109375 Z M 6.707031 27.800781 "/>
</svg>
