<svg width="48" height="48" viewBox="0 0 48 48" fill="none" xmlns="http://www.w3.org/2000/svg">
<path fill-rule="evenodd" clip-rule="evenodd" d="M24 4C19.5817 4 16 7.58172 16 12V36C16 40.4183 19.5817 44 24 44C28.4183 44 32 40.4183 32 36V12C32 7.58172 28.4183 4 24 4ZM24 16C26.2091 16 28 14.2091 28 12C28 9.79086 26.2091 8 24 8C21.7909 8 20 9.79086 20 12C20 14.2091 21.7909 16 24 16ZM24 28C26.2091 28 28 26.2091 28 24C28 21.7909 26.2091 20 24 20C21.7909 20 20 21.7909 20 24C20 26.2091 21.7909 28 24 28ZM28 36C28 38.2091 26.2091 40 24 40C21.7909 40 20 38.2091 20 36C20 33.7909 21.7909 32 24 32C26.2091 32 28 33.7909 28 36Z" fill="#ffffff"/>
<circle opacity="0.6" cx="24" cy="12" r="4" fill="#ffffff"/>
<circle opacity="0.2" cx="24" cy="24" r="4" fill="#ffffff"/>
<circle opacity="0.3" cx="24" cy="36" r="4" fill="#ffffff"/>
</svg>
