<?xml version="1.0" encoding="UTF-8"?>
<svg xmlns="http://www.w3.org/2000/svg" xmlns:xlink="http://www.w3.org/1999/xlink" width="12" height="12" viewBox="0 0 12 12" version="1.1">
<defs>
<filter id="alpha" filterUnits="objectBoundingBox" x="0%" y="0%" width="100%" height="100%">
  <feColorMatrix type="matrix" in="SourceGraphic" values="0 0 0 0 1 0 0 0 0 1 0 0 0 0 1 0 0 0 1 0"/>
</filter>
<mask id="mask0">
  <g filter="url(#alpha)">
<rect x="0" y="0" width="12" height="12" style="fill:rgb(0%,0%,0%);fill-opacity:0.5;stroke:none;"/>
  </g>
</mask>
<clipPath id="clip1">
  <rect x="0" y="0" width="12" height="12"/>
</clipPath>
<g id="surface5" clip-path="url(#clip1)">
<path style=" stroke:none;fill-rule:nonzero;fill:rgb(100%,100%,100%);fill-opacity:1;" d="M 10 4 C 10 3.535156 9.679688 3.140625 9.25 3.03125 L 9.25 1.5 L 8.75 1.5 L 8.75 3.03125 C 8.320312 3.140625 8 3.535156 8 4 C 8 4.550781 8.449219 5 9 5 C 9.550781 5 10 4.550781 10 4 Z M 10 4 "/>
<path style=" stroke:none;fill-rule:nonzero;fill:rgb(100%,100%,100%);fill-opacity:1;" d="M 3 9 L 2 9 L 1 11 L 6 11 L 5.5 10 L 2.5 10 Z M 3 9 "/>
<path style=" stroke:none;fill-rule:nonzero;fill:rgb(100%,100%,100%);fill-opacity:1;" d="M 6 9 L 5 9 L 6 11 L 7 11 Z M 6 9 "/>
</g>
</defs>
<g id="surface1">
<path style=" stroke:none;fill-rule:nonzero;fill:rgb(100%,100%,100%);fill-opacity:1;" d="M 12 0 L 7 1 L 7 2 L 11 2 L 11 9 L 7 9 L 7 11 L 12 11 Z M 12 0 "/>
<path style=" stroke:none;fill-rule:evenodd;fill:rgb(100%,100%,100%);fill-opacity:1;" d="M 1.5 2.5 C 1.820312 2.179688 2.253906 2 2.707031 2 L 5.292969 2 C 5.746094 2 6.179688 2.179688 6.5 2.5 C 6.820312 2.820312 7 3.253906 7 3.707031 L 7 8 C 7 8.550781 6.550781 9 6 9 L 2 9 C 1.449219 9 1 8.550781 1 8 L 1 3.707031 C 1 3.253906 1.179688 2.820312 1.5 2.5 Z M 2 4 L 6 4 L 6 6 L 2 6 Z M 3 7.5 C 3 7.777344 2.777344 8 2.5 8 C 2.222656 8 2 7.777344 2 7.5 C 2 7.222656 2.222656 7 2.5 7 C 2.777344 7 3 7.222656 3 7.5 Z M 5.5 8 C 5.777344 8 6 7.777344 6 7.5 C 6 7.222656 5.777344 7 5.5 7 C 5.222656 7 5 7.222656 5 7.5 C 5 7.777344 5.222656 8 5.5 8 Z M 5.5 8 "/>
<use xlink:href="#surface5" mask="url(#mask0)"/>
</g>
</svg>
