<?xml version="1.0" encoding="UTF-8"?>
<svg xmlns="http://www.w3.org/2000/svg" xmlns:xlink="http://www.w3.org/1999/xlink" width="12" height="12" viewBox="0 0 12 12" version="1.1">
<g id="surface1">
<path style=" stroke:none;fill-rule:nonzero;fill:rgb(100%,100%,100%);fill-opacity:1;" d="M 1 4 C 1 0.5 5.5 0 6 3 C 6.5 0 11 0.5 11 4 C 11 4.371094 10.960938 4.71875 10.890625 5.050781 C 10.765625 5.019531 10.632812 5 10.5 5 L 10 5 L 10 4.5 C 10 3.671875 9.328125 3 8.5 3 C 7.671875 3 7 3.671875 7 4.5 L 7 5 L 6.5 5 C 5.671875 5 5 5.671875 5 6.5 C 5 7.328125 5.671875 8 6.5 8 L 7 8 L 7 8.5 C 7 8.933594 7.183594 9.324219 7.480469 9.601562 C 7 10.039062 6.5 10.5 6 11 C 5.476562 10.476562 4.957031 10 4.457031 9.542969 C 2.566406 7.808594 1 6.375 1 4 Z M 1 4 "/>
<path style=" stroke:none;fill-rule:nonzero;fill:rgb(100%,100%,100%);fill-opacity:1;" d="M 8.5 4 C 8.777344 4 9 4.222656 9 4.5 L 9 6 L 10.5 6 C 10.777344 6 11 6.222656 11 6.5 C 11 6.777344 10.777344 7 10.5 7 L 9 7 L 9 8.5 C 9 8.777344 8.777344 9 8.5 9 C 8.222656 9 8 8.777344 8 8.5 L 8 7 L 6.5 7 C 6.222656 7 6 6.777344 6 6.5 C 6 6.222656 6.222656 6 6.5 6 L 8 6 L 8 4.5 C 8 4.222656 8.222656 4 8.5 4 Z M 8.5 4 "/>
</g>
</svg>
