<svg width="12" height="12" viewBox="0 0 48 48" fill="none" xmlns="http://www.w3.org/2000/svg">
<path fill-rule="evenodd" clip-rule="evenodd" d="M28.3414 44C29.1651 46.3304 31.3876 48 34 48C37.3137 48 40 45.3137 40 42V18.8284C40 15.9565 38.8592 13.2023 36.8284 11.1716C34.7977 9.14085 32.0434 8 29.1716 8H18.8284C15.9566 8 13.2023 9.14085 11.1716 11.1716C9.14085 13.2023 8 15.9565 8 18.8284V42C8 45.3137 10.6863 48 14 48C16.6124 48 18.8349 46.3304 19.6586 44H28.3414Z" fill="#00293D" fill-opacity="0.75"/>
<path fill-rule="evenodd" clip-rule="evenodd" d="M18.8284 12C17.0174 12 15.2806 12.7194 14 14C12.7194 15.2806 12 17.0174 12 18.8284V42C12 43.1046 12.8954 44 14 44C15.1046 44 16 43.1046 16 42V40H32V42C32 43.1046 32.8954 44 34 44C35.1046 44 36 43.1046 36 42V18.8284C36 17.0174 35.2806 15.2806 34 14C32.7194 12.7194 30.9826 12 29.1716 12H18.8284ZM32 20H16V28H32V20ZM18 36C19.1046 36 20 35.1046 20 34C20 32.8954 19.1046 32 18 32C16.8954 32 16 32.8954 16 34C16 35.1046 16.8954 36 18 36ZM32 34C32 35.1046 31.1046 36 30 36C28.8954 36 28 35.1046 28 34C28 32.8954 28.8954 32 30 32C31.1046 32 32 32.8954 32 34Z" fill="#0092DA"/>
</svg>
