<?xml version="1.0" encoding="UTF-8"?>
<svg xmlns="http://www.w3.org/2000/svg" xmlns:xlink="http://www.w3.org/1999/xlink" width="32" height="32" viewBox="0 0 32 32">
<path fill-rule="nonzero" fill="rgb(100%, 100%, 100%)" fill-opacity="1" d="M 4.792969 3.140625 C 4.039062 3.125 3.8125 3.234375 3.511719 3.535156 C 2.710938 4.335938 3.511719 4.453125 3.511719 15.988281 C 3.511719 27.523438 2.753906 27.703125 3.578125 28.507812 C 4.375 29.289062 4.464844 28.539062 16 28.539062 C 27.535156 28.539062 27.6875 29.277344 28.488281 28.476562 C 29.289062 27.671875 28.488281 27.457031 28.488281 15.988281 C 28.488281 4.519531 29.257812 4.304688 28.453125 3.5 C 27.652344 2.703125 27.5 3.46875 16 3.46875 C 8.8125 3.46875 6.050781 3.164062 4.792969 3.140625 Z M 6.011719 4.355469 C 6.925781 4.355469 7.652344 5.082031 7.652344 5.996094 C 7.652344 6.914062 6.925781 7.640625 6.011719 7.640625 C 5.09375 7.640625 4.367188 6.914062 4.367188 5.996094 C 4.367188 5.082031 5.09375 4.355469 6.011719 4.355469 Z M 25.988281 4.355469 C 26.90625 4.355469 27.632812 5.082031 27.632812 5.996094 C 27.632812 6.914062 26.90625 7.640625 25.988281 7.640625 C 25.074219 7.640625 24.347656 6.914062 24.347656 5.996094 C 24.347656 5.082031 25.074219 4.355469 25.988281 4.355469 Z M 16 4.421875 C 22.390625 4.421875 27.566406 9.597656 27.566406 15.988281 C 27.566406 22.378906 22.390625 27.554688 16 27.554688 C 9.609375 27.554688 4.433594 22.378906 4.433594 15.988281 C 4.433594 9.597656 9.609375 4.421875 16 4.421875 Z M 16 6.722656 C 10.890625 6.722656 6.734375 10.878906 6.734375 15.988281 C 6.734375 21.097656 10.890625 25.253906 16 25.253906 C 21.109375 25.253906 25.265625 21.097656 25.265625 15.988281 C 25.265625 10.878906 21.109375 6.722656 16 6.722656 Z M 16 12.832031 C 17.742188 12.832031 19.15625 14.246094 19.15625 15.988281 C 19.15625 17.730469 17.742188 19.140625 16 19.140625 C 14.257812 19.140625 12.84375 17.730469 12.84375 15.988281 C 12.84375 14.246094 14.257812 12.832031 16 12.832031 Z M 8.671875 15.988281 L 10.609375 15.988281 C 10.609375 18.953125 13.03125 21.34375 16 21.34375 C 18.96875 21.34375 21.390625 18.953125 21.390625 15.988281 L 23.328125 15.988281 C 23.328125 20.03125 20.046875 23.316406 16 23.316406 C 11.953125 23.316406 8.671875 20.03125 8.671875 15.988281 Z M 6.011719 24.335938 C 6.925781 24.335938 7.652344 25.0625 7.652344 25.976562 C 7.652344 26.894531 6.925781 27.621094 6.011719 27.621094 C 5.09375 27.621094 4.367188 26.894531 4.367188 25.976562 C 4.367188 25.0625 5.09375 24.335938 6.011719 24.335938 Z M 25.988281 24.335938 C 26.90625 24.335938 27.632812 25.0625 27.632812 25.976562 C 27.632812 26.894531 26.90625 27.621094 25.988281 27.621094 C 25.074219 27.621094 24.347656 26.894531 24.347656 25.976562 C 24.347656 25.0625 25.074219 24.335938 25.988281 24.335938 Z M 25.988281 24.335938 "/>
</svg>
