<svg width="580" height="580" viewBox="0 0 580 580" fill="none" xmlns="http://www.w3.org/2000/svg">
<path opacity="0.2" d="M550.651 346.157H30.8345V530.715H550.651V346.157Z" fill="#ffffff" stroke="#ffffff" stroke-width="10.9734" stroke-linecap="round" stroke-linejoin="round"/>
<path d="M21.668 342.416H558.732" stroke="#ffffff" stroke-width="20"/>
<path d="M21.668 530.416H558.732" stroke="#ffffff" stroke-width="20"/>
<path d="M37.1421 434.416H545.964" stroke="#ffffff" stroke-width="19.467" stroke-dasharray="38.93 38.93"/>
<path d="M259.089 314.465L257.903 176.265L187.346 175.792V139.811V105.661L257.498 104.389L258.769 26.9159L330.526 25.6621V104.508H401.949V139.811V175.113H330.526V316.065C307.83 313.455 281.199 320.317 259.089 314.465Z" fill="#ffffff"/>
<path d="M330.206 314.465L331.392 176.265L401.949 175.792V139.811V105.661L331.797 104.389L330.526 26.9159L258.769 25.6621V104.508H187.346V139.811V175.113H258.769V316.065C281.465 313.455 308.096 320.317 330.206 314.465Z" fill="#ffffff"/>
</svg>
