<?xml version="1.0" encoding="UTF-8"?>
<svg xmlns="http://www.w3.org/2000/svg" xmlns:xlink="http://www.w3.org/1999/xlink" width="32" height="32" viewBox="0 0 32 32">
<path fill-rule="evenodd" fill="rgb(24.705882%, 24.705882%, 24.705882%)" fill-opacity="1" d="M 7.488281 5.195312 L 6.480469 6.203125 L 5.308594 7.371094 L 26.164062 28.226562 L 27.171875 27.222656 L 28.34375 26.050781 Z M 7.488281 5.195312 "/>
<path fill-rule="nonzero" fill="rgb(24.705882%, 24.705882%, 24.705882%)" fill-opacity="1" d="M 16.824219 6.59375 C 16.453125 6.585938 16.183594 6.671875 15.652344 7.066406 C 15.117188 7.457031 14.222656 8.351562 13.660156 8.914062 L 15.910156 11.164062 L 17.484375 9.632812 C 17.78125 10.105469 18.027344 10.492188 18.246094 10.792969 C 18.453125 11.089844 18.503906 11.300781 18.777344 11.425781 C 19.046875 11.535156 19.34375 11.503906 19.90625 11.503906 C 19.957031 11.503906 20.011719 11.503906 20.070312 11.507812 L 18.027344 12.785156 C 18.027344 12.785156 17.871094 12.8125 17.589844 12.84375 L 22.703125 17.957031 C 22.910156 17.476562 23.074219 16.871094 23.085938 16.140625 L 23.140625 16.222656 C 23.441406 14.457031 24.78125 13.582031 24.78125 13.582031 C 25.453125 14.421875 26.640625 14.40625 26.640625 14.40625 C 27.335938 14.820312 27.816406 15.589844 27.816406 15.589844 C 28.578125 16.476562 28.976562 15.75 28.976562 15.75 C 29.398438 15.882812 29.554688 15.449219 29.554688 15.449219 C 30.007812 14.675781 28.160156 11.949219 28.160156 11.949219 C 28.238281 11.574219 27.75 11.070312 27.75 11.070312 C 27.609375 10.347656 26.894531 9.847656 26.894531 9.847656 L 26.699219 9.8125 L 26.359375 8.007812 L 26.007812 8.648438 L 25.933594 8.007812 L 25.105469 9.535156 C 23.757812 9.390625 22.703125 9.65625 21.917969 10.035156 C 21.867188 10.023438 21.8125 10.015625 21.757812 10.003906 C 21.285156 9.925781 20.625 9.925781 19.757812 10.003906 C 19.304688 9.179688 18.925781 8.542969 18.609375 8.050781 C 18.285156 7.5625 18.160156 7.320312 17.867188 7.085938 C 17.554688 6.835938 17.199219 6.597656 16.824219 6.59375 Z M 5.582031 11.980469 C 5.082031 11.984375 4.574219 12.175781 4.105469 12.691406 C 3.375 13.605469 4.042969 15.140625 4.074219 15.824219 C 4.105469 16.507812 3.648438 18.105469 2.371094 18.710938 C 2.371094 18.710938 6.515625 18.4375 5.835938 15.277344 C 5.761719 14.796875 5.394531 13.351562 7.757812 13.910156 C 7.304688 14.679688 7.113281 15.816406 7.402344 17.480469 C 7.402344 17.480469 8.042969 20.035156 6.628906 21.628906 L 6.355469 26.328125 C 6.355469 26.328125 6.902344 26.601562 6.808594 27.285156 C 6.808594 27.285156 6.71875 27.832031 6.902344 27.96875 L 8.085938 27.96875 L 7.539062 27.148438 C 7.539062 27.148438 6.355469 24.273438 8.40625 21.402344 C 8.40625 21.402344 8.953125 20.765625 9.226562 20.535156 L 8.453125 22.3125 C 8.453125 22.3125 9.273438 25.324219 9.226562 26.417969 C 9.226562 26.417969 9.179688 26.875 9.867188 26.964844 C 9.867188 26.964844 9.726562 27.738281 10.003906 27.878906 L 11.234375 27.878906 C 11.234375 27.878906 10.046875 26.507812 10.003906 26.371094 C 10.003906 26.371094 9.363281 23.136719 9.773438 22.175781 C 9.773438 22.175781 11.1875 19.121094 11.917969 18.4375 C 11.917969 18.4375 12.601562 18.074219 13.058594 18.164062 C 13.058594 18.164062 14.601562 18.671875 16.417969 18.878906 C 16.433594 19.046875 16.464844 19.191406 16.523438 19.316406 C 16.707031 19.683594 17.214844 19.820312 17.523438 19.832031 C 17.597656 19.828125 17.679688 19.828125 17.757812 19.820312 L 10.355469 12.417969 C 9.59375 12.5 8.78125 12.75 8.179688 13.359375 C 7.867188 13.03125 6.757812 11.976562 5.582031 11.980469 Z M 19.289062 21.351562 C 19.269531 21.84375 19.199219 22.34375 19.03125 22.769531 C 19.03125 22.769531 18.894531 26.050781 18.664062 26.28125 C 18.664062 26.28125 18.984375 26.78125 18.984375 27.101562 C 18.984375 27.101562 18.894531 27.878906 19.167969 27.878906 L 20.351562 27.878906 C 20.351562 27.878906 19.304688 27.101562 19.625 25.78125 C 19.625 25.78125 19.625 23.820312 19.988281 23.453125 C 19.988281 23.453125 20.261719 25.777344 20.078125 26.464844 C 20.078125 26.464844 20.625 27.054688 20.671875 27.328125 L 20.808594 28.058594 L 22.085938 28.058594 L 21.035156 26.507812 C 21.035156 26.507812 20.753906 24.722656 20.925781 22.984375 Z M 19.289062 21.351562 "/>
<path fill-rule="nonzero" fill="rgb(24.705882%, 24.705882%, 24.705882%)" fill-opacity="1" d="M 19.667969 7.332031 C 20.679688 7.332031 21.496094 6.574219 21.496094 5.636719 C 21.496094 4.699219 20.679688 3.941406 19.667969 3.941406 C 18.660156 3.941406 17.839844 4.699219 17.839844 5.636719 C 17.839844 6.574219 18.660156 7.332031 19.667969 7.332031 Z M 19.667969 7.332031 "/>
</svg>
