<?xml version="1.0" encoding="UTF-8"?>
<svg xmlns="http://www.w3.org/2000/svg" xmlns:xlink="http://www.w3.org/1999/xlink" width="12" height="12" viewBox="0 0 12 12" version="1.1">
<g id="surface1">
<path style=" stroke:none;fill-rule:nonzero;fill:rgb(100%,100%,100%);fill-opacity:1;" d="M 8.167969 11.164062 C 8.679688 11.09375 9.121094 10.945312 9.285156 10.789062 C 9.40625 10.671875 9.398438 10.519531 9.261719 10.402344 C 9.113281 10.269531 9.054688 10.265625 8.78125 10.367188 C 8.34375 10.527344 7.988281 10.585938 7.441406 10.585938 C 6.902344 10.585938 6.585938 10.53125 6.117188 10.359375 C 5.839844 10.261719 5.773438 10.269531 5.621094 10.429688 C 5.363281 10.699219 5.703125 10.96875 6.496094 11.125 C 6.792969 11.183594 7.847656 11.207031 8.167969 11.164062 Z M 4.734375 10.6875 C 4.832031 10.601562 4.863281 10.425781 4.800781 10.328125 C 4.773438 10.289062 4.261719 9.496094 3.453125 9.148438 C 2.054688 8.539062 1.992188 8.324219 1.894531 8.121094 C 1.796875 7.914062 1.890625 7.699219 1.992188 7.578125 C 2.046875 7.507812 2.171875 7.316406 2.507812 7.40625 C 3.058594 7.550781 3.488281 7.375 3.722656 6.878906 C 3.808594 6.695312 3.816406 6.660156 3.816406 6.355469 C 3.8125 5.972656 3.78125 5.863281 3.472656 5.21875 C 3.242188 4.726562 3.195312 4.574219 3.214844 4.335938 C 3.25 3.867188 3.703125 3.4375 4.257812 3.351562 C 4.613281 3.296875 5.050781 3.382812 5.460938 3.589844 C 5.589844 3.652344 5.699219 3.707031 5.707031 3.707031 C 5.710938 3.707031 5.726562 3.644531 5.738281 3.566406 C 5.746094 3.488281 5.789062 3.367188 5.828125 3.296875 C 5.871094 3.226562 5.902344 3.15625 5.902344 3.144531 C 5.902344 3.109375 5.367188 2.882812 5.113281 2.8125 C 4.757812 2.714844 4.195312 2.722656 3.875 2.828125 C 3.101562 3.082031 2.609375 3.703125 2.613281 4.417969 C 2.613281 4.734375 2.667969 4.921875 2.953125 5.535156 C 3.179688 6.015625 3.238281 6.199219 3.238281 6.394531 C 3.238281 6.550781 3.128906 6.757812 3.003906 6.828125 L 2.902344 6.886719 L 2.574219 6.800781 C 2.058594 6.664062 1.800781 6.941406 1.558594 7.164062 C 1.359375 7.351562 1.277344 7.535156 1.261719 7.839844 C 1.246094 8.160156 1.292969 8.316406 1.488281 8.597656 C 1.664062 8.847656 1.957031 9.136719 2.898438 9.554688 C 3.449219 9.796875 3.851562 10.304688 3.964844 10.398438 C 4.339844 10.699219 4.421875 10.753906 4.542969 10.753906 C 4.617188 10.753906 4.683594 10.730469 4.734375 10.6875 Z M 7.855469 10.070312 C 8.679688 9.96875 9.363281 9.589844 9.636719 9.085938 C 9.730469 8.914062 9.734375 8.886719 9.734375 8.605469 C 9.734375 8.339844 9.726562 8.296875 9.652344 8.148438 C 9.433594 7.738281 8.953125 7.128906 8.339844 6.960938 L 8.136719 6.90625 C 8.109375 6.699219 8.09375 6.59375 8.09375 6.519531 L 8.234375 6.519531 C 8.574219 6.519531 8.785156 6.1875 8.632812 5.898438 C 8.558594 5.761719 8.414062 5.691406 8.203125 5.691406 C 8.0625 5.691406 8.035156 5.683594 8.03125 5.636719 C 8.03125 5.609375 8.011719 5.378906 7.996094 5.128906 L 7.960938 4.667969 L 6.945312 4.652344 L 6.925781 4.988281 C 6.917969 5.171875 6.898438 5.402344 6.890625 5.503906 L 6.871094 5.691406 L 6.695312 5.691406 C 6.382812 5.691406 6.203125 5.867188 6.234375 6.148438 C 6.261719 6.375 6.4375 6.519531 6.6875 6.519531 L 6.828125 6.519531 C 6.800781 6.699219 6.800781 6.777344 6.773438 6.902344 C 6.765625 6.910156 6.714844 6.929688 6.652344 6.941406 C 6.257812 7.015625 5.738281 7.566406 5.480469 7.847656 C 5.265625 8.078125 5.160156 8.328125 5.15625 8.605469 C 5.15625 8.792969 5.171875 8.859375 5.246094 9.019531 C 5.53125 9.628906 6.332031 10.039062 7.320312 10.082031 C 7.492188 10.089844 7.734375 10.085938 7.855469 10.070312 Z M 8.433594 4.121094 C 8.464844 4.109375 8.53125 4.054688 8.582031 4.003906 C 8.660156 3.921875 8.671875 3.890625 8.671875 3.738281 C 8.671875 3.585938 8.660156 3.550781 8.585938 3.472656 C 8.441406 3.324219 8.414062 3.320312 7.402344 3.328125 L 6.570312 3.335938 C 6.457031 3.351562 6.40625 3.410156 6.34375 3.460938 C 6.242188 3.570312 6.226562 3.605469 6.226562 3.726562 C 6.226562 3.894531 6.3125 4.039062 6.449219 4.105469 C 6.535156 4.144531 6.679688 4.152344 7.460938 4.148438 C 7.964844 4.148438 8.402344 4.136719 8.433594 4.121094 Z M 8.121094 2.8125 C 8.121094 2.808594 8.050781 2.664062 7.960938 2.496094 L 7.796875 2.1875 L 7.875 2.054688 C 7.917969 1.984375 8.039062 1.816406 8.144531 1.683594 C 8.253906 1.554688 8.371094 1.375 8.410156 1.285156 C 8.5625 0.957031 8.433594 0.882812 7.828125 0.96875 C 7.464844 1.023438 7.429688 1.023438 7.109375 0.972656 C 6.925781 0.945312 6.738281 0.925781 6.695312 0.925781 C 6.574219 0.925781 6.464844 0.988281 6.445312 1.070312 C 6.417969 1.171875 6.570312 1.457031 6.785156 1.714844 C 6.878906 1.824219 6.992188 1.976562 7.035156 2.050781 L 7.113281 2.1875 L 6.953125 2.488281 C 6.863281 2.65625 6.789062 2.796875 6.789062 2.804688 C 6.789062 2.8125 7.089844 2.820312 7.457031 2.820312 C 7.824219 2.820312 8.121094 2.816406 8.121094 2.8125 Z M 8.121094 2.8125 "/>
</g>
</svg>
