<?xml version="1.0" encoding="UTF-8"?>
<svg xmlns="http://www.w3.org/2000/svg" xmlns:xlink="http://www.w3.org/1999/xlink" width="12" height="12" viewBox="0 0 12 12" version="1.1">
<g id="surface1">
<path style=" stroke:none;fill-rule:evenodd;fill:rgb(24.705882%,24.705882%,24.705882%);fill-opacity:1;" d="M 4 3 L 11 3 L 11 8 L 10 8 C 10 8.550781 9.550781 9 9 9 C 8.449219 9 8 8.550781 8 8 L 4 8 C 4 8.550781 3.550781 9 3 9 C 2.449219 9 2 8.550781 2 8 L 1 8 L 1 6 L 2.5 4 L 4 4 Z M 2.25 6 L 4 6 L 4 5 L 3 5 Z M 8.5 8 C 8.5 8.277344 8.722656 8.5 9 8.5 C 9.277344 8.5 9.5 8.277344 9.5 8 C 9.5 7.722656 9.277344 7.5 9 7.5 C 8.722656 7.5 8.5 7.722656 8.5 8 Z M 2.5 8 C 2.5 8.277344 2.722656 8.5 3 8.5 C 3.277344 8.5 3.5 8.277344 3.5 8 C 3.5 7.722656 3.277344 7.5 3 7.5 C 2.722656 7.5 2.5 7.722656 2.5 8 Z M 2.5 8 "/>
</g>
</svg>
