<?xml version="1.0" encoding="UTF-8"?>
<svg xmlns="http://www.w3.org/2000/svg" xmlns:xlink="http://www.w3.org/1999/xlink" width="32" height="32" viewBox="0 0 32 32">
<path fill-rule="nonzero" fill="rgb(100%, 100%, 100%)" fill-opacity="1" stroke-width="20" stroke-linecap="round" stroke-linejoin="round" stroke="rgb(100%, 100%, 100%)" stroke-opacity="1" stroke-miterlimit="4" d="M 383.032227 519.040527 L 331.418457 473.869629 L 401.157227 404.980469 C 375.17334 376.730957 348.977051 348.623047 322.780762 320.585938 C 328.728027 314.992676 334.675293 309.470215 340.693359 303.876953 C 366.252441 332.62207 391.882324 361.367188 417.653809 389.899902 C 423.034668 393.723145 453.549805 364.411621 457.231445 358.88916 L 541.838379 314.284668 C 537.165527 317.612305 499.074707 410.290527 493.056641 415.529785 C 483.781738 423.671875 472.949219 433.371582 461.621094 443.566895 L 479.533691 460.983887 L 465.727539 472.666016 L 448.381348 455.603027 C 423.955078 477.976074 399.033203 501.765137 383.032227 519.040527 Z M 247.873535 240.510254 C 243.625488 235.979004 239.377441 231.447754 235.129395 226.916504 L 111.936035 95.085449 L 135.654297 73.349609 L 255.661621 208.225098 C 259.626465 212.685547 263.520508 217.075195 267.485352 221.535645 C 260.97168 227.836914 254.458008 234.208984 247.873535 240.510254 Z M 247.873535 240.510254 " transform="matrix(0.0551724, 0, 0, 0.0551724, 0, 0)"/>
<path fill-rule="nonzero" fill="rgb(100%, 100%, 100%)" fill-opacity="1" stroke-width="20" stroke-linecap="round" stroke-linejoin="round" stroke="rgb(100%, 100%, 100%)" stroke-opacity="1" stroke-miterlimit="4" d="M 116.04248 442.363281 C 87.580566 413.476562 68.464355 376.660156 44.533691 343.950195 L 97.421875 305.43457 L 154.558105 387.84668 C 161.425781 391.45752 165.88623 382.536621 170.063477 378.571777 C 227.624512 321.506348 284.54834 263.591309 341.896973 206.171875 L 469.125977 78.164062 L 491.640625 101.103516 L 361.296387 225.925293 C 302.814941 282.211914 243.837891 338.00293 185.639648 394.501953 C 181.604004 398.608398 172.683105 402.856445 176.152344 409.794922 L 257.431641 468.48877 L 217.924805 520.598145 C 182.666016 495.888672 146.84082 472.524414 116.04248 442.363281 Z M 116.04248 442.363281 " transform="matrix(0.0551724, 0, 0, 0.0551724, 0, 0)"/>
</svg>
