<?xml version="1.0" encoding="UTF-8"?>
<svg xmlns="http://www.w3.org/2000/svg" xmlns:xlink="http://www.w3.org/1999/xlink" width="32" height="32" viewBox="0 0 32 32">
<path fill-rule="nonzero" fill="rgb(100%, 100%, 100%)" fill-opacity="1" d="M 25.335938 21.851562 L 25.335938 15.128906 L 26.542969 15.128906 L 26.542969 13.679688 L 22.480469 13.679688 L 22.480469 10.195312 L 24.027344 10.195312 L 24.027344 8.746094 L 18.660156 8.746094 L 18.660156 7.535156 L 17.210938 3.570312 L 14.597656 3.570312 L 13.339844 7.535156 L 13.339844 8.746094 L 7.972656 8.746094 L 7.972656 10.195312 L 9.519531 10.195312 L 9.519531 13.679688 L 5.457031 13.679688 L 5.457031 15.128906 L 6.664062 15.128906 L 6.664062 21.851562 L 3.425781 21.851562 L 3.425781 23.304688 L 5.40625 23.304688 L 5.40625 28.429688 L 26.59375 28.429688 L 26.59375 23.304688 L 28.574219 23.304688 L 28.574219 21.851562 Z M 9.160156 19.695312 L 8.332031 19.695312 L 8.332031 17.765625 L 9.160156 17.765625 Z M 11.585938 12.800781 L 10.757812 12.800781 L 10.757812 10.867188 L 11.585938 10.867188 Z M 15.066406 8.441406 L 16.933594 8.441406 L 16.933594 12.800781 L 15.066406 12.800781 Z M 16.410156 17.765625 L 16.410156 19.695312 L 15.582031 19.695312 L 15.582031 17.765625 Z M 15.0625 19.695312 L 14.234375 19.695312 L 14.234375 17.765625 L 15.0625 17.765625 Z M 16.933594 27.863281 L 15.066406 27.863281 L 15.066406 23.503906 L 16.933594 23.503906 Z M 17.683594 19.695312 L 16.855469 19.695312 L 16.855469 17.765625 L 17.683594 17.765625 Z M 21.1875 12.800781 L 20.359375 12.800781 L 20.359375 10.867188 L 21.1875 10.867188 Z M 23.394531 19.695312 L 22.566406 19.695312 L 22.566406 17.765625 L 23.394531 17.765625 Z M 23.394531 19.695312 "/>
</svg>
