<?xml version="1.0" encoding="UTF-8"?>
<svg xmlns="http://www.w3.org/2000/svg" xmlns:xlink="http://www.w3.org/1999/xlink" width="12" height="12" viewBox="0 0 12 12" version="1.1">
<g id="surface1">
<path style=" stroke:none;fill-rule:nonzero;fill:rgb(100%,100%,100%);fill-opacity:1;" d="M 6 1.890625 C 8.246094 1.890625 10.109375 3.753906 10.109375 6 C 10.109375 8.246094 8.246094 10.109375 6 10.109375 C 3.753906 10.109375 1.890625 8.246094 1.890625 6 C 1.890625 3.753906 3.753906 1.890625 6 1.890625 Z M 6 1.339844 C 3.410156 1.339844 1.339844 3.410156 1.339844 6 C 1.339844 8.589844 3.410156 10.660156 6 10.660156 C 8.589844 10.660156 10.660156 8.589844 10.660156 6 C 10.660156 3.410156 8.589844 1.339844 6 1.339844 Z M 6 1.339844 "/>
<path style="fill:none;stroke-width:31.25;stroke-linecap:butt;stroke-linejoin:round;stroke:rgb(100%,100%,100%);stroke-opacity:1;stroke-miterlimit:10;" d="M 290 14.160156 L 290 79.296875 " transform="matrix(0.0206897,0,0,0.0206897,0,0)"/>
<path style="fill:none;stroke-width:31.25;stroke-linecap:butt;stroke-linejoin:round;stroke:rgb(100%,100%,100%);stroke-opacity:1;stroke-miterlimit:10;" d="M 290 506.933594 L 290 565.839844 " transform="matrix(0.0206897,0,0,0.0206897,0,0)"/>
<path style="fill:none;stroke-width:31.25;stroke-linecap:butt;stroke-linejoin:round;stroke:rgb(100%,100%,100%);stroke-opacity:1;stroke-miterlimit:10;" d="M 565.839844 290 L 500.703125 290 " transform="matrix(0.0206897,0,0,0.0206897,0,0)"/>
<path style="fill:none;stroke-width:31.25;stroke-linecap:butt;stroke-linejoin:round;stroke:rgb(100%,100%,100%);stroke-opacity:1;stroke-miterlimit:10;" d="M 74.199219 290 L 14.160156 290 " transform="matrix(0.0206897,0,0,0.0206897,0,0)"/>
<path style=" stroke:none;fill-rule:nonzero;fill:rgb(100%,100%,100%);fill-opacity:1;" d="M 5.058594 2.886719 C 5.058594 3.3125 5.507812 3.03125 7.042969 4.070312 C 7.445312 4.375 7.277344 3.761719 7.277344 3.761719 C 7.277344 3.761719 7.160156 3.503906 6.664062 3.125 C 6.242188 2.816406 5.722656 2.652344 5.390625 2.652344 C 5.273438 2.652344 5.058594 2.699219 5.058594 2.886719 Z M 5.058594 2.886719 "/>
<path style=" stroke:none;fill-rule:nonzero;fill:rgb(100%,100%,100%);fill-opacity:1;" d="M 4.589844 3.429688 C 4.589844 3.996094 5.652344 3.644531 6.832031 4.375 C 7.089844 4.1875 6.996094 3.972656 6.996094 3.972656 C 6.59375 3.738281 5.53125 3.125 5.035156 3.125 C 4.777344 3.125 4.589844 3.289062 4.589844 3.429688 Z M 4.589844 3.429688 "/>
<path style=" stroke:none;fill-rule:nonzero;fill:rgb(100%,100%,100%);fill-opacity:1;" d="M 3.40625 6.949219 C 3.40625 3.597656 6.382812 5.34375 6.5 4.445312 C 6.523438 4.257812 7.75 5.058594 7.820312 5.226562 C 8.222656 5.933594 7.585938 6.121094 7.941406 7.113281 C 8.058594 7.46875 8.035156 7.917969 8.082031 7.988281 C 8.199219 8.152344 8.789062 7.890625 8.789062 8.457031 C 8.789062 8.578125 8.4375 8.554688 7.964844 8.554688 C 7.726562 8.554688 7.042969 7.398438 6.855469 7.136719 C 7.136719 6.429688 6.59375 5.957031 6.097656 5.957031 C 5.722656 5.957031 5.390625 6.359375 5.390625 6.359375 C 6.382812 5.601562 7.042969 6.734375 6.617188 7.253906 C 6.265625 7.726562 5.769531 7.773438 5.460938 7.820312 C 7.230469 7.820312 7.398438 8.222656 7.398438 8.386719 C 7.398438 8.625 6.050781 8.433594 5.390625 8.433594 C 5.082031 8.433594 4.753906 8.507812 4.46875 8.507812 C 4.140625 8.554688 3.878906 8.484375 3.878906 8.316406 C 3.878906 8.058594 3.972656 7.941406 3.855469 7.539062 C 3.691406 7.089844 3.40625 7.113281 3.40625 6.949219 Z M 3.40625 6.949219 "/>
<path style=" stroke:none;fill-rule:nonzero;fill:rgb(100%,100%,100%);fill-opacity:1;" d="M 7.089844 5.554688 C 7.632812 5.839844 8.859375 5.746094 9.027344 5.34375 C 9.214844 4.894531 8.671875 3.996094 8.128906 3.738281 C 7.585938 3.453125 6.832031 3.621094 6.570312 4.164062 C 6.3125 4.683594 6.546875 5.273438 7.089844 5.554688 Z M 7.894531 4.539062 C 7.894531 4.398438 7.988281 4.304688 8.128906 4.304688 C 8.269531 4.304688 8.363281 4.398438 8.363281 4.539062 C 8.363281 4.683594 8.269531 4.777344 8.128906 4.777344 C 7.988281 4.777344 7.894531 4.683594 7.894531 4.539062 Z M 7.894531 4.539062 "/>
<path style=" stroke:none;fill-rule:nonzero;fill:rgb(100%,100%,100%);fill-opacity:1;" d="M 4.117188 7.375 C 4.117188 7.632812 3.667969 7.84375 3.40625 7.84375 C 3.148438 7.84375 2.9375 7.632812 2.9375 7.375 C 2.9375 7.113281 3.148438 6.902344 3.40625 6.902344 C 3.667969 6.902344 4.117188 7.113281 4.117188 7.375 Z M 4.117188 7.375 "/>
</g>
</svg>
