<?xml version="1.0" encoding="UTF-8"?>
<svg xmlns="http://www.w3.org/2000/svg" xmlns:xlink="http://www.w3.org/1999/xlink" width="32" height="32" viewBox="0 0 32 32">
<path fill-rule="nonzero" fill="rgb(100%, 100%, 100%)" fill-opacity="1" d="M 25.332031 2.667969 C 26.070312 2.667969 26.667969 3.265625 26.667969 4 L 26.667969 9.332031 C 26.667969 10.070312 26.070312 10.667969 25.332031 10.667969 L 24 10.667969 L 24 5.332031 L 22.667969 5.332031 L 22.667969 10.667969 L 21.332031 10.667969 L 21.332031 5.332031 L 20 5.332031 L 20 10.667969 L 18.667969 10.667969 L 18.667969 5.332031 L 17.332031 5.332031 L 17.332031 10.667969 L 16 10.667969 L 16 5.332031 L 14.667969 5.332031 L 14.667969 10.667969 L 13.332031 10.667969 L 13.332031 5.332031 L 12 5.332031 L 12 10.667969 L 10.667969 10.667969 L 10.667969 5.332031 L 9.332031 5.332031 L 9.332031 10.667969 L 6.667969 10.667969 C 5.929688 10.667969 5.332031 10.070312 5.332031 9.332031 L 5.332031 4 C 5.332031 3.265625 5.929688 2.667969 6.667969 2.667969 Z M 25.332031 2.667969 "/>
<path fill-rule="evenodd" fill="rgb(100%, 100%, 100%)" fill-opacity="1" d="M 26.503906 27.304688 C 26.152344 27.949219 25.339844 28.1875 24.695312 27.835938 L 15.558594 22.851562 L 13.160156 24.160156 C 13.273438 24.53125 13.332031 24.925781 13.332031 25.332031 C 13.332031 27.542969 11.542969 29.332031 9.332031 29.332031 C 7.125 29.332031 5.332031 27.542969 5.332031 25.332031 C 5.332031 23.125 7.125 21.332031 9.332031 21.332031 C 10.152344 21.332031 10.914062 21.578125 11.546875 22 L 12.773438 21.332031 L 11.546875 20.664062 C 10.914062 21.085938 10.152344 21.332031 9.332031 21.332031 C 7.125 21.332031 5.332031 19.542969 5.332031 17.332031 C 5.332031 15.125 7.125 13.332031 9.332031 13.332031 C 11.542969 13.332031 13.332031 15.125 13.332031 17.332031 C 13.332031 17.742188 13.273438 18.136719 13.160156 18.507812 L 15.558594 19.816406 L 24.695312 14.832031 C 25.339844 14.476562 26.152344 14.714844 26.503906 15.363281 C 26.855469 16.007812 26.617188 16.820312 25.972656 17.171875 L 18.339844 21.332031 L 25.972656 25.496094 C 26.617188 25.847656 26.855469 26.65625 26.503906 27.304688 Z M 8 17.332031 C 8 18.070312 8.597656 18.667969 9.335938 18.667969 C 10.070312 18.667969 10.667969 18.070312 10.667969 17.332031 C 10.667969 16.597656 10.070312 16 9.335938 16 C 8.597656 16 8 16.597656 8 17.332031 Z M 8 25.332031 C 8 24.597656 8.597656 24 9.335938 24 C 10.070312 24 10.667969 24.597656 10.667969 25.332031 C 10.667969 26.070312 10.070312 26.667969 9.335938 26.667969 C 8.597656 26.667969 8 26.070312 8 25.332031 Z M 8 25.332031 "/>
</svg>
