<?xml version="1.0" encoding="UTF-8"?>
<svg xmlns="http://www.w3.org/2000/svg" xmlns:xlink="http://www.w3.org/1999/xlink" width="12" height="12" viewBox="0 0 12 12" version="1.1">
<defs>
<filter id="alpha" filterUnits="objectBoundingBox" x="0%" y="0%" width="100%" height="100%">
  <feColorMatrix type="matrix" in="SourceGraphic" values="0 0 0 0 1 0 0 0 0 1 0 0 0 0 1 0 0 0 1 0"/>
</filter>
<mask id="mask0">
  <g filter="url(#alpha)">
<rect x="0" y="0" width="12" height="12" style="fill:rgb(0%,0%,0%);fill-opacity:0.7;stroke:none;"/>
  </g>
</mask>
<clipPath id="clip1">
  <rect x="0" y="0" width="12" height="12"/>
</clipPath>
<g id="surface5" clip-path="url(#clip1)">
<path style=" stroke:none;fill-rule:nonzero;fill:rgb(100%,100%,100%);fill-opacity:1;" d="M 8.0625 8.054688 L 8.242188 8.617188 L 8.238281 10.042969 L 9.140625 10.046875 L 9.144531 8.621094 L 8.835938 7.644531 C 8.609375 7.832031 8.347656 7.972656 8.0625 8.054688 Z M 8.0625 8.054688 "/>
<path style=" stroke:none;fill-rule:nonzero;fill:rgb(100%,100%,100%);fill-opacity:1;" d="M 4.171875 8.132812 L 4.625 8.132812 L 4.167969 9.082031 L 4.164062 10.980469 L 3.714844 10.980469 L 3.71875 9.082031 Z M 4.171875 8.132812 "/>
</g>
</defs>
<g id="surface1">
<use xlink:href="#surface5" mask="url(#mask0)"/>
<path style=" stroke:none;fill-rule:nonzero;fill:rgb(100%,100%,100%);fill-opacity:1;" d="M 9.164062 1.023438 C 8.3125 1.316406 7.65625 2.03125 7.410156 2.9375 L 7 5 L 3.835938 4.992188 C 3.433594 4.992188 2.964844 4.988281 2.714844 5.277344 L 2.371094 5.277344 C 1.621094 5.277344 1.011719 5.914062 1.011719 6.699219 L 1.003906 8.597656 L 1.457031 8.601562 C 1.707031 8.601562 1.910156 8.386719 1.910156 8.125 L 1.914062 6.703125 C 1.914062 6.4375 2.117188 6.226562 2.367188 6.226562 L 2.355469 10.976562 L 3.261719 10.980469 L 3.265625 8.605469 L 3.722656 7.65625 L 6.433594 7.664062 L 6.425781 10.988281 L 7.332031 10.992188 L 7.339844 7.664062 L 7.3125 7.664062 C 8.113281 7.667969 8.820312 7.117188 9.050781 6.3125 L 9.074219 6.226562 C 9.125 6.050781 9.152344 5.867188 9.152344 5.683594 L 9.152344 4.820312 L 9.15625 3.394531 L 10.515625 3.398438 C 10.632812 3.398438 10.75 3.355469 10.835938 3.269531 C 11.089844 3.03125 11.03125 2.597656 10.726562 2.441406 L 9.160156 1.734375 Z M 9.164062 1.023438 "/>
<path style=" stroke:none;fill-rule:evenodd;fill:rgb(100%,100%,100%);fill-opacity:1;" d="M 1 3 L 6 3 L 6 4 L 1 4 Z M 1 3 "/>
<path style=" stroke:none;fill-rule:evenodd;fill:rgb(100%,100%,100%);fill-opacity:1;" d="M 3.5 -0.402344 L 5.917969 3.222656 C 6.070312 3.453125 6.007812 3.761719 5.777344 3.917969 C 5.546875 4.070312 5.238281 4.007812 5.082031 3.777344 L 3.5 1.402344 L 1.917969 3.777344 C 1.761719 4.007812 1.453125 4.070312 1.222656 3.917969 C 0.992188 3.761719 0.929688 3.453125 1.082031 3.222656 Z M 3.5 -0.402344 "/>
</g>
</svg>
