<?xml version="1.0" encoding="UTF-8"?>
<svg xmlns="http://www.w3.org/2000/svg" xmlns:xlink="http://www.w3.org/1999/xlink" width="32" height="32" viewBox="0 0 32 32">
<defs>
<filter id="filter-remove-color" x="0%" y="0%" width="100%" height="100%">
<feColorMatrix color-interpolation-filters="sRGB" values="0 0 0 0 1 0 0 0 0 1 0 0 0 0 1 0 0 0 1 0" />
</filter>
<mask id="mask-0">
<g filter="url(#filter-remove-color)">
<rect x="-3.2" y="-3.2" width="38.4" height="38.4" fill="rgb(0%, 0%, 0%)" fill-opacity="0.7"/>
</g>
</mask>
<clipPath id="clip-0">
<rect x="0" y="0" width="32" height="32"/>
</clipPath>
<g id="source-8" clip-path="url(#clip-0)">
<path fill-rule="nonzero" fill="rgb(100%, 100%, 100%)" fill-opacity="1" d="M 21.503906 21.484375 L 21.972656 22.980469 L 21.964844 26.78125 L 24.375 26.789062 L 24.386719 22.988281 L 23.566406 20.386719 C 22.960938 20.886719 22.257812 21.261719 21.503906 21.484375 Z M 21.503906 21.484375 "/>
<path fill-rule="nonzero" fill="rgb(100%, 100%, 100%)" fill-opacity="1" d="M 11.125 21.6875 L 12.332031 21.6875 L 11.121094 24.21875 L 11.105469 29.285156 L 9.902344 29.28125 L 9.914062 24.214844 Z M 11.125 21.6875 "/>
</g>
</defs>
<g mask="url(#mask-0)">
<use xlink:href="#source-8"/>
</g>
<path fill-rule="nonzero" fill="rgb(100%, 100%, 100%)" fill-opacity="1" d="M 24.433594 2.726562 C 22.167969 3.511719 20.417969 5.421875 19.757812 7.828125 L 18.667969 13.332031 L 10.226562 13.3125 C 9.15625 13.308594 7.90625 13.300781 7.242188 14.078125 L 6.320312 14.074219 C 4.324219 14.070312 2.699219 15.765625 2.695312 17.863281 L 2.683594 22.929688 L 3.886719 22.933594 C 4.554688 22.933594 5.09375 22.371094 5.097656 21.671875 L 5.105469 17.871094 C 5.109375 17.171875 5.648438 16.605469 6.316406 16.605469 L 6.285156 29.273438 L 8.695312 29.277344 L 8.710938 22.945312 L 9.921875 20.417969 L 17.15625 20.4375 L 17.136719 29.300781 L 19.546875 29.308594 L 19.570312 20.441406 L 19.503906 20.441406 C 21.636719 20.449219 23.519531 18.980469 24.132812 16.832031 L 24.199219 16.601562 C 24.335938 16.132812 24.402344 15.648438 24.40625 15.15625 L 24.410156 12.855469 L 24.417969 9.058594 L 28.035156 9.066406 C 28.355469 9.066406 28.664062 8.941406 28.898438 8.71875 C 29.570312 8.078125 29.417969 6.929688 28.601562 6.511719 L 24.429688 4.625 Z M 24.433594 2.726562 "/>
<path fill-rule="evenodd" fill="rgb(100%, 100%, 100%)" fill-opacity="1" d="M 2.667969 8 L 16 8 L 16 10.667969 L 2.667969 10.667969 Z M 2.667969 8 "/>
<path fill-rule="evenodd" fill="rgb(100%, 100%, 100%)" fill-opacity="1" d="M 9.332031 -1.070312 L 15.777344 8.59375 C 16.183594 9.207031 16.019531 10.035156 15.40625 10.441406 C 14.792969 10.851562 13.964844 10.6875 13.558594 10.074219 L 9.332031 3.738281 L 5.109375 10.074219 C 4.699219 10.6875 3.875 10.851562 3.261719 10.441406 C 2.648438 10.035156 2.480469 9.207031 2.890625 8.59375 Z M 9.332031 -1.070312 "/>
</svg>
