<?xml version="1.0" encoding="UTF-8"?>
<svg xmlns="http://www.w3.org/2000/svg" xmlns:xlink="http://www.w3.org/1999/xlink" width="12" height="12" viewBox="0 0 12 12" version="1.1">
<g id="surface1">
<path style=" stroke:none;fill-rule:evenodd;fill:rgb(100%,100%,100%);fill-opacity:1;" d="M 6.054688 0.828125 C 6.015625 0.824219 5.976562 0.824219 5.9375 0.828125 C 5.742188 0.839844 5.554688 0.898438 5.386719 1 C 5.222656 1.101562 5.085938 1.242188 4.988281 1.410156 L 0.542969 9.105469 C 0.441406 9.28125 0.386719 9.480469 0.386719 9.6875 C 0.386719 9.890625 0.441406 10.09375 0.542969 10.269531 C 0.644531 10.445312 0.792969 10.59375 0.96875 10.695312 C 1.148438 10.796875 1.347656 10.851562 1.554688 10.851562 L 10.445312 10.859375 C 10.648438 10.859375 10.851562 10.804688 11.027344 10.703125 C 11.207031 10.601562 11.351562 10.453125 11.457031 10.277344 C 11.558594 10.101562 11.613281 9.898438 11.613281 9.695312 C 11.613281 9.488281 11.558594 9.289062 11.457031 9.109375 L 7.007812 1.410156 C 6.910156 1.238281 6.769531 1.097656 6.605469 0.996094 C 6.4375 0.894531 6.25 0.835938 6.054688 0.828125 Z M 6.054688 1.789062 C 6.222656 1.789062 6.417969 2.164062 6.417969 2.164062 L 10.511719 9.253906 C 10.511719 9.253906 10.664062 9.574219 10.578125 9.730469 C 10.488281 9.886719 10.238281 9.898438 10.238281 9.898438 L 1.953125 9.890625 C 1.953125 9.890625 1.636719 9.890625 1.550781 9.746094 C 1.460938 9.597656 1.5625 9.3125 1.5625 9.3125 L 5.703125 2.140625 C 5.703125 2.140625 5.882812 1.785156 6.054688 1.789062 Z M 6.054688 1.789062 "/>
<path style=" stroke:none;fill-rule:nonzero;fill:rgb(100%,100%,100%);fill-opacity:1;" d="M 6.675781 4.535156 C 6.675781 4.558594 6.664062 4.683594 6.644531 4.902344 L 6.378906 7.691406 L 5.621094 7.691406 L 5.355469 4.894531 C 5.355469 4.859375 5.347656 4.804688 5.335938 4.726562 C 5.328125 4.644531 5.324219 4.578125 5.324219 4.535156 C 5.324219 4.367188 5.378906 4.210938 5.488281 4.074219 C 5.597656 3.933594 5.769531 3.863281 6.003906 3.863281 C 6.453125 3.863281 6.675781 4.085938 6.675781 4.535156 Z M 6.363281 8.226562 C 6.464844 8.328125 6.515625 8.449219 6.515625 8.589844 C 6.515625 8.734375 6.464844 8.851562 6.363281 8.949219 C 6.261719 9.042969 6.136719 9.089844 5.996094 9.089844 C 5.871094 9.089844 5.753906 9.039062 5.644531 8.941406 C 5.542969 8.839844 5.492188 8.722656 5.492188 8.589844 C 5.492188 8.449219 5.539062 8.328125 5.636719 8.226562 C 5.734375 8.117188 5.855469 8.0625 6.003906 8.0625 C 6.144531 8.0625 6.265625 8.117188 6.363281 8.226562 Z M 6.363281 8.226562 "/>
</g>
</svg>
