<?xml version="1.0" encoding="UTF-8"?>
<svg xmlns="http://www.w3.org/2000/svg" xmlns:xlink="http://www.w3.org/1999/xlink" width="12" height="12" viewBox="0 0 12 12" version="1.1">
<g id="surface1">
<path style=" stroke:none;fill-rule:nonzero;fill:rgb(100%,100%,100%);fill-opacity:1;" d="M 6 2 L 12 7 L 6 6 L 0 7 Z M 6 2 "/>
<path style=" stroke:none;fill-rule:nonzero;fill:rgb(100%,100%,100%);fill-opacity:1;" d="M 7 8 C 7 8.550781 6.550781 9 6 9 C 5.449219 9 5 8.550781 5 8 C 5 7.449219 5.449219 7 6 7 C 6.550781 7 7 7.449219 7 8 Z M 7 8 "/>
<path style=" stroke:none;fill-rule:evenodd;fill:rgb(87.058824%,87.058824%,87.058824%);fill-opacity:1;" d="M 6 3.742188 L 9.875 8.171875 C 10.058594 8.378906 10.035156 8.695312 9.828125 8.875 C 9.621094 9.058594 9.304688 9.035156 9.125 8.828125 L 6 5.257812 L 2.875 8.828125 C 2.695312 9.035156 2.378906 9.058594 2.171875 8.875 C 1.964844 8.695312 1.941406 8.378906 2.125 8.171875 Z M 6 3.742188 "/>
<path style=" stroke:none;fill-rule:evenodd;fill:rgb(87.058824%,87.058824%,87.058824%);fill-opacity:1;" d="M 2 8.5 C 2 8.222656 2.222656 8 2.5 8 L 3.5 8 C 3.777344 8 4 8.222656 4 8.5 C 4 8.777344 3.777344 9 3.5 9 L 2.5 9 C 2.222656 9 2 8.777344 2 8.5 Z M 2 8.5 "/>
<path style=" stroke:none;fill-rule:evenodd;fill:rgb(87.058824%,87.058824%,87.058824%);fill-opacity:1;" d="M 8 8.5 C 8 8.222656 8.222656 8 8.5 8 L 9.5 8 C 9.777344 8 10 8.222656 10 8.5 C 10 8.777344 9.777344 9 9.5 9 L 8.5 9 C 8.222656 9 8 8.777344 8 8.5 Z M 8 8.5 "/>
</g>
</svg>
