<svg width="12" height="12" viewBox="0 0 580 580" fill="none" xmlns="http://www.w3.org/2000/svg">
<path d="M459.2 396.08V274.218H481.119V247.918H407.475V184.797H435.53V158.496H338.217V136.58L311.915 64.6899H264.576L241.782 136.579V158.496H144.469V184.797H172.523V247.918H98.8805V274.218H120.798V396.08H62.0605V422.38H98.0045V515.31H481.995V422.38H517.94V396.08H459.2ZM166 357H151V322H166V357ZM210 232H195V197H210V232ZM273.071 153H306.928V232H273.071V153ZM297.427 322V357H282.427V322H297.427ZM273 357H258V322H273V357ZM306.929 505H273.072V426H306.929V505ZM320.5 357H305.5V322H320.5V357ZM384 232H369V197H384V232ZM424 357H409V322H424V357Z" fill="#ffffff"/>
</svg>
