<?xml version="1.0" encoding="UTF-8"?>
<svg xmlns="http://www.w3.org/2000/svg" xmlns:xlink="http://www.w3.org/1999/xlink" width="12" height="12" viewBox="0 0 12 12" version="1.1">
<g id="surface1">
<path style=" stroke:none;fill-rule:nonzero;fill:rgb(100%,100%,100%);fill-opacity:1;" d="M 4.074219 5.304688 L 3.421875 6.785156 C 3.40625 6.820312 3.367188 6.84375 3.320312 6.84375 L 2.988281 6.84375 C 2.945312 6.84375 2.902344 6.820312 2.886719 6.785156 L 2.578125 6.078125 C 2.546875 6.007812 2.519531 5.941406 2.496094 5.875 C 2.46875 5.949219 2.4375 6.015625 2.410156 6.082031 L 2.082031 6.785156 C 2.066406 6.820312 2.027344 6.84375 1.980469 6.84375 L 1.648438 6.84375 C 1.601562 6.84375 1.5625 6.820312 1.546875 6.78125 L 0.9375 5.300781 C 0.925781 5.273438 0.929688 5.242188 0.949219 5.214844 C 0.972656 5.191406 1.003906 5.175781 1.039062 5.175781 L 1.414062 5.175781 C 1.460938 5.175781 1.503906 5.203125 1.515625 5.242188 L 1.785156 5.992188 C 1.808594 6.054688 1.828125 6.117188 1.847656 6.171875 C 1.871094 6.117188 1.894531 6.054688 1.921875 5.992188 L 2.253906 5.234375 C 2.269531 5.199219 2.308594 5.175781 2.351562 5.175781 L 2.664062 5.175781 C 2.707031 5.175781 2.75 5.199219 2.765625 5.238281 L 3.078125 5.976562 C 3.105469 6.042969 3.128906 6.105469 3.152344 6.164062 C 3.171875 6.109375 3.195312 6.046875 3.21875 5.980469 L 3.507812 5.238281 C 3.523438 5.199219 3.566406 5.175781 3.609375 5.175781 L 3.972656 5.175781 C 4.007812 5.175781 4.042969 5.191406 4.0625 5.214844 C 4.082031 5.242188 4.085938 5.273438 4.074219 5.304688 Z M 7.570312 5.304688 L 6.917969 6.785156 C 6.902344 6.820312 6.859375 6.84375 6.816406 6.84375 L 6.480469 6.84375 C 6.4375 6.84375 6.398438 6.820312 6.382812 6.785156 L 6.074219 6.078125 C 6.042969 6.007812 6.015625 5.941406 5.988281 5.875 C 5.960938 5.949219 5.929688 6.015625 5.902344 6.082031 L 5.574219 6.785156 C 5.558594 6.820312 5.519531 6.84375 5.476562 6.84375 L 5.140625 6.84375 C 5.097656 6.84375 5.054688 6.820312 5.039062 6.78125 L 4.429688 5.300781 C 4.417969 5.273438 4.421875 5.242188 4.445312 5.214844 C 4.464844 5.191406 4.496094 5.175781 4.53125 5.175781 L 4.90625 5.175781 C 4.953125 5.175781 4.996094 5.203125 5.011719 5.242188 L 5.277344 5.992188 C 5.300781 6.054688 5.320312 6.117188 5.339844 6.171875 C 5.363281 6.117188 5.390625 6.054688 5.417969 5.992188 L 5.746094 5.234375 C 5.761719 5.199219 5.800781 5.175781 5.847656 5.175781 L 6.15625 5.175781 C 6.203125 5.175781 6.242188 5.199219 6.257812 5.238281 L 6.570312 5.976562 C 6.597656 6.042969 6.625 6.105469 6.644531 6.164062 C 6.667969 6.109375 6.6875 6.046875 6.714844 5.980469 L 7.003906 5.238281 C 7.015625 5.199219 7.058594 5.175781 7.105469 5.175781 L 7.46875 5.175781 C 7.503906 5.175781 7.535156 5.191406 7.554688 5.214844 C 7.578125 5.242188 7.582031 5.273438 7.570312 5.304688 Z M 11.0625 5.304688 L 10.410156 6.785156 C 10.394531 6.820312 10.355469 6.84375 10.308594 6.84375 L 9.976562 6.84375 C 9.933594 6.84375 9.890625 6.820312 9.875 6.785156 L 9.566406 6.078125 C 9.535156 6.007812 9.507812 5.941406 9.484375 5.875 C 9.453125 5.949219 9.425781 6.015625 9.394531 6.082031 L 9.070312 6.785156 C 9.050781 6.820312 9.011719 6.84375 8.96875 6.84375 L 8.636719 6.84375 C 8.589844 6.84375 8.550781 6.820312 8.535156 6.78125 L 7.925781 5.300781 C 7.914062 5.273438 7.917969 5.242188 7.9375 5.214844 C 7.957031 5.191406 7.992188 5.175781 8.027344 5.175781 L 8.402344 5.175781 C 8.449219 5.175781 8.492188 5.203125 8.503906 5.242188 L 8.773438 5.992188 C 8.792969 6.054688 8.816406 6.117188 8.835938 6.171875 C 8.859375 6.117188 8.882812 6.054688 8.910156 5.992188 L 9.238281 5.234375 C 9.257812 5.199219 9.296875 5.175781 9.339844 5.175781 L 9.648438 5.175781 C 9.695312 5.175781 9.734375 5.199219 9.75 5.238281 L 10.0625 5.976562 C 10.09375 6.042969 10.117188 6.105469 10.140625 6.164062 C 10.160156 6.109375 10.183594 6.046875 10.207031 5.980469 L 10.496094 5.238281 C 10.511719 5.199219 10.550781 5.175781 10.597656 5.175781 L 10.960938 5.175781 C 10.996094 5.175781 11.03125 5.191406 11.050781 5.214844 C 11.070312 5.242188 11.074219 5.273438 11.0625 5.304688 Z M 11.0625 5.304688 "/>
<path style=" stroke:none;fill-rule:nonzero;fill:rgb(100%,100%,100%);fill-opacity:1;" d="M 1.96875 4.433594 C 2.082031 4.152344 2.21875 3.886719 2.382812 3.636719 C 2.410156 3.640625 2.429688 3.648438 2.457031 3.648438 L 3.191406 3.648438 C 3.113281 3.898438 3.054688 4.164062 3 4.433594 L 3.804688 4.433594 C 3.867188 4.160156 3.9375 3.894531 4.027344 3.648438 L 7.9375 3.648438 C 8.027344 3.894531 8.097656 4.160156 8.15625 4.433594 L 8.960938 4.433594 C 8.910156 4.164062 8.847656 3.898438 8.769531 3.648438 L 9.503906 3.648438 C 9.53125 3.648438 9.554688 3.640625 9.578125 3.636719 C 9.742188 3.886719 9.882812 4.152344 9.992188 4.433594 L 10.824219 4.433594 C 10.160156 2.390625 8.242188 0.910156 5.980469 0.910156 C 3.722656 0.910156 1.800781 2.390625 1.140625 4.433594 Z M 8.929688 2.867188 L 8.464844 2.867188 C 8.363281 2.65625 8.25 2.457031 8.128906 2.273438 C 8.417969 2.441406 8.6875 2.640625 8.929688 2.867188 Z M 5.980469 1.691406 C 6.589844 1.691406 7.148438 2.144531 7.570312 2.867188 L 4.390625 2.867188 C 4.8125 2.144531 5.375 1.691406 5.980469 1.691406 Z M 3.832031 2.273438 C 3.710938 2.457031 3.601562 2.65625 3.5 2.867188 L 3.035156 2.867188 C 3.277344 2.640625 3.542969 2.441406 3.832031 2.273438 Z M 3.832031 2.273438 "/>
<path style=" stroke:none;fill-rule:nonzero;fill:rgb(100%,100%,100%);fill-opacity:1;" d="M 9.992188 7.566406 C 9.882812 7.847656 9.742188 8.113281 9.578125 8.363281 C 9.554688 8.359375 9.53125 8.351562 9.503906 8.351562 L 8.769531 8.351562 C 8.847656 8.101562 8.90625 7.835938 8.960938 7.566406 L 8.15625 7.566406 C 8.097656 7.839844 8.023438 8.105469 7.9375 8.351562 L 4.027344 8.351562 C 3.9375 8.105469 3.867188 7.839844 3.804688 7.566406 L 3 7.566406 C 3.054688 7.835938 3.117188 8.101562 3.195312 8.351562 L 2.457031 8.351562 C 2.429688 8.351562 2.410156 8.359375 2.382812 8.363281 C 2.21875 8.113281 2.082031 7.847656 1.96875 7.566406 L 1.140625 7.566406 C 1.800781 9.609375 3.722656 11.089844 5.980469 11.089844 C 8.242188 11.089844 10.160156 9.609375 10.824219 7.566406 Z M 3.035156 9.132812 L 3.5 9.132812 C 3.601562 9.34375 3.710938 9.542969 3.832031 9.726562 C 3.542969 9.558594 3.277344 9.359375 3.035156 9.132812 Z M 5.980469 10.308594 C 5.375 10.308594 4.8125 9.855469 4.390625 9.132812 L 7.570312 9.132812 C 7.148438 9.855469 6.589844 10.308594 5.980469 10.308594 Z M 8.128906 9.726562 C 8.25 9.542969 8.363281 9.34375 8.464844 9.132812 L 8.929688 9.132812 C 8.6875 9.359375 8.417969 9.558594 8.128906 9.726562 Z M 8.128906 9.726562 "/>
</g>
</svg>
