<?xml version="1.0" encoding="UTF-8"?>
<svg xmlns="http://www.w3.org/2000/svg" xmlns:xlink="http://www.w3.org/1999/xlink" width="32" height="32" viewBox="0 0 32 32">
<path fill-rule="nonzero" fill="rgb(100%, 100%, 100%)" fill-opacity="1" d="M 24.566406 4.402344 C 26.238281 4.402344 27.597656 5.761719 27.597656 7.433594 L 27.597656 24.566406 C 27.597656 26.238281 26.238281 27.597656 24.566406 27.597656 L 7.433594 27.597656 C 5.761719 27.597656 4.402344 26.238281 4.402344 24.566406 L 4.402344 7.433594 C 4.402344 5.761719 5.761719 4.402344 7.433594 4.402344 Z M 24.566406 2.292969 L 7.433594 2.292969 C 4.59375 2.292969 2.292969 4.59375 2.292969 7.433594 L 2.292969 24.566406 C 2.292969 27.40625 4.59375 29.707031 7.433594 29.707031 L 24.566406 29.707031 C 27.40625 29.707031 29.707031 27.40625 29.707031 24.566406 L 29.707031 7.433594 C 29.707031 4.59375 27.40625 2.292969 24.566406 2.292969 Z M 24.566406 2.292969 "/>
<path fill-rule="nonzero" fill="rgb(100%, 100%, 100%)" fill-opacity="1" d="M 23.378906 11.78125 L 19.164062 11.78125 L 19.164062 9.671875 C 19.164062 9.089844 18.691406 8.621094 18.109375 8.621094 L 13.890625 8.621094 C 13.308594 8.621094 12.835938 9.089844 12.835938 9.671875 L 12.835938 11.78125 L 8.621094 11.78125 C 8.035156 11.78125 7.566406 12.253906 7.566406 12.835938 L 7.566406 22.328125 C 7.566406 22.910156 8.035156 23.378906 8.621094 23.378906 L 10.726562 23.378906 L 10.726562 19.691406 C 10.726562 19.398438 10.964844 19.164062 11.253906 19.164062 C 11.546875 19.164062 11.78125 19.398438 11.78125 19.691406 L 11.78125 23.378906 L 13.890625 23.378906 L 13.890625 19.691406 C 13.890625 19.398438 14.128906 19.164062 14.417969 19.164062 C 14.710938 19.164062 14.945312 19.398438 14.945312 19.691406 L 14.945312 23.378906 L 17.054688 23.378906 L 17.054688 19.691406 C 17.054688 19.398438 17.289062 19.164062 17.582031 19.164062 C 17.871094 19.164062 18.109375 19.398438 18.109375 19.691406 L 18.109375 23.378906 L 20.21875 23.378906 L 20.21875 19.691406 C 20.21875 19.398438 20.453125 19.164062 20.746094 19.164062 C 21.035156 19.164062 21.273438 19.398438 21.273438 19.691406 L 21.273438 23.378906 L 23.378906 23.378906 C 23.964844 23.378906 24.433594 22.910156 24.433594 22.328125 L 24.433594 12.835938 C 24.433594 12.253906 23.964844 11.78125 23.378906 11.78125 Z M 23.378906 11.78125 "/>
</svg>
