<?xml version="1.0" encoding="UTF-8"?>
<svg xmlns="http://www.w3.org/2000/svg" xmlns:xlink="http://www.w3.org/1999/xlink" width="12" height="12" viewBox="0 0 12 12" version="1.1">
<g id="surface1">
<path style=" stroke:none;fill-rule:nonzero;fill:rgb(34.901962%,22.352941%,2.352941%);fill-opacity:1;" d="M 2.402344 1.972656 C 2.402344 1.710938 2.488281 1.492188 2.65625 1.324219 C 2.828125 1.15625 3.046875 1.074219 3.316406 1.074219 C 3.601562 1.074219 3.839844 1.164062 4.03125 1.339844 C 4.222656 1.519531 4.316406 1.71875 4.316406 1.941406 C 4.316406 2.109375 4.277344 2.273438 4.203125 2.441406 C 4.128906 2.605469 4.007812 2.738281 3.84375 2.839844 C 3.679688 2.9375 3.515625 2.988281 3.34375 2.988281 C 3.109375 2.988281 2.894531 2.886719 2.695312 2.6875 C 2.5 2.488281 2.402344 2.25 2.402344 1.972656 Z M 1.378906 10.691406 L 1.363281 10.21875 L 2.1875 10.109375 C 2.3125 10.074219 2.394531 10.023438 2.441406 9.957031 C 2.488281 9.890625 2.511719 9.746094 2.511719 9.515625 L 2.511719 9.433594 C 2.511719 9.375 2.515625 9.269531 2.523438 9.117188 C 2.527344 8.964844 2.53125 8.828125 2.53125 8.710938 C 2.53125 8.617188 2.523438 8.441406 2.511719 8.179688 L 2.519531 7.8125 L 2.511719 7.46875 L 2.523438 6.277344 C 2.523438 6.125 2.511719 5.96875 2.480469 5.808594 C 2.429688 5.738281 2.332031 5.671875 2.1875 5.621094 C 2.046875 5.566406 1.800781 5.527344 1.449219 5.503906 L 1.449219 5.09375 C 1.953125 5.0625 2.394531 4.960938 2.773438 4.777344 C 3.03125 4.664062 3.3125 4.457031 3.613281 4.15625 L 4.105469 4.15625 C 4.125 4.761719 4.132812 5.546875 4.132812 6.511719 L 4.082031 9.492188 C 4.082031 9.699219 4.09375 9.882812 4.113281 10.050781 C 4.261719 10.101562 4.507812 10.15625 4.851562 10.210938 C 4.980469 10.230469 5.085938 10.253906 5.164062 10.28125 L 5.15625 10.683594 C 5.023438 10.691406 4.925781 10.691406 4.863281 10.691406 C 4.792969 10.691406 4.679688 10.6875 4.527344 10.679688 C 4.03125 10.652344 3.367188 10.640625 2.53125 10.640625 C 2.292969 10.640625 2.0625 10.648438 1.839844 10.667969 C 1.613281 10.683594 1.460938 10.691406 1.378906 10.691406 Z M 1.378906 10.691406 "/>
<path style=" stroke:none;fill-rule:nonzero;fill:rgb(34.901962%,22.352941%,2.352941%);fill-opacity:1;" d="M 10.613281 2.375 L 6.125 2.375 C 5.996094 2.375 5.894531 2.476562 5.894531 2.605469 L 5.894531 10.402344 C 5.894531 10.527344 5.996094 10.632812 6.125 10.632812 L 10.613281 10.632812 C 10.738281 10.632812 10.84375 10.527344 10.84375 10.402344 L 10.84375 2.605469 C 10.84375 2.476562 10.738281 2.375 10.613281 2.375 Z M 6.511719 2.984375 L 10.226562 2.984375 L 10.226562 5.300781 L 6.511719 5.300781 Z M 6.308594 6.503906 L 6.507812 5.570312 L 10.222656 5.570312 L 10.429688 6.503906 Z M 6.308594 6.503906 "/>
</g>
</svg>
