<?xml version="1.0" encoding="UTF-8"?>
<svg xmlns="http://www.w3.org/2000/svg" xmlns:xlink="http://www.w3.org/1999/xlink" width="32" height="32" viewBox="0 0 32 32">
<defs>
<filter id="filter-remove-color" x="0%" y="0%" width="100%" height="100%">
<feColorMatrix color-interpolation-filters="sRGB" values="0 0 0 0 1 0 0 0 0 1 0 0 0 0 1 0 0 0 1 0" />
</filter>
<mask id="mask-0">
<g filter="url(#filter-remove-color)">
<rect x="-3.2" y="-3.2" width="38.4" height="38.4" fill="rgb(0%, 0%, 0%)" fill-opacity="0.811"/>
</g>
</mask>
<clipPath id="clip-0">
<rect x="0" y="0" width="32" height="32"/>
</clipPath>
<g id="source-7" clip-path="url(#clip-0)">
<path fill-rule="nonzero" fill="rgb(24.705882%, 24.705882%, 24.705882%)" fill-opacity="1" d="M 15.539062 8.753906 L 14.84375 9.167969 C 14.84375 9.167969 14.253906 13.15625 15.28125 16.589844 C 15.691406 16.566406 16.101562 16.554688 16.515625 16.554688 C 16.609375 16.558594 16.699219 16.558594 16.789062 16.5625 C 17.144531 16.570312 17.496094 16.59375 17.84375 16.628906 C 17.128906 15.230469 16.519531 12.746094 16.4375 9.167969 Z M 15.539062 8.753906 "/>
</g>
<mask id="mask-1">
<g filter="url(#filter-remove-color)">
<rect x="-3.2" y="-3.2" width="38.4" height="38.4" fill="rgb(0%, 0%, 0%)" fill-opacity="0.821"/>
</g>
</mask>
<clipPath id="clip-1">
<rect x="0" y="0" width="32" height="32"/>
</clipPath>
<g id="source-11" clip-path="url(#clip-1)">
<path fill-rule="evenodd" fill="rgb(24.705882%, 24.705882%, 24.705882%)" fill-opacity="1" d="M 28.976562 23.242188 C 28.75 23.304688 28.460938 23.292969 28.078125 23.210938 C 27.691406 23.125 27.339844 22.710938 26.699219 22.738281 C 26.039062 22.761719 25.109375 23.351562 24.210938 23.351562 C 23.300781 23.332031 22.277344 22.714844 21.347656 22.714844 C 20.417969 22.71875 19.578125 23.363281 18.6875 23.382812 C 17.78125 23.382812 16.882812 22.78125 15.996094 22.769531 C 15.097656 22.746094 14.246094 23.300781 13.40625 23.296875 C 12.578125 23.28125 11.84375 22.6875 11.023438 22.714844 C 10.183594 22.746094 9.257812 23.398438 8.433594 23.4375 C 7.605469 23.449219 6.851562 22.832031 6.117188 22.824219 C 5.378906 22.8125 4.550781 23.277344 4.050781 23.382812 C 3.550781 23.480469 3.234375 23.480469 3.117188 23.40625 L 3.117188 25.132812 C 3.234375 25.207031 3.550781 25.210938 4.050781 25.109375 C 4.550781 25.003906 5.378906 24.539062 6.117188 24.550781 C 6.851562 24.558594 7.605469 25.175781 8.433594 25.164062 C 9.257812 25.125 10.183594 24.472656 11.023438 24.441406 C 11.84375 24.414062 12.578125 25.007812 13.40625 25.023438 C 14.246094 25.03125 15.097656 24.472656 15.996094 24.496094 C 16.882812 24.507812 17.78125 25.109375 18.6875 25.109375 C 19.578125 25.089844 20.417969 24.445312 21.347656 24.441406 C 22.277344 24.441406 23.300781 25.058594 24.210938 25.078125 C 25.109375 25.078125 26.039062 24.488281 26.699219 24.464844 C 27.339844 24.441406 27.691406 24.855469 28.078125 24.941406 C 28.460938 25.023438 28.75 25.035156 28.976562 24.96875 Z M 28.976562 23.242188 "/>
</g>
<mask id="mask-2">
<g filter="url(#filter-remove-color)">
<rect x="-3.2" y="-3.2" width="38.4" height="38.4" fill="rgb(0%, 0%, 0%)" fill-opacity="0.821"/>
</g>
</mask>
<clipPath id="clip-2">
<rect x="0" y="0" width="32" height="32"/>
</clipPath>
<g id="source-15" clip-path="url(#clip-2)">
<path fill-rule="evenodd" fill="rgb(24.705882%, 24.705882%, 24.705882%)" fill-opacity="1" d="M 28.882812 26.597656 C 28.65625 26.660156 28.367188 26.652344 27.988281 26.570312 C 27.601562 26.484375 27.246094 26.066406 26.605469 26.097656 C 25.945312 26.121094 25.015625 26.710938 24.117188 26.710938 C 23.207031 26.691406 22.183594 26.070312 21.253906 26.070312 C 20.328125 26.078125 19.484375 26.71875 18.59375 26.738281 C 17.691406 26.742188 16.789062 26.140625 15.902344 26.125 C 15.003906 26.101562 14.152344 26.660156 13.3125 26.652344 C 12.484375 26.636719 11.75 26.042969 10.929688 26.070312 C 10.089844 26.101562 9.164062 26.753906 8.339844 26.792969 C 7.511719 26.808594 6.757812 26.1875 6.027344 26.183594 C 5.285156 26.167969 4.457031 26.632812 3.957031 26.738281 C 3.457031 26.839844 3.144531 26.835938 3.023438 26.765625 L 3.023438 28.492188 C 3.144531 28.5625 3.457031 28.566406 3.957031 28.464844 C 4.457031 28.363281 5.285156 27.894531 6.027344 27.910156 C 6.757812 27.914062 7.511719 28.535156 8.339844 28.523438 C 9.164062 28.480469 10.089844 27.832031 10.929688 27.796875 C 11.75 27.773438 12.484375 28.363281 13.3125 28.382812 C 14.152344 28.386719 15.003906 27.832031 15.902344 27.851562 C 16.789062 27.867188 17.691406 28.46875 18.59375 28.464844 C 19.484375 28.445312 20.328125 27.804688 21.253906 27.796875 C 22.183594 27.796875 23.207031 28.417969 24.117188 28.4375 C 25.015625 28.4375 25.945312 27.847656 26.605469 27.824219 C 27.246094 27.800781 27.601562 28.210938 27.988281 28.300781 C 28.367188 28.382812 28.65625 28.394531 28.882812 28.324219 Z M 28.882812 26.597656 "/>
</g>
</defs>
<path fill-rule="nonzero" fill="rgb(24.705882%, 24.705882%, 24.705882%)" fill-opacity="1" d="M 15.605469 4.726562 C 15.605469 4.726562 10.546875 0.917969 9.648438 6.875 C 12.140625 4.796875 14.566406 5.558594 14.984375 6.460938 C 13.25 5.835938 6.179688 7.917969 10.617188 13.667969 C 10.753906 10.132812 13.527344 7.847656 15.605469 7.707031 C 17.132812 7.917969 20.527344 9.300781 21.082031 13.738281 C 23.925781 7.847656 19.902344 5.769531 16.992188 6.113281 C 18.242188 4.867188 21.152344 5.144531 22.050781 7.429688 C 22.261719 4.105469 19.351562 1.957031 15.605469 4.726562 Z M 15.605469 4.726562 "/>
<g mask="url(#mask-0)">
<use xlink:href="#source-7"/>
</g>
<g mask="url(#mask-1)">
<use xlink:href="#source-11"/>
</g>
<g mask="url(#mask-2)">
<use xlink:href="#source-15"/>
</g>
<path fill-rule="evenodd" fill="rgb(24.705882%, 24.705882%, 24.705882%)" fill-opacity="1" d="M 16.5 17.800781 C 12.445312 17.769531 8.46875 19.527344 6.925781 21.429688 C 7.292969 21.527344 7.585938 21.660156 7.800781 21.746094 C 8.125 21.878906 8.355469 21.925781 8.386719 21.929688 C 8.425781 21.921875 8.777344 21.832031 9.175781 21.675781 C 9.605469 21.507812 10.195312 21.246094 10.964844 21.214844 C 10.96875 21.214844 10.96875 21.214844 10.96875 21.214844 C 10.972656 21.214844 10.972656 21.214844 10.976562 21.214844 C 11.753906 21.191406 12.355469 21.441406 12.742188 21.585938 C 13.117188 21.730469 13.386719 21.792969 13.425781 21.796875 C 13.484375 21.792969 13.8125 21.730469 14.226562 21.597656 C 14.65625 21.460938 15.265625 21.253906 16.027344 21.269531 C 16.785156 21.285156 17.382812 21.515625 17.8125 21.660156 C 18.234375 21.804688 18.566406 21.875 18.667969 21.878906 C 18.742188 21.875 19.058594 21.796875 19.476562 21.640625 C 19.910156 21.476562 20.539062 21.21875 21.335938 21.214844 C 21.339844 21.214844 21.34375 21.214844 21.347656 21.214844 C 22.132812 21.214844 22.765625 21.445312 23.246094 21.597656 C 23.714844 21.75 24.117188 21.84375 24.226562 21.851562 C 24.332031 21.847656 24.667969 21.773438 25.046875 21.640625 C 25.25 21.570312 25.492188 21.464844 25.785156 21.382812 C 23.871094 19.835938 20.523438 17.902344 16.746094 17.804688 C 16.664062 17.804688 16.582031 17.800781 16.5 17.800781 Z M 16.5 17.800781 "/>
</svg>
