<?xml version="1.0" encoding="UTF-8"?>
<svg xmlns="http://www.w3.org/2000/svg" xmlns:xlink="http://www.w3.org/1999/xlink" width="12" height="12" viewBox="0 0 12 12" version="1.1">
<g id="surface1">
<path style=" stroke:none;fill-rule:nonzero;fill:rgb(100%,100%,100%);fill-opacity:1;" d="M 5.675781 6.46875 C 5.628906 6.285156 5.5625 6.125 5.378906 4.714844 C 5.195312 3.300781 5.878906 1.914062 6.0625 1.503906 C 6.246094 1.09375 5.925781 0.910156 5.46875 0.796875 C 5.015625 0.683594 4.945312 1.25 4.945312 1.25 C 4.398438 2.277344 4.671875 4.554688 4.46875 4.941406 C 4.261719 5.328125 4.035156 6.46875 4.035156 6.46875 C 4.492188 6.921875 5.71875 6.648438 5.675781 6.46875 Z M 5.675781 6.46875 "/>
<path style=" stroke:none;fill-rule:nonzero;fill:rgb(100%,100%,100%);fill-opacity:1;" d="M 8.539062 8.8125 C 8.539062 8.773438 8.527344 8.730469 8.503906 8.6875 C 8.328125 8.355469 7.492188 7.9375 6.363281 7.703125 C 5.785156 7.558594 5.664062 7.171875 5.644531 6.9375 C 5.542969 7.117188 4.4375 7.328125 4.011719 6.902344 C 4.011719 7.46875 2.886719 7.703125 2.886719 7.703125 L 2.890625 7.703125 C 1.808594 7.9375 1.054688 8.355469 0.898438 8.6875 L 0.867188 9.691406 C 0.867188 10.1875 2.585938 10.589844 4.703125 10.589844 C 6.820312 10.589844 8.539062 10.1875 8.539062 9.691406 C 8.539062 9.652344 8.539062 8.851562 8.539062 8.8125 Z M 8.539062 8.8125 "/>
<path style=" stroke:none;fill-rule:nonzero;fill:rgb(100%,100%,100%);fill-opacity:1;" d="M 9.175781 4.386719 C 8.554688 4.386719 8.050781 4.59375 8.050781 4.847656 L 8.050781 5.414062 C 8.050781 5.667969 8.554688 5.875 9.175781 5.875 C 9.800781 5.875 10.304688 5.667969 10.304688 5.414062 L 10.304688 4.847656 C 10.304688 4.59375 9.800781 4.386719 9.175781 4.386719 Z M 9.175781 4.386719 "/>
</g>
</svg>
