<svg width="12" height="12" viewBox="0 0 580 580" fill="none" xmlns="http://www.w3.org/2000/svg">
<path d="M143.291 308.486C128.128 308.486 115.116 317.699 109.547 330.834L106.654 366.148V404.904C106.654 409.619 107.552 414.119 109.174 418.26H30.0408V445.049V455.766V548.641H54.8198V455.766H308.895V548.641H333.67V455.766H333.672V418.26H254.539C256.161 414.119 257.058 409.618 257.058 404.904V366.15L254.166 330.832C248.597 317.7 235.585 308.486 220.422 308.486H143.291H143.291ZM135.578 357.66H144.256V418.26H135.578V357.66ZM219.457 357.66H228.135V418.26H219.457V357.66Z" fill="#ffffff"/>
<path d="M181.857 203.242C157.096 203.242 137.023 223.313 137.023 248.074C137.023 272.835 157.096 292.906 181.857 292.906C206.618 292.906 226.689 272.835 226.689 248.074C226.689 223.313 206.618 203.242 181.857 203.242Z" fill="#ffffff"/>
<path d="M311.504 209.152H519.528C530.856 209.152 540.071 199.937 540.071 188.609V40.5274C540.071 29.1991 530.856 19.9832 519.528 19.9832H311.504C300.177 19.9832 290.961 29.1991 290.961 40.5274V188.609C290.961 199.937 300.177 209.152 311.504 209.152ZM311.597 40.6191H519.436V188.517H311.596L311.597 40.6191Z" fill="#ffffff"/>
<path d="M449.043 158.287L424.294 115.42L457.172 103.939L373.374 48.925V152.761L402.326 127.706L427.245 170.872L449.043 158.287Z" fill="#ffffff"/>
<path d="M567.614 283.495L537.811 224.36C537.571 223.882 537.335 223.405 537.101 222.93C534.624 217.912 532.286 213.176 526.526 213.176H304.509C298.749 213.176 296.408 217.914 293.932 222.933C293.699 223.406 293.463 223.884 293.223 224.361L263.42 283.496C262.491 285.339 262.624 287.327 263.803 289.242C265.784 292.46 270.573 294.978 274.706 294.978H556.331C560.465 294.978 565.254 292.46 567.234 289.243C568.412 287.326 568.544 285.339 567.614 283.495Z" fill="#ffffff"/>
</svg>
