<?xml version="1.0" encoding="UTF-8"?>
<svg xmlns="http://www.w3.org/2000/svg" xmlns:xlink="http://www.w3.org/1999/xlink" width="32" height="32" viewBox="0 0 32 32">
<path fill-rule="nonzero" fill="rgb(100%, 100%, 100%)" fill-opacity="1" d="M 15.132812 17.246094 C 15.011719 16.761719 14.828125 16.335938 14.34375 12.570312 C 13.855469 8.804688 15.679688 5.097656 16.164062 4.007812 C 16.652344 2.914062 15.800781 2.425781 14.585938 2.125 C 13.371094 1.820312 13.1875 3.339844 13.1875 3.339844 C 11.730469 6.070312 12.460938 12.144531 11.914062 13.179688 C 11.367188 14.210938 10.757812 17.246094 10.757812 17.246094 C 11.972656 18.460938 15.253906 17.734375 15.132812 17.246094 Z M 15.132812 17.246094 "/>
<path fill-rule="nonzero" fill="rgb(100%, 100%, 100%)" fill-opacity="1" d="M 22.765625 23.5 C 22.765625 23.394531 22.734375 23.285156 22.675781 23.171875 C 22.210938 22.277344 19.980469 21.164062 16.96875 20.539062 C 15.429688 20.15625 15.105469 19.128906 15.054688 18.5 C 14.785156 18.976562 11.835938 19.542969 10.699219 18.40625 C 10.699219 19.921875 7.703125 20.539062 7.703125 20.539062 C 4.828125 21.164062 2.816406 22.277344 2.398438 23.171875 L 2.316406 25.847656 C 2.316406 27.167969 6.894531 28.238281 12.542969 28.238281 C 18.1875 28.238281 22.765625 27.167969 22.765625 25.847656 C 22.765625 25.742188 22.765625 23.605469 22.765625 23.5 Z M 22.765625 23.5 "/>
<path fill-rule="nonzero" fill="rgb(100%, 100%, 100%)" fill-opacity="1" d="M 24.472656 11.695312 C 22.8125 11.695312 21.46875 12.25 21.46875 12.933594 L 21.46875 14.433594 C 21.46875 15.117188 22.8125 15.671875 24.472656 15.671875 C 26.132812 15.671875 27.476562 15.117188 27.476562 14.433594 L 27.476562 12.933594 C 27.476562 12.25 26.132812 11.695312 24.472656 11.695312 Z M 24.472656 11.695312 "/>
</svg>
