<?xml version="1.0" encoding="UTF-8"?>
<svg xmlns="http://www.w3.org/2000/svg" xmlns:xlink="http://www.w3.org/1999/xlink" width="32" height="32" viewBox="0 0 32 32">
<defs>
<filter id="filter-remove-color" x="0%" y="0%" width="100%" height="100%">
<feColorMatrix color-interpolation-filters="sRGB" values="0 0 0 0 1 0 0 0 0 1 0 0 0 0 1 0 0 0 1 0" />
</filter>
<mask id="mask-0">
<g filter="url(#filter-remove-color)">
<rect x="-3.2" y="-3.2" width="38.4" height="38.4" fill="rgb(0%, 0%, 0%)" fill-opacity="0.601"/>
</g>
</mask>
<clipPath id="clip-0">
<rect x="0" y="0" width="32" height="32"/>
</clipPath>
<g id="source-6" clip-path="url(#clip-0)">
<path fill-rule="nonzero" fill="rgb(24.705882%, 24.705882%, 24.705882%)" fill-opacity="1" d="M 22.914062 3.574219 C 22.914062 3.574219 20.632812 7.300781 18.769531 9.371094 C 18.769531 9.578125 19.496094 10.40625 20.738281 10.199219 C 20.738281 10.304688 20.839844 10.511719 20.945312 10.613281 C 20.332031 11.53125 19.609375 12.453125 18.78125 13.414062 L 24.261719 18.261719 C 24.90625 18.246094 25.496094 17.902344 25.914062 17.242188 C 28.089844 17.554688 28.710938 15.6875 28.816406 15.585938 C 27.261719 14.34375 25.191406 11.441406 25.191406 11.441406 C 24.777344 12.273438 23.636719 12.167969 23.222656 11.546875 C 22.5 11.753906 21.875 11.546875 21.460938 11.132812 C 21.980469 11.441406 22.601562 11.339844 22.914062 10.925781 C 23.742188 11.648438 25.085938 11.132812 25.085938 10.199219 C 26.226562 10.71875 27.054688 9.578125 27.054688 9.371094 C 25.292969 7.300781 22.914062 3.574219 22.914062 3.574219 Z M 26.847656 18.277344 C 26.847656 18.277344 25.992188 19.238281 24.78125 19.207031 C 24.792969 19.371094 24.769531 19.535156 24.710938 19.691406 C 24.65625 19.847656 24.566406 19.988281 24.453125 20.109375 C 24.339844 20.226562 24.203125 20.324219 24.054688 20.390625 C 23.902344 20.457031 23.738281 20.488281 23.574219 20.488281 L 23.441406 20.488281 L 23.441406 28.425781 L 26.019531 28.425781 C 25.191406 27.496094 24.050781 28.117188 23.949219 25.425781 L 23.949219 25.152344 C 25.246094 25.488281 26.566406 24.640625 27.054688 23.664062 C 28.917969 24.390625 30.265625 23.351562 30.785156 22.214844 C 30.058594 21.695312 28.195312 19.933594 26.847656 18.277344 Z M 15.273438 22.125 C 15.230469 22.15625 15.1875 22.1875 15.144531 22.214844 C 15.144531 22.371094 15.984375 23.605469 17.292969 23.777344 L 17.292969 22.125 Z M 15.273438 22.125 "/>
</g>
<mask id="mask-1">
<g filter="url(#filter-remove-color)">
<rect x="-3.2" y="-3.2" width="38.4" height="38.4" fill="rgb(0%, 0%, 0%)" fill-opacity="0.601"/>
</g>
</mask>
<clipPath id="clip-1">
<rect x="0" y="0" width="32" height="32"/>
</clipPath>
<g id="source-10" clip-path="url(#clip-1)">
<path fill-rule="nonzero" fill="rgb(24.705882%, 24.705882%, 24.705882%)" fill-opacity="1" d="M 8.691406 4.691406 C 8.09375 4.691406 7.5625 5.050781 7.230469 5.679688 C 7.097656 5.589844 6.898438 5.589844 6.765625 5.589844 C 5.902344 5.589844 5.171875 6.484375 5.171875 7.5625 L 5.171875 7.742188 C 4.910156 7.472656 4.578125 7.203125 4.179688 7.203125 C 3.382812 7.203125 2.652344 8.101562 2.652344 9.265625 C 2.652344 9.445312 2.652344 9.625 2.71875 9.804688 C 1.921875 9.894531 1.324219 10.703125 1.324219 11.777344 C 1.324219 12.855469 1.988281 13.75 2.851562 13.75 C 2.984375 13.75 3.117188 13.75 3.183594 13.660156 C 2.851562 14.109375 2.652344 14.738281 2.652344 15.457031 L 2.652344 15.546875 C 1.921875 15.726562 1.324219 16.53125 1.324219 17.519531 C 1.324219 18.597656 1.988281 19.492188 2.851562 19.492188 C 2.984375 19.492188 3.117188 19.492188 3.25 19.402344 C 3.316406 20.390625 3.980469 21.109375 4.777344 21.109375 C 5.304688 21.109375 5.835938 20.75 6.101562 20.121094 C 6.539062 20.164062 6.957031 20.035156 7.34375 19.816406 C 7.222656 19.574219 7.1875 19.300781 7.238281 19.035156 C 7.292969 18.769531 7.433594 18.53125 7.636719 18.355469 L 9.574219 16.691406 C 9.570312 15.867188 9.640625 14.984375 9.753906 13.660156 C 9.753906 13.660156 9.753906 14.933594 9.988281 16.332031 L 15.320312 11.75 C 15.417969 11.667969 15.523438 11.601562 15.640625 11.554688 C 15.371094 10.980469 14.902344 10.613281 14.332031 10.613281 L 14.265625 10.613281 C 14.464844 10.253906 14.664062 9.804688 14.664062 9.355469 C 14.664062 8.28125 14 7.382812 13.136719 7.382812 C 12.738281 7.382812 12.339844 7.5625 12.074219 7.921875 C 11.875 7.023438 11.277344 6.394531 10.613281 6.394531 L 10.414062 6.394531 C 10.21875 5.410156 9.488281 4.691406 8.691406 4.691406 Z M 8.335938 20.484375 C 8.316406 21.644531 8.292969 23.429688 8.292969 24.03125 C 8.160156 27.980469 6.5 26.273438 5.96875 28.425781 L 8.785156 28.425781 L 8.785156 20.488281 L 8.429688 20.488281 C 8.398438 20.488281 8.367188 20.488281 8.335938 20.484375 Z M 8.335938 20.484375 "/>
</g>
</defs>
<g mask="url(#mask-0)">
<use xlink:href="#source-6"/>
</g>
<g mask="url(#mask-1)">
<use xlink:href="#source-10"/>
</g>
<path fill-rule="evenodd" fill="rgb(24.705882%, 24.705882%, 24.705882%)" fill-opacity="1" d="M 16.113281 12.671875 L 8.429688 19.277344 L 9.996094 19.277344 L 9.996094 29.183594 L 22.226562 29.183594 L 22.226562 19.277344 L 23.574219 19.277344 Z M 13.859375 20.910156 L 18.507812 20.910156 L 18.507812 25.519531 L 13.859375 25.519531 Z M 13.859375 20.910156 "/>
</svg>
