<?xml version="1.0" encoding="UTF-8"?>
<svg xmlns="http://www.w3.org/2000/svg" xmlns:xlink="http://www.w3.org/1999/xlink" width="12" height="12" viewBox="0 0 12 12" version="1.1">
<defs>
<filter id="alpha" filterUnits="objectBoundingBox" x="0%" y="0%" width="100%" height="100%">
  <feColorMatrix type="matrix" in="SourceGraphic" values="0 0 0 0 1 0 0 0 0 1 0 0 0 0 1 0 0 0 1 0"/>
</filter>
<mask id="mask0">
  <g filter="url(#alpha)">
<rect x="0" y="0" width="12" height="12" style="fill:rgb(0%,0%,0%);fill-opacity:0.821;stroke:none;"/>
  </g>
</mask>
<clipPath id="clip1">
  <rect x="0" y="0" width="12" height="12"/>
</clipPath>
<g id="surface5" clip-path="url(#clip1)">
<path style=" stroke:none;fill-rule:evenodd;fill:rgb(24.705882%,24.705882%,24.705882%);fill-opacity:1;" d="M 10.867188 8.714844 C 10.78125 8.738281 10.671875 8.734375 10.53125 8.703125 C 10.386719 8.671875 10.253906 8.515625 10.011719 8.527344 C 9.765625 8.535156 9.414062 8.757812 9.078125 8.757812 C 8.738281 8.75 8.355469 8.515625 8.003906 8.515625 C 7.65625 8.519531 7.339844 8.761719 7.007812 8.769531 C 6.667969 8.769531 6.332031 8.542969 6 8.539062 C 5.660156 8.53125 5.339844 8.738281 5.027344 8.734375 C 4.71875 8.730469 4.441406 8.507812 4.132812 8.515625 C 3.816406 8.53125 3.472656 8.773438 3.164062 8.789062 C 2.851562 8.792969 2.570312 8.5625 2.292969 8.558594 C 2.015625 8.554688 1.707031 8.730469 1.519531 8.769531 C 1.332031 8.804688 1.214844 8.804688 1.167969 8.777344 L 1.167969 9.425781 C 1.214844 9.453125 1.332031 9.453125 1.519531 9.414062 C 1.707031 9.375 2.015625 9.203125 2.292969 9.207031 C 2.570312 9.207031 2.851562 9.441406 3.164062 9.4375 C 3.472656 9.421875 3.816406 9.175781 4.132812 9.164062 C 4.441406 9.15625 4.714844 9.378906 5.027344 9.382812 C 5.339844 9.386719 5.660156 9.175781 6 9.1875 C 6.332031 9.191406 6.667969 9.417969 7.007812 9.414062 C 7.339844 9.40625 7.65625 9.167969 8.003906 9.164062 C 8.355469 9.164062 8.738281 9.398438 9.078125 9.40625 C 9.414062 9.40625 9.765625 9.183594 10.011719 9.175781 C 10.253906 9.167969 10.386719 9.320312 10.53125 9.351562 C 10.671875 9.382812 10.78125 9.386719 10.867188 9.363281 Z M 10.867188 8.714844 "/>
</g>
<mask id="mask1">
  <g filter="url(#alpha)">
<rect x="0" y="0" width="12" height="12" style="fill:rgb(0%,0%,0%);fill-opacity:0.821;stroke:none;"/>
  </g>
</mask>
<clipPath id="clip2">
  <rect x="0" y="0" width="12" height="12"/>
</clipPath>
<g id="surface8" clip-path="url(#clip2)">
<path style=" stroke:none;fill-rule:evenodd;fill:rgb(24.705882%,24.705882%,24.705882%);fill-opacity:1;" d="M 10.832031 9.972656 C 10.746094 9.996094 10.636719 9.996094 10.496094 9.964844 C 10.351562 9.933594 10.21875 9.773438 9.976562 9.785156 C 9.730469 9.792969 9.382812 10.015625 9.042969 10.015625 C 8.703125 10.007812 8.320312 9.777344 7.96875 9.777344 C 7.621094 9.777344 7.304688 10.019531 6.972656 10.027344 C 6.632812 10.027344 6.296875 9.800781 5.964844 9.796875 C 5.625 9.789062 5.308594 9.996094 4.992188 9.996094 C 4.683594 9.988281 4.40625 9.765625 4.097656 9.777344 C 3.785156 9.789062 3.4375 10.03125 3.128906 10.046875 C 2.816406 10.054688 2.535156 9.820312 2.261719 9.816406 C 1.984375 9.8125 1.671875 9.988281 1.484375 10.027344 C 1.296875 10.066406 1.179688 10.0625 1.132812 10.035156 L 1.132812 10.683594 C 1.179688 10.710938 1.296875 10.710938 1.484375 10.675781 C 1.671875 10.636719 1.984375 10.460938 2.261719 10.464844 C 2.535156 10.46875 2.816406 10.699219 3.128906 10.695312 C 3.4375 10.679688 3.785156 10.4375 4.097656 10.425781 C 4.40625 10.414062 4.683594 10.636719 4.992188 10.644531 C 5.308594 10.644531 5.625 10.4375 5.964844 10.445312 C 6.296875 10.449219 6.632812 10.675781 6.972656 10.675781 C 7.304688 10.667969 7.621094 10.425781 7.96875 10.425781 C 8.320312 10.425781 8.703125 10.65625 9.042969 10.664062 C 9.382812 10.664062 9.730469 10.441406 9.976562 10.433594 C 10.21875 10.425781 10.351562 10.578125 10.496094 10.613281 C 10.636719 10.644531 10.746094 10.648438 10.832031 10.621094 Z M 10.832031 9.972656 "/>
</g>
</defs>
<g id="surface1">
<use xlink:href="#surface5" mask="url(#mask0)"/>
<use xlink:href="#surface8" mask="url(#mask1)"/>
<path style=" stroke:none;fill-rule:evenodd;fill:rgb(24.705882%,24.705882%,24.705882%);fill-opacity:1;" d="M 6.1875 6.675781 C 4.667969 6.664062 3.175781 7.320312 2.597656 8.035156 C 2.734375 8.070312 2.84375 8.125 2.925781 8.15625 C 3.046875 8.203125 3.132812 8.222656 3.144531 8.222656 C 3.160156 8.222656 3.292969 8.1875 3.441406 8.128906 C 3.601562 8.066406 3.824219 7.96875 4.113281 7.957031 C 4.113281 7.957031 4.117188 7.957031 4.117188 7.957031 C 4.40625 7.945312 4.632812 8.039062 4.777344 8.09375 C 4.917969 8.148438 5.019531 8.171875 5.035156 8.171875 C 5.054688 8.171875 5.179688 8.148438 5.335938 8.097656 C 5.496094 8.046875 5.726562 7.96875 6.007812 7.976562 C 6.292969 7.980469 6.519531 8.070312 6.679688 8.121094 C 6.839844 8.175781 6.960938 8.203125 7 8.203125 C 7.027344 8.203125 7.148438 8.171875 7.304688 8.113281 C 7.464844 8.054688 7.703125 7.957031 8 7.957031 C 8.003906 7.957031 8.003906 7.957031 8.003906 7.957031 C 8.300781 7.957031 8.539062 8.042969 8.71875 8.101562 C 8.894531 8.15625 9.042969 8.191406 9.085938 8.195312 C 9.125 8.191406 9.25 8.164062 9.394531 8.113281 C 9.46875 8.089844 9.558594 8.050781 9.667969 8.019531 C 8.953125 7.4375 7.695312 6.710938 6.28125 6.675781 C 6.25 6.675781 6.21875 6.675781 6.1875 6.675781 Z M 6.1875 6.675781 "/>
</g>
</svg>
