<?xml version="1.0" encoding="UTF-8"?>
<svg xmlns="http://www.w3.org/2000/svg" xmlns:xlink="http://www.w3.org/1999/xlink" width="12" height="12" viewBox="0 0 12 12" version="1.1">
<g id="surface1">
<path style=" stroke:none;fill-rule:nonzero;fill:rgb(34.901962%,22.352941%,2.352941%);fill-opacity:1;" d="M 8.710938 2.15625 C 8.710938 1.917969 8.789062 1.722656 8.941406 1.570312 C 9.097656 1.417969 9.296875 1.34375 9.539062 1.34375 C 9.800781 1.34375 10.015625 1.421875 10.191406 1.585938 C 10.363281 1.746094 10.449219 1.929688 10.449219 2.132812 C 10.449219 2.28125 10.414062 2.433594 10.34375 2.582031 C 10.277344 2.734375 10.167969 2.855469 10.019531 2.945312 C 9.871094 3.035156 9.722656 3.082031 9.566406 3.082031 C 9.355469 3.082031 9.15625 2.988281 8.980469 2.808594 C 8.800781 2.628906 8.710938 2.410156 8.710938 2.15625 Z M 7.78125 10.074219 L 7.769531 9.640625 L 8.519531 9.542969 C 8.628906 9.511719 8.703125 9.464844 8.746094 9.40625 C 8.789062 9.347656 8.808594 9.210938 8.808594 9.003906 L 8.808594 8.929688 C 8.808594 8.878906 8.8125 8.78125 8.820312 8.644531 C 8.828125 8.503906 8.828125 8.382812 8.828125 8.273438 C 8.828125 8.191406 8.824219 8.03125 8.808594 7.789062 L 8.816406 7.457031 L 8.808594 7.148438 L 8.824219 6.066406 C 8.824219 5.929688 8.808594 5.785156 8.78125 5.640625 C 8.734375 5.574219 8.644531 5.515625 8.519531 5.46875 C 8.390625 5.421875 8.167969 5.382812 7.847656 5.363281 L 7.847656 4.992188 C 8.304688 4.964844 8.703125 4.871094 9.046875 4.707031 C 9.28125 4.597656 9.539062 4.410156 9.8125 4.140625 L 10.253906 4.140625 C 10.273438 4.691406 10.28125 5.402344 10.28125 6.277344 L 10.234375 8.984375 C 10.234375 9.171875 10.246094 9.339844 10.261719 9.488281 C 10.398438 9.539062 10.621094 9.585938 10.933594 9.636719 C 11.050781 9.652344 11.148438 9.675781 11.21875 9.699219 L 11.210938 10.066406 C 11.089844 10.070312 11.003906 10.074219 10.945312 10.074219 C 10.878906 10.074219 10.777344 10.066406 10.640625 10.058594 C 10.191406 10.039062 9.585938 10.027344 8.828125 10.027344 C 8.613281 10.027344 8.402344 10.035156 8.199219 10.050781 C 7.996094 10.066406 7.855469 10.074219 7.78125 10.074219 Z M 7.78125 10.074219 "/>
<path style=" stroke:none;fill-rule:nonzero;fill:rgb(34.901962%,22.352941%,2.352941%);fill-opacity:1;" d="M 3.289062 6.085938 C 2.980469 6.085938 2.71875 6.273438 2.605469 6.539062 L 2.546875 7.257812 L 2.546875 8.042969 C 2.546875 8.136719 2.5625 8.230469 2.597656 8.3125 L 0.992188 8.3125 L 0.992188 10.957031 L 1.496094 10.957031 L 1.496094 9.074219 L 6.648438 9.074219 L 6.648438 10.957031 L 7.148438 10.957031 L 7.148438 8.3125 L 5.542969 8.3125 C 5.578125 8.230469 5.597656 8.136719 5.597656 8.042969 L 5.597656 7.257812 L 5.539062 6.539062 C 5.425781 6.273438 5.160156 6.085938 4.851562 6.085938 Z M 3.132812 7.085938 L 3.308594 7.085938 L 3.308594 8.3125 L 3.132812 8.3125 Z M 4.832031 7.085938 L 5.007812 7.085938 L 5.007812 8.3125 L 4.832031 8.3125 Z M 4.832031 7.085938 "/>
<path style=" stroke:none;fill-rule:nonzero;fill:rgb(34.901962%,22.352941%,2.352941%);fill-opacity:1;" d="M 4.070312 3.953125 C 3.570312 3.953125 3.160156 4.359375 3.160156 4.863281 C 3.160156 5.363281 3.570312 5.773438 4.070312 5.773438 C 4.574219 5.773438 4.980469 5.363281 4.980469 4.863281 C 4.980469 4.359375 4.574219 3.953125 4.070312 3.953125 Z M 4.070312 3.953125 "/>
</g>
</svg>
