<?xml version="1.0" encoding="UTF-8"?>
<svg xmlns="http://www.w3.org/2000/svg" xmlns:xlink="http://www.w3.org/1999/xlink" width="12" height="12" viewBox="0 0 12 12" version="1.1">
<g id="surface1">
<path style=" stroke:none;fill-rule:nonzero;fill:rgb(100%,100%,100%);fill-opacity:1;" d="M 9.898438 2.917969 L 8.691406 2.917969 L 7.753906 10.25 L 7.597656 6.25 L 6.78125 6.25 L 6.78125 4.304688 L 4.050781 6.25 L 4.050781 4.304688 L 1.324219 6.25 L 1.324219 11.316406 L 10.675781 11.316406 Z M 3.273438 10.148438 L 2.492188 10.148438 L 2.492188 8.980469 L 3.273438 8.980469 Z M 3.273438 8.199219 L 2.492188 8.199219 L 2.492188 7.03125 L 3.273438 7.03125 Z M 4.832031 10.148438 L 4.050781 10.148438 L 4.050781 8.980469 L 4.832031 8.980469 Z M 4.832031 8.199219 L 4.050781 8.199219 L 4.050781 7.03125 L 4.832031 7.03125 Z M 6.390625 10.148438 L 5.609375 10.148438 L 5.609375 8.980469 L 6.390625 8.980469 Z M 6.390625 8.199219 L 5.609375 8.199219 L 5.609375 7.03125 L 6.390625 7.03125 Z M 6.390625 8.199219 "/>
<path style=" stroke:none;fill-rule:nonzero;fill:rgb(100%,100%,100%);fill-opacity:1;" d="M 8.949219 1.84375 C 8.738281 1.679688 8.734375 1.6875 8.457031 1.527344 C 8.183594 1.367188 7.371094 1.378906 7.371094 1.378906 C 7.371094 1.378906 6.847656 0.742188 5.988281 0.601562 C 5.125 0.457031 5.105469 0.792969 5.105469 0.792969 C 5.105469 0.792969 2.039062 -0.0742188 2.164062 1.128906 C 2.246094 1.550781 2.671875 1.398438 2.671875 1.398438 C 2.671875 1.398438 1.957031 2.40625 5.710938 2.023438 C 5.710938 2.023438 5.507812 2.234375 6.1875 2.335938 C 6.871094 2.441406 7.71875 2.175781 7.71875 2.175781 C 7.71875 2.175781 7.777344 2.4375 8.839844 2.386719 C 9.109375 2.46875 9.679688 2.445312 9.726562 2.34375 C 9.726562 2.34375 9.609375 1.980469 9.265625 2.011719 C 9.261719 2.035156 9.054688 1.929688 8.949219 1.84375 Z M 8.949219 1.84375 "/>
</g>
</svg>
