<?xml version="1.0" encoding="UTF-8"?>
<svg xmlns="http://www.w3.org/2000/svg" xmlns:xlink="http://www.w3.org/1999/xlink" width="32" height="32" viewBox="0 0 32 32">
<path fill-rule="evenodd" fill="rgb(24.705882%, 24.705882%, 24.705882%)" fill-opacity="1" d="M 16 22.667969 C 19.683594 22.667969 22.667969 19.683594 22.667969 16 C 22.667969 12.316406 19.683594 9.332031 16 9.332031 C 12.316406 9.332031 9.332031 12.316406 9.332031 16 C 9.332031 19.683594 12.316406 22.667969 16 22.667969 Z M 16 20 C 18.210938 20 20 18.210938 20 16 C 20 13.789062 18.210938 12 16 12 C 13.789062 12 12 13.789062 12 16 C 12 18.210938 13.789062 20 16 20 Z M 16 20 "/>
<path fill-rule="nonzero" fill="rgb(24.705882%, 24.705882%, 24.705882%)" fill-opacity="1" d="M 22.667969 10.667969 C 23.402344 10.667969 24 10.070312 24 9.332031 C 24 8.597656 23.402344 8 22.667969 8 C 21.929688 8 21.332031 8.597656 21.332031 9.332031 C 21.332031 10.070312 21.929688 10.667969 22.667969 10.667969 Z M 22.667969 10.667969 "/>
<path fill-rule="evenodd" fill="rgb(24.705882%, 24.705882%, 24.705882%)" fill-opacity="1" d="M 3.511719 7.089844 C 2.667969 8.777344 2.667969 10.980469 2.667969 15.386719 L 2.667969 16.613281 C 2.667969 21.019531 2.667969 23.222656 3.511719 24.910156 C 4.285156 26.457031 5.542969 27.714844 7.089844 28.488281 C 8.777344 29.332031 10.980469 29.332031 15.386719 29.332031 L 16.613281 29.332031 C 21.019531 29.332031 23.222656 29.332031 24.910156 28.488281 C 26.457031 27.714844 27.714844 26.457031 28.488281 24.910156 C 29.332031 23.222656 29.332031 21.019531 29.332031 16.613281 L 29.332031 15.386719 C 29.332031 10.980469 29.332031 8.777344 28.488281 7.089844 C 27.714844 5.542969 26.457031 4.285156 24.910156 3.511719 C 23.222656 2.667969 21.019531 2.667969 16.613281 2.667969 L 15.386719 2.667969 C 10.980469 2.667969 8.777344 2.667969 7.089844 3.511719 C 5.542969 4.285156 4.285156 5.542969 3.511719 7.089844 Z M 16.613281 5.332031 L 15.386719 5.332031 C 13.140625 5.332031 11.613281 5.335938 10.433594 5.429688 C 9.285156 5.523438 8.695312 5.691406 8.28125 5.894531 C 7.25 6.410156 6.410156 7.25 5.894531 8.28125 C 5.691406 8.695312 5.523438 9.285156 5.429688 10.433594 C 5.335938 11.613281 5.332031 13.140625 5.332031 15.386719 L 5.332031 16.613281 C 5.332031 18.859375 5.335938 20.386719 5.429688 21.566406 C 5.523438 22.714844 5.691406 23.304688 5.894531 23.71875 C 6.410156 24.75 7.25 25.589844 8.28125 26.105469 C 8.695312 26.308594 9.285156 26.476562 10.433594 26.570312 C 11.613281 26.664062 13.140625 26.667969 15.386719 26.667969 L 16.613281 26.667969 C 18.859375 26.667969 20.386719 26.664062 21.566406 26.570312 C 22.714844 26.476562 23.304688 26.308594 23.71875 26.105469 C 24.75 25.589844 25.589844 24.75 26.105469 23.71875 C 26.308594 23.304688 26.476562 22.714844 26.570312 21.566406 C 26.664062 20.386719 26.667969 18.859375 26.667969 16.613281 L 26.667969 15.386719 C 26.667969 13.140625 26.664062 11.613281 26.570312 10.433594 C 26.476562 9.285156 26.308594 8.695312 26.105469 8.28125 C 25.589844 7.25 24.75 6.410156 23.71875 5.894531 C 23.304688 5.691406 22.714844 5.523438 21.566406 5.429688 C 20.386719 5.335938 18.859375 5.332031 16.613281 5.332031 Z M 16.613281 5.332031 "/>
</svg>
