<?xml version="1.0" encoding="UTF-8"?>
<svg xmlns="http://www.w3.org/2000/svg" xmlns:xlink="http://www.w3.org/1999/xlink" width="32" height="32" viewBox="0 0 32 32">
<path fill-rule="evenodd" fill="rgb(100%, 100%, 100%)" fill-opacity="1" d="M 4.691406 13.285156 L 1.496094 17.941406 L 12.46875 17.941406 L 12.46875 13.285156 Z M 16.71875 13.285156 L 16.71875 17.941406 L 27.433594 17.941406 L 28.367188 13.285156 Z M 16.71875 13.285156 "/>
<path fill-rule="evenodd" fill="rgb(100%, 100%, 100%)" fill-opacity="1" d="M 18.8125 2.511719 L 2.730469 29.710938 L 15.980469 29.710938 L 23.167969 2.511719 Z M 20.5625 3.585938 L 20.746094 3.664062 L 20.820312 3.867188 L 20.761719 4.140625 L 20.464844 4.816406 L 20.460938 4.828125 L 20.28125 5.101562 L 20.035156 5.296875 L 19.789062 5.367188 L 19.601562 5.289062 L 19.527344 5.085938 L 19.585938 4.8125 L 19.882812 4.136719 L 19.886719 4.125 L 20.066406 3.851562 L 20.3125 3.65625 Z M 19.140625 6.863281 L 19.328125 6.941406 L 19.398438 7.140625 L 19.34375 7.417969 L 19.046875 8.152344 L 19.042969 8.164062 L 18.863281 8.4375 L 18.617188 8.632812 L 18.367188 8.703125 L 18.179688 8.625 L 18.105469 8.421875 L 18.164062 8.148438 L 18.460938 7.414062 L 18.464844 7.402344 L 18.644531 7.128906 L 18.890625 6.929688 Z M 17.71875 10.257812 L 17.90625 10.332031 L 17.980469 10.535156 L 17.921875 10.8125 L 17.550781 11.683594 L 17.542969 11.695312 L 17.367188 11.964844 L 17.121094 12.164062 L 16.871094 12.230469 L 16.683594 12.15625 L 16.609375 11.953125 L 16.667969 11.675781 L 17.039062 10.804688 L 17.046875 10.792969 L 17.222656 10.523438 L 17.46875 10.324219 Z M 16.414062 13.335938 L 16.597656 13.414062 L 16.671875 13.617188 L 16.617188 13.890625 L 16.148438 14.996094 L 16.144531 15.007812 L 15.964844 15.28125 L 15.71875 15.476562 L 15.46875 15.546875 L 15.28125 15.46875 L 15.210938 15.265625 L 15.265625 14.992188 L 15.734375 13.886719 L 15.738281 13.875 L 15.917969 13.601562 L 16.164062 13.40625 Z M 15.011719 16.652344 L 15.199219 16.730469 L 15.273438 16.933594 L 15.214844 17.207031 L 14.746094 18.3125 L 14.742188 18.324219 L 14.5625 18.597656 L 14.316406 18.792969 L 14.066406 18.863281 L 13.882812 18.785156 L 13.808594 18.582031 L 13.867188 18.308594 L 14.332031 17.203125 L 14.335938 17.191406 L 14.515625 16.917969 L 14.761719 16.722656 Z M 13.609375 19.96875 L 13.796875 20.042969 L 13.871094 20.246094 L 13.8125 20.523438 L 13.34375 21.628906 L 13.339844 21.640625 L 13.160156 21.914062 L 12.914062 22.109375 L 12.667969 22.179688 L 12.480469 22.101562 L 12.40625 21.898438 L 12.464844 21.625 L 12.929688 20.519531 L 12.9375 20.507812 L 13.113281 20.234375 L 13.359375 20.035156 Z M 12.261719 23.132812 L 12.449219 23.207031 L 12.523438 23.410156 L 12.464844 23.6875 L 11.945312 24.941406 L 11.9375 24.957031 L 11.761719 25.226562 L 11.515625 25.425781 L 11.265625 25.492188 L 11.078125 25.417969 L 11.003906 25.214844 L 11.0625 24.9375 L 11.582031 23.679688 L 11.589844 23.667969 L 11.765625 23.398438 L 12.011719 23.199219 Z M 10.902344 26.378906 L 11.085938 26.453125 L 11.160156 26.65625 L 11.105469 26.933594 L 10.410156 28.589844 L 10.40625 28.601562 L 10.226562 28.875 L 9.980469 29.070312 L 9.730469 29.140625 L 9.542969 29.0625 L 9.46875 28.859375 L 9.527344 28.585938 L 10.222656 26.929688 L 10.226562 26.914062 L 10.40625 26.644531 L 10.652344 26.445312 Z M 10.902344 26.378906 "/>
</svg>
