<?xml version="1.0" encoding="UTF-8"?>
<svg xmlns="http://www.w3.org/2000/svg" xmlns:xlink="http://www.w3.org/1999/xlink" width="12" height="12" viewBox="0 0 12 12" version="1.1">
<g id="surface1">
<path style=" stroke:none;fill-rule:evenodd;fill:rgb(100%,100%,100%);fill-opacity:1;" d="M 1.757812 4.980469 L 0.5625 6.730469 L 4.675781 6.730469 L 4.675781 4.980469 Z M 6.269531 4.980469 L 6.269531 6.730469 L 10.285156 6.730469 L 10.636719 4.980469 Z M 6.269531 4.980469 "/>
<path style=" stroke:none;fill-rule:evenodd;fill:rgb(100%,100%,100%);fill-opacity:1;" d="M 7.054688 0.941406 L 1.023438 11.140625 L 5.992188 11.140625 L 8.6875 0.941406 Z M 7.710938 1.34375 L 7.78125 1.375 L 7.808594 1.449219 L 7.785156 1.554688 L 7.675781 1.804688 L 7.671875 1.8125 L 7.605469 1.914062 L 7.515625 1.988281 L 7.421875 2.011719 L 7.351562 1.984375 L 7.324219 1.90625 L 7.34375 1.804688 L 7.457031 1.550781 L 7.457031 1.546875 L 7.523438 1.445312 L 7.617188 1.371094 Z M 7.175781 2.574219 L 7.246094 2.601562 L 7.273438 2.679688 L 7.253906 2.78125 L 7.140625 3.058594 L 7.140625 3.0625 L 7.074219 3.164062 L 6.980469 3.238281 L 6.886719 3.261719 L 6.816406 3.234375 L 6.789062 3.15625 L 6.8125 3.054688 L 6.921875 2.78125 L 6.925781 2.773438 L 6.992188 2.671875 L 7.085938 2.597656 Z M 6.644531 3.847656 L 6.714844 3.875 L 6.742188 3.949219 L 6.722656 4.054688 L 6.582031 4.378906 L 6.578125 4.386719 L 6.511719 4.488281 L 6.421875 4.5625 L 6.328125 4.585938 L 6.257812 4.558594 L 6.230469 4.480469 L 6.25 4.378906 L 6.390625 4.050781 L 6.390625 4.046875 L 6.460938 3.945312 L 6.550781 3.871094 Z M 6.15625 5 L 6.226562 5.03125 L 6.253906 5.105469 L 6.230469 5.210938 L 6.054688 5.625 L 6.054688 5.628906 L 5.988281 5.730469 L 5.894531 5.804688 L 5.800781 5.832031 L 5.730469 5.800781 L 5.703125 5.726562 L 5.726562 5.621094 L 5.898438 5.207031 L 5.902344 5.203125 L 5.96875 5.101562 L 6.0625 5.027344 Z M 5.628906 6.246094 L 5.699219 6.273438 L 5.726562 6.351562 L 5.707031 6.453125 L 5.53125 6.867188 L 5.527344 6.871094 L 5.460938 6.972656 L 5.367188 7.046875 L 5.277344 7.074219 L 5.207031 7.042969 L 5.179688 6.96875 L 5.199219 6.867188 L 5.375 6.449219 L 5.375 6.445312 L 5.445312 6.34375 L 5.535156 6.269531 Z M 5.105469 7.488281 L 5.171875 7.515625 L 5.203125 7.59375 L 5.179688 7.695312 L 5.003906 8.109375 L 5.003906 8.113281 L 4.9375 8.21875 L 4.84375 8.289062 L 4.75 8.316406 L 4.679688 8.289062 L 4.652344 8.210938 L 4.675781 8.109375 L 4.847656 7.695312 L 4.851562 7.691406 L 4.917969 7.585938 L 5.011719 7.515625 Z M 4.597656 8.675781 L 4.667969 8.703125 L 4.695312 8.777344 L 4.675781 8.882812 L 4.480469 9.355469 L 4.476562 9.359375 L 4.410156 9.460938 L 4.316406 9.535156 L 4.222656 9.558594 L 4.15625 9.53125 L 4.125 9.453125 L 4.148438 9.351562 L 4.34375 8.878906 L 4.347656 8.875 L 4.414062 8.773438 L 4.503906 8.699219 Z M 4.089844 9.890625 L 4.15625 9.921875 L 4.183594 9.996094 L 4.164062 10.101562 L 3.902344 10.722656 L 3.902344 10.726562 L 3.835938 10.828125 L 3.742188 10.902344 L 3.648438 10.929688 L 3.578125 10.898438 L 3.550781 10.824219 L 3.574219 10.71875 L 3.832031 10.097656 L 3.835938 10.09375 L 3.902344 9.992188 L 3.996094 9.917969 Z M 4.089844 9.890625 "/>
</g>
</svg>
