<?xml version="1.0" encoding="UTF-8"?>
<svg xmlns="http://www.w3.org/2000/svg" xmlns:xlink="http://www.w3.org/1999/xlink" width="32" height="32" viewBox="0 0 32 32">
<path fill-rule="nonzero" fill="rgb(100%, 100%, 100%)" fill-opacity="1" d="M 13.777344 2.300781 C 10.84375 2.300781 8.464844 2.660156 8.464844 3.105469 L 8.464844 3.667969 C 7.769531 3.890625 6.628906 4.378906 5.460938 5.414062 C 5.460938 5.414062 4.601562 6.003906 4.65625 11.371094 L 5.238281 11.371094 L 5.238281 29.699219 L 7.089844 29.699219 L 7.089844 11.371094 L 7.765625 11.371094 L 7.765625 9.597656 C 7.765625 9.597656 7.394531 8.949219 8.714844 8.824219 C 9.398438 9.148438 11.40625 9.386719 13.777344 9.386719 C 16.710938 9.386719 19.089844 9.023438 19.089844 8.578125 L 19.089844 3.105469 C 19.089844 2.660156 16.710938 2.300781 13.777344 2.300781 Z M 13.777344 2.300781 "/>
<path fill-rule="nonzero" fill="rgb(100%, 100%, 100%)" fill-opacity="1" d="M 20.726562 13.414062 C 16.144531 13.414062 12.425781 16.957031 12.425781 21.316406 C 12.425781 25.679688 16.144531 29.21875 20.726562 29.21875 C 25.304688 29.21875 29.023438 25.679688 29.023438 21.316406 C 29.023438 16.957031 25.304688 13.414062 20.726562 13.414062 Z M 20.101562 14.070312 L 21.832031 15.503906 L 21.375 17.332031 L 19.453125 18.222656 L 17.019531 17.578125 L 16.660156 16.089844 L 17.589844 14.683594 Z M 24.414062 14.835938 L 26.640625 16.664062 L 26.015625 18.949219 L 23.976562 19.253906 L 22.070312 17.347656 L 22.375 15.617188 Z M 16.390625 15.175781 C 16.3125 15.484375 16.234375 15.796875 16.160156 16.109375 L 15.039062 16.398438 C 15.128906 16.234375 15.246094 16.082031 15.378906 15.9375 C 15.5 15.785156 15.621094 15.640625 15.796875 15.519531 C 15.972656 15.382812 16.148438 15.277344 16.390625 15.175781 Z M 16.75 18.175781 L 18.992188 18.800781 L 19.566406 21.234375 L 17.222656 23.042969 L 15.1875 22.988281 L 14.671875 20.28125 Z M 26.296875 19.554688 L 27.4375 21.476562 L 25.859375 24.085938 L 23.882812 23.898438 L 23.15625 22.242188 L 24.375 19.898438 Z M 12.863281 20.210938 L 14.046875 20.589844 L 14.671875 23.214844 L 13.910156 24.589844 C 13.726562 24.660156 13.558594 24.46875 13.378906 24.074219 C 13.179688 23.644531 12.914062 22.777344 12.824219 22.132812 C 12.738281 21.480469 12.742188 20.847656 12.863281 20.210938 Z M 28.507812 21.265625 C 28.515625 21.921875 28.464844 22.476562 28.355469 23.039062 C 28.226562 23.59375 28.035156 24.097656 27.839844 24.503906 C 27.648438 24.886719 27.472656 25.160156 27.269531 25.339844 L 26.355469 24.277344 L 27.953125 21.574219 Z M 20.019531 21.703125 L 22.570312 22.371094 L 23.382812 24.289062 L 21.976562 26.136719 L 18.796875 25.472656 L 17.75 23.378906 Z M 18.535156 25.945312 L 21.90625 26.539062 L 22.875 28.023438 L 22.632812 28.671875 C 22.164062 28.742188 21.6875 28.792969 21.183594 28.800781 C 20.664062 28.8125 20.109375 28.800781 19.605469 28.746094 C 19.066406 28.667969 18.570312 28.523438 18.132812 28.382812 C 17.699219 28.230469 17.363281 28.0625 17.070312 27.851562 L 17.03125 27.089844 Z M 18.535156 25.945312 "/>
</svg>
