<?xml version="1.0" encoding="UTF-8"?>
<svg xmlns="http://www.w3.org/2000/svg" xmlns:xlink="http://www.w3.org/1999/xlink" width="12" height="12" viewBox="0 0 12 12" version="1.1">
<g id="surface1">
<path style=" stroke:none;fill-rule:nonzero;fill:rgb(100%,100%,100%);fill-opacity:1;" d="M 5.167969 0.863281 C 4.066406 0.863281 3.175781 1 3.175781 1.164062 L 3.175781 1.375 C 2.914062 1.457031 2.484375 1.640625 2.046875 2.03125 C 2.046875 2.03125 1.726562 2.25 1.746094 4.265625 L 1.964844 4.265625 L 1.964844 11.136719 L 2.660156 11.136719 L 2.660156 4.265625 L 2.914062 4.265625 L 2.914062 3.601562 C 2.914062 3.601562 2.773438 3.355469 3.269531 3.308594 C 3.523438 3.429688 4.277344 3.519531 5.167969 3.519531 C 6.265625 3.519531 7.160156 3.382812 7.160156 3.21875 L 7.160156 1.164062 C 7.160156 0.996094 6.265625 0.863281 5.167969 0.863281 Z M 5.167969 0.863281 "/>
<path style=" stroke:none;fill-rule:nonzero;fill:rgb(100%,100%,100%);fill-opacity:1;" d="M 7.773438 5.03125 C 6.054688 5.03125 4.660156 6.359375 4.660156 7.996094 C 4.660156 9.628906 6.054688 10.957031 7.773438 10.957031 C 9.488281 10.957031 10.882812 9.628906 10.882812 7.996094 C 10.882812 6.359375 9.488281 5.03125 7.773438 5.03125 Z M 7.539062 5.277344 L 8.1875 5.8125 L 8.015625 6.5 L 7.292969 6.835938 L 6.382812 6.59375 L 6.246094 6.035156 L 6.597656 5.507812 Z M 9.15625 5.5625 L 9.992188 6.25 L 9.753906 7.105469 L 8.992188 7.21875 L 8.277344 6.503906 L 8.390625 5.855469 Z M 6.148438 5.691406 C 6.117188 5.808594 6.085938 5.925781 6.058594 6.039062 L 5.640625 6.148438 C 5.675781 6.085938 5.714844 6.03125 5.765625 5.976562 C 5.8125 5.921875 5.859375 5.863281 5.925781 5.820312 C 5.988281 5.769531 6.054688 5.730469 6.148438 5.691406 Z M 6.28125 6.816406 L 7.121094 7.050781 L 7.335938 7.960938 L 6.460938 8.640625 L 5.695312 8.621094 L 5.503906 7.605469 Z M 9.863281 7.332031 L 10.289062 8.054688 L 9.699219 9.03125 L 8.957031 8.960938 L 8.683594 8.339844 L 9.140625 7.460938 Z M 4.824219 7.578125 L 5.265625 7.71875 L 5.503906 8.703125 L 5.214844 9.21875 C 5.148438 9.246094 5.085938 9.175781 5.015625 9.027344 C 4.941406 8.867188 4.84375 8.542969 4.808594 8.300781 C 4.777344 8.054688 4.777344 7.816406 4.824219 7.578125 Z M 10.691406 7.976562 C 10.691406 8.222656 10.671875 8.429688 10.632812 8.640625 C 10.585938 8.847656 10.511719 9.035156 10.441406 9.1875 C 10.367188 9.332031 10.300781 9.433594 10.226562 9.503906 L 9.882812 9.105469 L 10.484375 8.089844 Z M 7.507812 8.136719 L 8.464844 8.390625 L 8.769531 9.109375 L 8.242188 9.800781 L 7.046875 9.550781 L 6.65625 8.765625 Z M 6.949219 9.730469 L 8.214844 9.953125 L 8.578125 10.507812 L 8.488281 10.753906 C 8.3125 10.777344 8.132812 10.796875 7.945312 10.800781 C 7.75 10.804688 7.539062 10.800781 7.351562 10.78125 C 7.152344 10.75 6.964844 10.695312 6.800781 10.644531 C 6.636719 10.585938 6.511719 10.523438 6.402344 10.445312 L 6.386719 10.15625 Z M 6.949219 9.730469 "/>
</g>
</svg>
