<?xml version="1.0" encoding="UTF-8"?>
<svg xmlns="http://www.w3.org/2000/svg" xmlns:xlink="http://www.w3.org/1999/xlink" width="32" height="32" viewBox="0 0 32 32">
<path fill-rule="nonzero" fill="rgb(24.705882%, 24.705882%, 24.705882%)" fill-opacity="1" d="M 16 3.839844 C 10.359375 3.839844 5.78125 5.214844 5.78125 6.910156 L 5.78125 26.640625 C 5.941406 28.292969 10.644531 28.15625 16.1875 28.15625 C 21.726562 28.15625 26.058594 28.292969 26.21875 26.640625 L 26.21875 6.910156 C 26.21875 5.214844 21.640625 3.839844 16 3.839844 Z M 14.589844 7.511719 C 23.632812 13.503906 25.390625 20.960938 18.53125 25.84375 C 18.53125 25.84375 20.429688 21.71875 19.96875 19.421875 C 19.511719 17.125 18.523438 16.019531 16.226562 14.121094 C 15.582031 16.21875 14.703125 17.636719 13.925781 18.675781 C 12.84375 20.113281 12.269531 20.589844 12.136719 21.90625 C 11.945312 23.808594 13.980469 26.035156 13.980469 26.035156 C 13.269531 25.867188 8.929688 23.382812 9.335938 19.351562 C 9.738281 15.34375 13.425781 15.273438 14.589844 7.511719 Z M 14.589844 7.511719 "/>
</svg>
