<?xml version="1.0" encoding="UTF-8"?>
<svg xmlns="http://www.w3.org/2000/svg" xmlns:xlink="http://www.w3.org/1999/xlink" width="32" height="32" viewBox="0 0 32 32">
<path fill-rule="nonzero" fill="rgb(100%, 100%, 100%)" fill-opacity="1" d="M 23.574219 15.042969 L 8.425781 15.042969 C 8.007812 15.042969 7.671875 15.414062 7.671875 15.875 L 7.671875 29.179688 C 7.671875 29.636719 8.007812 30.011719 8.425781 30.011719 L 23.574219 30.011719 C 23.988281 30.011719 24.328125 29.636719 24.328125 29.179688 L 24.328125 15.875 C 24.328125 15.414062 23.988281 15.042969 23.574219 15.042969 Z M 21.167969 16.257812 C 21.5625 16.257812 21.882812 16.578125 21.882812 16.972656 C 21.882812 17.367188 21.5625 17.6875 21.167969 17.6875 C 20.773438 17.6875 20.453125 17.367188 20.453125 16.972656 C 20.453125 16.578125 20.773438 16.257812 21.167969 16.257812 Z M 13.417969 16.257812 C 13.8125 16.257812 14.132812 16.578125 14.132812 16.972656 C 14.132812 17.367188 13.8125 17.6875 13.417969 17.6875 C 13.023438 17.6875 12.703125 17.367188 12.703125 16.972656 C 12.703125 16.578125 13.023438 16.257812 13.417969 16.257812 Z M 11.203125 16.257812 C 11.597656 16.257812 11.917969 16.578125 11.917969 16.972656 C 11.917969 17.367188 11.597656 17.6875 11.203125 17.6875 C 10.808594 17.6875 10.488281 17.367188 10.488281 16.972656 C 10.488281 16.578125 10.808594 16.257812 11.203125 16.257812 Z M 22.542969 27.582031 C 22.542969 28.117188 22.105469 28.554688 21.570312 28.554688 L 10.429688 28.554688 C 9.894531 28.554688 9.457031 28.117188 9.457031 27.582031 L 9.457031 20.199219 C 9.457031 19.660156 9.894531 19.226562 10.429688 19.226562 L 21.570312 19.226562 C 22.105469 19.226562 22.542969 19.660156 22.542969 20.199219 Z M 22.542969 27.582031 "/>
<path fill-rule="nonzero" fill="rgb(100%, 100%, 100%)" fill-opacity="1" d="M 14.546875 14.78125 C 14.546875 14.46875 14.296875 14.21875 13.984375 14.21875 L 9.71875 14.21875 C 9.40625 14.21875 9.15625 14.46875 9.15625 14.78125 C 9.15625 15.089844 9.40625 15.34375 9.71875 15.34375 L 13.984375 15.34375 C 14.296875 15.34375 14.546875 15.089844 14.546875 14.78125 Z M 14.546875 14.78125 "/>
<path fill-rule="nonzero" fill="rgb(100%, 100%, 100%)" fill-opacity="1" d="M 22.84375 14.78125 C 22.84375 14.46875 22.59375 14.21875 22.285156 14.21875 L 18.015625 14.21875 C 17.703125 14.21875 17.453125 14.46875 17.453125 14.78125 C 17.453125 15.089844 17.703125 15.34375 18.015625 15.34375 L 22.28125 15.34375 C 22.59375 15.34375 22.84375 15.089844 22.84375 14.78125 Z M 22.84375 14.78125 "/>
<path fill-rule="nonzero" fill="rgb(100%, 100%, 100%)" fill-opacity="1" d="M 8.308594 6.359375 L 23.691406 6.359375 L 18.96875 1.988281 L 13.257812 1.988281 Z M 8.308594 6.359375 "/>
<path fill-rule="nonzero" fill="rgb(100%, 100%, 100%)" fill-opacity="1" d="M 23.691406 8.3125 C 23.691406 8.390625 23.589844 8.449219 23.46875 8.449219 L 8.53125 8.449219 C 8.410156 8.449219 8.308594 8.390625 8.308594 8.3125 L 8.308594 7.730469 C 8.308594 7.65625 8.410156 7.59375 8.53125 7.59375 L 23.46875 7.59375 C 23.589844 7.59375 23.691406 7.65625 23.691406 7.730469 Z M 23.691406 8.3125 "/>
<path fill="none" stroke-width="13.6382" stroke-linecap="round" stroke-linejoin="round" stroke="rgb(100%, 100%, 100%)" stroke-opacity="1" stroke-miterlimit="4" d="M 202.702637 426.716309 L 377.297363 426.716309 " transform="matrix(0.0551724, 0, 0, 0.0551724, 0, 0)"/>
</svg>
