<?xml version="1.0" encoding="UTF-8"?>
<svg xmlns="http://www.w3.org/2000/svg" xmlns:xlink="http://www.w3.org/1999/xlink" width="12" height="12" viewBox="0 0 12 12" version="1.1">
<g id="surface1">
<path style=" stroke:none;fill-rule:nonzero;fill:rgb(100%,100%,100%);fill-opacity:1;" d="M 10.316406 5.734375 L 9.503906 5.734375 L 7.265625 3.816406 L 6.019531 4.203125 L 6.015625 4.671875 L 5.613281 4.671875 L 5.613281 4.386719 C 5.613281 4.320312 5.558594 4.265625 5.492188 4.265625 C 5.421875 4.265625 5.246094 4.320312 5.246094 4.386719 L 5.246094 5.347656 C 5.246094 5.414062 5.421875 5.46875 5.492188 5.46875 C 5.558594 5.46875 5.613281 5.414062 5.613281 5.347656 L 5.613281 5.023438 L 6.011719 5.023438 L 6.003906 5.734375 L 3.707031 5.734375 L 2.714844 3.816406 L 1.671875 4.246094 L 1.671875 5.734375 C 1.277344 5.742188 0.957031 6.0625 0.957031 6.460938 C 0.957031 6.859375 1.28125 7.183594 1.683594 7.183594 L 2.132812 7.183594 C 2.242188 6.585938 2.761719 6.132812 3.390625 6.132812 C 4.015625 6.132812 4.539062 6.585938 4.644531 7.183594 L 6.847656 7.183594 C 6.957031 6.566406 7.496094 6.097656 8.144531 6.097656 C 8.789062 6.097656 9.328125 6.566406 9.4375 7.183594 L 10.316406 7.183594 C 10.714844 7.183594 11.042969 6.859375 11.042969 6.460938 C 11.042969 6.058594 10.714844 5.734375 10.316406 5.734375 Z M 10.316406 5.734375 "/>
<path style=" stroke:none;fill-rule:nonzero;fill:rgb(100%,100%,100%);fill-opacity:1;" d="M 3.402344 6.601562 C 3.003906 6.601562 2.667969 6.886719 2.589844 7.265625 C 2.578125 7.320312 2.570312 7.378906 2.570312 7.433594 C 2.570312 7.894531 2.945312 8.265625 3.402344 8.265625 C 3.863281 8.265625 4.234375 7.894531 4.234375 7.433594 C 4.234375 7.378906 4.230469 7.320312 4.21875 7.265625 C 4.140625 6.886719 3.804688 6.601562 3.402344 6.601562 Z M 3.402344 6.601562 "/>
<path style=" stroke:none;fill-rule:nonzero;fill:rgb(100%,100%,100%);fill-opacity:1;" d="M 8.160156 6.5625 C 7.757812 6.5625 7.421875 6.847656 7.34375 7.226562 C 7.332031 7.28125 7.328125 7.335938 7.328125 7.394531 C 7.328125 7.851562 7.699219 8.226562 8.160156 8.226562 C 8.617188 8.226562 8.988281 7.851562 8.988281 7.394531 C 8.988281 7.335938 8.984375 7.28125 8.972656 7.226562 C 8.894531 6.847656 8.558594 6.5625 8.160156 6.5625 Z M 8.160156 6.5625 "/>
</g>
</svg>
