<?xml version="1.0" encoding="UTF-8"?>
<svg xmlns="http://www.w3.org/2000/svg" xmlns:xlink="http://www.w3.org/1999/xlink" width="32" height="32" viewBox="0 0 32 32">
<defs>
<filter id="filter-remove-color" x="0%" y="0%" width="100%" height="100%">
<feColorMatrix color-interpolation-filters="sRGB" values="0 0 0 0 1 0 0 0 0 1 0 0 0 0 1 0 0 0 1 0" />
</filter>
<mask id="mask-0">
<g filter="url(#filter-remove-color)">
<rect x="-3.2" y="-3.2" width="38.4" height="38.4" fill="rgb(0%, 0%, 0%)" fill-opacity="0.5"/>
</g>
</mask>
<clipPath id="clip-0">
<rect x="0" y="0" width="32" height="32"/>
</clipPath>
<g id="source-9" clip-path="url(#clip-0)">
<path fill-rule="nonzero" fill="rgb(100%, 100%, 100%)" fill-opacity="1" d="M 12.421875 2.734375 C 13.121094 2.96875 13.496094 3.722656 13.265625 4.421875 L 12.960938 5.332031 L 10.148438 5.332031 L 10.734375 3.578125 C 10.96875 2.878906 11.722656 2.503906 12.421875 2.734375 Z M 12.421875 2.734375 "/>
<path fill-rule="nonzero" fill="rgb(100%, 100%, 100%)" fill-opacity="1" d="M 4.039062 23.664062 L 2.734375 27.578125 C 2.503906 28.277344 2.878906 29.03125 3.578125 29.265625 C 4.277344 29.5 5.03125 29.121094 5.265625 28.421875 L 6.738281 24 L 5.332031 24 C 4.863281 24 4.421875 23.878906 4.039062 23.664062 Z M 4.039062 23.664062 "/>
<path fill-rule="nonzero" fill="rgb(100%, 100%, 100%)" fill-opacity="1" d="M 25.261719 24 L 26.734375 28.421875 C 26.96875 29.121094 27.722656 29.5 28.421875 29.265625 C 29.121094 29.03125 29.496094 28.277344 29.265625 27.578125 L 27.960938 23.664062 C 27.578125 23.878906 27.136719 24 26.667969 24 Z M 25.261719 24 "/>
<path fill-rule="nonzero" fill="rgb(100%, 100%, 100%)" fill-opacity="1" d="M 21.851562 5.332031 L 21.265625 3.578125 C 21.03125 2.878906 20.277344 2.503906 19.578125 2.734375 C 18.878906 2.96875 18.503906 3.722656 18.734375 4.421875 L 19.039062 5.332031 Z M 21.851562 5.332031 "/>
</g>
</defs>
<g mask="url(#mask-0)">
<use xlink:href="#source-9"/>
</g>
<path fill-rule="nonzero" fill="rgb(100%, 100%, 100%)" fill-opacity="1" d="M 22.398438 16 L 21.332031 12.445312 L 20.265625 16 Z M 22.398438 16 "/>
<path fill-rule="evenodd" fill="rgb(100%, 100%, 100%)" fill-opacity="1" d="M 5.332031 5.332031 C 3.859375 5.332031 2.667969 6.527344 2.667969 8 L 2.667969 21.332031 C 2.667969 22.804688 3.859375 24 5.332031 24 L 26.667969 24 C 28.140625 24 29.332031 22.804688 29.332031 21.332031 L 29.332031 8 C 29.332031 6.527344 28.140625 5.332031 26.667969 5.332031 Z M 8 10.667969 L 8 8 L 10.667969 8 L 10.667969 10.667969 L 16 10.667969 L 16 17.332031 C 16 19.542969 14.210938 21.332031 12 21.332031 L 10.667969 21.332031 L 10.667969 18.667969 L 12 18.667969 C 12.738281 18.667969 13.332031 18.070312 13.332031 17.332031 L 13.332031 13.332031 L 10.605469 13.332031 C 10.550781 13.820312 10.464844 14.304688 10.34375 14.78125 L 10.015625 16.097656 C 9.464844 18.3125 7.96875 20.171875 5.929688 21.191406 L 4.738281 18.808594 C 6.082031 18.136719 7.066406 16.910156 7.429688 15.449219 L 7.757812 14.136719 C 7.824219 13.871094 7.878906 13.601562 7.917969 13.332031 L 5.332031 13.332031 L 5.332031 10.667969 Z M 26.667969 21.332031 L 22.667969 8 L 20 8 L 16 21.332031 L 18.667969 21.332031 L 19.464844 18.667969 L 23.199219 18.667969 L 24 21.332031 Z M 26.667969 21.332031 "/>
</svg>
