<svg width="12" height="12" viewBox="0 0 48 48" fill="none" xmlns="http://www.w3.org/2000/svg">
<path fill-rule="evenodd" clip-rule="evenodd" d="M4.58579 28.5858C5.36683 27.8047 6.63317 27.8047 7.41421 28.5858L14.2426 35.4142C14.6177 35.7893 15.1264 36 15.6569 36H42C43.1046 36 44 36.8954 44 38C44 39.1046 43.1046 40 42 40H15.6569C14.0656 40 12.5394 39.3679 11.4142 38.2426L4.58579 31.4142C3.80474 30.6332 3.80474 29.3668 4.58579 28.5858Z" fill="#ffffff"/>
<path opacity="0.8" fill-rule="evenodd" clip-rule="evenodd" d="M16 42V40H20V42C20 43.1046 19.1046 44 18 44C16.8954 44 16 43.1046 16 42ZM36 42V40H40V42C40 43.1046 39.1046 44 38 44C36.8954 44 36 43.1046 36 42Z" fill="#ffffff"/>
<path opacity="0.5" fill-rule="evenodd" clip-rule="evenodd" d="M30 24V44H26V24H30Z" fill="#ffffff"/>
<path opacity="0.8" fill-rule="evenodd" clip-rule="evenodd" d="M44 24V20C44 11.1634 36.8366 4 28 4C19.1634 4 12 11.1634 12 20V24H44ZM16 20H20V17.2111C20 14.5056 20.7071 11.8937 21.9973 9.60696C18.412 11.6822 16 15.5594 16 20ZM24 17.2111V20H32V17.2111C32 13.8424 30.5216 10.6694 28 8.50504C25.4784 10.6694 24 13.8424 24 17.2111ZM34.0027 9.60696C35.2929 11.8937 36 14.5056 36 17.2111V20H40C40 15.5594 37.588 11.6822 34.0027 9.60696Z" fill="#ffffff"/>
</svg>
