<?xml version="1.0" encoding="UTF-8"?>
<svg xmlns="http://www.w3.org/2000/svg" xmlns:xlink="http://www.w3.org/1999/xlink" width="12" height="12" viewBox="0 0 12 12" version="1.1">
<g id="surface1">
<path style=" stroke:none;fill-rule:nonzero;fill:rgb(100%,100%,100%);fill-opacity:1;" d="M 7.527344 3.691406 C 7.527344 3.6875 7.523438 3.6875 7.519531 3.6875 C 7.484375 3.667969 7.183594 3.683594 6.851562 3.71875 L 6.25 3.78125 L 6.039062 3.601562 C 5.042969 2.820312 3.949219 2.457031 2.695312 2.378906 C 2.410156 2.386719 1.402344 2.347656 1.316406 2.5 C 1.316406 2.523438 1.453125 2.632812 1.574219 2.785156 C 1.796875 3.074219 2.140625 3.519531 2.082031 3.570312 C 2.054688 3.597656 1.808594 3.402344 1.351562 3.050781 C 0.964844 2.75 0.894531 2.824219 1.121094 3.300781 C 1.394531 3.871094 1.855469 4.519531 2.816406 5.351562 C 3.476562 6.023438 4.308594 6.378906 5.085938 6.855469 C 5.128906 6.898438 5.296875 6.992188 5.453125 7.0625 C 6.332031 7.550781 7.089844 7.921875 7.589844 8.539062 C 8.082031 9.082031 8.074219 9.777344 8.226562 10.4375 C 8.246094 10.457031 8.28125 10.625 8.308594 10.816406 C 8.382812 11.339844 8.492188 11.382812 8.671875 10.96875 C 8.820312 10.628906 9.21875 9.914062 9.304688 9.835938 C 9.671875 9.648438 10.097656 9.40625 10.484375 9.261719 C 10.675781 9.207031 10.8125 9.097656 10.757812 9.039062 C 10.746094 9.03125 10.695312 9.007812 10.636719 8.984375 C 10.578125 8.964844 10.425781 8.90625 10.304688 8.863281 C 10.179688 8.816406 10.015625 8.773438 9.941406 8.765625 C 9.53125 8.679688 9.183594 8.492188 8.894531 8.179688 C 8.625 7.773438 8.242188 7.285156 8.136719 6.71875 C 7.898438 5.925781 7.875 5.859375 7.734375 5.570312 C 7.660156 5.410156 7.597656 5.273438 7.597656 5.261719 C 7.601562 5.25 7.664062 5.242188 7.742188 5.246094 C 7.820312 5.25 7.898438 5.230469 7.917969 5.203125 C 7.9375 5.175781 7.875 4.988281 7.785156 4.789062 C 7.679688 4.554688 7.617188 4.292969 7.605469 4.070312 C 7.597656 3.886719 7.5625 3.722656 7.527344 3.691406 Z M 2.867188 2.917969 C 2.941406 2.992188 2.941406 3.113281 2.867188 3.1875 C 2.792969 3.261719 2.671875 3.261719 2.597656 3.1875 C 2.523438 3.113281 2.523438 2.992188 2.597656 2.917969 C 2.671875 2.84375 2.792969 2.84375 2.867188 2.917969 Z M 2.867188 2.917969 "/>
<path style=" stroke:none;fill-rule:nonzero;fill:rgb(100%,100%,100%);fill-opacity:1;" d="M 3.117188 4.46875 C 3.300781 3.367188 2.738281 4.113281 3.398438 3.855469 L 5.308594 4.101562 C 8.394531 5.882812 3.707031 3.933594 5.664062 5.234375 C 5.636719 5.238281 5.621094 5.398438 5.628906 5.589844 C 5.636719 5.785156 5.585938 5.984375 5.519531 6.03125 C 3.773438 5.527344 4.132812 7.695312 3.164062 6.589844 C 2.691406 6.050781 2.8125 4.292969 3.117188 4.46875 Z M 3.117188 4.46875 "/>
</g>
</svg>
