<?xml version="1.0" encoding="UTF-8"?>
<svg xmlns="http://www.w3.org/2000/svg" xmlns:xlink="http://www.w3.org/1999/xlink" width="32" height="32" viewBox="0 0 32 32">
<path fill-rule="evenodd" fill="rgb(100%, 100%, 100%)" fill-opacity="1" d="M 11.058594 15.347656 C 10.742188 15.390625 10.421875 15.515625 10.132812 15.734375 L 5.867188 18.933594 C 5.523438 19.191406 5.320312 19.605469 5.332031 20.035156 C 5.335938 20.082031 5.339844 20.125 5.34375 20.167969 C 5.390625 20.550781 5.605469 20.894531 5.925781 21.109375 L 9.332031 23.378906 L 9.332031 26.667969 L 12 26.667969 L 12 23.378906 C 12 23.238281 11.988281 23.09375 11.964844 22.957031 C 11.929688 22.726562 11.863281 22.503906 11.769531 22.292969 C 11.714844 22.175781 11.65625 22.0625 11.585938 21.953125 C 11.390625 21.640625 11.128906 21.371094 10.8125 21.160156 L 9.738281 20.445312 L 11.585938 19.210938 C 11.683594 19.328125 11.78125 19.445312 11.882812 19.554688 C 12.179688 19.867188 12.511719 20.148438 12.867188 20.382812 C 13.015625 20.484375 13.171875 20.578125 13.332031 20.664062 C 13.582031 20.796875 13.84375 20.914062 14.109375 21.007812 C 14.707031 21.21875 15.34375 21.332031 16 21.332031 L 16 18.667969 C 15.65625 18.667969 15.320312 18.609375 15.007812 18.496094 C 14.289062 18.242188 13.683594 17.722656 13.332031 17.019531 L 13.296875 16.945312 C 13.09375 15.882812 12.070312 15.210938 11.058594 15.347656 Z M 2.949219 21.472656 C 1.25 21.933594 0 23.488281 0 25.332031 C 0 27.542969 1.789062 29.332031 4 29.332031 C 5.023438 29.332031 5.960938 28.949219 6.667969 28.316406 C 7.160156 27.871094 7.546875 27.304688 7.773438 26.667969 C 7.914062 26.265625 7.996094 25.832031 8 25.378906 C 8 25.363281 8 25.347656 8 25.332031 C 8 24.625 7.816406 23.957031 7.492188 23.378906 C 7.058594 22.613281 6.382812 22 5.566406 21.652344 C 5.085938 21.445312 4.554688 21.332031 4 21.332031 C 3.636719 21.332031 3.28125 21.382812 2.949219 21.472656 Z M 14.667969 28.316406 C 15.375 28.949219 16.308594 29.332031 17.332031 29.332031 C 19.542969 29.332031 21.332031 27.542969 21.332031 25.332031 C 21.332031 23.589844 20.21875 22.109375 18.667969 21.5625 C 18.25 21.414062 17.800781 21.332031 17.332031 21.332031 C 16.867188 21.332031 16.417969 21.414062 16 21.5625 C 15.464844 21.75 14.984375 22.046875 14.582031 22.429688 C 14.289062 22.707031 14.039062 23.027344 13.839844 23.378906 C 13.789062 23.476562 13.738281 23.574219 13.691406 23.671875 C 13.460938 24.179688 13.332031 24.742188 13.332031 25.332031 C 13.332031 25.800781 13.414062 26.25 13.5625 26.667969 C 13.785156 27.304688 14.171875 27.871094 14.667969 28.316406 Z M 17.332031 24 C 16.597656 24 16 24.597656 16 25.332031 C 16 26.070312 16.597656 26.667969 17.332031 26.667969 C 18.070312 26.667969 18.667969 26.070312 18.667969 25.332031 C 18.667969 24.597656 18.070312 24 17.332031 24 Z M 13.339844 13.121094 C 13.335938 13.191406 13.332031 13.261719 13.332031 13.332031 C 13.332031 14.582031 14.191406 15.628906 15.351562 15.921875 C 15.390625 15.929688 15.433594 15.941406 15.472656 15.949219 C 15.582031 15.96875 15.695312 15.984375 15.808594 15.992188 C 15.871094 15.996094 15.933594 16 16 16 C 17.472656 16 18.667969 14.804688 18.667969 13.332031 C 18.667969 11.859375 17.472656 10.667969 16 10.667969 C 14.597656 10.667969 13.449219 11.746094 13.339844 13.121094 Z M 4 26.667969 C 4.738281 26.667969 5.332031 26.070312 5.332031 25.332031 C 5.332031 24.597656 4.738281 24 4 24 C 3.261719 24 2.667969 24.597656 2.667969 25.332031 C 2.667969 26.070312 3.261719 26.667969 4 26.667969 Z M 4 26.667969 "/>
<path fill-rule="evenodd" fill="rgb(100%, 100%, 100%)" fill-opacity="1" d="M 21.332031 2.667969 L 24 2.667969 L 24 10.667969 L 29.332031 10.667969 L 29.332031 13.332031 L 21.332031 13.332031 Z M 21.332031 2.667969 "/>
</svg>
