<svg width="12" height="12" viewBox="0 0 580 580" fill="none" xmlns="http://www.w3.org/2000/svg">
<path d="M165.914 301.445C155.917 311.774 141.478 314.725 132.592 314.725C128.149 314.725 124.817 314.726 121.484 313.25V339.809C124.817 339.809 128.149 341.285 132.592 341.285C151.474 341.285 159.25 335.384 165.914 328.006C175.911 338.335 190.35 341.285 199.236 341.285C208.122 341.285 222.562 338.335 232.559 328.006C242.555 338.335 256.993 341.285 265.879 341.285C274.765 341.285 289.205 338.335 299.201 328.006C309.198 338.335 323.638 341.285 332.523 341.285C339.581 341.285 350.138 339.408 359.193 333.467V306.906C350.138 312.848 339.581 314.725 332.523 314.725C323.638 314.725 309.198 311.774 299.201 301.445C289.205 311.774 274.765 314.725 265.879 314.725C256.993 314.725 242.555 311.774 232.559 301.445C222.562 311.774 208.122 314.725 199.236 314.725C190.35 314.725 175.911 311.774 165.914 301.445Z" fill="#3f3f3f"/>
<path d="M388.621 119.838V533.326L444.327 533.515V119.838H388.621Z" fill="#3f3f3f"/>
<path d="M487.242 385.777C483.291 391.023 478.477 394.41 473.756 396.504V423.91C478.477 421.816 483.291 418.429 487.242 413.184C495.27 423.843 506.862 426.855 513.998 426.855C521.134 426.855 532.724 423.843 540.752 413.184C542.075 414.94 550.874 421.412 552.355 422.775C552.633 412.592 552.56 406.883 552.977 395.889C548.671 393.759 544.347 390.551 540.752 385.777C532.724 396.436 521.134 399.449 513.998 399.449C506.862 399.449 495.27 396.436 487.242 385.777Z" fill="#3f3f3f"/>
<path d="M100.178 301.392C90.2968 311.721 75.9993 314.702 67.2161 314.702C63.1635 314.702 56.5998 313.705 49.7324 311.621C50.0263 321.258 50.1122 327.446 50.2099 336.726C56.1565 338.439 63.6252 341.259 67.2161 341.259C75.9993 341.259 90.2968 338.278 100.178 327.949C110.059 338.278 124.319 341.259 133.102 341.259C141.885 341.259 156.145 338.278 166.026 327.949C175.907 338.278 190.205 341.375 198.987 341.259C215.136 341.045 231.911 327.949 231.911 327.949V301.392C231.911 301.392 214.084 314.916 198.987 314.702C190.205 314.577 175.907 311.721 166.026 301.392C156.145 311.721 141.885 314.702 133.102 314.702C124.319 314.702 110.059 311.721 100.178 301.392Z" fill="#3f3f3f"/>
<path d="M237.467 67.8868C237.166 67.8854 236.847 67.9088 236.528 67.9304H51.0391V156.026H285.225L246.329 74.2604C244.53 70.4636 241.975 67.9043 237.467 67.8868ZM59.6827 94.6908H100.609V141.292H59.6827V94.6908ZM111.37 94.6908H152.296V141.292H111.37V94.6908ZM175.63 94.6908H230.526L251.48 141.292H196.584L175.63 94.6908Z" fill="#3f3f3f"/>
<path d="M52.3262 173.597V272.191H289.175C299.737 271.923 305.333 262.486 306.31 260.775L363.126 173.597H52.3262ZM260.887 180.189C280.097 180.189 295.876 195.99 295.876 215.2C295.876 234.41 280.097 250.167 260.887 250.167C241.677 250.167 225.898 234.41 225.898 215.2C225.898 195.99 241.677 180.189 260.887 180.189ZM260.887 200.161C252.473 200.161 245.87 206.786 245.87 215.2C245.87 223.613 252.473 230.195 260.887 230.195C269.301 230.195 275.904 223.613 275.904 215.2C275.904 206.786 269.301 200.161 260.887 200.161Z" fill="#3f3f3f"/>
<path opacity="0.379" d="M49.5 321.016V533.516H359.203C359.2 533.452 359.196 533.389 359.193 533.326V321.016H49.5Z" fill="#3f3f3f"/>
<path opacity="0.379" d="M473.756 412.232V533.516H551.738V412.232H473.756Z" fill="#3f3f3f"/>
</svg>
