<?xml version="1.0" encoding="UTF-8"?>
<svg xmlns="http://www.w3.org/2000/svg" xmlns:xlink="http://www.w3.org/1999/xlink" width="12" height="12" viewBox="0 0 12 12" version="1.1">
<defs>
<filter id="alpha" filterUnits="objectBoundingBox" x="0%" y="0%" width="100%" height="100%">
  <feColorMatrix type="matrix" in="SourceGraphic" values="0 0 0 0 1 0 0 0 0 1 0 0 0 0 1 0 0 0 1 0"/>
</filter>
<mask id="mask0">
  <g filter="url(#alpha)">
<rect x="0" y="0" width="12" height="12" style="fill:rgb(0%,0%,0%);fill-opacity:0.5;stroke:none;"/>
  </g>
</mask>
<clipPath id="clip1">
  <rect x="0" y="0" width="12" height="12"/>
</clipPath>
<g id="surface5" clip-path="url(#clip1)">
<path style=" stroke:none;fill-rule:nonzero;fill:rgb(100%,100%,100%);fill-opacity:1;" d="M 5 7 L 7 7 L 7 11 L 5 11 Z M 5 7 "/>
</g>
</defs>
<g id="surface1">
<use xlink:href="#surface5" mask="url(#mask0)"/>
<path style=" stroke:none;fill-rule:evenodd;fill:rgb(100%,100%,100%);fill-opacity:1;" d="M 3.5 1 C 2.121094 1 1 2.121094 1 3.5 L 1 7 L 11 7 L 11 3.5 C 11 2.121094 9.878906 1 8.5 1 Z M 5 6 L 5 3.5 C 5 2.671875 4.328125 2 3.5 2 C 2.671875 2 2 2.671875 2 3.5 L 2 6 Z M 7 2.5 C 7 2.222656 7.222656 2 7.5 2 L 9 2 C 9.550781 2 10 2.449219 10 3 L 10 3.5 C 10 3.777344 9.777344 4 9.5 4 C 9.222656 4 9 3.777344 9 3.5 L 9 3 L 7.5 3 C 7.222656 3 7 2.777344 7 2.5 Z M 7 2.5 "/>
</g>
</svg>
