<?xml version="1.0" encoding="UTF-8"?>
<svg xmlns="http://www.w3.org/2000/svg" xmlns:xlink="http://www.w3.org/1999/xlink" width="32" height="32" viewBox="0 0 32 32">
<path fill="none" stroke-width="34.709499" stroke-linecap="round" stroke-linejoin="round" stroke="rgb(100%, 100%, 100%)" stroke-opacity="1" stroke-miterlimit="4" d="M 225.288086 508.208008 L 225.925293 345.083008 " transform="matrix(0.0551724, 0, 0, 0.0551724, 0, 0)"/>
<path fill="none" stroke-width="34.709499" stroke-linecap="round" stroke-linejoin="round" stroke="rgb(100%, 100%, 100%)" stroke-opacity="1" stroke-miterlimit="4" d="M 321.860352 401.298828 L 270.246582 508.42041 " transform="matrix(0.0551724, 0, 0, 0.0551724, 0, 0)"/>
<path fill="none" stroke-width="34.709499" stroke-linecap="round" stroke-linejoin="round" stroke="rgb(100%, 100%, 100%)" stroke-opacity="1" stroke-miterlimit="4" d="M 386.430664 443.708496 L 323.276367 508.208008 " transform="matrix(0.0551724, 0, 0, 0.0551724, 0, 0)"/>
<path fill="none" stroke-width="34.709499" stroke-linecap="round" stroke-linejoin="round" stroke="rgb(100%, 100%, 100%)" stroke-opacity="1" stroke-miterlimit="4" d="M 137.282715 398.183594 L 181.816406 508.42041 " transform="matrix(0.0551724, 0, 0, 0.0551724, 0, 0)"/>
<path fill="none" stroke-width="34.709499" stroke-linecap="round" stroke-linejoin="round" stroke="rgb(100%, 100%, 100%)" stroke-opacity="1" stroke-miterlimit="4" d="M 66.269531 445.690918 L 128.786621 508.208008 " transform="matrix(0.0551724, 0, 0, 0.0551724, 0, 0)"/>
<path fill-rule="nonzero" fill="rgb(100%, 100%, 100%)" fill-opacity="1" d="M 22.1875 2.285156 C 17.949219 2.285156 14.5 5.734375 14.5 9.96875 C 14.5 14.207031 17.949219 17.65625 22.1875 17.65625 C 26.421875 17.65625 29.871094 14.207031 29.871094 9.96875 C 29.871094 5.734375 26.421875 2.285156 22.1875 2.285156 Z M 24.507812 4.007812 C 26.898438 4.933594 28.589844 7.246094 28.589844 9.96875 C 28.589844 10.179688 28.570312 10.386719 28.550781 10.589844 C 27.058594 8.589844 24.367188 8.167969 24.367188 8.167969 C 24.496094 8.359375 24.546875 8.558594 24.546875 8.75 C 24.546875 9.199219 24.292969 9.578125 23.90625 9.769531 C 24.796875 10.769531 25.730469 13.457031 26.046875 15.074219 C 24.976562 15.882812 23.640625 16.375 22.1875 16.375 C 21.335938 16.375 20.523438 16.210938 19.785156 15.914062 C 21.0625 14.242188 22.796875 11.234375 23.027344 9.910156 C 22.515625 9.78125 22.1875 9.320312 22.1875 8.808594 C 22.1875 8.617188 22.242188 8.4375 22.304688 8.308594 C 19.824219 8.539062 17.558594 9.714844 15.960938 11.492188 C 15.84375 11.003906 15.78125 10.496094 15.78125 9.96875 C 15.78125 7.359375 17.332031 5.125 19.566406 4.125 C 20.613281 4.914062 22.214844 6.765625 22.625 7.847656 C 22.820312 7.722656 23.089844 7.609375 23.347656 7.609375 C 23.539062 7.609375 23.777344 7.660156 23.90625 7.789062 C 24.066406 7.414062 24.542969 5.492188 24.507812 4.007812 Z M 24.507812 4.007812 "/>
</svg>
