<?xml version="1.0" encoding="UTF-8"?>
<svg xmlns="http://www.w3.org/2000/svg" xmlns:xlink="http://www.w3.org/1999/xlink" width="12" height="12" viewBox="0 0 12 12" version="1.1">
<g id="surface1">
<path style=" stroke:none;fill-rule:nonzero;fill:rgb(100%,100%,100%);fill-opacity:1;" d="M 1.023438 0.632812 C 0.886719 0.632812 0.777344 0.742188 0.777344 0.878906 L 0.777344 11.121094 C 0.777344 11.257812 0.886719 11.367188 1.023438 11.367188 L 6.425781 11.367188 C 6.558594 11.367188 6.667969 11.257812 6.667969 11.121094 L 6.667969 0.878906 C 6.667969 0.742188 6.558594 0.632812 6.425781 0.632812 Z M 1.492188 1.296875 L 3.398438 1.296875 L 3.398438 3.203125 L 1.492188 3.203125 Z M 3.984375 1.296875 L 5.890625 1.296875 L 5.890625 3.203125 L 3.984375 3.203125 Z M 1.492188 3.589844 L 3.398438 3.589844 L 3.398438 5.5 L 1.492188 5.5 Z M 3.984375 3.589844 L 5.890625 3.589844 L 5.890625 5.5 L 3.984375 5.5 Z M 1.492188 6.5 L 3.398438 6.5 L 3.398438 8.410156 L 1.492188 8.410156 Z M 3.984375 6.5 L 5.890625 6.5 L 5.890625 8.410156 L 3.984375 8.410156 Z M 1.492188 8.796875 L 3.398438 8.796875 L 3.398438 10.703125 L 1.492188 10.703125 Z M 3.984375 8.796875 L 5.890625 8.796875 L 5.890625 10.703125 L 3.984375 10.703125 Z M 3.984375 8.796875 "/>
<path style="fill:none;stroke-width:25;stroke-linecap:butt;stroke-linejoin:miter;stroke:rgb(100%,100%,100%);stroke-opacity:1;stroke-miterlimit:4;" d="M 72.122396 62.682292 L 164.257812 154.817708 " transform="matrix(0.0206897,0,0,0.0206897,0,0)"/>
<path style="fill:none;stroke-width:25;stroke-linecap:butt;stroke-linejoin:miter;stroke:rgb(100%,100%,100%);stroke-opacity:1;stroke-miterlimit:4;" d="M 164.257812 62.682292 L 72.122396 154.817708 " transform="matrix(0.0206897,0,0,0.0206897,0,0)"/>
<path style="fill:none;stroke-width:25;stroke-linecap:butt;stroke-linejoin:miter;stroke:rgb(100%,100%,100%);stroke-opacity:1;stroke-miterlimit:4;" d="M 284.713542 173.509115 L 192.578125 265.833333 " transform="matrix(0.0206897,0,0,0.0206897,0,0)"/>
<path style="fill:none;stroke-width:25;stroke-linecap:butt;stroke-linejoin:miter;stroke:rgb(100%,100%,100%);stroke-opacity:1;stroke-miterlimit:4;" d="M 72.122396 425.182292 L 164.257812 517.317708 " transform="matrix(0.0206897,0,0,0.0206897,0,0)"/>
<path style="fill:none;stroke-width:25;stroke-linecap:butt;stroke-linejoin:miter;stroke:rgb(100%,100%,100%);stroke-opacity:1;stroke-miterlimit:4;" d="M 164.257812 425.182292 L 72.122396 517.317708 " transform="matrix(0.0206897,0,0,0.0206897,0,0)"/>
<path style=" stroke:none;fill-rule:nonzero;fill:rgb(100%,100%,100%);fill-opacity:1;" d="M 10.222656 2.449219 L 9.582031 1.144531 C 9.496094 1.003906 9.261719 1.003906 9.175781 1.144531 L 8.535156 2.449219 Z M 10.222656 2.449219 "/>
<path style=" stroke:none;fill-rule:nonzero;fill:rgb(100%,100%,100%);fill-opacity:1;" d="M 11 3.511719 L 9.582031 1.144531 C 9.496094 1.003906 9.261719 1.003906 9.175781 1.144531 L 7.757812 3.511719 C 7.734375 3.546875 7.722656 3.589844 7.722656 3.632812 L 7.722656 9.785156 C 7.722656 10.4375 8.253906 10.96875 8.90625 10.96875 L 9.851562 10.96875 C 10.503906 10.96875 11.035156 10.4375 11.035156 9.785156 L 11.035156 3.632812 C 11.035156 3.589844 11.023438 3.546875 11 3.511719 Z M 9.378906 1.726562 L 10.382812 3.398438 L 8.378906 3.398438 Z M 8.90625 9.550781 L 8.433594 9.550781 L 8.433594 3.871094 L 8.90625 3.871094 Z M 10.324219 9.550781 L 9.851562 9.550781 L 9.851562 3.871094 L 10.324219 3.871094 Z M 10.324219 9.550781 "/>
<path style="fill:none;stroke-width:25;stroke-linecap:butt;stroke-linejoin:miter;stroke:rgb(100%,100%,100%);stroke-opacity:1;stroke-miterlimit:4;" d="M 192.578125 173.509115 L 284.713542 265.833333 " transform="matrix(0.0206897,0,0,0.0206897,0,0)"/>
</g>
</svg>
