<svg width="12" height="12" viewBox="0 0 580 580" fill="none" xmlns="http://www.w3.org/2000/svg">
<path d="M98.9276 343.315C130.702 343.315 156.461 317.557 156.461 285.782C156.461 254.008 130.702 228.249 98.9276 228.249C67.1531 228.249 41.3954 254.008 41.3954 285.782C41.3954 317.557 67.1531 343.315 98.9276 343.315Z" fill="#39AC39"/>
<path d="M421.517 442.223C424.198 440.412 427.748 440.918 429.704 443.527L440.284 458.236C442.096 460.772 441.588 464.468 438.979 466.425L360.868 523.16C358.332 524.971 354.637 524.465 352.681 521.856L342.101 507.147C340.289 504.611 340.797 500.915 343.405 498.958L421.517 442.223Z" fill="#39AC39"/>
<path d="M316.958 381.212L333.261 369.039L302.249 314.694L285.945 326.577L316.958 381.212Z" fill="#39AC39"/>
<path d="M244.498 254.118L260.947 242.089L140.447 30.5076L117.332 30.6525L244.498 254.118Z" fill="#39AC39"/>
<path d="M374.418 354.04C381.23 349.112 388.983 345.272 397.895 345.272L509.845 345.417C531.656 345.417 549.191 363.097 549.191 384.763C549.191 406.573 531.656 424.108 509.845 424.108L416.445 423.963L297.177 508.161C255.15 538.449 229.644 505.19 229.644 505.19L136.027 411.5C120.303 392.661 123.708 356.866 142.548 340.997L272.106 248.756C285.003 238.032 304.06 239.698 315.002 252.451C325.726 265.349 324.059 284.551 311.161 295.347L228.195 356.069L287.757 414.978L374.418 354.04Z" fill="#39AC39"/>
</svg>
