<?xml version="1.0" encoding="UTF-8"?>
<svg xmlns="http://www.w3.org/2000/svg" xmlns:xlink="http://www.w3.org/1999/xlink" width="32" height="32" viewBox="0 0 32 32">
<path fill-rule="nonzero" fill="rgb(91.372549%, 29.411765%, 29.411765%)" fill-opacity="0.591133" d="M 15.226562 29.792969 L 15.28125 15.722656 Z M 15.226562 29.792969 "/>
<path fill="none" stroke-width="37.584" stroke-linecap="butt" stroke-linejoin="round" stroke="rgb(24.705882%, 24.705882%, 24.705882%)" stroke-opacity="1" stroke-miterlimit="4" d="M 275.981445 539.997559 L 276.972656 284.973145 " transform="matrix(0.0551724, 0, 0, 0.0551724, 0, 0)"/>
<path fill-rule="nonzero" fill="rgb(24.705882%, 24.705882%, 24.705882%)" fill-opacity="1" d="M 11.507812 2.429688 L 7.140625 14.171875 L 8.605469 15.964844 C 8.910156 16.246094 8.824219 16.195312 8.910156 16.246094 L 20.699219 16.246094 C 20.894531 16.246094 21.109375 16.085938 21.179688 15.890625 L 25.136719 4.929688 C 25.179688 4.8125 25.160156 4.710938 25.097656 4.644531 L 25.121094 4.644531 L 22.648438 2.429688 Z M 13.722656 5.679688 L 16.039062 5.679688 L 15.203125 7.996094 L 12.886719 7.996094 Z M 17.390625 5.679688 L 19.710938 5.679688 L 18.871094 7.996094 L 16.554688 7.996094 Z M 21.0625 5.679688 L 23.378906 5.679688 L 22.542969 7.996094 L 20.222656 7.996094 Z M 12.46875 9.15625 L 14.785156 9.15625 L 13.949219 11.472656 L 11.632812 11.472656 Z M 16.136719 9.15625 L 18.453125 9.15625 L 17.617188 11.472656 L 15.300781 11.472656 Z M 19.804688 9.15625 L 22.125 9.15625 L 21.285156 11.472656 L 18.96875 11.472656 Z M 11.234375 12.574219 L 13.550781 12.574219 L 12.714844 14.894531 L 10.394531 14.894531 Z M 14.902344 12.574219 L 17.21875 12.574219 L 16.382812 14.894531 L 14.066406 14.894531 Z M 18.570312 12.574219 L 20.886719 12.574219 L 20.050781 14.894531 L 17.734375 14.894531 Z M 18.570312 12.574219 "/>
</svg>
