<?xml version="1.0" encoding="UTF-8"?>
<svg xmlns="http://www.w3.org/2000/svg" xmlns:xlink="http://www.w3.org/1999/xlink" width="32" height="32" viewBox="0 0 32 32">
<path fill-rule="nonzero" fill="rgb(100%, 100%, 100%)" fill-opacity="1" d="M 10.632812 3.128906 C 10.632812 3.128906 14.871094 3.03125 19.835938 6.871094 C 19.835938 6.871094 24.25 2.597656 31.21875 3.007812 C 26.792969 3.472656 21.816406 7.207031 19.835938 10.214844 C 19.835938 10.214844 15.074219 4.578125 10.632812 3.128906 Z M 10.632812 3.128906 "/>
<path fill-rule="nonzero" fill="rgb(100%, 100%, 100%)" fill-opacity="1" d="M 15.128906 14.726562 L 12.769531 14.726562 C 12.4375 14.726562 12.167969 14.457031 12.167969 14.121094 L 12.167969 12.96875 C 12.167969 12.636719 12.4375 12.367188 12.769531 12.367188 L 15.128906 12.367188 C 15.464844 12.367188 15.734375 12.636719 15.734375 12.96875 L 15.734375 14.125 C 15.734375 14.457031 15.464844 14.726562 15.128906 14.726562 Z M 15.128906 14.726562 "/>
<path fill-rule="nonzero" fill="rgb(100%, 100%, 100%)" fill-opacity="1" d="M 5.089844 15.277344 L 16.535156 15.277344 L 18.242188 21 L 18.242188 28.832031 L 18.210938 28.832031 C 18.003906 29.601562 16.871094 30.1875 15.507812 30.1875 C 14.140625 30.1875 13.007812 29.601562 12.804688 28.832031 L 12.769531 28.832031 L 12.769531 21.898438 L 11.515625 22.105469 L 11.515625 19.980469 L 10.109375 19.980469 L 10.109375 22.105469 L 8.855469 21.898438 L 8.855469 28.832031 L 8.820312 28.832031 C 8.617188 29.601562 7.484375 30.1875 6.117188 30.1875 C 4.753906 30.1875 3.621094 29.601562 3.417969 28.832031 L 3.382812 28.832031 L 3.382812 21 Z M 5.089844 15.277344 "/>
<path fill-rule="nonzero" fill="rgb(100%, 100%, 100%)" fill-opacity="1" d="M 8.855469 14.726562 L 6.496094 14.726562 C 6.164062 14.726562 5.894531 14.457031 5.894531 14.121094 L 5.894531 12.96875 C 5.894531 12.636719 6.164062 12.367188 6.496094 12.367188 L 8.855469 12.367188 C 9.1875 12.367188 9.457031 12.636719 9.457031 12.96875 L 9.457031 14.125 C 9.457031 14.457031 9.1875 14.726562 8.855469 14.726562 Z M 8.855469 14.726562 "/>
</svg>
