<?xml version="1.0" encoding="UTF-8"?>
<svg xmlns="http://www.w3.org/2000/svg" xmlns:xlink="http://www.w3.org/1999/xlink" width="12" height="12" viewBox="0 0 12 12" version="1.1">
<g id="surface1">
<path style=" stroke:none;fill-rule:nonzero;fill:rgb(100%,100%,100%);fill-opacity:1;" d="M 9.285156 9.097656 C 9.597656 8.941406 9.894531 8.566406 9.957031 8.242188 C 10.003906 8.003906 10.015625 8 10.421875 8 C 10.761719 8 10.871094 7.964844 11.023438 7.8125 C 11.417969 7.414062 11.136719 6.773438 10.566406 6.773438 C 10.34375 6.773438 10.292969 6.742188 10.292969 6.621094 C 10.292969 6.46875 10.242188 6.464844 5.695312 6.511719 L 1.097656 6.511719 L 1.097656 8 L 2 8 L 2.050781 8.269531 C 2.121094 8.632812 2.609375 9.121094 2.972656 9.191406 C 3.121094 9.21875 3.367188 9.21875 3.515625 9.191406 C 3.878906 9.121094 4.367188 8.632812 4.4375 8.269531 C 4.507812 7.894531 4.738281 7.894531 4.808594 8.269531 C 4.878906 8.632812 5.367188 9.121094 5.730469 9.191406 C 5.878906 9.21875 6.125 9.21875 6.273438 9.191406 C 6.636719 9.121094 7.125 8.632812 7.195312 8.269531 C 7.261719 7.910156 7.496094 7.894531 7.5625 8.242188 C 7.714844 8.996094 8.597656 9.433594 9.285156 9.097656 Z M 8.363281 8.714844 C 7.628906 8.28125 7.925781 7.160156 8.777344 7.160156 C 9.417969 7.160156 9.808594 7.828125 9.507812 8.410156 C 9.308594 8.796875 8.753906 8.945312 8.363281 8.714844 Z M 5.613281 8.699219 C 4.894531 8.273438 5.1875 7.171875 6.019531 7.171875 C 6.652344 7.171875 7.035156 7.828125 6.738281 8.402344 C 6.542969 8.78125 5.996094 8.925781 5.613281 8.699219 Z M 2.859375 8.695312 C 2.144531 8.273438 2.433594 7.175781 3.265625 7.175781 C 3.890625 7.175781 4.269531 7.832031 3.976562 8.402344 C 3.78125 8.777344 3.238281 8.921875 2.859375 8.695312 Z M 10.832031 5.835938 C 11.113281 5.210938 10.972656 4.4375 10.527344 4.183594 C 10.324219 4.070312 10.113281 4.007812 10.113281 3.726562 L 10.109375 3.402344 L 8.886719 3.402344 L 8.886719 4.015625 L 4.207031 4.015625 L 4.207031 6.160156 L 10.683594 6.160156 Z M 3.855469 4.472656 L 3.855469 2.789062 L 0.792969 2.789062 L 0.792969 3.472656 C 0.792969 3.667969 0.84375 3.8125 0.945312 3.90625 C 1.085938 4.03125 1.097656 4.578125 1.097656 4.90625 L 1.097656 6.160156 L 3.855469 6.160156 Z M 2.019531 4.015625 L 2.019531 3.402344 L 3.242188 3.402344 L 3.242188 4.628906 L 2.019531 4.628906 Z M 2.019531 4.015625 "/>
</g>
</svg>
