<?xml version="1.0" encoding="UTF-8"?>
<svg xmlns="http://www.w3.org/2000/svg" xmlns:xlink="http://www.w3.org/1999/xlink" width="12" height="12" viewBox="0 0 12 12" version="1.1">
<g id="surface1">
<path style=" stroke:none;fill-rule:nonzero;fill:rgb(100%,100%,100%);fill-opacity:1;" d="M 4.054688 6.742188 C 4.039062 8.800781 2.800781 9.851562 1.820312 10.441406 C 2.039062 10.417969 3.636719 10.402344 4.585938 10.132812 C 4.964844 9.925781 5.28125 9.152344 5.28125 9.152344 C 5.492188 10.746094 6.160156 10.953125 6.117188 10.964844 C 6.554688 10.90625 7.546875 8.941406 7.546875 8.941406 C 7.546875 8.941406 7.414062 9.648438 7.421875 9.921875 C 8.332031 10.632812 9.027344 10.757812 10.234375 10.316406 C 9.554688 9.925781 9.21875 9.6875 8.785156 9.152344 C 8.542969 8.855469 8.582031 7.664062 8.59375 6.726562 C 8.328125 7.480469 5.234375 8.050781 4.054688 6.742188 Z M 4.054688 6.742188 "/>
<path style=" stroke:none;fill-rule:nonzero;fill:rgb(100%,100%,100%);fill-opacity:1;" d="M 7.519531 5.335938 C 7.511719 5.386719 7.5 5.441406 7.488281 5.496094 C 7.464844 5.648438 7.46875 5.695312 7.457031 5.789062 C 7.578125 5.789062 7.785156 5.785156 7.855469 5.816406 C 8.074219 5.90625 8.039062 6.242188 7.71875 6.226562 L 5.691406 6.230469 C 5.613281 6.230469 5.539062 6.207031 5.476562 6.167969 C 5.21875 6.003906 5.050781 5.832031 4.945312 5.683594 C 4.890625 5.609375 4.855469 5.542969 4.832031 5.492188 C 4.824219 5.480469 4.820312 5.46875 4.816406 5.460938 C 4.402344 5.632812 4.167969 5.871094 4.167969 6.117188 C 4.167969 6.632812 5.144531 7.046875 6.355469 7.046875 C 7.5625 7.046875 8.542969 6.632812 8.542969 6.117188 C 8.542969 5.800781 8.15625 5.503906 7.519531 5.335938 Z M 7.519531 5.335938 "/>
<path style=" stroke:none;fill-rule:nonzero;fill:rgb(100%,100%,100%);fill-opacity:1;" d="M 2.113281 0.960938 C 1.972656 0.957031 1.820312 1.125 1.730469 1.382812 C 1.625 1.683594 1.703125 1.996094 1.707031 2.007812 C 1.707031 2.011719 1.707031 2.015625 1.710938 2.019531 C 1.714844 2.03125 1.746094 2.105469 1.824219 2.152344 C 1.839844 2.164062 1.980469 2.246094 2.082031 2.242188 C 2.09375 2.242188 2.109375 2.238281 2.140625 2.234375 C 2.261719 2.207031 2.636719 2.121094 3.035156 2.320312 C 3.292969 2.445312 3.5625 2.65625 3.847656 2.878906 C 4.097656 3.078125 4.355469 3.28125 4.613281 3.429688 C 4.949219 3.621094 5.453125 3.855469 5.789062 4.003906 C 5.953125 3.773438 6.15625 3.445312 6.230469 3.289062 C 6.3125 3.125 6.421875 2.914062 6.496094 2.777344 C 6.402344 2.730469 6.296875 2.71875 6.15625 2.710938 C 5.90625 2.691406 5.523438 2.664062 4.949219 2.382812 C 4.796875 2.308594 4.640625 2.183594 4.460938 2.042969 C 4.207031 1.839844 3.917969 1.613281 3.527344 1.421875 C 2.765625 1.046875 2.214844 0.964844 2.113281 0.960938 Z M 6.964844 2.753906 C 6.925781 2.757812 6.890625 2.78125 6.871094 2.816406 C 6.863281 2.835938 6.65625 3.214844 6.535156 3.464844 C 6.417969 3.703125 6.011719 4.332031 5.847656 4.488281 C 5.671875 4.65625 5.226562 5.101562 5.132812 5.179688 C 5.257812 5.488281 5.59375 5.773438 5.6875 5.835938 L 7.039062 5.832031 C 7.066406 5.667969 7.121094 5.203125 7.199219 5.007812 C 7.242188 4.894531 7.304688 4.753906 7.371094 4.609375 L 7.632812 4.730469 C 7.6875 4.753906 7.75 4.734375 7.78125 4.6875 C 7.789062 4.679688 7.890625 4.519531 8.039062 4.21875 C 8.1875 3.914062 8.222656 3.761719 8.222656 3.753906 C 8.230469 3.726562 8.226562 3.699219 8.214844 3.675781 C 8.203125 3.652344 8.183594 3.636719 8.15625 3.625 L 7.90625 3.507812 L 7.992188 3.34375 C 8.007812 3.304688 8.003906 3.261719 7.980469 3.226562 C 7.960938 3.191406 7.875 3.09375 7.53125 2.925781 C 7.167969 2.746094 6.996094 2.75 6.964844 2.753906 Z M 6.964844 2.753906 "/>
</g>
</svg>
