<?xml version="1.0" encoding="UTF-8"?>
<svg xmlns="http://www.w3.org/2000/svg" xmlns:xlink="http://www.w3.org/1999/xlink" width="32" height="32" viewBox="0 0 32 32">
<defs>
<filter id="filter-remove-color" x="0%" y="0%" width="100%" height="100%">
<feColorMatrix color-interpolation-filters="sRGB" values="0 0 0 0 1 0 0 0 0 1 0 0 0 0 1 0 0 0 1 0" />
</filter>
<mask id="mask-0">
<g filter="url(#filter-remove-color)">
<rect x="-3.2" y="-3.2" width="38.4" height="38.4" fill="rgb(0%, 0%, 0%)" fill-opacity="0.379"/>
</g>
</mask>
<clipPath id="clip-0">
<rect x="0" y="0" width="32" height="32"/>
</clipPath>
<g id="source-12" clip-path="url(#clip-0)">
<path fill-rule="nonzero" fill="rgb(100%, 100%, 100%)" fill-opacity="1" d="M 2.730469 17.710938 L 2.730469 29.433594 L 19.816406 29.433594 C 19.816406 29.433594 19.816406 29.429688 19.816406 29.425781 L 19.816406 17.710938 Z M 2.730469 17.710938 "/>
</g>
<mask id="mask-1">
<g filter="url(#filter-remove-color)">
<rect x="-3.2" y="-3.2" width="38.4" height="38.4" fill="rgb(0%, 0%, 0%)" fill-opacity="0.379"/>
</g>
</mask>
<clipPath id="clip-1">
<rect x="0" y="0" width="32" height="32"/>
</clipPath>
<g id="source-16" clip-path="url(#clip-1)">
<path fill-rule="nonzero" fill="rgb(100%, 100%, 100%)" fill-opacity="1" d="M 26.136719 22.742188 L 26.136719 29.433594 L 30.441406 29.433594 L 30.441406 22.742188 Z M 26.136719 22.742188 "/>
</g>
</defs>
<path fill-rule="nonzero" fill="rgb(100%, 100%, 100%)" fill-opacity="1" d="M 9.152344 16.632812 C 8.601562 17.203125 7.804688 17.363281 7.316406 17.363281 C 7.070312 17.363281 6.886719 17.363281 6.703125 17.28125 L 6.703125 18.75 C 6.886719 18.75 7.070312 18.828125 7.316406 18.828125 C 8.355469 18.828125 8.785156 18.503906 9.152344 18.097656 C 9.707031 18.667969 10.503906 18.828125 10.992188 18.828125 C 11.484375 18.828125 12.277344 18.667969 12.832031 18.097656 C 13.382812 18.667969 14.179688 18.828125 14.667969 18.828125 C 15.160156 18.828125 15.957031 18.667969 16.507812 18.097656 C 17.058594 18.667969 17.855469 18.828125 18.347656 18.828125 C 18.734375 18.828125 19.316406 18.726562 19.816406 18.398438 L 19.816406 16.933594 C 19.316406 17.261719 18.734375 17.363281 18.347656 17.363281 C 17.855469 17.363281 17.058594 17.203125 16.507812 16.632812 C 15.957031 17.203125 15.160156 17.363281 14.667969 17.363281 C 14.179688 17.363281 13.382812 17.203125 12.832031 16.632812 C 12.277344 17.203125 11.484375 17.363281 10.992188 17.363281 C 10.503906 17.363281 9.707031 17.203125 9.152344 16.632812 Z M 9.152344 16.632812 "/>
<path fill-rule="nonzero" fill="rgb(100%, 100%, 100%)" fill-opacity="1" d="M 21.441406 6.613281 L 21.441406 29.425781 L 24.515625 29.433594 L 24.515625 6.613281 Z M 21.441406 6.613281 "/>
<path fill-rule="nonzero" fill="rgb(100%, 100%, 100%)" fill-opacity="1" d="M 26.882812 21.285156 C 26.664062 21.574219 26.398438 21.761719 26.136719 21.875 L 26.136719 23.386719 C 26.398438 23.273438 26.664062 23.085938 26.882812 22.796875 C 27.324219 23.382812 27.964844 23.550781 28.359375 23.550781 C 28.753906 23.550781 29.390625 23.382812 29.835938 22.796875 C 29.90625 22.894531 30.394531 23.25 30.476562 23.324219 C 30.488281 22.765625 30.484375 22.449219 30.507812 21.84375 C 30.273438 21.726562 30.03125 21.546875 29.835938 21.285156 C 29.390625 21.871094 28.753906 22.039062 28.359375 22.039062 C 27.964844 22.039062 27.324219 21.871094 26.882812 21.285156 Z M 26.882812 21.285156 "/>
<path fill-rule="nonzero" fill="rgb(100%, 100%, 100%)" fill-opacity="1" d="M 5.527344 16.628906 C 4.980469 17.199219 4.191406 17.363281 3.707031 17.363281 C 3.484375 17.363281 3.121094 17.308594 2.742188 17.191406 C 2.761719 17.722656 2.765625 18.066406 2.769531 18.578125 C 3.097656 18.671875 3.511719 18.828125 3.707031 18.828125 C 4.191406 18.828125 4.980469 18.664062 5.527344 18.09375 C 6.070312 18.664062 6.859375 18.828125 7.34375 18.828125 C 7.828125 18.828125 8.613281 18.664062 9.160156 18.09375 C 9.707031 18.664062 10.492188 18.835938 10.980469 18.828125 C 11.871094 18.816406 12.796875 18.09375 12.796875 18.09375 L 12.796875 16.628906 C 12.796875 16.628906 11.8125 17.375 10.980469 17.363281 C 10.492188 17.355469 9.707031 17.199219 9.160156 16.628906 C 8.613281 17.199219 7.828125 17.363281 7.34375 17.363281 C 6.859375 17.363281 6.070312 17.199219 5.527344 16.628906 Z M 5.527344 16.628906 "/>
<path fill-rule="nonzero" fill="rgb(100%, 100%, 100%)" fill-opacity="1" d="M 13.101562 3.746094 C 13.085938 3.746094 13.066406 3.746094 13.050781 3.746094 L 2.816406 3.746094 L 2.816406 8.609375 L 15.738281 8.609375 L 13.589844 4.097656 C 13.492188 3.886719 13.351562 3.746094 13.101562 3.746094 Z M 3.292969 5.222656 L 5.550781 5.222656 L 5.550781 7.796875 L 3.292969 7.796875 Z M 6.144531 5.222656 L 8.402344 5.222656 L 8.402344 7.796875 L 6.144531 7.796875 Z M 9.691406 5.222656 L 12.71875 5.222656 L 13.875 7.796875 L 10.847656 7.796875 Z M 9.691406 5.222656 "/>
<path fill-rule="nonzero" fill="rgb(100%, 100%, 100%)" fill-opacity="1" d="M 2.886719 9.578125 L 2.886719 15.015625 L 15.953125 15.015625 C 16.539062 15.003906 16.847656 14.480469 16.898438 14.386719 L 20.035156 9.578125 Z M 14.394531 9.941406 C 15.453125 9.941406 16.324219 10.8125 16.324219 11.875 C 16.324219 12.933594 15.453125 13.800781 14.394531 13.800781 C 13.332031 13.800781 12.464844 12.933594 12.464844 11.875 C 12.464844 10.8125 13.332031 9.941406 14.394531 9.941406 Z M 14.394531 11.042969 C 13.929688 11.042969 13.566406 11.410156 13.566406 11.875 C 13.566406 12.335938 13.929688 12.699219 14.394531 12.699219 C 14.859375 12.699219 15.222656 12.335938 15.222656 11.875 C 15.222656 11.410156 14.859375 11.042969 14.394531 11.042969 Z M 14.394531 11.042969 "/>
<g mask="url(#mask-0)">
<use xlink:href="#source-12"/>
</g>
<g mask="url(#mask-1)">
<use xlink:href="#source-16"/>
</g>
</svg>
