<?xml version="1.0" encoding="UTF-8"?>
<svg xmlns="http://www.w3.org/2000/svg" xmlns:xlink="http://www.w3.org/1999/xlink" width="12" height="12" viewBox="0 0 12 12" version="1.1">
<g id="surface1">
<path style=" stroke:none;fill-rule:nonzero;fill:rgb(100%,100%,100%);fill-opacity:1;" d="M 3.988281 1.171875 C 3.988281 1.171875 5.578125 1.136719 7.4375 2.578125 C 7.4375 2.578125 9.09375 0.972656 11.707031 1.128906 C 10.046875 1.300781 8.179688 2.703125 7.4375 3.828125 C 7.4375 3.828125 5.652344 1.714844 3.988281 1.171875 Z M 3.988281 1.171875 "/>
<path style=" stroke:none;fill-rule:nonzero;fill:rgb(100%,100%,100%);fill-opacity:1;" d="M 5.675781 5.523438 L 4.789062 5.523438 C 4.664062 5.523438 4.5625 5.421875 4.5625 5.296875 L 4.5625 4.863281 C 4.5625 4.738281 4.664062 4.636719 4.789062 4.636719 L 5.675781 4.636719 C 5.796875 4.636719 5.898438 4.738281 5.898438 4.863281 L 5.898438 5.296875 C 5.898438 5.421875 5.796875 5.523438 5.675781 5.523438 Z M 5.675781 5.523438 "/>
<path style=" stroke:none;fill-rule:nonzero;fill:rgb(100%,100%,100%);fill-opacity:1;" d="M 1.910156 5.730469 L 6.199219 5.730469 L 6.839844 7.875 L 6.839844 10.8125 L 6.828125 10.8125 C 6.75 11.101562 6.328125 11.320312 5.816406 11.320312 C 5.304688 11.320312 4.878906 11.101562 4.800781 10.8125 L 4.789062 10.8125 L 4.789062 8.210938 L 4.316406 8.289062 L 4.316406 7.492188 L 3.792969 7.492188 L 3.792969 8.289062 L 3.320312 8.210938 L 3.320312 10.8125 L 3.308594 10.8125 C 3.230469 11.101562 2.804688 11.320312 2.292969 11.320312 C 1.78125 11.320312 1.359375 11.101562 1.28125 10.8125 L 1.269531 10.8125 L 1.269531 7.875 Z M 1.910156 5.730469 "/>
<path style=" stroke:none;fill-rule:nonzero;fill:rgb(100%,100%,100%);fill-opacity:1;" d="M 3.320312 5.523438 L 2.4375 5.523438 C 2.3125 5.523438 2.210938 5.421875 2.210938 5.296875 L 2.210938 4.863281 C 2.210938 4.738281 2.3125 4.636719 2.4375 4.636719 L 3.320312 4.636719 C 3.445312 4.636719 3.546875 4.738281 3.546875 4.863281 L 3.546875 5.296875 C 3.546875 5.421875 3.445312 5.523438 3.320312 5.523438 Z M 3.320312 5.523438 "/>
</g>
</svg>
