<?xml version="1.0" encoding="UTF-8"?>
<svg xmlns="http://www.w3.org/2000/svg" xmlns:xlink="http://www.w3.org/1999/xlink" width="12" height="12" viewBox="0 0 12 12" version="1.1">
<g id="surface1">
<path style=" stroke:none;fill-rule:nonzero;fill:rgb(100%,100%,100%);fill-opacity:1;" d="M 5.542969 1.746094 C 5.492188 1.746094 5.441406 1.765625 5.410156 1.808594 C 5.113281 2.152344 4.882812 2.929688 3.144531 2.890625 C 3.109375 2.894531 3.078125 2.910156 3.050781 2.929688 L 3.042969 2.921875 L 2.519531 3.675781 C 2.484375 3.746094 2.5 3.828125 2.554688 3.882812 C 2.949219 4.265625 3.878906 5.121094 3.878906 6.214844 C 3.878906 7.277344 2.984375 8.113281 2.609375 8.496094 C 2.550781 8.554688 2.542969 8.648438 2.589844 8.71875 L 3.074219 9.445312 C 3.078125 9.453125 3.085938 9.457031 3.089844 9.464844 C 3.09375 9.46875 3.09375 9.46875 3.097656 9.472656 C 3.113281 9.488281 3.128906 9.496094 3.144531 9.503906 C 3.148438 9.507812 3.15625 9.507812 3.160156 9.511719 C 3.179688 9.515625 3.199219 9.523438 3.21875 9.523438 C 4.699219 9.523438 5.234375 9.683594 5.902344 10.457031 C 5.949219 10.496094 5.992188 10.527344 6.027344 10.554688 C 6.058594 10.574219 6.09375 10.585938 6.132812 10.585938 C 6.167969 10.585938 6.203125 10.574219 6.234375 10.554688 C 6.269531 10.527344 6.3125 10.496094 6.359375 10.457031 C 6.964844 9.710938 7.65625 9.5 8.746094 9.53125 L 9.078125 9.492188 L 9.074219 9.492188 C 9.199219 9.464844 9.277344 9.292969 9.347656 9.207031 L 9.675781 8.71875 C 9.71875 8.648438 9.710938 8.558594 9.652344 8.496094 C 9.277344 8.117188 8.488281 7.277344 8.488281 6.214844 C 8.488281 5.121094 9.3125 4.265625 9.707031 3.882812 C 9.757812 3.835938 9.773438 3.761719 9.753906 3.699219 L 9.53125 3.03125 C 9.507812 2.960938 9.445312 2.914062 9.371094 2.910156 C 7.246094 2.949219 7.113281 2.113281 6.855469 1.808594 C 6.820312 1.765625 6.769531 1.746094 6.71875 1.746094 Z M 5.542969 1.746094 "/>
</g>
</svg>
