<?xml version="1.0" encoding="UTF-8"?>
<svg xmlns="http://www.w3.org/2000/svg" xmlns:xlink="http://www.w3.org/1999/xlink" width="32" height="32" viewBox="0 0 32 32">
<path fill-rule="nonzero" fill="rgb(100%, 100%, 100%)" fill-opacity="1" d="M 14.78125 4.652344 C 14.644531 4.652344 14.511719 4.714844 14.421875 4.820312 C 13.640625 5.742188 13.023438 7.8125 8.390625 7.703125 C 8.292969 7.714844 8.203125 7.753906 8.132812 7.816406 L 8.109375 7.789062 L 6.714844 9.804688 C 6.628906 9.988281 6.667969 10.207031 6.8125 10.351562 C 7.863281 11.378906 10.347656 13.652344 10.347656 16.578125 C 10.347656 19.402344 7.957031 21.640625 6.960938 22.65625 C 6.804688 22.816406 6.78125 23.0625 6.90625 23.25 L 8.195312 25.183594 C 8.207031 25.203125 8.226562 25.21875 8.242188 25.238281 C 8.25 25.246094 8.253906 25.253906 8.261719 25.261719 C 8.300781 25.296875 8.34375 25.328125 8.390625 25.347656 C 8.402344 25.355469 8.410156 25.355469 8.421875 25.359375 C 8.472656 25.378906 8.53125 25.390625 8.585938 25.394531 C 12.535156 25.394531 13.957031 25.828125 15.738281 27.886719 C 15.867188 27.988281 15.980469 28.074219 16.074219 28.140625 C 16.15625 28.199219 16.253906 28.230469 16.351562 28.230469 C 16.449219 28.230469 16.542969 28.199219 16.625 28.140625 C 16.71875 28.074219 16.832031 27.988281 16.960938 27.886719 C 18.570312 25.894531 20.417969 25.328125 23.328125 25.417969 L 24.207031 25.316406 L 24.199219 25.308594 C 24.53125 25.242188 24.742188 24.777344 24.925781 24.554688 L 25.796875 23.25 C 25.921875 23.066406 25.898438 22.820312 25.742188 22.660156 C 24.746094 21.640625 22.628906 19.402344 22.628906 16.578125 C 22.628906 13.652344 24.835938 11.378906 25.890625 10.351562 C 26.019531 10.222656 26.066406 10.035156 26.007812 9.863281 L 25.410156 8.078125 C 25.351562 7.894531 25.183594 7.765625 24.988281 7.757812 C 19.324219 7.859375 18.96875 5.632812 18.277344 4.820312 C 18.1875 4.714844 18.058594 4.652344 17.917969 4.652344 Z M 14.78125 4.652344 "/>
</svg>
