<?xml version="1.0" encoding="UTF-8"?>
<svg xmlns="http://www.w3.org/2000/svg" xmlns:xlink="http://www.w3.org/1999/xlink" width="12" height="12" viewBox="0 0 12 12" version="1.1">
<g id="surface1">
<path style=" stroke:none;fill-rule:nonzero;fill:rgb(100%,100%,100%);fill-opacity:1;" d="M 9.890625 2.753906 C 10.410156 2.753906 10.828125 2.332031 10.828125 1.8125 C 10.828125 1.296875 10.410156 0.875 9.890625 0.875 C 9.371094 0.875 8.953125 1.296875 8.953125 1.8125 C 8.953125 2.332031 9.371094 2.753906 9.890625 2.753906 Z M 9.890625 2.753906 "/>
<path style=" stroke:none;fill-rule:nonzero;fill:rgb(100%,100%,100%);fill-opacity:1;" d="M 7.222656 10.757812 L 9.648438 10.757812 C 9.648438 10.757812 9.832031 10.777344 9.832031 10.585938 L 9.832031 10.394531 L 10.191406 10.394531 C 10.191406 10.394531 10.273438 11.050781 9.785156 11.113281 L 7.222656 11.113281 Z M 7.222656 10.757812 "/>
<path style=" stroke:none;fill-rule:nonzero;fill:rgb(100%,100%,100%);fill-opacity:1;" d="M 1.175781 8.886719 L 2.890625 10.601562 C 2.890625 10.601562 3.007812 10.742188 3.144531 10.605469 L 3.28125 10.46875 L 3.535156 10.722656 C 3.535156 10.722656 3.125 11.246094 2.738281 10.945312 L 0.929688 9.136719 Z M 1.175781 8.886719 "/>
<path style=" stroke:none;fill-rule:nonzero;fill:rgb(100%,100%,100%);fill-opacity:1;" d="M 7.796875 8.289062 L 7.796875 9.988281 C 7.796875 10.308594 8.054688 10.566406 8.378906 10.566406 C 8.667969 10.566406 8.953125 10.226562 8.953125 9.988281 L 8.953125 7.621094 C 8.953125 7.457031 8.886719 7.308594 8.773438 7.203125 L 7.386719 5.820312 L 9.226562 3.980469 C 9.574219 3.546875 9.390625 3.03125 9.390625 3.03125 C 9.199219 2.457031 8.550781 2.4375 8.550781 2.4375 L 3.804688 2.433594 C 3.550781 2.433594 3.347656 2.640625 3.347656 2.894531 C 3.347656 3.148438 3.550781 3.351562 3.804688 3.351562 L 7.082031 3.355469 L 5.699219 4.730469 C 5.503906 4.933594 5.402344 5.160156 5.402344 5.457031 C 5.402344 5.742188 5.515625 5.996094 5.707031 6.183594 Z M 7.796875 8.289062 "/>
<path style=" stroke:none;fill-rule:nonzero;fill:rgb(100%,100%,100%);fill-opacity:1;" d="M 5.414062 6.441406 C 5.371094 6.398438 5.328125 6.351562 5.292969 6.300781 L 2.554688 9.042969 C 2.347656 9.210938 2.28125 9.503906 2.40625 9.75 C 2.546875 10.027344 2.890625 10.140625 3.171875 9.996094 C 3.210938 9.976562 3.246094 9.953125 3.277344 9.925781 L 6.085938 7.113281 Z M 5.414062 6.441406 "/>
</g>
</svg>
