<?xml version="1.0" encoding="UTF-8"?>
<svg xmlns="http://www.w3.org/2000/svg" xmlns:xlink="http://www.w3.org/1999/xlink" width="12" height="12" viewBox="0 0 12 12" version="1.1">
<g id="surface1">
<path style=" stroke:none;fill-rule:nonzero;fill:rgb(100%,100%,100%);fill-opacity:1;" d="M 2.789062 2.09375 C 2.566406 1.933594 2.253906 1.984375 2.09375 2.210938 C 1.933594 2.433594 1.984375 2.746094 2.210938 2.90625 L 4.804688 4.757812 C 4.667969 5.597656 4.699219 6.457031 4.898438 7.285156 L 4.019531 10.363281 C 3.945312 10.628906 4.097656 10.90625 4.363281 10.980469 C 4.628906 11.054688 4.90625 10.902344 4.980469 10.636719 L 5.859375 7.566406 L 8.144531 9.855469 C 8.339844 10.046875 8.660156 10.046875 8.855469 9.855469 C 9.046875 9.660156 9.046875 9.339844 8.855469 9.144531 L 6.90625 7.199219 L 6.949219 7.183594 C 6.738281 6.550781 6.671875 5.878906 6.757812 5.21875 L 9.695312 3.960938 C 9.949219 3.851562 10.066406 3.558594 9.960938 3.304688 C 9.851562 3.050781 9.558594 2.933594 9.304688 3.039062 L 6.671875 4.167969 L 5.167969 3.792969 Z M 2.789062 2.09375 "/>
<path style=" stroke:none;fill-rule:nonzero;fill:rgb(100%,100%,100%);fill-opacity:1;" d="M 6 3.5 C 6.414062 3.5 6.75 3.164062 6.75 2.75 C 6.75 2.335938 6.414062 2 6 2 C 5.585938 2 5.25 2.335938 5.25 2.75 C 5.25 3.164062 5.585938 3.5 6 3.5 Z M 6 3.5 "/>
</g>
</svg>
