<?xml version="1.0" encoding="UTF-8"?>
<svg xmlns="http://www.w3.org/2000/svg" xmlns:xlink="http://www.w3.org/1999/xlink" width="12" height="12" viewBox="0 0 12 12" version="1.1">
<g id="surface1">
<path style=" stroke:none;fill-rule:nonzero;fill:rgb(24.705882%,24.705882%,24.705882%);fill-opacity:1;" d="M 1.855469 1.144531 C 1.660156 0.953125 1.339844 0.953125 1.144531 1.144531 C 0.953125 1.339844 0.953125 1.660156 1.144531 1.855469 L 4.277344 4.984375 C 4.101562 5.28125 4 5.628906 4 6 C 4 7.105469 4.894531 8 6 8 C 6.371094 8 6.71875 7.898438 7.015625 7.722656 L 10.144531 10.855469 C 10.339844 11.046875 10.660156 11.046875 10.855469 10.855469 C 11.046875 10.660156 11.046875 10.339844 10.855469 10.144531 Z M 1.855469 1.144531 "/>
<path style=" stroke:none;fill-rule:nonzero;fill:rgb(24.705882%,24.705882%,24.705882%);fill-opacity:1;" d="M 5.414062 3 L 7.945312 5.53125 C 7.816406 4.992188 7.46875 4.539062 7 4.265625 L 7 3 Z M 5.414062 3 "/>
<path style=" stroke:none;fill-rule:nonzero;fill:rgb(24.705882%,24.705882%,24.705882%);fill-opacity:1;" d="M 7 1 L 5 1 L 5 2 L 7 2 Z M 7 1 "/>
<path style=" stroke:none;fill-rule:nonzero;fill:rgb(24.705882%,24.705882%,24.705882%);fill-opacity:1;" d="M 1.5 5.5 C 1.222656 5.5 1 5.722656 1 6 C 1 6.277344 1.222656 6.5 1.5 6.5 L 2.5 6.5 C 2.777344 6.5 3 6.277344 3 6 C 3 5.722656 2.777344 5.5 2.5 5.5 Z M 1.5 5.5 "/>
<path style=" stroke:none;fill-rule:nonzero;fill:rgb(24.705882%,24.705882%,24.705882%);fill-opacity:1;" d="M 5.5 9.5 L 5.5 10.5 C 5.5 10.777344 5.722656 11 6 11 C 6.277344 11 6.5 10.777344 6.5 10.5 L 6.5 9.5 C 6.5 9.222656 6.277344 9 6 9 C 5.722656 9 5.5 9.222656 5.5 9.5 Z M 5.5 9.5 "/>
<path style=" stroke:none;fill-rule:nonzero;fill:rgb(24.705882%,24.705882%,24.705882%);fill-opacity:1;" d="M 8.644531 2.644531 C 8.839844 2.453125 9.160156 2.453125 9.355469 2.644531 C 9.546875 2.839844 9.546875 3.160156 9.355469 3.355469 L 8.855469 3.855469 C 8.660156 4.046875 8.339844 4.046875 8.144531 3.855469 C 7.953125 3.660156 7.953125 3.339844 8.144531 3.144531 Z M 8.644531 2.644531 "/>
<path style=" stroke:none;fill-rule:nonzero;fill:rgb(24.705882%,24.705882%,24.705882%);fill-opacity:1;" d="M 9 6 C 9 5.722656 9.222656 5.5 9.5 5.5 L 10.5 5.5 C 10.777344 5.5 11 5.722656 11 6 C 11 6.277344 10.777344 6.5 10.5 6.5 L 9.5 6.5 C 9.222656 6.5 9 6.277344 9 6 Z M 9 6 "/>
<path style=" stroke:none;fill-rule:nonzero;fill:rgb(24.705882%,24.705882%,24.705882%);fill-opacity:1;" d="M 3.855469 8.144531 C 3.660156 7.953125 3.339844 7.953125 3.144531 8.144531 L 2.644531 8.644531 C 2.453125 8.839844 2.453125 9.160156 2.644531 9.355469 C 2.839844 9.546875 3.160156 9.546875 3.355469 9.355469 L 3.855469 8.855469 C 4.046875 8.660156 4.046875 8.339844 3.855469 8.144531 Z M 3.855469 8.144531 "/>
</g>
</svg>
