<?xml version="1.0" encoding="UTF-8"?>
<svg xmlns="http://www.w3.org/2000/svg" xmlns:xlink="http://www.w3.org/1999/xlink" width="32" height="32" viewBox="0 0 32 32">
<defs>
<filter id="filter-remove-color" x="0%" y="0%" width="100%" height="100%">
<feColorMatrix color-interpolation-filters="sRGB" values="0 0 0 0 1 0 0 0 0 1 0 0 0 0 1 0 0 0 1 0" />
</filter>
<mask id="mask-0">
<g filter="url(#filter-remove-color)">
<rect x="-3.2" y="-3.2" width="38.4" height="38.4" fill="rgb(0%, 0%, 0%)" fill-opacity="0.345"/>
</g>
</mask>
<clipPath id="clip-0">
<rect x="0" y="0" width="32" height="32"/>
</clipPath>
<g id="source-15" clip-path="url(#clip-0)">
<path fill-rule="evenodd" fill="rgb(100%, 100%, 100%)" fill-opacity="1" stroke-width="1.0696" stroke-linecap="butt" stroke-linejoin="miter" stroke="rgb(100%, 100%, 100%)" stroke-opacity="1" stroke-miterlimit="4" d="M 294.885254 40.144043 L 86.09375 198.100586 L 145.212402 198.100586 L 145.212402 520.102539 L 334.816895 520.102539 L 334.816895 471.320801 L 335.666504 471.320801 L 335.666504 520.102539 L 444.487305 520.102539 L 444.487305 198.100586 L 503.605957 198.100586 Z M 294.885254 40.144043 " transform="matrix(0.0551724, 0, 0, 0.0551724, 0, 0)"/>
</g>
</defs>
<path fill="none" stroke-width="33.622002" stroke-linecap="butt" stroke-linejoin="miter" stroke="rgb(100%, 100%, 100%)" stroke-opacity="1" stroke-miterlimit="4" d="M 53.029785 308.549805 L 53.029785 542.687988 " transform="matrix(0.0551724, 0, 0, 0.0551724, 0, 0)"/>
<path fill="none" stroke-width="33.622002" stroke-linecap="butt" stroke-linejoin="miter" stroke="rgb(100%, 100%, 100%)" stroke-opacity="1" stroke-miterlimit="4" d="M 65.490723 463.10791 L 515.783691 463.10791 " transform="matrix(0.0551724, 0, 0, 0.0551724, 0, 0)"/>
<path fill="none" stroke-width="33.622002" stroke-linecap="butt" stroke-linejoin="miter" stroke="rgb(100%, 100%, 100%)" stroke-opacity="1" stroke-miterlimit="4" d="M 530.297852 533.696289 L 530.297852 380.625 " transform="matrix(0.0551724, 0, 0, 0.0551724, 0, 0)"/>
<path fill-rule="nonzero" fill="rgb(100%, 100%, 100%)" fill-opacity="1" stroke-width="35.450298" stroke-linecap="butt" stroke-linejoin="miter" stroke="rgb(100%, 100%, 100%)" stroke-opacity="1" stroke-miterlimit="4" d="M 450.222168 366.394043 L 271.308594 366.394043 C 260.617676 366.394043 252.050781 375.031738 252.050781 385.651855 C 252.050781 396.342773 260.617676 404.909668 271.308594 404.909668 L 450.222168 404.909668 C 460.842285 404.909668 469.47998 396.342773 469.47998 385.651855 C 469.47998 375.031738 460.842285 366.394043 450.222168 366.394043 Z M 450.222168 366.394043 " transform="matrix(0.0551724, 0, 0, 0.0551724, 0, 0)"/>
<path fill-rule="nonzero" fill="rgb(100%, 100%, 100%)" fill-opacity="1" stroke-width="49.7136" stroke-linecap="butt" stroke-linejoin="miter" stroke="rgb(100%, 100%, 100%)" stroke-opacity="1" stroke-miterlimit="4" d="M 161.142578 331.772461 C 178.205566 331.772461 192.08252 318.461914 192.08252 302.036133 C 192.08252 285.610352 178.205566 272.229004 161.142578 272.229004 C 144.07959 272.229004 130.273438 285.610352 130.273438 302.036133 C 130.273438 318.461914 144.07959 331.772461 161.142578 331.772461 Z M 161.142578 331.772461 " transform="matrix(0.0551724, 0, 0, 0.0551724, 0, 0)"/>
<path fill-rule="nonzero" fill="rgb(100%, 100%, 100%)" fill-opacity="1" stroke-width="30.9611" stroke-linecap="butt" stroke-linejoin="miter" stroke="rgb(100%, 100%, 100%)" stroke-opacity="1" stroke-miterlimit="4" d="M 194.489746 396.90918 L 117.104492 396.90918 C 115.192871 396.90918 113.635254 398.466797 113.635254 400.378418 C 113.635254 402.290039 115.192871 403.776855 117.104492 403.776855 L 194.489746 403.776855 C 196.401367 403.776855 197.958984 402.290039 197.958984 400.378418 C 197.958984 398.466797 196.401367 396.90918 194.489746 396.90918 Z M 194.489746 396.90918 " transform="matrix(0.0551724, 0, 0, 0.0551724, 0, 0)"/>
<g mask="url(#mask-0)">
<use xlink:href="#source-15"/>
</g>
<path fill-rule="nonzero" fill="rgb(100%, 100%, 100%)" fill-opacity="1" d="M 21.074219 2.433594 C 19.046875 2.433594 17.410156 4.070312 17.410156 6.101562 C 17.410156 8.980469 23.957031 14.21875 23.957031 14.21875 C 23.957031 14.21875 30.503906 8.980469 30.503906 6.101562 C 30.503906 4.070312 28.867188 2.433594 26.835938 2.433594 C 25.660156 2.433594 24.609375 3.023438 23.957031 3.941406 C 23.300781 3.023438 22.253906 2.433594 21.074219 2.433594 Z M 21.074219 2.433594 "/>
</svg>
