<?xml version="1.0" encoding="UTF-8"?>
<svg xmlns="http://www.w3.org/2000/svg" xmlns:xlink="http://www.w3.org/1999/xlink" width="32" height="32" viewBox="0 0 32 32">
<path fill-rule="nonzero" fill="rgb(24.705882%, 24.705882%, 24.705882%)" fill-opacity="1" d="M 4.941406 3.058594 C 4.421875 2.535156 3.578125 2.535156 3.058594 3.058594 C 2.535156 3.578125 2.535156 4.421875 3.058594 4.941406 L 11.40625 13.289062 C 10.9375 14.085938 10.667969 15.011719 10.667969 16 C 10.667969 18.945312 13.054688 21.332031 16 21.332031 C 16.988281 21.332031 17.914062 21.0625 18.710938 20.59375 L 27.058594 28.941406 C 27.578125 29.464844 28.421875 29.464844 28.941406 28.941406 C 29.464844 28.421875 29.464844 27.578125 28.941406 27.058594 Z M 4.941406 3.058594 "/>
<path fill-rule="nonzero" fill="rgb(24.705882%, 24.705882%, 24.705882%)" fill-opacity="1" d="M 14.4375 8 L 21.183594 14.746094 C 20.839844 13.3125 19.914062 12.101562 18.667969 11.378906 L 18.667969 8 Z M 14.4375 8 "/>
<path fill-rule="nonzero" fill="rgb(24.705882%, 24.705882%, 24.705882%)" fill-opacity="1" d="M 18.667969 2.667969 L 13.332031 2.667969 L 13.332031 5.332031 L 18.667969 5.332031 Z M 18.667969 2.667969 "/>
<path fill-rule="nonzero" fill="rgb(24.705882%, 24.705882%, 24.705882%)" fill-opacity="1" d="M 4 14.667969 C 3.261719 14.667969 2.667969 15.261719 2.667969 16 C 2.667969 16.738281 3.261719 17.332031 4 17.332031 L 6.667969 17.332031 C 7.402344 17.332031 8 16.738281 8 16 C 8 15.261719 7.402344 14.667969 6.667969 14.667969 Z M 4 14.667969 "/>
<path fill-rule="nonzero" fill="rgb(24.705882%, 24.705882%, 24.705882%)" fill-opacity="1" d="M 14.667969 25.332031 L 14.667969 28 C 14.667969 28.738281 15.261719 29.332031 16 29.332031 C 16.738281 29.332031 17.332031 28.738281 17.332031 28 L 17.332031 25.332031 C 17.332031 24.597656 16.738281 24 16 24 C 15.261719 24 14.667969 24.597656 14.667969 25.332031 Z M 14.667969 25.332031 "/>
<path fill-rule="nonzero" fill="rgb(24.705882%, 24.705882%, 24.705882%)" fill-opacity="1" d="M 23.058594 7.058594 C 23.578125 6.535156 24.421875 6.535156 24.941406 7.058594 C 25.464844 7.578125 25.464844 8.421875 24.941406 8.941406 L 23.609375 10.277344 C 23.089844 10.796875 22.246094 10.796875 21.722656 10.277344 C 21.203125 9.753906 21.203125 8.910156 21.722656 8.390625 Z M 23.058594 7.058594 "/>
<path fill-rule="nonzero" fill="rgb(24.705882%, 24.705882%, 24.705882%)" fill-opacity="1" d="M 24 16 C 24 15.261719 24.597656 14.667969 25.332031 14.667969 L 28 14.667969 C 28.738281 14.667969 29.332031 15.261719 29.332031 16 C 29.332031 16.738281 28.738281 17.332031 28 17.332031 L 25.332031 17.332031 C 24.597656 17.332031 24 16.738281 24 16 Z M 24 16 "/>
<path fill-rule="nonzero" fill="rgb(24.705882%, 24.705882%, 24.705882%)" fill-opacity="1" d="M 10.277344 21.722656 C 9.753906 21.203125 8.910156 21.203125 8.390625 21.722656 L 7.058594 23.058594 C 6.535156 23.578125 6.535156 24.421875 7.058594 24.941406 C 7.578125 25.464844 8.421875 25.464844 8.941406 24.941406 L 10.277344 23.609375 C 10.796875 23.089844 10.796875 22.246094 10.277344 21.722656 Z M 10.277344 21.722656 "/>
</svg>
