<?xml version="1.0" encoding="UTF-8"?>
<svg xmlns="http://www.w3.org/2000/svg" xmlns:xlink="http://www.w3.org/1999/xlink" width="12" height="12" viewBox="0 0 12 12">
<defs>
<filter id="filter-remove-color" x="0%" y="0%" width="100%" height="100%">
<feColorMatrix color-interpolation-filters="sRGB" values="0 0 0 0 1 0 0 0 0 1 0 0 0 0 1 0 0 0 1 0" />
</filter>
<mask id="mask-0">
<g filter="url(#filter-remove-color)">
<rect x="-1.2" y="-1.2" width="14.4" height="14.4" fill="rgb(0%, 0%, 0%)" fill-opacity="0.8"/>
</g>
</mask>
<clipPath id="clip-0">
<rect x="0" y="0" width="12" height="12"/>
</clipPath>
<g id="source-7" clip-path="url(#clip-0)">
<path fill-rule="evenodd" fill="rgb(100%, 100%, 100%)" fill-opacity="1" d="M 4 10.5 L 4 10 L 5 10 L 5 10.5 C 5 10.777344 4.777344 11 4.5 11 C 4.222656 11 4 10.777344 4 10.5 Z M 9 10.5 L 9 10 L 10 10 L 10 10.5 C 10 10.777344 9.777344 11 9.5 11 C 9.222656 11 9 10.777344 9 10.5 Z M 9 10.5 "/>
</g>
<mask id="mask-1">
<g filter="url(#filter-remove-color)">
<rect x="-1.2" y="-1.2" width="14.4" height="14.4" fill="rgb(0%, 0%, 0%)" fill-opacity="0.5"/>
</g>
</mask>
<clipPath id="clip-1">
<rect x="0" y="0" width="12" height="12"/>
</clipPath>
<g id="source-11" clip-path="url(#clip-1)">
<path fill-rule="evenodd" fill="rgb(100%, 100%, 100%)" fill-opacity="1" d="M 7.5 6 L 7.5 11 L 6.5 11 L 6.5 6 Z M 7.5 6 "/>
</g>
<mask id="mask-2">
<g filter="url(#filter-remove-color)">
<rect x="-1.2" y="-1.2" width="14.4" height="14.4" fill="rgb(0%, 0%, 0%)" fill-opacity="0.8"/>
</g>
</mask>
<clipPath id="clip-2">
<rect x="0" y="0" width="12" height="12"/>
</clipPath>
<g id="source-15" clip-path="url(#clip-2)">
<path fill-rule="evenodd" fill="rgb(100%, 100%, 100%)" fill-opacity="1" d="M 11 6 L 11 5 C 11 2.789062 9.210938 1 7 1 C 4.789062 1 3 2.789062 3 5 L 3 6 Z M 4 5 L 5 5 L 5 4.304688 C 5 3.625 5.175781 2.972656 5.5 2.402344 C 4.601562 2.921875 4 3.890625 4 5 Z M 6 4.304688 L 6 5 L 8 5 L 8 4.304688 C 8 3.460938 7.628906 2.667969 7 2.125 C 6.371094 2.667969 6 3.460938 6 4.304688 Z M 8.5 2.402344 C 8.824219 2.972656 9 3.625 9 4.304688 L 9 5 L 10 5 C 10 3.890625 9.398438 2.921875 8.5 2.402344 Z M 8.5 2.402344 "/>
</g>
</defs>
<path fill-rule="evenodd" fill="rgb(100%, 100%, 100%)" fill-opacity="1" d="M 1.144531 7.144531 C 1.339844 6.953125 1.660156 6.953125 1.855469 7.144531 L 3.5625 8.855469 C 3.65625 8.949219 3.78125 9 3.914062 9 L 10.5 9 C 10.777344 9 11 9.222656 11 9.5 C 11 9.777344 10.777344 10 10.5 10 L 3.914062 10 C 3.515625 10 3.136719 9.84375 2.855469 9.5625 L 1.144531 7.855469 C 0.953125 7.660156 0.953125 7.339844 1.144531 7.144531 Z M 1.144531 7.144531 "/>
<g mask="url(#mask-0)">
<use xlink:href="#source-7"/>
</g>
<g mask="url(#mask-1)">
<use xlink:href="#source-11"/>
</g>
<g mask="url(#mask-2)">
<use xlink:href="#source-15"/>
</g>
</svg>
