<?xml version="1.0" encoding="UTF-8"?>
<svg xmlns="http://www.w3.org/2000/svg" xmlns:xlink="http://www.w3.org/1999/xlink" width="12" height="12" viewBox="0 0 12 12" version="1.1">
<g id="surface1">
<path style="fill:none;stroke-width:34.709499;stroke-linecap:round;stroke-linejoin:round;stroke:rgb(100%,100%,100%);stroke-opacity:1;stroke-miterlimit:4;" d="M 225.240885 508.255208 L 225.807292 345.130208 " transform="matrix(0.0206897,0,0,0.0206897,0,0)"/>
<path style="fill:none;stroke-width:34.709499;stroke-linecap:round;stroke-linejoin:round;stroke:rgb(100%,100%,100%);stroke-opacity:1;stroke-miterlimit:4;" d="M 321.907552 401.204427 L 270.364583 508.44401 " transform="matrix(0.0206897,0,0,0.0206897,0,0)"/>
<path style="fill:none;stroke-width:34.709499;stroke-linecap:round;stroke-linejoin:round;stroke:rgb(100%,100%,100%);stroke-opacity:1;stroke-miterlimit:4;" d="M 386.477865 443.684896 L 323.229167 508.255208 " transform="matrix(0.0206897,0,0,0.0206897,0,0)"/>
<path style="fill:none;stroke-width:34.709499;stroke-linecap:round;stroke-linejoin:round;stroke:rgb(100%,100%,100%);stroke-opacity:1;stroke-miterlimit:4;" d="M 137.259115 398.183594 L 181.816406 508.44401 " transform="matrix(0.0206897,0,0,0.0206897,0,0)"/>
<path style="fill:none;stroke-width:34.709499;stroke-linecap:round;stroke-linejoin:round;stroke:rgb(100%,100%,100%);stroke-opacity:1;stroke-miterlimit:4;" d="M 66.269531 445.761719 L 128.763021 508.255208 " transform="matrix(0.0206897,0,0,0.0206897,0,0)"/>
<path style=" stroke:none;fill-rule:nonzero;fill:rgb(100%,100%,100%);fill-opacity:1;" d="M 8.320312 0.855469 C 6.730469 0.855469 5.4375 2.148438 5.4375 3.738281 C 5.4375 5.328125 6.730469 6.621094 8.320312 6.621094 C 9.910156 6.621094 11.203125 5.328125 11.203125 3.738281 C 11.203125 2.148438 9.910156 0.855469 8.320312 0.855469 Z M 9.191406 1.503906 C 10.085938 1.851562 10.722656 2.71875 10.722656 3.738281 C 10.722656 3.816406 10.714844 3.894531 10.707031 3.972656 C 10.148438 3.222656 9.136719 3.0625 9.136719 3.0625 C 9.1875 3.136719 9.207031 3.207031 9.207031 3.28125 C 9.207031 3.449219 9.109375 3.589844 8.964844 3.664062 C 9.296875 4.039062 9.648438 5.046875 9.769531 5.652344 C 9.367188 5.957031 8.863281 6.140625 8.320312 6.140625 C 8 6.140625 7.695312 6.078125 7.417969 5.96875 C 7.898438 5.339844 8.546875 4.210938 8.636719 3.714844 C 8.441406 3.667969 8.320312 3.496094 8.320312 3.304688 C 8.320312 3.230469 8.339844 3.164062 8.363281 3.117188 C 7.433594 3.203125 6.585938 3.644531 5.984375 4.308594 C 5.941406 4.125 5.917969 3.933594 5.917969 3.738281 C 5.917969 2.757812 6.5 1.921875 7.335938 1.546875 C 7.730469 1.84375 8.328125 2.535156 8.484375 2.941406 C 8.558594 2.894531 8.660156 2.851562 8.753906 2.851562 C 8.828125 2.851562 8.917969 2.871094 8.964844 2.921875 C 9.023438 2.78125 9.203125 2.058594 9.191406 1.503906 Z M 9.191406 1.503906 "/>
</g>
</svg>
