<svg width="580" height="580" viewBox="0 0 580 580" fill="none" xmlns="http://www.w3.org/2000/svg">
<path d="M267.943 84.3272C265.431 84.3272 263.048 85.4323 261.415 87.3467C247.228 104.064 236.078 141.567 152.049 139.628C150.297 139.816 148.711 140.564 147.419 141.67L146.988 141.181L121.739 177.732C120.132 181.04 120.832 185.032 123.464 187.596C142.549 206.219 187.567 247.436 187.567 300.47C187.567 351.686 144.244 392.235 126.167 410.67C123.33 413.559 122.913 418.029 125.161 421.397L148.512 456.453C148.76 456.82 149.084 457.114 149.375 457.43C149.503 457.576 149.612 457.733 149.749 457.862C150.45 458.537 151.224 459.059 152.078 459.443C152.266 459.537 152.465 459.585 152.653 459.645C153.602 460.004 154.598 460.24 155.615 460.249C227.21 460.249 252.975 468.134 285.255 505.427C287.606 507.256 289.643 508.826 291.352 510.057C292.856 511.134 294.604 511.667 296.356 511.667C298.108 511.667 299.844 511.125 301.331 510.057C303.049 508.826 305.077 507.265 307.428 505.427C336.578 469.311 370.054 459.077 422.804 460.709L438.764 458.868L438.592 458.696C444.608 457.505 448.472 449.089 451.792 445.064L467.58 421.426C469.827 418.058 469.402 413.588 466.573 410.699C448.497 392.264 410.174 351.686 410.174 300.47C410.174 247.436 450.163 206.219 469.248 187.596C471.589 185.314 472.447 181.87 471.404 178.768L460.591 146.444C459.48 143.111 456.446 140.786 452.942 140.606C350.283 142.468 343.809 102.098 331.297 87.3467C329.664 85.4323 327.281 84.3271 324.769 84.3271H267.943V84.3272Z" fill="#ffffff"/>
</svg>
