<?xml version="1.0" encoding="UTF-8"?>
<svg xmlns="http://www.w3.org/2000/svg" xmlns:xlink="http://www.w3.org/1999/xlink" width="12" height="12" viewBox="0 0 12 12" version="1.1">
<defs>
<filter id="alpha" filterUnits="objectBoundingBox" x="0%" y="0%" width="100%" height="100%">
  <feColorMatrix type="matrix" in="SourceGraphic" values="0 0 0 0 1 0 0 0 0 1 0 0 0 0 1 0 0 0 1 0"/>
</filter>
<mask id="mask0">
  <g filter="url(#alpha)">
<rect x="0" y="0" width="12" height="12" style="fill:rgb(0%,0%,0%);fill-opacity:0.5;stroke:none;"/>
  </g>
</mask>
<clipPath id="clip1">
  <rect x="0" y="0" width="12" height="12"/>
</clipPath>
<g id="surface5" clip-path="url(#clip1)">
<path style=" stroke:none;fill-rule:evenodd;fill:rgb(42.745098%,72.941178%,0%);fill-opacity:1;" d="M 6.554688 8.222656 L 4.554688 4.222656 L 5.445312 3.777344 L 7.445312 7.777344 Z M 6.554688 8.222656 "/>
</g>
</defs>
<g id="surface1">
<use xlink:href="#surface5" mask="url(#mask0)"/>
<path style=" stroke:none;fill-rule:nonzero;fill:rgb(42.745098%,72.941178%,0%);fill-opacity:1;" d="M 0.15625 4.871094 C 0.0546875 4.710938 0 4.523438 0 4.335938 L 0 4.164062 C 0 3.828125 0.167969 3.515625 0.453125 3.328125 L 3.75 1.164062 C 3.914062 1.058594 4.105469 1 4.300781 1 L 4.464844 1 C 4.800781 1 5.113281 1.167969 5.296875 1.445312 L 6.832031 3.75 C 6.941406 3.914062 7 4.105469 7 4.304688 L 7 4.464844 C 7 4.800781 6.832031 5.113281 6.554688 5.296875 L 4 7 L 2.601562 7 C 1.917969 7 1.277344 6.648438 0.910156 6.066406 Z M 0.15625 4.871094 "/>
<path style=" stroke:none;fill-rule:evenodd;fill:rgb(42.745098%,72.941178%,0%);fill-opacity:1;" d="M 8 7 L 2.5 7 C 1.949219 7 1.5 7.449219 1.5 8 L 1.5 9 L 2 9 C 2 9.550781 2.449219 10 3 10 C 3.550781 10 4 9.550781 4 9 L 9 9 C 9 9.550781 9.449219 10 10 10 C 10.550781 10 11 9.550781 11 9 L 12 9 L 12 6.5 L 10.222656 4 L 8 4 Z M 9 5 L 9.707031 5 L 10.773438 6.5 L 9 6.5 Z M 9 5 "/>
</g>
</svg>
