<?xml version="1.0" encoding="UTF-8"?>
<svg xmlns="http://www.w3.org/2000/svg" xmlns:xlink="http://www.w3.org/1999/xlink" width="32" height="32" viewBox="0 0 32 32">
<path fill-rule="evenodd" fill="rgb(100%, 100%, 100%)" fill-opacity="1" d="M 25.332031 13.332031 C 29.015625 13.332031 32 10.347656 32 6.667969 C 32 2.984375 29.015625 0 25.332031 0 C 21.652344 0 18.667969 2.984375 18.667969 6.667969 C 18.667969 10.347656 21.652344 13.332031 25.332031 13.332031 Z M 24 2.667969 L 24 5.332031 L 21.332031 5.332031 L 21.332031 8 L 24 8 L 24 10.667969 L 26.667969 10.667969 L 26.667969 8 L 29.332031 8 L 29.332031 5.332031 L 26.667969 5.332031 L 26.667969 2.667969 Z M 24 2.667969 "/>
<path fill-rule="nonzero" fill="rgb(100%, 100%, 100%)" fill-opacity="1" d="M 3.449219 3.449219 C 4.488281 2.40625 6.175781 2.40625 7.21875 3.449219 L 16.550781 12.78125 L 12.78125 16.550781 L 3.449219 7.21875 C 2.40625 6.175781 2.40625 4.488281 3.449219 3.449219 Z M 3.449219 3.449219 "/>
<path fill-rule="nonzero" fill="rgb(100%, 100%, 100%)" fill-opacity="1" d="M 2.667969 18.667969 C 2.667969 15.773438 4.203125 13.238281 6.5 11.835938 L 8.472656 13.804688 C 6.621094 14.640625 5.332031 16.503906 5.332031 18.667969 C 5.332031 21.613281 7.722656 24 10.667969 24 C 12.640625 24 14.363281 22.925781 15.285156 21.332031 L 14.667969 21.332031 C 13.929688 21.332031 13.332031 20.738281 13.332031 20 C 13.332031 19.261719 13.929688 18.667969 14.667969 18.667969 L 20 18.667969 C 20.738281 18.667969 21.332031 19.261719 21.332031 20 C 21.332031 20.738281 20.738281 21.332031 20 21.332031 L 18.210938 21.332031 C 17.113281 24.4375 14.152344 26.664062 10.671875 26.667969 L 16 26.667969 C 17.472656 26.667969 18.667969 27.859375 18.667969 29.332031 L 2.667969 29.332031 C 2.667969 27.859375 3.859375 26.667969 5.332031 26.667969 L 10.660156 26.667969 C 6.246094 26.664062 2.667969 23.082031 2.667969 18.667969 Z M 2.667969 18.667969 "/>
</svg>
