<?xml version="1.0" encoding="UTF-8"?>
<svg xmlns="http://www.w3.org/2000/svg" xmlns:xlink="http://www.w3.org/1999/xlink" width="32" height="32" viewBox="0 0 32 32">
<path fill-rule="nonzero" fill="rgb(100%, 100%, 100%)" fill-opacity="1" d="M 6.703125 7.296875 L 12.253906 8.804688 L 15.335938 6.667969 L 16.40625 6.925781 L 13.355469 9.070312 L 30.167969 13.679688 L 28.9375 18.195312 L 12.058594 13.59375 C 5.519531 11.648438 6.710938 7.289062 6.710938 7.289062 "/>
<path fill-rule="nonzero" fill="rgb(100%, 100%, 100%)" fill-opacity="1" d="M 21.289062 18.84375 C 21.269531 18.464844 21.199219 18.105469 21.078125 17.765625 L 28.6875 19.886719 L 28.441406 20.820312 Z M 21.289062 18.84375 "/>
<path fill-rule="nonzero" fill="rgb(100%, 100%, 100%)" fill-opacity="1" d="M 14.382812 16.933594 C 14.585938 16.632812 14.832031 16.363281 15.109375 16.132812 L 2.414062 12.628906 L 2.414062 13.632812 Z M 14.382812 16.933594 "/>
<path fill-rule="nonzero" fill="rgb(100%, 100%, 100%)" fill-opacity="1" d="M 17.519531 20.269531 C 18.203125 20.269531 18.753906 19.71875 18.753906 19.035156 C 18.753906 18.351562 18.203125 17.800781 17.519531 17.800781 C 16.835938 17.800781 16.28125 18.351562 16.28125 19.035156 C 16.28125 19.71875 16.835938 20.269531 17.519531 20.269531 Z M 29.910156 27.851562 C 29.304688 27.851562 28.730469 27.714844 28.222656 27.484375 C 27.691406 27.242188 27.097656 27.097656 26.476562 27.097656 C 25.859375 27.097656 25.265625 27.242188 24.742188 27.484375 C 24.222656 27.714844 23.652344 27.851562 23.046875 27.851562 C 22.445312 27.851562 21.871094 27.714844 21.351562 27.484375 C 20.828125 27.242188 20.234375 27.097656 19.617188 27.097656 C 18.992188 27.097656 18.402344 27.242188 17.871094 27.484375 C 17.363281 27.714844 16.78125 27.851562 16.179688 27.851562 C 15.582031 27.851562 15.003906 27.714844 14.492188 27.484375 C 13.960938 27.242188 13.363281 27.097656 12.746094 27.097656 C 12.128906 27.097656 11.535156 27.242188 11.011719 27.484375 C 10.496094 27.714844 9.917969 27.851562 9.316406 27.851562 C 8.714844 27.851562 8.140625 27.714844 7.621094 27.484375 C 7.097656 27.242188 6.5 27.097656 5.886719 27.097656 C 5.269531 27.097656 4.671875 27.242188 4.144531 27.484375 C 3.628906 27.714844 3.050781 27.851562 2.453125 27.851562 L 2.414062 17.777344 L 16.292969 21.601562 C 15.335938 21.136719 14.675781 20.167969 14.675781 19.035156 C 14.675781 17.457031 15.953125 16.183594 17.523438 16.183594 C 19.097656 16.183594 20.375 17.460938 20.375 19.035156 C 20.375 20.609375 19.097656 21.886719 17.523438 21.886719 C 17.433594 21.886719 17.335938 21.867188 17.246094 21.855469 L 29.894531 25.34375 Z M 29.910156 27.851562 "/>
</svg>
