<?xml version="1.0" encoding="UTF-8"?>
<svg xmlns="http://www.w3.org/2000/svg" xmlns:xlink="http://www.w3.org/1999/xlink" width="12" height="12" viewBox="0 0 12 12" version="1.1">
<g id="surface1">
<path style=" stroke:none;fill-rule:nonzero;fill:rgb(100%,100%,100%);fill-opacity:1;" d="M 8 2.980469 C 8 2.980469 6.332031 1.925781 5.867188 3.699219 C 5.867188 3.699219 5.59375 4.480469 6.671875 5.703125 C 7.746094 6.929688 7.007812 8.324219 7.007812 8.324219 C 7.007812 8.324219 5.785156 9.84375 7.027344 10.8125 C 8.273438 11.785156 9.542969 10.136719 9.121094 9.144531 C 8.699219 8.152344 9.332031 6.613281 9.625 6.191406 C 9.921875 5.769531 9.796875 4.226562 9.246094 3.847656 C 8.699219 3.464844 8 2.980469 8 2.980469 Z M 8 2.980469 "/>
<path style=" stroke:none;fill-rule:nonzero;fill:rgb(100%,100%,100%);fill-opacity:1;" d="M 6.28125 2.515625 C 6.589844 2.515625 6.839844 2.152344 6.839844 1.703125 C 6.839844 1.253906 6.589844 0.890625 6.28125 0.890625 C 5.972656 0.890625 5.71875 1.253906 5.71875 1.703125 C 5.71875 2.152344 5.972656 2.515625 6.28125 2.515625 Z M 6.28125 2.515625 "/>
<path style=" stroke:none;fill-rule:nonzero;fill:rgb(100%,100%,100%);fill-opacity:1;" d="M 7.4375 2.515625 C 7.671875 2.515625 7.867188 2.238281 7.867188 1.894531 C 7.867188 1.546875 7.671875 1.269531 7.4375 1.269531 C 7.199219 1.269531 7.007812 1.546875 7.007812 1.894531 C 7.007812 2.238281 7.199219 2.515625 7.4375 2.515625 Z M 7.4375 2.515625 "/>
<path style=" stroke:none;fill-rule:nonzero;fill:rgb(100%,100%,100%);fill-opacity:1;" d="M 8.394531 2.84375 C 8.609375 2.84375 8.785156 2.585938 8.785156 2.273438 C 8.785156 1.957031 8.609375 1.703125 8.394531 1.703125 C 8.175781 1.703125 8 1.957031 8 2.273438 C 8 2.585938 8.175781 2.84375 8.394531 2.84375 Z M 8.394531 2.84375 "/>
<path style=" stroke:none;fill-rule:nonzero;fill:rgb(100%,100%,100%);fill-opacity:1;" d="M 9.226562 3.414062 C 9.441406 3.414062 9.617188 3.15625 9.617188 2.84375 C 9.617188 2.527344 9.441406 2.273438 9.226562 2.273438 C 9.007812 2.273438 8.832031 2.527344 8.832031 2.84375 C 8.832031 3.15625 9.007812 3.414062 9.226562 3.414062 Z M 9.226562 3.414062 "/>
<path style=" stroke:none;fill-rule:nonzero;fill:rgb(100%,100%,100%);fill-opacity:1;" d="M 9.90625 4.171875 C 10.09375 4.171875 10.246094 3.953125 10.246094 3.683594 C 10.246094 3.414062 10.09375 3.191406 9.90625 3.191406 C 9.722656 3.191406 9.570312 3.414062 9.570312 3.683594 C 9.570312 3.953125 9.722656 4.171875 9.90625 4.171875 Z M 9.90625 4.171875 "/>
<path style=" stroke:none;fill-rule:nonzero;fill:rgb(100%,100%,100%);fill-opacity:1;" d="M 5.171875 1.765625 L 1.753906 3.234375 L 2.34375 4.601562 L 5.761719 3.132812 Z M 5.171875 1.765625 "/>
</g>
</svg>
