<?xml version="1.0" encoding="UTF-8"?>
<svg xmlns="http://www.w3.org/2000/svg" xmlns:xlink="http://www.w3.org/1999/xlink" width="12" height="12" viewBox="0 0 12 12" version="1.1">
<defs>
<filter id="alpha" filterUnits="objectBoundingBox" x="0%" y="0%" width="100%" height="100%">
  <feColorMatrix type="matrix" in="SourceGraphic" values="0 0 0 0 1 0 0 0 0 1 0 0 0 0 1 0 0 0 1 0"/>
</filter>
<mask id="mask0">
  <g filter="url(#alpha)">
<rect x="0" y="0" width="12" height="12" style="fill:rgb(0%,0%,0%);fill-opacity:0.2;stroke:none;"/>
  </g>
</mask>
<clipPath id="clip1">
  <rect x="0" y="0" width="12" height="12"/>
</clipPath>
<g id="surface5" clip-path="url(#clip1)">
<path style=" stroke:none;fill-rule:evenodd;fill:rgb(100%,100%,100%);fill-opacity:1;" d="M 11 3 L 1 3 L 1 4 L 11 4 Z M 11 5 L 1 5 L 1 6 L 11 6 Z M 1 7 L 11 7 L 11 8 L 1 8 Z M 11 9 L 1 9 L 1 10 L 11 10 Z M 11 9 "/>
</g>
</defs>
<g id="surface1">
<use xlink:href="#surface5" mask="url(#mask0)"/>
<path style=" stroke:none;fill-rule:evenodd;fill:rgb(100%,100%,100%);fill-opacity:1;" d="M 10 2 L 4 3 L 4 8.085938 C 3.84375 8.03125 3.675781 8 3.5 8 C 2.671875 8 2 8.671875 2 9.5 C 2 10.328125 2.671875 11 3.5 11 C 4.328125 11 5 10.328125 5 9.5 L 5 3.832031 L 9 3.167969 L 9 7.085938 C 8.84375 7.03125 8.675781 7 8.5 7 C 7.671875 7 7 7.671875 7 8.5 C 7 9.328125 7.671875 10 8.5 10 C 9.328125 10 10 9.328125 10 8.5 Z M 10 2 "/>
</g>
</svg>
