<?xml version="1.0" encoding="UTF-8"?>
<svg xmlns="http://www.w3.org/2000/svg" xmlns:xlink="http://www.w3.org/1999/xlink" width="32" height="32" viewBox="0 0 32 32">
<path fill-rule="nonzero" fill="rgb(24.705882%, 24.705882%, 24.705882%)" fill-opacity="1" d="M 25.734375 6.265625 C 23.132812 3.664062 19.675781 2.234375 16 2.234375 C 12.324219 2.234375 8.867188 3.664062 6.265625 6.265625 C 3.664062 8.867188 2.234375 12.324219 2.234375 16 C 2.234375 19.675781 3.664062 23.132812 6.265625 25.734375 C 8.867188 28.332031 12.324219 29.765625 16 29.765625 C 19.675781 29.765625 23.132812 28.335938 25.734375 25.734375 C 28.332031 23.132812 29.765625 19.675781 29.765625 16 C 29.765625 12.324219 28.332031 8.867188 25.734375 6.265625 Z M 16.726562 28.070312 L 16.78125 19.285156 L 15.230469 19.28125 L 15.265625 28.070312 C 9.179688 27.703125 4.292969 22.8125 3.929688 16.726562 L 12.871094 16.78125 L 12.875 15.230469 L 3.929688 15.265625 C 4.296875 9.179688 9.1875 4.292969 15.273438 3.929688 L 15.21875 13.042969 L 16.769531 13.042969 L 16.734375 3.929688 C 22.820312 4.296875 27.707031 9.1875 28.070312 15.273438 L 19.105469 15.21875 L 19.101562 16.769531 L 28.070312 16.734375 C 27.703125 22.820312 22.8125 27.707031 16.726562 28.070312 Z M 16.726562 28.070312 "/>
</svg>
