<?xml version="1.0" encoding="UTF-8"?>
<svg xmlns="http://www.w3.org/2000/svg" xmlns:xlink="http://www.w3.org/1999/xlink" width="32" height="32" viewBox="0 0 32 32">
<path fill-rule="nonzero" fill="rgb(24.705882%, 24.705882%, 24.705882%)" fill-opacity="1" d="M 7.628906 12.667969 L 24.789062 12.667969 L 25.683594 26.996094 L 29.738281 26.996094 L 26.929688 12.898438 L 26.925781 12.898438 C 25.511719 8.324219 21.253906 5.003906 16.214844 5.003906 C 11.160156 5.003906 6.886719 8.351562 5.484375 12.949219 L 2.261719 26.996094 L 6.234375 26.996094 Z M 7.628906 12.667969 "/>
<path fill-rule="nonzero" fill="rgb(24.705882%, 24.705882%, 24.705882%)" fill-opacity="1" d="M 23.066406 20.417969 L 22.605469 16.582031 C 22.589844 15.96875 22.085938 15.472656 21.46875 15.472656 L 17.65625 15.472656 L 17.5 15.003906 C 17.5 14.605469 17.179688 14.28125 16.78125 14.28125 L 15.203125 14.28125 C 14.804688 14.28125 14.484375 14.605469 14.484375 15.003906 L 14.375 15.472656 L 10.53125 15.472656 C 9.914062 15.472656 9.410156 15.96875 9.394531 16.582031 L 8.933594 20.417969 C 7.941406 20.828125 8.542969 21.757812 8.542969 21.757812 L 11.617188 26.996094 L 20.382812 26.996094 L 23.457031 21.757812 C 23.457031 21.757812 24.058594 20.828125 23.066406 20.417969 Z M 10.230469 16.609375 C 10.230469 16.441406 10.367188 16.308594 10.53125 16.308594 L 21.46875 16.308594 C 21.632812 16.308594 21.769531 16.441406 21.769531 16.609375 L 21.769531 16.636719 L 22.1875 20.089844 C 20.222656 19.371094 16 17.828125 16 17.828125 C 16 17.828125 11.777344 19.371094 9.8125 20.089844 L 10.230469 16.636719 Z M 10.230469 16.609375 "/>
<path fill-rule="nonzero" fill="rgb(24.705882%, 24.705882%, 24.705882%)" fill-opacity="1" d="M 15.601562 16.875 L 11.507812 16.875 C 11.179688 16.875 10.914062 17.140625 10.914062 17.46875 L 10.714844 19.136719 C 12.378906 18.523438 14.6875 17.683594 15.601562 17.347656 Z M 15.601562 16.875 "/>
<path fill-rule="nonzero" fill="rgb(24.705882%, 24.705882%, 24.705882%)" fill-opacity="1" d="M 21.085938 17.46875 C 21.085938 17.140625 20.820312 16.875 20.492188 16.875 L 16.398438 16.875 L 16.398438 17.347656 C 17.3125 17.683594 19.621094 18.523438 21.285156 19.136719 Z M 21.085938 17.46875 "/>
</svg>
