<?xml version="1.0" encoding="UTF-8"?>
<svg xmlns="http://www.w3.org/2000/svg" xmlns:xlink="http://www.w3.org/1999/xlink" width="12" height="12" viewBox="0 0 12 12" version="1.1">
<g id="surface1">
<path style=" stroke:none;fill-rule:evenodd;fill:rgb(24.705882%,24.705882%,24.705882%);fill-opacity:1;" d="M 3.5 9 C 4.710938 9 5.71875 8.140625 5.949219 7 L 7 7 L 7.5 6.5 L 8 7 L 8.5 6.5 L 9 7 L 9.5 6.5 L 10 7 L 11 7 L 12 6 L 11 5 L 5.5 5 C 5.042969 4.394531 4.316406 4 3.5 4 C 2.121094 4 1 5.121094 1 6.5 C 1 7.878906 2.121094 9 3.5 9 Z M 2.75 7.25 C 3.164062 7.25 3.5 6.914062 3.5 6.5 C 3.5 6.085938 3.164062 5.75 2.75 5.75 C 2.335938 5.75 2 6.085938 2 6.5 C 2 6.914062 2.335938 7.25 2.75 7.25 Z M 2.75 7.25 "/>
</g>
</svg>
