<svg width="12" height="12" viewBox="0 0 48 48" fill="none" xmlns="http://www.w3.org/2000/svg">
<path fill-rule="evenodd" clip-rule="evenodd" d="M7.41421 4.58579C6.63316 3.80474 5.36683 3.80474 4.58579 4.58579C3.80474 5.36683 3.80474 6.63316 4.58579 7.41421L20.3849 23.2134L7.38973 34.7647C6.50576 35.5504 6 36.6767 6 37.8594C6 40.1462 7.85381 42 10.1406 42C11.3233 42 12.4496 41.4942 13.2353 40.6103L24.7866 27.6151L40.5858 43.4142C41.3668 44.1953 42.6332 44.1953 43.4142 43.4142C44.1953 42.6332 44.1953 41.3668 43.4142 40.5858L7.41421 4.58579ZM10 40C11.1046 40 12 39.1046 12 38C12 36.8954 11.1046 36 10 36C8.89543 36 8 36.8954 8 38C8 39.1046 8.89543 40 10 40Z" fill="#3f3f3f"/>
<path d="M33.6568 24L29.6568 20H34.9296L38.3359 14.8906L41.6641 17.1094L37.0704 24H33.6568Z" fill="#3f3f3f"/>
<path d="M28 13.0703V18.3431L24 14.3431V10.9296L30.8906 6.33588L33.1094 9.66408L28 13.0703Z" fill="#3f3f3f"/>
</svg>
