<?xml version="1.0" encoding="UTF-8"?>
<svg xmlns="http://www.w3.org/2000/svg" xmlns:xlink="http://www.w3.org/1999/xlink" width="12" height="12" viewBox="0 0 12 12" version="1.1">
<g id="surface1">
<path style=" stroke:none;fill-rule:nonzero;fill:rgb(24.705882%,24.705882%,24.705882%);fill-opacity:1;" d="M 4.363281 3.085938 C 4.0625 3.109375 3.832031 3.269531 3.671875 3.5625 C 3.671875 3.5625 3.328125 4.402344 2.980469 5.242188 C 2.839844 5.207031 2.6875 5.1875 2.53125 5.1875 C 1.507812 5.1875 0.671875 6.023438 0.671875 7.046875 C 0.671875 8.070312 1.507812 8.90625 2.53125 8.90625 C 3.558594 8.90625 4.394531 8.070312 4.394531 7.046875 C 4.394531 6.371094 4.027344 5.777344 3.488281 5.449219 L 3.757812 4.789062 C 3.898438 5.070312 4.117188 5.300781 4.714844 6.160156 C 5.171875 6.828125 5.597656 7.441406 6.339844 7.464844 L 7.652344 7.464844 C 7.839844 8.292969 8.585938 8.914062 9.46875 8.914062 C 10.492188 8.914062 11.328125 8.078125 11.328125 7.054688 C 11.328125 6.027344 10.492188 5.191406 9.46875 5.191406 C 8.507812 5.191406 7.714844 5.925781 7.617188 6.859375 L 6.363281 6.933594 C 5.917969 6.953125 5.632812 6.511719 5.703125 6.261719 C 5.765625 6.046875 5.816406 5.84375 5.757812 5.59375 L 5.046875 4.582031 C 4.964844 4.484375 4.886719 4.472656 4.808594 4.445312 L 3.898438 4.445312 L 4.132812 3.878906 C 4.199219 3.6875 4.28125 3.617188 4.390625 3.628906 L 5.277344 3.628906 L 5.28125 3.085938 Z M 7.535156 4.441406 C 7.40625 4.492188 7.3125 4.574219 7.386719 4.796875 L 8.265625 5.367188 C 8.644531 5.085938 9.035156 5.039062 9.421875 4.980469 L 10.957031 4.976562 L 10.945312 4.441406 Z M 2.53125 5.65625 C 2.625 5.65625 2.714844 5.667969 2.800781 5.683594 C 2.542969 6.316406 2.308594 6.886719 2.296875 6.921875 C 2.167969 7.34375 2.660156 7.453125 2.792969 7.148438 L 3.308594 5.890625 C 3.679688 6.140625 3.921875 6.5625 3.921875 7.046875 C 3.921875 7.816406 3.304688 8.4375 2.53125 8.4375 C 1.761719 8.4375 1.144531 7.816406 1.144531 7.046875 C 1.144531 6.277344 1.761719 5.65625 2.53125 5.65625 Z M 9.46875 5.664062 C 10.238281 5.664062 10.855469 6.28125 10.855469 7.054688 C 10.855469 7.824219 10.238281 8.441406 9.46875 8.441406 C 8.839844 8.441406 8.316406 8.03125 8.140625 7.464844 L 9.890625 7.46875 L 9.898438 6.726562 L 8.09375 6.832031 C 8.199219 6.167969 8.773438 5.664062 9.46875 5.664062 Z M 9.46875 5.664062 "/>
</g>
</svg>
