<?xml version="1.0" encoding="UTF-8"?>
<svg xmlns="http://www.w3.org/2000/svg" xmlns:xlink="http://www.w3.org/1999/xlink" width="32" height="32" viewBox="0 0 32 32">
<defs>
<filter id="filter-remove-color" x="0%" y="0%" width="100%" height="100%">
<feColorMatrix color-interpolation-filters="sRGB" values="0 0 0 0 1 0 0 0 0 1 0 0 0 0 1 0 0 0 1 0" />
</filter>
<mask id="mask-0">
<g filter="url(#filter-remove-color)">
<rect x="-3.2" y="-3.2" width="38.4" height="38.4" fill="rgb(0%, 0%, 0%)" fill-opacity="0.4"/>
</g>
</mask>
<clipPath id="clip-0">
<rect x="0" y="0" width="32" height="32"/>
</clipPath>
<g id="source-6" clip-path="url(#clip-0)">
<path fill-rule="nonzero" fill="rgb(100%, 100%, 100%)" fill-opacity="1" d="M 8 13.332031 L 24 13.332031 L 24 16 L 8 16 Z M 8 13.332031 "/>
</g>
<mask id="mask-1">
<g filter="url(#filter-remove-color)">
<rect x="-3.2" y="-3.2" width="38.4" height="38.4" fill="rgb(0%, 0%, 0%)" fill-opacity="0.5"/>
</g>
</mask>
<clipPath id="clip-1">
<rect x="0" y="0" width="32" height="32"/>
</clipPath>
<g id="source-11" clip-path="url(#clip-1)">
<path fill-rule="nonzero" fill="rgb(100%, 100%, 100%)" fill-opacity="1" d="M 18.667969 8 L 16 8 L 16 13.332031 L 18.667969 13.332031 Z M 18.667969 8 "/>
<path fill-rule="nonzero" fill="rgb(100%, 100%, 100%)" fill-opacity="1" d="M 16 18.667969 L 13.332031 18.667969 L 13.332031 24 L 16 24 Z M 16 18.667969 "/>
</g>
</defs>
<g mask="url(#mask-0)">
<use xlink:href="#source-6"/>
</g>
<g mask="url(#mask-1)">
<use xlink:href="#source-11"/>
</g>
<path fill-rule="nonzero" fill="rgb(100%, 100%, 100%)" fill-opacity="1" d="M 13.332031 8 L 10.667969 8 L 10.667969 13.332031 L 13.332031 13.332031 Z M 13.332031 8 "/>
<path fill-rule="nonzero" fill="rgb(100%, 100%, 100%)" fill-opacity="1" d="M 18.667969 8 L 21.332031 8 L 21.332031 13.332031 L 18.667969 13.332031 Z M 18.667969 8 "/>
<path fill-rule="evenodd" fill="rgb(100%, 100%, 100%)" fill-opacity="1" d="M 24 26.667969 L 26.667969 26.667969 L 26.667969 5.332031 C 26.667969 3.859375 25.472656 2.667969 24 2.667969 L 8 2.667969 C 6.527344 2.667969 5.332031 3.859375 5.332031 5.332031 L 5.332031 26.667969 L 8 26.667969 C 8 28.140625 9.195312 29.332031 10.667969 29.332031 C 12.140625 29.332031 13.332031 28.140625 13.332031 26.667969 L 18.667969 26.667969 C 18.667969 28.140625 19.859375 29.332031 21.332031 29.332031 C 22.804688 29.332031 24 28.140625 24 26.667969 Z M 10.667969 24 L 10.667969 18.667969 L 13.332031 18.667969 L 13.332031 24 L 18.667969 24 L 18.667969 18.667969 L 21.332031 18.667969 L 21.332031 24 L 24 24 L 24 5.332031 L 8 5.332031 L 8 24 Z M 10.667969 28 C 11.402344 28 12 27.402344 12 26.667969 C 12 25.929688 11.402344 25.332031 10.667969 25.332031 C 9.929688 25.332031 9.332031 25.929688 9.332031 26.667969 C 9.332031 27.402344 9.929688 28 10.667969 28 Z M 21.332031 28 C 22.070312 28 22.667969 27.402344 22.667969 26.667969 C 22.667969 25.929688 22.070312 25.332031 21.332031 25.332031 C 20.597656 25.332031 20 25.929688 20 26.667969 C 20 27.402344 20.597656 28 21.332031 28 Z M 21.332031 28 "/>
</svg>
