<?xml version="1.0" encoding="UTF-8"?>
<svg xmlns="http://www.w3.org/2000/svg" xmlns:xlink="http://www.w3.org/1999/xlink" width="12" height="12" viewBox="0 0 12 12" version="1.1">
<defs>
<filter id="alpha" filterUnits="objectBoundingBox" x="0%" y="0%" width="100%" height="100%">
  <feColorMatrix type="matrix" in="SourceGraphic" values="0 0 0 0 1 0 0 0 0 1 0 0 0 0 1 0 0 0 1 0"/>
</filter>
<mask id="mask0">
  <g filter="url(#alpha)">
<rect x="0" y="0" width="12" height="12" style="fill:rgb(0%,0%,0%);fill-opacity:0.5;stroke:none;"/>
  </g>
</mask>
<clipPath id="clip1">
  <rect x="0" y="0" width="12" height="12"/>
</clipPath>
<g id="surface5" clip-path="url(#clip1)">
<path style=" stroke:none;fill-rule:nonzero;fill:rgb(100%,100%,100%);fill-opacity:1;" d="M 7.484375 2.378906 L 11 1.5 L 11 4.5 L 7.484375 3.621094 C 7.199219 3.550781 7 3.292969 7 3 C 7 2.707031 7.199219 2.449219 7.484375 2.378906 Z M 7.484375 2.378906 "/>
<path style=" stroke:none;fill-rule:nonzero;fill:rgb(100%,100%,100%);fill-opacity:1;" d="M 4.507812 2.40625 L 0 1.546875 L 0 4.5 L 4.511719 3.597656 C 4.796875 3.539062 5 3.292969 5 3.003906 C 5 2.710938 4.792969 2.460938 4.507812 2.40625 Z M 4.507812 2.40625 "/>
</g>
</defs>
<g id="surface1">
<path style=" stroke:none;fill-rule:nonzero;fill:rgb(100%,100%,100%);fill-opacity:1;" d="M 4.5 1.5 L 6 0.5 L 7.5 1.5 L 7.5 2 L 4.5 2 Z M 4.5 1.5 "/>
<path style=" stroke:none;fill-rule:nonzero;fill:rgb(100%,100%,100%);fill-opacity:1;" d="M 5 4.5 L 4.75 4.5 C 4.613281 4.5 4.5 4.386719 4.5 4.25 C 4.5 4.113281 4.613281 4 4.75 4 L 7.25 4 C 7.386719 4 7.5 4.113281 7.5 4.25 C 7.5 4.386719 7.386719 4.5 7.25 4.5 L 7 4.5 L 8 10 L 8 11 L 4 11 L 4 10 Z M 5 4.5 "/>
<path style=" stroke:none;fill-rule:nonzero;fill:rgb(100%,100%,100%);fill-opacity:1;" d="M 6 3.5 C 6.277344 3.5 6.5 3.277344 6.5 3 C 6.5 2.722656 6.277344 2.5 6 2.5 C 5.722656 2.5 5.5 2.722656 5.5 3 C 5.5 3.277344 5.722656 3.5 6 3.5 Z M 6 3.5 "/>
<use xlink:href="#surface5" mask="url(#mask0)"/>
</g>
</svg>
