<?xml version="1.0" encoding="UTF-8"?>
<svg xmlns="http://www.w3.org/2000/svg" xmlns:xlink="http://www.w3.org/1999/xlink" width="12" height="12" viewBox="0 0 12 12" version="1.1">
<g id="surface1">
<path style=" stroke:none;fill-rule:evenodd;fill:rgb(0%,57.254905%,85.490197%);fill-opacity:1;" d="M 9.824219 7.050781 L 8.324219 5.523438 L 8.332031 4.636719 L 9.433594 5.714844 C 9.472656 3.988281 7.984375 2.539062 6.589844 2.351562 L 6.714844 1.605469 C 9.164062 2.089844 10.152344 4.007812 10.199219 5.707031 L 11.3125 4.625 L 11.316406 5.550781 Z M 9.824219 7.050781 "/>
<path style=" stroke:none;fill-rule:evenodd;fill:rgb(0%,57.254905%,85.490197%);fill-opacity:1;" d="M 2.949219 8.414062 L 5.019531 7.886719 L 5.785156 8.339844 L 4.300781 8.75 C 5.769531 9.652344 7.769531 9.097656 8.636719 7.984375 L 9.21875 8.46875 C 7.566406 10.339844 5.414062 10.226562 3.921875 9.414062 L 4.292969 10.921875 L 3.492188 10.457031 Z M 2.949219 8.414062 "/>
<path style=" stroke:none;fill-rule:evenodd;fill:rgb(0%,57.254905%,85.490197%);fill-opacity:1;" d="M 5.214844 1.796875 L 4.628906 3.851562 L 3.851562 4.285156 L 4.246094 2.792969 C 2.726562 3.613281 2.203125 5.625 2.730469 6.929688 L 2.019531 7.191406 C 1.230469 4.820312 2.40625 3.015625 3.863281 2.132812 L 2.371094 1.699219 L 3.171875 1.238281 Z M 5.214844 1.796875 "/>
</g>
</svg>
