<?xml version="1.0" encoding="UTF-8"?>
<svg xmlns="http://www.w3.org/2000/svg" xmlns:xlink="http://www.w3.org/1999/xlink" width="12" height="12" viewBox="0 0 12 12" version="1.1">
<defs>
<filter id="alpha" filterUnits="objectBoundingBox" x="0%" y="0%" width="100%" height="100%">
  <feColorMatrix type="matrix" in="SourceGraphic" values="0 0 0 0 1 0 0 0 0 1 0 0 0 0 1 0 0 0 1 0"/>
</filter>
<mask id="mask0">
  <g filter="url(#alpha)">
<rect x="0" y="0" width="12" height="12" style="fill:rgb(0%,0%,0%);fill-opacity:0.8;stroke:none;"/>
  </g>
</mask>
<clipPath id="clip1">
  <rect x="0" y="0" width="12" height="12"/>
</clipPath>
<g id="surface5" clip-path="url(#clip1)">
<path style=" stroke:none;fill-rule:nonzero;fill:rgb(100%,100%,100%);fill-opacity:1;" d="M 5.445312 0.277344 C 5.171875 0.414062 5 0.695312 5 1 L 7 1 C 7 0.695312 6.828125 0.414062 6.554688 0.277344 L 6.445312 0.222656 C 6.164062 0.0820312 5.835938 0.0820312 5.554688 0.222656 Z M 5.445312 0.277344 "/>
<path style=" stroke:none;fill-rule:nonzero;fill:rgb(100%,100%,100%);fill-opacity:1;" d="M 7 5 L 5 5 L 5 10 L 7 10 Z M 7 5 "/>
</g>
</defs>
<g id="surface1">
<path style=" stroke:none;fill-rule:nonzero;fill:rgb(100%,100%,100%);fill-opacity:1;" d="M 9 2 L 3 2 L 4 3 L 4 4 L 4.5 4 L 5 4.5 L 7 4.5 L 7.5 4 L 8 4 L 8 3 Z M 9 2 "/>
<path style=" stroke:none;fill-rule:nonzero;fill:rgb(100%,100%,100%);fill-opacity:1;" d="M 5 10 C 4.449219 10 4 10.449219 4 11 L 8 11 C 8 10.449219 7.550781 10 7 10 Z M 5 10 "/>
<use xlink:href="#surface5" mask="url(#mask0)"/>
</g>
</svg>
