<?xml version="1.0" encoding="UTF-8"?>
<svg xmlns="http://www.w3.org/2000/svg" xmlns:xlink="http://www.w3.org/1999/xlink" width="12" height="12" viewBox="0 0 12 12" version="1.1">
<g id="surface1">
<path style=" stroke:none;fill-rule:nonzero;fill:rgb(24.705882%,24.705882%,24.705882%);fill-opacity:1;" d="M 4.894531 3.605469 L 3.417969 11.042969 L 8.582031 11.042969 L 7.105469 3.605469 Z M 6.453125 3.808594 L 6.585938 4.625 L 5.453125 4.625 L 5.570312 3.8125 Z M 5.292969 5.464844 L 6.734375 5.464844 L 6.914062 6.394531 L 5.109375 6.394531 Z M 4.921875 7.324219 L 7.09375 7.324219 L 7.273438 8.253906 L 4.734375 8.253906 Z M 4.550781 9.183594 L 7.457031 9.183594 L 7.636719 10.113281 L 4.363281 10.113281 Z M 4.550781 9.183594 "/>
<path style=" stroke:none;fill-rule:nonzero;fill:rgb(24.705882%,24.705882%,24.705882%);fill-opacity:1;" d="M 7.277344 1.050781 L 7.277344 1.859375 L 6.527344 1.859375 L 6.527344 1.050781 L 5.433594 1.050781 L 5.433594 1.859375 L 4.683594 1.859375 L 4.683594 1.050781 L 4.042969 1.054688 L 4.042969 3.777344 L 7.921875 3.777344 L 7.921875 1.054688 Z M 7.277344 1.050781 "/>
</g>
</svg>
