<?xml version="1.0" encoding="UTF-8"?>
<svg xmlns="http://www.w3.org/2000/svg" xmlns:xlink="http://www.w3.org/1999/xlink" width="32" height="32" viewBox="0 0 32 32">
<path fill="none" stroke-width="21.400299" stroke-linecap="round" stroke-linejoin="miter" stroke="rgb(24.705882%, 24.705882%, 24.705882%)" stroke-opacity="1" stroke-miterlimit="4" d="M 290 89.279785 L 290 90.341797 L 195.622559 530.227051 " transform="matrix(0.0551724, 0, 0, 0.0551724, 0, 0)"/>
<path fill-rule="nonzero" fill="rgb(24.705882%, 24.705882%, 24.705882%)" fill-opacity="1" d="M 17.644531 2.15625 L 14.421875 2.15625 C 14.074219 2.15625 13.792969 2.4375 13.792969 2.785156 L 13.792969 5.859375 C 13.792969 6.203125 14.074219 6.484375 14.421875 6.484375 L 17.644531 6.484375 C 17.992188 6.484375 18.273438 6.203125 18.273438 5.859375 L 18.273438 2.785156 C 18.273438 2.4375 17.992188 2.15625 17.644531 2.15625 Z M 17.644531 2.15625 "/>
<path fill="none" stroke-width="21.400299" stroke-linecap="round" stroke-linejoin="miter" stroke="rgb(24.705882%, 24.705882%, 24.705882%)" stroke-opacity="1" stroke-miterlimit="4" d="M 290 89.279785 L 290 90.341797 L 290.212402 530.227051 " transform="matrix(0.0551724, 0, 0, 0.0551724, 0, 0)"/>
<path fill="none" stroke-width="21.400299" stroke-linecap="round" stroke-linejoin="miter" stroke="rgb(24.705882%, 24.705882%, 24.705882%)" stroke-opacity="1" stroke-miterlimit="4" d="M 290 89.279785 L 290 90.341797 L 384.377441 530.227051 " transform="matrix(0.0551724, 0, 0, 0.0551724, 0, 0)"/>
</svg>
