<?xml version="1.0" encoding="UTF-8"?>
<svg xmlns="http://www.w3.org/2000/svg" xmlns:xlink="http://www.w3.org/1999/xlink" width="32" height="32" viewBox="0 0 32 32">
<path fill-rule="nonzero" fill="rgb(100%, 100%, 100%)" fill-opacity="0.75" d="M 24.449219 19.183594 C 24.488281 20.398438 24.445312 19.652344 24.554688 20.628906 C 24.671875 21.652344 24.808594 21.917969 24.660156 23.863281 C 24.34375 27.976562 22.535156 30.058594 22.535156 30.058594 C 22.535156 30.058594 20.320312 26.855469 20.375 23.816406 C 20.375 21.292969 21.214844 21.394531 21.34375 19.1875 Z M 24.449219 19.183594 "/>
<path fill-rule="nonzero" fill="rgb(100%, 100%, 100%)" fill-opacity="1" d="M 22.871094 2.527344 C 21.601562 2.527344 20.703125 3.34375 20.703125 4.949219 L 20.691406 16.441406 C 20.691406 17.132812 20.984375 17.652344 20.984375 17.652344 L 24.722656 17.664062 C 24.722656 17.664062 25.167969 17.132812 25.164062 16.441406 L 25.144531 5.0625 C 25.140625 3.34375 24.136719 2.527344 22.871094 2.527344 Z M 24.132812 15.429688 L 21.683594 15.429688 L 21.683594 14.167969 L 24.132812 14.167969 Z M 24.132812 12.5625 L 21.683594 12.5625 L 21.683594 11.300781 L 24.132812 11.300781 Z M 24.132812 12.5625 "/>
<path fill-rule="nonzero" fill="rgb(100%, 100%, 100%)" fill-opacity="0.825397" d="M 7.984375 8.027344 C 7.984375 6.886719 7.984375 4.03125 7.984375 3.988281 C 7.984375 3.636719 8.132812 3.3125 8.410156 3.0625 C 8.683594 2.816406 9.046875 2.683594 9.433594 2.683594 C 9.820312 2.679688 10.1875 2.816406 10.460938 3.0625 C 10.734375 3.3125 10.886719 3.636719 10.886719 3.988281 C 10.886719 4.035156 10.886719 6.890625 10.882812 8.027344 Z M 7.984375 8.027344 "/>
<path fill-rule="nonzero" fill="rgb(100%, 100%, 100%)" fill-opacity="1" d="M 9.433594 30.15625 C 8.578125 30.15625 7.769531 29.855469 7.164062 29.308594 C 6.558594 28.765625 6.222656 28.039062 6.222656 27.265625 C 6.222656 27.242188 6.222656 27.160156 6.222656 27.035156 L 7.285156 27.039062 C 7.523438 27.039062 7.71875 26.863281 7.71875 26.648438 C 7.71875 26.539062 7.671875 26.441406 7.59375 26.371094 C 7.511719 26.300781 7.40625 26.253906 7.285156 26.253906 L 6.222656 26.253906 C 6.222656 25.867188 6.222656 25.378906 6.222656 24.828125 L 7.898438 24.828125 C 8.140625 24.828125 8.332031 24.652344 8.332031 24.4375 C 8.332031 24.328125 8.285156 24.230469 8.207031 24.160156 C 8.128906 24.089844 8.019531 24.046875 7.898438 24.046875 L 6.222656 24.046875 C 6.222656 23.59375 6.222656 23.117188 6.222656 22.617188 L 7.285156 22.617188 C 7.523438 22.617188 7.71875 22.441406 7.71875 22.226562 C 7.71875 22.117188 7.671875 22.019531 7.59375 21.949219 C 7.511719 21.878906 7.40625 21.835938 7.285156 21.835938 L 6.222656 21.835938 C 6.222656 21.367188 6.222656 20.886719 6.222656 20.40625 L 7.898438 20.40625 C 8.140625 20.40625 8.332031 20.230469 8.332031 20.015625 C 8.332031 19.910156 8.285156 19.8125 8.207031 19.738281 C 8.128906 19.667969 8.019531 19.625 7.898438 19.625 L 6.222656 19.625 C 6.222656 19.144531 6.222656 18.664062 6.222656 18.195312 L 7.285156 18.195312 C 7.523438 18.195312 7.71875 18.023438 7.71875 17.804688 C 7.71875 17.699219 7.671875 17.601562 7.59375 17.53125 C 7.511719 17.460938 7.40625 17.414062 7.285156 17.414062 L 6.222656 17.414062 C 6.222656 16.914062 6.222656 16.4375 6.222656 15.988281 L 7.898438 15.988281 C 8.140625 15.988281 8.332031 15.8125 8.332031 15.597656 C 8.332031 15.488281 8.285156 15.390625 8.207031 15.320312 C 8.128906 15.25 8.019531 15.207031 7.898438 15.207031 L 6.222656 15.207031 L 6.222656 13.777344 L 7.285156 13.777344 C 7.523438 13.777344 7.71875 13.601562 7.71875 13.386719 C 7.71875 13.277344 7.671875 13.179688 7.59375 13.109375 C 7.511719 13.039062 7.40625 12.996094 7.285156 12.996094 L 6.222656 12.996094 L 6.222656 12.660156 C 6.222656 12.039062 6.707031 11.421875 7.171875 10.820312 C 7.570312 10.308594 7.980469 9.78125 7.984375 9.351562 L 7.984375 8.808594 L 9 8.808594 L 9 22.707031 C 9 22.921875 9.191406 23.097656 9.433594 23.097656 C 9.671875 23.097656 9.867188 22.921875 9.867188 22.707031 L 9.867188 8.808594 L 10.882812 8.808594 C 10.882812 9.019531 10.882812 9.207031 10.882812 9.351562 C 10.882812 9.769531 11.292969 10.296875 11.6875 10.804688 C 12.15625 11.410156 12.644531 12.035156 12.644531 12.660156 C 12.640625 13.042969 12.640625 26.851562 12.644531 27.269531 C 12.644531 28.859375 11.203125 30.15625 9.433594 30.15625 Z M 9.433594 30.15625 "/>
</svg>
