<?xml version="1.0" encoding="UTF-8"?>
<svg xmlns="http://www.w3.org/2000/svg" xmlns:xlink="http://www.w3.org/1999/xlink" width="12" height="12" viewBox="0 0 12 12" version="1.1">
<g id="surface1">
<path style=" stroke:none;fill-rule:nonzero;fill:rgb(100%,100%,100%);fill-opacity:1;" d="M 7.4375 5 L 6.144531 5.5 C 6.050781 5.574219 6.003906 6.039062 6.46875 5.992188 C 6.601562 5.980469 6.703125 5.941406 7.121094 5.761719 L 7.425781 6.5 C 7.4375 6.5 6.496094 6.5 5.996094 7.5 C 3.996094 7.5 3.816406 6.773438 3.496094 6.5 C 2.496094 6.5 2.492188 6.476562 1.496094 6.5 C 0.992188 6.984375 1.089844 7 0.871094 7.371094 L 1.121094 7.800781 C 1.933594 7.332031 2.949219 7.414062 3.671875 8.003906 C 4.398438 8.597656 4.679688 9.578125 4.378906 10.464844 C 4.378906 10.472656 4.367188 10.492188 4.363281 10.5 L 7.636719 10.5 C 7.566406 10.363281 7.5 10.195312 7.5 9.75 C 7.5 9.171875 7.761719 8.449219 8.253906 8.109375 C 8.449219 7.953125 8.601562 7.867188 8.601562 7.867188 C 8.199219 6.917969 7.808594 5.960938 7.4375 5 Z M 9 6 C 8.710938 6 8.449219 6.070312 8.449219 6.070312 C 8.449219 6.070312 8.898438 7.164062 9.085938 7.652344 C 9.332031 7.597656 9.558594 7.492188 9.757812 7.34375 C 9.933594 7.207031 10 6.921875 10 6.738281 C 10.007812 6.199219 9.5 6 9 6 Z M 9 6 "/>
<path style=" stroke:none;fill-rule:evenodd;fill:rgb(100%,100%,100%);fill-opacity:1;" d="M 10 0.5 L 9 0.5 L 9 1.085938 C 8.949219 1.101562 8.898438 1.121094 8.851562 1.144531 L 8.441406 0.734375 L 7.734375 1.441406 L 8.144531 1.851562 C 8.121094 1.902344 8.101562 1.949219 8.085938 2 L 7.5 2 L 7.5 3 L 8.085938 3 C 8.101562 3.050781 8.121094 3.101562 8.144531 3.148438 L 7.734375 3.558594 L 8.441406 4.265625 L 8.851562 3.855469 C 8.902344 3.878906 8.949219 3.898438 9 3.914062 L 9 4.5 L 10 4.5 L 10 3.914062 C 10.050781 3.898438 10.101562 3.878906 10.148438 3.855469 L 10.558594 4.265625 L 11.265625 3.558594 L 10.855469 3.148438 C 10.878906 3.097656 10.898438 3.050781 10.914062 3 L 11.5 3 L 11.5 2 L 10.914062 2 C 10.898438 1.949219 10.878906 1.898438 10.855469 1.851562 L 11.265625 1.441406 L 10.558594 0.734375 L 10.148438 1.144531 C 10.097656 1.121094 10.050781 1.101562 10 1.085938 Z M 9 2.5 C 9 2.226562 9.226562 2 9.5 2 C 9.773438 2 10 2.234375 10 2.507812 C 9.992188 2.777344 9.773438 2.996094 9.5 3 C 9.222656 3 9 2.777344 9 2.5 Z M 9 2.5 "/>
<path style=" stroke:none;fill-rule:nonzero;fill:rgb(100%,100%,100%);fill-opacity:1;" d="M 2.261719 8 C 1.292969 8 0.511719 8.785156 0.511719 9.75 C 0.511719 10.714844 1.292969 11.5 2.261719 11.5 C 3.160156 11.5 3.902344 10.875 4 10 L 2.957031 10 C 2.835938 10.355469 2.613281 10.503906 2.257812 10.5 C 2.058594 10.5 1.867188 10.421875 1.726562 10.28125 C 1.582031 10.140625 1.503906 9.949219 1.503906 9.75 C 1.503906 9.328125 1.835938 9 2.261719 9 C 2.617188 9 2.824219 9.144531 2.960938 9.5 L 4 9.5 C 3.898438 8.625 3.15625 8 2.261719 8 Z M 2.960938 9.5 L 2.25 9.5 C 2.109375 9.5 2 9.609375 2 9.75 C 2 9.890625 2.109375 10 2.25 10 L 2.957031 10 C 3.019531 9.820312 3.007812 9.65625 2.957031 9.5 Z M 2.960938 9.5 "/>
<path style=" stroke:none;fill-rule:nonzero;fill:rgb(100%,100%,100%);fill-opacity:1;" d="M 8.179688 10.488281 C 8.582031 11.359375 9.617188 11.738281 10.484375 11.332031 C 11.355469 10.929688 11.734375 9.898438 11.328125 9.027344 C 10.984375 8.222656 10.082031 7.816406 9.25 8.089844 L 9.683594 9.039062 C 10.054688 9 10.28125 9.128906 10.425781 9.445312 C 10.601562 9.824219 10.445312 10.261719 10.066406 10.4375 C 9.691406 10.613281 9.253906 10.453125 9.078125 10.074219 C 8.925781 9.75 8.972656 9.515625 9.234375 9.246094 L 8.800781 8.296875 C 8.058594 8.757812 7.789062 9.707031 8.175781 10.488281 Z M 9.238281 9.25 L 9.53125 9.875 C 9.59375 10 9.734375 10.054688 9.863281 9.996094 C 9.921875 9.96875 9.96875 9.917969 9.992188 9.855469 C 10.015625 9.792969 10.011719 9.722656 9.984375 9.664062 C 9.886719 9.457031 9.785156 9.246094 9.6875 9.039062 C 9.542969 9.066406 9.394531 9.113281 9.238281 9.25 Z M 9.238281 9.25 "/>
</g>
</svg>
