<?xml version="1.0" encoding="UTF-8"?>
<svg xmlns="http://www.w3.org/2000/svg" xmlns:xlink="http://www.w3.org/1999/xlink" width="12" height="12" viewBox="0 0 12 12" version="1.1">
<defs>
<filter id="alpha" filterUnits="objectBoundingBox" x="0%" y="0%" width="100%" height="100%">
  <feColorMatrix type="matrix" in="SourceGraphic" values="0 0 0 0 1 0 0 0 0 1 0 0 0 0 1 0 0 0 1 0"/>
</filter>
<mask id="mask0">
  <g filter="url(#alpha)">
<rect x="0" y="0" width="12" height="12" style="fill:rgb(0%,0%,0%);fill-opacity:0.1;stroke:none;"/>
  </g>
</mask>
<clipPath id="clip1">
  <rect x="0" y="0" width="12" height="12"/>
</clipPath>
<g id="surface5" clip-path="url(#clip1)">
<path style=" stroke:none;fill-rule:nonzero;fill:rgb(24.705882%,24.705882%,24.705882%);fill-opacity:1;" d="M 9 6 C 9 7.65625 7.65625 9 6 9 C 4.34375 9 3 7.65625 3 6 C 3 4.34375 4.34375 3 6 3 C 7.65625 3 9 4.34375 9 6 Z M 9 6 "/>
</g>
</defs>
<g id="surface1">
<path style=" stroke:none;fill-rule:evenodd;fill:rgb(24.705882%,24.705882%,24.705882%);fill-opacity:1;" d="M 6.5 1.5 C 6.5 1.222656 6.277344 1 6 1 C 5.722656 1 5.5 1.222656 5.5 1.5 L 5.5 2.03125 C 4.769531 2.121094 4.101562 2.410156 3.546875 2.839844 L 2.355469 1.644531 C 2.160156 1.453125 1.839844 1.453125 1.644531 1.644531 C 1.453125 1.839844 1.453125 2.160156 1.644531 2.355469 L 2.839844 3.546875 C 2.410156 4.101562 2.121094 4.769531 2.03125 5.5 L 1.5 5.5 C 1.222656 5.5 1 5.722656 1 6 C 1 6.277344 1.222656 6.5 1.5 6.5 L 2.03125 6.5 C 2.121094 7.230469 2.410156 7.898438 2.839844 8.453125 L 1.644531 9.644531 C 1.453125 9.839844 1.453125 10.160156 1.644531 10.355469 C 1.839844 10.546875 2.160156 10.546875 2.355469 10.355469 L 3.546875 9.160156 C 4.101562 9.589844 4.769531 9.878906 5.5 9.96875 L 5.5 10.5 C 5.5 10.777344 5.722656 11 6 11 C 6.277344 11 6.5 10.777344 6.5 10.5 L 6.5 9.96875 C 7.230469 9.878906 7.898438 9.589844 8.453125 9.160156 L 9.644531 10.355469 C 9.839844 10.546875 10.160156 10.546875 10.355469 10.355469 C 10.546875 10.160156 10.546875 9.839844 10.355469 9.644531 L 9.160156 8.453125 C 9.589844 7.898438 9.878906 7.230469 9.96875 6.5 L 10.5 6.5 C 10.777344 6.5 11 6.277344 11 6 C 11 5.722656 10.777344 5.5 10.5 5.5 L 9.96875 5.5 C 9.878906 4.769531 9.589844 4.101562 9.160156 3.546875 L 10.355469 2.355469 C 10.546875 2.160156 10.546875 1.839844 10.355469 1.644531 C 10.160156 1.453125 9.839844 1.453125 9.644531 1.644531 L 8.453125 2.839844 C 7.898438 2.410156 7.230469 2.121094 6.5 2.03125 Z M 6 9 C 4.34375 9 3 7.65625 3 6 C 3 4.34375 4.34375 3 6 3 C 7.65625 3 9 4.34375 9 6 C 9 7.65625 7.65625 9 6 9 Z M 6 9 "/>
<use xlink:href="#surface5" mask="url(#mask0)"/>
</g>
</svg>
