<?xml version="1.0" encoding="UTF-8"?>
<svg xmlns="http://www.w3.org/2000/svg" xmlns:xlink="http://www.w3.org/1999/xlink" width="32" height="32" viewBox="0 0 32 32">
<path fill-rule="nonzero" fill="rgb(100%, 100%, 100%)" fill-opacity="1" d="M 21.335938 7.949219 C 21.335938 7.949219 16.886719 5.132812 15.648438 9.863281 C 15.648438 9.863281 14.914062 11.945312 17.789062 15.210938 C 20.660156 18.476562 18.6875 22.195312 18.6875 22.195312 C 18.6875 22.195312 15.421875 26.246094 18.746094 28.839844 C 22.066406 31.429688 25.445312 27.035156 24.320312 24.390625 C 23.191406 21.742188 24.882812 17.632812 25.671875 16.507812 C 26.457031 15.382812 26.121094 11.269531 24.65625 10.257812 C 23.191406 9.242188 21.335938 7.949219 21.335938 7.949219 Z M 21.335938 7.949219 "/>
<path fill-rule="nonzero" fill="rgb(100%, 100%, 100%)" fill-opacity="1" d="M 16.746094 6.707031 C 17.570312 6.707031 18.238281 5.738281 18.238281 4.539062 C 18.238281 3.34375 17.570312 2.371094 16.746094 2.371094 C 15.921875 2.371094 15.253906 3.34375 15.253906 4.539062 C 15.253906 5.738281 15.921875 6.707031 16.746094 6.707031 Z M 16.746094 6.707031 "/>
<path fill-rule="nonzero" fill="rgb(100%, 100%, 100%)" fill-opacity="1" d="M 19.832031 6.707031 C 20.464844 6.707031 20.976562 5.964844 20.976562 5.046875 C 20.976562 4.128906 20.464844 3.386719 19.832031 3.386719 C 19.199219 3.386719 18.6875 4.128906 18.6875 5.046875 C 18.6875 5.964844 19.199219 6.707031 19.832031 6.707031 Z M 19.832031 6.707031 "/>
<path fill-rule="nonzero" fill="rgb(100%, 100%, 100%)" fill-opacity="1" d="M 22.382812 7.582031 C 22.960938 7.582031 23.425781 6.902344 23.425781 6.0625 C 23.425781 5.222656 22.960938 4.539062 22.382812 4.539062 C 21.804688 4.539062 21.335938 5.222656 21.335938 6.0625 C 21.335938 6.902344 21.804688 7.582031 22.382812 7.582031 Z M 22.382812 7.582031 "/>
<path fill-rule="nonzero" fill="rgb(100%, 100%, 100%)" fill-opacity="1" d="M 24.601562 9.101562 C 25.179688 9.101562 25.648438 8.421875 25.648438 7.582031 C 25.648438 6.742188 25.179688 6.0625 24.601562 6.0625 C 24.023438 6.0625 23.554688 6.742188 23.554688 7.582031 C 23.554688 8.421875 24.023438 9.101562 24.601562 9.101562 Z M 24.601562 9.101562 "/>
<path fill-rule="nonzero" fill="rgb(100%, 100%, 100%)" fill-opacity="1" d="M 26.417969 11.128906 C 26.917969 11.128906 27.320312 10.542969 27.320312 9.820312 C 27.320312 9.097656 26.917969 8.515625 26.417969 8.515625 C 25.921875 8.515625 25.519531 9.097656 25.519531 9.820312 C 25.519531 10.542969 25.921875 11.128906 26.417969 11.128906 Z M 26.417969 11.128906 "/>
<path fill-rule="nonzero" fill="rgb(100%, 100%, 100%)" fill-opacity="1" d="M 13.792969 4.707031 L 4.679688 8.621094 L 6.25 12.273438 L 15.359375 8.355469 Z M 13.792969 4.707031 "/>
</svg>
