<?xml version="1.0" encoding="UTF-8"?>
<svg xmlns="http://www.w3.org/2000/svg" xmlns:xlink="http://www.w3.org/1999/xlink" width="12" height="12" viewBox="0 0 12 12" version="1.1">
<g id="surface1">
<path style=" stroke:none;fill-rule:nonzero;fill:rgb(24.705882%,24.705882%,24.705882%);fill-opacity:1;" d="M 6.523438 2.539062 L 5.476562 2.539062 C 5.367188 2.539062 5.28125 2.628906 5.28125 2.738281 L 5.28125 3.699219 C 5.28125 3.808594 5.367188 3.894531 5.476562 3.894531 L 6.523438 3.894531 C 6.632812 3.894531 6.71875 3.808594 6.71875 3.699219 L 6.71875 2.738281 C 6.71875 2.628906 6.632812 2.539062 6.523438 2.539062 Z M 6.523438 2.539062 "/>
<path style="fill:none;stroke-width:36.25;stroke-linecap:round;stroke-linejoin:miter;stroke:rgb(24.705882%,24.705882%,24.705882%);stroke-opacity:1;stroke-miterlimit:4;" d="M 289.622396 141.035156 L 289.622396 516.940104 " transform="matrix(0.0206897,0,0,0.0206897,0,0)"/>
<path style=" stroke:none;fill-rule:nonzero;fill:rgb(24.705882%,24.705882%,24.705882%);fill-opacity:1;" d="M 3.886719 1.089844 C 3.371094 1.617188 3.050781 2.332031 3.050781 3.121094 C 3.050781 3.953125 3.402344 4.703125 3.96875 5.234375 L 4.328125 4.875 C 3.855469 4.4375 3.5625 3.816406 3.5625 3.121094 C 3.5625 2.472656 3.820312 1.882812 4.242188 1.449219 Z M 8.113281 1.089844 L 7.757812 1.449219 C 8.179688 1.882812 8.4375 2.472656 8.4375 3.121094 C 8.4375 3.816406 8.144531 4.4375 7.671875 4.875 L 8.03125 5.234375 C 8.597656 4.703125 8.949219 3.953125 8.949219 3.121094 C 8.949219 2.332031 8.628906 1.617188 8.113281 1.089844 Z M 8.113281 1.089844 "/>
</g>
</svg>
