<?xml version="1.0" encoding="UTF-8"?>
<svg xmlns="http://www.w3.org/2000/svg" xmlns:xlink="http://www.w3.org/1999/xlink" width="32" height="32" viewBox="0 0 32 32">
<path fill-rule="evenodd" fill="rgb(100%, 100%, 100%)" fill-opacity="1" d="M 9.308594 10.375 C 9.019531 10.519531 8.757812 10.738281 8.550781 11.035156 L 5.527344 15.425781 C 5.285156 15.785156 5.226562 16.238281 5.375 16.644531 C 5.390625 16.6875 5.40625 16.726562 5.425781 16.765625 C 5.59375 17.113281 5.902344 17.371094 6.277344 17.472656 L 10.230469 18.539062 L 11.277344 21.65625 L 13.804688 20.804688 L 12.757812 17.691406 C 12.710938 17.554688 12.65625 17.425781 12.589844 17.300781 C 12.484375 17.09375 12.347656 16.90625 12.191406 16.734375 C 12.105469 16.640625 12.011719 16.550781 11.910156 16.46875 C 11.625 16.238281 11.292969 16.066406 10.925781 15.964844 L 9.675781 15.628906 L 11.039062 13.871094 C 11.167969 13.953125 11.296875 14.03125 11.429688 14.101562 C 11.808594 14.304688 12.210938 14.464844 12.625 14.574219 C 12.800781 14.621094 12.976562 14.660156 13.15625 14.691406 C 13.4375 14.738281 13.71875 14.765625 14.003906 14.769531 C 14.636719 14.78125 15.277344 14.683594 15.898438 14.476562 L 15.046875 11.949219 C 14.722656 12.058594 14.386719 12.109375 14.054688 12.105469 C 13.292969 12.09375 12.550781 11.789062 11.996094 11.234375 L 11.9375 11.179688 C 11.40625 10.234375 10.222656 9.921875 9.308594 10.375 Z M 3.570312 18.765625 C 2.105469 19.746094 1.417969 21.617188 2.003906 23.363281 C 2.707031 25.457031 4.976562 26.585938 7.070312 25.882812 C 8.042969 25.554688 8.804688 24.894531 9.273438 24.066406 C 9.601562 23.488281 9.785156 22.832031 9.796875 22.152344 C 9.804688 21.726562 9.742188 21.289062 9.601562 20.863281 C 9.597656 20.847656 9.59375 20.832031 9.589844 20.816406 C 9.363281 20.144531 8.976562 19.570312 8.484375 19.128906 C 7.832031 18.535156 6.992188 18.171875 6.109375 18.101562 C 5.585938 18.0625 5.050781 18.121094 4.523438 18.300781 C 4.175781 18.414062 3.859375 18.574219 3.570312 18.765625 Z M 16.859375 21.519531 C 17.730469 21.894531 18.738281 21.960938 19.710938 21.636719 C 21.804688 20.929688 22.929688 18.664062 22.226562 16.570312 C 21.671875 14.917969 20.144531 13.867188 18.496094 13.84375 C 18.054688 13.835938 17.605469 13.902344 17.160156 14.050781 C 16.71875 14.199219 16.320312 14.417969 15.96875 14.691406 C 15.523438 15.042969 15.164062 15.476562 14.902344 15.96875 C 14.714844 16.324219 14.578125 16.707031 14.503906 17.105469 C 14.484375 17.210938 14.46875 17.320312 14.457031 17.429688 C 14.398438 17.984375 14.457031 18.554688 14.644531 19.117188 C 14.792969 19.5625 15.011719 19.960938 15.285156 20.308594 C 15.703125 20.84375 16.246094 21.257812 16.859375 21.519531 Z M 18.011719 16.578125 C 17.3125 16.8125 16.9375 17.570312 17.171875 18.269531 C 17.40625 18.964844 18.164062 19.34375 18.859375 19.105469 C 19.558594 18.871094 19.933594 18.117188 19.699219 17.417969 C 19.464844 16.722656 18.707031 16.34375 18.011719 16.578125 Z M 10.761719 7.539062 C 10.777344 7.609375 10.800781 7.675781 10.820312 7.742188 C 11.21875 8.925781 12.367188 9.648438 13.558594 9.550781 C 13.601562 9.550781 13.640625 9.542969 13.683594 9.539062 C 13.792969 9.527344 13.902344 9.503906 14.011719 9.476562 C 14.074219 9.460938 14.136719 9.441406 14.199219 9.421875 C 15.59375 8.953125 16.347656 7.441406 15.878906 6.042969 C 15.40625 4.648438 13.894531 3.894531 12.5 4.367188 C 11.171875 4.8125 10.425781 6.203125 10.761719 7.539062 Z M 6.222656 23.355469 C 6.917969 23.121094 7.296875 22.363281 7.0625 21.664062 C 6.824219 20.96875 6.070312 20.59375 5.371094 20.828125 C 4.675781 21.0625 4.296875 21.816406 4.53125 22.515625 C 4.765625 23.214844 5.523438 23.589844 6.222656 23.355469 Z M 6.222656 23.355469 "/>
<path fill-rule="nonzero" fill="rgb(85.098039%, 85.098039%, 85.098039%)" fill-opacity="1" d="M 29.332031 20 L 29.332031 29.332031 L 2.667969 29.332031 Z M 29.332031 20 "/>
</svg>
