<?xml version="1.0" encoding="UTF-8"?>
<svg xmlns="http://www.w3.org/2000/svg" xmlns:xlink="http://www.w3.org/1999/xlink" width="32" height="32" viewBox="0 0 32 32">
<path fill-rule="nonzero" fill="rgb(100%, 100%, 100%)" fill-opacity="1" d="M 21.835938 25.28125 C 18.328125 24.503906 17.640625 24.449219 15.574219 24.78125 C 13.667969 25.085938 11.953125 25.066406 9.046875 24.699219 C 6.707031 24.40625 4.324219 23.765625 2.835938 23.035156 C 2.117188 22.679688 1.882812 22.46875 1.882812 22.171875 C 1.882812 21.792969 2.035156 21.5625 2.683594 20.96875 C 3.730469 20.011719 4.007812 19.394531 4.871094 16.113281 C 5.660156 13.101562 5.828125 12.675781 6.78125 11.246094 C 8.300781 8.972656 10.886719 7.25 13.683594 6.65625 C 14.484375 6.488281 17.515625 6.488281 18.316406 6.65625 C 20.425781 7.105469 22.34375 8.132812 23.925781 9.664062 C 25.035156 10.738281 25.910156 12.054688 26.480469 13.507812 C 27.746094 15.800781 26.988281 20.703125 29.234375 21.6875 C 29.898438 21.96875 30.117188 22.214844 30.117188 22.691406 C 30.117188 23.046875 30.082031 23.125 29.792969 23.40625 C 29.375 23.8125 28.851562 24.089844 27.65625 24.546875 C 25.859375 25.234375 25.074219 25.421875 23.867188 25.460938 C 22.9375 25.488281 22.65625 25.464844 21.835938 25.28125 Z M 13.109375 19.152344 C 13.125 17.273438 12.917969 17.597656 15.0625 16.058594 C 15.765625 15.554688 16.335938 15.101562 16.335938 15.050781 C 16.335938 15 15.785156 14.851562 15.113281 14.722656 C 14.441406 14.597656 13.703125 14.414062 13.472656 14.324219 C 13.03125 14.144531 12.945312 13.90625 12.652344 12.039062 C 12.550781 11.398438 12.429688 11.101562 12.328125 11.230469 C 11.3125 12.535156 10.523438 13.601562 10.40625 13.828125 C 10.222656 14.175781 9.535156 14.390625 8.535156 14.402344 C 8.136719 14.410156 7.554688 14.453125 7.246094 14.503906 L 6.6875 14.59375 L 7.222656 15.386719 C 7.515625 15.824219 7.90625 16.46875 8.089844 16.820312 L 8.421875 17.460938 L 7.6875 18.925781 C 7.285156 19.730469 6.984375 20.421875 7.023438 20.460938 C 7.058594 20.5 7.792969 20.179688 8.652344 19.757812 C 9.789062 19.195312 10.304688 19.007812 10.535156 19.066406 C 10.707031 19.109375 11.296875 19.535156 11.84375 20.011719 C 12.386719 20.484375 12.894531 20.851562 12.964844 20.828125 C 13.042969 20.800781 13.101562 20.113281 13.109375 19.152344 Z M 13.109375 19.152344 "/>
</svg>
