<?xml version="1.0" encoding="UTF-8"?>
<svg xmlns="http://www.w3.org/2000/svg" xmlns:xlink="http://www.w3.org/1999/xlink" width="32" height="32" viewBox="0 0 32 32">
<path fill-rule="nonzero" fill="rgb(24.705882%, 24.705882%, 24.705882%)" fill-opacity="1" d="M 29.332031 13.320312 L 29.332031 4.695312 C 29.332031 3.578125 28.421875 2.667969 27.304688 2.667969 L 18.316406 2.667969 C 17.566406 2.667969 16.851562 2.710938 16.332031 3.226562 L 3.160156 16.398438 C 2.839844 16.714844 2.667969 17.136719 2.667969 17.585938 C 2.667969 18.03125 2.839844 18.453125 3.15625 18.769531 L 13.230469 28.84375 C 13.546875 29.160156 13.96875 29.332031 14.414062 29.332031 C 14.863281 29.332031 15.285156 29.160156 15.597656 28.84375 L 28.773438 15.664062 C 29.339844 15.101562 29.335938 14.289062 29.332031 13.507812 Z M 21.703125 17.113281 L 20.539062 15.945312 C 21.289062 14.859375 21.453125 13.523438 20.203125 12.273438 C 18.453125 10.523438 17.035156 11.523438 16.535156 12.023438 C 15.367188 13.191406 16.117188 14.609375 17.117188 16.195312 C 18.285156 18.113281 19.285156 20.28125 17.367188 22.199219 C 15.117188 24.535156 12.363281 23.117188 11.277344 22.367188 L 10.195312 23.453125 L 9.023438 22.285156 L 10.191406 21.117188 C 9.359375 19.949219 8.191406 17.613281 10.527344 14.859375 L 11.695312 16.027344 C 10.945312 16.777344 10.027344 18.695312 11.863281 20.53125 C 13.695312 22.367188 14.949219 21.949219 15.949219 20.949219 C 18.785156 18.113281 11.359375 14.523438 15.113281 10.769531 C 17.117188 8.769531 19.621094 9.6875 20.703125 10.519531 L 22.039062 9.1875 L 23.207031 10.355469 L 21.871094 11.6875 C 23.289062 13.691406 22.621094 15.441406 21.703125 17.113281 Z M 25.144531 8.824219 C 24.183594 8.824219 23.402344 8.046875 23.402344 7.085938 C 23.402344 6.125 24.183594 5.347656 25.144531 5.347656 C 26.101562 5.347656 26.882812 6.125 26.882812 7.085938 C 26.882812 8.046875 26.101562 8.824219 25.144531 8.824219 Z M 25.144531 8.824219 "/>
</svg>
