<?xml version="1.0" encoding="UTF-8"?>
<svg xmlns="http://www.w3.org/2000/svg" xmlns:xlink="http://www.w3.org/1999/xlink" width="32" height="32" viewBox="0 0 32 32">
<path fill-rule="nonzero" fill="rgb(24.705882%, 24.705882%, 24.705882%)" fill-opacity="1" d="M 4.941406 3.058594 C 4.421875 2.535156 3.578125 2.535156 3.058594 3.058594 C 2.535156 3.578125 2.535156 4.421875 3.058594 4.941406 L 7.050781 8.933594 C 6.25 10.027344 5.789062 11.210938 5.566406 12.230469 C 4.433594 17.398438 7.808594 20.46875 7.808594 20.46875 C 7.808594 20.46875 20.523438 26.710938 21.585938 26.667969 C 22.539062 26.628906 23.402344 26.390625 24.136719 26.019531 L 27.058594 28.941406 C 27.578125 29.464844 28.421875 29.464844 28.941406 28.941406 C 29.464844 28.421875 29.464844 27.578125 28.941406 27.058594 Z M 4.941406 3.058594 "/>
<path fill-rule="nonzero" fill="rgb(24.705882%, 24.705882%, 24.705882%)" fill-opacity="1" d="M 22.441406 11.355469 C 23.300781 12.453125 24.527344 15.992188 25.277344 18.839844 L 26.257812 19.820312 C 25.667969 16.980469 24.484375 12.699219 22.988281 10.605469 C 21.261719 8.183594 18.417969 5.3125 14.632812 5.332031 C 14.511719 5.335938 14.390625 5.335938 14.265625 5.34375 C 13.476562 5.386719 12.753906 5.496094 12.09375 5.65625 L 19.269531 12.832031 C 20.59375 12.484375 21.765625 11.96875 22.441406 11.355469 Z M 22.441406 11.355469 "/>
</svg>
