<?xml version="1.0" encoding="UTF-8"?>
<svg xmlns="http://www.w3.org/2000/svg" xmlns:xlink="http://www.w3.org/1999/xlink" width="12" height="12" viewBox="0 0 12 12" version="1.1">
<defs>
<filter id="alpha" filterUnits="objectBoundingBox" x="0%" y="0%" width="100%" height="100%">
  <feColorMatrix type="matrix" in="SourceGraphic" values="0 0 0 0 1 0 0 0 0 1 0 0 0 0 1 0 0 0 1 0"/>
</filter>
<mask id="mask0">
  <g filter="url(#alpha)">
<rect x="0" y="0" width="12" height="12" style="fill:rgb(0%,0%,0%);fill-opacity:0.3;stroke:none;"/>
  </g>
</mask>
<clipPath id="clip1">
  <rect x="0" y="0" width="12" height="12"/>
</clipPath>
<g id="surface5" clip-path="url(#clip1)">
<path style=" stroke:none;fill-rule:evenodd;fill:rgb(100%,100%,100%);fill-opacity:1;" d="M 7 1 L 3.214844 4.785156 L 5.589844 7.398438 L 5.992188 8 L 6 8 L 6 7 L 7 7 L 7 8 L 8 8 L 8 9 L 7 9 L 7 9.503906 L 8 11 L 15 11 L 12 7 Z M 7 1 "/>
</g>
<mask id="mask1">
  <g filter="url(#alpha)">
<rect x="0" y="0" width="12" height="12" style="fill:rgb(0%,0%,0%);fill-opacity:0.6;stroke:none;"/>
  </g>
</mask>
<clipPath id="clip2">
  <rect x="0" y="0" width="12" height="12"/>
</clipPath>
<g id="surface8" clip-path="url(#clip2)">
<path style=" stroke:none;fill-rule:evenodd;fill:rgb(100%,100%,100%);fill-opacity:1;" d="M -5.5 11 L 2 3 L 5.75 8 L 5 8 L 5 9 L 6 9 L 6 10 L 7 10 L 7 9.667969 L 8 11 Z M -5.5 11 "/>
</g>
</defs>
<g id="surface1">
<use xlink:href="#surface5" mask="url(#mask0)"/>
<use xlink:href="#surface8" mask="url(#mask1)"/>
<path style=" stroke:none;fill-rule:evenodd;fill:rgb(100%,100%,100%);fill-opacity:1;" d="M 6.5 3 L 10 6 L 9 6 L 9 11 L 4 11 L 4 6 L 3 6 Z M 6 8 L 6 7 L 7 7 L 7 8 L 8 8 L 8 9 L 7 9 L 7 10 L 6 10 L 6 9 L 5 9 L 5 8 Z M 6 8 "/>
</g>
</svg>
