<?xml version="1.0" encoding="UTF-8"?>
<svg xmlns="http://www.w3.org/2000/svg" xmlns:xlink="http://www.w3.org/1999/xlink" width="12" height="12" viewBox="0 0 12 12" version="1.1">
<g id="surface1">
<path style=" stroke:none;fill-rule:evenodd;fill:rgb(100%,100%,100%);fill-opacity:1;" d="M 8 4 L 4 4 L 4 2 L 8 2 Z M 8 4 "/>
<path style=" stroke:none;fill-rule:nonzero;fill:rgb(100%,100%,100%);fill-opacity:1;" d="M -2.59375 5.378906 C -2.539062 5.15625 -2.339844 5 -2.109375 5 L 1.109375 5 C 1.339844 5 1.539062 5.15625 1.59375 5.378906 L 2 7 L 4 7 L 4 9 L 3 9 C 3 9.550781 2.550781 10 2 10 C 1.449219 10 1 9.550781 1 9 L -2 9 C -2 9.550781 -2.449219 10 -3 10 C -3.550781 10 -4 9.550781 -4 9 L -5 9 L -5 7 L -3 7 Z M -2.59375 5.378906 "/>
<path style=" stroke:none;fill-rule:nonzero;fill:rgb(100%,100%,100%);fill-opacity:1;" d="M 10.40625 5.378906 C 10.460938 5.15625 10.660156 5 10.890625 5 L 14.109375 5 C 14.339844 5 14.539062 5.15625 14.59375 5.378906 L 15 7 L 17 7 L 17 9 L 16 9 C 16 9.550781 15.550781 10 15 10 C 14.449219 10 14 9.550781 14 9 L 11 9 C 11 9.550781 10.550781 10 10 10 C 9.449219 10 9 9.550781 9 9 L 8 9 L 8 7 L 10 7 Z M 10.40625 5.378906 "/>
<path style=" stroke:none;fill-rule:nonzero;fill:rgb(100%,100%,100%);fill-opacity:1;" d="M 8 1 L 10 3 L 8 5 Z M 8 1 "/>
<path style=" stroke:none;fill-rule:nonzero;fill:rgb(100%,100%,100%);fill-opacity:1;" d="M 4 5 L 2 3 L 4 1 Z M 4 5 "/>
</g>
</svg>
