<?xml version="1.0" encoding="UTF-8"?>
<svg xmlns="http://www.w3.org/2000/svg" xmlns:xlink="http://www.w3.org/1999/xlink" width="32" height="32" viewBox="0 0 32 32">
<defs>
<filter id="filter-remove-color" x="0%" y="0%" width="100%" height="100%">
<feColorMatrix color-interpolation-filters="sRGB" values="0 0 0 0 1 0 0 0 0 1 0 0 0 0 1 0 0 0 1 0" />
</filter>
<mask id="mask-0">
<g filter="url(#filter-remove-color)">
<rect x="-3.2" y="-3.2" width="38.4" height="38.4" fill="rgb(0%, 0%, 0%)" fill-opacity="0.75"/>
</g>
</mask>
<clipPath id="clip-0">
<rect x="0" y="0" width="32" height="32"/>
</clipPath>
<g id="source-7" clip-path="url(#clip-0)">
<path fill-rule="nonzero" fill="rgb(26.666667%, 26.666667%, 26.666667%)" fill-opacity="1" d="M 25.660156 11.179688 C 25.453125 11.179688 25.25 11.265625 25.105469 11.410156 C 24.960938 11.554688 24.875 11.761719 24.875 11.964844 L 24.875 21.375 C 24.875 21.578125 24.960938 21.785156 25.105469 21.929688 C 25.25 22.074219 25.453125 22.160156 25.660156 22.160156 L 28.519531 22.160156 C 28.726562 22.160156 28.929688 22.074219 29.074219 21.929688 C 29.21875 21.785156 29.304688 21.578125 29.304688 21.375 L 29.304688 11.964844 C 29.304688 11.761719 29.21875 11.554688 29.074219 11.410156 C 28.929688 11.265625 28.726562 11.179688 28.519531 11.179688 Z M 25.660156 11.179688 "/>
</g>
<mask id="mask-1">
<g filter="url(#filter-remove-color)">
<rect x="-3.2" y="-3.2" width="38.4" height="38.4" fill="rgb(0%, 0%, 0%)" fill-opacity="0.75"/>
</g>
</mask>
<clipPath id="clip-1">
<rect x="0" y="0" width="32" height="32"/>
</clipPath>
<g id="source-11" clip-path="url(#clip-1)">
<path fill-rule="nonzero" fill="rgb(26.666667%, 26.666667%, 26.666667%)" fill-opacity="1" d="M 3.671875 3.292969 C 3.417969 3.292969 3.164062 3.398438 2.980469 3.578125 C 2.800781 3.757812 2.695312 4.011719 2.695312 4.269531 L 2.695312 21.179688 C 2.695312 21.4375 2.800781 21.691406 2.980469 21.871094 C 3.164062 22.054688 3.417969 22.160156 3.671875 22.160156 L 6.148438 22.160156 C 6.402344 22.160156 6.65625 22.054688 6.839844 21.871094 C 7.019531 21.691406 7.125 21.4375 7.125 21.179688 L 7.125 12.660156 C 5.886719 13.039062 4.40625 12.703125 3.605469 11.652344 C 2.394531 10.203125 3.011719 7.640625 4.800781 6.964844 C 5.574219 6.785156 6.351562 6.609375 7.125 6.429688 L 7.125 4.269531 C 7.125 4.011719 7.019531 3.757812 6.839844 3.578125 C 6.65625 3.398438 6.402344 3.292969 6.148438 3.292969 Z M 3.671875 3.292969 "/>
</g>
</defs>
<path fill="none" stroke-width="54.685001" stroke-linecap="round" stroke-linejoin="miter" stroke="rgb(26.666667%, 26.666667%, 26.666667%)" stroke-opacity="1" stroke-miterlimit="4" d="M 109.528809 176.860352 L 479.108887 94.448242 " transform="matrix(0.0551724, 0, 0, 0.0551724, 0, 0)"/>
<g mask="url(#mask-0)">
<use xlink:href="#source-7"/>
</g>
<g mask="url(#mask-1)">
<use xlink:href="#source-11"/>
</g>
<path fill-rule="nonzero" fill="rgb(26.666667%, 26.666667%, 26.666667%)" fill-opacity="1" d="M 16.066406 29.445312 L 18.4375 29.414062 L 18.40625 28.960938 C 18.382812 28.601562 18.332031 28.464844 18.15625 28.285156 C 17.976562 28.105469 17.9375 27.984375 17.929688 27.625 C 17.925781 27.332031 17.960938 27.1875 18.035156 27.1875 C 18.367188 27.1875 18.398438 26.878906 18.414062 23.746094 L 18.429688 20.59375 L 17.4375 19.460938 L 15.972656 19.457031 L 14.511719 19.457031 L 14.042969 19.992188 L 13.578125 20.527344 L 13.570312 23.667969 L 13.5625 26.8125 L 13.820312 27.046875 C 14.042969 27.253906 14.074219 27.332031 14.070312 27.675781 C 14.0625 28.007812 14.027344 28.09375 13.832031 28.257812 C 13.640625 28.417969 13.601562 28.511719 13.578125 28.878906 C 13.566406 29.121094 13.585938 29.351562 13.625 29.394531 C 13.664062 29.441406 14.761719 29.460938 16.066406 29.445312 Z M 16 17.722656 L 17.433594 17.71875 L 17.433594 16.898438 C 17.433594 16.132812 17.390625 15.945312 16.832031 14.183594 C 16.351562 12.6875 16.195312 12.285156 16.070312 12.242188 C 15.984375 12.210938 15.871094 12.234375 15.824219 12.289062 C 15.773438 12.347656 15.46875 13.21875 15.148438 14.222656 C 14.597656 15.933594 14.5625 16.105469 14.566406 16.886719 L 14.566406 17.722656 Z M 16 17.722656 "/>
</svg>
