<?xml version="1.0" encoding="UTF-8"?>
<svg xmlns="http://www.w3.org/2000/svg" xmlns:xlink="http://www.w3.org/1999/xlink" width="12" height="12" viewBox="0 0 12 12" version="1.1">
<g id="surface1">
<path style=" stroke:none;fill-rule:nonzero;fill:rgb(100%,100%,100%);fill-opacity:1;" d="M 8.144531 8.519531 C 8.164062 8.449219 8.179688 8.371094 8.179688 8.285156 C 8.179688 8.007812 8.039062 7.8125 7.914062 7.636719 C 7.808594 7.492188 7.71875 7.367188 7.71875 7.21875 C 7.71875 7.1875 7.726562 7.035156 7.90625 7.035156 C 7.941406 7.035156 7.980469 7.039062 8.023438 7.050781 C 8.0625 7.0625 8.109375 7.050781 8.140625 7.023438 C 8.171875 6.992188 8.183594 6.949219 8.175781 6.90625 C 8.144531 6.742188 7.988281 6.433594 7.632812 6.433594 C 7.222656 6.433594 7.070312 6.742188 6.945312 6.988281 C 6.804688 7.261719 6.707031 7.429688 6.4375 7.429688 L 3.082031 7.429688 C 2.957031 7.429688 2.859375 7.394531 2.800781 7.332031 C 2.703125 7.226562 2.710938 7.066406 2.710938 7.066406 C 2.714844 7.019531 2.691406 6.972656 2.648438 6.949219 C 2.609375 6.925781 2.554688 6.925781 2.515625 6.953125 C 2.496094 6.96875 1.964844 7.332031 1.964844 8.011719 C 1.964844 8.214844 2.011719 8.390625 2.097656 8.539062 C 2.4375 9.015625 3.738281 8.890625 5.113281 8.890625 C 6.519531 8.890625 7.886719 8.914062 8.144531 8.519531 Z M 8.144531 8.519531 "/>
<path style=" stroke:none;fill-rule:nonzero;fill:rgb(100%,100%,100%);fill-opacity:1;" d="M 6.550781 6.933594 L 3.207031 6.933594 C 3.164062 6.933594 3.125 6.910156 3.101562 6.875 C 3.082031 6.835938 3.078125 6.792969 3.097656 6.753906 C 3.101562 6.746094 3.457031 6 3.457031 5.316406 C 3.457031 4.632812 3.222656 4.132812 3.21875 4.128906 C 3.203125 4.089844 3.203125 4.042969 3.226562 4.007812 C 3.25 3.972656 3.289062 3.949219 3.332031 3.949219 L 6.550781 3.949219 C 6.589844 3.949219 6.625 3.96875 6.648438 4 C 6.667969 4.019531 7.058594 4.550781 7.058594 5.429688 C 7.058594 6.304688 6.667969 6.855469 6.652344 6.878906 C 6.628906 6.914062 6.589844 6.933594 6.550781 6.933594 Z M 6.550781 6.933594 "/>
<path style=" stroke:none;fill-rule:nonzero;fill:rgb(100%,100%,100%);fill-opacity:1;" d="M 4.824219 7.179688 L 4.824219 7.554688 C 4.824219 7.621094 4.878906 7.675781 4.949219 7.675781 C 5.015625 7.675781 5.070312 7.621094 5.070312 7.554688 L 5.070312 7.179688 Z M 4.824219 7.179688 "/>
<path style=" stroke:none;fill-rule:nonzero;fill:rgb(100%,100%,100%);fill-opacity:1;" d="M 5.878906 3.578125 C 5.628906 3.578125 5.523438 3.542969 5.421875 3.511719 C 5.320312 3.480469 5.226562 3.453125 4.949219 3.453125 C 4.878906 3.453125 4.824219 3.398438 4.824219 3.328125 L 4.824219 2.957031 C 4.824219 2.886719 4.878906 2.832031 4.949219 2.832031 C 5.320312 2.832031 5.484375 2.90625 5.628906 2.972656 C 5.753906 3.03125 5.859375 3.078125 6.117188 3.078125 C 6.550781 3.078125 6.746094 2.972656 6.75 2.972656 C 6.804688 2.941406 6.871094 2.953125 6.90625 3.003906 C 6.945312 3.050781 6.945312 3.117188 6.902344 3.164062 C 6.882812 3.183594 6.414062 3.578125 5.878906 3.578125 Z M 5.878906 3.578125 "/>
<path style=" stroke:none;fill-rule:nonzero;fill:rgb(100%,100%,100%);fill-opacity:1;" d="M 4.949219 3.699219 C 4.902344 3.699219 4.863281 3.691406 4.824219 3.679688 L 4.824219 4.074219 C 4.824219 4.140625 4.878906 4.199219 4.949219 4.199219 C 5.015625 4.199219 5.070312 4.140625 5.070312 4.074219 L 5.070312 3.703125 C 5.035156 3.703125 4.996094 3.699219 4.949219 3.699219 Z M 4.949219 3.699219 "/>
<path style="fill:none;stroke-width:36.6754;stroke-linecap:round;stroke-linejoin:round;stroke:rgb(100%,100%,100%);stroke-opacity:1;stroke-miterlimit:10;" d="M 538.463542 205.794271 L 538.463542 231.660156 L 482.955729 227.128906 C 482.955729 227.128906 414.798177 99.309896 364.954427 99.309896 L 74.388021 99.309896 C 61.549479 99.309896 52.298177 116.302083 52.298177 137.447917 L 52.298177 442.552083 C 52.298177 463.697917 61.549479 480.690104 74.388021 480.690104 L 364.954427 480.690104 C 414.798177 480.690104 482.955729 352.871094 482.955729 352.871094 L 539.785156 347.96224 L 539.407552 373.261719 " transform="matrix(0.0206897,0,0,0.0206897,0,0)"/>
</g>
</svg>
