<?xml version="1.0" encoding="UTF-8"?>
<svg xmlns="http://www.w3.org/2000/svg" xmlns:xlink="http://www.w3.org/1999/xlink" width="32" height="32" viewBox="0 0 32 32">
<path fill-rule="nonzero" fill="rgb(100%, 100%, 100%)" fill-opacity="1" d="M 21.714844 22.722656 C 21.773438 22.527344 21.808594 22.320312 21.808594 22.097656 C 21.808594 21.355469 21.433594 20.832031 21.101562 20.371094 C 20.824219 19.984375 20.582031 19.652344 20.582031 19.246094 C 20.582031 19.164062 20.605469 18.757812 21.085938 18.757812 C 21.179688 18.757812 21.28125 18.773438 21.390625 18.804688 C 21.503906 18.832031 21.621094 18.804688 21.703125 18.726562 C 21.789062 18.648438 21.824219 18.53125 21.804688 18.417969 C 21.714844 17.984375 21.300781 17.160156 20.351562 17.160156 C 19.265625 17.160156 18.851562 17.980469 18.515625 18.640625 C 18.148438 19.363281 17.886719 19.808594 17.171875 19.808594 L 8.222656 19.808594 C 7.882812 19.808594 7.628906 19.722656 7.464844 19.546875 C 7.203125 19.269531 7.230469 18.84375 7.230469 18.839844 C 7.238281 18.714844 7.175781 18.59375 7.066406 18.527344 C 6.953125 18.464844 6.816406 18.46875 6.710938 18.542969 C 6.652344 18.582031 5.242188 19.554688 5.242188 21.367188 C 5.242188 21.902344 5.367188 22.375 5.589844 22.769531 C 6.496094 24.042969 9.964844 23.707031 13.628906 23.710938 C 17.382812 23.710938 21.035156 23.777344 21.714844 22.722656 Z M 21.714844 22.722656 "/>
<path fill-rule="nonzero" fill="rgb(100%, 100%, 100%)" fill-opacity="1" d="M 17.46875 18.484375 L 8.554688 18.484375 C 8.441406 18.484375 8.335938 18.425781 8.273438 18.328125 C 8.214844 18.234375 8.207031 18.113281 8.257812 18.007812 C 8.265625 17.988281 9.21875 15.996094 9.21875 14.175781 C 9.21875 12.351562 8.59375 11.019531 8.585938 11.003906 C 8.539062 10.902344 8.546875 10.78125 8.605469 10.6875 C 8.667969 10.589844 8.773438 10.53125 8.886719 10.53125 L 17.46875 10.53125 C 17.570312 10.53125 17.667969 10.582031 17.734375 10.664062 C 17.777344 10.722656 18.828125 12.136719 18.828125 14.476562 C 18.828125 16.808594 17.78125 18.285156 17.738281 18.347656 C 17.675781 18.433594 17.574219 18.484375 17.46875 18.484375 Z M 17.46875 18.484375 "/>
<path fill-rule="nonzero" fill="rgb(100%, 100%, 100%)" fill-opacity="1" d="M 12.863281 19.148438 L 12.863281 20.140625 C 12.863281 20.324219 13.011719 20.472656 13.195312 20.472656 C 13.375 20.472656 13.523438 20.324219 13.523438 20.140625 L 13.523438 19.148438 Z M 12.863281 19.148438 "/>
<path fill-rule="nonzero" fill="rgb(100%, 100%, 100%)" fill-opacity="1" d="M 15.679688 9.539062 C 15.007812 9.539062 14.730469 9.453125 14.457031 9.367188 C 14.191406 9.285156 13.9375 9.207031 13.195312 9.207031 C 13.011719 9.207031 12.863281 9.058594 12.863281 8.875 L 12.863281 7.882812 C 12.863281 7.699219 13.011719 7.550781 13.195312 7.550781 C 14.191406 7.550781 14.628906 7.75 15.015625 7.929688 C 15.34375 8.082031 15.628906 8.210938 16.308594 8.210938 C 17.472656 8.210938 17.996094 7.929688 18 7.925781 C 18.140625 7.847656 18.320312 7.878906 18.421875 8.007812 C 18.523438 8.132812 18.519531 8.3125 18.410156 8.433594 C 18.359375 8.492188 17.101562 9.539062 15.679688 9.539062 Z M 15.679688 9.539062 "/>
<path fill-rule="nonzero" fill="rgb(100%, 100%, 100%)" fill-opacity="1" d="M 13.195312 9.871094 C 13.078125 9.871094 12.964844 9.84375 12.863281 9.808594 L 12.863281 10.863281 C 12.863281 11.046875 13.011719 11.195312 13.195312 11.195312 C 13.375 11.195312 13.523438 11.046875 13.523438 10.863281 L 13.523438 9.875 C 13.429688 9.871094 13.324219 9.871094 13.195312 9.871094 Z M 13.195312 9.871094 "/>
<path fill="none" stroke-width="36.6754" stroke-linecap="round" stroke-linejoin="round" stroke="rgb(100%, 100%, 100%)" stroke-opacity="1" stroke-miterlimit="10" d="M 538.439941 205.817871 L 538.510742 231.660156 L 483.00293 227.058105 C 483.00293 227.058105 414.821777 99.333496 364.978027 99.333496 L 74.482422 99.333496 C 61.525879 99.333496 52.321777 116.325684 52.321777 137.424316 L 52.321777 442.575684 C 52.321777 463.674316 61.525879 480.666504 74.482422 480.666504 L 364.978027 480.666504 C 414.821777 480.666504 483.00293 352.941895 483.00293 352.941895 L 539.855957 347.844238 L 539.431152 373.190918 " transform="matrix(0.0551724, 0, 0, 0.0551724, 0, 0)"/>
</svg>
