<?xml version="1.0" encoding="UTF-8"?>
<svg xmlns="http://www.w3.org/2000/svg" xmlns:xlink="http://www.w3.org/1999/xlink" width="32" height="32" viewBox="0 0 32 32">
<path fill-rule="evenodd" fill="rgb(100%, 100%, 100%)" fill-opacity="1" d="M 17.96875 19.855469 C 16.660156 20.785156 15.0625 21.332031 13.332031 21.332031 C 8.914062 21.332031 5.332031 17.75 5.332031 13.332031 C 5.332031 8.914062 8.914062 5.332031 13.332031 5.332031 C 17.75 5.332031 21.332031 8.914062 21.332031 13.332031 C 21.332031 15.0625 20.785156 16.660156 19.855469 17.96875 L 26.277344 24.390625 C 26.796875 24.910156 26.796875 25.753906 26.277344 26.277344 C 25.753906 26.796875 24.910156 26.796875 24.390625 26.277344 Z M 18.667969 13.332031 C 18.667969 16.277344 16.277344 18.667969 13.332031 18.667969 C 10.386719 18.667969 8 16.277344 8 13.332031 C 8 10.386719 10.386719 8 13.332031 8 C 16.277344 8 18.667969 10.386719 18.667969 13.332031 Z M 18.667969 13.332031 "/>
</svg>
