<?xml version="1.0" encoding="UTF-8"?>
<svg xmlns="http://www.w3.org/2000/svg" xmlns:xlink="http://www.w3.org/1999/xlink" width="12" height="12" viewBox="0 0 12 12" version="1.1">
<g id="surface1">
<path style=" stroke:none;fill-rule:nonzero;fill:rgb(100%,100%,100%);fill-opacity:1;" d="M 6.210938 5.285156 C 6.210938 5.285156 6.210938 7.785156 7.398438 7.785156 C 7.792969 7.785156 8.007812 7.464844 8.007812 7.464844 C 8.128906 7.75 8.371094 7.929688 8.644531 7.929688 C 9.039062 7.929688 9.34375 7.570312 9.34375 7.144531 C 9.34375 6.855469 9.222656 6.605469 9.039062 6.464844 C 9.160156 6.464844 9.648438 6.214844 9.648438 5.605469 C 9.648438 5.214844 9.375 4.785156 9.007812 4.75 C 8.949219 4.355469 8.675781 4.070312 8.308594 4.070312 L 8.28125 4.070312 C 8.371094 3.929688 8.460938 3.75 8.460938 3.570312 C 8.460938 3.140625 8.160156 2.785156 7.761719 2.785156 C 7.582031 2.785156 7.398438 2.855469 7.277344 3 C 7.1875 2.640625 6.910156 2.390625 6.609375 2.390625 L 6.515625 2.390625 C 6.425781 2 6.089844 1.714844 5.726562 1.714844 C 5.453125 1.714844 5.210938 1.855469 5.058594 2.105469 C 4.996094 2.070312 4.90625 2.070312 4.84375 2.070312 C 4.449219 2.070312 4.117188 2.425781 4.117188 2.855469 L 4.117188 2.929688 C 3.992188 2.820312 3.839844 2.714844 3.660156 2.714844 C 3.292969 2.714844 2.960938 3.070312 2.960938 3.535156 C 2.960938 3.605469 2.960938 3.679688 2.992188 3.75 C 2.625 3.785156 2.351562 4.105469 2.351562 4.535156 C 2.351562 4.964844 2.65625 5.320312 3.050781 5.320312 C 3.113281 5.320312 3.171875 5.320312 3.203125 5.285156 C 3.050781 5.464844 2.960938 5.714844 2.960938 6 L 2.960938 6.035156 C 2.625 6.105469 2.351562 6.429688 2.351562 6.820312 C 2.351562 7.25 2.65625 7.609375 3.050781 7.609375 C 3.113281 7.609375 3.171875 7.609375 3.234375 7.570312 C 3.265625 7.964844 3.566406 8.25 3.933594 8.25 C 4.175781 8.25 4.417969 8.109375 4.539062 7.859375 C 5.316406 7.921875 5.960938 6.976562 6.144531 6.816406 C 6.109375 6.378906 6.144531 5.988281 6.210938 5.285156 Z M 6.210938 5.285156 "/>
<path style=" stroke:none;fill-rule:nonzero;fill:rgb(100%,100%,100%);fill-opacity:1;" d="M 5.570312 7.640625 C 5.566406 7.914062 5.542969 8.214844 5.542969 8.535156 C 5.484375 10.109375 4.722656 9.429688 4.480469 10.285156 L 7.824219 10.285156 C 7.671875 9.894531 7.0625 10.144531 6.910156 9.25 C 6.851562 8.859375 6.789062 8.25 6.789062 8.109375 C 6.488281 7.792969 6.296875 7.441406 6.210938 6.929688 "/>
<path style="fill:none;stroke-width:24.448799;stroke-linecap:butt;stroke-linejoin:miter;stroke:rgb(100%,100%,100%);stroke-opacity:1;stroke-miterlimit:4;" d="M 290 545.826823 C 431.223958 545.826823 545.826823 431.223958 545.826823 290 C 545.826823 148.776042 431.223958 34.173177 290 34.173177 C 148.776042 34.173177 34.173177 148.776042 34.173177 290 C 34.173177 431.223958 148.776042 545.826823 290 545.826823 Z M 290 545.826823 " transform="matrix(0.0206897,0,0,0.0206897,0,0)"/>
</g>
</svg>
