<svg width="12" height="12" viewBox="0 0 580 580" fill="none" xmlns="http://www.w3.org/2000/svg">
<path d="M229.946 336.316C229.946 336.316 177.245 415.27 142.929 440.391C142.929 443.98 169.892 485.251 210.337 467.307C222.593 499.606 256.909 513.961 290 488.839C320.64 515.755 356.183 496.017 367.213 470.896C401.53 485.251 428.493 463.718 437.072 442.185C424.816 431.419 389.274 397.326 363.536 363.232C363.536 363.232 332.896 399.12 296.128 368.615C248.33 377.587 229.946 336.316 229.946 336.316V336.316Z" fill="#3BAB4B"/>
<path d="M290.001 78.2637C290.001 78.2637 245.879 151.834 211.562 193.104C211.562 196.693 225.044 214.637 248.33 209.254C255.684 230.787 280.196 234.375 288.775 223.609C303.482 237.964 329.22 227.198 329.22 209.254C350.055 218.226 365.988 196.693 367.213 193.104C335.348 151.834 290.001 78.2637 290.001 78.2637Z" fill="#3BAB4B"/>
<path d="M334.122 229.439C326.768 245.588 303.482 243.794 296.128 231.233C275.293 238.411 258.135 224.056 254.458 211.495C233.623 242 207.885 274.299 177.245 311.981C177.245 315.57 190.727 351.457 228.72 344.28C245.879 369.401 275.293 371.196 291.226 355.046C313.286 371.196 336.573 367.607 350.054 346.074C391.725 353.252 403.981 315.57 403.981 311.981C374.566 286.859 334.122 229.439 334.122 229.439V229.439Z" fill="#3BAB4B"/>
</svg>
