<?xml version="1.0" encoding="UTF-8"?>
<svg xmlns="http://www.w3.org/2000/svg" xmlns:xlink="http://www.w3.org/1999/xlink" width="32" height="32" viewBox="0 0 32 32">
<path fill-rule="nonzero" fill="rgb(100%, 100%, 100%)" fill-opacity="1" d="M 16 21.636719 C 10.832031 21.636719 6.644531 23.191406 6.644531 25.113281 C 6.644531 27.03125 10.832031 28.585938 16 28.585938 C 21.167969 28.585938 25.355469 27.03125 25.355469 25.113281 C 25.355469 23.191406 21.167969 21.636719 16 21.636719 Z M 16 21.707031 C 19.882812 21.707031 23.03125 22.875 23.03125 24.316406 C 23.03125 25.757812 19.882812 26.925781 16 26.925781 C 12.117188 26.925781 8.96875 25.757812 8.96875 24.316406 C 8.96875 22.875 12.117188 21.707031 16 21.707031 Z M 16 21.707031 "/>
<path fill-rule="nonzero" fill="rgb(100%, 100%, 100%)" fill-opacity="1" d="M 6.867188 10.65625 C 6.507812 10.71875 6.789062 8.949219 7.972656 7.671875 C 9.246094 6.296875 11.753906 5.964844 13.925781 7.613281 C 13.3125 6.203125 11.902344 4.859375 10.433594 4.851562 C 8.542969 4.835938 7.589844 6.183594 7.300781 5.960938 C 7.054688 5.765625 8.8125 3.875 10.457031 3.71875 C 11.976562 3.570312 13.304688 3.8125 14.898438 5.382812 C 14.503906 3.78125 13.257812 2.863281 13.679688 2.785156 C 14.140625 2.699219 16.085938 4.203125 16.488281 6.671875 C 17.480469 4.476562 18.734375 3.71875 20.167969 3.394531 C 21.941406 2.996094 23.917969 3.429688 25.1875 4.542969 C 25.53125 4.84375 23.570312 4.085938 21.472656 4.402344 C 20.109375 4.605469 19.179688 5.632812 18.386719 6.703125 C 19.78125 5.761719 21.511719 6.417969 22.335938 7.078125 C 23.976562 8.394531 24.292969 10.488281 24.292969 10.488281 C 24.304688 10.660156 23.984375 10.480469 22.832031 9.226562 C 20.269531 6.441406 18.21875 9.015625 17.898438 10.230469 C 17.4375 11.984375 17.539062 11.203125 17.351562 14.8125 C 17.179688 18.105469 17.304688 24.433594 17.304688 24.433594 C 17.304688 24.433594 17.183594 24.863281 16.230469 24.832031 C 15.277344 24.804688 15.214844 24.410156 15.214844 24.410156 C 15.214844 24.410156 15.175781 18.121094 14.882812 14.804688 C 14.644531 12.121094 14.609375 12.53125 14.007812 10.644531 C 13.367188 8.613281 10.335938 7.789062 8.617188 8.660156 C 7.472656 9.242188 7.21875 10.589844 6.867188 10.65625 Z M 6.867188 10.65625 "/>
</svg>
