<?xml version="1.0" encoding="UTF-8"?>
<svg xmlns="http://www.w3.org/2000/svg" xmlns:xlink="http://www.w3.org/1999/xlink" width="32" height="32" viewBox="0 0 32 32">
<path fill-rule="evenodd" fill="rgb(86.27451%, 86.27451%, 86.27451%)" fill-opacity="1" d="M 17.332031 17.332031 L 17.332031 29.332031 L 14.667969 29.332031 L 14.667969 17.332031 Z M 17.332031 17.332031 "/>
<path fill-rule="evenodd" fill="rgb(100%, 100%, 100%)" fill-opacity="1" d="M 22.667969 21.332031 L 16 16 L 9.332031 21.332031 L 12.667969 21.332031 L 9.332031 24 L 12.667969 24 L 9.332031 26.667969 L 22.667969 26.667969 L 19.332031 24 L 22.667969 24 L 19.332031 21.332031 Z M 22.667969 21.332031 "/>
<path fill-rule="nonzero" fill="rgb(100%, 100%, 100%)" fill-opacity="1" d="M 2.667969 2.667969 L 6.410156 2.667969 L 6.367188 11.148438 C 6.367188 11.78125 6.570312 12.296875 6.980469 12.6875 C 7.386719 13.082031 8 13.28125 8.816406 13.28125 C 9.648438 13.28125 10.269531 13.082031 10.679688 12.6875 C 11.085938 12.296875 11.292969 11.78125 11.292969 11.148438 L 11.292969 2.667969 L 14.992188 2.667969 L 14.992188 11.363281 C 14.992188 12.152344 14.832031 12.839844 14.507812 13.421875 C 14.203125 14.007812 13.765625 14.492188 13.195312 14.871094 C 12.640625 15.242188 11.984375 15.523438 11.226562 15.714844 C 10.480469 15.90625 9.679688 16 8.816406 16 C 7.957031 16 7.152344 15.90625 6.410156 15.714844 C 5.664062 15.523438 5.007812 15.242188 4.441406 14.871094 C 3.886719 14.492188 3.449219 14.007812 3.125 13.421875 C 2.820312 12.839844 2.667969 12.152344 2.667969 11.363281 Z M 2.667969 2.667969 "/>
<path fill-rule="nonzero" fill="rgb(100%, 100%, 100%)" fill-opacity="1" d="M 19.8125 11.078125 C 20.117188 11.53125 20.460938 11.925781 20.839844 12.257812 C 21.234375 12.59375 21.65625 12.851562 22.109375 13.027344 C 22.578125 13.207031 23.066406 13.296875 23.574219 13.296875 C 24.117188 13.296875 24.5625 13.191406 24.910156 12.976562 C 25.261719 12.75 25.4375 12.445312 25.4375 12.0625 C 25.4375 11.742188 25.335938 11.484375 25.128906 11.292969 C 24.925781 11.089844 24.597656 10.898438 24.144531 10.71875 C 23.691406 10.542969 23.09375 10.339844 22.351562 10.113281 C 21.984375 10.003906 21.5625 9.855469 21.082031 9.664062 C 20.613281 9.472656 20.167969 9.230469 19.746094 8.929688 C 19.320312 8.621094 18.972656 8.25 18.695312 7.820312 C 18.417969 7.378906 18.277344 6.847656 18.277344 6.226562 C 18.277344 5.488281 18.511719 4.851562 18.980469 4.3125 C 19.460938 3.777344 20.101562 3.371094 20.90625 3.097656 C 21.722656 2.808594 22.628906 2.667969 23.621094 2.667969 C 24.640625 2.667969 25.523438 2.804688 26.269531 3.078125 C 27.027344 3.351562 27.65625 3.699219 28.152344 4.117188 C 28.648438 4.535156 29.027344 4.957031 29.289062 5.386719 L 26.464844 6.675781 C 26.246094 6.378906 25.992188 6.121094 25.699219 5.90625 C 25.421875 5.679688 25.109375 5.507812 24.757812 5.386719 C 24.421875 5.253906 24.058594 5.191406 23.664062 5.191406 C 23.136719 5.191406 22.738281 5.285156 22.460938 5.476562 C 22.183594 5.65625 22.042969 5.882812 22.042969 6.15625 C 22.042969 6.441406 22.175781 6.695312 22.4375 6.910156 C 22.714844 7.125 23.101562 7.320312 23.597656 7.5 C 24.109375 7.679688 24.722656 7.867188 25.4375 8.070312 C 25.976562 8.238281 26.480469 8.433594 26.949219 8.664062 C 27.414062 8.875 27.824219 9.140625 28.171875 9.449219 C 28.539062 9.761719 28.824219 10.117188 29.027344 10.523438 C 29.230469 10.929688 29.332031 11.394531 29.332031 11.917969 C 29.332031 12.550781 29.171875 13.117188 28.851562 13.621094 C 28.546875 14.109375 28.121094 14.519531 27.582031 14.855469 C 27.058594 15.1875 26.449219 15.4375 25.765625 15.605469 C 25.09375 15.785156 24.402344 15.875 23.683594 15.875 C 22.691406 15.875 21.765625 15.730469 20.90625 15.445312 C 20.058594 15.148438 19.320312 14.746094 18.695312 14.246094 C 18.066406 13.746094 17.578125 13.195312 17.226562 12.597656 Z M 19.8125 11.078125 "/>
</svg>
