<?xml version="1.0" encoding="UTF-8"?>
<svg xmlns="http://www.w3.org/2000/svg" xmlns:xlink="http://www.w3.org/1999/xlink" width="32" height="32" viewBox="0 0 32 32">
<defs>
<filter id="filter-remove-color" x="0%" y="0%" width="100%" height="100%">
<feColorMatrix color-interpolation-filters="sRGB" values="0 0 0 0 1 0 0 0 0 1 0 0 0 0 1 0 0 0 1 0" />
</filter>
<mask id="mask-0">
<g filter="url(#filter-remove-color)">
<rect x="-3.2" y="-3.2" width="38.4" height="38.4" fill="rgb(0%, 0%, 0%)" fill-opacity="0.8"/>
</g>
</mask>
<clipPath id="clip-0">
<rect x="0" y="0" width="32" height="32"/>
</clipPath>
<g id="source-6" clip-path="url(#clip-0)">
<path fill-rule="evenodd" fill="rgb(100%, 100%, 100%)" fill-opacity="1" d="M 25.691406 6.839844 C 23.257812 4.269531 19.816406 2.667969 16 2.667969 C 8.636719 2.667969 2.667969 8.636719 2.667969 16 C 2.667969 23.363281 8.636719 29.332031 16 29.332031 C 18.710938 29.332031 21.230469 28.523438 23.335938 27.136719 L 21.46875 25.160156 C 20.871094 25.519531 20.234375 25.820312 19.570312 26.054688 C 19.957031 25.585938 20.359375 25.019531 20.742188 24.34375 C 20.273438 23.78125 19.722656 23.089844 19.167969 22.316406 C 19.082031 22.199219 18.996094 22.078125 18.914062 21.957031 C 18.085938 24.09375 16.941406 25.664062 16.050781 26.667969 L 15.949219 26.667969 C 14.972656 25.566406 13.695312 23.789062 12.859375 21.332031 L 18.492188 21.332031 C 17.988281 20.570312 17.5 19.738281 17.089844 18.875 C 17.058594 18.808594 17.027344 18.738281 16.992188 18.667969 L 12.207031 18.667969 C 12.074219 17.832031 12 16.945312 12 16 C 12 15.054688 12.074219 14.167969 12.207031 13.332031 L 16.105469 13.332031 C 16.261719 12.367188 16.585938 11.472656 17.042969 10.667969 L 12.859375 10.667969 C 13.695312 8.210938 14.972656 6.433594 15.949219 5.332031 L 16.050781 5.332031 C 16.773438 6.148438 17.664062 7.335938 18.417969 8.898438 C 19.050781 8.289062 19.789062 7.78125 20.597656 7.410156 C 20.261719 6.839844 19.910156 6.355469 19.570312 5.945312 C 20.328125 6.214844 21.046875 6.566406 21.714844 6.992188 C 22.4375 6.78125 23.207031 6.667969 24 6.667969 C 24.578125 6.667969 25.144531 6.726562 25.691406 6.839844 Z M 10.023438 21.332031 C 10.632812 23.484375 11.5625 25.011719 12.429688 26.054688 C 10.027344 25.203125 8.019531 23.511719 6.761719 21.332031 Z M 9.488281 18.667969 L 5.667969 18.667969 C 5.449219 17.8125 5.332031 16.921875 5.332031 16 C 5.332031 15.078125 5.449219 14.1875 5.667969 13.332031 L 9.488281 13.332031 C 9.390625 14.15625 9.332031 15.042969 9.332031 16 C 9.332031 16.957031 9.390625 17.84375 9.488281 18.667969 Z M 10.023438 10.667969 L 6.761719 10.667969 C 8.019531 8.488281 10.027344 6.796875 12.429688 5.945312 C 11.5625 6.988281 10.632812 8.515625 10.023438 10.667969 Z M 10.023438 10.667969 "/>
</g>
</defs>
<g mask="url(#mask-0)">
<use xlink:href="#source-6"/>
</g>
<path fill-rule="evenodd" fill="rgb(100%, 100%, 100%)" fill-opacity="1" d="M 24 24 C 24 24 29.332031 18.476562 29.332031 14.667969 C 29.332031 11.617188 26.945312 9.332031 24 9.332031 C 21.054688 9.332031 18.667969 11.617188 18.667969 14.667969 C 18.667969 18.476562 24 24 24 24 Z M 24 17.332031 C 25.472656 17.332031 26.667969 16.140625 26.667969 14.667969 C 26.667969 13.195312 25.472656 12 24 12 C 22.527344 12 21.332031 13.195312 21.332031 14.667969 C 21.332031 16.140625 22.527344 17.332031 24 17.332031 Z M 24 17.332031 "/>
</svg>
