<?xml version="1.0" encoding="UTF-8"?>
<svg xmlns="http://www.w3.org/2000/svg" xmlns:xlink="http://www.w3.org/1999/xlink" width="32" height="32" viewBox="0 0 32 32">
<path fill-rule="evenodd" fill="rgb(100%, 100%, 100%)" fill-opacity="1" d="M 2.425781 29.808594 C 2.433594 29.710938 6.359375 29.929688 8.128906 29.164062 C 9.011719 28.785156 9.511719 28.191406 9.925781 26.9375 C 10.214844 26.054688 9.753906 25.25 10.515625 23.96875 C 11.277344 22.691406 10.886719 24.1875 11.183594 23.46875 C 9.699219 22.265625 8.480469 22.257812 7.796875 22.765625 C 7.503906 23.46875 7.402344 24.628906 7.578125 25.851562 C 7.910156 28.214844 6.589844 29.050781 2.425781 29.808594 Z M 2.425781 29.808594 "/>
<path fill-rule="evenodd" fill="rgb(100%, 100%, 100%)" fill-opacity="1" d="M 10.644531 19.621094 C 10.652344 19.515625 11.363281 19.574219 12.453125 18.4375 C 13.292969 17.558594 14 16.550781 14.046875 15.160156 C 14.148438 12.007812 12.519531 11.632812 12.550781 9.375 C 12.578125 7.117188 12.917969 6.414062 13.527344 4.46875 C 12.1875 5.335938 10.742188 8.261719 10.792969 9.871094 C 10.847656 11.484375 12.394531 12.957031 12.507812 14.609375 C 12.617188 16.265625 11.785156 17.9375 10.644531 19.621094 Z M 10.644531 19.621094 "/>
<path fill-rule="evenodd" fill="rgb(100%, 100%, 100%)" fill-opacity="1" d="M 14.882812 21.214844 C 14.894531 21.089844 15.757812 21.160156 17.074219 19.785156 C 18.09375 18.71875 18.949219 17.5 19.003906 15.816406 C 19.125 12 17.152344 11.546875 17.191406 8.8125 C 17.230469 6.082031 17.640625 5.226562 18.375 2.875 C 16.753906 3.925781 15.003906 7.464844 15.066406 9.414062 C 15.128906 11.367188 17.007812 13.152344 17.140625 15.152344 C 17.273438 17.152344 16.265625 19.175781 14.882812 21.214844 Z M 14.882812 21.214844 "/>
<path fill-rule="evenodd" fill="rgb(100%, 100%, 100%)" fill-opacity="1" d="M 20.0625 19.839844 C 20.074219 19.738281 20.785156 19.796875 21.871094 18.660156 C 22.714844 17.78125 23.421875 16.773438 23.464844 15.382812 C 23.566406 12.226562 21.9375 11.855469 21.96875 9.597656 C 22 7.339844 22.339844 6.632812 22.945312 4.691406 C 21.609375 5.558594 20.160156 8.480469 20.214844 10.09375 C 20.265625 11.707031 21.816406 13.179688 21.925781 14.832031 C 22.039062 16.484375 21.203125 18.15625 20.0625 19.839844 Z M 20.0625 19.839844 "/>
<path fill-rule="nonzero" fill="rgb(100%, 100%, 100%)" fill-opacity="1" d="M 16.765625 15.492188 C 9.53125 15.492188 3.664062 18 3.664062 21.09375 C 3.664062 24.191406 9.53125 26.699219 16.765625 26.699219 C 24.003906 26.699219 29.871094 24.191406 29.871094 21.09375 C 29.871094 18 24.003906 15.492188 16.765625 15.492188 Z M 16.765625 15.523438 C 22.113281 15.523438 26.441406 17.375 26.441406 19.660156 C 26.441406 21.945312 22.113281 23.796875 16.765625 23.796875 C 11.421875 23.796875 7.089844 21.945312 7.089844 19.660156 C 7.089844 17.375 11.421875 15.523438 16.765625 15.523438 Z M 16.765625 15.523438 "/>
</svg>
