<?xml version="1.0" encoding="UTF-8"?>
<svg xmlns="http://www.w3.org/2000/svg" xmlns:xlink="http://www.w3.org/1999/xlink" width="12" height="12" viewBox="0 0 12 12" version="1.1">
<defs>
<filter id="alpha" filterUnits="objectBoundingBox" x="0%" y="0%" width="100%" height="100%">
  <feColorMatrix type="matrix" in="SourceGraphic" values="0 0 0 0 1 0 0 0 0 1 0 0 0 0 1 0 0 0 1 0"/>
</filter>
<mask id="mask0">
  <g filter="url(#alpha)">
<rect x="0" y="0" width="12" height="12" style="fill:rgb(0%,0%,0%);fill-opacity:0.7;stroke:none;"/>
  </g>
</mask>
<clipPath id="clip1">
  <rect x="0" y="0" width="12" height="12"/>
</clipPath>
<g id="surface5" clip-path="url(#clip1)">
<path style=" stroke:none;fill-rule:evenodd;fill:rgb(24.705882%,24.705882%,24.705882%);fill-opacity:1;" d="M 12 6 L 6 6 L 6 11 L 12 11 Z M 11 10 L 11 9 L 7 9 L 7 10 Z M 11 8 L 7 8 L 7 7 L 11 7 Z M 11 8 "/>
</g>
<mask id="mask1">
  <g filter="url(#alpha)">
<rect x="0" y="0" width="12" height="12" style="fill:rgb(0%,0%,0%);fill-opacity:0.5;stroke:none;"/>
  </g>
</mask>
<clipPath id="clip2">
  <rect x="0" y="0" width="12" height="12"/>
</clipPath>
<g id="surface8" clip-path="url(#clip2)">
<path style=" stroke:none;fill-rule:nonzero;fill:rgb(24.705882%,24.705882%,24.705882%);fill-opacity:1;" d="M 2 6 L 4 6 L 4 7 L 2 7 Z M 2 6 "/>
<path style=" stroke:none;fill-rule:nonzero;fill:rgb(24.705882%,24.705882%,24.705882%);fill-opacity:1;" d="M 4 8 L 6 8 L 6 11 L 4 11 Z M 4 8 "/>
<path style=" stroke:none;fill-rule:nonzero;fill:rgb(24.705882%,24.705882%,24.705882%);fill-opacity:1;" d="M 7 7 L 11 7 L 11 8 L 7 8 Z M 7 7 "/>
<path style=" stroke:none;fill-rule:nonzero;fill:rgb(24.705882%,24.705882%,24.705882%);fill-opacity:1;" d="M 7 9 L 11 9 L 11 10 L 7 10 Z M 7 9 "/>
</g>
</defs>
<g id="surface1">
<path style=" stroke:none;fill-rule:evenodd;fill:rgb(24.705882%,24.705882%,24.705882%);fill-opacity:1;" d="M 4 1 L 7 4 L 7.5 4 L 7.5 5 L 7 5 L 7 11 L 6 11 L 6 8 L 4 8 L 4 11 L 1 11 L 1 5 L 0.5 5 L 0.5 4 L 1 4 Z M 3.5 3.5 C 3.5 3.222656 3.722656 3 4 3 C 4.277344 3 4.5 3.222656 4.5 3.5 C 4.5 3.777344 4.277344 4 4 4 C 3.722656 4 3.5 3.777344 3.5 3.5 Z M 5 5 L 6 5 L 6 6 L 5 6 Z M 3 8 L 2 8 L 2 10 L 3 10 Z M 3 5 L 2 5 L 2 7 L 4 7 L 4 6 L 3 6 Z M 3 5 "/>
<use xlink:href="#surface5" mask="url(#mask0)"/>
<use xlink:href="#surface8" mask="url(#mask1)"/>
<path style=" stroke:none;fill-rule:nonzero;fill:rgb(24.705882%,24.705882%,24.705882%);fill-opacity:1;" d="M 4 9.5 L 4.5 9.5 L 4.5 10 L 4 10 Z M 4 9.5 "/>
</g>
</svg>
