<?xml version="1.0" encoding="UTF-8"?>
<svg xmlns="http://www.w3.org/2000/svg" xmlns:xlink="http://www.w3.org/1999/xlink" width="12" height="12" viewBox="0 0 12 12" version="1.1">
<defs>
<filter id="alpha" filterUnits="objectBoundingBox" x="0%" y="0%" width="100%" height="100%">
  <feColorMatrix type="matrix" in="SourceGraphic" values="0 0 0 0 1 0 0 0 0 1 0 0 0 0 1 0 0 0 1 0"/>
</filter>
<mask id="mask0">
  <g filter="url(#alpha)">
<rect x="0" y="0" width="12" height="12" style="fill:rgb(0%,0%,0%);fill-opacity:0.1;stroke:none;"/>
  </g>
</mask>
<clipPath id="clip1">
  <rect x="0" y="0" width="12" height="12"/>
</clipPath>
<g id="surface5" clip-path="url(#clip1)">
<path style=" stroke:none;fill-rule:nonzero;fill:rgb(100%,100%,100%);fill-opacity:1;" d="M 0.71875 8.445312 C 0.765625 8.332031 1.386719 7.453125 2.097656 6.496094 C 3.117188 5.121094 3.644531 4.644531 4.582031 4.238281 C 6.054688 3.605469 7.527344 3.570312 8.0625 4.152344 C 9.332031 5.535156 10.644531 7.109375 11.019531 7.710938 C 11.730469 8.863281 10.550781 8.996094 7.417969 9.074219 C 5.75 9.121094 5.65625 9.09375 3.921875 9.109375 C 3.113281 9.085938 0.6875 8.703125 0.71875 8.445312 Z M 0.71875 8.445312 "/>
</g>
</defs>
<g id="surface1">
<path style=" stroke:none;fill-rule:nonzero;fill:rgb(100%,100%,100%);fill-opacity:1;" d="M 0.71875 8.445312 C 0.765625 8.332031 1.386719 7.453125 2.097656 6.496094 C 3.117188 5.121094 3.644531 4.644531 4.582031 4.238281 C 6.054688 3.605469 7.527344 3.570312 8.0625 4.152344 C 9.332031 5.535156 10.644531 7.109375 11.019531 7.710938 C 11.550781 8.558594 11.28125 8.953125 10.71875 8.148438 C 10.5 7.832031 9.878906 7.074219 9.34375 6.46875 C 7.042969 3.863281 7.035156 3.859375 4.902344 4.769531 C 3.851562 5.21875 3.445312 5.585938 2.558594 6.898438 C 1.96875 7.769531 1.292969 8.519531 1.054688 8.566406 C 0.820312 8.613281 0.667969 8.558594 0.71875 8.445312 Z M 0.71875 8.445312 "/>
<use xlink:href="#surface5" mask="url(#mask0)"/>
<path style=" stroke:none;fill-rule:nonzero;fill:rgb(100%,100%,100%);fill-opacity:1;" d="M 3.125 8.589844 C 3.125 7.921875 4.988281 5.800781 5.578125 5.800781 C 6.523438 5.800781 7.5 6.386719 8.210938 7.378906 C 8.632812 7.964844 8.976562 8.507812 8.976562 8.585938 C 8.976562 8.664062 7.660156 8.726562 6.050781 8.726562 C 4.441406 8.726562 3.125 8.664062 3.125 8.589844 Z M 3.125 8.589844 "/>
</g>
</svg>
