<?xml version="1.0" encoding="UTF-8"?>
<svg xmlns="http://www.w3.org/2000/svg" xmlns:xlink="http://www.w3.org/1999/xlink" width="32" height="32" viewBox="0 0 32 32">
<defs>
<filter id="filter-remove-color" x="0%" y="0%" width="100%" height="100%">
<feColorMatrix color-interpolation-filters="sRGB" values="0 0 0 0 1 0 0 0 0 1 0 0 0 0 1 0 0 0 1 0" />
</filter>
<mask id="mask-0">
<g filter="url(#filter-remove-color)">
<rect x="-3.2" y="-3.2" width="38.4" height="38.4" fill="rgb(0%, 0%, 0%)" fill-opacity="0.1"/>
</g>
</mask>
<clipPath id="clip-0">
<rect x="0" y="0" width="32" height="32"/>
</clipPath>
<g id="source-7" clip-path="url(#clip-0)">
<path fill-rule="nonzero" fill="rgb(100%, 100%, 100%)" fill-opacity="1" d="M 1.914062 22.519531 C 2.046875 22.214844 3.703125 19.875 5.597656 17.320312 C 8.316406 13.652344 9.714844 12.382812 12.222656 11.304688 C 16.144531 9.617188 20.074219 9.519531 21.503906 11.074219 C 24.886719 14.757812 28.378906 18.957031 29.386719 20.5625 C 31.285156 23.636719 28.132812 23.996094 19.78125 24.199219 C 15.332031 24.328125 15.078125 24.25 10.460938 24.292969 C 8.304688 24.234375 1.835938 23.207031 1.914062 22.519531 Z M 1.914062 22.519531 "/>
</g>
</defs>
<path fill-rule="nonzero" fill="rgb(100%, 100%, 100%)" fill-opacity="1" d="M 1.914062 22.519531 C 2.046875 22.214844 3.703125 19.875 5.597656 17.320312 C 8.316406 13.652344 9.714844 12.382812 12.222656 11.304688 C 16.144531 9.617188 20.074219 9.519531 21.503906 11.074219 C 24.886719 14.757812 28.378906 18.957031 29.386719 20.5625 C 30.804688 22.820312 30.082031 23.875 28.585938 21.730469 C 27.996094 20.886719 26.34375 18.871094 24.914062 17.25 C 18.78125 10.304688 18.765625 10.296875 13.070312 12.722656 C 10.273438 13.914062 9.183594 14.898438 6.820312 18.390625 C 5.246094 20.714844 3.445312 22.71875 2.816406 22.84375 C 2.191406 22.964844 1.785156 22.820312 1.914062 22.519531 Z M 1.914062 22.519531 "/>
<g mask="url(#mask-0)">
<use xlink:href="#source-7"/>
</g>
<path fill-rule="nonzero" fill="rgb(100%, 100%, 100%)" fill-opacity="1" d="M 8.328125 22.90625 C 8.328125 21.121094 13.304688 15.472656 14.878906 15.472656 C 17.394531 15.472656 20 17.03125 21.898438 19.675781 C 23.019531 21.234375 23.9375 22.683594 23.9375 22.894531 C 23.9375 23.101562 20.425781 23.273438 16.132812 23.273438 C 11.839844 23.273438 8.328125 23.109375 8.328125 22.90625 Z M 8.328125 22.90625 "/>
</svg>
