<?xml version="1.0" encoding="UTF-8"?>
<svg xmlns="http://www.w3.org/2000/svg" xmlns:xlink="http://www.w3.org/1999/xlink" width="32" height="32" viewBox="0 0 32 32">
<path fill-rule="nonzero" fill="rgb(100%, 100%, 100%)" fill-opacity="1" d="M 8.136719 2.972656 C 7.21875 2.972656 6.449219 3.554688 5.921875 4.425781 L 3.011719 9.636719 C 2.878906 9.925781 2.765625 10.515625 2.765625 10.949219 L 2.765625 26.179688 C 2.765625 27.777344 3.945312 29.082031 5.390625 29.082031 L 26.390625 29.082031 C 27.832031 29.082031 29.015625 27.777344 29.015625 26.179688 L 29.015625 10.949219 C 29.015625 10.515625 28.898438 9.925781 28.769531 9.636719 L 25.855469 4.425781 C 25.332031 3.554688 24.558594 2.972656 23.640625 2.972656 Z M 7.929688 4.546875 L 23.925781 4.546875 L 26.144531 10.226562 L 5.636719 10.226562 Z M 11.953125 12.199219 L 19.828125 12.199219 C 20.613281 12.199219 21.140625 12.777344 21.140625 13.648438 C 21.140625 14.519531 20.613281 15.097656 19.828125 15.097656 L 11.953125 15.097656 C 11.164062 15.097656 10.640625 14.519531 10.640625 13.648438 C 10.640625 12.777344 11.164062 12.199219 11.953125 12.199219 Z M 9.636719 17.027344 L 22.109375 17.027344 L 15.875 27.9375 Z M 9.636719 17.027344 "/>
</svg>
