<?xml version="1.0" encoding="UTF-8"?>
<svg xmlns="http://www.w3.org/2000/svg" xmlns:xlink="http://www.w3.org/1999/xlink" width="32" height="32" viewBox="0 0 32 32">
<path fill-rule="nonzero" fill="rgb(100%, 100%, 100%)" fill-opacity="1" d="M 7.90625 17.019531 C 7.070312 17.019531 6.351562 17.527344 6.042969 18.253906 L 5.882812 20.203125 L 5.882812 22.339844 C 5.882812 22.601562 5.933594 22.847656 6.023438 23.078125 L 1.65625 23.078125 L 1.65625 30.269531 L 3.023438 30.269531 L 3.023438 25.144531 L 17.042969 25.144531 L 17.042969 30.269531 L 18.410156 30.269531 L 18.410156 23.078125 L 14.042969 23.078125 C 14.132812 22.847656 14.183594 22.601562 14.183594 22.339844 L 14.183594 20.203125 L 14.023438 18.253906 C 13.714844 17.527344 12.996094 17.019531 12.160156 17.019531 Z M 7.480469 19.734375 L 7.957031 19.734375 L 7.957031 23.078125 L 7.480469 23.078125 Z M 12.109375 19.734375 L 12.585938 19.734375 L 12.585938 23.078125 L 12.109375 23.078125 Z M 12.109375 19.734375 "/>
<path fill-rule="nonzero" fill="rgb(100%, 100%, 100%)" fill-opacity="1" d="M 10.035156 11.214844 C 8.667969 11.214844 7.558594 12.320312 7.558594 13.6875 C 7.558594 15.054688 8.667969 16.160156 10.035156 16.160156 C 11.398438 16.160156 12.507812 15.054688 12.507812 13.6875 C 12.507812 12.320312 11.398438 11.214844 10.035156 11.214844 Z M 10.035156 11.214844 "/>
<path fill-rule="nonzero" fill="rgb(100%, 100%, 100%)" fill-opacity="1" d="M 18.519531 5.726562 C 21.09375 3.003906 24.453125 1.554688 27.929688 1.394531 C 28.609375 1.363281 29.183594 1.890625 29.210938 2.570312 C 29.242188 3.25 28.714844 3.824219 28.035156 3.851562 C 25.152344 3.984375 22.449219 5.144531 20.304688 7.414062 C 18.15625 9.683594 17.148438 12.449219 17.179688 15.335938 C 17.1875 16.015625 16.644531 16.570312 15.964844 16.582031 C 15.285156 16.589844 14.726562 16.046875 14.71875 15.367188 C 14.683594 11.886719 15.945312 8.453125 18.519531 5.726562 Z M 21.492188 8.539062 C 23.355469 6.570312 25.855469 5.558594 28.351562 5.488281 C 29.03125 5.46875 29.597656 6.003906 29.617188 6.683594 C 29.636719 7.363281 29.101562 7.929688 28.421875 7.945312 C 26.523438 8 24.671875 8.746094 23.277344 10.226562 C 21.878906 11.703125 21.234375 13.59375 21.289062 15.492188 C 21.308594 16.167969 20.773438 16.734375 20.09375 16.753906 C 19.414062 16.773438 18.851562 16.238281 18.832031 15.558594 C 18.761719 13.058594 19.628906 10.507812 21.492188 8.539062 Z M 24.464844 11.351562 C 25.609375 10.136719 27.1875 9.5 28.753906 9.53125 C 29.4375 9.539062 29.976562 10.101562 29.96875 10.78125 C 29.957031 11.460938 29.394531 12.003906 28.714844 11.992188 C 27.851562 11.972656 26.902344 12.34375 26.25 13.035156 C 25.59375 13.726562 25.277344 14.695312 25.34375 15.558594 C 25.390625 16.238281 24.882812 16.828125 24.203125 16.875 C 23.527344 16.925781 22.9375 16.414062 22.886719 15.734375 C 22.769531 14.171875 23.320312 12.5625 24.464844 11.351562 Z M 27.140625 13.878906 C 27.910156 13.066406 29.21875 13.027344 30.03125 13.800781 C 30.847656 14.570312 30.882812 15.875 30.113281 16.691406 C 29.34375 17.503906 28.039062 17.542969 27.222656 16.769531 C 26.40625 16 26.371094 14.695312 27.140625 13.878906 Z M 27.140625 13.878906 "/>
</svg>
