<?xml version="1.0" encoding="UTF-8"?>
<svg xmlns="http://www.w3.org/2000/svg" xmlns:xlink="http://www.w3.org/1999/xlink" width="32" height="32" viewBox="0 0 32 32">
<path fill-rule="nonzero" fill="rgb(24.705882%, 24.705882%, 24.705882%)" fill-opacity="1" d="M 23.523438 6.378906 C 23.382812 6.171875 20.179688 1.921875 16 1.921875 C 11.820312 1.921875 8.617188 6.171875 8.476562 6.378906 C 8.269531 6.660156 8.269531 6.9375 8.476562 7.214844 C 8.617188 7.425781 11.820312 11.675781 16 11.675781 C 20.179688 11.675781 23.382812 7.425781 23.523438 7.214844 C 23.730469 6.9375 23.730469 6.660156 23.523438 6.378906 Z M 16 10.28125 C 14.050781 10.28125 12.515625 8.75 12.515625 6.796875 C 12.515625 4.847656 14.050781 3.316406 16 3.316406 C 17.949219 3.316406 19.484375 4.847656 19.484375 6.796875 C 19.484375 8.75 17.949219 10.28125 16 10.28125 Z M 16 10.28125 "/>
<path fill-rule="nonzero" fill="rgb(24.705882%, 24.705882%, 24.705882%)" fill-opacity="1" d="M 16 8.539062 C 16.960938 8.539062 17.742188 7.761719 17.742188 6.796875 C 17.742188 5.835938 16.960938 5.058594 16 5.058594 C 15.039062 5.058594 14.257812 5.835938 14.257812 6.796875 C 14.257812 7.761719 15.039062 8.539062 16 8.539062 Z M 16 8.539062 "/>
<path fill-rule="nonzero" fill="rgb(24.705882%, 24.705882%, 24.705882%)" fill-opacity="1" d="M 18.949219 13.71875 L 13.050781 13.71875 L 9.117188 29.449219 L 22.882812 29.449219 Z M 14.117188 17.652344 L 17.957031 17.652344 L 18.4375 19.617188 L 13.621094 19.617188 Z M 13.125 21.585938 L 18.917969 21.585938 L 19.398438 23.550781 L 12.628906 23.550781 Z M 12.132812 25.515625 L 19.882812 25.515625 L 20.363281 27.480469 L 11.636719 27.480469 Z M 12.132812 25.515625 "/>
</svg>
