<?xml version="1.0" encoding="UTF-8" standalone="no"?>
<!-- Generator: Adobe Illustrator 16.0.4, SVG Export Plug-In . SVG Version: 6.00 Build 0)  -->

<svg
   xmlns:dc="http://purl.org/dc/elements/1.1/"
   xmlns:cc="http://creativecommons.org/ns#"
   xmlns:rdf="http://www.w3.org/1999/02/22-rdf-syntax-ns#"
   xmlns:svg="http://www.w3.org/2000/svg"
   xmlns="http://www.w3.org/2000/svg"
   xmlns:sodipodi="http://sodipodi.sourceforge.net/DTD/sodipodi-0.dtd"
   xmlns:inkscape="http://www.inkscape.org/namespaces/inkscape"
   version="1.1"
   id="Слой_1"
   x="0px"
   y="0px"
   width="16"
   height="16"
   viewBox="0 0 16 16"
   xml:space="preserve"
   inkscape:version="0.48.4 r9939"
   sodipodi:docname="osmc_purple_m.svg"
   style="enable-background:new"><metadata
     id="metadata11"><rdf:RDF><cc:Work
         rdf:about=""><dc:format>image/svg+xml</dc:format><dc:type
           rdf:resource="http://purl.org/dc/dcmitype/StillImage" /><dc:title></dc:title></cc:Work></rdf:RDF></metadata><defs
     id="defs9" /><sodipodi:namedview
     pagecolor="#ffffff"
     bordercolor="#666666"
     borderopacity="1"
     objecttolerance="10"
     gridtolerance="10"
     guidetolerance="10"
     inkscape:pageopacity="0"
     inkscape:pageshadow="2"
     inkscape:window-width="1332"
     inkscape:window-height="739"
     id="namedview7"
     showgrid="false"
     inkscape:zoom="8"
     inkscape:cx="-14.881464"
     inkscape:cy="17.150201"
     inkscape:window-x="34"
     inkscape:window-y="1024"
     inkscape:window-maximized="1"
     inkscape:current-layer="Слой_1"
     inkscape:snap-bbox="true"
     inkscape:object-nodes="true"
     inkscape:snap-smooth-nodes="true"
     inkscape:bbox-paths="true"
     inkscape:bbox-nodes="true"
     inkscape:snap-bbox-edge-midpoints="true"
     inkscape:snap-bbox-midpoints="true" /><g
     transform="matrix(1.5416308,0,0,1.5416308,-1.4145635,-6.0200393)"
     style="font-size:10px;font-style:normal;font-variant:normal;font-weight:normal;font-stretch:normal;line-height:125%;letter-spacing:0px;word-spacing:0px;fill:#00ac26;fill-opacity:1;stroke:none;font-family:Abyssinica SIL;-inkscape-font-specification:Abyssinica SIL"
     id="flowRoot2982"><path
       d="m 8.27875,9.7192913 c 0.016128,0.6060347 0.00429,0.5502367 -0.071946,0.9696597 -0.076231,0.419423 -0.4785587,0.621442 -1.138558,0.621442 -0.3799996,0 -0.2094965,0.0189 -0.8594958,-0.0411 C 5.4751287,11.180395 5.6789101,11.039756 4.9667103,11.125563 6.614714,9.4139327 7.3487939,8.6994329 9.070614,6.9575916 L 9.01875,6.0192913 c -0.3499996,0.2999997 -0.6300004,0.41 -1,0.41 -0.1399999,0 -0.4200004,-0.02 -0.8,-0.06 -0.969999,-0.09 -0.9700003,-0.09 -1.23,-0.12 -0.4999995,-0.05 -0.5000001,-0.05 -0.58,-0.05 -0.2199998,0 -0.2800002,0.05 -0.44,0.38 l -0.66,1.44 0.5071161,0.224068 C 5.0365592,7.4898382 5.5120852,6.9862101 5.80875,6.9892913 c 0.3999996,0.05 0.6700004,0.07 1.02,0.07 0.4699995,0 0.6700005,-0.02 1.16,-0.1 C 6.3576155,8.5233378 4.8669727,9.9824529 2.985022,11.047263 l 0.103728,1.122028 c 0.3299997,-0.239999 0.5600004,-0.32 0.93,-0.32 0.2599997,0 0.6100004,0.02 0.99,0.06 1.2199988,0.13 2.1900002,0.21 2.43,0.21 0.2799997,0 0.5200002,-0.09 0.71,-0.27 0.1199999,-0.12 0.1840683,-0.207034 0.464068,-0.567034 L 8.86875,10.979291 c 0.2999997,-0.359999 0.36,-0.51 0.36,-0.85 0,-0.2799994 -0.05,-0.5100001 -0.2,-0.8599997 l -0.75,0.45"
       style="font-style:italic;font-weight:bold;font-family:URW Chancery L;-inkscape-font-specification:URW Chancery L Bold Italic;fill:#00ac26;fill-opacity:1"
       id="path2991"
       inkscape:connector-curvature="0"
       sodipodi:nodetypes="czsccccsccsccccscccscscccscc" /></g></svg>