<?xml version="1.0" encoding="UTF-8"?>
<svg xmlns="http://www.w3.org/2000/svg" xmlns:xlink="http://www.w3.org/1999/xlink" width="12" height="12" viewBox="0 0 12 12">
<defs>
<filter id="filter-remove-color" x="0%" y="0%" width="100%" height="100%">
<feColorMatrix color-interpolation-filters="sRGB" values="0 0 0 0 1 0 0 0 0 1 0 0 0 0 1 0 0 0 1 0" />
</filter>
<mask id="mask-0">
<g filter="url(#filter-remove-color)">
<rect x="-1.2" y="-1.2" width="14.4" height="14.4" fill="rgb(0%, 0%, 0%)" fill-opacity="0.1"/>
</g>
</mask>
<clipPath id="clip-0">
<path clip-rule="nonzero" d="M 0 0 L 12 0 L 12 12 L 0 12 Z M 0 0 "/>
</clipPath>
<clipPath id="clip-1">
<rect x="0" y="0" width="12" height="12"/>
</clipPath>
<g id="source-8" clip-path="url(#clip-1)">
<path fill-rule="nonzero" fill="rgb(100%, 100%, 100%)" fill-opacity="1" d="M 11.679688 6.050781 C 11.679688 6.792969 11.535156 7.527344 11.25 8.214844 C 10.964844 8.902344 10.550781 9.523438 10.023438 10.050781 C 9.5 10.574219 8.875 10.992188 8.191406 11.273438 C 7.503906 11.558594 6.769531 11.703125 6.027344 11.703125 C 5.285156 11.703125 4.550781 11.558594 3.863281 11.273438 C 3.175781 10.992188 2.554688 10.574219 2.03125 10.050781 C 1.503906 9.523438 1.089844 8.902344 0.804688 8.214844 C 0.519531 7.527344 0.375 6.792969 0.375 6.050781 C 0.375 5.308594 0.519531 4.574219 0.804688 3.886719 C 1.089844 3.203125 1.503906 2.578125 2.03125 2.054688 C 2.554688 1.527344 3.175781 1.113281 3.863281 0.828125 C 4.550781 0.542969 5.285156 0.398438 6.027344 0.398438 C 6.769531 0.398438 7.503906 0.542969 8.191406 0.828125 C 8.875 1.113281 9.5 1.527344 10.023438 2.054688 C 10.550781 2.578125 10.964844 3.203125 11.25 3.886719 C 11.535156 4.574219 11.679688 5.308594 11.679688 6.050781 Z M 11.679688 6.050781 "/>
<g clip-path="url(#clip-0)">
<path fill="none" stroke-width="23.8039" stroke-linecap="butt" stroke-linejoin="miter" stroke="rgb(100%, 100%, 100%)" stroke-opacity="1" stroke-miterlimit="4" d="M 564.518229 292.454427 C 564.518229 328.326823 557.532552 363.821615 543.75 397.050781 C 529.967448 430.279948 509.954427 460.299479 484.466146 485.78776 C 459.166667 511.08724 428.958333 531.289062 395.917969 544.882812 C 362.688802 558.665365 327.19401 565.651042 291.321615 565.651042 C 255.449219 565.651042 219.954427 558.665365 186.72526 544.882812 C 153.496094 531.289062 123.476562 511.08724 98.177083 485.78776 C 72.688802 460.299479 52.675781 430.279948 38.893229 397.050781 C 25.110677 363.821615 18.125 328.326823 18.125 292.454427 C 18.125 256.582031 25.110677 221.08724 38.893229 187.858073 C 52.675781 154.817708 72.688802 124.609375 98.177083 99.309896 C 123.476562 73.821615 153.496094 53.808594 186.72526 40.026042 C 219.954427 26.24349 255.449219 19.257812 291.321615 19.257812 C 327.19401 19.257812 362.688802 26.24349 395.917969 40.026042 C 428.958333 53.808594 459.166667 73.821615 484.466146 99.309896 C 509.954427 124.609375 529.967448 154.817708 543.75 187.858073 C 557.532552 221.08724 564.518229 256.582031 564.518229 292.454427 Z M 564.518229 292.454427 " transform="matrix(0.0206897, 0, 0, 0.0206897, 0, 0)"/>
</g>
</g>
</defs>
<path fill-rule="nonzero" fill="rgb(100%, 100%, 100%)" fill-opacity="1" d="M 2.726562 3.972656 L 4.722656 5.980469 L 2.726562 7.972656 Z M 8.933594 3.597656 L 6.476562 6.046875 C 6.355469 6.167969 6.199219 6.230469 6.015625 6.230469 C 5.820312 6.230469 5.660156 6.164062 5.53125 6.035156 L 3.09375 3.597656 Z M 9.320312 7.972656 L 7.324219 5.980469 L 9.320312 3.972656 Z M 3.082031 8.351562 L 5.089844 6.355469 L 5.175781 6.441406 C 5.40625 6.667969 5.6875 6.777344 6.015625 6.777344 C 6.34375 6.777344 6.617188 6.667969 6.84375 6.441406 L 6.929688 6.355469 L 8.933594 8.351562 Z M 2.1875 8.890625 L 9.878906 8.890625 L 9.878906 3.046875 L 2.1875 3.046875 Z M 2.1875 8.890625 "/>
<path fill="none" stroke-width="23.8039" stroke-linecap="butt" stroke-linejoin="miter" stroke="rgb(100%, 100%, 100%)" stroke-opacity="1" stroke-miterlimit="4" d="M 564.518229 292.454427 C 564.518229 328.326823 557.532552 363.821615 543.75 397.050781 C 529.967448 430.279948 509.954427 460.299479 484.466146 485.78776 C 459.166667 511.08724 428.958333 531.289062 395.917969 544.882812 C 362.688802 558.665365 327.19401 565.651042 291.321615 565.651042 C 255.449219 565.651042 219.954427 558.665365 186.72526 544.882812 C 153.496094 531.289062 123.476562 511.08724 98.177083 485.78776 C 72.688802 460.299479 52.675781 430.279948 38.893229 397.050781 C 25.110677 363.821615 18.125 328.326823 18.125 292.454427 C 18.125 256.582031 25.110677 221.08724 38.893229 187.858073 C 52.675781 154.817708 72.688802 124.609375 98.177083 99.309896 C 123.476562 73.821615 153.496094 53.808594 186.72526 40.026042 C 219.954427 26.24349 255.449219 19.257812 291.321615 19.257812 C 327.19401 19.257812 362.688802 26.24349 395.917969 40.026042 C 428.958333 53.808594 459.166667 73.821615 484.466146 99.309896 C 509.954427 124.609375 529.967448 154.817708 543.75 187.858073 C 557.532552 221.08724 564.518229 256.582031 564.518229 292.454427 Z M 564.518229 292.454427 " transform="matrix(0.0206897, 0, 0, 0.0206897, 0, 0)"/>
<g mask="url(#mask-0)">
<use xlink:href="#source-8"/>
</g>
</svg>
