<?xml version="1.0" encoding="UTF-8"?>
<svg xmlns="http://www.w3.org/2000/svg" xmlns:xlink="http://www.w3.org/1999/xlink" width="32" height="32" viewBox="0 0 32 32">
<path fill-rule="nonzero" fill="rgb(100%, 100%, 100%)" fill-opacity="1" d="M 26.273438 13.761719 C 22.683594 17.355469 20 18.382812 17.316406 21.066406 C 15.414062 22.972656 16.171875 23.867188 13.480469 26.558594 C 10.832031 29.207031 9.53125 28.78125 9.53125 28.78125 C 9.53125 28.78125 7.410156 27.746094 7 25.761719 C 7 25.761719 8.1875 26.109375 10.609375 23.683594 C 11.503906 22.792969 13.15625 22.566406 14.042969 21.84375 C 15.152344 20.933594 16.0625 20.007812 16.28125 19.789062 C 16.707031 19.363281 19.355469 17.890625 21.878906 16.03125 C 22.574219 15.519531 22.144531 14.277344 22.960938 13.464844 C 23.777344 12.648438 25.570312 12.992188 26.15625 12.40625 C 31.363281 7.199219 28.425781 3.804688 28.425781 3.804688 C 28.425781 3.804688 32.621094 7.417969 26.273438 13.761719 Z M 9.773438 22.851562 C 10.519531 22.105469 12.117188 21.777344 12.960938 21.101562 C 13.757812 20.464844 14.34375 20.035156 15.316406 19.0625 C 16.585938 17.792969 18.605469 16.707031 20.785156 15.210938 C 21.398438 14.789062 21.382812 12.960938 22.011719 12.460938 C 22.667969 11.9375 24.949219 11.75 25.589844 11.109375 C 29.785156 6.910156 27.535156 3.421875 27.535156 3.421875 C 27.535156 3.421875 25.480469 2.230469 22.433594 5.277344 C 22.214844 5.496094 21.960938 5.703125 21.675781 5.894531 L 21.996094 7.15625 C 22.066406 7.4375 21.90625 7.726562 21.636719 7.800781 C 21.367188 7.871094 21.089844 7.707031 21.019531 7.425781 L 20.765625 6.425781 C 20.507812 6.558594 20.226562 6.683594 19.941406 6.800781 L 20.246094 7.992188 C 20.316406 8.273438 20.152344 8.5625 19.886719 8.636719 C 19.617188 8.710938 19.339844 8.542969 19.269531 8.261719 L 18.988281 7.160156 C 18.710938 7.253906 18.425781 7.34375 18.136719 7.429688 L 18.433594 8.605469 C 18.507812 8.886719 18.34375 9.175781 18.074219 9.25 C 17.804688 9.324219 17.53125 9.15625 17.460938 8.875 L 17.160156 7.695312 C 16.867188 7.769531 16.566406 7.839844 16.265625 7.90625 L 16.558594 9.054688 C 16.628906 9.335938 16.46875 9.625 16.199219 9.699219 C 15.929688 9.773438 15.65625 9.605469 15.582031 9.324219 L 15.273438 8.113281 C 14.980469 8.167969 14.691406 8.222656 14.398438 8.269531 L 14.679688 9.371094 C 14.75 9.652344 14.589844 9.9375 14.320312 10.011719 C 14.050781 10.085938 13.773438 9.917969 13.703125 9.636719 L 13.394531 8.429688 C 13.085938 8.476562 12.78125 8.515625 12.492188 8.554688 L 12.777344 9.683594 C 12.847656 9.964844 12.6875 10.253906 12.417969 10.328125 C 12.148438 10.402344 11.875 10.234375 11.804688 9.953125 L 11.480469 8.679688 C 9.988281 8.84375 8.902344 8.902344 8.695312 8.902344 C 6.359375 8.945312 6.851562 11.898438 9.058594 11.894531 C 9.058594 13.039062 8.960938 14.496094 8.046875 15.414062 C 4.675781 18.78125 2.871094 16.023438 2.421875 17.472656 C 1.910156 19.132812 2.34375 19.6875 3.695312 21.203125 C 4.507812 22.113281 6.085938 24.625 6.085938 24.625 C 6.085938 24.625 7.09375 25.53125 9.773438 22.851562 Z M 9.773438 22.851562 "/>
</svg>
