<?xml version="1.0" encoding="UTF-8"?>
<svg xmlns="http://www.w3.org/2000/svg" xmlns:xlink="http://www.w3.org/1999/xlink" width="32" height="32" viewBox="0 0 32 32">
<path fill-rule="evenodd" fill="rgb(100%, 100%, 100%)" fill-opacity="1" d="M 8.726562 8 L 2.667969 8 L 2.667969 9.210938 L 4.484375 9.210938 L 11.152344 24.96875 L 12.363281 24.96875 L 15.644531 18.402344 L 18.425781 24.96875 L 19.636719 24.96875 L 27.515625 9.210938 L 29.332031 9.210938 L 29.332031 8 L 24.484375 8 L 24.484375 9.210938 L 25.695312 9.210938 L 19.636719 21.332031 L 17.210938 15.273438 L 20.242188 9.210938 L 22.0625 9.210938 L 22.0625 8 L 17.210938 8 L 17.210938 9.210938 L 18.425781 9.210938 L 16.402344 13.253906 L 14.789062 9.210938 L 16 9.210938 L 16 8 L 9.9375 8 L 9.9375 9.210938 L 11.757812 9.210938 L 14.8125 16.433594 L 12.363281 21.332031 L 7.515625 9.210938 L 8.726562 9.210938 Z M 8.726562 8 "/>
</svg>
