<?xml version="1.0" encoding="UTF-8"?>
<svg xmlns="http://www.w3.org/2000/svg" xmlns:xlink="http://www.w3.org/1999/xlink" width="12" height="12" viewBox="0 0 12 12" version="1.1">
<g id="surface1">
<path style=" stroke:none;fill-rule:nonzero;fill:rgb(100%,100%,100%);fill-opacity:1;" d="M 2.964844 6.382812 C 2.652344 6.382812 2.382812 6.574219 2.265625 6.84375 L 2.207031 7.574219 L 2.207031 8.378906 C 2.207031 8.476562 2.226562 8.566406 2.257812 8.652344 L 0.621094 8.652344 L 0.621094 11.351562 L 1.132812 11.351562 L 1.132812 9.429688 L 6.390625 9.429688 L 6.390625 11.351562 L 6.902344 11.351562 L 6.902344 8.652344 L 5.265625 8.652344 C 5.300781 8.566406 5.320312 8.476562 5.320312 8.378906 L 5.320312 7.574219 L 5.257812 6.84375 C 5.144531 6.574219 4.875 6.382812 4.558594 6.382812 Z M 2.804688 7.398438 L 2.984375 7.398438 L 2.984375 8.652344 L 2.804688 8.652344 Z M 4.539062 7.398438 L 4.71875 7.398438 L 4.71875 8.652344 L 4.539062 8.652344 Z M 4.539062 7.398438 "/>
<path style=" stroke:none;fill-rule:nonzero;fill:rgb(100%,100%,100%);fill-opacity:1;" d="M 3.761719 4.203125 C 3.25 4.203125 2.835938 4.621094 2.835938 5.132812 C 2.835938 5.644531 3.25 6.058594 3.761719 6.058594 C 4.273438 6.058594 4.691406 5.644531 4.691406 5.132812 C 4.691406 4.621094 4.273438 4.203125 3.761719 4.203125 Z M 3.761719 4.203125 "/>
<path style=" stroke:none;fill-rule:nonzero;fill:rgb(100%,100%,100%);fill-opacity:1;" d="M 6.945312 2.148438 C 7.910156 1.125 9.171875 0.582031 10.472656 0.523438 C 10.730469 0.511719 10.945312 0.710938 10.953125 0.964844 C 10.964844 1.21875 10.769531 1.433594 10.511719 1.445312 C 9.433594 1.496094 8.417969 1.929688 7.613281 2.78125 C 6.808594 3.632812 6.429688 4.667969 6.441406 5.75 C 6.445312 6.003906 6.242188 6.214844 5.988281 6.21875 C 5.730469 6.222656 5.523438 6.015625 5.519531 5.761719 C 5.507812 4.457031 5.980469 3.167969 6.945312 2.148438 Z M 8.058594 3.203125 C 8.757812 2.464844 9.695312 2.085938 10.632812 2.058594 C 10.886719 2.050781 11.097656 2.25 11.105469 2.507812 C 11.113281 2.761719 10.914062 2.972656 10.65625 2.980469 C 9.945312 3 9.253906 3.28125 8.726562 3.835938 C 8.203125 4.390625 7.964844 5.097656 7.984375 5.808594 C 7.992188 6.0625 7.789062 6.277344 7.535156 6.28125 C 7.28125 6.289062 7.070312 6.089844 7.0625 5.835938 C 7.035156 4.898438 7.359375 3.941406 8.058594 3.203125 Z M 9.175781 4.257812 C 9.605469 3.800781 10.195312 3.5625 10.785156 3.574219 C 11.039062 3.578125 11.242188 3.789062 11.238281 4.042969 C 11.234375 4.296875 11.023438 4.5 10.769531 4.496094 C 10.445312 4.488281 10.089844 4.628906 9.84375 4.890625 C 9.597656 5.148438 9.480469 5.511719 9.503906 5.835938 C 9.523438 6.089844 9.332031 6.308594 9.078125 6.328125 C 8.820312 6.347656 8.601562 6.15625 8.582031 5.902344 C 8.539062 5.3125 8.746094 4.710938 9.175781 4.257812 Z M 10.179688 5.207031 C 10.46875 4.898438 10.957031 4.886719 11.261719 5.175781 C 11.566406 5.464844 11.582031 5.953125 11.292969 6.257812 C 11.003906 6.5625 10.515625 6.578125 10.207031 6.289062 C 9.902344 6 9.890625 5.511719 10.179688 5.207031 Z M 10.179688 5.207031 "/>
</g>
</svg>
