<?xml version="1.0" encoding="UTF-8"?>
<svg xmlns="http://www.w3.org/2000/svg" xmlns:xlink="http://www.w3.org/1999/xlink" width="12" height="12" viewBox="0 0 12 12" version="1.1">
<g id="surface1">
<path style=" stroke:none;fill-rule:nonzero;fill:rgb(100%,100%,100%);fill-opacity:1;" d="M 3.144531 6.335938 C 2.832031 6.335938 2.5625 6.527344 2.445312 6.800781 L 2.386719 7.53125 L 2.386719 8.332031 C 2.386719 8.429688 2.40625 8.523438 2.4375 8.609375 L 0.800781 8.609375 L 0.800781 11.304688 L 1.3125 11.304688 L 1.3125 9.382812 L 6.570312 9.382812 L 6.570312 11.304688 L 7.082031 11.304688 L 7.082031 8.609375 L 5.445312 8.609375 C 5.480469 8.523438 5.496094 8.429688 5.496094 8.332031 L 5.496094 7.53125 L 5.4375 6.800781 C 5.324219 6.527344 5.054688 6.335938 4.738281 6.335938 Z M 2.984375 7.355469 L 3.164062 7.355469 L 3.164062 8.609375 L 2.984375 8.609375 Z M 4.71875 7.355469 L 4.898438 7.355469 L 4.898438 8.609375 L 4.71875 8.609375 Z M 4.71875 7.355469 "/>
<path style=" stroke:none;fill-rule:nonzero;fill:rgb(100%,100%,100%);fill-opacity:1;" d="M 3.941406 4.160156 C 3.429688 4.160156 3.015625 4.574219 3.015625 5.085938 C 3.015625 5.601562 3.429688 6.015625 3.941406 6.015625 C 4.453125 6.015625 4.871094 5.601562 4.871094 5.085938 C 4.871094 4.574219 4.453125 4.160156 3.941406 4.160156 Z M 3.941406 4.160156 "/>
<path style=" stroke:none;fill-rule:nonzero;fill:rgb(100%,100%,100%);fill-opacity:1;" d="M 11.574219 6.335938 L 11.582031 6.335938 L 11.441406 6.089844 L 9.019531 1.496094 L 9.472656 0.636719 L 9.175781 0.480469 L 8.828125 1.136719 L 8.46875 0.449219 L 8.171875 0.605469 L 8.632812 1.476562 C 8.433594 1.886719 7.082031 4.410156 6.175781 6.101562 L 6.039062 6.347656 L 7.242188 6.34375 L 7.539062 6.347656 L 7.542969 6.34375 L 10.125 6.339844 L 10.125 6.347656 L 11.296875 6.339844 Z M 8.832031 3.359375 C 9.109375 4.289062 9.691406 5.488281 9.949219 6.003906 L 7.714844 6.007812 C 7.972656 5.496094 8.558594 4.289062 8.832031 3.359375 Z M 8.832031 3.359375 "/>
</g>
</svg>
