<svg width="12" height="12" viewBox="0 0 48 48" fill="none" xmlns="http://www.w3.org/2000/svg">
<path fill-rule="evenodd" clip-rule="evenodd" d="M32 28H34C35.4541 28 36.7937 27.2109 37.4986 25.9391C38.2035 24.6673 38.1627 23.1131 37.392 21.88L27.392 5.88C26.661 4.71048 25.3792 4 24 4C22.6208 4 21.339 4.71048 20.608 5.88L10.608 21.88C9.83734 23.1131 9.79653 24.6673 10.5014 25.9391C11.2063 27.2109 12.5459 28 14 28H16V40C16 42.2091 17.7909 44 20 44H28C30.2091 44 32 42.2091 32 40V28Z" fill="white" fill-opacity="0.75"/>
<path d="M20 24H14L24 8L34 24H28V40H20V24Z" fill="#4889CD"/>
</svg>
