<svg width="16" height="16" enable-background="new" version="1.1" viewBox="0 0 16 16" xml:space="preserve" xmlns="http://www.w3.org/2000/svg"><path d="m3.2254 10.521c-0.34632 0.10298-0.51209 0.04265-0.51209-0.49652 0-0.74479-0.00578-0.8762 0.1689-0.8762 0.37006-2.8e-6 1.1761 0.64388 1.1761 0.86059-4e-7 0.17753-0.44623 0.39736-0.83287 0.51213zm0.83287-4.5367c4e-7 -0.17753-0.44623-0.39736-0.83287-0.51213-0.34632-0.10298-0.51209-0.042648-0.51209 0.49652-1e-7 0.74478-0.00578 0.8762 0.1689 0.8762 0.37006-2.8e-6 1.1761-0.64388 1.1761-0.86059zm4.0949 6.1136c-0.25313-0.23508-2.2482-2.1359-2.2482-2.1359-0.022404-0.02046-0.058241-0.13003 0.00354-0.17614l0.093182-0.069c0.062273-0.046114 0.19982-0.01214 0.2249 0.00624 0 0 2.5658 2.0433 2.9076 2.3072 0.34184 0.26421 0.87005 0.24653 1.0788 0.18481 0.52284-0.15499 0.92068-0.34951 1.3414-0.60748 0.33601-0.20666 0.14561-0.51317-0.56495-0.76594-0.99012-0.35228-4.3099-1.6241-4.3099-1.6241-0.030463-0.010744-0.032705-0.061026-0.006719-0.11095l0.040318-0.075929c0.027328-0.050619 0.07348-0.083217 0.10439-0.073849 0 0 4.5335 1.4216 4.8816 1.5097 0.34811 0.08876 0.88618 0.25069 1.133-0.1855 0.21908-0.38661 0.43637-1.0308 0.53673-1.5523 0.03898-0.20319-0.06722-0.40498-0.86333-0.40082-0.98654 0.0061689-5.2844-0.16473-5.2844-0.16473-0.033146-6.805e-4 -0.060032-0.050282-0.060032-0.10957l5e-7 -0.089455c-1.1e-6 -0.060333 0.02688-0.10887 0.06003-0.11026 0 0 5.1742-0.16193 5.6105-0.17406 0.43637-0.012803 0.61513-0.12064 0.49372-0.5707-0.087809-0.49722-0.23431-0.95491-0.48117-1.3498-0.27016-0.43134-0.45877-0.3554-1.0085-0.21324-0.55017 0.14216-5.0178 1.5516-5.0178 1.5516-0.03092 0.00934-0.077509-0.022884-0.10439-0.073859l-0.040315-0.075929c-0.026435-0.050273-0.024188-0.10021 0.00672-0.11095 0 0 4.0084-1.5683 4.5165-1.7607 0.50761-0.19244 0.71638-0.42267 0.29793-0.70595-0.38082-0.24098-0.80913-0.44139-1.2858-0.57835-0.63753-0.18204-0.87767 0.10021-1.0856 0.25797-0.20788 0.15846-2.8964 2.2815-2.8964 2.2815-0.02509 0.018378-0.16263 0.052015-0.22491 0.0062l-0.093183-0.068995c-0.061824-0.046123-0.025985-0.15568-0.0035353-0.17545l2.2329-2.1224s0.52598-0.46046-0.10439-0.47815c-3.012 0-2.3172 1.8353-3.7284 3.0409-0.82167 0.70144-1.681 0.83702-1.681 1.4937-1e-7 0.65637 1.0107 0.77668 1.7258 1.4573 1.4238 1.355 0.71773 3.0225 3.6841 3.0225 0.181-1e-6 0.58646 0.02566 0.11917-0.40914z" color="#000000" enable-background="accumulate" fill="#FFCE00" stop-color="#000000" style="-inkscape-stroke:none;font-variation-settings:normal"/></svg>
