<svg width="18" height="18" viewBox="0 0 18 18" fill="none" xmlns="http://www.w3.org/2000/svg">
<path fill-rule="evenodd" clip-rule="evenodd" d="M6.31793 3.905C5.05947 4.0185 3.98667 4.62709 3.59469 5.60703C3.42965 6.02995 3.50186 7.32967 3.50186 7.89704C3.51217 8.31996 3.50186 11.1876 3.52248 11.4456C3.56374 11.8169 3.74942 11.9819 4.07951 11.9922C5.18325 12.0543 5.04915 11.8169 5.04915 10.6925V7.13374C5.04915 6.77265 4.99757 6.29816 5.1523 6.0403C5.41018 5.60703 6.10131 5.3904 6.73054 5.51424C7.00905 5.566 7.27725 5.72053 7.42167 5.9062C7.6486 6.19501 7.6486 6.39095 7.65892 6.84492C7.65892 7.2781 7.56608 7.4329 7.27725 7.58762C7.04 7.72163 6.68928 7.78355 6.49329 7.91765C6.30761 8.02079 6.11162 8.37153 6.15289 8.72227C6.20447 9.12458 6.42108 9.1865 6.78212 9.21737C7.90649 9.31054 7.68986 9.18631 7.68986 10.5687C7.67955 11.7652 7.58671 12.0025 8.5254 12.0128C9.50536 12.0232 9.26811 11.3114 9.25779 9.89824C9.25779 9.17615 9.17527 9.33086 10.2687 9.20711C10.6091 9.1657 10.7948 9.0317 10.8051 8.62939C10.8154 7.78355 10.0314 7.81451 9.63946 7.56691C9.31968 7.38124 9.29905 7.22653 9.29905 6.75204C9.29905 6.2672 9.31968 6.16405 9.55694 5.88559C9.72198 5.68956 9.99018 5.54511 10.2996 5.50389C10.9289 5.40075 11.6406 5.6586 11.8366 6.12283C12.0223 6.56636 11.7747 10.1045 11.9191 10.775C12.177 12.0128 13.8687 12.5905 14.6114 11.7138C14.9518 11.3011 14.7971 10.3314 13.9306 10.6409C13.549 10.775 13.4355 10.4346 13.4355 10.0529C13.4355 9.65064 13.4458 9.24833 13.4458 8.84602C13.4458 8.05175 13.4458 7.25749 13.4561 6.46322C13.4561 6.05056 13.4561 5.78245 13.2911 5.45232C13.1467 5.15315 12.9816 4.96748 12.8063 4.79216C11.9707 3.99789 9.88702 3.34798 8.81423 4.45167C8.55635 4.71988 8.24689 4.47238 8.0509 4.31767C7.59702 3.96693 7.00905 3.84318 6.31793 3.905H6.31793Z" fill="#000000"/>
</svg>
