<?xml version="1.0" encoding="UTF-8"?>
<svg xmlns="http://www.w3.org/2000/svg" xmlns:xlink="http://www.w3.org/1999/xlink" width="32" height="32" viewBox="0 0 32 32">
<defs>
<filter id="filter-remove-color" x="0%" y="0%" width="100%" height="100%">
<feColorMatrix color-interpolation-filters="sRGB" values="0 0 0 0 1 0 0 0 0 1 0 0 0 0 1 0 0 0 1 0" />
</filter>
<mask id="mask-0">
<g filter="url(#filter-remove-color)">
<rect x="-3.2" y="-3.2" width="38.4" height="38.4" fill="rgb(0%, 0%, 0%)" fill-opacity="0.8"/>
</g>
</mask>
<clipPath id="clip-0">
<rect x="0" y="0" width="32" height="32"/>
</clipPath>
<g id="source-6" clip-path="url(#clip-0)">
<path fill-rule="nonzero" fill="rgb(100%, 100%, 100%)" fill-opacity="1" d="M 29.332031 21.332031 L 24 21.332031 L 24 24 L 18.667969 24 L 18.667969 26.667969 L 13.332031 26.667969 L 13.332031 29.332031 L 29.332031 29.332031 Z M 29.332031 21.332031 "/>
</g>
<mask id="mask-1">
<g filter="url(#filter-remove-color)">
<rect x="-3.2" y="-3.2" width="38.4" height="38.4" fill="rgb(0%, 0%, 0%)" fill-opacity="0.5"/>
</g>
</mask>
<clipPath id="clip-1">
<rect x="0" y="0" width="32" height="32"/>
</clipPath>
<g id="source-10" clip-path="url(#clip-1)">
<path fill-rule="evenodd" fill="rgb(100%, 100%, 100%)" fill-opacity="1" d="M 13.332031 16 L 29.332031 16 L 29.332031 21.332031 L 26.667969 21.332031 L 26.667969 18.667969 L 16 18.667969 L 16 26.667969 L 13.332031 26.667969 Z M 13.332031 16 "/>
</g>
</defs>
<g mask="url(#mask-0)">
<use xlink:href="#source-6"/>
</g>
<g mask="url(#mask-1)">
<use xlink:href="#source-10"/>
</g>
<path fill-rule="evenodd" fill="rgb(100%, 100%, 100%)" fill-opacity="1" d="M 12 8 C 13.472656 8 14.667969 6.804688 14.667969 5.332031 C 14.667969 3.859375 13.472656 2.667969 12 2.667969 C 10.527344 2.667969 9.332031 3.859375 9.332031 5.332031 C 9.332031 6.804688 10.527344 8 12 8 Z M 8.578125 9.539062 C 9.730469 8.382812 11.601562 8.382812 12.757812 9.539062 C 12.980469 9.761719 13.167969 10.023438 13.308594 10.304688 L 13.550781 10.785156 C 14.054688 11.792969 14.875 12.613281 15.882812 13.117188 L 19.261719 14.808594 L 18.070312 17.191406 L 14.691406 15.503906 C 14.207031 15.261719 13.753906 14.972656 13.332031 14.640625 L 13.332031 19.449219 L 16 22.113281 L 16 26.667969 L 13.332031 26.667969 L 13.332031 23.21875 L 11.242188 21.128906 L 10.667969 28.054688 L 10.667969 29.332031 L 8 29.332031 L 8 27.945312 L 9.277344 12.609375 L 7.832031 14.054688 L 6.597656 17.753906 L 4.070312 16.910156 L 5.5 12.613281 Z M 8.578125 9.539062 "/>
</svg>
