<svg width="12" height="12" viewBox="0 0 48 48" fill="none" xmlns="http://www.w3.org/2000/svg">
<path d="M12 16H20V20H12V16Z" fill="#ffffff"/>
<path d="M12 24H20V28H12V24Z" fill="#ffffff"/>
<path d="M12 32H20V36H12V32Z" fill="#ffffff"/>
<path fill-rule="evenodd" clip-rule="evenodd" d="M28 8H4V44H44V40H28V8ZM24 40V12H8V40H24Z" fill="#ffffff"/>
<path opacity="0.5" d="M36 35.6586C36.6256 35.8797 37.2987 36 38 36C38.7013 36 39.3744 35.8797 40 35.6586V40H36V35.6586Z" fill="#ffffff"/>
<path opacity="0.8" d="M38 16C35.7909 16 34 17.7909 34 20V23.5278C32.7725 24.6264 32 26.223 32 28V30C32 33.3137 34.6863 36 38 36C41.3137 36 44 33.3137 44 30V28C44 26.223 43.2275 24.6264 42 23.5278V20C42 17.7909 40.2091 16 38 16Z" fill="#ffffff"/>
</svg>
