<?xml version="1.0" encoding="UTF-8"?>
<svg xmlns="http://www.w3.org/2000/svg" xmlns:xlink="http://www.w3.org/1999/xlink" width="12" height="12" viewBox="0 0 12 12" version="1.1">
<g id="surface1">
<path style=" stroke:none;fill-rule:nonzero;fill:rgb(100%,100%,100%);fill-opacity:1;" d="M 3.050781 1.113281 C 2.707031 1.113281 2.417969 1.332031 2.222656 1.660156 L 1.128906 3.613281 C 1.078125 3.722656 1.035156 3.945312 1.035156 4.105469 L 1.035156 9.816406 C 1.035156 10.414062 1.480469 10.90625 2.019531 10.90625 L 9.894531 10.90625 C 10.4375 10.90625 10.878906 10.414062 10.878906 9.816406 L 10.878906 4.105469 C 10.878906 3.945312 10.835938 3.722656 10.789062 3.613281 L 9.695312 1.660156 C 9.5 1.332031 9.210938 1.113281 8.867188 1.113281 Z M 2.972656 1.707031 L 8.972656 1.707031 L 9.804688 3.835938 L 2.113281 3.835938 Z M 4.480469 4.574219 L 7.433594 4.574219 C 7.730469 4.574219 7.925781 4.792969 7.925781 5.117188 C 7.925781 5.445312 7.730469 5.660156 7.433594 5.660156 L 4.480469 5.660156 C 4.1875 5.660156 3.988281 5.445312 3.988281 5.117188 C 3.988281 4.792969 4.1875 4.574219 4.480469 4.574219 Z M 3.613281 6.386719 L 8.292969 6.386719 L 5.953125 10.476562 Z M 3.613281 6.386719 "/>
</g>
</svg>
