<?xml version="1.0" encoding="UTF-8"?>
<svg xmlns="http://www.w3.org/2000/svg" xmlns:xlink="http://www.w3.org/1999/xlink" width="12" height="12" viewBox="0 0 12 12" version="1.1">
<g id="surface1">
<path style=" stroke:none;fill-rule:evenodd;fill:rgb(100%,100%,100%);fill-opacity:1;" d="M 3.273438 3 L 1 3 L 1 3.453125 L 1.683594 3.453125 L 4.183594 9.363281 L 4.636719 9.363281 L 5.867188 6.902344 L 6.910156 9.363281 L 7.363281 9.363281 L 10.316406 3.453125 L 11 3.453125 L 11 3 L 9.183594 3 L 9.183594 3.453125 L 9.636719 3.453125 L 7.363281 8 L 6.453125 5.726562 L 7.589844 3.453125 L 8.273438 3.453125 L 8.273438 3 L 6.453125 3 L 6.453125 3.453125 L 6.910156 3.453125 L 6.152344 4.96875 L 5.546875 3.453125 L 6 3.453125 L 6 3 L 3.726562 3 L 3.726562 3.453125 L 4.410156 3.453125 L 5.554688 6.164062 L 4.636719 8 L 2.816406 3.453125 L 3.273438 3.453125 Z M 3.273438 3 "/>
</g>
</svg>
