<?xml version="1.0" encoding="UTF-8"?>
<svg xmlns="http://www.w3.org/2000/svg" xmlns:xlink="http://www.w3.org/1999/xlink" width="32" height="32" viewBox="0 0 32 32">
<defs>
<filter id="filter-remove-color" x="0%" y="0%" width="100%" height="100%">
<feColorMatrix color-interpolation-filters="sRGB" values="0 0 0 0 1 0 0 0 0 1 0 0 0 0 1 0 0 0 1 0" />
</filter>
<mask id="mask-0">
<g filter="url(#filter-remove-color)">
<rect x="-3.2" y="-3.2" width="38.4" height="38.4" fill="rgb(0%, 0%, 0%)" fill-opacity="0.5"/>
</g>
</mask>
<clipPath id="clip-0">
<rect x="0" y="0" width="32" height="32"/>
</clipPath>
<g id="source-10" clip-path="url(#clip-0)">
<path fill-rule="nonzero" fill="rgb(100%, 100%, 100%)" fill-opacity="1" d="M 21.332031 5.332031 L 29.332031 5.332031 L 29.332031 8 L 21.332031 8 Z M 21.332031 5.332031 "/>
<path fill-rule="nonzero" fill="rgb(100%, 100%, 100%)" fill-opacity="1" d="M 21.332031 10.667969 L 26.667969 10.667969 L 26.667969 13.332031 L 21.332031 13.332031 Z M 21.332031 10.667969 "/>
<path fill-rule="nonzero" fill="rgb(100%, 100%, 100%)" fill-opacity="1" d="M 26.667969 16 L 24 16 L 24 26.667969 L 22.667969 26.667969 C 21.929688 26.667969 21.332031 27.261719 21.332031 28 C 21.332031 28.738281 21.929688 29.332031 22.667969 29.332031 L 28 29.332031 C 28.738281 29.332031 29.332031 28.738281 29.332031 28 C 29.332031 27.261719 28.738281 26.667969 28 26.667969 L 26.667969 26.667969 Z M 26.667969 16 "/>
</g>
</defs>
<path fill-rule="evenodd" fill="rgb(100%, 100%, 100%)" fill-opacity="1" d="M 18.667969 5.332031 C 18.667969 3.859375 19.859375 2.667969 21.332031 2.667969 L 29.332031 2.667969 C 30.804688 2.667969 32 3.859375 32 5.332031 L 32 16 C 32 17.472656 30.804688 18.667969 29.332031 18.667969 L 21.332031 18.667969 C 19.859375 18.667969 18.667969 17.472656 18.667969 16 Z M 29.332031 5.332031 L 21.332031 5.332031 L 21.332031 8 L 29.332031 8 Z M 26.667969 10.667969 L 21.332031 10.667969 L 21.332031 13.332031 L 26.667969 13.332031 Z M 26.667969 10.667969 "/>
<path fill-rule="evenodd" fill="rgb(100%, 100%, 100%)" fill-opacity="1" d="M 1.332031 9.332031 C 2.1875 8.480469 3.34375 8 4.550781 8 L 11.449219 8 C 12.65625 8 13.8125 8.480469 14.667969 9.332031 C 15.519531 10.1875 16 11.34375 16 12.550781 L 16 24 C 16 24.988281 15.464844 25.847656 14.667969 26.308594 L 14.667969 27.332031 C 14.667969 28.4375 13.769531 29.332031 12.667969 29.332031 C 11.5625 29.332031 10.667969 28.4375 10.667969 27.332031 L 10.667969 26.667969 L 5.332031 26.667969 L 5.332031 27.332031 C 5.332031 28.4375 4.4375 29.332031 3.332031 29.332031 C 2.230469 29.332031 1.332031 28.4375 1.332031 27.332031 L 1.332031 26.308594 C 0.535156 25.847656 0 24.988281 0 24 L 0 12.550781 C 0 11.34375 0.480469 10.1875 1.332031 9.332031 Z M 2.667969 13.332031 L 13.332031 13.332031 L 13.332031 18.667969 L 2.667969 18.667969 Z M 5.332031 22.667969 C 5.332031 23.402344 4.738281 24 4 24 C 3.261719 24 2.667969 23.402344 2.667969 22.667969 C 2.667969 21.929688 3.261719 21.332031 4 21.332031 C 4.738281 21.332031 5.332031 21.929688 5.332031 22.667969 Z M 12 24 C 12.738281 24 13.332031 23.402344 13.332031 22.667969 C 13.332031 21.929688 12.738281 21.332031 12 21.332031 C 11.261719 21.332031 10.667969 21.929688 10.667969 22.667969 C 10.667969 23.402344 11.261719 24 12 24 Z M 12 24 "/>
<g mask="url(#mask-0)">
<use xlink:href="#source-10"/>
</g>
</svg>
