<svg width="12" height="12" viewBox="0 0 580 580" fill="none" xmlns="http://www.w3.org/2000/svg">
<path d="M334.876 323.517L256.496 245.138C278.489 228.701 309.769 230.258 329.78 250.233C349.755 270.244 351.312 301.507 334.876 323.517ZM142.29 358.195L108.213 392.271L187.76 471.818L221.836 437.724L142.29 358.195ZM437.724 221.836L471.8 187.76L392.253 108.231L358.177 142.307L437.724 221.836ZM74.137 358.177L96.8545 380.912L142.29 335.477L244.554 437.724L199.119 483.176L221.836 505.876C240.661 524.701 271.164 524.701 290.007 505.876L392.236 403.647L334.858 346.252C306.479 368.899 265.148 367.43 238.874 341.139C212.583 314.883 211.115 273.552 233.761 245.155L176.384 187.778L74.137 290.007C55.2942 308.832 55.2942 339.334 74.137 358.177ZM250.233 329.78C270.226 349.755 301.507 351.312 323.534 334.876L245.138 256.497C228.701 278.524 230.258 309.787 250.233 329.78ZM290.007 74.137L187.778 176.401L245.138 233.761C273.517 211.132 314.847 212.601 341.139 238.874C367.43 265.148 368.881 306.479 346.252 334.876L403.63 392.253L505.876 290.007C524.701 271.182 524.701 240.679 505.876 221.836L483.159 199.119L437.724 244.554L335.459 142.307L380.894 96.8722L358.177 74.137C339.334 55.2942 308.832 55.2942 290.007 74.137V74.137Z" fill="#ffffff"/>
</svg>
