<svg width="32" height="32" viewBox="0 0 48 48" fill="none" xmlns="http://www.w3.org/2000/svg">
<path d="M34.9151 10.1445H13.1819C11.5584 10.1445 10.2422 11.4607 10.2422 13.0843V34.8173C10.2422 36.4409 11.5584 37.757 13.1819 37.757H34.9151C36.5386 37.757 37.8548 36.4409 37.8548 34.8173V13.0843C37.8548 11.4607 36.5386 10.1445 34.9151 10.1445Z" fill="black"/>
<path d="M33.95 11.3711H14.1482C12.6689 11.3711 11.4697 12.5703 11.4697 14.0496V33.8513C11.4697 35.3306 12.6689 36.5298 14.1482 36.5298H33.95C35.4293 36.5298 36.6285 35.3306 36.6285 33.8513V14.0496C36.6285 12.5703 35.4293 11.3711 33.95 11.3711Z" fill="#DEECF6"/>
<path fill-rule="evenodd" clip-rule="evenodd" d="M11.457 31.6516L17.3838 31.5687C19.5754 31.5259 27.7053 24.4176 30.9394 24.2727C34.2548 24.1241 35.5409 25.309 35.5409 25.309C31.9475 25.6633 31.5859 27.5243 31.2711 28.6254C30.9562 29.7266 31.5124 32.593 35.23 33.9109L36.5889 34.324C36.3218 35.6889 35.3051 36.3988 34.1821 36.5483L13.8687 36.5513C12.4821 36.3241 11.7618 35.4962 11.4676 34.3716L11.457 31.6516Z" fill="#0388E5"/>
<path d="M18.4188 29.1861L24.8373 22.8894H21.0167V13.3477H15.8325V22.8894H12.0049L18.4188 29.1861Z" fill="#FD5708"/>
</svg>
