<?xml version="1.0" encoding="UTF-8"?>
<svg xmlns="http://www.w3.org/2000/svg" xmlns:xlink="http://www.w3.org/1999/xlink" width="12" height="12" viewBox="0 0 12 12" version="1.1">
<defs>
<filter id="alpha" filterUnits="objectBoundingBox" x="0%" y="0%" width="100%" height="100%">
  <feColorMatrix type="matrix" in="SourceGraphic" values="0 0 0 0 1 0 0 0 0 1 0 0 0 0 1 0 0 0 1 0"/>
</filter>
<mask id="mask0">
  <g filter="url(#alpha)">
<rect x="0" y="0" width="12" height="12" style="fill:rgb(0%,0%,0%);fill-opacity:0.1;stroke:none;"/>
  </g>
</mask>
<clipPath id="clip1">
  <rect x="0" y="0" width="12" height="12"/>
</clipPath>
<g id="surface5" clip-path="url(#clip1)">
<path style="fill-rule:evenodd;fill:rgb(100%,100%,100%);fill-opacity:1;stroke-width:22.879801;stroke-linecap:round;stroke-linejoin:round;stroke:rgb(100%,100%,100%);stroke-opacity:1;stroke-miterlimit:4;" d="M 159.348958 112.148438 C 157.460938 122.910156 59.472656 542.994792 59.472656 542.994792 L 520.904948 539.029948 L 420.839844 110.449219 Z M 159.348958 112.148438 " transform="matrix(0.0206897,0,0,0.0206897,0,0)"/>
</g>
<mask id="mask1">
  <g filter="url(#alpha)">
<rect x="0" y="0" width="12" height="12" style="fill:rgb(0%,0%,0%);fill-opacity:0.5;stroke:none;"/>
  </g>
</mask>
<clipPath id="clip2">
  <rect x="0" y="0" width="12" height="12"/>
</clipPath>
<g id="surface8" clip-path="url(#clip2)">
<path style="fill-rule:nonzero;fill:rgb(100%,100%,100%);fill-opacity:1;stroke-width:36.061798;stroke-linecap:round;stroke-linejoin:round;stroke:rgb(100%,100%,100%);stroke-opacity:1;stroke-miterlimit:4;" d="M 63.815104 41.158854 L 63.815104 145.566406 L 136.126302 145.566406 C 142.734375 121.210938 158.971354 85.338542 159.348958 83.450521 L 420.839844 81.751302 L 439.720052 145.566406 L 516.184896 145.566406 L 516.184896 41.158854 Z M 63.815104 41.158854 " transform="matrix(0.0206897,0,0,0.0206897,0,0)"/>
</g>
</defs>
<g id="surface1">
<path style="fill:none;stroke-width:22.852501;stroke-linecap:butt;stroke-linejoin:round;stroke:rgb(100%,100%,100%);stroke-opacity:1;stroke-miterlimit:4;" d="M 159.348958 112.148438 C 157.460938 122.721354 59.472656 541.861979 59.472656 541.861979 L 520.904948 538.085938 L 420.839844 110.449219 Z M 159.348958 112.148438 " transform="matrix(0.0206897,0,0,0.0206897,0,0)"/>
<use xlink:href="#surface5" mask="url(#mask0)"/>
<path style=" stroke:none;fill-rule:nonzero;fill:rgb(100%,100%,100%);fill-opacity:1;" d="M 6.28125 8.390625 C 6.289062 8.394531 6.3125 8.394531 6.355469 8.398438 C 7.011719 8.449219 7.507812 8.542969 7.839844 8.675781 C 8.167969 8.808594 8.335938 8.984375 8.335938 9.199219 C 8.335938 9.421875 8.152344 9.613281 7.789062 9.777344 C 7.425781 9.941406 6.925781 10.027344 6.28125 10.042969 L 6.28125 10.386719 L 5.765625 10.386719 L 5.765625 10.046875 C 5.109375 10.015625 4.609375 9.933594 4.257812 9.796875 C 3.90625 9.65625 3.710938 9.464844 3.664062 9.214844 L 4.53125 9.15625 C 4.601562 9.34375 4.738281 9.484375 4.941406 9.585938 C 5.148438 9.6875 5.421875 9.746094 5.765625 9.757812 L 5.765625 8.675781 C 5.113281 8.621094 4.625 8.527344 4.300781 8.398438 C 3.976562 8.269531 3.8125 8.101562 3.8125 7.898438 C 3.8125 7.695312 3.976562 7.519531 4.296875 7.375 C 4.617188 7.226562 5.109375 7.144531 5.765625 7.121094 L 5.765625 6.957031 L 6.28125 6.957031 L 6.28125 7.121094 C 6.828125 7.144531 7.257812 7.210938 7.574219 7.324219 C 7.886719 7.441406 8.085938 7.601562 8.167969 7.808594 L 7.265625 7.859375 C 7.214844 7.730469 7.105469 7.628906 6.941406 7.554688 C 6.777344 7.476562 6.558594 7.429688 6.28125 7.410156 Z M 5.765625 8.351562 L 5.765625 7.40625 C 5.417969 7.429688 5.148438 7.484375 4.960938 7.570312 C 4.773438 7.65625 4.683594 7.757812 4.683594 7.871094 C 4.683594 8 4.777344 8.101562 4.972656 8.175781 C 5.164062 8.253906 5.429688 8.308594 5.765625 8.351562 Z M 6.28125 9.757812 C 6.621094 9.738281 6.898438 9.679688 7.117188 9.585938 C 7.335938 9.492188 7.445312 9.371094 7.445312 9.226562 C 7.445312 9.097656 7.359375 8.996094 7.195312 8.917969 C 7.03125 8.839844 6.726562 8.773438 6.28125 8.722656 Z M 6.28125 9.757812 "/>
<path style="fill:none;stroke-width:26.012899;stroke-linecap:round;stroke-linejoin:round;stroke:rgb(100%,100%,100%);stroke-opacity:1;stroke-miterlimit:4;" d="M 290 333.990885 L 290 500.703125 " transform="matrix(0.0206897,0,0,0.0206897,0,0)"/>
<use xlink:href="#surface8" mask="url(#mask1)"/>
<path style="fill-rule:nonzero;fill:rgb(100%,100%,100%);fill-opacity:1;stroke-width:10.0393;stroke-linecap:round;stroke-linejoin:round;stroke:rgb(100%,100%,100%);stroke-opacity:1;stroke-miterlimit:4;" d="M 386.666667 213.91276 C 354.947917 192.200521 323.040365 170.299479 291.132812 148.398438 C 257.33724 171.621094 223.541667 194.654948 189.746094 217.688802 C 208.626302 217.688802 227.50651 217.688802 246.575521 217.688802 C 246.575521 243.554688 246.575521 269.609375 246.575521 295.47526 C 276.028646 295.47526 305.481771 295.47526 334.934896 295.47526 C 335.501302 269.042969 335.878906 242.799479 336.445312 216.367188 C 354.38151 216.367188 372.317708 216.367188 390.253906 216.367188 C 389.121094 215.611979 387.988281 214.667969 386.666667 213.91276 Z M 386.666667 213.91276 " transform="matrix(0.0206897,0,0,0.0206897,0,0)"/>
</g>
</svg>
