<?xml version="1.0" encoding="UTF-8"?>
<svg xmlns="http://www.w3.org/2000/svg" xmlns:xlink="http://www.w3.org/1999/xlink" width="32" height="32" viewBox="0 0 32 32">
<path fill="none" stroke-width="40.599998" stroke-linecap="butt" stroke-linejoin="miter" stroke="rgb(24.705882%, 24.705882%, 24.705882%)" stroke-opacity="1" stroke-miterlimit="4" d="M 37.028809 208.154297 C 543.112793 208.154297 546.086426 208.154297 546.086426 208.154297 " transform="matrix(0.0551724, 0, 0, 0.0551724, 0, 0)"/>
<path fill-rule="evenodd" fill="rgb(24.705882%, 24.705882%, 24.705882%)" fill-opacity="1" d="M 3.589844 11.902344 L 3.589844 26.851562 C 4.21875 26.523438 4.878906 26.183594 5.574219 25.839844 C 5.726562 25.765625 5.882812 25.6875 6.039062 25.613281 L 6.039062 11.902344 Z M 11.054688 11.902344 L 11.054688 23.339844 C 11.851562 23.007812 12.671875 22.6875 13.507812 22.375 L 13.507812 11.902344 Z M 18.523438 11.902344 L 18.523438 20.746094 C 19.332031 20.523438 20.148438 20.320312 20.972656 20.136719 L 20.972656 11.902344 Z M 25.988281 11.902344 L 25.988281 19.28125 C 26.859375 19.15625 27.679688 19.039062 28.441406 18.9375 L 28.441406 11.902344 Z M 25.988281 11.902344 "/>
</svg>
