<?xml version="1.0" encoding="UTF-8"?>
<svg xmlns="http://www.w3.org/2000/svg" xmlns:xlink="http://www.w3.org/1999/xlink" width="32" height="32" viewBox="0 0 32 32">
<path fill-rule="nonzero" fill="rgb(22.352941%, 67.45098%, 22.352941%)" fill-opacity="1" d="M 13.332031 21.332031 L 18.667969 21.332031 L 18.667969 26.667969 L 13.332031 26.667969 Z M 13.332031 21.332031 "/>
<path fill-rule="evenodd" fill="rgb(22.352941%, 67.45098%, 22.352941%)" fill-opacity="0.75" d="M 29.332031 21.332031 L 2.667969 21.332031 L 2.667969 18.667969 L 29.332031 18.667969 Z M 29.332031 21.332031 "/>
<path fill-rule="nonzero" fill="rgb(22.352941%, 67.45098%, 22.352941%)" fill-opacity="1" d="M 8 10.667969 L 13.332031 18.667969 L 2.667969 18.667969 Z M 8 10.667969 "/>
<path fill-rule="nonzero" fill="rgb(22.352941%, 67.45098%, 22.352941%)" fill-opacity="1" d="M 24 10.667969 L 29.332031 18.667969 L 18.667969 18.667969 Z M 24 10.667969 "/>
<path fill-rule="nonzero" fill="rgb(22.352941%, 67.45098%, 22.352941%)" fill-opacity="1" d="M 10.667969 8 C 10.667969 9.472656 9.472656 10.667969 8 10.667969 C 6.527344 10.667969 5.332031 9.472656 5.332031 8 C 5.332031 6.527344 6.527344 5.332031 8 5.332031 C 9.472656 5.332031 10.667969 6.527344 10.667969 8 Z M 10.667969 8 "/>
<path fill-rule="nonzero" fill="rgb(22.352941%, 67.45098%, 22.352941%)" fill-opacity="1" d="M 26.667969 8 C 26.667969 9.472656 25.472656 10.667969 24 10.667969 C 22.527344 10.667969 21.332031 9.472656 21.332031 8 C 21.332031 6.527344 22.527344 5.332031 24 5.332031 C 25.472656 5.332031 26.667969 6.527344 26.667969 8 Z M 26.667969 8 "/>
</svg>
