<?xml version="1.0" encoding="UTF-8"?>
<svg xmlns="http://www.w3.org/2000/svg" xmlns:xlink="http://www.w3.org/1999/xlink" width="12" height="12" viewBox="0 0 12 12" version="1.1">
<g id="surface1">
<path style=" stroke:none;fill-rule:evenodd;fill:rgb(22.352941%,67.450982%,22.352941%);fill-opacity:1;" d="M 2.5 1 C 2.777344 1 3 1.222656 3 1.5 L 3 10.5 C 3 10.777344 2.777344 11 2.5 11 C 2.222656 11 2 10.777344 2 10.5 L 2 1.5 C 2 1.222656 2.222656 1 2.5 1 Z M 2.5 1 "/>
<path style=" stroke:none;fill-rule:evenodd;fill:rgb(22.352941%,67.450982%,22.352941%);fill-opacity:1;" d="M 9.5 1 C 9.777344 1 10 1.222656 10 1.5 L 10 10.5 C 10 10.777344 9.777344 11 9.5 11 C 9.222656 11 9 10.777344 9 10.5 L 9 1.5 C 9 1.222656 9.222656 1 9.5 1 Z M 9.5 1 "/>
<path style=" stroke:none;fill-rule:evenodd;fill:rgb(22.352941%,67.450982%,22.352941%);fill-opacity:0.74902;" d="M 2 3.5 C 2 3.222656 2.222656 3 2.5 3 L 9.5 3 C 9.777344 3 10 3.222656 10 3.5 C 10 3.777344 9.777344 4 9.5 4 L 2.5 4 C 2.222656 4 2 3.777344 2 3.5 Z M 2 3.5 "/>
</g>
</svg>
