<?xml version="1.0" encoding="UTF-8"?>
<svg xmlns="http://www.w3.org/2000/svg" xmlns:xlink="http://www.w3.org/1999/xlink" width="12" height="12" viewBox="0 0 12 12" version="1.1">
<g id="surface1">
<path style=" stroke:none;fill-rule:nonzero;fill:rgb(24.705882%,24.705882%,24.705882%);fill-opacity:1;" d="M 0.972656 1.855469 L 0.972656 5.769531 L 1.933594 5.769531 L 1.933594 3.566406 L 3.550781 3.566406 L 3.550781 5.769531 L 5.796875 5.769531 L 5.796875 1.910156 C 5.824219 1.546875 5.695312 1.164062 5.042969 1.164062 L 1.695312 1.164062 C 1.421875 1.164062 0.972656 1.308594 0.972656 1.855469 Z M 0.972656 1.855469 "/>
<path style=" stroke:none;fill-rule:evenodd;fill:rgb(24.705882%,24.705882%,24.705882%);fill-opacity:1;" d="M 7.316406 6.605469 C 7.308594 6.605469 7.300781 6.605469 7.292969 6.605469 C 6.996094 6.617188 6.671875 6.859375 6.382812 6.875 C 6.378906 6.875 6.371094 6.875 6.367188 6.875 L 6.367188 7.523438 C 6.371094 7.523438 6.378906 7.523438 6.382812 7.523438 C 6.671875 7.511719 6.996094 7.261719 7.292969 7.253906 C 7.578125 7.238281 7.835938 7.46875 8.125 7.472656 C 8.160156 7.472656 8.195312 7.46875 8.226562 7.464844 L 8.226562 6.816406 C 8.195312 6.820312 8.160156 6.824219 8.125 6.824219 C 7.847656 6.816406 7.59375 6.609375 7.316406 6.605469 Z M 10.914062 6.605469 C 10.691406 6.605469 10.484375 6.71875 10.277344 6.792969 L 10.277344 7.4375 C 10.484375 7.363281 10.691406 7.253906 10.914062 7.253906 C 10.992188 7.25 11.074219 7.265625 11.15625 7.285156 L 11.15625 6.640625 C 11.074219 6.617188 10.992188 6.605469 10.914062 6.605469 Z M 10.914062 6.605469 "/>
<path style=" stroke:none;fill-rule:evenodd;fill:rgb(24.705882%,24.705882%,24.705882%);fill-opacity:1;" d="M 6.171875 8.253906 C 6.164062 8.253906 6.15625 8.253906 6.144531 8.253906 C 5.851562 8.265625 5.527344 8.507812 5.238281 8.523438 C 5.230469 8.523438 5.226562 8.523438 5.222656 8.523438 L 5.222656 9.171875 C 5.226562 9.171875 5.230469 9.171875 5.238281 9.171875 C 5.527344 9.15625 5.851562 8.914062 6.144531 8.902344 C 6.433594 8.890625 6.691406 9.113281 6.980469 9.121094 C 7.277344 9.121094 7.574219 8.914062 7.890625 8.921875 C 8.003906 8.921875 8.113281 8.953125 8.226562 8.992188 L 8.226562 8.34375 C 8.113281 8.304688 8.003906 8.277344 7.890625 8.273438 C 7.574219 8.265625 7.277344 8.472656 6.980469 8.472656 C 6.699219 8.464844 6.449219 8.257812 6.171875 8.253906 Z M 10.277344 8.367188 L 10.277344 9.019531 C 10.335938 9.039062 10.398438 9.058594 10.457031 9.078125 C 10.578125 9.117188 10.699219 9.152344 10.820312 9.152344 C 10.933594 9.148438 11.042969 9.113281 11.15625 9.074219 L 11.15625 8.425781 C 11.046875 8.46875 10.933594 8.5 10.820312 8.503906 C 10.71875 8.503906 10.617188 8.480469 10.515625 8.449219 C 10.503906 8.445312 10.492188 8.441406 10.480469 8.4375 C 10.414062 8.417969 10.34375 8.390625 10.277344 8.367188 Z M 10.277344 8.367188 "/>
<path style=" stroke:none;fill-rule:evenodd;fill:rgb(24.705882%,24.705882%,24.705882%);fill-opacity:0.8;" d="M 7.308594 3.710938 L 7.308594 3.980469 L 6.445312 3.980469 L 6.445312 4.910156 L 7.308594 4.910156 L 7.308594 5.175781 L 7.929688 5.175781 L 7.929688 4.910156 L 8.109375 4.910156 C 8.128906 4.910156 8.144531 4.910156 8.160156 4.90625 C 8.160156 4.90625 8.332031 4.898438 8.484375 4.96875 C 8.640625 5.039062 8.785156 5.109375 8.785156 5.621094 L 8.785156 9.601562 L 9.71875 9.601562 L 9.71875 5.621094 C 9.71875 4.835938 9.292969 4.316406 8.878906 4.125 C 8.566406 3.980469 8.261719 3.972656 8.132812 3.976562 C 8.109375 3.976562 8.109375 3.976562 8.097656 3.980469 L 7.929688 3.980469 L 7.929688 3.710938 Z M 7.308594 3.710938 "/>
<path style=" stroke:none;fill-rule:evenodd;fill:rgb(24.705882%,24.705882%,24.705882%);fill-opacity:1;" d="M 5.003906 9.992188 C 4.992188 9.992188 4.984375 9.992188 4.976562 9.992188 C 4.679688 10.003906 4.355469 10.25 4.066406 10.261719 C 4.0625 10.261719 4.054688 10.261719 4.050781 10.261719 L 4.050781 10.910156 C 4.054688 10.910156 4.0625 10.910156 4.066406 10.910156 C 4.355469 10.894531 4.679688 10.652344 4.976562 10.640625 C 5.261719 10.628906 5.519531 10.851562 5.808594 10.859375 C 6.105469 10.859375 6.402344 10.652344 6.71875 10.660156 C 7.03125 10.664062 7.347656 10.890625 7.664062 10.890625 C 7.976562 10.882812 8.273438 10.640625 8.597656 10.640625 C 8.753906 10.644531 8.789062 10.648438 8.871094 10.683594 C 9.007812 10.71875 9.148438 10.773438 9.285156 10.816406 C 9.40625 10.859375 9.527344 10.890625 9.648438 10.890625 C 9.960938 10.882812 10.253906 10.640625 10.582031 10.640625 C 10.765625 10.640625 10.960938 10.714844 11.15625 10.78125 L 11.15625 10.132812 C 10.960938 10.066406 10.765625 9.992188 10.582031 9.992188 C 10.253906 9.996094 9.960938 10.234375 9.648438 10.242188 C 9.546875 10.242188 9.445312 10.21875 9.34375 10.1875 C 9.332031 10.183594 9.320312 10.179688 9.308594 10.175781 C 9.160156 10.128906 8.945312 10.175781 8.796875 10.144531 C 8.707031 10.121094 8.683594 9.992188 8.597656 9.992188 C 8.273438 9.996094 7.976562 10.234375 7.664062 10.242188 C 7.347656 10.242188 7.03125 10.019531 6.71875 10.011719 C 6.402344 10.003906 6.105469 10.214844 5.808594 10.210938 C 5.527344 10.203125 5.277344 9.996094 5.003906 9.992188 Z M 5.003906 9.992188 "/>
</g>
</svg>
