<?xml version="1.0" encoding="UTF-8"?>
<svg xmlns="http://www.w3.org/2000/svg" xmlns:xlink="http://www.w3.org/1999/xlink" width="12" height="12" viewBox="0 0 12 12">
<defs>
<filter id="filter-remove-color" x="0%" y="0%" width="100%" height="100%">
<feColorMatrix color-interpolation-filters="sRGB" values="0 0 0 0 1 0 0 0 0 1 0 0 0 0 1 0 0 0 1 0" />
</filter>
<mask id="mask-0">
<g filter="url(#filter-remove-color)">
<rect x="-1.2" y="-1.2" width="14.4" height="14.4" fill="rgb(0%, 0%, 0%)" fill-opacity="0.75"/>
</g>
</mask>
<clipPath id="clip-0">
<rect x="0" y="0" width="12" height="12"/>
</clipPath>
<g id="source-6" clip-path="url(#clip-0)">
<path fill-rule="evenodd" fill="rgb(22.352941%, 67.45098%, 22.352941%)" fill-opacity="1" d="M 1.5 6 C 1.777344 6 2 6.222656 2 6.5 L 2 8.5 C 2 8.777344 1.777344 9 1.5 9 C 1.222656 9 1 8.777344 1 8.5 L 1 6.5 C 1 6.222656 1.222656 6 1.5 6 Z M 1.5 6 "/>
</g>
<mask id="mask-1">
<g filter="url(#filter-remove-color)">
<rect x="-1.2" y="-1.2" width="14.4" height="14.4" fill="rgb(0%, 0%, 0%)" fill-opacity="0.75"/>
</g>
</mask>
<clipPath id="clip-1">
<rect x="0" y="0" width="12" height="12"/>
</clipPath>
<g id="source-10" clip-path="url(#clip-1)">
<path fill-rule="evenodd" fill="rgb(22.352941%, 67.45098%, 22.352941%)" fill-opacity="1" d="M 6 7 C 6.277344 7 6.5 7.222656 6.5 7.5 L 6.5 9.5 C 6.5 9.777344 6.277344 10 6 10 C 5.722656 10 5.5 9.777344 5.5 9.5 L 5.5 7.5 C 5.5 7.222656 5.722656 7 6 7 Z M 6 7 "/>
</g>
<mask id="mask-2">
<g filter="url(#filter-remove-color)">
<rect x="-1.2" y="-1.2" width="14.4" height="14.4" fill="rgb(0%, 0%, 0%)" fill-opacity="0.75"/>
</g>
</mask>
<clipPath id="clip-2">
<rect x="0" y="0" width="12" height="12"/>
</clipPath>
<g id="source-14" clip-path="url(#clip-2)">
<path fill-rule="evenodd" fill="rgb(22.352941%, 67.45098%, 22.352941%)" fill-opacity="1" d="M 10.5 6 C 10.777344 6 11 6.222656 11 6.5 L 11 8.5 C 11 8.777344 10.777344 9 10.5 9 C 10.222656 9 10 8.777344 10 8.5 L 10 6.5 C 10 6.222656 10.222656 6 10.5 6 Z M 10.5 6 "/>
</g>
</defs>
<g mask="url(#mask-0)">
<use xlink:href="#source-6"/>
</g>
<g mask="url(#mask-1)">
<use xlink:href="#source-10"/>
</g>
<g mask="url(#mask-2)">
<use xlink:href="#source-14"/>
</g>
<path fill-rule="nonzero" fill="rgb(22.352941%, 67.45098%, 22.352941%)" fill-opacity="1" d="M 11 6 C 11 7.105469 8.761719 8 6 8 C 3.238281 8 1 7.105469 1 6 C 1 4.894531 3.238281 4 6 4 C 8.761719 4 11 4.894531 11 6 Z M 11 6 "/>
</svg>
