<?xml version="1.0" encoding="UTF-8"?>
<svg xmlns="http://www.w3.org/2000/svg" xmlns:xlink="http://www.w3.org/1999/xlink" width="32" height="32" viewBox="0 0 32 32">
<path fill-rule="evenodd" fill="rgb(100%, 100%, 100%)" fill-opacity="1" d="M 20.019531 8.488281 L 18.214844 10.148438 L 21.546875 10.148438 Z M 16.773438 11.472656 L 15.066406 13.039062 L 24.203125 13.039062 L 22.761719 11.472656 Z M 13.625 14.363281 L 11.917969 15.933594 L 21.207031 15.933594 L 22.914062 14.363281 Z M 10.480469 17.257812 L 10.367188 17.359375 L 11.71875 18.828125 L 18.058594 18.828125 L 19.765625 17.257812 Z M 12.933594 20.152344 L 14.621094 21.988281 L 16.617188 20.152344 Z M 12.933594 20.152344 "/>
<path fill-rule="evenodd" fill="rgb(100%, 100%, 100%)" fill-opacity="1" d="M 19.628906 5.699219 L 29.074219 4.21875 L 26.878906 13.585938 Z M 19.628906 5.699219 "/>
<path fill-rule="nonzero" fill="rgb(100%, 100%, 100%)" fill-opacity="1" d="M 23.089844 18.105469 L 22.117188 17.050781 L 9.953125 28.230469 L 10.925781 29.289062 Z M 23.089844 18.105469 "/>
<path fill-rule="evenodd" fill="rgb(100%, 100%, 100%)" fill-opacity="1" d="M 7.628906 19.375 C 7.554688 19.375 7.480469 19.378906 7.40625 19.386719 C 6.875 19.4375 6.414062 19.640625 6.027344 19.878906 C 6.046875 19.898438 6.0625 19.917969 6.085938 19.941406 C 6.140625 20.003906 6.195312 20.054688 6.238281 20.160156 C 6.277344 20.253906 6.289062 20.335938 6.292969 20.378906 C 6.300781 20.472656 6.292969 20.542969 6.289062 20.558594 C 6.28125 20.621094 6.269531 20.664062 6.265625 20.667969 C 6.257812 20.707031 6.25 20.730469 6.246094 20.742188 C 6.234375 20.773438 6.222656 20.796875 6.210938 20.828125 C 6.1875 20.886719 6.15625 20.957031 6.121094 21.042969 C 6.082031 21.128906 6.03125 21.246094 5.984375 21.355469 C 6.089844 21.34375 6.199219 21.335938 6.289062 21.328125 C 6.402344 21.234375 6.519531 21.136719 6.652344 21.050781 C 6.933594 20.863281 7.242188 20.730469 7.535156 20.703125 C 7.828125 20.675781 8.113281 20.726562 8.472656 20.984375 C 9.480469 21.707031 10.53125 21.699219 11.246094 21.46875 C 11.960938 21.242188 12.421875 20.8125 12.421875 20.8125 L 11.523438 19.839844 C 11.523438 19.839844 11.265625 20.074219 10.84375 20.207031 C 10.421875 20.34375 9.917969 20.394531 9.246094 19.910156 C 8.796875 19.589844 8.316406 19.421875 7.859375 19.382812 C 7.78125 19.375 7.703125 19.375 7.628906 19.375 Z M 7.628906 19.375 "/>
<path fill-rule="evenodd" fill="rgb(100%, 100%, 100%)" fill-opacity="1" d="M 6.546875 24.101562 C 6.539062 24.121094 4.667969 23.652344 4.65625 23.667969 C 4.640625 23.679688 5.160156 25.542969 5.140625 25.550781 C 5.125 25.558594 3.992188 23.996094 3.972656 24 C 3.953125 24 3.152344 25.761719 3.132812 25.757812 C 3.117188 25.75 3.25 23.828125 3.234375 23.816406 C 3.21875 23.804688 1.476562 24.640625 1.464844 24.625 C 1.453125 24.609375 2.792969 23.222656 2.789062 23.203125 C 2.785156 23.183594 0.910156 22.703125 0.914062 22.683594 C 0.914062 22.664062 2.832031 22.460938 2.839844 22.445312 C 2.847656 22.425781 1.726562 20.855469 1.738281 20.839844 C 1.753906 20.828125 3.351562 21.90625 3.367188 21.898438 C 3.386719 21.890625 3.535156 19.960938 3.554688 19.960938 C 3.574219 19.957031 4.105469 21.8125 4.125 21.816406 C 4.140625 21.824219 5.496094 20.441406 5.511719 20.453125 C 5.527344 20.464844 4.742188 22.226562 4.753906 22.242188 C 4.765625 22.257812 6.6875 22.070312 6.695312 22.089844 C 6.699219 22.109375 4.964844 22.953125 4.964844 22.972656 C 4.960938 22.992188 6.554688 24.085938 6.546875 24.101562 Z M 6.546875 24.101562 "/>
</svg>
