<svg width="12" height="12" viewBox="0 0 580 580" fill="none" xmlns="http://www.w3.org/2000/svg">
<path d="M90.398 142.317H492.458" stroke="#ffffff" stroke-width="27"/>
<path d="M291.428 364.097V57.585" stroke="#ffffff" stroke-width="27"/>
<path d="M124.751 220.78L124.751 134.624" stroke="#ffffff" stroke-width="27"/>
<path d="M458.803 219.764V133.608" stroke="#ffffff" stroke-width="27"/>
<path d="M122.213 380.773C170.158 380.773 209.025 341.906 209.025 293.96C209.025 246.015 170.158 207.147 122.213 207.147C74.2672 207.147 35.3998 246.015 35.3998 293.96C35.3998 341.906 74.2672 380.773 122.213 380.773Z" fill="#ffffff"/>
<path d="M457.787 378.234C505.733 378.234 544.6 339.367 544.6 291.421C544.6 243.476 505.733 204.608 457.787 204.608C409.842 204.608 370.975 243.476 370.975 291.421C370.975 339.367 409.842 378.234 457.787 378.234Z" fill="#ffffff"/>
<path d="M293.3 522.415C341.245 522.415 380.113 483.547 380.113 435.602C380.113 387.656 341.245 348.789 293.3 348.789C245.354 348.789 206.487 387.656 206.487 435.602C206.487 483.547 245.354 522.415 293.3 522.415Z" fill="#ffffff"/>
</svg>
