<svg width="32" height="32" viewBox="0 0 48 48" fill="none" xmlns="http://www.w3.org/2000/svg">
<path d="M23.1095 8.76456C22.9807 8.77867 22.8595 8.8103 22.7345 8.85831C22.2162 9.05735 21.832 9.43664 21.6095 9.93643C21.387 10.4363 21.4103 10.9645 21.6095 11.4833C21.8085 12.0016 22.1409 12.339 22.6408 12.5614C23.1406 12.7839 23.6225 12.8073 24.1408 12.6083C24.6409 12.4163 25.034 12.0805 25.2658 11.5771C25.4975 11.0737 25.4648 10.5953 25.2658 10.0771C25.0665 9.55826 24.7436 9.12409 24.2345 8.90518C23.9799 8.79575 23.7409 8.76857 23.4845 8.76456C23.3563 8.76255 23.2383 8.75044 23.1095 8.76456ZM18.2814 12.2802C17.5182 12.2781 16.6652 12.6779 16.1251 13.6864L14.8595 20.1083C14.5611 21.4015 17.9328 21.9227 18.1408 21.0458C18.2666 20.5151 19.0636 14.6588 19.922 13.2646C19.719 12.6894 19.0446 12.2823 18.2814 12.2802ZM29.6251 12.9364C29.512 12.9391 29.3688 12.9846 29.2501 13.0302C29.0127 13.1214 28.8863 13.2321 28.6876 13.4052L26.8595 14.9052L22.547 13.2177C22.2655 13.092 22.0084 13.0536 21.7033 13.1708C20.599 13.2994 20.3294 15.0678 20.1095 15.7958L19.0783 21.8427L20.3439 26.4833L19.172 32.1552C19.1605 32.5002 19.2901 32.7558 19.5001 32.9989C19.7102 33.2421 19.9526 33.4093 20.297 33.4208C20.6237 33.4318 20.953 33.2741 21.1876 33.0458C21.4223 32.8175 21.5048 32.5288 21.5158 32.2021L22.6876 27.1864C22.7322 26.9914 22.7794 26.7907 22.7814 26.6239C22.8053 26.2006 22.7663 25.9478 22.6408 25.5458L21.9376 22.4521L25.547 23.9989L26.3439 29.1552C26.3488 29.2702 26.3178 29.3687 26.3439 29.4364C26.461 29.7416 26.6952 29.957 27.0001 30.0927C27.3051 30.2284 27.6324 30.2567 27.9376 30.1396C28.5138 29.9183 28.7325 29.4726 28.6408 28.8271L27.7033 23.0614C27.6215 22.3925 27.1645 21.9264 26.7658 21.7489L23.3439 20.4833C23.4054 20.2372 23.4862 19.7336 23.4845 19.7333C24.3935 19.9745 25.2581 20.1574 26.1564 20.3427C27.2609 20.4483 27.5974 18.829 26.5314 18.4677L23.8126 17.7646C23.8126 17.7646 24.0553 16.7532 24.047 15.8896L26.5314 16.8271C26.766 16.9311 27.0142 16.9117 27.2345 16.8271C27.5226 16.7164 27.6924 16.6045 28.1251 16.2177L30.5158 14.2021C30.5861 13.9804 30.5469 13.7491 30.4689 13.5458C30.3714 13.2919 30.1963 13.1315 29.9533 13.0302C29.8317 12.9795 29.7383 12.9338 29.6251 12.9364V12.9364ZM31.7814 13.2177L31.0314 13.2646L31.9689 28.3583L32.672 28.0771L31.7814 13.2177V13.2177ZM28.6408 20.2489L27.9376 20.3896L30.047 30.6552L16.9689 35.7177L17.5314 37.1239L30.3283 32.1552L31.0314 35.6239L31.7345 35.3427L31.0314 31.8739L36.0939 29.9052C36.6611 29.6716 36.6907 29.4974 37.0783 29.0146C37.4658 28.5029 37.6362 27.3787 37.4064 26.7646L36.1408 27.0458C36.2814 27.4161 36.3225 27.869 36.0939 28.1708C35.9847 28.3149 35.8023 28.4314 35.6251 28.4989L30.7033 30.3739L28.6408 20.2489Z" fill="#000000"/>
</svg>
