<?xml version="1.0" encoding="UTF-8"?>
<svg xmlns="http://www.w3.org/2000/svg" xmlns:xlink="http://www.w3.org/1999/xlink" width="32" height="32" viewBox="0 0 32 32">
<path fill-rule="nonzero" fill="rgb(100%, 100%, 100%)" fill-opacity="1" d="M 16 9.332031 L 10 10.667969 C 8.65625 14.523438 6.628906 18.671875 6.628906 18.671875 C 6.628906 18.671875 6.667969 18.667969 2.667969 22.667969 L 29.332031 22.667969 L 25.332031 18.667969 C 25.332031 18.667969 23.066406 13.640625 22 10.667969 Z M 12.007812 11.992188 C 12.222656 11.992188 12.425781 12.097656 12.546875 12.273438 C 12.671875 12.449219 12.703125 12.675781 12.632812 12.878906 L 11.285156 16.921875 L 10.597656 18.296875 C 10.433594 18.628906 10.03125 18.761719 9.703125 18.597656 C 9.371094 18.433594 9.238281 18.03125 9.402344 17.703125 L 10.050781 16.410156 L 11.367188 12.457031 C 11.457031 12.175781 11.714844 11.988281 12.007812 11.992188 Z M 20 11.992188 C 20.300781 11.992188 20.5625 12.195312 20.640625 12.484375 L 21.941406 17.03125 L 23.867188 19.601562 C 24.085938 19.894531 24.027344 20.3125 23.734375 20.535156 C 23.4375 20.753906 23.019531 20.695312 22.800781 20.398438 L 20.726562 17.636719 L 19.359375 12.851562 C 19.296875 12.648438 19.335938 12.429688 19.464844 12.257812 C 19.589844 12.089844 19.789062 11.988281 20 11.992188 Z M 20 11.992188 "/>
</svg>
