<?xml version="1.0" encoding="UTF-8" standalone="no"?>
<svg
   xmlns:dc="http://purl.org/dc/elements/1.1/"
   xmlns:cc="http://creativecommons.org/ns#"
   xmlns:rdf="http://www.w3.org/1999/02/22-rdf-syntax-ns#"
   xmlns:svg="http://www.w3.org/2000/svg"
   xmlns="http://www.w3.org/2000/svg"
   xmlns:sodipodi="http://sodipodi.sourceforge.net/DTD/sodipodi-0.dtd"
   xmlns:inkscape="http://www.inkscape.org/namespaces/inkscape"
   width="32"
   height="32"
   viewBox="0 0 580 580"
   fill="none"
   version="1.1"
   id="svg8"
   sodipodi:docname="piste_glide_yes.svg"
   inkscape:version="0.92.5 (2060ec1f9f, 2020-04-08)">
  <metadata
     id="metadata14">
    <rdf:RDF>
      <cc:Work
         rdf:about="">
        <dc:format>image/svg+xml</dc:format>
        <dc:type
           rdf:resource="http://purl.org/dc/dcmitype/StillImage" />
        <dc:title />
      </cc:Work>
    </rdf:RDF>
  </metadata>
  <defs
     id="defs12" />
  <sodipodi:namedview
     pagecolor="#ffffff"
     bordercolor="#666666"
     borderopacity="1"
     objecttolerance="10"
     gridtolerance="10"
     guidetolerance="10"
     inkscape:pageopacity="0"
     inkscape:pageshadow="2"
     inkscape:window-width="1920"
     inkscape:window-height="1006"
     id="namedview10"
     showgrid="false"
     inkscape:zoom="0.57543862"
     inkscape:cx="249.43578"
     inkscape:cy="259.50903"
     inkscape:window-x="0"
     inkscape:window-y="0"
     inkscape:window-maximized="1"
     inkscape:current-layer="svg8" />
  <path
     d="m 287.71991,104.79612 c -6.86693,0.36753 -13.53382,2.44446 -19.39475,6.04227 -5.86165,3.59781 -10.73122,8.60256 -14.16761,14.55984 L 96.78599,397.906 c -3.618765,6.27417 -5.523583,13.39021 -5.52329,20.63302 2.93e-4,7.24354 1.905697,14.35885 5.524902,20.63302 3.619208,6.27417 8.825008,11.48591 15.094858,15.11208 6.26984,3.62616 13.38325,5.53999 20.62621,5.54805 l 314.90321,0.24033 c 7.25013,0.006 14.3735,-1.89771 20.65427,-5.51801 6.28149,-3.62104 11.49836,-8.83132 15.12746,-15.10768 3.62836,-6.27637 5.54073,-13.39755 5.54439,-20.64768 0.004,-7.2494 -1.90137,-14.37277 -5.52314,-20.6528 L 325.68291,125.39823 c -3.80934,-6.60382 -9.37205,-12.02416 -16.07265,-15.66044 -6.70061,-3.63635 -14.27679,-5.34671 -21.89035,-4.94167 z"
     id="path2"
     inkscape:connector-curvature="0"
     style="clip-rule:evenodd;fill:#000000;fill-rule:evenodd;stroke-width:0.73270673" />
  <path
     d="m 132.37077,420.60745 c -3.08096,-5.21394 0.49341,-15.27034 0.49341,-15.27034 L 279.55316,151.23955 c 0,0 6.35843,-12.47009 12.36663,-12.42752 6.00892,0.0425 12.87732,13.31189 12.87732,13.31189 l 144.94771,251.08175 c 0,0 5.4462,11.35182 2.35052,16.91307 -3.09569,5.56124 -12.00687,5.8785 -12.00687,5.8785 l -293.42984,-0.30407 c 0,0 -11.2069,0.12749 -14.28786,-5.08572 z"
     id="path4"
     inkscape:connector-curvature="0"
     style="fill:#fefefe;stroke-width:0.73270673;fill-opacity:1" />
  <path
     style="fill:#000000;stroke-width:0.47577301"
     d="M 313.96188,397.42169 V 384.8137 h -24.65012 c -19.6042,0 -22.61447,-0.0929 -22.38505,-0.69075 0.1458,-0.37992 5.62819,-10.03156 12.18312,-21.44809 6.55492,-11.41653 11.91805,-20.84714 11.91805,-20.95692 0,-0.10977 -2.89033,-0.19958 -6.42294,-0.19958 -3.53262,0 -6.41683,-0.16057 -6.40937,-0.35683 0.008,-0.19625 4.91796,-8.92074 10.9122,-19.38775 l 10.89863,-19.03092 -5.44081,-0.13404 c -2.99244,-0.0737 -5.4408,-0.2549 -5.4408,-0.40263 0,-0.6251 35.4757,-61.04872 35.7838,-60.94837 0.39341,0.12814 35.10637,60.75887 35.10637,61.31788 0,0.20564 -2.32646,0.43442 -5.1699,0.50841 l -5.16989,0.13453 10.68678,18.31725 c 5.87772,10.0745 10.79624,18.58489 10.93007,18.91198 0.18829,0.46027 -1.38163,0.59472 -6.9442,0.59472 -3.95313,0 -7.1875,0.10984 -7.1875,0.24409 0,0.13425 5.56655,9.97996 12.3701,21.87935 6.80355,11.8994 12.3701,21.7451 12.3701,21.87935 0,0.13425 -10.38375,0.24409 -23.07499,0.24409 h -25.07499 v 12.37011 12.37009 h -9.89433 -9.89433 z"
     id="path825"
     inkscape:connector-curvature="0"
     sodipodi:nodetypes="ccscssscsccscsscccssssscccccc" />
  <path
     style="fill:#000000;stroke-width:0.23940013"
     d="m 202.95627,401.71567 v -6.3441 h -12.40349 c -9.86447,0 -11.37918,-0.0467 -11.26374,-0.34757 0.0734,-0.19117 2.83201,-5.04769 6.13032,-10.79228 3.29831,-5.74458 5.99694,-10.48989 5.99694,-10.54514 0,-0.0553 -1.45436,-0.10035 -3.2319,-0.10035 -1.77754,0 -3.22883,-0.0807 -3.22508,-0.17954 0.004,-0.0987 2.47463,-4.48875 5.49082,-9.75557 l 5.48398,-9.576 -2.73771,-0.0674 c -1.50574,-0.0371 -2.7377,-0.12825 -2.7377,-0.2026 0,-0.31454 17.8507,-30.71857 18.00573,-30.66808 0.19797,0.0645 17.66487,30.57273 17.66487,30.85402 0,0.10343 -1.17063,0.21858 -2.6014,0.25582 l -2.60138,0.0677 5.37739,9.21689 c 2.95756,5.06931 5.43246,9.35157 5.4998,9.51615 0.0948,0.23161 -0.6952,0.29926 -3.49419,0.29926 -1.98914,0 -3.61662,0.0553 -3.61662,0.12278 0,0.0675 2.80099,5.02172 6.22441,11.00928 3.42342,5.98756 6.2244,10.94173 6.2244,11.00929 0,0.0675 -5.22491,0.12277 -11.61091,0.12277 h -12.61726 v 6.22441 6.2244 h -4.97864 -4.97864 z"
     id="path825-3"
     inkscape:connector-curvature="0"
     sodipodi:nodetypes="ccscssscsccscsscccssssscccccc" />
</svg>
