<svg width="48" height="48" viewBox="0 0 48 48" fill="none" xmlns="http://www.w3.org/2000/svg">
<path fill-rule="evenodd" clip-rule="evenodd" d="M14.4853 4C12.894 4 11.3679 4.63214 10.2426 5.75736L9.75736 6.24264C8.63214 7.36786 8 8.89398 8 10.4853V12V39C8 39.5523 8.44772 40 9 40H10V41C10 42.6569 11.3431 44 13 44C14.6569 44 16 42.6569 16 41V40H32V41C32 42.6569 33.3431 44 35 44C36.6569 44 38 42.6569 38 41V40H39C39.5523 40 40 39.5523 40 39V12V10.4853C40 8.89398 39.3679 7.36786 38.2426 6.24264L37.7574 5.75736C36.6321 4.63214 35.106 4 33.5147 4H14.4853ZM16 10C16 8.89543 16.8954 8 18 8H30C31.1046 8 32 8.89543 32 10C32 11.1046 31.1046 12 30 12H18C16.8954 12 16 11.1046 16 10ZM12 16H36V28H12V16ZM16 34C16 35.1046 15.1046 36 14 36C12.8954 36 12 35.1046 12 34C12 32.8954 12.8954 32 14 32C15.1046 32 16 32.8954 16 34ZM34 36C35.1046 36 36 35.1046 36 34C36 32.8954 35.1046 32 34 32C32.8954 32 32 32.8954 32 34C32 35.1046 32.8954 36 34 36Z" fill="#ffffff"/>
<path fill-rule="evenodd" clip-rule="evenodd" d="M14.8284 4C13.0174 4 11.2806 4.71942 10 6C8.71942 7.28058 8 9.01742 8 10.8284V36C8 37.4806 8.8044 38.7733 10 39.4649V41C10 42.6569 11.3431 44 13 44C14.6569 44 16 42.6569 16 41V40H32V41C32 42.6569 33.3431 44 35 44C36.6569 44 38 42.6569 38 41V39.4649C39.1956 38.7733 40 37.4806 40 36V10.8284C40 9.01742 39.2806 7.28058 38 6C36.7194 4.71942 34.9826 4 33.1716 4H14.8284ZM16 10C16 8.89543 16.8954 8 18 8H30C31.1046 8 32 8.89543 32 10C32 11.1046 31.1046 12 30 12H18C16.8954 12 16 11.1046 16 10ZM12 16H36V28H12V16ZM16 34C16 35.1046 15.1046 36 14 36C12.8954 36 12 35.1046 12 34C12 32.8954 12.8954 32 14 32C15.1046 32 16 32.8954 16 34ZM34 36C35.1046 36 36 35.1046 36 34C36 32.8954 35.1046 32 34 32C32.8954 32 32 32.8954 32 34C32 35.1046 32.8954 36 34 36Z" fill="#ffffff"/>
</svg>
