<?xml version="1.0" encoding="UTF-8"?>
<svg xmlns="http://www.w3.org/2000/svg" xmlns:xlink="http://www.w3.org/1999/xlink" width="12" height="12" viewBox="0 0 12 12" version="1.1">
<g id="surface1">
<path style=" stroke:none;fill-rule:nonzero;fill:rgb(24.705882%,24.705882%,24.705882%);fill-opacity:1;" d="M 2.574219 2.492188 C 2.667969 2.492188 2.742188 2.417969 2.742188 2.328125 C 2.742188 2.234375 2.667969 2.160156 2.574219 2.160156 C 2.484375 2.160156 2.410156 2.234375 2.410156 2.328125 C 2.410156 2.417969 2.484375 2.492188 2.574219 2.492188 Z M 2.574219 2.492188 "/>
<path style=" stroke:none;fill-rule:nonzero;fill:rgb(24.705882%,24.705882%,24.705882%);fill-opacity:1;" d="M 3.984375 2.492188 C 4.074219 2.492188 4.148438 2.417969 4.148438 2.328125 C 4.148438 2.234375 4.074219 2.160156 3.984375 2.160156 C 3.890625 2.160156 3.816406 2.234375 3.816406 2.328125 C 3.816406 2.417969 3.890625 2.492188 3.984375 2.492188 Z M 3.984375 2.492188 "/>
<path style=" stroke:none;fill-rule:nonzero;fill:rgb(24.705882%,24.705882%,24.705882%);fill-opacity:1;" d="M 8.203125 2.492188 C 8.292969 2.492188 8.367188 2.417969 8.367188 2.328125 C 8.367188 2.234375 8.292969 2.160156 8.203125 2.160156 C 8.113281 2.160156 8.039062 2.234375 8.039062 2.328125 C 8.039062 2.417969 8.113281 2.492188 8.203125 2.492188 Z M 8.203125 2.492188 "/>
<path style=" stroke:none;fill-rule:nonzero;fill:rgb(24.705882%,24.705882%,24.705882%);fill-opacity:1;" d="M 9.609375 2.492188 C 9.703125 2.492188 9.777344 2.417969 9.777344 2.328125 C 9.777344 2.234375 9.703125 2.160156 9.609375 2.160156 C 9.519531 2.160156 9.445312 2.234375 9.445312 2.328125 C 9.445312 2.417969 9.519531 2.492188 9.609375 2.492188 Z M 9.609375 2.492188 "/>
<path style=" stroke:none;fill-rule:nonzero;fill:rgb(24.705882%,24.705882%,24.705882%);fill-opacity:1;" d="M 2.574219 4.3125 C 2.667969 4.3125 2.742188 4.238281 2.742188 4.148438 C 2.742188 4.058594 2.667969 3.984375 2.574219 3.984375 C 2.484375 3.984375 2.410156 4.058594 2.410156 4.148438 C 2.410156 4.238281 2.484375 4.3125 2.574219 4.3125 Z M 2.574219 4.3125 "/>
<path style=" stroke:none;fill-rule:nonzero;fill:rgb(24.705882%,24.705882%,24.705882%);fill-opacity:1;" d="M 9.609375 4.3125 C 9.703125 4.3125 9.777344 4.238281 9.777344 4.148438 C 9.777344 4.058594 9.703125 3.984375 9.609375 3.984375 C 9.519531 3.984375 9.445312 4.058594 9.445312 4.148438 C 9.445312 4.238281 9.519531 4.3125 9.609375 4.3125 Z M 9.609375 4.3125 "/>
<path style=" stroke:none;fill-rule:nonzero;fill:rgb(24.705882%,24.705882%,24.705882%);fill-opacity:1;" d="M 2.574219 6.132812 C 2.667969 6.132812 2.742188 6.058594 2.742188 5.96875 C 2.742188 5.878906 2.667969 5.804688 2.574219 5.804688 C 2.484375 5.804688 2.410156 5.878906 2.410156 5.96875 C 2.410156 6.058594 2.484375 6.132812 2.574219 6.132812 Z M 2.574219 6.132812 "/>
<path style=" stroke:none;fill-rule:nonzero;fill:rgb(24.705882%,24.705882%,24.705882%);fill-opacity:1;" d="M 9.609375 6.132812 C 9.703125 6.132812 9.777344 6.058594 9.777344 5.96875 C 9.777344 5.878906 9.703125 5.804688 9.609375 5.804688 C 9.519531 5.804688 9.445312 5.878906 9.445312 5.96875 C 9.445312 6.058594 9.519531 6.132812 9.609375 6.132812 Z M 9.609375 6.132812 "/>
<path style=" stroke:none;fill-rule:nonzero;fill:rgb(24.705882%,24.705882%,24.705882%);fill-opacity:1;" d="M 2.574219 7.957031 C 2.667969 7.957031 2.742188 7.882812 2.742188 7.789062 C 2.742188 7.699219 2.667969 7.625 2.574219 7.625 C 2.484375 7.625 2.410156 7.699219 2.410156 7.789062 C 2.410156 7.882812 2.484375 7.957031 2.574219 7.957031 Z M 2.574219 7.957031 "/>
<path style=" stroke:none;fill-rule:nonzero;fill:rgb(24.705882%,24.705882%,24.705882%);fill-opacity:1;" d="M 9.609375 7.957031 C 9.703125 7.957031 9.777344 7.882812 9.777344 7.789062 C 9.777344 7.699219 9.703125 7.625 9.609375 7.625 C 9.519531 7.625 9.445312 7.699219 9.445312 7.789062 C 9.445312 7.882812 9.519531 7.957031 9.609375 7.957031 Z M 9.609375 7.957031 "/>
<path style=" stroke:none;fill-rule:nonzero;fill:rgb(24.705882%,24.705882%,24.705882%);fill-opacity:1;" d="M 2.574219 9.777344 C 2.667969 9.777344 2.742188 9.703125 2.742188 9.609375 C 2.742188 9.519531 2.667969 9.445312 2.574219 9.445312 C 2.484375 9.445312 2.410156 9.519531 2.410156 9.609375 C 2.410156 9.703125 2.484375 9.777344 2.574219 9.777344 Z M 2.574219 9.777344 "/>
<path style=" stroke:none;fill-rule:nonzero;fill:rgb(24.705882%,24.705882%,24.705882%);fill-opacity:1;" d="M 3.984375 9.777344 C 4.074219 9.777344 4.148438 9.703125 4.148438 9.609375 C 4.148438 9.519531 4.074219 9.445312 3.984375 9.445312 C 3.890625 9.445312 3.816406 9.519531 3.816406 9.609375 C 3.816406 9.703125 3.890625 9.777344 3.984375 9.777344 Z M 3.984375 9.777344 "/>
<path style=" stroke:none;fill-rule:nonzero;fill:rgb(24.705882%,24.705882%,24.705882%);fill-opacity:1;" d="M 8.203125 9.777344 C 8.292969 9.777344 8.367188 9.703125 8.367188 9.609375 C 8.367188 9.519531 8.292969 9.445312 8.203125 9.445312 C 8.113281 9.445312 8.039062 9.519531 8.039062 9.609375 C 8.039062 9.703125 8.113281 9.777344 8.203125 9.777344 Z M 8.203125 9.777344 "/>
<path style=" stroke:none;fill-rule:nonzero;fill:rgb(24.705882%,24.705882%,24.705882%);fill-opacity:1;" d="M 1.34375 1.179688 L 1.34375 10.820312 L 10.65625 10.820312 L 10.65625 1.179688 Z M 2.574219 1.820312 C 2.855469 1.820312 3.082031 2.046875 3.082031 2.328125 C 3.082031 2.609375 2.855469 2.835938 2.574219 2.835938 C 2.296875 2.835938 2.070312 2.609375 2.070312 2.328125 C 2.070312 2.046875 2.296875 1.820312 2.574219 1.820312 Z M 3.984375 1.820312 C 4.261719 1.820312 4.488281 2.046875 4.488281 2.328125 C 4.488281 2.609375 4.261719 2.835938 3.984375 2.835938 C 3.703125 2.835938 3.476562 2.609375 3.476562 2.328125 C 3.476562 2.046875 3.703125 1.820312 3.984375 1.820312 Z M 8.203125 1.820312 C 8.484375 1.820312 8.710938 2.046875 8.710938 2.328125 C 8.710938 2.609375 8.484375 2.835938 8.203125 2.835938 C 7.921875 2.835938 7.695312 2.609375 7.695312 2.328125 C 7.695312 2.046875 7.921875 1.820312 8.203125 1.820312 Z M 9.609375 1.820312 C 9.890625 1.820312 10.117188 2.046875 10.117188 2.328125 C 10.117188 2.609375 9.890625 2.835938 9.609375 2.835938 C 9.332031 2.835938 9.101562 2.609375 9.101562 2.328125 C 9.101562 2.046875 9.332031 1.820312 9.609375 1.820312 Z M 6.265625 2.71875 L 7.527344 2.71875 L 6.269531 5.328125 L 7.863281 5.328125 L 5.042969 9.796875 L 6.28125 6.398438 L 4.804688 6.398438 Z M 2.574219 3.640625 C 2.855469 3.640625 3.082031 3.867188 3.082031 4.148438 C 3.082031 4.429688 2.855469 4.65625 2.574219 4.65625 C 2.296875 4.65625 2.070312 4.429688 2.070312 4.148438 C 2.070312 3.867188 2.296875 3.640625 2.574219 3.640625 Z M 9.609375 3.640625 C 9.890625 3.640625 10.117188 3.867188 10.117188 4.148438 C 10.117188 4.429688 9.890625 4.65625 9.609375 4.65625 C 9.332031 4.65625 9.101562 4.429688 9.101562 4.148438 C 9.101562 3.867188 9.332031 3.640625 9.609375 3.640625 Z M 2.574219 5.460938 C 2.855469 5.460938 3.082031 5.6875 3.082031 5.96875 C 3.082031 6.25 2.855469 6.476562 2.574219 6.476562 C 2.296875 6.476562 2.070312 6.25 2.070312 5.96875 C 2.070312 5.6875 2.296875 5.460938 2.574219 5.460938 Z M 9.609375 5.460938 C 9.890625 5.460938 10.117188 5.6875 10.117188 5.96875 C 10.117188 6.25 9.890625 6.476562 9.609375 6.476562 C 9.332031 6.476562 9.101562 6.25 9.101562 5.96875 C 9.101562 5.6875 9.332031 5.460938 9.609375 5.460938 Z M 2.574219 7.28125 C 2.855469 7.28125 3.082031 7.507812 3.082031 7.789062 C 3.082031 8.070312 2.855469 8.296875 2.574219 8.296875 C 2.296875 8.296875 2.070312 8.070312 2.070312 7.789062 C 2.070312 7.507812 2.296875 7.28125 2.574219 7.28125 Z M 9.609375 7.28125 C 9.890625 7.28125 10.117188 7.507812 10.117188 7.789062 C 10.117188 8.070312 9.890625 8.296875 9.609375 8.296875 C 9.332031 8.296875 9.101562 8.070312 9.101562 7.789062 C 9.101562 7.507812 9.332031 7.28125 9.609375 7.28125 Z M 2.574219 9.101562 C 2.855469 9.101562 3.082031 9.332031 3.082031 9.609375 C 3.082031 9.890625 2.855469 10.117188 2.574219 10.117188 C 2.296875 10.117188 2.070312 9.890625 2.070312 9.609375 C 2.070312 9.332031 2.296875 9.101562 2.574219 9.101562 Z M 3.984375 9.101562 C 4.261719 9.101562 4.488281 9.332031 4.488281 9.609375 C 4.488281 9.890625 4.261719 10.117188 3.984375 10.117188 C 3.703125 10.117188 3.476562 9.890625 3.476562 9.609375 C 3.476562 9.332031 3.703125 9.101562 3.984375 9.101562 Z M 8.203125 9.101562 C 8.484375 9.101562 8.710938 9.332031 8.710938 9.609375 C 8.710938 9.890625 8.484375 10.117188 8.203125 10.117188 C 7.921875 10.117188 7.695312 9.890625 7.695312 9.609375 C 7.695312 9.332031 7.921875 9.101562 8.203125 9.101562 Z M 9.609375 9.101562 C 9.890625 9.101562 10.117188 9.332031 10.117188 9.609375 C 10.117188 9.890625 9.890625 10.117188 9.609375 10.117188 C 9.332031 10.117188 9.101562 9.890625 9.101562 9.609375 C 9.101562 9.332031 9.332031 9.101562 9.609375 9.101562 Z M 9.609375 9.101562 "/>
<path style=" stroke:none;fill-rule:nonzero;fill:rgb(24.705882%,24.705882%,24.705882%);fill-opacity:1;" d="M 9.609375 9.777344 C 9.703125 9.777344 9.777344 9.703125 9.777344 9.609375 C 9.777344 9.519531 9.703125 9.445312 9.609375 9.445312 C 9.519531 9.445312 9.445312 9.519531 9.445312 9.609375 C 9.445312 9.703125 9.519531 9.777344 9.609375 9.777344 Z M 9.609375 9.777344 "/>
</g>
</svg>
