<?xml version="1.0" encoding="UTF-8"?>
<svg xmlns="http://www.w3.org/2000/svg" xmlns:xlink="http://www.w3.org/1999/xlink" width="32" height="32" viewBox="0 0 32 32">
<path fill-rule="nonzero" fill="rgb(100%, 100%, 100%)" fill-opacity="1" d="M 9.878906 3.929688 C 11.066406 4.664062 12.523438 6.179688 12.789062 8.277344 C 14.585938 7.628906 16.601562 7.535156 18.46875 7.914062 C 19.441406 6.40625 19.242188 4.234375 18.242188 2.777344 C 15.425781 2.457031 12.488281 2.78125 9.878906 3.929688 Z M 19.757812 3.023438 C 20.300781 4.292969 20.722656 6.34375 19.691406 8.25 C 21.464844 8.875 22.753906 9.984375 23.605469 11.304688 C 25.5625 10.816406 26.574219 9.085938 26.484375 7.140625 C 24.957031 5.191406 22.785156 3.683594 19.757812 3.023438 Z M 8.410156 4.683594 C 5.601562 6.339844 4.207031 8.277344 2.667969 10.941406 C 3.339844 11.554688 4.960938 12.585938 7.703125 12.882812 C 8.507812 11.320312 9.761719 9.789062 11.601562 8.804688 C 11.550781 7.1875 10.453125 5.617188 9.042969 4.859375 C 8.769531 4.710938 8.609375 4.679688 8.410156 4.683594 Z M 27.566406 8.777344 C 27.230469 10.230469 26.226562 11.769531 24.195312 12.40625 C 24.855469 13.921875 25.039062 15.585938 24.898438 17.140625 C 26.554688 17.5 28.960938 16.277344 29.28125 14.550781 C 29.089844 12.546875 28.539062 10.546875 27.566406 8.777344 Z M 16.210938 9.230469 C 14.976562 9.226562 13.929688 9.429688 13.039062 9.78125 C 14.027344 10.199219 14.863281 10.976562 15.25 11.925781 C 15.886719 11.742188 16.570312 11.683594 17.269531 11.773438 C 17.34375 11.003906 17.054688 9.824219 16.285156 9.230469 C 16.261719 9.230469 16.234375 9.230469 16.210938 9.230469 Z M 17.574219 9.3125 C 18.121094 10.164062 18.308594 11.167969 18.1875 11.980469 C 18.808594 12.179688 19.425781 12.503906 19.914062 12.890625 C 20.332031 12.121094 20.46875 11.277344 20.03125 10.011719 C 19.34375 9.675781 18.53125 9.433594 17.574219 9.3125 Z M 11.660156 10.515625 C 10.761719 11.132812 10.066406 11.929688 9.515625 12.796875 C 10.535156 12.632812 11.757812 12.808594 12.566406 13.671875 C 13.046875 13.113281 13.628906 12.640625 14.285156 12.304688 C 13.898438 11.386719 12.734375 10.542969 11.660156 10.515625 Z M 21.082031 10.675781 C 21.253906 11.792969 21.003906 12.714844 20.5625 13.492188 C 20.882812 13.851562 21.144531 14.242188 21.34375 14.652344 C 21.960938 14.417969 22.582031 13.859375 22.679688 12.730469 C 22.3125 11.949219 21.792969 11.242188 21.082031 10.675781 Z M 16.4375 13.238281 C 16.042969 13.253906 15.664062 13.335938 15.3125 13.476562 C 15.867188 13.734375 16.132812 14.023438 16.386719 14.382812 C 16.660156 14.347656 16.925781 14.347656 17.175781 14.382812 C 17.105469 14.074219 16.964844 13.8125 16.4375 13.238281 Z M 17.40625 13.34375 C 17.746094 13.808594 17.839844 14.179688 17.894531 14.597656 C 18.066406 14.675781 18.222656 14.777344 18.363281 14.894531 C 18.484375 14.632812 18.535156 14.378906 18.503906 13.777344 C 18.160156 13.585938 17.765625 13.433594 17.40625 13.34375 Z M 8.820312 14.105469 C 8.277344 15.339844 8.003906 16.59375 7.898438 17.523438 C 8.839844 16.882812 10.003906 16.59375 11.117188 16.796875 C 11.253906 15.988281 11.542969 15.214844 11.949219 14.527344 C 11.257812 13.539062 9.796875 13.640625 8.820312 14.105469 Z M 14.550781 13.898438 C 14.277344 14.09375 14.023438 14.324219 13.792969 14.589844 C 14.292969 14.667969 14.621094 14.789062 14.894531 14.96875 C 15.128906 14.800781 15.386719 14.664062 15.675781 14.558594 C 15.464844 14.308594 15.25 14.148438 14.550781 13.898438 Z M 23.152344 14.070312 C 22.796875 14.765625 22.230469 15.210938 21.648438 15.433594 C 21.789062 15.90625 21.863281 16.394531 21.867188 16.878906 C 22.441406 16.859375 22.871094 16.789062 23.386719 16.105469 C 23.390625 15.421875 23.316406 14.734375 23.152344 14.070312 Z M 19.125 14.210938 C 19.109375 14.71875 18.984375 15.050781 18.804688 15.375 C 18.9375 15.566406 19.046875 15.769531 19.125 15.984375 C 19.363281 15.796875 19.535156 15.582031 19.796875 14.972656 C 19.617188 14.699219 19.394531 14.441406 19.125 14.210938 Z M 13.328125 15.210938 C 13.136719 15.515625 12.976562 15.847656 12.851562 16.191406 C 13.289062 16.074219 13.617188 16.0625 13.925781 16.113281 C 14.039062 15.875 14.1875 15.648438 14.371094 15.441406 C 14.160156 15.339844 13.871094 15.265625 13.328125 15.210938 Z M 20.128906 15.636719 C 19.871094 16.125 19.601562 16.371094 19.28125 16.585938 C 19.320312 16.824219 19.332031 17.066406 19.316406 17.304688 C 19.816406 17.207031 20.0625 17.046875 20.34375 16.757812 C 20.332031 16.378906 20.261719 16 20.128906 15.636719 Z M 17.34375 15.972656 C 17.25 15.941406 17.136719 15.921875 17 15.90625 C 17.089844 16.0625 17.1875 16.242188 17.207031 16.421875 C 17.34375 16.46875 17.46875 16.539062 17.578125 16.621094 C 17.632812 16.457031 17.644531 16.296875 17.636719 16.125 C 17.5625 16.0625 17.46875 16.011719 17.34375 15.972656 Z M 16.542969 15.933594 C 16.203125 15.957031 15.949219 16.0625 15.738281 16.222656 C 15.953125 16.273438 16.15625 16.382812 16.34375 16.5 C 16.484375 16.449219 16.636719 16.394531 16.789062 16.410156 C 16.769531 16.328125 16.550781 15.925781 16.542969 15.933594 Z M 18.027344 16.449219 C 18.03125 16.59375 18.003906 16.734375 17.960938 16.882812 C 17.992188 17.035156 17.96875 17.269531 17.902344 17.464844 C 18.179688 17.179688 18.167969 16.75 18.027344 16.449219 Z M 12.644531 16.964844 C 12.578125 17.3125 12.546875 17.671875 12.5625 18.035156 C 12.957031 17.734375 13.277344 17.597656 13.597656 17.53125 C 13.605469 17.273438 13.636719 17.011719 13.695312 16.761719 C 13.445312 16.738281 13.175781 16.777344 12.644531 16.964844 Z M 29.332031 16.832031 C 28.160156 17.953125 26.339844 18.648438 24.710938 18.359375 C 24.457031 19.53125 24.003906 20.597656 23.390625 21.4375 C 24.59375 22.722656 26.023438 22.945312 27.738281 22.550781 C 28.683594 20.792969 29.21875 18.796875 29.332031 16.832031 Z M 15.398438 16.621094 C 15.242188 16.855469 15.136719 17.144531 15.089844 17.460938 C 15.253906 17.394531 15.445312 17.335938 15.664062 17.285156 C 15.730469 17.101562 15.84375 16.917969 16.003906 16.769531 C 15.804688 16.664062 15.605469 16.621094 15.398438 16.621094 Z M 23.3125 17.242188 C 22.816406 17.582031 22.292969 17.652344 21.820312 17.660156 C 21.75 18.164062 21.605469 18.65625 21.390625 19.109375 C 21.8125 19.289062 22.210938 19.355469 22.902344 19.039062 C 23.089844 18.492188 23.230469 17.882812 23.3125 17.242188 Z M 20.300781 17.46875 C 20.019531 17.652344 19.6875 17.78125 19.226562 17.863281 C 19.183594 18.03125 19.117188 18.195312 19.03125 18.351562 C 19.355469 18.53125 19.617188 18.578125 19.949219 18.570312 C 20.121094 18.234375 20.242188 17.859375 20.300781 17.46875 Z M 7.875 18.957031 C 7.945312 20.019531 8.183594 21.5625 8.855469 23.074219 C 9.175781 21.449219 10.253906 20.527344 11.472656 20.164062 C 11.167969 19.410156 11.027344 18.636719 11.027344 17.871094 C 9.945312 17.644531 8.675781 18.101562 7.875 18.957031 Z M 15.570312 17.671875 C 15.382812 17.765625 15.234375 17.859375 15.109375 17.957031 C 15.195312 18.335938 15.359375 18.695312 15.589844 19 C 15.652344 18.8125 15.746094 18.628906 15.875 18.433594 C 15.707031 18.203125 15.605469 17.9375 15.570312 17.671875 Z M 13.644531 18.210938 C 13.570312 18.230469 13.5 18.253906 13.425781 18.285156 C 13.234375 18.371094 13 18.527344 12.660156 18.824219 C 12.75 19.257812 12.90625 19.691406 13.132812 20.105469 L 13.136719 20.109375 C 13.246094 19.867188 13.355469 19.675781 13.476562 19.515625 C 13.605469 19.347656 13.738281 19.222656 13.882812 19.109375 C 13.777344 18.828125 13.699219 18.539062 13.652344 18.246094 C 13.648438 18.234375 13.648438 18.222656 13.644531 18.210938 Z M 18.824219 18.652344 C 18.660156 18.78125 18.519531 18.851562 18.226562 18.945312 C 18.417969 19.25 18.589844 19.410156 18.804688 19.546875 C 19.152344 19.449219 19.441406 19.210938 19.636719 18.976562 C 19.347656 18.933594 19.132812 18.832031 18.824219 18.652344 Z M 16.152344 18.734375 C 16.015625 18.941406 15.945312 19.132812 15.90625 19.34375 C 16.171875 19.578125 16.488281 19.746094 16.839844 19.8125 L 16.84375 19.8125 C 16.851562 19.8125 16.863281 19.8125 16.871094 19.8125 C 16.78125 19.585938 16.726562 19.339844 16.710938 19.042969 C 16.496094 18.972656 16.308594 18.863281 16.152344 18.734375 Z M 17.816406 19.054688 C 17.601562 19.117188 17.375 19.140625 17.144531 19.125 C 17.167969 19.425781 17.242188 19.644531 17.367188 19.863281 C 17.753906 19.875 18.097656 19.816406 18.398438 19.703125 C 18.195312 19.542969 18.007812 19.339844 17.816406 19.054688 Z M 14.191406 19.753906 C 13.984375 19.945312 13.828125 20.1875 13.59375 20.820312 C 13.859375 21.167969 14.152344 21.464844 14.46875 21.71875 C 14.480469 21.207031 14.605469 20.863281 14.785156 20.53125 C 14.554688 20.296875 14.355469 20.035156 14.191406 19.753906 Z M 21 19.792969 C 20.808594 20.066406 20.589844 20.320312 20.34375 20.542969 C 20.601562 20.882812 20.875 21.09375 21.648438 21.136719 C 21.96875 20.808594 22.25 20.445312 22.496094 19.980469 C 21.910156 20.09375 21.414062 19.980469 21 19.792969 Z M 19.714844 21.011719 C 19.417969 21.1875 19.097656 21.332031 18.753906 21.433594 C 18.855469 21.824219 19.03125 22.148438 19.546875 22.472656 C 20.011719 22.304688 20.457031 22.078125 20.871094 21.792969 C 20.332031 21.640625 19.96875 21.34375 19.714844 21.011719 Z M 15.367188 21.015625 C 15.3125 21.132812 15.269531 21.238281 15.246094 21.367188 C 15.207031 21.554688 15.195312 21.816406 15.226562 22.21875 C 15.59375 22.414062 15.980469 22.558594 16.378906 22.65625 C 16.28125 22.394531 16.238281 22.144531 16.234375 21.90625 C 16.230469 21.746094 16.246094 21.589844 16.269531 21.445312 C 15.941406 21.34375 15.640625 21.199219 15.367188 21.015625 Z M 12.050781 21.28125 C 10.242188 21.679688 9.847656 23.355469 10.015625 25.011719 C 10.867188 26.09375 12.042969 27.046875 13.726562 27.65625 C 13.019531 26.003906 13.558594 24.40625 14.140625 23.34375 C 13.339844 22.847656 12.617188 22.160156 12.050781 21.28125 Z M 18.035156 21.582031 C 17.691406 21.621094 17.332031 21.621094 16.964844 21.582031 C 16.902344 21.957031 16.925781 22.3125 17.214844 22.789062 C 17.703125 22.824219 18.195312 22.796875 18.679688 22.707031 C 18.320312 22.359375 18.132812 21.960938 18.035156 21.582031 Z M 22.574219 22.371094 C 21.777344 23.132812 20.824219 23.679688 19.804688 24 C 19.734375 25.847656 20.988281 26.828125 22.640625 27.421875 C 24.394531 26.640625 25.800781 25.417969 26.875 23.933594 C 25.195312 24.097656 23.726562 23.597656 22.574219 22.371094 Z M 15.242188 23.886719 C 14.472656 25.292969 14.324219 26.847656 15.453125 28.117188 C 17.261719 28.453125 19.15625 28.457031 20.945312 28.007812 C 19.070312 26.976562 18.582031 25.507812 18.574219 24.273438 C 17.460938 24.417969 16.3125 24.300781 15.242188 23.886719 Z M 15.242188 23.886719 "/>
</svg>
