<?xml version="1.0" encoding="UTF-8"?>
<svg xmlns="http://www.w3.org/2000/svg" xmlns:xlink="http://www.w3.org/1999/xlink" width="12" height="12" viewBox="0 0 12 12" version="1.1">
<g id="surface1">
<path style="fill:none;stroke-width:24.448799;stroke-linecap:butt;stroke-linejoin:miter;stroke:rgb(100%,100%,100%);stroke-opacity:1;stroke-miterlimit:4;" d="M 290 545.826823 C 431.223958 545.826823 545.826823 431.223958 545.826823 290 C 545.826823 148.776042 431.223958 34.173177 290 34.173177 C 148.776042 34.173177 34.173177 148.776042 34.173177 290 C 34.173177 431.223958 148.776042 545.826823 290 545.826823 Z M 290 545.826823 " transform="matrix(0.0206897,0,0,0.0206897,0,0)"/>
<path style=" stroke:none;fill-rule:nonzero;fill:rgb(100%,100%,100%);fill-opacity:1;" d="M 8.957031 4.59375 C 8.957031 4.871094 8.910156 5.140625 8.8125 5.398438 C 8.714844 5.652344 8.558594 5.882812 8.339844 6.078125 C 8.121094 6.273438 7.839844 6.429688 7.492188 6.550781 C 7.144531 6.664062 6.71875 6.722656 6.21875 6.722656 L 5.902344 6.722656 L 5.902344 8.207031 C 5.902344 8.328125 5.914062 8.429688 5.941406 8.503906 C 5.96875 8.578125 6.003906 8.632812 6.050781 8.671875 C 6.09375 8.707031 6.148438 8.730469 6.207031 8.742188 C 6.269531 8.757812 6.332031 8.761719 6.394531 8.761719 L 6.960938 8.761719 L 6.960938 9.257812 L 3.570312 9.257812 L 3.570312 8.761719 L 3.960938 8.761719 C 4.027344 8.761719 4.09375 8.757812 4.148438 8.742188 C 4.207031 8.730469 4.257812 8.699219 4.300781 8.65625 C 4.34375 8.617188 4.375 8.554688 4.398438 8.476562 C 4.421875 8.398438 4.4375 8.292969 4.4375 8.160156 L 4.4375 3.683594 C 4.4375 3.558594 4.421875 3.460938 4.398438 3.386719 C 4.375 3.3125 4.339844 3.253906 4.296875 3.214844 C 4.253906 3.175781 4.203125 3.152344 4.144531 3.140625 C 4.089844 3.125 4.027344 3.117188 3.960938 3.117188 L 3.570312 3.117188 L 3.570312 2.625 L 6.421875 2.625 C 6.851562 2.625 7.226562 2.671875 7.542969 2.761719 C 7.859375 2.851562 8.121094 2.984375 8.332031 3.15625 C 8.542969 3.328125 8.699219 3.53125 8.804688 3.773438 C 8.90625 4.015625 8.957031 4.289062 8.957031 4.59375 Z M 5.902344 6.183594 L 6.128906 6.183594 C 6.355469 6.183594 6.550781 6.152344 6.710938 6.09375 C 6.871094 6.039062 7.003906 5.949219 7.101562 5.824219 C 7.203125 5.699219 7.277344 5.539062 7.324219 5.34375 C 7.371094 5.144531 7.398438 4.910156 7.398438 4.632812 C 7.398438 4.382812 7.375 4.167969 7.332031 3.988281 C 7.292969 3.800781 7.230469 3.652344 7.136719 3.535156 C 7.050781 3.414062 6.933594 3.324219 6.789062 3.265625 C 6.648438 3.207031 6.472656 3.175781 6.261719 3.175781 L 5.902344 3.175781 Z M 5.902344 6.183594 "/>
</g>
</svg>
