<?xml version="1.0" encoding="UTF-8"?>
<svg xmlns="http://www.w3.org/2000/svg" xmlns:xlink="http://www.w3.org/1999/xlink" width="32" height="32" viewBox="0 0 32 32">
<path fill-rule="evenodd" fill="rgb(100%, 100%, 100%)" fill-opacity="1" d="M 16.027344 8 C 15.421875 7.972656 14.820312 8.105469 14.285156 8.386719 L 12.191406 11.253906 L 9.808594 8.859375 C 9.679688 8.730469 9.507812 8.660156 9.328125 8.660156 C 9.054688 8.660156 8.808594 8.824219 8.707031 9.074219 C 8.601562 9.328125 8.664062 9.617188 8.859375 9.808594 L 11.527344 12.472656 C 11.652344 12.597656 11.824219 12.667969 12 12.667969 L 12 14.667969 L 8.667969 14.667969 C 8.296875 14.667969 8 14.964844 8 15.332031 C 8 15.703125 8.296875 16 8.667969 16 L 12 16 L 12 17.171875 L 19.011719 10.160156 L 17.714844 8.386719 C 17.175781 8.164062 16.605469 8.03125 16.027344 7.992188 Z M 20.160156 14.667969 L 12.941406 21.886719 C 13.707031 22.921875 14.800781 23.667969 16.046875 24 C 18.488281 23.09375 19.578125 21.554688 20 19.839844 L 20 19.605469 L 22.199219 21.808594 C 22.363281 21.996094 22.621094 22.078125 22.863281 22.015625 C 23.105469 21.957031 23.296875 21.765625 23.351562 21.519531 C 23.410156 21.277344 23.324219 21.023438 23.132812 20.859375 L 20.28125 18 L 20 18 L 20 16 L 23.332031 16 C 23.703125 16 24 15.703125 24 15.332031 C 24 14.964844 23.703125 14.667969 23.332031 14.667969 Z M 20.160156 14.667969 "/>
<path fill-rule="nonzero" fill="rgb(100%, 100%, 100%)" fill-opacity="1" d="M 16 2.667969 C 8.648438 2.667969 2.667969 8.648438 2.667969 16 C 2.667969 23.351562 8.648438 29.332031 16 29.332031 C 23.351562 29.332031 29.332031 23.351562 29.332031 16 C 29.332031 8.648438 23.351562 2.667969 16 2.667969 Z M 16 4 C 19.078125 4 21.867188 5.167969 23.992188 7.066406 L 7.058594 24 C 3.894531 20.476562 3.097656 15.417969 5.03125 11.09375 C 6.964844 6.769531 11.261719 3.988281 16 4 Z M 24.933594 8.007812 C 29.246094 12.738281 29.074219 20.027344 24.546875 24.554688 C 20.019531 29.082031 12.734375 29.253906 8 24.941406 L 24.933594 8 Z M 24.933594 8.007812 "/>
</svg>
