<?xml version="1.0" encoding="UTF-8"?>
<svg xmlns="http://www.w3.org/2000/svg" xmlns:xlink="http://www.w3.org/1999/xlink" width="32" height="32" viewBox="0 0 32 32">
<path fill-rule="evenodd" fill="rgb(22.352941%, 67.45098%, 22.352941%)" fill-opacity="1" d="M 6.667969 2.667969 C 7.402344 2.667969 8 3.261719 8 4 L 8 28 C 8 28.738281 7.402344 29.332031 6.667969 29.332031 C 5.929688 29.332031 5.332031 28.738281 5.332031 28 L 5.332031 4 C 5.332031 3.261719 5.929688 2.667969 6.667969 2.667969 Z M 6.667969 2.667969 "/>
<path fill-rule="evenodd" fill="rgb(22.352941%, 67.45098%, 22.352941%)" fill-opacity="1" d="M 25.332031 2.667969 C 26.070312 2.667969 26.667969 3.261719 26.667969 4 L 26.667969 28 C 26.667969 28.738281 26.070312 29.332031 25.332031 29.332031 C 24.597656 29.332031 24 28.738281 24 28 L 24 4 C 24 3.261719 24.597656 2.667969 25.332031 2.667969 Z M 25.332031 2.667969 "/>
<path fill-rule="evenodd" fill="rgb(22.352941%, 67.45098%, 22.352941%)" fill-opacity="0.75" d="M 5.332031 9.332031 C 5.332031 8.597656 5.929688 8 6.667969 8 L 25.332031 8 C 26.070312 8 26.667969 8.597656 26.667969 9.332031 C 26.667969 10.070312 26.070312 10.667969 25.332031 10.667969 L 6.667969 10.667969 C 5.929688 10.667969 5.332031 10.070312 5.332031 9.332031 Z M 5.332031 9.332031 "/>
</svg>
