<?xml version="1.0" encoding="UTF-8"?>
<svg xmlns="http://www.w3.org/2000/svg" xmlns:xlink="http://www.w3.org/1999/xlink" width="12" height="12" viewBox="0 0 12 12" version="1.1">
<g id="surface1">
<path style=" stroke:none;fill-rule:evenodd;fill:rgb(22.352941%,67.450982%,22.352941%);fill-opacity:1;" d="M 3.582031 3.007812 C 3.820312 3.046875 4 3.253906 4 3.5 L 4 9.5 C 4 9.777344 3.777344 10 3.5 10 C 3.222656 10 3 9.777344 3 9.5 L 3 6.582031 L 1.972656 9.65625 C 1.886719 9.921875 1.605469 10.0625 1.34375 9.972656 C 1.078125 9.886719 0.9375 9.605469 1.027344 9.34375 L 3.027344 3.34375 C 3.101562 3.109375 3.339844 2.96875 3.582031 3.007812 Z M 3.582031 3.007812 "/>
<path style=" stroke:none;fill-rule:evenodd;fill:rgb(22.352941%,67.450982%,22.352941%);fill-opacity:1;" d="M 8.386719 5.011719 C 8.609375 4.960938 8.84375 5.070312 8.945312 5.277344 L 10.945312 9.277344 C 11.070312 9.523438 10.96875 9.824219 10.722656 9.945312 C 10.476562 10.070312 10.175781 9.96875 10.054688 9.722656 L 9 7.617188 L 9 9.5 C 9 9.777344 8.777344 10 8.5 10 C 8.222656 10 8 9.777344 8 9.5 L 8 5.5 C 8 5.269531 8.160156 5.066406 8.386719 5.011719 Z M 8.386719 5.011719 "/>
<path style=" stroke:none;fill-rule:evenodd;fill:rgb(22.352941%,67.450982%,22.352941%);fill-opacity:0.74902;" d="M 3.144531 3.148438 C 3.335938 2.953125 3.652344 2.949219 3.851562 3.144531 C 4.570312 3.851562 5.121094 4.308594 5.78125 4.597656 C 6.433594 4.886719 7.238281 5.027344 8.488281 5 C 8.765625 4.996094 8.996094 5.214844 9 5.488281 C 9.003906 5.765625 8.785156 5.996094 8.511719 6 C 7.179688 6.027344 6.214844 5.882812 5.375 5.515625 C 4.542969 5.148438 3.886719 4.582031 3.148438 3.855469 C 2.953125 3.664062 2.949219 3.347656 3.144531 3.148438 Z M 3.144531 3.148438 "/>
</g>
</svg>
