<?xml version="1.0" encoding="UTF-8"?>
<svg xmlns="http://www.w3.org/2000/svg" xmlns:xlink="http://www.w3.org/1999/xlink" width="12" height="12" viewBox="0 0 12 12" version="1.1">
<g id="surface1">
<path style=" stroke:none;fill-rule:nonzero;fill:rgb(100%,100%,100%);fill-opacity:1;" d="M 1 1 L 2 1 L 2 10 L 3 10 L 3 11 L 1 11 Z M 1 1 "/>
<path style=" stroke:none;fill-rule:evenodd;fill:rgb(100%,100%,100%);fill-opacity:1;" d="M 4 2 L 4 8 L 5 8 L 5 6 L 7 6 C 7.550781 6 8 5.550781 8 5 L 8 3 C 8 2.449219 7.550781 2 7 2 Z M 5 5 L 7 5 L 7 3 L 5 3 Z M 5 5 "/>
<path style=" stroke:none;fill-rule:nonzero;fill:rgb(100%,100%,100%);fill-opacity:1;" d="M 10 1 L 10 10 L 9 10 L 9 11 L 11 11 L 11 1 Z M 10 1 "/>
</g>
</svg>
