<?xml version="1.0" encoding="UTF-8" standalone="no"?>
<svg
   xmlns:dc="http://purl.org/dc/elements/1.1/"
   xmlns:cc="http://creativecommons.org/ns#"
   xmlns:rdf="http://www.w3.org/1999/02/22-rdf-syntax-ns#"
   xmlns:svg="http://www.w3.org/2000/svg"
   xmlns="http://www.w3.org/2000/svg"
   xmlns:sodipodi="http://sodipodi.sourceforge.net/DTD/sodipodi-0.dtd"
   xmlns:inkscape="http://www.inkscape.org/namespaces/inkscape"
   width="32"
   height="32"
   viewBox="0 0 580 580"
   fill="none"
   version="1.1"
   id="svg8"
   sodipodi:docname="piste_high_difficulty.svg"
   inkscape:version="0.92.5 (2060ec1f9f, 2020-04-08)">
  <metadata
     id="metadata14">
    <rdf:RDF>
      <cc:Work
         rdf:about="">
        <dc:format>image/svg+xml</dc:format>
        <dc:type
           rdf:resource="http://purl.org/dc/dcmitype/StillImage" />
      </cc:Work>
    </rdf:RDF>
  </metadata>
  <defs
     id="defs12" />
  <sodipodi:namedview
     pagecolor="#ffffff"
     bordercolor="#666666"
     borderopacity="1"
     objecttolerance="10"
     gridtolerance="10"
     guidetolerance="10"
     inkscape:pageopacity="0"
     inkscape:pageshadow="2"
     inkscape:window-width="1920"
     inkscape:window-height="1006"
     id="namedview10"
     showgrid="false"
     inkscape:zoom="0.8137931"
     inkscape:cx="212.42764"
     inkscape:cy="304.16079"
     inkscape:window-x="0"
     inkscape:window-y="0"
     inkscape:window-maximized="1"
     inkscape:current-layer="svg8" />
  <path
     d="m 287.71991,104.79612 c -6.86693,0.36753 -13.53382,2.44446 -19.39475,6.04227 -5.86165,3.59781 -10.73122,8.60256 -14.16761,14.55984 L 96.78599,397.906 c -3.618765,6.27417 -5.523583,13.39021 -5.52329,20.63302 2.93e-4,7.24354 1.905697,14.35885 5.524902,20.63302 3.619208,6.27417 8.825008,11.48591 15.094858,15.11208 6.26984,3.62616 13.38325,5.53999 20.62621,5.54805 l 314.90321,0.24033 c 7.25013,0.006 14.3735,-1.89771 20.65427,-5.51801 6.28149,-3.62104 11.49836,-8.83132 15.12746,-15.10768 3.62836,-6.27637 5.54073,-13.39755 5.54439,-20.64768 0.004,-7.2494 -1.90137,-14.37277 -5.52314,-20.6528 L 325.68291,125.39823 c -3.80934,-6.60382 -9.37205,-12.02416 -16.07265,-15.66044 -6.70061,-3.63635 -14.27679,-5.34671 -21.89035,-4.94167 z"
     id="path2"
     inkscape:connector-curvature="0"
     style="clip-rule:evenodd;fill:#000000;fill-rule:evenodd;stroke-width:0.73270673" />
  <path
     d="m 132.37077,420.60745 c -3.08096,-5.21394 0.49341,-15.27034 0.49341,-15.27034 L 279.55316,151.23955 c 0,0 6.35843,-12.47009 12.36663,-12.42752 6.00892,0.0425 12.87732,13.31189 12.87732,13.31189 l 144.94771,251.08175 c 0,0 5.4462,11.35182 2.35052,16.91307 -3.09569,5.56124 -12.00687,5.8785 -12.00687,5.8785 l -293.42984,-0.30407 c 0,0 -11.2069,0.12749 -14.28786,-5.08572 z"
     id="path4"
     inkscape:connector-curvature="0"
     style="fill:#fff200;stroke-width:0.73270673" />
  <path
     d="m 313.93249,239.61936 c -7.3e-4,0.86387 -0.36562,5.18464 -1.09612,12.96085 l -9.41529,98.76374 h -26.84197 l -9.41455,-99.02311 c 0,-1.20897 -0.24399,-3.1968 -0.73124,-5.96204 -0.24326,-2.93742 -0.36489,-5.1839 -0.36489,-6.73944 0,-6.04849 1.94826,-11.4925 5.84553,-16.3313 3.89727,-5.01098 9.98679,-7.51683 18.26931,-7.51757 15.83233,7.4e-4 23.74849,7.94987 23.74922,23.84887 z m -11.10124,130.64748 c 3.6291,3.62909 5.44328,7.94986 5.44402,12.96158 -7.4e-4,5.01171 -1.81492,9.24529 -5.44402,12.70147 -3.62909,3.28399 -7.94913,4.92525 -12.96084,4.92525 -4.49296,0 -8.64008,-1.72772 -12.4421,-5.18463 -3.62909,-3.6291 -5.44328,-7.77622 -5.44328,-12.44209 0,-5.01172 1.72773,-9.33249 5.1839,-12.96158 3.45618,-3.80129 7.77695,-5.70266 12.96085,-5.70266 5.01172,0 9.2453,1.90137 12.70147,5.70266"
     id="path6"
     inkscape:connector-curvature="0"
     style="fill:#000000;stroke-width:0.73270673" />
</svg>
