<?xml version="1.0" encoding="UTF-8"?>
<svg xmlns="http://www.w3.org/2000/svg" xmlns:xlink="http://www.w3.org/1999/xlink" width="32" height="32" viewBox="0 0 32 32">
<defs>
<filter id="filter-remove-color" x="0%" y="0%" width="100%" height="100%">
<feColorMatrix color-interpolation-filters="sRGB" values="0 0 0 0 1 0 0 0 0 1 0 0 0 0 1 0 0 0 1 0" />
</filter>
<mask id="mask-0">
<g filter="url(#filter-remove-color)">
<rect x="-3.2" y="-3.2" width="38.4" height="38.4" fill="rgb(0%, 0%, 0%)" fill-opacity="0.7"/>
</g>
</mask>
<clipPath id="clip-0">
<rect x="0" y="0" width="32" height="32"/>
</clipPath>
<g id="source-7" clip-path="url(#clip-0)">
<path fill-rule="evenodd" fill="rgb(24.705882%, 24.705882%, 24.705882%)" fill-opacity="1" d="M 29.332031 10.667969 L 18.667969 10.667969 L 18.667969 13.332031 L 21.332031 13.332031 L 21.332031 16 L 18.667969 16 L 18.667969 18.667969 L 21.332031 18.667969 L 21.332031 21.332031 L 18.667969 21.332031 L 18.667969 24 L 21.332031 24 L 21.332031 26.667969 L 18.667969 26.667969 L 18.667969 29.332031 L 29.332031 29.332031 Z M 26.667969 13.332031 L 24 13.332031 L 24 16 L 26.667969 16 Z M 26.667969 18.667969 L 24 18.667969 L 24 21.332031 L 26.667969 21.332031 Z M 26.667969 24 L 24 24 L 24 26.667969 L 26.667969 26.667969 Z M 26.667969 24 "/>
</g>
<mask id="mask-1">
<g filter="url(#filter-remove-color)">
<rect x="-3.2" y="-3.2" width="38.4" height="38.4" fill="rgb(0%, 0%, 0%)" fill-opacity="0.5"/>
</g>
</mask>
<clipPath id="clip-1">
<rect x="0" y="0" width="32" height="32"/>
</clipPath>
<g id="source-11" clip-path="url(#clip-1)">
<path fill-rule="nonzero" fill="rgb(24.705882%, 24.705882%, 24.705882%)" fill-opacity="1" d="M 13.332031 26.667969 L 16 26.667969 L 16 29.332031 L 13.332031 29.332031 Z M 13.332031 26.667969 "/>
</g>
</defs>
<path fill-rule="evenodd" fill="rgb(24.705882%, 24.705882%, 24.705882%)" fill-opacity="1" d="M 1.332031 2.667969 L 1.332031 5.332031 L 2.667969 5.332031 L 2.667969 29.332031 L 13.332031 29.332031 L 13.332031 26.667969 L 16 26.667969 L 16 29.332031 L 18.667969 29.332031 L 18.667969 5.332031 L 20 5.332031 L 20 2.667969 Z M 5.332031 5.332031 L 8 5.332031 L 8 8 L 5.332031 8 Z M 16 5.332031 L 10.667969 5.332031 L 10.667969 8 L 16 8 Z M 16 16 L 10.667969 16 L 10.667969 18.667969 L 16 18.667969 Z M 8 16 L 5.332031 16 L 5.332031 18.667969 L 8 18.667969 Z M 5.332031 10.667969 L 8 10.667969 L 8 13.332031 L 5.332031 13.332031 Z M 8 21.332031 L 5.332031 21.332031 L 5.332031 24 L 8 24 Z M 16 10.667969 L 10.667969 10.667969 L 10.667969 13.332031 L 16 13.332031 Z M 10.667969 21.332031 L 16 21.332031 L 16 24 L 10.667969 24 Z M 10.667969 21.332031 "/>
<g mask="url(#mask-0)">
<use xlink:href="#source-7"/>
</g>
<g mask="url(#mask-1)">
<use xlink:href="#source-11"/>
</g>
</svg>
