<?xml version="1.0" encoding="UTF-8"?>
<svg xmlns="http://www.w3.org/2000/svg" xmlns:xlink="http://www.w3.org/1999/xlink" width="32" height="32" viewBox="0 0 32 32">
<defs>
<filter id="filter-remove-color" x="0%" y="0%" width="100%" height="100%">
<feColorMatrix color-interpolation-filters="sRGB" values="0 0 0 0 1 0 0 0 0 1 0 0 0 0 1 0 0 0 1 0" />
</filter>
<mask id="mask-0">
<g filter="url(#filter-remove-color)">
<rect x="-3.2" y="-3.2" width="38.4" height="38.4" fill="rgb(0%, 0%, 0%)" fill-opacity="0.804"/>
</g>
</mask>
<clipPath id="clip-0">
<rect x="0" y="0" width="32" height="32"/>
</clipPath>
<g id="source-9" clip-path="url(#clip-0)">
<path fill-rule="nonzero" fill="rgb(100%, 100%, 100%)" fill-opacity="1" d="M 17.921875 5.734375 L 16.894531 5.277344 L 15.4375 8.554688 L 16.464844 9.011719 Z M 17.921875 5.734375 "/>
</g>
<mask id="mask-1">
<g filter="url(#filter-remove-color)">
<rect x="-3.2" y="-3.2" width="38.4" height="38.4" fill="rgb(0%, 0%, 0%)" fill-opacity="0.824"/>
</g>
</mask>
<clipPath id="clip-1">
<rect x="0" y="0" width="32" height="32"/>
</clipPath>
<g id="source-14" clip-path="url(#clip-1)">
<path fill-rule="nonzero" fill="rgb(100%, 100%, 100%)" fill-opacity="1" d="M 28.175781 15.460938 L 16.527344 15.460938 L 16.527344 21.273438 L 28.175781 21.273438 Z M 28.175781 15.460938 "/>
</g>
<mask id="mask-2">
<g filter="url(#filter-remove-color)">
<rect x="-3.2" y="-3.2" width="38.4" height="38.4" fill="rgb(0%, 0%, 0%)" fill-opacity="0.804"/>
</g>
</mask>
<clipPath id="clip-2">
<rect x="0" y="0" width="32" height="32"/>
</clipPath>
<g id="source-18" clip-path="url(#clip-2)">
<path fill-rule="nonzero" fill="rgb(100%, 100%, 100%)" fill-opacity="1" d="M 23.046875 5.601562 L 21.910156 5.605469 L 21.929688 9.113281 L 23.066406 9.109375 Z M 23.046875 5.601562 "/>
</g>
<mask id="mask-3">
<g filter="url(#filter-remove-color)">
<rect x="-3.2" y="-3.2" width="38.4" height="38.4" fill="rgb(0%, 0%, 0%)" fill-opacity="0.804"/>
</g>
</mask>
<clipPath id="clip-3">
<rect x="0" y="0" width="32" height="32"/>
</clipPath>
<g id="source-23" clip-path="url(#clip-3)">
<path fill-rule="nonzero" fill="rgb(100%, 100%, 100%)" fill-opacity="1" d="M 27.015625 5.703125 L 28.027344 5.25 L 29.476562 8.503906 L 28.460938 8.957031 Z M 27.015625 5.703125 "/>
</g>
</defs>
<path fill-rule="nonzero" fill="rgb(100%, 100%, 100%)" fill-opacity="1" d="M 7.90625 17.019531 C 7.070312 17.019531 6.351562 17.527344 6.042969 18.253906 L 5.882812 20.203125 L 5.882812 22.339844 C 5.882812 22.601562 5.933594 22.847656 6.023438 23.078125 L 1.65625 23.078125 L 1.65625 30.269531 L 3.023438 30.269531 L 3.023438 25.144531 L 17.042969 25.144531 L 17.042969 30.269531 L 18.410156 30.269531 L 18.410156 23.078125 L 14.042969 23.078125 C 14.132812 22.847656 14.183594 22.601562 14.183594 22.339844 L 14.183594 20.203125 L 14.023438 18.253906 C 13.714844 17.527344 12.996094 17.019531 12.160156 17.019531 Z M 7.480469 19.734375 L 7.957031 19.734375 L 7.957031 23.078125 L 7.480469 23.078125 Z M 12.109375 19.734375 L 12.585938 19.734375 L 12.585938 23.078125 L 12.109375 23.078125 Z M 12.109375 19.734375 "/>
<path fill-rule="nonzero" fill="rgb(100%, 100%, 100%)" fill-opacity="1" d="M 10.035156 11.214844 C 8.667969 11.214844 7.558594 12.320312 7.558594 13.6875 C 7.558594 15.054688 8.667969 16.160156 10.035156 16.160156 C 11.398438 16.160156 12.507812 15.054688 12.507812 13.6875 C 12.507812 12.320312 11.398438 11.214844 10.035156 11.214844 Z M 10.035156 11.214844 "/>
<path fill-rule="nonzero" fill="rgb(100%, 100%, 100%)" fill-opacity="1" d="M 14.023438 8.332031 L 14.023438 10.390625 L 16.578125 15.492188 L 28.148438 15.492188 L 30.699219 10.390625 L 30.699219 8.332031 Z M 14.023438 8.332031 "/>
<g mask="url(#mask-0)">
<use xlink:href="#source-9"/>
</g>
<path fill-rule="nonzero" fill="rgb(100%, 100%, 100%)" fill-opacity="1" d="M 17.222656 5.929688 C 17.980469 6.265625 19.015625 5.597656 19.53125 4.433594 C 20.050781 3.273438 19.851562 2.058594 19.09375 1.71875 C 18.335938 1.382812 17.300781 2.050781 16.785156 3.214844 C 16.269531 4.375 16.464844 5.589844 17.222656 5.929688 Z M 17.222656 5.929688 "/>
<g mask="url(#mask-1)">
<use xlink:href="#source-14"/>
</g>
<g mask="url(#mask-2)">
<use xlink:href="#source-18"/>
</g>
<path fill-rule="nonzero" fill="rgb(100%, 100%, 100%)" fill-opacity="1" d="M 22.449219 6.070312 C 23.277344 6.066406 23.945312 5.03125 23.941406 3.757812 C 23.9375 2.488281 23.257812 1.460938 22.429688 1.464844 C 21.597656 1.464844 20.929688 2.5 20.933594 3.773438 C 20.941406 5.042969 21.617188 6.070312 22.449219 6.070312 Z M 22.449219 6.070312 "/>
<g mask="url(#mask-3)">
<use xlink:href="#source-23"/>
</g>
<path fill-rule="nonzero" fill="rgb(100%, 100%, 100%)" fill-opacity="1" d="M 27.644531 5.929688 C 26.886719 6.265625 25.851562 5.597656 25.335938 4.433594 C 24.820312 3.273438 25.015625 2.058594 25.773438 1.71875 C 26.535156 1.382812 27.566406 2.050781 28.082031 3.214844 C 28.601562 4.375 28.402344 5.589844 27.644531 5.929688 Z M 27.644531 5.929688 "/>
</svg>
