<?xml version="1.0" encoding="UTF-8"?>
<svg xmlns="http://www.w3.org/2000/svg" xmlns:xlink="http://www.w3.org/1999/xlink" width="12" height="12" viewBox="0 0 12 12" version="1.1">
<defs>
<filter id="alpha" filterUnits="objectBoundingBox" x="0%" y="0%" width="100%" height="100%">
  <feColorMatrix type="matrix" in="SourceGraphic" values="0 0 0 0 1 0 0 0 0 1 0 0 0 0 1 0 0 0 1 0"/>
</filter>
<mask id="mask0">
  <g filter="url(#alpha)">
<rect x="0" y="0" width="12" height="12" style="fill:rgb(0%,0%,0%);fill-opacity:0.5;stroke:none;"/>
  </g>
</mask>
<clipPath id="clip1">
  <rect x="0" y="0" width="12" height="12"/>
</clipPath>
<g id="surface5" clip-path="url(#clip1)">
<path style=" stroke:none;fill-rule:nonzero;fill:rgb(100%,100%,100%);fill-opacity:1;" d="M 8 2 L 11 2 L 11 3 L 8 3 Z M 8 2 "/>
<path style=" stroke:none;fill-rule:nonzero;fill:rgb(100%,100%,100%);fill-opacity:1;" d="M 8 4 L 10 4 L 10 5 L 8 5 Z M 8 4 "/>
<path style=" stroke:none;fill-rule:nonzero;fill:rgb(100%,100%,100%);fill-opacity:1;" d="M 10 6 L 9 6 L 9 10 L 8.5 10 C 8.222656 10 8 10.222656 8 10.5 C 8 10.777344 8.222656 11 8.5 11 L 10.5 11 C 10.777344 11 11 10.777344 11 10.5 C 11 10.222656 10.777344 10 10.5 10 L 10 10 Z M 10 6 "/>
</g>
</defs>
<g id="surface1">
<path style=" stroke:none;fill-rule:evenodd;fill:rgb(100%,100%,100%);fill-opacity:1;" d="M 7 2 C 7 1.449219 7.449219 1 8 1 L 11 1 C 11.550781 1 12 1.449219 12 2 L 12 6 C 12 6.550781 11.550781 7 11 7 L 8 7 C 7.449219 7 7 6.550781 7 6 Z M 11 2 L 8 2 L 8 3 L 11 3 Z M 10 4 L 8 4 L 8 5 L 10 5 Z M 10 4 "/>
<path style=" stroke:none;fill-rule:evenodd;fill:rgb(100%,100%,100%);fill-opacity:1;" d="M 0.5 3.5 C 0.820312 3.179688 1.253906 3 1.707031 3 L 4.292969 3 C 4.746094 3 5.179688 3.179688 5.5 3.5 C 5.820312 3.820312 6 4.253906 6 4.707031 L 6 9 C 6 9.371094 5.800781 9.691406 5.5 9.867188 L 5.5 10.25 C 5.5 10.664062 5.164062 11 4.75 11 C 4.335938 11 4 10.664062 4 10.25 L 4 10 L 2 10 L 2 10.25 C 2 10.664062 1.664062 11 1.25 11 C 0.835938 11 0.5 10.664062 0.5 10.25 L 0.5 9.867188 C 0.199219 9.691406 0 9.371094 0 9 L 0 4.707031 C 0 4.253906 0.179688 3.820312 0.5 3.5 Z M 1 5 L 5 5 L 5 7 L 1 7 Z M 2 8.5 C 2 8.777344 1.777344 9 1.5 9 C 1.222656 9 1 8.777344 1 8.5 C 1 8.222656 1.222656 8 1.5 8 C 1.777344 8 2 8.222656 2 8.5 Z M 4.5 9 C 4.777344 9 5 8.777344 5 8.5 C 5 8.222656 4.777344 8 4.5 8 C 4.222656 8 4 8.222656 4 8.5 C 4 8.777344 4.222656 9 4.5 9 Z M 4.5 9 "/>
<use xlink:href="#surface5" mask="url(#mask0)"/>
</g>
</svg>
