<?xml version="1.0" encoding="UTF-8"?>
<svg xmlns="http://www.w3.org/2000/svg" xmlns:xlink="http://www.w3.org/1999/xlink" width="12" height="12" viewBox="0 0 12 12" version="1.1">
<defs>
<filter id="alpha" filterUnits="objectBoundingBox" x="0%" y="0%" width="100%" height="100%">
  <feColorMatrix type="matrix" in="SourceGraphic" values="0 0 0 0 1 0 0 0 0 1 0 0 0 0 1 0 0 0 1 0"/>
</filter>
<mask id="mask0">
  <g filter="url(#alpha)">
<rect x="0" y="0" width="12" height="12" style="fill:rgb(0%,0%,0%);fill-opacity:0.5;stroke:none;"/>
  </g>
</mask>
<clipPath id="clip1">
  <rect x="0" y="0" width="12" height="12"/>
</clipPath>
<g id="surface5" clip-path="url(#clip1)">
<path style=" stroke:none;fill-rule:nonzero;fill:rgb(100%,100%,100%);fill-opacity:1;" d="M 4.65625 1.023438 C 4.785156 1.066406 4.886719 1.15625 4.949219 1.277344 C 5.007812 1.394531 5.015625 1.53125 4.976562 1.65625 L 4.859375 2 L 3.808594 2 L 4.023438 1.34375 C 4.066406 1.214844 4.15625 1.113281 4.277344 1.050781 C 4.394531 0.992188 4.53125 0.984375 4.65625 1.023438 Z M 4.65625 1.023438 "/>
<path style=" stroke:none;fill-rule:nonzero;fill:rgb(100%,100%,100%);fill-opacity:1;" d="M 1.515625 8.875 L 1.023438 10.34375 C 0.9375 10.605469 1.082031 10.886719 1.34375 10.976562 C 1.605469 11.0625 1.886719 10.917969 1.976562 10.65625 L 2.523438 9 L 2 9 C 1.824219 9 1.65625 8.953125 1.515625 8.875 Z M 1.515625 8.875 "/>
<path style=" stroke:none;fill-rule:nonzero;fill:rgb(100%,100%,100%);fill-opacity:1;" d="M 9.476562 9 L 10.023438 10.65625 C 10.113281 10.917969 10.394531 11.0625 10.65625 10.976562 C 10.917969 10.886719 11.0625 10.605469 10.976562 10.34375 L 10.484375 8.875 C 10.34375 8.953125 10.175781 9 10 9 Z M 9.476562 9 "/>
<path style=" stroke:none;fill-rule:nonzero;fill:rgb(100%,100%,100%);fill-opacity:1;" d="M 8.191406 2 L 7.976562 1.34375 C 7.886719 1.082031 7.605469 0.9375 7.34375 1.023438 C 7.082031 1.113281 6.9375 1.394531 7.023438 1.65625 L 7.140625 2 Z M 8.191406 2 "/>
</g>
</defs>
<g id="surface1">
<path style=" stroke:none;fill-rule:evenodd;fill:rgb(100%,100%,100%);fill-opacity:1;" d="M 2 2 C 1.449219 2 1 2.449219 1 3 L 1 8 C 1 8.550781 1.449219 9 2 9 L 10 9 C 10.550781 9 11 8.550781 11 8 L 11 3 C 11 2.449219 10.550781 2 10 2 Z M 6 6 L 6 8 L 5 8 L 5 3 L 6.5 3 C 7.328125 3 8 3.5 8 4.5 C 8 5.5 7.5 6 6 6 Z M 6 6 "/>
<use xlink:href="#surface5" mask="url(#mask0)"/>
<path style=" stroke:none;fill-rule:nonzero;fill:rgb(100%,100%,100%);fill-opacity:1;" d="M 4.398438 6 L 4 4.667969 L 3.601562 6 Z M 4.398438 6 "/>
<path style=" stroke:none;fill-rule:nonzero;fill:rgb(100%,100%,100%);fill-opacity:1;" d="M 6 5 L 6 4 L 6.5 4 C 6.777344 4 7 4.222656 7 4.5 C 7 4.777344 6.777344 5 6.5 5 Z M 6 5 "/>
</g>
</svg>
