<?xml version="1.0" encoding="UTF-8"?>
<svg xmlns="http://www.w3.org/2000/svg" xmlns:xlink="http://www.w3.org/1999/xlink" width="12" height="12" viewBox="0 0 12 12">
<defs>
<filter id="filter-remove-color" x="0%" y="0%" width="100%" height="100%">
<feColorMatrix color-interpolation-filters="sRGB" values="0 0 0 0 1 0 0 0 0 1 0 0 0 0 1 0 0 0 1 0" />
</filter>
<mask id="mask-0">
<g filter="url(#filter-remove-color)">
<rect x="-1.2" y="-1.2" width="14.4" height="14.4" fill="rgb(0%, 0%, 0%)" fill-opacity="0.75"/>
</g>
</mask>
<clipPath id="clip-0">
<rect x="0" y="0" width="12" height="12"/>
</clipPath>
<g id="source-10" clip-path="url(#clip-0)">
<path fill-rule="evenodd" fill="rgb(100%, 100%, 100%)" fill-opacity="1" stroke-width="10.23" stroke-linecap="round" stroke-linejoin="round" stroke="rgb(100%, 100%, 100%)" stroke-opacity="1" stroke-miterlimit="4" d="M 542.428385 206.360677 L 414.420573 281.315104 L 414.231771 283.391927 L 542.239583 208.4375 Z M 542.428385 206.360677 " transform="matrix(0.0206897, 0, 0, 0.0206897, 0, 0)"/>
</g>
<mask id="mask-1">
<g filter="url(#filter-remove-color)">
<rect x="-1.2" y="-1.2" width="14.4" height="14.4" fill="rgb(0%, 0%, 0%)" fill-opacity="0.75"/>
</g>
</mask>
<clipPath id="clip-1">
<rect x="0" y="0" width="12" height="12"/>
</clipPath>
<g id="source-14" clip-path="url(#clip-1)">
<path fill-rule="evenodd" fill="rgb(100%, 100%, 100%)" fill-opacity="1" stroke-width="10.23" stroke-linecap="round" stroke-linejoin="round" stroke="rgb(100%, 100%, 100%)" stroke-opacity="1" stroke-miterlimit="4" d="M 542.428385 231.282552 L 414.420573 306.236979 L 414.231771 308.125 L 542.239583 233.170573 Z M 542.428385 231.282552 " transform="matrix(0.0206897, 0, 0, 0.0206897, 0, 0)"/>
</g>
<mask id="mask-2">
<g filter="url(#filter-remove-color)">
<rect x="-1.2" y="-1.2" width="14.4" height="14.4" fill="rgb(0%, 0%, 0%)" fill-opacity="0.75"/>
</g>
</mask>
<clipPath id="clip-2">
<rect x="0" y="0" width="12" height="12"/>
</clipPath>
<g id="source-18" clip-path="url(#clip-2)">
<path fill-rule="evenodd" fill="rgb(100%, 100%, 100%)" fill-opacity="1" stroke-width="10.23" stroke-linecap="round" stroke-linejoin="round" stroke="rgb(100%, 100%, 100%)" stroke-opacity="1" stroke-miterlimit="4" d="M 542.428385 256.015625 L 414.420573 330.970052 L 414.231771 333.046875 L 542.239583 258.092448 Z M 542.428385 256.015625 " transform="matrix(0.0206897, 0, 0, 0.0206897, 0, 0)"/>
</g>
</defs>
<path fill-rule="nonzero" fill="rgb(100%, 100%, 100%)" fill-opacity="1" d="M 2.964844 6.382812 C 2.652344 6.382812 2.382812 6.574219 2.265625 6.84375 L 2.207031 7.574219 L 2.207031 8.378906 C 2.207031 8.476562 2.226562 8.566406 2.257812 8.652344 L 0.621094 8.652344 L 0.621094 11.351562 L 1.132812 11.351562 L 1.132812 9.429688 L 6.390625 9.429688 L 6.390625 11.351562 L 6.902344 11.351562 L 6.902344 8.652344 L 5.265625 8.652344 C 5.300781 8.566406 5.320312 8.476562 5.320312 8.378906 L 5.320312 7.574219 L 5.257812 6.84375 C 5.144531 6.574219 4.875 6.382812 4.558594 6.382812 Z M 2.804688 7.398438 L 2.984375 7.398438 L 2.984375 8.652344 L 2.804688 8.652344 Z M 4.539062 7.398438 L 4.71875 7.398438 L 4.71875 8.652344 L 4.539062 8.652344 Z M 4.539062 7.398438 "/>
<path fill-rule="nonzero" fill="rgb(100%, 100%, 100%)" fill-opacity="1" d="M 3.761719 4.203125 C 3.25 4.203125 2.835938 4.621094 2.835938 5.132812 C 2.835938 5.644531 3.25 6.058594 3.761719 6.058594 C 4.273438 6.058594 4.691406 5.644531 4.691406 5.132812 C 4.691406 4.621094 4.273438 4.203125 3.761719 4.203125 Z M 3.761719 4.203125 "/>
<path fill-rule="evenodd" fill="rgb(100%, 100%, 100%)" fill-opacity="1" stroke-width="6.20854" stroke-linecap="round" stroke-linejoin="round" stroke="rgb(100%, 100%, 100%)" stroke-opacity="1" stroke-miterlimit="4" d="M 265.833333 102.519531 L 407.623698 263.567708 L 543.561198 185.403646 L 405.169271 25.488281 Z M 265.833333 102.519531 " transform="matrix(0.0206897, 0, 0, 0.0206897, 0, 0)"/>
<path fill-rule="evenodd" fill="rgb(100%, 100%, 100%)" fill-opacity="1" stroke-width="6.20854" stroke-linecap="round" stroke-linejoin="round" stroke="rgb(100%, 100%, 100%)" stroke-opacity="1" stroke-miterlimit="4" d="M 258.092448 120.266927 L 397.617188 279.049479 L 398.183594 339.088542 L 257.526042 180.117188 Z M 258.092448 120.266927 " transform="matrix(0.0206897, 0, 0, 0.0206897, 0, 0)"/>
<g mask="url(#mask-0)">
<use xlink:href="#source-10"/>
</g>
<g mask="url(#mask-1)">
<use xlink:href="#source-14"/>
</g>
<g mask="url(#mask-2)">
<use xlink:href="#source-18"/>
</g>
</svg>
