<?xml version="1.0" encoding="UTF-8"?>
<svg xmlns="http://www.w3.org/2000/svg" xmlns:xlink="http://www.w3.org/1999/xlink" width="32" height="32" viewBox="0 0 32 32">
<path fill-rule="nonzero" fill="rgb(24.705882%, 24.705882%, 24.705882%)" fill-opacity="1" d="M 2.464844 9.417969 L 6.253906 9.417969 C 7.382812 9.417969 8.246094 9.789062 8.847656 10.539062 C 9.453125 11.277344 9.753906 12.335938 9.753906 13.710938 C 9.753906 15.09375 9.453125 16.15625 8.847656 16.902344 C 8.246094 17.644531 7.382812 18.015625 6.253906 18.015625 L 4.75 18.015625 L 4.75 22.582031 L 2.464844 22.582031 Z M 4.75 11.878906 L 4.75 15.554688 L 6.011719 15.554688 C 6.457031 15.554688 6.796875 15.394531 7.039062 15.078125 C 7.28125 14.753906 7.398438 14.300781 7.398438 13.710938 C 7.398438 13.125 7.28125 12.671875 7.039062 12.355469 C 6.796875 12.035156 6.457031 11.878906 6.011719 11.878906 Z M 4.75 11.878906 "/>
<path fill-rule="nonzero" fill="rgb(24.705882%, 24.705882%, 24.705882%)" fill-opacity="1" d="M 16.164062 12.152344 L 16.164062 15.800781 L 19.792969 15.800781 L 19.792969 17.441406 L 16.164062 17.441406 L 16.164062 21.085938 L 14.507812 21.085938 L 14.507812 17.441406 L 10.875 17.441406 L 10.875 15.800781 L 14.507812 15.800781 L 14.507812 12.152344 Z M 16.164062 12.152344 "/>
<path fill-rule="nonzero" fill="rgb(24.705882%, 24.705882%, 24.705882%)" fill-opacity="1" d="M 24.785156 15.253906 C 25.261719 15.253906 25.605469 15.121094 25.808594 14.859375 C 26.019531 14.59375 26.125 14.160156 26.125 13.554688 C 26.125 12.953125 26.019531 12.523438 25.808594 12.265625 C 25.605469 12.007812 25.261719 11.878906 24.785156 11.878906 L 23.824219 11.878906 L 23.824219 15.253906 Z M 23.824219 17.601562 L 23.824219 22.582031 L 21.539062 22.582031 L 21.539062 9.417969 L 25.027344 9.417969 C 26.191406 9.417969 27.046875 9.707031 27.589844 10.289062 C 28.132812 10.871094 28.40625 11.792969 28.40625 13.050781 C 28.40625 13.921875 28.265625 14.632812 27.980469 15.191406 C 27.699219 15.75 27.273438 16.164062 26.703125 16.425781 C 27.015625 16.535156 27.296875 16.773438 27.542969 17.152344 C 27.789062 17.519531 28.042969 18.085938 28.292969 18.84375 L 29.535156 22.582031 L 27.101562 22.582031 L 26.023438 19.3125 C 25.804688 18.652344 25.585938 18.203125 25.359375 17.960938 C 25.136719 17.722656 24.839844 17.601562 24.46875 17.601562 Z M 23.824219 17.601562 "/>
</svg>
