<?xml version="1.0" encoding="UTF-8"?>
<svg xmlns="http://www.w3.org/2000/svg" xmlns:xlink="http://www.w3.org/1999/xlink" width="12" height="12" viewBox="0 0 12 12" version="1.1">
<g id="surface1">
<path style=" stroke:none;fill-rule:evenodd;fill:rgb(24.705882%,24.705882%,24.705882%);fill-opacity:1;" d="M 2.753906 1.222656 L 1.253906 10.710938 C 1.230469 10.847656 1.324219 10.976562 1.460938 10.996094 C 1.597656 11.019531 1.726562 10.925781 1.746094 10.789062 L 2.03125 9 L 3.96875 9 L 4.253906 10.808594 C 4.273438 10.945312 4.402344 11.039062 4.539062 11.015625 C 4.675781 10.996094 4.769531 10.867188 4.746094 10.730469 L 3.449219 2.5 L 4.5 2.5 L 4.5 3.257812 C 4.5 3.347656 4.546875 3.429688 4.625 3.476562 C 4.703125 3.523438 4.796875 3.523438 4.875 3.476562 C 4.953125 3.429688 5 3.347656 5 3.257812 L 5 2.5 L 7 2.5 L 7 3.246094 C 7 3.335938 7.046875 3.421875 7.125 3.46875 C 7.203125 3.511719 7.296875 3.511719 7.375 3.46875 C 7.453125 3.421875 7.5 3.335938 7.5 3.246094 L 7.5 2.5 L 8.550781 2.5 L 7.253906 10.710938 C 7.230469 10.847656 7.324219 10.976562 7.460938 10.996094 C 7.597656 11.019531 7.726562 10.925781 7.746094 10.789062 L 8.03125 9 L 9.96875 9 L 10.253906 10.808594 C 10.273438 10.945312 10.402344 11.039062 10.539062 11.015625 C 10.675781 10.996094 10.769531 10.867188 10.746094 10.730469 L 9.246094 1.222656 L 8.753906 1.222656 L 8.628906 2 L 3.371094 2 L 3.246094 1.222656 Z M 3 2.863281 L 3.496094 6.019531 L 2.5 6.019531 Z M 9 2.863281 L 9.488281 5.96875 L 8.507812 5.96875 Z M 8.429688 6.46875 L 9.566406 6.46875 L 9.890625 8.5 L 8.109375 8.5 Z M 2.421875 6.519531 L 3.578125 6.519531 L 3.890625 8.5 L 2.109375 8.5 Z M 2.421875 6.519531 "/>
</g>
</svg>
