<svg width="12" height="12" viewBox="0 0 48 48" fill="none" xmlns="http://www.w3.org/2000/svg">
<path fill-rule="evenodd" clip-rule="evenodd" d="M14.3204 12.026C15.2887 12.1831 16.0001 13.0193 16.0001 14.0002V38.0002C16.0001 39.1047 15.1046 40.0002 14.0001 40.0002C12.8955 40.0002 12.0001 39.1047 12.0001 38.0002V26.3247L7.89742 38.6326C7.54813 39.6805 6.41549 40.2468 5.3676 39.8975C4.31971 39.5483 3.75339 38.4156 4.10269 37.3677L12.1027 13.3677C12.4129 12.4372 13.3522 11.8689 14.3204 12.026Z" fill="#39AC39"/>
<path fill-rule="evenodd" clip-rule="evenodd" d="M33.5405 20.0537C34.4432 19.8406 35.374 20.2761 35.7889 21.1058L43.7889 37.1058C44.2828 38.0937 43.8824 39.2951 42.8944 39.789C41.9065 40.283 40.7051 39.8826 40.2111 38.8946L36 30.4723V38.0002C36 39.1048 35.1046 40.0002 34 40.0002C32.8954 40.0002 32 39.1048 32 38.0002V22.0002C32 21.0726 32.6378 20.2668 33.5405 20.0537Z" fill="#39AC39"/>
<path fill-rule="evenodd" clip-rule="evenodd" d="M12.574 12.5977C13.3485 11.8101 14.6148 11.7995 15.4023 12.574C18.2824 15.4062 20.486 17.2406 23.1172 18.397C25.7316 19.546 28.9525 20.1024 33.9593 20.0004C35.0636 19.9779 35.9771 20.8549 35.9996 21.9593C36.0221 23.0636 35.1451 23.9771 34.0407 23.9996C28.7197 24.108 24.8544 23.5298 21.5078 22.0589C18.1778 20.5954 15.5453 18.3247 12.5977 15.426C11.8101 14.6515 11.7995 13.3853 12.574 12.5977Z" fill="#39AC39" fill-opacity="0.75"/>
</svg>
