<?xml version="1.0" encoding="UTF-8"?>
<svg xmlns="http://www.w3.org/2000/svg" xmlns:xlink="http://www.w3.org/1999/xlink" width="32" height="32" viewBox="0 0 32 32">
<path fill-rule="nonzero" fill="rgb(100%, 100%, 100%)" fill-opacity="1" d="M 13.757812 8.855469 C 13.273438 9.324219 12.695312 9.683594 12.058594 9.90625 C 11.46875 10.109375 10.84375 10.195312 10.21875 10.152344 L 10.15625 10.773438 L 18.269531 13.476562 Z M 9.863281 13.585938 L 9.523438 16.855469 L 26.878906 22.632812 L 27.125 22.546875 L 22.476562 17.785156 Z M 9.234375 19.664062 L 8.886719 23 L 17.566406 25.890625 L 22.621094 24.121094 Z M 8.597656 25.808594 L 8.25 29.148438 L 13.308594 27.378906 Z M 8.597656 25.808594 "/>
<path fill-rule="nonzero" fill="rgb(100%, 100%, 100%)" fill-opacity="1" d="M 11.484375 8.007812 C 12.867188 7.527344 13.601562 6.015625 13.117188 4.632812 C 12.636719 3.25 11.128906 2.519531 9.746094 3 C 8.363281 3.480469 7.628906 4.988281 8.109375 6.371094 C 8.59375 7.753906 10.101562 8.488281 11.484375 8.007812 Z M 11.484375 8.007812 "/>
</svg>
