<?xml version="1.0" encoding="UTF-8"?>
<svg xmlns="http://www.w3.org/2000/svg" xmlns:xlink="http://www.w3.org/1999/xlink" width="12" height="12" viewBox="0 0 12 12" version="1.1">
<g id="surface1">
<path style="fill:none;stroke-width:40.599998;stroke-linecap:butt;stroke-linejoin:miter;stroke:rgb(24.705882%,24.705882%,24.705882%);stroke-opacity:1;stroke-miterlimit:4;" d="M 37.005208 208.248698 C 543.183594 208.248698 546.015625 208.248698 546.015625 208.248698 " transform="matrix(0.0206897,0,0,0.0206897,0,0)"/>
<path style=" stroke:none;fill-rule:evenodd;fill:rgb(24.705882%,24.705882%,24.705882%);fill-opacity:1;" d="M 1.347656 4.464844 L 1.347656 10.070312 C 1.582031 9.945312 1.828125 9.820312 2.089844 9.691406 C 2.148438 9.660156 2.207031 9.632812 2.265625 9.605469 L 2.265625 4.464844 Z M 4.144531 4.464844 L 4.144531 8.753906 C 4.445312 8.628906 4.75 8.507812 5.066406 8.390625 L 5.066406 4.464844 Z M 6.945312 4.464844 L 6.945312 7.777344 C 7.25 7.695312 7.554688 7.621094 7.863281 7.550781 L 7.863281 4.464844 Z M 9.746094 4.464844 L 9.746094 7.230469 C 10.070312 7.183594 10.378906 7.140625 10.664062 7.101562 L 10.664062 4.464844 Z M 9.746094 4.464844 "/>
</g>
</svg>
