<?xml version="1.0" encoding="UTF-8"?>
<svg xmlns="http://www.w3.org/2000/svg" xmlns:xlink="http://www.w3.org/1999/xlink" width="12" height="12" viewBox="0 0 12 12" version="1.1">
<g id="surface1">
<path style=" stroke:none;fill-rule:nonzero;fill:rgb(42.745098%,72.941178%,0%);fill-opacity:1;" d="M 2 5 L 3.5 1 L 5 5 L 4.300781 5 L 5.5 7 L 4.5 7 L 6 9 L 4 9 L 4 11 L 3 11 L 3 9 L 1 9 L 2.5 7 L 1.5 7 L 2.699219 5 Z M 2 5 "/>
<path style=" stroke:none;fill-rule:nonzero;fill:rgb(42.745098%,72.941178%,0%);fill-opacity:1;" d="M 8.5 10 L 9.5 10 L 9.5 11 L 10.5 11 L 10.5 10 L 11 10 L 11 9 L 7 9 L 7 10 L 7.5 10 L 7.5 11 L 8.5 11 Z M 8.5 10 "/>
</g>
</svg>
