<?xml version="1.0" encoding="UTF-8"?>
<svg xmlns="http://www.w3.org/2000/svg" xmlns:xlink="http://www.w3.org/1999/xlink" width="12" height="12" viewBox="0 0 12 12" version="1.1">
<g id="surface1">
<path style=" stroke:none;fill-rule:nonzero;fill:rgb(100%,100%,100%);fill-opacity:1;" d="M 6 3.5 L 3.75 4 C 3.246094 5.445312 2.484375 7 2.484375 7 C 2.484375 7 2.5 7 1 8.5 L 11 8.5 L 9.5 7 C 9.5 7 8.648438 5.113281 8.25 4 Z M 4.503906 4.496094 C 4.582031 4.496094 4.660156 4.535156 4.707031 4.601562 C 4.753906 4.667969 4.765625 4.753906 4.738281 4.828125 L 4.230469 6.34375 L 3.972656 6.863281 C 3.910156 6.984375 3.761719 7.035156 3.636719 6.972656 C 3.515625 6.910156 3.464844 6.761719 3.527344 6.636719 L 3.769531 6.15625 L 4.261719 4.671875 C 4.296875 4.566406 4.394531 4.496094 4.503906 4.496094 Z M 7.5 4.496094 C 7.613281 4.496094 7.710938 4.574219 7.738281 4.679688 L 8.226562 6.386719 L 8.949219 7.351562 C 9.03125 7.460938 9.011719 7.617188 8.898438 7.699219 C 8.789062 7.78125 8.632812 7.761719 8.550781 7.648438 L 7.773438 6.613281 L 7.257812 4.820312 C 7.238281 4.742188 7.25 4.660156 7.296875 4.597656 C 7.347656 4.535156 7.421875 4.496094 7.5 4.496094 Z M 7.5 4.496094 "/>
</g>
</svg>
