<svg width="12" height="12" viewBox="0 0 580 580" fill="none" xmlns="http://www.w3.org/2000/svg">
<path d="M427.867 56.9219C439.445 56.9215 448.831 66.3069 448.831 77.8849C448.832 89.4634 439.445 98.8498 427.867 98.8495C416.288 98.8498 406.902 89.4634 406.902 77.8849C406.903 66.3069 416.289 56.9215 427.867 56.9219ZM147.377 57.134C187.654 57.134 221.43 80.505 230.574 111.992H267.277V111.989C267.277 77.7316 267.277 77.7326 301.534 77.7326C334.64 78.3081 335.792 77.7318 335.792 111.989V216.495L267.277 215.691V146.248H230.574C221.43 177.735 187.654 201.106 147.377 201.106C100.078 201.106 61.7337 168.877 61.7337 129.12C61.7337 89.3632 100.078 57.1342 147.377 57.1342V57.134ZM497.303 75.1879C508.881 75.1884 518.266 84.5736 518.266 96.1509C518.267 107.729 508.881 117.115 497.303 117.115C485.725 117.116 476.338 107.729 476.339 96.1509C476.339 84.573 485.725 75.1875 497.303 75.1879ZM447.057 114.536C458.635 114.536 468.021 123.921 468.021 135.499C468.022 147.078 458.635 156.464 447.057 156.464C435.478 156.464 426.092 147.078 426.092 135.499C426.093 123.921 435.479 114.536 447.057 114.536ZM388.031 117.724C399.609 117.723 408.995 127.109 408.995 138.687C408.996 150.265 399.609 159.652 388.031 159.651C376.452 159.652 367.066 150.265 367.066 138.687C367.067 127.109 376.453 117.723 388.031 117.724ZM494.158 144.73C505.737 144.729 515.123 154.116 515.123 165.694C515.123 177.273 505.737 186.659 494.158 186.659C482.58 186.659 473.193 177.273 473.194 165.694C473.193 154.116 482.58 144.729 494.158 144.73ZM430.804 177.078C442.382 177.078 451.768 186.463 451.769 198.041C451.769 209.62 442.383 219.006 430.804 219.006C419.226 219.005 409.841 209.619 409.841 198.041C409.842 186.464 419.227 177.079 430.804 177.078ZM491.15 202.954C502.727 202.955 512.113 212.34 512.113 223.917C512.113 235.495 502.728 244.881 491.15 244.882C479.572 244.882 470.185 235.496 470.186 223.917C470.186 212.339 479.572 202.954 491.15 202.954ZM370.049 249.02C399.625 249.02 469.225 306.374 469.225 306.374C469.225 306.374 491.02 408.801 491.02 447.74C491.02 481.997 404.307 523.078 370.049 523.078H233.02C198.763 523.078 116.063 481.997 116.063 447.74C116.063 411.455 136.352 315.481 136.352 315.481C136.352 315.481 200.79 249.02 233.02 249.02H370.049Z" fill="#ffffff"/>
</svg>
