<?xml version="1.0" encoding="UTF-8"?>
<svg xmlns="http://www.w3.org/2000/svg" xmlns:xlink="http://www.w3.org/1999/xlink" width="12" height="12" viewBox="0 0 12 12" version="1.1">
<g id="surface1">
<path style=" stroke:none;fill-rule:nonzero;fill:rgb(24.705882%,24.705882%,24.705882%);fill-opacity:1;" d="M 0.925781 3.53125 L 2.347656 3.53125 C 2.769531 3.53125 3.09375 3.671875 3.316406 3.953125 C 3.542969 4.230469 3.65625 4.625 3.65625 5.140625 C 3.65625 5.660156 3.542969 6.058594 3.316406 6.339844 C 3.09375 6.617188 2.769531 6.753906 2.347656 6.753906 L 1.78125 6.753906 L 1.78125 8.46875 L 0.925781 8.46875 Z M 1.78125 4.453125 L 1.78125 5.832031 L 2.253906 5.832031 C 2.421875 5.832031 2.550781 5.773438 2.640625 5.65625 C 2.730469 5.535156 2.773438 5.363281 2.773438 5.140625 C 2.773438 4.921875 2.730469 4.75 2.640625 4.632812 C 2.550781 4.515625 2.421875 4.453125 2.253906 4.453125 Z M 1.78125 4.453125 "/>
<path style=" stroke:none;fill-rule:nonzero;fill:rgb(24.705882%,24.705882%,24.705882%);fill-opacity:1;" d="M 6.0625 4.558594 L 6.0625 5.925781 L 7.421875 5.925781 L 7.421875 6.539062 L 6.0625 6.539062 L 6.0625 7.90625 L 5.441406 7.90625 L 5.441406 6.539062 L 4.078125 6.539062 L 4.078125 5.925781 L 5.441406 5.925781 L 5.441406 4.558594 Z M 6.0625 4.558594 "/>
<path style=" stroke:none;fill-rule:nonzero;fill:rgb(24.705882%,24.705882%,24.705882%);fill-opacity:1;" d="M 9.292969 5.71875 C 9.472656 5.71875 9.601562 5.671875 9.679688 5.570312 C 9.757812 5.472656 9.796875 5.308594 9.796875 5.082031 C 9.796875 4.859375 9.757812 4.695312 9.679688 4.601562 C 9.601562 4.503906 9.472656 4.453125 9.292969 4.453125 L 8.933594 4.453125 L 8.933594 5.71875 Z M 8.933594 6.601562 L 8.933594 8.46875 L 8.078125 8.46875 L 8.078125 3.53125 L 9.386719 3.53125 C 9.824219 3.53125 10.144531 3.640625 10.347656 3.859375 C 10.550781 4.078125 10.652344 4.421875 10.652344 4.894531 C 10.652344 5.21875 10.597656 5.488281 10.492188 5.699219 C 10.386719 5.90625 10.226562 6.0625 10.015625 6.160156 C 10.132812 6.199219 10.234375 6.289062 10.328125 6.429688 C 10.421875 6.570312 10.515625 6.78125 10.609375 7.066406 L 11.074219 8.46875 L 10.164062 8.46875 L 9.757812 7.242188 C 9.675781 6.996094 9.59375 6.824219 9.507812 6.734375 C 9.425781 6.644531 9.316406 6.601562 9.175781 6.601562 Z M 8.933594 6.601562 "/>
</g>
</svg>
