<?xml version="1.0" encoding="UTF-8"?>
<svg xmlns="http://www.w3.org/2000/svg" xmlns:xlink="http://www.w3.org/1999/xlink" width="32" height="32" viewBox="0 0 32 32">
<path fill-rule="nonzero" fill="rgb(100%, 100%, 100%)" fill-opacity="1" d="M 2.667969 2.667969 L 2.667969 16 L 29.332031 16 L 29.332031 2.667969 Z M 16 5.332031 C 18.210938 5.332031 20 7.125 20 9.332031 C 20 11.542969 18.210938 13.332031 16 13.332031 C 13.789062 13.332031 12 11.542969 12 9.332031 C 12 7.125 13.789062 5.332031 16 5.332031 Z M 8 6.667969 C 9.472656 6.667969 10.667969 7.859375 10.667969 9.332031 C 10.667969 10.804688 9.472656 12 8 12 C 6.527344 12 5.332031 10.804688 5.332031 9.332031 C 5.332031 7.859375 6.527344 6.667969 8 6.667969 Z M 24 6.667969 C 25.472656 6.667969 26.667969 7.859375 26.667969 9.332031 C 26.667969 10.804688 25.472656 12 24 12 C 22.527344 12 21.332031 10.804688 21.332031 9.332031 C 21.332031 7.859375 22.527344 6.667969 24 6.667969 Z M 24 6.667969 "/>
<path fill-rule="evenodd" fill="rgb(100%, 100%, 100%)" fill-opacity="1" d="M 2.667969 18.667969 L 2.667969 29.332031 L 5.332031 29.332031 L 5.332031 18.667969 Z M 2.667969 18.667969 "/>
<path fill-rule="evenodd" fill="rgb(100%, 100%, 100%)" fill-opacity="1" d="M 26.667969 18.667969 L 26.667969 29.332031 L 29.332031 29.332031 L 29.332031 18.667969 Z M 26.667969 18.667969 "/>
<path fill-rule="evenodd" fill="rgb(100%, 100%, 100%)" fill-opacity="1" d="M 8 24 L 8 26.667969 L 24 26.667969 L 24 24 Z M 8 24 "/>
</svg>
