<?xml version="1.0" encoding="UTF-8"?>
<svg xmlns="http://www.w3.org/2000/svg" xmlns:xlink="http://www.w3.org/1999/xlink" width="12" height="12" viewBox="0 0 12 12" version="1.1">
<g id="surface1">
<path style=" stroke:none;fill-rule:evenodd;fill:rgb(100%,100%,100%);fill-opacity:1;" d="M 1.625 9.292969 C 1.066406 9.292969 0.617188 9.742188 0.617188 10.300781 C 0.617188 10.859375 1.066406 11.3125 1.625 11.3125 L 6.839844 11.3125 C 7.398438 11.3125 7.847656 10.859375 7.847656 10.300781 C 7.847656 9.742188 7.398438 9.292969 6.839844 9.292969 Z M 1.742188 9.78125 C 1.878906 9.78125 2.011719 9.835938 2.113281 9.933594 C 2.210938 10.03125 2.265625 10.164062 2.265625 10.304688 C 2.265625 10.441406 2.210938 10.574219 2.113281 10.671875 C 2.011719 10.769531 1.878906 10.824219 1.742188 10.824219 C 1.601562 10.824219 1.46875 10.769531 1.371094 10.671875 C 1.273438 10.574219 1.21875 10.441406 1.21875 10.304688 C 1.21875 10.164062 1.273438 10.03125 1.371094 9.933594 C 1.46875 9.835938 1.601562 9.78125 1.742188 9.78125 Z M 3.371094 9.78125 C 3.441406 9.78125 3.507812 9.792969 3.570312 9.820312 C 3.636719 9.847656 3.691406 9.882812 3.742188 9.933594 C 3.789062 9.980469 3.828125 10.039062 3.855469 10.101562 C 3.882812 10.167969 3.894531 10.234375 3.894531 10.304688 C 3.894531 10.371094 3.882812 10.4375 3.855469 10.503906 C 3.828125 10.566406 3.789062 10.625 3.742188 10.671875 C 3.691406 10.722656 3.636719 10.757812 3.570312 10.785156 C 3.507812 10.8125 3.441406 10.824219 3.371094 10.824219 C 3.234375 10.824219 3.101562 10.769531 3 10.671875 C 2.902344 10.574219 2.847656 10.441406 2.847656 10.304688 C 2.847656 10.164062 2.902344 10.03125 3 9.933594 C 3.101562 9.835938 3.234375 9.78125 3.371094 9.78125 Z M 5 9.78125 C 5.140625 9.78125 5.273438 9.835938 5.371094 9.933594 C 5.46875 10.03125 5.523438 10.164062 5.523438 10.304688 C 5.523438 10.441406 5.46875 10.574219 5.371094 10.671875 C 5.273438 10.769531 5.140625 10.824219 5 10.824219 C 4.933594 10.824219 4.863281 10.8125 4.800781 10.785156 C 4.738281 10.757812 4.679688 10.722656 4.632812 10.671875 C 4.582031 10.625 4.542969 10.566406 4.519531 10.503906 C 4.492188 10.4375 4.476562 10.371094 4.476562 10.304688 C 4.476562 10.234375 4.492188 10.167969 4.519531 10.101562 C 4.542969 10.039062 4.582031 9.980469 4.632812 9.933594 C 4.679688 9.882812 4.738281 9.847656 4.800781 9.820312 C 4.863281 9.792969 4.933594 9.78125 5 9.78125 Z M 6.632812 9.78125 C 6.769531 9.78125 6.902344 9.835938 7 9.933594 C 7.097656 10.03125 7.152344 10.164062 7.152344 10.304688 C 7.152344 10.441406 7.097656 10.574219 7 10.671875 C 6.902344 10.769531 6.769531 10.824219 6.632812 10.824219 C 6.492188 10.824219 6.359375 10.769531 6.261719 10.671875 C 6.164062 10.574219 6.109375 10.441406 6.109375 10.304688 C 6.109375 10.164062 6.164062 10.03125 6.261719 9.933594 C 6.359375 9.835938 6.492188 9.78125 6.632812 9.78125 Z M 6.632812 9.78125 "/>
<path style=" stroke:none;fill-rule:evenodd;fill:rgb(100%,100%,100%);fill-opacity:1;" d="M 4.589844 5.0625 L 4.589844 6.265625 L 3.738281 6.257812 L 3.730469 5.972656 L 1.894531 5.957031 L 1.894531 6.242188 L 1.503906 6.238281 L 1.503906 6.839844 L 3.449219 6.867188 L 3.441406 7.210938 L 1.503906 7.191406 L 1.503906 8.464844 L 6.847656 8.464844 L 6.847656 6.238281 C 6.847656 6.238281 6.820312 5.816406 6.605469 5.46875 C 6.386719 5.121094 6.117188 5.066406 6.117188 5.066406 Z M 4.9375 5.433594 L 6.007812 5.433594 C 6.007812 5.433594 6.320312 5.554688 6.449219 6.007812 C 6.582031 6.464844 6.515625 7.046875 6.515625 7.046875 L 4.9375 7.046875 Z M 4.9375 5.433594 "/>
<path style=" stroke:none;fill-rule:evenodd;fill:rgb(100%,100%,100%);fill-opacity:1;" d="M 5.105469 4.695312 L 5.914062 3.089844 L 8.246094 0.820312 L 8.230469 1.980469 L 6.40625 3.789062 L 6.230469 4.710938 Z M 5.105469 4.695312 "/>
<path style=" stroke:none;fill-rule:evenodd;fill:rgb(100%,100%,100%);fill-opacity:1;" d="M 8.597656 0.742188 L 8.597656 1.695312 L 10.367188 5.527344 L 10.839844 5.300781 L 8.835938 0.457031 C 8.789062 0.34375 8.644531 0.496094 8.597656 0.742188 Z M 8.597656 0.742188 "/>
<path style=" stroke:none;fill-rule:evenodd;fill:rgb(100%,100%,100%);fill-opacity:1;" d="M 11.078125 5.796875 L 10.902344 7.242188 C 10.902344 7.242188 10.242188 8.289062 9.378906 8.019531 C 8.273438 7.671875 7.96875 6.359375 7.96875 6.359375 C 7.96875 6.359375 8.328125 6.734375 8.488281 6.746094 C 8.652344 6.753906 11.078125 5.796875 11.078125 5.796875 Z M 11.078125 5.796875 "/>
<path style=" stroke:none;fill-rule:nonzero;fill:rgb(100%,100%,100%);fill-opacity:1;" d="M 5.578125 8.707031 L 2.683594 8.707031 L 2.683594 9.019531 L 5.578125 9.019531 Z M 5.578125 8.707031 "/>
</g>
</svg>
