<?xml version="1.0" encoding="UTF-8"?>
<svg xmlns="http://www.w3.org/2000/svg" xmlns:xlink="http://www.w3.org/1999/xlink" width="32" height="32" viewBox="0 0 32 32">
<path fill-rule="nonzero" fill="rgb(24.705882%, 24.705882%, 24.705882%)" fill-opacity="1" d="M 4.542969 17.394531 L 4.542969 29.722656 L 13.648438 29.722656 L 13.648438 17.394531 Z M 6.199219 19.21875 L 7.855469 19.21875 L 7.855469 20.882812 L 6.199219 20.882812 Z M 10.335938 19.21875 L 11.992188 19.21875 L 11.992188 20.882812 L 10.335938 20.882812 Z M 6.199219 22.550781 L 7.855469 22.550781 L 7.855469 24.21875 L 6.199219 24.21875 Z M 10.335938 22.550781 L 11.992188 22.550781 L 11.992188 24.21875 L 10.335938 24.21875 Z M 6.199219 25.886719 L 7.855469 25.886719 L 7.855469 27.550781 L 6.199219 27.550781 Z M 10.335938 25.886719 L 11.992188 25.886719 L 11.992188 27.550781 L 10.335938 27.550781 Z M 10.335938 25.886719 "/>
<path fill-rule="nonzero" fill="rgb(24.705882%, 24.705882%, 24.705882%)" fill-opacity="1" d="M 4.542969 2.277344 L 4.542969 14.605469 L 13.648438 14.605469 L 13.648438 2.277344 Z M 6.199219 4.101562 L 7.855469 4.101562 L 7.855469 5.765625 L 6.199219 5.765625 Z M 10.335938 4.101562 L 11.992188 4.101562 L 11.992188 5.765625 L 10.335938 5.765625 Z M 6.199219 7.433594 L 7.855469 7.433594 L 7.855469 9.101562 L 6.199219 9.101562 Z M 10.335938 7.433594 L 11.992188 7.433594 L 11.992188 9.101562 L 10.335938 9.101562 Z M 6.199219 10.769531 L 7.855469 10.769531 L 7.855469 12.433594 L 6.199219 12.433594 Z M 10.335938 10.769531 L 11.992188 10.769531 L 11.992188 12.433594 L 10.335938 12.433594 Z M 10.335938 10.769531 "/>
<path fill-rule="nonzero" fill="rgb(24.705882%, 24.705882%, 24.705882%)" fill-opacity="1" d="M 17.839844 17.449219 L 17.839844 29.777344 L 26.945312 29.777344 L 26.945312 17.449219 Z M 19.496094 19.273438 L 21.148438 19.273438 L 21.148438 20.9375 L 19.496094 20.9375 Z M 23.632812 19.273438 L 25.285156 19.273438 L 25.285156 20.9375 L 23.632812 20.9375 Z M 19.496094 22.605469 L 21.148438 22.605469 L 21.148438 24.273438 L 19.496094 24.273438 Z M 23.632812 22.605469 L 25.285156 22.605469 L 25.285156 24.273438 L 23.632812 24.273438 Z M 19.496094 25.941406 L 21.148438 25.941406 L 21.148438 27.609375 L 19.496094 27.609375 Z M 23.632812 25.941406 L 25.285156 25.941406 L 25.285156 27.609375 L 23.632812 27.609375 Z M 23.632812 25.941406 "/>
<path fill-rule="nonzero" fill="rgb(24.705882%, 24.705882%, 24.705882%)" fill-opacity="1" d="M 17.78125 2.222656 L 17.78125 14.550781 L 26.886719 14.550781 L 26.886719 2.222656 Z M 19.441406 4.046875 L 21.09375 4.046875 L 21.09375 5.710938 L 19.441406 5.710938 Z M 23.578125 4.046875 L 25.230469 4.046875 L 25.230469 5.710938 L 23.578125 5.710938 Z M 19.441406 7.378906 L 21.09375 7.378906 L 21.09375 9.042969 L 19.441406 9.042969 Z M 23.578125 7.378906 L 25.230469 7.378906 L 25.230469 9.042969 L 23.578125 9.042969 Z M 19.441406 10.714844 L 21.09375 10.714844 L 21.09375 12.378906 L 19.441406 12.378906 Z M 23.578125 10.714844 L 25.230469 10.714844 L 25.230469 12.378906 L 23.578125 12.378906 Z M 23.578125 10.714844 "/>
</svg>
