<?xml version="1.0" encoding="UTF-8"?>
<svg xmlns="http://www.w3.org/2000/svg" xmlns:xlink="http://www.w3.org/1999/xlink" width="12" height="12" viewBox="0 0 12 12" version="1.1">
<g id="surface1">
<path style=" stroke:none;fill-rule:nonzero;fill:rgb(24.705882%,24.705882%,24.705882%);fill-opacity:1;" d="M 1.703125 6.523438 L 1.703125 11.144531 L 5.117188 11.144531 L 5.117188 6.523438 Z M 2.324219 7.207031 L 2.945312 7.207031 L 2.945312 7.832031 L 2.324219 7.832031 Z M 3.875 7.207031 L 4.496094 7.207031 L 4.496094 7.832031 L 3.875 7.832031 Z M 2.324219 8.457031 L 2.945312 8.457031 L 2.945312 9.082031 L 2.324219 9.082031 Z M 3.875 8.457031 L 4.496094 8.457031 L 4.496094 9.082031 L 3.875 9.082031 Z M 2.324219 9.707031 L 2.945312 9.707031 L 2.945312 10.332031 L 2.324219 10.332031 Z M 3.875 9.707031 L 4.496094 9.707031 L 4.496094 10.332031 L 3.875 10.332031 Z M 3.875 9.707031 "/>
<path style=" stroke:none;fill-rule:nonzero;fill:rgb(24.705882%,24.705882%,24.705882%);fill-opacity:1;" d="M 1.703125 0.855469 L 1.703125 5.476562 L 5.117188 5.476562 L 5.117188 0.855469 Z M 2.324219 1.539062 L 2.945312 1.539062 L 2.945312 2.164062 L 2.324219 2.164062 Z M 3.875 1.539062 L 4.496094 1.539062 L 4.496094 2.164062 L 3.875 2.164062 Z M 2.324219 2.789062 L 2.945312 2.789062 L 2.945312 3.414062 L 2.324219 3.414062 Z M 3.875 2.789062 L 4.496094 2.789062 L 4.496094 3.414062 L 3.875 3.414062 Z M 2.324219 4.039062 L 2.945312 4.039062 L 2.945312 4.664062 L 2.324219 4.664062 Z M 3.875 4.039062 L 4.496094 4.039062 L 4.496094 4.664062 L 3.875 4.664062 Z M 3.875 4.039062 "/>
<path style=" stroke:none;fill-rule:nonzero;fill:rgb(24.705882%,24.705882%,24.705882%);fill-opacity:1;" d="M 6.6875 6.542969 L 6.6875 11.167969 L 10.105469 11.167969 L 10.105469 6.542969 Z M 7.3125 7.226562 L 7.929688 7.226562 L 7.929688 7.851562 L 7.3125 7.851562 Z M 8.863281 7.226562 L 9.484375 7.226562 L 9.484375 7.851562 L 8.863281 7.851562 Z M 7.3125 8.476562 L 7.929688 8.476562 L 7.929688 9.101562 L 7.3125 9.101562 Z M 8.863281 8.476562 L 9.484375 8.476562 L 9.484375 9.101562 L 8.863281 9.101562 Z M 7.3125 9.726562 L 7.929688 9.726562 L 7.929688 10.351562 L 7.3125 10.351562 Z M 8.863281 9.726562 L 9.484375 9.726562 L 9.484375 10.351562 L 8.863281 10.351562 Z M 8.863281 9.726562 "/>
<path style=" stroke:none;fill-rule:nonzero;fill:rgb(24.705882%,24.705882%,24.705882%);fill-opacity:1;" d="M 6.667969 0.832031 L 6.667969 5.457031 L 10.082031 5.457031 L 10.082031 0.832031 Z M 7.289062 1.515625 L 7.910156 1.515625 L 7.910156 2.140625 L 7.289062 2.140625 Z M 8.839844 1.515625 L 9.460938 1.515625 L 9.460938 2.140625 L 8.839844 2.140625 Z M 7.289062 2.765625 L 7.910156 2.765625 L 7.910156 3.390625 L 7.289062 3.390625 Z M 8.839844 2.765625 L 9.460938 2.765625 L 9.460938 3.390625 L 8.839844 3.390625 Z M 7.289062 4.019531 L 7.910156 4.019531 L 7.910156 4.640625 L 7.289062 4.640625 Z M 8.839844 4.019531 L 9.460938 4.019531 L 9.460938 4.640625 L 8.839844 4.640625 Z M 8.839844 4.019531 "/>
</g>
</svg>
