<?xml version="1.0" encoding="UTF-8"?>
<svg xmlns="http://www.w3.org/2000/svg" xmlns:xlink="http://www.w3.org/1999/xlink" width="12" height="12" viewBox="0 0 12 12">
<path fill-rule="evenodd" fill="rgb(100%, 100%, 100%)" fill-opacity="1" d="M 9 6.5 L 8 7 L 7.5 8.5 L 4.5 8.5 L 4 7 L 3 6.5 L 1.5 6.5 L 1.5 5 L 3 4.5 L 3.5 2.5 L 7.5 2.5 L 8.5 4.5 L 10.5 5 L 10.5 6 L 10 6.5 Z M 3.875 5.125 L 6.5 6 L 7.664062 5.066406 L 6.882812 3.5 L 4.28125 3.5 Z M 3.875 5.125 "/>
<path fill-rule="evenodd" fill="rgb(100%, 100%, 100%)" fill-opacity="1" d="M 4 8.5 C 4 9.328125 3.328125 10 2.5 10 C 1.671875 10 1 9.328125 1 8.5 C 1 7.671875 1.671875 7 2.5 7 C 3.328125 7 4 7.671875 4 8.5 Z M 3 8.5 C 3 8.777344 2.777344 9 2.5 9 C 2.222656 9 2 8.777344 2 8.5 C 2 8.222656 2.222656 8 2.5 8 C 2.777344 8 3 8.222656 3 8.5 Z M 3 8.5 "/>
<path fill-rule="evenodd" fill="rgb(100%, 100%, 100%)" fill-opacity="1" d="M 11 8.5 C 11 9.328125 10.328125 10 9.5 10 C 8.671875 10 8 9.328125 8 8.5 C 8 7.671875 8.671875 7 9.5 7 C 10.328125 7 11 7.671875 11 8.5 Z M 10 8.5 C 10 8.777344 9.777344 9 9.5 9 C 9.222656 9 9 8.777344 9 8.5 C 9 8.222656 9.222656 8 9.5 8 C 9.777344 8 10 8.222656 10 8.5 Z M 10 8.5 "/>
</svg>
