<?xml version="1.0" encoding="UTF-8"?>
<svg xmlns="http://www.w3.org/2000/svg" xmlns:xlink="http://www.w3.org/1999/xlink" width="12" height="12" viewBox="0 0 12 12" version="1.1">
<g id="surface1">
<path style=" stroke:none;fill-rule:nonzero;fill:rgb(100%,100%,100%);fill-opacity:1;" d="M 7.570312 2.339844 C 7.207031 2.339844 6.953125 2.367188 6.613281 2.46875 C 7.167969 2.800781 7.550781 3.171875 7.898438 3.714844 C 8.964844 3.863281 10.011719 4.890625 10.011719 6 C 10.011719 7.03125 9.300781 7.898438 8.339844 8.132812 C 8.171875 8.171875 7.996094 8.195312 7.816406 8.195312 C 6.964844 8.195312 6.230469 7.714844 5.867188 7.007812 C 5.707031 6.707031 5.632812 6.363281 5.621094 6 C 5.609375 5.769531 5.617188 5.5 5.8125 5.097656 C 5.566406 4.699219 4.945312 4.222656 4.429688 4.222656 C 4.410156 4.222656 4.386719 4.222656 4.367188 4.222656 C 4.066406 4.765625 3.90625 5.378906 3.90625 6 C 3.90625 8.019531 5.550781 9.660156 7.570312 9.660156 C 9.589844 9.660156 11.230469 8.019531 11.230469 6 C 11.230469 3.980469 9.589844 2.339844 7.570312 2.339844 Z M 7.570312 2.339844 "/>
<path style=" stroke:none;fill-rule:nonzero;fill:rgb(100%,100%,100%);fill-opacity:1;" d="M 3.828125 7.996094 C 2.757812 7.847656 2.054688 6.941406 2.054688 5.832031 C 2.054688 4.78125 2.789062 3.90625 3.773438 3.6875 C 3.925781 3.652344 4.085938 3.632812 4.25 3.632812 C 5.300781 3.632812 6.179688 4.371094 6.394531 5.359375 C 6.429688 5.511719 6.441406 5.667969 6.449219 5.832031 C 6.457031 6.007812 6.472656 6.265625 6.277344 6.78125 C 6.589844 7.265625 7.042969 7.519531 7.613281 7.699219 C 7.636719 7.707031 7.679688 7.695312 7.679688 7.695312 C 7.976562 7.15625 8.09375 6.621094 8.09375 6 C 8.09375 3.980469 6.449219 2.339844 4.429688 2.339844 C 2.410156 2.339844 0.769531 3.980469 0.769531 6 C 0.769531 8.019531 2.410156 9.660156 4.429688 9.660156 C 4.796875 9.660156 4.941406 9.660156 5.28125 9.585938 C 4.734375 9.28125 4.257812 8.929688 3.828125 7.996094 Z M 3.828125 7.996094 "/>
</g>
</svg>
