<?xml version="1.0" encoding="UTF-8"?>
<svg xmlns="http://www.w3.org/2000/svg" xmlns:xlink="http://www.w3.org/1999/xlink" width="32" height="32" viewBox="0 0 32 32">
<path fill-rule="nonzero" fill="rgb(100%, 100%, 100%)" fill-opacity="1" d="M 20.183594 6.234375 C 19.214844 6.234375 18.546875 6.308594 17.636719 6.585938 C 19.113281 7.464844 20.140625 8.453125 21.058594 9.90625 C 23.90625 10.300781 26.703125 13.039062 26.703125 16 C 26.703125 18.753906 24.800781 21.058594 22.238281 21.683594 C 21.789062 21.792969 21.324219 21.859375 20.84375 21.859375 C 18.578125 21.859375 16.617188 20.570312 15.640625 18.6875 C 15.222656 17.882812 15.019531 16.96875 14.984375 16 C 14.964844 15.382812 14.980469 14.664062 15.496094 13.589844 C 14.839844 12.535156 13.1875 11.257812 11.816406 11.257812 C 11.757812 11.257812 11.703125 11.261719 11.644531 11.265625 C 10.847656 12.707031 10.421875 14.339844 10.421875 16 C 10.421875 21.382812 14.800781 25.765625 20.183594 25.765625 C 25.570312 25.765625 29.949219 21.382812 29.949219 16 C 29.949219 10.617188 25.570312 6.234375 20.183594 6.234375 Z M 20.183594 6.234375 "/>
<path fill-rule="nonzero" fill="rgb(100%, 100%, 100%)" fill-opacity="1" d="M 10.203125 21.324219 C 7.355469 20.929688 5.476562 18.507812 5.476562 15.550781 C 5.476562 12.753906 7.4375 10.417969 10.058594 9.835938 C 10.472656 9.742188 10.898438 9.691406 11.335938 9.691406 C 14.136719 9.691406 16.480469 11.660156 17.054688 14.289062 C 17.144531 14.699219 17.175781 15.117188 17.195312 15.550781 C 17.214844 16.019531 17.265625 16.714844 16.738281 18.082031 C 17.574219 19.378906 18.78125 20.054688 20.304688 20.535156 C 20.359375 20.550781 20.476562 20.519531 20.476562 20.519531 C 21.273438 19.082031 21.578125 17.660156 21.578125 16 C 21.578125 10.617188 17.199219 6.234375 11.816406 6.234375 C 6.429688 6.234375 2.050781 10.617188 2.050781 16 C 2.050781 21.382812 6.429688 25.765625 11.816406 25.765625 C 12.789062 25.765625 13.175781 25.757812 14.085938 25.566406 C 12.621094 24.75 11.359375 23.816406 10.203125 21.324219 Z M 10.203125 21.324219 "/>
</svg>
