<?xml version="1.0" encoding="UTF-8"?>
<svg xmlns="http://www.w3.org/2000/svg" xmlns:xlink="http://www.w3.org/1999/xlink" width="12" height="12" viewBox="0 0 12 12" version="1.1">
<g id="surface1">
<path style=" stroke:none;fill-rule:nonzero;fill:rgb(20%,20%,20%);fill-opacity:1;" d="M 5.164062 10.054688 L 4.410156 8.742188 L 2.925781 8.742188 C 2 8.742188 1.421875 8.710938 1.390625 8.660156 C 1.363281 8.617188 1.667969 8.007812 2.070312 7.3125 C 2.566406 6.445312 2.78125 5.996094 2.746094 5.902344 C 2.714844 5.824219 2.390625 5.238281 2.023438 4.601562 C 1.652344 3.964844 1.351562 3.402344 1.351562 3.351562 C 1.351562 3.285156 1.773438 3.257812 2.878906 3.257812 L 4.410156 3.257812 L 5.164062 1.945312 C 5.578125 1.226562 5.941406 0.636719 5.972656 0.636719 C 6.058594 0.636719 6.269531 0.964844 6.960938 2.164062 L 7.585938 3.257812 L 9.117188 3.257812 C 10.292969 3.257812 10.648438 3.28125 10.644531 3.359375 C 10.644531 3.414062 10.308594 4.027344 9.902344 4.726562 L 9.164062 5.996094 L 9.90625 7.28125 C 10.316406 7.988281 10.648438 8.605469 10.648438 8.652344 C 10.648438 8.714844 10.1875 8.742188 9.117188 8.742188 L 7.585938 8.742188 L 6.960938 9.835938 C 6.273438 11.03125 6.058594 11.363281 5.976562 11.363281 C 5.945312 11.363281 5.582031 10.773438 5.164062 10.054688 Z M 6.273438 9.269531 C 6.40625 9.035156 6.515625 8.820312 6.515625 8.792969 C 6.515625 8.765625 6.285156 8.742188 6 8.742188 C 5.714844 8.742188 5.484375 8.765625 5.484375 8.792969 C 5.484375 8.855469 5.964844 9.695312 6 9.695312 C 6.015625 9.695312 6.136719 9.503906 6.273438 9.269531 Z M 3.640625 7.390625 C 3.496094 7.128906 3.359375 6.917969 3.335938 6.917969 C 3.316406 6.917969 3.179688 7.128906 3.035156 7.390625 L 2.773438 7.867188 L 3.898438 7.867188 Z M 7.378906 7.332031 C 7.550781 7.035156 7.789062 6.613281 7.914062 6.390625 L 8.136719 5.984375 L 7.625 5.078125 L 7.109375 4.171875 L 4.898438 4.171875 L 4.394531 5.039062 C 4.121094 5.511719 3.894531 5.941406 3.894531 5.984375 C 3.894531 6.066406 4.71875 7.574219 4.871094 7.769531 C 4.925781 7.839844 5.253906 7.867188 6.007812 7.867188 L 7.066406 7.867188 Z M 8.964844 7.390625 C 8.820312 7.128906 8.683594 6.917969 8.664062 6.917969 C 8.640625 6.917969 8.503906 7.128906 8.359375 7.390625 L 8.101562 7.867188 L 9.226562 7.867188 Z M 3.632812 4.609375 L 3.890625 4.132812 L 2.773438 4.132812 L 3.035156 4.609375 C 3.179688 4.871094 3.316406 5.085938 3.335938 5.085938 C 3.359375 5.082031 3.492188 4.871094 3.632812 4.609375 Z M 8.957031 4.609375 L 9.214844 4.132812 L 8.101562 4.132812 L 8.359375 4.609375 C 8.503906 4.871094 8.640625 5.085938 8.664062 5.085938 C 8.683594 5.082031 8.816406 4.871094 8.957031 4.609375 Z M 6.515625 3.207031 C 6.515625 3.144531 6.035156 2.304688 6 2.304688 C 5.964844 2.304688 5.484375 3.144531 5.484375 3.207031 C 5.484375 3.234375 5.714844 3.257812 6 3.257812 C 6.285156 3.257812 6.515625 3.234375 6.515625 3.207031 Z M 6.515625 3.207031 "/>
</g>
</svg>
