<?xml version="1.0" encoding="UTF-8"?>
<svg xmlns="http://www.w3.org/2000/svg" xmlns:xlink="http://www.w3.org/1999/xlink" width="32" height="32" viewBox="0 0 32 32">
<path fill-rule="nonzero" fill="rgb(100%, 100%, 100%)" fill-opacity="1" d="M 18 7.332031 C 19.464844 7.332031 20.667969 6.132812 20.667969 4.667969 C 20.667969 3.199219 19.464844 2 18 2 C 16.535156 2 15.332031 3.199219 15.332031 4.667969 C 15.332031 6.132812 16.535156 7.332031 18 7.332031 Z M 13.066406 11.867188 L 9.332031 30.667969 L 12.132812 30.667969 L 14.535156 20 L 17.332031 22.667969 L 17.332031 30.667969 L 20 30.667969 L 20 20.667969 L 17.199219 18 L 18 14 C 19.734375 16 22.398438 17.332031 25.332031 17.332031 L 25.332031 14.667969 C 22.800781 14.667969 20.667969 13.332031 19.601562 11.464844 L 18.265625 9.332031 C 17.734375 8.535156 16.933594 8 16 8 C 15.601562 8 15.332031 8.132812 14.933594 8.132812 L 8 11.066406 L 8 17.332031 L 10.667969 17.332031 L 10.667969 12.800781 Z M 13.066406 11.867188 "/>
</svg>
