<?xml version="1.0" encoding="UTF-8"?>
<svg xmlns="http://www.w3.org/2000/svg" xmlns:xlink="http://www.w3.org/1999/xlink" width="32" height="32" viewBox="0 0 32 32">
<path fill-rule="evenodd" fill="rgb(100%, 100%, 100%)" fill-opacity="1" d="M 19.460938 6.667969 L 13.332031 6.667969 L 13.332031 9.332031 L 16 9.332031 L 16 13.332031 L 6.667969 13.332031 L 6.667969 12 C 6.667969 11.261719 6.070312 10.667969 5.332031 10.667969 L 1.332031 10.667969 C 0.597656 10.667969 0 11.261719 0 12 L 0 14.667969 L 2.332031 14.667969 L 1.332031 18.667969 L 0 18.667969 L 0 21.332031 C 0.65625 21.332031 0.976562 21.324219 1.402344 21.195312 C 1.84375 21.0625 2.566406 20.742188 3.734375 19.867188 L 5.386719 18.628906 L 7 19.917969 C 8.25 20.917969 9.507812 21.332031 10.667969 21.332031 C 11.824219 21.332031 13.082031 20.917969 14.335938 19.917969 L 16 18.585938 L 17.664062 19.917969 C 18.917969 20.917969 20.175781 21.332031 21.332031 21.332031 C 22.492188 21.332031 23.75 20.917969 25 19.917969 L 26.613281 18.628906 L 28.265625 19.867188 C 28.769531 20.242188 29.1875 20.515625 29.539062 20.71875 L 32 13.332031 L 27.511719 13.332031 L 23.558594 8.585938 C 22.542969 7.371094 21.042969 6.667969 19.460938 6.667969 Z M 18.667969 13.332031 L 24.042969 13.332031 L 21.507812 10.292969 C 21 9.683594 20.25 9.332031 19.460938 9.332031 L 18.667969 9.332031 Z M 18.667969 13.332031 "/>
<path fill-rule="nonzero" fill="rgb(100%, 100%, 100%)" fill-opacity="1" d="M 16.832031 20.957031 L 16 20.292969 L 15.167969 20.957031 C 13.707031 22.125 12.164062 22.667969 10.667969 22.667969 C 9.171875 22.667969 7.625 22.125 6.167969 20.957031 L 5.359375 20.3125 L 4.535156 20.933594 C 3.28125 21.871094 2.421875 22.28125 1.785156 22.472656 C 1.152344 22.660156 0.660156 22.667969 0 22.667969 L 0 25.332031 L 0.03125 25.332031 C 0.699219 25.332031 1.527344 25.332031 2.550781 25.027344 C 3.375 24.78125 4.269531 24.351562 5.324219 23.644531 C 6.984375 24.753906 8.808594 25.332031 10.667969 25.332031 C 12.523438 25.332031 14.339844 24.753906 16 23.652344 C 17.660156 24.753906 19.476562 25.332031 21.332031 25.332031 C 23.191406 25.332031 25.015625 24.753906 26.675781 23.644531 C 27.730469 24.351562 28.625 24.78125 29.449219 25.027344 C 30.472656 25.332031 31.300781 25.332031 31.96875 25.332031 L 32 25.332031 L 32 22.667969 C 31.339844 22.667969 30.847656 22.660156 30.214844 22.472656 C 29.578125 22.28125 28.71875 21.871094 27.464844 20.933594 L 26.640625 20.3125 L 25.832031 20.957031 C 24.375 22.125 22.828125 22.667969 21.332031 22.667969 C 19.835938 22.667969 18.292969 22.125 16.832031 20.957031 Z M 16.832031 20.957031 "/>
</svg>
