<svg width="12" height="12" viewBox="0 0 580 580" fill="none" xmlns="http://www.w3.org/2000/svg">
<path d="M433.826 147.351C439.626 140.114 442.661 108.653 447.016 108.653C451.052 108.653 457.833 116.889 456.429 135.416C454.433 161.592 434.91 172.148 434.91 182.468C434.91 206.134 444.963 240.487 450.443 300.193C457.741 379.617 428.789 424.116 445.438 446.049C451.775 454.417 469.63 461.185 469.63 480.328L356.096 480.2C356.096 454.743 372.559 458.135 380.093 445.334C432.618 356.133 413.451 193.042 406.732 176.261C401.076 162.124 388.205 155.239 388.205 123.69C388.205 113.37 393.066 99.6719 397.618 99.6719C412.202 99.6719 403.739 144.272 419.314 151.026C423.546 152.863 428.562 153.866 433.826 147.295V147.351Z" fill="#ffffff"/>
<path d="M542.469 158.376C536.348 158.376 536.451 173.938 535.914 177.741C534.778 185.741 532.89 202.478 524.819 202.478C516.531 202.478 513.455 191.922 512.537 185.728C511.619 179.517 508.831 167.698 500.522 169.006C493.71 170.08 494.484 183.172 495.578 188.853C501.564 220.065 518.42 216.307 511.081 251.556C498.004 314.331 456.812 341.755 431.968 328.073C427.128 360.547 432.058 381.247 432.058 381.247C509.097 378.518 532.66 284.632 535.983 237.961C536.874 225.512 539.131 217.129 542.765 208.952C546.243 201.127 549.577 196.972 550.835 187.796C552.559 175.112 552.085 158.376 542.506 158.376H542.469Z" fill="#ffffff"/>
<path d="M291.494 260.145C296.634 260.145 298.152 271.786 298.606 274.546C299.565 280.345 304.333 295.099 311.848 295.099C319.362 295.099 323.222 286.233 324.502 267.706C324.835 263.008 329.043 260.424 332.574 261.437C335.866 262.392 339.716 266.868 339.716 271.17C339.716 312.834 316.823 304.451 326.164 328.807C338.405 360.694 404.244 369.047 423.081 356.01C427.147 379.544 411.893 406.498 411.893 406.498C329.993 401.345 309.597 364.173 301.392 317.268C298.46 300.488 284.806 296.657 284.806 274.738C284.816 262.421 288.562 260.145 291.494 260.145Z" fill="#ffffff"/>
<path d="M404.059 310.148C404.976 295.981 405.351 282.137 405.267 269.056C389.423 259.778 371.764 242.409 368.254 226.334C362.474 199.85 380.289 211.462 380.289 169.798C380.289 165.497 376.439 161.019 373.147 160.065C369.616 159.042 365.395 161.621 365.075 166.319C363.795 184.846 359.946 193.715 352.422 193.715C344.897 193.715 340.139 178.959 339.18 173.159C338.715 170.401 337.198 158.759 332.058 158.759C329.126 158.759 325.39 161.031 325.39 173.366C325.39 195.284 337.094 200.056 341.966 215.897C353.671 253.92 362.33 282.797 404.059 310.148Z" fill="#ffffff"/>
<path d="M231.143 382.47C206.513 382.47 191.952 390.463 191.952 417.075C191.952 434.502 213.732 448.303 228.742 442.247C230.353 441.596 231.251 439.908 229.609 439.675C218.1 438.126 206.962 430.242 206.962 418.035C206.962 403.428 221.833 399.369 232.63 399.369C243.427 399.369 259.723 408.617 259.723 428.925C259.723 449.233 236.084 465.993 217.511 465.993C198.923 465.993 174.975 457.086 174.975 413.977C174.975 353.534 253.914 345.2 253.914 274.037C253.914 214.88 142.817 203.835 142.585 164.195C146.116 170.593 161.22 181.452 175.316 185.882C198.551 193.178 226.775 183.233 247.687 202.813C254.239 208.947 277.567 181.235 264.943 168.626C264.943 168.626 228.959 163.343 216.071 135.523C214.351 131.805 211.036 121.69 221.477 111.265C224.203 108.554 220.935 107.268 219.432 107.361C209.224 107.996 199.465 114.084 196.801 117.291C190.93 113.062 180.521 89.0982 180.521 89.0982C180.521 89.0982 84.7748 90.6782 84.7748 164.381C84.7748 205.074 103.89 238.007 103.286 243.738C95.5251 246.263 72.6149 223.802 63.2897 215.406C59.9748 212.401 55.3431 211.642 51.6719 214.368C46.1574 218.473 37.0491 226.234 37.0491 272.209C37.0491 311.245 75.6819 347.229 84.3565 350.699C87.9038 352.124 93.1396 350.436 94.3323 347.229C99.5835 333.179 108.134 287.39 123.392 287.39C140.726 311.663 114.501 335.952 114.501 404.466C114.501 467.341 155.813 490.902 212.864 490.902C263.595 490.902 284.894 457.505 284.894 428.956C284.894 400.144 255.773 382.47 231.143 382.47V382.47ZM191.952 142.369C196.228 142.369 199.698 145.839 199.698 150.115C199.698 154.39 196.228 157.86 191.952 157.86C187.677 157.86 184.207 154.39 184.207 150.115C184.207 145.839 187.677 142.369 191.952 142.369Z" fill="#ffffff"/>
</svg>
