<?xml version="1.0" encoding="UTF-8"?>
<svg xmlns="http://www.w3.org/2000/svg" xmlns:xlink="http://www.w3.org/1999/xlink" width="32" height="32" viewBox="0 0 32 32">
<path fill-rule="evenodd" fill="rgb(100%, 100%, 100%)" fill-opacity="1" d="M 8.398438 8 C 7.347656 8 6.390625 8.621094 5.960938 9.582031 L 4 14 L 0 14.667969 L 0 21.332031 L 2.894531 21.332031 C 3.445312 22.886719 4.925781 24 6.667969 24 C 8.410156 24 9.890625 22.886719 10.4375 21.332031 L 21.5625 21.332031 C 22.109375 22.886719 23.589844 24 25.332031 24 C 27.074219 24 28.558594 22.886719 29.105469 21.332031 L 31.332031 21.332031 L 32 20 L 30.667969 18.667969 L 30.667969 14.667969 L 24 14 L 20 8 Z M 12 14.667969 L 12 10.667969 L 8.398438 10.667969 L 6.621094 14.667969 Z M 14.667969 14.667969 L 21.238281 14.667969 L 18.574219 10.667969 L 14.667969 10.667969 Z M 6.667969 21.332031 C 7.402344 21.332031 8 20.738281 8 20 C 8 19.261719 7.402344 18.667969 6.667969 18.667969 C 5.929688 18.667969 5.332031 19.261719 5.332031 20 C 5.332031 20.738281 5.929688 21.332031 6.667969 21.332031 Z M 25.332031 21.332031 C 26.070312 21.332031 26.667969 20.738281 26.667969 20 C 26.667969 19.261719 26.070312 18.667969 25.332031 18.667969 C 24.597656 18.667969 24 19.261719 24 20 C 24 20.738281 24.597656 21.332031 25.332031 21.332031 Z M 25.332031 21.332031 "/>
</svg>
