<svg width="12" height="12" viewBox="0 0 48 48" fill="none" xmlns="http://www.w3.org/2000/svg">
<path fill-rule="evenodd" clip-rule="evenodd" d="M16 22C16 23.1046 15.1046 24 14 24C12.8954 24 12 23.1046 12 22C12 20.8954 12.8954 20 14 20C15.1046 20 16 20.8954 16 22ZM16 32V29C16 29.5523 16.4477 30 17 30C17.5523 30 18 29.5523 18 29V25C18 24.4477 17.5523 24 17 24H16H14H12H11C10.4477 24 10 24.4477 10 25V29C10 29.5523 10.4477 30 11 30C11.5523 30 12 29.5523 12 29V32H4V44H8V36H20V44H24V32H16Z" fill="#ffffff"/>
<path d="M27.3625 7.75957L27.7814 7.58568L28.0942 8.30346L31.1998 7.03735L30.8798 6.30123L31.3442 6.10901C31.5475 6.02401 31.7053 5.86512 31.7881 5.66123C31.8714 5.45957 31.8703 5.23679 31.7865 5.03957L31.5981 4.49123C31.4242 4.09012 30.927 3.89234 30.5309 4.05957L26.5487 5.70901C26.1375 5.88123 25.9387 6.3579 26.1075 6.77735L26.2937 7.31568C26.4203 7.62346 26.7175 7.82179 27.0498 7.82179C27.1581 7.82179 27.2637 7.80068 27.3625 7.75957Z" fill="#ffffff"/>
<path d="M33.3024 8.67897L35.7074 14.4973L30.1279 16.7201L27.7462 10.9795C27.3779 10.0567 27.5185 9.73008 28.4223 9.36897L31.7201 8.02452C32.1321 7.85817 32.4077 7.7469 32.7229 7.88175C33.039 8.0173 33.1496 8.29452 33.3024 8.67897Z" fill="#ffffff"/>
<path d="M30.5406 17.7518L36.119 15.5295L36.4606 16.3623C36.5167 16.5001 36.5145 16.6545 36.4567 16.7918C36.2443 17.2868 36.0306 18.4532 35.4695 18.679L33.2001 19.5873C33.0636 19.6412 32.9098 19.6389 32.7751 19.5818L31.184 18.9001C31.0506 18.844 30.9445 18.7351 30.889 18.6007L30.5406 17.7518Z" fill="#ffffff"/>
<path d="M39.9417 20.0298C40.0848 19.9712 40.1532 19.8076 40.0945 19.6645C40.0359 19.5214 39.8723 19.453 39.7292 19.5117L32.6188 22.4271C32.0171 21.0228 30.6212 20.0368 28.9997 20.0368C26.8302 20.0368 25.0647 21.8018 25.0647 23.9718C25.0647 26.1418 26.8297 27.9068 28.9997 27.9068C31.1697 27.9068 32.9347 26.1418 32.9347 23.9718C32.9347 23.6211 32.8886 23.281 32.8021 22.9572L39.9417 20.0298Z" fill="#ffffff"/>
<path d="M43.4444 31.7496H24.5556C24.2489 31.7496 24 31.5013 24 31.1941V30.6385C24 29.7196 24.7167 28.9718 25.5972 28.9718H42.4028C43.2833 28.9718 44 29.7196 44 30.6385V31.1941C44 31.5013 43.7517 31.7496 43.4444 31.7496Z" fill="#ffffff"/>
<path d="M41.9807 25.7524C41.6713 24.9502 40.8857 24.4107 40.0252 24.4107C39.7674 24.4107 39.5135 24.4579 39.2729 24.5513L33.7963 26.6613C33.6418 26.7229 33.4535 26.7218 33.2529 26.6763C32.9679 27.1229 32.6185 27.5241 32.2113 27.8607H41.6096C41.7391 27.7091 41.8563 27.543 41.9402 27.3546C42.1679 26.843 42.183 26.2746 41.9807 25.7524Z" fill="#ffffff"/>
<path d="M26.8562 11.7341L28.529 15.7658C28.2506 16.1624 28.1679 16.6835 28.3618 17.1641C28.3788 17.2074 29.0011 18.9258 28.9995 18.9258C27.5162 18.9258 26.184 19.5735 25.2595 20.5963L24.4823 18.7413C23.4168 16.1085 24.4818 13.1397 26.8562 11.7341Z" fill="#ffffff"/>
</svg>
