<?xml version="1.0" encoding="UTF-8"?>
<svg xmlns="http://www.w3.org/2000/svg" xmlns:xlink="http://www.w3.org/1999/xlink" width="12" height="12" viewBox="0 0 12 12" version="1.1">
<g id="surface1">
<path style=" stroke:none;fill-rule:nonzero;fill:rgb(100%,100%,100%);fill-opacity:1;" d="M 1 2.5 C 1 2.222656 1.222656 2 1.5 2 L 10.5 2 C 10.777344 2 11 2.222656 11 2.5 L 11 4 L 1 4 Z M 1 2.5 "/>
<path style=" stroke:none;fill-rule:evenodd;fill:rgb(100%,100%,100%);fill-opacity:1;" d="M 1 5 L 11 5 L 11 9.5 C 11 9.777344 10.777344 10 10.5 10 L 1.5 10 C 1.222656 10 1 9.777344 1 9.5 Z M 5.5 6 L 5.5 7 L 4.5 7 L 4.5 8 L 5.5 8 L 5.5 9 L 6.5 9 L 6.5 8 L 7.5 8 L 7.5 7 L 6.5 7 L 6.5 6 Z M 5.5 6 "/>
</g>
</svg>
