<?xml version="1.0" encoding="UTF-8"?>
<svg xmlns="http://www.w3.org/2000/svg" xmlns:xlink="http://www.w3.org/1999/xlink" width="32" height="32" viewBox="0 0 32 32">
<path fill-rule="nonzero" fill="rgb(100%, 100%, 100%)" fill-opacity="1" d="M 23.933594 8.128906 C 24.253906 7.730469 24.421875 5.996094 24.664062 5.996094 C 24.886719 5.996094 25.257812 6.449219 25.183594 7.472656 C 25.070312 8.914062 23.996094 9.496094 23.996094 10.066406 C 23.996094 11.371094 24.550781 13.269531 24.851562 16.5625 C 25.253906 20.945312 23.65625 23.398438 24.574219 24.609375 C 24.925781 25.070312 25.910156 25.445312 25.910156 26.5 L 19.648438 26.492188 C 19.648438 25.089844 20.554688 25.277344 20.96875 24.570312 C 23.867188 19.648438 22.8125 10.652344 22.441406 9.726562 C 22.128906 8.945312 21.417969 8.566406 21.417969 6.824219 C 21.417969 6.253906 21.6875 5.5 21.9375 5.5 C 22.742188 5.5 22.273438 7.960938 23.132812 8.332031 C 23.367188 8.433594 23.644531 8.488281 23.933594 8.125 Z M 23.933594 8.128906 "/>
<path fill-rule="nonzero" fill="rgb(100%, 100%, 100%)" fill-opacity="1" d="M 29.929688 8.738281 C 29.589844 8.738281 29.597656 9.597656 29.566406 9.804688 C 29.503906 10.246094 29.402344 11.171875 28.957031 11.171875 C 28.5 11.171875 28.328125 10.589844 28.277344 10.246094 C 28.226562 9.90625 28.074219 9.253906 27.613281 9.324219 C 27.238281 9.382812 27.28125 10.105469 27.34375 10.417969 C 27.671875 12.140625 28.601562 11.933594 28.199219 13.878906 C 27.476562 17.34375 25.203125 18.855469 23.832031 18.101562 C 23.566406 19.890625 23.835938 21.035156 23.835938 21.035156 C 28.089844 20.882812 29.386719 15.703125 29.570312 13.128906 C 29.621094 12.441406 29.746094 11.980469 29.945312 11.527344 C 30.136719 11.097656 30.320312 10.867188 30.390625 10.359375 C 30.484375 9.660156 30.460938 8.738281 29.929688 8.738281 Z M 29.929688 8.738281 "/>
<path fill-rule="nonzero" fill="rgb(100%, 100%, 100%)" fill-opacity="1" d="M 16.082031 14.351562 C 16.367188 14.351562 16.449219 14.996094 16.476562 15.148438 C 16.527344 15.46875 16.789062 16.28125 17.207031 16.28125 C 17.621094 16.28125 17.832031 15.792969 17.902344 14.769531 C 17.921875 14.511719 18.152344 14.367188 18.347656 14.425781 C 18.53125 14.476562 18.742188 14.722656 18.742188 14.960938 C 18.742188 17.261719 17.480469 16.796875 17.996094 18.140625 C 18.671875 19.898438 22.304688 20.359375 23.34375 19.640625 C 23.566406 20.941406 22.726562 22.425781 22.726562 22.425781 C 18.207031 22.144531 17.082031 20.09375 16.628906 17.503906 C 16.464844 16.578125 15.714844 16.367188 15.714844 15.15625 C 15.714844 14.476562 15.921875 14.351562 16.082031 14.351562 Z M 16.082031 14.351562 "/>
<path fill-rule="nonzero" fill="rgb(100%, 100%, 100%)" fill-opacity="1" d="M 22.292969 17.113281 C 22.34375 16.328125 22.363281 15.566406 22.359375 14.84375 C 21.484375 14.332031 20.511719 13.375 20.316406 12.488281 C 20 11.027344 20.980469 11.667969 20.980469 9.367188 C 20.980469 9.132812 20.769531 8.882812 20.585938 8.832031 C 20.394531 8.773438 20.160156 8.917969 20.140625 9.175781 C 20.070312 10.199219 19.859375 10.6875 19.445312 10.6875 C 19.027344 10.6875 18.765625 9.875 18.714844 9.554688 C 18.6875 9.402344 18.605469 8.757812 18.320312 8.757812 C 18.160156 8.757812 17.953125 8.882812 17.953125 9.566406 C 17.953125 10.773438 18.597656 11.039062 18.867188 11.910156 C 19.511719 14.007812 19.992188 15.601562 22.292969 17.113281 Z M 22.292969 17.113281 "/>
<path fill-rule="nonzero" fill="rgb(100%, 100%, 100%)" fill-opacity="1" d="M 12.753906 21.101562 C 11.394531 21.101562 10.589844 21.542969 10.589844 23.011719 C 10.589844 23.972656 11.792969 24.734375 12.621094 24.398438 C 12.710938 24.363281 12.757812 24.269531 12.667969 24.257812 C 12.03125 24.171875 11.417969 23.738281 11.417969 23.0625 C 11.417969 22.257812 12.238281 22.035156 12.835938 22.035156 C 13.429688 22.035156 14.328125 22.542969 14.328125 23.664062 C 14.328125 24.785156 13.023438 25.710938 12 25.710938 C 10.976562 25.710938 9.652344 25.21875 9.652344 22.839844 C 9.652344 19.503906 14.007812 19.046875 14.007812 15.121094 C 14.007812 11.855469 7.878906 11.246094 7.867188 9.058594 C 8.0625 9.410156 8.894531 10.011719 9.671875 10.253906 C 10.953125 10.65625 12.511719 10.109375 13.664062 11.191406 C 14.027344 11.527344 15.3125 10 14.617188 9.304688 C 14.617188 9.304688 12.632812 9.011719 11.921875 7.476562 C 11.828125 7.273438 11.644531 6.714844 12.21875 6.140625 C 12.371094 5.988281 12.191406 5.917969 12.105469 5.921875 C 11.542969 5.957031 11.003906 6.292969 10.859375 6.472656 C 10.535156 6.238281 9.960938 4.914062 9.960938 4.914062 C 9.960938 4.914062 4.675781 5.003906 4.675781 9.070312 C 4.675781 11.3125 5.730469 13.132812 5.699219 13.449219 C 5.269531 13.585938 4.007812 12.347656 3.492188 11.882812 C 3.308594 11.71875 3.054688 11.675781 2.851562 11.828125 C 2.546875 12.054688 2.042969 12.480469 2.042969 15.019531 C 2.042969 17.171875 4.175781 19.15625 4.652344 19.347656 C 4.851562 19.425781 5.140625 19.335938 5.203125 19.15625 C 5.496094 18.382812 5.964844 15.855469 6.808594 15.855469 C 7.765625 17.195312 6.316406 18.535156 6.316406 22.316406 C 6.316406 25.785156 8.597656 27.085938 11.746094 27.085938 C 14.542969 27.085938 15.71875 25.242188 15.71875 23.667969 C 15.71875 22.078125 14.113281 21.101562 12.753906 21.101562 Z M 10.589844 7.855469 C 10.828125 7.855469 11.019531 8.046875 11.019531 8.28125 C 11.019531 8.519531 10.828125 8.710938 10.589844 8.710938 C 10.355469 8.710938 10.164062 8.519531 10.164062 8.28125 C 10.164062 8.046875 10.355469 7.855469 10.589844 7.855469 Z M 10.589844 7.855469 "/>
</svg>
