<?xml version="1.0" encoding="UTF-8"?>
<svg xmlns="http://www.w3.org/2000/svg" xmlns:xlink="http://www.w3.org/1999/xlink" width="32" height="32" viewBox="0 0 32 32">
<defs>
<filter id="filter-remove-color" x="0%" y="0%" width="100%" height="100%">
<feColorMatrix color-interpolation-filters="sRGB" values="0 0 0 0 1 0 0 0 0 1 0 0 0 0 1 0 0 0 1 0" />
</filter>
<mask id="mask-0">
<g filter="url(#filter-remove-color)">
<rect x="-3.2" y="-3.2" width="38.4" height="38.4" fill="rgb(0%, 0%, 0%)" fill-opacity="0.4"/>
</g>
</mask>
<clipPath id="clip-0">
<rect x="0" y="0" width="32" height="32"/>
</clipPath>
<g id="source-6" clip-path="url(#clip-0)">
<path fill-rule="nonzero" fill="rgb(100%, 100%, 100%)" fill-opacity="1" d="M 5.332031 26.667969 L 21.332031 26.667969 L 21.332031 29.332031 L 5.332031 29.332031 Z M 5.332031 26.667969 "/>
</g>
</defs>
<g mask="url(#mask-0)">
<use xlink:href="#source-6"/>
</g>
<path fill-rule="nonzero" fill="rgb(100%, 100%, 100%)" fill-opacity="1" d="M 5.332031 21.332031 L 26.667969 21.332031 L 26.667969 24 L 5.332031 24 Z M 5.332031 21.332031 "/>
<path fill-rule="nonzero" fill="rgb(100%, 100%, 100%)" fill-opacity="1" d="M 13.332031 9.332031 C 13.332031 10.070312 12.738281 10.667969 12 10.667969 C 11.261719 10.667969 10.667969 10.070312 10.667969 9.332031 C 10.667969 8.597656 11.261719 8 12 8 C 12.738281 8 13.332031 8.597656 13.332031 9.332031 Z M 13.332031 9.332031 "/>
<path fill-rule="evenodd" fill="rgb(100%, 100%, 100%)" fill-opacity="1" d="M 8 2.667969 C 6.527344 2.667969 5.332031 3.859375 5.332031 5.332031 L 5.332031 18.667969 L 26.667969 18.667969 L 26.667969 5.332031 C 26.667969 3.859375 25.472656 2.667969 24 2.667969 Z M 16 9.332031 C 16 12 12 16 12 16 C 12 16 8 12 8 9.332031 C 8 7.199219 9.789062 5.332031 12 5.332031 C 14.210938 5.332031 16 7.199219 16 9.332031 Z M 16 9.332031 "/>
</svg>
