<?xml version="1.0" encoding="UTF-8"?>
<svg xmlns="http://www.w3.org/2000/svg" xmlns:xlink="http://www.w3.org/1999/xlink" width="32" height="32" viewBox="0 0 32 32">
<path fill-rule="evenodd" fill="rgb(100%, 100%, 100%)" fill-opacity="1" d="M 10.667969 14.667969 C 10.667969 15.402344 10.070312 16 9.332031 16 C 8.597656 16 8 15.402344 8 14.667969 C 8 13.929688 8.597656 13.332031 9.332031 13.332031 C 10.070312 13.332031 10.667969 13.929688 10.667969 14.667969 Z M 10.667969 21.332031 L 10.667969 19.332031 C 10.667969 19.703125 10.964844 20 11.332031 20 C 11.703125 20 12 19.703125 12 19.332031 L 12 16.667969 C 12 16.296875 11.703125 16 11.332031 16 L 7.332031 16 C 6.964844 16 6.667969 16.296875 6.667969 16.667969 L 6.667969 19.332031 C 6.667969 19.703125 6.964844 20 7.332031 20 C 7.703125 20 8 19.703125 8 19.332031 L 8 21.332031 L 2.667969 21.332031 L 2.667969 29.332031 L 5.332031 29.332031 L 5.332031 24 L 13.332031 24 L 13.332031 29.332031 L 16 29.332031 L 16 21.332031 Z M 10.667969 21.332031 "/>
<path fill-rule="nonzero" fill="rgb(100%, 100%, 100%)" fill-opacity="1" d="M 18.242188 5.171875 L 18.519531 5.058594 L 18.730469 5.535156 L 20.800781 4.691406 L 20.585938 4.199219 L 20.894531 4.074219 C 21.03125 4.015625 21.136719 3.910156 21.191406 3.773438 C 21.246094 3.640625 21.246094 3.492188 21.191406 3.359375 L 21.066406 2.996094 C 20.949219 2.726562 20.617188 2.59375 20.355469 2.707031 L 17.699219 3.804688 C 17.425781 3.921875 17.292969 4.238281 17.40625 4.519531 L 17.527344 4.878906 C 17.613281 5.082031 17.8125 5.214844 18.03125 5.214844 C 18.105469 5.214844 18.175781 5.199219 18.242188 5.171875 Z M 18.242188 5.171875 "/>
<path fill-rule="nonzero" fill="rgb(100%, 100%, 100%)" fill-opacity="1" d="M 22.203125 5.785156 L 23.804688 9.664062 L 20.085938 11.148438 L 18.496094 7.320312 C 18.25 6.703125 18.34375 6.488281 18.949219 6.246094 L 21.148438 5.351562 C 21.421875 5.238281 21.605469 5.164062 21.816406 5.253906 C 22.027344 5.34375 22.101562 5.53125 22.203125 5.785156 Z M 22.203125 5.785156 "/>
<path fill-rule="nonzero" fill="rgb(100%, 100%, 100%)" fill-opacity="1" d="M 20.359375 11.835938 L 24.078125 10.351562 L 24.308594 10.90625 C 24.34375 11 24.34375 11.101562 24.304688 11.195312 C 24.164062 11.523438 24.019531 12.300781 23.644531 12.453125 L 22.132812 13.058594 C 22.042969 13.09375 21.941406 13.09375 21.851562 13.054688 L 20.789062 12.601562 C 20.699219 12.5625 20.628906 12.488281 20.59375 12.402344 Z M 20.359375 11.835938 "/>
<path fill-rule="nonzero" fill="rgb(100%, 100%, 100%)" fill-opacity="1" d="M 26.628906 13.351562 C 26.722656 13.3125 26.769531 13.203125 26.730469 13.109375 C 26.691406 13.015625 26.582031 12.96875 26.484375 13.007812 L 21.746094 14.953125 C 21.34375 14.015625 20.414062 13.359375 19.332031 13.359375 C 17.886719 13.359375 16.710938 14.535156 16.710938 15.980469 C 16.710938 17.429688 17.886719 18.605469 19.332031 18.605469 C 20.78125 18.605469 21.957031 17.429688 21.957031 15.980469 C 21.957031 15.746094 21.925781 15.519531 21.867188 15.304688 Z M 26.628906 13.351562 "/>
<path fill-rule="nonzero" fill="rgb(100%, 100%, 100%)" fill-opacity="1" d="M 28.964844 21.167969 L 16.371094 21.167969 C 16.164062 21.167969 16 21 16 20.796875 L 16 20.425781 C 16 19.8125 16.476562 19.316406 17.066406 19.316406 L 28.269531 19.316406 C 28.855469 19.316406 29.332031 19.8125 29.332031 20.425781 L 29.332031 20.796875 C 29.332031 21 29.167969 21.167969 28.964844 21.167969 Z M 28.964844 21.167969 "/>
<path fill-rule="nonzero" fill="rgb(100%, 100%, 100%)" fill-opacity="1" d="M 27.988281 17.167969 C 27.78125 16.632812 27.257812 16.273438 26.683594 16.273438 C 26.511719 16.273438 26.34375 16.304688 26.183594 16.367188 L 22.53125 17.773438 C 22.429688 17.816406 22.300781 17.816406 22.167969 17.785156 C 21.980469 18.082031 21.746094 18.347656 21.472656 18.574219 L 27.738281 18.574219 C 27.824219 18.472656 27.902344 18.363281 27.960938 18.238281 C 28.113281 17.894531 28.121094 17.515625 27.988281 17.167969 Z M 27.988281 17.167969 "/>
<path fill-rule="nonzero" fill="rgb(100%, 100%, 100%)" fill-opacity="1" d="M 17.902344 7.824219 L 19.019531 10.511719 C 18.832031 10.773438 18.777344 11.121094 18.90625 11.441406 C 18.917969 11.472656 19.335938 12.617188 19.332031 12.617188 C 18.34375 12.617188 17.457031 13.050781 16.839844 13.730469 L 16.320312 12.496094 C 15.609375 10.738281 16.320312 8.761719 17.902344 7.824219 Z M 17.902344 7.824219 "/>
</svg>
