<?xml version="1.0" encoding="UTF-8"?>
<svg xmlns="http://www.w3.org/2000/svg" xmlns:xlink="http://www.w3.org/1999/xlink" width="12" height="12" viewBox="0 0 12 12">
<defs>
<filter id="filter-remove-color" x="0%" y="0%" width="100%" height="100%">
<feColorMatrix color-interpolation-filters="sRGB" values="0 0 0 0 1 0 0 0 0 1 0 0 0 0 1 0 0 0 1 0" />
</filter>
<mask id="mask-0">
<g filter="url(#filter-remove-color)">
<rect x="-1.2" y="-1.2" width="14.4" height="14.4" fill="rgb(0%, 0%, 0%)" fill-opacity="0.5"/>
</g>
</mask>
<clipPath id="clip-0">
<rect x="0" y="0" width="12" height="12"/>
</clipPath>
<g id="source-6" clip-path="url(#clip-0)">
<path fill-rule="nonzero" fill="rgb(100%, 100%, 100%)" fill-opacity="1" d="M 5 3 L 6 3 L 6 9 L 5 9 Z M 5 3 "/>
</g>
</defs>
<g mask="url(#mask-0)">
<use xlink:href="#source-6"/>
</g>
<path fill-rule="evenodd" fill="rgb(100%, 100%, 100%)" fill-opacity="1" d="M 1 3 L 11 3 L 11 9 L 1 9 Z M 0 3 C 0 2.449219 0.449219 2 1 2 L 11 2 C 11.550781 2 12 2.449219 12 3 L 12 9 C 12 9.550781 11.550781 10 11 10 L 1 10 C 0.449219 10 0 9.550781 0 9 Z M 7 4 L 10 4 L 10 6 L 7 6 Z M 7 7 L 9 7 L 9 8 L 7 8 Z M 7 7 "/>
<path fill-rule="evenodd" fill="rgb(100%, 100%, 100%)" fill-opacity="1" d="M 3 4 L 3 5.441406 C 3 5.59375 2.914062 5.734375 2.777344 5.804688 C 2.300781 6.039062 2 6.527344 2 7.058594 L 2 8 L 3 8 L 3 7.058594 C 3 6.90625 3.085938 6.765625 3.222656 6.695312 C 3.699219 6.460938 4 5.972656 4 5.441406 L 4 4 Z M 3 4 "/>
</svg>
