<?xml version="1.0" encoding="UTF-8"?>
<svg xmlns="http://www.w3.org/2000/svg" xmlns:xlink="http://www.w3.org/1999/xlink" width="12" height="12" viewBox="0 0 12 12">
<path fill-rule="nonzero" fill="rgb(100%, 100%, 100%)" fill-opacity="1" d="M 2 9 L 2 1 L 7.003906 1 L 7.003906 3.507812 C 7.003906 3.707031 7.070312 3.890625 7.199219 4.054688 C 7.332031 4.214844 7.5 4.328125 7.699219 4.386719 L 9.582031 4.753906 C 9.992188 4.875 10.328125 5.085938 10.585938 5.390625 C 10.84375 5.699219 11 6.066406 11 6.5 L 11 9 Z M 3 8 L 10.003906 8 L 10.003906 6.5 C 10.003906 6.300781 9.960938 6.125 9.832031 5.976562 C 9.699219 5.824219 9.53125 5.714844 9.332031 5.648438 L 7.449219 5.277344 C 7.195312 5.210938 6.960938 5.09375 6.746094 4.925781 C 6.535156 4.761719 6.292969 4.574219 6.195312 4.359375 L 5.113281 4.359375 C 5.023438 4.359375 4.953125 4.332031 4.890625 4.269531 C 4.828125 4.207031 4.796875 4.136719 4.796875 4.054688 C 4.796875 3.972656 4.828125 3.902344 4.894531 3.839844 C 4.957031 3.78125 5.027344 3.75 5.113281 3.75 L 6 3.75 L 6 3.140625 L 5.113281 3.140625 C 5.027344 3.140625 4.957031 3.109375 4.894531 3.046875 C 4.828125 2.984375 4.796875 2.914062 4.796875 2.832031 C 4.796875 2.75 4.828125 2.679688 4.894531 2.621094 C 4.957031 2.558594 5.027344 2.527344 5.113281 2.527344 L 6 2.527344 L 6 2 L 3 2 Z M 2.417969 12 C 2.023438 12 1.6875 11.867188 1.414062 11.597656 C 1.136719 11.332031 1 11.007812 1 10.625 C 1 10.242188 1.136719 9.917969 1.414062 9.652344 C 1.6875 9.382812 2.023438 9.25 2.417969 9.25 C 2.8125 9.25 3.148438 9.382812 3.421875 9.652344 C 3.699219 9.917969 3.835938 10.242188 3.835938 10.625 C 3.835938 11.007812 3.699219 11.332031 3.421875 11.597656 C 3.148438 11.867188 2.8125 12 2.417969 12 Z M 2.414062 11.082031 C 2.546875 11.082031 2.660156 11.039062 2.753906 10.953125 C 2.84375 10.863281 2.890625 10.757812 2.890625 10.628906 C 2.890625 10.5 2.84375 10.390625 2.753906 10.300781 C 2.664062 10.210938 2.554688 10.167969 2.421875 10.167969 C 2.289062 10.167969 2.175781 10.210938 2.082031 10.296875 C 1.992188 10.386719 1.945312 10.492188 1.945312 10.621094 C 1.945312 10.75 1.992188 10.859375 2.082031 10.949219 C 2.171875 11.039062 2.28125 11.082031 2.414062 11.082031 Z M 9.664062 12 C 9.269531 12 8.9375 11.867188 8.660156 11.597656 C 8.386719 11.332031 8.246094 11.007812 8.246094 10.625 C 8.246094 10.242188 8.386719 9.917969 8.660156 9.652344 C 8.9375 9.382812 9.269531 9.25 9.664062 9.25 C 10.058594 9.25 10.394531 9.382812 10.667969 9.652344 C 10.945312 9.917969 11.082031 10.242188 11.082031 10.625 C 11.082031 11.007812 10.945312 11.332031 10.667969 11.597656 C 10.394531 11.867188 10.058594 12 9.664062 12 Z M 9.664062 11.082031 C 9.796875 11.082031 9.910156 11.039062 10 10.953125 C 10.09375 10.863281 10.136719 10.757812 10.136719 10.628906 C 10.136719 10.5 10.09375 10.390625 10.003906 10.300781 C 9.914062 10.210938 9.800781 10.167969 9.667969 10.167969 C 9.535156 10.167969 9.421875 10.210938 9.332031 10.296875 C 9.238281 10.386719 9.191406 10.492188 9.191406 10.621094 C 9.191406 10.75 9.238281 10.859375 9.328125 10.949219 C 9.417969 11.039062 9.53125 11.082031 9.664062 11.082031 Z M 6.042969 12 C 5.648438 12 5.3125 11.867188 5.039062 11.597656 C 4.761719 11.332031 4.625 11.007812 4.625 10.625 C 4.625 10.242188 4.761719 9.917969 5.039062 9.652344 C 5.3125 9.382812 5.648438 9.25 6.042969 9.25 C 6.4375 9.25 6.769531 9.382812 7.046875 9.652344 C 7.320312 9.917969 7.460938 10.242188 7.460938 10.625 C 7.460938 11.007812 7.320312 11.332031 7.046875 11.597656 C 6.769531 11.867188 6.4375 12 6.042969 12 Z M 6.039062 11.082031 C 6.171875 11.082031 6.285156 11.039062 6.375 10.953125 C 6.46875 10.863281 6.515625 10.757812 6.515625 10.628906 C 6.515625 10.5 6.46875 10.390625 6.378906 10.300781 C 6.289062 10.210938 6.175781 10.167969 6.042969 10.167969 C 5.910156 10.167969 5.796875 10.210938 5.707031 10.296875 C 5.613281 10.386719 5.570312 10.492188 5.570312 10.621094 C 5.570312 10.75 5.613281 10.859375 5.703125 10.949219 C 5.792969 11.039062 5.90625 11.082031 6.039062 11.082031 Z M 6.039062 11.082031 "/>
</svg>
