<svg width="48" height="48" viewBox="0 0 48 48" fill="none" xmlns="http://www.w3.org/2000/svg">
<path fill-rule="evenodd" clip-rule="evenodd" d="M4 12C4 9.79086 5.79086 8 8 8H40C42.2091 8 44 9.79086 44 12V28C44 30.2091 42.2091 32 40 32H32H16H8C5.79086 32 4 30.2091 4 28V12ZM10 12H12V26H18V12H20V26H26V12H28V26H34V12H36V26H40V28H8V26H10V12Z" fill="#ffffff"/>
<path d="M8 32C5.79086 32 4 33.7909 4 36C4 38.2091 5.79086 40 8 40C9.86384 40 11.4299 38.7252 11.874 37H8C7.44772 37 7 36.5523 7 36C7 35.4477 7.44772 35 8 35H11.874C11.4299 33.2748 9.86384 32 8 32Z" fill="#ffffff"/>
<path d="M16 32C18.2091 32 20 33.7909 20 36C20 38.2091 18.2091 40 16 40C14.1362 40 12.5701 38.7252 12.126 37H16C16.5523 37 17 36.5523 17 36C17 35.4477 16.5523 35 16 35H12.126C12.5701 33.2748 14.1362 32 16 32Z" fill="#ffffff"/>
<path d="M32 32C29.7909 32 28 33.7909 28 36C28 38.2091 29.7909 40 32 40C33.8638 40 35.4299 38.7252 35.874 37H32C31.4477 37 31 36.5523 31 36C31 35.4477 31.4477 35 32 35H35.874C35.4299 33.2748 33.8638 32 32 32Z" fill="#ffffff"/>
<path d="M40 32C42.2091 32 44 33.7909 44 36C44 38.2091 42.2091 40 40 40C38.1362 40 36.5701 38.7252 36.126 37H40C40.5523 37 41 36.5523 41 36C41 35.4477 40.5523 35 40 35H36.126C36.5701 33.2748 38.1362 32 40 32Z" fill="#ffffff"/>
</svg>
