<?xml version="1.0" encoding="UTF-8"?>
<svg xmlns="http://www.w3.org/2000/svg" xmlns:xlink="http://www.w3.org/1999/xlink" width="12" height="12" viewBox="0 0 12 12">
<defs>
<filter id="filter-remove-color" x="0%" y="0%" width="100%" height="100%">
<feColorMatrix color-interpolation-filters="sRGB" values="0 0 0 0 1 0 0 0 0 1 0 0 0 0 1 0 0 0 1 0" />
</filter>
<mask id="mask-0">
<g filter="url(#filter-remove-color)">
<rect x="-1.2" y="-1.2" width="14.4" height="14.4" fill="rgb(0%, 0%, 0%)" fill-opacity="0.5"/>
</g>
</mask>
<clipPath id="clip-0">
<rect x="0" y="0" width="12" height="12"/>
</clipPath>
<g id="source-7" clip-path="url(#clip-0)">
<path fill-rule="nonzero" fill="rgb(100%, 100%, 100%)" fill-opacity="1" d="M 3.5 9 L 4.5 9 L 3.832031 11 L 8.167969 11 L 7.5 9 L 8.5 9 L 9.5 12 L 2.5 12 Z M 3.5 9 "/>
</g>
</defs>
<path fill-rule="evenodd" fill="rgb(100%, 100%, 100%)" fill-opacity="1" d="M 8.292969 1 L 7.976562 1 C 7.859375 0.429688 7.355469 0 6.75 0 L 5.25 0 C 4.644531 0 4.140625 0.429688 4.023438 1 L 3.707031 1 C 3.253906 1 2.820312 1.179688 2.5 1.5 C 2.179688 1.820312 2 2.253906 2 2.707031 L 2 9 C 2 9.550781 2.449219 10 3 10 L 9 10 C 9.550781 10 10 9.550781 10 9 L 10 2.707031 C 10 2.253906 9.820312 1.820312 9.5 1.5 C 9.179688 1.179688 8.746094 1 8.292969 1 Z M 5 1.5 C 5 1.222656 5.222656 1 5.5 1 L 6.5 1 C 6.777344 1 7 1.222656 7 1.5 C 7 1.777344 6.777344 2 6.5 2 L 5.5 2 C 5.222656 2 5 1.777344 5 1.5 Z M 5.5 4 L 3 4 L 3 7 L 5.5 7 Z M 9 4 L 6.5 4 L 6.5 7 L 9 7 Z M 4 8.5 C 4 8.777344 3.777344 9 3.5 9 C 3.222656 9 3 8.777344 3 8.5 C 3 8.222656 3.222656 8 3.5 8 C 3.777344 8 4 8.222656 4 8.5 Z M 8.5 9 C 8.777344 9 9 8.777344 9 8.5 C 9 8.222656 8.777344 8 8.5 8 C 8.222656 8 8 8.222656 8 8.5 C 8 8.777344 8.222656 9 8.5 9 Z M 8.5 9 "/>
<g mask="url(#mask-0)">
<use xlink:href="#source-7"/>
</g>
</svg>
