<svg width="48" height="48" viewBox="0 0 48 48" fill="none" xmlns="http://www.w3.org/2000/svg">
<path fill-rule="evenodd" clip-rule="evenodd" d="M33.1716 4H31.9C31.4367 1.71776 29.419 0 27 0H21C18.581 0 16.5633 1.71776 16.1 4H14.8284C13.0174 4 11.2806 4.71942 10 6C8.71942 7.28058 8 9.01742 8 10.8284V36C8 38.2091 9.79086 40 12 40H36C38.2091 40 40 38.2091 40 36V10.8284C40 9.01742 39.2806 7.28058 38 6C36.7194 4.71942 34.9826 4 33.1716 4ZM20 6C20 4.89543 20.8954 4 22 4H26C27.1046 4 28 4.89543 28 6C28 7.10457 27.1046 8 26 8H22C20.8954 8 20 7.10457 20 6ZM22 16H12V28H22V16ZM36 16H26V28H36V16ZM16 34C16 35.1046 15.1046 36 14 36C12.8954 36 12 35.1046 12 34C12 32.8954 12.8954 32 14 32C15.1046 32 16 32.8954 16 34ZM34 36C35.1046 36 36 35.1046 36 34C36 32.8954 35.1046 32 34 32C32.8954 32 32 32.8954 32 34C32 35.1046 32.8954 36 34 36Z" fill="#ffffff"/>
<path opacity="0.5" d="M14 36H18L15.3333 44H32.6667L30 36H34L38 48H10L14 36Z" fill="#ffffff"/>
</svg>
