<svg width="12" height="12" viewBox="0 0 48 48" fill="none" xmlns="http://www.w3.org/2000/svg">
<path fill-rule="evenodd" clip-rule="evenodd" d="M10.5839 41.8879C8.99533 40.4258 7.99997 38.3292 7.99997 36V18.8284C7.99997 15.9566 9.14082 13.2023 11.1715 11.1716C11.5852 10.7579 12.029 10.3811 12.4976 10.0434C13.7213 6.5241 17.0645 4 21 4H27C30.9354 4 34.2787 6.52411 35.5023 10.0434C35.971 10.3811 36.4147 10.7579 36.8284 11.1716C38.8591 13.2023 40 15.9566 40 18.8284V36C40 38.3292 39.0046 40.4258 37.416 41.8879L40.4721 48H7.52783L10.5839 41.8879Z" fill="#00293D" fill-opacity="0.75"/>
<path fill-rule="evenodd" clip-rule="evenodd" d="M31.9847 12.6064C32.728 12.9425 33.4121 13.4121 34 14C35.2806 15.2806 36 17.0174 36 18.8284V36C36 38.2091 34.2091 40 32 40L34 44H14L16 40C13.7909 40 12 38.2091 12 36V18.8284C12 17.0174 12.7194 15.2806 14 14C14.5879 13.4121 15.272 12.9425 16.0153 12.6064C16.216 10.029 18.371 8 21 8H27C29.629 8 31.784 10.029 31.9847 12.6064ZM20 14C20 12.8954 20.8954 12 22 12H26C27.1046 12 28 12.8954 28 14C28 15.1046 27.1046 16 26 16H22C20.8954 16 20 15.1046 20 14ZM22 20H16V28H22V20ZM32 20H26V28H32V20ZM20 34C20 35.1046 19.1046 36 18 36C16.8954 36 16 35.1046 16 34C16 32.8954 16.8954 32 18 32C19.1046 32 20 32.8954 20 34ZM30 36C31.1046 36 32 35.1046 32 34C32 32.8954 31.1046 32 30 32C28.8954 32 28 32.8954 28 34C28 35.1046 28.8954 36 30 36Z" fill="#0092DA"/>
</svg>
