<?xml version="1.0" encoding="UTF-8"?>
<svg xmlns="http://www.w3.org/2000/svg" xmlns:xlink="http://www.w3.org/1999/xlink" width="32" height="32" viewBox="0 0 32 32">
<path fill-rule="evenodd" fill="rgb(24.705882%, 24.705882%, 24.705882%)" fill-opacity="1" d="M 21.265625 2.667969 L 22.113281 2.667969 C 23.320312 2.667969 24.480469 3.144531 25.332031 4 C 26.1875 4.855469 26.667969 6.011719 26.667969 7.21875 L 26.667969 24 C 26.667969 25.472656 25.472656 26.667969 24 26.667969 L 24 24 C 24 22.527344 22.804688 21.332031 21.332031 21.332031 L 10.667969 21.332031 C 9.195312 21.332031 8 22.527344 8 24 L 8 26.667969 C 6.527344 26.667969 5.332031 25.472656 5.332031 24 L 5.332031 7.21875 C 5.332031 6.011719 5.8125 4.855469 6.667969 4 C 7.519531 3.144531 8.679688 2.667969 9.886719 2.667969 L 10.734375 2.667969 C 11.042969 1.144531 12.386719 0 14 0 L 18 0 C 19.613281 0 20.957031 1.144531 21.265625 2.667969 Z M 13.332031 4 C 13.332031 3.261719 13.929688 2.667969 14.667969 2.667969 L 17.332031 2.667969 C 18.070312 2.667969 18.667969 3.261719 18.667969 4 C 18.667969 4.738281 18.070312 5.332031 17.332031 5.332031 L 14.667969 5.332031 C 13.929688 5.332031 13.332031 4.738281 13.332031 4 Z M 14.667969 8 L 8 8 L 8 13.332031 L 14.667969 13.332031 Z M 24 8 L 17.332031 8 L 17.332031 13.332031 L 24 13.332031 Z M 10.667969 17.332031 C 10.667969 18.070312 10.070312 18.667969 9.332031 18.667969 C 8.597656 18.667969 8 18.070312 8 17.332031 C 8 16.597656 8.597656 16 9.332031 16 C 10.070312 16 10.667969 16.597656 10.667969 17.332031 Z M 22.667969 18.667969 C 23.402344 18.667969 24 18.070312 24 17.332031 C 24 16.597656 23.402344 16 22.667969 16 C 21.929688 16 21.332031 16.597656 21.332031 17.332031 C 21.332031 18.070312 21.929688 18.667969 22.667969 18.667969 Z M 22.667969 18.667969 "/>
<path fill-rule="nonzero" fill="rgb(24.705882%, 24.705882%, 24.705882%)" fill-opacity="1" d="M 12 24 C 11.261719 24 10.667969 24.597656 10.667969 25.332031 L 10.667969 30.667969 C 10.667969 31.402344 11.261719 32 12 32 L 20 32 C 20.738281 32 21.332031 31.402344 21.332031 30.667969 L 21.332031 25.332031 C 21.332031 24.597656 20.738281 24 20 24 Z M 12 24 "/>
</svg>
