<?xml version="1.0" encoding="UTF-8"?>
<svg xmlns="http://www.w3.org/2000/svg" xmlns:xlink="http://www.w3.org/1999/xlink" width="32" height="32" viewBox="0 0 32 32">
<path fill-rule="nonzero" fill="rgb(100%, 100%, 100%)" fill-opacity="1" d="M 20 5.332031 C 20 6.804688 18.804688 8 17.332031 8 C 15.859375 8 14.667969 6.804688 14.667969 5.332031 C 14.667969 3.859375 15.859375 2.667969 17.332031 2.667969 C 18.804688 2.667969 20 3.859375 20 5.332031 Z M 20 5.332031 "/>
<path fill-rule="nonzero" fill="rgb(100%, 100%, 100%)" fill-opacity="1" d="M 8.304688 14.273438 L 11.636719 8.941406 C 12.257812 7.945312 13.652344 7.710938 14.566406 8.425781 L 17.402344 10.441406 C 17.621094 10.589844 17.878906 10.667969 18.140625 10.667969 L 22.667969 10.667969 L 22.667969 13.332031 L 18.140625 13.332031 C 17.351562 13.332031 16.578125 13.097656 15.921875 12.660156 L 14.621094 11.796875 L 12.730469 15.214844 L 16.40625 17.972656 C 16.914062 18.351562 17.269531 18.902344 17.410156 19.527344 L 18.636719 25.042969 L 16.03125 25.621094 L 14.804688 20.105469 L 9.332031 17.332031 C 8 16.667969 7.742188 15.167969 8.304688 14.273438 Z M 8.304688 14.273438 "/>
<path fill-rule="evenodd" fill="rgb(100%, 100%, 100%)" fill-opacity="1" d="M 29.332031 20 C 29.332031 21.886719 28.355469 23.542969 26.878906 24.492188 L 29.332031 24 L 29.332031 29.332031 L 2.667969 29.332031 L 5.574219 28.75 C 3.847656 27.867188 2.667969 26.074219 2.667969 24 C 2.667969 21.054688 5.054688 18.667969 8 18.667969 C 10.945312 18.667969 13.332031 21.054688 13.332031 24 C 13.332031 25.316406 12.855469 26.523438 12.0625 27.453125 L 23.070312 25.253906 C 20.566406 24.8125 18.667969 22.628906 18.667969 20 C 18.667969 17.054688 21.054688 14.667969 24 14.667969 C 26.945312 14.667969 29.332031 17.054688 29.332031 20 Z M 26.667969 20 C 26.667969 21.472656 25.472656 22.667969 24 22.667969 C 22.527344 22.667969 21.332031 21.472656 21.332031 20 C 21.332031 18.527344 22.527344 17.332031 24 17.332031 C 25.472656 17.332031 26.667969 18.527344 26.667969 20 Z M 10.667969 24 C 10.667969 25.472656 9.472656 26.667969 8 26.667969 C 6.527344 26.667969 5.332031 25.472656 5.332031 24 C 5.332031 22.527344 6.527344 21.332031 8 21.332031 C 9.472656 21.332031 10.667969 22.527344 10.667969 24 Z M 10.667969 24 "/>
</svg>
