<?xml version="1.0" encoding="UTF-8"?>
<svg xmlns="http://www.w3.org/2000/svg" xmlns:xlink="http://www.w3.org/1999/xlink" width="32" height="32" viewBox="0 0 32 32">
<path fill-rule="nonzero" fill="rgb(100%, 100%, 100%)" fill-opacity="1" d="M 13.6875 3.203125 L 8.964844 16.554688 C 7.621094 17.066406 6.371094 17.488281 5.75 17.972656 L 4.683594 17.972656 C 4.683594 17.972656 4.332031 18.078125 4.402344 18.433594 L 4.851562 19.222656 C 3.269531 19.644531 2.097656 21.152344 2.097656 22.953125 C 2.097656 25.078125 3.730469 26.796875 5.75 26.796875 C 7.765625 26.796875 9.398438 25.078125 9.398438 22.953125 C 9.398438 21.730469 8.859375 20.640625 8.015625 19.9375 C 8.203125 19.75 8.460938 19.582031 8.796875 19.53125 C 9.71875 19.390625 10 19.175781 10 19.175781 L 9.953125 19.011719 L 14.308594 17.703125 L 15.585938 19.558594 C 16.578125 19.660156 17.988281 20.238281 18.703125 20.988281 C 18.960938 21.257812 19.347656 21.753906 19.527344 22.074219 L 22.160156 22.121094 L 22.726562 22.792969 L 23.882812 23.050781 C 24.238281 24.515625 25.425781 25.59375 26.839844 25.59375 C 28.53125 25.59375 29.902344 24.046875 29.902344 22.136719 C 29.902344 20.230469 28.53125 18.679688 26.839844 18.679688 C 25.5625 18.679688 24.464844 19.5625 24.007812 20.816406 L 22.476562 20.417969 L 23.1875 17.867188 L 23.578125 17.726562 L 25.5625 17.726562 L 26.945312 16.519531 L 26.128906 16.058594 L 24.640625 13.753906 C 24.640625 13.753906 24.320312 13.363281 23.964844 13.363281 C 23.613281 13.363281 19.640625 12.902344 16.664062 13.363281 C 13.699219 13.824219 13.96875 13.757812 13.164062 14.140625 L 12.980469 14.230469 L 12.839844 14.316406 C 12.824219 14.328125 12.808594 14.335938 12.789062 14.347656 L 12.800781 14.347656 L 11.027344 15.675781 C 10.96875 15.738281 10.992188 15.714844 10.910156 15.757812 C 10.910156 15.757812 10.683594 15.8125 10.214844 15.988281 L 14.578125 3.523438 Z M 20.289062 14 L 21.222656 16.210938 L 20.808594 17.074219 L 16.453125 17.699219 L 16.019531 16.765625 L 18.078125 14.347656 Z M 21.222656 14 L 23.777344 14 L 24.917969 15.695312 L 22.84375 15.847656 Z M 13.574219 14.382812 L 17.109375 14.347656 L 15.667969 16.210938 L 11.554688 15.765625 L 13.363281 14.410156 Z M 27.507812 20.910156 C 28.074219 20.910156 28.535156 21.472656 28.535156 22.167969 C 28.535156 22.863281 28.074219 23.425781 27.507812 23.425781 C 26.941406 23.425781 26.480469 22.863281 26.480469 22.167969 C 26.480469 21.472656 26.941406 20.910156 27.507812 20.910156 Z M 6.546875 21.585938 C 7.222656 21.585938 7.769531 22.214844 7.769531 22.988281 C 7.769531 23.761719 7.222656 24.386719 6.546875 24.386719 C 5.871094 24.386719 5.324219 23.761719 5.324219 22.988281 C 5.324219 22.214844 5.871094 21.585938 6.546875 21.585938 Z M 6.546875 21.585938 "/>
<path fill-rule="nonzero" fill="rgb(100%, 100%, 100%)" fill-opacity="1" d="M 12.015625 21.046875 C 12.828125 20.191406 13.972656 19.632812 14.726562 19.585938 L 14.066406 18.613281 L 10.574219 19.71875 C 10.679688 20.023438 10.855469 20.390625 10.316406 20.523438 C 9.609375 20.703125 9.53125 20.582031 9.53125 20.582031 C 9.828125 21.050781 10.003906 21.515625 10.078125 21.984375 L 11.417969 22.121094 L 11.351562 22.121094 C 11.535156 21.796875 11.757812 21.320312 12.015625 21.046875 Z M 12.015625 21.046875 "/>
<path fill-rule="nonzero" fill="rgb(100%, 100%, 100%)" fill-opacity="1" d="M 16.160156 20.308594 C 16.007812 20.277344 15.851562 20.257812 15.695312 20.25 C 15.613281 20.242188 15.53125 20.242188 15.449219 20.242188 C 14.066406 20.242188 12.847656 20.988281 12.136719 22.121094 C 11.722656 22.78125 11.480469 23.570312 11.480469 24.421875 C 11.480469 26.730469 13.257812 28.605469 15.449219 28.605469 C 17.644531 28.605469 19.421875 26.730469 19.421875 24.421875 C 19.421875 23.570312 19.179688 22.78125 18.765625 22.121094 C 18.179688 21.183594 17.246094 20.515625 16.160156 20.308594 Z M 16.316406 25.984375 C 15.582031 25.984375 14.988281 25.300781 14.988281 24.460938 C 14.988281 23.621094 15.582031 22.9375 16.316406 22.9375 C 17.050781 22.9375 17.648438 23.621094 17.648438 24.460938 C 17.648438 25.300781 17.050781 25.984375 16.316406 25.984375 Z M 16.316406 25.984375 "/>
</svg>
