<?xml version="1.0" encoding="UTF-8"?>
<svg xmlns="http://www.w3.org/2000/svg" xmlns:xlink="http://www.w3.org/1999/xlink" width="32" height="32" viewBox="0 0 32 32">
<path fill-rule="nonzero" fill="rgb(100%, 100%, 100%)" fill-opacity="1" d="M 18.667969 4 C 18.667969 2.535156 19.867188 1.332031 21.332031 1.332031 C 22.800781 1.332031 24 2.535156 24 4 C 24 5.464844 22.800781 6.667969 21.332031 6.667969 C 19.867188 6.667969 18.667969 5.464844 18.667969 4 Z M 28.535156 26.785156 C 28.226562 26.71875 27.921875 26.8125 27.679688 27.011719 C 26.761719 27.8125 25.492188 28.1875 24.214844 27.90625 L 22.667969 27.585938 L 21.332031 19.332031 L 16.90625 15.773438 L 19.308594 11.921875 C 20.839844 14.375 23.574219 16 26.667969 16 L 26.667969 13.332031 C 24.199219 13.332031 22.078125 11.839844 21.160156 9.707031 L 20.464844 8.09375 C 20.214844 7.519531 19.480469 6.667969 18.265625 6.667969 L 10.667969 6.667969 L 7.332031 12 L 9.601562 13.414062 L 12.132812 9.332031 L 15.265625 9.332031 L 11.921875 14.652344 C 11.546875 15.253906 11.425781 15.988281 11.585938 16.679688 L 12.667969 21.332031 L 8 24.464844 L 7.375 24.332031 C 6.09375 24.066406 5.09375 23.199219 4.574219 22.105469 C 4.441406 21.828125 4.199219 21.613281 3.894531 21.546875 C 3.320312 21.425781 2.800781 21.8125 2.695312 22.320312 C 2.640625 22.507812 2.667969 22.734375 2.761719 22.933594 C 3.535156 24.585938 5.039062 25.867188 6.960938 26.28125 L 23.800781 29.867188 C 25.71875 30.28125 27.613281 29.71875 29 28.519531 C 29.171875 28.375 29.28125 28.171875 29.320312 27.972656 C 29.414062 27.464844 29.105469 26.90625 28.535156 26.785156 Z M 11.640625 25.238281 L 15.667969 22.535156 L 15.078125 18.105469 L 18.867188 20.800781 L 19.867188 26.988281 Z M 11.640625 25.238281 "/>
</svg>
