<?xml version="1.0" encoding="UTF-8"?>
<svg xmlns="http://www.w3.org/2000/svg" xmlns:xlink="http://www.w3.org/1999/xlink" width="32" height="32" viewBox="0 0 32 32">
<path fill-rule="evenodd" fill="rgb(100%, 100%, 100%)" fill-opacity="1" d="M 24.238281 9.332031 L 25.332031 9.332031 C 29.066406 9.332031 32 12.265625 32 15.988281 C 32 19.734375 28.734375 22.828125 25 22.652344 C 21.878906 22.507812 19.386719 20.308594 18.800781 17.332031 L 13.199219 17.332031 C 12.601562 20.414062 9.945312 22.667969 6.667969 22.667969 C 2.933594 22.667969 0 19.734375 0 16 C 0 12.265625 3.265625 9.160156 7 9.347656 C 10.121094 9.492188 12.613281 11.691406 13.199219 14.667969 L 14.09375 14.667969 L 11.667969 8 L 9.332031 8 L 9.332031 5.332031 L 16 5.332031 L 16 8 L 14.519531 8 L 15 9.332031 L 21.414062 9.332031 L 19.464844 4 L 16 4 L 16 1.332031 L 19.464844 1.332031 C 20.585938 1.332031 21.585938 2.039062 21.972656 3.09375 Z M 6.667969 20 C 8.441406 20 9.894531 18.894531 10.425781 17.332031 L 6.667969 17.332031 L 6.667969 14.667969 L 10.425781 14.667969 C 9.894531 13.105469 8.441406 12 6.667969 12 C 4.425781 12 2.667969 13.761719 2.667969 16 C 2.667969 18.238281 4.425781 20 6.667969 20 Z M 16.933594 14.667969 L 18.800781 14.667969 C 18.988281 13.667969 19.414062 12.773438 20 12 L 15.960938 12 Z M 21.332031 16 C 21.332031 18.238281 23.09375 20 25.332031 20 C 27.574219 20 29.332031 18.238281 29.332031 16 C 29.332031 13.761719 27.574219 12 25.332031 12 C 25.3125 12 25.289062 12.003906 25.269531 12.007812 C 25.253906 12.011719 25.238281 12.011719 25.226562 12.011719 L 26.519531 15.574219 L 24.011719 16.480469 L 22.734375 12.960938 C 21.878906 13.691406 21.332031 14.761719 21.332031 16 Z M 21.332031 16 "/>
<path fill-rule="nonzero" fill="rgb(100%, 100%, 100%)" fill-opacity="1" d="M 9.332031 26.667969 L 14.667969 26.667969 L 14.667969 24 L 22.667969 28 L 17.332031 28 L 17.332031 30.667969 Z M 9.332031 26.667969 "/>
</svg>
