<?xml version="1.0" encoding="UTF-8"?>
<svg xmlns="http://www.w3.org/2000/svg" xmlns:xlink="http://www.w3.org/1999/xlink" width="12" height="12" viewBox="0 0 12 12">
<path fill-rule="nonzero" fill="rgb(100%, 100%, 100%)" fill-opacity="1" d="M 6.734375 3.121094 C 6.90625 3.121094 7.054688 3.058594 7.183594 2.933594 C 7.308594 2.808594 7.375 2.660156 7.375 2.480469 C 7.375 2.300781 7.308594 2.152344 7.183594 2.027344 C 7.054688 1.902344 6.90625 1.839844 6.734375 1.839844 C 6.554688 1.839844 6.40625 1.902344 6.28125 2.027344 C 6.15625 2.152344 6.09375 2.300781 6.09375 2.480469 C 6.09375 2.660156 6.15625 2.808594 6.28125 2.933594 C 6.40625 3.058594 6.554688 3.121094 6.734375 3.121094 Z M 6.734375 3.121094 "/>
<path fill-rule="nonzero" fill="rgb(100%, 100%, 100%)" fill-opacity="1" d="M 1.421875 6.949219 L 3.152344 6.949219 C 3.222656 6.949219 3.285156 6.945312 3.34375 6.929688 C 3.488281 6.90625 3.589844 6.863281 3.648438 6.796875 L 4.5 5.851562 L 5.492188 6.808594 L 5.089844 8.59375 C 5.078125 8.632812 5.070312 8.664062 5.070312 8.6875 C 5.070312 8.804688 5.113281 8.902344 5.195312 8.984375 C 5.277344 9.066406 5.378906 9.109375 5.492188 9.109375 C 5.707031 9.109375 5.84375 8.996094 5.894531 8.773438 L 6.378906 6.605469 C 6.4375 6.378906 6.414062 6.207031 6.304688 6.101562 L 5.433594 5.230469 L 6.378906 4.132812 L 6.992188 4.746094 C 7.054688 4.808594 7.128906 4.839844 7.210938 4.839844 C 7.320312 4.839844 7.425781 4.792969 7.527344 4.695312 L 8.519531 3.703125 C 8.570312 3.640625 8.597656 3.570312 8.597656 3.492188 C 8.597656 3.398438 8.5625 3.316406 8.496094 3.253906 C 8.429688 3.191406 8.351562 3.160156 8.261719 3.160156 C 8.171875 3.160156 8.101562 3.183594 8.050781 3.234375 L 7.230469 4.058594 L 6.238281 3.0625 C 6.160156 2.988281 6.066406 2.949219 5.949219 2.949219 L 4.394531 2.949219 C 4.296875 2.949219 4.214844 2.988281 4.144531 3.0625 L 3.074219 4.296875 C 3 4.359375 2.960938 4.4375 2.960938 4.535156 C 2.960938 4.625 2.992188 4.699219 3.058594 4.761719 C 3.121094 4.828125 3.195312 4.859375 3.285156 4.859375 C 3.382812 4.859375 3.464844 4.820312 3.535156 4.746094 L 4.527344 3.589844 L 5.101562 3.597656 L 2.914062 6.140625 L 1.433594 6.128906 C 1.3125 6.128906 1.210938 6.167969 1.128906 6.242188 C 1.042969 6.320312 1.003906 6.417969 1.003906 6.539062 C 1.003906 6.65625 1.042969 6.75 1.128906 6.832031 C 1.210938 6.910156 1.308594 6.949219 1.421875 6.949219 Z M 1.421875 6.949219 "/>
<path fill-rule="nonzero" fill="rgb(100%, 100%, 100%)" fill-opacity="1" d="M 11.113281 3.765625 C 11.199219 3.710938 11.253906 3.53125 11.183594 3.414062 C 11.113281 3.300781 10.917969 3.285156 10.832031 3.339844 L 8.496094 4.871094 C 8.421875 4.917969 8.394531 5.007812 8.421875 5.089844 L 9.933594 9.457031 L 1.230469 9.457031 C 1.035156 9.457031 0.878906 9.613281 0.878906 9.808594 C 0.878906 10.003906 1.035156 10.160156 1.230469 10.160156 L 10.6875 10.160156 C 10.878906 10.160156 11.039062 10.003906 11.039062 9.808594 C 11.039062 9.613281 10.878906 9.457031 10.6875 9.457031 L 10.574219 9.457031 L 9.066406 5.105469 Z M 11.113281 3.765625 "/>
</svg>
