<?xml version="1.0" encoding="UTF-8"?>
<svg xmlns="http://www.w3.org/2000/svg" xmlns:xlink="http://www.w3.org/1999/xlink" width="32" height="32" viewBox="0 0 32 32">
<path fill-rule="evenodd" fill="rgb(100%, 100%, 100%)" fill-opacity="1" d="M 17.332031 9.332031 L 20.46875 9.332031 L 21.148438 10.863281 L 18.183594 13.332031 L 14.667969 13.332031 L 14.667969 12 C 14.667969 11.261719 14.070312 10.667969 13.332031 10.667969 L 6.667969 10.667969 C 5.929688 10.667969 5.332031 11.261719 5.332031 12 L 4 12 C 3.261719 12 2.667969 12.597656 2.667969 13.332031 C 2.667969 14.070312 3.261719 14.667969 4 14.667969 L 5.019531 14.667969 L 5.035156 14.675781 C 2.226562 14.828125 0 17.15625 0 20 C 0 22.945312 2.386719 25.332031 5.332031 25.332031 C 7.820312 25.332031 9.90625 23.632812 10.5 21.332031 L 15.90625 21.332031 C 17.242188 21.332031 18.492188 20.664062 19.234375 19.550781 L 22.699219 14.355469 L 23.351562 15.824219 C 22.121094 16.800781 21.332031 18.308594 21.332031 20 C 21.332031 22.945312 23.722656 25.332031 26.667969 25.332031 C 29.613281 25.332031 32 22.945312 32 20 C 32 17.054688 29.613281 14.667969 26.667969 14.667969 C 26.367188 14.667969 26.074219 14.691406 25.789062 14.738281 L 25.136719 13.277344 C 26.015625 13.066406 26.667969 12.277344 26.667969 11.332031 C 26.667969 10.230469 25.769531 9.332031 24.667969 9.332031 C 24.25 9.332031 23.859375 9.460938 23.539062 9.679688 L 22.902344 8.25 C 22.476562 7.289062 21.519531 6.667969 20.46875 6.667969 L 17.332031 6.667969 Z M 24.511719 18.429688 L 25.449219 20.542969 C 25.746094 21.214844 26.535156 21.515625 27.207031 21.21875 C 27.882812 20.917969 28.183594 20.132812 27.886719 19.457031 L 26.945312 17.347656 C 28.289062 17.488281 29.332031 18.621094 29.332031 20 C 29.332031 21.472656 28.140625 22.667969 26.667969 22.667969 C 25.195312 22.667969 24 21.472656 24 20 C 24 19.414062 24.1875 18.871094 24.511719 18.429688 Z M 7.644531 18.667969 L 5.332031 18.667969 C 4.597656 18.667969 4 19.261719 4 20 C 4 20.738281 4.597656 21.332031 5.332031 21.332031 L 7.644531 21.332031 C 7.183594 22.128906 6.320312 22.667969 5.332031 22.667969 C 3.859375 22.667969 2.667969 21.472656 2.667969 20 C 2.667969 18.527344 3.859375 17.332031 5.332031 17.332031 C 6.320312 17.332031 7.183594 17.871094 7.644531 18.667969 Z M 10.5 18.667969 L 12 18.667969 L 12 16 L 8.859375 16 C 9.648438 16.695312 10.230469 17.617188 10.5 18.667969 Z M 10.5 18.667969 "/>
</svg>
