<?xml version="1.0" encoding="UTF-8"?>
<svg xmlns="http://www.w3.org/2000/svg" xmlns:xlink="http://www.w3.org/1999/xlink" width="12" height="12" viewBox="0 0 12 12" version="1.1">
<g id="surface1">
<path style=" stroke:none;fill-rule:nonzero;fill:rgb(100%,100%,100%);fill-opacity:1;" d="M 3.007812 2.625 C 3.214844 2.625 3.394531 2.546875 3.542969 2.386719 C 3.695312 2.226562 3.769531 2.035156 3.769531 1.8125 C 3.769531 1.582031 3.695312 1.390625 3.542969 1.234375 C 3.394531 1.078125 3.214844 1 3.007812 1 C 2.800781 1 2.621094 1.078125 2.46875 1.234375 C 2.320312 1.390625 2.242188 1.582031 2.242188 1.8125 C 2.242188 2.035156 2.320312 2.226562 2.46875 2.386719 C 2.621094 2.546875 2.800781 2.625 3.007812 2.625 Z M 4.011719 2.792969 L 1.988281 2.792969 C 1.714844 2.792969 1.484375 2.894531 1.289062 3.101562 C 1.097656 3.308594 1 3.5 1 3.5 L 0.5 5 L 1 6.359375 C 1 6.601562 1.105469 6.722656 1.3125 6.722656 C 1.507812 6.722656 1.609375 6.601562 1.609375 6.359375 L 1.3125 5 L 1.609375 4 L 1.988281 4 L 1.976562 10.546875 C 1.976562 10.847656 2.117188 11 2.398438 11 C 2.683594 11 2.824219 10.847656 2.824219 10.546875 L 2.824219 7 L 3.191406 7 L 3.191406 10.546875 C 3.191406 10.847656 3.332031 11 3.613281 11 C 3.90625 11 4.054688 10.847656 4.054688 10.546875 L 4.011719 4 L 4.40625 4 L 4.722656 5 L 4.40625 6.359375 C 4.40625 6.613281 4.503906 6.738281 4.703125 6.738281 C 4.902344 6.738281 5 6.613281 5 6.359375 L 5.5 5 L 5 3.5 C 5 3.5 4.90625 3.332031 4.722656 3.117188 C 4.539062 2.898438 4.300781 2.792969 4.011719 2.792969 Z M 4.011719 2.792969 "/>
<path style=" stroke:none;fill-rule:nonzero;fill:rgb(87.450981%,87.450981%,87.450981%);fill-opacity:1;" d="M 7 6 L 11 6 L 11 11 L 7 11 Z M 7 6 "/>
<path style=" stroke:none;fill-rule:nonzero;fill:rgb(100%,100%,100%);fill-opacity:1;" d="M 9 4 L 12 6 L 6 6 Z M 9 4 "/>
<path style=" stroke:none;fill-rule:evenodd;fill:rgb(100%,100%,100%);fill-opacity:1;" d="M 9.5 1 L 9.5 5 L 8.5 5 L 8.5 1 Z M 9.5 1 "/>
<path style=" stroke:none;fill-rule:nonzero;fill:rgb(100%,100%,100%);fill-opacity:1;" d="M 9 1 L 11 1 L 11 3 L 9 3 Z M 9 1 "/>
</g>
</svg>
