<svg width="12" height="12" viewBox="0 0 20 20" fill="none" xmlns="http://www.w3.org/2000/svg">
<path fill-rule="evenodd" clip-rule="evenodd" d="M10.0002 0.55957C4.76551 0.55957 0.55957 4.76382 0.55957 10.0002C0.55957 15.2046 4.76551 19.4408 10.0002 19.4408C15.236 19.4408 19.4408 15.2046 19.4408 10.0002C19.4408 4.76382 15.236 0.55957 10.0002 0.55957ZM10.0002 7.7202C11.2557 7.7202 12.2802 8.73642 12.2802 10.0002C12.2802 11.2549 11.2557 12.2802 10.0002 12.2802C8.74503 12.2802 7.7202 11.2549 7.7202 10.0002C7.7202 8.73642 8.74503 7.7202 10.0002 7.7202Z" fill="#FEFEFE"/>
<path fill-rule="evenodd" clip-rule="evenodd" d="M10 2.01953C5.57675 2.01953 2.02002 5.57484 2.02002 9.99953C2.02002 14.3972 5.57675 17.9795 10 17.9795C14.4242 17.9795 17.98 14.3972 17.98 9.99953C17.98 5.57484 14.4242 2.01953 10 2.01953ZM10 6.57377C11.8952 6.57377 13.4258 8.09184 13.4258 9.99953C13.4258 11.8935 11.8952 13.4253 10 13.4253C8.10533 13.4253 6.57426 11.8935 6.57426 9.99953C6.57426 8.09184 8.10533 6.57377 10 6.57377V6.57377Z" fill="black"/>
</svg>
