<svg width="12" height="12" viewBox="0 0 580 580" fill="none" xmlns="http://www.w3.org/2000/svg">
<path d="M196.361 180.315L182.383 180.403L259.283 315.536L269.23 308.262L196.361 180.315V180.315ZM171.254 299.893C162.027 299.893 153.178 303.559 146.653 310.083C140.128 316.608 136.463 325.457 136.463 334.684C136.463 343.911 140.128 352.76 146.653 359.285C153.178 365.81 162.027 369.475 171.254 369.475C180.481 369.475 189.33 365.81 195.855 359.285C202.379 352.76 206.045 343.911 206.045 334.684C206.045 325.457 202.379 316.608 195.855 310.083C189.33 303.559 180.481 299.893 171.254 299.893ZM287.631 308.018C283.516 308.053 279.391 309.456 275.979 312.293L197.631 368.073C186.238 377.669 184.179 399.315 193.687 410.708L250.301 467.364C250.301 467.364 265.724 487.476 291.139 469.161L363.262 418.245L419.744 418.333C432.933 418.333 443.537 407.729 443.537 394.54C443.537 381.438 432.933 370.747 419.744 370.747L352.045 370.659C346.655 370.659 341.967 372.982 337.848 375.961L285.441 412.811L249.424 377.188L299.596 340.469C307.395 333.94 308.403 322.327 301.918 314.528C298.196 310.19 292.922 307.973 287.631 308.018ZM294.205 352.168L284.348 359.354L303.102 392.393L312.959 385.032L294.205 352.168ZM368.297 428.639C367.62 428.663 366.938 428.877 366.33 429.288L319.094 463.596C317.516 464.779 317.209 467.014 318.305 468.547L324.703 477.442C325.886 479.019 328.121 479.326 329.654 478.231L376.891 443.922C378.468 442.739 378.773 440.505 377.678 438.971L371.281 430.075C370.542 429.089 369.426 428.6 368.297 428.639Z" fill="#ffffff"/>
<path opacity="0.605" d="M167.191 131.004L73.6953 195.426V517.533H260.688V509.77C256.387 509.225 252.378 508.249 248.83 506.867C237.188 502.333 229.291 494.785 225.646 490.797L226.209 491.438L204.006 469.217H192.691V457.895L169.596 434.781C168.877 434.062 168.191 433.312 167.539 432.531C159.242 422.59 155.354 411.72 154.094 400.984C149.814 399.749 145.664 398.07 141.693 396.02V404.795H107.693V372.584H114.924C107.12 361.489 102.404 348.331 102.404 334.684C102.404 326.019 104.314 317.549 107.693 309.67V308.164H108.355C114.384 294.983 124.571 283.59 136.947 275.953H107.693V243.742H141.693V273.268C150.813 268.553 160.897 265.834 171.254 265.834C178.631 265.834 185.843 267.285 192.691 269.789V267.381L152.781 197.248C152.45 196.65 152.137 196.042 151.842 195.426H141.693V180.932L148.639 176.105C149.679 167.927 153.651 160.404 159.817 154.931C165.982 149.458 173.924 146.407 182.168 146.344L189.389 146.299L167.191 131.004ZM233.49 176.686L260.688 224.441V195.426L233.49 176.686ZM107.693 437.006H141.693V469.217H107.693V437.006Z" fill="#ffffff"/>
<path opacity="0.605" d="M348.83 52.4668V336.725C349.88 336.648 350.947 336.6 352.045 336.6C352.06 336.6 352.075 336.6 352.09 336.6L377.488 336.633V330.154H406.105V336.67L419.744 336.688C430.38 336.688 440.403 339.686 449.031 344.852V330.154H477.648V358.975H465.088C471.555 367.159 475.883 377.067 477.176 387.797H477.648V416.617H473.07C464.223 437.427 443.413 452.391 419.744 452.391C419.727 452.391 419.709 452.391 419.691 452.391L410.557 452.377C409.513 455.676 408.026 458.847 406.105 461.789V474.301H393.021L349.67 505.787C349.597 505.84 349.524 505.893 349.451 505.945C349.246 506.092 349.037 506.227 348.83 506.369V517.533H506.305V52.4668H348.83ZM377.488 98.7012H406.105V127.523H377.488V98.7012ZM449.189 98.7012H477.807V127.523H449.189V98.7012ZM377.488 156.344H406.105V185.166H377.488V156.344ZM449.189 156.344H477.807V185.166H449.189V156.344ZM377.488 213.986H406.105V242.809H377.488V213.986ZM449.189 213.986H477.807V242.809H449.189V213.986ZM377.488 272.51H406.105V301.332H377.488V272.51ZM449.031 272.51H477.648V301.332H449.031V272.51ZM449.031 445.48H477.648V474.301H449.031V445.48Z" fill="#ffffff"/>
</svg>
