<?xml version="1.0" encoding="UTF-8"?>
<svg xmlns="http://www.w3.org/2000/svg" xmlns:xlink="http://www.w3.org/1999/xlink" width="32" height="32" viewBox="0 0 32 32">
<path fill-rule="nonzero" fill="rgb(100%, 100%, 100%)" fill-opacity="1" d="M 12.175781 9.242188 C 13.507812 9.242188 14.589844 8.164062 14.589844 6.832031 C 14.589844 5.5 13.507812 4.417969 12.175781 4.417969 C 10.847656 4.417969 9.765625 5.5 9.765625 6.832031 C 9.765625 8.164062 10.847656 9.242188 12.175781 9.242188 Z M 12.175781 9.242188 "/>
<path fill-rule="nonzero" fill="rgb(100%, 100%, 100%)" fill-opacity="1" d="M 3.28125 22.421875 C 3.847656 22.421875 4.390625 22.292969 4.878906 22.074219 C 5.375 21.84375 5.941406 21.710938 6.523438 21.710938 C 7.109375 21.710938 7.671875 21.84375 8.167969 22.074219 C 8.660156 22.292969 9.203125 22.417969 9.777344 22.417969 C 10.34375 22.417969 10.890625 22.292969 11.375 22.074219 C 11.871094 21.84375 12.4375 21.710938 13.023438 21.710938 C 13.609375 21.710938 14.167969 21.84375 14.671875 22.074219 C 15.152344 22.292969 15.703125 22.417969 16.269531 22.417969 C 16.839844 22.417969 17.390625 22.292969 17.871094 22.074219 C 18.375 21.84375 18.933594 21.710938 19.523438 21.710938 C 20.109375 21.710938 20.667969 21.84375 21.167969 22.074219 C 21.65625 22.292969 22.203125 22.417969 22.769531 22.417969 C 23.339844 22.417969 23.882812 22.292969 24.375 22.074219 C 24.871094 21.84375 25.433594 21.710938 26.019531 21.710938 C 26.519531 21.710938 27.007812 21.804688 27.449219 21.976562 C 28.164062 21.195312 28.605469 20.152344 28.605469 19.015625 C 28.605469 16.582031 26.640625 14.617188 24.210938 14.617188 L 23.71875 14.671875 C 23.179688 16.863281 20.988281 16.957031 20.988281 16.957031 L 10.960938 16.953125 L 10.121094 16.460938 L 12.144531 13.066406 L 14.355469 14.347656 C 15.679688 15.203125 16.371094 14 16.371094 14 L 18.589844 10.382812 C 19.558594 8.8125 17.507812 7.554688 16.550781 9.132812 L 15 11.667969 L 11.304688 9.628906 C 8.746094 8.199219 7.664062 10.566406 7.664062 10.566406 L 4.761719 15.53125 C 4.269531 16.566406 4.710938 17.007812 4.710938 17.007812 L 3.277344 17.007812 L 3.277344 22.421875 Z M 3.28125 22.421875 "/>
<path fill-rule="nonzero" fill="rgb(100%, 100%, 100%)" fill-opacity="1" d="M 29.273438 27.21875 C 28.703125 27.21875 28.15625 27.09375 27.675781 26.875 C 27.171875 26.644531 26.613281 26.511719 26.023438 26.511719 C 25.4375 26.511719 24.875 26.644531 24.378906 26.875 C 23.890625 27.09375 23.347656 27.21875 22.777344 27.21875 C 22.207031 27.21875 21.664062 27.09375 21.171875 26.875 C 20.675781 26.644531 20.113281 26.511719 19.527344 26.511719 C 18.9375 26.511719 18.378906 26.644531 17.878906 26.875 C 17.394531 27.09375 16.847656 27.21875 16.277344 27.21875 C 15.710938 27.21875 15.160156 27.09375 14.675781 26.875 C 14.175781 26.644531 13.613281 26.511719 13.03125 26.511719 C 12.441406 26.511719 11.878906 26.644531 11.382812 26.875 C 10.894531 27.09375 10.351562 27.21875 9.78125 27.21875 C 9.210938 27.21875 8.664062 27.09375 8.175781 26.875 C 7.679688 26.644531 7.113281 26.511719 6.53125 26.511719 C 5.945312 26.511719 5.382812 26.644531 4.882812 26.875 C 4.398438 27.09375 3.851562 27.21875 3.28125 27.21875 L 3.28125 24.820312 C 3.851562 24.820312 4.398438 24.691406 4.882812 24.472656 C 5.382812 24.242188 5.945312 24.109375 6.53125 24.109375 C 7.113281 24.109375 7.679688 24.242188 8.175781 24.472656 C 8.664062 24.691406 9.210938 24.820312 9.78125 24.820312 C 10.351562 24.820312 10.894531 24.691406 11.382812 24.472656 C 11.878906 24.242188 12.441406 24.109375 13.03125 24.109375 C 13.617188 24.109375 14.175781 24.242188 14.675781 24.472656 C 15.160156 24.691406 15.710938 24.820312 16.277344 24.820312 C 16.847656 24.820312 17.394531 24.691406 17.878906 24.472656 C 18.378906 24.242188 18.941406 24.109375 19.527344 24.109375 C 20.117188 24.109375 20.675781 24.242188 21.171875 24.472656 C 21.664062 24.691406 22.207031 24.820312 22.777344 24.820312 C 23.347656 24.820312 23.890625 24.691406 24.378906 24.472656 C 24.875 24.242188 25.441406 24.109375 26.023438 24.109375 C 26.613281 24.109375 27.171875 24.242188 27.675781 24.472656 C 28.15625 24.691406 28.703125 24.820312 29.273438 24.820312 Z M 29.273438 27.21875 "/>
</svg>
