<?xml version="1.0" encoding="UTF-8"?>
<svg xmlns="http://www.w3.org/2000/svg" xmlns:xlink="http://www.w3.org/1999/xlink" width="12" height="12" viewBox="0 0 12 12" version="1.1">
<g id="surface1">
<path style=" stroke:none;fill-rule:evenodd;fill:rgb(100%,100%,100%);fill-opacity:1;" d="M 7.75 2.75 C 8.300781 2.75 8.75 2.300781 8.75 1.75 C 8.75 1.199219 8.300781 0.75 7.75 0.75 C 7.199219 0.75 6.75 1.199219 6.75 1.75 C 6.75 2.300781 7.199219 2.75 7.75 2.75 Z M 6.601562 4.050781 L 7 4.449219 C 7.648438 5.101562 8.5 5.5 9.550781 5.5 L 9.550781 4.5 C 8.800781 4.5 8.199219 4.199219 7.75 3.75 L 6.800781 2.800781 C 6.550781 2.601562 6.300781 2.5 6 2.5 C 5.699219 2.5 5.449219 2.601562 5.300781 2.800781 L 3.898438 4.199219 C 3.699219 4.398438 3.601562 4.648438 3.601562 4.898438 C 3.601562 5.199219 3.699219 5.449219 3.898438 5.601562 L 5.5 7 L 5.5 9.5 L 6.5 9.5 L 6.5 6.398438 L 5.398438 5.25 Z M 2.5 10 C 3.328125 10 4 9.328125 4 8.5 C 4 7.671875 3.328125 7 2.5 7 C 1.671875 7 1 7.671875 1 8.5 C 1 9.328125 1.671875 10 2.5 10 Z M 2.5 11 C 3.878906 11 5 9.878906 5 8.5 C 5 7.121094 3.878906 6 2.5 6 C 1.121094 6 0 7.121094 0 8.5 C 0 9.878906 1.121094 11 2.5 11 Z M 11 8.5 C 11 9.328125 10.328125 10 9.5 10 C 8.671875 10 8 9.328125 8 8.5 C 8 7.671875 8.671875 7 9.5 7 C 10.328125 7 11 7.671875 11 8.5 Z M 12 8.5 C 12 9.878906 10.878906 11 9.5 11 C 8.121094 11 7 9.878906 7 8.5 C 7 7.121094 8.121094 6 9.5 6 C 10.878906 6 12 7.121094 12 8.5 Z M 12 8.5 "/>
</g>
</svg>
