<svg width="12" height="12" viewBox="0 0 48 48" fill="none" xmlns="http://www.w3.org/2000/svg">
<g opacity="0.5">
<path d="M8 0H4V48H8V0Z" fill="#ffffff"/>
<path d="M44 0H40V48H44V0Z" fill="#ffffff"/>
</g>
<path d="M22 8V0H26V8H22Z" fill="#ffffff"/>
<path d="M22 20V12H26V20H22Z" fill="#ffffff"/>
<path d="M26 26C26 24.8954 25.1046 24 24 24C22.8954 24 22 24.8954 22 26V33.5L12 41V44L22 39V44C22 44.0676 22.0034 44.1344 22.0099 44.2003L20 46V48L24 46L28 48V46L25.9901 44.2003C25.9967 44.1344 26 44.0676 26 44V39L36 44V41L26 33.5V26Z" fill="#ffffff"/>
</svg>
