<?xml version="1.0" encoding="UTF-8"?>
<svg xmlns="http://www.w3.org/2000/svg" xmlns:xlink="http://www.w3.org/1999/xlink" width="12" height="12" viewBox="0 0 12 12" version="1.1">
<g id="surface1">
<path style=" stroke:none;fill-rule:evenodd;fill:rgb(100%,100%,100%);fill-opacity:1;" d="M 4 5.5 C 4 5.777344 3.777344 6 3.5 6 C 3.222656 6 3 5.777344 3 5.5 C 3 5.222656 3.222656 5 3.5 5 C 3.777344 5 4 5.222656 4 5.5 Z M 4 8 L 4 7.25 C 4 7.386719 4.113281 7.5 4.25 7.5 C 4.386719 7.5 4.5 7.386719 4.5 7.25 L 4.5 6.25 C 4.5 6.113281 4.386719 6 4.25 6 L 2.75 6 C 2.613281 6 2.5 6.113281 2.5 6.25 L 2.5 7.25 C 2.5 7.386719 2.613281 7.5 2.75 7.5 C 2.886719 7.5 3 7.386719 3 7.25 L 3 8 L 1 8 L 1 11 L 2 11 L 2 9 L 5 9 L 5 11 L 6 11 L 6 8 Z M 4 8 "/>
<path style=" stroke:none;fill-rule:nonzero;fill:rgb(100%,100%,100%);fill-opacity:1;" d="M 6.839844 1.941406 L 6.945312 1.894531 L 7.023438 2.074219 L 7.800781 1.757812 L 7.71875 1.574219 L 7.835938 1.527344 C 7.886719 1.507812 7.925781 1.464844 7.945312 1.414062 C 7.96875 1.363281 7.96875 1.308594 7.945312 1.261719 L 7.898438 1.121094 C 7.855469 1.023438 7.730469 0.972656 7.632812 1.015625 L 6.636719 1.425781 C 6.535156 1.46875 6.484375 1.589844 6.527344 1.695312 L 6.574219 1.828125 C 6.605469 1.90625 6.679688 1.957031 6.761719 1.957031 C 6.789062 1.957031 6.816406 1.949219 6.839844 1.941406 Z M 6.839844 1.941406 "/>
<path style=" stroke:none;fill-rule:nonzero;fill:rgb(100%,100%,100%);fill-opacity:1;" d="M 8.324219 2.167969 L 8.925781 3.625 L 7.53125 4.179688 L 6.9375 2.746094 C 6.84375 2.515625 6.878906 2.433594 7.105469 2.34375 L 7.929688 2.007812 C 8.03125 1.964844 8.101562 1.9375 8.179688 1.96875 C 8.257812 2.003906 8.289062 2.074219 8.324219 2.167969 Z M 8.324219 2.167969 "/>
<path style=" stroke:none;fill-rule:nonzero;fill:rgb(100%,100%,100%);fill-opacity:1;" d="M 7.636719 4.4375 L 9.03125 3.882812 L 9.113281 4.089844 C 9.128906 4.125 9.128906 4.164062 9.113281 4.199219 C 9.0625 4.320312 9.007812 4.613281 8.867188 4.667969 L 8.300781 4.898438 C 8.265625 4.910156 8.226562 4.910156 8.195312 4.894531 L 7.796875 4.726562 C 7.761719 4.710938 7.734375 4.683594 7.722656 4.648438 Z M 7.636719 4.4375 "/>
<path style=" stroke:none;fill-rule:nonzero;fill:rgb(100%,100%,100%);fill-opacity:1;" d="M 9.984375 5.007812 C 10.019531 4.992188 10.039062 4.953125 10.023438 4.917969 C 10.007812 4.878906 9.96875 4.863281 9.933594 4.878906 L 8.15625 5.605469 C 8.003906 5.253906 7.65625 5.007812 7.25 5.007812 C 6.707031 5.007812 6.265625 5.449219 6.265625 5.992188 C 6.265625 6.535156 6.707031 6.976562 7.25 6.976562 C 7.792969 6.976562 8.234375 6.535156 8.234375 5.992188 C 8.234375 5.90625 8.222656 5.820312 8.199219 5.738281 Z M 9.984375 5.007812 "/>
<path style=" stroke:none;fill-rule:nonzero;fill:rgb(100%,100%,100%);fill-opacity:1;" d="M 10.859375 7.9375 L 6.140625 7.9375 C 6.0625 7.9375 6 7.875 6 7.796875 L 6 7.660156 C 6 7.429688 6.179688 7.242188 6.398438 7.242188 L 10.601562 7.242188 C 10.820312 7.242188 11 7.429688 11 7.660156 L 11 7.796875 C 11 7.875 10.9375 7.9375 10.859375 7.9375 Z M 10.859375 7.9375 "/>
<path style=" stroke:none;fill-rule:nonzero;fill:rgb(100%,100%,100%);fill-opacity:1;" d="M 10.496094 6.4375 C 10.417969 6.238281 10.222656 6.101562 10.007812 6.101562 C 9.941406 6.101562 9.878906 6.113281 9.816406 6.136719 L 8.449219 6.664062 C 8.410156 6.679688 8.363281 6.679688 8.3125 6.667969 C 8.242188 6.78125 8.15625 6.882812 8.054688 6.964844 L 10.402344 6.964844 C 10.433594 6.925781 10.464844 6.886719 10.484375 6.839844 C 10.542969 6.710938 10.546875 6.570312 10.496094 6.4375 Z M 10.496094 6.4375 "/>
<path style=" stroke:none;fill-rule:nonzero;fill:rgb(100%,100%,100%);fill-opacity:1;" d="M 6.714844 2.933594 L 7.132812 3.941406 C 7.0625 4.039062 7.042969 4.171875 7.089844 4.292969 C 7.09375 4.300781 7.25 4.730469 7.25 4.730469 C 6.878906 4.730469 6.546875 4.894531 6.316406 5.148438 L 6.121094 4.683594 C 5.855469 4.027344 6.121094 3.285156 6.714844 2.933594 Z M 6.714844 2.933594 "/>
</g>
</svg>
