<?xml version="1.0" encoding="UTF-8"?>
<svg xmlns="http://www.w3.org/2000/svg" xmlns:xlink="http://www.w3.org/1999/xlink" width="12" height="12" viewBox="0 0 12 12" version="1.1">
<defs>
<filter id="alpha" filterUnits="objectBoundingBox" x="0%" y="0%" width="100%" height="100%">
  <feColorMatrix type="matrix" in="SourceGraphic" values="0 0 0 0 1 0 0 0 0 1 0 0 0 0 1 0 0 0 1 0"/>
</filter>
<mask id="mask0">
  <g filter="url(#alpha)">
<rect x="0" y="0" width="12" height="12" style="fill:rgb(0%,0%,0%);fill-opacity:0.7;stroke:none;"/>
  </g>
</mask>
<clipPath id="clip1">
  <rect x="0" y="0" width="12" height="12"/>
</clipPath>
<g id="surface5" clip-path="url(#clip1)">
<path style=" stroke:none;fill-rule:nonzero;fill:rgb(100%,100%,100%);fill-opacity:1;" d="M 3 1 C 2.449219 1 2 1.449219 2 2 L 10 2 C 10 1.449219 9.550781 1 9 1 Z M 3 1 "/>
</g>
<mask id="mask1">
  <g filter="url(#alpha)">
<rect x="0" y="0" width="12" height="12" style="fill:rgb(0%,0%,0%);fill-opacity:0.5;stroke:none;"/>
  </g>
</mask>
<clipPath id="clip2">
  <rect x="0" y="0" width="12" height="12"/>
</clipPath>
<g id="surface8" clip-path="url(#clip2)">
<path style=" stroke:none;fill-rule:nonzero;fill:rgb(100%,100%,100%);fill-opacity:1;" d="M 3 5 L 2 5 L 2 6 L 3 6 Z M 3 5 "/>
<path style=" stroke:none;fill-rule:nonzero;fill:rgb(100%,100%,100%);fill-opacity:1;" d="M 10 9 L 9 9 L 9 10 L 10 10 Z M 10 9 "/>
</g>
</defs>
<g id="surface1">
<use xlink:href="#surface5" mask="url(#mask0)"/>
<path style=" stroke:none;fill-rule:evenodd;fill:rgb(100%,100%,100%);fill-opacity:1;" d="M 2 2 C 1.449219 2 1 2.449219 1 3 L 1 10 C 1 10.550781 1.449219 11 2 11 L 10 11 C 10.550781 11 11 10.550781 11 10 L 11 3 C 11 2.449219 10.550781 2 10 2 Z M 5.5 7.75 C 5.5 8.441406 4.941406 9 4.25 9 C 3.558594 9 3 8.441406 3 7.75 L 3 7.5 C 3 7.222656 2.777344 7 2.5 7 C 2.222656 7 2 7.222656 2 7.5 L 2 7.75 C 2 8.992188 3.007812 10 4.25 10 C 5.492188 10 6.5 8.992188 6.5 7.75 L 6.5 5.25 C 6.5 4.558594 7.058594 4 7.75 4 C 8.441406 4 9 4.558594 9 5.25 L 9 5.5 C 9 5.777344 9.222656 6 9.5 6 C 9.777344 6 10 5.777344 10 5.5 L 10 5.25 C 10 4.007812 8.992188 3 7.75 3 C 6.507812 3 5.5 4.007812 5.5 5.25 Z M 10 7 L 8.5 7 L 7.5 8 L 8.5 9 L 9 9 L 9 10 L 10 10 Z M 2 3 L 3.5 3 L 4.5 4 L 3.5 5 L 3 5 L 3 6 L 2 6 Z M 2 3 "/>
<use xlink:href="#surface8" mask="url(#mask1)"/>
</g>
</svg>
