<?xml version="1.0" encoding="UTF-8"?>
<svg xmlns="http://www.w3.org/2000/svg" xmlns:xlink="http://www.w3.org/1999/xlink" width="12" height="12" viewBox="0 0 12 12" version="1.1">
<defs>
<filter id="alpha" filterUnits="objectBoundingBox" x="0%" y="0%" width="100%" height="100%">
  <feColorMatrix type="matrix" in="SourceGraphic" values="0 0 0 0 1 0 0 0 0 1 0 0 0 0 1 0 0 0 1 0"/>
</filter>
<mask id="mask0">
  <g filter="url(#alpha)">
<rect x="0" y="0" width="12" height="12" style="fill:rgb(0%,0%,0%);fill-opacity:0.5;stroke:none;"/>
  </g>
</mask>
<clipPath id="clip1">
  <rect x="0" y="0" width="12" height="12"/>
</clipPath>
<g id="surface5" clip-path="url(#clip1)">
<path style=" stroke:none;fill-rule:nonzero;fill:rgb(100%,100%,100%);fill-opacity:1;" d="M 3 10 L 9.5 10 C 9.777344 10 10 10.222656 10 10.5 C 10 10.777344 9.777344 11 9.5 11 L 3 11 Z M 3 10 "/>
</g>
</defs>
<g id="surface1">
<path style=" stroke:none;fill-rule:nonzero;fill:rgb(100%,100%,100%);fill-opacity:1;" d="M 9.5 11 L 3.5 11 C 3.222656 11 3 10.777344 3 10.5 C 3 10.222656 3.222656 10 3.5 10 L 9 10 L 10 9 L 2 9 L 2 10.5 C 2 11.328125 2.671875 12 3.5 12 L 9.5 12 C 9.777344 12 10 11.777344 10 11.5 C 10 11.222656 9.777344 11 9.5 11 Z M 9.5 11 "/>
<path style=" stroke:none;fill-rule:evenodd;fill:rgb(100%,100%,100%);fill-opacity:1;" d="M 9 1 C 9.550781 1 10 1.449219 10 2 L 10 9.5 C 10 9.777344 9.777344 10 9.5 10 L 3 10 C 2.449219 10 2 9.550781 2 9 L 2 2.5 C 2 1.671875 2.671875 1 3.5 1 Z M 6.5 3.5 L 8 3.5 L 8 4.5 L 6.5 4.5 L 6.5 8 L 5.5 8 L 5.5 4.5 L 4 4.5 L 4 3.5 L 5.5 3.5 L 5.5 2 L 6.5 2 Z M 6.5 3.5 "/>
<use xlink:href="#surface5" mask="url(#mask0)"/>
</g>
</svg>
