<?xml version="1.0" encoding="UTF-8"?>
<svg xmlns="http://www.w3.org/2000/svg" xmlns:xlink="http://www.w3.org/1999/xlink" width="32" height="32" viewBox="0 0 32 32">
<defs>
<filter id="filter-remove-color" x="0%" y="0%" width="100%" height="100%">
<feColorMatrix color-interpolation-filters="sRGB" values="0 0 0 0 1 0 0 0 0 1 0 0 0 0 1 0 0 0 1 0" />
</filter>
<mask id="mask-0">
<g filter="url(#filter-remove-color)">
<rect x="-3.2" y="-3.2" width="38.4" height="38.4" fill="rgb(0%, 0%, 0%)" fill-opacity="0.605"/>
</g>
</mask>
<clipPath id="clip-0">
<rect x="0" y="0" width="32" height="32"/>
</clipPath>
<g id="source-7" clip-path="url(#clip-0)">
<path fill-rule="nonzero" fill="rgb(100%, 100%, 100%)" fill-opacity="1" d="M 9.222656 7.226562 L 4.066406 10.78125 L 4.066406 28.554688 L 14.382812 28.554688 L 14.382812 28.125 C 14.144531 28.09375 13.925781 28.042969 13.730469 27.964844 C 13.085938 27.714844 12.652344 27.296875 12.449219 27.078125 L 12.480469 27.113281 L 11.253906 25.886719 L 10.632812 25.886719 L 10.632812 25.261719 L 9.355469 23.988281 C 9.316406 23.949219 9.28125 23.90625 9.242188 23.863281 C 8.785156 23.316406 8.570312 22.714844 8.5 22.125 C 8.265625 22.054688 8.035156 21.960938 7.816406 21.847656 L 7.816406 22.332031 L 5.941406 22.332031 L 5.941406 20.554688 L 6.339844 20.554688 C 5.910156 19.945312 5.648438 19.21875 5.648438 18.464844 C 5.648438 17.988281 5.753906 17.519531 5.941406 17.085938 L 5.941406 17.003906 L 5.976562 17.003906 C 6.3125 16.273438 6.871094 15.644531 7.554688 15.226562 L 5.941406 15.226562 L 5.941406 13.449219 L 7.816406 13.449219 L 7.816406 15.078125 C 8.320312 14.816406 8.878906 14.667969 9.449219 14.667969 C 9.855469 14.667969 10.253906 14.746094 10.632812 14.886719 L 10.632812 14.753906 L 8.429688 10.882812 C 8.410156 10.851562 8.394531 10.816406 8.378906 10.78125 L 7.816406 10.78125 L 7.816406 9.984375 L 8.199219 9.714844 C 8.257812 9.265625 8.476562 8.851562 8.816406 8.546875 C 9.15625 8.246094 9.597656 8.078125 10.050781 8.074219 L 10.449219 8.070312 Z M 12.882812 9.75 L 14.382812 12.382812 L 14.382812 10.78125 Z M 5.941406 24.109375 L 7.816406 24.109375 L 7.816406 25.886719 L 5.941406 25.886719 Z M 5.941406 24.109375 "/>
</g>
<mask id="mask-1">
<g filter="url(#filter-remove-color)">
<rect x="-3.2" y="-3.2" width="38.4" height="38.4" fill="rgb(0%, 0%, 0%)" fill-opacity="0.605"/>
</g>
</mask>
<clipPath id="clip-1">
<rect x="0" y="0" width="32" height="32"/>
</clipPath>
<g id="source-11" clip-path="url(#clip-1)">
<path fill-rule="nonzero" fill="rgb(100%, 100%, 100%)" fill-opacity="1" d="M 19.246094 2.894531 L 19.246094 18.578125 C 19.304688 18.574219 19.363281 18.570312 19.421875 18.570312 C 19.425781 18.570312 19.425781 18.570312 19.425781 18.570312 L 20.828125 18.574219 L 20.828125 18.214844 L 22.40625 18.214844 L 22.40625 18.574219 L 23.160156 18.574219 C 23.746094 18.574219 24.296875 18.742188 24.773438 19.027344 L 24.773438 18.214844 L 26.351562 18.214844 L 26.351562 19.804688 L 25.660156 19.804688 C 26.015625 20.257812 26.253906 20.804688 26.328125 21.394531 L 26.351562 21.394531 L 26.351562 22.984375 L 26.101562 22.984375 C 25.613281 24.132812 24.464844 24.960938 23.160156 24.960938 C 23.15625 24.960938 23.15625 24.960938 23.15625 24.960938 L 22.652344 24.957031 C 22.59375 25.140625 22.511719 25.316406 22.40625 25.476562 L 22.40625 26.167969 L 21.683594 26.167969 L 19.292969 27.90625 C 19.289062 27.910156 19.285156 27.910156 19.28125 27.914062 C 19.269531 27.921875 19.257812 27.929688 19.246094 27.9375 L 19.246094 28.554688 L 27.933594 28.554688 L 27.933594 2.894531 Z M 20.828125 5.445312 L 22.40625 5.445312 L 22.40625 7.035156 L 20.828125 7.035156 Z M 24.78125 5.445312 L 26.363281 5.445312 L 26.363281 7.035156 L 24.78125 7.035156 Z M 20.828125 8.625 L 22.40625 8.625 L 22.40625 10.214844 L 20.828125 10.214844 Z M 24.78125 8.625 L 26.363281 8.625 L 26.363281 10.214844 L 24.78125 10.214844 Z M 20.828125 11.804688 L 22.40625 11.804688 L 22.40625 13.394531 L 20.828125 13.394531 Z M 24.78125 11.804688 L 26.363281 11.804688 L 26.363281 13.394531 L 24.78125 13.394531 Z M 20.828125 15.035156 L 22.40625 15.035156 L 22.40625 16.625 L 20.828125 16.625 Z M 24.773438 15.035156 L 26.351562 15.035156 L 26.351562 16.625 L 24.773438 16.625 Z M 24.773438 24.578125 L 26.351562 24.578125 L 26.351562 26.167969 L 24.773438 26.167969 Z M 24.773438 24.578125 "/>
</g>
</defs>
<path fill-rule="nonzero" fill="rgb(100%, 100%, 100%)" fill-opacity="1" d="M 10.832031 9.949219 L 10.0625 9.953125 L 14.304688 17.410156 L 14.855469 17.007812 Z M 9.449219 16.546875 C 8.9375 16.546875 8.453125 16.75 8.089844 17.109375 C 7.730469 17.46875 7.527344 17.957031 7.527344 18.464844 C 7.527344 18.972656 7.730469 19.460938 8.089844 19.824219 C 8.453125 20.183594 8.9375 20.386719 9.449219 20.386719 C 9.957031 20.386719 10.445312 20.183594 10.804688 19.824219 C 11.164062 19.460938 11.367188 18.972656 11.367188 18.464844 C 11.367188 17.957031 11.164062 17.46875 10.804688 17.109375 C 10.445312 16.75 9.957031 16.546875 9.449219 16.546875 Z M 15.871094 16.992188 C 15.640625 16.996094 15.414062 17.074219 15.226562 17.230469 L 10.902344 20.308594 C 10.273438 20.835938 10.160156 22.03125 10.6875 22.660156 L 13.808594 25.785156 C 13.808594 25.785156 14.660156 26.894531 16.0625 25.882812 L 20.042969 23.074219 L 23.160156 23.082031 C 23.886719 23.082031 24.472656 22.496094 24.472656 21.769531 C 24.472656 21.042969 23.886719 20.453125 23.160156 20.453125 L 19.421875 20.449219 C 19.125 20.449219 18.867188 20.578125 18.640625 20.742188 L 15.75 22.777344 L 13.761719 20.808594 L 16.53125 18.785156 C 16.960938 18.425781 17.015625 17.785156 16.65625 17.351562 C 16.453125 17.113281 16.160156 16.992188 15.871094 16.992188 Z M 16.230469 19.429688 L 15.6875 19.828125 L 16.722656 21.648438 L 17.265625 21.242188 Z M 20.320312 23.648438 C 20.28125 23.648438 20.246094 23.664062 20.210938 23.683594 L 17.605469 25.578125 C 17.519531 25.644531 17.5 25.765625 17.5625 25.851562 L 17.914062 26.339844 C 17.980469 26.429688 18.101562 26.445312 18.1875 26.386719 L 20.792969 24.492188 C 20.882812 24.425781 20.898438 24.304688 20.835938 24.21875 L 20.484375 23.726562 C 20.445312 23.675781 20.382812 23.648438 20.320312 23.648438 Z M 20.320312 23.648438 "/>
<g mask="url(#mask-0)">
<use xlink:href="#source-7"/>
</g>
<g mask="url(#mask-1)">
<use xlink:href="#source-11"/>
</g>
</svg>
