<?xml version="1.0" encoding="UTF-8"?>
<svg xmlns="http://www.w3.org/2000/svg" xmlns:xlink="http://www.w3.org/1999/xlink" width="12" height="12" viewBox="0 0 12 12" version="1.1">
<g id="surface1">
<path style=" stroke:none;fill-rule:nonzero;fill:rgb(90.980393%,90.980393%,90.980393%);fill-opacity:1;" d="M 8.160156 2.429688 L 9.183594 3.449219 L 2.816406 9.8125 C 1.703125 10.917969 0.78125 9.808594 1.796875 8.792969 C 2.8125 7.777344 8.160156 2.429688 8.160156 2.429688 Z M 8.160156 2.429688 "/>
<path style=" stroke:none;fill-rule:nonzero;fill:rgb(100%,100%,100%);fill-opacity:1;" d="M 9.890625 6.984375 L 3.316406 0.414062 L 7.769531 2.035156 L 11.304688 5.570312 Z M 9.890625 6.984375 "/>
<path style=" stroke:none;fill-rule:nonzero;fill:rgb(85.09804%,85.09804%,85.09804%);fill-opacity:1;" d="M 8 11 C 8 11.550781 7.550781 12 7 12 C 6.449219 12 6 11.550781 6 11 C 6 10.449219 6.449219 10 7 10 C 7.550781 10 8 10.449219 8 11 Z M 8 11 "/>
<path style=" stroke:none;fill-rule:nonzero;fill:rgb(85.09804%,85.09804%,85.09804%);fill-opacity:1;" d="M 10 10 C 10 10.550781 9.550781 11 9 11 C 8.449219 11 8 10.550781 8 10 C 8 9.449219 8.449219 9 9 9 C 9.550781 9 10 9.449219 10 10 Z M 10 10 "/>
<path style=" stroke:none;fill-rule:nonzero;fill:rgb(85.09804%,85.09804%,85.09804%);fill-opacity:1;" d="M 12 11 C 12 11.550781 11.550781 12 11 12 C 10.449219 12 10 11.550781 10 11 C 10 10.449219 10.449219 10 11 10 C 11.550781 10 12 10.449219 12 11 Z M 12 11 "/>
</g>
</svg>
