<?xml version="1.0" encoding="UTF-8"?>
<svg xmlns="http://www.w3.org/2000/svg" xmlns:xlink="http://www.w3.org/1999/xlink" width="12" height="12" viewBox="0 0 12 12" version="1.1">
<defs>
<filter id="alpha" filterUnits="objectBoundingBox" x="0%" y="0%" width="100%" height="100%">
  <feColorMatrix type="matrix" in="SourceGraphic" values="0 0 0 0 1 0 0 0 0 1 0 0 0 0 1 0 0 0 1 0"/>
</filter>
<mask id="mask0">
  <g filter="url(#alpha)">
<rect x="0" y="0" width="12" height="12" style="fill:rgb(0%,0%,0%);fill-opacity:0.581;stroke:none;"/>
  </g>
</mask>
<clipPath id="clip1">
  <rect x="0" y="0" width="12" height="12"/>
</clipPath>
<g id="surface5" clip-path="url(#clip1)">
<path style=" stroke:none;fill-rule:nonzero;fill:rgb(100%,100%,100%);fill-opacity:1;" d="M 2.738281 0.703125 L 1.925781 4.777344 L 3.359375 4.777344 C 3.359375 4.773438 3.363281 4.769531 3.363281 4.761719 C 3.402344 4.679688 3.449219 4.605469 3.507812 4.535156 Z M 9.261719 0.703125 L 8.445312 4.777344 L 10.074219 4.777344 Z M 6 2.738281 L 4.882812 4.304688 C 4.980469 4.363281 5.070312 4.441406 5.144531 4.527344 L 5.136719 4.523438 L 5.246094 4.652344 C 5.265625 4.011719 5.667969 3.375 6.328125 3.199219 Z M 1.925781 5.164062 L 1.925781 11.273438 L 3.554688 11.273438 L 3.554688 5.917969 L 3.523438 5.878906 L 3.527344 5.886719 C 3.359375 5.6875 3.269531 5.421875 3.277344 5.164062 Z M 8.445312 5.183594 L 8.445312 5.316406 C 8.75 5.539062 8.980469 5.859375 9.066406 6.226562 L 9.066406 6.21875 L 9.5625 8.167969 C 9.59375 8.289062 9.609375 8.410156 9.609375 8.535156 C 9.707031 8.933594 9.585938 9.382812 9.300781 9.679688 C 9.675781 9.878906 9.953125 10.273438 9.957031 10.703125 C 9.960938 10.914062 9.898438 11.117188 9.789062 11.296875 L 10.074219 11.296875 L 10.074219 5.183594 Z M 5.8125 5.855469 L 5.832031 5.867188 C 5.828125 5.863281 5.824219 5.859375 5.820312 5.855469 C 5.816406 5.855469 5.816406 5.855469 5.8125 5.855469 Z M 3.960938 6.402344 L 3.960938 11.296875 L 5.105469 11.296875 C 5.023438 11.152344 4.96875 10.992188 4.957031 10.824219 C 4.867188 10.460938 4.957031 10.0625 5.183594 9.765625 L 5.183594 7.554688 C 4.976562 7.5 4.785156 7.382812 4.648438 7.214844 Z M 1.519531 7.605469 L 0.703125 8.421875 L 0.703125 11.273438 L 1.519531 11.273438 Z M 10.480469 7.628906 L 10.480469 11.296875 L 11.296875 11.296875 L 11.296875 8.445312 Z M 10.480469 7.628906 "/>
</g>
</defs>
<g id="surface1">
<use xlink:href="#surface5" mask="url(#mask0)"/>
<path style=" stroke:none;fill-rule:nonzero;fill:rgb(100%,100%,100%);fill-opacity:1;" d="M 6.710938 3.765625 C 6.691406 3.769531 6.671875 3.769531 6.65625 3.769531 C 5.851562 3.816406 5.542969 4.898438 6.191406 5.363281 C 6.8125 5.839844 7.742188 5.265625 7.585938 4.488281 C 7.507812 4.058594 7.144531 3.761719 6.710938 3.765625 Z M 4.320312 4.761719 C 4.238281 4.761719 4.15625 4.789062 4.089844 4.832031 C 4.019531 4.878906 3.964844 4.941406 3.929688 5.019531 C 3.898438 5.09375 3.886719 5.175781 3.898438 5.257812 C 3.910156 5.339844 3.945312 5.417969 4 5.480469 L 5.121094 6.816406 C 5.164062 6.871094 5.222656 6.910156 5.28125 6.9375 C 5.34375 6.964844 5.414062 6.976562 5.480469 6.972656 L 6.5625 6.902344 L 7.050781 8.816406 C 7.054688 8.835938 7.0625 8.859375 7.070312 8.878906 L 5.75 10.070312 C 5.65625 10.148438 5.585938 10.257812 5.554688 10.375 C 5.523438 10.492188 5.53125 10.617188 5.570312 10.734375 C 5.570312 10.808594 5.585938 10.882812 5.613281 10.949219 C 5.640625 11.019531 5.679688 11.082031 5.734375 11.132812 C 5.785156 11.1875 5.847656 11.226562 5.917969 11.253906 C 5.984375 11.28125 6.058594 11.296875 6.132812 11.292969 L 8.785156 11.265625 C 8.859375 11.265625 8.929688 11.25 9 11.222656 C 9.066406 11.195312 9.125 11.15625 9.175781 11.101562 C 9.230469 11.050781 9.269531 10.988281 9.296875 10.921875 C 9.324219 10.855469 9.339844 10.78125 9.335938 10.710938 C 9.335938 10.636719 9.320312 10.566406 9.292969 10.5 C 9.261719 10.433594 9.222656 10.371094 9.167969 10.320312 C 9.117188 10.269531 9.054688 10.230469 8.988281 10.203125 C 8.917969 10.175781 8.847656 10.164062 8.773438 10.167969 L 7.613281 10.179688 L 8.78125 9.3125 C 8.886719 9.238281 8.964844 9.128906 9.003906 9.003906 C 9.042969 8.878906 9.039062 8.746094 8.996094 8.621094 C 9 8.523438 8.988281 8.421875 8.960938 8.328125 L 8.464844 6.371094 C 8.414062 6.160156 8.296875 5.972656 8.128906 5.839844 C 7.960938 5.703125 7.753906 5.625 7.539062 5.617188 C 7.375 5.609375 7.214844 5.644531 7.070312 5.714844 C 6.925781 5.789062 6.796875 5.894531 6.703125 6.023438 L 5.644531 6.09375 L 4.664062 4.921875 C 4.621094 4.871094 4.570312 4.832031 4.507812 4.800781 C 4.449219 4.773438 4.386719 4.761719 4.320312 4.761719 Z M 4.320312 4.761719 "/>
</g>
</svg>
