<svg width="12" height="12" viewBox="0 0 48 48" fill="none" xmlns="http://www.w3.org/2000/svg">
<path fill-rule="evenodd" clip-rule="evenodd" d="M7.99951 8C7.99951 5.79086 9.79037 4 11.9995 4H19.9995C22.2087 4 23.9995 5.79086 23.9995 8V8.61321C24.737 8.94877 25.4158 9.41604 25.9998 9.99998C27.2803 11.2806 27.9998 13.0174 27.9998 14.8284V32C27.9998 34.2091 26.2089 36 23.9998 36H7.99976C5.79062 36 3.99976 34.2091 3.99976 32V14.8284C3.99976 13.0174 4.71918 11.2806 5.99976 9.99998C6.58358 9.41616 7.26223 8.94898 7.99951 8.61343V8ZM13.9999 8.00001C12.8954 8.00001 11.9999 8.89543 11.9999 10C11.9999 11.1046 12.8954 12 13.9999 12L18 12C19.1045 12 19.9999 11.1046 19.9999 9.99999C19.9999 8.89542 19.1045 7.99999 17.9999 7.99999L13.9999 8.00001ZM13.9999 16L8.00007 16V24L13.9999 24V16ZM17.9999 16L24.0001 16V24L17.9999 24V16ZM10.0001 32C11.1046 32 12.0001 31.1046 12.0001 30C12.0001 28.8955 11.1046 28 10.0001 28C8.8955 28 8.00007 28.8955 8.00007 30C8.00007 31.1046 8.8955 32 10.0001 32ZM23.9998 30C23.9998 31.1046 23.1043 32 21.9998 32C20.8952 32 19.9998 31.1046 19.9998 30C19.9998 28.8955 20.8952 28 21.9998 28C23.1043 28 23.9998 28.8955 23.9998 30Z" fill="#ffffff"/>
<path d="M28.0001 4L48.0001 0V44H28.0001V36H44.0001V8H28.0001V4Z" fill="#ffffff"/>
<g opacity="0.5">
<path d="M8 36H12L10 40H21.9991L23.9991 44L4 44L8 36Z" fill="#ffffff"/>
<path d="M20 36H24L28 44L23.9991 44L20 36Z" fill="#ffffff"/>
<path d="M37 12.126C38.7252 12.5701 40 14.1362 40 16C40 18.2091 38.2091 20 36 20C33.7909 20 32 18.2091 32 16C32 14.1362 33.2748 12.5701 35 12.126V6H37V12.126Z" fill="#ffffff"/>
</g>
</svg>
