<?xml version="1.0" encoding="UTF-8"?>
<svg xmlns="http://www.w3.org/2000/svg" xmlns:xlink="http://www.w3.org/1999/xlink" width="32" height="32" viewBox="0 0 32 32">
<path fill-rule="nonzero" fill="rgb(90.980392%, 90.980392%, 90.980392%)" fill-opacity="1" d="M 21.761719 6.472656 L 24.484375 9.199219 L 7.515625 26.167969 C 4.546875 29.109375 2.085938 26.152344 4.789062 23.445312 C 7.496094 20.738281 21.761719 6.472656 21.761719 6.472656 Z M 21.761719 6.472656 "/>
<path fill-rule="nonzero" fill="rgb(100%, 100%, 100%)" fill-opacity="1" d="M 26.371094 18.628906 L 8.847656 1.105469 L 20.714844 5.429688 L 30.140625 14.855469 Z M 26.371094 18.628906 "/>
<path fill-rule="nonzero" fill="rgb(85.098039%, 85.098039%, 85.098039%)" fill-opacity="1" d="M 21.332031 29.332031 C 21.332031 30.804688 20.140625 32 18.667969 32 C 17.195312 32 16 30.804688 16 29.332031 C 16 27.859375 17.195312 26.667969 18.667969 26.667969 C 20.140625 26.667969 21.332031 27.859375 21.332031 29.332031 Z M 21.332031 29.332031 "/>
<path fill-rule="nonzero" fill="rgb(85.098039%, 85.098039%, 85.098039%)" fill-opacity="1" d="M 26.667969 26.667969 C 26.667969 28.140625 25.472656 29.332031 24 29.332031 C 22.527344 29.332031 21.332031 28.140625 21.332031 26.667969 C 21.332031 25.195312 22.527344 24 24 24 C 25.472656 24 26.667969 25.195312 26.667969 26.667969 Z M 26.667969 26.667969 "/>
<path fill-rule="nonzero" fill="rgb(85.098039%, 85.098039%, 85.098039%)" fill-opacity="1" d="M 32 29.332031 C 32 30.804688 30.804688 32 29.332031 32 C 27.859375 32 26.667969 30.804688 26.667969 29.332031 C 26.667969 27.859375 27.859375 26.667969 29.332031 26.667969 C 30.804688 26.667969 32 27.859375 32 29.332031 Z M 32 29.332031 "/>
</svg>
