<?xml version="1.0" encoding="UTF-8"?>
<svg xmlns="http://www.w3.org/2000/svg" xmlns:xlink="http://www.w3.org/1999/xlink" width="32" height="32" viewBox="0 0 32 32">
<defs>
<filter id="filter-remove-color" x="0%" y="0%" width="100%" height="100%">
<feColorMatrix color-interpolation-filters="sRGB" values="0 0 0 0 1 0 0 0 0 1 0 0 0 0 1 0 0 0 1 0" />
</filter>
<mask id="mask-0">
<g filter="url(#filter-remove-color)">
<rect x="-3.2" y="-3.2" width="38.4" height="38.4" fill="rgb(0%, 0%, 0%)" fill-opacity="0.581"/>
</g>
</mask>
<clipPath id="clip-0">
<rect x="0" y="0" width="32" height="32"/>
</clipPath>
<g id="source-6" clip-path="url(#clip-0)">
<path fill-rule="nonzero" fill="rgb(100%, 100%, 100%)" fill-opacity="1" d="M 7.308594 1.875 L 5.132812 12.738281 L 8.957031 12.738281 C 8.960938 12.726562 8.964844 12.714844 8.972656 12.703125 C 9.070312 12.484375 9.199219 12.28125 9.351562 12.09375 Z M 24.691406 1.875 L 22.519531 12.738281 L 26.867188 12.738281 Z M 16 7.308594 L 13.023438 11.472656 C 13.285156 11.636719 13.519531 11.839844 13.714844 12.078125 L 13.699219 12.058594 L 13.988281 12.402344 C 14.039062 10.691406 15.113281 9.003906 16.871094 8.527344 Z M 5.132812 13.765625 L 5.132812 30.066406 L 9.480469 30.066406 L 9.480469 15.777344 L 9.394531 15.675781 L 9.410156 15.695312 C 8.953125 15.167969 8.71875 14.460938 8.734375 13.765625 Z M 22.519531 13.828125 L 22.519531 14.179688 C 23.328125 14.769531 23.945312 15.628906 24.179688 16.605469 L 24.175781 16.582031 L 25.5 21.78125 C 25.585938 22.101562 25.621094 22.429688 25.628906 22.757812 C 25.882812 23.824219 25.5625 25.015625 24.804688 25.8125 C 25.804688 26.339844 26.542969 27.402344 26.554688 28.542969 C 26.5625 29.105469 26.390625 29.648438 26.097656 30.125 L 26.867188 30.125 L 26.867188 13.828125 Z M 15.503906 15.609375 L 15.546875 15.644531 C 15.539062 15.636719 15.527344 15.628906 15.515625 15.621094 C 15.511719 15.617188 15.507812 15.613281 15.503906 15.609375 Z M 10.566406 17.074219 L 10.566406 30.125 L 13.617188 30.125 C 13.394531 29.738281 13.25 29.308594 13.214844 28.863281 C 12.980469 27.898438 13.21875 26.828125 13.828125 26.046875 L 13.828125 20.148438 C 13.273438 20 12.761719 19.683594 12.390625 19.242188 Z M 4.046875 20.285156 L 1.875 22.460938 L 1.875 30.066406 L 4.046875 30.066406 Z M 27.953125 20.347656 L 27.953125 30.125 L 30.125 30.125 L 30.125 22.519531 Z M 27.953125 20.347656 "/>
</g>
</defs>
<g mask="url(#mask-0)">
<use xlink:href="#source-6"/>
</g>
<path fill-rule="nonzero" fill="rgb(100%, 100%, 100%)" fill-opacity="1" d="M 17.898438 10.046875 C 17.847656 10.046875 17.796875 10.050781 17.746094 10.058594 C 15.605469 10.175781 14.785156 13.0625 16.511719 14.296875 C 18.167969 15.570312 20.648438 14.039062 20.230469 11.972656 C 20.019531 10.828125 19.054688 10.027344 17.898438 10.046875 Z M 11.519531 12.699219 C 11.300781 12.703125 11.085938 12.769531 10.902344 12.886719 C 10.71875 13.007812 10.570312 13.179688 10.480469 13.382812 C 10.390625 13.582031 10.359375 13.804688 10.390625 14.023438 C 10.425781 14.242188 10.519531 14.445312 10.660156 14.613281 L 13.65625 18.179688 C 13.773438 18.316406 13.921875 18.425781 14.089844 18.5 C 14.253906 18.570312 14.433594 18.601562 14.617188 18.589844 L 17.5 18.410156 L 18.800781 23.507812 C 18.816406 23.566406 18.832031 23.625 18.851562 23.679688 L 15.332031 26.855469 C 15.082031 27.066406 14.902344 27.347656 14.816406 27.664062 C 14.730469 27.980469 14.746094 28.316406 14.859375 28.625 C 14.855469 28.824219 14.890625 29.019531 14.964844 29.203125 C 15.039062 29.386719 15.148438 29.550781 15.289062 29.691406 C 15.429688 29.832031 15.597656 29.941406 15.78125 30.011719 C 15.964844 30.085938 16.160156 30.121094 16.355469 30.117188 L 23.429688 30.042969 C 23.625 30.042969 23.816406 30.003906 23.996094 29.929688 C 24.175781 29.855469 24.335938 29.746094 24.472656 29.609375 C 24.609375 29.46875 24.71875 29.308594 24.792969 29.125 C 24.863281 28.945312 24.902344 28.753906 24.898438 28.558594 C 24.898438 28.367188 24.855469 28.175781 24.78125 27.996094 C 24.703125 27.816406 24.589844 27.65625 24.453125 27.523438 C 24.3125 27.386719 24.144531 27.28125 23.964844 27.210938 C 23.785156 27.140625 23.589844 27.105469 23.398438 27.109375 L 20.304688 27.144531 L 23.417969 24.839844 C 23.699219 24.632812 23.910156 24.34375 24.011719 24.011719 C 24.113281 23.675781 24.105469 23.320312 23.988281 22.992188 C 23.996094 22.726562 23.96875 22.460938 23.902344 22.207031 L 22.570312 16.992188 C 22.4375 16.433594 22.121094 15.933594 21.675781 15.566406 C 21.230469 15.203125 20.679688 14.996094 20.101562 14.976562 C 19.671875 14.960938 19.242188 15.050781 18.851562 15.242188 C 18.464844 15.433594 18.128906 15.714844 17.878906 16.066406 L 15.054688 16.246094 L 12.433594 13.125 C 12.324219 12.988281 12.183594 12.878906 12.027344 12.808594 C 11.867188 12.734375 11.695312 12.695312 11.519531 12.699219 Z M 11.519531 12.699219 "/>
</svg>
