<?xml version="1.0" encoding="UTF-8"?>
<svg xmlns="http://www.w3.org/2000/svg" xmlns:xlink="http://www.w3.org/1999/xlink" width="32" height="32" viewBox="0 0 32 32">
<path fill-rule="nonzero" fill="rgb(100%, 100%, 100%)" fill-opacity="1" d="M 8.019531 7.003906 C 8.570312 7.003906 9.046875 6.789062 9.449219 6.359375 C 9.851562 5.933594 10.054688 5.425781 10.054688 4.835938 C 10.054688 4.21875 9.851562 3.703125 9.449219 3.289062 C 9.046875 2.875 8.570312 2.667969 8.019531 2.667969 C 7.464844 2.667969 6.988281 2.875 6.585938 3.289062 C 6.183594 3.703125 5.984375 4.21875 5.984375 4.835938 C 5.984375 5.425781 6.183594 5.933594 6.585938 6.359375 C 6.988281 6.789062 7.464844 7.003906 8.019531 7.003906 Z M 10.695312 7.445312 L 5.304688 7.445312 C 4.578125 7.445312 3.953125 7.71875 3.441406 8.269531 C 2.925781 8.816406 2.667969 9.332031 2.667969 9.332031 L 1.332031 13.332031 L 2.667969 16.964844 C 2.667969 17.605469 2.941406 17.929688 3.496094 17.929688 C 4.023438 17.929688 4.289062 17.605469 4.289062 16.964844 L 3.496094 13.332031 L 4.289062 10.667969 L 5.304688 10.667969 L 5.265625 28.128906 C 5.265625 28.933594 5.644531 29.332031 6.398438 29.332031 C 7.152344 29.332031 7.527344 28.933594 7.527344 28.128906 L 7.527344 18.667969 L 8.507812 18.667969 L 8.507812 28.128906 C 8.507812 28.933594 8.886719 29.332031 9.640625 29.332031 C 10.417969 29.332031 10.808594 28.933594 10.808594 28.128906 L 10.695312 10.667969 L 11.75 10.667969 L 12.597656 13.332031 L 11.75 16.964844 C 11.75 17.632812 12.011719 17.96875 12.539062 17.96875 C 13.070312 17.96875 13.332031 17.632812 13.332031 16.964844 L 14.667969 13.332031 L 13.332031 9.332031 C 13.332031 9.332031 13.089844 8.882812 12.597656 8.308594 C 12.109375 7.734375 11.472656 7.445312 10.695312 7.445312 Z M 10.695312 7.445312 "/>
<path fill-rule="nonzero" fill="rgb(87.45098%, 87.45098%, 87.45098%)" fill-opacity="1" d="M 18.667969 16 L 29.332031 16 L 29.332031 29.332031 L 18.667969 29.332031 Z M 18.667969 16 "/>
<path fill-rule="nonzero" fill="rgb(100%, 100%, 100%)" fill-opacity="1" d="M 24 10.667969 L 32 16 L 16 16 Z M 24 10.667969 "/>
<path fill-rule="evenodd" fill="rgb(100%, 100%, 100%)" fill-opacity="1" d="M 25.332031 2.667969 L 25.332031 13.332031 L 22.667969 13.332031 L 22.667969 2.667969 Z M 25.332031 2.667969 "/>
<path fill-rule="nonzero" fill="rgb(100%, 100%, 100%)" fill-opacity="1" d="M 24 2.667969 L 29.332031 2.667969 L 29.332031 8 L 24 8 Z M 24 2.667969 "/>
</svg>
