<?xml version="1.0" encoding="UTF-8"?>
<svg xmlns="http://www.w3.org/2000/svg" xmlns:xlink="http://www.w3.org/1999/xlink" width="12" height="12" viewBox="0 0 12 12">
<defs>
<filter id="filter-remove-color" x="0%" y="0%" width="100%" height="100%">
<feColorMatrix color-interpolation-filters="sRGB" values="0 0 0 0 1 0 0 0 0 1 0 0 0 0 1 0 0 0 1 0" />
</filter>
<mask id="mask-0">
<g filter="url(#filter-remove-color)">
<rect x="-1.2" y="-1.2" width="14.4" height="14.4" fill="rgb(0%, 0%, 0%)" fill-opacity="0.4"/>
</g>
</mask>
<clipPath id="clip-0">
<rect x="0" y="0" width="12" height="12"/>
</clipPath>
<g id="source-6" clip-path="url(#clip-0)">
<path fill-rule="nonzero" fill="rgb(100%, 100%, 100%)" fill-opacity="1" d="M 5.207031 8.988281 C 4.175781 8.953125 3.292969 8.847656 2.570312 8.722656 L 3.144531 8.144531 C 3.617188 7.675781 4.382812 7.675781 4.855469 8.144531 C 5.085938 8.378906 5.203125 8.683594 5.207031 8.988281 Z M 5.207031 8.988281 "/>
</g>
</defs>
<g mask="url(#mask-0)">
<use xlink:href="#source-6"/>
</g>
<path fill-rule="nonzero" fill="rgb(100%, 100%, 100%)" fill-opacity="1" d="M 6 2.75 C 6 3.164062 5.664062 3.5 5.25 3.5 C 4.835938 3.5 4.5 3.164062 4.5 2.75 C 4.5 2.335938 4.835938 2 5.25 2 C 5.664062 2 6 2.335938 6 2.75 Z M 6 2.75 "/>
<path fill-rule="evenodd" fill="rgb(100%, 100%, 100%)" fill-opacity="1" d="M 4.5 4.75 C 4.5 4.335938 4.835938 4 5.25 4 C 5.59375 4 5.882812 4.230469 5.972656 4.546875 C 6.101562 4.683594 6.230469 4.816406 6.351562 4.925781 C 6.496094 5.054688 6.601562 5.132812 6.667969 5.164062 C 6.824219 5.242188 6.988281 5.246094 7.125 5.222656 C 7.195312 5.210938 7.25 5.195312 7.289062 5.183594 C 7.308594 5.175781 7.320312 5.167969 7.328125 5.167969 L 7.335938 5.164062 C 7.394531 5.132812 7.457031 5.121094 7.519531 5.125 L 8.355469 4.292969 C 8.238281 4.03125 8.285156 3.714844 8.5 3.5 L 10 2 L 11 3 L 9.5 4.5 C 9.285156 4.714844 8.96875 4.761719 8.707031 4.644531 L 7.875 5.480469 C 7.882812 5.625 7.804688 5.765625 7.667969 5.835938 C 7.660156 5.839844 7.65625 5.839844 7.652344 5.84375 C 7.640625 5.851562 7.636719 5.855469 7.539062 5.886719 C 7.507812 5.898438 7.472656 5.910156 7.429688 5.921875 L 6.851562 6.5 L 8 6.5 C 8.277344 6.5 8.5 6.722656 8.5 7 L 11.554688 7 C 11.800781 7 12 7.199219 12 7.445312 C 12 7.785156 11.808594 8.09375 11.488281 8.207031 C 10.660156 8.5 8.832031 9 6 9 C 5.726562 9 5.460938 8.996094 5.207031 8.988281 C 5.203125 8.761719 5.140625 8.535156 5.011719 8.339844 L 4.644531 8.707031 C 4.761719 8.96875 4.714844 9.285156 4.5 9.5 L 3 11 L 2 10 L 3.5 8.5 C 3.714844 8.285156 4.03125 8.238281 4.292969 8.355469 L 4.660156 7.988281 C 4.191406 7.683594 3.558594 7.734375 3.144531 8.144531 L 2.570312 8.722656 C 1.621094 8.558594 0.933594 8.355469 0.511719 8.207031 C 0.191406 8.09375 0 7.785156 0 7.445312 C 0 7.199219 0.199219 7 0.445312 7 L 3.5 7 C 3.5 6.722656 3.722656 6.5 4 6.5 L 4.5 6.5 Z M 6.144531 6.5 L 6.6875 5.957031 C 6.574219 5.933594 6.453125 5.894531 6.332031 5.835938 C 6.222656 5.78125 6.109375 5.699219 6 5.609375 L 6 6.5 Z M 6.144531 6.5 "/>
</svg>
