<?xml version="1.0" encoding="UTF-8"?>
<svg xmlns="http://www.w3.org/2000/svg" xmlns:xlink="http://www.w3.org/1999/xlink" width="12" height="12" viewBox="0 0 12 12">
<path fill-rule="evenodd" fill="rgb(100%, 100%, 100%)" fill-opacity="1" d="M 7.296875 2.5 L 5 2.5 L 5 3.5 L 6 3.5 L 6 5 L 2.5 5 L 2.5 4.5 C 2.5 4.222656 2.277344 4 2 4 L 0.5 4 C 0.222656 4 0 4.222656 0 4.5 L 0 5.5 L 0.875 5.5 L 0.5 7 L 0 7 L 0 8 C 0.246094 8 0.367188 7.996094 0.523438 7.949219 C 0.691406 7.898438 0.960938 7.777344 1.398438 7.449219 L 2.019531 6.984375 L 2.625 7.46875 C 3.09375 7.84375 3.566406 8 4 8 C 4.433594 8 4.90625 7.84375 5.375 7.46875 L 6 6.96875 L 6.625 7.46875 C 7.09375 7.84375 7.566406 8 8 8 C 8.433594 8 8.90625 7.84375 9.375 7.46875 L 9.980469 6.984375 L 10.601562 7.449219 C 10.789062 7.589844 10.945312 7.695312 11.078125 7.769531 L 12 5 L 10.316406 5 L 8.832031 3.21875 C 8.453125 2.761719 7.890625 2.5 7.296875 2.5 Z M 7 5 L 9.015625 5 L 8.066406 3.859375 C 7.875 3.632812 7.59375 3.5 7.296875 3.5 L 7 3.5 Z M 7 5 "/>
<path fill-rule="nonzero" fill="rgb(100%, 100%, 100%)" fill-opacity="1" d="M 6.3125 7.859375 L 6 7.609375 L 5.6875 7.859375 C 5.140625 8.296875 4.5625 8.5 4 8.5 C 3.4375 8.5 2.859375 8.296875 2.3125 7.859375 L 2.011719 7.617188 L 1.699219 7.851562 C 1.230469 8.203125 0.910156 8.355469 0.667969 8.425781 C 0.433594 8.5 0.246094 8.5 0 8.5 L 0 9.5 L 0.0117188 9.5 C 0.261719 9.5 0.574219 9.5 0.957031 9.386719 C 1.265625 9.292969 1.601562 9.132812 1.996094 8.867188 C 2.621094 9.28125 3.304688 9.5 4 9.5 C 4.695312 9.5 5.378906 9.28125 6 8.867188 C 6.621094 9.28125 7.304688 9.5 8 9.5 C 8.695312 9.5 9.378906 9.28125 10.003906 8.867188 C 10.398438 9.132812 10.734375 9.292969 11.042969 9.386719 C 11.425781 9.5 11.738281 9.5 11.988281 9.5 L 12 9.5 L 12 8.5 C 11.753906 8.5 11.566406 8.5 11.332031 8.425781 C 11.089844 8.355469 10.769531 8.203125 10.300781 7.851562 L 9.988281 7.617188 L 9.6875 7.859375 C 9.140625 8.296875 8.5625 8.5 8 8.5 C 7.4375 8.5 6.859375 8.296875 6.3125 7.859375 Z M 6.3125 7.859375 "/>
</svg>
