<?xml version="1.0" encoding="UTF-8"?>
<svg xmlns="http://www.w3.org/2000/svg" xmlns:xlink="http://www.w3.org/1999/xlink" width="32" height="32" viewBox="0 0 32 32">
<path fill-rule="evenodd" fill="rgb(24.705882%, 24.705882%, 24.705882%)" fill-opacity="1" d="M 2.792969 3.300781 L 2.792969 16.847656 C 2.792969 16.847656 5.601562 18.058594 6.09375 18.03125 C 7.703125 17.945312 11.132812 15.332031 11.132812 15.332031 C 11.132812 15.332031 14.730469 14.136719 15.238281 14.054688 C 15.746094 13.96875 16.761719 9.988281 17.101562 9.820312 C 17.4375 9.652344 21.585938 8.042969 21.585938 8.042969 L 25.058594 3.300781 Z M 2.792969 3.300781 "/>
<path fill-rule="evenodd" fill="rgb(24.705882%, 24.705882%, 24.705882%)" fill-opacity="1" d="M 29.386719 28.867188 L 29.386719 13.460938 C 29.386719 13.460938 28.613281 14.367188 28.117188 14.390625 C 26.511719 14.476562 23.742188 18.09375 23.742188 18.09375 C 23.742188 18.09375 19.738281 19.46875 19.230469 19.550781 C 18.722656 19.636719 16.605469 23.621094 16.265625 23.789062 C 15.929688 23.957031 9.664062 26.074219 9.664062 26.074219 L 6.53125 28.867188 Z M 29.386719 28.867188 "/>
<path fill-rule="evenodd" fill="rgb(24.705882%, 24.705882%, 24.705882%)" fill-opacity="1" d="M 22.257812 11.578125 L 10.113281 20.394531 L 11.367188 22.121094 L 23.507812 13.308594 Z M 22.257812 11.578125 "/>
<path fill-rule="evenodd" fill="rgb(24.705882%, 24.705882%, 24.705882%)" fill-opacity="1" d="M 14.578125 21.664062 L 9.117188 22.449219 L 11.558594 17.496094 C 11.816406 19.1875 13.039062 20.867188 14.578125 21.664062 Z M 14.578125 21.664062 "/>
<path fill-rule="evenodd" fill="rgb(24.705882%, 24.705882%, 24.705882%)" fill-opacity="1" d="M 19.046875 12.035156 L 24.507812 11.25 L 22.066406 16.203125 C 21.804688 14.515625 20.582031 12.835938 19.046875 12.035156 Z M 19.046875 12.035156 "/>
</svg>
