<?xml version="1.0" encoding="UTF-8"?>
<svg xmlns="http://www.w3.org/2000/svg" xmlns:xlink="http://www.w3.org/1999/xlink" width="32" height="32" viewBox="0 0 32 32">
<path fill-rule="evenodd" fill="rgb(100%, 100%, 100%)" fill-opacity="1" d="M 10.667969 18.519531 C 10.667969 16.863281 11.050781 15.230469 11.792969 13.746094 L 16 5.332031 L 18.667969 5.332031 L 14.570312 13.527344 C 15.023438 13.402344 15.503906 13.332031 16 13.332031 C 18.945312 13.332031 21.332031 15.722656 21.332031 18.667969 L 21.332031 21.332031 C 21.332031 24.277344 18.945312 26.667969 16 26.667969 C 13.054688 26.667969 10.667969 24.277344 10.667969 21.332031 Z M 18.667969 18.667969 C 18.667969 17.195312 17.472656 16 16 16 C 14.527344 16 13.332031 17.195312 13.332031 18.667969 L 13.332031 21.332031 C 13.332031 22.804688 14.527344 24 16 24 C 17.472656 24 18.667969 22.804688 18.667969 21.332031 Z M 18.667969 18.667969 "/>
</svg>
