<?xml version="1.0" encoding="UTF-8"?>
<svg xmlns="http://www.w3.org/2000/svg" xmlns:xlink="http://www.w3.org/1999/xlink" width="32" height="32" viewBox="0 0 32 32">
<path fill-rule="nonzero" fill="rgb(100%, 100%, 100%)" fill-opacity="1" d="M 12.519531 11.410156 C 8.054688 11.410156 4.5 14.960938 4.5 19.425781 C 4.5 23.894531 8.054688 27.445312 12.519531 27.445312 C 16.988281 27.445312 20.539062 23.894531 20.539062 19.425781 C 20.539062 14.960938 16.988281 11.410156 12.519531 11.410156 Z M 11.949219 17.136719 C 11.03125 17.136719 10.230469 16.335938 10.230469 15.417969 C 10.230469 14.5 11.03125 13.699219 11.949219 13.699219 C 12.863281 13.699219 13.664062 14.5 13.664062 15.417969 C 13.664062 16.335938 12.863281 17.136719 11.949219 17.136719 Z M 15.957031 18.28125 C 15.269531 18.28125 14.8125 17.824219 14.8125 17.136719 C 14.8125 16.449219 15.269531 15.992188 15.957031 15.992188 C 16.644531 15.992188 17.101562 16.449219 17.101562 17.136719 C 17.101562 17.824219 16.644531 18.28125 15.957031 18.28125 Z M 12.519531 20.574219 C 11.832031 20.574219 11.375 20.113281 11.375 19.425781 C 11.375 18.738281 11.832031 18.28125 12.519531 18.28125 C 13.207031 18.28125 13.664062 18.738281 13.664062 19.425781 C 13.664062 20.113281 13.207031 20.574219 12.519531 20.574219 Z M 12.519531 20.574219 "/>
<path fill-rule="nonzero" fill="rgb(100%, 100%, 100%)" fill-opacity="1" d="M 21.570312 9.230469 C 21.570312 9.574219 21.570312 9.917969 21.457031 10.261719 L 25.351562 10.261719 C 25.351562 9.917969 25.234375 9.574219 25.234375 9.230469 C 25.234375 8.773438 25.464844 8.199219 25.578125 7.628906 C 25.695312 7.167969 25.695312 6.710938 25.578125 6.253906 C 25.351562 5.453125 24.777344 4.765625 23.976562 4.648438 C 22.371094 4.191406 20.996094 5.453125 20.996094 6.941406 C 20.996094 7.167969 20.996094 7.398438 21.113281 7.628906 C 21.339844 8.085938 21.570312 8.886719 21.570312 9.230469 Z M 21.570312 9.230469 "/>
<path fill-rule="nonzero" fill="rgb(100%, 100%, 100%)" fill-opacity="1" d="M 25.578125 11.410156 L 21.339844 11.410156 C 21.113281 12.324219 20.882812 13.355469 20.652344 14.042969 C 21.683594 15.648438 22.257812 17.480469 22.257812 19.425781 C 22.257812 21.71875 21.457031 23.78125 20.195312 25.5 C 20.425781 25.957031 21.800781 26.300781 23.519531 26.300781 C 25.351562 26.300781 26.839844 25.84375 26.839844 25.382812 C 26.839844 25.15625 27.183594 22.632812 27.414062 20.574219 C 27.640625 18.511719 27.414062 17.25 26.726562 15.304688 C 26.496094 14.730469 25.921875 13.125 25.578125 11.410156 Z M 25.578125 11.410156 "/>
</svg>
