<?xml version="1.0" encoding="UTF-8"?>
<svg xmlns="http://www.w3.org/2000/svg" xmlns:xlink="http://www.w3.org/1999/xlink" width="32" height="32" viewBox="0 0 32 32">
<path fill-rule="nonzero" fill="rgb(100%, 96.078431%, 94.509804%)" fill-opacity="1" d="M 20.574219 13.269531 L 19.234375 12.039062 C 19.234375 12.039062 17.449219 11.257812 16 11.257812 C 16 10.8125 13.878906 5.792969 11.984375 5.792969 C 2.835938 5.683594 2.613281 12.261719 2.613281 12.261719 L 2.613281 26.097656 L 4.84375 26.097656 C 4.84375 25.203125 4.84375 24.421875 4.84375 24.421875 C 4.84375 23.753906 4.957031 23.085938 5.402344 22.972656 C 5.847656 22.859375 5.960938 23.308594 5.960938 23.976562 C 5.960938 24.089844 5.960938 24.980469 5.960938 26.097656 L 8.191406 26.097656 C 8.191406 25.203125 8.191406 24.3125 8.191406 24.199219 C 8.191406 23.195312 8.972656 22.304688 9.863281 22.191406 C 10.757812 22.082031 11.539062 22.972656 11.539062 24.089844 C 11.539062 24.199219 11.539062 25.203125 11.539062 26.097656 L 13.769531 26.097656 C 13.769531 24.980469 13.769531 24.089844 13.769531 23.863281 C 13.769531 22.636719 14.773438 21.632812 16 21.632812 C 17.226562 21.632812 18.230469 22.636719 18.230469 23.863281 C 18.230469 24.089844 18.230469 24.980469 18.230469 26.097656 L 20.460938 26.097656 C 20.460938 25.09375 20.460938 24.199219 20.460938 24.089844 C 20.460938 23.085938 21.242188 22.304688 22.136719 22.304688 C 23.027344 22.304688 23.808594 23.195312 23.808594 24.3125 C 23.808594 24.421875 23.808594 25.316406 23.808594 26.207031 L 26.039062 26.207031 C 26.039062 25.203125 26.039062 24.199219 26.039062 24.089844 C 26.039062 23.417969 26.261719 22.859375 26.710938 22.972656 C 27.15625 23.085938 27.15625 23.753906 27.15625 24.421875 C 27.15625 24.535156 27.15625 25.203125 27.15625 26.097656 L 29.386719 26.097656 C 29.386719 26.097656 29.386719 19.515625 29.386719 18.621094 C 29.386719 17.617188 29.273438 13.9375 20.574219 13.269531 Z M 5.960938 20.074219 C 5.402344 20.183594 5.066406 20.40625 4.84375 20.519531 C 4.84375 19.179688 4.84375 17.839844 4.84375 17.730469 C 4.84375 17.058594 5.066406 16.390625 5.515625 16.28125 C 5.960938 16.167969 5.960938 16.613281 5.960938 17.394531 C 5.960938 17.394531 5.960938 18.734375 5.960938 20.074219 Z M 5.960938 13.714844 C 5.625 13.824219 5.066406 14.160156 4.84375 14.273438 C 4.84375 12.933594 4.84375 11.59375 4.84375 11.484375 C 4.84375 10.8125 5.066406 10.144531 5.515625 10.03125 C 5.960938 9.921875 5.960938 10.253906 5.960938 11.035156 C 5.960938 11.148438 5.960938 12.375 5.960938 13.714844 Z M 11.539062 19.515625 C 10.3125 19.625 9.195312 19.625 8.191406 19.738281 C 8.191406 18.734375 8.191406 17.617188 8.191406 17.507812 C 8.191406 16.503906 8.972656 15.609375 9.863281 15.5 C 10.757812 15.386719 11.539062 16.28125 11.539062 17.394531 C 11.539062 17.507812 11.539062 18.511719 11.539062 19.515625 Z M 11.539062 12.597656 C 10.3125 12.710938 9.195312 12.820312 8.191406 13.042969 C 8.191406 12.039062 8.191406 10.925781 8.191406 10.8125 C 8.191406 9.808594 8.972656 8.804688 9.863281 8.804688 C 10.757812 8.582031 11.539062 9.363281 11.539062 10.367188 C 11.539062 10.589844 11.539062 11.484375 11.539062 12.597656 Z M 18.230469 19.402344 C 17.449219 19.402344 16.78125 19.402344 16 19.402344 C 15.21875 19.402344 14.550781 19.402344 13.769531 19.402344 C 13.769531 18.289062 13.769531 17.285156 13.769531 17.171875 C 13.769531 15.945312 14.773438 14.941406 16 14.941406 C 17.226562 14.941406 18.230469 15.945312 18.230469 17.171875 C 18.230469 17.394531 18.230469 18.289062 18.230469 19.402344 Z M 23.808594 19.738281 C 22.804688 19.625 21.6875 19.515625 20.460938 19.515625 C 20.460938 18.511719 20.460938 17.507812 20.460938 17.394531 C 20.460938 16.390625 21.242188 15.609375 22.136719 15.609375 C 23.027344 15.609375 23.808594 16.503906 23.808594 17.617188 C 23.808594 17.730469 23.808594 18.734375 23.808594 19.738281 Z M 27.15625 20.40625 C 26.933594 20.296875 26.375 20.074219 26.039062 19.960938 C 26.039062 18.621094 26.039062 17.394531 26.039062 17.285156 C 26.039062 16.613281 26.152344 16.054688 26.597656 16.167969 C 27.042969 16.28125 27.15625 16.949219 27.15625 17.617188 C 27.15625 17.839844 27.15625 19.179688 27.15625 20.40625 Z M 27.15625 20.40625 "/>
</svg>
