<?xml version="1.0" encoding="UTF-8"?>
<svg xmlns="http://www.w3.org/2000/svg" xmlns:xlink="http://www.w3.org/1999/xlink" width="12" height="12" viewBox="0 0 12 12" version="1.1">
<g id="surface1">
<path style=" stroke:none;fill-rule:evenodd;fill:rgb(100%,100%,100%);fill-opacity:1;" d="M 6.5 3 L 7.675781 3 L 7.929688 3.574219 L 6.820312 4.5 L 5.5 4.5 L 5.5 4 C 5.5 3.722656 5.277344 3.5 5 3.5 L 2.5 3.5 C 2.222656 3.5 2 3.722656 2 4 L 1.5 4 C 1.222656 4 1 4.222656 1 4.5 C 1 4.777344 1.222656 5 1.5 5 L 1.882812 5 L 1.886719 5.003906 C 0.835938 5.0625 0 5.933594 0 7 C 0 8.105469 0.894531 9 2 9 C 2.933594 9 3.714844 8.363281 3.9375 7.5 L 5.964844 7.5 C 6.464844 7.5 6.933594 7.25 7.214844 6.832031 L 8.511719 4.882812 L 8.757812 5.433594 C 8.296875 5.800781 8 6.367188 8 7 C 8 8.105469 8.894531 9 10 9 C 11.105469 9 12 8.105469 12 7 C 12 5.894531 11.105469 5 10 5 C 9.886719 5 9.777344 5.007812 9.671875 5.027344 L 9.425781 4.480469 C 9.753906 4.398438 10 4.101562 10 3.75 C 10 3.335938 9.664062 3 9.25 3 C 9.09375 3 8.949219 3.046875 8.828125 3.128906 L 8.589844 2.59375 C 8.429688 2.234375 8.070312 2 7.675781 2 L 6.5 2 Z M 9.191406 6.410156 L 9.542969 7.203125 C 9.65625 7.457031 9.949219 7.570312 10.203125 7.457031 C 10.457031 7.34375 10.570312 7.050781 10.457031 6.796875 L 10.105469 6.003906 C 10.609375 6.058594 11 6.484375 11 7 C 11 7.550781 10.550781 8 10 8 C 9.449219 8 9 7.550781 9 7 C 9 6.78125 9.070312 6.578125 9.191406 6.410156 Z M 2.867188 6.5 L 2 6.5 C 1.722656 6.5 1.5 6.722656 1.5 7 C 1.5 7.277344 1.722656 7.5 2 7.5 L 2.867188 7.5 C 2.691406 7.800781 2.371094 8 2 8 C 1.449219 8 1 7.550781 1 7 C 1 6.449219 1.449219 6 2 6 C 2.371094 6 2.691406 6.199219 2.867188 6.5 Z M 3.9375 6.5 L 4.5 6.5 L 4.5 5.5 L 3.324219 5.5 C 3.617188 5.761719 3.835938 6.105469 3.9375 6.5 Z M 3.9375 6.5 "/>
</g>
</svg>
