<?xml version="1.0" encoding="UTF-8"?>
<svg xmlns="http://www.w3.org/2000/svg" xmlns:xlink="http://www.w3.org/1999/xlink" width="32" height="32" viewBox="0 0 32 32">
<path fill-rule="nonzero" fill="rgb(100%, 100%, 100%)" fill-opacity="1" d="M 15.457031 3.082031 C 13.503906 3.09375 10.984375 3.246094 10.214844 3.929688 C 10.011719 4.109375 9.246094 4.785156 8.394531 5.539062 C 8.394531 5.539062 8.394531 5.539062 8.390625 5.542969 C 8.371094 5.554688 8.355469 5.570312 8.335938 5.585938 L 6.753906 6.988281 C 6.699219 7.035156 6.652344 7.09375 6.617188 7.15625 C 6.570312 7.234375 6.539062 7.320312 6.523438 7.410156 C 6.519531 7.429688 6.519531 7.453125 6.519531 7.472656 C 6.519531 7.472656 6.519531 7.476562 6.519531 7.476562 C 6.515625 7.5 6.515625 7.519531 6.515625 7.539062 C 6.515625 7.542969 6.515625 7.542969 6.515625 7.546875 C 6.523438 7.703125 6.578125 7.859375 6.691406 7.988281 L 6.832031 8.144531 C 6.746094 8.222656 6.375 8.546875 5.941406 8.929688 C 5.613281 9.222656 4.988281 9.109375 4.777344 8.984375 C 4.683594 8.929688 4.472656 9.007812 4.472656 9.007812 L 3.007812 10.304688 C 2.71875 10.5625 2.691406 11.011719 2.949219 11.300781 L 5.011719 13.632812 C 5.269531 13.921875 5.714844 13.949219 6.007812 13.691406 L 7.46875 12.394531 C 7.46875 12.394531 7.550781 12.175781 7.496094 12.042969 C 7.398438 11.816406 7.386719 11.222656 7.714844 10.933594 C 8.183594 10.515625 8.523438 10.214844 8.601562 10.148438 L 8.753906 10.316406 C 8.769531 10.335938 8.785156 10.351562 8.804688 10.371094 C 8.804688 10.371094 8.808594 10.371094 8.808594 10.375 L 9.828125 11.523438 L 12.46875 9.191406 L 11.855469 8.496094 C 11.84375 8.484375 11.835938 8.46875 11.828125 8.457031 C 11.320312 7.898438 11.464844 6.988281 13.082031 5.492188 C 15.046875 3.671875 17.933594 3.136719 17.933594 3.136719 C 17.933594 3.136719 17.03125 3.085938 15.839844 3.082031 C 15.714844 3.082031 15.585938 3.082031 15.457031 3.082031 Z M 25.171875 3.355469 C 23.679688 3.355469 21.558594 3.488281 20.425781 4.621094 L 20.191406 4.855469 C 18.582031 6.476562 18.585938 9.019531 20.207031 10.648438 L 21.972656 12.414062 C 22.757812 13.203125 23.789062 13.632812 24.875 13.632812 C 25.953125 13.632812 26.972656 13.207031 27.746094 12.429688 L 27.980469 12.195312 C 29.210938 10.964844 29.222656 8.417969 29.226562 7.335938 C 29.230469 7.144531 29.179688 7 29.078125 6.898438 C 28.996094 6.816406 28.886719 6.769531 28.765625 6.769531 C 28.578125 6.769531 28.425781 6.882812 28.351562 6.949219 L 26.054688 9.257812 C 26.007812 9.265625 25.902344 9.28125 25.6875 9.28125 C 24.914062 9.28125 23.832031 9.128906 23.566406 9.015625 C 23.390625 8.628906 23.246094 6.917969 23.363281 6.5625 C 23.71875 6.203125 25.683594 4.242188 25.699219 4.226562 C 25.761719 4.15625 25.953125 3.90625 25.832031 3.636719 C 25.789062 3.53125 25.660156 3.359375 25.324219 3.355469 Z M 13.125 10.074219 L 10.484375 12.410156 L 23.011719 28.332031 C 23.921875 29.335938 25.460938 28.890625 26.246094 28.207031 C 27.027344 27.519531 26.808594 25.839844 26.550781 25.546875 Z M 19.925781 15.929688 L 22.875 12.921875 L 22.253906 12.390625 L 20.757812 10.84375 L 20.386719 10.335938 L 17.523438 13.34375 Z M 12.863281 17.589844 L 5.605469 24.566406 C 4.890625 25.28125 4.148438 26.632812 5.492188 27.980469 C 6.070312 28.5 6.636719 28.691406 7.429688 28.457031 C 8.171875 28.171875 8.496094 27.886719 8.804688 27.574219 L 15.378906 20.699219 Z M 12.863281 17.589844 "/>
</svg>
