<?xml version="1.0" encoding="UTF-8"?>
<svg xmlns="http://www.w3.org/2000/svg" xmlns:xlink="http://www.w3.org/1999/xlink" width="12" height="12" viewBox="0 0 12 12" version="1.1">
<g id="surface1">
<path style=" stroke:none;fill-rule:nonzero;fill:rgb(100%,100%,100%);fill-opacity:1;" d="M 4.566406 2 L 7.5 2 L 7.5 3 L 5.433594 3 L 5.128906 5.140625 C 5.367188 5.046875 5.625 5 5.882812 5 C 7.050781 5 8 5.949219 8 7.117188 L 8 8 C 8 9.105469 7.105469 10 6 10 C 4.894531 10 4 9.105469 4 8 L 5 8 C 5 8.550781 5.449219 9 6 9 C 6.550781 9 7 8.550781 7 8 L 7 7.117188 C 7 6.5 6.5 6 5.882812 6 C 5.707031 6 5.539062 6.039062 5.382812 6.117188 L 4.722656 6.445312 L 4.003906 5.929688 Z M 4.566406 2 "/>
</g>
</svg>
