<?xml version="1.0" encoding="UTF-8"?>
<svg xmlns="http://www.w3.org/2000/svg" xmlns:xlink="http://www.w3.org/1999/xlink" width="12" height="12" viewBox="0 0 12 12" version="1.1">
<g id="surface1">
<path style=" stroke:none;fill-rule:evenodd;fill:rgb(100%,100%,100%);fill-opacity:1;" d="M 1 5 L 1 1 L 3 1 C 3.550781 1 4 1.449219 4 2 L 4 3 C 4 3.550781 3.550781 4 3 4 L 2 4 L 2 5 Z M 3 3 L 2 3 L 2 2 L 3 2 Z M 3 3 "/>
<path style=" stroke:none;fill-rule:nonzero;fill:rgb(100%,100%,100%);fill-opacity:1;" d="M 7 5 C 7.277344 5 7.5 5.222656 7.5 5.5 L 7.5 7 L 8.5 7 C 8.777344 7 9 7.222656 9 7.5 C 9 7.777344 8.777344 8 8.5 8 L 7 8 C 6.722656 8 6.5 7.777344 6.5 7.5 L 6.5 5.5 C 6.5 5.222656 6.722656 5 7 5 Z M 7 5 "/>
<path style=" stroke:none;fill-rule:evenodd;fill:rgb(100%,100%,100%);fill-opacity:1;" d="M 7 11 C 9.210938 11 11 9.210938 11 7 C 11 4.789062 9.210938 3 7 3 C 4.789062 3 3 4.789062 3 7 C 3 9.210938 4.789062 11 7 11 Z M 7 10 C 8.65625 10 10 8.65625 10 7 C 10 5.34375 8.65625 4 7 4 C 5.34375 4 4 5.34375 4 7 C 4 8.65625 5.34375 10 7 10 Z M 7 10 "/>
</g>
</svg>
