<svg width="32" height="32" viewBox="0 0 16 16" fill="none" xmlns="http://www.w3.org/2000/svg">
<path fill-rule="evenodd" clip-rule="evenodd" d="M11.9751 6.49059L11.0211 8.19565H15.9952L14.4799 10.1817L9.91568 10.1774C9.91568 10.1774 9.49715 11.0008 8.05788 11.01C6.6185 11.0008 6.0879 10.1774 6.0879 10.1774L1.51992 10.1817L0.00463867 8.19138H4.97823L4.02907 6.49059H4.94267L4.36791 4.98999H11.6228L11.048 6.49059H11.9751V6.49059Z" fill="#FEFEFE"/>
<path d="M11.9751 6.49059L11.0211 8.19565H14.7139L13.4415 10.1817L9.91568 10.1774C9.91568 10.1774 9.49715 11.0008 8.05788 11.01C6.6185 11.0008 6.0879 10.1774 6.0879 10.1774L2.55835 10.1817L1.28589 8.19138H4.97823L4.02907 6.49059H4.94267L4.36791 4.98999H11.6228L11.048 6.49059H11.9751Z" stroke="#FF0000" stroke-width="0.0909474" stroke-miterlimit="2.613"/>
<path fill-rule="evenodd" clip-rule="evenodd" d="M8.06219 10.6983C8.74852 10.7074 9.21228 10.3598 9.56889 9.50032L11.1865 5.28815L4.81342 5.28333L6.44022 9.50032C6.79198 10.3598 7.37159 10.7074 8.05791 10.6983H8.06219Z" fill="#FF0000"/>
<path fill-rule="evenodd" clip-rule="evenodd" d="M5.18151 8.48526L5.94909 9.85662H2.73439L1.86066 8.48526H5.18151Z" fill="#FF0000"/>
<path fill-rule="evenodd" clip-rule="evenodd" d="M10.8179 8.48526L10.0551 9.85662H13.265L14.1387 8.48526H10.8179Z" fill="#FF0000"/>
<path fill-rule="evenodd" clip-rule="evenodd" d="M7.9372 7.57674C7.9372 7.57674 9.04252 7.48787 9.43898 8.03101L9.59095 7.94641L9.19393 7.50992C9.19393 7.50992 9.14056 7.57674 9.05176 7.57674C8.95798 7.57674 8.84642 7.53692 8.84642 7.53692C8.54373 7.43469 8.24903 7.36304 7.89303 7.36304C6.97458 7.36304 6.28832 7.7775 6.31039 8.31141C6.34218 8.93033 7.06401 9.17517 7.40713 9.24254C7.74165 9.30441 8.72631 9.5407 9.57316 8.71235L9.44822 8.59235C8.4323 9.52721 7.28217 8.82809 7.28217 8.82809C7.06401 8.70381 6.9121 8.49865 6.9121 8.29363C6.9121 7.91955 7.3759 7.59011 7.9372 7.57674V7.57674Z" fill="#FEFEFE"/>
<path fill-rule="evenodd" clip-rule="evenodd" d="M9.35931 6.85983L9.6933 7.30061L9.57319 7.41634C9.57319 7.41634 9.37227 7.13154 9.08295 7.13154H8.4635V8.92603C8.4635 9.40717 8.90465 9.34902 8.90465 9.34902V9.54496H7.48744V9.34902C7.48744 9.34902 7.92429 9.40717 7.92429 8.92603V7.13154H7.30913C7.01932 7.13154 6.81893 7.41193 6.81893 7.41193L6.70312 7.29633L7.03279 6.85983H9.35931V6.85983Z" fill="#FEFEFE"/>
<path d="M9.35931 6.85983L9.6933 7.30061L9.57319 7.41634C9.57319 7.41634 9.37227 7.13154 9.08295 7.13154H8.4635V8.92603C8.4635 9.40717 8.90465 9.34902 8.90465 9.34902V9.54496H7.48744V9.34902C7.48744 9.34902 7.92429 9.40717 7.92429 8.92603V7.13154H7.30913C7.01932 7.13154 6.81893 7.41193 6.81893 7.41193L6.70312 7.29633L7.03279 6.85983H9.35931V6.85983Z" stroke="#FF0000" stroke-width="0.0454737" stroke-miterlimit="2.613"/>
<path fill-rule="evenodd" clip-rule="evenodd" d="M8.6327 6.1741L8.96711 6.61487L8.84645 6.73061C8.84645 6.73061 8.64608 6.44595 8.35635 6.44595H7.73684V8.2403C7.73684 8.72143 8.17804 8.66343 8.17804 8.66343V8.85922H6.76075V8.66343C6.76075 8.66343 7.19762 8.72143 7.19762 8.2403V6.44595H6.583C6.29265 6.44595 6.09226 6.72634 6.09226 6.72634L5.97644 6.6106L6.30612 6.1741H8.6327V6.1741Z" fill="#FEFEFE"/>
</svg>
