<?xml version="1.0" encoding="UTF-8"?>
<svg xmlns="http://www.w3.org/2000/svg" xmlns:xlink="http://www.w3.org/1999/xlink" width="12" height="12" viewBox="0 0 12 12">
<defs>
<filter id="filter-remove-color" x="0%" y="0%" width="100%" height="100%">
<feColorMatrix color-interpolation-filters="sRGB" values="0 0 0 0 1 0 0 0 0 1 0 0 0 0 1 0 0 0 1 0" />
</filter>
<mask id="mask-0">
<g filter="url(#filter-remove-color)">
<rect x="-1.2" y="-1.2" width="14.4" height="14.4" fill="rgb(0%, 0%, 0%)" fill-opacity="0.7"/>
</g>
</mask>
<clipPath id="clip-0">
<rect x="0" y="0" width="12" height="12"/>
</clipPath>
<g id="source-6" clip-path="url(#clip-0)">
<path fill-rule="evenodd" fill="rgb(100%, 100%, 100%)" fill-opacity="1" d="M 11 1 L 11 11 L 1 11 L 1 1 Z M 10 2 L 7 2 L 7 5 L 8 5 L 8 6 L 7 6 L 7 10 L 10 10 Z M 6 10 L 6 2 L 2 2 L 2 10 Z M 6 10 "/>
</g>
</defs>
<g mask="url(#mask-0)">
<use xlink:href="#source-6"/>
</g>
<path fill-rule="nonzero" fill="rgb(100%, 100%, 100%)" fill-opacity="1" d="M 1 2.5 L 6.75 2.5 C 6.886719 2.5 7 2.613281 7 2.75 L 7 3.5 L 1 3.5 Z M 1 2.5 "/>
<path fill-rule="nonzero" fill="rgb(100%, 100%, 100%)" fill-opacity="1" d="M 1 4.5 L 6.75 4.5 C 6.886719 4.5 7 4.613281 7 4.75 L 7 5.5 L 1 5.5 Z M 1 4.5 "/>
<path fill-rule="nonzero" fill="rgb(100%, 100%, 100%)" fill-opacity="1" d="M 1 6.5 L 6.75 6.5 C 6.886719 6.5 7 6.613281 7 6.75 L 7 7.5 L 1 7.5 Z M 1 6.5 "/>
<path fill-rule="nonzero" fill="rgb(100%, 100%, 100%)" fill-opacity="1" d="M 1 8.5 L 6.75 8.5 C 6.886719 8.5 7 8.613281 7 8.75 L 7 9.5 L 1 9.5 Z M 1 8.5 "/>
</svg>
