<svg width="32" height="32" viewBox="0 0 580 580" fill="none" xmlns="http://www.w3.org/2000/svg">
<g clip-path="url(#clip0)">
<path opacity="0.426087" d="M193.344 326.719C189.525 326.716 185.781 327.772 182.526 329.768C179.271 331.765 176.634 334.626 174.906 338.031L101.062 483.438H61.1562C58.4436 483.437 55.7575 483.972 53.2514 485.01C50.7452 486.048 48.468 487.569 46.5499 489.487C44.6318 491.406 43.1102 493.683 42.0722 496.189C41.0342 498.695 40.4999 501.381 40.5 504.094V529.094C40.4999 531.806 41.0342 534.492 42.0722 536.999C43.1102 539.505 44.6318 541.782 46.5499 543.7C48.468 545.618 50.7452 547.14 53.2514 548.178C55.7575 549.216 58.4436 549.75 61.1562 549.75H228.562C239.933 568.403 260.292 580.969 283.531 580.969C306.771 580.969 327.129 568.403 338.5 549.75H494.75C497.463 549.75 500.149 549.216 502.655 548.178C505.161 547.14 507.438 545.618 509.356 543.7C511.274 541.782 512.796 539.505 513.834 536.999C514.872 534.492 515.406 531.806 515.406 529.094V504.094C515.406 501.381 514.872 498.695 513.834 496.189C512.796 493.683 511.274 491.406 509.356 489.487C507.438 487.569 505.161 486.048 502.655 485.01C500.149 483.972 497.463 483.437 494.75 483.438H464.531L393.219 338.438C391.517 334.982 388.883 332.07 385.614 330.033C382.345 327.995 378.571 326.912 374.719 326.906L193.344 326.719Z" fill="#8D8D8D"/>
<path d="M192.982 347.35L109.194 512.315L455.518 512.538L374.358 347.54L192.982 347.35Z" fill="#FFD400"/>
<path d="M60.8232 516.57H494.406" stroke="black" stroke-width="25"/>
<path d="M316.803 516.401C316.803 525.314 313.262 533.862 306.96 540.164C300.658 546.466 292.11 550.007 283.197 550.007C274.285 550.007 265.737 546.466 259.435 540.164C253.132 533.862 249.592 525.314 249.592 516.401C249.592 507.489 253.132 498.941 259.435 492.639C265.737 486.336 274.285 482.796 283.197 482.796C292.11 482.796 300.658 486.336 306.96 492.639C313.262 498.941 316.803 507.489 316.803 516.401V516.401Z" fill="#FEFEFE" stroke="black" stroke-width="20.5723" stroke-miterlimit="10" stroke-linecap="round" stroke-linejoin="round"/>
</g>
<defs>
<clipPath id="clip0">
<path d="M0 0H580V580H0V0Z" fill="white"/>
</clipPath>
</defs>
</svg>
