<?xml version="1.0" encoding="UTF-8"?>
<svg xmlns="http://www.w3.org/2000/svg" xmlns:xlink="http://www.w3.org/1999/xlink" width="12" height="12" viewBox="0 0 12 12" version="1.1">
<g id="surface1">
<path style=" stroke:none;fill-rule:nonzero;fill:rgb(100%,100%,100%);fill-opacity:1;" d="M 6 2.378906 C 7.992188 2.378906 9.621094 4.007812 9.621094 6 C 9.621094 7.992188 7.992188 9.621094 6 9.621094 C 4.007812 9.621094 2.378906 7.992188 2.378906 6 C 2.378906 4.007812 4.007812 2.378906 6 2.378906 Z M 6 1.472656 C 3.511719 1.472656 1.472656 3.511719 1.472656 6 C 1.472656 8.488281 3.511719 10.527344 6 10.527344 C 8.488281 10.527344 10.527344 8.488281 10.527344 6 C 10.527344 3.511719 8.488281 1.472656 6 1.472656 Z M 6 1.472656 "/>
<path style="fill:none;stroke-width:32.824699;stroke-linecap:round;stroke-linejoin:round;stroke:rgb(100%,100%,100%);stroke-opacity:1;stroke-miterlimit:10;" d="M 211.269531 114.980469 C 211.269531 141.223958 222.220052 219.954427 292.265625 290 " transform="matrix(0.0206897,0,0,0.0206897,0,0)"/>
<path style="fill:none;stroke-width:32.824699;stroke-linecap:round;stroke-linejoin:round;stroke:rgb(100%,100%,100%);stroke-opacity:1;stroke-miterlimit:10;" d="M 178.417969 449.726562 C 200.31901 434.433594 263.75651 388.554688 290 292.265625 " transform="matrix(0.0206897,0,0,0.0206897,0,0)"/>
<path style="fill:none;stroke-width:32.824699;stroke-linecap:round;stroke-linejoin:round;stroke:rgb(100%,100%,100%);stroke-opacity:1;stroke-miterlimit:10;" d="M 484.84375 309.635417 C 460.677083 296.608073 388.554688 266.022135 292.265625 292.265625 " transform="matrix(0.0206897,0,0,0.0206897,0,0)"/>
<path style="fill:none;stroke-width:32.824699;stroke-linecap:round;stroke-linejoin:round;stroke:rgb(100%,100%,100%);stroke-opacity:1;stroke-miterlimit:10;" d="M 219.954427 163.125 C 233.170573 156.516927 340.410156 121.588542 449.726562 174.075521 " transform="matrix(0.0206897,0,0,0.0206897,0,0)"/>
<path style="fill:none;stroke-width:32.824699;stroke-linecap:round;stroke-linejoin:round;stroke:rgb(100%,100%,100%);stroke-opacity:1;stroke-miterlimit:10;" d="M 246.197917 228.639323 C 259.414062 222.220052 362.122396 180.494792 480.3125 246.197917 " transform="matrix(0.0206897,0,0,0.0206897,0,0)"/>
<path style="fill:none;stroke-width:32.824699;stroke-linecap:round;stroke-linejoin:round;stroke:rgb(100%,100%,100%);stroke-opacity:1;stroke-miterlimit:10;" d="M 217.877604 419.140625 C 206.927083 410.266927 112.714844 327.19401 117.057292 200.31901 " transform="matrix(0.0206897,0,0,0.0206897,0,0)"/>
<path style="fill:none;stroke-width:32.824699;stroke-linecap:round;stroke-linejoin:round;stroke:rgb(100%,100%,100%);stroke-opacity:1;stroke-miterlimit:10;" d="M 261.490885 360.045573 C 250.540365 351.360677 160.859375 283.391927 158.782552 149.908854 " transform="matrix(0.0206897,0,0,0.0206897,0,0)"/>
<path style="fill:none;stroke-width:32.824699;stroke-linecap:round;stroke-linejoin:round;stroke:rgb(100%,100%,100%);stroke-opacity:1;stroke-miterlimit:10;" d="M 436.699219 292.265625 C 436.699219 303.216146 427.825521 423.483073 320.585938 486.920573 " transform="matrix(0.0206897,0,0,0.0206897,0,0)"/>
<path style="fill:none;stroke-width:32.824699;stroke-linecap:round;stroke-linejoin:round;stroke:rgb(100%,100%,100%);stroke-opacity:1;stroke-miterlimit:10;" d="M 366.653646 281.315104 C 366.653646 296.608073 351.360677 408.190104 235.247396 475.970052 " transform="matrix(0.0206897,0,0,0.0206897,0,0)"/>
</g>
</svg>
