<?xml version="1.0" encoding="UTF-8"?>
<svg xmlns="http://www.w3.org/2000/svg" xmlns:xlink="http://www.w3.org/1999/xlink" width="32" height="32" viewBox="0 0 32 32">
<path fill-rule="nonzero" fill="rgb(100%, 100%, 100%)" fill-opacity="1" d="M 5.925781 8.476562 C 7.316406 8.476562 8.445312 7.347656 8.445312 5.953125 C 8.445312 4.5625 7.316406 3.433594 5.925781 3.433594 C 4.53125 3.433594 3.402344 4.5625 3.402344 5.953125 C 3.402344 7.347656 4.53125 8.476562 5.925781 8.476562 Z M 5.925781 8.476562 "/>
<path fill-rule="nonzero" fill="rgb(100%, 100%, 100%)" fill-opacity="1" d="M 8.066406 14.273438 L 17.773438 23.980469 C 16.636719 23.980469 15.378906 23.726562 14.242188 23.347656 C 13.738281 23.222656 11.972656 22.972656 11.21875 23.601562 C 9.578125 25.238281 8.191406 27.382812 7.4375 28.140625 C 6.679688 28.894531 5.546875 28.644531 4.410156 27.507812 C 3.402344 26.5 3.023438 25.238281 3.78125 24.484375 C 4.664062 23.851562 6.804688 22.339844 8.445312 20.828125 C 9.203125 20.070312 8.824219 18.054688 8.699219 17.804688 C 8.191406 16.667969 8.066406 15.40625 8.066406 14.273438 Z M 25.714844 6.332031 C 21.050781 1.542969 14.746094 3.308594 10.839844 7.089844 C 9.453125 8.476562 8.445312 10.238281 8.191406 12.128906 L 19.914062 23.851562 C 21.804688 23.476562 23.570312 22.59375 24.957031 21.207031 C 28.738281 17.296875 30.503906 10.996094 25.714844 6.332031 Z M 25.714844 6.332031 "/>
</svg>
