<?xml version="1.0" encoding="UTF-8"?>
<svg xmlns="http://www.w3.org/2000/svg" xmlns:xlink="http://www.w3.org/1999/xlink" width="32" height="32" viewBox="0 0 32 32">
<path fill-rule="nonzero" fill="rgb(100%, 100%, 100%)" fill-opacity="1" d="M 2.570312 4.53125 C 2.570312 4.53125 11.894531 6.957031 11.894531 12.46875 C 11.894531 15.722656 6.019531 16.988281 6.019531 20.78125 C 6.019531 25.75 11.894531 27.46875 11.894531 27.46875 L 26.078125 27.46875 C 26.078125 27.46875 16.863281 25.296875 16.863281 20.78125 C 16.863281 16.988281 19.847656 14.296875 17.335938 10.894531 C 15.167969 8.050781 13.769531 7.390625 11.488281 6.558594 C 9.207031 5.726562 2.570312 4.53125 2.570312 4.53125 Z M 2.570312 4.53125 "/>
<path fill-rule="nonzero" fill="rgb(100%, 100%, 100%)" fill-opacity="1" d="M 23.105469 24.304688 L 25.089844 25.207031 C 25.089844 14.636719 29.429688 11.203125 29.429688 11.203125 C 29.429688 11.203125 23.105469 13.460938 23.105469 24.304688 Z M 23.105469 24.304688 "/>
<path fill-rule="nonzero" fill="rgb(100%, 100%, 100%)" fill-opacity="1" d="M 26.265625 19.96875 C 25.8125 21.503906 25.8125 25.027344 25.8125 25.027344 C 26.898438 19.695312 29.429688 16.355469 29.429688 16.355469 C 29.429688 16.355469 27.351562 17.890625 26.265625 19.96875 Z M 26.265625 19.96875 "/>
<path fill-rule="nonzero" fill="rgb(100%, 100%, 100%)" fill-opacity="1" d="M 25.8125 5.875 C 20.664062 12.109375 20.664062 16.988281 20.664062 22.859375 L 21.929688 23.761719 C 21.929688 17.347656 22.199219 12.289062 26.71875 6.6875 Z M 25.8125 5.875 "/>
<path fill-rule="nonzero" fill="rgb(100%, 100%, 100%)" fill-opacity="1" d="M 24.714844 6.847656 C 24.15625 6.855469 23.644531 7.171875 23.378906 7.667969 C 22.882812 8.582031 21.933594 10.0625 21.386719 11.589844 C 21.082031 12.394531 21.496094 13.292969 22.304688 13.582031 C 23.117188 13.875 24.007812 13.441406 24.277344 12.625 C 24.636719 11.621094 25.492188 10.214844 26.078125 9.140625 C 26.660156 8.105469 25.902344 6.828125 24.714844 6.847656 Z M 24.714844 6.847656 "/>
</svg>
