<?xml version="1.0" encoding="UTF-8"?>
<svg xmlns="http://www.w3.org/2000/svg" xmlns:xlink="http://www.w3.org/1999/xlink" width="12" height="12" viewBox="0 0 12 12" version="1.1">
<defs>
<filter id="alpha" filterUnits="objectBoundingBox" x="0%" y="0%" width="100%" height="100%">
  <feColorMatrix type="matrix" in="SourceGraphic" values="0 0 0 0 1 0 0 0 0 1 0 0 0 0 1 0 0 0 1 0"/>
</filter>
<mask id="mask0">
  <g filter="url(#alpha)">
<rect x="0" y="0" width="12" height="12" style="fill:rgb(0%,0%,0%);fill-opacity:0.2;stroke:none;"/>
  </g>
</mask>
<clipPath id="clip1">
  <rect x="0" y="0" width="12" height="12"/>
</clipPath>
<g id="surface5" clip-path="url(#clip1)">
<path style="fill:none;stroke-width:1;stroke-linecap:butt;stroke-linejoin:miter;stroke:rgb(100%,100%,100%);stroke-opacity:1;stroke-miterlimit:4;" d="M 6 42 L 42 42 " transform="matrix(0.25,0,0,0.25,0,0)"/>
</g>
</defs>
<g id="surface1">
<use xlink:href="#surface5" mask="url(#mask0)"/>
<path style=" stroke:none;fill-rule:nonzero;fill:rgb(100%,100%,100%);fill-opacity:1;" d="M 11 2.699219 L 6 0.0351562 L 1 2.699219 L 1 11 L 2 11 L 2 3.300781 L 6 1.167969 L 10 3.300781 L 10 11 L 11 11 Z M 11 2.699219 "/>
<path style=" stroke:none;fill-rule:nonzero;fill:rgb(100%,100%,100%);fill-opacity:1;" d="M 7 3 C 7 3.550781 6.550781 4 6 4 C 5.449219 4 5 3.550781 5 3 C 5 2.449219 5.449219 2 6 2 C 6.550781 2 7 2.449219 7 3 Z M 7 3 "/>
<path style=" stroke:none;fill-rule:nonzero;fill:rgb(100%,100%,100%);fill-opacity:1;" d="M 6 4.5 C 6.472656 4.5 6.867188 4.828125 6.972656 5.265625 L 7.5625 5.855469 C 7.65625 5.949219 7.78125 6 7.914062 6 L 8.5 6 C 8.777344 6 9 6.222656 9 6.5 C 9 6.777344 8.777344 7 8.5 7 L 7.914062 7 C 7.582031 7 7.261719 6.890625 7 6.6875 L 7 7.5 L 7.5 7.5 C 7.667969 7.5 7.824219 7.582031 7.917969 7.722656 L 8.769531 9 L 9 9 C 9.277344 9 9.5 9.222656 9.5 9.5 C 9.5 9.777344 9.277344 10 9 10 L 8.5 10 C 8.332031 10 8.175781 9.917969 8.082031 9.777344 L 7.230469 8.5 L 6 8.5 C 5.449219 8.5 5 8.050781 5 7.5 L 5 5.5 C 5 4.949219 5.449219 4.5 6 4.5 Z M 6 4.5 "/>
<path style=" stroke:none;fill-rule:nonzero;fill:rgb(100%,100%,100%);fill-opacity:1;" d="M 4.5 6.050781 C 3.359375 6.28125 2.5 7.289062 2.5 8.5 C 2.5 9.878906 3.621094 11 5 11 C 6.007812 11 6.875 10.402344 7.273438 9.542969 L 7 9 L 6.414062 9 C 6.207031 9.582031 5.652344 10 5 10 C 4.171875 10 3.5 9.328125 3.5 8.5 C 3.5 7.847656 3.917969 7.292969 4.5 7.085938 Z M 4.5 6.050781 "/>
</g>
</svg>
