<svg width="32" height="32" viewBox="0 0 580 580" fill="none" xmlns="http://www.w3.org/2000/svg">
<g clip-path="url(#clip0)">
<path opacity="0.426087" d="M315.719 182.875C311.637 182.74 307.612 183.864 304.191 186.094C300.769 188.325 298.117 191.554 296.594 195.344L254.031 301.406C254.021 301.438 254.01 301.469 254 301.5L236 347.031V347.063L221.5 383.656L217.969 388.219L217.875 388.344L215.063 391.938C215.042 391.969 215.021 392 215 392.031L201.156 410C200.766 410.513 200.401 411.045 200.062 411.594C200.042 411.615 200.021 411.636 200 411.656L144.375 484.094H99.9062C97.292 484.093 94.7031 484.608 92.2877 485.608C89.8723 486.608 87.6776 488.074 85.829 489.923C83.9804 491.772 82.5142 493.966 81.514 496.382C80.5139 498.797 79.9994 501.386 80 504V529C79.9994 531.614 80.5139 534.203 81.514 536.619C82.5142 539.034 83.9804 541.229 85.829 543.077C87.6776 544.926 89.8723 546.392 92.2877 547.392C94.7031 548.393 97.292 548.907 99.9062 548.906H228.469C230.678 552.599 233.166 556.066 236 559.188C236.78 560.047 237.498 560.779 238.125 561.406C249.606 572.895 265.625 580.188 283.156 580.188C296.321 580.188 308.673 576.064 318.812 569.188C322.189 566.898 325.368 564.293 328.25 561.406C328.863 560.792 329.583 560.061 330.375 559.188C331.092 558.398 331.731 557.618 332.344 556.875C332.885 556.219 333.538 555.421 334.25 554.469C335.569 552.705 336.705 550.812 337.844 548.906H455.281C457.896 548.907 460.484 548.393 462.9 547.392C465.315 546.392 467.51 544.926 469.358 543.077C471.207 541.229 472.673 539.034 473.673 536.619C474.674 534.203 475.188 531.614 475.188 529V504C475.188 501.386 474.674 498.797 473.673 496.382C472.673 493.966 471.207 491.772 469.358 489.923C467.51 488.074 465.315 486.608 462.9 485.608C460.484 484.608 457.896 484.093 455.281 484.094H402.125L393.156 441.5L393.125 441.406L388.938 421L394.875 325.906C394.875 325.865 394.875 325.823 394.875 325.781L400.844 219.469C400.854 219.094 400.854 218.719 400.844 218.344V218.313C400.846 217.76 400.825 217.207 400.781 216.656C400.772 216.542 400.761 216.427 400.75 216.313C400.74 216.229 400.73 216.146 400.719 216.063C400.649 215.496 400.555 214.933 400.438 214.375C400.438 214.365 400.438 214.354 400.438 214.344C400.438 214.334 400.438 214.323 400.438 214.313C400.302 213.68 400.135 213.054 399.938 212.438C399.74 211.802 399.51 211.176 399.25 210.563C399.007 209.977 398.736 209.404 398.438 208.844C398.427 208.823 398.417 208.802 398.406 208.782C398.396 208.761 398.386 208.74 398.375 208.719C398.159 208.326 397.93 207.94 397.688 207.563C397.459 207.212 397.219 206.868 396.969 206.532C396.938 206.49 396.907 206.448 396.875 206.407C396.813 206.333 396.751 206.26 396.688 206.188C396.37 205.779 396.036 205.383 395.688 205C395.657 204.959 395.625 204.917 395.594 204.875C395.563 204.834 395.532 204.792 395.5 204.75C395.121 204.349 394.725 203.963 394.313 203.594C394.271 203.552 394.23 203.511 394.188 203.469C394.115 203.417 394.042 203.364 393.969 203.313C393.576 202.964 393.17 202.63 392.75 202.313C392.709 202.281 392.667 202.25 392.625 202.219C392.573 202.188 392.521 202.156 392.469 202.125C391.984 201.78 391.483 201.457 390.969 201.157C390.432 200.829 389.879 200.526 389.313 200.25C389.282 200.24 389.25 200.23 389.219 200.219C389.178 200.209 389.136 200.198 389.094 200.188C388.522 199.931 387.938 199.702 387.344 199.501C386.688 199.268 386.021 199.07 385.344 198.907L382.782 198.313L382.594 198.282L319.657 183.376C318.364 183.078 317.045 182.911 315.719 182.876L315.719 182.875ZM342.312 531.844C342.309 531.83 342.828 532.691 342.969 534.406L342.875 534.375C342.725 532.843 342.315 531.858 342.313 531.844L342.312 531.844Z" fill="#8D8D8D"/>
<path d="M230.829 404.203L143.038 518.667L239.378 519.104C240.767 542.001 259.971 560.351 283.197 560.351C306.32 560.351 325.45 542.166 326.991 519.413L389.283 519.695L371.411 434.811L230.829 404.203Z" fill="black"/>
<path d="M315.076 202.815L272.516 308.871L239.048 393.594L230.788 404.238L371.397 434.78L368.915 422.815L375.028 324.721L380.99 218.416" fill="#FFD400"/>
<path d="M254.52 354.425L238.998 393.606L216.939 422.227L375.972 456.71L368.916 422.309L371.753 377.458" fill="black"/>
<path d="M99.9238 516.57H455.305" stroke="black" stroke-width="25"/>
<path d="M316.803 516.401C316.803 525.314 313.262 533.862 306.96 540.164C300.658 546.466 292.11 550.007 283.197 550.007C274.285 550.007 265.737 546.466 259.435 540.164C253.132 533.862 249.592 525.314 249.592 516.401C249.592 507.489 253.132 498.941 259.435 492.639C265.737 486.336 274.285 482.796 283.197 482.796C292.11 482.796 300.658 486.336 306.96 492.639C313.262 498.941 316.803 507.489 316.803 516.401V516.401Z" fill="#FEFEFE" stroke="black" stroke-width="20.5723" stroke-miterlimit="10" stroke-linecap="round" stroke-linejoin="round"/>
<path opacity="0.426087" d="M366.425 215.055L380.954 218.384L368.885 422.815L386.191 504.743L334.214 504.687L326.616 412.653L366.425 215.055Z" fill="black"/>
</g>
<defs>
<clipPath id="clip0">
<path d="M0 0H580V580H0V0Z" fill="white"/>
</clipPath>
</defs>
</svg>
