<?xml version="1.0" encoding="UTF-8"?>
<svg xmlns="http://www.w3.org/2000/svg" xmlns:xlink="http://www.w3.org/1999/xlink" width="12" height="12" viewBox="0 0 12 12" version="1.1">
<defs>
<filter id="alpha" filterUnits="objectBoundingBox" x="0%" y="0%" width="100%" height="100%">
  <feColorMatrix type="matrix" in="SourceGraphic" values="0 0 0 0 1 0 0 0 0 1 0 0 0 0 1 0 0 0 1 0"/>
</filter>
<mask id="mask0">
  <g filter="url(#alpha)">
<rect x="0" y="0" width="12" height="12" style="fill:rgb(0%,0%,0%);fill-opacity:0.5;stroke:none;"/>
  </g>
</mask>
<clipPath id="clip1">
  <rect x="0" y="0" width="12" height="12"/>
</clipPath>
<g id="surface5" clip-path="url(#clip1)">
<path style=" stroke:none;fill-rule:nonzero;fill:rgb(100%,100%,100%);fill-opacity:1;" d="M 2 4.5 L 4 4.5 L 5.5 8.5 L 4.5 8.5 Z M 2 4.5 "/>
<path style=" stroke:none;fill-rule:nonzero;fill:rgb(100%,100%,100%);fill-opacity:1;" d="M 10.5 4.5 L 8.5 4.5 L 6.5 8.5 L 7.5 8.5 Z M 10.5 4.5 "/>
</g>
</defs>
<g id="surface1">
<path style=" stroke:none;fill-rule:evenodd;fill:rgb(100%,100%,100%);fill-opacity:1;" d="M 2.601562 2.199219 C 2.695312 2.074219 2.84375 2 3 2 L 9 2 C 9.15625 2 9.304688 2.074219 9.398438 2.199219 L 10.898438 4.195312 C 10.902344 4.207031 10.910156 4.214844 10.917969 4.222656 C 10.921875 4.234375 10.929688 4.242188 10.933594 4.25 C 10.972656 4.316406 10.992188 4.390625 11 4.464844 C 11 4.484375 11 4.503906 11 4.523438 C 10.996094 4.601562 10.972656 4.679688 10.933594 4.75 C 10.929688 4.753906 10.925781 4.761719 10.921875 4.769531 C 10.914062 4.78125 10.90625 4.789062 10.898438 4.800781 L 6.402344 10.859375 C 6.308594 10.988281 6.160156 11.0625 6 11.0625 C 5.839844 11.0625 5.691406 10.988281 5.597656 10.859375 L 1.101562 4.800781 C 1.089844 4.789062 1.082031 4.773438 1.074219 4.761719 C 1.054688 4.726562 1.035156 4.691406 1.023438 4.652344 C 1.007812 4.601562 1 4.550781 1 4.5 C 1 4.449219 1.007812 4.394531 1.023438 4.34375 C 1.035156 4.308594 1.054688 4.269531 1.074219 4.238281 C 1.082031 4.222656 1.09375 4.210938 1.101562 4.195312 Z M 8.75 3 L 9.5 4 L 2.5 4 L 3.25 3 Z M 8.359375 5 L 9.507812 5 L 7.425781 7.800781 Z M 7.304688 5 L 4.695312 5 L 6 8.917969 Z M 3.640625 5 L 2.492188 5 L 4.574219 7.800781 Z M 3.640625 5 "/>
<use xlink:href="#surface5" mask="url(#mask0)"/>
</g>
</svg>
