<?xml version="1.0" encoding="UTF-8"?>
<svg xmlns="http://www.w3.org/2000/svg" xmlns:xlink="http://www.w3.org/1999/xlink" width="32" height="32" viewBox="0 0 32 32">
<path fill-rule="nonzero" fill="rgb(100%, 96.078431%, 94.509804%)" fill-opacity="1" d="M 23.1875 10.351562 L 20.105469 10.351562 L 20.105469 13.433594 L 23.1875 13.433594 Z M 23.1875 10.351562 "/>
<path fill-rule="nonzero" fill="rgb(100%, 96.078431%, 94.509804%)" fill-opacity="1" d="M 11.894531 10.351562 L 8.8125 10.351562 L 8.8125 13.433594 L 11.894531 13.433594 Z M 11.894531 10.351562 "/>
<path fill-rule="nonzero" fill="rgb(100%, 96.078431%, 94.509804%)" fill-opacity="1" d="M 27.292969 17.539062 L 20.105469 17.539062 L 20.105469 21.648438 L 27.292969 21.648438 Z M 27.292969 17.539062 "/>
<path fill-rule="nonzero" fill="rgb(100%, 96.078431%, 94.509804%)" fill-opacity="1" d="M 25.242188 13.433594 L 20.105469 13.433594 L 20.105469 17.539062 L 25.242188 17.539062 Z M 25.242188 13.433594 "/>
<path fill-rule="nonzero" fill="rgb(100%, 96.078431%, 94.509804%)" fill-opacity="1" d="M 11.894531 17.539062 L 4.707031 17.539062 L 4.707031 21.648438 L 11.894531 21.648438 Z M 11.894531 17.539062 "/>
<path fill-rule="nonzero" fill="rgb(100%, 96.078431%, 94.509804%)" fill-opacity="1" d="M 29.347656 21.648438 L 20.105469 21.648438 L 20.105469 25.753906 L 29.347656 25.753906 Z M 29.347656 21.648438 "/>
<path fill-rule="nonzero" fill="rgb(100%, 96.078431%, 94.509804%)" fill-opacity="1" d="M 11.894531 13.433594 L 6.757812 13.433594 L 6.757812 17.539062 L 11.894531 17.539062 Z M 11.894531 13.433594 "/>
<path fill-rule="nonzero" fill="rgb(100%, 96.078431%, 94.509804%)" fill-opacity="1" d="M 11.894531 21.648438 L 2.652344 21.648438 L 2.652344 25.753906 L 11.894531 25.753906 Z M 11.894531 21.648438 "/>
<path fill-rule="nonzero" fill="rgb(100%, 96.078431%, 94.509804%)" fill-opacity="1" d="M 19.082031 23.699219 L 12.917969 23.699219 L 12.917969 25.753906 L 19.082031 25.753906 Z M 19.082031 23.699219 "/>
<path fill-rule="nonzero" fill="rgb(100%, 96.078431%, 94.509804%)" fill-opacity="1" d="M 19.082031 20.621094 L 12.917969 20.621094 L 12.917969 22.671875 L 19.082031 22.671875 Z M 19.082031 20.621094 "/>
<path fill-rule="nonzero" fill="rgb(100%, 96.078431%, 94.509804%)" fill-opacity="1" d="M 19.082031 17.539062 L 12.917969 17.539062 L 12.917969 19.59375 L 19.082031 19.59375 Z M 19.082031 17.539062 "/>
<path fill-rule="nonzero" fill="rgb(100%, 96.078431%, 94.509804%)" fill-opacity="1" d="M 19.082031 14.460938 L 12.917969 14.460938 L 12.917969 16.511719 L 19.082031 16.511719 Z M 19.082031 14.460938 "/>
<path fill-rule="nonzero" fill="rgb(100%, 96.078431%, 94.509804%)" fill-opacity="1" d="M 19.082031 11.378906 L 12.917969 11.378906 L 12.917969 13.433594 L 19.082031 13.433594 Z M 19.082031 11.378906 "/>
<path fill-rule="nonzero" fill="rgb(100%, 96.078431%, 94.509804%)" fill-opacity="1" d="M 10.867188 6.246094 L 10.867188 10.351562 L 12.917969 10.351562 C 12.917969 9.5 12.917969 9.445312 12.917969 9.328125 C 12.917969 8.757812 13.378906 8.300781 13.945312 8.300781 C 14.511719 8.300781 14.972656 8.757812 14.972656 9.328125 C 14.972656 9.445312 14.972656 9.5 14.972656 10.351562 L 17.027344 10.351562 C 17.027344 9.5 17.027344 9.445312 17.027344 9.328125 C 17.027344 8.757812 17.488281 8.300781 18.054688 8.300781 C 18.621094 8.300781 19.082031 8.757812 19.082031 9.328125 C 19.082031 9.445312 19.082031 9.5 19.082031 10.351562 L 21.132812 10.351562 L 21.132812 6.246094 Z M 10.867188 6.246094 "/>
</svg>
