<?xml version="1.0" encoding="UTF-8"?>
<svg xmlns="http://www.w3.org/2000/svg" xmlns:xlink="http://www.w3.org/1999/xlink" width="32" height="32" viewBox="0 0 32 32">
<path fill="none" stroke-width="32.135601" stroke-linecap="round" stroke-linejoin="round" stroke="rgb(24.705882%, 24.705882%, 24.705882%)" stroke-opacity="1" stroke-miterlimit="10" d="M 361.721191 78.022461 L 486.401367 88.78418 " transform="matrix(0.0551724, 0, 0, 0.0551724, 0, 0)"/>
<path fill-rule="nonzero" fill="rgb(24.705882%, 24.705882%, 24.705882%)" fill-opacity="1" d="M 18.289062 23.878906 C 18.234375 24.359375 18.128906 24.828125 17.96875 25.273438 C 20.527344 23.269531 24.164062 20.417969 25.214844 19.582031 C 26.265625 18.734375 26.855469 17.835938 27.113281 16.640625 Z M 18.289062 23.878906 "/>
<path fill-rule="nonzero" fill="rgb(24.705882%, 24.705882%, 24.705882%)" fill-opacity="1" d="M 23.441406 7.722656 C 23.550781 7.738281 23.660156 7.761719 23.765625 7.785156 L 23.765625 4.738281 C 23.765625 4.464844 23.199219 4.109375 22.925781 4.109375 C 22.652344 4.109375 22.429688 4.328125 22.429688 4.601562 L 22.429688 7.515625 C 22.660156 7.53125 23.230469 7.6875 23.441406 7.722656 Z M 23.441406 7.722656 "/>
<path fill-rule="nonzero" fill="rgb(24.705882%, 24.705882%, 24.705882%)" fill-opacity="1" d="M 22.957031 8.566406 C 22.632812 8.515625 22.292969 8.488281 21.945312 8.488281 C 19.773438 8.488281 17.914062 9.519531 17.800781 9.585938 L 6.078125 17.5 C 6.0625 17.511719 6.046875 17.527344 6.035156 17.539062 C 3.601562 19.203125 3.632812 22.625 3.632812 22.671875 C 3.636719 22.941406 3.859375 23.152344 4.136719 23.152344 C 4.410156 23.148438 4.617188 22.925781 4.621094 22.652344 C 4.652344 20.683594 5.457031 17.746094 9.527344 17.394531 C 15.058594 16.988281 17.101562 22.425781 17.1875 22.671875 C 17.261719 22.875 17.453125 23 17.65625 23 C 17.710938 23 17.765625 22.992188 17.820312 22.972656 C 17.824219 22.972656 17.828125 22.964844 17.832031 22.964844 C 17.878906 22.945312 17.925781 22.921875 17.96875 22.890625 L 28.1875 14.484375 C 28.300781 14.390625 28.367188 14.25 28.367188 14.101562 C 28.367188 11.253906 25.566406 8.941406 22.957031 8.566406 Z M 18.109375 22.6875 C 18.105469 22.695312 18.105469 22.707031 18.101562 22.714844 C 18.105469 22.707031 18.105469 22.695312 18.109375 22.6875 Z M 18.109375 22.6875 "/>
<path fill-rule="nonzero" fill="rgb(24.705882%, 24.705882%, 24.705882%)" fill-opacity="1" d="M 16.257812 23.007812 C 16.1875 22.820312 14.539062 18.363281 10.113281 18.363281 C 9.945312 18.363281 9.773438 18.371094 9.613281 18.382812 C 7.171875 18.589844 5.835938 19.863281 5.636719 22.167969 C 5.636719 22.1875 5.632812 22.207031 5.632812 22.226562 C 5.621094 22.371094 5.613281 22.515625 5.609375 22.667969 C 5.609375 22.777344 5.59375 22.882812 5.570312 22.984375 C 5.953125 25.78125 8.371094 28.199219 11.292969 28.542969 C 11.5 28.570312 11.710938 28.582031 11.917969 28.582031 C 14.394531 28.582031 16.539062 26.84375 17.152344 24.566406 C 17.1875 24.445312 17.226562 24.21875 17.269531 23.9375 C 16.808594 23.8125 16.421875 23.472656 16.257812 23.007812 Z M 11.300781 24.589844 C 10.0625 24.441406 9.074219 23.304688 9.074219 22.066406 C 9.074219 20.828125 10.0625 19.988281 11.300781 20.1875 C 12.535156 20.335938 13.527344 21.472656 13.527344 22.710938 C 13.527344 23.945312 12.535156 24.789062 11.300781 24.589844 Z M 11.300781 24.589844 "/>
</svg>
