<svg width="32" height="32" viewBox="0 0 580 580" fill="none" xmlns="http://www.w3.org/2000/svg">
<path opacity="0.835821" d="M290.08 171.606C270.064 171.606 253.646 188.024 253.646 208.04C253.646 221.437 261.005 233.213 271.871 239.544V262.699H244.534V280.924H271.871V362.983C249.783 361.423 225.405 332.66 213.857 305.796C223.013 306.294 232.004 305.593 232.004 305.593C232.004 305.593 214.379 279.009 189.61 272.186C174.141 285.55 171.666 323.428 171.666 323.428C171.666 323.428 177.489 320.545 184.538 315.174C196.441 349.245 227.456 378.763 264.959 386.997C281.065 390.531 290.08 408.452 290.08 408.452C290.08 408.452 299.112 390.531 315.218 386.997C352.532 378.804 383.417 349.542 395.451 315.689C402.669 321.19 408.511 323.428 408.511 323.428C408.511 312.497 407.273 290.324 391.441 271.749C366.672 278.573 348.157 305.593 348.157 305.593C348.157 305.593 357.151 306.294 366.304 305.796C354.754 332.654 330.391 361.423 308.305 362.983V280.924H335.627V262.699H308.305V239.544C319.165 233.211 326.53 221.432 326.53 208.04C326.53 188.024 310.097 171.606 290.08 171.606V171.606ZM290.08 189.815C300.251 189.815 308.305 197.87 308.305 208.04C308.305 218.21 300.251 226.265 290.08 226.265C279.91 226.265 271.871 218.21 271.871 208.04C271.871 197.87 279.91 189.815 290.08 189.815V189.815Z" fill="#8D668D"/>
</svg>
