<?xml version="1.0" encoding="UTF-8"?>
<svg xmlns="http://www.w3.org/2000/svg" xmlns:xlink="http://www.w3.org/1999/xlink" width="12" height="12" viewBox="0 0 12 12" version="1.1">
<g id="surface1">
<path style=" stroke:none;fill-rule:nonzero;fill:rgb(100%,100%,100%);fill-opacity:1;" d="M 4.917969 2.386719 C 4.90625 1.632812 5.519531 1.011719 6.28125 1 C 7.066406 0.988281 7.703125 1.617188 7.691406 2.386719 L 7.691406 4.109375 C 8.109375 4.265625 8.519531 4.464844 8.890625 4.660156 C 9.675781 5.070312 10.28125 5.484375 10.28125 5.484375 C 10.8125 5.84375 10.265625 6.632812 9.734375 6.269531 C 9.734375 6.269531 9.167969 5.886719 8.4375 5.503906 C 7.707031 5.121094 6.789062 4.765625 6.304688 4.765625 C 5.816406 4.765625 4.902344 5.121094 4.171875 5.503906 C 3.441406 5.886719 2.875 6.269531 2.875 6.269531 C 2.339844 6.632812 1.792969 5.84375 2.328125 5.484375 C 2.328125 5.484375 2.933594 5.070312 3.71875 4.660156 C 4.089844 4.464844 4.5 4.265625 4.917969 4.109375 Z M 4.917969 2.386719 "/>
<path style=" stroke:none;fill-rule:evenodd;fill:rgb(100%,100%,100%);fill-opacity:1;" d="M 7.9375 7.878906 C 7.9375 8.449219 7.539062 8.78125 7.195312 8.957031 C 7.878906 8.777344 9.792969 8.351562 10.46875 9.027344 C 10.703125 9.261719 10.601562 9.710938 10.46875 10.015625 C 10.28125 10.453125 9.90625 11 9.429688 11 L 3.179688 11 C 2.703125 11 2.328125 10.453125 2.136719 10.015625 C 2.007812 9.710938 1.90625 9.261719 2.136719 9.027344 C 2.96875 8.199219 5.660156 9.027344 5.660156 9.027344 L 5.84375 9.027344 C 5.171875 8.824219 4.671875 8.308594 4.671875 7.640625 C 4.671875 6.929688 5.136719 6.039062 6.304688 5.746094 C 5.976562 6.277344 6.320312 6.800781 6.632812 6.929688 C 6.632812 6.695312 6.832031 6.363281 7.285156 6.21875 C 7.285156 6.574219 7.449219 6.8125 7.609375 7.050781 C 7.773438 7.285156 7.9375 7.523438 7.9375 7.878906 Z M 6.949219 9.027344 L 5.953125 9.027344 C 5.003906 7.632812 7.546875 7.558594 6.976562 9.019531 Z M 6.949219 9.027344 "/>
</g>
</svg>
