<svg width="12" height="12" viewBox="0 0 48 48" fill="none" xmlns="http://www.w3.org/2000/svg">
<path d="M39.9998 42C37.2198 42 34.4398 41.06 31.9998 39.36C27.1198 42.78 20.8798 42.78 15.9998 39.36C13.5598 41.06 10.7798 42 7.99984 42H3.99984V46H7.99984C10.7598 46 13.4798 45.3 15.9998 44.02C21.0398 46.6 26.9598 46.6 31.9998 44.02C34.5198 45.32 37.2398 46 39.9998 46H43.9998V42H39.9998ZM7.89984 38H7.99984C11.1998 38 14.0398 36.24 15.9998 34C17.9598 36.24 20.7998 38 23.9998 38C27.1998 38 30.0398 36.24 31.9998 34C33.9598 36.24 36.7998 38 39.9998 38H40.0998L43.8798 24.64C44.0398 24.12 43.9998 23.56 43.7598 23.08C43.5198 22.6 43.0798 22.24 42.5598 22.08L39.9998 21.24V12C39.9998 9.8 38.1998 8 35.9998 8H29.9998V2H17.9998V8H11.9998C9.79984 8 7.99984 9.8 7.99984 12V21.24L5.41984 22.08C4.89984 22.24 4.45984 22.6 4.21984 23.08C3.97984 23.56 3.91984 24.12 4.09984 24.64L7.89984 38ZM11.9998 12H35.9998V19.94L23.9998 16L11.9998 19.94V12Z" fill="#ffffff"/>
</svg>
