<?xml version="1.0" encoding="UTF-8"?>
<svg xmlns="http://www.w3.org/2000/svg" xmlns:xlink="http://www.w3.org/1999/xlink" width="12" height="12" viewBox="0 0 12 12" version="1.1">
<g id="surface1">
<path style=" stroke:none;fill-rule:nonzero;fill:rgb(100%,100%,100%);fill-opacity:1;" d="M 8.292969 10.964844 L 3.707031 10.964844 L 3.707031 10.582031 C 3.707031 10.582031 3.722656 10.203125 4.089844 10.203125 L 7.910156 10.203125 C 8.121094 10.203125 8.292969 10.371094 8.292969 10.582031 Z M 8.292969 10.964844 "/>
<path style=" stroke:none;fill-rule:nonzero;fill:rgb(100%,100%,100%);fill-opacity:1;" d="M 6.765625 10.582031 L 5.234375 10.582031 L 5.234375 9.199219 C 5.234375 9.199219 5.25 8.816406 5.617188 8.816406 L 6.382812 8.816406 C 6.59375 8.816406 6.765625 8.988281 6.765625 9.199219 Z M 6.765625 10.582031 "/>
<path style=" stroke:none;fill-rule:nonzero;fill:rgb(100%,100%,100%);fill-opacity:1;" d="M 7.527344 3.707031 L 7.527344 4.472656 L 6.765625 4.472656 C 6.765625 4.472656 6.382812 4.457031 6.382812 4.089844 C 6.382812 3.878906 6.554688 3.707031 6.765625 3.707031 Z M 7.527344 3.707031 "/>
<path style=" stroke:none;fill-rule:nonzero;fill:rgb(100%,100%,100%);fill-opacity:1;" d="M 7.527344 2.5625 L 7.527344 3.328125 L 6.765625 3.328125 C 6.765625 3.328125 6.382812 3.3125 6.382812 2.945312 C 6.382812 2.734375 6.554688 2.5625 6.765625 2.5625 Z M 7.527344 2.5625 "/>
<path style=" stroke:none;fill-rule:nonzero;fill:rgb(100%,100%,100%);fill-opacity:1;" d="M 4.472656 3.707031 L 4.472656 4.472656 L 5.234375 4.472656 C 5.234375 4.472656 5.617188 4.457031 5.617188 4.089844 C 5.617188 3.878906 5.445312 3.707031 5.234375 3.707031 Z M 4.472656 3.707031 "/>
<path style=" stroke:none;fill-rule:nonzero;fill:rgb(100%,100%,100%);fill-opacity:1;" d="M 4.472656 2.5625 L 4.472656 3.328125 L 5.234375 3.328125 C 5.234375 3.328125 5.617188 3.3125 5.617188 2.945312 C 5.617188 2.734375 5.445312 2.5625 5.234375 2.5625 Z M 4.472656 2.5625 "/>
<path style=" stroke:none;fill-rule:nonzero;fill:rgb(100%,100%,100%);fill-opacity:1;" d="M 6 1.796875 C 6.632812 1.796875 7.144531 2.3125 7.144531 2.945312 L 7.144531 6 C 7.144531 6.632812 6.632812 7.144531 6 7.144531 C 5.367188 7.144531 4.855469 6.632812 4.855469 6 L 4.855469 2.945312 C 4.855469 2.3125 5.367188 1.796875 6 1.796875 Z M 6 1.035156 C 4.945312 1.035156 4.089844 1.890625 4.089844 2.945312 L 4.089844 6 C 4.089844 7.054688 4.945312 7.910156 6 7.910156 C 7.054688 7.910156 7.910156 7.054688 7.910156 6 L 7.910156 2.945312 C 7.910156 1.890625 7.054688 1.035156 6 1.035156 Z M 6 1.035156 "/>
<path style=" stroke:none;fill-rule:nonzero;fill:rgb(100%,100%,100%);fill-opacity:1;" d="M 7.910156 4.855469 L 7.910156 6 C 7.910156 7.054688 7.054688 7.910156 6 7.910156 C 4.945312 7.910156 4.089844 7.054688 4.089844 6 L 4.089844 4.855469 Z M 7.910156 4.855469 "/>
<path style=" stroke:none;fill-rule:nonzero;fill:rgb(100%,100%,100%);fill-opacity:1;" d="M 2.5625 5.617188 L 2.5625 6 C 2.5625 7.894531 4.105469 9.4375 6 9.4375 C 7.894531 9.4375 9.4375 7.894531 9.4375 6 L 9.4375 5.617188 C 9.4375 5.617188 9.402344 5.234375 9.054688 5.234375 C 8.710938 5.234375 8.671875 5.617188 8.671875 5.617188 L 8.671875 6 C 8.671875 7.472656 7.472656 8.671875 6 8.671875 C 4.527344 8.671875 3.328125 7.472656 3.328125 6 L 3.328125 5.617188 C 3.328125 5.617188 3.285156 5.234375 2.945312 5.234375 C 2.605469 5.234375 2.5625 5.617188 2.5625 5.617188 Z M 2.5625 5.617188 "/>
</g>
</svg>
