<svg width="32" height="32" viewBox="0 0 16 16" fill="none" xmlns="http://www.w3.org/2000/svg">
<path d="M7.99997 3.16953C6.73526 3.16936 5.47758 3.68904 4.58329 4.58332C3.68901 5.47761 3.16933 6.73529 3.16949 8.00001C3.16933 9.26472 3.68901 10.5224 4.58329 11.4167C5.47758 12.311 6.73526 12.8307 7.99997 12.8305C9.26469 12.8307 10.5224 12.311 11.4167 11.4167C12.3109 10.5224 12.8306 9.26472 12.8305 8.00001C12.8306 6.73529 12.3109 5.47761 11.4167 4.58332C10.5224 3.68904 9.26469 3.16936 7.99997 3.16953Z" fill="#FEFEFE"/>
<path d="M8.00001 12.1563C10.2955 12.1563 12.1563 10.2955 12.1563 8.00001C12.1563 5.70457 10.2955 3.84375 8.00001 3.84375C5.70457 3.84375 3.84375 5.70457 3.84375 8.00001C3.84375 10.2955 5.70457 12.1563 8.00001 12.1563Z" fill="#FDDA0F" fill-opacity="0.941176" stroke="#FEFEFE" stroke-width="0.263367"/>
<path d="M5.16762 9.41329C5.13622 9.40373 5.12975 9.36733 5.12975 9.2002C5.12975 8.97735 5.1213 8.98912 5.27736 8.99455C5.38296 8.99823 5.41361 9.00402 5.43636 9.02464C5.46584 9.05134 5.47581 9.13133 5.45155 9.14632C5.44366 9.15118 5.44884 9.18041 5.4645 9.22017C5.49656 9.30152 5.48215 9.35799 5.42131 9.38946C5.38134 9.41012 5.21012 9.42621 5.16762 9.41329V9.41329ZM5.37017 9.3081C5.37907 9.29739 5.3824 9.27628 5.37761 9.26117C5.37039 9.23839 5.35764 9.23372 5.30276 9.23372C5.23909 9.23372 5.23663 9.23512 5.23663 9.2717C5.23663 9.2926 5.24068 9.31371 5.24553 9.31863C5.26227 9.33538 5.35392 9.32763 5.37013 9.3081H5.37017ZM5.35087 9.13462C5.3729 9.11851 5.37386 9.11292 5.35797 9.09372C5.33189 9.0623 5.24535 9.07031 5.23881 9.10475C5.23002 9.15088 5.30234 9.17014 5.35091 9.13462H5.35087ZM5.57265 9.39571C5.54331 9.37315 5.5394 9.35844 5.53428 9.25142C5.5282 9.1245 5.54138 9.09189 5.59462 9.10202C5.61465 9.10583 5.61987 9.12428 5.62544 9.2109C5.63165 9.30781 5.64534 9.3399 5.68078 9.34077C5.70601 9.34138 5.72677 9.28577 5.73269 9.20168C5.73821 9.12395 5.74374 9.10577 5.7635 9.10202C5.81366 9.09247 5.82655 9.12327 5.82634 9.25212C5.82623 9.31943 5.82173 9.38143 5.81631 9.38991C5.80347 9.41001 5.77238 9.41491 5.74187 9.40164C5.72748 9.39538 5.71128 9.39727 5.70232 9.40623C5.6791 9.42945 5.60919 9.42377 5.57268 9.39571L5.57265 9.39571ZM5.91463 9.37626C5.87114 9.33524 5.86676 9.32442 5.86676 9.25823C5.86676 9.19339 5.87161 9.18062 5.91097 9.1425C5.96633 9.08884 6.04681 9.08328 6.10847 9.12887C6.15093 9.16026 6.17574 9.23845 6.15107 9.26312C6.1434 9.2708 6.14025 9.29662 6.14408 9.32047C6.15029 9.35881 6.14566 9.36716 6.10453 9.39262C6.03433 9.436 5.97227 9.43066 5.91459 9.37626H5.91463ZM6.06622 9.32886C6.09364 9.31149 6.07174 9.28735 6.02848 9.28735C5.98575 9.28735 5.94764 9.32021 5.9768 9.33191C6.00439 9.34298 6.04617 9.34157 6.06622 9.32886L6.06622 9.32886ZM6.06127 9.20681C6.0733 9.18735 6.03368 9.17568 5.9915 9.18627C5.96315 9.19338 5.95955 9.19799 5.97477 9.20762C6.00075 9.22405 6.0509 9.22359 6.06127 9.20681V9.20681ZM6.22896 9.40151C6.21309 9.38239 6.20574 9.13951 6.22027 9.11592C6.2241 9.10974 6.27499 9.1037 6.3334 9.10245C6.46986 9.09955 6.48715 9.11515 6.49465 9.24792C6.50277 9.39189 6.47853 9.44346 6.42209 9.40218C6.40346 9.38857 6.39896 9.36849 6.40135 9.30963C6.40496 9.21934 6.38617 9.17679 6.34515 9.18263C6.31964 9.18626 6.31545 9.19624 6.31242 9.26053C6.30757 9.36311 6.29935 9.39175 6.27022 9.40734C6.25164 9.41729 6.24073 9.41575 6.22892 9.4015L6.22896 9.40151ZM6.60054 9.38022C6.55292 9.34097 6.55055 9.3352 6.55055 9.25823C6.55055 9.18514 6.5545 9.17374 6.59219 9.13855C6.62606 9.1069 6.64573 9.09965 6.69764 9.09965C6.77719 9.09965 6.82537 9.13443 6.84732 9.20766C6.89499 9.36678 6.72685 9.48434 6.60053 9.38022L6.60054 9.38022ZM6.73384 9.33058C6.78197 9.29996 6.76167 9.17994 6.70842 9.1803C6.66564 9.18059 6.64797 9.19475 6.63729 9.2373C6.62068 9.30348 6.68252 9.36322 6.73384 9.33058V9.33058ZM6.94182 9.39421C6.90933 9.3744 6.8985 9.35907 6.9016 9.33728C6.9069 9.29975 6.96142 9.28913 6.98477 9.32106C7.00195 9.34456 7.0598 9.34441 7.06277 9.32086C7.0637 9.31348 7.0348 9.29661 6.99855 9.28334C6.8957 9.24571 6.86927 9.186 6.93016 9.1288C6.99078 9.07185 7.15386 9.10002 7.15386 9.16745C7.15386 9.18734 7.1445 9.1935 7.11443 9.1935C7.09274 9.1935 7.07127 9.18746 7.06671 9.18009C7.05419 9.15985 7.00638 9.16402 7.00638 9.18536C7.00638 9.2093 7.04044 9.22237 7.07814 9.21291C7.11422 9.20385 7.17061 9.27233 7.17061 9.3252C7.17061 9.40851 7.03323 9.44995 6.94181 9.39421L6.94182 9.39421ZM7.37843 9.41217C7.35362 9.40568 7.3454 9.34847 7.36738 9.33491C7.37415 9.33071 7.38381 9.30883 7.38876 9.28629C7.39371 9.26376 7.4062 9.22914 7.41652 9.20936C7.42677 9.18958 7.43531 9.16319 7.43536 9.15072C7.4354 9.13825 7.441 9.12461 7.44781 9.1204C7.45458 9.1162 7.46421 9.09446 7.46913 9.0721C7.48714 8.99007 7.5692 8.95931 7.6073 9.0203C7.61609 9.03447 7.64482 9.10488 7.671 9.17676C7.69718 9.24864 7.72427 9.32132 7.73121 9.33826C7.75048 9.38535 7.74649 9.40418 7.71551 9.41228C7.6873 9.41966 7.6339 9.37995 7.62133 9.34225C7.61818 9.33271 7.58861 9.32228 7.55566 9.31904C7.49823 9.31339 7.49426 9.31537 7.45903 9.36728C7.43883 9.39706 7.41771 9.42072 7.4121 9.41986C7.40646 9.419 7.39137 9.41555 7.37846 9.41218L7.37843 9.41217ZM7.57872 9.22519C7.58762 9.20189 7.57027 9.16471 7.5467 9.15686C7.52784 9.15057 7.51325 9.19103 7.52315 9.2222C7.53296 9.25299 7.56736 9.25484 7.57873 9.2252L7.57872 9.22519ZM7.79888 9.40311C7.77953 9.37979 7.76804 9.17507 7.78376 9.13372C7.79932 9.0928 7.84397 9.08827 7.86394 9.12558C7.87968 9.155 7.8826 9.36691 7.86755 9.38887C7.85102 9.41301 7.81353 9.42078 7.79887 9.4031L7.79888 9.40311ZM7.94595 9.39569C7.92229 9.37204 7.91804 9.35132 7.91804 9.25965C7.91804 9.20018 7.92425 9.13985 7.93192 9.12558C7.94625 9.09881 7.99114 9.09032 8.00445 9.11187C8.00884 9.11906 8.0277 9.11816 8.0502 9.10968C8.1011 9.09047 8.13256 9.1044 8.13256 9.14616C8.13256 9.17116 8.12546 9.1801 8.10575 9.1801C8.05548 9.1801 8.02531 9.22709 8.02531 9.30538C8.02531 9.359 8.01888 9.3829 7.99959 9.40032C7.97509 9.4225 7.97254 9.42228 7.94597 9.39571L7.94595 9.39569ZM8.20972 9.40037C8.18948 9.38939 8.16027 9.35561 8.14481 9.32531C8.11993 9.27652 8.11853 9.26369 8.13264 9.21329C8.15337 9.13923 8.20596 9.09954 8.28284 9.09994C8.34457 9.10026 8.38071 9.12241 8.41831 9.18296C8.44683 9.22889 8.44697 9.2558 8.41878 9.27157C8.40228 9.28081 8.3988 9.29469 8.40512 9.32622C8.41256 9.36354 8.40851 9.37159 8.37027 9.3949C8.31914 9.42607 8.26076 9.42806 8.20972 9.40038L8.20972 9.40037ZM8.32585 9.33282C8.33752 9.32835 8.34706 9.31628 8.34706 9.30601C8.34706 9.2841 8.25963 9.27952 8.24651 9.30074C8.22666 9.33287 8.2749 9.35238 8.32586 9.33282H8.32585ZM8.31237 9.2122C8.34183 9.2009 8.32522 9.18009 8.28673 9.18009C8.25376 9.18009 8.23404 9.19667 8.2491 9.21174C8.25993 9.22252 8.285 9.2227 8.31237 9.2122L8.31237 9.2122ZM8.51892 9.40082C8.48173 9.38063 8.45975 9.33792 8.47435 9.31428C8.4872 9.29347 8.54433 9.29826 8.553 9.32087C8.56156 9.34332 8.62245 9.34837 8.63522 9.3277C8.64277 9.31555 8.61667 9.30096 8.51971 9.26303C8.47117 9.24404 8.45791 9.18624 8.49169 9.14086C8.51326 9.11188 8.52976 9.10571 8.59482 9.10229C8.65916 9.0989 8.67747 9.10312 8.70309 9.12718C8.72005 9.14311 8.73069 9.16455 8.72675 9.17482C8.71796 9.1979 8.66407 9.19914 8.62875 9.17709C8.60789 9.16406 8.59894 9.16417 8.58548 9.17764C8.5623 9.20082 8.5968 9.22334 8.63992 9.21318C8.684 9.20278 8.74032 9.26088 8.74032 9.31674C8.74032 9.40276 8.61213 9.45145 8.51891 9.40083L8.51892 9.40082ZM9.06433 9.40581C8.96504 9.35103 8.92394 9.25009 8.95356 9.13377C8.96709 9.08065 8.9821 9.05848 9.02849 9.02316C9.11792 8.95509 9.21728 8.96512 9.2968 9.05026C9.36345 9.12161 9.28631 9.17428 9.21375 9.10699C9.16917 9.06568 9.12039 9.06327 9.08052 9.10042C9.0407 9.13751 9.03826 9.25715 9.07647 9.29935C9.11548 9.34246 9.17973 9.33695 9.21639 9.28735C9.27133 9.21305 9.35525 9.24796 9.3091 9.3259C9.26095 9.40721 9.13902 9.44701 9.06433 9.40581L9.06433 9.40581ZM9.40043 9.40033C9.38433 9.38423 9.37939 9.35001 9.37939 9.25452C9.37939 9.12321 9.39211 9.09245 9.44243 9.10204C9.46311 9.10598 9.46749 9.12527 9.47324 9.23752C9.48079 9.38564 9.48012 9.38998 9.44619 9.40815C9.42806 9.41786 9.41587 9.41577 9.40044 9.40034L9.40043 9.40033ZM9.56107 9.37959C9.52817 9.34048 9.52612 9.33018 9.52972 9.22206L9.53355 9.10637H9.57376H9.61398L9.62075 9.21079C9.62536 9.28336 9.63359 9.31908 9.64756 9.3279C9.69816 9.3598 9.7189 9.32942 9.72728 9.21121C9.73405 9.11638 9.73754 9.10597 9.76397 9.1022C9.7819 9.09964 9.79783 9.10742 9.8051 9.12231C9.81862 9.14995 9.81749 9.38253 9.80375 9.4048C9.79767 9.41461 9.7809 9.41549 9.75295 9.40747C9.72734 9.40013 9.70182 9.40052 9.68697 9.40846C9.64132 9.4329 9.59754 9.42286 9.56113 9.37958L9.56107 9.37959ZM9.91935 9.38466C9.86923 9.33784 9.85212 9.26606 9.8738 9.19369C9.89398 9.12638 9.94182 9.09584 10.0176 9.10187C10.0692 9.10597 10.0766 9.10319 10.0767 9.07965C10.0772 9.01567 10.0924 8.99084 10.1286 8.99503L10.1637 8.9991V9.2002V9.4013L10.11 9.40485C10.0805 9.40681 10.035 9.41186 10.0088 9.41606C9.96888 9.42248 9.9544 9.41739 9.91933 9.38463L9.91935 9.38466ZM10.0506 9.32711C10.0692 9.31716 10.0765 9.29894 10.0765 9.26276C10.0765 9.20508 10.0577 9.18011 10.014 9.18011C9.97437 9.18011 9.95125 9.22484 9.96179 9.28109C9.9725 9.33795 10.0019 9.35319 10.0506 9.32711L10.0506 9.32711ZM10.2459 9.39361C10.1984 9.35625 10.1985 9.29884 10.2461 9.2614C10.2793 9.23525 10.2802 9.23195 10.2595 9.20909C10.2065 9.15052 10.261 9.09967 10.3768 9.09967C10.4399 9.09967 10.4538 9.10453 10.4778 9.13499C10.5004 9.16378 10.5055 9.18923 10.5054 9.27241C10.5053 9.32856 10.5003 9.38237 10.4941 9.39199C10.4873 9.40283 10.4447 9.41172 10.3821 9.41541C10.2949 9.42055 10.2764 9.41759 10.2459 9.39361L10.2459 9.39361ZM10.3983 9.30747C10.3983 9.26795 10.3961 9.26747 10.3421 9.29542C10.31 9.31199 10.3048 9.31958 10.3193 9.32873C10.3296 9.33525 10.3515 9.34067 10.3682 9.34078C10.3915 9.34094 10.3983 9.33335 10.3983 9.30747H10.3983ZM10.404 9.20844C10.408 9.2019 10.4027 9.18934 10.392 9.18053C10.377 9.16806 10.3622 9.16832 10.3252 9.1817C10.299 9.19116 10.2776 9.20372 10.2776 9.20961C10.2776 9.22432 10.3949 9.22323 10.404 9.20844H10.404ZM10.6018 9.3835C10.5534 9.33827 10.5379 9.27225 10.5582 9.19711C10.5772 9.1262 10.6232 9.09566 10.7013 9.10188C10.7529 9.10598 10.7602 9.1032 10.7604 9.07965C10.7609 9.01568 10.7761 8.99085 10.8123 8.99504L10.8474 8.9991L10.851 9.20461L10.8546 9.41011L10.8012 9.40625C10.7718 9.40413 10.7435 9.40668 10.7383 9.4119C10.7147 9.43547 10.6408 9.4201 10.6016 9.38349L10.6018 9.3835ZM10.7343 9.32711C10.7681 9.309 10.7718 9.20083 10.7391 9.18825C10.6738 9.16321 10.6279 9.21211 10.6467 9.2867C10.6597 9.33858 10.6883 9.35177 10.7344 9.32711L10.7343 9.32711ZM7.791 9.05465C7.77222 9.04092 7.77214 9.03628 7.79028 9.01038C7.80337 8.99168 7.81974 8.98385 7.83653 8.98824C7.86344 8.99528 7.88276 9.02712 7.87132 9.04562C7.85938 9.06493 7.8123 9.07023 7.791 9.05467L7.791 9.05465ZM9.4028 9.06268C9.37367 9.05618 9.37257 9.02788 9.40031 9.00007C9.4162 8.98419 9.4277 8.98243 9.44724 8.99288C9.46147 9.0005 9.47312 9.01255 9.47312 9.01967C9.47312 9.02678 9.47357 9.03683 9.47412 9.04199C9.47558 9.05562 9.43012 9.06879 9.40274 9.06268L9.4028 9.06268ZM6.827 8.59506C6.67028 8.54693 6.57785 8.44948 6.53082 8.28275C6.50192 8.18029 6.5003 7.38174 6.52891 7.35797C6.54132 7.34767 6.6008 7.34375 6.70655 7.34627L6.86553 7.35005L6.8723 7.75225C6.87838 8.11645 6.88144 8.15843 6.90445 8.19649C6.93205 8.2421 7.00134 8.28182 7.05329 8.28182C7.10523 8.28182 7.17453 8.2421 7.20214 8.19649C7.22517 8.15843 7.22822 8.11645 7.23428 7.75225L7.24093 7.35005L7.40319 7.34631C7.52915 7.3434 7.56893 7.34674 7.58097 7.36126C7.59234 7.37495 7.59555 7.54115 7.593 7.98172L7.58951 8.58349L7.42232 8.58727C7.26449 8.59085 7.25389 8.58944 7.23332 8.56216C7.21304 8.53528 7.20927 8.5347 7.1793 8.55388C7.13166 8.58437 7.00921 8.61714 6.9469 8.61607C6.91689 8.61556 6.86293 8.6061 6.82698 8.59506L6.827 8.59506ZM8.25484 8.58945C8.2152 8.57538 8.1739 8.55651 8.16308 8.54752C8.14708 8.53424 8.13915 8.5368 8.1208 8.56113C8.09931 8.58963 8.09036 8.59091 7.93772 8.58729L7.77723 8.58349L7.77374 7.73886C7.77046 6.95671 7.77193 6.89299 7.79307 6.87747C7.80798 6.86651 7.86587 6.86071 7.96032 6.86071C8.0894 6.86071 8.10624 6.86348 8.11864 6.88664C8.12664 6.90163 8.13252 7.00974 8.13252 7.14281C8.13252 7.35702 8.1342 7.37233 8.15598 7.36285C8.34091 7.28258 8.51232 7.28403 8.64868 7.36704C8.81228 7.46663 8.86788 7.65372 8.85169 8.05014C8.83736 8.4011 8.75999 8.52939 8.52224 8.59646C8.42725 8.62326 8.34389 8.62107 8.25485 8.58945L8.25484 8.58945ZM8.40201 8.25117C8.4737 8.20291 8.4834 8.16847 8.48368 7.96083C8.48401 7.71909 8.46108 7.66252 8.35286 7.63811C8.25332 7.61566 8.17224 7.66933 8.14817 7.77362C8.12722 7.86436 8.12864 8.07312 8.15066 8.14691C8.18687 8.26805 8.30444 8.31682 8.40197 8.25117L8.40201 8.25117ZM5.31037 8.57762C5.19505 8.54595 5.15784 8.51551 4.81765 8.17454C4.41522 7.7712 4.43897 7.78578 4.18449 7.78578C4.08625 7.78578 4.01626 7.78006 4.00753 7.77134C3.99806 7.7619 3.99704 7.73982 4.00448 7.70765C4.0108 7.68057 4.01616 7.62523 4.01644 7.58468C4.01726 7.46995 4.0099 7.47317 4.25298 7.48093C4.48366 7.4883 4.56103 7.50749 4.66008 7.58196C4.68589 7.60136 4.84827 7.75806 5.02093 7.93017C5.20884 8.11749 5.35345 8.25087 5.3812 8.26247C5.44925 8.2909 5.79933 8.28953 5.87295 8.26053C5.95946 8.22647 5.99359 8.17269 5.99385 8.07003C5.99405 7.98838 5.9917 7.98204 5.94823 7.9457C5.91869 7.92102 5.88055 7.9046 5.84098 7.89952C5.43087 7.84686 5.32496 7.80074 5.21796 7.62823C5.14415 7.50923 5.14022 7.26518 5.20995 7.12854C5.27104 7.00879 5.39117 6.91277 5.53826 6.86611C5.64863 6.83111 5.92086 6.83093 6.02761 6.8658C6.13696 6.90151 6.18848 6.92684 6.25553 6.97782C6.35252 7.05156 6.35255 7.05129 6.22718 7.17731C6.16568 7.23914 6.11029 7.28973 6.1041 7.28973C6.09789 7.28973 6.07364 7.27508 6.05018 7.25719C5.95373 7.18364 5.7415 7.15393 5.63854 7.19956C5.56202 7.23348 5.53826 7.26913 5.53826 7.35006C5.53826 7.45991 5.59585 7.50619 5.75516 7.52439C6.16823 7.57158 6.31474 7.67253 6.37066 7.94848C6.39062 8.04699 6.39052 8.06189 6.3692 8.15796C6.33112 8.32909 6.22973 8.45627 6.0642 8.54052L5.98074 8.583L5.66568 8.58584C5.4924 8.58738 5.33252 8.58371 5.3104 8.57762L5.31037 8.57762ZM9.27952 8.58046C9.20754 8.56213 9.11629 8.48185 9.0682 8.39452C9.04131 8.34568 9.03899 8.31923 9.03384 8.00033C9.02809 7.64306 9.0273 7.63892 8.96733 7.63851C8.92881 7.63825 8.92117 7.6071 8.92623 7.47114L8.93018 7.36439L8.98046 7.35254L9.03073 7.34069V7.223C9.03073 7.14514 9.03637 7.10066 9.04749 7.09154C9.05675 7.08396 9.09743 7.06742 9.13798 7.05476C9.17854 7.0421 9.23758 7.02343 9.26917 7.01326C9.30076 7.0031 9.34149 6.99478 9.35967 6.99478H9.39271V7.14984C9.39271 7.23512 9.39892 7.31657 9.40659 7.33083C9.41906 7.35414 9.43593 7.35676 9.57339 7.35676C9.66114 7.35676 9.72984 7.36249 9.73461 7.3702C9.73912 7.37759 9.72144 7.42771 9.69518 7.48157C9.66892 7.53543 9.64744 7.58648 9.64744 7.59502C9.64744 7.62258 9.5976 7.6383 9.51023 7.6383C9.46173 7.6383 9.41794 7.64524 9.4088 7.65439C9.38565 7.67754 9.3867 8.19537 9.40992 8.24161C9.42397 8.2695 9.43799 8.27584 9.49341 8.27935C9.56065 8.28361 9.60715 8.31044 9.60715 8.34498C9.60715 8.3697 9.65752 8.48023 9.68928 8.52522C9.7031 8.5448 9.7144 8.56742 9.7144 8.5755C9.7144 8.59034 9.33526 8.59465 9.2794 8.58043L9.27952 8.58046ZM10.1284 8.57762C9.97099 8.54691 9.82436 8.41833 9.76052 8.25502C9.72306 8.1592 9.72121 8.14468 9.72121 7.94666C9.72121 7.75057 9.72336 7.73342 9.75895 7.64244C9.80678 7.52025 9.86811 7.4399 9.95841 7.38108C10.0691 7.30896 10.1352 7.28973 10.2723 7.28973C10.5083 7.28973 10.673 7.38868 10.7704 7.58901C10.8187 7.68852 10.8289 7.74311 10.8306 7.91321C10.8316 8.01175 10.8273 8.04565 10.8129 8.05484C10.8024 8.06148 10.6324 8.06701 10.4351 8.06712C10.0445 8.06734 10.0606 8.06378 10.0908 8.14354C10.1087 8.19088 10.1535 8.23982 10.1972 8.25979C10.2207 8.27058 10.493 8.27712 11.1155 8.28183L12.0004 8.28854L11.9982 8.4025C11.9971 8.46518 11.9897 8.53305 11.9818 8.55333L11.9675 8.5902L11.0722 8.58867C10.5799 8.58782 10.1551 8.58285 10.1284 8.57764L10.1284 8.57762ZM10.468 7.77572C10.475 7.74016 10.4291 7.655 10.3886 7.6284C10.3639 7.61224 10.3262 7.60479 10.269 7.60479C10.195 7.60479 10.1809 7.60925 10.1447 7.64387C10.1022 7.68464 10.0685 7.76197 10.083 7.78552C10.0881 7.79374 10.1655 7.79919 10.2774 7.79919C10.4438 7.79919 10.4638 7.79672 10.468 7.77572L10.468 7.77572Z" fill="black"/>
</svg>
