<svg width="32" height="32" viewBox="0 0 1060 1060" fill="none" xmlns="http://www.w3.org/2000/svg">
<g clip-path="url(#clip0)">
<path opacity="0.426087" d="M531.229 -6.85194C519.468 -6.45574 507.857 -2.38761 498.421 4.64297C488.985 11.6736 481.766 21.6354 478.022 32.7912L379.746 325.768L70.6159 322.809C58.4297 322.693 46.2371 326.527 36.3102 333.597C26.3833 340.666 18.7726 350.934 14.8964 362.488C11.0202 374.042 10.8983 386.822 14.5533 398.448C18.2083 410.074 25.6216 420.486 35.4118 427.743L283.69 611.717L185.291 904.755C181.42 916.307 181.301 929.084 184.956 940.706C188.612 952.328 196.024 962.736 205.811 969.992C215.598 977.248 227.711 981.314 239.894 981.433C252.077 981.553 264.268 977.725 274.196 970.663L526.05 791.375L774.266 975.472C784.057 982.716 796.168 986.771 808.346 986.882C820.525 986.993 832.708 983.16 842.629 976.096C852.55 969.032 860.158 958.773 864.037 947.228C867.916 935.683 868.046 922.912 864.404 911.291L771.8 616.526L1023.65 437.238C1033.59 430.173 1041.21 419.906 1045.09 408.35C1048.98 396.793 1049.11 384.008 1045.45 372.377C1041.8 360.746 1034.38 350.328 1024.59 343.068C1014.8 335.807 1002.68 331.74 990.485 331.625L681.293 328.666L588.69 33.8393C584.907 21.8172 577.097 11.1004 566.812 3.81676C556.526 -3.46694 543.825 -7.27519 531.229 -6.85194ZM529.995 441.048C583.029 441.048 623.844 481.863 623.844 534.897C623.844 587.93 583.029 628.745 529.995 628.745C476.962 628.745 436.147 587.93 436.147 534.897C436.147 481.863 476.962 441.048 529.995 441.048V441.048Z" fill="#ACD8F3"/>
<path d="M533.194 51.2676L421.459 384.369L70.0859 380.995L352.315 590.136L240.449 923.281L526.753 719.486L808.894 928.759L703.601 593.642L989.905 389.846L638.532 386.472L533.194 51.2676ZM529.995 395.501C606.961 395.501 669.376 457.916 669.376 534.882C669.376 611.848 606.961 674.263 529.995 674.263C453.029 674.263 390.615 611.848 390.615 534.882C390.615 457.916 453.029 395.501 529.995 395.501V395.501Z" fill="black"/>
</g>
<defs>
<clipPath id="clip0">
<path d="M0 0H1060V1060H0V0Z" fill="white"/>
</clipPath>
</defs>
</svg>
