<?xml version="1.0" encoding="UTF-8"?>
<svg xmlns="http://www.w3.org/2000/svg" xmlns:xlink="http://www.w3.org/1999/xlink" width="32" height="32" viewBox="0 0 32 32">
<path fill-rule="nonzero" fill="rgb(100%, 100%, 100%)" fill-opacity="1" d="M 7.914062 28.214844 C 8.015625 28.558594 8.261719 28.878906 8.589844 28.96875 C 8.746094 29.011719 8.921875 29.023438 9.085938 28.976562 L 27.753906 23.269531 L 28.128906 24.566406 L 9.523438 30.21875 C 8.992188 30.359375 8.867188 30.285156 8.324219 30.148438 C 7.769531 29.992188 7.039062 29.238281 6.871094 28.671875 Z M 7.914062 28.214844 "/>
<path fill-rule="nonzero" fill="rgb(100%, 100%, 100%)" fill-opacity="1" d="M 12.953125 9.199219 C 12.519531 9.402344 12.152344 9.664062 11.828125 10 C 11.503906 10.328125 11.1875 10.597656 11.027344 11.1875 C 10.855469 11.78125 10.796875 12.550781 10.832031 13.53125 L 6.789062 13.53125 C 6.929688 14.046875 7.171875 14.4375 7.527344 14.75 C 7.878906 15.054688 8.3125 15.261719 8.90625 15.359375 C 9.496094 15.457031 10.425781 15.445312 11.027344 15.292969 C 11.625 15.132812 12.09375 14.832031 12.46875 14.398438 L 14.363281 16.066406 C 13.578125 16.855469 13.015625 17.519531 12.632812 18.117188 C 12.242188 18.707031 11.953125 19.003906 12.085938 19.597656 C 12.21875 20.179688 12.621094 20.683594 13.429688 21.617188 C 14.238281 22.558594 16.863281 25.148438 16.863281 25.148438 C 17.707031 24.71875 18.738281 24.5625 19.597656 24.179688 C 18.953125 23.457031 18.0625 22.65625 17.25 21.777344 C 16.460938 20.898438 15.984375 20.265625 15.773438 19.824219 C 15.566406 19.382812 15.90625 19.355469 16.03125 19.175781 C 16.140625 19.003906 16.117188 19.097656 16.480469 18.761719 C 16.847656 18.398438 17.804688 17.574219 18.214844 17.09375 C 18.613281 16.613281 18.90625 16.382812 18.886719 15.9375 C 18.863281 15.484375 19.09375 15.65625 18.582031 15.089844 L 22.351562 15.128906 C 22.296875 15.871094 22.523438 16.292969 22.867188 16.3125 C 23.234375 16.308594 23.359375 15.753906 23.46875 15.089844 L 25.523438 14.59375 L 23.464844 14.011719 C 23.402344 13.023438 23.449219 12.808594 22.941406 12.796875 C 22.515625 12.789062 22.414062 13.273438 22.363281 13.914062 L 17.441406 13.882812 C 16.515625 12.773438 15.695312 11.84375 14.941406 11.058594 C 14.1875 10.269531 13.53125 9.660156 12.953125 9.199219 Z M 12.953125 9.199219 "/>
<path fill-rule="nonzero" fill="rgb(100%, 100%, 100%)" fill-opacity="1" d="M 9.511719 5.625 C 10.636719 5.625 11.550781 6.535156 11.550781 7.660156 C 11.550781 8.785156 10.636719 9.699219 9.511719 9.699219 C 8.390625 9.699219 7.476562 8.785156 7.476562 7.660156 C 7.476562 6.535156 8.390625 5.625 9.511719 5.625 Z M 9.511719 5.625 "/>
<path fill-rule="nonzero" fill="rgb(100%, 100%, 100%)" fill-opacity="1" d="M 13.898438 7.28125 C 14.144531 7.074219 14.714844 6.480469 15.644531 5.4375 C 16.574219 4.390625 17.820312 2.960938 19.429688 1.085938 C 20.484375 2.761719 21.257812 3.980469 21.832031 4.773438 C 22.390625 5.5625 22.703125 5.898438 22.777344 5.804688 C 23.375 5.207031 23.875 4.699219 24.304688 4.257812 C 24.730469 3.8125 25.0625 3.445312 25.324219 3.152344 C 26.632812 4.996094 27.71875 6.515625 28.671875 7.800781 C 29.609375 9.074219 30.351562 10.039062 30.925781 10.75 L 26.730469 8.144531 C 26.433594 9 26.585938 8.714844 25.90625 8.757812 C 25.214844 8.785156 24.144531 7.824219 23.289062 7.652344 C 22.429688 7.476562 21.578125 8.015625 20.8125 7.722656 C 20.039062 7.410156 19.957031 6.945312 19.226562 6.628906 C 18.492188 6.316406 18.277344 6.066406 17.246094 6.15625 C 16.09375 6.292969 14.75 6.8125 13.898438 7.28125 Z M 13.898438 7.28125 "/>
</svg>
