<svg width="32" height="32" viewBox="0 0 580 580" fill="none" xmlns="http://www.w3.org/2000/svg">
<path d="M273.57 161.179C249 161.179 228.848 181.331 228.848 205.901C228.848 222.344 237.881 236.799 251.219 244.57V272.992H217.663V295.362H251.219V396.086C224.106 394.171 194.183 358.865 180.009 325.892C191.247 326.503 202.284 325.643 202.284 325.643C202.284 325.643 180.649 293.012 150.246 284.637C131.259 301.041 128.22 347.534 128.22 347.534C128.22 347.534 135.368 343.996 144.021 337.402C158.631 379.223 196.7 415.455 242.734 425.562C262.503 429.9 273.57 451.897 273.57 451.897C273.57 451.897 284.655 429.9 304.424 425.562C350.226 415.506 388.136 379.588 402.907 338.035C411.767 344.786 418.938 347.534 418.938 347.534C418.938 334.116 417.419 306.9 397.985 284.101C367.582 292.476 344.856 325.643 344.856 325.643C344.856 325.643 355.896 326.502 367.13 325.892C352.954 358.858 323.05 394.171 295.94 396.086V295.363H329.476V272.992H295.94V244.57C309.269 236.797 318.31 222.338 318.31 205.901C318.31 181.331 298.139 161.179 273.57 161.179V161.179ZM273.57 183.53C286.053 183.53 295.94 193.417 295.94 205.901C295.94 218.384 286.053 228.271 273.57 228.271C261.086 228.271 251.219 218.384 251.219 205.901C251.219 193.417 261.086 183.53 273.57 183.53Z" fill="#930093"/>
<path d="M361.784 139.597V154.961H346.421V193.369H384.818V178.006L392.5 170.324V154.961H369.455V139.597H361.784ZM346.421 201.051V213.342C346.421 220.255 348.725 226.401 352.566 231.778L369.455 254.823H450.118C462.408 254.823 476.999 244.068 484.68 233.314C492.362 222.56 500.044 207.964 500.044 201.051H346.421ZM461.635 216.414H476.999V224.096H461.635V216.414Z" fill="#930093"/>
</svg>
