<?xml version="1.0" encoding="UTF-8"?>
<svg xmlns="http://www.w3.org/2000/svg" xmlns:xlink="http://www.w3.org/1999/xlink" width="32" height="32" viewBox="0 0 32 32">
<path fill-rule="evenodd" fill="rgb(100%, 100%, 100%)" fill-opacity="1" d="M 5.332031 10.667969 C 3.859375 10.667969 2.667969 9.472656 2.667969 8 L 2.667969 5.332031 L 29.332031 5.332031 L 29.332031 8 C 29.332031 9.472656 28.140625 10.667969 26.667969 10.667969 Z M 5.332031 13.332031 C 5.441406 19.183594 10.246094 24.054688 16.097656 24 C 21.949219 23.945312 26.667969 19.183594 26.667969 13.332031 Z M 18.667969 18.667969 C 18.667969 20.140625 17.472656 21.332031 16 21.332031 C 14.527344 21.332031 13.332031 20.140625 13.332031 18.667969 C 13.332031 17.195312 14.527344 16 16 16 C 17.472656 16 18.667969 17.195312 18.667969 18.667969 Z M 18.667969 18.667969 "/>
</svg>
