<?xml version="1.0" encoding="UTF-8"?>
<svg xmlns="http://www.w3.org/2000/svg" xmlns:xlink="http://www.w3.org/1999/xlink" width="32" height="32" viewBox="0 0 32 32">
<defs>
<filter id="filter-remove-color" x="0%" y="0%" width="100%" height="100%">
<feColorMatrix color-interpolation-filters="sRGB" values="0 0 0 0 1 0 0 0 0 1 0 0 0 0 1 0 0 0 1 0" />
</filter>
<mask id="mask-0">
<g filter="url(#filter-remove-color)">
<rect x="-3.2" y="-3.2" width="38.4" height="38.4" fill="rgb(0%, 0%, 0%)" fill-opacity="0.75"/>
</g>
</mask>
<clipPath id="clip-0">
<rect x="0" y="0" width="32" height="32"/>
</clipPath>
<g id="source-6" clip-path="url(#clip-0)">
<path fill-rule="evenodd" fill="rgb(100%, 100%, 100%)" fill-opacity="1" d="M 12 10.667969 C 12 9.929688 12.597656 9.332031 13.332031 9.332031 L 17.511719 9.332031 L 22.359375 15.144531 L 20.308594 16.855469 L 16.265625 12 L 13.332031 12 C 12.597656 12 12 11.402344 12 10.667969 Z M 12 10.667969 "/>
</g>
</defs>
<g mask="url(#mask-0)">
<use xlink:href="#source-6"/>
</g>
<path fill-rule="nonzero" fill="rgb(100%, 100%, 100%)" fill-opacity="1" d="M 17.453125 8 C 16.652344 8 16 8.644531 16 9.4375 C 16 10.230469 16.652344 10.871094 17.453125 10.871094 L 19.703125 10.871094 L 22.726562 14.28125 L 21.816406 15.179688 L 11.636719 15.179688 L 10.183594 13.742188 L 2.910156 13.742188 C 1.300781 13.742188 0 15.03125 0 16.617188 L 0 20.921875 L 2.910156 20.921875 C 1.300781 20.921875 0 22.207031 0 23.792969 C 0 25.382812 1.300781 26.667969 2.910156 26.667969 L 8.539062 26.667969 C 11.050781 26.667969 13.089844 24.652344 13.089844 22.171875 L 13.089844 20.921875 L 22.871094 20.921875 L 24.035156 23.792969 L 18.910156 23.792969 C 18.105469 23.792969 17.453125 24.4375 17.453125 25.230469 C 17.453125 26.023438 18.105469 26.667969 18.910156 26.667969 L 26.621094 26.667969 L 31.351562 23.554688 C 32.019531 23.113281 32.199219 22.222656 31.753906 21.5625 C 31.308594 20.902344 30.40625 20.722656 29.738281 21.164062 L 26.867188 23.054688 L 25.902344 20.679688 C 26.925781 20.234375 27.636719 19.222656 27.636719 18.050781 L 27.636719 15.179688 L 25.644531 13.210938 L 21.023438 8 Z M 17.453125 8 "/>
</svg>
