<svg width="32" height="32" viewBox="0 0 580 580" fill="none" xmlns="http://www.w3.org/2000/svg">
<g clip-path="url(#clip0)">
<path opacity="0.426087" d="M230.656 316.125C226.308 316.127 222.061 317.432 218.462 319.871C214.864 322.311 212.079 325.774 210.469 329.812L187.812 386.594H173.531L103.844 356.25C99.8417 354.507 95.4077 354.009 91.1187 354.82C86.8297 355.632 82.8843 357.716 79.796 360.801C76.7077 363.886 74.6195 367.829 73.8031 372.117C72.9867 376.405 73.48 380.84 75.2188 384.844L117.688 482.625H85.3438C82.4872 482.624 79.6585 483.186 77.0192 484.279C74.3799 485.371 71.9817 486.973 69.9619 488.993C67.942 491.013 66.3399 493.411 65.2473 496.05C64.1546 498.69 63.5927 501.518 63.5938 504.375V529.375C63.5927 532.232 64.1546 535.06 65.2473 537.7C66.3399 540.339 67.942 542.737 69.9619 544.757C71.9817 546.777 74.3799 548.379 77.0192 549.471C79.6585 550.564 82.4872 551.126 85.3438 551.125H227.656C239.281 569.808 259.832 582.344 283.25 582.344C306.674 582.344 327.243 569.822 338.875 551.125H481.156C484.013 551.126 486.842 550.564 489.481 549.471C492.12 548.379 494.518 546.777 496.538 544.757C498.558 542.737 500.16 540.339 501.253 537.7C502.345 535.06 502.907 532.232 502.906 529.375V504.375C502.907 501.518 502.345 498.69 501.253 496.05C500.16 493.411 498.558 491.013 496.538 488.993C494.518 486.973 492.12 485.371 489.481 484.279C486.842 483.186 484.013 482.624 481.156 482.625H447.594L488.938 384.594C490.627 380.579 491.071 376.15 490.214 371.88C489.356 367.61 487.236 363.696 484.128 360.645C481.019 357.594 477.067 355.547 472.781 354.769C468.496 353.991 464.076 354.518 460.094 356.281L391.75 386.594H377.781L375.969 382.062C375.609 381.182 375.191 380.326 374.719 379.5L354.875 329.812C353.264 325.774 350.48 322.311 346.881 319.871C343.283 317.432 339.035 316.127 334.688 316.125H230.656Z" fill="#8D8D8D"/>
<path d="M95.0986 375.892L168.947 408.041H396.274L468.837 375.839L410.566 513.964H155.089L95.0986 375.892Z" fill="#00DF0C"/>
<path d="M85.2959 516.57H481.099" stroke="black" stroke-width="25"/>
<path d="M316.803 516.401C316.803 525.314 313.262 533.862 306.96 540.164C300.658 546.466 292.11 550.007 283.197 550.007C274.285 550.007 265.737 546.466 259.435 540.164C253.132 533.862 249.592 525.314 249.592 516.401C249.592 507.489 253.132 498.941 259.435 492.639C265.737 486.336 274.285 482.796 283.197 482.796C292.11 482.796 300.658 486.336 306.96 492.639C313.262 498.941 316.803 507.489 316.803 516.401V516.401Z" fill="#FEFEFE" stroke="black" stroke-width="20.5723" stroke-miterlimit="10" stroke-linecap="round" stroke-linejoin="round"/>
<path d="M230.609 337.576H334.612L363.07 408.826H202.151L230.609 337.576Z" fill="#00DF0C"/>
<path d="M209.824 389.844L202.375 408.031H363.017L355.721 389.844H209.824Z" fill="black"/>
<path opacity="0.226087" d="M423.045 396.76L468.844 375.844L410.562 513.969L387.239 513.8L423.045 396.76Z" fill="black"/>
</g>
<defs>
<clipPath id="clip0">
<path d="M0 0H580V580H0V0Z" fill="white"/>
</clipPath>
</defs>
</svg>
