<?xml version="1.0" encoding="UTF-8"?>
<svg xmlns="http://www.w3.org/2000/svg" xmlns:xlink="http://www.w3.org/1999/xlink" width="32" height="32" viewBox="0 0 32 32">
<defs>
<filter id="filter-remove-color" x="0%" y="0%" width="100%" height="100%">
<feColorMatrix color-interpolation-filters="sRGB" values="0 0 0 0 1 0 0 0 0 1 0 0 0 0 1 0 0 0 1 0" />
</filter>
<mask id="mask-0">
<g filter="url(#filter-remove-color)">
<rect x="-3.2" y="-3.2" width="38.4" height="38.4" fill="rgb(0%, 0%, 0%)" fill-opacity="0.7"/>
</g>
</mask>
<clipPath id="clip-0">
<rect x="0" y="0" width="32" height="32"/>
</clipPath>
<g id="source-6" clip-path="url(#clip-0)">
<path fill-rule="nonzero" fill="rgb(100%, 100%, 100%)" fill-opacity="1" d="M 8 2.667969 C 6.527344 2.667969 5.332031 3.859375 5.332031 5.332031 L 5.332031 18.667969 C 5.332031 20.140625 6.527344 21.332031 8 21.332031 L 8 8 L 24 8 L 24 21.332031 C 25.472656 21.332031 26.667969 20.140625 26.667969 18.667969 L 26.667969 5.332031 C 26.667969 3.859375 25.472656 2.667969 24 2.667969 Z M 8 2.667969 "/>
</g>
</defs>
<g mask="url(#mask-0)">
<use xlink:href="#source-6"/>
</g>
<path fill-rule="nonzero" fill="rgb(100%, 100%, 100%)" fill-opacity="1" d="M 14.667969 20 C 16.875 20 18.667969 18.210938 18.667969 16 C 18.667969 13.789062 16.875 12 14.667969 12 C 12.457031 12 10.667969 13.789062 10.667969 16 C 10.667969 18.210938 12.457031 20 14.667969 20 Z M 14.667969 20 "/>
<path fill-rule="evenodd" fill="rgb(100%, 100%, 100%)" fill-opacity="1" d="M 5.332031 5.332031 C 3.859375 5.332031 2.667969 6.527344 2.667969 8 L 2.667969 26.667969 C 2.667969 28.140625 3.859375 29.332031 5.332031 29.332031 L 26.667969 29.332031 C 28.140625 29.332031 29.332031 28.140625 29.332031 26.667969 L 29.332031 8 C 29.332031 6.527344 28.140625 5.332031 26.667969 5.332031 Z M 14.667969 22.667969 C 16.027344 22.667969 17.289062 22.261719 18.34375 21.5625 L 21.722656 24.941406 C 22.246094 25.464844 23.089844 25.464844 23.609375 24.941406 C 24.128906 24.421875 24.128906 23.578125 23.609375 23.058594 L 20.230469 19.675781 C 20.925781 18.621094 21.332031 17.359375 21.332031 16 C 21.332031 12.316406 18.347656 9.332031 14.667969 9.332031 C 10.984375 9.332031 8 12.316406 8 16 C 8 19.683594 10.984375 22.667969 14.667969 22.667969 Z M 14.667969 22.667969 "/>
</svg>
