<?xml version="1.0" encoding="UTF-8"?>
<svg xmlns="http://www.w3.org/2000/svg" xmlns:xlink="http://www.w3.org/1999/xlink" width="12" height="12" viewBox="0 0 12 12" version="1.1">
<g id="surface1">
<path style=" stroke:none;fill-rule:evenodd;fill:rgb(100%,100%,100%);fill-opacity:1;" d="M 6 2 C 3.789062 2 2 3.789062 2 6 C 2 8.210938 3.789062 10 6 10 L 6 9 C 4.34375 9 3 7.65625 3 6 C 3 4.34375 4.34375 3 6 3 L 6.5 3 C 7.878906 3 9 4.121094 9 5.5 L 9 7.5 C 9 7.777344 8.777344 8 8.5 8 C 8.222656 8 8 7.777344 8 7.5 L 8 4 L 6 4 C 4.894531 4 4 4.894531 4 6 L 4 6.085938 C 4 7.144531 4.855469 8 5.914062 8 C 6.308594 8 6.6875 7.878906 7.007812 7.65625 C 7.085938 8.410156 7.722656 9 8.5 9 C 9.328125 9 10 8.328125 10 7.5 L 10 5.5 C 10 3.566406 8.433594 2 6.5 2 Z M 5 6.085938 C 5 6.589844 5.410156 7 5.914062 7 C 6.15625 7 6.390625 6.902344 6.5625 6.730469 L 7 6.292969 L 7 5 L 6 5 C 5.449219 5 5 5.449219 5 6 Z M 5 6.085938 "/>
</g>
</svg>
