<svg width="32" height="32" viewBox="0 0 580 580" fill="none" xmlns="http://www.w3.org/2000/svg">
<path opacity="0.426087" d="M260.469 136.313C256.595 136.312 252.758 137.074 249.179 138.557C245.599 140.039 242.347 142.212 239.607 144.951C236.868 147.691 234.695 150.943 233.213 154.522C231.731 158.102 230.968 161.938 230.969 165.812V474.469H220.875C217.001 474.468 213.164 475.231 209.585 476.713C206.006 478.195 202.753 480.368 200.014 483.107C197.274 485.847 195.101 489.099 193.619 492.679C192.137 496.258 191.374 500.095 191.375 503.969V528.969C191.374 532.843 192.137 536.679 193.619 540.259C195.101 543.838 197.274 547.091 200.014 549.83C202.753 552.569 206.006 554.742 209.585 556.225C213.164 557.707 217.001 558.469 220.875 558.469H345.156C349.03 558.469 352.867 557.707 356.446 556.225C360.026 554.742 363.278 552.569 366.018 549.83C368.757 547.091 370.93 543.838 372.412 540.259C373.894 536.679 374.657 532.843 374.656 528.969V503.969C374.657 500.095 373.894 496.258 372.412 492.679C370.93 489.099 368.757 485.847 366.018 483.107C363.278 480.368 360.026 478.195 356.446 476.713C352.867 475.231 349.03 474.468 345.156 474.469H334.25V165.812C334.251 161.938 333.488 158.102 332.006 154.522C330.524 150.943 328.351 147.691 325.611 144.951C322.872 142.212 319.619 140.039 316.04 138.557C312.461 137.074 308.624 136.312 304.75 136.313H260.469Z" fill="#ACD8F3"/>
<path opacity="0.788" d="M304.926 165.92H260.654V515.653H304.926V165.92Z" fill="black"/>
<path d="M221.063 516.57H345.332" stroke="black" stroke-width="25"/>
</svg>
