<?xml version="1.0" encoding="UTF-8"?>
<svg xmlns="http://www.w3.org/2000/svg" xmlns:xlink="http://www.w3.org/1999/xlink" width="12" height="12" viewBox="0 0 12 12" version="1.1">
<g id="surface1">
<path style=" stroke:none;fill-rule:nonzero;fill:rgb(24.705882%,24.705882%,24.705882%);fill-opacity:1;" d="M 6 0 C 6.277344 0 6.5 0.222656 6.5 0.5 L 6.5 1.792969 L 7.144531 1.144531 C 7.339844 0.953125 7.660156 0.953125 7.855469 1.144531 C 8.050781 1.339844 8.050781 1.660156 7.855469 1.855469 L 6.5 3.207031 L 6.5 5.132812 L 8.167969 4.171875 L 8.664062 2.320312 C 8.734375 2.054688 9.011719 1.898438 9.277344 1.96875 C 9.542969 2.039062 9.703125 2.3125 9.628906 2.582031 L 9.394531 3.464844 L 10.511719 2.816406 C 10.753906 2.679688 11.058594 2.761719 11.195312 3 C 11.335938 3.238281 11.253906 3.546875 11.011719 3.683594 L 9.894531 4.328125 L 10.777344 4.566406 C 11.042969 4.636719 11.203125 4.910156 11.128906 5.179688 C 11.058594 5.445312 10.785156 5.601562 10.519531 5.53125 L 8.667969 5.035156 L 7 6 L 8.667969 6.964844 L 10.519531 6.46875 C 10.785156 6.398438 11.058594 6.554688 11.128906 6.820312 C 11.203125 7.089844 11.042969 7.363281 10.777344 7.433594 L 9.894531 7.671875 L 11.011719 8.316406 C 11.253906 8.453125 11.335938 8.761719 11.195312 9 C 11.058594 9.238281 10.753906 9.320312 10.511719 9.183594 L 9.394531 8.535156 L 9.628906 9.417969 C 9.703125 9.6875 9.542969 9.960938 9.277344 10.03125 C 9.011719 10.101562 8.734375 9.945312 8.664062 9.679688 L 8.167969 7.828125 L 6.5 6.867188 L 6.5 8.792969 L 7.855469 10.144531 C 8.050781 10.339844 8.050781 10.660156 7.855469 10.855469 C 7.660156 11.046875 7.339844 11.046875 7.144531 10.855469 L 6.5 10.207031 L 6.5 11.5 C 6.5 11.777344 6.277344 12 6 12 C 5.722656 12 5.5 11.777344 5.5 11.5 L 5.5 10.207031 L 4.855469 10.855469 C 4.660156 11.046875 4.339844 11.046875 4.144531 10.855469 C 3.953125 10.660156 3.953125 10.339844 4.144531 10.144531 L 5.5 8.792969 L 5.5 6.867188 L 3.832031 7.828125 L 3.335938 9.679688 C 3.265625 9.945312 2.992188 10.101562 2.722656 10.03125 C 2.457031 9.960938 2.296875 9.6875 2.371094 9.417969 L 2.605469 8.535156 L 1.488281 9.183594 C 1.246094 9.320312 0.941406 9.238281 0.804688 9 C 0.664062 8.761719 0.746094 8.453125 0.988281 8.316406 L 2.105469 7.671875 L 1.222656 7.433594 C 0.957031 7.363281 0.796875 7.089844 0.871094 6.820312 C 0.941406 6.554688 1.214844 6.398438 1.480469 6.46875 L 3.332031 6.964844 L 5 6 L 3.332031 5.035156 L 1.480469 5.53125 C 1.214844 5.601562 0.941406 5.445312 0.871094 5.179688 C 0.796875 4.910156 0.957031 4.636719 1.222656 4.566406 L 2.105469 4.328125 L 0.988281 3.683594 C 0.746094 3.546875 0.664062 3.238281 0.804688 3 C 0.941406 2.761719 1.246094 2.679688 1.488281 2.816406 L 2.605469 3.464844 L 2.371094 2.582031 C 2.296875 2.3125 2.457031 2.039062 2.722656 1.96875 C 2.992188 1.898438 3.265625 2.054688 3.335938 2.320312 L 3.832031 4.171875 L 5.5 5.132812 L 5.5 3.207031 L 4.144531 1.855469 C 3.953125 1.660156 3.953125 1.339844 4.144531 1.144531 C 4.339844 0.953125 4.660156 0.953125 4.855469 1.144531 L 5.5 1.792969 L 5.5 0.5 C 5.5 0.222656 5.722656 0 6 0 Z M 6 0 "/>
</g>
</svg>
