<?xml version="1.0" encoding="UTF-8"?>
<svg xmlns="http://www.w3.org/2000/svg" xmlns:xlink="http://www.w3.org/1999/xlink" width="12" height="12" viewBox="0 0 12 12" version="1.1">
<g id="surface1">
<path style=" stroke:none;fill-rule:nonzero;fill:rgb(100%,100%,100%);fill-opacity:1;" d="M 2 5 C 2 4.449219 2.449219 4 3 4 L 3 1 L 4 1 L 4 4 C 4.550781 4 5 4.449219 5 5 L 5 9.5 C 5 9.777344 4.777344 10 4.5 10 L 2.5 10 C 2.222656 10 2 9.777344 2 9.5 Z M 2 5 "/>
<path style=" stroke:none;fill-rule:evenodd;fill:rgb(100%,100%,100%);fill-opacity:1;" d="M 8 8 L 8 9 L 7.445312 9.277344 C 7.171875 9.414062 7 9.695312 7 10 L 10 10 C 10 9.695312 9.828125 9.414062 9.554688 9.277344 L 9 9 L 9 8 C 9.550781 8 10 7.550781 10 7 L 10 4 L 7 4 L 7 7 C 7 7.550781 7.449219 8 8 8 Z M 8 5 L 8 6 C 8 6 8 6.5 8.5 6.5 C 9 6.5 9 6 9 6 L 9 5 Z M 8 5 "/>
</g>
</svg>
