<?xml version="1.0" encoding="UTF-8"?>
<svg xmlns="http://www.w3.org/2000/svg" xmlns:xlink="http://www.w3.org/1999/xlink" width="32" height="32" viewBox="0 0 32 32">
<path fill-rule="evenodd" fill="rgb(100%, 100%, 100%)" fill-opacity="1" d="M 10.667969 5.332031 L 8 5.332031 L 8 26.667969 L 10.667969 26.667969 L 10.667969 21.332031 L 26.667969 21.332031 L 26.667969 5.332031 Z M 10.667969 8 L 10.667969 10.667969 L 13.332031 10.667969 L 13.332031 13.332031 L 10.667969 13.332031 L 10.667969 16 L 13.332031 16 L 13.332031 18.667969 L 16 18.667969 L 16 16 L 18.667969 16 L 18.667969 18.667969 L 21.332031 18.667969 L 21.332031 16 L 24 16 L 24 13.332031 L 21.332031 13.332031 L 21.332031 10.667969 L 24 10.667969 L 24 8 L 21.332031 8 L 21.332031 10.667969 L 18.667969 10.667969 L 18.667969 8 L 16 8 L 16 10.667969 L 13.332031 10.667969 L 13.332031 8 Z M 16 13.332031 L 16 10.667969 L 18.667969 10.667969 L 18.667969 13.332031 Z M 16 13.332031 L 16 16 L 13.332031 16 L 13.332031 13.332031 Z M 18.667969 13.332031 L 18.667969 16 L 21.332031 16 L 21.332031 13.332031 Z M 18.667969 13.332031 "/>
</svg>
