<svg width="32" height="32" viewBox="0 0 580 580" fill="none" xmlns="http://www.w3.org/2000/svg">
<g clip-path="url(#clip0)">
<path opacity="0.426087" d="M315.719 181.718C311.542 181.592 307.427 182.753 303.933 185.045C300.439 187.337 297.735 190.649 296.187 194.531L256.594 293.812C256.294 294.392 256.023 294.987 255.781 295.593L221.125 383.312L215.812 390.218C215.791 390.26 215.771 390.302 215.75 390.343L215.062 391.25L215.031 391.312C214.915 391.446 214.8 391.581 214.687 391.718L214.656 391.781L200.844 409.718C200.844 409.729 200.844 409.739 200.844 409.75C200.759 409.853 200.676 409.957 200.594 410.062L144.219 483.625H99.9375C94.5434 483.629 89.3716 485.774 85.5574 489.588C81.7432 493.402 79.5983 498.574 79.5938 503.968V528.968C79.5983 534.362 81.7431 539.534 85.5573 543.348C89.3715 547.163 94.5433 549.307 99.9374 549.312H228.312C228.881 550.245 229.375 551.309 229.969 552.187C232.874 556.487 236.266 560.382 240.031 563.812C251.378 574.15 266.645 580.593 283.219 580.593C295.408 580.593 306.908 577.087 316.562 571.187C317.552 570.582 318.405 570.01 319.156 569.5C319.879 569.008 320.716 568.424 321.656 567.718C322.545 567.05 323.368 566.413 324.094 565.812C324.765 565.256 325.539 564.571 326.406 563.781C330.141 560.375 333.435 556.587 336.25 552.468C336.25 552.458 336.25 552.448 336.25 552.437C334.963 554.321 335.312 553.865 336.531 552.062C336.565 552.012 336.543 552.06 336.562 552.031C336.612 551.956 336.67 551.87 336.625 551.937C336.635 551.927 336.646 551.916 336.656 551.906C337.331 550.895 337.804 550.12 338.125 549.594H338.094C336.224 552.664 336.671 552.014 338.25 549.406C338.415 549.134 338.048 549.71 338.25 549.375C338.264 549.351 338.298 549.336 338.312 549.312H455.312C460.706 549.308 465.878 547.163 469.693 543.349C473.507 539.535 475.652 534.363 475.656 528.969V503.969C475.652 498.574 473.507 493.403 469.693 489.588C465.878 485.774 460.707 483.629 455.312 483.625H402.562L393.812 442.125L393.781 442L389.437 420.906L395.344 325.875L401.969 218.906C402.19 215.053 401.313 211.216 399.437 207.843C399.113 207.243 398.758 206.658 398.375 206.093C397.986 205.531 397.569 204.989 397.125 204.468C396.691 203.956 396.232 203.466 395.75 203C395.348 202.618 394.931 202.253 394.5 201.906C394.407 201.822 394.313 201.738 394.219 201.656C394.044 201.518 393.867 201.382 393.687 201.25C393.522 201.133 393.356 201.018 393.187 200.906C392.871 200.678 392.548 200.459 392.219 200.25C392.146 200.207 392.073 200.166 392 200.125C391.907 200.072 391.813 200.02 391.719 199.968C391.219 199.686 390.709 199.426 390.187 199.187C389.606 198.909 389.011 198.659 388.406 198.437C388.375 198.427 388.344 198.416 388.312 198.406C388.24 198.385 388.167 198.364 388.094 198.343L388 198.312C387.384 198.095 386.759 197.907 386.125 197.75L376.281 195.5L376.187 195.468L319.75 182.25C318.427 181.938 317.077 181.76 315.719 181.718V181.718Z" fill="#8D8D8D"/>
<path d="M230.829 404.203L143.038 518.667L239.378 519.104C240.767 542.001 259.971 560.351 283.197 560.351C306.32 560.351 325.45 542.166 326.991 519.413L389.283 519.695L371.411 434.811L230.829 404.203Z" fill="#FFD400"/>
<path d="M315.076 202.164L272.516 308.871L239.048 393.594L230.788 404.239L371.397 434.78L368.915 422.815L375.028 324.721L381.642 217.764" fill="#FFD400"/>
<path d="M274.701 303.16L238.998 393.606L216.939 422.228L375.972 456.711L368.916 422.31L375.017 324.754" fill="black"/>
<path d="M99.9238 516.57H455.305" stroke="black" stroke-width="25"/>
<path d="M316.803 516.401C316.803 525.314 313.262 533.862 306.96 540.164C300.658 546.466 292.11 550.007 283.197 550.007C274.285 550.007 265.737 546.466 259.435 540.164C253.132 533.862 249.592 525.314 249.592 516.401C249.592 507.489 253.132 498.941 259.435 492.639C265.737 486.336 274.285 482.796 283.197 482.796C292.11 482.796 300.658 486.336 306.96 492.639C313.262 498.941 316.803 507.489 316.803 516.401V516.401Z" fill="#FEFEFE" stroke="black" stroke-width="20.5723" stroke-miterlimit="10" stroke-linecap="round" stroke-linejoin="round"/>
<path opacity="0.426087" d="M364.978 213.873L381.558 217.682L368.885 422.814L386.191 504.743L334.214 504.687L326.617 412.652L364.978 213.873Z" fill="black"/>
</g>
<defs>
<clipPath id="clip0">
<path d="M0 0H580V580H0V0Z" fill="white"/>
</clipPath>
</defs>
</svg>
