<?xml version="1.0" encoding="UTF-8"?>
<svg xmlns="http://www.w3.org/2000/svg" xmlns:xlink="http://www.w3.org/1999/xlink" width="12" height="12" viewBox="0 0 12 12" version="1.1">
<g id="surface1">
<path style=" stroke:none;fill-rule:nonzero;fill:rgb(100%,100%,100%);fill-opacity:1;" d="M 10.464844 1.582031 L 9.820312 3.855469 L 6.539062 3.855469 L 7.328125 10.125 L 10.015625 10.125 L 10.816406 3.855469 L 10.210938 3.855469 L 10.839844 1.691406 Z M 6.148438 7.511719 C 6.214844 6.945312 5.785156 6.636719 4.863281 6.589844 L 2.636719 6.589844 C 1.714844 6.636719 1.28125 6.945312 1.335938 7.511719 Z M 1.335938 9.214844 C 1.28125 9.78125 1.714844 10.085938 2.636719 10.125 L 4.863281 10.125 C 5.785156 10.085938 6.214844 9.78125 6.148438 9.214844 Z M 5.941406 7.949219 L 1.53125 7.949219 C 1.417969 7.949219 1.320312 7.988281 1.238281 8.070312 C 1.160156 8.152344 1.117188 8.246094 1.117188 8.351562 C 1.117188 8.472656 1.160156 8.570312 1.238281 8.648438 C 1.320312 8.726562 1.417969 8.761719 1.53125 8.761719 L 5.941406 8.761719 C 6.054688 8.761719 6.152344 8.726562 6.234375 8.648438 C 6.316406 8.570312 6.355469 8.472656 6.355469 8.351562 C 6.355469 8.246094 6.316406 8.152344 6.234375 8.070312 C 6.152344 7.988281 6.054688 7.949219 5.941406 7.949219 Z M 5.941406 7.949219 "/>
</g>
</svg>
