<?xml version="1.0" encoding="UTF-8"?>
<svg xmlns="http://www.w3.org/2000/svg" xmlns:xlink="http://www.w3.org/1999/xlink" width="32" height="32" viewBox="0 0 32 32">
<path fill-rule="nonzero" fill="rgb(100%, 100%, 100%)" fill-opacity="1" d="M 13.886719 24 L 19.011719 18.875 C 20.496094 17.386719 21.332031 15.371094 21.332031 13.265625 L 21.332031 10.667969 C 21.332031 7.722656 18.945312 5.332031 16 5.332031 C 13.054688 5.332031 10.667969 7.722656 10.667969 10.667969 L 13.332031 10.667969 C 13.332031 9.195312 14.527344 8 16 8 C 17.472656 8 18.667969 9.195312 18.667969 10.667969 L 18.667969 13.265625 C 18.667969 14.664062 18.113281 16.003906 17.125 16.992188 L 11.058594 23.058594 C 10.796875 23.316406 10.667969 23.660156 10.667969 24 L 10.667969 26.667969 L 21.332031 26.667969 L 21.332031 24 Z M 13.886719 24 "/>
</svg>
