<?xml version="1.0" encoding="UTF-8"?>
<svg xmlns="http://www.w3.org/2000/svg" xmlns:xlink="http://www.w3.org/1999/xlink" width="12" height="12" viewBox="0 0 12 12" version="1.1">
<defs>
<filter id="alpha" filterUnits="objectBoundingBox" x="0%" y="0%" width="100%" height="100%">
  <feColorMatrix type="matrix" in="SourceGraphic" values="0 0 0 0 1 0 0 0 0 1 0 0 0 0 1 0 0 0 1 0"/>
</filter>
<mask id="mask0">
  <g filter="url(#alpha)">
<rect x="0" y="0" width="12" height="12" style="fill:rgb(0%,0%,0%);fill-opacity:0.7;stroke:none;"/>
  </g>
</mask>
<clipPath id="clip1">
  <rect x="0" y="0" width="12" height="12"/>
</clipPath>
<g id="surface5" clip-path="url(#clip1)">
<path style=" stroke:none;fill-rule:nonzero;fill:rgb(100%,100%,100%);fill-opacity:1;" d="M 3 5 L 0 5 L 0 11 L 3 11 L 3 9 L 1 9 L 1 8 L 3 8 L 3 7 L 1 7 L 1 6 L 3 6 Z M 3 5 "/>
<path style=" stroke:none;fill-rule:nonzero;fill:rgb(100%,100%,100%);fill-opacity:1;" d="M 12 5 L 9 5 L 9 6 L 11 6 L 11 7 L 9 7 L 9 8 L 11 8 L 11 9 L 9 9 L 9 11 L 12 11 Z M 12 5 "/>
</g>
<mask id="mask1">
  <g filter="url(#alpha)">
<rect x="0" y="0" width="12" height="12" style="fill:rgb(0%,0%,0%);fill-opacity:0.3;stroke:none;"/>
  </g>
</mask>
<clipPath id="clip2">
  <rect x="0" y="0" width="12" height="12"/>
</clipPath>
<g id="surface8" clip-path="url(#clip2)">
<path style=" stroke:none;fill-rule:nonzero;fill:rgb(100%,100%,100%);fill-opacity:1;" d="M 4 6 L 8 6 L 8 11 L 4 11 Z M 4 6 "/>
</g>
<mask id="mask2">
  <g filter="url(#alpha)">
<rect x="0" y="0" width="12" height="12" style="fill:rgb(0%,0%,0%);fill-opacity:0.5;stroke:none;"/>
  </g>
</mask>
<clipPath id="clip3">
  <rect x="0" y="0" width="12" height="12"/>
</clipPath>
<g id="surface11" clip-path="url(#clip3)">
<path style=" stroke:none;fill-rule:evenodd;fill:rgb(100%,100%,100%);fill-opacity:1;" d="M 5.5 11 L 5.5 6 L 6.5 6 L 6.5 11 Z M 5.5 11 "/>
</g>
<mask id="mask3">
  <g filter="url(#alpha)">
<rect x="0" y="0" width="12" height="12" style="fill:rgb(0%,0%,0%);fill-opacity:0.5;stroke:none;"/>
  </g>
</mask>
<clipPath id="clip4">
  <rect x="0" y="0" width="12" height="12"/>
</clipPath>
<g id="surface14" clip-path="url(#clip4)">
<path style=" stroke:none;fill-rule:nonzero;fill:rgb(100%,100%,100%);fill-opacity:1;" d="M 5.027344 2.34375 C 5.113281 2.078125 5.398438 1.9375 5.660156 2.027344 C 5.921875 2.113281 6.0625 2.394531 5.976562 2.65625 L 5.859375 3 L 4.808594 3 Z M 5.027344 2.34375 "/>
</g>
</defs>
<g id="surface1">
<use xlink:href="#surface5" mask="url(#mask0)"/>
<use xlink:href="#surface8" mask="url(#mask1)"/>
<use xlink:href="#surface11" mask="url(#mask2)"/>
<path style=" stroke:none;fill-rule:nonzero;fill:rgb(100%,100%,100%);fill-opacity:1;" d="M 6 2.511719 C 6 2.558594 5.992188 2.609375 5.972656 2.65625 L 5.859375 3 L 6.140625 3 L 6.027344 2.65625 C 6.007812 2.609375 6 2.558594 6 2.511719 Z M 6 2.511719 "/>
<path style=" stroke:none;fill-rule:evenodd;fill:rgb(100%,100%,100%);fill-opacity:1;" d="M 9 1 L 3 1 L 3 11 L 4 11 L 4 6 L 8 6 L 8 11 L 9 11 Z M 5.65625 2.027344 C 5.394531 1.9375 5.113281 2.078125 5.027344 2.34375 L 4.804688 3 L 4.429688 3 C 4.191406 3 4 3.191406 4 3.429688 C 4 3.476562 4.007812 3.523438 4.023438 3.566406 L 4.386719 4.65625 C 4.453125 4.863281 4.644531 5 4.859375 5 L 7.140625 5 C 7.355469 5 7.546875 4.863281 7.613281 4.65625 L 7.976562 3.566406 C 7.992188 3.523438 8 3.476562 8 3.429688 C 8 3.191406 7.808594 3 7.570312 3 L 7.195312 3 L 6.972656 2.34375 C 6.886719 2.078125 6.605469 1.9375 6.34375 2.027344 C 6.136719 2.09375 6.003906 2.285156 6 2.488281 C 5.996094 2.285156 5.863281 2.09375 5.65625 2.027344 Z M 5.65625 2.027344 "/>
<path style=" stroke:none;fill-rule:nonzero;fill:rgb(100%,100%,100%);fill-opacity:1;" d="M 5 9.5 C 5 9.222656 5.222656 9 5.5 9 L 6.5 9 C 6.777344 9 7 9.222656 7 9.5 C 7 9.777344 6.777344 10 6.5 10 L 5.5 10 C 5.222656 10 5 9.777344 5 9.5 Z M 5 9.5 "/>
<use xlink:href="#surface14" mask="url(#mask3)"/>
</g>
</svg>
