<svg width="32" height="32" viewBox="0 0 16 16" fill="none" xmlns="http://www.w3.org/2000/svg">
<path opacity="0.635" d="M8.16604 4.16407C7.54573 4.16539 6.94896 4.36314 6.40041 4.65235L6.30862 4.5625C6.19275 4.44761 6.03624 4.38304 5.87307 4.38282H2.50393C2.37907 4.38271 2.25709 4.42032 2.15397 4.49072C2.05085 4.56111 1.97139 4.66101 1.92601 4.77732C1.88062 4.89364 1.87142 5.02095 1.89961 5.14258C1.92781 5.26422 1.99208 5.3745 2.08401 5.45899L4.38869 7.57813C4.37225 7.71824 4.33101 7.85503 4.3301 7.9961C4.3301 7.9974 4.3301 7.9987 4.3301 8.00001C4.33024 9.00474 4.74443 10.0027 5.4551 10.7129C6.16577 11.4231 7.16326 11.8364 8.16799 11.8359C9.17234 11.8358 10.1707 11.4231 10.8809 10.7129C11.5911 10.0027 12.0038 9.00435 12.0039 8C12.0041 7.84896 11.963 7.70275 11.9453 7.55274L14.2891 5.46485C14.3827 5.38124 14.4487 5.2712 14.4784 5.14928C14.508 5.02736 14.5 4.89929 14.4554 4.78202C14.4107 4.66475 14.3315 4.5638 14.2282 4.49252C14.1249 4.42124 14.0025 4.38299 13.877 4.38282H10.5078C10.3475 4.38301 10.1935 4.44531 10.0781 4.55664L9.96291 4.66797C9.40729 4.36934 8.80093 4.16523 8.16994 4.16407C8.16864 4.16406 8.16734 4.16406 8.16603 4.16407H8.16604Z" fill="#FEFEFE"/>
<path d="M8.16817 11.2172C9.94501 11.2172 11.3854 9.77682 11.3854 7.99999C11.3854 6.22315 9.94501 4.78275 8.16817 4.78275C6.39134 4.78275 4.95093 6.22315 4.95093 7.99999C4.95093 9.77682 6.39134 11.2172 8.16817 11.2172Z" fill="#FEFEFE" stroke="black" stroke-width="0.192091"/>
<path d="M8.16819 10.0682C9.31044 10.0682 10.2364 9.14225 10.2364 8.00001C10.2364 6.85776 9.31044 5.93179 8.16819 5.93179C7.02595 5.93179 6.09998 6.85776 6.09998 8.00001C6.09998 9.14225 7.02595 10.0682 8.16819 10.0682Z" fill="#0000FF" stroke="black" stroke-width="0.164794"/>
<path fill-rule="evenodd" clip-rule="evenodd" d="M4.86017 7.1384H11.4648L8.11802 10.2183L4.86017 7.1384Z" fill="#FF0000" stroke="black" stroke-width="0.188695"/>
<path fill-rule="evenodd" clip-rule="evenodd" d="M8.16254 7.24957L10.5086 5.00354H13.8777L11.4649 7.1495L4.84909 7.16062L2.50299 5.00354H5.87203L8.16254 7.24957Z" fill="#CCCCCC" stroke="black" stroke-width="0.188695"/>
<path fill-rule="evenodd" clip-rule="evenodd" d="M5.02655 8.66224L7.35839 6.50615L8.14462 7.28452L8.99375 6.4747L11.3288 8.60538C11.3288 8.60538 11.2851 8.86633 11.1683 9.16265C11.0516 9.45897 10.8807 9.7061 10.8807 9.7061L8.99375 7.86633L8.17607 8.56607L7.33481 7.86633L5.42427 9.67465C5.42427 9.67465 5.23912 9.35519 5.17141 9.18727C5.1037 9.01935 5.02655 8.66224 5.02655 8.66224Z" fill="#FFFF00" stroke="black" stroke-width="0.188695"/>
<path d="M12.4989 6.20441H10.9089L9.83038 7.16064" stroke="black" stroke-width="0.188695" stroke-miterlimit="4.3"/>
<path d="M3.82886 6.20441H5.41887L6.49741 7.16064" stroke="black" stroke-width="0.188695" stroke-miterlimit="4.3"/>
<path d="M6.36987 9.68655L6.09225 9.99608L6.01409 9.9194L6.3704 9.52214L6.48712 9.63664L6.27241 10.0202L6.62259 9.76955L6.74035 9.88508L6.38404 10.2823L6.30588 10.2057L6.5835 9.89614L6.23866 10.1397L6.16051 10.063L6.36987 9.68655L6.36987 9.68655Z" fill="black"/>
<path d="M6.77827 10.2724L6.71037 10.3945L6.95429 10.5429L6.90938 10.6236L6.57283 10.4188L6.83473 9.94801L7.16016 10.146L7.11525 10.2267L6.88245 10.0851L6.82317 10.1917L7.03869 10.3228L6.99378 10.4035L6.77827 10.2724V10.2724Z" fill="black"/>
<path d="M7.4492 10.3568L7.31033 10.7841L7.20887 10.748L7.34774 10.3207L7.19825 10.2676L7.22699 10.1792L7.62201 10.3196L7.59327 10.408L7.4492 10.3568V10.3568Z" fill="black"/>
<path d="M7.94787 10.8249C7.94962 10.8101 7.95122 10.7985 7.95269 10.7902C7.95415 10.7818 7.95526 10.7744 7.95602 10.768C7.95871 10.7453 7.95543 10.7283 7.9462 10.717C7.93703 10.7053 7.92086 10.698 7.8977 10.695L7.77574 10.6792L7.75045 10.8935L7.6441 10.8798L7.70789 10.3392L7.98512 10.375C8.01159 10.3784 8.03373 10.3861 8.05153 10.3979C8.0698 10.4098 8.08276 10.424 8.0904 10.4405C8.09852 10.4572 8.10377 10.4736 8.10616 10.49C8.10861 10.5059 8.10884 10.5222 8.10686 10.539C8.09915 10.6043 8.06483 10.645 8.00389 10.6613C8.01601 10.6683 8.02494 10.674 8.03068 10.6783C8.03647 10.682 8.04201 10.688 8.04728 10.6962C8.05302 10.7045 8.05649 10.7117 8.05768 10.7179C8.05935 10.7241 8.06019 10.7353 8.06021 10.7513C8.06071 10.7675 8.06029 10.7832 8.05896 10.7986C8.05762 10.814 8.05541 10.8368 8.05232 10.867C8.04987 10.8878 8.05569 10.9036 8.06976 10.9144L8.0674 10.9344L7.95324 10.9197C7.94814 10.906 7.94511 10.8931 7.94415 10.8809C7.94366 10.8688 7.9449 10.8501 7.94787 10.8249L7.94787 10.8249ZM7.99866 10.5409C8.00193 10.5132 7.99794 10.4941 7.9867 10.4836C7.97552 10.4726 7.95717 10.4655 7.93164 10.4622L7.80331 10.4456L7.78668 10.5865L7.91502 10.6031C7.94007 10.6063 7.95929 10.6041 7.97269 10.5962C7.98656 10.5885 7.99522 10.57 7.99866 10.5409V10.5409Z" fill="black"/>
<path d="M8.3068 10.8702C8.2563 10.8218 8.22713 10.756 8.21928 10.6727C8.21143 10.5894 8.22776 10.5189 8.26827 10.4612C8.30925 10.4034 8.36695 10.3707 8.44136 10.363C8.51625 10.3553 8.57918 10.3756 8.63015 10.4239C8.68108 10.4717 8.71061 10.5388 8.71873 10.625C8.7263 10.7053 8.70985 10.7746 8.66939 10.8328C8.62936 10.8905 8.57143 10.9232 8.49559 10.9311C8.42023 10.9388 8.3573 10.9185 8.3068 10.8702V10.8702ZM8.45104 10.4581C8.40791 10.4626 8.37494 10.4835 8.35214 10.5209C8.32929 10.5578 8.32056 10.6047 8.32593 10.6617C8.3313 10.7187 8.34865 10.7633 8.37799 10.7953C8.40728 10.8268 8.44349 10.8403 8.48662 10.8359C8.52928 10.8315 8.56203 10.8108 8.58488 10.7739C8.6082 10.737 8.61725 10.6908 8.61202 10.6353C8.60651 10.5768 8.58908 10.5315 8.55974 10.4995C8.53088 10.4674 8.49464 10.4537 8.45104 10.4581L8.45104 10.4581Z" fill="black"/>
<path d="M9.19082 10.6531C9.18631 10.6389 9.18301 10.6277 9.18091 10.6195C9.17881 10.6113 9.17678 10.6041 9.17483 10.598C9.16792 10.5763 9.15799 10.5624 9.14505 10.5564C9.13195 10.5499 9.11433 10.5505 9.09218 10.5582L8.97557 10.5987L9.04066 10.8037L8.93897 10.839L8.77477 10.3221L9.03986 10.23C9.06517 10.2212 9.08829 10.2181 9.10922 10.2208C9.13061 10.2234 9.14815 10.2304 9.16184 10.2419C9.17599 10.2533 9.1875 10.2658 9.19637 10.2795C9.2051 10.2928 9.21201 10.3074 9.21711 10.3235C9.23694 10.3859 9.22265 10.4381 9.17427 10.4801C9.18812 10.4811 9.19851 10.4822 9.20544 10.4834C9.21221 10.4842 9.21967 10.4872 9.22779 10.4922C9.23637 10.4971 9.24247 10.5021 9.24608 10.5071C9.25014 10.512 9.25548 10.5217 9.26209 10.5362C9.26916 10.5505 9.27524 10.5649 9.28035 10.5794C9.28546 10.5939 9.29282 10.6155 9.30243 10.6442C9.30873 10.6641 9.32047 10.6757 9.33764 10.6792L9.34372 10.6984L9.23457 10.7363C9.22433 10.7262 9.21628 10.7159 9.21042 10.7053C9.20501 10.6946 9.19847 10.6772 9.19081 10.6531L9.19082 10.6531ZM9.12015 10.3737C9.11174 10.3472 9.10031 10.3318 9.08585 10.3274C9.07125 10.3225 9.05174 10.3243 9.02733 10.3327L8.90462 10.3754L8.94741 10.5101L9.07013 10.4675C9.09408 10.4591 9.11051 10.4484 9.11941 10.4354C9.12876 10.4222 9.12901 10.4016 9.12015 10.3737V10.3737Z" fill="black"/>
<path d="M9.50769 10.3462L9.57594 10.468L9.81943 10.3188L9.86457 10.3994L9.52862 10.6052L9.26536 10.1353L9.59021 9.93623L9.63535 10.0168L9.40296 10.1592L9.46255 10.2656L9.67768 10.1338L9.72282 10.2143L9.50769 10.3462L9.50769 10.3462Z" fill="black"/>
<path d="M10.0278 9.89749L10.3297 9.98777L10.235 10.0765L10.0399 10.0056L10.0866 10.2157L9.99402 10.3024L9.94138 9.98355L9.65066 9.89284L9.74536 9.80408L9.9279 9.87378L9.88474 9.67342L9.97731 9.58665L10.0278 9.89749L10.0278 9.89749Z" fill="black"/>
<path d="M6.90642 5.6169L6.96189 5.72933L7.02707 5.69576C7.04893 5.6845 7.06283 5.67159 7.06876 5.65702C7.07476 5.64224 7.07306 5.62533 7.06366 5.60629C7.05419 5.5871 7.04193 5.57572 7.02687 5.57213C7.01188 5.56833 6.99346 5.57206 6.9716 5.58333L6.90642 5.6169L6.90642 5.6169ZM6.84415 5.4907L6.88979 5.58319L6.94994 5.55221C6.96978 5.54199 6.98268 5.53062 6.98862 5.51811C6.99462 5.5054 6.99377 5.49123 6.98605 5.47561C6.97842 5.46013 6.96781 5.45107 6.95423 5.44844C6.94079 5.44574 6.92414 5.4495 6.9043 5.45972L6.84415 5.4907H6.84415ZM6.78668 5.47751L6.89048 5.42405C6.92146 5.40809 6.94858 5.40237 6.97184 5.40689C6.99509 5.41142 7.0127 5.42581 7.02466 5.45005C7.03393 5.46883 7.037 5.48597 7.0339 5.50149C7.03078 5.51701 7.02159 5.53042 7.00632 5.54173C7.02847 5.53583 7.04848 5.53703 7.06638 5.54534C7.08434 5.55345 7.09846 5.56791 7.10873 5.58874C7.12225 5.61615 7.12358 5.64201 7.11272 5.66634C7.10185 5.69067 7.07959 5.71151 7.04592 5.72885L6.93809 5.78438L6.78668 5.47751L6.78668 5.47751Z" fill="black"/>
<path d="M7.11054 5.32002L7.15387 5.30506L7.21929 5.50283C7.23083 5.53772 7.24534 5.56074 7.26282 5.57187C7.28024 5.58286 7.30283 5.58357 7.33057 5.57398C7.35818 5.56445 7.37564 5.54991 7.38297 5.53038C7.39025 5.51069 7.38812 5.4834 7.37658 5.44851L7.31115 5.25074L7.35448 5.23578L7.42171 5.43901C7.43575 5.48146 7.43604 5.51708 7.42257 5.54586C7.40925 5.5746 7.38252 5.59589 7.3424 5.60975C7.30214 5.62365 7.26811 5.62334 7.24031 5.60881C7.21266 5.59422 7.19181 5.5657 7.17776 5.52325L7.11053 5.32002L7.11054 5.32002Z" fill="black"/>
<path d="M7.73693 5.18153L7.74565 5.22975C7.728 5.21825 7.70997 5.21057 7.69155 5.20671C7.67329 5.20282 7.65455 5.20269 7.63535 5.20631C7.59754 5.21344 7.57073 5.23074 7.55493 5.25822C7.53909 5.28555 7.53521 5.32154 7.54328 5.36621C7.55132 5.41073 7.56752 5.44294 7.59188 5.46284C7.61622 5.4826 7.6473 5.48891 7.68511 5.48178C7.7043 5.47817 7.72176 5.47121 7.73746 5.46091C7.75331 5.45058 7.76748 5.43683 7.77995 5.41966L7.78857 5.46742C7.77488 5.48124 7.75974 5.49252 7.74314 5.50126C7.72669 5.50998 7.70872 5.51618 7.68923 5.51986C7.63916 5.5293 7.5969 5.52111 7.56246 5.49531C7.52799 5.46935 7.50586 5.42928 7.49608 5.37511C7.48627 5.32078 7.49294 5.27529 7.5161 5.23862C7.53923 5.2018 7.57583 5.17867 7.6259 5.16923C7.64569 5.1655 7.66479 5.16471 7.6832 5.16685C7.70173 5.16882 7.71964 5.17372 7.73694 5.18153L7.73693 5.18153Z" fill="black"/>
<path d="M7.84565 5.14315L7.89134 5.1413L7.89936 5.34991C7.90078 5.38671 7.90833 5.41298 7.92201 5.4287C7.93568 5.44428 7.95715 5.45148 7.98642 5.4503C8.01553 5.44913 8.03631 5.44024 8.04874 5.42361C8.06117 5.40683 8.06668 5.38004 8.06526 5.34324L8.05724 5.13463L8.10294 5.13278L8.1112 5.34714C8.11292 5.39191 8.10334 5.42616 8.08247 5.44988C8.06173 5.4736 8.03021 5.48631 7.98789 5.48801C7.94542 5.48971 7.91286 5.47958 7.89022 5.45761C7.86773 5.43563 7.85563 5.40226 7.8539 5.35748L7.84564 5.14313L7.84565 5.14315Z" fill="black"/>
<path d="M8.3769 5.33641C8.38627 5.3408 8.39496 5.34896 8.40297 5.36091C8.41112 5.37287 8.41886 5.38896 8.42619 5.40917L8.46271 5.50742L8.41408 5.5023L8.38012 5.4101C8.37137 5.38604 8.36215 5.36972 8.35245 5.36114C8.34289 5.35258 8.32915 5.34735 8.31122 5.34546L8.26192 5.34028L8.24735 5.48476L8.20209 5.48L8.23656 5.13815L8.33874 5.14891C8.37699 5.15293 8.4047 5.1641 8.42188 5.18242C8.43906 5.20073 8.44598 5.22637 8.44266 5.25934C8.44049 5.28087 8.43376 5.29821 8.42246 5.31137C8.41132 5.32454 8.39614 5.33289 8.37691 5.33642L8.3769 5.33641ZM8.27799 5.18092L8.26575 5.30227L8.32267 5.30826C8.34448 5.31055 8.36143 5.30717 8.37352 5.29811C8.38577 5.28891 8.3929 5.27432 8.39492 5.25432C8.39693 5.23432 8.39285 5.2187 8.38266 5.20744C8.37264 5.19605 8.35672 5.18921 8.33491 5.18691L8.27799 5.18092L8.27799 5.18092Z" fill="black"/>
<path d="M8.59853 5.18634L8.80539 5.23675L8.79649 5.27482L8.63389 5.23519L8.61079 5.33415L8.76659 5.37212L8.75769 5.41019L8.60189 5.37221L8.57361 5.49334L8.74015 5.53393L8.73125 5.57199L8.52045 5.52062L8.59848 5.18634L8.59853 5.18634Z" fill="black"/>
<path d="M9.10639 5.35682L9.09078 5.39926C9.07751 5.38515 9.06443 5.3734 9.05152 5.36402C9.0386 5.35463 9.02547 5.34738 9.01211 5.34225C8.98892 5.33334 8.9693 5.33105 8.95327 5.33539C8.93737 5.33978 8.92631 5.35045 8.92007 5.36739C8.91484 5.38161 8.91502 5.39398 8.92063 5.40449C8.92643 5.41491 8.94017 5.42683 8.96186 5.44024L8.98561 5.45551C9.01511 5.47389 9.0345 5.4938 9.04378 5.51523C9.05326 5.53658 9.05319 5.56032 9.04357 5.58646C9.0321 5.61763 9.01315 5.63732 8.9867 5.64552C8.9604 5.65378 8.92749 5.65032 8.88799 5.63516C8.87309 5.62944 8.85784 5.62161 8.84223 5.61168C8.82677 5.60181 8.81129 5.59004 8.79578 5.57638L8.81226 5.53156C8.82591 5.54812 8.8401 5.56209 8.85484 5.57349C8.86958 5.58489 8.88496 5.59367 8.90099 5.59982C8.92531 5.60916 8.94588 5.61149 8.96268 5.6068C8.97949 5.60211 8.99123 5.59071 8.99788 5.57261C9.0037 5.55681 9.00346 5.54263 8.99718 5.53005C8.99104 5.51753 8.97796 5.50488 8.95795 5.49211L8.93391 5.47698C8.90452 5.45831 8.88526 5.43936 8.87613 5.42011C8.86701 5.40087 8.86696 5.37897 8.87599 5.35441C8.88646 5.32596 8.90447 5.30731 8.93004 5.29844C8.95574 5.28962 8.98582 5.29183 9.02026 5.30506C9.03502 5.31073 9.04956 5.31787 9.06388 5.32648C9.0782 5.3351 9.09237 5.34521 9.10639 5.35683L9.10639 5.35682Z" fill="black"/>
<path d="M9.1902 5.37994L9.44215 5.51502L9.42436 5.54967L9.31863 5.49299L9.18015 5.76265L9.13965 5.74093L9.27813 5.47128L9.1724 5.41459L9.1902 5.37994V5.37994Z" fill="black"/>
<path d="M9.50391 5.5582L9.54214 5.58343L9.35964 5.87209L9.32141 5.84686L9.50391 5.5582V5.5582Z" fill="black"/>
</svg>
