<svg width="32" height="32" viewBox="0 0 16 16" fill="none" xmlns="http://www.w3.org/2000/svg">
<path d="M6.0137 2.94336L4.46487 2.94531C4.28787 2.94573 4.11523 3.00035 3.9702 3.10182C3.82517 3.20329 3.71469 3.34675 3.65364 3.51289C3.59258 3.67904 3.58388 3.8599 3.6287 4.03113C3.67352 4.20237 3.76971 4.35578 3.90433 4.47071C4.9329 5.34948 5.58305 6.65113 5.58401 8.11524V12.1895C5.58391 12.3034 5.60628 12.4162 5.64982 12.5214C5.69337 12.6267 5.75724 12.7223 5.83779 12.8029C5.91833 12.8834 6.01397 12.9473 6.11923 12.9908C6.22448 13.0344 6.33729 13.0567 6.4512 13.0566H7.68362C7.79195 13.0564 7.89927 13.0359 8.00003 12.9961C8.00068 12.9961 8.00133 12.9961 8.00198 12.9961C8.10212 13.0356 8.20876 13.0562 8.31643 13.0566H9.5469C9.66081 13.0567 9.77362 13.0344 9.87887 12.9908C9.98413 12.9473 10.0798 12.8834 10.1603 12.8029C10.2409 12.7223 10.3047 12.6267 10.3483 12.5214C10.3918 12.4162 10.4142 12.3034 10.4141 12.1895V8.11524C10.4151 6.65217 11.0676 5.34995 12.0957 4.47071C12.2304 4.35578 12.3265 4.20237 12.3714 4.03113C12.4162 3.8599 12.4075 3.67904 12.3464 3.5129C12.2854 3.34675 12.1749 3.20329 12.0299 3.10182C11.8848 3.00035 11.7122 2.94573 11.5352 2.94532L9.98636 2.94336C9.75661 2.94272 9.53601 3.03334 9.37308 3.19532C8.79418 3.77102 8.33092 4.46108 8.00003 5.22071C7.66883 4.4614 7.20354 3.77256 6.62698 3.19727C6.54646 3.11672 6.45085 3.05283 6.34562 3.00926C6.24039 2.96569 6.1276 2.9433 6.0137 2.94336V2.94336Z" fill="#FEFEFE"/>
<path d="M6.01562 3.81055L4.4668 3.8125C5.68074 4.84965 6.45004 6.39341 6.45117 8.11523V12.1895H7.68359V7.78125C7.67008 6.23172 7.03363 4.8263 6.01562 3.81055ZM9.98438 3.81055C8.96299 4.82629 8.32992 6.23172 8.31641 7.78125V12.1895H9.54688V8.11523C9.548 6.39341 10.3204 4.84965 11.5332 3.8125L9.98438 3.81055Z" fill="#C51935"/>
</svg>
