<svg width="64" height="64" viewBox="0 0 1060 1060" fill="none" xmlns="http://www.w3.org/2000/svg">
<path opacity="0.873134" d="M365.938 234.562C339.798 234.563 314.62 242.752 296.469 260.125L296.438 260.094C296.421 260.109 296.423 260.141 296.406 260.156C294.492 261.986 292.743 263.942 291.031 265.938C287.396 260.037 282.796 254.745 277.125 250.656C277.094 250.634 277.062 250.616 277.031 250.594C261.288 239.258 243.503 236.813 223.906 236.813H175.094C171.207 236.812 167.359 237.577 163.768 239.064C160.178 240.551 156.915 242.731 154.167 245.479C151.419 248.227 149.239 251.49 147.752 255.081C146.265 258.671 145.5 262.52 145.5 266.406V390.344C145.499 394.23 146.265 398.079 147.752 401.669C149.239 405.26 151.419 408.523 154.167 411.271C156.915 414.019 160.177 416.199 163.768 417.686C167.359 419.173 171.207 419.938 175.094 419.938H207.062C211.466 419.933 215.813 418.947 219.787 417.049C223.76 415.151 227.26 412.391 230.031 408.969C232.799 412.387 236.294 415.145 240.262 417.042C244.23 418.94 248.571 419.929 252.969 419.938H287C291.639 419.93 296.212 418.831 300.348 416.73C304.485 414.629 308.069 411.585 310.812 407.844C326.876 417.64 346.123 422.344 365.938 422.344C375.12 422.344 384.162 421.278 392.875 419.156C401.494 417.058 409.884 413.911 417.844 409.781C422.654 407.287 426.686 403.52 429.502 398.891C432.318 394.262 433.809 388.949 433.812 383.531V357.875C433.805 350.551 431.081 343.491 426.169 338.059C421.257 332.627 414.505 329.21 407.219 328.469C414.51 327.727 421.266 324.305 426.179 318.867C431.092 313.428 433.812 306.36 433.812 299.031V273.375C433.809 267.957 432.318 262.644 429.502 258.015C426.686 253.386 422.654 249.619 417.844 247.125C409.884 242.995 401.494 239.849 392.875 237.75C384.162 235.629 375.119 234.563 365.938 234.562ZM368.5 316.906C371.882 316.906 374.751 317.383 377.5 318.281C380.196 319.163 383.564 320.762 387.531 323.469C391.624 326.26 396.352 327.979 401.281 328.469C396.354 328.949 391.627 330.657 387.531 333.438C383.564 336.144 380.195 337.744 377.5 338.625C374.751 339.524 371.881 340 368.5 340C363.44 340 364.546 339.867 363.688 338.906C362.849 337.969 361.406 336.218 361.406 328.5C361.406 320.705 362.883 318.9 363.688 318C364.546 317.04 363.44 316.906 368.5 316.906Z" fill="#ACD8F3"/>
<path d="M220.512 321.356C227.208 321.356 231.995 320.111 234.873 317.621C237.805 315.13 239.272 311.035 239.272 305.335C239.272 299.691 237.805 295.651 234.873 293.216C231.995 290.782 227.208 289.564 220.512 289.564H207.065V321.356H220.512V321.356ZM207.065 343.436V390.335H175.107V266.405H223.916C240.24 266.405 252.193 269.144 259.775 274.623C267.412 280.101 271.23 288.762 271.23 300.604C271.23 308.794 269.238 315.518 265.253 320.775C261.324 326.032 255.375 329.906 247.407 332.396C251.778 333.392 255.68 335.661 259.111 339.203C262.597 342.689 266.111 348.001 269.653 355.14L287.001 390.335H252.968L237.861 359.54C234.817 353.342 231.718 349.108 228.564 346.839C225.465 344.57 221.315 343.436 216.113 343.436H207.065Z" fill="black"/>
<path d="M404.208 383.529C398.343 386.572 392.228 388.869 385.864 390.418C379.5 391.968 372.859 392.743 365.942 392.743C345.301 392.743 328.948 386.988 316.884 375.477C304.82 363.911 298.789 348.251 298.789 328.495C298.789 308.684 304.82 293.023 316.884 281.512C328.948 269.947 345.301 264.164 365.942 264.164C372.859 264.164 379.5 264.938 385.864 266.488C392.228 268.037 398.343 270.334 404.208 273.377V299.027C398.287 294.987 392.449 292.027 386.694 290.145C380.939 288.264 374.879 287.323 368.515 287.323C357.115 287.323 348.15 290.975 341.621 298.28C335.091 305.585 331.826 315.656 331.826 328.495C331.826 341.278 335.091 351.322 341.621 358.626C348.15 365.931 357.115 369.583 368.515 369.583C374.879 369.583 380.939 368.643 386.694 366.761C392.449 364.88 398.287 361.919 404.208 357.879V383.529" fill="black"/>
</svg>
