<?xml version="1.0" encoding="UTF-8"?>
<svg xmlns="http://www.w3.org/2000/svg" xmlns:xlink="http://www.w3.org/1999/xlink" width="12" height="12" viewBox="0 0 12 12" version="1.1">
<defs>
<filter id="alpha" filterUnits="objectBoundingBox" x="0%" y="0%" width="100%" height="100%">
  <feColorMatrix type="matrix" in="SourceGraphic" values="0 0 0 0 1 0 0 0 0 1 0 0 0 0 1 0 0 0 1 0"/>
</filter>
<mask id="mask0">
  <g filter="url(#alpha)">
<rect x="0" y="0" width="12" height="12" style="fill:rgb(0%,0%,0%);fill-opacity:0.9;stroke:none;"/>
  </g>
</mask>
<clipPath id="clip1">
  <rect x="0" y="0" width="12" height="12"/>
</clipPath>
<g id="surface5" clip-path="url(#clip1)">
<path style=" stroke:none;fill-rule:evenodd;fill:rgb(100%,100%,100%);fill-opacity:1;" d="M 2.5 7 C 2.222656 7 2 7.222656 2 7.5 C 2 7.777344 2.222656 8 2.5 8 C 2.777344 8 3 7.777344 3 7.5 C 3 7.222656 2.777344 7 2.5 7 Z M 2.5 9 C 3.328125 9 4 8.328125 4 7.5 C 4 6.671875 3.328125 6 2.5 6 C 1.671875 6 1 6.671875 1 7.5 C 1 8.328125 1.671875 9 2.5 9 Z M 2.5 9 "/>
</g>
<mask id="mask1">
  <g filter="url(#alpha)">
<rect x="0" y="0" width="12" height="12" style="fill:rgb(0%,0%,0%);fill-opacity:0.9;stroke:none;"/>
  </g>
</mask>
<clipPath id="clip2">
  <rect x="0" y="0" width="12" height="12"/>
</clipPath>
<g id="surface8" clip-path="url(#clip2)">
<path style=" stroke:none;fill-rule:evenodd;fill:rgb(100%,100%,100%);fill-opacity:1;" d="M 9.5 7 C 9.222656 7 9 7.222656 9 7.5 C 9 7.777344 9.222656 8 9.5 8 C 9.777344 8 10 7.777344 10 7.5 C 10 7.222656 9.777344 7 9.5 7 Z M 9.5 9 C 10.328125 9 11 8.328125 11 7.5 C 11 6.671875 10.328125 6 9.5 6 C 8.671875 6 8 6.671875 8 7.5 C 8 8.328125 8.671875 9 9.5 9 Z M 9.5 9 "/>
</g>
</defs>
<g id="surface1">
<use xlink:href="#surface5" mask="url(#mask0)"/>
<use xlink:href="#surface8" mask="url(#mask1)"/>
<path style=" stroke:none;fill-rule:nonzero;fill:rgb(100%,100%,100%);fill-opacity:1;" d="M 6.5 3 L 7.164062 3 C 7.40625 3 7.613281 3.171875 7.65625 3.410156 L 8 5.296875 L 8 6.5 L 5 6.5 L 5 5 C 5.277344 5 5.5 4.777344 5.5 4.5 C 5.5 4.222656 5.277344 4 5 4 L 3 4 C 2.722656 4 2.5 4.222656 2.5 4.5 C 2.5 4.777344 2.722656 5 3 5 C 1.894531 5 1 5.894531 1 7 L 1 7.5 L 11 7.5 L 11 6.800781 C 11 5.804688 10.195312 5 9.199219 5 C 9.121094 5 9.042969 5.007812 8.96875 5.023438 L 8.769531 3.945312 C 8.839844 3.980469 8.917969 4 9 4 L 9.5 4 L 9.5 3 L 9 3 C 8.851562 3 8.71875 3.0625 8.628906 3.167969 C 8.472656 2.488281 7.867188 2 7.164062 2 L 6.5 2 Z M 6.5 3 "/>
</g>
</svg>
