<svg width="48" height="48" viewBox="0 0 48 48" fill="none" xmlns="http://www.w3.org/2000/svg">
<path d="M12.9752 37.1317H42.8063C42.8063 37.1317 39.4789 41.801 36.5538 42.534C35.0499 42.9109 33.2275 41.3413 31.6789 41.3084C30.2001 41.2768 28.3589 42.8511 26.8803 42.8138C25.1859 42.7712 23.1024 41.057 21.5318 41.0788C19.6195 41.1053 18.535 42.3573 17.1375 42.4587C15.5628 42.5729 13.4487 42.3403 13.4487 42.3403L12.9752 37.1317Z" fill="#ffffff"/>
<path d="M23.2741 5.18552V35.6544H5.19373L23.2741 5.18552Z" fill="#ffffff"/>
<path d="M24.7808 11.0449C31.3977 16.6299 41.298 36.308 38.3412 35.3196C32.2481 33.2828 24.6134 35.8217 24.6134 35.8217C24.6134 35.8217 24.7921 16.209 24.7808 11.0449Z" fill="#ffffff"/>
</svg>
