<svg width="32" height="32" viewBox="0 0 16 16" fill="none" xmlns="http://www.w3.org/2000/svg">
<path d="M4.30859 3.89062C3.38881 3.89062 2.63086 4.65206 2.63086 5.57031V10.3867C2.63086 11.305 3.38881 12.0664 4.30859 12.0664H11.6895C12.6092 12.0664 13.3672 11.305 13.3672 10.3867V5.57031C13.3672 4.65206 12.6092 3.89062 11.6895 3.89062H4.30859V3.89062Z" fill="#FEFEFE"/>
<path d="M11.8172 4.61008H9.79668L6.61536 6.85472H9.57958L11.8881 9.1525L9.6594 11.3927H11.8172C12.3268 11.3927 12.6989 10.888 12.6989 10.5294V5.47781C12.6989 5.11475 12.3267 4.61008 11.8172 4.61008Z" fill="#F14728"/>
<path d="M4.17834 11.3927H6.19442L9.37576 9.15692H6.41595L4.09859 6.85472L6.34062 4.61008H4.17834C3.66436 4.61008 3.30103 5.11475 3.30103 5.48223V10.5338C3.30105 10.888 3.66436 11.3927 4.17834 11.3927V11.3927Z" fill="#1F4FA3"/>
<path d="M7.12492 7.06723H6.84131L8.57822 8.80267C8.658 8.86916 8.71999 8.94882 8.85737 8.93999H9.15426L7.40848 7.2089C7.32874 7.12035 7.27112 7.06723 7.12492 7.06723Z" fill="#F14728"/>
</svg>
