<?xml version="1.0" encoding="UTF-8"?>
<svg xmlns="http://www.w3.org/2000/svg" xmlns:xlink="http://www.w3.org/1999/xlink" width="12" height="12" viewBox="0 0 12 12" version="1.1">
<g id="surface1">
<path style=" stroke:none;fill-rule:nonzero;fill:rgb(100%,100%,100%);fill-opacity:1;" d="M 9.066406 7.425781 L 1.59375 7.425781 L 1.59375 8.75 L 9.066406 8.75 Z M 9.066406 7.425781 "/>
<path style=" stroke:none;fill-rule:nonzero;fill:rgb(100%,100%,100%);fill-opacity:1;" d="M 9.796875 7.429688 L 9.417969 7.429688 L 9.417969 8.75 L 9.796875 8.75 Z M 9.796875 7.429688 "/>
<path style=" stroke:none;fill-rule:nonzero;fill:rgb(100%,100%,100%);fill-opacity:1;" d="M 10.5 7.429688 L 10.125 7.429688 L 10.125 8.75 L 10.5 8.75 Z M 10.5 7.429688 "/>
<path style=" stroke:none;fill-rule:nonzero;fill:rgb(100%,100%,100%);fill-opacity:1;" d="M 7.511719 5.695312 C 6.941406 5.695312 6.480469 5.234375 6.480469 4.664062 C 6.480469 4.554688 6.496094 4.453125 6.527344 4.355469 C 5.824219 4.34375 5.257812 3.765625 5.257812 3.058594 C 5.257812 2.34375 5.828125 1.769531 6.539062 1.757812 L 6.539062 2.132812 C 6.035156 2.140625 5.628906 2.550781 5.628906 3.058594 C 5.628906 3.566406 6.042969 3.980469 6.550781 3.980469 C 6.617188 3.980469 6.675781 3.972656 6.738281 3.960938 C 6.753906 3.957031 6.773438 3.953125 6.789062 3.953125 C 6.910156 3.953125 7.007812 4.054688 7.007812 4.171875 C 7.007812 4.21875 6.992188 4.257812 6.96875 4.296875 C 6.898438 4.402344 6.855469 4.527344 6.855469 4.664062 C 6.855469 5.023438 7.148438 5.320312 7.511719 5.320312 L 8.867188 5.320312 C 9.378906 5.320312 9.792969 5.734375 9.792969 6.246094 L 9.796875 6.984375 L 9.417969 6.984375 L 9.417969 6.246094 C 9.417969 5.941406 9.171875 5.695312 8.867188 5.695312 Z M 7.511719 5.695312 "/>
<path style=" stroke:none;fill-rule:nonzero;fill:rgb(100%,100%,100%);fill-opacity:1;" d="M 7.8125 4.261719 C 7.949219 4.082031 8.03125 3.859375 8.03125 3.613281 C 8.03125 3.023438 7.554688 2.546875 6.964844 2.546875 L 6.882812 2.546875 L 6.882812 2.167969 L 6.964844 2.167969 C 7.761719 2.167969 8.410156 2.816406 8.410156 3.613281 C 8.410156 3.828125 8.363281 4.03125 8.277344 4.214844 L 8.542969 4.210938 C 9.625 4.210938 10.5 5.089844 10.5 6.167969 L 10.5 6.984375 L 10.125 6.984375 L 10.125 6.167969 C 10.125 5.296875 9.417969 4.585938 8.542969 4.585938 L 7.988281 4.585938 C 7.875 4.585938 7.777344 4.492188 7.777344 4.375 C 7.777344 4.332031 7.792969 4.296875 7.8125 4.261719 Z M 7.8125 4.261719 "/>
</g>
</svg>
