<?xml version="1.0" encoding="UTF-8"?>
<svg xmlns="http://www.w3.org/2000/svg" xmlns:xlink="http://www.w3.org/1999/xlink" width="12" height="12" viewBox="0 0 12 12" version="1.1">
<g id="surface1">
<path style=" stroke:none;fill-rule:nonzero;fill:rgb(100%,100%,100%);fill-opacity:1;" d="M 3.847656 0.691406 C 2.097656 0.691406 0.679688 2.109375 0.679688 3.859375 C 0.679688 5.605469 2.097656 7.023438 3.847656 7.023438 C 5.59375 7.023438 7.011719 5.605469 7.011719 3.859375 C 7.011719 2.109375 5.59375 0.691406 3.847656 0.691406 Z M 3.847656 1.179688 C 5.324219 1.179688 6.527344 2.378906 6.527344 3.859375 C 6.527344 5.335938 5.324219 6.539062 3.847656 6.539062 C 2.367188 6.539062 1.167969 5.335938 1.167969 3.859375 C 1.167969 2.378906 2.367188 1.179688 3.847656 1.179688 Z M 3.847656 1.636719 C 2.621094 1.636719 1.625 2.632812 1.625 3.859375 C 1.625 5.082031 2.621094 6.078125 3.847656 6.078125 C 5.070312 6.078125 6.066406 5.082031 6.066406 3.859375 C 6.066406 2.632812 5.070312 1.636719 3.847656 1.636719 Z M 3.117188 2.640625 C 3.382812 2.640625 3.601562 2.859375 3.601562 3.125 C 3.601562 3.394531 3.382812 3.613281 3.117188 3.613281 C 2.847656 3.613281 2.628906 3.394531 2.628906 3.125 C 2.628906 2.859375 2.847656 2.640625 3.117188 2.640625 Z M 4.578125 2.640625 C 4.847656 2.640625 5.066406 2.859375 5.066406 3.125 C 5.066406 3.394531 4.847656 3.613281 4.578125 3.613281 C 4.308594 3.613281 4.089844 3.394531 4.089844 3.125 C 4.089844 2.859375 4.308594 2.640625 4.578125 2.640625 Z M 3.117188 4.101562 C 3.382812 4.101562 3.601562 4.320312 3.601562 4.589844 C 3.601562 4.855469 3.382812 5.074219 3.117188 5.074219 C 2.847656 5.074219 2.628906 4.855469 2.628906 4.589844 C 2.628906 4.320312 2.847656 4.101562 3.117188 4.101562 Z M 4.578125 4.101562 C 4.847656 4.101562 5.066406 4.320312 5.066406 4.589844 C 5.066406 4.855469 4.847656 5.074219 4.578125 5.074219 C 4.308594 5.074219 4.089844 4.855469 4.089844 4.589844 C 4.089844 4.320312 4.308594 4.101562 4.578125 4.101562 Z M 4.578125 4.101562 "/>
<path style=" stroke:none;fill-rule:nonzero;fill:rgb(100%,100%,100%);fill-opacity:1;" d="M 7.902344 4.074219 C 7.824219 4.074219 7.757812 4.140625 7.757812 4.21875 C 7.757812 4.300781 7.75 4.480469 7.832031 4.480469 C 8.546875 4.480469 9.074219 4.628906 9.433594 4.8125 C 9.503906 4.714844 9.628906 4.546875 9.683594 4.488281 C 9.289062 4.273438 8.707031 4.074219 7.902344 4.074219 Z M 9.683594 4.488281 C 9.628906 4.546875 9.488281 4.71875 9.421875 4.8125 C 9.308594 4.964844 9.265625 5.054688 9.136719 5.25 C 8.902344 5.597656 8.65625 5.957031 8.503906 6.117188 C 7.839844 6.820312 6.933594 7.796875 6.269531 8.507812 C 5.796875 9.015625 5.425781 9.421875 5.367188 9.476562 C 5.320312 9.523438 4.964844 9.914062 4.625 10.304688 C 3.90625 11.136719 3.90625 11.199219 4.015625 11.3125 L 4.066406 11.355469 L 4.125 11.355469 C 4.355469 11.355469 5.835938 9.972656 5.851562 9.960938 C 5.910156 9.902344 6.316406 9.527344 6.828125 9.050781 C 7.539062 8.386719 8.511719 7.480469 9.210938 6.820312 C 9.367188 6.667969 9.722656 6.429688 10.066406 6.199219 C 10.410156 5.96875 10.738281 5.746094 10.875 5.609375 C 11.042969 5.441406 11.171875 5.226562 11.226562 5.015625 C 11.296875 4.734375 11.230469 4.476562 11.039062 4.285156 C 10.902344 4.144531 10.722656 4.074219 10.527344 4.074219 C 10.207031 4.074219 9.898438 4.265625 9.71875 4.449219 C 9.707031 4.457031 9.695312 4.476562 9.683594 4.488281 Z M 10.382812 4.679688 C 10.449219 4.679688 10.582031 4.691406 10.625 4.734375 C 10.742188 4.847656 10.652344 5.203125 10.488281 5.367188 C 10.320312 5.53125 9.988281 5.59375 9.875 5.480469 C 9.738281 5.335938 9.816406 5.117188 9.828125 5.0625 C 9.867188 5.085938 10.101562 5.332031 10.140625 5.332031 C 10.171875 5.332031 10.296875 5.25 10.324219 5.230469 C 10.386719 5.179688 10.394531 5.066406 10.347656 5.003906 C 10.339844 4.992188 10.230469 4.882812 10.097656 4.769531 C 10.175781 4.714844 10.308594 4.679688 10.382812 4.679688 Z M 10.902344 5.96875 C 10.828125 6.027344 10.566406 6.179688 10.472656 6.246094 C 10.484375 6.324219 10.496094 6.410156 10.496094 6.5 C 10.496094 7.117188 10.1875 7.304688 9.71875 7.765625 C 9.234375 8.242188 8.609375 8.828125 8.609375 9.546875 C 8.609375 10.925781 9.960938 11.441406 11.023438 11.441406 C 11.105469 11.441406 11.253906 11.355469 11.253906 11.273438 C 11.253906 11.191406 11.1875 11.066406 11.105469 11.066406 C 11.023438 11.066406 9.066406 11.050781 9.066406 9.609375 C 9.066406 9.011719 9.503906 8.582031 9.964844 8.128906 C 10.457031 7.648438 10.960938 7.148438 10.960938 6.40625 C 10.960938 6.242188 10.933594 6.09375 10.902344 5.96875 Z M 10.902344 5.96875 "/>
</g>
</svg>
