<svg width="12" height="12" viewBox="0 0 580 580" fill="none" xmlns="http://www.w3.org/2000/svg">
<path d="M208.328 125.483C168.494 125.484 129.55 143.222 105.349 174.369C105.337 174.393 105.325 174.418 105.313 174.442C81.1958 205.634 71.3164 245.741 71.3164 290.074C71.3164 334.319 81.2118 374.387 105.313 405.558C105.325 405.582 105.337 405.607 105.349 405.631C129.55 436.779 168.494 454.517 208.328 454.517C241.476 454.517 273.849 442.094 297.738 420.044C300.434 428.713 305.832 436.293 313.142 441.677C320.453 447.061 329.293 449.966 338.372 449.969H385.681C391.272 449.971 396.809 448.87 401.976 446.731C407.142 444.591 411.836 441.455 415.79 437.501C419.744 433.547 422.88 428.853 425.02 423.687C427.159 418.521 428.259 412.983 428.258 407.392V350.291H461.301C466.893 350.292 472.43 349.192 477.596 347.053C482.763 344.913 487.457 341.777 491.411 337.823C495.365 333.869 498.501 329.175 500.64 324.009C502.779 318.842 503.88 313.305 503.879 307.713V261.908C503.851 255.721 502.474 249.613 499.845 244.012C505.559 236.589 508.666 227.488 508.683 218.12V172.315C508.684 166.724 507.584 161.186 505.444 156.02C503.305 150.854 500.169 146.16 496.215 142.206C492.261 138.252 487.567 135.116 482.4 132.976C477.234 130.837 471.697 129.736 466.105 129.738H338.372C329.254 129.75 320.381 132.689 313.06 138.122C305.738 143.556 300.354 151.197 297.701 159.92C273.816 137.892 241.458 125.484 208.328 125.483ZM208.365 263.009C209.95 269.259 211.335 278.026 211.335 290.074C211.335 302.097 209.957 310.834 208.365 317.065C206.762 310.829 205.394 302.082 205.394 290.074C205.394 278.039 206.769 269.263 208.365 263.009Z" fill="#FEFEFE" fill-opacity="0.788732"/>
<path d="M208.315 211.985C193.891 211.985 182.705 218.808 174.755 232.453C166.806 246.099 162.831 265.307 162.831 290.079C162.831 314.745 166.806 333.901 174.755 347.547C182.705 361.192 193.891 368.015 208.315 368.015C222.82 368.015 234.047 361.192 241.997 347.547C249.946 333.901 253.921 314.745 253.921 290.079C253.921 265.307 249.946 246.099 241.997 232.453C234.047 218.808 222.82 211.985 208.315 211.985V211.985ZM208.315 168.058C237.817 168.058 260.927 178.869 277.646 200.492C294.364 222.114 302.723 251.977 302.723 290.079C302.723 328.076 294.364 357.886 277.646 379.508C260.927 401.131 237.817 411.942 208.315 411.942C178.894 411.942 155.784 401.131 138.983 379.508C122.265 357.886 113.906 328.076 113.906 290.079C113.906 251.977 122.265 222.114 138.983 200.492C155.784 178.869 178.894 168.058 208.315 168.058" fill="#6C003D"/>
<path d="M338.372 172.309H466.094V218.125H385.699V261.896H461.3V307.713H385.699V407.376H338.372V172.309" fill="#6C003D"/>
</svg>
