<svg width="12" height="12" viewBox="0 0 580 580" fill="none" xmlns="http://www.w3.org/2000/svg">
<path d="M215.854 110.63C168.914 110.63 122.958 127.988 91.7901 161.759L91.7484 161.718C91.7143 161.754 91.6989 161.806 91.6648 161.843C60.4768 195.611 46.2583 241.758 46.2583 290.084C46.2583 338.382 60.5146 384.503 91.6648 418.325C91.6926 418.367 91.7205 418.409 91.7484 418.45C122.951 452.168 168.922 469.371 215.854 469.371C232.342 469.371 248.721 467.252 264.519 462.896C274.488 460.147 284.187 456.469 293.551 452.077C303.185 460.191 315.375 464.643 327.971 464.65H480.273C494.452 464.646 508.05 459.012 518.077 448.985C528.103 438.959 533.738 425.361 533.742 411.182V363.896C533.738 349.716 528.103 336.118 518.077 326.092C508.05 316.066 494.452 310.431 480.273 310.427H436.704V168.485C436.7 154.305 431.066 140.707 421.039 130.681C411.013 120.655 397.415 115.02 383.236 115.016H327.971C315.248 115.012 302.94 119.544 293.258 127.798C283.984 123.468 274.385 119.825 264.519 117.105C248.722 112.749 232.341 110.63 215.854 110.63L215.854 110.63ZM216.188 262.598C216.241 262.622 216.909 262.932 220.324 262.932C225.386 262.932 229.242 263.704 233.148 265.146C233.16 265.15 233.177 265.142 233.189 265.146C237.101 266.598 242.572 269.461 249.314 274.67C256.653 280.314 265.333 283.955 274.502 285.238V294.762C265.333 296.046 256.653 299.687 249.314 305.331C242.556 310.552 237.06 313.406 233.148 314.855C229.229 316.306 225.401 317.069 220.324 317.069C213.495 317.069 217.637 318.347 215.77 315.983C213.908 313.624 210.34 307.106 210.34 290.084C210.34 272.919 213.952 266.322 215.77 264.018C216.703 262.836 216.135 262.573 216.188 262.598H216.188Z" fill="#FEFEFE" fill-opacity="0.788732"/>
<path d="M282.034 397.859C271.89 403.82 261.316 408.317 250.312 411.352C239.307 414.386 227.824 415.903 215.863 415.903C180.169 415.903 151.892 404.633 131.032 382.091C110.171 359.44 99.7402 328.771 99.7402 290.081C99.7402 251.283 110.171 220.613 131.032 198.071C151.892 175.421 180.169 164.096 215.863 164.096C227.824 164.096 239.307 165.613 250.312 168.647C261.316 171.682 271.89 176.18 282.034 182.14V232.372C271.795 224.46 261.699 218.662 251.747 214.977C241.795 211.293 231.317 209.451 220.312 209.45C200.6 209.451 185.098 216.603 173.806 230.908C162.514 245.214 156.868 264.938 156.868 290.081C156.868 315.115 162.514 334.785 173.806 349.091C185.098 363.396 200.6 370.549 220.312 370.549C231.317 370.549 241.795 368.706 251.747 365.022C261.699 361.337 271.795 355.539 282.034 347.628V397.859Z" fill="#6C003D"/>
<path d="M327.966 168.484H383.228V363.883H480.26V411.189H327.966V168.484" fill="#6C003D"/>
</svg>
