<svg width="12" height="12" viewBox="0 0 48 48" fill="none" xmlns="http://www.w3.org/2000/svg">
<path opacity="0.75" fill-rule="evenodd" clip-rule="evenodd" d="M26 16C26 14.8954 26.8954 14 28 14H32.3995L39.0854 18.3202L36.9146 21.6798L31.2196 18H28C26.8954 18 26 17.1046 26 16Z" fill="#3f3f3f"/>
<path fill-rule="evenodd" clip-rule="evenodd" d="M30 10C28.8954 10 28 10.8954 28 12C28 13.1046 28.8954 14 30 14H33L36.8571 19.1429L36 20H20L16 16H12C7.58172 16 4 19.5817 4 24V28H4.34141C4.12031 28.6256 4 29.2987 4 30C4 33.3137 6.68629 36 10 36H17.0435C20.8855 36 24 32.8855 24 29.0435V28H32.9505L35.7124 32H30C28.8954 32 28 32.8954 28 34C28 35.1046 28.8954 36 30 36H40.0917L47.051 31.7016C47.9908 31.1212 48.282 29.8888 47.7016 28.949C47.1212 28.0092 45.8888 27.718 44.949 28.2984L40.0898 31.2997L37.8114 28H38C41.3137 28 44 25.3137 44 22V21.755C44 19.4537 42.6998 17.3499 40.6414 16.3207C40.2864 16.1432 39.9006 16.0373 39.5062 16.0082L35 10H30ZM10 28H20V29.0435C20 30.6763 18.6763 32 17.0435 32H10C8.89543 32 8 31.1046 8 30C8 28.8954 8.89543 28 10 28Z" fill="#3f3f3f"/>
</svg>
