<svg width="32" height="32" viewBox="0 0 16 16" fill="none" xmlns="http://www.w3.org/2000/svg">
<path d="M10.5355 3.78226L7.86275 3.83183C7.65746 3.83621 7.45625 3.94792 7.34362 4.11963L6.57387 5.29146C6.35339 5.62699 6.15439 5.9564 6.00379 6.23059C5.92852 6.36763 5.86751 6.48742 5.81652 6.601C5.79987 6.63808 5.76625 6.7791 5.73803 6.90945C5.72972 6.9485 5.709 6.98381 5.67897 7.01012C5.64894 7.03643 5.61121 7.05232 5.57141 7.05541C5.51915 7.05922 5.45493 7.05905 5.39102 7.05955C5.32711 7.06004 5.26093 7.06232 5.24781 7.06368C4.75482 7.11477 4.30972 7.31739 4.10214 7.52498C3.64305 7.98407 3.25937 8.69755 2.85457 9.47344C2.65385 9.85816 2.47479 10.2322 2.34507 10.5503C2.27969 10.7106 2.22791 10.8508 2.18947 10.9923C2.1575 11.1099 2.12062 11.1511 2.11098 11.2099C2.10134 11.2687 2.10303 11.3724 2.18809 11.594C2.26255 11.788 2.52875 12.0234 2.69346 12.0898C2.89224 12.1699 3.05456 12.189 3.28006 12.2082C3.72142 12.2458 4.34804 12.243 5.38964 12.222L7.88341 12.171C8.07508 12.1672 8.26369 12.0707 8.37913 11.9176L9.24114 10.7747C9.48981 10.4453 9.7134 10.1189 9.8842 9.84111C9.96978 9.70192 10.0393 9.57837 10.0976 9.45967C10.1128 9.42889 10.1503 9.27351 10.1844 9.13883C10.1946 9.09908 10.2177 9.06384 10.2501 9.03867C10.2825 9.01349 10.3224 8.9998 10.3634 8.99975H11.0574C11.2689 8.99979 11.4771 8.88559 11.5917 8.70783L12.6713 7.03201C12.9763 6.55839 13.2527 6.09273 13.4589 5.71145C13.5621 5.52066 13.6464 5.35285 13.7123 5.20471C13.8025 5.00201 13.8518 5.08403 13.8541 4.69384C13.8544 4.64983 13.8306 4.49999 13.7743 4.35923C13.7179 4.21847 13.6292 4.08095 13.525 4.00396C13.2694 3.81503 13.1123 3.8179 12.8696 3.79328C12.4192 3.74759 11.7695 3.75914 10.5369 3.78226C10.5364 3.78226 10.536 3.78226 10.5355 3.78226H10.5355Z" fill="#FEFEFE"/>
<path d="M2.78113 11.3661C2.66965 11.0756 4.00121 8.52333 4.55119 7.97336C4.84797 7.67658 5.2088 7.63929 7.78441 7.63929C9.37894 7.63929 10.6836 7.59305 10.6836 7.53653C10.6836 7.48001 10.4186 7.17358 10.0947 6.85558C9.77078 6.53758 9.40866 6.11497 9.28995 5.91646C9.10912 5.61408 9.07237 5.60471 9.06345 5.85872C9.0576 6.02548 9.26389 6.41279 9.52189 6.71941L9.99099 7.2769H8.16291C6.79655 7.2769 6.33483 7.21821 6.33483 7.04452C6.33483 6.91671 6.68137 6.28478 7.10492 5.64024L7.87501 4.46834L10.5477 4.4182C13.0071 4.37206 13.2202 4.39374 13.2182 4.68999C13.2171 4.86706 12.7302 5.76617 12.1365 6.68801L11.0569 8.36408H8.13715C6.53131 8.36408 5.24463 8.43576 5.27785 8.52336C5.40079 8.84757 6.72896 10.2047 6.82718 10.1065C6.88316 10.0505 6.70959 9.71712 6.44147 9.3656L5.954 8.72648H7.77518C9.24085 8.72648 9.59638 8.7775 9.59638 8.98782C9.59638 9.13156 9.20812 9.76349 8.73357 10.3921L7.87076 11.535L5.3777 11.5855C3.30479 11.6274 2.86721 11.5904 2.78113 11.3661V11.3661Z" fill="#AB2A33"/>
</svg>
