<svg width="32" height="32" viewBox="0 0 16 16" fill="none" xmlns="http://www.w3.org/2000/svg">
<path d="M3.5989 3.84021C2.96025 3.84021 2.42297 4.37292 2.42297 5.01422V10.9858C2.42297 11.6271 2.96025 12.1598 3.5989 12.1598H12.4011C13.0397 12.1598 13.577 11.6271 13.577 10.9858V5.01422C13.577 4.37292 13.0397 3.84021 12.4011 3.84021H3.5989V3.84021Z" fill="#091060"/>
<path d="M12.4889 4.39816H3.5111C3.20301 4.39816 2.95325 4.64792 2.95325 4.95602V11.044C2.95325 11.3521 3.20301 11.6018 3.5111 11.6018H12.4889C12.797 11.6018 13.0467 11.3521 13.0467 11.044V4.95602C13.0467 4.64792 12.797 4.39816 12.4889 4.39816Z" fill="#FEFEFE"/>
<path d="M9.76412 7.00467C9.19555 7.0045 8.98282 7.03531 8.52997 7.24804C8.27288 7.36881 8.14621 7.44597 8.13826 7.52454L7.91217 9.75378L8.22611 10.0548L8.44212 10.1916C8.82349 10.434 9.20895 10.5219 9.80012 10.5012C10.246 10.4855 10.3567 10.4648 10.6022 10.3529C10.7441 10.2882 10.8586 10.2661 10.8586 10.3298L10.8672 10.4969H11.593H12.2266L12.218 8.71261V7.00467H11.642H10.8586V7.21204C10.4378 7.02906 10.2516 7.00482 9.76412 7.00467ZM9.76842 7.71895C9.90149 7.7163 10.033 7.74602 10.1702 7.80824C10.5222 7.96783 10.7182 8.21914 10.7866 8.59596C10.857 8.98431 10.5807 9.47763 10.1947 9.65298C9.58919 9.92801 8.89274 9.54059 8.7647 8.85805C8.69342 8.4781 8.96245 8.00691 9.35513 7.82408C9.50085 7.75623 9.63536 7.7216 9.76843 7.71895H9.76842Z" fill="#0083D2"/>
<path d="M3.77338 5.44073V7.87159L3.78202 10.4969H4.36957H5.19906L5.18178 10.2549C5.23323 10.1196 5.21675 10.2671 5.40211 10.3629C5.47667 10.4015 5.76018 10.4615 5.90614 10.4969C6.5605 10.6554 7.31403 10.4995 7.92945 10.1685C8.47865 9.87315 8.67793 9.37344 8.70421 8.7054C8.71969 8.31218 8.59772 8.18584 8.5098 7.95224C8.32118 7.45107 7.72356 7.09455 7.03372 6.93266C6.63299 6.83861 5.98438 6.87564 5.68148 6.99026C5.53181 7.0469 5.34339 7.15525 5.19042 7.20195V6.27454V5.44073H4.39549H3.77338ZM6.40873 7.72326C6.72559 7.69827 7.06627 7.81284 7.3275 8.10345C7.68753 8.50396 7.50662 9.29587 7.0078 9.58817C6.34706 9.92525 5.61028 9.58387 5.50723 8.83213C5.41955 8.19242 5.88061 7.76492 6.40873 7.72326Z" fill="black"/>
</svg>
