<?xml version="1.0" encoding="UTF-8"?>
<svg xmlns="http://www.w3.org/2000/svg" xmlns:xlink="http://www.w3.org/1999/xlink" width="32" height="32" viewBox="0 0 32 32">
<path fill-rule="evenodd" fill="rgb(100%, 100%, 100%)" fill-opacity="1" d="M 8.226562 8 C 8.082031 7.582031 8 7.132812 8 6.667969 C 8 4.457031 9.789062 2.667969 12 2.667969 C 14.210938 2.667969 16 4.457031 16 6.667969 C 16 4.457031 17.789062 2.667969 20 2.667969 C 22.210938 2.667969 24 4.457031 24 6.667969 C 24 7.132812 23.917969 7.582031 23.773438 8 L 24 8 C 25.472656 8 26.667969 9.195312 26.667969 10.667969 L 26.667969 24 C 26.667969 25.472656 25.472656 26.667969 24 26.667969 L 8 26.667969 C 6.527344 26.667969 5.332031 25.472656 5.332031 24 L 5.332031 10.667969 C 5.332031 9.195312 6.527344 8 8 8 Z M 13.332031 6.667969 L 13.332031 7.878906 L 13.183594 8 L 12 8 C 11.261719 8 10.667969 7.402344 10.667969 6.667969 C 10.667969 5.929688 11.261719 5.332031 12 5.332031 C 12.738281 5.332031 13.332031 5.929688 13.332031 6.667969 Z M 18.449219 10.667969 L 21.03125 13.824219 C 21.5 14.390625 21.414062 15.230469 20.84375 15.699219 C 20.273438 16.164062 19.433594 16.082031 18.96875 15.511719 L 16 11.882812 L 13.03125 15.511719 C 12.566406 16.082031 11.726562 16.164062 11.15625 15.699219 C 10.585938 15.230469 10.5 14.390625 10.96875 13.824219 L 13.550781 10.667969 L 8 10.667969 L 8 24 L 24 24 L 24 10.667969 Z M 20 8 C 20.738281 8 21.332031 7.402344 21.332031 6.667969 C 21.332031 5.929688 20.738281 5.332031 20 5.332031 C 19.261719 5.332031 18.667969 5.929688 18.667969 6.667969 L 18.667969 7.878906 L 18.816406 8 Z M 20 8 "/>
</svg>
