<?xml version="1.0" encoding="UTF-8" standalone="no"?>
<svg
   width="32"
   height="32"
   fill="none"
   version="1.1"
   viewBox="0 0 580 580"
   id="svg78"
   sodipodi:docname="seamark_j22_coral.svg"
   inkscape:version="1.1.1 (3bf5ae0d25, 2021-09-20)"
   xmlns:inkscape="http://www.inkscape.org/namespaces/inkscape"
   xmlns:sodipodi="http://sodipodi.sourceforge.net/DTD/sodipodi-0.dtd"
   xmlns="http://www.w3.org/2000/svg"
   xmlns:svg="http://www.w3.org/2000/svg"
   xmlns:rdf="http://www.w3.org/1999/02/22-rdf-syntax-ns#"
   xmlns:cc="http://creativecommons.org/ns#"
   xmlns:dc="http://purl.org/dc/elements/1.1/">
  <defs
     id="defs82" />
  <sodipodi:namedview
     id="namedview80"
     pagecolor="#ffffff"
     bordercolor="#666666"
     borderopacity="1.0"
     inkscape:pageshadow="2"
     inkscape:pageopacity="0.0"
     inkscape:pagecheckerboard="0"
     showgrid="false"
     inkscape:zoom="1.5051724"
     inkscape:cx="290"
     inkscape:cy="290"
     inkscape:window-width="2560"
     inkscape:window-height="1377"
     inkscape:window-x="-8"
     inkscape:window-y="-8"
     inkscape:window-maximized="1"
     inkscape:current-layer="svg78" />
  <title
     id="title2">CORLDG06L</title>
  <desc
     id="desc4">coralledge</desc>
  <metadata
     id="metadata6">
    <!-- Created as line-style for Openseamap, CC BY-SA 2.0, 2021-10-27, josail, coralledge simplified SVG based on INT-1 J22 -->
    <rdf:RDF>
      <cc:Work
         rdf:about="">
        <dc:title>CORLDG06L</dc:title>
      </cc:Work>
    </rdf:RDF>
  </metadata>
  <g
     transform="matrix(0,2.41,-2.38,0,406.48422,0.8787805)"
     fill="none"
     stroke="#000000"
     stroke-linejoin="round"
     id="g76">
    <g
       stroke-width="6.83px"
       id="g22">
      <path
         d="M 32,17.6 10,57.1"
         id="path8" />
      <path
         d="m 9.97,57.1 v 22"
         id="path10" />
      <path
         d="m 9.97,79 13.2,8.74"
         id="path12" />
      <path
         d="M 23.2,87.9 32.01,66"
         id="path14" />
      <path
         d="M 32,66 45.2,92.4"
         id="path16" />
      <path
         d="M 45.1,92 V 70"
         id="path18" />
      <path
         d="M 45.1,70.1 62.7,87.7"
         id="path20" />
    </g>
    <path
       d="m 161,26.5 23.2,17.6"
       stroke-width="7.86px"
       id="path24" />
    <g
       stroke-width="6.83px"
       id="g32">
      <path
         d="M 62.7,87.9 58.26,26.5"
         id="path26" />
      <path
         d="M 80.6,26.4 76.16,48.3"
         id="path28" />
      <path
         d="m 75.8,48.4 h 22"
         id="path30" />
    </g>
    <path
       d="m 227,49.7 h 13.5"
       stroke-width="5.35px"
       id="path34" />
    <path
       d="m 0.0479,49.3 h 13.5"
       stroke-width="5.35px"
       id="path36" />
    <g
       stroke-width="6.83px"
       id="g46">
      <path
         d="M 97.7,48.4 93.26,76.9"
         id="path38" />
      <path
         d="M 93.6,77 137.5,22.1"
         id="path40" />
      <path
         d="M 107,77 128.9,66"
         id="path42" />
      <path
         d="m 57.6,47.8 21.9,-11"
         id="path44" />
    </g>
    <path
       d="M 128,65.6 119.26,88"
       stroke-width="6.9px"
       id="path48" />
    <g
       stroke-width="6.83px"
       id="g72">
      <path
         d="M 120,87.9 137.6,71.4"
         id="path50" />
      <path
         d="m 137,71.5 8.74,20.9"
         id="path52" />
      <path
         d="m 137,72.8 8.74,20.9"
         id="path54" />
      <path
         d="M 146,92 163.6,39.3"
         id="path56" />
      <path
         d="M 164,39.5 159.56,4.4"
         id="path58" />
      <path
         d="M 190,13.2 181.26,57"
         id="path60" />
      <path
         d="M 181,57.1 202.9,37.4"
         id="path62" />
      <path
         d="m 203,37.4 -8.81,34"
         id="path64" />
      <path
         d="m 195,71.5 17.6,-17"
         id="path66" />
      <path
         d="m 212,54.4 17.6,37.9"
         id="path68" />
      <path
         d="M 229,92 224.63,12.8"
         id="path70" />
    </g>
    <path
       d="M 107,77 V 60.5"
       stroke-width="5.91px"
       id="path74" />
  </g>
</svg>
