<svg width="32" height="32" viewBox="0 0 16 16" fill="none" xmlns="http://www.w3.org/2000/svg">
<path d="M5.78921 3.89893C5.39974 3.89761 5.02703 4.13088 4.92767 4.43813L2.8198 10.9641C2.75117 11.1767 2.80963 11.4142 2.97358 11.5887C3.13753 11.7633 3.40337 11.871 3.67289 11.8723L5.34222 11.8794C5.73421 11.8811 6.10919 11.6448 6.20633 11.335L6.24584 11.2089C6.26341 11.1529 6.30171 11.1028 6.35551 11.0652C6.40931 11.0276 6.476 11.0045 6.54648 10.999C6.61697 10.9935 6.68782 11.0059 6.74939 11.0344C6.81095 11.0629 6.86023 11.1063 6.89051 11.1585L7.19651 11.6867C7.33922 11.9329 7.66446 12.1011 7.99826 12.1011C8.33206 12.1012 8.65746 11.9333 8.80035 11.6872V11.6871L9.10881 11.1556C9.13913 11.1034 9.18843 11.0601 9.24999 11.0316C9.31156 11.0031 9.38239 10.9908 9.45285 10.9963C9.52331 11.0018 9.58997 11.0249 9.64374 11.0625C9.69752 11.1 9.7358 11.1502 9.75336 11.2062L9.79373 11.335C9.8909 11.6449 10.2659 11.8811 10.6579 11.8794L12.3271 11.8723C12.5967 11.8711 12.8625 11.7633 13.0265 11.5887C13.1904 11.4142 13.2489 11.1767 13.1803 10.9641L11.0724 4.43813C10.9812 4.15625 10.6625 3.93333 10.3072 3.90289C9.95182 3.87246 9.58331 4.03654 9.42241 4.29683L8.30666 6.10306C8.27796 6.1495 8.23401 6.18853 8.17972 6.21579C8.12543 6.24306 8.06293 6.25749 7.99918 6.25747C7.93543 6.25746 7.87293 6.243 7.81866 6.21571C7.76439 6.18842 7.72047 6.14937 7.6918 6.10291L6.57783 4.2972L6.57777 4.29711C6.43143 4.06013 6.1145 3.90007 5.78926 3.89893H5.78921L5.78921 3.89893Z" fill="#FEFEFE"/>
<path d="M12.3225 11.1485L10.2146 4.62247L7.99856 8.20989L5.78543 4.62247L3.67755 11.1485L5.3469 11.1557L6.23274 8.32916L7.99856 11.3775L9.76731 8.32916L10.6531 11.1557L12.3225 11.1485Z" fill="#007E37"/>
</svg>
