<?xml version="1.0" encoding="UTF-8"?>
<svg xmlns="http://www.w3.org/2000/svg" xmlns:xlink="http://www.w3.org/1999/xlink" width="32" height="32" viewBox="0 0 32 32">
<path fill-rule="nonzero" fill="rgb(100%, 100%, 100%)" fill-opacity="1" d="M 24.175781 19.804688 L 4.25 19.804688 L 4.25 23.328125 L 24.175781 23.328125 Z M 24.175781 19.804688 "/>
<path fill-rule="nonzero" fill="rgb(100%, 100%, 100%)" fill-opacity="1" d="M 26.121094 19.816406 L 25.113281 19.816406 L 25.113281 23.328125 L 26.121094 23.328125 Z M 26.121094 19.816406 "/>
<path fill-rule="nonzero" fill="rgb(100%, 100%, 100%)" fill-opacity="1" d="M 28 19.816406 L 26.996094 19.816406 L 26.996094 23.328125 L 28 23.328125 Z M 28 19.816406 "/>
<path fill-rule="nonzero" fill="rgb(100%, 100%, 100%)" fill-opacity="1" d="M 20.03125 15.183594 C 18.515625 15.183594 17.28125 13.953125 17.28125 12.4375 C 17.28125 12.148438 17.324219 11.875 17.40625 11.613281 C 15.527344 11.578125 14.015625 10.042969 14.015625 8.15625 C 14.015625 6.253906 15.539062 4.71875 17.433594 4.691406 L 17.433594 5.691406 C 16.089844 5.710938 15.007812 6.804688 15.007812 8.15625 C 15.007812 9.511719 16.117188 10.617188 17.472656 10.617188 C 17.648438 10.617188 17.808594 10.597656 17.964844 10.566406 C 18.011719 10.554688 18.058594 10.546875 18.105469 10.546875 C 18.425781 10.546875 18.6875 10.808594 18.6875 11.128906 C 18.6875 11.25 18.648438 11.359375 18.585938 11.457031 C 18.398438 11.738281 18.285156 12.074219 18.285156 12.4375 C 18.285156 13.398438 19.066406 14.183594 20.03125 14.183594 L 23.644531 14.183594 C 25.011719 14.183594 26.113281 15.292969 26.113281 16.65625 L 26.121094 18.628906 L 25.113281 18.628906 L 25.113281 16.65625 C 25.113281 15.84375 24.457031 15.1875 23.644531 15.1875 L 20.03125 15.1875 Z M 20.03125 15.183594 "/>
<path fill-rule="nonzero" fill="rgb(100%, 100%, 100%)" fill-opacity="1" d="M 20.832031 11.363281 C 21.203125 10.882812 21.421875 10.289062 21.421875 9.636719 C 21.421875 8.0625 20.148438 6.789062 18.574219 6.789062 L 18.351562 6.789062 L 18.351562 5.78125 L 18.574219 5.78125 C 20.699219 5.78125 22.425781 7.507812 22.425781 9.636719 C 22.425781 10.207031 22.300781 10.75 22.078125 11.234375 L 22.78125 11.226562 C 25.667969 11.226562 28.003906 13.570312 28.003906 16.453125 L 28.003906 18.628906 L 27 18.628906 L 27 16.453125 C 27 14.121094 25.113281 12.234375 22.78125 12.234375 L 21.308594 12.234375 C 21 12.234375 20.742188 11.976562 20.742188 11.664062 C 20.742188 11.550781 20.78125 11.453125 20.832031 11.363281 Z M 20.832031 11.363281 "/>
</svg>
