<svg width="32" height="32" viewBox="0 0 580 580" fill="none" xmlns="http://www.w3.org/2000/svg">
<g clip-path="url(#clip0)">
<path opacity="0.43913" d="M337.281 -2.2179C335.348 -2.24076 333.437 -1.80034 331.708 -0.933455C329.98 -0.0665727 328.484 1.20157 327.346 2.76492C326.208 4.32827 325.46 6.14139 325.167 8.05266C324.873 9.96392 325.041 11.9178 325.656 13.7508L353.906 98.2821L291.188 163.501C289.689 165.056 288.633 166.983 288.13 169.084C287.627 171.184 287.694 173.38 288.325 175.446C288.956 177.511 290.128 179.37 291.719 180.831C293.31 182.291 295.263 183.299 297.375 183.751L333.75 191.563L258 517.095C257.637 518.648 257.585 520.258 257.846 521.832C258.107 523.406 258.676 524.912 259.521 526.265C260.366 527.618 261.47 528.791 262.77 529.717C264.069 530.642 265.539 531.301 267.094 531.657L290.719 537.063C292.287 537.418 293.911 537.457 295.495 537.178C297.078 536.899 298.591 536.307 299.943 535.438C301.296 534.568 302.462 533.437 303.373 532.112C304.284 530.787 304.922 529.294 305.25 527.72L373.469 200.126L406.563 207.22C408.653 207.669 410.824 207.557 412.857 206.895C414.89 206.234 416.711 205.046 418.136 203.453C419.561 201.859 420.539 199.917 420.971 197.823C421.403 195.73 421.273 193.559 420.594 191.532L392.313 106.97L455.031 41.7508C456.53 40.1958 457.586 38.2684 458.089 36.1681C458.593 34.0679 458.525 31.8713 457.894 29.8058C457.263 27.7404 456.091 25.8813 454.5 24.421C452.909 22.9608 450.956 21.9526 448.844 21.5008L339.688 -1.93665C338.897 -2.11058 338.091 -2.2048 337.281 -2.2179V-2.2179Z" fill="#ACD8F3"/>
<path d="M299.826 171.851L409.005 195.306L375.011 93.6621" fill="black"/>
<path d="M446.246 33.2931L337.067 9.83789L371.061 111.482" fill="black"/>
<path d="M364.824 110.852L269.718 519.774L293.34 525.198L378.918 114.104L364.824 110.852Z" fill="black"/>
</g>
<defs>
<clipPath id="clip0">
<path d="M0 0H580V580H0V0Z" fill="white"/>
</clipPath>
</defs>
</svg>
