<svg width="32" height="32" viewBox="0 0 580 580" fill="none" xmlns="http://www.w3.org/2000/svg">
<g clip-path="url(#clip0)">
<path opacity="0.426087" d="M316.062 189.937C311.983 189.853 307.972 191 304.555 193.23C301.137 195.46 298.472 198.669 296.906 202.437L221.719 383.844L215.531 391.781C215.5 391.823 215.469 391.864 215.438 391.906L215.188 392.25C215.146 392.302 215.104 392.354 215.063 392.406L145 483.75H99.7188C94.3403 483.751 89.1825 485.889 85.3794 489.692C81.5762 493.495 79.439 498.653 79.4375 504.031V529.031C79.439 534.41 81.5762 539.568 85.3794 543.371C89.1825 547.174 94.3403 549.311 99.7188 549.312H228.062C228.086 549.352 228.101 549.398 228.125 549.438H228.094C228.148 549.535 228.226 549.622 228.281 549.719C228.397 549.908 228.476 550.125 228.594 550.312L228.625 550.281C232.382 556.717 237.696 562.742 244.344 567.469L244.313 567.5C244.391 567.559 244.484 567.597 244.563 567.656C244.758 567.794 244.927 567.958 245.125 568.094L245.156 568.031C255.755 575.816 268.898 580.531 282.969 580.531C296.237 580.531 308.692 576.35 318.938 569.375L318.969 569.406C319.101 569.321 319.212 569.211 319.344 569.125C319.431 569.064 319.537 569.03 319.625 568.969V568.938C327.281 563.856 333.265 556.985 337.844 549.312H455.094C460.472 549.311 465.63 547.174 469.433 543.371C473.236 539.568 475.374 534.41 475.375 529.031V504.031C475.374 498.653 473.236 493.495 469.433 489.692C465.63 485.889 460.472 483.751 455.094 483.75H402.844L390.344 424.844L389.688 421.719C389.759 420.382 389.829 419.014 389.906 417.625C389.908 417.583 389.904 417.542 389.906 417.5L399.812 255.844L401.625 226.25C401.707 224.756 401.623 223.257 401.375 221.781C401.272 221.119 401.137 220.462 400.969 219.812C400.793 219.157 400.584 218.51 400.344 217.875C400.132 217.281 399.892 216.697 399.625 216.125C399.604 216.083 399.583 216.042 399.562 216C399.321 215.521 399.06 215.052 398.781 214.594C398.709 214.478 398.637 214.364 398.562 214.25C398.278 213.79 397.976 213.342 397.656 212.906C397.625 212.875 397.594 212.844 397.563 212.813C397.273 212.437 396.971 212.073 396.656 211.719C396.564 211.593 396.47 211.468 396.375 211.344C396.282 211.239 396.189 211.134 396.094 211.031C395.723 210.641 395.338 210.266 394.938 209.906C393.427 208.544 391.721 207.417 389.875 206.563C388.565 205.949 387.192 205.478 385.781 205.156L320.094 190.438C318.77 190.136 317.42 189.969 316.063 189.938L316.062 189.937Z" fill="#8D8D8D"/>
<path opacity="0.928" d="M315.867 210.276L239.659 394.152L231.44 404.745L231.378 404.808L143.628 519.214L239.972 519.652C242.828 540.657 251.829 556.093 282.402 559.98C309.477 558.36 323.421 543.666 327.597 519.964L389.878 520.245L369.503 423.37C374.222 337.497 376.419 310.826 381.576 224.978L315.867 210.276Z" fill="#E80000"/>
<path d="M348.079 217.419L381.584 225.047L369.46 423.261L386.804 504.888L297.962 510.041L301.874 408.61L348.079 217.419Z" fill="#FEFEFE"/>
<path d="M99.9238 516.57H455.305" stroke="black" stroke-width="25"/>
<path d="M316.803 516.401C316.803 525.314 313.262 533.862 306.96 540.164C300.658 546.466 292.11 550.007 283.197 550.007C274.285 550.007 265.737 546.466 259.435 540.164C253.132 533.862 249.592 525.314 249.592 516.401C249.592 507.489 253.132 498.941 259.435 492.639C265.737 486.336 274.285 482.796 283.197 482.796C292.11 482.796 300.658 486.336 306.96 492.639C313.262 498.941 316.803 507.489 316.803 516.401V516.401Z" fill="#FEFEFE" stroke="black" stroke-width="20.5723" stroke-miterlimit="10" stroke-linecap="round" stroke-linejoin="round"/>
<path opacity="0.204" d="M360.783 220.347L381.584 225.047L369.46 423.261L386.804 504.888L336.363 504.512L325.221 413.219L360.783 220.347Z" fill="black"/>
</g>
<defs>
<clipPath id="clip0">
<path d="M0 0H580V580H0V0Z" fill="white"/>
</clipPath>
</defs>
</svg>
