<?xml version="1.0" encoding="UTF-8"?>
<svg xmlns="http://www.w3.org/2000/svg" xmlns:xlink="http://www.w3.org/1999/xlink" width="32" height="32" viewBox="0 0 32 32">
<path fill-rule="nonzero" fill="rgb(24.705882%, 24.705882%, 24.705882%)" fill-opacity="1" d="M 4.941406 3.058594 C 4.421875 2.535156 3.578125 2.535156 3.058594 3.058594 C 2.535156 3.578125 2.535156 4.421875 3.058594 4.941406 L 7.527344 9.414062 L 5.332031 16 L 5.332031 28 C 5.332031 28.738281 5.929688 29.332031 6.667969 29.332031 L 12 29.332031 C 12.738281 29.332031 13.332031 28.738281 13.332031 28 L 13.332031 18.667969 L 16.78125 18.667969 L 18.667969 20.550781 L 18.667969 28 C 18.667969 28.738281 19.261719 29.332031 20 29.332031 L 25.332031 29.332031 C 25.90625 29.332031 26.394531 28.972656 26.582031 28.46875 L 27.058594 28.941406 C 27.578125 29.464844 28.421875 29.464844 28.941406 28.941406 C 29.464844 28.421875 29.464844 27.578125 28.941406 27.058594 Z M 4.941406 3.058594 "/>
<path fill-rule="nonzero" fill="rgb(24.705882%, 24.705882%, 24.705882%)" fill-opacity="1" d="M 26.667969 16 L 26.667969 20.230469 L 17.105469 10.667969 L 18.667969 10.667969 L 18.667969 8 L 24 8 Z M 26.667969 16 "/>
<path fill-rule="nonzero" fill="rgb(24.705882%, 24.705882%, 24.705882%)" fill-opacity="1" d="M 12 5.332031 L 11.769531 5.332031 L 9.121094 2.683594 C 9.191406 2.671875 9.261719 2.667969 9.332031 2.667969 L 12 2.667969 C 12.738281 2.667969 13.332031 3.261719 13.332031 4 C 13.332031 4.738281 12.738281 5.332031 12 5.332031 Z M 12 5.332031 "/>
<path fill-rule="nonzero" fill="rgb(24.705882%, 24.705882%, 24.705882%)" fill-opacity="1" d="M 20 5.332031 L 22.667969 5.332031 C 23.402344 5.332031 24 4.738281 24 4 C 24 3.261719 23.402344 2.667969 22.667969 2.667969 L 20 2.667969 C 19.261719 2.667969 18.667969 3.261719 18.667969 4 C 18.667969 4.738281 19.261719 5.332031 20 5.332031 Z M 20 5.332031 "/>
</svg>
