<?xml version="1.0" encoding="UTF-8"?>
<svg xmlns="http://www.w3.org/2000/svg" xmlns:xlink="http://www.w3.org/1999/xlink" width="12" height="12" viewBox="0 0 12 12" version="1.1">
<g id="surface1">
<path style=" stroke:none;fill-rule:nonzero;fill:rgb(100%,100%,100%);fill-opacity:1;" d="M 1.597656 6.851562 L 7.390625 6.851562 L 7.390625 7.527344 L 6.082031 7.527344 L 6.082031 10.582031 L 10.5 10.582031 L 10.5 7.527344 L 9.234375 7.527344 L 9.234375 6.851562 L 11.179688 6.851562 L 11.179688 10.921875 C 11.179688 11.101562 11.019531 11.261719 10.839844 11.261719 L 1.9375 11.261719 C 1.757812 11.261719 1.597656 11.101562 1.597656 10.921875 Z M 1.597656 6.851562 "/>
<path style=" stroke:none;fill-rule:evenodd;fill:rgb(100%,100%,100%);fill-opacity:1;" d="M 8.640625 5.925781 L 8.640625 8.238281 L 9.214844 8.238281 L 8.320312 9.875 L 7.425781 8.238281 L 8 8.238281 L 8 5.925781 Z M 8.640625 5.925781 "/>
<path style=" stroke:none;fill-rule:nonzero;fill:rgb(100%,100%,100%);fill-opacity:1;" d="M 1.816406 0.710938 C 1.398438 1.089844 0.871094 1.441406 0.871094 1.441406 L 0.871094 1.765625 L 1.25 2.105469 L 3.449219 2.105469 L 3.441406 2.515625 L 2.523438 2.523438 L 1.835938 3.726562 L 0.871094 3.984375 L 0.871094 5.207031 L 1.636719 5.207031 C 1.632812 5.199219 1.632812 5.1875 1.632812 5.179688 C 1.632812 4.695312 2.027344 4.300781 2.515625 4.300781 C 3 4.300781 3.394531 4.695312 3.394531 5.179688 C 3.394531 5.1875 3.394531 5.199219 3.394531 5.207031 L 6.234375 5.207031 C 6.234375 5.199219 6.234375 5.1875 6.234375 5.179688 C 6.234375 4.695312 6.628906 4.300781 7.117188 4.300781 C 7.601562 4.300781 7.996094 4.695312 7.996094 5.179688 C 7.996094 5.1875 7.996094 5.199219 7.996094 5.207031 L 9.09375 5.207031 L 9.09375 1.050781 L 6.800781 1.050781 L 6.375 0.710938 Z M 1.929688 1.113281 L 3.449219 1.113281 L 3.449219 1.757812 L 1.929688 1.757812 Z M 6.542969 2.105469 L 8.0625 2.105469 L 8.0625 3.269531 L 6.542969 3.269531 Z M 4.605469 2.105469 L 5.90625 2.105469 L 5.90625 4.828125 L 4.605469 4.828125 Z M 2.789062 2.910156 L 3.441406 2.910156 L 3.441406 3.738281 L 2.34375 3.738281 Z M 7.117188 4.617188 C 6.804688 4.617188 6.550781 4.871094 6.550781 5.179688 C 6.550781 5.492188 6.804688 5.746094 7.117188 5.746094 C 7.425781 5.746094 7.679688 5.492188 7.679688 5.179688 C 7.679688 4.871094 7.425781 4.617188 7.117188 4.617188 Z M 2.515625 4.625 C 2.207031 4.625 1.960938 4.875 1.960938 5.179688 C 1.960938 5.488281 2.207031 5.734375 2.515625 5.734375 C 2.820312 5.734375 3.070312 5.488281 3.070312 5.179688 C 3.070312 4.875 2.820312 4.625 2.515625 4.625 Z M 2.515625 4.625 "/>
</g>
</svg>
