<?xml version="1.0" encoding="UTF-8"?>
<svg xmlns="http://www.w3.org/2000/svg" xmlns:xlink="http://www.w3.org/1999/xlink" width="32" height="32" viewBox="0 0 32 32">
<path fill-rule="nonzero" fill="rgb(100%, 100%, 100%)" fill-opacity="1" d="M 9.351562 3.925781 C 9.207031 3.925781 9.074219 3.929688 8.960938 3.929688 C 8.898438 4.179688 8.675781 4.363281 8.40625 4.363281 L 7.035156 4.363281 C 6.574219 4.605469 6.140625 4.949219 5.742188 5.382812 L 6.261719 5.382812 C 6.578125 5.382812 6.832031 5.632812 6.832031 5.949219 C 6.832031 6.265625 6.578125 6.519531 6.261719 6.519531 L 4.894531 6.519531 C 4.484375 7.191406 4.125 7.984375 3.828125 8.878906 L 4.984375 8.878906 C 5.300781 8.878906 5.554688 9.132812 5.554688 9.445312 C 5.554688 9.761719 5.300781 10.015625 4.984375 10.015625 L 3.496094 10.015625 C 3.269531 10.910156 3.097656 11.886719 2.988281 12.929688 L 4.429688 12.929688 C 4.746094 12.929688 5 13.183594 5 13.5 C 5 13.816406 4.746094 14.070312 4.429688 14.070312 L 2.9375 14.070312 C 2.921875 14.070312 2.90625 14.066406 2.890625 14.066406 C 2.863281 14.523438 2.84375 14.992188 2.839844 15.472656 C 2.828125 16.246094 2.847656 17.011719 2.894531 17.761719 L 4.261719 17.761719 C 4.578125 17.761719 4.832031 18.015625 4.832031 18.328125 C 4.832031 18.644531 4.578125 18.898438 4.261719 18.898438 L 2.984375 18.898438 C 3.078125 19.855469 3.21875 20.777344 3.410156 21.644531 L 4.820312 21.644531 C 5.132812 21.644531 5.386719 21.898438 5.386719 22.214844 C 5.386719 22.53125 5.132812 22.785156 4.820312 22.785156 L 3.691406 22.785156 C 3.921875 23.601562 4.199219 24.359375 4.519531 25.03125 L 5.707031 25.03125 C 6.023438 25.03125 6.277344 25.285156 6.277344 25.601562 C 6.277344 25.917969 6.023438 26.171875 5.707031 26.171875 L 5.160156 26.171875 C 5.550781 26.753906 5.988281 27.242188 6.472656 27.601562 L 7.335938 27.601562 C 7.648438 27.601562 7.902344 27.855469 7.902344 28.171875 C 7.902344 28.203125 7.898438 28.234375 7.894531 28.265625 C 8.144531 28.320312 8.402344 28.347656 8.667969 28.347656 C 9.542969 28.34375 11.894531 28.386719 11.894531 28.386719 C 11.894531 28.386719 11.167969 28.132812 10.308594 27.042969 L 8.898438 27.042969 C 8.582031 27.042969 8.328125 26.789062 8.328125 26.472656 C 8.328125 26.15625 8.582031 25.902344 8.898438 25.902344 L 9.5625 25.902344 C 9.324219 25.464844 9.085938 24.957031 8.863281 24.359375 L 7.492188 24.359375 C 7.179688 24.359375 6.925781 24.105469 6.925781 23.792969 C 6.925781 23.476562 7.179688 23.222656 7.492188 23.222656 L 8.492188 23.222656 C 8.289062 22.515625 8.109375 21.714844 7.964844 20.808594 L 6.605469 20.808594 C 6.289062 20.808594 6.035156 20.554688 6.035156 20.238281 C 6.035156 19.921875 6.289062 19.671875 6.605469 19.671875 L 7.804688 19.671875 C 7.691406 18.699219 7.617188 17.617188 7.59375 16.421875 L 6.160156 16.421875 C 5.847656 16.421875 5.59375 16.167969 5.59375 15.855469 C 5.59375 15.539062 5.847656 15.285156 6.160156 15.285156 L 7.585938 15.285156 C 7.597656 14.15625 7.664062 13.132812 7.78125 12.203125 L 6.605469 12.203125 C 6.289062 12.203125 6.035156 11.949219 6.035156 11.632812 C 6.035156 11.320312 6.289062 11.066406 6.605469 11.066406 L 7.949219 11.066406 C 8.109375 10.160156 8.3125 9.355469 8.542969 8.652344 L 7.4375 8.652344 C 7.121094 8.652344 6.867188 8.398438 6.867188 8.082031 C 6.867188 7.765625 7.121094 7.511719 7.4375 7.511719 L 8.929688 7.511719 C 8.941406 7.511719 8.953125 7.515625 8.964844 7.515625 C 9.179688 6.996094 9.410156 6.542969 9.636719 6.152344 L 8.824219 6.152344 C 8.511719 6.152344 8.257812 5.898438 8.257812 5.582031 C 8.257812 5.269531 8.511719 5.015625 8.824219 5.015625 L 10.316406 5.015625 C 10.351562 5.015625 10.382812 5.015625 10.410156 5.023438 C 11.050781 4.230469 11.542969 3.929688 11.542969 3.929688 C 11.542969 3.929688 10.238281 3.921875 9.351562 3.925781 Z M 9.351562 3.925781 "/>
<path fill-rule="nonzero" fill="rgb(100%, 100%, 100%)" fill-opacity="1" d="M 14.109375 3.933594 C 11.226562 3.933594 8.890625 9.398438 8.890625 16.140625 C 8.890625 22.882812 11.226562 28.347656 14.109375 28.347656 C 16.992188 28.347656 19.332031 22.882812 19.332031 16.140625 C 19.332031 9.398438 16.992188 3.933594 14.109375 3.933594 Z M 14.109375 9.648438 C 15.644531 9.648438 16.886719 12.554688 16.886719 16.140625 C 16.886719 19.722656 15.644531 22.628906 14.109375 22.628906 C 12.578125 22.628906 11.335938 19.722656 11.335938 16.140625 C 11.335938 12.554688 12.578125 9.648438 14.109375 9.648438 Z M 14.109375 9.648438 "/>
<path fill-rule="nonzero" fill="rgb(100%, 100%, 100%)" fill-opacity="1" d="M 12.640625 12.617188 C 12.640625 12.617188 13.191406 10.425781 14.46875 10.8125 C 15.101562 11.003906 15.976562 14.191406 15.957031 16.128906 C 15.929688 18.769531 15.234375 20.628906 14.511719 21.097656 C 13.683594 21.640625 12.75 18.933594 12.75 18.933594 C 12.75 18.933594 13.355469 17.507812 13.347656 15.769531 C 13.335938 14.03125 12.640625 12.617188 12.640625 12.617188 Z M 12.640625 12.617188 "/>
<path fill-rule="nonzero" fill="rgb(100%, 100%, 100%)" fill-opacity="1" stroke-width="6.48361" stroke-linecap="round" stroke-linejoin="round" stroke="rgb(100%, 100%, 100%)" stroke-opacity="1" stroke-miterlimit="4" d="M 438.256836 477.338867 L 439.106445 424.946289 L 468.701172 409.157715 L 496.242676 424.663086 L 494.897461 477.976074 L 513.022461 478.684082 L 525.412598 412.202148 L 480.949707 382.607422 L 493.056641 131.052246 C 495.180664 100.253906 449.018555 96.005859 448.59375 131.123047 L 451.425781 385.15625 L 409.936523 410.432129 L 420.273438 476.984863 Z M 470.400391 139.406738 C 463.886719 139.335938 457.585449 134.09668 457.727051 127.512207 C 457.797852 120.927734 461.054688 112.502441 472.099609 111.157227 C 479.887695 111.298828 485.905762 117.8125 485.410156 125.95459 C 485.268555 132.468262 477.055664 139.54834 470.400391 139.406738 Z M 470.400391 139.406738 " transform="matrix(0.0551724, 0, 0, 0.0551724, 0, 0)"/>
<path fill-rule="nonzero" fill="rgb(100%, 100%, 100%)" fill-opacity="1" stroke-width="6.48361" stroke-linecap="round" stroke-linejoin="round" stroke="rgb(100%, 100%, 100%)" stroke-opacity="1" stroke-miterlimit="4" d="M 438.540039 477.55127 L 440.593262 385.581055 L 406.821289 405.759277 L 420.556641 477.338867 Z M 438.540039 477.55127 " transform="matrix(0.0551724, 0, 0, 0.0551724, 0, 0)"/>
</svg>
