<svg width="32" height="32" viewBox="0 0 580 580" fill="none" xmlns="http://www.w3.org/2000/svg">
<path opacity="0.372" d="M290 52.4688C285.066 52.4705 280.21 53.7059 275.875 56.0625L271.156 58.625C271.104 58.6457 271.052 58.6665 271 58.6875L154.281 122.969C154.271 122.979 154.26 122.99 154.25 123L149.219 125.781C144.589 128.34 140.73 132.092 138.042 136.649C135.354 141.205 133.937 146.398 133.938 151.688V157.438V488.188V497.938C133.938 505.786 137.056 513.313 142.606 518.863C148.156 524.412 155.683 527.53 163.531 527.531H173.25H406.719H416.469C424.317 527.53 431.844 524.412 437.394 518.863C442.944 513.313 446.062 505.786 446.062 497.938V488.188V157.438V151.688C446.062 146.386 444.638 141.182 441.939 136.62C439.24 132.057 435.365 128.303 430.719 125.75L425.688 122.969H425.656L308.969 58.6875C308.938 58.677 308.906 58.6666 308.875 58.6562L304.188 56.0938C299.837 53.7161 294.958 52.4696 290 52.4688ZM289.969 138.094L306.688 147.281H299.719C296.408 147.296 293.122 147.867 290 148.969C286.868 147.863 283.572 147.293 280.25 147.281H273.25L289.969 138.094Z" fill="#E4E4E4"/>
<path d="M290 92.48L173.259 156.754V487.52H406.741V156.754L290 92.48Z" stroke="black" stroke-width="19.4568" stroke-miterlimit="10" stroke-linecap="round"/>
<path d="M270.543 185.939H212.173V244.31H270.543V185.939Z" stroke="black" stroke-width="19.4568" stroke-miterlimit="10" stroke-linecap="round"/>
<path d="M367.827 185.939H309.457V244.31H367.827V185.939Z" stroke="black" stroke-width="19.4568" stroke-miterlimit="10" stroke-linecap="round"/>
<path d="M270.543 283.223H212.173V341.594H270.543V283.223Z" stroke="black" stroke-width="19.4568" stroke-miterlimit="10" stroke-linecap="round"/>
<path d="M367.827 283.223H309.457V341.594H367.827V283.223Z" stroke="black" stroke-width="19.4568" stroke-miterlimit="10" stroke-linecap="round"/>
<path d="M270.543 380.508H212.173V438.878H270.543V380.508Z" stroke="black" stroke-width="19.4568" stroke-miterlimit="10" stroke-linecap="round"/>
<path d="M367.827 380.508H309.457V438.878H367.827V380.508Z" stroke="black" stroke-width="19.4568" stroke-miterlimit="10" stroke-linecap="round"/>
</svg>
