<?xml version="1.0" encoding="UTF-8"?>
<svg xmlns="http://www.w3.org/2000/svg" xmlns:xlink="http://www.w3.org/1999/xlink" width="32" height="32" viewBox="0 0 32 32">
<path fill-rule="evenodd" fill="rgb(100%, 100%, 100%)" fill-opacity="1" d="M 18.667969 8 L 26.667969 8 C 29.613281 8 32 10.386719 32 13.332031 C 32 16.277344 29.613281 18.667969 26.667969 18.667969 L 26.667969 21.332031 C 26.667969 24.277344 24.277344 26.667969 21.332031 26.667969 L 12.265625 26.667969 L 10.667969 25.332031 L 2.667969 14.667969 L 1.332031 16 L 0 16 L 0 8 L 1.332031 8 L 2.667969 10.667969 L 10.667969 18.667969 L 10.667969 8 L 16 8 L 16 4 C 16 3.261719 16.597656 2.667969 17.332031 2.667969 C 18.070312 2.667969 18.667969 3.261719 18.667969 4 Z M 26.667969 16 C 28.140625 16 29.332031 14.804688 29.332031 13.332031 C 29.332031 11.859375 28.140625 10.667969 26.667969 10.667969 Z M 26.667969 16 "/>
</svg>
