<?xml version="1.0" encoding="UTF-8"?>
<svg xmlns="http://www.w3.org/2000/svg" xmlns:xlink="http://www.w3.org/1999/xlink" width="12" height="12" viewBox="0 0 12 12" version="1.1">
<g id="surface1">
<path style=" stroke:none;fill-rule:nonzero;fill:rgb(100%,100%,100%);fill-opacity:1;" d="M 2.511719 8.066406 L 4.617188 10.171875 C 4.371094 10.171875 4.097656 10.117188 3.851562 10.035156 C 3.742188 10.007812 3.359375 9.953125 3.195312 10.089844 C 2.839844 10.445312 2.539062 10.910156 2.375 11.074219 C 2.210938 11.238281 1.964844 11.183594 1.71875 10.9375 C 1.5 10.71875 1.417969 10.445312 1.582031 10.28125 C 1.773438 10.144531 2.238281 9.816406 2.59375 9.488281 C 2.757812 9.324219 2.675781 8.886719 2.648438 8.832031 C 2.539062 8.585938 2.511719 8.3125 2.511719 8.066406 Z M 6.339844 6.34375 C 5.328125 5.304688 3.960938 5.6875 3.113281 6.507812 C 2.8125 6.808594 2.59375 7.191406 2.539062 7.601562 L 5.082031 10.144531 C 5.492188 10.0625 5.875 9.871094 6.175781 9.570312 C 6.996094 8.722656 7.378906 7.355469 6.339844 6.34375 Z M 6.339844 6.34375 "/>
<path style=" stroke:none;fill-rule:nonzero;fill:rgb(100%,100%,100%);fill-opacity:1;" d="M 9.09375 3.480469 C 9.09375 3.609375 9.09375 3.738281 9.050781 3.867188 L 10.511719 3.867188 C 10.511719 3.738281 10.46875 3.609375 10.46875 3.480469 C 10.46875 3.308594 10.554688 3.09375 10.597656 2.878906 C 10.640625 2.707031 10.640625 2.535156 10.597656 2.363281 C 10.511719 2.0625 10.296875 1.804688 9.996094 1.761719 C 9.394531 1.589844 8.878906 2.0625 8.878906 2.621094 C 8.878906 2.707031 8.878906 2.792969 8.921875 2.878906 C 9.007812 3.050781 9.09375 3.351562 9.09375 3.480469 Z M 9.09375 3.480469 "/>
<path style=" stroke:none;fill-rule:nonzero;fill:rgb(100%,100%,100%);fill-opacity:1;" d="M 10.597656 4.296875 L 9.007812 4.296875 C 8.921875 4.640625 8.691406 5.386719 8.605469 5.644531 C 8.40625 6.246094 8.273438 6.710938 8.273438 7.441406 C 8.273438 8.300781 8.367188 8.632812 8.523438 9.4375 C 8.609375 9.609375 9.179688 9.882812 9.824219 9.882812 C 10.511719 9.882812 11.070312 9.710938 11.070312 9.539062 C 11.070312 9.453125 11.199219 8.507812 11.285156 7.734375 C 11.371094 6.960938 11.285156 6.488281 11.027344 5.757812 C 10.941406 5.542969 10.726562 4.941406 10.597656 4.296875 Z M 10.597656 4.296875 "/>
<path style="fill:none;stroke-width:32.7132;stroke-linecap:butt;stroke-linejoin:miter;stroke:rgb(100%,100%,100%);stroke-opacity:1;stroke-miterlimit:10;" d="M 218.821615 163.502604 C 273.007812 163.502604 316.998698 141.601562 316.998698 114.414062 C 316.998698 87.415365 273.007812 65.514323 218.821615 65.514323 C 164.635417 65.514323 120.833333 87.415365 120.833333 114.414062 C 120.833333 141.601562 164.635417 163.502604 218.821615 163.502604 Z M 218.821615 163.502604 " transform="matrix(0.0206897,0,0,0.0206897,0,0)"/>
<path style=" stroke:none;fill-rule:nonzero;fill:rgb(100%,100%,100%);fill-opacity:1;" d="M 4.527344 3.382812 C 3.34375 3.382812 2.160156 3.078125 2.160156 2.367188 C 2.160156 2.570312 2.160156 3.078125 2.160156 3.28125 C 2.160156 3.992188 2.835938 4.738281 4.527344 4.738281 C 6.21875 4.738281 6.898438 3.992188 6.898438 3.28125 C 6.898438 3.078125 6.898438 2.570312 6.898438 2.367188 C 6.898438 3.078125 5.714844 3.382812 4.527344 3.382812 Z M 4.527344 3.382812 "/>
</g>
</svg>
