<?xml version="1.0" encoding="UTF-8"?>
<svg xmlns="http://www.w3.org/2000/svg" xmlns:xlink="http://www.w3.org/1999/xlink" width="12" height="12" viewBox="0 0 12 12" version="1.1">
<g id="surface1">
<path style=" stroke:none;fill-rule:nonzero;fill:rgb(100%,100%,100%);fill-opacity:1;" d="M 10.257812 5.527344 L 8.128906 5.527344 L 8.128906 5.054688 L 10.257812 5.054688 L 10.257812 4.105469 L 8.839844 4.105469 L 8.839844 3.632812 L 10.257812 3.632812 L 10.257812 2.6875 L 8.128906 2.6875 L 8.128906 2.214844 L 10.257812 2.214844 L 10.257812 1.03125 L 6 1.03125 L 6 10.96875 L 10.257812 10.96875 L 10.257812 9.785156 L 8.839844 9.785156 L 8.839844 9.3125 L 10.257812 9.3125 L 10.257812 8.367188 L 8.128906 8.367188 L 8.128906 7.894531 L 10.257812 7.894531 L 10.257812 6.945312 L 8.839844 6.945312 L 8.839844 6.472656 L 10.257812 6.472656 Z M 10.257812 5.527344 "/>
<path style=" stroke:none;fill-rule:nonzero;fill:rgb(100%,100%,100%);fill-opacity:1;" d="M 4.242188 2.449219 L 3.601562 1.144531 C 3.515625 1.003906 3.277344 1.003906 3.195312 1.144531 L 2.554688 2.449219 Z M 4.242188 2.449219 "/>
<path style=" stroke:none;fill-rule:nonzero;fill:rgb(100%,100%,100%);fill-opacity:1;" d="M 5.019531 3.511719 L 3.601562 1.144531 C 3.515625 1.003906 3.277344 1.003906 3.195312 1.144531 L 1.773438 3.511719 C 1.75 3.546875 1.738281 3.589844 1.738281 3.632812 L 1.738281 9.785156 C 1.738281 10.4375 2.269531 10.96875 2.921875 10.96875 L 3.871094 10.96875 C 4.523438 10.96875 5.054688 10.4375 5.054688 9.785156 L 5.054688 3.632812 C 5.054688 3.589844 5.042969 3.546875 5.019531 3.511719 Z M 3.398438 1.726562 L 4.398438 3.398438 L 2.394531 3.398438 Z M 2.921875 9.550781 L 2.449219 9.550781 L 2.449219 3.871094 L 2.921875 3.871094 Z M 4.34375 9.550781 L 3.871094 9.550781 L 3.871094 3.871094 L 4.34375 3.871094 Z M 4.34375 9.550781 "/>
</g>
</svg>
