<svg width="64" height="64" viewBox="0 0 1060 1060" fill="none" xmlns="http://www.w3.org/2000/svg">
<path opacity="0.414179" d="M825.875 530C825.875 608.471 794.702 683.728 739.215 739.215C683.728 794.702 608.471 825.875 530 825.875C451.529 825.875 376.272 794.702 320.785 739.215C265.298 683.728 234.125 608.471 234.125 530C234.125 451.529 265.298 376.272 320.785 320.785C376.272 265.298 451.529 234.125 530 234.125C608.471 234.125 683.728 265.298 739.215 320.785C794.702 376.272 825.875 451.529 825.875 530V530Z" stroke="#2E00FF" stroke-width="29.002"/>
<path opacity="0.414179" d="M745.936 530C745.936 587.27 723.185 642.194 682.69 682.69C642.194 723.185 587.27 745.936 530 745.936C472.73 745.936 417.806 723.185 377.31 682.69C336.815 642.194 314.064 587.27 314.064 530C314.064 472.73 336.815 417.806 377.31 377.31C417.806 336.815 472.73 314.064 530 314.064C587.27 314.064 642.194 336.815 682.69 377.31C723.185 417.806 745.936 472.73 745.936 530V530Z" stroke="#2E00FF" stroke-width="29.002"/>
</svg>
