<svg width="12" height="12" viewBox="0 0 580 580" fill="none" xmlns="http://www.w3.org/2000/svg">
<path d="M214.716 127.237C226.74 127.238 237.004 122.988 245.51 114.489C254.015 105.99 258.267 95.5203 258.268 83.0784C258.267 71.0423 254.015 60.7746 245.51 52.2752C237.004 43.7768 226.74 39.5272 214.716 39.5269C202.692 39.5272 192.323 43.7768 183.609 52.2752C174.895 60.7746 170.538 71.0423 170.538 83.0784C170.538 95.5203 174.895 105.99 183.609 114.489C192.323 122.988 202.692 127.238 214.716 127.237ZM243.953 154.614C242.295 163.74 236.492 168.302 226.544 168.302H122.639C110.197 168.302 103.977 162.911 103.977 152.127C103.977 147.558 105.432 143.824 108.343 140.926C100.458 143.824 96.5155 149.007 96.5156 156.474C96.5155 167.258 102.945 172.65 115.804 172.65H224.664C238.358 172.65 244.788 166.638 243.953 154.614ZM122.639 168.302H226.544C236.492 168.302 242.295 163.74 243.953 154.614C243.535 143.831 237.105 138.439 224.664 138.439H115.804C115.387 138.439 112.899 139.268 108.343 140.926C105.432 143.824 103.977 147.558 103.977 152.127C103.977 162.911 110.197 168.302 122.639 168.302ZM231.518 334.402V332.541C231.518 332.541 231.518 332.744 231.518 333.149V334.402ZM230.265 346.837V344.976C230.265 345.394 230.265 345.603 230.265 345.603V346.837ZM250.18 140.299C250.585 140.717 250.996 141.135 251.414 141.552C253.072 144.869 254.319 148.602 255.154 152.753C255.572 156.892 254.534 161.658 252.041 167.049C252.04 167.885 251.623 168.923 250.788 170.163C244.991 178.871 236.283 183.225 224.664 183.224H164.938V343.723L130.727 514.19C129.486 520.822 130.733 526.938 134.467 532.538C138.2 538.139 143.383 541.559 150.015 542.8C156.647 544.04 162.764 542.797 168.364 539.069C173.965 535.342 177.594 530.156 179.252 523.511L214.09 346.837H230.265L265.102 523.511C266.342 530.156 269.763 535.342 275.364 539.069C280.964 542.797 287.289 544.04 294.339 542.8C300.566 541.559 305.648 538.139 309.584 532.538C313.52 526.938 314.659 520.822 313.001 514.19L278.79 342.489V198.773L301.241 169.712L324.461 168.17L342.933 144.144L498.733 135.463L498.024 119.876L259.486 125.004C259.486 125.004 242.265 131.302 235.603 134.928L250.18 140.299ZM231.518 334.402V333.149C231.518 333.149 231.518 332.946 231.518 332.541V334.402Z" fill="#ffffff"/>
</svg>
