<?xml version="1.0" encoding="UTF-8"?>
<svg xmlns="http://www.w3.org/2000/svg" xmlns:xlink="http://www.w3.org/1999/xlink" width="32" height="32" viewBox="0 0 32 32">
<path fill-rule="nonzero" fill="rgb(100%, 100%, 100%)" fill-opacity="1" d="M 18 18.667969 C 20.578125 18.667969 22.667969 16.578125 22.667969 14 C 22.667969 11.421875 20.578125 9.332031 18 9.332031 C 15.421875 9.332031 13.332031 11.421875 13.332031 14 C 13.332031 16.578125 15.421875 18.667969 18 18.667969 Z M 18 18.667969 "/>
<path fill-rule="evenodd" fill="rgb(100%, 100%, 100%)" fill-opacity="1" d="M 15.378906 28.082031 L 21.730469 29.355469 L 28.082031 28.082031 L 29.355469 21.730469 L 28.082031 15.378906 L 29.355469 9.027344 L 28.082031 2.671875 L 21.730469 3.945312 L 15.378906 2.671875 L 9.027344 3.945312 L 2.671875 2.671875 L 3.941406 9.027344 L 2.671875 15.378906 L 3.941406 21.730469 L 2.671875 28.082031 L 9.027344 29.355469 Z M 18 21.332031 C 22.050781 21.332031 25.332031 18.050781 25.332031 14 C 25.332031 9.949219 22.050781 6.667969 18 6.667969 C 13.949219 6.667969 10.667969 9.949219 10.667969 14 C 10.667969 15.542969 11.144531 16.976562 11.957031 18.15625 L 7.058594 23.058594 C 6.535156 23.578125 6.535156 24.421875 7.058594 24.941406 C 7.578125 25.464844 8.421875 25.464844 8.941406 24.941406 L 13.84375 20.042969 C 15.023438 20.855469 16.457031 21.332031 18 21.332031 Z M 18 21.332031 "/>
</svg>
