<?xml version="1.0" encoding="UTF-8"?>
<svg xmlns="http://www.w3.org/2000/svg" xmlns:xlink="http://www.w3.org/1999/xlink" width="32" height="32" viewBox="0 0 32 32">
<path fill-rule="evenodd" fill="rgb(100%, 100%, 100%)" fill-opacity="1" d="M 14.28125 16.113281 C 14.289062 16.019531 14.929688 16.074219 15.910156 15.050781 C 16.671875 14.253906 17.3125 13.347656 17.351562 12.089844 C 17.441406 9.242188 15.972656 8.90625 16 6.867188 C 16.027344 4.832031 16.335938 4.195312 16.882812 2.441406 C 15.675781 3.222656 14.367188 5.863281 14.414062 7.316406 C 14.464844 8.773438 15.863281 10.101562 15.960938 11.59375 C 16.0625 13.085938 15.308594 14.59375 14.28125 16.113281 Z M 14.28125 16.113281 "/>
<path fill-rule="evenodd" fill="rgb(100%, 100%, 100%)" fill-opacity="1" d="M 20.425781 17.554688 C 20.433594 17.441406 21.214844 17.503906 22.402344 16.265625 C 23.320312 15.304688 24.09375 14.203125 24.144531 12.683594 C 24.253906 9.234375 22.472656 8.828125 22.507812 6.359375 C 22.542969 3.894531 22.914062 3.125 23.574219 1 C 22.113281 1.945312 20.53125 5.140625 20.589844 6.902344 C 20.648438 8.664062 22.339844 10.277344 22.460938 12.082031 C 22.582031 13.886719 21.671875 15.714844 20.425781 17.554688 Z M 20.425781 17.554688 "/>
<path fill-rule="evenodd" fill="rgb(100%, 100%, 100%)" fill-opacity="1" d="M 26.867188 16.3125 C 26.875 16.21875 27.515625 16.273438 28.5 15.25 C 29.257812 14.453125 29.898438 13.546875 29.9375 12.289062 C 30.027344 9.441406 28.558594 9.105469 28.585938 7.066406 C 28.613281 5.03125 28.921875 4.394531 29.46875 2.640625 C 28.261719 3.421875 26.953125 6.0625 27 7.515625 C 27.050781 8.972656 28.449219 10.300781 28.546875 11.792969 C 28.648438 13.285156 27.894531 14.792969 26.867188 16.3125 Z M 26.867188 16.3125 "/>
<path fill-rule="nonzero" fill="rgb(100%, 100%, 100%)" fill-opacity="1" d="M 9.125 9.355469 C 8.761719 10.109375 8.113281 10.695312 7.324219 10.976562 C 6.535156 11.261719 5.664062 11.222656 4.902344 10.871094 C 4.140625 10.519531 3.546875 9.882812 3.25 9.097656 C 2.953125 8.3125 2.976562 7.441406 3.316406 6.675781 C 3.65625 5.90625 4.28125 5.304688 5.0625 4.996094 C 5.84375 4.683594 6.714844 4.695312 7.488281 5.023438 C 8.261719 5.347656 8.875 5.964844 9.195312 6.742188 C 9.519531 7.515625 9.523438 8.386719 9.207031 9.167969 "/>
<path fill="none" stroke-width="70" stroke-linecap="round" stroke-linejoin="round" stroke="rgb(100%, 100%, 100%)" stroke-opacity="1" stroke-miterlimit="4" d="M 148.469238 263.237305 L 193.781738 382.041016 L 393.156738 382.041016 L 477.976074 526.262207 " transform="matrix(0.0551724, 0, 0, 0.0551724, 0, 0)"/>
<path fill="none" stroke-width="50" stroke-linecap="round" stroke-linejoin="round" stroke="rgb(100%, 100%, 100%)" stroke-opacity="1" stroke-miterlimit="4" d="M 140.751953 256.936035 L 50.905762 397.546387 " transform="matrix(0.0551724, 0, 0, 0.0551724, 0, 0)"/>
<path fill="none" stroke-width="50" stroke-linecap="round" stroke-linejoin="round" stroke="rgb(100%, 100%, 100%)" stroke-opacity="1" stroke-miterlimit="4" d="M 337.436523 480.454102 L 43.046875 480.241699 " transform="matrix(0.0551724, 0, 0, 0.0551724, 0, 0)"/>
</svg>
