<svg width="32" height="32" viewBox="0 0 320 320" fill="none" xmlns="http://www.w3.org/2000/svg">
<g clip-path="url(#clip0)">
<path opacity="0.61" d="M320 250C320.003 259.195 318.195 268.3 314.679 276.796C311.163 285.292 306.007 293.011 299.507 299.514C293.006 306.017 285.288 311.175 276.794 314.695C268.299 318.214 259.195 320.026 250 320.026C240.805 320.026 231.701 318.214 223.206 314.695C214.712 311.175 206.994 306.017 200.494 299.514C193.993 293.011 188.837 285.292 185.321 276.796C181.805 268.3 179.997 259.195 180 250C179.997 240.805 181.805 231.7 185.321 223.204C188.837 214.709 193.993 206.989 200.494 200.486C206.994 193.983 214.712 188.825 223.206 185.305C231.701 181.786 240.805 179.975 250 179.975C259.195 179.975 268.299 181.786 276.794 185.305C285.288 188.825 293.006 193.983 299.507 200.486C306.007 206.989 311.163 214.709 314.679 223.204C318.195 231.7 320.003 240.805 320 250V250Z" fill="#373737"/>
<path d="M310 250C310.003 257.882 308.453 265.686 305.439 272.968C302.425 280.25 298.006 286.867 292.434 292.441C286.862 298.015 280.247 302.436 272.966 305.453C265.685 308.47 257.881 310.022 250 310.022C242.119 310.022 234.315 308.47 227.034 305.453C219.753 302.436 213.138 298.015 207.566 292.441C201.994 286.867 197.575 280.25 194.561 272.968C191.547 265.686 189.997 257.882 190 250C189.997 242.119 191.547 234.315 194.561 227.033C197.575 219.751 201.994 213.134 207.566 207.56C213.138 201.986 219.753 197.564 227.034 194.548C234.315 191.531 242.119 189.979 250 189.979C257.881 189.979 265.685 191.531 272.966 194.548C280.247 197.564 286.862 201.986 292.434 207.56C298.006 213.134 302.425 219.751 305.439 227.033C308.453 234.315 310.003 242.119 310 250V250Z" fill="#FEFEFE"/>
<path d="M287.18 212.811L198.295 253.642L235.816 264.148L246.541 301.568L287.18 212.811Z" fill="black"/>
</g>
<defs>
<clipPath id="clip0">
<path d="M0 0H320V320H0V0Z" fill="white"/>
</clipPath>
</defs>
</svg>
