<?xml version="1.0" encoding="UTF-8"?>
<svg xmlns="http://www.w3.org/2000/svg" xmlns:xlink="http://www.w3.org/1999/xlink" width="12" height="12" viewBox="0 0 12 12" version="1.1">
<g id="surface1">
<path style=" stroke:none;fill-rule:nonzero;fill:rgb(100%,96.078432%,94.509804%);fill-opacity:1;" d="M 7.714844 4.976562 L 7.214844 4.515625 C 7.214844 4.515625 6.542969 4.222656 6 4.222656 C 6 4.054688 5.207031 2.171875 4.492188 2.171875 C 1.0625 2.128906 0.980469 4.597656 0.980469 4.597656 L 0.980469 9.785156 L 1.816406 9.785156 C 1.816406 9.453125 1.816406 9.160156 1.816406 9.160156 C 1.816406 8.90625 1.859375 8.65625 2.027344 8.613281 C 2.191406 8.574219 2.234375 8.742188 2.234375 8.992188 C 2.234375 9.03125 2.234375 9.367188 2.234375 9.785156 L 3.070312 9.785156 C 3.070312 9.453125 3.070312 9.117188 3.070312 9.074219 C 3.070312 8.699219 3.363281 8.363281 3.699219 8.320312 C 4.035156 8.28125 4.328125 8.613281 4.328125 9.03125 C 4.328125 9.074219 4.328125 9.453125 4.328125 9.785156 L 5.164062 9.785156 C 5.164062 9.367188 5.164062 9.03125 5.164062 8.949219 C 5.164062 8.488281 5.539062 8.113281 6 8.113281 C 6.460938 8.113281 6.835938 8.488281 6.835938 8.949219 C 6.835938 9.03125 6.835938 9.367188 6.835938 9.785156 L 7.671875 9.785156 C 7.671875 9.410156 7.671875 9.074219 7.671875 9.03125 C 7.671875 8.65625 7.964844 8.363281 8.300781 8.363281 C 8.636719 8.363281 8.929688 8.699219 8.929688 9.117188 C 8.929688 9.160156 8.929688 9.492188 8.929688 9.828125 L 9.765625 9.828125 C 9.765625 9.453125 9.765625 9.074219 9.765625 9.03125 C 9.765625 8.78125 9.847656 8.574219 10.015625 8.613281 C 10.183594 8.65625 10.183594 8.90625 10.183594 9.160156 C 10.183594 9.199219 10.183594 9.453125 10.183594 9.785156 L 11.019531 9.785156 C 11.019531 9.785156 11.019531 7.316406 11.019531 6.984375 C 11.019531 6.605469 10.976562 5.226562 7.714844 4.976562 Z M 2.234375 7.527344 C 2.027344 7.570312 1.902344 7.652344 1.816406 7.695312 C 1.816406 7.191406 1.816406 6.691406 1.816406 6.648438 C 1.816406 6.398438 1.902344 6.148438 2.066406 6.105469 C 2.234375 6.0625 2.234375 6.230469 2.234375 6.523438 C 2.234375 6.523438 2.234375 7.023438 2.234375 7.527344 Z M 2.234375 5.144531 C 2.109375 5.183594 1.902344 5.308594 1.816406 5.351562 C 1.816406 4.851562 1.816406 4.347656 1.816406 4.304688 C 1.816406 4.054688 1.902344 3.804688 2.066406 3.761719 C 2.234375 3.71875 2.234375 3.847656 2.234375 4.140625 C 2.234375 4.179688 2.234375 4.640625 2.234375 5.144531 Z M 4.328125 7.316406 C 3.867188 7.359375 3.449219 7.359375 3.070312 7.402344 C 3.070312 7.023438 3.070312 6.605469 3.070312 6.566406 C 3.070312 6.1875 3.363281 5.855469 3.699219 5.8125 C 4.035156 5.769531 4.328125 6.105469 4.328125 6.523438 C 4.328125 6.566406 4.328125 6.941406 4.328125 7.316406 Z M 4.328125 4.722656 C 3.867188 4.765625 3.449219 4.808594 3.070312 4.890625 C 3.070312 4.515625 3.070312 4.097656 3.070312 4.054688 C 3.070312 3.679688 3.363281 3.300781 3.699219 3.300781 C 4.035156 3.21875 4.328125 3.511719 4.328125 3.886719 C 4.328125 3.972656 4.328125 4.304688 4.328125 4.722656 Z M 6.835938 7.277344 C 6.542969 7.277344 6.292969 7.277344 6 7.277344 C 5.707031 7.277344 5.457031 7.277344 5.164062 7.277344 C 5.164062 6.859375 5.164062 6.480469 5.164062 6.441406 C 5.164062 5.980469 5.539062 5.601562 6 5.601562 C 6.460938 5.601562 6.835938 5.980469 6.835938 6.441406 C 6.835938 6.523438 6.835938 6.859375 6.835938 7.277344 Z M 8.929688 7.402344 C 8.550781 7.359375 8.132812 7.316406 7.671875 7.316406 C 7.671875 6.941406 7.671875 6.566406 7.671875 6.523438 C 7.671875 6.148438 7.964844 5.855469 8.300781 5.855469 C 8.636719 5.855469 8.929688 6.1875 8.929688 6.605469 C 8.929688 6.648438 8.929688 7.023438 8.929688 7.402344 Z M 10.183594 7.652344 C 10.097656 7.609375 9.890625 7.527344 9.765625 7.484375 C 9.765625 6.984375 9.765625 6.523438 9.765625 6.480469 C 9.765625 6.230469 9.808594 6.019531 9.972656 6.0625 C 10.140625 6.105469 10.183594 6.355469 10.183594 6.605469 C 10.183594 6.691406 10.183594 7.191406 10.183594 7.652344 Z M 10.183594 7.652344 "/>
</g>
</svg>
