<?xml version="1.0" encoding="UTF-8"?>
<svg xmlns="http://www.w3.org/2000/svg" xmlns:xlink="http://www.w3.org/1999/xlink" width="32" height="32" viewBox="0 0 32 32">
<path fill-rule="nonzero" fill="rgb(100%, 100%, 100%)" fill-opacity="1" d="M 17.332031 2.667969 L 14.667969 2.667969 L 14.667969 5.332031 L 17.332031 5.332031 Z M 17.332031 2.667969 "/>
<path fill-rule="nonzero" fill="rgb(100%, 100%, 100%)" fill-opacity="1" d="M 17.332031 29.332031 L 17.332031 26.667969 L 14.667969 26.667969 L 14.667969 29.332031 Z M 17.332031 29.332031 "/>
<path fill-rule="nonzero" fill="rgb(100%, 100%, 100%)" fill-opacity="1" d="M 26.667969 14.667969 L 29.332031 14.667969 L 29.332031 17.332031 L 26.667969 17.332031 Z M 26.667969 14.667969 "/>
<path fill-rule="nonzero" fill="rgb(100%, 100%, 100%)" fill-opacity="1" d="M 5.332031 17.332031 L 5.332031 14.667969 L 2.667969 14.667969 L 2.667969 17.332031 Z M 5.332031 17.332031 "/>
<path fill-rule="nonzero" fill="rgb(100%, 100%, 100%)" fill-opacity="1" d="M 26.371094 7.515625 L 24.484375 5.628906 L 22.601562 7.515625 L 24.484375 9.398438 Z M 26.371094 7.515625 "/>
<path fill-rule="nonzero" fill="rgb(100%, 100%, 100%)" fill-opacity="1" d="M 9.398438 24.484375 L 7.515625 22.601562 L 5.628906 24.484375 L 7.515625 26.371094 Z M 9.398438 24.484375 "/>
<path fill-rule="nonzero" fill="rgb(100%, 100%, 100%)" fill-opacity="1" d="M 26.371094 24.484375 L 24.484375 26.371094 L 22.601562 24.484375 L 24.484375 22.601562 Z M 26.371094 24.484375 "/>
<path fill-rule="nonzero" fill="rgb(100%, 100%, 100%)" fill-opacity="1" d="M 7.515625 9.398438 L 9.398438 7.515625 L 7.515625 5.628906 L 5.628906 7.515625 Z M 7.515625 9.398438 "/>
<path fill-rule="evenodd" fill="rgb(100%, 100%, 100%)" fill-opacity="1" d="M 24 16 C 24 20.417969 20.417969 24 16 24 C 11.582031 24 8 20.417969 8 16 C 8 11.582031 11.582031 8 16 8 C 20.417969 8 24 11.582031 24 16 Z M 21.332031 16 C 21.332031 18.945312 18.945312 21.332031 16 21.332031 C 13.054688 21.332031 10.667969 18.945312 10.667969 16 C 10.667969 13.054688 13.054688 10.667969 16 10.667969 C 18.945312 10.667969 21.332031 13.054688 21.332031 16 Z M 21.332031 16 "/>
</svg>
