<?xml version="1.0" encoding="UTF-8"?>
<svg xmlns="http://www.w3.org/2000/svg" xmlns:xlink="http://www.w3.org/1999/xlink" width="12" height="12" viewBox="0 0 12 12" version="1.1">
<g id="surface1">
<path style=" stroke:none;fill-rule:nonzero;fill:rgb(100%,100%,100%);fill-opacity:1;" d="M 5.839844 3.835938 L 6.058594 3.835938 C 7.277344 3.839844 7.976562 5 7.984375 5.785156 C 7.976562 5.941406 7.941406 6.070312 7.765625 6.066406 C 7.402344 6.070312 7.53125 5.484375 7.230469 4.980469 C 7.089844 4.734375 6.632812 4.289062 6.109375 4.292969 L 5.917969 4.292969 C 5.636719 4.289062 5.109375 4.453125 4.757812 4.980469 C 4.316406 5.625 4.605469 6.09375 4.234375 6.089844 C 4.175781 6.09375 4.011719 6.078125 4.015625 5.8125 C 4.03125 4.605469 5.136719 3.839844 5.839844 3.835938 Z M 5.839844 3.835938 "/>
<path style=" stroke:none;fill-rule:nonzero;fill:rgb(100%,100%,100%);fill-opacity:1;" d="M 6.007812 10.507812 C 6.464844 10.511719 6.816406 10.046875 6.824219 9.726562 L 6.824219 9.066406 C 6.816406 7.707031 8.246094 7.171875 8.238281 5.8125 C 8.246094 4.539062 7.09375 3.578125 6.007812 3.578125 C 5.105469 3.578125 4.492188 4.160156 4.257812 4.460938 C 3.5625 5.324219 3.960938 6.144531 3.46875 6.144531 C 3.328125 6.144531 3.191406 6.066406 3.191406 5.785156 C 3.167969 4.4375 4.28125 3.007812 6.035156 3.007812 C 7.449219 3.007812 8.839844 4.136719 8.839844 5.863281 C 8.839844 7.464844 7.4375 7.800781 7.4375 9.207031 L 7.4375 9.804688 C 7.4375 10.421875 6.886719 11.128906 5.984375 11.132812 C 5.949219 11.121094 5.914062 11.109375 5.871094 11.105469 C 5.703125 11.058594 5.585938 10.882812 5.628906 10.710938 C 5.675781 10.5625 5.8125 10.527344 6 10.507812 Z M 6.007812 10.507812 "/>
<path style=" stroke:none;fill-rule:nonzero;fill:rgb(100%,100%,100%);fill-opacity:1;" d="M 3.851562 7.1875 L 3.496094 7.542969 L 4.46875 8.515625 L 4.824219 8.15625 Z M 3.851562 7.1875 "/>
<path style=" stroke:none;fill-rule:nonzero;fill:rgb(100%,100%,100%);fill-opacity:1;" d="M 4.816406 6.933594 C 4.808594 6.777344 4.9375 6.652344 5.085938 6.648438 C 5.25 6.652344 5.375 6.777344 5.371094 6.933594 C 5.375 7.089844 5.25 7.214844 5.085938 7.222656 C 4.9375 7.21875 4.8125 7.089844 4.816406 6.933594 Z M 4.816406 6.933594 "/>
<path style=" stroke:none;fill-rule:nonzero;fill:rgb(100%,100%,100%);fill-opacity:1;" d="M 5.71875 6.03125 C 5.722656 5.867188 5.847656 5.742188 6.007812 5.742188 C 6.160156 5.742188 6.285156 5.871094 6.292969 6.03125 C 6.285156 6.179688 6.160156 6.308594 6.007812 6.300781 C 5.847656 6.308594 5.722656 6.179688 5.71875 6.03125 Z M 5.71875 6.03125 "/>
<path style=" stroke:none;fill-rule:nonzero;fill:rgb(100%,100%,100%);fill-opacity:1;" d="M 2.046875 9.703125 C 2.039062 9.550781 2.167969 9.421875 2.320312 9.429688 C 2.480469 9.421875 2.605469 9.550781 2.605469 9.703125 C 2.605469 9.863281 2.480469 9.988281 2.320312 9.988281 C 2.167969 9.988281 2.039062 9.859375 2.046875 9.703125 Z M 2.046875 9.703125 "/>
<path style=" stroke:none;fill-rule:nonzero;fill:rgb(100%,100%,100%);fill-opacity:1;" d="M 2.953125 8.796875 C 2.953125 8.636719 3.078125 8.511719 3.238281 8.511719 C 3.390625 8.511719 3.519531 8.636719 3.511719 8.796875 C 3.519531 8.949219 3.390625 9.074219 3.238281 9.085938 C 3.078125 9.074219 2.953125 8.949219 2.953125 8.796875 Z M 2.953125 8.796875 "/>
<path style=" stroke:none;fill-rule:evenodd;fill:rgb(100%,100%,100%);fill-opacity:1;" d="M 6.835938 2.457031 C 8.042969 2.765625 9.011719 3.675781 9.386719 4.855469 L 9.835938 4.714844 C 9.402344 3.386719 8.324219 2.355469 6.964844 2.011719 L 6.835938 2.472656 Z M 6.835938 2.457031 "/>
<path style=" stroke:none;fill-rule:evenodd;fill:rgb(100%,100%,100%);fill-opacity:1;" d="M 7.078125 1.527344 L 7.207031 1.066406 C 8.894531 1.492188 10.242188 2.761719 10.777344 4.410156 L 10.304688 4.5625 C 9.824219 3.078125 8.601562 1.917969 7.078125 1.527344 Z M 7.078125 1.527344 "/>
</g>
</svg>
