<?xml version="1.0" encoding="UTF-8"?>
<svg xmlns="http://www.w3.org/2000/svg" xmlns:xlink="http://www.w3.org/1999/xlink" width="12" height="12" viewBox="0 0 12 12" version="1.1">
<g id="surface1">
<path style=" stroke:none;fill-rule:nonzero;fill:rgb(100%,100%,100%);fill-opacity:1;" d="M 1.875 8.960938 L 8.390625 8.960938 L 8.390625 10.203125 L 1.875 10.203125 Z M 1.875 8.960938 "/>
<path style=" stroke:none;fill-rule:nonzero;fill:rgb(100%,100%,100%);fill-opacity:1;" d="M 9.09375 8.960938 L 9.796875 8.960938 L 9.796875 10.203125 L 9.09375 10.203125 Z M 9.09375 8.960938 "/>
<path style=" stroke:none;fill-rule:nonzero;fill:rgb(100%,100%,100%);fill-opacity:1;" d="M 10.417969 8.960938 L 11.121094 8.960938 L 11.121094 10.203125 L 10.417969 10.203125 Z M 10.417969 8.960938 "/>
<path style=" stroke:none;fill-rule:nonzero;fill:rgb(100%,100%,100%);fill-opacity:1;" d="M 7.582031 2.9375 C 8.023438 4.148438 9.074219 3.667969 8.796875 5.246094 C 8.519531 6.828125 11.414062 6.488281 10.953125 8.382812 C 11.921875 6.625 9.988281 5.941406 9.785156 5.445312 C 9.578125 4.949219 9.980469 4.871094 9.78125 3.753906 C 9.625 2.871094 9.1875 2.746094 8.859375 2.316406 C 8.71875 2.128906 8.335938 1.566406 8.910156 1.078125 C 7.792969 1.050781 7.144531 1.726562 7.582031 2.9375 Z M 7.582031 2.9375 "/>
<path style=" stroke:none;fill-rule:nonzero;fill:rgb(100%,100%,100%);fill-opacity:1;" d="M 3.355469 5.570312 C 3.324219 5.558594 3.132812 5.359375 3.253906 4.988281 L 3.25 4.988281 C 3.566406 4.65625 3.835938 4.128906 3.835938 3.605469 C 3.835938 2.800781 3.28125 2.382812 2.671875 2.382812 C 2.058594 2.382812 1.527344 2.800781 1.527344 3.605469 C 1.527344 4.128906 1.777344 4.660156 2.09375 4.992188 C 2.214844 5.320312 1.996094 5.550781 1.949219 5.570312 C 1.308594 5.804688 0.558594 6.230469 0.558594 6.65625 C 0.558594 6.769531 0.558594 6.699219 0.558594 6.8125 C 0.558594 7.390625 1.660156 7.519531 2.675781 7.519531 C 3.695312 7.519531 4.78125 7.390625 4.78125 6.8125 C 4.78125 6.699219 4.78125 6.769531 4.78125 6.65625 C 4.78125 6.21875 4.027344 5.792969 3.355469 5.570312 Z M 3.355469 5.570312 "/>
<path style=" stroke:none;fill-rule:nonzero;fill:rgb(100%,100%,100%);fill-opacity:1;" d="M 5.324219 4.511719 C 5.292969 4.5 5.113281 4.457031 5.226562 4.105469 C 5.519531 3.796875 5.726562 3.296875 5.726562 2.804688 C 5.726562 2.050781 5.253906 1.65625 4.679688 1.65625 C 4.253906 1.65625 3.890625 1.871094 3.726562 2.285156 C 4.070312 2.570312 4.308594 3.011719 4.308594 3.605469 C 4.308594 4.238281 4.011719 4.816406 3.699219 5.191406 C 4.195312 5.378906 4.96875 5.753906 5.191406 6.332031 C 5.96875 6.289062 6.664062 6.125 6.664062 5.679688 C 6.664062 5.574219 6.664062 5.636719 6.664062 5.53125 C 6.664062 5.121094 5.953125 4.722656 5.324219 4.511719 Z M 5.324219 4.511719 "/>
</g>
</svg>
