<?xml version="1.0" encoding="UTF-8"?>
<svg xmlns="http://www.w3.org/2000/svg" xmlns:xlink="http://www.w3.org/1999/xlink" width="32" height="32" viewBox="0 0 32 32">
<path fill-rule="nonzero" fill="rgb(100%, 100%, 100%)" fill-opacity="1" d="M 26.667969 2.667969 C 26.054688 2.667969 25.523438 3.082031 25.375 3.675781 L 24.292969 8 L 4 8 C 3.589844 8 3.203125 8.1875 2.949219 8.511719 C 2.695312 8.835938 2.605469 9.257812 2.707031 9.65625 L 5.375 20.324219 C 5.523438 20.917969 6.054688 21.332031 6.667969 21.332031 L 20.957031 21.332031 L 20.292969 24 L 8 24 C 6.527344 24 5.332031 25.195312 5.332031 26.667969 C 5.332031 28.140625 6.527344 29.332031 8 29.332031 C 9.472656 29.332031 10.667969 28.140625 10.667969 26.667969 L 18.667969 26.667969 C 18.667969 28.140625 19.859375 29.332031 21.332031 29.332031 C 22.804688 29.332031 24 28.140625 24 26.667969 C 24 25.785156 23.570312 25.003906 22.910156 24.515625 L 23.957031 20.328125 L 23.960938 20.324219 L 27.707031 5.332031 L 29.332031 5.332031 C 30.070312 5.332031 30.667969 4.738281 30.667969 4 C 30.667969 3.261719 30.070312 2.667969 29.332031 2.667969 Z M 26.667969 2.667969 "/>
</svg>
