<?xml version="1.0" encoding="UTF-8"?>
<svg xmlns="http://www.w3.org/2000/svg" xmlns:xlink="http://www.w3.org/1999/xlink" width="32" height="32" viewBox="0 0 32 32">
<path fill-rule="nonzero" fill="rgb(100%, 100%, 100%)" fill-opacity="1" d="M 9.804688 7.832031 C 11.234375 7.832031 12.394531 6.671875 12.394531 5.242188 C 12.394531 3.808594 11.234375 2.648438 9.804688 2.648438 C 8.371094 2.648438 7.210938 3.808594 7.210938 5.242188 C 7.210938 6.671875 8.371094 7.832031 9.804688 7.832031 Z M 9.804688 7.832031 "/>
<path fill-rule="nonzero" fill="rgb(100%, 100%, 100%)" fill-opacity="1" d="M 21.46875 7.832031 C 22.902344 7.832031 24.0625 6.671875 24.0625 5.242188 C 24.0625 3.808594 22.902344 2.648438 21.46875 2.648438 C 20.039062 2.648438 18.878906 3.808594 18.878906 5.242188 C 18.878906 6.671875 20.039062 7.832031 21.46875 7.832031 Z M 21.46875 7.832031 "/>
<path fill-rule="nonzero" fill="rgb(100%, 100%, 100%)" fill-opacity="1" d="M 17.0625 9.390625 L 21.082031 10.425781 L 22.246094 11.851562 L 19.265625 19.5 L 13.304688 17.167969 L 15.894531 10.683594 Z M 17.0625 9.390625 "/>
<path fill="none" stroke-width="46.988499" stroke-linecap="round" stroke-linejoin="miter" stroke="rgb(100%, 100%, 100%)" stroke-opacity="1" stroke-miterlimit="10" d="M 156.540527 106.767578 L 203.552246 153.708496 C 215.305176 165.461426 231.730957 172.541504 245.820312 174.87793 L 299.841309 177.214355 C 306.921387 177.214355 316.26709 179.550781 323.347168 181.958008 L 384.448242 207.800293 C 417.299805 221.889648 433.796387 259.484863 422.043457 292.336426 L 407.954102 329.931641 " transform="matrix(0.0551724, 0, 0, 0.0551724, 0, 0)"/>
<path fill="none" stroke-width="46.988499" stroke-linecap="round" stroke-linejoin="round" stroke="rgb(100%, 100%, 100%)" stroke-opacity="1" stroke-miterlimit="10" d="M 346.853027 294.672852 L 264.58252 508.491211 " transform="matrix(0.0551724, 0, 0, 0.0551724, 0, 0)"/>
<path fill="none" stroke-width="46.988499" stroke-linecap="round" stroke-linejoin="round" stroke="rgb(100%, 100%, 100%)" stroke-opacity="1" stroke-miterlimit="10" d="M 290.424805 259.484863 L 229.394531 393.369141 " transform="matrix(0.0551724, 0, 0, 0.0551724, 0, 0)"/>
</svg>
