<?xml version="1.0" encoding="UTF-8"?>
<svg xmlns="http://www.w3.org/2000/svg" xmlns:xlink="http://www.w3.org/1999/xlink" width="32" height="32" viewBox="0 0 32 32">
<path fill-rule="nonzero" fill="rgb(100%, 96.078431%, 94.509804%)" fill-opacity="1" d="M 18.15625 6.300781 L 13.84375 6.300781 L 13.84375 8.457031 L 18.15625 8.457031 Z M 18.15625 6.300781 "/>
<path fill-rule="nonzero" fill="rgb(100%, 96.078431%, 94.509804%)" fill-opacity="1" d="M 17.402344 5.546875 L 14.492188 5.546875 L 14.492188 7.378906 L 17.402344 7.378906 Z M 17.402344 5.546875 "/>
<path fill-rule="nonzero" fill="rgb(100%, 96.078431%, 94.509804%)" fill-opacity="1" d="M 16.214844 3.066406 L 15.785156 3.066406 L 15.460938 6.300781 L 16.539062 6.300781 Z M 16.214844 3.066406 "/>
<path fill-rule="nonzero" fill="rgb(100%, 96.078431%, 94.509804%)" fill-opacity="1" d="M 14.8125 7.378906 C 14.058594 16 12.335938 18.800781 11.367188 21.390625 L 14.058594 21.390625 L 15.246094 17.078125 L 16.863281 17.078125 L 18.046875 21.390625 L 20.742188 21.390625 C 19.773438 18.800781 18.046875 16 17.292969 7.378906 Z M 14.8125 7.378906 "/>
<path fill-rule="nonzero" fill="rgb(100%, 96.078431%, 94.509804%)" fill-opacity="1" d="M 11.148438 28.933594 C 11.582031 27.316406 12.765625 24.621094 16 24.621094 C 19.234375 24.621094 20.527344 27.316406 20.851562 28.933594 L 24.621094 28.933594 L 21.066406 22.464844 L 10.933594 22.464844 L 7.378906 28.933594 Z M 11.148438 28.933594 "/>
</svg>
