<?xml version="1.0" encoding="UTF-8"?>
<svg xmlns="http://www.w3.org/2000/svg" xmlns:xlink="http://www.w3.org/1999/xlink" width="32" height="32" viewBox="0 0 32 32">
<path fill-rule="evenodd" fill="rgb(100%, 100%, 100%)" fill-opacity="1" d="M 9.332031 5.332031 L 8 5.332031 L 8 29.332031 L 10.667969 29.332031 L 10.667969 28 C 10.667969 27.261719 11.261719 26.667969 12 26.667969 C 12.738281 26.667969 13.332031 27.261719 13.332031 28 L 13.332031 29.332031 L 16 29.332031 L 16 28 C 16 27.261719 16.597656 26.667969 17.332031 26.667969 C 18.070312 26.667969 18.667969 27.261719 18.667969 28 L 18.667969 29.332031 L 21.332031 29.332031 L 21.332031 28 C 21.332031 27.261719 21.929688 26.667969 22.667969 26.667969 L 24 26.667969 L 24 2.667969 L 21.332031 2.667969 L 21.332031 4 C 21.332031 4.738281 20.738281 5.332031 20 5.332031 C 19.261719 5.332031 18.667969 4.738281 18.667969 4 L 18.667969 2.667969 L 16 2.667969 L 16 4 C 16 4.738281 15.402344 5.332031 14.667969 5.332031 C 13.929688 5.332031 13.332031 4.738281 13.332031 4 L 13.332031 2.667969 L 10.667969 2.667969 L 10.667969 4 C 10.667969 4.738281 10.070312 5.332031 9.332031 5.332031 Z M 21.332031 10.667969 L 21.332031 8 L 10.667969 8 L 10.667969 10.667969 Z M 21.332031 16 L 21.332031 13.332031 L 10.667969 13.332031 L 10.667969 16 Z M 10.667969 21.332031 L 10.667969 18.667969 L 16 18.667969 L 16 21.332031 Z M 10.667969 21.332031 "/>
</svg>
