<?xml version="1.0" encoding="UTF-8"?>
<svg xmlns="http://www.w3.org/2000/svg" xmlns:xlink="http://www.w3.org/1999/xlink" width="12" height="12" viewBox="0 0 12 12" version="1.1">
<g id="surface1">
<path style=" stroke:none;fill-rule:evenodd;fill:rgb(100%,100%,100%);fill-opacity:1;" d="M 9.335938 1.5 C 9.144531 1.5 8.957031 1.554688 8.796875 1.65625 C 8.640625 1.761719 8.515625 1.90625 8.441406 2.078125 C 8.367188 2.25 8.347656 2.4375 8.386719 2.621094 C 8.421875 2.800781 8.515625 2.96875 8.652344 3.101562 C 8.785156 3.230469 8.960938 3.320312 9.148438 3.359375 C 9.335938 3.394531 9.53125 3.375 9.707031 3.304688 C 9.886719 3.234375 10.035156 3.113281 10.144531 2.957031 C 10.25 2.804688 10.304688 2.625 10.304688 2.4375 C 10.304688 2.316406 10.28125 2.191406 10.230469 2.078125 C 10.183594 1.964844 10.113281 1.863281 10.023438 1.773438 C 9.933594 1.6875 9.824219 1.617188 9.707031 1.570312 C 9.589844 1.523438 9.464844 1.5 9.335938 1.5 Z M 2.675781 1.761719 L 2.277344 2.359375 L 6.65625 4.964844 L 6.65625 4.949219 L 7.351562 4.554688 C 7.347656 4.824219 7.417969 5.089844 7.550781 5.324219 C 7.6875 5.558594 7.882812 5.757812 8.117188 5.894531 L 8.132812 5.910156 L 9.59375 6.785156 L 10.117188 6 L 8.640625 5.109375 L 8.625 5.109375 C 8.457031 5.019531 8.367188 4.808594 8.367188 4.527344 L 8.367188 3.640625 C 8.367188 3.636719 8.367188 3.597656 8.367188 3.59375 C 8.367188 3.035156 7.945312 2.621094 7.257812 2.621094 C 6.5625 2.648438 5.90625 2.925781 5.410156 3.390625 Z M 4.488281 4.25 L 4.203125 4.441406 C 4.089844 4.542969 4.007812 4.667969 3.957031 4.808594 C 3.90625 4.949219 3.894531 5.101562 3.917969 5.246094 C 3.941406 5.394531 4.003906 5.53125 4.097656 5.648438 C 4.1875 5.769531 4.308594 5.863281 4.449219 5.925781 L 6.304688 6.742188 L 4.519531 7.703125 L 1.492188 6.070312 L 1 6.859375 L 7.148438 10.164062 C 7.554688 10.390625 8.015625 10.503906 8.484375 10.5 C 8.914062 10.503906 9.335938 10.40625 9.714844 10.222656 L 10.5 9.800781 L 10.007812 9.609375 C 9.320312 9.9375 8.328125 9.75 7.640625 9.378906 L 5.519531 8.242188 L 6.8125 7.542969 L 6.824219 7.542969 C 6.980469 7.453125 7.113281 7.328125 7.210938 7.179688 C 7.304688 7.027344 7.363281 6.859375 7.378906 6.683594 C 7.382812 6.507812 7.34375 6.335938 7.261719 6.179688 C 7.175781 6.023438 7.054688 5.890625 6.902344 5.796875 L 6.902344 5.78125 C 6.890625 5.773438 6.882812 5.773438 6.871094 5.765625 C 6.214844 5.324219 5.433594 4.855469 5.320312 4.789062 L 5.242188 4.746094 Z M 4.488281 4.25 "/>
</g>
</svg>
