<svg width="12" height="12" viewBox="0 0 580 580" fill="none" xmlns="http://www.w3.org/2000/svg">
<path d="M112.891 127.789C98.9793 127.794 85.6385 133.323 75.8012 143.16C65.9639 152.997 60.4351 166.338 60.4302 180.25V399.75C60.4351 413.662 65.9639 427.003 75.8012 436.84C85.6385 446.678 98.9793 452.206 112.891 452.211H235.653C242.376 452.197 249.034 450.891 255.265 448.364C261.507 450.896 268.178 452.202 274.914 452.211H317.154C329.279 452.198 341.025 447.986 350.396 440.293C359.767 432.599 366.185 421.898 368.56 410.009H373.5C375.877 421.911 382.306 432.622 391.693 440.317C401.08 448.012 412.843 452.215 424.981 452.211H467.108C481.02 452.206 494.361 446.678 504.199 436.84C514.036 427.003 519.565 413.662 519.57 399.75V180.25C519.565 166.338 514.036 152.997 504.199 143.16C494.361 133.323 481.02 127.794 467.108 127.789H410.536C403.068 127.805 395.689 129.414 388.892 132.51C382.095 135.606 376.038 140.117 371.124 145.741C366.198 140.103 360.122 135.583 353.305 132.487C346.488 129.39 339.087 127.789 331.599 127.789H274.914C267.71 127.795 260.585 129.285 253.982 132.164C247.403 129.295 240.304 127.806 233.126 127.789H112.891Z" fill="#FEFEFE" fill-opacity="0.788732"/>
<path d="M112.882 180.244H233.121V223.029H157.437V263.903H228.608V306.688H157.437V356.971H235.667V399.757H112.882V180.244" fill="#6C003D"/>
<path d="M274.898 180.244H331.603L370.95 297.719L410.528 180.244H467.118V399.757H424.994V239.202L385.184 357.56H356.947L317.138 239.202V399.757H274.898V180.244" fill="#6C003D"/>
</svg>
