<svg width="32" height="32" viewBox="0 0 12 12" fill="none" xmlns="http://www.w3.org/2000/svg">
<path d="M9.5 6C9.5 6.16959 9.4879 6.33655 9.46449 6.5H9.5V6ZM9.5 6V5.5H9.46449C9.4879 5.66345 9.5 5.83041 9.5 6ZM6 9.5C6.95367 9.5 7.8187 9.11804 8.44948 8.5H11H11.5V8V4V3.5H11H8.44948C7.8187 2.88196 6.95368 2.5 6 2.5C5.04633 2.5 4.1813 2.88196 3.55052 3.5H1H0.5V4V5V5.5H1H2.53551C2.5121 5.66345 2.5 5.83041 2.5 6C2.5 6.16959 2.5121 6.33655 2.53551 6.5H1H0.5V7V8V8.5H1H3.55052C4.1813 9.11804 5.04632 9.5 6 9.5ZM7.93712 6.5H4.06288C4.02187 6.34051 4 6.17305 4 6C4 5.82695 4.02187 5.65949 4.06288 5.5H7.93712C7.97813 5.65949 8 5.82695 8 6C8 6.17305 7.97813 6.34051 7.93712 6.5Z" fill="#B02818" stroke="#777777"/>
</svg>
