<?xml version="1.0" encoding="UTF-8"?>
<svg width="32" height="32" fill="none" version="1.1" viewBox="0 0 580 580" xmlns="http://www.w3.org/2000/svg" xmlns:cc="http://creativecommons.org/ns#" xmlns:dc="http://purl.org/dc/elements/1.1/" xmlns:rdf="http://www.w3.org/1999/02/22-rdf-syntax-ns#">
 <title>WEDKLP19</title>
 <desc>weed kelp</desc>
 <metadata>
  <!-- Created for Openseamap, CC BY-SA 2.0, 2021-12-05, josail, weed kelp simplified SVG based on IHO NCWG2-08.9A J13.4, https://legacy.iho.int/mtg_docs/com_wg/NCWG/NCWG2/NCWG2-08.9A%20seagrass.pdf -->
  <rdf:RDF>
   <cc:Work rdf:about="">
    <dc:title>WEDKLP19</dc:title>
    <dc:format>image/svg+xml</dc:format>
    <dc:type rdf:resource="http://purl.org/dc/dcmitype/StillImage"/>
   </cc:Work>
  </rdf:RDF>
 </metadata>
 <g transform="matrix(15.8 0 0 15.8 -1.47 154)" fill="none" stroke="#800000" stroke-linejoin="round" stroke-width="1.27">
  <path d="m2.97 8.7c1.31 1.71 2.62 3.42 3.87 4.29 1.25 0.88 2.44 0.92 3.63 0.96"/>
  <path d="m25.2 8.45c1.68-1.68 3.35-3.36 5.13-3.74 1.77-0.38 3.65 0.53 5.53 1.44"/>
  <path d="m18 12c1.97-1.56 3.94-3.13 6.12-3.5 2.19-0.38 5.23 1.12 7 1.25 1.77 0.12 2.7-0.19 3.63-0.5"/>
  <path d="m15.8 6.17c1.26-1.26 2.51-2.52 3.84-2.81 1.34-0.29 2.75 0.4 4.16 1.08"/>
  <path d="m10.4 8.82c1.48-1.17 2.95-2.34 4.59-2.62s3.93 0.84 5.25 0.93c1.33 0.1 2.03-0.14 2.72-0.37"/>
  <path d="m0.97 9.32c2.45-0.79 4.91-1.58 8.44-0.87 3.52 0.71 9.32 4.33 12.7 5.12 3.4 0.79 5.54 0.21 7.68-0.37"/>
 </g>
</svg>
