<?xml version="1.0" encoding="UTF-8"?>
<svg xmlns="http://www.w3.org/2000/svg" xmlns:xlink="http://www.w3.org/1999/xlink" width="32" height="32" viewBox="0 0 32 32">
<path fill-rule="nonzero" fill="rgb(100%, 100%, 100%)" fill-opacity="1" d="M 2.667969 6.667969 C 2.667969 5.929688 3.261719 5.332031 4 5.332031 L 9.332031 5.332031 C 10.070312 5.332031 10.667969 5.929688 10.667969 6.667969 L 10.667969 8 L 5.332031 8 L 5.332031 9.332031 L 10.667969 9.332031 L 10.667969 10.667969 L 5.332031 10.667969 L 5.332031 12 L 10.667969 12 L 10.667969 13.332031 L 5.332031 13.332031 L 5.332031 14.667969 L 10.667969 14.667969 L 10.667969 16 L 5.332031 16 L 5.332031 17.332031 L 10.667969 17.332031 L 10.667969 18.667969 L 5.332031 18.667969 L 5.332031 20 L 10.667969 20 L 10.667969 21.332031 L 5.332031 21.332031 L 5.332031 22.667969 L 10.667969 22.667969 L 10.667969 25.332031 C 10.667969 26.070312 10.070312 26.667969 9.332031 26.667969 L 4 26.667969 C 3.261719 26.667969 2.667969 26.070312 2.667969 25.332031 Z M 2.667969 6.667969 "/>
<path fill-rule="evenodd" fill="rgb(100%, 100%, 100%)" fill-opacity="1" d="M 27.304688 5.496094 C 27.949219 5.847656 28.1875 6.660156 27.835938 7.304688 L 22.851562 16.445312 L 24.160156 18.839844 C 24.53125 18.726562 24.925781 18.667969 25.332031 18.667969 C 27.542969 18.667969 29.332031 20.457031 29.332031 22.667969 C 29.332031 24.875 27.542969 26.667969 25.332031 26.667969 C 23.125 26.667969 21.332031 24.875 21.332031 22.667969 C 21.332031 21.847656 21.578125 21.085938 22 20.453125 L 21.332031 19.226562 L 20.664062 20.453125 C 21.085938 21.085938 21.332031 21.847656 21.332031 22.667969 C 21.332031 24.875 19.542969 26.667969 17.332031 26.667969 C 15.125 26.667969 13.332031 24.875 13.332031 22.667969 C 13.332031 20.457031 15.125 18.667969 17.332031 18.667969 C 17.742188 18.667969 18.136719 18.726562 18.507812 18.839844 L 19.816406 16.445312 L 14.832031 7.304688 C 14.476562 6.660156 14.714844 5.847656 15.363281 5.496094 C 16.007812 5.144531 16.820312 5.382812 17.171875 6.027344 L 21.332031 13.660156 L 25.496094 6.027344 C 25.847656 5.382812 26.65625 5.144531 27.304688 5.496094 Z M 17.332031 24 C 18.070312 24 18.667969 23.402344 18.667969 22.667969 C 18.667969 21.929688 18.070312 21.332031 17.332031 21.332031 C 16.597656 21.332031 16 21.929688 16 22.667969 C 16 23.402344 16.597656 24 17.332031 24 Z M 25.332031 24 C 24.597656 24 24 23.402344 24 22.667969 C 24 21.929688 24.597656 21.332031 25.332031 21.332031 C 26.070312 21.332031 26.667969 21.929688 26.667969 22.667969 C 26.667969 23.402344 26.070312 24 25.332031 24 Z M 25.332031 24 "/>
</svg>
