<?xml version="1.0" encoding="UTF-8"?>
<svg xmlns="http://www.w3.org/2000/svg" xmlns:xlink="http://www.w3.org/1999/xlink" width="32" height="32" viewBox="0 0 32 32">
<path fill="none" stroke-width="36.837101" stroke-linecap="butt" stroke-linejoin="miter" stroke="rgb(24.705882%, 24.705882%, 24.705882%)" stroke-opacity="1" stroke-miterlimit="10" d="M 538.015137 499.074707 L 41.984863 499.074707 " transform="matrix(0.0551724, 0, 0, 0.0551724, 0, 0)"/>
<path fill-rule="nonzero" fill="rgb(24.705882%, 24.705882%, 24.705882%)" fill-opacity="1" d="M 10.347656 2.710938 L 10.347656 14.09375 L 7.425781 15.332031 L 7.425781 12.589844 C 7.425781 12.589844 7.398438 11.074219 6.210938 11.417969 C 5.023438 11.761719 5.03125 13.382812 5.03125 13.382812 L 5.03125 16.34375 L 2.140625 17.566406 L 2.140625 2.710938 Z M 8.9375 3.675781 L 7.039062 3.742188 L 7.039062 6.265625 L 8.9375 6.042969 Z M 5.375 3.796875 L 3.476562 3.863281 L 3.476562 6.6875 L 5.375 6.460938 Z M 8.9375 7.144531 L 7.039062 7.441406 L 7.039062 9.96875 L 8.9375 9.511719 Z M 5.375 7.703125 L 3.476562 8 L 3.476562 10.824219 L 5.375 10.367188 Z M 5.375 7.703125 "/>
<path fill-rule="nonzero" fill="rgb(24.705882%, 24.705882%, 24.705882%)" fill-opacity="1" d="M 23.339844 2.792969 L 23.339844 14.28125 L 29.859375 17.261719 L 29.859375 2.792969 Z M 28.550781 3.621094 L 28.550781 6.617188 L 27.109375 6.523438 L 27.109375 3.695312 Z M 25.851562 3.761719 L 25.851562 6.441406 L 24.410156 6.347656 L 24.410156 3.832031 Z M 24.410156 8.066406 L 25.851562 8.277344 L 25.851562 11.394531 L 24.410156 10.988281 Z M 27.109375 8.460938 L 28.550781 8.667969 L 28.550781 12.152344 L 27.109375 11.746094 Z M 27.109375 8.460938 "/>
<path fill-rule="nonzero" fill="rgb(24.705882%, 24.705882%, 24.705882%)" fill-opacity="1" d="M 12.222656 2.792969 L 12.222656 14.097656 L 14.375 14.097656 L 14.375 11.640625 C 14.375 11.640625 14.429688 9.917969 16.898438 9.929688 C 19.371094 9.9375 19.347656 11.640625 19.347656 11.640625 L 19.347656 14.097656 L 21.464844 14.097656 L 21.464844 2.792969 Z M 13.363281 3.707031 L 15.8125 3.707031 L 15.8125 5.9375 L 13.363281 5.9375 Z M 17.960938 3.707031 L 20.410156 3.707031 L 20.410156 5.9375 L 17.960938 5.9375 Z M 13.363281 6.980469 L 15.8125 6.980469 L 15.8125 9.210938 L 13.363281 9.210938 Z M 17.960938 6.980469 L 20.410156 6.980469 L 20.410156 9.210938 L 17.960938 9.210938 Z M 17.960938 6.980469 "/>
</svg>
