<?xml version="1.0" encoding="UTF-8"?>
<svg xmlns="http://www.w3.org/2000/svg" xmlns:xlink="http://www.w3.org/1999/xlink" width="12" height="12" viewBox="0 0 12 12" version="1.1">
<g id="surface1">
<path style=" stroke:none;fill-rule:evenodd;fill:rgb(100%,100%,100%);fill-opacity:1;" d="M 2 2 C 1.449219 2 1 2.449219 1 3 L 1 9 C 1 9.550781 1.449219 10 2 10 L 10 10 C 10.550781 10 11 9.550781 11 9 L 11 3 C 11 2.449219 10.550781 2 10 2 Z M 2 3 L 3 3 L 3 4 L 2 4 Z M 9 3 L 10 3 L 10 4 L 9 4 Z M 3 5.5 L 2 5.5 L 2 6.5 L 3 6.5 Z M 9 5.5 L 10 5.5 L 10 6.5 L 9 6.5 Z M 3 8 L 2 8 L 2 9 L 3 9 Z M 9 8 L 10 8 L 10 9 L 9 9 Z M 9 8 "/>
</g>
</svg>
