<?xml version="1.0" encoding="UTF-8"?>
<svg xmlns="http://www.w3.org/2000/svg" xmlns:xlink="http://www.w3.org/1999/xlink" width="32" height="32" viewBox="0 0 32 32">
<path fill-rule="nonzero" fill="rgb(100%, 100%, 100%)" fill-opacity="1" d="M 17.308594 8.152344 C 18.753906 8.152344 19.925781 6.980469 19.925781 5.535156 C 19.925781 4.089844 18.753906 2.917969 17.308594 2.917969 C 15.863281 2.917969 14.691406 4.089844 14.691406 5.535156 C 14.691406 6.980469 15.863281 8.152344 17.308594 8.152344 Z M 17.308594 8.152344 "/>
<path fill-rule="nonzero" fill="rgb(100%, 100%, 100%)" fill-opacity="1" d="M 23.847656 16.785156 C 25.550781 16.785156 26.988281 18.222656 26.988281 19.925781 C 26.988281 21.625 25.550781 23.0625 23.847656 23.0625 C 22.148438 23.0625 20.710938 21.625 20.710938 19.925781 C 20.710938 18.222656 22.148438 16.785156 23.847656 16.785156 Z M 23.847656 14.691406 C 20.972656 14.691406 18.617188 17.046875 18.617188 19.925781 C 18.617188 22.800781 20.972656 25.15625 23.847656 25.15625 C 26.726562 25.15625 29.082031 22.800781 29.082031 19.925781 C 29.082031 17.046875 26.726562 14.691406 23.847656 14.691406 Z M 23.847656 14.691406 "/>
<path fill-rule="nonzero" fill="rgb(100%, 100%, 100%)" fill-opacity="1" d="M 8.152344 20.710938 C 9.851562 20.710938 11.289062 22.148438 11.289062 23.847656 C 11.289062 25.550781 9.851562 26.988281 8.152344 26.988281 C 6.449219 26.988281 5.011719 25.550781 5.011719 23.847656 C 5.011719 22.148438 6.449219 20.710938 8.152344 20.710938 Z M 8.152344 18.617188 C 5.273438 18.617188 2.917969 20.972656 2.917969 23.847656 C 2.917969 26.726562 5.273438 29.082031 8.152344 29.082031 C 11.027344 29.082031 13.382812 26.726562 13.382812 23.847656 C 13.382812 20.972656 11.027344 18.617188 8.152344 18.617188 Z M 8.152344 18.617188 "/>
<path fill-rule="nonzero" fill="rgb(100%, 100%, 100%)" fill-opacity="1" d="M 15.476562 18.746094 L 15.347656 16.390625 L 11.421875 14.691406 L 14.953125 10.375 L 18.878906 10.769531 L 14.167969 7.234375 C 13.382812 6.582031 12.335938 6.710938 11.8125 7.496094 C 10.507812 8.9375 8.542969 11.289062 7.496094 12.597656 C 6.320312 14.039062 6.84375 16.261719 8.675781 16.785156 Z M 15.476562 18.746094 "/>
<path fill-rule="nonzero" fill="rgb(100%, 100%, 100%)" fill-opacity="1" stroke-width="47.417999" stroke-linecap="butt" stroke-linejoin="miter" stroke="rgb(100%, 100%, 100%)" stroke-opacity="1" stroke-miterlimit="10" d="M 408.520508 218.845215 L 318.461914 209.35791 L 240.227051 150.097656 " transform="matrix(0.0551724, 0, 0, 0.0551724, 0, 0)"/>
<path fill="none" stroke-width="47.417999" stroke-linecap="butt" stroke-linejoin="miter" stroke="rgb(100%, 100%, 100%)" stroke-opacity="1" stroke-miterlimit="10" d="M 313.718262 432.23877 L 273.432617 313.718262 L 183.303223 268.688965 " transform="matrix(0.0551724, 0, 0, 0.0551724, 0, 0)"/>
<path fill-rule="nonzero" fill="rgb(100%, 100%, 100%)" fill-opacity="1" d="M 3.964844 11.8125 C 3.050781 11.160156 3.050781 9.851562 3.703125 8.9375 L 5.40625 6.84375 C 6.710938 5.273438 8.9375 5.011719 10.507812 6.320312 L 10.769531 6.582031 L 6.84375 11.550781 C 6.058594 12.46875 4.882812 12.597656 3.964844 11.8125 Z M 3.964844 11.8125 "/>
</svg>
