<svg width="32" height="32" viewBox="0 0 16 16" fill="none" xmlns="http://www.w3.org/2000/svg">
<path fill-rule="evenodd" clip-rule="evenodd" d="M4 4.125C3.76794 4.12502 3.5454 4.21722 3.38131 4.38131C3.21722 4.5454 3.12502 4.76794 3.125 5V11C3.12502 11.2321 3.21722 11.4546 3.38131 11.6187C3.5454 11.7828 3.76794 11.875 4 11.875H12C12.2321 11.875 12.4546 11.7828 12.6187 11.6187C12.7828 11.4546 12.875 11.2321 12.875 11V5C12.875 4.76794 12.7828 4.5454 12.6187 4.38131C12.4546 4.21722 12.2321 4.12502 12 4.125H4Z" fill="#FEFEFE"/>
<path d="M12 5H4V7H12V5Z" fill="#3E78DA"/>
<path d="M12 7H4V9H12V7Z" fill="#F7CD30"/>
<path d="M12 9H4V11H12V9Z" fill="#EA7D09"/>
</svg>
