<?xml version="1.0" encoding="UTF-8"?>
<svg xmlns="http://www.w3.org/2000/svg" xmlns:xlink="http://www.w3.org/1999/xlink" width="12" height="12" viewBox="0 0 12 12" version="1.1">
<g id="surface1">
<path style=" stroke:none;fill-rule:evenodd;fill:rgb(100%,100%,100%);fill-opacity:1;" d="M 3.085938 3 C 3.03125 2.84375 3 2.675781 3 2.5 C 3 1.671875 3.671875 1 4.5 1 C 5.328125 1 6 1.671875 6 2.5 C 6 1.671875 6.671875 1 7.5 1 C 8.328125 1 9 1.671875 9 2.5 C 9 2.675781 8.96875 2.84375 8.914062 3 L 9 3 C 9.550781 3 10 3.449219 10 4 L 10 9 C 10 9.550781 9.550781 10 9 10 L 3 10 C 2.449219 10 2 9.550781 2 9 L 2 4 C 2 3.449219 2.449219 3 3 3 Z M 5 2.5 L 5 2.953125 L 4.945312 3 L 4.5 3 C 4.222656 3 4 2.777344 4 2.5 C 4 2.222656 4.222656 2 4.5 2 C 4.777344 2 5 2.222656 5 2.5 Z M 6.917969 4 L 7.886719 5.183594 C 8.0625 5.398438 8.03125 5.710938 7.816406 5.886719 C 7.601562 6.0625 7.289062 6.03125 7.113281 5.816406 L 6 4.457031 L 4.886719 5.816406 C 4.710938 6.03125 4.398438 6.0625 4.183594 5.886719 C 3.96875 5.710938 3.9375 5.398438 4.113281 5.183594 L 5.082031 4 L 3 4 L 3 9 L 9 9 L 9 4 Z M 7.5 3 C 7.777344 3 8 2.777344 8 2.5 C 8 2.222656 7.777344 2 7.5 2 C 7.222656 2 7 2.222656 7 2.5 L 7 2.953125 L 7.054688 3 Z M 7.5 3 "/>
</g>
</svg>
