<svg width="32" height="32" viewBox="0 0 580 580" fill="none" xmlns="http://www.w3.org/2000/svg">
<g clip-path="url(#clip0)">
<path opacity="0.426087" d="M188.969 375.687C185.775 375.664 182.619 376.373 179.743 377.759C176.866 379.146 174.346 381.174 172.375 383.687L169.531 387.343L169.469 387.406L93.8125 483.187H61.4062C55.8712 483.192 50.5642 485.392 46.6503 489.306C42.7365 493.22 40.5357 498.527 40.5312 504.062V529.062C40.5357 534.597 42.7365 539.904 46.6503 543.818C50.5642 547.732 55.8712 549.933 61.4062 549.937H228.656C240.088 568.621 260.519 581.156 283.812 581.156C307.106 581.156 327.515 568.616 338.938 549.937H495C500.535 549.933 505.842 547.732 509.756 543.818C513.67 539.904 515.871 534.597 515.875 529.062V504.062C515.871 498.527 513.67 493.22 509.756 489.306C505.842 485.392 500.535 483.192 495 483.187H472.25L399.312 387.875L399.281 387.843L396.406 384.062C394.468 381.521 391.972 379.459 389.112 378.035C386.251 376.61 383.102 375.86 379.906 375.843L375.094 375.812C375.052 375.812 375.01 375.812 374.969 375.812L193.719 375.718H193.594L188.969 375.687L188.969 375.687Z" fill="#8D8D8D"/>
<path d="M197.83 416.509L370.809 415.28L437.779 503.258L126.246 504.936L197.83 416.509Z" fill="#BDBDBD"/>
<path d="M192.982 406.333L103.664 518.539L457.669 515.61L374.358 406.456L192.982 406.333Z" stroke="#363636" stroke-width="19.5"/>
<path d="M60.8232 516.57H494.405" stroke="black" stroke-width="25"/>
<path d="M316.803 516.401C316.803 525.314 313.262 533.862 306.96 540.164C300.658 546.466 292.11 550.007 283.197 550.007C274.285 550.007 265.737 546.466 259.435 540.164C253.132 533.862 249.592 525.314 249.592 516.401C249.592 507.489 253.132 498.941 259.435 492.639C265.737 486.336 274.285 482.796 283.197 482.796C292.11 482.796 300.658 486.336 306.96 492.639C313.262 498.941 316.803 507.489 316.803 516.401V516.401Z" fill="#FEFEFE" stroke="black" stroke-width="20.5723" stroke-miterlimit="10" stroke-linecap="round" stroke-linejoin="round"/>
</g>
<defs>
<clipPath id="clip0">
<path d="M0 0H580V580H0V0Z" fill="white"/>
</clipPath>
</defs>
</svg>
