<svg width="12" height="12" viewBox="0 0 48 48" fill="none" xmlns="http://www.w3.org/2000/svg">
<path d="M24.0001 0C22.8956 0 22.0001 0.895431 22.0001 2C22.0001 3.10457 22.8956 4 24.0001 4C25.1047 4 26.0001 3.10457 26.0001 2C26.0001 0.895431 25.1047 0 24.0001 0Z" fill="#3f3f3f"/>
<path d="M40.9707 7.02944C40.1896 6.24839 38.9233 6.24839 38.1423 7.02944C37.3612 7.81049 37.3612 9.07682 38.1423 9.85786C38.9233 10.6389 40.1896 10.6389 40.9707 9.85786C41.7517 9.07682 41.7517 7.81049 40.9707 7.02944Z" fill="#3f3f3f"/>
<path d="M48.0001 24C48.0001 22.8954 47.1047 22 46.0001 22C44.8956 22 44.0001 22.8954 44.0001 24C44.0001 25.1046 44.8956 26 46.0001 26C47.1047 26 48.0001 25.1046 48.0001 24Z" fill="#3f3f3f"/>
<path d="M40.9707 40.9706C41.7517 40.1895 41.7517 38.9232 40.9707 38.1421C40.1896 37.3611 38.9233 37.3611 38.1423 38.1421C37.3612 38.9232 37.3612 40.1895 38.1423 40.9706C38.9233 41.7516 40.1896 41.7516 40.9707 40.9706Z" fill="#3f3f3f"/>
<path d="M24.0001 44C22.8956 44 22.0001 44.8954 22.0001 46C22.0001 47.1046 22.8956 48 24.0001 48C25.1047 48 26.0001 47.1046 26.0001 46C26.0001 44.8954 25.1047 44 24.0001 44Z" fill="#3f3f3f"/>
<path d="M24.0001 40C32.8367 40 40.0001 32.8366 40.0001 24C40.0001 15.1634 32.8367 8 24.0001 8V12C30.6275 12 36.0001 17.3726 36.0001 24C36.0001 30.6274 30.6275 36 24.0001 36V40Z" fill="#3f3f3f"/>
<path d="M22.0001 35.1716V40.8285L19.4144 43.4142C18.6333 44.1953 17.367 44.1953 16.5859 43.4142C15.8049 42.6332 15.8049 41.3668 16.5859 40.5858L22.0001 35.1716Z" fill="#3f3f3f"/>
<path d="M22.0001 20.5359V27.4641L15.3253 31.3178L13.3436 38.7138C13.0577 39.7807 11.961 40.4139 10.8941 40.128C9.82713 39.8421 9.19396 38.7455 9.47985 37.6785L10.4263 34.1463L5.9476 36.7321C4.99102 37.2843 3.76783 36.9566 3.21555 36C2.66326 35.0434 2.99102 33.8202 3.9476 33.268L8.42631 30.6822L4.89406 29.7357C3.82713 29.4498 3.19397 28.3532 3.47985 27.2862C3.76573 26.2193 4.86241 25.5861 5.92934 25.872L13.3253 27.8537L20.0002 24L13.3253 20.1463L5.92934 22.128C4.86241 22.4139 3.76573 21.7807 3.47985 20.7138C3.19397 19.6469 3.82713 18.5502 4.89406 18.2643L8.42631 17.3178L3.9476 14.7321C2.99101 14.1798 2.66326 12.9566 3.21555 12C3.76783 11.0434 4.99101 10.7157 5.9476 11.268L10.4263 13.8537L9.47985 10.3215C9.19397 9.25455 9.82713 8.15788 10.8941 7.872C11.961 7.58611 13.0577 8.21928 13.3436 9.28621L15.3253 16.6822L22.0001 20.5359Z" fill="#3f3f3f"/>
<path d="M22.0001 7.17155V12.8284L16.5859 7.41421C15.8049 6.63316 15.8049 5.36684 16.5859 4.58579C17.367 3.80474 18.6333 3.80474 19.4144 4.58579L22.0001 7.17155Z" fill="#3f3f3f"/>
</svg>
