<svg width="32" height="32" viewBox="0 0 16 16" fill="none" xmlns="http://www.w3.org/2000/svg">
<path d="M8.00002 11.843H11.211C11.211 11.843 13.0944 10.1318 12.4388 7.42174C12.4388 7.42174 11.5691 4.15695 8.00002 4.15695C4.43097 4.15695 3.56126 7.42039 3.56126 7.42039C2.90561 10.1305 4.78909 11.8416 4.78909 11.8416L8.00002 11.843V11.843Z" fill="#FEFEFE" stroke="#1D71B9" stroke-width="0.281048" stroke-miterlimit="10"/>
<path d="M7.17607 10.8763H5.48108V8.77609L7.17607 10.459V10.8763Z" fill="#22AF22"/>
<path d="M10.5149 8.31297V6.12119L7.99597 8.60646L5.48108 6.12119V8.31297L7.99597 10.8763L10.5149 8.31297Z" fill="#1CA51C"/>
<path d="M8.82123 10.8763H10.5149V8.77609L8.82123 10.459V10.8763Z" fill="#1CA51C"/>
<path d="M8.00402 11.3395H10.935C10.935 11.3395 12.5441 9.73444 11.8992 7.49981C11.8992 7.49981 10.9713 4.63834 8.00133 4.63834C5.03138 4.63834 4.10215 7.49981 4.10215 7.49981C3.53722 9.75045 5.01691 11.3395 5.01691 11.3395H8.00402Z" stroke="#1D71B9" stroke-width="0.201945" stroke-miterlimit="10"/>
</svg>
