<?xml version="1.0" encoding="UTF-8"?>
<svg xmlns="http://www.w3.org/2000/svg" xmlns:xlink="http://www.w3.org/1999/xlink" width="12" height="12" viewBox="0 0 12 12">
<defs>
<filter id="filter-remove-color" x="0%" y="0%" width="100%" height="100%">
<feColorMatrix color-interpolation-filters="sRGB" values="0 0 0 0 1 0 0 0 0 1 0 0 0 0 1 0 0 0 1 0" />
</filter>
<mask id="mask-0">
<g filter="url(#filter-remove-color)">
<rect x="-1.2" y="-1.2" width="14.4" height="14.4" fill="rgb(0%, 0%, 0%)" fill-opacity="0.2"/>
</g>
</mask>
<clipPath id="clip-0">
<rect x="0" y="0" width="12" height="12"/>
</clipPath>
<g id="source-7" clip-path="url(#clip-0)">
<path fill-rule="evenodd" fill="rgb(100%, 100%, 100%)" fill-opacity="1" d="M 6 10 C 8.210938 10 10 8.210938 10 6 C 10 3.789062 8.210938 2 6 2 C 3.789062 2 2 3.789062 2 6 C 2 8.210938 3.789062 10 6 10 Z M 6 9 C 7.65625 9 9 7.65625 9 6 C 9 4.34375 7.65625 3 6 3 C 4.34375 3 3 4.34375 3 6 C 3 7.65625 4.34375 9 6 9 Z M 6 9 "/>
</g>
</defs>
<path fill-rule="evenodd" fill="rgb(100%, 100%, 100%)" fill-opacity="1" d="M 6 11 C 8.761719 11 11 8.761719 11 6 C 11 3.238281 8.761719 1 6 1 C 3.238281 1 1 3.238281 1 6 C 1 8.761719 3.238281 11 6 11 Z M 6 10 C 8.210938 10 10 8.210938 10 6 C 10 3.789062 8.210938 2 6 2 C 3.789062 2 2 3.789062 2 6 C 2 8.210938 3.789062 10 6 10 Z M 6 10 "/>
<g mask="url(#mask-0)">
<use xlink:href="#source-7"/>
</g>
<path fill-rule="nonzero" fill="rgb(100%, 100%, 100%)" fill-opacity="1" d="M 5.5 6 L 5.5 7 L 4.5 7 L 4.5 6 Z M 5.5 6 "/>
<path fill-rule="nonzero" fill="rgb(100%, 100%, 100%)" fill-opacity="1" d="M 6.5 6 L 6.5 7 L 7.5 7 L 7.5 6 Z M 6.5 6 "/>
<path fill-rule="evenodd" fill="rgb(100%, 100%, 100%)" fill-opacity="1" d="M 3.5 4.339844 C 3.363281 4.542969 3.253906 4.765625 3.171875 5 L 3.5 5 L 3.5 6 L 3 6 C 3 6.351562 3.058594 6.6875 3.171875 7 L 3.5 7 L 3.5 7.660156 C 3.578125 7.777344 3.667969 7.894531 3.765625 8 L 4.5 8 L 4.5 8.597656 C 4.804688 8.773438 5.140625 8.898438 5.5 8.957031 L 5.5 8 L 6.5 8 L 6.5 8.957031 C 6.859375 8.898438 7.195312 8.773438 7.5 8.597656 L 7.5 8 L 8.234375 8 C 8.332031 7.894531 8.421875 7.777344 8.5 7.660156 L 8.5 7 L 8.828125 7 C 8.941406 6.6875 9 6.351562 9 6 L 8.5 6 L 8.5 5 L 8.828125 5 C 8.746094 4.765625 8.636719 4.542969 8.5 4.339844 L 8.5 5 L 7.5 5 L 7.5 4 L 8.234375 4 C 8.023438 3.765625 7.777344 3.5625 7.5 3.402344 L 7.5 4 L 6.5 4 L 6.5 3.042969 C 6.335938 3.015625 6.171875 3 6 3 C 5.828125 3 5.664062 3.015625 5.5 3.042969 L 5.5 4 L 4.5 4 L 4.5 3.402344 C 4.222656 3.5625 3.976562 3.765625 3.765625 4 L 4.5 4 L 4.5 5 L 3.5 5 Z M 5.5 5 L 5.5 4 L 6.5 4 L 6.5 5 Z M 5.5 6 L 5.5 5 L 4.5 5 L 4.5 6 L 3.5 6 L 3.5 7 L 4.5 7 L 4.5 8 L 5.5 8 L 5.5 7 L 6.5 7 L 6.5 8 L 7.5 8 L 7.5 7 L 8.5 7 L 8.5 6 L 7.5 6 L 7.5 5 L 6.5 5 L 6.5 6 Z M 5.5 6 "/>
</svg>
