<svg width="64" height="64" viewBox="0 0 1060 1060" fill="none" xmlns="http://www.w3.org/2000/svg">
<path opacity="0.43913" d="M531.975 43.0664C526.422 42.8741 520.868 45.8431 517.943 50.5664L453.318 154.941C450.372 159.714 450.229 166.086 452.957 170.986C455.686 175.887 461.178 179.12 466.787 179.129H501.318V516.066C501.322 520.213 503.031 524.333 505.963 527.266C508.895 530.198 513.015 531.907 517.162 531.91H542.162C546.309 531.906 550.429 530.198 553.361 527.266C556.294 524.333 558.002 520.213 558.006 516.066V179.129H593.193C598.751 179.127 604.199 175.962 606.956 171.137C609.712 166.311 609.67 160.011 606.85 155.223L545.068 50.8477C542.374 46.2882 537.267 43.2531 531.975 43.0664Z" fill="#ACD8F3"/>
<path d="M529.999 514.066V114.327" stroke="black" stroke-width="25"/>
<path d="M466.8 163.31L593.198 163.315L531.418 58.9126" fill="black"/>
</svg>
