<svg width="32" height="32" viewBox="0 0 580 580" fill="none" xmlns="http://www.w3.org/2000/svg">
<g clip-path="url(#clip0)">
<path opacity="0.426087" d="M260.781 213.125C255.254 213.128 249.954 215.325 246.046 219.234C242.138 223.142 239.941 228.442 239.938 233.969V300.844V367.656V434.5V468.375C235.162 472.681 231.075 477.705 227.75 483.25H189.656C184.129 483.253 178.829 485.45 174.921 489.358C171.013 493.267 168.816 498.567 168.812 504.094V529.094C168.816 534.621 171.013 539.921 174.921 543.829C178.829 547.737 184.129 549.934 189.656 549.938H228.094C239.508 568.611 259.925 581.156 283.219 581.156C306.512 581.156 326.93 568.611 338.344 549.938H376.781C382.308 549.934 387.608 547.737 391.517 543.829C395.425 539.921 397.622 534.621 397.625 529.094V504.094C397.622 498.567 395.425 493.267 391.517 489.358C387.608 485.45 382.308 483.253 376.781 483.25H338.688C335.185 477.41 330.85 472.143 325.75 467.688V434.5V233.969C325.747 228.442 323.55 223.142 319.642 219.234C315.733 215.325 310.433 213.128 304.906 213.125H260.781Z" fill="#8D8D8D"/>
<path d="M304.888 233.963H260.767V513.963H304.888V233.963Z" fill="black"/>
<path d="M189.636 516.57H376.759" stroke="black" stroke-width="25"/>
<path d="M316.803 516.402C316.803 525.314 313.262 533.862 306.96 540.164C300.658 546.467 292.11 550.007 283.197 550.007C274.285 550.007 265.737 546.467 259.435 540.164C253.132 533.862 249.592 525.314 249.592 516.402C249.592 507.489 253.132 498.941 259.435 492.639C265.737 486.337 274.285 482.796 283.197 482.796C292.11 482.796 300.658 486.337 306.96 492.639C313.262 498.941 316.803 507.489 316.803 516.402V516.402Z" fill="#FEFEFE" stroke="black" stroke-width="20.5723" stroke-miterlimit="10" stroke-linecap="round" stroke-linejoin="round"/>
<path d="M304.888 233.963H260.767V367.746H304.888V233.963Z" fill="#FFD400"/>
<path d="M304.888 367.625H260.767V434.502H304.888V367.625Z" fill="black"/>
</g>
<defs>
<clipPath id="clip0">
<path d="M0 0H580V580H0V0Z" fill="white"/>
</clipPath>
</defs>
</svg>
