<?xml version="1.0" encoding="UTF-8"?>
<svg xmlns="http://www.w3.org/2000/svg" xmlns:xlink="http://www.w3.org/1999/xlink" width="32" height="32" viewBox="0 0 32 32">
<path fill-rule="evenodd" fill="rgb(100%, 100%, 100%)" fill-opacity="1" d="M 22.160156 12.722656 L 25.277344 9.605469 C 26.007812 9.953125 26.90625 9.824219 27.507812 9.222656 L 31.425781 5.304688 L 28.65625 2.53125 L 24.738281 6.453125 C 24.132812 7.054688 24.007812 7.953125 24.355469 8.679688 L 21.234375 11.800781 C 21.128906 11.769531 21.015625 11.753906 20.898438 11.753906 L 20.117188 11.753906 C 18.328125 11.753906 16.582031 11.226562 15.09375 10.234375 L 14.039062 9.53125 C 13.660156 9.277344 13.214844 9.144531 12.757812 9.144531 C 11.484375 9.144531 10.449219 10.175781 10.449219 11.453125 L 10.449219 16.980469 L 9.144531 16.980469 C 8.421875 16.980469 7.835938 17.5625 7.835938 18.285156 L 0.492188 18.285156 C 0.21875 18.285156 0 18.503906 0 18.777344 C 0 20.078125 0.738281 21.253906 1.976562 21.652344 C 3.597656 22.175781 6.210938 22.839844 9.820312 23.21875 L 8.679688 24.355469 C 7.953125 24.007812 7.054688 24.132812 6.453125 24.738281 L 2.53125 28.65625 L 5.304688 31.425781 L 9.222656 27.507812 C 9.824219 26.90625 9.953125 26.007812 9.605469 25.277344 L 11.515625 23.367188 C 12.796875 23.457031 14.179688 23.511719 15.671875 23.511719 C 22.410156 23.511719 26.976562 22.425781 29.371094 21.652344 C 30.605469 21.253906 31.347656 20.078125 31.347656 18.777344 C 31.347656 18.503906 31.128906 18.285156 30.855469 18.285156 L 23.511719 18.285156 C 23.511719 17.5625 22.925781 16.980469 22.203125 16.980469 L 17.902344 16.980469 L 20.515625 14.367188 L 20.898438 14.367188 C 21.621094 14.367188 22.203125 13.78125 22.203125 13.0625 C 22.203125 12.945312 22.1875 12.832031 22.160156 12.722656 Z M 18.75 14.285156 C 17.691406 14.160156 16.65625 13.890625 15.671875 13.488281 L 15.671875 16.980469 L 16.054688 16.980469 Z M 18.75 14.285156 "/>
<path fill-rule="nonzero" fill="rgb(100%, 100%, 100%)" fill-opacity="1" d="M 15.671875 5.222656 C 15.671875 6.667969 14.503906 7.835938 13.0625 7.835938 C 11.617188 7.835938 10.449219 6.667969 10.449219 5.222656 C 10.449219 3.78125 11.617188 2.613281 13.0625 2.613281 C 14.503906 2.613281 15.671875 3.78125 15.671875 5.222656 Z M 15.671875 5.222656 "/>
</svg>
