<svg width="64" height="64" viewBox="0 0 1060 1060" fill="none" xmlns="http://www.w3.org/2000/svg">
<path opacity="0.824" d="M54.5 641.873C36.4894 630.224 22.0835 633.895 10.625 650.092C26.8206 736.926 65.0933 816.035 119.406 881.373C134.44 880.03 148.999 877.628 153.594 852.998C104.095 793.409 69.2264 721.204 54.5 641.873Z" fill="#930093"/>
<path opacity="0.824" d="M132.938 627.186C117.674 616.918 103.954 617.14 92.7812 634.686C106.317 707.259 138.291 773.387 183.688 827.998C198.96 828.428 212.626 825.844 214.969 802.03C173.982 752.681 145.13 692.886 132.938 627.186Z" fill="#930093"/>
<path opacity="0.824" d="M205.094 613.655C189.158 601.867 176.948 605.451 167.562 620.686C178.677 680.264 204.949 734.564 242.219 779.405C257.053 779.097 270.36 776.454 271.469 755.155C238.307 715.22 214.953 666.829 205.094 613.655Z" fill="#930093"/>
</svg>
