<svg width="12" height="12" viewBox="0 0 48 48" fill="none" xmlns="http://www.w3.org/2000/svg">
<path d="M26.9998 28.0002C30.8658 28.0002 33.9998 24.8661 33.9998 21.0002C33.9998 17.1342 30.8658 14.0002 26.9998 14.0002C23.1339 14.0002 19.9998 17.1342 19.9998 21.0002C19.9998 24.8661 23.1339 28.0002 26.9998 28.0002Z" fill="#ffffff"/>
<path fill-rule="evenodd" clip-rule="evenodd" d="M23.067 42.1249L32.5959 44.0307L42.1248 42.1249L44.0306 32.596L42.1248 23.0671L44.0306 13.5382L42.1248 4.00928L32.5959 5.91506L23.067 4.00928L13.5381 5.91506L4.00916 4.00928L5.91494 13.5382L4.00916 23.0671L5.91494 32.596L4.00916 42.1249L13.5381 44.0307L23.067 42.1249ZM26.9998 32.0002C33.075 32.0002 37.9998 27.0753 37.9998 21.0002C37.9998 14.925 33.075 10.0002 26.9998 10.0002C20.9247 10.0002 15.9998 14.925 15.9998 21.0002C15.9998 23.3151 16.715 25.4631 17.9364 27.2352L10.5856 34.5859C9.80455 35.367 9.80455 36.6333 10.5856 37.4144C11.3667 38.1954 12.633 38.1954 13.414 37.4144L20.7648 30.0636C22.5369 31.285 24.6848 32.0002 26.9998 32.0002Z" fill="#ffffff"/>
</svg>
