<?xml version="1.0" encoding="UTF-8"?>
<svg xmlns="http://www.w3.org/2000/svg" xmlns:xlink="http://www.w3.org/1999/xlink" width="32" height="32" viewBox="0 0 32 32">
<path fill-rule="nonzero" fill="rgb(100%, 100%, 100%)" fill-opacity="1" d="M 25.675781 14.066406 C 27.515625 14.066406 29.011719 12.570312 29.011719 10.730469 C 29.011719 8.886719 27.515625 7.394531 25.675781 7.394531 C 23.832031 7.394531 22.339844 8.886719 22.339844 10.730469 C 22.339844 12.570312 23.832031 14.066406 25.675781 14.066406 Z M 25.675781 14.066406 "/>
<path fill="none" stroke-width="45.370998" stroke-linecap="round" stroke-linejoin="miter" stroke="rgb(100%, 100%, 100%)" stroke-opacity="1" stroke-miterlimit="10" d="M 138.840332 303.310547 L 182.382812 361.367188 C 201.711426 385.510254 228.33252 404.909668 259.768066 409.724121 C 293.61084 416.945801 332.338867 424.238281 332.338867 424.238281 " transform="matrix(0.0551724, 0, 0, 0.0551724, 0, 0)"/>
<path fill-rule="nonzero" fill="rgb(100%, 100%, 100%)" fill-opacity="1" d="M 18.734375 10.0625 L 19.667969 4.992188 C 19.667969 4.992188 19.664062 3.765625 18.519531 3.589844 C 17.371094 3.410156 17 4.589844 17 4.589844 L 16.066406 9.929688 C 15.800781 11.394531 16.46875 12.996094 17.667969 13.933594 L 20.070312 15.667969 L 15 22.070312 L 14.730469 23.671875 C 14.730469 23.671875 13.398438 24.472656 12.195312 24.605469 C 10.863281 24.738281 10.0625 24.339844 9.128906 23.804688 L 4.324219 20.871094 C 4.324219 20.871094 3.050781 20.4375 2.582031 21.398438 C 2.113281 22.359375 2.988281 23.140625 2.988281 23.140625 L 8.996094 26.476562 C 9.796875 27.140625 10.730469 27.410156 11.929688 27.410156 C 13.132812 27.410156 16.066406 26.875 19.136719 24.605469 L 23.804688 20.335938 C 25.675781 18.601562 25.40625 15.667969 23.40625 14.332031 L 19.535156 11.796875 C 19.003906 11.394531 18.601562 10.730469 18.734375 10.0625 Z M 18.734375 10.0625 "/>
</svg>
