<svg width="32" height="32" viewBox="0 0 580 580" fill="none" xmlns="http://www.w3.org/2000/svg">
<path opacity="0.295359" d="M290 105.5C188.707 105.5 105.531 188.726 105.531 290C105.531 391.276 188.724 474.469 290 474.469C391.276 474.469 474.469 391.276 474.469 290C474.469 188.726 391.293 105.5 290 105.5ZM290 236.625C320.504 236.625 343.344 259.472 343.344 290C343.344 320.532 320.532 343.344 290 343.344C259.468 343.344 236.656 320.532 236.656 290C236.656 259.472 259.496 236.625 290 236.625Z" fill="#ACD8F3"/>
<path d="M408.915 290C408.92 305.619 405.847 321.086 399.873 335.518C393.899 349.949 385.141 363.062 374.098 374.108C363.055 385.154 349.945 393.916 335.515 399.895C321.085 405.873 305.619 408.95 290 408.95C274.381 408.95 258.915 405.873 244.485 399.895C230.055 393.916 216.945 385.154 205.902 374.108C194.859 363.062 186.101 349.949 180.127 335.518C174.153 321.086 171.08 305.619 171.085 290C171.08 274.381 174.153 258.914 180.127 244.482C186.101 230.051 194.859 216.938 205.902 205.892C216.945 194.846 230.055 186.084 244.485 180.105C258.915 174.127 274.381 171.05 290 171.05C305.619 171.05 321.085 174.127 335.515 180.105C349.945 186.084 363.055 194.846 374.098 205.892C385.141 216.938 393.899 230.051 399.873 244.482C405.847 258.914 408.92 274.381 408.915 290Z" stroke="#78317D" stroke-width="47.4" stroke-linecap="round" stroke-linejoin="round"/>
<path d="M387.434 290C387.438 302.798 384.92 315.471 380.025 327.295C375.13 339.119 367.954 349.864 358.906 358.914C349.858 367.965 339.116 375.144 327.293 380.043C315.47 384.941 302.798 387.462 290 387.462C277.202 387.462 264.53 384.941 252.707 380.043C240.884 375.144 230.142 367.965 221.094 358.914C212.046 349.864 204.87 339.119 199.975 327.295C195.08 315.471 192.562 302.798 192.566 290C192.562 277.202 195.08 264.53 199.975 252.705C204.87 240.881 212.046 230.136 221.094 221.086C230.142 212.035 240.884 204.856 252.707 199.957C264.53 195.059 277.202 192.538 290 192.538C302.798 192.538 315.47 195.059 327.293 199.957C339.116 204.856 349.858 212.035 358.906 221.086C367.954 230.136 375.13 240.881 380.025 252.705C384.92 264.53 387.438 277.202 387.434 290Z" fill="#FEFEFE"/>
</svg>
