<?xml version="1.0" encoding="UTF-8"?>
<svg xmlns="http://www.w3.org/2000/svg" xmlns:xlink="http://www.w3.org/1999/xlink" width="32" height="32" viewBox="0 0 32 32">
<path fill-rule="nonzero" fill="rgb(100%, 100%, 100%)" fill-opacity="1" d="M 17.625 4.238281 C 17.246094 2.777344 15.917969 1.699219 14.34375 1.699219 C 12.464844 1.699219 10.945312 3.207031 10.945312 5.082031 C 10.945312 5.402344 10.984375 5.691406 11.0625 5.972656 L 12.425781 5.972656 C 12.527344 6.207031 12.636719 6.339844 12.636719 6.339844 C 13.046875 6.933594 13.730469 7.3125 14.503906 7.3125 C 15.761719 7.3125 16.785156 6.292969 16.785156 5.035156 C 16.785156 4.746094 16.855469 4.484375 16.734375 4.238281 Z M 17.625 4.238281 "/>
<path fill-rule="nonzero" fill="rgb(100%, 100%, 100%)" fill-opacity="1" d="M 17.535156 24.488281 C 17.175781 24.851562 16.683594 25.128906 16.128906 25.128906 L 16.125 17.75 L 21.234375 16.28125 L 22.511719 18.800781 Z M 17.535156 24.488281 "/>
<path fill-rule="nonzero" fill="rgb(100%, 100%, 100%)" fill-opacity="1" d="M 13.246094 7.605469 C 12.910156 7.230469 12.421875 6.992188 11.875 6.992188 C 11.292969 6.992188 10.773438 7.261719 10.441406 7.6875 L 6.386719 13.875 C 6.222656 14.152344 6.128906 14.476562 6.128906 14.816406 C 6.128906 15.457031 6.453125 16.015625 6.941406 16.339844 L 12.378906 19.359375 L 12.378906 24.492188 C 12.378906 25.21875 12.964844 25.8125 13.691406 25.8125 C 14.414062 25.8125 15.007812 25.21875 15.007812 24.492188 L 15.007812 18.082031 C 15.007812 18.082031 15.179688 17.058594 14.019531 16.503906 L 10.628906 14.726562 L 13.101562 10.953125 L 14.414062 13.011719 C 14.671875 13.429688 15.027344 13.589844 15.351562 13.585938 L 18.71875 13.570312 C 20.085938 13.570312 20.085938 11.789062 18.71875 11.792969 L 15.988281 11.792969 Z M 13.246094 7.605469 "/>
<path fill-rule="nonzero" fill="rgb(100%, 100%, 100%)" fill-opacity="1" d="M 28.148438 16.019531 C 28.203125 16.074219 28.230469 16.140625 28.230469 16.230469 C 28.230469 16.390625 28.09375 16.527344 27.933594 16.527344 C 27.886719 16.527344 27.859375 16.527344 27.828125 16.511719 C 27.246094 16.265625 26.875 16.109375 26.199219 16.109375 C 25.75 16.109375 25.199219 16.265625 24.558594 16.78125 L 23.964844 15.609375 C 24.707031 15.390625 25.3125 15.195312 25.945312 15.195312 C 26.957031 15.195312 27.484375 15.40625 28.148438 16.019531 Z M 28.148438 16.019531 "/>
<path fill-rule="nonzero" fill="rgb(100%, 100%, 100%)" fill-opacity="1" d="M 5.535156 16.921875 L 11.242188 20.066406 L 11.257812 21.332031 L 4.738281 17.742188 C 4.265625 17.5 3.632812 17.359375 3.183594 17.359375 C 2.511719 17.359375 2.136719 17.515625 1.558594 17.761719 C 1.519531 17.777344 1.488281 17.777344 1.453125 17.777344 C 1.289062 17.777344 1.152344 17.640625 1.152344 17.480469 C 1.152344 17.394531 1.1875 17.324219 1.238281 17.269531 C 1.898438 16.648438 2.574219 16.445312 3.582031 16.445312 C 4.101562 16.445312 4.726562 16.507812 5.535156 16.921875 Z M 5.535156 16.921875 "/>
<path fill-rule="nonzero" fill="rgb(100%, 100%, 100%)" fill-opacity="1" d="M 6.066406 28.496094 C 7.925781 28.496094 9.433594 26.988281 9.433594 25.125 C 9.433594 23.265625 7.925781 21.757812 6.066406 21.757812 C 4.207031 21.757812 2.699219 23.265625 2.699219 25.125 C 2.699219 26.988281 4.207031 28.496094 6.066406 28.496094 Z M 1.210938 25.128906 C 1.210938 22.449219 3.386719 20.269531 6.066406 20.269531 C 8.75 20.269531 10.925781 22.449219 10.925781 25.128906 C 10.925781 27.8125 8.75 29.988281 6.066406 29.988281 C 3.386719 29.988281 1.210938 27.8125 1.210938 25.128906 Z M 1.210938 25.128906 "/>
<path fill-rule="nonzero" fill="rgb(100%, 100%, 100%)" fill-opacity="1" d="M 26.152344 28.496094 C 28.007812 28.496094 29.519531 26.988281 29.519531 25.125 C 29.519531 23.265625 28.011719 21.757812 26.152344 21.757812 C 24.289062 21.757812 22.785156 23.265625 22.785156 25.125 C 22.785156 26.988281 24.292969 28.496094 26.152344 28.496094 Z M 21.296875 25.128906 C 21.296875 22.449219 23.464844 20.269531 26.152344 20.269531 C 28.832031 20.269531 31.007812 22.449219 31.007812 25.128906 C 31.007812 27.8125 28.832031 29.988281 26.152344 29.988281 C 23.464844 29.988281 21.296875 27.8125 21.296875 25.128906 Z M 21.296875 25.128906 "/>
<path fill-rule="nonzero" fill="rgb(100%, 100%, 100%)" fill-opacity="1" d="M 25.078125 19.574219 L 22.714844 14.859375 C 22.40625 14.292969 21.804688 13.902344 21.113281 13.902344 L 19.570312 13.902344 C 19.269531 13.902344 19.027344 14.152344 19.027344 14.453125 C 19.027344 14.757812 19.269531 15 19.570312 15 L 21.113281 14.992188 C 21.371094 14.992188 21.660156 15.167969 21.769531 15.421875 L 23.992188 19.949219 Z M 25.078125 19.574219 "/>
</svg>
