<svg width="32" height="32" viewBox="0 0 16 16" fill="none" xmlns="http://www.w3.org/2000/svg">
<path d="M2.83058 3.05649C2.62467 3.05669 2.42725 3.13858 2.28165 3.28418C2.13605 3.42978 2.05416 3.6272 2.05396 3.83311V12.1669C2.05416 12.3728 2.13605 12.5702 2.28165 12.7158C2.42725 12.8614 2.62467 12.9433 2.83058 12.9435H13.1694C13.3753 12.9433 13.5727 12.8614 13.7183 12.7158C13.8639 12.5702 13.9458 12.3728 13.946 12.1669V3.83311C13.9458 3.6272 13.8639 3.42978 13.7183 3.28418C13.5727 3.13858 13.3753 3.05669 13.1694 3.05649H2.83058V3.05649Z" fill="#585858"/>
<path d="M13.4082 3.64117H2.59186V12.3588H13.4082V3.64117Z" fill="#FEFEFE"/>
<path d="M5.33041 8.23261C5.38695 7.9123 5.4191 7.79779 5.49803 7.63572C5.56582 7.49651 5.63252 7.40512 5.75582 7.28251C5.92635 7.11292 6.15574 6.96192 6.4284 6.83976C6.7834 6.68071 7.95594 6.24164 8.02567 6.24164C8.03562 6.24164 8.03562 6.24206 8.02553 6.26765C7.99062 6.35623 7.83026 6.65131 7.51297 7.21086L7.35339 7.49227L6.33985 7.89736C5.7824 8.12016 5.32446 8.30245 5.3222 8.30245C5.31994 8.30245 5.32363 8.27102 5.33041 8.23261H5.33041Z" fill="#F93357"/>
<path d="M6.23322 8.87018C6.12618 8.85394 5.96181 8.79389 5.78654 8.70698C5.59621 8.61261 5.4441 8.51492 5.36621 8.43703C5.32218 8.393 5.30747 8.3649 5.31744 8.34389C5.31982 8.33886 5.32496 8.33346 5.32884 8.3319C5.35789 8.32021 5.60612 8.29642 5.92226 8.27504C6.11319 8.26212 6.75259 8.22323 6.7591 8.22414C6.76379 8.22479 6.75258 8.24558 6.67424 8.38151C6.54262 8.6099 6.51301 8.65772 6.45384 8.73746C6.39762 8.81323 6.3472 8.86513 6.32338 8.87175C6.30977 8.87553 6.26314 8.87471 6.23322 8.87018V8.87018Z" fill="#0255C4"/>
<path d="M3.27606 11.55C3.23655 11.5303 3.23002 11.4819 3.25212 11.3728C3.26344 11.3168 3.43979 10.6867 3.44527 10.6825C3.44641 10.6817 3.61812 10.6162 3.82684 10.537C5.17759 10.0245 5.60559 9.85008 5.96671 9.6649C6.25994 9.51454 6.39344 9.41164 6.44783 9.29404C6.46539 9.25608 6.46739 9.19493 6.45247 9.15196C6.44218 9.12229 6.40628 9.06596 6.36729 9.01827C6.32316 8.96429 6.33007 8.93389 6.40277 8.86218C6.51442 8.75206 6.82622 8.51954 6.95495 8.45041C7.03629 8.40672 7.11731 8.39062 7.16952 8.40776C7.23373 8.42884 7.29121 8.48882 7.36617 8.61298C7.55886 8.93214 7.58187 9.26686 7.43226 9.5747C7.38187 9.67841 7.29899 9.79134 7.20003 9.89115C6.95753 10.1357 6.5966 10.334 5.89003 10.6106C5.80755 10.6429 5.34161 10.8219 4.85461 11.0084C4.3676 11.1949 3.91606 11.368 3.85117 11.3931C3.46429 11.5425 3.33284 11.5784 3.27606 11.55H3.27606Z" fill="#0255C4"/>
<path d="M8.23944 6.84781C8.2261 6.70393 8.2127 6.5021 8.20965 6.3993L8.2041 6.21239L8.27667 6.17981C8.65915 6.0081 12.6976 4.44107 12.7576 4.44107C12.7814 4.44107 12.6486 5.35954 12.621 5.38588C12.6138 5.39275 12.4419 5.4648 12.239 5.54598C11.587 5.80678 8.31264 7.09625 8.28011 7.10499C8.26602 7.10877 8.26024 7.07223 8.23944 6.84781H8.23944Z" fill="#027C5C"/>
<path d="M8.6642 9.58767C8.66574 9.5808 8.67075 9.55383 8.67534 9.52774C8.71259 9.3157 9.15681 7.10909 9.1633 7.10382C9.17149 7.09718 9.76253 6.67882 9.82672 6.63424C9.92695 6.56463 10.1062 6.44583 10.1561 6.41595C10.1891 6.39623 10.1932 6.39493 10.1946 6.40385C10.2046 6.46678 9.8214 8.24067 9.63995 8.97169C9.58688 9.18551 9.5772 9.21885 9.56295 9.23697C9.52028 9.29122 8.84405 9.56704 8.68142 9.59653C8.66237 9.59999 8.66153 9.59956 8.6642 9.58767V9.58767Z" fill="#FE4F1E"/>
</svg>
