<?xml version="1.0" encoding="UTF-8"?>
<svg xmlns="http://www.w3.org/2000/svg" xmlns:xlink="http://www.w3.org/1999/xlink" width="12" height="12" viewBox="0 0 12 12" version="1.1">
<g id="surface1">
<path style=" stroke:none;fill-rule:evenodd;fill:rgb(100%,100%,100%);fill-opacity:1;" d="M 10.726562 2.683594 C 10.59375 2.277344 10.210938 2 9.78125 2 L 7.5 2 L 6.5 2.5 L 1.5 2.5 C 0.671875 2.5 0 3.171875 0 4 L 0 9 L 1.085938 9 C 1.292969 9.582031 1.847656 10 2.5 10 C 3.152344 10 3.707031 9.582031 3.914062 9 L 8.085938 9 C 8.292969 9.582031 8.847656 10 9.5 10 C 10.152344 10 10.707031 9.582031 10.914062 9 L 11.5 9 C 11.777344 9 12 8.777344 12 8.5 L 12 7 C 12 6.839844 11.9375 6.6875 11.824219 6.574219 L 11.75 6.5 L 11 6 L 10 4 L 10.5 4 C 10.777344 4 11 3.777344 11 3.5 Z M 1 4.5 L 3.5 4.5 L 3.5 6 L 1 6 Z M 2.5 9 C 2.777344 9 3 8.777344 3 8.5 C 3 8.222656 2.777344 8 2.5 8 C 2.222656 8 2 8.222656 2 8.5 C 2 8.777344 2.222656 9 2.5 9 Z M 9.5 9 C 9.777344 9 10 8.777344 10 8.5 C 10 8.222656 9.777344 8 9.5 8 C 9.222656 8 9 8.222656 9 8.5 C 9 8.777344 9.222656 9 9.5 9 Z M 4.5 6 L 7 6 L 7 4.5 L 4.5 4.5 Z M 8 4.5 L 9.25 4.5 L 10 6 L 8 6 Z M 8 4.5 "/>
</g>
</svg>
