<?xml version="1.0" encoding="UTF-8"?>
<svg xmlns="http://www.w3.org/2000/svg" xmlns:xlink="http://www.w3.org/1999/xlink" width="32" height="32" viewBox="0 0 32 32">
<path fill-rule="nonzero" fill="rgb(100%, 100%, 100%)" fill-opacity="1" d="M 16 6.128906 L 11.890625 13.246094 L 7.125 13.246094 L 5.929688 11.175781 L 4.734375 9.109375 L 3.539062 11.175781 L 2.34375 13.246094 L 2.34375 27.921875 L 29.65625 27.921875 L 29.65625 13.246094 L 28.460938 11.175781 L 27.265625 9.109375 L 26.070312 11.175781 L 24.875 13.246094 L 20.109375 13.246094 Z M 16 14.230469 C 19.414062 14.230469 22.1875 17.007812 22.1875 20.417969 C 22.1875 23.832031 19.414062 26.609375 16 26.609375 C 12.585938 26.609375 9.8125 23.832031 9.8125 20.417969 C 9.8125 17.007812 12.585938 14.230469 16 14.230469 Z M 16 14.230469 "/>
<path fill-rule="nonzero" fill="rgb(100%, 100%, 100%)" fill-opacity="1" d="M 16 15.035156 C 13.03125 15.035156 10.617188 17.449219 10.617188 20.417969 C 10.617188 23.386719 13.03125 25.800781 16 25.800781 C 18.96875 25.800781 21.382812 23.386719 21.382812 20.417969 C 21.382812 17.449219 18.96875 15.035156 16 15.035156 Z M 20.691406 21.574219 L 17.15625 21.574219 L 17.15625 25.109375 L 14.84375 25.109375 L 14.84375 21.574219 L 11.308594 21.574219 L 11.308594 19.261719 L 14.84375 19.261719 L 14.84375 15.726562 L 17.15625 15.726562 L 17.15625 19.261719 L 20.691406 19.261719 Z M 20.691406 21.574219 "/>
</svg>
