<svg width="32" height="32" viewBox="0 0 16 16" fill="none" xmlns="http://www.w3.org/2000/svg">
<path d="M4.05664 3.77148C3.89089 3.7715 3.73192 3.83735 3.61472 3.95456C3.49751 4.07177 3.43166 4.23073 3.43164 4.39648V8.07422C3.43178 8.21034 3.47636 8.3427 3.55859 8.45117C3.46769 8.58607 3.43295 8.75109 3.46176 8.91119C3.49057 9.07129 3.58066 9.21385 3.71289 9.30859L7.63477 12.1113C7.74068 12.1873 7.8677 12.2283 7.99805 12.2285H8.01758C8.14793 12.2283 8.27495 12.1873 8.38086 12.1113L12.2891 9.30859C12.421 9.21356 12.5107 9.07086 12.5391 8.91078C12.5676 8.7507 12.5325 8.58583 12.4414 8.45117C12.5236 8.3427 12.5682 8.21034 12.5684 8.07422V4.39648C12.5683 4.23073 12.5025 4.07177 12.3853 3.95456C12.2681 3.83735 12.1091 3.7715 11.9434 3.77148H10.4277C10.2991 3.77138 10.1736 3.81094 10.0684 3.88477L8.00195 5.33984L5.93555 3.88477C5.83026 3.81094 5.70476 3.77138 5.57617 3.77148H4.05664V3.77148ZM9.81641 7.24023V8.07422C9.81665 8.10562 9.81926 8.13696 9.82422 8.16797H9.55468C9.42455 8.16763 9.29755 8.20791 9.19141 8.2832L8.00391 9.12891L6.81445 8.28516C6.70831 8.20986 6.58131 8.16958 6.45117 8.16992H6.17578C6.18074 8.13891 6.18335 8.10757 6.18359 8.07617L6.18554 7.24805L7.6289 8.26758C7.66896 8.296 7.71222 8.3196 7.75781 8.33789L7.77734 8.3457C7.87472 8.38459 7.98033 8.39836 8.08443 8.38573C8.18853 8.3731 8.28778 8.33449 8.37305 8.27344L9.81641 7.24023Z" fill="#FEFEFE"/>
<path d="M4.07553 8.80173L6.45354 8.7942L8.00458 9.89395L9.55199 8.79392L11.9251 8.80173L8.01826 11.6041L7.99811 11.6034L4.07553 8.80173V8.80173ZM4.05762 4.39594H5.57668L8.00135 6.1033L10.427 4.39594H11.9424V8.07356H10.442V6.02367L8.00939 7.76573L7.98963 7.75815L5.56544 6.04376L5.55789 8.07356H4.05762V4.39594L4.05762 4.39594Z" fill="#0E6ABC"/>
</svg>
