<svg width="32" height="32" viewBox="0 0 16 16" fill="none" xmlns="http://www.w3.org/2000/svg">
<path d="M8.04899 4.75045C7.1558 4.73606 6.45952 5.15466 5.86262 5.68747C5.76993 5.60562 5.65241 5.55733 5.52895 5.55034C5.07085 5.52558 4.53892 5.52619 4.0145 5.75755C4.00629 5.76091 3.99816 5.76447 3.99012 5.76822C3.45115 6.0377 3.17372 6.48773 2.93579 6.79055C2.92947 6.79851 2.92337 6.80663 2.91751 6.81493C2.62786 7.2287 2.22656 7.64274 1.85099 8.14351C1.79236 8.22173 1.75559 8.31413 1.74444 8.41125C1.73329 8.50836 1.74818 8.60669 1.78756 8.69616C1.82695 8.78563 1.88942 8.86302 1.96857 8.92038C2.04772 8.97775 2.1407 9.01304 2.23798 9.02262C2.71481 9.06914 3.15286 9.10545 3.56808 9.18717C4.27337 9.35953 4.9486 9.74045 5.55333 10.2156C5.55832 10.2203 5.5634 10.2248 5.56857 10.2293C6.05491 10.583 6.64771 11.1142 7.50354 11.2212C7.50759 11.2217 7.51166 11.2223 7.51573 11.2227C8.12783 11.2865 8.84496 11.2755 9.4964 10.9119C9.49793 10.9109 9.49946 10.9099 9.50097 10.9089C9.77928 10.7505 10.0083 10.5386 10.2414 10.3314C10.3404 10.4147 10.4655 10.4606 10.5949 10.4609C10.9056 10.4609 11.3431 10.5305 11.8443 10.3634C11.853 10.3606 11.8616 10.3575 11.8702 10.3542C12.4742 10.1193 12.8033 9.64272 13.0631 9.31515C13.0678 9.30966 13.0724 9.30407 13.0769 9.29839C13.4063 8.84819 13.7886 8.40825 14.154 7.90887C14.2114 7.83088 14.2472 7.73915 14.2579 7.64291C14.2686 7.54667 14.2537 7.44932 14.2148 7.36066C14.1758 7.272 14.1142 7.19516 14.0362 7.13787C13.9581 7.08059 13.8663 7.04487 13.7701 7.03433C12.7467 6.92186 11.745 6.71732 10.9804 6.18111C10.9774 6.17905 10.9743 6.17702 10.9712 6.17502C10.2385 5.68305 9.3785 4.74058 8.04899 4.75045ZM8.19373 9.68234C8.19464 9.68302 8.19586 9.68167 8.19678 9.68234C8.19941 9.68421 8.20024 9.68655 8.20287 9.68842L8.19373 9.68234H8.19373Z" fill="#024D03" stroke="#024D03" stroke-width="0.0975103"/>
<path d="M5.24429 7.18856C5.86962 6.2274 6.8192 5.27782 8.04671 5.30098C9.10051 5.2894 9.85323 6.08844 10.6638 6.63271C11.5555 7.25805 12.6557 7.46649 13.7095 7.58229C13.362 8.05708 12.9799 8.49713 12.6325 8.97192C12.3661 9.30775 12.0882 9.67832 11.6713 9.84044C11.3239 9.95625 10.9534 9.90992 10.5944 9.90992C10.9418 9.37723 11.3818 8.90244 11.7177 8.35817C10.9997 8.17289 10.2585 7.9876 9.64478 7.53597C9.01945 7.13066 8.55624 6.49375 7.86142 6.19266C7.29399 5.94948 6.5876 6.0537 6.15913 6.50533C6.61076 6.56323 7.09713 6.52849 7.50244 6.78326C8.18567 7.20014 8.6952 7.86022 9.4016 8.24237C9.85323 8.48555 10.3512 8.62452 10.8376 8.8098C10.4322 9.46987 9.89955 10.0489 9.2279 10.431C8.72994 10.709 8.12777 10.7321 7.57192 10.6742C6.92342 10.5932 6.40231 10.1531 5.89278 9.78254C5.24429 9.27301 4.50315 8.84454 3.69253 8.64768C3.22932 8.55504 2.76611 8.52029 2.29132 8.47397C2.63873 8.01076 3.04404 7.59387 3.36828 7.13066C3.62305 6.80642 3.86624 6.44743 4.2368 6.26214C4.63053 6.08844 5.07058 6.07686 5.49905 6.10002C5.16322 6.66745 4.66527 7.11908 4.34103 7.68652C5.24429 7.88338 6.15913 8.18447 6.85394 8.82138C7.39821 9.24985 7.86142 9.93309 8.62572 9.93309C9.13525 9.99099 9.69111 9.86361 10.0269 9.43513C9.52898 9.41197 8.96155 9.56252 8.5215 9.23827C7.96565 8.84454 7.49086 8.32343 6.90026 7.96444C6.39073 7.60545 5.78856 7.45491 5.24429 7.18856Z" fill="#F9CE24" stroke="#F9CE24" stroke-width="0.0144753"/>
</svg>
