<svg width="32" height="32" viewBox="0 0 580 580" fill="none" xmlns="http://www.w3.org/2000/svg">
<g clip-path="url(#clip0)">
<path opacity="0.426087" d="M118.154 28.79C111.129 28.8014 102.343 28.8599 93.8728 29.165C85.403 29.4701 76.9644 29.9041 67.3728 31.4463C62.5771 32.2174 57.5772 33.1028 50.3728 35.7588C43.1685 38.4148 30.5839 40.8761 18.4666 62.1025C17.8421 63.2374 17.2583 64.3946 16.7166 65.5713C14.4948 67.2717 12.3585 69.1295 10.4041 71.2588C-3.58075 86.495 -4.62226 102.206 -4.53341 110.915C-4.44456 119.624 -3.04565 124.729 -1.78341 129.228C0.741085 138.225 3.64799 144.552 7.15409 151.884C22.0394 183.011 46.3661 217.125 87.4041 255.353C88.761 277.646 93.9104 301.163 115.81 326.103C125.628 337.282 135.272 347.566 153.373 354.978C171.474 362.389 200.539 358.956 215.342 349.446C216.534 348.68 217.4 348.004 218.498 347.259C218.83 347.458 219.199 347.653 219.529 347.853C225.69 352.836 227.957 353.273 231.842 355.415C235.287 357.315 239.074 359.099 242.842 360.884C287.421 385.645 317.509 402.316 332.123 420.29C332.709 421.014 333.313 421.722 333.935 422.415C342.473 431.874 343.199 450.804 352.81 491.884C353.245 493.733 353.778 495.559 354.404 497.353C354.793 499.228 355.402 502.538 355.904 506.009C357.078 514.119 358.259 521.22 361.217 530.134C364.174 539.048 364.8 556.485 395.904 569.321C411.456 575.739 432.508 573.037 443.81 567.196C455.113 561.356 460.104 555.209 463.873 550.478C471.41 541.015 474.071 534.517 477.217 527.29C479.294 522.518 485.799 509.648 491.529 499.384C493.26 496.282 494.574 494.122 496.06 491.603C511.015 483.846 525.335 476.393 535.029 472.696C544.165 469.884 552.362 466.213 561.904 458.509C567.372 454.094 574.231 448.838 580.31 434.478C586.389 420.117 583.772 388.609 569.248 373.384C558.644 362.266 557.553 363.97 555.404 362.79C553.255 361.61 551.855 360.973 550.498 360.353C547.784 359.111 545.434 358.173 542.779 357.196C540.167 356.236 532.686 353.454 526.873 351.259C517.792 347.83 512.901 345.282 499.498 343.821C491.241 341.951 486.205 339.359 480.748 334.009C466.958 313.207 456.195 296.064 454.404 286.571C454.044 284.695 453.585 282.837 453.029 281.009C447.553 262.793 444.051 251.768 440.904 242.696C446.279 231.418 444.842 225.055 444.81 220.759C444.771 215.348 444.214 212.396 443.748 209.853C442.815 204.766 441.843 201.666 440.81 198.446C438.746 192.006 436.349 185.957 433.435 179.446C430.945 173.882 429.351 166.438 429.217 163.634C428.877 156.545 428.152 150.093 426.717 143.165C425.999 139.701 425.171 136.19 423.435 131.415C421.7 126.64 421.832 120.708 408.279 108.009C408.269 107.998 408.258 107.988 408.248 107.978C402.664 102.755 395.384 98.8812 392.435 97.6026C392.425 97.6026 392.415 97.6026 392.404 97.6026C378.65 91.6404 377.105 93.3508 374.248 93.1026C371.39 92.8544 369.521 92.838 367.685 92.8213C364.015 92.788 360.759 92.8882 357.092 93.0713C349.767 93.4371 341.265 94.1422 332.217 95.1026C332.205 95.1038 332.197 95.1014 332.185 95.1026L325.154 95.8526C268.783 53.7635 204.499 33.2748 136.967 28.8838C135.292 28.7748 133.613 28.7435 131.935 28.79C130.452 28.831 125.18 28.7787 118.154 28.79ZM502.904 482.415C503.064 482.306 500.869 484.355 500.56 484.696C501.55 483.619 502.579 482.636 502.904 482.415ZM355.467 500.04C357.554 505.166 360.432 509.969 363.967 514.228C355.359 504.562 356.207 502.032 355.467 500.04Z" fill="#ACD8F3"/>
<path d="M133.443 83.0132C119.42 83.4004 69.8132 81.6311 65.5991 89.0132C65.5638 90.1384 72.3946 95.5095 78.2554 103.107C89.2387 117.345 106.124 139.151 103.38 141.669C101.955 142.978 89.7798 133.439 67.4429 116.138C48.2933 101.306 44.8856 105.033 56.0991 128.482C69.5221 156.551 92.2168 188.392 139.505 229.263C140.012 229.78 140.526 230.285 141.037 230.794C141.349 253.262 145.856 278.127 156.568 290.326C184.701 322.363 190.029 298.278 207.412 278.326C221.913 286.605 236.621 294.598 250.974 303.419C253.251 305.476 261.458 310.018 269.193 313.451C312.452 337.479 349.54 355.715 374.224 386.076C398.353 412.809 398.021 447.025 405.63 479.544C406.44 480.393 408.236 488.817 409.599 498.232C413.308 523.85 418.607 526.008 427.474 505.638C434.757 488.907 454.348 453.811 458.599 449.888C476.568 440.757 497.62 428.737 516.599 421.638C525.973 419.053 532.678 413.627 530.005 410.826C529.563 410.362 526.927 409.159 524.068 408.107C521.208 407.055 513.778 404.299 507.724 402.013C501.67 399.727 493.642 397.587 489.818 397.326C469.666 393.133 452.625 383.824 438.443 368.388C425.207 348.521 406.348 324.466 401.099 296.638C389.347 257.55 388.242 254.296 381.412 240.013C377.698 232.248 374.669 225.409 374.693 224.857C374.716 224.305 377.883 224.006 381.724 224.169C385.565 224.333 389.501 223.355 390.412 222.013C391.322 220.671 388.345 211.514 383.912 201.607C378.746 190.065 375.569 177.359 375.037 166.232C374.608 157.278 372.926 149.231 371.193 147.607C371.077 147.499 370.964 147.438 370.849 147.388C369.003 146.588 354.186 147.316 337.912 149.044L308.318 152.169L298.005 143.294C248.878 104.785 195.198 87.0286 133.443 83.0132ZM135.287 106.826C137.687 106.826 140.079 107.743 141.912 109.576C145.577 113.241 145.577 119.191 141.912 122.857C138.246 126.522 132.296 126.522 128.63 122.857C124.965 119.191 124.965 113.241 128.63 109.576C130.463 107.743 132.886 106.826 135.287 106.826Z" fill="#B01D1D"/>
</g>
<defs>
<clipPath id="clip0">
<path d="M0 0H580V580H0V0Z" fill="white"/>
</clipPath>
</defs>
</svg>
