<svg width="32" height="32" viewBox="0 0 580 580" fill="none" xmlns="http://www.w3.org/2000/svg">
<path opacity="0.592" d="M391.594 0.155463C386.524 0.416085 381.742 2.59449 378.219 6.24921L289.969 98.0305C287.495 100.599 285.754 103.782 284.924 107.249C284.094 110.717 284.205 114.344 285.248 117.753C286.29 121.163 288.224 124.233 290.851 126.644C293.478 129.055 296.701 130.721 300.187 131.468L337.781 139.53L250.375 515.468C249.778 518.029 249.692 520.682 250.121 523.276C250.55 525.871 251.487 528.355 252.877 530.587C254.268 532.819 256.084 534.755 258.223 536.284C260.362 537.813 262.782 538.906 265.344 539.499L288.969 544.937C291.566 545.537 294.257 545.612 296.884 545.157C299.511 544.702 302.02 543.727 304.265 542.289C306.509 540.851 308.444 538.979 309.955 536.782C311.465 534.586 312.522 532.11 313.062 529.499L391.812 151.155L428.344 158.999C431.794 159.737 435.378 159.549 438.732 158.455C442.086 157.36 445.091 155.398 447.442 152.768C449.793 150.138 451.407 146.932 452.12 143.477C452.832 140.021 452.618 136.439 451.5 133.093L411.594 13.7805C410.206 9.6367 407.499 6.06139 403.887 3.60098C400.276 1.14057 395.958 -0.0695877 391.594 0.155463V0.155463Z" fill="#7D7D7D"/>
<path d="M364.824 110.852L269.718 519.774L293.34 525.198L378.918 114.104L364.824 110.852Z" fill="black"/>
<path d="M304.24 111.669L432.403 139.202L392.499 19.8848" fill="#FFD400"/>
</svg>
