<?xml version="1.0" encoding="UTF-8"?>
<svg xmlns="http://www.w3.org/2000/svg" xmlns:xlink="http://www.w3.org/1999/xlink" width="12" height="12" viewBox="0 0 12 12" version="1.1">
<g id="surface1">
<path style=" stroke:none;fill-rule:nonzero;fill:rgb(100%,100%,100%);fill-opacity:1;" d="M 5.796875 1.15625 C 5.0625 1.160156 4.121094 1.21875 3.832031 1.472656 C 3.753906 1.539062 3.46875 1.792969 3.148438 2.078125 C 3.140625 2.082031 3.132812 2.089844 3.125 2.09375 L 2.53125 2.621094 C 2.511719 2.640625 2.496094 2.660156 2.480469 2.683594 C 2.464844 2.714844 2.453125 2.746094 2.445312 2.777344 C 2.445312 2.785156 2.445312 2.792969 2.445312 2.800781 C 2.445312 2.804688 2.445312 2.804688 2.445312 2.804688 C 2.445312 2.8125 2.441406 2.820312 2.445312 2.828125 C 2.445312 2.890625 2.46875 2.949219 2.507812 2.996094 L 2.5625 3.054688 C 2.53125 3.082031 2.390625 3.207031 2.226562 3.347656 C 2.105469 3.460938 1.871094 3.417969 1.792969 3.371094 C 1.753906 3.347656 1.675781 3.378906 1.675781 3.378906 L 1.128906 3.863281 C 1.019531 3.960938 1.007812 4.128906 1.105469 4.238281 L 1.878906 5.113281 C 1.976562 5.222656 2.144531 5.230469 2.253906 5.132812 L 2.800781 4.648438 C 2.800781 4.648438 2.832031 4.566406 2.8125 4.515625 C 2.773438 4.433594 2.769531 4.207031 2.894531 4.101562 C 3.070312 3.941406 3.195312 3.832031 3.226562 3.804688 L 3.28125 3.867188 C 3.289062 3.875 3.296875 3.882812 3.300781 3.886719 C 3.300781 3.890625 3.304688 3.890625 3.304688 3.890625 L 3.6875 4.320312 L 4.675781 3.445312 L 4.445312 3.1875 C 4.441406 3.179688 4.4375 3.175781 4.433594 3.171875 C 4.246094 2.960938 4.300781 2.621094 4.90625 2.058594 C 5.640625 1.375 6.722656 1.175781 6.722656 1.175781 C 6.722656 1.175781 6.386719 1.15625 5.9375 1.15625 C 5.894531 1.15625 5.84375 1.15625 5.796875 1.15625 Z M 9.441406 1.257812 C 8.878906 1.257812 8.085938 1.308594 7.660156 1.734375 L 7.570312 1.820312 C 6.96875 2.429688 6.96875 3.382812 7.578125 3.992188 L 8.238281 4.65625 C 8.535156 4.949219 8.921875 5.113281 9.328125 5.113281 C 9.730469 5.113281 10.113281 4.953125 10.40625 4.660156 L 10.492188 4.574219 C 10.953125 4.113281 10.957031 3.15625 10.960938 2.75 C 10.960938 2.679688 10.941406 2.625 10.90625 2.585938 C 10.875 2.554688 10.832031 2.539062 10.789062 2.539062 C 10.714844 2.539062 10.660156 2.582031 10.632812 2.605469 L 9.769531 3.472656 C 9.753906 3.476562 9.710938 3.480469 9.632812 3.480469 C 9.34375 3.480469 8.9375 3.425781 8.835938 3.382812 C 8.769531 3.234375 8.714844 2.59375 8.761719 2.460938 C 8.894531 2.328125 9.632812 1.589844 9.636719 1.585938 C 9.660156 1.558594 9.734375 1.464844 9.6875 1.363281 C 9.671875 1.324219 9.621094 1.257812 9.496094 1.257812 Z M 4.921875 3.777344 L 3.929688 4.652344 L 8.628906 10.625 C 8.972656 11 9.546875 10.835938 9.839844 10.578125 C 10.136719 10.320312 10.050781 9.691406 9.957031 9.582031 Z M 7.472656 5.972656 L 8.578125 4.84375 L 8.34375 4.648438 L 7.785156 4.066406 L 7.644531 3.875 L 6.570312 5.003906 Z M 4.824219 6.597656 L 2.101562 9.210938 C 1.835938 9.480469 1.554688 9.988281 2.058594 10.492188 C 2.277344 10.6875 2.488281 10.757812 2.785156 10.671875 C 3.066406 10.566406 3.1875 10.457031 3.300781 10.339844 L 5.765625 7.761719 Z M 4.824219 6.597656 "/>
</g>
</svg>
