<?xml version="1.0" encoding="UTF-8"?>
<svg xmlns="http://www.w3.org/2000/svg" xmlns:xlink="http://www.w3.org/1999/xlink" width="12" height="12" viewBox="0 0 12 12" version="1.1">
<defs>
<filter id="alpha" filterUnits="objectBoundingBox" x="0%" y="0%" width="100%" height="100%">
  <feColorMatrix type="matrix" in="SourceGraphic" values="0 0 0 0 1 0 0 0 0 1 0 0 0 0 1 0 0 0 1 0"/>
</filter>
<mask id="mask0">
  <g filter="url(#alpha)">
<rect x="0" y="0" width="12" height="12" style="fill:rgb(0%,0%,0%);fill-opacity:0.5;stroke:none;"/>
  </g>
</mask>
<clipPath id="clip1">
  <rect x="0" y="0" width="12" height="12"/>
</clipPath>
<g id="surface5" clip-path="url(#clip1)">
<path style=" stroke:none;fill-rule:nonzero;fill:rgb(100%,100%,100%);fill-opacity:1;" d="M 1 7 L 7 7 L 7 8 L 1 8 Z M 1 7 "/>
</g>
</defs>
<g id="surface1">
<use xlink:href="#surface5" mask="url(#mask0)"/>
<path style=" stroke:none;fill-rule:nonzero;fill:rgb(100%,100%,100%);fill-opacity:1;" d="M 2.5 5 C 2.5 5.277344 2.277344 5.5 2 5.5 C 1.722656 5.5 1.5 5.277344 1.5 5 C 1.5 4.722656 1.722656 4.5 2 4.5 C 2.277344 4.5 2.5 4.722656 2.5 5 Z M 2.5 5 "/>
<path style=" stroke:none;fill-rule:evenodd;fill:rgb(100%,100%,100%);fill-opacity:1;" d="M 8 4.5 L 8 9 L 0 9 L 0 4 C 0 3.449219 0.449219 3 1 3 L 11.25 3 C 11.664062 3 12 3.335938 12 3.75 C 12 4.164062 11.664062 4.5 11.25 4.5 Z M 7 4 L 1 4 L 1 8 L 7 8 Z M 7 4 "/>
</g>
</svg>
