<?xml version="1.0" encoding="UTF-8"?>
<svg xmlns="http://www.w3.org/2000/svg" xmlns:xlink="http://www.w3.org/1999/xlink" width="12" height="12" viewBox="0 0 12 12">
<defs>
<filter id="filter-remove-color" x="0%" y="0%" width="100%" height="100%">
<feColorMatrix color-interpolation-filters="sRGB" values="0 0 0 0 1 0 0 0 0 1 0 0 0 0 1 0 0 0 1 0" />
</filter>
<mask id="mask-0">
<g filter="url(#filter-remove-color)">
<rect x="-1.2" y="-1.2" width="14.4" height="14.4" fill="rgb(0%, 0%, 0%)" fill-opacity="0.7"/>
</g>
</mask>
<clipPath id="clip-0">
<rect x="0" y="0" width="12" height="12"/>
</clipPath>
<g id="source-8" clip-path="url(#clip-0)">
<path fill-rule="nonzero" fill="rgb(100%, 100%, 100%)" fill-opacity="1" d="M 6 5 C 6.550781 5 7 4.550781 7 4 C 7 3.449219 6.550781 3 6 3 C 5.449219 3 5 3.449219 5 4 C 5 4.550781 5.449219 5 6 5 Z M 6 5 "/>
<path fill-rule="nonzero" fill="rgb(100%, 100%, 100%)" fill-opacity="1" d="M 6 5 L 7 5 C 7.550781 5 8 5.449219 8 6 L 8 7.5 C 8 7.777344 7.777344 8 7.5 8 C 7.222656 8 7 7.777344 7 7.5 L 7 7 L 5 7 L 5 7.5 C 5 7.777344 4.777344 8 4.5 8 C 4.222656 8 4 7.777344 4 7.5 L 4 6 C 4 5.449219 4.449219 5 5 5 Z M 6 5 "/>
</g>
</defs>
<path fill-rule="evenodd" fill="rgb(100%, 100%, 100%)" fill-opacity="1" d="M 3 1 C 2.449219 1 2 1.449219 2 2 L 2 10 C 2 10.550781 2.449219 11 3 11 L 9 11 C 9.550781 11 10 10.550781 10 10 L 10 2 C 10 1.449219 9.550781 1 9 1 Z M 9 2 L 3 2 L 3 7 L 4 7 L 4 7.5 C 4 7.777344 4.222656 8 4.5 8 C 4.777344 8 5 7.777344 5 7.5 L 5 7 L 7 7 L 7 7.5 C 7 7.777344 7.222656 8 7.5 8 C 7.777344 8 8 7.777344 8 7.5 L 8 7 L 9 7 Z M 9 2 "/>
<g mask="url(#mask-0)">
<use xlink:href="#source-8"/>
</g>
</svg>
