<?xml version="1.0" encoding="UTF-8"?>
<svg xmlns="http://www.w3.org/2000/svg" xmlns:xlink="http://www.w3.org/1999/xlink" width="32" height="32" viewBox="0 0 32 32">
<path fill-rule="nonzero" fill="rgb(100%, 100%, 100%)" fill-opacity="1" d="M 12.175781 5.332031 L 20 5.332031 L 20 8 L 14.488281 8 L 13.675781 13.703125 C 14.316406 13.460938 14.996094 13.332031 15.683594 13.332031 C 18.804688 13.332031 21.332031 15.863281 21.332031 18.980469 L 21.332031 21.332031 C 21.332031 24.277344 18.945312 26.667969 16 26.667969 C 13.054688 26.667969 10.667969 24.277344 10.667969 21.332031 L 13.332031 21.332031 C 13.332031 22.804688 14.527344 24 16 24 C 17.472656 24 18.667969 22.804688 18.667969 21.332031 L 18.667969 18.980469 C 18.667969 17.335938 17.332031 16 15.683594 16 C 15.222656 16 14.765625 16.109375 14.351562 16.316406 L 12.597656 17.191406 L 10.679688 15.8125 Z M 12.175781 5.332031 "/>
</svg>
