<svg width="32" height="32" viewBox="0 0 580 580" fill="none" xmlns="http://www.w3.org/2000/svg">
<path opacity="0.426087" d="M284.031 145.656C278.511 145.7 273.223 147.884 269.281 151.75L259.125 161.656C259.094 161.687 259.063 161.719 259.031 161.75C258.71 162.032 258.398 162.324 258.094 162.625L251.531 169.062L123.25 294.844C119.214 298.797 116.914 304.192 116.855 309.842C116.797 315.491 118.984 320.932 122.938 324.969L142.188 344.625C146.141 348.661 151.536 350.961 157.185 351.02C162.835 351.079 168.276 348.891 172.313 344.938L245.125 273.594V482.531H233.25C230.451 482.53 227.679 483.081 225.093 484.151C222.507 485.222 220.157 486.792 218.177 488.771C216.198 490.75 214.628 493.1 213.558 495.686C212.487 498.273 211.936 501.045 211.938 503.844V528.844C211.936 531.643 212.487 534.415 213.558 537.001C214.628 539.587 216.198 541.937 218.177 543.917C220.157 545.896 222.507 547.466 225.093 548.536C227.679 549.607 230.451 550.157 233.25 550.156H333.656C336.456 550.157 339.227 549.607 341.814 548.536C344.4 547.466 346.75 545.896 348.729 543.917C350.709 541.937 352.278 539.587 353.349 537.001C354.42 534.415 354.97 531.643 354.969 528.844V503.844C354.97 501.045 354.42 498.273 353.349 495.686C352.278 493.1 350.709 490.75 348.729 488.771C346.75 486.792 344.4 485.222 341.814 484.151C339.227 483.081 336.456 482.53 333.656 482.531H320.969L320.906 271.594L395.719 344.938C399.755 348.891 405.197 351.079 410.846 351.02C416.496 350.961 421.89 348.661 425.844 344.625L445.125 324.969C449.078 320.932 451.266 315.491 451.208 309.842C451.149 304.192 448.849 298.797 444.813 294.844L309.938 162.625C309.633 162.345 309.32 162.074 309 161.813L299.344 152C297.345 149.973 294.96 148.367 292.33 147.278C289.7 146.188 286.878 145.637 284.031 145.656V145.656Z" fill="#8D8D8D"/>
<path d="M266.184 184.504L283.94 167.179L299.319 182.815L299.396 515.653H266.184V184.504Z" fill="#E80000"/>
<path d="M232.996 516.57H333.399" stroke="black" stroke-width="25"/>
<path d="M272.761 178.071L292.04 197.738L157.174 329.942L137.895 310.276L272.761 178.071Z" fill="#E80000"/>
<path d="M294.791 178.07L275.513 197.737L410.378 329.942L429.657 310.275L294.791 178.07Z" fill="#E80000"/>
</svg>
