<?xml version="1.0" encoding="UTF-8"?>
<svg xmlns="http://www.w3.org/2000/svg" xmlns:xlink="http://www.w3.org/1999/xlink" width="32" height="32" viewBox="0 0 32 32">
<path fill-rule="nonzero" fill="rgb(100%, 100%, 100%)" fill-opacity="1" d="M 4.257812 18.277344 L 19.710938 18.277344 L 19.710938 20.070312 L 16.222656 20.070312 L 16.222656 28.222656 L 28 28.222656 L 28 20.070312 L 24.621094 20.070312 L 24.621094 18.277344 L 29.8125 18.277344 L 29.8125 29.128906 C 29.8125 29.601562 29.378906 30.035156 28.90625 30.035156 L 5.164062 30.035156 C 4.691406 30.035156 4.257812 29.601562 4.257812 29.128906 Z M 4.257812 18.277344 "/>
<path fill-rule="evenodd" fill="rgb(100%, 100%, 100%)" fill-opacity="1" d="M 23.046875 15.800781 L 23.046875 21.964844 L 24.570312 21.964844 L 22.1875 26.328125 L 19.804688 21.964844 L 21.332031 21.964844 L 21.332031 15.800781 Z M 23.046875 15.800781 "/>
<path fill-rule="nonzero" fill="rgb(100%, 100%, 100%)" fill-opacity="1" d="M 4.847656 1.890625 C 3.726562 2.90625 2.328125 3.839844 2.328125 3.839844 L 2.328125 4.707031 L 3.332031 5.617188 L 9.195312 5.617188 L 9.179688 6.710938 L 6.722656 6.730469 L 4.890625 9.933594 L 2.328125 10.628906 L 2.328125 13.882812 L 4.359375 13.882812 C 4.359375 13.863281 4.359375 13.839844 4.355469 13.816406 C 4.355469 12.519531 5.410156 11.464844 6.707031 11.464844 C 8.003906 11.464844 9.054688 12.519531 9.054688 13.816406 C 9.054688 13.839844 9.050781 13.863281 9.050781 13.882812 L 16.628906 13.882812 C 16.628906 13.863281 16.625 13.839844 16.625 13.816406 C 16.625 12.519531 17.675781 11.464844 18.972656 11.464844 C 20.273438 11.464844 21.324219 12.519531 21.324219 13.816406 C 21.320312 13.839844 21.320312 13.863281 21.320312 13.882812 L 24.253906 13.882812 L 24.253906 2.796875 L 18.132812 2.796875 L 17.003906 1.890625 Z M 5.144531 2.96875 L 9.195312 2.96875 L 9.195312 4.6875 L 5.144531 4.6875 Z M 17.453125 5.617188 L 21.503906 5.617188 L 21.503906 8.71875 L 17.453125 8.71875 Z M 12.277344 5.617188 L 15.746094 5.617188 L 15.746094 12.878906 L 12.277344 12.878906 Z M 7.433594 7.757812 L 9.175781 7.757812 L 9.175781 9.964844 L 6.246094 9.964844 Z M 18.972656 12.3125 C 18.144531 12.3125 17.472656 12.984375 17.472656 13.816406 C 17.472656 14.644531 18.144531 15.320312 18.972656 15.320312 C 19.804688 15.320312 20.476562 14.644531 20.476562 13.816406 C 20.476562 12.984375 19.804688 12.3125 18.972656 12.3125 Z M 6.707031 12.332031 C 5.886719 12.332031 5.222656 12.996094 5.222656 13.816406 C 5.222656 14.632812 5.886719 15.296875 6.707031 15.296875 C 7.523438 15.296875 8.1875 14.632812 8.1875 13.816406 C 8.1875 12.996094 7.523438 12.332031 6.707031 12.332031 Z M 6.707031 12.332031 "/>
</svg>
