<svg width="64" height="64" viewBox="0 0 1060 1060" fill="none" xmlns="http://www.w3.org/2000/svg">
<path opacity="0.372" d="M529.992 457.268C490.272 457.268 457.263 490.276 457.263 529.997C457.263 569.718 490.272 602.726 529.992 602.726C569.713 602.726 602.722 569.718 602.722 529.997C602.722 490.276 569.713 457.268 529.992 457.268Z" fill="#E4E4E4"/>
<path opacity="0.372" d="M530.016 367.984C441.011 367.984 367.984 440.969 367.984 529.984C367.984 618.999 441.001 692.016 530.016 692.016C619.031 692.016 692.016 618.989 692.016 529.984C692.016 440.98 619.02 367.984 530.016 367.984ZM530.016 458.547C570.126 458.547 601.453 489.874 601.453 529.984C601.453 570.095 570.114 601.453 530.016 601.453C489.918 601.453 458.547 570.082 458.547 529.984C458.547 489.886 489.905 458.547 530.016 458.547Z" fill="#E4E4E4"/>
<path d="M646.737 530C646.737 560.961 634.438 590.653 612.546 612.546C590.653 634.438 560.961 646.737 530 646.737C499.039 646.737 469.347 634.438 447.454 612.546C425.562 590.653 413.263 560.961 413.263 530C413.263 499.039 425.562 469.347 447.454 447.454C469.347 425.562 499.039 413.263 530 413.263C560.961 413.263 590.653 425.562 612.546 447.454C634.438 469.347 646.737 499.039 646.737 530V530Z" stroke="black" stroke-width="21.4266" stroke-linecap="round"/>
<path d="M585.61 530C585.61 544.749 579.751 558.893 569.322 569.322C558.894 579.751 544.749 585.61 530 585.61C515.252 585.61 501.107 579.751 490.678 569.322C480.25 558.893 474.391 544.749 474.391 530C474.391 515.251 480.25 501.107 490.678 490.678C501.107 480.249 515.252 474.39 530 474.39C544.749 474.39 558.894 480.249 569.322 490.678C579.751 501.107 585.61 515.251 585.61 530Z" fill="black"/>
</svg>
