<?xml version="1.0" encoding="UTF-8"?>
<svg xmlns="http://www.w3.org/2000/svg" xmlns:xlink="http://www.w3.org/1999/xlink" width="12" height="12" viewBox="0 0 12 12" version="1.1">
<g id="surface1">
<path style=" stroke:none;fill-rule:nonzero;fill:rgb(100%,96.078432%,94.509804%);fill-opacity:1;" d="M 8.039062 3.941406 C 8.039062 5.082031 7.140625 5.980469 6 5.980469 C 4.859375 5.980469 3.960938 5.082031 3.960938 3.941406 C 3.960938 2.59375 5.671875 1.738281 6 1.574219 C 6.328125 1.738281 8.039062 2.59375 8.039062 3.941406 Z M 8.039062 3.941406 "/>
<path style=" stroke:none;fill-rule:nonzero;fill:rgb(100%,96.078432%,94.509804%);fill-opacity:1;" d="M 10.894531 4.757812 C 10.894531 5.449219 10.363281 5.980469 9.671875 5.980469 C 8.976562 5.980469 8.449219 5.449219 8.449219 4.757812 C 8.449219 3.941406 9.46875 3.449219 9.671875 3.328125 C 9.875 3.449219 10.894531 3.941406 10.894531 4.757812 Z M 10.894531 4.757812 "/>
<path style=" stroke:none;fill-rule:nonzero;fill:rgb(100%,96.078432%,94.509804%);fill-opacity:1;" d="M 3.550781 4.757812 C 3.550781 5.449219 3.023438 5.980469 2.328125 5.980469 C 1.636719 5.980469 1.105469 5.449219 1.105469 4.757812 C 1.105469 3.941406 2.125 3.449219 2.328125 3.328125 C 2.53125 3.449219 3.550781 3.941406 3.550781 4.757812 Z M 3.550781 4.757812 "/>
<path style=" stroke:none;fill-rule:nonzero;fill:rgb(100%,96.078432%,94.509804%);fill-opacity:1;" d="M 6 1.695312 C 6.15625 1.695312 6.285156 1.570312 6.285156 1.410156 C 6.285156 1.253906 6.15625 1.125 6 1.125 C 5.84375 1.125 5.714844 1.253906 5.714844 1.410156 C 5.714844 1.570312 5.84375 1.695312 6 1.695312 Z M 6 1.695312 "/>
<path style=" stroke:none;fill-rule:nonzero;fill:rgb(100%,96.078432%,94.509804%);fill-opacity:1;" d="M 10.488281 6.386719 L 10.488281 5.164062 L 8.855469 5.164062 L 8.855469 5.980469 L 7.632812 5.980469 L 7.632812 5.164062 L 4.367188 5.164062 L 4.367188 5.980469 L 3.144531 5.980469 L 3.144531 5.164062 L 1.511719 5.164062 L 1.511719 6.386719 L 1.105469 6.386719 L 1.105469 10.875 L 2.125 10.875 C 2.125 10.875 2.125 9.894531 2.125 9.855469 C 2.125 9.527344 2.738281 9.242188 2.738281 9.242188 C 2.738281 9.242188 3.347656 9.527344 3.347656 9.855469 L 3.347656 10.875 L 4.367188 10.875 C 4.367188 10.875 4.367188 9.039062 4.367188 8.835938 C 4.367188 8.140625 6 7.203125 6 7.203125 C 6 7.203125 7.632812 8.140625 7.632812 8.835938 C 7.632812 8.917969 7.632812 10.875 7.632812 10.875 L 8.652344 10.875 C 8.652344 10.875 8.652344 9.894531 8.652344 9.855469 C 8.652344 9.527344 9.261719 9.242188 9.261719 9.242188 C 9.261719 9.242188 9.875 9.527344 9.875 9.855469 L 9.875 10.875 L 10.894531 10.875 L 10.894531 6.386719 Z M 3.347656 8.425781 L 2.125 8.425781 C 2.125 8.34375 2.125 7.488281 2.125 7.40625 C 2.125 7.082031 2.738281 6.796875 2.738281 6.796875 C 2.738281 6.796875 3.347656 7.082031 3.347656 7.40625 C 3.347656 7.488281 3.347656 8.34375 3.347656 8.425781 Z M 9.875 8.425781 L 8.652344 8.425781 C 8.652344 8.34375 8.652344 7.488281 8.652344 7.40625 C 8.652344 7.082031 9.261719 6.796875 9.261719 6.796875 C 9.261719 6.796875 9.875 7.082031 9.875 7.40625 C 9.875 7.488281 9.875 8.34375 9.875 8.425781 Z M 9.875 8.425781 "/>
</g>
</svg>
