<?xml version="1.0" encoding="UTF-8"?>
<svg xmlns="http://www.w3.org/2000/svg" xmlns:xlink="http://www.w3.org/1999/xlink" width="32" height="32" viewBox="0 0 32 32">
<defs>
<filter id="filter-remove-color" x="0%" y="0%" width="100%" height="100%">
<feColorMatrix color-interpolation-filters="sRGB" values="0 0 0 0 1 0 0 0 0 1 0 0 0 0 1 0 0 0 1 0" />
</filter>
<mask id="mask-0">
<g filter="url(#filter-remove-color)">
<rect x="-3.2" y="-3.2" width="38.4" height="38.4" fill="rgb(0%, 0%, 0%)" fill-opacity="0.2"/>
</g>
</mask>
<clipPath id="clip-0">
<rect x="0" y="0" width="32" height="32"/>
</clipPath>
<g id="source-7" clip-path="url(#clip-0)">
<path fill-rule="nonzero" fill="rgb(100%, 100%, 100%)" fill-opacity="1" d="M 0 16 C 0 7.164062 7.164062 0 16 0 C 24.835938 0 32 7.164062 32 16 L 32 26.667969 C 32 29.613281 29.613281 32 26.667969 32 L 5.332031 32 C 2.386719 32 0 29.613281 0 26.667969 Z M 0 16 "/>
</g>
<mask id="mask-1">
<g filter="url(#filter-remove-color)">
<rect x="-3.2" y="-3.2" width="38.4" height="38.4" fill="rgb(0%, 0%, 0%)" fill-opacity="0.5"/>
</g>
</mask>
<clipPath id="clip-1">
<rect x="0" y="0" width="32" height="32"/>
</clipPath>
<g id="source-13" clip-path="url(#clip-1)">
<path fill-rule="nonzero" fill="rgb(100%, 100%, 100%)" fill-opacity="1" d="M 10.667969 22.667969 L 13.332031 22.667969 L 11.734375 26.667969 L 20.265625 26.667969 L 18.667969 22.667969 L 21.332031 22.667969 L 24 29.332031 L 8 29.332031 Z M 10.667969 22.667969 "/>
</g>
</defs>
<g mask="url(#mask-0)">
<use xlink:href="#source-7"/>
</g>
<path fill-rule="evenodd" fill="rgb(100%, 100%, 100%)" fill-opacity="1" d="M 9 6.332031 C 9.640625 5.691406 10.507812 5.332031 11.414062 5.332031 L 20.585938 5.332031 C 21.492188 5.332031 22.359375 5.691406 23 6.332031 C 23.640625 6.972656 24 7.84375 24 8.746094 L 24 21.332031 C 24 22.804688 22.804688 24 21.332031 24 L 10.667969 24 C 9.195312 24 8 22.804688 8 21.332031 L 8 8.746094 C 8 7.84375 8.359375 6.972656 9 6.332031 Z M 10.667969 16 L 10.667969 10.667969 L 21.332031 10.667969 L 21.332031 16 Z M 13.332031 20 C 13.332031 20.738281 12.738281 21.332031 12 21.332031 C 11.261719 21.332031 10.667969 20.738281 10.667969 20 C 10.667969 19.261719 11.261719 18.667969 12 18.667969 C 12.738281 18.667969 13.332031 19.261719 13.332031 20 Z M 20 21.332031 C 20.738281 21.332031 21.332031 20.738281 21.332031 20 C 21.332031 19.261719 20.738281 18.667969 20 18.667969 C 19.261719 18.667969 18.667969 19.261719 18.667969 20 C 18.667969 20.738281 19.261719 21.332031 20 21.332031 Z M 20 21.332031 "/>
<path fill-rule="evenodd" fill="rgb(100%, 100%, 100%)" fill-opacity="1" d="M 0 16 C 0 7.164062 7.164062 0 16 0 C 24.835938 0 32 7.164062 32 16 L 32 29.332031 C 32 30.804688 30.804688 32 29.332031 32 L 2.667969 32 C 1.195312 32 0 30.804688 0 29.332031 Z M 29.332031 16 L 29.332031 29.332031 L 2.667969 29.332031 L 2.667969 16 C 2.667969 8.636719 8.636719 2.667969 16 2.667969 C 23.363281 2.667969 29.332031 8.636719 29.332031 16 Z M 29.332031 16 "/>
<g mask="url(#mask-1)">
<use xlink:href="#source-13"/>
</g>
</svg>
