<?xml version="1.0" encoding="UTF-8"?>
<svg xmlns="http://www.w3.org/2000/svg" xmlns:xlink="http://www.w3.org/1999/xlink" width="12" height="12" viewBox="0 0 12 12" version="1.1">
<defs>
<filter id="alpha" filterUnits="objectBoundingBox" x="0%" y="0%" width="100%" height="100%">
  <feColorMatrix type="matrix" in="SourceGraphic" values="0 0 0 0 1 0 0 0 0 1 0 0 0 0 1 0 0 0 1 0"/>
</filter>
<mask id="mask0">
  <g filter="url(#alpha)">
<rect x="0" y="0" width="12" height="12" style="fill:rgb(0%,0%,0%);fill-opacity:0.2;stroke:none;"/>
  </g>
</mask>
<clipPath id="clip1">
  <rect x="0" y="0" width="12" height="12"/>
</clipPath>
<g id="surface5" clip-path="url(#clip1)">
<path style=" stroke:none;fill-rule:nonzero;fill:rgb(100%,100%,100%);fill-opacity:1;" d="M 1 3 L 6 3 L 6 9 L 1 9 Z M 1 3 "/>
</g>
</defs>
<g id="surface1">
<path style=" stroke:none;fill-rule:evenodd;fill:rgb(100%,100%,100%);fill-opacity:1;" d="M 11 3 L 1 3 L 1 9 L 11 9 Z M 1 2 C 0.449219 2 0 2.449219 0 3 L 0 9 C 0 9.550781 0.449219 10 1 10 L 11 10 C 11.550781 10 12 9.550781 12 9 L 12 3 C 12 2.449219 11.550781 2 11 2 Z M 1 2 "/>
<use xlink:href="#surface5" mask="url(#mask0)"/>
<path style=" stroke:none;fill-rule:nonzero;fill:rgb(100%,100%,100%);fill-opacity:1;" d="M 2 4 L 5 6 L 2 8 Z M 2 4 "/>
<path style=" stroke:none;fill-rule:nonzero;fill:rgb(100%,100%,100%);fill-opacity:1;" d="M 8 5 L 9 5 L 9 6 L 8 6 Z M 8 5 "/>
<path style=" stroke:none;fill-rule:evenodd;fill:rgb(100%,100%,100%);fill-opacity:1;" d="M 6 5 L 6 6 L 7 6 L 7 7 L 6 7 L 6 8 L 7 8 L 7 9 L 8 9 L 8 8 L 9 8 L 9 9 L 10 9 L 10 8 L 11 8 L 11 7 L 10 7 L 10 6 L 11 6 L 11 5 L 10 5 L 10 4 L 11 4 L 11 3 L 10 3 L 10 4 L 9 4 L 9 3 L 8 3 L 8 4 L 7 4 L 7 3 L 6 3 L 6 4 L 7 4 L 7 5 Z M 8 5 L 7 5 L 7 6 L 8 6 L 8 7 L 7 7 L 7 8 L 8 8 L 8 7 L 9 7 L 9 8 L 10 8 L 10 7 L 9 7 L 9 6 L 10 6 L 10 5 L 9 5 L 9 4 L 8 4 Z M 8 5 "/>
</g>
</svg>
