<svg width="32" height="32" viewBox="0 0 16 16" fill="none" xmlns="http://www.w3.org/2000/svg">
<path d="M12.2218 3.60269H3.77815C3.39983 3.60269 3.09314 3.90938 3.09314 4.2877V11.7123C3.09314 12.0906 3.39983 12.3973 3.77815 12.3973H12.2218C12.6001 12.3973 12.9068 12.0906 12.9068 11.7123V4.2877C12.9068 3.90938 12.6001 3.60269 12.2218 3.60269Z" fill="#FEFEFE"/>
<path d="M3.87384 4.33173H6.8565L8.00752 8.42257L9.15354 4.33173H12.1262V11.6683H10.116V7.78373L8.96301 11.6683H7.03702L5.88903 7.78373V11.6683H3.87384V4.33173Z" fill="#51AF7D"/>
<path fill-rule="evenodd" clip-rule="evenodd" d="M3.87341 7.98666V11.6691H5.89006V7.98666H3.87341V7.98666ZM5.95003 7.98666L7.03609 11.6691H8.9639L10.0566 7.98666H8.12881L8.00666 8.42198L7.88451 7.98666H5.95003V7.98666ZM10.1166 7.98666V11.6691H12.1266V7.98666H10.1166V7.98666Z" fill="#2095D8"/>
<path d="M3.43365 8.10052H12.4953" stroke="#FEFEFE" stroke-width="0.3"/>
</svg>
