<svg width="32" height="32" viewBox="0 0 580 580" fill="none" xmlns="http://www.w3.org/2000/svg">
<g clip-path="url(#clip0)">
<path opacity="0.43913" d="M394.281 -4.65608C390.595 -4.46568 387.12 -2.87903 384.562 -0.218575L309.406 77.9689C307.604 79.8473 306.34 82.1755 305.746 84.71C305.153 87.2444 305.251 89.8918 306.031 92.3752C304.358 94.2788 303.213 96.587 302.709 99.0705C302.204 101.554 302.359 104.126 303.156 106.531L330.875 189.438L255.719 516.313C255.292 518.172 255.235 520.097 255.552 521.978C255.869 523.859 256.553 525.659 257.566 527.275C258.579 528.892 259.9 530.293 261.454 531.398C263.009 532.504 264.766 533.293 266.625 533.719L290.25 539.156C292.135 539.589 294.087 539.64 295.992 539.308C297.897 538.976 299.717 538.266 301.344 537.221C302.971 536.176 304.373 534.817 305.468 533.223C306.563 531.628 307.328 529.832 307.719 527.938L375.719 198.719L436.562 135.438C438.359 133.562 439.62 131.239 440.213 128.711C440.807 126.183 440.712 123.542 439.937 121.063C441.61 119.159 442.756 116.851 443.26 114.367C443.764 111.884 443.61 109.312 442.812 106.906L408.812 5.25017C407.807 2.23692 405.842 -0.363608 403.217 -2.15288C400.592 -3.94216 397.453 -4.82147 394.281 -4.65608V-4.65608Z" fill="#ACD8F3"/>
<path d="M425.948 125.588L316.769 102.133L350.763 203.777" fill="black"/>
<path d="M319.702 88.2452L428.881 111.7L394.888 10.0566" fill="black"/>
<path d="M367.865 92.8223L269.718 519.774L293.34 525.199L381.959 96.0746L367.865 92.8223Z" fill="black"/>
</g>
<defs>
<clipPath id="clip0">
<path d="M0 0H580V580H0V0Z" fill="white"/>
</clipPath>
</defs>
</svg>
