<?xml version="1.0" encoding="UTF-8"?>
<svg xmlns="http://www.w3.org/2000/svg" xmlns:xlink="http://www.w3.org/1999/xlink" width="12" height="12" viewBox="0 0 12 12" version="1.1">
<g id="surface1">
<path style=" stroke:none;fill-rule:nonzero;fill:rgb(100%,96.078432%,94.509804%);fill-opacity:1;" d="M 8.695312 3.882812 L 7.539062 3.882812 L 7.539062 5.039062 L 8.695312 5.039062 Z M 8.695312 3.882812 "/>
<path style=" stroke:none;fill-rule:nonzero;fill:rgb(100%,96.078432%,94.509804%);fill-opacity:1;" d="M 4.460938 3.882812 L 3.304688 3.882812 L 3.304688 5.039062 L 4.460938 5.039062 Z M 4.460938 3.882812 "/>
<path style=" stroke:none;fill-rule:nonzero;fill:rgb(100%,96.078432%,94.509804%);fill-opacity:1;" d="M 10.234375 6.578125 L 7.539062 6.578125 L 7.539062 8.117188 L 10.234375 8.117188 Z M 10.234375 6.578125 "/>
<path style=" stroke:none;fill-rule:nonzero;fill:rgb(100%,96.078432%,94.509804%);fill-opacity:1;" d="M 9.464844 5.039062 L 7.539062 5.039062 L 7.539062 6.578125 L 9.464844 6.578125 Z M 9.464844 5.039062 "/>
<path style=" stroke:none;fill-rule:nonzero;fill:rgb(100%,96.078432%,94.509804%);fill-opacity:1;" d="M 4.460938 6.578125 L 1.765625 6.578125 L 1.765625 8.117188 L 4.460938 8.117188 Z M 4.460938 6.578125 "/>
<path style=" stroke:none;fill-rule:nonzero;fill:rgb(100%,96.078432%,94.509804%);fill-opacity:1;" d="M 11.003906 8.117188 L 7.539062 8.117188 L 7.539062 9.65625 L 11.003906 9.65625 Z M 11.003906 8.117188 "/>
<path style=" stroke:none;fill-rule:nonzero;fill:rgb(100%,96.078432%,94.509804%);fill-opacity:1;" d="M 4.460938 5.039062 L 2.535156 5.039062 L 2.535156 6.578125 L 4.460938 6.578125 Z M 4.460938 5.039062 "/>
<path style=" stroke:none;fill-rule:nonzero;fill:rgb(100%,96.078432%,94.509804%);fill-opacity:1;" d="M 4.460938 8.117188 L 0.996094 8.117188 L 0.996094 9.65625 L 4.460938 9.65625 Z M 4.460938 8.117188 "/>
<path style=" stroke:none;fill-rule:nonzero;fill:rgb(100%,96.078432%,94.509804%);fill-opacity:1;" d="M 7.15625 8.886719 L 4.84375 8.886719 L 4.84375 9.65625 L 7.15625 9.65625 Z M 7.15625 8.886719 "/>
<path style=" stroke:none;fill-rule:nonzero;fill:rgb(100%,96.078432%,94.509804%);fill-opacity:1;" d="M 7.15625 7.734375 L 4.84375 7.734375 L 4.84375 8.503906 L 7.15625 8.503906 Z M 7.15625 7.734375 "/>
<path style=" stroke:none;fill-rule:nonzero;fill:rgb(100%,96.078432%,94.509804%);fill-opacity:1;" d="M 7.15625 6.578125 L 4.84375 6.578125 L 4.84375 7.347656 L 7.15625 7.347656 Z M 7.15625 6.578125 "/>
<path style=" stroke:none;fill-rule:nonzero;fill:rgb(100%,96.078432%,94.509804%);fill-opacity:1;" d="M 7.15625 5.421875 L 4.84375 5.421875 L 4.84375 6.191406 L 7.15625 6.191406 Z M 7.15625 5.421875 "/>
<path style=" stroke:none;fill-rule:nonzero;fill:rgb(100%,96.078432%,94.509804%);fill-opacity:1;" d="M 7.15625 4.265625 L 4.84375 4.265625 L 4.84375 5.039062 L 7.15625 5.039062 Z M 7.15625 4.265625 "/>
<path style=" stroke:none;fill-rule:nonzero;fill:rgb(100%,96.078432%,94.509804%);fill-opacity:1;" d="M 4.074219 2.34375 L 4.074219 3.882812 L 4.84375 3.882812 C 4.84375 3.5625 4.84375 3.542969 4.84375 3.496094 C 4.84375 3.285156 5.015625 3.113281 5.230469 3.113281 C 5.441406 3.113281 5.613281 3.285156 5.613281 3.496094 C 5.613281 3.542969 5.613281 3.5625 5.613281 3.882812 L 6.386719 3.882812 C 6.386719 3.5625 6.386719 3.542969 6.386719 3.496094 C 6.386719 3.285156 6.558594 3.113281 6.769531 3.113281 C 6.984375 3.113281 7.15625 3.285156 7.15625 3.496094 C 7.15625 3.542969 7.15625 3.5625 7.15625 3.882812 L 7.925781 3.882812 L 7.925781 2.34375 Z M 4.074219 2.34375 "/>
</g>
</svg>
