<?xml version="1.0" encoding="UTF-8"?>
<svg xmlns="http://www.w3.org/2000/svg" xmlns:xlink="http://www.w3.org/1999/xlink" width="12" height="12" viewBox="0 0 12 12" version="1.1">
<g id="surface1">
<path style=" stroke:none;fill-rule:evenodd;fill:rgb(100%,100%,100%);fill-opacity:1;" d="M 3.429688 1.417969 L 3 4 L 2.5 4 C 2.222656 4 2 4.222656 2 4.5 C 2 4.777344 2.222656 5 2.5 5 L 3 5 L 3 7.5 C 3 7.777344 3.222656 8 3.5 8 C 3.777344 8 4 7.777344 4 7.5 L 4 7 L 9 7 L 9 7.5 C 9 7.777344 9.222656 8 9.5 8 C 9.777344 8 10 7.777344 10 7.5 L 10 5 L 10.5 5 C 10.777344 5 11 4.777344 11 4.5 C 11 4.222656 10.777344 4 10.5 4 L 10 4 L 9.570312 1.417969 C 9.53125 1.175781 9.320312 1 9.078125 1 L 3.921875 1 C 3.679688 1 3.46875 1.175781 3.429688 1.417969 Z M 8.984375 4 L 8.652344 2 L 4.347656 2 L 4.015625 4 Z M 4 5.5 C 4 5.222656 4.222656 5 4.5 5 C 4.777344 5 5 5.222656 5 5.5 C 5 5.777344 4.777344 6 4.5 6 C 4.222656 6 4 5.777344 4 5.5 Z M 8 5.5 C 8 5.222656 8.222656 5 8.5 5 C 8.777344 5 9 5.222656 9 5.5 C 9 5.777344 8.777344 6 8.5 6 C 8.222656 6 8 5.777344 8 5.5 Z M 8 5.5 "/>
<path style=" stroke:none;fill-rule:evenodd;fill:rgb(100%,100%,100%);fill-opacity:1;" d="M 10 8.5 L 8.792969 8.5 L 7.683594 9.609375 L 2.453125 9.050781 C 2.167969 9.019531 1.882812 9.117188 1.675781 9.324219 C 1.304688 9.695312 1.308594 10.308594 1.679688 10.679688 C 1.882812 10.882812 2.164062 10.984375 2.449219 10.960938 L 7.792969 10.5 L 8.792969 11.5 L 10 11.5 L 10 10.5 L 9.207031 10.5 L 8.707031 10 L 9.207031 9.5 L 10 9.5 Z M 3 10 C 3 10.277344 2.777344 10.5 2.5 10.5 C 2.222656 10.5 2 10.277344 2 10 C 2 9.722656 2.222656 9.5 2.5 9.5 C 2.777344 9.5 3 9.722656 3 10 Z M 3 10 "/>
</g>
</svg>
