<svg width="32" height="32" viewBox="0 0 320 320" fill="none" xmlns="http://www.w3.org/2000/svg">
<path d="M160.691 87.4138C170.74 87.4138 178.983 95.6576 178.983 105.706C178.983 115.754 170.739 123.998 160.691 123.998C150.643 123.998 142.399 115.754 142.399 105.706C142.399 95.6576 150.643 87.4138 160.691 87.4138V87.4138ZM160.691 96.5598C155.586 96.5598 151.545 100.601 151.545 105.706C151.545 110.811 155.586 114.852 160.691 114.852C165.797 114.852 169.837 110.811 169.837 105.706C169.837 100.601 165.797 96.5598 160.691 96.5598Z" fill="#FEFEFE"/>
<path d="M121.757 178.051C121.757 178.051 111.214 165.573 101.034 162.148C94.5276 171.473 92.6398 183.222 92.6398 188.71C92.6398 188.71 100.042 185.292 104.786 177.614C108.473 180.152 121.757 178.051 121.757 178.051Z" fill="#FEFEFE"/>
<path d="M199.082 177.834C199.082 177.834 209.806 165.798 219.985 162.372C226.342 169.081 227.36 188.096 227.36 188.096C227.36 188.096 221.119 184.314 216.597 177.614C212.909 180.152 199.082 177.834 199.082 177.834Z" fill="#FEFEFE"/>
<path d="M112.468 172.876C117.958 195.597 142.234 208.815 153.204 209.762V119.425H168.179V209.762C179.148 208.815 205.114 196.83 208.915 172.876L225.33 178.313C221.155 198.412 196.929 218.163 171.02 221.812C164.401 223.586 160.691 232.586 160.691 232.586C160.691 232.586 156.981 223.586 150.362 221.812C123.532 218.317 100.228 198.412 96.0525 178.313L112.468 172.876Z" fill="#FEFEFE"/>
<path d="M179.41 125.846H141.972V134.992H179.41V125.846Z" fill="#FEFEFE"/>
</svg>
