<?xml version="1.0" encoding="UTF-8"?>
<svg xmlns="http://www.w3.org/2000/svg" xmlns:xlink="http://www.w3.org/1999/xlink" width="32" height="32" viewBox="0 0 32 32">
<path fill-rule="evenodd" fill="rgb(100%, 100%, 100%)" fill-opacity="1" d="M 24 17.332031 L 21.332031 18.667969 L 20 22.667969 L 12 22.667969 L 10.667969 18.667969 L 8 17.332031 L 4 17.332031 L 4 13.332031 L 8 12 L 9.332031 6.667969 L 20 6.667969 L 22.667969 12 L 28 13.332031 L 28 16 L 26.667969 17.332031 Z M 10.332031 13.667969 L 17.332031 16 L 20.441406 13.511719 L 18.351562 9.332031 L 11.414062 9.332031 Z M 10.332031 13.667969 "/>
<path fill-rule="evenodd" fill="rgb(100%, 100%, 100%)" fill-opacity="1" d="M 10.667969 22.667969 C 10.667969 24.875 8.875 26.667969 6.667969 26.667969 C 4.457031 26.667969 2.667969 24.875 2.667969 22.667969 C 2.667969 20.457031 4.457031 18.667969 6.667969 18.667969 C 8.875 18.667969 10.667969 20.457031 10.667969 22.667969 Z M 8 22.667969 C 8 23.402344 7.402344 24 6.667969 24 C 5.929688 24 5.332031 23.402344 5.332031 22.667969 C 5.332031 21.929688 5.929688 21.332031 6.667969 21.332031 C 7.402344 21.332031 8 21.929688 8 22.667969 Z M 8 22.667969 "/>
<path fill-rule="evenodd" fill="rgb(100%, 100%, 100%)" fill-opacity="1" d="M 29.332031 22.667969 C 29.332031 24.875 27.542969 26.667969 25.332031 26.667969 C 23.125 26.667969 21.332031 24.875 21.332031 22.667969 C 21.332031 20.457031 23.125 18.667969 25.332031 18.667969 C 27.542969 18.667969 29.332031 20.457031 29.332031 22.667969 Z M 26.667969 22.667969 C 26.667969 23.402344 26.070312 24 25.332031 24 C 24.597656 24 24 23.402344 24 22.667969 C 24 21.929688 24.597656 21.332031 25.332031 21.332031 C 26.070312 21.332031 26.667969 21.929688 26.667969 22.667969 Z M 26.667969 22.667969 "/>
</svg>
