<?xml version="1.0" encoding="UTF-8"?>
<svg xmlns="http://www.w3.org/2000/svg" xmlns:xlink="http://www.w3.org/1999/xlink" width="12" height="12" viewBox="0 0 12 12" version="1.1">
<g id="surface1">
<path style=" stroke:none;fill-rule:nonzero;fill:rgb(100%,100%,100%);fill-opacity:1;" d="M 3 5.5 C 3 5.222656 3.222656 5 3.5 5 L 3.5 4 L 2.5 4 C 2.222656 4 2 3.777344 2 3.5 L 2 2.5 C 2 2.222656 2.222656 2 2.5 2 L 3.5 2 L 3.5 1.5 L 4.5 1.5 L 4.5 2 L 5.5 2 C 5.777344 2 6 2.222656 6 2.5 L 6 3.5 C 6 3.777344 5.777344 4 5.5 4 L 4.5 4 L 4.5 5 C 4.777344 5 5 5.222656 5 5.5 L 5 9.5 C 5 9.777344 4.777344 10 4.5 10 L 3.5 10 C 3.222656 10 3 9.777344 3 9.5 Z M 3 5.5 "/>
<path style=" stroke:none;fill-rule:evenodd;fill:rgb(100%,100%,100%);fill-opacity:1;" d="M 10.015625 10 L 10.015625 8.8125 L 9.015625 7.808594 L 9.464844 2.898438 C 9.488281 2.644531 9.394531 2.394531 9.207031 2.207031 C 8.824219 1.824219 8.175781 1.824219 7.792969 2.207031 C 7.605469 2.394531 7.511719 2.644531 7.535156 2.898438 L 7.984375 7.808594 L 6.980469 8.8125 L 6.980469 10 L 8.019531 10 L 8.019531 9.1875 L 8.5 8.707031 L 8.980469 9.1875 L 8.980469 10 Z M 8.5 4 C 8.222656 4 8 3.777344 8 3.5 C 8 3.222656 8.222656 3 8.5 3 C 8.777344 3 9 3.222656 9 3.5 C 9 3.777344 8.777344 4 8.5 4 Z M 8.5 4 "/>
</g>
</svg>
