<?xml version="1.0" encoding="UTF-8" standalone="no"?>
<svg
   xmlns:dc="http://purl.org/dc/elements/1.1/"
   xmlns:cc="http://creativecommons.org/ns#"
   xmlns:rdf="http://www.w3.org/1999/02/22-rdf-syntax-ns#"
   xmlns:svg="http://www.w3.org/2000/svg"
   xmlns="http://www.w3.org/2000/svg"
   xmlns:sodipodi="http://sodipodi.sourceforge.net/DTD/sodipodi-0.dtd"
   xmlns:inkscape="http://www.inkscape.org/namespaces/inkscape"
   width="12"
   height="12"
   viewBox="0 0 48 48"
   version="1.1"
   id="svg12"
   sodipodi:docname="fuel.svg"
   style="fill:none"
   inkscape:version="0.92.5 (2060ec1f9f, 2020-04-08)">
  <metadata
     id="metadata18">
    <rdf:RDF>
      <cc:Work
         rdf:about="">
        <dc:format>image/svg+xml</dc:format>
        <dc:type
           rdf:resource="http://purl.org/dc/dcmitype/StillImage" />
        <dc:title></dc:title>
      </cc:Work>
    </rdf:RDF>
  </metadata>
  <defs
     id="defs16" />
  <sodipodi:namedview
     pagecolor="#ffffff"
     bordercolor="#666666"
     borderopacity="1"
     objecttolerance="10"
     gridtolerance="10"
     guidetolerance="10"
     inkscape:pageopacity="0"
     inkscape:pageshadow="2"
     inkscape:window-width="1920"
     inkscape:window-height="1014"
     id="namedview14"
     showgrid="true"
     inkscape:zoom="11.313709"
     inkscape:cx="10.64744"
     inkscape:cy="25.385603"
     inkscape:window-x="1920"
     inkscape:window-y="0"
     inkscape:window-maximized="1"
     inkscape:current-layer="svg12">
    <inkscape:grid
       type="xygrid"
       id="grid828"
       spacingx="2"
       spacingy="2" />
  </sodipodi:namedview>
  <path
     d="m 24.000001,7.3196047 c 9.490845,0 14.727309,3.4853443 14.727309,4.9791213 0,1.49378 -5.236464,4.979264 -14.727309,4.979264 -9.49084,0 -14.7271705,-3.485484 -14.7271705,-4.979264 0,-1.493777 5.2363305,-4.9791213 14.7271705,-4.9791213 z m 0,-3.3196048 c -9.981752,0 -18.0000009,3.6515084 -18.0000009,8.2987261 0,4.647362 7.9734289,7.345914 17.9553219,7.345914 C 33.937077,19.64464 42,16.946088 42,12.298726 42,7.6515083 33.981754,3.9999999 24.000001,3.9999999 Z"
     id="path2"
     inkscape:connector-curvature="0"
     style="fill:#ffffff;fill-opacity:1;stroke-width:1.00000012" />
  <path
     d="m 17.454624,13.95853 c 1.807404,0 3.272688,-0.743043 3.272688,-1.659804 0,-0.916617 -1.465284,-1.659659 -3.272688,-1.659659 -1.807546,0 -3.272831,0.743042 -3.272831,1.659659 0,0.916761 1.465285,1.659804 3.272831,1.659804 z"
     id="path4"
     inkscape:connector-curvature="0"
     style="fill:#ffffff;fill-opacity:1;stroke-width:1.00000012" />
  <path
     d="m 18.037984,33.579598 c 0,1.649255 0.812939,4.123214 3.52306,5.497572 -0.542053,-1.099459 -1.084106,-3.298517 -1.084106,-4.672875 0,-3.573412 2.4391,-9.345881 2.710123,-11.269895 -1.897043,3.84817 -5.149077,7.696483 -5.149077,10.445198 z"
     id="path6"
     inkscape:connector-curvature="0"
     style="fill:#ffffff;fill-opacity:1;stroke-width:1.00000012" />
  <path
     d="m 40,27.186486 c 0.981825,-0.995852 2,-1.941671 2,-3.269427 0,-1.327899 -1.018175,-2.53981 -2,-3.701544 v -4.813242 c 0,0 -6.672707,4.033447 -16.327225,4.033447 C 14.018249,19.43572 8,15.402546 8,15.402546 v 4.813242 c -0.9818194,0.995853 -1.9999999,2.373372 -1.9999999,3.701271 0,1.327756 1.0181805,2.107825 1.9999999,3.2697 V 32 c -0.9818194,0.995855 -1.9999999,2.373372 -1.9999999,3.701271 0,4.64722 8.0182489,8.298728 18.0000009,8.298728 C 33.981754,43.999999 42,40.348491 42,35.701271 42,34.539394 40.981825,33.161462 40,31.999727 Z M 24.000001,41.550982 c -4.607027,0 -8.13009,-3.298513 -8.13009,-7.696484 0,-5.222672 8.13009,-14.293512 8.13009,-14.293512 0,0 8.130086,9.34574 8.130086,14.293512 0,4.397971 -3.52306,7.696484 -8.130086,7.696484 z"
     id="path8"
     inkscape:connector-curvature="0"
     style="fill:#ffffff;fill-opacity:1;stroke-width:1.00000012"
     sodipodi:nodetypes="csccsccsccsssccsscss" />
</svg>
