<?xml version="1.0" encoding="UTF-8"?>
<svg xmlns="http://www.w3.org/2000/svg" xmlns:xlink="http://www.w3.org/1999/xlink" width="12" height="12" viewBox="0 0 12 12" version="1.1">
<g id="surface1">
<path style=" stroke:none;fill-rule:nonzero;fill:rgb(24.705882%,24.705882%,24.705882%);fill-opacity:1;" d="M 1 11 C 1 11 2.214844 9.761719 2.882812 9.554688 C 3.144531 9.46875 3.253906 9.363281 3.507812 8.945312 C 3.675781 8.664062 3.828125 8.398438 3.84375 8.355469 C 3.875 8.265625 4.761719 7.199219 5.101562 6.835938 C 5.855469 6.039062 6.023438 4.863281 6.1875 3.835938 C 6.238281 3.503906 6.355469 3.324219 7.035156 2.515625 C 7.464844 2 7.925781 1.472656 8.058594 1.339844 C 8.191406 1.210938 8.5 1 8.5 1 L 10 1 C 10 1 9.617188 1.363281 9.3125 1.703125 C 9.011719 2.046875 8.664062 2.4375 8.546875 2.574219 C 8.425781 2.710938 8.246094 2.988281 8.148438 3.191406 C 8.050781 3.398438 7.90625 3.644531 7.820312 3.742188 C 7.675781 3.90625 7.050781 5.410156 6.890625 5.964844 C 6.78125 6.351562 6.097656 7.355469 5.46875 8.050781 C 5.160156 8.390625 4.441406 9.167969 3.871094 9.777344 C 3.300781 10.386719 2.5 11 2.5 11 Z M 5 11 C 5 11 5.730469 9.707031 6.601562 8.601562 C 7.546875 7.402344 8.132812 6.609375 8.34375 6.242188 C 8.738281 5.550781 9.207031 4.90625 9.558594 4.183594 C 10.289062 2.691406 11 1.5 11 1.5 L 11 3.5 C 10.753906 4.074219 10.457031 4.621094 10.160156 5.167969 C 9.796875 5.839844 9.277344 6.421875 8.890625 7.082031 C 8.570312 7.625 7.839844 8.746094 7.625 9.023438 C 7.167969 9.621094 6.792969 10.308594 6.5 11 Z M 8.5 11 C 8.5 11 8.996094 9.765625 9.277344 9.261719 C 9.890625 8.175781 10.296875 7.042969 11 6 L 11 9.5 L 10.5 11 Z M 1.726562 8.335938 C 1.464844 8.296875 1.460938 8.253906 1.679688 7.753906 C 2.035156 6.941406 2.839844 5.890625 3.550781 5.316406 C 3.769531 5.140625 5.417969 4.433594 4.890625 5.019531 C 4.75 5.171875 4.523438 5.457031 4.382812 5.648438 C 3.777344 6.480469 3.160156 7.300781 2.550781 8.128906 C 2.347656 8.398438 2.257812 8.421875 1.726562 8.335938 Z M 1 4.5 C 1.191406 4.519531 1.636719 4.234375 1.765625 4.320312 C 1.808594 4.347656 1.960938 4.378906 2.109375 4.386719 C 2.707031 4.425781 3.480469 3.09375 3.828125 2.707031 C 4.589844 1.863281 5 1 5 1 L 6.5 1 C 5.992188 1.847656 5.300781 2.542969 4.753906 3.355469 C 4.363281 3.933594 3.519531 4.4375 2.882812 4.71875 C 2.296875 4.976562 1.574219 5.917969 1 6 Z M 1 3 C 1.53125 2.492188 2.296875 1.699219 2.5 1 L 3.734375 1 C 3.21875 2.0625 2.039062 3.476562 1 4 Z M 1 3 "/>
</g>
</svg>
