<svg width="12" height="12" viewBox="0 0 580 580" fill="none" xmlns="http://www.w3.org/2000/svg">
<path d="M143.873 488.631C162.479 488.631 177.563 473.548 177.563 454.941C177.563 436.335 162.479 421.252 143.873 421.252C125.267 421.252 110.184 436.335 110.184 454.941C110.184 473.548 125.267 488.631 143.873 488.631Z" fill="#ffffff"/>
<path d="M216.252 488.631C234.858 488.631 249.941 473.548 249.941 454.941C249.941 436.335 234.858 421.252 216.252 421.252C197.646 421.252 182.562 436.335 182.562 454.941C182.562 473.548 197.646 488.631 216.252 488.631Z" fill="#ffffff"/>
<path d="M288.631 488.631C307.237 488.631 322.32 473.548 322.32 454.941C322.32 436.335 307.237 421.252 288.631 421.252C270.025 421.252 254.941 436.335 254.941 454.941C254.941 473.548 270.025 488.631 288.631 488.631Z" fill="#ffffff"/>
<path d="M361.01 488.631C379.616 488.631 394.699 473.548 394.699 454.941C394.699 436.335 379.616 421.252 361.01 421.252C342.404 421.252 327.32 436.335 327.32 454.941C327.32 473.548 342.404 488.631 361.01 488.631Z" fill="#ffffff"/>
<path d="M433.389 488.631C451.995 488.631 467.078 473.548 467.078 454.941C467.078 436.335 451.995 421.252 433.389 421.252C414.783 421.252 399.699 436.335 399.699 454.941C399.699 473.548 414.783 488.631 433.389 488.631Z" fill="#ffffff"/>
<path d="M178.999 424.79C197.605 424.79 212.688 409.707 212.688 391.101C212.688 372.494 197.605 357.411 178.999 357.411C160.393 357.411 145.309 372.494 145.309 391.101C145.309 409.707 160.393 424.79 178.999 424.79Z" fill="#ffffff"/>
<path d="M251.378 424.79C269.984 424.79 285.067 409.707 285.067 391.101C285.067 372.494 269.984 357.411 251.378 357.411C232.772 357.411 217.688 372.494 217.688 391.101C217.688 409.707 232.772 424.79 251.378 424.79Z" fill="#ffffff"/>
<path d="M323.757 424.79C342.363 424.79 357.446 409.707 357.446 391.101C357.446 372.494 342.363 357.411 323.757 357.411C305.15 357.411 290.067 372.494 290.067 391.101C290.067 409.707 305.15 424.79 323.757 424.79Z" fill="#ffffff"/>
<path d="M396.136 424.79C414.742 424.79 429.825 409.707 429.825 391.101C429.825 372.494 414.742 357.411 396.136 357.411C377.529 357.411 362.446 372.494 362.446 391.101C362.446 409.707 377.529 424.79 396.136 424.79Z" fill="#ffffff"/>
<path d="M215.621 361.88C234.227 361.88 249.311 346.797 249.311 328.19C249.311 309.584 234.227 294.501 215.621 294.501C197.015 294.501 181.932 309.584 181.932 328.19C181.932 346.797 197.015 361.88 215.621 361.88Z" fill="#ffffff"/>
<path d="M288 361.88C306.606 361.88 321.689 346.797 321.689 328.19C321.689 309.584 306.606 294.501 288 294.501C269.394 294.501 254.311 309.584 254.311 328.19C254.311 346.797 269.394 361.88 288 361.88Z" fill="#ffffff"/>
<path d="M360.379 361.88C378.985 361.88 394.068 346.797 394.068 328.19C394.068 309.584 378.985 294.501 360.379 294.501C341.773 294.501 326.689 309.584 326.689 328.19C326.689 346.797 341.773 361.88 360.379 361.88Z" fill="#ffffff"/>
<path d="M251.345 299.573C269.951 299.573 285.034 284.49 285.034 265.884C285.034 247.278 269.951 232.194 251.345 232.194C232.739 232.194 217.656 247.278 217.656 265.884C217.656 284.49 232.739 299.573 251.345 299.573Z" fill="#ffffff"/>
<path d="M323.724 299.573C342.33 299.573 357.413 284.49 357.413 265.884C357.413 247.278 342.33 232.194 323.724 232.194C305.118 232.194 290.034 247.278 290.034 265.884C290.034 284.49 305.118 299.573 323.724 299.573Z" fill="#ffffff"/>
<path d="M288 238.335C306.606 238.335 321.689 223.252 321.689 204.646C321.689 186.039 306.606 170.956 288 170.956C269.394 170.956 254.311 186.039 254.311 204.646C254.311 223.252 269.394 238.335 288 238.335Z" fill="#ffffff"/>
<path d="M405.369 308.434L460.458 404.329C466.77 414.8 471.953 423.463 478.544 434.88C491.727 457.714 483.895 486.945 461.061 500.128C449.644 506.719 437.045 507.035 424.818 506.994L318.849 505.598L174.877 505.848C162.652 506.044 154.29 505.133 141.107 505.133C114.741 505.133 91.2412 481.634 91.2412 455.267C91.2412 442.084 98.9356 431.976 105.236 421.498L174.055 310.091L230.963 205.409C237.039 194.798 240.055 186.886 246.647 175.47C259.83 152.636 289.061 144.804 311.894 157.987C323.311 164.578 330.078 176.375 336.142 186.991L405.369 308.434Z" stroke="#ffffff" stroke-width="15.7599" stroke-linejoin="round"/>
<path d="M286 123.959C304.606 123.959 319.689 108.876 319.689 90.2695C319.689 71.6634 304.606 56.5801 286 56.5801C267.394 56.5801 252.311 71.6634 252.311 90.2695C252.311 108.876 267.394 123.959 286 123.959Z" fill="#ffffff"/>
</svg>
