<?xml version="1.0" encoding="UTF-8"?>
<svg xmlns="http://www.w3.org/2000/svg" xmlns:xlink="http://www.w3.org/1999/xlink" width="12" height="12" viewBox="0 0 12 12" version="1.1">
<g id="surface1">
<path style=" stroke:none;fill-rule:nonzero;fill:rgb(24.705882%,24.705882%,24.705882%);fill-opacity:1;" d="M 3.96875 1.5 C 3.484375 1.496094 3.070312 1.628906 2.78125 1.921875 C 1.785156 2.933594 0.296875 5.976562 3.183594 8.898438 C 5.824219 11.570312 9.078125 10.3125 10.078125 9.304688 C 10.871094 8.5 10.507812 6.777344 9.308594 5.070312 C 9.082031 5.257812 8.8125 5.875 8.9375 6.085938 C 9.535156 7.101562 9.707031 8.003906 9.289062 8.425781 C 8.652344 9.070312 6.867188 8.324219 5.308594 6.75 C 3.75 5.171875 3.011719 3.367188 3.652344 2.71875 C 4.042969 2.324219 4.859375 2.449219 5.792969 2.972656 C 6.011719 3.09375 6.636719 2.832031 6.8125 2.601562 C 5.792969 1.894531 4.78125 1.503906 3.96875 1.5 Z M 8 3 C 7.5625 3 7.175781 3.28125 7.046875 3.699219 L 5.464844 3.898438 C 5.191406 3.886719 4.976562 4.121094 5.007812 4.394531 C 5.039062 4.667969 5.300781 4.851562 5.5625 4.777344 L 7.199219 4.597656 C 7.261719 4.679688 7.335938 4.75 7.417969 4.8125 L 7.21875 6.453125 C 7.148438 6.71875 7.328125 6.984375 7.597656 7.015625 C 7.867188 7.050781 8.101562 6.828125 8.089844 6.554688 L 8.273438 4.960938 C 8.703125 4.839844 9 4.445312 9 4 C 9 3.449219 8.550781 3 8 3 Z M 8 3 "/>
</g>
</svg>
