<svg width="32" height="32" viewBox="0 0 580 580" fill="none" xmlns="http://www.w3.org/2000/svg">
<g clip-path="url(#clip0)">
<path opacity="0.43913" d="M285.687 -2.46863C282.542 -2.58331 279.421 -1.86306 276.644 -0.381078C273.867 1.1009 271.531 3.29178 269.875 5.96887L212.781 98.1876C210.858 101.313 209.945 104.956 210.169 108.62C210.393 112.283 211.742 115.788 214.031 118.656C214.031 118.667 214.031 118.677 214.031 118.688C211.79 121.514 210.459 124.953 210.213 128.552C209.968 132.151 210.82 135.739 212.656 138.844L252.594 206.344V514.406C252.592 516.75 253.052 519.071 253.948 521.237C254.844 523.403 256.159 525.37 257.816 527.028C259.473 528.685 261.441 529.999 263.607 530.896C265.773 531.792 268.094 532.252 270.437 532.25H295.437C297.781 532.252 300.102 531.792 302.268 530.896C304.434 529.999 306.402 528.685 308.059 527.028C309.716 525.37 311.03 523.403 311.927 521.237C312.823 519.071 313.283 516.75 313.281 514.406V206.281L354.812 139.156C356.736 136.031 357.648 132.388 357.425 128.724C357.201 125.061 355.852 121.556 353.562 118.688C355.822 115.859 357.167 112.409 357.418 108.797C357.669 105.186 356.815 101.583 354.969 98.4689L300.375 6.25012C298.852 3.68385 296.709 1.54087 294.143 0.0175889C291.577 -1.50569 288.67 -2.36055 285.687 -2.46863V-2.46863Z" fill="#ACD8F3"/>
<path d="M339.807 129.916L228.137 129.912L282.718 222.15" fill="black"/>
<path d="M228.089 107.719L339.758 107.723L285.177 15.4844" fill="black"/>
<path d="M283.088 514.562V68.8223" stroke="black" stroke-width="25"/>
</g>
<defs>
<clipPath id="clip0">
<path d="M0 0H580V580H0V0Z" fill="white"/>
</clipPath>
</defs>
</svg>
