<?xml version="1.0" encoding="UTF-8"?>
<svg xmlns="http://www.w3.org/2000/svg" xmlns:xlink="http://www.w3.org/1999/xlink" width="12" height="12" viewBox="0 0 12 12" version="1.1">
<g id="surface1">
<path style=" stroke:none;fill-rule:evenodd;fill:rgb(100%,100%,100%);fill-opacity:1;" d="M 2 4 C 1.449219 4 1 3.550781 1 3 L 1 2 L 11 2 L 11 3 C 11 3.550781 10.550781 4 10 4 Z M 2 5 C 2.039062 7.195312 3.84375 9.019531 6.035156 9 C 8.230469 8.980469 10 7.195312 10 5 Z M 7 7 C 7 7.550781 6.550781 8 6 8 C 5.449219 8 5 7.550781 5 7 C 5 6.449219 5.449219 6 6 6 C 6.550781 6 7 6.449219 7 7 Z M 7 7 "/>
</g>
</svg>
