<?xml version="1.0" encoding="UTF-8"?>
<svg xmlns="http://www.w3.org/2000/svg" xmlns:xlink="http://www.w3.org/1999/xlink" width="12" height="12" viewBox="0 0 12 12" version="1.1">
<g id="surface1">
<path style=" stroke:none;fill-rule:nonzero;fill:rgb(100%,100%,100%);fill-opacity:1;" d="M 3 3 L 2 6 L 2 10.5 C 2 10.773438 2.226562 11 2.5 11 L 4.5 11 C 4.777344 11 5 10.777344 5 10.5 L 5 7 L 7 7 L 7 10.5 C 7 10.773438 7.226562 11 7.5 11 L 9.5 11 C 9.714844 11 9.96875 10.675781 9.96875 10.675781 L 9.988281 7.574219 L 10 7.585938 L 10 6 L 9 3 L 7 3 L 7 4 L 5 4 L 5 3 Z M 3 3 "/>
<path style=" stroke:none;fill-rule:nonzero;fill:rgb(100%,100%,100%);fill-opacity:1;" d="M 7.5 2 L 8.5 2 C 8.777344 2 9 1.777344 9 1.5 C 9 1.222656 8.777344 1 8.5 1 L 7.5 1 C 7.222656 1 7 1.222656 7 1.5 C 7 1.777344 7.222656 2 7.5 2 Z M 7.5 2 "/>
<path style=" stroke:none;fill-rule:nonzero;fill:rgb(100%,100%,100%);fill-opacity:1;" d="M 3.5 2 L 4.5 2 C 4.777344 2 5 1.777344 5 1.5 C 5 1.222656 4.777344 1 4.5 1 L 3.5 1 C 3.222656 1 3 1.222656 3 1.5 C 3 1.777344 3.222656 2 3.5 2 Z M 3.5 2 "/>
</g>
</svg>
