<?xml version="1.0" encoding="UTF-8"?>
<svg xmlns="http://www.w3.org/2000/svg" xmlns:xlink="http://www.w3.org/1999/xlink" width="32" height="32" viewBox="0 0 32 32">
<path fill-rule="evenodd" fill="rgb(100%, 100%, 100%)" fill-opacity="1" d="M 24.898438 4 C 24.386719 4 23.886719 4.148438 23.460938 4.421875 C 23.035156 4.695312 22.707031 5.085938 22.507812 5.542969 C 22.3125 6 22.261719 6.503906 22.363281 6.988281 C 22.460938 7.472656 22.707031 7.917969 23.070312 8.269531 C 23.429688 8.617188 23.890625 8.855469 24.394531 8.953125 C 24.894531 9.050781 25.414062 9 25.886719 8.8125 C 26.359375 8.621094 26.761719 8.300781 27.046875 7.890625 C 27.332031 7.480469 27.484375 6.996094 27.484375 6.5 C 27.484375 6.171875 27.417969 5.847656 27.285156 5.542969 C 27.15625 5.242188 26.964844 4.964844 26.726562 4.730469 C 26.484375 4.5 26.199219 4.316406 25.886719 4.191406 C 25.574219 4.066406 25.238281 4 24.898438 4 Z M 7.136719 4.695312 L 6.070312 6.285156 L 17.753906 13.238281 L 17.753906 13.199219 L 19.597656 12.152344 C 19.59375 12.867188 19.777344 13.574219 20.136719 14.199219 C 20.496094 14.824219 21.015625 15.351562 21.648438 15.722656 L 21.6875 15.761719 L 25.582031 18.09375 L 26.980469 15.996094 L 23.042969 13.625 L 23 13.625 C 22.546875 13.382812 22.316406 12.824219 22.316406 12.074219 L 22.316406 9.703125 C 22.316406 9.695312 22.316406 9.59375 22.316406 9.589844 C 22.316406 8.097656 21.1875 6.988281 19.351562 6.988281 C 17.503906 7.0625 15.753906 7.796875 14.433594 9.046875 Z M 11.972656 11.335938 L 11.207031 11.839844 C 10.90625 12.113281 10.683594 12.449219 10.550781 12.824219 C 10.417969 13.199219 10.382812 13.601562 10.449219 13.992188 C 10.511719 14.382812 10.675781 14.75 10.921875 15.066406 C 11.167969 15.382812 11.492188 15.636719 11.863281 15.804688 L 16.808594 17.980469 L 12.050781 20.542969 L 3.976562 16.191406 L 2.667969 18.289062 L 19.0625 27.105469 C 20.148438 27.707031 21.378906 28.015625 22.628906 28 C 23.769531 28.007812 24.890625 27.753906 25.910156 27.257812 L 28 26.136719 L 26.6875 25.628906 C 24.851562 26.5 22.210938 26.003906 20.375 25.007812 L 14.71875 21.980469 L 18.160156 20.113281 L 18.203125 20.113281 C 18.621094 19.875 18.96875 19.539062 19.226562 19.140625 C 19.484375 18.742188 19.636719 18.289062 19.675781 17.824219 C 19.691406 17.355469 19.582031 16.894531 19.359375 16.476562 C 19.136719 16.0625 18.808594 15.710938 18.40625 15.453125 L 18.40625 15.414062 C 18.371094 15.390625 18.355469 15.398438 18.324219 15.375 C 16.574219 14.199219 14.484375 12.949219 14.183594 12.773438 L 13.976562 12.65625 Z M 11.972656 11.335938 "/>
</svg>
