<?xml version="1.0" encoding="UTF-8"?>
<svg xmlns="http://www.w3.org/2000/svg" xmlns:xlink="http://www.w3.org/1999/xlink" width="12" height="12" viewBox="0 0 12 12" version="1.1">
<defs>
<filter id="alpha" filterUnits="objectBoundingBox" x="0%" y="0%" width="100%" height="100%">
  <feColorMatrix type="matrix" in="SourceGraphic" values="0 0 0 0 1 0 0 0 0 1 0 0 0 0 1 0 0 0 1 0"/>
</filter>
<mask id="mask0">
  <g filter="url(#alpha)">
<rect x="0" y="0" width="12" height="12" style="fill:rgb(0%,0%,0%);fill-opacity:0.7;stroke:none;"/>
  </g>
</mask>
<clipPath id="clip1">
  <rect x="0" y="0" width="12" height="12"/>
</clipPath>
<g id="surface5" clip-path="url(#clip1)">
<path style=" stroke:none;fill-rule:nonzero;fill:rgb(100%,100%,100%);fill-opacity:1;" d="M 8.304688 7.910156 L 8.5 8.5 L 8.5 10 L 9.5 10 L 9.5 8.5 L 9.15625 7.472656 C 8.90625 7.671875 8.617188 7.820312 8.304688 7.910156 Z M 8.304688 7.910156 "/>
<path style=" stroke:none;fill-rule:nonzero;fill:rgb(100%,100%,100%);fill-opacity:1;" d="M 4 8 L 4.5 8 L 4 9 L 4 11 L 3.5 11 L 3.5 9 Z M 4 8 "/>
</g>
</defs>
<g id="surface1">
<use xlink:href="#surface5" mask="url(#mask0)"/>
<path style=" stroke:none;fill-rule:nonzero;fill:rgb(100%,100%,100%);fill-opacity:1;" d="M 9.5 0.5 C 8.5625 0.8125 7.835938 1.570312 7.566406 2.519531 L 7 4.5 L 3.5 4.5 C 3.054688 4.5 2.65625 4.691406 2.382812 5 L 2 5 C 1.171875 5 0.5 5.671875 0.5 6.5 L 0.5 8.5 L 1 8.5 C 1.277344 8.5 1.5 8.277344 1.5 8 L 1.5 6.5 C 1.5 6.222656 1.722656 6 2 6 L 2 11 L 3 11 L 3 8.5 L 3.5 7.5 L 6.5 7.5 L 6.5 11 L 7.5 11 L 7.5 7.5 L 7.472656 7.5 C 8.359375 7.5 9.136719 6.917969 9.390625 6.070312 L 9.417969 5.980469 C 9.472656 5.792969 9.5 5.601562 9.5 5.410156 L 9.5 3 L 11 3 C 11.132812 3 11.261719 2.949219 11.359375 2.863281 C 11.636719 2.609375 11.570312 2.15625 11.230469 1.992188 L 9.5 1.25 Z M 9.5 0.5 "/>
</g>
</svg>
