<?xml version="1.0" encoding="UTF-8"?>
<svg xmlns="http://www.w3.org/2000/svg" xmlns:xlink="http://www.w3.org/1999/xlink" width="12" height="12" viewBox="0 0 12 12" version="1.1">
<g id="surface1">
<path style=" stroke:none;fill-rule:evenodd;fill:rgb(100%,100%,100%);fill-opacity:1;" d="M 4 3 C 4 1.894531 4.894531 1 6 1 C 7.105469 1 8 1.894531 8 3 L 8 4 L 10 4 L 10 8 C 10 9.65625 8.65625 11 7 11 L 5 11 C 3.34375 11 2 9.65625 2 8 L 2 4 L 4 4 Z M 5 4 L 5 3 C 5 2.449219 5.449219 2 6 2 C 6.550781 2 7 2.449219 7 3 L 7 4 Z M 4.5 5 C 4.222656 5 4 5.222656 4 5.5 L 4 6 C 4 7.105469 4.894531 8 6 8 C 7.105469 8 8 7.105469 8 6 L 8 5.5 C 8 5.222656 7.777344 5 7.5 5 C 7.222656 5 7 5.222656 7 5.5 L 7 6 C 7 6.550781 6.550781 7 6 7 C 5.449219 7 5 6.550781 5 6 L 5 5.5 C 5 5.222656 4.777344 5 4.5 5 Z M 4.5 5 "/>
</g>
</svg>
