<?xml version="1.0" encoding="UTF-8"?>
<svg xmlns="http://www.w3.org/2000/svg" xmlns:xlink="http://www.w3.org/1999/xlink" width="32" height="32" viewBox="0 0 32 32">
<defs>
<filter id="filter-remove-color" x="0%" y="0%" width="100%" height="100%">
<feColorMatrix color-interpolation-filters="sRGB" values="0 0 0 0 1 0 0 0 0 1 0 0 0 0 1 0 0 0 1 0" />
</filter>
<mask id="mask-0">
<g filter="url(#filter-remove-color)">
<rect x="-3.2" y="-3.2" width="38.4" height="38.4" fill="rgb(0%, 0%, 0%)" fill-opacity="0.7"/>
</g>
</mask>
<clipPath id="clip-0">
<rect x="0" y="0" width="32" height="32"/>
</clipPath>
<g id="source-7" clip-path="url(#clip-0)">
<path fill-rule="evenodd" fill="rgb(24.705882%, 24.705882%, 24.705882%)" fill-opacity="1" d="M 32 16 L 16 16 L 16 29.332031 L 32 29.332031 Z M 29.332031 26.667969 L 29.332031 24 L 18.667969 24 L 18.667969 26.667969 Z M 29.332031 21.332031 L 18.667969 21.332031 L 18.667969 18.667969 L 29.332031 18.667969 Z M 29.332031 21.332031 "/>
</g>
<mask id="mask-1">
<g filter="url(#filter-remove-color)">
<rect x="-3.2" y="-3.2" width="38.4" height="38.4" fill="rgb(0%, 0%, 0%)" fill-opacity="0.5"/>
</g>
</mask>
<clipPath id="clip-1">
<rect x="0" y="0" width="32" height="32"/>
</clipPath>
<g id="source-14" clip-path="url(#clip-1)">
<path fill-rule="nonzero" fill="rgb(24.705882%, 24.705882%, 24.705882%)" fill-opacity="1" d="M 5.332031 16 L 10.667969 16 L 10.667969 18.667969 L 5.332031 18.667969 Z M 5.332031 16 "/>
<path fill-rule="nonzero" fill="rgb(24.705882%, 24.705882%, 24.705882%)" fill-opacity="1" d="M 10.667969 21.332031 L 16 21.332031 L 16 29.332031 L 10.667969 29.332031 Z M 10.667969 21.332031 "/>
<path fill-rule="nonzero" fill="rgb(24.705882%, 24.705882%, 24.705882%)" fill-opacity="1" d="M 18.667969 18.667969 L 29.332031 18.667969 L 29.332031 21.332031 L 18.667969 21.332031 Z M 18.667969 18.667969 "/>
<path fill-rule="nonzero" fill="rgb(24.705882%, 24.705882%, 24.705882%)" fill-opacity="1" d="M 18.667969 24 L 29.332031 24 L 29.332031 26.667969 L 18.667969 26.667969 Z M 18.667969 24 "/>
</g>
</defs>
<path fill-rule="evenodd" fill="rgb(24.705882%, 24.705882%, 24.705882%)" fill-opacity="1" d="M 10.667969 2.667969 L 18.667969 10.667969 L 20 10.667969 L 20 13.332031 L 18.667969 13.332031 L 18.667969 29.332031 L 16 29.332031 L 16 21.332031 L 10.667969 21.332031 L 10.667969 29.332031 L 2.667969 29.332031 L 2.667969 13.332031 L 1.332031 13.332031 L 1.332031 10.667969 L 2.667969 10.667969 Z M 9.332031 9.332031 C 9.332031 8.597656 9.929688 8 10.667969 8 C 11.402344 8 12 8.597656 12 9.332031 C 12 10.070312 11.402344 10.667969 10.667969 10.667969 C 9.929688 10.667969 9.332031 10.070312 9.332031 9.332031 Z M 13.332031 13.332031 L 16 13.332031 L 16 16 L 13.332031 16 Z M 8 21.332031 L 5.332031 21.332031 L 5.332031 26.667969 L 8 26.667969 Z M 8 13.332031 L 5.332031 13.332031 L 5.332031 18.667969 L 10.667969 18.667969 L 10.667969 16 L 8 16 Z M 8 13.332031 "/>
<g mask="url(#mask-0)">
<use xlink:href="#source-7"/>
</g>
<g mask="url(#mask-1)">
<use xlink:href="#source-14"/>
</g>
<path fill-rule="nonzero" fill="rgb(24.705882%, 24.705882%, 24.705882%)" fill-opacity="1" d="M 10.667969 25.332031 L 12 25.332031 L 12 26.667969 L 10.667969 26.667969 Z M 10.667969 25.332031 "/>
</svg>
