<svg width="64" height="64" viewBox="0 0 1060 1060" fill="none" xmlns="http://www.w3.org/2000/svg">
<path opacity="0.426087" d="M531.627 50.092C525.041 49.9594 518.418 50.6885 511.939 52.217C469.938 62.1259 443.528 104.831 453.439 146.842C458.799 169.56 473.696 187.708 492.908 198.029V502.092C492.912 508.529 495.564 514.926 500.116 519.478C504.668 524.03 511.064 526.682 517.502 526.686H542.502C548.939 526.682 555.336 524.03 559.888 519.478C564.44 514.926 567.092 508.529 567.096 502.092V197.967C597.614 181.499 614.871 145.895 606.564 110.686C598.202 75.2406 566.744 50.7995 531.627 50.092V50.092Z" fill="#ACD8F3"/>
<path d="M529.877 510.398V119.75" stroke="black" stroke-width="26.198"/>
<path d="M582.498 116.509C584.13 123.42 584.385 130.584 583.248 137.594C582.11 144.603 579.603 151.32 575.87 157.36C572.136 163.4 567.25 168.646 561.489 172.798C555.728 176.949 549.205 179.925 542.294 181.556C535.383 183.186 528.218 183.439 521.209 182.3C514.2 181.162 507.484 178.653 501.444 174.918C495.404 171.184 490.16 166.296 486.009 160.534C481.859 154.772 478.884 148.249 477.255 141.338C475.623 134.427 475.369 127.262 476.506 120.253C477.644 113.243 480.151 106.527 483.884 100.486C487.617 94.4459 492.504 89.2002 498.265 85.0487C504.026 80.8972 510.549 77.9212 517.46 76.2907C524.371 74.6602 531.536 74.4071 538.545 75.5459C545.554 76.6847 552.27 79.1931 558.31 82.9278C564.349 86.6625 569.594 91.5504 573.744 97.3123C577.895 103.074 580.869 109.597 582.498 116.509V116.509Z" fill="black"/>
</svg>
