<?xml version="1.0" encoding="UTF-8"?>
<svg xmlns="http://www.w3.org/2000/svg" xmlns:xlink="http://www.w3.org/1999/xlink" width="12" height="12" viewBox="0 0 12 12" version="1.1">
<g id="surface1">
<path style=" stroke:none;fill-rule:nonzero;fill:rgb(100%,100%,100%);fill-opacity:1;" d="M 6.5625 2.996094 C 7.082031 2.996094 7.503906 2.574219 7.503906 2.058594 C 7.503906 1.539062 7.082031 1.117188 6.5625 1.117188 C 6.042969 1.117188 5.625 1.539062 5.625 2.058594 C 5.625 2.574219 6.042969 2.996094 6.5625 2.996094 Z M 6.5625 2.996094 "/>
<path style=" stroke:none;fill-rule:nonzero;fill:rgb(100%,100%,100%);fill-opacity:1;" d="M 2.996094 7.125 C 1.957031 7.125 1.117188 7.96875 1.117188 9.003906 C 1.117188 10.042969 1.957031 10.882812 2.996094 10.882812 C 4.03125 10.882812 4.875 10.042969 4.875 9.003906 C 4.875 7.96875 4.03125 7.125 2.996094 7.125 Z M 2.996094 10.132812 C 2.375 10.132812 1.867188 9.625 1.867188 9.003906 C 1.867188 8.382812 2.375 7.878906 2.996094 7.878906 C 3.617188 7.878906 4.121094 8.382812 4.121094 9.003906 C 4.121094 9.625 3.617188 10.132812 2.996094 10.132812 Z M 2.996094 10.132812 "/>
<path style=" stroke:none;fill-rule:nonzero;fill:rgb(100%,100%,100%);fill-opacity:1;" d="M 9.003906 5.625 C 7.96875 5.625 7.125 6.464844 7.125 7.503906 C 7.125 8.539062 7.96875 9.378906 9.003906 9.378906 C 10.042969 9.378906 10.882812 8.539062 10.882812 7.503906 C 10.882812 6.464844 10.042969 5.625 9.003906 5.625 Z M 9.003906 8.628906 C 8.382812 8.628906 7.878906 8.125 7.878906 7.503906 C 7.878906 6.882812 8.382812 6.375 9.003906 6.375 C 9.625 6.375 10.132812 6.882812 10.132812 7.503906 C 10.132812 8.125 9.625 8.628906 9.003906 8.628906 Z M 9.003906 8.628906 "/>
<path style=" stroke:none;fill-rule:nonzero;fill:rgb(100%,100%,100%);fill-opacity:1;" d="M 5.894531 6.441406 C 5.746094 6.046875 5.710938 5.988281 5.355469 5.84375 C 4.929688 5.667969 4.304688 5.402344 4.304688 5.402344 C 4.304688 5.402344 5.304688 4.175781 5.371094 4.113281 C 5.453125 4.039062 5.484375 3.960938 5.625 4.03125 C 5.792969 4.113281 7.90625 4.777344 8.097656 4.839844 C 8.144531 4.859375 8.199219 4.875 8.253906 4.875 C 8.460938 4.875 8.628906 4.707031 8.628906 4.496094 C 8.628906 4.328125 8.515625 4.191406 8.363281 4.144531 L 8.363281 4.140625 C 8.363281 4.140625 5.792969 3.003906 5.523438 2.878906 C 5.148438 2.703125 4.851562 2.5625 4.609375 2.683594 C 4.351562 2.8125 4.125 3.089844 3.769531 3.507812 C 3.335938 4.015625 2.933594 4.507812 2.761719 4.753906 C 2.671875 4.886719 2.414062 5.320312 2.609375 5.6875 C 2.773438 6 3.121094 6.144531 3.554688 6.285156 C 4.035156 6.441406 4.960938 6.734375 4.960938 6.734375 C 4.960938 6.734375 5.792969 8.492188 5.871094 8.644531 C 5.945312 8.800781 6.175781 9.082031 6.457031 8.964844 C 6.738281 8.847656 6.726562 8.527344 6.679688 8.40625 C 6.632812 8.28125 6.007812 6.742188 5.894531 6.441406 Z M 5.894531 6.441406 "/>
<path style=" stroke:none;fill-rule:nonzero;fill:rgb(100%,100%,100%);fill-opacity:1;" d="M 2.136719 4.714844 L 3.910156 2.535156 C 3.222656 2.140625 1.878906 2.753906 1.542969 3.679688 C 1.285156 4.398438 2.136719 4.714844 2.136719 4.714844 Z M 2.136719 4.714844 "/>
</g>
</svg>
