<?xml version="1.0" encoding="UTF-8"?>
<svg xmlns="http://www.w3.org/2000/svg" xmlns:xlink="http://www.w3.org/1999/xlink" width="32" height="32" viewBox="0 0 32 32">
<path fill-rule="nonzero" fill="rgb(100%, 100%, 100%)" fill-opacity="1" d="M 16 24 C 17.472656 24 18.667969 22.804688 18.667969 21.332031 L 18.667969 20.683594 C 18.667969 19.257812 17.753906 17.988281 16.398438 17.539062 L 14.757812 16.992188 C 12.3125 16.175781 10.667969 13.890625 10.667969 11.316406 L 10.667969 10.667969 C 10.667969 7.722656 13.054688 5.332031 16 5.332031 C 18.945312 5.332031 21.332031 7.722656 21.332031 10.667969 L 18.667969 10.667969 C 18.667969 9.195312 17.472656 8 16 8 C 14.527344 8 13.332031 9.195312 13.332031 10.667969 L 13.332031 11.316406 C 13.332031 12.742188 14.246094 14.011719 15.601562 14.460938 L 17.242188 15.007812 C 19.6875 15.824219 21.332031 18.109375 21.332031 20.683594 L 21.332031 21.332031 C 21.332031 24.277344 18.945312 26.667969 16 26.667969 C 13.054688 26.667969 10.667969 24.277344 10.667969 21.332031 L 13.332031 21.332031 C 13.332031 22.804688 14.527344 24 16 24 Z M 16 24 "/>
</svg>
