<svg width="32" height="32" viewBox="0 0 48 48" fill="none" xmlns="http://www.w3.org/2000/svg">
<path fill-rule="evenodd" clip-rule="evenodd" d="M9.85787 9.85786C13.6086 6.10714 18.6957 4 24 4C29.3043 4 34.3914 6.10714 38.1421 9.85786C41.8929 13.6086 44 18.6957 44 24C44 29.3043 41.8929 34.3914 38.1421 38.1421C34.3914 41.8929 29.3043 44 24 44C18.6957 44 13.6086 41.8929 9.85787 38.1421C6.10714 34.3914 4 29.3043 4 24C4 18.6957 6.10714 13.6086 9.85787 9.85786Z" fill="black"/>
<path d="M40 24C40 28.2435 38.3143 32.3131 35.3137 35.3137C32.3131 38.3143 28.2435 40 24 40C19.7565 40 15.6869 38.3143 12.6863 35.3137C9.68571 32.3131 8 28.2435 8 24C8 19.7565 9.68571 15.6869 12.6863 12.6863C15.6869 9.68571 19.7565 8 24 8C28.2435 8 32.3131 9.68571 35.3137 12.6863C38.3143 15.6869 40 19.7565 40 24V24Z" fill="#E9E9E9"/>
</svg>
