<?xml version="1.0" encoding="UTF-8"?>
<svg xmlns="http://www.w3.org/2000/svg" xmlns:xlink="http://www.w3.org/1999/xlink" width="12" height="12" viewBox="0 0 12 12" version="1.1">
<g id="surface1">
<path style=" stroke:none;fill-rule:evenodd;fill:rgb(100%,100%,100%);fill-opacity:1;" d="M 7 8 L 7 4 C 7 3.449219 6.550781 3 6 3 C 5.449219 3 5 3.449219 5 4 L 5 8 C 5 8.550781 5.449219 9 6 9 C 6.550781 9 7 8.550781 7 8 Z M 8 4 L 8 8 C 8 9.105469 7.105469 10 6 10 C 4.894531 10 4 9.105469 4 8 L 4 4 C 4 2.894531 4.894531 2 6 2 C 7.105469 2 8 2.894531 8 4 Z M 8 4 "/>
</g>
</svg>
