<svg width="32" height="32" viewBox="0 0 580 580" fill="none" xmlns="http://www.w3.org/2000/svg">
<g clip-path="url(#clip0)">
<path opacity="0.426087" d="M348.813 -0.218731C344.778 -0.224639 340.867 1.17167 337.749 3.73124C334.631 6.29082 332.499 9.85453 331.719 13.8125L311.563 115.906C310.675 120.409 311.602 125.08 314.142 128.902C316.682 132.724 320.63 135.388 325.125 136.313L340.219 139.406L252.719 515.688C252.203 517.914 252.131 520.22 252.507 522.474C252.883 524.728 253.7 526.886 254.91 528.825C256.12 530.763 257.7 532.444 259.56 533.772C261.42 535.1 263.523 536.048 265.75 536.562L289.375 542C291.631 542.52 293.969 542.584 296.251 542.189C298.532 541.794 300.712 540.947 302.662 539.698C304.612 538.45 306.293 536.824 307.607 534.917C308.921 533.011 309.84 530.861 310.313 528.594L389.219 149.5L406.688 153.094C408.935 153.555 411.251 153.567 413.504 153.13C415.756 152.692 417.899 151.813 419.81 150.544C421.721 149.275 423.363 147.64 424.64 145.734C425.916 143.828 426.804 141.688 427.25 139.438L447.406 37.3125C448.294 32.8099 447.367 28.1389 444.827 24.3167C442.287 20.4946 438.339 17.8311 433.844 16.9063L352.281 0.156269C351.14 -0.0846516 349.978 -0.210283 348.813 -0.218731V-0.218731Z" fill="#8D8D8D"/>
<path d="M364.824 110.852L269.718 519.774L293.339 525.198L378.918 114.104L364.824 110.852Z" fill="black"/>
<path d="M348.852 17.3203L430.409 34.0743L410.257 136.195L328.7 119.441L348.852 17.3203Z" fill="#00DF0C"/>
</g>
<defs>
<clipPath id="clip0">
<path d="M0 0H580V580H0V0Z" fill="white"/>
</clipPath>
</defs>
</svg>
