<?xml version="1.0" encoding="UTF-8"?>
<svg xmlns="http://www.w3.org/2000/svg" xmlns:xlink="http://www.w3.org/1999/xlink" width="12" height="12" viewBox="0 0 12 12" version="1.1">
<g id="surface1">
<path style=" stroke:none;fill-rule:nonzero;fill:rgb(100%,100%,100%);fill-opacity:1;" d="M 5.402344 2.777344 C 5.648438 2.777344 5.863281 2.6875 6.039062 2.511719 C 6.214844 2.335938 6.300781 2.121094 6.300781 1.863281 C 6.300781 1.613281 6.214844 1.402344 6.039062 1.226562 C 5.863281 1.050781 5.648438 0.960938 5.402344 0.960938 C 5.152344 0.960938 4.9375 1.050781 4.757812 1.226562 C 4.578125 1.402344 4.488281 1.613281 4.488281 1.863281 C 4.488281 2.121094 4.578125 2.335938 4.757812 2.511719 C 4.9375 2.6875 5.152344 2.777344 5.402344 2.777344 Z M 6.003906 3.34375 C 5.972656 3.53125 5.851562 3.625 5.644531 3.625 L 3.496094 3.625 C 3.238281 3.625 3.109375 3.515625 3.109375 3.289062 C 3.109375 3.195312 3.140625 3.117188 3.199219 3.058594 C 3.035156 3.117188 2.953125 3.226562 2.953125 3.378906 C 2.953125 3.605469 3.089844 3.714844 3.355469 3.714844 L 5.605469 3.714844 C 5.890625 3.714844 6.023438 3.589844 6.003906 3.34375 Z M 3.496094 3.625 L 5.644531 3.625 C 5.851562 3.625 5.972656 3.53125 6.003906 3.34375 C 5.996094 3.117188 5.863281 3.007812 5.605469 3.007812 L 3.355469 3.007812 C 3.34375 3.007812 3.292969 3.023438 3.199219 3.058594 C 3.140625 3.117188 3.109375 3.195312 3.109375 3.289062 C 3.109375 3.515625 3.238281 3.625 3.496094 3.625 Z M 6.535156 3.007812 L 8.578125 0.949219 C 9.085938 1.539062 9.375 2.226562 9.441406 3.007812 Z M 8.578125 5.75 C 8.152344 5.320312 7.535156 4.707031 6.738281 3.910156 L 6.738281 3.714844 L 9.441406 3.714844 C 9.363281 4.480469 9.078125 5.15625 8.578125 5.75 Z M 5.75 7.0625 L 5.75 7.023438 C 5.75 7.023438 5.75 7.027344 5.75 7.035156 Z M 5.722656 7.320312 L 5.722656 7.28125 C 5.722656 7.289062 5.722656 7.292969 5.722656 7.292969 Z M 8.734375 0.460938 L 6.132812 3.046875 C 6.144531 3.054688 6.152344 3.0625 6.160156 3.070312 C 6.195312 3.140625 6.21875 3.21875 6.238281 3.304688 C 6.246094 3.390625 6.222656 3.488281 6.171875 3.597656 C 6.171875 3.617188 6.164062 3.636719 6.148438 3.664062 C 6.027344 3.84375 5.847656 3.933594 5.605469 3.933594 L 4.371094 3.933594 L 4.371094 7.253906 L 3.664062 10.78125 C 3.636719 10.917969 3.664062 11.046875 3.738281 11.160156 C 3.816406 11.277344 3.925781 11.347656 4.0625 11.375 C 4.199219 11.398438 4.324219 11.375 4.441406 11.296875 C 4.558594 11.21875 4.632812 11.113281 4.667969 10.972656 L 5.386719 7.320312 L 5.722656 7.320312 L 6.441406 10.972656 C 6.46875 11.113281 6.539062 11.21875 6.65625 11.296875 C 6.769531 11.375 6.902344 11.398438 7.046875 11.375 C 7.175781 11.347656 7.28125 11.277344 7.363281 11.160156 C 7.445312 11.046875 7.46875 10.917969 7.433594 10.78125 L 6.726562 7.230469 L 6.726562 4.253906 L 8.734375 6.25 L 8.902344 6.070312 C 9.570312 5.332031 9.90625 4.425781 9.90625 3.355469 C 9.90625 2.289062 9.566406 1.386719 8.886719 0.640625 C 8.886719 0.640625 8.835938 0.578125 8.734375 0.460938 Z M 5.75 7.0625 L 5.75 7.035156 C 5.75 7.035156 5.75 7.03125 5.75 7.023438 Z M 5.75 7.0625 "/>
</g>
</svg>
