<?xml version="1.0" encoding="UTF-8"?>
<svg xmlns="http://www.w3.org/2000/svg" xmlns:xlink="http://www.w3.org/1999/xlink" width="32" height="32" viewBox="0 0 32 32">
<path fill-rule="nonzero" fill="rgb(100%, 100%, 100%)" fill-opacity="1" d="M 7.015625 4.367188 C 4.125 4.367188 3.074219 6.589844 3.074219 8.082031 C 3.074219 9.253906 3.515625 10.84375 5.625 11.78125 C 5.984375 11.941406 6.359375 12.082031 6.742188 12.234375 C 8.503906 12.933594 10.332031 13.660156 11.910156 15.984375 C 10.335938 18.320312 8.515625 19.0625 6.742188 19.765625 C 6.359375 19.917969 5.984375 20.058594 5.625 20.21875 C 3.515625 21.15625 3.074219 22.746094 3.074219 23.917969 C 3.074219 25.410156 4.125 27.632812 7.015625 27.632812 C 10.042969 27.632812 11.054688 25.019531 11.054688 23.820312 C 11.054688 23.023438 10.707031 21.910156 10.039062 21.316406 C 10.097656 21.269531 10.1875 21.207031 10.34375 21.121094 C 11.1875 20.667969 14.730469 18.523438 14.917969 18.40625 L 28.71875 8.226562 C 28.84375 8.132812 28.921875 7.984375 28.925781 7.824219 C 28.929688 7.664062 28.855469 7.503906 28.734375 7.402344 C 27.96875 6.777344 27.097656 6.464844 26.132812 6.464844 C 24.359375 6.464844 22.917969 7.542969 22.867188 7.582031 L 14.675781 13.445312 C 14.234375 13.179688 11.148438 11.308594 10.34375 10.878906 C 10.183594 10.792969 10.097656 10.730469 10.039062 10.683594 C 10.710938 10.089844 11.054688 8.976562 11.054688 8.179688 C 11.054688 6.980469 10.042969 4.367188 7.015625 4.367188 Z M 6.871094 6.304688 C 7.976562 6.304688 8.859375 7.054688 8.988281 8.097656 C 9.058594 8.675781 8.894531 9.257812 8.519531 9.683594 C 8.183594 10.0625 7.722656 10.261719 7.226562 10.261719 C 6.148438 10.261719 5.15625 9.402344 5.027344 8.339844 C 4.964844 7.8125 5.121094 7.304688 5.464844 6.917969 C 5.8125 6.527344 6.328125 6.304688 6.871094 6.304688 Z M 14.964844 14.589844 C 15.605469 14.589844 16.121094 15.101562 16.121094 15.742188 C 16.121094 16.382812 15.605469 16.894531 14.964844 16.894531 C 14.324219 16.894531 13.8125 16.382812 13.8125 15.742188 C 13.8125 15.101562 14.324219 14.589844 14.964844 14.589844 Z M 19.402344 17.003906 L 15.929688 19.558594 L 22.851562 24.417969 C 22.910156 24.464844 24.359375 25.535156 26.132812 25.535156 C 27.097656 25.535156 27.96875 25.222656 28.734375 24.597656 C 28.855469 24.496094 28.929688 24.335938 28.925781 24.175781 C 28.921875 24.015625 28.84375 23.867188 28.71875 23.773438 Z M 7.226562 21.738281 C 7.722656 21.738281 8.183594 21.9375 8.519531 22.316406 C 8.894531 22.738281 9.058594 23.324219 8.988281 23.902344 C 8.859375 24.945312 7.976562 25.695312 6.871094 25.695312 C 6.328125 25.695312 5.8125 25.472656 5.464844 25.082031 C 5.121094 24.695312 4.964844 24.1875 5.027344 23.660156 C 5.15625 22.59375 6.148438 21.738281 7.226562 21.738281 Z M 7.226562 21.738281 "/>
</svg>
