<?xml version="1.0" encoding="UTF-8"?>
<svg xmlns="http://www.w3.org/2000/svg" xmlns:xlink="http://www.w3.org/1999/xlink" width="32" height="32" viewBox="0 0 32 32">
<path fill-rule="nonzero" fill="rgb(24.705882%, 24.705882%, 24.705882%)" fill-opacity="1" d="M 8.785156 3.632812 L 8.785156 7.757812 L 10.847656 7.757812 L 10.847656 3.632812 Z M 21.152344 3.632812 L 21.152344 7.757812 L 23.214844 7.757812 L 23.214844 3.632812 Z M 4.664062 6.726562 C 4.097656 6.726562 3.632812 7.1875 3.632812 7.757812 L 3.632812 10.847656 C 3.632812 11.414062 4.097656 11.878906 4.664062 11.878906 L 4.664062 28.367188 L 27.335938 28.367188 L 27.335938 11.878906 C 27.902344 11.878906 28.367188 11.414062 28.367188 10.847656 L 28.367188 7.757812 C 28.367188 7.1875 27.902344 6.726562 27.335938 6.726562 L 24.90625 6.726562 L 24.90625 9.226562 L 19.457031 9.226562 L 19.457031 6.726562 L 12.621094 6.726562 L 12.621094 9.226562 L 7.015625 9.226562 L 7.015625 6.726562 Z M 6.726562 11.878906 L 25.273438 11.878906 L 25.273438 26.304688 L 6.726562 26.304688 Z M 8.785156 13.9375 L 8.785156 16 L 10.847656 16 L 10.847656 13.9375 Z M 12.910156 13.9375 L 12.910156 16 L 14.96875 16 L 14.96875 13.9375 Z M 17.03125 13.9375 L 17.03125 16 L 19.089844 16 L 19.089844 13.9375 Z M 21.152344 13.9375 L 21.152344 16 L 23.214844 16 L 23.214844 13.9375 Z M 8.785156 18.0625 L 8.785156 20.121094 L 10.847656 20.121094 L 10.847656 18.0625 Z M 12.910156 18.0625 L 12.910156 20.121094 L 14.96875 20.121094 L 14.96875 18.0625 Z M 17.03125 18.0625 L 17.03125 20.121094 L 19.089844 20.121094 L 19.089844 18.0625 Z M 21.152344 18.0625 L 21.152344 20.121094 L 23.214844 20.121094 L 23.214844 18.0625 Z M 8.785156 22.183594 L 8.785156 24.242188 L 10.847656 24.242188 L 10.847656 22.183594 Z M 12.910156 22.183594 L 12.910156 24.242188 L 14.96875 24.242188 L 14.96875 22.183594 Z M 17.03125 22.183594 L 17.03125 24.242188 L 19.089844 24.242188 L 19.089844 22.183594 Z M 21.152344 22.183594 L 21.152344 24.242188 L 23.214844 24.242188 L 23.214844 22.183594 Z M 21.152344 22.183594 "/>
</svg>
