<svg width="32" height="32" viewBox="0 0 580 580" fill="none" xmlns="http://www.w3.org/2000/svg">
<path opacity="0.552" d="M241.312 1.40625C238.493 1.40542 235.701 1.96016 233.096 3.03878C230.491 4.11739 228.124 5.69873 226.13 7.69246C224.136 9.68618 222.555 12.0532 221.476 14.6583C220.398 17.2634 219.843 20.0555 219.844 22.875V127.344C219.843 130.163 220.398 132.955 221.476 135.56C222.555 138.166 224.136 140.533 226.13 142.526C228.124 144.52 230.491 146.101 233.096 147.18C235.701 148.259 238.493 148.813 241.312 148.812H249.156V514.562C249.155 517.382 249.71 520.174 250.789 522.779C251.867 525.384 253.449 527.751 255.442 529.745C257.436 531.739 259.803 533.32 262.408 534.399C265.013 535.477 267.805 536.032 270.625 536.031H295.625C298.445 536.032 301.237 535.477 303.842 534.399C306.447 533.32 308.814 531.739 310.808 529.745C312.801 527.751 314.383 525.384 315.461 522.779C316.54 520.174 317.095 517.382 317.094 514.562V148.812H324.625C327.445 148.813 330.237 148.259 332.842 147.18C335.447 146.101 337.814 144.52 339.808 142.526C341.801 140.533 343.383 138.166 344.461 135.56C345.54 132.955 346.095 130.163 346.094 127.344V22.875C346.095 20.0555 345.54 17.2634 344.461 14.6583C343.383 12.0532 341.801 9.68618 339.808 7.69246C337.814 5.69873 335.447 4.11739 332.842 3.03878C330.237 1.96016 327.445 1.40542 324.625 1.40625H241.312Z" fill="#8D8D8D"/>
<path d="M283.088 514.562V68.8223" stroke="black" stroke-width="25"/>
<path d="M241.277 22.8711H324.601V127.335H241.277V22.8711Z" fill="#E80000"/>
<path d="M324.601 55.4336H241.277V92.6196H324.601V55.4336Z" fill="#FEFEFE"/>
</svg>
