<?xml version="1.0" encoding="UTF-8"?>
<svg xmlns="http://www.w3.org/2000/svg" xmlns:xlink="http://www.w3.org/1999/xlink" width="12" height="12" viewBox="0 0 12 12" version="1.1">
<defs>
<filter id="alpha" filterUnits="objectBoundingBox" x="0%" y="0%" width="100%" height="100%">
  <feColorMatrix type="matrix" in="SourceGraphic" values="0 0 0 0 1 0 0 0 0 1 0 0 0 0 1 0 0 0 1 0"/>
</filter>
<mask id="mask0">
  <g filter="url(#alpha)">
<rect x="0" y="0" width="12" height="12" style="fill:rgb(0%,0%,0%);fill-opacity:0.7;stroke:none;"/>
  </g>
</mask>
<clipPath id="clip1">
  <rect x="0" y="0" width="12" height="12"/>
</clipPath>
<g id="surface5" clip-path="url(#clip1)">
<path style=" stroke:none;fill-rule:nonzero;fill:rgb(100%,100%,100%);fill-opacity:1;" d="M 11 2 C 11 1.449219 10.550781 1 10 1 L 6 1 C 5.449219 1 5 1.449219 5 2 L 5 3 L 7 3 L 7 4.667969 L 7.5 3 L 8.5 3 L 10 8 L 9 8 L 8.699219 7 L 7.300781 7 L 7 8 L 7 10 L 10 10 C 10.550781 10 11 9.550781 11 9 Z M 11 2 "/>
<path style=" stroke:none;fill-rule:nonzero;fill:rgb(100%,100%,100%);fill-opacity:1;" d="M 8.398438 6 L 8 4.667969 L 7.601562 6 Z M 8.398438 6 "/>
</g>
</defs>
<g id="surface1">
<use xlink:href="#surface5" mask="url(#mask0)"/>
<path style=" stroke:none;fill-rule:nonzero;fill:rgb(100%,100%,100%);fill-opacity:1;" d="M 4 5.667969 L 4.398438 7 L 3.601562 7 Z M 4 5.667969 "/>
<path style=" stroke:none;fill-rule:evenodd;fill:rgb(100%,100%,100%);fill-opacity:1;" d="M 6 2 C 6.550781 2 7 2.449219 7 3 L 7 10 C 7 10.550781 6.550781 11 6 11 L 2 11 C 1.449219 11 1 10.550781 1 10 L 1 3 C 1 2.449219 1.449219 2 2 2 Z M 4.5 4 L 6 9 L 5 9 L 4.699219 8 L 3.300781 8 L 3 9 L 2 9 L 3.5 4 Z M 4.5 4 "/>
</g>
</svg>
