<?xml version="1.0" encoding="UTF-8"?>
<svg xmlns="http://www.w3.org/2000/svg" xmlns:xlink="http://www.w3.org/1999/xlink" width="12" height="12" viewBox="0 0 12 12" version="1.1">
<g id="surface1">
<path style=" stroke:none;fill-rule:nonzero;fill:rgb(100%,100%,100%);fill-opacity:1;" d="M 9.765625 1.96875 C 9.765625 1.96875 8.984375 4.617188 6.6875 3.828125 C 6.6875 3.828125 6.964844 1.519531 9.765625 1.96875 Z M 9.765625 1.96875 "/>
<path style=" stroke:none;fill-rule:nonzero;fill:rgb(100%,100%,100%);fill-opacity:1;" d="M 5.914062 5.246094 C 6.3125 4.855469 6.855469 4.617188 7.457031 4.617188 C 8.671875 4.617188 9.660156 5.601562 9.660156 6.816406 C 9.660156 6.863281 9.660156 6.902344 9.65625 6.949219 L 9.652344 6.949219 C 9.613281 7.421875 9.460938 8.015625 9.101562 8.75 C 9.101562 8.75 8.488281 9.929688 7.992188 10.472656 L 7.945312 10.515625 C 7.707031 10.753906 7.371094 10.90625 7.003906 10.90625 C 6.558594 10.90625 6.160156 10.691406 5.917969 10.351562 L 5.914062 10.351562 C 5.671875 10.691406 5.273438 10.90625 4.824219 10.90625 C 4.457031 10.90625 4.125 10.757812 3.882812 10.515625 L 3.835938 10.472656 C 3.347656 9.929688 2.726562 8.75 2.726562 8.75 C 2.367188 8.015625 2.214844 7.417969 2.179688 6.949219 L 2.171875 6.949219 C 2.164062 6.902344 2.164062 6.863281 2.164062 6.816406 C 2.164062 5.601562 3.152344 4.617188 4.371094 4.617188 C 4.972656 4.617188 5.511719 4.855469 5.914062 5.246094 Z M 5.914062 5.246094 "/>
<path style=" stroke:none;fill-rule:nonzero;fill:rgb(100%,100%,100%);fill-opacity:1;" d="M 2.652344 1.144531 C 2.652344 1.144531 3.117188 3.460938 5.132812 2.964844 C 5.132812 2.964844 5.074219 0.976562 2.652344 1.144531 Z M 2.652344 1.144531 "/>
<path style="fill-rule:nonzero;fill:rgb(100%,100%,100%);fill-opacity:1;stroke-width:4.836;stroke-linecap:butt;stroke-linejoin:miter;stroke:rgb(100%,100%,100%);stroke-opacity:1;stroke-miterlimit:4;" d="M 282.825521 231.09375 C 282.825521 231.09375 281.692708 116.113281 269.798177 86.09375 C 257.903646 56.263021 309.824219 86.09375 309.824219 86.09375 Z M 282.825521 231.09375 " transform="matrix(0.0206897,0,0,0.0206897,0,0)"/>
</g>
</svg>
