<svg width="12" height="12" viewBox="0 0 580 580" fill="none" xmlns="http://www.w3.org/2000/svg">
<g clip-path="url(#clip0)">
<path d="M169.497 71.1496C166.869 71.1566 164.474 71.1957 162.391 71.2124C161.293 75.7322 157.259 79.073 152.392 79.073H127.521C119.147 83.4806 111.318 89.6967 104.097 97.5297H113.498C119.213 97.5297 123.811 102.128 123.811 107.843C123.811 113.558 119.213 118.156 113.498 118.156H88.7215C81.2634 130.366 74.7667 144.727 69.3844 160.918H90.3565C96.0717 160.918 100.67 165.516 100.67 171.231C100.67 176.946 96.0717 181.544 90.3565 181.544H63.379C59.2753 197.776 56.1555 215.451 54.1349 234.367H80.295C86.0101 234.367 90.6081 238.965 90.6081 244.68C90.6081 250.395 86.0101 254.993 80.295 254.993H53.2545C52.9708 254.993 52.6834 254.983 52.4056 254.962C51.8875 263.27 51.5725 271.764 51.4623 280.461C51.2851 294.444 51.6183 308.313 52.437 321.903H77.2765C82.9916 321.903 87.5896 326.501 87.5896 332.216C87.5896 337.931 82.9916 342.529 77.2765 342.529H54.072C55.8044 359.866 58.3634 376.576 61.7754 392.334H87.3381C93.0532 392.334 97.6512 396.931 97.6512 402.647C97.6512 408.362 93.0532 412.96 87.3381 412.96H66.9319C71.0995 427.797 76.1035 441.491 81.93 453.709H103.437C109.152 453.709 113.75 458.307 113.75 464.022C113.75 469.737 109.152 474.335 103.437 474.335H93.5322C100.588 484.94 108.507 493.742 117.303 500.307H132.93C138.645 500.307 143.243 504.905 143.243 510.62C143.243 511.204 143.178 511.76 143.085 512.318C147.609 513.307 152.289 513.823 157.14 513.795C172.999 513.705 215.623 514.519 215.623 514.519C215.623 514.519 202.389 509.893 186.822 490.119H161.291C155.575 490.119 150.977 485.521 150.977 479.806C150.977 474.091 155.575 469.493 161.291 469.493H173.333C168.984 461.574 164.686 452.345 160.662 441.541H135.822C130.107 441.541 125.509 436.943 125.509 431.228C125.509 425.513 130.107 420.915 135.822 420.915H153.902C150.235 408.1 146.971 393.587 144.343 377.147H119.724C114.009 377.147 109.411 372.549 109.411 366.834C109.411 361.119 114.009 356.521 119.724 356.521H141.482C139.439 338.892 138.096 319.343 137.646 297.66H111.674C105.959 297.66 101.361 293.063 101.361 287.347C101.361 281.632 105.959 277.034 111.674 277.034H137.489C137.674 256.569 138.939 238.016 141.01 221.193H119.724C114.009 221.193 109.411 216.595 109.411 210.879C109.411 205.164 114.009 200.566 119.724 200.566H144.092C146.993 184.13 150.668 169.583 154.813 156.799H134.816C129.101 156.799 124.503 152.201 124.503 146.485C124.503 140.77 129.101 136.172 134.816 136.172H161.857C162.056 136.172 162.257 136.193 162.454 136.204C166.412 126.804 170.557 118.603 174.685 111.522H159.97C154.255 111.522 149.657 106.924 149.657 101.208C149.657 95.4933 154.255 90.8954 159.97 90.8954H187.01C187.591 90.8954 188.155 90.93 188.708 91.0211C200.276 76.6657 209.209 71.2124 209.209 71.2124C209.209 71.2124 185.545 71.102 169.497 71.1496V71.1496Z" fill="#ffffff"/>
<path d="M255.751 71.2686C203.492 71.2686 161.141 170.328 161.141 292.529C161.141 414.729 203.492 513.789 255.751 513.789C308.011 513.789 350.393 414.729 350.393 292.529C350.393 170.328 308.011 71.2686 255.751 71.2686ZM255.751 174.903C283.534 174.903 306.059 227.563 306.059 292.529C306.059 357.494 283.534 410.155 255.751 410.155C227.969 410.155 205.475 357.494 205.475 292.529C205.475 227.563 227.969 174.903 255.751 174.903Z" fill="#ffffff"/>
<path d="M229.124 228.674C229.124 228.674 239.099 188.938 262.241 195.981C273.721 199.475 289.576 257.223 289.206 292.371C288.703 340.164 276.126 373.87 263.046 382.422C247.999 392.261 231.101 343.182 231.101 343.182C231.101 343.182 242.103 317.325 241.917 285.831C241.731 254.337 229.124 228.674 229.124 228.674Z" fill="#ffffff"/>
<path d="M438.285 477.36L439.094 424.959L468.723 409.162L496.224 424.662L494.925 477.988L513.026 478.69L525.44 412.217L480.964 382.579L493.046 131.053C495.165 100.224 448.999 96.0106 448.619 131.149L451.456 385.172L409.916 410.425L420.298 477.016L438.285 477.36ZM470.428 139.436C463.905 139.318 457.572 134.066 457.75 127.485C457.81 120.903 461.087 112.522 472.091 111.158C479.903 111.299 485.881 117.815 485.421 125.933C485.303 132.496 477.068 139.556 470.428 139.436Z" fill="#ffffff" stroke="#ffffff" stroke-width="6.48361" stroke-linecap="round" stroke-linejoin="round"/>
<path d="M438.574 477.581L440.587 385.562L406.835 405.759L420.586 477.314L438.574 477.581Z" fill="#ffffff" stroke="#ffffff" stroke-width="6.48361" stroke-linecap="round" stroke-linejoin="round"/>
</g>
<defs>
<clipPath id="clip0">
<path d="M0 0H580V580H0V0Z" fill="#ffffff"/>
</clipPath>
</defs>
</svg>
