<svg width="12" height="12" viewBox="0 0 580 580" fill="none" xmlns="http://www.w3.org/2000/svg">
<path d="M201.325 127.015C158.17 127.015 116.32 142.492 87.6353 173.078C87.6294 173.085 87.6412 173.108 87.6353 173.115C87.6173 173.134 87.5798 173.132 87.5618 173.152C58.8365 203.729 45.5757 245.819 45.5757 290.074C45.5757 334.289 58.8831 376.367 87.5618 406.996C87.5863 407.02 87.6108 407.045 87.6353 407.069C116.347 437.586 158.178 452.986 201.325 452.986C216.43 452.986 231.443 451.108 245.919 447.182C255.801 444.501 265.382 440.843 274.644 436.419C283.294 444.272 294.552 448.632 306.235 448.651H357.955C365.127 448.65 372.204 447.011 378.646 443.86C385.088 440.709 390.726 436.128 395.129 430.468C399.529 436.124 405.161 440.701 411.597 443.852C418.032 447.003 425.101 448.644 432.267 448.651H487.33C495.171 448.651 502.888 446.693 509.781 442.956C516.674 439.22 522.525 433.821 526.805 427.251C531.084 420.681 533.656 413.146 534.287 405.331C534.918 397.515 533.588 389.666 530.418 382.494L502.354 319.056C502.329 319.019 502.305 318.983 502.28 318.946C499.264 312.173 496.165 305.921 492.767 299.918C504.324 281.599 508.892 260.369 508.892 239.786C508.892 209.432 498.041 176.489 472.82 156.254C472.779 156.221 472.751 156.177 472.71 156.144C447.581 135.979 417.472 131.056 385.248 131.055H306.235C294.452 131.07 283.102 135.5 274.424 143.471C265.23 139.096 255.721 135.477 245.919 132.819C231.444 128.893 216.43 127.015 201.325 127.015H201.325ZM205.512 262.928C210.585 262.928 214.695 263.707 218.81 265.205C222.785 266.653 228.182 269.469 234.752 274.462C241.837 279.821 250.292 283.069 259.143 283.829V296.171C250.292 296.932 241.837 300.179 234.752 305.538C228.182 310.531 222.784 313.348 218.81 314.795C214.695 316.294 210.585 317.073 205.512 317.073C198.288 317.073 200.912 317.641 198.717 314.905C196.534 312.186 193.207 305.895 193.207 290.074C193.207 274.122 196.568 267.772 198.717 265.095C200.912 262.359 198.288 262.928 205.512 262.928Z" fill="#FEFEFE" fill-opacity="0.788732"/>
<path d="M263.266 389.288C253.773 394.775 243.877 398.915 233.578 401.709C223.279 404.502 212.532 405.899 201.338 405.899C167.933 405.899 141.47 395.523 121.946 374.773C102.423 353.923 92.6616 325.69 92.6616 290.075C92.6616 254.36 102.423 226.127 121.946 205.376C141.47 184.526 167.933 174.101 201.338 174.101C212.532 174.101 223.279 175.497 233.578 178.291C243.877 181.084 253.773 185.224 263.266 190.711V236.951C253.683 229.668 244.235 224.331 234.922 220.939C225.608 217.547 215.801 215.851 205.502 215.851C187.054 215.851 172.546 222.436 161.978 235.604C151.41 248.773 146.127 266.93 146.127 290.075C146.127 313.12 151.41 331.227 161.978 344.395C172.546 357.564 187.054 364.148 205.502 364.148C215.801 364.148 225.608 362.452 234.922 359.06C244.235 355.668 253.683 350.331 263.266 343.048V389.288Z" fill="#6C003D"/>
<path d="M379.734 277.205C390.57 277.205 398.317 274.96 402.974 270.471C407.72 265.982 410.093 258.599 410.093 248.324C410.093 238.148 407.72 230.865 402.974 226.476C398.317 222.086 390.57 219.891 379.734 219.891H357.972V277.205H379.734V277.205ZM357.972 317.01V401.559H306.253V178.141H385.241C411.66 178.141 431.004 183.079 443.274 192.955C455.632 202.832 461.812 218.445 461.812 239.794C461.812 254.559 458.588 266.68 452.14 276.157C445.781 285.635 436.154 292.618 423.258 297.107C430.333 298.903 436.647 302.994 442.199 309.378C447.841 315.663 453.528 325.241 459.26 338.11L487.335 401.559H432.258L407.81 346.041C402.884 334.868 397.869 327.236 392.764 323.145C387.749 319.055 381.032 317.01 372.614 317.01H357.972" fill="#6C003D"/>
</svg>
