<svg width="48" height="48" viewBox="0 0 48 48" fill="none" xmlns="http://www.w3.org/2000/svg">
<rect opacity="0.5" x="4" y="28" width="24" height="4" fill="#ffffff"/>
<path d="M10 20C10 21.1046 9.10457 22 8 22C6.89543 22 6 21.1046 6 20C6 18.8954 6.89543 18 8 18C9.10457 18 10 18.8954 10 20Z" fill="#ffffff"/>
<path fill-rule="evenodd" clip-rule="evenodd" d="M32 18V36H0V16C0 13.7909 1.79086 12 4 12H45C46.6569 12 48 13.3431 48 15C48 16.6569 46.6569 18 45 18H32ZM28 16H4V32H28V16Z" fill="#ffffff"/>
</svg>
