<?xml version="1.0" encoding="UTF-8"?>
<svg xmlns="http://www.w3.org/2000/svg" xmlns:xlink="http://www.w3.org/1999/xlink" width="12" height="12" viewBox="0 0 12 12" version="1.1">
<g id="surface1">
<path style=" stroke:none;fill-rule:nonzero;fill:rgb(100%,100%,100%);fill-opacity:1;" d="M 4.660156 7.464844 L 4.890625 8.925781 C 4.925781 9.167969 5.070312 9.308594 5.328125 9.347656 C 5.507812 9.375 5.664062 9.324219 5.796875 9.199219 C 5.929688 9.070312 5.984375 8.921875 5.960938 8.742188 L 5.683594 6.980469 C 5.648438 6.792969 5.546875 6.664062 5.378906 6.589844 L 4.113281 6.019531 L 4.917969 4.621094 L 5.316406 5.132812 C 5.351562 5.179688 5.398438 5.21875 5.464844 5.242188 L 6.984375 5.679688 C 7.023438 5.695312 7.058594 5.703125 7.09375 5.703125 C 7.207031 5.703125 7.304688 5.660156 7.382812 5.570312 C 7.464844 5.480469 7.503906 5.378906 7.503906 5.265625 C 7.503906 5.0625 7.410156 4.929688 7.214844 4.863281 L 5.902344 4.476562 L 4.90625 3.273438 C 4.765625 3.109375 4.574219 3.007812 4.320312 2.96875 C 3.882812 2.902344 3.554688 3.058594 3.335938 3.429688 L 2.230469 5.339844 C 2.15625 5.460938 2.125 5.609375 2.132812 5.789062 L 2.167969 8.207031 L 1.332031 10.003906 C 1.300781 10.078125 1.277344 10.140625 1.269531 10.1875 C 1.246094 10.34375 1.277344 10.476562 1.367188 10.59375 C 1.457031 10.710938 1.578125 10.785156 1.734375 10.808594 C 1.992188 10.847656 2.175781 10.757812 2.28125 10.539062 L 3.203125 8.570312 C 3.234375 8.5 3.25 8.421875 3.25 8.339844 L 3.238281 6.84375 Z M 9.816406 1.414062 L 9.316406 3.671875 L 8.464844 4.027344 L 7.722656 6.105469 L 8.429688 7.695312 L 8.234375 8.316406 L 6.59375 8.800781 L 6.496094 9.53125 L 3.882812 10.175781 L 3.90625 10.613281 L 10.289062 10.613281 C 10.402344 10.613281 10.496094 10.574219 10.574219 10.496094 C 10.652344 10.421875 10.691406 10.324219 10.691406 10.210938 L 10.691406 1.605469 Z M 4.820312 2.859375 C 5.039062 2.859375 5.230469 2.78125 5.390625 2.621094 C 5.554688 2.464844 5.632812 2.273438 5.632812 2.046875 C 5.632812 1.824219 5.554688 1.636719 5.390625 1.472656 C 5.230469 1.3125 5.039062 1.230469 4.820312 1.230469 C 4.59375 1.230469 4.398438 1.3125 4.242188 1.472656 C 4.085938 1.636719 4.003906 1.824219 4.003906 2.046875 C 4.003906 2.273438 4.085938 2.464844 4.242188 2.621094 C 4.398438 2.78125 4.59375 2.859375 4.820312 2.859375 Z M 1.976562 5.082031 L 3.191406 2.992188 C 3.273438 2.855469 3.242188 2.75 3.105469 2.675781 L 2.71875 2.445312 C 2.578125 2.363281 2.472656 2.394531 2.402344 2.53125 L 1.183594 4.621094 C 1.105469 4.757812 1.132812 4.863281 1.269531 4.9375 L 1.660156 5.167969 C 1.796875 5.25 1.902344 5.222656 1.976562 5.082031 Z M 1.976562 5.082031 "/>
</g>
</svg>
