<svg width="12" height="12" version="1.1" viewBox="0 0 48 48" xmlns="http://www.w3.org/2000/svg">
 <path d="m14.828 4c-1.811 0-3.5478 0.71942-4.8284 2-1.2806 1.2806-2 3.0174-2 4.8284v25.172c0 2.2091 1.7909 4 4 4h24c2.2091 0 4-1.7909 4-4v-25.172c0-1.811-0.7194-3.5478-2-4.8284s-3.0174-2-4.8284-2h-18.343zm21.172 12h-24v12h24v-12zm-22 20c1.1046 0 2-0.8954 2-2s-0.8954-2-2-2-2 0.8954-2 2 0.8954 2 2 2zm22-2c0 1.1046-0.8954 2-2 2s-2-0.8954-2-2 0.8954-2 2-2 2 0.8954 2 2z" clip-rule="evenodd" fill="#fff" fill-rule="evenodd"/>
 <path d="m14 36h4l-2.6667 8h17.333l-2.6667-8h4l4 12h-28l4-12z" fill="#fff" opacity=".5"/>
</svg>
