<svg width="64" height="64" viewBox="0 0 1060 1060" fill="none" xmlns="http://www.w3.org/2000/svg">
<path opacity="0.824" d="M54.5 811.813C36.4894 800.163 22.0835 803.834 10.625 820.031C26.8206 906.865 65.0933 985.974 119.406 1051.31C134.44 1049.97 148.999 1047.57 153.594 1022.94C104.095 963.348 69.2264 891.143 54.5 811.813Z" fill="#D89CD8"/>
<path opacity="0.824" d="M132.938 797.125C117.674 786.857 103.954 787.079 92.7812 804.625C106.317 877.198 138.291 943.326 183.688 997.938C198.96 998.367 212.626 995.783 214.969 971.969C173.982 922.62 145.13 862.825 132.938 797.125Z" fill="#D89CD8"/>
<path opacity="0.824" d="M205.094 783.594C189.158 771.806 176.948 775.39 167.562 790.625C178.677 850.203 204.949 904.503 242.219 949.344C257.053 949.036 270.36 946.393 271.469 925.094C238.307 885.159 214.953 836.768 205.094 783.594Z" fill="#D89CD8"/>
</svg>
