<?xml version="1.0" encoding="UTF-8"?>
<svg xmlns="http://www.w3.org/2000/svg" xmlns:xlink="http://www.w3.org/1999/xlink" width="12" height="12" viewBox="0 0 12 12" version="1.1">
<g id="surface1">
<path style=" stroke:none;fill-rule:nonzero;fill:rgb(24.705882%,24.705882%,24.705882%);fill-opacity:1;" d="M 3.136719 8.996094 C 3.136719 8.902344 3.148438 8.808594 3.175781 8.722656 C 3.089844 8.855469 3.039062 9.015625 3.039062 9.183594 C 3.039062 9.644531 3.410156 10.015625 3.867188 10.015625 C 4.039062 10.015625 4.195312 9.964844 4.328125 9.875 C 4.242188 9.902344 4.148438 9.917969 4.054688 9.917969 C 3.546875 9.917969 3.136719 9.503906 3.136719 8.996094 Z M 3.136719 8.996094 "/>
<path style=" stroke:none;fill-rule:nonzero;fill:rgb(24.705882%,24.705882%,24.705882%);fill-opacity:1;" d="M 6 0.824219 C 3.59375 0.824219 1.640625 1.886719 1.640625 2.546875 L 1.640625 2.578125 C 1.75 2.726562 1.988281 2.839844 2.078125 2.863281 C 2.167969 2.882812 2.078125 2.863281 2.078125 2.863281 C 3.003906 3.226562 5.175781 3.261719 6.007812 3.265625 C 7.671875 3.265625 9.191406 3.109375 9.917969 2.863281 C 9.917969 2.863281 9.917969 2.863281 9.921875 2.863281 C 10.253906 2.691406 10.445312 2.644531 10.269531 2.28125 C 9.863281 1.636719 8.105469 0.824219 6 0.824219 Z M 1.640625 3.144531 L 1.640625 10.378906 C 1.644531 10.410156 1.648438 10.4375 1.648438 10.457031 L 1.648438 10.488281 C 1.757812 10.632812 1.996094 10.75 2.085938 10.769531 C 2.179688 10.792969 2.085938 10.773438 2.085938 10.769531 C 3.003906 11.132812 5.140625 11.167969 5.988281 11.175781 L 6.0625 11.175781 C 6.25 11.175781 6.4375 11.171875 6.621094 11.167969 L 6.621094 4.394531 L 7.199219 4.355469 L 7.199219 5.164062 L 8.859375 4.957031 L 8.859375 4.230469 L 9.4375 4.148438 L 9.4375 10.902344 C 9.625 10.863281 9.789062 10.820312 9.925781 10.773438 C 9.925781 10.773438 9.929688 10.773438 9.929688 10.773438 C 10.082031 10.691406 10.246094 10.613281 10.359375 10.515625 L 10.359375 3.179688 L 10.347656 3.179688 C 10.328125 3.570312 8.386719 3.886719 5.996094 3.886719 C 3.59375 3.886719 1.644531 3.566406 1.644531 3.171875 C 1.644531 3.164062 1.644531 3.15625 1.648438 3.148438 Z M 7.199219 5.742188 L 7.199219 6.71875 L 8.859375 6.511719 L 8.859375 5.535156 Z M 7.199219 7.296875 L 7.199219 8.277344 L 8.859375 8.070312 L 8.859375 7.089844 Z M 7.199219 8.855469 L 7.199219 9.832031 L 8.859375 9.625 L 8.859375 8.648438 Z M 7.199219 10.410156 L 7.199219 11.148438 C 7.8125 11.117188 8.378906 11.070312 8.859375 11 L 8.859375 10.203125 Z M 7.199219 10.410156 "/>
</g>
</svg>
