<?xml version="1.0" encoding="UTF-8"?>
<svg xmlns="http://www.w3.org/2000/svg" xmlns:xlink="http://www.w3.org/1999/xlink" width="32" height="32" viewBox="0 0 32 32">
<defs>
<filter id="filter-remove-color" x="0%" y="0%" width="100%" height="100%">
<feColorMatrix color-interpolation-filters="sRGB" values="0 0 0 0 1 0 0 0 0 1 0 0 0 0 1 0 0 0 1 0" />
</filter>
<mask id="mask-0">
<g filter="url(#filter-remove-color)">
<rect x="-3.2" y="-3.2" width="38.4" height="38.4" fill="rgb(0%, 0%, 0%)" fill-opacity="0.7"/>
</g>
</mask>
<clipPath id="clip-0">
<rect x="0" y="0" width="32" height="32"/>
</clipPath>
<g id="source-7" clip-path="url(#clip-0)">
<path fill-rule="nonzero" fill="rgb(100%, 100%, 100%)" fill-opacity="1" d="M 22.140625 21.089844 L 22.667969 22.667969 L 22.667969 26.667969 L 25.332031 26.667969 L 25.332031 22.667969 L 24.421875 19.929688 C 23.75 20.460938 22.976562 20.855469 22.140625 21.089844 Z M 22.140625 21.089844 "/>
<path fill-rule="nonzero" fill="rgb(100%, 100%, 100%)" fill-opacity="1" d="M 10.667969 21.332031 L 12 21.332031 L 10.667969 24 L 10.667969 29.332031 L 9.332031 29.332031 L 9.332031 24 Z M 10.667969 21.332031 "/>
</g>
</defs>
<g mask="url(#mask-0)">
<use xlink:href="#source-7"/>
</g>
<path fill-rule="nonzero" fill="rgb(100%, 100%, 100%)" fill-opacity="1" d="M 25.332031 1.332031 C 22.828125 2.167969 20.898438 4.183594 20.175781 6.71875 L 18.667969 12 L 9.332031 12 C 8.148438 12 7.085938 12.515625 6.351562 13.332031 L 5.332031 13.332031 C 3.125 13.332031 1.332031 15.125 1.332031 17.332031 L 1.332031 22.667969 L 2.667969 22.667969 C 3.402344 22.667969 4 22.070312 4 21.332031 L 4 17.332031 C 4 16.597656 4.597656 16 5.332031 16 L 5.332031 29.332031 L 8 29.332031 L 8 22.667969 L 9.332031 20 L 17.332031 20 L 17.332031 29.332031 L 20 29.332031 L 20 20 L 19.925781 20 C 22.285156 20 24.367188 18.449219 25.039062 16.1875 L 25.113281 15.945312 C 25.257812 15.449219 25.332031 14.9375 25.332031 14.421875 L 25.332031 8 L 29.332031 8 C 29.6875 8 30.027344 7.867188 30.289062 7.628906 C 31.027344 6.957031 30.851562 5.746094 29.953125 5.308594 L 25.332031 3.332031 Z M 25.332031 1.332031 "/>
</svg>
