<?xml version="1.0" encoding="UTF-8"?>
<svg xmlns="http://www.w3.org/2000/svg" xmlns:xlink="http://www.w3.org/1999/xlink" width="12" height="12" viewBox="0 0 12 12" version="1.1">
<g id="surface1">
<path style=" stroke:none;fill-rule:nonzero;fill:rgb(100%,100%,100%);fill-opacity:1;" d="M 5.207031 9 L 7.128906 7.078125 C 7.6875 6.519531 8 5.765625 8 4.976562 L 8 4 C 8 2.894531 7.105469 2 6 2 C 4.894531 2 4 2.894531 4 4 L 5 4 C 5 3.449219 5.449219 3 6 3 C 6.550781 3 7 3.449219 7 4 L 7 4.976562 C 7 5.5 6.792969 6 6.421875 6.371094 L 4.148438 8.644531 C 4.050781 8.742188 4 8.871094 4 9 L 4 10 L 8 10 L 8 9 Z M 5.207031 9 "/>
</g>
</svg>
