<?xml version="1.0" encoding="UTF-8"?>
<svg xmlns="http://www.w3.org/2000/svg" xmlns:xlink="http://www.w3.org/1999/xlink" width="12" height="12" viewBox="0 0 12 12" version="1.1">
<defs>
<filter id="alpha" filterUnits="objectBoundingBox" x="0%" y="0%" width="100%" height="100%">
  <feColorMatrix type="matrix" in="SourceGraphic" values="0 0 0 0 1 0 0 0 0 1 0 0 0 0 1 0 0 0 1 0"/>
</filter>
<mask id="mask0">
  <g filter="url(#alpha)">
<rect x="0" y="0" width="12" height="12" style="fill:rgb(0%,0%,0%);fill-opacity:0.5;stroke:none;"/>
  </g>
</mask>
<clipPath id="clip1">
  <rect x="0" y="0" width="12" height="12"/>
</clipPath>
<g id="surface5" clip-path="url(#clip1)">
<path style=" stroke:none;fill-rule:evenodd;fill:rgb(100%,100%,100%);fill-opacity:1;" d="M 7.855469 2.144531 C 8.046875 2.339844 8.046875 2.660156 7.855469 2.855469 L 4.855469 5.855469 C 4.660156 6.046875 4.339844 6.046875 4.144531 5.855469 C 3.953125 5.660156 3.953125 5.339844 4.144531 5.144531 L 7.144531 2.144531 C 7.339844 1.953125 7.660156 1.953125 7.855469 2.144531 Z M 7.855469 2.144531 "/>
</g>
</defs>
<g id="surface1">
<use xlink:href="#surface5" mask="url(#mask0)"/>
<path style=" stroke:none;fill-rule:evenodd;fill:rgb(100%,100%,100%);fill-opacity:1;" d="M 4.144531 2.855469 C 3.953125 2.660156 3.953125 2.339844 4.144531 2.144531 C 4.339844 1.953125 4.660156 1.953125 4.855469 2.144531 L 7.707031 5 L 10.554688 5 C 10.800781 5 11 5.199219 11 5.445312 C 11 5.480469 10.996094 5.519531 10.988281 5.554688 L 10.035156 9.367188 C 10.011719 9.453125 9.964844 9.535156 9.902344 9.597656 L 9.644531 9.855469 C 9.550781 9.949219 9.425781 10 9.292969 10 L 2.707031 10 C 2.574219 10 2.449219 9.949219 2.355469 9.855469 L 2.097656 9.597656 C 2.035156 9.535156 1.988281 9.453125 1.964844 9.367188 L 1.011719 5.554688 C 1.003906 5.519531 1 5.480469 1 5.445312 C 1 5.199219 1.199219 5 1.445312 5 L 6.292969 5 Z M 7 6 L 5 6 L 5 9 L 7 9 Z M 8 9 L 9.085938 9 L 9.804688 6 L 8 6 Z M 4 9 L 4 6 L 2.195312 6 L 2.914062 9 Z M 4 9 "/>
</g>
</svg>
