<?xml version="1.0" encoding="UTF-8"?>
<svg xmlns="http://www.w3.org/2000/svg" xmlns:xlink="http://www.w3.org/1999/xlink" width="32" height="32" viewBox="0 0 32 32">
<path fill-rule="nonzero" fill="rgb(100%, 100%, 100%)" fill-opacity="1" d="M 7.9375 26.957031 C 8.964844 26.957031 9.796875 26.125 9.796875 25.101562 C 9.796875 24.074219 8.964844 23.242188 7.9375 23.242188 C 6.910156 23.242188 6.078125 24.074219 6.078125 25.101562 C 6.078125 26.125 6.910156 26.957031 7.9375 26.957031 Z M 7.9375 26.957031 "/>
<path fill-rule="nonzero" fill="rgb(100%, 100%, 100%)" fill-opacity="1" d="M 11.929688 26.957031 C 12.957031 26.957031 13.789062 26.125 13.789062 25.101562 C 13.789062 24.074219 12.957031 23.242188 11.929688 23.242188 C 10.90625 23.242188 10.074219 24.074219 10.074219 25.101562 C 10.074219 26.125 10.90625 26.957031 11.929688 26.957031 Z M 11.929688 26.957031 "/>
<path fill-rule="nonzero" fill="rgb(100%, 100%, 100%)" fill-opacity="1" d="M 15.925781 26.957031 C 16.949219 26.957031 17.78125 26.125 17.78125 25.101562 C 17.78125 24.074219 16.949219 23.242188 15.925781 23.242188 C 14.898438 23.242188 14.066406 24.074219 14.066406 25.101562 C 14.066406 26.125 14.898438 26.957031 15.925781 26.957031 Z M 15.925781 26.957031 "/>
<path fill-rule="nonzero" fill="rgb(100%, 100%, 100%)" fill-opacity="1" d="M 19.917969 26.957031 C 20.945312 26.957031 21.777344 26.125 21.777344 25.101562 C 21.777344 24.074219 20.945312 23.242188 19.917969 23.242188 C 18.890625 23.242188 18.058594 24.074219 18.058594 25.101562 C 18.058594 26.125 18.890625 26.957031 19.917969 26.957031 Z M 19.917969 26.957031 "/>
<path fill-rule="nonzero" fill="rgb(100%, 100%, 100%)" fill-opacity="1" d="M 23.910156 26.957031 C 24.9375 26.957031 25.769531 26.125 25.769531 25.101562 C 25.769531 24.074219 24.9375 23.242188 23.910156 23.242188 C 22.882812 23.242188 22.050781 24.074219 22.050781 25.101562 C 22.050781 26.125 22.882812 26.957031 23.910156 26.957031 Z M 23.910156 26.957031 "/>
<path fill-rule="nonzero" fill="rgb(100%, 100%, 100%)" fill-opacity="1" d="M 9.875 23.4375 C 10.902344 23.4375 11.734375 22.605469 11.734375 21.578125 C 11.734375 20.550781 10.902344 19.71875 9.875 19.71875 C 8.847656 19.71875 8.015625 20.550781 8.015625 21.578125 C 8.015625 22.605469 8.847656 23.4375 9.875 23.4375 Z M 9.875 23.4375 "/>
<path fill-rule="nonzero" fill="rgb(100%, 100%, 100%)" fill-opacity="1" d="M 13.867188 23.4375 C 14.894531 23.4375 15.726562 22.605469 15.726562 21.578125 C 15.726562 20.550781 14.894531 19.71875 13.867188 19.71875 C 12.84375 19.71875 12.011719 20.550781 12.011719 21.578125 C 12.011719 22.605469 12.84375 23.4375 13.867188 23.4375 Z M 13.867188 23.4375 "/>
<path fill-rule="nonzero" fill="rgb(100%, 100%, 100%)" fill-opacity="1" d="M 17.863281 23.4375 C 18.890625 23.4375 19.722656 22.605469 19.722656 21.578125 C 19.722656 20.550781 18.890625 19.71875 17.863281 19.71875 C 16.835938 19.71875 16.003906 20.550781 16.003906 21.578125 C 16.003906 22.605469 16.835938 23.4375 17.863281 23.4375 Z M 17.863281 23.4375 "/>
<path fill-rule="nonzero" fill="rgb(100%, 100%, 100%)" fill-opacity="1" d="M 21.855469 23.4375 C 22.882812 23.4375 23.714844 22.605469 23.714844 21.578125 C 23.714844 20.550781 22.882812 19.71875 21.855469 19.71875 C 20.828125 19.71875 19.996094 20.550781 19.996094 21.578125 C 19.996094 22.605469 20.828125 23.4375 21.855469 23.4375 Z M 21.855469 23.4375 "/>
<path fill-rule="nonzero" fill="rgb(100%, 100%, 100%)" fill-opacity="1" d="M 11.894531 19.964844 C 12.921875 19.964844 13.753906 19.132812 13.753906 18.105469 C 13.753906 17.082031 12.921875 16.25 11.894531 16.25 C 10.871094 16.25 10.039062 17.082031 10.039062 18.105469 C 10.039062 19.132812 10.871094 19.964844 11.894531 19.964844 Z M 11.894531 19.964844 "/>
<path fill-rule="nonzero" fill="rgb(100%, 100%, 100%)" fill-opacity="1" d="M 15.890625 19.964844 C 16.917969 19.964844 17.75 19.132812 17.75 18.105469 C 17.75 17.082031 16.917969 16.25 15.890625 16.25 C 14.863281 16.25 14.03125 17.082031 14.03125 18.105469 C 14.03125 19.132812 14.863281 19.964844 15.890625 19.964844 Z M 15.890625 19.964844 "/>
<path fill-rule="nonzero" fill="rgb(100%, 100%, 100%)" fill-opacity="1" d="M 19.882812 19.964844 C 20.910156 19.964844 21.742188 19.132812 21.742188 18.105469 C 21.742188 17.082031 20.910156 16.25 19.882812 16.25 C 18.855469 16.25 18.023438 17.082031 18.023438 18.105469 C 18.023438 19.132812 18.855469 19.964844 19.882812 19.964844 Z M 19.882812 19.964844 "/>
<path fill-rule="nonzero" fill="rgb(100%, 100%, 100%)" fill-opacity="1" d="M 13.867188 16.527344 C 14.894531 16.527344 15.726562 15.695312 15.726562 14.667969 C 15.726562 13.644531 14.894531 12.8125 13.867188 12.8125 C 12.839844 12.8125 12.007812 13.644531 12.007812 14.667969 C 12.007812 15.695312 12.839844 16.527344 13.867188 16.527344 Z M 13.867188 16.527344 "/>
<path fill-rule="nonzero" fill="rgb(100%, 100%, 100%)" fill-opacity="1" d="M 17.859375 16.527344 C 18.886719 16.527344 19.71875 15.695312 19.71875 14.667969 C 19.71875 13.644531 18.886719 12.8125 17.859375 12.8125 C 16.835938 12.8125 16 13.644531 16 14.667969 C 16 15.695312 16.835938 16.527344 17.859375 16.527344 Z M 17.859375 16.527344 "/>
<path fill-rule="nonzero" fill="rgb(100%, 100%, 100%)" fill-opacity="1" d="M 15.890625 13.148438 C 16.917969 13.148438 17.75 12.316406 17.75 11.289062 C 17.75 10.265625 16.917969 9.433594 15.890625 9.433594 C 14.863281 9.433594 14.03125 10.265625 14.03125 11.289062 C 14.03125 12.316406 14.863281 13.148438 15.890625 13.148438 Z M 15.890625 13.148438 "/>
<path fill="none" stroke-width="15.7599" stroke-linecap="butt" stroke-linejoin="round" stroke="rgb(100%, 100%, 100%)" stroke-opacity="1" stroke-miterlimit="4" d="M 405.334473 308.408203 L 460.488281 404.343262 C 466.789551 414.821777 471.958008 423.459473 478.54248 434.858398 C 491.711426 457.727051 483.92334 486.967773 461.054688 500.136719 C 449.655762 506.721191 437.053223 507.004395 424.804688 507.004395 L 318.815918 505.588379 L 174.87793 505.871582 C 162.629395 506.013184 154.274902 505.163574 141.105957 505.163574 C 114.768066 505.163574 91.262207 481.657715 91.262207 455.249023 C 91.262207 442.080078 98.908691 431.955566 105.209961 421.477051 L 174.02832 310.107422 L 230.952148 205.393066 C 237.041016 194.772949 240.085449 186.914062 246.669922 175.444336 C 259.838867 152.646484 289.07959 144.787598 311.877441 157.956543 C 323.276367 164.611816 330.073242 176.364746 336.162109 186.984863 Z M 405.334473 308.408203 " transform="matrix(0.0551724, 0, 0, 0.0551724, 0, 0)"/>
<path fill-rule="nonzero" fill="rgb(100%, 100%, 100%)" fill-opacity="1" d="M 15.78125 6.839844 C 16.804688 6.839844 17.636719 6.007812 17.636719 4.980469 C 17.636719 3.953125 16.804688 3.121094 15.78125 3.121094 C 14.753906 3.121094 13.921875 3.953125 13.921875 4.980469 C 13.921875 6.007812 14.753906 6.839844 15.78125 6.839844 Z M 15.78125 6.839844 "/>
</svg>
