<svg width="12" height="12" viewBox="0 0 580 580" fill="none" xmlns="http://www.w3.org/2000/svg">
<path d="M102.778 143.209C97.6113 143.208 92.4956 144.225 87.7225 146.202C82.9494 148.179 78.6125 151.076 74.9594 154.729C71.3063 158.382 68.4087 162.719 66.432 167.493C64.4553 172.266 63.4383 177.381 63.439 182.548V397.453C63.4383 402.619 64.4553 407.735 66.432 412.508C68.4087 417.281 71.3063 421.618 74.9594 425.271C78.6125 428.924 82.9494 431.822 87.7225 433.798C92.4956 435.775 97.6113 436.792 102.778 436.791H139.931C150.168 436.771 159.995 432.759 167.322 425.609C174.667 432.777 184.523 436.79 194.786 436.791H231.976C238.334 436.783 244.596 435.233 250.224 432.275C255.853 435.233 262.115 436.783 268.473 436.791H370.935C374.522 436.767 378.088 436.252 381.535 435.261C385.017 436.262 388.621 436.777 392.244 436.791H429.433C434.6 436.792 439.715 435.775 444.488 433.798C449.262 431.822 453.598 428.924 457.252 425.271C460.905 421.618 463.802 417.281 465.779 412.508C467.756 407.735 468.773 402.619 468.772 397.453V263.774H477.223C482.389 263.775 487.504 262.758 492.278 260.781C497.051 258.805 501.388 255.907 505.041 252.254C508.694 248.601 511.591 244.264 513.568 239.491C515.545 234.718 516.562 229.602 516.561 224.436V182.548C516.562 177.381 515.545 172.266 513.568 167.493C511.591 162.719 508.694 158.382 505.041 154.729C501.388 151.076 497.051 148.179 492.278 146.202C487.504 144.225 482.389 143.208 477.223 143.209H344.382C337.575 143.212 330.886 144.982 324.968 148.345C319.071 144.994 312.408 143.225 305.626 143.209H268.473C262.115 143.217 255.853 144.767 250.224 147.726C244.596 144.767 238.334 143.217 231.976 143.209H194.786C184.548 143.23 174.722 147.241 167.395 154.391C160.05 147.224 150.194 143.211 139.931 143.209H102.778ZM344.965 263.774H352.905V316.226H344.965V263.774Z" fill="#FEFEFE" fill-opacity="0.788732"/>
<path d="M102.762 182.537H139.939V264.448H194.788V182.537H231.965V397.463H194.788V306.339H139.939V397.463H102.762V182.537" fill="#6C003D"/>
<path d="M268.466 182.537H305.643V355.572H370.92V397.463H268.466V182.537" fill="#6C003D"/>
<path d="M344.365 182.537H477.237V224.428H429.438V397.463H392.261V224.428H344.365V182.537" fill="#6C003D"/>
</svg>
