<?xml version="1.0" encoding="UTF-8"?>
<svg xmlns="http://www.w3.org/2000/svg" xmlns:xlink="http://www.w3.org/1999/xlink" width="32" height="32" viewBox="0 0 32 32">
<path fill-rule="evenodd" fill="rgb(100%, 100%, 100%)" fill-opacity="1" d="M 28.019531 7.578125 C 27.71875 7.574219 27.425781 7.671875 27.1875 7.851562 L 23.988281 10.253906 L 6.679688 16 L 2.679688 16 C 1.945312 16 1.347656 16.597656 1.347656 17.332031 C 1.347656 18.070312 1.945312 18.667969 2.679688 18.667969 L 7.113281 18.667969 L 25.238281 12.648438 L 28.785156 9.988281 C 29.246094 9.648438 29.441406 9.054688 29.265625 8.507812 C 29.09375 7.964844 28.589844 7.589844 28.019531 7.578125 Z M 28.019531 7.578125 "/>
<path fill-rule="nonzero" fill="rgb(100%, 100%, 100%)" fill-opacity="1" d="M 11.878906 21.839844 C 12.34375 23.238281 11.585938 24.75 10.191406 25.214844 C 8.792969 25.675781 7.28125 24.921875 6.820312 23.523438 C 6.355469 22.125 7.109375 20.617188 8.507812 20.152344 C 9.90625 19.6875 11.414062 20.445312 11.878906 21.839844 Z M 11.878906 21.839844 "/>
<path fill-rule="nonzero" fill="rgb(100%, 100%, 100%)" fill-opacity="1" d="M 29.207031 16.484375 C 29.671875 17.882812 28.914062 19.390625 27.519531 19.855469 C 26.121094 20.320312 24.609375 19.5625 24.148438 18.167969 C 23.683594 16.769531 24.4375 15.257812 25.835938 14.792969 C 27.234375 14.332031 28.742188 15.085938 29.207031 16.484375 Z M 29.207031 16.484375 "/>
</svg>
