<svg width="32" height="32" viewBox="0 0 580 580" fill="none" xmlns="http://www.w3.org/2000/svg">
<path d="M81.4375 386.188C117.583 465.069 196.997 519.406 289.969 519.406C382.943 519.406 462.401 465.072 498.562 386.188H81.4375Z" fill="#BFBFBF"/>
<path d="M401.5 97.9688L401.219 104.875C401.105 105.192 401.011 105.515 400.938 105.844C392.114 151.43 375.552 177.863 355.906 193.25C336.26 208.637 312.845 213.434 288.75 213.469C263.072 213.506 240.27 207.173 221.375 190.875C202.518 174.61 187.155 147.885 178.188 105.656L177.844 98L162.094 98.0312L161.875 101.281C160.874 102.399 160.203 103.773 159.938 105.25C151.095 150.934 135.329 177.271 116.625 192.438C103.885 202.768 89.4407 208.221 73.9062 210.656C71.9036 216.207 70.1122 221.85 68.5312 227.594C74.7399 226.961 80.9167 225.973 87 224.469V249.562H63.625C61.8454 259.881 60.7472 270.434 60.375 281.188C101.629 281.316 151.469 281.438 151.469 281.438C151.087 316.155 151.25 338.875 151.25 373.594C147.141 375.325 122.588 376 116.969 376C105.109 376 86.0978 373.107 72.375 363.219C76.4674 375.519 81.5536 387.338 87.5625 398.594C98.0889 402.328 109.105 403.594 116.969 403.594C129.238 403.594 149.197 400.517 163 389.781C176.803 400.517 196.73 403.594 209 403.594C209.82 403.594 210.585 403.575 211.375 403.562C235.706 403.193 246.087 397.24 255 389.812C255.431 390.148 255.87 390.461 256.312 390.781C258.527 392.385 260.903 393.809 263.344 395.062C264.32 395.564 265.281 396.019 266.281 396.469C266.871 396.734 267.466 396.971 268.062 397.219C268.48 397.392 268.892 397.585 269.312 397.75C272.375 398.953 275.493 399.926 278.594 400.719C280.655 401.246 282.709 401.694 284.719 402.062C285.724 402.247 286.705 402.415 287.688 402.562C289.652 402.858 291.574 403.086 293.406 403.25C295.239 403.414 296.978 403.512 298.625 403.562C299.448 403.588 300.264 403.594 301.031 403.594C301.798 403.594 302.583 403.588 303.406 403.562C305.044 403.513 306.804 403.412 308.625 403.25C308.635 403.249 308.646 403.251 308.656 403.25C310.489 403.086 312.379 402.858 314.344 402.562C315.326 402.415 316.339 402.247 317.344 402.062C319.354 401.694 321.377 401.246 323.438 400.719C326.529 399.928 329.664 398.949 332.719 397.75C334.755 396.951 336.766 396.065 338.719 395.062C341.159 393.809 343.504 392.385 345.719 390.781C346.162 390.461 346.6 390.148 347.031 389.812C347.463 390.148 347.901 390.461 348.344 390.781C350.558 392.385 352.903 393.809 355.344 395.062C357.296 396.065 359.308 396.951 361.344 397.75C364.398 398.949 367.534 399.928 370.625 400.719C372.686 401.246 374.709 401.694 376.719 402.062C377.724 402.247 378.737 402.415 379.719 402.562C381.585 402.843 383.408 403.057 385.156 403.219C385.25 403.228 385.344 403.242 385.438 403.25C385.501 403.256 385.562 403.244 385.625 403.25C387.389 403.404 389.067 403.514 390.656 403.562C391.48 403.588 392.264 403.594 393.031 403.594C405.301 403.594 425.259 400.548 439.062 389.812C452.866 400.548 472.793 403.594 485.062 403.594C486.512 403.594 488.078 403.53 489.719 403.438C495.053 394.011 499.77 384.18 503.75 373.969C496.845 375.424 490.265 376 485.062 376C474.216 376 436.607 373.599 428.406 365.625C428.4 333.208 428.382 312.792 428.438 280.375C428.438 280.375 478.99 280.327 520.719 280.281C520.317 269.84 519.23 259.591 517.5 249.562H497V225.094C502.155 226.364 507.403 227.321 512.688 227.969C511.091 222.129 509.282 216.391 507.25 210.75C490.964 207.739 475.837 201.358 462.531 190.469C442.728 174.261 426.53 147.702 417.594 105.438C417.451 104.71 417.209 104.005 416.875 103.344L416.469 98.0938L401.5 97.9688ZM180.719 163.5C187.639 177.226 195.754 188.577 204.938 197.75V249.562H184.469L180.719 163.5ZM157.906 164.625L152.531 249.562H133.688V198.875C142.826 189.958 150.98 178.691 157.906 164.625ZM398.656 164.781L395.062 249.562H375V197.969C383.882 189.179 391.858 178.223 398.656 164.781ZM421.688 165.281C429.065 178.795 437.737 189.899 447.438 198.812V249.562H428.25L421.688 165.281ZM217.656 208.594C225.99 214.642 234.933 219.24 244.281 222.562V249.562H217.656V208.594ZM362.281 208.719V249.562H335.656V222.406C344.863 219.195 353.837 214.75 362.281 208.719ZM460.125 208.875C467.786 214.069 475.888 218.111 484.281 221.188V249.562H460.125V208.875ZM121 209.375V249.562H99.6875V220.531C107.052 217.743 114.197 214.088 121 209.375ZM322.969 226.062V249.562H296.312V229.5C305.177 229.121 314.139 228.086 322.969 226.062ZM256.969 226.25C265.631 228.257 274.551 229.315 283.625 229.594V249.562H256.969V226.25ZM185.375 280.219H394.031C394.047 314.563 394.031 337.681 394.031 375.344C394.005 375.339 393.995 375.349 393.969 375.344C391.618 374.888 374.747 374.179 370.625 373.125C368.897 372.683 367.135 372.159 365.406 371.594C363.011 370.811 360.637 369.919 358.312 368.875C356.312 367.976 354.359 366.986 352.469 365.875C351.524 365.319 350.595 364.737 349.688 364.125C349.234 363.819 348.787 363.508 348.344 363.188C347.901 362.867 347.463 362.523 347.031 362.188C346.169 362.858 345.282 363.513 344.375 364.125C343.468 364.737 342.539 365.319 341.594 365.875C339.704 366.986 337.751 367.976 335.75 368.875C333.749 369.774 331.714 370.577 329.656 371.281C327.598 371.985 325.498 372.598 323.438 373.125C319.316 374.179 315.248 374.888 311.438 375.344C309.532 375.571 307.715 375.739 305.969 375.844C305.096 375.896 304.23 375.944 303.406 375.969C302.583 375.994 301.798 376 301.031 376C299.498 376 297.84 375.949 296.094 375.844C294.347 375.739 292.499 375.571 290.594 375.344C286.783 374.888 282.716 374.179 278.594 373.125C276.533 372.598 274.464 371.985 272.406 371.281C270.019 370.465 267.649 369.487 265.344 368.406C263.675 367.624 261.712 374.339 260.125 373.406C259.18 372.851 258.251 372.268 257.344 371.656C256.89 371.35 256.443 371.039 256 370.719C255.557 370.398 255.119 370.054 254.688 369.719C253.825 370.39 252.939 371.044 252.031 371.656C251.124 372.268 250.195 372.851 249.25 373.406C247.36 374.518 245.72 367.976 243.719 368.875C241.718 369.774 239.683 370.577 237.625 371.281C235.567 371.985 233.498 372.598 231.438 373.125C227.316 374.179 223.248 374.888 219.438 375.344C217.532 375.571 215.684 375.739 213.938 375.844C213.064 375.896 212.198 375.944 211.375 375.969C210.552 375.994 209.767 376 209 376C205.966 376 186.838 375.789 184.781 375.344C185.227 339.644 183.982 315.905 185.375 280.219ZM152.688 418C139.799 428.024 121.539 431.382 109.188 431.781C116.108 440.62 123.683 448.94 131.812 456.656C141.208 454.153 147.239 450.166 152.688 445.625C166.491 456.361 186.418 459.406 198.688 459.406C210.957 459.406 230.916 456.361 244.719 445.625C258.522 456.361 278.449 459.406 290.719 459.406C302.988 459.406 322.916 456.361 336.719 445.625C350.522 456.361 370.48 459.406 382.75 459.406C395.02 459.406 414.947 456.361 428.75 445.625C434.781 450.316 441.968 453.546 449.188 455.688C456.953 448.228 464.197 440.211 470.844 431.719C458.546 431.125 441.175 427.664 428.75 418C414.947 428.736 395.02 431.812 382.75 431.812C370.48 431.812 350.522 428.736 336.719 418C322.916 428.736 302.988 431.812 290.719 431.812C278.449 431.812 258.522 428.736 244.719 418C230.916 428.736 210.957 431.812 198.688 431.812C186.418 431.812 166.491 428.736 152.688 418Z" fill="#2C2C2C"/>
<path d="M289.981 284.666C286.164 284.693 282.317 286.814 282.268 290.934V304.044H297.517V290.934C297.579 286.707 293.797 284.64 289.981 284.666V284.666ZM264.66 308.878C259.887 308.878 255.785 312.824 255.785 317.415V341.671H323.965V317.415C323.965 312.824 319.863 308.878 315.09 308.878H264.66ZM235.325 348.243V362.675C235.325 374.483 240.78 384.966 250.327 392.182L289.875 409.696L329.423 392.182C338.97 384.966 344.425 374.483 344.425 362.675V348.243H235.325ZM248.953 361.354H262.582V367.926L248.953 364.64V361.354ZM317.168 361.354H330.797V364.64L317.168 367.926V361.354Z" fill="#2C2C2C"/>
</svg>
