<svg width="32" height="32" viewBox="0 0 16 16" fill="none" xmlns="http://www.w3.org/2000/svg">
<path d="M13.8051 4.72968H2.19491C1.98243 4.72968 1.81018 4.90193 1.81018 5.11441V10.8856C1.81018 11.0981 1.98243 11.2703 2.19491 11.2703H13.8051C14.0176 11.2703 14.1899 11.0981 14.1899 10.8856V5.11441C14.1899 4.90193 14.0176 4.72968 13.8051 4.72968Z" fill="#FEFEFE"/>
<path d="M2.68567 10.0114V5.49664H5.46549C5.52003 5.62766 5.95545 6.78706 6.0816 7.15332C6.10933 7.23315 6.12182 7.33035 6.1209 7.35168C6.11725 7.43761 6.06636 7.50525 5.97769 7.60611C5.8744 7.72372 5.81529 7.7545 5.81529 7.86328C5.81529 7.94555 5.84576 7.97358 5.8744 8.03452C6.17606 8.54246 7.28183 10.4274 7.31382 10.5035H5.76013C5.76013 10.5035 4.82591 8.89988 4.58184 8.45958C4.53979 8.38524 4.49531 8.28621 4.49531 8.23136C4.49531 8.08084 4.59312 8.00588 4.6958 7.88948C4.76893 7.8066 4.83901 7.77004 4.83901 7.66796C4.83901 7.58265 4.78752 7.50312 4.75248 7.41293L4.21559 6.05791C4.1842 5.98173 4.1775 5.91591 4.08883 5.91896C4.01113 5.9217 4.01144 6.01829 4.01144 6.08198V10.0114H2.68567Z" fill="#D31145"/>
<path d="M6.51337 5.49649V6.17872H7.3638C7.49147 6.17872 7.55119 6.27074 7.55119 6.36185V10.5034H8.85075V6.3585C8.85075 6.27013 8.90865 6.17872 9.02626 6.17872H9.90929V5.49649H6.51337Z" fill="#D31145"/>
<path d="M11.9218 9.9945H13.3143V5.49646H11.1342L9.02625 10.5034H10.4946L11.363 8.43228C11.399 8.34544 11.4227 8.29943 11.4227 8.20924C11.4227 8.11783 11.4039 8.04836 11.2759 7.89966C11.165 7.77808 11.1339 7.73756 11.1339 7.60714C11.1339 7.5331 11.1589 7.46576 11.2034 7.371L11.7707 6.00531C11.7914 5.96326 11.8061 5.88892 11.86 5.88892C11.9014 5.88892 11.9212 5.93371 11.9218 5.97545V9.9945Z" fill="#D31145"/>
</svg>
