<?xml version="1.0" encoding="UTF-8"?>
<svg xmlns="http://www.w3.org/2000/svg" xmlns:xlink="http://www.w3.org/1999/xlink" width="12" height="12" viewBox="0 0 12 12" version="1.1">
<g id="surface1">
<path style=" stroke:none;fill-rule:nonzero;fill:rgb(100%,100%,100%);fill-opacity:1;" d="M 0.964844 10.828125 C 1.421875 10.1875 1.964844 9.792969 2.675781 9.578125 C 2.957031 9.496094 3.074219 9.390625 3.34375 8.964844 C 3.523438 8.683594 3.683594 8.417969 3.703125 8.371094 C 3.738281 8.28125 4.683594 7.207031 5.042969 6.84375 C 5.164062 6.722656 5.40625 6.367188 5.582031 6.050781 C 5.886719 5.503906 5.953125 5.265625 6.199219 3.820312 C 6.253906 3.484375 6.378906 3.304688 7.101562 2.488281 C 7.5625 1.972656 8.054688 1.441406 8.195312 1.308594 C 8.335938 1.175781 8.433594 1.042969 8.417969 1.015625 C 8.398438 0.988281 8.777344 0.964844 9.253906 0.964844 C 9.730469 0.964844 10.117188 0.984375 10.117188 1.007812 C 10.117188 1.03125 9.851562 1.332031 9.53125 1.671875 C 9.210938 2.015625 8.839844 2.410156 8.710938 2.546875 C 8.582031 2.6875 8.394531 2.96875 8.289062 3.171875 C 8.1875 3.378906 8.03125 3.625 7.9375 3.722656 C 7.785156 3.894531 7.117188 5.402344 6.949219 5.964844 C 6.835938 6.355469 6.105469 7.367188 5.433594 8.066406 C 5.105469 8.410156 4.339844 9.191406 3.730469 9.804688 C 3.121094 10.417969 2.640625 10.945312 2.664062 10.976562 C 2.683594 11.011719 2.273438 11.035156 1.757812 11.035156 C 0.816406 11.035156 0.816406 11.035156 0.964844 10.828125 Z M 4.863281 10.949219 C 5.207031 10.398438 5.714844 9.734375 6.640625 8.621094 C 7.648438 7.410156 8.273438 6.613281 8.496094 6.242188 C 8.542969 6.167969 8.78125 5.8125 9.023438 5.453125 C 9.269531 5.089844 9.617188 4.515625 9.792969 4.171875 C 10.570312 2.667969 11.160156 1.671875 11.277344 1.671875 C 11.347656 1.671875 11.34375 3.703125 11.273438 3.753906 C 11.242188 3.777344 11.074219 4.039062 10.90625 4.335938 C 10.738281 4.632812 10.523438 5.007812 10.433594 5.164062 C 10.34375 5.320312 10.148438 5.601562 10 5.789062 C 9.757812 6.089844 9.296875 6.738281 9.078125 7.089844 C 8.738281 7.636719 7.960938 8.765625 7.734375 9.046875 C 7.582031 9.234375 7.457031 9.410156 7.457031 9.441406 C 7.457031 9.46875 7.292969 9.707031 7.09375 9.972656 C 6.894531 10.234375 6.6875 10.582031 6.636719 10.746094 C 6.542969 11.035156 6.542969 11.035156 5.675781 11.035156 C 5.082031 11.035156 4.824219 11.007812 4.863281 10.949219 Z M 8.828125 10.621094 C 9.15625 9.867188 9.195312 9.792969 9.492188 9.285156 C 9.800781 8.773438 10.199219 7.960938 10.433594 7.375 C 10.546875 7.09375 11.265625 5.832031 11.3125 5.832031 C 11.320312 5.832031 11.328125 6.710938 11.328125 7.78125 C 11.328125 8.851562 11.304688 9.714844 11.273438 9.699219 C 11.246094 9.679688 11.121094 9.863281 10.992188 10.101562 C 10.863281 10.339844 10.660156 10.648438 10.542969 10.785156 C 10.328125 11.03125 10.316406 11.035156 9.488281 11.035156 C 8.648438 11.039062 8.648438 11.039062 8.828125 10.621094 Z M 1.445312 8.355469 C 1.167969 8.3125 1.164062 8.273438 1.398438 7.765625 C 1.773438 6.949219 2.632812 5.886719 3.390625 5.3125 C 3.929688 4.898438 4.023438 4.859375 4.585938 4.792969 C 5.085938 4.734375 5.085938 4.734375 4.816406 5.011719 C 4.667969 5.167969 4.425781 5.453125 4.277344 5.648438 C 4.125 5.839844 3.671875 6.421875 3.269531 6.9375 C 2.863281 7.453125 2.4375 7.996094 2.324219 8.144531 C 2.109375 8.417969 2.011719 8.441406 1.445312 8.355469 Z M 0.671875 5.300781 C 0.671875 4.871094 0.699219 4.535156 0.730469 4.554688 C 0.765625 4.574219 0.929688 4.515625 1.101562 4.425781 C 1.269531 4.335938 1.445312 4.28125 1.488281 4.308594 C 1.535156 4.335938 1.699219 4.367188 1.851562 4.375 C 2.101562 4.390625 2.183594 4.335938 2.527344 3.941406 C 2.746094 3.691406 3.265625 3.125 3.683594 2.683594 C 4.496094 1.832031 5.144531 1.054688 5.089844 0.996094 C 5.070312 0.980469 5.40625 0.964844 5.839844 0.964844 C 6.269531 0.964844 6.625 0.976562 6.625 0.996094 C 6.625 1.050781 5.976562 1.839844 5.40625 2.472656 C 5.09375 2.824219 4.761719 3.210938 4.671875 3.335938 C 4.582031 3.464844 4.375 3.652344 4.214844 3.757812 C 4.050781 3.867188 3.769531 4.070312 3.585938 4.210938 C 3.402344 4.351562 2.996094 4.574219 2.679688 4.707031 C 1.980469 5 1.183594 5.523438 0.945312 5.84375 C 0.847656 5.976562 0.746094 6.082031 0.71875 6.082031 C 0.695312 6.082031 0.671875 5.730469 0.671875 5.300781 Z M 0.671875 3.46875 C 0.671875 3.128906 0.695312 2.867188 0.726562 2.886719 C 0.757812 2.90625 0.847656 2.820312 0.925781 2.699219 C 1.007812 2.574219 1.386719 2.152344 1.765625 1.753906 C 2.148438 1.359375 2.445312 1.019531 2.425781 1 C 2.40625 0.980469 2.667969 0.964844 3.011719 0.964844 C 3.382812 0.964844 3.628906 0.996094 3.628906 1.050781 C 3.628906 1.097656 3.363281 1.398438 3.039062 1.71875 C 2.714844 2.035156 2.230469 2.578125 1.964844 2.921875 C 1.417969 3.628906 1.082031 3.960938 0.839844 4.035156 C 0.683594 4.082031 0.671875 4.046875 0.671875 3.46875 Z M 0.671875 3.46875 "/>
</g>
</svg>
