<svg width="32" height="32" viewBox="0 0 580 580" fill="none" xmlns="http://www.w3.org/2000/svg">
<path opacity="0.426087" d="M351.301 53.8906C340.863 53.8906 332.047 58.8773 326.316 65.1953C326.314 65.1973 326.312 65.1992 326.31 65.2012C321.176 70.8656 305.537 75.6602 300.904 75.6602C296.266 75.6602 280.596 70.8592 275.459 65.1954C275.452 65.1888 275.446 65.1823 275.439 65.1758C269.414 58.5461 259.932 53.4281 248.978 53.9317C239.1 54.382 230.939 59.1992 225.508 65.1739C225.499 65.183 225.491 65.1921 225.482 65.2012C220.331 70.8838 204.744 75.6602 200.111 75.6602C197.129 75.6602 188.706 74.1298 182.603 70.9961C176.629 67.9293 169.704 67.2801 163.264 69.1831C156.823 71.0862 151.363 75.3954 148.015 81.2168C143.28 89.4541 139.441 102.765 140.301 114.305C140.301 114.305 140.301 114.306 140.301 114.307C140.588 118.217 141.136 121.897 141.849 125.289C142.681 129.246 144.42 132.956 146.929 136.126C149.437 139.297 152.647 141.843 156.306 143.563C172.063 150.967 187.395 153.375 200.111 153.375C214.599 153.375 232.834 150.18 250.49 140.184C268.167 150.191 286.422 153.375 300.904 153.375C305.582 153.375 310.663 153.022 315.976 152.234C315.874 152.597 315.78 152.962 315.693 153.328L272.594 347.531C232.386 355.708 201.736 391.562 201.736 434.035C201.736 482.461 241.574 522.299 290 522.299C338.426 522.299 378.264 482.461 378.264 434.035C378.264 407.523 366.304 383.693 347.59 367.469L391.387 170.127C392.705 164.172 391.899 157.943 389.107 152.52C393.507 153.061 397.767 153.375 401.697 153.375C418.316 153.375 439.623 149.251 459.785 135.338C462.92 133.175 465.544 130.353 467.473 127.069C469.402 123.785 470.591 120.119 470.955 116.328C471.196 113.81 471.287 111.469 471.318 109.26C471.5 96.7975 466.178 83.2728 460.623 74.9727C458.668 72.0519 456.143 69.5555 453.201 67.6328C450.259 65.7102 446.959 64.401 443.498 63.7834C440.038 63.1658 436.489 63.2525 433.063 64.0385C429.637 64.8244 426.405 66.2934 423.56 68.3575C417.357 72.8591 405.477 75.6602 401.697 75.6602C397.059 75.6602 381.44 70.8776 376.287 65.1954C376.286 65.1954 376.286 65.1954 376.285 65.1954C370.555 58.8775 361.739 53.8906 351.301 53.8906ZM290 423.303C296.617 423.303 300.732 427.418 300.732 434.035C300.732 440.652 296.617 444.768 290 444.768C283.383 444.768 279.268 440.652 279.268 434.035C279.268 427.418 283.383 423.303 290 423.303Z" fill="#ACD8F3"/>
<path d="M290 483.534C317.337 483.534 339.498 461.373 339.498 434.036C339.498 406.698 317.337 384.537 290 384.537C262.663 384.537 240.501 406.698 240.501 434.036C240.501 461.373 262.663 483.534 290 483.534Z" fill="#FEFEFE" stroke="#B01D1D" stroke-width="25.2735"/>
<path d="M303.865 385.557L353.54 161.728" stroke="#B01D1D" stroke-width="25.2735"/>
<path d="M250.172 80.0336C248.25 80.1202 246.353 81.0866 244.841 82.75C232.533 96.329 212.451 101.789 200.111 101.789C192.142 101.789 180.927 99.5087 170.667 94.2406C167.189 100.29 165.793 104.75 166.36 112.366C166.36 112.374 166.36 112.382 166.36 112.39C166.559 115.093 166.929 117.585 167.419 119.914C179.102 125.404 190.866 127.246 200.111 127.246C214.14 127.246 233.933 122.968 250.49 108.207C267.055 122.981 286.868 127.246 300.904 127.246C314.933 127.246 334.726 122.968 351.283 108.207C367.848 122.981 387.661 127.246 401.697 127.246C413.753 127.246 430.081 124.088 444.944 113.832C445.096 112.255 445.167 110.611 445.191 108.88C445.312 100.709 443.364 96.1638 438.907 89.5049C426.96 98.1748 411.742 101.789 401.697 101.789C389.357 101.789 369.25 96.3327 356.931 82.75C355.341 80.9971 353.324 80.0186 351.3 80.0186C349.277 80.0186 347.259 80.9971 345.669 82.75C333.361 96.329 313.244 101.789 300.904 101.789C288.564 101.789 268.422 96.3327 256.103 82.75C254.434 80.9133 252.294 79.9333 250.172 80.0336V80.0336Z" fill="#B01D1D"/>
</svg>
