<?xml version="1.0" encoding="UTF-8"?>
<svg xmlns="http://www.w3.org/2000/svg" xmlns:xlink="http://www.w3.org/1999/xlink" width="32" height="32" viewBox="0 0 32 32">
<path fill-rule="nonzero" fill="rgb(100%, 100%, 100%)" fill-opacity="1" d="M 0 10.667969 L 0 5.332031 L 2.667969 5.332031 L 2.667969 8 L 4 8 L 4 5.332031 L 6.667969 5.332031 L 6.667969 8 L 8 8 L 8 5.332031 L 10.667969 5.332031 L 10.667969 10.667969 L 8 10.667969 L 8 16 L 10.667969 16 L 10.667969 13.332031 L 13.332031 13.332031 L 13.332031 16 L 14.667969 16 L 14.667969 13.332031 L 17.332031 13.332031 L 17.332031 16 L 18.667969 16 L 18.667969 13.332031 L 21.332031 13.332031 L 21.332031 16 L 24 16 L 24 10.667969 L 21.332031 10.667969 L 21.332031 5.332031 L 24 5.332031 L 24 8 L 25.332031 8 L 25.332031 5.332031 L 28 5.332031 L 28 8 L 29.332031 8 L 29.332031 5.332031 L 32 5.332031 L 32 10.667969 L 29.332031 10.667969 L 29.332031 24 L 32 24 L 32 26.667969 L 18.667969 26.667969 L 18.667969 21.332031 L 13.332031 21.332031 L 13.332031 26.667969 L 0 26.667969 L 0 24 L 2.667969 24 L 2.667969 10.667969 Z M 0 10.667969 "/>
</svg>
