<?xml version="1.0" encoding="UTF-8" standalone="no"?>
<svg
   width="32"
   height="32"
   viewBox="0 0 16 16"
   fill="none"
   version="1.1"
   id="svg3624"
   sodipodi:docname="subway_kazan.svg"
   inkscape:version="1.2.2 (1:1.2.2+202305151914+b0a8486541)"
   xmlns:inkscape="http://www.inkscape.org/namespaces/inkscape"
   xmlns:sodipodi="http://sodipodi.sourceforge.net/DTD/sodipodi-0.dtd"
   xmlns="http://www.w3.org/2000/svg"
   xmlns:svg="http://www.w3.org/2000/svg">
  <defs
     id="defs3628" />
  <sodipodi:namedview
     id="namedview3626"
     pagecolor="#ffffff"
     bordercolor="#666666"
     borderopacity="1.0"
     inkscape:showpageshadow="2"
     inkscape:pageopacity="0.0"
     inkscape:pagecheckerboard="0"
     inkscape:deskcolor="#d1d1d1"
     showgrid="false"
     inkscape:zoom="27.03125"
     inkscape:cx="2.8485549"
     inkscape:cy="7.2878613"
     inkscape:window-width="1920"
     inkscape:window-height="1014"
     inkscape:window-x="1920"
     inkscape:window-y="0"
     inkscape:window-maximized="1"
     inkscape:current-layer="svg3624" />
  <path
     id="path1265-3"
     style="clip-rule:evenodd;fill:#fefefe;fill-opacity:1;fill-rule:evenodd;stroke-width:0.0874309;image-rendering:optimizeQuality;shape-rendering:geometricPrecision;text-rendering:geometricPrecision"
     class="fil0"
     sodipodi:type="inkscape:offset"
     inkscape:radius="0.81941158"
     inkscape:original="M 8 4.3398438 C 7.6235838 4.6192282 7.2010031 4.9762589 6.8691406 5.2832031 C 7.3014688 5.5385057 7.6894457 5.835686 8 6.1972656 C 8.3105543 5.83573 8.6985311 5.5385057 9.1308594 5.2832031 C 8.7989969 4.9762589 8.4210578 4.653656 8 4.3398438 z M 4.7792969 5.2128906 L 4.7792969 6.8144531 C 5.5858399 7.1803912 6.4608303 7.5594236 6.9472656 8.3417969 C 7.2460212 8.8222887 7.296875 9.2996175 7.296875 9.7871094 L 7.296875 11.630859 L 8.703125 11.630859 L 8.703125 9.7871094 C 8.703125 9.2996175 8.753935 8.8222888 9.0527344 8.3417969 C 9.5392138 7.5594236 10.414205 7.1803912 11.220703 6.8144531 L 11.220703 5.2128906 C 10.036556 5.7501311 8.7553417 6.3041973 8 7.4101562 C 7.2446583 6.3041973 5.9634888 5.7501311 4.7792969 5.2128906 z M 4.7792969 7.8183594 L 4.7792969 11.630859 L 6.4042969 11.630859 L 6.4042969 9.7382812 C 6.4042969 9.4234126 6.3726499 9.1150217 6.1796875 8.8046875 C 5.9933285 8.5050074 5.6615399 8.2172727 5.0664062 7.9472656 L 4.7792969 7.8183594 z M 11.220703 7.8183594 L 10.933594 7.9472656 C 10.33846 8.2172727 10.006672 8.5050074 9.8203125 8.8046875 C 9.6273501 9.1150217 9.5957031 9.4234125 9.5957031 9.7382812 L 9.5957031 11.660156 L 11.220703 11.660156 L 11.220703 7.8183594 z "
     d="m 7.5117188,3.6816406 c -0.4090134,0.3035787 -0.8453297,0.6726831 -1.1992188,1 A 0.81949352,0.81949352 0 0 0 6.1933594,5.0019531 C 5.8285428,4.822452 5.4546454,4.6198937 5.1171875,4.4667969 A 0.81949352,0.81949352 0 0 0 3.9589844,5.2128906 v 1.6015625 a 0.81949352,0.81949352 0 0 0 0.296875,0.4589844 0.81949352,0.81949352 0 0 0 -0.296875,0.5449219 v 3.8124996 a 0.81949352,0.81949352 0 0 0 0.8203125,0.820313 h 1.625 a 0.81949352,0.81949352 0 0 0 0.4472656,-0.447266 0.81949352,0.81949352 0 0 0 0.4453125,0.447266 h 1.40625 a 0.81949352,0.81949352 0 0 0 0.4316406,-0.431641 0.81949352,0.81949352 0 0 0 0.4609375,0.460938 h 1.6249999 a 0.81949352,0.81949352 0 0 0 0.820313,-0.820313 V 7.8183594 A 0.81949352,0.81949352 0 0 0 11.744141,7.2734375 0.81949352,0.81949352 0 0 0 12.041016,6.8144531 V 5.2128906 A 0.81949352,0.81949352 0 0 0 10.882812,4.4667969 C 10.560577,4.6129933 10.203458,4.8089297 9.8554688,4.9785156 A 0.81949352,0.81949352 0 0 0 9.6875,4.6816406 C 9.3380799,4.3584572 8.938663,4.0178053 8.4902344,3.6835938 a 0.81949352,0.81949352 0 0 0 -0.9785156,-0.00195 z" />
  <path
     class="fil0"
     d="M 8.7034804,11.630676 V 9.7879987 c 0,-0.4874919 0.050321,-0.9654303 0.3491204,-1.4459222 C 9.5390802,7.5597032 10.414523,7.1806896 11.221021,6.8147515 V 5.2120112 C 10.036874,5.7492517 8.7553421,6.3051589 8.0000004,7.4111179 7.2446587,6.3051589 5.9631709,5.7492517 4.778979,5.2120112 V 6.8147515 C 5.585522,7.1806896 6.4609647,7.5597032 6.9474,8.3420765 7.2461556,8.8225683 7.2965205,9.3005068 7.2965205,9.7879987 V 11.630676 H 8.7034363 Z M 8.0000444,4.3400465 C 8.4211022,4.6538587 8.7988832,4.9766081 9.1307457,5.2835523 8.6984174,5.5388549 8.3105987,5.8362456 8.0000444,6.1977812 7.6894901,5.8362016 7.3016714,5.5388549 6.8693432,5.2835523 7.2012057,4.9766081 7.6236723,4.619431 8.0000885,4.3400465 Z m 1.5950799,5.3977194 c 0,-0.3148688 0.032491,-0.623486 0.2254534,-0.9338202 C 10.006937,8.5042656 10.339328,8.217573 10.934462,7.9475659 L 11.221021,7.8175593 V 11.659953 H 9.5951243 V 9.7378099 Z m -3.1902478,0 c 0,-0.3148688 -0.032491,-0.623486 -0.2254534,-0.9338202 C 5.9930641,8.5042656 5.6606732,8.217573 5.0655395,7.9475659 L 4.778979,7.8175593 v 3.8131167 h 1.6258975 z"
     id="path1265"
     style="clip-rule:evenodd;fill:#339966;fill-rule:evenodd;stroke-width:0.0874309;image-rendering:optimizeQuality;shape-rendering:geometricPrecision;text-rendering:geometricPrecision" />
</svg>
