<svg width="32" height="32" viewBox="0 0 16 16" fill="none" xmlns="http://www.w3.org/2000/svg">
<path d="M7.99306 3.191C7.87196 3.19278 7.75227 3.24339 7.66662 3.32902L6.60426 4.39141C6.5594 4.43627 6.49856 4.46146 6.43512 4.46146H4.93274H4.9327C4.68588 4.46151 4.46133 4.68608 4.4613 4.9329V6.43529C4.4613 6.49872 4.4361 6.55956 4.39125 6.60442L3.32883 7.66681C3.15431 7.84138 3.1543 8.15899 3.32883 8.33354L4.39125 9.3959C4.4361 9.44076 4.4613 9.5016 4.4613 9.56504V11.0675C4.46135 11.3143 4.68589 11.5388 4.9327 11.5389H6.43512C6.49856 11.5389 6.5594 11.5641 6.60426 11.6089L7.66662 12.6713C7.84118 12.8459 8.15879 12.8458 8.33335 12.6713L9.39571 11.6089C9.44057 11.5641 9.50141 11.5389 9.56484 11.5389H11.0672C11.3141 11.5388 11.5386 11.3143 11.5387 11.0674V9.56504C11.5387 9.5016 11.5639 9.44076 11.6087 9.3959L12.6711 8.33351C12.8456 8.15896 12.8456 7.84137 12.6711 7.66681L11.6087 6.60442C11.5639 6.55956 11.5387 6.49872 11.5387 6.43529V4.9329C11.5386 4.68608 11.3141 4.46151 11.0673 4.46146H9.56484C9.50141 4.46146 9.44057 4.43627 9.39571 4.39141L8.33335 3.32902C8.24443 3.24013 8.11877 3.18915 7.99306 3.191L7.99306 3.191Z" fill="#FEFEFE"/>
<path d="M9.2705 11.0674H11.0673V9.27067L12.3378 8.00014L11.0673 6.72962V4.93284H9.27049L7.99998 3.66232L6.72946 4.93284H4.9327V6.72962L3.66217 8.00013L4.9327 9.27066V11.0674H6.72948L7.99999 12.338L9.2705 11.0674Z" fill="#BCBCBC"/>
<path d="M9.08966 10.6308H10.6306V9.08979L11.7202 8.00015L10.6306 6.91052V5.36956H9.08965L8.00002 4.27991L6.91038 5.36956H5.36942V6.91052L4.27979 8.00014L5.36942 9.08979V10.6308H6.9104L8.00002 11.7204L9.08966 10.6308Z" fill="#474747"/>
<path d="M6.93263 7.17828L7.99977 8.24558L9.06742 7.17828H10.5769L10.5769 10.5771H9.06742V9.33292L7.99977 10.4412L6.93263 9.33962V10.5771H5.42311L5.4231 7.17828H6.93263Z" fill="#C01414"/>
<path d="M5.53223 5.54013V6.48158H6.38257V6.77262H5.53223V7.07378H6.68626V5.54013H5.53223V5.54013ZM6.37751 6.17538H5.83086V5.84132H6.37751V6.17538Z" fill="#BCBCBC"/>
<path d="M9.33175 5.54013V6.77008H8.83066V5.54013H8.52697V6.17757L7.44886 6.17788V5.54013H7.14517V6.77008H6.75037V7.07378H7.44127V6.48917H8.51937V7.07378H10.4858V5.54013H9.33175ZM10.1821 6.76755H9.63544V5.84129H10.1821V6.76755Z" fill="#BCBCBC"/>
<path d="M7.87405 5.15863H7.55518V5.47751H7.87405V5.15863Z" fill="#BCBCBC"/>
<path d="M8.46243 5.15863H8.14355V5.47751H8.46243V5.15863Z" fill="#BCBCBC"/>
</svg>
