<?xml version="1.0" encoding="UTF-8"?>
<svg xmlns="http://www.w3.org/2000/svg" xmlns:xlink="http://www.w3.org/1999/xlink" width="32" height="32" viewBox="0 0 32 32">
<path fill-rule="nonzero" fill="rgb(24.705882%, 24.705882%, 24.705882%)" fill-opacity="1" d="M 8.359375 23.992188 C 8.359375 23.738281 8.398438 23.496094 8.46875 23.265625 C 8.234375 23.617188 8.097656 24.039062 8.097656 24.492188 C 8.097656 25.714844 9.089844 26.707031 10.3125 26.707031 C 10.765625 26.707031 11.1875 26.570312 11.539062 26.335938 C 11.3125 26.40625 11.066406 26.445312 10.816406 26.445312 C 9.460938 26.445312 8.359375 25.34375 8.359375 23.992188 Z M 8.359375 23.992188 "/>
<path fill-rule="nonzero" fill="rgb(24.705882%, 24.705882%, 24.705882%)" fill-opacity="1" d="M 16 2.203125 C 9.578125 2.203125 4.375 5.03125 4.375 6.792969 L 4.375 6.875 C 4.671875 7.265625 5.304688 7.574219 5.546875 7.632812 C 5.785156 7.691406 5.542969 7.632812 5.546875 7.632812 C 8.007812 8.605469 13.804688 8.695312 16.023438 8.707031 C 20.460938 8.707031 24.507812 8.289062 26.445312 7.636719 C 26.449219 7.636719 26.453125 7.636719 26.457031 7.640625 C 27.339844 7.171875 27.855469 7.046875 27.390625 6.089844 C 26.304688 4.367188 21.617188 2.203125 16 2.203125 Z M 4.375 8.390625 L 4.375 27.679688 C 4.386719 27.765625 4.394531 27.835938 4.394531 27.882812 L 4.394531 27.964844 C 4.691406 28.359375 5.328125 28.664062 5.566406 28.722656 C 5.808594 28.78125 5.5625 28.722656 5.566406 28.722656 C 8.007812 29.6875 13.710938 29.78125 15.972656 29.796875 L 16.167969 29.796875 C 16.667969 29.796875 17.167969 29.792969 17.65625 29.78125 L 17.65625 11.71875 L 19.199219 11.609375 L 19.199219 13.769531 L 23.621094 13.21875 L 23.621094 11.277344 L 25.164062 11.058594 L 25.164062 29.070312 C 25.664062 28.964844 26.105469 28.847656 26.46875 28.726562 C 26.472656 28.726562 26.476562 28.730469 26.480469 28.730469 C 26.886719 28.515625 27.324219 28.300781 27.625 28.039062 L 27.625 8.472656 L 27.59375 8.480469 C 27.535156 9.523438 22.363281 10.367188 15.988281 10.367188 C 9.582031 10.367188 4.386719 9.511719 4.386719 8.460938 C 4.386719 8.441406 4.386719 8.417969 4.394531 8.394531 Z M 19.199219 15.3125 L 19.199219 17.917969 L 23.621094 17.367188 L 23.621094 14.761719 Z M 19.199219 19.460938 L 19.199219 22.066406 L 23.621094 21.515625 L 23.621094 18.910156 Z M 19.199219 23.609375 L 19.199219 26.214844 L 23.621094 25.664062 L 23.621094 23.058594 Z M 19.199219 27.757812 L 19.199219 29.726562 C 20.835938 29.648438 22.34375 29.515625 23.621094 29.335938 L 23.621094 27.207031 Z M 19.199219 27.757812 "/>
</svg>
