<?xml version="1.0" encoding="UTF-8"?>
<svg xmlns="http://www.w3.org/2000/svg" xmlns:xlink="http://www.w3.org/1999/xlink" width="32" height="32" viewBox="0 0 32 32">
<path fill-rule="nonzero" fill="rgb(100%, 96.078431%, 94.509804%)" fill-opacity="1" d="M 9.25 12.035156 C 9.25 8.660156 12.289062 5.175781 16 5.175781 C 19.710938 5.175781 22.75 8.660156 22.75 12.035156 Z M 9.25 12.035156 "/>
<path fill-rule="nonzero" fill="rgb(100%, 96.078431%, 94.509804%)" fill-opacity="1" d="M 14.3125 4.722656 C 14.3125 3.9375 15.101562 3.035156 16 3.035156 C 16.898438 3.035156 17.6875 3.9375 17.6875 4.722656 Z M 14.3125 4.722656 "/>
<path fill-rule="nonzero" fill="rgb(100%, 96.078431%, 94.509804%)" fill-opacity="1" d="M 16.335938 7.761719 L 15.664062 7.761719 C 15.210938 7.761719 14.875 7.535156 14.875 7.085938 L 14.875 4.160156 L 17.125 4.160156 L 17.125 7.085938 C 17.125 7.535156 16.789062 7.761719 16.335938 7.761719 Z M 16.335938 7.761719 "/>
<path fill="none" stroke-width="41.212002" stroke-linecap="butt" stroke-linejoin="miter" stroke="rgb(100%, 96.078431%, 94.509804%)" stroke-opacity="1" stroke-miterlimit="4" d="M 126.875 258.918457 L 453.125 258.918457 " transform="matrix(0.0551724, 0, 0, 0.0551724, 0, 0)"/>
<path fill="none" stroke-width="41.212002" stroke-linecap="butt" stroke-linejoin="miter" stroke="rgb(100%, 96.078431%, 94.509804%)" stroke-opacity="1" stroke-miterlimit="4" d="M 147.265625 197.746582 L 432.734375 197.746582 " transform="matrix(0.0551724, 0, 0, 0.0551724, 0, 0)"/>
<path fill="none" stroke-width="41.212002" stroke-linecap="butt" stroke-linejoin="miter" stroke="rgb(100%, 96.078431%, 94.509804%)" stroke-opacity="1" stroke-miterlimit="4" d="M 167.65625 258.918457 L 167.65625 340.480957 " transform="matrix(0.0551724, 0, 0, 0.0551724, 0, 0)"/>
<path fill="none" stroke-width="41.212002" stroke-linecap="butt" stroke-linejoin="miter" stroke="rgb(100%, 96.078431%, 94.509804%)" stroke-opacity="1" stroke-miterlimit="4" d="M 249.21875 258.918457 L 249.21875 340.480957 " transform="matrix(0.0551724, 0, 0, 0.0551724, 0, 0)"/>
<path fill="none" stroke-width="41.212002" stroke-linecap="butt" stroke-linejoin="miter" stroke="rgb(100%, 96.078431%, 94.509804%)" stroke-opacity="1" stroke-miterlimit="4" d="M 330.78125 258.918457 L 330.78125 340.480957 " transform="matrix(0.0551724, 0, 0, 0.0551724, 0, 0)"/>
<path fill="none" stroke-width="41.212002" stroke-linecap="butt" stroke-linejoin="miter" stroke="rgb(100%, 96.078431%, 94.509804%)" stroke-opacity="1" stroke-miterlimit="4" d="M 412.34375 258.918457 L 412.34375 340.480957 " transform="matrix(0.0551724, 0, 0, 0.0551724, 0, 0)"/>
<path fill="none" stroke-width="44.852798" stroke-linecap="butt" stroke-linejoin="miter" stroke="rgb(100%, 96.078431%, 94.509804%)" stroke-opacity="1" stroke-miterlimit="4" d="M 76.394043 385.581055 L 503.605957 385.581055 " transform="matrix(0.0551724, 0, 0, 0.0551724, 0, 0)"/>
<path fill="none" stroke-width="41.212002" stroke-linecap="butt" stroke-linejoin="miter" stroke="rgb(100%, 96.078431%, 94.509804%)" stroke-opacity="1" stroke-miterlimit="4" d="M 126.875 401.652832 L 453.125 401.652832 " transform="matrix(0.0551724, 0, 0, 0.0551724, 0, 0)"/>
<path fill="none" stroke-width="41.212002" stroke-linecap="butt" stroke-linejoin="miter" stroke="rgb(100%, 96.078431%, 94.509804%)" stroke-opacity="1" stroke-miterlimit="4" d="M 106.484375 503.535156 L 473.515625 503.535156 " transform="matrix(0.0551724, 0, 0, 0.0551724, 0, 0)"/>
<path fill="none" stroke-width="41.212002" stroke-linecap="butt" stroke-linejoin="miter" stroke="rgb(100%, 96.078431%, 94.509804%)" stroke-opacity="1" stroke-miterlimit="4" d="M 126.875 381.262207 L 126.875 523.925781 " transform="matrix(0.0551724, 0, 0, 0.0551724, 0, 0)"/>
<path fill="none" stroke-width="41.212002" stroke-linecap="butt" stroke-linejoin="miter" stroke="rgb(100%, 96.078431%, 94.509804%)" stroke-opacity="1" stroke-miterlimit="4" d="M 208.4375 381.262207 L 208.4375 523.925781 " transform="matrix(0.0551724, 0, 0, 0.0551724, 0, 0)"/>
<path fill="none" stroke-width="41.212002" stroke-linecap="butt" stroke-linejoin="miter" stroke="rgb(100%, 96.078431%, 94.509804%)" stroke-opacity="1" stroke-miterlimit="4" d="M 290 381.262207 L 290 523.925781 " transform="matrix(0.0551724, 0, 0, 0.0551724, 0, 0)"/>
<path fill="none" stroke-width="41.212002" stroke-linecap="butt" stroke-linejoin="miter" stroke="rgb(100%, 96.078431%, 94.509804%)" stroke-opacity="1" stroke-miterlimit="4" d="M 371.5625 381.262207 L 371.5625 523.925781 " transform="matrix(0.0551724, 0, 0, 0.0551724, 0, 0)"/>
<path fill="none" stroke-width="41.212002" stroke-linecap="butt" stroke-linejoin="miter" stroke="rgb(100%, 96.078431%, 94.509804%)" stroke-opacity="1" stroke-miterlimit="4" d="M 453.125 381.262207 L 453.125 523.925781 " transform="matrix(0.0551724, 0, 0, 0.0551724, 0, 0)"/>
<path fill-rule="nonzero" fill="rgb(100%, 96.078431%, 94.509804%)" fill-opacity="1" d="M 16 3.375 C 16.25 3.375 16.449219 3.171875 16.449219 2.925781 C 16.449219 2.675781 16.25 2.472656 16 2.472656 C 15.75 2.472656 15.550781 2.675781 15.550781 2.925781 C 15.550781 3.171875 15.75 3.375 16 3.375 Z M 16 3.375 "/>
<path fill-rule="nonzero" fill="rgb(100%, 96.078431%, 94.509804%)" fill-opacity="1" d="M 16 2.8125 C 16.25 2.8125 16.449219 2.609375 16.449219 2.363281 C 16.449219 2.113281 16.25 1.910156 16 1.910156 C 15.75 1.910156 15.550781 2.113281 15.550781 2.363281 C 15.550781 2.609375 15.75 2.8125 16 2.8125 Z M 16 2.8125 "/>
</svg>
