<svg width="32" height="32" viewBox="0 0 16 16" fill="none" xmlns="http://www.w3.org/2000/svg">
<path d="M8 12.6562C10.5716 12.6562 12.6562 10.5716 12.6562 8C12.6562 5.42842 10.5716 3.34375 8 3.34375C5.42842 3.34375 3.34375 5.42842 3.34375 8C3.34375 10.5716 5.42842 12.6562 8 12.6562Z" fill="#FEFEFE"/>
<path d="M5.3961 5.01508C6.0581 4.4354 6.91434 4.07803 7.79524 4.03896C8.45003 4.00519 9.11848 4.1338 9.70802 4.42402C10.779 4.94034 11.5889 5.95668 11.8659 7.1111C11.9072 7.21543 11.8075 7.31672 11.7039 7.30686C11.3864 7.31065 11.0681 7.31103 10.7505 7.30534C10.6534 7.30686 10.6189 7.20291 10.5931 7.12817C10.359 6.41458 9.81045 5.81403 9.12721 5.50523C8.16133 5.05871 6.94279 5.24687 6.16546 5.9764C5.71932 6.37967 5.41582 6.93621 5.30732 7.52689C5.27735 7.61453 5.34261 7.72758 5.4401 7.72644C5.55316 7.73403 5.66811 7.73896 5.7804 7.71999C5.876 7.65019 5.94505 7.55155 6.0232 7.46392C6.31721 7.12514 6.60591 6.78143 6.90182 6.44417C6.95303 6.37664 7.05736 6.34136 7.12185 6.41306C7.38286 6.69835 7.62452 7.00146 7.88249 7.28978C7.93522 7.35959 8.04524 7.38425 8.1048 7.30837C8.37491 7.01929 8.61278 6.701 8.88403 6.41344C8.95839 6.33187 9.0684 6.38954 9.12265 6.46276C9.44777 6.84554 9.77821 7.22377 10.1037 7.60656C10.1564 7.66308 10.2099 7.74161 10.2991 7.72834C10.7919 7.73289 11.2854 7.72758 11.7786 7.72985C11.8636 7.72151 11.966 7.77121 11.9581 7.87022C11.9888 8.5952 11.8215 9.33876 11.4364 9.9579C11.0567 10.6256 10.4804 11.1798 9.79831 11.533C9.2505 11.8236 8.62985 11.9667 8.0111 11.9659H7.99137C6.55659 11.9875 5.17189 11.1309 4.50458 9.86874C4.45222 9.75304 4.3479 9.62481 4.40784 9.49279C4.47878 9.41653 4.58918 9.43702 4.68212 9.43323C4.98638 9.43816 5.29101 9.42943 5.59489 9.43664C5.70566 9.43361 5.74512 9.55766 5.80468 9.62898C6.15484 10.1002 6.65864 10.4609 7.2239 10.6252C7.76261 10.7864 8.35063 10.7747 8.88289 10.5937C9.55552 10.3691 10.1257 9.86495 10.4451 9.23368C10.5081 9.14415 10.4413 9.01251 10.3355 9.00226C10.1587 8.98595 9.98041 9.00454 9.80287 8.99657C9.75696 8.99316 9.70271 8.99619 9.67009 8.95674C9.54186 8.82927 9.43146 8.68511 9.3112 8.55005C9.20422 8.43207 9.11962 8.28525 8.96939 8.21659C8.81157 8.32091 8.70724 8.48177 8.58319 8.62024C8.42272 8.80271 8.27211 8.99354 8.10708 9.17146C8.05473 9.23482 7.94964 9.2333 7.89843 9.16956C7.60821 8.86038 7.36162 8.50984 7.05243 8.21886C6.9022 8.2587 6.82519 8.40248 6.72655 8.50946C6.59567 8.65704 6.47541 8.81485 6.33845 8.95712C6.29521 9.00682 6.22237 8.99126 6.1647 8.99733C5.56909 8.99695 4.9731 8.99885 4.37711 8.99923C4.31603 8.99695 4.25267 8.99885 4.19501 8.97571C4.14228 8.92373 4.13128 8.8471 4.11534 8.77805C4.07627 8.57168 4.05199 8.36264 4.03833 8.15323V7.88084C4.07134 6.79243 4.57097 5.72754 5.3961 5.01508Z" fill="#FE0000"/>
</svg>
