<svg width="12" height="12" viewBox="0 0 48 48" fill="none" xmlns="http://www.w3.org/2000/svg">
<path d="M21.9996 12C24.2088 12 25.9996 10.2091 25.9996 8C25.9996 5.79086 24.2088 4 21.9996 4C19.7905 4 17.9996 5.79086 17.9996 8C17.9996 10.2091 19.7905 12 21.9996 12Z" fill="#ffffff"/>
<path fill-rule="evenodd" clip-rule="evenodd" d="M24.3985 15.5701C20.9999 12.1717 17.9257 14.6428 17.5899 18.0005L17.0173 23.7263L14.5953 40H8C6.89543 40 6 40.8954 6 42C6 43.1046 6.89543 44 8 44H36.8284L41.4142 39.4142C42.1953 38.6332 42.1953 37.3668 41.4142 36.5858C40.6332 35.8047 39.3668 35.8047 38.5858 36.5858L35.1716 40H34.3312L37.9767 16.3041L34.0233 15.6959L33.6688 18.0001H27.6569C27.1264 18.0001 26.6177 17.7894 26.2426 17.4143L24.3985 15.5701ZM30.2842 40L33.0534 22.0001H27.6569C26.4301 22.0001 25.2422 21.6244 24.2467 20.9368C24.1126 22.8349 23.8736 24.5059 23.4698 26.0712L26.5155 29.552C27.4725 30.6457 28 32.0497 28 33.503V40H30.2842ZM24 40V33.503C24 33.0186 23.8242 32.5506 23.5052 32.186L21.5924 30H20.0215L18.5776 40H24Z" fill="#ffffff"/>
<path d="M17 14L15 28H11L10 27V22L13 14H17Z" fill="#ffffff"/>
</svg>
