<?xml version="1.0" encoding="UTF-8"?>
<svg xmlns="http://www.w3.org/2000/svg" xmlns:xlink="http://www.w3.org/1999/xlink" width="32" height="32" viewBox="0 0 32 32">
<defs>
<filter id="filter-remove-color" x="0%" y="0%" width="100%" height="100%">
<feColorMatrix color-interpolation-filters="sRGB" values="0 0 0 0 1 0 0 0 0 1 0 0 0 0 1 0 0 0 1 0" />
</filter>
<mask id="mask-0">
<g filter="url(#filter-remove-color)">
<rect x="-3.2" y="-3.2" width="38.4" height="38.4" fill="rgb(0%, 0%, 0%)" fill-opacity="0.5"/>
</g>
</mask>
<clipPath id="clip-0">
<rect x="0" y="0" width="32" height="32"/>
</clipPath>
<g id="source-10" clip-path="url(#clip-0)">
<path fill="none" stroke-width="8.69139" stroke-linecap="butt" stroke-linejoin="miter" stroke="rgb(100%, 100%, 100%)" stroke-opacity="1" stroke-miterlimit="4" d="M 139.902344 149.389648 L 139.902344 20.88623 " transform="matrix(0.0551724, 0, 0, 0.0551724, 0, 0)"/>
</g>
<mask id="mask-1">
<g filter="url(#filter-remove-color)">
<rect x="-3.2" y="-3.2" width="38.4" height="38.4" fill="rgb(0%, 0%, 0%)" fill-opacity="0.5"/>
</g>
</mask>
<clipPath id="clip-1">
<rect x="0" y="0" width="32" height="32"/>
</clipPath>
<g id="source-14" clip-path="url(#clip-1)">
<path fill="none" stroke-width="8.69139" stroke-linecap="butt" stroke-linejoin="miter" stroke="rgb(100%, 100%, 100%)" stroke-opacity="1" stroke-miterlimit="4" d="M 465.79834 149.389648 L 465.79834 20.88623 " transform="matrix(0.0551724, 0, 0, 0.0551724, 0, 0)"/>
</g>
</defs>
<path fill-rule="nonzero" fill="rgb(100%, 100%, 100%)" fill-opacity="1" d="M 14.9375 14.128906 C 14.9375 14.640625 15.117188 15.078125 15.476562 15.433594 C 15.832031 15.792969 16.269531 15.972656 16.78125 15.972656 C 17.277344 15.972656 17.710938 15.792969 18.078125 15.433594 C 18.445312 15.078125 18.628906 14.640625 18.628906 14.128906 C 18.628906 13.613281 18.445312 13.175781 18.078125 12.820312 C 17.710938 12.460938 17.277344 12.28125 16.78125 12.28125 C 16.269531 12.28125 15.832031 12.460938 15.476562 12.820312 C 15.117188 13.175781 14.9375 13.613281 14.9375 14.128906 Z M 19.066406 23.816406 L 19.066406 17.210938 C 19.011719 16.660156 18.71875 16.382812 18.1875 16.382812 L 14.691406 16.382812 L 12.054688 15.640625 L 10.039062 12.089844 C 9.816406 11.851562 9.5625 11.734375 9.269531 11.734375 C 8.644531 11.734375 8.332031 12.054688 8.332031 12.699219 C 8.332031 12.9375 8.414062 13.15625 8.578125 13.359375 L 10.71875 17.191406 C 10.941406 17.410156 10.789062 17.355469 11.144531 17.648438 L 14.386719 18.566406 L 14.386719 23.679688 L 8.929688 28.863281 C 8.875 28.992188 8.847656 29.117188 8.847656 29.246094 C 8.847656 29.613281 8.984375 29.929688 9.261719 30.195312 C 9.535156 30.464844 9.859375 30.597656 10.226562 30.597656 C 10.886719 30.597656 10.882812 30.53125 11.332031 30.292969 L 16.699219 25.523438 L 21.203125 30.253906 C 21.800781 30.886719 22.023438 31.011719 22.683594 31.011719 C 23.050781 31.011719 23.371094 30.878906 23.648438 30.613281 C 23.921875 30.347656 24.058594 30.03125 24.058594 29.664062 C 24.058594 29.535156 24.042969 29.40625 24.003906 29.28125 Z M 19.066406 23.816406 "/>
<path fill-rule="nonzero" fill="rgb(100%, 100%, 100%)" fill-opacity="1" d="M 18.304688 16.394531 L 21.363281 15.640625 L 23.378906 12.089844 C 23.597656 11.851562 23.855469 11.734375 24.148438 11.734375 C 24.773438 11.734375 25.085938 12.054688 25.085938 12.699219 C 25.085938 12.9375 25.003906 13.15625 24.835938 13.359375 L 22.699219 17.191406 C 22.476562 17.410156 22.628906 17.355469 22.273438 17.648438 L 19.027344 18.566406 Z M 18.304688 16.394531 "/>
<path fill-rule="nonzero" fill="rgb(100%, 100%, 100%)" fill-opacity="1" stroke-width="5.43212" stroke-linecap="butt" stroke-linejoin="miter" stroke="rgb(100%, 100%, 100%)" stroke-opacity="1" stroke-miterlimit="4" d="M 141.530762 151.30127 L 137.424316 151.30127 C 134.946289 151.30127 132.963867 153.283691 132.963867 155.690918 L 132.963867 230.598145 C 132.963867 233.005371 134.946289 234.987793 137.424316 234.987793 L 141.530762 234.987793 C 144.008789 234.987793 145.991211 233.005371 145.991211 230.598145 L 145.991211 155.690918 C 145.991211 153.283691 144.008789 151.30127 141.530762 151.30127 Z M 141.530762 151.30127 " transform="matrix(0.0551724, 0, 0, 0.0551724, 0, 0)"/>
<path fill-rule="nonzero" fill="rgb(100%, 100%, 100%)" fill-opacity="1" stroke-width="5.43212" stroke-linecap="butt" stroke-linejoin="miter" stroke="rgb(100%, 100%, 100%)" stroke-opacity="1" stroke-miterlimit="4" d="M 467.497559 151.30127 L 463.320312 151.30127 C 460.913086 151.30127 458.930664 153.283691 458.930664 155.690918 L 458.930664 230.598145 C 458.930664 233.005371 460.913086 234.987793 463.320312 234.987793 L 467.497559 234.987793 C 469.904785 234.987793 471.887207 233.005371 471.887207 230.598145 L 471.887207 155.690918 C 471.887207 153.283691 469.904785 151.30127 467.497559 151.30127 Z M 467.497559 151.30127 " transform="matrix(0.0551724, 0, 0, 0.0551724, 0, 0)"/>
<g mask="url(#mask-0)">
<use xlink:href="#source-10"/>
</g>
<g mask="url(#mask-1)">
<use xlink:href="#source-14"/>
</g>
</svg>
