<?xml version="1.0" encoding="UTF-8"?>
<svg xmlns="http://www.w3.org/2000/svg" xmlns:xlink="http://www.w3.org/1999/xlink" width="32" height="32" viewBox="0 0 32 32">
<path fill-rule="nonzero" fill="rgb(100%, 100%, 100%)" fill-opacity="1" d="M 29.53125 7.003906 C 29.53125 7.664062 29.53125 19.328125 29.53125 19.820312 C 29.53125 20.316406 29.15625 20.796875 28.46875 19.820312 C 27.726562 18.761719 25.816406 15.121094 22.539062 15.121094 C 19.070312 15.121094 12.25 15.121094 12.25 15.121094 C 12.25 15.121094 8.875 15.410156 8.875 17.839844 C 8.875 20.242188 10.285156 20.558594 11.046875 20.558594 C 11.8125 20.558594 16.71875 20.558594 17.71875 20.558594 C 21.269531 20.558594 21.011719 16.335938 21.011719 16.335938 C 21.011719 16.335938 23.0625 16.464844 23.0625 17.894531 C 23.0625 19.773438 21.976562 22.730469 17.570312 22.730469 C 14.222656 22.730469 12.136719 22.730469 11.046875 22.730469 C 9.960938 22.730469 6.699219 21.671875 6.699219 17.296875 C 6.699219 13.980469 9.066406 11.882812 11.835938 11.882812 C 12.484375 11.882812 18.773438 11.882812 21.769531 11.882812 C 25.191406 11.882812 28.027344 7.601562 28.472656 7.003906 C 28.917969 6.410156 29.53125 6.347656 29.53125 7.003906 Z M 29.53125 7.003906 "/>
<path fill-rule="nonzero" fill="rgb(100%, 100%, 100%)" fill-opacity="1" d="M 4.15625 11.859375 L 8.222656 11.859375 C 8.222656 11.859375 6.265625 13.109375 6.003906 15.121094 L 4.039062 15.121094 Z M 4.15625 11.859375 "/>
<path fill="none" stroke-width="39.416199" stroke-linecap="round" stroke-linejoin="round" stroke="rgb(100%, 100%, 100%)" stroke-opacity="1" stroke-miterlimit="10" d="M 64.499512 293.752441 L 64.499512 195.197754 " transform="matrix(0.0551724, 0, 0, 0.0551724, 0, 0)"/>
<path fill="none" stroke-width="39.416199" stroke-linecap="round" stroke-linejoin="round" stroke="rgb(100%, 100%, 100%)" stroke-opacity="1" stroke-miterlimit="10" d="M 219.978027 441.584473 L 219.978027 254.387207 " transform="matrix(0.0551724, 0, 0, 0.0551724, 0, 0)"/>
<path fill="none" stroke-width="39.416199" stroke-linecap="round" stroke-linejoin="round" stroke="rgb(100%, 100%, 100%)" stroke-opacity="1" stroke-miterlimit="10" d="M 279.09668 441.584473 L 279.09668 254.387207 " transform="matrix(0.0551724, 0, 0, 0.0551724, 0, 0)"/>
<path fill="none" stroke-width="39.416199" stroke-linecap="round" stroke-linejoin="round" stroke="rgb(100%, 100%, 100%)" stroke-opacity="1" stroke-miterlimit="10" d="M 338.215332 441.584473 L 338.215332 254.387207 " transform="matrix(0.0551724, 0, 0, 0.0551724, 0, 0)"/>
<path fill="none" stroke-width="45.513901" stroke-linecap="butt" stroke-linejoin="round" stroke="rgb(100%, 100%, 100%)" stroke-opacity="1" stroke-miterlimit="10" d="M 219.978027 195.197754 L 219.978027 155.83252 " transform="matrix(0.0551724, 0, 0, 0.0551724, 0, 0)"/>
<path fill="none" stroke-width="45.513901" stroke-linecap="butt" stroke-linejoin="round" stroke="rgb(100%, 100%, 100%)" stroke-opacity="1" stroke-miterlimit="10" d="M 279.09668 195.197754 L 279.09668 155.83252 " transform="matrix(0.0551724, 0, 0, 0.0551724, 0, 0)"/>
<path fill="none" stroke-width="45.513901" stroke-linecap="butt" stroke-linejoin="round" stroke="rgb(100%, 100%, 100%)" stroke-opacity="1" stroke-miterlimit="10" d="M 338.215332 195.197754 L 338.215332 155.83252 " transform="matrix(0.0551724, 0, 0, 0.0551724, 0, 0)"/>
<path fill="none" stroke-width="46.637199" stroke-linecap="round" stroke-linejoin="round" stroke="rgb(100%, 100%, 100%)" stroke-opacity="1" stroke-miterlimit="10" d="M 324.40918 155.83252 L 352.021484 155.83252 " transform="matrix(0.0551724, 0, 0, 0.0551724, 0, 0)"/>
<path fill="none" stroke-width="46.637199" stroke-linecap="round" stroke-linejoin="round" stroke="rgb(100%, 100%, 100%)" stroke-opacity="1" stroke-miterlimit="10" d="M 265.290527 155.83252 L 292.902832 155.83252 " transform="matrix(0.0551724, 0, 0, 0.0551724, 0, 0)"/>
<path fill="none" stroke-width="46.637199" stroke-linecap="round" stroke-linejoin="round" stroke="rgb(100%, 100%, 100%)" stroke-opacity="1" stroke-miterlimit="10" d="M 206.171875 155.83252 L 233.713379 155.83252 " transform="matrix(0.0551724, 0, 0, 0.0551724, 0, 0)"/>
</svg>
