<?xml version="1.0" encoding="UTF-8"?>
<svg xmlns="http://www.w3.org/2000/svg" xmlns:xlink="http://www.w3.org/1999/xlink" width="12" height="12" viewBox="0 0 12 12">
<path fill-rule="evenodd" fill="rgb(100%, 100%, 100%)" fill-opacity="1" d="M 8 4 L 9 4 L 9 7.980469 L 6.3125 9.890625 L 5.6875 9.109375 L 8 7.5 Z M 8 4 "/>
<path fill-rule="nonzero" fill="rgb(100%, 100%, 100%)" fill-opacity="1" d="M 7.5 9.5 C 7.5 10.328125 6.828125 11 6 11 C 5.171875 11 4.5 10.328125 4.5 9.5 C 4.5 8.671875 5.171875 8 6 8 C 6.828125 8 7.5 8.671875 7.5 9.5 Z M 7.5 9.5 "/>
<path fill-rule="nonzero" fill="rgb(100%, 100%, 100%)" fill-opacity="1" d="M 7 1 C 7 1.550781 6.550781 2 6 2 C 5.449219 2 5 1.550781 5 1 C 5 0.449219 5.449219 0 6 0 C 6.550781 0 7 0.449219 7 1 Z M 7 1 "/>
<path fill-rule="nonzero" fill="rgb(100%, 100%, 100%)" fill-opacity="1" d="M 7 4.671875 L 7 6 C 7 6.371094 6.800781 6.691406 6.5 6.867188 L 6.5 9.5 L 5.5 9.5 L 5.5 6.867188 C 5.199219 6.691406 5 6.371094 5 6 L 5 3.5 C 5 2.949219 5.449219 2.5 6 2.5 C 6.316406 2.5 6.597656 2.648438 6.78125 2.875 C 6.886719 2.964844 6.980469 3.066406 7.054688 3.183594 L 7.339844 3.609375 C 7.371094 3.65625 7.410156 3.703125 7.449219 3.742188 C 7.613281 3.90625 7.765625 4 8 4 L 8 5 C 7.617188 5 7.289062 4.882812 7 4.671875 Z M 7 4.671875 "/>
</svg>
