<svg width="32" height="32" viewBox="0 0 580 580" fill="none" xmlns="http://www.w3.org/2000/svg">
<path opacity="0.72" d="M373.113 196.328C372.425 196.307 371.737 196.317 371.05 196.359C338.061 198.504 307.076 208.584 279.832 229.359L274.613 228.797C270.245 228.333 266.132 228.002 262.644 227.828C260.9 227.741 259.365 227.688 257.707 227.703C256.877 227.71 256.053 227.753 254.832 227.859C253.614 227.965 252.919 227.243 247.3 229.672V229.703C247.286 229.709 247.284 229.697 247.269 229.703C241.346 232.261 240.029 234.647 240.738 233.984C240.738 233.995 240.738 234.005 240.738 234.016C235.182 239.221 235.176 241.693 234.425 243.734C233.675 245.776 233.317 247.331 232.988 248.891C232.33 252.01 231.958 255.024 231.8 258.328C231.702 260.384 230.82 264.453 229.394 267.641C228.023 270.705 226.867 273.579 225.925 276.516C225.454 277.984 225.014 279.363 224.613 281.547C224.412 282.639 224.192 283.887 224.175 286.141C224.161 288.061 223.646 291.079 226.488 296.391C224.88 300.883 223.027 306.78 219.988 316.891C219.76 317.641 219.573 318.402 219.425 319.172C218.29 325.19 212.355 334.217 205.582 344.391C202.16 347.823 198.861 349.581 193.832 350.703C187.982 351.336 185.386 352.508 181.144 354.109C178.205 355.219 174.482 356.624 173.332 357.047C172.209 357.46 171.198 357.862 170.019 358.391C169.43 358.655 168.818 358.955 167.894 359.453C166.97 359.952 166.438 359.225 161.988 363.891C155.97 370.199 154.917 383.175 157.425 389.141C159.934 395.106 162.799 397.363 165.144 399.266C169.193 402.551 172.867 404.101 176.894 405.359L176.863 405.422C182.285 407.45 189.984 411.522 197.8 415.578C198.681 417.043 199.633 418.599 200.738 420.578C203.593 425.692 206.814 431.984 207.957 434.609C209.423 437.978 210.666 440.956 213.894 445.016C215.508 447.046 217.601 449.61 222.3 452.047C227 454.483 235.722 455.616 242.175 452.953C255.083 447.627 255.435 440.323 256.738 436.391C258.041 432.458 258.589 429.133 259.144 425.297C259.409 423.468 259.741 421.668 259.957 420.672C259.982 420.554 259.966 420.64 259.988 420.547C260.298 419.719 260.559 418.874 260.769 418.016C265.325 398.546 265.568 388.052 270.988 382.047C271.245 381.772 271.495 381.491 271.738 381.203C279.695 371.416 295.017 363.098 316.769 351.016C318.632 350.14 320.495 349.255 322.175 348.328C323.75 347.459 325.114 346.756 327.082 345.297C328.358 344.518 329.881 343.668 331.207 342.891C332.378 343.783 333.192 344.594 334.675 345.547C341.033 349.633 353.279 351.089 361.082 347.891C368.884 344.692 373.275 340.116 377.863 334.891C388.009 323.336 390.2 311.841 390.769 300.828C411.115 282.056 423.323 265.466 430.488 250.484C432.151 247.006 433.501 244.047 434.613 240.078C435.169 238.094 435.764 235.895 435.8 232.234C435.837 228.574 435.371 222.086 429.613 215.797C428.634 214.728 427.468 213.983 426.332 213.172C425.974 212.26 425.556 211.373 425.082 210.516C420.07 201.736 414.803 200.66 411.707 199.516C408.61 198.371 406.392 197.963 404.207 197.609C399.836 196.902 395.799 196.666 391.738 196.516C383.614 196.215 374.92 196.378 373.113 196.328ZM371.582 217.328C376.156 217.328 380.735 219.012 384.082 222.359C384.14 222.418 384.18 222.488 384.238 222.547C382.585 223.812 380.078 225.766 379.05 226.516C377.847 227.394 376.958 227.936 377.519 227.609C377.8 227.446 378.277 227.009 380.707 226.203C381.809 225.838 383.489 225.336 386.332 225.203C390.64 231.993 389.905 241.536 384.082 247.359C380.718 250.723 376.023 252.547 371.582 252.547C367.14 252.547 362.445 250.723 359.082 247.359C352.388 240.666 352.388 229.053 359.082 222.359C362.429 219.012 367.007 217.328 371.582 217.328ZM259.613 421.484C259.36 422.124 259.643 422.794 257.925 425.109C257.623 425.518 257.089 426.121 256.644 426.641C257.031 426.136 257.396 425.614 257.738 425.078C258.471 423.94 259.098 422.737 259.613 421.484V421.484Z" fill="#E4E4E4"/>
<path d="M372.486 218.593C379.36 218.783 403.675 217.915 405.741 221.534C405.758 222.085 402.41 224.718 399.537 228.442C394.154 235.421 385.877 246.109 387.222 247.344C387.92 247.985 393.888 243.31 404.837 234.829C414.223 227.559 415.894 229.386 410.397 240.88C403.818 254.638 392.694 270.246 369.515 290.279C369.266 290.533 369.014 290.78 368.764 291.03C368.611 302.043 366.402 314.231 361.151 320.21C347.361 335.914 344.75 324.108 336.229 314.328C329.121 318.386 321.912 322.304 314.877 326.628C313.761 327.636 309.738 329.862 305.946 331.545C284.743 343.323 266.563 352.261 254.464 367.143C242.637 380.247 242.799 397.018 239.07 412.958C238.673 413.374 237.792 417.504 237.124 422.118C235.306 434.675 232.709 435.733 228.363 425.748C224.793 417.547 215.19 400.345 213.106 398.422C204.299 393.946 193.98 388.054 184.677 384.575C180.082 383.307 176.795 380.648 178.105 379.275C178.322 379.048 179.614 378.458 181.016 377.942C182.417 377.427 186.059 376.076 189.027 374.955C191.994 373.835 195.929 372.786 197.804 372.658C207.681 370.602 216.035 366.04 222.986 358.473C229.474 348.735 238.718 336.944 241.291 323.304C247.051 304.144 247.593 302.549 250.941 295.549C252.761 291.742 254.246 288.39 254.234 288.12C254.223 287.849 252.67 287.702 250.788 287.783C248.905 287.863 246.976 287.383 246.529 286.726C246.083 286.068 247.542 281.579 249.715 276.723C252.247 271.066 253.805 264.838 254.066 259.384C254.276 254.995 255.1 251.05 255.95 250.254C256.006 250.201 256.061 250.172 256.118 250.147C257.023 249.755 264.286 250.112 272.263 250.959L286.769 252.491L291.824 248.141C315.904 229.265 342.216 220.561 372.486 218.593V218.593ZM371.583 230.265C370.406 230.265 369.233 230.714 368.335 231.613C366.538 233.409 366.538 236.326 368.335 238.123C370.132 239.919 373.048 239.919 374.845 238.123C376.642 236.326 376.642 233.409 374.845 231.613C373.947 230.714 372.759 230.265 371.583 230.265Z" fill="#C600D1"/>
</svg>
