<?xml version="1.0" encoding="UTF-8"?>
<svg xmlns="http://www.w3.org/2000/svg" xmlns:xlink="http://www.w3.org/1999/xlink" width="12" height="12" viewBox="0 0 12 12" version="1.1">
<g id="surface1">
<path style=" stroke:none;fill-rule:nonzero;fill:rgb(100%,100%,100%);fill-opacity:1;" d="M 5 2 C 3.894531 2 3 2.894531 3 4 L 3 4.1875 C 3.507812 4.417969 3.914062 4.84375 4.113281 5.382812 C 4.644531 5.171875 5.292969 5 6 5 C 6.679688 5 7.339844 5.160156 7.898438 5.355469 C 8.101562 4.832031 8.5 4.414062 9 4.1875 L 9 4 C 9 2.894531 8.105469 2 7 2 Z M 5 2 "/>
<path style=" stroke:none;fill-rule:nonzero;fill:rgb(100%,100%,100%);fill-opacity:1;" d="M 1 6 C 1 5.449219 1.449219 5 2 5 L 2.125 5 C 2.636719 5 3.085938 5.351562 3.210938 5.851562 L 3.460938 6.847656 C 3.878906 6.570312 4.867188 6 6 6 C 7.003906 6 8.011719 6.449219 8.5625 6.746094 L 8.789062 5.851562 C 8.914062 5.351562 9.363281 5 9.875 5 L 10 5 C 10.550781 5 11 5.449219 11 6 C 11 6.550781 10.550781 7 10 7 L 9.878906 7.484375 C 9.75 8 9.425781 8.425781 9 8.695312 L 9 9.5 C 9 9.777344 8.777344 10 8.5 10 C 8.222656 10 8 9.777344 8 9.5 L 8 9 C 7.980469 9 7.960938 9 7.9375 9 L 4.0625 9 C 4.039062 9 4.019531 9 4 9 L 4 9.5 C 4 9.777344 3.777344 10 3.5 10 C 3.222656 10 3 9.777344 3 9.5 L 3 8.695312 C 2.574219 8.425781 2.25 8 2.121094 7.484375 L 2 7 C 1.449219 7 1 6.550781 1 6 Z M 1 6 "/>
</g>
</svg>
