<?xml version="1.0" encoding="UTF-8"?>
<svg xmlns="http://www.w3.org/2000/svg" xmlns:xlink="http://www.w3.org/1999/xlink" width="12" height="12" viewBox="0 0 12 12" version="1.1">
<g id="surface1">
<path style=" stroke:none;fill-rule:nonzero;fill:rgb(5.882353%,36.078432%,94.117647%);fill-opacity:1;" d="M 3.382812 7.113281 L 2.261719 7.113281 C 1.4375 8.984375 5.402344 9.621094 7.160156 9.097656 C 6.410156 9.132812 1.921875 8.425781 3.382812 7.113281 Z M 3.382812 7.113281 "/>
<path style=" stroke:none;fill-rule:nonzero;fill:rgb(5.882353%,36.078432%,94.117647%);fill-opacity:1;" d="M 7.71875 5.992188 L 7.71875 7.113281 C 8.167969 7.113281 8.617188 7.300781 8.617188 7.75 C 8.617188 8.386719 5.851562 8.535156 5.851562 8.535156 C 7.90625 8.796875 9.367188 8.3125 9.367188 7.488281 C 9.367188 6.667969 8.617188 5.992188 7.71875 5.992188 Z M 7.71875 5.992188 "/>
<path style=" stroke:none;fill-rule:nonzero;fill:rgb(5.882353%,36.078432%,94.117647%);fill-opacity:1;" d="M 7.871094 5.980469 L 7.871094 6.753906 C 9.058594 6.753906 9.726562 7.683594 9.726562 8.238281 C 9.726562 8.4375 9.652344 8.597656 9.476562 8.777344 C 9.300781 8.957031 9.015625 9.132812 8.648438 9.273438 C 7.917969 9.558594 6.878906 9.71875 5.8125 9.71875 C 4.761719 9.71875 3.828125 9.507812 3.191406 9.203125 C 2.554688 8.894531 2.273438 8.523438 2.273438 8.238281 C 2.273438 8.058594 2.378906 7.75 2.578125 7.515625 C 2.777344 7.285156 3.039062 7.128906 3.382812 7.128906 L 3.382812 6.355469 C 2.789062 6.355469 2.304688 6.644531 1.988281 7.011719 C 1.675781 7.378906 1.5 7.816406 1.5 8.238281 C 1.5 8.960938 2.078125 9.523438 2.851562 9.898438 C 3.628906 10.273438 4.660156 10.496094 5.8125 10.496094 C 6.953125 10.496094 8.0625 10.335938 8.933594 9.996094 C 9.367188 9.824219 9.742188 9.609375 10.027344 9.324219 C 10.3125 9.035156 10.5 8.65625 10.5 8.238281 C 10.5 7.144531 9.449219 5.980469 7.871094 5.980469 Z M 7.871094 5.980469 "/>
<path style=" stroke:none;fill-rule:nonzero;fill:rgb(5.882353%,36.078432%,94.117647%);fill-opacity:1;" d="M 4.878906 1.878906 C 4.878906 1.878906 3.792969 1.503906 1.511719 1.503906 L 1.511719 8.238281 C 1.921875 7.078125 3.382812 6.742188 3.382812 6.742188 C 3.382812 3.339844 4.878906 1.878906 4.878906 1.878906 Z M 4.878906 1.878906 "/>
<path style=" stroke:none;fill-rule:nonzero;fill:rgb(5.882353%,36.078432%,94.117647%);fill-opacity:1;" d="M 8.242188 1.878906 C 8.242188 1.878906 9.253906 1.503906 10.488281 1.503906 L 10.488281 8.199219 C 10.488281 7.75 9.214844 7.113281 7.496094 7.113281 C 7.496094 4.460938 7.832031 2.8125 8.242188 1.878906 Z M 8.242188 1.878906 "/>
<path style=" stroke:none;fill-rule:nonzero;fill:rgb(5.882353%,36.078432%,94.117647%);fill-opacity:1;" d="M 7.308594 1.878906 C 6.523438 1.878906 6 4.347656 6 7.488281 C 6 7.675781 6.148438 7.863281 6.375 7.863281 C 6.5625 7.863281 6.746094 7.714844 6.746094 7.488281 C 6.746094 5.246094 6.972656 2.105469 7.683594 1.878906 Z M 7.308594 1.878906 "/>
<path style=" stroke:none;fill-rule:nonzero;fill:rgb(5.882353%,36.078432%,94.117647%);fill-opacity:1;" d="M 6.039062 1.878906 C 5.289062 1.878906 4.128906 3.824219 4.128906 7.488281 C 4.128906 7.675781 4.28125 7.863281 4.503906 7.863281 C 4.691406 7.863281 4.878906 7.714844 4.878906 7.488281 C 4.878906 3.898438 5.664062 2.105469 6.375 1.878906 Z M 6.039062 1.878906 "/>
</g>
</svg>
