<svg xmlns="http://www.w3.org/2000/svg" width="12" height="12" viewBox="0 0 48 48" version="1.1" id="svg8" style="fill:none"><path d="M13.53 14.88A34.42 34.42 0 0 1 37.13 4a3.09 3.09 0 1 1 .27 6.17A28.04 28.04 0 0 0 18 19.12 28.04 28.04 0 0 0 10.18 39a3.09 3.09 0 1 1-6.17.08 34.5 34.5 0 0 1 9.53-24.2zM21 21.94a24.54 24.54 0 0 1 17.2-7.66 3.09 3.09 0 0 1 .18 6.17 18.29 18.29 0 0 0-17.9 18.94 3.09 3.09 0 1 1-6.16.18A24.6 24.6 0 0 1 21 21.94zM28.44 29a14.48 14.48 0 0 1 10.76-4.57 3.09 3.09 0 1 1-.1 6.18 8.51 8.51 0 0 0-6.18 2.62 8.53 8.53 0 0 0-2.27 6.33 3.09 3.09 0 1 1-6.16.45A14.51 14.51 0 0 1 28.44 29zm6.72 6.35a5.15 5.15 0 0 1 7.25-.2 5.16 5.16 0 0 1 .2 7.25 5.15 5.15 0 0 1-7.25.2 5.16 5.16 0 0 1-.2-7.25z" id="path6" style="fill:#fff;fill-opacity:1;stroke-width:1"/></svg>
