<?xml version="1.0" encoding="UTF-8"?>
<svg xmlns="http://www.w3.org/2000/svg" xmlns:xlink="http://www.w3.org/1999/xlink" width="32" height="32" viewBox="0 0 32 32">
<path fill-rule="evenodd" fill="rgb(5.882353%, 36.078431%, 94.117647%)" fill-opacity="1" d="M 5.71875 30.175781 C 5.730469 29.984375 11.152344 30.40625 13.601562 28.910156 C 14.820312 28.160156 15.960938 27.125 16.078125 24.539062 C 16.207031 21.820312 15.84375 21.984375 16.152344 19.867188 C 16.671875 17.425781 18.421875 17.292969 18.832031 15.878906 C 20.472656 12.25 15.675781 12.933594 14.730469 13.929688 C 14.328125 15.308594 12.300781 17.566406 12.542969 19.964844 C 14.136719 28.78125 11.472656 28.691406 5.71875 30.175781 Z M 5.71875 30.175781 "/>
<path fill-rule="nonzero" fill="rgb(5.882353%, 36.078431%, 94.117647%)" fill-opacity="1" d="M 26.90625 9.644531 C 26.90625 11.625 26.117188 13.523438 24.71875 14.925781 C 23.316406 16.324219 21.417969 17.113281 19.4375 17.113281 C 17.453125 17.113281 15.554688 16.324219 14.152344 14.925781 C 12.753906 13.523438 11.964844 11.625 11.964844 9.644531 C 11.964844 7.660156 12.753906 5.761719 14.152344 4.359375 C 15.554688 2.960938 17.453125 2.171875 19.4375 2.171875 C 21.417969 2.171875 23.316406 2.960938 24.71875 4.359375 C 26.117188 5.761719 26.90625 7.660156 26.90625 9.644531 Z M 26.90625 9.644531 "/>
</svg>
