<?xml version="1.0" encoding="UTF-8"?>
<svg xmlns="http://www.w3.org/2000/svg" xmlns:xlink="http://www.w3.org/1999/xlink" width="12" height="12" viewBox="0 0 12 12" version="1.1">
<g id="surface1">
<path style=" stroke:none;fill-rule:nonzero;fill:rgb(83.529413%,23.137255%,23.137255%);fill-opacity:1;" d="M 6.878906 4.796875 L 7.511719 7.277344 Z M 6.878906 4.796875 "/>
<path style="fill:none;stroke-width:120.978996;stroke-linecap:round;stroke-linejoin:round;stroke:rgb(0%,0%,0%);stroke-opacity:1;stroke-miterlimit:4;" d="M 332.480469 231.848958 L 363.066406 351.738281 " transform="matrix(0.0206897,0,0,0.0206897,0,0)"/>
<path style="fill:none;stroke-width:53.152599;stroke-linecap:round;stroke-linejoin:round;stroke:rgb(0%,0%,0%);stroke-opacity:1;stroke-miterlimit:4;" d="M 324.173177 210.325521 L 206.549479 227.128906 L 137.636719 145.188802 " transform="matrix(0.0206897,0,0,0.0206897,0,0)"/>
<path style="fill:none;stroke-width:67.337502;stroke-linecap:round;stroke-linejoin:round;stroke:rgb(0%,0%,0%);stroke-opacity:1;stroke-miterlimit:4;" d="M 410.455729 483.144531 L 247.897135 485.032552 " transform="matrix(0.0206897,0,0,0.0206897,0,0)"/>
<path style="fill:none;stroke-width:73.533203;stroke-linecap:round;stroke-linejoin:round;stroke:rgb(0%,0%,0%);stroke-opacity:1;stroke-miterlimit:4;" d="M 388.554688 367.786458 L 248.841146 471.438802 " transform="matrix(0.0206897,0,0,0.0206897,0,0)"/>
<path style=" stroke:none;fill-rule:nonzero;fill:rgb(0%,0%,0%);fill-opacity:1;" d="M 5.871094 1.1875 C 5.84375 1.1875 5.820312 1.191406 5.796875 1.191406 C 4.777344 1.246094 4.386719 2.621094 5.210938 3.207031 C 5.996094 3.8125 7.175781 3.085938 6.976562 2.101562 C 6.878906 1.558594 6.417969 1.179688 5.871094 1.1875 Z M 5.871094 1.1875 "/>
<path style="fill:none;stroke-width:73.533203;stroke-linecap:round;stroke-linejoin:round;stroke:rgb(0%,0%,0%);stroke-opacity:1;stroke-miterlimit:4;" d="M 375.14974 357.402344 L 248.841146 471.438802 " transform="matrix(0.0206897,0,0,0.0206897,0,0)"/>
<path style="fill:none;stroke-width:53.152599;stroke-linecap:round;stroke-linejoin:round;stroke:rgb(0%,0%,0%);stroke-opacity:1;stroke-miterlimit:4;" d="M 324.173177 219.765625 L 206.549479 227.128906 L 137.636719 145.188802 " transform="matrix(0.0206897,0,0,0.0206897,0,0)"/>
</g>
</svg>
