<?xml version="1.0" encoding="UTF-8"?>
<svg xmlns="http://www.w3.org/2000/svg" xmlns:xlink="http://www.w3.org/1999/xlink" width="32" height="32" viewBox="0 0 32 32">
<path fill-rule="nonzero" fill="rgb(0%, 0%, 0%)" fill-opacity="1" d="M 5.160156 7.214844 C 3.71875 8.519531 1.925781 9.714844 1.925781 9.714844 L 1.925781 10.832031 L 3.214844 12 L 10.742188 12 L 10.722656 13.402344 L 7.570312 13.429688 L 5.21875 17.539062 L 1.925781 18.433594 L 1.925781 22.613281 L 4.535156 22.613281 C 4.53125 22.582031 4.53125 22.554688 4.53125 22.523438 C 4.53125 20.859375 5.882812 19.507812 7.546875 19.507812 C 9.210938 19.507812 10.5625 20.859375 10.5625 22.523438 C 10.558594 22.554688 10.558594 22.582031 10.558594 22.613281 L 20.285156 22.613281 C 20.28125 22.582031 20.28125 22.554688 20.28125 22.523438 C 20.28125 20.859375 21.628906 19.507812 23.296875 19.507812 C 24.960938 19.507812 26.3125 20.859375 26.3125 22.523438 C 26.308594 22.554688 26.308594 22.582031 26.308594 22.613281 L 30.074219 22.613281 L 30.074219 8.378906 L 22.214844 8.378906 L 20.765625 7.214844 Z M 5.539062 8.601562 L 10.742188 8.601562 L 10.742188 10.808594 L 5.539062 10.808594 Z M 21.339844 12 L 26.542969 12 L 26.542969 15.980469 L 21.339844 15.980469 Z M 14.699219 12 L 19.152344 12 L 19.152344 21.320312 L 14.699219 21.320312 Z M 8.484375 14.746094 L 10.71875 14.746094 L 10.71875 17.578125 L 6.957031 17.578125 Z M 23.296875 20.59375 C 22.230469 20.59375 21.367188 21.457031 21.367188 22.523438 C 21.367188 23.589844 22.230469 24.453125 23.296875 24.453125 C 24.363281 24.453125 25.226562 23.589844 25.226562 22.523438 C 25.226562 21.457031 24.363281 20.59375 23.296875 20.59375 Z M 7.546875 20.621094 C 6.496094 20.621094 5.644531 21.472656 5.644531 22.523438 C 5.644531 23.574219 6.496094 24.425781 7.546875 24.425781 C 8.597656 24.425781 9.449219 23.574219 9.449219 22.523438 C 9.449219 21.472656 8.597656 20.621094 7.546875 20.621094 Z M 7.546875 20.621094 "/>
</svg>
