<?xml version="1.0" encoding="UTF-8"?>
<svg xmlns="http://www.w3.org/2000/svg" xmlns:xlink="http://www.w3.org/1999/xlink" width="32" height="32" viewBox="0 0 32 32">
<path fill-rule="nonzero" fill="rgb(83.529412%, 23.137255%, 23.137255%)" fill-opacity="1" d="M 18.339844 12.796875 L 20.027344 19.40625 Z M 18.339844 12.796875 "/>
<path fill="none" stroke-width="120.978996" stroke-linecap="round" stroke-linejoin="round" stroke="rgb(0%, 0%, 0%)" stroke-opacity="1" stroke-miterlimit="4" d="M 332.409668 231.943359 L 362.995605 351.738281 " transform="matrix(0.0551724, 0, 0, 0.0551724, 0, 0)"/>
<path fill="none" stroke-width="53.152599" stroke-linecap="round" stroke-linejoin="round" stroke="rgb(0%, 0%, 0%)" stroke-opacity="1" stroke-miterlimit="4" d="M 324.055176 210.419922 L 206.59668 227.199707 L 137.70752 145.212402 " transform="matrix(0.0551724, 0, 0, 0.0551724, 0, 0)"/>
<path fill="none" stroke-width="67.337502" stroke-linecap="round" stroke-linejoin="round" stroke="rgb(0%, 0%, 0%)" stroke-opacity="1" stroke-miterlimit="4" d="M 410.432129 483.215332 L 247.873535 484.914551 " transform="matrix(0.0551724, 0, 0, 0.0551724, 0, 0)"/>
<path fill="none" stroke-width="73.533203" stroke-linecap="round" stroke-linejoin="round" stroke="rgb(0%, 0%, 0%)" stroke-opacity="1" stroke-miterlimit="4" d="M 388.625488 367.739258 L 248.793945 471.391602 " transform="matrix(0.0551724, 0, 0, 0.0551724, 0, 0)"/>
<path fill-rule="nonzero" fill="rgb(0%, 0%, 0%)" fill-opacity="1" d="M 15.652344 3.164062 C 15.585938 3.167969 15.523438 3.171875 15.457031 3.179688 C 12.742188 3.328125 11.703125 6.988281 13.890625 8.554688 C 15.992188 10.167969 19.136719 8.226562 18.605469 5.609375 C 18.339844 4.15625 17.117188 3.140625 15.652344 3.164062 Z M 15.652344 3.164062 "/>
<path fill="none" stroke-width="73.533203" stroke-linecap="round" stroke-linejoin="round" stroke="rgb(0%, 0%, 0%)" stroke-opacity="1" stroke-miterlimit="4" d="M 375.17334 357.402344 L 248.793945 471.391602 " transform="matrix(0.0551724, 0, 0, 0.0551724, 0, 0)"/>
<path fill="none" stroke-width="53.152599" stroke-linecap="round" stroke-linejoin="round" stroke="rgb(0%, 0%, 0%)" stroke-opacity="1" stroke-miterlimit="4" d="M 324.055176 219.765625 L 206.59668 227.199707 L 137.70752 145.212402 " transform="matrix(0.0551724, 0, 0, 0.0551724, 0, 0)"/>
</svg>
