<svg width="12" height="12" viewBox="0 0 580 580" fill="none" xmlns="http://www.w3.org/2000/svg">
<path d="M332.418 231.917L362.996 351.764L332.418 231.917Z" fill="#D53B3B"/>
<path d="M332.418 231.917L362.996 351.764" stroke="#000000" stroke-width="120.979" stroke-linecap="round" stroke-linejoin="round"/>
<path d="M324.081 210.41L206.572 227.172L137.713 145.182" stroke="#000000" stroke-width="53.1526" stroke-linecap="round" stroke-linejoin="round"/>
<path d="M410.4 483.187L247.887 484.945" stroke="#000000" stroke-width="67.3375" stroke-linecap="round" stroke-linejoin="round"/>
<path d="M388.615 367.749L248.769 471.409" stroke="#000000" stroke-width="73.5332" stroke-linecap="round" stroke-linejoin="round"/>
<path d="M283.696 57.371C282.522 57.3898 281.327 57.5049 280.137 57.5982C230.985 60.2993 212.116 126.665 251.795 155.06C289.879 184.261 346.871 149.085 337.247 101.642C332.429 75.3238 310.246 56.9453 283.696 57.371Z" fill="#000000"/>
<path d="M375.144 357.387L248.769 471.409" stroke="#000000" stroke-width="73.5332" stroke-linecap="round" stroke-linejoin="round"/>
<path d="M324.081 219.789L206.572 227.172L137.713 145.182" stroke="#000000" stroke-width="53.1526" stroke-linecap="round" stroke-linejoin="round"/>
</svg>
