<?xml version="1.0" encoding="UTF-8"?>
<svg xmlns="http://www.w3.org/2000/svg" xmlns:xlink="http://www.w3.org/1999/xlink" width="12" height="12" viewBox="0 0 12 12" version="1.1">
<g id="surface1">
<path style=" stroke:none;fill-rule:nonzero;fill:rgb(0%,0%,0%);fill-opacity:1;" d="M 11.273438 10.722656 C 11.046875 10.722656 10.828125 10.671875 10.632812 10.585938 C 10.433594 10.492188 10.210938 10.441406 9.972656 10.441406 C 9.738281 10.441406 9.515625 10.492188 9.316406 10.585938 C 9.121094 10.671875 8.90625 10.722656 8.675781 10.722656 C 8.449219 10.722656 8.230469 10.671875 8.035156 10.585938 C 7.835938 10.492188 7.613281 10.441406 7.378906 10.441406 C 7.144531 10.441406 6.921875 10.492188 6.71875 10.585938 C 6.527344 10.671875 6.308594 10.722656 6.078125 10.722656 C 5.851562 10.722656 5.632812 10.671875 5.4375 10.585938 C 5.238281 10.492188 5.015625 10.441406 4.78125 10.441406 C 4.542969 10.441406 4.320312 10.492188 4.121094 10.585938 C 3.925781 10.671875 3.710938 10.722656 3.484375 10.722656 C 3.253906 10.722656 3.035156 10.671875 2.839844 10.585938 C 2.644531 10.492188 2.417969 10.441406 2.183594 10.441406 C 1.949219 10.441406 1.726562 10.492188 1.527344 10.585938 C 1.332031 10.671875 1.113281 10.722656 0.882812 10.722656 L 0.882812 9.765625 C 1.113281 9.765625 1.332031 9.710938 1.527344 9.625 C 1.726562 9.535156 1.949219 9.480469 2.183594 9.480469 C 2.417969 9.480469 2.644531 9.535156 2.839844 9.625 C 3.035156 9.710938 3.253906 9.765625 3.484375 9.765625 C 3.710938 9.765625 3.925781 9.710938 4.121094 9.625 C 4.320312 9.535156 4.546875 9.480469 4.78125 9.480469 C 5.015625 9.480469 5.238281 9.535156 5.4375 9.625 C 5.632812 9.710938 5.851562 9.765625 6.078125 9.765625 C 6.308594 9.765625 6.527344 9.710938 6.71875 9.625 C 6.921875 9.535156 7.144531 9.480469 7.378906 9.480469 C 7.613281 9.480469 7.835938 9.535156 8.035156 9.625 C 8.230469 9.710938 8.449219 9.765625 8.675781 9.765625 C 8.90625 9.765625 9.121094 9.710938 9.316406 9.625 C 9.515625 9.535156 9.742188 9.480469 9.972656 9.480469 C 10.210938 9.480469 10.433594 9.535156 10.632812 9.625 C 10.828125 9.710938 11.046875 9.765625 11.273438 9.765625 Z M 11.273438 10.722656 "/>
<path style=" stroke:none;fill-rule:nonzero;fill:rgb(0%,0%,0%);fill-opacity:1;" d="M 6.464844 6.730469 L 5.523438 4.492188 L 6.472656 4.097656 L 6.226562 3.515625 C 5.910156 3.648438 5.597656 3.78125 5.28125 3.914062 L 4.808594 2.792969 L 4.226562 3.035156 L 4.699219 4.15625 C 4.203125 4.367188 3.683594 4.585938 3.683594 4.585938 L 3.925781 5.167969 L 4.941406 4.738281 L 5.882812 6.972656 C 3.949219 7.785156 2.066406 8.582031 2.179688 8.582031 C 2.414062 8.582031 2.640625 8.636719 2.835938 8.730469 C 3.035156 8.816406 3.25 8.867188 3.480469 8.867188 C 3.707031 8.867188 3.925781 8.816406 4.121094 8.730469 C 4.320312 8.636719 4.542969 8.582031 4.777344 8.582031 C 5.015625 8.582031 5.238281 8.636719 5.4375 8.730469 C 5.628906 8.816406 5.851562 8.867188 6.078125 8.867188 C 6.304688 8.867188 6.523438 8.816406 6.714844 8.730469 C 6.917969 8.636719 7.140625 8.582031 7.375 8.582031 C 7.609375 8.582031 7.832031 8.636719 8.03125 8.730469 C 8.230469 8.816406 8.445312 8.867188 8.671875 8.867188 C 8.738281 8.867188 8.800781 8.855469 8.863281 8.847656 C 8.976562 8.820312 9.09375 8.8125 9.203125 8.765625 C 9.207031 8.765625 9.207031 8.765625 9.210938 8.761719 C 9.417969 7.609375 9.890625 5.304688 9.890625 5.304688 C 9.890625 5.304688 8.238281 5.988281 6.464844 6.730469 Z M 6.464844 6.730469 "/>
</g>
</svg>
