<?xml version="1.0" encoding="UTF-8"?>
<svg xmlns="http://www.w3.org/2000/svg" xmlns:xlink="http://www.w3.org/1999/xlink" width="32" height="32" viewBox="0 0 32 32">
<path fill-rule="nonzero" fill="rgb(24.705882%, 24.705882%, 24.705882%)" fill-opacity="1" d="M 16.648438 13.820312 C 16.648438 13.820312 16.648438 21.449219 20.265625 21.449219 C 21.472656 21.449219 22.121094 20.46875 22.121094 20.46875 C 22.492188 21.339844 23.234375 21.886719 24.070312 21.886719 C 25.277344 21.886719 26.203125 20.796875 26.203125 19.488281 C 26.203125 18.617188 25.832031 17.851562 25.277344 17.417969 C 25.648438 17.417969 27.132812 16.652344 27.132812 14.800781 C 27.132812 13.601562 26.296875 12.292969 25.183594 12.183594 C 25 10.984375 24.164062 10.113281 23.050781 10.113281 L 22.957031 10.113281 C 23.234375 9.675781 23.515625 9.132812 23.515625 8.585938 C 23.515625 7.277344 22.585938 6.1875 21.378906 6.1875 C 20.824219 6.1875 20.265625 6.40625 19.894531 6.84375 C 19.617188 5.753906 18.78125 4.988281 17.855469 4.988281 L 17.578125 4.988281 C 17.296875 3.789062 16.277344 2.917969 15.164062 2.917969 C 14.332031 2.917969 13.589844 3.355469 13.125 4.117188 C 12.9375 4.007812 12.660156 4.007812 12.476562 4.007812 C 11.269531 4.007812 10.25 5.097656 10.25 6.40625 L 10.25 6.625 C 9.878906 6.296875 9.414062 5.96875 8.855469 5.96875 C 7.742188 5.96875 6.722656 7.0625 6.722656 8.476562 C 6.722656 8.695312 6.722656 8.914062 6.816406 9.132812 C 5.703125 9.242188 4.867188 10.222656 4.867188 11.53125 C 4.867188 12.839844 5.796875 13.929688 7 13.929688 C 7.1875 13.929688 7.371094 13.929688 7.464844 13.820312 C 7 14.363281 6.722656 15.128906 6.722656 16 L 6.722656 16.109375 C 5.703125 16.328125 4.867188 17.308594 4.867188 18.507812 C 4.867188 19.816406 5.796875 20.90625 7 20.90625 C 7.1875 20.90625 7.371094 20.90625 7.558594 20.796875 C 7.652344 21.996094 8.578125 22.867188 9.691406 22.867188 C 10.433594 22.867188 11.175781 22.433594 11.546875 21.667969 C 13.917969 21.863281 15.886719 18.980469 16.441406 18.496094 C 16.335938 17.15625 16.441406 15.964844 16.648438 13.820312 Z M 16.648438 13.820312 "/>
<path fill-rule="nonzero" fill="rgb(24.705882%, 24.705882%, 24.705882%)" fill-opacity="1" d="M 14.691406 21.007812 C 14.671875 21.84375 14.609375 22.757812 14.609375 23.738281 C 14.421875 28.535156 12.105469 26.464844 11.363281 29.082031 L 21.566406 29.082031 C 21.101562 27.882812 19.246094 28.644531 18.78125 25.921875 C 18.597656 24.722656 18.410156 22.867188 18.410156 22.433594 C 17.488281 21.46875 16.90625 20.402344 16.648438 18.835938 "/>
</svg>
