<?xml version="1.0" encoding="UTF-8"?>
<svg xmlns="http://www.w3.org/2000/svg" xmlns:xlink="http://www.w3.org/1999/xlink" width="32" height="32" viewBox="0 0 32 32">
<path fill-rule="nonzero" fill="rgb(100%, 100%, 100%)" fill-opacity="1" d="M 23.941406 9.332031 C 23.320312 9.332031 22.78125 9.761719 22.640625 10.367188 L 21.828125 13.332031 L 7.453125 13.332031 C 7.121094 13.332031 6.808594 13.539062 6.671875 13.8125 C 6.539062 14.085938 6.648438 14.347656 6.726562 14.667969 L 9.148438 20.621094 C 9.265625 21.09375 9.625 21.332031 10.121094 21.332031 L 19.613281 21.332031 L 18.878906 24 L 11.945312 24 C 10.472656 24 9.28125 25.195312 9.28125 26.667969 C 9.28125 28.140625 10.472656 29.332031 11.945312 29.332031 C 13.417969 29.332031 14.613281 28.140625 14.613281 26.667969 L 17.28125 26.667969 C 17.28125 27.921875 18.152344 29.003906 19.378906 29.273438 C 20.605469 29.539062 21.851562 28.917969 22.371094 27.777344 C 22.894531 26.636719 22.550781 25.285156 21.546875 24.535156 L 25 12 L 26.605469 12 C 28.40625 12.027344 28.40625 9.308594 26.605469 9.332031 Z M 23.941406 9.332031 "/>
<path fill-rule="evenodd" fill="rgb(100%, 100%, 100%)" fill-opacity="1" d="M 16 1.265625 L 3.578125 5.398438 C 2.878906 5.632812 2.5 6.386719 2.734375 7.085938 C 2.964844 7.785156 3.71875 8.164062 4.421875 7.933594 L 16 4.066406 L 27.578125 7.933594 C 28.28125 8.164062 29.035156 7.785156 29.265625 7.085938 C 29.5 6.386719 29.121094 5.632812 28.421875 5.398438 Z M 16 1.265625 "/>
</svg>
