<?xml version="1.0" encoding="UTF-8"?>
<svg xmlns="http://www.w3.org/2000/svg" xmlns:xlink="http://www.w3.org/1999/xlink" width="12" height="12" viewBox="0 0 12 12" version="1.1">
<g id="surface1">
<path style=" stroke:none;fill-rule:nonzero;fill:rgb(0%,0%,0%);fill-opacity:1;" d="M 4.5 2 L 7.5 2 L 7.5 4 L 4.5 4 Z M 4.5 2 "/>
<path style=" stroke:none;fill-rule:evenodd;fill:rgb(0%,0%,0%);fill-opacity:1;" d="M 5.5 4 L 5.5 5 L 6.5 5 L 6.5 4 Z M 5.5 4 "/>
<path style=" stroke:none;fill-rule:nonzero;fill:rgb(0%,0%,0%);fill-opacity:1;" d="M 4.5 5 L 7.5 5 L 7.5 8.5 L 4.5 8.5 Z M 4.5 5 "/>
<path style=" stroke:none;fill-rule:evenodd;fill:rgb(0%,0%,0%);fill-opacity:1;" d="M 4.5 8.5 L 4.5 11 L 5 11 L 5 8.5 Z M 4.5 8.5 "/>
<path style=" stroke:none;fill-rule:evenodd;fill:rgb(0%,0%,0%);fill-opacity:1;" d="M 7 8.5 L 7 11 L 7.5 11 L 7.5 8.5 Z M 7 8.5 "/>
<path style=" stroke:none;fill-rule:evenodd;fill:rgb(0%,0%,0%);fill-opacity:1;" d="M 4.492188 1 L 4.492188 2 L 4.992188 2 L 4.992188 1 Z M 4.492188 1 "/>
<path style=" stroke:none;fill-rule:evenodd;fill:rgb(0%,0%,0%);fill-opacity:1;" d="M 7 1 L 7 2 L 7.5 2 L 7.5 1 Z M 7 1 "/>
<path style=" stroke:none;fill-rule:evenodd;fill:rgb(0%,0%,0%);fill-opacity:1;" d="M 9.5 1 L 9.5 5 L 7.5 5 L 7.5 5.5 L 10 5.5 L 10 1 Z M 9.5 1 "/>
<path style=" stroke:none;fill-rule:evenodd;fill:rgb(0%,0%,0%);fill-opacity:1;" d="M 2 1 L 2 5.5 L 4.5 5.5 L 4.5 5 L 2.5 5 L 2.5 1 Z M 2 1 "/>
<path style=" stroke:none;fill-rule:evenodd;fill:rgb(0%,0%,0%);fill-opacity:1;" d="M 7.5 2.519531 L 7.5 3.019531 L 8.5 3.019531 L 8.5 2.519531 Z M 7.5 2.519531 "/>
<path style=" stroke:none;fill-rule:evenodd;fill:rgb(0%,0%,0%);fill-opacity:1;" d="M 3.5 2.519531 L 3.5 3.019531 L 4.5 3.019531 L 4.5 2.519531 Z M 3.5 2.519531 "/>
<path style=" stroke:none;fill-rule:evenodd;fill:rgb(0%,0%,0%);fill-opacity:1;" d="M 7.5 3.5 L 7.5 4 L 8.5 4 L 8.5 3.5 Z M 7.5 3.5 "/>
<path style=" stroke:none;fill-rule:evenodd;fill:rgb(0%,0%,0%);fill-opacity:1;" d="M 3.5 3.5 L 3.5 4 L 4.5 4 L 4.5 3.5 Z M 3.5 3.5 "/>
</g>
</svg>
