<?xml version="1.0" encoding="UTF-8"?>
<svg xmlns="http://www.w3.org/2000/svg" xmlns:xlink="http://www.w3.org/1999/xlink" width="32" height="32" viewBox="0 0 32 32">
<path fill-rule="nonzero" fill="rgb(0%, 0%, 0%)" fill-opacity="1" d="M 15.839844 2.773438 C 15.496094 2.808594 15.164062 2.96875 14.917969 3.21875 L 3.316406 14.820312 C 3.03125 15.105469 2.867188 15.503906 2.867188 15.902344 C 2.867188 16.304688 3.03125 16.699219 3.3125 16.984375 C 3.597656 17.265625 3.996094 17.429688 4.394531 17.429688 C 4.796875 17.429688 5.195312 17.265625 5.476562 16.984375 C 6.050781 17 6.253906 17.015625 6.84375 17.015625 L 25.15625 17.015625 C 25.890625 16.992188 26.125 17.023438 26.523438 16.984375 C 26.804688 17.265625 27.203125 17.433594 27.605469 17.433594 C 28.003906 17.433594 28.402344 17.265625 28.6875 16.984375 C 28.96875 16.699219 29.132812 16.304688 29.132812 15.902344 C 29.132812 15.503906 28.96875 15.105469 28.683594 14.820312 L 17.082031 3.21875 C 16.761719 2.894531 16.292969 2.726562 15.839844 2.773438 Z M 18.351562 8.84375 L 19.433594 9.894531 L 12.566406 9.894531 L 13.582031 8.875 C 13.710938 8.890625 13.839844 8.890625 13.964844 8.875 L 18.035156 8.875 C 18.140625 8.875 18.246094 8.867188 18.351562 8.84375 Z M 22.421875 12.914062 L 23.503906 13.964844 L 8.496094 13.964844 L 9.515625 12.945312 C 9.640625 12.960938 9.769531 12.960938 9.894531 12.945312 L 22.105469 12.945312 C 22.210938 12.945312 22.316406 12.9375 22.421875 12.914062 Z M 5.507812 18.03125 C 5.109375 18.074219 4.730469 18.28125 4.476562 18.589844 C 4.222656 18.902344 4.097656 19.316406 4.140625 19.71875 C 4.183594 20.117188 4.386719 20.496094 4.699219 20.75 C 5.011719 21.003906 5.425781 21.125 5.828125 21.085938 L 10.914062 21.085938 L 10.914062 22.101562 L 5.828125 22.101562 C 5.773438 22.097656 5.71875 22.097656 5.667969 22.101562 C 5.613281 22.097656 5.5625 22.097656 5.507812 22.101562 C 5.109375 22.144531 4.730469 22.347656 4.476562 22.660156 C 4.222656 22.972656 4.097656 23.386719 4.140625 23.785156 C 4.183594 24.1875 4.386719 24.566406 4.699219 24.820312 C 5.011719 25.074219 5.425781 25.195312 5.828125 25.152344 L 10.914062 25.152344 L 10.914062 26.171875 L 5.828125 26.171875 C 5.773438 26.167969 5.71875 26.167969 5.667969 26.171875 C 5.613281 26.167969 5.5625 26.167969 5.507812 26.171875 C 5.109375 26.210938 4.730469 26.417969 4.476562 26.730469 C 4.222656 27.042969 4.097656 27.457031 4.140625 27.855469 C 4.183594 28.257812 4.386719 28.636719 4.699219 28.890625 C 5.011719 29.140625 5.425781 29.265625 5.828125 29.222656 L 11.421875 29.222656 C 11.496094 29.21875 11.570312 29.207031 11.644531 29.191406 C 11.65625 29.191406 11.664062 29.191406 11.675781 29.191406 C 11.757812 29.214844 11.84375 29.222656 11.929688 29.222656 L 20.070312 29.222656 C 20.101562 29.226562 20.132812 29.226562 20.164062 29.222656 C 20.175781 29.222656 20.1875 29.222656 20.195312 29.222656 C 20.324219 29.238281 20.449219 29.238281 20.578125 29.222656 L 26.171875 29.222656 C 26.578125 29.230469 26.980469 29.066406 27.265625 28.785156 C 27.554688 28.5 27.722656 28.101562 27.722656 27.699219 C 27.722656 27.292969 27.554688 26.894531 27.265625 26.609375 C 26.980469 26.328125 26.578125 26.164062 26.171875 26.171875 L 21.085938 26.171875 L 21.085938 25.152344 L 26.171875 25.152344 C 26.578125 25.160156 26.980469 24.996094 27.265625 24.714844 C 27.554688 24.433594 27.722656 24.03125 27.722656 23.628906 C 27.722656 23.226562 27.554688 22.824219 27.265625 22.542969 C 26.980469 22.257812 26.578125 22.097656 26.171875 22.101562 L 21.085938 22.101562 L 21.085938 21.085938 L 26.171875 21.085938 C 26.578125 21.089844 26.980469 20.929688 27.265625 20.644531 C 27.554688 20.363281 27.722656 19.960938 27.722656 19.558594 C 27.722656 19.15625 27.554688 18.753906 27.265625 18.472656 C 26.980469 18.1875 26.578125 18.027344 26.171875 18.03125 L 20.578125 18.03125 C 20.523438 18.03125 20.472656 18.03125 20.417969 18.03125 C 20.367188 18.03125 20.3125 18.03125 20.257812 18.03125 C 20.25 18.03125 20.238281 18.03125 20.226562 18.03125 C 20.175781 18.027344 20.121094 18.027344 20.070312 18.03125 L 11.929688 18.03125 C 11.898438 18.03125 11.867188 18.03125 11.835938 18.03125 C 11.804688 18.03125 11.769531 18.03125 11.738281 18.03125 C 11.71875 18.042969 11.695312 18.054688 11.675781 18.0625 C 11.664062 18.0625 11.65625 18.0625 11.644531 18.0625 C 11.570312 18.046875 11.496094 18.039062 11.421875 18.03125 L 5.828125 18.03125 C 5.773438 18.03125 5.71875 18.03125 5.667969 18.03125 C 5.613281 18.03125 5.5625 18.03125 5.507812 18.03125 Z M 12.949219 20.066406 L 18.957031 20.066406 L 18.988281 27.1875 L 12.949219 27.1875 L 12.949219 23.914062 C 12.972656 23.757812 12.972656 23.59375 12.949219 23.4375 C 12.949219 23.394531 12.949219 23.351562 12.949219 23.308594 Z M 12.949219 20.066406 "/>
</svg>
