<?xml version="1.0" encoding="UTF-8"?>
<svg xmlns="http://www.w3.org/2000/svg" xmlns:xlink="http://www.w3.org/1999/xlink" width="12" height="12" viewBox="0 0 12 12" version="1.1">
<g id="surface1">
<path style=" stroke:none;fill-rule:nonzero;fill:rgb(0%,0%,0%);fill-opacity:1;" d="M 6.03125 0.730469 C 5.792969 0.730469 5.546875 0.804688 5.347656 0.980469 C 5.148438 1.15625 5.019531 1.4375 5.019531 1.734375 C 5.019531 1.734375 5.019531 1.734375 5.019531 1.738281 L 5.019531 4.4375 L 1.171875 6.78125 C 1.101562 6.824219 1.046875 6.886719 1.003906 6.957031 C 0.964844 7.03125 0.945312 7.109375 0.945312 7.191406 L 0.945312 8.285156 C 0.945312 8.359375 0.960938 8.433594 0.996094 8.5 C 1.03125 8.570312 1.082031 8.628906 1.140625 8.671875 C 1.203125 8.714844 1.273438 8.746094 1.351562 8.757812 C 1.425781 8.769531 1.5 8.761719 1.574219 8.738281 L 5.058594 7.59375 L 5.058594 8.902344 L 4.296875 9.503906 C 4.242188 9.546875 4.195312 9.605469 4.164062 9.671875 C 4.132812 9.734375 4.117188 9.808594 4.117188 9.878906 L 4.117188 10.742188 C 4.117188 10.816406 4.132812 10.890625 4.167969 10.957031 C 4.199219 11.027344 4.25 11.085938 4.3125 11.128906 C 4.371094 11.171875 4.441406 11.203125 4.515625 11.214844 C 4.589844 11.226562 4.664062 11.222656 4.738281 11.199219 L 6.0625 10.789062 L 7.386719 11.199219 C 7.460938 11.222656 7.535156 11.226562 7.609375 11.214844 C 7.683594 11.203125 7.753906 11.171875 7.816406 11.128906 C 7.875 11.085938 7.925781 11.027344 7.957031 10.957031 C 7.992188 10.890625 8.011719 10.816406 8.011719 10.742188 L 8.011719 9.878906 C 8.011719 9.808594 7.992188 9.734375 7.960938 9.667969 C 7.929688 9.605469 7.882812 9.546875 7.824219 9.5 L 7.058594 8.902344 L 7.058594 7.59375 L 10.542969 8.738281 C 10.613281 8.761719 10.691406 8.769531 10.765625 8.757812 C 10.839844 8.746094 10.910156 8.714844 10.972656 8.671875 C 11.035156 8.628906 11.085938 8.570312 11.117188 8.5 C 11.152344 8.433594 11.171875 8.359375 11.171875 8.285156 L 11.171875 7.191406 C 11.171875 7.109375 11.148438 7.027344 11.109375 6.957031 C 11.066406 6.882812 11.007812 6.824219 10.9375 6.78125 L 7.039062 4.4375 L 7.039062 1.757812 C 7.039062 1.457031 6.914062 1.175781 6.714844 0.996094 C 6.519531 0.816406 6.273438 0.734375 6.03125 0.730469 Z M 6.027344 1.210938 C 6.292969 1.214844 6.558594 1.394531 6.558594 1.757812 L 6.558594 4.707031 L 10.691406 7.191406 L 10.691406 8.285156 L 6.578125 6.929688 L 6.578125 9.136719 L 7.53125 9.878906 L 7.53125 10.742188 L 6.0625 10.285156 L 4.59375 10.742188 L 4.59375 9.878906 L 5.539062 9.136719 L 5.539062 6.929688 L 1.421875 8.285156 L 1.421875 7.191406 L 5.496094 4.707031 L 5.496094 1.738281 C 5.5 1.386719 5.761719 1.207031 6.027344 1.210938 Z M 6.027344 1.210938 "/>
</g>
</svg>
