<?xml version="1.0" encoding="UTF-8"?>
<svg xmlns="http://www.w3.org/2000/svg" xmlns:xlink="http://www.w3.org/1999/xlink" width="32" height="32" viewBox="0 0 32 32">
<path fill-rule="nonzero" fill="rgb(100%, 100%, 100%)" fill-opacity="1" d="M 22.125 3.808594 L 19.75 9.984375 L 17.296875 9.984375 L 19.667969 3.808594 L 16.964844 3.808594 L 14.59375 9.984375 L 12.136719 9.984375 L 14.511719 3.808594 L 11.808594 3.808594 L 9.433594 9.984375 L 6.980469 9.984375 L 9.351562 3.808594 L 6.648438 3.808594 L 4.277344 9.984375 L 4.277344 28.191406 L 4.71875 28.191406 L 7.089844 22.015625 L 9.542969 22.015625 L 7.171875 28.191406 L 9.875 28.191406 L 12.25 22.015625 L 14.703125 22.015625 L 12.332031 28.191406 L 15.035156 28.191406 L 17.40625 22.015625 L 19.863281 22.015625 L 17.488281 28.191406 L 20.191406 28.191406 L 22.566406 22.015625 L 25.019531 22.015625 L 22.648438 28.191406 L 25.351562 28.191406 L 27.722656 22.015625 L 27.722656 3.808594 L 27.28125 3.808594 L 24.910156 9.984375 L 22.457031 9.984375 L 24.828125 3.808594 Z M 22.125 3.808594 "/>
</svg>
