<?xml version="1.0" encoding="UTF-8"?>
<svg xmlns="http://www.w3.org/2000/svg" xmlns:xlink="http://www.w3.org/1999/xlink" width="12" height="12" viewBox="0 0 12 12" version="1.1">
<defs>
<filter id="alpha" filterUnits="objectBoundingBox" x="0%" y="0%" width="100%" height="100%">
  <feColorMatrix type="matrix" in="SourceGraphic" values="0 0 0 0 1 0 0 0 0 1 0 0 0 0 1 0 0 0 1 0"/>
</filter>
<mask id="mask0">
  <g filter="url(#alpha)">
<rect x="0" y="0" width="12" height="12" style="fill:rgb(0%,0%,0%);fill-opacity:0.985122;stroke:none;"/>
  </g>
</mask>
<clipPath id="clip1">
  <rect x="0" y="0" width="12" height="12"/>
</clipPath>
<g id="surface5" clip-path="url(#clip1)">
<path style="fill-rule:nonzero;fill:rgb(5.882353%,36.078432%,94.117647%);fill-opacity:1;stroke-width:18.653299;stroke-linecap:round;stroke-linejoin:round;stroke:rgb(5.882353%,36.078432%,94.117647%);stroke-opacity:1;stroke-miterlimit:4;" d="M 330.592448 136.126302 C 310.579427 143.678385 283.391927 154.817708 273.007812 154.817708 C 262.8125 154.817708 254.505208 146.510417 254.505208 136.126302 C 254.505208 125.742188 262.8125 117.434896 273.007812 117.434896 C 282.825521 117.8125 311.145833 129.518229 330.592448 136.126302 Z M 330.592448 136.126302 " transform="matrix(0.0206897,0,0,0.0206897,0,0)"/>
</g>
<mask id="mask1">
  <g filter="url(#alpha)">
<rect x="0" y="0" width="12" height="12" style="fill:rgb(0%,0%,0%);fill-opacity:0.985122;stroke:none;"/>
  </g>
</mask>
<clipPath id="clip2">
  <rect x="0" y="0" width="12" height="12"/>
</clipPath>
<g id="surface8" clip-path="url(#clip2)">
<path style="fill-rule:nonzero;fill:rgb(5.882353%,36.078432%,94.117647%);fill-opacity:1;stroke-width:18.653299;stroke-linecap:round;stroke-linejoin:round;stroke:rgb(5.882353%,36.078432%,94.117647%);stroke-opacity:1;stroke-miterlimit:4;" d="M 312.65625 136.126302 C 332.480469 143.678385 359.856771 154.817708 370.052083 154.817708 C 380.247396 154.817708 388.554688 146.510417 388.554688 136.126302 C 388.554688 125.742188 380.247396 117.434896 370.052083 117.434896 C 360.423177 117.8125 331.914062 129.518229 312.65625 136.126302 Z M 312.65625 136.126302 " transform="matrix(0.0206897,0,0,0.0206897,0,0)"/>
</g>
<mask id="mask2">
  <g filter="url(#alpha)">
<rect x="0" y="0" width="12" height="12" style="fill:rgb(0%,0%,0%);fill-opacity:0.985122;stroke:none;"/>
  </g>
</mask>
<clipPath id="clip3">
  <rect x="0" y="0" width="12" height="12"/>
</clipPath>
<g id="surface11" clip-path="url(#clip3)">
<path style="fill-rule:nonzero;fill:rgb(5.882353%,36.078432%,94.117647%);fill-opacity:1;stroke-width:37.306599;stroke-linecap:round;stroke-linejoin:round;stroke:rgb(5.882353%,36.078432%,94.117647%);stroke-opacity:1;stroke-miterlimit:4;" d="M 321.341146 362.688802 C 342.864583 362.688802 360.234375 327.382812 360.234375 283.958333 C 360.234375 240.533854 342.864583 205.416667 321.341146 205.416667 C 299.817708 205.416667 282.447917 240.533854 282.447917 283.958333 C 282.447917 327.382812 299.817708 362.688802 321.341146 362.688802 Z M 321.341146 362.688802 " transform="matrix(0.0206897,0,0,0.0206897,0,0)"/>
</g>
</defs>
<g id="surface1">
<use xlink:href="#surface5" mask="url(#mask0)"/>
<use xlink:href="#surface8" mask="url(#mask1)"/>
<path style="fill:none;stroke-width:37.306599;stroke-linecap:round;stroke-linejoin:miter;stroke:rgb(5.882353%,36.078432%,94.117647%);stroke-opacity:1;stroke-miterlimit:4;" d="M 321.341146 135.182292 L 321.341146 249.407552 L 322.66276 293.776042 " transform="matrix(0.0206897,0,0,0.0206897,0,0)"/>
<use xlink:href="#surface11" mask="url(#mask2)"/>
<path style="fill:none;stroke-width:62.1777;stroke-linecap:butt;stroke-linejoin:miter;stroke:rgb(5.882353%,36.078432%,94.117647%);stroke-opacity:1;stroke-miterlimit:4;" d="M 528.834635 293.398438 L 224.863281 291.699219 L 200.885417 291.510417 C 82.128906 289.622396 89.68099 401.959635 89.68099 401.959635 " transform="matrix(0.0206897,0,0,0.0206897,0,0)"/>
</g>
</svg>
