<svg width="12" height="12" viewBox="0 0 580 580" fill="none" xmlns="http://www.w3.org/2000/svg">
<path d="M134.693 73.993L55.8401 152.846" stroke="#000000" stroke-width="19.2009" stroke-linecap="round"/>
<path d="M241.426 44.0082L162.573 122.861" stroke="#000000" stroke-width="19.2009" stroke-linecap="round"/>
<path d="M114.626 184.102L52.7446 245.984" stroke="#000000" stroke-width="19.2009" stroke-linecap="round"/>
<path d="M275.861 105.041L197.008 183.894" stroke="#000000" stroke-width="19.2009" stroke-linecap="round"/>
<path d="M456.757 87.9443L377.904 166.797" stroke="#000000" stroke-width="19.2009" stroke-linecap="round"/>
<path d="M546.205 80.6207L487.859 136.845" stroke="#000000" stroke-width="19.2009" stroke-linecap="round"/>
<path d="M548.327 157.796L487.859 216.849" stroke="#000000" stroke-width="19.2009" stroke-linecap="round"/>
<path d="M446.748 185.502L419.517 210.613" stroke="#000000" stroke-width="19.2009" stroke-linecap="round"/>
<path d="M353.965 119.468L314.712 157.306" stroke="#000000" stroke-width="19.2009" stroke-linecap="round"/>
<path d="M370.556 33.1566L324.231 80.8953" stroke="#000000" stroke-width="19.2009" stroke-linecap="round"/>
<path fill-rule="evenodd" clip-rule="evenodd" d="M85.405 316.554L294.81 204.872L504.214 316.554L490.193 330.832L420.185 302.594L294.735 287.496L168.998 302.376L99.3561 330.518L85.405 316.554Z" fill="#000000" stroke="#000000" stroke-width="18.7223" stroke-linecap="round" stroke-linejoin="round"/>
<path d="M432.247 301.451H405.35V527.111H432.247V301.451Z" fill="#000000" stroke="#000000" stroke-width="19.7454" stroke-linecap="round" stroke-linejoin="round"/>
<path d="M182.718 301.451H155.82V527.111H182.718V301.451Z" fill="#000000" stroke="#000000" stroke-width="19.7454" stroke-linecap="round" stroke-linejoin="round"/>
</svg>
