<?xml version="1.0" encoding="UTF-8"?>
<svg xmlns="http://www.w3.org/2000/svg" xmlns:xlink="http://www.w3.org/1999/xlink" width="32" height="32" viewBox="0 0 32 32">
<path fill="none" stroke-width="40" stroke-linecap="butt" stroke-linejoin="miter" stroke="rgb(5.882353%, 36.078431%, 94.117647%)" stroke-opacity="1" stroke-miterlimit="4" d="M 290 501.694336 C 406.89209 501.694336 501.694336 406.89209 501.694336 290 C 501.694336 173.10791 406.89209 78.305664 290 78.305664 C 173.10791 78.305664 78.305664 173.10791 78.305664 290 C 78.305664 406.89209 173.10791 501.694336 290 501.694336 Z M 290 501.694336 " transform="matrix(0.0551724, 0, 0, 0.0551724, 0, 0)"/>
<path fill-rule="nonzero" fill="rgb(5.882353%, 36.078431%, 94.117647%)" fill-opacity="1" d="M 16 19.40625 C 17.878906 19.40625 19.40625 17.878906 19.40625 16 C 19.40625 14.121094 17.878906 12.59375 16 12.59375 C 14.121094 12.59375 12.59375 14.121094 12.59375 16 C 12.59375 17.878906 14.121094 19.40625 16 19.40625 Z M 16 19.40625 "/>
</svg>
