<?xml version="1.0" encoding="UTF-8"?>
<svg xmlns="http://www.w3.org/2000/svg" xmlns:xlink="http://www.w3.org/1999/xlink" width="12" height="12" viewBox="0 0 12 12" version="1.1">
<g id="surface1">
<path style=" stroke:none;fill-rule:nonzero;fill:rgb(0%,0%,0%);fill-opacity:1;" d="M 2.5 6.699219 C 1.613281 7.128906 1 7.746094 1 8.5 C 1 9.265625 1.628906 9.886719 2.535156 10.316406 C 3.4375 10.746094 4.65625 11 6 11 C 7.34375 11 8.5625 10.746094 9.464844 10.316406 C 10.371094 9.886719 11 9.265625 11 8.5 C 11 7.746094 10.386719 7.128906 9.5 6.699219 L 9.5 7.265625 C 10.152344 7.628906 10.5 8.074219 10.5 8.5 C 10.5 8.976562 10.066406 9.480469 9.25 9.863281 C 8.441406 10.253906 7.28125 10.5 6 10.5 C 4.71875 10.5 3.5625 10.25 2.75 9.863281 C 1.929688 9.480469 1.5 8.976562 1.5 8.5 C 1.5 8.074219 1.847656 7.628906 2.5 7.265625 Z M 2.5 6.699219 "/>
<path style=" stroke:none;fill-rule:evenodd;fill:rgb(0%,0%,0%);fill-opacity:1;" d="M 4.5 8.5 L 4.5 9 L 9 9 L 9 8.5 Z M 4.5 8.5 "/>
<path style=" stroke:none;fill-rule:evenodd;fill:rgb(0%,0%,0%);fill-opacity:1;" d="M 3.5 7 L 3.5 7.5 L 8 7.5 L 8 7 Z M 3.5 7 "/>
<path style=" stroke:none;fill-rule:evenodd;fill:rgb(0%,0%,0%);fill-opacity:1;" d="M 3 5.5 L 3 6 L 7.5 6 L 7.5 5.5 Z M 3 5.5 "/>
<path style=" stroke:none;fill-rule:evenodd;fill:rgb(0%,0%,0%);fill-opacity:1;" d="M 3.5 4 L 3.5 4.5 L 7.5 4.5 L 7.5 4 Z M 3.5 4 "/>
<path style=" stroke:none;fill-rule:evenodd;fill:rgb(0%,0%,0%);fill-opacity:1;" d="M 4.5 2.5 L 4.5 3 L 7.5 3 L 7.5 2.5 Z M 4.5 2.5 "/>
<path style=" stroke:none;fill-rule:evenodd;fill:rgb(0%,0%,0%);fill-opacity:1;" d="M 5.5 1 L 5.5 1.5 L 8 1.5 L 8 1 Z M 5.5 1 "/>
</g>
</svg>
