<svg xmlns="http://www.w3.org/2000/svg" width="12" height="12" viewBox="0 0 48 48" fill="none" version="1.1" id="svg4"><path style="fill:#fff;fill-opacity:1;stroke-width:1" d="M35.91 14a2 2 0 0 0-1.95 1.55L32.74 20H11.18c-.5 0-.97.31-1.17.72-.2.41-.04.8.08 1.28l3.63 8.93c.18.71.72 1.07 1.46 1.07h14.24l-1.1 4h-10.4a4 4 0 1 0 4 4h4a4 4 0 1 0 6.4-3.2L37.5 18h2.41c2.7.04 2.7-4.04 0-4z" id="path2-3"/><path style="color:#000;font-style:normal;font-variant:normal;font-weight:400;font-stretch:normal;font-size:medium;line-height:normal;font-family:sans-serif;font-variant-ligatures:normal;font-variant-position:normal;font-variant-caps:normal;font-variant-numeric:normal;font-variant-alternates:normal;font-feature-settings:normal;text-indent:0;text-align:start;text-decoration:none;text-decoration-line:none;text-decoration-style:solid;text-decoration-color:#000;letter-spacing:normal;word-spacing:normal;text-transform:none;writing-mode:lr-tb;direction:ltr;text-orientation:mixed;dominant-baseline:auto;baseline-shift:baseline;text-anchor:start;white-space:normal;shape-padding:0;clip-rule:nonzero;display:inline;overflow:visible;visibility:visible;opacity:1;isolation:auto;mix-blend-mode:normal;color-interpolation:sRGB;color-interpolation-filters:linearRGB;solid-color:#000;solid-opacity:1;vector-effect:none;fill:#fff;fill-opacity:1;fill-rule:evenodd;stroke:none;stroke-width:4;stroke-linecap:round;stroke-linejoin:miter;stroke-miterlimit:4;stroke-dasharray:none;stroke-dashoffset:0;stroke-opacity:1;color-rendering:auto;image-rendering:auto;shape-rendering:auto;text-rendering:auto;enable-background:accumulate" d="M24 1.9L5.37 8.1a2 2 0 1 0 1.26 3.8L24 6.1l17.37 5.8a2 2 0 1 0 1.26-3.8z" id="path892"/></svg>
