<?xml version="1.0" encoding="UTF-8"?>
<svg xmlns="http://www.w3.org/2000/svg" xmlns:xlink="http://www.w3.org/1999/xlink" width="32" height="32" viewBox="0 0 32 32">
<path fill-rule="nonzero" fill="rgb(0%, 0%, 0%)" fill-opacity="1" d="M 13.765625 27.96875 C 13.320312 27.882812 12.460938 27.632812 11.851562 27.421875 C 8.726562 26.320312 5.710938 23.230469 4.582031 19.972656 C 4.191406 18.835938 3.9375 17.597656 3.953125 15.929688 C 3.96875 14.261719 4.191406 13.191406 4.582031 12.054688 C 5.65625 8.949219 8.371094 6.027344 11.367188 4.761719 C 12.453125 4.300781 14.871094 3.851562 16.265625 3.851562 C 18.347656 3.851562 22.289062 5.167969 23.085938 6.128906 C 23.496094 6.621094 23.113281 6.636719 21.105469 6.214844 C 19.496094 5.878906 18.960938 5.847656 17.71875 6.019531 C 14.136719 6.511719 10.914062 9.210938 9.628906 12.796875 C 9.019531 14.488281 9.019531 17.53125 9.621094 19.210938 C 10.875 22.695312 14.046875 25.414062 17.550781 26.015625 C 18.636719 26.203125 19.136719 26.171875 20.921875 25.8125 C 22.070312 25.582031 23.089844 25.464844 23.179688 25.550781 C 23.394531 25.757812 22.4375 26.4375 21.03125 27.082031 C 18.957031 28.03125 15.933594 28.402344 13.765625 27.96875 Z M 20.417969 19.960938 C 20.359375 19.863281 20.53125 19.121094 20.808594 18.3125 C 21.082031 17.507812 21.304688 16.820312 21.304688 16.792969 C 21.304688 16.761719 20.71875 16.316406 20 15.804688 C 19.28125 15.292969 18.691406 14.792969 18.691406 14.695312 C 18.691406 14.601562 19.4375 14.496094 20.351562 14.464844 L 22.007812 14.40625 L 22.53125 12.90625 C 22.820312 12.082031 23.148438 11.378906 23.265625 11.339844 C 23.382812 11.300781 23.71875 11.996094 24.015625 12.886719 L 24.554688 14.503906 L 26.265625 14.503906 C 27.207031 14.503906 27.941406 14.585938 27.90625 14.6875 C 27.867188 14.789062 27.273438 15.285156 26.582031 15.792969 C 25.890625 16.300781 25.324219 16.792969 25.324219 16.886719 C 25.324219 16.980469 25.507812 17.582031 25.726562 18.222656 C 26.117188 19.347656 26.238281 20.132812 26.03125 20.132812 C 25.976562 20.132812 25.378906 19.726562 24.703125 19.230469 C 24.027344 18.730469 23.386719 18.324219 23.285156 18.324219 C 23.183594 18.324219 22.625 18.667969 22.050781 19.089844 C 20.660156 20.109375 20.546875 20.171875 20.417969 19.960938 Z M 20.417969 19.960938 "/>
<path fill-rule="nonzero" fill="rgb(0%, 0%, 0%)" fill-opacity="1" d="M 23.234375 11.183594 C 22.804688 11.492188 22.722656 12.097656 22.496094 12.550781 C 22.289062 13.113281 22.097656 13.6875 21.898438 14.253906 C 20.8125 14.34375 19.664062 14.203125 18.621094 14.539062 C 18.359375 14.851562 18.894531 15.09375 19.074219 15.296875 C 19.734375 15.839844 20.460938 16.300781 21.128906 16.839844 C 20.84375 17.882812 20.320312 18.890625 20.257812 19.976562 C 20.4375 20.457031 20.984375 20.0625 21.238281 19.871094 C 21.921875 19.421875 22.5625 18.828125 23.300781 18.492188 C 24.242188 18.996094 25.042969 19.765625 25.984375 20.285156 C 26.40625 20.296875 26.285156 19.703125 26.234375 19.433594 C 26.078125 18.570312 25.648438 17.730469 25.507812 16.886719 C 26.28125 16.089844 27.308594 15.589844 28.046875 14.761719 C 28.09375 14.34375 27.480469 14.445312 27.214844 14.378906 C 26.367188 14.324219 25.515625 14.359375 24.667969 14.351562 C 24.265625 13.3125 24.082031 12.148438 23.421875 11.238281 C 23.371094 11.199219 23.300781 11.164062 23.234375 11.183594 Z M 23.234375 11.183594 "/>
</svg>
