<?xml version="1.0" encoding="UTF-8"?>
<svg xmlns="http://www.w3.org/2000/svg" xmlns:xlink="http://www.w3.org/1999/xlink" width="32" height="32" viewBox="0 0 32 32">
<path fill-rule="nonzero" fill="rgb(0%, 57.254902%, 85.490196%)" fill-opacity="1" stroke-width="3.67408" stroke-linecap="round" stroke-linejoin="round" stroke="rgb(0%, 57.254902%, 85.490196%)" stroke-opacity="1" stroke-miterlimit="4" d="M 301.257324 316.408691 C 301.540527 316.479492 302.460938 316.691895 304.018555 316.975098 C 329.082031 321.152344 352.375488 328.728027 364.978027 339.702148 C 377.509766 350.67627 383.811035 365.048828 383.811035 382.890625 C 383.811035 401.086426 376.943359 416.875 363.137207 430.256348 C 349.260254 443.637695 325.754395 450.859375 301.257324 451.992188 L 290.991211 465.585938 L 286.035156 465.585938 L 286.035156 452.346191 C 261.113281 449.938965 241.99707 443.071289 228.615723 431.743164 C 215.305176 420.415039 207.800293 404.484863 206.101074 384.094238 L 239.094238 379.138184 C 241.643066 394.501953 246.882324 406.254883 254.67041 414.538574 C 262.529297 422.822266 273.007812 427.565918 286.035156 428.69873 L 286.035156 339.702148 C 261.254883 335.100098 242.634277 327.524414 230.314941 316.833496 C 217.924805 306.213379 211.765137 292.478027 211.765137 275.698242 C 211.765137 258.989258 217.854004 244.6875 230.102539 232.722168 C 242.351074 220.756836 260.97168 213.88916 286.035156 211.977539 L 286.035156 198.666992 L 301.257324 198.666992 L 301.257324 211.977539 C 322.072754 213.747559 342.888184 219.34082 354.853516 228.757324 C 366.818848 238.173828 374.394531 251.413574 377.438965 268.405762 L 343.100586 272.583008 C 341.188965 262.033691 337.08252 253.679199 330.852051 247.519531 C 324.621582 241.359863 311.806641 237.39502 301.257324 235.625 Z M 286.035156 312.939453 L 286.035156 235.270996 C 272.724609 237.253418 262.529297 241.784668 255.449219 248.864746 C 248.369141 256.015625 244.758301 264.157715 244.758301 273.503418 C 244.758301 284.194336 248.439941 292.619629 255.803223 298.779297 C 263.166504 304.938965 273.220215 309.682617 286.035156 312.939453 Z M 301.257324 428.69873 C 314.143066 427.070312 329.082031 422.32666 337.436523 414.467773 C 345.720215 406.679688 349.897461 396.838379 349.897461 384.873047 C 349.897461 374.465332 346.782227 366.040039 340.480957 359.667969 C 334.179688 353.295898 318.178711 347.844238 301.257324 343.383789 Z M 301.257324 428.69873 " transform="matrix(0.0551724, 0, 0, 0.0551724, 0, 0)"/>
<path fill="none" stroke-width="33.922699" stroke-linecap="round" stroke-linejoin="round" stroke="rgb(0%, 57.254902%, 85.490196%)" stroke-opacity="1" stroke-miterlimit="4" d="M 295.593262 201.074219 L 295.593262 467.285156 " transform="matrix(0.0551724, 0, 0, 0.0551724, 0, 0)"/>
<path fill-rule="nonzero" fill="rgb(0%, 57.254902%, 85.490196%)" fill-opacity="1" d="M 27.808594 4.886719 C 27.519531 4.890625 27.242188 5.007812 27.042969 5.214844 C 26.839844 5.425781 26.730469 5.703125 26.734375 5.992188 L 26.734375 17.710938 L 21.777344 17.710938 C 22.605469 18.632812 23.066406 19.882812 23.066406 21.125 C 23.066406 21.671875 22.980469 22.210938 22.816406 22.730469 L 28.949219 22.730469 L 28.949219 17.710938 L 28.917969 17.710938 L 28.917969 5.992188 C 28.917969 5.847656 28.890625 5.703125 28.835938 5.566406 C 28.78125 5.429688 28.699219 5.308594 28.597656 5.203125 C 28.492188 5.101562 28.371094 5.019531 28.234375 4.964844 C 28.097656 4.910156 27.953125 4.882812 27.808594 4.886719 Z M 4.046875 4.96875 C 3.78125 4.972656 3.527344 5.082031 3.34375 5.273438 C 3.15625 5.464844 3.054688 5.722656 3.058594 5.988281 L 3.058594 17.710938 L 3.050781 17.710938 L 3.050781 22.730469 L 9.757812 22.730469 C 9.617188 22.285156 9.527344 21.820312 9.488281 21.351562 C 9.445312 20.871094 9.589844 20.398438 9.886719 20.019531 C 10.183594 19.644531 10.613281 19.394531 11.089844 19.324219 L 11.847656 19.210938 C 11.71875 19.117188 11.59375 19.015625 11.46875 18.910156 C 11.078125 18.570312 10.742188 18.164062 10.480469 17.710938 L 5.070312 17.710938 L 5.070312 5.988281 C 5.070312 5.855469 5.046875 5.71875 4.996094 5.59375 C 4.945312 5.46875 4.871094 5.355469 4.773438 5.261719 C 4.679688 5.167969 4.566406 5.089844 4.441406 5.039062 C 4.316406 4.992188 4.183594 4.964844 4.046875 4.96875 Z M 4.046875 4.96875 "/>
</svg>
