<?xml version="1.0" encoding="UTF-8"?>
<svg xmlns="http://www.w3.org/2000/svg" xmlns:xlink="http://www.w3.org/1999/xlink" width="32" height="32" viewBox="0 0 32 32">
<path fill-rule="nonzero" fill="rgb(100%, 100%, 100%)" fill-opacity="1" d="M 5.253906 16.382812 C 5.109375 14.8125 4.007812 8.257812 7.804688 5.070312 C 11.597656 1.878906 19.398438 1.164062 23.4375 4.648438 C 27.480469 8.128906 28.273438 15.496094 24.703125 18.746094 C 21.136719 21.996094 15.332031 19.945312 13.164062 17.300781 C 11 14.65625 11.1875 11.4375 12.792969 9.550781 C 14.394531 7.667969 18.429688 7.222656 20.308594 8.769531 C 22.183594 10.320312 22.410156 14.546875 20.925781 15.785156 C 19.441406 17.019531 17 15.308594 16.539062 14.570312 C 16.082031 13.832031 16.226562 14.234375 16.664062 13.910156 C 17.105469 13.589844 18.542969 14.925781 19.246094 14.21875 C 19.949219 13.507812 19.78125 11.691406 18.808594 10.847656 C 17.839844 10.007812 15.507812 9.84375 14.496094 10.90625 C 13.488281 11.972656 13.339844 13.746094 14.664062 15.394531 C 15.992188 17.046875 20.21875 19.480469 22.609375 17.472656 C 25.003906 15.460938 24.476562 9.300781 21.742188 6.972656 C 19.007812 4.644531 13.042969 4.9375 10.761719 7.832031 C 8.476562 10.726562 8.6875 13.699219 8.707031 14.769531 C 8.726562 15.839844 9.667969 18.480469 12.191406 20.144531 C 13.941406 21.296875 16.484375 22.644531 18.769531 22.792969 C 20.035156 22.878906 23.332031 22.582031 24.777344 22.6875 C 22.472656 23.558594 18.3125 24.324219 17.132812 25.222656 C 16.5625 26.816406 16.964844 27.71875 17.183594 29.3125 L 13.542969 29.265625 C 13.652344 27.058594 14.8125 25.21875 13.53125 24.214844 C 10.730469 22.765625 5.75 20.558594 5.253906 16.382812 Z M 5.253906 16.382812 "/>
</svg>
