<svg width="12" height="12" viewBox="0 0 48 48" fill="none" xmlns="http://www.w3.org/2000/svg">
<g opacity="0.5">
<path d="M10 8.66667L8 8V40H10V8.66667Z" fill="#ffffff"/>
<path d="M14 40H16V10.6667L14 10V40Z" fill="#ffffff"/>
<path d="M20 12V40H22V14.6667L20 12Z" fill="#ffffff"/>
<path d="M26 20V40H28V22.6667L26 20Z" fill="#ffffff"/>
<path d="M32 28V40H34V28H32Z" fill="#ffffff"/>
<path d="M38 28V40H40V28H38Z" fill="#ffffff"/>
</g>
<g opacity="0.3">
<path d="M10 36H14V34H10V36Z" fill="#ffffff"/>
<path d="M10 30H14V28H10V30Z" fill="#ffffff"/>
<path d="M10 24H14V22H10V24Z" fill="#ffffff"/>
<path d="M10 18H14V16H10V18Z" fill="#ffffff"/>
<path d="M16 16V18H20V16H16Z" fill="#ffffff"/>
<path d="M20 22L16 22V24L20 24V22Z" fill="#ffffff"/>
<path d="M22 24V22L26 22V24H22Z" fill="#ffffff"/>
<path d="M20 28H16V30H20V28Z" fill="#ffffff"/>
<path d="M22 30V28H26V30L22 30Z" fill="#ffffff"/>
<path d="M20 34H16V36H20V34Z" fill="#ffffff"/>
<path d="M22 36V34L26 34V36L22 36Z" fill="#ffffff"/>
<path d="M28 36H32V34H28V36Z" fill="#ffffff"/>
<path d="M28 30H32V28H28V30Z" fill="#ffffff"/>
<path d="M38 34H34V36H38V34Z" fill="#ffffff"/>
</g>
<path fill-rule="evenodd" clip-rule="evenodd" d="M19.2364 14.8108C16.6658 13.17 13.1764 12 8 12V8C13.8236 8 18.0842 9.33001 21.3886 11.4392C24.6627 13.529 26.8444 16.2902 28.6385 18.8531C29.0815 19.486 29.4935 20.0934 29.8875 20.6743C31.1564 22.5452 32.2394 24.1421 33.5783 25.4378C35.1876 26.9952 37.0783 28 40 28V32C35.9217 32 33.0624 30.5048 30.7967 28.3122C29.1305 26.6998 27.7333 24.6349 26.4203 22.6944C26.0624 22.1655 25.7107 21.6457 25.3615 21.1469C23.6556 18.7098 21.8373 16.471 19.2364 14.8108Z" fill="#ffffff"/>
<g opacity="0.8">
<path d="M30.513 10.0767C30.8754 10.4935 31.507 10.5377 31.9238 10.1754C32.3406 9.81305 32.3848 9.18142 32.0225 8.76461C31.6601 8.3478 31.0285 8.30363 30.6117 8.66596C30.1949 9.02829 30.1507 9.65991 30.513 10.0767Z" fill="#ffffff"/>
<path d="M33.1373 13.0956C33.4996 13.5124 34.1312 13.5565 34.548 13.1942C34.9649 12.8319 35.009 12.2003 34.6467 11.7834C34.2844 11.3666 33.6527 11.3225 33.2359 11.6848C32.8191 12.0471 32.7749 12.6788 33.1373 13.0956Z" fill="#ffffff"/>
<path d="M29.7583 10.7328C30.1207 11.1496 30.0765 11.7812 29.6597 12.1436L28.1503 13.4557L26.8381 11.9463L28.3476 10.6341C28.7644 10.2718 29.396 10.316 29.7583 10.7328Z" fill="#ffffff"/>
<path d="M32.2839 15.1624C32.7007 14.8001 32.7449 14.1684 32.3826 13.7516C32.0202 13.3348 31.3886 13.2906 30.9718 13.653L29.4624 14.9651L30.7745 16.4745L32.2839 15.1624Z" fill="#ffffff"/>
</g>
<path d="M26.5442 9.77229C26.8777 9.48243 27.383 9.51776 27.6729 9.85121L33.1838 16.1908C33.4736 16.5242 33.4383 17.0295 33.1048 17.3194L32.1992 18.1067C31.3656 18.8313 30.1023 18.743 29.3776 17.9094L25.4413 13.3811C24.7166 12.5475 24.805 11.2842 25.6386 10.5596L26.5442 9.77229Z" fill="#ffffff"/>
</svg>
