<?xml version="1.0" encoding="UTF-8"?>
<svg xmlns="http://www.w3.org/2000/svg" xmlns:xlink="http://www.w3.org/1999/xlink" width="32" height="32" viewBox="0 0 32 32">
<path fill="none" stroke-width="3.408" stroke-linecap="butt" stroke-linejoin="miter" stroke="rgb(93.333333%, 93.333333%, 93.333333%)" stroke-opacity="1" stroke-miterlimit="4" d="M 66.269531 1.77002 C 24.921875 1.77002 1.699219 23.151855 1.699219 66.835938 L 1.699219 516.916504 C 1.699219 557.768555 22.585449 579.150391 63.862305 579.150391 L 515.925293 579.150391 C 557.202148 579.150391 578.15918 558.830566 578.15918 516.916504 L 578.15918 66.835938 C 578.15918 24.213867 557.202148 1.77002 514.650879 1.77002 C 514.650879 1.77002 66.12793 1.628418 66.269531 1.77002 Z M 66.269531 1.77002 " transform="matrix(0.0551724, 0, 0, 0.0551724, 0, 0)"/>
<path fill-rule="nonzero" fill="rgb(100%, 100%, 100%)" fill-opacity="1" d="M 1.964844 25.984375 L 30.363281 25.984375 L 30.363281 24.332031 C 22.199219 16.671875 10.78125 16.597656 1.964844 24.332031 Z M 1.964844 25.984375 "/>
</svg>
