<?xml version="1.0" encoding="UTF-8"?>
<svg xmlns="http://www.w3.org/2000/svg" xmlns:xlink="http://www.w3.org/1999/xlink" width="12" height="12" viewBox="0 0 12 12" version="1.1">
<g id="surface1">
<path style=" stroke:none;fill-rule:evenodd;fill:rgb(24.705882%,24.705882%,24.705882%);fill-opacity:1;" d="M 2 8.222656 C 3.546875 9.832031 8.953125 9.105469 9.152344 4.511719 L 10 3.796875 L 9.171875 3.855469 L 9.792969 3.121094 L 8.765625 3.503906 C 7.371094 2.359375 5.652344 3.324219 5.894531 4.800781 C 4.367188 4.742188 3.339844 4.117188 2.507812 3.265625 C 2.363281 3.492188 1.953125 4.222656 2.867188 5.191406 L 2.226562 5.074219 C 2.304688 6.207031 2.957031 6.273438 3.488281 6.570312 L 2.921875 6.640625 C 2.953125 7.105469 3.527344 7.609375 4.277344 7.695312 C 3.402344 8.289062 2.171875 8.378906 2 8.222656 Z M 2 8.222656 "/>
</g>
</svg>
