<?xml version="1.0" encoding="UTF-8"?>
<svg xmlns="http://www.w3.org/2000/svg" xmlns:xlink="http://www.w3.org/1999/xlink" width="12" height="12" viewBox="0 0 12 12">
<defs>
<filter id="filter-remove-color" x="0%" y="0%" width="100%" height="100%">
<feColorMatrix color-interpolation-filters="sRGB" values="0 0 0 0 1 0 0 0 0 1 0 0 0 0 1 0 0 0 1 0" />
</filter>
<mask id="mask-0">
<g filter="url(#filter-remove-color)">
<rect x="-1.2" y="-1.2" width="14.4" height="14.4" fill="rgb(0%, 0%, 0%)" fill-opacity="0.5"/>
</g>
</mask>
<mask id="mask-1">
<g filter="url(#filter-remove-color)">
<rect x="-2.64" y="-2.64" width="17.28" height="17.28" fill="rgb(0%, 0%, 0%)" fill-opacity="0.5"/>
</g>
</mask>
<clipPath id="clip-0">
<path clip-rule="nonzero" d="M 1 2 L 12 2 L 12 12 L 1 12 Z M 1 2 "/>
</clipPath>
<clipPath id="clip-1">
<rect x="0" y="0" width="12" height="12"/>
</clipPath>
<g id="source-7" clip-path="url(#clip-1)">
<g clip-path="url(#clip-0)">
<path fill="none" stroke-width="16.4112" stroke-linecap="butt" stroke-linejoin="miter" stroke="rgb(100%, 100%, 100%)" stroke-opacity="1" stroke-miterlimit="4" d="M 393.652344 212.779948 C 370.996094 260.735677 348.339844 308.502604 325.683594 356.458333 C 313.033854 339.088542 300.384115 321.71875 287.545573 304.348958 C 248.463542 367.03125 209.759115 429.902344 170.299479 492.395833 C 293.209635 493.339844 416.119792 494.283854 539.029948 495.416667 C 492.773438 396.861979 446.139323 298.496094 399.69401 200.130208 C 397.617188 204.283854 395.729167 208.4375 393.652344 212.779948 Z M 393.652344 212.779948 " transform="matrix(0.0206897, 0, 0, 0.0206897, 0, 0)"/>
</g>
</g>
<mask id="mask-2">
<g filter="url(#filter-remove-color)">
<rect x="-2.64" y="-2.64" width="17.28" height="17.28" fill="rgb(0%, 0%, 0%)" fill-opacity="0.5"/>
</g>
</mask>
<clipPath id="clip-2">
<rect x="0" y="0" width="12" height="12"/>
</clipPath>
<g id="source-11" clip-path="url(#clip-2)">
<path fill-rule="nonzero" fill="rgb(100%, 100%, 100%)" fill-opacity="1" d="M 8.269531 3.742188 L 8.117188 4.066406 L 7.992188 4.328125 C 7.566406 5.234375 7.136719 6.140625 6.707031 7.042969 C 6.5 6.761719 6.292969 6.480469 6.085938 6.199219 L 5.9375 5.996094 L 5.804688 6.207031 C 4.996094 7.503906 4.195312 8.804688 3.378906 10.097656 L 3.21875 10.351562 L 3.523438 10.355469 C 6.066406 10.378906 8.609375 10.398438 11.148438 10.417969 L 11.421875 10.421875 L 11.304688 10.175781 C 10.347656 8.140625 9.382812 6.101562 8.421875 4.066406 Z M 8.269531 6.617188 C 8.320312 6.617188 8.371094 6.644531 8.402344 6.683594 C 8.554688 6.875 8.703125 7.03125 8.761719 7.054688 C 8.789062 7.066406 8.78125 7.070312 8.8125 7.050781 C 8.84375 7.027344 8.90625 6.964844 8.976562 6.832031 C 9.003906 6.773438 9.066406 6.738281 9.128906 6.738281 C 9.191406 6.738281 9.25 6.777344 9.277344 6.835938 L 10.660156 9.761719 C 10.710938 9.867188 10.621094 10.007812 10.507812 10.007812 L 4.253906 9.953125 C 4.195312 9.953125 4.136719 9.917969 4.109375 9.867188 C 4.078125 9.816406 4.082031 9.746094 4.113281 9.695312 L 5.34375 7.71875 C 5.398438 7.632812 5.535156 7.617188 5.605469 7.6875 C 5.714844 7.796875 5.8125 7.855469 5.925781 7.863281 C 6.039062 7.871094 6.199219 7.828125 6.433594 7.652344 C 6.503906 7.601562 6.621094 7.617188 6.671875 7.691406 L 6.78125 7.839844 L 7.226562 6.894531 C 7.253906 6.839844 7.3125 6.796875 7.375 6.796875 C 7.4375 6.792969 7.5 6.832031 7.53125 6.886719 C 7.574219 6.964844 7.617188 7.011719 7.652344 7.03125 C 7.683594 7.050781 7.703125 7.054688 7.742188 7.042969 C 7.820312 7.027344 7.972656 6.921875 8.128906 6.691406 C 8.160156 6.648438 8.214844 6.617188 8.269531 6.617188 Z M 8.269531 6.617188 "/>
</g>
<clipPath id="clip-3">
<rect x="0" y="0" width="12" height="12"/>
</clipPath>
<g id="source-13" clip-path="url(#clip-3)">
<g mask="url(#mask-1)">
<use xlink:href="#source-7"/>
</g>
<g mask="url(#mask-2)">
<use xlink:href="#source-11"/>
</g>
</g>
<mask id="mask-3">
<g filter="url(#filter-remove-color)">
<rect x="-1.2" y="-1.2" width="14.4" height="14.4" fill="rgb(0%, 0%, 0%)" fill-opacity="0.25"/>
</g>
</mask>
<mask id="mask-4">
<g filter="url(#filter-remove-color)">
<rect x="-2.64" y="-2.64" width="17.28" height="17.28" fill="rgb(0%, 0%, 0%)" fill-opacity="0.25"/>
</g>
</mask>
<clipPath id="clip-4">
<path clip-rule="nonzero" d="M 1 2 L 12 2 L 12 12 L 1 12 Z M 1 2 "/>
</clipPath>
<clipPath id="clip-5">
<rect x="0" y="0" width="12" height="12"/>
</clipPath>
<g id="source-19" clip-path="url(#clip-5)">
<g clip-path="url(#clip-4)">
<path fill="none" stroke-width="16.4112" stroke-linecap="butt" stroke-linejoin="miter" stroke="rgb(100%, 100%, 100%)" stroke-opacity="1" stroke-miterlimit="4" d="M 393.652344 212.779948 C 370.996094 260.735677 348.339844 308.502604 325.683594 356.458333 C 313.033854 339.088542 300.384115 321.71875 287.545573 304.348958 C 248.463542 367.03125 209.759115 429.902344 170.299479 492.395833 C 293.209635 493.339844 416.119792 494.283854 539.029948 495.416667 C 492.773438 396.861979 446.139323 298.496094 399.69401 200.130208 C 397.617188 204.283854 395.729167 208.4375 393.652344 212.779948 Z M 393.652344 212.779948 " transform="matrix(0.0206897, 0, 0, 0.0206897, 0, 0)"/>
</g>
</g>
<mask id="mask-5">
<g filter="url(#filter-remove-color)">
<rect x="-2.64" y="-2.64" width="17.28" height="17.28" fill="rgb(0%, 0%, 0%)" fill-opacity="0.25"/>
</g>
</mask>
<clipPath id="clip-6">
<rect x="0" y="0" width="12" height="12"/>
</clipPath>
<g id="source-23" clip-path="url(#clip-6)">
<path fill-rule="nonzero" fill="rgb(100%, 100%, 100%)" fill-opacity="1" d="M 8.269531 3.742188 L 8.117188 4.066406 L 7.992188 4.328125 C 7.566406 5.234375 7.136719 6.140625 6.707031 7.042969 C 6.5 6.761719 6.292969 6.480469 6.085938 6.199219 L 5.9375 5.996094 L 5.804688 6.207031 C 4.996094 7.503906 4.195312 8.804688 3.378906 10.097656 L 3.21875 10.351562 L 3.523438 10.355469 C 6.066406 10.378906 8.609375 10.398438 11.148438 10.417969 L 11.421875 10.421875 L 11.304688 10.175781 C 10.347656 8.140625 9.382812 6.101562 8.421875 4.066406 Z M 8.269531 3.742188 "/>
</g>
<clipPath id="clip-7">
<rect x="0" y="0" width="12" height="12"/>
</clipPath>
<g id="source-25" clip-path="url(#clip-7)">
<g mask="url(#mask-4)">
<use xlink:href="#source-19"/>
</g>
<g mask="url(#mask-5)">
<use xlink:href="#source-23"/>
</g>
</g>
</defs>
<g mask="url(#mask-0)">
<use xlink:href="#source-13"/>
</g>
<path fill-rule="evenodd" fill="rgb(100%, 100%, 100%)" fill-opacity="1" stroke-width="0.852351" stroke-linecap="butt" stroke-linejoin="miter" stroke="rgb(100%, 100%, 100%)" stroke-opacity="1" stroke-miterlimit="4" d="M 184.648438 66.269531 L 22.089844 206.549479 L 54.563802 206.549479 L 54.563802 417.063802 L 152.174479 417.063802 L 152.174479 310.201823 L 219.199219 310.201823 L 219.199219 417.063802 L 314.544271 417.063802 L 314.544271 206.549479 L 347.018229 206.549479 Z M 184.648438 66.269531 " transform="matrix(0.0206897, 0, 0, 0.0206897, 0, 0)"/>
<g mask="url(#mask-3)">
<use xlink:href="#source-25"/>
</g>
</svg>
