<?xml version="1.0" encoding="UTF-8"?>
<svg xmlns="http://www.w3.org/2000/svg" xmlns:xlink="http://www.w3.org/1999/xlink" width="32" height="32" viewBox="0 0 32 32">
<path fill-rule="nonzero" fill="rgb(5.882353%, 36.078431%, 94.117647%)" fill-opacity="1" d="M 9.019531 18.972656 L 6.027344 18.972656 C 3.832031 23.960938 14.40625 25.65625 19.089844 24.257812 C 17.097656 24.359375 5.128906 22.464844 9.019531 18.972656 Z M 9.019531 18.972656 "/>
<path fill-rule="nonzero" fill="rgb(5.882353%, 36.078431%, 94.117647%)" fill-opacity="1" d="M 20.585938 15.980469 L 20.585938 18.972656 C 21.785156 18.972656 22.980469 19.472656 22.980469 20.667969 C 22.980469 22.363281 15.601562 22.761719 15.601562 22.761719 C 21.085938 23.460938 24.976562 22.164062 24.976562 19.972656 C 24.976562 17.777344 22.980469 15.980469 20.585938 15.980469 Z M 20.585938 15.980469 "/>
<path fill-rule="nonzero" fill="rgb(5.882353%, 36.078431%, 94.117647%)" fill-opacity="1" d="M 20.988281 15.945312 L 20.988281 18.011719 C 24.15625 18.011719 25.9375 20.492188 25.9375 21.964844 C 25.9375 22.496094 25.742188 22.929688 25.269531 23.40625 C 24.800781 23.882812 24.039062 24.347656 23.066406 24.730469 C 21.117188 25.496094 18.34375 25.917969 15.5 25.917969 C 12.695312 25.917969 10.207031 25.359375 8.507812 24.539062 C 6.8125 23.71875 6.0625 22.726562 6.0625 21.964844 C 6.0625 21.492188 6.34375 20.664062 6.875 20.046875 C 7.402344 19.429688 8.101562 19.011719 9.019531 19.011719 L 9.019531 16.941406 C 7.441406 16.941406 6.148438 17.71875 5.304688 18.699219 C 4.464844 19.679688 3.996094 20.84375 3.996094 21.964844 C 3.996094 23.898438 5.542969 25.398438 7.609375 26.398438 C 9.675781 27.398438 12.425781 27.984375 15.5 27.984375 C 18.542969 27.984375 21.503906 27.5625 23.820312 26.65625 C 24.976562 26.203125 25.980469 25.628906 26.738281 24.859375 C 27.5 24.09375 28.003906 23.082031 28.003906 21.964844 C 28.003906 19.050781 25.199219 15.945312 20.988281 15.945312 Z M 20.988281 15.945312 "/>
<path fill-rule="nonzero" fill="rgb(5.882353%, 36.078431%, 94.117647%)" fill-opacity="1" d="M 13.007812 5.011719 C 13.007812 5.011719 10.117188 4.015625 4.03125 4.015625 L 4.03125 21.964844 C 5.128906 18.875 9.019531 17.976562 9.019531 17.976562 C 9.019531 8.902344 13.007812 5.011719 13.007812 5.011719 Z M 13.007812 5.011719 "/>
<path fill-rule="nonzero" fill="rgb(5.882353%, 36.078431%, 94.117647%)" fill-opacity="1" d="M 21.984375 5.011719 C 21.984375 5.011719 24.675781 4.015625 27.96875 4.015625 L 27.96875 21.867188 C 27.96875 20.667969 24.578125 18.972656 19.988281 18.972656 C 19.988281 11.894531 20.886719 7.503906 21.984375 5.011719 Z M 21.984375 5.011719 "/>
<path fill-rule="nonzero" fill="rgb(5.882353%, 36.078431%, 94.117647%)" fill-opacity="1" d="M 19.492188 5.011719 C 17.394531 5.011719 16 11.59375 16 19.972656 C 16 20.46875 16.398438 20.96875 16.996094 20.96875 C 17.496094 20.96875 17.996094 20.570312 17.996094 19.972656 C 17.996094 13.988281 18.59375 5.609375 20.488281 5.011719 Z M 19.492188 5.011719 "/>
<path fill-rule="nonzero" fill="rgb(5.882353%, 36.078431%, 94.117647%)" fill-opacity="1" d="M 16.101562 5.011719 C 14.105469 5.011719 11.011719 10.199219 11.011719 19.972656 C 11.011719 20.46875 11.414062 20.96875 12.011719 20.96875 C 12.507812 20.96875 13.007812 20.570312 13.007812 19.972656 C 13.007812 10.398438 15.101562 5.609375 16.996094 5.011719 Z M 16.101562 5.011719 "/>
</svg>
