<?xml version="1.0" encoding="UTF-8"?>
<svg xmlns="http://www.w3.org/2000/svg" xmlns:xlink="http://www.w3.org/1999/xlink" width="32" height="32" viewBox="0 0 32 32">
<defs>
<filter id="filter-remove-color" x="0%" y="0%" width="100%" height="100%">
<feColorMatrix color-interpolation-filters="sRGB" values="0 0 0 0 1 0 0 0 0 1 0 0 0 0 1 0 0 0 1 0" />
</filter>
<mask id="mask-0">
<g filter="url(#filter-remove-color)">
<rect x="-3.2" y="-3.2" width="38.4" height="38.4" fill="rgb(0%, 0%, 0%)" fill-opacity="0.985122"/>
</g>
</mask>
<clipPath id="clip-0">
<rect x="0" y="0" width="32" height="32"/>
</clipPath>
<g id="source-6" clip-path="url(#clip-0)">
<path fill-rule="nonzero" fill="rgb(5.882353%, 36.078431%, 94.117647%)" fill-opacity="1" stroke-width="18.653299" stroke-linecap="round" stroke-linejoin="round" stroke="rgb(5.882353%, 36.078431%, 94.117647%)" stroke-opacity="1" stroke-miterlimit="4" d="M 330.568848 136.149902 C 310.603027 143.654785 283.344727 154.841309 273.078613 154.841309 C 262.883301 154.841309 254.528809 146.486816 254.528809 136.149902 C 254.528809 125.812988 262.883301 117.387695 273.078613 117.387695 C 282.849121 117.8125 311.169434 129.423828 330.568848 136.149902 Z M 330.568848 136.149902 " transform="matrix(0.0551724, 0, 0, 0.0551724, 0, 0)"/>
</g>
<mask id="mask-1">
<g filter="url(#filter-remove-color)">
<rect x="-3.2" y="-3.2" width="38.4" height="38.4" fill="rgb(0%, 0%, 0%)" fill-opacity="0.985122"/>
</g>
</mask>
<clipPath id="clip-1">
<rect x="0" y="0" width="32" height="32"/>
</clipPath>
<g id="source-10" clip-path="url(#clip-1)">
<path fill-rule="nonzero" fill="rgb(5.882353%, 36.078431%, 94.117647%)" fill-opacity="1" stroke-width="18.653299" stroke-linecap="round" stroke-linejoin="round" stroke="rgb(5.882353%, 36.078431%, 94.117647%)" stroke-opacity="1" stroke-miterlimit="4" d="M 312.65625 136.149902 C 332.55127 143.654785 359.880371 154.841309 370.075684 154.841309 C 380.341797 154.841309 388.625488 146.486816 388.625488 136.149902 C 388.625488 125.812988 380.341797 117.387695 370.075684 117.387695 C 360.305176 117.8125 331.984863 129.423828 312.65625 136.149902 Z M 312.65625 136.149902 " transform="matrix(0.0551724, 0, 0, 0.0551724, 0, 0)"/>
</g>
<mask id="mask-2">
<g filter="url(#filter-remove-color)">
<rect x="-3.2" y="-3.2" width="38.4" height="38.4" fill="rgb(0%, 0%, 0%)" fill-opacity="0.985122"/>
</g>
</mask>
<clipPath id="clip-2">
<rect x="0" y="0" width="32" height="32"/>
</clipPath>
<g id="source-15" clip-path="url(#clip-2)">
<path fill-rule="nonzero" fill="rgb(5.882353%, 36.078431%, 94.117647%)" fill-opacity="1" stroke-width="37.306599" stroke-linecap="round" stroke-linejoin="round" stroke="rgb(5.882353%, 36.078431%, 94.117647%)" stroke-opacity="1" stroke-miterlimit="4" d="M 321.293945 362.641602 C 342.746582 362.641602 360.234375 327.453613 360.234375 283.981934 C 360.234375 240.581055 342.746582 205.393066 321.293945 205.393066 C 299.770508 205.393066 282.353516 240.581055 282.353516 283.981934 C 282.353516 327.453613 299.770508 362.641602 321.293945 362.641602 Z M 321.293945 362.641602 " transform="matrix(0.0551724, 0, 0, 0.0551724, 0, 0)"/>
</g>
</defs>
<g mask="url(#mask-0)">
<use xlink:href="#source-6"/>
</g>
<g mask="url(#mask-1)">
<use xlink:href="#source-10"/>
</g>
<path fill="none" stroke-width="37.306599" stroke-linecap="round" stroke-linejoin="miter" stroke="rgb(5.882353%, 36.078431%, 94.117647%)" stroke-opacity="1" stroke-miterlimit="4" d="M 321.293945 135.229492 L 321.293945 249.360352 L 322.63916 293.823242 " transform="matrix(0.0551724, 0, 0, 0.0551724, 0, 0)"/>
<g mask="url(#mask-2)">
<use xlink:href="#source-15"/>
</g>
<path fill="none" stroke-width="62.1777" stroke-linecap="butt" stroke-linejoin="miter" stroke="rgb(5.882353%, 36.078431%, 94.117647%)" stroke-opacity="1" stroke-miterlimit="4" d="M 528.881836 293.327637 L 224.934082 291.628418 L 200.791016 291.486816 C 82.199707 289.645996 89.633789 401.936035 89.633789 401.936035 " transform="matrix(0.0551724, 0, 0, 0.0551724, 0, 0)"/>
</svg>
