<?xml version="1.0" encoding="UTF-8"?>
<svg xmlns="http://www.w3.org/2000/svg" xmlns:xlink="http://www.w3.org/1999/xlink" width="32" height="32" viewBox="0 0 32 32">
<path fill-rule="nonzero" fill="rgb(0%, 0%, 0%)" fill-opacity="1" d="M 16.226562 4.429688 C 16.089844 4.429688 15.957031 4.433594 15.820312 4.433594 L 15.804688 4.433594 C 13.707031 4.476562 11.941406 4.921875 10.46875 5.570312 C 10.820312 5.785156 11.183594 6.070312 11.535156 6.425781 C 12.261719 7.164062 12.929688 8.210938 13.089844 9.484375 C 14.175781 9.09375 15.4375 8.898438 16.890625 8.988281 C 17.355469 9.015625 17.792969 9.074219 18.207031 9.160156 C 18.84375 8.167969 18.863281 7.101562 18.667969 6.183594 C 18.5625 5.675781 18.386719 5.222656 18.21875 4.894531 C 18.140625 4.742188 18.066406 4.621094 18.003906 4.53125 C 17.441406 4.46875 16.847656 4.433594 16.226562 4.429688 Z M 19.367188 4.753906 C 19.378906 4.777344 19.386719 4.800781 19.398438 4.824219 C 19.402344 4.804688 19.40625 4.785156 19.414062 4.761719 C 19.398438 4.761719 19.382812 4.757812 19.367188 4.753906 Z M 9.289062 6.226562 C 9.242188 6.238281 9.195312 6.246094 9.148438 6.25 C 5.492188 8.398438 4.097656 11.695312 4.097656 11.695312 C 4.066406 11.765625 4.023438 11.832031 3.972656 11.886719 C 4.15625 12.054688 4.417969 12.257812 4.765625 12.46875 C 5.5625 12.945312 6.789062 13.445312 8.507812 13.632812 C 8.667969 13.328125 8.839844 13.023438 9.035156 12.726562 C 9.738281 11.648438 10.722656 10.652344 12.019531 9.957031 C 11.984375 8.828125 11.414062 7.875 10.75 7.203125 C 10.394531 6.84375 10.019531 6.566406 9.714844 6.40625 C 9.421875 6.246094 9.152344 6.265625 9.289062 6.226562 Z M 19.871094 7.320312 C 19.851562 8.015625 19.691406 8.753906 19.308594 9.460938 C 19.742188 9.613281 20.144531 9.800781 20.511719 10.011719 Z M 16.171875 10.34375 C 15.058594 10.339844 14.117188 10.523438 13.316406 10.839844 C 13.601562 10.960938 13.875 11.121094 14.125 11.304688 C 14.644531 11.6875 15.074219 12.195312 15.308594 12.769531 C 15.882812 12.609375 16.496094 12.554688 17.128906 12.636719 C 17.15625 12.316406 17.132812 11.90625 17.011719 11.515625 C 16.867188 11.054688 16.617188 10.632812 16.242188 10.34375 C 16.21875 10.34375 16.195312 10.34375 16.171875 10.34375 Z M 17.398438 10.417969 C 17.574219 10.6875 17.707031 10.976562 17.796875 11.269531 C 17.964844 11.804688 18.023438 12.347656 17.953125 12.820312 C 18.128906 12.878906 18.304688 12.941406 18.484375 13.023438 C 18.867188 13.195312 19.207031 13.402344 19.511719 13.640625 C 19.882812 12.949219 20.007812 12.1875 19.613281 11.046875 C 18.996094 10.742188 18.265625 10.527344 17.398438 10.417969 Z M 12.074219 11.5 C 11.289062 12.039062 10.679688 12.730469 10.191406 13.480469 C 10.175781 13.503906 10.15625 13.53125 10.140625 13.558594 C 10.359375 13.523438 10.585938 13.503906 10.8125 13.503906 C 11.546875 13.507812 12.335938 13.753906 12.890625 14.34375 C 13.320312 13.839844 13.847656 13.417969 14.441406 13.113281 C 14.277344 12.726562 13.96875 12.339844 13.574219 12.046875 C 13.125 11.71875 12.585938 11.515625 12.074219 11.5 Z M 20.5625 11.644531 C 20.714844 12.652344 20.492188 13.480469 20.09375 14.183594 C 20.203125 14.308594 20.308594 14.4375 20.402344 14.566406 L 21.246094 13.089844 L 20.996094 12.035156 C 20.859375 11.898438 20.714844 11.769531 20.5625 11.644531 Z M 16.378906 13.957031 C 16.019531 13.96875 15.683594 14.039062 15.363281 14.167969 C 15.542969 14.253906 15.691406 14.335938 15.820312 14.429688 C 16.042969 14.597656 16.1875 14.78125 16.332031 14.984375 C 16.578125 14.953125 16.816406 14.953125 17.042969 14.984375 C 17.023438 14.894531 16.992188 14.8125 16.953125 14.722656 C 16.863281 14.539062 16.699219 14.304688 16.378906 13.957031 Z M 17.25 14.050781 C 17.355469 14.195312 17.4375 14.328125 17.5 14.460938 C 17.617188 14.707031 17.660156 14.933594 17.691406 15.175781 C 17.84375 15.25 17.984375 15.339844 18.113281 15.445312 C 18.152344 15.359375 18.183594 15.273438 18.207031 15.175781 C 18.242188 15.003906 18.257812 14.78125 18.238281 14.441406 C 18.136719 14.382812 18.03125 14.332031 17.917969 14.28125 C 17.691406 14.179688 17.46875 14.105469 17.25 14.050781 Z M 10.8125 14.429688 C 10.351562 14.429688 9.871094 14.566406 9.515625 14.734375 C 9.027344 15.847656 8.78125 16.976562 8.6875 17.8125 C 9.3125 17.386719 10.046875 17.132812 10.792969 17.101562 C 11.058594 17.09375 11.324219 17.109375 11.585938 17.160156 C 11.707031 16.429688 11.96875 15.734375 12.335938 15.117188 C 11.980469 14.609375 11.429688 14.433594 10.8125 14.429688 Z M 14.675781 14.546875 C 14.429688 14.722656 14.203125 14.933594 13.996094 15.171875 C 14.277344 15.214844 14.496094 15.273438 14.6875 15.351562 C 14.796875 15.398438 14.898438 15.453125 14.988281 15.511719 C 15.199219 15.363281 15.433594 15.238281 15.691406 15.144531 C 15.621094 15.058594 15.550781 14.988281 15.457031 14.921875 C 15.304688 14.808594 15.074219 14.691406 14.675781 14.546875 Z M 18.796875 14.828125 C 18.792969 15.003906 18.773438 15.15625 18.742188 15.292969 C 18.691406 15.519531 18.609375 15.699219 18.511719 15.878906 C 18.632812 16.050781 18.726562 16.234375 18.796875 16.425781 C 18.875 16.367188 18.941406 16.304688 19.007812 16.226562 C 19.128906 16.082031 19.25 15.871094 19.402344 15.515625 C 19.242188 15.269531 19.042969 15.039062 18.796875 14.828125 Z M 13.578125 15.734375 C 13.40625 16.007812 13.261719 16.304688 13.148438 16.617188 C 13.347656 16.558594 13.523438 16.527344 13.683594 16.519531 C 13.839844 16.507812 13.980469 16.519531 14.117188 16.542969 C 14.136719 16.5 14.15625 16.457031 14.179688 16.414062 C 14.273438 16.246094 14.386719 16.085938 14.515625 15.941406 C 14.496094 15.929688 14.472656 15.917969 14.453125 15.910156 C 14.273438 15.835938 14.011719 15.777344 13.578125 15.734375 Z M 16.886719 16.359375 C 16.914062 16.40625 16.9375 16.453125 16.960938 16.503906 C 17.011719 16.628906 17.054688 16.679688 17.070312 16.824219 C 17.191406 16.867188 17.308594 16.929688 17.40625 17 C 17.417969 16.964844 17.429688 16.929688 17.4375 16.890625 C 17.464844 16.757812 17.464844 16.699219 17.460938 16.554688 C 17.390625 16.5 17.308594 16.453125 17.195312 16.417969 C 17.109375 16.390625 17.007812 16.371094 16.886719 16.359375 Z M 16.472656 16.382812 C 16.167969 16.402344 15.9375 16.5 15.746094 16.644531 C 15.792969 16.65625 15.835938 16.667969 15.878906 16.683594 C 16.019531 16.75 16.160156 16.8125 16.292969 16.894531 C 16.421875 16.847656 16.558594 16.796875 16.695312 16.808594 C 16.675781 16.726562 16.671875 16.710938 16.636719 16.636719 C 16.59375 16.546875 16.476562 16.378906 16.472656 16.382812 Z M 17.808594 16.847656 C 17.808594 16.898438 17.808594 16.949219 17.804688 17.003906 C 17.800781 17.085938 17.773438 17.15625 17.75 17.238281 C 17.777344 17.371094 17.757812 17.585938 17.695312 17.761719 C 17.945312 17.503906 17.9375 17.117188 17.808594 16.847656 Z M 19.089844 16.863281 C 19.039062 16.898438 18.992188 16.933594 18.941406 16.96875 C 18.945312 17.011719 18.953125 17.054688 18.957031 17.097656 Z M 15.441406 17.003906 C 15.300781 17.210938 15.207031 17.472656 15.164062 17.757812 C 15.3125 17.699219 15.484375 17.644531 15.679688 17.601562 C 15.742188 17.433594 15.839844 17.269531 15.988281 17.136719 C 15.90625 17.09375 15.824219 17.058594 15.738281 17.039062 C 15.710938 17.03125 15.679688 17.023438 15.648438 17.015625 C 15.582031 17.003906 15.511719 17.003906 15.441406 17.003906 Z M 13.808594 17.121094 C 13.78125 17.121094 13.75 17.121094 13.722656 17.125 C 13.542969 17.136719 13.308594 17.1875 12.960938 17.3125 C 12.902344 17.625 12.875 17.949219 12.886719 18.273438 C 13.082031 18.125 13.25 18.023438 13.417969 17.949219 C 13.554688 17.886719 13.6875 17.847656 13.820312 17.820312 C 13.824219 17.585938 13.855469 17.355469 13.910156 17.128906 C 13.875 17.125 13.84375 17.121094 13.808594 17.121094 Z M 15.597656 17.949219 C 15.429688 18.035156 15.292969 18.117188 15.183594 18.207031 C 15.257812 18.546875 15.40625 18.871094 15.613281 19.144531 C 15.671875 18.976562 15.753906 18.808594 15.871094 18.632812 C 15.71875 18.425781 15.628906 18.1875 15.597656 17.949219 Z M 10.957031 18.074219 C 10.125 18.085938 9.253906 18.476562 8.664062 19.105469 C 8.726562 20.0625 8.941406 21.453125 9.546875 22.8125 C 9.648438 22.304688 9.824219 21.867188 10.070312 21.496094 C 10.523438 20.808594 11.191406 20.40625 11.902344 20.191406 C 11.628906 19.515625 11.503906 18.816406 11.503906 18.128906 C 11.324219 18.089844 11.140625 18.074219 10.957031 18.074219 Z M 13.863281 18.433594 C 13.796875 18.449219 13.730469 18.472656 13.664062 18.5 C 13.492188 18.578125 13.28125 18.71875 12.972656 18.984375 C 13.054688 19.378906 13.195312 19.765625 13.402344 20.140625 C 13.402344 20.140625 13.402344 20.144531 13.402344 20.144531 C 13.503906 19.925781 13.601562 19.753906 13.710938 19.609375 C 13.824219 19.460938 13.945312 19.347656 14.078125 19.246094 C 13.980469 18.992188 13.910156 18.730469 13.867188 18.464844 C 13.867188 18.453125 13.863281 18.445312 13.863281 18.433594 Z M 16.121094 18.90625 C 16 19.09375 15.933594 19.265625 15.898438 19.453125 C 16.136719 19.667969 16.421875 19.820312 16.738281 19.878906 C 16.742188 19.878906 16.742188 19.878906 16.746094 19.878906 C 16.753906 19.878906 16.761719 19.878906 16.769531 19.878906 C 16.6875 19.675781 16.640625 19.453125 16.625 19.183594 C 16.429688 19.121094 16.261719 19.023438 16.121094 18.90625 Z M 17.617188 19.195312 C 17.425781 19.25 17.222656 19.273438 17.015625 19.257812 C 17.035156 19.527344 17.101562 19.726562 17.21875 19.925781 C 17.375 19.925781 17.523438 19.917969 17.664062 19.898438 L 17.757812 19.382812 C 17.710938 19.324219 17.664062 19.261719 17.617188 19.195312 Z M 14.355469 19.824219 C 14.300781 19.875 14.253906 19.925781 14.207031 19.984375 C 14.089844 20.140625 13.96875 20.375 13.816406 20.78125 C 14.054688 21.097656 14.320312 21.367188 14.601562 21.59375 C 14.605469 21.425781 14.621094 21.277344 14.648438 21.144531 C 14.699219 20.90625 14.785156 20.714844 14.886719 20.523438 C 14.683594 20.3125 14.503906 20.078125 14.355469 19.824219 Z M 15.414062 20.960938 C 15.363281 21.066406 15.328125 21.164062 15.304688 21.277344 C 15.269531 21.445312 15.257812 21.679688 15.285156 22.042969 C 15.617188 22.21875 15.964844 22.351562 16.324219 22.4375 C 16.238281 22.203125 16.199219 21.980469 16.195312 21.761719 C 16.191406 21.617188 16.203125 21.480469 16.226562 21.347656 C 15.929688 21.257812 15.660156 21.125 15.414062 20.960938 Z M 12.425781 21.199219 C 11.808594 21.335938 11.320312 21.605469 10.988281 22.105469 C 10.667969 22.59375 10.472656 23.359375 10.59375 24.558594 C 10.824219 24.855469 11.085938 25.140625 11.375 25.410156 L 12.960938 24.6875 C 13.089844 24.628906 13.226562 24.589844 13.367188 24.574219 L 13.730469 24.535156 C 13.859375 23.972656 14.082031 23.472656 14.308594 23.058594 C 13.585938 22.609375 12.9375 21.992188 12.425781 21.199219 Z M 16.851562 21.46875 C 16.835938 21.566406 16.828125 21.660156 16.828125 21.753906 C 16.832031 21.992188 16.890625 22.25 17.078125 22.558594 C 17.117188 22.558594 17.15625 22.5625 17.191406 22.5625 L 17.382812 21.496094 C 17.207031 21.5 17.03125 21.492188 16.851562 21.46875 Z M 15.300781 23.546875 C 15.15625 23.808594 15.019531 24.101562 14.917969 24.40625 L 16.902344 24.191406 L 16.949219 23.925781 C 16.390625 23.878906 15.832031 23.753906 15.300781 23.546875 Z M 15.300781 23.546875 "/>
<path fill-rule="evenodd" fill="rgb(0%, 0%, 0%)" fill-opacity="1" d="M 24.070312 3.714844 L 20.695312 5.074219 L 22.464844 12.5 C 22.550781 12.539062 22.628906 12.597656 22.695312 12.671875 L 25.65625 15.992188 L 27.785156 15.757812 C 28.167969 15.707031 28.511719 15.980469 28.554688 16.363281 C 28.597656 16.746094 28.320312 17.089844 27.9375 17.125 L 25.457031 17.402344 C 25.234375 17.425781 25.011719 17.34375 24.863281 17.175781 L 22.164062 14.148438 L 19.066406 19.570312 L 18.199219 24.457031 L 22.496094 25.996094 L 23.015625 25.339844 C 23.25 25.03125 23.691406 24.976562 23.992188 25.214844 C 24.292969 25.453125 24.34375 25.894531 24.101562 26.191406 L 23.273438 27.242188 C 23.089844 27.472656 22.777344 27.5625 22.5 27.464844 L 17.292969 25.597656 C 17.226562 25.578125 17.160156 25.542969 17.105469 25.5 L 13.511719 25.886719 L 8.320312 28.265625 L 9.929688 28.761719 L 23.347656 28.761719 C 25.617188 28.582031 29.246094 25.425781 29.164062 23.007812 L 29.253906 9.5625 C 28.28125 6.339844 26.015625 4.992188 24.070312 3.714844 Z M 24.070312 3.714844 "/>
</svg>
