<?xml version="1.0" encoding="UTF-8"?>
<svg xmlns="http://www.w3.org/2000/svg" xmlns:xlink="http://www.w3.org/1999/xlink" width="32" height="32" viewBox="0 0 32 32">
<path fill-rule="evenodd" fill="rgb(24.705882%, 24.705882%, 24.705882%)" fill-opacity="1" d="M 5.332031 21.929688 C 9.453125 26.214844 23.875 24.28125 24.40625 12.027344 L 26.667969 10.121094 L 24.457031 10.28125 L 26.113281 8.324219 L 23.378906 9.347656 C 19.65625 6.289062 15.070312 8.867188 15.722656 12.800781 C 11.644531 12.644531 8.902344 10.980469 6.6875 8.710938 C 6.296875 9.3125 5.207031 11.261719 7.640625 13.84375 L 5.9375 13.527344 C 6.144531 16.550781 7.886719 16.730469 9.296875 17.523438 L 7.792969 17.707031 C 7.878906 18.945312 9.402344 20.296875 11.40625 20.523438 C 9.070312 22.105469 5.789062 22.34375 5.332031 21.929688 Z M 5.332031 21.929688 "/>
</svg>
