<?xml version="1.0" encoding="UTF-8"?>
<svg xmlns="http://www.w3.org/2000/svg" xmlns:xlink="http://www.w3.org/1999/xlink" width="12" height="12" viewBox="0 0 12 12" version="1.1">
<g id="surface1">
<path style=" stroke:none;fill-rule:nonzero;fill:rgb(0%,0%,0%);fill-opacity:1;" d="M 5.164062 10.488281 C 4.996094 10.457031 4.671875 10.363281 4.445312 10.28125 C 3.273438 9.871094 2.140625 8.710938 1.71875 7.488281 C 1.570312 7.0625 1.476562 6.597656 1.480469 5.972656 C 1.488281 5.347656 1.570312 4.945312 1.71875 4.519531 C 2.121094 3.355469 3.140625 2.261719 4.261719 1.785156 C 4.671875 1.613281 5.574219 1.445312 6.101562 1.445312 C 6.878906 1.445312 8.359375 1.9375 8.65625 2.296875 C 8.808594 2.484375 8.667969 2.488281 7.914062 2.332031 C 7.3125 2.203125 7.109375 2.191406 6.644531 2.257812 C 5.300781 2.441406 4.09375 3.453125 3.609375 4.796875 C 3.382812 5.433594 3.382812 6.574219 3.609375 7.203125 C 4.078125 8.511719 5.269531 9.53125 6.582031 9.757812 C 6.988281 9.824219 7.175781 9.816406 7.84375 9.679688 C 8.277344 9.59375 8.660156 9.550781 8.691406 9.582031 C 8.773438 9.660156 8.414062 9.914062 7.886719 10.15625 C 7.109375 10.511719 5.976562 10.652344 5.164062 10.488281 Z M 7.65625 7.484375 C 7.632812 7.449219 7.699219 7.171875 7.800781 6.867188 C 7.90625 6.566406 7.988281 6.308594 7.988281 6.296875 C 7.988281 6.285156 7.769531 6.117188 7.5 5.925781 C 7.230469 5.734375 7.007812 5.546875 7.007812 5.511719 C 7.007812 5.476562 7.289062 5.4375 7.632812 5.421875 L 8.253906 5.402344 L 8.449219 4.839844 C 8.558594 4.53125 8.679688 4.265625 8.726562 4.253906 C 8.769531 4.238281 8.894531 4.5 9.007812 4.832031 L 9.207031 5.441406 L 9.847656 5.441406 C 10.203125 5.441406 10.480469 5.46875 10.464844 5.507812 C 10.449219 5.546875 10.226562 5.730469 9.96875 5.921875 C 9.710938 6.113281 9.496094 6.296875 9.496094 6.332031 C 9.496094 6.367188 9.566406 6.59375 9.648438 6.835938 C 9.792969 7.257812 9.839844 7.550781 9.761719 7.550781 C 9.742188 7.550781 9.515625 7.398438 9.261719 7.210938 C 9.007812 7.023438 8.769531 6.871094 8.730469 6.871094 C 8.691406 6.871094 8.484375 7 8.269531 7.160156 C 7.746094 7.542969 7.707031 7.5625 7.65625 7.484375 Z M 7.65625 7.484375 "/>
<path style=" stroke:none;fill-rule:nonzero;fill:rgb(0%,0%,0%);fill-opacity:1;" d="M 8.710938 4.195312 C 8.550781 4.308594 8.519531 4.535156 8.4375 4.707031 C 8.359375 4.917969 8.285156 5.132812 8.210938 5.34375 C 7.804688 5.378906 7.375 5.324219 6.984375 5.453125 C 6.886719 5.570312 7.085938 5.660156 7.152344 5.734375 C 7.402344 5.941406 7.671875 6.113281 7.925781 6.316406 C 7.816406 6.707031 7.621094 7.082031 7.597656 7.492188 C 7.664062 7.671875 7.871094 7.523438 7.964844 7.453125 C 8.21875 7.28125 8.460938 7.058594 8.738281 6.933594 C 9.089844 7.125 9.390625 7.410156 9.746094 7.605469 C 9.902344 7.609375 9.855469 7.386719 9.835938 7.289062 C 9.78125 6.964844 9.617188 6.648438 9.566406 6.332031 C 9.855469 6.035156 10.242188 5.847656 10.515625 5.535156 C 10.535156 5.378906 10.304688 5.417969 10.207031 5.390625 C 9.886719 5.371094 9.570312 5.386719 9.25 5.382812 C 9.097656 4.992188 9.03125 4.554688 8.78125 4.214844 C 8.761719 4.199219 8.738281 4.1875 8.710938 4.195312 Z M 8.710938 4.195312 "/>
</g>
</svg>
