<?xml version="1.0" encoding="UTF-8"?>
<svg xmlns="http://www.w3.org/2000/svg" xmlns:xlink="http://www.w3.org/1999/xlink" width="12" height="12" viewBox="0 0 12 12" version="1.1">
<g id="surface1">
<path style=" stroke:none;fill-rule:nonzero;fill:rgb(100%,100%,100%);fill-opacity:1;" d="M 2.003906 7.671875 C 2.121094 7.707031 2.40625 7.675781 2.308594 7.484375 C 2.253906 7.375 1.996094 7.242188 1.882812 7.207031 C 1.714844 7.160156 1.425781 7.371094 1.644531 7.503906 L 1.597656 7.648438 C 1.414062 7.558594 1.363281 7.292969 1.378906 7.097656 C 1.386719 6.964844 1.507812 6.820312 1.558594 6.695312 C 1.691406 6.34375 1.796875 6 1.902344 5.644531 C 1.941406 5.5 1.953125 5.230469 2.078125 5.136719 C 2.195312 5.050781 2.375 5.035156 2.503906 4.972656 C 2.601562 4.921875 2.664062 4.824219 2.765625 4.792969 C 2.988281 4.722656 3.207031 4.742188 3.316406 4.5 C 3.539062 4.839844 3.730469 5.15625 3.765625 5.574219 C 3.792969 5.867188 3.589844 6.171875 3.523438 6.457031 C 3.476562 6.652344 3.488281 6.855469 3.4375 7.050781 C 3.371094 7.296875 3.246094 7.523438 3.183594 7.765625 C 3.148438 7.914062 3.179688 8.082031 3.136719 8.21875 C 3.054688 8.472656 2.585938 8.621094 2.640625 8.9375 C 2.667969 9.082031 2.835938 9.109375 2.957031 9.136719 C 3.238281 9.191406 3.539062 9.15625 3.816406 9.113281 C 3.910156 9.097656 4.019531 9.117188 4.09375 9.046875 C 4.265625 8.871094 4.0625 8.542969 4.117188 8.339844 C 4.15625 8.195312 4.296875 8.066406 4.367188 7.933594 C 4.523438 7.644531 4.65625 7.34375 4.746094 7.027344 L 4.769531 7.027344 C 4.777344 7.304688 4.84375 7.652344 4.949219 7.910156 C 5.015625 8.074219 5.191406 8.304688 5.183594 8.484375 C 5.175781 8.785156 4.71875 8.984375 4.9375 9.339844 C 5.160156 9.699219 5.683594 9.339844 5.964844 9.277344 C 6.117188 9.242188 6.320312 9.285156 6.394531 9.101562 C 6.5 8.847656 6.289062 8.605469 6.253906 8.363281 C 6.214844 8.085938 6.265625 7.808594 6.214844 7.527344 C 6.175781 7.324219 6.011719 7.085938 6.015625 6.886719 C 6.019531 6.742188 6.121094 6.574219 6.152344 6.429688 L 7.058594 6.855469 L 7.441406 7.074219 C 7.445312 7.277344 7.4375 7.519531 7.472656 7.71875 C 7.492188 7.816406 7.578125 7.910156 7.550781 8.007812 C 7.5 8.199219 7.03125 8.398438 7.136719 8.597656 C 7.195312 8.710938 7.355469 8.75 7.464844 8.777344 C 7.746094 8.851562 8.488281 8.960938 8.695312 8.695312 C 8.785156 8.578125 8.777344 8.382812 8.777344 8.246094 C 8.777344 7.890625 8.816406 7.515625 8.730469 7.171875 C 9.035156 7.359375 9.105469 7.742188 9.261719 8.054688 C 9.3125 8.160156 9.425781 8.332031 9.386719 8.457031 C 9.332031 8.652344 8.757812 8.953125 9.023438 9.210938 C 9.097656 9.285156 9.230469 9.289062 9.324219 9.316406 C 9.601562 9.402344 10.433594 9.539062 10.5625 9.175781 C 10.683594 8.835938 10.652344 8.234375 10.570312 7.886719 C 10.519531 7.683594 10.402344 7.503906 10.382812 7.289062 C 10.363281 7.09375 10.5 6.894531 10.515625 6.695312 C 10.535156 6.417969 10.453125 6.171875 10.441406 5.90625 C 10.4375 5.734375 10.496094 5.558594 10.496094 5.382812 C 10.757812 6.078125 10.484375 6.824219 10.671875 7.527344 C 10.699219 7.632812 10.710938 8.214844 10.917969 8.15625 C 10.996094 8.132812 11.015625 8 11 7.933594 C 10.933594 7.652344 10.8125 7.398438 10.8125 7.097656 C 10.8125 6.949219 10.878906 6.796875 10.894531 6.644531 C 10.996094 5.765625 11.132812 4.535156 10.375 3.890625 C 10.039062 3.601562 9.671875 3.390625 9.300781 3.152344 C 9.011719 2.964844 8.71875 2.746094 8.371094 2.671875 C 8.121094 2.617188 7.84375 2.699219 7.585938 2.6875 C 7.023438 2.660156 6.472656 2.550781 5.914062 2.5 C 5.660156 2.476562 5.410156 2.523438 5.152344 2.476562 C 4.597656 2.371094 4.191406 1.957031 3.648438 1.820312 C 3.476562 1.777344 3.179688 1.804688 3.003906 1.835938 C 2.839844 1.863281 2.753906 1.980469 2.625 2.074219 C 2.25 2.339844 1.757812 2.765625 1.550781 3.1875 C 1.425781 3.445312 1.410156 3.792969 1.328125 4.070312 C 1.210938 4.476562 0.984375 4.8125 0.917969 5.238281 C 0.847656 5.683594 0.953125 6.152344 0.953125 6.597656 C 0.953125 6.933594 0.765625 7.347656 0.886719 7.671875 C 1.054688 8.128906 1.941406 8.277344 2.003906 7.671875 Z M 2.003906 7.671875 "/>
</g>
</svg>
