<?xml version="1.0" encoding="UTF-8"?>
<svg xmlns="http://www.w3.org/2000/svg" xmlns:xlink="http://www.w3.org/1999/xlink" width="12" height="12" viewBox="0 0 12 12" version="1.1">
<g id="surface1">
<path style=" stroke:none;fill-rule:nonzero;fill:rgb(100%,100%,100%);fill-opacity:1;" d="M 3.5 0.5 L 3.5 7 L 4 7 C 4 6.722656 4.222656 6.5 4.5 6.5 C 4.777344 6.5 5 6.722656 5 7 L 5.5 7 C 5.5 6.722656 5.722656 6.5 6 6.5 C 6.277344 6.5 6.5 6.722656 6.5 7 L 7 7 C 7 6.722656 7.222656 6.5 7.5 6.5 C 7.777344 6.5 8 6.722656 8 7 L 8.5 7 L 8.5 0.5 L 8 0.5 C 8 0.777344 7.777344 1 7.5 1 C 7.222656 1 7 0.777344 7 0.5 L 6.5 0.5 C 6.5 0.777344 6.277344 1 6 1 C 5.722656 1 5.5 0.777344 5.5 0.5 L 5 0.5 C 5 0.777344 4.777344 1 4.5 1 C 4.222656 1 4 0.777344 4 0.5 Z M 3.5 0.5 "/>
<path style=" stroke:none;fill-rule:nonzero;fill:rgb(100%,100%,100%);fill-opacity:1;" d="M 3 8 C 2.445312 8 2.109375 8.457031 2 9 L 2 11.5 L 10 11.5 L 10 9 C 10 8.449219 9.550781 8 9 8 Z M 3 8 "/>
<path style=" stroke:none;fill-rule:nonzero;fill:rgb(100%,100%,100%);fill-opacity:1;" d="M 3.5 9 L 8.5 9 L 8.5 9.5 L 3.5 9.5 Z M 3.5 9 "/>
</g>
</svg>
