<?xml version="1.0" encoding="UTF-8"?>
<svg xmlns="http://www.w3.org/2000/svg" xmlns:xlink="http://www.w3.org/1999/xlink" width="12" height="12" viewBox="0 0 12 12" version="1.1">
<defs>
<filter id="alpha" filterUnits="objectBoundingBox" x="0%" y="0%" width="100%" height="100%">
  <feColorMatrix type="matrix" in="SourceGraphic" values="0 0 0 0 1 0 0 0 0 1 0 0 0 0 1 0 0 0 1 0"/>
</filter>
<mask id="mask0">
  <g filter="url(#alpha)">
<rect x="0" y="0" width="12" height="12" style="fill:rgb(0%,0%,0%);fill-opacity:0.5;stroke:none;"/>
  </g>
</mask>
<clipPath id="clip1">
  <rect x="0" y="0" width="12" height="12"/>
</clipPath>
<g id="surface5" clip-path="url(#clip1)">
<path style=" stroke:none;fill-rule:nonzero;fill:rgb(100%,100%,100%);fill-opacity:1;" d="M 2.5 2.167969 L 2 2 L 2 10 L 2.5 10 Z M 2.5 2.167969 "/>
<path style=" stroke:none;fill-rule:nonzero;fill:rgb(100%,100%,100%);fill-opacity:1;" d="M 3.5 10 L 4 10 L 4 2.667969 L 3.5 2.5 Z M 3.5 10 "/>
<path style=" stroke:none;fill-rule:nonzero;fill:rgb(100%,100%,100%);fill-opacity:1;" d="M 5 3 L 5 10 L 5.5 10 L 5.5 3.667969 Z M 5 3 "/>
<path style=" stroke:none;fill-rule:nonzero;fill:rgb(100%,100%,100%);fill-opacity:1;" d="M 6.5 5 L 6.5 10 L 7 10 L 7 5.667969 Z M 6.5 5 "/>
<path style=" stroke:none;fill-rule:nonzero;fill:rgb(100%,100%,100%);fill-opacity:1;" d="M 8 7 L 8 10 L 8.5 10 L 8.5 7 Z M 8 7 "/>
<path style=" stroke:none;fill-rule:nonzero;fill:rgb(100%,100%,100%);fill-opacity:1;" d="M 9.5 7 L 9.5 10 L 10 10 L 10 7 Z M 9.5 7 "/>
</g>
<mask id="mask1">
  <g filter="url(#alpha)">
<rect x="0" y="0" width="12" height="12" style="fill:rgb(0%,0%,0%);fill-opacity:0.3;stroke:none;"/>
  </g>
</mask>
<clipPath id="clip2">
  <rect x="0" y="0" width="12" height="12"/>
</clipPath>
<g id="surface8" clip-path="url(#clip2)">
<path style=" stroke:none;fill-rule:nonzero;fill:rgb(100%,100%,100%);fill-opacity:1;" d="M 2.5 9 L 3.5 9 L 3.5 8.5 L 2.5 8.5 Z M 2.5 9 "/>
<path style=" stroke:none;fill-rule:nonzero;fill:rgb(100%,100%,100%);fill-opacity:1;" d="M 2.5 7.5 L 3.5 7.5 L 3.5 7 L 2.5 7 Z M 2.5 7.5 "/>
<path style=" stroke:none;fill-rule:nonzero;fill:rgb(100%,100%,100%);fill-opacity:1;" d="M 2.5 6 L 3.5 6 L 3.5 5.5 L 2.5 5.5 Z M 2.5 6 "/>
<path style=" stroke:none;fill-rule:nonzero;fill:rgb(100%,100%,100%);fill-opacity:1;" d="M 2.5 4.5 L 3.5 4.5 L 3.5 4 L 2.5 4 Z M 2.5 4.5 "/>
<path style=" stroke:none;fill-rule:nonzero;fill:rgb(100%,100%,100%);fill-opacity:1;" d="M 4 4 L 4 4.5 L 5 4.5 L 5 4 Z M 4 4 "/>
<path style=" stroke:none;fill-rule:nonzero;fill:rgb(100%,100%,100%);fill-opacity:1;" d="M 5 5.5 L 4 5.5 L 4 6 L 5 6 Z M 5 5.5 "/>
<path style=" stroke:none;fill-rule:nonzero;fill:rgb(100%,100%,100%);fill-opacity:1;" d="M 5.5 6 L 5.5 5.5 L 6.5 5.5 L 6.5 6 Z M 5.5 6 "/>
<path style=" stroke:none;fill-rule:nonzero;fill:rgb(100%,100%,100%);fill-opacity:1;" d="M 5 7 L 4 7 L 4 7.5 L 5 7.5 Z M 5 7 "/>
<path style=" stroke:none;fill-rule:nonzero;fill:rgb(100%,100%,100%);fill-opacity:1;" d="M 5.5 7.5 L 5.5 7 L 6.5 7 L 6.5 7.5 Z M 5.5 7.5 "/>
<path style=" stroke:none;fill-rule:nonzero;fill:rgb(100%,100%,100%);fill-opacity:1;" d="M 5 8.5 L 4 8.5 L 4 9 L 5 9 Z M 5 8.5 "/>
<path style=" stroke:none;fill-rule:nonzero;fill:rgb(100%,100%,100%);fill-opacity:1;" d="M 5.5 9 L 5.5 8.5 L 6.5 8.5 L 6.5 9 Z M 5.5 9 "/>
<path style=" stroke:none;fill-rule:nonzero;fill:rgb(100%,100%,100%);fill-opacity:1;" d="M 7 9 L 8 9 L 8 8.5 L 7 8.5 Z M 7 9 "/>
<path style=" stroke:none;fill-rule:nonzero;fill:rgb(100%,100%,100%);fill-opacity:1;" d="M 7 7.5 L 8 7.5 L 8 7 L 7 7 Z M 7 7.5 "/>
<path style=" stroke:none;fill-rule:nonzero;fill:rgb(100%,100%,100%);fill-opacity:1;" d="M 9.5 8.5 L 8.5 8.5 L 8.5 9 L 9.5 9 Z M 9.5 8.5 "/>
</g>
<mask id="mask2">
  <g filter="url(#alpha)">
<rect x="0" y="0" width="12" height="12" style="fill:rgb(0%,0%,0%);fill-opacity:0.8;stroke:none;"/>
  </g>
</mask>
<clipPath id="clip3">
  <rect x="0" y="0" width="12" height="12"/>
</clipPath>
<g id="surface11" clip-path="url(#clip3)">
<path style=" stroke:none;fill-rule:nonzero;fill:rgb(100%,100%,100%);fill-opacity:1;" d="M 7.628906 2.519531 C 7.71875 2.625 7.875 2.632812 7.980469 2.542969 C 8.085938 2.453125 8.097656 2.296875 8.003906 2.191406 C 7.914062 2.085938 7.757812 2.074219 7.652344 2.167969 C 7.546875 2.257812 7.539062 2.414062 7.628906 2.519531 Z M 7.628906 2.519531 "/>
<path style=" stroke:none;fill-rule:nonzero;fill:rgb(100%,100%,100%);fill-opacity:1;" d="M 8.285156 3.273438 C 8.375 3.378906 8.53125 3.390625 8.636719 3.296875 C 8.742188 3.207031 8.753906 3.050781 8.660156 2.945312 C 8.570312 2.839844 8.414062 2.832031 8.308594 2.921875 C 8.203125 3.011719 8.195312 3.167969 8.285156 3.273438 Z M 8.285156 3.273438 "/>
<path style=" stroke:none;fill-rule:nonzero;fill:rgb(100%,100%,100%);fill-opacity:1;" d="M 7.441406 2.683594 C 7.53125 2.789062 7.519531 2.945312 7.414062 3.035156 L 7.039062 3.363281 L 6.710938 2.988281 L 7.085938 2.660156 C 7.191406 2.566406 7.347656 2.578125 7.441406 2.683594 Z M 7.441406 2.683594 "/>
<path style=" stroke:none;fill-rule:nonzero;fill:rgb(100%,100%,100%);fill-opacity:1;" d="M 8.070312 3.789062 C 8.175781 3.699219 8.1875 3.542969 8.09375 3.4375 C 8.003906 3.332031 7.847656 3.324219 7.742188 3.414062 L 7.367188 3.742188 L 7.695312 4.117188 Z M 8.070312 3.789062 "/>
</g>
</defs>
<g id="surface1">
<use xlink:href="#surface5" mask="url(#mask0)"/>
<use xlink:href="#surface8" mask="url(#mask1)"/>
<path style=" stroke:none;fill-rule:evenodd;fill:rgb(100%,100%,100%);fill-opacity:1;" d="M 4.808594 3.703125 C 4.167969 3.292969 3.292969 3 2 3 L 2 2 C 3.457031 2 4.519531 2.332031 5.347656 2.859375 C 6.164062 3.382812 6.710938 4.074219 7.160156 4.714844 C 7.269531 4.871094 7.375 5.023438 7.472656 5.167969 C 7.789062 5.636719 8.058594 6.035156 8.394531 6.359375 C 8.796875 6.75 9.269531 7 10 7 L 10 8 C 8.980469 8 8.265625 7.625 7.699219 7.078125 C 7.28125 6.675781 6.933594 6.160156 6.605469 5.671875 C 6.515625 5.542969 6.425781 5.410156 6.339844 5.285156 C 5.914062 4.675781 5.460938 4.117188 4.808594 3.703125 Z M 4.808594 3.703125 "/>
<use xlink:href="#surface11" mask="url(#mask2)"/>
<path style=" stroke:none;fill-rule:nonzero;fill:rgb(100%,100%,100%);fill-opacity:1;" d="M 6.636719 2.441406 C 6.71875 2.371094 6.847656 2.378906 6.917969 2.460938 L 8.296875 4.046875 C 8.367188 4.132812 8.359375 4.257812 8.277344 4.328125 L 8.050781 4.527344 C 7.839844 4.707031 7.527344 4.6875 7.34375 4.476562 L 6.359375 3.34375 C 6.179688 3.136719 6.203125 2.820312 6.410156 2.640625 Z M 6.636719 2.441406 "/>
</g>
</svg>
