<?xml version="1.0" encoding="UTF-8"?>
<svg xmlns="http://www.w3.org/2000/svg" xmlns:xlink="http://www.w3.org/1999/xlink" width="12" height="12" viewBox="0 0 12 12" version="1.1">
<g id="surface1">
<path style=" stroke:none;fill-rule:nonzero;fill:rgb(24.705882%,24.705882%,24.705882%);fill-opacity:1;" d="M 6.242188 5.183594 C 6.242188 5.183594 6.242188 8.042969 7.601562 8.042969 C 8.050781 8.042969 8.296875 7.675781 8.296875 7.675781 C 8.433594 8.003906 8.714844 8.207031 9.027344 8.207031 C 9.480469 8.207031 9.828125 7.796875 9.828125 7.308594 C 9.828125 6.980469 9.6875 6.695312 9.480469 6.53125 C 9.617188 6.53125 10.175781 6.246094 10.175781 5.550781 C 10.175781 5.101562 9.863281 4.609375 9.445312 4.570312 C 9.375 4.121094 9.0625 3.792969 8.644531 3.792969 L 8.609375 3.792969 C 8.714844 3.628906 8.816406 3.425781 8.816406 3.21875 C 8.816406 2.730469 8.46875 2.320312 8.019531 2.320312 C 7.808594 2.320312 7.601562 2.402344 7.460938 2.566406 C 7.355469 2.15625 7.042969 1.871094 6.695312 1.871094 L 6.589844 1.871094 C 6.488281 1.421875 6.105469 1.09375 5.6875 1.09375 C 5.375 1.09375 5.09375 1.257812 4.921875 1.542969 C 4.851562 1.503906 4.746094 1.503906 4.679688 1.503906 C 4.226562 1.503906 3.84375 1.910156 3.84375 2.402344 L 3.84375 2.484375 C 3.703125 2.363281 3.53125 2.238281 3.320312 2.238281 C 2.902344 2.238281 2.519531 2.648438 2.519531 3.179688 C 2.519531 3.261719 2.519531 3.34375 2.554688 3.425781 C 2.136719 3.464844 1.824219 3.832031 1.824219 4.324219 C 1.824219 4.8125 2.171875 5.222656 2.625 5.222656 C 2.695312 5.222656 2.765625 5.222656 2.800781 5.183594 C 2.625 5.386719 2.519531 5.671875 2.519531 6 L 2.519531 6.039062 C 2.136719 6.121094 1.824219 6.492188 1.824219 6.941406 C 1.824219 7.429688 2.171875 7.839844 2.625 7.839844 C 2.695312 7.839844 2.765625 7.839844 2.835938 7.796875 C 2.867188 8.25 3.21875 8.574219 3.632812 8.574219 C 3.914062 8.574219 4.191406 8.410156 4.332031 8.125 C 5.21875 8.199219 5.957031 7.117188 6.167969 6.9375 C 6.125 6.433594 6.164062 5.988281 6.242188 5.183594 Z M 6.242188 5.183594 "/>
<path style=" stroke:none;fill-rule:nonzero;fill:rgb(24.705882%,24.705882%,24.705882%);fill-opacity:1;" d="M 5.511719 7.878906 C 5.5 8.191406 5.476562 8.535156 5.476562 8.902344 C 5.410156 10.703125 4.539062 9.925781 4.261719 10.90625 L 8.085938 10.90625 C 7.914062 10.457031 7.21875 10.742188 7.042969 9.71875 C 6.972656 9.269531 6.90625 8.574219 6.90625 8.410156 C 6.558594 8.050781 6.339844 7.652344 6.242188 7.0625 "/>
</g>
</svg>
