<?xml version="1.0" encoding="UTF-8"?>
<svg xmlns="http://www.w3.org/2000/svg" xmlns:xlink="http://www.w3.org/1999/xlink" width="32" height="32" viewBox="0 0 32 32">
<path fill="none" stroke-width="25" stroke-linecap="round" stroke-linejoin="round" stroke="rgb(24.705882%, 24.705882%, 24.705882%)" stroke-opacity="1" stroke-miterlimit="4" d="M 354.782715 527.890625 L 354.782715 303.310547 " transform="matrix(0.0551724, 0, 0, 0.0551724, 0, 0)"/>
<path fill-rule="nonzero" fill="rgb(24.705882%, 24.705882%, 24.705882%)" fill-opacity="0.425121" stroke-width="30" stroke-linecap="round" stroke-linejoin="round" stroke="rgb(24.705882%, 24.705882%, 24.705882%)" stroke-opacity="1" stroke-miterlimit="4" d="M 298.212891 58.835449 C 331.135254 62.233887 361.296387 78.588867 382.111816 104.21875 C 402.998047 129.848633 412.768555 162.700195 409.440918 195.622559 C 406.04248 228.474121 389.758301 258.706055 364.128418 279.592285 C 338.569336 300.407715 305.717773 310.319824 272.79541 306.992188 C 239.943848 303.664551 209.711914 287.451172 188.825684 261.821289 C 167.868652 236.262207 157.956543 203.410645 161.28418 170.559082 C 164.541016 137.636719 180.754395 107.404785 206.242676 86.447754 C 231.801758 65.490723 264.65332 55.578613 297.575684 58.764648 " transform="matrix(0.0551724, 0, 0, 0.0551724, 0, 0)"/>
</svg>
