<?xml version="1.0" encoding="UTF-8" standalone="no"?>
<svg
   xmlns:dc="http://purl.org/dc/elements/1.1/"
   xmlns:cc="http://creativecommons.org/ns#"
   xmlns:rdf="http://www.w3.org/1999/02/22-rdf-syntax-ns#"
   xmlns:svg="http://www.w3.org/2000/svg"
   xmlns="http://www.w3.org/2000/svg"
   xmlns:sodipodi="http://sodipodi.sourceforge.net/DTD/sodipodi-0.dtd"
   xmlns:inkscape="http://www.inkscape.org/namespaces/inkscape"
   width="48"
   height="48"
   viewBox="0 0 48 48"
   version="1.1"
   id="svg4"
   style="fill:none"
   sodipodi:docname="birds_nest.svg"
   inkscape:version="0.92.5 (2060ec1f9f, 2020-04-08)">
  <metadata
     id="metadata10">
    <rdf:RDF>
      <cc:Work
         rdf:about="">
        <dc:format>image/svg+xml</dc:format>
        <dc:type
           rdf:resource="http://purl.org/dc/dcmitype/StillImage" />
      </cc:Work>
    </rdf:RDF>
  </metadata>
  <defs
     id="defs8" />
  <sodipodi:namedview
     pagecolor="#ffffff"
     bordercolor="#666666"
     borderopacity="1"
     objecttolerance="10"
     gridtolerance="10"
     guidetolerance="10"
     inkscape:pageopacity="0"
     inkscape:pageshadow="2"
     inkscape:window-width="1920"
     inkscape:window-height="1014"
     id="namedview6"
     showgrid="false"
     inkscape:zoom="13.906433"
     inkscape:cx="18.552865"
     inkscape:cy="24.093015"
     inkscape:window-x="1920"
     inkscape:window-y="0"
     inkscape:window-maximized="1"
     inkscape:current-layer="svg4" />
  <path
     style="color:#000;clip-rule:nonzero;display:inline;overflow:visible;visibility:visible;opacity:1;isolation:auto;mix-blend-mode:normal;color-interpolation:sRGB;color-interpolation-filters:linearRGB;solid-color:#000;solid-opacity:1;vector-effect:none;fill:#000000;fill-opacity:1;fill-rule:nonzero;stroke:none;stroke-width:1;stroke-linecap:butt;stroke-linejoin:miter;stroke-miterlimit:4;stroke-dasharray:none;stroke-dashoffset:0;stroke-opacity:1;marker:none;paint-order:normal;color-rendering:auto;image-rendering:auto;shape-rendering:auto;text-rendering:auto;enable-background:accumulate;font-variant-east_asian:normal"
     d="M16.28 19.14c-2.96.4-4.8.52-7.9 1.4-.91.33-1.59.68-1.97.98-.2.15-.3.26-.35.34-.05.08-.05.13-.05.14 0 .02.04.2.48.53.45.33 1.23.71 2.27 1.05 1.75.59 5.48 1.08 8.46 1.41a13.63 13.63 0 0 1-.94-5.85zm15.44 0a13.6 13.6 0 0 1-.94 5.85c2.98-.33 6.7-.82 8.46-1.4a8.8 8.8 0 0 0 2.27-1.06c.44-.32.48-.51.48-.53 0-.02-.02-.18-.4-.48a7.56 7.56 0 0 0-1.97-.98c-3.1-.88-4.94-1-7.9-1.4z"
     id="path836" />
  <path
     style="color:#000;clip-rule:nonzero;display:inline;overflow:visible;visibility:visible;opacity:1;isolation:auto;mix-blend-mode:normal;color-interpolation:sRGB;color-interpolation-filters:linearRGB;solid-color:#000;solid-opacity:1;vector-effect:none;fill:#000000;fill-opacity:1;fill-rule:nonzero;stroke:none;stroke-width:1;stroke-linecap:butt;stroke-linejoin:miter;stroke-miterlimit:4;stroke-dasharray:none;stroke-dashoffset:0;stroke-opacity:1;marker:none;paint-order:normal;color-rendering:auto;image-rendering:auto;shape-rendering:auto;text-rendering:auto;enable-background:accumulate;font-variant-east_asian:normal"
     d="M44 22c0 .91-.6 1.62-1.31 2.15-.72.52-1.66.95-2.82 1.33-2.3.77-6.73 1.35-10.53 1.67-3.64.34-7.65.25-10.68 0-3.8-.32-8.23-.9-10.54-1.67a10.3 10.3 0 0 1-2.8-1.33C4.58 23.62 4 22.9 4 22c0 12 8.95 14 20 14s20-2 20-14z"
     id="path822" />
  <path
     style="color:#000;clip-rule:nonzero;display:inline;overflow:visible;visibility:visible;opacity:1;isolation:auto;mix-blend-mode:normal;color-interpolation:sRGB;color-interpolation-filters:linearRGB;solid-color:#000;solid-opacity:1;vector-effect:none;fill:#000000;fill-opacity:1;fill-rule:nonzero;stroke:none;stroke-width:1;stroke-linecap:butt;stroke-linejoin:miter;stroke-miterlimit:4;stroke-dasharray:none;stroke-dashoffset:0;stroke-opacity:1;marker:none;paint-order:normal;color-rendering:auto;image-rendering:auto;shape-rendering:auto;text-rendering:auto;enable-background:accumulate;font-variant-east_asian:normal"
     d="M24 12a5.3 5.3 0 0 0-4.16 2.25A9.43 9.43 0 0 0 18 20c0 1.24.43 3.01.64 3.56l.58 1.57s2.06.24 4.4.23c2.35-.02 4.98-.2 4.98-.2s.56-1.08.76-1.62c.2-.55.64-2.31.64-3.54 0-2.28-.72-4.32-1.84-5.75A5.3 5.3 0 0 0 24 12z"
     id="rect854" />
</svg>
