<?xml version="1.0" encoding="UTF-8"?>
<svg xmlns="http://www.w3.org/2000/svg" xmlns:xlink="http://www.w3.org/1999/xlink" width="12" height="12" viewBox="0 0 12 12" version="1.1">
<g id="surface1">
<path style="fill-rule:evenodd;fill:rgb(0%,0%,0%);fill-opacity:1;stroke-width:1;stroke-linecap:butt;stroke-linejoin:miter;stroke:rgb(0%,0%,0%);stroke-opacity:1;stroke-miterlimit:4;" d="M 343.808594 167.089844 L 330.403646 188.802083 L 307.558594 169.544271 L 307.558594 415.175781 L 544.505208 415.175781 L 528.079427 328.138021 L 508.632812 341.165365 L 492.207031 312.845052 L 483.144531 291.132812 L 453.125 273.763021 L 460.677083 243.177083 L 432.167969 210.514323 L 403.847656 201.829427 L 397.80599 219.388021 L 369.296875 191.067708 Z M 225.61849 175.77474 L 212.02474 206.171875 L 161.236979 208.4375 L 149.153646 245.442708 L 108.75 262.8125 L 96.855469 299.817708 L 56.263021 328.138021 L 50.410156 369.485677 L 35.30599 382.513021 L 41.347656 415.175781 L 272.441406 415.175781 L 272.441406 181.25 L 270.553385 182.382812 Z M 225.61849 175.77474 " transform="matrix(0.0206897,0,0,0.0206897,0,0)"/>
</g>
</svg>
