<?xml version="1.0" encoding="UTF-8"?>
<svg xmlns="http://www.w3.org/2000/svg" xmlns:xlink="http://www.w3.org/1999/xlink" width="12" height="12" viewBox="0 0 12 12" version="1.1">
<g id="surface1">
<path style=" stroke:none;fill-rule:nonzero;fill:rgb(100%,100%,100%);fill-opacity:1;" d="M 3.121094 7.496094 C 3.121094 5.023438 5.046875 3.800781 7.09375 3.664062 C 7.144531 3.53125 7.234375 3.328125 7.414062 3.121094 C 7.277344 3.035156 7.21875 3.03125 7.191406 3.03125 C 7.1875 3.03125 7.179688 3.03125 7.171875 3.03125 C 7.050781 3.046875 6.960938 3.148438 6.875 3.246094 C 6.839844 3.289062 6.773438 3.363281 6.738281 3.382812 C 6.703125 3.375 6.636719 3.328125 6.589844 3.296875 C 6.46875 3.210938 6.3125 3.105469 6.136719 3.148438 C 5.988281 3.175781 5.902344 3.316406 5.816406 3.449219 C 5.78125 3.5 5.722656 3.597656 5.6875 3.625 C 5.648438 3.613281 5.574219 3.570312 5.53125 3.542969 C 5.394531 3.460938 5.25 3.375 5.105469 3.425781 C 4.957031 3.472656 4.90625 3.640625 4.859375 3.789062 C 4.84375 3.839844 4.820312 3.917969 4.800781 3.953125 C 4.757812 3.945312 4.679688 3.914062 4.628906 3.890625 C 4.484375 3.828125 4.320312 3.757812 4.171875 3.832031 C 4.015625 3.910156 4.023438 4.097656 4.027344 4.246094 C 4.03125 4.289062 4.03125 4.359375 4.027344 4.394531 C 3.984375 4.414062 3.917969 4.421875 3.855469 4.433594 C 3.726562 4.453125 3.578125 4.476562 3.46875 4.574219 C 3.355469 4.671875 3.355469 4.816406 3.355469 4.949219 C 3.355469 5 3.355469 5.097656 3.339844 5.117188 C 3.316406 5.132812 3.226562 5.144531 3.171875 5.152344 C 3.039062 5.171875 2.871094 5.191406 2.785156 5.320312 C 2.683594 5.453125 2.746094 5.621094 2.796875 5.757812 C 2.820312 5.8125 2.855469 5.910156 2.851562 5.933594 C 2.832031 5.957031 2.734375 5.992188 2.675781 6.011719 C 2.527344 6.066406 2.339844 6.132812 2.277344 6.316406 C 2.242188 6.441406 2.320312 6.5625 2.394531 6.675781 C 2.414062 6.707031 2.445312 6.757812 2.460938 6.789062 C 2.433594 6.808594 2.386719 6.835938 2.351562 6.855469 C 2.246094 6.914062 2.097656 6.996094 2.066406 7.167969 C 2.046875 7.292969 2.136719 7.402344 2.222656 7.503906 C 2.25 7.539062 2.292969 7.589844 2.3125 7.621094 C 2.292969 7.640625 2.253906 7.671875 2.230469 7.6875 C 2.132812 7.761719 2 7.859375 2 8.023438 C 2 8.136719 2.078125 8.234375 2.164062 8.339844 C 2.195312 8.378906 2.246094 8.441406 2.257812 8.46875 C 2.257812 8.496094 2.234375 8.527344 2.1875 8.585938 C 2.121094 8.660156 2.035156 8.765625 2.050781 8.921875 C 2.066406 9.082031 2.226562 9.164062 2.351562 9.226562 C 2.390625 9.246094 2.453125 9.277344 2.476562 9.296875 C 2.484375 9.320312 2.5 9.339844 2.519531 9.359375 C 2.535156 9.371094 2.863281 9.65625 3.621094 9.652344 C 3.28125 9.144531 3.121094 8.066406 3.121094 7.496094 Z M 3.121094 7.496094 "/>
<path style=" stroke:none;fill-rule:nonzero;fill:rgb(100%,100%,100%);fill-opacity:1;" d="M 9.632812 6.46875 C 9.347656 5.25 8.835938 4.644531 8.640625 4.417969 L 8.613281 4.386719 C 8.507812 4.253906 8.390625 4.132812 8.324219 4.066406 L 8.457031 3.183594 C 8.464844 3.132812 8.445312 3.078125 8.410156 3.042969 C 8.371094 3.007812 8.316406 2.992188 8.261719 3.003906 C 8.242188 3.007812 7.863281 3.109375 7.660156 3.308594 C 7.453125 3.507812 7.351562 3.773438 7.3125 3.972656 C 5.339844 4.035156 3.441406 5.144531 3.441406 7.496094 C 3.441406 8.101562 3.617188 9.078125 3.890625 9.480469 C 3.890625 9.480469 4.152344 10 5.390625 10.691406 C 6.238281 10.972656 7.082031 11 7.363281 11 C 7.414062 11 7.445312 11 7.453125 11 C 7.523438 10.996094 7.582031 10.953125 7.601562 10.886719 C 7.609375 10.867188 7.753906 10.410156 7.753906 9.910156 C 7.753906 9.390625 7.546875 9.058594 7.34375 8.734375 C 7.128906 8.386719 6.90625 8.03125 6.90625 7.398438 C 6.90625 7.074219 7.019531 6.832031 7.25 6.679688 C 7.578125 7.296875 8.203125 7.449219 8.464844 7.484375 C 8.519531 7.640625 8.636719 7.90625 8.855469 7.992188 C 8.925781 8.019531 9.03125 8.039062 9.15625 7.992188 C 9.203125 8.019531 9.261719 8.039062 9.320312 8.03125 C 9.492188 8.027344 9.664062 7.90625 9.785156 7.703125 C 9.796875 7.683594 9.808594 7.664062 9.824219 7.640625 C 9.953125 7.445312 10.226562 7.039062 9.632812 6.46875 Z M 9.632812 6.46875 "/>
<path style=" stroke:none;fill-rule:evenodd;fill:rgb(100%,100%,100%);fill-opacity:1;" d="M 6 0.472656 L 1.34375 2.027344 C 1.167969 2.078125 1.035156 2.222656 0.996094 2.398438 C 0.957031 2.578125 1.019531 2.761719 1.15625 2.882812 C 1.296875 3 1.488281 3.035156 1.65625 2.972656 L 6 1.527344 L 10.34375 2.972656 C 10.511719 3.035156 10.703125 3 10.84375 2.882812 C 10.980469 2.761719 11.042969 2.578125 11.003906 2.398438 C 10.964844 2.222656 10.832031 2.078125 10.65625 2.027344 Z M 6 0.472656 "/>
</g>
</svg>
