<?xml version="1.0" encoding="UTF-8"?>
<svg xmlns="http://www.w3.org/2000/svg" xmlns:xlink="http://www.w3.org/1999/xlink" width="12" height="12" viewBox="0 0 12 12" version="1.1">
<g id="surface1">
<path style=" stroke:none;fill-rule:nonzero;fill:rgb(100%,100%,100%);fill-opacity:1;" d="M 1.96875 6.144531 C 1.917969 5.554688 1.503906 3.097656 2.925781 1.902344 C 4.347656 0.703125 7.273438 0.4375 8.789062 1.742188 C 10.304688 3.050781 10.601562 5.8125 9.265625 7.03125 C 7.925781 8.25 5.75 7.480469 4.9375 6.488281 C 4.125 5.496094 4.195312 4.289062 4.796875 3.582031 C 5.398438 2.875 6.910156 2.707031 7.617188 3.289062 C 8.320312 3.871094 8.402344 5.457031 7.847656 5.917969 C 7.289062 6.382812 6.375 5.742188 6.203125 5.464844 C 6.03125 5.1875 6.085938 5.335938 6.25 5.21875 C 6.414062 5.097656 6.953125 5.597656 7.21875 5.332031 C 7.480469 5.066406 7.417969 4.382812 7.054688 4.066406 C 6.691406 3.753906 5.816406 3.691406 5.4375 4.089844 C 5.058594 4.488281 5.003906 5.15625 5.5 5.773438 C 5.996094 6.394531 7.582031 7.304688 8.480469 6.550781 C 9.375 5.796875 9.179688 3.488281 8.152344 2.613281 C 7.128906 1.742188 4.890625 1.851562 4.035156 2.9375 C 3.179688 4.023438 3.257812 5.136719 3.265625 5.539062 C 3.273438 5.941406 3.625 6.929688 4.574219 7.554688 C 5.226562 7.984375 6.183594 8.492188 7.039062 8.546875 C 7.511719 8.578125 8.75 8.46875 9.292969 8.507812 C 8.425781 8.835938 6.867188 9.121094 6.425781 9.457031 C 6.210938 10.058594 6.363281 10.394531 6.445312 10.992188 L 5.078125 10.972656 C 5.121094 10.148438 5.554688 9.457031 5.074219 9.082031 C 4.023438 8.539062 2.15625 7.710938 1.96875 6.144531 Z M 1.96875 6.144531 "/>
</g>
</svg>
