<?xml version="1.0" encoding="UTF-8"?>
<svg xmlns="http://www.w3.org/2000/svg" xmlns:xlink="http://www.w3.org/1999/xlink" width="32" height="32" viewBox="0 0 32 32">
<path fill-rule="nonzero" fill="rgb(0%, 0%, 0%)" fill-opacity="1" d="M 11.640625 29.082031 C 10.082031 28.671875 8.734375 27.859375 7.464844 26.558594 C 5.449219 24.484375 4.34375 22.265625 3.691406 18.964844 C 3.320312 17.082031 3.320312 17.035156 3.660156 16.785156 C 4.363281 16.269531 4.640625 16.457031 4.878906 17.59375 C 6.105469 23.53125 9.953125 27.390625 13.695312 26.441406 C 14.8125 26.15625 15.878906 25.085938 16.199219 23.925781 C 16.613281 22.425781 15.882812 19.835938 14.617188 18.300781 L 14.167969 17.757812 L 13.410156 18.539062 C 12.605469 19.367188 11.613281 20.050781 11.214844 20.050781 C 10.976562 20.054688 9.878906 17.835938 9.878906 17.347656 C 9.878906 17.203125 10.398438 16.851562 11.039062 16.558594 C 12.828125 15.738281 13.589844 14.816406 13.589844 13.46875 C 13.589844 12.59375 13.433594 12.285156 12.832031 11.976562 C 12.058594 11.574219 10.773438 11.644531 9.210938 12.167969 C 8.453125 12.421875 7.785156 12.632812 7.734375 12.632812 C 7.597656 12.632812 6.539062 10.238281 6.539062 9.929688 C 6.539062 9.398438 7.683594 9.035156 9.601562 8.960938 C 11.355469 8.890625 11.511719 8.917969 12.472656 9.421875 C 13.683594 10.058594 14.582031 11.160156 14.976562 12.488281 C 15.296875 13.570312 15.34375 14.980469 15.082031 15.675781 C 14.800781 16.414062 15.15625 16.417969 16.109375 15.691406 C 17.148438 14.898438 17.855469 14.585938 18.996094 14.414062 C 19.820312 14.289062 19.863281 14.253906 20.085938 13.449219 C 20.625 11.53125 22.050781 10.394531 23.957031 10.367188 C 25.382812 10.347656 26.183594 10.640625 27.007812 11.484375 C 28.089844 12.59375 28.480469 13.9375 28.574219 16.898438 C 28.691406 20.574219 28.199219 22.5625 26.761719 24.199219 C 25.519531 25.613281 23.570312 26.132812 22.050781 25.460938 C 20.765625 24.894531 20.425781 24.011719 20.28125 20.855469 C 20.183594 18.828125 20.105469 18.347656 19.816406 18.027344 C 19.371094 17.53125 19.09375 17.542969 17.882812 18.105469 L 16.890625 18.570312 L 17.289062 19.171875 C 19.878906 23.089844 19.339844 27.355469 16.082031 28.796875 C 15.054688 29.253906 12.839844 29.394531 11.640625 29.082031 Z M 25.050781 22.464844 C 26.386719 21.648438 27.273438 19.355469 27.078125 17.214844 C 26.953125 15.8125 26.136719 14.160156 25.296875 13.605469 C 24.160156 12.851562 22.597656 13.101562 21.578125 14.195312 L 21.121094 14.683594 L 21.476562 15.28125 C 21.773438 15.777344 21.84375 16.316406 21.894531 18.476562 C 21.960938 21.511719 21.992188 21.691406 22.503906 22.34375 C 22.992188 22.964844 24.140625 23.019531 25.050781 22.464844 Z M 15.816406 9.910156 C 15.359375 9.75 14.632812 9.378906 14.210938 9.085938 C 13.359375 8.503906 11.734375 6.734375 11.734375 6.394531 C 11.734375 6.277344 11.949219 6.039062 12.207031 5.871094 C 12.671875 5.566406 12.699219 5.574219 13.433594 6.238281 C 14.410156 7.117188 15.308594 7.484375 16.496094 7.488281 C 17.558594 7.488281 18.839844 6.875 19.492188 6.046875 C 19.695312 5.789062 19.921875 5.582031 19.996094 5.582031 C 20.144531 5.582031 22.117188 7.207031 22.359375 7.527344 C 22.589844 7.832031 20.667969 9.441406 19.578125 9.847656 C 18.398438 10.289062 16.96875 10.3125 15.816406 9.910156 Z M 15.882812 5.761719 C 15.386719 5.238281 14.957031 4.75 14.929688 4.671875 C 14.898438 4.59375 15.304688 4.128906 15.828125 3.640625 L 16.777344 2.75 L 17.765625 3.726562 C 18.308594 4.265625 18.707031 4.796875 18.652344 4.910156 C 18.597656 5.023438 18.15625 5.476562 17.667969 5.914062 L 16.78125 6.710938 Z M 15.882812 5.761719 "/>
</svg>
