<?xml version="1.0" encoding="UTF-8"?>
<svg xmlns="http://www.w3.org/2000/svg" xmlns:xlink="http://www.w3.org/1999/xlink" width="12" height="12" viewBox="0 0 12 12" version="1.1">
<g id="surface1">
<path style=" stroke:none;fill-rule:evenodd;fill:rgb(24.705882%,24.705882%,24.705882%);fill-opacity:1;" d="M 3 7 C 1 4 2.5 1 4 1 C 4.613281 1 5.25 1.164062 5.875 1.449219 C 5.574219 1.652344 5.316406 1.914062 5.121094 2.21875 C 4.726562 2.074219 4.347656 2 4 2 C 3 2 4 4.5 5 5.5 C 6.5 7 9 8.1875 9 7 C 9 6.652344 8.925781 6.269531 8.78125 5.878906 C 9.085938 5.683594 9.347656 5.425781 9.550781 5.125 C 9.835938 5.75 10 6.386719 10 7 C 10 8.054688 8.5 9 7 9 C 5.5 9 3.945312 8.417969 3 7 Z M 3.082031 8.601562 C 3.03125 8.722656 3 8.859375 3 9 L 3 11 L 9 11 L 9 9.566406 C 8.390625 9.839844 7.699219 10 7 10 C 5.65625 10 4.210938 9.59375 3.082031 8.601562 Z M 9 3 C 9 3.550781 8.550781 4 8 4 C 7.867188 4 7.742188 3.972656 7.625 3.925781 L 7.625 5.5 C 7.625 5.570312 7.570312 5.625 7.5 5.625 C 7.429688 5.625 7.375 5.570312 7.375 5.5 L 7.375 3.78125 C 7.316406 3.734375 7.265625 3.683594 7.21875 3.625 L 5.5 3.625 C 5.429688 3.625 5.375 3.570312 5.375 3.5 C 5.375 3.429688 5.429688 3.375 5.5 3.375 L 7.074219 3.375 C 7.027344 3.257812 7 3.132812 7 3 C 7 2.449219 7.449219 2 8 2 C 8.550781 2 9 2.449219 9 3 Z M 9 3 "/>
</g>
</svg>
