<?xml version="1.0" encoding="UTF-8"?>
<svg xmlns="http://www.w3.org/2000/svg" xmlns:xlink="http://www.w3.org/1999/xlink" width="32" height="32" viewBox="0 0 32 32">
<path fill-rule="nonzero" fill="rgb(100%, 100%, 100%)" fill-opacity="1" d="M 10.667969 30.667969 L 21.332031 30.667969 L 21.332031 28 C 20.085938 27.351562 18.730469 26.925781 17.332031 26.746094 L 17.332031 20 L 14.667969 20 L 14.667969 26.761719 C 13.320312 26.933594 11.988281 27.359375 10.667969 28 Z M 10.667969 30.667969 "/>
<path fill-rule="nonzero" fill="rgb(100%, 100%, 100%)" fill-opacity="1" d="M 2.667969 20 L 2.667969 14.667969 L 29.332031 14.667969 L 29.332031 20 Z M 2.667969 20 "/>
<path fill-rule="evenodd" fill="rgb(100%, 100%, 100%)" fill-opacity="1" d="M 12 18.667969 C 12 19.402344 12.597656 20 13.332031 20 C 14.070312 20 14.667969 19.402344 14.667969 18.667969 L 14.667969 12 L 17.347656 12 L 17.347656 18.667969 C 17.347656 19.402344 17.945312 20 18.679688 20 C 19.417969 20 20.011719 19.402344 20.011719 18.667969 L 20.011719 9.253906 C 19.875 6.988281 18.6875 5.027344 17.160156 3.285156 C 16.851562 2.777344 16.246094 2.53125 15.671875 2.6875 C 15.652344 2.695312 15.628906 2.703125 15.605469 2.714844 C 15.578125 2.722656 15.554688 2.730469 15.527344 2.738281 C 15.269531 2.835938 15.046875 3.011719 14.894531 3.238281 C 13.347656 4.992188 12.140625 6.960938 12 9.253906 Z M 14.671875 9.332031 C 14.761719 8.265625 15.226562 7.199219 16.007812 6.113281 C 16.734375 7.046875 17.195312 8.160156 17.339844 9.332031 Z M 14.671875 9.332031 "/>
</svg>
