<?xml version="1.0" encoding="UTF-8"?>
<svg xmlns="http://www.w3.org/2000/svg" xmlns:xlink="http://www.w3.org/1999/xlink" width="12" height="12" viewBox="0 0 12 12" version="1.1">
<g id="surface1">
<path style=" stroke:none;fill-rule:nonzero;fill:rgb(100%,100%,100%);fill-opacity:1;" d="M 3.117188 4.597656 C 2.609375 4.597656 2.339844 4.875 2.214844 5.199219 L 1.554688 6.90625 C 1.292969 6.941406 0.828125 7.246094 0.828125 7.832031 L 0.828125 10 L 1.46875 10 L 1.46875 10.695312 C 1.46875 11.546875 2.679688 11.539062 2.679688 10.695312 L 2.679688 10 L 7.027344 10 L 7.027344 10.695312 C 7.027344 11.539062 8.234375 11.546875 8.234375 10.695312 L 8.234375 10 L 8.878906 10 L 8.878906 7.832031 C 8.878906 7.582031 8.792969 7.382812 8.675781 7.234375 C 8.566406 7.246094 8.453125 7.25 8.339844 7.25 C 7.78125 7.25 7.25 7.121094 6.777344 6.890625 L 2.238281 6.890625 L 2.734375 5.546875 C 2.796875 5.359375 2.890625 5.222656 3.109375 5.21875 L 5.113281 5.21875 C 5.015625 5.023438 4.9375 4.8125 4.878906 4.597656 Z M 2.09375 7.542969 C 2.402344 7.542969 2.652344 7.800781 2.652344 8.117188 C 2.652344 8.433594 2.402344 8.691406 2.09375 8.691406 C 1.785156 8.691406 1.535156 8.433594 1.535156 8.117188 C 1.535156 7.800781 1.785156 7.542969 2.09375 7.542969 Z M 7.609375 7.542969 C 7.917969 7.542969 8.167969 7.800781 8.167969 8.117188 C 8.167969 8.433594 7.917969 8.691406 7.609375 8.691406 C 7.304688 8.691406 7.050781 8.433594 7.050781 8.117188 C 7.050781 7.800781 7.304688 7.542969 7.609375 7.542969 Z M 7.609375 7.542969 "/>
<path style=" stroke:none;fill-rule:nonzero;fill:rgb(100%,100%,100%);fill-opacity:1;" d="M 8.339844 0.667969 C 6.6875 0.667969 5.34375 2.015625 5.34375 3.667969 C 5.34375 5.320312 6.6875 6.664062 8.339844 6.664062 C 9.992188 6.664062 11.339844 5.320312 11.339844 3.667969 C 11.339844 2.015625 9.992188 0.667969 8.339844 0.667969 Z M 8.339844 1.246094 C 9.683594 1.246094 10.761719 2.324219 10.761719 3.667969 C 10.761719 5.007812 9.683594 6.089844 8.339844 6.089844 C 7 6.089844 5.917969 5.007812 5.917969 3.667969 C 5.917969 2.324219 7 1.246094 8.339844 1.246094 Z M 8.339844 1.246094 "/>
<path style=" stroke:none;fill-rule:nonzero;fill:rgb(100%,100%,100%);fill-opacity:1;" d="M 10.6875 1.480469 L 10.3125 1.222656 C 10.207031 1.152344 10.0625 1.179688 9.992188 1.28125 L 8.140625 4 L 7.289062 3.152344 C 7.199219 3.066406 7.054688 3.066406 6.964844 3.152344 L 6.640625 3.476562 C 6.554688 3.566406 6.554688 3.710938 6.640625 3.796875 L 7.953125 5.101562 C 8.023438 5.171875 8.140625 5.230469 8.246094 5.230469 C 8.347656 5.230469 8.453125 5.164062 8.519531 5.066406 L 10.75 1.792969 C 10.820312 1.691406 10.792969 1.550781 10.6875 1.480469 Z M 10.6875 1.480469 "/>
</g>
</svg>
