<?xml version="1.0" encoding="UTF-8"?>
<svg xmlns="http://www.w3.org/2000/svg" xmlns:xlink="http://www.w3.org/1999/xlink" width="12" height="12" viewBox="0 0 12 12" version="1.1">
<g id="surface1">
<path style=" stroke:none;fill-rule:nonzero;fill:rgb(100%,100%,100%);fill-opacity:1;" d="M 4.664062 5.859375 C 4.652344 6.113281 4.546875 6.351562 4.375 6.523438 C 4.199219 6.691406 3.96875 6.78125 3.738281 6.765625 C 3.503906 6.753906 3.285156 6.640625 3.128906 6.449219 C 2.96875 6.261719 2.890625 6.011719 2.902344 5.757812 C 2.914062 5.503906 3.019531 5.269531 3.191406 5.097656 C 3.367188 4.929688 3.597656 4.839844 3.828125 4.851562 C 4.0625 4.867188 4.28125 4.980469 4.441406 5.167969 C 4.597656 5.355469 4.675781 5.605469 4.664062 5.859375 "/>
<path style=" stroke:none;fill-rule:nonzero;fill:rgb(100%,100%,100%);fill-opacity:1;" d="M 8.753906 5.875 C 8.738281 6.128906 8.632812 6.367188 8.460938 6.535156 C 8.285156 6.707031 8.058594 6.792969 7.824219 6.78125 C 7.589844 6.765625 7.371094 6.652344 7.214844 6.464844 C 7.058594 6.277344 6.976562 6.027344 6.988281 5.773438 C 7 5.519531 7.105469 5.28125 7.28125 5.113281 C 7.453125 4.941406 7.683594 4.855469 7.917969 4.867188 C 8.148438 4.878906 8.371094 4.992188 8.527344 5.183594 C 8.683594 5.371094 8.765625 5.621094 8.753906 5.875 "/>
<path style=" stroke:none;fill-rule:nonzero;fill:rgb(100%,100%,100%);fill-opacity:1;" d="M 6.730469 5.421875 C 6.71875 5.675781 6.613281 5.914062 6.441406 6.085938 C 6.265625 6.253906 6.039062 6.34375 5.804688 6.328125 C 5.570312 6.316406 5.351562 6.203125 5.195312 6.011719 C 5.039062 5.824219 4.957031 5.574219 4.96875 5.320312 C 4.980469 5.066406 5.085938 4.832031 5.257812 4.660156 C 5.433594 4.492188 5.664062 4.402344 5.894531 4.414062 C 6.128906 4.429688 6.347656 4.542969 6.507812 4.730469 C 6.664062 4.917969 6.746094 5.167969 6.730469 5.421875 "/>
<path style=" stroke:none;fill-rule:nonzero;fill:rgb(100%,100%,100%);fill-opacity:1;" d="M 6.519531 7.503906 C 6.511719 7.703125 6.429688 7.886719 6.292969 8.019531 C 6.15625 8.152344 5.976562 8.222656 5.792969 8.210938 C 5.613281 8.199219 5.441406 8.113281 5.316406 7.964844 C 5.195312 7.816406 5.132812 7.621094 5.140625 7.421875 C 5.152344 7.226562 5.234375 7.039062 5.367188 6.90625 C 5.503906 6.773438 5.683594 6.703125 5.867188 6.714844 C 6.050781 6.722656 6.222656 6.8125 6.34375 6.960938 C 6.46875 7.109375 6.53125 7.304688 6.519531 7.5 "/>
<path style=" stroke:none;fill-rule:nonzero;fill:rgb(100%,100%,100%);fill-opacity:1;" d="M 4.996094 7.75 C 4.984375 7.945312 4.902344 8.132812 4.765625 8.265625 C 4.628906 8.398438 4.453125 8.46875 4.269531 8.457031 C 4.085938 8.445312 3.914062 8.355469 3.792969 8.210938 C 3.667969 8.0625 3.605469 7.867188 3.613281 7.667969 C 3.625 7.46875 3.707031 7.285156 3.84375 7.152344 C 3.980469 7.019531 4.15625 6.949219 4.339844 6.960938 C 4.523438 6.96875 4.695312 7.058594 4.820312 7.207031 C 4.941406 7.355469 5.003906 7.546875 4.996094 7.746094 "/>
<path style=" stroke:none;fill-rule:nonzero;fill:rgb(100%,100%,100%);fill-opacity:1;" d="M 8.109375 7.816406 C 8.101562 8.015625 8.019531 8.199219 7.882812 8.332031 C 7.746094 8.464844 7.566406 8.535156 7.382812 8.523438 C 7.199219 8.511719 7.03125 8.425781 6.90625 8.277344 C 6.785156 8.128906 6.722656 7.933594 6.730469 7.734375 C 6.738281 7.539062 6.820312 7.351562 6.957031 7.21875 C 7.09375 7.085938 7.273438 7.015625 7.457031 7.027344 C 7.640625 7.035156 7.8125 7.125 7.933594 7.273438 C 8.058594 7.421875 8.121094 7.617188 8.109375 7.8125 "/>
<path style=" stroke:none;fill-rule:nonzero;fill:rgb(100%,100%,100%);fill-opacity:1;" d="M 5.601562 9.355469 C 5.59375 9.515625 5.53125 9.664062 5.421875 9.769531 C 5.3125 9.875 5.167969 9.929688 5.019531 9.921875 C 4.875 9.914062 4.738281 9.84375 4.640625 9.726562 C 4.539062 9.605469 4.488281 9.449219 4.496094 9.292969 C 4.503906 9.132812 4.570312 8.984375 4.679688 8.878906 C 4.789062 8.769531 4.933594 8.714844 5.078125 8.722656 C 5.226562 8.730469 5.363281 8.804688 5.460938 8.921875 C 5.558594 9.039062 5.609375 9.195312 5.601562 9.355469 "/>
<path style=" stroke:none;fill-rule:nonzero;fill:rgb(100%,100%,100%);fill-opacity:1;" d="M 7.027344 9.355469 C 7.019531 9.511719 6.953125 9.660156 6.84375 9.769531 C 6.734375 9.875 6.589844 9.929688 6.445312 9.921875 C 6.296875 9.914062 6.160156 9.839844 6.0625 9.722656 C 5.964844 9.605469 5.914062 9.449219 5.921875 9.289062 C 5.929688 9.132812 5.996094 8.980469 6.105469 8.875 C 6.214844 8.769531 6.355469 8.714844 6.503906 8.722656 C 6.648438 8.730469 6.785156 8.800781 6.886719 8.917969 C 6.984375 9.039062 7.035156 9.195312 7.027344 9.351562 "/>
<path style=" stroke:none;fill-rule:nonzero;fill:rgb(100%,100%,100%);fill-opacity:1;" d="M 6.304688 10.664062 C 6.296875 10.820312 6.230469 10.96875 6.125 11.074219 C 6.015625 11.179688 5.875 11.230469 5.730469 11.222656 C 5.585938 11.214844 5.449219 11.144531 5.351562 11.027344 C 5.257812 10.910156 5.207031 10.757812 5.214844 10.601562 C 5.222656 10.445312 5.285156 10.296875 5.394531 10.191406 C 5.5 10.085938 5.644531 10.03125 5.789062 10.039062 C 5.933594 10.046875 6.066406 10.117188 6.164062 10.234375 C 6.261719 10.351562 6.3125 10.503906 6.304688 10.664062 "/>
<path style="fill:none;stroke-width:25.393299;stroke-linecap:round;stroke-linejoin:miter;stroke:rgb(100%,100%,100%);stroke-opacity:1;stroke-miterlimit:4;" d="M 233.170573 63.248698 C 233.170573 63.248698 349.661458 103.085938 294.342448 190.878906 " transform="matrix(0.0206897,0,0,0.0206897,0,0)"/>
<path style=" stroke:none;fill-rule:nonzero;fill:rgb(100%,100%,100%);fill-opacity:1;" d="M 6.757812 2.484375 C 7.144531 1.527344 6.25 1.234375 7.636719 0.597656 C 7.636719 0.597656 8.074219 0.816406 8.15625 0.933594 C 8.324219 1.167969 8.113281 1.75 8.113281 1.75 C 8.113281 1.75 8.128906 1.460938 8.707031 1.222656 C 8.980469 1.113281 9.917969 1.363281 9.917969 1.363281 C 9.917969 1.363281 9.875 2.003906 9.472656 2.511719 C 9.390625 2.617188 8.714844 2.648438 8.714844 2.648438 C 9.664062 2.832031 9.40625 3.285156 9.589844 3.554688 C 7.867188 4.433594 7.441406 2.65625 6.4375 2.988281 L 6.332031 2.632812 Z M 6.757812 2.484375 "/>
</g>
</svg>
