<?xml version="1.0" encoding="UTF-8"?>
<svg xmlns="http://www.w3.org/2000/svg" xmlns:xlink="http://www.w3.org/1999/xlink" width="32" height="32" viewBox="0 0 32 32">
<path fill-rule="evenodd" fill="rgb(24.705882%, 24.705882%, 24.705882%)" fill-opacity="1" d="M 24.105469 2.667969 L 7.894531 2.667969 C 5.019531 2.667969 2.667969 5.019531 2.667969 7.890625 L 2.667969 24.109375 C 2.667969 26.980469 5.019531 29.332031 7.894531 29.332031 L 24.109375 29.332031 C 26.980469 29.332031 29.332031 26.980469 29.332031 24.109375 L 29.332031 7.890625 C 29.332031 5.019531 26.980469 2.667969 24.105469 2.667969 Z M 24.34375 18.496094 C 26.050781 20.082031 26.40625 20.855469 26.464844 20.953125 C 27.171875 22.125 25.679688 22.21875 25.679688 22.21875 L 22.828125 22.257812 C 20.960938 22.625 19.972656 18.984375 18.546875 19.4375 C 17.449219 19.785156 18.1875 21.210938 17.601562 21.84375 C 17.273438 22.191406 16.152344 21.976562 15.742188 21.976562 C 10.355469 22.527344 7.0625 15.3125 5.34375 11.332031 C 5.144531 10.839844 5.53125 10.617188 5.984375 10.621094 L 9.035156 10.609375 C 9.367188 10.667969 9.664062 10.847656 9.796875 11.171875 C 9.796875 11.171875 10.289062 12.421875 10.941406 13.546875 C 12.21875 15.753906 12.8125 16.234375 13.246094 16 C 14.011719 15.582031 13.964844 12.238281 13.367188 11.429688 C 13.113281 11.082031 12.632812 10.980469 12.421875 10.953125 C 12.246094 10.929688 12.53125 10.53125 12.894531 10.351562 C 14.003906 9.808594 15.875 9.941406 17.0625 10.226562 C 19.179688 10.738281 16.589844 14.964844 18.164062 15.984375 C 18.398438 16.136719 18.972656 16.007812 20.402344 13.578125 C 21.082031 12.425781 21.589844 11.074219 21.589844 11.074219 C 21.71875 10.789062 21.96875 10.613281 22.289062 10.65625 C 22.878906 10.652344 26.335938 10.15625 26.621094 10.953125 C 26.789062 11.414062 26.261719 12.480469 24.949219 14.230469 C 22.792969 17.105469 22.554688 16.835938 24.34375 18.496094 Z M 24.34375 18.496094 "/>
</svg>
