<?xml version="1.0" encoding="UTF-8"?>
<svg xmlns="http://www.w3.org/2000/svg" xmlns:xlink="http://www.w3.org/1999/xlink" width="12" height="12" viewBox="0 0 12 12" version="1.1">
<g id="surface1">
<path style=" stroke:none;fill-rule:nonzero;fill:rgb(24.705882%,24.705882%,24.705882%);fill-opacity:1;" d="M 4.5 4 L 7.5 4 L 7.5 5.5 L 4.5 5.5 Z M 4.5 4 "/>
<path style=" stroke:none;fill-rule:nonzero;fill:rgb(24.705882%,24.705882%,24.705882%);fill-opacity:1;" d="M 5 6.5 C 5 6.636719 4.886719 6.75 4.75 6.75 C 4.613281 6.75 4.5 6.636719 4.5 6.5 C 4.5 6.363281 4.613281 6.25 4.75 6.25 C 4.886719 6.25 5 6.363281 5 6.5 Z M 5 6.5 "/>
<path style=" stroke:none;fill-rule:nonzero;fill:rgb(24.705882%,24.705882%,24.705882%);fill-opacity:1;" d="M 7.25 6.75 C 7.386719 6.75 7.5 6.636719 7.5 6.5 C 7.5 6.363281 7.386719 6.25 7.25 6.25 C 7.113281 6.25 7 6.363281 7 6.5 C 7 6.636719 7.113281 6.75 7.25 6.75 Z M 7.25 6.75 "/>
<path style=" stroke:none;fill-rule:evenodd;fill:rgb(24.705882%,24.705882%,24.705882%);fill-opacity:1;" d="M 3.5 2 L 3 2 L 3 11 L 4 11 L 4 10.5 C 4 10.222656 4.222656 10 4.5 10 C 4.777344 10 5 10.222656 5 10.5 L 5 11 L 6 11 L 6 10.5 C 6 10.222656 6.222656 10 6.5 10 C 6.777344 10 7 10.222656 7 10.5 L 7 11 L 8 11 L 8 10.5 C 8 10.222656 8.222656 10 8.5 10 L 9 10 L 9 1 L 8 1 L 8 1.5 C 8 1.777344 7.777344 2 7.5 2 C 7.222656 2 7 1.777344 7 1.5 L 7 1 L 6 1 L 6 1.5 C 6 1.777344 5.777344 2 5.5 2 C 5.222656 2 5 1.777344 5 1.5 L 5 1 L 4 1 L 4 1.5 C 4 1.777344 3.777344 2 3.5 2 Z M 4.25 3.25 C 4.410156 3.089844 4.628906 3 4.855469 3 L 7.144531 3 C 7.371094 3 7.589844 3.089844 7.75 3.25 C 7.910156 3.410156 8 3.628906 8 3.855469 L 8 7.5 C 8 7.777344 7.777344 8 7.5 8 C 7.222656 8 7 7.777344 7 7.5 L 5 7.5 C 5 7.777344 4.777344 8 4.5 8 C 4.222656 8 4 7.777344 4 7.5 L 4 3.855469 C 4 3.628906 4.089844 3.410156 4.25 3.25 Z M 4.25 3.25 "/>
</g>
</svg>
