<?xml version="1.0" encoding="UTF-8"?>
<svg xmlns="http://www.w3.org/2000/svg" xmlns:xlink="http://www.w3.org/1999/xlink" width="12" height="12" viewBox="0 0 12 12" version="1.1">
<g id="surface1">
<path style=" stroke:none;fill-rule:evenodd;fill:rgb(24.705882%,24.705882%,24.705882%);fill-opacity:1;" d="M 9 4 C 9 5.488281 7.917969 6.71875 6.5 6.957031 L 6.5 10.5 C 6.5 10.777344 6.277344 11 6 11 C 5.722656 11 5.5 10.777344 5.5 10.5 L 5.5 6.957031 C 4.082031 6.71875 3 5.488281 3 4 C 3 2.34375 4.34375 1 6 1 C 7.65625 1 9 2.34375 9 4 Z M 4 4 C 4 4.273438 4.054688 4.53125 4.152344 4.769531 L 4.378906 4.429688 C 4.734375 3.898438 5.429688 3.714844 6 4 L 5.429688 4.378906 C 5 4.667969 4.796875 5.175781 4.886719 5.660156 C 5.203125 5.875 5.589844 6 6 6 C 6.273438 6 6.53125 5.945312 6.769531 5.847656 L 6.429688 5.621094 C 5.898438 5.265625 5.714844 4.570312 6 4 L 6.378906 4.570312 C 6.667969 5 7.175781 5.203125 7.660156 5.113281 C 7.875 4.796875 8 4.410156 8 4 C 8 3.726562 7.945312 3.46875 7.847656 3.230469 L 7.621094 3.570312 C 7.265625 4.101562 6.570312 4.285156 6 4 L 6.570312 3.621094 C 7 3.332031 7.203125 2.824219 7.113281 2.339844 C 6.796875 2.125 6.410156 2 6 2 C 5.726562 2 5.46875 2.054688 5.230469 2.152344 L 5.570312 2.378906 C 6.101562 2.734375 6.285156 3.429688 6 4 L 5.621094 3.429688 C 5.332031 3 4.824219 2.796875 4.339844 2.886719 C 4.125 3.203125 4 3.589844 4 4 Z M 4 4 "/>
</g>
</svg>
