<?xml version="1.0" encoding="UTF-8"?>
<svg xmlns="http://www.w3.org/2000/svg" xmlns:xlink="http://www.w3.org/1999/xlink" width="32" height="32" viewBox="0 0 32 32">
<path fill-rule="evenodd" fill="rgb(100%, 100%, 100%)" fill-opacity="1" d="M 8 5.332031 L 8 21.332031 L 24 21.332031 L 24 5.332031 L 26.667969 5.332031 L 26.667969 24 L 5.332031 24 L 5.332031 5.332031 Z M 8 5.332031 "/>
<path fill-rule="evenodd" fill="rgb(100%, 100%, 100%)" fill-opacity="1" d="M 16 -0.125 L 29.761719 5.988281 L 28.675781 8.425781 L 16 2.792969 L 3.324219 8.425781 L 2.238281 5.988281 Z M 16 -0.125 "/>
<path fill-rule="evenodd" fill="rgb(92.941176%, 92.941176%, 92.941176%)" fill-opacity="1" d="M 17.332031 16 L 17.332031 29.332031 L 2.667969 29.332031 L 2.667969 26.667969 L 14.667969 26.667969 L 14.667969 16 Z M 17.332031 16 "/>
<path fill-rule="nonzero" fill="rgb(95.294118%, 95.294118%, 95.294118%)" fill-opacity="1" d="M 14.515625 11.082031 L 14.515625 10.863281 C 14.515625 10.519531 14.578125 10.242188 14.703125 10.03125 C 14.832031 9.808594 15.023438 9.582031 15.285156 9.34375 C 15.496094 9.148438 15.6875 8.992188 15.851562 8.867188 C 16.019531 8.738281 16.148438 8.613281 16.242188 8.488281 C 16.34375 8.359375 16.394531 8.199219 16.394531 8.011719 C 16.394531 7.75 16.292969 7.566406 16.089844 7.460938 C 15.890625 7.347656 15.566406 7.289062 15.117188 7.289062 C 14.773438 7.289062 14.441406 7.335938 14.125 7.425781 C 13.816406 7.507812 13.554688 7.617188 13.332031 7.753906 L 13.332031 5.847656 C 13.640625 5.683594 13.996094 5.558594 14.398438 5.46875 C 14.800781 5.378906 15.253906 5.332031 15.757812 5.332031 C 16.695312 5.332031 17.414062 5.542969 17.910156 5.957031 C 18.414062 6.375 18.667969 6.945312 18.667969 7.667969 C 18.667969 8.117188 18.582031 8.484375 18.417969 8.769531 C 18.253906 9.054688 17.992188 9.351562 17.636719 9.652344 C 17.371094 9.878906 17.132812 10.082031 16.929688 10.261719 C 16.722656 10.441406 16.621094 10.667969 16.621094 10.9375 L 16.621094 11.082031 Z M 14.410156 13.332031 L 14.410156 11.707031 L 16.726562 11.707031 L 16.726562 13.332031 Z M 14.410156 13.332031 "/>
</svg>
