<?xml version="1.0" encoding="UTF-8"?>
<svg xmlns="http://www.w3.org/2000/svg" xmlns:xlink="http://www.w3.org/1999/xlink" width="12" height="12" viewBox="0 0 12 12" version="1.1">
<g id="surface1">
<path style=" stroke:none;fill-rule:evenodd;fill:rgb(24.705882%,24.705882%,24.705882%);fill-opacity:1;" d="M 2.363281 9.917969 L 5.363281 4.722656 L 8.363281 9.921875 Z M 2.363281 9.917969 "/>
<path style=" stroke:none;fill-rule:evenodd;fill:rgb(24.705882%,24.705882%,24.705882%);fill-opacity:1;" d="M 9.058594 1.652344 C 8.753906 1.484375 8.175781 1.167969 7.738281 1.167969 C 6.964844 1.167969 6.511719 1.574219 6.273438 1.945312 C 4.996094 1.84375 5.175781 4.183594 5.175781 4.183594 C 5.421875 2.617188 6.390625 2.546875 6.390625 2.6875 C 6.390625 2.6875 6.75 2.0625 7.457031 1.894531 C 8.164062 1.726562 8.984375 2.292969 8.984375 2.292969 C 8.984375 2.292969 9.824219 1.589844 11.238281 1.824219 C 11.238281 1.824219 10.269531 0.976562 9.058594 1.652344 Z M 9.058594 1.652344 "/>
<path style=" stroke:none;fill-rule:evenodd;fill:rgb(24.705882%,24.705882%,24.705882%);fill-opacity:1;" d="M 8.261719 3.214844 C 9.675781 4.023438 11.171875 2.832031 11.171875 2.832031 C 11.171875 2.832031 10.140625 4.953125 8.289062 3.910156 C 7.652344 3.574219 6.351562 3.988281 5.882812 4.425781 C 6.320312 3.683594 7.65625 2.84375 8.261719 3.214844 Z M 8.261719 3.214844 "/>
</g>
</svg>
