<?xml version="1.0" encoding="UTF-8"?>
<svg xmlns="http://www.w3.org/2000/svg" xmlns:xlink="http://www.w3.org/1999/xlink" width="12" height="12" viewBox="0 0 12 12" version="1.1">
<g id="surface1">
<path style=" stroke:none;fill-rule:evenodd;fill:rgb(100%,100%,100%);fill-opacity:1;" d="M 3 2 L 3 8 L 9 8 L 9 2 L 10 2 L 10 9 L 2 9 L 2 2 Z M 3 2 "/>
<path style=" stroke:none;fill-rule:evenodd;fill:rgb(100%,100%,100%);fill-opacity:1;" d="M 6 -0.046875 L 11.160156 2.246094 L 10.753906 3.160156 L 6 1.046875 L 1.246094 3.160156 L 0.839844 2.246094 Z M 6 -0.046875 "/>
<path style=" stroke:none;fill-rule:evenodd;fill:rgb(92.941177%,92.941177%,92.941177%);fill-opacity:1;" d="M 6.5 6 L 6.5 11 L 1 11 L 1 10 L 5.5 10 L 5.5 6 Z M 6.5 6 "/>
<path style=" stroke:none;fill-rule:nonzero;fill:rgb(95.294118%,95.294118%,95.294118%);fill-opacity:1;" d="M 5.445312 4.15625 L 5.445312 4.074219 C 5.445312 3.945312 5.46875 3.839844 5.515625 3.761719 C 5.5625 3.679688 5.632812 3.59375 5.730469 3.503906 C 5.8125 3.429688 5.882812 3.371094 5.945312 3.324219 C 6.007812 3.277344 6.054688 3.230469 6.089844 3.183594 C 6.128906 3.132812 6.148438 3.074219 6.148438 3.003906 C 6.148438 2.90625 6.109375 2.839844 6.035156 2.796875 C 5.960938 2.753906 5.839844 2.734375 5.667969 2.734375 C 5.539062 2.734375 5.414062 2.75 5.296875 2.785156 C 5.183594 2.816406 5.082031 2.855469 5 2.910156 L 5 2.191406 C 5.117188 2.132812 5.25 2.085938 5.398438 2.050781 C 5.550781 2.015625 5.71875 2 5.910156 2 C 6.261719 2 6.53125 2.078125 6.714844 2.234375 C 6.90625 2.390625 7 2.605469 7 2.875 C 7 3.042969 6.96875 3.183594 6.90625 3.289062 C 6.84375 3.394531 6.746094 3.507812 6.613281 3.621094 C 6.515625 3.703125 6.425781 3.78125 6.347656 3.847656 C 6.269531 3.914062 6.234375 4 6.234375 4.101562 L 6.234375 4.15625 Z M 5.402344 5 L 5.402344 4.390625 L 6.273438 4.390625 L 6.273438 5 Z M 5.402344 5 "/>
</g>
</svg>
