<?xml version="1.0" encoding="UTF-8"?>
<svg xmlns="http://www.w3.org/2000/svg" xmlns:xlink="http://www.w3.org/1999/xlink" width="32" height="32" viewBox="0 0 32 32">
<defs>
<filter id="filter-remove-color" x="0%" y="0%" width="100%" height="100%">
<feColorMatrix color-interpolation-filters="sRGB" values="0 0 0 0 1 0 0 0 0 1 0 0 0 0 1 0 0 0 1 0" />
</filter>
<mask id="mask-0">
<g filter="url(#filter-remove-color)">
<rect x="-3.2" y="-3.2" width="38.4" height="38.4" fill="rgb(0%, 0%, 0%)" fill-opacity="0.5"/>
</g>
</mask>
<clipPath id="clip-0">
<rect x="0" y="0" width="32" height="32"/>
</clipPath>
<g id="source-6" clip-path="url(#clip-0)">
<path fill-rule="nonzero" fill="rgb(24.705882%, 24.705882%, 24.705882%)" fill-opacity="1" d="M 21.332031 26.667969 L 21.332031 18.667969 L 24 18.667969 L 24 16 L 18.667969 10.667969 L 21.332031 8 L 24 10.667969 L 26.667969 10.667969 L 26.667969 13.332031 L 29.332031 16 L 29.332031 18.667969 L 26.667969 18.667969 L 26.667969 26.667969 Z M 21.332031 26.667969 "/>
</g>
<mask id="mask-1">
<g filter="url(#filter-remove-color)">
<rect x="-3.2" y="-3.2" width="38.4" height="38.4" fill="rgb(0%, 0%, 0%)" fill-opacity="0.5"/>
</g>
</mask>
<clipPath id="clip-1">
<rect x="0" y="0" width="32" height="32"/>
</clipPath>
<g id="source-11" clip-path="url(#clip-1)">
<path fill-rule="nonzero" fill="rgb(24.705882%, 24.705882%, 24.705882%)" fill-opacity="1" d="M 8 9.332031 L 5.332031 9.332031 L 5.332031 14.667969 L 8 14.667969 Z M 8 9.332031 "/>
<path fill-rule="nonzero" fill="rgb(24.705882%, 24.705882%, 24.705882%)" fill-opacity="1" d="M 18.667969 18.667969 L 13.332031 18.667969 L 13.332031 26.667969 L 18.667969 26.667969 Z M 18.667969 18.667969 "/>
</g>
</defs>
<g mask="url(#mask-0)">
<use xlink:href="#source-6"/>
</g>
<g mask="url(#mask-1)">
<use xlink:href="#source-11"/>
</g>
<path fill-rule="nonzero" fill="rgb(24.705882%, 24.705882%, 24.705882%)" fill-opacity="1" d="M 14.667969 22.667969 L 13.332031 22.667969 L 13.332031 24 L 14.667969 24 Z M 14.667969 22.667969 "/>
<path fill-rule="evenodd" fill="rgb(24.705882%, 24.705882%, 24.705882%)" fill-opacity="1" d="M 2.667969 16 L 13.332031 5.332031 L 24 16 L 24 18.667969 L 21.332031 18.667969 L 21.332031 26.667969 L 5.332031 26.667969 L 5.332031 18.667969 L 2.667969 18.667969 Z M 13.332031 18.667969 L 18.667969 18.667969 L 18.667969 26.667969 L 13.332031 26.667969 Z M 8 18.667969 L 10.667969 18.667969 L 10.667969 24 L 8 24 Z M 8 18.667969 "/>
</svg>
