<?xml version="1.0" encoding="UTF-8"?>
<svg xmlns="http://www.w3.org/2000/svg" xmlns:xlink="http://www.w3.org/1999/xlink" width="32" height="32" viewBox="0 0 32 32">
<path fill-rule="nonzero" fill="rgb(100%, 100%, 100%)" fill-opacity="1" d="M 16 1.855469 C 8.1875 1.855469 1.855469 8.1875 1.855469 16 C 1.855469 23.8125 8.1875 30.144531 16 30.144531 C 23.8125 30.144531 30.144531 23.8125 30.144531 16 C 30.144531 8.1875 23.8125 1.855469 16 1.855469 Z M 15.773438 4.167969 L 17.769531 4.167969 L 17.769531 27.105469 L 14.765625 27.105469 L 14.765625 9.101562 L 11.871094 10.421875 L 11.871094 7.140625 Z M 23.011719 12.742188 L 23.785156 12.742188 L 23.785156 13.753906 C 24.179688 13.800781 24.550781 13.886719 24.894531 14.011719 C 25.242188 14.136719 25.546875 14.3125 25.808594 14.535156 C 26.070312 14.761719 26.285156 15.039062 26.453125 15.371094 C 26.617188 15.703125 26.714844 16.097656 26.742188 16.554688 L 24.875 16.554688 C 24.867188 16.203125 24.757812 15.90625 24.546875 15.660156 C 24.335938 15.414062 24.082031 15.292969 23.785156 15.292969 L 23.785156 17.617188 C 23.890625 17.644531 23.996094 17.667969 24.109375 17.695312 C 24.21875 17.722656 24.332031 17.753906 24.457031 17.789062 C 25.105469 17.964844 25.601562 18.179688 25.953125 18.4375 C 26.304688 18.695312 26.5625 18.964844 26.730469 19.246094 C 26.894531 19.527344 26.992188 19.808594 27.023438 20.085938 C 27.054688 20.367188 27.070312 20.617188 27.070312 20.835938 C 27.070312 21.03125 27.023438 21.273438 26.925781 21.566406 C 26.828125 21.859375 26.65625 22.144531 26.40625 22.425781 C 26.15625 22.707031 25.820312 22.957031 25.402344 23.175781 C 24.980469 23.394531 24.441406 23.523438 23.785156 23.570312 L 23.785156 24.6875 L 23.011719 24.6875 L 23.011719 23.570312 C 22.03125 23.5 21.261719 23.195312 20.710938 22.664062 C 20.160156 22.128906 19.839844 21.34375 19.753906 20.3125 L 21.605469 20.3125 C 21.59375 20.808594 21.726562 21.203125 22 21.492188 C 22.269531 21.78125 22.605469 21.964844 23.011719 22.046875 L 23.011719 19.300781 C 22.964844 19.28125 22.90625 19.261719 22.832031 19.238281 C 22.757812 19.21875 22.675781 19.199219 22.589844 19.179688 C 22.265625 19.09375 21.945312 18.988281 21.628906 18.871094 C 21.316406 18.753906 21.03125 18.597656 20.78125 18.398438 C 20.53125 18.203125 20.332031 17.957031 20.183594 17.664062 C 20.035156 17.371094 19.960938 17.003906 19.960938 16.566406 C 19.960938 16.117188 20.046875 15.722656 20.21875 15.382812 C 20.390625 15.042969 20.613281 14.753906 20.894531 14.523438 C 21.175781 14.289062 21.5 14.109375 21.867188 13.984375 C 22.234375 13.855469 22.617188 13.78125 23.011719 13.753906 Z M 10.246094 13.429688 C 11.027344 13.429688 11.804688 13.664062 12.742188 14.132812 L 11.882812 15.84375 C 11.183594 15.378906 10.636719 15.222656 10.09375 15.222656 C 9.15625 15.222656 8.535156 15.84375 8.222656 17.089844 L 11.574219 17.089844 L 11.183594 18.105469 L 8.144531 18.105469 L 8.144531 18.648438 L 10.871094 18.648438 L 10.480469 19.664062 L 8.144531 19.664062 C 8.457031 21.066406 9.078125 21.84375 10.171875 21.84375 C 10.871094 21.84375 11.574219 21.53125 12.273438 20.988281 L 12.273438 23.011719 C 11.648438 23.402344 10.949219 23.558594 10.171875 23.558594 C 9 23.558594 8.144531 23.167969 7.441406 22.46875 C 6.820312 21.765625 6.429688 20.910156 6.195312 19.664062 L 5.027344 19.664062 L 5.417969 18.648438 L 5.964844 18.648438 L 5.964844 18.027344 L 5.027344 18.027344 L 5.417969 17.015625 L 6.195312 17.015625 C 6.429688 15.921875 6.898438 15.066406 7.519531 14.441406 C 8.222656 13.742188 9.15625 13.429688 10.246094 13.429688 Z M 23.011719 15.292969 C 22.859375 15.292969 22.714844 15.3125 22.578125 15.359375 C 22.4375 15.402344 22.308594 15.46875 22.195312 15.5625 C 22.082031 15.652344 21.992188 15.765625 21.925781 15.902344 C 21.859375 16.039062 21.828125 16.199219 21.828125 16.382812 C 21.828125 16.671875 21.917969 16.894531 22.105469 17.050781 C 22.289062 17.210938 22.589844 17.335938 23.011719 17.433594 Z M 23.785156 19.523438 L 23.785156 22.046875 C 23.941406 22.027344 24.109375 21.992188 24.277344 21.933594 C 24.449219 21.875 24.601562 21.796875 24.738281 21.691406 C 24.875 21.585938 24.984375 21.457031 25.074219 21.300781 C 25.160156 21.148438 25.203125 20.96875 25.203125 20.757812 C 25.203125 20.414062 25.097656 20.160156 24.882812 19.988281 C 24.667969 19.816406 24.300781 19.664062 23.785156 19.523438 Z M 23.785156 19.523438 "/>
</svg>
