<?xml version="1.0" encoding="UTF-8"?>
<svg xmlns="http://www.w3.org/2000/svg" xmlns:xlink="http://www.w3.org/1999/xlink" width="32" height="32" viewBox="0 0 32 32">
<path fill-rule="nonzero" fill="rgb(24.705882%, 24.705882%, 24.705882%)" fill-opacity="1" d="M 2.347656 7.097656 C 2.175781 7.097656 2.039062 7.238281 2.039062 7.410156 L 2.039062 8.222656 C 2.039062 8.394531 2.175781 8.535156 2.347656 8.535156 L 4.09375 8.535156 L 11.773438 24.707031 C 11.824219 24.8125 11.925781 24.898438 12.042969 24.902344 C 12.171875 24.898438 12.261719 24.847656 12.316406 24.746094 L 16.234375 17.570312 L 19.800781 24.746094 C 19.851562 24.851562 19.992188 24.902344 20.109375 24.902344 C 20.230469 24.898438 20.332031 24.8125 20.382812 24.707031 L 27.984375 8.535156 L 29.652344 8.535156 C 29.824219 8.535156 29.960938 8.394531 29.960938 8.222656 L 29.960938 7.410156 C 29.960938 7.238281 29.824219 7.097656 29.652344 7.097656 L 24.222656 7.097656 C 24.050781 7.097656 23.910156 7.238281 23.910156 7.410156 L 23.910156 8.261719 C 23.910156 8.433594 24.050781 8.574219 24.222656 8.574219 L 25.96875 8.574219 L 20.460938 20.75 L 17.628906 14.894531 L 21.121094 8.574219 L 22.089844 8.574219 C 22.261719 8.574219 22.398438 8.433594 22.398438 8.261719 L 22.398438 7.410156 C 22.398438 7.238281 22.261719 7.097656 22.089844 7.097656 L 17.628906 7.097656 C 17.457031 7.097656 17.320312 7.238281 17.320312 7.410156 L 17.320312 8.261719 C 17.320312 8.433594 17.457031 8.574219 17.628906 8.574219 L 19.101562 8.574219 L 16.738281 12.957031 L 14.71875 8.574219 L 15.535156 8.574219 C 15.707031 8.574219 15.84375 8.433594 15.84375 8.261719 L 15.84375 7.410156 C 15.84375 7.238281 15.707031 7.097656 15.535156 7.097656 L 10.917969 7.097656 C 10.75 7.097656 10.609375 7.238281 10.609375 7.410156 L 10.609375 8.261719 C 10.609375 8.433594 10.75 8.574219 10.917969 8.574219 L 11.773438 8.574219 L 15.261719 15.632812 L 12.507812 20.789062 L 7.195312 8.535156 L 8.554688 8.535156 C 8.726562 8.535156 8.863281 8.394531 8.863281 8.222656 L 8.863281 7.410156 C 8.863281 7.238281 8.726562 7.097656 8.554688 7.097656 Z M 2.347656 7.097656 "/>
</svg>
