<?xml version="1.0" encoding="UTF-8"?>
<svg xmlns="http://www.w3.org/2000/svg" xmlns:xlink="http://www.w3.org/1999/xlink" width="12" height="12" viewBox="0 0 12 12" version="1.1">
<g id="surface1">
<path style=" stroke:none;fill-rule:nonzero;fill:rgb(24.705882%,24.705882%,24.705882%);fill-opacity:1;" d="M 1.855469 1.144531 C 1.660156 0.953125 1.339844 0.953125 1.144531 1.144531 C 0.953125 1.339844 0.953125 1.660156 1.144531 1.855469 L 5 5.707031 L 5 7 C 5 7.550781 5.449219 8 6 8 L 7.292969 8 L 8.089844 8.796875 L 8.554688 9.722656 C 8.675781 9.96875 8.976562 10.070312 9.222656 9.945312 L 9.234375 9.941406 L 10.144531 10.855469 C 10.339844 11.046875 10.660156 11.046875 10.855469 10.855469 C 11.046875 10.660156 11.046875 10.339844 10.855469 10.144531 Z M 1.855469 1.144531 "/>
<path style=" stroke:none;fill-rule:nonzero;fill:rgb(24.705882%,24.705882%,24.705882%);fill-opacity:1;" d="M 8.5 6 L 8.414062 6 L 7.414062 5 L 8.5 5 C 8.777344 5 9 5.222656 9 5.5 C 9 5.777344 8.777344 6 8.5 6 Z M 8.5 6 "/>
<path style=" stroke:none;fill-rule:nonzero;fill:rgb(24.705882%,24.705882%,24.705882%);fill-opacity:1;" d="M 7 4 L 7 4.585938 L 5.53125 3.117188 C 5.671875 3.042969 5.832031 3 6 3 C 6.550781 3 7 3.449219 7 4 Z M 7 4 "/>
<path style=" stroke:none;fill-rule:nonzero;fill:rgb(24.705882%,24.705882%,24.705882%);fill-opacity:1;" d="M 6 3 C 5.449219 3 5 2.550781 5 2 C 5 1.449219 5.449219 1 6 1 C 6.550781 1 7 1.449219 7 2 C 7 2.550781 6.550781 3 6 3 Z M 6 3 "/>
<path style=" stroke:none;fill-rule:nonzero;fill:rgb(24.705882%,24.705882%,24.705882%);fill-opacity:1;" d="M 2 8 C 2 6.695312 2.835938 5.582031 4 5.171875 L 4 6.265625 C 3.402344 6.613281 3 7.257812 3 8 C 3 9.105469 3.894531 10 5 10 C 5.71875 10 6.347656 9.621094 6.703125 9.050781 L 7.292969 9.9375 C 6.742188 10.585938 5.917969 11 5 11 C 3.34375 11 2 9.65625 2 8 Z M 2 8 "/>
</g>
</svg>
