<?xml version="1.0" encoding="UTF-8"?>
<svg xmlns="http://www.w3.org/2000/svg" xmlns:xlink="http://www.w3.org/1999/xlink" width="12" height="12" viewBox="0 0 12 12" version="1.1">
<g id="surface1">
<path style=" stroke:none;fill-rule:nonzero;fill:rgb(100%,100%,100%);fill-opacity:1;" d="M 6 0.507812 C 6 0.507812 2.183594 5.132812 2.183594 7.675781 C 2.183594 9.785156 3.890625 11.492188 6 11.492188 C 8.109375 11.492188 9.816406 9.785156 9.816406 7.675781 C 9.816406 5.132812 6 0.507812 6 0.507812 Z M 3.566406 4.898438 C 3.597656 4.898438 3.625 4.902344 3.652344 4.914062 C 3.679688 4.925781 3.707031 4.945312 3.726562 4.964844 C 3.746094 4.988281 3.761719 5.011719 3.773438 5.039062 C 3.78125 5.066406 3.789062 5.097656 3.785156 5.125 C 3.785156 5.386719 3.988281 5.722656 4.382812 5.992188 C 4.507812 6.078125 4.652344 6.152344 4.8125 6.21875 C 4.585938 5.898438 4.449219 5.511719 4.449219 5.125 C 4.449219 5.074219 4.464844 5.023438 4.496094 4.984375 C 4.53125 4.945312 4.574219 4.917969 4.625 4.90625 C 4.65625 4.898438 4.691406 4.898438 4.722656 4.90625 C 4.757812 4.914062 4.785156 4.929688 4.8125 4.949219 C 4.839844 4.972656 4.859375 5 4.875 5.027344 C 4.886719 5.058594 4.894531 5.09375 4.894531 5.125 C 4.894531 5.433594 5.019531 5.785156 5.226562 6.039062 C 5.429688 6.296875 5.699219 6.453125 6 6.453125 C 6.300781 6.453125 6.570312 6.296875 6.773438 6.039062 C 6.980469 5.785156 7.105469 5.433594 7.105469 5.125 C 7.105469 5.097656 7.113281 5.066406 7.121094 5.039062 C 7.132812 5.011719 7.148438 4.988281 7.171875 4.96875 C 7.191406 4.945312 7.214844 4.929688 7.242188 4.917969 C 7.269531 4.90625 7.296875 4.902344 7.328125 4.902344 C 7.355469 4.902344 7.386719 4.90625 7.414062 4.917969 C 7.441406 4.929688 7.464844 4.945312 7.484375 4.96875 C 7.507812 4.988281 7.523438 5.011719 7.53125 5.039062 C 7.542969 5.066406 7.550781 5.097656 7.550781 5.125 C 7.550781 5.507812 7.417969 5.894531 7.195312 6.210938 C 7.347656 6.148438 7.488281 6.074219 7.613281 5.992188 C 8.003906 5.722656 8.214844 5.386719 8.214844 5.125 C 8.210938 5.097656 8.21875 5.066406 8.230469 5.039062 C 8.238281 5.011719 8.257812 4.988281 8.277344 4.96875 C 8.296875 4.945312 8.320312 4.929688 8.347656 4.917969 C 8.375 4.90625 8.40625 4.902344 8.433594 4.902344 C 8.464844 4.902344 8.492188 4.90625 8.519531 4.917969 C 8.546875 4.929688 8.570312 4.945312 8.59375 4.96875 C 8.613281 4.988281 8.628906 5.011719 8.640625 5.039062 C 8.652344 5.066406 8.65625 5.097656 8.65625 5.125 C 8.65625 5.597656 8.335938 6.035156 7.859375 6.355469 C 7.601562 6.535156 7.289062 6.675781 6.941406 6.773438 C 7.042969 6.851562 7.136719 6.949219 7.21875 7.050781 C 7.308594 6.910156 7.433594 6.777344 7.589844 6.730469 C 7.644531 6.714844 7.703125 6.699219 7.761719 6.6875 C 8.132812 6.636719 8.507812 6.738281 8.523438 6.746094 C 8.574219 6.757812 8.613281 6.800781 8.636719 6.847656 C 8.65625 6.894531 8.660156 6.953125 8.640625 7 C 8.597656 7.109375 8.351562 7.648438 7.984375 7.761719 C 7.945312 7.773438 7.90625 7.78125 7.859375 7.789062 C 7.75 7.804688 7.640625 7.800781 7.535156 7.789062 C 7.546875 7.859375 7.550781 7.929688 7.550781 8.003906 C 7.550781 8.886719 6.625 10.660156 6 10.660156 C 5.375 10.660156 4.449219 8.886719 4.449219 8.003906 C 4.449219 7.929688 4.453125 7.859375 4.464844 7.789062 C 4.359375 7.800781 4.25 7.804688 4.140625 7.789062 C 4.09375 7.78125 4.054688 7.773438 4.015625 7.761719 C 3.648438 7.648438 3.402344 7.109375 3.359375 7 C 3.339844 6.953125 3.34375 6.894531 3.363281 6.847656 C 3.386719 6.800781 3.425781 6.757812 3.476562 6.746094 C 3.492188 6.738281 3.867188 6.636719 4.238281 6.6875 C 4.296875 6.699219 4.355469 6.714844 4.410156 6.730469 C 4.566406 6.777344 4.691406 6.910156 4.78125 7.050781 C 4.863281 6.945312 4.957031 6.851562 5.058594 6.773438 C 4.707031 6.675781 4.390625 6.535156 4.132812 6.355469 C 3.65625 6.035156 3.34375 5.597656 3.34375 5.125 C 3.34375 5.074219 3.359375 5.023438 3.390625 4.984375 C 3.421875 4.945312 3.46875 4.917969 3.515625 4.90625 C 3.527344 4.902344 3.535156 4.898438 3.546875 4.898438 C 3.550781 4.898438 3.558594 4.898438 3.566406 4.898438 Z M 5.226562 8.003906 C 5.042969 8.003906 4.894531 8.152344 4.894531 8.335938 C 4.894531 8.519531 5.042969 8.667969 5.226562 8.667969 C 5.410156 8.667969 5.558594 8.519531 5.558594 8.335938 C 5.558594 8.152344 5.410156 8.003906 5.226562 8.003906 Z M 6.773438 8.003906 C 6.589844 8.003906 6.441406 8.152344 6.441406 8.335938 C 6.441406 8.519531 6.589844 8.667969 6.773438 8.667969 C 6.957031 8.667969 7.105469 8.519531 7.105469 8.335938 C 7.105469 8.152344 6.957031 8.003906 6.773438 8.003906 Z M 6 9.550781 C 5.816406 9.550781 5.667969 9.582031 5.667969 9.71875 C 5.667969 9.855469 5.816406 10.050781 6 10.050781 C 6.183594 10.050781 6.332031 9.855469 6.332031 9.71875 C 6.332031 9.582031 6.183594 9.550781 6 9.550781 Z M 6 9.550781 "/>
</g>
</svg>
