<?xml version="1.0" encoding="UTF-8"?>
<svg xmlns="http://www.w3.org/2000/svg" xmlns:xlink="http://www.w3.org/1999/xlink" width="32" height="32" viewBox="0 0 32 32">
<defs>
<filter id="filter-remove-color" x="0%" y="0%" width="100%" height="100%">
<feColorMatrix color-interpolation-filters="sRGB" values="0 0 0 0 1 0 0 0 0 1 0 0 0 0 1 0 0 0 1 0" />
</filter>
<mask id="mask-0">
<g filter="url(#filter-remove-color)">
<rect x="-3.2" y="-3.2" width="38.4" height="38.4" fill="rgb(0%, 0%, 0%)" fill-opacity="0.2"/>
</g>
</mask>
<clipPath id="clip-0">
<rect x="0" y="0" width="32" height="32"/>
</clipPath>
<g id="source-6" clip-path="url(#clip-0)">
<path fill-rule="nonzero" fill="rgb(100%, 100%, 100%)" fill-opacity="1" d="M 10.667969 8 L 26.667969 8 L 26.667969 26.667969 L 10.667969 26.667969 Z M 10.667969 8 "/>
</g>
</defs>
<g mask="url(#mask-0)">
<use xlink:href="#source-6"/>
</g>
<path fill-rule="evenodd" fill="rgb(100%, 100%, 100%)" fill-opacity="1" d="M 2.667969 5.332031 L 29.332031 5.332031 L 29.332031 26.667969 L 26.667969 26.667969 L 26.667969 24 L 21.332031 24 C 21.332031 25.472656 20.140625 26.667969 18.667969 26.667969 C 17.195312 26.667969 16 25.472656 16 24 L 13.332031 24 L 13.332031 18.667969 L 16 13.332031 L 18.667969 13.332031 L 18.667969 10.667969 L 26.667969 10.667969 L 26.667969 8 L 10.667969 8 L 10.667969 26.667969 L 2.667969 26.667969 Z M 16.316406 18.667969 L 17.648438 16 L 18.667969 16 L 18.667969 18.667969 Z M 19.199219 24 C 19.199219 24.292969 18.960938 24.535156 18.667969 24.535156 C 18.371094 24.535156 18.132812 24.292969 18.132812 24 C 18.132812 23.707031 18.371094 23.464844 18.667969 23.464844 C 18.960938 23.464844 19.199219 23.707031 19.199219 24 Z M 19.199219 24 "/>
</svg>
