<?xml version="1.0" encoding="UTF-8"?>
<svg xmlns="http://www.w3.org/2000/svg" xmlns:xlink="http://www.w3.org/1999/xlink" width="32" height="32" viewBox="0 0 32 32">
<defs>
<filter id="filter-remove-color" x="0%" y="0%" width="100%" height="100%">
<feColorMatrix color-interpolation-filters="sRGB" values="0 0 0 0 1 0 0 0 0 1 0 0 0 0 1 0 0 0 1 0" />
</filter>
<mask id="mask-0">
<g filter="url(#filter-remove-color)">
<rect x="-3.2" y="-3.2" width="38.4" height="38.4" fill="rgb(0%, 0%, 0%)" fill-opacity="0.75"/>
</g>
</mask>
<clipPath id="clip-0">
<rect x="0" y="0" width="32" height="32"/>
</clipPath>
<g id="source-8" clip-path="url(#clip-0)">
<path fill-rule="nonzero" fill="rgb(100%, 100%, 100%)" fill-opacity="1" stroke-width="11.0405" stroke-linecap="round" stroke-linejoin="round" stroke="rgb(100%, 100%, 100%)" stroke-opacity="1" stroke-miterlimit="4" d="M 140.539551 233.85498 C 119.865723 233.85498 65.632324 234.562988 39.082031 235.341797 L 39.082031 476.630859 L 276.477051 476.630859 C 260.830078 231.022949 268.830566 207.092285 140.539551 233.85498 Z M 140.539551 233.85498 " transform="matrix(0.0551724, 0, 0, 0.0551724, 0, 0)"/>
</g>
</defs>
<path fill-rule="evenodd" fill="rgb(100%, 100%, 100%)" fill-opacity="1" d="M 5.792969 7.644531 C 4.550781 7.671875 3.390625 8.480469 2.191406 8.472656 C 2.179688 8.472656 2.167969 8.472656 2.15625 8.46875 L 2.15625 10.878906 C 3.382812 10.871094 4.570312 10.023438 5.847656 10.050781 C 7.140625 10.085938 8.542969 10.984375 9.808594 11.042969 C 11.058594 11.078125 12.375 10.292969 13.292969 10.285156 C 14.1875 10.277344 14.664062 10.863281 15.199219 11 C 15.726562 11.128906 16.128906 11.15625 16.441406 11.070312 L 16.449219 9.375 C 16.660156 9.488281 17.667969 9.597656 15.910156 8.535156 C 15.140625 7.992188 14.253906 7.867188 13.355469 7.882812 C 12.441406 7.890625 11.125 8.675781 9.875 8.644531 C 8.609375 8.582031 7.207031 7.679688 5.914062 7.644531 C 5.875 7.644531 5.832031 7.644531 5.792969 7.644531 Z M 5.792969 7.644531 "/>
<path fill-rule="evenodd" fill="rgb(100%, 100%, 100%)" fill-opacity="1" d="M 15.050781 11.214844 C 15.355469 12.1875 15.148438 13.566406 15.515625 14.660156 C 15.917969 15.734375 16.148438 16.183594 16.550781 17.285156 C 16.570312 17.347656 17 18.378906 17.015625 18.441406 C 18.617188 18.429688 20.164062 19.742188 19.25 17.054688 C 18.851562 15.953125 18.207031 15.003906 17.804688 13.929688 C 17.4375 12.835938 17.9375 11.574219 17.636719 10.601562 C 17.125 8.789062 15.808594 8.730469 15.351562 8.625 C 13.542969 8.203125 12.246094 7.636719 13.199219 9.515625 C 13.414062 9.9375 14.171875 10.242188 15.050781 11.214844 Z M 15.050781 11.214844 "/>
<g mask="url(#mask-0)">
<use xlink:href="#source-8"/>
</g>
<path fill-rule="evenodd" fill="rgb(100%, 100%, 100%)" fill-opacity="1" d="M 20.46875 17.65625 C 19.300781 17.683594 18.167969 18.335938 17.074219 18.296875 C 17.027344 18.292969 16.984375 18.292969 16.941406 18.289062 L 16.941406 20.699219 C 16.964844 20.703125 16.984375 20.703125 17.007812 20.703125 C 18.175781 20.746094 19.382812 20.007812 20.632812 20.0625 C 21.863281 20.117188 23.097656 20.988281 24.355469 21.019531 C 25.59375 21.027344 26.789062 20.164062 28.078125 20.191406 C 28.679688 20.207031 29.304688 20.410156 29.929688 20.632812 L 29.929688 18.203125 C 29.328125 17.992188 28.726562 17.800781 28.144531 17.785156 C 26.855469 17.761719 25.660156 18.625 24.421875 18.617188 C 23.160156 18.585938 21.929688 17.714844 20.695312 17.660156 C 20.65625 17.660156 20.621094 17.65625 20.582031 17.65625 C 20.542969 17.65625 20.507812 17.65625 20.46875 17.65625 Z M 20.46875 17.65625 "/>
<path fill-rule="evenodd" fill="rgb(100%, 100%, 100%)" fill-opacity="1" d="M 20.890625 22.535156 C 19.683594 22.519531 18.515625 23.214844 17.382812 23.175781 C 17.339844 23.171875 17.292969 23.171875 17.25 23.164062 L 17.25 25.578125 C 17.273438 25.578125 17.292969 25.582031 17.316406 25.582031 C 18.484375 25.625 19.691406 24.882812 20.941406 24.941406 C 22.171875 24.992188 23.40625 25.867188 24.664062 25.898438 C 25.902344 25.902344 27.097656 25.042969 28.386719 25.070312 C 28.890625 25.082031 29.410156 25.226562 29.929688 25.402344 L 29.929688 22.976562 C 29.433594 22.8125 28.9375 22.675781 28.457031 22.664062 C 27.164062 22.636719 25.96875 23.5 24.730469 23.496094 C 23.472656 23.464844 22.238281 22.589844 21.007812 22.539062 C 20.96875 22.539062 20.929688 22.535156 20.890625 22.535156 Z M 20.890625 22.535156 "/>
</svg>
