<?xml version="1.0" encoding="UTF-8"?>
<svg xmlns="http://www.w3.org/2000/svg" xmlns:xlink="http://www.w3.org/1999/xlink" width="32" height="32" viewBox="0 0 32 32">
<path fill-rule="nonzero" fill="rgb(24.705882%, 24.705882%, 24.705882%)" fill-opacity="1" d="M 8.375 12.484375 C 10.703125 12.484375 12.59375 10.597656 12.59375 8.269531 C 12.59375 5.941406 10.703125 4.050781 8.375 4.050781 C 6.046875 4.050781 4.160156 5.941406 4.160156 8.269531 C 4.160156 10.597656 6.046875 12.484375 8.375 12.484375 Z M 8.375 12.484375 "/>
<path fill-rule="nonzero" fill="rgb(24.705882%, 24.705882%, 24.705882%)" fill-opacity="1" d="M 23.703125 16.683594 C 21.914062 16.683594 20.300781 17.445312 19.175781 18.664062 C 19.179688 18.671875 19.1875 18.675781 19.195312 18.683594 L 19.203125 18.671875 L 23.488281 21.980469 C 23.566406 21.957031 23.648438 21.945312 23.734375 21.945312 C 24.257812 21.945312 24.683594 22.371094 24.683594 22.890625 C 24.6875 23.414062 24.261719 23.839844 23.738281 23.839844 C 23.222656 23.839844 22.800781 23.425781 22.789062 22.910156 L 18.492188 19.59375 L 18.511719 19.570312 C 18.503906 19.566406 18.492188 19.5625 18.484375 19.558594 C 17.878906 20.511719 17.527344 21.644531 17.527344 22.855469 C 17.527344 26.265625 20.292969 29.03125 23.703125 29.03125 C 27.113281 29.03125 29.875 26.265625 29.875 22.855469 C 29.875 19.449219 27.113281 16.683594 23.703125 16.683594 Z M 23.703125 16.683594 "/>
<path fill-rule="nonzero" fill="rgb(24.705882%, 24.705882%, 24.705882%)" fill-opacity="1" d="M 2.777344 22.753906 C 2.777344 24.542969 3.542969 26.152344 4.757812 27.28125 C 4.765625 27.273438 4.769531 27.265625 4.777344 27.257812 L 4.765625 27.25 L 8.074219 22.96875 C 8.050781 22.886719 8.039062 22.804688 8.039062 22.71875 C 8.039062 22.195312 8.464844 21.769531 8.984375 21.769531 C 9.507812 21.769531 9.933594 22.191406 9.933594 22.714844 L 9.933594 22.71875 C 9.933594 23.234375 9.519531 23.652344 9.003906 23.664062 L 5.6875 27.960938 L 5.664062 27.945312 C 5.660156 27.953125 5.65625 27.960938 5.652344 27.96875 C 6.605469 28.574219 7.738281 28.925781 8.949219 28.925781 C 12.359375 28.925781 15.125 26.160156 15.125 22.753906 C 15.125 19.34375 12.359375 16.578125 8.949219 16.578125 C 5.542969 16.578125 2.777344 19.34375 2.777344 22.753906 Z M 2.777344 22.753906 "/>
<path fill-rule="nonzero" fill="rgb(24.705882%, 24.705882%, 24.705882%)" fill-opacity="1" d="M 29.332031 5.929688 C 28.59375 4.296875 27.238281 3.140625 25.664062 2.613281 C 25.660156 2.621094 25.660156 2.632812 25.65625 2.640625 L 25.667969 2.644531 L 24.414062 7.90625 C 24.464844 7.972656 24.511719 8.042969 24.546875 8.121094 C 24.761719 8.597656 24.550781 9.160156 24.074219 9.375 C 23.601562 9.589844 23.039062 9.378906 22.824219 8.902344 L 22.820312 8.898438 C 22.609375 8.429688 22.816406 7.875 23.277344 7.65625 L 24.535156 2.375 L 24.566406 2.382812 C 24.566406 2.371094 24.566406 2.363281 24.566406 2.351562 C 23.449219 2.195312 22.273438 2.339844 21.164062 2.835938 C 18.058594 4.238281 16.671875 7.894531 18.074219 11.003906 C 19.476562 14.109375 23.132812 15.496094 26.238281 14.09375 C 29.347656 12.691406 30.730469 9.035156 29.332031 5.929688 Z M 29.332031 5.929688 "/>
</svg>
