<svg width="12" height="12" viewBox="0 0 580 580" fill="none" xmlns="http://www.w3.org/2000/svg">
<path opacity="0.985122" d="M336.368 159.614C320.347 165.665 298.395 174.666 290.168 174.666C281.941 174.666 275.265 167.923 275.265 159.614C275.265 151.306 281.941 144.562 290.168 144.562C298.009 144.867 320.808 154.225 336.368 159.614Z" fill="#ffffff" stroke="#ffffff" stroke-width="15" stroke-linecap="round" stroke-linejoin="round"/>
<path opacity="0.985122" d="M321.967 159.614C337.988 165.665 359.941 174.666 368.168 174.666C376.394 174.666 383.071 167.923 383.071 159.614C383.071 151.306 376.394 144.562 368.168 144.562C360.327 144.867 337.528 154.225 321.967 159.614Z" fill="#ffffff" stroke="#ffffff" stroke-width="15" stroke-linecap="round" stroke-linejoin="round"/>
<path d="M328.917 158.862V250.679L330.034 286.427" stroke="#ffffff" stroke-width="30" stroke-linecap="round"/>
<path opacity="0.985122" d="M328.917 341.743C346.202 341.743 360.214 313.439 360.214 278.525C360.214 243.61 346.202 215.307 328.917 215.307C311.632 215.307 297.62 243.61 297.62 278.525C297.62 313.439 311.632 341.743 328.917 341.743Z" fill="#ffffff" stroke="#ffffff" stroke-width="30" stroke-linecap="round" stroke-linejoin="round"/>
<path d="M495.834 286.051L251.419 284.656L232.045 284.545C136.663 283.04 142.625 373.352 142.625 373.352" stroke="#ffffff" stroke-width="50"/>
</svg>
