<?xml version="1.0" encoding="UTF-8"?>
<svg xmlns="http://www.w3.org/2000/svg" xmlns:xlink="http://www.w3.org/1999/xlink" width="32" height="32" viewBox="0 0 32 32">
<path fill-rule="nonzero" fill="rgb(24.705882%, 24.705882%, 24.705882%)" fill-opacity="1" d="M 18.667969 5.332031 C 18.667969 6.804688 17.472656 8 16 8 C 14.527344 8 13.332031 6.804688 13.332031 5.332031 C 13.332031 3.859375 14.527344 2.667969 16 2.667969 C 17.472656 2.667969 18.667969 3.859375 18.667969 5.332031 Z M 18.667969 5.332031 "/>
<path fill-rule="nonzero" fill="rgb(24.705882%, 24.705882%, 24.705882%)" fill-opacity="1" d="M 16 8 C 14.527344 8 13.332031 9.195312 13.332031 10.667969 L 13.332031 18.667969 C 13.332031 20.140625 14.527344 21.332031 16 21.332031 L 20.507812 21.332031 L 22.808594 25.929688 C 23.136719 26.589844 23.9375 26.855469 24.597656 26.527344 L 27.261719 25.191406 C 27.921875 24.863281 28.1875 24.0625 27.859375 23.402344 C 27.53125 22.746094 26.730469 22.476562 26.070312 22.808594 L 24.597656 23.542969 L 22.527344 19.402344 C 22.300781 18.953125 21.839844 18.667969 21.332031 18.667969 L 18.667969 18.667969 L 18.667969 16 L 22.667969 16 C 23.402344 16 24 15.402344 24 14.667969 C 24 13.929688 23.402344 13.332031 22.667969 13.332031 L 18.667969 13.332031 L 18.667969 10.667969 C 18.667969 9.195312 17.472656 8 16 8 Z M 16 8 "/>
<path fill-rule="nonzero" fill="rgb(24.705882%, 24.705882%, 24.705882%)" fill-opacity="1" d="M 5.332031 21.332031 C 5.332031 17.851562 7.558594 14.886719 10.667969 13.789062 L 10.667969 16.714844 C 9.074219 17.636719 8 19.359375 8 21.332031 C 8 24.277344 10.386719 26.667969 13.332031 26.667969 C 15.25 26.667969 16.929688 25.65625 17.871094 24.136719 L 19.441406 26.496094 C 17.976562 28.230469 15.78125 29.332031 13.332031 29.332031 C 8.914062 29.332031 5.332031 25.75 5.332031 21.332031 Z M 5.332031 21.332031 "/>
</svg>
