<?xml version="1.0" encoding="UTF-8"?>
<svg xmlns="http://www.w3.org/2000/svg" xmlns:xlink="http://www.w3.org/1999/xlink" width="32" height="32" viewBox="0 0 32 32">
<path fill-rule="nonzero" fill="rgb(100%, 100%, 100%)" fill-opacity="1" d="M 16 1.351562 C 16 1.351562 5.824219 13.683594 5.824219 20.46875 C 5.824219 26.089844 10.378906 30.648438 16 30.648438 C 21.621094 30.648438 26.175781 26.089844 26.175781 20.46875 C 26.175781 13.683594 16 1.351562 16 1.351562 Z M 9.511719 13.058594 C 9.589844 13.058594 9.667969 13.074219 9.742188 13.105469 C 9.816406 13.136719 9.878906 13.183594 9.933594 13.242188 C 9.988281 13.296875 10.03125 13.363281 10.058594 13.4375 C 10.089844 13.511719 10.101562 13.589844 10.097656 13.671875 C 10.097656 14.363281 10.632812 15.257812 11.683594 15.976562 C 12.019531 16.203125 12.40625 16.40625 12.828125 16.585938 C 12.226562 15.730469 11.871094 14.695312 11.871094 13.671875 C 11.867188 13.535156 11.910156 13.398438 11.992188 13.292969 C 12.078125 13.183594 12.195312 13.109375 12.332031 13.082031 C 12.417969 13.058594 12.507812 13.0625 12.597656 13.082031 C 12.683594 13.101562 12.765625 13.144531 12.832031 13.199219 C 12.902344 13.257812 12.957031 13.328125 12.996094 13.410156 C 13.035156 13.492188 13.050781 13.582031 13.050781 13.671875 C 13.050781 14.492188 13.386719 15.421875 13.933594 16.105469 C 14.480469 16.789062 15.199219 17.210938 16 17.210938 C 16.800781 17.210938 17.519531 16.789062 18.066406 16.105469 C 18.613281 15.421875 18.949219 14.492188 18.949219 13.671875 C 18.949219 13.59375 18.964844 13.515625 18.992188 13.441406 C 19.023438 13.371094 19.066406 13.304688 19.121094 13.246094 C 19.175781 13.191406 19.242188 13.148438 19.3125 13.117188 C 19.386719 13.085938 19.460938 13.070312 19.539062 13.070312 C 19.617188 13.070312 19.695312 13.085938 19.769531 13.117188 C 19.839844 13.148438 19.90625 13.191406 19.960938 13.246094 C 20.015625 13.304688 20.058594 13.371094 20.089844 13.441406 C 20.117188 13.515625 20.132812 13.59375 20.132812 13.671875 C 20.132812 14.6875 19.785156 15.714844 19.191406 16.566406 C 19.597656 16.390625 19.972656 16.195312 20.296875 15.976562 C 21.347656 15.257812 21.902344 14.363281 21.902344 13.671875 C 21.898438 13.59375 21.914062 13.515625 21.945312 13.441406 C 21.972656 13.371094 22.015625 13.304688 22.070312 13.246094 C 22.125 13.191406 22.191406 13.148438 22.265625 13.117188 C 22.335938 13.085938 22.414062 13.070312 22.492188 13.070312 C 22.570312 13.070312 22.648438 13.085938 22.71875 13.117188 C 22.792969 13.148438 22.855469 13.191406 22.910156 13.246094 C 22.964844 13.304688 23.011719 13.371094 23.039062 13.441406 C 23.066406 13.515625 23.082031 13.59375 23.082031 13.671875 C 23.082031 14.925781 22.226562 16.089844 20.960938 16.953125 C 20.269531 17.421875 19.4375 17.804688 18.507812 18.058594 C 18.78125 18.269531 19.03125 18.527344 19.246094 18.796875 C 19.492188 18.421875 19.824219 18.074219 20.242188 17.949219 C 20.390625 17.90625 20.539062 17.863281 20.703125 17.839844 C 21.691406 17.695312 22.691406 17.972656 22.730469 17.984375 C 22.867188 18.023438 22.964844 18.136719 23.027344 18.261719 C 23.085938 18.390625 23.097656 18.535156 23.042969 18.667969 C 22.925781 18.957031 22.277344 20.398438 21.292969 20.695312 C 21.183594 20.730469 21.078125 20.753906 20.960938 20.769531 C 20.671875 20.8125 20.371094 20.800781 20.09375 20.769531 C 20.121094 20.957031 20.132812 21.148438 20.132812 21.34375 C 20.132812 23.703125 17.667969 28.421875 16 28.421875 C 14.332031 28.421875 11.867188 23.703125 11.867188 21.34375 C 11.867188 21.148438 11.878906 20.957031 11.90625 20.769531 C 11.628906 20.800781 11.328125 20.8125 11.039062 20.769531 C 10.921875 20.753906 10.816406 20.730469 10.707031 20.695312 C 9.726562 20.398438 9.074219 18.957031 8.957031 18.667969 C 8.902344 18.535156 8.914062 18.390625 8.972656 18.261719 C 9.035156 18.136719 9.132812 18.023438 9.269531 17.984375 C 9.308594 17.972656 10.308594 17.695312 11.296875 17.839844 C 11.460938 17.863281 11.609375 17.90625 11.757812 17.949219 C 12.175781 18.074219 12.507812 18.421875 12.753906 18.796875 C 12.96875 18.523438 13.214844 18.269531 13.492188 18.058594 C 12.558594 17.804688 11.710938 17.421875 11.019531 16.953125 C 9.753906 16.089844 8.917969 14.925781 8.917969 13.671875 C 8.914062 13.535156 8.960938 13.398438 9.042969 13.292969 C 9.128906 13.183594 9.246094 13.109375 9.378906 13.082031 C 9.402344 13.074219 9.429688 13.066406 9.453125 13.0625 C 9.472656 13.058594 9.492188 13.058594 9.511719 13.058594 Z M 13.933594 21.34375 C 13.445312 21.34375 13.050781 21.738281 13.050781 22.226562 C 13.050781 22.714844 13.445312 23.113281 13.933594 23.113281 C 14.421875 23.113281 14.820312 22.714844 14.820312 22.226562 C 14.820312 21.738281 14.421875 21.34375 13.933594 21.34375 Z M 18.066406 21.34375 C 17.578125 21.34375 17.179688 21.738281 17.179688 22.226562 C 17.179688 22.714844 17.578125 23.113281 18.066406 23.113281 C 18.554688 23.113281 18.949219 22.714844 18.949219 22.226562 C 18.949219 21.738281 18.554688 21.34375 18.066406 21.34375 Z M 16 25.472656 C 15.511719 25.472656 15.113281 25.550781 15.113281 25.914062 C 15.113281 26.28125 15.511719 26.800781 16 26.800781 C 16.488281 26.800781 16.886719 26.28125 16.886719 25.914062 C 16.886719 25.550781 16.488281 25.472656 16 25.472656 Z M 16 25.472656 "/>
</svg>
