<?xml version="1.0" encoding="UTF-8"?>
<svg xmlns="http://www.w3.org/2000/svg" xmlns:xlink="http://www.w3.org/1999/xlink" width="12" height="12" viewBox="0 0 12 12" version="1.1">
<defs>
<filter id="alpha" filterUnits="objectBoundingBox" x="0%" y="0%" width="100%" height="100%">
  <feColorMatrix type="matrix" in="SourceGraphic" values="0 0 0 0 1 0 0 0 0 1 0 0 0 0 1 0 0 0 1 0"/>
</filter>
<mask id="mask0">
  <g filter="url(#alpha)">
<rect x="0" y="0" width="12" height="12" style="fill:rgb(0%,0%,0%);fill-opacity:0.7;stroke:none;"/>
  </g>
</mask>
<clipPath id="clip1">
  <rect x="0" y="0" width="12" height="12"/>
</clipPath>
<g id="surface5" clip-path="url(#clip1)">
<path style=" stroke:none;fill-rule:nonzero;fill:rgb(100%,100%,100%);fill-opacity:1;" d="M 12 3 L 0 3 L 0 4 L 1 5 L 1 9 L 2 9 C 2 6.789062 3.789062 5 6 5 C 8.210938 5 10 6.789062 10 9 L 11 9 L 11 5 L 12 4 Z M 12 3 "/>
</g>
</defs>
<g id="surface1">
<use xlink:href="#surface5" mask="url(#mask0)"/>
<path style=" stroke:none;fill-rule:nonzero;fill:rgb(100%,100%,100%);fill-opacity:1;" d="M 2.5 9 L 2.5 8 L 3.5 8 L 3.5 6 L 4.5 7 C 5.050781 6.449219 5.949219 6.449219 6.5 7 L 7.5 7 C 7.992188 7 8.425781 7.234375 8.699219 7.601562 C 8.894531 7.453125 9.175781 7.46875 9.355469 7.644531 C 9.546875 7.839844 9.546875 8.160156 9.355469 8.355469 L 9.207031 8.5 C 9.140625 8.566406 9.066406 8.628906 8.988281 8.683594 C 8.945312 9.054688 8.765625 9.382812 8.5 9.617188 L 8.5 10.5 C 8.5 10.777344 8.277344 11 8 11 C 7.722656 11 7.5 10.777344 7.5 10.5 L 7.5 10 L 5.5 10 L 5.5 10.5 C 5.5 10.777344 5.277344 11 5 11 C 4.722656 11 4.5 10.777344 4.5 10.5 L 4.5 9.996094 C 4.140625 9.976562 3.796875 9.863281 3.496094 9.664062 Z M 2.5 9 "/>
</g>
</svg>
