<?xml version="1.0" encoding="UTF-8"?>
<svg xmlns="http://www.w3.org/2000/svg" xmlns:xlink="http://www.w3.org/1999/xlink" width="12" height="12" viewBox="0 0 12 12" version="1.1">
<g id="surface1">
<path style=" stroke:none;fill-rule:nonzero;fill:rgb(100%,100%,100%);fill-opacity:1;" d="M 7.75 2.605469 C 8.214844 2.605469 8.59375 2.226562 8.59375 1.757812 C 8.59375 1.292969 8.214844 0.914062 7.75 0.914062 C 7.28125 0.914062 6.90625 1.292969 6.90625 1.757812 C 6.90625 2.226562 7.28125 2.605469 7.75 2.605469 Z M 7.75 2.605469 "/>
<path style=" stroke:none;fill-rule:nonzero;fill:rgb(100%,100%,100%);fill-opacity:1;" d="M 6.664062 4.15625 L 6.667969 10.605469 C 6.667969 11.253906 7.617188 11.246094 7.617188 10.59375 L 7.617188 6.839844 L 7.804688 6.839844 L 7.800781 10.589844 C 7.800781 11.246094 8.761719 11.261719 8.761719 10.605469 L 8.761719 4.128906 L 8.929688 4.128906 L 8.929688 6.441406 C 8.929688 7 9.683594 7 9.683594 6.453125 L 9.683594 3.921875 C 9.683594 3.242188 9.175781 2.839844 8.640625 2.839844 L 7.140625 2.839844 C 6.78125 2.839844 6.523438 2.984375 6.308594 3.292969 L 5.546875 4.402344 L 4.226562 4.402344 C 3.695312 4.402344 3.726562 5.152344 4.21875 5.152344 L 5.738281 5.152344 C 5.855469 5.152344 6 5.109375 6.085938 4.984375 Z M 6.664062 4.15625 "/>
<path style=" stroke:none;fill-rule:nonzero;fill:rgb(100%,100%,100%);fill-opacity:1;" d="M 4.183594 8.113281 L 4.183594 7.496094 L 3.566406 7.496094 L 3.566406 8.113281 Z M 4.183594 8.113281 "/>
<path style=" stroke:none;fill-rule:nonzero;fill:rgb(100%,100%,100%);fill-opacity:1;" d="M 4.519531 6.742188 L 4.070312 6.292969 L 3.621094 6.742188 L 4.070312 7.191406 Z M 4.519531 6.742188 "/>
<path style=" stroke:none;fill-rule:nonzero;fill:rgb(100%,100%,100%);fill-opacity:1;" d="M 4.101562 5.890625 L 3.652344 5.441406 L 3.199219 5.890625 L 3.652344 6.339844 Z M 4.101562 5.890625 "/>
<path style=" stroke:none;fill-rule:nonzero;fill:rgb(100%,100%,100%);fill-opacity:1;" d="M 5.035156 11.085938 L 5.835938 6.820312 L 5.234375 6.820312 L 4.53125 10.492188 L 3.488281 10.492188 L 2.800781 6.820312 L 2.195312 6.820312 L 2.984375 11.085938 Z M 5.035156 11.085938 "/>
</g>
</svg>
