<?xml version="1.0" encoding="UTF-8"?>
<svg xmlns="http://www.w3.org/2000/svg" xmlns:xlink="http://www.w3.org/1999/xlink" width="12" height="12" viewBox="0 0 12 12" version="1.1">
<g id="surface1">
<path style=" stroke:none;fill-rule:nonzero;fill:rgb(100%,100%,100%);fill-opacity:1;" d="M 3.699219 3.460938 C 2.988281 3.460938 2.515625 3.921875 2.15625 4.246094 C 1.792969 4.574219 1.546875 4.765625 1.296875 4.765625 L 1.296875 5.789062 C 2.007812 5.789062 2.480469 5.328125 2.839844 5.003906 C 3.199219 4.675781 3.449219 4.484375 3.699219 4.484375 C 3.945312 4.484375 4.195312 4.675781 4.554688 5.003906 C 4.914062 5.328125 5.386719 5.789062 6.097656 5.789062 C 6.808594 5.789062 7.28125 5.328125 7.640625 5.003906 C 8 4.675781 8.25 4.484375 8.496094 4.484375 C 8.746094 4.484375 8.996094 4.675781 9.355469 5.003906 C 9.714844 5.328125 10.1875 5.789062 10.898438 5.789062 L 10.898438 4.765625 C 10.648438 4.765625 10.402344 4.574219 10.039062 4.246094 C 9.679688 3.921875 9.210938 3.460938 8.496094 3.460938 C 7.785156 3.460938 7.316406 3.921875 6.953125 4.246094 C 6.59375 4.574219 6.347656 4.765625 6.097656 4.765625 C 5.847656 4.765625 5.601562 4.574219 5.242188 4.246094 C 4.882812 3.921875 4.410156 3.460938 3.699219 3.460938 Z M 3.699219 3.460938 "/>
<path style=" stroke:none;fill-rule:evenodd;fill:rgb(100%,100%,100%);fill-opacity:0.737255;" d="M 3.699219 5.148438 C 3.652344 5.179688 3.507812 5.261719 3.269531 5.476562 C 2.925781 5.789062 2.285156 6.429688 1.296875 6.429688 C 1.292969 6.429688 1.289062 6.429688 1.285156 6.429688 L 1.285156 10.757812 L 10.910156 10.757812 L 10.910156 6.429688 C 10.90625 6.429688 10.902344 6.429688 10.898438 6.429688 C 9.910156 6.429688 9.269531 5.789062 8.925781 5.476562 C 8.6875 5.261719 8.542969 5.179688 8.496094 5.148438 C 8.453125 5.179688 8.308594 5.261719 8.070312 5.476562 C 7.726562 5.789062 7.085938 6.429688 6.097656 6.429688 C 5.109375 6.429688 4.46875 5.789062 4.125 5.476562 C 3.886719 5.261719 3.742188 5.179688 3.699219 5.148438 Z M 3.699219 5.148438 "/>
</g>
</svg>
