<?xml version="1.0" encoding="UTF-8"?>
<svg xmlns="http://www.w3.org/2000/svg" xmlns:xlink="http://www.w3.org/1999/xlink" width="12" height="12" viewBox="0 0 12 12" version="1.1">
<g id="surface1">
<path style=" stroke:none;fill-rule:nonzero;fill:rgb(24.705882%,24.705882%,24.705882%);fill-opacity:1;" d="M 3.5 3.5 L 5 3.5 L 5 4.5 L 3.5 4.5 C 2.671875 4.5 2 5.171875 2 6 C 2 6.828125 2.671875 7.5 3.5 7.5 L 5 7.5 L 5 8.5 L 3.5 8.5 C 2.121094 8.5 1 7.378906 1 6 C 1 4.621094 2.121094 3.5 3.5 3.5 Z M 3.5 3.5 "/>
<path style=" stroke:none;fill-rule:nonzero;fill:rgb(24.705882%,24.705882%,24.705882%);fill-opacity:1;" d="M 8.5 7.5 L 7 7.5 L 7 8.5 L 8.5 8.5 C 9.878906 8.5 11 7.378906 11 6 C 11 4.621094 9.878906 3.5 8.5 3.5 L 7 3.5 L 7 4.5 L 8.5 4.5 C 9.328125 4.5 10 5.171875 10 6 C 10 6.828125 9.328125 7.5 8.5 7.5 Z M 8.5 7.5 "/>
<path style=" stroke:none;fill-rule:nonzero;fill:rgb(24.705882%,24.705882%,24.705882%);fill-opacity:1;" d="M 4.5 5.5 C 4.222656 5.5 4 5.722656 4 6 C 4 6.277344 4.222656 6.5 4.5 6.5 L 7.5 6.5 C 7.777344 6.5 8 6.277344 8 6 C 8 5.722656 7.777344 5.5 7.5 5.5 Z M 4.5 5.5 "/>
</g>
</svg>
