<?xml version="1.0" encoding="UTF-8"?>
<svg xmlns="http://www.w3.org/2000/svg" xmlns:xlink="http://www.w3.org/1999/xlink" width="32" height="32" viewBox="0 0 32 32">
<path fill-rule="nonzero" fill="rgb(100%, 100%, 100%)" fill-opacity="1" d="M 9.859375 9.230469 C 7.964844 9.230469 6.707031 10.453125 5.746094 11.324219 C 4.785156 12.195312 4.125 12.710938 3.460938 12.710938 L 3.460938 15.4375 C 5.359375 15.4375 6.617188 14.210938 7.574219 13.34375 C 8.535156 12.472656 9.199219 11.957031 9.859375 11.957031 C 10.523438 11.957031 11.1875 12.472656 12.144531 13.34375 C 13.105469 14.210938 14.363281 15.4375 16.261719 15.4375 C 18.160156 15.4375 19.414062 14.210938 20.375 13.34375 C 21.335938 12.472656 22 11.957031 22.660156 11.957031 C 23.324219 11.957031 23.984375 12.472656 24.945312 13.34375 C 25.90625 14.210938 27.164062 15.4375 29.0625 15.4375 L 29.0625 12.710938 C 28.398438 12.710938 27.734375 12.195312 26.777344 11.324219 C 25.816406 10.453125 24.558594 9.230469 22.660156 9.230469 C 20.761719 9.230469 19.503906 10.453125 18.546875 11.324219 C 17.585938 12.195312 16.921875 12.710938 16.261719 12.710938 C 15.597656 12.710938 14.9375 12.195312 13.976562 11.324219 C 13.015625 10.453125 11.757812 9.230469 9.859375 9.230469 Z M 9.859375 9.230469 "/>
<path fill-rule="evenodd" fill="rgb(100%, 100%, 100%)" fill-opacity="0.735577" d="M 9.859375 13.726562 C 9.742188 13.816406 9.355469 14.035156 8.722656 14.609375 C 7.804688 15.441406 6.09375 17.144531 3.460938 17.144531 C 3.449219 17.144531 3.4375 17.144531 3.425781 17.144531 L 3.425781 28.6875 L 29.097656 28.6875 L 29.097656 17.144531 C 29.085938 17.144531 29.074219 17.144531 29.058594 17.144531 C 26.429688 17.144531 24.71875 15.441406 23.796875 14.609375 C 23.167969 14.035156 22.78125 13.816406 22.660156 13.726562 C 22.539062 13.816406 22.15625 14.035156 21.523438 14.609375 C 20.601562 15.441406 18.890625 17.144531 16.261719 17.144531 C 13.628906 17.144531 11.917969 15.441406 11 14.609375 C 10.367188 14.035156 9.980469 13.816406 9.859375 13.726562 Z M 9.859375 13.726562 "/>
</svg>
