<?xml version="1.0" encoding="UTF-8"?>
<svg xmlns="http://www.w3.org/2000/svg" xmlns:xlink="http://www.w3.org/1999/xlink" width="12" height="12" viewBox="0 0 12 12" version="1.1">
<defs>
<filter id="alpha" filterUnits="objectBoundingBox" x="0%" y="0%" width="100%" height="100%">
  <feColorMatrix type="matrix" in="SourceGraphic" values="0 0 0 0 1 0 0 0 0 1 0 0 0 0 1 0 0 0 1 0"/>
</filter>
<mask id="mask0">
  <g filter="url(#alpha)">
<rect x="0" y="0" width="12" height="12" style="fill:rgb(0%,0%,0%);fill-opacity:0.5;stroke:none;"/>
  </g>
</mask>
<clipPath id="clip1">
  <rect x="0" y="0" width="12" height="12"/>
</clipPath>
<g id="surface5" clip-path="url(#clip1)">
<path style=" stroke:none;fill-rule:evenodd;fill:rgb(100%,100%,100%);fill-opacity:1;" d="M 1.105469 8.171875 C 1.464844 7.453125 2.199219 7 3 7 C 3.570312 7 4.109375 7.230469 4.5 7.621094 C 4.890625 7.230469 5.429688 7 6 7 C 6.570312 7 7.109375 7.230469 7.5 7.621094 C 7.890625 7.230469 8.429688 7 9 7 C 9.800781 7 10.535156 7.453125 10.894531 8.171875 L 10.945312 8.277344 C 11.070312 8.523438 10.96875 8.824219 10.722656 8.945312 C 10.476562 9.070312 10.175781 8.96875 10.054688 8.722656 L 10 8.617188 C 9.8125 8.238281 9.421875 8 9 8 C 8.578125 8 8.1875 8.238281 8 8.617188 L 7.945312 8.722656 C 7.863281 8.894531 7.6875 9 7.5 9 C 7.3125 9 7.136719 8.894531 7.054688 8.722656 L 7 8.617188 C 6.8125 8.238281 6.421875 8 6 8 C 5.578125 8 5.1875 8.238281 5 8.617188 L 4.945312 8.722656 C 4.863281 8.894531 4.6875 9 4.5 9 C 4.3125 9 4.136719 8.894531 4.054688 8.722656 L 4 8.617188 C 3.8125 8.238281 3.421875 8 3 8 C 2.578125 8 2.1875 8.238281 2 8.617188 L 1.945312 8.722656 C 1.824219 8.96875 1.523438 9.070312 1.277344 8.945312 C 1.03125 8.824219 0.929688 8.523438 1.054688 8.277344 Z M 1.105469 8.171875 "/>
</g>
</defs>
<g id="surface1">
<path style=" stroke:none;fill-rule:evenodd;fill:rgb(100%,100%,100%);fill-opacity:1;" d="M 1.105469 10.171875 C 1.464844 9.453125 2.199219 9 3 9 C 3.570312 9 4.109375 9.230469 4.5 9.621094 C 4.890625 9.230469 5.429688 9 6 9 C 6.570312 9 7.109375 9.230469 7.5 9.621094 C 7.890625 9.230469 8.429688 9 9 9 C 9.800781 9 10.535156 9.453125 10.894531 10.171875 L 10.945312 10.277344 C 11.070312 10.523438 10.96875 10.824219 10.722656 10.945312 C 10.476562 11.070312 10.175781 10.96875 10.054688 10.722656 L 10 10.617188 C 9.8125 10.238281 9.421875 10 9 10 C 8.578125 10 8.1875 10.238281 8 10.617188 L 7.945312 10.722656 C 7.863281 10.894531 7.6875 11 7.5 11 C 7.3125 11 7.136719 10.894531 7.054688 10.722656 L 7 10.617188 C 6.8125 10.238281 6.421875 10 6 10 C 5.578125 10 5.1875 10.238281 5 10.617188 L 4.945312 10.722656 C 4.863281 10.894531 4.6875 11 4.5 11 C 4.3125 11 4.136719 10.894531 4.054688 10.722656 L 4 10.617188 C 3.8125 10.238281 3.421875 10 3 10 C 2.578125 10 2.1875 10.238281 2 10.617188 L 1.945312 10.722656 C 1.824219 10.96875 1.523438 11.070312 1.277344 10.945312 C 1.03125 10.824219 0.929688 10.523438 1.054688 10.277344 Z M 1.105469 10.171875 "/>
<use xlink:href="#surface5" mask="url(#mask0)"/>
<path style=" stroke:none;fill-rule:evenodd;fill:rgb(100%,100%,100%);fill-opacity:1;" d="M 1 2 C 1 1.449219 1.449219 1 2 1 L 4 1 C 4.550781 1 5 1.449219 5 2 L 5 5 L 5.5 5 C 6.328125 5 7 5.671875 7 6.5 C 7 6.777344 7.222656 7 7.5 7 C 7.777344 7 8 6.777344 8 6.5 L 8 4.996094 C 7.835938 5.007812 7.664062 5 7.5 5 C 6.671875 5 6 4.328125 6 3.5 C 6 2.671875 6.671875 2 7.5 2 L 7 1 L 8 1 C 8.285156 1.570312 9 2.429688 9 3.085938 C 9 3.386719 9.019531 3.699219 8.996094 4 L 9 4 L 9 6.5 C 9 7.328125 8.328125 8 7.5 8 C 6.671875 8 6 7.328125 6 6.5 C 6 6.222656 5.777344 6 5.5 6 L 5 6 L 5 7.5 C 5 7.777344 4.777344 8 4.5 8 L 1.5 8 C 1.222656 8 1 7.777344 1 7.5 Z M 2 2 L 4 2 L 4 4 L 2 4 Z M 7 3.5 C 7 3.222656 7.222656 3 7.5 3 C 7.777344 3 8 3.222656 8 3.5 C 8 3.777344 7.777344 4 7.5 4 C 7.222656 4 7 3.777344 7 3.5 Z M 7 3.5 "/>
</g>
</svg>
