<?xml version="1.0" encoding="UTF-8"?>
<svg xmlns="http://www.w3.org/2000/svg" xmlns:xlink="http://www.w3.org/1999/xlink" width="12" height="12" viewBox="0 0 12 12" version="1.1">
<g id="surface1">
<path style=" stroke:none;fill-rule:nonzero;fill:rgb(24.705882%,24.705882%,24.705882%);fill-opacity:1;" d="M 9.898438 1.324219 L 8.339844 1.324219 L 7.753906 8.183594 L 7.597656 5.609375 L 6.78125 5.609375 L 6.78125 3.660156 L 4.050781 5.609375 L 4.050781 3.660156 L 1.324219 5.609375 L 1.324219 10.675781 L 10.675781 10.675781 Z M 3.273438 9.507812 L 2.492188 9.507812 L 2.492188 8.339844 L 3.273438 8.339844 Z M 3.273438 7.558594 L 2.492188 7.558594 L 2.492188 6.390625 L 3.273438 6.390625 Z M 4.832031 9.507812 L 4.050781 9.507812 L 4.050781 8.339844 L 4.832031 8.339844 Z M 4.832031 7.558594 L 4.050781 7.558594 L 4.050781 6.390625 L 4.832031 6.390625 Z M 6.390625 9.507812 L 5.609375 9.507812 L 5.609375 8.339844 L 6.390625 8.339844 Z M 6.390625 7.558594 L 5.609375 7.558594 L 5.609375 6.390625 L 6.390625 6.390625 Z M 6.390625 7.558594 "/>
</g>
</svg>
