<?xml version="1.0" encoding="UTF-8"?>
<svg xmlns="http://www.w3.org/2000/svg" xmlns:xlink="http://www.w3.org/1999/xlink" width="12" height="12" viewBox="0 0 12 12" version="1.1">
<g id="surface1">
<path style=" stroke:none;fill-rule:nonzero;fill:rgb(100%,100%,100%);fill-opacity:1;" d="M 6.5 1.5 C 6.5 1.222656 6.277344 1 6 1 C 5.722656 1 5.5 1.222656 5.5 1.5 L 5.5 2 L 6.5 2 Z M 6.5 1.5 "/>
<path style=" stroke:none;fill-rule:nonzero;fill:rgb(100%,100%,100%);fill-opacity:1;" d="M 4 3.5 C 4 2.949219 4.449219 2.5 5 2.5 L 7 2.5 C 7.550781 2.5 8 2.949219 8 3.5 L 8 4.5 L 4 4.5 Z M 4 3.5 "/>
<path style=" stroke:none;fill-rule:nonzero;fill:rgb(100%,100%,100%);fill-opacity:1;" d="M 1 9.5 L 1 6.5 L 2 6.5 L 2 9.5 C 2 9.777344 2.222656 10 2.5 10 L 9.5 10 C 9.777344 10 10 9.777344 10 9.5 L 10 6.5 L 11 6.5 L 11 9.5 C 11 10.328125 10.328125 11 9.5 11 L 2.5 11 C 1.671875 11 1 10.328125 1 9.5 Z M 1 9.5 "/>
<path style=" stroke:none;fill-rule:evenodd;fill:rgb(100%,100%,100%);fill-opacity:1;" d="M 3 5 L 3 5.929688 C 3 6.597656 3.335938 7.222656 3.890625 7.59375 L 6 9 L 8.109375 7.59375 C 8.664062 7.222656 9 6.597656 9 5.929688 L 9 5 Z M 4 6 L 5 6 L 5 6.5 Z M 8 6 L 7 6 L 7 6.5 Z M 8 6 "/>
<path style=" stroke:none;fill-rule:nonzero;fill:rgb(100%,100%,100%);fill-opacity:1;" d="M 8.386719 8.007812 L 7.734375 8.441406 L 9.042969 9.75 L 9.5 9.75 C 9.636719 9.75 9.75 9.636719 9.75 9.5 L 9.75 9.042969 L 8.578125 7.871094 C 8.515625 7.917969 8.453125 7.964844 8.386719 8.007812 Z M 8.386719 8.007812 "/>
<path style=" stroke:none;fill-rule:nonzero;fill:rgb(100%,100%,100%);fill-opacity:1;" d="M 3.613281 8.007812 C 3.546875 7.964844 3.484375 7.917969 3.421875 7.871094 L 2.25 9.042969 L 2.25 9.5 C 2.25 9.636719 2.363281 9.75 2.5 9.75 L 2.957031 9.75 L 4.265625 8.445312 Z M 3.613281 8.007812 "/>
</g>
</svg>
