<?xml version="1.0" encoding="UTF-8"?>
<svg xmlns="http://www.w3.org/2000/svg" xmlns:xlink="http://www.w3.org/1999/xlink" width="32" height="32" viewBox="0 0 32 32">
<defs>
<filter id="filter-remove-color" x="0%" y="0%" width="100%" height="100%">
<feColorMatrix color-interpolation-filters="sRGB" values="0 0 0 0 1 0 0 0 0 1 0 0 0 0 1 0 0 0 1 0" />
</filter>
<mask id="mask-0">
<g filter="url(#filter-remove-color)">
<rect x="-3.2" y="-3.2" width="38.4" height="38.4" fill="rgb(0%, 0%, 0%)" fill-opacity="0.791"/>
</g>
</mask>
<clipPath id="clip-0">
<rect x="0" y="0" width="32" height="32"/>
</clipPath>
<g id="source-7" clip-path="url(#clip-0)">
<path fill-rule="evenodd" fill="rgb(24.705882%, 24.705882%, 24.705882%)" fill-opacity="1" d="M 15.964844 4.292969 C 15.972656 4.304688 15.980469 4.3125 15.988281 4.324219 C 16.414062 4.824219 16.785156 5.371094 17.089844 5.949219 L 24.132812 5.949219 L 24.132812 10.160156 L 19.164062 10.160156 L 19.164062 18.492188 C 19.769531 18.261719 20.324219 18.042969 20.820312 17.835938 L 20.820312 11.816406 L 25.789062 11.816406 L 25.789062 4.292969 Z M 5.566406 16.71875 L 3.914062 16.71875 L 3.914062 24.109375 L 7.382812 24.109375 L 7.382812 27.324219 L 10.804688 27.324219 C 10.835938 26.75 10.921875 26.199219 11.054688 25.667969 L 9.039062 25.667969 L 9.039062 22.453125 L 5.566406 22.453125 Z M 5.566406 16.71875 "/>
</g>
</defs>
<path fill-rule="nonzero" fill="rgb(24.705882%, 24.705882%, 24.705882%)" fill-opacity="1" d="M 8.679688 3.097656 C 5.460938 3.097656 2.261719 6.34375 2.261719 9.5625 L 2.261719 15.390625 L 7.28125 15.390625 L 7.28125 11.875 L 11.585938 11.875 L 11.585938 15.390625 L 16.6875 15.390625 L 16.6875 9.5625 C 16.675781 6.492188 14.058594 3.121094 10.921875 3.097656 Z M 12.207031 28.902344 L 27.847656 28.902344 C 26.273438 26.996094 24.953125 23.714844 29.171875 19.878906 C 31.121094 18.109375 27.433594 14.417969 27.433594 14.417969 C 27.433594 14.417969 23.242188 13.839844 24.070312 14.417969 C 26.585938 17.304688 23.371094 18.386719 17.261719 20.617188 C 14.4375 21.652344 11.601562 24.804688 12.207031 28.902344 Z M 12.207031 28.902344 "/>
<g mask="url(#mask-0)">
<use xlink:href="#source-7"/>
</g>
</svg>
