<?xml version="1.0" encoding="UTF-8"?>
<svg xmlns="http://www.w3.org/2000/svg" xmlns:xlink="http://www.w3.org/1999/xlink" width="32" height="32" viewBox="0 0 32 32">
<path fill-rule="nonzero" fill="rgb(100%, 100%, 100%)" fill-opacity="1" d="M 24.042969 5.925781 C 23.488281 5.925781 22.890625 6.375 22.722656 6.933594 L 6.695312 6.933594 C 5.433594 6.933594 3.765625 8.515625 3.011719 11.96875 C 2.90625 12.449219 3.066406 12.976562 3.640625 12.976562 C 5.394531 12.976562 5.226562 14.175781 5.152344 15.148438 C 5.0625 16.347656 3.84375 17.789062 3.136719 20.910156 C 2.414062 24.117188 3.574219 26.074219 5.152344 26.074219 L 8.617188 26.074219 C 9.6875 26.074219 11.007812 25.632812 11.574219 22.925781 C 11.699219 22.34375 11.976562 22.042969 12.300781 19.023438 L 14.09375 19.023438 C 15.496094 19.023438 16.941406 18.667969 18.09375 17.761719 C 19.246094 16.859375 20.015625 15.382812 20.015625 13.480469 L 20.015625 12.976562 L 27.066406 12.976562 C 27.621094 12.976562 28.074219 12.523438 28.074219 11.96875 C 28.628906 11.96875 29.082031 11.515625 29.082031 10.960938 L 29.082031 8.945312 C 29.082031 8.390625 28.628906 7.9375 28.074219 7.9375 C 28.074219 7.382812 27.621094 6.933594 27.066406 6.933594 L 25.746094 6.933594 C 25.914062 6.375 25.605469 5.925781 25.050781 5.925781 Z M 15.984375 12.976562 L 18 12.976562 L 18 13.480469 C 18 14.886719 17.550781 15.648438 16.867188 16.1875 C 16.179688 16.726562 15.160156 17.007812 14.09375 17.007812 L 12.457031 17.007812 C 12.503906 16.453125 12.566406 16.089844 12.613281 15.402344 C 12.625 15.285156 12.683594 15.109375 12.773438 14.898438 C 13.339844 15.582031 14.207031 15.9375 15.070312 15.9375 C 15.476562 15.9375 15.828125 15.617188 15.828125 15.210938 C 15.828125 14.609375 14.503906 14.882812 14.347656 13.324219 C 14.789062 13.128906 15.324219 12.976562 15.984375 12.976562 Z M 15.984375 12.976562 "/>
</svg>
