<?xml version="1.0" encoding="UTF-8"?>
<svg xmlns="http://www.w3.org/2000/svg" xmlns:xlink="http://www.w3.org/1999/xlink" width="32" height="32" viewBox="0 0 32 32">
<path fill="none" stroke-width="2" stroke-linecap="butt" stroke-linejoin="miter" stroke="rgb(100%, 100%, 100%)" stroke-opacity="1" stroke-miterlimit="4" d="M 19.001953 21 L 28.998047 21 L 28.998047 27 L 19.001953 27 Z M 19.001953 21 " transform="matrix(0.666667, 0, 0, 0.666667, 0, 0)"/>
<path fill="none" stroke-width="2" stroke-linecap="butt" stroke-linejoin="miter" stroke="rgb(100%, 100%, 100%)" stroke-opacity="1" stroke-miterlimit="4" d="M 15 20.402344 C 15 20.402344 13.289062 15 8.150391 15 C 3.011719 15 2.970703 19.998047 3 24 C 3.029297 28.001953 3 33 8.138672 33 C 13.277344 33 15 27.597656 15 27.597656 Z M 15 20.402344 " transform="matrix(0.666667, 0, 0, 0.666667, 0, 0)"/>
<path fill="none" stroke-width="2" stroke-linecap="butt" stroke-linejoin="miter" stroke="rgb(100%, 100%, 100%)" stroke-opacity="1" stroke-miterlimit="4" d="M 2.988281 20.027344 C 6.017578 17.548828 10.869141 17.162109 15 20.027344 " transform="matrix(0.666667, 0, 0, 0.666667, 0, 0)"/>
<path fill="none" stroke-width="2" stroke-linecap="butt" stroke-linejoin="miter" stroke="rgb(100%, 100%, 100%)" stroke-opacity="1" stroke-miterlimit="4" d="M 2.988281 27.867188 C 6.017578 30.351562 10.869141 30.738281 15 27.867188 " transform="matrix(0.666667, 0, 0, 0.666667, 0, 0)"/>
<path fill="none" stroke-width="2" stroke-linecap="butt" stroke-linejoin="miter" stroke="rgb(100%, 100%, 100%)" stroke-opacity="1" stroke-miterlimit="4" d="M 2.988281 23.162109 C 6.017578 20.677734 10.869141 20.279297 15 23.162109 " transform="matrix(0.666667, 0, 0, 0.666667, 0, 0)"/>
<path fill="none" stroke-width="2" stroke-linecap="butt" stroke-linejoin="miter" stroke="rgb(100%, 100%, 100%)" stroke-opacity="1" stroke-miterlimit="4" d="M 2.988281 24.650391 C 6.017578 27.128906 10.869141 27.521484 15 24.650391 " transform="matrix(0.666667, 0, 0, 0.666667, 0, 0)"/>
<path fill="none" stroke-width="2" stroke-linecap="butt" stroke-linejoin="miter" stroke="rgb(100%, 100%, 100%)" stroke-opacity="1" stroke-miterlimit="4" d="M 33 20.402344 C 33 20.402344 34.710938 15 39.849609 15 C 44.988281 15 45.029297 19.998047 44.988281 24 C 44.958984 28.001953 44.988281 33 39.849609 33 C 34.710938 33 33 27.597656 33 27.597656 Z M 33 20.402344 " transform="matrix(0.666667, 0, 0, 0.666667, 0, 0)"/>
<path fill="none" stroke-width="2" stroke-linecap="butt" stroke-linejoin="miter" stroke="rgb(100%, 100%, 100%)" stroke-opacity="1" stroke-miterlimit="4" d="M 45.011719 20.027344 C 41.982422 17.548828 37.130859 17.162109 33 20.027344 " transform="matrix(0.666667, 0, 0, 0.666667, 0, 0)"/>
<path fill="none" stroke-width="2" stroke-linecap="butt" stroke-linejoin="miter" stroke="rgb(100%, 100%, 100%)" stroke-opacity="1" stroke-miterlimit="4" d="M 45.011719 27.867188 C 41.982422 30.351562 37.130859 30.738281 33 27.867188 " transform="matrix(0.666667, 0, 0, 0.666667, 0, 0)"/>
<path fill="none" stroke-width="2" stroke-linecap="butt" stroke-linejoin="miter" stroke="rgb(100%, 100%, 100%)" stroke-opacity="1" stroke-miterlimit="4" d="M 45.011719 23.162109 C 41.982422 20.677734 37.130859 20.279297 33 23.162109 " transform="matrix(0.666667, 0, 0, 0.666667, 0, 0)"/>
<path fill="none" stroke-width="2" stroke-linecap="butt" stroke-linejoin="miter" stroke="rgb(100%, 100%, 100%)" stroke-opacity="1" stroke-miterlimit="4" d="M 45.011719 24.650391 C 41.982422 27.128906 37.130859 27.521484 33 24.650391 " transform="matrix(0.666667, 0, 0, 0.666667, 0, 0)"/>
</svg>
