<?xml version="1.0" encoding="UTF-8"?>
<svg xmlns="http://www.w3.org/2000/svg" xmlns:xlink="http://www.w3.org/1999/xlink" width="12" height="12" viewBox="0 0 12 12" version="1.1">
<defs>
<filter id="alpha" filterUnits="objectBoundingBox" x="0%" y="0%" width="100%" height="100%">
  <feColorMatrix type="matrix" in="SourceGraphic" values="0 0 0 0 1 0 0 0 0 1 0 0 0 0 1 0 0 0 1 0"/>
</filter>
<mask id="mask0">
  <g filter="url(#alpha)">
<rect x="0" y="0" width="12" height="12" style="fill:rgb(0%,0%,0%);fill-opacity:0.2;stroke:none;"/>
  </g>
</mask>
<clipPath id="clip1">
  <rect x="0" y="0" width="12" height="12"/>
</clipPath>
<g id="surface5" clip-path="url(#clip1)">
<path style=" stroke:none;fill-rule:nonzero;fill:rgb(100%,100%,100%);fill-opacity:1;" d="M 4 3 L 10 3 L 10 10 L 4 10 Z M 4 3 "/>
</g>
</defs>
<g id="surface1">
<use xlink:href="#surface5" mask="url(#mask0)"/>
<path style=" stroke:none;fill-rule:evenodd;fill:rgb(100%,100%,100%);fill-opacity:1;" d="M 1 2 L 11 2 L 11 10 L 10 10 L 10 9 L 8 9 C 8 9.550781 7.550781 10 7 10 C 6.449219 10 6 9.550781 6 9 L 5 9 L 5 7 L 6 5 L 7 5 L 7 4 L 10 4 L 10 3 L 4 3 L 4 10 L 1 10 Z M 6.117188 7 L 6.617188 6 L 7 6 L 7 7 Z M 7.199219 9 C 7.199219 9.109375 7.109375 9.199219 7 9.199219 C 6.890625 9.199219 6.800781 9.109375 6.800781 9 C 6.800781 8.890625 6.890625 8.800781 7 8.800781 C 7.109375 8.800781 7.199219 8.890625 7.199219 9 Z M 7.199219 9 "/>
</g>
</svg>
