<?xml version="1.0" encoding="UTF-8"?>
<svg xmlns="http://www.w3.org/2000/svg" xmlns:xlink="http://www.w3.org/1999/xlink" width="32" height="32" viewBox="0 0 32 32">
<path fill-rule="nonzero" fill="rgb(33.333333%, 33.333333%, 33.333333%)" fill-opacity="1" d="M 10.003906 0.179688 C 9.367188 -0.1875 8.550781 0.0273438 8.179688 0.660156 C 7.8125 1.296875 8.027344 2.113281 8.660156 2.484375 L 22.6875 10.667969 L 5.332031 10.667969 L 5.332031 13.332031 L 6.667969 13.332031 L 9.113281 28.019531 C 9.242188 28.777344 9.898438 29.332031 10.667969 29.332031 L 12 29.332031 C 11.261719 29.332031 10.667969 29.929688 10.667969 30.667969 C 10.667969 31.402344 11.261719 32 12 32 C 12.738281 32 13.332031 31.402344 13.332031 30.667969 C 13.332031 29.929688 12.738281 29.332031 12 29.332031 L 20 29.332031 C 19.261719 29.332031 18.667969 29.929688 18.667969 30.667969 C 18.667969 31.402344 19.261719 32 20 32 C 20.738281 32 21.332031 31.402344 21.332031 30.667969 C 21.332031 29.929688 20.738281 29.332031 20 29.332031 L 21.332031 29.332031 C 22.101562 29.332031 22.757812 28.777344 22.886719 28.019531 L 25.332031 13.332031 L 26.667969 13.332031 L 26.667969 10.691406 C 26.675781 10.226562 26.4375 9.765625 26.003906 9.515625 Z M 10.003906 0.179688 "/>
</svg>
