<?xml version="1.0" encoding="UTF-8"?>
<svg xmlns="http://www.w3.org/2000/svg" xmlns:xlink="http://www.w3.org/1999/xlink" width="32" height="32" viewBox="0 0 32 32">
<path fill-rule="nonzero" fill="rgb(66.666667%, 12.54902%, 0.392157%)" fill-opacity="1" d="M 16 1.214844 L 15.117188 3.421875 L 12.761719 3.566406 L 14.566406 5.074219 L 14.015625 7.355469 L 16 6.105469 L 17.984375 7.355469 L 17.433594 5.074219 L 19.238281 3.566406 L 16.882812 3.421875 Z M 16 7.539062 L 10.113281 15.082031 C 10.113281 15.082031 12.914062 16 16.074219 16 C 19.230469 16 21.886719 15.082031 21.886719 15.082031 Z M 12.617188 15.667969 L 7.320312 22.140625 C 7.320312 22.140625 8.0625 22.640625 10.042969 23.0625 C 11.410156 23.355469 13.34375 23.613281 16.109375 23.613281 C 22.867188 23.613281 24.679688 22.140625 24.679688 22.140625 L 20.230469 16.699219 C 20.230469 16.699219 14.679688 17.035156 12.617188 15.667969 Z M 10.042969 23.0625 L 5.148438 28.46875 C 5.148438 28.46875 7.914062 30.125 16.148438 30.125 C 24.382812 30.125 26.851562 28.46875 26.851562 28.46875 L 22.878906 24.09375 C 22.878906 24.09375 14.988281 25.761719 10.042969 23.0625 Z M 10.042969 23.0625 "/>
</svg>
