<?xml version="1.0" encoding="UTF-8"?>
<svg xmlns="http://www.w3.org/2000/svg" xmlns:xlink="http://www.w3.org/1999/xlink" width="12" height="12" viewBox="0 0 12 12" version="1.1">
<g id="surface1">
<path style=" stroke:none;fill-rule:nonzero;fill:rgb(66.666669%,12.54902%,0.392157%);fill-opacity:1;" d="M 6 2.300781 L 3.929688 4.953125 C 3.929688 4.953125 4.914062 5.277344 6.027344 5.277344 C 7.136719 5.277344 8.070312 4.953125 8.070312 4.953125 Z M 4.808594 5.160156 L 2.945312 7.4375 C 2.945312 7.4375 3.207031 7.609375 3.90625 7.757812 C 4.386719 7.863281 5.066406 7.953125 6.039062 7.953125 C 8.414062 7.953125 9.054688 7.4375 9.054688 7.4375 L 7.488281 5.523438 C 7.488281 5.523438 5.535156 5.640625 4.808594 5.160156 Z M 3.90625 7.757812 L 2.183594 9.660156 C 2.183594 9.660156 3.15625 10.242188 6.050781 10.242188 C 8.949219 10.242188 9.816406 9.660156 9.816406 9.660156 L 8.417969 8.121094 C 8.417969 8.121094 5.644531 8.710938 3.90625 7.757812 Z M 3.90625 7.757812 "/>
<path style=" stroke:none;fill-rule:nonzero;fill:rgb(66.666669%,12.54902%,0.392157%);fill-opacity:1;" d="M 3.863281 1.929688 L 2.144531 4.132812 C 2.144531 4.132812 2.441406 4.230469 2.875 4.304688 L 1.328125 6.195312 C 1.328125 6.195312 1.546875 6.339844 2.125 6.464844 C 2.367188 6.515625 2.671875 6.5625 3.058594 6.59375 L 4.003906 5.4375 C 3.894531 5.40625 3.792969 5.378906 3.792969 5.378906 C 3.722656 5.355469 3.660156 5.316406 3.613281 5.265625 C 3.5625 5.214844 3.523438 5.152344 3.503906 5.082031 C 3.480469 5.015625 3.476562 4.941406 3.488281 4.871094 C 3.503906 4.800781 3.535156 4.734375 3.578125 4.675781 L 3.675781 4.554688 C 3.363281 4.507812 3.070312 4.433594 2.878906 4.308594 C 3.144531 4.355469 3.460938 4.394531 3.792969 4.398438 L 4.792969 3.121094 Z M 2.125 6.464844 L 0.695312 8.042969 C 0.695312 8.042969 1.214844 8.351562 2.652344 8.476562 L 3.09375 7.992188 C 3.0625 7.980469 3.019531 7.96875 2.996094 7.957031 C 2.816406 7.882812 2.699219 7.808594 2.699219 7.808594 C 2.648438 7.773438 2.601562 7.730469 2.570312 7.675781 C 2.535156 7.625 2.515625 7.5625 2.503906 7.503906 C 2.496094 7.441406 2.5 7.378906 2.515625 7.316406 C 2.53125 7.257812 2.5625 7.199219 2.601562 7.152344 L 2.917969 6.761719 C 2.640625 6.695312 2.371094 6.597656 2.125 6.464844 Z M 2.125 6.464844 "/>
<path style=" stroke:none;fill-rule:nonzero;fill:rgb(66.666669%,12.54902%,0.392157%);fill-opacity:1;" d="M 8.398438 1.894531 L 7.324219 3.269531 L 8.171875 4.359375 C 8.253906 4.363281 8.335938 4.363281 8.417969 4.363281 C 9.339844 4.363281 10.117188 4.097656 10.117188 4.097656 Z M 8.308594 4.53125 L 8.421875 4.675781 C 8.464844 4.734375 8.496094 4.800781 8.507812 4.871094 C 8.523438 4.9375 8.519531 5.011719 8.5 5.078125 C 8.480469 5.148438 8.441406 5.210938 8.394531 5.261719 C 8.34375 5.3125 8.285156 5.351562 8.214844 5.375 C 8.214844 5.375 8.132812 5.402344 8 5.441406 L 8.929688 6.578125 C 10.496094 6.515625 10.933594 6.160156 10.933594 6.160156 L 9.632812 4.570312 C 9.632812 4.570312 8.953125 4.609375 8.308594 4.53125 Z M 10.40625 6.726562 C 10.40625 6.726562 9.878906 6.839844 9.167969 6.871094 L 9.398438 7.152344 C 9.4375 7.199219 9.464844 7.25 9.480469 7.308594 C 9.5 7.363281 9.503906 7.421875 9.496094 7.480469 C 9.492188 7.539062 9.472656 7.597656 9.445312 7.648438 C 9.417969 7.699219 9.378906 7.746094 9.335938 7.785156 C 9.335938 7.785156 9.242188 7.855469 9.117188 7.917969 C 9.0625 7.945312 8.992188 7.972656 8.917969 8.003906 L 9.335938 8.464844 C 11.027344 8.367188 11.566406 8.007812 11.566406 8.007812 Z M 8.386719 8.167969 C 8.316406 8.183594 8.246094 8.203125 8.164062 8.21875 C 8.140625 8.308594 8.101562 8.4375 8.101562 8.4375 Z M 8.386719 8.167969 "/>
</g>
</svg>
