<?xml version="1.0" encoding="UTF-8"?>
<svg xmlns="http://www.w3.org/2000/svg" xmlns:xlink="http://www.w3.org/1999/xlink" width="12" height="12" viewBox="0 0 12 12" version="1.1">
<g id="surface1">
<path style=" stroke:none;fill-rule:nonzero;fill:rgb(66.666669%,12.54902%,0.392157%);fill-opacity:1;" d="M 6 0.457031 L 5.667969 1.28125 L 4.785156 1.339844 L 5.460938 1.902344 L 5.253906 2.757812 L 6 2.289062 L 6.746094 2.757812 L 6.539062 1.902344 L 7.214844 1.339844 L 6.332031 1.28125 Z M 6 2.828125 L 3.792969 5.65625 C 3.792969 5.65625 4.84375 6 6.027344 6 C 7.210938 6 8.207031 5.65625 8.207031 5.65625 Z M 4.730469 5.875 L 2.746094 8.304688 C 2.746094 8.304688 3.023438 8.488281 3.765625 8.648438 C 4.277344 8.757812 5.003906 8.855469 6.042969 8.855469 C 8.574219 8.855469 9.253906 8.304688 9.253906 8.304688 L 7.585938 6.261719 C 7.585938 6.261719 5.503906 6.386719 4.730469 5.875 Z M 3.765625 8.648438 L 1.929688 10.675781 C 1.929688 10.675781 2.96875 11.296875 6.054688 11.296875 C 9.144531 11.296875 10.070312 10.675781 10.070312 10.675781 L 8.578125 9.035156 C 8.578125 9.035156 5.621094 9.660156 3.765625 8.648438 Z M 3.765625 8.648438 "/>
</g>
</svg>
