<?xml version="1.0" encoding="UTF-8"?>
<svg xmlns="http://www.w3.org/2000/svg" xmlns:xlink="http://www.w3.org/1999/xlink" width="12" height="12" viewBox="0 0 12 12" version="1.1">
<g id="surface1">
<path style=" stroke:none;fill-rule:evenodd;fill:rgb(24.705882%,24.705882%,24.705882%);fill-opacity:1;" d="M 2.710938 2.5625 C 1.730469 2.675781 1.160156 3.292969 1.09375 4.179688 C 1.09375 4.179688 1 4.707031 1 5.714844 C 1 6.722656 1.09375 7.519531 1.09375 7.519531 C 1.191406 8.484375 1.710938 9.054688 2.710938 9.132812 C 4.90625 9.199219 7.09375 9.199219 9.289062 9.132812 C 10.207031 9.039062 10.800781 8.421875 10.902344 7.519531 C 10.902344 7.519531 10.988281 6.8125 11 5.792969 C 11.011719 4.773438 10.902344 4.179688 10.902344 4.179688 C 10.777344 3.238281 10.269531 2.660156 9.289062 2.5625 C 7.09375 2.503906 4.90625 2.496094 2.710938 2.5625 Z M 5 4.449219 L 7.523438 5.820312 L 5 7.203125 Z M 5 4.449219 "/>
</g>
</svg>
