<?xml version="1.0" encoding="UTF-8"?>
<svg xmlns="http://www.w3.org/2000/svg" xmlns:xlink="http://www.w3.org/1999/xlink" width="12" height="12" viewBox="0 0 12 12">
<path fill-rule="nonzero" fill="rgb(100%, 100%, 100%)" fill-opacity="1" d="M 2.957031 11 C 2.71875 11 2.519531 10.921875 2.359375 10.761719 C 2.203125 10.601562 2.125 10.398438 2.125 10.15625 C 2.125 9.988281 2.167969 9.824219 2.25 9.671875 C 2.332031 9.515625 2.453125 9.40625 2.609375 9.339844 L 5 8.382812 L 5 6.445312 C 4.390625 7.203125 3.769531 7.773438 3.140625 8.160156 C 2.507812 8.542969 1.796875 8.734375 1 8.734375 L 1 7.890625 C 1.628906 7.890625 2.203125 7.746094 2.722656 7.449219 C 3.242188 7.152344 3.707031 6.738281 4.125 6.203125 L 4.929688 5.289062 C 5.023438 5.179688 5.132812 5.085938 5.257812 5.007812 C 5.382812 4.933594 5.519531 4.898438 5.667969 4.898438 L 6.332031 4.898438 C 6.480469 4.898438 6.621094 4.933594 6.75 5.007812 C 6.878906 5.085938 6.992188 5.179688 7.082031 5.289062 L 7.890625 6.203125 C 8.332031 6.71875 8.804688 7.128906 9.304688 7.433594 C 9.804688 7.738281 10.371094 7.890625 11 7.890625 L 11 8.734375 C 10.214844 8.734375 9.503906 8.542969 8.867188 8.160156 C 8.234375 7.773438 7.609375 7.203125 7 6.445312 L 7 8.382812 L 9.390625 9.339844 C 9.546875 9.40625 9.667969 9.515625 9.75 9.671875 C 9.832031 9.824219 9.875 9.988281 9.875 10.15625 C 9.875 10.398438 9.796875 10.601562 9.640625 10.761719 C 9.480469 10.921875 9.28125 11 9.042969 11 L 4.832031 11 L 4.832031 10.84375 C 4.832031 10.601562 4.90625 10.40625 5.054688 10.253906 C 5.203125 10.105469 5.398438 10.03125 5.640625 10.03125 L 7.484375 10.03125 C 7.558594 10.03125 7.625 10 7.679688 9.945312 C 7.734375 9.890625 7.765625 9.824219 7.765625 9.75 C 7.765625 9.671875 7.734375 9.609375 7.679688 9.550781 C 7.625 9.496094 7.558594 9.46875 7.484375 9.46875 L 5.640625 9.46875 C 5.230469 9.46875 4.90625 9.59375 4.667969 9.847656 C 4.425781 10.101562 4.304688 10.433594 4.304688 10.84375 L 4.304688 11 Z M 6 4.054688 C 5.722656 4.054688 5.484375 3.953125 5.285156 3.75 C 5.085938 3.550781 4.984375 3.308594 4.984375 3.027344 C 4.984375 2.746094 5.085938 2.503906 5.285156 2.300781 C 5.484375 2.101562 5.722656 2 6 2 C 6.277344 2 6.515625 2.101562 6.714844 2.300781 C 6.914062 2.503906 7.015625 2.746094 7.015625 3.027344 C 7.015625 3.308594 6.914062 3.550781 6.714844 3.75 C 6.515625 3.953125 6.277344 4.054688 6 4.054688 Z M 6 4.054688 "/>
</svg>
