<?xml version="1.0" encoding="UTF-8" standalone="no"?>
<svg
   xmlns:dc="http://purl.org/dc/elements/1.1/"
   xmlns:cc="http://creativecommons.org/ns#"
   xmlns:rdf="http://www.w3.org/1999/02/22-rdf-syntax-ns#"
   xmlns:svg="http://www.w3.org/2000/svg"
   xmlns="http://www.w3.org/2000/svg"
   xmlns:sodipodi="http://sodipodi.sourceforge.net/DTD/sodipodi-0.dtd"
   xmlns:inkscape="http://www.inkscape.org/namespaces/inkscape"
   width="16"
   height="16"
   id="svg2"
   version="1.1"
   inkscape:version="0.91 r"
   sodipodi:docname="subway_kazan.svg">
  <defs
     id="defs13" />
  <sodipodi:namedview
     pagecolor="#ffffff"
     bordercolor="#666666"
     borderopacity="1"
     objecttolerance="10"
     gridtolerance="10"
     guidetolerance="10"
     inkscape:pageopacity="0"
     inkscape:pageshadow="2"
     inkscape:window-width="1920"
     inkscape:window-height="1004"
     id="namedview11"
     showgrid="true"
     inkscape:zoom="52.082758"
     inkscape:cx="9.358607"
     inkscape:cy="8.9192854"
     inkscape:window-x="1680"
     inkscape:window-y="0"
     inkscape:window-maximized="1"
     inkscape:current-layer="svg2"
     showguides="false">
    <sodipodi:guide
       position="0,0"
       orientation="0,580"
       id="guide2989" />
    <sodipodi:guide
       position="580,0"
       orientation="-580,0"
       id="guide2991" />
    <sodipodi:guide
       position="580,580"
       orientation="0,-580"
       id="guide2993" />
    <sodipodi:guide
       position="0,580"
       orientation="580,0"
       id="guide2995" />
    <sodipodi:guide
       position="0,0"
       orientation="0,580"
       id="guide2997" />
    <sodipodi:guide
       position="580,0"
       orientation="-580,0"
       id="guide2999" />
    <sodipodi:guide
       position="580,580"
       orientation="0,-580"
       id="guide3001" />
    <sodipodi:guide
       position="0,580"
       orientation="580,0"
       id="guide3003" />
    <inkscape:grid
       type="xygrid"
       id="grid3013"
       empspacing="5"
       visible="true"
       enabled="true"
       snapvisiblegridlinesonly="true" />
  </sodipodi:namedview>
  <metadata
     id="metadata2975">image/svg+xmlen<rdf:RDF>
  <cc:Work
     rdf:about="">
    <dc:format>image/svg+xml</dc:format>
    <dc:type
       rdf:resource="http://purl.org/dc/dcmitype/StillImage" />
    <dc:title />
  </cc:Work>
</rdf:RDF>
</metadata>
  <circle
     style="color:#000000;clip-rule:nonzero;display:inline;overflow:visible;visibility:visible;opacity:1;isolation:auto;mix-blend-mode:normal;color-interpolation:sRGB;color-interpolation-filters:linearRGB;solid-color:#000000;solid-opacity:1;fill:#fefefe;fill-opacity:1;fill-rule:nonzero;stroke-width:0.11437072;stroke-linecap:butt;stroke-linejoin:miter;stroke-miterlimit:4;stroke-dasharray:none;stroke-dashoffset:0;stroke-opacity:1;color-rendering:auto;image-rendering:auto;shape-rendering:auto;text-rendering:auto;enable-background:accumulate"
     cx="8"
     cy="8"
     r="4.1316338"
     id="circle4-7" />
  <path
     inkscape:connector-curvature="0"
     style="fill:none;stroke:#fefefe;stroke-width:1.38978112;stroke-opacity:1"
     d="m 6.4967672,5.872784 0,2.7511993 a 1.5032328,1.5032328 0 0 0 3.0064656,0 l 0,-2.7511993"
     id="path6" />
  <path
     inkscape:connector-curvature="0"
     style="fill:#acbaac;fill-opacity:1;fill-rule:nonzero;stroke:none;stroke-linecap:round"
     d="m 10.475929,5.5240697 -0.08558,-0.082982 -0.08298,-0.075202 -0.08558,-0.075203 -0.08298,-0.067423 -0.08817,-0.067423 L 9.9624762,5.0935991 9.8717149,5.0313622 9.7835459,4.9769054 9.6875977,4.919855 9.5942429,4.8705842 9.4982947,4.8213133 9.4049395,4.7798225 9.3063984,4.7383313 9.2078563,4.7020265 9.1067218,4.6683149 9.0081804,4.6397897 8.8863003,4.6060785 8.7644199,4.5775532 8.6399466,4.5516212 8.5154733,4.5334688 8.3858135,4.5153164 l -0.1270666,-0.00778 -0.1296598,-0.00778 -0.1296598,0 -0.093355,0 -0.1555917,0.00519 L 7.6000752,4.5179096 7.4522629,4.536062 7.3096372,4.561994 7.0580971,4.6164508 6.8169299,4.6916537 6.5809491,4.7824157 6.4668485,4.8368726 6.355341,4.8965162 6.1349194,5.0235826 6.0260051,5.0935991 5.9222773,5.1713951 5.8185495,5.2517839 5.7174148,5.3373596 5.6188734,5.4281212 5.5229251,5.5240697 5.4088245,5.6381701 5.3025034,5.7574574 5.203962,5.8793374 5.1132002,6.0064039 5.0250315,6.1308776 4.9446424,6.2631304 4.8720329,6.3953833 4.807203,6.532823 4.7449663,6.667669 4.6905092,6.8102948 4.6438317,6.9529205 4.6049338,7.1007327 4.5712222,7.2485449 4.542697,7.4015435 4.5219515,7.554542 l -0.012966,0.158185 -0.010373,0.1944897 0,0.093355 0.00259,0.1893034 0.015559,0.1867101 0.020746,0.1815237 0.033712,0.1789309 0.020746,0.1011344 0.025932,0.1037281 0.025932,0.098541 0.033712,0.101135 0.033712,0.095948 0.038898,0.098542 0.038898,0.093355 0.046678,0.095948 0.044084,0.090762 0.051864,0.093355 0.051864,0.088168 0.05705,0.090762 0.05705,0.085575 0.06483,0.088169 0.1374393,0.171151 0.080389,0.09336 0.088169,0.09595 0.054457,0.05446 0.1685578,0.160779 0.088169,0.0752 0.090762,0.07261 0.090762,0.06742 0.093355,0.06483 0.093355,0.06224 0.098541,0.05964 0.095948,0.05446 0.098541,0.05186 0.098541,0.04668 0.1037278,0.04668 0.1011346,0.0389 0.1063211,0.0389 0.2152353,0.06742 0.1089142,0.02593 0.1115074,0.02334 0.2307945,0.03631 0.1166938,0.01296 0.119287,0.01037 0.119287,0.0052 0.1244734,0.0026 0.00259,0 0.046678,-0.0026 0.049271,0 0.098541,-0.0026 0.1918965,-0.01556 0.093355,-0.01296 0.095948,-0.01037 0.1867099,-0.03112 0.05705,-0.01556 0.012966,-0.0052 0.015559,-0.0026 0.031118,-0.0052 0.1192869,-0.03371 0.1166939,-0.03631 0.05705,-0.02074 0.028527,-0.01037 0.03112,-0.0078 0.1115076,-0.04668 0.054457,-0.02593 0.05705,-0.02334 0.1089142,-0.05446 0.025934,-0.01556 0.012964,-0.0078 0.015557,-0.0052 0.05705,-0.02593 0.1037279,-0.06483 0.1037279,-0.06483 0.04927,-0.03631 0.051863,-0.03371 0.1037283,-0.07261 0.09854,-0.08039 0.09854,-0.08039 0.04668,-0.04408 0.04927,-0.04149 0.09595,-0.08817 0.05186,-0.05446 0.08558,-0.09335 0.08298,-0.09336 0.108914,-0.140032 0.05186,-0.07261 0.05186,-0.070016 0.09335,-0.1452192 0.02074,-0.038899 0.02334,-0.036306 0.04409,-0.07261 0.0389,-0.077796 0.0078,-0.020743 0.01037,-0.01815 0.02074,-0.036306 0.03371,-0.077796 0.03631,-0.075203 0.03112,-0.080389 0.03112,-0.077796 0.05446,-0.1607781 0.03371,-0.1244733 0.02853,-0.1244737 0.01037,-0.06483 0.01297,-0.062237 0.01037,-0.06483 0.01296,-0.062237 0.0052,-0.067423 0,-0.018152 0.0026,-0.015559 0.0052,-0.031118 0.0052,-0.067423 0,-0.018152 0.0026,-0.015559 0.0052,-0.031118 0.0078,-0.1348462 0,-0.067423 0,-0.033712 0.0026,-0.031118 0,-0.00259 -0.0052,-0.1763373 -0.01037,-0.1685578 -0.02068,-0.1686074 -0.02334,-0.1607781 -0.02852,-0.1296598 -0.02853,-0.1244735 -0.03631,-0.1244734 -0.0389,-0.119287 -0.04408,-0.1192869 -0.04927,-0.1166937 -0.05446,-0.116694 -0.05446,-0.1115073 -0.06483,-0.1141008 -0.06742,-0.108914 -0.07261,-0.1089145 -0.0752,-0.1037277 -0.08039,-0.103728 -0.08558,-0.1011345 -0.09076,-0.1011348 -0.09336,-0.095948 z M 8.4791686,8.3584328 8.2561537,8.361026 8.0098001,8.6333117 7.9968341,8.6203458 7.9838681,8.6333117 7.7375145,8.361026 7.5144997,8.3584328 6.884353,9.7354205 l -1.6596454,0 1.6207475,-4.0946572 1.151379,1.6700183 1.153972,-1.6700183 1.6181549,4.0946572 -1.6570524,0 -0.63274,-1.3769877 z"
     id="path2180" />
  <path
     inkscape:connector-curvature="0"
     style="fill:#04562c;fill-opacity:1;fill-rule:nonzero;stroke:none;stroke-linecap:round"
     d="M 8.4791686,8.3584328 7.9968341,7.3107816 7.5144997,8.3584328 l 0.2230148,0.00259 0.2463536,0.2722857 0.012966,-0.012966 0.012966,0.012966 0.2463536,-0.2722857 z"
     id="path2182" />
  <path
     inkscape:connector-curvature="0"
     style="fill:#04562c;fill-opacity:1;fill-rule:nonzero;stroke:none;stroke-linecap:round"
     d="m 8.4791686,8.3584328 0.63274,1.3769877 1.6570524,0 -1.6181549,-4.0946572 -1.153972,1.6700183 z"
     id="path2184" />
  <path
     inkscape:connector-curvature="0"
     style="fill:#04562c;fill-opacity:1;fill-rule:nonzero;stroke:none;stroke-linecap:round"
     d="m 7.9968341,7.3107816 -1.151379,-1.6700183 -1.6207475,4.0946572 1.6596454,0 0.6301467,-1.3769877 z"
     id="path2186" />
  <path
     inkscape:connector-curvature="0"
     style="fill:none;stroke:#fefefe;stroke-width:0.05703001px;stroke-linecap:round;stroke-linejoin:round;stroke-dasharray:none;stroke-opacity:1"
     d="m 7.9831664,8.6288765 0.013715,0.01482 0.013534,-0.015018"
     id="path2190" />
  <path
     inkscape:connector-curvature="0"
     style="fill:none;stroke:#fefefe;stroke-width:0.05186392px;stroke-linecap:round;stroke-linejoin:round;stroke-dasharray:none;stroke-opacity:1"
     d="M 8.4791686,8.3584328 8.2561537,8.361026 8.0098001,8.6333117"
     id="path2192" />
  <path
     inkscape:connector-curvature="0"
     style="fill:none;stroke:#fefefe;stroke-width:0.05186392px;stroke-linecap:round;stroke-linejoin:round;stroke-dasharray:none;stroke-opacity:1"
     d="m 7.5144997,8.3584328 0.2230148,0.00259 0.2463536,0.2722857"
     id="path2194" />
  <path
     inkscape:connector-curvature="0"
     style="fill:none;stroke:#fefefe;stroke-width:0.05186392px;stroke-linecap:round;stroke-linejoin:round;stroke-dasharray:none;stroke-opacity:1"
     d="M 7.9968341,7.3107816 8.4791686,8.3584328"
     id="path2196" />
  <path
     inkscape:connector-curvature="0"
     style="fill:none;stroke:#fefefe;stroke-width:0.05186392px;stroke-linecap:round;stroke-linejoin:round;stroke-dasharray:none;stroke-opacity:1"
     d="M 7.9968341,7.3107816 7.5144997,8.3584328"
     id="path2198" />
  <path
     inkscape:connector-curvature="0"
     style="fill:none;stroke:#fefefe;stroke-width:0.05186392px;stroke-linecap:round;stroke-linejoin:round;stroke-dasharray:none;stroke-opacity:1"
     d="M 5.2247076,9.7354205 6.8454551,5.6407633 7.9968341,7.3107816"
     id="path2200" />
  <path
     inkscape:connector-curvature="0"
     style="fill:none;stroke:#fefefe;stroke-width:0.05186392px;stroke-linecap:round;stroke-linejoin:round;stroke-dasharray:none;stroke-opacity:1"
     d="m 6.884353,9.7354205 -1.6596454,0"
     id="path2202" />
  <path
     inkscape:connector-curvature="0"
     style="fill:none;stroke:#fefefe;stroke-width:0.05186392px;stroke-linecap:round;stroke-linejoin:round;stroke-dasharray:none;stroke-opacity:1"
     d="m 9.1119086,9.7354205 1.6570524,0"
     id="path2204" />
  <path
     inkscape:connector-curvature="0"
     style="fill:none;stroke:#fefefe;stroke-width:0.05186392px;stroke-linecap:round;stroke-linejoin:round;stroke-dasharray:none;stroke-opacity:1"
     d="M 10.768961,9.7354205 9.1508061,5.6407633 7.9968341,7.3107816"
     id="path2206" />
  <path
     inkscape:connector-curvature="0"
     style="fill:none;stroke:#fefefe;stroke-width:0.05186392px;stroke-linecap:round;stroke-linejoin:round;stroke-dasharray:none;stroke-opacity:1"
     d="m 8.4791686,8.3584328 0.63274,1.3769877"
     id="path2208" />
  <path
     inkscape:connector-curvature="0"
     style="fill:none;stroke:#fefefe;stroke-width:0.05186392px;stroke-linecap:round;stroke-linejoin:round;stroke-dasharray:none;stroke-opacity:1"
     d="M 7.5144997,8.3584328 6.884353,9.7354205"
     id="path2210" />
  <circle
     r="3.4896808"
     cy="8"
     cx="8"
     style="opacity:1;fill:none;fill-opacity:1;stroke:#04562c;stroke-width:0.33546197;stroke-linecap:round;stroke-linejoin:round;stroke-miterlimit:4;stroke-dasharray:none;stroke-dashoffset:0;stroke-opacity:1"
     id="path5139" />
</svg>
