<?xml version="1.0" encoding="UTF-8" standalone="no"?>
<svg
   xmlns:dc="http://purl.org/dc/elements/1.1/"
   xmlns:cc="http://creativecommons.org/ns#"
   xmlns:rdf="http://www.w3.org/1999/02/22-rdf-syntax-ns#"
   xmlns:svg="http://www.w3.org/2000/svg"
   xmlns="http://www.w3.org/2000/svg"
   xmlns:sodipodi="http://sodipodi.sourceforge.net/DTD/sodipodi-0.dtd"
   xmlns:inkscape="http://www.inkscape.org/namespaces/inkscape"
   width="16"
   height="16"
   id="svg2"
   version="1.1"
   inkscape:version="0.91 r13725"
   sodipodi:docname="subway_taipei.svg">
  <defs
     id="defs13">
    <linearGradient
       gradientTransform="matrix(0.08596979,0,0,0.08596979,0.67480439,1.9432845)"
       x1="87.101639"
       y1="121.69753"
       x2="87.260849"
       y2="1.2385538"
       id="l1"
       gradientUnits="userSpaceOnUse">
      <stop
         style="stop-color:#e92203;stop-opacity:1"
         offset="0"
         id="stop5" />
      <stop
         style="stop-color:#ff0000;stop-opacity:0.64628822"
         offset="1"
         id="stop7" />
    </linearGradient>
    <linearGradient
       gradientTransform="matrix(0.08400469,0,0,0.08400469,0.8422306,2.0814238)"
       x1="87.101639"
       y1="121.69753"
       x2="87.260849"
       y2="1.2385538"
       id="l1-2"
       gradientUnits="userSpaceOnUse">
      <stop
         style="stop-color:#e92203;stop-opacity:1"
         offset="0"
         id="stop5-8" />
      <stop
         style="stop-color:#ff0000;stop-opacity:0.64628822"
         offset="1"
         id="stop7-4" />
    </linearGradient>
  </defs>
  <sodipodi:namedview
     pagecolor="#ffffff"
     bordercolor="#666666"
     borderopacity="1"
     objecttolerance="10"
     gridtolerance="10"
     guidetolerance="10"
     inkscape:pageopacity="0"
     inkscape:pageshadow="2"
     inkscape:window-width="1920"
     inkscape:window-height="1006"
     id="namedview11"
     showgrid="true"
     inkscape:zoom="32"
     inkscape:cx="7.1844309"
     inkscape:cy="8.805823"
     inkscape:window-x="1920"
     inkscape:window-y="0"
     inkscape:window-maximized="1"
     inkscape:current-layer="svg2"
     showguides="false"
     inkscape:snap-global="false">
    <sodipodi:guide
       position="0,0"
       orientation="0,580"
       id="guide2989" />
    <sodipodi:guide
       position="580,0"
       orientation="-580,0"
       id="guide2991" />
    <sodipodi:guide
       position="580,580"
       orientation="0,-580"
       id="guide2993" />
    <sodipodi:guide
       position="0,580"
       orientation="580,0"
       id="guide2995" />
    <sodipodi:guide
       position="0,0"
       orientation="0,580"
       id="guide2997" />
    <sodipodi:guide
       position="580,0"
       orientation="-580,0"
       id="guide2999" />
    <sodipodi:guide
       position="580,580"
       orientation="0,-580"
       id="guide3001" />
    <sodipodi:guide
       position="0,580"
       orientation="580,0"
       id="guide3003" />
    <inkscape:grid
       type="xygrid"
       id="grid3013"
       empspacing="5"
       visible="true"
       enabled="true"
       snapvisiblegridlinesonly="true" />
  </sodipodi:namedview>
  <metadata
     id="metadata2975">image/svg+xmlen<rdf:RDF>
  <cc:Work
     rdf:about="">
    <dc:format>image/svg+xml</dc:format>
    <dc:type
       rdf:resource="http://purl.org/dc/dcmitype/StillImage" />
    <dc:title></dc:title>
  </cc:Work>
</rdf:RDF>
</metadata>
  <path
     style="fill:#fefefe;fill-opacity:1;fill-rule:nonzero;stroke:none;color:#000000;clip-rule:nonzero;display:inline;overflow:visible;visibility:visible;opacity:1;isolation:auto;mix-blend-mode:normal;color-interpolation:sRGB;color-interpolation-filters:linearRGB;solid-color:#000000;solid-opacity:1;stroke-width:1;stroke-linecap:butt;stroke-linejoin:miter;stroke-miterlimit:4;stroke-dasharray:none;stroke-dashoffset:0;stroke-opacity:1;filter-blend-mode:normal;filter-gaussianBlur-deviation:0;color-rendering:auto;image-rendering:auto;shape-rendering:auto;text-rendering:auto;enable-background:accumulate"
     d="M 6.7910156,4.2890625 C 6.7133224,4.2887954 6.6361162,4.3013332 6.5625,4.3261719 L 6.390625,4.3847659 C 6.337052,4.4033099 6.285904,4.4282279 6.2382812,4.4589849 L 6.0761719,4.5625 C 6.0331179,4.590004 5.9931709,4.622092 5.9570312,4.658203 L 5.8066406,4.8085938 4.96875,5.6386719 4.96289,5.6445319 4.2832031,6.3359375 c -0.02779,0.00615 -0.055184,0.013981 -0.082031,0.023437 l -0.4277344,0 -0.3144531,0 C 3.2705024,6.3593604 3.0898132,6.4345891 2.9570312,6.5683594 L 1.1855469,8.359375 C 0.7430739,8.8056598 1.0590476,9.5642426 1.6875,9.5644531 l 0.9707031,0 1.0878907,0 0.3496093,0.8046879 c 0.1120722,0.258391 0.3667888,0.425644 0.6484375,0.425781 l 0.023437,0 0.2128907,0.490234 c 0.1120719,0.258391 0.3667885,0.425645 0.6484374,0.425782 l 0.8378907,0 1.5800781,0 0.9726562,0 c 0.030695,2.8e-5 0.061358,-0.0019 0.091797,-0.0059 l 0.074219,-0.0098 c 0.00653,-0.0012 0.013039,-0.0025 0.019531,-0.0039 l -0.025391,0 c 0.012385,-3.41e-4 0.024759,-10e-4 0.037109,-0.002 0.013092,-0.0022 0.026118,-0.0048 0.039063,-0.0078 l -0.023437,0.0078 c 0.04151,-0.0029 0.082686,-0.0094 0.1230469,-0.01953 l 0.076172,-0.01953 c 0.010491,-0.003 0.02091,-0.0063 0.03125,-0.0098 l 0.095703,-0.0293 c 0.057627,-0.01765 0.112761,-0.04259 0.1640624,-0.07422 l 0.076172,-0.04687 c 0.00592,-0.0038 0.011777,-0.0077 0.017578,-0.01172 l 0.085938,-0.05664 c 0.029566,-0.01935 0.057639,-0.0409 0.083984,-0.06445 l 0.076172,-0.06836 0.002,-0.002 c 0.03928,-0.0256 0.07592,-0.05504 0.109375,-0.08789 l 0.847656,-0.837891 0.0059,-0.0059 0.720703,-0.7324221 0.46875,0 0.324219,0 c 0.187524,1.23e-5 0.367375,-0.074457 0.5,-0.2070313 L 14.8125,7.6425781 c 0.445144,-0.4454931 0.129775,-1.2068121 -0.5,-1.2070312 l -0.962891,0 -1.097656,0 -0.369141,-0.8300781 C 11.769258,5.350019 11.515879,5.1854376 11.236328,5.1855469 l -0.0039,0 -0.230469,-0.4902344 C 10.885256,4.4471314 10.635584,4.2888028 10.361334,4.2890625 l -0.8378905,0 -1.5898437,0 -0.9609376,0 z"
     id="path4238"
     inkscape:connector-curvature="0"
     sodipodi:nodetypes="cccccccccccccccccccccccccccccccccccccccccccccccccccccccccccccccc" />
  <path
     sodipodi:type="inkscape:offset"
     inkscape:radius="0"
     inkscape:original="M 6.7910156 4.9960938 L 6.6191406 5.0546875 L 6.4570312 5.1582031 L 6.3046875 5.3105469 L 5.4667969 6.140625 L 4.7246094 6.8945312 L 4.6113281 6.9707031 L 4.4960938 7.0273438 L 4.4589844 7.0273438 L 4.4394531 7.0273438 L 4.4296875 7.0273438 L 4.4296875 7.0371094 L 4.3730469 7.0566406 L 4.2402344 7.0664062 L 3.7734375 7.0664062 L 3.4589844 7.0664062 L 1.6875 8.8574219 L 2.6582031 8.8574219 L 4.4960938 8.8574219 L 5.6679688 8.8574219 L 5.7050781 8.8496094 L 5.7539062 8.8496094 L 5.8476562 8.8378906 L 5.9335938 8.8203125 L 6.0292969 8.8007812 L 6.1816406 8.7050781 L 6.2480469 8.6484375 L 6.3242188 8.5917969 L 7.1328125 7.78125 L 7.9238281 6.9902344 L 8.0292969 6.875 L 8.1621094 6.8085938 L 8.2949219 6.7695312 L 8.4472656 6.7695312 L 9.3515625 6.7695312 L 10.845703 6.7695312 L 11.626953 6.7695312 L 11.236328 5.8925781 L 9.9316406 5.8925781 L 8.4277344 5.8925781 L 8.2480469 5.8925781 L 8.0859375 5.9492188 L 7.9335938 6.0351562 L 7.8105469 6.1699219 L 7.1054688 6.875 L 6.9824219 6.9609375 L 6.8671875 7.0175781 L 6.7519531 7.046875 L 6.6386719 7.046875 L 6.1347656 7.046875 L 6.7519531 6.4257812 L 7.4765625 5.703125 L 7.5625 5.6171875 L 7.6660156 5.5585938 L 7.78125 5.5214844 L 7.9238281 5.5214844 L 9.3320312 5.5214844 L 10.607422 5.5214844 L 10.361328 4.9960938 L 9.5234375 4.9960938 L 7.9335938 4.9960938 L 6.9726562 4.9960938 L 6.7910156 4.9960938 z M 10.123047 7.1425781 L 9.9511719 7.1894531 L 9.7890625 7.265625 L 9.65625 7.4003906 L 8.8476562 8.2089844 L 8.0566406 9 L 8.0195312 9.0195312 L 8 9.0292969 L 7.9902344 9.0488281 L 7.9335938 9.0957031 L 7.8203125 9.1640625 L 7.6855469 9.2011719 L 7.5527344 9.2109375 L 6.6386719 9.2109375 L 5.1445312 9.2109375 L 4.3632812 9.2109375 L 4.7441406 10.087891 L 6.0683594 10.087891 L 7.5722656 10.087891 L 7.7246094 10.068359 L 7.8007812 10.048828 L 7.8847656 10.03125 L 8.0390625 9.9355469 L 8.1152344 9.8789062 L 8.1992188 9.8203125 L 8.875 9.1152344 L 8.9902344 9.0195312 L 9.046875 8.9824219 L 9.1132812 8.9628906 L 9.2285156 8.9257812 L 9.3417969 8.9335938 L 9.8554688 8.9335938 L 9.2382812 9.5644531 L 8.5234375 10.287109 L 8.4667969 10.316406 L 8.4179688 10.355469 L 8.3613281 10.382812 L 8.3417969 10.382812 L 8.3339844 10.382812 L 8.3339844 10.392578 L 8.3144531 10.412109 L 8.2753906 10.412109 L 8.2578125 10.412109 L 8.2480469 10.412109 L 8.2480469 10.421875 L 8.1914062 10.441406 L 8.0566406 10.458984 L 6.6679688 10.458984 L 5.3925781 10.458984 L 5.6289062 11.003906 L 6.4667969 11.003906 L 8.046875 11.003906 L 9.0195312 11.003906 L 9.09375 10.994141 L 9.1328125 10.984375 L 9.1796875 10.984375 L 9.2558594 10.964844 L 9.3515625 10.935547 L 9.4277344 10.888672 L 9.5136719 10.832031 L 9.5898438 10.763672 L 9.6289062 10.726562 L 9.6464844 10.707031 L 9.6464844 10.697266 L 9.65625 10.697266 L 9.6757812 10.697266 L 10.523438 9.859375 L 11.255859 9.1152344 L 11.361328 9.0097656 L 11.474609 8.9433594 L 11.597656 8.90625 L 11.742188 8.9160156 L 12.216797 8.9160156 L 12.541016 8.9160156 L 14.3125 7.1425781 L 13.349609 7.1425781 L 11.494141 7.1425781 L 10.322266 7.1425781 L 10.123047 7.1425781 z "
     style="fill:#2c5ba3;fill-opacity:1;fill-rule:evenodd;stroke:none"
     id="path4221"
     d="M 6.7910156,4.9960938 6.6191406,5.0546875 6.4570312,5.1582031 6.3046875,5.3105469 5.4667969,6.140625 4.7246094,6.8945312 l -0.1132813,0.076172 -0.1152343,0.056641 -0.037109,0 -0.019531,0 -0.00977,0 0,0.00977 -0.056641,0.019531 -0.1328125,0.00977 -0.4667969,0 -0.3144531,0 -1.7714844,1.7910157 0.9707031,0 1.8378907,0 1.171875,0 0.037109,-0.00781 0.048828,0 0.09375,-0.011719 0.085938,-0.017578 0.095703,-0.019531 0.1523437,-0.095703 0.066406,-0.056641 0.076172,-0.056641 L 7.1328125,7.78125 7.9238281,6.9902344 8.0292969,6.875 l 0.1328125,-0.066406 0.1328125,-0.039063 0.1523437,0 0.9042969,0 1.4941405,0 0.78125,0 -0.390625,-0.8769531 -1.3046874,0 -1.5039062,0 -0.1796875,0 L 8.0859375,5.9492188 7.9335938,6.0351562 7.8105469,6.1699219 7.1054688,6.875 6.9824219,6.9609375 6.8671875,7.0175781 6.7519531,7.046875 l -0.1132812,0 -0.5039063,0 L 6.7519531,6.4257812 7.4765625,5.703125 7.5625,5.6171875 7.6660156,5.5585938 7.78125,5.5214844 l 0.1425781,0 1.4082031,0 1.2753908,0 -0.246094,-0.5253906 -0.8378905,0 -1.5898437,0 -0.9609376,0 -0.1816406,0 z M 10.123047,7.1425781 9.9511719,7.1894531 9.7890625,7.265625 9.65625,7.4003906 8.8476562,8.2089844 8.0566406,9 8.0195312,9.0195312 8,9.0292969 l -0.00977,0.019531 -0.056641,0.046875 -0.1132813,0.068359 -0.1347656,0.037109 -0.1328125,0.00977 -0.9140625,0 -1.4941407,0 -0.78125,0 0.3808594,0.8769535 1.3242188,0 1.5039062,0 0.1523438,-0.01953 0.076172,-0.01953 0.083984,-0.01758 0.1542969,-0.095703 0.076172,-0.056641 0.083984,-0.058594 L 8.875,9.1152344 l 0.1152344,-0.095703 0.056641,-0.037109 0.066406,-0.019531 0.1152344,-0.037109 0.1132813,0.00781 0.5136719,0 -0.6171876,0.6308593 -0.7148437,0.7226559 -0.056641,0.0293 -0.048828,0.03906 -0.056641,0.02734 -0.019531,0 -0.00781,0 0,0.0098 -0.019531,0.01953 -0.039063,0 -0.017578,0 -0.00977,0 0,0.0098 -0.056641,0.01953 -0.1347656,0.01758 -1.3886718,0 -1.2753907,0 0.2363281,0.544922 0.8378907,0 1.5800781,0 0.9726562,0 0.074219,-0.0098 0.039063,-0.0098 0.046875,0 0.076172,-0.01953 0.095703,-0.0293 0.076172,-0.04687 0.085937,-0.05664 0.076172,-0.06836 0.039062,-0.03711 0.017578,-0.01953 0,-0.0098 0.00977,0 0.019531,0 0.8476568,-0.837891 0.732421,-0.7441406 0.105469,-0.1054688 0.113281,-0.066406 0.123047,-0.037109 0.144532,0.00977 0.474609,0 0.324219,0 1.771484,-1.7734375 -0.962891,0 -1.855468,0 -1.171875,0 -0.199219,0 z" />
</svg>
