<?xml version="1.0" encoding="UTF-8" standalone="no"?>
<svg
   xmlns:dc="http://purl.org/dc/elements/1.1/"
   xmlns:cc="http://creativecommons.org/ns#"
   xmlns:rdf="http://www.w3.org/1999/02/22-rdf-syntax-ns#"
   xmlns:svg="http://www.w3.org/2000/svg"
   xmlns="http://www.w3.org/2000/svg"
   xmlns:sodipodi="http://sodipodi.sourceforge.net/DTD/sodipodi-0.dtd"
   xmlns:inkscape="http://www.inkscape.org/namespaces/inkscape"
   width="16"
   height="16"
   id="svg2"
   version="1.1"
   inkscape:version="0.91 r13725"
   sodipodi:docname="subway_sapporo.svg">
  <defs
     id="defs13">
    <linearGradient
       gradientTransform="matrix(0.08596979,0,0,0.08596979,0.67480439,1.9432845)"
       x1="87.101639"
       y1="121.69753"
       x2="87.260849"
       y2="1.2385538"
       id="l1"
       gradientUnits="userSpaceOnUse">
      <stop
         style="stop-color:#e92203;stop-opacity:1"
         offset="0"
         id="stop5" />
      <stop
         style="stop-color:#ff0000;stop-opacity:0.64628822"
         offset="1"
         id="stop7" />
    </linearGradient>
    <linearGradient
       gradientTransform="matrix(0.08400469,0,0,0.08400469,0.8422306,2.0814238)"
       x1="87.101639"
       y1="121.69753"
       x2="87.260849"
       y2="1.2385538"
       id="l1-2"
       gradientUnits="userSpaceOnUse">
      <stop
         style="stop-color:#e92203;stop-opacity:1"
         offset="0"
         id="stop5-8" />
      <stop
         style="stop-color:#ff0000;stop-opacity:0.64628822"
         offset="1"
         id="stop7-4" />
    </linearGradient>
    <clipPath
       style="clip-rule:evenodd"
       id="clip">
      <path
         inkscape:connector-curvature="0"
         d="m 0,62 142,0 0,1 a 19,17 0 0 1 19,17 l 0,144 -36,0 0,-144 A 45,43 0 0 0 80,37 l 0,26 a 19,17 0 0 1 19,17 l 0,144 -37,0 0,-144 A 45,43 0 0 0 17,37 l 0,26 a 19,17 0 0 1 19,17 l 0,144 -36,0"
         id="path9" />
    </clipPath>
    <clipPath
       style="clip-rule:evenodd"
       id="clip-3">
      <path
         inkscape:connector-curvature="0"
         d="m 0,62 142,0 0,1 c 10.49341,0 19,7.611159 19,17 l 0,144 -36,0 0,-144 C 125,56.251756 104.85281,37 80,37 l 0,26 c 10.49341,0 19,7.611159 19,17 l 0,144 -37,0 0,-144 C 62,56.251756 41.852814,37 17,37 l -19.4659076,6.047445 c 10.4934102,0 39.5295186,70.389145 39.4392026,79.777555 L 36,224 0,224"
         id="path9-6"
         sodipodi:nodetypes="cccsccsccsccsccscc" />
    </clipPath>
    <clipPath
       clipPathUnits="userSpaceOnUse"
       id="clipPath4241">
      <path
         style="color:#000000;font-style:normal;font-variant:normal;font-weight:normal;font-stretch:normal;font-size:medium;line-height:normal;font-family:sans-serif;text-indent:0;text-align:start;text-decoration:none;text-decoration-line:none;text-decoration-style:solid;text-decoration-color:#000000;letter-spacing:normal;word-spacing:normal;text-transform:none;direction:ltr;block-progression:tb;writing-mode:lr-tb;baseline-shift:baseline;text-anchor:start;white-space:normal;clip-rule:nonzero;display:inline;overflow:visible;visibility:visible;opacity:1;isolation:auto;mix-blend-mode:normal;color-interpolation:sRGB;color-interpolation-filters:linearRGB;solid-color:#000000;solid-opacity:1;fill:#f78f1e;fill-opacity:1;fill-rule:nonzero;stroke:none;stroke-width:1.1890316;stroke-linecap:butt;stroke-linejoin:miter;stroke-miterlimit:4;stroke-dasharray:none;stroke-dashoffset:0;stroke-opacity:1;color-rendering:auto;image-rendering:auto;shape-rendering:auto;text-rendering:auto;enable-background:accumulate"
         d="m 14.951172,5.6171875 0,1.1894531 1.189724,4.0473644 c 0.22222,0.755979 1.557608,-1.2390936 2.119845,-0.687028 l -1.216421,3.99855 5.104118,-1.349121 -2.897294,-5.4803727 C 18.582537,6.0713293 20.39326,2.308458 19.17089,3.0516451 Z"
         id="path4243"
         inkscape:connector-curvature="0"
         sodipodi:nodetypes="ccssccssc" />
    </clipPath>
    <clipPath
       style="clip-rule:evenodd"
       id="clip-5">
      <path
         inkscape:connector-curvature="0"
         d="m 0,62 142,0 0,1 a 19,17 0 0 1 19,17 l 0,144 -36,0 0,-144 A 45,43 0 0 0 80,37 l 0,26 a 19,17 0 0 1 19,17 l 0,144 -37,0 0,-144 A 45,43 0 0 0 17,37 l 0,26 a 19,17 0 0 1 19,17 l 0,144 -36,0"
         id="path9-62" />
    </clipPath>
  </defs>
  <sodipodi:namedview
     pagecolor="#ffffff"
     bordercolor="#666666"
     borderopacity="1"
     objecttolerance="10"
     gridtolerance="10"
     guidetolerance="10"
     inkscape:pageopacity="0"
     inkscape:pageshadow="2"
     inkscape:window-width="1920"
     inkscape:window-height="1006"
     id="namedview11"
     showgrid="true"
     inkscape:zoom="45.21461"
     inkscape:cx="4.7478368"
     inkscape:cy="10.01908"
     inkscape:window-x="1920"
     inkscape:window-y="0"
     inkscape:window-maximized="1"
     inkscape:current-layer="svg2"
     showguides="false"
     inkscape:snap-global="false">
    <sodipodi:guide
       position="0,0"
       orientation="0,580"
       id="guide2989" />
    <sodipodi:guide
       position="580,0"
       orientation="-580,0"
       id="guide2991" />
    <sodipodi:guide
       position="580,580"
       orientation="0,-580"
       id="guide2993" />
    <sodipodi:guide
       position="0,580"
       orientation="580,0"
       id="guide2995" />
    <sodipodi:guide
       position="0,0"
       orientation="0,580"
       id="guide2997" />
    <sodipodi:guide
       position="580,0"
       orientation="-580,0"
       id="guide2999" />
    <sodipodi:guide
       position="580,580"
       orientation="0,-580"
       id="guide3001" />
    <sodipodi:guide
       position="0,580"
       orientation="580,0"
       id="guide3003" />
    <inkscape:grid
       type="xygrid"
       id="grid3013"
       empspacing="5"
       visible="true"
       enabled="true"
       snapvisiblegridlinesonly="true" />
  </sodipodi:namedview>
  <metadata
     id="metadata2975">image/svg+xmlen<rdf:RDF>
  <cc:Work
     rdf:about="">
    <dc:format>image/svg+xml</dc:format>
    <dc:type
       rdf:resource="http://purl.org/dc/dcmitype/StillImage" />
    <dc:title></dc:title>
  </cc:Work>
</rdf:RDF>
</metadata>
  <path
     sodipodi:type="inkscape:offset"
     inkscape:radius="0.81322283"
     inkscape:original="M 2.5917969 3.640625 L 2.5917969 12.359375 L 13.408203 12.359375 L 13.408203 3.640625 L 2.5917969 3.640625 z "
     style="color:#000000;clip-rule:nonzero;display:inline;overflow:visible;visibility:visible;opacity:1;isolation:auto;mix-blend-mode:normal;color-interpolation:sRGB;color-interpolation-filters:linearRGB;solid-color:#000000;solid-opacity:1;fill:#585858;fill-opacity:1;fill-rule:nonzero;stroke:none;stroke-width:1;stroke-linecap:butt;stroke-linejoin:miter;stroke-miterlimit:4;stroke-dasharray:none;stroke-dashoffset:0;stroke-opacity:1;marker:none;color-rendering:auto;image-rendering:auto;shape-rendering:auto;text-rendering:auto;enable-background:accumulate"
     id="path4280"
     d="m 2.5917969,2.828125 a 0.81330415,0.81330415 0 0 0 -0.8125,0.8125 l 0,8.71875 a 0.81330415,0.81330415 0 0 0 0.8125,0.8125 l 10.8164061,0 a 0.81330415,0.81330415 0 0 0 0.8125,-0.8125 l 0,-8.71875 a 0.81330415,0.81330415 0 0 0 -0.8125,-0.8125 l -10.8164061,0 z"
     transform="matrix(0.95584417,0,0,0.95584417,0.35324661,0.35324661)" />
  <rect
     style="color:#000000;clip-rule:nonzero;display:inline;overflow:visible;visibility:visible;opacity:1;isolation:auto;mix-blend-mode:normal;color-interpolation:sRGB;color-interpolation-filters:linearRGB;solid-color:#000000;solid-opacity:1;fill:#fefefe;fill-opacity:1;fill-rule:nonzero;stroke:none;stroke-width:1;stroke-linecap:butt;stroke-linejoin:miter;stroke-miterlimit:4;stroke-dasharray:none;stroke-dashoffset:0;stroke-opacity:1;marker:none;color-rendering:auto;image-rendering:auto;shape-rendering:auto;text-rendering:auto;enable-background:accumulate"
     id="rect4263"
     width="10.816327"
     height="8.7176371"
     x="2.5918362"
     y="3.6411817" />
  <g
     id="g2829"
     transform="matrix(0.05963023,0,0,0.05963023,2.425581,4.2239543)">
    <path
       inkscape:connector-curvature="0"
       id="path2895"
       d="m 48.714439,67.224886 c 0.948092,-5.371742 1.487323,-7.29202 2.81089,-10.009981 1.136849,-2.334532 2.255371,-3.867073 4.32314,-5.923338 2.859885,-2.843974 6.706777,-5.376297 11.279247,-7.424876 5.953405,-2.667272 25.616812,-10.030503 26.786319,-10.030503 0.166812,0 0.166773,0.007 -0.0024,0.436261 -0.585488,1.485402 -3.274662,6.433961 -8.595705,15.817632 l -2.676046,4.719214 -16.997145,6.793368 c -9.34843,3.736352 -17.02816,6.793368 -17.066067,6.793368 -0.03791,0 0.02409,-0.527015 0.13778,-1.171145 z"
       style="fill:#f93357;fill-opacity:1" />
    <path
       inkscape:connector-curvature="0"
       id="path2897"
       d="m 63.854621,77.917154 c -1.795168,-0.272311 -4.551683,-1.279379 -7.490912,-2.736739 -3.191902,-1.582642 -5.742713,-3.220876 -7.048971,-4.527134 -0.738333,-0.738333 -0.985113,-1.209626 -0.817901,-1.562001 0.04004,-0.08438 0.126096,-0.174859 0.191235,-0.201066 0.487246,-0.196035 4.649978,-0.594891 9.951637,-0.953525 3.201967,-0.2166 13.9246,-0.86882 14.033905,-0.853633 0.07867,0.01093 -0.109339,0.35959 -1.423129,2.639196 -2.207316,3.829995 -2.703872,4.631934 -3.696066,5.969165 -0.942905,1.270801 -1.788401,2.14111 -2.187841,2.252047 -0.228279,0.0634 -1.010266,0.04979 -1.511957,-0.02631 z"
       style="fill:#0255c4;fill-opacity:1" />
    <path
       inkscape:connector-curvature="0"
       id="path2899"
       d="m 14.262556,122.85826 c -0.662495,-0.33095 -0.772105,-1.14255 -0.401505,-2.97288 0.189994,-0.93835 3.147268,-11.50577 3.239173,-11.57475 0.01922,-0.0144 2.898735,-1.1128 6.398914,-2.44081 22.652112,-8.594513 29.829641,-11.519698 35.885669,-14.625097 4.917529,-2.521602 7.156299,-4.247282 8.068508,-6.219335 0.294441,-0.636535 0.32792,-1.662073 0.07779,-2.382754 -0.172685,-0.497537 -0.774581,-1.442209 -1.428458,-2.241954 -0.740156,-0.905272 -0.624292,-1.415078 0.594907,-2.6176 1.872367,-1.84676 7.101214,-5.746026 9.260073,-6.905441 1.364078,-0.732578 2.722866,-1.002651 3.598384,-0.715215 1.076745,0.353499 2.040682,1.359469 3.29777,3.441566 3.231469,5.352242 3.617257,10.965602 1.108435,16.128119 -0.845176,1.739157 -2.235014,3.632977 -3.894531,5.306765 -4.066799,4.101773 -10.1196,7.426136 -21.968838,12.065866 -1.383103,0.54157 -9.196893,3.54358 -17.363976,6.67112 -8.167084,3.12754 -15.739505,6.0303 -16.827603,6.45057 -6.487993,2.50594 -8.692511,3.10751 -9.644707,2.63183 z"
       style="fill:#0255c4;fill-opacity:1" />
    <path
       inkscape:connector-curvature="0"
       id="path2901"
       d="m 97.498222,44.001845 c -0.22368,-2.412823 -0.44853,-5.797492 -0.49965,-7.521487 l -0.093,-3.134534 1.21697,-0.546344 C 104.5368,29.919874 172.26125,3.6408353 173.2681,3.6408353 c 0.39879,0 -1.82849,15.4027527 -2.29114,15.8444237 -0.12082,0.115336 -3.0039,1.323517 -6.40685,2.684848 -10.9331,4.373721 -65.844388,25.998084 -66.389858,26.144683 -0.23623,0.06349 -0.33316,-0.549447 -0.68207,-4.312945 z"
       style="fill:#027c5c;fill-opacity:1" />
    <path
       inkscape:connector-curvature="0"
       id="path2903"
       d="m 104.62192,89.949523 c 0.0259,-0.11524 0.1099,-0.567501 0.18678,-1.005023 0.6248,-3.555857 8.07439,-40.560753 8.18322,-40.649143 0.1372,-0.11142 10.04907,-7.127287 11.12554,-7.874924 1.68077,-1.167349 4.68734,-3.159687 5.52427,-3.660726 0.55241,-0.330705 0.62156,-0.352452 0.6452,-0.2029 0.16686,1.055295 -6.25879,30.803442 -9.30162,43.062722 -0.89,3.585756 -1.05228,4.144794 -1.29136,4.448736 -0.7156,0.909736 -12.056,5.535348 -14.78322,6.029891 -0.31951,0.05794 -0.33353,0.05072 -0.28881,-0.148633 l 0,0 z"
       style="fill:#fe4f1e;fill-opacity:1" />
  </g>
</svg>
