<?xml version="1.0" encoding="UTF-8" standalone="no"?>
<svg
   xmlns:dc="http://purl.org/dc/elements/1.1/"
   xmlns:cc="http://creativecommons.org/ns#"
   xmlns:rdf="http://www.w3.org/1999/02/22-rdf-syntax-ns#"
   xmlns:svg="http://www.w3.org/2000/svg"
   xmlns="http://www.w3.org/2000/svg"
   xmlns:sodipodi="http://sodipodi.sourceforge.net/DTD/sodipodi-0.dtd"
   xmlns:inkscape="http://www.inkscape.org/namespaces/inkscape"
   width="16"
   height="16"
   id="svg2"
   version="1.1"
   inkscape:version="0.91 r13725"
   sodipodi:docname="subway_monterrey.svg">
  <defs
     id="defs13">
    <linearGradient
       gradientTransform="matrix(0.08596979,0,0,0.08596979,0.67480439,1.9432845)"
       x1="87.101639"
       y1="121.69753"
       x2="87.260849"
       y2="1.2385538"
       id="l1"
       gradientUnits="userSpaceOnUse">
      <stop
         style="stop-color:#e92203;stop-opacity:1"
         offset="0"
         id="stop5" />
      <stop
         style="stop-color:#ff0000;stop-opacity:0.64628822"
         offset="1"
         id="stop7" />
    </linearGradient>
    <linearGradient
       gradientTransform="matrix(0.08400469,0,0,0.08400469,0.8422306,2.0814238)"
       x1="87.101639"
       y1="121.69753"
       x2="87.260849"
       y2="1.2385538"
       id="l1-2"
       gradientUnits="userSpaceOnUse">
      <stop
         style="stop-color:#e92203;stop-opacity:1"
         offset="0"
         id="stop5-8" />
      <stop
         style="stop-color:#ff0000;stop-opacity:0.64628822"
         offset="1"
         id="stop7-4" />
    </linearGradient>
    <clipPath
       style="clip-rule:evenodd"
       id="clip">
      <path
         inkscape:connector-curvature="0"
         d="m 0,62 142,0 0,1 a 19,17 0 0 1 19,17 l 0,144 -36,0 0,-144 A 45,43 0 0 0 80,37 l 0,26 a 19,17 0 0 1 19,17 l 0,144 -37,0 0,-144 A 45,43 0 0 0 17,37 l 0,26 a 19,17 0 0 1 19,17 l 0,144 -36,0"
         id="path9" />
    </clipPath>
    <clipPath
       style="clip-rule:evenodd"
       id="clip-3">
      <path
         inkscape:connector-curvature="0"
         d="m 0,62 142,0 0,1 c 10.49341,0 19,7.611159 19,17 l 0,144 -36,0 0,-144 C 125,56.251756 104.85281,37 80,37 l 0,26 c 10.49341,0 19,7.611159 19,17 l 0,144 -37,0 0,-144 C 62,56.251756 41.852814,37 17,37 l -19.4659076,6.047445 c 10.4934102,0 39.5295186,70.389145 39.4392026,79.777555 L 36,224 0,224"
         id="path9-6"
         sodipodi:nodetypes="cccsccsccsccsccscc" />
    </clipPath>
    <clipPath
       clipPathUnits="userSpaceOnUse"
       id="clipPath4241">
      <path
         style="color:#000000;font-style:normal;font-variant:normal;font-weight:normal;font-stretch:normal;font-size:medium;line-height:normal;font-family:sans-serif;text-indent:0;text-align:start;text-decoration:none;text-decoration-line:none;text-decoration-style:solid;text-decoration-color:#000000;letter-spacing:normal;word-spacing:normal;text-transform:none;direction:ltr;block-progression:tb;writing-mode:lr-tb;baseline-shift:baseline;text-anchor:start;white-space:normal;clip-rule:nonzero;display:inline;overflow:visible;visibility:visible;opacity:1;isolation:auto;mix-blend-mode:normal;color-interpolation:sRGB;color-interpolation-filters:linearRGB;solid-color:#000000;solid-opacity:1;fill:#f78f1e;fill-opacity:1;fill-rule:nonzero;stroke:none;stroke-width:1.1890316;stroke-linecap:butt;stroke-linejoin:miter;stroke-miterlimit:4;stroke-dasharray:none;stroke-dashoffset:0;stroke-opacity:1;color-rendering:auto;image-rendering:auto;shape-rendering:auto;text-rendering:auto;enable-background:accumulate"
         d="m 14.951172,5.6171875 0,1.1894531 1.189724,4.0473644 c 0.22222,0.755979 1.557608,-1.2390936 2.119845,-0.687028 l -1.216421,3.99855 5.104118,-1.349121 -2.897294,-5.4803727 C 18.582537,6.0713293 20.39326,2.308458 19.17089,3.0516451 Z"
         id="path4243"
         inkscape:connector-curvature="0"
         sodipodi:nodetypes="ccssccssc" />
    </clipPath>
    <clipPath
       style="clip-rule:evenodd"
       id="clip-5">
      <path
         inkscape:connector-curvature="0"
         d="m 0,62 142,0 0,1 a 19,17 0 0 1 19,17 l 0,144 -36,0 0,-144 A 45,43 0 0 0 80,37 l 0,26 a 19,17 0 0 1 19,17 l 0,144 -37,0 0,-144 A 45,43 0 0 0 17,37 l 0,26 a 19,17 0 0 1 19,17 l 0,144 -36,0"
         id="path9-62" />
    </clipPath>
  </defs>
  <sodipodi:namedview
     pagecolor="#ffffff"
     bordercolor="#666666"
     borderopacity="1"
     objecttolerance="10"
     gridtolerance="10"
     guidetolerance="10"
     inkscape:pageopacity="0"
     inkscape:pageshadow="2"
     inkscape:window-width="1920"
     inkscape:window-height="1006"
     id="namedview11"
     showgrid="true"
     inkscape:zoom="45.21461"
     inkscape:cx="5.57889"
     inkscape:cy="9.2875776"
     inkscape:window-x="1920"
     inkscape:window-y="0"
     inkscape:window-maximized="1"
     inkscape:current-layer="svg2"
     showguides="false"
     inkscape:snap-global="false">
    <sodipodi:guide
       position="0,0"
       orientation="0,580"
       id="guide2989" />
    <sodipodi:guide
       position="580,0"
       orientation="-580,0"
       id="guide2991" />
    <sodipodi:guide
       position="580,580"
       orientation="0,-580"
       id="guide2993" />
    <sodipodi:guide
       position="0,580"
       orientation="580,0"
       id="guide2995" />
    <sodipodi:guide
       position="0,0"
       orientation="0,580"
       id="guide2997" />
    <sodipodi:guide
       position="580,0"
       orientation="-580,0"
       id="guide2999" />
    <sodipodi:guide
       position="580,580"
       orientation="0,-580"
       id="guide3001" />
    <sodipodi:guide
       position="0,580"
       orientation="580,0"
       id="guide3003" />
    <inkscape:grid
       type="xygrid"
       id="grid3013"
       empspacing="5"
       visible="true"
       enabled="true"
       snapvisiblegridlinesonly="true" />
  </sodipodi:namedview>
  <metadata
     id="metadata2975">image/svg+xmlen<rdf:RDF>
  <cc:Work
     rdf:about="">
    <dc:format>image/svg+xml</dc:format>
    <dc:type
       rdf:resource="http://purl.org/dc/dcmitype/StillImage" />
    <dc:title></dc:title>
  </cc:Work>
</rdf:RDF>
</metadata>
  <path
     sodipodi:type="inkscape:offset"
     inkscape:radius="0.66473287"
     inkscape:original="M 4.3046875 5.5664062 L 4.2539062 5.6835938 L 3.1582031 5.6796875 L 3.1035156 5.8417969 L 6.3457031 5.8496094 L 6.2636719 6.0644531 L 4.1054688 6.0566406 L 4.0722656 6.1640625 L 2.984375 6.1601562 L 2.9296875 6.3261719 L 6.171875 6.3339844 L 6.0996094 6.546875 L 3.9414062 6.5371094 L 3.8945312 6.6503906 L 2.8164062 6.6445312 L 2.7617188 6.8007812 L 8.4277344 6.8261719 C 8.7001818 6.3914689 9.1483797 6.4647853 8.9804688 6.828125 L 11.376953 6.8378906 C 11.563143 6.442969 12.144553 6.4405199 11.904297 6.8398438 L 14.314453 6.8496094 C 15.184122 5.311399 13.069429 5.3332017 11.623047 6.0332031 C 11.284006 5.4110126 9.9172671 5.4424266 8.71875 5.9550781 L 8.8457031 5.5859375 L 4.3046875 5.5664062 z M 3.6621094 7.2460938 L 3.6132812 7.3632812 L 2.5605469 7.359375 L 2.5058594 7.5195312 L 5.7441406 7.5332031 L 5.6660156 7.7441406 L 3.4628906 7.734375 L 3.4316406 7.8476562 L 2.3925781 7.84375 L 2.3339844 8.0058594 L 5.5761719 8.0175781 L 5.4980469 8.2246094 L 3.2988281 8.2167969 L 3.2539062 8.328125 L 2.21875 8.3242188 L 2.1640625 8.484375 L 5.4082031 8.4980469 L 5.3300781 8.7011719 L 3.1523438 8.6875 L 3.1035156 8.8222656 L 2.046875 8.8183594 L 1.9960938 8.9570312 L 5.2382812 8.9746094 L 5.1621094 9.1855469 L 2.9707031 9.1679688 L 2.9257812 9.2929688 L 1.8828125 9.2890625 L 1.8242188 9.4511719 L 5.0664062 9.4648438 L 4.9941406 9.6621094 L 2.7949219 9.6523438 L 2.7539062 9.7695312 L 1.7148438 9.7597656 L 1.6601562 9.9121094 L 4.9023438 9.9316406 L 4.8339844 10.128906 L 2.6308594 10.123047 L 2.5625 10.263672 L 1.5371094 10.25 L 1.4824219 10.40625 L 7.1269531 10.429688 L 8.25 7.265625 L 3.6621094 7.2460938 z M 8.7949219 7.2714844 L 7.6523438 10.410156 L 10.072266 10.419922 L 11.199219 7.28125 L 8.7949219 7.2714844 z M 11.726562 7.2851562 L 10.583984 10.421875 L 13.003906 10.433594 L 14.132812 7.2949219 L 11.726562 7.2851562 z "
     style="fill:#fefefe;fill-opacity:1"
     id="path4527"
     d="m 4.3066406,4.9023438 a 0.66479935,0.66479935 0 0 0 -0.59375,0.359375 L 3.8183594,5.0175781 3.1601562,5.015625 A 0.66479935,0.66479935 0 0 0 2.5292969,5.4667969 L 2.4746094,5.6289062 A 0.66479935,0.66479935 0 0 0 2.4414062,5.7773438 0.66479935,0.66479935 0 0 0 2.3535156,5.953125 l -0.054687,0.1660156 a 0.66479935,0.66479935 0 0 0 -0.03125,0.1523438 0.66479935,0.66479935 0 0 0 -0.078125,0.1542968 l -0.054687,0.15625 a 0.66479935,0.66479935 0 0 0 -0.033203,0.296875 0.66479935,0.66479935 0 0 0 -0.1699219,0.265625 L 1.8769531,7.3046875 A 0.66479935,0.66479935 0 0 0 1.84375,7.46875 0.66479935,0.66479935 0 0 0 1.7675781,7.6171875 L 1.7089844,7.7792969 A 0.66479935,0.66479935 0 0 0 1.671875,7.9453125 0.66479935,0.66479935 0 0 0 1.5898438,8.109375 L 1.5351562,8.2695312 A 0.66479935,0.66479935 0 0 0 1.5019531,8.4375 0.66479935,0.66479935 0 0 0 1.421875,8.5898438 l -0.050781,0.1386718 a 0.66479935,0.66479935 0 0 0 -0.037109,0.1875 A 0.66479935,0.66479935 0 0 0 1.2578125,9.0625 L 1.1992188,9.2246094 A 0.66479935,0.66479935 0 0 0 1.1621094,9.3886719 0.66479935,0.66479935 0 0 0 1.0898438,9.5351562 L 1.0351562,9.6875 A 0.66479935,0.66479935 0 0 0 0.99804688,9.8613281 0.66479935,0.66479935 0 0 0 0.91015625,10.03125 L 0.85546875,10.1875 A 0.66479935,0.66479935 0 0 0 1.4804688,11.070312 L 7.125,11.09375 a 0.66479935,0.66479935 0 0 0 0.2871094,-0.06445 0.66479935,0.66479935 0 0 0 0.2382812,0.04492 l 2.4199214,0.0098 a 0.66479935,0.66479935 0 0 0 0.25586,-0.04883 0.66479935,0.66479935 0 0 0 0.253906,0.05078 L 13,11.097656 a 0.66479935,0.66479935 0 0 0 0.628906,-0.439453 l 1.128906,-3.1386718 a 0.66479935,0.66479935 0 0 0 0.03906,-0.2128906 0.66479935,0.66479935 0 0 0 0.0957,-0.1289062 C 15.166468,6.6932969 15.291941,6.1589072 15.0625,5.6855469 14.833059,5.2121865 14.361746,5.0141624 13.945312,4.9453125 13.238714,4.828489 12.462742,5.008183 11.730469,5.3007812 11.367078,5.0518049 10.94271,4.9091387 10.5,4.9042969 10.132493,4.9002776 9.7382008,5.0578003 9.3496094,5.1523438 A 0.66479935,0.66479935 0 0 0 8.8476562,4.921875 L 4.3066406,4.9023438 Z" />
  <polygon
     id="polygon5"
     points="0.333,810.667 0.333,-2.333 0.333,-2.333 500.333,-2.333 500.333,810.667 "
     display="none"
     style="display:none;fill:#fcfcfc"
     transform="matrix(0.0112754,0,0,0.0112754,5.1892954,3.9811277)" />
  <path
     id="path63"
     d="m 5.4663771,12.276744 c 0.070922,-0.0195 0.1469184,0.02459 0.1779258,0.08874 0.023453,0.04927 0.045102,0.104185 0.038449,0.159897 -0.033037,3.27e-4 -0.065961,0.0026 -0.098772,0.0055 -0.00282,-0.05197 -0.019281,-0.114783 -0.072614,-0.135981 -0.042959,-0.0056 -0.069005,0.03676 -0.084115,0.07047 -0.022664,0.08953 -0.018717,0.182887 -0.010937,0.274105 0.0097,0.04241 0.029654,0.100013 0.08231,0.09945 0.063819,3.39e-4 0.078251,-0.07836 0.086031,-0.127975 0.033939,0.006 0.067991,0.0115 0.1021551,0.0159 -0.00485,0.06696 -0.022438,0.137673 -0.071035,0.186935 -0.01556,0.0159 -0.0389,0.02403 -0.049724,0.04454 -0.043974,0.0086 -0.088963,0.0058 -0.133388,0.0023 l 0.00237,-0.01015 c -0.085693,-0.03799 -0.119181,-0.136647 -0.132937,-0.222565 -0.010261,-0.105313 -0.010373,-0.214233 0.024017,-0.315486 0.024693,-0.06179 0.070697,-0.123578 0.140266,-0.135643 l 0,0 z"
     display="none"
     inkscape:connector-curvature="0"
     style="display:none;fill:#242021" />
  <path
     id="path65"
     d="m 5.8350714,12.293319 c 0.041832,-0.0021 0.083663,-0.0023 0.1253824,2.25e-4 0.033939,0.180294 0.084566,0.357216 0.1208723,0.537172 l 0.00462,0.0077 c 0.00688,0.04093 0.017477,0.08106 0.026272,0.121661 -0.037998,-1.12e-4 -0.075883,-3.38e-4 -0.1138815,9.02e-4 -0.01432,-0.05299 -0.028189,-0.106214 -0.037434,-0.160347 -0.04792,-0.0013 -0.095954,-4.4e-4 -0.1438741,-0.0013 -0.012967,0.05322 -0.023002,0.107117 -0.034052,0.160787 -0.030895,-1.12e-4 -0.061789,0 -0.092797,3.39e-4 0.00496,-0.05831 0.023791,-0.113995 0.034616,-0.171172 0.035754,-0.165523 0.07859,-0.32958 0.1102734,-0.495892 l 0,0 z"
     display="none"
     inkscape:connector-curvature="0"
     style="display:none;fill:#242021" />
  <path
     id="path67"
     d="m 6.1476367,12.292642 c 0.037885,-9.02e-4 0.075771,-9.02e-4 0.1135433,-6.76e-4 -1.127e-4,0.180293 -3.382e-4,0.360576 2.255e-4,0.540881 0.066187,-3.39e-4 0.1323732,-9.02e-4 0.1984471,3.38e-4 -5.638e-4,0.04205 -4.51e-4,0.084 -3.383e-4,0.12616 -0.1038464,0.0011 -0.2076929,9.02e-4 -0.3115393,1.24e-4 -3.383e-4,-0.222351 2.142e-4,-0.444589 -3.383e-4,-0.666827 l 0,0 z"
     display="none"
     inkscape:connector-curvature="0"
     style="display:none;fill:#242021" />
  <path
     id="path69"
     d="m 7.2499086,12.291402 c 0.040028,5.64e-4 0.080168,0 0.1201957,0.0019 0.039238,0.193598 0.089527,0.384829 0.131584,0.577864 0.00575,0.02481 0.0097,0.0504 0.022776,0.07295 -0.037209,5.64e-4 -0.074305,0.0019 -0.1115137,0.0028 0.038562,4.51e-4 0.077124,1.12e-4 0.1153473,0.0059 -0.038562,0.01297 -0.080168,0.0051 -0.1201958,0.008 -0.013869,-0.05333 -0.026159,-0.107004 -0.037547,-0.160799 -0.047582,-4.51e-4 -0.095277,1.24e-4 -0.1428594,-7.78e-4 -0.01353,0.05311 -0.023002,0.107229 -0.034615,0.1609 -0.030895,-2.25e-4 -0.061676,-2.25e-4 -0.092571,-1.13e-4 0.00406,-0.03676 0.012516,-0.07273 0.021423,-0.108469 0.042294,-0.186845 0.082987,-0.374016 0.1279758,-0.560173 l 0,0 z"
     display="none"
     inkscape:connector-curvature="0"
     style="display:none;fill:#242021" />
  <path
     id="path71"
     d="m 8.4165855,12.292417 c 0.057155,-3.39e-4 0.105752,0.03878 0.14207,0.07938 0.070358,0.102493 0.081059,0.235543 0.062342,0.3554 -0.016789,0.09935 -0.079255,0.208144 -0.1888629,0.220558 l 0.0043,0.0107 c -0.071046,0.0021 -0.1422956,0.0018 -0.2134546,0.0011 -2.255e-4,-0.22235 2.368e-4,-0.444814 -2.255e-4,-0.667278 0.064608,-3.49e-4 0.1292273,-0.001 0.1938354,1.02e-4 l 0,0 z"
     display="none"
     inkscape:connector-curvature="0"
     style="display:none;fill:#242021" />
  <path
     id="path73"
     d="m 8.683587,12.29174 c 0.1114009,0.0011 0.2226891,-0.0011 0.3340901,0.0011 -0.00237,0.04059 0.00564,0.08276 -0.00733,0.122225 -0.072726,-0.0028 -0.1454414,-3.38e-4 -0.218179,-0.0017 -2.368e-4,0.046 -2.368e-4,0.09212 0,0.138248 0.059421,-9.02e-4 0.1187299,0 0.1781513,-7.9e-4 0.00147,0.03867 0.00147,0.07757 9.02e-4,0.116363 -0.059421,-3.39e-4 -0.1189555,4.51e-4 -0.1783768,-6.88e-4 -0.00134,0.05547 -7.893e-4,0.111074 -5.638e-4,0.166549 0.076109,-9.02e-4 0.1522179,-7.9e-4 0.2282141,0 -6.765e-4,0.04216 -5.638e-4,0.08433 -5.638e-4,0.126611 -0.1118519,0.0011 -0.2237039,-9.02e-4 -0.3355671,0.0011 -0.00179,-0.22305 -3.383e-4,-0.446077 -7.78e-4,-0.669105 l 0,0 z"
     display="none"
     inkscape:connector-curvature="0"
     style="display:none;fill:#242021" />
  <path
     id="path75"
     d="m 9.5553896,12.293206 c 0.033601,-0.0015 0.067201,-0.0017 0.1008021,-0.0016 -0.00609,0.03202 -0.013869,0.06382 -0.021987,0.09562 -0.032248,0.140367 -0.067089,0.280194 -0.099224,0.420685 -0.012403,0.04995 -0.025933,0.0999 -0.033713,0.150978 -0.035743,0.0012 -0.071486,0.0011 -0.1071163,0.0014 -0.030556,-0.138575 -0.066863,-0.275909 -0.095266,-0.415048 l -0.0043,-0.0064 c -0.014996,-0.08276 -0.039915,-0.163493 -0.053885,-0.246367 0.037874,-6.88e-4 0.075771,-4.51e-4 0.1137688,-7.9e-4 0.035405,0.160788 0.062691,0.323604 0.1021551,0.48349 0.011839,-0.06978 0.028978,-0.138451 0.04217,-0.207908 0.00428,-0.01872 0.00778,-0.03743 0.011388,-0.05605 0.015898,-0.0725 0.032913,-0.144776 0.045203,-0.217953 l 0,0 z"
     display="none"
     inkscape:connector-curvature="0"
     style="display:none;fill:#242021" />
  <path
     id="path77"
     d="m 9.6955541,12.291853 c 0.037987,0 0.076109,0 0.1142198,3.27e-4 -5.638e-4,0.222576 2.255e-4,0.445153 -4.51e-4,0.66774 -0.03766,0 -0.07532,-1.24e-4 -0.1128668,6.77e-4 -0.0018,-0.222915 -1.127e-4,-0.445829 -9.02e-4,-0.668744 l 0,0 z"
     display="none"
     inkscape:connector-curvature="0"
     style="display:none;fill:#242021" />
  <path
     id="path79"
     d="m 10.075986,12.291966 c 0.06899,-0.0044 0.129667,0.04375 0.166865,0.09776 0.06754,0.121436 0.07701,0.272527 0.03248,0.403434 -0.02435,0.07397 -0.08344,0.14127 -0.16338,0.153571 l 0.0037,0.0107 c -0.07216,0.0043 -0.1443256,0.0017 -0.2164882,0.0031 -0.00124,-0.223027 -4.51e-4,-0.445942 -4.51e-4,-0.668969 0.059083,9.02e-4 0.1181662,0 0.1772492,4.51e-4 l 0,0 z"
     display="none"
     inkscape:connector-curvature="0"
     style="display:none;fill:#242021" />
  <path
     id="path81"
     d="m 10.454152,12.291289 c 0.03958,6.88e-4 0.07927,3.38e-4 0.118966,0.0014 0.04723,0.223377 0.106215,0.44415 0.151204,0.667842 -0.03767,-5.64e-4 -0.07533,-6.88e-4 -0.112878,-1.13e-4 -0.01263,-0.05333 -0.02513,-0.106552 -0.03652,-0.16011 -0.04781,-9.02e-4 -0.09551,-3.39e-4 -0.143209,-7.9e-4 -0.01195,0.05356 -0.02288,0.107354 -0.0345,0.161013 -0.03146,-6.88e-4 -0.06279,-5.64e-4 -0.09415,-4.51e-4 0.04444,-0.224042 0.100351,-0.445942 0.151091,-0.668744 l 0,0 z"
     display="none"
     inkscape:connector-curvature="0"
     style="display:none;fill:#242021" />
  <path
     id="path83"
     d="m 6.4918634,12.292417 c 0.03766,-6.88e-4 0.075433,-6.88e-4 0.1132051,-2.37e-4 2.255e-4,0.222238 -3.383e-4,0.4446 3.382e-4,0.66694 -0.037434,9.02e-4 -0.074869,9.02e-4 -0.112303,0.0014 -0.00202,-0.222678 4.51e-4,-0.445367 -0.00124,-0.668056 l 0,0 z"
     display="none"
     inkscape:connector-curvature="0"
     style="display:none;fill:#242021" />
  <path
     id="path85"
     d="m 6.6947079,12.292078 c 0.063255,1.13e-4 0.1263972,-9.02e-4 0.1896522,3.39e-4 0.054347,-0.0016 0.099787,0.03505 0.1365451,0.07104 0.079717,0.10238 0.082536,0.240955 0.069682,0.364533 -0.019281,0.09573 -0.075432,0.201605 -0.1811957,0.21863 l 0.00396,0.01037 c -0.072388,0.0051 -0.1450017,0.0018 -0.2175025,0.0037 -0.00237,-0.108131 9.02e-4,-0.216262 -0.00351,-0.324281 0.00711,-0.114783 -0.00271,-0.229567 0.00237,-0.344351 l 0,0 z"
     display="none"
     inkscape:connector-curvature="0"
     style="display:none;fill:#242021" />
  <path
     id="path87"
     d="m 7.5566107,12.292417 c 0.076785,0.0016 0.1542475,-0.0058 0.2304692,0.0043 0.07329,0.02424 0.1286523,0.08738 0.1499628,0.1609 0.037998,0.122801 0.039351,0.263506 -0.019619,0.379981 -0.028414,0.05829 -0.085242,0.101141 -0.1496245,0.110623 l 0.00383,0.01037 c -0.071486,0.0019 -0.1430848,0.0016 -0.2146836,0.0011 -4.623e-4,-0.222475 2.142e-4,-0.444938 -3.383e-4,-0.667289 l 0,0 z"
     display="none"
     inkscape:connector-curvature="0"
     style="display:none;fill:#242021" />
  <path
     id="path89"
     d="m 6.802512,12.415319 c 0.038325,-6.77e-4 0.083551,-0.01037 0.1142198,0.01905 0.053558,0.04679 0.060098,0.124593 0.062127,0.191231 -0.0018,0.05897 -0.00722,0.125157 -0.04668,0.172401 -0.030331,0.03518 -0.079717,0.03529 -0.1222254,0.03664 -0.00496,-0.0168 -0.00834,-0.03394 -0.00722,-0.05142 3.382e-4,-0.122676 5.638e-4,-0.245353 -2.255e-4,-0.367916 l 0,0 z"
     display="none"
     inkscape:connector-curvature="0"
     style="display:none;fill:#fcfcfc" />
  <path
     id="path91"
     d="m 7.6702668,12.412838 c 0.038675,0.0027 0.084329,-0.0076 0.1146708,0.02334 0.053671,0.04657 0.056264,0.123793 0.062015,0.189427 -0.00541,0.06258 -0.00789,0.136996 -0.059421,0.181308 -0.03112,0.02999 -0.077462,0.0256 -0.1171514,0.02638 -5.638e-4,-0.140154 -4.623e-4,-0.280307 -1.127e-4,-0.42046 l 0,0 z"
     display="none"
     inkscape:connector-curvature="0"
     style="display:none;fill:#fcfcfc" />
  <path
     id="path93"
     d="m 8.3350643,12.414868 c 0.038562,-1.13e-4 0.084227,-0.0097 0.1145581,0.02087 0.053671,0.04691 0.056377,0.12403 0.062015,0.189991 -0.00541,0.06055 -0.00767,0.129667 -0.052329,0.176009 -0.031684,0.03394 -0.081172,0.03214 -0.1236912,0.03089 -6.652e-4,-0.139262 4.511e-4,-0.278513 -5.525e-4,-0.417764 l 0,0 z"
     display="none"
     inkscape:connector-curvature="0"
     style="display:none;fill:#fcfcfc" />
  <path
     id="path95"
     d="m 10.010014,12.41374 c 0.03698,0.0018 0.08084,-0.0083 0.110386,0.02041 0.05604,0.04973 0.06213,0.131596 0.06202,0.20183 -0.0026,0.05863 -0.0095,0.125721 -0.05401,0.168906 -0.03146,0.02965 -0.07712,0.02875 -0.117376,0.02841 -0.0021,-0.139815 -2.15e-4,-0.279743 -0.001,-0.419558 l 0,0 z"
     display="none"
     inkscape:connector-curvature="0"
     style="display:none;fill:#fcfcfc" />
  <path
     id="path97"
     d="m 7.288369,12.488834 c 0.00474,-0.01161 0.00947,-0.02279 0.014207,-0.03416 0.00992,0.06957 0.02909,0.137334 0.041268,0.206565 0.00259,0.0038 0.00789,0.0115 0.010486,0.01522 -0.034165,0.0052 -0.069333,0.01128 -0.1036097,0.0023 7.893e-4,-0.0054 0.00226,-0.01635 0.00304,-0.02187 l 0.00564,-0.007 c 0.00607,-0.05436 0.022528,-0.106789 0.028967,-0.161024 l 0,0 z"
     display="none"
     inkscape:connector-curvature="0"
     style="display:none;fill:#fcfcfc" />
  <path
     id="path99"
     d="m 10.488993,12.513076 c 0.0032,-0.01769 0.0056,-0.03687 0.01905,-0.04995 0.0089,0.04724 0.01781,0.09471 0.02785,0.141845 0.0062,0.02458 0.01015,0.04984 0.01297,0.07521 -0.02999,-2.26e-4 -0.05998,0.0012 -0.08975,0.0041 0.0045,-0.05807 0.02155,-0.113882 0.02988,-0.171161 l 0,0 z"
     display="none"
     inkscape:connector-curvature="0"
     style="display:none;fill:#fcfcfc" />
  <path
     inkscape:connector-curvature="0"
     d="m 3.1573272,5.6793203 1.0971304,0.00461 0.049908,-0.1167634 4.5421722,0.019094 -0.1273991,0.3685271 C 9.9176558,5.4421365 11.284783,5.4119825 11.623824,6.034173 13.070206,5.3341716 15.183914,5.3117887 14.314243,6.8500112 L 11.903796,6.8398831 C 12.144052,6.4405562 11.56381,6.4427489 11.37762,6.8376705 10.577355,6.8343049 9.7770897,6.8309393 8.9810706,6.8275944 9.1489815,6.4642516 8.6999325,6.3905593 8.4274851,6.8252623 l -5.6663298,-0.023819 0.054707,-0.1565031 1.0793723,0.00454 0.045256,-0.1125362 2.1583625,0.00907 0.073464,-0.2112443 -3.2423906,-0.009 L 2.9846727,6.16 l 1.0882552,0.00457 0.032112,-0.1083436 2.1583625,0.00907 0.081973,-0.2154563 -3.2423868,-0.00861 0.05434,-0.1619153"
     id="path242"
     style="fill:#ed1c2e;fill-opacity:1" />
  <polyline
     points="16.662,670.127 16.662,672.853 16.964,672.981 16.964,684.863 8.754,681.986 8.754,667.367   9.162,667.506 9.138,670.163 9.5,670.337 9.511,676.045 10.024,676.22 10.036,667.821 10.431,667.96 10.42,670.652 10.722,670.756   10.722,676.453 11.235,676.639 11.235,668.241 11.655,668.392 11.655,671.094 11.98,671.21 11.957,676.883 12.504,677.082   12.516,668.683 12.877,668.811 12.877,671.548 13.226,671.676 13.214,677.315 13.739,677.513 13.739,669.114 14.158,669.253   14.158,671.933 14.449,672.049 14.449,677.746 14.985,677.944 14.985,669.545 15.405,669.696 15.405,672.387 15.697,672.469   15.697,678.177 16.244,678.375 16.244,669.988 16.662,670.127 "
     id="polyline244"
     transform="matrix(0.00162287,-0.38604236,0.38604236,0.00162287,-256.16368,12.703157)"
     style="fill:#ed1c2e;fill-opacity:1" />
  <polyline
     points="16.954,686.273 16.954,692.504 8.812,689.616 8.812,683.349 16.954,686.273 "
     id="polyline246"
     transform="matrix(0.00162287,-0.38604236,0.38604236,0.00162287,-256.16368,12.703157)"
     style="fill:#ed1c2e;fill-opacity:1" />
  <polyline
     points="16.954,693.868 16.954,700.1 8.812,697.21 8.812,690.944 16.954,693.868 "
     id="polyline248"
     transform="matrix(0.00162287,-0.38604236,0.38604236,0.00162287,-256.16368,12.703157)"
     style="fill:#ed1c2e;fill-opacity:1" />
</svg>
