<?xml version="1.0" encoding="UTF-8" standalone="no"?>
<svg
   xmlns:dc="http://purl.org/dc/elements/1.1/"
   xmlns:cc="http://creativecommons.org/ns#"
   xmlns:rdf="http://www.w3.org/1999/02/22-rdf-syntax-ns#"
   xmlns:svg="http://www.w3.org/2000/svg"
   xmlns="http://www.w3.org/2000/svg"
   xmlns:sodipodi="http://sodipodi.sourceforge.net/DTD/sodipodi-0.dtd"
   xmlns:inkscape="http://www.inkscape.org/namespaces/inkscape"
   width="16"
   height="16"
   id="svg2"
   version="1.1"
   inkscape:version="0.91 r"
   sodipodi:docname="subway_singapore.svg">
  <defs
     id="defs13">
    <sodipodi:namedview
       inkscape:current-layer="svg2"
       inkscape:window-maximized="1"
       inkscape:window-y="-8"
       inkscape:window-x="-8"
       inkscape:cy="65"
       inkscape:cx="77.5"
       inkscape:zoom="1.8153846"
       showgrid="false"
       id="namedview8-4"
       inkscape:window-height="837"
       inkscape:window-width="1440"
       inkscape:pageshadow="2"
       inkscape:pageopacity="0"
       guidetolerance="10"
       gridtolerance="10"
       objecttolerance="10"
       borderopacity="1"
       bordercolor="#666666"
       pagecolor="#ffffff" />
    <sodipodi:namedview
       inkscape:current-layer="svg2"
       inkscape:window-maximized="1"
       inkscape:window-y="-8"
       inkscape:window-x="-8"
       inkscape:cy="65"
       inkscape:cx="77.5"
       inkscape:zoom="1.8153846"
       showgrid="false"
       id="namedview8-1"
       inkscape:window-height="837"
       inkscape:window-width="1440"
       inkscape:pageshadow="2"
       inkscape:pageopacity="0"
       guidetolerance="10"
       gridtolerance="10"
       objecttolerance="10"
       borderopacity="1"
       bordercolor="#666666"
       pagecolor="#ffffff" />
  </defs>
  <sodipodi:namedview
     pagecolor="#ffffff"
     bordercolor="#666666"
     borderopacity="1"
     objecttolerance="10"
     gridtolerance="10"
     guidetolerance="10"
     inkscape:pageopacity="0"
     inkscape:pageshadow="2"
     inkscape:window-width="1920"
     inkscape:window-height="1004"
     id="namedview11"
     showgrid="true"
     inkscape:zoom="36.828073"
     inkscape:cx="6.0781124"
     inkscape:cy="10.00237"
     inkscape:window-x="1680"
     inkscape:window-y="0"
     inkscape:window-maximized="1"
     inkscape:current-layer="svg2"
     showguides="false">
    <sodipodi:guide
       position="0,0"
       orientation="0,580"
       id="guide2989" />
    <sodipodi:guide
       position="580,0"
       orientation="-580,0"
       id="guide2991" />
    <sodipodi:guide
       position="580,580"
       orientation="0,-580"
       id="guide2993" />
    <sodipodi:guide
       position="0,580"
       orientation="580,0"
       id="guide2995" />
    <sodipodi:guide
       position="0,0"
       orientation="0,580"
       id="guide2997" />
    <sodipodi:guide
       position="580,0"
       orientation="-580,0"
       id="guide2999" />
    <sodipodi:guide
       position="580,580"
       orientation="0,-580"
       id="guide3001" />
    <sodipodi:guide
       position="0,580"
       orientation="580,0"
       id="guide3003" />
    <inkscape:grid
       type="xygrid"
       id="grid3013"
       empspacing="5"
       visible="true"
       enabled="true"
       snapvisiblegridlinesonly="true" />
  </sodipodi:namedview>
  <metadata
     id="metadata2975">image/svg+xmlen<rdf:RDF>
  <cc:Work
     rdf:about="">
    <dc:format>image/svg+xml</dc:format>
    <dc:type
       rdf:resource="http://purl.org/dc/dcmitype/StillImage" />
    <dc:title />
  </cc:Work>
</rdf:RDF>
</metadata>
  <path
     sodipodi:type="inkscape:offset"
     inkscape:radius="0.70650518"
     inkscape:original="M 8.0585938 4.5390625 C 6.4850325 4.5093727 5.2684226 5.7268564 4.4667969 6.9589844 C 5.1645079 7.3004175 5.9366677 7.4929326 6.5898438 7.953125 C 7.3469344 8.4133174 7.9554129 9.0831628 8.6679688 9.5878906 C 9.2320757 10.003548 9.9593253 9.8101535 10.597656 9.8398438 C 10.167154 10.389108 9.4559113 10.552739 8.8027344 10.478516 C 7.8229695 10.478516 7.2289619 9.6019971 6.53125 9.0527344 C 5.6405551 8.2362644 4.4664972 7.8500198 3.3085938 7.5976562 C 3.7242514 6.8702554 4.3624661 6.291854 4.7929688 5.5644531 C 4.2437074 5.5347634 3.6805082 5.5488106 3.1757812 5.7714844 C 2.7007437 6.0090031 2.3890881 6.469108 2.0625 6.8847656 C 1.6468422 7.4785623 1.126988 8.0136254 0.68164062 8.6074219 C 1.2902821 8.6668017 1.884719 8.711319 2.4785156 8.8300781 C 3.5176597 9.0824421 4.467513 9.6319792 5.2988281 10.285156 C 5.952005 10.760193 6.6198568 11.32382 7.4511719 11.427734 C 8.1637277 11.50196 8.9358874 11.471513 9.5742188 11.115234 C 10.435223 10.625351 11.117146 9.883269 11.636719 9.0371094 C 11.013232 8.7995909 10.375826 8.6222902 9.796875 8.3105469 C 8.8913358 7.8206647 8.2371782 6.9738701 7.3613281 6.4394531 C 6.8417562 6.1128655 6.2195775 6.1582096 5.640625 6.0839844 C 6.1898872 5.5050326 7.0948643 5.3718505 7.8222656 5.6835938 C 8.7129613 6.0695614 9.3057954 6.8847247 10.107422 7.4042969 C 10.894202 7.9832486 11.84524 8.2214659 12.765625 8.4589844 C 12.335123 9.1566952 11.771521 9.7643983 11.326172 10.447266 C 11.786366 10.447266 12.25973 10.507823 12.705078 10.359375 C 13.239494 10.151546 13.596067 9.6765964 13.9375 9.2460938 C 14.382848 8.6374521 14.873013 8.0734852 15.318359 7.4648438 C 13.967473 7.3163945 12.557123 7.0477193 11.414062 6.2460938 C 10.374919 5.5483827 9.4094817 4.5242175 8.0585938 4.5390625 z "
     style="color:#000000;clip-rule:nonzero;display:inline;overflow:visible;visibility:visible;opacity:1;isolation:auto;mix-blend-mode:normal;color-interpolation:sRGB;color-interpolation-filters:linearRGB;solid-color:#000000;solid-opacity:1;fill:#024d03;fill-opacity:1;fill-rule:nonzero;stroke:#024d03;stroke-width:0.125;stroke-linecap:butt;stroke-linejoin:miter;stroke-miterlimit:4;stroke-dasharray:none;stroke-dashoffset:0;stroke-opacity:1;color-rendering:auto;image-rendering:auto;shape-rendering:auto;text-rendering:auto;enable-background:accumulate"
     id="path4173"
     d="M 8.0625,3.8339844 C 6.9175053,3.8155287 6.0249362,4.3521489 5.2597656,5.0351562 A 0.70657583,0.70657583 0 0 0 4.8320312,4.859375 C 4.2447851,4.8276321 3.5628903,4.8284122 2.890625,5.125 a 0.70657583,0.70657583 0 0 0 -0.03125,0.013672 C 2.1684634,5.4841276 1.8128202,6.0610272 1.5078125,6.4492188 a 0.70657583,0.70657583 0 0 0 -0.023437,0.03125 C 1.1130781,7.0108928 0.59864629,7.5416487 0.1171875,8.1835938 A 0.70657583,0.70657583 0 0 0 0.61328125,9.3105469 C 1.2245334,9.3701814 1.7860762,9.4167229 2.3183594,9.5214844 3.2224806,9.7424307 4.0880629,10.230743 4.8632812,10.839844 a 0.70657583,0.70657583 0 0 0 0.019531,0.01758 c 0.6234569,0.453422 1.383368,1.134347 2.4804687,1.271484 a 0.70657583,0.70657583 0 0 0 0.015625,0.002 c 0.7846724,0.08174 1.7039667,0.06766 2.5390626,-0.398437 a 0.70657583,0.70657583 0 0 0 0.00586,-0.0039 C 10.28059,11.52553 10.574167,11.253919 10.873047,10.988281 a 0.70657583,0.70657583 0 0 0 0.453125,0.166016 c 0.398214,0 0.959049,0.08917 1.601562,-0.125 a 0.70657583,0.70657583 0 0 0 0.0332,-0.01172 c 0.774355,-0.301139 1.196257,-0.912111 1.529296,-1.3320311 a 0.70657583,0.70657583 0 0 0 0.01758,-0.021484 c 0.422281,-0.5771159 0.912446,-1.141082 1.38086,-1.78125 A 0.70657583,0.70657583 0 0 0 15.396484,6.7617188 c -1.311953,-0.144171 -2.596023,-0.4063746 -3.576172,-1.09375 a 0.70657583,0.70657583 0 0 0 -0.01172,-0.00781 C 10.869306,5.0294906 9.7668313,3.8213322 8.0625,3.8339844 Z M 8.2480469,10.15625 c 0.00117,8.66e-4 0.00273,-8.62e-4 0.00391,0 0.00337,0.0024 0.00444,0.0054 0.00781,0.0078 l -0.011719,-0.0078 z"
     transform="matrix(0.78008238,0,0,0.78008238,1.7595752,1.7596408)" />
  <path
     inkscape:connector-curvature="0"
     d="M 5.2442735,7.1885785 C 5.8696077,6.2274172 6.8191885,5.2778361 8.046696,5.3009966 c 1.0538038,-0.01158 1.8065193,0.7874575 2.617137,1.3317297 0.891681,0.6253338 1.991805,0.8337784 3.045608,0.949581 -0.347407,0.4747905 -0.729556,0.9148403 -1.076964,1.389631 -0.266345,0.3358275 -0.544272,0.706396 -0.96116,0.8685195 -0.347409,0.1158019 -0.717976,0.069481 -1.076966,0.069481 C 10.94176,9.3772477 11.38181,8.9024565 11.717638,8.3581846 10.999661,8.1729006 10.258526,7.9876165 9.644772,7.5359865 9.0194372,7.1306773 8.5562276,6.4937632 7.8614117,6.1926765 7.2939787,5.9494911 6.5875832,6.0537134 6.1591134,6.5053435 6.6107441,6.5632452 7.097115,6.5285044 7.5024239,6.7832696 8.1856591,7.2001589 8.695191,7.8602335 9.4015862,8.242382 9.8532153,8.4855675 10.351167,8.6245305 10.837538,8.8098146 10.432228,9.4698887 9.899537,10.048901 9.2278823,10.431051 8.7299312,10.708977 8.1277574,10.732139 7.5719051,10.674236 6.9234109,10.593175 6.4022996,10.153125 5.8927678,9.7825568 5.2442735,9.2730249 4.5031371,8.8445555 3.6925191,8.6476908 3.2293088,8.555049 2.7660985,8.5203083 2.291308,8.4739872 2.6387156,8.010777 3.0440247,7.5938877 3.368272,7.1306773 3.6230376,6.8064301 3.8662228,6.4474422 4.2367913,6.262158 4.63052,6.0884541 5.0705701,6.0768739 5.4990391,6.1000344 5.1632115,6.6674669 4.6652607,7.119097 4.3410135,7.6865296 c 0.90326,0.1968644 1.8180999,0.4979512 2.5129154,1.1348651 0.5442727,0.4284701 1.0074828,1.1117055 1.7717801,1.1117055 0.5095317,0.0579 1.0653835,-0.06948 1.40121,-0.4979516 C 9.5289687,9.4119878 8.9615366,9.5625311 8.5214868,9.2382848 7.9656345,8.8445555 7.4908437,8.3234439 6.9002506,7.9644559 6.3907195,7.6054679 5.7885456,7.4549245 5.2442735,7.1885785 Z"
     id="path6"
     style="fill:#f9ce24;stroke:#f9ce24;stroke-width:0.01447533" />
</svg>
