<?xml version="1.0" encoding="UTF-8" standalone="no"?>
<svg
   xmlns:dc="http://purl.org/dc/elements/1.1/"
   xmlns:cc="http://creativecommons.org/ns#"
   xmlns:rdf="http://www.w3.org/1999/02/22-rdf-syntax-ns#"
   xmlns:svg="http://www.w3.org/2000/svg"
   xmlns="http://www.w3.org/2000/svg"
   xmlns:sodipodi="http://sodipodi.sourceforge.net/DTD/sodipodi-0.dtd"
   xmlns:inkscape="http://www.inkscape.org/namespaces/inkscape"
   width="16"
   height="16"
   id="svg2"
   version="1.1"
   inkscape:version="0.91 r"
   sodipodi:docname="subway_tbilisi.svg">
  <defs
     id="defs13">
    <linearGradient
       gradientTransform="matrix(0.05334924,0,0,0.05334924,3.4540696,4.2364061)"
       x1="87.101639"
       y1="121.69753"
       x2="87.260849"
       y2="1.2385538"
       id="l1"
       gradientUnits="userSpaceOnUse">
      <stop
         style="stop-color:#e92203;stop-opacity:1"
         offset="0"
         id="stop5" />
      <stop
         style="stop-color:#ff0000;stop-opacity:0.64628822"
         offset="1"
         id="stop7" />
    </linearGradient>
    <linearGradient
       gradientTransform="matrix(0.08400469,0,0,0.08400469,0.8422306,2.0814238)"
       x1="87.101639"
       y1="121.69753"
       x2="87.260849"
       y2="1.2385538"
       id="l1-2"
       gradientUnits="userSpaceOnUse">
      <stop
         style="stop-color:#e92203;stop-opacity:1"
         offset="0"
         id="stop5-8" />
      <stop
         style="stop-color:#ff0000;stop-opacity:0.64628822"
         offset="1"
         id="stop7-4" />
    </linearGradient>
  </defs>
  <sodipodi:namedview
     pagecolor="#ffffff"
     bordercolor="#666666"
     borderopacity="1"
     objecttolerance="10"
     gridtolerance="10"
     guidetolerance="10"
     inkscape:pageopacity="0"
     inkscape:pageshadow="2"
     inkscape:window-width="1920"
     inkscape:window-height="1004"
     id="namedview11"
     showgrid="true"
     inkscape:zoom="45.254834"
     inkscape:cx="9.3686152"
     inkscape:cy="9.4272562"
     inkscape:window-x="1680"
     inkscape:window-y="0"
     inkscape:window-maximized="1"
     inkscape:current-layer="svg2"
     showguides="false">
    <sodipodi:guide
       position="0,0"
       orientation="0,580"
       id="guide2989" />
    <sodipodi:guide
       position="580,0"
       orientation="-580,0"
       id="guide2991" />
    <sodipodi:guide
       position="580,580"
       orientation="0,-580"
       id="guide2993" />
    <sodipodi:guide
       position="0,580"
       orientation="580,0"
       id="guide2995" />
    <sodipodi:guide
       position="0,0"
       orientation="0,580"
       id="guide2997" />
    <sodipodi:guide
       position="580,0"
       orientation="-580,0"
       id="guide2999" />
    <sodipodi:guide
       position="580,580"
       orientation="0,-580"
       id="guide3001" />
    <sodipodi:guide
       position="0,580"
       orientation="580,0"
       id="guide3003" />
    <inkscape:grid
       type="xygrid"
       id="grid3013"
       empspacing="5"
       visible="true"
       enabled="true"
       snapvisiblegridlinesonly="true" />
  </sodipodi:namedview>
  <metadata
     id="metadata2975">image/svg+xmlen<rdf:RDF>
  <cc:Work
     rdf:about="">
    <dc:format>image/svg+xml</dc:format>
    <dc:type
       rdf:resource="http://purl.org/dc/dcmitype/StillImage" />
    <dc:title />
  </cc:Work>
</rdf:RDF>
</metadata>
  <path
     style="fill:#fefefe;fill-opacity:1;stroke:none"
     d="M 9.0180645,3.8421299 C 8.3335948,3.6921325 7.42551,3.7187757 6.745014,3.8988355 5.336907,4.2714228 4.1506739,5.2499229 3.5212396,6.5591732 3.1545909,7.3218181 3.049843,7.8201365 3.0519102,8.8093002 c 0.00138,0.6591453 -0.00727,0.8553527 0.1375413,1.5117478 0.087547,0.396838 0.2428418,0.769599 0.4102108,1.079819 0.083684,0.15511 0.1679667,0.293269 0.2654305,0.41745 0.097464,0.124181 0.1235714,0.275613 0.5175895,0.371603 0.1386208,0.03378 0.1715946,0.02542 0.2461266,0.02895 0.074532,0.0035 0.1601206,0.006 0.261811,0.0072 0.2033806,0.0024 0.4691694,8.69e-4 0.787846,-0.0012 0.6351359,-0.004 1.4803443,-0.01244 2.4190373,-0.01086 0,0 0.839552,0.0133 1.7084077,0.01448 0.4344281,5.88e-4 0.8754961,-0.002 1.2294251,-0.01086 0.176966,-0.0045 0.331063,-0.01036 0.459678,-0.0193 0.06431,-0.0045 0.122045,-0.0089 0.180975,-0.01689 0.05893,-0.008 0.09026,0.0063 0.254572,-0.06877 0.301545,-0.137793 0.368667,-0.307818 0.4452,-0.4452 0.07653,-0.137382 0.130294,-0.273031 0.179768,-0.409005 0.09895,-0.271946 0.174781,-0.551938 0.219584,-0.697358 C 12.913361,10.112484 12.909088,9.701408 12.94161,8.8600335 12.977547,7.9371278 12.831232,7.3231364 12.528986,6.668965 11.863305,5.228186 10.564961,4.1811226 9.0180645,3.8421299 Z"
     id="path4328"
     inkscape:connector-curvature="0"
     sodipodi:nodetypes="ssssssscccccsccssssccss" />
  <path
     inkscape:connector-curvature="0"
     d="M 4.4369811,11.666206 C 4.262585,11.62372 3.8416018,10.896797 3.697642,10.244251 3.5536822,9.5917039 3.5739,9.5218687 3.5724568,8.831305 3.5703861,7.8404835 3.6293671,7.5540926 3.9899649,6.8040341 4.5516491,5.6357066 5.6196824,4.7548161 6.8783257,4.4217771 7.3880934,4.286892 8.4055554,4.2613959 8.9055968,4.3709769 c 1.3888192,0.3043509 2.5528162,1.2414048 3.1514112,2.536983 0.288119,0.6235964 0.398739,1.0648129 0.364269,1.9500203 -0.03361,0.8694626 -0.03887,1.2447308 -0.142239,1.5802488 -0.105159,0.341314 -0.299295,1.092543 -0.512749,1.190081 -0.216444,0.0989 -3.6557847,0.04464 -3.6557847,0.04464 -1.947784,-0.0034 -3.4991271,0.03575 -3.6735232,-0.0067 z M 11.420352,11.05782 C 11.634995,10.919198 11.877127,9.7649823 11.881835,8.8579802 11.885896,8.0804608 11.807071,7.7121126 11.499511,7.0707804 11.095411,6.2281427 10.532229,5.6584612 9.7015331,5.2520524 9.1223723,4.9687039 8.6459628,4.8586396 7.9986595,4.8586396 c -0.6246481,0 -1.0954203,0.1035119 -1.6396403,0.3605197 -0.863242,0.4076654 -1.4517673,0.9804432 -1.85504,1.8054037 -0.3150167,0.6444182 -0.3937091,1.0004546 -0.3934376,1.7800674 3.361e-4,0.962113 0.1982378,1.9841926 0.4288465,2.2148016 0.068401,0.0684 0.5393754,0.07911 3.4497447,0.0784 1.8537907,-4.26e-4 3.3978392,-0.01845 3.4312192,-0.04001 z M 4.7977053,10.267962 4.7933419,9.6481337 c 0.060876,0 0.3631745,0 0.358589,0 0.4986335,-1.2644162 1.4568407,-3.8201319 1.464575,-3.8239472 -0.010346,0.011598 1.4328867,2.4890706 1.4275767,2.4863166 -0.00491,-0.0021 1.3170788,-2.4896955 1.317394,-2.4921962 0.00391,2.721e-4 1.4426784,3.8378903 1.4436724,3.8298268 0.0451,0.012721 0.160678,0 0.413374,0 -0.0055,0.00738 0.0031,0.6124493 0.0031,0.6198283 l -1.6013339,0.01091 c 0.00675,-0.01263 -0.00993,-0.5898851 -0.014192,-0.5971891 0.00552,0 0.2067706,-0.00583 0.2067706,-0.00583 0.00453,0.0018 -0.5923302,-1.8685937 -0.5920743,-1.8686697 -0.5115237,0.7507978 -1.1579087,2.461981 -1.1393082,2.460806 0.00227,0.01139 -1.1498168,-2.4055755 -1.157774,-2.4085048 0.00659,0.00157 -0.7649335,1.782069 -0.7590173,1.7886773 0,0 0.1893323,0 0.1893323,0 l 0,0.6198275 -1.5562733,0 z"
     style="fill:url(#l1);fill-opacity:1"
     id="path9" />
</svg>
