<?xml version="1.0" encoding="UTF-8" standalone="no"?>
<svg
   xmlns:dc="http://purl.org/dc/elements/1.1/"
   xmlns:cc="http://creativecommons.org/ns#"
   xmlns:rdf="http://www.w3.org/1999/02/22-rdf-syntax-ns#"
   xmlns:svg="http://www.w3.org/2000/svg"
   xmlns="http://www.w3.org/2000/svg"
   xmlns:sodipodi="http://sodipodi.sourceforge.net/DTD/sodipodi-0.dtd"
   xmlns:inkscape="http://www.inkscape.org/namespaces/inkscape"
   width="16"
   height="16"
   id="svg2"
   version="1.1"
   inkscape:version="0.91 r"
   sodipodi:docname="subway_yekaterinburg.svg">
  <defs
     id="defs13" />
  <sodipodi:namedview
     pagecolor="#ffffff"
     bordercolor="#666666"
     borderopacity="1"
     objecttolerance="10"
     gridtolerance="10"
     guidetolerance="10"
     inkscape:pageopacity="0"
     inkscape:pageshadow="2"
     inkscape:window-width="1920"
     inkscape:window-height="1004"
     id="namedview11"
     showgrid="true"
     inkscape:zoom="26.04138"
     inkscape:cx="11.778327"
     inkscape:cy="7.6358245"
     inkscape:window-x="1680"
     inkscape:window-y="0"
     inkscape:window-maximized="1"
     inkscape:current-layer="svg2"
     showguides="false"
     inkscape:snap-global="false">
    <sodipodi:guide
       position="0,0"
       orientation="0,580"
       id="guide2989" />
    <sodipodi:guide
       position="580,0"
       orientation="-580,0"
       id="guide2991" />
    <sodipodi:guide
       position="580,580"
       orientation="0,-580"
       id="guide2993" />
    <sodipodi:guide
       position="0,580"
       orientation="580,0"
       id="guide2995" />
    <sodipodi:guide
       position="0,0"
       orientation="0,580"
       id="guide2997" />
    <sodipodi:guide
       position="580,0"
       orientation="-580,0"
       id="guide2999" />
    <sodipodi:guide
       position="580,580"
       orientation="0,-580"
       id="guide3001" />
    <sodipodi:guide
       position="0,580"
       orientation="580,0"
       id="guide3003" />
    <inkscape:grid
       type="xygrid"
       id="grid3013"
       empspacing="5"
       visible="true"
       enabled="true"
       snapvisiblegridlinesonly="true" />
  </sodipodi:namedview>
  <metadata
     id="metadata2975">image/svg+xmlen<rdf:RDF>
  <cc:Work
     rdf:about="">
    <dc:format>image/svg+xml</dc:format>
    <dc:type
       rdf:resource="http://purl.org/dc/dcmitype/StillImage" />
    <dc:title />
  </cc:Work>
</rdf:RDF>
</metadata>
  <path
     inkscape:connector-curvature="0"
     style="fill:#fefefe;fill-opacity:1;stroke:#1d71b9;stroke-width:0.26208392;stroke-miterlimit:10;stroke-dasharray:none"
     stroke-miterlimit="10"
     d="m 7.9999999,11.583671 2.9942651,0 c 0,0 1.756385,-1.5956872 1.144977,-4.1229224 0,0 -0.811025,-3.0444838 -4.1392421,-3.0444838 -3.3282174,0 -4.1392427,3.0432284 -4.1392427,3.0432284 -0.6114077,2.5272359 1.144977,4.1229218 1.144977,4.1229218 0,0 2.9942657,0.0013 2.9942657,0.0013 z"
     id="path11" />
  <polygon
     transform="matrix(0.01255457,0,0,0.01255457,3.6084103,4.3095509)"
     style="fill:#22af22"
     points="288.6,476.6 288.6,507.6 162.7,507.6 162.7,351.6 "
     id="polygon3" />
  <polygon
     transform="matrix(0.01255457,0,0,0.01255457,3.6084103,4.3095509)"
     style="fill:#1ca51c"
     points="349.5,507.6 536.6,317.2 536.6,154.4 349.5,339 162.7,154.4 162.7,317.2 "
     id="polygon5" />
  <polygon
     transform="matrix(0.01255457,0,0,0.01255457,3.6084103,4.3095509)"
     style="fill:#1ca51c"
     points="410.8,476.6 410.8,507.6 536.6,507.6 536.6,351.6 "
     id="polygon7" />
  <path
     inkscape:connector-curvature="0"
     style="fill:none;stroke:#1d71b9;stroke-width:0.18831858;stroke-miterlimit:10"
     stroke-miterlimit="10"
     d="m 8.0037661,11.11413 2.7332269,0 c 0,0 1.50054,-1.496718 0.899082,-3.5805648 0,0 -0.865281,-2.6683876 -3.6348195,-2.6683876 -2.7695391,0 -3.6360748,2.6683876 -3.6360748,2.6683876 -0.5268068,2.098777 0.8530349,3.5805648 0.8530349,3.5805648 z"
     id="path9"
     sodipodi:nodetypes="cccsccc" />
</svg>
