<?xml version="1.0" encoding="UTF-8" standalone="no"?>
<svg
   xmlns:dc="http://purl.org/dc/elements/1.1/"
   xmlns:cc="http://creativecommons.org/ns#"
   xmlns:rdf="http://www.w3.org/1999/02/22-rdf-syntax-ns#"
   xmlns:svg="http://www.w3.org/2000/svg"
   xmlns="http://www.w3.org/2000/svg"
   xmlns:sodipodi="http://sodipodi.sourceforge.net/DTD/sodipodi-0.dtd"
   xmlns:inkscape="http://www.inkscape.org/namespaces/inkscape"
   width="16"
   height="16"
   id="svg2"
   version="1.1"
   inkscape:version="0.91 r"
   sodipodi:docname="subway_delhi.svg">
  <defs
     id="defs13">
    <sodipodi:namedview
       inkscape:current-layer="svg2"
       inkscape:window-maximized="1"
       inkscape:window-y="-8"
       inkscape:window-x="-8"
       inkscape:cy="65"
       inkscape:cx="77.5"
       inkscape:zoom="1.8153846"
       showgrid="false"
       id="namedview8-4"
       inkscape:window-height="837"
       inkscape:window-width="1440"
       inkscape:pageshadow="2"
       inkscape:pageopacity="0"
       guidetolerance="10"
       gridtolerance="10"
       objecttolerance="10"
       borderopacity="1"
       bordercolor="#666666"
       pagecolor="#ffffff" />
    <sodipodi:namedview
       inkscape:current-layer="svg2"
       inkscape:window-maximized="1"
       inkscape:window-y="-8"
       inkscape:window-x="-8"
       inkscape:cy="65"
       inkscape:cx="77.5"
       inkscape:zoom="1.8153846"
       showgrid="false"
       id="namedview8-1"
       inkscape:window-height="837"
       inkscape:window-width="1440"
       inkscape:pageshadow="2"
       inkscape:pageopacity="0"
       guidetolerance="10"
       gridtolerance="10"
       objecttolerance="10"
       borderopacity="1"
       bordercolor="#666666"
       pagecolor="#ffffff" />
  </defs>
  <sodipodi:namedview
     pagecolor="#ffffff"
     bordercolor="#666666"
     borderopacity="1"
     objecttolerance="10"
     gridtolerance="10"
     guidetolerance="10"
     inkscape:pageopacity="0"
     inkscape:pageshadow="2"
     inkscape:window-width="1920"
     inkscape:window-height="1004"
     id="namedview11"
     showgrid="true"
     inkscape:zoom="52.08276"
     inkscape:cx="6.9791092"
     inkscape:cy="8.9897705"
     inkscape:window-x="1680"
     inkscape:window-y="0"
     inkscape:window-maximized="1"
     inkscape:current-layer="svg2"
     showguides="false">
    <sodipodi:guide
       position="0,0"
       orientation="0,580"
       id="guide2989" />
    <sodipodi:guide
       position="580,0"
       orientation="-580,0"
       id="guide2991" />
    <sodipodi:guide
       position="580,580"
       orientation="0,-580"
       id="guide2993" />
    <sodipodi:guide
       position="0,580"
       orientation="580,0"
       id="guide2995" />
    <sodipodi:guide
       position="0,0"
       orientation="0,580"
       id="guide2997" />
    <sodipodi:guide
       position="580,0"
       orientation="-580,0"
       id="guide2999" />
    <sodipodi:guide
       position="580,580"
       orientation="0,-580"
       id="guide3001" />
    <sodipodi:guide
       position="0,580"
       orientation="580,0"
       id="guide3003" />
    <inkscape:grid
       type="xygrid"
       id="grid3013"
       empspacing="5"
       visible="true"
       enabled="true"
       snapvisiblegridlinesonly="true" />
  </sodipodi:namedview>
  <metadata
     id="metadata2975">image/svg+xmlen<rdf:RDF>
  <cc:Work
     rdf:about="">
    <dc:format>image/svg+xml</dc:format>
    <dc:type
       rdf:resource="http://purl.org/dc/dcmitype/StillImage" />
    <dc:title />
  </cc:Work>
</rdf:RDF>
</metadata>
  <path
     style="fill:#fefefe;fill-opacity:1;stroke:none"
     d="M 7.7113358,3.757648 C 6.6840611,3.8243705 5.7001016,4.2762957 4.9783778,5.0091314 l -0.00103,0.00103 -0.00103,0.00103 C 4.2091155,5.7810498 3.7617476,6.8425457 3.7486536,7.9306374 3.7295347,8.8722181 4.0327446,9.8086615 4.6023146,10.55896 5.1856742,11.335338 6.0340083,11.897858 6.9799259,12.127459 7.91329,12.35943 8.9179529,12.267772 9.7916194,11.8581 10.755502,11.414588 11.530213,10.605683 11.931987,9.6234555 l 0,-0.00106 C 12.308546,8.7184316 12.354891,7.6946864 12.069772,6.761001 11.764955,5.7460234 11.06988,4.8717046 10.159395,4.3367699 l 0.0021,0 C 9.4263859,3.9004258 8.5640372,3.6994066 7.7134079,3.757648 Z"
     id="path4178"
     inkscape:connector-curvature="0"
     sodipodi:nodetypes="ccccccccccccccc" />
  <g
     id="#ffffffff"
     transform="matrix(0.05222847,0,0,0.05222847,0.62499569,3.8063329)" />
  <g
     id="#c0282cff"
     transform="matrix(0.03402767,0,0,0.03402767,4.2341248,4.2294613)">
    <path
       inkscape:connector-curvature="0"
       d="m 103.3,2.2 c 21.75,-1.5 43.92,3.69 62.67,14.82 23.25,13.66 41.16,36.21 48.91,62.07 7.28,23.84 6.09,50.22 -3.51,73.25 -10.23,25.05 -30.23,45.9 -54.81,57.21 -22.26,10.46 -48.14,12.88 -72,6.95 C 60.44,210.66 38.61,196.14 23.71,176.31 9.17,157.17 1.31,133.06 1.81,109.03 2.13,81.28 13.68,53.9 33.27,34.27 51.69,15.54 77.08,3.89 103.3,2.2 M 79.9,26.94 c -20.48,7.4 -37.86,22.73 -48.12,41.9 52.6,-0.02 105.19,-0.02 157.79,0 C 179.61,49.95 162.58,34.94 142.62,27.35 122.68,19.67 99.93,19.51 79.9,26.94 M 24.84,86.05 c -4.42,14.87 -4.7,30.88 -0.99,45.93 15.92,-0.16 31.88,0.3 47.78,-0.22 16.34,-15.08 32.56,-30.34 48.66,-45.69 -31.81,0.05 -63.63,0.09 -95.45,-0.02 m 117.46,1.24 c -15.76,14.96 -31.7,29.75 -47.49,44.68 34.31,-0.04 68.62,0.11 102.94,-0.07 3.32,-15.07 3.15,-30.87 -1.05,-45.75 -16.59,-0.12 -33.17,0.03 -49.76,-0.07 -1.6,0.09 -3.54,-0.27 -4.64,1.21 M 29.92,149.21 c 11.41,23.93 33.79,42.33 59.64,48.45 17.4,4.2 36.08,3.12 52.82,-3.28 21.31,-8.01 39.27,-24.55 48.99,-45.15 -53.82,0 -107.64,0.04 -161.45,-0.02 z"
       id="path6"
       style="fill:#c0282c" />
  </g>
</svg>
