<?xml version="1.0" encoding="UTF-8" standalone="no"?>
<svg
   xmlns:dc="http://purl.org/dc/elements/1.1/"
   xmlns:cc="http://creativecommons.org/ns#"
   xmlns:rdf="http://www.w3.org/1999/02/22-rdf-syntax-ns#"
   xmlns:svg="http://www.w3.org/2000/svg"
   xmlns="http://www.w3.org/2000/svg"
   xmlns:sodipodi="http://sodipodi.sourceforge.net/DTD/sodipodi-0.dtd"
   xmlns:inkscape="http://www.inkscape.org/namespaces/inkscape"
   width="16"
   height="16"
   id="svg2"
   version="1.1"
   inkscape:version="0.91 r"
   sodipodi:docname="subway_bucharest.svg">
  <defs
     id="defs13">
    <linearGradient
       gradientTransform="matrix(0.08596979,0,0,0.08596979,0.67480439,1.9432845)"
       x1="87.101639"
       y1="121.69753"
       x2="87.260849"
       y2="1.2385538"
       id="l1"
       gradientUnits="userSpaceOnUse">
      <stop
         style="stop-color:#e92203;stop-opacity:1"
         offset="0"
         id="stop5" />
      <stop
         style="stop-color:#ff0000;stop-opacity:0.64628822"
         offset="1"
         id="stop7" />
    </linearGradient>
    <linearGradient
       gradientTransform="matrix(0.08400469,0,0,0.08400469,0.8422306,2.0814238)"
       x1="87.101639"
       y1="121.69753"
       x2="87.260849"
       y2="1.2385538"
       id="l1-2"
       gradientUnits="userSpaceOnUse">
      <stop
         style="stop-color:#e92203;stop-opacity:1"
         offset="0"
         id="stop5-8" />
      <stop
         style="stop-color:#ff0000;stop-opacity:0.64628822"
         offset="1"
         id="stop7-4" />
    </linearGradient>
    <circle
       style="color:#000000;clip-rule:nonzero;display:inline;overflow:visible;visibility:visible;opacity:1;isolation:auto;mix-blend-mode:normal;color-interpolation:sRGB;color-interpolation-filters:linearRGB;solid-color:#000000;solid-opacity:1;fill:#fefefe;fill-opacity:1;fill-rule:nonzero;stroke:#000000;stroke-width:0.80460608;stroke-linecap:butt;stroke-linejoin:miter;stroke-miterlimit:4;stroke-dasharray:none;stroke-dashoffset:0;stroke-opacity:1;marker:none;color-rendering:auto;image-rendering:auto;shape-rendering:auto;text-rendering:auto;enable-background:accumulate"
       id="path4190-2-4"
       cx="81.849327"
       cy="-11.13693"
       r="13.475942"
       transform="matrix(0,1,1,0,0,0)" />
  </defs>
  <sodipodi:namedview
     pagecolor="#ffffff"
     bordercolor="#666666"
     borderopacity="1"
     objecttolerance="10"
     gridtolerance="10"
     guidetolerance="10"
     inkscape:pageopacity="0"
     inkscape:pageshadow="2"
     inkscape:window-width="1908"
     inkscape:window-height="998"
     id="namedview11"
     showgrid="true"
     inkscape:zoom="45.254834"
     inkscape:cx="10.59454"
     inkscape:cy="9.2051068"
     inkscape:window-x="1680"
     inkscape:window-y="0"
     inkscape:window-maximized="0"
     inkscape:current-layer="svg2"
     showguides="false"
     inkscape:snap-global="false">
    <sodipodi:guide
       position="0,0"
       orientation="0,580"
       id="guide2989" />
    <sodipodi:guide
       position="580,0"
       orientation="-580,0"
       id="guide2991" />
    <sodipodi:guide
       position="580,580"
       orientation="0,-580"
       id="guide2993" />
    <sodipodi:guide
       position="0,580"
       orientation="580,0"
       id="guide2995" />
    <sodipodi:guide
       position="0,0"
       orientation="0,580"
       id="guide2997" />
    <sodipodi:guide
       position="580,0"
       orientation="-580,0"
       id="guide2999" />
    <sodipodi:guide
       position="580,580"
       orientation="0,-580"
       id="guide3001" />
    <sodipodi:guide
       position="0,580"
       orientation="580,0"
       id="guide3003" />
    <inkscape:grid
       type="xygrid"
       id="grid3013"
       empspacing="5"
       visible="true"
       enabled="true"
       snapvisiblegridlinesonly="true" />
  </sodipodi:namedview>
  <metadata
     id="metadata2975">image/svg+xmlen<rdf:RDF>
  <cc:Work
     rdf:about="">
    <dc:format>image/svg+xml</dc:format>
    <dc:type
       rdf:resource="http://purl.org/dc/dcmitype/StillImage" />
    <dc:title />
  </cc:Work>
</rdf:RDF>
</metadata>
  <path
     sodipodi:type="inkscape:offset"
     inkscape:radius="0.619753"
     inkscape:original="M 8.1679688 4.7832031 A 3.2172428 3.2172428 0 0 0 6.2773438 5.4023438 L 5.8730469 5.0019531 L 2.5039062 5.0019531 L 4.8496094 7.1601562 L 5.0664062 7.1601562 A 3.2172428 3.2172428 0 0 0 4.9492188 8 A 3.2172428 3.2172428 0 0 0 8.1679688 11.216797 A 3.2172428 3.2172428 0 0 0 11.384766 8 A 3.2172428 3.2172428 0 0 0 11.271484 7.1503906 L 11.464844 7.1503906 L 13.876953 5.0019531 L 10.507812 5.0019531 L 10.078125 5.4160156 A 3.2172428 3.2172428 0 0 0 8.1679688 4.7832031 z "
     style="color:#000000;clip-rule:nonzero;display:inline;overflow:visible;visibility:visible;opacity:0.63500001;isolation:auto;mix-blend-mode:normal;color-interpolation:sRGB;color-interpolation-filters:linearRGB;solid-color:#000000;solid-opacity:1;fill:#fefefe;fill-opacity:1;fill-rule:nonzero;stroke:none;stroke-width:0.18312372;stroke-linecap:butt;stroke-linejoin:miter;stroke-miterlimit:4;stroke-dasharray:none;stroke-dashoffset:0;stroke-opacity:1;marker:none;color-rendering:auto;image-rendering:auto;shape-rendering:auto;text-rendering:auto;enable-background:accumulate"
     id="path4482"
     d="M 8.1660156,4.1640625 C 7.5457089,4.1653905 6.9489389,4.363135 6.4003906,4.6523438 L 6.3085938,4.5625 A 0.61981498,0.61981498 0 0 0 5.8730469,4.3828125 l -3.3691407,0 A 0.61981498,0.61981498 0 0 0 2.0839844,5.4589844 L 4.3886719,7.578125 c -0.016444,0.1401092 -0.057681,0.2769003 -0.058594,0.4179688 a 0.61981498,0.61981498 0 0 0 0,0.00391 c 1.391e-4,1.0047342 0.4143301,2.002652 1.125,2.712891 0.71067,0.710238 1.7081566,1.123517 2.7128907,1.123047 C 9.1723147,11.835798 10.17068,11.42307 10.880859,10.712891 11.591039,10.002711 12.003767,9.004346 12.003906,8 12.004065,7.8489554 11.962958,7.7027444 11.945312,7.5527344 l 2.34375,-2.0878906 A 0.61981498,0.61981498 0 0 0 13.876953,4.3828125 l -3.369141,0 A 0.61981498,0.61981498 0 0 0 10.078125,4.5566406 L 9.9628906,4.6679688 C 9.4072726,4.369341 8.8009105,4.1652262 8.1699219,4.1640625 a 0.61981498,0.61981498 0 0 0 -0.00391,0 z" />
  <circle
     style="color:#000000;clip-rule:nonzero;display:inline;overflow:visible;visibility:visible;opacity:1;isolation:auto;mix-blend-mode:normal;color-interpolation:sRGB;color-interpolation-filters:linearRGB;solid-color:#000000;solid-opacity:1;fill:#fefefe;fill-opacity:1;fill-rule:nonzero;stroke:#000000;stroke-width:0.19209144;stroke-linecap:butt;stroke-linejoin:miter;stroke-miterlimit:4;stroke-dasharray:none;stroke-dashoffset:0;stroke-opacity:1;marker:none;color-rendering:auto;image-rendering:auto;shape-rendering:auto;text-rendering:auto;enable-background:accumulate"
     id="path4190"
     cx="8.168189"
     cy="8"
     r="3.217243" />
  <circle
     style="color:#000000;clip-rule:nonzero;display:inline;overflow:visible;visibility:visible;opacity:1;isolation:auto;mix-blend-mode:normal;color-interpolation:sRGB;color-interpolation-filters:linearRGB;solid-color:#000000;solid-opacity:1;fill:#0000ff;fill-opacity:1;fill-rule:nonzero;stroke:#000000;stroke-width:0.16479357;stroke-linecap:butt;stroke-linejoin:miter;stroke-miterlimit:4;stroke-dasharray:none;stroke-dashoffset:0;stroke-opacity:1;marker:none;color-rendering:auto;image-rendering:auto;shape-rendering:auto;text-rendering:auto;enable-background:accumulate"
     id="path4190-4"
     cx="8.168189"
     cy="8"
     r="2.0682158" />
  <path
     style="fill:#ff0000;fill-opacity:1;fill-rule:evenodd;stroke:#000000;stroke-width:0.18869494;stroke-linecap:butt;stroke-linejoin:miter;stroke-miterlimit:4;stroke-dasharray:none;stroke-opacity:1"
     d="m 4.8601924,7.1383884 6.6046596,0 -3.3468056,3.0799506 z"
     id="path4194"
     inkscape:connector-curvature="0" />
  <path
     style="fill:#cccccc;fill-opacity:1;fill-rule:evenodd;stroke:#000000;stroke-width:0.18869494;stroke-linecap:butt;stroke-linejoin:miter;stroke-miterlimit:4;stroke-dasharray:none;stroke-opacity:1"
     d="m 8.1625223,7.2495779 2.3460997,-2.246029 3.369044,0 -2.412814,2.1459585 -6.6157786,0.011119 -2.3460997,-2.1570776 3.3690437,0 z"
     id="path4211"
     inkscape:connector-curvature="0"
     sodipodi:nodetypes="cccccccc" />
  <path
     style="fill:#ffff00;fill-opacity:1;fill-rule:evenodd;stroke:#000000;stroke-width:0.18869494;stroke-linecap:butt;stroke-linejoin:miter;stroke-miterlimit:4;stroke-dasharray:none;stroke-opacity:1"
     d="M 5.0265302,8.6622583 7.3583734,6.5061651 8.1446023,7.2845316 8.9937296,6.4747159 11.328829,8.6053963 c 0,0 -0.04372,0.2609455 -0.160502,0.5572686 -0.116776,0.2963231 -0.287648,0.5434518 -0.287648,0.5434518 L 8.9937296,7.8663411 8.1760515,8.5660849 7.3347866,7.8663411 5.4242503,9.6746676 c 0,0 -0.1851547,-0.3194583 -0.2528603,-0.4873801 C 5.1036845,9.0193657 5.0265302,8.6622583 5.0265302,8.6622583 Z"
     id="path4192"
     inkscape:connector-curvature="0"
     sodipodi:nodetypes="ccccczccccczc" />
  <path
     style="fill:none;fill-rule:evenodd;stroke:#000000;stroke-width:0.18869494;stroke-linecap:butt;stroke-linejoin:miter;stroke-miterlimit:4.30000019;stroke-dasharray:none;stroke-opacity:1"
     d="m 12.498915,6.2043961 -1.590011,0 -1.0785383,0.9562303"
     id="path4213"
     inkscape:connector-curvature="0" />
  <path
     style="fill:none;fill-rule:evenodd;stroke:#000000;stroke-width:0.18869494;stroke-linecap:butt;stroke-linejoin:miter;stroke-miterlimit:4.30000019;stroke-dasharray:none;stroke-opacity:1"
     d="m 3.8288782,6.204396 1.5900106,0 1.0785388,0.9562304"
     id="path4213-4"
     inkscape:connector-curvature="0" />
  <g
     transform="matrix(0.14229272,0.17227011,-0.16471723,0.14881736,23.270384,-2.4010699)"
     style="font-style:normal;font-weight:normal;font-size:7.57096529px;line-height:125%;font-family:Sans;letter-spacing:0px;word-spacing:0px;writing-mode:lr-tb;fill:#000000;fill-opacity:1;stroke:none;stroke-width:1px;stroke-linecap:butt;stroke-linejoin:miter;stroke-opacity:1"
     id="text4293">
    <path
       d="m -10.575947,93.467202 0.19514,1.854018 -0.489617,0.05153 -0.250453,-2.37954 0.731161,-0.07696 0.6301267,1.847837 0.2185437,-1.937162 0.7376901,-0.07764 0.250453,2.37954 -0.4896173,0.05153 -0.1951403,-1.854018 -0.2259306,1.898336 -0.4896173,0.05153 -0.622739,-1.809012 z"
       style="font-style:normal;font-variant:normal;font-weight:600;font-stretch:normal;font-size:3.28214574px;font-family:FreeSans;-inkscape-font-specification:'FreeSans Semi-Bold';letter-spacing:0.52514333px"
       id="path4427"
       inkscape:connector-curvature="0" />
    <path
       d="m -7.4019936,93.729553 0.2018399,0.58657 1.2259004,-0.421834 0.133492,0.387943 -1.6914321,0.582025 -0.7785255,-2.262485 1.6355683,-0.562802 0.1334921,0.387943 -1.1700366,0.402612 0.1762095,0.512085 1.0831373,-0.37271 0.133492,0.387944 -1.0831373,0.372709 z"
       style="font-style:normal;font-variant:normal;font-weight:600;font-stretch:normal;font-size:3.28214574px;font-family:FreeSans;-inkscape-font-specification:'FreeSans Semi-Bold';letter-spacing:0.52514333px"
       id="path4429"
       inkscape:connector-curvature="0" />
    <path
       d="m -5.106404,91.639337 1.0033141,1.709776 -0.4246132,0.249167 -1.0033142,-1.709776 -0.6255968,0.367107 -0.2076396,-0.353844 1.6531609,-0.970092 0.2076396,0.353844 -0.6029508,0.353818 z"
       style="font-style:normal;font-variant:normal;font-weight:600;font-stretch:normal;font-size:3.28214574px;font-family:FreeSans;-inkscape-font-specification:'FreeSans Semi-Bold';letter-spacing:0.52514333px"
       id="path4431"
       inkscape:connector-curvature="0" />
    <path
       d="m -2.0527038,91.250109 q -0.066066,-0.07301 -0.1010702,-0.116585 -0.035004,-0.04357 -0.063633,-0.07521 -0.1013016,-0.111949 -0.1988866,-0.112174 -0.099787,-0.0027 -0.219037,0.10525 l -0.4185914,0.37878 0.6364387,0.703331 -0.3650507,0.330331 -1.6054108,-1.774146 0.9515652,-0.861064 q 0.1362856,-0.123323 0.2754744,-0.165172 0.1416225,-0.04405 0.2585644,-0.01265 0.1193756,0.0292 0.2117493,0.08725 0.090172,0.05562 0.1650467,0.138368 0.2906917,0.321245 0.097056,0.708933 0.089933,-0.03269 0.1369866,-0.04428 0.044851,-0.01403 0.1095219,-0.0062 0.067104,0.0057 0.1032657,0.02607 0.038595,0.01819 0.1188003,0.08726 0.082639,0.06687 0.1533412,0.140108 0.070702,0.07324 0.2074707,0.219493 0.092493,0.102215 0.21001,0.07555 l 0.05946,0.06571 -0.391821,0.354556 q -0.091329,-0.03244 -0.1563503,-0.07984 -0.062588,-0.0496 -0.1749004,-0.173716 z m -0.7916448,-0.99225 q -0.1233238,-0.136286 -0.226239,-0.122834 -0.1051174,0.01102 -0.2365356,0.129937 l -0.4404944,0.3986 0.4184198,0.462397 0.4404944,-0.3986 q 0.1289846,-0.116717 0.150418,-0.220214 0.023867,-0.1057 -0.1060632,-0.249286 z"
       style="font-style:normal;font-variant:normal;font-weight:600;font-stretch:normal;font-size:3.28214574px;font-family:FreeSans;-inkscape-font-specification:'FreeSans Semi-Bold';letter-spacing:0.52514333px"
       id="path4433"
       inkscape:connector-curvature="0" />
    <path
       d="m -0.82429336,90.132185 q -0.46859404,0.05507 -0.91919414,-0.262736 -0.4506001,-0.317808 -0.5559847,-0.777707 -0.103493,-0.462582 0.1935064,-0.883678 0.298891,-0.423779 0.7693768,-0.481533 0.46780356,-0.05965 0.93449651,0.269512 0.43450723,0.306458 0.54257403,0.768249 0.10727637,0.457217 -0.1953981,0.88636 -0.30078277,0.426461 -0.7693768,0.481533 z M -1.7607598,88.447521 q -0.1721461,0.244075 -0.08844,0.524013 0.081024,0.278047 0.38947,0.495594 0.3084465,0.217547 0.60024093,0.202449 0.28911224,-0.01699 0.46125835,-0.261064 0.1702544,-0.241393 0.0892308,-0.519439 -0.0791318,-0.280729 -0.37953188,-0.492601 -0.316493,-0.223222 -0.6082873,-0.208125 -0.2899026,0.01242 -0.4639405,0.259173 z"
       style="font-style:normal;font-variant:normal;font-weight:600;font-stretch:normal;font-size:3.28214574px;font-family:FreeSans;-inkscape-font-specification:'FreeSans Semi-Bold';letter-spacing:0.52514333px"
       id="path4435"
       inkscape:connector-curvature="0" />
    <path
       d="M 1.1090091,86.43538 Q 1.0180041,86.39779 0.96768727,86.37345 0.91737067,86.34911 0.87793507,86.33282 0.7383936,86.27518 0.65015487,86.31685 0.55888267,86.35727 0.49748001,86.505913 l -0.21553575,0.521764 0.87668444,0.36215 -0.18796723,0.455027 -2.21142887,-0.913521 0.48996786,-1.186102 q 0.0701744,-0.169877 0.17793572,-0.267408 0.1090144,-0.100565 0.22811551,-0.122388 0.12035423,-0.02486 0.22870459,-0.01206 0.10531685,0.01154 0.20845619,0.05415 0.40042334,0.165411 0.3918987,0.598683 0.0672027,-0.06812 0.10472778,-0.09878 0.0344916,-0.03192 0.0962847,-0.05255 0.0630463,-0.02367 0.10446084,-0.02077 0.0426677,-1.3e-4 0.14475248,0.02784 0.10333793,0.02493 0.19862983,0.06074 0.095292,0.03581 0.2815892,0.10922 0.1274074,0.05263 0.2221103,-0.02189 l 0.081905,0.03383 -0.2017515,0.488395 q -0.096415,0.0099 -0.1754846,-0.005 -0.077817,-0.01794 -0.2325258,-0.08185 z m -1.14086013,-0.556507 q -0.16987657,-0.07017 -0.25706074,-0.01386 -0.0902177,0.05506 -0.15788588,0.218872 l -0.22681378,0.549065 0.57636693,0.238092 0.22681378,-0.549066 Q 0.19598438,86.1612 0.17092868,86.05852 0.14712608,85.952806 -0.03185101,85.878872 Z"
       style="font-style:normal;font-variant:normal;font-weight:600;font-stretch:normal;font-size:3.28214574px;font-family:FreeSans;-inkscape-font-specification:'FreeSans Semi-Bold';letter-spacing:0.52514333px"
       id="path4437"
       inkscape:connector-curvature="0" />
    <path
       d="m 1.0405963,84.452346 0.6100199,0.112603 0.2353355,-1.274909 0.4034523,0.07447 -0.3247035,1.759051 -2.35293368,-0.434328 0.31397936,-1.700955 0.40345227,0.07447 -0.22461141,1.216812 0.532557,0.0983 0.20792941,-1.126439 0.40345225,0.07447 -0.2079294,1.126439 z"
       style="font-style:normal;font-variant:normal;font-weight:600;font-stretch:normal;font-size:3.28214574px;font-family:FreeSans;-inkscape-font-specification:'FreeSans Semi-Bold';letter-spacing:0.52514333px"
       id="path4439"
       inkscape:connector-curvature="0" />
    <path
       d="m 1.1111211,81.355568 1.2067184,-0.790207 0.010677,0.584124 -0.8218466,0.4746 0.8385817,0.440966 0.010437,0.570998 -1.2181423,-0.732754 -1.17462224,0.750229 -0.01067686,-0.584125 0.77990567,-0.43444 -0.79562106,-0.425338 -0.01043694,-0.570998 1.18502643,0.716945 z"
       style="font-style:normal;font-variant:normal;font-weight:600;font-stretch:normal;font-size:3.28214574px;font-family:FreeSans;-inkscape-font-specification:'FreeSans Semi-Bold';letter-spacing:0.52514333px"
       id="path4441"
       inkscape:connector-curvature="0" />
  </g>
  <path
     inkscape:connector-curvature="0"
     id="path4399"
     style="font-style:normal;font-weight:normal;font-size:medium;line-height:125%;font-family:Sans;letter-spacing:0px;word-spacing:0px;fill:#000000;fill-opacity:1;stroke:none;stroke-width:1px;stroke-linecap:butt;stroke-linejoin:miter;stroke-opacity:1"
     d="m 6.9064172,5.6168867 0.055473,0.1124291 0.065178,-0.033571 q 0.03279,-0.01689 0.041686,-0.038743 0.009,-0.022163 -0.0051,-0.050731 -0.014198,-0.028775 -0.036782,-0.034156 -0.022486,-0.0057 -0.055276,0.0112 l -0.065178,0.033571 z m -0.062267,-0.1262002 0.045635,0.092492 0.060149,-0.03098 q 0.029773,-0.015335 0.038679,-0.0341 0.00901,-0.019074 -0.00256,-0.042505 -0.011459,-0.023225 -0.031824,-0.027172 -0.020162,-0.00405 -0.049935,0.011285 l -0.060149,0.03098 z m -0.05747,-0.01319 0.1038019,-0.053465 q 0.046469,-0.023934 0.081351,-0.017155 0.03488,0.00679 0.05283,0.04316 0.013894,0.02816 0.00923,0.051438 -0.00467,0.02328 -0.027576,0.04024 0.033219,-0.00885 0.060059,0.00361 0.02694,0.01216 0.042353,0.043401 0.020283,0.041107 0.00399,0.077603 -0.016304,0.036496 -0.066797,0.062503 L 6.9380894,5.7843661 6.786683,5.4774981 Z" />
  <path
     inkscape:connector-curvature="0"
     id="path4401"
     style="font-style:normal;font-weight:normal;font-size:medium;line-height:125%;font-family:Sans;letter-spacing:0px;word-spacing:0px;fill:#000000;fill-opacity:1;stroke:none;stroke-width:1px;stroke-linecap:butt;stroke-linejoin:miter;stroke-opacity:1"
     d="m 7.1105516,5.3200294 0.043325,-0.014963 0.065425,0.1977796 q 0.017312,0.052334 0.043526,0.069037 0.026141,0.016485 0.067758,0.00211 0.041404,-0.014299 0.052397,-0.043607 0.01092,-0.029526 -0.00639,-0.081861 l -0.06543,-0.1977744 0.043325,-0.014961 0.06723,0.2032312 q 0.021063,0.063674 8.655e-4,0.1068506 -0.019985,0.043103 -0.08017,0.063889 -0.060399,0.020858 -0.1020921,-9.435e-4 -0.041481,-0.021879 -0.062545,-0.085554 l -0.06723,-0.2032307 z" />
  <path
     inkscape:connector-curvature="0"
     id="path4403"
     style="font-style:normal;font-weight:normal;font-size:medium;line-height:125%;font-family:Sans;letter-spacing:0px;word-spacing:0px;fill:#000000;fill-opacity:1;stroke:none;stroke-width:1px;stroke-linecap:butt;stroke-linejoin:miter;stroke-opacity:1"
     d="m 7.7369413,5.1815317 0.00872,0.048214 q -0.026481,-0.017243 -0.054102,-0.023038 -0.027399,-0.00583 -0.0562,-4.025e-4 -0.056715,0.010699 -0.080426,0.051912 -0.023752,0.040993 -0.011651,0.1079933 0.01206,0.066774 0.048608,0.096631 0.036507,0.02963 0.093222,0.018937 0.028799,-0.00542 0.052356,-0.020872 0.023777,-0.015486 0.042491,-0.041249 l 0.00862,0.047762 q -0.02054,0.020725 -0.045432,0.033844 -0.024671,0.013078 -0.053914,0.018591 -0.075102,0.01416 -0.126766,-0.02455 -0.051705,-0.038937 -0.066381,-0.1201985 -0.014718,-0.081487 0.020021,-0.1364891 0.034697,-0.055227 0.1098,-0.069387 0.029687,-0.00559 0.0573,-0.00238 0.027795,0.00296 0.053738,0.014678 z" />
  <path
     inkscape:connector-curvature="0"
     id="path4405"
     style="font-style:normal;font-weight:normal;font-size:medium;line-height:125%;font-family:Sans;letter-spacing:0px;word-spacing:0px;fill:#000000;fill-opacity:1;stroke:none;stroke-width:1px;stroke-linecap:butt;stroke-linejoin:miter;stroke-opacity:1"
     d="m 7.8456749,5.1431379 0.045696,-0.00185 0.00802,0.20861 q 0.00213,0.0552 0.022647,0.078792 0.020514,0.023364 0.06441,0.021598 0.043671,-0.00175 0.062326,-0.026692 0.018645,-0.025167 0.01652,-0.080367 l -0.00802,-0.2086101 0.045696,-0.00185 0.00826,0.2143599 q 0.00258,0.067159 -0.028735,0.1027415 -0.031097,0.035573 -0.094576,0.038124 -0.063705,0.00256 -0.097666,-0.030398 -0.033735,-0.032967 -0.036321,-0.1001263 L 7.8456718,5.143118 Z" />
  <path
     inkscape:connector-curvature="0"
     id="path4407"
     style="font-style:normal;font-weight:normal;font-size:medium;line-height:125%;font-family:Sans;letter-spacing:0px;word-spacing:0px;fill:#000000;fill-opacity:1;stroke:none;stroke-width:1px;stroke-linecap:butt;stroke-linejoin:miter;stroke-opacity:1"
     d="m 8.3768907,5.3364073 q 0.014057,0.00658 0.026066,0.024494 0.012232,0.017948 0.023217,0.04826 l 0.036521,0.098254 -0.048629,-0.00512 -0.033959,-0.092199 Q 8.3669864,5.3740066 8.352435,5.3611336 8.3381029,5.3482869 8.3112126,5.3454557 l -0.049302,-0.00518 -0.014568,0.1444776 -0.045267,-0.00476 0.034468,-0.3418463 0.1021886,0.010754 q 0.057368,0.00603 0.083134,0.033509 0.025767,0.02747 0.020779,0.076927 -0.00325,0.032284 -0.020193,0.052022 -0.016713,0.019762 -0.045557,0.025055 z M 8.2779738,5.18091 l -0.012235,0.1213519 0.05692,0.00599 q 0.032717,0.00344 0.050848,-0.010144 0.018377,-0.0138 0.021401,-0.043796 0.00302,-0.029994 -0.012258,-0.046875 -0.015036,-0.017087 -0.047754,-0.02053 l -0.05692,-0.00599 z" />
  <path
     inkscape:connector-curvature="0"
     id="path4409"
     style="font-style:normal;font-weight:normal;font-size:medium;line-height:125%;font-family:Sans;letter-spacing:0px;word-spacing:0px;fill:#000000;fill-opacity:1;stroke:none;stroke-width:1px;stroke-linecap:butt;stroke-linejoin:miter;stroke-opacity:1"
     d="m 8.5984999,5.1863314 0.2068633,0.050412 -0.0089,0.038062 -0.1625981,-0.039626 -0.023101,0.098962 0.155805,0.037971 -0.0089,0.038063 -0.1558048,-0.037971 -0.028277,0.1211282 0.1665424,0.040587 -0.0089,0.038063 -0.2108078,-0.051374 0.078036,-0.3342782 z" />
  <path
     inkscape:connector-curvature="0"
     id="path4411"
     style="font-style:normal;font-weight:normal;font-size:medium;line-height:125%;font-family:Sans;letter-spacing:0px;word-spacing:0px;fill:#000000;fill-opacity:1;stroke:none;stroke-width:1px;stroke-linecap:butt;stroke-linejoin:miter;stroke-opacity:1"
     d="m 9.1063789,5.3568111 -0.015616,0.042446 q -0.019891,-0.021164 -0.03926,-0.035242 -0.019369,-0.014078 -0.039402,-0.021774 -0.034794,-0.013364 -0.058846,-0.00686 -0.023841,0.00659 -0.033195,0.032005 -0.00785,0.021331 5.535e-4,0.037097 0.0087,0.015632 0.041237,0.035755 l 0.023746,0.015268 q 0.04425,0.027569 0.058173,0.05972 0.014214,0.032017 -2.138e-4,0.071229 -0.017201,0.046755 -0.056867,0.059061 -0.039456,0.012387 -0.098711,-0.010364 -0.022354,-0.00858 -0.045755,-0.023475 -0.023192,-0.014808 -0.046459,-0.035302 l 0.016488,-0.044815 q 0.020468,0.024828 0.042578,0.041926 0.022109,0.017097 0.046148,0.02633 0.036481,0.014011 0.061694,0.00698 0.025212,-0.00704 0.0352,-0.034186 0.00872,-0.023701 -7.044e-4,-0.042566 -0.00921,-0.018785 -0.039233,-0.037936 l -0.024035,-0.015136 q -0.04409,-0.027999 -0.057779,-0.056864 -0.013689,-0.028864 -1.385e-4,-0.065707 0.015696,-0.042662 0.054043,-0.055966 0.038559,-0.013223 0.090224,0.00662 0.022143,0.00851 0.04362,0.021425 0.02148,0.012921 0.042506,0.030342 z" />
  <path
     inkscape:connector-curvature="0"
     id="path4413"
     style="font-style:normal;font-weight:normal;font-size:medium;line-height:125%;font-family:Sans;letter-spacing:0px;word-spacing:0px;fill:#000000;fill-opacity:1;stroke:none;stroke-width:1px;stroke-linecap:butt;stroke-linejoin:miter;stroke-opacity:1"
     d="M 9.1902245,5.3799535 9.4421779,5.5150291 9.4243834,5.549679 9.3186546,5.4929965 9.1801716,5.7626547 9.1396756,5.740944 9.2781587,5.4712858 9.1724299,5.4146032 l 0.017795,-0.03465 z" />
  <path
     inkscape:connector-curvature="0"
     id="path4415"
     style="font-style:normal;font-weight:normal;font-size:medium;line-height:125%;font-family:Sans;letter-spacing:0px;word-spacing:0px;fill:#000000;fill-opacity:1;stroke:none;stroke-width:1px;stroke-linecap:butt;stroke-linejoin:miter;stroke-opacity:1"
     d="m 9.5039087,5.5582107 0.038225,0.025229 -0.1825023,0.288667 -0.038225,-0.025229 0.1825023,-0.2886671 z" />
</svg>
