<?xml version="1.0" encoding="UTF-8" standalone="no"?>
<svg
   xmlns:dc="http://purl.org/dc/elements/1.1/"
   xmlns:cc="http://creativecommons.org/ns#"
   xmlns:rdf="http://www.w3.org/1999/02/22-rdf-syntax-ns#"
   xmlns:svg="http://www.w3.org/2000/svg"
   xmlns="http://www.w3.org/2000/svg"
   xmlns:sodipodi="http://sodipodi.sourceforge.net/DTD/sodipodi-0.dtd"
   xmlns:inkscape="http://www.inkscape.org/namespaces/inkscape"
   width="16"
   height="16"
   id="svg2"
   version="1.1"
   inkscape:version="0.91 r"
   sodipodi:docname="subway_chicago.svg">
  <defs
     id="defs13">
    <linearGradient
       gradientTransform="matrix(0.08596979,0,0,0.08596979,0.67480439,1.9432845)"
       x1="87.101639"
       y1="121.69753"
       x2="87.260849"
       y2="1.2385538"
       id="l1"
       gradientUnits="userSpaceOnUse">
      <stop
         style="stop-color:#e92203;stop-opacity:1"
         offset="0"
         id="stop5" />
      <stop
         style="stop-color:#ff0000;stop-opacity:0.64628822"
         offset="1"
         id="stop7" />
    </linearGradient>
    <linearGradient
       gradientTransform="matrix(0.08400469,0,0,0.08400469,0.8422306,2.0814238)"
       x1="87.101639"
       y1="121.69753"
       x2="87.260849"
       y2="1.2385538"
       id="l1-2"
       gradientUnits="userSpaceOnUse">
      <stop
         style="stop-color:#e92203;stop-opacity:1"
         offset="0"
         id="stop5-8" />
      <stop
         style="stop-color:#ff0000;stop-opacity:0.64628822"
         offset="1"
         id="stop7-4" />
    </linearGradient>
  </defs>
  <sodipodi:namedview
     pagecolor="#ffffff"
     bordercolor="#666666"
     borderopacity="1"
     objecttolerance="10"
     gridtolerance="10"
     guidetolerance="10"
     inkscape:pageopacity="0"
     inkscape:pageshadow="2"
     inkscape:window-width="1920"
     inkscape:window-height="1004"
     id="namedview11"
     showgrid="true"
     inkscape:zoom="45.254834"
     inkscape:cx="5.5422468"
     inkscape:cy="8.4920235"
     inkscape:window-x="1680"
     inkscape:window-y="0"
     inkscape:window-maximized="1"
     inkscape:current-layer="svg2"
     showguides="false"
     inkscape:snap-global="false">
    <sodipodi:guide
       position="0,0"
       orientation="0,580"
       id="guide2989" />
    <sodipodi:guide
       position="580,0"
       orientation="-580,0"
       id="guide2991" />
    <sodipodi:guide
       position="580,580"
       orientation="0,-580"
       id="guide2993" />
    <sodipodi:guide
       position="0,580"
       orientation="580,0"
       id="guide2995" />
    <sodipodi:guide
       position="0,0"
       orientation="0,580"
       id="guide2997" />
    <sodipodi:guide
       position="580,0"
       orientation="-580,0"
       id="guide2999" />
    <sodipodi:guide
       position="580,580"
       orientation="0,-580"
       id="guide3001" />
    <sodipodi:guide
       position="0,580"
       orientation="580,0"
       id="guide3003" />
    <inkscape:grid
       type="xygrid"
       id="grid3013"
       empspacing="5"
       visible="true"
       enabled="true"
       snapvisiblegridlinesonly="true" />
  </sodipodi:namedview>
  <metadata
     id="metadata2975">image/svg+xmlen<rdf:RDF>
  <cc:Work
     rdf:about="">
    <dc:format>image/svg+xml</dc:format>
    <dc:type
       rdf:resource="http://purl.org/dc/dcmitype/StillImage" />
    <dc:title />
  </cc:Work>
</rdf:RDF>
</metadata>
  <path
     sodipodi:type="inkscape:offset"
     inkscape:radius="0"
     inkscape:original="M 8 3.640625 C 5.5335723 3.640625 3.53125 5.5945418 3.53125 8 C 3.5312501 10.405458 5.5335725 12.359375 8 12.359375 C 10.466428 12.359375 12.46875 10.405458 12.46875 8 C 12.46875 5.5945419 10.466428 3.6406251 8 3.640625 z "
     style="color:#000000;font-style:normal;font-variant:normal;font-weight:normal;font-stretch:normal;font-size:medium;line-height:normal;font-family:sans-serif;text-indent:0;text-align:start;text-decoration:none;text-decoration-line:none;text-decoration-style:solid;text-decoration-color:#000000;letter-spacing:normal;word-spacing:normal;text-transform:none;direction:ltr;block-progression:tb;writing-mode:lr-tb;baseline-shift:baseline;text-anchor:start;white-space:normal;clip-rule:nonzero;display:inline;overflow:visible;visibility:visible;opacity:1;isolation:auto;mix-blend-mode:normal;color-interpolation:sRGB;color-interpolation-filters:linearRGB;solid-color:#000000;solid-opacity:1;fill:#fefefe;fill-opacity:1;fill-rule:nonzero;stroke:none;stroke-width:0.63810527;stroke-linecap:butt;stroke-linejoin:miter;stroke-miterlimit:4;stroke-dasharray:none;stroke-dashoffset:0;stroke-opacity:1;color-rendering:auto;image-rendering:auto;shape-rendering:auto;text-rendering:auto;enable-background:accumulate"
     id="path4158"
     d="M 8,3.640625 C 5.5335723,3.640625 3.53125,5.5945418 3.53125,8 3.5312501,10.405458 5.5335725,12.359375 8,12.359375 10.466428,12.359375 12.46875,10.405458 12.46875,8 12.46875,5.5945419 10.466428,3.6406251 8,3.640625 Z"
     transform="matrix(1.0304132,0,0,1.0304132,-0.24330556,-0.24330556)" />
  <path
     inkscape:connector-curvature="0"
     style="fill:#ffffff"
     d="m 11.818115,8.0030085 c 0,2.1082935 -1.704404,3.8149115 -3.8132463,3.8149115 -2.1089263,0 -3.8229846,-1.706639 -3.8229846,-3.8149115 2.07e-5,-2.1182851 1.7140583,-3.8250929 3.8229846,-3.8250929 2.1088423,0 3.8132463,1.7068078 3.8132463,3.8250929"
     id="path3" />
  <path
     inkscape:connector-curvature="0"
     style="fill:none;stroke:#d31145;stroke-width:0.40312639"
     d="m 11.818115,8.0030085 c 0,2.1082935 -1.704404,3.8149115 -3.8132463,3.8149115 -2.1089263,0 -3.8229846,-1.706639 -3.8229846,-3.8149115 2.07e-5,-2.1182851 1.7140583,-3.8250929 3.8229846,-3.8250929 2.1088423,0 3.8132463,1.7068078 3.8132463,3.8250929 z"
     id="path5" />
  <path
     inkscape:connector-curvature="0"
     style="fill:#0078c1"
     d="m 11.461865,8.0030085 c 0,1.9074553 -1.5504048,3.4534745 -3.4569963,3.4534745 -1.9067179,0 -3.4570795,-1.5460192 -3.4570795,-3.4534745 0,-1.9176582 1.5503616,-3.4636561 3.4570795,-3.4636561 1.9065915,0 3.4569963,1.5460194 3.4569963,3.4636561"
     id="path7" />
  <path
     inkscape:connector-curvature="0"
     style="fill:#fefefe;fill-opacity:1"
     d="m 6.4671215,7.6357691 c -0.032709,-0.04528 -0.098122,-0.056827 -0.1853646,-0.056827 -0.3268814,0 -0.4141004,0.4432527 -0.4141004,0.6363709 0,0.2046404 0.043611,0.3862123 0.2615619,0.3862123 0.1961482,0 0.2833672,-0.1931182 0.3270007,-0.3067465 l 0.7192964,0 C 7.0447816,8.8856561 6.6850741,9.169763 6.1183402,9.169763 c -0.8392226,0 -1.0026631,-0.5566906 -1.0026631,-0.9431176 0,-0.7045047 0.4359053,-1.2270331 1.1879084,-1.2270331 0.5449529,0 0.9591726,0.261252 0.9482702,0.8407971 l -0.7301982,0 C 6.5325371,7.7380889 6.5107313,7.681263 6.4671215,7.6357691"
     id="path9" />
  <path
     inkscape:connector-curvature="0"
     style="fill:#fefefe;fill-opacity:1"
     d="M 8.4942763,8.5449147 8.3852524,9.1129366 c 0,0 -0.1961954,0.011335 -0.3161221,0.011335 C 7.9166162,9.1356061 7.6986634,9.1471295 7.5787372,9.0787788 7.4480035,8.9993087 7.3934913,8.8401623 7.3934913,8.6925622 c 0,-0.1023201 0.021805,-0.1817863 0.043611,-0.2725842 l 0.1743428,-0.818157 -0.3270003,0 0.098122,-0.4772245 0.3270002,0 0.1198308,-0.6021848 0.7411249,0 -0.130757,0.6021848 0.3922956,0 -0.097979,0.4772245 -0.3706336,0 -0.1307575,0.6476792 c 0,0.033971 -0.021805,0.1249597 -0.021805,0.1931177 0,0.068158 0.076245,0.1023201 0.1198549,0.1023201 0.1199264,-2.37e-5 0.1853409,-2.37e-5 0.1635361,-2.37e-5"
     id="path11" />
  <path
     inkscape:connector-curvature="0"
     style="fill:#fefefe;fill-opacity:1"
     d="m 9.5731837,8.647044 c -0.087147,0.011332 -0.2398049,0 -0.2398049,-0.1476234 0,-0.1478148 0.141731,-0.2046408 0.2725132,-0.2272807 C 9.7367204,8.2495004 9.8456249,8.2266456 9.965551,8.1584875 9.9219698,8.4652582 9.747647,8.6130725 9.5731837,8.647044 M 9.8783321,6.9767578 c -0.4904411,0 -0.8391261,0.1817863 -1.0135652,0.6476792 l 0.7193191,0 c 0.076317,-0.10232 0.1635365,-0.1589316 0.3160511,-0.1589316 0.1090229,-0.011523 0.2724409,0 0.2506349,0.1362918 -0.03271,0.1476239 -0.3814648,0.204426 -0.5884905,0.2157577 -0.5775879,0.045494 -0.9699551,0.2386126 -0.9699551,0.7839713 0,0.3977588 0.3051479,0.5455733 0.6539051,0.5455733 0.2179999,0 0.4796105,-0.079681 0.6102957,-0.250135 l 0.010903,0 -0.043609,0.2159721 0.7193925,0 c 0,0 0.305076,-1.2611951 0.305076,-1.5792737 2.3e-5,-0.5000791 -0.610273,-0.5569051 -0.9699563,-0.5569051 z"
     id="path13" />
  <path
     inkscape:connector-curvature="0"
     style="fill:#fefefe;fill-opacity:1"
     d="m 11.033653,9.1924025 c -0.109025,0 -0.20717,-0.079466 -0.20717,-0.2044258 0,-0.1136521 0.09812,-0.2044262 0.20717,-0.2044262 0.10888,0 0.207027,0.090798 0.207027,0.2044262 0,0.1249599 -0.09812,0.2044258 -0.207027,0.2044258"
     id="path15" />
  <path
     inkscape:connector-curvature="0"
     style="fill:#fefefe;fill-opacity:1"
     d="m 11.033653,8.8174987 c -0.08722,0 -0.163536,0.079466 -0.163536,0.170478 0,0.1023201 0.07631,0.1704787 0.163536,0.1704787 0.09797,0 0.163416,-0.068135 0.163416,-0.1704787 0,-0.091013 -0.06541,-0.170478 -0.163416,-0.170478"
     id="path17" />
  <path
     inkscape:connector-curvature="0"
     style="fill:#fefefe;fill-opacity:1"
     d="m 11.098947,9.1129366 -0.06527,-0.10232 -0.0436,0 0,0.10232 -0.03271,0 0,-0.238612 0.08722,0 c 0.05437,0 0.08707,0.022639 0.08707,0.068134 0,0.034186 -0.03271,0.056827 -0.06541,0.068134 l 0.06541,0.10232 -0.03271,0"
     id="path19" />
  <path
     inkscape:connector-curvature="0"
     style="fill:#fefefe;fill-opacity:1"
     d="m 11.088046,8.9424584 c 0,-0.033971 -0.02181,-0.045495 -0.04347,-0.045495 l -0.05451,0 0,0.079681 0.0436,0 c 0.03254,0 0.05437,0 0.05437,-0.034186"
     id="path21" />
</svg>
