<?xml version="1.0" encoding="UTF-8" standalone="no"?>
<svg
   xmlns:dc="http://purl.org/dc/elements/1.1/"
   xmlns:cc="http://creativecommons.org/ns#"
   xmlns:rdf="http://www.w3.org/1999/02/22-rdf-syntax-ns#"
   xmlns:svg="http://www.w3.org/2000/svg"
   xmlns="http://www.w3.org/2000/svg"
   xmlns:sodipodi="http://sodipodi.sourceforge.net/DTD/sodipodi-0.dtd"
   xmlns:inkscape="http://www.inkscape.org/namespaces/inkscape"
   width="16"
   height="16"
   id="svg2"
   version="1.1"
   inkscape:version="0.91 r"
   sodipodi:docname="subway_spb.svg">
  <defs
     id="defs13">
    <sodipodi:namedview
       inkscape:current-layer="svg2"
       inkscape:window-maximized="1"
       inkscape:window-y="-8"
       inkscape:window-x="-8"
       inkscape:cy="65"
       inkscape:cx="77.5"
       inkscape:zoom="1.8153846"
       showgrid="false"
       id="namedview8-4"
       inkscape:window-height="837"
       inkscape:window-width="1440"
       inkscape:pageshadow="2"
       inkscape:pageopacity="0"
       guidetolerance="10"
       gridtolerance="10"
       objecttolerance="10"
       borderopacity="1"
       bordercolor="#666666"
       pagecolor="#ffffff" />
    <sodipodi:namedview
       inkscape:current-layer="svg2"
       inkscape:window-maximized="1"
       inkscape:window-y="-8"
       inkscape:window-x="-8"
       inkscape:cy="65"
       inkscape:cx="77.5"
       inkscape:zoom="1.8153846"
       showgrid="false"
       id="namedview8-1"
       inkscape:window-height="837"
       inkscape:window-width="1440"
       inkscape:pageshadow="2"
       inkscape:pageopacity="0"
       guidetolerance="10"
       gridtolerance="10"
       objecttolerance="10"
       borderopacity="1"
       bordercolor="#666666"
       pagecolor="#ffffff" />
  </defs>
  <sodipodi:namedview
     pagecolor="#ffffff"
     bordercolor="#666666"
     borderopacity="1"
     objecttolerance="10"
     gridtolerance="10"
     guidetolerance="10"
     inkscape:pageopacity="0"
     inkscape:pageshadow="2"
     inkscape:window-width="1920"
     inkscape:window-height="1004"
     id="namedview11"
     showgrid="true"
     inkscape:zoom="36.828071"
     inkscape:cx="11.077136"
     inkscape:cy="7.5688241"
     inkscape:window-x="1680"
     inkscape:window-y="0"
     inkscape:window-maximized="1"
     inkscape:current-layer="svg2"
     showguides="false">
    <sodipodi:guide
       position="0,0"
       orientation="0,580"
       id="guide2989" />
    <sodipodi:guide
       position="580,0"
       orientation="-580,0"
       id="guide2991" />
    <sodipodi:guide
       position="580,580"
       orientation="0,-580"
       id="guide2993" />
    <sodipodi:guide
       position="0,580"
       orientation="580,0"
       id="guide2995" />
    <sodipodi:guide
       position="0,0"
       orientation="0,580"
       id="guide2997" />
    <sodipodi:guide
       position="580,0"
       orientation="-580,0"
       id="guide2999" />
    <sodipodi:guide
       position="580,580"
       orientation="0,-580"
       id="guide3001" />
    <sodipodi:guide
       position="0,580"
       orientation="580,0"
       id="guide3003" />
    <inkscape:grid
       type="xygrid"
       id="grid3013"
       empspacing="5"
       visible="true"
       enabled="true"
       snapvisiblegridlinesonly="true" />
  </sodipodi:namedview>
  <metadata
     id="metadata2975">image/svg+xmlen<rdf:RDF>
  <cc:Work
     rdf:about="">
    <dc:format>image/svg+xml</dc:format>
    <dc:type
       rdf:resource="http://purl.org/dc/dcmitype/StillImage" />
    <dc:title />
  </cc:Work>
</rdf:RDF>
</metadata>
  <path
     sodipodi:type="inkscape:offset"
     inkscape:radius="-0.11478348"
     inkscape:original="M 6.46875 3.5371094 C 6.400347 3.5380407 6.3334414 3.5479153 6.2675781 3.5664062 C 6.2675781 3.5664062 5.3391028 3.838898 4.4335938 4.6621094 C 3.4725222 5.5344349 2.6156116 6.98344 2.7519531 9.0429688 C 2.8713983 10.850451 4.1132813 12.193359 4.1132812 12.193359 C 4.2636234 12.365522 4.4804193 12.463778 4.7089844 12.462891 C 6.4330661 12.466691 8.6670545 12.454791 11.292969 12.462891 C 11.521535 12.463802 11.740283 12.365526 11.890625 12.193359 C 11.890625 12.193359 13.14002 10.846045 13.251953 9.0390625 C 13.373828 6.9815356 12.517911 5.5330523 11.548828 4.6601562 C 10.644705 3.8449314 9.7226562 3.5703125 9.7226562 3.5703125 C 9.304987 3.4476296 8.8666632 3.6857995 8.7441406 4.1035156 L 7.9941406 6.6542969 L 7.2402344 4.1015625 C 7.139434 3.7621572 6.8227499 3.530723 6.46875 3.5371094 z "
     style="color:#000000;clip-rule:nonzero;display:inline;overflow:visible;visibility:visible;isolation:auto;mix-blend-mode:normal;color-interpolation:sRGB;color-interpolation-filters:linearRGB;solid-color:#000000;solid-opacity:1;fill:#fefefe;fill-opacity:1;fill-rule:nonzero;stroke-width:0.99994278;stroke-linecap:butt;stroke-linejoin:miter;stroke-miterlimit:4;stroke-dasharray:none;stroke-dashoffset:0;stroke-opacity:1;color-rendering:auto;image-rendering:auto;shape-rendering:auto;text-rendering:auto;enable-background:accumulate"
     id="path4148"
     d="m 6.4707031,3.6523438 c -0.058378,7.948e-4 -0.115249,0.00949 -0.171875,0.025391 -0.00377,0.00111 -0.9030256,0.264626 -1.7871093,1.0683594 a 0.11479496,0.11479496 0 0 1 -0.00195,0.00195 C 3.5703919,5.6006781 2.7331744,7.0107988 2.8671875,9.0351562 c 0.11624,1.7589808 1.3300781,3.0800778 1.3300781,3.0800778 a 0.11479496,0.11479496 0 0 1 0.00195,0.002 c 0.1286143,0.147281 0.314377,0.231227 0.5097656,0.230468 1.723335,0.0038 3.9575223,-0.0081 6.5839846,0 0.195373,7.79e-4 0.383425,-0.08355 0.511719,-0.230468 a 0.11479496,0.11479496 0 0 1 0.002,-0.002 c 0,0 1.220392,-1.325125 1.330078,-3.0820309 l 0,-0.00195 C 13.25585,7.0096481 12.419477,5.5989372 11.472656,4.7460938 10.587837,3.9482743 9.6894531,3.6796875 9.6894531,3.6796875 9.3311605,3.5744454 8.9585449,3.7786427 8.8535156,4.1367188 l -0.75,2.5507812 a 0.11479496,0.11479496 0 0 1 -0.21875,0 L 7.1308594,4.1347656 C 7.0446845,3.8446061 6.7734651,3.6468817 6.4707031,3.6523438 Z" />
  <g
     transform="matrix(4.5864972e-7,0,0,4.5864972e-7,3.413119,4.2318565)"
     style="color:#000000;clip-rule:nonzero;display:inline;overflow:visible;visibility:visible;opacity:1;isolation:auto;mix-blend-mode:normal;color-interpolation:sRGB;color-interpolation-filters:linearRGB;solid-color:#000000;solid-opacity:1;fill:#2250a3;fill-opacity:1;fill-rule:nonzero;stroke-width:0.99994278;stroke-linecap:butt;stroke-linejoin:miter;stroke-miterlimit:4;stroke-dasharray:none;stroke-dashoffset:0;stroke-opacity:1;color-rendering:auto;image-rendering:auto;shape-rendering:auto;text-rendering:auto;enable-background:accumulate"
     id="Слой_x0020_1">
    <metadata
       id="CorelCorpID_0Corel-Layer" />
    <sodipodi:namedview
       pagecolor="#ffffff"
       bordercolor="#666666"
       borderopacity="1"
       objecttolerance="10"
       gridtolerance="10"
       guidetolerance="10"
       inkscape:pageopacity="0"
       inkscape:pageshadow="2"
       inkscape:window-width="1440"
       inkscape:window-height="837"
       id="namedview8"
       showgrid="false"
       inkscape:zoom="1.8153846"
       inkscape:cx="77.5"
       inkscape:cy="65"
       inkscape:window-x="-8"
       inkscape:window-y="-8"
       inkscape:window-maximized="1"
       inkscape:current-layer="svg2" />
    <path
       inkscape:connector-curvature="0"
       id="path4"
       class="fil0"
       d="M 16587653,2210131 C 14887634,677267 13271193,203530 13271193,203530 l -3260695,11105962 -27915,0 L 6694029,203530 c 0,0 -1616441,459831 -3316469,2006601 C 1566039,3854375 5372,6376582 270123,10375821 c 209033,3163155 2550066,5852573 2550066,5852573 l 4528798,-13953 c 0,0 -3887793,-2062319 -4821418,-5309108 -1114789,-3832028 627052,-6493587 1964789,-7761634 543465,-473793 1337728,-585286 1630338,431972 1003305,3246789 3873840,12541230 3873840,12541230 l 13962,47 c 0,0 2856629,-9294441 3873831,-12541230 306573,-1017258 1100845,-905756 1630347,-431972 1337737,1268056 3079577,3929559 1964779,7761634 -933615,3246789 -4821408,5309108 -4821408,5309108 l 4528798,13962 c 0,0 2354986,-2703324 2550066,-5852582 236892,-3999286 -1323831,-6521493 -3149258,-8165737 z"
       style="color:#000000;clip-rule:nonzero;display:inline;overflow:visible;visibility:visible;isolation:auto;mix-blend-mode:normal;color-interpolation:sRGB;color-interpolation-filters:linearRGB;solid-color:#000000;solid-opacity:1;fill:#2250a3;fill-opacity:1;fill-rule:nonzero;stroke-width:0.99994278;stroke-linecap:butt;stroke-linejoin:miter;stroke-miterlimit:4;stroke-dasharray:none;stroke-dashoffset:0;stroke-opacity:1;color-rendering:auto;image-rendering:auto;shape-rendering:auto;text-rendering:auto;enable-background:accumulate" />
  </g>
</svg>
