<?xml version="1.0" encoding="UTF-8" standalone="no"?>
<svg
   xmlns:dc="http://purl.org/dc/elements/1.1/"
   xmlns:cc="http://creativecommons.org/ns#"
   xmlns:rdf="http://www.w3.org/1999/02/22-rdf-syntax-ns#"
   xmlns:svg="http://www.w3.org/2000/svg"
   xmlns="http://www.w3.org/2000/svg"
   xmlns:sodipodi="http://sodipodi.sourceforge.net/DTD/sodipodi-0.dtd"
   xmlns:inkscape="http://www.inkscape.org/namespaces/inkscape"
   width="16"
   height="16"
   id="svg2"
   version="1.1"
   inkscape:version="0.91 r13725"
   sodipodi:docname="subway_guangzhou.svg">
  <defs
     id="defs13">
    <sodipodi:namedview
       inkscape:current-layer="svg2"
       inkscape:window-maximized="1"
       inkscape:window-y="-8"
       inkscape:window-x="-8"
       inkscape:cy="65"
       inkscape:cx="77.5"
       inkscape:zoom="1.8153846"
       showgrid="false"
       id="namedview8-4"
       inkscape:window-height="837"
       inkscape:window-width="1440"
       inkscape:pageshadow="2"
       inkscape:pageopacity="0"
       guidetolerance="10"
       gridtolerance="10"
       objecttolerance="10"
       borderopacity="1"
       bordercolor="#666666"
       pagecolor="#ffffff" />
    <sodipodi:namedview
       inkscape:current-layer="svg2"
       inkscape:window-maximized="1"
       inkscape:window-y="-8"
       inkscape:window-x="-8"
       inkscape:cy="65"
       inkscape:cx="77.5"
       inkscape:zoom="1.8153846"
       showgrid="false"
       id="namedview8-1"
       inkscape:window-height="837"
       inkscape:window-width="1440"
       inkscape:pageshadow="2"
       inkscape:pageopacity="0"
       guidetolerance="10"
       gridtolerance="10"
       objecttolerance="10"
       borderopacity="1"
       bordercolor="#666666"
       pagecolor="#ffffff" />
  </defs>
  <sodipodi:namedview
     pagecolor="#ffffff"
     bordercolor="#666666"
     borderopacity="1"
     objecttolerance="10"
     gridtolerance="10"
     guidetolerance="10"
     inkscape:pageopacity="0"
     inkscape:pageshadow="2"
     inkscape:window-width="1920"
     inkscape:window-height="1006"
     id="namedview11"
     showgrid="true"
     inkscape:zoom="36.828073"
     inkscape:cx="6.939253"
     inkscape:cy="8.4220373"
     inkscape:window-x="1920"
     inkscape:window-y="0"
     inkscape:window-maximized="1"
     inkscape:current-layer="svg2"
     showguides="false">
    <sodipodi:guide
       position="0,0"
       orientation="0,580"
       id="guide2989" />
    <sodipodi:guide
       position="580,0"
       orientation="-580,0"
       id="guide2991" />
    <sodipodi:guide
       position="580,580"
       orientation="0,-580"
       id="guide2993" />
    <sodipodi:guide
       position="0,580"
       orientation="580,0"
       id="guide2995" />
    <sodipodi:guide
       position="0,0"
       orientation="0,580"
       id="guide2997" />
    <sodipodi:guide
       position="580,0"
       orientation="-580,0"
       id="guide2999" />
    <sodipodi:guide
       position="580,580"
       orientation="0,-580"
       id="guide3001" />
    <sodipodi:guide
       position="0,580"
       orientation="580,0"
       id="guide3003" />
    <inkscape:grid
       type="xygrid"
       id="grid3013"
       empspacing="5"
       visible="true"
       enabled="true"
       snapvisiblegridlinesonly="true" />
  </sodipodi:namedview>
  <metadata
     id="metadata2975">image/svg+xmlen<rdf:RDF>
  <cc:Work
     rdf:about="">
    <dc:format>image/svg+xml</dc:format>
    <dc:type
       rdf:resource="http://purl.org/dc/dcmitype/StillImage" />
    <dc:title />
  </cc:Work>
</rdf:RDF>
</metadata>
  <path
     sodipodi:type="inkscape:offset"
     inkscape:radius="0.86635298"
     inkscape:original="M 6.015625 3.8105469 L 4.4667969 3.8125 C 5.6807415 4.8496456 6.4500417 6.3934146 6.4511719 8.1152344 L 6.4511719 12.189453 L 7.6835938 12.189453 L 7.6835938 7.78125 C 7.6700802 6.2317279 7.0336271 4.8263011 6.015625 3.8105469 z M 9.984375 3.8105469 C 8.9629947 4.8262933 8.3299197 6.2317247 8.3164062 7.78125 L 8.3164062 12.189453 L 9.546875 12.189453 L 9.546875 8.1152344 C 9.548005 6.3934146 10.320384 4.8496456 11.533203 3.8125 L 9.984375 3.8105469 z "
     style="fill:#fefefe;fill-opacity:1;fill-rule:nonzero;stroke:none"
     id="path4174"
     d="m 6.0136719,2.9433594 -1.5488281,0.00195 A 0.86643961,0.86643961 0 0 0 3.9042969,4.4707031 C 4.932869,5.349474 5.5830233,6.6511292 5.5839844,8.1152344 l 0,4.0742186 a 0.86643961,0.86643961 0 0 0 0.8671875,0.867188 l 1.2324219,0 A 0.86643961,0.86643961 0 0 0 8,12.996094 a 0.86643961,0.86643961 0 0 0 0.00195,0 0.86643961,0.86643961 0 0 0 0.3144531,0.06055 l 1.2304688,0 a 0.86643961,0.86643961 0 0 0 0.867187,-0.867188 l 0,-4.0742186 C 10.415023,6.652162 11.067533,5.3499459 12.095703,4.4707031 A 0.86643961,0.86643961 0 0 0 11.535156,2.9453125 L 9.9863281,2.9433594 A 0.86643961,0.86643961 0 0 0 9.3730469,3.1953125 C 8.7941517,3.7710145 8.3308901,4.4610797 8,5.2207031 7.6688005,4.4614003 7.2035137,3.7725531 6.6269531,3.1972656 A 0.86643961,0.86643961 0 0 0 6.0136719,2.9433594 Z" />
  <path
     style="fill:#c51935;fill-opacity:1;fill-rule:nonzero;stroke:none"
     d="M 6.015625 3.8105469 L 4.4667969 3.8125 C 5.6807415 4.8496456 6.4500417 6.3934146 6.4511719 8.1152344 L 6.4511719 12.189453 L 7.6835938 12.189453 L 7.6835938 7.78125 C 7.6700803 6.2317248 7.0336271 4.8263011 6.015625 3.8105469 z M 9.984375 3.8105469 C 8.9629947 4.8262933 8.3299197 6.2317247 8.3164062 7.78125 L 8.3164062 12.189453 L 9.546875 12.189453 L 9.546875 8.1152344 C 9.548005 6.3934146 10.320384 4.8496456 11.533203 3.8125 L 9.984375 3.8105469 z "
     id="path6005" />
</svg>
