<?xml version="1.0" encoding="UTF-8" standalone="no"?>
<svg
   xmlns:dc="http://purl.org/dc/elements/1.1/"
   xmlns:cc="http://creativecommons.org/ns#"
   xmlns:rdf="http://www.w3.org/1999/02/22-rdf-syntax-ns#"
   xmlns:svg="http://www.w3.org/2000/svg"
   xmlns="http://www.w3.org/2000/svg"
   xmlns:sodipodi="http://sodipodi.sourceforge.net/DTD/sodipodi-0.dtd"
   xmlns:inkscape="http://www.inkscape.org/namespaces/inkscape"
   width="16"
   height="16"
   id="svg2"
   version="1.1"
   inkscape:version="0.91 r"
   sodipodi:docname="subway_germany.svg">
  <defs
     id="defs13" />
  <sodipodi:namedview
     pagecolor="#ffffff"
     bordercolor="#666666"
     borderopacity="1"
     objecttolerance="10"
     gridtolerance="10"
     guidetolerance="10"
     inkscape:pageopacity="0"
     inkscape:pageshadow="2"
     inkscape:window-width="1920"
     inkscape:window-height="1004"
     id="namedview11"
     showgrid="true"
     inkscape:zoom="52.082758"
     inkscape:cx="8.3792725"
     inkscape:cy="9.806749"
     inkscape:window-x="1680"
     inkscape:window-y="0"
     inkscape:window-maximized="1"
     inkscape:current-layer="svg2"
     showguides="false">
    <sodipodi:guide
       position="0,0"
       orientation="0,580"
       id="guide2989" />
    <sodipodi:guide
       position="580,0"
       orientation="-580,0"
       id="guide2991" />
    <sodipodi:guide
       position="580,580"
       orientation="0,-580"
       id="guide2993" />
    <sodipodi:guide
       position="0,580"
       orientation="580,0"
       id="guide2995" />
    <sodipodi:guide
       position="0,0"
       orientation="0,580"
       id="guide2997" />
    <sodipodi:guide
       position="580,0"
       orientation="-580,0"
       id="guide2999" />
    <sodipodi:guide
       position="580,580"
       orientation="0,-580"
       id="guide3001" />
    <sodipodi:guide
       position="0,580"
       orientation="580,0"
       id="guide3003" />
    <inkscape:grid
       type="xygrid"
       id="grid3013"
       empspacing="5"
       visible="true"
       enabled="true"
       snapvisiblegridlinesonly="true" />
  </sodipodi:namedview>
  <metadata
     id="metadata2975">image/svg+xmlen<rdf:RDF>
  <cc:Work
     rdf:about="">
    <dc:format>image/svg+xml</dc:format>
    <dc:type
       rdf:resource="http://purl.org/dc/dcmitype/StillImage" />
    <dc:title />
  </cc:Work>
</rdf:RDF>
</metadata>
  <rect
     y="3.9100609"
     x="3.9100609"
     style="color:#000000;clip-rule:nonzero;display:inline;overflow:visible;visibility:visible;opacity:1;isolation:auto;mix-blend-mode:normal;color-interpolation:sRGB;color-interpolation-filters:linearRGB;solid-color:#000000;solid-opacity:1;fill:#fefefe;fill-opacity:1;fill-rule:nonzero;stroke-width:0.11437072;stroke-linecap:butt;stroke-linejoin:miter;stroke-miterlimit:4;stroke-dasharray:none;stroke-dashoffset:0;stroke-opacity:1;color-rendering:auto;image-rendering:auto;shape-rendering:auto;text-rendering:auto;enable-background:accumulate"
     x1="0"
     y1="0"
     width="8.1798782"
     height="8.1798782"
     id="rect4-1" />
  <rect
     y="4.4088726"
     x="4.4088726"
     style="fill:#003399"
     x1="0"
     y1="0"
     width="7.1822553"
     height="7.1822553"
     id="rect4" />
  <path
     inkscape:connector-curvature="0"
     style="fill:#fefefe;fill-opacity:1"
     d="m 8.2733237,11.045787 c 0.4663186,-0.04552 0.901972,-0.193874 1.2479241,-0.424968 0.1738525,-0.116133 0.4190515,-0.356601 0.5256512,-0.515508 0.155786,-0.2322313 0.268921,-0.5112526 0.329446,-0.8125058 0.02344,-0.1166895 0.02631,-0.3217102 0.0311,-2.2264985 l 0.0053,-2.0979746 -1.4374584,0 0,1.920904 c 0,1.2627691 -0.00554,1.9705691 -0.016163,2.0658616 C 8.9400751,9.1258125 8.8839249,9.3298626 8.8269143,9.4355114 8.7553761,9.5680816 8.623389,9.6942292 8.4856805,9.7616467 8.1068177,9.9471265 7.5524386,9.8803439 7.2896635,9.6175689 7.1558355,9.483741 7.0638967,9.2682451 7.025313,8.9979552 7.0158822,8.9318904 7.0100911,8.1547795 7.0099043,6.9302218 l -2.989e-4,-1.9618897 -1.4213303,0 0,1.9867486 c 0,1.9932533 0.00382,2.1615167 0.054803,2.4133281 0.1259131,0.6219095 0.5139016,1.1168912 1.1078885,1.4134032 0.435366,0.217331 0.998977,0.31506 1.5223575,0.263975 z"
     id="path6" />
</svg>
