<?xml version="1.0" encoding="UTF-8" standalone="no"?>
<svg
   xmlns:dc="http://purl.org/dc/elements/1.1/"
   xmlns:cc="http://creativecommons.org/ns#"
   xmlns:rdf="http://www.w3.org/1999/02/22-rdf-syntax-ns#"
   xmlns:svg="http://www.w3.org/2000/svg"
   xmlns="http://www.w3.org/2000/svg"
   xmlns:sodipodi="http://sodipodi.sourceforge.net/DTD/sodipodi-0.dtd"
   xmlns:inkscape="http://www.inkscape.org/namespaces/inkscape"
   width="16"
   height="16"
   id="svg2"
   version="1.1"
   inkscape:version="0.91 r"
   sodipodi:docname="subway_tashkent.svg">
  <defs
     id="defs13">
    <linearGradient
       gradientTransform="matrix(0.08596979,0,0,0.08596979,0.67480439,1.9432845)"
       x1="87.101639"
       y1="121.69753"
       x2="87.260849"
       y2="1.2385538"
       id="l1"
       gradientUnits="userSpaceOnUse">
      <stop
         style="stop-color:#e92203;stop-opacity:1"
         offset="0"
         id="stop5" />
      <stop
         style="stop-color:#ff0000;stop-opacity:0.64628822"
         offset="1"
         id="stop7" />
    </linearGradient>
    <linearGradient
       gradientTransform="matrix(0.08400469,0,0,0.08400469,0.8422306,2.0814238)"
       x1="87.101639"
       y1="121.69753"
       x2="87.260849"
       y2="1.2385538"
       id="l1-2"
       gradientUnits="userSpaceOnUse">
      <stop
         style="stop-color:#e92203;stop-opacity:1"
         offset="0"
         id="stop5-8" />
      <stop
         style="stop-color:#ff0000;stop-opacity:0.64628822"
         offset="1"
         id="stop7-4" />
    </linearGradient>
  </defs>
  <sodipodi:namedview
     pagecolor="#ffffff"
     bordercolor="#666666"
     borderopacity="1"
     objecttolerance="10"
     gridtolerance="10"
     guidetolerance="10"
     inkscape:pageopacity="0"
     inkscape:pageshadow="2"
     inkscape:window-width="1920"
     inkscape:window-height="1004"
     id="namedview11"
     showgrid="true"
     inkscape:zoom="32"
     inkscape:cx="12.872243"
     inkscape:cy="7.3523865"
     inkscape:window-x="1680"
     inkscape:window-y="0"
     inkscape:window-maximized="1"
     inkscape:current-layer="svg2"
     showguides="false"
     inkscape:snap-global="false">
    <sodipodi:guide
       position="0,0"
       orientation="0,580"
       id="guide2989" />
    <sodipodi:guide
       position="580,0"
       orientation="-580,0"
       id="guide2991" />
    <sodipodi:guide
       position="580,580"
       orientation="0,-580"
       id="guide2993" />
    <sodipodi:guide
       position="0,580"
       orientation="580,0"
       id="guide2995" />
    <sodipodi:guide
       position="0,0"
       orientation="0,580"
       id="guide2997" />
    <sodipodi:guide
       position="580,0"
       orientation="-580,0"
       id="guide2999" />
    <sodipodi:guide
       position="580,580"
       orientation="0,-580"
       id="guide3001" />
    <sodipodi:guide
       position="0,580"
       orientation="580,0"
       id="guide3003" />
    <inkscape:grid
       type="xygrid"
       id="grid3013"
       empspacing="5"
       visible="true"
       enabled="true"
       snapvisiblegridlinesonly="true" />
  </sodipodi:namedview>
  <metadata
     id="metadata2975">image/svg+xmlen<rdf:RDF>
  <cc:Work
     rdf:about="">
    <dc:format>image/svg+xml</dc:format>
    <dc:type
       rdf:resource="http://purl.org/dc/dcmitype/StillImage" />
    <dc:title />
  </cc:Work>
</rdf:RDF>
</metadata>
  <circle
     style="color:#000000;clip-rule:nonzero;display:inline;overflow:visible;visibility:visible;opacity:1;isolation:auto;mix-blend-mode:normal;color-interpolation:sRGB;color-interpolation-filters:linearRGB;solid-color:#000000;solid-opacity:1;fill:#fefefe;fill-opacity:1;fill-rule:nonzero;stroke:none;stroke-width:1;stroke-linecap:butt;stroke-linejoin:miter;stroke-miterlimit:4;stroke-dasharray:none;stroke-dashoffset:0;stroke-opacity:1;marker:none;color-rendering:auto;image-rendering:auto;shape-rendering:auto;text-rendering:auto;enable-background:accumulate"
     id="path4252"
     cx="8.039362"
     cy="7.941153"
     r="3.19068" />
  <path
     style="color:#000000;clip-rule:nonzero;display:inline;overflow:visible;visibility:visible;opacity:1;isolation:auto;mix-blend-mode:normal;color-interpolation:sRGB;color-interpolation-filters:linearRGB;solid-color:#000000;solid-opacity:1;fill:#61a2e4;fill-opacity:1;fill-rule:nonzero;stroke-width:1;stroke-linecap:butt;stroke-linejoin:miter;stroke-miterlimit:4;stroke-dasharray:none;stroke-dashoffset:0;stroke-opacity:1;color-rendering:auto;image-rendering:auto;shape-rendering:auto;text-rendering:auto;enable-background:accumulate"
     d="m 8.000158,4.6292776 c -1.8616341,0 -3.3709593,1.5091674 -3.3709593,3.3708011 0,1.8616343 1.5092482,3.3706433 3.3708015,3.3706433 1.8614721,0 3.3708008,-1.5090898 3.3708008,-3.3706433 0,-1.8616337 -1.5090088,-3.3708011 -3.370643,-3.3708011 z m 0.049066,0.4288046 c 0.8466085,0 1.5443225,0.5814072 1.6502192,1.3334277 0.7332812,0.1200327 1.2950922,0.7860252 1.2950922,1.5920032 -8.2e-5,0.6184185 -0.331462,1.2124684 -0.816276,1.4831472 L 8.4890717,9.4803893 8.0704376,8.6644259 8.5498112,7.9268805 l 0.4619352,0.9740393 1.0589836,0 L 8.9459829,6.137338 8.0050791,7.2484174 7.0243861,6.0820623 6.0729038,8.900758 l 1.0425092,0 0.3456627,-0.9801923 0.4908063,0.7455964 -0.00174,0.00191 -0.311901,0.8192726 -1.7346233,0.014038 c -0.00913,-0.00619 -0.02682,-0.019716 -0.02682,-0.019716 l -0.00552,-0.00409 C 5.4682106,9.1842507 5.2022004,8.6419826 5.2022004,8.0884279 c 0,-0.7655101 0.5064489,-1.4048817 1.1852865,-1.5703905 0.040872,-0.8123596 0.7681966,-1.459955 1.6617359,-1.4599552 z"
     id="path9"
     inkscape:connector-curvature="0"
     sodipodi:nodetypes="ssssssccccccccccccccccccccscs" />
  <path
     style="color:#000000;clip-rule:nonzero;display:inline;overflow:visible;visibility:visible;opacity:1;isolation:auto;mix-blend-mode:normal;color-interpolation:sRGB;color-interpolation-filters:linearRGB;solid-color:#000000;solid-opacity:1;fill:#000000;fill-opacity:1;fill-rule:nonzero;stroke:none;stroke-width:0.11243591;stroke-linecap:butt;stroke-linejoin:miter;stroke-miterlimit:4;stroke-dasharray:none;stroke-dashoffset:0;stroke-opacity:1;marker:none;color-rendering:auto;image-rendering:auto;shape-rendering:auto;text-rendering:auto;enable-background:accumulate"
     d="M 8.01122,8.643928 7.6505698,9.6159163 5.6102431,9.6409391 c 0.7352535,0.3245293 1.7640071,0.7614759 1.981785,0.8529549 0.079524,0.03338 0.2207509,0.109786 0.3932067,0.109786 0.1398225,0 0.1745947,-0.0051 0.3941954,-0.09413 C 8.849257,10.309846 10.452675,9.6126825 10.452676,9.6126016 l -1.9490721,0 z"
     id="path4203"
     inkscape:connector-curvature="0"
     sodipodi:nodetypes="ccccscccc" />
  <path
     d="m 8.0000001,4.2170389 c -2.0859477,0 -3.7828805,1.6970942 -3.7828805,3.7829614 0,2.0858667 1.6969328,3.7829607 3.7828805,3.7829607 2.0859479,0 3.7828809,-1.697094 3.7828809,-3.7829607 0,-2.0858672 -1.696933,-3.7829614 -3.7828809,-3.7829614 z m 0,7.3281441 c -1.9548736,0 -3.5452618,-1.5903881 -3.5452618,-3.5451827 0,-1.9547947 1.5903882,-3.545183 3.5452618,-3.545183 1.9548739,0 3.5452609,1.5903883 3.5452609,3.545183 0,1.9547946 -1.590387,3.5451827 -3.5452609,3.5451827 z"
     id="path7"
     inkscape:connector-curvature="0"
     style="color:#000000;clip-rule:nonzero;display:inline;overflow:visible;visibility:visible;opacity:1;isolation:auto;mix-blend-mode:normal;color-interpolation:sRGB;color-interpolation-filters:linearRGB;solid-color:#000000;solid-opacity:1;fill:#007fff;fill-opacity:1;fill-rule:nonzero;stroke-width:1;stroke-linecap:butt;stroke-linejoin:miter;stroke-miterlimit:4;stroke-dasharray:none;stroke-dashoffset:0;stroke-opacity:1;color-rendering:auto;image-rendering:auto;shape-rendering:auto;text-rendering:auto;enable-background:accumulate"
     sodipodi:nodetypes="ssssssssss" />
  <g
     transform="matrix(0.0771056,0,0,0.0771056,4.3889138,4.3889138)"
     id="g11" />
  <g
     transform="matrix(0.0771056,0,0,0.0771056,4.3889138,4.3889138)"
     id="g13" />
  <g
     transform="matrix(0.0771056,0,0,0.0771056,4.3889138,4.3889138)"
     id="g15" />
  <g
     transform="matrix(0.0771056,0,0,0.0771056,4.3889138,4.3889138)"
     id="g17" />
  <g
     transform="matrix(0.0771056,0,0,0.0771056,4.3889138,4.3889138)"
     id="g19" />
  <g
     transform="matrix(0.0771056,0,0,0.0771056,4.3889138,4.3889138)"
     id="g21" />
  <g
     transform="matrix(0.0771056,0,0,0.0771056,4.3889138,4.3889138)"
     id="g23" />
  <g
     transform="matrix(0.0771056,0,0,0.0771056,4.3889138,4.3889138)"
     id="g25" />
  <g
     transform="matrix(0.0771056,0,0,0.0771056,4.3889138,4.3889138)"
     id="g27" />
  <g
     transform="matrix(0.0771056,0,0,0.0771056,4.3889138,4.3889138)"
     id="g29" />
  <g
     transform="matrix(0.0771056,0,0,0.0771056,4.3889138,4.3889138)"
     id="g31" />
  <g
     transform="matrix(0.0771056,0,0,0.0771056,4.3889138,4.3889138)"
     id="g33" />
  <g
     transform="matrix(0.0771056,0,0,0.0771056,4.3889138,4.3889138)"
     id="g35" />
  <g
     transform="matrix(0.0771056,0,0,0.0771056,4.3889138,4.3889138)"
     id="g37" />
  <g
     transform="matrix(0.0771056,0,0,0.0771056,4.3889138,4.3889138)"
     id="g39" />
</svg>
