<?xml version="1.0" encoding="UTF-8" standalone="no"?>
<svg
   xmlns:dc="http://purl.org/dc/elements/1.1/"
   xmlns:cc="http://creativecommons.org/ns#"
   xmlns:rdf="http://www.w3.org/1999/02/22-rdf-syntax-ns#"
   xmlns:svg="http://www.w3.org/2000/svg"
   xmlns="http://www.w3.org/2000/svg"
   xmlns:sodipodi="http://sodipodi.sourceforge.net/DTD/sodipodi-0.dtd"
   xmlns:inkscape="http://www.inkscape.org/namespaces/inkscape"
   width="16"
   height="16"
   id="svg2"
   version="1.1"
   inkscape:version="0.91 r"
   sodipodi:docname="subway_almaty.svg">
  <defs
     id="defs13">
    <linearGradient
       gradientTransform="matrix(0.08596979,0,0,0.08596979,0.67480439,1.9432845)"
       x1="87.101639"
       y1="121.69753"
       x2="87.260849"
       y2="1.2385538"
       id="l1"
       gradientUnits="userSpaceOnUse">
      <stop
         style="stop-color:#e92203;stop-opacity:1"
         offset="0"
         id="stop5" />
      <stop
         style="stop-color:#ff0000;stop-opacity:0.64628822"
         offset="1"
         id="stop7" />
    </linearGradient>
    <linearGradient
       gradientTransform="matrix(0.08400469,0,0,0.08400469,0.8422306,2.0814238)"
       x1="87.101639"
       y1="121.69753"
       x2="87.260849"
       y2="1.2385538"
       id="l1-2"
       gradientUnits="userSpaceOnUse">
      <stop
         style="stop-color:#e92203;stop-opacity:1"
         offset="0"
         id="stop5-8" />
      <stop
         style="stop-color:#ff0000;stop-opacity:0.64628822"
         offset="1"
         id="stop7-4" />
    </linearGradient>
  </defs>
  <sodipodi:namedview
     pagecolor="#ffffff"
     bordercolor="#666666"
     borderopacity="1"
     objecttolerance="10"
     gridtolerance="10"
     guidetolerance="10"
     inkscape:pageopacity="0"
     inkscape:pageshadow="2"
     inkscape:window-width="1920"
     inkscape:window-height="1004"
     id="namedview11"
     showgrid="true"
     inkscape:zoom="32"
     inkscape:cx="13.440823"
     inkscape:cy="8.6231525"
     inkscape:window-x="1680"
     inkscape:window-y="0"
     inkscape:window-maximized="1"
     inkscape:current-layer="svg2"
     showguides="false"
     inkscape:snap-global="false">
    <sodipodi:guide
       position="0,0"
       orientation="0,580"
       id="guide2989" />
    <sodipodi:guide
       position="580,0"
       orientation="-580,0"
       id="guide2991" />
    <sodipodi:guide
       position="580,580"
       orientation="0,-580"
       id="guide2993" />
    <sodipodi:guide
       position="0,580"
       orientation="580,0"
       id="guide2995" />
    <sodipodi:guide
       position="0,0"
       orientation="0,580"
       id="guide2997" />
    <sodipodi:guide
       position="580,0"
       orientation="-580,0"
       id="guide2999" />
    <sodipodi:guide
       position="580,580"
       orientation="0,-580"
       id="guide3001" />
    <sodipodi:guide
       position="0,580"
       orientation="580,0"
       id="guide3003" />
    <inkscape:grid
       type="xygrid"
       id="grid3013"
       empspacing="5"
       visible="true"
       enabled="true"
       snapvisiblegridlinesonly="true" />
  </sodipodi:namedview>
  <metadata
     id="metadata2975">image/svg+xmlen<rdf:RDF>
  <cc:Work
     rdf:about="">
    <dc:format>image/svg+xml</dc:format>
    <dc:type
       rdf:resource="http://purl.org/dc/dcmitype/StillImage" />
    <dc:title />
  </cc:Work>
</rdf:RDF>
</metadata>
  <path
     sodipodi:type="inkscape:offset"
     inkscape:radius="0.47238174"
     inkscape:original="M 7.9375 3.9433594 C 5.380331 3.9433594 3.3027344 5.9018858 3.3027344 8.3125 C 3.3027344 8.4366137 3.3244639 8.5315771 3.3417969 8.6308594 C 3.0542659 8.5297489 2.7815883 8.4364021 2.4726562 8.3261719 L 2.34375 8.59375 L 7.9414062 12.056641 L 13.65625 8.5527344 L 13.527344 8.2832031 C 13.106591 8.5039416 12.725863 8.6730496 12.34375 8.8417969 C 12.34635 8.8288309 12.347109 8.8157204 12.349609 8.8027344 L 12.533203 8.734375 C 12.551053 8.5787505 12.572266 8.4725511 12.572266 8.3125 C 12.572266 5.9018861 10.494669 3.9433594 7.9375 3.9433594 z "
     style="color:#000000;clip-rule:nonzero;display:inline;overflow:visible;visibility:visible;opacity:1;isolation:auto;mix-blend-mode:normal;color-interpolation:sRGB;color-interpolation-filters:linearRGB;solid-color:#000000;solid-opacity:1;fill:#fefefe;fill-opacity:1;fill-rule:nonzero;stroke:none;stroke-width:1;stroke-linecap:butt;stroke-linejoin:miter;stroke-miterlimit:4;stroke-dasharray:none;stroke-dashoffset:0;stroke-opacity:1;marker:none;color-rendering:auto;image-rendering:auto;shape-rendering:auto;text-rendering:auto;enable-background:accumulate"
     id="path4336"
     d="m 7.9375,3.4707031 c -2.673903,0 -4.8423541,1.9906266 -5.0351562,4.5058594 C 2.8116968,7.9447941 2.726557,7.9150053 2.6308594,7.8808594 A 0.47242898,0.47242898 0 0 0 2.046875,8.1210938 L 1.9179688,8.3886719 a 0.47242898,0.47242898 0 0 0 0.1777343,0.6074219 l 5.5976563,3.4628902 a 0.47242898,0.47242898 0 0 0 0.4941406,0 L 13.902344,8.9550781 A 0.47242898,0.47242898 0 0 0 14.082031,8.3496094 L 13.953125,8.0800781 A 0.47242898,0.47242898 0 0 0 13.308594,7.8652344 C 13.194315,7.9251882 13.092036,7.9661087 12.982422,8.0195312 12.812952,5.4828102 10.627362,3.4707031 7.9375,3.4707031 Z"
     transform="matrix(0.97930016,0,0,0.97930016,0.16617001,0.16587141)" />
  <path
     style="color:#000000;clip-rule:nonzero;display:inline;overflow:visible;visibility:visible;opacity:1;isolation:auto;mix-blend-mode:normal;color-interpolation:sRGB;color-interpolation-filters:linearRGB;solid-color:#000000;solid-opacity:1;fill:#fefefe;fill-opacity:1;fill-rule:nonzero;stroke:none;stroke-width:1;stroke-linecap:butt;stroke-linejoin:miter;stroke-miterlimit:4;stroke-dasharray:none;stroke-dashoffset:0;stroke-opacity:1;marker:none;color-rendering:auto;image-rendering:auto;shape-rendering:auto;text-rendering:auto;enable-background:accumulate"
     d="M 7.9386989,4.2392217 C 5.513568,4.2390112 3.5475519,5.9929041 3.547788,8.1563755 c 0.0014,0.2617278 0.032177,0.5226724 0.091908,0.7789211 L 8.0489887,10.38655 12.246891,8.9004502 c 0.0541,-0.2451041 0.08181,-0.494264 0.08271,-0.7440747 2.4e-4,-2.1634716 -1.965777,-3.9173644 -4.3909062,-3.9171538 z"
     id="path4252-6"
     inkscape:connector-curvature="0"
     sodipodi:nodetypes="ccccccc" />
  <path
     style="color:#000000;clip-rule:nonzero;display:inline;overflow:visible;visibility:visible;opacity:1;isolation:auto;mix-blend-mode:normal;color-interpolation:sRGB;color-interpolation-filters:linearRGB;solid-color:#000000;solid-opacity:1;fill:#6caae4;fill-opacity:1;fill-rule:nonzero;stroke:none;stroke-width:1;stroke-linecap:butt;stroke-linejoin:miter;stroke-miterlimit:4;stroke-dasharray:none;stroke-dashoffset:0;stroke-opacity:1;marker:none;color-rendering:auto;image-rendering:auto;shape-rendering:auto;text-rendering:auto;enable-background:accumulate"
     d="m 8.0122416,4.6503758 c -2.5620505,0 -3.9816228,2.4435218 -3.3950348,4.4584935 L 8.1040508,10.38655 11.399624,9.0304488 C 11.932572,6.8017619 10.574291,4.6503758 8.0122416,4.6503758 Z"
     id="path4252"
     inkscape:connector-curvature="0"
     sodipodi:nodetypes="zcccz" />
  <g
     transform="matrix(0.06992327,0,0,0.06992327,4.725813,4.7255365)"
     id="g11" />
  <g
     transform="matrix(0.06992327,0,0,0.06992327,4.725813,4.7255365)"
     id="g13" />
  <g
     transform="matrix(0.06992327,0,0,0.06992327,4.725813,4.7255365)"
     id="g15" />
  <g
     transform="matrix(0.06992327,0,0,0.06992327,4.725813,4.7255365)"
     id="g17" />
  <g
     transform="matrix(0.06992327,0,0,0.06992327,4.725813,4.7255365)"
     id="g19" />
  <g
     transform="matrix(0.06992327,0,0,0.06992327,4.725813,4.7255365)"
     id="g21" />
  <g
     transform="matrix(0.06992327,0,0,0.06992327,4.725813,4.7255365)"
     id="g23" />
  <g
     transform="matrix(0.06992327,0,0,0.06992327,4.725813,4.7255365)"
     id="g25" />
  <g
     transform="matrix(0.06992327,0,0,0.06992327,4.725813,4.7255365)"
     id="g27" />
  <g
     transform="matrix(0.06992327,0,0,0.06992327,4.725813,4.7255365)"
     id="g29" />
  <g
     transform="matrix(0.06992327,0,0,0.06992327,4.725813,4.7255365)"
     id="g31" />
  <g
     transform="matrix(0.06992327,0,0,0.06992327,4.725813,4.7255365)"
     id="g33" />
  <g
     transform="matrix(0.06992327,0,0,0.06992327,4.725813,4.7255365)"
     id="g35" />
  <g
     transform="matrix(0.06992327,0,0,0.06992327,4.725813,4.7255365)"
     id="g37" />
  <g
     transform="matrix(0.06992327,0,0,0.06992327,4.725813,4.7255365)"
     id="g39" />
  <path
     style="color:#000000;font-style:normal;font-variant:normal;font-weight:normal;font-stretch:normal;font-size:medium;line-height:normal;font-family:sans-serif;text-indent:0;text-align:start;text-decoration:none;text-decoration-line:none;text-decoration-style:solid;text-decoration-color:#000000;letter-spacing:normal;word-spacing:normal;text-transform:none;direction:ltr;block-progression:tb;writing-mode:lr-tb;baseline-shift:baseline;text-anchor:start;white-space:normal;clip-rule:nonzero;display:inline;overflow:visible;visibility:visible;opacity:1;isolation:auto;mix-blend-mode:normal;color-interpolation:sRGB;color-interpolation-filters:linearRGB;solid-color:#000000;solid-opacity:1;fill:#3c88cf;fill-opacity:1;fill-rule:nonzero;stroke:none;stroke-width:1;stroke-linecap:butt;stroke-linejoin:miter;stroke-miterlimit:4;stroke-dasharray:none;stroke-dashoffset:0;stroke-opacity:1;marker:none;color-rendering:auto;image-rendering:auto;shape-rendering:auto;text-rendering:auto;enable-background:accumulate"
     d="m 7.9999945,4.026837 c -2.504236,0 -4.5388267,1.9179854 -4.5388267,4.2787001 0,0.1736897 0.03048,0.3210694 0.053857,0.4463707 0.1467809,0.050283 0.2679435,0.095129 0.4504334,0.1587538 -0.040607,-0.219225 -0.08835,-0.3748165 -0.08835,-0.6051245 0,-2.1490135 1.8432217,-3.8865975 4.122886,-3.8865975 2.2796623,2e-7 4.1228853,1.737584 4.1228853,3.8865975 0,0.2173824 -0.03823,0.3774229 -0.07449,0.585013 l 0.452464,-0.1702299 c 0.01749,-0.152403 0.03798,-0.2580449 0.03798,-0.4147831 0,-2.3607146 -2.034591,-4.2787 -4.5388258,-4.2787001 z"
     id="path4189"
     inkscape:connector-curvature="0"
     sodipodi:nodetypes="ssccsssccss" />
  <path
     style="fill:#2a2347;fill-opacity:1;fill-rule:evenodd;stroke:#3c88cf;stroke-width:0.29379004;stroke-linecap:square;stroke-linejoin:miter;stroke-miterlimit:4;stroke-dasharray:none;stroke-opacity:1"
     d="M 2.5381907,8.4578516 7.9427009,11.801182 13.462289,8.4158851 7.937291,10.383783 Z"
     id="path4214"
     inkscape:connector-curvature="0"
     sodipodi:nodetypes="ccccc" />
  <path
     style="fill:#d4cd58;fill-opacity:1;fill-rule:evenodd;stroke:none;stroke-width:0.1;stroke-linecap:butt;stroke-linejoin:miter;stroke-miterlimit:4;stroke-dasharray:none;stroke-opacity:1"
     d="M 7.3592463,8.7722349 C 7.1087711,8.7805883 6.838993,9.0706153 6.7242313,9.1547739 6.6094696,9.2389321 6.4411524,9.1777259 6.3340414,9.1241709 6.2269304,9.0706159 6.1963274,8.929076 6.1963274,8.929076 c 0,0 -0.1338888,-0.099461 -0.2792536,-0.045905 -0.1453649,0.053555 -0.1529439,0.1702552 -0.080333,0.3251581 0.057381,0.1224125 0.1892128,0.064609 0.3060313,0.076508 C 6.4466756,9.4759255 6.6266581,9.4531562 6.80839,9.3919483 6.9901221,9.3307401 7.1010055,9.0847842 7.3592464,9.0323616 7.5585623,8.9919013 7.8565474,9.2236317 7.8106426,9.3077897 7.7647375,9.3919478 7.5081491,9.2265279 7.3860239,9.2963137 7.2253575,9.3881228 7.0914688,9.6061703 7.1832781,9.7132813 7.2750872,9.8203925 7.3515954,9.6520742 7.5543412,9.5373134 7.8032633,9.3382098 7.9980865,9.8050907 7.9980865,9.8050907 l 0.00191,-0.00384 0.00191,0.00384 c 0,0 0.1772431,-0.3047561 0.4437453,-0.2677773 0.2307634,0.03202 0.2792559,0.2830792 0.3710654,0.1759683 C 8.9085328,9.6061705 8.7746447,9.3881235 8.613978,9.296314 8.4918528,9.2265283 8.2352643,9.3919481 8.1893596,9.30779 8.1434545,9.223632 8.4414398,8.991901 8.6407558,9.0323619 c 0.2582408,0.052423 0.3691243,0.2983787 0.5508564,0.3595868 0.1817317,0.061208 0.3617145,0.083978 0.6656179,-0.1071113 0.1168186,-0.011898 0.2486489,0.045905 0.3060309,-0.076508 0.0726,-0.154903 0.06503,-0.2716028 -0.08033,-0.3251582 -0.1453647,-0.053555 -0.2792529,0.045905 -0.2792529,0.045905 0,0 -0.030603,0.1415393 -0.137714,0.1950949 C 9.5588477,9.1777262 9.3905304,9.238933 9.2757686,9.1547741 9.1610056,9.0706153 8.8912274,8.7805846 8.6407523,8.7722349 8.4179525,8.7648078 8.2673497,8.8328818 7.9999993,9.0534012 7.732649,8.8328818 7.582046,8.7648078 7.3592463,8.7722349 Z"
     id="path4216"
     inkscape:connector-curvature="0"
     sodipodi:nodetypes="ssscsscsssssccccssssssccscssscs" />
  <path
     style="fill:#ff0d00;fill-opacity:1;fill-rule:evenodd;stroke:none;stroke-width:1px;stroke-linecap:butt;stroke-linejoin:miter;stroke-opacity:1"
     d="m 7.15937,4.9965739 -2.0791002,3.6322088 1.4402598,0 0.6732688,-1.3312362 0.8014195,1.1954348 0.8702766,-1.1954348 0.8339352,1.3312362 1.2069093,0 0.01339,-0.015302 L 8.9286114,5.0118754 7.9990413,6.5114287 7.1593681,4.9965739 Z"
     id="path4237"
     inkscape:connector-curvature="0" />
</svg>
