<?xml version="1.0" encoding="UTF-8" standalone="no"?>
<svg
   xmlns:dc="http://purl.org/dc/elements/1.1/"
   xmlns:cc="http://creativecommons.org/ns#"
   xmlns:rdf="http://www.w3.org/1999/02/22-rdf-syntax-ns#"
   xmlns:svg="http://www.w3.org/2000/svg"
   xmlns="http://www.w3.org/2000/svg"
   xmlns:sodipodi="http://sodipodi.sourceforge.net/DTD/sodipodi-0.dtd"
   xmlns:inkscape="http://www.inkscape.org/namespaces/inkscape"
   width="16"
   height="16"
   id="svg2"
   version="1.1"
   inkscape:version="0.91 r13725"
   sodipodi:docname="subway_shanghai.svg">
  <defs
     id="defs13">
    <sodipodi:namedview
       inkscape:current-layer="svg2"
       inkscape:window-maximized="1"
       inkscape:window-y="-8"
       inkscape:window-x="-8"
       inkscape:cy="65"
       inkscape:cx="77.5"
       inkscape:zoom="1.8153846"
       showgrid="false"
       id="namedview8-4"
       inkscape:window-height="837"
       inkscape:window-width="1440"
       inkscape:pageshadow="2"
       inkscape:pageopacity="0"
       guidetolerance="10"
       gridtolerance="10"
       objecttolerance="10"
       borderopacity="1"
       bordercolor="#666666"
       pagecolor="#ffffff" />
    <sodipodi:namedview
       inkscape:current-layer="svg2"
       inkscape:window-maximized="1"
       inkscape:window-y="-8"
       inkscape:window-x="-8"
       inkscape:cy="65"
       inkscape:cx="77.5"
       inkscape:zoom="1.8153846"
       showgrid="false"
       id="namedview8-1"
       inkscape:window-height="837"
       inkscape:window-width="1440"
       inkscape:pageshadow="2"
       inkscape:pageopacity="0"
       guidetolerance="10"
       gridtolerance="10"
       objecttolerance="10"
       borderopacity="1"
       bordercolor="#666666"
       pagecolor="#ffffff" />
  </defs>
  <sodipodi:namedview
     pagecolor="#ffffff"
     bordercolor="#666666"
     borderopacity="1"
     objecttolerance="10"
     gridtolerance="10"
     guidetolerance="10"
     inkscape:pageopacity="0"
     inkscape:pageshadow="2"
     inkscape:window-width="1920"
     inkscape:window-height="1006"
     id="namedview11"
     showgrid="true"
     inkscape:zoom="32"
     inkscape:cx="7.7911897"
     inkscape:cy="10.970402"
     inkscape:window-x="1920"
     inkscape:window-y="0"
     inkscape:window-maximized="1"
     inkscape:current-layer="svg2"
     showguides="false">
    <sodipodi:guide
       position="0,0"
       orientation="0,580"
       id="guide2989" />
    <sodipodi:guide
       position="580,0"
       orientation="-580,0"
       id="guide2991" />
    <sodipodi:guide
       position="580,580"
       orientation="0,-580"
       id="guide2993" />
    <sodipodi:guide
       position="0,580"
       orientation="580,0"
       id="guide2995" />
    <sodipodi:guide
       position="0,0"
       orientation="0,580"
       id="guide2997" />
    <sodipodi:guide
       position="580,0"
       orientation="-580,0"
       id="guide2999" />
    <sodipodi:guide
       position="580,580"
       orientation="0,-580"
       id="guide3001" />
    <sodipodi:guide
       position="0,580"
       orientation="580,0"
       id="guide3003" />
    <inkscape:grid
       type="xygrid"
       id="grid3013"
       empspacing="5"
       visible="true"
       enabled="true"
       snapvisiblegridlinesonly="true" />
  </sodipodi:namedview>
  <metadata
     id="metadata2975">image/svg+xmlen<rdf:RDF>
  <cc:Work
     rdf:about="">
    <dc:format>image/svg+xml</dc:format>
    <dc:type
       rdf:resource="http://purl.org/dc/dcmitype/StillImage" />
    <dc:title></dc:title>
  </cc:Work>
</rdf:RDF>
</metadata>
  <circle
     style="color:#000000;clip-rule:nonzero;display:inline;overflow:visible;visibility:visible;opacity:1;isolation:auto;mix-blend-mode:normal;color-interpolation:sRGB;color-interpolation-filters:linearRGB;solid-color:#000000;solid-opacity:1;fill:#fefefe;fill-opacity:1;fill-rule:nonzero;stroke:none;stroke-width:1;stroke-linecap:butt;stroke-linejoin:miter;stroke-miterlimit:4;stroke-dasharray:none;stroke-dashoffset:0;stroke-opacity:1;marker:none;color-rendering:auto;image-rendering:auto;shape-rendering:auto;text-rendering:auto;enable-background:accumulate"
     id="path4371"
     cx="8"
     cy="8"
     r="4.65625" />
  <g
     id="#fe0000ff"
     transform="matrix(0.03793705,0,0,0.03793705,4.0383472,3.8853149)">
    <path
       d="M 35.79,29.78 C 53.24,14.5 75.81,5.08 99.03,4.05 c 17.26,-0.89 34.88,2.5 50.42,10.15 28.23,13.61 49.58,40.4 56.88,70.83 1.09,2.75 -1.54,5.42 -4.27,5.16 -8.37,0.1 -16.76,0.11 -25.13,-0.04 -2.56,0.04 -3.47,-2.7 -4.15,-4.67 C 166.61,66.67 152.15,50.84 134.14,42.7 108.68,30.93 76.56,35.89 56.07,55.12 44.31,65.75 36.31,80.42 33.45,95.99 c -0.79,2.31 0.93,5.29 3.5,5.26 2.98,0.2 6.01,0.33 8.97,-0.17 2.52,-1.84 4.34,-4.44 6.4,-6.75 7.75,-8.93 15.36,-17.99 23.16,-26.88 1.35,-1.78 4.1,-2.71 5.8,-0.82 6.88,7.52 13.25,15.51 20.05,23.11 1.39,1.84 4.29,2.49 5.86,0.49 7.12,-7.62 13.39,-16.01 20.54,-23.59 1.96,-2.15 4.86,-0.63 6.29,1.3 8.57,10.09 17.28,20.06 25.86,30.15 1.39,1.49 2.8,3.56 5.15,3.21 12.99,0.12 26,-0.02 39,0.04 2.24,-0.22 4.94,1.09 4.73,3.7 0.81,19.11 -3.6,38.71 -13.75,55.03 -10.01,17.6 -25.2,32.21 -43.18,41.52 -14.44,7.66 -30.8,11.43 -47.11,11.41 l -0.52,0 c -37.82,0.57 -74.32,-22.01 -91.91,-55.28 -1.38,-3.05 -4.13,-6.43 -2.55,-9.91 1.87,-2.01 4.78,-1.47 7.23,-1.57 8.02,0.13 16.05,-0.1 24.06,0.09 2.92,-0.08 3.96,3.19 5.53,5.07 9.23,12.42 22.51,21.93 37.41,26.26 14.2,4.25 29.7,3.94 43.73,-0.83 17.73,-5.92 32.76,-19.21 41.18,-35.85 1.66,-2.36 -0.1,-5.83 -2.89,-6.1 -4.66,-0.43 -9.36,0.06 -14.04,-0.15 -1.21,-0.09 -2.64,-0.01 -3.5,-1.05 -3.38,-3.36 -6.29,-7.16 -9.46,-10.72 -2.82,-3.11 -5.05,-6.98 -9.01,-8.79 -4.16,2.75 -6.91,6.99 -10.18,10.64 -4.23,4.81 -8.2,9.84 -12.55,14.53 -1.38,1.67 -4.15,1.63 -5.5,-0.05 -7.65,-8.15 -14.15,-17.39 -22.3,-25.06 -3.96,1.05 -5.99,4.84 -8.59,7.66 -3.45,3.89 -6.62,8.05 -10.23,11.8 -1.14,1.31 -3.06,0.9 -4.58,1.06 -15.7,-0.01 -31.41,0.04 -47.12,0.05 -1.61,-0.06 -3.28,-0.01 -4.8,-0.62 -1.39,-1.37 -1.68,-3.39 -2.1,-5.21 C 1,123.53 0.36,118.02 0,112.5 l 0,-7.18 C 0.87,76.63 14.04,48.56 35.79,29.78 Z"
       id="path6"
       inkscape:connector-curvature="0"
       style="fill:#fe0000" />
  </g>
</svg>
