<?xml version="1.0" encoding="UTF-8" standalone="no"?>
<svg
   xmlns:dc="http://purl.org/dc/elements/1.1/"
   xmlns:cc="http://creativecommons.org/ns#"
   xmlns:rdf="http://www.w3.org/1999/02/22-rdf-syntax-ns#"
   xmlns:svg="http://www.w3.org/2000/svg"
   xmlns="http://www.w3.org/2000/svg"
   xmlns:sodipodi="http://sodipodi.sourceforge.net/DTD/sodipodi-0.dtd"
   xmlns:inkscape="http://www.inkscape.org/namespaces/inkscape"
   width="16"
   height="16"
   id="svg2"
   version="1.1"
   inkscape:version="0.91 r"
   sodipodi:docname="subway_lyon.svg">
  <defs
     id="defs13">
    <linearGradient
       gradientTransform="matrix(0.08596979,0,0,0.08596979,0.67480439,1.9432845)"
       x1="87.101639"
       y1="121.69753"
       x2="87.260849"
       y2="1.2385538"
       id="l1"
       gradientUnits="userSpaceOnUse">
      <stop
         style="stop-color:#e92203;stop-opacity:1"
         offset="0"
         id="stop5" />
      <stop
         style="stop-color:#ff0000;stop-opacity:0.64628822"
         offset="1"
         id="stop7" />
    </linearGradient>
    <linearGradient
       gradientTransform="matrix(0.08400469,0,0,0.08400469,0.8422306,2.0814238)"
       x1="87.101639"
       y1="121.69753"
       x2="87.260849"
       y2="1.2385538"
       id="l1-2"
       gradientUnits="userSpaceOnUse">
      <stop
         style="stop-color:#e92203;stop-opacity:1"
         offset="0"
         id="stop5-8" />
      <stop
         style="stop-color:#ff0000;stop-opacity:0.64628822"
         offset="1"
         id="stop7-4" />
    </linearGradient>
  </defs>
  <sodipodi:namedview
     pagecolor="#ffffff"
     bordercolor="#666666"
     borderopacity="1"
     objecttolerance="10"
     gridtolerance="10"
     guidetolerance="10"
     inkscape:pageopacity="0"
     inkscape:pageshadow="2"
     inkscape:window-width="1920"
     inkscape:window-height="1004"
     id="namedview11"
     showgrid="true"
     inkscape:zoom="45.254834"
     inkscape:cx="10.405491"
     inkscape:cy="7.2894953"
     inkscape:window-x="1680"
     inkscape:window-y="0"
     inkscape:window-maximized="1"
     inkscape:current-layer="svg2"
     showguides="false"
     inkscape:snap-global="false">
    <sodipodi:guide
       position="0,0"
       orientation="0,580"
       id="guide2989" />
    <sodipodi:guide
       position="580,0"
       orientation="-580,0"
       id="guide2991" />
    <sodipodi:guide
       position="580,580"
       orientation="0,-580"
       id="guide2993" />
    <sodipodi:guide
       position="0,580"
       orientation="580,0"
       id="guide2995" />
    <sodipodi:guide
       position="0,0"
       orientation="0,580"
       id="guide2997" />
    <sodipodi:guide
       position="580,0"
       orientation="-580,0"
       id="guide2999" />
    <sodipodi:guide
       position="580,580"
       orientation="0,-580"
       id="guide3001" />
    <sodipodi:guide
       position="0,580"
       orientation="580,0"
       id="guide3003" />
    <inkscape:grid
       type="xygrid"
       id="grid3013"
       empspacing="5"
       visible="true"
       enabled="true"
       snapvisiblegridlinesonly="true" />
  </sodipodi:namedview>
  <metadata
     id="metadata2975">image/svg+xmlen<rdf:RDF>
  <cc:Work
     rdf:about="">
    <dc:format>image/svg+xml</dc:format>
    <dc:type
       rdf:resource="http://purl.org/dc/dcmitype/StillImage" />
    <dc:title />
  </cc:Work>
</rdf:RDF>
</metadata>
  <path
     sodipodi:type="inkscape:offset"
     inkscape:radius="0.46965307"
     inkscape:original="M 8.015625 4.7558594 C 7.3734965 4.7558594 6.8439147 4.8258382 6.2734375 4.9863281 C 5.1926252 5.2903886 4.2689201 5.8240437 3.4707031 6.6054688 C 2.9768429 7.0889396 2.6021043 7.5850307 2.2851562 8.1777344 C 1.8163389 9.0544424 1.5641038 9.9798149 1.5214844 10.980469 L 1.5117188 11.244141 L 8 11.244141 L 14.488281 11.244141 L 14.478516 10.964844 C 14.420698 9.4391764 13.802423 7.9540521 12.755859 6.8300781 C 12.188704 6.2209766 11.599493 5.7835185 10.851562 5.4140625 C 9.9399453 4.9637495 9.0422855 4.7558594 8.015625 4.7558594 z "
     style="opacity:0.69435215;fill:#fefefe;fill-opacity:1"
     id="path4258"
     d="m 8.015625,4.2871094 c -0.6762502,0 -1.2599832,0.076675 -1.8691406,0.2480468 C 4.9949201,4.8591211 3.9938408,5.4361764 3.1425781,6.2695312 2.6188212,6.7822698 2.2092445,7.3246778 1.8710938,7.9570312 1.3705047,8.8931538 1.0981823,9.8938727 1.0527344,10.960938 a 0.46970004,0.46970004 0 0 0 0,0.002 l -0.00977,0.263671 a 0.46970004,0.46970004 0 0 0 0.46875,0.486329 l 6.4882812,0 6.488281,0 a 0.46970004,0.46970004 0 0 0 0.46875,-0.484375 l -0.0098,-0.279297 a 0.46970004,0.46970004 0 0 0 0,-0.002 C 14.885086,9.3065121 14.223912,7.7172284 13.099609,6.5097656 12.49833,5.8640154 11.850697,5.3834631 11.058594,4.9921875 10.088675,4.513075 9.105686,4.2871094 8.015625,4.2871094 Z" />
  <flowRoot
     transform="matrix(0.05804414,0,0,0.05804414,3.9867856,5.910411)"
     xml:space="preserve"
     id="flowRoot2988"
     style="font-style:normal;font-weight:normal;font-size:40px;line-height:125%;font-family:Sans;letter-spacing:0px;word-spacing:0px;fill:#000000;fill-opacity:1;stroke:none"><flowRegion
       id="flowRegion2990"><rect
         id="rect2992"
         width="60"
         height="46"
         x="9"
         y="9" /></flowRegion><flowPara
       id="flowPara2994" /></flowRoot>  <path
     inkscape:connector-curvature="0"
     id="path2231"
     d="M 1.5221657,10.980933 C 1.5647851,9.9802792 1.8170842,9.0541526 2.2859015,8.1774446 2.6028495,7.5847409 2.9766886,7.0885478 3.4705488,6.6050769 4.2687658,5.8236519 5.1921972,5.2901992 6.2730095,4.9861387 6.8434867,4.8256488 7.3735624,4.755492 8.0156909,4.755492 c 1.0266605,0 1.9242399,0.2085316 2.8358571,0.6588446 0.747931,0.369456 1.336717,0.8075731 1.903871,1.4166746 1.046564,1.123974 1.665129,2.6080344 1.722948,4.1337018 l 0.01065,0.279795 -6.4890154,0 -6.4890161,0 0.011261,-0.263575 z"
     style="fill:#ea2a2d"
     sodipodi:nodetypes="csssssscccccc" />
  <path
     style="fill:#fefefe;fill-opacity:1"
     d="M 10.15625 6.6367188 L 9.1386719 7.3808594 C 8.5792571 7.7894706 8.1034706 8.1355815 8.0820312 8.1503906 C 8.0535979 8.1700356 8.0354835 8.1738108 8.0136719 8.1621094 C 7.9972337 8.1532966 7.5185059 7.807099 6.9511719 7.3925781 L 5.9199219 6.6386719 L 5.2011719 6.6386719 L 4.4824219 6.6386719 L 4.4824219 8.5898438 C 4.4824219 9.6633366 4.4860715 10.546705 4.4921875 10.552734 C 4.4981875 10.558734 4.8646361 10.560994 5.3066406 10.558594 L 6.1113281 10.554688 L 6.1152344 9.4882812 C 6.1186644 8.6036823 6.122245 8.4191645 6.140625 8.4121094 C 6.153024 8.4073394 6.5723748 8.6877115 7.0917969 9.046875 L 8.0195312 9.6875 L 8.0625 9.6601562 C 8.0857315 9.6451865 8.5057108 9.3597719 8.9960938 9.0253906 C 9.4864753 8.6910105 9.900477 8.4143913 9.9160156 8.4101562 C 9.9426376 8.4029362 9.9452898 8.4639592 9.9492188 9.4707031 L 9.953125 10.539062 L 10.771484 10.539062 L 11.589844 10.539062 L 11.589844 8.5917969 L 11.589844 6.6464844 L 10.873047 6.6425781 L 10.15625 6.6367188 z "
     id="path2233" />
</svg>
