<?xml version="1.0" encoding="UTF-8" standalone="no"?>
<svg
   xmlns:dc="http://purl.org/dc/elements/1.1/"
   xmlns:cc="http://creativecommons.org/ns#"
   xmlns:rdf="http://www.w3.org/1999/02/22-rdf-syntax-ns#"
   xmlns:svg="http://www.w3.org/2000/svg"
   xmlns="http://www.w3.org/2000/svg"
   xmlns:sodipodi="http://sodipodi.sourceforge.net/DTD/sodipodi-0.dtd"
   xmlns:inkscape="http://www.inkscape.org/namespaces/inkscape"
   width="16"
   height="16"
   id="svg2"
   version="1.1"
   inkscape:version="0.91 r"
   sodipodi:docname="subway_paris.svg">
  <defs
     id="defs13" />
  <sodipodi:namedview
     pagecolor="#ffffff"
     bordercolor="#666666"
     borderopacity="1"
     objecttolerance="10"
     gridtolerance="10"
     guidetolerance="10"
     inkscape:pageopacity="0"
     inkscape:pageshadow="2"
     inkscape:window-width="1920"
     inkscape:window-height="1004"
     id="namedview11"
     showgrid="true"
     inkscape:zoom="45.254834"
     inkscape:cx="10.093603"
     inkscape:cy="7.8665353"
     inkscape:window-x="1680"
     inkscape:window-y="0"
     inkscape:window-maximized="1"
     inkscape:current-layer="svg2"
     showguides="false">
    <sodipodi:guide
       position="0,0"
       orientation="0,580"
       id="guide2989" />
    <sodipodi:guide
       position="580,0"
       orientation="-580,0"
       id="guide2991" />
    <sodipodi:guide
       position="580,580"
       orientation="0,-580"
       id="guide2993" />
    <sodipodi:guide
       position="0,580"
       orientation="580,0"
       id="guide2995" />
    <sodipodi:guide
       position="0,0"
       orientation="0,580"
       id="guide2997" />
    <sodipodi:guide
       position="580,0"
       orientation="-580,0"
       id="guide2999" />
    <sodipodi:guide
       position="580,580"
       orientation="0,-580"
       id="guide3001" />
    <sodipodi:guide
       position="0,580"
       orientation="580,0"
       id="guide3003" />
    <inkscape:grid
       type="xygrid"
       id="grid3013"
       empspacing="5"
       visible="true"
       enabled="true"
       snapvisiblegridlinesonly="true" />
  </sodipodi:namedview>
  <metadata
     id="metadata2975">image/svg+xmlen<rdf:RDF>
  <cc:Work
     rdf:about="">
    <dc:format>image/svg+xml</dc:format>
    <dc:type
       rdf:resource="http://purl.org/dc/dcmitype/StillImage" />
    <dc:title />
  </cc:Work>
</rdf:RDF>
</metadata>
  <path
     sodipodi:type="inkscape:offset"
     inkscape:radius="0.70770127"
     inkscape:original="M 8.0175781 0.72460938 C 3.9975677 0.72460938 0.72460938 3.9971209 0.72460938 8.0351562 C 0.72460938 12.036593 3.9975677 15.275391 8.0175781 15.275391 C 12.037588 15.275391 15.275391 12.054508 15.275391 8.0351562 C 15.275391 3.9971208 11.892034 0.72460937 8.0175781 0.72460938 z "
     style="opacity:1;fill:#fefefe;fill-opacity:1"
     id="path4214"
     d="m 8.0175781,0.01757813 c -4.4040824,0 -7.99999997,3.59713297 -7.99999997,8.01757807 0,4.3873448 3.59987427,7.9472658 7.99999997,7.9472658 4.3980229,0 7.9648439,-3.547853 7.9648439,-7.9472658 0,-4.4333441 -3.691887,-8.01757809 -7.9648439,-8.01757807 z"
     transform="matrix(0.52300213,0,0,0.52300213,3.815983,3.815983)" />
  <path
     inkscape:connector-curvature="0"
     d="m 11.644166,8.0180744 c 0,-2.0224758 -1.6946466,-3.6622408 -3.6351927,-3.6622408 -2.0134479,0 -3.6531397,1.639765 -3.6531397,3.6622408 0,2.0041456 1.6396918,3.6260916 3.6531397,3.6260916 2.0134477,0 3.6351927,-1.612974 3.6351927,-3.6260916"
     id="path3157"
     style="fill:#14489e;fill-opacity:1" />
  <path
     inkscape:connector-curvature="0"
     d="m 11.143122,8.0180744 c 0,1.7128311 -1.4119965,3.1427176 -3.1341305,3.1427176 -1.7306861,0 -3.1520942,-1.4117019 -3.1520942,-3.1427176 0,-1.7397324 1.4214081,-3.1795994 3.1520942,-3.1795994 1.7221159,0 3.1341305,1.4487118 3.1341305,3.1795994 z"
     id="path3155"
     style="fill:#fefefe;fill-opacity:1" />
  <path
     inkscape:connector-curvature="0"
     d="m 9.8126889,9.6305174 0,-3.1793065 c 0,-0.1821166 -0.099839,-0.3734629 -0.400657,-0.3734629 -0.2273854,0 -0.3188367,0.100242 -0.4189324,0.3008361 l -0.9841262,2.0496879 -0.00897,0 L 7.0068824,6.3785841 C 6.9066403,6.17799 6.8156643,6.077748 6.5877116,6.077748 c -0.3005796,0 -0.40084,0.1913463 -0.40084,0.3734629 l 0,3.1793065 c 0,0.1735834 0.1368302,0.2733854 0.300598,0.2733854 0.1456568,0 0.3096809,-0.099802 0.3096809,-0.2733854 l 0,-2.3684702 0.00925,0 0.9018672,1.8402311 c 0.063782,0.127582 0.1459497,0.2007582 0.2917348,0.2007582 0.1455285,0 0.2276962,-0.073176 0.2915882,-0.2007582 l 0.9017209,-1.8402311 0.00926,0 0,2.3684702 c 0,0.1735834 0.163749,0.2733854 0.3095528,0.2733854 0.1642804,0 0.3005609,-0.099802 0.3005609,-0.2733854 z"
     id="path3"
     style="fill:#14489e;fill-opacity:1" />
</svg>
