<svg width="12" height="12" viewBox="0 0 12 12" fill="none" xmlns="http://www.w3.org/2000/svg">
<path fill-rule="evenodd" clip-rule="evenodd" d="M0 5C0 4.44772 0.447715 4 1 4H1.41637C2.18783 2.23448 3.94877 1 6 1C8.05123 1 9.81217 2.23448 10.5836 4H11C11.5523 4 12 4.44772 12 5V7C12 7.55228 11.5523 8 11 8H10.5836C9.81217 9.76552 8.05123 11 6 11C3.94877 11 2.18783 9.76552 1.41637 8H1C0.447715 8 0 7.55228 0 7V5Z" fill="white"/>
<path d="M9.32962 6C9.32962 7.8389 7.8389 9.32962 6 9.32962C4.1611 9.32962 2.67038 7.8389 2.67038 6C2.67038 4.1611 4.1611 2.67038 6 2.67038C7.8389 2.67038 9.32962 4.1611 9.32962 6Z" stroke="#DC241F" stroke-width="1.34075"/>
<rect x="1" y="5" width="10" height="2" fill="#0019A8"/>
</svg>
