<?xml version="1.0" encoding="UTF-8" standalone="no"?>
<svg
   xmlns:dc="http://purl.org/dc/elements/1.1/"
   xmlns:cc="http://creativecommons.org/ns#"
   xmlns:rdf="http://www.w3.org/1999/02/22-rdf-syntax-ns#"
   xmlns:svg="http://www.w3.org/2000/svg"
   xmlns="http://www.w3.org/2000/svg"
   xmlns:sodipodi="http://sodipodi.sourceforge.net/DTD/sodipodi-0.dtd"
   xmlns:inkscape="http://www.inkscape.org/namespaces/inkscape"
   width="16"
   height="16"
   id="svg2"
   version="1.1"
   inkscape:version="0.91 r13725"
   sodipodi:docname="subway_santiago.svg">
  <defs
     id="defs13">
    <linearGradient
       gradientTransform="matrix(0.08596979,0,0,0.08596979,0.67480439,1.9432845)"
       x1="87.101639"
       y1="121.69753"
       x2="87.260849"
       y2="1.2385538"
       id="l1"
       gradientUnits="userSpaceOnUse">
      <stop
         style="stop-color:#e92203;stop-opacity:1"
         offset="0"
         id="stop5" />
      <stop
         style="stop-color:#ff0000;stop-opacity:0.64628822"
         offset="1"
         id="stop7" />
    </linearGradient>
    <linearGradient
       gradientTransform="matrix(0.08400469,0,0,0.08400469,0.8422306,2.0814238)"
       x1="87.101639"
       y1="121.69753"
       x2="87.260849"
       y2="1.2385538"
       id="l1-2"
       gradientUnits="userSpaceOnUse">
      <stop
         style="stop-color:#e92203;stop-opacity:1"
         offset="0"
         id="stop5-8" />
      <stop
         style="stop-color:#ff0000;stop-opacity:0.64628822"
         offset="1"
         id="stop7-4" />
    </linearGradient>
  </defs>
  <sodipodi:namedview
     pagecolor="#ffffff"
     bordercolor="#666666"
     borderopacity="1"
     objecttolerance="10"
     gridtolerance="10"
     guidetolerance="10"
     inkscape:pageopacity="0"
     inkscape:pageshadow="2"
     inkscape:window-width="1920"
     inkscape:window-height="1006"
     id="namedview11"
     showgrid="true"
     inkscape:zoom="32"
     inkscape:cx="8.6249746"
     inkscape:cy="10.246236"
     inkscape:window-x="1920"
     inkscape:window-y="0"
     inkscape:window-maximized="1"
     inkscape:current-layer="svg2"
     showguides="false"
     inkscape:snap-global="false">
    <sodipodi:guide
       position="0,0"
       orientation="0,580"
       id="guide2989" />
    <sodipodi:guide
       position="580,0"
       orientation="-580,0"
       id="guide2991" />
    <sodipodi:guide
       position="580,580"
       orientation="0,-580"
       id="guide2993" />
    <sodipodi:guide
       position="0,580"
       orientation="580,0"
       id="guide2995" />
    <sodipodi:guide
       position="0,0"
       orientation="0,580"
       id="guide2997" />
    <sodipodi:guide
       position="580,0"
       orientation="-580,0"
       id="guide2999" />
    <sodipodi:guide
       position="580,580"
       orientation="0,-580"
       id="guide3001" />
    <sodipodi:guide
       position="0,580"
       orientation="580,0"
       id="guide3003" />
    <inkscape:grid
       type="xygrid"
       id="grid3013"
       empspacing="5"
       visible="true"
       enabled="true"
       snapvisiblegridlinesonly="true" />
  </sodipodi:namedview>
  <metadata
     id="metadata2975">image/svg+xmlen<rdf:RDF>
  <cc:Work
     rdf:about="">
    <dc:format>image/svg+xml</dc:format>
    <dc:type
       rdf:resource="http://purl.org/dc/dcmitype/StillImage" />
    <dc:title />
  </cc:Work>
</rdf:RDF>
</metadata>
  <path
     style="fill:#fefefe;color:#000000;clip-rule:nonzero;display:inline;overflow:visible;visibility:visible;opacity:1;isolation:auto;mix-blend-mode:normal;color-interpolation:sRGB;color-interpolation-filters:linearRGB;solid-color:#000000;solid-opacity:1;fill-opacity:1;fill-rule:nonzero;stroke:none;stroke-width:1;stroke-linecap:butt;stroke-linejoin:miter;stroke-miterlimit:4;stroke-dasharray:none;stroke-dashoffset:0;stroke-opacity:1;filter-blend-mode:normal;filter-gaussianBlur-deviation:0;color-rendering:auto;image-rendering:auto;shape-rendering:auto;text-rendering:auto;enable-background:accumulate"
     d="m 8,4.0527344 c -0.5057715,0 -0.9923473,0.062086 -1.4589844,0.1855468 C 4.7525569,4.7094069 3.2128906,6.1215364 3.2128906,8 c 0,0.2257685 0.025921,0.4426457 0.064453,0.6386719 C 3.6583736,10.574184 5.6657098,11.947266 8,11.947266 10.586646,11.947266 12.787109,10.238501 12.787109,8 12.787109,5.7613469 10.586621,4.0527344 8,4.0527344 Z"
     id="path4189"
     inkscape:connector-curvature="0"
     sodipodi:nodetypes="scscsss" />
  <path
     style="fill:#d00a2c"
     inkscape:connector-curvature="0"
     id="path5"
     d="M 9.0514219,7.9883759 7.9851024,9.9182614 6.9177429,7.9883759 7.9851636,6.0584897 9.0514219,7.9883759 Z m 2.1494021,0 -1.066931,1.9298855 -1.067543,-1.9298855 1.067543,-1.9298862 1.066931,1.9298862 z m -4.2980092,0 L 5.8366789,9.9182614 4.7691358,7.9883759 5.8366789,6.0584897 6.9028148,7.9883759 Z M 8.0002141,4.5431647 c 2.3734459,0 4.2967859,1.5475672 4.2967859,3.4568966 0,1.9091454 -1.92334,3.4567737 -4.2967859,3.4567737 -2.1415714,0 -3.9183217,-1.261547 -4.2430693,-2.9111639 -0.032915,-0.1674517 -0.054145,-0.3577241 -0.054145,-0.5456098 0,-1.6060559 1.339308,-2.8590994 2.9639019,-3.2870589 C 7.0919244,4.6005522 7.5348119,4.5431647 8.000214,4.5431647 M 4.0255448,8.1315382 c 0.08033,1.5639639 1.632731,2.8312628 3.6006102,2.9747928 0.165861,0.01174 0.3323338,0.01572 0.499602,0.01095 1.953685,-0.05384 3.546404,-1.2538381 3.771549,-2.7485448 0.02539,-0.1685535 0.03775,-0.3416334 0.03377,-0.515999 -0.0069,-0.3278639 -0.07103,-0.643618 -0.207647,-0.9309843 C 11.218995,5.8405027 9.9680322,5.0390959 8.4590086,4.9015615 8.2618231,4.882412 8.0623737,4.8761715 7.8618232,4.8810048 7.5908537,4.8877347 7.3274704,4.9153884 7.0730809,4.9620081 5.8497104,5.1662295 4.2607849,6.1018669 4.0467746,7.6611805 c -0.0238,0.1632303 -0.021719,0.3527077 -0.02123,0.4703577" />
  <path
     sodipodi:type="inkscape:offset"
     inkscape:radius="0"
     inkscape:original="M 8 4.5429688 C 7.5345979 4.5429688 7.0910383 4.6004404 6.6660156 4.7128906 C 5.0414217 5.1408501 3.703125 6.3939441 3.703125 8 C 3.703125 8.1878857 3.7248975 8.3774702 3.7578125 8.5449219 C 4.0825601 10.194538 5.8584286 11.457031 8 11.457031 C 10.373446 11.457031 12.296875 9.9091454 12.296875 8 C 12.296875 6.0906706 10.373446 4.5429688 8 4.5429688 z M 7.8613281 4.8808594 C 8.0618786 4.8760261 8.2617989 4.8831943 8.4589844 4.9023438 C 9.968008 5.0398782 11.218222 5.8406248 11.722656 6.921875 C 11.859273 7.2092413 11.924741 7.5256517 11.931641 7.8535156 C 11.935621 8.0278812 11.921874 8.2005871 11.896484 8.3691406 C 11.671339 9.8638473 10.078685 11.063348 8.125 11.117188 C 7.9577318 11.121958 7.7928141 11.117209 7.6269531 11.105469 C 5.6590739 10.961939 4.1057206 9.6948233 4.0253906 8.1308594 C 4.0249016 8.0132094 4.023075 7.8253397 4.046875 7.6621094 C 4.2608853 6.1027958 5.8488951 5.167112 7.0722656 4.9628906 C 7.3266551 4.9162709 7.5903586 4.8875893 7.8613281 4.8808594 z M 5.8359375 6.0585938 L 4.7695312 7.9882812 L 5.8359375 9.9179688 L 6.9023438 7.9882812 L 5.8359375 6.0585938 z M 7.984375 6.0585938 L 6.9179688 7.9882812 L 7.984375 9.9179688 L 9.0507812 7.9882812 L 7.984375 6.0585938 z M 10.134766 6.0585938 L 9.0664062 7.9882812 L 10.134766 9.9179688 L 11.201172 7.9882812 L 10.134766 6.0585938 z "
     style="fill:#d00a2c"
     id="path4170"
     d="m 8,4.5429688 c -0.4654021,0 -0.9089617,0.057472 -1.3339844,0.1699218 C 5.0414217,5.1408501 3.703125,6.3939441 3.703125,8 c 0,0.1878857 0.021772,0.3774702 0.054687,0.5449219 C 4.0825601,10.194538 5.8584286,11.457031 8,11.457031 10.373446,11.457031 12.296875,9.9091454 12.296875,8 12.296875,6.0906706 10.373446,4.5429688 8,4.5429688 Z M 7.8613281,4.8808594 c 0.2005505,-0.00483 0.4004708,0.00233 0.5976563,0.021484 1.5090236,0.1375344 2.7592376,0.938281 3.2636716,2.0195312 0.136617,0.2873663 0.202085,0.6037767 0.208985,0.9316406 0.004,0.1743656 -0.0098,0.3470715 -0.03516,0.515625 C 11.671339,9.8638473 10.078685,11.063348 8.125,11.117188 7.9577318,11.121958 7.7928141,11.117209 7.6269531,11.105469 5.6590739,10.961939 4.1057206,9.6948233 4.0253906,8.1308594 4.0249016,8.0132094 4.023075,7.8253397 4.046875,7.6621094 4.2608853,6.1027958 5.8488951,5.167112 7.0722656,4.9628906 7.3266551,4.9162709 7.5903586,4.8875893 7.8613281,4.8808594 Z M 5.8359375,6.0585938 4.7695312,7.9882812 5.8359375,9.9179688 6.9023438,7.9882812 5.8359375,6.0585938 Z m 2.1484375,0 L 6.9179688,7.9882812 7.984375,9.9179688 9.0507812,7.9882812 7.984375,6.0585938 Z m 2.150391,0 -1.0683598,1.9296874 1.0683598,1.9296876 1.066406,-1.9296876 -1.066406,-1.9296874 z" />
</svg>
