<svg width="48" height="48" viewBox="0 0 48 48" fill="none" xmlns="http://www.w3.org/2000/svg">
<path d="M44 4H4V44H44V4Z" fill="white"/>
<path d="M40 8H8V40H40V8Z" fill="#0664AB"/>
<path d="M25.131 35.9476C27.0641 35.7682 28.8701 35.1836 30.3043 34.273C31.025 33.8154 32.0415 32.8679 32.4834 32.2417C33.1292 31.3266 33.5982 30.2272 33.8491 29.0401C33.9463 28.5803 33.9582 27.7725 33.9781 20.2668L34 12H28.041V19.5691C28.041 24.5449 28.018 27.3339 27.9739 27.7094C27.895 28.3821 27.6623 29.1862 27.4259 29.6025C27.1294 30.1248 26.5822 30.6219 26.0113 30.8876C24.4407 31.6184 22.1425 31.3553 21.0532 30.3198C20.4984 29.7925 20.1173 28.9434 19.9573 27.8783C19.9182 27.618 19.8942 24.5559 19.8934 19.7306L19.8922 12H14V19.8286C14 27.6828 14.0158 28.3458 14.2272 29.338C14.7492 31.7886 16.3576 33.739 18.82 34.9074C20.6248 35.7638 22.9613 36.1489 25.131 35.9476Z" fill="white"/>
</svg>
