<svg width="12" height="12" viewBox="0 0 12 12" fill="none" xmlns="http://www.w3.org/2000/svg">
<rect x="2" y="2" width="8" height="8" fill="#242021"/>
<path d="M2 3.44276V2.37266L7.97802 4.65C8.17209 4.72393 8.30025 4.91013 8.30002 5.11781C8.29979 5.32548 8.1712 5.51139 7.97697 5.58489L5.99282 6.38005C5.93675 6.40252 5.9 6.45684 5.9 6.51725C5.9 6.57765 5.93675 6.63198 5.99282 6.65445L7.97697 7.4496C8.1712 7.5231 8.29979 7.70901 8.30002 7.91668C8.30025 8.12436 8.17209 8.31056 7.97802 8.38449L3.73731 10H2V9.59263L6.05677 8.05264C6.11289 8.03133 6.15 7.97755 6.15 7.91752C6.15 7.85722 6.11256 7.80325 6.05607 7.78214L3.92307 6.98489C3.72864 6.91132 3.60002 6.72513 3.60002 6.51724C3.60002 6.30936 3.72864 6.12317 3.92307 6.0496L6.39135 5.11566L2 3.44276Z" fill="#59AB42"/>
<path fill-rule="evenodd" clip-rule="evenodd" d="M10.3401 1H1.6599C1.29545 1 1 1.29545 1 1.6599V10.3401C1 10.7046 1.29545 11 1.6599 11H10.3401C10.7046 11 11 10.7046 11 10.3401V1.6599C11 1.29545 10.7046 1 10.3401 1ZM2 2.92552V9.07539L6.05677 7.53539C6.11289 7.51409 6.15 7.46031 6.15 7.40027C6.15 7.33997 6.11256 7.28601 6.05607 7.26489L3.92307 6.46764C3.72864 6.39407 3.60002 6.20788 3.60002 6C3.60002 5.79212 3.72864 5.60592 3.92307 5.53235L6.39135 4.59841L2 2.92552ZM2.37952 10H10V2H2.37955L7.97802 4.13275C8.17209 4.20668 8.30025 4.39288 8.30002 4.60056C8.29979 4.80823 8.1712 4.99415 7.97697 5.06764L5.99282 5.8628C5.93675 5.88527 5.9 5.9396 5.9 6C5.9 6.0604 5.93675 6.11473 5.99282 6.1372L7.97697 6.93235C8.1712 7.00585 8.29979 7.19176 8.30002 7.39943C8.30025 7.60711 8.17209 7.79331 7.97802 7.86724L2.37952 10Z" fill="#FEFEFE"/>
</svg>
