<?xml version="1.0" encoding="UTF-8" standalone="no"?>
<svg
   xmlns:dc="http://purl.org/dc/elements/1.1/"
   xmlns:cc="http://creativecommons.org/ns#"
   xmlns:rdf="http://www.w3.org/1999/02/22-rdf-syntax-ns#"
   xmlns:svg="http://www.w3.org/2000/svg"
   xmlns="http://www.w3.org/2000/svg"
   xmlns:sodipodi="http://sodipodi.sourceforge.net/DTD/sodipodi-0.dtd"
   xmlns:inkscape="http://www.inkscape.org/namespaces/inkscape"
   width="16"
   height="16"
   id="svg2"
   version="1.1"
   inkscape:version="0.91 r"
   sodipodi:docname="subway_kyiv.svg">
  <defs
     id="defs13" />
  <sodipodi:namedview
     pagecolor="#ffffff"
     bordercolor="#666666"
     borderopacity="1"
     objecttolerance="10"
     gridtolerance="10"
     guidetolerance="10"
     inkscape:pageopacity="0"
     inkscape:pageshadow="2"
     inkscape:window-width="1920"
     inkscape:window-height="1006"
     id="namedview11"
     showgrid="true"
     inkscape:zoom="32"
     inkscape:cx="10.843501"
     inkscape:cy="9.4770876"
     inkscape:window-x="1680"
     inkscape:window-y="0"
     inkscape:window-maximized="1"
     inkscape:current-layer="svg2"
     showguides="false"
     inkscape:snap-global="false">
    <sodipodi:guide
       position="0,0"
       orientation="0,580"
       id="guide2989" />
    <sodipodi:guide
       position="580,0"
       orientation="-580,0"
       id="guide2991" />
    <sodipodi:guide
       position="580,580"
       orientation="0,-580"
       id="guide2993" />
    <sodipodi:guide
       position="0,580"
       orientation="580,0"
       id="guide2995" />
    <sodipodi:guide
       position="0,0"
       orientation="0,580"
       id="guide2997" />
    <sodipodi:guide
       position="580,0"
       orientation="-580,0"
       id="guide2999" />
    <sodipodi:guide
       position="580,580"
       orientation="0,-580"
       id="guide3001" />
    <sodipodi:guide
       position="0,580"
       orientation="580,0"
       id="guide3003" />
    <inkscape:grid
       type="xygrid"
       id="grid3013"
       empspacing="5"
       visible="true"
       enabled="true"
       snapvisiblegridlinesonly="true" />
  </sodipodi:namedview>
  <metadata
     id="metadata2975">image/svg+xmlen<rdf:RDF>
  <cc:Work
     rdf:about="">
    <dc:format>image/svg+xml</dc:format>
    <dc:type
       rdf:resource="http://purl.org/dc/dcmitype/StillImage" />
    <dc:title />
  </cc:Work>
</rdf:RDF>
</metadata>
  <path
     sodipodi:type="inkscape:offset"
     inkscape:radius="-11.77381"
     inkscape:original="M 222.08008 26.892578 A 42.119869 42.119869 0 0 0 181.17578 58.267578 L 109.07617 331.86719 A 42.119869 42.119869 0 0 0 149.57812 384.71484 L 206.67773 385.01562 A 42.119869 42.119869 0 0 0 247.70312 353.33398 L 249.05469 348.04883 L 259.52148 370.19531 A 42.119869 42.119869 0 0 0 335.66602 370.21875 L 346.2168 347.93164 L 347.59766 353.33398 A 42.119869 42.119869 0 0 0 388.62305 385.01562 L 445.72266 384.71484 A 42.119869 42.119869 0 0 0 486.22461 331.86719 L 414.125 58.267578 A 42.119869 42.119869 0 0 0 335.79102 50.044922 L 297.625 125.77344 L 259.51953 50.066406 A 42.119869 42.119869 0 0 0 222.08008 26.892578 z "
     style="color:#000000;clip-rule:nonzero;display:inline;overflow:visible;visibility:visible;opacity:1;isolation:auto;mix-blend-mode:normal;color-interpolation:sRGB;color-interpolation-filters:linearRGB;solid-color:#000000;solid-opacity:1;fill:#fefefe;fill-opacity:1;fill-rule:nonzero;stroke:none;stroke-width:37.86839676;stroke-linecap:butt;stroke-linejoin:miter;stroke-miterlimit:4;stroke-dasharray:none;stroke-dashoffset:0;stroke-opacity:1;color-rendering:auto;image-rendering:auto;shape-rendering:auto;text-rendering:auto;enable-background:accumulate"
     id="path4196"
     d="m 222.0293,38.666016 c -13.32186,-0.05531 -26.07039,9.724172 -29.46875,22.605468 L 120.46094,334.86719 c -2.34759,8.91514 -0.34814,18.87021 5.25976,26.1875 5.6079,7.31729 14.70101,11.83603 23.91992,11.88672 l 57.09961,0.30078 c 13.40787,0.0688 26.234,-9.83628 29.55665,-22.82617 l 1.35156,-5.28516 a 11.774988,11.774988 0 0 1 22.05078,-2.11328 l 10.4668,22.14648 c 4.88123,10.32169 16.0061,17.36953 27.42382,17.37305 11.41773,0.004 22.54796,-7.03679 27.43555,-17.35547 l 0,-0.002 10.55078,-22.28516 a 11.774988,11.774988 0 0 1 22.04688,2.12109 l 1.38086,5.40235 c 3.32352,12.98965 16.15063,22.89402 29.55859,22.82422 l 57.0957,-0.30078 c 9.21959,-0.0501 18.31358,-4.56892 23.92188,-11.88672 5.6079,-7.31729 7.60735,-17.27236 5.25976,-26.1875 L 402.74023,61.271484 c -3.11776,-11.817688 -14.01857,-21.163525 -26.17382,-22.439453 -12.15526,-1.275927 -24.75993,5.60293 -30.26368,16.515625 l -38.16406,75.724614 a 11.774988,11.774988 0 0 1 -21.03125,-0.006 l -38.10351,-75.703129 -0.002,-0.0039 c -5.0055,-9.935025 -15.84603,-16.645311 -26.9707,-16.693359 l -0.002,0 z"
     transform="matrix(0.02923553,0,0,0.02385257,-0.70195589,2.9766497)" />
  <polygon
     transform="matrix(0.02923553,0,0,0.02385257,-0.70195586,2.9766497)"
     style="fill:#007e37;fill-opacity:1"
     points="445.5,342.6 373.4,69 297.6,219.4 221.9,69 149.8,342.6 206.9,342.9 237.2,224.4 297.6,352.2 358.1,224.4 388.4,342.9 "
     id="polygon5" />
</svg>
