<svg width="580" height="580" viewBox="0 0 580 580" fill="none" xmlns="http://www.w3.org/2000/svg">
<path d="M52.5635 155.992C82.11 169.986 113.328 171.581 146.864 155.992L176.569 53.627H102.398L52.5635 155.992Z" fill="white" stroke="white" stroke-width="10.9898" stroke-linecap="round" stroke-linejoin="round"/>
<path d="M147.189 155.992C176.736 169.986 207.954 171.581 241.49 155.992L251.684 53.627H177.513L147.189 155.992Z" stroke="white" stroke-width="10.9898" stroke-linecap="round" stroke-linejoin="round"/>
<path d="M240.84 155.992C270.386 169.986 301.605 171.581 335.141 155.992L325.824 53.627H251.653L240.84 155.992Z" fill="white" stroke="white" stroke-width="10.9898" stroke-linecap="round" stroke-linejoin="round"/>
<path d="M335.466 155.992C365.012 169.986 396.231 171.581 429.766 155.992L400.939 53.627H326.769L335.466 155.992Z" stroke="white" stroke-width="10.9898" stroke-linecap="round" stroke-linejoin="round"/>
<path d="M429.116 155.992C458.662 169.986 489.881 171.581 523.417 155.992L475.079 53.627H400.908L429.116 155.992Z" fill="white" stroke="white" stroke-width="10.9898" stroke-linecap="round" stroke-linejoin="round"/>
<path d="M88.6748 390.219H488.33" stroke="white" stroke-width="28.9877" stroke-linecap="round" stroke-linejoin="round"/>
<path d="M126.703 528.917V398.419" stroke="white" stroke-width="25" stroke-linecap="round" stroke-linejoin="round"/>
<path d="M446.261 528.917V398.419" stroke="white" stroke-width="25" stroke-linecap="round" stroke-linejoin="round"/>
<path d="M233.535 212.371C233.535 212.371 221.956 251.613 187.935 239.915C187.929 239.94 192.04 205.727 233.535 212.371Z" fill="white"/>
<path d="M176.507 260.913C182.386 255.097 190.415 251.589 199.328 251.589C217.313 251.589 231.948 266.16 231.948 284.177C231.948 284.841 231.948 285.41 231.916 286.105H231.853C231.284 293.154 229.04 301.909 223.73 312.782C223.73 312.782 214.595 330.262 207.262 338.29L206.598 338.922C203.058 342.494 198.064 344.738 192.659 344.738C186.021 344.738 180.142 341.514 176.571 336.52H176.476C172.904 341.514 167.025 344.738 160.387 344.738C154.919 344.738 149.988 342.526 146.416 338.922L145.753 338.29C138.483 330.262 129.285 312.782 129.285 312.782C123.974 301.909 121.73 293.09 121.225 286.105H121.067C120.972 285.441 120.972 284.872 120.972 284.177C120.972 266.16 135.606 251.589 153.655 251.589C162.536 251.589 170.565 255.097 176.507 260.913" fill="white"/>
<path d="M128.223 200.194C128.223 200.194 135.102 234.478 164.952 227.101C164.955 227.123 164.051 197.686 128.223 200.194Z" fill="white"/>
<path d="M175.557 254.012C175.557 254.012 175.225 218.81 171.578 209.626C167.931 200.443 183.845 209.626 183.845 209.626L175.557 254.012Z" fill="white" stroke="white" stroke-width="1.4816"/>
<path d="M448.076 216.738C446.703 216.742 445.562 217.114 444.629 217.562C442.999 218.37 441.833 219.409 440.724 220.472C439.092 222.067 437.652 223.809 436.416 225.182C435.805 225.863 435.255 226.456 434.846 226.828C434.644 227.015 434.477 227.147 434.387 227.211C434.371 227.223 434.358 227.223 434.348 227.23L426.824 230.466C426.558 230.461 426.31 230.466 426.039 230.466C415.76 230.48 406.562 233.463 397.877 236.19C388.301 239.223 379.156 242.826 369.924 244.614C365.685 245.447 360.904 245.676 355.91 246.069C350.919 246.473 345.69 247.025 340.556 248.826C335.989 250.427 332.123 252.244 327.977 254.838C326.161 255.985 324.564 257.365 323.038 258.494C321.553 259.631 320.126 260.428 319.591 260.543L317.237 262.113C317.237 262.113 315.115 263.734 314.015 264.677L309.584 268.476C305.131 272.294 303.679 281.953 303.682 287.346C303.682 287.347 303.682 287.351 303.682 287.365C303.682 287.38 303.682 287.415 303.682 287.442C303.72 295.707 306.402 303.524 310.689 310.474C314.996 317.453 320.915 323.621 327.632 328.815C341.13 339.168 358.078 345.906 374.079 345.969C377.205 345.968 380.307 345.706 383.326 345.127C386.149 344.609 388.602 343.263 390.467 341.547C391.64 340.47 393.828 339.257 394.603 337.986C395.96 337.371 396.029 336.517 397.072 335.42C398.613 333.822 399.622 332.059 400.787 329.887C402.709 326.255 405.05 322.381 406.913 318.209C409.038 313.394 409.802 308.316 410.532 303.562C411.237 298.809 411.9 294.362 413.231 290.927C414.587 287.371 416.942 284.38 419.875 281.201C422.783 278.025 426.242 274.74 429.198 270.498C431.5 267.157 434.217 264.201 436.588 260.485C438.675 257.241 440.37 253.253 440.724 248.443L446.659 245.322L447.157 244.805C447.799 244.171 448.316 243.898 449.129 243.638C450.329 243.246 452.225 243.171 454.642 242.968C457.002 242.746 460.166 242.257 463.009 239.962C464.182 239.008 465.174 237.992 465.938 236.764C466.699 235.552 467.208 234.057 467.202 232.514C467.206 231.256 466.862 230.04 466.359 229.068C465.462 227.353 464.239 226.279 463.028 225.411C461.193 224.128 459.227 223.298 457.38 222.635C456.576 222.352 455.791 222.098 455.064 221.889C454.659 220.99 454.18 220.168 453.532 219.38C452.914 218.643 452.121 217.951 451.158 217.466C450.2 216.976 449.083 216.732 448.076 216.738V216.738ZM447.903 221.333C449.353 221.235 450.647 222.399 451.579 225.737C455.966 226.723 467.7 230.244 460.118 236.382C455.452 240.159 448.706 236.693 443.883 241.589L436.186 245.629C436.182 245.482 436.175 245.337 436.167 245.188C434.221 245.895 432.224 246.75 430.213 247.122C429.924 245.076 429.47 243.085 428.93 241.13C427.434 241.722 425.612 242.242 424.125 242.508C424.693 239.738 425.327 237.616 426.748 235.501L436.263 231.423C439.379 230.068 444.199 221.585 447.903 221.333H447.903ZM326.771 265.042C327.121 265.031 327.473 265.042 327.824 265.042C336.195 265.059 344.933 267.921 351.602 270.441C357.021 272.501 361.499 274.41 365.578 277.065C369.659 279.716 373.272 283.112 376.97 287.94C382.763 295.509 388.789 304.964 391.233 314.839C391.821 317.238 392.208 320.274 392.21 323.454C392.202 326.964 391.75 330.643 390.352 333.85C389 337.028 386.378 339.881 382.465 340.609C379.76 341.128 376.954 341.373 374.098 341.375C359.415 341.35 343.184 334.996 330.428 325.178C317.719 315.356 308.319 301.952 308.277 287.366C308.275 282.632 309.298 277.804 311.512 273.083L315.36 268.795L319.611 266.191C321.919 265.467 324.321 265.117 326.771 265.042ZM337.033 286.715C339.879 286.735 342.876 287.377 345.131 289.261C345.995 290.005 347.037 291.155 347.984 292.573C348.905 293.997 349.771 295.641 349.803 297.627C349.805 298.439 349.633 299.331 349.171 300.135C348.548 301.23 347.531 301.971 346.529 302.356C345.52 302.752 344.506 302.871 343.523 302.873C340.852 302.86 338.251 301.998 336.937 301.571L336.765 301.514L331.002 298.374L330.772 298.24L330.562 298.068C328.825 296.438 327.752 294.725 327.728 292.765C327.72 291.632 328.159 290.549 328.8 289.759C329.443 288.959 330.246 288.395 331.117 287.959C332.864 287.098 334.917 286.722 337.033 286.715V286.715ZM337.033 291.003C335.86 291 334.727 291.187 333.836 291.482C332.937 291.769 332.333 292.187 332.151 292.439C332.023 292.614 332.025 292.654 332.017 292.765C331.994 292.916 332.164 293.626 333.299 294.737L338.488 297.57C339.697 297.972 341.892 298.599 343.523 298.585C344.144 298.588 344.659 298.497 344.959 298.374C345.267 298.241 345.341 298.146 345.438 297.991C345.479 297.914 345.512 297.834 345.514 297.627C345.546 297.13 345.131 295.979 344.423 294.947C343.741 293.91 342.819 292.939 342.336 292.535C341.317 291.621 339.156 290.982 337.033 291.003Z" fill="white" stroke="white" stroke-width="0.61265"/>
<path opacity="0.1" fill-rule="evenodd" clip-rule="evenodd" d="M312.154 309.146L326.648 325.477L345.224 336.501L365.23 342.421L382.378 343.442L389.115 339.359L393.606 331.806L396.872 307.309L379.52 274.85L351.144 263.01L327.464 260.561L316.441 264.643L308.683 271.992L305.825 283.833L307.458 298.327L312.154 309.146Z" fill="white"/>
<path opacity="0.1" fill-rule="evenodd" clip-rule="evenodd" d="M421.369 234.839L435.046 228.919L446.682 218.916L453.011 221.978L462.809 228.511L464.442 234.431L458.931 239.33L447.907 241.167L432.597 251.374L415.449 249.129L421.369 234.839Z" fill="white"/>
<path opacity="0.1" d="M147.189 155.992C176.736 169.986 207.954 171.581 241.49 155.992L251.684 53.627H177.513L147.189 155.992Z" fill="white" stroke="white" stroke-width="10.9898" stroke-linecap="round" stroke-linejoin="round"/>
<path opacity="0.1" d="M335.466 155.992C365.012 169.986 396.231 171.581 429.766 155.992L400.939 53.627H326.769L335.466 155.992Z" fill="white" stroke="white" stroke-width="10.9898" stroke-linecap="round" stroke-linejoin="round"/>
</svg>
