<svg width="580" height="580" viewBox="0 0 580 580" fill="none" xmlns="http://www.w3.org/2000/svg">
<path opacity="0.914" fill-rule="evenodd" clip-rule="evenodd" d="M291.859 66.8047L55.334 176.389L54.248 523.582L529.469 531.176L522.959 176.389L291.859 66.8047ZM111.443 227.842H468.557V457.414H111.443V227.842ZM121.646 253.35L221.129 334.975L142.053 424.254L249.188 355.381L290 383.439L333.363 355.381L440.498 424.254L361.422 334.975L458.354 253.35L290 350.279L121.646 253.35Z" fill="white"/>
<path d="M289.999 37.0337L37.0951 146.626V167.685H36.9724V542.966H543.028V167.685H542.905V146.626L289.999 37.0337ZM289.999 95.6483L514.652 192.999V513.612H65.3485V192.996L289.999 95.6483Z" fill="white"/>
</svg>
