<svg width="48" height="48" viewBox="0 0 48 48" fill="none" xmlns="http://www.w3.org/2000/svg">
<path fill-rule="evenodd" clip-rule="evenodd" d="M11.9996 4C9.79046 4 7.9996 5.79086 7.9996 8V12L4.82834 15.1716C4.29796 15.702 4 16.4214 4 17.1715C4 18.7336 5.26636 20 6.82848 20H6.95373C7.30742 20 7.65861 19.9577 8 19.8747V36C8 40.4183 11.5817 44 16 44H32C36.4183 44 40 40.4183 40 36V19.8748C40.3412 19.9577 40.6922 20 41.0458 20H41.1716C42.7337 20 44 18.7337 44 17.1716C44 16.4215 43.702 15.702 43.1715 15.1716L39.9996 12H7.9996V8H39.9996C39.9996 5.79086 38.2087 4 35.9996 4H11.9996ZM12 17.9999L12.4223 17.7887C14.6745 16.6627 17.3254 16.6627 19.5776 17.7888L20.4223 18.2111C22.6745 19.3373 25.3255 19.3373 27.5777 18.2111L28.4222 17.7889C30.6745 16.6628 33.3255 16.6628 35.5778 17.789L36 18.0001V25L33 20H27L24 25L27 30H33L36 25V36C36 38.2091 34.2091 40 32 40H16C13.7909 40 12 38.2091 12 36V30.9701L15 35.9701H21L24 30.9701L21 25.9701H15L12 30.9701V17.9999Z" fill="white"/>
<rect opacity="0.5" x="8" y="8" width="32" height="4" fill="white"/>
</svg>
