<svg width="48" height="48" viewBox="0 0 48 48" fill="none" xmlns="http://www.w3.org/2000/svg">
<path opacity="0.2" d="M24 36V40L12 40L12 36L24 36Z" fill="white"/>
<g opacity="0.7">
<path d="M8 32H12V44H8V32Z" fill="white"/>
<path d="M16 32H20V44H16V32Z" fill="white"/>
<path d="M28 32H24V44H28V32Z" fill="white"/>
</g>
<path fill-rule="evenodd" clip-rule="evenodd" d="M36 16L20 4L4 16V20H8V32H40V24H36V28H32V20H36V16ZM16 20H12V28H16V20ZM28 20H20V28H28V20Z" fill="white"/>
<path opacity="0.6" d="M32 34H40V36H32V34Z" fill="white"/>
<path opacity="0.8" d="M32 38H40V40H32V38Z" fill="white"/>
<path d="M32 42H40V44H32V42Z" fill="white"/>
</svg>
