<svg width="580" height="580" viewBox="0 0 580 580" fill="none" xmlns="http://www.w3.org/2000/svg">
<path d="M438.156 358.937H77.0508V422.843H438.156V358.937Z" fill="white"/>
<path d="M473.436 359.176H455.202V422.844H473.436V359.176Z" fill="white"/>
<path d="M507.526 359.176H489.293V422.844H507.526V359.176Z" fill="white"/>
<path d="M363.084 275.195C335.586 275.195 313.195 252.923 313.195 225.424C313.195 220.198 314.026 215.209 315.511 210.457C281.42 209.863 254.04 182.008 254.04 147.798C254.04 113.351 281.657 85.4956 315.986 85.0205V103.135C291.635 103.492 272.036 123.329 272.036 147.798C272.036 172.387 292.111 192.461 316.699 192.461C319.847 192.461 322.757 192.105 325.608 191.511C326.439 191.273 327.33 191.155 328.162 191.155C333.982 191.155 338.734 195.906 338.734 201.727C338.734 203.924 338.021 205.884 336.892 207.666C333.507 212.774 331.428 218.832 331.428 225.424C331.428 242.826 345.564 257.08 363.084 257.08H428.535C453.361 257.08 473.317 277.155 473.317 301.862L473.435 337.616H455.202V301.921C455.202 287.192 443.264 275.254 428.535 275.254H363.084V275.195Z" fill="white"/>
<path d="M377.576 205.944C384.288 197.273 388.267 186.463 388.267 174.644C388.267 146.136 365.163 123.032 336.655 123.032H332.616V104.799H336.655C375.141 104.799 406.5 136.099 406.5 174.644C406.5 184.979 404.184 194.838 400.145 203.628L412.915 203.509C465.239 203.509 507.586 245.975 507.586 298.18V337.617H489.353V298.18C489.353 255.952 455.143 221.742 412.915 221.742H386.188C380.605 221.742 375.973 217.11 375.973 211.408C375.973 209.329 376.685 207.607 377.576 205.944Z" fill="white"/>
</svg>
