<svg width="48" height="48" viewBox="0 0 48 48" fill="none" xmlns="http://www.w3.org/2000/svg">
<path d="M22 2C22 0.895431 22.8954 0 24 0C25.1046 0 26 0.895431 26 2C26 3.10457 25.1046 4 24 4C22.8954 4 22 3.10457 22 2Z" fill="white"/>
<path d="M38.1421 7.02944C38.9232 6.24839 40.1895 6.24839 40.9706 7.02944C41.7516 7.81049 41.7516 9.07682 40.9706 9.85786C40.1895 10.6389 38.9232 10.6389 38.1421 9.85786C37.3611 9.07682 37.3611 7.81049 38.1421 7.02944Z" fill="white"/>
<path d="M48 24C48 22.8954 47.1046 22 46 22C44.8954 22 44 22.8954 44 24C44 25.1046 44.8954 26 46 26C47.1046 26 48 25.1046 48 24Z" fill="white"/>
<path d="M40.9706 38.1421C41.7516 38.9232 41.7516 40.1895 40.9706 40.9706C40.1895 41.7516 38.9232 41.7516 38.1421 40.9706C37.3611 40.1895 37.3611 38.9232 38.1421 38.1421C38.9232 37.3611 40.1895 37.3611 40.9706 38.1421Z" fill="white"/>
<path d="M24 44C22.8954 44 22 44.8954 22 46C22 47.1046 22.8954 48 24 48C25.1046 48 26 47.1046 26 46C26 44.8954 25.1046 44 24 44Z" fill="white"/>
<path d="M7.02944 38.1421C7.81049 37.3611 9.07682 37.3611 9.85786 38.1421C10.6389 38.9232 10.6389 40.1895 9.85786 40.9706C9.07682 41.7516 7.81049 41.7516 7.02944 40.9706C6.24839 40.1895 6.24839 38.9232 7.02944 38.1421Z" fill="white"/>
<path d="M4 24C4 22.8954 3.10457 22 2 22C0.895431 22 0 22.8954 0 24C0 25.1046 0.89543 26 2 26C3.10457 26 4 25.1046 4 24Z" fill="white"/>
<path d="M9.85787 7.02944C10.6389 7.81049 10.6389 9.07682 9.85786 9.85786C9.07682 10.6389 7.81049 10.6389 7.02944 9.85786C6.24839 9.07681 6.24839 7.81048 7.02944 7.02944C7.81049 6.24839 9.07682 6.24839 9.85787 7.02944Z" fill="white"/>
<path fill-rule="evenodd" clip-rule="evenodd" d="M40 24C40 32.8366 32.8366 40 24 40C15.1635 40 8.00001 32.8366 8.00001 24C8.00001 15.1634 15.1635 8 24 8C32.8366 8 40 15.1634 40 24ZM36 24C36 30.6274 30.6274 36 24 36C17.3726 36 12 30.6274 12 24C12 17.3726 17.3726 12 24 12C30.6274 12 36 17.3726 36 24Z" fill="white"/>
</svg>
