<svg width="16" height="16" viewBox="0 0 16 16" fill="none" xmlns="http://www.w3.org/2000/svg">
<path d="M7.99998 12.4964C10.4833 12.4964 12.4964 10.4833 12.4964 8.00001C12.4964 5.51669 10.4833 3.50357 7.99998 3.50357C5.51666 3.50357 3.50354 5.51669 3.50354 8.00001C3.50354 10.4833 5.51666 12.4964 7.99998 12.4964Z" fill="#FEFEFE"/>
<path d="M6.36401 5.68497V8.67908C6.36401 9.11297 6.53637 9.52908 6.84318 9.83588C7.14998 10.1427 7.56609 10.315 7.99998 10.315C8.43386 10.315 8.84997 10.1427 9.15677 9.83588C9.46358 9.52908 9.63594 9.11297 9.63594 8.67908V5.68497" stroke="#FEFEFE" stroke-width="1.51249"/>
<path d="M10.6945 5.30547L10.6014 5.21516L10.5111 5.13331L10.4179 5.05147L10.3276 4.9781L10.2317 4.90472L10.1357 4.83699L10.037 4.76925L9.941 4.70999L9.83658 4.6479L9.735 4.59428L9.63058 4.54066L9.52899 4.4955L9.42174 4.45035L9.3145 4.41084L9.20444 4.37415L9.09719 4.34311L8.96455 4.30642L8.83191 4.27538L8.69645 4.24715L8.56098 4.2274L8.41988 4.20764L8.28159 4.19917L8.14048 4.1907H7.99937H7.89778L7.72845 4.19635L7.56476 4.21047L7.4039 4.23022L7.24868 4.25844L6.97493 4.31771L6.71247 4.39955L6.45565 4.49833L6.33147 4.55759L6.21012 4.6225L5.97024 4.76079L5.85171 4.83699L5.73882 4.92165L5.62593 5.00914L5.51587 5.10227L5.40863 5.20105L5.30421 5.30547L5.18003 5.42964L5.06432 5.55946L4.95708 5.6921L4.8583 5.83039L4.76235 5.96585L4.67486 6.10978L4.59584 6.25371L4.52529 6.40329L4.45756 6.55004L4.39829 6.70526L4.34749 6.86048L4.30516 7.02134L4.26847 7.1822L4.23743 7.34871L4.21485 7.51522L4.20074 7.68737L4.18945 7.89903V8.00063L4.19227 8.20665L4.20921 8.40984L4.23178 8.6074L4.26847 8.80213L4.29105 8.91219L4.31927 9.02508L4.3475 9.13232L4.38418 9.24238L4.42087 9.3468L4.46321 9.45405L4.50554 9.55564L4.55634 9.66006L4.60431 9.75884L4.66076 9.86044L4.7172 9.95639L4.77929 10.0552L4.84137 10.1483L4.91193 10.2442L5.0615 10.4305L5.14899 10.5321L5.24494 10.6365L5.30421 10.6958L5.48765 10.8708L5.5836 10.9526L5.68238 11.0316L5.78116 11.105L5.88275 11.1756L5.98435 11.2433L6.09159 11.3082L6.19601 11.3675L6.30325 11.4239L6.4105 11.4747L6.52338 11.5255L6.63345 11.5678L6.74916 11.6102L6.9834 11.6835L7.10193 11.7118L7.22328 11.7372L7.47445 11.7767L7.60145 11.7908L7.73127 11.8021L7.86109 11.8078L7.99655 11.8106H7.99937L8.05017 11.8078H8.10379L8.21103 11.805L8.41987 11.788L8.52147 11.7739L8.62589 11.7626L8.82909 11.7288L8.89117 11.7118L8.90529 11.7061L8.92222 11.7033L8.95608 11.6976L9.0859 11.661L9.2129 11.6214L9.27499 11.5989L9.30603 11.5876L9.3399 11.5791L9.46126 11.5283L9.52052 11.5001L9.58261 11.4747L9.70114 11.4154L9.72936 11.3985L9.74347 11.39L9.7604 11.3843L9.82249 11.356L9.93538 11.2855L10.0483 11.2149L10.1019 11.1754L10.1583 11.1387L10.2712 11.0597L10.3785 10.9722L10.4857 10.8847L10.5365 10.8367L10.5901 10.7916L10.6945 10.6956L10.751 10.6364L10.8441 10.5348L10.9344 10.4332L11.053 10.2808L11.1094 10.2018L11.1658 10.1256L11.2674 9.96752L11.29 9.92518L11.3154 9.88567L11.3634 9.80665L11.4057 9.72198L11.4142 9.69941L11.4255 9.67966L11.4481 9.64014L11.4848 9.55548L11.5243 9.47364L11.5582 9.38615L11.592 9.30148L11.6513 9.12651L11.688 8.99105L11.719 8.85558L11.7303 8.78503L11.7444 8.7173L11.7557 8.64674L11.7698 8.57901L11.7755 8.50563V8.48588L11.7783 8.46895L11.784 8.43508L11.7897 8.3617V8.34195L11.7925 8.32502L11.7982 8.29115L11.8067 8.1444V8.07102V8.03433L11.8095 8.00047V7.99765L11.8038 7.80574L11.7925 7.6223L11.77 7.43881L11.7446 7.26383L11.7136 7.12272L11.6825 6.98726L11.6429 6.85188L11.6006 6.72206L11.5526 6.59224L11.499 6.46524L11.4397 6.33825L11.3805 6.21689L11.3099 6.09272L11.2366 5.97419L11.1575 5.85566L11.0757 5.74277L10.9882 5.62988L10.8951 5.51982L10.7963 5.40976L10.6947 5.30534L10.6945 5.30547ZM8.52147 8.39009L8.27877 8.39291L8.01066 8.68924L7.99655 8.67513L7.98244 8.68924L7.71433 8.39291L7.47163 8.39009L6.78584 9.88866H4.97966L6.74351 5.43246L7.99655 7.24994L9.25241 5.43246L11.0134 9.88866H9.21008L8.52147 8.39009V8.39009Z" fill="#ACBAAC"/>
<path d="M8.52146 8.39009L7.99654 7.24994L7.47162 8.39009L7.71432 8.39291L7.98243 8.68924L7.99654 8.67513L8.01065 8.68924L8.27876 8.39291L8.52146 8.39009Z" fill="#04562C"/>
<path d="M8.5215 8.39009L9.21011 9.88866H11.0135L9.25244 5.43246L7.99658 7.24994L8.5215 8.39009Z" fill="#04562C"/>
<path d="M7.99657 7.24994L6.74353 5.43246L4.97968 9.88866H6.78586L7.47165 8.39009L7.99657 7.24994Z" fill="#04562C"/>
<path d="M7.98169 8.68442L7.99662 8.70055L8.01134 8.6842" stroke="#FEFEFE" stroke-width="0.2" stroke-linecap="round" stroke-linejoin="round"/>
<path d="M8.52149 8.39011L8.27879 8.39293L8.01068 8.68926" stroke="#FEFEFE" stroke-width="0.2" stroke-linecap="round" stroke-linejoin="round"/>
<path d="M7.47162 8.39011L7.71432 8.39293L7.98243 8.68925" stroke="#FEFEFE" stroke-width="0.2" stroke-linecap="round" stroke-linejoin="round"/>
<path d="M7.99658 7.24994L8.5215 8.39009" stroke="#FEFEFE" stroke-width="0.2" stroke-linecap="round" stroke-linejoin="round"/>
<path d="M7.99654 7.24994L7.47162 8.39009" stroke="#FEFEFE" stroke-width="0.2" stroke-linecap="round" stroke-linejoin="round"/>
<path d="M4.97968 9.88866L6.74353 5.43246L7.99657 7.24994" stroke="#FEFEFE" stroke-width="0.2" stroke-linecap="round" stroke-linejoin="round"/>
<path d="M6.78586 9.88867H4.97968" stroke="#FEFEFE" stroke-width="0.2" stroke-linecap="round" stroke-linejoin="round"/>
<path d="M9.21008 9.88867H11.0134" stroke="#FEFEFE" stroke-width="0.2" stroke-linecap="round" stroke-linejoin="round"/>
<path d="M11.0135 9.88866L9.25244 5.43246L7.99658 7.24994" stroke="#FEFEFE" stroke-width="0.2" stroke-linecap="round" stroke-linejoin="round"/>
<path d="M8.52148 8.39011L9.21009 9.88868" stroke="#FEFEFE" stroke-width="0.2" stroke-linecap="round" stroke-linejoin="round"/>
<path d="M7.47167 8.39011L6.78589 9.88868" stroke="#FEFEFE" stroke-width="0.2" stroke-linecap="round" stroke-linejoin="round"/>
<path d="M8.00001 11.7978C10.0975 11.7978 11.7978 10.0975 11.7978 8.00001C11.7978 5.90254 10.0975 4.20221 8.00001 4.20221C5.90254 4.20221 4.20221 5.90254 4.20221 8.00001C4.20221 10.0975 5.90254 11.7978 8.00001 11.7978Z" stroke="#04562C" stroke-width="0.365082" stroke-linecap="round" stroke-linejoin="round"/>
</svg>
