<svg width="48" height="48" viewBox="0 0 48 48" fill="none" xmlns="http://www.w3.org/2000/svg">
<path opacity="0.75" fill-rule="evenodd" clip-rule="evenodd" d="M6 28C7.10457 28 8 28.8954 8 30V38C8 39.1046 7.10457 40 6 40C4.89543 40 4 39.1046 4 38V30C4 28.8954 4.89543 28 6 28Z" fill="white"/>
<path opacity="0.75" fill-rule="evenodd" clip-rule="evenodd" d="M24 32C25.1046 32 26 32.8954 26 34V42C26 43.1046 25.1046 44 24 44C22.8954 44 22 43.1046 22 42V34C22 32.8954 22.8954 32 24 32Z" fill="white"/>
<path opacity="0.75" fill-rule="evenodd" clip-rule="evenodd" d="M42 28C43.1046 28 44 28.8954 44 30V38C44 39.1046 43.1046 40 42 40C40.8954 40 40 39.1046 40 38V30C40 28.8954 40.8954 28 42 28Z" fill="white"/>
<path d="M44 28C44 32.4183 35.0457 36 24 36C12.9543 36 4 32.4183 4 28C4 23.5817 12.9543 20 24 20C35.0457 20 44 23.5817 44 28Z" fill="white"/>
<path fill-rule="evenodd" clip-rule="evenodd" d="M24 3.81152L42.8123 12.1725C43.8217 12.6211 44.2762 13.8031 43.8276 14.8124C43.379 15.8218 42.1971 16.2764 41.1877 15.8278L24 8.18879L6.81229 15.8278C5.80292 16.2764 4.621 15.8218 4.17239 14.8124C3.72378 13.8031 4.17837 12.6211 5.18773 12.1725L24 3.81152Z" fill="white"/>
</svg>
