<svg width="580" height="580" viewBox="0 0 580 580" fill="none" xmlns="http://www.w3.org/2000/svg">
<path fill-rule="evenodd" clip-rule="evenodd" d="M264.662 98.0737H287.696V489.12H264.902L264.662 98.0737Z" fill="white" stroke="white" stroke-width="11.7662" stroke-linecap="round" stroke-linejoin="round"/>
<path d="M134.089 159.172C134.089 159.172 108.872 209.579 88.2392 237.584C88.2392 240.384 96.2621 251.586 110.017 248.785C110.017 250.186 111.165 252.987 112.311 254.387C100.848 275.391 85.9468 296.394 67.6065 320.198C67.6065 322.999 75.6303 346.801 97.4095 342.6C90.5318 355.202 65.3132 397.211 48.1191 411.213C48.1191 414.013 64.167 442.018 87.0924 429.416C92.4825 446.974 106.322 456.786 121.436 451.449C120.173 489.283 100.083 481.512 102.329 495.227H157.827C148.657 482.625 146.699 491.026 145.553 454.62V450.952C159.913 455.496 174.533 444.026 179.94 430.815C200.573 440.617 215.475 426.615 221.206 411.213C213.182 404.212 192.55 380.407 177.648 358.003C177.648 358.003 159.307 383.208 137.528 362.204C123.773 366.405 114.603 360.804 107.725 355.203C116.895 360.804 127.212 359.404 132.944 351.002C145.553 362.204 159.307 359.404 167.331 344.001C191.403 348.202 198.281 322.998 199.428 321.597C182.234 304.795 159.308 265.588 159.308 265.588C154.723 276.789 142.113 275.39 137.528 266.988C129.504 269.789 122.627 266.989 118.042 261.388C123.774 265.589 130.65 264.187 134.089 258.587C143.259 268.388 158.161 261.388 158.161 248.785C170.77 255.787 179.94 240.384 179.94 237.584C160.454 209.579 134.089 159.172 134.089 159.172Z" fill="white"/>
<path d="M450.216 495.228H422.278C422.278 377.206 356.194 356.089 364.222 356.089C372.242 356.089 450.216 387.991 450.216 495.228Z" fill="white"/>
<path d="M413.153 495.228H384.562C384.562 427.379 333.007 404.228 341.362 404.228C349.716 404.228 413.153 436.158 413.153 495.228Z" fill="white"/>
<path d="M466.457 495.228H495.04C495.04 427.379 539.183 404.228 530.828 404.228C522.474 404.228 466.457 436.158 466.457 495.228Z" fill="white"/>
<path d="M503.372 378.996C498.502 378.851 468.518 386.071 450.061 422.374C453.381 430.393 456.243 439.323 458.385 449.186C470.001 389.846 509.54 379.18 503.372 378.996Z" fill="white"/>
<path d="M436.841 96.0304C432.334 98.4697 416.02 106.423 395.257 106.423C378.02 106.423 366.004 101.299 353.284 95.8716C340.492 90.412 327.263 84.772 308.654 84.772C272.469 84.772 263.732 92.1513 262.856 92.9921L261.744 94.0565V193.026L261.755 198.901L266.998 196.237C267.132 196.169 280.746 189.417 308.654 189.417C321.41 189.417 331.063 192.218 342.242 195.462C355.799 199.395 371.167 203.851 395.257 203.851C420.199 203.851 439.533 193.015 440.345 192.553L442.167 191.518V93.1508L436.841 96.0304H436.841Z" fill="white"/>
</svg>
