<svg width="48" height="48" viewBox="0 0 580 580" fill="none" xmlns="http://www.w3.org/2000/svg">
<path fill-rule="evenodd" clip-rule="evenodd" d="M288.272 138.471C286.762 146.801 92.8252 507.194 92.8252 507.194L483.173 506.547L288.272 138.471Z" stroke="white" stroke-width="26.2797" />
<path fill-rule="evenodd" clip-rule="evenodd" d="M288.272 162.581C287.532 166.66 275.502 187.262 301.104 277.13C327.777 370.757 399.376 507.194 399.376 507.194L483.173 506.547L288.272 162.581Z" fill="white" stroke="white" stroke-width="26.2797" />
<path fill-rule="evenodd" clip-rule="evenodd" d="M291.652 162.581C292.392 166.66 304.422 187.262 278.82 277.13C252.147 370.757 180.548 507.194 180.548 507.194L96.751 506.547L291.652 162.581Z" fill="white" stroke="white" stroke-width="26.2797" />
<path fill-rule="evenodd" clip-rule="evenodd" d="M249.696 63.7305L483.174 506.547L249.696 63.7305Z" stroke="white" stroke-width="26.2797" />
<path fill-rule="evenodd" clip-rule="evenodd" d="M328.515 66.1416L95.3933 506.547L328.515 66.1416Z" stroke="white" stroke-width="26.2797" />
</svg>