<svg width="48" height="48" viewBox="0 0 580 580" fill="none" xmlns="http://www.w3.org/2000/svg">
<path d="M292.218 443.733L301.831 522.679C302.989 531.298 308.162 536.322 317.351 537.751C323.672 538.619 329.203 536.826 333.942 532.372C338.681 527.918 340.621 522.53 339.762 516.208L328.413 426.504C327.264 419.893 323.257 415.893 319.432 410.559L290.01 369.533L318.458 319.976L332.675 338.073C333.823 339.801 335.551 341.094 337.857 341.953L369.812 357.472C371.241 358.042 372.53 358.327 373.679 358.327C377.703 358.327 381.153 356.747 384.029 353.586C386.905 350.425 388.343 346.833 388.343 342.808C388.343 335.627 384.893 330.888 377.992 328.591L353.363 314.807L318.024 272.129C313.14 266.387 306.244 262.796 297.336 261.358C281.825 259.061 270.19 264.519 262.43 277.732L223.211 345.399C220.625 349.713 219.476 355.026 219.765 361.339L221.054 447.103L191.318 510.89C190.169 513.477 189.454 515.629 189.174 517.348C188.306 522.81 189.452 527.624 192.613 531.789C195.774 535.953 200.086 538.47 205.548 539.338C214.737 540.767 221.199 537.606 224.934 529.855L257.696 460.031C258.844 457.445 259.418 454.718 259.419 451.851L258.985 398.835L292.218 443.733ZM315.012 257.478C322.771 257.478 329.523 254.677 335.266 249.074C341.009 243.471 343.88 236.65 343.88 228.609C343.88 220.85 341.009 214.097 335.266 208.349C329.523 202.602 322.771 199.728 315.012 199.728C306.963 199.728 300.137 202.602 294.534 208.349C288.931 214.097 286.13 220.85 286.13 228.609C286.13 236.65 288.931 243.471 294.534 249.074C300.137 254.677 306.963 257.478 315.012 257.478ZM214.163 336.35L257.262 262.226C260.137 257.342 259.133 253.607 254.25 251.02L240.453 242.827C235.57 239.96 231.834 240.968 229.248 245.852L186.149 319.976C183.282 324.86 184.29 328.595 189.174 331.182L202.957 339.362C207.841 342.238 211.576 341.234 214.163 336.35Z" fill="white" />
<path d="M372.177 355.316V522.548" stroke="white" stroke-width="11.9298" stroke-linecap="round" />
<path fill-rule="evenodd" clip-rule="evenodd" d="M50.366 181.895L288.3 54.9973L526.233 181.895L510.302 198.118L430.756 166.033L288.215 148.878L145.347 165.785L66.2178 197.761L50.366 181.895Z" fill="white" stroke="white" stroke-width="21.273" stroke-linecap="round" stroke-linejoin="round" />
<path d="M474.191 181.278H444.526V466.963H474.191V181.278Z" fill="white" stroke="white" stroke-width="23.3321" stroke-linecap="round" stroke-linejoin="round" />
<path d="M129.289 181.278H99.624V466.963H129.289V181.278Z" fill="white" stroke="white" stroke-width="23.3321" stroke-linecap="round" stroke-linejoin="round" />
</svg>