<svg width="16" height="16" viewBox="0 0 16 16" fill="none" xmlns="http://www.w3.org/2000/svg">
<path d="M1.78831 0.00176099C0.643526 0.00176099 0 0.593908 0 1.80378V14.2758C0 15.4075 0.578692 16 1.72242 16H14.2413C15.3853 16 15.9648 15.4371 15.9648 14.2758V1.80378C15.9648 0.623389 15.3853 0.00176099 14.2055 0.00176099C14.2054 0.00176099 1.78438 -0.00220124 1.78831 0.00176099V0.00176099Z" fill="#111111"/>
<path fill-rule="evenodd" clip-rule="evenodd" d="M13.0984 9.40028L11.1003 7.36713L11.1094 6.1804L12.5802 7.61926C12.629 5.31768 10.6481 3.38462 8.7876 3.136L8.95243 2.14014C12.2192 2.78705 13.5348 5.34203 13.5976 7.61083L15.0824 6.16661L15.0891 7.4007L13.0984 9.40028Z" fill="white"/>
<path fill-rule="evenodd" clip-rule="evenodd" d="M3.93286 11.2174L6.69478 10.5139L7.71501 11.1194L5.73186 11.6663C7.69493 12.8673 10.3617 12.1283 11.5132 10.6453L12.2902 11.2892C10.0867 13.7872 7.21787 13.6379 5.22689 12.5499L5.72651 14.5605L4.65736 13.945L3.93286 11.2174Z" fill="white"/>
<path fill-rule="evenodd" clip-rule="evenodd" d="M6.95186 2.3936L6.17323 5.13645L5.13762 5.71517L5.66061 3.72474C3.63678 4.82018 2.93658 7.49854 3.64039 9.23946L2.69365 9.58845C1.64068 6.42771 3.21016 4.0205 5.15032 2.84417L3.16146 2.26693L4.23035 1.65094L6.95186 2.3936Z" fill="white"/>
</svg>
