<svg width="580" height="580" viewBox="0 0 580 580" fill="none" xmlns="http://www.w3.org/2000/svg">
<g clip-path="url(#clip0)">
<path d="M66.2751 1.76799C24.9401 1.76799 1.7041 23.139 1.7041 66.804V516.927C1.7041 557.771 22.5991 579.156 63.8961 579.156H515.92C557.227 579.156 578.149 558.841 578.149 516.927V66.804C578.149 24.203 557.227 1.76799 514.628 1.76799C514.624 1.76799 66.1331 1.62499 66.2751 1.76799Z" fill="#111111" stroke="#EEEEEE" stroke-width="3.408"/>
<path fill-rule="evenodd" clip-rule="evenodd" d="M119.575 340.967L191.723 267.589L191.392 224.759L138.285 276.688C136.523 193.623 208.049 123.857 275.228 114.885L269.276 78.9431C151.322 102.291 103.821 194.502 101.551 276.384L47.939 224.261L47.6951 268.801L119.575 340.967V340.967Z" fill="white"/>
<path fill-rule="evenodd" clip-rule="evenodd" d="M450.518 406.548L350.793 381.159L313.955 403.01L385.561 422.748C314.68 466.093 218.39 439.423 176.812 385.899L148.756 409.138C228.318 499.294 331.905 493.906 403.794 454.639L385.754 527.203L424.358 504.988L450.518 406.548V406.548Z" fill="white"/>
<path fill-rule="evenodd" clip-rule="evenodd" d="M341.511 88.0909L369.625 187.083L407.018 207.969L388.134 136.133C461.209 175.668 486.492 272.332 461.079 335.163L495.263 347.758C533.283 233.685 476.614 146.807 406.56 104.353L478.372 83.5195L439.777 61.2879L341.511 88.0909V88.0909Z" fill="white"/>
</g>
<defs>
<clipPath id="clip0">
<path d="M0 0H580V580H0V0Z" fill="white"/>
</clipPath>
</defs>
</svg>
