<?xml version="1.0" encoding="UTF-8" standalone="no"?>
<!-- Created with Inkscape (http://www.inkscape.org/) -->

<svg
   xmlns:dc="http://purl.org/dc/elements/1.1/"
   xmlns:cc="http://creativecommons.org/ns#"
   xmlns:rdf="http://www.w3.org/1999/02/22-rdf-syntax-ns#"
   xmlns:svg="http://www.w3.org/2000/svg"
   xmlns="http://www.w3.org/2000/svg"
   xmlns:sodipodi="http://sodipodi.sourceforge.net/DTD/sodipodi-0.dtd"
   xmlns:inkscape="http://www.inkscape.org/namespaces/inkscape"
   version="1.0"
   width="580"
   height="580"
   id="svg2"
   sodipodi:version="0.32"
   inkscape:version="0.91 r"
   sodipodi:docname="dance_floor.svg"
   inkscape:output_extension="org.inkscape.output.svg.inkscape">
  <metadata
     id="metadata10">
    <rdf:RDF>
      <cc:Work
         rdf:about="">
        <dc:format>image/svg+xml</dc:format>
        <dc:type
           rdf:resource="http://purl.org/dc/dcmitype/StillImage" />
        <cc:license
           rdf:resource="http://web.resource.org/cc/PublicDomain" />
        <dc:language>en</dc:language>
        <dc:title></dc:title>
      </cc:Work>
    </rdf:RDF>
  </metadata>
  <sodipodi:namedview
     inkscape:window-height="1004"
     inkscape:window-width="1920"
     inkscape:pageshadow="2"
     inkscape:pageopacity="0.0"
     guidetolerance="10.0"
     gridtolerance="10.0"
     objecttolerance="10.0"
     borderopacity="1.0"
     bordercolor="#666666"
     pagecolor="#ffffff"
     id="base"
     showgrid="false"
     inkscape:zoom="0.5"
     inkscape:cx="539.21443"
     inkscape:cy="425.32841"
     inkscape:window-x="1680"
     inkscape:window-y="0"
     inkscape:current-layer="svg2"
     showguides="true"
     inkscape:guide-bbox="true"
     inkscape:window-maximized="1" />
  <defs
     id="defs4">
    <inkscape:perspective
       sodipodi:type="inkscape:persp3d"
       inkscape:vp_x="0 : 290 : 1"
       inkscape:vp_y="0 : 1000 : 0"
       inkscape:vp_z="580 : 290 : 1"
       inkscape:persp3d-origin="290 : 193.33333 : 1"
       id="perspective12" />
    <style
       type="text/css"
       id="style6">
   
    .fil0 {fill:#EF7900}
   
  </style>
    <inkscape:perspective
       id="perspective6807"
       inkscape:persp3d-origin="29.116032 : 19.410688 : 1"
       inkscape:vp_z="58.232063 : 29.116032 : 1"
       inkscape:vp_y="0 : 1000 : 0"
       inkscape:vp_x="0 : 29.116032 : 1"
       sodipodi:type="inkscape:persp3d" />
    <inkscape:perspective
       id="perspective6954"
       inkscape:persp3d-origin="290 : 193.33333 : 1"
       inkscape:vp_z="580 : 290 : 1"
       inkscape:vp_y="0 : 1000 : 0"
       inkscape:vp_x="0 : 290 : 1"
       sodipodi:type="inkscape:persp3d" />
    <inkscape:perspective
       id="perspective2541"
       inkscape:persp3d-origin="240 : 160 : 1"
       inkscape:vp_z="480 : 240 : 1"
       inkscape:vp_y="0 : 1000 : 0"
       inkscape:vp_x="0 : 240 : 1"
       sodipodi:type="inkscape:persp3d" />
    <inkscape:perspective
       id="perspective2750"
       inkscape:persp3d-origin="215 : 143.33333 : 1"
       inkscape:vp_z="430 : 215 : 1"
       inkscape:vp_y="0 : 1000 : 0"
       inkscape:vp_x="0 : 215 : 1"
       sodipodi:type="inkscape:persp3d" />
    <inkscape:perspective
       id="perspective2830"
       inkscape:persp3d-origin="0.5 : 0.33333333 : 1"
       inkscape:vp_z="1 : 0.5 : 1"
       inkscape:vp_y="0 : 1000 : 0"
       inkscape:vp_x="0 : 0.5 : 1"
       sodipodi:type="inkscape:persp3d" />
    <inkscape:perspective
       id="perspective3648"
       inkscape:persp3d-origin="0.5 : 0.33333333 : 1"
       inkscape:vp_z="1 : 0.5 : 1"
       inkscape:vp_y="0 : 1000 : 0"
       inkscape:vp_x="0 : 0.5 : 1"
       sodipodi:type="inkscape:persp3d" />
    <inkscape:perspective
       id="perspective3675"
       inkscape:persp3d-origin="0.5 : 0.33333333 : 1"
       inkscape:vp_z="1 : 0.5 : 1"
       inkscape:vp_y="0 : 1000 : 0"
       inkscape:vp_x="0 : 0.5 : 1"
       sodipodi:type="inkscape:persp3d" />
  </defs>
  <g
     id="g1327">
    <path
       d="M 66.275,1.768 C 24.94,1.768 1.704,23.139 1.704,66.804 L 1.704,516.927 C 1.704,557.771 22.598,579.156 63.896,579.156 L 515.92,579.156 C 557.227,579.156 578.149,558.84 578.149,516.927 L 578.149,66.804 C 578.149,24.203 557.227,1.768 514.627,1.768 C 514.624,1.768 66.133,1.625 66.275,1.768 z"
       style="fill:#111111;stroke:#eeeeee;stroke-width:3.40799999"
       id="path1329" />
  </g>
  <circle
     cx="215.99928"
     cy="71.229095"
     r="48.0229"
     id="circle3"
     style="fill:#ffffff;fill-opacity:1" />
  <path
     inkscape:connector-curvature="0"
     d="m 420.89712,148.06558 c -6.40306,-9.60459 -18.14198,-11.73894 -27.74657,-5.33589 l -45.88854,30.94809 -48.0229,-48.02289 c -4.26871,-4.26871 -11.73892,-6.40307 -18.14198,-5.33587 l -98.18014,20.27632 c -6.40307,1.06717 -11.73893,6.40305 -13.87329,11.73893 l -33.08244,84.30686 -61.896178,-16.00762 c -10.671752,-2.13436 -21.343516,4.2687 -23.477864,14.94045 -2.134348,10.67176 4.268708,21.34352 13.873286,24.54504 l 78.970976,20.27633 c 1.06718,0 3.20154,1.06718 4.2687,1.06718 7.47024,0 14.94046,-5.33588 18.142,-12.80611 l 11.73891,-28.81373 0,93.92213 -30.94807,86.43054 c -2.13436,4.26869 -2.13436,9.60457 0,14.94044 l 43.13522,108.85191 c 3.20153,7.47023 10.67175,12.80611 18.14198,12.80611 2.13437,0 5.33588,0 7.47024,-1.06718 9.60457,-4.2687 14.94045,-16.00763 10.67176,-25.61221 l -33.53067,-104.5832 40.55268,-89.64276 11.73892,88.58624 c 0,4.25805 1.06719,8.53743 4.26872,11.73895 l 64.74553,87.2416 c 4.26871,5.33587 9.60459,7.45954 16.00763,7.45954 4.26871,0 8.54808,-1.06716 11.74961,-4.25802 8.53741,-6.41372 10.67176,-19.20916 4.25804,-27.75723 l -59.40968,-81.90572 0,-250.78626 45.89923,46.95573 c 6.40304,6.40303 17.0748,7.47023 24.54503,2.13435 l 58.69465,-39.4855 c 8.52674,-6.40306 11.72827,-18.14198 5.32521,-27.74655 z"
     id="path5"
     style="fill:#ffffff;fill-opacity:1" />
  <path
     inkscape:connector-curvature="0"
     d="m 520.14447,289.99992 c -21.34347,0 -28.81378,-10.67175 -49.09007,-10.67175 -4.26875,0 -5.33593,3.20152 -5.33593,10.67175 0,13.87328 0,59.76182 0,74.70229 0,14.94045 -2.13437,42.68701 -42.687,42.68701 -36.28398,0 -42.68701,-23.47786 -42.68701,-32.01526 0,-19.20916 11.73892,-32.01527 42.68701,-32.01527 21.34352,0 21.34352,-9.60458 21.34352,-21.34351 0,-42.68701 0,-68.29923 0,-74.70227 0,-5.33589 2.12364,-10.67178 10.67175,-10.67178 36.27335,0 25.60149,10.67178 64.03055,10.67178 6.403,0 10.67175,2.13434 10.67175,10.67174 0,5.33588 0,8.53739 0,22.41068 1.06717,9.60459 -9.60457,9.60459 -9.60457,9.60459 z"
     id="path7"
     style="fill:#ffffff;fill-opacity:1" />
</svg>
