<?xml version="1.0" encoding="UTF-8" standalone="no"?>
<!-- Created with Inkscape (http://www.inkscape.org/) -->

<svg
   xmlns:dc="http://purl.org/dc/elements/1.1/"
   xmlns:cc="http://creativecommons.org/ns#"
   xmlns:rdf="http://www.w3.org/1999/02/22-rdf-syntax-ns#"
   xmlns:svg="http://www.w3.org/2000/svg"
   xmlns="http://www.w3.org/2000/svg"
   xmlns:sodipodi="http://sodipodi.sourceforge.net/DTD/sodipodi-0.dtd"
   xmlns:inkscape="http://www.inkscape.org/namespaces/inkscape"
   version="1.0"
   width="580"
   height="580"
   id="svg2"
   sodipodi:version="0.32"
   inkscape:version="0.91 r"
   sodipodi:docname="dog_park.svg"
   inkscape:output_extension="org.inkscape.output.svg.inkscape">
  <metadata
     id="metadata10">
    <rdf:RDF>
      <cc:Work
         rdf:about="">
        <dc:format>image/svg+xml</dc:format>
        <dc:type
           rdf:resource="http://purl.org/dc/dcmitype/StillImage" />
        <cc:license
           rdf:resource="http://web.resource.org/cc/PublicDomain" />
        <dc:language>en</dc:language>
      </cc:Work>
    </rdf:RDF>
  </metadata>
  <sodipodi:namedview
     inkscape:window-height="739"
     inkscape:window-width="1332"
     inkscape:pageshadow="2"
     inkscape:pageopacity="0.0"
     guidetolerance="10.0"
     gridtolerance="10.0"
     objecttolerance="10.0"
     borderopacity="1.0"
     bordercolor="#666666"
     pagecolor="#ffffff"
     id="base"
     showgrid="false"
     inkscape:zoom="0.5"
     inkscape:cx="230.66877"
     inkscape:cy="281.92879"
     inkscape:window-x="34"
     inkscape:window-y="1024"
     inkscape:current-layer="svg2"
     inkscape:window-maximized="1" />
  <defs
     id="defs4">
    <inkscape:perspective
       sodipodi:type="inkscape:persp3d"
       inkscape:vp_x="0 : 290 : 1"
       inkscape:vp_y="0 : 1000 : 0"
       inkscape:vp_z="580 : 290 : 1"
       inkscape:persp3d-origin="290 : 193.33333 : 1"
       id="perspective12" />
  </defs>
  <g
     id="g1327">
    <path
       d="M 66.275,1.768 C 24.94,1.768 1.704,23.139 1.704,66.804 L 1.704,516.927 C 1.704,557.771 22.598,579.156 63.896,579.156 L 515.92,579.156 C 557.227,579.156 578.149,558.84 578.149,516.927 L 578.149,66.804 C 578.149,24.203 557.227,1.768 514.627,1.768 C 514.624,1.768 66.133,1.625 66.275,1.768 z"
       style="fill:#111111;stroke:#eeeeee;stroke-width:3.40799999"
       id="path1329" />
  </g>
  <g
     id="g7"
     inkscape:output_extension="org.inkscape.output.svg.inkscape"
     inkscape:version="0.46"
     sodipodi:docname="waste_bin.svg"
     sodipodi:version="0.32"
     transform="matrix(0.56932912,-0.26690416,0.26690416,0.56932912,169.07662,320.69172)">
    <g
       id="g9"
       transform="matrix(1.0897641,0,0,1.0897641,26.338839,-187.62955)">
      <path
         style="fill:#ffffff"
         inkscape:connector-curvature="0"
         d="m 198.511,276.714 c -47.899,25.235 -134.616,45.728 -126.58,89.288 9.162,49.024 104.639,15.351 161.701,43.158 57.062,28.129 110.104,116.694 142.252,102.389 50.872,-22.304 0.763,-121.034 -18.646,-190.192 -17.199,-60.315 -83.743,-84.104 -158.727,-44.643 z"
         id="path11" />
      <path
         style="fill:#ffffff"
         inkscape:connector-curvature="0"
         d="m 125.697,274.543 c 25.999,12.779 55.615,-2.17 66.224,-33.995 10.608,-31.504 -1.849,-67.67 -27.808,-82.699 -25.959,-10.93 -55.574,4.42 -66.183,36.246 -10.608,31.424 1.809,67.67 27.767,80.448 z"
         id="path13" />
      <path
         style="fill:#ffffff"
         inkscape:connector-curvature="0"
         d="m 331.641,189.354 c 21.98,-34.397 21.98,-82.699 0,-107.574 -22.302,-25.235 -58.146,-17.559 -80.449,16.839 -21.98,34.397 -21.98,82.657 0,107.893 22.303,24.874 58.147,17.561 80.449,-17.158 z"
         id="path15" />
      <path
         style="fill:#ffffff"
         inkscape:connector-curvature="0"
         d="m 442.469,269.079 c 34.759,-24.151 53.766,-68.393 42.434,-99.135 -11.693,-30.74 -49.386,-36.205 -83.783,-12.094 l -0.321,0 c -34.76,24.149 -53.445,68.393 -42.073,99.132 11.331,30.742 48.983,36.206 83.743,12.097 z"
         id="path17" />
      <path
         style="fill:#ffffff"
         inkscape:connector-curvature="0"
         d="m 507.928,360.858 c -5.104,-27.807 -35.12,-43.157 -66.906,-34.719 -31.825,8.76 -53.404,37.651 -48.663,65.098 5.144,27.808 35.121,43.158 66.947,34.72 31.825,-8.4 53.404,-37.654 48.622,-65.099 z"
         id="path19" />
    </g>
  </g>
  <path
     style="fill:#ffffff;fill-opacity:1;stroke:none"
     d="m 135.28902,90.73492 c 0,0 -29.90507,59.77847 -54.373775,92.98931 0,3.32108 9.514432,16.60555 25.826885,13.28446 0,1.66055 1.36063,4.98271 2.72,6.64325 -13.593731,24.90814 -31.265459,49.81627 -53.015417,78.04552 0,3.32107 9.515538,31.54858 35.343617,26.56695 -8.156242,14.94489 -38.063193,64.76271 -58.45378,81.36813 0,3.32109 19.031262,36.5319 46.218694,21.58702 6.392145,20.82218 22.804296,32.45844 40.728276,26.12976 -1.49737,44.86657 -25.32209,35.65104 -22.65913,51.91576 l 65.81583,0 c -10.87499,-14.9449 -13.19674,-4.98182 -14.55612,-48.15596 l 0,-4.34999 c 17.02989,5.38892 34.36739,-8.21278 40.78034,-23.88027 24.46871,11.6238 42.14021,-4.98034 48.93707,-23.24632 -9.5156,-8.30271 -33.98358,-36.53304 -51.65543,-63.10172 0,0 -21.7506,29.89006 -47.57869,4.98192 -16.31247,4.98161 -27.18738,-1.66038 -35.34361,-8.30255 10.87497,6.64217 23.11002,4.9813 29.90688,-4.98193 14.9531,13.28434 31.26475,9.96342 40.78035,-8.30255 28.54682,4.98162 36.70422,-24.90838 38.06361,-26.56894 -20.3906,-19.92651 -47.5787,-66.42235 -47.5787,-66.42235 -5.43751,13.28435 -20.39105,11.62453 -25.82853,1.6613 -9.51561,3.32109 -17.67105,8.8e-4 -23.10854,-6.64124 6.79685,4.98163 14.95206,3.31956 19.03017,-3.32261 10.87498,11.6238 28.5469,3.32171 28.5469,-11.62318 14.95311,8.30272 25.82852,-9.96338 25.82852,-13.28446 C 166.5551,150.51339 135.28902,90.73492 135.28902,90.73492 Z"
     id="path3"
     inkscape:connector-curvature="0"
     sodipodi:nodetypes="cccccccccccccccccccccccccccc" />
</svg>
