<svg width="12" height="12" viewBox="0 0 12 12" fill="none" xmlns="http://www.w3.org/2000/svg">
<path fill-rule="evenodd" clip-rule="evenodd" d="M4 2L4.8882 0.223607C4.95672 0.0865659 5.09678 0 5.25 0C5.40322 0 5.54328 0.0865656 5.6118 0.223607L6 1L6.3882 0.223607C6.45672 0.0865658 6.59678 0 6.75 0C6.90322 0 7.04328 0.0865656 7.1118 0.223606L8 2H8.5C8.77614 2 9 2.22386 9 2.5C9 2.77614 8.77614 3 8.5 3H8V3.88197C8 4.56717 7.61287 5.19357 7 5.5H5C4.38713 5.19357 4 4.56717 4 3.88197V3H3.50001C3.22387 3 3.00001 2.77614 3.00001 2.5C3.00001 2.22386 3.22387 2 3.50001 2H4ZM4.33333 3L5.5 3.5V3H4.33333ZM6.5 3V3.5L7.5 3H6.5Z" fill="white"/>
<path d="M2 6V10H1.5V11H10.5V10H10V6H2Z" fill="white"/>
<path opacity="0.7" d="M5 5.5H7V6H5V5.5Z" fill="white"/>
</svg>
