<?xml version="1.0" encoding="UTF-8" standalone="no"?>
<!-- Created with Inkscape (http://www.inkscape.org/) -->

<svg
   xmlns:dc="http://purl.org/dc/elements/1.1/"
   xmlns:cc="http://creativecommons.org/ns#"
   xmlns:rdf="http://www.w3.org/1999/02/22-rdf-syntax-ns#"
   xmlns:svg="http://www.w3.org/2000/svg"
   xmlns="http://www.w3.org/2000/svg"
   xmlns:sodipodi="http://sodipodi.sourceforge.net/DTD/sodipodi-0.dtd"
   xmlns:inkscape="http://www.inkscape.org/namespaces/inkscape"
   version="1.0"
   width="580"
   height="580"
   id="svg2"
   sodipodi:version="0.32"
   inkscape:version="0.91 r"
   sodipodi:docname="hackerspace.svg"
   inkscape:output_extension="org.inkscape.output.svg.inkscape">
  <metadata
     id="metadata2975">
    <rdf:RDF>
      <cc:Work
         rdf:about="">
        <dc:format>image/svg+xml</dc:format>
        <dc:type
           rdf:resource="http://purl.org/dc/dcmitype/StillImage" />
        <dc:title />
      </cc:Work>
    </rdf:RDF>
  </metadata>
  <sodipodi:namedview
     inkscape:window-height="739"
     inkscape:window-width="1332"
     inkscape:pageshadow="2"
     inkscape:pageopacity="0.0"
     guidetolerance="10.0"
     gridtolerance="10.0"
     objecttolerance="10.0"
     borderopacity="1.0"
     bordercolor="#666666"
     pagecolor="#ffffff"
     id="base"
     inkscape:zoom="0.5"
     inkscape:cx="279.17042"
     inkscape:cy="233.77946"
     inkscape:window-x="34"
     inkscape:window-y="1024"
     inkscape:current-layer="svg2"
     showgrid="false"
     inkscape:object-paths="true"
     showguides="true"
     inkscape:guide-bbox="true"
     inkscape:window-maximized="1" />
  <defs
     id="defs4">
    <inkscape:perspective
       sodipodi:type="inkscape:persp3d"
       inkscape:vp_x="0 : 290 : 1"
       inkscape:vp_y="0 : 1000 : 0"
       inkscape:vp_z="580 : 290 : 1"
       inkscape:persp3d-origin="290 : 193.33333 : 1"
       id="perspective2441" />
    <inkscape:perspective
       id="perspective2466"
       inkscape:persp3d-origin="372.04724 : 350.78739 : 1"
       inkscape:vp_z="744.09448 : 526.18109 : 1"
       inkscape:vp_y="0 : 1000 : 0"
       inkscape:vp_x="0 : 526.18109 : 1"
       sodipodi:type="inkscape:persp3d" />
    <inkscape:perspective
       id="perspective3333"
       inkscape:persp3d-origin="372.04724 : 350.78739 : 1"
       inkscape:vp_z="744.09448 : 526.18109 : 1"
       inkscape:vp_y="0 : 1000 : 0"
       inkscape:vp_x="0 : 526.18109 : 1"
       sodipodi:type="inkscape:persp3d" />
    <inkscape:perspective
       id="perspective3401"
       inkscape:persp3d-origin="372.04724 : 350.78739 : 1"
       inkscape:vp_z="744.09448 : 526.18109 : 1"
       inkscape:vp_y="0 : 1000 : 0"
       inkscape:vp_x="0 : 526.18109 : 1"
       sodipodi:type="inkscape:persp3d" />
    <inkscape:perspective
       id="perspective3464"
       inkscape:persp3d-origin="372.04724 : 350.78739 : 1"
       inkscape:vp_z="744.09448 : 526.18109 : 1"
       inkscape:vp_y="0 : 1000 : 0"
       inkscape:vp_x="0 : 526.18109 : 1"
       sodipodi:type="inkscape:persp3d" />
    <inkscape:perspective
       id="perspective3581"
       inkscape:persp3d-origin="225 : 150 : 1"
       inkscape:vp_z="450 : 225 : 1"
       inkscape:vp_y="0 : 1000 : 0"
       inkscape:vp_x="0 : 225 : 1"
       sodipodi:type="inkscape:persp3d" />
    <inkscape:perspective
       id="perspective4312"
       inkscape:persp3d-origin="225 : 150 : 1"
       inkscape:vp_z="450 : 225 : 1"
       inkscape:vp_y="0 : 1000 : 0"
       inkscape:vp_x="0 : 225 : 1"
       sodipodi:type="inkscape:persp3d" />
    <inkscape:perspective
       id="perspective8860"
       inkscape:persp3d-origin="372.04724 : 350.78739 : 1"
       inkscape:vp_z="744.09448 : 526.18109 : 1"
       inkscape:vp_y="0 : 1000 : 0"
       inkscape:vp_x="0 : 526.18109 : 1"
       sodipodi:type="inkscape:persp3d" />
    <inkscape:perspective
       id="perspective8887"
       inkscape:persp3d-origin="372.04724 : 350.78739 : 1"
       inkscape:vp_z="744.09448 : 526.18109 : 1"
       inkscape:vp_y="0 : 1000 : 0"
       inkscape:vp_x="0 : 526.18109 : 1"
       sodipodi:type="inkscape:persp3d" />
    <inkscape:perspective
       sodipodi:type="inkscape:persp3d"
       inkscape:vp_x="0 : 16 : 1"
       inkscape:vp_y="0 : 1000 : 0"
       inkscape:vp_z="32 : 16 : 1"
       inkscape:persp3d-origin="16 : 10.666667 : 1"
       id="perspective4904" />
    <inkscape:perspective
       sodipodi:type="inkscape:persp3d"
       inkscape:vp_x="0 : 6 : 1"
       inkscape:vp_y="0 : 1000 : 0"
       inkscape:vp_z="12 : 6 : 1"
       inkscape:persp3d-origin="6 : 4 : 1"
       id="perspective4668" />
    <inkscape:perspective
       sodipodi:type="inkscape:persp3d"
       inkscape:vp_x="0 : 526.18109 : 1"
       inkscape:vp_y="0 : 1000 : 0"
       inkscape:vp_z="744.09448 : 526.18109 : 1"
       inkscape:persp3d-origin="372.04724 : 350.78739 : 1"
       id="perspective4471" />
    <symbol
       id="symbol-university"
       viewBox="244.5 110 489 219.9">
      <path
         d="M79,43l57,119c0,0,21-96,104-96s124,106,124,106l43-133l82-17L0,17L79,43z"
         id="path4460" />
      <path
         fill="none"
         stroke="#000000"
         stroke-width="20"
         d="M94,176l-21,39"
         id="path4462" />
      <path
         d="M300,19c0,10.5-22.6,19-50.5,19S199,29.5,199,19s22.6-19,50.5-19S300,8.5,300,19z"
         id="path4464" />
      <path
         ill="none"
         stroke="#000000"
         stroke-width="20"
         d="M112,216l-16-38L64,88c0,0-9-8-4-35s16-24,16-24"
         id="path4466" />
    </symbol>
    <inkscape:perspective
       sodipodi:type="inkscape:persp3d"
       inkscape:vp_x="0 : 30 : 1"
       inkscape:vp_y="0 : 1000 : 0"
       inkscape:vp_z="60 : 30 : 1"
       inkscape:persp3d-origin="30 : 20 : 1"
       id="perspective3452" />
    <inkscape:perspective
       id="perspective9479"
       inkscape:persp3d-origin="290 : 193.33333 : 1"
       inkscape:vp_z="580 : 290 : 1"
       inkscape:vp_y="0 : 1000 : 0"
       inkscape:vp_x="0 : 290 : 1"
       sodipodi:type="inkscape:persp3d" />
    <inkscape:perspective
       id="perspective9690"
       inkscape:persp3d-origin="372.04724 : 350.78739 : 1"
       inkscape:vp_z="744.09448 : 526.18109 : 1"
       inkscape:vp_y="0 : 1000 : 0"
       inkscape:vp_x="0 : 526.18109 : 1"
       sodipodi:type="inkscape:persp3d" />
    <inkscape:perspective
       sodipodi:type="inkscape:persp3d"
       inkscape:vp_x="0 : 290 : 1"
       inkscape:vp_y="0 : 1000 : 0"
       inkscape:vp_z="580 : 290 : 1"
       inkscape:persp3d-origin="290 : 193.33333 : 1"
       id="perspective9819" />
    <inkscape:perspective
       id="perspective9817"
       inkscape:persp3d-origin="30 : 20 : 1"
       inkscape:vp_z="60 : 30 : 1"
       inkscape:vp_y="0 : 1000 : 0"
       inkscape:vp_x="0 : 30 : 1"
       sodipodi:type="inkscape:persp3d" />
    <symbol
       viewBox="244.5 110 489 219.9"
       id="symbol9807">
      <path
         id="path9809"
         d="M79,43l57,119c0,0,21-96,104-96s124,106,124,106l43-133l82-17L0,17L79,43z" />
      <path
         id="path9811"
         d="M94,176l-21,39"
         stroke-width="20"
         stroke="#000000"
         fill="none" />
      <path
         id="path9813"
         d="M300,19c0,10.5-22.6,19-50.5,19S199,29.5,199,19s22.6-19,50.5-19S300,8.5,300,19z" />
      <path
         id="path9815"
         d="M112,216l-16-38L64,88c0,0-9-8-4-35s16-24,16-24"
         stroke-width="20"
         stroke="#000000"
         ill="none" />
    </symbol>
    <inkscape:perspective
       id="perspective9805"
       inkscape:persp3d-origin="372.04724 : 350.78739 : 1"
       inkscape:vp_z="744.09448 : 526.18109 : 1"
       inkscape:vp_y="0 : 1000 : 0"
       inkscape:vp_x="0 : 526.18109 : 1"
       sodipodi:type="inkscape:persp3d" />
    <inkscape:perspective
       id="perspective9803"
       inkscape:persp3d-origin="6 : 4 : 1"
       inkscape:vp_z="12 : 6 : 1"
       inkscape:vp_y="0 : 1000 : 0"
       inkscape:vp_x="0 : 6 : 1"
       sodipodi:type="inkscape:persp3d" />
    <inkscape:perspective
       id="perspective9801"
       inkscape:persp3d-origin="16 : 10.666667 : 1"
       inkscape:vp_z="32 : 16 : 1"
       inkscape:vp_y="0 : 1000 : 0"
       inkscape:vp_x="0 : 16 : 1"
       sodipodi:type="inkscape:persp3d" />
    <inkscape:perspective
       sodipodi:type="inkscape:persp3d"
       inkscape:vp_x="0 : 526.18109 : 1"
       inkscape:vp_y="0 : 1000 : 0"
       inkscape:vp_z="744.09448 : 526.18109 : 1"
       inkscape:persp3d-origin="372.04724 : 350.78739 : 1"
       id="perspective9799" />
    <inkscape:perspective
       sodipodi:type="inkscape:persp3d"
       inkscape:vp_x="0 : 526.18109 : 1"
       inkscape:vp_y="0 : 1000 : 0"
       inkscape:vp_z="744.09448 : 526.18109 : 1"
       inkscape:persp3d-origin="372.04724 : 350.78739 : 1"
       id="perspective9797" />
    <inkscape:perspective
       sodipodi:type="inkscape:persp3d"
       inkscape:vp_x="0 : 225 : 1"
       inkscape:vp_y="0 : 1000 : 0"
       inkscape:vp_z="450 : 225 : 1"
       inkscape:persp3d-origin="225 : 150 : 1"
       id="perspective9795" />
    <inkscape:perspective
       sodipodi:type="inkscape:persp3d"
       inkscape:vp_x="0 : 225 : 1"
       inkscape:vp_y="0 : 1000 : 0"
       inkscape:vp_z="450 : 225 : 1"
       inkscape:persp3d-origin="225 : 150 : 1"
       id="perspective9793" />
    <inkscape:perspective
       sodipodi:type="inkscape:persp3d"
       inkscape:vp_x="0 : 526.18109 : 1"
       inkscape:vp_y="0 : 1000 : 0"
       inkscape:vp_z="744.09448 : 526.18109 : 1"
       inkscape:persp3d-origin="372.04724 : 350.78739 : 1"
       id="perspective9791" />
    <inkscape:perspective
       sodipodi:type="inkscape:persp3d"
       inkscape:vp_x="0 : 526.18109 : 1"
       inkscape:vp_y="0 : 1000 : 0"
       inkscape:vp_z="744.09448 : 526.18109 : 1"
       inkscape:persp3d-origin="372.04724 : 350.78739 : 1"
       id="perspective9789" />
    <inkscape:perspective
       sodipodi:type="inkscape:persp3d"
       inkscape:vp_x="0 : 526.18109 : 1"
       inkscape:vp_y="0 : 1000 : 0"
       inkscape:vp_z="744.09448 : 526.18109 : 1"
       inkscape:persp3d-origin="372.04724 : 350.78739 : 1"
       id="perspective9787" />
    <inkscape:perspective
       sodipodi:type="inkscape:persp3d"
       inkscape:vp_x="0 : 526.18109 : 1"
       inkscape:vp_y="0 : 1000 : 0"
       inkscape:vp_z="744.09448 : 526.18109 : 1"
       inkscape:persp3d-origin="372.04724 : 350.78739 : 1"
       id="perspective9785" />
    <inkscape:perspective
       id="perspective9783"
       inkscape:persp3d-origin="290 : 193.33333 : 1"
       inkscape:vp_z="580 : 290 : 1"
       inkscape:vp_y="0 : 1000 : 0"
       inkscape:vp_x="0 : 290 : 1"
       sodipodi:type="inkscape:persp3d" />
    <defs
       id="defs48974" />
    <sodipodi:namedview
       pagecolor="#ffffff"
       inkscape:zoom="0.61399264"
       inkscape:window-y="26"
       inkscape:window-x="0"
       inkscape:window-width="1012"
       inkscape:window-height="739"
       inkscape:pageshadow="2"
       inkscape:pageopacity="0.0"
       inkscape:cy="250.37448"
       inkscape:cx="475.26707"
       id="namedview4258"
       borderopacity="1.0"
       bordercolor="#666666" />
    <inkscape:perspective
       id="perspective11483"
       inkscape:persp3d-origin="100 : 66.666667 : 1"
       inkscape:vp_z="200 : 100 : 1"
       inkscape:vp_y="0 : 1000 : 0"
       inkscape:vp_x="0 : 100 : 1"
       sodipodi:type="inkscape:persp3d" />
    <linearGradient
       id="linearGradient2936">
      <stop
         style="stop-color:#8acf6b;stop-opacity:1.0000000;"
         offset="0.0000000"
         id="stop2938" />
      <stop
         style="stop-color:#368912;stop-opacity:1.0000000;"
         offset="1.0000000"
         id="stop2940" />
    </linearGradient>
    <linearGradient
       id="linearGradient2952">
      <stop
         style="stop-color:#c0d50d;stop-opacity:1;"
         offset="0"
         id="stop2954" />
      <stop
         style="stop-color:#eef2cd;stop-opacity:1.0000000;"
         offset="1.0000000"
         id="stop2956" />
    </linearGradient>
    <inkscape:perspective
       id="perspective34"
       inkscape:persp3d-origin="372.04724 : 350.78739 : 1"
       inkscape:vp_z="744.09448 : 526.18109 : 1"
       inkscape:vp_y="0 : 1000 : 0"
       inkscape:vp_x="0 : 526.18109 : 1"
       sodipodi:type="inkscape:persp3d" />
    <inkscape:perspective
       id="perspective13933"
       inkscape:persp3d-origin="372.04724 : 350.78739 : 1"
       inkscape:vp_z="744.09448 : 526.18109 : 1"
       inkscape:vp_y="0 : 1000 : 0"
       inkscape:vp_x="0 : 526.18109 : 1"
       sodipodi:type="inkscape:persp3d" />
    <inkscape:perspective
       id="perspective13955"
       inkscape:persp3d-origin="372.04724 : 350.78739 : 1"
       inkscape:vp_z="744.09448 : 526.18109 : 1"
       inkscape:vp_y="0 : 1000 : 0"
       inkscape:vp_x="0 : 526.18109 : 1"
       sodipodi:type="inkscape:persp3d" />
    <inkscape:perspective
       sodipodi:type="inkscape:persp3d"
       inkscape:vp_x="0 : 526.18109 : 1"
       inkscape:vp_y="0 : 1000 : 0"
       inkscape:vp_z="744.09448 : 526.18109 : 1"
       inkscape:persp3d-origin="372.04724 : 350.78739 : 1"
       id="perspective2446" />
    <inkscape:perspective
       sodipodi:type="inkscape:persp3d"
       inkscape:vp_x="0 : 204.28572 : 1"
       inkscape:vp_y="0 : 1000 : 0"
       inkscape:vp_z="405.71429 : 204.28572 : 1"
       inkscape:persp3d-origin="202.85715 : 136.19048 : 1"
       id="perspective5571" />
    <inkscape:perspective
       sodipodi:type="inkscape:persp3d"
       inkscape:vp_x="0 : 250 : 1"
       inkscape:vp_y="0 : 1000 : 0"
       inkscape:vp_z="500 : 250 : 1"
       inkscape:persp3d-origin="250 : 166.66667 : 1"
       id="perspective5412" />
    <inkscape:perspective
       sodipodi:type="inkscape:persp3d"
       inkscape:vp_x="0 : 16 : 1"
       inkscape:vp_y="0 : 1000 : 0"
       inkscape:vp_z="32 : 16 : 1"
       inkscape:persp3d-origin="16 : 10.666667 : 1"
       id="perspective5233" />
    <marker
       inkscape:stockid="RazorWire"
       id="RazorWire"
       refX="0"
       refY="0"
       orient="auto">
       style=&quot;overflow:visible&quot;&gt;
      <path
   id="path4286"
   transform="scale(0.8,0.8)"
   style="fill:#808080;fill-opacity:1;fill-rule:evenodd;stroke:#000000;stroke-width:0.1pt"
   d="M 0.022727273,-0.74009011 L 0.022727273,0.69740989 L -7.7585227,3.0099099 L 10.678977,3.0099099 L 3.4914773,0.69740989 L 3.4914773,-0.74009011 L 10.741477,-2.8963401 L -7.7272727,-2.8963401 L 0.022727273,-0.74009011 z " />
</marker>
    <marker
       inkscape:stockid="DiamondS"
       orient="auto"
       refY="0.0"
       refX="0.0"
       id="DiamondS"
       style="overflow:visible">
      <path
         id="path4202"
         d="M 0,-7.0710768 L -7.0710894,0 L 0,7.0710589 L 7.0710462,0 L 0,-7.0710768 z "
         style="fill-rule:evenodd;stroke:#000000;stroke-width:1.0pt;marker-start:none"
         transform="scale(0.2)" />
    </marker>
    <marker
       inkscape:stockid="Arrow2Sstart"
       orient="auto"
       refY="0.0"
       refX="0.0"
       id="Arrow2Sstart"
       style="overflow:visible">
      <path
         id="path4146"
         style="font-size:12.0;fill-rule:evenodd;stroke-width:0.62500000;stroke-linejoin:round"
         d="M 8.7185878,4.0337352 L -2.2072895,0.016013256 L 8.7185884,-4.0017078 C 6.9730900,-1.6296469 6.9831476,1.6157441 8.7185878,4.0337352 z "
         transform="scale(0.3) translate(-2.3,0)" />
    </marker>
    <marker
       inkscape:stockid="StopS"
       orient="auto"
       refY="0.0"
       refX="0.0"
       id="StopS"
       style="overflow:visible">
      <path
         id="path4229"
         d="M 0.0,5.65 L 0.0,-5.65"
         style="fill:none;fill-opacity:0.75000000;fill-rule:evenodd;stroke:#000000;stroke-width:1.0pt"
         transform="scale(0.2)" />
    </marker>
    <marker
       style="overflow:visible"
       inkscape:stockid="InfiniteLineStart"
       id="InfiniteLineStart"
       refX="0"
       refY="0"
       orient="auto">
      <g
         id="g4298"
         transform="translate(-13,0)">
        <circle
           id="circle4300"
           r="0.8"
           cy="0"
           cx="3" />
        <circle
           id="circle4302"
           r="0.8"
           cy="0"
           cx="6.5" />
        <circle
           id="circle4304"
           r="0.8"
           cy="0"
           cx="10" />
      </g>
    </marker>
    <marker
       inkscape:stockid="CurveIn"
       orient="auto"
       refY="0.0"
       refX="0.0"
       id="CurveIn"
       style="overflow:visible">
      <path
         id="path4238"
         d="M 4.6254930,-5.0456926 C 1.8654930,-5.0456926 -0.37450702,-2.8056926 -0.37450702,-0.045692580 C -0.37450702,2.7143074 1.8654930,4.9543074 4.6254930,4.9543074"
         style="fill-rule:evenodd;stroke:#000000;stroke-width:1.0pt;marker-start:none;marker-end:none;fill:none"
         transform="scale(0.6)" />
    </marker>
    <marker
       inkscape:stockid="TriangleOutS"
       orient="auto"
       refY="0.0"
       refX="0.0"
       id="TriangleOutS"
       style="overflow:visible">
      <path
         id="path4220"
         d="M 5.77,0.0 L -2.88,5.0 L -2.88,-5.0 L 5.77,0.0 z "
         style="fill-rule:evenodd;stroke:#000000;stroke-width:1.0pt;marker-start:none"
         transform="scale(0.2)" />
    </marker>
    <marker
       inkscape:stockid="Arrow2Send"
       orient="auto"
       refY="0.0"
       refX="0.0"
       id="Arrow2Send"
       style="overflow:visible;">
      <path
         id="path4149"
         style="font-size:12.0;fill-rule:evenodd;stroke-width:0.62500000;stroke-linejoin:round;"
         d="M 8.7185878,4.0337352 L -2.2072895,0.016013256 L 8.7185884,-4.0017078 C 6.9730900,-1.6296469 6.9831476,1.6157441 8.7185878,4.0337352 z "
         transform="scale(0.3) rotate(180) translate(-2.3,0)" />
    </marker>
    <marker
       inkscape:stockid="SemiCircleOut"
       orient="auto"
       refY="0.0"
       refX="0.0"
       id="SemiCircleOut"
       style="overflow:visible">
      <path
         id="path4235"
         d="M -2.5,-0.80913858 C -2.5,1.9508614 -4.7400000,4.1908614 -7.5,4.1908614 L -7.5,-5.8091386 C -4.7400000,-5.8091386 -2.5,-3.5691386 -2.5,-0.80913858 z "
         style="fill-rule:evenodd;stroke:#000000;stroke-width:1.0pt;marker-start:none;marker-end:none"
         transform="scale(0.6) translate(7.125493,0.763446)" />
    </marker>
    <marker
       inkscape:stockid="Arrow1Send"
       orient="auto"
       refY="0.0"
       refX="0.0"
       id="Arrow1Send"
       style="overflow:visible;">
      <path
         id="path4131"
         d="M 0.0,0.0 L 5.0,-5.0 L -12.5,0.0 L 5.0,5.0 L 0.0,0.0 z "
         style="fill-rule:evenodd;stroke:#000000;stroke-width:1.0pt;marker-start:none;"
         transform="scale(0.2) rotate(180) translate(6,0)" />
    </marker>
    <marker
       inkscape:stockid="Arrow1Sstart"
       orient="auto"
       refY="0.0"
       refX="0.0"
       id="Arrow1Sstart"
       style="overflow:visible">
      <path
         id="path4128"
         d="M 0.0,0.0 L 5.0,-5.0 L -12.5,0.0 L 5.0,5.0 L 0.0,0.0 z "
         style="fill-rule:evenodd;stroke:#000000;stroke-width:1.0pt;marker-start:none"
         transform="scale(0.2) translate(6,0)" />
    </marker>
    <marker
       inkscape:stockid="Tail"
       orient="auto"
       refY="0.0"
       refX="0.0"
       id="Tail"
       style="overflow:visible">
      <g
         id="g4152"
         transform="scale(-1.2)">
        <path
           id="path4154"
           d="M -3.8048674,-3.9585227 L 0.54352094,0"
           style="fill:none;fill-rule:evenodd;stroke:#000000;stroke-width:0.8;marker-start:none;marker-end:none;stroke-linecap:round" />
        <path
           id="path4156"
           d="M -1.2866832,-3.9585227 L 3.0617053,0"
           style="fill:none;fill-rule:evenodd;stroke:#000000;stroke-width:0.8;marker-start:none;marker-end:none;stroke-linecap:round" />
        <path
           id="path4158"
           d="M 1.3053582,-3.9585227 L 5.6537466,0"
           style="fill:none;fill-rule:evenodd;stroke:#000000;stroke-width:0.8;marker-start:none;marker-end:none;stroke-linecap:round" />
        <path
           id="path4160"
           d="M -3.8048674,4.1775838 L 0.54352094,0.21974226"
           style="fill:none;fill-rule:evenodd;stroke:#000000;stroke-width:0.8;marker-start:none;marker-end:none;stroke-linecap:round" />
        <path
           id="path4162"
           d="M -1.2866832,4.1775838 L 3.0617053,0.21974226"
           style="fill:none;fill-rule:evenodd;stroke:#000000;stroke-width:0.8;marker-start:none;marker-end:none;stroke-linecap:round" />
        <path
           id="path4164"
           d="M 1.3053582,4.1775838 L 5.6537466,0.21974226"
           style="fill:none;fill-rule:evenodd;stroke:#000000;stroke-width:0.8;marker-start:none;marker-end:none;stroke-linecap:round" />
      </g>
    </marker>
    <marker
       inkscape:stockid="Arrow1Lend"
       orient="auto"
       refY="0.0"
       refX="0.0"
       id="Arrow1Lend"
       style="overflow:visible;">
      <path
         id="path4119"
         d="M 0.0,0.0 L 5.0,-5.0 L -12.5,0.0 L 5.0,5.0 L 0.0,0.0 z "
         style="fill-rule:evenodd;stroke:#000000;stroke-width:1.0pt;marker-start:none;"
         transform="scale(0.8) rotate(180) translate(12.5,0)" />
    </marker>
    <marker
       inkscape:stockid="TriangleOutL"
       orient="auto"
       refY="0.0"
       refX="0.0"
       id="TriangleOutL"
       style="overflow:visible">
      <path
         id="path4214"
         d="M 5.77,0.0 L -2.88,5.0 L -2.88,-5.0 L 5.77,0.0 z "
         style="fill-rule:evenodd;stroke:#000000;stroke-width:1.0pt;marker-start:none"
         transform="scale(0.8)" />
    </marker>
    <marker
       inkscape:stockid="Arrow1Mend"
       orient="auto"
       refY="0.0"
       refX="0.0"
       id="Arrow1Mend"
       style="overflow:visible;">
      <path
         id="path4125"
         d="M 0.0,0.0 L 5.0,-5.0 L -12.5,0.0 L 5.0,5.0 L 0.0,0.0 z "
         style="fill-rule:evenodd;stroke:#000000;stroke-width:1.0pt;marker-start:none;"
         transform="scale(0.4) rotate(180) translate(10,0)" />
    </marker>
    <marker
       inkscape:stockid="Arrow2Lend"
       orient="auto"
       refY="0.0"
       refX="0.0"
       id="Arrow2Lend"
       style="overflow:visible;">
      <path
         id="path4137"
         style="font-size:12.0;fill-rule:evenodd;stroke-width:0.62500000;stroke-linejoin:round;"
         d="M 8.7185878,4.0337352 L -2.2072895,0.016013256 L 8.7185884,-4.0017078 C 6.9730900,-1.6296469 6.9831476,1.6157441 8.7185878,4.0337352 z "
         transform="scale(1.1) rotate(180) translate(1,0)" />
    </marker>
    <inkscape:perspective
       sodipodi:type="inkscape:persp3d"
       inkscape:vp_x="0 : 16 : 1"
       inkscape:vp_y="0 : 1000 : 0"
       inkscape:vp_z="32 : 16 : 1"
       inkscape:persp3d-origin="16 : 10.666667 : 1"
       id="perspective14642" />
    <inkscape:perspective
       sodipodi:type="inkscape:persp3d"
       inkscape:vp_x="0 : 6 : 1"
       inkscape:vp_y="0 : 1000 : 0"
       inkscape:vp_z="12 : 6 : 1"
       inkscape:persp3d-origin="6 : 4 : 1"
       id="perspective14640" />
    <inkscape:perspective
       sodipodi:type="inkscape:persp3d"
       inkscape:vp_x="0 : 526.18109 : 1"
       inkscape:vp_y="0 : 1000 : 0"
       inkscape:vp_z="744.09448 : 526.18109 : 1"
       inkscape:persp3d-origin="372.04724 : 350.78739 : 1"
       id="perspective14638" />
    <symbol
       id="symbol14628"
       viewBox="244.5 110 489 219.9">
      <path
         d="M79,43l57,119c0,0,21-96,104-96s124,106,124,106l43-133l82-17L0,17L79,43z"
         id="path14630" />
      <path
         fill="none"
         stroke="#000000"
         stroke-width="20"
         d="M94,176l-21,39"
         id="path14632" />
      <path
         d="M300,19c0,10.5-22.6,19-50.5,19S199,29.5,199,19s22.6-19,50.5-19S300,8.5,300,19z"
         id="path14634" />
      <path
         ill="none"
         stroke="#000000"
         stroke-width="20"
         d="M112,216l-16-38L64,88c0,0-9-8-4-35s16-24,16-24"
         id="path14636" />
    </symbol>
    <inkscape:perspective
       sodipodi:type="inkscape:persp3d"
       inkscape:vp_x="0 : 30 : 1"
       inkscape:vp_y="0 : 1000 : 0"
       inkscape:vp_z="60 : 30 : 1"
       inkscape:persp3d-origin="30 : 20 : 1"
       id="perspective14626" />
    <inkscape:perspective
       id="perspective14624"
       inkscape:persp3d-origin="290 : 193.33333 : 1"
       inkscape:vp_z="580 : 290 : 1"
       inkscape:vp_y="0 : 1000 : 0"
       inkscape:vp_x="0 : 290 : 1"
       sodipodi:type="inkscape:persp3d" />
    <inkscape:perspective
       id="perspective14775"
       inkscape:persp3d-origin="372.04724 : 350.78739 : 1"
       inkscape:vp_z="744.09448 : 526.18109 : 1"
       inkscape:vp_y="0 : 1000 : 0"
       inkscape:vp_x="0 : 526.18109 : 1"
       sodipodi:type="inkscape:persp3d" />
    <inkscape:perspective
       id="perspective14839"
       inkscape:persp3d-origin="372.04724 : 350.78739 : 1"
       inkscape:vp_z="744.09448 : 526.18109 : 1"
       inkscape:vp_y="0 : 1000 : 0"
       inkscape:vp_x="0 : 526.18109 : 1"
       sodipodi:type="inkscape:persp3d" />
    <inkscape:perspective
       id="perspective15123"
       inkscape:persp3d-origin="372.04724 : 350.78739 : 1"
       inkscape:vp_z="744.09448 : 526.18109 : 1"
       inkscape:vp_y="0 : 1000 : 0"
       inkscape:vp_x="0 : 526.18109 : 1"
       sodipodi:type="inkscape:persp3d" />
    <inkscape:perspective
       id="perspective5089"
       inkscape:persp3d-origin="0.5 : 0.33333333 : 1"
       inkscape:vp_z="1 : 0.5 : 1"
       inkscape:vp_y="0 : 1000 : 0"
       inkscape:vp_x="0 : 0.5 : 1"
       sodipodi:type="inkscape:persp3d" />
  </defs>
  <g
     id="g1327">
    <path
       d="M 66.275,1.768 C 24.94,1.768 1.704,23.139 1.704,66.804 L 1.704,516.927 C 1.704,557.771 22.599,579.156 63.896,579.156 L 515.92,579.156 C 557.227,579.156 578.149,558.841 578.149,516.927 L 578.149,66.804 C 578.149,24.203 557.227,1.768 514.628,1.768 C 514.624,1.768 66.133,1.625 66.275,1.768 z "
       style="fill:#111;stroke:#eee;stroke-width:3.40799999"
       id="path1329" />
  </g>
  <path
     style="color:#000000;clip-rule:nonzero;display:inline;overflow:visible;visibility:visible;opacity:1;isolation:auto;mix-blend-mode:normal;color-interpolation:sRGB;color-interpolation-filters:linearRGB;solid-color:#000000;solid-opacity:1;fill:#ffffff;fill-opacity:1;fill-rule:evenodd;stroke:none;stroke-width:40;stroke-linecap:round;stroke-linejoin:round;stroke-miterlimit:10;stroke-dasharray:none;stroke-dashoffset:0;stroke-opacity:1;marker:none;color-rendering:auto;image-rendering:auto;shape-rendering:auto;text-rendering:auto;enable-background:accumulate"
     d="m 308.86943,165.7728 c -42.26386,1.5e-4 -79.80153,4.49895 -101.48314,11.62794 -2.05883,0.73366 -4.00077,1.49302 -5.79559,2.28639 -8.61565,4.39112 -14.35782,10.23256 -18.45445,18.22581 -4.28582,10.78953 -7.90514,27.76195 -10.38063,46.83633 -1.32761,13.41687 -2.15602,29.10748 -2.51299,47.29156 l -0.0285,1.41267 -0.33071,21.64928 0.7492,9.27009 0.8227,10.21119 4.69935,9.74166 c 10.32032,21.40114 15.71661,26.43726 31.29295,29.20866 l 2.72325,0.48586 8.51681,0.21638 c 1.16111,0.0295 2.35888,0.0437 3.56228,0.0531 l 3.91749,-0.12044 c 7.11322,-0.21661 14.08025,-0.67911 15.48417,-1.02888 3.30058,-0.82226 3.28567,0.18121 -0.0285,1.87199 -4.39609,2.24272 -9.9334,3.3851 -18.65451,3.86236 -0.74779,0.0589 -1.49799,0.11245 -2.24761,0.15311 l -8.63316,0.46952 0.35929,2.21291 c 0.13876,0.8551 0.3594,1.71564 0.65122,2.57832 0.38026,0.93015 0.81802,1.92705 1.29426,2.88657 l 0.51239,1.03296 c 0.84791,1.4635 1.87706,2.91964 3.06213,4.3523 0.0324,0.0387 0.0674,0.0778 0.10003,0.11637 0.24005,0.28403 0.47756,0.56832 0.72879,0.85127 0.26272,0.29591 0.53794,0.58952 0.81248,0.88393 l 2.45583,2.35784 c 1.55658,1.49438 3.25914,2.94209 5.06477,4.32782 14.63472,10.97093 35.90855,17.75445 43.80891,10.21731 0.13426,-0.12809 0.26719,-0.27673 0.39807,-0.42665 0.12784,-0.15152 0.24857,-0.31235 0.37358,-0.46953 1.96374,-2.60946 3.38463,-7.32251 2.79471,-8.92102 -0.10107,-0.17857 -0.23396,-0.33828 -0.40013,-0.48381 -0.0833,-0.0385 -0.1729,-0.0633 -0.27763,-0.0633 -0.54672,0 -1.95847,-0.86438 -3.16216,-1.9271 l -0.93293,-0.45523 -0.0388,-0.40829 -1.30038,-1.16157 0.87168,-2.95801 c 2.42763,-8.25253 2.57026,-11.66855 0.72879,-17.42354 -0.14085,-0.4402 -0.3249,-0.78117 -0.54097,-1.04112 -0.6918,-0.43004 -1.49789,-0.54135 -2.38235,-0.28172 -0.65617,0.4396 -1.40548,1.12505 -2.28026,2.07408 -0.88424,0.95928 -1.57898,1.75881 -2.1537,2.50483 -0.0735,0.11649 -0.14254,0.2371 -0.21435,0.3552 -1.13365,2.02444 -2.00214,4.42353 -2.24148,6.81631 -0.6743,6.74177 -1.48607,8.42841 -3.86645,6.52847 -0.29442,-0.21095 -0.60652,-0.48926 -0.94109,-0.84924 -0.14681,-0.1452 -0.29236,-0.28712 -0.44912,-0.45115 -1.65679,-1.73361 -2.8536,-3.57673 -3.61128,-5.4955 l -0.63896,-1.03501 0.0184,-0.94109 c -0.51512,-2.22407 -0.45928,-4.53482 0.14903,-6.89388 l 0.0143,-0.65325 0.71245,-1.55965 c 0.24274,-0.60699 0.52262,-1.21425 0.83699,-1.82503 l 0.13065,-0.2858 1.68009,-3.67252 2.66405,-2.34355 c 1.44492,-1.59111 3.12492,-3.17897 5.04027,-4.74835 l 3.20299,-2.62527 c 0.54039,-0.49616 1.25212,-1.13674 1.59231,-1.45961 l 1.05337,-1.00029 c 0.2707,-0.31499 0.51781,-0.6254 0.75125,-0.93294 l 0.84719,-1.75562 c 0.73368,-1.52034 1.84286,-5.67266 2.46399,-9.22927 l 0.57568,-3.29689 0.2021,-6.9143 c 0.0507,-1.73647 0.0706,-3.82855 0.0674,-6.06302 l -0.16944,-5.84867 c -0.31438,-10.84973 -0.74221,-18.10221 -1.70255,-23.67028 -0.50314,-2.4517 -1.08583,-4.77607 -1.77604,-6.96329 -0.35294,-0.94374 -0.72542,-1.86988 -1.12073,-2.77633 -1.22719,-2.6536 -2.7976,-5.14603 -4.83001,-7.97787 -4.49049,-6.25677 -9.04962,-10.91775 -15.06977,-14.95138 -1.58005,-1.03693 -3.24549,-2.04149 -5.00353,-3.01721 -0.41931,-0.23024 -0.83039,-0.46237 -1.26363,-0.69 -0.0736,-0.0393 -0.14862,-0.0771 -0.22252,-0.11637 -4.26706,-2.22547 -9.22061,-4.34023 -15.16367,-6.55092 -4.76391,-1.77208 -9.16562,-3.59297 -9.7825,-4.04405 l -1.12073,-0.81861 0.48789,-1.54331 c 0.0556,-0.17517 0.16132,-0.36028 0.28989,-0.54914 l -0.008,-0.0551 0.0816,-0.0592 c 0.4033,-0.54173 1.06093,-1.09506 1.79441,-1.51473 l 0.94517,-0.78391 0.6553,0.0551 c 0.001,-4.5e-4 0.004,-0.002 0.006,-0.002 l 1.44328,-0.60426 1.29222,0.23884 c 2.28453,0.0113 5.09867,0.63454 8.26368,1.75766 1.45741,0.47236 2.98364,1.05722 4.55645,1.72909 16.68296,6.48179 34.67166,20.5662 44.30906,34.87768 0.0352,0.0519 0.0671,0.10327 0.10211,0.15515 0.35242,0.52671 0.6956,1.05319 1.0248,1.58006 0.0676,0.10846 0.13164,0.21628 0.19801,0.32459 0.97479,1.5835 1.85499,3.16569 2.60078,4.7361 l 1.2024,2.5334 0.49606,1.00234 0.006,0.0551 0.75329,1.58619 0.52668,11.66672 c 0.81906,18.08621 0.85603,33.02285 0.0633,46.37088 l 0.008,0.79003 -0.18168,2.00877 c -0.57345,8.27088 -1.4783,15.95173 -2.73347,23.41918 l -1.48003,8.80261 c -0.26179,2.53649 -0.41011,4.91835 -0.44095,7.01025 l 0.10003,1.63721 0.24702,4.06243 0.14493,0.96151 1.2269,2.10062 c 0.7038,1.20509 2.25561,2.76009 3.5092,3.5337 1.23505,0.67669 2.67503,1.18618 4.24208,1.52086 l 1.76174,0.0837 2.41092,0.1041 c 1.70435,0.0739 3.12397,0.10138 4.37885,0.0612 2.15998,-0.28794 4.29341,-0.82981 6.24266,-1.62701 1.66857,-0.87406 3.78861,-2.22423 5.37507,-3.45614 2.02783,-1.57466 3.35157,-2.48681 4.45642,-2.71712 0.0355,-0.007 0.0732,-0.0162 0.1082,-0.0225 0.12345,-0.021 0.24452,-0.0316 0.36338,-0.0347 0.22763,-0.0282 0.43465,-0.005 0.63283,0.0694 1.13031,0.29463 2.19253,1.47528 3.86237,3.62556 2.94155,3.78788 7.90952,8.44212 10.85016,10.16629 2.00204,1.17384 4.1461,1.06735 9.7437,-0.48382 15.33799,-4.25038 30.2605,-15.29048 39.54845,-29.25765 l 1.7148,-2.57832 c 0.54648,-1.03336 0.89155,-1.68378 0.48178,-2.12308 l -0.50832,-0.20414 c -0.68335,-0.27355 -6.33431,-1.11565 -12.55883,-1.87199 -11.39897,-1.38507 -16.31334,-2.39391 -14.76968,-3.02538 -0.0703,-0.042 -0.12044,-0.0808 -0.12044,-0.11432 0,-0.0413 0.34184,-0.0744 0.93906,-0.0959 2.12157,-0.37322 7.30496,-0.56596 15.56788,-0.57976 l 14.6186,-0.0245 c 0.84897,-0.10832 1.68267,-0.22543 2.49258,-0.35929 l 2.15166,-0.46749 c 0.43361,-0.0944 0.85659,-0.20049 1.28202,-0.30418 l 1.39225,-0.38786 c 2.98654,-0.83366 7.7201,-2.81256 10.51941,-4.39722 l 1.78218,-1.00846 c 1.8751,-1.19392 3.72564,-2.5636 5.58329,-4.11347 l 3.94399,-3.88483 5.36693,-5.28931 c 0.45676,-0.68074 0.81829,-1.38139 1.13301,-2.17004 l 0.8023,-3.77254 c 1.17596,-5.53481 2.40795,-14.24807 3.23565,-21.82892 0.38202,-4.43906 0.69631,-9.21877 0.94309,-14.21033 -0.0376,-0.45786 -0.10243,-0.7588 -0.19797,-0.86352 -0.24238,-0.26697 -4.80022,-0.83993 -10.12952,-1.27385 l -2.57226,-0.21027 c -3.00507,-0.0188 -6.36395,0.0554 -9.70695,0.20006 l -0.30624,0.0919 -2.89265,0.87169 -10.57661,0.096 c -6.38904,0.18594 -15.84105,0.31031 -25.50143,0.31031 l -27.90826,0 -2.12104,-0.75737 c -0.0602,-0.018 -0.11834,-0.0381 -0.17761,-0.0572 -4.45835,-0.80255 -4.84838,-2.33952 -4.84838,-5.14437 l 0,-0.37971 0,-0.48381 -0.16127,-0.66347 0.16127,-0.15311 0,-0.31438 2.41704,-2.34763 c 0.97898,-0.95088 2.44457,-2.00896 4.23392,-3.11112 5.13768,-3.61306 11.80547,-6.55306 18.80556,-8.57193 2.41804,-0.84724 4.85151,-1.61858 7.21643,-2.26803 l 4.42581,-1.21464 4.31148,0 c 0.38164,-0.0371 0.76345,-0.073 1.13298,-0.0979 l 6.12631,-0.4144 1.99855,0.51239 2.76613,0 4.69323,2.22312 4.69118,2.2231 5.85888,5.69353 c 3.15341,3.06548 6.61109,6.01229 7.81047,6.66524 l 1.01865,0.45524 c 3.50929,1.45347 14.68078,5.46314 18.39117,6.56928 l 1.10039,0.32868 0,-24.15819 0,-12.59148 c -0.897,-37.72517 -5.06372,-62.49708 -15.92113,-78.9234 -0.89647,-1.26706 -1.83726,-2.48648 -2.82321,-3.6623 -6.42527,-7.26193 -14.83202,-13.14079 -25.31978,-17.6685 -7.83496,-3.18992 -16.95926,-5.64098 -27.58165,-7.53693 -4.54337,-0.72954 -9.35451,-1.36016 -14.46142,-1.90873 l -7.01229,-0.75328 -9.87843,-0.15924 -15.1004,0 z m -74.20975,68.3325 0.9023,0.10003 c 1.85096,0.0386 3.69839,0.15667 5.53226,0.35929 l 4.81163,-0.002 6.62238,2.2721 c 1.23286,0.42306 2.51941,0.95772 3.83786,1.58005 3.06358,1.26473 5.99287,2.81696 8.72708,4.67486 1.42296,0.96691 2.96997,2.18535 4.54625,3.54187 2.48344,1.89486 4.7945,3.96313 6.87755,6.1753 4.65001,4.56735 7.83891,9.01475 7.84518,11.84433 l 0,0.24293 0.12044,0.48177 -0.1184,0.1184 0.002,0.70021 -1.79849,1.09625 -0.92477,0.92475 -0.66346,0 c -0.69999,0.37999 -1.25493,0.63988 -1.37796,0.61856 -0.17879,-0.0309 -1.17873,-0.30797 -2.24556,-0.61856 l -0.36338,0 -0.58997,-0.4042 c -1.5875,-0.82033 -4.56447,-2.82694 -7.35319,-4.99535 -14.58909,-11.34397 -26.20727,-17.41737 -37.83775,-18.38912 l -3.34385,0.13677 -6.24266,0.25722 c -1.66573,0.33858 -3.39233,0.76228 -5.1648,1.26976 l -2.88657,0.97172 c -5.15849,1.7353 -11.09595,4.40124 -16.55184,7.36136 -2.09036,1.21369 -4.23337,2.52281 -6.45293,3.9522 -0.92333,0.59461 -1.69172,1.02609 -2.32314,1.32079 -1.70441,1.08519 -2.48005,1.3867 -2.36397,0.74104 -0.043,-0.15491 0.0249,-0.42325 0.1919,-0.7982 -0.0448,-1.05655 1.64376,-3.6151 4.73405,-6.98574 0.34204,-0.40869 0.69145,-0.81251 1.04929,-1.20852 l 0.66958,-0.95538 1.0248,-0.81657 c 0.98581,-0.97427 2.01977,-1.90542 3.09888,-2.79267 l 3.99098,-3.72151 6.29574,-3.09275 c 3.46289,-1.70078 8.28808,-3.63162 10.72155,-4.29107 l 4.42376,-1.19831 5.175,-0.004 c 2.13218,-0.23272 4.27681,-0.35681 6.42231,-0.37562 z m 142.61981,1.14727 6.12631,1.58823 c 10.06463,2.61029 18.68673,7.74475 25.46056,15.1004 1.61589,1.67043 3.01762,3.38599 4.15031,5.10763 0.58459,0.81621 1.1537,1.65334 1.70045,2.51095 0.85571,1.34213 1.09799,2.0622 0.64918,2.15983 0,0.4343 -0.58396,0.18205 -1.89852,-0.67163 -0.84076,-0.44606 -1.9352,-1.10634 -3.3132,-1.99447 -7.06103,-4.55098 -17.56668,-9.50177 -24.70735,-11.64427 l -6.06915,-1.82094 c -0.0447,-0.006 -0.09,-0.0121 -0.13474,-0.0184 l -7.74923,-0.0776 -3.66435,-0.0368 c -7.62233,0.93767 -15.18449,3.93454 -23.15993,8.98225 -2.71871,1.81348 -5.55612,3.87334 -8.43923,6.14672 -7.78154,6.13586 -11.43693,8.55235 -14.17563,8.74137 l -1.33305,0.32867 -0.76758,-0.60426 -0.0347,0.004 -0.0878,-0.0857 c -0.062,-0.0246 -0.12379,-0.0446 -0.18577,-0.0715 l -0.3552,0 -0.28377,-0.31438 c -0.0325,-0.0177 -0.0633,-0.0308 -0.096,-0.049 l -1.87197,-1.04112 0,-1.08604 -0.21435,-0.23681 0.21435,-0.71858 0,-0.16739 c 0,-1.33597 0.2415,-2.36176 1.21259,-3.89095 l 0.30214,-1.00438 1.36775,-1.35959 c 0.39842,-0.56655 0.83763,-1.14315 1.31876,-1.72908 1.62846,-2.07323 3.7073,-4.24242 6.10589,-6.37331 1.63072,-1.5408 3.33993,-2.99403 5.10763,-4.34824 l 2.07205,-2.05979 2.97844,-1.43512 c 4.57329,-2.8488 9.38758,-5.03138 14.15725,-6.33861 l 5.19745,-1.42491 10.2112,-0.0326 z m 0.11024,13.52443 c 1.02187,0.007 1.85299,0.0907 2.50687,0.23884 l 0.23885,-0.0184 0.35316,0.18985 c 0.27473,0.10087 0.49672,0.21899 0.66346,0.35522 l 0.26539,0.14085 0.96763,-0.0449 0,0.56343 0.83902,0.44911 -0.92884,0.86147 c -0.43198,0.39979 -2.56369,1.4461 -5.01373,2.49462 -1.13329,0.61398 -2.48996,1.26833 -4.10938,1.96589 -17.51234,7.54335 -26.17435,13.4075 -42.91476,29.04739 -2.37178,2.21586 -4.2268,3.92648 -5.75681,5.30565 -2.64469,2.53453 -4.05324,3.78523 -4.72589,4.06039 l -0.69409,0.6308 0,-0.10003 0,-0.29193 c -0.49696,0.13905 -0.67979,-0.13673 -0.67979,-0.73287 0,-0.0579 0.008,-0.1239 0.0122,-0.18576 -0.001,-0.0462 -0.006,-0.0853 -0.006,-0.13474 0.0354,-6.35008 7.80968,-16.7871 17.58889,-25.78724 0.31301,-0.32202 0.62782,-0.65239 0.93905,-0.96151 6.91485,-6.86856 13.44,-11.34709 20.93274,-14.07559 1.55843,-0.66433 3.06885,-1.19993 4.49724,-1.56577 6.58379,-1.68626 11.72922,-2.42685 15.02486,-2.40479 z m -154.36615,40.27723 4.66056,0.52873 c 15.09112,0.93958 28.79785,4.06241 35.03079,8.01259 l 3.19483,2.02509 1.45553,3.00701 c 0.006,0.0123 0.0121,0.0245 0.0184,0.0368 0.0104,0.0199 0.0212,0.0392 0.0306,0.0592 l 0.1429,0.14697 0.002,0.15107 c 0.005,0.0123 0.0111,0.0245 0.0163,0.0368 l 1.24527,2.57627 -0.17556,0.80433 0.0469,0.16535 -0.15107,0.31234 -0.16331,0.74103 c -0.0818,0.37241 -0.20119,0.73439 -0.34909,1.08808 l 0,0.12657 0,0.31846 -0.43278,0.4042 c -0.27786,0.4641 -0.61747,0.91129 -1.02274,1.34121 l -0.24702,0.50423 -0.61855,0.30418 c -4.12407,3.44772 -12.89771,5.70265 -26.94676,6.97758 l -6.67749,0.69408 -1.97201,-0.0592 -10.48271,0.62875 -9.66408,-0.82269 c -3.22937,-0.27513 -6.58143,-0.49776 -9.22723,-0.63283 -1.3368,-0.0281 -3.26094,-0.0765 -3.83991,-0.0797 l -2.4987,-0.0143 -0.81657,0.0143 -2.04754,0.71042 -4.08284,1.6413 c -3.21512,1.29094 -5.98531,2.20693 -6.1549,2.03734 -0.005,-0.005 -0.007,-0.0141 -0.0105,-0.0225 l -0.0469,0.0184 0.0409,-0.0388 c -0.0212,-0.28307 1.00261,-1.49466 2.38642,-2.81105 l 1.92097,-1.82911 c 0.34144,-0.49125 0.60614,-0.94018 0.75737,-1.29426 l 0,-1.33101 c 0,-0.89544 -0.55229,-2.44616 -1.30038,-3.76642 -0.14767,-0.21452 -0.30277,-0.42649 -0.46953,-0.62467 -0.53425,-0.63492 -0.9556,-1.33754 -1.19831,-1.93936 -0.20092,-0.21739 -0.31288,-0.40404 -0.32867,-0.56546 -0.0332,-0.14933 -0.001,-0.27843 0.10616,-0.38788 0.003,-0.082 0.0148,-0.16022 0.0388,-0.22252 l 0.38787,-1.00845 4.45029,0 4.26454,0 0.98396,-0.97989 0.72879,-0.8921 c 2.24944,-2.75854 4.91535,-5.33011 7.7574,-7.55733 l 1.93731,-1.93119 2.9866,-1.46779 c 3.01429,-1.81299 6.07151,-3.1787 8.92509,-3.91136 l 0.5267,-0.13473 1.17585,-0.43687 0.50627,0.004 2.21698,-0.56751 1.85974,0.1041 z m -46.69343,72.28265 c -0.0238,-0.003 -0.0407,0.007 -0.049,0.0326 -0.0478,0.14326 0.002,0.59946 0.12452,1.27793 1.26449,5.63955 7.06016,25.51508 9.94989,33.87943 7.22267,20.90613 16.42117,41.19594 26.69771,59.59521 8.42125,14.69878 17.6792,28.62187 26.89368,40.62224 13.26456,16.70282 27.008,29.43864 39.85466,36.19237 0.44714,0.23505 0.81305,0.41953 1.20853,0.62263 0.84758,0.42353 1.61384,0.80325 2.27006,1.12074 3.12718,1.44 3.80725,1.15334 3.80725,-0.61039 0,-2.14482 -1.4987,-9.24781 -4.46459,-21.14504 -0.60456,-2.42508 -1.19008,-5.19531 -1.66784,-7.79619 l -0.0959,-0.37154 -0.0105,-0.2021 c -0.50172,-2.79901 -0.86526,-5.34264 -0.9656,-6.94491 l -0.0428,-0.68388 -0.53077,-4.19716 0.24089,-0.40829 -0.0306,-0.4981 0.5716,-0.92681 -0.006,-0.11024 0.22864,-0.25312 0.25314,-0.41033 c 2.41396,-3.92873 4.15213,-8.05552 4.76467,-11.23803 l 0.0122,-3.056 0.0163,-3.63374 -0.55118,-1.89648 c -0.6034,-2.07559 -2.07094,-4.84058 -3.31527,-6.24471 l -0.86965,-0.98192 c -1.34737,-1.03362 -3.16503,-1.83475 -5.99565,-2.75184 l -2.11695,-0.55526 c -3.71183,-0.97196 -10.72211,-3.28416 -15.57605,-5.1403 -4.85394,-1.85611 -9.62629,-3.28206 -10.60723,-3.16828 l -1.39429,0.16126 -0.11636,0.10617 c -0.0946,0.0856 -0.1837,0.17564 -0.26743,0.26742 l -0.0409,0.0898 -0.17353,2.09857 c -0.12581,1.51421 0.23849,3.20307 0.91661,4.238 l 1.1289,1.72092 -0.10616,0.41237 0.0756,0.1429 -0.46544,1.37796 -0.36134,1.40857 -0.85739,3.34385 2.19453,8.6148 c 0.71282,2.79881 1.30688,5.51368 1.65355,7.45323 0.26324,1.30928 0.38414,2.23113 0.31233,2.68038 l -0.006,0.0347 c -0.003,0.15918 -0.0208,0.28122 -0.0551,0.36337 l -0.16331,1.08808 -1.80463,-2.79266 c -2.28925,-3.54374 -7.20227,-12.43571 -13.12633,-23.75398 -5.22156,-9.97609 -8.86332,-16.89943 -11.7443,-22.28008 -0.001,-0.002 -0.003,-0.004 -0.004,-0.006 -3.27285,-5.96019 -6.39229,-11.44572 -8.89447,-15.65361 -1.23087,-1.94138 -2.46572,-3.78934 -3.95219,-5.96504 -7.12634,-10.43055 -15.11618,-23.68885 -19.89365,-33.01386 -4.18135,-8.16147 -10.79249,-19.65405 -12.56903,-22.0004 -0.12197,-0.13735 -0.22915,-0.24891 -0.28172,-0.25518 z m 151.53879,6.8551 3.14175,2.89677 c 3.92652,3.61935 6.39529,7.78154 7.56345,12.7446 1.44641,6.14507 0.77116,6.78946 -1.72703,1.64742 -0.85985,-1.76984 -2.6441,-4.84854 -3.96648,-6.8408 l -0.91865,-1.38204 c -1.3131,-1.64966 -2.57443,-2.76719 -3.85624,-3.44183 l -0.98804,-0.50016 -3.35814,-1.70255 0.2123,-1.4984 0.21435,-1.49636 0.87986,-0.10211 c 0.0158,-0.006 0.033,-0.0121 0.049,-0.0184 0.15361,-0.12096 0.33028,-0.19974 0.53485,-0.2266 0.26058,-0.0448 0.56043,-0.0152 0.89006,0.0735 z m 89.89193,0.6165 -1.23303,3.55412 c -5.87282,16.91608 -27.79503,52.50705 -63.23096,102.65899 -2.26982,3.21246 -3.32968,4.41184 -3.24178,3.71539 -0.11523,0.12037 -0.19418,0.18756 -0.21435,0.1674 -0.042,-0.042 0.29156,-0.74017 0.79616,-1.73317 1.78861,-4.01355 7.78961,-14.9603 17.73587,-32.28304 l 7.80639,-13.59586 c 0.10913,-0.33883 0.11168,-0.55378 -0.0184,-0.63897 l -4.5442,2.07 c -1.3463,0.61353 -2.47669,1.06849 -3.37856,1.38409 -0.32195,0.12421 -0.57929,0.20656 -0.77778,0.25109 -1.79547,0.53082 -2.05974,0.1729 -0.0105,-1.18606 0.48234,-0.3198 0.97098,-0.66617 1.46165,-1.02888 0.61623,-0.54997 1.32685,-1.16675 2.24353,-1.92506 1.25714,-1.03994 2.50271,-2.14383 3.73172,-3.29281 10.14127,-10.07981 20.49333,-26.13415 24.64608,-36.75579 0.79146,-2.64973 1.23097,-5.09257 1.23097,-7.20622 l 0,-2.366 -0.36133,-0.79003 c -0.63043,-0.45093 -1.5643,-0.54174 -2.83962,-0.20823 l -0.62467,0.16331 -0.76553,0.34908 c -0.0513,0.0587 -0.10264,0.1181 -0.15311,0.18373 l -1.39198,3.8685 c -0.70186,1.94996 -1.45167,3.84967 -2.24351,5.70373 -1.60823,3.96067 -3.5555,7.77876 -5.80785,11.41767 -11.69442,19.50174 -29.59973,32.15467 -53.20149,37.4764 l -5.10355,1.15137 -22.12287,0.31642 -22.12289,0.31846 -1.80258,-0.69613 -1.25956,0.0143 0,-0.11636 0,-0.12861 -0.20822,-0.33479 -0.57159,-0.22048 0.23476,-1.19015 0.23476,-1.1881 0.86148,0.0122 0.24701,-0.296 16.08232,0.42462 10.65826,0.27966 1.99243,0.0306 c 1.95433,-0.0468 3.14186,-0.12091 3.14175,-0.21843 0,-0.0138 -0.0104,-0.0374 -0.0122,-0.0531 l -0.18169,-0.22862 -3.87258,-4.4646 c -2.14311,-2.47072 -3.89114,-4.53599 -5.41384,-6.28146 -2.00323,-2.02512 -3.94944,-3.89392 -5.47305,-5.2342 -2.8123,-1.33198 -5.19685,-0.26146 -8.50048,3.03969 -2.04567,2.22441 -4.58669,5.35939 -8.04321,9.43953 l -3.2479,3.83378 -2.51299,0.47157 c -11.19557,2.1003 -24.27543,-1.67005 -37.18449,-9.90498 -12.34818,-6.70522 -22.49278,-16.67462 -32.86279,-31.96865 -2.51754,-3.47685 -4.93448,-7.11047 -7.21439,-10.90935 -2.84363,-4.73816 -2.84012,-4.66127 0.18373,3.46428 6.19435,16.64515 16.61141,31.62009 29.92724,43.67418 0.14885,0.13438 0.29756,0.26841 0.44707,0.40215 0.66799,0.59851 1.34084,1.19233 2.02305,1.77604 0.0596,0.0511 0.11996,0.10002 0.17964,0.15106 11.26945,9.6033 24.44577,17.17165 38.79517,22.0004 l 6.67341,2.24557 13.97148,0.42869 0.53691,0.002 c 13.67254,0.0161 25.00683,0.91807 26.16897,2.0802 l 0.34705,0.34297 0.0735,0.0428 -0.0184,0.0143 0.25926,0.25926 -1.52698,1.06971 c -2.54508,1.78264 -4.62314,4.223 -6.22226,7.27563 l -0.13676,0.28171 -0.86149,1.74949 -0.59405,1.23915 c -0.17262,0.533 -0.32979,1.07042 -0.46137,1.61069 l -0.004,3.9481 -0.006,4.5932 2.72122,6.04669 2.72326,6.04873 0,3.11725 c 0,0.0537 -0.005,0.11933 -0.006,0.17556 l 0.15106,1.33918 -0.0531,0.15719 0.0612,0.49606 -0.72265,1.71479 c -0.24371,1.01234 -0.54424,2.01241 -0.87373,2.8335 -2.25378,5.61639 -4.24743,14.52537 -5.01373,21.77583 -0.0638,0.66826 -0.12677,1.33949 -0.18781,2.05777 -0.091,1.20728 -0.14485,2.35479 -0.14903,3.40303 l -0.0122,3.21729 1.64539,-0.62672 c 0.90485,-0.34402 3.43216,-1.52768 5.61595,-2.63139 25.92864,-13.10452 60.23696,-56.94322 82.67348,-105.63947 8.92763,-19.37658 19.27142,-47.8057 20.05491,-55.11633 l 0.29402,-2.7498 z"
     id="rect4581"
     inkscape:connector-curvature="0"
     sodipodi:nodetypes="scccccccccccccccssccccccccccccccccccscccccsccsccsccsccccccccccccccccccccscccsccccsccccccccccccccccccccccccccccccccccccccccsccccsssccccscscscccccccccccccccccccccscccscccccsccccccccccccccccccccccscccsccccccsccccccccccccccsccccccscccccccccccccccccccccccscccccscccccccccccccscccccccccccccccccccccccsscccccscccccssccccccccccccccccccccccccccccccccccccccccscsccccccccccccccccccccccscccccssccccccccccccccccccccsccccccccccccccccccccscccsscccccssccccccccccccccscccscccccccsccscccccccccccccccccccccccccccccsccccccccsscccccccccccccccccccccccscccccscccccsscccc" />
  <path
     style="fill:none;fill-rule:evenodd;stroke:#ffffff;stroke-width:28.48662949;stroke-linecap:round;stroke-linejoin:round;stroke-miterlimit:4;stroke-dasharray:none;stroke-opacity:1"
     d="m 73.978555,541.04357 c 2.177246,-3.90001 0,-342.22497 0,-342.22497"
     id="path4453"
     inkscape:connector-curvature="0" />
  <path
     style="fill:none;fill-rule:evenodd;stroke:#ffffff;stroke-width:28.48662949;stroke-linecap:round;stroke-linejoin:round;stroke-miterlimit:4;stroke-dasharray:none;stroke-opacity:1"
     d="m 505.15337,541.04357 c 2.17725,-3.90001 0,-342.22497 0,-342.22497"
     id="path4453-5"
     inkscape:connector-curvature="0" />
  <path
     style="fill:none;fill-rule:evenodd;stroke:#ffffff;stroke-width:38.53308487;stroke-linecap:round;stroke-linejoin:round;stroke-miterlimit:4;stroke-dasharray:none;stroke-opacity:1"
     d="M 51.606213,152.78719 295.88123,43.802166 528.39449,149.29687"
     id="path4470"
     inkscape:connector-curvature="0"
     sodipodi:nodetypes="ccc" />
</svg>
