<svg width="12" height="12" viewBox="0 0 12 12" fill="none" xmlns="http://www.w3.org/2000/svg">
<path fill-rule="evenodd" clip-rule="evenodd" d="M3.99999 2L4.88819 0.223607C4.95671 0.0865659 5.09677 0 5.24999 0C5.40321 0 5.54327 0.0865656 5.61179 0.223607L5.99999 1L6.38819 0.223607C6.45671 0.0865658 6.59677 0 6.74999 0C6.90321 0 7.04327 0.0865656 7.11179 0.223606L7.99999 2H8.49999C8.77613 2 8.99999 2.22386 8.99999 2.5C8.99999 2.77614 8.77613 3 8.49999 3H7.99999V3.88197C7.99999 4.56717 7.61286 5.19357 6.99999 5.5H4.99999C4.38712 5.19357 3.99999 4.56717 3.99999 3.88197V3H3.5C3.22386 3 3 2.77614 3 2.5C3 2.22386 3.22386 2 3.5 2H3.99999ZM4.33332 3L5.49999 3.5V3H4.33332ZM6.49999 3V3.5L7.49999 3H6.49999Z" fill="white"/>
<path d="M2 6V10H1.5V11H10.5V10H10V6H2Z" fill="white"/>
<path opacity="0.7" d="M5 5.5H7V6H5V5.5Z" fill="white"/>
</svg>
