<svg width="580" height="580" viewBox="0 0 580 580" fill="none" xmlns="http://www.w3.org/2000/svg">
<path d="M225.254 508.213L225.899 345.102" stroke="white" stroke-width="34.7095" stroke-linecap="round" stroke-linejoin="round"/>
<path d="M321.85 401.288L270.273 508.434" stroke="white" stroke-width="34.7095" stroke-linecap="round" stroke-linejoin="round"/>
<path d="M386.432 443.742L323.25 508.213" stroke="white" stroke-width="34.7095" stroke-linecap="round" stroke-linejoin="round"/>
<path d="M137.309 398.189L181.794 508.434" stroke="white" stroke-width="34.7095" stroke-linecap="round" stroke-linejoin="round"/>
<path d="M66.2805 445.677L128.817 508.213" stroke="white" stroke-width="34.7095" stroke-linecap="round" stroke-linejoin="round"/>
<path d="M402.122 41.4272C325.338 41.4272 262.843 103.922 262.843 180.706C262.843 257.491 325.338 319.986 402.122 319.986C478.906 319.986 541.401 257.491 541.401 180.706C541.401 103.922 478.906 41.4272 402.122 41.4272ZM444.196 72.62C487.528 89.4354 518.188 131.336 518.188 180.706C518.188 184.479 517.812 188.271 517.463 191.95C490.424 155.709 441.657 148.063 441.657 148.063C443.978 151.545 444.921 155.099 444.921 158.581C444.921 166.706 440.279 173.597 433.315 177.079C449.431 195.21 466.398 243.944 472.124 273.197C452.678 287.898 428.454 296.772 402.122 296.772C386.739 296.772 372.016 293.833 358.597 288.43C381.756 258.171 413.183 203.609 417.356 179.618C408.07 177.297 402.122 168.955 402.122 159.669C402.122 156.188 403.138 152.923 404.298 150.602C359.294 154.788 318.264 176.067 289.32 208.272C287.179 199.439 286.056 190.211 286.056 180.706C286.056 133.388 314.119 92.8927 354.607 74.7962C373.613 89.0401 402.611 122.598 410.102 142.26C413.584 139.938 418.516 137.907 423.159 137.907C426.641 137.907 430.993 138.85 433.315 141.171C436.221 134.391 444.815 99.5566 444.196 72.62Z" fill="white"/>
</svg>
