<?xml version="1.0" encoding="UTF-8" standalone="no"?>
<!-- Created with Inkscape (http://www.inkscape.org/) -->

<svg
   xmlns:dc="http://purl.org/dc/elements/1.1/"
   xmlns:cc="http://creativecommons.org/ns#"
   xmlns:rdf="http://www.w3.org/1999/02/22-rdf-syntax-ns#"
   xmlns:svg="http://www.w3.org/2000/svg"
   xmlns="http://www.w3.org/2000/svg"
   xmlns:sodipodi="http://sodipodi.sourceforge.net/DTD/sodipodi-0.dtd"
   xmlns:inkscape="http://www.inkscape.org/namespaces/inkscape"
   version="1.0"
   width="580"
   height="580"
   id="svg2"
   sodipodi:version="0.32"
   inkscape:version="0.48.4 r9939"
   sodipodi:docname="attraction_roller_coaster.svg"
   inkscape:output_extension="org.inkscape.output.svg.inkscape">
  <metadata
     id="metadata2975">
    <rdf:RDF>
      <cc:Work
         rdf:about="">
        <dc:format>image/svg+xml</dc:format>
        <dc:type
           rdf:resource="http://purl.org/dc/dcmitype/StillImage" />
        <cc:license
           rdf:resource="http://web.resource.org/cc/PublicDomain" />
        <dc:language>en</dc:language>
        <dc:title></dc:title>
      </cc:Work>
    </rdf:RDF>
  </metadata>
  <sodipodi:namedview
     inkscape:window-height="1004"
     inkscape:window-width="1920"
     inkscape:pageshadow="2"
     inkscape:pageopacity="0.0"
     guidetolerance="10.0"
     gridtolerance="10.0"
     objecttolerance="10.0"
     borderopacity="1.0"
     bordercolor="#666666"
     pagecolor="#ffffff"
     id="base"
     inkscape:zoom="0.65172414"
     inkscape:cx="163.05301"
     inkscape:cy="370.74195"
     inkscape:window-x="1680"
     inkscape:window-y="0"
     inkscape:current-layer="svg2"
     showgrid="false"
     inkscape:window-maximized="1" />
  <defs
     id="defs4">
    <inkscape:perspective
       sodipodi:type="inkscape:persp3d"
       inkscape:vp_x="0 : 290 : 1"
       inkscape:vp_y="0 : 1000 : 0"
       inkscape:vp_z="580 : 290 : 1"
       inkscape:persp3d-origin="290 : 193.33333 : 1"
       id="perspective2441" />
    <inkscape:perspective
       id="perspective3452"
       inkscape:persp3d-origin="30 : 20 : 1"
       inkscape:vp_z="60 : 30 : 1"
       inkscape:vp_y="0 : 1000 : 0"
       inkscape:vp_x="0 : 30 : 1"
       sodipodi:type="inkscape:persp3d" />
    <symbol
       viewBox="244.5 110 489 219.9"
       id="symbol-university">
      <path
         id="path4460"
         d="M79,43l57,119c0,0,21-96,104-96s124,106,124,106l43-133l82-17L0,17L79,43z" />
      <path
         id="path4462"
         d="M94,176l-21,39"
         stroke-width="20"
         stroke="#000000"
         fill="none" />
      <path
         id="path4464"
         d="M300,19c0,10.5-22.6,19-50.5,19S199,29.5,199,19s22.6-19,50.5-19S300,8.5,300,19z" />
      <path
         id="path4466"
         d="M112,216l-16-38L64,88c0,0-9-8-4-35s16-24,16-24"
         stroke-width="20"
         stroke="#000000"
         ill="none" />
    </symbol>
    <inkscape:perspective
       id="perspective4471"
       inkscape:persp3d-origin="372.04724 : 350.78739 : 1"
       inkscape:vp_z="744.09448 : 526.18109 : 1"
       inkscape:vp_y="0 : 1000 : 0"
       inkscape:vp_x="0 : 526.18109 : 1"
       sodipodi:type="inkscape:persp3d" />
    <inkscape:perspective
       id="perspective4668"
       inkscape:persp3d-origin="6 : 4 : 1"
       inkscape:vp_z="12 : 6 : 1"
       inkscape:vp_y="0 : 1000 : 0"
       inkscape:vp_x="0 : 6 : 1"
       sodipodi:type="inkscape:persp3d" />
    <inkscape:perspective
       id="perspective4904"
       inkscape:persp3d-origin="16 : 10.666667 : 1"
       inkscape:vp_z="32 : 16 : 1"
       inkscape:vp_y="0 : 1000 : 0"
       inkscape:vp_x="0 : 16 : 1"
       sodipodi:type="inkscape:persp3d" />
  </defs>
  <g
     id="g1327">
    <path
       d="M 66.275,1.768 C 24.94,1.768 1.704,23.139 1.704,66.804 L 1.704,516.927 C 1.704,557.771 22.599,579.156 63.896,579.156 L 515.92,579.156 C 557.227,579.156 578.149,558.841 578.149,516.927 L 578.149,66.804 C 578.149,24.203 557.227,1.768 514.628,1.768 C 514.624,1.768 66.133,1.625 66.275,1.768 z "
       style="fill:#111;stroke:#eee;stroke-width:3.40799999"
       id="path1329" />
  </g>
  <rect
     y="-69.882286"
     x="207.25069"
     style="fill:none"
     width="376.44794"
     height="376.44794"
     id="rect3" />
  <path
     inkscape:connector-curvature="0"
     d="m 216.24764,37.134735 c -107.46774,0 -179.112892,48.465843 -179.112892,111.682155 0,82.18121 92.717262,111.68216 141.183102,118.00378 0,0 29.50095,-14.75047 40.03701,-25.28652 C 108.7799,239.42694 81.386171,188.85389 81.386171,188.85389 c 0,0 33.715369,35.82258 155.933569,37.92979 0,0 14.75044,-14.75047 21.07208,-21.07211 -115.89655,-2.10721 -179.112857,-23.17932 -179.112857,-59.00189 0,-37.92979 52.680257,-88.502843 136.968677,-88.502843 143.29036,0 136.96873,219.149893 -179.112892,286.580633 0,67.43074 63.216312,113.78937 126.432632,113.78937 23.17931,0 46.35863,-6.32164 65.32352,-18.9649 0,0 208.61381,-115.89657 208.61381,-227.57873 0,-134.861477 -160.14798,-174.898475 -221.25707,-174.898475 z M 239.42695,351.1091 c 0,0 -6.32162,65.32352 -84.28842,65.32352 -59.001891,0 -77.966787,-46.35863 -77.966787,-46.35863 C 317.39372,296.32163 374.28845,112.99431 290,64.528469 441.71917,98.243844 420.64708,289.99999 239.42695,351.1091 z"
     id="path3"
     style="fill:#ffffff;fill-opacity:1" />
  <path
     inkscape:connector-curvature="0"
     d="M 456.46962,195.17552 C 517.5787,163.56737 561.83016,77.171733 414.32545,37.134735 c 0,0 126.43262,6.321626 126.43262,105.360525 0,84.28842 -52.68027,122.21821 -96.93173,139.0759 10.5361,-14.75049 14.75045,-44.25143 14.75045,-44.25143 50.5731,-33.71537 61.1092,-82.18121 61.1092,-82.18121 0,0 -16.85774,42.14421 -61.1092,65.32352 0,0 2.10729,-10.53604 -2.10717,-25.28652 z"
     id="path5"
     style="fill:#ffffff;fill-opacity:1" />
  <path
     inkscape:connector-curvature="0"
     d="m 542.86525,504.93547 c -16.85763,0 -44.25146,-4.21443 -63.21626,-18.9649 -18.96491,14.75047 -46.35863,18.9649 -63.21637,18.9649 -16.85762,0 -44.25145,-4.21443 -63.21625,-18.9649 -18.96491,14.75047 -46.35863,18.9649 -63.21637,18.9649 -16.85774,0 -44.25146,-4.21443 -63.21631,-18.9649 -18.96489,14.75047 -46.35863,18.9649 -63.21631,18.9649 -16.85769,0 -44.25143,-4.21443 -63.21632,-18.9649 -18.964889,14.75047 -46.358633,18.9649 -63.216312,18.9649 v 37.92979 c 35.822578,0 50.573049,-8.42885 63.216312,-18.9649 18.96489,14.75048 46.35863,18.9649 63.21632,18.9649 16.85768,0 44.25142,-4.21442 63.21631,-18.9649 18.96485,14.75048 46.35857,18.9649 63.21631,18.9649 16.85774,0 44.25146,-4.21442 63.21637,-18.9649 18.9648,14.75048 46.35863,18.9649 63.21625,18.9649 16.85774,0 44.25146,-4.21442 63.21637,-18.9649 18.9648,14.75048 46.35863,18.9649 63.21626,18.9649 v -37.92979 z"
     id="path7"
     style="fill:#ffffff;fill-opacity:1" />
  <path
     inkscape:connector-curvature="0"
     d="m 542.86525,420.64705 c -16.85763,0 -44.25146,-4.21443 -63.21626,-18.9649 -18.96491,14.75047 -46.35863,18.9649 -63.21637,18.9649 -16.85762,0 -44.25145,-4.21443 -63.21625,-18.9649 -10.5361,8.42885 -21.0722,12.64326 -33.71547,14.75047 -12.64316,10.53606 -59.0018,37.92979 -59.0018,37.92979 10.53599,2.10722 21.07209,4.21443 29.5009,4.21443 16.85774,0 44.25146,-4.21443 63.21637,-18.9649 18.9648,14.75047 46.35863,18.9649 63.21625,18.9649 16.85774,0 44.25146,-4.21443 63.21637,-18.9649 18.9648,14.75047 46.35863,18.9649 63.21626,18.9649 v -37.92979 z"
     id="path9"
     style="fill:#ffffff;fill-opacity:1" />
</svg>
