<svg width="363" height="505" xmlns="http://www.w3.org/2000/svg">
  <g id="g0">
    <line x1="24" y1="70" x2="339" y2="70" stroke="#9c9694" stroke-width="2" stroke-dasharray="2, 2"/>
    <circle cx="24" cy="70" r="7" fill="#29f729"/>
    <circle cx="95" cy="70" r="7" fill="#29f729"/>
    <circle cx="166" cy="70" r="7" fill="#29f729"/>
    <circle cx="237" cy="70" r="7" fill="#29f729"/>
    <circle cx="308" cy="70" r="7" fill="#29f729"/>
  </g>
  <g id="g1">
    <line x1="24" y1="130" x2="339" y2="130" stroke="#9c9694" stroke-width="2" stroke-dasharray="2, 2"/>
    <circle cx="24" cy="130" r="7" fill="#008200"/>
    <circle cx="95" cy="130" r="7" fill="#008200"/>
    <circle cx="166" cy="130" r="7" fill="#008200"/>
    <circle cx="237" cy="130" r="7" fill="#008200"/>
    <circle cx="308" cy="130" r="7" fill="#008200"/>
  </g>
  <g id="g2">
    <line x1="24" y1="190" x2="339" y2="190" stroke="#9c9694" stroke-width="2" stroke-dasharray="2, 2"/>
    <circle cx="24" cy="190" r="7" fill="#ffa600"/>
    <circle cx="95" cy="190" r="7" fill="#ffa600"/>
    <circle cx="166" cy="190" r="7" fill="#ffa600"/>
    <circle cx="237" cy="190" r="7" fill="#ffa600"/>
    <circle cx="308" cy="190" r="7" fill="#ffa600"/>
  </g>
  <g id="g3">
    <line x1="24" y1="250" x2="339" y2="250" stroke="#9c9694" stroke-width="2" stroke-dasharray="2, 2"/>
    <circle cx="24" cy="250" r="7" fill="#ff0000"/>
    <circle cx="95" cy="250" r="7" fill="#ff0000"/>
    <circle cx="166" cy="250" r="7" fill="#ff0000"/>
    <circle cx="237" cy="250" r="7" fill="#ff0000"/>
    <circle cx="308" cy="250" r="7" fill="#ff0000"/>
  </g>
  <g id="g4">
    <line x1="24" y1="310" x2="339" y2="310" stroke="#9c9694" stroke-width="2" stroke-dasharray="2, 2"/>
    <circle cx="24" cy="310" r="7" fill="#840084"/>
    <circle cx="95" cy="310" r="7" fill="#840084"/>
    <circle cx="166" cy="310" r="7" fill="#840084"/>
    <circle cx="237" cy="310" r="7" fill="#840084"/>
    <circle cx="308" cy="310" r="7" fill="#840084"/>
  </g>
  <g id="g5">
    <line x1="24" y1="370" x2="339" y2="370" stroke="#9c9694" stroke-width="2" stroke-dasharray="2, 2"/>
    <circle cx="24" cy="370" r="7" fill="#840000"/>
    <circle cx="95" cy="370" r="7" fill="#840000"/>
    <circle cx="166" cy="370" r="7" fill="#840000"/>
    <circle cx="237" cy="370" r="7" fill="#840000"/>
    <circle cx="308" cy="370" r="7" fill="#840000"/>
  </g>
  <g id="g6">
    <line x1="24" y1="430" x2="339" y2="430" stroke="#9c9694" stroke-width="2" stroke-dasharray="2, 2"/>
    <circle cx="24" cy="430" r="7" fill="#635d5a"/>
    <circle cx="95" cy="430" r="7" fill="#635d5a"/>
    <circle cx="166" cy="430" r="7" fill="#635d5a"/>
    <circle cx="237" cy="430" r="7" fill="#635d5a"/>
    <circle cx="308" cy="430" r="7" fill="#635d5a"/>
  </g>
  <g id="g7">
    <line x1="24" y1="490" x2="339" y2="490" stroke="#9c9694" stroke-width="2" stroke-dasharray="2, 2"/>
    <circle cx="24" cy="490" r="7" fill="#bdbebd"/>
    <circle cx="95" cy="490" r="7" fill="#bdbebd"/>
    <circle cx="166" cy="490" r="7" fill="#bdbebd"/>
    <circle cx="237" cy="490" r="7" fill="#bdbebd"/>
    <circle cx="308" cy="490" r="7" fill="#bdbebd"/>
  </g>
</svg>
