<svg width="700" height="619" xmlns="http://www.w3.org/2000/svg">
  <!-- Column 1: Surface -->
  <g id="asphalt">
    <line x1="45" y1="90" x2="320" y2="90" stroke="#dcd8d4" stroke-width="19" stroke-linecap="round" />
    <line x1="45" y1="90" x2="320" y2="90" stroke="#ffffff" stroke-width="17" stroke-linecap="round" />
    <line x1="45" y1="90" x2="320" y2="90" stroke="#6b697b" stroke-width="12" stroke-dasharray="16, 10" />
  </g>
  <g id="paved">
    <line x1="45" y1="154" x2="320" y2="154" stroke="#dcd8d4" stroke-width="19" stroke-linecap="round" />
    <line x1="45" y1="154" x2="320" y2="154" stroke="#ffffff" stroke-width="17" stroke-linecap="round" />
    <line x1="45" y1="154" x2="320" y2="154" stroke="#a5cfff" stroke-width="12" stroke-dasharray="16, 10" />
  </g>
  <g id="loosely_paved">
    <line x1="45" y1="209" x2="320" y2="209" stroke="#cecbef" stroke-width="12" stroke-dasharray="16, 10" />
    <line x1="45" y1="209" x2="320" y2="209" stroke="#6d9564" stroke-width="3" stroke-dasharray="7, 2" />
  </g>
  <g id="ground_earth">
    <line x1="45" y1="253" x2="320" y2="253" stroke="#ce9a00" stroke-width="12" stroke-dasharray="16, 10" />
    <line x1="45" y1="253" x2="320" y2="253" stroke="#6d9564" stroke-width="3" stroke-dasharray="7, 2" />
  </g>
  <g id="sand">
    <line x1="45" y1="297" x2="320" y2="297" stroke="#ffd700" stroke-width="12" stroke-dasharray="16, 10" />
    <line x1="45" y1="297" x2="320" y2="297" stroke="#6d9564" stroke-width="3" stroke-dasharray="7, 2" />
  </g>
  <g id="grass">
    <line x1="45" y1="341" x2="320" y2="341" stroke="#18be18" stroke-width="12" stroke-dasharray="16, 10" />
    <line x1="45" y1="341" x2="320" y2="341" stroke="#6d9564" stroke-width="3" stroke-dasharray="7, 2" />
  </g>
  <g id="grass_paver">
    <line x1="45" y1="385" x2="320" y2="385" stroke="#a5beff" stroke-width="12" stroke-dasharray="16, 10" />
    <line x1="45" y1="385" x2="320" y2="385" stroke="#6d9564" stroke-width="3" stroke-dasharray="7, 2" />
  </g>
  <g id="dirt">
    <line x1="45" y1="429" x2="320" y2="429" stroke="#ad8208" stroke-width="12" stroke-dasharray="16, 10" />
    <line x1="45" y1="429" x2="320" y2="429" stroke="#6d9564" stroke-width="3" stroke-dasharray="7, 2" />
  </g>
  <g id="mud">
    <line x1="45" y1="473" x2="320" y2="473" stroke="#735900" stroke-width="12" stroke-dasharray="16, 10" />
    <line x1="45" y1="473" x2="320" y2="473" stroke="#6d9564" stroke-width="3" stroke-dasharray="7, 2" />
  </g>
  <g id="ice_snow">
    <line x1="45" y1="517" x2="320" y2="517" stroke="#9cefef" stroke-width="12" stroke-dasharray="16, 10" />
    <line x1="45" y1="517" x2="320" y2="517" stroke="#6d9564" stroke-width="3" stroke-dasharray="7, 2" />
  </g>
  <g id="salt">
    <line x1="45" y1="561" x2="320" y2="561" stroke="#7bdfde" stroke-width="12" stroke-dasharray="16, 10" />
    <line x1="45" y1="561" x2="320" y2="561" stroke="#6d9564" stroke-width="3" stroke-dasharray="7, 2" />
  </g>

  <!-- Column 2: Smoothness -->
  <g id="excellent">
    <line x1="372" y1="90" x2="647" y2="90" stroke="#00dbff" stroke-width="12" stroke-linecap="round" />
    <line x1="372" y1="90" x2="647" y2="90" stroke="#6d9564" stroke-width="3" stroke-dasharray="7, 2" />
  </g>
  <g id="good">
    <line x1="372" y1="154" x2="647" y2="154" stroke="#7bebff" stroke-width="12" stroke-linecap="round" />
    <line x1="372" y1="154" x2="647" y2="154" stroke="#6d9564" stroke-width="3" stroke-dasharray="7, 2" />
  </g>
  <g id="intermediate">
    <line x1="372" y1="209" x2="647" y2="209" stroke="#b5f3ff" stroke-width="12" stroke-linecap="round" />
    <line x1="372" y1="209" x2="647" y2="209" stroke="#6d9564" stroke-width="3" stroke-dasharray="7, 2" />
  </g>
  <g id="bad">
    <line x1="372" y1="253" x2="647" y2="253" stroke="#ffbebd" stroke-width="12" stroke-linecap="round" />
    <line x1="372" y1="253" x2="647" y2="253" stroke="#6d9564" stroke-width="3" stroke-dasharray="7, 2" />
  </g>
  <g id="very_bad">
    <line x1="372" y1="297" x2="647" y2="297" stroke="#ffaaad" stroke-width="12" stroke-linecap="round" />
    <line x1="372" y1="297" x2="647" y2="297" stroke="#6d9564" stroke-width="3" stroke-dasharray="7, 2" />
  </g>
  <g id="horrible">
    <line x1="372" y1="341" x2="647" y2="341" stroke="#ff7d7b" stroke-width="12" stroke-linecap="round" />
    <line x1="372" y1="341" x2="647" y2="341" stroke="#6d9564" stroke-width="3" stroke-dasharray="7, 2" />
  </g>
  <g id="very_horrible">
    <line x1="372" y1="385" x2="647" y2="385" stroke="#ff5152" stroke-width="12" stroke-linecap="round" />
    <line x1="372" y1="385" x2="647" y2="385" stroke="#6d9564" stroke-width="3" stroke-dasharray="7, 2" />
  </g>
  <g id="impassable">
    <line x1="372" y1="429" x2="647" y2="429" stroke="#ff1010" stroke-width="12" stroke-linecap="round" />
    <line x1="372" y1="429" x2="647" y2="429" stroke="#6d9564" stroke-width="3" stroke-dasharray="7, 2" />
  </g>
  <g id="bad_trail_visibility">
    m<line x1="372" y1="473" x2="647" y2="473" stroke="#dcd8d4" stroke-width="1" />
    <line x1="372" y1="473" x2="647" y2="473" stroke="#6d9564" stroke-width="3" stroke-dasharray="2, 9" />
  </g>
</svg>
