<svg width="800" height="1200" xmlns="http://www.w3.org/2000/svg">
  <!-- MTB -->
  <g id="mtb_route">
    <line x1="50" y1="50" x2="370" y2="50" stroke="#bd9e73" stroke-width="12"/>
    <line x1="50" y1="50" x2="370" y2="50" stroke="#846539" stroke-width="2" stroke-dasharray="2 2"/>
  </g>
  <g id="mtb_scale_imba_0">
    <line x1="50" y1="80" x2="325" y2="80" stroke="limegreen" stroke-width="11"/>
  </g>
  <g id="mtb_scale_imba_1">
    <line x1="50" y1="110" x2="325" y2="110" stroke="blue" stroke-width="11"/>
  </g>
  <g id="mtb_scale_imba_2">
    <line x1="50" y1="140" x2="325" y2="140" stroke="red" stroke-width="11"/>
  </g>
  <g id="mtb_scale_imba_3_4">
    <line x1="50" y1="170" x2="325" y2="170" stroke="black" stroke-width="11"/>
  </g>
  <g id="mtb_scale_0_easy">
    <line x1="50" y1="200" x2="370" y2="200" stroke="#39eb4a" stroke-width="10"/>
    <line x1="50" y1="200" x2="370" y2="200" stroke="#21d331" stroke-width="2" stroke-dasharray="2 2"/>
  </g>
  <g id="mtb_scale_1_intermediate">
    <line x1="50" y1="230" x2="370" y2="230" stroke="#849eef" stroke-width="10"/>
    <line x1="50" y1="230" x2="370" y2="230" stroke="#6b86d6" stroke-width="2" stroke-dasharray="2 2"/>
    <line x1="50" y1="230" x2="370" y2="230" stroke="black" stroke-width="8" stroke-dasharray="2 38"/>
  </g>
  <g id="mtb_scale_2_advanced">
    <line x1="50" y1="260" x2="370" y2="260" stroke="#de696b" stroke-width="10"/>
    <line x1="50" y1="260" x2="370" y2="260" stroke="#c65152" stroke-width="2" stroke-dasharray="2 2"/>
    <line x1="50" y1="260" x2="370" y2="260" stroke="black" stroke-width="8" stroke-dasharray="2 2 2 34"/>
  </g>
  <g id="mtb_scale_3_expert">
    <line x1="50" y1="290" x2="370" y2="290" stroke="#9c9e94" stroke-width="10"/>
    <line x1="50" y1="290" x2="370" y2="290" stroke="#84867b" stroke-width="2" stroke-dasharray="2 2"/>
    <line x1="50" y1="290" x2="370" y2="290" stroke="black" stroke-width="8" stroke-dasharray="2 2 2 2 2 30"/>
  </g>
  <g id="mtb_scale_4_extreme_i">
    <line x1="50" y1="320" x2="370" y2="320" stroke="#9c9e94" stroke-width="10"/>
    <line x1="50" y1="320" x2="370" y2="320" stroke="#84867b" stroke-width="2" stroke-dasharray="2 2"/>
    <line x1="75" y1="320" x2="370" y2="320" stroke="yellow" stroke-width="10" stroke-dasharray="3 37"/>
    <line x1="50" y1="320" x2="370" y2="320" stroke="black" stroke-width="8" stroke-dasharray="2 2 2 2 2 2 2 26"/>
  </g>
  <g id="mtb_scale_5_extreme_ii">
    <line x1="50" y1="350" x2="370" y2="350" stroke="#9c9e94" stroke-width="10"/>
    <line x1="50" y1="350" x2="370" y2="350" stroke="#84867b" stroke-width="2" stroke-dasharray="2 2"/>
    <line x1="75" y1="350" x2="370" y2="350" stroke="yellow" stroke-width="10" stroke-dasharray="3 3 3 31"/>
    <line x1="50" y1="350" x2="370" y2="350" stroke="black" stroke-width="8" stroke-dasharray="2 2 2 2 2 2 2 2 2 22"/>
  </g>
  <g id="mtb_scale_6_impossible">
    <line x1="50" y1="380" x2="370" y2="380" stroke="#9c9e94" stroke-width="10"/>
    <line x1="50" y1="380" x2="370" y2="380" stroke="#84867b" stroke-width="2" stroke-dasharray="2 2"/>
    <line x1="75" y1="380" x2="370" y2="380" stroke="yellow" stroke-width="10" stroke-dasharray="14 26"/>
  </g>
  <g id="biking_recommended">
    <line x1="50" y1="410" x2="370" y2="410" stroke="#f7e3a5" stroke-width="25"/>
    <line x1="50" y1="410" x2="370" y2="410" stroke="#e7695a" stroke-width="10"/>
    <line x1="50" y1="410" x2="370" y2="410" stroke="#d65d4a" stroke-width="2" stroke-dasharray="2 2"/>
  </g>
  <g id="biking_bad_for_biking">
    <line x1="50" y1="440" x2="370" y2="440" stroke="#efb2b5" stroke-width="10"/>
    <line x1="50" y1="440" x2="370" y2="440" stroke="#a5716b" stroke-width="2" stroke-dasharray="2 2"/>
  </g>
</svg>
