<svg version="1.1" viewBox="0 0 700 327" xmlns="http://www.w3.org/2000/svg">
 <g id="cable_car">
  <line x1="50" x2="328" y1="96" y2="96" stroke="#bebbb6"/>
  <line x1="50" x2="328" y1="96" y2="96" stroke="#313031" stroke-dasharray="1, 35" stroke-linecap="round" stroke-width="3"/>
 </g>
 <g id="gondola">
  <line x1="50" x2="328" y1="138" y2="138" stroke="#bebbb6"/>
  <line x1="50" x2="328" y1="138" y2="138" stroke="#313031" stroke-dasharray="3, 33" stroke-width="3"/>
 </g>
 <g id="chair_lift">
  <line x1="50" x2="328" y1="178" y2="178" stroke="#bebbb6"/>
  <line x1="50" x2="328" y1="178" y2="178" stroke="#313031" stroke-dasharray="1, 1, 1, 33" stroke-width="3"/>
  <path d="m236.967 176.241h5.70856v-2.74099l4.9641 4.44915-4.9641 4.40796v-2.6919h-5.70856z" fill="#5a59ff"/>
  <path d="m62 176.256h5.70856v-2.74099l4.9641 4.44915-4.9641 4.40796v-2.6919h-5.70856z" fill="#5a59ff"/>
 </g>
 <g id="t_bar">
  <line x1="50" x2="328" y1="219" y2="219" stroke="#bebbb6"/>
  <line x1="50" x2="328" y1="219" y2="219" stroke="#313031" stroke-dasharray="1, 35" stroke-width="3"/>
  <path d="m62 217.256h5.70856v-2.74099l4.9641 4.44915-4.9641 4.40796v-2.6919h-5.70856z" fill="#5a59ff"/>
  <path d="m236.967 217.241h5.70856v-2.74099l4.9641 4.44915-4.9641 4.40796v-2.6919h-5.70856z" fill="#5a59ff"/>
 </g>dddm
 <g id="j_bar">
  <line x1="50" x2="328" y1="260" y2="260" stroke="#bebbb6"/>
  <line x1="50" x2="328" y1="260" y2="260" stroke="#313031" stroke-dasharray="1, 35" stroke-width="3"/>
  <path d="m62 258.256h5.70856v-2.74099l4.9641 4.44915-4.9641 4.40796v-2.6919h-5.70856z" fill="#5a59ff"/>
  <path d="m236.967 258.241h5.70856v-2.74099l4.9641 4.44915-4.9641 4.40796v-2.6919h-5.70856z" fill="#5a59ff"/>
 </g>
 <g id="platter">
  <line x1="50" x2="328" y1="301" y2="301" stroke="#bebbb6"/>
  <line x1="50" x2="328" y1="301" y2="301" stroke="#313031" stroke-dasharray="1, 35" stroke-width="3"/>
  <path d="m237 299.258h5.70856v-2.74099l4.9641 4.44915-4.9641 4.40796v-2.6919h-5.70856z" fill="#5a59ff"/>
  <path d="m62.0332 299.272h5.70856v-2.74099l4.9641 4.44915-4.9641 4.40796v-2.6919h-5.70856z" fill="#5a59ff"/>
 </g>
 <g id="mixed_lift">
  <line x1="373" x2="650" y1="96" y2="96" stroke="#bebbb6"/>
  <line x1="373" x2="650" y1="96" y2="96" stroke="#313031" stroke-dasharray="1, 35" stroke-linecap="round" stroke-width="3"/>
 </g>
 <g id="drag_lift">
  <line x1="373" x2="650" y1="138" y2="138" stroke="#bebbb6"/>
  <line x1="373" x2="650" y1="138" y2="138" stroke="#313031" stroke-dasharray="1, 35" stroke-width="3"/>
  <path d="m560.967 136.241h5.70856v-2.74099l4.9641 4.44915-4.9641 4.40796v-2.6919h-5.70856z" fill="#5a59ff"/>
  <path d="m386 136.256h5.70856v-2.74099l4.9641 4.44915-4.9641 4.40796v-2.6919h-5.70856z" fill="#5a59ff"/>
 </g>
 <g id="magic_carpet">
  <line x1="373" x2="650" y1="178" y2="178" stroke="#bebbb6" stroke-width="2"/>
  <path d="m560.967 176.241h5.70856v-2.74099l4.9641 4.44915-4.9641 4.40796v-2.6919h-5.70856z" fill="#5a59ff"/>
  <path d="m386 176.256h5.70856v-2.74099l4.9641 4.44915-4.9641 4.40796v-2.6919h-5.70856z" fill="#5a59ff"/>
 </g>
 <g id="rope_tow">
  <line x1="373" x2="650" y1="219" y2="219" stroke="#bebbb6" stroke-dasharray="23, 2" stroke-width="2"/>
  <path d="m560.967 217.241h5.70856v-2.74099l4.9641 4.44915-4.9641 4.40796v-2.6919h-5.70856z" fill="#5a59ff"/>
  <path d="m386 217.256h5.70856v-2.74099l4.9641 4.44915-4.9641 4.40796v-2.6919h-5.70856z" fill="#5a59ff"/>
 </g>
 <g id="goods">
  <line x1="373" x2="650" y1="260" y2="260" stroke="#9f9278"/>
 </g>
 <g id="zip_line">
  <line x1="373" x2="650" y1="301" y2="301" stroke="#bebbb6" stroke-dasharray="15, 2" stroke-width="2"/>
  <path d="m560.967 299.241h5.70856v-2.74099l4.9641 4.44915-4.9641 4.40796v-2.6919h-5.70856z" fill="#5a59ff"/>
  <path d="m386 299.256h5.70856v-2.74099l4.9641 4.44915-4.9641 4.40796v-2.6919h-5.70856z" fill="#5a59ff"/>
 </g>
</svg>
