<svg xmlns="http://www.w3.org/2000/svg">
<g id="built-up_Parking">

<rect width="300" height="35" fill="#EBE7E4" />
<path opacity="0.949" d="M149.999 8C154.963 8 159 12.0018 159 17C159 21.9655 154.963 26 149.999 26C145.037 26 141 21.9655 141 17C141 12.0018 145.037 8 149.999 8Z" fill="#45ABE9" />
<path opacity="0.95" fill-rule="evenodd" clip-rule="evenodd" d="M150 26C154.971 26 159 21.9706 159 17C159 12.0294 154.971 8 150 8C145.029 8 141 12.0294 141 17C141 21.9706 145.029 26 150 26ZM150 27C155.523 27 160 22.5228 160 17C160 11.4772 155.523 7 150 7C144.477 7 140 11.4772 140 17C140 22.5228 144.477 27 150 27Z" fill="#1578B3" />
<path fill-rule="evenodd" clip-rule="evenodd" d="M146 12V22H148V19H150.5C152.433 19 154 17.433 154 15.5C154 13.567 152.433 12 150.5 12H146ZM148 14V17H150.5C151.328 17 152 16.3284 152 15.5C152 14.6716 151.328 14 150.5 14H148Z" fill="white" />

</g>
<g id="built-up_ParkingPermissive">

<rect width="300" height="35" fill="#EBE7E4" />
<path opacity="0.949" d="M149.999 8C154.963 8 159 12.0018 159 17C159 21.9655 154.963 26 149.999 26C145.037 26 141 21.9655 141 17C141 12.0018 145.037 8 149.999 8Z" fill="#45ABE9" />
<path opacity="0.95" fill-rule="evenodd" clip-rule="evenodd" d="M150 26C154.971 26 159 21.9706 159 17C159 12.0294 154.971 8 150 8C145.029 8 141 12.0294 141 17C141 21.9706 145.029 26 150 26ZM150 27C155.523 27 160 22.5228 160 17C160 11.4772 155.523 7 150 7C144.477 7 140 11.4772 140 17C140 22.5228 144.477 27 150 27Z" fill="#1578B3" />
<path fill-rule="evenodd" clip-rule="evenodd" d="M146 12V22H148V19H150.5C152.433 19 154 17.433 154 15.5C154 13.567 152.433 12 150.5 12H146ZM148 14V17H150.5C151.328 17 152 16.3284 152 15.5C152 14.6716 151.328 14 150.5 14H148Z" fill="white" />

</g>
<g id="built-up_ParkingAccessCustomers">

<rect width="300" height="35" fill="#EBE7E4" />
<path opacity="0.949" d="M149.999 8C154.963 8 159 12.0018 159 17C159 21.9655 154.963 26 149.999 26C145.037 26 141 21.9655 141 17C141 12.0018 145.037 8 149.999 8Z" fill="#45ABE9" />
<path opacity="0.95" fill-rule="evenodd" clip-rule="evenodd" d="M150 26C154.971 26 159 21.9706 159 17C159 12.0294 154.971 8 150 8C145.029 8 141 12.0294 141 17C141 21.9706 145.029 26 150 26ZM150 27C155.523 27 160 22.5228 160 17C160 11.4772 155.523 7 150 7C144.477 7 140 11.4772 140 17C140 22.5228 144.477 27 150 27Z" fill="#1578B3" />
<path fill-rule="evenodd" clip-rule="evenodd" d="M148 12H146V22H148V19H150.5C152.433 19 154 17.433 154 15.5C154 13.567 152.433 12 150.5 12H148ZM148 14V17H150.5C151.328 17 152 16.3284 152 15.5C152 14.6716 151.328 14 150.5 14H148Z" fill="white" fill-opacity="0.25" />
<path fill-rule="evenodd" clip-rule="evenodd" d="M148 19H150.5C152.433 19 154 17.433 154 15.5C154 13.567 152.433 12 150.5 12H146V22H148V19ZM147.5 21.5V18.5H150.5C152.157 18.5 153.5 17.1569 153.5 15.5C153.5 13.8431 152.157 12.5 150.5 12.5H146.5V21.5H147.5ZM147.5 13.5H150.5C151.605 13.5 152.5 14.3954 152.5 15.5C152.5 16.6046 151.605 17.5 150.5 17.5H147.5V13.5ZM148 17V14H150.5C151.328 14 152 14.6716 152 15.5C152 16.3284 151.328 17 150.5 17H148Z" fill="white" fill-opacity="0.25" />

</g>
<g id="built-up_ParkingPaid">

<rect width="300" height="35" fill="#EBE7E4" />
<path opacity="0.949" d="M149.999 8C154.963 8 159 12.0018 159 17C159 21.9655 154.963 26 149.999 26C145.037 26 141 21.9655 141 17C141 12.0018 145.037 8 149.999 8Z" fill="#45ABE9" />
<path opacity="0.95" fill-rule="evenodd" clip-rule="evenodd" d="M150 26C154.971 26 159 21.9706 159 17C159 12.0294 154.971 8 150 8C145.029 8 141 12.0294 141 17C141 21.9706 145.029 26 150 26ZM150 27C155.523 27 160 22.5228 160 17C160 11.4772 155.523 7 150 7C144.477 7 140 11.4772 140 17C140 22.5228 144.477 27 150 27Z" fill="#1578B3" />
<path fill-rule="evenodd" clip-rule="evenodd" d="M145 12V16H146V15H147C147.552 15 148 14.5523 148 14V13C148 12.4477 147.552 12 147 12H145ZM146 14H147V13H146V14Z" fill="white" />
<path opacity="0.3" fill-rule="evenodd" clip-rule="evenodd" d="M153 15.5V12.5H154V15.5H153Z" fill="white" />
<path d="M153.5 11C153.776 11 154 11.2239 154 11.5V12L154.5 12C154.776 12 155 12.2239 155 12.5C155 12.7761 154.776 13 154.5 13L153 13L153 13.5H154C154.552 13.5 155 13.9477 155 14.5V15C155 15.5523 154.552 16 154 16V16.5C154 16.7761 153.776 17 153.5 17C153.224 17 153 16.7761 153 16.5V16H152.5C152.224 16 152 15.7761 152 15.5C152 15.2239 152.224 15 152.5 15H154V14.5H153C152.448 14.5 152 14.0523 152 13.5V13C152 12.4477 152.448 12 153 12V11.5C153 11.2239 153.224 11 153.5 11Z" fill="white" />
<g opacity="0.8">
<path d="M152 22C152.552 22 153 21.5523 153 21C153 20.4477 152.552 20 152 20C151.448 20 151 20.4477 151 21C151 21.5523 151.448 22 152 22Z" fill="white" />
<path d="M147 22C147.552 22 148 21.5523 148 21C148 20.4477 147.552 20 147 20C146.448 20 146 20.4477 146 21C146 21.5523 146.448 22 147 22Z" fill="white" />
</g>
<path fill-rule="evenodd" clip-rule="evenodd" d="M152.142 18.1598L151.362 16.9898C151.158 16.6838 150.814 16.5 150.446 16.5H147.572C147.099 16.5 146.678 16.803 146.529 17.2521L146.182 18.2908L145.146 18.9126C145.055 18.9668 145 19.0645 145 19.1699V20.5C145 20.7761 145.224 21 145.5 21H153.5C153.776 21 154 20.7761 154 20.5V19.1936C154 19.0757 153.931 18.9688 153.824 18.9202L152.142 18.1598ZM146.944 19H148V17.5H147.572C147.529 17.5 147.491 17.5275 147.477 17.5684L146.944 19ZM149 19H151.573L150.53 17.5445C150.511 17.5167 150.48 17.5 150.446 17.5H149V19Z" fill="white" />

</g>
<g id="built-up_ParkingBicycle">

<rect width="300" height="35" fill="#EBE7E4" />
<path opacity="0.949" d="M149.999 8C154.963 8 159 12.0018 159 17C159 21.9655 154.963 26 149.999 26C145.037 26 141 21.9655 141 17C141 12.0018 145.037 8 149.999 8Z" fill="#45ABE9" />
<path opacity="0.95" fill-rule="evenodd" clip-rule="evenodd" d="M150 26C154.971 26 159 21.9706 159 17C159 12.0294 154.971 8 150 8C145.029 8 141 12.0294 141 17C141 21.9706 145.029 26 150 26ZM150 27C155.523 27 160 22.5228 160 17C160 11.4772 155.523 7 150 7C144.477 7 140 11.4772 140 17C140 22.5228 144.477 27 150 27Z" fill="#1578B3" />
<path fill-rule="evenodd" clip-rule="evenodd" d="M145 12V16H146V15H147C147.552 15 148 14.5523 148 14V13C148 12.4477 147.552 12 147 12H145ZM146 14H147V13H146V14Z" fill="white" />
<path fill-rule="evenodd" clip-rule="evenodd" d="M150 16.5C150 16.2239 150.224 16 150.5 16H151.5C151.776 16 152 16.2239 152 16.5V18.382L152.315 19.0113C152.375 19.0039 152.437 19 152.5 19C153.328 19 154 19.6716 154 20.5C154 21.3284 153.328 22 152.5 22C151.847 22 151.291 21.5826 151.085 21H148.915C148.709 21.5826 148.153 22 147.5 22C146.672 22 146 21.3284 146 20.5C146 19.6716 146.672 19 147.5 19C147.563 19 147.625 19.0039 147.685 19.0113L147.892 18.5987L147.146 17.8536C147.003 17.7106 146.961 17.4955 147.038 17.3087C147.115 17.1218 147.298 17 147.5 17H148.5C148.776 17 149 17.2239 149 17.5C149 17.7144 148.865 17.8973 148.675 17.9683L148.707 18H151V17H150.5C150.224 17 150 16.7761 150 16.5ZM148.58 19.4587C148.727 19.6115 148.842 19.7956 148.915 20H151.085C151.158 19.7956 151.273 19.6115 151.42 19.4587L151.191 19H148.809L148.58 19.4587ZM147.5 21C147.776 21 148 20.7761 148 20.5C148 20.2239 147.776 20 147.5 20C147.224 20 147 20.2239 147 20.5C147 20.7761 147.224 21 147.5 21ZM152.5 21C152.776 21 153 20.7761 153 20.5C153 20.2239 152.776 20 152.5 20C152.224 20 152 20.2239 152 20.5C152 20.7761 152.224 21 152.5 21Z" fill="white" />

</g>

</svg>