<svg width="800" height="1200" xmlns="http://www.w3.org/2000/svg">
  <!-- Public Transport -->
  <g id="transport_bus">
    <line x1="50" y1="50" x2="325" y2="50" stroke="lightgrey" stroke-width="21" stroke-linecap="round"/>
    <line x1="50" y1="50" x2="325" y2="50" stroke="white" stroke-width="17" stroke-linecap="round"/>
    <line x1="50" y1="50" x2="325" y2="50" stroke="red" stroke-width="7" stroke-linecap="round"/>
  </g>
  <g id="transport_share_taxi">
    <line x1="50" y1="80" x2="325" y2="80" stroke="lightgrey" stroke-width="21" stroke-linecap="round"/>
    <line x1="50" y1="80" x2="325" y2="80" stroke="white" stroke-width="17" stroke-linecap="round"/>
    <line x1="50" y1="80" x2="325" y2="80" stroke="magenta" stroke-width="7" stroke-linecap="round"/>
  </g>
  <g id="transport_trolleybus">
    <line x1="50" y1="110" x2="325" y2="110" stroke="lightgrey" stroke-width="21" stroke-linecap="round"/>
    <line x1="50" y1="110" x2="325" y2="110" stroke="white" stroke-width="17" stroke-linecap="round"/>
    <line x1="50" y1="110" x2="325" y2="110" stroke="purple" stroke-width="11" stroke-linecap="round"/>
  </g>
  <g id="transport_tram">
    <line x1="50" y1="140" x2="325" y2="140" stroke="blue" stroke-width="15" stroke-linecap="round"/>
    <line x1="50" y1="140" x2="325" y2="140" stroke="grey" stroke-width="2" stroke-linecap="round"/>
    <line x1="50" y1="140" x2="325" y2="140" stroke="blue" stroke-width="8" stroke-linecap="round"/>
  </g>
  <g id="transport_train">
    <line x1="50" y1="170" x2="325" y2="170" stroke="brown" stroke-width="15" stroke-linecap="round"/>
    <line x1="50" y1="170" x2="325" y2="170" stroke="white" stroke-width="11" stroke-dasharray="28 28" stroke-linecap="butt"/>
  </g>
  <g id="transport_light_rail">
    <line x1="50" y1="200" x2="325" y2="200" stroke="green" stroke-width="15" stroke-linecap="round"/>
  </g>
  <g id="transport_monorail">
    <circle cx="50" cy="230" r="8" fill="green" />
    <circle cx="66" cy="230" r="8" fill="green" />
    <circle cx="82" cy="230" r="8" fill="green" />
    <circle cx="98" cy="230" r="8" fill="green" />
    <circle cx="114" cy="230" r="8" fill="green" />
    <circle cx="130" cy="230" r="8" fill="green" />
    <circle cx="146" cy="230" r="8" fill="green" />
    <circle cx="162" cy="230" r="8" fill="green" />
    <circle cx="178" cy="230" r="8" fill="green" />
    <circle cx="194" cy="230" r="8" fill="green" />
    <circle cx="210" cy="230" r="8" fill="green" />
    <circle cx="226" cy="230" r="8" fill="green" />
    <circle cx="242" cy="230" r="8" fill="green" />
    <circle cx="258" cy="230" r="8" fill="green" />
    <circle cx="274" cy="230" r="8" fill="green" />
    <circle cx="290" cy="230" r="8" fill="green" />
    <circle cx="306" cy="230" r="8" fill="green" />
    <circle cx="322" cy="230" r="8" fill="green" />
  </g>
  <g id="transport_funicular">
    <line x1="50" y1="260" x2="325" y2="260" stroke="#3982ad" stroke-width="15" stroke-linecap="round"/>
  </g>
  <g id="routes_ferry">
    <line x1="50" y1="290" x2="325" y2="290" stroke="lightblue" stroke-width="2" stroke-dasharray="6 3"/>
  </g>
</svg>
