<svg version="1.1" viewBox="0 0 691 979" xmlns="http://www.w3.org/2000/svg">
 <g id="motorway" transform="translate(32 101)">
  <rect id="rect1" width="300" height="20" rx="11" ry="11" fill="#E57350" stroke="#8A709A" stroke-width="2"/>
 </g>
 <g id="trunk" transform="translate(32 141)">
  <rect id="rect2" width="300" height="20" rx="11" ry="11" fill="#F27F49" stroke="#A3A3A2"/>
 </g>
 <g id="primary" transform="translate(32 183)">
  <rect id="rect3" width="300" height="20" rx="11" ry="11" fill="#FFAB4A" stroke="#A3A3A2"/>
 </g>
 <g id="secondary" transform="translate(32 228)">
  <rect id="rect4" width="300" height="20" rx="11" ry="11" fill="#F5E85B" stroke="#A3A3A2"/>
 </g>
 <g id="tertiary" transform="translate(32 270)">
  <rect id="rect5" width="300" height="18" rx="9" ry="9" fill="#fff" stroke="#A3A3A2"/>
 </g>
 <g id="residential" transform="translate(32 314)">
  <rect id="rect6" width="300" height="18" rx="9" ry="9" fill="#fff" stroke="#c6c3c0"/>
 </g>
 <g id="unclassified" transform="translate(32 356)">
  <rect id="rect7" width="300" height="18" rx="9" ry="9" fill="#fff" stroke="#c6c3c0"/>
 </g>
 <g id="service" transform="translate(32 400)">
  <rect id="rect8" width="300" height="12" rx="6" ry="6" fill="#fff" stroke="#c6c3c0" stroke-width="2"/>
 </g>
 <g id="driveway" transform="translate(32 443)">
  <rect id="rect9" width="300" height="12" rx="6" ry="6" fill="#e8e8e8" stroke="#c6c3c0" stroke-width="2"/>
 </g>
 <g id="living_street" transform="translate(32 484)">
  <rect id="rect10" width="300" height="12" rx="6" ry="6" fill="#fff" stroke="#c6c3c0" stroke-width="2"/>
 </g>
 <g id="pedestrian" transform="translate(32 526)">
  <rect id="rect11" width="300" height="12" rx="6" ry="6" fill="#fff" stroke="#c6c3c0" stroke-width="2"/>
 </g>
 <g id="road_unknown_type" transform="translate(32 575)">
  <line x1="0" x2="300" y1="0" y2="0" stroke="#cfcece" stroke-width="6"/>
 </g>
 <g id="track" transform="translate(32 617)">
  <line id="line12" x2="300" stroke="#6b9563" stroke-dasharray="6, 2, 2 ,2" stroke-width="2"/>
 </g>
 <g id="cycleway" transform="translate(32 660)">
  <line id="line13" x2="300" stroke="#4D85D1" stroke-dasharray="6, 2" stroke-width="2"/>
 </g>
 <g id="raceway" transform="translate(32 696)">
  <rect id="rect13" width="300" height="12" rx="6" ry="6" fill="#FDEE66" stroke="#856666" stroke-width="2"/>
 </g>
 <g id="escape_lane" transform="translate(32 748)">
  <line id="line14" x2="300" stroke="#dcd9d6" stroke-width="20"/>
  <line id="line15" x2="300" stroke="#e8e6e4" stroke-width="14"/>
  <line id="line16" x2="300" stroke="#aaa" stroke-dasharray="7, 7" stroke-width="10"/>
 </g>
 <g id="abandoned_road" transform="translate(32 785)" stroke-dasharray="20, 6">
  <line id="line17" x2="300" stroke="#dcd9d6" stroke-width="18"/>
  <line id="line18" x2="300" stroke="#e8e6e4" stroke-width="16"/>
 </g>
 <g id="abandoned_track" transform="translate(32 828)">
  <line id="line19" x2="300" stroke="#CFC1A5" stroke-dasharray="6, 2" stroke-width="2"/>
 </g>
 <g id="bus_way" transform="translate(32 866)">
  <rect id="rect19" width="300" height="10" rx="5" ry="5" fill="#acf" stroke="#A3A3A2" stroke-width="2"/>
 </g>
 <g id="footway" transform="translate(371 110)">
  <line id="line20" x2="300" stroke="#555" stroke-dasharray="4, 2" stroke-width="2"/>
 </g>
 <g id="footway_crossing" transform="translate(371 152)">
  <line id="line21" x2="300" stroke="#808080" stroke-dasharray="2, 2" stroke-width="8"/>
 </g>
 <g id="path" transform="translate(371 194)">
  <line id="line22" x2="300" stroke="#666" stroke-dasharray="2, 2" stroke-width="2"/>
 </g>
 <g id="steps" transform="translate(371 235)">
  <line id="line23" x2="300" stroke="#666" stroke-dasharray="2, 2" stroke-width="4"/>
 </g>
 <g id="steps_with_a_ramp" transform="translate(371 277)">
  <line id="line24" x2="300" stroke="#46B1AC" stroke-dasharray="2, 1" stroke-width="4"/>
 </g>
 <g id="escalator" transform="translate(371 320)">
  <line id="line25" x2="300" stroke="#808080" stroke-dasharray="2, 1" stroke-width="4"/>
 </g>
 <g id="goods_conveyor" transform="translate(371 363)">
  <line id="line26" x2="300" stroke="#9b9a9a" stroke-width="8"/>
  <line id="line27" x2="300" stroke="#ebe7e4" stroke-width="4"/>
  <line id="line28" x2="300" stroke="#03c" stroke-dasharray="2, 2" stroke-width="4"/>
 </g>
 <g id="elevator" transform="translate(371 407)">
  <line id="line29" x2="300" stroke="#03c" stroke-dasharray="2, 1" stroke-width="4"/>
 </g>
 <g id="bridleway" transform="translate(371 448)">
  <line id="line30" x2="300" stroke="#93c278" stroke-dasharray="4, 2" stroke-width="2"/>
 </g>
 <g id="construction" transform="translate(371 489)">
  <line id="line31" x2="300" stroke="#ccc" stroke-width="12"/>
  <line id="line32" x2="300" fill="none" stroke="#fff" stroke-dasharray="12, 6" stroke-linejoin="round" stroke-miterlimit="10" stroke-width="10"/>
 </g>
 <g id="proposed" transform="translate(371 532)" stroke-width="6">
  <line id="line33" x2="300" stroke="#dbd7d4" stroke-linecap="round"/>
  <line id="line34" x2="300" stroke="#e5e2e0" stroke-dasharray="14, 22"/>
 </g>
 <g id="bridges_1" transform="translate(371 560)" stroke-width="2">
  <rect id="rect34" width="300" height="22" rx="11" ry="11" fill="#df653c" stroke="#9d82b4"/>
  <line id="line35" x1="40" x2="260" stroke="#7c5296"/>
  <line id="line36" x1="40" x2="260" y1="22" y2="22" stroke="#7c5296"/>
  <line id="line37" x1="50" x2="250" stroke="#000"/>
  <line id="line38" x1="50" x2="250" y1="22" y2="22" stroke="#000"/>
 </g>
 <g id="tunnels_1" transform="translate(371 603)">
  <rect id="rect38" width="300" height="22" rx="11" ry="11" stroke="#9d82b4" stroke-width="2"/>
  <line id="line39" x1="50" x2="250" y1="11" y2="11" stroke="#fff" stroke-dasharray="4, 4" stroke-width="24"/>
  <rect id="rect39" x="1" y="1" width="298" height="20" rx="10" ry="10" fill="#eeaf9a"/>
  <rect id="rect40" x="1" y="1" width="60" height="20" rx="10" ry="10" fill="#df653c"/>
  <rect id="rect41" x="239" y="1" width="60" height="20" rx="10" ry="10" fill="#df653c"/>
 </g>
 <g id="bridges_2" transform="translate(371 656)">
  <line id="line41" x1="40" x2="260" stroke="#a4a3a2" stroke-width="8"/>
  <line id="line42" x1="40" x2="260" stroke="#fff" stroke-width="4"/>
  <line id="line43" x2="300" stroke="#a4a3a2" stroke-dasharray="4, 2"/>
 </g>
 <g id="tunnels_2" transform="translate(371 699)">
  <line id="line44" x2="300" stroke="#a4a3a2" stroke-dasharray="4, 2"/>
  <line id="line45" x1="40" x2="260" stroke="#a4a3a2" stroke-dasharray="3, 3" stroke-width="8"/>
  <line id="line46" x1="40" x2="260" stroke="#fff" stroke-width="4"/>
 </g>
 <g id="cycleway_lane" transform="translate(371 741)">
  <line id="line47" x2="300" stroke="#2193e5" stroke-dasharray="8, 4" stroke-width="2"/>
 </g>
 <g id="cycleway_track" transform="translate(371 784)">
  <line id="line48" x2="300" stroke="#2193e5" stroke-dasharray="8, 4" stroke-width="2"/>
 </g>
 <g id="cycleway_opposite_lane" transform="translate(371 825)">
  <line id="line49" x2="300" stroke="#2193e5" stroke-dasharray="8, 4" stroke-width="2"/>
 </g>
 <g id="cycleway_share_busway" transform="translate(371 870)">
  <line id="line50" x2="300" stroke="#2193e5" stroke-dasharray="8, 4" stroke-width="2"/>
 </g>
 <g id="cycleway_opposite" transform="translate(371 910)">
  <line id="line51" x2="300" stroke="#2193e5" stroke-dasharray="2, 4" stroke-width="2"/>
 </g>
 <g id="cycle_street" transform="translate(371 945)">
  <rect id="rect51" width="300" height="18" rx="9" ry="9" fill="#0050ff"/>
 </g>
</svg>
