<svg xmlns="http://www.w3.org/2000/svg">
<g id="leisure_picnic_site">

<rect width="300" height="35" fill="#CCFF99" fill-opacity="0.63" />
<path fill-rule="evenodd" clip-rule="evenodd" d="M145 14H155V18H156V21H154.618L155.618 23H152.382L151.382 21H148.618L147.618 23H144.382L145.382 21H144V18H145V14Z" fill="#EBE7E4" fill-opacity="0.8" />
<path fill-rule="evenodd" clip-rule="evenodd" d="M154 15H146V17H148.5L147.5 19H145V20H147L146 22H147L148 20H152L153 22H154L153 20H155V19H152.5L151.5 17H154V15ZM151.5 19L150.5 17H149.5L148.5 19H151.5Z" fill="#543A12" />

</g>
<g id="leisure_caravan_site">

<rect width="300" height="35" fill="#CCFF99" fill-opacity="0.63" />
<path opacity="0.949" d="M149.999 9C154.963 9 159 13.0018 159 18C159 22.9655 154.963 27 149.999 27C145.037 27 141 22.9655 141 18C141 13.0018 145.037 9 149.999 9Z" fill="#45ABE9" />
<path opacity="0.95" fill-rule="evenodd" clip-rule="evenodd" d="M150 27C154.971 27 159 22.9706 159 18C159 13.0294 154.971 9 150 9C145.029 9 141 13.0294 141 18C141 22.9706 145.029 27 150 27ZM150 28C155.523 28 160 23.5228 160 18C160 12.4772 155.523 8 150 8C144.477 8 140 12.4772 140 18C140 23.5228 144.477 28 150 28Z" fill="#1578B3" />
<path d="M145.935 14.706C145.395 15.1953 144.722 15.6435 144.722 15.6435V16.0616L145.205 16.4999H148.028L148.021 17.0253L146.839 17.0356L145.957 18.5775L144.722 18.912V20.4796H145.7C145.7 20.4684 145.699 20.4573 145.699 20.4461C145.699 19.8217 146.205 19.3154 146.83 19.3155C147.454 19.3155 147.961 19.8217 147.961 20.4461C147.96 20.4573 147.96 20.4684 147.959 20.4796H151.607C151.606 20.4684 151.606 20.4573 151.605 20.4461C151.605 19.8217 152.112 19.3155 152.736 19.3155C153.36 19.3155 153.867 19.8217 153.867 20.4461C153.866 20.4573 153.866 20.4684 153.865 20.4796H155.278V15.1419H152.331L151.787 14.706H145.935ZM146.077 15.2251H148.028V16.0528H146.077V15.2251ZM152.003 16.4999H153.954V17.9927H152.003V16.4999ZM149.512 16.4999H151.183V19.9953H149.512V16.4999ZM147.181 17.5295H148.02V18.5922H146.608L147.181 17.5295ZM152.736 19.7224C152.336 19.7224 152.012 20.0464 152.012 20.4461C152.012 20.8458 152.336 21.1698 152.736 21.1698C153.136 21.1698 153.46 20.8458 153.46 20.4461C153.46 20.0464 153.136 19.7224 152.736 19.7224ZM146.83 19.7329C146.436 19.7329 146.117 20.0522 146.117 20.4461C146.117 20.8401 146.436 21.1594 146.83 21.1594C147.224 21.1594 147.543 20.84 147.543 20.4461C147.543 20.0522 147.224 19.7329 146.83 19.7329Z" fill="white" />

</g>
<g id="leisure_bleachers">

<rect width="300" height="35" fill="#EBE7E4" />

</g>
<g id="leisure_beach_resort">

<rect width="300" height="35" fill="#DEC8C8" fill-opacity="0.33" />
<path opacity="0.958" d="M149.999 9C154.963 9 159 13.0018 159 18C159 22.9655 154.963 27 149.999 27C145.037 27 141 22.9655 141 18C141 13.0018 145.037 9 149.999 9Z" fill="#BA9171" />
<path opacity="0.95" fill-rule="evenodd" clip-rule="evenodd" d="M150 27C154.971 27 159 22.9706 159 18C159 13.0294 154.971 9 150 9C145.029 9 141 13.0294 141 18C141 22.9706 145.029 27 150 27ZM150 28C155.523 28 160 23.5228 160 18C160 12.4772 155.523 8 150 8C144.477 8 140 12.4772 140 18C140 23.5228 144.477 28 150 28Z" fill="#AF7A57" />
<path fill-rule="evenodd" clip-rule="evenodd" d="M145.146 19.1464C145.342 18.9512 145.658 18.9512 145.854 19.1464L147.561 20.8536C147.654 20.9473 147.782 21 147.914 21H154.5C154.776 21 155 21.2239 155 21.5C155 21.7761 154.776 22 154.5 22H147.914C147.516 22 147.135 21.842 146.854 21.5607L145.146 19.8536C144.951 19.6583 144.951 19.3417 145.146 19.1464Z" fill="white" />
<path opacity="0.8" fill-rule="evenodd" clip-rule="evenodd" d="M148 22.5V22H149V22.5C149 22.7761 148.776 23 148.5 23C148.224 23 148 22.7761 148 22.5ZM153 22.5V22H154V22.5C154 22.7761 153.776 23 153.5 23C153.224 23 153 22.7761 153 22.5Z" fill="white" />
<path opacity="0.5" fill-rule="evenodd" clip-rule="evenodd" d="M151.5 18V23H150.5V18H151.5Z" fill="white" />
<path opacity="0.8" fill-rule="evenodd" clip-rule="evenodd" d="M155 18V17C155 14.7909 153.209 13 151 13C148.791 13 147 14.7909 147 17V18H155ZM148 17H149V16.3028C149 15.6264 149.177 14.9734 149.499 14.4017C148.603 14.9206 148 15.8899 148 17ZM150 16.3028V17H152V16.3028C152 15.4606 151.63 14.6673 151 14.1263C150.37 14.6673 150 15.4606 150 16.3028ZM152.501 14.4017C152.823 14.9734 153 15.6264 153 16.3028V17H154C154 15.8899 153.397 14.9206 152.501 14.4017Z" fill="white" />

</g>
<g id="leisure_leisureCommonColor">

<rect width="300" height="35" fill="#87CC70" />

</g>
<g id="leisure_playgroundColor">

<rect width="300" height="35" fill="#EBE7E4" />
<path d="M146.047 18.1031C146.704 18.1031 147.237 17.5702 147.237 16.9127C147.237 16.2553 146.704 15.7224 146.047 15.7224C145.389 15.7224 144.856 16.2553 144.856 16.9127C144.856 17.5702 145.389 18.1031 146.047 18.1031Z" fill="#67C066" />
<path d="M152.721 20.1494C152.777 20.112 152.85 20.1224 152.89 20.1764L153.109 20.4807C153.147 20.5332 153.136 20.6097 153.082 20.6502L151.466 21.824C151.414 21.8615 151.337 21.851 151.297 21.797L151.078 21.4927C151.04 21.4402 151.051 21.3638 151.105 21.3233L152.721 20.1494Z" fill="#67C066" />
<path d="M150.558 18.8871L150.895 18.6353L150.253 17.5109L149.916 17.7568L150.558 18.8871Z" fill="#67C066" />
<path d="M149.059 16.2576L149.399 16.0087L146.906 11.6312L146.428 11.6342L149.059 16.2576Z" fill="#67C066" />
<path d="M151.747 18.325C151.888 18.223 152.048 18.1436 152.232 18.1436L154.549 18.1466C155 18.1466 155.363 18.5124 155.363 18.9606C155.363 19.4118 155 19.7746 154.549 19.7746L152.616 19.7716L150.148 21.5137C149.279 22.1403 148.751 21.4522 148.751 21.4522L146.814 19.5138C146.489 19.124 146.559 18.3834 146.949 18.0551L149.63 16.1467C149.897 15.9248 150.291 15.9593 150.517 16.2231C150.739 16.49 150.705 16.8873 150.438 17.1106L148.721 18.3669L149.954 19.5857L151.747 18.325Z" fill="#67C066" />

</g>
<g id="leisure_camp_site">

<rect width="300" height="35" fill="#CCFF99" fill-opacity="0.63" />
<path opacity="0.949" d="M149.999 9C154.963 9 159 13.0018 159 18C159 22.9655 154.963 27 149.999 27C145.037 27 141 22.9655 141 18C141 13.0018 145.037 9 149.999 9Z" fill="#45ABE9" />
<path opacity="0.95" fill-rule="evenodd" clip-rule="evenodd" d="M150 27C154.971 27 159 22.9706 159 18C159 13.0294 154.971 9 150 9C145.029 9 141 13.0294 141 18C141 22.9706 145.029 27 150 27ZM150 28C155.523 28 160 23.5228 160 18C160 12.4772 155.523 8 150 8C144.477 8 140 12.4772 140 18C140 23.5228 144.477 28 150 28Z" fill="#1578B3" />
<path opacity="0.5" d="M150 13.8264L149.442 12.7671L148.558 13.2329L149.435 14.9L150 13.8264Z" fill="white" />
<path fill-rule="evenodd" clip-rule="evenodd" d="M145 23H155L150.533 14.9601L151.442 13.2329L150.558 12.7671L145 23ZM152 22C150.5 20.5 150 18 150 18C150 18 149.5 20.5 148 22H152Z" fill="white" />

</g>
<g id="leisure_recreationGroundColor">

<rect width="300" height="35" fill="#B6FDB5" fill-opacity="0.7" />

</g>
<g id="leisure_horse_riding">

<rect width="300" height="35" fill="#DEC8C8" fill-opacity="0.87" />
<path opacity="0.953" d="M149.999 7C155.514 7 160 11.4465 160 17C160 22.5172 155.514 27 149.999 27C144.486 27 140 22.5172 140 17C140 11.4465 144.486 7 149.999 7Z" fill="#878787" />
<path opacity="0.95" fill-rule="evenodd" clip-rule="evenodd" d="M150 26C154.971 26 159 21.9706 159 17C159 12.0294 154.971 8 150 8C145.029 8 141 12.0294 141 17C141 21.9706 145.029 26 150 26ZM150 27C155.523 27 160 22.5228 160 17C160 11.4772 155.523 7 150 7C144.477 7 140 11.4772 140 17C140 22.5228 144.477 27 150 27Z" fill="#404040" />
<path opacity="0.75" fill-rule="evenodd" clip-rule="evenodd" d="M147.93 17.8409L146.065 19.1455C145.346 19.9598 146.864 19.9377 147.58 20.3196L148.443 20.711L148.373 20.0587L147.464 19.4064L148.396 18.441L147.93 17.8409Z" fill="white" />
<path opacity="0.75" fill-rule="evenodd" clip-rule="evenodd" d="M152.523 18.3366C152.846 19.2608 153.487 21.0199 153.269 21.6242L154.039 21.5982C153.663 20.511 153.611 19.4238 153.479 18.3366H152.523Z" fill="white" />
<path fill-rule="evenodd" clip-rule="evenodd" d="M146.767 15.4719C147.2 15.1317 149.15 13.7843 149.368 13.6217C149.589 13.4561 149.689 13.4831 149.843 13.5217L151.243 13.8717C152.174 14.1602 151.466 15.2524 150.868 15.5907C150.794 16.0467 151.135 16.5079 152.193 17.0971L150.868 17.3221C150.826 16.5073 149.484 16.7721 149.443 16.297L150.193 15.0719C149.835 15.0534 149.55 14.9966 149.193 14.8281C148.174 15.2451 147.668 15.5913 147.017 15.947L146.767 15.4719Z" fill="white" />
<path fill-rule="evenodd" clip-rule="evenodd" d="M147.555 12.4813L149 12.4999L148.887 12.6645L147.521 12.5472L147.555 12.4813Z" fill="white" />
<path d="M148.652 12.1903C148.395 12.1903 148.177 12.3586 148.102 12.5909L149.227 12.7862C149.228 12.7797 149.228 12.7731 149.228 12.7666C149.228 12.4482 148.97 12.1903 148.652 12.1903Z" fill="white" />
<path fill-rule="evenodd" clip-rule="evenodd" d="M147.946 12.9132C147.943 12.9347 147.942 12.9565 147.941 12.9787C147.934 13.3202 148.206 13.6033 148.548 13.6103C148.846 13.6164 149.098 13.4104 149.162 13.1307L147.946 12.9132Z" fill="white" />
<path fill-rule="evenodd" clip-rule="evenodd" d="M148.42 16.1187L150.868 15.5708C151.988 15.399 152.565 15.6323 152.943 16.0144C154.417 15.6601 155.013 16.1658 155.508 16.7711L155.187 17.199C154.791 16.6489 154.133 16.1302 153.12 16.3394C153.249 17.0056 153.661 17.5435 154.225 18.0011C154.583 18.8664 154.953 20.1388 155.554 20.8676L155.181 21.4416C154.775 20.4821 154.186 19.084 153.345 18.5411C152.697 18.357 152.1 18.1909 151.637 17.6619L151.329 17.5621C150.571 18.2621 149.411 18.5062 148.35 18.5229C147.631 19.2818 147.025 20.347 146.018 21.6243L145.319 21.3112C146.155 20.6613 146.794 19.2342 147.51 18.3142C147.48 17.1693 146.817 16.1686 146.366 15.8562C145.914 15.5438 145.372 16.1953 144.852 16.2753C144.554 16.3221 144.33 15.8907 144.503 15.6752C144.683 15.4503 145.369 14.6623 145.972 14.3445L146.205 13.7443L146.345 14.3184C147.065 14.7882 147.817 15.122 148.42 16.1187Z" fill="white" />

</g>
<g id="leisure_Park">

<rect width="300" height="35" fill="#87CC70" />
<rect x="1" y="1" width="298" height="33" fill="#91D47B" />
<path fill-rule="evenodd" clip-rule="evenodd" d="M150.443 17L147.5 9.15201L144.557 17H144.934L143.734 19H144.5L143 21H146V23H149V21H150V22H150.5V23H155.5V22H156V19H151.266L150.066 17H150.443Z" fill="#EBE7E4" fill-opacity="0.8" />
<path d="M146 16L147.5 12L149 16H148.3L149.5 18H148.5L150 20H148V22H147V20H145L146.5 18H145.5L146.7 16H146Z" fill="#6DBA00" />
<path d="M152.5 21H153.5V22H154.5V21H155V20H151V21H151.5V22H152.5V21Z" fill="#6DBA00" />

</g>
<g id="leisure_pitchColor">

<rect width="300" height="35" fill="#EBE7E4" />
<rect x="1" y="1" width="298" height="33" fill="#80DA9F" />

</g>
<g id="leisure_rest_area">

<rect width="300" height="35" fill="#EBE7E4" />

</g>
<g id="sport_sportsCentreColor">
<rect width="300" height="35" fill="#888" id="rect2" /><rect x="1" y="1" width="298" height="33" fill="#EBE7E4" id="rect4" style="fill:#8de9a1;fill-opacity:1" /><path opacity=".95" d="M150 7a10.01 10.01 0 1 1-.02 19.98A10.01 10.01 0 0 1 150 7z" fill="#60BE60" id="path6" /><path opacity=".95" fill-rule="evenodd" clip-rule="evenodd" d="M150 26a9 9 0 1 0 0-18 9 9 0 0 0 0 18zm0 1a10 10 0 1 0 0-20 10 10 0 0 0 0 20z" fill="#398C39" id="path8" /><path d="M146.8 13.1a.5.5 0 0 0-.6.8l2.6 1.86c-.13.84-.1 1.7.1 2.52l-.88 3.08a.5.5 0 1 0 .96.28l.88-3.07 2.29 2.28a.5.5 0 0 0 .7-.7l-1.94-1.95.04-.02a4.43 4.43 0 0 1-.2-1.96l2.95-1.26a.5.5 0 0 0-.4-.92l-2.63 1.13-1.5-.38-2.38-1.7z" fill="#fff" id="path10" /><path d="M150 14.5a.75.75 0 1 0 0-1.5.75.75 0 0 0 0 1.5z" fill="#fff" id="path12" />
</g>
<g id="leisure_golfCourseColor">

<rect width="300" height="35" fill="#87CC70" />
<rect x="1" y="1" width="298" height="33" fill="#91DA80" />

</g>
<g id="leisure_outdoor_seating">

<rect width="300" height="35" fill="#DEC8C8" fill-opacity="0.33" />
<path opacity="0.953" d="M149.999 8C155.514 8 160 12.4465 160 18C160 23.5172 155.514 28 149.999 28C144.486 28 140 23.5172 140 18C140 12.4465 144.486 8 149.999 8Z" fill="#D17E4A" />
<path opacity="0.95" fill-rule="evenodd" clip-rule="evenodd" d="M150 27C154.971 27 159 22.9706 159 18C159 13.0294 154.971 9 150 9C145.029 9 141 13.0294 141 18C141 22.9706 145.029 27 150 27ZM150 28C155.523 28 160 23.5228 160 18C160 12.4772 155.523 8 150 8C144.477 8 140 12.4772 140 18C140 23.5228 144.477 28 150 28Z" fill="#B3622E" />
<path d="M146 18.5C146 18.2239 145.776 18 145.5 18C145.224 18 145 18.2239 145 18.5V22.5C145 22.7761 145.224 23 145.5 23C145.776 23 146 22.7761 146 22.5V21.5H147V22.5C147 22.7761 147.224 23 147.5 23C147.776 23 148 22.7761 148 22.5V21C148 20.7239 147.776 20.5 147.5 20.5H146V18.5Z" fill="white" />
<path d="M154 18.5C154 18.2239 154.224 18 154.5 18C154.776 18 155 18.2239 155 18.5V22.5C155 22.7761 154.776 23 154.5 23C154.224 23 154 22.7761 154 22.5V21.5H153V22.5C153 22.7761 152.776 23 152.5 23C152.224 23 152 22.7761 152 22.5V21C152 20.7239 152.224 20.5 152.5 20.5H154V18.5Z" fill="white" />
<path opacity="0.8" fill-rule="evenodd" clip-rule="evenodd" d="M150.5 15V22.5C150.5 22.7761 150.276 23 150 23C149.724 23 149.5 22.7761 149.5 22.5V15H150.5Z" fill="white" />
<path d="M149.924 13C149.645 13 149.368 13.0587 149.112 13.1724L145.36 14.84C145.141 14.9373 145 15.1544 145 15.3939C145 15.7286 145.271 16 145.606 16H154.394C154.729 16 155 15.7286 155 15.3939C155 15.1544 154.859 14.9373 154.64 14.84L150.888 13.1724C150.632 13.0587 150.355 13 150.076 13H149.924Z" fill="white" />
<path d="M147.5 18.5C147.224 18.5 147 18.7239 147 19C147 19.2761 147.224 19.5 147.5 19.5H152.5C152.776 19.5 153 19.2761 153 19C153 18.7239 152.776 18.5 152.5 18.5H147.5Z" fill="white" />

</g>
<g id="sport_Stadium">

<rect width="300" height="35" fill="#888888" />
<rect x="1" y="1" width="298" height="33" fill="#EBE7E4" />
<path opacity="0.953" d="M149.999 7C155.514 7 160 11.4465 160 17C160 22.5172 155.514 27 149.999 27C144.486 27 140 22.5172 140 17C140 11.4465 144.486 7 149.999 7Z" fill="#60BE60" />
<path opacity="0.95" fill-rule="evenodd" clip-rule="evenodd" d="M150 26C154.971 26 159 21.9706 159 17C159 12.0294 154.971 8 150 8C145.029 8 141 12.0294 141 17C141 21.9706 145.029 26 150 26ZM150 27C155.523 27 160 22.5228 160 17C160 11.4772 155.523 7 150 7C144.477 7 140 11.4772 140 17C140 22.5228 144.477 27 150 27Z" fill="#398C39" />
<path opacity="0.5" d="M146.314 13.5359C146.571 13.4333 146.862 13.558 146.964 13.8144L147.928 16.2241C148.415 16.113 148.944 16.0399 149.5 16.0123V14.0001C149.5 13.724 149.724 13.5001 150 13.5001C150.276 13.5001 150.5 13.724 150.5 14.0001V16.0123C151.056 16.0399 151.585 16.113 152.072 16.2241L153.036 13.8144C153.138 13.558 153.429 13.4333 153.686 13.5359C153.942 13.6385 154.067 13.9294 153.964 14.1858L153.034 16.5125C153.557 16.7127 153.999 16.9633 154.331 17.25C153.467 17.6984 151.851 18 150 18C148.149 18 146.533 17.6983 145.669 17.25C146.001 16.9633 146.443 16.7126 146.966 16.5125L146.036 14.1858C145.933 13.9294 146.058 13.6385 146.314 13.5359Z" fill="white" />
<path fill-rule="evenodd" clip-rule="evenodd" d="M156 15.5C156 15.8849 155.938 16.2673 155.816 16.6325L155.124 18.7102C155.003 19.0729 154.787 19.4443 154.425 19.7034C153.748 20.1871 152.27 21 150 21C147.73 21 146.252 20.1871 145.575 19.7034C145.213 19.4443 144.997 19.0729 144.876 18.7102L144.184 16.6325C144.062 16.2673 144 15.8849 144 15.5C144 14.1193 146.686 13 150 13C153.314 13 156 14.1193 156 15.5ZM154.981 15.563C155 15.5239 155 15.5053 155 15.5C155 15.4947 155 15.4761 154.981 15.437C154.96 15.3942 154.915 15.3264 154.827 15.2393C154.644 15.0594 154.329 14.8514 153.858 14.6553C152.921 14.265 151.558 14 150 14C148.442 14 147.079 14.265 146.142 14.6553C145.671 14.8514 145.356 15.0594 145.173 15.2393C145.085 15.3264 145.04 15.3942 145.019 15.437C145 15.4761 145 15.4947 145 15.5C145 15.5053 145 15.5239 145.019 15.563C145.04 15.6058 145.085 15.6736 145.173 15.7607C145.356 15.9406 145.671 16.1486 146.142 16.3447C147.079 16.735 148.442 17 150 17C151.558 17 152.921 16.735 153.858 16.3447C154.329 16.1486 154.644 15.9406 154.827 15.7607C154.915 15.6736 154.96 15.6058 154.981 15.563ZM145.395 17.1025L145.825 18.394C145.9 18.6203 146.014 18.7877 146.157 18.8898C146.607 19.2116 147.554 19.7566 149.002 19.9387C149.034 19.415 149.468 19 150 19C150.532 19 150.966 19.415 150.998 19.9387C152.446 19.7566 153.393 19.2116 153.843 18.8898C153.986 18.7877 154.1 18.6203 154.175 18.394L154.605 17.1025C153.505 17.6511 151.85 18 150 18C148.15 18 146.495 17.6511 145.395 17.1025Z" fill="white" />

</g>
<g id="sport_track">

<rect width="300" height="35" fill="#888888" />
<rect x="1" y="1" width="298" height="33" fill="#EBE7E4" />

</g>

</svg>