<svg xmlns="http://www.w3.org/2000/svg" fill="none">
<g id="built-up_ArchaeologicalSite">

<rect width="300" height="35" fill="#25A778" fill-opacity="0.23" />
<rect x="1" y="1" width="298" height="33" stroke="#A7783A" stroke-opacity="0.67" stroke-width="2" stroke-dasharray="10 3" />
<path opacity="0.958" d="M149.999 8C154.963 8 159 12.0018 159 17C159 21.9655 154.963 26 149.999 26C145.037 26 141 21.9655 141 17C141 12.0018 145.037 8 149.999 8Z" fill="#BA9171" />
<path opacity="0.95" fill-rule="evenodd" clip-rule="evenodd" d="M150 26C154.971 26 159 21.9706 159 17C159 12.0294 154.971 8 150 8C145.029 8 141 12.0294 141 17C141 21.9706 145.029 26 150 26ZM150 27C155.523 27 160 22.5228 160 17C160 11.4772 155.523 7 150 7C144.477 7 140 11.4772 140 17C140 22.5228 144.477 27 150 27Z" fill="#AF7A57" />
<path fill-rule="evenodd" clip-rule="evenodd" d="M150.732 12L154.196 14C153.92 14.4783 153.308 14.6422 152.83 14.366L152.33 15.2321C152.319 15.4221 152.324 15.5969 152.344 15.7588L153.059 15.2869C153.449 15.029 153.952 15.0139 154.358 15.248C154.949 15.5893 155.151 16.3453 154.81 16.9365L153.428 19.3301C153.173 19.7729 152.896 20.1364 152.612 20.4347C152.382 20.4781 152.149 20.5 151.915 20.5C151.438 20.5 150.965 20.4089 150.522 20.2317L149.413 19.7881C148.937 19.5978 148.429 19.5 147.917 19.5C147.122 19.5 146.344 19.7354 145.682 20.1765L145.317 20.4204L145.299 20.4103C145.06 20.2722 144.978 19.9664 145.116 19.7272C145.254 19.4881 145.56 19.4062 145.799 19.5442L146.232 19.7942C146.232 19.7942 145 17.9282 146.5 15.3301L147.882 12.9365C148.223 12.3453 148.979 12.1427 149.57 12.4841C149.976 12.7182 150.214 13.1612 150.186 13.6286L150.135 14.4835C150.285 14.4194 150.439 14.337 150.598 14.2321L151.098 13.366C150.62 13.0899 150.456 12.4783 150.732 12ZM149.121 14.6856L149.188 13.5687C149.193 13.4794 149.148 13.3948 149.07 13.3501C148.958 13.2849 148.813 13.3236 148.748 13.4365L148.091 14.5752C148.171 14.5855 148.252 14.5976 148.335 14.6099C148.582 14.6463 148.843 14.6849 149.121 14.6856ZM153.287 17.5752L153.944 16.4365C154.009 16.3236 153.971 16.1792 153.858 16.114C153.78 16.0693 153.684 16.0722 153.61 16.1215L152.676 16.738C152.815 16.9786 152.979 17.1854 153.134 17.3806C153.187 17.4465 153.238 17.5111 153.287 17.5752Z" fill="white" />
<path d="M146.514 21.4246C146.93 21.1477 147.418 21 147.917 21C148.238 21 148.557 21.0614 148.856 21.1808L149.965 21.6244C150.585 21.8725 151.247 22 151.915 22C152.344 22 152.772 21.9473 153.189 21.8432L154.621 21.4851C154.889 21.4181 155.052 21.1466 154.985 20.8787C154.918 20.6108 154.647 20.448 154.379 20.5149L152.946 20.8731C152.609 20.9574 152.263 21 151.915 21C151.374 21 150.838 20.8968 150.336 20.6959L149.227 20.2523C148.81 20.0856 148.366 20 147.917 20C147.22 20 146.539 20.2062 145.96 20.5925L145.223 21.084C144.993 21.2372 144.931 21.5476 145.084 21.7774C145.237 22.0071 145.548 22.0692 145.777 21.916L146.514 21.4246Z" fill="white" />

</g>
<g id="built-up_HistoricRuins">

<rect width="300" height="35" fill="#33C458" fill-opacity="0.23" />
<rect x="1" y="1" width="298" height="33" stroke="#9A3300" stroke-opacity="0.4" stroke-width="2" stroke-dasharray="10 3" />
<path opacity="0.958" d="M149.999 8C154.963 8 159 12.0018 159 17C159 21.9655 154.963 26 149.999 26C145.037 26 141 21.9655 141 17C141 12.0018 145.037 8 149.999 8Z" fill="#BA9171" />
<path opacity="0.95" fill-rule="evenodd" clip-rule="evenodd" d="M150 26C154.971 26 159 21.9706 159 17C159 12.0294 154.971 8 150 8C145.029 8 141 12.0294 141 17C141 21.9706 145.029 26 150 26ZM150 27C155.523 27 160 22.5228 160 17C160 11.4772 155.523 7 150 7C144.477 7 140 11.4772 140 17C140 22.5228 144.477 27 150 27Z" fill="#AF7A57" />
<path fill-rule="evenodd" clip-rule="evenodd" d="M150.955 14.4978L150.084 14.4187L150.329 15.7649L150.407 15.7093L152.757 18.9999H154V19.9999H155V20.9999H145V19.9999H146L146 14.0474L145.455 13.9978L145.545 13.002L151.045 13.502L150.955 14.4978ZM147 18.9999H148V14.2292L147 14.1383L147 18.9999ZM149 18.9999H149.901L149.051 14.3248L149 14.3201V18.9999ZM150.917 18.9999H151.528L150.709 17.8522L150.917 18.9999Z" fill="white" />

</g>
<g id="built-up_PalaeontologicalSite">

<rect width="300" height="35" fill="#25A778" fill-opacity="0.23" />
<rect x="1" y="1" width="298" height="33" stroke="#AAA79F" stroke-opacity="0.58" stroke-width="2" stroke-dasharray="10 3" />
<path opacity="0.958" d="M149.999 8C154.963 8 159 12.0018 159 17C159 21.9655 154.963 26 149.999 26C145.037 26 141 21.9655 141 17C141 12.0018 145.037 8 149.999 8Z" fill="#BA9171" />
<path opacity="0.95" fill-rule="evenodd" clip-rule="evenodd" d="M150 26C154.971 26 159 21.9706 159 17C159 12.0294 154.971 8 150 8C145.029 8 141 12.0294 141 17C141 21.9706 145.029 26 150 26ZM150 27C155.523 27 160 22.5228 160 17C160 11.4772 155.523 7 150 7C144.477 7 140 11.4772 140 17C140 22.5228 144.477 27 150 27Z" fill="#AF7A57" />
<path d="M147.705 12.4737C148.15 12.7487 148.696 13.3178 148.795 14.1037C149.469 13.8609 150.225 13.8258 150.926 13.968C151.29 13.4019 151.216 12.5878 150.842 12.0416C149.784 11.9218 148.683 12.0436 147.705 12.4737ZM151.409 12.1342C151.613 12.6097 151.771 13.3791 151.384 14.0943C152.049 14.3285 152.533 14.7435 152.853 15.2398C153.587 15.0559 153.965 14.4077 153.932 13.6773C153.359 12.9471 152.545 12.3811 151.409 12.1342ZM147.154 12.7565C146.1 13.377 145.578 14.1037 145 15.1034C145.252 15.333 145.861 15.7192 146.888 15.8312C147.191 15.2454 147.661 14.6705 148.35 14.301C148.332 13.6955 147.921 13.1064 147.391 12.8218C147.288 12.7667 147.228 12.7545 147.154 12.7565ZM154.337 14.2917C154.212 14.8364 153.835 15.4133 153.074 15.6525C153.321 16.2203 153.39 16.8448 153.336 17.4274C153.959 17.5623 154.86 17.1043 154.981 16.4563C154.909 15.7056 154.702 14.9548 154.337 14.2917ZM150.079 14.4611C149.616 14.46 149.224 14.5361 148.889 14.6678C149.26 14.8242 149.574 15.1163 149.719 15.4716C149.958 15.4037 150.214 15.3815 150.476 15.4156C150.504 15.1267 150.395 14.6839 150.107 14.4618C150.098 14.4617 150.088 14.4611 150.079 14.4611ZM150.59 14.4927C150.796 14.8122 150.865 15.1881 150.82 15.4924C151.053 15.5668 151.284 15.6894 151.468 15.8334C151.624 15.5459 151.676 15.2283 151.511 14.7539C151.254 14.6278 150.95 14.5373 150.59 14.4927ZM148.373 14.9427C148.035 15.1754 147.774 15.4742 147.568 15.7989C147.951 15.7379 148.409 15.8038 148.712 16.1269C148.892 15.9167 149.111 15.7407 149.357 15.6145C149.212 15.2701 148.775 14.954 148.373 14.9427ZM151.906 15.003C151.97 15.4224 151.877 15.7674 151.711 16.0602C151.831 16.1939 151.929 16.3405 152.004 16.4951C152.235 16.4063 152.469 16.1969 152.504 15.7738C152.367 15.4803 152.173 15.2161 151.906 15.003ZM150.164 15.9647C150.015 15.9696 149.874 16.0004 149.742 16.0537C149.95 16.1497 150.05 16.2595 150.145 16.3939C150.248 16.3804 150.347 16.3805 150.441 16.3939C150.414 16.2773 150.362 16.1803 150.164 15.9647ZM150.527 16.0042C150.654 16.1777 150.69 16.317 150.71 16.4736C150.774 16.5039 150.833 16.5418 150.886 16.5855C150.932 16.4875 150.95 16.3916 150.938 16.1671C150.81 16.0953 150.663 16.0375 150.527 16.0042ZM147.308 16.2891C147.105 16.7521 147.001 17.2226 146.962 17.571C147.315 17.3313 147.751 17.2221 148.169 17.2982C148.22 16.9949 148.328 16.7058 148.482 16.4484C148.222 16.0773 147.674 16.1149 147.308 16.2891ZM149.456 16.2116C149.354 16.2849 149.259 16.3723 149.172 16.4714C149.36 16.5001 149.484 16.5462 149.586 16.6128C149.673 16.5508 149.771 16.4984 149.878 16.4592C149.8 16.3651 149.718 16.3055 149.456 16.2116ZM152.682 16.2769C152.549 16.537 152.336 16.7045 152.118 16.7879C152.172 16.9654 152.199 17.1481 152.201 17.3291C152.415 17.3226 152.577 17.2952 152.77 17.0398C152.771 16.7838 152.744 16.5248 152.682 16.2769ZM151.172 16.3286C151.166 16.5201 151.119 16.6441 151.052 16.765C151.102 16.8367 151.142 16.9142 151.172 16.9939C151.262 16.9239 151.325 16.8428 151.424 16.615C151.357 16.5118 151.274 16.4152 151.172 16.3286ZM148.998 16.7047C148.926 16.8191 148.866 16.9425 148.82 17.0721C148.983 17.0271 149.107 17.023 149.222 17.042C149.265 16.9528 149.321 16.8679 149.389 16.7908C149.31 16.7527 149.201 16.7252 148.998 16.7047ZM151.548 16.8633C151.451 17.0466 151.351 17.1395 151.231 17.2193C151.245 17.3095 151.25 17.3996 151.244 17.4891C151.431 17.453 151.523 17.3929 151.629 17.2846C151.624 17.1424 151.598 16.9998 151.548 16.8633ZM150.505 16.9898C150.469 16.9785 150.427 16.97 150.375 16.9649C150.409 17.0233 150.445 17.0914 150.453 17.1588C150.503 17.1765 150.551 17.2025 150.592 17.2329C150.612 17.172 150.617 17.1108 150.614 17.0468C150.586 17.024 150.551 17.0046 150.505 16.9898ZM150.204 16.9747C150.076 16.9839 149.981 17.0236 149.902 17.0841C149.982 17.1031 150.058 17.1436 150.129 17.1875C150.182 17.1687 150.239 17.1484 150.296 17.1531C150.289 17.1228 150.206 16.9718 150.204 16.9747ZM150.76 17.168C150.761 17.2232 150.751 17.2754 150.736 17.3306C150.746 17.3875 150.739 17.4754 150.713 17.5488C150.817 17.4423 150.813 17.2805 150.76 17.168ZM148.741 17.3621C148.717 17.4927 148.706 17.6273 148.711 17.7626C148.859 17.6502 148.979 17.5988 149.1 17.5738C149.101 17.4769 149.114 17.38 149.136 17.2853C149.042 17.277 148.941 17.2909 148.741 17.3621ZM155 17.3119C154.561 17.7323 153.877 17.9933 153.267 17.8846C153.172 18.3245 153.001 18.724 152.772 19.0394C153.223 19.5212 153.759 19.6047 154.402 19.4564C154.756 18.7975 154.957 18.0494 155 17.3119ZM149.774 17.2333C149.716 17.3207 149.677 17.429 149.659 17.5482C149.72 17.523 149.791 17.501 149.873 17.482C149.899 17.4129 149.941 17.3445 150.002 17.2893C149.927 17.2489 149.852 17.2329 149.774 17.2333ZM152.742 17.4662C152.556 17.5932 152.36 17.6198 152.183 17.6226C152.156 17.812 152.102 17.9956 152.021 18.1667C152.18 18.234 152.329 18.2586 152.588 18.1401C152.659 17.9343 152.712 17.7055 152.742 17.4662ZM151.613 17.5509C151.508 17.6192 151.383 17.6681 151.21 17.698C151.193 17.7617 151.169 17.8232 151.137 17.8824C151.259 17.9498 151.356 17.9663 151.48 17.9643C151.545 17.8386 151.591 17.6977 151.613 17.5509ZM146.953 18.1092C146.98 18.5066 147.069 19.0854 147.321 19.6523C147.44 19.0441 147.846 18.697 148.302 18.5614C148.188 18.2793 148.136 17.9884 148.135 17.7023C147.729 17.6168 147.254 17.7882 146.953 18.1092ZM149.839 17.6268C149.769 17.6626 149.712 17.6979 149.666 17.7345C149.698 17.8757 149.76 18.011 149.847 18.1249C149.87 18.0551 149.904 17.9855 149.953 17.9125C149.89 17.826 149.852 17.7267 149.839 17.6268ZM149.117 17.8286C149.09 17.8359 149.063 17.8449 149.035 17.8573C148.964 17.8895 148.876 17.9481 148.747 18.059C148.781 18.2221 148.839 18.3839 148.925 18.5399L148.926 18.5413C148.967 18.4499 149.008 18.3785 149.054 18.3181C149.102 18.2559 149.152 18.2091 149.207 18.1667C149.166 18.061 149.136 17.9518 149.119 17.8423C149.118 17.8377 149.118 17.8332 149.117 17.8286ZM151.06 17.9943C150.998 18.0427 150.944 18.0692 150.835 18.1048C150.907 18.2193 150.971 18.2785 151.052 18.3293C151.181 18.2931 151.291 18.2042 151.364 18.1163C151.255 18.0998 151.175 18.0623 151.06 17.9943ZM150.057 18.0252C150.006 18.1035 149.98 18.1748 149.965 18.2534C150.064 18.3421 150.183 18.4055 150.315 18.43H150.317C150.32 18.4298 150.323 18.4298 150.327 18.43C150.293 18.3453 150.273 18.2531 150.266 18.1407C150.186 18.1146 150.116 18.0744 150.057 18.0252ZM150.681 18.1458C150.601 18.1684 150.516 18.1779 150.429 18.1716C150.438 18.2845 150.466 18.3665 150.513 18.4493C150.658 18.4527 150.786 18.4308 150.899 18.3883C150.824 18.3289 150.752 18.2519 150.681 18.1458ZM149.322 18.4078C149.245 18.4793 149.186 18.5701 149.098 18.8069C149.197 18.9374 149.308 19.0495 149.425 19.1442C149.43 18.9524 149.476 18.8231 149.544 18.6992C149.458 18.6116 149.384 18.5131 149.322 18.4078ZM151.874 18.4229C151.804 18.5249 151.722 18.62 151.629 18.7042C151.725 18.8307 151.828 18.9099 152.118 18.9267C152.238 18.8039 152.344 18.6673 152.436 18.4925C152.217 18.5358 152.03 18.4922 151.874 18.4229ZM151.393 18.8794C151.282 18.9459 151.162 18.9993 151.032 19.0373C151.071 19.1839 151.137 19.3053 151.33 19.427C151.504 19.3645 151.672 19.2794 151.826 19.1722C151.625 19.1152 151.489 19.0032 151.393 18.8794ZM149.763 18.8808C149.742 18.9244 149.727 18.9649 149.717 19.0129C149.702 19.0835 149.698 19.1806 149.71 19.3322C149.848 19.4054 149.993 19.4597 150.142 19.4959C150.106 19.3982 150.089 19.3046 150.088 19.2145C150.087 19.1542 150.092 19.0967 150.101 19.0416C149.978 19.0042 149.865 18.9491 149.763 18.8808ZM148.519 18.9798C147.841 19.1299 147.693 19.7585 147.756 20.3787C148.075 20.7849 148.516 21.1421 149.148 21.3706C148.882 20.7509 149.085 20.1524 149.303 19.7535C149.002 19.5671 148.732 19.3101 148.519 18.9798ZM150.763 19.0925C150.634 19.1076 150.5 19.1085 150.361 19.0932C150.338 19.2346 150.347 19.3673 150.456 19.5454C150.639 19.5598 150.824 19.5494 151.005 19.5153C150.87 19.3846 150.8 19.236 150.763 19.0925ZM152.466 19.3897C152.167 19.6747 151.809 19.8802 151.427 20.0004C151.4 20.6933 151.871 21.0608 152.491 21.2837C153.148 20.9904 153.675 20.5312 154.078 19.9746C153.448 20.0364 152.898 19.8492 152.466 19.3897ZM149.715 19.9581C149.427 20.4842 149.372 21.068 149.795 21.5435C150.473 21.6695 151.184 21.6708 151.854 21.5026C151.152 21.1167 150.969 20.5659 150.966 20.1024C150.547 20.1569 150.117 20.1123 149.715 19.9581Z" fill="white" />

</g>

</svg>
