<svg fill="none" version="1.1" xmlns="http://www.w3.org/2000/svg" xmlns:xlink="http://www.w3.org/1999/xlink">
 <defs>
  <pattern id="pattern477" patternTransform="translate(0 .00146)" preserveAspectRatio="xMidYMid" xlink:href="#pattern475"/>
  <pattern id="pattern474" x="2" y="2" patternTransform="scale(1)" preserveAspectRatio="xMidYMid" xlink:href="#pattern472"/>
  <pattern id="pattern472" width="32" height="32" fill="#000000" patternTransform="scale(1)" patternUnits="userSpaceOnUse" preserveAspectRatio="xMidYMid">
   <g clip-path="url(#clip1_236_11753)">
    <path d="m0-2.12-2.12 2.12 16 16-16 16 2.12 2.12 16-16 16 16 2.12-2.12-16-16 16-16-2.12-2.12-16 16-14.9-14.9z" fill="#ec94b2" fill-opacity=".518" opacity=".269"/>
   </g>
  </pattern>
  <pattern id="pattern475" width="15.9985" height="15.998535" fill="#000000" patternTransform="translate(0 .00146)" patternUnits="userSpaceOnUse" preserveAspectRatio="xMidYMid">
   <g transform="translate(0 -.00146)" clip-path="url(#clip1_236_10560)">
    <path d="m15.2 0.00146h0.8v0.8l-15.2 15.2h-0.8v-0.8" fill="#fe9fbf" fill-opacity=".43"/>
    <path d="m0.8 0.00146-0.8 0.8v-0.8" fill="#fe9fbf" fill-opacity=".43"/>
    <path d="m15.2 16h0.8v-0.8" fill="#fe9fbf" fill-opacity=".43"/>
   </g>
  </pattern>
 </defs>
 <g id="built-up_PlaceOfWorship">
  <rect width="300" height="35" fill="#121926"/>
  <path d="m150 7c5.52 0 10 4.45 10 10 0 5.52-4.49 10-10 10-5.51 0-10-4.48-10-10 0-5.55 4.49-10 10-10z" fill="#cecece" opacity=".953"/>
  <path d="m150 26c4.97 0 9-4.03 9-9s-4.03-9-9-9-9 4.03-9 9 4.03 9 9 9zm0 1c5.52 0 10-4.48 10-10s-4.48-10-10-10-10 4.48-10 10 4.48 10 10 10z" clip-rule="evenodd" fill="#e8e8e8" fill-rule="evenodd" opacity=".95"/>
  <path d="m150 14c0.552 0 1-0.448 1-1s-0.448-1-1-1-1 0.448-1 1 0.448 1 1 1z" fill="#333"/>
  <path d="m148 21.7c-0.059-0.182-7e-3 -0.38 0.127-0.51l2.24-2.24-0.766-1.53c-0.065-0.129-0.115-0.266-0.151-0.406l-0.309-1.24-1.04 0.261c-0.195 0.0488-0.4-0.0241-0.521-0.185l-1.5-2c-0.166-0.221-0.121-0.534 0.1-0.7s0.534-0.121 0.7 0.1l1.3 1.73s1.09-0.287 1.44-0.361c0.356-0.0737 0.362-0.0737 0.547-0.0737 0.379 0 0.725 0.214 0.894 0.553l0.33 0.66c0.032 0.0634 0.059 0.129 0.082 0.196l0.744 2.23c0.208 0.625-0.016 1.31-0.551 1.7l-1.63 1.16h2.44c0.276 0 0.5 0.224 0.5 0.5 0 0.276-0.224 0.5-0.5 0.5h-4c-0.217 0-0.41-0.14-0.476-0.347z" clip-rule="evenodd" fill="#333" fill-rule="evenodd"/>
 </g>
 <g id="built-up_Monastery">
  <rect width="300" height="35" fill="#121926"/>
  <path d="m150 7c5.52 0 10 4.45 10 10 0 5.52-4.49 10-10 10-5.51 0-10-4.48-10-10 0-5.55 4.49-10 10-10z" fill="#cecece" opacity=".953"/>
  <path d="m150 26c4.97 0 9-4.03 9-9s-4.03-9-9-9-9 4.03-9 9 4.03 9 9 9zm0 1c5.52 0 10-4.48 10-10s-4.48-10-10-10-10 4.48-10 10 4.48 10 10 10z" clip-rule="evenodd" fill="#e8e8e8" fill-rule="evenodd" opacity=".95"/>
  <path d="m148 14c0 0.552-0.448 1-1 1s-1-0.448-1-1 0.448-1 1-1 1 0.448 1 1z" fill="#333"/>
  <path d="m145 14.6c0.212-0.177 0.527-0.148 0.704 0.064l1.04 1.25 1.37-0.391c0.09-0.0256 0.182-0.0385 0.275-0.0385h0.091c0.409 0 0.777 0.249 0.929 0.629l0.724 1.81c0.175 0.439 0.019 0.941-0.374 1.2l-1.29 0.859h1.35c0.276 0 0.5 0.224 0.5 0.5s-0.224 0.5-0.5 0.5h-3c-0.22 0-0.415-0.144-0.479-0.355-0.063-0.211 0.018-0.439 0.202-0.561l1.99-1.32-0.728-2.09-1.1 0.313c-0.19 0.0543-0.394-0.0087-0.521-0.161l-1.25-1.5c-0.177-0.212-0.148-0.527 0.064-0.704z" fill="#333"/>
  <path d="m153 14c0 0.552-0.448 1-1 1s-1-0.448-1-1 0.448-1 1-1 1 0.448 1 1z" fill="#333"/>
  <path d="m150 14.6c0.212-0.177 0.527-0.148 0.704 0.064l1.04 1.25 1.37-0.391c0.09-0.0256 0.182-0.0385 0.275-0.0385h0.091c0.409 0 0.777 0.249 0.929 0.629l0.724 1.81c0.175 0.439 0.019 0.941-0.374 1.2l-1.29 0.859h1.35c0.276 0 0.5 0.224 0.5 0.5s-0.224 0.5-0.5 0.5h-3c-0.22 0-0.415-0.144-0.479-0.355-0.063-0.211 0.018-0.439 0.202-0.561l1.99-1.32-0.728-2.09-1.1 0.313c-0.19 0.0543-0.394-0.0087-0.521-0.161l-1.25-1.5c-0.177-0.212-0.148-0.527 0.064-0.704z" fill="#333"/>
 </g>
 <g id="built-up_WaterPark">
  <rect width="300" height="35" fill="#3b3b3b"/>
  <path d="m150 7c5.52 0 10 4.45 10 10 0 5.52-4.49 10-10 10-5.51 0-10-4.48-10-10 0-5.55 4.49-10 10-10z" fill="#2e702e" opacity=".953"/>
  <path d="m150 26c4.97 0 9-4.03 9-9s-4.03-9-9-9-9 4.03-9 9 4.03 9 9 9zm0 1c5.52 0 10-4.48 10-10s-4.48-10-10-10-10 4.48-10 10 4.48 10 10 10z" clip-rule="evenodd" fill="#44a544" fill-rule="evenodd" opacity=".95"/>
  <g clip-path="url(#clip0_210_2743)" fill="#fff">
   <path d="m148 11.8c-2.22 0-3.71 1-3.71 2.31 0 1.7 1.92 2.31 2.92 2.44 0 0 0.611-0.305 0.829-0.523-2.27-0.0436-2.83-1.09-2.83-1.09s0.697 0.741 3.23 0.785c0 0 0.305-0.305 0.436-0.436-2.4-0.0436-3.71-0.48-3.71-1.22 0-0.785 1.09-1.83 2.83-1.83 2.96 0 2.83 4.53-3.71 5.93 0 1.4 1.31 2.35 2.62 2.35 0.48 0 0.959-0.131 1.35-0.392 0 0 4.32-2.4 4.32-4.71 0-2.79-3.31-3.62-4.58-3.62zm0.48 6.5s-0.131 1.35-1.74 1.35c-1.22 0-1.61-0.959-1.61-0.959 4.97-1.53 6.15-5.32 4.4-6.32 3.14 0.698 2.7 4.66-1.05 5.93z"/>
   <path d="m153 15c1.26-0.654 2.18-2.44-0.872-3.27 0 0 2.62 0.131 2.62 2.18 0 1.74-1.09 2.53-2 2.88 0.218-0.305 0.305-0.916 0.305-0.916 1.05-0.698 1.26-1.7 1.26-1.7s-0.349 0.872-1.26 1.35c0 0 0.043-0.218-0.044-0.523z"/>
   <path d="m155 21.4c-0.349 0-0.916-0.0872-1.31-0.392-0.393 0.305-0.959 0.392-1.31 0.392s-0.916-0.0872-1.31-0.392c-0.392 0.305-0.959 0.392-1.31 0.392s-0.916-0.0872-1.31-0.392c-0.392 0.305-0.959 0.392-1.31 0.392s-0.915-0.0872-1.31-0.392c-0.392 0.305-0.959 0.392-1.31 0.392v0.785c0.741 0 1.05-0.174 1.31-0.392 0.393 0.305 0.959 0.392 1.31 0.392s0.916-0.0872 1.31-0.392c0.392 0.305 0.959 0.392 1.31 0.392s0.916-0.0872 1.31-0.392c0.392 0.305 0.959 0.392 1.31 0.392s0.915-0.0872 1.31-0.392c0.392 0.305 0.959 0.392 1.31 0.392z"/>
   <path d="m155 19.7c-0.349 0-0.916-0.0871-1.31-0.392-0.393 0.305-0.959 0.392-1.31 0.392s-0.916-0.0871-1.31-0.392c-0.218 0.174-0.436 0.262-0.698 0.305-0.261 0.218-1.22 0.785-1.22 0.785 0.218 0.0436 0.436 0.0872 0.61 0.0872 0.349 0 0.916-0.0872 1.31-0.392 0.392 0.305 0.959 0.392 1.31 0.392s0.915-0.0872 1.31-0.392c0.392 0.305 0.959 0.392 1.31 0.392z"/>
  </g>
  <defs>
   <clipPath id="clip0_210_2743">
    <rect transform="translate(144,11)" width="12" height="12" fill="#fff"/>
   </clipPath>
  </defs>
 </g>
 <g id="built-up_ThemePark">
  <rect x=".5" y=".5" width="299" height="34" fill="#3b3b3b" stroke="#734a08" stroke-dasharray="9, 9"/>
  <path d="m150 8c4.96 0 9 4 9 9 0 4.97-4.04 9-9 9-4.96 0-9-4.03-9-9 0-5 4.04-9 9-9z" fill="#673a1c" opacity=".953"/>
  <path d="m150 26c4.97 0 9-4.03 9-9s-4.03-9-9-9-9 4.03-9 9 4.03 9 9 9zm0 1c5.52 0 10-4.48 10-10s-4.48-10-10-10-10 4.48-10 10 4.48 10 10 10z" clip-rule="evenodd" fill="#9f5a2b" fill-rule="evenodd" opacity=".95"/>
  <g fill="#fff" opacity=".5">
   <path d="m146 13.2-0.5-0.167v8h0.5z"/>
   <path d="m148 21h0.5v-7.33l-0.5-0.167z"/>
   <path d="m149 14v7h0.5v-6.33z"/>
   <path d="m150 16v5h0.5v-4.33z"/>
   <path d="m152 18v3h0.5v-3z"/>
   <path d="m154 18v3h0.5v-3z"/>
  </g>
  <g fill="#fff" opacity=".3">
   <path d="m146 20h1v-0.5h-1z"/>
   <path d="m146 18.5h1v-0.5h-1z"/>
   <path d="m146 17h1v-0.5h-1z"/>
   <path d="m146 15.5h1v-0.5h-1z"/>
   <path d="m148 15v0.5h1v-0.5z"/>
   <path d="m149 16.5h-1v0.5h1z"/>
   <path d="m150 17v-0.5h1v0.5z"/>
   <path d="m149 18h-1v0.5h1z"/>
   <path d="m150 18.5v-0.5h1v0.5z"/>
   <path d="m149 19.5h-1v0.5h1z"/>
   <path d="m150 20v-0.5h1v0.5z"/>
   <path d="m151 20h1v-0.5h-1z"/>
   <path d="m151 18.5h1v-0.5h-1z"/>
   <path d="m154 19.5h-1v0.5h1z"/>
  </g>
  <path d="m149 14.7c-0.643-0.41-1.52-0.703-2.81-0.703v-1c1.46 0 2.52 0.332 3.35 0.86 0.819 0.522 1.36 1.21 1.81 1.85 0.11 0.158 0.213 0.31 0.312 0.455 0.317 0.468 0.588 0.867 0.923 1.19 0.402 0.389 0.875 0.641 1.6 0.641v1c-1.02 0-1.73-0.374-2.3-0.922-0.416-0.403-0.766-0.919-1.09-1.4-0.089-0.132-0.177-0.262-0.265-0.387-0.426-0.609-0.881-1.17-1.53-1.58z" clip-rule="evenodd" fill="#fff" fill-rule="evenodd"/>
  <g fill="#fff" opacity=".8">
   <path d="m152 13.5c0.091 0.104 0.249 0.115 0.353 0.0246 0.104-0.0905 0.115-0.248 0.025-0.353-0.091-0.104-0.249-0.115-0.353-0.0247s-0.115 0.248-0.025 0.353z"/>
   <path d="m152 14.3c0.091 0.104 0.249 0.115 0.353 0.0247 0.104-0.0906 0.115-0.248 0.025-0.353-0.091-0.104-0.249-0.115-0.353-0.0247s-0.115 0.248-0.025 0.353z"/>
   <path d="m151 13.7c0.09 0.104 0.079 0.262-0.025 0.353l-0.377 0.328-0.329-0.377 0.378-0.328c0.104-0.0905 0.262-0.0795 0.353 0.0247z"/>
   <path d="m152 14.8c0.104-0.0906 0.115-0.248 0.025-0.353-0.091-0.104-0.249-0.115-0.353-0.0247l-0.377 0.328 0.328 0.377z"/>
  </g>
  <path d="m151 13.4c0.083-0.0725 0.21-0.0637 0.282 0.0197l1.38 1.58c0.072 0.0834 0.064 0.21-0.02 0.282l-0.226 0.197c-0.209 0.181-0.524 0.159-0.706-0.0494l-0.984-1.13c-0.181-0.208-0.159-0.524 0.05-0.705z" fill="#fff"/>
 </g>
 <g id="built-up_Zoo">
  <rect width="300" height="35" fill="#1b3638"/>
  <path d="m150 8c4.96 0 9 4 9 9 0 4.97-4.04 9-9 9-4.96 0-9-4.03-9-9 0-5 4.04-9 9-9z" fill="#673a1c" opacity=".953"/>
  <path d="m150 26c4.97 0 9-4.03 9-9s-4.03-9-9-9-9 4.03-9 9 4.03 9 9 9zm0 1c5.52 0 10-4.48 10-10s-4.48-10-10-10-10 4.48-10 10 4.48 10 10 10z" clip-rule="evenodd" fill="#9f5a2b" fill-rule="evenodd" opacity=".95"/>
  <path d="m146 18.7c0.117 0.0345 0.403 0.0055 0.305-0.188-0.054-0.108-0.311-0.243-0.425-0.275-0.17-0.0484-0.457 0.162-0.238 0.296l-0.048 0.143c-0.183-0.0878-0.236-0.356-0.221-0.549 0.011-0.135 0.133-0.278 0.181-0.406 0.132-0.349 0.241-0.692 0.343-1.05 0.041-0.143 0.054-0.413 0.178-0.507 0.116-0.0883 0.295-0.101 0.426-0.166 0.096-0.0479 0.159-0.146 0.262-0.179 0.223-0.0687 0.442-0.051 0.549-0.293 0.225 0.34 0.413 0.657 0.45 1.07 0.027 0.296-0.175 0.6-0.243 0.882-0.048 0.198-0.033 0.399-0.085 0.596-0.065 0.246-0.192 0.473-0.253 0.716-0.037 0.146-4e-3 0.313-0.05 0.453-0.082 0.251-0.549 0.4-0.493 0.715 0.025 0.146 0.195 0.174 0.316 0.199 0.28 0.0574 0.582 0.022 0.858-0.0213 0.093-0.0145 0.204 0.0034 0.276-0.0686 0.174-0.174-0.031-0.502 0.025-0.705 0.04-0.146 0.178-0.273 0.25-0.406 0.157-0.288 0.29-0.592 0.38-0.906h0.024c5e-3 0.278 0.072 0.626 0.179 0.882 0.067 0.162 0.24 0.395 0.235 0.572-8e-3 0.304-0.468 0.503-0.247 0.858 0.222 0.358 0.747-0.0022 1.02-0.0651 0.153-0.0346 0.357 0.0106 0.432-0.174 0.103-0.255-0.106-0.496-0.142-0.738-0.04-0.277 0.012-0.556-0.039-0.835-0.037-0.204-0.203-0.442-0.198-0.644 4e-3 -0.142 0.105-0.31 0.138-0.453l0.906 0.426 0.382 0.218c2e-3 0.203-4e-3 0.445 0.032 0.644 0.017 0.0951 0.106 0.191 0.079 0.289-0.053 0.192-0.522 0.388-0.417 0.591 0.058 0.112 0.218 0.15 0.33 0.178 0.282 0.0725 1.02 0.181 1.23-0.0829 0.091-0.117 0.084-0.31 0.084-0.451 0-0.354 0.037-0.728-0.048-1.07 0.307 0.189 0.377 0.57 0.53 0.882 0.054 0.108 0.165 0.28 0.128 0.405-0.056 0.192-0.63 0.493-0.364 0.753 0.073 0.0721 0.207 0.0775 0.302 0.106 0.274 0.0834 1.11 0.22 1.24-0.144 0.121-0.34 0.09-0.94 6e-3 -1.29-0.05-0.204-0.165-0.382-0.185-0.596-0.019-0.198 0.118-0.397 0.133-0.596 0.02-0.277-0.066-0.52-0.074-0.787-6e-3 -0.172 0.052-0.348 0.052-0.525 0.262 0.694-0.012 1.44 0.178 2.15 0.028 0.103 0.039 0.685 0.244 0.626 0.078-0.022 0.1-0.156 0.085-0.221-0.068-0.283-0.19-0.534-0.191-0.835 0-0.15 0.068-0.304 0.085-0.453 0.099-0.882 0.237-2.11-0.52-2.76-0.338-0.288-0.704-0.499-1.07-0.738-0.289-0.187-0.585-0.405-0.93-0.48-0.253-0.0545-0.53 0.0261-0.787 0.0136-0.56-0.0272-1.11-0.133-1.67-0.186-0.254-0.0239-0.506 0.0251-0.763-0.0232-0.552-0.104-0.961-0.522-1.5-0.658-0.171-0.0433-0.468-0.0136-0.643 0.0172-0.166 0.029-0.254 0.145-0.382 0.237-0.375 0.266-0.865 0.694-1.07 1.11-0.127 0.258-0.141 0.604-0.222 0.883-0.119 0.406-0.345 0.744-0.412 1.17-0.07 0.445 0.037 0.912 0.037 1.36 0 0.336-0.188 0.747-0.068 1.07 0.167 0.456 1.06 0.606 1.12 0z" fill="#fff"/>
 </g>
 <g id="built-up_ClimbingCrag">
  <rect width="300" height="35" fill="#1b3638"/>
  <path d="m150 7c5.52 0 10 4.45 10 10 0 5.52-4.49 10-10 10-5.51 0-10-4.48-10-10 0-5.55 4.49-10 10-10z" fill="#2e702e" opacity=".953"/>
  <path d="m150 26c4.97 0 9-4.03 9-9s-4.03-9-9-9-9 4.03-9 9 4.03 9 9 9zm0 1c5.52 0 10-4.48 10-10s-4.48-10-10-10-10 4.48-10 10 4.48 10 10 10z" clip-rule="evenodd" fill="#44a544" fill-rule="evenodd" opacity=".95"/>
  <path d="m149 18.5 0.23 1.46c0.033 0.243 0.179 0.385 0.438 0.425 0.178 0.0245 0.334-0.0261 0.468-0.152s0.188-0.278 0.164-0.456l-0.28-1.76c-0.032-0.186-0.133-0.316-0.303-0.389l-1.26-0.571 0.802-1.4 0.401 0.51c0.032 0.0487 0.081 0.0852 0.146 0.109l1.52 0.438c0.04 0.0161 0.077 0.0241 0.109 0.0241 0.114 0 0.211-0.0446 0.292-0.134s0.122-0.19 0.122-0.304c0-0.202-0.098-0.336-0.292-0.401l-1.31-0.389-0.996-1.2c-0.138-0.162-0.333-0.263-0.584-0.304-0.437-0.0648-0.765 0.0892-0.984 0.462l-1.11 1.91c-0.073 0.122-0.106 0.272-0.097 0.45l0.036 2.42-0.839 1.8c-0.032 0.0729-0.052 0.134-0.06 0.182-0.025 0.154 8e-3 0.29 0.097 0.407 0.089 0.117 0.211 0.188 0.365 0.213 0.259 0.0403 0.441-0.0489 0.546-0.268l0.924-1.97c0.033-0.0729 0.049-0.15 0.049-0.231l-0.012-1.5zm5.15-6.05-0.499 2.26-0.85 0.352-0.742 2.08 0.705 1.59-0.194 0.62-1.64 0.486-0.097 0.729-2.61 0.644 0.024 0.437h6.38c0.113 0 0.208-0.0384 0.285-0.115s0.116-0.172 0.116-0.286v-8.6zm-5 1.45c0.218 0 0.409-0.079 0.571-0.237s0.243-0.35 0.243-0.577c0-0.219-0.081-0.409-0.243-0.571s-0.353-0.243-0.571-0.243c-0.227 0-0.42 0.081-0.578 0.243s-0.237 0.352-0.237 0.571c0 0.227 0.079 0.419 0.237 0.577s0.351 0.237 0.578 0.237zm-2.84 2.22 1.22-2.09c0.081-0.138 0.053-0.243-0.085-0.316l-0.389-0.231c-0.138-0.0808-0.243-0.0524-0.316 0.0853l-1.22 2.09c-0.08 0.138-0.052 0.243 0.086 0.316l0.389 0.231c0.137 0.0811 0.243 0.0528 0.316-0.085z" fill="#fff"/>
 </g>
 <g id="built-up_landuseAllotmentsColor">
  <rect width="300" height="35" fill="#1b3638"/>
 </g>
 <g id="built-up_CityWall">
  <rect x="3" y="3" width="294" height="29" fill="#744" fill-opacity=".27" stroke="#885454" stroke-width="6"/>
 </g>
 <g id="built-up_Fountain">
  <rect x="1" y="1" width="298" height="33" stroke="#7479ec" stroke-width="2"/>
  <path d="m152 14c0.552 0 1 0.448 1 1v0.5c0 0.276 0.224 0.5 0.5 0.5s0.5-0.224 0.5-0.5v-0.5c0-1.1-0.895-2-2-2s-2 0.895-2 2v1.17c-0.227-0.108-0.482-0.168-0.75-0.168-0.966 0-1.75 0.784-1.75 1.75v0.25c0 0.276 0.224 0.5 0.5 0.5s0.5-0.224 0.5-0.5v-0.25c0-0.414 0.336-0.75 0.75-0.75s0.75 0.336 0.75 0.75v2.25h-1.5c-1.1 0-2 0.895-2 2h8c0-1.1-0.895-2-2-2h-1.5v-5c0-0.552 0.448-1 1-1z" fill="#3f8fd4"/>
  <path d="m148 14c0-0.552 0.448-1 1-1s1 0.448 1 1v6h1.5v-1.5c0-0.276 0.224-0.5 0.5-0.5s0.5 0.224 0.5 0.5v0.5c0 0.276 0.224 0.5 0.5 0.5s0.5-0.224 0.5-0.5v-0.5c0-0.828-0.672-1.5-1.5-1.5-0.384 0-0.735 0.144-1 0.382v-3.38c0-1.1-0.895-2-2-2s-2 0.895-2 2v0.5c0 0.276 0.224 0.5 0.5 0.5s0.5-0.224 0.5-0.5z" fill="#3f8fd4" opacity=".5"/>
 </g>
 <g id="built-up_amenityCinema">
  <rect width="300" height="35" fill="#3b3b3b"/>
  <path d="m150 8c4.96 0 9 4 9 9 0 4.97-4.04 9-9 9-4.96 0-9-4.03-9-9 0-5 4.04-9 9-9z" fill="#673a1c" opacity=".953"/>
  <path d="m150 26c4.97 0 9-4.03 9-9s-4.03-9-9-9-9 4.03-9 9 4.03 9 9 9zm0 1c5.52 0 10-4.48 10-10s-4.48-10-10-10-10 4.48-10 10 4.48 10 10 10z" clip-rule="evenodd" fill="#9f5a2b" fill-rule="evenodd" opacity=".95"/>
  <path d="m154 13h-8v8h8zm-6 8h-1v-1h1zm4-7h1v1h-1zm0 2h1v1h-1zm1 2h-1v1h1zm-1 2h1v1h-1zm-4-6h-1v1h1zm0 2h-1v1h1zm-1 2h1v1h-1z" clip-rule="evenodd" fill="#fff" fill-rule="evenodd"/>
 </g>
 <g id="built-up_amenityHospital">
  <rect width="300" height="35" fill="#3b3b3b"/>
  <path d="m150 8c4.96 0 9 4 9 9 0 4.97-4.04 9-9 9-4.96 0-9-4.03-9-9 0-5 4.04-9 9-9z" fill="#b72a5c" opacity=".954"/>
  <path d="m150 26c4.97 0 9-4.03 9-9s-4.03-9-9-9-9 4.03-9 9 4.03 9 9 9zm0 1c5.52 0 10-4.48 10-10s-4.48-10-10-10-10 4.48-10 10 4.48 10 10 10z" clip-rule="evenodd" fill="#db628d" fill-rule="evenodd" opacity=".95"/>
  <g fill="#fff" opacity=".5">
   <path d="m145 15h3v7h-3zm1 1h1v2h-1zm1 3h-1v2h1z" clip-rule="evenodd" fill-rule="evenodd"/>
   <path d="m155 22h-3v-7h3zm-2-6h1v2h-1zm0 3h1v2h-1z" clip-rule="evenodd" fill-rule="evenodd"/>
   <path d="m151 19h-2v3h2z"/>
  </g>
  <path d="m153 12h-6v10h2v-3h2v3h2zm-3.5 2v-1h1v1h1v1h-1v1h-1v-1h-1v-1z" clip-rule="evenodd" fill="#fff" fill-rule="evenodd"/>
 </g>
 <g id="built-up_SocialFacility">
  <rect width="300" height="35" fill="#3b3b3b"/>
  <path d="m150 8c4.96 0 9 4 9 9 0 4.97-4.04 9-9 9-4.96 0-9-4.03-9-9 0-5 4.04-9 9-9z" fill="#b72a5c" opacity=".954"/>
  <path d="m150 26c4.97 0 9-4.03 9-9s-4.03-9-9-9-9 4.03-9 9 4.03 9 9 9zm0 1c5.52 0 10-4.48 10-10s-4.48-10-10-10-10 4.48-10 10 4.48 10 10 10z" clip-rule="evenodd" fill="#db628d" fill-rule="evenodd" opacity=".95"/>
  <path d="m154 22h-9v-1h9z" clip-rule="evenodd" fill="#fff" fill-rule="evenodd" opacity=".2"/>
  <path d="m150 10.9-5 2.78v8.29h1v-7.71l4-2.22 4 2.22v7.71h1v-8.29z" fill="#fff"/>
  <path d="m151 14c0 0.552-0.448 1-1 1s-1-0.448-1-1c0-0.552 0.448-1 1-1s1 0.448 1 1z" fill="#fff"/>
  <path d="m150 15.5c0.471 0 0.867 0.326 0.972 0.765l0.589 0.588c0.093 0.0938 0.221 0.146 0.353 0.146h0.586c0.276 0 0.5 0.224 0.5 0.5 0 0.276-0.224 0.5-0.5 0.5h-0.586c-0.332 0-0.653-0.11-0.914-0.311v0.811h0.5c0.167 0 0.323 0.0835 0.416 0.223l0.852 1.28h0.232c0.276 0 0.5 0.224 0.5 0.5 0 0.276-0.224 0.5-0.5 0.5h-0.5c-0.167 0-0.323-0.0836-0.416-0.223l-0.852-1.28h-1.23c-0.552 0-1-0.448-1-1v-2c0-0.552 0.448-1 1-1z" fill="#fff"/>
  <path d="m148 17c-1.14 0.232-2 1.24-2 2.45 0 1.38 1.12 2.5 2.5 2.5 1.01 0 1.88-0.596 2.27-1.46l-0.272-0.544h-0.585c-0.206 0.583-0.762 1-1.42 1-0.828 0-1.5-0.672-1.5-1.5 0-0.653 0.417-1.21 1-1.41z" fill="#fff"/>
 </g>
 <g id="built-up_LandFill">
  <rect width="300" height="35" fill="#3b3b3b"/>
  <path d="m151 20.2-2-4 0.894-0.447 2 4z" clip-rule="evenodd" fill="#7fb837" fill-rule="evenodd" opacity=".5"/>
  <path d="m144 16.9c-0.101-0.16-0.155-0.345-0.155-0.534v-0.171c0-0.337 0.17-0.651 0.451-0.836l3.3-2.17c0.163-0.107 0.354-0.164 0.549-0.164h0.166c0.334 0 0.646 0.167 0.832 0.445l1.54 2.3c0.11 0.164 0.168 0.357 0.168 0.555v0.162c0 0.334-0.167 0.647-0.445 0.832l-2.56 1.7h-1.4c-0.686 0-1.32-0.352-1.69-0.932z" fill="#7fb837"/>
  <path d="m152 19h-5.5c-0.552 0-1 0.448-1 1v1h0.5c0 0.552 0.448 1 1 1s1-0.448 1-1h5c0 0.552 0.448 1 1 1s1-0.448 1-1h1v-2.5l-1.78-2.5h-2.22zm1-2h0.706l1.07 1.5h-1.77z" clip-rule="evenodd" fill="#7fb837" fill-rule="evenodd"/>
 </g>
 <g id="built-up_spoilHeapColor">
  <rect width="300" height="35" fill="#66101e" fill-opacity=".13"/>
 </g>
 <g id="built-up_landuseConstructionColor">
  <rect x=".5" y=".5" width="299" height="34" stroke="#2d535c" stroke-dasharray="8, 4"/>
 </g>
 <g id="built-up_Prison">
  <rect x=".5" y=".5" width="299" height="34" fill="#3b3b3b" stroke="#555"/>
  <path d="m150 8c5.52 0 10 4.45 10 10 0 5.52-4.49 10-10 10-5.51 0-10-4.48-10-10 0-5.55 4.49-10 10-10z" fill="#505050" opacity=".953"/>
  <path d="m150 27c4.97 0 9-4.03 9-9s-4.03-9-9-9-9 4.03-9 9 4.03 9 9 9zm0 1c5.52 0 10-4.48 10-10s-4.48-10-10-10-10 4.48-10 10 4.48 10 10 10z" clip-rule="evenodd" fill="#909090" fill-rule="evenodd" opacity=".95"/>
  <g fill="#fff" opacity=".5">
   <path d="m152 14.5c0 0.828-0.672 1.5-1.5 1.5s-1.5-0.672-1.5-1.5 0.672-1.5 1.5-1.5 1.5 0.672 1.5 1.5z"/>
   <path d="m148 18.2-1.65 1.65c-0.114 0.114-0.275 0.166-0.434 0.14-0.159-0.0257-0.295-0.126-0.367-0.27l-1-2c-0.124-0.247-0.024-0.547 0.223-0.671s0.548-0.0234 0.671 0.224l0.69 1.38 1.51-1.51c0.263-0.262 0.924-0.646 1.85-0.646s1.59 0.384 1.85 0.646l1.51 1.51 0.69-1.38c0.123-0.247 0.424-0.347 0.671-0.224s0.347 0.424 0.223 0.671l-1 2c-0.072 0.144-0.208 0.244-0.367 0.27-0.159 0.0258-0.32-0.0263-0.434-0.14l-1.65-1.65v4.79h-3z" clip-rule="evenodd" fill-rule="evenodd"/>
  </g>
  <path d="m145 13.5c0-0.276-0.224-0.5-0.5-0.5s-0.5 0.224-0.5 0.5v9c0 0.276 0.224 0.5 0.5 0.5s0.5-0.224 0.5-0.5zm2.5-0.5c0.276 0 0.5 0.224 0.5 0.5v9c0 0.276-0.224 0.5-0.5 0.5s-0.5-0.224-0.5-0.5v-9c0-0.276 0.224-0.5 0.5-0.5zm3 0.5c0-0.276-0.224-0.5-0.5-0.5s-0.5 0.224-0.5 0.5v9c0 0.276 0.224 0.5 0.5 0.5s0.5-0.224 0.5-0.5zm2-0.5c0.276 0 0.5 0.224 0.5 0.5v9c0 0.276-0.224 0.5-0.5 0.5s-0.5-0.224-0.5-0.5v-9c0-0.276 0.224-0.5 0.5-0.5zm3 0c0.276 0 0.5 0.224 0.5 0.5v9c0 0.276-0.224 0.5-0.5 0.5s-0.5-0.224-0.5-0.5v-9c0-0.276 0.224-0.5 0.5-0.5z" clip-rule="evenodd" fill="#fff" fill-rule="evenodd"/>
  <path d="m156 19c0.276 0 0.5-0.224 0.5-0.5s-0.224-0.5-0.5-0.5h-10.8c-0.276 0-0.5 0.224-0.5 0.5s0.224 0.5 0.5 0.5zm-0.1 3c0.276 0 0.5-0.224 0.5-0.5s-0.224-0.5-0.5-0.5h-10.8c-0.276 0-0.5 0.224-0.5 0.5s0.224 0.5 0.5 0.5z" clip-rule="evenodd" fill="#fff" fill-rule="evenodd" opacity=".8"/>
 </g>
 <g id="built-up_landuseQuarry">
  <g clip-path="url(#clip0_236_9420)">
   <rect width="300" height="35" fill="#585858"/>
   <path d="m12.8 9.31c-0.576 0.142-1.37-0.138-1.78 0.394-0.142 0.633 0.526 1.32 1.17 1.12 0.66 0.0207 1.44 0.264 2.01-0.196-0.0824-0.61-0.725-0.934-1.17-1.27-0.0701-0.0276-0.143-0.0517-0.22-0.0431z" stroke="#fff" stroke-linecap="round" stroke-linejoin="round" stroke-opacity=".439" stroke-width=".665"/>
   <path d="m15.4 23.3c-0.576 0.142-1.37-0.138-1.78 0.394-0.142 0.633 0.526 1.32 1.17 1.12 0.66 0.0207 1.44 0.264 2.01-0.196-0.0824-0.61-0.725-0.934-1.17-1.27-0.0701-0.0276-0.143-0.0517-0.22-0.0431z" stroke="#fff" stroke-linecap="round" stroke-linejoin="round" stroke-opacity=".439" stroke-width=".665"/>
   <path d="m24 19c-0.531 0.127-1.2-0.134-1.62 0.303-0.0829 0.585 0.548 1.07 1.1 0.893 0.577 0.0173 1.27 0.239 1.76-0.124-0.18-0.52-0.724-0.835-1.17-1.08-0.0241 8e-4 -0.0441-0.0207-0.0669 0.0108z" stroke="#fff" stroke-linecap="round" stroke-linejoin="round" stroke-opacity=".439" stroke-width=".665"/>
   <path d="m12.8 18.4c-0.212-0.0242-0.268 0.136-0.074 0.217 0.398 0.17 0.85-0.0275 1.27 0.107 0.33 0.0832 0.153-0.0843-0.0207-0.186-0.34-0.245-0.778-0.0757-1.17-0.138z" stroke="#fff" stroke-linecap="round" stroke-linejoin="round" stroke-opacity=".439" stroke-width=".665"/>
   <path d="m26.1 26.8c-0.682 0.116-1.65-0.125-2.05 0.609-0.243 0.849 0.677 1.75 1.52 1.52 0.727 0.0564 1.72 0.28 2.21-0.42 0.0567-0.828-0.807-1.3-1.41-1.67-0.0863-0.0241-0.178-0.0386-0.268-0.031z" stroke="#fff" stroke-linecap="round" stroke-linejoin="round" stroke-opacity=".439" stroke-width=".665"/>
   <path d="m18.9 30.7c-0.212-0.0241-0.268 0.136-0.0738 0.217 0.398 0.169 0.85-0.0276 1.27 0.107 0.33 0.0832 0.153-0.0842-0.0207-0.186-0.34-0.245-0.778-0.0752-1.17-0.138z" stroke="#fff" stroke-linecap="round" stroke-linejoin="round" stroke-opacity=".439" stroke-width=".665"/>
   <path d="m7.57 21.5c-0.396 0.0936-0.927-0.136-1.24 0.157 0.0874 0.438 0.618 0.5 0.979 0.411 0.352 3e-3 0.867 0.171 1.13 0.0108-0.218-0.257-0.532-0.534-0.872-0.58z" stroke="#fff" stroke-linecap="round" stroke-linejoin="round" stroke-opacity=".439" stroke-width=".665"/>
   <path d="m5.73 27.5c-0.531 0.127-1.2-0.134-1.62 0.303-0.0829 0.585 0.548 1.07 1.1 0.893 0.577 0.0173 1.27 0.238 1.76-0.124-0.18-0.52-0.724-0.835-1.17-1.08-0.0241 7e-4 -0.0442-0.0207-0.067 0.0108z" stroke="#fff" stroke-linecap="round" stroke-linejoin="round" stroke-opacity=".439" stroke-width=".665"/>
   <path d="m2.67 13.5c-0.683 0.116-1.65-0.125-2.05 0.609-0.243 0.849 0.677 1.75 1.52 1.52 0.727 0.0564 1.72 0.28 2.21-0.42 0.0567-0.828-0.807-1.3-1.41-1.67-0.0863-0.0241-0.177-0.0386-0.268-0.031z" stroke="#fff" stroke-linecap="round" stroke-linejoin="round" stroke-opacity=".439" stroke-width=".665"/>
   <path d="m29.3 15.6c-0.396 0.0936-0.927-0.136-1.24 0.158 0.0874 0.437 0.618 0.5 0.979 0.411 0.352 3e-3 0.867 0.171 1.13 0.0108-0.218-0.256-0.532-0.534-0.872-0.58z" stroke="#fff" stroke-linecap="round" stroke-linejoin="round" stroke-opacity=".439" stroke-width=".665"/>
   <path d="m18.1 1.59c-0.683 0.116-1.65-0.125-2.05 0.609-0.243 0.849 0.677 1.75 1.52 1.52 0.727 0.0564 1.72 0.28 2.21-0.42 0.0567-0.828-0.807-1.3-1.41-1.67-0.0863-0.0241-0.177-0.0386-0.268-0.031z" stroke="#fff" stroke-linecap="round" stroke-linejoin="round" stroke-opacity=".439" stroke-width=".665"/>
   <path d="m27.5 6.64c-0.212-0.0241-0.268 0.136-0.0738 0.217 0.398 0.169 0.85-0.0276 1.27 0.107 0.33 0.0832 0.153-0.0842-0.0207-0.186-0.34-0.245-0.778-0.0757-1.17-0.139z" stroke="#fff" stroke-linecap="round" stroke-linejoin="round" stroke-opacity=".439" stroke-width=".665"/>
   <path d="m7.32 4.3c-0.396 0.0936-0.927-0.136-1.24 0.157 0.0874 0.437 0.618 0.5 0.979 0.411 0.352 3e-3 0.867 0.171 1.13 0.0108-0.218-0.257-0.532-0.534-0.872-0.58z" stroke="#fff" stroke-linecap="round" stroke-linejoin="round" stroke-opacity=".439" stroke-width=".665"/>
   <path d="m21.7 13.7c-0.212-0.0241-0.268 0.136-0.0738 0.217 0.398 0.169 0.85-0.0276 1.27 0.107 0.33 0.0832 0.153-0.0843-0.0207-0.186-0.34-0.245-0.778-0.0757-1.17-0.138z" stroke="#fff" stroke-linecap="round" stroke-linejoin="round" stroke-opacity=".439" stroke-width=".665"/>
   <path d="m44.8 9.31c-0.576 0.142-1.37-0.138-1.78 0.394-0.142 0.633 0.526 1.32 1.17 1.12 0.66 0.0207 1.44 0.264 2.01-0.196-0.0824-0.61-0.725-0.934-1.17-1.27-0.0701-0.0276-0.143-0.0517-0.22-0.0431z" stroke="#fff" stroke-linecap="round" stroke-linejoin="round" stroke-opacity=".439" stroke-width=".665"/>
   <path d="m47.4 23.3c-0.576 0.142-1.37-0.138-1.78 0.394-0.142 0.633 0.526 1.32 1.17 1.12 0.66 0.0207 1.44 0.264 2.01-0.196-0.0824-0.61-0.725-0.934-1.17-1.27-0.0701-0.0276-0.143-0.0517-0.22-0.0431z" stroke="#fff" stroke-linecap="round" stroke-linejoin="round" stroke-opacity=".439" stroke-width=".665"/>
   <path d="m56 19c-0.531 0.127-1.2-0.134-1.62 0.303-0.0829 0.585 0.548 1.07 1.1 0.893 0.577 0.0173 1.27 0.239 1.76-0.124-0.18-0.52-0.724-0.835-1.17-1.08-0.0241 8e-4 -0.0441-0.0207-0.0669 0.0108z" stroke="#fff" stroke-linecap="round" stroke-linejoin="round" stroke-opacity=".439" stroke-width=".665"/>
   <path d="m44.8 18.4c-0.212-0.0242-0.268 0.136-0.074 0.217 0.398 0.17 0.85-0.0275 1.27 0.107 0.33 0.0832 0.153-0.0843-0.0207-0.186-0.34-0.245-0.778-0.0757-1.17-0.138z" stroke="#fff" stroke-linecap="round" stroke-linejoin="round" stroke-opacity=".439" stroke-width=".665"/>
   <path d="m58.1 26.8c-0.682 0.116-1.65-0.125-2.05 0.609-0.243 0.849 0.677 1.75 1.52 1.52 0.727 0.0564 1.72 0.28 2.21-0.42 0.0567-0.828-0.807-1.3-1.41-1.67-0.0863-0.0241-0.178-0.0386-0.268-0.031z" stroke="#fff" stroke-linecap="round" stroke-linejoin="round" stroke-opacity=".439" stroke-width=".665"/>
   <path d="m50.9 30.7c-0.212-0.0241-0.268 0.136-0.0738 0.217 0.398 0.169 0.85-0.0276 1.27 0.107 0.33 0.0832 0.153-0.0842-0.0207-0.186-0.34-0.245-0.778-0.0752-1.17-0.138z" stroke="#fff" stroke-linecap="round" stroke-linejoin="round" stroke-opacity=".439" stroke-width=".665"/>
   <path d="m39.6 21.5c-0.396 0.0936-0.927-0.136-1.24 0.157 0.0874 0.438 0.618 0.5 0.979 0.411 0.352 3e-3 0.867 0.171 1.13 0.0108-0.218-0.257-0.532-0.534-0.872-0.58z" stroke="#fff" stroke-linecap="round" stroke-linejoin="round" stroke-opacity=".439" stroke-width=".665"/>
   <path d="m37.7 27.5c-0.531 0.127-1.2-0.134-1.62 0.303-0.0829 0.585 0.548 1.07 1.1 0.893 0.577 0.0173 1.27 0.238 1.76-0.124-0.18-0.52-0.724-0.835-1.17-1.08-0.0241 7e-4 -0.0442-0.0207-0.067 0.0108z" stroke="#fff" stroke-linecap="round" stroke-linejoin="round" stroke-opacity=".439" stroke-width=".665"/>
   <path d="m34.7 13.5c-0.683 0.116-1.65-0.125-2.05 0.609-0.243 0.849 0.677 1.75 1.52 1.52 0.727 0.0564 1.72 0.28 2.21-0.42 0.0567-0.828-0.807-1.3-1.41-1.67-0.0863-0.0241-0.178-0.0386-0.268-0.031z" stroke="#fff" stroke-linecap="round" stroke-linejoin="round" stroke-opacity=".439" stroke-width=".665"/>
   <path d="m61.3 15.6c-0.396 0.0936-0.927-0.136-1.24 0.158 0.0874 0.437 0.618 0.5 0.979 0.411 0.352 3e-3 0.867 0.171 1.13 0.0108-0.218-0.256-0.532-0.534-0.872-0.58z" stroke="#fff" stroke-linecap="round" stroke-linejoin="round" stroke-opacity=".439" stroke-width=".665"/>
   <path d="m50.1 1.59c-0.683 0.116-1.65-0.125-2.05 0.609-0.243 0.849 0.677 1.75 1.52 1.52 0.727 0.0564 1.72 0.28 2.21-0.42 0.0567-0.828-0.807-1.3-1.41-1.67-0.0863-0.0241-0.177-0.0386-0.268-0.031z" stroke="#fff" stroke-linecap="round" stroke-linejoin="round" stroke-opacity=".439" stroke-width=".665"/>
   <path d="m59.5 6.64c-0.212-0.0241-0.268 0.136-0.0738 0.217 0.398 0.169 0.85-0.0276 1.27 0.107 0.33 0.0832 0.153-0.0842-0.0207-0.186-0.34-0.245-0.778-0.0757-1.17-0.139z" stroke="#fff" stroke-linecap="round" stroke-linejoin="round" stroke-opacity=".439" stroke-width=".665"/>
   <path d="m39.3 4.3c-0.396 0.0936-0.927-0.136-1.24 0.157 0.0874 0.437 0.618 0.5 0.979 0.411 0.352 3e-3 0.867 0.171 1.13 0.0108-0.218-0.257-0.532-0.534-0.872-0.58z" stroke="#fff" stroke-linecap="round" stroke-linejoin="round" stroke-opacity=".439" stroke-width=".665"/>
   <path d="m53.7 13.7c-0.212-0.0241-0.268 0.136-0.0738 0.217 0.398 0.169 0.85-0.0276 1.27 0.107 0.33 0.0832 0.153-0.0843-0.0207-0.186-0.34-0.245-0.778-0.0757-1.17-0.138z" stroke="#fff" stroke-linecap="round" stroke-linejoin="round" stroke-opacity=".439" stroke-width=".665"/>
   <path d="m76.8 9.31c-0.576 0.142-1.37-0.138-1.78 0.394-0.142 0.633 0.526 1.32 1.17 1.12 0.66 0.0207 1.44 0.264 2.01-0.196-0.0824-0.61-0.725-0.934-1.17-1.27-0.0701-0.0276-0.143-0.0517-0.22-0.0431z" stroke="#fff" stroke-linecap="round" stroke-linejoin="round" stroke-opacity=".439" stroke-width=".665"/>
   <path d="m79.4 23.3c-0.576 0.142-1.37-0.138-1.78 0.394-0.142 0.633 0.526 1.32 1.17 1.12 0.66 0.0207 1.44 0.264 2.01-0.196-0.0824-0.61-0.725-0.934-1.17-1.27-0.0701-0.0276-0.143-0.0517-0.22-0.0431z" stroke="#fff" stroke-linecap="round" stroke-linejoin="round" stroke-opacity=".439" stroke-width=".665"/>
   <path d="m88 19c-0.531 0.127-1.2-0.134-1.62 0.303-0.0829 0.585 0.548 1.07 1.1 0.893 0.577 0.0173 1.27 0.239 1.76-0.124-0.18-0.52-0.724-0.835-1.17-1.08-0.0241 8e-4 -0.0441-0.0207-0.0669 0.0108z" stroke="#fff" stroke-linecap="round" stroke-linejoin="round" stroke-opacity=".439" stroke-width=".665"/>
   <path d="m76.8 18.4c-0.212-0.0242-0.268 0.136-0.074 0.217 0.398 0.17 0.85-0.0275 1.27 0.107 0.33 0.0832 0.153-0.0843-0.0207-0.186-0.34-0.245-0.778-0.0757-1.17-0.138z" stroke="#fff" stroke-linecap="round" stroke-linejoin="round" stroke-opacity=".439" stroke-width=".665"/>
   <path d="m90.1 26.8c-0.682 0.116-1.65-0.125-2.05 0.609-0.243 0.849 0.677 1.75 1.52 1.52 0.727 0.0564 1.72 0.28 2.21-0.42 0.0567-0.828-0.807-1.3-1.41-1.67-0.0863-0.0241-0.178-0.0386-0.268-0.031z" stroke="#fff" stroke-linecap="round" stroke-linejoin="round" stroke-opacity=".439" stroke-width=".665"/>
   <path d="m82.9 30.7c-0.212-0.0241-0.268 0.136-0.0738 0.217 0.398 0.169 0.85-0.0276 1.27 0.107 0.33 0.0832 0.153-0.0842-0.0207-0.186-0.34-0.245-0.778-0.0752-1.17-0.138z" stroke="#fff" stroke-linecap="round" stroke-linejoin="round" stroke-opacity=".439" stroke-width=".665"/>
   <path d="m71.6 21.5c-0.396 0.0936-0.927-0.136-1.24 0.157 0.0874 0.438 0.618 0.5 0.979 0.411 0.352 3e-3 0.867 0.171 1.13 0.0108-0.218-0.257-0.532-0.534-0.872-0.58z" stroke="#fff" stroke-linecap="round" stroke-linejoin="round" stroke-opacity=".439" stroke-width=".665"/>
   <path d="m69.7 27.5c-0.531 0.127-1.2-0.134-1.62 0.303-0.0829 0.585 0.548 1.07 1.1 0.893 0.577 0.0173 1.27 0.238 1.76-0.124-0.18-0.52-0.724-0.835-1.17-1.08-0.0241 7e-4 -0.0442-0.0207-0.067 0.0108z" stroke="#fff" stroke-linecap="round" stroke-linejoin="round" stroke-opacity=".439" stroke-width=".665"/>
   <path d="m66.7 13.5c-0.683 0.116-1.65-0.125-2.05 0.609-0.243 0.849 0.677 1.75 1.52 1.52 0.727 0.0564 1.72 0.28 2.21-0.42 0.0567-0.828-0.807-1.3-1.41-1.67-0.0863-0.0241-0.178-0.0386-0.268-0.031z" stroke="#fff" stroke-linecap="round" stroke-linejoin="round" stroke-opacity=".439" stroke-width=".665"/>
   <path d="m93.3 15.6c-0.396 0.0936-0.927-0.136-1.24 0.158 0.0874 0.437 0.618 0.5 0.979 0.411 0.352 3e-3 0.867 0.171 1.13 0.0108-0.218-0.256-0.532-0.534-0.872-0.58z" stroke="#fff" stroke-linecap="round" stroke-linejoin="round" stroke-opacity=".439" stroke-width=".665"/>
   <path d="m82.1 1.59c-0.683 0.116-1.65-0.125-2.05 0.609-0.243 0.849 0.677 1.75 1.52 1.52 0.727 0.0564 1.72 0.28 2.21-0.42 0.0567-0.828-0.807-1.3-1.41-1.67-0.0863-0.0241-0.177-0.0386-0.268-0.031z" stroke="#fff" stroke-linecap="round" stroke-linejoin="round" stroke-opacity=".439" stroke-width=".665"/>
   <path d="m91.5 6.64c-0.212-0.0241-0.268 0.136-0.0738 0.217 0.398 0.169 0.85-0.0276 1.27 0.107 0.33 0.0832 0.153-0.0842-0.0207-0.186-0.34-0.245-0.778-0.0757-1.17-0.139z" stroke="#fff" stroke-linecap="round" stroke-linejoin="round" stroke-opacity=".439" stroke-width=".665"/>
   <path d="m71.3 4.3c-0.396 0.0936-0.927-0.136-1.24 0.157 0.0874 0.437 0.618 0.5 0.979 0.411 0.352 3e-3 0.867 0.171 1.13 0.0108-0.218-0.257-0.532-0.534-0.872-0.58z" stroke="#fff" stroke-linecap="round" stroke-linejoin="round" stroke-opacity=".439" stroke-width=".665"/>
   <path d="m85.7 13.7c-0.212-0.0241-0.268 0.136-0.0738 0.217 0.398 0.169 0.85-0.0276 1.27 0.107 0.33 0.0832 0.153-0.0843-0.0207-0.186-0.34-0.245-0.778-0.0757-1.17-0.138z" stroke="#fff" stroke-linecap="round" stroke-linejoin="round" stroke-opacity=".439" stroke-width=".665"/>
   <path d="m109 9.31c-0.577 0.142-1.37-0.138-1.78 0.394-0.142 0.633 0.525 1.32 1.16 1.12 0.661 0.0207 1.44 0.264 2.01-0.196-0.082-0.61-0.725-0.934-1.17-1.27-0.07-0.0276-0.143-0.0517-0.219-0.0431z" stroke="#fff" stroke-linecap="round" stroke-linejoin="round" stroke-opacity=".439" stroke-width=".665"/>
   <path d="m111 23.3c-0.577 0.142-1.36-0.138-1.78 0.394-0.142 0.633 0.526 1.32 1.16 1.12 0.661 0.0207 1.44 0.264 2.01-0.196-0.083-0.61-0.726-0.934-1.17-1.27-0.071-0.0276-0.144-0.0517-0.22-0.0431z" stroke="#fff" stroke-linecap="round" stroke-linejoin="round" stroke-opacity=".439" stroke-width=".665"/>
   <path d="m120 19c-0.531 0.127-1.2-0.134-1.62 0.303-0.083 0.585 0.548 1.07 1.1 0.893 0.577 0.0173 1.27 0.239 1.76-0.124-0.179-0.52-0.724-0.835-1.17-1.08-0.024 8e-4 -0.044-0.0207-0.067 0.0108z" stroke="#fff" stroke-linecap="round" stroke-linejoin="round" stroke-opacity=".439" stroke-width=".665"/>
   <path d="m109 18.4c-0.212-0.0242-0.268 0.136-0.074 0.217 0.398 0.17 0.85-0.0275 1.26 0.107 0.331 0.0832 0.154-0.0843-0.02-0.186-0.341-0.245-0.778-0.0757-1.17-0.138z" stroke="#fff" stroke-linecap="round" stroke-linejoin="round" stroke-opacity=".439" stroke-width=".665"/>
   <path d="m122 26.8c-0.683 0.116-1.65-0.125-2.05 0.609-0.244 0.849 0.677 1.75 1.52 1.52 0.727 0.0564 1.72 0.28 2.21-0.42 0.057-0.828-0.807-1.3-1.41-1.67-0.086-0.0241-0.177-0.0386-0.268-0.031z" stroke="#fff" stroke-linecap="round" stroke-linejoin="round" stroke-opacity=".439" stroke-width=".665"/>
   <path d="m115 30.7c-0.212-0.0241-0.267 0.136-0.073 0.217 0.397 0.169 0.85-0.0276 1.26 0.107 0.331 0.0832 0.153-0.0842-0.021-0.186-0.34-0.245-0.777-0.0752-1.17-0.138z" stroke="#fff" stroke-linecap="round" stroke-linejoin="round" stroke-opacity=".439" stroke-width=".665"/>
   <path d="m104 21.5c-0.397 0.0936-0.927-0.136-1.24 0.157 0.087 0.438 0.618 0.5 0.979 0.411 0.352 3e-3 0.867 0.171 1.13 0.0108-0.218-0.257-0.532-0.534-0.871-0.58z" stroke="#fff" stroke-linecap="round" stroke-linejoin="round" stroke-opacity=".439" stroke-width=".665"/>
   <path d="m102 27.5c-0.53 0.127-1.2-0.134-1.62 0.303-0.083 0.585 0.548 1.07 1.1 0.893 0.577 0.0173 1.27 0.238 1.76-0.124-0.18-0.52-0.725-0.835-1.17-1.08-0.024 7e-4 -0.044-0.0207-0.067 0.0108z" stroke="#fff" stroke-linecap="round" stroke-linejoin="round" stroke-opacity=".439" stroke-width=".665"/>
   <path d="m98.7 13.5c-0.683 0.116-1.65-0.125-2.05 0.609-0.243 0.849 0.677 1.75 1.52 1.52 0.727 0.0564 1.72 0.28 2.21-0.42 0.057-0.828-0.807-1.3-1.41-1.67-0.0863-0.0241-0.178-0.0386-0.268-0.031z" stroke="#fff" stroke-linecap="round" stroke-linejoin="round" stroke-opacity=".439" stroke-width=".665"/>
   <path d="m125 15.6c-0.396 0.0936-0.927-0.136-1.24 0.158 0.087 0.437 0.618 0.5 0.979 0.411 0.351 3e-3 0.867 0.171 1.13 0.0108-0.218-0.256-0.532-0.534-0.872-0.58z" stroke="#fff" stroke-linecap="round" stroke-linejoin="round" stroke-opacity=".439" stroke-width=".665"/>
   <path d="m114 1.59c-0.683 0.116-1.65-0.125-2.05 0.609-0.243 0.849 0.677 1.75 1.52 1.52 0.727 0.0564 1.72 0.28 2.21-0.42 0.057-0.828-0.807-1.3-1.41-1.67-0.086-0.0241-0.177-0.0386-0.267-0.031z" stroke="#fff" stroke-linecap="round" stroke-linejoin="round" stroke-opacity=".439" stroke-width=".665"/>
   <path d="m123 6.64c-0.213-0.0241-0.268 0.136-0.074 0.217 0.398 0.169 0.85-0.0276 1.27 0.107 0.33 0.0832 0.153-0.0842-0.021-0.186-0.341-0.245-0.778-0.0757-1.17-0.139z" stroke="#fff" stroke-linecap="round" stroke-linejoin="round" stroke-opacity=".439" stroke-width=".665"/>
   <path d="m103 4.3c-0.396 0.0936-0.927-0.136-1.24 0.157 0.088 0.437 0.618 0.5 0.979 0.411 0.352 3e-3 0.867 0.171 1.13 0.0108-0.217-0.257-0.532-0.534-0.871-0.58z" stroke="#fff" stroke-linecap="round" stroke-linejoin="round" stroke-opacity=".439" stroke-width=".665"/>
   <path d="m118 13.7c-0.212-0.0241-0.268 0.136-0.074 0.217 0.398 0.169 0.85-0.0276 1.27 0.107 0.33 0.0832 0.153-0.0843-0.021-0.186-0.34-0.245-0.778-0.0757-1.17-0.138z" stroke="#fff" stroke-linecap="round" stroke-linejoin="round" stroke-opacity=".439" stroke-width=".665"/>
   <path d="m141 9.31c-0.577 0.142-1.37-0.138-1.78 0.394-0.142 0.633 0.525 1.32 1.16 1.12 0.661 0.0207 1.44 0.264 2.01-0.196-0.082-0.61-0.725-0.934-1.17-1.27-0.07-0.0276-0.143-0.0517-0.219-0.0431z" stroke="#fff" stroke-linecap="round" stroke-linejoin="round" stroke-opacity=".439" stroke-width=".665"/>
   <path d="m143 23.3c-0.577 0.142-1.36-0.138-1.78 0.394-0.142 0.633 0.526 1.32 1.16 1.12 0.661 0.0207 1.44 0.264 2.01-0.196-0.083-0.61-0.726-0.934-1.17-1.27-0.071-0.0276-0.144-0.0517-0.22-0.0431z" stroke="#fff" stroke-linecap="round" stroke-linejoin="round" stroke-opacity=".439" stroke-width=".665"/>
   <path d="m152 19c-0.531 0.127-1.2-0.134-1.62 0.303-0.083 0.585 0.548 1.07 1.1 0.893 0.577 0.0173 1.27 0.239 1.76-0.124-0.179-0.52-0.724-0.835-1.17-1.08-0.024 8e-4 -0.044-0.0207-0.067 0.0108z" stroke="#fff" stroke-linecap="round" stroke-linejoin="round" stroke-opacity=".439" stroke-width=".665"/>
   <path d="m141 18.4c-0.212-0.0242-0.268 0.136-0.074 0.217 0.398 0.17 0.85-0.0275 1.26 0.107 0.331 0.0832 0.154-0.0843-0.02-0.186-0.341-0.245-0.778-0.0757-1.17-0.138z" stroke="#fff" stroke-linecap="round" stroke-linejoin="round" stroke-opacity=".439" stroke-width=".665"/>
   <path d="m154 26.8c-0.683 0.116-1.65-0.125-2.05 0.609-0.244 0.849 0.677 1.75 1.52 1.52 0.727 0.0564 1.72 0.28 2.21-0.42 0.057-0.828-0.807-1.3-1.41-1.67-0.086-0.0241-0.177-0.0386-0.268-0.031z" stroke="#fff" stroke-linecap="round" stroke-linejoin="round" stroke-opacity=".439" stroke-width=".665"/>
   <path d="m147 30.7c-0.212-0.0241-0.267 0.136-0.073 0.217 0.397 0.169 0.85-0.0276 1.26 0.107 0.331 0.0832 0.153-0.0842-0.021-0.186-0.34-0.245-0.777-0.0752-1.17-0.138z" stroke="#fff" stroke-linecap="round" stroke-linejoin="round" stroke-opacity=".439" stroke-width=".665"/>
   <path d="m136 21.5c-0.397 0.0936-0.927-0.136-1.24 0.157 0.087 0.438 0.618 0.5 0.979 0.411 0.352 3e-3 0.867 0.171 1.13 0.0108-0.218-0.257-0.532-0.534-0.871-0.58z" stroke="#fff" stroke-linecap="round" stroke-linejoin="round" stroke-opacity=".439" stroke-width=".665"/>
   <path d="m134 27.5c-0.53 0.127-1.2-0.134-1.62 0.303-0.083 0.585 0.548 1.07 1.1 0.893 0.577 0.0173 1.27 0.238 1.76-0.124-0.18-0.52-0.725-0.835-1.17-1.08-0.024 7e-4 -0.044-0.0207-0.067 0.0108z" stroke="#fff" stroke-linecap="round" stroke-linejoin="round" stroke-opacity=".439" stroke-width=".665"/>
   <path d="m131 13.5c-0.683 0.116-1.65-0.125-2.05 0.609-0.243 0.849 0.677 1.75 1.52 1.52 0.727 0.0564 1.72 0.28 2.21-0.42 0.057-0.828-0.807-1.3-1.41-1.67-0.086-0.0241-0.177-0.0386-0.267-0.031z" stroke="#fff" stroke-linecap="round" stroke-linejoin="round" stroke-opacity=".439" stroke-width=".665"/>
   <path d="m157 15.6c-0.396 0.0936-0.927-0.136-1.24 0.158 0.087 0.437 0.618 0.5 0.979 0.411 0.351 3e-3 0.867 0.171 1.13 0.0108-0.218-0.256-0.532-0.534-0.872-0.58z" stroke="#fff" stroke-linecap="round" stroke-linejoin="round" stroke-opacity=".439" stroke-width=".665"/>
   <path d="m146 1.59c-0.683 0.116-1.65-0.125-2.05 0.609-0.243 0.849 0.677 1.75 1.52 1.52 0.727 0.0564 1.72 0.28 2.21-0.42 0.057-0.828-0.807-1.3-1.41-1.67-0.086-0.0241-0.177-0.0386-0.267-0.031z" stroke="#fff" stroke-linecap="round" stroke-linejoin="round" stroke-opacity=".439" stroke-width=".665"/>
   <path d="m155 6.64c-0.213-0.0241-0.268 0.136-0.074 0.217 0.398 0.169 0.85-0.0276 1.27 0.107 0.33 0.0832 0.153-0.0842-0.021-0.186-0.341-0.245-0.778-0.0757-1.17-0.139z" stroke="#fff" stroke-linecap="round" stroke-linejoin="round" stroke-opacity=".439" stroke-width=".665"/>
   <path d="m135 4.3c-0.396 0.0936-0.927-0.136-1.24 0.157 0.088 0.437 0.618 0.5 0.979 0.411 0.352 3e-3 0.867 0.171 1.13 0.0108-0.217-0.257-0.532-0.534-0.871-0.58z" stroke="#fff" stroke-linecap="round" stroke-linejoin="round" stroke-opacity=".439" stroke-width=".665"/>
   <path d="m150 13.7c-0.212-0.0241-0.268 0.136-0.074 0.217 0.398 0.169 0.85-0.0276 1.27 0.107 0.33 0.0832 0.153-0.0843-0.021-0.186-0.34-0.245-0.778-0.0757-1.17-0.138z" stroke="#fff" stroke-linecap="round" stroke-linejoin="round" stroke-opacity=".439" stroke-width=".665"/>
   <path d="m173 9.31c-0.577 0.142-1.37-0.138-1.78 0.394-0.142 0.633 0.525 1.32 1.16 1.12 0.661 0.0207 1.44 0.264 2.01-0.196-0.082-0.61-0.725-0.934-1.17-1.27-0.07-0.0276-0.143-0.0517-0.219-0.0431z" stroke="#fff" stroke-linecap="round" stroke-linejoin="round" stroke-opacity=".439" stroke-width=".665"/>
   <path d="m175 23.3c-0.577 0.142-1.36-0.138-1.78 0.394-0.142 0.633 0.526 1.32 1.16 1.12 0.661 0.0207 1.44 0.264 2.01-0.196-0.083-0.61-0.726-0.934-1.17-1.27-0.071-0.0276-0.144-0.0517-0.22-0.0431z" stroke="#fff" stroke-linecap="round" stroke-linejoin="round" stroke-opacity=".439" stroke-width=".665"/>
   <path d="m184 19c-0.531 0.127-1.2-0.134-1.62 0.303-0.083 0.585 0.548 1.07 1.1 0.893 0.577 0.0173 1.27 0.239 1.76-0.124-0.179-0.52-0.724-0.835-1.17-1.08-0.024 8e-4 -0.044-0.0207-0.067 0.0108z" stroke="#fff" stroke-linecap="round" stroke-linejoin="round" stroke-opacity=".439" stroke-width=".665"/>
   <path d="m173 18.4c-0.212-0.0242-0.268 0.136-0.074 0.217 0.398 0.17 0.85-0.0275 1.26 0.107 0.331 0.0832 0.154-0.0843-0.02-0.186-0.341-0.245-0.778-0.0757-1.17-0.138z" stroke="#fff" stroke-linecap="round" stroke-linejoin="round" stroke-opacity=".439" stroke-width=".665"/>
   <path d="m186 26.8c-0.683 0.116-1.65-0.125-2.05 0.609-0.244 0.849 0.677 1.75 1.52 1.52 0.727 0.0564 1.72 0.28 2.21-0.42 0.057-0.828-0.807-1.3-1.41-1.67-0.086-0.0241-0.177-0.0386-0.268-0.031z" stroke="#fff" stroke-linecap="round" stroke-linejoin="round" stroke-opacity=".439" stroke-width=".665"/>
   <path d="m179 30.7c-0.212-0.0241-0.267 0.136-0.073 0.217 0.397 0.169 0.85-0.0276 1.26 0.107 0.331 0.0832 0.153-0.0842-0.021-0.186-0.34-0.245-0.777-0.0752-1.17-0.138z" stroke="#fff" stroke-linecap="round" stroke-linejoin="round" stroke-opacity=".439" stroke-width=".665"/>
   <path d="m168 21.5c-0.397 0.0936-0.927-0.136-1.24 0.157 0.087 0.438 0.618 0.5 0.979 0.411 0.352 3e-3 0.867 0.171 1.13 0.0108-0.218-0.257-0.532-0.534-0.871-0.58z" stroke="#fff" stroke-linecap="round" stroke-linejoin="round" stroke-opacity=".439" stroke-width=".665"/>
   <path d="m166 27.5c-0.53 0.127-1.2-0.134-1.62 0.303-0.083 0.585 0.548 1.07 1.1 0.893 0.577 0.0173 1.27 0.238 1.76-0.124-0.18-0.52-0.725-0.835-1.17-1.08-0.024 7e-4 -0.044-0.0207-0.067 0.0108z" stroke="#fff" stroke-linecap="round" stroke-linejoin="round" stroke-opacity=".439" stroke-width=".665"/>
   <path d="m163 13.5c-0.683 0.116-1.65-0.125-2.05 0.609-0.243 0.849 0.677 1.75 1.52 1.52 0.727 0.0564 1.72 0.28 2.21-0.42 0.057-0.828-0.807-1.3-1.41-1.67-0.086-0.0241-0.177-0.0386-0.267-0.031z" stroke="#fff" stroke-linecap="round" stroke-linejoin="round" stroke-opacity=".439" stroke-width=".665"/>
   <path d="m189 15.6c-0.396 0.0936-0.927-0.136-1.24 0.158 0.087 0.437 0.618 0.5 0.979 0.411 0.351 3e-3 0.867 0.171 1.13 0.0108-0.218-0.256-0.532-0.534-0.872-0.58z" stroke="#fff" stroke-linecap="round" stroke-linejoin="round" stroke-opacity=".439" stroke-width=".665"/>
   <path d="m178 1.59c-0.683 0.116-1.65-0.125-2.05 0.609-0.243 0.849 0.677 1.75 1.52 1.52 0.727 0.0564 1.72 0.28 2.21-0.42 0.057-0.828-0.807-1.3-1.41-1.67-0.086-0.0241-0.177-0.0386-0.267-0.031z" stroke="#fff" stroke-linecap="round" stroke-linejoin="round" stroke-opacity=".439" stroke-width=".665"/>
   <path d="m187 6.64c-0.213-0.0241-0.268 0.136-0.074 0.217 0.398 0.169 0.85-0.0276 1.27 0.107 0.33 0.0832 0.153-0.0842-0.021-0.186-0.341-0.245-0.778-0.0757-1.17-0.139z" stroke="#fff" stroke-linecap="round" stroke-linejoin="round" stroke-opacity=".439" stroke-width=".665"/>
   <path d="m167 4.3c-0.396 0.0936-0.927-0.136-1.24 0.157 0.088 0.437 0.618 0.5 0.979 0.411 0.352 3e-3 0.867 0.171 1.13 0.0108-0.217-0.257-0.532-0.534-0.871-0.58z" stroke="#fff" stroke-linecap="round" stroke-linejoin="round" stroke-opacity=".439" stroke-width=".665"/>
   <path d="m182 13.7c-0.212-0.0241-0.268 0.136-0.074 0.217 0.398 0.169 0.85-0.0276 1.27 0.107 0.33 0.0832 0.153-0.0843-0.021-0.186-0.34-0.245-0.778-0.0757-1.17-0.138z" stroke="#fff" stroke-linecap="round" stroke-linejoin="round" stroke-opacity=".439" stroke-width=".665"/>
   <path d="m205 9.31c-0.577 0.142-1.37-0.138-1.78 0.394-0.142 0.633 0.525 1.32 1.16 1.12 0.661 0.0207 1.44 0.264 2.01-0.196-0.082-0.61-0.725-0.934-1.17-1.27-0.07-0.0276-0.143-0.0517-0.219-0.0431z" stroke="#fff" stroke-linecap="round" stroke-linejoin="round" stroke-opacity=".439" stroke-width=".665"/>
   <path d="m207 23.3c-0.577 0.142-1.36-0.138-1.78 0.394-0.142 0.633 0.526 1.32 1.16 1.12 0.661 0.0207 1.44 0.264 2.01-0.196-0.083-0.61-0.726-0.934-1.17-1.27-0.071-0.0276-0.144-0.0517-0.22-0.0431z" stroke="#fff" stroke-linecap="round" stroke-linejoin="round" stroke-opacity=".439" stroke-width=".665"/>
   <path d="m216 19c-0.531 0.127-1.2-0.134-1.62 0.303-0.083 0.585 0.548 1.07 1.1 0.893 0.577 0.0173 1.27 0.239 1.76-0.124-0.179-0.52-0.724-0.835-1.17-1.08-0.024 8e-4 -0.044-0.0207-0.067 0.0108z" stroke="#fff" stroke-linecap="round" stroke-linejoin="round" stroke-opacity=".439" stroke-width=".665"/>
   <path d="m205 18.4c-0.212-0.0242-0.268 0.136-0.074 0.217 0.398 0.17 0.85-0.0275 1.26 0.107 0.331 0.0832 0.154-0.0843-0.02-0.186-0.341-0.245-0.778-0.0757-1.17-0.138z" stroke="#fff" stroke-linecap="round" stroke-linejoin="round" stroke-opacity=".439" stroke-width=".665"/>
   <path d="m218 26.8c-0.683 0.116-1.65-0.125-2.05 0.609-0.244 0.849 0.677 1.75 1.52 1.52 0.727 0.0564 1.72 0.28 2.21-0.42 0.057-0.828-0.807-1.3-1.41-1.67-0.086-0.0241-0.177-0.0386-0.268-0.031z" stroke="#fff" stroke-linecap="round" stroke-linejoin="round" stroke-opacity=".439" stroke-width=".665"/>
   <path d="m211 30.7c-0.212-0.0241-0.267 0.136-0.073 0.217 0.397 0.169 0.85-0.0276 1.26 0.107 0.331 0.0832 0.153-0.0842-0.021-0.186-0.34-0.245-0.777-0.0752-1.17-0.138z" stroke="#fff" stroke-linecap="round" stroke-linejoin="round" stroke-opacity=".439" stroke-width=".665"/>
   <path d="m200 21.5c-0.397 0.0936-0.927-0.136-1.24 0.157 0.087 0.438 0.618 0.5 0.979 0.411 0.352 3e-3 0.867 0.171 1.13 0.0108-0.218-0.257-0.532-0.534-0.871-0.58z" stroke="#fff" stroke-linecap="round" stroke-linejoin="round" stroke-opacity=".439" stroke-width=".665"/>
   <path d="m198 27.5c-0.53 0.127-1.2-0.134-1.62 0.303-0.083 0.585 0.548 1.07 1.1 0.893 0.577 0.0173 1.27 0.238 1.76-0.124-0.18-0.52-0.725-0.835-1.17-1.08-0.024 7e-4 -0.044-0.0207-0.067 0.0108z" stroke="#fff" stroke-linecap="round" stroke-linejoin="round" stroke-opacity=".439" stroke-width=".665"/>
   <path d="m195 13.5c-0.683 0.116-1.65-0.125-2.05 0.609-0.243 0.849 0.677 1.75 1.52 1.52 0.727 0.0564 1.72 0.28 2.21-0.42 0.057-0.828-0.807-1.3-1.41-1.67-0.086-0.0241-0.177-0.0386-0.267-0.031z" stroke="#fff" stroke-linecap="round" stroke-linejoin="round" stroke-opacity=".439" stroke-width=".665"/>
   <path d="m221 15.6c-0.396 0.0936-0.927-0.136-1.24 0.158 0.087 0.437 0.618 0.5 0.979 0.411 0.351 3e-3 0.867 0.171 1.13 0.0108-0.218-0.256-0.532-0.534-0.872-0.58z" stroke="#fff" stroke-linecap="round" stroke-linejoin="round" stroke-opacity=".439" stroke-width=".665"/>
   <path d="m210 1.59c-0.683 0.116-1.65-0.125-2.05 0.609-0.243 0.849 0.677 1.75 1.52 1.52 0.727 0.0564 1.72 0.28 2.21-0.42 0.057-0.828-0.807-1.3-1.41-1.67-0.086-0.0241-0.177-0.0386-0.267-0.031z" stroke="#fff" stroke-linecap="round" stroke-linejoin="round" stroke-opacity=".439" stroke-width=".665"/>
   <path d="m219 6.64c-0.213-0.0241-0.268 0.136-0.074 0.217 0.398 0.169 0.85-0.0276 1.27 0.107 0.33 0.0832 0.153-0.0842-0.021-0.186-0.341-0.245-0.778-0.0757-1.17-0.139z" stroke="#fff" stroke-linecap="round" stroke-linejoin="round" stroke-opacity=".439" stroke-width=".665"/>
   <path d="m199 4.3c-0.396 0.0936-0.927-0.136-1.24 0.157 0.088 0.437 0.618 0.5 0.979 0.411 0.352 3e-3 0.867 0.171 1.13 0.0108-0.217-0.257-0.532-0.534-0.871-0.58z" stroke="#fff" stroke-linecap="round" stroke-linejoin="round" stroke-opacity=".439" stroke-width=".665"/>
   <path d="m214 13.7c-0.212-0.0241-0.268 0.136-0.074 0.217 0.398 0.169 0.85-0.0276 1.27 0.107 0.33 0.0832 0.153-0.0843-0.021-0.186-0.34-0.245-0.778-0.0757-1.17-0.138z" stroke="#fff" stroke-linecap="round" stroke-linejoin="round" stroke-opacity=".439" stroke-width=".665"/>
   <path d="m237 9.31c-0.577 0.142-1.37-0.138-1.78 0.394-0.142 0.633 0.525 1.32 1.16 1.12 0.661 0.0207 1.44 0.264 2.01-0.196-0.082-0.61-0.725-0.934-1.17-1.27-0.07-0.0276-0.143-0.0517-0.219-0.0431z" stroke="#fff" stroke-linecap="round" stroke-linejoin="round" stroke-opacity=".439" stroke-width=".665"/>
   <path d="m239 23.3c-0.577 0.142-1.36-0.138-1.78 0.394-0.142 0.633 0.526 1.32 1.16 1.12 0.661 0.0207 1.44 0.264 2.01-0.196-0.083-0.61-0.726-0.934-1.17-1.27-0.071-0.0276-0.144-0.0517-0.22-0.0431z" stroke="#fff" stroke-linecap="round" stroke-linejoin="round" stroke-opacity=".439" stroke-width=".665"/>
   <path d="m248 19c-0.531 0.127-1.2-0.134-1.62 0.303-0.083 0.585 0.548 1.07 1.1 0.893 0.577 0.0173 1.27 0.239 1.76-0.124-0.179-0.52-0.724-0.835-1.17-1.08-0.024 8e-4 -0.044-0.0207-0.067 0.0108z" stroke="#fff" stroke-linecap="round" stroke-linejoin="round" stroke-opacity=".439" stroke-width=".665"/>
   <path d="m237 18.4c-0.212-0.0242-0.268 0.136-0.074 0.217 0.398 0.17 0.85-0.0275 1.26 0.107 0.331 0.0832 0.154-0.0843-0.02-0.186-0.341-0.245-0.778-0.0757-1.17-0.138z" stroke="#fff" stroke-linecap="round" stroke-linejoin="round" stroke-opacity=".439" stroke-width=".665"/>
   <path d="m250 26.8c-0.683 0.116-1.65-0.125-2.05 0.609-0.244 0.849 0.677 1.75 1.52 1.52 0.727 0.0564 1.72 0.28 2.21-0.42 0.057-0.828-0.807-1.3-1.41-1.67-0.086-0.0241-0.177-0.0386-0.268-0.031z" stroke="#fff" stroke-linecap="round" stroke-linejoin="round" stroke-opacity=".439" stroke-width=".665"/>
   <path d="m243 30.7c-0.212-0.0241-0.267 0.136-0.073 0.217 0.397 0.169 0.85-0.0276 1.26 0.107 0.331 0.0832 0.153-0.0842-0.021-0.186-0.34-0.245-0.777-0.0752-1.17-0.138z" stroke="#fff" stroke-linecap="round" stroke-linejoin="round" stroke-opacity=".439" stroke-width=".665"/>
   <path d="m232 21.5c-0.397 0.0936-0.927-0.136-1.24 0.157 0.087 0.438 0.618 0.5 0.979 0.411 0.352 3e-3 0.867 0.171 1.13 0.0108-0.218-0.257-0.532-0.534-0.871-0.58z" stroke="#fff" stroke-linecap="round" stroke-linejoin="round" stroke-opacity=".439" stroke-width=".665"/>
   <path d="m230 27.5c-0.53 0.127-1.2-0.134-1.62 0.303-0.083 0.585 0.548 1.07 1.1 0.893 0.577 0.0173 1.27 0.238 1.76-0.124-0.18-0.52-0.725-0.835-1.17-1.08-0.024 7e-4 -0.044-0.0207-0.067 0.0108z" stroke="#fff" stroke-linecap="round" stroke-linejoin="round" stroke-opacity=".439" stroke-width=".665"/>
   <path d="m227 13.5c-0.683 0.116-1.65-0.125-2.05 0.609-0.243 0.849 0.677 1.75 1.52 1.52 0.727 0.0564 1.72 0.28 2.21-0.42 0.057-0.828-0.807-1.3-1.41-1.67-0.086-0.0241-0.177-0.0386-0.267-0.031z" stroke="#fff" stroke-linecap="round" stroke-linejoin="round" stroke-opacity=".439" stroke-width=".665"/>
   <path d="m253 15.6c-0.396 0.0936-0.927-0.136-1.24 0.158 0.087 0.437 0.618 0.5 0.979 0.411 0.351 3e-3 0.867 0.171 1.13 0.0108-0.218-0.256-0.532-0.534-0.872-0.58z" stroke="#fff" stroke-linecap="round" stroke-linejoin="round" stroke-opacity=".439" stroke-width=".665"/>
   <path d="m242 1.59c-0.683 0.116-1.65-0.125-2.05 0.609-0.243 0.849 0.677 1.75 1.52 1.52 0.727 0.0564 1.72 0.28 2.21-0.42 0.057-0.828-0.807-1.3-1.41-1.67-0.086-0.0241-0.177-0.0386-0.267-0.031z" stroke="#fff" stroke-linecap="round" stroke-linejoin="round" stroke-opacity=".439" stroke-width=".665"/>
   <path d="m251 6.64c-0.213-0.0241-0.268 0.136-0.074 0.217 0.398 0.169 0.85-0.0276 1.27 0.107 0.33 0.0832 0.153-0.0842-0.021-0.186-0.341-0.245-0.778-0.0757-1.17-0.139z" stroke="#fff" stroke-linecap="round" stroke-linejoin="round" stroke-opacity=".439" stroke-width=".665"/>
   <path d="m231 4.3c-0.396 0.0936-0.927-0.136-1.24 0.157 0.088 0.437 0.618 0.5 0.979 0.411 0.352 3e-3 0.867 0.171 1.13 0.0108-0.217-0.257-0.532-0.534-0.871-0.58z" stroke="#fff" stroke-linecap="round" stroke-linejoin="round" stroke-opacity=".439" stroke-width=".665"/>
   <path d="m246 13.7c-0.212-0.0241-0.268 0.136-0.074 0.217 0.398 0.169 0.85-0.0276 1.27 0.107 0.33 0.0832 0.153-0.0843-0.021-0.186-0.34-0.245-0.778-0.0757-1.17-0.138z" stroke="#fff" stroke-linecap="round" stroke-linejoin="round" stroke-opacity=".439" stroke-width=".665"/>
   <path d="m269 9.31c-0.577 0.142-1.37-0.138-1.78 0.394-0.142 0.633 0.525 1.32 1.16 1.12 0.661 0.0207 1.44 0.264 2.01-0.196-0.082-0.61-0.725-0.934-1.17-1.27-0.07-0.0276-0.143-0.0517-0.219-0.0431z" stroke="#fff" stroke-linecap="round" stroke-linejoin="round" stroke-opacity=".439" stroke-width=".665"/>
   <path d="m271 23.3c-0.577 0.142-1.36-0.138-1.78 0.394-0.142 0.633 0.526 1.32 1.16 1.12 0.661 0.0207 1.44 0.264 2.01-0.196-0.083-0.61-0.726-0.934-1.17-1.27-0.071-0.0276-0.144-0.0517-0.22-0.0431z" stroke="#fff" stroke-linecap="round" stroke-linejoin="round" stroke-opacity=".439" stroke-width=".665"/>
   <path d="m280 19c-0.531 0.127-1.2-0.134-1.62 0.303-0.083 0.585 0.548 1.07 1.1 0.893 0.577 0.0173 1.27 0.239 1.76-0.124-0.179-0.52-0.724-0.835-1.17-1.08-0.024 8e-4 -0.044-0.0207-0.067 0.0108z" stroke="#fff" stroke-linecap="round" stroke-linejoin="round" stroke-opacity=".439" stroke-width=".665"/>
   <path d="m269 18.4c-0.212-0.0242-0.268 0.136-0.074 0.217 0.398 0.17 0.85-0.0275 1.26 0.107 0.331 0.0832 0.154-0.0843-0.02-0.186-0.341-0.245-0.778-0.0757-1.17-0.138z" stroke="#fff" stroke-linecap="round" stroke-linejoin="round" stroke-opacity=".439" stroke-width=".665"/>
   <path d="m282 26.8c-0.683 0.116-1.65-0.125-2.05 0.609-0.244 0.849 0.677 1.75 1.52 1.52 0.727 0.0564 1.72 0.28 2.21-0.42 0.057-0.828-0.807-1.3-1.41-1.67-0.086-0.0241-0.177-0.0386-0.268-0.031z" stroke="#fff" stroke-linecap="round" stroke-linejoin="round" stroke-opacity=".439" stroke-width=".665"/>
   <path d="m275 30.7c-0.212-0.0241-0.267 0.136-0.073 0.217 0.397 0.169 0.85-0.0276 1.26 0.107 0.331 0.0832 0.153-0.0842-0.021-0.186-0.34-0.245-0.777-0.0752-1.17-0.138z" stroke="#fff" stroke-linecap="round" stroke-linejoin="round" stroke-opacity=".439" stroke-width=".665"/>
   <path d="m264 21.5c-0.397 0.0936-0.927-0.136-1.24 0.157 0.087 0.438 0.618 0.5 0.979 0.411 0.352 3e-3 0.867 0.171 1.13 0.0108-0.218-0.257-0.532-0.534-0.871-0.58z" stroke="#fff" stroke-linecap="round" stroke-linejoin="round" stroke-opacity=".439" stroke-width=".665"/>
   <path d="m262 27.5c-0.53 0.127-1.2-0.134-1.62 0.303-0.083 0.585 0.548 1.07 1.1 0.893 0.577 0.0173 1.27 0.238 1.76-0.124-0.18-0.52-0.725-0.835-1.17-1.08-0.024 7e-4 -0.044-0.0207-0.067 0.0108z" stroke="#fff" stroke-linecap="round" stroke-linejoin="round" stroke-opacity=".439" stroke-width=".665"/>
   <path d="m259 13.5c-0.683 0.116-1.65-0.125-2.05 0.609-0.243 0.849 0.677 1.75 1.52 1.52 0.727 0.0564 1.72 0.28 2.21-0.42 0.057-0.828-0.807-1.3-1.41-1.67-0.086-0.0241-0.177-0.0386-0.267-0.031z" stroke="#fff" stroke-linecap="round" stroke-linejoin="round" stroke-opacity=".439" stroke-width=".665"/>
   <path d="m285 15.6c-0.396 0.0936-0.927-0.136-1.24 0.158 0.087 0.437 0.618 0.5 0.979 0.411 0.351 3e-3 0.867 0.171 1.13 0.0108-0.218-0.256-0.532-0.534-0.872-0.58z" stroke="#fff" stroke-linecap="round" stroke-linejoin="round" stroke-opacity=".439" stroke-width=".665"/>
   <path d="m274 1.59c-0.683 0.116-1.65-0.125-2.05 0.609-0.243 0.849 0.677 1.75 1.52 1.52 0.727 0.0564 1.72 0.28 2.21-0.42 0.057-0.828-0.807-1.3-1.41-1.67-0.086-0.0241-0.177-0.0386-0.267-0.031z" stroke="#fff" stroke-linecap="round" stroke-linejoin="round" stroke-opacity=".439" stroke-width=".665"/>
   <path d="m283 6.64c-0.213-0.0241-0.268 0.136-0.074 0.217 0.398 0.169 0.85-0.0276 1.27 0.107 0.33 0.0832 0.153-0.0842-0.021-0.186-0.341-0.245-0.778-0.0757-1.17-0.139z" stroke="#fff" stroke-linecap="round" stroke-linejoin="round" stroke-opacity=".439" stroke-width=".665"/>
   <path d="m263 4.3c-0.396 0.0936-0.927-0.136-1.24 0.157 0.088 0.437 0.618 0.5 0.979 0.411 0.352 3e-3 0.867 0.171 1.13 0.0108-0.217-0.257-0.532-0.534-0.871-0.58z" stroke="#fff" stroke-linecap="round" stroke-linejoin="round" stroke-opacity=".439" stroke-width=".665"/>
   <path d="m278 13.7c-0.212-0.0241-0.268 0.136-0.074 0.217 0.398 0.169 0.85-0.0276 1.27 0.107 0.33 0.0832 0.153-0.0843-0.021-0.186-0.34-0.245-0.778-0.0757-1.17-0.138z" stroke="#fff" stroke-linecap="round" stroke-linejoin="round" stroke-opacity=".439" stroke-width=".665"/>
   <path d="m301 9.31c-0.577 0.142-1.37-0.138-1.78 0.394-0.142 0.633 0.525 1.32 1.16 1.12 0.661 0.0207 1.44 0.264 2.01-0.196-0.082-0.61-0.725-0.934-1.17-1.27-0.07-0.0276-0.143-0.0517-0.219-0.0431z" stroke="#fff" stroke-linecap="round" stroke-linejoin="round" stroke-opacity=".439" stroke-width=".665"/>
   <path d="m296 21.5c-0.397 0.0936-0.927-0.136-1.24 0.157 0.087 0.438 0.618 0.5 0.979 0.411 0.352 3e-3 0.867 0.171 1.13 0.0108-0.218-0.257-0.532-0.534-0.871-0.58z" stroke="#fff" stroke-linecap="round" stroke-linejoin="round" stroke-opacity=".439" stroke-width=".665"/>
   <path d="m294 27.5c-0.53 0.127-1.2-0.134-1.62 0.303-0.083 0.585 0.548 1.07 1.1 0.893 0.577 0.0173 1.27 0.238 1.76-0.124-0.18-0.52-0.725-0.835-1.17-1.08-0.024 7e-4 -0.044-0.0207-0.067 0.0108z" stroke="#fff" stroke-linecap="round" stroke-linejoin="round" stroke-opacity=".439" stroke-width=".665"/>
   <path d="m291 13.5c-0.683 0.116-1.65-0.125-2.05 0.609-0.243 0.849 0.677 1.75 1.52 1.52 0.727 0.0564 1.72 0.28 2.21-0.42 0.057-0.828-0.807-1.3-1.41-1.67-0.086-0.0241-0.177-0.0386-0.267-0.031z" stroke="#fff" stroke-linecap="round" stroke-linejoin="round" stroke-opacity=".439" stroke-width=".665"/>
   <path d="m295 4.3c-0.396 0.0936-0.927-0.136-1.24 0.157 0.088 0.437 0.618 0.5 0.979 0.411 0.352 3e-3 0.867 0.171 1.13 0.0108-0.217-0.257-0.532-0.534-0.871-0.58z" stroke="#fff" stroke-linecap="round" stroke-linejoin="round" stroke-opacity=".439" stroke-width=".665"/>
   <path d="m18.1 33.6c-0.683 0.116-1.65-0.125-2.05 0.609-0.243 0.849 0.677 1.75 1.52 1.52 0.727 0.0564 1.72 0.28 2.21-0.42 0.0567-0.828-0.807-1.3-1.41-1.67-0.0863-0.0241-0.177-0.0386-0.268-0.031z" stroke="#fff" stroke-linecap="round" stroke-linejoin="round" stroke-opacity=".439" stroke-width=".665"/>
   <path d="m50.1 33.6c-0.683 0.116-1.65-0.125-2.05 0.609-0.243 0.849 0.677 1.75 1.52 1.52 0.727 0.0564 1.72 0.28 2.21-0.42 0.0567-0.828-0.807-1.3-1.41-1.67-0.0863-0.0241-0.177-0.0386-0.268-0.031z" stroke="#fff" stroke-linecap="round" stroke-linejoin="round" stroke-opacity=".439" stroke-width=".665"/>
   <path d="m82.1 33.6c-0.683 0.116-1.65-0.125-2.05 0.609-0.243 0.849 0.677 1.75 1.52 1.52 0.727 0.0564 1.72 0.28 2.21-0.42 0.0567-0.828-0.807-1.3-1.41-1.67-0.0863-0.0241-0.177-0.0386-0.268-0.031z" stroke="#fff" stroke-linecap="round" stroke-linejoin="round" stroke-opacity=".439" stroke-width=".665"/>
   <path d="m114 33.6c-0.683 0.116-1.65-0.125-2.05 0.609-0.243 0.849 0.677 1.75 1.52 1.52 0.727 0.0564 1.72 0.28 2.21-0.42 0.057-0.828-0.807-1.3-1.41-1.67-0.086-0.0241-0.177-0.0386-0.267-0.031z" stroke="#fff" stroke-linecap="round" stroke-linejoin="round" stroke-opacity=".439" stroke-width=".665"/>
   <path d="m146 33.6c-0.683 0.116-1.65-0.125-2.05 0.609-0.243 0.849 0.677 1.75 1.52 1.52 0.727 0.0564 1.72 0.28 2.21-0.42 0.057-0.828-0.807-1.3-1.41-1.67-0.086-0.0241-0.177-0.0386-0.267-0.031z" stroke="#fff" stroke-linecap="round" stroke-linejoin="round" stroke-opacity=".439" stroke-width=".665"/>
   <path d="m178 33.6c-0.683 0.116-1.65-0.125-2.05 0.609-0.243 0.849 0.677 1.75 1.52 1.52 0.727 0.0564 1.72 0.28 2.21-0.42 0.057-0.828-0.807-1.3-1.41-1.67-0.086-0.0241-0.177-0.0386-0.267-0.031z" stroke="#fff" stroke-linecap="round" stroke-linejoin="round" stroke-opacity=".439" stroke-width=".665"/>
   <path d="m210 33.6c-0.683 0.116-1.65-0.125-2.05 0.609-0.243 0.849 0.677 1.75 1.52 1.52 0.727 0.0564 1.72 0.28 2.21-0.42 0.057-0.828-0.807-1.3-1.41-1.67-0.086-0.0241-0.177-0.0386-0.267-0.031z" stroke="#fff" stroke-linecap="round" stroke-linejoin="round" stroke-opacity=".439" stroke-width=".665"/>
   <path d="m242 33.6c-0.683 0.116-1.65-0.125-2.05 0.609-0.243 0.849 0.677 1.75 1.52 1.52 0.727 0.0564 1.72 0.28 2.21-0.42 0.057-0.828-0.807-1.3-1.41-1.67-0.086-0.0241-0.177-0.0386-0.267-0.031z" stroke="#fff" stroke-linecap="round" stroke-linejoin="round" stroke-opacity=".439" stroke-width=".665"/>
   <path d="m274 33.6c-0.683 0.116-1.65-0.125-2.05 0.609-0.243 0.849 0.677 1.75 1.52 1.52 0.727 0.0564 1.72 0.28 2.21-0.42 0.057-0.828-0.807-1.3-1.41-1.67-0.086-0.0241-0.177-0.0386-0.267-0.031z" stroke="#fff" stroke-linecap="round" stroke-linejoin="round" stroke-opacity=".439" stroke-width=".665"/>
  </g>
  <defs>
   <clipPath id="clip0_236_9420">
    <rect width="300" height="35" fill="#fff"/>
   </clipPath>
  </defs>
 </g>
 <g id="built-up_landuseMilitary">
  <g clip-path="url(#clip0_236_10560)">
   <rect x="1" y="1" width="298" height="33" fill="url(#pattern477)" stroke="#ec94b2" stroke-opacity=".5" stroke-width="2"/>
  </g>
  <defs>
   <clipPath id="clip0_236_10560">
    <rect width="300" height="35" fill="#fff"/>
   </clipPath>
   <clipPath id="clip1_236_10560">
    <rect width="16" height="16" fill="#fff"/>
   </clipPath>
  </defs>
 </g>
 <g id="built-up_landuseMilitaryDangerArea">
  <g clip-path="url(#clip0_236_11753)">
   <rect x="1" y="1" width="298" height="33" fill="url(#pattern474)" stroke="#ec94b2" stroke-opacity=".5" stroke-width="2"/>
  </g>
  <defs>
   <clipPath id="clip0_236_11753">
    <rect width="300" height="35" fill="#fff"/>
   </clipPath>
   <clipPath id="clip1_236_11753">
    <rect width="32" height="32" fill="#fff"/>
   </clipPath>
  </defs>
 </g>
 <g id="built-up_landusePowerPlant">
  <rect width="300" height="35" fill="#101e21"/>
  <path d="m148 11.7c0.153-0.378 0.519-0.625 0.927-0.625h3c0.337 0 0.652 0.17 0.836 0.452 0.185 0.282 0.215 0.638 0.081 0.947l-0.891 2.05h0.974c0.381 0 0.729 0.216 0.897 0.558 0.168 0.342 0.128 0.75-0.104 1.05l-5 6.5c-0.305 0.396-0.854 0.506-1.29 0.259-0.434-0.247-0.619-0.777-0.433-1.24l1.45-3.63h-1.52c-0.332 0-0.643-0.165-0.829-0.441-0.186-0.276-0.223-0.626-0.098-0.934z" clip-rule="evenodd" fill="#ebe7e4" fill-rule="evenodd" opacity=".8"/>
  <path d="m149 12.1-2 4.95h3l-2 5 5-6.5h-2.5l1.5-3.45z" fill="#3f3f3f"/>
 </g>
 <g id="built-up_landusePowerSubstation">
  <rect width="300" height="35" fill="#101e21"/>
  <path d="m144 14.5c0-0.828 0.672-1.5 1.5-1.5h2c0.532 0 1.02 0.166 1.43 0.449 0.272-0.277 0.651-0.449 1.07-0.449s0.798 0.172 1.07 0.449c0.405-0.283 0.898-0.449 1.43-0.449h2c0.828 0 1.5 0.672 1.5 1.5 0 0.692-0.468 1.27-1.1 1.45 0.068 0.171 0.105 0.357 0.105 0.552 0 0.828-0.672 1.5-1.5 1.5 0.828 0 1.5 0.672 1.5 1.5 0 0.181-0.032 0.355-0.091 0.516-5e-3 0.0123-9e-3 0.0246-0.014 0.0367 0.637 0.173 1.1 0.756 1.1 1.45 0 0.828-0.672 1.5-1.5 1.5h-2c-0.532 0-1.02-0.166-1.43-0.449-0.272 0.277-0.651 0.449-1.07 0.449s-0.798-0.172-1.07-0.449c-0.405 0.283-0.898 0.449-1.43 0.449h-2c-0.828 0-1.5-0.672-1.5-1.5 0-0.692 0.468-1.27 1.1-1.45-5e-3 -0.0121-9e-3 -0.0244-0.014-0.0367-0.059-0.161-0.091-0.335-0.091-0.516 0-0.828 0.672-1.5 1.5-1.5-0.828 0-1.5-0.672-1.5-1.5 0-0.195 0.037-0.382 0.105-0.552-0.637-0.173-1.1-0.756-1.1-1.45z" fill="#ebe7e4" fill-opacity=".8"/>
  <path d="m145 14.5c0-0.276 0.224-0.5 0.5-0.5h2c0.828 0 1.5 0.672 1.5 1.5 0 0.458-0.206 0.869-0.53 1.14 0.329 0.356 0.53 0.833 0.53 1.36s-0.201 1-0.53 1.36c0.324 0.275 0.53 0.686 0.53 1.14 0 0.828-0.672 1.5-1.5 1.5h-2c-0.276 0-0.5-0.224-0.5-0.5s0.224-0.5 0.5-0.5h2c0.276 0 0.5-0.224 0.5-0.5s-0.224-0.5-0.5-0.5h-1c-0.276 0-0.5-0.224-0.5-0.5s0.224-0.5 0.5-0.5h0.5c0.552 0 1-0.448 1-1s-0.448-1-1-1h-0.5c-0.276 0-0.5-0.224-0.5-0.5s0.224-0.5 0.5-0.5h1c0.276 0 0.5-0.224 0.5-0.5s-0.224-0.5-0.5-0.5h-2c-0.276 0-0.5-0.224-0.5-0.5zm10 0c0-0.276-0.224-0.5-0.5-0.5h-2c-0.828 0-1.5 0.672-1.5 1.5 0 0.458 0.206 0.869 0.53 1.14-0.329 0.356-0.53 0.833-0.53 1.36s0.201 1 0.53 1.36c-0.324 0.275-0.53 0.686-0.53 1.14 0 0.828 0.672 1.5 1.5 1.5h2c0.276 0 0.5-0.224 0.5-0.5s-0.224-0.5-0.5-0.5h-2c-0.276 0-0.5-0.224-0.5-0.5s0.224-0.5 0.5-0.5h1c0.276 0 0.5-0.224 0.5-0.5s-0.224-0.5-0.5-0.5h-0.5c-0.552 0-1-0.448-1-1s0.448-1 1-1h0.5c0.276 0 0.5-0.224 0.5-0.5s-0.224-0.5-0.5-0.5h-1c-0.276 0-0.5-0.224-0.5-0.5s0.224-0.5 0.5-0.5h2c0.276 0 0.5-0.224 0.5-0.5zm-4.5 0c0-0.276-0.224-0.5-0.5-0.5s-0.5 0.224-0.5 0.5v7c0 0.276 0.224 0.5 0.5 0.5s0.5-0.224 0.5-0.5z" clip-rule="evenodd" fill="#3f3f3f" fill-rule="evenodd"/>
 </g>
</svg>
