<svg width="12" height="12" viewBox="0 0 12 12" fill="none" xmlns="http://www.w3.org/2000/svg">
<path d="M5.5 6V7H4.5V8H5.5V9H6.5V8H7.5V7H6.5V6H5.5Z" fill="white"/>
<path fill-rule="evenodd" clip-rule="evenodd" d="M3 4H2C1.44772 4 1 4.44772 1 5V10C1 10.5523 1.44772 11 2 11H10C10.5523 11 11 10.5523 11 10V5C11 4.44772 10.5523 4 10 4H9V2.5C9 1.67157 8.32843 1 7.5 1H4.5C3.67157 1 3 1.67157 3 2.5V4ZM4 2.5C4 2.22386 4.22386 2 4.5 2H7.5C7.77614 2 8 2.22386 8 2.5V4H4V2.5ZM8.5 7.5C8.5 8.88071 7.38071 10 6 10C4.61929 10 3.5 8.88071 3.5 7.5C3.5 6.11929 4.61929 5 6 5C7.38071 5 8.5 6.11929 8.5 7.5Z" fill="white"/>
</svg>
