<svg width="12" height="12" viewBox="0 0 12 12" fill="none" xmlns="http://www.w3.org/2000/svg">
<path d="M1 4C1 0.5 5.5 1.19209e-07 6 3C6.5 1.19209e-07 11 0.5 11 4C11 4.37181 10.9616 4.72059 10.8896 5.05108C10.7653 5.01777 10.6347 5 10.5 5H10V4.5C10 3.67157 9.32843 3 8.5 3C7.67157 3 7 3.67157 7 4.5V5H6.5C5.67157 5 5 5.67157 5 6.5C5 7.32843 5.67157 8 6.5 8H7V8.5C7 8.93457 7.1848 9.32597 7.4801 9.59991C7.00007 10.0399 6.50003 10.5 6 11C5.47822 10.4782 4.95645 10 4.4574 9.54263C2.56535 7.80854 1 6.37387 1 4Z" fill="white"/>
<path d="M8.5 4C8.77614 4 9 4.22386 9 4.5V6H10.5C10.7761 6 11 6.22386 11 6.5C11 6.77614 10.7761 7 10.5 7H9V8.5C9 8.77614 8.77614 9 8.5 9C8.22386 9 8 8.77614 8 8.5V7H6.5C6.22386 7 6 6.77614 6 6.5C6 6.22386 6.22386 6 6.5 6H8V4.5C8 4.22386 8.22386 4 8.5 4Z" fill="white"/>
</svg>
