<svg width="580" height="580" viewBox="0 0 580 580" fill="none" xmlns="http://www.w3.org/2000/svg">
<g clip-path="url(#clip0)">
<path d="M66.2751 1.76802C24.9401 1.76802 1.7041 23.139 1.7041 66.804V516.927C1.7041 557.771 22.5991 579.156 63.8961 579.156H515.92C557.227 579.156 578.149 558.841 578.149 516.927V66.804C578.149 24.203 557.227 1.76802 514.628 1.76802C514.624 1.76802 66.1331 1.62502 66.2751 1.76802Z" fill="#111111" stroke="#EEEEEE" stroke-width="3.408"/>
<path d="M535.827 285.971C535.829 318.58 529.408 350.871 516.93 380.999C504.452 411.126 486.162 438.501 463.105 461.56C440.047 484.619 412.673 502.911 382.546 515.39C352.419 527.87 320.129 534.293 287.519 534.293C254.91 534.293 222.62 527.87 192.493 515.39C162.366 502.911 134.992 484.619 111.934 461.56C88.8762 438.501 70.5863 411.126 58.1085 380.999C45.6308 350.871 39.2095 318.58 39.2114 285.971C39.2095 253.361 45.6308 221.071 58.1085 190.943C70.5863 160.815 88.8762 133.44 111.934 110.381C134.992 87.3221 162.366 69.0306 192.493 56.551C222.62 44.0715 254.91 37.6483 287.519 37.6483C320.129 37.6483 352.419 44.0715 382.546 56.551C412.673 69.0306 440.047 87.3221 463.105 110.381C486.162 133.44 504.452 160.815 516.93 190.943C529.408 221.071 535.829 253.361 535.827 285.971V285.971Z" stroke="white" stroke-width="21.6302"/>
<path d="M106.383 326.888H468.656V245.053H106.383V326.888Z" fill="white" stroke="white" stroke-width="20" stroke-linejoin="round"/>
<path d="M246.602 104.834V467.107H328.437V104.834H246.602Z" fill="white" stroke="white" stroke-width="20" stroke-linejoin="round"/>
</g>
<defs>
<clipPath id="clip0">
<path d="M0 0H580V580H0V0Z" fill="white"/>
</clipPath>
</defs>
</svg>
