<svg width="12" height="12" viewBox="0 0 12 12" fill="none" xmlns="http://www.w3.org/2000/svg">
<path fill-rule="evenodd" clip-rule="evenodd" d="M9.5 5C10.8807 5 12 3.88071 12 2.5C12 1.11929 10.8807 0 9.5 0C8.11929 0 7 1.11929 7 2.5C7 3.88071 8.11929 5 9.5 5ZM9 1V2L8 2V3H9V4H10V3H11V2H10V1H9Z" fill="white"/>
<path d="M1.29289 1.29289C1.68342 0.902369 2.31658 0.902369 2.70711 1.29289L6.20711 4.79289L4.79289 6.20711L1.29289 2.70711C0.902369 2.31658 0.902369 1.68342 1.29289 1.29289Z" fill="white"/>
<path d="M1 7C1 5.91531 1.57566 4.96508 2.43813 4.43813L3.17675 5.17675C2.48283 5.49057 2 6.1889 2 7C2 8.10457 2.89543 9 4 9C4.74028 9 5.38663 8.5978 5.73244 8H5.5C5.22386 8 5 7.77614 5 7.5C5 7.22386 5.22386 7 5.5 7H7.5C7.77614 7 8 7.22386 8 7.5C8 7.77614 7.77614 8 7.5 8H6.82929C6.41771 9.16448 5.30759 9.99897 4.00242 10H6C6.55228 10 7 10.4477 7 11H1C1 10.4477 1.44772 10 2 10H3.99758C2.34184 9.99869 1 8.65605 1 7Z" fill="white"/>
</svg>
