<svg width="12" height="12" viewBox="0 0 12 12" fill="none" xmlns="http://www.w3.org/2000/svg">
<path fill-rule="evenodd" clip-rule="evenodd" d="M9.5 5C10.8807 5 12 3.88071 12 2.5C12 1.11929 10.8807 0 9.5 0C8.11929 0 7 1.11929 7 2.5C7 3.88071 8.11929 5 9.5 5ZM9 1V2H8V3H9V4H10V3H11V2H10V1H9Z" fill="white"/>
<path d="M1.29289 1.29289C1.68342 0.90237 2.31658 0.90237 2.70711 1.29289L6.20711 4.79289L4.79289 6.20711L1.29289 2.70711C0.90237 2.31658 0.90237 1.68342 1.29289 1.29289Z" fill="white"/>
<path d="M1 7.0001C1 5.91541 1.57566 4.96518 2.43813 4.43823L3.17675 5.17685C2.48283 5.49067 2 6.189 2 7.0001C2 8.10467 2.89543 9.0001 4 9.0001C4.74028 9.0001 5.38663 8.5979 5.73244 8.0001H5.5C5.22386 8.0001 5 7.77624 5 7.5001C5 7.22396 5.22386 7.0001 5.5 7.0001H7.5C7.77614 7.0001 8 7.22396 8 7.5001C8 7.77624 7.77614 8.0001 7.5 8.0001H6.82929C6.41771 9.16458 5.30759 9.99907 4.00242 10.0001H6C6.55228 10.0001 7 10.4478 7 11.0001H1C1 10.4478 1.44772 10.0001 2 10.0001H3.99758C2.34184 9.99879 1 8.65615 1 7.0001Z" fill="white"/>
</svg>
