<svg width="580" height="580" viewBox="0 0 580 580" fill="none" xmlns="http://www.w3.org/2000/svg">
<g clip-path="url(#clip0)">
<path d="M66.275 1.76802C24.94 1.76802 1.70398 23.139 1.70398 66.804V516.927C1.70398 557.771 22.599 579.156 63.896 579.156H515.92C557.227 579.156 578.149 558.841 578.149 516.927V66.804C578.149 24.203 557.227 1.76802 514.628 1.76802C514.624 1.76802 66.133 1.62502 66.275 1.76802Z" fill="#111111" stroke="#EEEEEE" stroke-width="3.408"/>
<path d="M253.956 270.674L252.011 367.105" stroke="white" stroke-width="79.4581" stroke-linecap="round" stroke-linejoin="round"/>
<path d="M371.721 317.376L269.417 316.48L267.609 259.054" stroke="white" stroke-width="34.9102" stroke-linecap="round" stroke-linejoin="round"/>
<path d="M445.91 483.944L396.602 495.207L371.355 386.385" stroke="white" stroke-width="44.2267" stroke-linecap="round" stroke-linejoin="round"/>
<path d="M222.708 347.974C211.23 350.694 211.785 374.301 213.279 386.001C214.772 397.701 223.808 407.34 235.6 407.088L368.397 409.115C381.136 409.384 392.968 398.031 393.234 385.293C393.499 372.554 382.15 360.722 369.411 360.457L236.613 359.445C234.265 359.099 225.056 347.627 222.708 347.976V347.974Z" fill="white"/>
<path d="M187.222 315.742C166.526 319.708 146.243 334.282 130.699 366.618C102.191 425.925 126.989 497.648 186.296 526.157C245.603 554.665 310.705 536.676 339.214 477.368C335.86 465.36 330.06 438.293 330.06 438.293L314.757 438.408C313.416 443.453 311.355 448.756 309.576 452.432C290.694 491.712 243.707 507.572 204.425 488.689C165.144 469.807 151.473 425.008 168.167 384.748C175.082 368.068 181.391 364.772 186.802 360.427C186.655 336.131 186.825 332.221 187.222 315.742H187.222Z" fill="white"/>
<path d="M293.543 194C289.097 203.249 281.161 210.353 271.478 213.753C261.796 217.152 251.16 216.567 241.909 212.127C232.657 207.686 225.548 199.754 222.143 190.074C218.738 180.393 219.316 169.757 223.751 160.503C228.186 151.249 236.114 144.135 245.792 140.724C255.471 137.314 266.107 137.886 275.364 142.315C284.62 146.744 291.739 154.668 295.156 164.344C298.572 174.02 298.006 184.657 293.583 193.917" fill="white"/>
<path d="M73.9786 541.044C76.1558 537.144 73.9786 198.819 73.9786 198.819" stroke="white" stroke-width="28.4866" stroke-linecap="round" stroke-linejoin="round"/>
<path d="M505.153 541.044C507.331 537.144 505.153 198.819 505.153 198.819" stroke="white" stroke-width="28.4866" stroke-linecap="round" stroke-linejoin="round"/>
<path d="M51.6062 152.787L295.881 43.8021L528.394 149.297" stroke="white" stroke-width="38.5331" stroke-linecap="round" stroke-linejoin="round"/>
</g>
<defs>
<clipPath id="clip0">
<path d="M0 0H580V580H0V0Z" fill="white"/>
</clipPath>
</defs>
</svg>
