<svg width="580" height="580" viewBox="0 0 580 580" fill="none" xmlns="http://www.w3.org/2000/svg">
<g clip-path="url(#clip0)">
<path d="M66.275 1.76799C24.94 1.76799 1.70401 23.139 1.70401 66.804V516.927C1.70401 557.771 22.599 579.156 63.896 579.156H515.92C557.227 579.156 578.149 558.841 578.149 516.927V66.804C578.149 24.203 557.227 1.76799 514.628 1.76799C514.624 1.76799 66.133 1.62499 66.275 1.76799Z" fill="#111111" stroke="#EEEEEE" stroke-width="3.408"/>
<path d="M372.482 290H207.518" stroke="white" stroke-width="20" stroke-linecap="round"/>
<path fill-rule="evenodd" clip-rule="evenodd" d="M242.493 289.226L280.088 111.027H304.422L342.57 292.024L242.493 289.226Z" fill="white"/>
<path d="M333.381 37.625L323.352 54.8125C337.369 62.9828 347.904 76.4007 352.318 92.4219L371.57 87.0684C365.715 66.0828 351.789 48.4212 333.381 37.625ZM314.217 70.4648L304.186 87.6523C309.767 90.8881 313.943 96.2162 315.686 102.609L334.916 97.2617C331.733 85.9062 324.186 76.3262 314.217 70.4648Z" fill="white"/>
</g>
<defs>
<clipPath id="clip0">
<path d="M0 0H580V580H0V0Z" fill="white"/>
</clipPath>
</defs>
</svg>
