<svg width="580" height="580" viewBox="0 0 580 580" fill="none" xmlns="http://www.w3.org/2000/svg">
<path d="M119.64 490.497C119.64 490.497 134.584 497.237 142.123 497.038C178.667 496.085 255.204 461.266 253.1 353.649C196.466 383.392 151.417 426.521 141.823 454.113L119.64 490.497Z" fill="white"/>
<path d="M121.441 460.269L120.345 496.873C83.9669 496.873 43.2227 475.389 33.0881 441.491C24.4179 412.453 26.2485 376.622 26.2485 376.622C26.2485 376.622 94.6481 411.981 121.441 460.269Z" fill="white"/>
<path d="M142.123 318.99H117.161V497.036H142.123V318.99Z" fill="white"/>
<path d="M219.662 263.866C246.162 239.176 246.409 215.65 241.73 199.984C235.422 179.039 216.975 164.634 191.208 160.703C187.934 152.865 181.431 140.524 170.543 131.939C161.876 125.105 151.447 121.453 140.472 121.386C110.911 120.86 94.2836 144.264 87.6434 156.473C61.4241 157.876 40.7162 172.393 31.6542 196.132C23.4952 218.777 28.9978 241.691 46.7147 259.696C40.4058 285.343 46.9329 307.905 64.9757 322.131C82.9875 336.333 106.385 337.447 129.794 325.403C152 339.673 177.307 339.529 196.879 324.662C215.222 310.471 223.052 289.523 219.662 263.866ZM115.767 260.273C102.708 249.976 100.91 230.489 111.747 216.745C122.584 203.001 141.953 200.203 155.012 210.5C168.071 220.797 169.868 240.284 159.032 254.028C148.195 267.771 128.82 270.565 115.767 260.273Z" fill="white"/>
<path d="M412.713 482.892C412.713 482.892 434.844 495.154 446.008 494.792C500.129 493.058 514.955 442.626 562.842 357.249C506.051 374.529 497.777 387.543 445.565 432.215L412.713 482.892Z" fill="white"/>
<path d="M413.764 450.311L412.453 494.492C366.871 494.492 345.313 472.566 332.614 420.386C321.751 375.687 304.663 337.901 304.663 337.901C304.663 337.901 380.193 375.982 413.764 450.311Z" fill="white"/>
<path d="M446.008 274.137H409.041V494.792H446.008V274.137Z" fill="white"/>
<path d="M470.502 116.196C472.134 143.431 466.819 179.098 462.36 195.253C462.848 124.628 436.741 100.718 427.544 85.0045C427.544 85.0675 427.534 85.1306 427.524 85.1936C427.524 85.1306 427.514 85.0675 427.505 85.0045C418.308 100.718 392.201 124.628 392.689 195.253C388.23 179.098 382.915 143.431 384.547 116.196C384.547 116.196 342.903 144.077 342.903 217.35C342.903 278.944 380.785 321.42 427.505 321.42C427.515 321.389 427.515 321.373 427.524 321.341C427.524 321.373 427.534 321.389 427.544 321.42C474.264 321.42 512.146 278.96 512.146 217.35C512.146 144.077 470.502 116.196 470.502 116.196Z" fill="white"/>
</svg>
