<svg width="580" height="580" viewBox="0 0 580 580" fill="none" xmlns="http://www.w3.org/2000/svg">
<path d="M121.565 83.6554L61.9126 143.308" stroke="#ffffff" stroke-width="17.8957" stroke-linecap="round"/>
<path d="M142.443 152.255L68.9502 225.748" stroke="#ffffff" stroke-width="17.8957" stroke-linecap="round"/>
<path d="M233.831 135.432L160.339 208.925" stroke="#ffffff" stroke-width="17.8957" stroke-linecap="round"/>
<path d="M112.617 241.734L54.9419 299.409" stroke="#ffffff" stroke-width="17.8957" stroke-linecap="round"/>
<path d="M308.396 120.519L234.904 194.012" stroke="#ffffff" stroke-width="17.8957" stroke-linecap="round"/>
<path d="M412.788 75.7802L339.295 149.273" stroke="#ffffff" stroke-width="17.8957" stroke-linecap="round"/>
<path d="M442.614 165.259L369.121 238.751" stroke="#ffffff" stroke-width="17.8957" stroke-linecap="round"/>
<path d="M525.982 158.433L471.603 210.835" stroke="#ffffff" stroke-width="17.8957" stroke-linecap="round"/>
<path d="M525.982 68.9543L471.603 121.357" stroke="#ffffff" stroke-width="17.8957" stroke-linecap="round"/>
<path d="M527.959 230.362L471.603 285.4" stroke="#ffffff" stroke-width="17.8957" stroke-linecap="round"/>
<path d="M437.331 247.084L411.95 270.487" stroke="#ffffff" stroke-width="17.8957" stroke-linecap="round"/>
<path d="M360.967 188.572L324.382 223.838" stroke="#ffffff" stroke-width="17.8957" stroke-linecap="round"/>
<path d="M216.517 76.8632L173.342 121.357" stroke="#ffffff" stroke-width="17.8957" stroke-linecap="round"/>
<path fill-rule="evenodd" clip-rule="evenodd" d="M61.9124 337.177L285.608 217.873L509.304 337.177L494.326 352.429L419.54 322.264L285.528 306.136L151.21 322.031L76.8156 352.094L61.9124 337.177Z" fill="#ffffff" stroke="#ffffff" stroke-width="20" stroke-linecap="round" stroke-linejoin="round"/>
<path d="M181.217 307.351H151.391V516.134H181.217V307.351Z" fill="#ffffff" stroke="#ffffff" stroke-width="20" stroke-linecap="round" stroke-linejoin="round"/>
<path d="M419.826 307.351H390V516.134H419.826V307.351Z" fill="#ffffff" stroke="#ffffff" stroke-width="20" stroke-linecap="round" stroke-linejoin="round"/>
<path fill-rule="evenodd" clip-rule="evenodd" d="M346.165 531.706C329.85 478.729 241.942 478.813 225.71 531.706H346.165Z" fill="#ffffff" stroke="#ffffff" stroke-width="10" stroke-linecap="round" stroke-linejoin="round"/>
</svg>
