<svg width="580" height="580" viewBox="0 0 580 580" fill="none" xmlns="http://www.w3.org/2000/svg">
<path fill-rule="evenodd" clip-rule="evenodd" d="M45.9463 192.599V442.121V192.599Z" fill="#ffffff"/>
<path d="M45.9463 192.599V442.121" stroke="#ffffff" stroke-width="35.829" stroke-linecap="round"/>
<path fill-rule="evenodd" clip-rule="evenodd" d="M50.7448 349.35L530.594 352.549L50.7448 349.35Z" fill="#ffffff"/>
<path d="M50.7448 349.35L530.594 352.549" stroke="#ffffff" stroke-width="35.8288"/>
<path fill-rule="evenodd" clip-rule="evenodd" d="M535.393 432.524V269.375V432.524Z" fill="#ffffff"/>
<path d="M535.393 432.524V269.375" stroke="#ffffff" stroke-width="35.829" stroke-linecap="round"/>
<path d="M463.42 258.179H255.485C243.117 258.179 233.092 268.204 233.092 280.572C233.092 292.939 243.117 302.965 255.485 302.965H463.42C475.787 302.965 485.813 292.939 485.813 280.572C485.813 268.204 475.787 258.179 463.42 258.179Z" fill="#ffffff" stroke="#ffffff" stroke-width="41.2031"/>
<path d="M196.81 198.474C196.81 206.669 193.133 214.529 186.588 220.325C180.043 226.12 171.166 229.376 161.91 229.376C152.654 229.376 143.777 226.12 137.232 220.325C130.686 214.529 127.009 206.669 127.009 198.474C127.009 190.278 130.686 182.418 137.232 176.623C143.777 170.828 152.654 167.572 161.91 167.572C171.166 167.572 180.043 170.828 186.588 176.623C193.133 182.418 196.81 190.278 196.81 198.474Z" fill="#ffffff" stroke="#ffffff" stroke-width="52.9765"/>
<path d="M184.303 293.368H94.731C92.5225 293.368 90.7322 295.158 90.7322 297.366C90.7322 299.575 92.5225 301.365 94.731 301.365H184.303C186.511 301.365 188.302 299.575 188.302 297.366C188.302 295.158 186.511 293.368 184.303 293.368Z" fill="#ffffff" stroke="#ffffff" stroke-width="35.8288"/>
</svg>
