<svg width="580" height="580" viewBox="0 0 580 580" fill="none" xmlns="http://www.w3.org/2000/svg">
<path d="M301.543 154.727C294.293 154.727 286.964 156.801 280.49 161.139C263.115 172.784 258.472 196.309 270.117 213.684L287.045 238.973L341.645 184.373L333.035 171.525C325.73 160.623 313.749 154.727 301.543 154.727ZM96.1035 241.334C75.1868 241.334 58.2324 257.651 58.2324 278.566C58.2324 283.576 59.2123 288.284 60.9805 292.611C44.3325 296.661 31.9551 311.833 31.9551 329.701C31.9551 344.184 39.7941 356.894 51.7344 363.357L31.375 384.068V389.688C31.375 409.23 47.716 425.273 67.0918 425.273H100.744L128.508 397.51H67.0918C64.6035 397.51 62.3568 396.149 61.0137 394.119L86.3086 368.01H158.008L235.762 290.256C236.917 286.926 237.543 282.651 237.543 278.641C237.543 257.726 220.59 241.334 199.672 241.334H96.1035ZM400.375 246.941L222.043 425.273H224.131C233.893 425.273 243.105 420.86 250.77 412.648C253.265 409.978 277.963 384.889 293.955 368.654C294.17 368.434 294.361 368.01 294.561 368.01H376.215L403.979 395.773H293.977C286.31 395.773 280.096 401.99 280.096 409.656C280.096 417.323 286.31 423.537 293.977 423.537H506.545C529.747 423.537 548.625 404.392 548.625 380.949C548.623 373.283 542.407 366.992 534.74 366.992C527.074 366.992 520.859 373.283 520.859 380.949C520.859 389.223 514.57 395.773 506.543 395.773H443.242L415.477 368.01H446.375C471.619 368.01 492.084 347.064 492.084 321.818C492.084 309.194 486.969 297.608 478.693 289.338C473.501 284.147 431.174 262.407 400.375 246.941Z" fill="#3f3f3f"/>
<path fill-rule="evenodd" clip-rule="evenodd" d="M476.868 92.6641L495.087 110.883L495.105 110.867L516.319 132.082L138.319 510.082L120.099 491.863L120.083 491.879L98.8682 470.664L476.868 92.6641Z" fill="#3f3f3f"/>
</svg>
