<svg width="48" height="48" viewBox="0 0 48 48" fill="none" xmlns="http://www.w3.org/2000/svg">
<path fill-rule="evenodd" clip-rule="evenodd" d="M7.41421 4.58579C6.63316 3.80474 5.36683 3.80474 4.58579 4.58579C3.80474 5.36683 3.80474 6.63316 4.58579 7.41421L13.1716 16H9.99999L4 24V32H7.99999C7.99999 34.2091 9.79085 36 12 36C14.2091 36 16 34.2091 16 32H29.1716L40.5858 43.4142C41.3668 44.1953 42.6332 44.1953 43.4142 43.4142C44.1953 42.6332 44.1953 41.3668 43.4142 40.5858L7.41421 4.58579ZM9 24H16V20H12L9 24ZM9.99999 32C9.99999 33.1046 10.8954 34 12 34C13.1046 34 14 33.1046 14 32C14 30.8954 13.1046 30 12 30C10.8954 30 9.99999 30.8954 9.99999 32Z" fill="#3f3f3f"/>
<path d="M44 32H41.6568L21.6568 12H44V32Z" fill="#3f3f3f"/>
</svg>
