<svg width="48" height="48" viewBox="0 0 48 48" fill="none" xmlns="http://www.w3.org/2000/svg">
<path fill-rule="evenodd" clip-rule="evenodd" d="M30.8906 6.33588L33.1094 9.66408L28 13.0703V20H34.9296L38.3359 14.8906L41.6641 17.1094L37.0704 24H28L13.2353 40.6103C12.4496 41.4942 11.3233 42 10.1406 42C7.85381 42 6 40.1462 6 37.8594C6 36.6767 6.50576 35.5504 7.38973 34.7647L24 20V10.9296L30.8906 6.33588ZM10 40C11.1046 40 12 39.1046 12 38C12 36.8954 11.1046 36 10 36C8.89543 36 8 36.8954 8 38C8 39.1046 8.89543 40 10 40Z" fill="#3f3f3f"/>
</svg>
