<svg width="580" height="580" viewBox="0 0 580 580" fill="none" xmlns="http://www.w3.org/2000/svg">
<path d="M150.768 118.235C161.971 118.235 171.648 114.16 179.799 106.009C187.949 97.8595 192.024 88.1825 192.024 76.9784C192.024 65.2779 187.949 55.4805 179.799 47.5862C171.648 39.6928 161.971 35.7459 150.768 35.7454C139.564 35.7459 129.891 39.6928 121.749 47.5862C113.606 55.4805 109.535 65.2779 109.535 76.9784C109.535 88.1825 113.606 97.8595 121.749 106.009C129.891 114.16 139.564 118.235 150.768 118.235ZM205.007 126.626H95.783C81.0204 126.626 68.4182 131.847 57.9764 142.289C47.5336 152.732 42.3125 165.59 42.313 180.865V307.641C42.3125 319.87 47.9143 325.985 59.1185 325.985C69.8089 325.985 75.1544 319.87 75.1549 307.641V183.918H95.0139V519.983C95.0133 535.258 102.651 542.895 117.926 542.895C133.201 542.895 140.838 535.258 140.839 519.983V325.216H160.698V519.983C160.697 535.258 168.335 542.895 183.61 542.895C199.397 542.895 207.291 535.258 207.292 519.983V183.918H226.381V307.641C226.381 320.368 231.726 326.731 242.418 326.731C253.124 326.731 258.477 320.368 258.477 307.641V181.611C258.477 166.849 253.512 153.994 243.583 143.047C233.653 132.1 220.794 126.626 205.007 126.626Z" fill="#ffffff"/>
<path d="M243.315 414.852H280.341L293.687 485.374L313.148 414.852H350.088L369.634 485.374L382.981 414.852H419.834L392.022 541.086H353.79L331.661 461.609L309.617 541.086H271.386L243.315 414.852ZM516.705 489.507L550.89 499.84C548.593 509.427 544.977 517.435 540.04 523.864C535.103 530.294 528.975 535.144 521.656 538.416C514.337 541.688 505.023 543.324 493.714 543.324C479.995 543.324 468.786 541.33 460.09 537.34C451.393 533.35 443.887 526.333 437.573 516.287C431.258 506.241 428.101 493.382 428.101 477.711C428.101 456.815 433.655 440.756 444.763 429.534C455.87 418.311 471.585 412.7 491.906 412.7C507.807 412.7 520.307 415.914 529.406 422.344C538.504 428.773 545.264 438.647 549.684 451.965L515.241 459.628C514.036 455.782 512.773 452.969 511.453 451.19C509.271 448.205 506.602 445.908 503.445 444.301C500.287 442.694 496.757 441.89 492.853 441.89C484.013 441.89 477.239 445.449 472.532 452.567C468.973 457.849 467.193 466.144 467.193 477.452C467.193 491.459 469.317 501.06 473.565 506.255C477.813 511.45 483.783 514.048 491.476 514.048C498.938 514.048 504.578 511.953 508.396 507.762C512.213 503.572 514.983 497.487 516.705 489.507Z" fill="#ffffff"/>
</svg>
