<svg width="580" height="580" viewBox="0 0 580 580" fill="none" xmlns="http://www.w3.org/2000/svg">
<path d="M95.7052 513.309C63.5466 513.309 37.3916 487.144 37.3916 454.995C37.3916 422.847 63.5466 396.682 95.7052 396.682C127.864 396.682 154.019 422.847 154.019 454.995C154.019 487.144 127.864 513.309 95.7052 513.309Z" fill="#ffffff"/>
<path d="M166.573 265.827C93.2856 265.827 45.9238 310.849 45.9238 380.533V394.691C59.4543 383.5 76.808 376.76 95.7049 376.76C138.845 376.76 173.931 411.845 173.931 454.986C173.931 473.882 167.191 491.236 156 504.767H166.573C224.708 504.777 334.654 486.766 334.654 418.635C334.654 355.513 247.726 265.827 166.573 265.827Z" fill="#ffffff"/>
<path d="M548.265 482.777L385.616 529.601L374.598 491.331C371.56 480.778 377.671 469.725 388.225 466.687L512.604 430.88C523.157 427.842 534.21 433.953 537.248 444.507L548.265 482.777Z" fill="#ffffff"/>
<path d="M269.372 277.69C269.372 277.69 297.453 240.858 293.578 223.305C290.708 209.009 285.505 202.653 260.763 191.704C194.945 162.578 110.839 135.053 102.174 126.34C72.0295 96.0295 99.915 59.4936 136.624 67.3518C172.119 74.9504 310.795 125.466 330.797 136.466C339.932 141.49 360.469 150.141 366.944 169.01C390.462 256.781 441.911 425.501 441.911 425.501" stroke="#ffffff" stroke-width="37.4395"/>
</svg>
