<svg width="580" height="580" viewBox="0 0 580 580" fill="none" xmlns="http://www.w3.org/2000/svg">
<path d="M289.926 19.0422C276.258 19.0114 260.334 23.1841 248.917 29.7622C247.343 30.6691 244.432 32.3063 242.443 33.4148C240.454 34.5233 235.32 37.5093 231.04 40.0368C219.089 47.0957 208.57 52.2081 200.543 54.8846C184.564 60.2127 170.353 62.4095 152.763 62.2193C137.778 62.0573 130.91 62.8964 125.562 65.5749C121.744 67.4878 119.586 69.5318 117.99 72.7612C116.752 75.2665 116.623 75.7729 116.475 79.3536C116.3 83.6193 116.735 86.4816 117.901 88.678C118.695 90.174 121.188 93.3523 125.087 97.8835C126.381 99.3873 128.565 101.982 129.957 103.644C131.349 105.307 134.223 108.624 136.312 111.009C138.401 113.394 140.743 116.116 141.538 117.067C143.224 119.081 150.315 126.981 153.506 130.4C154.718 131.699 157.876 135.197 160.514 138.18C163.42 141.468 166.366 144.755 169.363 148.099C174.457 143.792 179.802 139.735 185.339 135.983C185.057 135.66 184.874 135.468 184.597 135.151C179.631 129.472 173.232 122.13 170.373 118.849C163.713 111.204 159.025 105.843 156.742 103.288C155.748 102.175 153.612 99.7536 152.021 97.8835C150.43 96.0134 148.385 93.662 147.477 92.6572C146.57 91.6523 145.438 90.3062 144.953 89.6876C144.469 89.069 143.036 87.3914 141.776 85.946C139.799 83.6793 139.553 83.2399 139.994 82.7983C140.592 82.2006 144.686 82.0359 164.879 81.7886C184.177 81.5523 185.878 81.3082 199.029 76.978C206.583 74.4904 212.454 71.8834 221.657 66.9112C229.296 62.7838 238.207 57.9236 242.087 55.7457C251.75 50.3225 261.925 45.399 267.031 43.6894C271.143 42.3127 278.333 40.3663 282.265 39.5914C287.542 38.5513 296.927 38.4575 301.923 39.3835C313.601 41.5478 328.88 47.5104 339.934 54.2016C342.402 55.6956 345.289 57.3493 346.348 57.8838C347.406 58.4182 351.461 60.6679 355.375 62.8726C359.289 65.0773 363.319 67.3158 364.314 67.8615C365.308 68.4071 368.31 70.0846 370.995 71.6031C381.925 77.7841 393.441 82.8159 403.808 85.9163C411.323 88.1635 415.304 88.7668 425.427 89.1828C442.472 89.8832 449.844 90.5157 450.341 91.3209C450.432 91.4673 446.57 95.5702 441.759 100.437C433.564 108.728 416.024 126.109 401.73 140.17C407.404 144.341 412.839 148.824 418.003 153.592C423.502 148.085 428.897 142.654 435.553 136.012C458.079 113.537 470.43 100.966 471.247 99.6653C473.294 96.4059 473.444 95.8025 473.474 90.0143C473.496 85.6721 473.359 84.2677 472.791 82.531C471.928 79.8938 469.612 77.217 467.089 75.9386C460.499 72.5988 454.369 71.3332 441.165 70.5637C425.562 69.6544 422.674 69.364 415.895 68.0396C405.552 66.0193 395.297 62.5639 384.21 57.379C379.883 55.3555 378.013 54.2895 365.442 46.7183C360.842 43.9476 355.385 40.7214 353.297 39.532C351.208 38.3426 347.626 36.2448 345.338 34.8698C333.962 28.0314 318.843 22.0289 308.694 20.3191C304.096 19.5445 297.027 19.0581 289.926 19.0422ZM90.8186 105.545C87.3723 105.459 83.4452 105.955 80.8112 106.941C74.2783 109.385 71.7137 117.094 70.8336 137.111C70.1107 153.555 69.9801 154.585 67.0325 165.352C64.4074 174.94 61.6904 181.866 55.8374 193.859C51.484 202.299 46.9196 211.229 41.1975 218.655C41.1975 219.314 38.4685 224.905 37.5747 226.079C36.4244 227.589 28.6699 242.711 26.8249 247.044C21.7929 258.86 19.2418 269.154 18.3914 281.283C17.6015 292.548 18.9588 301.395 23.7069 316.115C25.6375 322.101 29.9959 331.454 38.5546 347.949C50.8335 371.613 53.9575 378.45 57.5894 389.641C62.5766 405.009 63.5577 411.982 63.3503 430.413C63.2634 438.136 63.3721 443.641 63.6176 445.231C65.3038 456.155 70.9663 462.367 79.8016 462.989C82.461 463.176 82.7338 463.127 85.2061 461.92C88.6064 460.26 90.8062 458.833 97.797 453.783C103.235 449.856 106.139 447.577 113.268 441.697C114.895 440.355 117.133 438.584 118.227 437.748C119.321 436.912 121.442 435.082 122.949 433.68C124.456 432.277 127.681 429.413 130.135 427.325C137.709 420.88 142.097 417.096 146.943 412.804C142.472 407.508 138.284 401.946 134.411 396.174C134.302 396.273 134.052 396.511 133.966 396.59C132.767 397.691 130.952 399.251 129.957 400.035C128.963 400.818 126.264 403.089 123.959 405.083C118.293 409.983 111.701 415.61 106.854 419.663C103.088 422.813 101.788 423.935 93.996 430.651C92.3035 432.109 89.4032 434.543 87.5818 436.085C85.7604 437.626 84.2022 438.906 84.1074 438.906C83.4666 438.906 83.3087 435.848 83.2759 421.89C83.2516 411.498 83.1163 405.3 82.8305 403.628C81.5495 396.133 78.6183 386.51 75.0206 377.971C73.2009 373.652 67.5901 362.617 58.8663 346.137C47.9935 325.598 45.068 319.195 41.9696 309.077C36.7351 291.984 36.6563 280.817 41.6132 264.772C45.0968 253.496 49.8261 243.6 59.5196 227.326C73.8586 203.252 77.7169 195.907 83.1572 182.397C89.0004 167.886 89.3557 165.645 90.6404 135.834C90.8801 130.271 90.9478 129.875 91.6204 129.747C92.174 129.641 100.086 137.379 125.711 163.154C131.255 168.731 136.204 173.728 140.707 178.299C144.822 172.869 149.253 167.685 153.921 162.738C153.505 162.318 153.224 162.046 152.793 161.61C134.288 142.91 116.156 123.36 96.1044 106.347C94.7817 105.869 92.8863 105.596 90.8186 105.545ZM494.914 116.74C492.736 116.795 491.418 117.186 490.252 117.958C489.453 118.486 485.551 121.86 481.581 125.471C477.611 129.082 473.365 132.928 472.138 133.993C470.911 135.059 467.004 138.641 463.437 141.952C450.759 153.718 445.924 158.129 442.056 161.521C439.902 163.41 437.048 165.94 435.731 167.133C435.017 167.78 434.033 168.64 433.237 169.36C437.781 174.655 442.035 180.209 445.976 185.99C447.235 184.831 448.689 183.508 449.599 182.664C452.174 180.277 455.929 176.888 457.943 175.121C459.958 173.354 463.781 169.852 466.466 167.341C469.151 164.831 472.655 161.633 474.246 160.244C475.837 158.855 479.439 155.616 482.234 153.028C493.055 143.01 495.925 140.558 496.31 140.942C496.551 141.183 496.742 146.99 496.874 157.274C497.134 177.558 497.196 177.962 501.447 191.543C504.582 201.557 505.958 204.606 519.205 231.305C530.541 254.154 531.663 256.692 536.102 269.107C541.341 283.762 542.793 295.237 540.823 306.464C539.665 313.067 539.134 315.032 537.022 320.54C532.572 332.149 529.697 337.694 517.542 358.075C513.865 364.241 509.963 370.825 508.871 372.715C507.779 374.604 506.325 377.134 505.634 378.327C502.05 384.517 494.957 400.407 493.459 405.617C491.628 411.985 490.668 418.126 490.341 425.691C489.841 437.276 489.209 447.284 488.916 448.29C488.77 448.787 488.409 449.242 488.114 449.299C487.179 449.481 487.213 449.513 470.98 434.006C466.607 429.829 456.78 420.479 449.124 413.219C445.559 409.839 443.236 407.615 440.482 404.994C436.506 410.244 432.267 415.28 427.773 420.079C432.763 424.89 437.976 429.917 439.562 431.482C441.174 433.073 445.551 437.315 449.302 440.896C453.053 444.476 458.098 449.283 460.497 451.586C462.896 453.889 469.091 459.751 474.276 464.622C485.147 474.836 484.507 474.47 491.113 474.273C494.922 474.16 495.431 474.058 497.646 472.967C499.235 472.184 500.695 471.103 501.922 469.759C506.307 464.962 507.946 458.923 508.782 444.697C509.733 428.513 509.805 427.977 511.128 422.098C514.775 405.886 521.041 391.071 532.479 371.646C538.991 360.585 542.378 354.86 544.149 351.958C546.691 347.793 550.752 340.006 552.197 336.546C556.301 326.712 556.814 325.339 558.314 319.352C562.565 302.377 562.196 286.46 557.185 269.82C553.951 259.08 551.191 252.771 537.735 225.158C529.087 207.413 529.505 208.359 526.005 199.145C521.443 187.135 519.066 178.883 517.423 169.42C516.768 165.644 516.61 162.809 516.384 151.038C516.13 137.824 516.079 136.895 515.166 132.776C513.457 125.062 512.317 122.391 509.762 120.036C507.714 118.148 505.582 117.476 499.933 116.978C497.851 116.794 496.221 116.707 494.914 116.74ZM160.9 427.651C149.747 439.189 136.176 453.1 127.908 461.415C109.047 480.384 107.236 482.625 106.26 488.23C105.31 493.686 106.356 498.211 109.378 501.741C113.664 506.749 120.484 509.06 132.511 509.581C152.057 510.428 154.957 510.826 166.512 514.124C180.714 518.178 196.788 525.841 216.757 538.059C218.547 539.154 220.998 540.6 222.191 541.266C223.385 541.932 226.308 543.619 228.694 545.037C245.326 554.924 258.935 559.59 274.633 560.776C277.614 561.001 280.114 561.263 280.216 561.37C280.563 561.734 294.848 561.124 298.301 560.598C309.411 558.904 318.913 556.101 327.966 551.808C330.055 550.818 334.769 548.581 338.449 546.849C342.128 545.116 348.555 542.038 352.732 539.989C361.315 535.779 370.915 531.254 372.806 530.546C373.503 530.285 375.294 529.566 376.786 528.942C387.021 524.668 395.321 522.18 407.164 519.796C416.214 517.975 415.961 517.973 428.901 518.044C440.234 518.107 440.867 518.084 445.531 517.183C450.681 516.189 456.653 514.443 458.151 513.501C460.227 512.195 461.838 509.563 462.427 506.522C462.639 505.428 462.92 502.51 463.051 500.019C463.24 496.417 463.181 495.222 462.754 494.199C462.244 492.978 455.011 484.362 449.866 478.846C447.049 475.826 439.443 467.305 429.02 455.535C424.88 450.861 418.561 443.868 414.974 440.005C413.731 438.666 412.41 437.229 411.114 435.818C406.072 440.039 400.815 443.984 395.345 447.666C397.991 450.565 400.202 452.924 402.146 454.971C403.852 456.769 408.29 461.663 412.034 465.84C415.778 470.017 420.261 474.888 421.982 476.679C423.703 478.469 426.087 481.078 427.268 482.469C428.449 483.86 430.732 486.39 432.346 488.082C436.228 492.151 440.081 496.809 439.859 497.168C439.338 498.01 436.058 498.229 423.2 498.208C409.614 498.186 409.478 498.18 403.333 499.247C393.44 500.965 382.072 504.272 373.341 507.978C371.551 508.737 360.912 513.911 349.674 519.47C322.078 533.119 323.221 532.611 311.248 536.574C304.219 538.901 299.503 540.068 293.787 540.91C290.377 541.412 287.36 541.601 282.77 541.563C275.959 541.507 276.122 541.516 270.506 540.672C263.117 539.562 248.295 534.189 240.098 529.655C236.846 527.857 225.514 521.317 225.072 520.984C224.333 520.429 204.123 508.686 199.415 506.077C192.488 502.238 182.306 497.848 174.025 495.119C165.222 492.219 160.904 491.652 139.133 490.576C134.426 490.343 130.384 490.017 130.135 489.863C129.802 489.657 129.929 489.27 130.67 488.379C131.943 486.847 142.211 476.159 155.822 462.187C159.303 458.614 166.783 450.884 172.451 445.023C173.854 443.573 174.92 442.482 176.431 440.925C171.019 436.778 165.825 432.35 160.9 427.651Z" fill="white"/>
<path d="M295.034 92.2413C295.671 96.8021 296.215 101.382 297.261 105.693C297.932 109.062 298.845 112.326 299.934 115.523C393.074 120.379 467 197.318 467 291.676C467 353.904 434.841 408.55 386.228 439.945C386.218 439.954 386.209 439.966 386.199 439.975C385.419 440.599 384.566 441.143 383.675 441.578C383.616 441.607 383.556 441.639 383.496 441.668C374.18 447.445 364.288 452.383 353.92 456.367C345.409 467.795 335.746 478.269 325.383 488.111C418.847 471.606 490.073 389.798 490.073 291.676C490.073 183.181 402.969 94.6216 295.034 92.2413ZM261.003 94.3497C164.988 108.684 91.1152 191.735 91.1152 291.676C91.1152 393.427 167.706 477.618 266.259 489.655C253.242 480.838 241.221 470.265 231.486 457.941C163.103 433.665 114.189 368.435 114.189 291.676C114.189 205.7 175.549 134.196 256.905 118.492C257.862 110.328 259.292 102.249 261.003 94.3497ZM281.76 467.829C280.941 475.492 280.72 483.205 281.166 490.903C282.962 490.986 284.763 491.045 286.571 491.081C288.851 483.433 291.015 475.762 292.866 468.037C292.102 468.047 291.346 468.067 290.579 468.067C287.622 468.067 284.681 467.973 281.76 467.829V467.829Z" fill="white"/>
<path fill-rule="evenodd" clip-rule="evenodd" d="M203.2 418.425C176.683 403.469 160.522 368.5 172.455 316.236C180.827 279.572 205.22 234.322 186.525 196.645C209.203 212.32 232.782 249.594 256.561 291.694C258.201 246.166 234.576 216.337 251.558 154.123C263.211 231.089 309.954 235.859 333.684 305.868C343.778 272.952 364.774 262.118 354.528 180.387C457.708 321.3 398.901 371.357 378.29 421.76L384.96 351.724C352.599 445.269 326.671 462.527 303.252 483.459C316.341 439.547 321.502 395.636 294.914 351.724C288.459 423.822 270.24 408.818 266.566 466.784C230.138 439.289 222.657 411.086 216.124 365.065C211.167 370.45 202.799 392.958 203.2 418.425Z" fill="white"/>
<path fill-rule="evenodd" clip-rule="evenodd" d="M278.656 82.0027C251.672 191.573 300.938 190.61 328.265 255.008C347.432 155.709 290.091 178.051 278.656 82.0027Z" fill="white"/>
</svg>
