<svg width="580" height="580" viewBox="0 0 580 580" fill="none" xmlns="http://www.w3.org/2000/svg">
<g clip-path="url(#clip0)">
<path d="M176.634 458.981C171.628 458.448 166.799 458.038 162.173 457.748C157.451 457.452 152.926 457.274 148.601 457.195C144.276 457.117 140.149 457.138 136.222 457.24C128.46 457.443 121.505 457.971 115.302 458.672C90.4485 462.34 58.9729 472.661 58.9018 484.084C58.805 499.933 98.0477 513.144 146.558 513.584C195.065 514.026 234.475 501.531 234.572 485.67C234.645 474.008 202.197 462.974 176.634 458.981V458.981Z" fill="#ffffff"/>
<path d="M142.91 66.4045L121.414 117.481L116.427 438.528C120.592 438.112 124.803 437.705 129.523 437.479C135.554 437.189 142.036 437.076 148.966 437.203C154.742 437.309 160.827 437.581 167.222 438.053C169.859 438.247 172.772 438.633 175.513 438.899L166.142 112.883L142.91 66.4045Z" fill="#ffffff"/>
<path d="M380.657 168.514L380.408 490.099C380.397 499.256 387.846 506.726 397.025 506.75L428.892 506.774C433.478 506.777 437.635 504.917 440.648 501.909C443.66 498.901 445.527 494.746 445.531 490.161L445.78 168.568L380.657 168.514Z" fill="#ffffff"/>
<path d="M504.481 70.6972L475.03 70.6876C470.746 70.6801 466.961 73.458 465.616 77.5922C464.982 79.5319 460.856 84.4663 457.651 84.4596L445.5 84.4674C444.912 81.1002 443.348 77.987 440.887 75.5482C437.731 72.3616 433.542 70.605 429.088 70.6144L397.158 70.5858C396.979 70.5857 396.623 70.6109 396.33 70.6404L389.609 70.631C375.735 70.6205 362.769 70.6106 359.483 70.6166C331.335 70.5867 279.377 121.311 273.548 127.098C273.544 127.102 273.539 127.106 273.535 127.11C271.53 129.113 271.2 132.242 272.735 134.62C274.279 137.007 277.284 137.986 279.934 136.961C280.168 136.872 303.835 127.944 342.566 128.878C359.935 129.295 380.6 132.223 380.472 144.085C380.484 144.378 380.53 145.843 380.53 151.069C380.53 151.553 380.636 151.914 380.669 152.355L380.669 152.542L445.796 152.592L445.801 146.606C445.805 146.482 445.741 146.385 445.733 146.266L445.736 136.735C445.736 136.735 445.74 136.73 445.744 136.735C446.173 136.731 448.449 136.724 457.611 136.731C461.058 136.733 464.931 141.394 465.448 142.957C467.04 147.738 470.77 150.836 474.939 150.839C476.599 150.845 504.416 150.849 504.416 150.849C508.992 150.852 513.154 148.996 516.171 145.984C519.183 142.976 521.055 138.817 521.067 134.232L521.098 87.3482C521.109 78.1736 513.656 70.7085 504.481 70.6972Z" fill="#ffffff"/>
</g>
<defs>
<clipPath id="clip0">
<path d="M0 0H580V580H0V0Z" fill="#ffffff"/>
</clipPath>
</defs>
</svg>
