<svg width="48" height="48" viewBox="0 0 48 48" fill="none" xmlns="http://www.w3.org/2000/svg">
<g opacity="0.5">
<path d="M18.6325 4.10318C19.6804 4.45247 20.2467 5.58511 19.8974 6.633L19.4416 8.00049H15.2252L16.1027 5.36809C16.452 4.3202 17.5846 3.75388 18.6325 4.10318Z" fill="white"/>
<path d="M6.05909 35.4989L4.10269 41.3681C3.75339 42.416 4.31971 43.5486 5.3676 43.8979C6.41549 44.2472 7.54813 43.6809 7.89742 42.633L10.1083 36.0005H8C7.29569 36.0005 6.63389 35.8185 6.05909 35.4989Z" fill="white"/>
<path d="M37.8919 36.0005L40.1027 42.633C40.452 43.6809 41.5846 44.2472 42.6325 43.8979C43.6804 43.5486 44.2467 42.416 43.8974 41.3681L41.941 35.4988C41.3662 35.8184 40.7043 36.0005 40 36.0005H37.8919Z" fill="white"/>
<path d="M32.7749 8.00049L31.8974 5.36809C31.5481 4.3202 30.4155 3.75388 29.3676 4.10318C28.3197 4.45247 27.7534 5.58511 28.1027 6.633L28.5585 8.00049H32.7749Z" fill="white"/>
</g>
<path fill-rule="evenodd" clip-rule="evenodd" d="M8 8C5.79086 8 4 9.79086 4 12V32C4 34.2091 5.79086 36 8 36H40C42.2091 36 44 34.2091 44 32V12C44 9.79086 42.2091 8 40 8H8ZM12 19.1716L9.41421 16.5858C8.63316 15.8047 7.36684 15.8047 6.58579 16.5858C5.80474 17.3668 5.80474 18.6332 6.58579 19.4142L9.17157 22L6.58579 24.5858C5.80474 25.3668 5.80474 26.6332 6.58579 27.4142C7.36684 28.1953 8.63316 28.1953 9.41421 27.4142L12 24.8284L14.5858 27.4142C15.3668 28.1953 16.6332 28.1953 17.4142 27.4142C18.1953 26.6332 18.1953 25.3668 17.4142 24.5858L14.8284 22L17.4142 19.4142C18.1953 18.6332 18.1953 17.3668 17.4142 16.5858C16.6332 15.8047 15.3668 15.8047 14.5858 16.5858L12 19.1716ZM26 18C26 16.8954 25.1046 16 24 16C22.8954 16 22 16.8954 22 18V20H20C18.8954 20 18 20.8954 18 22C18 23.1046 18.8954 24 20 24H22V26C22 27.1046 22.8954 28 24 28C25.1046 28 26 27.1046 26 26V24H28C29.1046 24 30 23.1046 30 22C30 20.8954 29.1046 20 28 20H26V18ZM30.5858 16.5858C31.3668 15.8047 32.6332 15.8047 33.4142 16.5858L36 19.1716L38.5858 16.5858C39.3668 15.8047 40.6332 15.8047 41.4142 16.5858C42.1953 17.3668 42.1953 18.6332 41.4142 19.4142L38 22.8284V26C38 27.1046 37.1046 28 36 28C34.8954 28 34 27.1046 34 26V22.8284L30.5858 19.4142C29.8047 18.6332 29.8047 17.3668 30.5858 16.5858Z" fill="white"/>
</svg>
