<svg width="580" height="580" viewBox="0 0 580 580" fill="none" xmlns="http://www.w3.org/2000/svg">
<path d="M283.447 178.807C323.52 178.807 356.008 146.318 356.008 106.245C356.008 66.1701 323.52 33.6808 283.447 33.6808C243.372 33.6808 210.887 66.1701 210.887 106.245C210.887 146.318 243.372 178.807 283.447 178.807Z" fill="#ffffff"/>
<path d="M283.328 330.492H206.625V275.107L147.965 334.157C121.464 360.658 85.5429 326.677 112.088 300.128L209.217 202.814C217.095 194.992 225.717 190.015 239.399 190.015H283.328H283.401H326.494C340.177 190.015 349.406 194.84 357.513 202.814L455.629 301.082C480.901 326.354 444.01 360.658 419.77 335.127L359.572 274.803V330.492H283.401H283.328Z" fill="#ffffff"/>
<path d="M359.255 359.216L301.61 416.866L343.933 459.108L300.566 502.475C274.972 528.072 310.281 564.68 336.749 538.211L405.334 466.898C420.053 451.877 424.123 424.133 408.343 408.353C408.29 408.3 359.255 359.216 359.255 359.216Z" fill="#ffffff"/>
<path d="M206.637 359.216L264.284 416.866L221.961 459.108L265.328 502.475C290.922 528.072 255.613 564.68 229.145 538.211L160.56 466.898C145.841 451.877 141.771 424.133 157.551 408.353C157.604 408.3 206.637 359.216 206.637 359.216Z" fill="#ffffff"/>
</svg>
