<svg width="580" height="580" viewBox="0 0 580 580" fill="none" xmlns="http://www.w3.org/2000/svg">
<path d="M143.466 511.413C145.293 517.611 149.76 523.411 155.708 525.075C158.548 525.869 161.736 526.084 164.705 525.213L503.032 421.737L509.87 445.238L172.628 547.708C162.953 550.268 160.703 548.897 150.904 546.45C140.822 543.629 127.59 529.926 124.514 519.681L143.465 511.412L143.466 511.413Z" fill="#ffffff"/>
<path d="M234.763 166.705C226.922 170.403 220.264 175.187 214.396 181.253C208.478 187.22 202.807 192.053 199.85 202.804C196.742 213.505 195.705 227.461 196.347 245.263H123.064C125.58 254.584 129.968 261.685 136.428 267.357C142.791 272.88 150.681 276.628 161.432 278.404C172.083 280.13 188.95 279.932 199.85 277.22C210.699 274.261 219.229 268.836 225.985 260.946L260.308 291.175C246.107 305.477 235.899 317.51 228.944 328.407C221.893 339.061 216.615 344.436 219.033 355.186C221.498 365.738 228.748 374.913 243.443 391.827C258.041 408.841 305.68 455.788 305.68 455.788C320.932 448.041 339.6 445.211 355.233 438.287C343.493 425.156 327.398 410.675 312.681 394.735C298.381 378.756 289.702 367.316 285.903 359.279C282.157 351.338 288.321 350.798 290.539 347.59C292.562 344.436 292.117 346.161 298.727 340.045C305.383 333.437 322.694 318.544 330.139 309.816C337.339 301.087 342.666 296.946 342.321 288.857C341.877 280.67 346.093 283.744 336.772 273.536L405.15 274.243C404.152 287.65 408.242 295.336 414.46 295.65C421.12 295.604 423.359 285.543 425.39 273.494L462.622 264.501L425.311 253.991C424.185 236.026 425.026 232.145 415.801 231.972C408.063 231.827 406.23 240.579 405.343 252.216L316.135 251.624C299.321 231.503 284.477 214.638 270.815 200.436C257.153 186.135 245.267 175.089 234.763 166.705Z" fill="#ffffff"/>
<path d="M172.434 101.924C192.824 101.924 209.372 118.472 209.372 138.861C209.372 159.251 192.824 175.799 172.434 175.799C152.045 175.799 135.497 159.251 135.497 138.861C135.497 118.472 152.046 101.924 172.434 101.924Z" fill="#ffffff"/>
<path d="M251.908 131.99C256.355 128.201 266.679 117.437 283.586 98.5543C300.432 79.6113 322.974 53.6923 352.164 19.6553C371.265 50.0243 385.321 72.1543 395.705 86.5273C405.851 100.84 411.485 106.914 412.85 105.229C423.649 94.4053 432.724 85.2043 440.555 77.1463C448.269 69.0873 454.256 62.4133 459.002 57.1213C482.731 90.5573 502.426 118.099 519.691 141.372C536.659 164.465 550.125 181.964 560.564 194.834L484.461 147.637C479.121 163.153 481.901 157.97 469.562 158.752C456.985 159.233 437.649 141.793 422.101 138.666C406.503 135.479 391.076 145.281 377.196 139.989C363.195 134.336 361.719 125.886 348.492 120.115C335.143 114.462 331.298 109.962 312.558 111.615C291.694 114.032 267.329 123.511 251.908 131.99Z" fill="#ffffff"/>
</svg>
