<svg width="580" height="580" viewBox="0 0 580 580" fill="none" xmlns="http://www.w3.org/2000/svg">
<g clip-path="url(#clip0)">
<path fill-rule="evenodd" clip-rule="evenodd" d="M400.425 375.825C412.944 385.384 427.035 397.819 426.413 415.044C427.045 425.792 426.676 436.698 429.16 447.248C437.179 459.856 444.465 473.605 446.737 488.512C447.895 510.076 431.641 530.328 411.595 536.757C390.856 541.08 367.87 535.742 352.665 520.558C342.579 511.474 335.165 497.963 321.023 494.654C308.171 491.204 294.347 489.583 283.392 481.311C272.464 474.311 265.697 462.915 259.572 451.861C252.804 438.345 253.508 421.592 261.994 408.988C273.66 389.428 298.022 381.936 319.705 383.186C328.823 383.949 338.47 384.625 346.368 378.985C356.409 373.031 367.199 364.47 379.669 367.811C387.002 369.198 393.963 372.142 400.425 375.825Z" fill="#ffffff"/>
<path fill-rule="evenodd" clip-rule="evenodd" d="M293.698 279.892C302.56 271.51 316.243 267.015 327.863 272.068C336.184 275.661 343.016 282.372 347.653 290.062C355.154 305.694 354.07 323.971 349.862 340.359C347.956 348.259 345.117 356.229 339.31 362.145C332.887 369.391 322.843 372.797 313.319 371.452C299.867 371.525 287.201 362.914 281.618 350.788C278.207 343.726 276.111 335.908 276.704 328.02C277.212 310.855 281.493 292.642 293.698 279.892Z" fill="#ffffff"/>
<path fill-rule="evenodd" clip-rule="evenodd" d="M431.094 262.478C431.094 262.478 447.533 272.374 444.104 298.874C444.104 298.874 442.257 316.286 427.601 336.004C427.601 336.004 414.699 356.956 396.992 358.108C396.992 358.108 370.646 363.503 363.418 330.904C363.418 330.904 358.434 308.053 368.091 285.672C368.091 285.672 377.884 262.415 398.817 257.44C398.817 257.44 416.355 253.591 431.094 262.478Z" fill="#ffffff"/>
<path fill-rule="evenodd" clip-rule="evenodd" d="M515.02 318.565C515.02 318.565 531.755 336.617 515.781 358.508C515.781 358.508 505.869 377.825 484.764 388.244C484.764 388.244 461.166 402.538 444.975 395.984C444.975 395.984 425.55 391.334 428.618 359.112C428.618 359.112 437.095 325.51 461.664 314.088C461.664 314.088 493.957 294.679 515.02 318.565Z" fill="#ffffff"/>
<path fill-rule="evenodd" clip-rule="evenodd" d="M529.31 407.271C537.107 415.839 538.362 429.047 533.393 439.345C529.086 448.692 521.749 456.302 513.894 462.781C501.921 471.963 486.98 477.333 471.892 477.703C460.893 477.305 451.678 469.23 447.093 459.632C444.868 456.295 444.648 452.346 445.135 448.475C446.054 435.395 452.625 422.71 463.387 415.069C473.077 407.61 483.784 400.482 496.073 398.474C505.65 396.514 516.521 396.724 524.679 402.793C526.41 404.074 527.968 405.587 529.31 407.271Z" fill="#ffffff"/>
<path d="M188.264 419.978C173.352 395.85 200.09 364.594 218.367 384.789C224.048 391.067 221.404 391.759 208.744 387.309C197.469 383.346 197.469 383.347 196.177 398.908C195.467 407.467 194.711 415.767 194.497 417.353C194.032 420.801 189.859 422.558 188.264 419.978ZM159.41 390.898C158.768 389.858 166.999 383.375 177.701 376.49C188.404 369.605 197.16 362.584 197.16 360.888C197.16 358.517 196.07 358.827 192.451 362.227C186.522 367.798 184.491 367.83 185.319 362.341C185.809 359.087 188.714 357.179 197.16 354.563C203.316 352.657 210.412 349.986 212.93 348.629C219.581 345.043 220.232 358.093 213.763 365.334C207.676 372.148 161.302 393.959 159.41 390.898ZM169.943 366.581C159.386 354.035 165.079 343.122 187.308 333.296C199.897 327.732 202.891 324.767 199.425 321.302C197.762 319.639 197.16 319.672 197.16 321.427C197.16 322.741 194.413 325.237 191.056 326.973C184.919 330.147 181.099 324.507 186.94 320.897C206.301 308.931 219.543 309.343 219.543 321.91C219.543 339.452 211.911 347.803 192.56 351.434C183.519 353.13 181.418 355.408 180.539 364.468C179.646 373.673 176.448 374.311 169.943 366.581ZM161.867 336.478C150.474 323.889 163.024 303.68 187.206 295.675C208.627 288.584 214.541 278.139 201.183 270.99C197.457 268.996 197.16 269.503 197.16 277.867C197.16 286.07 196.602 287.091 191.056 289.024C184.952 291.152 184.952 291.152 184.952 281.273C184.952 271.394 184.952 271.394 196.652 267.82C203.087 265.854 211.047 262.907 214.341 261.27C220.033 258.443 220.564 258.566 225.01 263.734C239.609 280.707 230.517 300.348 203.771 309.614C181.505 317.328 178.506 319.277 179.232 325.563C179.726 329.844 178.398 332.044 173.161 335.621C165.121 341.112 166 341.045 161.867 336.478ZM153.515 294.732C139.253 276.033 151.868 257.622 188.466 243.723C197.961 240.117 205.045 235.913 208.456 231.859C213.448 225.926 213.74 223.653 210.512 215.858C209.417 213.215 210.991 212.337 218.723 211.277C223.985 210.556 229.625 208.857 231.258 207.502C235.188 204.24 239.099 209.432 240.946 220.363C243.797 237.24 230.848 250.368 200.907 260.956C174.751 270.205 167.052 279.617 178.87 287.895C182.769 290.626 182.47 291.017 172.578 296.15C159.563 302.902 159.758 302.917 153.515 294.732ZM147.039 243.401C126.511 221.634 152.428 185.679 188.768 185.509C215.096 185.386 244.979 174.49 244.979 165.013C244.979 158.536 239.523 157.747 232.195 163.165C214.764 176.052 195.094 159.911 211.454 146.145C228.356 131.923 266.344 144.294 266.344 164.02C266.344 186.287 244.262 201.408 202.353 207.842C166.794 213.3 158.469 221.371 174.491 234.853C180.308 239.748 180.308 239.748 169.88 245.207C156.507 252.209 155.253 252.11 147.039 243.401ZM184.952 226.25C184.952 214.041 184.952 214.041 191.056 214.041C197.029 214.041 197.16 214.261 197.16 224.265C197.16 233.988 193.594 238.458 185.836 238.458C185.35 238.458 184.952 232.964 184.952 226.25ZM132.023 191.869C102.777 172.227 110.094 144.472 145.704 139.973C164.26 137.628 182.513 151.591 175.508 162.771C172.132 168.16 157.1 168.475 150.105 163.304C141.626 157.035 136.116 157.712 136.116 165.024C136.116 171.639 146.165 177.878 161.185 180.588C168.959 181.99 168.959 181.99 158.788 187.799C153.194 190.994 148.04 194.542 147.334 195.685C145.234 199.082 141.304 198.102 132.023 191.869ZM184.262 141.296C183.528 120.312 182.926 95.1832 182.922 85.4541C182.917 70.2174 182.366 67.3789 178.943 64.9814C160.708 52.209 179.158 23.598 199.01 33.8637C210.51 39.8108 211.939 53.6099 202.248 65.1275C197.16 71.1738 197.16 71.1738 197.16 125.311C197.16 179.449 197.16 179.449 191.378 179.449C185.595 179.449 185.595 179.449 184.262 141.296ZM128.009 124.371C124.914 122.33 121.252 119.115 119.87 117.226C117.514 114.005 116.817 114.005 108.632 117.22C98.1828 121.325 87.5045 117.756 83.4208 108.793C81.6629 104.935 79.5493 103.691 74.7535 103.691C66.8703 103.691 59.3663 98.6539 59.3663 93.3625C59.3663 90.1673 58.3937 89.6136 54.4984 90.5913C46.851 92.5106 30.8789 82.0077 30.8789 75.0595C30.8789 74.3593 48.5055 73.2363 70.049 72.5638C104.447 71.4902 111.175 70.7088 125.272 66.1504C147.92 58.8269 154.078 59.1601 159.289 67.9913C161.57 71.8587 165.202 75.583 167.359 76.2676C175.264 78.7766 173.026 125.216 164.922 126.837C151.963 129.429 133.844 128.218 128.009 124.371ZM214.9 126.39C206.909 124.017 205.799 78.4314 213.685 76.4523C216.443 75.7602 219.278 73.3701 219.985 71.141C223.656 59.5756 232.271 58.4224 256.614 66.2379C270.963 70.8446 277.523 71.6014 311.957 72.6222C351.021 73.7803 351.021 73.7803 348.04 79.5444C344.333 86.7133 334.135 92.2282 327.613 90.5913C324.08 89.7043 322.746 90.2166 322.746 92.4605C322.746 97.9565 315.012 103.691 307.6 103.691C302.018 103.691 299.88 104.897 297.089 109.622C291.172 119.638 281.509 122.315 271.017 116.844C265.259 113.841 264.856 113.953 258.197 120.407C250.983 127.399 228.682 130.481 214.9 126.39Z" fill="#ffffff"/>
</g>
<defs>
<clipPath id="clip0">
<path d="M0 0H580V580H0V0Z" fill="#ffffff"/>
</clipPath>
</defs>
</svg>
