<svg width="48" height="48" viewBox="0 0 48 48" fill="none" xmlns="http://www.w3.org/2000/svg">
<path d="M22 24V28H18V32H22V36H26V32H30V28H26V24H22Z" fill="white"/>
<path fill-rule="evenodd" clip-rule="evenodd" d="M12 16H8C5.79086 16 4 17.7909 4 20V40C4 42.2091 5.79086 44 8 44H40C42.2091 44 44 42.2091 44 40V20C44 17.7909 42.2091 16 40 16H36V10C36 6.68629 33.3137 4 30 4H18C14.6863 4 12 6.68629 12 10V16ZM16 10C16 8.89543 16.8954 8 18 8H30C31.1046 8 32 8.89543 32 10V16H16V10ZM34 30C34 35.5228 29.5228 40 24 40C18.4772 40 14 35.5228 14 30C14 24.4772 18.4772 20 24 20C29.5228 20 34 24.4772 34 30Z" fill="white"/>
</svg>
