<svg width="48" height="48" viewBox="0 0 48 48" fill="none" xmlns="http://www.w3.org/2000/svg">
<path opacity="0.2" d="M6 42H42" stroke="white"/>
<path d="M44 10.8L24 0.133331L4 10.8V44H8V13.2L24 4.66667L40 13.2V44H44V10.8Z" fill="white"/>
<path d="M28 12C28 14.2091 26.2091 16 24 16C21.7909 16 20 14.2091 20 12C20 9.79086 21.7909 8 24 8C26.2091 8 28 9.79086 28 12Z" fill="white"/>
<path d="M24 18C25.8856 18 27.4665 19.3047 27.8891 21.0607L30.2426 23.4142C30.6177 23.7893 31.1264 24 31.6569 24H34C35.1046 24 36 24.8954 36 26C36 27.1046 35.1046 28 34 28H31.6569C30.3271 28 29.0428 27.5586 28 26.7569V30H30C30.6687 30 31.2932 30.3342 31.6641 30.8906L35.0704 36H36C37.1046 36 38 36.8954 38 38C38 39.1046 37.1046 40 36 40H34C33.3313 40 32.7068 39.6658 32.3359 39.1094L28.9296 34H24C21.7909 34 20 32.2091 20 30V22C20 19.7909 21.7909 18 24 18Z" fill="white"/>
<path d="M18 24.2C13.4355 25.1266 10 29.1621 10 34C10 39.5229 14.4772 44 20 44C24.0318 44 27.5063 41.614 29.0885 38.177L28 36H25.6586C24.8349 38.3304 22.6124 40 20 40C16.6863 40 14 37.3137 14 34C14 31.3876 15.6696 29.1651 18 28.3414V24.2Z" fill="white"/>
</svg>
