<svg width="26" height="26" viewBox="0 0 26 26" fill="none" xmlns="http://www.w3.org/2000/svg">
<path d="M9.61008 20.857C8.59308 21.872 7.82308 20.998 6.80808 19.984L6.01508 19.191C5.00108 18.177 4.12608 17.405 5.14008 16.39L19.1771 2.35599C20.1901 1.34099 24.1171 -0.915007 25.5161 0.483993C26.9151 1.88299 24.6601 5.80799 23.6441 6.82199L9.61008 20.857Z" fill="#777777"/>
<path d="M20.1102 18.286L17.9512 16.13L20.1552 13.927C20.6422 13.438 21.8262 13.061 22.5022 13.737C23.1792 14.412 22.8032 15.594 22.3112 16.083L20.1102 18.286Z" fill="#777777"/>
<path d="M7.82504 25.958L6.29004 19.647L10 15.938V23.824L7.82504 25.958Z" fill="#777777"/>
<path d="M0.0419922 18.175L6.35299 19.71L10.063 16H2.17599L0.0419922 18.175Z" fill="#777777"/>
<path d="M19.5991 25.832L15.3071 14.253L20.4921 9.06799L21.4861 23.986L19.5991 25.832Z" fill="#777777"/>
<path d="M7.71387 5.88999L9.86987 8.04899L12.0729 5.84499C12.5619 5.35799 12.9389 4.17399 12.2629 3.49799C11.5879 2.82099 10.4059 3.19699 9.91687 3.68899L7.71387 5.88999Z" fill="#777777"/>
<path d="M0.167969 6.40101L11.747 10.693L16.932 5.50801L2.01397 4.51401L0.167969 6.40101Z" fill="#777777"/>
</svg>
