<svg width="26" height="26" viewBox="0 0 26 26" fill="none" xmlns="http://www.w3.org/2000/svg">
<path d="M19 25C19 25.551 18.551 26 18 26H4C3.449 26 3 25.551 3 25V8C3 7.449 3.449 7 4 7H18C18.551 7 19 7.449 19 8V25Z" fill="#777777"/>
<path d="M18 11.934C18 11.934 19.219 11 21 11C23.424 11 24 13 24 14C24 18.433 18 18.782 18 21.972" stroke="#777777" stroke-width="2" stroke-miterlimit="10" stroke-linecap="round" stroke-linejoin="round"/>
<path d="M14.9998 5.92201C14.2188 2.98101 18.8278 3.79501 15.9998 0.782013C17.0938 3.84601 12.2028 3.04101 14.9998 5.92201Z" fill="#777777"/>
<path d="M10.9998 5.92201C10.2188 2.59601 14.8278 3.51701 11.9998 0.109009C13.0938 3.57401 8.20278 2.66401 10.9998 5.92201Z" fill="#777777"/>
<path d="M6.99978 5.92201C6.21878 2.98101 10.8278 3.79501 7.99978 0.782013C9.09378 3.84601 4.20278 3.04101 6.99978 5.92201Z" fill="#777777"/>
</svg>
