<svg width="26" height="26" viewBox="0 0 26 26" fill="none" xmlns="http://www.w3.org/2000/svg">
<g clip-path="url(#clip0)">
<path d="M25.9459 3.43601C26.3839 4.41801 16.8569 8.62501 11.5699 10.984C5.88688 13.518 2.62188 13.838 1.99588 12.438C1.57088 11.484 0.445881 8.96401 0.0868808 8.15601C-0.274119 7.34601 1.04988 7.08701 1.57588 7.49001C1.90888 7.74801 2.97388 8.53601 3.70888 9.07601C4.13088 9.38901 4.45588 9.61401 4.90788 9.41101C5.36088 9.20901 20.1729 2.60201 20.1729 2.60201C23.1169 1.29001 25.5079 2.45301 25.9459 3.43601Z" fill="#777777"/>
<path d="M14.216 16.807C13.913 17.465 13.313 18.156 12.877 18.351L12.034 18.727C11.789 18.835 11.609 18.631 11.794 17.888L13.734 7.55802C14.038 6.90002 14.637 6.20702 15.074 6.01302L19.485 4.04602C19.922 3.85202 20.028 4.22702 19.724 4.88702L14.216 16.807V16.807Z" fill="#777777"/>
<path d="M12.9308 4.69802L8.1608 3.22802C7.4688 3.01602 6.5538 2.99902 6.1168 3.19302L5.2728 3.57002C5.0288 3.67902 5.0608 3.94902 5.7378 4.31002L9.1498 6.38402L12.9308 4.69802Z" fill="#777777"/>
</g>
<defs>
<clipPath id="clip0">
<rect width="26" height="26" fill="#ffffff"/>
</clipPath>
</defs>
</svg>
