<svg width="26" height="26" viewBox="0 0 26 26" fill="none" xmlns="http://www.w3.org/2000/svg">
<g clip-path="url(#clip0)">
<path d="M10.5 25.813C11.7774 25.813 12.813 24.7774 12.813 23.5C12.813 22.2226 11.7774 21.187 10.5 21.187C9.22258 21.187 8.18701 22.2226 8.18701 23.5C8.18701 24.7774 9.22258 25.813 10.5 25.813Z" fill="#777777"/>
<path d="M25 21H22C22 21 22 19.692 22 18.424C22 11.065 15.518 7 13 7H3C1.344 7 0 8.344 0 10V20C0 21.656 1.344 23 3 23H6.994C7.239 21.277 8.71 19.943 10.5 19.943C12.29 19.943 13.761 21.277 14.006 23H25C25.552 23 26 22.552 26 22C26 21.448 25.552 21 25 21ZM7 14H3V11C3 10.448 3.448 10 4 10H7V14ZM10 14V10H12.579C14.117 10 16.862 11.796 17.521 14H10Z" fill="#777777"/>
</g>
<defs>
<clipPath id="clip0">
<rect width="26" height="26" fill="#ffffff"/>
</clipPath>
</defs>
</svg>
