<svg width="26" height="26" viewBox="0 0 26 26" fill="none" xmlns="http://www.w3.org/2000/svg">
<path d="M18.5 1L13 5V25H24V5L18.5 1ZM18 9H14V5H18V9ZM23 9H19V5H23V9ZM18 14H14V10H18V14ZM23 14H19V10H23V14ZM18 19H14V15H18V19ZM23 19H19V15H23V19ZM18 24H14V20H18V24ZM23 24H19V20H23V24Z" fill="#777777" stroke="#777777" stroke-width="2" stroke-miterlimit="10" stroke-linecap="round" stroke-linejoin="round"/>
<path d="M7.5 1L2 5V25H13V5L7.5 1ZM7 9H3V5H7V9ZM12 9H8V5H12V9ZM7 14H3V10H7V14ZM12 14H8V10H12V14ZM7 19H3V15H7V19ZM12 19H8V15H12V19ZM7 24H3V20H7V24ZM12 24H8V20H12V24Z" fill="#777777" stroke="#777777" stroke-width="2" stroke-miterlimit="10" stroke-linecap="round" stroke-linejoin="round"/>
</svg>
