<svg width="580" height="580" viewBox="0 0 580 580" fill="none" xmlns="http://www.w3.org/2000/svg">
<path d="M181.739 194.706C181.377 146.901 182.775 138.215 181.775 116.824C181.069 101.668 178.418 75.3328 181.919 77.1412C195.897 84.3611 209.006 261.607 187.167 261.607C179.59 261.607 178.081 243.018 181.735 194.706H181.739H181.739Z" fill="#ffffff"/>
<path d="M268.615 245.515C268.615 236.664 270.429 222.199 276.172 206.256C283.498 185.923 298.716 180.79 282.581 186.981C275.584 189.666 263.61 203.757 258.375 218.773C246.551 252.69 248.392 261.607 259.719 261.607C264.612 261.607 268.615 254.365 268.615 245.515H268.615ZM233.03 235.497C233.03 201.138 241.158 179.835 251.281 151.388C261.707 122.092 285.781 101.347 262.972 120.223C229.486 147.935 198.26 261.607 224.134 261.607C229.027 261.607 233.03 249.858 233.03 235.497Z" fill="#ffffff"/>
<path d="M278.328 317.358C266.598 317.841 254.63 317.75 243.133 320.122C240.247 321.791 241.941 326.374 245.136 326.298C262.634 330.329 280.884 329.056 298.748 329.044C306.41 328.698 314.407 328.541 321.602 325.845C324.459 323.943 322.515 319.379 319.227 319.596C305.854 316.669 291.958 317.211 278.328 317.358Z" fill="#ffffff"/>
<path d="M101.122 245.515C101.122 236.664 99.3083 222.199 93.5649 206.256C86.2398 185.923 71.0216 180.79 87.156 186.981C94.1536 189.666 106.128 203.757 111.363 218.773C123.186 252.69 121.345 261.607 110.019 261.607C105.126 261.607 101.122 254.365 101.122 245.515H101.122ZM136.707 235.497C136.707 201.138 128.58 179.835 118.456 151.388C108.03 122.092 83.9562 101.347 106.765 120.223C140.251 147.935 171.477 261.607 145.603 261.607C140.71 261.607 136.707 249.858 136.707 235.497Z" fill="#ffffff"/>
<path d="M223.764 283.992C194.995 284.414 166.115 284.504 137.449 286.6C134.744 287.036 133.398 291.05 136.359 292.187C150.686 295.405 165.651 294.722 180.294 295.481C220.523 296.334 260.852 296.733 301.007 293.881C303.845 293.313 309.421 293.251 308.813 289.17C306.843 285.293 301.245 286.586 297.717 285.822C273.118 283.917 248.42 283.938 223.764 283.992Z" fill="#ffffff"/>
</svg>
