<svg width="580" height="580" viewBox="0 0 580 580" fill="none" xmlns="http://www.w3.org/2000/svg">
<path d="M122.817 237.208C110.95 237.208 100.767 244.417 96.4081 254.697L94.1442 282.336V312.667C94.1442 316.357 94.8468 319.879 96.1161 323.12H34.1843V344.086V352.473V425.16H53.5772V352.473H252.424V425.16H271.814V352.473H271.816V323.12H209.884C211.153 319.879 211.856 316.357 211.856 312.667V282.337L209.592 254.696C205.233 244.419 195.05 237.208 183.183 237.208H122.818H122.817ZM116.781 275.692H123.572V323.12H116.781V275.692ZM182.427 275.692H189.219V323.12H182.427V275.692Z" fill="#ffffff"/>
<path d="M153.001 154.84C133.622 154.84 117.912 170.549 117.912 189.927C117.912 209.306 133.622 225.014 153.001 225.014C172.379 225.014 188.088 209.306 188.088 189.927C188.088 170.549 172.379 154.84 153.001 154.84Z" fill="#ffffff"/>
<path d="M396.817 237.208C384.95 237.208 374.767 244.417 370.408 254.697L368.144 282.336V312.667C368.144 316.357 368.847 319.879 370.116 323.12H308.184V344.086V352.473V425.16H327.577V352.473H526.424V425.16H545.814V352.473H545.816V323.12H483.884C485.153 319.879 485.856 316.357 485.856 312.667V282.337L483.592 254.696C479.233 244.419 469.05 237.208 457.183 237.208H396.818H396.817ZM390.781 275.692H397.572V323.12H390.781V275.692ZM456.427 275.692H463.219V323.12H456.427V275.692Z" fill="#ffffff"/>
<path d="M427.001 154.84C407.622 154.84 391.912 170.549 391.912 189.927C391.912 209.306 407.622 225.014 427.001 225.014C446.379 225.014 462.087 209.306 462.087 189.927C462.087 170.549 446.379 154.84 427.001 154.84Z" fill="#ffffff"/>
</svg>
