<svg width="12" height="12" viewBox="0 0 12 12" fill="none" xmlns="http://www.w3.org/2000/svg">
<path fill-rule="evenodd" clip-rule="evenodd" d="M2 2C2 1.44772 2.44772 1 3 1H9C9.55228 1 10 1.44772 10 2V8C10 8.26522 9.89464 8.51957 9.70711 8.70711L7.70711 10.7071C7.51957 10.8946 7.26522 11 7 11H3C2.44772 11 2 10.5523 2 10V2Z" fill="white"/>
<path fill-rule="evenodd" clip-rule="evenodd" d="M3 2H9V7H6V10H3V2ZM4 3H8V4H4V3ZM4 5H8V6H4V5ZM5 7H4V8H5V7Z" fill="#008B12"/>
<path d="M7 8V10L9 8H7Z" fill="#008B12"/>
</svg>
