<svg width="580" height="580" viewBox="0 0 580 580" fill="none" xmlns="http://www.w3.org/2000/svg">
<path opacity="0.25" d="M375.98 373.001H207.059V541.921H375.98V373.001Z" fill="#333333" stroke="#333333" stroke-width="20.1359" stroke-linecap="round" stroke-linejoin="round"/>
<path d="M375.98 373.001H207.059V541.921H375.98V373.001Z" stroke="#333333" stroke-width="20.1359" stroke-linecap="round" stroke-linejoin="round"/>
<path d="M266.272 338.467C260.598 337.339 249.572 334.172 241.769 331.43C201.782 317.376 163.167 277.796 148.758 236.094C143.731 221.545 140.489 205.704 140.679 184.371C140.866 163.024 143.731 149.329 148.758 134.781C162.495 95.0233 197.242 57.6504 235.557 41.4218C249.477 35.5261 280.398 29.7921 298.271 29.7921C324.91 29.7921 375.35 46.634 385.562 58.9386C390.782 65.2291 385.926 65.4424 360.2 60.0521C339.611 55.7384 332.781 55.3406 316.862 57.5278C271.026 63.8254 229.79 98.3689 213.311 144.275C205.537 165.93 205.507 204.875 213.248 226.392C229.275 270.939 269.871 305.776 314.708 313.456C328.623 315.84 335.004 315.457 357.839 310.868C372.58 307.905 385.597 306.403 386.767 307.53C389.492 310.153 377.235 318.876 359.261 327.105C332.721 339.255 294.018 343.984 266.272 338.467ZM351.418 235.964C350.638 234.701 352.873 225.218 356.386 214.891C359.898 204.563 362.772 195.795 362.772 195.407C362.772 195.019 355.247 189.332 346.05 182.769C336.853 176.206 329.328 169.827 329.328 168.593C329.328 167.36 338.879 166.014 350.552 165.603L371.777 164.856L378.464 145.69C382.143 135.149 386.369 126.119 387.857 125.623C389.345 125.127 393.666 134.041 397.46 145.432L404.357 166.142H426.228C438.291 166.142 447.714 167.193 447.241 168.485C446.769 169.774 439.148 176.139 430.304 182.63C421.461 189.12 414.225 195.41 414.225 196.606C414.225 197.802 416.541 205.511 419.37 213.736C424.326 228.139 425.914 238.177 423.237 238.177C422.533 238.177 414.881 232.967 406.231 226.6C397.582 220.232 389.426 215.023 388.106 215.023C386.786 215.023 379.678 219.439 372.31 224.837C354.496 237.888 353.075 238.645 351.418 235.964Z" fill="#333333"/>
<path d="M387.437 123.656C381.953 127.605 380.897 135.344 378 141.125C375.364 148.348 372.918 155.654 370.344 162.906C356.47 164.088 341.771 162.266 328.437 166.594C325.071 170.567 331.932 173.674 334.187 176.25C342.685 183.22 351.941 189.147 360.531 196.031C356.877 209.359 350.138 222.261 349.375 236.156C351.668 242.322 358.675 237.27 361.884 234.836C370.647 229.05 378.842 221.465 388.281 217.156C400.35 223.609 410.605 233.443 422.656 240.094C428.04 240.248 426.481 232.655 425.844 229.219C423.855 218.162 418.328 207.395 416.531 196.625C426.433 186.436 439.586 180.041 449.031 169.406C449.637 164.069 441.8 165.359 438.406 164.531C427.546 163.835 416.655 164.285 405.781 164.156C400.63 150.874 398.279 135.956 389.844 124.344C389.185 123.814 388.318 123.406 387.437 123.656Z" fill="#333333"/>
</svg>
