<svg width="48" height="48" viewBox="0 0 48 48" fill="none" xmlns="http://www.w3.org/2000/svg">
<path opacity="0.5" d="M32 40V28H36V24L28 16L32 12L36 16H40V20L44 24V28H40V40H32Z" fill="#3f3f3f"/>
<g opacity="0.5">
<path d="M12 14H8V22H12V14Z" fill="#3f3f3f"/>
<path d="M28 28H20V40H28V28Z" fill="#3f3f3f"/>
</g>
<path d="M22 34H20V36H22V34Z" fill="#3f3f3f"/>
<path fill-rule="evenodd" clip-rule="evenodd" d="M4 24L20 8L36 24V28H32V40H8V28H4V24ZM20 28H28V40H20V28ZM12 28H16V36H12V28Z" fill="#3f3f3f"/>
</svg>
