<svg width="580" height="580" viewBox="0 0 580 580" fill="none" xmlns="http://www.w3.org/2000/svg">
<path d="M321 258.397H63V427.912H321V258.397Z" fill="#3f3f3f"/>
<path d="M259.679 84.1712C259.681 89.9296 258.548 95.6319 256.346 100.952C254.144 106.273 250.915 111.107 246.843 115.18C242.772 119.252 237.939 122.483 232.619 124.687C227.299 126.891 221.597 128.025 215.839 128.025C210.08 128.025 204.378 126.891 199.059 124.687C193.739 122.483 188.905 119.252 184.834 115.18C180.763 111.107 177.534 106.273 175.331 100.952C173.129 95.6319 171.996 89.9296 171.998 84.1712C171.996 78.4129 173.129 72.7106 175.331 67.3901C177.534 62.0696 180.763 57.2351 184.834 53.1627C188.905 49.0903 193.739 45.8598 199.059 43.6558C204.378 41.4518 210.08 40.3174 215.839 40.3174C221.597 40.3174 227.299 41.4518 232.619 43.6558C237.939 45.8598 242.772 49.0903 246.843 53.1627C250.915 57.2351 254.144 62.0696 256.346 67.3901C258.548 72.7106 259.681 78.4129 259.679 84.1712Z" fill="#3f3f3f"/>
<path d="M127.156 159.202C122.01 159.202 116.896 162.296 113.257 167.612C109.618 172.927 107.5 180.398 107.5 187.916C107.5 195.433 109.618 202.904 113.257 208.219C116.896 213.535 122.01 216.629 127.156 216.629H330.812C335.958 216.629 341.073 213.535 344.712 208.219C348.35 202.904 348.941 195.094 350.469 187.916C353.469 173.825 357.35 161.971 353.712 156.656C350.073 151.34 335.958 159.202 330.812 159.202H127.156Z" fill="#3f3f3f"/>
<path d="M287.188 124.942C282.042 124.942 276.928 127.06 273.289 130.699C269.65 134.338 265.532 139.952 265.532 145.098C265.532 150.244 262.65 163.358 266.289 166.997C269.928 170.636 282.042 164.254 287.188 164.254H530.813C535.959 164.254 541.073 162.136 544.712 158.497C548.351 154.858 550.469 149.744 550.469 144.598C550.469 139.452 548.351 134.338 544.712 130.699C541.073 127.06 535.959 124.942 530.813 124.942H287.188Z" fill="#3f3f3f"/>
<path d="M301 52.1128H334.606L347.452 61.8355H405.771L417.559 52.1128H451.577V89.1128H417.559L406.593 79.3901H348.684L334.606 89.1128H301V52.1128Z" fill="#3f3f3f"/>
<path d="M82.6582 347.816V531.395" stroke="#3f3f3f" stroke-width="39.437" stroke-linecap="round" stroke-linejoin="round"/>
<path d="M301.361 349.372V532.951" stroke="#3f3f3f" stroke-width="39.437" stroke-linecap="round" stroke-linejoin="round"/>
</svg>
