<svg width="580" height="580" viewBox="0 0 580 580" fill="none" xmlns="http://www.w3.org/2000/svg">
<path d="M123.943 519.465L165.723 199.974L220.405 199.359L254.992 519.503C254.992 519.503 243.669 527.95 190.914 528.086C138.158 528.222 123.943 519.465 123.943 519.465Z" fill="#3f3f3f"/>
<path d="M207.89 149.813C216.99 140.747 217.402 141.065 229.69 131.849C241.978 122.633 280.989 118.71 280.989 118.71C280.989 118.71 302.668 85.2906 343.219 73.6168C383.77 61.9431 386.518 77.9613 386.518 77.9613C386.518 77.9613 528.981 19.4482 529.596 77.8168C528.017 98.5192 506.754 93.6434 506.754 93.6434C506.754 93.6434 546.77 138.08 364.358 140.461C364.358 140.461 375.274 149.341 343.137 158.15C310.999 166.96 268.866 158.931 268.866 158.931C268.866 158.931 267.478 171.803 216.042 175.294C203.699 180.546 180.065 180.465 177.27 175.863C177.27 175.863 176.877 160.039 193.65 159.564C193.924 160.589 203.241 154.445 207.89 149.813Z" fill="#3f3f3f"/>
</svg>
