<svg width="580" height="580" viewBox="0 0 580 580" fill="none" xmlns="http://www.w3.org/2000/svg">
<path d="M194.144 510.952L187.599 540.595L145.18 540.469L217.809 212.506L175.893 212.128V92.8002L298.431 37.8564L420.968 92.8002V212.128L379.052 212.506L451.555 540.469L409.262 540.595L402.717 511.077L298.368 383.882L194.144 510.952ZM211.2 433.728L275.396 355.561L238.389 310.687L211.2 433.728ZM348.654 266.191L336.822 212.38H260.102L248.27 266.128L298.431 327.617L348.654 266.191ZM358.472 310.687L321.465 355.561L385.661 433.728L358.472 310.687ZM221.9 109.478V169.709H374.962V109.478H221.9Z" fill="#3f3f3f"/>
</svg>
