<svg width="580" height="580" viewBox="0 0 580 580" fill="none" xmlns="http://www.w3.org/2000/svg">
<g clip-path="url(#clip0)">
<path opacity="0.426087" d="M394.461 -2.96563C389.036 -3.22474 383.541 -1.03864 379.776 2.87617L314.873 70.3703C310.183 75.2492 308.395 82.7303 310.373 89.2023C311.947 94.3496 315.889 98.5994 320.75 100.878C319.033 102.257 317.366 103.708 315.797 105.277C303.591 117.483 296.523 134.546 296.524 151.808C296.524 151.81 296.524 151.81 296.524 151.812C296.528 172.063 306.837 191.46 322.658 203.818L251.094 515.499C249.975 520.375 250.87 525.682 253.526 529.921C256.181 534.16 260.566 537.279 265.442 538.4L289.063 543.823C294.003 544.958 299.383 544.023 303.651 541.288C307.918 538.553 311.016 534.053 312.049 529.091L377.233 215.738C389.096 212.932 400.212 206.987 408.86 198.339C421.066 186.133 428.133 169.07 428.133 151.808C428.133 151.804 428.133 151.802 428.133 151.798C428.133 151.797 428.133 151.796 428.133 151.796C428.127 141.59 425.329 131.675 420.725 122.683C426.76 123.337 433.078 121.139 437.135 116.604C441.605 111.608 443.143 104.16 441.018 97.8017L411.674 10.0617C409.248 2.81089 402.098 -2.60028 394.461 -2.96563Z" fill="#8D8D8D"/>
<path d="M375.856 57.5254L269.718 519.776L293.34 525.2L389.949 60.7777L375.856 57.5254Z" fill="black"/>
<path d="M409.023 151.808C409.024 157.941 407.818 164.014 405.471 169.68C403.125 175.347 399.686 180.496 395.35 184.833C391.014 189.17 385.866 192.61 380.2 194.957C374.534 197.305 368.461 198.513 362.328 198.513C356.195 198.513 350.123 197.305 344.457 194.957C338.791 192.61 333.643 189.17 329.307 184.833C324.97 180.496 321.531 175.347 319.185 169.68C316.839 164.014 315.632 157.941 315.633 151.808C315.632 145.675 316.839 139.602 319.185 133.936C321.531 128.269 324.97 123.121 329.307 118.784C333.643 114.447 338.791 111.006 344.457 108.659C350.123 106.312 356.195 105.104 362.328 105.104C368.461 105.104 374.534 106.312 380.2 108.659C385.866 111.006 391.014 114.447 395.35 118.784C399.686 123.121 403.125 128.269 405.471 133.936C407.818 139.602 409.024 145.675 409.023 151.808V151.808Z" fill="#00DF0C"/>
<path d="M328.647 83.6172L422.893 103.864L393.549 16.123" fill="#00DF0C"/>
</g>
<defs>
<clipPath id="clip0">
<path d="M0 0H580V580H0V0Z" fill="white"/>
</clipPath>
</defs>
</svg>
