<svg width="580" height="580" viewBox="0 0 580 580" fill="none" xmlns="http://www.w3.org/2000/svg">
<path d="M81.4375 386.188C117.583 465.069 196.997 519.406 289.969 519.406C382.943 519.406 462.401 465.072 498.562 386.188H81.4375Z" fill="#BFBFBF"/>
<path d="M84.375 187.562C79.3912 197.626 75.1435 208.117 71.6562 218.969C83.6091 219.189 96.8852 219.382 112.781 219.438C137.032 222.171 137.344 243.415 137.344 248.906V373.594C129.829 375.325 122.588 376 116.969 376C105.109 376 86.0978 373.107 72.375 363.219C76.4674 375.519 81.5536 387.338 87.5625 398.594C98.0889 402.328 109.105 403.594 116.969 403.594C129.238 403.594 149.197 400.517 163 389.781C176.803 400.517 196.73 403.594 209 403.594C209.82 403.594 210.585 403.575 211.375 403.562C235.706 403.193 246.087 397.24 255 389.812C255.431 390.148 255.87 390.461 256.312 390.781C258.527 392.385 260.903 393.809 263.344 395.062C264.32 395.564 265.281 396.019 266.281 396.469C266.871 396.734 267.466 396.971 268.062 397.219C268.48 397.392 268.892 397.585 269.312 397.75C272.375 398.953 275.493 399.926 278.594 400.719C280.655 401.246 282.709 401.694 284.719 402.062C285.724 402.247 286.705 402.415 287.688 402.562C289.652 402.858 291.574 403.086 293.406 403.25C295.239 403.414 296.978 403.512 298.625 403.562C299.448 403.588 300.264 403.594 301.031 403.594C301.798 403.594 302.583 403.588 303.406 403.562C305.044 403.513 306.804 403.412 308.625 403.25C308.635 403.249 308.646 403.251 308.656 403.25C310.489 403.086 312.379 402.858 314.344 402.562C315.326 402.415 316.339 402.247 317.344 402.062C319.354 401.694 321.377 401.246 323.438 400.719C326.529 399.928 329.664 398.949 332.719 397.75C334.755 396.951 336.766 396.065 338.719 395.062C341.159 393.809 343.504 392.385 345.719 390.781C346.162 390.461 346.6 390.148 347.031 389.812C347.463 390.148 347.901 390.461 348.344 390.781C350.558 392.385 352.903 393.809 355.344 395.062C357.296 396.065 359.308 396.951 361.344 397.75C364.398 398.949 367.534 399.928 370.625 400.719C372.686 401.246 374.709 401.694 376.719 402.062C377.724 402.247 378.737 402.415 379.719 402.562C381.585 402.843 383.408 403.057 385.156 403.219C385.25 403.228 385.344 403.242 385.438 403.25C385.501 403.256 385.562 403.244 385.625 403.25C387.389 403.404 389.067 403.514 390.656 403.562C391.48 403.588 392.264 403.594 393.031 403.594C405.301 403.594 425.259 400.548 439.062 389.812C452.866 400.548 472.793 403.594 485.062 403.594C486.512 403.594 488.078 403.53 489.719 403.438C495.053 394.011 499.77 384.18 503.75 373.969C496.845 375.424 490.265 376 485.062 376C474.216 376 457.388 373.599 444.094 365.625V248.906C444.094 242.227 446.533 219.951 472.344 218.375C485.129 218.257 496.979 218.238 508.094 218.219C504.649 207.635 500.465 197.392 495.594 187.562H84.375ZM229.375 218.219H352.062C368.933 218.219 382.75 232.036 382.75 248.906V375.344C382.708 375.339 382.667 375.349 382.625 375.344C378.815 374.888 374.747 374.179 370.625 373.125C368.897 372.683 367.135 372.159 365.406 371.594C363.011 370.811 360.637 369.919 358.312 368.875C356.312 367.976 354.359 366.986 352.469 365.875C351.524 365.319 350.595 364.737 349.688 364.125C349.234 363.819 348.787 363.508 348.344 363.188C347.901 362.867 347.463 362.523 347.031 362.188C346.169 362.858 345.282 363.513 344.375 364.125C343.468 364.737 342.539 365.319 341.594 365.875C339.704 366.986 337.751 367.976 335.75 368.875C333.749 369.774 331.714 370.577 329.656 371.281C327.598 371.985 325.498 372.598 323.438 373.125C319.316 374.179 315.248 374.888 311.438 375.344C309.532 375.571 307.715 375.739 305.969 375.844C305.096 375.896 304.23 375.944 303.406 375.969C302.583 375.994 301.798 376 301.031 376C299.498 376 297.84 375.949 296.094 375.844C294.347 375.739 292.499 375.571 290.594 375.344C286.783 374.888 282.716 374.179 278.594 373.125C276.533 372.598 274.464 371.985 272.406 371.281C270.019 370.465 267.649 369.487 265.344 368.406C263.675 367.624 262.025 366.808 260.438 365.875C259.492 365.319 258.564 364.737 257.656 364.125C257.203 363.819 256.755 363.508 256.312 363.188C255.87 362.867 255.431 362.523 255 362.188C254.137 362.858 253.251 363.513 252.344 364.125C251.436 364.737 250.508 365.319 249.562 365.875C247.672 366.986 245.72 367.976 243.719 368.875C241.718 369.774 239.683 370.577 237.625 371.281C235.567 371.985 233.498 372.598 231.438 373.125C227.316 374.179 223.248 374.888 219.438 375.344C217.532 375.571 215.684 375.739 213.938 375.844C213.064 375.896 212.198 375.944 211.375 375.969C210.552 375.994 209.767 376 209 376C205.966 376 202.449 375.789 198.688 375.344V248.906C198.688 232.036 212.505 218.219 229.375 218.219ZM152.688 418C139.799 428.024 121.539 431.382 109.188 431.781C116.108 440.62 123.683 448.94 131.812 456.656C141.208 454.153 147.239 450.166 152.688 445.625C166.491 456.361 186.418 459.406 198.688 459.406C210.957 459.406 230.916 456.361 244.719 445.625C258.522 456.361 278.449 459.406 290.719 459.406C302.988 459.406 322.916 456.361 336.719 445.625C350.522 456.361 370.48 459.406 382.75 459.406C395.02 459.406 414.947 456.361 428.75 445.625C434.781 450.316 441.968 453.546 449.188 455.688C456.953 448.228 464.197 440.211 470.844 431.719C458.546 431.125 441.175 427.664 428.75 418C414.947 428.736 395.02 431.812 382.75 431.812C370.48 431.812 350.522 428.736 336.719 418C322.916 428.736 302.988 431.812 290.719 431.812C278.449 431.812 258.522 428.736 244.719 418C230.916 428.736 210.957 431.812 198.688 431.812C186.418 431.812 166.491 428.736 152.688 418Z" fill="#2C2C2C"/>
<path d="M112.562 145.875C107.366 152.324 102.51 159.057 98.0312 166.062H483.125C478.645 159.057 473.761 152.324 468.562 145.875H112.562Z" fill="#2C2C2C"/>
<path d="M246.586 290.162V322.195H333.163V290.162C333.163 284.101 327.969 278.907 321.908 278.907H257.841C251.781 278.907 246.586 284.101 246.586 290.162V290.162Z" fill="#2C2C2C"/>
<path d="M280.198 252.932V270.241H299.565V252.932C299.724 241.777 280.323 242.059 280.198 252.932V252.932Z" fill="#2C2C2C"/>
<path d="M359.137 330.853H220.613V349.9C220.613 365.484 227.539 379.336 239.66 388.86L289.875 411.956L340.09 388.86C352.21 379.336 359.137 365.484 359.137 349.9V330.853ZM341.821 352.497L324.506 356.826V348.168H341.821V352.497ZM255.244 356.826L237.929 352.497V348.168H255.244V356.826Z" fill="#2C2C2C"/>
</svg>
