<svg width="48" height="48" viewBox="0 0 48 48" fill="none" xmlns="http://www.w3.org/2000/svg">
<path d="M38 44L14 44C12.8954 44 12 43.1046 12 42C12 40.8954 12.8954 40 14 40H36L40 36L8 36L8 42C8 45.3137 10.6863 48 14 48L38 48C39.1046 48 40 47.1046 40 46C40 44.8954 39.1046 44 38 44Z" fill="#ffffff"/>
<path fill-rule="evenodd" clip-rule="evenodd" d="M36 4C38.2091 4 40 5.79086 40 8V38C40 39.1046 39.1046 40 38 40H12C9.79086 40 8 38.2091 8 36L8 10C8 6.68629 10.6863 4 14 4L36 4ZM26 14H32L32 18H26L26 32H22L22 18H16V14H22L22 8H26L26 14Z" fill="#ffffff"/>
<path opacity="0.5" d="M12 40H38C39.1046 40 40 40.8954 40 42V42C40 43.1046 39.1046 44 38 44H12V40Z" fill="#ffffff"/>
</svg>
