<svg width="580" height="580" viewBox="0 0 580 580" fill="none" xmlns="http://www.w3.org/2000/svg">
<path d="M256.58 54.122C253.784 54.1303 251.235 54.1711 249.019 54.1889C247.851 58.9982 243.558 62.553 238.38 62.553H211.916C203.005 67.2429 194.675 73.8571 186.991 82.1919H196.994C203.075 82.1919 207.968 87.0844 207.968 93.1656C207.968 99.2468 203.075 104.139 196.994 104.139H170.631C162.695 117.131 155.782 132.412 150.055 149.64H172.37C178.452 149.64 183.344 154.532 183.344 160.614C183.344 166.695 178.452 171.587 172.37 171.587H143.665C139.298 188.86 135.979 207.666 133.829 227.794H161.664C167.745 227.794 172.638 232.686 172.638 238.768C172.638 244.849 167.745 249.741 161.664 249.741H132.892C132.59 249.741 132.284 249.731 131.988 249.708C131.437 258.548 131.102 267.587 130.985 276.841C130.796 291.719 131.151 306.476 132.022 320.936H158.452C164.534 320.936 169.426 325.829 169.426 331.91C169.426 337.991 164.534 342.884 158.452 342.884H133.762C135.605 361.331 138.328 379.112 141.958 395.879H169.158C175.24 395.879 180.132 400.771 180.132 406.852C180.132 412.934 175.24 417.826 169.158 417.826H147.445C151.88 433.614 157.204 448.185 163.404 461.185H186.288C192.369 461.185 197.262 466.078 197.262 472.159C197.262 478.24 192.369 483.133 186.288 483.133H175.749C183.257 494.417 191.683 503.783 201.042 510.768H217.67C223.751 510.768 228.644 515.66 228.644 521.741C228.644 522.363 228.575 522.955 228.477 523.548C233.289 524.6 238.27 525.15 243.432 525.121C260.307 525.024 305.66 525.89 305.66 525.89C305.66 525.89 291.579 520.968 275.014 499.928H247.848C241.767 499.928 236.874 495.035 236.874 488.954C236.874 482.873 241.767 477.981 247.848 477.981H260.662C256.034 469.554 251.46 459.734 247.179 448.238H220.748C214.667 448.238 209.775 443.345 209.775 437.264C209.775 431.183 214.667 426.29 220.748 426.29H239.986C236.085 412.655 232.611 397.213 229.815 379.719H203.619C197.537 379.719 192.645 374.827 192.645 368.746C192.645 362.664 197.537 357.772 203.619 357.772H226.77C224.597 339.014 223.168 318.212 222.689 295.142H195.054C188.972 295.142 184.08 290.249 184.08 284.168C184.08 278.087 188.972 273.194 195.054 273.194H222.521C222.718 251.419 224.064 231.676 226.268 213.776H203.619C197.537 213.776 192.645 208.883 192.645 202.802C192.645 196.721 197.537 191.828 203.619 191.828H229.547C232.635 174.339 236.545 158.86 240.956 145.257H219.678C213.596 145.257 208.704 140.365 208.704 134.283C208.704 128.202 213.596 123.31 219.678 123.31H248.45C248.663 123.31 248.876 123.331 249.086 123.343C253.297 113.342 257.708 104.615 262.1 97.08H246.443C240.361 97.08 235.469 92.1875 235.469 86.1063C235.469 80.0251 240.361 75.1326 246.443 75.1326H275.215C275.833 75.1326 276.433 75.1694 277.022 75.2664C289.331 59.9915 298.835 54.1889 298.835 54.1889C298.835 54.1889 273.655 54.0714 256.58 54.122V54.122Z" fill="#ffffff"/>
<path d="M348.36 54.248C292.753 54.248 247.689 159.652 247.689 289.68C247.689 419.708 292.753 525.113 348.36 525.113C403.966 525.113 449.063 419.708 449.063 289.68C449.063 159.652 403.966 54.248 348.36 54.248ZM348.36 164.52C377.922 164.52 401.89 220.554 401.89 289.68C401.89 358.807 377.922 414.841 348.36 414.841C318.798 414.841 294.863 358.807 294.863 289.68C294.863 220.554 318.798 164.52 348.36 164.52Z" fill="#ffffff"/>
<path d="M320.027 221.736C320.027 221.736 330.642 179.455 355.265 186.949C367.481 190.667 384.352 252.113 383.958 289.513C383.423 340.367 370.04 376.232 356.122 385.332C340.112 395.8 322.13 343.578 322.13 343.578C322.13 343.578 333.837 316.065 333.639 282.554C333.442 249.043 320.027 221.736 320.027 221.736Z" fill="#ffffff"/>
</svg>
