<svg width="580" height="580" viewBox="0 0 580 580" fill="none" xmlns="http://www.w3.org/2000/svg">
<path d="M289.99 54.9521L60.2973 188.937C55.8259 191.543 54.3256 197.286 56.9316 201.757C59.5469 206.219 65.2711 207.729 69.7518 205.123L74.4638 202.369V498.581C74.4638 513.195 86.3563 525.047 100.961 525.047H479.05C493.664 525.047 505.517 513.155 505.517 498.55V202.369L510.259 205.123C511.741 205.995 513.369 206.408 514.971 206.408C518.196 206.408 521.336 204.738 523.08 201.757C525.686 197.286 524.145 191.553 519.683 188.937L289.99 54.9521ZM181.156 230.029C183.483 230.027 185.787 230.492 187.931 231.396C190.075 232.3 192.017 233.625 193.64 235.292C193.64 235.292 205.589 247.314 211.141 266.746C216.693 286.178 215.685 314.44 195.812 344.249C180.889 366.634 181.895 381.853 185.042 392.867C188.189 403.882 193.64 409.268 193.64 409.268C195.318 410.869 196.66 412.789 197.585 414.916C198.51 417.043 199.001 419.333 199.029 421.653C199.056 423.972 198.619 426.273 197.744 428.422C196.869 430.57 195.574 432.521 193.934 434.162C192.294 435.802 190.342 437.097 188.194 437.972C186.046 438.847 183.744 439.284 181.425 439.257C179.105 439.229 176.815 438.738 174.688 437.813C172.561 436.887 170.641 435.546 169.04 433.868C169.04 433.868 157.121 421.876 151.569 402.444C146.017 383.013 146.995 354.751 166.867 324.942C181.791 302.556 180.815 287.307 177.668 276.292C174.521 265.277 169.04 259.892 169.04 259.892C166.562 257.479 164.861 254.382 164.151 250.997C163.442 247.612 163.758 244.092 165.058 240.887C166.359 237.682 168.584 234.938 171.452 233.004C174.319 231.07 177.698 230.034 181.156 230.029ZM285.554 230.029C287.881 230.027 290.185 230.492 292.329 231.396C294.473 232.3 296.414 233.625 298.037 235.292C298.037 235.292 309.956 247.314 315.508 266.746C321.06 286.178 320.082 314.44 300.21 344.249C285.286 366.634 286.262 381.853 289.409 392.867C292.556 403.882 298.037 409.268 298.037 409.268C299.716 410.869 301.057 412.789 301.983 414.916C302.908 417.043 303.399 419.333 303.426 421.653C303.454 423.972 303.017 426.273 302.142 428.422C301.267 430.57 299.971 432.521 298.331 434.161C296.691 435.802 294.739 437.097 292.591 437.972C290.443 438.847 288.142 439.284 285.822 439.257C283.503 439.229 281.213 438.738 279.086 437.813C276.959 436.887 275.038 435.546 273.437 433.868C273.437 433.868 261.518 421.876 255.966 402.444C250.414 383.013 251.392 354.751 271.265 324.942C286.188 302.556 285.213 287.307 282.066 276.292C278.919 265.277 273.437 259.892 273.437 259.892C270.96 257.479 269.258 254.382 268.549 250.997C267.84 247.612 268.156 244.092 269.456 240.887C270.756 237.682 272.982 234.938 275.849 233.004C278.717 231.07 282.095 230.034 285.554 230.029ZM389.951 230.029C392.278 230.027 394.582 230.492 396.726 231.396C398.871 232.3 400.812 233.625 402.435 235.292C402.435 235.292 414.354 247.314 419.906 266.746C425.458 286.178 424.48 314.44 404.607 344.249C389.684 366.634 390.66 381.853 393.807 392.867C396.954 403.882 402.435 409.268 402.435 409.268C404.113 410.869 405.455 412.789 406.38 414.916C407.306 417.043 407.796 419.333 407.824 421.653C407.851 423.972 407.415 426.273 406.54 428.422C405.665 430.57 404.369 432.521 402.729 434.161C401.089 435.802 399.137 437.097 396.989 437.972C394.841 438.847 392.539 439.284 390.22 439.257C387.901 439.229 385.61 438.738 383.483 437.813C381.356 436.887 379.436 435.546 377.835 433.868C377.835 433.868 365.885 421.876 360.333 402.444C354.781 383.013 355.79 354.751 375.663 324.942C390.586 302.556 389.58 287.307 386.433 276.292C383.286 265.277 377.835 259.892 377.835 259.892C375.358 257.479 373.656 254.382 372.947 250.997C372.237 247.612 372.553 244.092 373.853 240.887C375.154 237.682 377.38 234.938 380.247 233.004C383.114 231.07 386.493 230.034 389.951 230.029Z" fill="#ffffff"/>
</svg>
