<svg width="48" height="48" viewBox="0 0 48 48" fill="none" xmlns="http://www.w3.org/2000/svg">
<path d="M8 12H40V36H8V12Z" fill="#ffffff" fill-opacity="0.4"/>
<path fill-rule="evenodd" clip-rule="evenodd" d="M28 8H40C40 5.79086 41.7909 4 44 4C46.2091 4 48 5.79086 48 8C48 10.2091 46.2091 12 44 12V20C46.2091 20 48 21.7909 48 24C48 26.2091 46.2091 28 44 28V36C46.2091 36 48 37.7909 48 40C48 42.2091 46.2091 44 44 44C41.7909 44 40 42.2091 40 40H28C28 42.2091 26.2091 44 24 44C21.7909 44 20 42.2091 20 40H8C8 42.2091 6.20914 44 4 44C1.79086 44 0 42.2091 0 40C0 37.7909 1.79086 36 4 36V28C1.79086 28 0 26.2091 0 24C0 21.7909 1.79086 20 4 20V12C1.79086 12 0 10.2091 0 8C0 5.79086 1.79086 4 4 4C6.20914 4 8 5.79086 8 8H20C20 5.79086 21.7909 4 24 4C26.2091 4 28 5.79086 28 8ZM8 12H40V36H8V12Z" fill="#ffffff"/>
</svg>
