<svg width="580" height="580" viewBox="0 0 580 580" fill="none" xmlns="http://www.w3.org/2000/svg">
<path d="M487.306 306.111L402.564 280.529C396.751 288.412 385.48 298.606 365.095 300.701C365.095 300.701 259.35 305.061 242.758 308.564C242.758 308.564 216.801 307.207 196.099 323.475C192.162 323.963 154.127 329.918 123.097 375.85C123.097 375.85 100.797 405.999 78.5159 404.684C78.5159 404.684 115.216 415.176 159.784 367.995C159.784 367.995 166.433 351.019 180.814 341.432C176.694 348.821 173.491 357.773 171.971 368.859C171.971 368.859 156.245 506.941 150.999 513.922C150.999 513.922 142.258 547.124 158.861 548.877C158.861 548.877 201.68 557.614 172.844 537.519C172.844 537.519 159.736 544.508 182.463 467.607C182.463 467.607 184.896 466.394 188.87 464.144L181.335 530.3C181.335 530.3 185.473 545.947 212.645 551.029C224.32 553.193 221.537 546.41 219.872 542.367C219.872 542.367 196.263 532.715 199.437 516.527L220.747 442.235C237.194 428.666 253.569 410.548 257.619 389.827C310.967 401.208 343.574 427.355 375.145 432.743C375.009 459.096 374.7 518.964 374.7 531.84C374.7 531.84 421.024 562.424 415.778 536.207C415.778 536.207 399.176 536.207 394.804 509.993C394.804 509.993 399.001 476.497 406.442 445.754C409.915 471.618 416.653 523.436 416.653 535.763C416.653 535.763 462.967 566.354 457.722 540.136C457.722 540.136 441.128 540.136 436.75 513.918C436.75 513.918 435.152 431.647 453.332 410.656C454.17 409.692 455.056 408.866 455.969 408.181C476.951 392.455 483.064 371.474 487.433 331.282C487.433 331.29 486.082 320.549 487.306 306.111Z" fill="#ffffff"/>
<path d="M550.347 239.531L511.908 218.566C511.908 218.566 515.382 209.463 489.183 192.35C486.173 190.379 486.565 188.846 486.565 188.846L473.716 152.37L455.373 187.753C455.373 187.753 427.173 227.541 412.794 259.11L491.52 282.831C493.716 275.218 496.862 267.54 501.425 260.514C501.425 260.514 541.905 271.679 551.229 243.024C552.369 239.531 550.347 239.531 550.347 239.531Z" fill="#ffffff"/>
<path fill-rule="evenodd" clip-rule="evenodd" d="M421.196 52.4547C420.023 49.3719 324.817 92.492 302.078 105.622C267.412 125.637 297.749 107.18 242.11 137.86C160.571 182.819 94.9594 224.442 87.2604 236.92C75.6192 255.787 88.5141 282.429 116.139 284.446C136.877 285.961 164.071 282.452 174.078 254.632C183.98 227.102 159.762 208.889 159.762 208.889L421.213 53.437C421.381 53.2542 421.363 52.8951 421.196 52.4547ZM166.03 237.955C169.764 251.606 157.658 269.895 137.406 275.484L137.347 275.5C117.072 281.075 96.2941 271.815 92.5567 258.152C88.8192 244.488 104.645 224.612 124.92 219.037C145.194 213.462 162.292 224.292 166.03 237.955Z" fill="#ffffff" stroke="#ffffff" stroke-width="7.85614" stroke-linecap="round" stroke-linejoin="round"/>
<path fill-rule="evenodd" clip-rule="evenodd" d="M446.328 147.453C446.904 150.701 343.062 162.555 316.807 162.956C276.783 163.569 312.293 163.84 248.794 166.065C155.739 169.326 78.066 167.276 65.0544 160.519C45.3803 150.3 42.7739 120.817 65.4473 104.908C82.4692 92.9641 107.609 82.0192 130.476 100.76C153.104 119.306 141.665 147.366 141.665 147.366L445.838 146.601C446.077 146.671 446.246 146.989 446.328 147.453ZM132.127 119.204C128.326 105.571 108.55 96.0877 88.2999 101.685L88.2407 101.701C67.9787 107.321 54.8985 125.933 58.7032 139.578C62.5078 153.223 86.2912 162.159 106.553 156.539C126.815 150.918 135.932 132.849 132.127 119.204Z" fill="#ffffff" stroke="#ffffff" stroke-width="7.85614" stroke-linecap="round" stroke-linejoin="round"/>
</svg>
