<svg width="48" height="48" viewBox="0 0 48 48" fill="none" xmlns="http://www.w3.org/2000/svg">
<path opacity="0.5" d="M18 4C18 4 20 4 24 4C28 4 30 4 30 4V10H18V4Z" fill="#ffffff"/>
<path opacity="0.2" fill-rule="evenodd" clip-rule="evenodd" d="M36 12C38.6125 12 40.8351 13.6697 41.6587 16.0003C44.9454 16.0318 47.6 18.7059 47.6 22C47.6 24.0291 46.5927 25.823 45.0509 26.9089C46.8724 28.7201 48 31.2284 48 34C48 38.1486 45.4737 41.7072 41.8756 43.2212C41.3115 45.9493 38.8952 48 36 48C33.3876 48 31.1651 46.3304 30.3414 44C26.9525 44 24 41.5359 24 38C24 35.8668 25.1132 33.9937 26.7904 32.9297C25.0623 31.1324 24 28.6902 24 26C24 21.8514 26.5263 18.2928 30.1244 16.7788C30.6885 14.0507 33.1048 12 36 12Z" fill="#ffffff"/>
<path d="M14 44H30.3414C26.9525 44 24 41.5359 24 38C24 35.8668 25.1132 33.9937 26.7904 32.9297C25.0623 31.1324 24 28.6902 24 26C24 21.8514 26.5263 18.2928 30.1244 16.7788C30.6885 14.0507 33.1048 12 36 12C38.6125 12 40.8351 13.6697 41.6587 16.0003C44.3633 16.0262 46.6398 17.8415 47.3614 20.3193L48 20L42.6833 9.36656C41.0388 6.07758 37.6772 4 34 4H30C30 7.31371 27.3137 10 24 10C20.6863 10 18 7.31371 18 4H14C10.3228 4 6.96121 6.07758 5.31672 9.36656L0 20L8 24L12 18V42C12 43.1046 12.8954 44 14 44Z" fill="#ffffff"/>
<path d="M38 18C38 16.8954 37.1046 16 36 16C34.8954 16 34 16.8954 34 18V20C30.6863 20 28 22.6863 28 26C28 29.3137 30.6863 32 34 32H38C39.1046 32 40 32.8954 40 34C40 35.1046 39.1046 36 38 36H30C28.8954 36 28 36.8954 28 38C28 39.1046 28.8954 40 30 40H34V42C34 43.1046 34.8954 44 36 44C37.1046 44 38 43.1046 38 42V40C41.3137 40 44 37.3137 44 34C44 30.6863 41.3137 28 38 28H34C32.8954 28 32 27.1046 32 26C32 24.8954 32.8954 24 34 24H41.6C42.7046 24 43.6 23.1046 43.6 22C43.6 20.8954 42.7046 20 41.6 20H38V18Z" fill="#ffffff"/>
</svg>
