<svg width="48" height="48" viewBox="0 0 48 48" fill="none" xmlns="http://www.w3.org/2000/svg">
<path fill-rule="evenodd" clip-rule="evenodd" d="M37.3469 6C36.58 6 35.8303 6.21999 35.1927 6.63215C34.555 7.04431 34.058 7.63012 33.7645 8.31552C33.4711 9.00091 33.3943 9.7551 33.5439 10.4827C33.6935 11.2103 34.0628 11.8787 34.6051 12.4033C35.1474 12.9278 35.8383 13.2851 36.5905 13.4298C37.3426 13.5745 38.1223 13.5003 38.8308 13.2164C39.5393 12.9325 40.1449 12.4517 40.571 11.8349C40.9971 11.218 41.2245 10.4928 41.2245 9.75094C41.2245 9.25836 41.1242 8.7706 40.9293 8.31552C40.7345 7.86043 40.4488 7.44693 40.0888 7.09863C39.7287 6.75032 39.3013 6.47403 38.8308 6.28552C38.3604 6.09702 37.8561 6 37.3469 6ZM10.7035 7.04126L9.10518 9.42986L26.6317 19.8575V19.8012L29.3987 18.2258C29.3877 19.3002 29.6652 20.359 30.2041 21.2986C30.7429 22.2381 31.5247 23.0263 32.4729 23.5859L32.5341 23.6444L38.3753 27.1403L40.4691 23.994L34.5667 20.4404H34.4977C33.8215 20.0743 33.4748 19.2356 33.4748 18.1095V14.5574C33.4748 14.5401 33.4748 14.3924 33.4748 14.3826C33.4748 12.1455 31.7803 10.4816 29.0257 10.4816C26.257 10.5962 23.6296 11.6958 21.6475 13.5694L10.7035 7.04126ZM17.9592 17.0045L16.8091 17.7622C16.3622 18.169 16.025 18.6755 15.8269 19.2374C15.6289 19.7993 15.5761 20.3995 15.6731 20.9857C15.7701 21.5719 16.0139 22.1262 16.3834 22.6003C16.7528 23.0743 17.2366 23.4537 17.7924 23.7052L25.2133 26.9678L18.0786 30.8132L5.96592 24.2866L4 27.4336L28.5938 40.6595C30.2226 41.5583 32.0697 42.0208 33.9448 41.9993C35.652 42.0092 37.3374 41.6287 38.8638 40.889L42 39.2026L40.0325 38.4449C37.2779 39.7502 33.3182 39.0045 30.5635 37.5124L22.0779 32.9685L27.2428 30.1718H27.3041C27.9291 29.8109 28.4559 29.3105 28.8404 28.7126C29.2248 28.1146 29.4559 27.4364 29.5143 26.7345C29.5365 26.0339 29.373 25.3394 29.0394 24.7173C28.7057 24.0951 28.213 23.5659 27.6081 23.1801V23.1215C27.5592 23.0885 27.5305 23.096 27.4856 23.063C24.8628 21.2971 21.7266 19.4261 21.2753 19.1621L20.9651 18.9873L17.9592 17.0045Z" fill="#ffffff"/>
</svg>
