<svg width="580" height="580" viewBox="0 0 580 580" fill="none" xmlns="http://www.w3.org/2000/svg">
<path d="M543.688 301.5C543.688 301.5 468.456 301.927 429.156 302.031L403.656 333.219H249.594L232.219 301.75C180.704 301.151 36.3125 302.125 36.3125 302.125C39.0869 336.25 62.4685 381.631 82.5625 409.406C102.656 437.181 123.005 435.874 130.531 435.875H475.688C483.214 435.874 492.865 431.135 498.188 425.812C535.349 364.748 533.824 343.851 543.688 301.5ZM504.125 355.031L503.375 362.906H124.719V355.156L504.125 355.031Z" fill="#000000"/>
<path d="M244.046 285.555L456.63 285.396L423.971 311.48H231.388L244.046 285.555Z" fill="#000000"/>
<path d="M252.963 308.723H263.473V334.648H252.963V308.723Z" fill="#000000"/>
<path d="M285.502 309.096H296.013V335.02H285.502V309.096Z" fill="#000000"/>
<path d="M318.042 308.181H328.553V334.105H318.042V308.181Z" fill="#000000"/>
<path d="M383.121 308.723H393.631V334.648H383.121V308.723Z" fill="#000000"/>
<path d="M256.317 58.6782H268.018L277.783 291.918H255.232L256.317 58.6782Z" fill="#000000"/>
<path d="M350.581 308.723H361.092V334.648H350.581V308.723Z" fill="#000000"/>
<path d="M432.921 253.736H448.165L459.098 261.6L479.873 262.559L479.681 311.691H432.921V253.736Z" fill="#000000"/>
<path d="M369.742 103.705H380.901L387.411 290.291L364.317 288.121L369.742 103.705Z" fill="#000000"/>
<path d="M233.672 113.45L287.739 135.139" stroke="#000000" stroke-width="15" stroke-linecap="round" stroke-linejoin="round"/>
<path d="M222.714 191.623L302.648 239.841" stroke="#000000" stroke-width="13.7673" stroke-linecap="round" stroke-linejoin="round"/>
<path d="M349.438 151.483L398.654 174.71" stroke="#000000" stroke-width="15" stroke-linecap="round" stroke-linejoin="round"/>
<path d="M341.367 205.572L407.268 241.597" stroke="#000000" stroke-width="15" stroke-linecap="round" stroke-linejoin="round"/>
</svg>
