<svg width="580" height="580" viewBox="0 0 580 580" fill="none" xmlns="http://www.w3.org/2000/svg">
<path d="M507.088 462.128C501.61 424.967 494.895 415.832 483.303 394.503C492.839 350.791 477.206 306.769 460.136 290.318C475.987 239.144 441.228 214.522 397.352 201.51C408.671 192.466 408.399 171.537 400.464 160.491C402.411 154.122 400.209 149.336 398.772 144.094C404.722 139.854 404.177 129.299 401.611 120.91C391.11 86.6787 362.521 54.6497 344.122 54.6497C249.764 54.6497 234.022 137.561 231.511 163.967C133.294 174.031 130.456 235.432 151.966 275.723C145.123 314.849 152.658 334.613 181.283 362.31C147.635 355.304 138.536 313.594 137.517 298.489C109.273 300.491 81.0653 328.371 89.1636 364.949C70.5467 387.588 58.9543 417.488 69.8005 465.786C62.1391 470.299 54.6777 483.147 54.6777 491.464C54.6777 513.793 63.8133 524.312 77.9534 524.731C100.61 525.404 138.936 525.349 153.422 525.349C167.908 525.349 166.98 514.23 166.98 509.171C166.98 497.287 156.588 486.095 141.684 476.632C159.755 469.863 167.78 441.637 166.361 432.865C172.803 436.487 202.885 439.653 211.001 436.523C217.88 452.592 227.689 476.014 244.068 486.696C244.068 486.696 244.523 491.428 242.739 489.098C240.938 486.751 237.826 485.75 234.131 485.75C219.536 485.75 212.894 525.349 251.11 525.349H312.257C329.527 525.349 337.443 517.16 337.443 504.348C337.443 487.861 331.474 470.973 319.482 462.383C322.994 435.632 323.849 393.375 294.513 358.471C304.777 312.047 296.97 278.817 269.909 248.262C309.691 270.518 321.52 324.804 311.147 351.628C330.71 375.086 337.571 390.718 339.518 413.684C414.841 368.735 427.216 339.199 426.597 311.865C425.851 279.035 396.551 230.154 396.551 230.154C401.174 234.049 433.549 275.341 440.155 305.514C443.358 320.181 446.014 364.84 391.51 403.621C393.694 435.322 406.415 463.238 434.459 481.51C438.426 490.281 435.023 498.762 431.347 500.454C434.459 489.699 429.363 485.75 422.011 485.75C407.416 485.75 400.773 525.349 438.99 525.349H500.136C517.406 525.349 525.323 517.16 525.323 504.348C525.286 487.715 519.281 470.663 507.088 462.128ZM368.471 209.135C350.928 209.135 349.29 184.167 354.313 178.598C321.483 152.866 337.043 138.435 352.202 141.201C359.299 142.493 382.066 146.915 392.293 146.023C394.513 149.736 393.658 156.524 392.602 162.074C395.077 164.44 399.318 169.827 398.48 180C397.971 186.096 390.273 209.135 368.471 209.135Z" fill="white"/>
<path d="M390.309 150.245C391.601 150.573 392.657 151.574 392.657 152.975C392.657 154.631 391.328 155.96 389.672 155.96C388.016 155.96 386.687 154.631 386.687 152.975C386.687 152.375 387.015 151.883 387.343 151.41C385.541 152.102 383.83 152.684 382.575 152.684C381.264 152.684 379.754 152.356 378.189 151.938C378.407 152.356 378.735 152.739 378.735 153.248C378.735 154.904 377.406 156.233 375.75 156.233C374.094 156.233 372.766 154.904 372.766 153.248C372.766 152.102 373.53 151.283 374.476 150.791C367.306 148.316 359.699 144.913 358.68 150.973C357.971 155.177 363.412 161.219 371.565 164.331C371.565 164.331 374.622 159.217 383.448 159.781C390.273 158.926 393.876 161.983 393.876 161.983C397.588 158.107 398.134 152.775 397.952 150.973C397.588 147.734 394.076 148.771 390.309 150.245Z" fill="white"/>
<path d="M380.501 177.507C380.501 177.507 374.004 175.032 374.004 171.792C374.004 169.226 375.169 167.079 378.936 166.806C382.703 166.533 384.213 168.335 388.217 168.426C390.965 168.498 393.149 164.44 395.878 166.442C398.226 168.171 395.915 173.103 394.532 175.068C391.128 175.323 395.86 169.008 393.294 169.809C392.148 170.154 391.274 171.883 388.508 172.083C382.448 172.52 378.135 168.644 377.953 171.883C377.753 175.195 384.177 174.504 380.501 177.507Z" fill="white"/>
<path d="M401.337 182.256C401.337 182.256 377.151 178.562 363.484 195.614C363.484 201.874 368.616 204.713 368.616 204.713C368.616 204.713 374.003 184.822 401.337 182.256Z" fill="white"/>
</svg>
