<svg width="48" height="48" viewBox="0 0 48 48" fill="none" xmlns="http://www.w3.org/2000/svg">
<path fill-rule="evenodd" clip-rule="evenodd" d="M16 4H8V44H16V32H26C33.732 32 40 25.732 40 18C40 10.268 33.732 4 26 4H16ZM16 12V24H26C29.3137 24 32 21.3137 32 18C32 14.6863 29.3137 12 26 12H16Z" fill="white" fill-opacity="0.25"/>
<path fill-rule="evenodd" clip-rule="evenodd" d="M16 32H26C33.732 32 40 25.732 40 18C40 10.268 33.732 4 26 4H8V44H16V32ZM14 42V30H26C32.6274 30 38 24.6274 38 18C38 11.3726 32.6274 6 26 6H10V42H14ZM14 10H26C30.4183 10 34 13.5817 34 18C34 22.4183 30.4183 26 26 26H14V10ZM16 24V12H26C29.3137 12 32 14.6863 32 18C32 21.3137 29.3137 24 26 24H16Z" fill="white" fill-opacity="0.25"/>
<g opacity="0.75">
<path d="M8 20V28H16V32H24V28H32V30.6527C33.4122 29.9819 34.6942 29.0816 35.798 28H32V20H39.8582C39.9517 19.3468 40 18.679 40 18C40 15.8528 39.5166 13.8185 38.6527 12H32V5.34726C30.1815 4.48338 28.1472 4 26 4H24V12H32V20H31.6586C30.8349 22.3304 28.6124 24 26 24H24V28H16V20H8Z" fill="white"/>
<path d="M16 36H8V44H16V36Z" fill="white"/>
<path d="M8 12H16V4H8V12Z" fill="white"/>
</g>
</svg>
