<svg width="580" height="580" viewBox="0 0 580 580" fill="none" xmlns="http://www.w3.org/2000/svg">
<path d="M143.233 541.522C110.32 541.522 83.6393 514.841 83.6393 481.928C83.6393 449.015 110.32 422.334 143.233 422.334C176.146 422.334 202.827 449.015 202.827 481.928C202.827 514.841 176.146 541.522 143.233 541.522Z" stroke="white" stroke-width="21.2569"/>
<path d="M398.637 540.361C365.724 540.361 339.043 513.68 339.043 480.767C339.043 447.854 365.724 421.173 398.637 421.173C431.549 421.173 458.23 447.854 458.23 480.767C458.23 513.68 431.549 540.361 398.637 540.361Z" stroke="white" stroke-width="21.2569"/>
<path d="M351.426 379.38L198.184 380.154L144.008 480.767H247.717L356.069 407.242" stroke="white" stroke-width="17.0668" stroke-linejoin="round"/>
<path fill-rule="evenodd" clip-rule="evenodd" d="M345.537 319.082C353.861 319.082 360.153 318.897 366.602 328.749C368.458 332.033 369.307 336.043 368.621 340.035C367.799 344.573 365.112 349.033 361.944 351.673C357.749 355.168 353.768 354.899 354.412 358.041C355.237 362.073 357.757 367.676 360.479 376.775C363.243 386.01 366.524 397.313 369.745 408.446C372.967 419.58 376.129 430.549 378.632 439.097C379.883 443.37 380.976 447.04 381.815 449.789C382.633 452.466 383.355 454.546 383.289 454.398C385.896 458.986 386.251 461.976 390.625 465.881C395.529 470.173 399.522 473.344 400.908 474.312C404.428 476.869 406.064 482.265 404.206 484.931C401.863 488.565 397.025 489.122 393.49 488.035C390.132 486.97 384.818 485.139 378.655 480.035L378.608 479.964L378.537 479.916C369.962 472.561 366.789 463.634 366.467 463.118L366.015 462.429L365.706 461.669C364.963 459.839 364.518 458.227 363.639 455.348C362.76 452.47 361.646 448.751 360.384 444.443C357.861 435.825 354.715 424.839 351.498 413.721C348.281 402.603 345.008 391.358 342.279 382.239C339.55 373.121 337.827 365.632 337.189 364.039C335.639 360.162 334.846 355.976 335.906 351.779C336.967 347.582 340.135 344.195 342.979 343.408C349.471 341.592 347.748 336.922 344.427 336.915L316.595 336.859L316.526 319.083C316.527 319.082 334.592 319.082 345.537 319.082L345.537 319.082Z" fill="white"/>
<path fill-rule="evenodd" clip-rule="evenodd" d="M245.731 477.617L193.193 349.01L245.731 477.617Z" fill="white"/>
<path d="M245.731 477.617L193.193 349.01" stroke="white" stroke-width="20.4393"/>
<path fill-rule="evenodd" clip-rule="evenodd" d="M263.792 444.779L232.049 518.663L263.792 444.779Z" fill="white"/>
<path d="M263.792 444.779L232.049 518.663" stroke="white" stroke-width="7.46035" stroke-linecap="round"/>
<path d="M247.137 495.801C237.857 495.801 230.334 489.156 230.334 480.96C230.334 472.764 237.857 466.119 247.137 466.119C256.417 466.119 263.939 472.764 263.939 480.96C263.939 489.156 256.417 495.801 247.137 495.801Z" fill="white" stroke="white" stroke-width="6.78202"/>
<path fill-rule="evenodd" clip-rule="evenodd" d="M277.923 444.812L249.883 445.07L277.923 444.812Z" fill="white"/>
<path d="M277.923 444.812L249.883 445.07" stroke="white" stroke-width="10.4245" stroke-linecap="round"/>
<path fill-rule="evenodd" clip-rule="evenodd" d="M246.342 517.602L218.302 517.859L246.342 517.602Z" fill="white"/>
<path d="M246.342 517.602L218.302 517.859" stroke="white" stroke-width="10.4241" stroke-linecap="round"/>
<path fill-rule="evenodd" clip-rule="evenodd" d="M167.472 337.517H233.417C235.88 337.517 239.058 341.873 235.88 344.768C232.442 348.04 201.539 354.755 201.539 354.755C201.539 354.755 193.056 357.081 188.541 356.534C184.026 355.987 168.429 354.619 167.472 337.517Z" fill="white"/>
<path d="M35.8528 45.582C34.4881 45.5822 33.1794 46.1244 32.2144 47.0894C31.2494 48.0544 30.7072 49.3631 30.707 50.7278V271.763C30.7072 273.127 31.2494 274.436 32.2144 275.401C33.1794 276.366 34.4881 276.908 35.8528 276.908H65.0935C66.4582 276.908 67.7669 276.366 68.7319 275.401C69.6969 274.436 70.2391 273.127 70.2393 271.763V187.05H121.795C153.773 187.05 176.948 180.521 190.422 165.859C203.219 151.933 209.73 134.542 209.73 114.651C209.73 102.993 207.324 92.1101 202.495 82.2347C202.495 82.2342 202.495 82.2336 202.495 82.2331C197.698 72.4237 191.2 64.5494 183.077 58.9295C175.005 53.3455 165.168 49.677 153.741 47.7687C145.439 46.2644 134.043 45.5822 119.227 45.582H35.8528ZM70.2393 81.9614H121.643C134.729 81.9616 143.789 82.7341 147.611 83.7444C154.169 85.5638 159.161 89.0866 163.215 94.7971C167.232 100.456 169.283 107.188 169.283 115.566C169.283 127.262 165.878 135.397 159.09 141.412C152.664 147.106 140.513 150.671 122.253 150.671H70.2393V81.9614Z" fill="white"/>
<path d="M503.344 50.7216C475.558 41.153 486.835 63.6693 487 93.4997C487 179.932 416.932 250 330.5 250C301.923 249.932 289.205 250.111 266.5 241.181C243.794 232.252 249.5 264 249.5 264C250.94 274.708 258.499 283.5 269 283.5H523C533.5 283.5 542.5 274.5 542.5 264V77.9997C542.5 67.4994 538.938 62.9794 529.01 59.5604L503.344 50.7216Z" fill="white"/>
<path d="M315.967 256.882C309.667 242.641 304.168 221.885 304.168 205.311C304.168 141.673 355.756 90.085 419.394 90.085C448.945 90.085 475.898 101.209 496.293 119.498" stroke="white" stroke-width="31.7551" stroke-linecap="round" stroke-linejoin="round"/>
</svg>
