<svg width="580" height="580" viewBox="0 0 580 580" fill="none" xmlns="http://www.w3.org/2000/svg">
<path d="M370.584 291.749C370.584 333.868 336.44 368.012 294.321 368.012C252.203 368.012 218.059 333.868 218.059 291.749C218.059 249.63 252.203 215.486 294.321 215.486C336.44 215.486 370.584 249.63 370.584 291.749Z" fill="#ffffff"/>
<path d="M484.31 291.749C484.31 396.677 399.249 481.737 294.321 481.737C189.394 481.737 104.333 396.677 104.333 291.749C104.333 186.821 189.394 101.761 294.321 101.761C399.249 101.761 484.31 186.821 484.31 291.749Z" stroke="#ffffff" stroke-width="26.1591"/>
<path d="M260.692 401.299V557.738L339.369 479.061L260.692 401.299Z" fill="#ffffff" stroke="#ffffff" stroke-width="12.3556" stroke-linecap="round" stroke-linejoin="round"/>
<path d="M184.248 260.895H27.8087L106.486 339.572L184.248 260.895Z" fill="#ffffff" stroke="#ffffff" stroke-width="12.3556" stroke-linecap="round" stroke-linejoin="round"/>
<path d="M317.962 183.113V26.6738L239.285 105.351L317.962 183.113Z" fill="#ffffff" stroke="#ffffff" stroke-width="12.3556" stroke-linecap="round" stroke-linejoin="round"/>
<path d="M402.434 327.531H558.873L480.196 248.854L402.434 327.531Z" fill="#ffffff" stroke="#ffffff" stroke-width="12.3556" stroke-linecap="round" stroke-linejoin="round"/>
</svg>
