<svg width="48" height="48" viewBox="0 0 48 48" fill="none" xmlns="http://www.w3.org/2000/svg">
<path fill-rule="evenodd" clip-rule="evenodd" d="M17.1213 12C15.7631 12 14.4604 12.5396 13.5 13.5C12.5396 14.4604 12 15.7631 12 17.1213V32C12 34.2091 13.7909 36 16 36H32C34.2091 36 36 34.2091 36 32V17.1213C36 15.7631 35.4604 14.4604 34.5 13.5C33.5396 12.5396 32.2369 12 30.8787 12H17.1213ZM16 16H32V24H16V16ZM20 30C20 31.1046 19.1046 32 18 32C16.8955 32 16 31.1046 16 30C16 28.8954 16.8955 28 18 28C19.1046 28 20 28.8954 20 30ZM32 30C32 31.1046 31.1046 32 30 32C28.8955 32 28 31.1046 28 30C28 28.8954 28.8955 28 30 28C31.1046 28 32 28.8954 32 30Z" fill="white"/>
<g opacity="0.5">
<path d="M4 0H44V4H24H4V0Z" fill="white"/>
<path fill-rule="evenodd" clip-rule="evenodd" d="M24 4C35.0457 4 44 12.9543 44 24C44 35.0457 35.0457 44 24 44C12.9543 44 4 35.0457 4 24C4 12.9543 12.9543 4 24 4ZM16.248 38C18.5445 39.2743 21.1875 40 24 40C26.8125 40 29.4555 39.2743 31.752 38H16.248ZM16.0393 37.8821C11.2352 35.1213 8 29.9385 8 24C8 15.1634 15.1634 8 24 8C32.8366 8 40 15.1634 40 24C40 29.9385 36.7648 35.1213 31.9607 37.8821L30.6667 34H17.3333L16.0393 37.8821Z" fill="white"/>
</g>
</svg>
