<svg width="48" height="48" viewBox="0 0 48 48" fill="none" xmlns="http://www.w3.org/2000/svg">
<path fill-rule="evenodd" clip-rule="evenodd" d="M19 7C19 4.23858 21.2386 2 24 2C26.7614 2 29 4.23858 29 7V19.0587L45.1469 30.3615C45.6816 30.7358 46 31.3474 46 32V36C46 36.6322 45.7011 37.2272 45.1939 37.6046C44.6866 37.982 44.0309 38.0973 43.4253 37.9157L29 33.5881V37.25L33.2 40.4C33.7036 40.7777 34 41.3705 34 42V44C34 44.6159 33.7163 45.1974 33.2308 45.5764C32.7454 45.9554 32.1124 46.0897 31.5149 45.9403L24 44.0616L16.4851 45.9403C15.8876 46.0897 15.2546 45.9554 14.7692 45.5764C14.2837 45.1974 14 44.6159 14 44V42C14 41.3705 14.2964 40.7777 14.8 40.4L19 37.25V33.5881L4.5747 37.9157C3.96915 38.0973 3.31336 37.982 2.80614 37.6046C2.29892 37.2272 2 36.6322 2 36V32C2 31.3474 2.31842 30.7358 2.85308 30.3615L19 19.0587V7Z" fill="#ffffff"/>
</svg>
