<svg width="580" height="580" viewBox="0 0 580 580" fill="none" xmlns="http://www.w3.org/2000/svg">
<path d="M436.992 41.6992L200.111 315.006" stroke="white" stroke-width="24.7344" stroke-linecap="round" stroke-linejoin="round"/>
<path d="M185.774 134.314C190.791 117.008 180.83 98.9106 163.524 93.893C146.217 88.8753 128.121 98.837 123.103 116.143C118.085 133.449 128.047 151.546 145.353 156.564C162.659 161.581 180.756 151.62 185.774 134.314Z" fill="white"/>
<path d="M158.609 206.96L176.67 304.403" stroke="white" stroke-width="56.5548" stroke-linecap="round" stroke-linejoin="round"/>
<path d="M305.873 451.177L270.66 350.217L181.261 315.361" stroke="white" stroke-width="40.384" stroke-linecap="round" stroke-linejoin="round"/>
<path d="M523.692 417.176L506.42 419.523C507.722 424.73 506.5 430.894 502.755 434.641C500.966 436.429 498.729 437.702 496.126 438.359L157.582 527.343L162.647 546.886L500.005 457.655C508.37 455.323 509.53 453.449 515.827 447.489C522.176 441.139 525.804 425.806 523.692 417.176Z" fill="white"/>
<path d="M312.134 172.108L162.631 194.529" stroke="white" stroke-width="36.484" stroke-linecap="round" stroke-linejoin="round"/>
<path d="M185.197 375.414C188.583 363.734 181.86 351.52 170.18 348.134C158.5 344.747 146.287 351.471 142.9 363.15C139.514 374.83 146.237 387.044 157.917 390.431C169.597 393.817 181.811 387.094 185.197 375.414Z" fill="white"/>
</svg>
