<svg width="580" height="580" viewBox="0 0 580 580" fill="none" xmlns="http://www.w3.org/2000/svg">
<path d="M324.626 526.095C349.108 515.498 360.531 516.931 380.681 527.472C400.831 538.015 420.979 538.015 444.744 525.892C468.506 513.768 487.847 520.68 498.578 527.184C507.562 532.628 516.545 534.806 529.987 534.806V486.317C509.74 486.35 501.054 479.466 501.054 479.466C480.132 466.551 460.953 469.106 434.605 482.811C419.576 490.625 395.743 488.569 378.871 479.773C355.622 467.651 342.459 470.615 318.093 481.45C299.214 489.843 282.176 489.839 263.375 481.45C239.024 470.585 226.466 467.651 203.217 479.773C186.345 488.569 162.164 490.625 147.135 482.811C120.786 469.106 101.956 466.551 81.0319 479.466C81.0319 479.466 72.0005 486.317 52.1006 486.317V534.806C64.6502 534.806 74.4505 532.356 82.8895 527.184C93.5989 520.62 113.579 513.768 137.344 525.892C161.11 538.015 181.259 538.015 201.408 527.472C221.557 516.931 232.724 515.031 257.205 525.629C280.971 537.751 304.477 536.636 324.626 526.095Z" fill="white"/>
<path d="M256.437 37.0312V85.0312H200.656V120.844H160.844V188.844L140.187 197.25C127.788 202.52 122.614 213.597 127.781 225.719L161.875 304.25V413.594C139.787 413.568 120.976 386.735 80.7812 409.156C80.7812 409.156 69.2806 415.573 51.8438 416V462.875C65.4692 461.863 71.9897 459.676 82.3125 453.906C93.2734 447.778 113.328 441.815 137.094 453.938C160.86 466.06 181.007 466.073 201.156 455.531C221.305 444.99 238.862 444.45 257.719 453.938C281.485 466.06 300.138 466.197 324.094 454.219C343.422 444.419 360.79 444.99 380.937 455.531C401.087 466.073 421.235 466.06 445 453.938C468.765 441.815 488.702 447.955 499.75 453.906C509.453 459.132 516.276 461.863 530.25 462.875V415.562C512.465 415.136 501.312 408.719 501.312 408.719C460.192 386.287 442.291 413.594 420.187 413.594V304.25L454.312 225.719C459.478 213.597 454.306 202.52 441.906 197.25L421.25 188.844V120.844H381.437V85.0312H325.656V37.0312H291.031H256.437ZM230.094 113.469H291.031H352V148.75H391.781V176.188L291.031 134.625L190.312 176.188V148.75H230.094V113.469Z" fill="white"/>
</svg>
