<svg width="28" height="28" viewBox="0 0 28 28" fill="none" xmlns="http://www.w3.org/2000/svg">
<path fill-rule="evenodd" clip-rule="evenodd" d="M9.41421 4C8.50871 4 7.64029 4.35971 7 5C6.35971 5.64029 6 6.50871 6 7.41421V20C6 21.1046 6.89543 22 8 22H20C21.1046 22 22 21.1046 22 20V7.41421C22 6.50871 21.6403 5.64029 21 5C20.3597 4.35971 19.4913 4 18.5858 4H9.41421ZM20 8H8V16H20V8ZM9 18C8.44772 18 8 18.4477 8 19C8 19.5523 8.44772 20 9 20C9.55228 20 10 19.5523 10 19C10 18.4477 9.55228 18 9 18ZM18 19C18 18.4477 18.4477 18 19 18C19.5523 18 20 18.4477 20 19C20 19.5523 19.5523 20 19 20C18.4477 20 18 19.5523 18 19Z" fill="#0092DA"/>
<path opacity="0.5" d="M9 20H11L9.66667 24H18.3333L17 20H19L21 26H7L9 20Z" fill="#0092DA"/>
</svg>
