<svg width="580" height="580" viewBox="0 0 580 580" fill="none" xmlns="http://www.w3.org/2000/svg">
<path fill-rule="evenodd" clip-rule="evenodd" d="M463.594 340.967L391.446 267.589L391.777 224.759L444.884 276.689C446.646 193.623 375.12 123.858 307.941 114.885L313.893 78.9434C431.847 102.291 479.349 194.502 481.618 276.385L535.23 224.262L535.474 268.801L463.594 340.967Z" fill="#ffffff"/>
<path fill-rule="evenodd" clip-rule="evenodd" d="M132.651 406.549L232.377 381.159L269.214 403.01L197.608 422.748C268.489 466.094 364.779 439.424 406.357 385.899L434.413 409.138C354.851 499.294 251.264 493.906 179.375 454.639L197.415 527.203L158.811 504.989L132.651 406.549Z" fill="#ffffff"/>
<path fill-rule="evenodd" clip-rule="evenodd" d="M241.659 88.0911L213.544 187.083L176.151 207.969L195.035 136.133C121.96 175.668 96.6778 272.332 122.09 335.163L87.9062 347.759C49.8861 233.685 106.556 146.807 176.61 104.353L104.797 83.5197L143.392 61.2881L241.659 88.0911Z" fill="#ffffff"/>
</svg>
