<?xml version="1.0" encoding="UTF-8"?>
<svg width="58mm" height="58mm" fill-rule="evenodd" shape-rendering="geometricPrecision" version="1.2" viewBox="-.16 -13.5 15.9 11.3" xml:space="preserve" xmlns="http://www.w3.org/2000/svg" xmlns:cc="http://creativecommons.org/ns#" xmlns:dc="http://purl.org/dc/elements/1.1/" xmlns:rdf="http://www.w3.org/1999/02/22-rdf-syntax-ns#">
  <title>RCKLDG01P</title>
  <desc>rock or coral drying ledges</desc>
  <metadata>
    
 
 
 
 
 <!-- Rock or coral drying ledges SVG modified 2013-10-27 for openseamap, based on IHO Portrayl Catalogoue,  https://registry.iho.int/portrayal/view.do?itemIdentifier=448&type=3&domain=&status=2&searchValue=RCKLDG01P -->
    
 
 
 
 
 <!-- iho:S100SVG xmlns:iho="http://www.iho.int/SVGMetadata" -->
    
 
 
 
 
 <!-- iho:Description iho:publisher="IHB" iho:creationDate="2015-03-04" iho:source="S52Preslib4.0" iho:format="S100SVG" iho:version="0.1"/ -->
    
 
 
 
 
 <!-- /iho:S100SVG -->
  <rdf:RDF><cc:Work rdf:about=""><dc:title>RCKLDG01P</dc:title></cc:Work></rdf:RDF></metadata><g transform="translate(-.427 -.372)" fill="none"><rect class="symbolBox layout" x=".432" y="-15" width="15.4" height="14.6" stroke-width="1.05"/><rect class="svgBox layout" x=".372" y="-15" width="15.5" height="14.7" stroke-width="1.05"/><g stroke="#8d642e" stroke-linejoin="round"><g stroke-width=".671px"><path d="m2.77-0.37 2.16-1.85"/><path d="m2.08-12.6 1.03 3.38"/><path d="m8.83-8.26-1.6 2.53"/><path d="m6.71-12.3 0.75-2.68"/><path d="m10.3-3.44 0.5 3.18"/><path d="m14.7-4.61 1.15-2.81"/><path d="m14.9-11.2-2.5-0.891"/><path d="m3.11-9.34-2.68-1.52"/><path d="m7.32-5.75-0.27-2.93"/><path d="m2.72-0.37 0.29-2.83"/></g><path d="m10.3-3.44 2.6 2.05" stroke-width=".671px"/><g stroke-width=".671px"><path d="m15.8-7.4-2.64 1.22"/><path d="m12.4-12.1 2.05-1.49"/><path d="m7.46-15 1.1 2.59"/></g></g></g></svg>
