<?xml version="1.0" encoding="UTF-8"?>
<svg width="128mm" height="64mm" version="1.0" xmlns="http://www.w3.org/2000/svg" xmlns:cc="http://creativecommons.org/ns#" xmlns:dc="http://purl.org/dc/elements/1.1/" xmlns:rdf="http://www.w3.org/1999/02/22-rdf-syntax-ns#">
 <title>SEAGRA18</title>
 <desc>seagrass</desc>
 <metadata>
  <!-- Created for Openseamap, CC BY-SA 2.0, 2021-10-13, josail, seagrass simplified SVG based on IHO NCWG2-08.9A J13.4, https://legacy.iho.int/mtg_docs/com_wg/NCWG/NCWG2/NCWG2-08.9A%20seagrass.pdf -->
  <rdf:RDF>
   <cc:Work rdf:about="">
    <dc:title>SEAGRA18</dc:title>
   </cc:Work>
  </rdf:RDF>
 </metadata>
 <g fill="none" stroke="#000" stroke-width="12">
  <path d="m29.9 77.9c17.6-20.9 35.1-41.8 43.9-45.3 8.8-3.48 8.8 10.4 8.8 24.4s0 27.9 10.5 20.9c10.5-6.94 31.6-34.8 42.2-41.8 10.5-6.94 10.5 6.94 10.5 20.9 0 13.9 0 27.9 10.5 20.9 10.5-6.94 31.6-34.8 42.2-41.8 10.5-6.94 10.5 6.94 10.5 20.9s0 27.9 8.46 25.1c8.46-2.78 25.3-22.3 42.2-41.8"/>
  <path d="m222 201c17.6-20.9 35.1-41.8 43.9-45.3 8.8-3.48 8.8 10.4 8.8 24.4 0 13.9 0 27.9 10.5 20.9 10.5-6.94 31.6-34.8 42.2-41.8 10.5-6.94 10.5 6.94 10.5 20.9s0 27.9 10.5 20.9c10.5-6.94 31.6-34.8 42.2-41.8 10.5-6.94 10.5 6.94 10.5 20.9 0 13.9 0 27.9 8.46 25.1s25.3-22.3 42.2-41.8"/>
 </g>
</svg>
