<?xml version="1.0" encoding="UTF-8" standalone="no"?>
<svg
   xmlns:dc="http://purl.org/dc/elements/1.1/"
   xmlns:cc="http://creativecommons.org/ns#"
   xmlns:rdf="http://www.w3.org/1999/02/22-rdf-syntax-ns#"
   xmlns:svg="http://www.w3.org/2000/svg"
   xmlns="http://www.w3.org/2000/svg"
   xmlns:sodipodi="http://sodipodi.sourceforge.net/DTD/sodipodi-0.dtd"
   xmlns:inkscape="http://www.inkscape.org/namespaces/inkscape"
   width="580"
   height="580"
   id="svg2"
   version="1.1"
   inkscape:version="0.48.4 r9939"
   sodipodi:docname="hazard_slippery_road.svg">
  <defs
     id="defs13" />
  <sodipodi:namedview
     pagecolor="#ffffff"
     bordercolor="#666666"
     borderopacity="1"
     objecttolerance="10"
     gridtolerance="10"
     guidetolerance="10"
     inkscape:pageopacity="0"
     inkscape:pageshadow="2"
     inkscape:window-width="1920"
     inkscape:window-height="1004"
     id="namedview11"
     showgrid="false"
     inkscape:zoom="0.8137931"
     inkscape:cx="246.12496"
     inkscape:cy="359.4894"
     inkscape:window-x="1680"
     inkscape:window-y="0"
     inkscape:window-maximized="1"
     inkscape:current-layer="svg2"
     inkscape:snap-center="true"
     inkscape:snap-object-midpoints="true" />
  <metadata
     id="metadata2975">image/svg+xmlen<rdf:RDF>
  <cc:Work
     rdf:about="">
    <dc:format>image/svg+xml</dc:format>
    <dc:type
       rdf:resource="http://purl.org/dc/dcmitype/StillImage" />
    <dc:title />
  </cc:Work>
</rdf:RDF>
</metadata>
  <g
     id="g5"
     transform="matrix(0.72675833,0,0,0.72677808,79.240087,79.871053)"
     style="fill:#000000;fill-opacity:1;stroke:none">
    <title
       id="title7">Layer 1</title>
    <g
       id="g1327"
       style="fill:#000000;fill-opacity:1;stroke:none" />
    <path
       style="fill:#000000;fill-opacity:1;fill-rule:evenodd;stroke:none"
       d="M 288.21875,150.3811 A 32.25812,32.25812 0 0 0 262,166.47485 l -122.9375,212.875 a 32.25812,32.25812 0 0 0 27.90625,48.375 l 246,0.1875 a 32.25812,32.25812 0 0 0 27.96875,-48.375 L 317.875,166.47485 A 32.25812,32.25812 0 0 0 288.21875,150.3811 z"
       id="path2990"
       inkscape:connector-curvature="0" />
  </g>
  <path
     style="color:#000000;fill:#fff200;fill-opacity:1;fill-rule:nonzero;stroke:none;marker:none;visibility:visible;display:inline;overflow:visible;enable-background:accumulate"
     d="m 194.12489,371.33479 96.9649,-167.96429 97.08114,168.16567 z"
     id="path3788"
     inkscape:connector-curvature="0" />
  <path
     style="fill:#000000;fill-opacity:1;stroke:none"
     d="m 282.24682,259.41125 c -4.51161,-1.03902 -7.35965,0.38423 -8.99679,2.44091 l -8.66094,10.78921 c -2.38008,-0.29644 -7.00551,0.9421 -7.95996,5.08655 l -3.55536,15.43806 5.70881,1.31472 -1.13702,4.93719 c -1.39887,6.07417 9.34115,8.47225 10.72355,2.4696 l 1.13703,-4.93717 19.28989,4.44242 0.006,10e-4 19.28989,4.44242 -1.13703,4.93718 c -1.38239,6.00264 9.32463,8.54378 10.72356,2.46962 l 1.13702,-4.93719 5.7088,1.31473 3.55535,-15.43806 c 0.95446,-4.14445 -2.66326,-7.28139 -4.93331,-8.05584 l -3.07556,-13.49211 c -0.57265,-2.56558 -2.51125,-5.09118 -7.0229,-6.13021 l -8.29119,-1.90944 -14.11884,-3.25154 -8.39126,-1.9325 z m -1.08692,4.40505 15.45693,3.55969 0.0125,0.003 0.006,0.001 15.46316,3.56114 c 1.93014,0.45969 2.535,1.61967 2.77838,3.08893 l 2.22055,10.57163 -23.19787,-5.34241 -0.006,-10e-4 -0.0125,-0.003 -23.19163,-5.34099 6.62087,-8.53547 c 0.86153,-1.2148 1.91261,-1.9934 3.8496,-1.56252 z"
     id="path2301"
     inkscape:connector-curvature="0"
     sodipodi:nodetypes="cccsccssccccssccsccsccccccccccccccccc" />
  <path
     style="fill:#000000;fill-opacity:1;stroke:none"
     d="m 251.90006,361.50779 27.14041,0 c 0,0 6.46146,-12.0626 -2.81115,-20.63643 -8.38275,-7.75103 -15.18729,-10.36432 -17.04604,-14.64574 -3.17032,-7.30246 2.91546,-13.29957 2.91546,-13.29957 0,0 -12.02331,3.94068 -12.93942,8.38183 -1.54799,7.5044 2.52351,9.46248 14.47092,23.03909 7.82992,8.89763 -11.73018,17.16082 -11.73018,17.16082 z"
     id="path3767"
     inkscape:connector-curvature="0"
     sodipodi:nodetypes="ccsscssc" />
  <path
     style="fill:#000000;fill-opacity:1;stroke:none"
     d="m 305.43559,361.44547 27.14041,0 c 0,0 0.9318,-5.15052 -8.34081,-13.72435 -8.38275,-7.75103 -16.27342,-10.79877 -18.13217,-15.08019 -3.17032,-7.30246 4.00159,-12.86512 4.00159,-12.86512 0,0 -12.7836,2.63733 -14.67722,10.77131 -1.73738,7.46283 1.69108,8.50841 14.3623,19.83501 7.41231,6.62575 -4.3541,11.06334 -4.3541,11.06334 z"
     id="path3767-2"
     inkscape:connector-curvature="0"
     sodipodi:nodetypes="ccsscssc" />
</svg>
