<?xml version="1.0" encoding="UTF-8" standalone="no"?>
<svg
   xmlns:dc="http://purl.org/dc/elements/1.1/"
   xmlns:cc="http://creativecommons.org/ns#"
   xmlns:rdf="http://www.w3.org/1999/02/22-rdf-syntax-ns#"
   xmlns:svg="http://www.w3.org/2000/svg"
   xmlns="http://www.w3.org/2000/svg"
   xmlns:sodipodi="http://sodipodi.sourceforge.net/DTD/sodipodi-0.dtd"
   xmlns:inkscape="http://www.inkscape.org/namespaces/inkscape"
   width="580"
   height="580"
   id="svg2"
   version="1.1"
   inkscape:version="0.48.4 r9939"
   sodipodi:docname="hazard_erosion.svg">
  <defs
     id="defs13" />
  <sodipodi:namedview
     pagecolor="#ffffff"
     bordercolor="#666666"
     borderopacity="1"
     objecttolerance="10"
     gridtolerance="10"
     guidetolerance="10"
     inkscape:pageopacity="0"
     inkscape:pageshadow="2"
     inkscape:window-width="1920"
     inkscape:window-height="1004"
     id="namedview11"
     showgrid="false"
     inkscape:zoom="0.5754386"
     inkscape:cx="-115.70644"
     inkscape:cy="289.31924"
     inkscape:window-x="1680"
     inkscape:window-y="0"
     inkscape:window-maximized="1"
     inkscape:current-layer="svg2"
     inkscape:snap-center="true"
     inkscape:snap-object-midpoints="true" />
  <metadata
     id="metadata2975">image/svg+xmlen<rdf:RDF>
  <cc:Work
     rdf:about="">
    <dc:format>image/svg+xml</dc:format>
    <dc:type
       rdf:resource="http://purl.org/dc/dcmitype/StillImage" />
    <dc:title />
  </cc:Work>
</rdf:RDF>
</metadata>
  <g
     id="g5"
     transform="matrix(0.72675833,0,0,0.72677808,79.240087,79.871053)"
     style="fill:#000000;fill-opacity:1;stroke:none">
    <title
       id="title7">Layer 1</title>
    <g
       id="g1327"
       style="fill:#000000;fill-opacity:1;stroke:none" />
    <path
       style="fill:#000000;fill-opacity:1;fill-rule:evenodd;stroke:none"
       d="M 288.21875,150.3811 A 32.25812,32.25812 0 0 0 262,166.47485 l -122.9375,212.875 a 32.25812,32.25812 0 0 0 27.90625,48.375 l 246,0.1875 a 32.25812,32.25812 0 0 0 27.96875,-48.375 L 317.875,166.47485 A 32.25812,32.25812 0 0 0 288.21875,150.3811 z"
       id="path2990"
       inkscape:connector-curvature="0" />
  </g>
  <path
     style="color:#000000;fill:#fff200;fill-opacity:1;fill-rule:nonzero;stroke:none;marker:none;visibility:visible;display:inline;overflow:visible;enable-background:accumulate"
     d="m 194.12489,371.33479 96.9649,-167.96429 97.08114,168.16567 z"
     id="path3788"
     inkscape:connector-curvature="0" />
  <path
     style="fill:#000000;fill-opacity:1;stroke:none"
     d="m 316.28117,259.89878 -6.15625,3.4375 -5.65625,28.65625 c 0,0 3.02896,15.63567 -1.75,26.0625 -4.77897,10.42683 0.006,18.68064 -16.9375,22.15625 -5.5301,1.13438 -14.39915,13.03335 -17.4375,16.53125 -3.26605,3.76004 -4.01263,5.88746 -4.0625,7.90625 l 112.53125,0.125 -60.53125,-104.875 z"
     id="path3756"
     inkscape:connector-curvature="0" />
  <path
     style="color:#000000;fill:#000000;fill-opacity:1;fill-rule:nonzero;stroke:none;stroke-width:28.30400085;marker:none;visibility:visible;display:inline;overflow:visible;enable-background:accumulate"
     d="m 270.14702,339.78522 -14.33689,14.33689 -7.04421,-5.3478 -7.29268,-8.98909 2.39546,-10.11781 11.94143,-4.21908 8.64107,3.7989 z"
     id="path3758"
     inkscape:connector-curvature="0"
     sodipodi:nodetypes="cccccccc" />
  <path
     style="color:#000000;fill:#000000;fill-opacity:1;fill-rule:nonzero;stroke:none;stroke-width:28.30400085;marker:none;visibility:visible;display:inline;overflow:visible;enable-background:accumulate"
     d="m 291.98402,313.52541 -2.40635,7.26447 -9.75829,4.90017 -10.01844,-5.26272 -2.14619,-6.90192 3.94956,-8.97177 8.21507,-3.19286 z"
     id="path3760"
     inkscape:connector-curvature="0"
     sodipodi:nodetypes="cccccccc" />
  <path
     sodipodi:type="arc"
     style="color:#000000;fill:#000000;fill-opacity:1;fill-rule:nonzero;stroke:none;stroke-width:28.30400085;marker:none;visibility:visible;display:inline;overflow:visible;enable-background:accumulate"
     id="path3762"
     sodipodi:cx="415.55258"
     sodipodi:cy="133.60139"
     sodipodi:rx="4.1272864"
     sodipodi:ry="4.1272864"
     d="m 419.67987,133.60139 a 4.1272864,4.1272864 0 1 1 -8.25457,0 4.1272864,4.1272864 0 1 1 8.25457,0 z"
     transform="translate(-123.03133,139.93003)" />
  <path
     sodipodi:type="arc"
     style="color:#000000;fill:#000000;fill-opacity:1;fill-rule:nonzero;stroke:none;stroke-width:28.30400085;marker:none;visibility:visible;display:inline;overflow:visible;enable-background:accumulate"
     id="path3764"
     sodipodi:cx="426.41385"
     sodipodi:cy="113.61664"
     sodipodi:rx="3.6928351"
     sodipodi:ry="3.6928351"
     d="m 430.10668,113.61664 a 3.6928351,3.6928351 0 1 1 -7.38567,0 3.6928351,3.6928351 0 1 1 7.38567,0 z"
     transform="translate(-123.03133,139.93003)" />
  <path
     style="color:#000000;fill:#000000;fill-opacity:1;fill-rule:nonzero;stroke:none;stroke-width:28.30400085;marker:none;visibility:visible;display:inline;overflow:visible;enable-background:accumulate"
     d="m 282.78436,284.00842 -6.45127,6.45127 -2.6702,-0.57681 -3.78107,-5.87446 2.0494,-4.71623 4.40187,-1.73504 1.67215,0.21882 2.21162,1.08075 z"
     id="path3766"
     inkscape:connector-curvature="0"
     sodipodi:nodetypes="ccccccccc" />
</svg>
