<?xml version="1.0" encoding="UTF-8" standalone="no"?>
<svg
   xmlns:dc="http://purl.org/dc/elements/1.1/"
   xmlns:cc="http://creativecommons.org/ns#"
   xmlns:rdf="http://www.w3.org/1999/02/22-rdf-syntax-ns#"
   xmlns:svg="http://www.w3.org/2000/svg"
   xmlns="http://www.w3.org/2000/svg"
   xmlns:sodipodi="http://sodipodi.sourceforge.net/DTD/sodipodi-0.dtd"
   xmlns:inkscape="http://www.inkscape.org/namespaces/inkscape"
   width="580"
   height="580"
   id="svg2"
   version="1.1"
   inkscape:version="0.48.4 r9939"
   sodipodi:docname="hazard.svg">
  <defs
     id="defs13" />
  <sodipodi:namedview
     pagecolor="#ffffff"
     bordercolor="#666666"
     borderopacity="1"
     objecttolerance="10"
     gridtolerance="10"
     guidetolerance="10"
     inkscape:pageopacity="0"
     inkscape:pageshadow="2"
     inkscape:window-width="1920"
     inkscape:window-height="1004"
     id="namedview11"
     showgrid="false"
     inkscape:zoom="0.8137931"
     inkscape:cx="263.42382"
     inkscape:cy="358.73121"
     inkscape:window-x="1680"
     inkscape:window-y="0"
     inkscape:window-maximized="1"
     inkscape:current-layer="svg2"
     inkscape:snap-center="true"
     inkscape:snap-object-midpoints="true" />
  <metadata
     id="metadata2975">image/svg+xmlen<rdf:RDF>
  <cc:Work
     rdf:about="">
    <dc:format>image/svg+xml</dc:format>
    <dc:type
       rdf:resource="http://purl.org/dc/dcmitype/StillImage" />
    <dc:title />
  </cc:Work>
</rdf:RDF>
</metadata>
  <g
     id="g5"
     transform="matrix(0.70905109,0,0,0.70907036,84.375186,84.990779)">
    <title
       id="title7">Layer 1</title>
    <g
       id="g1327" />
    <path
       style="fill:#000000;fill-rule:evenodd;stroke:#000000;stroke-width:3.54646611px"
       d="M 288.21875,150.3811 A 32.25812,32.25812 0 0 0 262,166.47485 l -122.9375,212.875 a 32.25812,32.25812 0 0 0 27.90625,48.375 l 246,0.1875 a 32.25812,32.25812 0 0 0 27.96875,-48.375 L 317.875,166.47485 A 32.25812,32.25812 0 0 0 288.21875,150.3811 z"
       id="path2990"
       inkscape:connector-curvature="0" />
  </g>
  <path
     style="fill:#fff200;fill-opacity:1;stroke:none"
     d="m 194.12488,371.33479 96.9649,-167.96429 97.08114,168.16567 z"
     id="path3788"
     inkscape:connector-curvature="0" />
  <g
     transform="matrix(0.9674668,0,0,0.96749312,-120.22988,166.46989)"
     style="font-size:170px;font-style:normal;font-weight:normal;line-height:125%;letter-spacing:0px;word-spacing:0px;fill:#000000;fill-opacity:1;stroke:none;font-family:Sans"
     id="flowRoot3790">
    <path
       d="m 440.90643,96.086724 c -6e-5,0.56677 -0.23968,3.4001 -0.71886,8.499996 l -6.17443,64.77 -17.60378,0 -6.17443,-64.94 c -2e-5,-0.79323 -0.15977,-2.09657 -0.47924,-3.91 -0.15977,-1.926562 -0.23965,-3.399893 -0.23962,-4.419996 -3e-5,-3.966559 1.27796,-7.536556 3.83394,-10.71 2.55592,-3.286549 6.5496,-4.929881 11.98105,-4.93 10.38353,1.19e-4 15.57531,5.213447 15.57537,15.64 m -7.28018,85.679996 c 2.37996,2.38002 3.56996,5.21335 3.57,8.5 -4e-5,3.28668 -1.19004,6.06334 -3.57,8.33 -2.38003,2.15334 -5.21336,3.23 -8.5,3.23 -2.94669,0 -5.66669,-1.13333 -8.16,-3.4 -2.38002,-2.37999 -3.57002,-5.09999 -3.57,-8.16 -2e-5,-3.28665 1.13332,-6.11998 3.4,-8.5 2.26664,-2.49331 5.09998,-3.73997 8.5,-3.74 3.28663,3e-5 6.0633,1.24669 8.33,3.74"
       style="font-variant:normal;font-weight:bold;font-stretch:normal;font-family:Kinnari;-inkscape-font-specification:Kinnari Bold"
       id="path3799"
       inkscape:connector-curvature="0"
       sodipodi:nodetypes="cccccccccccccsccccc" />
  </g>
</svg>
