<?xml version="1.0" encoding="UTF-8" standalone="no"?>
<svg
   xmlns:dc="http://purl.org/dc/elements/1.1/"
   xmlns:cc="http://creativecommons.org/ns#"
   xmlns:rdf="http://www.w3.org/1999/02/22-rdf-syntax-ns#"
   xmlns:svg="http://www.w3.org/2000/svg"
   xmlns="http://www.w3.org/2000/svg"
   xmlns:sodipodi="http://sodipodi.sourceforge.net/DTD/sodipodi-0.dtd"
   xmlns:inkscape="http://www.inkscape.org/namespaces/inkscape"
   width="32"
   height="32"
   id="svg2"
   version="1.1"
   inkscape:version="0.48.4 r9939"
   sodipodi:docname="highway_crossing_traffic_signals.svg">
  <defs
     id="defs13" />
  <sodipodi:namedview
     pagecolor="#ffffff"
     bordercolor="#666666"
     borderopacity="1"
     objecttolerance="10"
     gridtolerance="10"
     guidetolerance="10"
     inkscape:pageopacity="0"
     inkscape:pageshadow="2"
     inkscape:window-width="1920"
     inkscape:window-height="1004"
     id="namedview11"
     showgrid="false"
     inkscape:zoom="16"
     inkscape:cx="17.361917"
     inkscape:cy="18.2767"
     inkscape:window-x="1680"
     inkscape:window-y="0"
     inkscape:window-maximized="1"
     inkscape:current-layer="svg2"
     inkscape:snap-center="false"
     inkscape:snap-object-midpoints="false"
     inkscape:snap-bbox="true">
    <inkscape:grid
       type="xygrid"
       id="grid3835"
       empspacing="5"
       visible="true"
       enabled="true"
       snapvisiblegridlinesonly="true" />
  </sodipodi:namedview>
  <metadata
     id="metadata2975">image/svg+xmlen<rdf:RDF>
  <cc:Work
     rdf:about="">
    <dc:format>image/svg+xml</dc:format>
    <dc:type
       rdf:resource="http://purl.org/dc/dcmitype/StillImage" />
    <dc:title></dc:title>
  </cc:Work>
</rdf:RDF>
</metadata>
  <path
     inkscape:connector-curvature="0"
     style="font-size:medium;font-style:normal;font-variant:normal;font-weight:normal;font-stretch:normal;text-indent:0;text-align:start;text-decoration:none;line-height:normal;letter-spacing:normal;word-spacing:normal;text-transform:none;direction:ltr;block-progression:tb;writing-mode:lr-tb;text-anchor:start;color:#000000;fill:#000000;fill-opacity:1;stroke:none;stroke-width:200;marker:none;visibility:visible;display:inline;overflow:visible;enable-background:accumulate;font-family:Bitstream Vera Sans;-inkscape-font-specification:Bitstream Vera Sans"
     d="m 9.900533,7.0777766 c -0.02531,-2.853e-4 -0.05077,1.07e-5 -0.07608,5.697e-4 -1.090346,-0.00199 -2.09096,0.93097 -2.145888,2.0236385 -0.0348,0.5615997 0.0037,1.1245992 -0.01105,1.6867982 0.0046,2.101627 -0.01397,0.552903 0.01105,2.654291 0.09094,1.00423 0.951377,1.875784 1.958609,1.965112 0.951926,0.106762 1.936041,-0.466606 2.278545,-1.365566 0.181104,-0.436979 0.178251,-0.917983 0.162568,-1.383123 -0.006,-2.418954 0.01369,-1.187562 -0.01171,-3.6062823 -0.09024,-0.9976153 -0.938632,-1.8652986 -1.939106,-1.9612098 -0.07544,-0.0086 -0.151014,-0.013502 -0.226943,-0.014304 z"
     id="path4782"
     sodipodi:nodetypes="cccccccccccc" />
  <path
     sodipodi:type="arc"
     style="fill:#ff0000;fill-opacity:1;stroke:none"
     id="path4809"
     sodipodi:cx="288.46561"
     sodipodi:cy="119.68254"
     sodipodi:rx="95.132271"
     sodipodi:ry="95.132271"
     d="m 383.59788,119.68254 a 95.132271,95.132271 0 1 1 -190.26454,0 95.132271,95.132271 0 1 1 190.26454,0 z"
     transform="matrix(0.01693213,0,0,0.01693213,4.980541,7.284411)" />
  <path
     sodipodi:type="arc"
     style="color:#000000;fill:#00ff25;fill-opacity:1;fill-rule:nonzero;stroke:none;marker:none;visibility:visible;display:inline;overflow:visible;enable-background:accumulate"
     id="path4809-5"
     sodipodi:cx="288.46561"
     sodipodi:cy="119.68254"
     sodipodi:rx="95.132271"
     sodipodi:ry="95.132271"
     d="m 383.59788,119.68254 a 95.132271,95.132271 0 1 1 -190.26454,0 95.132271,95.132271 0 1 1 190.26454,0 z"
     transform="matrix(0.01693213,0,0,0.01693213,4.980541,10.975065)" />
</svg>
