<svg width="32" height="32" viewBox="0 0 32 32" fill="none" xmlns="http://www.w3.org/2000/svg">
<path d="M9.9006 7.07775C9.87529 7.07746 9.84983 7.07776 9.82452 7.07832C8.73417 7.07633 7.73356 8.00929 7.67863 9.10196C7.64383 9.66356 7.68233 10.2266 7.66758 10.7888C7.67218 12.8904 7.65361 11.3417 7.67863 13.443C7.76957 14.4473 8.63 15.3188 9.63724 15.4082C10.5892 15.5149 11.5733 14.9416 11.9158 14.0426C12.0969 13.6056 12.094 13.1246 12.0784 12.6595C12.0724 10.2405 12.092 11.4719 12.0666 9.05319C11.9764 8.05557 11.128 7.18789 10.1275 7.09198C10.0521 7.08338 9.97652 7.07847 9.90059 7.07767L9.9006 7.07775Z" fill="black"/>
<path d="M11.4757 9.31085C11.4758 9.52241 11.4341 9.73189 11.3532 9.92735C11.2723 10.1228 11.1536 10.3004 11.004 10.45C10.8544 10.5996 10.6769 10.7183 10.4814 10.7992C10.286 10.8802 10.0765 10.9219 9.86494 10.9219C9.65339 10.9219 9.44391 10.8802 9.24847 10.7992C9.05302 10.7183 8.87544 10.5996 8.72586 10.45C8.57628 10.3004 8.45763 10.1228 8.3767 9.92735C8.29576 9.73189 8.25412 9.52241 8.25415 9.31085C8.25412 9.0993 8.29576 8.88982 8.3767 8.69436C8.45763 8.4989 8.57628 8.3213 8.72586 8.1717C8.87544 8.0221 9.05302 7.90343 9.24847 7.82247C9.44391 7.7415 9.65339 7.69983 9.86494 7.69983C10.0765 7.69983 10.286 7.7415 10.4814 7.82247C10.6769 7.90343 10.8544 8.0221 11.004 8.1717C11.1536 8.3213 11.2723 8.4989 11.3532 8.69436C11.4341 8.88982 11.4758 9.0993 11.4757 9.31085V9.31085Z" fill="#FF0000"/>
<path d="M11.4757 13.0015C11.4758 13.2131 11.4341 13.4226 11.3532 13.618C11.2723 13.8135 11.1536 13.9911 11.004 14.1407C10.8544 14.2903 10.6769 14.409 10.4814 14.4899C10.286 14.5709 10.0765 14.6126 9.86494 14.6126C9.65339 14.6126 9.44391 14.5709 9.24847 14.4899C9.05302 14.409 8.87544 14.2903 8.72586 14.1407C8.57628 13.9911 8.45763 13.8135 8.3767 13.618C8.29576 13.4226 8.25412 13.2131 8.25415 13.0015C8.25412 12.79 8.29576 12.5805 8.3767 12.385C8.45763 12.1896 8.57628 12.012 8.72586 11.8624C8.87544 11.7128 9.05302 11.5941 9.24847 11.5131C9.44391 11.4322 9.65339 11.3905 9.86494 11.3905C10.0765 11.3905 10.286 11.4322 10.4814 11.5131C10.6769 11.5941 10.8544 11.7128 11.004 11.8624C11.1536 12.012 11.2723 12.1896 11.3532 12.385C11.4341 12.5805 11.4758 12.79 11.4757 13.0015V13.0015Z" fill="#00FF25"/>
</svg>
