<?xml version="1.0" encoding="UTF-8" standalone="no"?>
<svg
   xmlns:dc="http://purl.org/dc/elements/1.1/"
   xmlns:cc="http://creativecommons.org/ns#"
   xmlns:rdf="http://www.w3.org/1999/02/22-rdf-syntax-ns#"
   xmlns:svg="http://www.w3.org/2000/svg"
   xmlns="http://www.w3.org/2000/svg"
   xmlns:sodipodi="http://sodipodi.sourceforge.net/DTD/sodipodi-0.dtd"
   xmlns:inkscape="http://www.inkscape.org/namespaces/inkscape"
   width="32"
   height="32"
   id="svg2"
   version="1.1"
   inkscape:version="0.48.4 r9939"
   sodipodi:docname="note.svg">
  <defs
     id="defs13" />
  <sodipodi:namedview
     pagecolor="#ffffff"
     bordercolor="#666666"
     borderopacity="1"
     objecttolerance="10"
     gridtolerance="10"
     guidetolerance="10"
     inkscape:pageopacity="0"
     inkscape:pageshadow="2"
     inkscape:window-width="1920"
     inkscape:window-height="1004"
     id="namedview11"
     showgrid="false"
     inkscape:zoom="5.6568543"
     inkscape:cx="11.340562"
     inkscape:cy="18.549574"
     inkscape:window-x="1680"
     inkscape:window-y="0"
     inkscape:window-maximized="1"
     inkscape:current-layer="svg2"
     inkscape:snap-center="false"
     inkscape:snap-object-midpoints="false"
     inkscape:snap-bbox="true">
    <inkscape:grid
       type="xygrid"
       id="grid3835"
       empspacing="5"
       visible="true"
       enabled="true"
       snapvisiblegridlinesonly="true" />
  </sodipodi:namedview>
  <metadata
     id="metadata2975">image/svg+xmlen<rdf:RDF>
  <cc:Work
     rdf:about="">
    <dc:format>image/svg+xml</dc:format>
    <dc:type
       rdf:resource="http://purl.org/dc/dcmitype/StillImage" />
    <dc:title></dc:title>
  </cc:Work>
</rdf:RDF>
</metadata>
  <path
     sodipodi:type="inkscape:offset"
     inkscape:radius="0.99853408"
     inkscape:original="M 1 1 L 1 15 L 8 15 L 8 9.5 L 8 9 L 8.5 9 L 14 9 L 14 1 L 1 1 z M 3 3 L 3.5 3 L 11.5 3 L 12 3 L 12 4 L 11.5 4 L 3.5 4 L 3 4 L 3 3 z M 3 6 L 3.5 6 L 11.53125 6 L 12.03125 6 L 12.03125 7 L 11.53125 7 L 3.5 7 L 3 7 L 3 6 z M 3 9 L 3.5 9 L 4.53125 9 L 5.03125 9 L 5.03125 10 L 4.53125 10 L 3.5 10 L 3 10 L 3 9 z M 9 10 L 9 14.5 L 13.46875 10 L 9 10 z "
     style="opacity:0.71199999;color:#000000;fill:#fefefe;fill-opacity:1;fill-rule:nonzero;stroke:none;stroke-width:0.05437371;marker:none;visibility:visible;display:inline;overflow:visible;enable-background:accumulate"
     id="path3943"
     d="M 0.90625,0 A 0.99863394,0.99863394 0 0 0 0,1 l 0,14 a 0.99863394,0.99863394 0 0 0 1,1 l 7,0 a 0.99863394,0.99863394 0 0 0 0.84375,-0.53125 0.99863394,0.99863394 0 0 0 0.03125,0 0.99863394,0.99863394 0 0 0 0.84375,-0.25 l 4.46875,-4.5 A 0.99863394,0.99863394 0 0 0 14.46875,9.875 0.99863394,0.99863394 0 0 0 15,9 L 15,1 A 0.99863394,0.99863394 0 0 0 14,0 L 1,0 A 0.99863394,0.99863394 0 0 0 0.90625,0 z" />
  <path
     style="color:#000000;fill:#008b12;fill-opacity:1;fill-rule:nonzero;stroke:none;stroke-width:30.54599952999999957;marker:none;visibility:visible;display:inline;overflow:visible;enable-background:accumulate"
     d="M 1,1 1,15 8,15 8,9.5 8,9 8.5,9 14,9 14,1 z m 2,2 0.5,0 8,0 0.5,0 0,1 -0.5,0 -8,0 L 3,4 z m 0,3 0.5,0 8.03125,0 0.5,0 0,1 -0.5,0 L 3.5,7 3,7 z m 0,3 0.5,0 1.03125,0 0.5,0 0,1 -0.5,0 L 3.5,10 3,10 z m 6,1 0,4.5 4.46875,-4.5 z"
     id="rect3786"
     inkscape:connector-curvature="0"
     sodipodi:nodetypes="cccccccccccccccccccccccccccccccccccccccc" />
</svg>
