<svg width="32" height="32" viewBox="0 0 32 32" fill="none" xmlns="http://www.w3.org/2000/svg">
<path opacity="0.802372" d="M15 13.6199C13.144 13.6199 11.6199 15.144 11.6199 17C11.6199 18.856 13.144 20.3802 15 20.3802C16.856 20.3802 18.3801 18.856 18.3801 17C18.3801 15.144 16.856 13.6199 15 13.6199Z" fill="#FF1F00"/>
<path d="M16.2397 17C16.2397 17.3288 16.1091 17.6441 15.8766 17.8766C15.6441 18.1091 15.3288 18.2397 15 18.2397C14.6712 18.2397 14.3559 18.1091 14.1234 17.8766C13.8909 17.6441 13.7603 17.3288 13.7603 17C13.7603 16.6712 13.8909 16.3558 14.1234 16.1234C14.3559 15.8909 14.6712 15.7603 15 15.7603C15.3288 15.7603 15.6441 15.8909 15.8766 16.1234C16.1091 16.3558 16.2397 16.6712 16.2397 17Z" fill="#FEFEFE"/>
</svg>
