<?xml version="1.0" encoding="UTF-8" standalone="no"?>
<svg
   xmlns:dc="http://purl.org/dc/elements/1.1/"
   xmlns:cc="http://creativecommons.org/ns#"
   xmlns:rdf="http://www.w3.org/1999/02/22-rdf-syntax-ns#"
   xmlns:svg="http://www.w3.org/2000/svg"
   xmlns="http://www.w3.org/2000/svg"
   xmlns:sodipodi="http://sodipodi.sourceforge.net/DTD/sodipodi-0.dtd"
   xmlns:inkscape="http://www.inkscape.org/namespaces/inkscape"
   width="580"
   height="580"
   id="svg2"
   version="1.1"
   inkscape:version="0.91 r"
   sodipodi:docname="topo_drinking_water_yes.svg">
  <defs
     id="defs13" />
  <sodipodi:namedview
     pagecolor="#ffffff"
     bordercolor="#666666"
     borderopacity="1"
     objecttolerance="10"
     gridtolerance="10"
     guidetolerance="10"
     inkscape:pageopacity="0"
     inkscape:pageshadow="2"
     inkscape:window-width="1920"
     inkscape:window-height="1051"
     id="namedview11"
     showgrid="false"
     inkscape:zoom="1.1508772"
     inkscape:cx="105.37195"
     inkscape:cy="372.5901"
     inkscape:window-x="3840"
     inkscape:window-y="0"
     inkscape:window-maximized="1"
     inkscape:current-layer="svg2"
     inkscape:snap-center="true"
     inkscape:snap-object-midpoints="true" />
  <metadata
     id="metadata2975">image/svg+xmlen<rdf:RDF>
  <cc:Work
     rdf:about="">
    <dc:format>image/svg+xml</dc:format>
    <dc:type
       rdf:resource="http://purl.org/dc/dcmitype/StillImage" />
    <dc:title />
  </cc:Work>
</rdf:RDF>
</metadata>
  <path
     sodipodi:type="inkscape:offset"
     inkscape:radius="36.161377"
     inkscape:original="M 290 160.125 C 290 160.125 203.40625 279.1648 203.40625 333.28125 C 203.40625 380.90372 242.37761 419.875 290 419.875 C 337.6225 419.875 376.59375 380.90372 376.59375 333.28125 C 376.59375 275.91782 290 160.125 290 160.125 z M 279.1875 214.25 C 279.1875 214.25 257.53125 280.26997 257.53125 335.46875 C 257.53125 373.35026 273.75 387.40625 273.75 387.40625 C 273.75 387.40625 235.875 377.67054 235.875 325.71875 C 235.875 290.00189 279.1875 214.25 279.1875 214.25 z "
     style="color:#000000;display:inline;overflow:visible;visibility:visible;opacity:1;fill:#fefefe;fill-opacity:1;fill-rule:nonzero;stroke:none;stroke-width:24;marker:none;enable-background:accumulate"
     id="path3768"
     d="m 291.0332,123.98047 a 36.164993,36.164993 0 0 0 -30.27539,14.87305 c 0,0 -22.51514,30.90798 -45.16211,69.11718 -22.64697,38.2092 -48.35156,78.9646 -48.35156,125.31055 0,67.35066 55.40528,122.75586 122.75586,122.75586 67.35064,0 122.75586,-55.40525 122.75586,-122.75586 0,-46.87768 -25.70801,-88.7509 -48.44141,-126.67969 -22.73339,-37.92879 -45.35547,-68.13281 -45.35547,-68.13281 A 36.164993,36.164993 0 0 0 291.0332,123.98047 Z"
     transform="matrix(0.46004562,0,0,0.46004562,40.902875,28.748872)" />
  <path
     inkscape:connector-curvature="0"
     d="m 174.31609,106.09304 c 0,0 -37.37939,51.39668 -37.37939,74.7588 0,20.55867 16.82075,37.3794 37.37939,37.3794 20.55867,0 37.37942,-16.82073 37.37942,-37.3794 0,-24.76385 -37.37942,-74.7588 -37.37942,-74.7588 z"
     id="path3-9"
     style="color:#000000;display:inline;overflow:visible;visibility:visible;fill:#3f3f3f;fill-opacity:1;fill-rule:nonzero;stroke:none;stroke-width:24;marker:none;enable-background:accumulate"
     sodipodi:nodetypes="csssc" />
</svg>
