<?xml version="1.0" encoding="UTF-8" standalone="no"?>
<!-- Generator: Adobe Illustrator 16.0.4, SVG Export Plug-In . SVG Version: 6.00 Build 0)  -->

<svg
   xmlns:dc="http://purl.org/dc/elements/1.1/"
   xmlns:cc="http://creativecommons.org/ns#"
   xmlns:rdf="http://www.w3.org/1999/02/22-rdf-syntax-ns#"
   xmlns:svg="http://www.w3.org/2000/svg"
   xmlns="http://www.w3.org/2000/svg"
   xmlns:sodipodi="http://sodipodi.sourceforge.net/DTD/sodipodi-0.dtd"
   xmlns:inkscape="http://www.inkscape.org/namespaces/inkscape"
   version="1.1"
   id="Слой_1"
   x="0px"
   y="0px"
   width="16"
   height="16"
   viewBox="0 0 16 16"
   xml:space="preserve"
   inkscape:version="0.48.4 r9939"
   sodipodi:docname="osmc_yellow_mz.svg"
   style="enable-background:new"><metadata
     id="metadata11"><rdf:RDF><cc:Work
         rdf:about=""><dc:format>image/svg+xml</dc:format><dc:type
           rdf:resource="http://purl.org/dc/dcmitype/StillImage" /><dc:title></dc:title></cc:Work></rdf:RDF></metadata><defs
     id="defs9" /><sodipodi:namedview
     pagecolor="#ffffff"
     bordercolor="#666666"
     borderopacity="1"
     objecttolerance="10"
     gridtolerance="10"
     guidetolerance="10"
     inkscape:pageopacity="0"
     inkscape:pageshadow="2"
     inkscape:window-width="1920"
     inkscape:window-height="1004"
     id="namedview7"
     showgrid="false"
     inkscape:zoom="32"
     inkscape:cx="8.7420531"
     inkscape:cy="9.6591368"
     inkscape:window-x="1680"
     inkscape:window-y="0"
     inkscape:window-maximized="1"
     inkscape:current-layer="Слой_1"
     inkscape:snap-bbox="true"
     inkscape:object-nodes="true"
     inkscape:snap-smooth-nodes="true"
     inkscape:bbox-paths="true"
     inkscape:bbox-nodes="true"
     inkscape:snap-bbox-edge-midpoints="true"
     inkscape:snap-bbox-midpoints="true" /><g
     style="font-size:40px;font-style:normal;font-variant:normal;font-weight:bold;font-stretch:normal;line-height:125%;letter-spacing:0px;word-spacing:0px;color:#000000;fill:#ffce00;fill-opacity:1;fill-rule:nonzero;stroke:none;marker:none;visibility:visible;display:inline;overflow:visible;enable-background:accumulate;font-family:Standard Symbols L;-inkscape-font-specification:Standard Symbols L Bold"
     id="text2985"
     transform="translate(-0.5896104,0.24873655)"><path
       d="m 11.70631,3.3047304 0,2.0058594 C 11.185794,5.0778498 10.677982,4.9022315 10.182872,4.7837343 9.6877491,4.6652526 9.2201389,4.6060078 8.78004,4.6059999 8.1960514,4.6060078 7.7644112,4.6864114 7.4851182,4.8472109 7.205818,5.0080257 7.0661697,5.2576999 7.0661728,5.5962343 7.0661697,5.8501472 7.1592686,6.0490402 7.3454697,6.192914 7.5358958,6.3325686 7.8786689,6.4531739 8.37379,6.5547304 l 1.0410157,0.2094727 c 1.0537043,0.211594 1.8027273,0.5332083 2.2470703,0.9648437 0.444328,0.431645 0.666495,1.0452511 0.666504,1.8408203 -9e-6,1.0452489 -0.311043,1.8238939 -0.933106,2.3359379 -0.617845,0.507812 -1.5636448,0.761718 -2.8374019,0.761718 -0.6009155,0 -1.2039423,-0.05713 -1.8090821,-0.171386 C 6.1436446,12.381879 5.5385019,12.212608 4.9333603,11.988324 l 0,-2.0629881 c 0.6051416,0.3216171 1.1891254,0.5649431 1.7519532,0.7299801 0.5670539,0.160809 1.1129518,0.241213 1.6376953,0.241211 0.5331982,2e-6 0.9415636,-0.08887 1.2250976,-0.266601 C 9.8316292,10.452193 9.9733933,10.198287 9.9733994,9.868207 9.9733933,9.5719859 9.8760627,9.3434705 9.6814072,9.1826601 9.490972,9.0218563 9.1079971,8.8779762 8.5324814,8.7510195 L 7.5866807,8.5415468 C 6.6387613,8.338426 5.9447515,8.0146958 5.5046494,7.5703554 5.0687759,7.1260248 4.8508399,6.5272299 4.8508408,5.7739687 4.8508399,4.8302915 5.1555271,4.1045435 5.7649033,3.5967226 6.3742759,3.0889195 7.2502515,2.8350135 8.392833,2.8350039 c 0.5205028,9.6e-6 1.0558213,0.040211 1.605957,0.1206054 0.550124,0.076181 1.119296,0.1925549 1.70752,0.3491211"
       style="font-size:13px;color:#000000;fill:#ffce00;fill-opacity:1;fill-rule:nonzero;stroke:none;marker:none;visibility:visible;display:inline;overflow:visible;enable-background:accumulate;font-family:Standard Symbols L;-inkscape-font-specification:Standard Symbols L Bold"
       id="path2990"
       inkscape:connector-curvature="0" /></g></svg>