<?xml version="1.0" encoding="UTF-8" standalone="no"?>
<!-- Created with Inkscape (http://www.inkscape.org/) -->

<svg
   xmlns:dc="http://purl.org/dc/elements/1.1/"
   xmlns:cc="http://creativecommons.org/ns#"
   xmlns:rdf="http://www.w3.org/1999/02/22-rdf-syntax-ns#"
   xmlns:svg="http://www.w3.org/2000/svg"
   xmlns="http://www.w3.org/2000/svg"
   version="1.1"
   width="26"
   height="26"
   viewBox="0 0 26 26"
   id="Layer_1"
   xml:space="preserve"><metadata
     id="metadata3048"><rdf:RDF><cc:Work
         rdf:about=""><dc:format>image/svg+xml</dc:format><dc:type
           rdf:resource="http://purl.org/dc/dcmitype/StillImage" /><dc:title></dc:title></cc:Work></rdf:RDF></metadata><defs
     id="defs3046" /><rect
     width="26"
     height="2"
     x="902"
     y="1469"
     id="rect3020"
     style="fill:#333333" /><rect
     width="26"
     height="2"
     x="902"
     y="1489"
     id="rect3022"
     style="fill:#333333" /><rect
     width="18"
     height="2"
     x="906"
     y="1474"
     id="rect3024"
     style="fill:#333333" /><rect
     width="26"
     height="2"
     x="902"
     y="1479"
     id="rect3026"
     style="fill:#333333" /><rect
     width="18"
     height="2"
     x="906"
     y="1484"
     id="rect3028"
     style="fill:#333333" /><rect
     width="26"
     height="26"
     x="902"
     y="1467"
     id="rect3030"
     style="fill:none" /><rect
     width="26"
     height="26"
     x="0"
     y="0"
     id="rect3032"
     style="fill:none" /><g
     id="g3034"><path
       d="M 25.946,3.436 C 26.384,4.418 16.857,8.625 11.57,10.984 5.887,13.518 2.622,13.838 1.996,12.438 1.571,11.484 0.446,8.964 0.087,8.156 -0.274,7.346 1.05,7.087 1.576,7.49 1.909,7.748 2.974,8.536 3.709,9.076 4.131,9.389 4.456,9.614 4.908,9.411 5.361,9.209 20.173,2.602 20.173,2.602 23.117,1.29 25.508,2.453 25.946,3.436 z"
       id="path3036"
       style="fill:#333333" /><path
       d="m 14.216,16.807 c -0.303,0.658 -0.903,1.349 -1.339,1.544 l -0.843,0.376 c -0.245,0.108 -0.425,-0.096 -0.24,-0.839 l 1.94,-10.33 C 14.038,6.9 14.637,6.207 15.074,6.013 l 4.411,-1.967 c 0.437,-0.194 0.543,0.181 0.239,0.841 l -5.508,11.92 z"
       id="path3038"
       style="fill:#333333" /><path
       d="M 12.931,4.698 8.161,3.228 C 7.469,3.016 6.554,2.999 6.117,3.193 L 5.273,3.57 C 5.029,3.679 5.061,3.949 5.738,4.31 L 9.15,6.384 12.931,4.698 z"
       id="path3040"
       style="fill:#333333" /></g></svg>