<?xml version="1.0" encoding="utf-8"?>
<!-- Generator: Adobe Illustrator 15.0.0, SVG Export Plug-In . SVG Version: 6.00 Build 0)  -->
<!DOCTYPE svg PUBLIC "-//W3C//DTD SVG 1.1//EN" "http://www.w3.org/Graphics/SVG/1.1/DTD/svg11.dtd">
<svg version="1.1" id="Layer_1" xmlns="http://www.w3.org/2000/svg" xmlns:xlink="http://www.w3.org/1999/xlink" x="0px" y="0px"
	 width="26px" height="26px" viewBox="0 0 26 26" enable-background="new 0 0 26 26" xml:space="preserve">
<rect fill="none" width="26" height="26"/>
<g>
	<circle fill="#333333" cx="6.5" cy="23.5" r="2.313"/>
</g>
<g>
	<circle fill="#333333" cx="20.5" cy="23.5" r="2.313"/>
</g>
<g>
	<path fill="#333333" d="M14.811,6c0.001-0.328,0.002-1.646,0.002-2c0-1.001-0.812-1.813-1.813-1.813S11.188,2.999,11.188,4
		c0,0.354,0.001,1.681,0.002,2H14.811z"/>
</g>
<path fill="#333333" d="M25.234,15.98L19,8c-0.457-0.551-0.766-1-1.5-1H1C0.449,7,0,7.449,0,8v14c0,0.551,0.449,1,1,1h1.994
	c0.245-1.723,1.716-3.057,3.506-3.057S9.761,21.277,10.006,23h7.018c0.244-1.709,1.699-3.027,3.477-3.027s3.232,1.318,3.477,3.027
	H25c0.551,0,1-0.449,1-1c0,0,0-3.053,0-4S25.234,15.98,25.234,15.98z M8,17.213c-2.327,0-4.213-1.887-4.213-4.213
	S5.673,8.787,8,8.787s4.213,1.887,4.213,4.213S10.327,17.213,8,17.213z M16,16v-6h2.518c0.16,0,0.385,0.236,0.385,0.236l3.793,4.914
	c0.186,0.274,0.389,0.6,0.389,0.85H16z"/>
<rect x="7" y="10" fill="#333333" width="2" height="6"/>
<rect x="5" y="12" fill="#333333" width="6" height="2"/>
</svg>
