<?xml version="1.0" encoding="utf-8"?>
<!-- Generator: Adobe Illustrator 15.0.0, SVG Export Plug-In . SVG Version: 6.00 Build 0)  -->
<!DOCTYPE svg PUBLIC "-//W3C//DTD SVG 1.1//EN" "http://www.w3.org/Graphics/SVG/1.1/DTD/svg11.dtd">
<svg version="1.1" id="Layer_1" xmlns="http://www.w3.org/2000/svg" xmlns:xlink="http://www.w3.org/1999/xlink" x="0px" y="0px"
	 width="26px" height="26px" viewBox="0 0 26 26" enable-background="new 0 0 26 26" xml:space="preserve">
<rect fill="none" width="26" height="26"/>
<g>
	<path fill="#333333" d="M13,2.188c5.962,0,10.813,4.851,10.813,10.813S18.962,23.813,13,23.813S2.188,18.962,2.188,13
		S7.038,2.188,13,2.188 M13,0.188C5.924,0.188,0.188,5.924,0.188,13S5.924,25.813,13,25.813S25.813,20.076,25.813,13
		S20.076,0.188,13,0.188L13,0.188z"/>
</g>
<path fill="none" stroke="#333333" stroke-width="1.6" stroke-linecap="round" stroke-linejoin="round" stroke-miterlimit="10" d="
	M20.539,4.273c0,0-6.325,3.944-5.539,10.727c0.549,4.735,5.732,6.426,5.732,6.426"/>
<path fill="none" stroke="#333333" stroke-width="1.6" stroke-linecap="round" stroke-linejoin="round" stroke-miterlimit="10" d="
	M4.539,5.273C4.539,5.273,6,8.384,6,14c0,3.97-1.268,5.426-1.268,5.426"/>
<path fill="none" stroke="#333333" stroke-width="1.6" stroke-linecap="round" stroke-linejoin="round" stroke-miterlimit="10" d="
	M2,12c0,0,3,3,11,3s11-3,11-3"/>
<path fill="none" stroke="#333333" stroke-width="1.6" stroke-linecap="round" stroke-linejoin="round" stroke-miterlimit="10" d="
	M13,2c0,0-3,3.547-3,11s3,11,3,11"/>
</svg>
