<?xml version="1.0" encoding="utf-8"?>
<!-- Generator: Adobe Illustrator 15.0.0, SVG Export Plug-In . SVG Version: 6.00 Build 0)  -->
<!DOCTYPE svg PUBLIC "-//W3C//DTD SVG 1.1//EN" "http://www.w3.org/Graphics/SVG/1.1/DTD/svg11.dtd">
<svg version="1.1" id="Layer_1" xmlns="http://www.w3.org/2000/svg" xmlns:xlink="http://www.w3.org/1999/xlink" x="0px" y="0px"
	 width="26px" height="26px" viewBox="0 0 26 26" enable-background="new 0 0 26 26" xml:space="preserve">
<rect x="902" y="1469" fill="#333333" width="26" height="2"/>
<rect x="902" y="1489" fill="#333333" width="26" height="2"/>
<rect x="906" y="1474" fill="#333333" width="18" height="2"/>
<rect x="902" y="1479" fill="#333333" width="26" height="2"/>
<rect x="906" y="1484" fill="#333333" width="18" height="2"/>
<rect x="902" y="1467" fill="none" width="26" height="26"/>
<rect fill="none" width="26" height="26"/>
<polygon fill="none" stroke="#333333" stroke-width="1.5" stroke-linecap="round" stroke-linejoin="round" stroke-miterlimit="10" points="
	12.5,20.5 5.5,20.5 9.384,12.5 16.985,12.5 17.308,13.519 "/>
<g>
	<path fill="#333333" d="M9.226,16.718L8.39,18.439c0.082,0.113,0.148,0.236,0.217,0.36h1.903
		C10.24,18.008,9.809,17.292,9.226,16.718z"/>
	<path fill="#333333" d="M8.606,22.2c-0.605,1.102-1.764,1.858-3.106,1.858c-1.962,0-3.559-1.597-3.559-3.559
		c0-1.903,1.507-3.45,3.389-3.541l0.827-1.705c-0.218-0.027-0.432-0.066-0.657-0.066c-2.935,0-5.313,2.378-5.313,5.313
		s2.378,5.313,5.313,5.313c2.336,0,4.298-1.518,5.01-3.612H8.606z"/>
</g>
<path fill="none" stroke="#333333" stroke-width="1.5" stroke-linecap="round" stroke-linejoin="round" stroke-miterlimit="10" d="
	M19.5,7.5c-1.044,1.503-3.48,1.225-3.48,1.225s1.305,6.873,4.48,11.775"/>
<path fill="#333333" d="M20.5,15.188c-0.254,0-0.497,0.04-0.742,0.075c0.224,0.559,0.464,1.12,0.728,1.681
	c0.005,0,0.01-0.002,0.015-0.002c1.962,0,3.559,1.597,3.559,3.559s-1.597,3.559-3.559,3.559s-3.559-1.597-3.559-3.559
	c0-0.702,0.211-1.353,0.563-1.904c-0.29-0.602-0.555-1.205-0.801-1.805c-0.936,0.958-1.517,2.264-1.517,3.709
	c0,2.935,2.378,5.313,5.313,5.313s5.313-2.378,5.313-5.313S23.435,15.188,20.5,15.188z"/>
<line fill="none" stroke="#333333" stroke-width="1.5" stroke-linecap="round" stroke-linejoin="round" stroke-miterlimit="10" x1="8.836" y1="11.094" x2="12.5" y2="20.5"/>
<path fill="#333333" d="M10.953,10.334c0,0.432-0.495,0.528-2.117,0.937c-1.634,0.411-2.762,1.573-2.762-0.525
	c0-0.559,0.16-0.745,0.629-0.745c0.287,0,3.313,0,3.313,0C10.478,10,10.953,10,10.953,10.334z"/>
</svg>
