<?xml version="1.0" encoding="utf-8"?>
<!-- Generator: Adobe Illustrator 15.0.0, SVG Export Plug-In . SVG Version: 6.00 Build 0)  -->
<!DOCTYPE svg PUBLIC "-//W3C//DTD SVG 1.1//EN" "http://www.w3.org/Graphics/SVG/1.1/DTD/svg11.dtd">
<svg version="1.1" id="Layer_1" xmlns="http://www.w3.org/2000/svg" xmlns:xlink="http://www.w3.org/1999/xlink" x="0px" y="0px"
	 width="26px" height="26px" viewBox="0 0 26 26" enable-background="new 0 0 26 26" xml:space="preserve">
<rect fill="none" width="26" height="26"/>
<polygon fill="none" stroke="#333333" stroke-width="2" stroke-linecap="round" stroke-linejoin="round" stroke-miterlimit="10" points="
	6,6 15,17 24,6 "/>
<polygon fill="#333333" points="12.005,9 16.45,14.435 20.897,9 "/>
<line fill="none" stroke="#333333" stroke-width="2" stroke-linecap="round" stroke-linejoin="round" stroke-miterlimit="10" x1="15" y1="23.938" x2="15" y2="17"/>
<path fill="#333333" d="M21.924,26H8.076c0-1.656,6.924-3,6.924-3S21.924,24.344,21.924,26z"/>
<polygon fill="none" stroke="#333333" stroke-width="2" stroke-linecap="round" stroke-linejoin="round" stroke-miterlimit="10" points="
	6,6 15,17 24,6 "/>
<path fill="none" stroke="#333333" stroke-width="2" stroke-linecap="round" stroke-linejoin="round" stroke-miterlimit="10" d="
	M11.975,6C11.722,3.196,9.369,1,6.5,1C3.462,1,1,3.462,1,6.5S3.462,12,6.5,12c1.297,0,2.486-0.451,3.426-1.201"/>
<path fill="#333333" d="M6.574,5.877c0,0,1.577-4.358,2.765-3.334c1.189,1.022-2.318,3.66-2.318,3.66L6.852,6.729
	c0,0,1.378,4.323-0.277,4.323c-1.654,0-0.276-4.323-0.276-4.323S2.713,9.366,2.102,7.802C1.49,6.236,6.127,6.203,6.127,6.203
	s-3.624-2.605-2.316-3.66C5.119,1.488,6.574,5.877,6.574,5.877z"/>
</svg>
