<?xml version="1.0" encoding="utf-8"?>
<!-- Generator: Adobe Illustrator 15.0.0, SVG Export Plug-In . SVG Version: 6.00 Build 0)  -->
<!DOCTYPE svg PUBLIC "-//W3C//DTD SVG 1.1//EN" "http://www.w3.org/Graphics/SVG/1.1/DTD/svg11.dtd">
<svg version="1.1" id="Layer_1" xmlns="http://www.w3.org/2000/svg" xmlns:xlink="http://www.w3.org/1999/xlink" x="0px" y="0px"
	 width="26px" height="26px" viewBox="0 0 26 26" enable-background="new 0 0 26 26" xml:space="preserve">
<rect fill="none" width="26" height="26"/>
<path fill="#333333" d="M22.584,5.528c0.369,0.764,0.834,2.541-1.017,3.752c-4.604,3.014-10.097,6.862-11.509,7.833
	c-0.796,0.546-0.94,1.017-1.019,1.639c-0.262,2.107,0.53,4.322-3.673,6.977C4.6,26.213,4.151,25.7,3.59,25.139
	c-0.561-0.561-2.079-2.1-2.481-2.502c-0.849-0.851-0.9-1.33,0.116-1.996c1.016-0.667,2.658-1.643,4.173-3.613
	c0.743-0.968,0.768-1.84,0.762-2.588c1.331-0.074,1.952-1.09,1.952-1.09s-1.198,0.502-2.013,0.263
	c0.065-0.364,0.328-0.804,0.718-1.072c1.705-1.171,4.285-2.951,4.285-2.951s0.593-0.348,0.917,0.125
	c0.156,0.229,0.332,0.452,0.461,0.653c0.259,0.405,0.806,1.56,2.807,0.188C18.377,8.433,22.584,5.528,22.584,5.528z"/>
<path fill="none" stroke="#333333" stroke-width="1.1442" stroke-linecap="round" stroke-linejoin="round" stroke-miterlimit="10" d="
	M6.618,13.085c-0.487,0-1.863,0.024-2.078-2.085"/>
<path fill="none" stroke="#333333" stroke-width="1.1442" stroke-linecap="round" stroke-linejoin="round" stroke-miterlimit="10" d="
	M3.451,9.918c0,0,0.704,1.889,3.167,1.056"/>
<path fill="#333333" d="M10.664,18.434c-0.027-0.221-0.228-0.379-0.453-0.352c-1.371,0.174-1.578-0.74-1.597-0.846
	c-0.036-0.221-0.243-0.369-0.461-0.336c-0.221,0.035-0.373,0.242-0.338,0.463c0.076,0.49,0.493,1.287,1.522,1.498
	c0.278,0.059,0.602,0.072,0.976,0.025C10.534,18.859,10.691,18.656,10.664,18.434z"/>
<path fill="#333333" d="M12.952,8.774l7.149-4.91c0,0,1.696-1.894,1.906-3.348c0.015-0.105-0.066-0.775,0.445-0.049
	c0.248,0.352,2.392,3.447,2.557,3.695s0.135,0.369-0.114,0.361c-0.755-0.025-2.438,0.034-3.737,0.912
	C20.203,6.08,17.15,8.438,15.68,9.302C14.208,10.167,13.852,9.85,12.952,8.774z"/>
<path fill="none" stroke="#333333" stroke-miterlimit="10" d="M8.485,21.016c0,0,1.388-0.835,2.936-1.703
	c1.204-0.676,0.969-3.229,0.969-4.551"/>
</svg>
