<?xml version="1.0" encoding="utf-8"?>
<!-- Generator: Adobe Illustrator 15.0.0, SVG Export Plug-In . SVG Version: 6.00 Build 0)  -->
<!DOCTYPE svg PUBLIC "-//W3C//DTD SVG 1.1//EN" "http://www.w3.org/Graphics/SVG/1.1/DTD/svg11.dtd">
<svg version="1.1" id="Layer_1" xmlns="http://www.w3.org/2000/svg" xmlns:xlink="http://www.w3.org/1999/xlink" x="0px" y="0px"
	 width="26px" height="26px" viewBox="0 0 26 26" enable-background="new 0 0 26 26" xml:space="preserve">
<rect fill="none" width="26" height="26"/>
<path fill="#333333" d="M0.13,20.714l0.151,3.896c0,0,0,0.281,0.359,0.281c0.231,0,1.156,0.032,1.156,0.032s0.201-0.028,0.201-0.144
	C1.998,24.665,2,23.719,2,23.719s-0.017-0.3,0.5-0.266c0.469,0.031,0.516,0.344,0.516,0.344s0.025,0.653,0.025,0.797
	s-0.058,0.344,0.229,0.344c0.287,0,2.415-0.002,2.415-0.002s0.258-0.057,0.258-0.229c0-0.171,0-2.082,0-2.082
	s-0.086-0.315,0.172-0.229c0.258,0.086,4.697,0.984,4.697,0.984s0.231-0.006,0.25,0.215c0.018,0.208-0.016,0.678-0.016,0.678
	s0.053,0.138,0.25,0.182c0.281,0.063,1.281,0.172,1.281,0.172s0.317-0.026,0.317-0.141c0-0.115,0.086-0.487,0.086-0.487
	s-0.018-0.135,0.269-0.106c0.287,0.029,0.575-0.005,0.575-0.005s0.23,0.058,0.23,0.173c0,0.114,0.086,0.545,0.086,0.545
	s0,0.266,0.306,0.245c0.118-0.008,1.319,0.058,1.319,0.058s0.156-0.016,0.172-0.219c0.012-0.156,0-0.47,0-0.47
	s0.041-0.249,0.188-0.249c0.281,0,1.494-0.021,1.641-0.005s0.281,0.141,0.281,0.141l0.055,0.677c0,0,0.096,0.112,0.211,0.141
	c0.115,0.029,1.266-0.094,1.266-0.094s0.176-0.303,0.146-0.359c-0.027-0.058,0.259-0.66,0.259-0.66s0.028-0.058,0.173-0.086
	c0.143-0.028,0.865-0.201,0.865-0.201s0.172,0.03,0.229,0.087c0.059,0.058,0.345,0.517,0.345,0.517s0,0.143,0.114,0.114
	c0.115-0.028,1.147-0.201,1.147-0.201l0.173-0.229l0.057-0.602c0,0,0.028-0.315,0.115-0.315c0.086,0,0.773-0.287,0.773-0.287
	l0.287,0.028l0.315,0.517c0,0,0.114,0.058,0.2,0.028c0.086-0.028,1.004-0.459,1.004-0.459s0.115-0.258,0.086-0.344
	c-0.028-0.086-0.243-1.49-0.243-1.49s-0.2-0.171-0.287-0.057c-0.086,0.114-2.997,1.649-6.079,1.979
	c-3.029,0.325-5.32,0.846-11.557-1.047c-1.554-0.471-6.367-0.817-7.212-1.262C0.148,20.318,0.087,20.526,0.13,20.714z"/>
<path fill="#333333" d="M24.777,17.397c-0.602-0.832-1.729-1.309-2.638-1.276c-1.606,0.058-1.588,0.795-2.724,0.444
	c-0.701-0.216-1.021-0.44-1.021-0.44s-0.273,2.481-2.098,3.141c0.491-0.872,0.447-1.825,0.563-2.734
	c0.172-1.359,0.156-2.297-1.297-2.563c-1.011-0.185-1.73-0.263-2.766-0.953s-1.488-1.683-1.755-3.862
	c-0.315-2.581-0.057-7.055-0.146-7.708c-0.088-0.654-1.183-1.332-2.464-1.332c-1.281,0-2.316,0.789-3.45,1.036
	C3.848,1.396,3.93,1.126,2.721,1.373C2.031,1.514,2.047,2.078,2.047,3.934c0,0.799,0.048,5.05-0.012,6.006
	C2,10.486,1.882,11.515,1.703,12.064c0,0,4.406,1.906,5.953,5.563c-2.531-3.094-6.156-4.125-6.531-4.141
	c-0.641,1.281-1.023,2.765-1.023,4.266c0,1.102,0.246,1.577,0.246,1.577s0.591,0.329,2.835,0.664
	c0.999,0.149,3.152,0.29,4.647,0.743c4.677,1.413,7.534,1.362,11.198,1.008c4.088-0.396,6.332-2.028,6.332-2.028
	S25.404,18.262,24.777,17.397z M9.088,1.809c0.357,0,0.647,0.289,0.647,0.646s-0.29,0.646-0.647,0.646S8.441,2.813,8.441,2.455
	S8.73,1.809,9.088,1.809z M9.045,4.644c0.357,0,0.647,0.289,0.647,0.646s-0.29,0.646-0.647,0.646S8.398,5.647,8.398,5.29
	S8.688,4.644,9.045,4.644z M8.484,7.953c0-0.357,0.29-0.646,0.647-0.646s0.647,0.289,0.647,0.646S9.488,8.6,9.131,8.6
	S8.484,8.311,8.484,7.953z M9.516,11.549c-0.357,0-0.647-0.289-0.647-0.646s0.29-0.646,0.647-0.646s0.647,0.289,0.647,0.646
	S9.873,11.549,9.516,11.549z M10.806,13.884c-0.357,0-0.647-0.289-0.647-0.646s0.29-0.646,0.647-0.646s0.647,0.289,0.647,0.646
	S11.164,13.884,10.806,13.884z M12.828,15.346c-0.357,0-0.647-0.289-0.647-0.646s0.29-0.646,0.647-0.646s0.647,0.289,0.647,0.646
	S13.186,15.346,12.828,15.346z M15.359,16.16c-0.357,0-0.646-0.289-0.646-0.646s0.289-0.646,0.646-0.646s0.647,0.289,0.647,0.646
	S15.717,16.16,15.359,16.16z"/>
</svg>
