<?xml version="1.0" encoding="utf-8"?>
<!-- Generator: Adobe Illustrator 15.0.0, SVG Export Plug-In . SVG Version: 6.00 Build 0)  -->
<!DOCTYPE svg PUBLIC "-//W3C//DTD SVG 1.1//EN" "http://www.w3.org/Graphics/SVG/1.1/DTD/svg11.dtd">
<svg version="1.1" id="Layer_1" xmlns="http://www.w3.org/2000/svg" xmlns:xlink="http://www.w3.org/1999/xlink" x="0px" y="0px"
	 width="26px" height="26px" viewBox="0 0 26 26" enable-background="new 0 0 26 26" xml:space="preserve">
<rect fill="none" width="26" height="26"/>
<path fill="#333333" stroke="#333333" stroke-width="2" stroke-linecap="round" stroke-linejoin="round" stroke-miterlimit="10" d="
	M13,5L1,13h2c0,0,0.5,1,2.5,1S8,12,8,12s0.5,2,2.5,2s2.5-2,2.5-2s0.5,2,2.5,2s2.5-2,2.5-2s0.5,2,2.5,2s2.5-1,2.5-1h2L13,5z"/>
<path fill="#333333" d="M23,22h-7v-5.906c-0.165,0.018-0.33,0.035-0.5,0.035c-0.924,0-1.773-0.256-2.5-0.749
	c-0.727,0.493-1.576,0.749-2.5,0.749S8.727,15.873,8,15.38c-0.727,0.493-1.576,0.749-2.5,0.749c-1.624,0-2.68-0.494-3.334-1H2V25
	c0,0.553,0.447,1,1,1h20c0.553,0,1-0.447,1-1v-2C24,22.447,23.553,22,23,22z M11,21H7v-4h4V21z"/>
<path fill="#333333" stroke="#333333" stroke-linecap="round" stroke-linejoin="round" stroke-miterlimit="10" d="M13,3L7,7h1
	c0,0,0.25,0.5,1.25,0.5s1.25-0.999,1.25-0.999S10.75,7.5,11.75,7.5S13,6.501,13,6.501S13.25,7.5,14.25,7.5s1.25-0.999,1.25-0.999
	S15.75,7.5,16.75,7.5S18,7,18,7h1L13,3z"/>
<line fill="none" stroke="#333333" stroke-width="2" stroke-linecap="round" stroke-linejoin="round" stroke-miterlimit="10" x1="23" y1="14" x2="23" y2="23"/>
</svg>
