<?xml version="1.0" encoding="utf-8"?>
<!-- Generator: Adobe Illustrator 15.0.0, SVG Export Plug-In . SVG Version: 6.00 Build 0)  -->
<!DOCTYPE svg PUBLIC "-//W3C//DTD SVG 1.1//EN" "http://www.w3.org/Graphics/SVG/1.1/DTD/svg11.dtd">
<svg version="1.1" id="Layer_1" xmlns="http://www.w3.org/2000/svg" xmlns:xlink="http://www.w3.org/1999/xlink" x="0px" y="0px"
	 width="26px" height="26px" viewBox="0 0 26 26" enable-background="new 0 0 26 26" xml:space="preserve">
<rect x="902" y="1469" fill="#333333" width="26" height="2"/>
<rect x="902" y="1489" fill="#333333" width="26" height="2"/>
<rect x="906" y="1474" fill="#333333" width="18" height="2"/>
<rect x="902" y="1479" fill="#333333" width="26" height="2"/>
<rect x="906" y="1484" fill="#333333" width="18" height="2"/>
<rect x="902" y="1467" fill="none" width="26" height="26"/>
<rect fill="none" width="26" height="26"/>
<g>
	<path fill="#333333" d="M17.517,5.116c0.349,0,0.701,0.089,1.032,0.313c1.533,1.044,0.277,3.619,0.277,3.619
		s2.402,1.135,1.902,3.09c-0.315,1.231-1.566,1.459-2.449,1.459c-0.517,0-0.906-0.078-0.906-0.078s-0.396,2.765-2.352,2.765
		c-1.953,0-2.352-2.765-2.352-2.765s-0.398,0.094-0.926,0.094c-0.842,0-2.014-0.238-2.428-1.475c-0.674-2.014,1.902-3.09,1.902-3.09
		s-1.102-2.582,0.277-3.619c0.297-0.223,0.629-0.311,0.967-0.311c1.236,0,2.559,1.165,2.559,1.165S16.247,5.116,17.517,5.116
		 M17.517,3.517c-0.979,0-1.866,0.389-2.52,0.79C14.326,3.91,13.423,3.52,12.464,3.52c-0.713,0-1.38,0.218-1.929,0.631
		C9.054,5.265,9.079,7.059,9.332,8.307c-1.286,0.984-2.136,2.537-1.533,4.34c0.522,1.56,1.86,2.483,3.69,2.562
		c0.544,1.328,1.635,2.676,3.532,2.676c1.907,0,2.998-1.358,3.54-2.692c1.93-0.086,3.31-1.065,3.717-2.656
		c0.464-1.813-0.496-3.239-1.537-4.125c0.347-1.439,0.271-3.239-1.292-4.303C18.872,3.715,18.223,3.517,17.517,3.517L17.517,3.517z"
		/>
</g>
<path fill="none" stroke="#333333" stroke-width="1.6" stroke-linecap="round" stroke-linejoin="round" stroke-miterlimit="10" d="
	M8.596,15.889c-2.271,1.319-3.226-1.55-3.226-1.55s-2.239,1.602-3.626-0.004c-1.39-1.604,0.583-3.58,0.583-3.58
	s-2-1.969-1.118-3.452c0.882-1.484,3.585-0.551,3.585-0.551s0.615-4.297,3.457-1.689"/>
<path fill="none" stroke="#333333" stroke-width="1.6" stroke-linecap="round" stroke-linejoin="round" stroke-miterlimit="10" d="
	M6.875,4.084c0.917-2.584,3.75-1.167,3.75-1.167s0.936-2.255,2.916-2c1.904,0.245,2,2.292,2,2.292c0-0.001,2.58-0.514,3.042,1.291"
	/>
<circle fill="#333333" cx="14.968" cy="10.391" r="2.062"/>
<path fill="#333333" d="M6.816,12.381c-1.139,0-2.062-0.922-2.062-2.061s0.923-2.062,2.062-2.062c0.503,0,0.967,0.175,1.321,0.479
	C9.592,9.981,8.822,12.399,6.816,12.381z"/>
<path fill="#333333" d="M12.238,25.859c1.863-2.402,4.055-4.959,5.561-11.76c0.207,0.225,2.585-0.023,3.12-1.277
	c0.243-1.641-0.034-1.893-0.37-2.43c1.049-1.366,3.097-2.497,5.361-2.271c-1.768,1.369-3.6,3.151-5.146,9.401
	s-6.796,8.336-6.796,8.336H12.238z"/>
<path fill="#333333" d="M2.462,6.453c0.069,0.174,2.364,0.269,2.364,0.269S4.518,5.902,4.967,5.199
	c0.449-0.705-2.781-3.006-4.834-2.334C1.6,3.9,2.212,5.818,2.462,6.453z"/>
<path fill="#333333" d="M12.281,25.844c1.411,0,0.153-4.396-0.356-6.095c-0.524-1.747-1.024-3.721-2.957-4.53
	c-1.305,1.357-2.221,1.602-2.221,1.602C10.227,20.131,9.463,25.844,12.281,25.844z"/>
<path fill="#333333" d="M11.232,14.718c0,0,2.762,2.522,4.443,2.401c0.24,1.682-0.901,4.984-1.802,7.627
	c-0.54,1.08-1.802,0.359-1.802,0.359S13.214,18.682,11.232,14.718z"/>
</svg>
