<?xml version="1.0" encoding="utf-8"?>
<!-- Generator: Adobe Illustrator 15.0.0, SVG Export Plug-In . SVG Version: 6.00 Build 0)  -->
<!DOCTYPE svg PUBLIC "-//W3C//DTD SVG 1.1//EN" "http://www.w3.org/Graphics/SVG/1.1/DTD/svg11.dtd">
<svg version="1.1" id="Layer_1" xmlns="http://www.w3.org/2000/svg" xmlns:xlink="http://www.w3.org/1999/xlink" x="0px" y="0px"
	 width="26px" height="26px" viewBox="0 0 26 26" enable-background="new 0 0 26 26" xml:space="preserve">
<rect fill="none" width="26" height="26"/>
<path fill="#333333" d="M17.533,12.422c-0.035,0.069-0.099,0.141-0.194,0.213l-0.562,0.369c-0.149,0.088-0.257,0.113-0.322,0.075
	c-0.069-0.04-0.156-0.121-0.264-0.253c-0.164-0.223-0.349-0.456-0.554-0.696c-0.208-0.24-0.441-0.495-0.706-0.758
	c-0.512-0.512-0.938-0.597-1.277-0.256c-0.096,0.094-0.159,0.184-0.193,0.27c-0.029,0.084-0.035,0.178-0.01,0.277
	c0.021,0.101,0.069,0.211,0.14,0.334c0.071,0.124,0.164,0.273,0.282,0.45c0.192,0.3,0.378,0.606,0.554,0.917
	c0.176,0.313,0.3,0.627,0.372,0.943c0.071,0.319,0.061,0.64-0.03,0.968c-0.091,0.326-0.304,0.656-0.638,0.991
	c-0.279,0.277-0.561,0.473-0.844,0.588c-0.286,0.113-0.571,0.167-0.855,0.159c-0.287-0.009-0.566-0.072-0.847-0.188
	c-0.279-0.112-0.551-0.269-0.816-0.461l-0.723,0.721c-0.03,0.031-0.075,0.057-0.131,0.08c-0.06,0.024-0.124,0-0.197-0.071
	l-0.659-0.661c-0.066-0.064-0.094-0.126-0.086-0.181c0.012-0.056,0.037-0.105,0.086-0.153l0.688-0.688
	c-0.201-0.223-0.408-0.477-0.621-0.763c-0.217-0.286-0.383-0.568-0.501-0.852c-0.087-0.195-0.115-0.328-0.083-0.401
	c0.034-0.073,0.099-0.143,0.199-0.206l0.606-0.397c0.125-0.076,0.217-0.103,0.275-0.079c0.06,0.022,0.138,0.102,0.238,0.238
	c0.093,0.116,0.196,0.249,0.308,0.388c0.111,0.14,0.229,0.285,0.353,0.432c0.126,0.147,0.248,0.291,0.37,0.434
	c0.124,0.142,0.245,0.27,0.364,0.389c0.298,0.299,0.562,0.469,0.789,0.514c0.225,0.044,0.427-0.022,0.603-0.198
	c0.105-0.105,0.178-0.207,0.217-0.304c0.038-0.097,0.047-0.201,0.025-0.311c-0.02-0.107-0.066-0.226-0.137-0.356
	c-0.07-0.129-0.164-0.282-0.282-0.456c-0.198-0.307-0.382-0.618-0.55-0.933c-0.167-0.313-0.285-0.63-0.352-0.943
	c-0.068-0.313-0.063-0.63,0.021-0.948c0.08-0.317,0.278-0.63,0.59-0.944c0.494-0.494,1.029-0.74,1.606-0.74
	c0.572,0,1.151,0.223,1.728,0.671l0.733-0.732c0.046-0.048,0.097-0.074,0.153-0.086c0.055-0.009,0.115,0.02,0.181,0.086l0.661,0.661
	c0.072,0.071,0.094,0.136,0.072,0.193c-0.024,0.058-0.051,0.104-0.079,0.134l-0.725,0.723c0.169,0.194,0.342,0.415,0.518,0.661
	c0.179,0.247,0.319,0.495,0.427,0.741C17.54,12.219,17.57,12.349,17.533,12.422z"/>
<path fill="#333333" d="M13,0.188C5.924,0.188,0.188,5.924,0.188,13S5.924,25.813,13,25.813S25.813,20.076,25.813,13
	S20.076,0.188,13,0.188z M21.858,5.632c0.831,0.998,1.487,2.143,1.944,3.384l-2.277,1.316c-0.398-1.273-1.081-2.417-1.963-3.374
	L21.858,5.632z M11.048,1.652C11.685,1.543,12.333,1.475,13,1.475s1.315,0.068,1.952,0.178V4.29C14.322,4.149,13.671,4.07,13,4.07
	s-1.322,0.079-1.952,0.22V1.652z M4.142,5.631l2.296,1.326c-0.882,0.957-1.564,2.102-1.963,3.375L2.197,9.016
	C2.654,7.774,3.311,6.63,4.142,5.631z M4.142,20.369c-0.831-0.999-1.487-2.144-1.944-3.385l2.277-1.316
	c0.398,1.273,1.081,2.418,1.963,3.375L4.142,20.369z M14.952,24.348c-0.637,0.109-1.285,0.178-1.952,0.178s-1.315-0.068-1.952-0.178
	V21.71c0.63,0.141,1.281,0.22,1.952,0.22s1.322-0.079,1.952-0.22V24.348z M13,20.564c-4.178,0-7.564-3.387-7.564-7.564
	S8.822,5.436,13,5.436S20.564,8.822,20.564,13S17.178,20.564,13,20.564z M21.858,20.369l-2.296-1.326
	c0.882-0.957,1.564-2.102,1.963-3.375l2.277,1.316C23.346,18.226,22.689,19.37,21.858,20.369z"/>
</svg>
