<?xml version="1.0" encoding="utf-8"?>
<!-- Generator: Adobe Illustrator 15.0.0, SVG Export Plug-In . SVG Version: 6.00 Build 0)  -->
<!DOCTYPE svg PUBLIC "-//W3C//DTD SVG 1.1//EN" "http://www.w3.org/Graphics/SVG/1.1/DTD/svg11.dtd">
<svg version="1.1" id="Layer_1" xmlns="http://www.w3.org/2000/svg" xmlns:xlink="http://www.w3.org/1999/xlink" x="0px" y="0px"
	 width="26px" height="26px" viewBox="0 0 26 26" enable-background="new 0 0 26 26" xml:space="preserve">
<rect fill="none" width="26" height="26"/>
<circle fill="#333333" cx="12" cy="4" r="1.813"/>
<path fill="#333333" d="M14.764,6.327l3.625-5.64c0,0,0.443-0.83,1.107-0.498c0.575,0.288,0.42,0.654,0.227,1.18
	c-0.127,0.342-3.24,6.403-3.24,6.403l-0.639,4.729c0,0-1.592,1.294-4.783,1.294L10.145,9.61c0,0-2.039,0.969-2.539,1.172
	s-0.637,0.206-1.303-0.586C5.725,9.509,4.024,7.071,3.703,6.5C3.408,5.975,3.141,5.469,3.484,5.234s0.814-0.103,1.25,0.469
	C5.082,6.16,7.438,8.545,7.438,8.545s1.8-1.044,2.331-1.278s0.902-0.244,1.371-0.244C11.854,7.022,14.764,6.327,14.764,6.327z"/>
<path fill="#333333" d="M10.785,15.114c2.361,0,4.793-0.939,5.587-1.43s1.427-1.231,1.427-1.231s0.624-0.499,1.186-0.25
	c0.563,0.25,0.75,0.938,0.75,0.938l0.893,5.597c0,0,0.459,1.924-0.352,2.109c-0.813,0.188-1.299-1.677-1.299-1.677l-0.918-3.515
	l-1.65,1.271c0,0-1.946,1.027-4.082,1.027c0,0-2.244,4.651-2.758,5.57s-1.063,2.649-2,2.275c-0.938-0.373-0.354-1.756,0.203-3.249
	C8.447,20.738,10.785,15.114,10.785,15.114z"/>
<path fill="none" stroke="#333333" stroke-miterlimit="10" d="M18.5,10.5c0,0,5-2.812,5-10"/>
<line fill="none" stroke="#333333" stroke-linecap="round" stroke-linejoin="round" stroke-miterlimit="10" x1="15.5" y1="25.5" x2="15.5" y2="16.5"/>
</svg>
