<?xml version="1.0" encoding="utf-8"?>
<!-- Generator: Adobe Illustrator 15.0.0, SVG Export Plug-In . SVG Version: 6.00 Build 0)  -->
<!DOCTYPE svg PUBLIC "-//W3C//DTD SVG 1.1//EN" "http://www.w3.org/Graphics/SVG/1.1/DTD/svg11.dtd">
<svg version="1.1" id="Layer_1" xmlns="http://www.w3.org/2000/svg" xmlns:xlink="http://www.w3.org/1999/xlink" x="0px" y="0px"
	 width="26px" height="26px" viewBox="0 0 26 26" enable-background="new 0 0 26 26" xml:space="preserve">
<rect fill="none" width="26" height="26"/>
<path fill="#333333" d="M24.992,10.084c1.614,1.665,1.204,4.715-3.591,5.736c0-2.102-3.689-2.916-8.379-2.916
	c-5.028,0-8.594,0.773-8.594,2.974c-4.811-0.992-5.087-4.37-3.156-6.06c2.35-2.056,3.31,1.362,11.714,1.362
	C20.644,11.181,22.415,7.426,24.992,10.084z"/>
<g>
	<path fill="#333333" d="M12.987,9.834c3.761,0,7.938-1.868,7.938-1.868v-1.23c0-3.273-2.066-6.586-7.919-6.586
		c-6.125,0-7.92,3.414-7.92,6.586v1.299C5.086,8.034,9.389,9.834,12.987,9.834z"/>
</g>
<path fill="#333333" d="M13,15.121c-0.453,0-0.863,0.164-1.192,0.428c0.141-0.087,0.297-0.15,0.475-0.15
	c0.509,0,0.92,0.412,0.92,0.921s-0.411,0.92-0.92,0.92s-0.921-0.411-0.921-0.92c0-0.178,0.063-0.334,0.149-0.475
	c-0.263,0.328-0.427,0.74-0.427,1.192c0,1.059,0.857,1.916,1.916,1.916s1.916-0.857,1.916-1.916S14.059,15.121,13,15.121z"/>
<g>
	<g>
		<path fill="#333333" d="M7.787,20.879c0.196,0.123,0.42,0.277,0.607,0.406c1.081,0.745,2.562,1.766,4.641,1.766
			c2.086,0,3.606-0.997,4.717-1.726c0.099-0.064,0.208-0.136,0.317-0.206c-0.164,0.313-0.425,0.699-0.813,1.123
			c-0.934,1.013-2.532,2.096-4.221,2.096c-1.847,0-3.561-1.207-4.466-2.239C8.137,21.605,7.9,21.175,7.787,20.879 M7.438,19.076
			c-0.315,0-0.624,0.125-0.938,0.433c-1.682,1.646,2.266,6.429,6.535,6.429c4.266,0,8.055-4.937,6.531-6.429
			c-0.271-0.267-0.549-0.376-0.84-0.376c-1.336,0-2.958,2.318-5.691,2.318C10.327,21.451,8.813,19.076,7.438,19.076L7.438,19.076z"
			/>
	</g>
</g>
</svg>
