<?xml version="1.0" encoding="utf-8"?>
<!-- Generator: Adobe Illustrator 15.0.0, SVG Export Plug-In . SVG Version: 6.00 Build 0)  -->
<!DOCTYPE svg PUBLIC "-//W3C//DTD SVG 1.1//EN" "http://www.w3.org/Graphics/SVG/1.1/DTD/svg11.dtd">
<svg version="1.1" id="Layer_1" xmlns="http://www.w3.org/2000/svg" xmlns:xlink="http://www.w3.org/1999/xlink" x="0px" y="0px"
	 width="26px" height="26px" viewBox="0 0 26 26" enable-background="new 0 0 26 26" xml:space="preserve">
<rect x="902" y="1469" fill="#333333" width="26" height="2"/>
<rect x="902" y="1489" fill="#333333" width="26" height="2"/>
<rect x="906" y="1474" fill="#333333" width="18" height="2"/>
<rect x="902" y="1479" fill="#333333" width="26" height="2"/>
<rect x="906" y="1484" fill="#333333" width="18" height="2"/>
<rect x="902" y="1467" fill="none" width="26" height="26"/>
<path fill="#333333" d="M4.248,6.956c0.663,0.094,0.999,0.59,1.27,1.15c0.17,0.351,0.579,0.87,0.475,1.279
	c-0.124,0.48-0.881,0.622-1.288,0.478C4.338,9.733,4.172,9.368,4.043,9.031C3.911,8.688,3.727,8.376,3.595,8.033
	C3.359,7.42,3.469,6.846,4.248,6.956z"/>
<rect fill="none" width="26" height="26"/>
<path fill="#333333" d="M26,20.934c-0.268,0.094-0.591,0.16-1,0.16c-0.833,0-2.113-0.228-3-0.926c-0.887,0.698-2.167,0.926-3,0.926
	s-2.113-0.228-3-0.926c-0.887,0.698-2.167,0.926-3,0.926s-2.113-0.228-3-0.926c-0.887,0.698-2.167,0.926-3,0.926
	s-2.113-0.228-3-0.926c-0.887,0.698-2.167,0.926-3,0.926c-0.374,0-0.699-0.033-1-0.08v1.846c0.291,0.031,0.619,0.051,1,0.051
	c1.734,0,2.369-0.43,3-0.926c0.887,0.698,2.167,0.926,3,0.926s2.113-0.228,3-0.926c0.887,0.698,2.167,0.926,3,0.926
	s2.113-0.228,3-0.926c0.887,0.698,2.167,0.926,3,0.926s2.113-0.228,3-0.926c0.887,0.698,2.167,0.926,3,0.926
	c0.414,0,0.736-0.063,1-0.15V20.934z"/>
<path fill="#333333" d="M26,23.934c-0.268,0.094-0.591,0.16-1,0.16c-0.833,0-2.113-0.228-3-0.926c-0.887,0.698-2.167,0.926-3,0.926
	s-2.113-0.228-3-0.926c-0.887,0.698-2.167,0.926-3,0.926s-2.113-0.228-3-0.926c-0.887,0.698-2.167,0.926-3,0.926
	s-2.113-0.228-3-0.926c-0.887,0.698-2.167,0.926-3,0.926c-0.374,0-0.699-0.033-1-0.08v1.846c0.291,0.031,0.619,0.051,1,0.051
	c1.734,0,2.369-0.43,3-0.926c0.887,0.698,2.167,0.926,3,0.926s2.113-0.228,3-0.926c0.887,0.698,2.167,0.926,3,0.926
	s2.113-0.228,3-0.926c0.887,0.698,2.167,0.926,3,0.926s2.113-0.228,3-0.926c0.887,0.698,2.167,0.926,3,0.926
	c0.414,0,0.736-0.063,1-0.15V23.934z"/>
<polygon fill="none" stroke="#333333" stroke-width="2" stroke-linecap="round" stroke-linejoin="round" stroke-miterlimit="10" points="
	16,7 11.293,7 10.682,10 7.048,10 5.048,7 3,7 4,10 2,13 21,13 "/>
<path fill="#333333" d="M25.78,12.375C25.591,12.138,25.304,12,25,12h-5.001l-2,3H3l-1-3H1c-0.553,0-1,0.448-1,1v3
	c0,3.883,3.373,6,5.106,6h10.43c4.081,0,9.162-3.341,10.37-8.766C25.972,12.938,25.97,12.611,25.78,12.375z M22,15.932
	c0,0.498-0.498,0.515-0.498,0.515h-1.093c0,0-0.578-0.032-0.578-0.53c0-0.289,0-0.707,0-0.707S19.85,15,20.186,15
	s0.368,0.209,0.368,0.209v0.434c0,0,0.034,0.209,0.354,0.209s0.369-0.209,0.369-0.209v-0.434c0,0,0.033-0.209,0.369-0.209
	C21.983,15,22,15.209,22,15.209S22,15.658,22,15.932z"/>
<line fill="none" stroke="#333333" stroke-width="2" stroke-linecap="round" stroke-linejoin="round" stroke-miterlimit="10" x1="4" y1="10" x2="17.924" y2="10"/>
</svg>
