<?xml version="1.0" encoding="utf-8"?>
<!-- Generator: Adobe Illustrator 15.0.0, SVG Export Plug-In . SVG Version: 6.00 Build 0)  -->
<!DOCTYPE svg PUBLIC "-//W3C//DTD SVG 1.1//EN" "http://www.w3.org/Graphics/SVG/1.1/DTD/svg11.dtd">
<svg version="1.1" id="Layer_1" xmlns="http://www.w3.org/2000/svg" xmlns:xlink="http://www.w3.org/1999/xlink" x="0px" y="0px"
	 width="26px" height="26px" viewBox="0 0 26 26" enable-background="new 0 0 26 26" xml:space="preserve">
<rect fill="none" width="26" height="26"/>
<path fill="#333333" d="M1.31,7.093C1.154,6.386,0.906,5.118,1.166,5.039C1.532,4.93,1.803,5.61,2.114,6.247
	c0.294,0.603,0.958,2.17,0.958,2.17s0.366-0.118,1.633-0.118c1.265,0,2.549,0.646,4.301,0.646c2.376,0,6.354-1.062,8.639-3.62
	c0.93-1.043,1.409-2.009,2.322-2.615C20.43,1.19,20.86,0.246,20.86,0.246s0.538,0.412,0.499,1.504c-0.021,0.568-0.248,0.776-0.391,1
	c1.443,0,2.135,2.529,3.538,2.529c0.567,0,1.198,0.021,1.198,0.021s0.377,0.031,0.072,0.681c0,0.254-0.016,0.757-0.372,1.347
	c-0.464,0.769-1.04,0.807-1.722,0.807s-1.193-0.726-1.973-0.726s-1.988,1.336-1.752,2.969c0.344,2.354,0.117,3.968-0.394,5.694
	c-0.386,1.306-0.323,2.238-0.38,3.499c-0.14,3.147,1.085,5.178,0.525,5.247c-0.473,0.059-1.611-0.218-2.066-4.142
	c-0.221-1.915,0.033-4.343-0.207-4.289c-0.438,0.097-0.525,3.078-0.631,4.862c-0.085,1.453,1.574,4.652,0.596,4.652
	c-0.567,0-2.135-2.134-2.236-4.893c-0.065-1.794,0.006-4.65-0.044-5.051c-4.333,0-5.698-1.87-7.538-1.87
	c0,0.919,0.029,1.898-1.129,3.561c-1.476,2.12,1.204,7.251,0.182,7.251c-1.021,0-2.045-2.316-2.289-4.312
	c-0.243-1.996,0.392-2.277-0.178-2.761c-0.27,1.428-0.949,1.632-1.068,3.354c-0.117,1.687,1.166,4.706,0.394,4.706
	c-1.188,0-2.289-3.623-2.289-5.617c0-1.938,1.05-1.47,1.034-3.273c-0.008-1.023-1.068-1.336-1.068-4.423
	c0-2.044,0.68-3.141,0.68-3.141S1.439,7.685,1.31,7.093z"/>
</svg>
