<?xml version="1.0" encoding="utf-8"?>
<!-- Generator: Adobe Illustrator 16.0.0, SVG Export Plug-In . SVG Version: 6.00 Build 0)  -->
<!DOCTYPE svg PUBLIC "-//W3C//DTD SVG 1.1//EN" "http://www.w3.org/Graphics/SVG/1.1/DTD/svg11.dtd">
<svg version="1.1" id="Layer_1" xmlns="http://www.w3.org/2000/svg" xmlns:xlink="http://www.w3.org/1999/xlink" x="0px" y="0px"
	 width="26px" height="26px" viewBox="0 0 26 26" enable-background="new 0 0 26 26" xml:space="preserve">
<rect fill="none" width="26" height="26"/>
<path fill="#333333" d="M23.984,3.059c-1.111,0.278-2.67,0.289-3.623-0.366s-1.3-2.538-3.961-2.538c-2.1,0-3.291,1.354-3.291,3.361
	c0,2.188,1.556,2.943,1.556,5.803c0,4.021-6,7.576-11.189,7.127c-1.072-0.094-1.303,0.472-0.629,1.033
	c-1.235-0.427-2.965,0.562,1.021,2.4c2.274,1.049,5.686,2.295,9.776,2.295c6.838,0,8.283-3.726,8.283-6.107
	c0-3.624-3.753-5.655-3.753-8.443c0-1.873,1.415-1.376,3.123-1.795c2.248-0.553,2.749-1.283,3.114-1.751
	C24.822,3.553,24.881,2.835,23.984,3.059z M17.938,4.13c-0.393,0-0.709-0.316-0.709-0.708s0.316-0.709,0.709-0.709
	c0.391,0,0.709,0.318,0.709,0.709S18.328,4.13,17.938,4.13z"/>
<path fill="#333333" d="M16.567,24.676c0-0.193-0.661-0.225-0.904-0.43c-0.271-0.229,0.269-0.306,0.226-0.52
	c-0.024-0.125-2.011-0.237-3.645-0.127c0,0-0.531-0.604,0.068-1.697c0.599-1.092-0.395-0.52-0.799-0.52s-1.534-1.175-0.927,0.344
	c0.775,1.938-0.527,2.086-0.527,2.791c0,1.331,5.858,1.604,5.966,1.152c0.047-0.202-0.492-0.309-0.359-0.453
	C15.905,24.954,16.567,24.842,16.567,24.676z"/>
</svg>
