<?xml version="1.0" encoding="utf-8"?>
<!-- Generator: Adobe Illustrator 15.0.0, SVG Export Plug-In . SVG Version: 6.00 Build 0)  -->
<!DOCTYPE svg PUBLIC "-//W3C//DTD SVG 1.1//EN" "http://www.w3.org/Graphics/SVG/1.1/DTD/svg11.dtd">
<svg version="1.1" id="Layer_1" xmlns="http://www.w3.org/2000/svg" xmlns:xlink="http://www.w3.org/1999/xlink" x="0px" y="0px"
	 width="26px" height="26px" viewBox="0 0 26 26" enable-background="new 0 0 26 26" xml:space="preserve">
<rect fill="none" width="26" height="26"/>
<path fill="#333333" d="M6,11c0,0.551-0.449,1-1,1H2c-0.551,0-1-0.449-1-1v-1h5V11z"/>
<path fill="#333333" d="M5,20H2v-9c0-0.551,0.449-1,1-1h1c0.551,0,1,0.449,1,1V20z"/>
<path fill="#333333" d="M12,11c0,0.551-0.449,1-1,1H8c-0.551,0-1-0.449-1-1v-1h5V11z"/>
<path fill="#333333" d="M11,20H8v-9c0-0.551,0.449-1,1-1h1c0.551,0,1,0.449,1,1V20z"/>
<path fill="#333333" d="M18,11c0,0.551-0.449,1-1,1h-3c-0.551,0-1-0.449-1-1v-1h5V11z"/>
<path fill="#333333" d="M17,20h-3v-9c0-0.551,0.449-1,1-1h1c0.551,0,1,0.449,1,1V20z"/>
<path fill="#333333" d="M24,11c0,0.551-0.449,1-1,1h-3c-0.551,0-1-0.449-1-1v-1h5V11z"/>
<path fill="#333333" d="M23,20h-3v-9c0-0.551,0.449-1,1-1h1c0.551,0,1,0.449,1,1V20z"/>
<path fill="#333333" d="M3,24c-0.551,0-1-0.449-1-1v-2h21c0,0,0,1.75,0,2c0,0.551-0.449,1-1,1H3z"/>
<path fill="#333333" d="M1,26c-0.551,0-1-0.449-1-1v-1c0-0.551,0.449-1,1-1h23c0.551,0,1,0.449,1,1v1c0,0.551-0.449,1-1,1H1z"/>
<path fill="#333333" d="M24.399,7.072L12.975,0.136c-0.299-0.182-0.67-0.182-0.969,0l-11.529,7C0.102,7.364-0.08,7.825,0.033,8.261
	C0.146,8.697,0.526,9,0.961,9H24.02c0.008,0,0.016,0,0.02,0C24.57,9,25,8.553,25,8C25,7.58,24.752,7.221,24.399,7.072z M12.5,7.649
	c-1.188,0-2.149-0.961-2.149-2.149c0-1.188,0.961-2.149,2.149-2.149s2.149,0.962,2.149,2.149C14.649,6.688,13.688,7.649,12.5,7.649z
	"/>
</svg>
