<?xml version="1.0" encoding="utf-8"?>
<!-- Generator: Adobe Illustrator 15.0.0, SVG Export Plug-In . SVG Version: 6.00 Build 0)  -->
<!DOCTYPE svg PUBLIC "-//W3C//DTD SVG 1.1//EN" "http://www.w3.org/Graphics/SVG/1.1/DTD/svg11.dtd">
<svg version="1.1" id="Layer_1" xmlns="http://www.w3.org/2000/svg" xmlns:xlink="http://www.w3.org/1999/xlink" x="0px" y="0px"
	 width="26px" height="26px" viewBox="0 0 26 26" enable-background="new 0 0 26 26" xml:space="preserve">
<path fill="#333333" d="M15.867,16.01c-0.385,0.385-1.012,0.383-1.395-0.002l-4.479-4.479c-0.387-0.385-0.387-1.011,0-1.396
	l0.14-0.14c0.384-0.385,1.011-0.385,1.396,0l4.478,4.48c0.386,0.383,0.387,1.01,0.001,1.396L15.867,16.01z"/>
<path fill="#333333" d="M18.867,13.01c-0.385,0.385-1.012,0.383-1.395-0.002l-4.479-4.479c-0.387-0.385-0.387-1.011,0-1.396
	l0.14-0.14c0.384-0.385,1.011-0.385,1.396,0l4.478,4.48c0.386,0.383,0.387,1.01,0.001,1.396L18.867,13.01z"/>
<path fill="#333333" d="M12.867,19.01c-0.385,0.385-1.012,0.383-1.395-0.002l-4.479-4.479c-0.387-0.385-0.387-1.011,0-1.396
	l0.14-0.14c0.384-0.385,1.011-0.385,1.396,0l4.478,4.48c0.386,0.383,0.387,1.01,0.001,1.396L12.867,19.01z"/>
<rect fill="none" width="26" height="26"/>
<g>
	<g>
		<path fill="#333333" d="M19.276,2.342L19.276,2.342c1.966,0,3.127,0.463,3.523,0.859c1.619,1.62,1.344,9.827-4.214,15.385
			c-3.745,3.745-8.58,5.079-11.856,5.079c-1.965,0-3.128-0.467-3.528-0.866C1.582,21.18,1.858,12.973,7.414,7.414
			C11.154,3.674,15.994,2.342,19.276,2.342 M19.276,0.342C15.297,0.342,9.981,2.019,6,6c-6.191,6.193-6.827,15.598-4.213,18.213
			c0.934,0.934,2.732,1.452,4.942,1.452c3.979,0,9.289-1.684,13.271-5.665c6.193-6.193,6.81-15.616,4.214-18.213
			C23.285,0.859,21.487,0.342,19.276,0.342L19.276,0.342z"/>
	</g>
</g>
<line fill="none" stroke="#333333" stroke-width="2" stroke-linecap="round" stroke-linejoin="round" stroke-miterlimit="10" x1="17.5" y1="8.5" x2="8.5" y2="17.5"/>
<line fill="none" stroke="#333333" stroke-width="2" stroke-linecap="round" stroke-linejoin="round" stroke-miterlimit="10" x1="23.5" y1="2.5" x2="19.5" y2="6.5"/>
<line fill="none" stroke="#333333" stroke-width="2" stroke-linecap="round" stroke-linejoin="round" stroke-miterlimit="10" x1="6.5" y1="19.5" x2="2.5" y2="23.5"/>
</svg>
