<?xml version="1.0" encoding="utf-8"?>
<!-- Generator: Adobe Illustrator 15.0.0, SVG Export Plug-In . SVG Version: 6.00 Build 0)  -->
<!DOCTYPE svg PUBLIC "-//W3C//DTD SVG 1.1//EN" "http://www.w3.org/Graphics/SVG/1.1/DTD/svg11.dtd">
<svg version="1.1" id="Layer_1" xmlns="http://www.w3.org/2000/svg" xmlns:xlink="http://www.w3.org/1999/xlink" x="0px" y="0px"
	 width="26px" height="26px" viewBox="0 0 26 26" enable-background="new 0 0 26 26" xml:space="preserve">
<rect fill="none" width="26" height="26"/>
<rect fill="none" width="26" height="26"/>
<path fill="#333333" d="M1.581,20.929l3.777,0.164l0.669-7.737l3.386,0.211l0.541,7.912l4.381,0.302c0,0,0.582-5.587,1.469-8.674
	C12.202,9.824,8,3.805,8,3.805s-5.898,7.208-7.83,8.62L1.581,20.929z"/>
<path fill="#333333" d="M9.501,3.284c1.067,1.453,5.811,7.182,8.356,9.787c-1.574,4.614-2.241,8.788-2.241,8.788l8.313-1.788
	c0,0,1.433-5.986,2.071-8c-1.062-1.084-5.857-8.429-5.857-8.429S13.688,4.138,9.501,3.284z"/>
</svg>
