<?xml version="1.0" encoding="utf-8"?>
<!-- Generator: Adobe Illustrator 15.0.0, SVG Export Plug-In . SVG Version: 6.00 Build 0)  -->
<!DOCTYPE svg PUBLIC "-//W3C//DTD SVG 1.1//EN" "http://www.w3.org/Graphics/SVG/1.1/DTD/svg11.dtd">
<svg version="1.1" id="Layer_1" xmlns="http://www.w3.org/2000/svg" xmlns:xlink="http://www.w3.org/1999/xlink" x="0px" y="0px"
	 width="26px" height="26px" viewBox="0 0 26 26" enable-background="new 0 0 26 26" xml:space="preserve">
<path fill="none" stroke="#333333" stroke-width="2" stroke-linecap="square" stroke-linejoin="round" stroke-miterlimit="10" d="
	M8,4c0-1.656,1.343-3,3-3h4c1.657,0,3,1.344,3,3"/>
<rect fill="none" width="26" height="26"/>
<g>
	<path fill="#333333" d="M21,12.5c0,0.276-0.224,0.5-0.5,0.5h-2c-0.276,0-0.5-0.224-0.5-0.5V11H8v1.5C8,12.776,7.776,13,7.5,13h-2
		C5.224,13,5,12.776,5,12.5V11H0v8c0,1.656,1.343,3,3,3h20c1.657,0,3-1.344,3-3v-8h-5V12.5z"/>
	<path fill="#333333" d="M23,6H3C1.343,6,0,7.344,0,9v1h5V9.5C5,9.224,5.224,9,5.5,9h2C7.776,9,8,9.224,8,9.5V10h10V9.5
		C18,9.224,18.224,9,18.5,9h2C20.776,9,21,9.224,21,9.5V10h5V9C26,7.344,24.657,6,23,6z"/>
</g>
</svg>
