<?xml version="1.0" encoding="utf-8"?>
<!-- Generator: Adobe Illustrator 15.0.0, SVG Export Plug-In . SVG Version: 6.00 Build 0)  -->
<!DOCTYPE svg PUBLIC "-//W3C//DTD SVG 1.1//EN" "http://www.w3.org/Graphics/SVG/1.1/DTD/svg11.dtd">
<svg version="1.1" id="Layer_1" xmlns="http://www.w3.org/2000/svg" xmlns:xlink="http://www.w3.org/1999/xlink" x="0px" y="0px"
	 width="26px" height="26px" viewBox="0 0 26 26" enable-background="new 0 0 26 26" xml:space="preserve">
<rect x="902" y="1469" fill="#333333" width="26" height="2"/>
<rect x="902" y="1489" fill="#333333" width="26" height="2"/>
<rect x="906" y="1474" fill="#333333" width="18" height="2"/>
<rect x="902" y="1479" fill="#333333" width="26" height="2"/>
<rect x="906" y="1484" fill="#333333" width="18" height="2"/>
<rect x="902" y="1467" fill="none" width="26" height="26"/>
<rect fill="none" width="26" height="26"/>
<g>
	<circle fill="#333333" cx="6.5" cy="23.5" r="2.313"/>
</g>
<g>
	<circle fill="#333333" cx="20.5" cy="23.5" r="2.313"/>
</g>
<path fill="#333333" d="M25.234,14.98L23,12c-0.457-0.551-0.766-1-1.5-1H17c-0.551,0-1,0.449-1,1v10
	c0,0.549,0.446,0.995,0.994,0.999c0.246-1.723,1.717-3.056,3.506-3.056c1.79,0,3.261,1.334,3.506,3.057H25c0.551,0,1-0.449,1-1
	c0,0,0-4.053,0-5S25.234,14.98,25.234,14.98z M19,17v-4h2.446c0.161,0,0.385,0.236,0.385,0.236l2.105,2.914
	c0.187,0.274,0.389,0.6,0.389,0.85H19z"/>
<path fill="#333333" d="M14,7H1C0.449,7,0,7.449,0,8v14c0,0.551,0.449,1,1,1h1.994c0.245-1.723,1.716-3.057,3.506-3.057
	S9.761,21.277,10.006,23H14c0.551,0,1-0.449,1-1V8C15,7.449,14.551,7,14,7z"/>
</svg>
