<?xml version="1.0" encoding="utf-8"?>
<!-- Generator: Adobe Illustrator 15.0.0, SVG Export Plug-In . SVG Version: 6.00 Build 0)  -->
<!DOCTYPE svg PUBLIC "-//W3C//DTD SVG 1.1//EN" "http://www.w3.org/Graphics/SVG/1.1/DTD/svg11.dtd">
<svg version="1.1" id="Layer_1" xmlns="http://www.w3.org/2000/svg" xmlns:xlink="http://www.w3.org/1999/xlink" x="0px" y="0px"
	 width="26px" height="26px" viewBox="0 0 26 26" enable-background="new 0 0 26 26" xml:space="preserve">
<g>
	<path fill="#333333" d="M21,0H5C3.343,0,2,1.344,2,3v20c0,1.656,1.343,3,3,3h16c1.657,0,3-1.344,3-3V3C24,1.344,22.657,0,21,0z
		 M13,21.059c-3.897,0-7.059-3.16-7.059-7.059S9.103,6.941,13,6.941c3.896,0,7.059,3.16,7.059,7.059S16.896,21.059,13,21.059z
		 M20.5,5.121c-0.896,0-1.621-0.726-1.621-1.621s0.726-1.621,1.621-1.621c0.895,0,1.621,0.726,1.621,1.621S21.395,5.121,20.5,5.121z
		 M15.5,5.121c-0.896,0-1.621-0.726-1.621-1.621s0.726-1.621,1.621-1.621c0.895,0,1.621,0.726,1.621,1.621S16.395,5.121,15.5,5.121z
		"/>
</g>
<rect fill="none" width="26" height="26"/>
<path fill="#333333" d="M13,19.016c-2.867,0-5.193-2.325-5.193-5.193c2.354-1.525,2.906,0.142,5.193,0.142s3.108-1.563,5.193-0.142
	C18.193,16.69,15.867,19.016,13,19.016z"/>
<g>
	<path fill="#333333" d="M13,9.188c2.653,0,4.813,2.159,4.813,4.813S15.653,18.813,13,18.813S8.188,16.653,8.188,14
		S10.347,9.188,13,9.188 M13,8.188c-3.21,0-5.813,2.603-5.813,5.813S9.79,19.813,13,19.813c3.209,0,5.813-2.603,5.813-5.813
		S16.209,8.188,13,8.188L13,8.188z"/>
</g>
</svg>
