<?xml version="1.0" encoding="utf-8"?>
<!-- Generator: Adobe Illustrator 16.0.0, SVG Export Plug-In . SVG Version: 6.00 Build 0)  -->
<!DOCTYPE svg PUBLIC "-//W3C//DTD SVG 1.1//EN" "http://www.w3.org/Graphics/SVG/1.1/DTD/svg11.dtd">
<svg version="1.1" id="Layer_1" xmlns="http://www.w3.org/2000/svg" xmlns:xlink="http://www.w3.org/1999/xlink" x="0px" y="0px"
	 width="26px" height="26px" viewBox="0 0 26 26" enable-background="new 0 0 26 26" xml:space="preserve">
<rect fill="none" width="26" height="26"/>
<g>
	<circle fill="#333333" cx="11" cy="11" r="4"/>
	<path fill="#333333" d="M24.2,1H1.8C1.359,1,1,1.363,1,1.812v22.375C1,24.637,1.359,25,1.8,25h22.4c0.44,0,0.8-0.363,0.8-0.812
		V1.812C25,1.363,24.641,1,24.2,1z M20.701,20.733c-0.54,0.54-0.861,0.521-1.002,0.38c-0.141-0.142-5.227-5.227-5.227-5.227
		C13.492,16.585,12.296,17,11,17c-3.313,0-6-2.687-6-6s2.687-6,6-6s6,2.687,6,6c0,1.295-0.415,2.492-1.113,3.473
		c0,0,5.102,5.102,5.227,5.227C21.238,19.823,21.241,20.193,20.701,20.733z"/>
</g>
</svg>
