<?xml version="1.0" encoding="utf-8"?>
<!-- Generator: Adobe Illustrator 16.0.0, SVG Export Plug-In . SVG Version: 6.00 Build 0)  -->
<!DOCTYPE svg PUBLIC "-//W3C//DTD SVG 1.1//EN" "http://www.w3.org/Graphics/SVG/1.1/DTD/svg11.dtd">
<svg version="1.1" id="Layer_1" xmlns="http://www.w3.org/2000/svg" xmlns:xlink="http://www.w3.org/1999/xlink" x="0px" y="0px"
	 width="26px" height="26px" viewBox="0 0 26 26" enable-background="new 0 0 26 26" xml:space="preserve">
<rect fill="none" width="26" height="26"/>
<circle fill="#333333" cx="13" cy="9" r="2"/>
<path fill="#333333" d="M17.429,3c-0.775,4.834-1.044,9.077-4.429,9.077c-3.553,0-3.675-4.989-4.429-9.077
	c-0.696,0.125-1.51-0.012-1.477,1c0.282,8.563,2.989,10.729,3.28,11.479c-0.193,0.871-1.405,3.005-2.193,3.944
	c0.382,0.359,3.087-0.121,3.818-0.486c0.735-0.367,7.09-1.132,7.857-1.882l-3.766-1.403C16.655,14.545,18.336,12.641,18.99,4
	C19.025,3.524,17.922,3.203,17.429,3z"/>
<path fill="none" stroke="#333333" stroke-width="1.6" stroke-miterlimit="10" d="M2,4.5c0,0,4-1,11-1s11,1,11,1"/>
<path fill="#333333" d="M19.746,17.021l-6-1c-0.389-0.065-3.019-0.745-3.34-0.521l-7.219,8.469
	c-0.679,0.475-0.641,1.094-0.453,1.516c0.224,0.504,1.031,0.672,1.626,0.244l9.202-6.807l4.521,0.902l-0.257,4.477
	c-0.016,0.516-0.057,1.684,0.771,1.684c0.516,0,0.793-0.375,1.059-1.312l1.287-6.104C21.08,17.752,20.564,17.156,19.746,17.021z"/>
<path fill="#333333" d="M24.683,8.436c-0.103,0.542-0.626,0.899-1.169,0.797l-1.965-0.371c-0.543-0.103-0.899-0.626-0.797-1.169
	l1.3-6.878c0.103-0.543,0.626-0.899,1.168-0.797l1.966,0.371c0.543,0.103,0.899,0.626,0.797,1.168L24.683,8.436z"/>
<path fill="#333333" d="M1.317,8.436C1.42,8.978,1.943,9.335,2.486,9.232l1.965-0.371c0.542-0.103,0.899-0.626,0.797-1.169
	l-1.3-6.878C3.846,0.271,3.323-0.085,2.78,0.018L0.815,0.389c-0.543,0.103-0.9,0.626-0.797,1.168L1.317,8.436z"/>
</svg>
