<svg width="12" height="12" viewBox="0 0 12 12" fill="none" xmlns="http://www.w3.org/2000/svg">
<path d="M0 1.5C0 0.671573 0.671573 0 1.5 0C2.15441 0 2.71094 0.419071 2.91587 1.00349C2.94361 1.00118 2.97167 1 3 1C3.55228 1 4 1.44772 4 2C4 2.22513 3.92561 2.43288 3.80006 2.60001C3.92147 2.69124 4 2.83645 4 3C4 3.27614 3.77614 3.5 3.5 3.5C3.22386 3.5 3 3.27614 3 3C2.74451 3 2.5114 2.90419 2.33464 2.74653C2.09603 2.90661 1.80892 3 1.5 3C0.671573 3 0 2.32843 0 1.5Z" fill="white"/>
<path d="M1 10C1 10 2 6 2 4H5C5 5.3711 5.46998 7.68215 5.76555 9H9V11H1V10Z" fill="white"/>
<path d="M9 5H7L8.90972 2H10.5604L8.93032 4H11L7.5 8L9 5Z" fill="white"/>
</svg>
