<svg width="580" height="580" viewBox="0 0 580 580" fill="none" xmlns="http://www.w3.org/2000/svg">
<g clip-path="url(#clip0)">
<path d="M66.2751 1.76802C24.9401 1.76802 1.7041 23.139 1.7041 66.804V516.927C1.7041 557.771 22.5981 579.156 63.8961 579.156H515.92C557.227 579.156 578.149 558.84 578.149 516.927V66.804C578.149 24.203 557.227 1.76802 514.627 1.76802C514.624 1.76802 66.1331 1.62502 66.2751 1.76802Z" fill="#111111" stroke="#EEEEEE" stroke-width="3.408"/>
<path d="M431.068 290.884C498.618 290.884 535.888 315.341 535.888 325.823C535.888 336.305 498.618 360.763 431.068 360.763C363.518 360.763 326.249 336.305 326.249 325.823C326.249 315.341 363.518 290.884 431.068 290.884ZM431.068 267.59C360.024 267.59 302.955 293.213 302.955 325.823C302.955 358.434 359.705 377.37 430.75 377.37C501.794 377.37 559.181 358.434 559.181 325.823C559.181 293.213 502.112 267.59 431.068 267.59Z" fill="white"/>
<path d="M384.482 337.47C397.346 337.47 407.775 332.256 407.775 325.823C407.775 319.391 397.346 314.177 384.482 314.177C371.617 314.177 361.188 319.391 361.188 325.823C361.188 332.256 371.617 337.47 384.482 337.47Z" fill="white"/>
<path d="M388.634 475.153C388.634 486.726 394.42 504.086 413.709 513.73C409.851 506.015 405.993 490.584 405.993 480.94C405.993 455.865 423.353 415.359 425.282 401.858C411.78 428.861 388.634 455.865 388.634 475.153V475.153Z" fill="white"/>
<path d="M547.534 431.808C554.522 424.82 559.181 416.667 559.181 407.35C559.181 398.032 554.522 391.044 547.534 382.892C547.534 358.434 547.534 351.446 547.534 349.117C547.534 349.117 497.454 375.904 428.739 375.904C360.024 375.904 314.602 349.117 314.602 349.117C314.602 351.446 314.602 359.599 314.602 382.892C307.614 389.88 302.955 398.032 302.955 407.35C302.955 416.667 307.614 423.655 314.602 431.808C314.602 448.113 314.602 452.771 314.602 465.583C307.614 472.571 302.955 480.723 302.955 490.041C302.955 522.651 360.024 548.274 431.068 548.274C502.112 548.274 559.181 522.651 559.181 490.041C559.181 481.888 554.522 473.735 547.534 465.583C547.534 452.771 547.534 448.113 547.534 431.808ZM431.068 531.089C398.278 531.089 373.203 507.943 373.203 477.082C373.203 440.434 431.068 376.783 431.068 376.783C431.068 376.783 488.933 442.363 488.933 477.082C488.933 507.943 463.858 531.089 431.068 531.089V531.089Z" fill="white"/>
<path d="M161.475 57.8922L47.9465 285.356H162.7L66.3817 495.144L285.737 219.083H161.766L259.601 57.8922H161.475Z" fill="white"/>
</g>
<defs>
<clipPath id="clip0">
<path d="M0 0H580V580H0V0Z" fill="white"/>
</clipPath>
</defs>
</svg>
