<svg width="48" height="48" viewBox="0 0 48 48" fill="none" xmlns="http://www.w3.org/2000/svg">
<path fill-rule="evenodd" clip-rule="evenodd" d="M19.9999 29.687L15.9999 34.5491V44.0006H39.9999V32.0006H19.9999V29.687Z" fill="white"/>
<path d="M15.9998 28.2525L19.8661 23.553L19.9999 23.5308L19.9997 29.6865L15.9998 34.5485L15.9998 28.2525Z" fill="white" fill-opacity="0.4"/>
<path fill-rule="evenodd" clip-rule="evenodd" d="M13.4019 20.3568L8.17883 34.5571C8.07163 34.8485 8.09942 35.1725 8.25469 35.4415C8.61998 36.0742 9.50477 36.1472 9.96892 35.583L19.8661 23.5529L35.233 20.9968C35.9537 20.8769 36.3328 20.0741 35.9675 19.4414C35.8122 19.1725 35.5455 18.9864 35.2395 18.9336L20.3302 16.3568L10.3831 4.7594C10.0056 4.31928 9.3682 4.21044 8.86605 4.50035C8.3639 4.79027 8.13945 5.39672 8.33186 5.94369L13.4019 20.3568ZM18 22.0004C19.1046 22.0004 20 21.1049 20 20.0004C20 18.8958 19.1046 18.0004 18 18.0004C16.8955 18.0004 16 18.8958 16 20.0004C16 21.1049 16.8955 22.0004 18 22.0004Z" fill="white"/>
<path d="M20 20C20 21.1046 19.1046 22 18 22C16.8954 22 16 21.1046 16 20C16 18.8954 16.8954 18 18 18C19.1046 18 20 18.8954 20 20Z" fill="white" fill-opacity="0.4"/>
</svg>
