<?xml version="1.0" encoding="UTF-8" standalone="no"?>
<!-- Created with Inkscape (http://www.inkscape.org/) -->

<svg
   xmlns:dc="http://purl.org/dc/elements/1.1/"
   xmlns:cc="http://creativecommons.org/ns#"
   xmlns:rdf="http://www.w3.org/1999/02/22-rdf-syntax-ns#"
   xmlns:svg="http://www.w3.org/2000/svg"
   xmlns="http://www.w3.org/2000/svg"
   xmlns:sodipodi="http://sodipodi.sourceforge.net/DTD/sodipodi-0.dtd"
   xmlns:inkscape="http://www.inkscape.org/namespaces/inkscape"
   version="1.0"
   width="580"
   height="580"
   id="svg2"
   sodipodi:version="0.32"
   inkscape:version="0.48.4 r9939"
   sodipodi:docname="station_geothermal.svg"
   inkscape:output_extension="org.inkscape.output.svg.inkscape">
  <metadata
     id="metadata10">
    <rdf:RDF>
      <cc:Work
         rdf:about="">
        <dc:format>image/svg+xml</dc:format>
        <dc:type
           rdf:resource="http://purl.org/dc/dcmitype/StillImage" />
        <cc:license
           rdf:resource="http://web.resource.org/cc/PublicDomain" />
        <dc:language>en</dc:language>
        <dc:title />
      </cc:Work>
    </rdf:RDF>
  </metadata>
  <sodipodi:namedview
     inkscape:window-height="1004"
     inkscape:window-width="1920"
     inkscape:pageshadow="2"
     inkscape:pageopacity="0.0"
     guidetolerance="10.0"
     gridtolerance="10.0"
     objecttolerance="10.0"
     borderopacity="1.0"
     bordercolor="#666666"
     pagecolor="#ffffff"
     id="base"
     showgrid="false"
     inkscape:zoom="0.70710678"
     inkscape:cx="140.61011"
     inkscape:cy="388.69783"
     inkscape:window-x="1680"
     inkscape:window-y="0"
     inkscape:current-layer="svg2"
     inkscape:window-maximized="1" />
  <defs
     id="defs4">
    <inkscape:perspective
       sodipodi:type="inkscape:persp3d"
       inkscape:vp_x="0 : 290 : 1"
       inkscape:vp_y="0 : 1000 : 0"
       inkscape:vp_z="580 : 290 : 1"
       inkscape:persp3d-origin="290 : 193.33333 : 1"
       id="perspective12" />
    <style
       type="text/css"
       id="style6">
   
    .fil0 {fill:#EF7900}
   
  </style>
    <inkscape:perspective
       id="perspective6807"
       inkscape:persp3d-origin="29.116032 : 19.410688 : 1"
       inkscape:vp_z="58.232063 : 29.116032 : 1"
       inkscape:vp_y="0 : 1000 : 0"
       inkscape:vp_x="0 : 29.116032 : 1"
       sodipodi:type="inkscape:persp3d" />
    <inkscape:perspective
       id="perspective6954"
       inkscape:persp3d-origin="290 : 193.33333 : 1"
       inkscape:vp_z="580 : 290 : 1"
       inkscape:vp_y="0 : 1000 : 0"
       inkscape:vp_x="0 : 290 : 1"
       sodipodi:type="inkscape:persp3d" />
    <inkscape:perspective
       id="perspective2541"
       inkscape:persp3d-origin="240 : 160 : 1"
       inkscape:vp_z="480 : 240 : 1"
       inkscape:vp_y="0 : 1000 : 0"
       inkscape:vp_x="0 : 240 : 1"
       sodipodi:type="inkscape:persp3d" />
    <inkscape:perspective
       id="perspective2750"
       inkscape:persp3d-origin="215 : 143.33333 : 1"
       inkscape:vp_z="430 : 215 : 1"
       inkscape:vp_y="0 : 1000 : 0"
       inkscape:vp_x="0 : 215 : 1"
       sodipodi:type="inkscape:persp3d" />
    <inkscape:perspective
       id="perspective3730"
       inkscape:persp3d-origin="88.929146 : 101.19778 : 1"
       inkscape:vp_z="177.85829 : 151.79668 : 1"
       inkscape:vp_y="0 : 1000 : 0"
       inkscape:vp_x="0 : 151.79668 : 1"
       sodipodi:type="inkscape:persp3d" />
  </defs>
  <g
     id="g1327">
    <path
       d="M 66.275,1.768 C 24.94,1.768 1.704,23.139 1.704,66.804 L 1.704,516.927 C 1.704,557.771 22.598,579.156 63.896,579.156 L 515.92,579.156 C 557.227,579.156 578.149,558.84 578.149,516.927 L 578.149,66.804 C 578.149,24.203 557.227,1.768 514.627,1.768 C 514.624,1.768 66.133,1.625 66.275,1.768 z"
       style="fill:#111111;stroke:#eeeeee;stroke-width:3.40799999"
       id="path1329" />
  </g>
  <path
     style="fill:#ffffff;fill-opacity:1;fill-rule:nonzero;stroke:none"
     d="M 207.79489,15.283414 132.67864,204.56334 263.87879,215.38353 97.087528,438.01097 150.4986,256.04366 21.506246,244.04893 z"
     id="rect3030"
     inkscape:connector-curvature="0"
     sodipodi:nodetypes="ccccccc" />
  <g
     transform="matrix(1.3565744,0,0,1.3565744,-157.97898,-199.44723)"
     style="font-size:40px;font-style:normal;font-weight:normal;line-height:125%;letter-spacing:0px;word-spacing:0px;fill:#ffffff;fill-opacity:1;stroke:none;font-family:Sans"
     id="flowRoot3003">
    <path
       d="m 400.91406,399.10435 0,21.875 -18.75,0 0,41.79687 c -4e-5,8.46358 0.16272,13.41149 0.48828,14.84375 0.39058,1.36722 1.20439,2.50654 2.44141,3.41797 1.30204,0.91148 2.86453,1.36721 4.6875,1.36719 2.53901,2e-5 6.21739,-0.87888 11.03516,-2.63672 l 2.34375,21.28906 c -6.38027,2.73438 -13.60683,4.10156 -21.67969,4.10157 -4.94796,-1e-5 -9.40759,-0.81381 -13.37891,-2.44141 -3.97138,-1.69271 -6.90106,-3.84114 -8.78906,-6.44531 -1.82294,-2.66926 -3.09247,-6.24999 -3.80859,-10.74219 -0.58596,-3.19008 -0.87893,-9.63539 -0.87891,-19.33594 l 0,-45.21484 -12.59766,0 0,-21.875 12.59766,0 0,-20.60547 27.53906,-16.01562 0,36.62109 18.75,0"
       style="font-size:200px;font-variant:normal;font-weight:bold;font-stretch:normal;font-family:Arial;-inkscape-font-specification:Arial Bold"
       id="path3031"
       inkscape:connector-curvature="0" />
    <path
       d="m 414.19531,388.36216 c -1e-5,-8.65873 3.02733,-16.01549 9.08203,-22.07031 6.11977,-6.05455 13.47654,-9.08189 22.07032,-9.08203 8.5937,1.4e-4 15.91791,3.06004 21.97265,9.17969 6.11973,6.05481 9.17962,13.37902 9.17969,21.97265 -7e-5,8.59386 -3.05996,15.95062 -9.17969,22.07031 -6.05474,6.05478 -13.37895,9.08212 -21.97265,9.08204 -8.59378,8e-5 -15.95055,-3.02726 -22.07032,-9.08204 -6.0547,-6.11969 -9.08204,-13.47645 -9.08203,-22.07031 m 16.21094,0 c -2e-5,4.10167 1.46482,7.6173 4.39453,10.54688 2.92966,2.92979 6.44528,4.39463 10.54688,4.39453 4.10152,1e-4 7.61714,-1.46474 10.54687,-4.39453 2.92964,-2.92958 4.39448,-6.44521 4.39453,-10.54688 -5e-5,-4.10144 -1.46489,-7.61706 -4.39453,-10.54687 -2.92973,-2.92956 -6.44535,-4.39441 -10.54687,-4.39453 -4.1016,1.2e-4 -7.61722,1.46497 -10.54688,4.39453 -2.92971,2.92981 -4.39455,6.44543 -4.39453,10.54687"
       style="font-size:200px;font-variant:normal;font-weight:bold;font-stretch:normal;font-family:Arial;-inkscape-font-specification:Arial Bold"
       id="path3033"
       inkscape:connector-curvature="0" />
  </g>
  <path
     style="fill:#ffffff;fill-opacity:1;opacity:0.764"
     d="M 383.34375 244.3125 C 382.85329 244.34241 382.05383 244.44639 381.5 244.8125 C 380.82415 245.25056 380.625 245.78723 380.625 246 C 380.44977 246.15019 380.30038 246.23111 380 246.34375 C 379.73717 246.4564 379.41909 246.61225 379.15625 246.8125 C 378.69317 247.10037 378.35044 247.44954 378 247.8125 C 377.63704 248.20049 377.25693 248.65011 376.71875 248.5625 C 376.39334 248.41231 376.03164 248.41232 375.71875 248.5625 C 374.71748 249.00056 374.30014 249.59304 374.1875 250.15625 C 373.73693 250.58179 373.15019 251.29911 373 252 C 372.78724 252.12515 372.51299 252.28093 372.125 252.53125 L 372 250.96875 C 371.86233 250.34296 371.08816 249.84367 370.5625 249.90625 C 370.03683 249.95635 369.56306 250.18049 369.125 250.78125 L 367.0625 252.125 C 366.96237 252.1876 366.74386 252.39365 366.65625 252.46875 L 364.5625 254.75 C 364.24961 255.11296 364.12477 255.82446 364.3125 256.25 C 364.325 256.2875 364.3624 256.31875 364.375 256.34375 C 364.3625 256.36875 364.3375 256.40625 364.3125 256.40625 C 364.0747 256.06832 363.66405 255.93159 362.4375 255.65625 C 362.4375 255.65625 362.4875 255.65 362.5 255.625 C 362.5125 255.625 362.75 255.29377 362.75 255.28125 L 363.625 253.6875 C 363.83777 253.34957 363.89399 252.78173 363.71875 252.40625 C 363.51849 251.95568 362.93813 251.67507 362.4375 251.625 C 361.8868 251.6626 361.84628 251.69821 359.84375 253.125 C 359.76865 253.1751 359.56258 253.40617 359.5 253.46875 L 358.5 255.1875 C 358.37484 255.1124 358.24394 255.05629 358.09375 255.03125 C 358.24394 254.78094 358.35627 254.4878 358.34375 254.25 C 358.29365 253.6117 357.90728 253.26953 357.09375 252.65625 C 356.84344 252.50606 356.53164 252.45616 356.21875 252.53125 C 355.98095 252.55625 355.86375 252.59942 354.875 253.0625 L 354.6875 252.96875 C 353.96158 252.61831 353.03787 253.1372 352.75 253.375 C 352.49969 253.6128 352.27527 253.83721 352.0625 254.0625 C 352.05 254.0249 352.04375 253.99378 352.03125 253.96875 C 351.79345 253.46812 351.21317 253.16869 350.6875 253.21875 L 346.625 253.625 C 346.5624 253.6375 346.33132 253.72496 346.28125 253.75 L 343.40625 254.90625 C 342.73039 255.19411 342.5884 255.42356 341.875 256.5625 C 341.875 256.575 341.84375 256.625 341.84375 256.625 C 341.70607 256.6125 341.59391 256.59375 341.46875 256.59375 L 339.15625 256.59375 C 339.04361 256.59375 338.94388 256.5999 338.84375 256.625 C 338.78115 256.6375 338.48756 256.73747 338.4375 256.75 L 333.625 258.71875 C 333.5499 258.75635 333.29385 258.91869 333.21875 258.96875 L 330.40625 260.78125 C 329.9682 261.09415 329.75016 261.38074 329.625 261.78125 C 329.49985 262.25685 329.71826 262.8121 330.09375 263.125 C 329.95607 263.25016 329.85012 263.38728 329.75 263.5625 L 329.4375 262.71875 C 329.32486 262.35579 329.04416 262.0939 328.71875 261.96875 C 328.66865 261.80604 328.58139 261.70017 328.46875 261.5625 C 328.16837 261.18702 327.64437 260.98725 327.15625 261.1875 L 326.65625 261.34375 L 326.34375 261.1875 C 326.16852 261.08738 325.65649 261.0625 325.46875 261.0625 L 322.5 261.5625 C 322.525 261.44986 322.55 261.33139 322.5625 261.21875 C 322.71269 260.64302 322.86225 259.99434 323.0625 259.53125 C 323.28779 258.96804 323.01318 258.28165 322.5 257.96875 C 322.2622 257.81856 322.00662 257.75621 321.71875 257.78125 C 320.71749 257.89389 319.37627 258.04361 318.375 258.15625 C 318.3625 258.16875 318.05628 258.28125 318.03125 258.28125 L 313.9375 259.90625 C 307.24154 264.52459 300.89488 269.68046 295.0625 275.25 C 294.9749 275.3376 294.85013 275.54353 294.75 275.71875 L 292 279.1875 C 291.74968 279.47537 291.68742 279.85579 291.75 280.21875 L 290.78125 281.125 L 290.34375 281.125 C 289.70544 281.15 289.72246 281.15242 286.78125 284.15625 C 286.63106 284.29392 286.40019 284.52455 286.25 284.875 C 286.02472 285.00015 285.72584 285.24929 285.0625 285.8125 L 284.5 286.5 C 284.17459 286.87548 283.85044 287.26825 283.5 287.65625 C 283.4499 287.73135 283.41256 287.85611 283.375 287.96875 C 283.23733 288.04385 283.10013 288.1561 283 288.28125 C 282.47434 288.90705 281.95686 289.53668 281.46875 290.1875 C 281.18088 290.57549 281.14971 291.10572 281.375 291.53125 L 280.96875 292.03125 C 280.89365 292.03125 280.53149 292.10613 280.34375 292.21875 C 279.98079 292.39397 279.97789 292.37774 277.6875 295.15625 C 277.6625 295.18125 277.46253 295.48119 277.4375 295.53125 L 277.1875 295.875 C 277.06234 296.08777 276.84438 296.57359 276.34375 297.6875 L 275.84375 298.75 C 275.53086 298.7876 275.2315 298.9434 275.03125 299.21875 L 274.0625 300.40625 C 263.37399 316.48908 256.06725 334.23217 252.3125 353.28125 L 251.90625 358.21875 L 252.125 364.625 L 251.25 371.4375 C 251.2375 371.61272 251.2624 371.76228 251.3125 371.9375 L 252 374.375 C 252.70089 376.8281 253.49275 379.62223 254.28125 381.8125 C 254.35635 381.96269 254.54361 382.23732 254.65625 382.375 L 257.71875 385.53125 C 258.09423 385.91924 258.71189 386.00032 259.1875 385.75 L 260.8125 384.90625 L 262.0625 387.96875 C 262.0625 387.99375 262.1875 388.25622 262.1875 388.28125 C 262.2501 388.40641 262.33737 388.50614 262.4375 388.59375 L 263.21875 389.84375 C 263.26885 389.94387 263.34989 390.03117 263.4375 390.09375 L 264.84375 391.59375 C 264.91885 391.64385 265.36241 392.01244 265.4375 392.0625 L 267.53125 393.28125 C 267.53125 393.33135 267.56865 393.40617 267.59375 393.46875 L 270.59375 402.5625 C 270.61875 402.6251 270.79369 402.88743 270.84375 402.9375 L 271.5625 403.78125 C 271.90043 404.19427 272.51188 404.35028 273 404.125 L 273.34375 403.96875 L 274.5625 405.375 L 274.5625 405.40625 C 274.6501 405.70663 274.84965 405.99354 275.125 406.15625 C 275.38783 406.31895 275.54353 406.39366 275.71875 406.46875 C 275.86894 406.53135 275.98111 406.59997 276.09375 406.625 L 277.71875 408.90625 C 278.03165 409.36933 278.66806 409.53779 279.21875 409.3125 L 280.9375 408.5625 C 281.20033 408.46237 281.40609 408.25032 281.53125 408 L 282.15625 409 C 282.64436 412.4043 283.26786 415.86443 283.96875 419.28125 L 283.53125 421.5625 L 282.84375 423.84375 L 281.84375 428.84375 C 281.81875 428.99394 281.81875 429.13106 281.84375 429.28125 C 281.84375 429.30625 281.9375 429.60618 281.9375 429.65625 C 282.25039 430.8077 282.59957 431.97984 282.9375 433.09375 L 283.03125 433.4375 C 283.09385 433.62524 283.20608 433.81856 283.34375 433.96875 C 283.44388 434.05635 283.55589 434.15593 283.84375 434.40625 L 283.9375 434.5 L 283.75 434.75 C 283.61232 435.00032 283.56242 435.28715 283.625 435.5625 C 283.6375 435.66263 283.73118 436.06864 283.78125 436.15625 L 286.28125 441.625 C 286.33135 441.72513 286.39365 441.86241 286.46875 441.9375 L 291.375 446.125 L 293.8125 449.78125 C 293.8501 449.85635 294.0562 450.07494 294.09375 450.125 C 294.20639 450.25016 294.3125 450.375 294.3125 450.375 C 298.04222 455.24366 303.39876 461.73662 304.375 462.4375 L 306.375 463.5 C 306.31903 463.18425 306.23995 462.87973 306.1875 462.5625 L 306.125 462.5625 C 306.1132 462.49778 306.10595 462.40855 306.09375 462.34375 C 306.07995 462.25798 306.0762 462.17965 306.0625 462.09375 L 306.09375 462.09375 C 304.76824 454.58985 304.65623 446.24436 304.65625 432.96875 L 304.65625 397.75 L 301.3125 396.90625 L 298.40625 393.40625 C 298.29361 393.26857 298.1627 393.15633 298 393.09375 L 297.65625 392.90625 C 297.19317 392.65593 296.63799 392.74952 296.25 393.125 L 295.375 394 L 294.59375 393.65625 C 294.25583 393.456 293.88161 393.26897 293.59375 393.09375 C 293.21827 392.88098 292.76299 392.88098 292.375 393.09375 L 286.75 396.25 C 286.63736 396.3126 286.35634 396.55612 286.28125 396.65625 C 286.18112 396.76889 286.09383 396.90609 286.03125 397.03125 L 284.25 401.15625 L 282.59375 400 C 282.44356 399.88736 282.26276 399.80629 282.0625 399.78125 L 281.71875 399.75 L 281.5625 399.75 L 281.375 399.75 L 277.90625 400.34375 L 276.71875 398.1875 L 277.0625 387.59375 C 277.0875 387.33092 277.09375 387.01905 277.09375 386.78125 C 277.09375 386.55597 277.03762 386.34399 276.9375 386.15625 C 276.33674 385.14247 275.36973 384.01992 274.59375 383.09375 L 274.25 382.6875 C 274.1749 382.58738 273.83139 382.35635 273.71875 382.28125 C 273.59359 382.20615 273.46269 382.11878 273.3125 382.09375 L 270.40625 381.5 L 270.40625 381.46875 L 270.4375 378.90625 L 273.90625 369.96875 C 274.01889 370.06888 274.17482 370.14365 274.3125 370.21875 L 274.0625 370.78125 C 273.91231 371.25685 273.93096 371.42325 274.15625 372.8125 C 274.3565 373.40075 274.5869 373.6309 275.0625 373.90625 C 275.36288 374.08147 275.76834 374.11265 276.09375 374 C 276.18135 373.9624 276.36863 373.86256 276.46875 373.8125 C 276.31856 375.25182 276.88617 376.68655 277.9375 377.4375 C 278.43813 377.77543 279.00551 377.96875 279.59375 377.96875 C 281.2959 377.96875 282.74968 376.48372 283 374.53125 C 283.0751 373.86791 282.9815 373.21324 282.78125 372.625 L 283.40625 373.21875 C 283.39375 373.48158 283.4 373.71844 283.375 373.96875 L 283.34375 375.03125 C 283.41885 375.69458 283.77424 376.1934 284.375 376.46875 C 284.47512 376.51885 284.58738 376.54997 284.6875 376.5625 C 284.81266 376.5875 285.04982 376.60625 285.1875 376.59375 L 288.15625 376.15625 A 18.440932 18.440932 0 0 1 287.5625 371.625 L 287.5625 367.46875 C 287.33833 367.31768 287.12938 367.18453 286.90625 367.03125 C 284.8912 365.66703 282.87713 364.27032 281.1875 363.03125 C 281.01228 362.90609 280.49402 362.79376 280.28125 362.78125 C 280.13106 362.76875 280.01889 362.775 279.90625 362.8125 L 276.375 363.5625 C 276.2874 363.5875 276.10634 363.60622 276.03125 363.65625 C 275.38043 363.89405 275.37091 363.90764 273.65625 367.75 C 273.46851 367.57478 273.24402 367.45009 273.03125 367.375 C 272.84351 367.3249 272.68773 367.2875 272.5 367.3125 L 266.84375 368.15625 C 266.35563 368.21885 265.96269 368.55565 265.8125 369.03125 L 264.5625 373.75 L 262.6875 374.0625 L 261.15625 369.75 L 262.71875 361.46875 L 264.125 357.25 L 265.375 355.25 C 266.77677 353.05973 268.30454 350.665 269.65625 348.6875 L 271.59375 348.6875 L 274.34375 351.3125 C 274.73174 351.70049 275.3369 351.77535 275.8125 351.5 C 276.93892 350.8617 277.37461 349.59517 277.6875 348.46875 L 281.1875 349.65625 L 280.75 359.59375 C 280.725 360.08187 281.02448 360.53723 281.4375 360.75 C 282.48883 361.30069 283.21182 361.28125 283.75 361.28125 C 284.05038 361.28125 284.38098 361.18152 284.59375 360.96875 L 285.09375 360.53125 C 285.10625 360.65641 285.125 360.79368 285.125 360.84375 L 285.6875 362.40625 C 285.81266 362.84431 286.11114 363.37476 287.1875 363.5625 L 287.5625 363.5625 L 287.5625 357.53125 L 287.15625 357.53125 L 287.5625 356.15625 L 287.5625 341.96875 A 18.440932 18.440932 0 0 1 304.65625 323.5625 L 304.65625 314.03125 A 18.440932 18.440932 0 0 1 313.8125 298.0625 L 325.09375 291.5 L 323.5625 289.0625 L 322.625 285.875 C 322.5374 285.51204 322.23796 285.23143 321.875 285.09375 L 322 285 C 322.26283 284.78724 322.44372 284.46293 322.46875 284.125 L 322.5 283.5625 L 326.53125 280.625 C 327.88296 280.09934 329.46677 279.46954 331.03125 278.84375 L 334.5625 277.46875 C 334.72521 277.40615 334.87484 277.3314 335 277.21875 C 335.0751 277.11863 335.16239 277.0126 335.25 276.9375 C 335.4878 276.76228 335.65617 276.53786 335.71875 276.25 L 337.78125 276.25 L 337.71875 276.625 C 337.63115 277.23827 338.0055 277.83729 338.59375 278 C 339.39476 278.25032 339.95568 278.25 340.40625 278.25 C 340.55644 278.25 340.90609 278.17508 341.03125 278.125 L 341.875 277.8125 L 342.09375 277.875 C 341.23016 278.72608 340.44467 279.75503 339.71875 280.71875 C 339.23064 281.35705 338.77558 281.95561 338.3125 282.46875 L 335.75 283.4375 C 335.48717 283.53763 335.24394 283.71222 335.09375 283.9375 L 333.40625 286.65625 L 349.09375 277.5625 L 348.125 277.03125 C 348.58857 277.25531 348.95224 277.26838 349.75 277.15625 L 351.15625 276.34375 A 18.440932 18.440932 0 0 1 359.90625 273.8125 A 18.440932 18.440932 0 0 1 368.1875 275.53125 C 368.98007 275.11565 369.52475 274.83915 371.15625 273.96875 C 371.24385 273.94375 371.38743 273.83131 371.4375 273.78125 C 371.68781 273.56848 371.96246 273.14413 372 272.84375 C 372.10013 272.23048 372.10975 272.16053 369.34375 268.78125 L 370.6875 267.25 C 371.15058 266.41144 371.14713 266.41115 368.46875 262.53125 C 368.39365 262.40609 368.17514 262.23134 368.0625 262.15625 C 367.96237 262.08115 367.86886 262.00629 367.78125 261.96875 L 367.59375 261.90625 C 367.93168 261.66845 368.36138 261.21372 369.25 260.25 C 369.2876 260.2125 369.34996 260.17507 369.375 260.125 C 369.57525 260.2001 369.7685 260.20635 369.96875 260.15625 C 371.20782 259.89342 372.39239 259.05715 373.46875 258.34375 C 373.75662 258.14349 374.04966 257.97521 374.3125 257.8125 L 374.78125 257.8125 C 374.88138 257.8125 375.11241 257.775 375.1875 257.75 L 377.1875 257.28125 C 377.47537 257.13106 377.73717 256.90051 378 256.5 L 378.03125 256.78125 C 378.04375 256.99402 378.11863 257.19978 378.21875 257.375 C 378.21875 257.375 378.19375 257.39365 378.21875 257.40625 C 378.11863 257.68159 378.04384 257.94341 377.96875 258.21875 C 377.91865 258.34391 377.9375 258.59359 377.9375 258.71875 C 377.9375 258.84391 377.975 258.99362 378 259.09375 L 378.28125 259.9375 C 378.38138 260.21285 378.78093 260.58107 379.03125 260.71875 C 379.20647 260.81887 379.39972 260.875 379.625 260.875 C 380.80149 260.9 381.88641 260.9126 382.75 260.875 L 383.90625 261.09375 L 384.1875 261.84375 L 383.21875 264.46875 C 383.14365 264.669 383.1624 265.09351 383.1875 265.28125 C 383.225 265.54408 383.35603 265.79974 383.53125 266 C 383.40609 266.31289 383.41235 266.67459 383.5625 267 C 383.67515 267.25031 383.84981 267.54967 384 267.8125 L 384.21875 268.21875 C 384.29385 268.35643 384.36862 268.50613 384.46875 268.59375 L 382.6875 268.59375 C 382.04919 268.66885 382.05968 268.65962 379.34375 270.9375 C 379.19356 271.07517 378.99386 271.43726 378.90625 271.625 C 378.86875 271.7001 378.825 271.80613 378.8125 271.90625 L 378.375 274.40625 C 378.3374 274.61902 378.34365 274.81848 378.40625 275.03125 C 378.50638 275.29408 378.68105 275.5185 378.84375 275.71875 C 378.84375 275.76885 378.825 275.81242 378.8125 275.875 L 378.25 276.0625 C 378.13735 276.1126 378.02511 276.18743 377.9375 276.25 C 377.7748 276.37516 377.38146 276.61185 377.21875 277.125 C 377.15615 277.35028 377.1374 277.58722 377.1875 277.8125 L 378.625 283.34375 C 378.6876 283.60658 378.84351 283.82478 379.03125 284 C 379.28156 284.20026 379.46851 284.31864 379.65625 284.40625 C 379.81895 284.46885 379.99355 284.53125 380.15625 284.53125 L 381.46875 284.53125 L 382.25 285.90625 C 382.3376 286.05644 382.45607 286.16861 382.59375 286.28125 C 382.99425 286.58163 383.568 286.79393 384.15625 286.65625 L 386.71875 286.0625 C 386.88146 286.0249 386.99985 285.9501 387.125 285.875 L 389 284.0625 C 390.75222 282.23519 392.72299 280.15838 394.3125 278.46875 L 398.1875 277.09375 C 398.2626 277.08125 398.56242 276.91255 398.625 276.875 L 399.15625 276.46875 L 399.8125 276.6875 C 399.91263 276.7125 400.14987 276.75 400.25 276.75 C 400.90082 276.75 401.0536 276.60825 403.15625 275.03125 L 406.96875 272.90625 L 409.03125 273.28125 C 409.1439 273.30625 409.26236 273.30625 409.375 273.28125 L 410 273.1875 C 412.39052 272.31139 415.56571 271.12619 417.96875 270.1875 C 418.06887 270.175 418.19364 270.12506 418.28125 270.0625 C 418.76937 270.0625 419.16223 269.7818 419.375 269.34375 L 419.84375 268.40625 C 420.11909 267.84304 420.39972 267.21939 420.625 266.71875 C 420.7001 266.5185 420.75631 266.30031 420.71875 266.0625 C 420.68125 265.72458 420.66276 265.50653 420.4375 265.28125 C 420.71285 265.09351 420.93742 264.78794 421 264.4375 L 421.625 260.34375 C 421.65 260.13098 421.63137 259.88153 421.53125 259.65625 C 421.68144 259.34335 421.66269 258.99418 421.5 258.65625 C 421.09949 257.81769 420.713 257.00095 420.3125 256.25 C 420.53778 256.1749 420.75606 255.97529 420.90625 255.75 L 421.4375 255.9375 C 421.85052 256.1002 422.32454 256.01912 422.6875 255.71875 L 423.75 254.8125 C 424.01283 254.58721 424.14374 254.27543 424.15625 253.9375 L 424.15625 253.8125 C 424.15625 253.54967 424.08768 253.2315 423.9375 253.03125 C 423.2241 252.01747 421.87634 251.70655 420.8125 251.46875 C 420.48709 251.38115 420.18814 251.34391 419.6875 251.21875 C 419.6374 251.21875 419.40633 251.1875 419.34375 251.1875 C 418.89318 251.1875 418.45678 251.28731 418.03125 251.4375 C 417.96865 251.1997 417.81274 250.95647 417.625 250.78125 C 417.36217 250.55597 417.19404 250.26921 416.96875 249.90625 C 416.70592 249.41814 416.33202 248.83186 415.71875 248.34375 C 414.66742 247.48015 413.26402 247.25024 412.0625 247.0625 C 409.94733 246.79967 407.76513 247.01847 405.6875 247.21875 C 404.89901 247.28135 404.11344 247.24375 403.375 247.21875 C 402.53644 247.16865 401.66963 247.14365 400.96875 247.21875 C 400.50566 247.25625 400.13791 247.49984 399.8125 247.625 C 399.49961 247.49984 398.81313 247.29361 398.3125 247.40625 C 396.87318 247.76921 395.46419 248.86744 394.125 249.90625 C 393.83713 250.14405 393.52535 250.36846 393.25 250.59375 C 393.225 250.54365 393.20628 250.51881 393.15625 250.46875 C 392.94348 250.08076 392.56306 249.85627 392.125 249.84375 C 390.97355 249.81875 390.71293 249.72553 390.375 249.3125 C 390.2999 249.18735 390.21883 249.02527 390.15625 248.8125 C 389.956 248.19923 389.5707 247.06912 388.03125 246.78125 C 387.98115 246.78125 387.66884 246.75 387.59375 246.75 C 387.18072 246.75 386.8129 246.84988 386.5 246.9375 L 386.46875 246.9375 C 386.49375 246.925 386.4874 246.9126 386.5 246.875 C 386.5125 246.29927 386.50874 244.93192 384.53125 244.40625 C 384.28094 244.34365 384.00039 244.3125 383.6875 244.3125 C 383.60928 244.3125 383.50724 244.30253 383.34375 244.3125 z M 464.03125 251.09375 C 463.63628 251.1721 463.34708 251.45889 463.1875 251.84375 C 462.96222 252.35689 463.12442 252.97457 463.5625 253.3125 C 463.90043 253.58785 464.29951 253.78723 464.6875 254 L 464.96875 254.1875 C 465.20655 254.35021 465.20212 254.3291 468.46875 256.03125 C 468.68152 256.14389 468.68584 256.1494 470 256.625 L 470 256.65625 C 470.11265 256.68125 470.22489 256.6875 470.3125 256.6875 C 470.43766 256.7376 470.52488 256.78116 470.625 256.84375 C 470.72513 256.91885 470.97481 257.02496 471.125 257.0625 L 471.1875 257.09375 L 473.3125 258.34375 C 473.3501 258.44387 473.4249 258.56864 473.5 258.65625 C 473.5501 258.70635 473.68742 258.83745 473.75 258.875 L 474.3125 259.34375 C 475.41389 260.19483 476.72992 261.19254 477.78125 262.15625 C 477.78125 262.15625 477.81875 262.20615 477.84375 262.21875 C 477.69356 262.35643 477.59383 262.51228 477.53125 262.6875 C 477.33099 263.17562 477.46826 263.72457 477.84375 264.0625 L 478.34375 264.5 C 478.16853 264.4249 478.01275 264.36886 477.8125 264.28125 L 475.21875 262.40625 C 475.15615 262.35615 475.08132 262.30008 475.03125 262.25 C 474.93113 261.96214 474.54551 261.45837 473.15625 259.78125 L 473.21875 259.59375 C 473.26885 259.44356 473.29375 259.28771 473.28125 259.125 C 473.24375 258.79959 472.8691 258.31903 472.59375 258.09375 C 472.25582 257.83092 472.27819 257.80771 469.75 256.65625 C 469.28691 256.51858 468.62539 256.64335 468.3125 256.96875 C 467.8369 256.91865 467.4941 257.09965 467.21875 257.375 C 466.80573 257.78802 466.75583 258.44938 467.09375 258.9375 C 467.81967 259.98882 468.7489 260.74276 469.625 261.53125 C 470.01299 261.86918 470.43081 262.2433 470.78125 262.59375 C 471.04408 262.86909 471.23071 263.01227 471.65625 263.1875 C 471.78141 263.88838 472.25582 264.44324 472.59375 264.84375 C 472.73142 264.99394 472.87476 265.1309 473.0625 265.40625 C 473.37539 265.81927 473.36221 265.82783 478.53125 268.53125 C 478.68144 268.58135 479.02479 268.65625 479.1875 268.65625 C 479.3502 268.65625 479.52479 268.59379 479.6875 268.53125 L 480.1875 268.28125 C 480.28763 268.35635 480.43726 268.46238 480.625 268.5625 C 480.39971 268.82534 480.28747 269.13704 480.3125 269.5 L 480.375 269.96875 L 477.96875 268.65625 C 477.44309 268.39341 476.79424 268.51818 476.40625 268.96875 C 476.20599 269.20655 476.14373 269.49338 476.15625 269.78125 C 475.6431 269.54345 475.11311 269.31904 474.625 269.09375 C 473.98669 268.83092 473.37579 268.55038 472.75 268.25 C 472.6749 268.225 472.41263 268.15003 472.3125 268.125 L 469.59375 267.65625 C 469.40601 267.63125 469.02527 267.67487 468.8125 267.75 C 468.7249 267.775 468.63759 267.82494 468.5625 267.875 L 467.03125 267.40625 L 465.28125 266.4375 C 465.20615 266.3999 464.85634 266.29377 464.78125 266.28125 L 462.34375 265.875 C 462.25615 265.8625 462.08761 265.8125 462 265.8125 L 460.3125 265.8125 C 460.08721 265.8125 459.71899 265.98111 459.53125 266.09375 C 459.28094 266.23143 459.11886 266.43719 459.03125 266.6875 L 458.75 267.40625 L 457.53125 267.6875 C 457.25591 267.7501 456.92522 268.03093 456.75 268.28125 C 456.64988 268.43144 456.5688 268.61225 456.53125 268.8125 L 456.09375 269.53125 C 455.91853 269.70648 455.83131 269.93718 455.78125 270.1875 L 455.15625 271 C 455.03109 271.16271 454.91255 271.50598 454.875 271.71875 C 454.85 271.88146 454.85 272.02479 454.875 272.1875 L 455.03125 272.9375 L 455 273.125 C 466.50457 275.06343 477.18084 280.51863 485.53125 288.90625 C 485.57295 288.94815 485.61465 288.98915 485.65625 289.03125 C 494.1132 297.45068 499.60473 308.23029 501.5 319.84375 C 501.60013 319.6435 501.67498 319.35666 501.6875 319.03125 L 501.5625 318.34375 C 501.73772 318.1435 501.87492 317.91908 501.9375 317.65625 C 502.0126 317.43097 502 317.10659 502 316.84375 L 502.125 315.1875 C 502.2001 315.31266 502.34359 315.40609 502.46875 315.53125 C 505.04701 317.87171 505.04919 317.875 505.6875 317.875 C 505.93782 317.875 506.081 317.84394 506.28125 317.71875 C 506.50654 317.61863 506.69356 317.48772 506.84375 317.3125 C 507.10658 316.94954 507.33099 316.63161 507.53125 316.34375 C 507.63137 316.44387 507.71859 316.53739 507.84375 316.625 L 511.90625 319.4375 L 513.625 320.75 L 511.8125 321.03125 C 510.0728 319.82973 509.96939 319.75 509.46875 319.75 C 509.31856 319.75 509.0939 319.82496 508.96875 319.875 C 508.1427 320.16286 507.16995 320.51204 506.21875 320.875 C 505.41774 321.17538 504.60092 321.48717 503.875 321.75 L 503.09375 321.6875 L 501.59375 320.03125 C 501.55615 319.96865 501.525 319.91885 501.5 319.84375 C 501.9858 322.82056 502.24997 325.84416 502.25 328.90625 C 502.24999 330.06801 502.19566 331.22333 502.125 332.375 L 503.1875 334.59375 C 502.78701 334.5646 502.37735 334.5554 501.96875 334.53125 C 501.81651 336.05981 501.58699 337.56055 501.3125 339.0625 C 502.07093 339.23114 503.04725 339.42122 504.53125 339.71875 L 504.59375 339.71875 L 504.71875 339.71875 C 506.1831 339.56856 506.13767 338.47144 506 336.34375 L 506.40625 336.75 C 506.70663 337.03786 507.13696 337.17515 507.5625 337.0625 L 510.03125 336.40625 C 510.20647 336.36865 510.34981 336.30014 510.5 336.1875 L 510.6875 336.28125 C 510.51228 336.49402 510.39381 336.73725 510.34375 336.9375 C 510.24362 337.52575 510.46812 338.19317 510.96875 338.65625 C 511.09391 338.76889 511.09138 338.75487 512.96875 339.84375 C 513.05635 339.89385 513.16239 339.94372 513.25 339.96875 L 513.40625 340 C 513.66908 340.0626 514.12468 340.0064 514.375 339.90625 C 514.57525 339.81865 514.71859 339.66892 514.84375 339.53125 L 515.5 338.71875 C 515.65019 339.2319 515.76857 339.7681 515.90625 340.28125 L 515.6875 345.25 L 512.4375 344.25 C 511.91184 344.09981 511.35037 344.31198 511.0625 344.75 L 510.1875 346.0625 L 505.5 344.25 C 505.34981 344.1999 505.18144 344.1187 505.03125 344.15625 C 504.2803 344.18125 503.65074 344.1875 503.0625 344.1875 L 502.6875 343.59375 C 502.48725 343.29337 502.16294 343.06258 501.8125 343 C 501.33719 342.92573 500.90954 342.88045 500.5 342.84375 C 498.00192 352.64193 492.89348 361.66906 485.59375 368.96875 C 474.98122 379.58134 460.6683 385.46889 445.65625 385.46875 C 437.00503 385.46883 428.59224 383.48665 420.96875 379.8125 L 421.28125 382.15625 L 417.53125 389.5625 C 417.28093 390.02558 417.36201 390.62453 417.75 391 L 419.3125 392.5625 C 419.3 393.30094 419.30635 394.04904 419.28125 394.8125 C 419.25625 394.93766 419.20615 395.09981 419.21875 395.25 L 419.28125 395.8125 C 419.28125 396.0503 419.3311 396.25599 419.46875 396.46875 L 420.65625 398.28125 L 422.4375 400.4375 L 426.3125 405.96875 C 426.41263 406.10643 426.5436 406.20615 426.65625 406.28125 L 428.96875 408.09375 L 430.8125 410.375 C 430.8626 410.4126 430.98118 410.5562 431.03125 410.59375 L 431.6875 411.125 C 431.7125 411.15 431.91247 411.31872 431.9375 411.34375 L 432.25 411.625 C 432.35013 411.7126 432.51858 411.76243 432.65625 411.8125 L 438.125 415 L 439.9375 416.5625 C 440.12523 416.71269 440.3247 416.81872 440.5625 416.84375 C 440.6251 416.85625 440.89366 416.875 440.96875 416.875 C 441.84486 416.875 442.76787 416.49418 443.46875 416.15625 L 447.53125 415.46875 L 453.875 415.46875 C 453.9251 415.46875 454.23119 415.4501 454.28125 415.4375 L 459.84375 414.84375 C 459.99394 414.86875 460.12484 414.86875 460.25 414.84375 L 461 414.6875 C 461.13768 414.6625 461.26235 414.63758 461.375 414.5625 L 463.6875 413.25 L 466.15625 413.21875 L 467.78125 412.875 L 469.09375 416.5625 C 469.294 417.08816 469.83682 417.46262 470.375 417.375 L 474.71875 417.03125 L 476.46875 419.46875 L 476.75 420.1875 L 473.375 427.3125 C 473.22481 427.62539 473.20604 427.99961 473.34375 428.3125 L 476.21875 435.59375 L 476.8125 437.1875 L 476.9375 438.65625 C 476.9375 438.68125 476.96875 438.95623 476.96875 438.96875 C 476.98125 439.15649 477.13114 439.47481 477.21875 439.625 C 477.28135 439.82525 477.37492 440.03101 477.4375 440.21875 C 477.5251 440.43151 477.60618 440.59965 477.65625 440.875 L 477.84375 441.8125 L 477.15625 444.09375 L 475.5625 452.6875 L 472.96875 455 L 471.53125 458.40625 L 470.78125 458.71875 C 470.68112 458.75635 470.31887 459.01865 470.21875 459.09375 C 470.04353 459.23142 469.91262 459.3935 469.8125 459.59375 C 469.14916 461.23332 468.53826 462.66065 467.9375 464.125 C 467.8874 464.25016 467.84375 464.62484 467.84375 464.75 C 467.81875 464.87516 467.85 464.99984 467.875 465.125 L 468.65625 468.3125 C 467.29202 473.38141 465.54551 479.12632 464.15625 483.03125 C 464.13125 483.09385 464.0625 483.28117 464.0625 483.34375 L 463.875 484.3125 L 462.78125 487.1875 C 462.28062 488.22631 462.08864 488.59783 461.1875 490.3125 L 459.9375 491.5 C 459.19907 492.32604 458.63815 493.48622 458.125 494.5 L 457.6875 495.3125 C 457.51228 495.61288 457.49985 495.97457 457.625 496.3125 C 457.75016 496.63791 457.9933 496.90609 458.34375 497.03125 C 459.10721 497.31911 459.6993 497.34375 460.25 497.34375 C 460.40019 497.34375 460.53731 497.3001 460.6875 497.25 C 461.15058 497.07478 461.69938 496.8066 462.1875 496.53125 L 462.5 496.3125 C 464.54008 495.92451 467.19709 495.40689 469.5 494.90625 L 473.625 493 C 473.7001 492.975 473.85619 492.91255 473.90625 492.875 L 480.4375 488.34375 C 480.4876 488.31875 480.52494 488.2563 480.5625 488.21875 L 480.75 488.09375 C 481.52599 487.56809 483.2119 486.4005 483.6875 486 L 486.96875 482.46875 L 488.34375 481.125 L 489.3125 480.5 L 490 480.5 C 490.1627 480.5 490.31856 480.42502 490.46875 480.375 C 491.15712 480.08713 491.73693 479.55684 492.1875 479.09375 L 496.09375 475.125 C 496.18135 475.0374 496.26243 474.95639 496.3125 474.84375 L 498.625 470.4375 L 499.03125 469.8125 L 499.28125 469.8125 C 499.46899 469.8125 499.6498 469.76256 499.8125 469.6875 C 500.48836 469.38713 501.02448 468.81935 501.4375 468.34375 L 502.21875 467.65625 L 502.34375 467.53125 C 504.08345 466.31721 506.0547 464.81368 507.28125 463.875 L 507.53125 463.875 C 507.75653 463.875 507.97473 463.81262 508.1875 463.6875 L 508.21875 463.6875 C 507.96843 463.98788 507.69412 464.34328 507.40625 464.71875 C 507.33115 464.79385 507.12508 465.08737 507.0625 465.1875 L 505.375 468.09375 L 502.0625 470.96875 C 501.81219 471.2441 501.83638 471.24249 497.78125 477.1875 C 497.46835 477.72568 497.43128 478.32406 497.40625 479.0625 C 497.36875 479.55061 497.61822 480.0122 498.03125 480.25 L 498.0625 480.28125 C 498.32533 480.43144 498.6246 480.47504 498.9375 480.4375 C 499.0126 480.4125 499.20616 480.3813 499.28125 480.34375 L 501.84375 479.21875 C 502.1191 479.08108 503.37766 477.9727 506.21875 474.84375 C 506.41901 474.99394 506.61854 475.07493 506.78125 475.125 C 506.94395 475.1751 507.09352 475.25 507.28125 475.25 C 507.34385 475.25 507.4249 475.24375 507.5 475.21875 C 508.12579 475.11862 508.59375 474.58761 508.59375 474.5 C 509.11942 473.91175 509.58068 473.31329 510.03125 472.6875 L 510.53125 472 C 510.71899 471.74968 511.18798 471.11343 510.8125 470.375 C 510.7374 470.21229 510.62515 470.08139 510.5 469.96875 C 511.32604 469.00503 512.24252 467.95774 513.21875 466.78125 C 513.13115 466.95647 513.0625 467.15593 513.0625 467.40625 C 513.0625 467.74418 513.31218 468.18097 513.5625 468.40625 C 513.6126 468.44385 513.76244 468.58745 513.8125 468.625 C 514.1254 468.87532 514.58076 468.95018 514.96875 468.8125 C 515.36926 468.66231 515.37901 468.64642 517.15625 466.53125 C 517.49418 466.05565 517.51842 465.88256 517.78125 464.84375 C 517.80625 464.74362 517.8125 464.58761 517.8125 464.5 C 517.8125 464.1871 517.6753 463.85028 517.4375 463.625 C 517.07454 463.22449 516.45686 463.1997 515.96875 463.4375 C 515.80604 463.53762 515.71285 463.56833 515.4375 463.90625 C 515.70033 463.49323 515.98717 463.10052 516.25 462.6875 C 516.3251 462.675 516.39365 462.65 516.46875 462.625 C 516.93183 462.47481 517.14326 462.28818 517.53125 461.75 L 521.71875 454.4375 C 521.90649 454.06203 521.90594 454.02063 522.15625 452.53125 C 522.24385 452.06816 522.00048 451.60036 521.625 451.3125 C 520.83651 450.7618 520.33179 450.86217 519.90625 451.125 C 519.706 451.25016 519.63894 451.32328 518.5 452.6875 C 518.71277 451.88649 518.26291 451.3565 517.9375 451.15625 C 517.83737 451.10615 517.73765 451.03755 517.625 451 C 517.23701 450.88736 516.81297 450.875 516.4375 450.875 L 516.09375 450.875 L 515.78125 450.875 L 516.125 450.15625 C 516.33777 449.75574 516.54974 449.32557 516.75 448.875 L 517.15625 448.0625 C 517.23135 447.8998 517.26873 447.71899 517.28125 447.53125 L 517.28125 446.90625 L 519.1875 441.6875 L 519.5 440.09375 L 521.125 437.40625 L 521.75 436.78125 C 521.86264 436.66861 521.98119 436.53141 522.03125 436.40625 C 522.56943 435.12964 522.86224 434.22584 523.0625 433.5625 L 524.65625 431.03125 L 525.59375 429.65625 C 525.80652 429.55612 526.03109 429.40648 526.15625 429.21875 L 530.6875 422.3125 L 531.8125 421.78125 C 532.07534 421.66861 532.31234 421.46285 532.4375 421.1875 L 535.3125 415.03125 C 535.3501 414.96865 535.39375 414.88759 535.40625 414.8125 C 536.70789 412.0465 538.11863 408.45057 538.21875 408 L 538.8125 405.375 C 539.46332 402.50887 540.17451 399.27182 540.5625 396.84375 C 540.66262 396.61847 540.67506 396.35029 540.625 396.125 L 540.40625 394.78125 C 540.33115 394.36823 540.04424 393.99394 539.65625 393.84375 C 539.26826 393.66853 538.81919 393.71843 538.46875 393.96875 L 536.625 395.3125 C 535.9867 395.76307 535.34454 396.2182 534.71875 396.65625 C 534.66865 396.53109 534.60013 396.40012 534.5 396.3125 L 534.375 396.21875 L 534.46875 395.375 C 534.46875 395.35 534.43125 395.21261 534.40625 395.125 C 534.53141 395.1 534.63114 395.03754 534.71875 395 C 534.79385 394.9624 534.93742 394.89381 535 394.84375 L 538.84375 391.78125 C 538.96891 391.66861 539.09989 391.46269 539.1875 391.3125 L 541.8125 386.625 C 541.9001 386.49984 541.95623 386.31896 541.96875 386.15625 C 542.03135 385.63059 542.08123 385.24418 542.09375 384.90625 C 542.34407 384.75606 542.49362 384.5566 542.59375 384.28125 L 543.90625 380.84375 C 543.93125 380.80615 543.9875 380.58132 544 380.53125 L 544.15625 378.90625 C 544.46915 375.85239 544.81864 372.40997 544.90625 369.46875 C 544.76858 369.39365 544.74378 369.27511 544.71875 369.1875 L 542.90625 362.5 C 543.0189 362.475 543.11862 362.42506 543.21875 362.375 C 543.6568 362.12468 543.91885 361.62563 543.84375 361.125 C 539.18787 328.19587 523.2744 297.49149 499.03125 274.5625 C 491.80962 267.92912 483.94795 261.97516 475.6875 256.90625 C 475.6249 256.85615 475.56258 256.78755 475.5 256.75 L 474.6875 256.28125 C 474.675 256.26875 474.66875 256.2626 474.65625 256.25 C 473.6675 255.64924 472.67625 255.03818 471.6875 254.5 C 471.56235 254.4249 471.42514 254.36879 471.3125 254.34375 C 471.11224 254.23111 470.91278 254.11264 470.6875 254 C 470.22441 253.73716 469.78141 253.4501 469.65625 253.375 C 469.63125 253.375 469.61875 253.35625 469.59375 253.34375 L 469.09375 253.0625 C 469.05625 253.05 468.98757 253.0125 468.9375 253 C 468.68718 252.84981 468.45655 252.73764 468.21875 252.625 L 468 252.53125 C 467.9374 252.45615 467.75008 252.35005 467.6875 252.3125 C 467.53731 252.21237 467.294 252.18128 467.09375 252.15625 C 467.00615 252.11875 466.90633 252.06879 466.84375 252.03125 L 466.03125 251.59375 C 465.9186 251.54365 465.81888 251.51253 465.71875 251.5 C 465.61862 251.475 465.52511 251.46875 465.4375 251.46875 L 465.40625 251.46875 L 464.9375 251.25 C 464.8749 251.225 464.8251 251.18125 464.75 251.15625 C 464.6749 251.13125 464.54385 251.10625 464.46875 251.09375 C 464.31856 251.07185 464.16291 251.06763 464.03125 251.09375 z M 445.15625 252.9375 L 443.5 253.28125 C 443.33729 253.31875 443.20018 253.38114 443.0625 253.46875 L 442.4375 253.75 C 442.3749 253.7125 442.33761 253.7125 442.25 253.6875 C 442.0873 253.6374 441.68773 253.55619 441.5 253.59375 C 441.13704 253.63135 440.87523 253.77479 440.6875 253.9375 L 438.875 253.9375 C 438.3994 253.9375 437.86902 254.26196 437.65625 254.6875 C 437.55612 254.86272 437.53125 255.04974 437.53125 255.25 C 437.54375 256.07604 437.7851 256.19843 439.6875 257.4375 C 439.7376 257.4625 439.93121 257.59997 439.96875 257.625 L 441.59375 258.40625 C 441.8691 258.56895 442.41215 258.64382 442.6875 258.59375 L 443.4375 259.71875 C 443.82549 260.20687 443.80799 260.22977 447.375 261.40625 L 447.53125 261.40625 L 447.59375 261.40625 C 447.71891 261.40625 447.8624 261.4 447.9375 261.375 C 448.31297 261.3124 448.64979 261.0692 448.8125 260.71875 C 449.01275 260.3558 449.07518 260.14421 448.9375 259.78125 L 450.0625 259.78125 L 450.25 259.78125 C 450.71308 259.70615 451.19356 259.35682 451.34375 258.90625 C 451.51897 258.40562 451.25678 257.65043 450.84375 257.3125 C 450.68105 257.19986 450.63918 257.16955 449.3125 256.53125 C 449.48772 256.00558 449.23237 255.61438 448.34375 254.125 C 448.28115 254.0499 448.18136 253.95009 448.09375 253.875 C 447.70576 253.52456 447.61462 253.4819 445.9375 252.96875 C 445.82485 252.94375 445.70639 252.9375 445.59375 252.9375 C 445.49362 252.9375 445.25638 252.925 445.15625 252.9375 z M 355.3125 268.5 C 355.80061 268.67523 356.34918 268.84973 357 269.0625 L 355.28125 270.53125 C 355.23115 270.58135 355.06258 270.71867 355 270.78125 L 354.125 271.9375 L 351.5 271.9375 L 355.3125 268.5 z M 350.3125 272.375 C 350.11225 272.50015 349.83793 272.66223 349.5 272.875 L 349.25 273.125 L 347.625 275 C 347.49984 275.22528 347.11201 275.84288 347.5 276.53125 C 347.60013 276.68144 347.74976 276.82486 347.9375 276.9375 L 346.21875 276.03125 C 346.13115 275.98115 346.03763 275.96255 345.9375 275.9375 L 346.3125 273.59375 C 346.3375 273.44356 346.3375 273.33769 346.3125 273.1875 L 350.3125 272.375 z M 417.75 272.9375 C 417.36201 272.9375 416.90327 273.03683 414.3125 273.5625 C 413.7618 273.73772 413.37516 274.10563 413.25 274.59375 C 413.12484 275.0318 413.34956 275.7496 413.6875 276.0625 C 414.13807 276.47552 414.71182 276.84335 415.25 277.15625 L 414.84375 278.125 C 414.73111 278.43789 414.72477 278.98087 414.875 279.28125 C 415.07839 279.69528 415.32312 279.89281 416.5625 280.3125 C 420.21373 278.13357 424.1196 276.40176 428.15625 275.09375 L 425.875 273.28125 C 425.62468 273.10603 425.14452 272.96253 424.53125 272.9375 L 419.625 273.8125 L 418.5 273.125 C 418.32478 273.0374 417.92522 272.9375 417.75 272.9375 z M 326.96875 290.40625 L 326.34375 290.625 C 326.03085 290.7001 325.75645 290.8809 325.59375 291.15625 C 325.57451 291.19045 325.55131 291.21711 325.53125 291.25 L 326.96875 290.40625 z M 445.65625 322.9375 C 443.51126 322.93756 443.14198 323.07684 441.5 324.71875 C 439.88431 326.3345 439.71874 326.76184 439.71875 328.90625 C 439.71874 331.05116 439.85822 331.42079 441.5 333.0625 C 443.14192 334.70449 443.51166 334.8438 445.65625 334.84375 C 447.80067 334.8438 448.22823 334.67805 449.84375 333.0625 C 451.4855 331.42079 451.62497 331.05132 451.625 328.90625 C 451.62497 326.76168 451.45941 326.3345 449.84375 324.71875 C 448.22817 323.10327 447.80108 322.93756 445.65625 322.9375 z M 283.125 376.46875 C 282.53676 376.59391 282.42019 376.72323 281.28125 378.125 C 280.99339 378.53803 280.88114 379.04313 280.96875 379.53125 C 281.04385 379.99434 281.28715 380.35603 281.5625 380.53125 C 282.17577 381.05691 283.01157 381.53699 283.75 381.9375 L 284.53125 382.40625 C 284.65641 382.49385 284.78731 382.53747 284.9375 382.5625 L 285.125 382.625 C 285.26268 382.65 285.41231 382.6375 285.5625 382.625 C 285.66263 382.6 285.94364 382.53755 286.03125 382.5 L 288.125 381.6875 C 288.22512 381.6499 288.33115 381.5751 288.40625 381.5 C 288.8443 381.1871 289.10619 380.73836 289.15625 380.0625 L 289.15625 379.21875 C 289.17122 379.2294 289.20265 379.23963 289.21875 379.25 A 18.440932 18.440932 0 0 1 288.59375 377.71875 C 288.40507 377.53875 288.21872 377.39843 288 377.34375 C 287.13641 377.08092 286.0263 376.89397 285 376.71875 L 283.6875 376.46875 L 283.6875 376.53125 C 283.47473 376.48115 283.25016 376.46875 283.125 376.46875 z M 529.125 379.28125 C 529.81337 380.8207 530.46803 382.32327 531.03125 383.6875 L 530.96875 386.78125 C 530.83108 386.51842 530.58784 386.31887 530.3125 386.21875 C 530.2624 386.19375 530.2438 386.16875 530.21875 386.15625 L 529.625 381.34375 L 529.5625 381 C 529.55 380.975 529.48127 380.74378 529.46875 380.71875 L 529.125 379.28125 z M 470 421.09375 C 469.9499 421.09375 469.75008 421.1125 469.6875 421.125 C 467.89773 421.37532 466.45671 422.53549 466.09375 424.125 C 465.80588 425.42664 466.29863 426.68033 467.375 427.40625 C 467.95072 427.80676 468.64908 428 469.375 428 C 471.1898 428.0125 472.83068 426.80834 473.28125 425.15625 C 473.5566 424.20505 473.38823 423.15098 472.8125 422.375 C 472.21174 421.56147 471.20152 421.09375 470 421.09375 z M 513.8125 455.75 C 514.10036 455.92522 514.44341 455.98118 514.71875 456.03125 C 514.81888 456.06875 514.9186 456.0625 515.03125 456.0625 L 515.0625 456.0625 L 515.25 456.0625 C 515.46277 456.025 515.58729 456.03137 515.75 455.90625 C 515.17427 456.6572 514.50724 457.46127 513.71875 458.4375 L 511.15625 460 L 513.8125 455.75 z M 341.71875 502 C 342.36863 502.65566 342.82491 503.13842 343.5625 503.875 C 343.6126 503.9376 343.78117 504.07494 343.84375 504.125 L 346.28125 505.875 C 346.61918 506.22545 347.00582 506.56832 347.34375 506.90625 L 347.84375 507.40625 C 347.93135 507.49385 348.03739 507.57494 348.125 507.625 C 348.60061 507.90035 349.19309 508.06234 349.71875 508.1875 C 349.79385 508.65059 349.98496 508.78573 352 510.1875 C 352.35045 510.45033 352.71828 510.59375 353.09375 510.59375 C 353.10625 510.61875 353.13115 510.64365 353.15625 510.65625 L 353.875 511.71875 C 354.02519 511.919 354.18096 512.05613 354.40625 512.15625 L 356.09375 512.875 L 356.375 513.375 C 356.47512 513.51267 356.5936 513.61862 356.71875 513.71875 C 357.40712 514.18184 358.274 514.51842 359.0625 514.78125 L 359.5625 514.96875 L 359.59375 514.96875 C 359.69388 515.34422 359.97465 515.75598 360.25 515.96875 C 360.41271 516.10643 360.58738 516.21867 360.6875 516.28125 C 360.91279 516.43144 361.08705 516.54991 361.4375 516.625 L 362.71875 517.28125 C 362.89397 517.39389 363.37477 517.53125 363.5625 517.53125 L 363.59375 517.53125 L 363.8125 517.53125 L 364.3125 517.8125 C 364.3626 517.8501 364.57494 517.94372 364.625 517.96875 L 365.28125 518.25 C 365.40641 518.52535 365.59336 518.76857 365.90625 518.90625 L 368.59375 520.125 C 368.90665 520.27519 369.28085 520.27519 369.59375 520.125 C 369.64385 520.1 369.68121 520.0875 369.71875 520.0625 C 369.78135 520.1126 369.86241 520.13744 369.9375 520.1875 C 370.06266 520.4253 370.26841 520.60611 370.53125 520.71875 L 372.9375 521.75 C 373.05014 521.8001 373.1561 521.83125 373.28125 521.84375 C 373.49402 521.85625 373.67482 521.875 373.8125 521.875 C 373.8876 521.9125 373.97489 521.96875 374.0625 521.96875 C 374.86352 522.14397 375.26826 522.125 375.65625 522.125 C 376.11934 522.125 376.53723 521.86926 376.75 521.46875 L 376.96875 521.4375 C 377.39428 521.3749 377.76228 521.11926 377.9375 520.71875 C 378.11273 520.31824 378.06281 519.84422 377.8125 519.46875 C 377.83449 519.47829 377.84873 519.48243 377.875 519.5 C 378.05022 519.5501 378.48103 519.55635 378.65625 519.53125 C 378.83147 519.49365 379.00607 519.41263 379.15625 519.3125 C 379.41909 519.11225 379.62492 518.80668 379.6875 518.46875 C 379.7376 518.10579 379.58155 517.6191 379.34375 517.34375 L 378.28125 516.09375 C 378.03093 515.83091 378.02048 515.8258 376.65625 515.1875 C 376.5311 515.1499 376.23142 515.09375 376.09375 515.09375 C 375.90601 515.05625 375.70647 515.14367 375.53125 515.21875 C 375.28094 515.29385 375.07526 515.29363 374.875 515.40625 C 374.36185 515.69411 374.081 516.4493 374.28125 517 C 374.34385 517.22528 374.48724 517.45576 374.6875 517.84375 L 372.8125 517.21875 C 372.7249 517.16865 372.52519 517.1313 372.375 517.09375 C 372.26236 517.06875 372.15011 517.04375 372.0625 517.03125 L 371.5 516.53125 C 371.4249 516.45615 371.26259 516.33132 371.1875 516.28125 L 369.65625 515.4375 L 368.09375 513.09375 C 368.06875 513.04365 367.86878 512.82502 367.84375 512.8125 C 367.53086 512.52464 367.23788 512.21293 366.9375 511.875 C 366.79982 511.71229 366.61902 511.60635 366.40625 511.53125 L 364.8125 511 C 364.8125 510.72465 364.68774 510.44404 364.5 510.21875 C 363.28597 508.79195 362.19514 507.45175 361.09375 506.0625 C 360.98111 505.92482 360.88768 505.81258 360.75 505.75 L 360.40625 505.5625 C 360.69238 505.20483 360.73346 504.69658 360.53125 504.28125 C 360.18786 504.28434 359.84426 504.28125 359.5 504.28125 C 353.41932 504.28124 347.45357 503.53187 341.71875 502 z "
     id="path5" />
  <circle
     transform="matrix(12.515823,0,0,12.515823,234.68833,219.3044)"
     style="fill:none;stroke:#ffffff;stroke-width:2.39696574;stroke-linecap:round;stroke-linejoin:round;stroke-miterlimit:10;stroke-opacity:1;stroke-dasharray:none"
     sodipodi:ry="12.035"
     sodipodi:rx="12.035"
     sodipodi:cy="13"
     sodipodi:cx="13"
     stroke-miterlimit="10"
     cx="13"
     cy="13"
     r="12.035"
     id="circle15" />
</svg>
