<?xml version="1.0" encoding="UTF-8" standalone="no"?>
<!-- Created with Inkscape (http://www.inkscape.org/) -->

<svg
   xmlns:dc="http://purl.org/dc/elements/1.1/"
   xmlns:cc="http://creativecommons.org/ns#"
   xmlns:rdf="http://www.w3.org/1999/02/22-rdf-syntax-ns#"
   xmlns:svg="http://www.w3.org/2000/svg"
   xmlns="http://www.w3.org/2000/svg"
   xmlns:sodipodi="http://sodipodi.sourceforge.net/DTD/sodipodi-0.dtd"
   xmlns:inkscape="http://www.inkscape.org/namespaces/inkscape"
   version="1.0"
   width="580"
   height="580"
   id="svg2"
   sodipodi:version="0.32"
   inkscape:version="0.48.4 r9939"
   sodipodi:docname="transformer_small.svg"
   inkscape:output_extension="org.inkscape.output.svg.inkscape">
  <metadata
     id="metadata10">
    <rdf:RDF>
      <cc:Work
         rdf:about="">
        <dc:format>image/svg+xml</dc:format>
        <dc:type
           rdf:resource="http://purl.org/dc/dcmitype/StillImage" />
        <cc:license
           rdf:resource="http://web.resource.org/cc/PublicDomain" />
        <dc:language>en</dc:language>
        <dc:title></dc:title>
      </cc:Work>
    </rdf:RDF>
  </metadata>
  <sodipodi:namedview
     inkscape:window-height="1004"
     inkscape:window-width="1920"
     inkscape:pageshadow="2"
     inkscape:pageopacity="0.0"
     guidetolerance="10.0"
     gridtolerance="10.0"
     objecttolerance="10.0"
     borderopacity="1.0"
     bordercolor="#666666"
     pagecolor="#ffffff"
     id="base"
     showgrid="false"
     inkscape:zoom="0.5"
     inkscape:cx="342.28662"
     inkscape:cy="266.23675"
     inkscape:window-x="1680"
     inkscape:window-y="0"
     inkscape:current-layer="svg2"
     inkscape:window-maximized="1"
     showguides="true"
     inkscape:guide-bbox="true" />
  <defs
     id="defs4">
    <inkscape:perspective
       sodipodi:type="inkscape:persp3d"
       inkscape:vp_x="0 : 290 : 1"
       inkscape:vp_y="0 : 1000 : 0"
       inkscape:vp_z="580 : 290 : 1"
       inkscape:persp3d-origin="290 : 193.33333 : 1"
       id="perspective12" />
    <style
       type="text/css"
       id="style6">
   
    .fil0 {fill:#EF7900}
   
  </style>
    <inkscape:perspective
       id="perspective6807"
       inkscape:persp3d-origin="29.116032 : 19.410688 : 1"
       inkscape:vp_z="58.232063 : 29.116032 : 1"
       inkscape:vp_y="0 : 1000 : 0"
       inkscape:vp_x="0 : 29.116032 : 1"
       sodipodi:type="inkscape:persp3d" />
    <inkscape:perspective
       id="perspective6954"
       inkscape:persp3d-origin="290 : 193.33333 : 1"
       inkscape:vp_z="580 : 290 : 1"
       inkscape:vp_y="0 : 1000 : 0"
       inkscape:vp_x="0 : 290 : 1"
       sodipodi:type="inkscape:persp3d" />
    <inkscape:perspective
       id="perspective2541"
       inkscape:persp3d-origin="240 : 160 : 1"
       inkscape:vp_z="480 : 240 : 1"
       inkscape:vp_y="0 : 1000 : 0"
       inkscape:vp_x="0 : 240 : 1"
       sodipodi:type="inkscape:persp3d" />
    <inkscape:perspective
       id="perspective2750"
       inkscape:persp3d-origin="215 : 143.33333 : 1"
       inkscape:vp_z="430 : 215 : 1"
       inkscape:vp_y="0 : 1000 : 0"
       inkscape:vp_x="0 : 215 : 1"
       sodipodi:type="inkscape:persp3d" />
    <inkscape:perspective
       id="perspective3730"
       inkscape:persp3d-origin="88.929146 : 101.19778 : 1"
       inkscape:vp_z="177.85829 : 151.79668 : 1"
       inkscape:vp_y="0 : 1000 : 0"
       inkscape:vp_x="0 : 151.79668 : 1"
       sodipodi:type="inkscape:persp3d" />
  </defs>
  <g
     id="g1327"
     transform="translate(-1.4142136,0)">
    <path
       d="M 66.275,1.768 C 24.94,1.768 1.704,23.139 1.704,66.804 l 0,450.123 c 0,40.844 20.894,62.229 62.192,62.229 l 452.024,0 c 41.307,0 62.229,-20.316 62.229,-62.229 l 0,-450.123 c 0,-42.601 -20.922,-65.036 -63.522,-65.036 -0.003,0 -448.494,-0.143 -448.352,0 z"
       style="fill:#111111;stroke:#eeeeee;stroke-width:3.40799999"
       id="path1329"
       inkscape:connector-curvature="0" />
  </g>
  <g
     id="g4601"
     transform="matrix(0.52848473,0,0,0.52848473,137.17507,138.45859)"
     style="stroke-width:51.089461;stroke-miterlimit:4;stroke-dasharray:none">
    <path
       sodipodi:nodetypes="cccssccccsscccccccssc"
       inkscape:connector-curvature="0"
       id="path4749"
       style="fill:none;stroke:#ffffff;stroke-width:51.089461;stroke-linecap:round;stroke-miterlimit:4;stroke-opacity:1;stroke-dasharray:none;stroke-dashoffset:0"
       d="m 77.604783,462.15313 c 0.404526,0.008 65.874017,0.0131 66.280537,0.0131 l 0,0 c 32.02063,0 57.97848,-25.95785 57.97848,-57.97847 0,-32.02063 -25.95785,-57.97848 -57.97848,-57.97848 -0.40652,0 -0.81208,0.005 -1.21661,0.0131 m 0,-0.94219 c 0.40453,0.008 0.81009,0.0131 1.21661,0.0131 l 0,0 c 32.02063,0 57.97848,-25.95786 57.97848,-57.97848 0,-32.02063 -25.95785,-57.97847 -57.97848,-57.97847 -0.40652,0 -0.81208,0.005 -1.21661,0.0131 m 0,-2.14708 c 0.40453,0.008 0.81009,0.0131 1.21661,0.0131 l 0,0 m 0.0469,-3.80854 c 0.40453,0.008 0.81009,0.0131 1.21661,0.0131 l 0,0 c 32.02063,0 57.97848,-25.95785 57.97848,-57.97847 0,-32.02061 -25.95785,-57.97847 -57.97848,-57.97847 -0.40652,0 -65.876014,0.005 -66.280541,0.0131" />
    <path
       sodipodi:nodetypes="cc"
       style="fill:none;stroke:#ffffff;stroke-width:51.089461;stroke-linecap:round;stroke-linejoin:miter;stroke-miterlimit:4;stroke-opacity:1;stroke-dasharray:none"
       d="m 287.68735,112.54777 0,348.39846"
       id="path4759"
       inkscape:connector-curvature="0" />
    <path
       sodipodi:nodetypes="cccssccccsscccccccssc"
       inkscape:connector-curvature="0"
       id="path4749-8"
       style="fill:none;stroke:#ffffff;stroke-width:51.089461;stroke-linecap:round;stroke-miterlimit:4;stroke-opacity:1;stroke-dasharray:none;stroke-dashoffset:0"
       d="m 500.74655,107.47647 c -0.40453,-0.008 -65.87402,-0.0131 -66.28054,-0.0131 l 0,0 c -32.02063,0 -57.97848,25.95786 -57.97848,57.97847 0,32.02065 25.95785,57.97848 57.97848,57.97848 0.40652,0 0.81207,-0.005 1.21661,-0.0131 m 0,0.9422 c -0.40454,-0.008 -0.81009,-0.0131 -1.21661,-0.0131 l 0,0 c -32.02063,0 -57.97848,25.95784 -57.97848,57.97848 0,32.02061 25.95785,57.97847 57.97848,57.97847 0.40652,0 0.81207,-0.005 1.21661,-0.0131 m 0,2.14707 c -0.40454,-0.008 -0.81009,-0.0131 -1.21661,-0.0131 l 0,0 m -0.0469,3.80853 c -0.40453,-0.008 -0.81009,-0.0131 -1.21661,-0.0131 l 0,0 c -32.02063,0 -57.97848,25.95787 -57.97848,57.97848 0,32.02062 25.95785,57.97847 57.97848,57.97847 0.40652,0 65.87602,-0.005 66.28054,-0.0131" />
  </g>
  <rect
     style="color:#000000;fill:none;stroke:#ffffff;stroke-width:38.36201096;stroke-miterlimit:4;stroke-opacity:1;stroke-dasharray:none;marker:none;visibility:visible;display:inline;overflow:visible;enable-background:accumulate"
     id="rect2994"
     width="326.77173"
     height="326.77179"
     x="126.61413"
     y="126.61411" />
</svg>
