<?xml version="1.0" encoding="UTF-8" standalone="no"?>
<svg
   xmlns:dc="http://purl.org/dc/elements/1.1/"
   xmlns:cc="http://creativecommons.org/ns#"
   xmlns:rdf="http://www.w3.org/1999/02/22-rdf-syntax-ns#"
   xmlns:svg="http://www.w3.org/2000/svg"
   xmlns="http://www.w3.org/2000/svg"
   xmlns:sodipodi="http://sodipodi.sourceforge.net/DTD/sodipodi-0.dtd"
   xmlns:inkscape="http://www.inkscape.org/namespaces/inkscape"
   width="16"
   height="16"
   id="svg2"
   version="1.1"
   inkscape:version="0.48.4 r9939"
   sodipodi:docname="piste_downhill.svg">
  <defs
     id="defs13">
    <inkscape:path-effect
       effect="gears"
       id="path-effect3774"
       is_visible="true"
       teeth="6"
       phi="-1.2" />
    <inkscape:path-effect
       effect="bend_path"
       id="path-effect3772"
       is_visible="false"
       bendpath="m 95.790098,316.51174 c 144.429032,-206.42506 223.313032,-11.7428 339.548092,0"
       prop_scale="1.19"
       scale_y_rel="false"
       vertical="false"
       bendpath-nodetypes="cc" />
  </defs>
  <sodipodi:namedview
     pagecolor="#ffffff"
     bordercolor="#666666"
     borderopacity="1"
     objecttolerance="10"
     gridtolerance="10"
     guidetolerance="10"
     inkscape:pageopacity="0"
     inkscape:pageshadow="2"
     inkscape:window-width="1920"
     inkscape:window-height="1004"
     id="namedview11"
     showgrid="false"
     inkscape:zoom="26.041378"
     inkscape:cx="6.5759905"
     inkscape:cy="9.8149107"
     inkscape:window-x="1680"
     inkscape:window-y="0"
     inkscape:window-maximized="1"
     inkscape:current-layer="svg2"
     inkscape:snap-object-midpoints="true"
     inkscape:snap-page="true" />
  <metadata
     id="metadata2975">image/svg+xmlen<rdf:RDF>
  <cc:Work
     rdf:about="">
    <dc:format>image/svg+xml</dc:format>
    <dc:type
       rdf:resource="http://purl.org/dc/dcmitype/StillImage" />
    <dc:title></dc:title>
  </cc:Work>
</rdf:RDF>
</metadata>
  <g
     transform="matrix(0.0275932,0,0,0.0275932,0,-0.02778605)"
     id="g1327">
    <path
       inkscape:connector-curvature="0"
       d="M 66.275,1.768 C 24.94,1.768 1.704,23.139 1.704,66.804 l 0,450.123 c 0,40.844 20.895,62.229 62.192,62.229 l 452.024,0 c 41.307,0 62.229,-20.315 62.229,-62.229 l 0,-450.123 c 0,-42.601 -20.922,-65.036 -63.521,-65.036 -0.004,0 -448.495,-0.143 -448.353,0 z"
       style="fill:#111111;stroke:#eeeeee;stroke-width:6.81599998"
       id="path1329" />
  </g>
  <path
     inkscape:connector-curvature="0"
     style="font-size:40px;font-style:normal;font-variant:normal;font-weight:normal;font-stretch:normal;text-align:start;line-height:125%;writing-mode:lr-tb;text-anchor:start;fill:#ffffff;fill-opacity:1;stroke:none;font-family:NPSPICT3;-inkscape-font-specification:NPSPICT3"
     d="m 13.254716,6.1155893 c 0.298779,5.6e-6 0.552281,-0.1041003 0.760505,-0.3123156 0.208197,-0.2082038 0.312303,-0.4617053 0.312317,-0.760506 -1.4e-5,-0.2991113 -0.104114,-0.5527759 -0.312317,-0.7609944 -0.208224,-0.2082022 -0.461726,-0.3123074 -0.760505,-0.3123156 -0.28838,8.2e-6 -0.539356,0.1041134 -0.75293,0.3123156 -0.213599,0.2082185 -0.320392,0.4618831 -0.32038,0.7609944 -1.2e-5,0.2988007 0.106781,0.5523022 0.32038,0.760506 0.213574,0.2082161 0.46455,0.3123212 0.75293,0.3123156 z m 1.434952,7.3568467 -0.643306,-0.489479 c -0.12807,0.213422 -0.370289,0.375487 -0.615958,0.375487 -0.117307,0 -0.232414,-0.03161 -0.339277,-0.09547 L 1.7851728,6.5855302 1.3103325,7.3924151 12.585463,14.02289 c 0.350774,0.197887 0.450258,0.174473 0.852212,0.185551 0.416408,-2e-6 1.03823,-0.383772 1.251993,-0.736005 z M 5.2146676,8.309618 c 0.064182,0.010747 0.1549304,-0.00522 0.2722374,-0.047898 L 8.5782913,7.252927 C 8.8770757,7.1460559 9.0425204,6.9805314 9.0746236,6.7563502 9.1067106,6.5321787 9.1173764,6.4093375 9.1066371,6.3878275 l -0.4643195,-1.6818127 1.8577634,1.1050788 0.22434,1.6177856 c 0.04267,0.2883707 0.165352,0.4912049 0.368034,0.6085022 l 2.41837,1.4095744 c 0.08536,0.053443 0.170724,0.080156 0.256108,0.080156 0.160295,3.3e-6 0.293809,-0.056126 0.400536,-0.1683761 C 14.274158,9.246486 14.32752,9.115745 14.327536,8.9665077 14.327522,8.7527615 14.231558,8.5926122 14.039659,8.48606 L 12.117378,7.3648513 11.909168,4.4821646 C 11.87722,4.097684 11.711861,3.8200705 11.41308,3.6493232 L 8.6423176,2.0154093 C 8.385875,1.8661866 8.1188514,1.7915692 7.8412452,1.7915586 7.3394479,1.7915692 6.9497462,1.994403 6.6721392,2.400061 6.5121465,2.6457524 6.4321526,2.9126129 6.4321591,3.2006442 c -6.5e-6,0.1280624 0.015949,0.2562804 0.047898,0.3846519 L 7.2327424,6.0354339 4.9746858,6.7563502 C 4.6543816,6.852477 4.4728903,7.0874066 4.4302102,7.4611375 4.3660118,7.9629321 4.6275003,8.2457589 5.2146676,8.309618 z"
     id="flowRoot3192"
     sodipodi:nodetypes="cccccccccccccccccccccccccccccccccccccccccccc" />
</svg>
