<?xml version="1.0" encoding="UTF-8" standalone="no"?>
<svg
   xmlns:dc="http://purl.org/dc/elements/1.1/"
   xmlns:cc="http://creativecommons.org/ns#"
   xmlns:rdf="http://www.w3.org/1999/02/22-rdf-syntax-ns#"
   xmlns:svg="http://www.w3.org/2000/svg"
   xmlns="http://www.w3.org/2000/svg"
   xmlns:sodipodi="http://sodipodi.sourceforge.net/DTD/sodipodi-0.dtd"
   xmlns:inkscape="http://www.inkscape.org/namespaces/inkscape"
   width="32"
   height="32"
   id="svg2"
   version="1.1"
   inkscape:version="0.48.4 r9939"
   sodipodi:docname="piste_nordic_brown.svg">
  <defs
     id="defs13">
    <inkscape:path-effect
       effect="gears"
       id="path-effect3774"
       is_visible="true"
       teeth="6"
       phi="-1.2" />
    <inkscape:path-effect
       effect="bend_path"
       id="path-effect3772"
       is_visible="false"
       bendpath="m 95.790098,316.51174 c 144.429032,-206.42506 223.313032,-11.7428 339.548092,0"
       prop_scale="1.19"
       scale_y_rel="false"
       vertical="false"
       bendpath-nodetypes="cc" />
  </defs>
  <sodipodi:namedview
     pagecolor="#ffffff"
     bordercolor="#666666"
     borderopacity="1"
     objecttolerance="10"
     gridtolerance="10"
     guidetolerance="10"
     inkscape:pageopacity="0"
     inkscape:pageshadow="2"
     inkscape:window-width="1680"
     inkscape:window-height="1021"
     id="namedview11"
     showgrid="false"
     inkscape:zoom="18.414035"
     inkscape:cx="15.068673"
     inkscape:cy="16.006565"
     inkscape:window-x="0"
     inkscape:window-y="0"
     inkscape:window-maximized="1"
     inkscape:current-layer="svg2"
     inkscape:snap-object-midpoints="true"
     inkscape:snap-page="true" />
  <metadata
     id="metadata2975">image/svg+xmlen<rdf:RDF>
  <cc:Work
     rdf:about="">
    <dc:format>image/svg+xml</dc:format>
    <dc:type
       rdf:resource="http://purl.org/dc/dcmitype/StillImage" />
    <dc:title></dc:title>
  </cc:Work>
</rdf:RDF>
</metadata>
  <path
     sodipodi:type="arc"
     style="color:#000000;fill:#ffd18c;fill-opacity:0.40784314;fill-rule:nonzero;stroke:#e1e1e1;stroke-width:0;stroke-linecap:butt;stroke-linejoin:miter;stroke-miterlimit:4;stroke-opacity:1;stroke-dasharray:none;stroke-dashoffset:0;marker:none;visibility:visible;display:inline;overflow:visible;enable-background:accumulate"
     id="path3772-5"
     sodipodi:cx="4.2358994"
     sodipodi:cy="6.6389098"
     sodipodi:rx="11.241426"
     sodipodi:ry="11.241426"
     d="m 15.461158,7.2416082 a 11.241426,11.241426 0 1 1 0.0012,-0.023332"
     sodipodi:start="0.053639769"
     sodipodi:end="6.3347467"
     sodipodi:open="true"
     transform="matrix(0.9446835,0,0,0.9446835,11.998426,9.7283314)" />
  <path
     sodipodi:type="arc"
     style="color:#000000;fill:#f48b36;fill-opacity:1;fill-rule:nonzero;stroke:#e1e1e1;stroke-width:0;stroke-linecap:butt;stroke-linejoin:miter;stroke-miterlimit:4;stroke-opacity:1;stroke-dasharray:none;stroke-dashoffset:0;marker:none;visibility:visible;display:inline;overflow:visible;enable-background:accumulate"
     id="path3772"
     sodipodi:cx="4.2358994"
     sodipodi:cy="6.6389098"
     sodipodi:rx="11.241426"
     sodipodi:ry="11.241426"
     d="m 15.461158,7.2416082 a 11.241426,11.241426 0 1 1 0.0012,-0.023332"
     sodipodi:start="0.053639769"
     sodipodi:end="6.3347467"
     sodipodi:open="true"
     transform="matrix(0.85912341,0,0,0.85912341,12.360848,10.296358)" />
  <path
     style="font-size:40px;font-style:normal;font-variant:normal;font-weight:normal;font-stretch:normal;text-align:start;line-height:125%;writing-mode:lr-tb;text-anchor:start;fill:#fff4df;fill-opacity:1;stroke:none;font-family:NPSPICT3;-inkscape-font-specification:NPSPICT3;color:#000000;fill-rule:nonzero;marker:none;visibility:visible;display:inline;overflow:visible;enable-background:accumulate"
     d="m 20.411083,8.9958648 c -0.276396,9.7e-6 -0.513324,0.094186 -0.705911,0.2867761 -0.192606,0.1926065 -0.286786,0.4292338 -0.286777,0.7059123 -9e-6,0.2763958 0.09418,0.5133238 0.286777,0.7059128 0.192587,0.192605 0.429515,0.286783 0.705911,0.286774 0.26673,9e-6 0.508332,-0.09417 0.705912,-0.286774 0.19756,-0.192589 0.286765,-0.429517 0.286777,-0.7059128 C 21.40376,9.7118747 21.314558,9.4752474 21.116995,9.2826409 20.919415,9.0900557 20.677813,8.9958745 20.411083,8.9958648 z m -3.617796,1.7206592 c -0.148297,10e-6 -0.288578,0.05771 -0.397076,0.176479 l -1.65448,1.919197 c -0.118455,0.09856 -0.176483,0.204672 -0.176478,0.352955 -5e-6,0.138352 0.05571,0.254253 0.154419,0.352956 0.0987,0.09871 0.214608,0.154423 0.352955,0.154418 0.147982,5e-6 0.266203,-0.05802 0.375016,-0.176478 l 1.544181,-1.786838 0.882389,0.02206 -3.397199,3.926632 -2.294213,-0.02207 c -0.187777,4e-6 -0.334858,0.07993 -0.463254,0.198538 -0.1284,0.118605 -0.19854,0.253725 -0.198538,0.441196 -2e-6,0.17783 0.07014,0.339832 0.198538,0.463252 0.128396,0.12343 0.285423,0.176484 0.463254,0.176481 l 2.669228,0 c 0.108802,3e-6 0.220219,-0.0024 0.308835,-0.02207 0.227255,-0.03949 0.374336,-0.09968 0.463257,-0.198537 l 1.323582,-1.478003 1.544184,1.478003 -0.617674,2.779526 c -0.01991,0.05937 -0.04412,0.09288 -0.04411,0.132359 -9e-6,0.177826 0.07014,0.334857 0.198537,0.463256 0.128389,0.128394 0.285418,0.198536 0.463255,0.198536 0.335753,0 0.538395,-0.161665 0.617673,-0.507374 l 0.750027,-3.375143 c 0.0889,-0.355653 0.05758,-0.626265 -0.110298,-0.794153 l -1.345645,-1.345641 1.455943,-1.698601 0.948569,0.948568 c 0.09885,0.09856 0.224548,0.154426 0.352955,0.15442 0.16787,6e-6 0.327366,-0.0726 0.485315,-0.220599 l 1.544181,-1.54418 c 0.07896,-0.09885 0.110285,-0.212439 0.110299,-0.330898 -1.4e-5,-0.147979 -0.05075,-0.276145 -0.15442,-0.375015 -0.103694,-0.09885 -0.214622,-0.132348 -0.352954,-0.13236 -0.138357,1.2e-5 -0.25194,0.03135 -0.330895,0.110298 l -1.279468,1.279466 -1.544182,-1.544183 c -0.118467,-0.118727 -0.263383,-0.176454 -0.4412,-0.176463 z m 6.5738,1.588302 -3.882513,7.875326 0.419135,0 3.838395,-7.698848 z m -12.50787,0.970628 0,0.397075 3.35308,0 0,-0.397075 z m -3.5402834,1.198932 -0.4404959,0.606151 7.5801973,5.275824 c 0.279541,0.182277 0.37933,0.164745 0.715198,0.189615 0.348769,0.01598 0.894797,-0.273591 1.099214,-0.565895 l -0.50079,-0.459373 c -0.122608,0.177187 -0.337124,0.324771 -0.542887,0.315347 -0.09825,-0.0046 -0.205654,-0.03885 -0.290558,-0.09744 z m 15.9599154,5.838123 c -7.76e-4,0.21547 -0.08976,0.442789 -0.264717,0.551494 -0.08354,0.0519 -0.183623,0.08848 -0.286776,0.08825 l -10.875451,0.02207 0,0.816208 10.831332,-0.04411 c 0.333624,-0.0079 0.392896,-0.07305 0.68385,-0.242657 0.296558,-0.184255 0.592554,-0.746313 0.595614,-1.102988 z"
     id="flowRoot3192"
     inkscape:connector-curvature="0"
     sodipodi:nodetypes="cscccsccccccccccccccccccccccccccscccccccccccccccccccccccccccccccccsccccccccccc" />
</svg>
