<?xml version="1.0" encoding="UTF-8" standalone="no"?>
<svg
   xmlns:dc="http://purl.org/dc/elements/1.1/"
   xmlns:cc="http://creativecommons.org/ns#"
   xmlns:rdf="http://www.w3.org/1999/02/22-rdf-syntax-ns#"
   xmlns:svg="http://www.w3.org/2000/svg"
   xmlns="http://www.w3.org/2000/svg"
   xmlns:sodipodi="http://sodipodi.sourceforge.net/DTD/sodipodi-0.dtd"
   xmlns:inkscape="http://www.inkscape.org/namespaces/inkscape"
   width="32"
   height="32"
   id="svg2"
   version="1.1"
   inkscape:version="0.91 r"
   sodipodi:docname="piste_hike.svg">
  <defs
     id="defs13">
    <inkscape:path-effect
       effect="gears"
       id="path-effect3774"
       is_visible="true"
       teeth="6"
       phi="-1.2" />
    <inkscape:path-effect
       effect="bend_path"
       id="path-effect3772"
       is_visible="false"
       bendpath="m 95.790098,316.51174 c 144.429032,-206.42506 223.313032,-11.7428 339.548092,0"
       prop_scale="1.19"
       scale_y_rel="false"
       vertical="false"
       bendpath-nodetypes="cc" />
  </defs>
  <sodipodi:namedview
     pagecolor="#ffffff"
     bordercolor="#666666"
     borderopacity="1"
     objecttolerance="10"
     gridtolerance="10"
     guidetolerance="10"
     inkscape:pageopacity="0"
     inkscape:pageshadow="2"
     inkscape:window-width="1920"
     inkscape:window-height="1004"
     id="namedview11"
     showgrid="false"
     inkscape:zoom="3.2551723"
     inkscape:cx="47.324822"
     inkscape:cy="40.009088"
     inkscape:window-x="1680"
     inkscape:window-y="0"
     inkscape:window-maximized="1"
     inkscape:current-layer="svg2"
     inkscape:snap-object-midpoints="true"
     inkscape:snap-page="true" />
  <metadata
     id="metadata2975">image/svg+xmlen<rdf:RDF>
  <cc:Work
     rdf:about="">
    <dc:format>image/svg+xml</dc:format>
    <dc:type
       rdf:resource="http://purl.org/dc/dcmitype/StillImage" />
    <dc:title />
  </cc:Work>
</rdf:RDF>
</metadata>
  <g
     transform="matrix(0.0551864,0,0,0.0551864,0,-0.0555723)"
     id="g1327">
    <path
       inkscape:connector-curvature="0"
       d="M 66.275,1.768 C 24.94,1.768 1.704,23.139 1.704,66.804 l 0,450.123 c 0,40.844 20.895,62.229 62.192,62.229 l 452.024,0 c 41.307,0 62.229,-20.315 62.229,-62.229 l 0,-450.123 c 0,-42.601 -20.922,-65.036 -63.521,-65.036 -0.004,0 -448.495,-0.143 -448.353,0 z"
       style="fill:#111111;stroke:#eeeeee;stroke-width:3.40799999"
       id="path1329" />
  </g>
  <path
     d="m 16.653715,6.708341 c -0.828756,0 -1.509671,0.7007545 -1.509671,1.5398648 0,0.8391104 0.680915,1.5096709 1.509671,1.5096709 0.828756,0 1.479478,-0.6705605 1.479478,-1.5096709 0,-0.8391103 -0.650722,-1.5398648 -1.479478,-1.5398648 z m -2.02296,3.472244 -1.388897,4.861142 c -0.141036,0.856787 -0.151766,1.490131 0.694449,2.20412 l 0.603868,0.513289 1.449285,1.479478 0,3.864758 c 0.08477,0.961258 2.092729,0.754484 1.962572,0 l 0,-4.287466 c -0.0036,-0.263332 -0.112554,-0.51392 -0.301934,-0.694449 l -1.509671,-1.539865 -0.422708,-0.543482 0.694449,-2.898569 1.298317,1.358705 c 0.281752,0.296037 0.716947,0.380658 1.086963,0.211354 l 1.570059,-0.815223 0,9.933638 0.966189,0 0,-10.416733 0.301935,-0.150967 c 1.068454,-0.32939 0.81465,-1.928349 -0.301935,-1.902186 l 0,-0.392514 -0.966189,0 0,0.785029 -1.781413,0.905802 -1.630445,-1.721025 c -0.139395,-0.141911 -0.318647,-0.236809 -0.513288,-0.271741 -0.02903,-0.01885 -0.06414,-0.05146 -0.09058,-0.06039 z m -1.298317,0.06039 c -0.565245,0.01339 -1.237332,0.128764 -1.871993,0.664256 -0.846215,0.713989 -1.398829,1.909997 -1.5398644,2.838182 -0.1410357,0.856787 0.5025574,1.144508 1.2077374,1.358704 0.705178,0.214197 1.338441,-0.07388 1.479478,-0.573675 0.211553,-0.642591 1.268124,-4.287467 1.268124,-4.287467 -0.158665,0 -0.355067,-0.0044 -0.543482,0 z m -0.362321,6.763328 -0.301934,1.932379 0,0.03019 c -0.01076,0.01977 -0.02083,0.03991 -0.03019,0.06039 -0.03472,0.04746 -0.06504,0.09799 -0.09058,0.150967 l -1.419091,3.562824 c -0.49813,1.109805 1.213547,1.125672 1.811605,0.724643 l 1.419092,-3.562825 c 0.06173,-0.132254 0.0927,-0.276773 0.09058,-0.422708 6.29e-4,-0.02013 6.29e-4,-0.04027 0,-0.06039 l 0.18116,-0.543481 c -0.916732,-0.785389 -1.660638,-1.3722 -1.660642,-1.871989 z"
     id="circle3"
     style="color:#000000;display:inline;overflow:visible;visibility:visible;fill:#ffffff;fill-opacity:1;fill-rule:nonzero;stroke:none;marker:none;enable-background:accumulate"
     inkscape:connector-curvature="0"
     sodipodi:nodetypes="ssssscccccccccccccccccccccccccccccscsccccccccccccccc" />
  <path
     style="font-style:normal;font-variant:normal;font-weight:normal;font-stretch:normal;font-size:40px;line-height:125%;font-family:NPSPICT3;-inkscape-font-specification:NPSPICT3;text-align:start;writing-mode:lr-tb;text-anchor:start;fill:#ffffff;fill-opacity:1;stroke:none"
     d="m 22.73774,23.761517 c -9.97e-4,0.276358 -0.115122,0.567911 -0.339519,0.707333 -0.107154,0.06657 -0.235512,0.113471 -0.367813,0.113174 l -13.9485877,0.02829 0,1.04685 13.8919997,-0.05658 c 0.427899,-0.01025 0.50392,-0.09368 0.877092,-0.311226 0.380356,-0.236321 0.759996,-0.957204 0.76392,-1.414666 z"
     id="flowRoot3192"
     inkscape:connector-curvature="0"
     sodipodi:nodetypes="ccccccccc" />
</svg>
