<?xml version="1.0" encoding="UTF-8" standalone="no"?>
<svg
   xmlns:dc="http://purl.org/dc/elements/1.1/"
   xmlns:cc="http://creativecommons.org/ns#"
   xmlns:rdf="http://www.w3.org/1999/02/22-rdf-syntax-ns#"
   xmlns:svg="http://www.w3.org/2000/svg"
   xmlns="http://www.w3.org/2000/svg"
   xmlns:sodipodi="http://sodipodi.sourceforge.net/DTD/sodipodi-0.dtd"
   xmlns:inkscape="http://www.inkscape.org/namespaces/inkscape"
   width="32"
   height="32"
   id="svg2"
   version="1.1"
   inkscape:version="0.48.4 r9939"
   sodipodi:docname="piste_skitour.svg">
  <defs
     id="defs13">
    <inkscape:path-effect
       effect="gears"
       id="path-effect3774"
       is_visible="true"
       teeth="6"
       phi="-1.2" />
    <inkscape:path-effect
       effect="bend_path"
       id="path-effect3772"
       is_visible="false"
       bendpath="m 95.790098,316.51174 c 144.429032,-206.42506 223.313032,-11.7428 339.548092,0"
       prop_scale="1.19"
       scale_y_rel="false"
       vertical="false"
       bendpath-nodetypes="cc" />
  </defs>
  <sodipodi:namedview
     pagecolor="#ffffff"
     bordercolor="#666666"
     borderopacity="1"
     objecttolerance="10"
     gridtolerance="10"
     guidetolerance="10"
     inkscape:pageopacity="0"
     inkscape:pageshadow="2"
     inkscape:window-width="1280"
     inkscape:window-height="995"
     id="namedview11"
     showgrid="false"
     inkscape:zoom="9.2070176"
     inkscape:cx="21.801879"
     inkscape:cy="32.384435"
     inkscape:window-x="0"
     inkscape:window-y="0"
     inkscape:window-maximized="1"
     inkscape:current-layer="svg2"
     inkscape:snap-object-midpoints="true"
     inkscape:snap-page="true" />
  <metadata
     id="metadata2975">image/svg+xmlen<rdf:RDF>
  <cc:Work
     rdf:about="">
    <dc:format>image/svg+xml</dc:format>
    <dc:type
       rdf:resource="http://purl.org/dc/dcmitype/StillImage" />
    <dc:title></dc:title>
  </cc:Work>
</rdf:RDF>
</metadata>
  <path
     d="m 16.653715,6.7083409 c -0.828756,0 -1.509671,0.7007545 -1.509671,1.5398648 0,0.8391104 0.680915,1.5096709 1.509671,1.5096709 0.828756,0 1.479478,-0.6705605 1.479478,-1.5096709 0,-0.8391103 -0.650722,-1.5398648 -1.479478,-1.5398648 z m -2.02296,3.4722441 -1.388897,4.861142 c -0.141036,0.856787 -0.151766,1.490131 0.694449,2.20412 l 0.603868,0.513289 1.449285,1.479478 0,3.864758 a 0.98128639,0.99354609 0 0 0 1.962572,0 l 0,-4.287466 a 0.96030612,0.97230363 0 0 0 -0.301934,-0.694449 l -1.509671,-1.539865 -0.422708,-0.543482 0.694449,-2.898569 1.298317,1.358705 a 0.96030612,0.97230363 0 0 0 1.086963,0.211354 l 1.570059,-0.815223 0,9.933638 0.966189,0 0,-10.416733 0.301935,-0.150967 a 0.96030612,0.97230363 0 0 0 -0.301935,-1.902186 l 0,-0.392514 -0.966189,0 0,0.785029 -1.781413,0.905802 -1.630445,-1.721025 A 0.96030612,0.97230363 0 0 0 16.442361,10.66368 c -0.02903,-0.01885 -0.06414,-0.05146 -0.09058,-0.06039 l -1.721026,-0.422708 z m -1.298317,0.06039 c -0.565245,0.01339 -1.237332,0.128764 -1.871993,0.664256 -0.846215,0.713989 -1.398829,1.909997 -1.5398644,2.838182 -0.1410357,0.856787 0.5025574,1.144508 1.2077374,1.358704 0.705178,0.214197 1.338441,-0.07388 1.479478,-0.573675 0.211553,-0.642591 1.268124,-4.287467 1.268124,-4.287467 -0.158665,0 -0.355067,-0.0044 -0.543482,0 z m -0.362321,6.763328 -0.301934,1.932379 0,0.03019 a 0.9662862,0.9662862 0 0 0 -0.03019,0.06039 0.9662862,0.9662862 0 0 0 -0.09058,0.150967 l -1.419091,3.562824 a 0.9755795,0.9755795 0 1 0 1.811605,0.724643 l 1.419092,-3.562825 a 0.9662862,0.9662862 0 0 0 0.09058,-0.422708 0.9662862,0.9662862 0 0 0 0,-0.06039 l 0.18116,-0.543481 c -0.916732,-0.785389 -1.660638,-1.3722 -1.660638,-1.871993 z"
     id="circle3"
     style="color:#000000;fill:#323232;fill-opacity:1;fill-rule:nonzero;stroke:none;marker:none;visibility:visible;display:inline;overflow:visible;enable-background:accumulate"
     inkscape:connector-curvature="0" />
</svg>
