<svg width="580" height="580" viewBox="0 0 580 580" fill="none" xmlns="http://www.w3.org/2000/svg">
<g clip-path="url(#clip0)">
<path d="M66.2751 1.76799C24.9401 1.76799 1.7041 23.139 1.7041 66.804V516.927C1.7041 557.771 22.5991 579.156 63.8961 579.156H515.92C557.227 579.156 578.149 558.841 578.149 516.927V66.804C578.149 24.203 557.227 1.76799 514.628 1.76799C514.624 1.76799 66.1331 1.62499 66.2751 1.76799Z" fill="#111111" stroke="#EEEEEE" stroke-width="3.408"/>
<path opacity="0.75" d="M357.964 269.5L302.345 225.43L271.059 269.5H319.994H357.964Z" fill="white"/>
<path d="M376.366 344.881C402.444 325.098 419.292 293.778 419.292 258.52H335.068H310.955H279.88H210.088V153.919V45.5818H209.927C150.095 45.6259 101.627 94.1662 101.672 153.999C101.715 211.342 146.3 258.237 202.679 262.004C203.788 297.09 221.575 327.967 248.38 346.966L164.7 541.101C164.7 541.101 162.007 551.482 171.74 556.093C181.473 560.704 188.234 551.245 188.234 551.245L270.994 359.246C283.359 364.156 296.841 366.857 310.955 366.857C326.284 366.857 340.865 363.666 354.081 357.925L437.411 551.246C437.411 551.246 443.88 561.178 454.225 556.445C464.571 551.712 460.944 541.102 460.944 541.102L376.366 344.881Z" fill="white"/>
<path d="M257.909 46.6092C257.909 46.6092 275.888 66.3274 275.888 93.0565C275.888 119.786 256.407 118.577 256.407 154.032C256.407 178.414 275.76 193.522 275.76 193.522" stroke="white" stroke-width="23" stroke-linecap="round"/>
<path d="M318.796 46.6092C318.796 46.6092 336.776 66.3274 336.776 93.0564C336.776 119.786 317.295 118.577 317.295 154.032C317.295 178.414 336.647 193.522 336.647 193.522" stroke="white" stroke-width="23" stroke-linecap="round"/>
<path d="M379.684 46.6092C379.684 46.6092 397.664 66.3274 397.664 93.0564C397.664 119.786 378.183 118.577 378.183 154.032C378.183 178.414 397.535 193.522 397.535 193.522" stroke="white" stroke-width="23" stroke-linecap="round"/>
</g>
<defs>
<clipPath id="clip0">
<path d="M0 0H580V580H0V0Z" fill="white"/>
</clipPath>
</defs>
</svg>
