<?xml version="1.0" encoding="UTF-8" standalone="no"?>
<!-- Created with Inkscape (http://www.inkscape.org/) -->

<svg
   xmlns:dc="http://purl.org/dc/elements/1.1/"
   xmlns:cc="http://creativecommons.org/ns#"
   xmlns:rdf="http://www.w3.org/1999/02/22-rdf-syntax-ns#"
   xmlns:svg="http://www.w3.org/2000/svg"
   xmlns="http://www.w3.org/2000/svg"
   xmlns:xlink="http://www.w3.org/1999/xlink"
   xmlns:sodipodi="http://sodipodi.sourceforge.net/DTD/sodipodi-0.dtd"
   xmlns:inkscape="http://www.inkscape.org/namespaces/inkscape"
   version="1.0"
   width="580"
   height="580"
   id="svg2"
   sodipodi:version="0.32"
   inkscape:version="0.91 r"
   sodipodi:docname="bicycle_repair_station.svg"
   inkscape:output_extension="org.inkscape.output.svg.inkscape">
  <defs
     id="defs22">
    <inkscape:perspective
       sodipodi:type="inkscape:persp3d"
       inkscape:vp_x="0 : 290 : 1"
       inkscape:vp_y="0 : 1000 : 0"
       inkscape:vp_z="580 : 290 : 1"
       inkscape:persp3d-origin="290 : 193.33333 : 1"
       id="perspective24" />
    <clipPath
       id="clipoutline1-8"
       clipPathUnits="userSpaceOnUse">
      <path
         inkscape:connector-curvature="0"
         d="m 22.42,17.2 12.96,12.95 -2.5,8.78 -8.78,2.5 -12.96,-12.96 -5.86,5.86 14.89,21.46 17.56,-3.34 61.63,65.62 c 9.44,9.51 22.17,-4.75 13.34,-12.87 L 46.85,42.92 50.86,25.16 28.72,10.89 22.42,17.2 Z m 81.06,91.97 c 1.68,-1.68 4.4,-1.68 6.08,0 1.68,1.68 1.68,4.4 0,6.08 -1.68,1.67 -4.4,1.67 -6.08,0 -1.68,-1.68 -1.68,-4.4 0,-6.08 z"
         id="outline1-1" />
    </clipPath>
  </defs>
  <metadata
     id="metadata10">
    <rdf:RDF>
      <cc:Work
         rdf:about="">
        <dc:format>image/svg+xml</dc:format>
        <dc:type
           rdf:resource="http://purl.org/dc/dcmitype/StillImage" />
        <cc:license
           rdf:resource="http://web.resource.org/cc/PublicDomain" />
        <dc:language>en</dc:language>
        <dc:title />
      </cc:Work>
    </rdf:RDF>
  </metadata>
  <sodipodi:namedview
     inkscape:window-height="1006"
     inkscape:window-width="1920"
     inkscape:pageshadow="2"
     inkscape:pageopacity="0.0"
     guidetolerance="10.0"
     gridtolerance="10.0"
     objecttolerance="10.0"
     borderopacity="1.0"
     bordercolor="#666666"
     pagecolor="#ffffff"
     id="base"
     showgrid="false"
     inkscape:zoom="0.5"
     inkscape:cx="497.40017"
     inkscape:cy="398.88661"
     inkscape:window-x="1680"
     inkscape:window-y="0"
     inkscape:current-layer="svg2"
     inkscape:window-maximized="1" />
  <g
     id="g1327">
    <path
       d="M 66.275,1.768 C 24.94,1.768 1.704,23.139 1.704,66.804 L 1.704,516.927 C 1.704,557.771 22.598,579.156 63.896,579.156 L 515.92,579.156 C 557.227,579.156 578.149,558.84 578.149,516.927 L 578.149,66.804 C 578.149,24.203 557.227,1.768 514.627,1.768 C 514.624,1.768 66.133,1.625 66.275,1.768 z"
       style="fill:#111111;stroke:#eeeeee;stroke-width:3.40799999"
       id="path1329" />
  </g>
  <g
     id="g2319"
     transform="translate(879.29125,36.805119)">
    <path
       id="path2323"
       style="fill:#ffffff;stroke:none"
       d="" />
  </g>
  <g
     id="g2325"
     transform="translate(879.29125,36.805119)">
    <path
       id="path2329"
       style="fill:#ffffff;stroke:none"
       d="" />
  </g>
  <g
     id="g2999"
     transform="matrix(1.2669661,0,0,1.2765195,-137.41109,-148.43449)">
    <circle
       id="path596"
       style="font-size:12px;fill:none;stroke:#ffffff;stroke-width:20.44453049;stroke-opacity:1"
       transform="matrix(-0.8175728,0,0,0.8175728,366.34413,94.036483)"
       cx="200.53224"
       cy="461.96271"
       r="78.380615" />
    <circle
       id="path595"
       style="font-size:12px;fill:none;stroke:#ffffff;stroke-width:20.44453049;stroke-opacity:1"
       transform="matrix(-0.8175728,0,0,0.8175728,640.98082,92.788108)"
       cx="200.53224"
       cy="461.96271"
       r="78.380615" />
    <path
       d="m 426.26498,361.45384 -164.78196,0.83225 -58.25622,108.19017 111.5191,0 116.51247,-79.06204"
       id="path594"
       sodipodi:nodetypes="ccccc"
       style="font-size:12px;fill:none;stroke:#ffffff;stroke-width:13.42012978;stroke-linejoin:round;stroke-opacity:1"
       inkscape:connector-curvature="0" />
    <path
       d="m 419.93301,296.61557 c 8.95068,0 15.7162,-0.19971 22.65079,10.3943 1.99611,3.53157 2.90873,7.84359 2.17168,12.13584 -0.88418,4.88071 -3.77374,9.67594 -7.18017,12.51461 -4.51068,3.75891 -8.79144,3.46894 -8.09962,6.84799 0.88767,4.33573 3.59671,10.36078 6.52429,20.14426 2.97171,9.93086 6.50042,22.08532 9.96417,34.05702 3.46375,11.97168 6.86391,23.76707 9.55537,32.9584 1.34576,4.59564 2.52107,8.54178 3.42361,11.49711 0.87935,2.87937 1.65572,5.11599 1.58402,4.95653 2.80413,4.93364 3.18582,8.14837 7.88919,12.34757 5.27352,4.61532 9.56716,8.02487 11.05729,9.06639 3.78488,2.74946 5.54443,8.55186 3.54576,11.41887 -2.51883,3.90728 -7.72085,4.50664 -11.52285,3.33771 -3.61009,-1.14601 -9.32483,-3.1145 -15.95146,-8.60302 l -0.0511,-0.0766 -0.0767,-0.0511 c -9.22059,-7.90891 -12.63182,-17.50785 -12.97894,-18.06322 l -0.48546,-0.74094 -0.33214,-0.81757 c -0.79896,-1.96676 -1.27755,-3.70097 -2.22276,-6.79609 -0.94523,-3.09512 -2.14349,-7.09376 -3.50025,-11.72706 -2.71351,-9.26655 -6.0964,-21.07988 -9.55537,-33.03503 -3.459,-11.95514 -6.97907,-24.04771 -9.91308,-33.85263 -2.93401,-9.80491 -4.78763,-17.85761 -5.47283,-19.57065 -1.66775,-4.16936 -2.51977,-8.67054 -1.37967,-13.18337 1.14009,-4.51281 4.54699,-8.15504 7.60523,-9.00171 6.98069,-1.95297 5.12847,-6.97412 1.55707,-6.9814 l -29.92805,-0.0609 -0.0738,-19.11484 c 1.9e-4,-4.1e-4 19.42621,-4.1e-4 31.1957,-4.1e-4 z"
       id="path593"
       sodipodi:nodetypes="ccccscccccsscsccccccccccccssccc"
       style="font-size:12px;fill:#ffffff;fill-opacity:1;fill-rule:evenodd;stroke-width:25;stroke-linecap:round"
       inkscape:connector-curvature="0" />
    <path
       d="M 312.61065,467.08879 256.11685,328.79672"
       id="path599"
       style="font-size:12px;fill:#ffffff;fill-opacity:1;fill-rule:evenodd;stroke:#ffffff;stroke-width:16.07201004;stroke-opacity:1"
       inkscape:connector-curvature="0" />
    <path
       sodipodi:nodetypes="cc"
       d="m 332.03145,431.77858 -34.13377,79.44759"
       id="path600"
       style="font-size:12px;fill:#ffffff;fill-opacity:1;fill-rule:evenodd;stroke:#ffffff;stroke-width:5.86628437;stroke-linecap:round;stroke-opacity:1"
       inkscape:connector-curvature="0" />
    <circle
       id="path597"
       style="font-size:12px;fill:#ffffff;fill-opacity:1;fill-rule:evenodd;stroke:#ffffff;stroke-width:24.61600113;stroke-opacity:1"
       transform="matrix(-0.2305185,0,0,0.2036034,360.34823,376.62649)"
       cx="200.53224"
       cy="461.96271"
       r="78.380615" />
    <path
       d="m 347.22729,431.8148 -30.15204,0.27638"
       id="path601"
       sodipodi:nodetypes="cc"
       style="font-size:12px;fill:#ffffff;fill-opacity:1;fill-rule:evenodd;stroke:#ffffff;stroke-width:8.19703865;stroke-linecap:round;stroke-miterlimit:4;stroke-dasharray:none;stroke-opacity:1"
       inkscape:connector-curvature="0" />
    <path
       d="m 313.26839,510.08495 -30.15205,0.27639"
       id="path602"
       sodipodi:nodetypes="cc"
       style="font-size:12px;fill:#ffffff;fill-opacity:1;fill-rule:evenodd;stroke:#ffffff;stroke-width:8.19672489;stroke-linecap:round;stroke-opacity:1"
       inkscape:connector-curvature="0" />
    <path
       d="m 228.45816,316.43825 70.91153,0 c 2.64815,0 6.0661,4.6844 2.64815,7.79733 -3.69667,3.51821 -36.92697,10.7397 -36.92697,10.7397 0,0 -9.12139,2.50103 -13.97635,1.91257 -4.85492,-0.58848 -21.62652,-2.05968 -22.65636,-20.4496 z"
       id="path603"
       sodipodi:nodetypes="cssccc"
       style="font-size:12px;fill:#ffffff;fill-opacity:1;fill-rule:evenodd;stroke:none"
       inkscape:connector-curvature="0" />
  </g>
  <g
     id="spanner"
     transform="matrix(-2.3595197,2.2888014,-2.2758315,-2.3729665,604.02085,134.34512)"
     style="fill:#ffffff;stroke:#ffffff;stroke-width:1.97217214;stroke-linecap:round;stroke-linejoin:round;stroke-miterlimit:4;stroke-dasharray:none;stroke-opacity:1">
    <use
       height="580"
       width="580"
       y="0"
       x="0"
       xlink:href="#outline1-1"
       class="outline-big"
       id="use4649"
       style="fill:#ffffff;stroke:#ffffff;stroke-width:1.97217214;stroke-linecap:round;stroke-linejoin:round;stroke-miterlimit:4;stroke-dasharray:none;stroke-opacity:1" />
    <use
       height="580"
       width="580"
       y="0"
       x="0"
       xlink:href="#outline1-1"
       class="outline-small"
       id="use4651"
       style="fill:#ffffff;stroke:#ffffff;stroke-width:1.97217214;stroke-linecap:round;stroke-linejoin:round;stroke-miterlimit:4;stroke-dasharray:none;stroke-opacity:1" />
    <use
       height="580"
       width="580"
       y="0"
       x="0"
       xlink:href="#outline1-1"
       class="aluminium4"
       id="use4653"
       style="fill:#ffffff;stroke:#ffffff;stroke-width:1.97217214;stroke-linecap:round;stroke-linejoin:round;stroke-miterlimit:4;stroke-dasharray:none;stroke-opacity:1" />
    <use
       height="580"
       width="580"
       y="0"
       x="0"
       class="stroke-highlight"
       xlink:href="#outline1-1"
       clip-path="url(#clipoutline1-8)"
       style="fill:#ffffff;stroke:#ffffff;stroke-width:1.97217214;stroke-linecap:round;stroke-linejoin:round;stroke-miterlimit:4;stroke-dasharray:none;stroke-opacity:1"
       id="use4655" />
    <path
       inkscape:connector-curvature="0"
       class="high-specularity"
       style="fill:#ffffff;stroke:#ffffff;stroke-width:1.97217214;stroke-linecap:round;stroke-linejoin:round;stroke-miterlimit:4;stroke-dasharray:none;stroke-opacity:1"
       d="M 24.33,15.4 37.78,28.78 34.45,40.47 23.5,43.74 9.9319417,30 5.2,34.54 19.4,54.48 38.3,50.34 100.8,116.7 c 7.5,8.3 20.2,-2.67 11.14,-11.6 L 45.04,42 48.9,24.83 28.94,10.8 24.33,15.4 Z m 79.97,93.3 c 1.67,-1.67 4.63,-2 6.3,-0.3 1.7,1.67 3.06,4.63 0.65,7.84 -2,2 -5.2,1.92 -7.2,-0.24 -1.68,-1.68 -1.45,-5.6 0.25,-7.3 z"
       id="path4657" />
    <path
       inkscape:connector-curvature="0"
       class="specularity"
       style="fill:#ffffff;stroke:#ffffff;stroke-width:1.97217214;stroke-linecap:round;stroke-linejoin:round;stroke-miterlimit:4;stroke-dasharray:none;stroke-opacity:1"
       d="M 24.2,15.42 47.67,39.07 50.89,25.2 28.79,10.8 24.2,15.42 Z"
       id="path4659" />
  </g>
</svg>
