<svg width="580" height="580" viewBox="0 0 580 580" fill="none" xmlns="http://www.w3.org/2000/svg">
<g clip-path="url(#clip0)">
<path d="M66.275 1.76802C24.94 1.76802 1.704 23.139 1.704 66.804V516.927C1.704 557.771 22.599 579.156 63.896 579.156H515.92C557.227 579.156 578.149 558.841 578.149 516.927V66.804C578.149 24.203 557.227 1.76802 514.628 1.76802C514.624 1.76802 66.133 1.62502 66.275 1.76802Z" fill="#111111" stroke="#EEEEEE" stroke-width="3.408"/>
<path d="M216.461 495.65H363.539" stroke="white" stroke-width="35" stroke-linecap="round"/>
<path d="M309.776 166.138H270.224C254.2 166.138 241.21 179.128 241.21 195.153V476.534C241.21 492.559 254.2 505.549 270.224 505.549H309.776C325.8 505.549 338.79 492.559 338.79 476.534V195.153C338.79 179.128 325.8 166.138 309.776 166.138Z" fill="white"/>
<path d="M290 171.795V69.9714" stroke="white" stroke-width="35" stroke-linecap="round"/>
<path d="M218.012 68.5573H361.988" stroke="white" stroke-width="32" stroke-linecap="round"/>
<path d="M318 408C318 408 337 334 417 351C497 368 536 331 536 331" stroke="white" stroke-width="32" stroke-linecap="round"/>
<path d="M476 343L531 315" stroke="white" stroke-width="32" stroke-linecap="round"/>
</g>
<defs>
<clipPath id="clip0">
<path d="M0 0H580V580H0V0Z" fill="white"/>
</clipPath>
</defs>
</svg>
