<?xml version="1.0" encoding="UTF-8" standalone="no"?>
<!-- Created with Inkscape (http://www.inkscape.org/) -->

<svg
   xmlns:dc="http://purl.org/dc/elements/1.1/"
   xmlns:cc="http://creativecommons.org/ns#"
   xmlns:rdf="http://www.w3.org/1999/02/22-rdf-syntax-ns#"
   xmlns:svg="http://www.w3.org/2000/svg"
   xmlns="http://www.w3.org/2000/svg"
   xmlns:sodipodi="http://sodipodi.sourceforge.net/DTD/sodipodi-0.dtd"
   xmlns:inkscape="http://www.inkscape.org/namespaces/inkscape"
   version="1.0"
   width="16"
   height="16"
   id="svg2"
   sodipodi:version="0.32"
   inkscape:version="0.48.4 r9939"
   sodipodi:docname="fountain2.svg"
   inkscape:output_extension="org.inkscape.output.svg.inkscape">
  <metadata
     id="metadata2975">
    <rdf:RDF>
      <cc:Work
         rdf:about="">
        <dc:format>image/svg+xml</dc:format>
        <dc:type
           rdf:resource="http://purl.org/dc/dcmitype/StillImage" />
        <cc:license
           rdf:resource="http://web.resource.org/cc/PublicDomain" />
        <dc:language>en</dc:language>
        <dc:title />
      </cc:Work>
    </rdf:RDF>
  </metadata>
  <sodipodi:namedview
     inkscape:window-height="739"
     inkscape:window-width="1326"
     inkscape:pageshadow="2"
     inkscape:pageopacity="0.0"
     guidetolerance="10.0"
     gridtolerance="10.0"
     objecttolerance="10.0"
     borderopacity="1.0"
     bordercolor="#666666"
     pagecolor="#ffffff"
     id="base"
     inkscape:zoom="14.746834"
     inkscape:cx="4.9347075"
     inkscape:cy="6.9413077"
     inkscape:window-x="40"
     inkscape:window-y="1024"
     inkscape:current-layer="svg2"
     showgrid="false"
     inkscape:window-maximized="1" />
  <defs
     id="defs4">
    <inkscape:perspective
       sodipodi:type="inkscape:persp3d"
       inkscape:vp_x="0 : 290 : 1"
       inkscape:vp_y="0 : 1000 : 0"
       inkscape:vp_z="580 : 290 : 1"
       inkscape:persp3d-origin="290 : 193.33333 : 1"
       id="perspective2441" />
    <inkscape:perspective
       id="perspective3452"
       inkscape:persp3d-origin="30 : 20 : 1"
       inkscape:vp_z="60 : 30 : 1"
       inkscape:vp_y="0 : 1000 : 0"
       inkscape:vp_x="0 : 30 : 1"
       sodipodi:type="inkscape:persp3d" />
    <symbol
       viewBox="244.5 110 489 219.9"
       id="symbol-university">
      <path
         id="path4460"
         d="m 79,43 57,119 c 0,0 21,-96 104,-96 83,0 124,106 124,106 L 407,39 489,22 0,17 79,43 z"
         inkscape:connector-curvature="0" />
      <path
         id="path4462"
         d="M 94,176 73,215"
         inkscape:connector-curvature="0"
         style="fill:none;stroke:#000000;stroke-width:20" />
      <path
         id="path4464"
         d="M 300,19 C 300,29.5 277.4,38 249.5,38 221.6,38 199,29.5 199,19 199,8.5 221.6,0 249.5,0 277.4,0 300,8.5 300,19 z"
         inkscape:connector-curvature="0" />
      <path
         id="path4466"
         d="M 112,216 96,178 64,88 C 64,88 55,80 60,53 65,26 76,29 76,29"
         ill="none"
         inkscape:connector-curvature="0"
         style="stroke:#000000;stroke-width:20" />
    </symbol>
    <inkscape:perspective
       id="perspective4471"
       inkscape:persp3d-origin="372.04724 : 350.78739 : 1"
       inkscape:vp_z="744.09448 : 526.18109 : 1"
       inkscape:vp_y="0 : 1000 : 0"
       inkscape:vp_x="0 : 526.18109 : 1"
       sodipodi:type="inkscape:persp3d" />
    <inkscape:perspective
       id="perspective4668"
       inkscape:persp3d-origin="6 : 4 : 1"
       inkscape:vp_z="12 : 6 : 1"
       inkscape:vp_y="0 : 1000 : 0"
       inkscape:vp_x="0 : 6 : 1"
       sodipodi:type="inkscape:persp3d" />
    <inkscape:perspective
       id="perspective4725"
       inkscape:persp3d-origin="0.5 : 0.33333333 : 1"
       inkscape:vp_z="1 : 0.5 : 1"
       inkscape:vp_y="0 : 1000 : 0"
       inkscape:vp_x="0 : 0.5 : 1"
       sodipodi:type="inkscape:persp3d" />
    <inkscape:perspective
       id="perspective6330"
       inkscape:persp3d-origin="0.5 : 0.33333333 : 1"
       inkscape:vp_z="1 : 0.5 : 1"
       inkscape:vp_y="0 : 1000 : 0"
       inkscape:vp_x="0 : 0.5 : 1"
       sodipodi:type="inkscape:persp3d" />
    <inkscape:perspective
       id="perspective6376"
       inkscape:persp3d-origin="0.5 : 0.33333333 : 1"
       inkscape:vp_z="1 : 0.5 : 1"
       inkscape:vp_y="0 : 1000 : 0"
       inkscape:vp_x="0 : 0.5 : 1"
       sodipodi:type="inkscape:persp3d" />
    <inkscape:perspective
       id="perspective6376-2"
       inkscape:persp3d-origin="0.5 : 0.33333333 : 1"
       inkscape:vp_z="1 : 0.5 : 1"
       inkscape:vp_y="0 : 1000 : 0"
       inkscape:vp_x="0 : 0.5 : 1"
       sodipodi:type="inkscape:persp3d" />
    <inkscape:perspective
       id="perspective6407"
       inkscape:persp3d-origin="0.5 : 0.33333333 : 1"
       inkscape:vp_z="1 : 0.5 : 1"
       inkscape:vp_y="0 : 1000 : 0"
       inkscape:vp_x="0 : 0.5 : 1"
       sodipodi:type="inkscape:persp3d" />
    <inkscape:perspective
       id="perspective6629"
       inkscape:persp3d-origin="0.5 : 0.33333333 : 1"
       inkscape:vp_z="1 : 0.5 : 1"
       inkscape:vp_y="0 : 1000 : 0"
       inkscape:vp_x="0 : 0.5 : 1"
       sodipodi:type="inkscape:persp3d" />
    <inkscape:perspective
       id="perspective6660"
       inkscape:persp3d-origin="0.5 : 0.33333333 : 1"
       inkscape:vp_z="1 : 0.5 : 1"
       inkscape:vp_y="0 : 1000 : 0"
       inkscape:vp_x="0 : 0.5 : 1"
       sodipodi:type="inkscape:persp3d" />
    <inkscape:perspective
       id="perspective8099"
       inkscape:persp3d-origin="0.5 : 0.33333333 : 1"
       inkscape:vp_z="1 : 0.5 : 1"
       inkscape:vp_y="0 : 1000 : 0"
       inkscape:vp_x="0 : 0.5 : 1"
       sodipodi:type="inkscape:persp3d" />
  </defs>
  <path
     style="fill:#6c8daa;fill-opacity:1;stroke:none"
     d="M 6.8832012,1.2384836 C 6.8027901,1.2371985 6.71715,1.2642254 6.6566337,1.3044251 6.4629802,1.4339253 6.3318997,1.6213727 6.2339339,1.9046586 6.155013,2.1328424 5.9785851,2.731223 5.8349059,3.4720286 5.6912282,4.2128344 5.6895758,4.6364111 5.6413084,5.279492 5.7160982,4.6325713 5.8529151,4.2231186 6.022584,3.515144 6.2126419,2.8259842 6.5059979,2.2743649 6.6329618,2.0652844 6.7217386,1.9190808 6.7780264,1.8150648 6.8223322,1.8142008 c 0.07327,0 0.1518737,0.2242445 0.2214935,0.4894862 -0.082181,0.3423077 -0.1827073,0.8361082 -0.2172664,1.1463611 -0.047686,0.4280489 -0.09642,1.6333114 -0.090459,1.6333114 0,0 0.201165,-1.3320894 0.2502394,-1.6282389 0.028993,-0.1749933 0.090636,-0.4516041 0.1597805,-0.7152077 0.00472,0.022139 0.00988,0.045629 0.014312,0.066787 C 7.358695,3.7384273 7.5390948,5.2680566 7.682889,7.5696789 7.6218355,7.1995456 7.557359,6.8974142 7.4918292,6.6481938 7.4417087,6.4576405 7.4074196,6.2781614 7.348963,6.1527898 7.2905063,6.0274178 7.2092099,5.9257825 7.0928072,5.850137 7.0346013,5.8126979 6.9743151,5.7903863 6.8932917,5.7951859 l 0,-8.441e-4 0,-8.439e-4 C 6.8122756,5.803103 6.7472385,5.8360287 6.6946231,5.8763464 6.6214859,5.931718 6.5683408,5.9964733 6.5230066,6.072479 6.4223526,5.9697903 6.3105605,5.8952359 6.181466,5.8501391 c -0.1459203,-0.050877 -0.3139176,-0.057598 -0.4556698,0 l 0,-8.441e-4 0,-8.44e-4 0,-8.441e-4 c -0.018148,0.00737 -0.035941,0.015151 -0.053264,0.023672 -0.047642,-0.020467 -0.095785,-0.037767 -0.1454035,-0.050723 l 0,-8.441e-4 c -0.1552185,-0.04031 -0.3177596,-0.036494 -0.47596,0.00254 -0.0028,-6.493e-4 -0.00561,-0.0019 -0.00841,-0.00254 C 4.6697668,5.7371544 4.2732589,5.8508084 3.9327496,6.0953109 3.5922417,6.3393343 3.2901261,6.7233925 2.9926655,7.2239188 2.3977487,8.225067 1.8595698,9.9759966 1.6949778,10.770368 1.5303874,11.564836 1.3400978,12.487019 1.2604436,13.172148 1.4020409,12.516106 1.6640616,11.530107 1.8818119,10.773749 2.0995608,10.017298 2.7616009,8.3028733 3.3308259,7.4445681 3.6154621,7.0154816 3.9182608,6.6809562 4.1736893,6.4858854 4.0213168,6.6913729 3.8762375,6.9382177 3.7332355,7.2239188 3.2332408,8.2229551 2.8865701,9.5460615 2.6917037,10.712036 c -0.1948648,1.165877 -0.2891258,2.512526 -0.2891258,2.512526 0,0 0.2394406,-1.308543 0.4624332,-2.468567 C 3.0880021,9.5960699 3.5386776,8.3511006 4.0062999,7.4166698 4.2401118,6.9494545 4.6256897,6.6388414 4.8432452,6.4537602 4.9223137,6.3864612 4.9965914,6.3363319 5.067275,6.3024338 5.105429,6.3163618 5.144736,6.3322898 5.1856343,6.3514678 5.0335997,6.5858489 4.8943159,6.8866619 4.7578619,7.2518171 4.3862933,8.2460536 4.0758312,9.6712797 3.8930191,10.867589 3.710207,12.063898 3.6782875,13.045337 3.6782875,13.045337 c 0,0 0.1825952,-0.933087 0.4489079,-2.141397 C 4.3935066,9.6953446 4.794072,8.3566498 5.1450554,7.4175153 5.2764575,7.0658725 5.4321481,6.786393 5.5686006,6.5924057 c 0.1955967,0.1545755 0.3999457,0.3666825 0.5934693,0.6458851 -0.00295,0.014327 -0.00546,0.02771 -0.00841,0.04227 -0.1977065,0.9836766 -0.3994852,2.4892828 -0.541056,4.4315822 l -0.0093,1.298533 0.2713734,-1.271481 c 0.1262385,-1.731989 0.3654475,-3.1087449 0.5512,-4.0604515 0.087154,0.1683705 0.169939,0.3536868 0.2451669,0.5579634 0.295997,0.8037011 0.6056137,1.8574061 0.8639974,3.1601021 0.074687,0.535591 0.1445039,1.113539 0.2079682,1.735603 -0.1966812,0.006 -0.3989807,0.02007 -0.608687,0.04481 l 0.0059,0.01107 c -1.9246816,0.254783 -3.2882709,1.231926 -5.0537904,1.175092 l 0,0.398184 5.8949676,0 0.037196,0 5.894967,0 0,-0.398184 c -1.765518,0.05683 -3.129107,-0.920309 -5.0537945,-1.175104 l 0.0059,-0.01107 C 8.6559651,13.152471 8.4536654,13.138484 8.2569829,13.132405 8.320456,12.510339 8.3902588,11.932391 8.4649511,11.3968 8.7233347,10.094105 9.0329515,9.0404 9.32895,8.2366988 9.4041823,8.0324222 9.4869629,7.847106 9.5741153,7.6787354 9.7598679,8.630442 9.9990695,10.007197 10.125314,11.739188 l 0.271374,1.271479 -0.0093,-1.298533 C 10.245825,9.7698366 10.044044,8.2642293 9.8463386,7.2805523 c -0.00295,-0.014562 -0.00546,-0.027942 -0.00841,-0.04227 0.1935234,-0.2792025 0.3978734,-0.4913095 0.5934694,-0.6458849 0.136449,0.1939872 0.292139,0.4734667 0.423546,0.8251095 0.350983,0.9391346 0.751548,2.2778295 1.01786,3.4864261 0.266312,1.208309 0.448907,2.141396 0.448907,2.141396 0,0 -0.03191,-0.981439 -0.214732,-2.177748 C 11.924168,9.6712713 11.613707,8.2460454 11.242138,7.2518088 11.10569,6.8866538 10.9664,6.5858407 10.814365,6.3514587 c 0.0409,-0.019178 0.0802,-0.035112 0.11836,-0.049033 0.07069,0.033898 0.144961,0.084028 0.224029,0.1513263 0.217556,0.1850813 0.603136,0.4956943 0.836946,0.9629098 0.467622,0.9344306 0.918297,2.1793998 1.141289,3.3393262 0.222992,1.160023 0.462432,2.468565 0.462432,2.468565 0,0 -0.09427,-1.346647 -0.289125,-2.512524 C 13.113431,9.5460538 12.766759,8.2229474 12.266764,7.2239111 12.123765,6.93821 11.978684,6.6913652 11.82631,6.4858776 c 0.255429,0.1950709 0.558229,0.5295963 0.842863,0.9586827 0.569225,0.8583052 1.231265,2.5727297 1.449015,3.3291807 0.21775,0.756358 0.479776,1.742358 0.621368,2.398398 -0.07966,-0.685128 -0.269944,-1.607311 -0.434534,-2.40178 C 14.14043,9.9759886 13.602249,8.2250589 13.007333,7.2239107 12.709873,6.7233843 12.407757,6.3393262 12.067249,6.0953028 11.726741,5.8507996 11.330232,5.7371458 10.95724,5.8197027 c -0.0028,6.304e-4 -0.0056,0.00188 -0.0084,0.00254 -0.1582,-0.039029 -0.320741,-0.042845 -0.475958,-0.00254 l 0,8.441e-4 c -0.04962,0.012955 -0.09778,0.030258 -0.145405,0.050723 -0.01732,-0.00851 -0.03511,-0.016298 -0.05326,-0.023672 l 0,8.441e-4 0,8.439e-4 0,8.441e-4 c -0.141744,-0.057598 -0.3097511,-0.050879 -0.4556685,0 C 9.6894337,5.8952275 9.57764,5.9697826 9.4769934,6.0724709 9.4316682,5.996464 9.3785083,5.9317101 9.3053769,5.8763384 9.252763,5.8360192 9.1877259,5.803089 9.1067084,5.7934898 l 0,8.44e-4 0,8.441e-4 c -0.081016,-0.0048 -0.141317,0.017512 -0.199514,0.054951 -0.1163969,0.075646 -0.1976977,0.1772816 -0.2561558,0.302653 -0.058457,0.125372 -0.092746,0.3048507 -0.142881,0.495404 C 8.4426186,6.8974062 8.3781425,7.1995376 8.3170979,7.569671 8.4608936,5.2680486 8.6412919,3.7384193 8.8395547,2.806692 c 0.00457,-0.021156 0.00959,-0.044648 0.014312,-0.066787 0.069154,0.2636035 0.1307824,0.5402143 0.1597805,0.7152076 0.049073,0.2961495 0.2502379,1.6282389 0.2502379,1.6282389 0.0059,0 -0.042772,-1.2052625 -0.090459,-1.6333113 C 9.1388714,3.139787 9.0383501,2.6459866 8.9561582,2.3036788 9.0257839,2.0384372 9.1043846,1.8141927 9.1776517,1.8141927 9.2219587,1.8150557 9.2782467,1.9190739 9.367022,2.0652763 9.4939831,2.2743568 9.7873419,2.8259762 9.9773998,3.5151358 10.147068,4.2231105 10.283888,4.6325631 10.358675,5.2794839 10.310398,4.6364029 10.308761,4.2128263 10.165077,3.4720204 10.0214,2.731215 9.8449635,2.1328343 9.7660499,1.9046504 9.6680812,1.6213647 9.5370037,1.4339165 9.3433502,1.304417 9.2828279,1.2642188 9.1971938,1.2371918 9.1167841,1.2384754 9.0685371,1.2392464 9.0229761,1.2503524 8.9848951,1.2748274 8.8833706,1.3401054 8.8431798,1.4382416 8.791299,1.5445097 8.7783151,1.5710527 8.7650221,1.5990577 8.7524071,1.6282037 8.7079076,1.5067281 8.6645152,1.4056458 8.628131,1.3652842 8.5571774,1.2866628 8.5423198,1.2454303 8.4210083,1.2452371 8.3107049,1.2450478 8.0894504,1.5054269 7.9999993,2.2639431 7.9105438,1.5054269 7.6892908,1.2450624 7.5789904,1.2452371 7.4576803,1.2454265 7.4428227,1.2866628 7.3718676,1.3652842 7.3354834,1.4056461 7.2920909,1.5067281 7.2475918,1.6282035 7.2350507,1.5990577 7.2216685,1.5710525 7.2086994,1.5445094 7.1568232,1.4382414 7.1166177,1.3401046 7.0151034,1.2748271 6.9770373,1.2503483 6.9314611,1.2392456 6.8832145,1.2384754 z M 7.593336,1.8395624 C 7.666651,1.839373 7.7561191,2.0642588 7.8283563,3.1127335 7.8601513,3.574232 7.8746853,4.6351833 7.8858393,6.1553252 7.7693242,4.4670605 7.6331063,3.258553 7.4851203,2.4744571 7.4543723,2.3115683 7.4212932,2.1684672 7.3870483,2.0416127 7.4631069,1.908511 7.5420381,1.8396976 7.5933257,1.8395624 z m 0.8132735,0 c 0.051286,1.352e-4 0.1302217,0.068948 0.2062773,0.2020503 -0.03423,0.1268548 -0.067324,0.2699556 -0.098072,0.4328444 C 8.3668289,3.258553 8.2306139,4.4670605 8.1140959,6.1553252 8.1253094,4.6351833 8.1397833,3.574232 8.1715789,3.1127335 8.2438161,2.0642588 8.3332805,1.8393703 8.4065992,1.8395624 z m -1.5132647,4.477234 c 0.010476,0.01632 0.017218,5.42e-5 0.028741,0.027898 0.041179,0.088317 0.1485275,0.2394666 0.2265661,0.404101 C 7.306004,7.0807514 7.4222356,7.596791 7.5062571,8.271359 7.5585171,8.6909503 7.6132998,9.1756204 7.6668816,9.7245999 7.5759363,9.1578147 7.4790784,8.6547682 7.377756,8.2172532 7.2179445,7.5272297 7.0558018,6.9825074 6.8654443,6.5932414 c -0.018517,-0.03786 -0.036989,-0.073808 -0.055801,-0.1090567 0.020819,-0.041495 0.040545,-0.08011 0.055801,-0.1124383 0.016569,-0.034559 0.013574,-0.033832 0.027901,-0.054951 z m 2.2132559,0 c 0.014312,0.021119 0.011361,0.020392 0.0279,0.054951 0.015242,0.032328 0.034982,0.070944 0.055801,0.1124383 -0.018797,0.035248 -0.037285,0.071197 -0.055801,0.1090567 C 8.9441437,6.9825084 8.782001,7.5272307 8.6221895,8.2172542 8.5208714,8.6547693 8.4240121,9.1578158 8.3330636,9.7246006 8.3866513,9.1756211 8.4414194,8.690951 8.4936896,8.2713597 8.5777155,7.5967917 8.6939412,7.0807521 8.8512932,6.7487959 8.9293289,6.5841616 9.0366858,6.433012 9.0778593,6.344695 9.0893673,6.316856 9.0960953,6.333113 9.1066003,6.316797 z M 6.3421451,6.466432 c 0.00339,0.00326 0.00679,0.00679 0.010181,0.010151 -3.63e-4,0.00113 -4.84e-4,0.00225 -8.439e-4,0.00338 -0.0031,-0.00447 -0.0062,-0.00909 -0.0093,-0.013529 z m 3.3156553,0 c -0.0031,0.00444 -0.0062,0.00906 -0.0093,0.013529 -3.615e-4,-0.00113 -4.81e-4,-0.00225 -8.439e-4,-0.00338 0.00339,-0.00336 0.00679,-0.00687 0.010181,-0.010151 z M 6.6202819,6.906885 C 6.7621743,7.2079443 6.9359199,7.6141195 7.0658067,8.1022795 6.9196208,7.6393787 6.7739232,7.2468654 6.6135185,6.923793 c 0.00207,-0.00574 0.00457,-0.011242 0.00679,-0.016908 z m 2.7593831,0 c 0.00207,0.00566 0.00457,0.011169 0.00679,0.016908 C 9.2260474,7.2468658 9.0803572,7.6393791 8.9341639,8.1022798 9.0640463,7.61412 9.2377903,7.2079447 9.3796901,6.9068855 z"
     id="path3900"
     inkscape:connector-curvature="0" />
</svg>
