<svg width="12" height="12" viewBox="0 0 12 12" fill="none" xmlns="http://www.w3.org/2000/svg">
<path d="M7.5 2C8.05228 2 8.5 2.44772 8.5 3V3.5C8.5 3.77614 8.72386 4 9 4C9.27614 4 9.5 3.77614 9.5 3.5V3C9.5 1.89543 8.60457 1 7.5 1C6.39543 1 5.5 1.89543 5.5 3V3.16841C5.27269 3.06042 5.0184 3 4.75 3C3.7835 3 3 3.7835 3 4.75V5C3 5.27614 3.22386 5.5 3.5 5.5C3.77614 5.5 4 5.27614 4 5V4.75C4 4.33579 4.33579 4 4.75 4C5.16421 4 5.5 4.33579 5.5 4.75V6H3C3 7.10457 3.89543 8 5 8V9H2C2 10.1046 2.89543 11 4 11H8C9.10457 11 10 10.1046 10 9H7V8C8.10457 8 9 7.10457 9 6H6.5V3C6.5 2.44772 6.94772 2 7.5 2Z" fill="white"/>
<g opacity="0.5">
<path d="M3.5 2C3.5 1.44772 3.94772 1 4.5 1C5.05228 1 5.5 1.44772 5.5 2V7H6.5V2C6.5 0.895431 5.60457 0 4.5 0C3.39543 0 2.5 0.895431 2.5 2V2.5C2.5 2.77614 2.72386 3 3 3C3.27614 3 3.5 2.77614 3.5 2.5V2Z" fill="white"/>
<path d="M9 5.5C9 5.22386 8.77614 5 8.5 5C8.22386 5 8 5.22386 8 5.5V6H7V5.5C7 4.67157 7.67157 4 8.5 4C9.32843 4 10 4.67157 10 5.5V6C10 6.27614 9.77614 6.5 9.5 6.5C9.22386 6.5 9 6.27614 9 6V5.5Z" fill="white"/>
</g>
</svg>
