<?xml version="1.0" encoding="UTF-8" standalone="no"?>
<!-- Created with Inkscape (http://www.inkscape.org/) -->

<svg
   xmlns:dc="http://purl.org/dc/elements/1.1/"
   xmlns:cc="http://creativecommons.org/ns#"
   xmlns:rdf="http://www.w3.org/1999/02/22-rdf-syntax-ns#"
   xmlns:svg="http://www.w3.org/2000/svg"
   xmlns="http://www.w3.org/2000/svg"
   xmlns:sodipodi="http://sodipodi.sourceforge.net/DTD/sodipodi-0.dtd"
   xmlns:inkscape="http://www.inkscape.org/namespaces/inkscape"
   version="1.0"
   width="580"
   height="580"
   id="svg2"
   sodipodi:version="0.32"
   inkscape:version="0.91 r"
   sodipodi:docname="funeral_directors.svg"
   inkscape:output_extension="org.inkscape.output.svg.inkscape">
  <metadata
     id="metadata10">
    <rdf:RDF>
      <cc:Work
         rdf:about="">
        <dc:format>image/svg+xml</dc:format>
        <dc:type
           rdf:resource="http://purl.org/dc/dcmitype/StillImage" />
        <cc:license
           rdf:resource="http://web.resource.org/cc/PublicDomain" />
        <dc:language>en</dc:language>
        <dc:title></dc:title>
      </cc:Work>
    </rdf:RDF>
  </metadata>
  <sodipodi:namedview
     inkscape:window-height="1004"
     inkscape:window-width="1920"
     inkscape:pageshadow="2"
     inkscape:pageopacity="0.0"
     guidetolerance="10.0"
     gridtolerance="10.0"
     objecttolerance="10.0"
     borderopacity="1.0"
     bordercolor="#666666"
     pagecolor="#ffffff"
     id="base"
     showgrid="false"
     inkscape:zoom="0.56324712"
     inkscape:cx="576.802"
     inkscape:cy="556.17223"
     inkscape:window-x="1680"
     inkscape:window-y="0"
     inkscape:current-layer="svg2"
     inkscape:window-maximized="1" />
  <defs
     id="defs4">
    <inkscape:perspective
       sodipodi:type="inkscape:persp3d"
       inkscape:vp_x="0 : 290 : 1"
       inkscape:vp_y="0 : 1000 : 0"
       inkscape:vp_z="580 : 290 : 1"
       inkscape:persp3d-origin="290 : 193.33333 : 1"
       id="perspective12" />
    <inkscape:perspective
       id="perspective2539"
       inkscape:persp3d-origin="16 : 10.666667 : 1"
       inkscape:vp_z="32 : 16 : 1"
       inkscape:vp_y="0 : 1000 : 0"
       inkscape:vp_x="0 : 16 : 1"
       sodipodi:type="inkscape:persp3d" />
  </defs>
  <g
     id="g1327">
    <path
       d="M 66.275,1.768 C 24.94,1.768 1.704,23.139 1.704,66.804 L 1.704,516.927 C 1.704,557.771 22.598,579.156 63.896,579.156 L 515.92,579.156 C 557.227,579.156 578.149,558.84 578.149,516.927 L 578.149,66.804 C 578.149,24.203 557.227,1.768 514.627,1.768 C 514.624,1.768 66.133,1.625 66.275,1.768 z"
       style="fill:#111111;stroke:#eeeeee;stroke-width:3.40799999"
       id="path1329" />
  </g>
  <path
     inkscape:connector-curvature="0"
     d="m 332.97804,514.05325 43.98842,-308.42026 c 1.15696,-3.82508 1.10974,-7.70525 -0.17315,-11.56968 L 332.62386,63.160572 C 329.12935,53.84973 320.66852,47.828774 311.09009,47.828774 l -107.82633,0 c -9.58631,0 -18.03926,6.020956 -21.6361,15.623004 L 138.33972,194.08691 c -1.18845,3.5811 -1.18845,6.90247 -1.18845,9.57845 0,0.51158 0.0472,1.03104 0.14954,1.53475 l 43.32729,309.00268 c 2.39264,10.75115 11.16829,17.96843 21.84861,17.96843 l 108.61338,0 c 10.68031,0 19.46383,-7.21728 21.88795,-18.11797 z m -14.99234,-310.60116 -48.28955,0 0,115.89493 -28.97373,0 0,-115.89493 -48.28955,0 0,-28.97374 48.28955,0 0,-67.60537 28.97373,0 0,67.60537 48.28955,0 z"
     id="path7"
     style="fill:#ffffff;fill-opacity:1;stroke:none"
     sodipodi:nodetypes="ccccssccsccsscccccccccccccc" />
  <g
     id="g9"
     transform="matrix(7.8705346,0,0,7.8705346,93.86333,47.828774)"
     style="fill:#ffffff;fill-opacity:1;stroke:none">
    <path
       inkscape:connector-curvature="0"
       d="M 44.151,18.59 38.736,1.949 C 38.292,0.765 37.219,0 36,0 l -4.473,0 c 0.275,0.375 0.51,0.789 0.681,1.245 l 0.012,0.032 0.012,0.032 5.614,16.641 c 0.279,0.842 0.303,1.73 0.068,2.576 l -5.581,39.144698 c -0.156,0.704 -0.454,1.327 -0.841,1.868 l 4.508,0 c 1.356,0 2.473,-0.917 2.78,-2.306 L 44.27,20.045 C 44.439,19.46 44.267,18.939 44.151,18.59 Z"
       id="path11"
       style="fill:#ffffff;fill-opacity:1;stroke:none"
       sodipodi:nodetypes="ccscsccccccsccc" />
  </g>
</svg>
