<svg width="48" height="48" viewBox="0 0 48 48" fill="none" xmlns="http://www.w3.org/2000/svg">
<path opacity="0.7" fill-rule="evenodd" clip-rule="evenodd" d="M40 16H8V36C8 38.2091 9.79086 40 12 40H36C38.2091 40 40 38.2091 40 36V16ZM20.1406 20C21.3233 20 22.4496 20.5058 23.2353 21.3897L24 22.25L24.7647 21.3897C25.5504 20.5058 26.6767 20 27.8594 20C30.1462 20 32 21.8538 32 24.1406V24.2426C32 25.3679 31.553 26.447 30.7574 27.2426L24 34L17.2426 27.2426C16.447 26.447 16 25.3679 16 24.2426V24.1406C16 21.8538 17.8538 20 20.1406 20Z" fill="white"/>
<path d="M6 16H42V8H6V16Z" fill="white"/>
</svg>
