<svg width="580" height="580" viewBox="0 0 580 580" fill="none" xmlns="http://www.w3.org/2000/svg">
<g clip-path="url(#clip0)">
<path d="M66.275 1.76802C24.94 1.76802 1.70398 23.139 1.70398 66.804V516.927C1.70398 557.771 22.599 579.156 63.896 579.156H515.92C557.227 579.156 578.149 558.841 578.149 516.927V66.804C578.149 24.203 557.227 1.76802 514.628 1.76802C514.624 1.76802 66.133 1.62502 66.275 1.76802Z" fill="#111111" stroke="#EEEEEE" stroke-width="3.408"/>
<path d="M290.002 106.694C200.73 106.694 120.696 141.109 61.0222 198.652C58.2621 201.331 56.0567 204.527 54.532 208.058C53.0074 211.59 52.1933 215.387 52.1363 219.233C52.0793 223.078 52.7804 226.898 54.1998 230.473C55.6191 234.048 57.7288 237.308 60.4083 240.068C63.0878 242.827 66.2847 245.032 69.8163 246.556C73.348 248.08 77.1452 248.893 80.9912 248.949C84.8372 249.005 88.6565 248.303 92.2311 246.883C95.8057 245.462 99.0656 243.352 101.824 240.672C151.281 192.982 215.578 165.157 290.002 165.157C364.426 165.157 428.723 192.982 478.179 240.672C480.938 243.352 484.198 245.462 487.773 246.882C491.347 248.302 495.166 249.004 499.012 248.947C502.858 248.891 506.655 248.078 510.186 246.554C513.718 245.03 516.915 242.826 519.594 240.066C522.273 237.307 524.383 234.047 525.802 230.472C527.222 226.897 527.923 223.078 527.866 219.232C527.809 215.386 526.995 211.589 525.471 208.058C523.946 204.527 521.741 201.331 518.981 198.652C459.307 141.109 379.274 106.694 290.002 106.694ZM290.002 204.133C225.424 204.133 167.069 230.845 124.966 272.948C119.475 278.44 116.389 285.888 116.389 293.654C116.389 301.42 119.475 308.868 124.966 314.359C130.457 319.851 137.905 322.936 145.672 322.936C153.438 322.936 160.886 319.851 166.377 314.359C198.327 282.41 241.552 262.595 290.002 262.595C338.452 262.595 381.677 282.41 413.626 314.359C419.119 319.847 426.566 322.928 434.329 322.926C442.093 322.925 449.538 319.84 455.028 314.35C460.518 308.86 463.603 301.415 463.605 293.651C463.606 285.887 460.525 278.441 455.038 272.948C412.934 230.845 354.58 204.133 290.002 204.133ZM290.002 301.571C250.296 301.571 213.423 318.392 188.301 346.027C185.7 348.866 183.684 352.189 182.368 355.807C181.052 359.425 180.461 363.267 180.63 367.113C180.799 370.96 181.724 374.735 183.352 378.224C184.981 381.713 187.281 384.846 190.12 387.446C192.96 390.046 196.284 392.061 199.903 393.376C203.521 394.69 207.364 395.279 211.21 395.109C215.056 394.939 218.831 394.012 222.319 392.382C225.807 390.753 228.94 388.452 231.539 385.611C245.392 370.373 267.347 360.034 290.002 360.034C312.656 360.034 334.612 370.373 348.465 385.611C351.063 388.452 354.196 390.753 357.684 392.382C361.173 394.012 364.948 394.939 368.794 395.109C372.64 395.279 376.482 394.69 380.101 393.376C383.72 392.061 387.044 390.046 389.883 387.446C392.723 384.846 395.023 381.713 396.651 378.224C398.28 374.735 399.205 370.96 399.374 367.113C399.543 363.267 398.952 359.425 397.636 355.807C396.32 352.189 394.304 348.866 391.703 346.027C366.58 318.392 329.708 301.571 290.002 301.571ZM290.002 402.663C270.629 402.663 254.681 418.611 254.681 437.984C254.681 457.357 270.629 473.305 290.002 473.305C309.375 473.305 325.323 457.357 325.323 437.984C325.323 418.611 309.375 402.663 290.002 402.663Z" fill="white"/>
</g>
<defs>
<clipPath id="clip0">
<path d="M0 0H580V580H0V0Z" fill="white"/>
</clipPath>
</defs>
</svg>
