<svg width="580" height="580" viewBox="0 0 580 580" fill="none" xmlns="http://www.w3.org/2000/svg">
<g clip-path="url(#clip0)">
<path d="M66.2751 1.7679C24.9401 1.7679 1.7041 23.1389 1.7041 66.8039V516.927C1.7041 557.771 22.5991 579.156 63.8961 579.156H515.92C557.227 579.156 578.149 558.841 578.149 516.927V66.8039C578.149 24.2029 557.227 1.7679 514.628 1.7679C514.624 1.7679 66.1331 1.6249 66.2751 1.7679Z" fill="#111111" stroke="#EEEEEE" stroke-width="3.408"/>
<path opacity="0.914" fill-rule="evenodd" clip-rule="evenodd" d="M291.859 66.8047L55.334 176.389L54.248 523.582L529.469 531.176L522.959 176.389L291.859 66.8047ZM111.443 227.842H468.557V457.414H111.443V227.842ZM121.646 253.35L221.129 334.975L142.053 424.254L249.188 355.381L290 383.439L333.363 355.381L440.498 424.254L361.422 334.975L458.354 253.35L290 350.279L121.646 253.35Z" fill="white"/>
<path d="M289.999 37.0337L37.0951 146.626V167.685H36.9724V542.966H543.028V167.685H542.905V146.626L289.999 37.0337ZM289.999 95.6483L514.652 192.999V513.612H65.3485V192.996L289.999 95.6483Z" fill="white"/>
</g>
<defs>
<clipPath id="clip0">
<path d="M0 0H580V580H0V0Z" fill="white"/>
</clipPath>
</defs>
</svg>
