<?xml version="1.0" encoding="UTF-8" standalone="no"?>
<!-- Created with Inkscape (http://www.inkscape.org/) -->

<svg
   xmlns:dc="http://purl.org/dc/elements/1.1/"
   xmlns:cc="http://creativecommons.org/ns#"
   xmlns:rdf="http://www.w3.org/1999/02/22-rdf-syntax-ns#"
   xmlns:svg="http://www.w3.org/2000/svg"
   xmlns="http://www.w3.org/2000/svg"
   xmlns:sodipodi="http://sodipodi.sourceforge.net/DTD/sodipodi-0.dtd"
   xmlns:inkscape="http://www.inkscape.org/namespaces/inkscape"
   version="1.0"
   width="580"
   height="580"
   id="svg2"
   sodipodi:version="0.32"
   inkscape:version="0.91 r"
   sodipodi:docname="public_building2.svg"
   inkscape:output_extension="org.inkscape.output.svg.inkscape">
  <metadata
     id="metadata2975">
    <rdf:RDF>
      <cc:Work
         rdf:about="">
        <dc:format>image/svg+xml</dc:format>
        <dc:type
           rdf:resource="http://purl.org/dc/dcmitype/StillImage" />
        <cc:license
           rdf:resource="http://web.resource.org/cc/PublicDomain" />
        <dc:language>en</dc:language>
        <dc:title />
      </cc:Work>
    </rdf:RDF>
  </metadata>
  <sodipodi:namedview
     inkscape:window-height="1004"
     inkscape:window-width="1920"
     inkscape:pageshadow="2"
     inkscape:pageopacity="0.0"
     guidetolerance="10.0"
     gridtolerance="10.0"
     objecttolerance="10.0"
     borderopacity="1.0"
     bordercolor="#666666"
     pagecolor="#ffffff"
     id="base"
     inkscape:zoom="0.92167714"
     inkscape:cx="441.30023"
     inkscape:cy="290.2875"
     inkscape:window-x="1680"
     inkscape:window-y="0"
     inkscape:current-layer="svg2"
     showgrid="false"
     inkscape:window-maximized="1" />
  <defs
     id="defs4">
    <inkscape:perspective
       sodipodi:type="inkscape:persp3d"
       inkscape:vp_x="0 : 290 : 1"
       inkscape:vp_y="0 : 1000 : 0"
       inkscape:vp_z="580 : 290 : 1"
       inkscape:persp3d-origin="290 : 193.33333 : 1"
       id="perspective2441" />
    <inkscape:perspective
       id="perspective3452"
       inkscape:persp3d-origin="30 : 20 : 1"
       inkscape:vp_z="60 : 30 : 1"
       inkscape:vp_y="0 : 1000 : 0"
       inkscape:vp_x="0 : 30 : 1"
       sodipodi:type="inkscape:persp3d" />
    <symbol
       viewBox="244.5 110 489 219.9"
       id="symbol-university">
      <path
         id="path4460"
         d="M79,43l57,119c0,0,21-96,104-96s124,106,124,106l43-133l82-17L0,17L79,43z" />
      <path
         id="path4462"
         d="M94,176l-21,39"
         stroke-width="20"
         stroke="#000000"
         fill="none" />
      <path
         id="path4464"
         d="M300,19c0,10.5-22.6,19-50.5,19S199,29.5,199,19s22.6-19,50.5-19S300,8.5,300,19z" />
      <path
         id="path4466"
         d="M112,216l-16-38L64,88c0,0-9-8-4-35s16-24,16-24"
         stroke-width="20"
         stroke="#000000"
         ill="none" />
    </symbol>
    <inkscape:perspective
       id="perspective4471"
       inkscape:persp3d-origin="372.04724 : 350.78739 : 1"
       inkscape:vp_z="744.09448 : 526.18109 : 1"
       inkscape:vp_y="0 : 1000 : 0"
       inkscape:vp_x="0 : 526.18109 : 1"
       sodipodi:type="inkscape:persp3d" />
    <inkscape:perspective
       id="perspective4668"
       inkscape:persp3d-origin="6 : 4 : 1"
       inkscape:vp_z="12 : 6 : 1"
       inkscape:vp_y="0 : 1000 : 0"
       inkscape:vp_x="0 : 6 : 1"
       sodipodi:type="inkscape:persp3d" />
    <inkscape:perspective
       id="perspective4904"
       inkscape:persp3d-origin="16 : 10.666667 : 1"
       inkscape:vp_z="32 : 16 : 1"
       inkscape:vp_y="0 : 1000 : 0"
       inkscape:vp_x="0 : 16 : 1"
       sodipodi:type="inkscape:persp3d" />
  </defs>
  <g
     id="g1327">
    <path
       d="M 66.275,1.768 C 24.94,1.768 1.704,23.139 1.704,66.804 L 1.704,516.927 C 1.704,557.771 22.599,579.156 63.896,579.156 L 515.92,579.156 C 557.227,579.156 578.149,558.841 578.149,516.927 L 578.149,66.804 C 578.149,24.203 557.227,1.768 514.628,1.768 C 514.624,1.768 66.133,1.625 66.275,1.768 z "
       style="fill:#111;stroke:#eee;stroke-width:3.40799999"
       id="path1329" />
  </g>
  <g
     id="g4372"
     transform="translate(-166.49217,52.019299)" />
  <path
     style="font-style:normal;font-variant:normal;font-weight:normal;font-stretch:normal;font-size:40px;line-height:125%;font-family:NPSPICT3;-inkscape-font-specification:NPSPICT3;text-align:start;writing-mode:lr-tb;text-anchor:start;fill:#ffffff;fill-opacity:1;stroke:none"
     d="m 119.62525,294.61587 c -11.19648,4.2e-4 -20.948965,4.05756 -29.24258,12.14164 -8.292862,8.08487 -12.439401,17.90737 -12.439797,29.50866 3.92e-4,11.61469 4.146936,21.49056 12.439797,29.57471 8.293614,8.08482 18.0461,12.108 29.24258,12.10767 0.41283,10e-6 0.81635,-0.0238 1.22473,-0.034 0.41302,0.0105 0.83925,0.0341 1.25681,0.034 11.19648,3.3e-4 20.91688,-4.02285 29.2105,-12.10767 8.29286,-8.08415 12.43941,-17.96001 12.4398,-29.57471 -3.8e-4,-11.60129 -4.14694,-21.42379 -12.4398,-29.50866 -8.29362,-8.08408 -18.01402,-12.14122 -29.2105,-12.14164 -0.41744,2e-5 -0.84392,0.0235 -1.25681,0.034 -0.40826,-0.0102 -0.81202,-0.034 -1.22473,-0.034 z m 343.96642,0 c -11.19648,4.2e-4 -20.94897,4.05756 -29.24258,12.14164 -8.29287,8.08487 -12.4394,17.90737 -12.4398,29.50866 3.9e-4,11.61469 4.14693,21.49056 12.4398,29.57471 8.29361,8.08482 18.0461,12.108 29.24258,12.10767 0.41282,10e-6 0.81635,-0.0238 1.22473,-0.034 0.41302,0.0105 0.83925,0.0341 1.25681,0.034 11.19647,3.3e-4 20.91688,-4.02285 29.2105,-12.10767 8.29285,-8.08415 12.43941,-17.96001 12.43979,-29.57471 -3.7e-4,-11.60129 -4.14694,-21.42379 -12.43979,-29.50866 -8.29362,-8.08408 -18.01403,-12.14122 -29.2105,-12.14164 -0.41745,2e-5 -0.84393,0.0235 -1.25681,0.034 -0.40826,-0.0102 -0.81202,-0.034 -1.22473,-0.034 z M 87.901126,387.27651 c -2.517992,6e-5 -4.784998,0.28988 -6.829433,0.83599 a 35.518095,35.518095 0 0 0 -4.10068,-0.1623 35.518095,35.518095 0 0 0 -34.654797,36.32866 l 0.739745,82.83071 a 35.518095,35.518095 0 0 0 24.962626,34.0396 l 0,10.90558 0,3.14392 52.831393,-1.55497 52.86348,1.55497 0,-3.14392 0,-12.44545 a 35.518095,35.518095 0 0 0 20.8242,-33.13569 l -0.74163,-82.8307 a 35.518095,35.518095 0 0 0 -33.43951,-35.61722 c -1.96417,-0.49254 -4.13244,-0.74912 -6.52371,-0.74918 l -65.931684,0 z m 343.966424,0 c -2.518,6e-5 -4.785,0.28988 -6.82944,0.83599 a 35.518095,35.518095 0 0 0 -4.10068,-0.1623 35.518095,35.518095 0 0 0 -34.6548,36.32866 l 0.73974,82.83071 a 35.518095,35.518095 0 0 0 24.96263,34.0396 l 0,10.90558 0,3.14392 52.8314,-1.55497 52.86347,1.55497 0,-3.14392 0,-12.44545 a 35.518095,35.518095 0 0 0 20.8242,-33.13569 l -0.74162,-82.8307 a 35.518095,35.518095 0 0 0 -33.43951,-35.61722 c -1.96417,-0.49254 -4.13245,-0.74912 -6.52372,-0.74918 l -65.93167,0 z"
     id="path8791"
     inkscape:connector-curvature="0" />
  <path
     style="font-size:12px;opacity:0.90399996;fill:#ffffff;fill-opacity:1;fill-rule:evenodd;stroke:none;stroke-width:0.93039989;stroke-opacity:1"
     d="m 288.75327,38.95088 -182.52458,138.96641 36.50416,0 0,101.14884 c 8.17848,3.00825 15.73286,7.74365 22.03761,13.88909 a 19.276487,19.276487 0 0 0 0.002,0.002 c 11.58064,11.2902 18.25911,27.11535 18.25963,43.30906 -4.1e-4,12.28425 -3.83779,24.35927 -10.74707,34.41891 15.24073,4.4139 28.35251,15.88306 35.3568,30.16349 l 5.13671,0 0,-206.95692 157.08262,0 0,206.95692 2.64007,0 c 7.772,-15.71433 22.95608,-28.00702 40.16702,-31.26367 -6.44687,-9.83655 -10.03334,-21.47524 -10.03373,-33.31873 5.5e-4,-16.19364 6.67896,-32.01884 18.25962,-43.30906 a 19.276487,19.276487 0 0 0 0.002,-0.002 c 4.14539,-4.04067 8.8326,-7.46275 13.87588,-10.19414 l 0,-104.84379 36.50605,0 L 288.75327,38.95088 Z"
     id="path645"
     inkscape:connector-curvature="0" />
  <path
     style="fill:#ffffff;fill-opacity:1;stroke:none;stroke-width:8.83197498;stroke-linecap:round;stroke-linejoin:round;stroke-miterlimit:4;stroke-dasharray:none;stroke-opacity:1"
     d="m 292.65624,268.17565 c -22.50317,29.31632 -45.02118,58.6191 -67.50682,87.95041 l 37.75257,0 0,86.49924 -37.75257,0 c 22.48564,29.33131 45.00365,58.6341 67.50682,87.95042 21.1756,-27.70647 42.34349,-55.42018 63.52313,-83.1232 l 2.35801,-3.07976 -35.81806,0 c -0.13846,-14.999 -0.29548,-29.99717 -0.43895,-44.99614 0.14347,-14.99895 0.30049,-29.99713 0.43895,-44.99613 l 35.81806,0 -2.35801,-3.07975 c -21.17964,-27.70305 -42.34753,-55.41862 -63.52313,-83.12509 z"
     id="path7850"
     inkscape:connector-curvature="0" />
  <path
     style="opacity:0.14;fill:#ffffff;fill-opacity:1;stroke:none;stroke-width:27.80186081;stroke-linecap:round;stroke-linejoin:round;stroke-miterlimit:4;stroke-dasharray:none;stroke-opacity:1"
     d="m 212.77913,397.02319 c 52.36096,1.2142 104.7219,2.4284 157.08285,3.6426 0,-68.92442 0,-137.84883 0,-206.77325 -52.36095,0 -104.72189,0 -157.08285,0 0,67.71021 0,135.42044 0,203.13065 z"
     id="path7856"
     inkscape:connector-curvature="0" />
  <path
     style="color:#000000;font-style:normal;font-variant:normal;font-weight:normal;font-stretch:normal;font-size:12px;line-height:normal;font-family:sans-serif;text-indent:0;text-align:start;text-decoration:none;text-decoration-line:none;text-decoration-style:solid;text-decoration-color:#000000;letter-spacing:normal;word-spacing:normal;text-transform:none;direction:ltr;block-progression:tb;writing-mode:lr-tb;baseline-shift:baseline;text-anchor:start;white-space:normal;clip-rule:nonzero;display:inline;overflow:visible;visibility:visible;opacity:1;isolation:auto;mix-blend-mode:normal;color-interpolation:sRGB;color-interpolation-filters:linearRGB;solid-color:#000000;solid-opacity:1;fill:#ffffff;fill-opacity:1;fill-rule:nonzero;stroke:none;stroke-width:14.98928642;stroke-linecap:butt;stroke-linejoin:round;stroke-miterlimit:4;stroke-dasharray:none;stroke-dashoffset:0;stroke-opacity:1;color-rendering:auto;image-rendering:auto;shape-rendering:auto;text-rendering:auto;enable-background:accumulate"
     d="m 288.75327,24.467349 a 7.2420319,7.2420319 0 0 0 -4.36299,1.553087 l -0.0245,-0.07171 -182.52269,138.964534 a 7.2420319,7.2420319 0 0 0 4.38563,13.00403 l 29.26334,0 0,98.98999 c 5.02826,1.17052 9.89807,2.97648 14.48353,5.36315 l 0,-111.59396 a 7.2420319,7.2420319 0 0 0 -7.24271,-7.2427 l -15.03645,0 161.05687,-122.622205 161.05687,122.622205 -15.03834,0 a 7.2420319,7.2420319 0 0 0 -7.24083,7.2427 l 0,116.66462 c 4.46384,-3.2762 9.3463,-5.93395 14.48354,-7.91641 l 0,-101.50739 29.26334,0 a 7.2420319,7.2420319 0 0 0 4.38563,-13.00403 L 293.1389,25.948726 l -0.004,0.0094 a 7.2420319,7.2420319 0 0 0 -4.38186,-1.490812 z M 203.40705,393.60775 c 3.06909,4.473 5.51552,9.35246 7.17667,14.48164 l 41.66538,0 75.51252,0 41.7673,0 c 1.67948,-5.13079 4.15093,-10.00992 7.24082,-14.48164 l -49.00812,0 -75.51252,0 -48.84205,0 z"
     id="path3198-8"
     inkscape:connector-curvature="0" />
</svg>
