<svg width="580" height="580" viewBox="0 0 580 580" fill="none" xmlns="http://www.w3.org/2000/svg">
<g clip-path="url(#clip0)">
<path d="M66.2751 1.7679C24.9401 1.7679 1.7041 23.1389 1.7041 66.8039V516.927C1.7041 557.771 22.5991 579.156 63.8961 579.156H515.92C557.227 579.156 578.149 558.841 578.149 516.927V66.8039C578.149 24.2029 557.227 1.7679 514.628 1.7679C514.624 1.7679 66.1331 1.6249 66.2751 1.7679Z" fill="#111111" stroke="#EEEEEE" stroke-width="3.408"/>
<path d="M105.973 423.397C91.2953 423.397 69.5916 435.874 49.583 445.806L49.0273 515.578C70.0223 505.52 92.5184 492.245 105.973 492.245C128.998 492.245 172.919 526.67 197.297 526.67C219.01 526.67 265.438 492.245 288.622 492.245C311.646 492.245 358.107 526.67 379.946 526.67C402.971 526.67 449.6 492.245 471.27 492.245C484.833 492.245 508.174 505.73 529.385 515.82L530.973 446.161C510.324 435.843 486.307 422.556 471.271 423.397C449.432 423.397 404.363 457.821 379.946 457.821C359.63 457.821 311.647 423.397 288.622 423.397C265.597 423.397 217.658 457.821 197.297 457.821C175.585 457.821 130.352 423.397 105.973 423.397V423.397ZM212.545 182.434C184.783 182.435 152.301 216.848 152.301 268.485V388.971H193.222V259.639C193.222 238.898 213.934 235.541 222.028 235.541V388.971H357.972V235.541C366.15 235.541 385.461 239.016 386.778 259.639V388.971H427.699V268.485C427.699 216.848 395.217 182.421 367.456 182.423L212.545 182.434ZM290 33.3303C256.729 33.3303 229.757 60.3027 229.757 93.5735C229.757 126.844 256.729 153.817 290 153.817C323.271 153.817 350.243 126.844 350.243 93.5735C350.243 60.3027 323.271 33.3303 290 33.3303Z" fill="white"/>
</g>
<defs>
<clipPath id="clip0">
<path d="M0 0H580V580H0V0Z" fill="white"/>
</clipPath>
</defs>
</svg>
