<?xml version="1.0" encoding="UTF-8" standalone="no"?>
<!-- Created with Inkscape (http://www.inkscape.org/) -->

<svg
   xmlns:dc="http://purl.org/dc/elements/1.1/"
   xmlns:cc="http://creativecommons.org/ns#"
   xmlns:rdf="http://www.w3.org/1999/02/22-rdf-syntax-ns#"
   xmlns:svg="http://www.w3.org/2000/svg"
   xmlns="http://www.w3.org/2000/svg"
   xmlns:sodipodi="http://sodipodi.sourceforge.net/DTD/sodipodi-0.dtd"
   xmlns:inkscape="http://www.inkscape.org/namespaces/inkscape"
   version="1.0"
   width="580"
   height="580"
   id="svg2"
   sodipodi:version="0.32"
   inkscape:version="0.48.4 r9939"
   sodipodi:docname="car_wash.svg"
   inkscape:output_extension="org.inkscape.output.svg.inkscape">
  <metadata
     id="metadata10">
    <rdf:RDF>
      <cc:Work
         rdf:about="">
        <dc:format>image/svg+xml</dc:format>
        <dc:type
           rdf:resource="http://purl.org/dc/dcmitype/StillImage" />
        <cc:license
           rdf:resource="http://web.resource.org/cc/PublicDomain" />
        <dc:language>en</dc:language>
        <dc:title></dc:title>
      </cc:Work>
    </rdf:RDF>
  </metadata>
  <sodipodi:namedview
     inkscape:window-height="739"
     inkscape:window-width="1326"
     inkscape:pageshadow="2"
     inkscape:pageopacity="0.0"
     guidetolerance="10.0"
     gridtolerance="10.0"
     objecttolerance="10.0"
     borderopacity="1.0"
     bordercolor="#666666"
     pagecolor="#ffffff"
     id="base"
     showgrid="false"
     inkscape:zoom="0.70710678"
     inkscape:cx="110.31649"
     inkscape:cy="302.52538"
     inkscape:window-x="40"
     inkscape:window-y="1024"
     inkscape:current-layer="svg2"
     inkscape:window-maximized="1" />
  <defs
     id="defs4">
    <clipPath
       id="clipoutline2"
       clipPathUnits="userSpaceOnUse">
      <path
         d="M 55.8,12 L 56.56,12.16 C 65.4,9.22 85.24,20.8 80.82,31.12 C 79.7,32.74 79.89,35.62 81.24,37.43 L 56.43,62.25 C 55.04,60.86 51.95,60.89 50.53,62.25 L 9.5,101.63 C 5.76,105.22 8.7,108.27 10.28,109.88 L 17.64,117.24 C 19.25,118.84 23.5,121 26.52,117.8 L 65.24,76.99 C 66.59,75.57 66.6,72.52 65.24,71.12 C 65.24,71.12 65.25,71.1 65.24,71.1 L 90.15,46.2 C 92.78,48.57 95.263827,48.774854 97.62,48.13 C 102.17057,46.884568 104.70725,51.336643 107.43,54.59 L 106.2,55.8 C 104.38,57.64 104.55,60.74 106.59,62.78 C 108.63,64.82 111.74,64.99 113.56,63.17 L 121.7,55.04 C 123.52,53.2 123.35,50.1 121.3,48.07 C 119.46,46.22 116.79,45.98 114.93,47.3 C 109.35,41.04 112.28,40.1 104.92,31.95 L 91.13,17.86 C 81.2,8.12 68.3,8.13 55.8,12 z"
         id="outline2" />
    </clipPath>
    <clipPath
       id="clipoutline1"
       clipPathUnits="userSpaceOnUse">
      <path
         d="M 22.42,17.2 L 35.38,30.15 L 32.88,38.93 L 24.1,41.43 L 11.14,28.47 L 5.28,34.33 L 20.17,55.79 L 37.73,52.45 L 99.36,118.07 C 108.8,127.58 121.53,113.32 112.7,105.2 L 46.85,42.92 L 50.86,25.16 L 28.72,10.89 L 22.42,17.2 z M 103.48,109.17 C 105.16,107.49 107.88,107.49 109.56,109.17 C 111.24,110.85 111.24,113.57 109.56,115.25 C 107.88,116.92 105.16,116.92 103.48,115.25 C 101.8,113.57 101.8,110.85 103.48,109.17 z"
         id="outline1" />
    </clipPath>
    <inkscape:perspective
       sodipodi:type="inkscape:persp3d"
       inkscape:vp_x="0 : 290 : 1"
       inkscape:vp_y="0 : 1000 : 0"
       inkscape:vp_z="580 : 290 : 1"
       inkscape:persp3d-origin="290 : 193.33333 : 1"
       id="perspective12" />
    <style
       type="text/css"
       id="style6">
   
    .fil0 {fill:#EF7900}
   
  </style>
    <inkscape:perspective
       id="perspective6807"
       inkscape:persp3d-origin="29.116032 : 19.410688 : 1"
       inkscape:vp_z="58.232063 : 29.116032 : 1"
       inkscape:vp_y="0 : 1000 : 0"
       inkscape:vp_x="0 : 29.116032 : 1"
       sodipodi:type="inkscape:persp3d" />
    <inkscape:perspective
       id="perspective6954"
       inkscape:persp3d-origin="290 : 193.33333 : 1"
       inkscape:vp_z="580 : 290 : 1"
       inkscape:vp_y="0 : 1000 : 0"
       inkscape:vp_x="0 : 290 : 1"
       sodipodi:type="inkscape:persp3d" />
    <marker
       viewBox="0 0 10 10"
       refY="5"
       refX="10"
       orient="auto"
       markerWidth="4"
       markerUnits="strokeWidth"
       markerHeight="3"
       id="ArrowStart">
      <path
         id="path2295"
         d="M 10 0 L 0 5 L 10 10 z" />
    </marker>
    <marker
       viewBox="0 0 10 10"
       refY="5"
       refX="0"
       orient="auto"
       markerWidth="4"
       markerUnits="strokeWidth"
       markerHeight="3"
       id="ArrowEnd">
      <path
         id="path2292"
         d="M 0 0 L 10 5 L 0 10 z" />
    </marker>
    <inkscape:perspective
       id="perspective7597"
       inkscape:persp3d-origin="178.5405 : 158.483 : 1"
       inkscape:vp_z="357.08099 : 237.7245 : 1"
       inkscape:vp_y="0 : 1000 : 0"
       inkscape:vp_x="0 : 237.7245 : 1"
       sodipodi:type="inkscape:persp3d" />
  </defs>
  <g
     id="g1327"
     transform="translate(0.5,-0.5)">
    <path
       d="M 66.275,1.768 C 24.94,1.768 1.704,23.139 1.704,66.804 l 0,450.123 c 0,40.844 20.894,62.229 62.192,62.229 l 452.024,0 c 41.307,0 62.229,-20.316 62.229,-62.229 l 0,-450.123 c 0,-42.601 -20.922,-65.036 -63.522,-65.036 -0.003,0 -448.494,-0.143 -448.352,0 z"
       style="fill:#111111;stroke:#eeeeee;stroke-width:3.40799999"
       id="path1329"
       inkscape:connector-curvature="0" />
  </g>
  <path
     style="fill:#ffffff;stroke:none"
     d="m 465.5625,261.9375 c -19.7401,0 -30.1969,10.7916 -35.03125,23.40625 l -25.65625,66.25 c -10.17296,1.30445 -28.21875,13.25372 -28.21875,35.875 l 0,84.25 24.96875,0 0,26.96875 c 0,33.15401 46.93749,32.76354 46.9375,0 l 0,-26.96875 84.40625,0 0.0312,0 7,0 0,-120.8125 -7,0 -0.0312,0 -0.0625,0 -101.46875,0 19.34375,-52.125 c 2.41719,-7.32506 6.03945,-12.63999 14.5,-12.71875 l 67.625,0 0.0625,0 0.0312,0 7,0 0,-24.125 -37.71875,0 -36.71875,0 z m -39.71875,114.34375 c 11.9703,0 21.6875,9.97537 21.6875,22.3125 -10e-6,12.338 -9.7172,22.375 -21.6875,22.375 -11.96942,0 -21.65625,-10.03702 -21.65625,-22.375 0,-12.3371 9.68683,-22.3125 21.65625,-22.3125 z"
     id="path2301"
     inkscape:connector-curvature="0" />
  <g
     id="g2319"
     transform="translate(879.29125,36.805119)">
    <path
       id="path2323"
       style="fill:#ffffff;stroke:none"
       d="" />
  </g>
  <g
     id="g2325"
     transform="translate(879.29125,36.805119)">
    <path
       id="path2329"
       style="fill:#ffffff;stroke:none"
       d="" />
  </g>
  <path
     style="color:#000000;fill:#ffffff;fill-opacity:1;fill-rule:nonzero;stroke:none;stroke-width:19.89999962;marker:none;visibility:visible;display:inline;overflow:visible;enable-background:accumulate"
     d="M 176.4375 62.375 C 173.8255 62.382737 171.44507 62.420803 169.375 62.4375 C 168.28397 66.92957 164.27454 70.25 159.4375 70.25 L 134.71875 70.25 C 126.39582 74.630617 118.61478 80.808626 111.4375 88.59375 L 120.78125 88.59375 C 126.46144 88.59375 131.03125 93.163561 131.03125 98.84375 C 131.03125 104.52394 126.46144 109.09375 120.78125 109.09375 L 96.15625 109.09375 C 88.743751 121.22887 82.286859 135.50182 76.9375 151.59375 L 97.78125 151.59375 C 103.46144 151.59375 108.03125 156.16356 108.03125 161.84375 C 108.03125 167.52394 103.46144 172.09375 97.78125 172.09375 L 70.96875 172.09375 C 66.890243 188.22694 63.789533 205.7932 61.78125 224.59375 L 87.78125 224.59375 C 93.461439 224.59375 98.03125 229.16356 98.03125 234.84375 C 98.03125 240.52394 93.461439 245.09375 87.78125 245.09375 L 60.90625 245.09375 C 60.624266 245.09375 60.338602 245.08462 60.0625 245.0625 C 59.547665 253.31949 59.234543 261.76241 59.125 270.40625 C 58.948888 284.30301 59.280014 298.08707 60.09375 311.59375 L 84.78125 311.59375 C 90.461439 311.59375 95.03125 316.16356 95.03125 321.84375 C 95.03125 327.52394 90.461439 332.09375 84.78125 332.09375 L 61.71875 332.09375 C 63.440519 349.32449 65.983902 365.93252 69.375 381.59375 L 94.78125 381.59375 C 100.46144 381.59375 105.03125 386.16356 105.03125 391.84375 C 105.03125 397.52394 100.46144 402.09375 94.78125 402.09375 L 74.5 402.09375 C 78.642083 416.84009 83.615449 430.45027 89.40625 442.59375 L 110.78125 442.59375 C 116.46144 442.59375 121.03125 447.16356 121.03125 452.84375 C 121.03125 458.52394 116.46144 463.09375 110.78125 463.09375 L 100.9375 463.09375 C 107.95033 473.63384 115.82048 482.38217 124.5625 488.90625 L 140.09375 488.90625 C 145.77394 488.90625 150.34375 493.47606 150.34375 499.15625 C 150.34375 499.73689 150.27936 500.28995 150.1875 500.84375 C 154.683 501.8266 159.33494 502.3401 164.15625 502.3125 C 179.91833 502.2223 222.28125 503.03125 222.28125 503.03125 C 222.28125 503.03125 209.12808 498.4338 193.65625 478.78125 L 168.28125 478.78125 C 162.60106 478.78125 158.03125 474.21144 158.03125 468.53125 C 158.03125 462.85106 162.60106 458.28125 168.28125 458.28125 L 180.25 458.28125 C 175.92784 450.41022 171.65542 441.23756 167.65625 430.5 L 142.96875 430.5 C 137.28856 430.5 132.71875 425.93019 132.71875 420.25 C 132.71875 414.56981 137.28856 410 142.96875 410 L 160.9375 410 C 157.29374 397.26412 154.04899 382.83982 151.4375 366.5 L 126.96875 366.5 C 121.28856 366.5 116.71875 361.93019 116.71875 356.25 C 116.71875 350.56981 121.28856 346 126.96875 346 L 148.59375 346 C 146.56352 328.47891 145.22859 309.04942 144.78125 287.5 L 118.96875 287.5 C 113.28856 287.5 108.71875 282.93019 108.71875 277.25 C 108.71875 271.56981 113.28856 267 118.96875 267 L 144.625 267 C 144.80881 246.66041 146.06598 228.22026 148.125 211.5 L 126.96875 211.5 C 121.28856 211.5 116.71875 206.93019 116.71875 201.25 C 116.71875 195.56981 121.28856 191 126.96875 191 L 151.1875 191 C 154.07153 174.66442 157.7237 160.20588 161.84375 147.5 L 141.96875 147.5 C 136.28856 147.5 131.71875 142.93019 131.71875 137.25 C 131.71875 131.56981 136.28856 127 141.96875 127 L 168.84375 127 C 169.04227 127 169.24183 127.02023 169.4375 127.03125 C 173.37102 117.68932 177.49088 109.53815 181.59375 102.5 L 166.96875 102.5 C 161.28856 102.5 156.71875 97.930189 156.71875 92.25 C 156.71875 86.569811 161.28856 82 166.96875 82 L 193.84375 82 C 194.42043 82 194.98102 82.034358 195.53125 82.125 C 207.02834 67.857398 215.90625 62.4375 215.90625 62.4375 C 215.90625 62.4375 192.38687 62.327755 176.4375 62.375 z "
     id="path3015-1-6" />
  <path
     style="color:#000000;fill:#ffffff;fill-opacity:1;fill-rule:nonzero;stroke:none;stroke-width:19.89999962;marker:none;visibility:visible;display:inline;overflow:visible;enable-background:accumulate"
     d="m 262.16421,62.492641 c -51.93973,0 -94.03125,98.453199 -94.03125,219.906249 0,121.45305 42.09152,219.90625 94.03125,219.90625 51.93973,0 94.0625,-98.4532 94.0625,-219.90625 0,-121.45305 -42.12277,-219.906249 -94.0625,-219.906249 z m 0,102.999999 c 27.61256,0 50,52.33853 50,116.90625 0,64.56772 -22.38744,116.90625 -50,116.90625 -27.61256,0 -49.96875,-52.33853 -49.96875,-116.90625 0,-64.56772 22.35619,-116.90625 49.96875,-116.90625 z"
     id="path3015"
     inkscape:connector-curvature="0" />
  <path
     style="fill:#ffffff;fill-opacity:1;stroke:none"
     d="m 235.69974,218.93503 c 0,0 9.91422,-39.49264 32.91422,-32.49264 11.41011,3.47264 27.16797,60.86653 26.80025,95.80025 -0.5,47.5 -13,81 -26,89.5 -14.95461,9.77802 -31.75,-39 -31.75,-39 0,0 10.93491,-25.6986 10.75,-57 -0.18491,-31.3014 -12.71447,-56.80761 -12.71447,-56.80761 z"
     id="path3865"
     inkscape:connector-curvature="0"
     sodipodi:nodetypes="csssczc" />
</svg>
