<svg width="580" height="580" viewBox="0 0 580 580" fill="none" xmlns="http://www.w3.org/2000/svg">
<g clip-path="url(#clip0)">
<path d="M66.275 1.7679C24.94 1.7679 1.704 23.1389 1.704 66.8039V516.927C1.704 557.771 22.6 579.156 63.896 579.156H515.92C557.227 579.156 578.149 558.842 578.149 516.927V66.8039C578.149 24.2029 557.227 1.7679 514.628 1.7679C514.624 1.7679 66.133 1.6249 66.275 1.7679Z" fill="#111111" stroke="#EEEEEE" stroke-width="3.408"/>
<path fill-rule="evenodd" clip-rule="evenodd" d="M293.415 110.488C319.403 110.488 340.492 132.512 340.492 159.651C340.492 186.791 319.402 208.815 293.415 208.815C267.428 208.815 246.336 186.791 246.336 159.651C246.336 132.512 267.426 110.488 293.415 110.488Z" fill="white"/>
<path d="M222.508 105.594H368.482" stroke="white" stroke-width="45.0866" stroke-linecap="round"/>
<path d="M143.144 440.286L263.095 187.454" stroke="white" stroke-width="35.8247" stroke-linecap="round"/>
<path d="M442.994 434.289L323.043 181.458" stroke="white" stroke-width="35.8247" stroke-linecap="round"/>
<path d="M292.605 513.807L293.532 201.2" stroke="white" stroke-width="35.9273" stroke-linecap="round"/>
</g>
<defs>
<clipPath id="clip0">
<path d="M0 0H580V580H0V0Z" fill="white"/>
</clipPath>
</defs>
</svg>
