<svg width="580" height="580" viewBox="0 0 580 580" fill="none" xmlns="http://www.w3.org/2000/svg">
<g clip-path="url(#clip0)">
<path d="M66.2751 1.7679C24.9401 1.7679 1.7041 23.1389 1.7041 66.8039V516.927C1.7041 557.771 22.5991 579.156 63.8961 579.156H515.92C557.227 579.156 578.149 558.841 578.149 516.927V66.8039C578.149 24.2029 557.227 1.7679 514.628 1.7679C514.624 1.7679 66.1331 1.6249 66.2751 1.7679Z" fill="#111111" stroke="#EEEEEE" stroke-width="3.408"/>
<path opacity="0.2" fill-rule="evenodd" clip-rule="evenodd" d="M286.944 44.0017L34.8845 235.909H85.2961V543.77H236.532H340.813H488.592V235.909H539.004L286.944 44.0017Z" fill="white" stroke="white" stroke-width="1.24142"/>
<path fill-rule="evenodd" clip-rule="evenodd" d="M286.944 34.0017L34.8845 225.909H85.2961V543.77H236.532H340.813H488.592V225.909H539.004L286.944 34.0017Z" stroke="white" stroke-width="20" stroke-linejoin="round"/>
<path d="M281.102 309.178C276.03 312.101 255.986 307.302 233.526 297.504C211.376 287.841 194.405 276.605 192.685 270.823L169.08 324.932C168.896 325.122 168.747 325.324 168.646 325.556C166.49 330.496 184.535 343.141 208.967 353.799C233.244 364.39 254.672 369.022 257.057 364.234L257.08 364.244L257.12 364.152L281.102 309.178L281.102 309.178Z" fill="white"/>
<path d="M287.887 294.96C285.732 299.9 263.96 295.17 239.258 284.393C214.556 273.617 196.278 260.876 198.433 255.936C200.588 250.995 222.36 255.726 247.062 266.503C271.765 277.279 290.042 290.02 287.887 294.96Z" fill="white" stroke="black" stroke-width="0.397534" stroke-linecap="round"/>
<path d="M253.761 371.85C248.689 374.773 228.645 369.974 206.185 360.175C184.035 350.513 167.064 339.277 165.345 333.495L162.722 339.507C162.537 339.697 162.388 339.899 162.287 340.131C160.132 345.071 178.177 357.715 202.608 368.374C226.885 378.965 248.313 383.597 250.699 378.808L250.721 378.818L250.761 378.727L253.761 371.85L253.761 371.85Z" fill="white"/>
<path d="M287.46 294.603C282.388 297.526 262.344 292.727 239.884 282.929C217.734 273.266 200.763 262.03 199.043 256.248L196.421 262.261C196.236 262.45 196.087 262.653 195.986 262.884C193.831 267.825 211.875 280.469 236.307 291.127C260.584 301.718 282.012 306.35 284.397 301.562L284.42 301.572L284.46 301.481L287.46 294.603L287.46 294.603Z" fill="white"/>
<path d="M454.115 416.95C458.558 424.036 456.089 434.647 448.6 440.651C441.111 446.656 431.438 445.779 426.995 438.693C422.553 431.607 425.022 420.995 432.511 414.991C440 408.987 449.673 409.864 454.115 416.95Z" fill="white"/>
<path d="M437.439 426.095L244.873 328.661" stroke="white" stroke-width="35.8" stroke-linecap="round" stroke-linejoin="round"/>
<path d="M286.464 432.121C286.509 441.482 248.602 449.251 201.797 449.475C154.992 449.699 117.013 442.291 116.969 432.93C116.924 423.569 154.831 415.799 201.635 415.576C248.44 415.352 286.419 422.76 286.464 432.121Z" fill="white" stroke="black" stroke-width="0.690409" stroke-linecap="round"/>
<path d="M285.535 431.854C279.53 440.058 244.321 446.506 201.764 446.709C159.795 446.91 124.948 440.976 118.158 432.998L118.212 444.39C118.052 444.821 117.957 445.247 117.96 445.686C118.004 455.047 155.545 462.464 201.838 462.243C247.837 462.024 285.128 454.339 285.555 445.058L285.598 445.058L285.598 444.885L285.535 431.854L285.535 431.854Z" fill="white"/>
</g>
<defs>
<clipPath id="clip0">
<path d="M0 0H580V580H0V0Z" fill="white"/>
</clipPath>
</defs>
</svg>
