<svg width="48" height="48" viewBox="0 0 580 580" fill="none" xmlns="http://www.w3.org/2000/svg">
<path d="M374.558 125.864C397.108 125.864 415.392 107.58 415.392 85.0291C415.392 62.4771 397.108 44.1931 374.558 44.1931C352.006 44.1931 333.724 62.4771 333.724 85.0291C333.724 107.58 352.006 125.864 374.558 125.864Z" fill="white" />
<path d="M322.09 200.916L322.34 512.666C322.34 543.85 368.198 543.565 368.198 511.952L368.225 330.586L377.151 330.5L377.123 511.867C377.123 543.479 423.516 544.278 423.516 512.666L423.543 199.609H431.601V311.404C431.601 338.242 468.021 338.242 468.021 311.884V189.586C468.021 156.71 443.552 137.349 417.673 137.349H345.062C327.84 137.349 315.34 144.166 304.84 159.166L268.09 212.72H204.32C178.696 212.72 180.134 249.06 203.84 249.06H277.34C283.091 249.06 290.09 246.916 294.113 240.912L322.09 200.916Z" fill="white" />
<path d="M202.272 392.12V362.257H172.409V392.12H202.272Z" fill="white" />
<path d="M218.481 325.845L196.73 304.093L174.98 325.845L196.73 347.594L218.481 325.845Z" fill="white" />
<path d="M198.191 284.764L176.439 263.015L154.688 284.764L176.439 306.516L198.191 284.764Z" fill="white" />
<path d="M243.34 535.754L282.116 329.593H252.944L218.96 507.04H168.577L135.321 329.666H106.149L144.197 535.754H243.34Z" fill="white" />
</svg>