<?xml version="1.0" encoding="UTF-8" standalone="no"?>
<!-- Created with Inkscape (http://www.inkscape.org/) -->

<svg
   xmlns:dc="http://purl.org/dc/elements/1.1/"
   xmlns:cc="http://creativecommons.org/ns#"
   xmlns:rdf="http://www.w3.org/1999/02/22-rdf-syntax-ns#"
   xmlns:svg="http://www.w3.org/2000/svg"
   xmlns="http://www.w3.org/2000/svg"
   xmlns:sodipodi="http://sodipodi.sourceforge.net/DTD/sodipodi-0.dtd"
   xmlns:inkscape="http://www.inkscape.org/namespaces/inkscape"
   version="1.0"
   width="580"
   height="580"
   id="svg2"
   sodipodi:version="0.32"
   inkscape:version="0.48.4 r9939"
   sodipodi:docname="kindergarten.svg"
   inkscape:output_extension="org.inkscape.output.svg.inkscape">
  <metadata
     id="metadata2975">
    <rdf:RDF>
      <cc:Work
         rdf:about="">
        <dc:format>image/svg+xml</dc:format>
        <dc:type
           rdf:resource="http://purl.org/dc/dcmitype/StillImage" />
        <cc:license
           rdf:resource="http://web.resource.org/cc/PublicDomain" />
        <dc:language>en</dc:language>
      </cc:Work>
    </rdf:RDF>
  </metadata>
  <sodipodi:namedview
     inkscape:window-height="1004"
     inkscape:window-width="1920"
     inkscape:pageshadow="2"
     inkscape:pageopacity="0.0"
     guidetolerance="10.0"
     gridtolerance="10.0"
     objecttolerance="10.0"
     borderopacity="1.0"
     bordercolor="#666666"
     pagecolor="#ffffff"
     id="base"
     inkscape:zoom="0.92167712"
     inkscape:cx="261.18846"
     inkscape:cy="306.09878"
     inkscape:window-x="1680"
     inkscape:window-y="0"
     inkscape:current-layer="svg2"
     showgrid="false"
     inkscape:window-maximized="1" />
  <defs
     id="defs4">
    <inkscape:perspective
       sodipodi:type="inkscape:persp3d"
       inkscape:vp_x="0 : 290 : 1"
       inkscape:vp_y="0 : 1000 : 0"
       inkscape:vp_z="580 : 290 : 1"
       inkscape:persp3d-origin="290 : 193.33333 : 1"
       id="perspective2441" />
    <inkscape:perspective
       id="perspective3452"
       inkscape:persp3d-origin="30 : 20 : 1"
       inkscape:vp_z="60 : 30 : 1"
       inkscape:vp_y="0 : 1000 : 0"
       inkscape:vp_x="0 : 30 : 1"
       sodipodi:type="inkscape:persp3d" />
    <symbol
       viewBox="244.5 110 489 219.9"
       id="symbol-university">
      <path
         id="path4460"
         d="M79,43l57,119c0,0,21-96,104-96s124,106,124,106l43-133l82-17L0,17L79,43z" />
      <path
         id="path4462"
         d="M94,176l-21,39"
         stroke-width="20"
         stroke="#000000"
         fill="none" />
      <path
         id="path4464"
         d="M300,19c0,10.5-22.6,19-50.5,19S199,29.5,199,19s22.6-19,50.5-19S300,8.5,300,19z" />
      <path
         id="path4466"
         d="M112,216l-16-38L64,88c0,0-9-8-4-35s16-24,16-24"
         stroke-width="20"
         stroke="#000000"
         ill="none" />
    </symbol>
    <inkscape:perspective
       id="perspective4471"
       inkscape:persp3d-origin="372.04724 : 350.78739 : 1"
       inkscape:vp_z="744.09448 : 526.18109 : 1"
       inkscape:vp_y="0 : 1000 : 0"
       inkscape:vp_x="0 : 526.18109 : 1"
       sodipodi:type="inkscape:persp3d" />
    <inkscape:perspective
       id="perspective4668"
       inkscape:persp3d-origin="6 : 4 : 1"
       inkscape:vp_z="12 : 6 : 1"
       inkscape:vp_y="0 : 1000 : 0"
       inkscape:vp_x="0 : 6 : 1"
       sodipodi:type="inkscape:persp3d" />
  </defs>
  <g
     id="g1327">
    <path
       d="M 66.275,1.768 C 24.94,1.768 1.704,23.139 1.704,66.804 L 1.704,516.927 C 1.704,557.771 22.599,579.156 63.896,579.156 L 515.92,579.156 C 557.227,579.156 578.149,558.841 578.149,516.927 L 578.149,66.804 C 578.149,24.203 557.227,1.768 514.628,1.768 C 514.624,1.768 66.133,1.625 66.275,1.768 z "
       style="fill:#111;stroke:#eee;stroke-width:3.40799999"
       id="path1329" />
  </g>
  <path
     style="font-size:40px;font-style:normal;font-variant:normal;font-weight:normal;font-stretch:normal;text-align:start;line-height:125%;writing-mode:lr-tb;text-anchor:start;fill:#ffffff;fill-opacity:1;stroke:none;font-family:NPSPICT3;-inkscape-font-specification:NPSPICT3"
     d="m 450.41798,327.89774 -45.92501,0 c -31.46547,6.16613 -43.19833,-34.63321 -59.76542,-42.43319 -1.67958,0.32188 -13.41509,13.25138 -13.41507,14.52104 10.46532,34.72423 43.76098,53.80395 61.79966,57.27023 3.4037,0.75823 7.45442,3.886 7.45442,3.886 l -27.41947,106.24691 28.76536,0 0,83.27021 c -7e-5,7.44023 3.57596,11.16033 10.72807,11.16034 7.15194,-1e-5 10.72798,-3.72011 10.72807,-11.16034 l 0,-83.68937 10.74116,0 0,84.12164 c -1e-4,7.15204 3.5759,10.72806 10.72806,10.72807 7.15192,-1e-5 10.72794,-3.57603 10.72806,-10.72807 l 0,-83.70248 28.75226,0 -30.03597,-106.87454 10.2958,0 18.02421,60.0981 c 1.432,5.15239 4.43602,7.72852 9.01209,7.72839 6.58424,1.3e-4 9.87645,-3.29208 9.87663,-9.87662 -1.8e-4,-1.43202 -0.28399,-2.72009 -0.85144,-3.8642 L 480.8862,348.93469 c -1.43232,-4.58445 -4.72015,-9.02064 -9.86353,-13.30857 -6.29638,-5.15205 -13.16461,-7.72818 -20.60469,-7.72839 z M 428.45863,323.169 c 8.8018,3.1e-4 16.26822,-3.06224 22.39936,-9.18767 6.13079,-6.12478 9.19626,-13.40131 9.19644,-21.8295 -1.8e-4,-8.8133 -3.06565,-16.28267 -9.19644,-22.40814 -6.13114,-6.12474 -13.59756,-9.1873 -22.39936,-9.18766 -8.428,3.6e-4 -15.70743,3.06292 -21.83828,9.18766 -6.13107,6.12547 -9.19654,13.59484 -9.19646,22.40814 -8e-5,8.42819 3.06539,15.70472 9.19646,21.8295 6.13085,6.12543 13.41028,9.18798 21.83828,9.18767 z m -234.694,-218.97876 c 11.68117,4.4e-4 21.77111,-4.248601 30.26981,-12.74709 8.49742,-8.497618 12.74644,-18.587556 12.7471,-30.269815 -6.6e-4,-12.199814 -4.24968,-22.415307 -12.7471,-30.646527 -8.4987,-8.230219 -18.58864,-12.345582 -30.26981,-12.346089 -11.68242,5.07e-4 -21.7683,4.11587 -30.25768,12.346089 -8.49054,8.23122 -12.73551,18.446713 -12.73495,30.646527 -5.6e-4,11.682259 4.24441,21.772197 12.73495,30.269815 8.48938,8.498489 18.57526,12.74753 30.25768,12.74709 z m 50.66786,8.74923 -101.77689,0 c -13.75608,3.9e-4 -25.499,5.44436 -35.22881,16.33183 -9.730727,10.8883 -14.595853,24.29562 -14.595405,40.22205 L 78.68579,301.67924 c -1.356809,12.67898 5.219437,19.12694 15.659668,19.12673 9.961472,2.1e-4 14.942442,-6.37536 14.942932,-19.12673 l 14.14559,-129.00215 12.19705,0 0,350.40563 c -5.7e-4,15.92678 3.98779,23.89018 21.17707,23.8902 17.18803,-2e-5 20.27174,-7.96342 20.27271,-23.8902 l 0,-203.07876 33.36762,0 0,203.07876 c -0.001,15.92678 3.08335,23.89018 20.27271,23.8902 17.765,-2e-5 21.97843,-7.96342 21.97909,-23.8902 l 0,-350.40563 11.64891,0 52.56963,112.72351 c -6.9e-4,13.26984 5.57287,19.90464 16.72071,19.90445 11.16261,1.9e-4 16.74427,-6.63461 16.74499,-19.90445 L 297.08544,169.81886 c -7.50113,-16.26659 -7.45561,-28.34284 -16.70741,-39.75769 -9.25307,-11.41406 -21.2349,-17.12131 -35.94554,-17.1217 z"
     id="flowRoot3192"
     sodipodi:nodetypes="sccccccccsccccsccccccssccccssssssssssccsccssscccccsccsccccsccccsccccscc"
     inkscape:connector-curvature="0" />
</svg>
