<svg width="580" height="580" viewBox="0 0 580 580" fill="none" xmlns="http://www.w3.org/2000/svg">
<path d="M413.975 271.834C336.099 271.833 272.969 335.651 272.969 414.375C272.968 493.099 336.099 556.917 413.975 556.916C452.038 556.916 486.574 541.665 511.943 516.885L515.801 513.438C517.745 509.927 519.583 510.32 521.32 506.794C542.307 481.908 554.982 449.64 554.982 414.375C554.982 360.436 525.341 313.498 481.629 289.287C480.923 288.453 480.222 288.964 479.502 288.127L477.277 286.981C458.241 277.296 436.74 271.834 413.975 271.834ZM411.468 325.068C412.457 325.063 413.453 325.075 414.441 325.111C421.206 325.007 428.131 325.378 434.755 326.298C465.79 330.579 492.673 356.72 496.371 388.329C500.824 413.194 492.929 441.359 470.861 455.483H502.277V486.291C502.229 486.325 502.181 486.36 502.133 486.394H430.358V453.24C454.517 437.381 461.91 402.801 450.254 376.896C442.139 353.365 408.571 347.348 391.487 364.321C369.082 389.478 374.795 434.861 403.09 453.24V486.394H327.709C327.344 486.043 326.986 485.683 326.633 485.317V455.483C326.633 455.483 356.764 456.116 361.831 455.018C336.183 437.963 330.588 402.193 340.468 374.567C349.814 344.102 380.793 325.233 411.468 325.068V325.068Z" fill="white"/>
<path d="M176.278 28.4899C95.8598 28.4893 30.6682 93.6792 30.668 174.098C30.6674 254.517 95.8592 319.709 176.278 319.708C215.584 319.708 251.248 304.129 277.445 278.816L282.135 273.992C285.379 270.759 283.92 272.64 287.127 268.508C308.799 243.086 321.889 210.122 321.889 174.098C321.889 118.997 291.279 71.0501 246.14 46.3184C245.411 45.4661 244.937 46.1131 244.193 45.2587L241.648 43.9615C221.99 34.0677 199.787 28.49 176.278 28.4899ZM153.161 77.142H205.673L268.937 247.942H224.663L213.908 216.826H145.04L134.171 247.942H89.8996L153.161 77.142ZM179.474 117.182L156.022 185.135H202.813L179.474 117.182Z" fill="white"/>
<path d="M51.0473 441.067C70.8099 418.057 90.5562 395.044 110.314 372.034C140.737 382.666 171.176 393.285 201.582 403.931L158.431 415.462C169.492 459.193 199.445 506.595 250.158 530.022C146.924 533.359 102.135 475.634 89.7834 432.687L48.8464 443.626L51.0473 441.067Z" fill="white" stroke="white" stroke-width="10.0393" stroke-linecap="round" stroke-linejoin="round"/>
<path d="M541.995 153.51C522.233 176.52 502.486 199.532 482.729 222.543C452.306 211.911 421.866 201.292 391.461 190.645L434.611 179.115C423.551 135.383 393.598 87.9818 342.884 64.5547C446.119 61.218 490.908 118.943 503.259 161.89L544.196 150.951L541.995 153.51Z" fill="white" stroke="white" stroke-width="10.0393" stroke-linecap="round" stroke-linejoin="round"/>
</svg>
