<svg width="580" height="580" viewBox="0 0 580 580" fill="none" xmlns="http://www.w3.org/2000/svg">
<g clip-path="url(#clip0)">
<path d="M66.2751 1.76802C24.9401 1.76802 1.7041 23.139 1.7041 66.804V516.927C1.7041 557.771 22.5991 579.156 63.8961 579.156H515.92C557.227 579.156 578.149 558.841 578.149 516.927V66.804C578.149 24.203 557.227 1.76802 514.628 1.76802C514.624 1.76802 66.1331 1.62502 66.2751 1.76802Z" fill="#111111" stroke="#EEEEEE" stroke-width="3.408"/>
<path fill-rule="evenodd" clip-rule="evenodd" d="M272.887 135.491L24.5547 260.207L334.041 264.357L559.5 146.805L272.887 135.491Z" fill="white" stroke="white" stroke-width="10" stroke-linecap="round" stroke-linejoin="round"/>
<path fill-rule="evenodd" clip-rule="evenodd" d="M127.267 365.375L154.1 286.093L341.093 291.426L465.597 223.647L515.406 281.483C515.406 281.483 452.522 288.415 425.121 305.438C397.719 322.461 362.176 363.444 362.176 363.444C362.176 363.444 284.792 336.638 249.009 336.036C180.691 334.887 131.509 364.458 127.267 365.375Z" fill="white" stroke="white" stroke-width="10" stroke-linecap="round" stroke-linejoin="round"/>
<path fill-rule="evenodd" clip-rule="evenodd" d="M134.25 280.094L104.219 280.531C100.028 287.516 97.01 296.286 93.7812 306.719C89.1287 321.753 85.1914 339.767 82.875 357.719C74.1463 425.366 74.125 456.656 74.125 456.656H94.125C94.125 456.656 94.0878 427.171 102.719 360.281C104.884 343.501 108.624 326.361 112.875 312.625C117.126 298.889 123.053 288.103 124.562 286.625C128.1 283.162 131.179 281.423 133.188 280.531C133.635 280.332 133.968 280.208 134.25 280.094Z" fill="white"/>
<path d="M106.464 433.249C106.464 446.355 91.8263 480.993 78.7195 480.993C65.6127 480.993 58.9753 446.355 58.9753 433.249C58.9753 420.142 69.6127 409.505 82.7195 409.505C95.8263 409.505 106.464 420.142 106.464 433.249Z" fill="white" stroke="white" stroke-width="15.4746" stroke-linejoin="round"/>
<path fill-rule="evenodd" clip-rule="evenodd" d="M81.9498 438.152L69.2144 492.79L81.9498 438.152Z" stroke="white" stroke-width="10" stroke-linecap="round" stroke-linejoin="round"/>
<path fill-rule="evenodd" clip-rule="evenodd" d="M106.413 437.873L88.6189 496.466L106.413 437.873Z" stroke="white" stroke-width="10" stroke-linecap="round" stroke-linejoin="round"/>
<path fill-rule="evenodd" clip-rule="evenodd" d="M56.0794 432.502L51.7935 485.725L56.0794 432.502Z" stroke="white" stroke-width="10" stroke-linecap="round" stroke-linejoin="round"/>
<path fill-rule="evenodd" clip-rule="evenodd" d="M65.6827 436.611L61.3967 489.833L65.6827 436.611Z" stroke="white" stroke-width="10" stroke-linecap="round" stroke-linejoin="round"/>
<path fill-rule="evenodd" clip-rule="evenodd" d="M91.9498 440.152L79.2144 494.79L91.9498 440.152Z" stroke="white" stroke-width="10" stroke-linecap="round" stroke-linejoin="round"/>
</g>
<defs>
<clipPath id="clip0">
<path d="M0 0H580V580H0V0Z" fill="white"/>
</clipPath>
</defs>
</svg>
