<svg width="48" height="48" viewBox="0 0 48 48" fill="none" xmlns="http://www.w3.org/2000/svg">
<path fill-rule="evenodd" clip-rule="evenodd" d="M19.9999 4H27.9999L29.3093 11.8558L36 8.00002L40 12L36.1442 18.6907L44 20V28L36.1442 29.3093L40 36L36 40L29.3093 36.1442L28 44H20L18.6907 36.1442L12 40L7.99997 36L11.8558 29.3093L4 28L4 20L11.8558 18.6907L8.00002 12L12 7.99999L18.6906 11.8558L19.9999 4ZM28 24C28 26.2091 26.2091 28 24 28C21.7909 28 20 26.2091 20 24C20 21.7909 21.7909 20 24 20C26.2091 20 28 21.7909 28 24Z" fill="white"/>
</svg>
