<svg width="580" height="580" viewBox="0 0 580 580" fill="none" xmlns="http://www.w3.org/2000/svg">
<path d="M244.05 312.759L204.536 243.911H125.066L157.37 262.611L137.399 297.029C135.696 300.15 134.844 303.409 134.844 306.807C134.844 310.205 135.696 313.464 137.399 316.585L168.834 371.402C170.252 367.434 171.67 364.031 173.088 361.196L212.187 294.059L244.05 312.759ZM184.993 368.004C182.719 371.687 181.582 375.651 181.582 379.896C181.582 386.415 183.92 391.939 188.598 396.469C193.275 401 198.868 403.265 205.379 403.265H283.577V339.954H201.138C200.567 341.086 198.441 344.769 194.758 351.003L184.993 368.004ZM290.801 211.192H369.842L409.785 142.356L377.494 161.056L357.51 126.626C353.826 120.116 348.164 116.861 340.521 116.86H277.625C280.175 119.688 282.302 122.519 284.005 125.355L322.664 192.491L316.296 196.317L290.801 211.192ZM252.129 120.258C243.06 120.258 236.26 124.222 231.73 132.15L192.216 200.143C207.224 208.927 225.497 219.409 247.033 231.591C259.776 209.778 273.514 185.982 288.246 160.2L272.528 132.15C267.998 124.222 261.198 120.258 252.129 120.258ZM353.697 339.098V331.447V302.138L314.17 370.974L353.697 439.394V402.422H393.211C400.862 402.422 406.668 399.163 410.628 392.644L442.076 337.827C437.83 338.96 434.29 339.526 431.455 339.526L353.697 339.098ZM412.339 222.669C410.921 223.516 392.645 233.999 357.51 254.117C375.077 284.428 388.962 308.367 399.164 325.935H431.027C440.381 325.935 447.323 321.967 451.854 314.03C456.098 306.379 455.956 298.589 451.426 290.661L412.339 222.669Z" fill="white"/>
<path d="M57.0151 64.5688H522.985L451.385 528.72H128.615L57.0151 64.5688Z" stroke="white" stroke-width="25.5711" stroke-linecap="round" stroke-linejoin="round"/>
</svg>
