<svg width="580" height="580" viewBox="0 0 580 580" fill="none" xmlns="http://www.w3.org/2000/svg">
<g clip-path="url(#clip0)">
<path d="M154.331 234.525C155.919 246.926 166.209 256.116 176.965 254.739L187.299 253.416C198.055 252.039 205.699 240.553 204.111 228.152L198.691 185.819C197.103 173.418 186.812 164.228 176.056 165.605L165.723 166.928C154.967 168.305 147.323 179.791 148.911 192.192L154.331 234.525ZM174.412 231.463C168.889 226.53 165.013 196.262 169.116 190.097C173.218 183.932 173.087 183.949 178.61 188.881C184.133 193.814 188.008 224.082 183.906 230.247C179.804 236.412 179.935 236.395 174.412 231.463Z" fill="white"/>
<path d="M273.778 116.072C284.448 123.708 298.636 122.917 304.984 114.332L311.082 106.084C317.43 97.4981 313.827 83.9742 303.157 76.3375L266.732 50.2676C256.061 42.6309 241.874 43.4217 235.526 52.0073L229.427 60.2555C223.079 68.841 226.683 82.3649 237.353 90.0017L273.778 116.072ZM285.249 99.6958C277.635 100.12 251.591 81.4801 249.657 74.2217C247.723 66.9635 247.646 67.0679 255.26 66.6434C262.875 66.2189 288.919 84.859 290.853 92.1174C292.787 99.3757 292.864 99.2713 285.249 99.6958Z" fill="white"/>
<path d="M234.82 84.6785C247.276 83.6075 256.886 73.7077 255.957 62.9037L255.449 72.773C254.52 61.969 243.362 53.8548 230.906 54.9258L188.384 58.5818C175.928 59.6527 166.318 69.5525 167.247 80.3565L167.754 70.4872C168.683 81.2912 179.842 89.4053 192.298 88.3344L234.82 84.6785ZM232.594 64.4878C227.437 69.8009 197.033 72.415 191.044 68.0601C185.055 63.7053 185.452 84.0857 190.609 78.7725C195.767 73.4593 226.17 70.8452 232.159 75.2001C238.148 79.5549 237.752 59.1745 232.594 64.4878Z" fill="white"/>
<path d="M194.685 94.102C202.542 83.5933 202.047 69.3924 193.596 62.8669L185.476 56.5976C177.025 50.0721 163.429 53.3929 155.571 63.9016L128.748 99.7757C120.891 110.284 121.386 124.485 129.837 131.011L137.957 137.28C146.408 143.806 160.004 140.485 167.861 129.976L194.685 94.102ZM178.551 82.2918C178.817 89.9134 159.638 115.564 152.341 117.346C145.044 119.128 145.147 119.208 144.881 111.586C144.616 103.964 163.794 78.314 171.092 76.5317C178.389 74.7495 178.286 74.6701 178.551 82.2918Z" fill="white"/>
<path d="M153.747 177.135C157.887 188.932 169.868 195.773 180.1 192.183L170.416 194.15C180.648 190.559 185.727 177.731 181.588 165.934L167.456 125.663C163.317 113.866 151.336 107.025 141.103 110.615L150.788 108.649C140.556 112.239 135.477 125.067 139.616 136.864L153.747 177.135ZM172.747 169.951C166.317 166.279 156.213 137.485 158.939 130.6C161.665 123.716 142.026 129.175 148.456 132.847C154.886 136.519 164.99 165.313 162.264 172.198C159.538 179.083 179.178 173.623 172.747 169.951Z" fill="white"/>
<path d="M95.6087 275.066C87.8774 279.567 90.64 295.467 92.4811 303.843C97.6092 316.693 119.03 332.629 124.402 328.468C167.558 307.747 208.475 324.249 229.195 367.405C249.916 410.562 236.209 455.655 193.052 476.376C175.896 484.613 159.806 473.569 144.024 484.503C128.686 495.13 123.914 506.89 123.277 518.026C122.602 529.814 124.391 547.308 147.624 552.092C171.485 557.005 187.748 550.75 210.828 539.669C282.493 505.26 316.21 413.813 281.801 342.148C247.393 270.482 167.274 240.658 95.6087 275.066Z" fill="white"/>
<path opacity="0.8" d="M92.0029 280.691C23.7485 313.462 -5.3363 396.023 27.4348 464.277C51.5409 514.484 99.3025 549.648 151.806 548.391L156.454 485.816C121.591 494.986 94.8604 482.19 76.4422 443.83C54.0834 397.262 69.1072 345.686 115.675 323.327C128.641 317.102 135.894 320.037 151.263 318.513L141.566 267.554C124.818 268.738 108.007 273.007 92.0029 280.691Z" fill="white"/>
<path fill-rule="evenodd" clip-rule="evenodd" d="M149.901 337.007L171.489 340.579C215.529 349.677 234.941 338.625 241.269 302.218C247.598 265.811 178.662 224.617 178.662 224.617L177.865 224.478C177.865 224.478 99.0722 239.995 92.744 276.402C86.4158 312.809 100.96 329.763 145.487 336.06L167.014 339.982" fill="white"/>
<path d="M193.31 516.642C193.31 526.353 189.452 535.666 182.586 542.533C175.719 549.4 166.406 553.258 156.695 553.258C146.984 553.258 137.67 549.4 130.804 542.533C123.937 535.666 120.079 526.353 120.079 516.642C120.079 506.931 123.937 497.618 130.804 490.751C137.67 483.885 146.984 480.027 156.695 480.027C166.406 480.027 175.719 483.885 182.586 490.751C189.452 497.618 193.31 506.931 193.31 516.642Z" fill="white"/>
<path d="M378.244 74.4102C386.965 72.4145 395.811 85.9128 400.189 93.2872C405.223 106.174 400.468 132.445 393.703 133.077C348.033 147.431 329.429 187.435 343.783 233.106C358.137 278.777 398.954 302.339 444.625 287.985C462.78 282.279 466.984 263.222 485.979 260.424C504.439 257.705 515.958 263.032 524.032 270.728C532.578 278.875 543.224 292.872 529.527 312.239C515.46 332.128 499.311 338.672 474.887 346.348C399.046 370.184 311.948 326.443 288.112 250.603C264.276 174.763 302.404 98.2465 378.244 74.4102Z" fill="white"/>
<path opacity="0.8" d="M384.72 76.0538C456.95 53.3522 534.595 93.7693 557.297 166C573.996 219.132 563.143 277.44 523.945 312.393L477.8 269.875C509.522 252.752 520.299 225.146 507.54 184.551C492.052 135.27 445.844 107.872 396.563 123.361C382.842 127.674 379.551 134.772 367.287 144.159L339.553 100.323C352.591 89.7451 367.784 81.3767 384.72 76.0538Z" fill="white"/>
<path fill-rule="evenodd" clip-rule="evenodd" d="M380.917 156.734L367.594 174.091C341.65 210.823 319.924 216.015 290.43 193.753C260.935 171.492 283.129 94.313 283.129 94.313L283.616 93.6676C283.616 93.6676 351.754 51.1662 381.249 73.4281C410.743 95.69 411.706 118.007 383.493 153.026L370.453 170.597" fill="white"/>
<path d="M471.947 317.565C478.581 324.656 487.761 328.821 497.467 329.144C507.173 329.467 516.609 325.921 523.7 319.287C530.791 312.652 534.957 303.472 535.279 293.767C535.602 284.061 532.056 274.625 525.422 267.533C518.787 260.442 509.607 256.277 499.902 255.954C490.196 255.631 480.76 259.177 473.668 265.812C466.577 272.446 462.412 281.626 462.089 291.332C461.766 301.037 465.312 310.474 471.947 317.565Z" fill="white"/>
</g>
<defs>
<clipPath id="clip0">
<path d="M0 0H580V580H0V0Z" fill="white"/>
</clipPath>
</defs>
</svg>
