<svg width="580" height="580" viewBox="0 0 580 580" fill="none" xmlns="http://www.w3.org/2000/svg">
<path d="M112.055 445.26V542.724H160.766H430.734H479.445V445.26H430.734H160.766H112.055Z" fill="white"/>
<path opacity="0.2" d="M113.742 445.014L172.327 393.34H419.502L477.758 445.672L113.742 445.014Z" fill="white" stroke="white" stroke-width="2.23807" stroke-linecap="round" stroke-linejoin="round"/>
<path d="M169.91 328.5V395.268H203.279H388.221H421.59V328.5H388.221H203.279H169.91Z" fill="white"/>
<path opacity="0.2" d="M171.065 328.331L211.199 292.933H380.526L420.435 328.782L171.065 328.331Z" fill="white" stroke="white" stroke-width="1.53319" stroke-linecap="round" stroke-linejoin="round"/>
<path d="M210.513 246.034V291.259H233.116H358.385H380.987V246.034H358.385H233.116H210.513Z" fill="white"/>
<path opacity="0.2" d="M211.296 245.92L238.48 221.943H353.173L380.204 246.225L211.296 245.92Z" fill="white" stroke="white" stroke-width="1.0385" stroke-linecap="round" stroke-linejoin="round"/>
<path d="M237.358 191.856V222.837H252.842H338.658H354.142V191.856H338.658H252.842H237.358Z" fill="white"/>
<path opacity="0.2" d="M237.895 191.778L256.517 175.352H335.087L353.605 191.987L237.895 191.778Z" fill="white" stroke="white" stroke-width="0.711423" stroke-linecap="round" stroke-linejoin="round"/>
<path d="M256.643 154.691V175.44H267.013H324.487H334.857V154.691H324.487H267.013H256.643Z" fill="white"/>
<path opacity="0.2" d="M257.002 154.639L269.475 143.638H322.096L334.498 154.779L257.002 154.639Z" fill="white" stroke="white" stroke-width="0.476462" stroke-linecap="round" stroke-linejoin="round"/>
</svg>
