<svg xmlns="http://www.w3.org/2000/svg" width="48" height="48" viewBox="0 0 48 48" fill="none" version="1.1" id="svg20"><path d="M8 8a4 4 0 0 0-4 4v20a4 4 0 0 0 4 4h32a4 4 0 0 0 4-4V12a4 4 0 0 0-4-4zm16 16v8h-4V12h6c3.31 0 6 2 6 6s-2 6-8 6z" id="path18" style="clip-rule:evenodd;fill:#fff;fill-opacity:1;fill-rule:evenodd"/><g opacity=".5" id="g10" style="fill:#fff;fill-opacity:1"><path d="M18.63 4.1a2 2 0 0 1 1.27 2.53L19.44 8h-4.21l.87-2.63a2 2 0 0 1 2.53-1.27z" fill="#fff" id="path2" style="fill:#fff;fill-opacity:1"/><path d="M6.06 35.5L4.1 41.37a2 2 0 1 0 3.8 1.26L10.1 36H8c-.7 0-1.37-.18-1.94-.5z" fill="#fff" id="path4" style="fill:#fff;fill-opacity:1"/><path d="M37.9 36l2.2 6.63a2 2 0 1 0 3.8-1.26l-1.96-5.87c-.57.32-1.24.5-1.94.5h-2.1z" fill="#fff" id="path6" style="fill:#fff;fill-opacity:1"/><path d="M32.77 8l-.87-2.63a2 2 0 1 0-3.8 1.26L28.56 8h4.21z" fill="#fff" id="path8" style="fill:#fff;fill-opacity:1"/></g><path d="M17.6 24L16 18.67 14.4 24h3.2z" fill="#fff" id="path12" style="fill:#fff;fill-opacity:1"/><path d="M24 20v-4h2a2 2 0 1 1 0 4z" id="path16" style="fill:#fff;fill-opacity:1"/></svg>
