<svg width="580" height="580" viewBox="0 0 580 580" fill="none" xmlns="http://www.w3.org/2000/svg">
<path d="M362.982 178.75C344.611 179.345 325.742 182.051 309.107 189.968C297.852 197.189 286.745 204.471 275.701 212C274.232 213.059 269.062 217.093 273.607 215.062C296.757 207.457 317.418 192.803 341.8 188.585C362.41 183.43 386.354 181.1 404.857 193.468C417.2 201.178 427.853 211.525 441.17 217.718C455.447 225.489 465.888 242.479 482.263 244.468C465.876 221.336 437.517 211.421 417.673 191.683C402.958 177.849 381.818 179.054 362.982 178.75Z" fill="white"/>
<path d="M196.705 94.2545C157.484 93.4174 115.521 99.9896 85.3815 126.997C67.5344 142.203 51.618 160.627 30.1115 170.754C27.4607 173.764 32.9116 174.514 35.0178 173.754C44.037 171.475 50.9726 164.403 59.0947 159.911C75.0807 149.295 88.7711 135.981 101.669 121.968C114.846 112.431 131.54 109.959 146.93 105.595C171.449 100.272 196.84 96.8156 221.924 98.942C239.849 103.518 251.054 120.037 266.768 128.911C281.944 138.803 298.293 147.648 312.018 159.161C313.133 157.236 311.103 153.627 310.862 151.317C307.708 144.255 299.428 141.45 293.674 136.786C278.111 127.307 262.126 118.016 249.393 104.973C242.001 97.8544 232.179 93.9038 221.893 94.5045C213.506 94.0611 205.1 94.1728 196.705 94.2545Z" fill="white"/>
<path d="M230.655 246.007C199.031 248.619 166.246 255.43 140.943 275.662C123.908 288.501 109.901 305.457 90.8738 315.351C88.9529 318.132 93.716 322.636 95.8113 319.132C120.056 305.967 137.363 283.315 160.655 268.913C183.404 256.989 209.608 254.415 234.749 251.288C252.322 250.391 270.948 256.093 282.311 270.007C297.576 282.865 317.126 289.839 331.124 304.194C337.463 309.415 342.623 317.69 350.561 319.632C350.031 313.769 344.28 309.817 341.03 305.288C327.004 290.005 308.179 280.817 291.28 269.351C281.922 261.4 273.475 249.614 259.9 249.406C250.177 247.865 240.534 245.788 230.655 246.007Z" fill="white"/>
</svg>
