<svg width="580" height="580" viewBox="0 0 580 580" fill="none" xmlns="http://www.w3.org/2000/svg">
<path d="M236.424 543.927C227.349 541.278 214.627 536.361 208.152 532.999C187.91 522.489 156.193 488.394 145.573 465.728C145.573 465.728 136.879 444.854 136.401 433.947C134.716 395.579 135.266 380.845 135.594 312.434C135.943 239.839 136.814 176.098 138.304 170.793C141.611 159.022 163.049 147.897 178.152 150.113L188.759 151.67V118.289C188.759 94.5204 190.346 82.6421 194.27 77.0395C200.614 67.9828 222.585 59.6793 232.999 62.4027C238.223 63.7687 240.09 62.3703 240.09 57.0921C240.09 53.1515 244.456 45.8812 249.792 40.936C257.504 33.789 263.404 31.9448 278.556 31.9448C303.329 31.9448 310.875 39.7268 313.407 67.8861L315.254 88.4216L330.835 88.7981C340.337 89.0276 350.35 92.1091 356.501 96.6961C366.471 104.132 366.036 104.766 367.614 150.927C368.538 177.542 368.034 193.862 369.54 199.716C387.576 180.977 442.664 192.747 444.695 206.716C445.307 210.925 441.618 220.542 436.498 228.087C420.685 251.388 418.615 264.421 416.383 354.695C416.383 354.695 417.027 393.443 413.444 421.198C409.861 448.953 402.051 465.716 402.051 465.716C387.225 495.809 361.07 522.807 333.83 536.134C309.454 548.06 263.253 551.756 236.424 543.927ZM317.9 510.81C346.905 497.647 368.465 474.445 381.289 442.596C386.788 428.939 388.342 410.62 390.306 336.267C392.263 262.18 393.766 244.38 398.881 234.703C402.293 228.249 405.084 221.465 405.084 219.628C405.084 213.452 387.411 219.597 378.793 228.77C371.417 236.621 370.006 242.678 368.421 273.312L366.586 308.768H355.916H345.246L346.097 215.965C346.981 119.439 346.021 112.608 331.566 112.608C327.924 112.608 322.351 115.201 319.183 118.37C314.295 123.258 313.421 136.33 313.421 204.534V284.935H302.421H291.422V175.388C291.422 58.1525 290.747 53.8394 273.265 59.3879C265.918 61.7198 265.756 64.1341 265.756 171.52V281.269H252.923H240.09V187.954C240.09 105.233 239.407 94.2577 234.07 91.2709C230.758 89.4178 225.198 88.6472 221.713 89.5585C216.15 91.0132 215.057 98.9462 212.755 154.567C211.312 189.411 210.428 233.411 210.789 252.344C211.68 298.96 212.238 296.592 200.675 295.262L190.592 294.102L189.573 239.257C188.503 181.669 187.623 178.772 171.17 178.662L162.748 178.606L163.837 309.684C164.911 438.922 165.046 440.988 173.473 456.782C202.029 510.303 266.157 534.292 317.9 510.81Z" fill="white"/>
<path d="M277.721 309.488C250.349 307.685 223.226 319.261 205.709 340.426C180.938 367.856 176.041 409.798 189.095 443.669C198.571 464.952 217.291 481.456 237.318 492.637C259.955 503.732 287.506 501.007 310.268 492.586C334.717 481.612 353.069 458.857 362.787 434.457C371.106 407.679 373.235 375.677 357.431 351.048C339.428 325.576 309.177 308.674 277.721 309.487V309.488Z" fill="white"/>
</svg>
