<svg width="580" height="580" viewBox="0 0 580 580" fill="none" xmlns="http://www.w3.org/2000/svg">
<path d="M81.0527 117.572L146.33 77.875" stroke="white" stroke-width="25" stroke-linecap="round"/>
<path d="M151.576 117.572L216.854 77.875" stroke="white" stroke-width="25" stroke-linecap="round"/>
<path d="M222.1 117.572L287.377 77.875" stroke="white" stroke-width="25" stroke-linecap="round"/>
<path d="M292.623 117.572L357.901 77.875" stroke="white" stroke-width="25" stroke-linecap="round"/>
<path d="M363.146 117.572L428.424 77.875" stroke="white" stroke-width="25" stroke-linecap="round"/>
<path d="M433.67 117.572L498.947 77.875" stroke="white" stroke-width="25" stroke-linecap="round"/>
<path d="M279.164 152.633L318.861 217.91" stroke="white" stroke-width="25" stroke-linecap="round"/>
<path d="M279.164 223.156L318.861 288.434" stroke="white" stroke-width="25" stroke-linecap="round"/>
<path d="M279.164 293.68L318.861 358.958" stroke="white" stroke-width="25" stroke-linecap="round"/>
<path d="M279.164 364.204L318.861 429.481" stroke="white" stroke-width="25" stroke-linecap="round"/>
<path d="M498.948 502.125L433.67 462.428" stroke="white" stroke-width="25" stroke-linecap="round"/>
<path d="M428.424 502.125L363.146 462.428" stroke="white" stroke-width="25" stroke-linecap="round"/>
<path d="M357.901 502.125L292.623 462.428" stroke="white" stroke-width="25" stroke-linecap="round"/>
<path d="M287.377 502.125L222.1 462.428" stroke="white" stroke-width="25" stroke-linecap="round"/>
<path d="M216.854 502.125L151.576 462.428" stroke="white" stroke-width="25" stroke-linecap="round"/>
<path d="M146.33 502.125L81.0527 462.428" stroke="white" stroke-width="25" stroke-linecap="round"/>
<path d="M211.571 176.388H99.8184V402.063H211.571V176.388Z" fill="white"/>
<path d="M490.411 176.388H378.658V402.063H490.411V176.388Z" fill="white"/>
</svg>
