<svg width="48" height="48" viewBox="0 0 48 48" fill="none" xmlns="http://www.w3.org/2000/svg">
<path d="M26 4H22V8H26V4Z" fill="white"/>
<path d="M26 44V40H22V44H26Z" fill="white"/>
<path d="M40 22H44V26H40V22Z" fill="white"/>
<path d="M8 26L8 22H4V26H8Z" fill="white"/>
<path d="M39.5564 11.2721L36.7279 8.44365L33.8995 11.2721L36.7279 14.1005L39.5564 11.2721Z" fill="white"/>
<path d="M14.1005 36.7279L11.2721 33.8995L8.44365 36.7279L11.2721 39.5563L14.1005 36.7279Z" fill="white"/>
<path d="M39.5564 36.7279L36.7279 39.5563L33.8995 36.7279L36.7279 33.8995L39.5564 36.7279Z" fill="white"/>
<path d="M11.2721 14.1005L14.1005 11.2721L11.2721 8.44365L8.44365 11.2721L11.2721 14.1005Z" fill="white"/>
<path fill-rule="evenodd" clip-rule="evenodd" d="M36 24C36 30.6274 30.6274 36 24 36C17.3726 36 12 30.6274 12 24C12 17.3726 17.3726 12 24 12C30.6274 12 36 17.3726 36 24ZM32 24C32 28.4183 28.4183 32 24 32C19.5817 32 16 28.4183 16 24C16 19.5817 19.5817 16 24 16C28.4183 16 32 19.5817 32 24Z" fill="white"/>
</svg>
