<svg width="48" height="48" viewBox="0 0 48 48" fill="none" xmlns="http://www.w3.org/2000/svg">
<path d="M31 9C31 10.6569 29.6568 12 28 12C26.3431 12 25 10.6569 25 9C25 7.34315 26.3431 6 28 6C29.6568 6 31 7.34315 31 9Z" fill="white"/>
<path d="M25.3567 12.1062L19.3675 14.1026C19.073 14.2008 18.8053 14.3662 18.5858 14.5858L16.5858 16.5858C15.8047 17.3668 15.8047 18.6332 16.5858 19.4142C17.3668 20.1953 18.6331 20.1953 19.4142 19.4142L21.0803 17.7481L22.3308 17.3312L16.1724 31.1877C15.7238 32.1971 16.1784 33.379 17.1877 33.8276C18.1971 34.2762 19.379 33.8216 19.8276 32.8123L23.6643 24.1799L28 27.0704V30C28 31.1046 28.8954 32 30 32C31.1046 32 32 31.1046 32 30V26C32 25.3313 31.6658 24.7068 31.1094 24.3359L25.3125 20.4713L26.6449 17.4734L28.5858 19.4142C29.3668 20.1953 30.6332 20.1953 31.4142 19.4142L35.4142 15.4142C36.1953 14.6332 36.1953 13.3668 35.4142 12.5858C34.6332 11.8047 33.3668 11.8047 32.5858 12.5858L30 15.1716L27.4454 12.617C27.2735 12.4376 27.0704 12.2928 26.848 12.1886C26.4194 11.9879 25.9193 11.9381 25.4335 12.0819C25.4077 12.0895 25.3821 12.0976 25.3567 12.1062Z" fill="white"/>
<path fill-rule="evenodd" clip-rule="evenodd" d="M38 44H8.24903C5.90236 44 4 42.0976 4 39.751C4 37.6081 5.59566 35.8005 7.722 35.5347L37.6927 32.2884C46 32 46.2008 44 38 44ZM36 38C36 36.8954 36.8954 36 38 36C39.1046 36 40 36.8954 40 38C40 39.1046 39.1046 40 38 40C36.8954 40 36 39.1046 36 38Z" fill="white"/>
</svg>
