<svg width="48" height="48" viewBox="0 0 48 48" fill="none" xmlns="http://www.w3.org/2000/svg">
<path fill-rule="evenodd" clip-rule="evenodd" d="M4 4V20H8V16H12C14.2091 16 16 14.2091 16 12V8C16 5.79086 14.2091 4 12 4H4ZM8 12H12V8H8V12Z" fill="white"/>
<path fill-rule="evenodd" clip-rule="evenodd" d="M16 26C16 24.8954 16.8954 24 18 24H22C23.1046 24 24 24.8954 24 26V33.5279L25.2587 36.0453C25.5016 36.0154 25.749 36 26 36C29.3137 36 32 38.6863 32 42C32 45.3137 29.3137 48 26 48C23.3876 48 21.1651 46.3304 20.3414 44H11.6586C10.8349 46.3304 8.61244 48 6 48C2.68629 48 0 45.3137 0 42C0 38.6863 2.68629 36 6 36C6.25098 36 6.49837 36.0154 6.74126 36.0453L7.56648 34.3949L4.58578 31.4142C4.01379 30.8422 3.84268 29.982 4.15224 29.2346C4.4618 28.4873 5.19107 28 6 28H10C11.1046 28 12 28.8954 12 30C12 30.8576 11.4602 31.5892 10.7018 31.8734L10.8284 32H20V28H18C16.8954 28 16 27.1046 16 26ZM10.3187 37.8348C10.9084 38.4461 11.3696 39.1824 11.6586 40H20.3414C20.6304 39.1824 21.0915 38.4461 21.6813 37.8348L20.7639 36H11.2361L10.3187 37.8348ZM6 44C7.10457 44 8 43.1046 8 42C8 40.8954 7.10457 40 6 40C4.89543 40 4 40.8954 4 42C4 43.1046 4.89543 44 6 44ZM26 44C27.1046 44 28 43.1046 28 42C28 40.8954 27.1046 40 26 40C24.8954 40 24 40.8954 24 42C24 43.1046 24.8954 44 26 44Z" fill="white"/>
<path fill-rule="evenodd" clip-rule="evenodd" d="M36 8C33.7909 8 32 9.79086 32 12V18C32 19.1046 31.1046 20 30 20C28.8954 20 28 19.1046 28 18V12C28 7.58172 31.5817 4 36 4C40.4183 4 44 7.58172 44 12V18C44 19.1046 43.1046 20 42 20C40.8954 20 40 19.1046 40 18V12C40 9.79086 38.2091 8 36 8Z" fill="white"/>
<path opacity="0.5" fill-rule="evenodd" clip-rule="evenodd" d="M28 8C25.7909 8 24 9.79086 24 12V18C24 19.1046 23.1046 20 22 20C20.8954 20 20 19.1046 20 18V12C20 7.58172 23.5817 4 28 4C32.4183 4 36 7.58172 36 12V18C36 19.1046 35.1046 20 34 20C32.8954 20 32 19.1046 32 18V12C32 9.79086 30.2091 8 28 8Z" fill="white"/>
</svg>
