<svg width="580" height="580" viewBox="0 0 580 580" fill="none" xmlns="http://www.w3.org/2000/svg">
<g clip-path="url(#clip0)">
<path d="M66.2751 1.76766C24.9401 1.76766 1.7041 23.1387 1.7041 66.8037V516.927C1.7041 557.771 22.5991 579.156 63.8961 579.156H515.92C557.227 579.156 578.149 558.841 578.149 516.927V66.8037C578.149 24.2027 557.227 1.76766 514.628 1.76766C514.624 1.76766 66.1331 1.62466 66.2751 1.76766Z" fill="#111111" stroke="#EEEEEE" stroke-width="3.408"/>
<path fill-rule="evenodd" clip-rule="evenodd" d="M119.575 340.967L191.724 267.589L191.392 224.759L138.285 276.689C136.524 193.623 208.049 123.858 275.228 114.885L269.276 78.9434C151.322 102.291 103.821 194.502 101.551 276.385L47.9393 224.262L47.6953 268.801L119.575 340.967V340.967Z" fill="white"/>
<path fill-rule="evenodd" clip-rule="evenodd" d="M450.518 406.549L350.793 381.159L313.955 403.01L385.561 422.748C314.68 466.094 218.39 439.424 176.812 385.899L148.756 409.138C228.318 499.294 331.905 493.906 403.794 454.639L385.754 527.203L424.358 504.989L450.518 406.549V406.549Z" fill="white"/>
<path fill-rule="evenodd" clip-rule="evenodd" d="M341.511 88.0911L369.625 187.083L407.018 207.969L388.134 136.133C461.209 175.668 486.492 272.332 461.079 335.163L495.263 347.759C533.283 233.685 476.614 146.807 406.56 104.353L478.372 83.5197L439.777 61.2881L341.511 88.0911V88.0911Z" fill="white"/>
</g>
<defs>
<clipPath id="clip0">
<path d="M0 0H580V580H0V0Z" fill="white"/>
</clipPath>
</defs>
</svg>
