<svg width="48" height="48" viewBox="0 0 48 48" fill="none" xmlns="http://www.w3.org/2000/svg">
<path d="M24.5235 28.046C24.5392 27.2633 24.6488 19.4358 23.9756 9.72982C23.3025 19.4358 23.412 27.2789 23.4277 28.046C22.551 28.0617 21.7683 28.093 20.9855 28.1556C20.829 25.416 18.7939 21.1892 18.7939 21.1892C16.3673 16.524 16.5865 14.1758 16.5865 14.1758C16.6335 8.99404 21.3299 6.33271 21.3299 6.33271C22.6435 5.38149 23.8698 4.10989 23.9693 4.00671L23.9756 4.00014C23.96 3.98448 25.2437 5.3308 26.6213 6.33271C26.6683 6.34837 31.2551 9.0097 31.3647 14.1758C31.3647 14.1758 31.3633 14.1862 31.3629 14.2139C31.3583 14.5446 31.3238 17.0008 29.1574 21.1892C29.1574 21.201 29.1109 21.304 29.0315 21.48C28.5853 22.4688 27.0986 25.7635 26.9657 28.1556C26.2456 28.093 25.3689 28.0617 24.5235 28.046Z" fill="white" />
<path d="M23.5216 33.0556C23.5216 33.6818 23.5373 36.9693 24.0226 39.4741C24.5079 36.9693 24.5235 33.7287 24.5235 33.0556C25.4315 33.0399 26.3238 33.0086 27.1536 32.9303C27.6545 36.2492 29.5331 38.5974 29.5331 38.5974C27.6779 42.2166 24.2569 43.6497 24.0338 43.7431L24.0226 43.7479C23.9913 43.7635 20.3907 42.3546 18.5121 38.5974C18.5434 38.5661 20.375 36.3744 20.8916 32.9303C21.7665 33.0032 22.6437 33.045 23.5216 33.0556Z" fill="white" />
<path d="M9.35397 22.1753L9.35164 22.1889L9.33831 22.191L9.35397 22.1753Z" fill="white" />
<path fill-rule="evenodd" clip-rule="evenodd" d="M11.8431 16.1326C7.30318 15.3028 4.01565 18.9504 4 22.8955C4.04696 26.3395 6.34823 29.1574 10.2306 29.0322C9.91754 27.1536 10.6846 25.275 12.1562 24.8367C14.8175 23.8974 16.5396 26.5587 17.1344 28.7191C18.0424 28.5156 19.1696 28.3434 20.2811 28.2338C19.4983 22.7546 16.9935 17.1188 11.8587 16.1326H11.8431ZM9.35164 22.1889L9.05652 23.913L8.27378 22.3475L6.53609 22.598L7.78848 21.3613L7.00573 19.7958L8.55557 20.6098L9.80796 19.3731L9.52617 21.1108L11.076 21.9249L9.35164 22.1889Z" fill="white" />
<path d="M39.7088 22.1597L39.7064 22.1733L39.6931 22.1753L39.7088 22.1597Z" fill="white" />
<path fill-rule="evenodd" clip-rule="evenodd" d="M43.9512 21.9718C43.6225 18.8408 40.5072 15.7099 36.7187 16.1482C31.0829 16.8527 28.5782 22.7233 27.7484 28.2651C28.9226 28.3747 29.9401 28.5469 30.8794 28.7504C31.2082 26.0891 34.1669 23.4277 36.7187 25.322C37.6423 26.0577 37.9867 27.6702 37.7989 29.1261C42.0257 29.0322 44.3739 25.9951 43.9512 21.9718ZM39.7064 22.1733L39.4113 23.8974L38.6286 22.3319L36.8909 22.5824L38.1433 21.3456L37.3605 19.7801L38.9104 20.5942L40.1628 19.3575L39.881 21.0951L41.4308 21.9092L39.7064 22.1733Z" fill="white" />
<path d="M32.2336 30.535C32.2336 29.0701 23.9756 29.0556 23.9756 29.0556C23.9756 29.0556 15.7177 29.0702 15.7177 30.535C15.7177 31.9998 23.0302 32.0144 23.9756 32.0144C24.9211 32.0144 32.2336 32 32.2336 30.535Z" fill="white" />
<path d="M35.6228 34.9026C35.2471 36.9064 33.9947 38.4563 31.9596 38.3623V38.3467C29.3609 38.2214 28.359 35.0905 27.8424 32.7422C28.813 32.6483 29.7366 32.5074 30.535 32.3509C31.0829 34.4173 33.1181 36.0454 35.6228 34.9026Z" fill="white" />
<path d="M16.2108 38.3623C14.113 38.5032 12.9076 36.9377 12.5476 34.9026H12.5632C14.9741 36.1237 17.1188 34.4017 17.6354 32.3665C18.4494 32.5387 19.3418 32.664 20.328 32.7579C19.8114 35.0748 18.8721 38.2528 16.2108 38.3623Z" fill="white" />
</svg>