<svg width="48" height="48" viewBox="0 0 48 48" fill="none" xmlns="http://www.w3.org/2000/svg">
<path opacity="0.2" d="M44 20V16L36 13.6V8H32V12.4L4 4V44H40V20H44Z" fill="white" />
<path d="M30 28C33.3137 28 36 25.3137 36 22C36 18.6863 33.3137 16 30 16C26.6863 16 24 18.6863 24 22C24 25.3137 26.6863 28 30 28Z" fill="white" />
<path d="M39.9605 44H20V40C20 34.1428 26.0079 32 30 32C33.9921 32 39.9606 34.1428 39.9606 40C40.0493 42.3588 39.9605 44 39.9605 44Z" fill="white" />
<g opacity="0.5">
<path d="M14 28C17.3137 28 20 25.3137 20 22C20 18.6863 17.3137 16 14 16C10.6863 16 8 18.6863 8 22C8 25.3137 10.6863 28 14 28Z" fill="white" />
<path d="M23.9606 44H4V40C4 34.1428 10.0079 32 14 32C17.9921 32 23.9606 34.1428 23.9606 40C24.0493 42.3588 23.9606 44 23.9606 44Z" fill="white" />
</g>
</svg>