<svg width="16" height="16" viewBox="0 0 16 16" fill="none" xmlns="http://www.w3.org/2000/svg">
<path d="M8.90075 2.35059C8.0449 2.35059 7.34146 3.05402 7.34146 3.90987C7.34146 4.76572 8.0449 5.46916 8.90075 5.46916C9.7566 5.46916 10.46 4.76572 10.46 3.90987C10.46 3.05402 9.7566 2.35059 8.90075 2.35059Z" fill="#0023FF"/>
<path d="M7.86907 5.04605C7.54827 5.04605 7.3478 5.18554 7.21518 5.25982C7.20194 5.26716 7.18932 5.27557 7.17745 5.28497L5.88224 6.39156L5.84452 6.41671L5.85709 6.42929C5.69512 6.53976 5.58215 6.69626 5.53014 6.85683C5.52439 6.87317 5.52018 6.89001 5.51757 6.90713L5.22835 8.81852C5.2011 9.02299 5.24445 9.21975 5.35409 9.35924C5.46374 9.49872 5.62299 9.57046 5.75649 9.59816C5.89733 9.62732 6.03038 9.60589 6.17146 9.53528C6.31254 9.46468 6.45909 9.3122 6.49841 9.12031C6.52231 9.00398 6.5909 8.59247 6.66188 8.1772C6.72513 7.80713 6.7754 7.53277 6.78763 7.46043L6.96368 7.32211C6.89217 7.66991 6.80241 8.11336 6.77506 8.25265C6.66988 8.79133 6.96376 9.19999 7.12715 9.44726C7.19003 9.54232 7.71878 10.3913 8.25889 11.2329C8.52895 11.6537 8.8033 12.074 9.02596 12.4149C9.24863 12.7558 9.41728 12.9941 9.50381 13.1066C9.64443 13.2894 9.78166 13.4554 9.99423 13.5467C10.2068 13.6379 10.4797 13.6123 10.711 13.4838C10.9441 13.3542 11.0553 13.1033 11.0631 12.8802C11.0709 12.6571 11.005 12.4555 10.8996 12.2766C10.716 11.9648 8.89156 8.99312 8.79961 8.84367L8.97566 8.13947C9.0178 8.20493 9.07674 8.2704 9.13914 8.31552C9.20153 8.36064 9.25063 8.38613 9.32776 8.42869C9.56343 8.55876 10.4094 8.94646 10.6858 9.07001C10.8334 9.13595 11.0064 9.18714 11.1888 9.18319C11.3713 9.17923 11.5906 9.09514 11.7044 8.89397C11.8132 8.70162 11.7907 8.47841 11.717 8.31552C11.6433 8.15264 11.5276 8.02545 11.3649 7.95085C11.2096 7.87977 10.0787 7.31925 9.9565 7.25923C9.90227 7.14164 9.53411 6.33411 9.31518 5.83827C9.19707 5.57028 9.08771 5.37553 8.92536 5.23467C8.76301 5.09381 8.55457 5.04605 8.35949 5.04605H7.86907Z" fill="#0023FF"/>
<path d="M6.85662 8.23328C6.72305 8.25271 6.49849 9.27994 6.4607 9.40952L6.07088 10.7676C6.01847 10.8433 5.26639 11.9338 5.03974 12.264C4.93899 12.4111 4.82025 12.5942 4.78824 12.8299C4.75624 13.0656 4.86982 13.358 5.10261 13.5341C5.36663 13.7338 5.73499 13.7193 5.94513 13.597C6.15527 13.4747 6.27919 13.3107 6.3601 13.2197C6.47549 13.0897 6.65701 12.8297 6.8631 12.5532C7.06918 12.2768 7.2865 11.9995 7.36609 11.8993C7.51128 11.7163 7.59635 11.5431 7.65531 11.3964C7.65539 11.3922 7.65539 11.3881 7.65531 11.3838C7.70026 11.2714 7.82236 10.9367 7.90681 10.7047C7.95223 10.5949 7.9375 10.4624 7.86909 10.3652L7.08944 9.29634C7.01271 9.19334 6.98348 8.21323 6.85662 8.23327L6.85662 8.23328Z" fill="#0023FF"/>
</svg>
