<svg width="780" height="780" viewBox="0 0 780 780" fill="none" xmlns="http://www.w3.org/2000/svg">
<path d="M567.374 164.855H214.211C187.828 164.855 166.44 186.243 166.44 212.626V565.789C166.44 592.172 187.828 613.56 214.211 613.56H567.374C593.757 613.56 615.145 592.172 615.145 565.789V212.626C615.145 186.243 593.757 164.855 567.374 164.855Z" fill="black"/>
<path d="M551.681 184.793H229.904C205.865 184.793 186.378 204.28 186.378 228.319V550.096C186.378 574.134 205.865 593.622 229.904 593.622H551.681C575.72 593.622 595.207 574.134 595.207 550.096V228.319C595.207 204.28 575.72 184.793 551.681 184.793Z" fill="#DEECF6"/>
<path fill-rule="evenodd" clip-rule="evenodd" d="M594.929 556.515C591.234 580.322 574.72 592.412 552.93 593.909L226.096 593.82C224.541 595.375 189.658 587.514 185.807 556.515C594.929 554.785 185.807 558.244 594.929 556.515Z" fill="#0388E5"/>
<path d="M388.085 218.956C382.316 219.265 376.716 221.009 371.792 224.032C366.869 227.054 362.779 231.258 359.892 236.262L227.699 465.17C224.659 470.441 223.059 476.418 223.059 482.502C223.059 488.587 224.66 494.564 227.7 499.834C230.74 505.104 235.113 509.482 240.38 512.528C245.647 515.574 251.622 517.182 257.706 517.189L522.227 517.39C528.317 517.395 534.3 515.796 539.577 512.755C544.853 509.714 549.235 505.337 552.283 500.065C555.331 494.792 556.938 488.811 556.941 482.721C556.944 476.631 555.344 470.647 552.301 465.372L419.974 236.262C416.774 230.715 412.101 226.162 406.472 223.107C400.844 220.053 394.48 218.616 388.085 218.956V218.956Z" fill="#CE3F00"/>
<path d="M253.73 476.925L384.9 248.531C388.12 243.904 394.274 243.158 398.399 248.459L530.56 477.392C532.298 480.377 535.786 491.481 523.874 491.766L262.71 491.18C253.771 490.687 252.261 482.257 253.73 476.925V476.925Z" fill="#FD5708"/>
<path d="M423.19 311.239C423.19 312.116 422.71 316.497 421.75 324.384L409.378 424.542H374.104L361.732 324.121C361.732 322.894 361.412 320.879 360.772 318.074C360.451 315.095 360.291 312.817 360.292 311.239C360.291 305.106 362.852 299.585 367.974 294.678C373.095 289.596 381.098 287.055 391.981 287.054C412.787 287.055 423.19 295.116 423.19 311.239ZM408.602 446.422C413.371 450.999 415.756 456.448 415.756 462.768C415.756 469.089 413.371 474.429 408.602 478.788C403.833 482.929 398.156 484.999 391.571 484.999C385.666 484.999 380.216 482.82 375.22 478.461C370.451 473.884 368.066 468.653 368.066 462.768C368.066 456.448 370.337 450.999 374.879 446.422C379.421 441.627 385.098 439.23 391.911 439.23C398.497 439.23 404.061 441.627 408.602 446.422" fill="#FEFEFE"/>
</svg>
