<svg width="12" height="12" viewBox="0 0 12 12" fill="none" xmlns="http://www.w3.org/2000/svg">
<path d="M11.0002 1H9.70726C9.2545 1 8.8203 1.17986 8.50015 1.5C8.18001 1.82014 8.00015 2.25435 8.00015 2.70711V4H9.29304C9.7458 4 10.18 3.82014 10.5002 3.5C10.8203 3.17986 11.0002 2.74565 11.0002 2.29289V1Z" fill="white"/>
<path d="M1.35359 11.3536L2.70714 10H5V9H3.00004L3 7H2V9.29293L0.646484 10.6464L1.35359 11.3536Z" fill="white"/>
<path d="M3.00015 4C4.10472 4 5.00015 4.89543 5.00015 6V7H4.50015C3.67172 7 3.00015 6.32843 3.00015 5.5V4Z" fill="white"/>
<path d="M5.00015 7H6.50015C7.32858 7 8.00015 7.67157 8.00015 8.5V9H6.50015C5.67172 9 5.00015 8.32843 5.00015 7.5L5.00015 7Z" fill="white"/>
<path d="M7.00015 4C7.00015 2.89543 6.10472 2 5.00015 2V3.5C5.00015 4.32843 5.67172 5 6.50015 5H7.00015V5.5C7.00015 6.32843 7.67172 7 8.50015 7H10.0002V6.5C10.0002 5.67157 9.32858 5 8.50015 5H7.00015V4Z" fill="white"/>
</svg>
