<svg width="12" height="12" viewBox="0 0 12 12" fill="none" xmlns="http://www.w3.org/2000/svg">
<path d="M1 4C1 2.34315 2.34315 1 4 1H5V4H1Z" fill="white"/>
<path d="M4 8C2.34315 8 1 6.65685 1 5H9V3.5C9 3.22386 9.22386 3 9.5 3H10.5C10.7761 3 11 3.22386 11 3.5C11 3.77614 10.7761 4 10.5 4H10V5C10 6.65685 8.65685 8 7 8H4Z" fill="white"/>
<path d="M3 11C3.55228 11 4 10.5523 4 10C4 9.44771 3.55228 9 3 9C2.44772 9 2 9.44771 2 10C2 10.5523 2.44772 11 3 11Z" fill="white"/>
<path d="M9 10C9 10.5523 8.55228 11 8 11C7.44772 11 7 10.5523 7 10C7 9.44771 7.44772 9 8 9C8.55228 9 9 9.44771 9 10Z" fill="white"/>
</svg>
