<svg width="48" height="48" viewBox="0 0 48 48" fill="none" xmlns="http://www.w3.org/2000/svg">
<path d="M4 16C4 9.37258 9.37258 4 16 4H20V16H4Z" fill="white" />
<path d="M16 32C9.37258 32 4 26.6274 4 20H36V14C36 12.8954 36.8954 12 38 12H42C43.1046 12 44 12.8954 44 14C44 15.1046 43.1046 16 42 16H40V20C40 26.6274 34.6274 32 28 32H16Z" fill="white" />
<path d="M12 44C14.2091 44 16 42.2091 16 40C16 37.7909 14.2091 36 12 36C9.79086 36 8 37.7909 8 40C8 42.2091 9.79086 44 12 44Z" fill="white" />
<path d="M36 40C36 42.2091 34.2091 44 32 44C29.7909 44 28 42.2091 28 40C28 37.7909 29.7909 36 32 36C34.2091 36 36 37.7909 36 40Z" fill="white" />
</svg>