<?xml version="1.0" encoding="UTF-8" standalone="no"?>
<!-- Created with Inkscape (http://www.inkscape.org/) -->

<svg
   xmlns:dc="http://purl.org/dc/elements/1.1/"
   xmlns:cc="http://creativecommons.org/ns#"
   xmlns:rdf="http://www.w3.org/1999/02/22-rdf-syntax-ns#"
   xmlns:svg="http://www.w3.org/2000/svg"
   xmlns="http://www.w3.org/2000/svg"
   xmlns:sodipodi="http://sodipodi.sourceforge.net/DTD/sodipodi-0.dtd"
   xmlns:inkscape="http://www.inkscape.org/namespaces/inkscape"
   version="1.0"
   width="580"
   height="580"
   id="svg2"
   sodipodi:version="0.32"
   inkscape:version="0.48.4 r9939"
   sodipodi:docname="coffee.svg"
   inkscape:output_extension="org.inkscape.output.svg.inkscape">
  <metadata
     id="metadata10">
    <rdf:RDF>
      <cc:Work
         rdf:about="">
        <dc:format>image/svg+xml</dc:format>
        <dc:type
           rdf:resource="http://purl.org/dc/dcmitype/StillImage" />
        <cc:license
           rdf:resource="http://web.resource.org/cc/PublicDomain" />
        <dc:language>en</dc:language>
        <dc:title></dc:title>
      </cc:Work>
    </rdf:RDF>
  </metadata>
  <sodipodi:namedview
     inkscape:window-height="739"
     inkscape:window-width="1332"
     inkscape:pageshadow="2"
     inkscape:pageopacity="0.0"
     guidetolerance="10.0"
     gridtolerance="10.0"
     objecttolerance="10.0"
     borderopacity="1.0"
     bordercolor="#666666"
     pagecolor="#ffffff"
     id="base"
     showgrid="false"
     inkscape:zoom="0.3535534"
     inkscape:cx="393.08084"
     inkscape:cy="682.24937"
     inkscape:window-x="34"
     inkscape:window-y="1024"
     inkscape:current-layer="svg2"
     inkscape:window-maximized="1" />
  <defs
     id="defs4">
    <clipPath
       id="clipoutline2"
       clipPathUnits="userSpaceOnUse">
      <path
         d="M 55.8,12 L 56.56,12.16 C 65.4,9.22 85.24,20.8 80.82,31.12 C 79.7,32.74 79.89,35.62 81.24,37.43 L 56.43,62.25 C 55.04,60.86 51.95,60.89 50.53,62.25 L 9.5,101.63 C 5.76,105.22 8.7,108.27 10.28,109.88 L 17.64,117.24 C 19.25,118.84 23.5,121 26.52,117.8 L 65.24,76.99 C 66.59,75.57 66.6,72.52 65.24,71.12 C 65.24,71.12 65.25,71.1 65.24,71.1 L 90.15,46.2 C 92.78,48.57 95.263827,48.774854 97.62,48.13 C 102.17057,46.884568 104.70725,51.336643 107.43,54.59 L 106.2,55.8 C 104.38,57.64 104.55,60.74 106.59,62.78 C 108.63,64.82 111.74,64.99 113.56,63.17 L 121.7,55.04 C 123.52,53.2 123.35,50.1 121.3,48.07 C 119.46,46.22 116.79,45.98 114.93,47.3 C 109.35,41.04 112.28,40.1 104.92,31.95 L 91.13,17.86 C 81.2,8.12 68.3,8.13 55.8,12 z"
         id="outline2" />
    </clipPath>
    <clipPath
       id="clipoutline1"
       clipPathUnits="userSpaceOnUse">
      <path
         d="M 22.42,17.2 L 35.38,30.15 L 32.88,38.93 L 24.1,41.43 L 11.14,28.47 L 5.28,34.33 L 20.17,55.79 L 37.73,52.45 L 99.36,118.07 C 108.8,127.58 121.53,113.32 112.7,105.2 L 46.85,42.92 L 50.86,25.16 L 28.72,10.89 L 22.42,17.2 z M 103.48,109.17 C 105.16,107.49 107.88,107.49 109.56,109.17 C 111.24,110.85 111.24,113.57 109.56,115.25 C 107.88,116.92 105.16,116.92 103.48,115.25 C 101.8,113.57 101.8,110.85 103.48,109.17 z"
         id="outline1" />
    </clipPath>
    <inkscape:perspective
       sodipodi:type="inkscape:persp3d"
       inkscape:vp_x="0 : 290 : 1"
       inkscape:vp_y="0 : 1000 : 0"
       inkscape:vp_z="580 : 290 : 1"
       inkscape:persp3d-origin="290 : 193.33333 : 1"
       id="perspective12" />
    <style
       type="text/css"
       id="style6">
   
    .fil0 {fill:#EF7900}
   
  </style>
    <inkscape:perspective
       id="perspective6807"
       inkscape:persp3d-origin="29.116032 : 19.410688 : 1"
       inkscape:vp_z="58.232063 : 29.116032 : 1"
       inkscape:vp_y="0 : 1000 : 0"
       inkscape:vp_x="0 : 29.116032 : 1"
       sodipodi:type="inkscape:persp3d" />
    <inkscape:perspective
       id="perspective6954"
       inkscape:persp3d-origin="290 : 193.33333 : 1"
       inkscape:vp_z="580 : 290 : 1"
       inkscape:vp_y="0 : 1000 : 0"
       inkscape:vp_x="0 : 290 : 1"
       sodipodi:type="inkscape:persp3d" />
    <marker
       viewBox="0 0 10 10"
       refY="5"
       refX="10"
       orient="auto"
       markerWidth="4"
       markerUnits="strokeWidth"
       markerHeight="3"
       id="ArrowStart">
      <path
         id="path2295"
         d="M 10 0 L 0 5 L 10 10 z" />
    </marker>
    <marker
       viewBox="0 0 10 10"
       refY="5"
       refX="0"
       orient="auto"
       markerWidth="4"
       markerUnits="strokeWidth"
       markerHeight="3"
       id="ArrowEnd">
      <path
         id="path2292"
         d="M 0 0 L 10 5 L 0 10 z" />
    </marker>
    <inkscape:perspective
       id="perspective7597"
       inkscape:persp3d-origin="178.5405 : 158.483 : 1"
       inkscape:vp_z="357.08099 : 237.7245 : 1"
       inkscape:vp_y="0 : 1000 : 0"
       inkscape:vp_x="0 : 237.7245 : 1"
       sodipodi:type="inkscape:persp3d" />
  </defs>
  <g
     id="g1327"
     transform="translate(0.5,-0.5)">
    <path
       d="M 66.275,1.768 C 24.94,1.768 1.704,23.139 1.704,66.804 l 0,450.123 c 0,40.844 20.894,62.229 62.192,62.229 l 452.024,0 c 41.307,0 62.229,-20.316 62.229,-62.229 l 0,-450.123 c 0,-42.601 -20.922,-65.036 -63.522,-65.036 -0.003,0 -448.494,-0.143 -448.352,0 z"
       style="fill:#111111;stroke:#eeeeee;stroke-width:3.40799999"
       id="path1329"
       inkscape:connector-curvature="0" />
  </g>
  <g
     id="g2319"
     transform="translate(879.29125,36.805119)">
    <path
       id="path2323"
       style="fill:#ffffff;stroke:none"
       d="" />
  </g>
  <g
     id="g2325"
     transform="translate(879.29125,36.805119)">
    <path
       id="path2329"
       style="fill:#ffffff;stroke:none"
       d="" />
  </g>
  <path
     inkscape:connector-curvature="0"
     d="M 86.301846,132.59689 H 67.78384 c -5.110985,0 -9.259003,4.14803 -9.259003,9.259 0,5.11098 4.148018,9.25901 9.259003,9.25901 h 18.518006 v -18.51801 z"
     id="path3"
     style="fill:#ffffff;fill-opacity:1;stroke:none" />
  <path
     inkscape:connector-curvature="0"
     d="m 327.03601,336.29503 c -11.4441,0 -21.8512,-5.21281 -31.91579,-10.2312 -8.51827,-4.25914 -16.56432,-8.28682 -23.63823,-8.28682 -7.0739,0 -15.11995,4.02768 -23.63824,8.28682 -10.06451,5.02764 -20.47168,10.2312 -31.91578,10.2312 -11.44417,0 -21.85128,-5.21281 -31.91579,-10.2312 -8.51829,-4.25914 -16.5644,-8.28682 -23.63824,-8.28682 -7.0739,0 -15.12002,4.02768 -23.63831,8.28682 -10.0645,5.02764 -20.4716,10.2312 -31.91578,10.2312 h -9.259006 v 37.03603 h 9.259006 c 7.07391,0 15.11995,-4.02767 23.63824,-8.28681 10.06458,-5.01838 20.47168,-10.2312 31.91585,-10.2312 11.44411,0 21.8512,5.21282 31.91578,10.2312 8.51829,4.25914 16.56434,8.28681 23.63825,8.28681 7.07383,0 15.11995,-4.02767 23.63824,-8.28681 10.06451,-5.01838 20.47168,-10.2312 31.91578,-10.2312 11.44417,0 21.85127,5.21282 31.91579,10.2312 8.51828,4.25914 16.5644,8.28681 23.63823,8.28681 7.07391,0 15.11995,-4.02767 23.63824,-8.28681 7.27759,-3.63879 14.75887,-7.30536 22.65685,-9.09234 v -36.2768 c -4.57396,1.57404 -9.37941,3.88879 -14.37923,6.37946 -10.06458,5.0369 -20.47168,10.24046 -31.91586,10.24046 z"
     id="path5"
     style="fill:#ffffff;fill-opacity:1;stroke:none" />
  <path
     inkscape:connector-curvature="0"
     d="M 401.10811,58.524828 H 160.36463 c -42.39699,0 -64.803786,22.406795 -64.803786,64.813052 v 194.43913 h 9.259006 c 7.07391,0 15.11995,-4.02766 23.63824,-8.28681 10.06458,-5.01837 20.47168,-10.2312 31.91585,-10.2312 11.44411,0 21.8512,5.21283 31.91578,10.2312 8.51829,4.25915 16.56434,8.28681 23.63825,8.28681 7.07383,0 15.11995,-4.02766 23.63824,-8.28681 10.06451,-5.01837 20.47168,-10.2312 31.91578,-10.2312 11.44417,0 21.85127,5.21283 31.91579,10.2312 8.51828,4.25915 16.5644,8.28681 23.63823,8.28681 7.07391,0 15.11995,-4.02766 23.63824,-8.28681 7.27759,-3.63879 14.75887,-7.30534 22.65685,-9.09233 V 160.3739 c 0,-47.78573 28.70293,-64.813047 55.55402,-64.813047 9.87007,0 24.24931,3.629532 35.91565,14.073697 -5.27761,-31.471371 -29.11029,-51.109722 -63.69266,-51.109722 z"
     id="path7-5"
     style="fill:#ffffff;fill-opacity:1;stroke:none" />
  <path
     inkscape:connector-curvature="0"
     d="m 358.95187,381.61787 c -10.06458,5.02764 -20.47168,10.2312 -31.91586,10.2312 -11.4441,0 -21.8512,-5.21283 -31.91579,-10.2312 -8.51827,-4.25915 -16.56432,-8.28681 -23.63823,-8.28681 -7.0739,0 -15.11995,4.02766 -23.63824,8.28681 -10.06451,5.02764 -20.47168,10.2312 -31.91578,10.2312 -11.44417,0 -21.85128,-5.21283 -31.91579,-10.2312 -8.51829,-4.25915 -16.5644,-8.28681 -23.63824,-8.28681 -7.0739,0 -15.12002,4.02766 -23.63831,8.28681 -10.0645,5.02764 -20.4716,10.2312 -31.91578,10.2312 h -9.259006 v 27.77703 c 0,5.12023 4.14803,9.259 9.259006,9.259 H 373.3311 v -53.65594 c -4.57396,1.57402 -9.37941,3.88878 -14.37923,6.38871 z"
     id="path9"
     style="fill:#ffffff;fill-opacity:1;stroke:none" />
  <path
     inkscape:connector-curvature="0"
     d="m 391.8491,438.14411 c 0,5.12023 -4.13876,9.259 -9.259,9.259 H 151.11487 v 64.81306 c 0,5.12022 4.14809,9.259 9.25907,9.259 h 296.28819 c 5.12024,0 9.259,-4.13878 9.259,-9.259 V 160.3739 H 391.8491 v 277.77021 z"
     id="path11"
     style="fill:#ffffff;fill-opacity:1;stroke:none" />
  <path
     inkscape:connector-curvature="0"
     d="m 452.19927,123.33788 c -10.18485,-9.02754 -22.43454,-9.25901 -23.31415,-9.25901 -7.30534,0 -17.20321,1.74069 -24.93447,9.25901 h 48.24862 z"
     id="path13"
     style="fill:#ffffff;fill-opacity:1;stroke:none" />
  <path
     inkscape:connector-curvature="0"
     d="M 512.21615,132.59689 H 397.29336 c -2.40735,4.84245 -4.13877,10.94413 -4.92579,18.51801 h 119.84858 c 5.12023,0 9.25901,-4.14803 9.25901,-9.25901 0,-5.11097 -4.13878,-9.259 -9.25901,-9.259 z"
     id="path15"
     style="fill:#ffffff;fill-opacity:1;stroke:none" />
</svg>
