<svg width="12" height="12" viewBox="0 0 12 12" fill="none" xmlns="http://www.w3.org/2000/svg">
<path opacity="0.5" d="M4.5 1C4.5 1 5 1 6 1C7 1 7.5 1 7.5 1V2.5H4.5V1Z" fill="white"/>
<path opacity="0.2" fill-rule="evenodd" clip-rule="evenodd" d="M9 3C9.65314 3 10.2088 3.41744 10.4147 4.00007C11.2363 4.00794 11.9 4.67647 11.9 5.5C11.9 6.00728 11.6482 6.45575 11.2627 6.72722C11.7181 7.18002 12 7.80709 12 8.5C12 9.53715 11.3684 10.4268 10.4689 10.8053C10.3279 11.4873 9.72381 12 9 12C8.34689 12 7.79127 11.5826 7.58535 11C6.73812 11 6 10.384 6 9.5C6 8.96671 6.2783 8.49842 6.69759 8.23244C6.26558 7.78309 6 7.17256 6 6.5C6 5.46285 6.63157 4.57321 7.53109 4.19469C7.67212 3.51266 8.27619 3 9 3Z" fill="white"/>
<path d="M3.5 11H7.58535C6.73812 11 6 10.384 6 9.5C6 8.96671 6.2783 8.49842 6.69759 8.23244C6.26558 7.78309 6 7.17256 6 6.5C6 5.46285 6.63157 4.57321 7.53109 4.19469C7.67212 3.51266 8.27619 3 9 3C9.65314 3 10.2088 3.41744 10.4147 4.00007C11.0908 4.00655 11.66 4.46038 11.8404 5.07982L12 5L10.6708 2.34164C10.2597 1.51939 9.4193 1 8.5 1H7.5C7.5 1.82843 6.82843 2.5 6 2.5C5.17157 2.5 4.5 1.82843 4.5 1H3.5C2.5807 1 1.7403 1.51939 1.32918 2.34164L0 5L2 6L3 4.5V10.5C3 10.7761 3.22386 11 3.5 11Z" fill="white"/>
<path d="M9.5 4.5C9.5 4.22386 9.27614 4 9 4C8.72386 4 8.5 4.22386 8.5 4.5V5C7.67157 5 7 5.67157 7 6.5C7 7.32843 7.67157 8 8.5 8H9.5C9.77614 8 10 8.22386 10 8.5C10 8.77614 9.77614 9 9.5 9H7.5C7.22386 9 7 9.22386 7 9.5C7 9.77614 7.22386 10 7.5 10H8.5V10.5C8.5 10.7761 8.72386 11 9 11C9.27614 11 9.5 10.7761 9.5 10.5V10C10.3284 10 11 9.32843 11 8.5C11 7.67157 10.3284 7 9.5 7H8.5C8.22386 7 8 6.77614 8 6.5C8 6.22386 8.22386 6 8.5 6H10.4C10.6761 6 10.9 5.77614 10.9 5.5C10.9 5.22386 10.6761 5 10.4 5H9.5V4.5Z" fill="white"/>
</svg>
