<svg width="12" height="12" viewBox="0 0 12 12" fill="none" xmlns="http://www.w3.org/2000/svg">
<rect opacity="0.5" x="1" y="7" width="6" height="1" fill="white"/>
<path d="M2.5 5C2.5 5.27614 2.27614 5.5 2 5.5C1.72386 5.5 1.5 5.27614 1.5 5C1.5 4.72386 1.72386 4.5 2 4.5C2.27614 4.5 2.5 4.72386 2.5 5Z" fill="white"/>
<path fill-rule="evenodd" clip-rule="evenodd" d="M8 4.5V9H0V4C0 3.44772 0.447715 3 1 3H11.25C11.6642 3 12 3.33579 12 3.75C12 4.16421 11.6642 4.5 11.25 4.5H8ZM7 4H1V8H7V4Z" fill="white"/>
</svg>
