<svg width="12" height="12" viewBox="0 0 12 12" fill="none" xmlns="http://www.w3.org/2000/svg">
<path fill-rule="evenodd" clip-rule="evenodd" d="M10 0.5H9.00004V1.08535C8.94985 1.10309 8.90089 1.12343 8.85331 1.1462L8.43934 0.732233L7.73223 1.43934L8.14622 1.85332C8.12346 1.90088 8.10313 1.94983 8.0854 2L7.5 2V3H8.0854C8.10313 3.05017 8.12346 3.09912 8.14622 3.14668L7.73223 3.56066L8.43934 4.26777L8.85331 3.8538C8.90089 3.87657 8.94985 3.89691 9.00004 3.91465V4.5H10V3.91465C10.0502 3.89691 10.0992 3.87659 10.1467 3.85383L10.5607 4.26777L11.2678 3.56066L10.8538 3.14674C10.8766 3.09916 10.897 3.05019 10.9147 3H11.5V2L10.9147 2C10.897 1.94981 10.8766 1.90084 10.8538 1.85326L11.2678 1.43934L10.5607 0.732233L10.1467 1.14617C10.0992 1.12341 10.0502 1.10309 10 1.08535V0.5ZM9.00004 2.5C9.00004 2.22386 9.2239 2 9.50004 2C9.77462 2 10 2.2353 10 2.50669C9.99635 2.78458 9.75949 3 9.50004 3C9.2239 3 9.00004 2.77614 9.00004 2.5Z" fill="white"/>
<path fill-rule="evenodd" clip-rule="evenodd" d="M1.43037 4.4178L1 7H0.5C0.223858 7 0 7.22386 0 7.5C0 7.77614 0.223858 8 0.5 8H1V10.5C1 10.7761 1.22386 11 1.5 11C1.77614 11 2 10.7761 2 10.5V10H7V10.5C7 10.7761 7.22386 11 7.5 11C7.77614 11 8 10.7761 8 10.5V8H8.5C8.77614 8 9 7.77614 9 7.5C9 7.22386 8.77614 7 8.5 7H8L7.56963 4.4178C7.52945 4.17671 7.32086 4 7.07644 4H1.92356C1.67914 4 1.47055 4.17671 1.43037 4.4178ZM6.98621 7L6.65287 5H2.34713L2.01379 7H6.98621ZM2 8.5C2 8.22386 2.22386 8 2.5 8C2.77614 8 3 8.22386 3 8.5C3 8.77614 2.77614 9 2.5 9C2.22386 9 2 8.77614 2 8.5ZM6 8.5C6 8.22386 6.22386 8 6.5 8C6.77614 8 7 8.22386 7 8.5C7 8.77614 6.77614 9 6.5 9C6.22386 9 6 8.77614 6 8.5Z" fill="white"/>
</svg>
