<svg width="48" height="48" viewBox="0 0 48 48" fill="none" xmlns="http://www.w3.org/2000/svg">
<path fill-rule="evenodd" clip-rule="evenodd" d="M13.7215 5.6712L12 16H10C8.89543 16 8 16.8954 8 18C8 19.1046 8.89543 20 10 20H12V30C12 31.1046 12.8954 32 14 32C15.1046 32 16 31.1046 16 30V28H36V30C36 31.1046 36.8954 32 38 32C39.1046 32 40 31.1046 40 30V20H42C43.1046 20 44 19.1046 44 18C44 16.8954 43.1046 16 42 16H40L38.2785 5.6712C38.1178 4.70683 37.2834 4 36.3057 4H15.6943C14.7166 4 13.8822 4.70683 13.7215 5.6712ZM35.9448 16L34.6115 8H17.3885L16.0552 16H35.9448ZM16 22C16 20.8954 16.8954 20 18 20C19.1046 20 20 20.8954 20 22C20 23.1046 19.1046 24 18 24C16.8954 24 16 23.1046 16 22ZM32 22C32 20.8954 32.8954 20 34 20C35.1046 20 36 20.8954 36 22C36 23.1046 35.1046 24 34 24C32.8954 24 32 23.1046 32 22Z" fill="white" />
<path fill-rule="evenodd" clip-rule="evenodd" d="M40.0006 33.9999L35.1723 33.9998L30.7278 38.4442L9.81984 36.1958C8.66875 36.072 7.52353 36.4761 6.7051 37.295C5.21177 38.789 5.22905 41.2277 6.72275 42.7214C7.52835 43.527 8.65663 43.9436 9.79174 43.846L31.1779 42.0057L35.1721 45.9999L40.0005 45.9999V41.9999L36.829 41.9999L34.829 39.9999L36.8291 37.9998L40.0005 37.9999L40.0006 33.9999ZM12 39.9999C12 41.1045 11.1046 41.9999 10 41.9999C8.89543 41.9999 8 41.1045 8 39.9999C8 38.8953 8.89543 37.9999 10 37.9999C11.1046 37.9999 12 38.8953 12 39.9999Z" fill="white" />
</svg>