<svg width="12" height="12" viewBox="0 0 12 12" fill="none" xmlns="http://www.w3.org/2000/svg">
<path fill-rule="evenodd" clip-rule="evenodd" d="M8.98621 4L8.65287 2H4.34713L4.01379 4H8.98621ZM3.43037 1.4178L3 4H2.5C2.22386 4 2 4.22386 2 4.5C2 4.77614 2.22386 5 2.5 5H3V7V7.5C3 7.77614 3.22386 8 3.5 8C3.77614 8 4 7.77614 4 7.5V7H9V7.5C9 7.77614 9.22386 8 9.5 8C9.77614 8 10 7.77614 10 7.5V7V5H10.5C10.7761 5 11 4.77614 11 4.5C11 4.22386 10.7761 4 10.5 4H10L9.56963 1.4178C9.52945 1.17671 9.32086 1 9.07644 1H3.92356C3.67914 1 3.47055 1.17671 3.43037 1.4178ZM4 5.5C4 5.22386 4.22386 5 4.5 5C4.77614 5 5 5.22386 5 5.5C5 5.77614 4.77614 6 4.5 6C4.22386 6 4 5.77614 4 5.5ZM8 5.5C8 5.22386 8.22386 5 8.5 5C8.77614 5 9 5.22386 9 5.5C9 5.77614 8.77614 6 8.5 6C8.22386 6 8 5.77614 8 5.5ZM10.0001 8.49998L9.00018 8.49995L8.79306 8.49994L8.64661 8.64639L7.68194 9.61106L2.45496 9.04895C2.16719 9.018 1.88088 9.11904 1.67627 9.32374C1.30294 9.69726 1.30726 10.3069 1.68069 10.6803C1.88209 10.8817 2.16416 10.9859 2.44793 10.9615L7.79448 10.5014L8.64658 11.3535L8.79303 11.5H9.00013L10.0001 11.5V10.5L9.20724 10.5L8.70724 9.99998L9.20727 9.49995L10.0001 9.49998L10.0001 8.49998ZM3 9.99997C3 10.2761 2.77614 10.5 2.5 10.5C2.22386 10.5 2 10.2761 2 9.99997C2 9.72383 2.22386 9.49997 2.5 9.49997C2.77614 9.49997 3 9.72383 3 9.99997Z" fill="white"/>
</svg>
