<svg width="12" height="12" viewBox="0 0 12 12" fill="none" xmlns="http://www.w3.org/2000/svg">
<path fill-rule="evenodd" clip-rule="evenodd" d="M3 5C3 4.44772 3.44772 4 4 4H8C8.55228 4 9 4.44772 9 5V6V7C9 7.55228 8.55228 8 8 8H4C3.44772 8 3 7.55228 3 7V6V5ZM3 6C3 6.82843 2.32843 7.5 1.5 7.5H1V7.20711C1 7.0745 1.05268 6.94732 1.14645 6.85355L1.25 6.75C1.38807 6.61193 1.38807 6.38807 1.25 6.25C1.11193 6.11193 1.11193 5.88807 1.25 5.75C1.38807 5.61193 1.38807 5.38807 1.25 5.25L1.14645 5.14645C1.05268 5.05268 1 4.9255 1 4.79289V4.5H1.5C2.32843 4.5 3 5.17157 3 6ZM9 6C9 6.82843 9.67157 7.5 10.5 7.5H11V7.20711C11 7.0745 10.9473 6.94732 10.8536 6.85355L10.75 6.75C10.6119 6.61193 10.6119 6.38807 10.75 6.25C10.8881 6.11193 10.8881 5.88807 10.75 5.75C10.6119 5.61193 10.6119 5.38807 10.75 5.25L10.8536 5.14645C10.9473 5.05268 11 4.9255 11 4.79289V4.5H10.5C9.67157 4.5 9 5.17157 9 6Z" fill="white"/>
</svg>
