<?xml version="1.0" encoding="UTF-8" standalone="no"?>
<!-- Created with Inkscape (http://www.inkscape.org/) -->

<svg
   xmlns:dc="http://purl.org/dc/elements/1.1/"
   xmlns:cc="http://creativecommons.org/ns#"
   xmlns:rdf="http://www.w3.org/1999/02/22-rdf-syntax-ns#"
   xmlns:svg="http://www.w3.org/2000/svg"
   xmlns="http://www.w3.org/2000/svg"
   xmlns:sodipodi="http://sodipodi.sourceforge.net/DTD/sodipodi-0.dtd"
   xmlns:inkscape="http://www.inkscape.org/namespaces/inkscape"
   version="1.0"
   width="580"
   height="580"
   id="svg2"
   sodipodi:version="0.32"
   inkscape:version="0.91 r"
   sodipodi:docname="craft.svg"
   inkscape:output_extension="org.inkscape.output.svg.inkscape">
  <defs
     id="defs22">
    <inkscape:perspective
       sodipodi:type="inkscape:persp3d"
       inkscape:vp_x="0 : 290 : 1"
       inkscape:vp_y="0 : 1000 : 0"
       inkscape:vp_z="580 : 290 : 1"
       inkscape:persp3d-origin="290 : 193.33333 : 1"
       id="perspective24" />
  </defs>
  <metadata
     id="metadata10">
    <rdf:RDF>
      <cc:Work
         rdf:about="">
        <dc:format>image/svg+xml</dc:format>
        <dc:type
           rdf:resource="http://purl.org/dc/dcmitype/StillImage" />
        <cc:license
           rdf:resource="http://web.resource.org/cc/PublicDomain" />
        <dc:language>en</dc:language>
      </cc:Work>
    </rdf:RDF>
  </metadata>
  <sodipodi:namedview
     inkscape:window-height="1006"
     inkscape:window-width="1920"
     inkscape:pageshadow="2"
     inkscape:pageopacity="0.0"
     guidetolerance="10.0"
     gridtolerance="10.0"
     objecttolerance="10.0"
     borderopacity="1.0"
     bordercolor="#666666"
     pagecolor="#ffffff"
     id="base"
     showgrid="false"
     inkscape:zoom="0.70710678"
     inkscape:cx="239.05651"
     inkscape:cy="369.96512"
     inkscape:window-x="1920"
     inkscape:window-y="0"
     inkscape:current-layer="svg2"
     inkscape:window-maximized="1" />
  <g
     id="g1327">
    <path
       d="M 66.275,1.768 C 24.94,1.768 1.704,23.139 1.704,66.804 L 1.704,516.927 C 1.704,557.771 22.598,579.156 63.896,579.156 L 515.92,579.156 C 557.227,579.156 578.149,558.84 578.149,516.927 L 578.149,66.804 C 578.149,24.203 557.227,1.768 514.627,1.768 C 514.624,1.768 66.133,1.625 66.275,1.768 z"
       style="fill:#111111;stroke:#eeeeee;stroke-width:3.40799999"
       id="path1329" />
  </g>
  <g
     id="g2319"
     transform="translate(879.29125,36.805119)">
    <path
       id="path2323"
       style="fill:#ffffff;stroke:none"
       d="" />
  </g>
  <g
     id="g2325"
     transform="translate(879.29125,36.805119)">
    <path
       id="path2329"
       style="fill:#ffffff;stroke:none"
       d="" />
  </g>
  <path
     inkscape:connector-curvature="0"
     d="m 127.15844,79.127938 c -52.408741,0 -71.462203,40.323432 -71.462203,67.361922 0,21.24653 8.017821,50.03993 46.274703,67.06902 6.48548,2.89598 13.27322,5.45456 20.20857,8.20059 31.93812,12.65044 65.10305,25.81682 93.72092,67.94765 -28.55667,42.37545 -61.56649,55.80566 -93.72092,68.53342 -6.94472,2.74603 -13.72309,5.30461 -20.20857,8.20059 -38.266248,17.04783 -46.274703,45.84124 -46.274703,67.06903 0,27.03848 19.053462,67.36191 71.462203,67.36191 54.8736,0 73.21946,-47.41342 73.21946,-69.11918 0,-14.44239 -6.27696,-34.62754 -18.4513,-45.39607 1.07779,-0.82474 2.69681,-1.96814 5.56468,-3.51454 15.30462,-8.24744 79.48236,-47.08538 82.88443,-49.20347 L 520.4934,149.12575 c 2.32428,-1.72446 3.73244,-4.43534 3.80741,-7.32194 0.075,-2.88661 -1.28397,-5.78726 -3.51453,-7.61483 -13.83321,-11.32148 -29.62752,-16.98691 -47.15333,-16.98691 -32.09942,0 -58.26161,19.53378 -59.16133,20.20857 L 265.98255,243.7253 c -7.96338,-4.84172 -63.92442,-38.72661 -78.49127,-46.56757 -2.87723,-1.55577 -4.48689,-2.69917 -5.56468,-3.51454 12.18372,-10.76853 18.4513,-30.95367 18.4513,-45.39607 0,-21.69639 -18.34586,-69.119182 -73.21946,-69.119182 z m -2.6359,35.145342 c 20.0469,0 36.08958,13.61532 38.367,32.50946 1.26523,10.48736 -1.6987,21.04502 -8.49346,28.70202 -6.10123,6.87912 -14.42365,10.5436 -23.43023,10.5436 -19.52207,0 -37.497739,-15.58344 -39.831389,-34.85246 -1.1434,-9.58765 1.703373,-18.76292 7.907703,-25.77325 6.288666,-7.09468 15.630306,-11.12937 25.480376,-11.12937 z m 146.73181,150.1331 c 11.60309,0 20.90757,9.30448 20.90757,20.90758 0,11.60312 -9.30448,20.90757 -20.90757,20.90757 -11.6031,0 -20.90758,-9.30445 -20.90758,-20.90757 0,-11.6031 9.30448,-20.90758 20.90758,-20.90758 z m 80.42237,43.80454 -62.96873,46.27471 125.47075,88.10374 c 1.09653,0.83412 27.36417,20.20858 59.45421,20.20858 17.51644,0 33.32012,-5.66543 47.15333,-16.98692 2.23056,-1.82756 3.58952,-4.71885 3.51453,-7.61483 -0.0749,-2.89597 -1.48313,-5.60685 -3.80741,-7.32194 z m -220.71087,85.76073 c 9.00658,0 17.329,3.65511 23.43023,10.54359 6.78539,7.63826 9.75869,18.2053 8.49346,28.70204 -2.27742,18.89414 -18.32947,32.50944 -38.367,32.50944 -9.85007,0 -19.20108,-4.04406 -25.480376,-11.12935 -6.20433,-7.00096 -9.06047,-16.20435 -7.907703,-25.77326 2.324275,-19.27839 20.309319,-34.85246 39.831389,-34.85246 z"
     id="path4"
     style="fill:#ffffff;fill-opacity:1;stroke:none"
     sodipodi:nodetypes="sscccccsssccccccsccccsssccsccsssssscccsccccscssccs" />
</svg>
