<svg width="48" height="48" viewBox="0 0 580 580" fill="none" xmlns="http://www.w3.org/2000/svg">
<path d="M127.158 79.1279C74.7488 79.1279 55.6953 119.451 55.6953 146.49C55.6953 167.736 63.7131 196.53 101.97 213.559C108.455 216.455 115.243 219.013 122.179 221.759C154.117 234.41 187.282 247.576 215.9 289.707C187.343 332.083 154.333 345.513 122.179 358.241C115.234 360.987 108.455 363.545 101.97 366.441C63.7038 383.489 55.6953 412.282 55.6953 433.51C55.6953 460.549 74.7488 500.872 127.158 500.872C182.031 500.872 200.377 453.459 200.377 431.753C200.377 417.311 194.1 397.125 181.926 386.357C183.003 385.532 184.622 384.389 187.49 382.842C202.795 374.595 266.973 335.757 270.375 333.639L520.492 149.126C522.817 147.401 524.225 144.69 524.3 141.804C524.375 138.917 523.016 136.017 520.785 134.189C506.952 122.867 491.158 117.202 473.632 117.202C441.533 117.202 415.37 136.736 414.471 137.411L265.982 243.725C258.018 238.884 202.057 204.999 187.49 197.158C184.613 195.602 183.003 194.459 181.926 193.643C194.109 182.875 200.377 162.69 200.377 148.247C200.377 126.551 182.031 79.1279 127.158 79.1279ZM124.522 114.273C144.569 114.273 160.611 127.889 162.889 146.783C164.154 157.27 161.19 167.828 154.395 175.485C148.294 182.364 139.972 186.028 130.965 186.028C111.443 186.028 93.4672 170.445 91.1335 151.176C89.9901 141.588 92.8369 132.413 99.0412 125.403C105.33 118.308 114.672 114.273 124.522 114.273ZM271.253 264.406C282.857 264.406 292.161 273.711 292.161 285.314C292.161 296.917 282.857 306.222 271.253 306.222C259.65 306.222 250.346 296.917 250.346 285.314C250.346 273.711 259.65 264.406 271.253 264.406ZM351.676 308.211L288.707 354.486L414.178 442.589C415.274 443.423 441.542 462.798 473.632 462.798C491.148 462.798 506.952 457.133 520.785 445.811C523.016 443.983 524.375 441.092 524.3 438.196C524.225 435.3 522.817 432.589 520.492 430.874L351.676 308.211ZM130.965 393.972C139.972 393.972 148.294 397.627 154.395 404.515C161.181 412.154 164.154 422.721 162.889 433.217C160.611 452.111 144.559 465.727 124.522 465.727C114.672 465.727 105.321 461.683 99.0412 454.597C92.8369 447.596 89.9808 438.393 91.1335 428.824C93.4578 409.546 111.443 393.972 130.965 393.972Z" fill="white" />
</svg>