<svg width="580" height="580" viewBox="0 0 580 580" fill="none" xmlns="http://www.w3.org/2000/svg">
<g clip-path="url(#clip0)">
<path d="M66.2751 1.76766C24.9401 1.76766 1.7041 23.1387 1.7041 66.8037V516.927C1.7041 557.771 22.5991 579.156 63.8961 579.156H515.92C557.227 579.156 578.149 558.841 578.149 516.927V66.8037C578.149 24.2027 557.227 1.76766 514.628 1.76766C514.624 1.76766 66.1331 1.62466 66.2751 1.76766Z" fill="#111111" stroke="#EEEEEE" stroke-width="3.408"/>
<path d="M282.778 221.627C262.166 222.084 241.777 224.522 222.296 228.859C183.118 237.613 148.986 253.746 124.375 275.14C99.7636 296.534 85.8227 322.193 84.3799 348.75H495.62C494.899 335.576 491.096 322.545 484.339 310.093C469.901 283.495 442.542 260.556 406.272 244.637C370.001 228.717 326.724 220.653 282.778 221.627Z" fill="white"/>
<path d="M55.625 387.354H524.375" stroke="white" stroke-width="30" stroke-linecap="round"/>
<path fill-rule="evenodd" clip-rule="evenodd" d="M290.678 159.186C259.024 159.186 238.94 178.403 229.045 196.109C226.384 200.872 224.314 205.605 222.688 209.996C232.506 207.958 242.533 206.391 252.668 205.264C259.789 193.756 270.249 184.186 290.678 184.186C311.814 184.186 321.864 194.025 328.639 205.584C338.654 206.805 348.553 208.482 358.252 210.598C356.653 205.886 354.523 200.712 351.666 195.504C342.093 178.053 322.224 159.186 290.678 159.186Z" fill="white"/>
</g>
<defs>
<clipPath id="clip0">
<path d="M0 0H580V580H0V0Z" fill="white"/>
</clipPath>
</defs>
</svg>
