<svg width="580" height="580" viewBox="0 0 580 580" fill="none" xmlns="http://www.w3.org/2000/svg">
<g clip-path="url(#clip0)">
<path d="M66.2751 1.76766C24.9401 1.76766 1.7041 23.1387 1.7041 66.8037V516.927C1.7041 557.771 22.5991 579.156 63.8961 579.156H515.92C557.227 579.156 578.149 558.841 578.149 516.927V66.8037C578.149 24.2027 557.227 1.76766 514.628 1.76766C514.624 1.76766 66.1331 1.62466 66.2751 1.76766Z" fill="#111111" stroke="#EEEEEE" stroke-width="3.408"/>
<path d="M77.0508 361.107V442.66H412.152L446.873 423.273H508.156V380.49H448.5L413.238 361.107H77.0508ZM372.447 370.939H392.447V392.01H413.518V412.01H392.447V433.082H372.447V412.01H351.375V392.01H372.447V370.939ZM104.543 392.01H166.686V412.01H104.543V392.01Z" fill="white"/>
<path d="M222.123 275.195C249.621 275.195 272.012 252.923 272.012 225.424C272.012 220.198 271.181 215.209 269.696 210.457C303.787 209.863 331.167 182.008 331.167 147.798C331.167 113.351 303.549 85.4956 269.221 85.0205V103.135C293.572 103.492 313.171 123.329 313.171 147.798C313.171 172.387 293.096 192.461 268.508 192.461C265.36 192.461 262.45 192.105 259.599 191.511C258.768 191.273 257.877 191.155 257.045 191.155C251.225 191.155 246.473 195.906 246.473 201.727C246.473 203.924 247.186 205.884 248.315 207.666C251.7 212.774 253.779 218.832 253.779 225.424C253.779 242.826 239.643 257.08 222.123 257.08H156.672C131.846 257.08 111.89 277.155 111.89 301.862L111.771 337.616H130.005V301.921C130.005 287.192 141.943 275.254 156.672 275.254H222.123V275.195Z" fill="white"/>
<path d="M207.631 205.944C200.92 197.273 196.94 186.463 196.94 174.644C196.94 146.136 220.044 123.032 248.552 123.032H252.591V104.799H248.552C210.066 104.799 178.707 136.099 178.707 174.644C178.707 184.979 181.023 194.838 185.062 203.628L172.293 203.509C119.968 203.509 77.6211 245.975 77.6211 298.18V337.617H95.8546V298.18C95.8546 255.952 130.065 221.742 172.293 221.742H199.019C204.602 221.742 209.235 217.11 209.235 211.408C209.235 209.329 208.522 207.607 207.631 205.944V205.944Z" fill="white"/>
</g>
<defs>
<clipPath id="clip0">
<path d="M0 0H580V580H0V0Z" fill="white"/>
</clipPath>
</defs>
</svg>
