<svg width="12" height="12" viewBox="0 0 12 12" fill="none" xmlns="http://www.w3.org/2000/svg">
<path d="M4.5 1C4.77614 1 5 1.22386 5 1.5V3H7V1.5C7 1.22386 7.22386 1 7.5 1C7.77614 1 8 1.22386 8 1.5V3H8.5C8.77614 3 9 3.22386 9 3.5V5.5C9 5.77614 8.77614 6 8.5 6H8C8 6.55228 7.55228 7 7 7H6.51476C6.51761 7.22512 6.51712 7.43781 6.50712 7.62784C6.48198 8.10545 6.39603 8.59094 6.08218 8.99447C5.76419 9.40331 5.27766 9.64641 4.63397 9.79232C3.99275 9.93766 3.13564 10 2 10V9C3.11436 9 3.88225 8.93734 4.41291 8.81706C4.94109 8.69734 5.17331 8.53419 5.29282 8.38053C5.41647 8.22156 5.48677 7.9883 5.5085 7.57528C5.51802 7.39442 5.51808 7.20655 5.51493 7H5C4.44772 7 4 6.55228 4 6H3.5C3.22386 6 3 5.77614 3 5.5V3.5C3 3.22386 3.22386 3 3.5 3H4V1.5C4 1.22386 4.22386 1 4.5 1Z" fill="white"/>
</svg>
