<svg width="580" height="580" viewBox="0 0 580 580" fill="none" xmlns="http://www.w3.org/2000/svg">
<g clip-path="url(#clip0)">
<path d="M66.2751 1.76766C24.9401 1.76766 1.7041 23.1387 1.7041 66.8037V516.927C1.7041 557.771 22.5991 579.156 63.8961 579.156H515.92C557.227 579.156 578.149 558.841 578.149 516.927V66.8037C578.149 24.2027 557.227 1.76766 514.628 1.76766C514.624 1.76766 66.1331 1.62466 66.2751 1.76766V1.76766Z" fill="#111111" stroke="#EEEEEE" stroke-width="3.408"/>
<path d="M414.156 180.438H205.132V217.825H414.156V180.438Z" fill="white" stroke="white" stroke-width="39.1571" stroke-linecap="round" stroke-linejoin="round"/>
<path d="M309.646 192.443C253.827 192.443 207.501 187.947 207.501 242.249C207.501 296.551 253.827 340.12 309.646 340.12C365.465 340.12 411.788 296.551 411.788 242.249C411.788 187.947 365.465 192.443 309.646 192.443V192.443Z" fill="white"/>
<path d="M247.759 204.035V67.0469" stroke="white" stroke-width="39.1571" stroke-linecap="round" stroke-linejoin="round"/>
<path d="M371.529 204.035V67.0469" stroke="white" stroke-width="39.1571" stroke-linecap="round" stroke-linejoin="round"/>
<path d="M309.158 307.893C332.658 454.287 248.954 516.613 130.901 502.533" stroke="white" stroke-width="46.9885" stroke-linecap="round" stroke-linejoin="round"/>
</g>
<defs>
<clipPath id="clip0">
<path d="M0 0H580V580H0V0Z" fill="white"/>
</clipPath>
</defs>
</svg>
