<svg width="12" height="12" viewBox="0 0 12 12" fill="none" xmlns="http://www.w3.org/2000/svg">
<path d="M3 2.5C3 2.22386 3.22386 2 3.5 2H4.5C4.77614 2 5 2.22386 5 2.5V3H3V2.5Z" fill="white"/>
<path d="M7 2.5C7 2.22386 7.22386 2 7.5 2H8.5C8.77614 2 9 2.22386 9 2.5V3H7V2.5Z" fill="white"/>
<path fill-rule="evenodd" clip-rule="evenodd" d="M2 5C2 4.44772 2.44772 4 3 4H9C9.55228 4 10 4.44772 10 5V9C10 9.55228 9.55228 10 9 10H3C2.44772 10 2 9.55228 2 9V5ZM7 6H8V7H9V8H8V9H7V8H6V7H7V6ZM5 8V7H3V8H5Z" fill="white"/>
</svg>
