<svg width="580" height="580" viewBox="0 0 580 580" fill="none" xmlns="http://www.w3.org/2000/svg">
<g clip-path="url(#clip0)">
<path d="M66.7751 1.26766C25.4401 1.26766 2.2041 22.6387 2.2041 66.3037V516.427C2.2041 557.271 23.0981 578.656 64.3961 578.656H516.42C557.727 578.656 578.649 558.34 578.649 516.427V66.3037C578.649 23.7027 557.727 1.26766 515.127 1.26766C515.124 1.26766 66.6331 1.12466 66.7751 1.26766V1.26766Z" fill="#111111" stroke="#EEEEEE" stroke-width="3.408"/>
<path d="M210.765 92.0234L164.876 102.379C153.811 106.067 146.44 113.439 140.907 122.66L65.2822 238.848C59.7496 246.224 57.9072 253.596 57.9072 260.973V402.973H113.251V366.098H76.3447L113.251 347.66V290.473C113.251 284.94 115.094 279.411 118.782 275.723L167.126 204.629C167.126 204.629 183.395 278.834 183.41 330.826C183.426 382.818 150.126 458.316 150.126 458.316C147.683 468.204 207.923 476.754 279.22 476.754C311.764 476.754 341.483 475.029 364.188 472.191C359.035 468.328 355.073 462.898 352.966 456.811C350.86 450.725 350.619 444.007 352.282 437.785L362.157 400.941C364.516 392.211 364.572 384.587 372.626 380.473C355.839 363.993 351.503 337.45 351.188 318.41C351.188 284.275 358.315 264.03 390.09 248.496L394.282 211.41L414.45 206.603C414.45 206.603 429.274 199.912 437.782 199.91H467.813L417.532 122.66C412 113.439 402.784 106.067 393.563 102.379L347.674 93.1601C315.954 135.001 254.314 152.719 210.765 92.0234V92.0234Z" fill="white"/>
<path d="M437.764 232.395V261.866C403.356 269.239 383.713 291.389 383.713 318.424C383.713 350.374 405.863 365.078 440.271 377.367C464.848 384.74 474.634 392.165 474.634 404.454C474.634 416.742 462.367 424.081 445.163 424.081C425.501 424.081 405.846 416.718 393.557 409.345L383.713 446.215C396.001 451.13 415.645 458.505 437.764 458.505V487.976H469.742V456.059C506.608 451.144 526.263 426.548 521.348 397.055C521.348 367.563 506.608 350.34 469.742 338.051C445.165 328.22 432.873 320.857 432.873 311.026C432.873 303.653 440.237 293.844 459.898 293.844C484.475 293.844 499.239 301.219 506.612 306.134L516.456 269.264C504.168 264.349 491.862 259.42 469.742 259.42V232.395H437.764Z" fill="white"/>
</g>
<defs>
<clipPath id="clip0">
<path d="M0 0H580V580H0V0Z" fill="white"/>
</clipPath>
</defs>
</svg>
