<svg width="580" height="580" viewBox="0 0 580 580" fill="none" xmlns="http://www.w3.org/2000/svg">
<g clip-path="url(#clip0)">
<path d="M66.2751 1.76766C24.9401 1.76766 1.7041 23.1387 1.7041 66.8037V516.927C1.7041 557.771 22.5991 579.156 63.8961 579.156H515.92C557.227 579.156 578.149 558.841 578.149 516.927V66.8037C578.149 24.2027 557.227 1.76766 514.628 1.76766C514.624 1.76766 66.1331 1.62466 66.2751 1.76766Z" fill="#111111" stroke="#EEEEEE" stroke-width="3.408"/>
<path d="M142.959 17.3798C142.553 17.454 142.151 17.5544 141.757 17.6803C139.586 18.1666 137.65 19.3909 136.28 21.1446C134.91 22.8983 134.19 25.0727 134.244 27.2975V51.9416L121.922 39.6195C120.777 38.4339 119.346 37.5624 117.767 37.0888C116.188 36.6151 114.514 36.5552 112.906 36.9147C111.146 37.2339 109.511 38.0371 108.183 39.2342C106.855 40.4313 105.887 41.9749 105.387 43.6917C104.888 45.4086 104.877 47.2306 105.355 48.9533C105.834 50.676 106.784 52.2312 108.097 53.4443L134.244 79.591V125.874L93.6712 102.732L84.3546 67.269C83.8916 65.1972 82.7562 63.3368 81.1253 61.9777C79.4945 60.6186 77.4598 59.8373 75.3384 59.7556C74.7387 59.6991 74.135 59.6991 73.5352 59.7556C72.1641 59.9553 70.8523 60.4488 69.6897 61.2025C68.527 61.9562 67.5409 62.9522 66.7989 64.1224C66.0569 65.2925 65.5764 66.6091 65.3904 67.9822C65.2044 69.3552 65.3173 70.7522 65.7212 72.0776L70.2293 89.2082L48.5906 76.5857C46.6868 75.4734 44.4587 75.049 42.2793 75.3835C40.2538 75.6409 38.3628 76.5361 36.88 77.9397C35.3971 79.3432 34.3994 81.1822 34.0312 83.1905C33.663 85.1988 33.9435 87.2722 34.832 89.1105C35.7205 90.9488 37.171 92.4566 38.9734 93.4158L60.3116 105.738L43.782 110.246C42.5572 110.56 41.4065 111.113 40.3956 111.873C39.3846 112.632 38.5333 113.584 37.8904 114.673C37.2474 115.762 36.8253 116.966 36.6483 118.219C36.4713 119.471 36.5429 120.745 36.8588 121.97C37.1748 123.194 37.729 124.344 38.4898 125.354C39.2506 126.364 40.203 127.214 41.2925 127.856C42.3821 128.498 43.5875 128.919 44.8397 129.094C46.092 129.27 47.3666 129.197 48.5906 128.879L84.054 119.262L124.326 142.704L84.054 166.146L48.5906 156.529C47.3227 156.161 45.9928 156.059 44.6836 156.228C42.434 156.507 40.3554 157.572 38.8145 159.235C37.2736 160.898 36.3695 163.051 36.2616 165.315C36.1538 167.58 36.8492 169.809 38.2252 171.611C39.6011 173.412 41.5691 174.67 43.782 175.162L60.3116 179.67L38.9734 191.992C37.8669 192.623 36.8956 193.465 36.115 194.472C35.3343 195.478 34.7597 196.629 34.4239 197.857C34.0882 199.086 33.9979 200.368 34.1582 201.632C34.3184 202.895 34.7262 204.115 35.3581 205.221C35.99 206.327 36.8337 207.297 37.8408 208.077C38.848 208.856 39.999 209.43 41.2279 209.764C42.4569 210.099 43.7397 210.188 45.003 210.026C46.2663 209.864 47.4854 209.455 48.5906 208.822L70.2293 196.2L65.7212 213.33C65.4055 214.554 65.3338 215.827 65.5103 217.079C65.6868 218.33 66.1081 219.534 66.7499 220.622C67.3918 221.711 68.2418 222.662 69.2513 223.422C70.2608 224.182 71.4101 224.736 72.6336 225.051C73.8571 225.367 75.1308 225.439 76.382 225.262C77.6331 225.086 78.8373 224.664 79.9257 224.023C81.0141 223.381 81.9654 222.531 82.7253 221.521C83.4852 220.512 84.0388 219.362 84.3546 218.139L93.6712 182.675L134.244 159.534V205.817L108.097 231.964C106.265 233.797 105.236 236.283 105.237 238.875C105.238 241.467 106.268 243.952 108.1 245.785C109.933 247.618 112.419 248.648 115.01 248.648C117.602 248.649 120.088 247.62 121.922 245.788L134.244 233.466V258.11C134.226 259.385 134.461 260.65 134.937 261.833C135.412 263.015 136.117 264.092 137.012 264.999C137.907 265.907 138.973 266.627 140.149 267.119C141.325 267.611 142.587 267.864 143.861 267.864C145.136 267.864 146.397 267.611 147.573 267.119C148.749 266.627 149.815 265.907 150.71 264.999C151.605 264.092 152.31 263.015 152.786 261.833C153.261 260.65 153.496 259.385 153.478 258.11V233.466L165.8 245.788C167.634 247.621 170.12 248.65 172.712 248.649C175.304 248.649 177.79 247.619 179.623 245.786C181.456 243.953 182.485 241.467 182.486 238.875C182.486 236.283 181.457 233.797 179.625 231.964L153.478 205.817V159.534L194.051 182.675L203.367 218.139C203.683 219.362 204.237 220.512 204.997 221.521C205.757 222.531 206.708 223.381 207.796 224.023C208.885 224.664 210.089 225.086 211.34 225.262C212.591 225.439 213.865 225.367 215.088 225.051C216.312 224.736 217.461 224.182 218.471 223.422C219.48 222.662 220.33 221.711 220.972 220.622C221.614 219.534 222.035 218.33 222.212 217.079C222.388 215.827 222.317 214.554 222.001 213.33L217.493 196.2L239.131 208.822C241.363 210.094 244.008 210.428 246.486 209.751C248.964 209.073 251.071 207.44 252.345 205.21C253.62 202.98 253.957 200.335 253.282 197.857C252.608 195.378 250.977 193.269 248.749 191.992L227.41 179.67L243.94 175.162C245.203 174.984 246.419 174.56 247.518 173.913C248.617 173.265 249.577 172.408 250.345 171.389C251.112 170.37 251.672 169.211 251.991 167.976C252.31 166.741 252.383 165.455 252.205 164.192C252.028 162.929 251.603 161.714 250.956 160.615C250.308 159.516 249.451 158.555 248.432 157.788C247.413 157.02 246.253 156.461 245.019 156.142C243.784 155.823 242.498 155.75 241.235 155.928C240.727 155.988 240.225 156.088 239.733 156.228C239.529 156.321 239.328 156.421 239.131 156.528L203.668 166.145L163.396 142.703L203.668 119.261L239.131 128.878C241.602 129.516 244.225 129.146 246.424 127.85C248.622 126.553 250.215 124.437 250.852 121.966C251.49 119.495 251.12 116.872 249.824 114.674C248.527 112.476 246.411 110.883 243.94 110.245L227.41 105.738L248.749 93.4158C250.926 92.4961 252.688 90.8069 253.7 88.6706C254.711 86.5343 254.9 84.1004 254.231 81.8334C253.562 79.5665 252.082 77.6252 250.073 76.3801C248.064 75.135 245.667 74.6732 243.339 75.083C243.034 75.1682 242.733 75.2685 242.437 75.3835C241.271 75.5776 240.15 75.9851 239.131 76.5857L217.493 89.2082L222.001 72.0776C222.432 70.6119 222.507 69.0646 222.221 67.5639C221.934 66.0633 221.295 64.6524 220.355 63.4481C219.415 62.2437 218.202 61.2807 216.816 60.6385C215.429 59.9964 213.91 59.6937 212.384 59.7556C212.083 59.7415 211.782 59.7415 211.482 59.7556C209.521 60.0209 207.689 60.8848 206.237 62.2294C204.785 63.5741 203.783 65.3339 203.367 67.269L194.051 102.732L153.478 125.874V79.591L179.625 53.4443C181.458 51.611 182.488 49.1245 182.488 46.5319C182.488 43.9393 181.458 41.4528 179.625 39.6195C177.792 37.7863 175.305 36.7563 172.713 36.7563C170.12 36.7563 167.634 37.7863 165.8 39.6195L153.478 51.9416V27.2975C153.527 25.93 153.283 24.5678 152.764 23.302C152.244 22.0361 151.46 20.8957 150.464 19.957C149.469 19.0183 148.284 18.3028 146.99 17.8584C145.696 17.4139 144.322 17.2507 142.959 17.3798V17.3798Z" fill="white"/>
<path d="M495.79 188.438C491.817 188.449 488.513 189.525 485.814 190.821C481.093 193.16 477.718 196.168 474.508 199.245C469.784 203.861 465.617 208.905 462.038 212.878C460.268 214.852 458.679 216.566 457.494 217.644C456.909 218.185 456.424 218.568 456.164 218.752C456.119 218.786 456.081 218.788 456.053 218.808L434.272 228.173C433.503 228.161 432.782 228.173 432 228.173C402.243 228.214 375.618 236.848 350.475 244.744C322.757 253.522 296.285 263.953 269.56 269.128C257.287 271.54 243.449 272.203 228.991 273.34C214.543 274.51 199.407 276.106 184.543 281.32C171.326 285.956 160.133 291.215 148.132 298.722C142.875 302.041 138.252 306.038 133.833 309.307C129.536 312.596 125.403 314.903 123.857 315.236L117.04 319.781C117.04 319.781 110.9 324.473 107.714 327.204L94.8876 338.201C81.9974 349.253 77.7947 377.21 77.8018 392.823C77.8018 392.825 77.8018 392.835 77.8018 392.878C77.8018 392.921 77.8018 393.022 77.8018 393.1C77.9135 417.025 85.6752 439.651 98.086 459.769C110.554 479.971 127.688 497.825 147.134 512.86C186.206 542.829 235.266 562.331 281.586 562.515C290.635 562.512 299.615 561.753 308.355 560.077C316.527 558.577 323.629 554.683 329.027 549.714C332.421 546.596 338.755 543.085 340.998 539.406C344.926 537.627 345.125 535.156 348.147 531.979C352.608 527.354 355.528 522.25 358.899 515.963C364.463 505.451 371.241 494.237 376.634 482.158C382.784 468.223 384.996 453.522 387.109 439.762C389.152 426.004 391.071 413.129 394.923 403.186C398.848 392.895 405.666 384.235 414.154 375.033C422.575 365.84 432.586 356.331 441.145 344.054C447.808 334.382 455.672 325.826 462.537 315.07C468.578 305.68 473.483 294.135 474.508 280.212L491.689 271.178L493.13 269.682C494.988 267.845 496.487 267.055 498.838 266.301C502.314 265.168 507.801 264.951 514.8 264.362C521.631 263.722 530.788 262.306 539.019 255.661C542.413 252.9 545.285 249.96 547.498 246.406C549.701 242.896 551.174 238.568 551.156 234.103C551.168 230.462 550.172 226.94 548.718 224.128C546.119 219.164 542.579 216.056 539.074 213.543C533.761 209.829 528.072 207.426 522.725 205.507C520.396 204.686 518.124 203.952 516.019 203.346C514.847 200.744 513.462 198.365 511.585 196.086C509.796 193.951 507.501 191.947 504.713 190.544C501.941 189.125 498.707 188.418 495.79 188.438V188.438ZM495.291 201.739C499.487 201.453 503.234 204.822 505.932 214.485C518.63 217.34 552.599 227.532 530.65 245.298C517.143 256.233 497.614 246.2 483.653 260.372L461.373 272.065C461.361 271.641 461.339 271.221 461.318 270.791C455.685 272.835 449.903 275.31 444.082 276.388C443.245 270.465 441.931 264.701 440.369 259.042C436.038 260.757 430.764 262.26 426.458 263.032C428.104 255.013 429.938 248.872 434.051 242.749L461.595 230.944C470.616 227.024 484.568 202.468 495.291 201.739H495.291ZM144.64 328.26C145.653 328.229 146.672 328.26 147.688 328.26C171.921 328.308 197.215 336.592 216.522 343.888C232.208 349.85 245.17 355.375 256.979 363.063C268.792 370.736 279.25 380.566 289.955 394.541C306.723 416.45 324.168 443.821 331.244 472.404C332.945 479.347 334.067 488.135 334.07 497.343C334.047 507.501 332.74 518.152 328.695 527.435C324.779 536.632 317.19 544.891 305.861 546.998C298.031 548.5 289.91 549.211 281.642 549.215C239.137 549.144 192.153 530.751 155.225 502.331C118.436 473.901 91.2253 435.1 91.1029 392.878C91.0994 379.175 94.0597 365.202 100.469 351.536L111.609 339.122L123.912 331.585C130.594 329.49 137.549 328.478 144.64 328.26ZM174.346 390.994C182.584 391.053 191.261 392.912 197.789 398.365C200.29 400.519 203.305 403.849 206.047 407.952C208.712 412.074 211.22 416.832 211.312 422.583C211.319 424.933 210.82 427.514 209.483 429.843C207.681 433.012 204.735 435.156 201.835 436.271C198.914 437.417 195.978 437.761 193.134 437.768C185.401 437.729 177.873 435.235 174.069 433.999L173.57 433.833L156.888 424.744L156.223 424.356L155.613 423.858C150.587 419.139 147.48 414.181 147.411 408.506C147.388 405.229 148.658 402.093 150.515 399.806C152.375 397.491 154.699 395.859 157.221 394.596C162.277 392.103 168.22 391.015 174.346 390.994V390.994ZM174.346 403.408C170.951 403.399 167.671 403.939 165.09 404.793C162.491 405.625 160.742 406.835 160.213 407.564C159.845 408.07 159.849 408.185 159.825 408.506C159.76 408.944 160.251 411.001 163.539 414.215L178.558 422.417C182.059 423.58 188.411 425.395 193.134 425.354C194.932 425.364 196.423 425.099 197.29 424.744C198.182 424.359 198.396 424.083 198.676 423.636C198.796 423.412 198.89 423.18 198.898 422.583C198.99 421.143 197.789 417.812 195.739 414.824C193.765 411.822 191.097 409.012 189.698 407.841C186.747 405.197 180.493 403.346 174.346 403.408Z" fill="white" stroke="white" stroke-width="1.8557"/>
<path opacity="0.1" fill-rule="evenodd" clip-rule="evenodd" d="M102.327 455.926L144.283 503.199L198.059 535.108L255.971 552.245L305.61 555.199L325.111 543.381L338.112 521.517L347.567 450.607L297.337 356.652L215.196 322.379L146.647 315.288L114.736 327.106L92.2805 348.379L84.0073 382.652L88.7348 424.607L102.327 455.926V455.926Z" fill="white"/>
<path opacity="0.1" fill-rule="evenodd" clip-rule="evenodd" d="M418.48 240.833L458.073 223.696L491.757 194.741L510.076 203.605L538.441 222.514L543.169 239.651L527.213 253.833L495.302 259.151L450.982 288.697L401.343 282.197L418.48 240.833V240.833Z" fill="white"/>
</g>
<defs>
<clipPath id="clip0">
<path d="M0 0H580V580H0V0Z" fill="white"/>
</clipPath>
</defs>
</svg>
