<svg width="580" height="580" viewBox="0 0 580 580" fill="none" xmlns="http://www.w3.org/2000/svg">
<g clip-path="url(#clip0)">
<path d="M66.7751 1.26766C25.4401 1.26766 2.2041 22.6387 2.2041 66.3037V516.427C2.2041 557.271 23.0981 578.656 64.3961 578.656H516.42C557.727 578.656 578.649 558.34 578.649 516.427V66.3037C578.649 23.7027 557.727 1.26766 515.127 1.26766C515.124 1.26766 66.6331 1.12466 66.7751 1.26766V1.26766Z" fill="#111111" stroke="#EEEEEE" stroke-width="3.408"/>
<path d="M289.99 54.9521L60.2968 188.937C55.8254 191.543 54.3252 197.286 56.9311 201.757C59.5464 206.219 65.2706 207.729 69.7513 205.123L74.4633 202.369V498.581C74.4633 513.195 86.3559 525.047 100.96 525.047H479.05C493.664 525.047 505.516 513.155 505.516 498.55V202.369L510.259 205.123C511.74 205.995 513.368 206.408 514.971 206.408C518.196 206.408 521.336 204.738 523.079 201.757C525.685 197.286 524.145 191.553 519.683 188.937L289.99 54.9521ZM181.156 230.029C183.483 230.027 185.786 230.492 187.931 231.396C190.075 232.3 192.016 233.625 193.639 235.292C193.639 235.292 205.589 247.314 211.141 266.746C216.693 286.178 215.684 314.44 195.812 344.249C180.888 366.634 181.894 381.853 185.042 392.867C188.189 403.882 193.639 409.268 193.639 409.268C195.318 410.869 196.659 412.789 197.585 414.916C198.51 417.043 199.001 419.333 199.028 421.653C199.056 423.972 198.619 426.273 197.744 428.422C196.869 430.57 195.573 432.521 193.933 434.162C192.293 435.802 190.341 437.097 188.193 437.972C186.045 438.847 183.744 439.284 181.424 439.257C179.105 439.229 176.814 438.738 174.688 437.813C172.561 436.887 170.64 435.546 169.039 433.868C169.039 433.868 157.12 421.876 151.568 402.444C146.016 383.013 146.994 354.751 166.867 324.942C181.79 302.556 180.815 287.307 177.668 276.292C174.521 265.277 169.039 259.892 169.039 259.892C166.562 257.479 164.86 254.382 164.151 250.997C163.442 247.612 163.757 244.092 165.058 240.887C166.358 237.682 168.584 234.938 171.451 233.004C174.319 231.07 177.697 230.034 181.156 230.029V230.029ZM285.553 230.029C287.88 230.027 290.184 230.492 292.328 231.396C294.473 232.3 296.414 233.625 298.037 235.292C298.037 235.292 309.956 247.314 315.508 266.746C321.06 286.178 320.082 314.44 300.209 344.249C285.286 366.634 286.261 381.853 289.409 392.867C292.556 403.882 298.037 409.268 298.037 409.268C299.715 410.869 301.057 412.789 301.982 414.916C302.908 417.043 303.398 419.333 303.426 421.653C303.453 423.972 303.016 426.273 302.141 428.422C301.266 430.57 299.971 432.521 298.331 434.161C296.691 435.802 294.739 437.097 292.591 437.972C290.443 438.847 288.141 439.284 285.822 439.257C283.503 439.229 281.212 438.738 279.085 437.813C276.958 436.887 275.038 435.546 273.437 433.868C273.437 433.868 261.518 421.876 255.966 402.444C250.414 383.013 251.392 354.751 271.264 324.942C286.188 302.556 285.212 287.307 282.065 276.292C278.918 265.277 273.437 259.892 273.437 259.892C270.96 257.479 269.258 254.382 268.548 250.997C267.839 247.612 268.155 244.092 269.455 240.887C270.756 237.682 272.982 234.938 275.849 233.004C278.716 231.07 282.095 230.034 285.553 230.029V230.029ZM389.951 230.029C392.278 230.027 394.582 230.492 396.726 231.396C398.87 232.3 400.811 233.625 402.435 235.292C402.435 235.292 414.354 247.314 419.906 266.746C425.457 286.178 424.48 314.44 404.607 344.249C389.683 366.634 390.659 381.853 393.806 392.867C396.953 403.882 402.435 409.268 402.435 409.268C404.113 410.869 405.454 412.789 406.38 414.916C407.305 417.043 407.796 419.333 407.823 421.653C407.851 423.972 407.414 426.273 406.539 428.422C405.664 430.57 404.368 432.521 402.728 434.161C401.088 435.802 399.137 437.097 396.988 437.972C394.84 438.847 392.539 439.284 390.219 439.257C387.9 439.229 385.61 438.738 383.483 437.813C381.356 436.887 379.435 435.546 377.834 433.868C377.834 433.868 365.885 421.876 360.333 402.444C354.781 383.013 355.789 354.751 375.662 324.942C390.586 302.556 389.579 287.307 386.432 276.292C383.285 265.277 377.834 259.892 377.834 259.892C375.357 257.479 373.655 254.382 372.946 250.997C372.237 247.612 372.553 244.092 373.853 240.887C375.153 237.682 377.379 234.938 380.246 233.004C383.114 231.07 386.492 230.034 389.951 230.029V230.029Z" fill="white"/>
</g>
<defs>
<clipPath id="clip0">
<path d="M0 0H580V580H0V0Z" fill="white"/>
</clipPath>
</defs>
</svg>
