<?xml version="1.0" encoding="UTF-8" standalone="no"?>
<!-- Created with Inkscape (http://www.inkscape.org/) -->

<svg
   xmlns:dc="http://purl.org/dc/elements/1.1/"
   xmlns:cc="http://creativecommons.org/ns#"
   xmlns:rdf="http://www.w3.org/1999/02/22-rdf-syntax-ns#"
   xmlns:svg="http://www.w3.org/2000/svg"
   xmlns="http://www.w3.org/2000/svg"
   xmlns:sodipodi="http://sodipodi.sourceforge.net/DTD/sodipodi-0.dtd"
   xmlns:inkscape="http://www.inkscape.org/namespaces/inkscape"
   version="1.0"
   width="580"
   height="580"
   id="svg2"
   sodipodi:version="0.32"
   inkscape:version="0.48.4 r9939"
   sodipodi:docname="furnace.svg"
   inkscape:output_extension="org.inkscape.output.svg.inkscape">
  <metadata
     id="metadata10">
    <rdf:RDF>
      <cc:Work
         rdf:about="">
        <dc:format>image/svg+xml</dc:format>
        <dc:type
           rdf:resource="http://purl.org/dc/dcmitype/StillImage" />
        <cc:license
           rdf:resource="http://web.resource.org/cc/PublicDomain" />
        <dc:language>en</dc:language>
        <dc:title />
      </cc:Work>
    </rdf:RDF>
  </metadata>
  <sodipodi:namedview
     inkscape:window-height="739"
     inkscape:window-width="1332"
     inkscape:pageshadow="2"
     inkscape:pageopacity="0.0"
     guidetolerance="10.0"
     gridtolerance="10.0"
     objecttolerance="10.0"
     borderopacity="1.0"
     bordercolor="#666666"
     pagecolor="#ffffff"
     id="base"
     showgrid="false"
     inkscape:zoom="0.50000001"
     inkscape:cx="-53.929783"
     inkscape:cy="232.7876"
     inkscape:window-x="34"
     inkscape:window-y="1024"
     inkscape:current-layer="svg2"
     inkscape:window-maximized="1" />
  <defs
     id="defs4">
    <clipPath
       id="clipoutline2"
       clipPathUnits="userSpaceOnUse">
      <path
         d="M 55.8,12 L 56.56,12.16 C 65.4,9.22 85.24,20.8 80.82,31.12 C 79.7,32.74 79.89,35.62 81.24,37.43 L 56.43,62.25 C 55.04,60.86 51.95,60.89 50.53,62.25 L 9.5,101.63 C 5.76,105.22 8.7,108.27 10.28,109.88 L 17.64,117.24 C 19.25,118.84 23.5,121 26.52,117.8 L 65.24,76.99 C 66.59,75.57 66.6,72.52 65.24,71.12 C 65.24,71.12 65.25,71.1 65.24,71.1 L 90.15,46.2 C 92.78,48.57 95.263827,48.774854 97.62,48.13 C 102.17057,46.884568 104.70725,51.336643 107.43,54.59 L 106.2,55.8 C 104.38,57.64 104.55,60.74 106.59,62.78 C 108.63,64.82 111.74,64.99 113.56,63.17 L 121.7,55.04 C 123.52,53.2 123.35,50.1 121.3,48.07 C 119.46,46.22 116.79,45.98 114.93,47.3 C 109.35,41.04 112.28,40.1 104.92,31.95 L 91.13,17.86 C 81.2,8.12 68.3,8.13 55.8,12 z"
         id="outline2" />
    </clipPath>
    <clipPath
       id="clipoutline1"
       clipPathUnits="userSpaceOnUse">
      <path
         d="M 22.42,17.2 L 35.38,30.15 L 32.88,38.93 L 24.1,41.43 L 11.14,28.47 L 5.28,34.33 L 20.17,55.79 L 37.73,52.45 L 99.36,118.07 C 108.8,127.58 121.53,113.32 112.7,105.2 L 46.85,42.92 L 50.86,25.16 L 28.72,10.89 L 22.42,17.2 z M 103.48,109.17 C 105.16,107.49 107.88,107.49 109.56,109.17 C 111.24,110.85 111.24,113.57 109.56,115.25 C 107.88,116.92 105.16,116.92 103.48,115.25 C 101.8,113.57 101.8,110.85 103.48,109.17 z"
         id="outline1" />
    </clipPath>
    <inkscape:perspective
       sodipodi:type="inkscape:persp3d"
       inkscape:vp_x="0 : 290 : 1"
       inkscape:vp_y="0 : 1000 : 0"
       inkscape:vp_z="580 : 290 : 1"
       inkscape:persp3d-origin="290 : 193.33333 : 1"
       id="perspective12" />
    <style
       type="text/css"
       id="style6">
   
    .fil0 {fill:#EF7900}
   
  </style>
    <inkscape:perspective
       id="perspective6807"
       inkscape:persp3d-origin="29.116032 : 19.410688 : 1"
       inkscape:vp_z="58.232063 : 29.116032 : 1"
       inkscape:vp_y="0 : 1000 : 0"
       inkscape:vp_x="0 : 29.116032 : 1"
       sodipodi:type="inkscape:persp3d" />
    <inkscape:perspective
       id="perspective6954"
       inkscape:persp3d-origin="290 : 193.33333 : 1"
       inkscape:vp_z="580 : 290 : 1"
       inkscape:vp_y="0 : 1000 : 0"
       inkscape:vp_x="0 : 290 : 1"
       sodipodi:type="inkscape:persp3d" />
    <marker
       viewBox="0 0 10 10"
       refY="5"
       refX="10"
       orient="auto"
       markerWidth="4"
       markerUnits="strokeWidth"
       markerHeight="3"
       id="ArrowStart">
      <path
         id="path2295"
         d="M 10 0 L 0 5 L 10 10 z" />
    </marker>
    <marker
       viewBox="0 0 10 10"
       refY="5"
       refX="0"
       orient="auto"
       markerWidth="4"
       markerUnits="strokeWidth"
       markerHeight="3"
       id="ArrowEnd">
      <path
         id="path2292"
         d="M 0 0 L 10 5 L 0 10 z" />
    </marker>
    <inkscape:perspective
       id="perspective7597"
       inkscape:persp3d-origin="178.5405 : 158.483 : 1"
       inkscape:vp_z="357.08099 : 237.7245 : 1"
       inkscape:vp_y="0 : 1000 : 0"
       inkscape:vp_x="0 : 237.7245 : 1"
       sodipodi:type="inkscape:persp3d" />
  </defs>
  <g
     id="g1327"
     transform="translate(0.5,-0.5)">
    <path
       d="M 66.275,1.768 C 24.94,1.768 1.704,23.139 1.704,66.804 l 0,450.123 c 0,40.844 20.894,62.229 62.192,62.229 l 452.024,0 c 41.307,0 62.229,-20.316 62.229,-62.229 l 0,-450.123 c 0,-42.601 -20.922,-65.036 -63.522,-65.036 -0.003,0 -448.494,-0.143 -448.352,0 z"
       style="fill:#111111;stroke:#eeeeee;stroke-width:3.40799999"
       id="path1329"
       inkscape:connector-curvature="0" />
  </g>
  <g
     id="g2319"
     transform="translate(879.29125,36.805119)">
    <path
       id="path2323"
       style="fill:#ffffff;stroke:none"
       d="" />
  </g>
  <g
     id="g2325"
     transform="translate(879.29125,36.805119)">
    <path
       id="path2329"
       style="fill:#ffffff;stroke:none"
       d="" />
  </g>
  <path
     d="M 289.98966,54.952418 60.29659,188.93749 c -4.471361,2.60596 -5.971641,8.34885 -3.365691,12.82022 2.61533,4.462 8.339481,5.97165 12.820221,3.36569 l 4.711967,-2.75374 0,296.21135 c 0,14.61397 11.892563,26.46657 26.497163,26.46657 l 378.08943,0 c 14.61397,0 26.46657,-11.89258 26.46657,-26.49716 l 0,-296.18076 4.74255,2.75374 c 1.48109,0.87177 3.10902,1.28509 4.71197,1.28509 3.22463,0 6.36469,-1.66987 8.10825,-4.65078 2.60595,-4.47137 1.06571,-10.20489 -3.39629,-12.82022 L 289.98966,54.952418 z M 181.15547,230.02951 a 17.39977,17.39977 0 0 1 12.48365,5.26272 c 0,0 11.94967,12.02217 17.50159,31.45391 5.55193,19.43174 4.54339,47.69381 -15.32919,77.50267 -14.9235,22.38523 -13.9173,37.60412 -10.77021,48.61893 3.1471,11.01481 8.59781,16.40009 8.59781,16.40009 a 17.39977,17.39977 0 1 1 -24.60013,24.60014 c 0,0 -11.91907,-11.99157 -17.471,-31.42331 -5.55192,-19.43174 -4.57398,-47.69383 15.29859,-77.50268 14.9235,-22.38524 13.94791,-37.6347 10.80081,-48.64952 -3.14709,-11.01482 -8.6284,-16.40009 -8.6284,-16.40009 a 17.39977,17.39977 0 0 1 12.11648,-29.86286 z m 104.3976,0 a 17.39977,17.39977 0 0 1 12.48365,5.26272 c 0,0 11.91907,12.02217 17.471,31.45391 5.55193,19.43174 4.57397,47.69381 -15.2986,77.50267 -14.9235,22.38523 -13.9479,37.60412 -10.80081,48.61893 3.1471,11.01481 8.62841,16.40009 8.62841,16.40009 a 17.39977,17.39977 0 1 1 -24.60014,24.60014 c 0,0 -11.91906,-11.99157 -17.47099,-31.42331 -5.55193,-19.43174 -4.57398,-47.69383 15.29859,-77.50268 14.9235,-22.38524 13.9479,-37.6347 10.80081,-48.64952 -3.14709,-11.01482 -8.62841,-16.40009 -8.62841,-16.40009 a 17.39977,17.39977 0 0 1 12.11649,-29.86286 z m 104.39761,0 a 17.39977,17.39977 0 0 1 12.48365,5.26272 c 0,0 11.91907,12.02217 17.47099,31.45391 5.55193,19.43174 4.57398,47.69381 -15.29859,77.50267 -14.9235,22.38523 -13.9479,37.60411 -10.80081,48.61893 3.1471,11.01482 8.62841,16.40009 8.62841,16.40009 a 17.39977,17.39977 0 1 1 -24.60014,24.60014 c 0,0 -11.94966,-11.99158 -17.50159,-31.42331 -5.55192,-19.43173 -4.54337,-47.69383 15.32919,-77.50268 14.92351,-22.38524 13.9173,-37.6347 10.77021,-48.64952 -3.14709,-11.01482 -8.59781,-16.40009 -8.59781,-16.40009 a 17.39977,17.39977 0 0 1 12.11649,-29.86286 z"
     id="path3"
     inkscape:connector-curvature="0"
     style="fill:#ffffff;fill-opacity:1;stroke:none" />
</svg>
