<?xml version="1.0" encoding="UTF-8" standalone="no"?>
<!-- Created with Inkscape (http://www.inkscape.org/) -->

<svg
   xmlns:dc="http://purl.org/dc/elements/1.1/"
   xmlns:cc="http://creativecommons.org/ns#"
   xmlns:rdf="http://www.w3.org/1999/02/22-rdf-syntax-ns#"
   xmlns:svg="http://www.w3.org/2000/svg"
   xmlns="http://www.w3.org/2000/svg"
   xmlns:sodipodi="http://sodipodi.sourceforge.net/DTD/sodipodi-0.dtd"
   xmlns:inkscape="http://www.inkscape.org/namespaces/inkscape"
   version="1.0"
   width="580"
   height="580"
   id="svg2"
   sodipodi:version="0.32"
   inkscape:version="0.91 r"
   sodipodi:docname="games.svg"
   inkscape:output_extension="org.inkscape.output.svg.inkscape">
  <metadata
     id="metadata2975">
    <rdf:RDF>
      <cc:Work
         rdf:about="">
        <dc:format>image/svg+xml</dc:format>
        <dc:type
           rdf:resource="http://purl.org/dc/dcmitype/StillImage" />
        <cc:license
           rdf:resource="http://web.resource.org/cc/PublicDomain" />
        <dc:language>en</dc:language>
      </cc:Work>
    </rdf:RDF>
  </metadata>
  <sodipodi:namedview
     inkscape:window-height="1006"
     inkscape:window-width="1920"
     inkscape:pageshadow="2"
     inkscape:pageopacity="0.0"
     guidetolerance="10.0"
     gridtolerance="10.0"
     objecttolerance="10.0"
     borderopacity="1.0"
     bordercolor="#666666"
     pagecolor="#ffffff"
     id="base"
     inkscape:zoom="0.65172414"
     inkscape:cx="306.15835"
     inkscape:cy="373.75893"
     inkscape:window-x="1680"
     inkscape:window-y="0"
     inkscape:current-layer="svg2"
     showgrid="false"
     inkscape:window-maximized="1" />
  <defs
     id="defs4">
    <inkscape:perspective
       sodipodi:type="inkscape:persp3d"
       inkscape:vp_x="0 : 290 : 1"
       inkscape:vp_y="0 : 1000 : 0"
       inkscape:vp_z="580 : 290 : 1"
       inkscape:persp3d-origin="290 : 193.33333 : 1"
       id="perspective2441" />
    <inkscape:perspective
       id="perspective2466"
       inkscape:persp3d-origin="372.04724 : 350.78739 : 1"
       inkscape:vp_z="744.09448 : 526.18109 : 1"
       inkscape:vp_y="0 : 1000 : 0"
       inkscape:vp_x="0 : 526.18109 : 1"
       sodipodi:type="inkscape:persp3d" />
    <inkscape:perspective
       id="perspective3333"
       inkscape:persp3d-origin="372.04724 : 350.78739 : 1"
       inkscape:vp_z="744.09448 : 526.18109 : 1"
       inkscape:vp_y="0 : 1000 : 0"
       inkscape:vp_x="0 : 526.18109 : 1"
       sodipodi:type="inkscape:persp3d" />
    <inkscape:perspective
       id="perspective3401"
       inkscape:persp3d-origin="372.04724 : 350.78739 : 1"
       inkscape:vp_z="744.09448 : 526.18109 : 1"
       inkscape:vp_y="0 : 1000 : 0"
       inkscape:vp_x="0 : 526.18109 : 1"
       sodipodi:type="inkscape:persp3d" />
    <inkscape:perspective
       id="perspective3464"
       inkscape:persp3d-origin="372.04724 : 350.78739 : 1"
       inkscape:vp_z="744.09448 : 526.18109 : 1"
       inkscape:vp_y="0 : 1000 : 0"
       inkscape:vp_x="0 : 526.18109 : 1"
       sodipodi:type="inkscape:persp3d" />
  </defs>
  <g
     id="g1327">
    <path
       d="M 66.275,1.768 C 24.94,1.768 1.704,23.139 1.704,66.804 L 1.704,516.927 C 1.704,557.771 22.599,579.156 63.896,579.156 L 515.92,579.156 C 557.227,579.156 578.149,558.841 578.149,516.927 L 578.149,66.804 C 578.149,24.203 557.227,1.768 514.628,1.768 C 514.624,1.768 66.133,1.625 66.275,1.768 z "
       style="fill:#111;stroke:#eee;stroke-width:3.40799999"
       id="path1329" />
  </g>
  <path
     inkscape:connector-curvature="0"
     style="color:#000000;line-height:normal;font-family:'Bitstream Vera Sans';-inkscape-font-specification:'Bitstream Vera Sans';text-indent:0;text-align:start;text-transform:none;block-progression:tb;overflow:visible;fill:#ffffff;fill-opacity:1;stroke:none;enable-background:accumulate"
     d="m 98.104982,45.206842 c -28.936968,0 -52.911021,23.974022 -52.911021,52.911012 l 0,322.565996 c 0,28.937 23.974053,52.91102 52.911021,52.91102 l 240.968258,0 c 28.93698,0 52.91102,-23.97402 52.91102,-52.91102 l 0,-322.565996 c 0,-28.93699 -23.97404,-52.911012 -52.91102,-52.911012 z m 0,40.798862 240.968258,0 c 7.782,0 12.11216,4.33019 12.11216,12.11215 l 0,322.565996 c 0,7.78198 -4.33016,12.11216 -12.11216,12.11216 l -240.968258,0 c -7.782005,0 -12.112162,-4.33018 -12.112162,-12.11216 l 0,-322.565996 c 0,-7.78196 4.330157,-12.11215 12.112162,-12.11215 z m 323.868658,14.413736 0,1.91247 0,40.79886 61.80806,16.18538 c 6.11983,2.03995 10.32721,8.41477 8.28727,16.57455 l -79.68528,311.72878 c -2.03994,6.11983 -8.41476,10.32721 -16.57453,8.28726 l -13.85609,-4.06768 c -10.19972,4.07989 -35.10255,12.12324 -47.3422,12.12324 l -101.99715,0 152.99573,30.83086 16.57453,0 c 24.47932,0 44.87875,-16.31954 50.99857,-40.79886 l 79.68528,-312.36626 c 8.15977,-26.51927 -10.32722,-56.99091 -38.88642,-63.11075 z m -205.29698,74.31492 c 0,0 -79.68527,54.82346 -79.68527,95.62232 0,24.47932 16.31955,40.79886 40.79887,40.79886 12.23965,0 26.39176,-9.81722 32.51159,-15.93705 0,0 -6.24733,28.43171 -18.48699,52.91102 0,4.07989 53.03852,2.03995 50.99857,0 -12.23965,-22.43937 -17.8495,-52.91102 -17.8495,-52.91102 8.15978,6.11983 20.27194,14.02461 32.51159,14.02461 24.47932,0 40.79886,-16.31954 40.79886,-40.79886 0,-42.8388 -79.55777,-95.74982 -81.59772,-93.70988 z"
     overflow="visible"
     id="path4"
     sodipodi:nodetypes="ssssssssssssssssssccccccccsccscccccssccccssc" />
</svg>
