<svg width="12" height="12" viewBox="0 0 12 12" fill="none" xmlns="http://www.w3.org/2000/svg">
<path d="M3.5083 9.93918C3.66556 9.97892 3.83023 10 3.99984 10H6.99984C8.10441 10 8.99984 9.1046 8.99984 8.00003V3.82031L10.2995 4.22604C10.822 4.38918 11.1162 4.95402 10.9564 5.48763L9.22067 11.2848C9.0609 11.8184 8.50775 12.1187 7.98517 11.9556L4.20031 10.774C3.81755 10.6545 3.55736 10.3195 3.5083 9.93918Z" fill="white"/>
<path fill-rule="evenodd" clip-rule="evenodd" d="M7 1C7.55228 1 8 1.44772 8 2V8C8 8.55228 7.55228 9 7 9H3C2.44772 9 2 8.55228 2 8V2C2 1.44772 2.44772 1 3 1H7ZM5.93926 6.00001C5.76218 6.00001 5.58967 5.95573 5.43652 5.87332L5.99986 7.00001H3.99986L4.56321 5.87331C4.41008 5.95573 4.23758 6 4.06051 6H3.99985C3.44756 6.00001 2.99985 5.55229 2.99985 5.00001C2.99985 4.68525 3.14804 4.38886 3.39984 4.20001L4.99984 3.00001L6.60005 4.20002C6.85188 4.38887 7.00009 4.68526 7.00009 5.00003C7.00009 5.5523 6.55239 6 6.00012 6.00001H5.93926Z" fill="white"/>
</svg>
