<svg width="580" height="580" viewBox="0 0 580 580" fill="none" xmlns="http://www.w3.org/2000/svg">
<g clip-path="url(#clip0)">
<path d="M66.2751 1.76863C24.9401 1.76863 1.7041 23.1396 1.7041 66.8046V516.928C1.7041 557.772 22.5991 579.157 63.8961 579.157H515.92C557.227 579.157 578.149 558.842 578.149 516.928V66.8046C578.149 24.2036 557.227 1.76863 514.628 1.76863C514.624 1.76863 66.1331 1.62563 66.2751 1.76863Z" fill="#111111" stroke="#EEEEEE" stroke-width="3.408"/>
<path fill-rule="evenodd" clip-rule="evenodd" d="M75.5638 230.576H504.437L454.769 442.402L125.238 440.944L75.5638 230.576V230.576Z" stroke="white" stroke-width="28.1734" stroke-linecap="round" stroke-linejoin="round"/>
<path d="M424.564 231.734V429.206" stroke="white" stroke-width="18.7822" stroke-linecap="round"/>
<path d="M466.208 309H107.441" stroke="white" stroke-width="18.7822" stroke-linecap="round"/>
<path d="M337.48 231.734V429.25" stroke="white" stroke-width="18.7822" stroke-linecap="round"/>
<path d="M246.396 231.734V438.158" stroke="white" stroke-width="18.7822" stroke-linecap="round"/>
<path d="M157.313 231.734V439.521" stroke="white" stroke-width="18.7822" stroke-linecap="round"/>
<path d="M448.392 388.084H125.258" stroke="white" stroke-width="18.7822" stroke-linecap="round"/>
<path fill-rule="evenodd" clip-rule="evenodd" d="M297.52 222.953L194.769 84.8711L182.551 94.1543L282.607 230.817L297.52 222.953Z" fill="white" stroke="white" stroke-width="20" stroke-linecap="round" stroke-linejoin="round"/>
</g>
<defs>
<clipPath id="clip0">
<path d="M0 0H580V580H0V0Z" fill="white"/>
</clipPath>
</defs>
</svg>
