<?xml version="1.0" encoding="UTF-8" standalone="no"?>
<!-- Created with Inkscape (http://www.inkscape.org/) -->

<svg
   xmlns:dc="http://purl.org/dc/elements/1.1/"
   xmlns:cc="http://creativecommons.org/ns#"
   xmlns:rdf="http://www.w3.org/1999/02/22-rdf-syntax-ns#"
   xmlns:svg="http://www.w3.org/2000/svg"
   xmlns="http://www.w3.org/2000/svg"
   xmlns:sodipodi="http://sodipodi.sourceforge.net/DTD/sodipodi-0.dtd"
   xmlns:inkscape="http://www.inkscape.org/namespaces/inkscape"
   version="1.0"
   width="580"
   height="580"
   id="svg2"
   sodipodi:version="0.32"
   inkscape:version="0.91 r"
   sodipodi:docname="hairdresser.svg"
   inkscape:output_extension="org.inkscape.output.svg.inkscape">
  <metadata
     id="metadata2975">
    <rdf:RDF>
      <cc:Work
         rdf:about="">
        <dc:format>image/svg+xml</dc:format>
        <dc:type
           rdf:resource="http://purl.org/dc/dcmitype/StillImage" />
        <cc:license
           rdf:resource="http://web.resource.org/cc/PublicDomain" />
        <dc:language>en</dc:language>
      </cc:Work>
    </rdf:RDF>
  </metadata>
  <sodipodi:namedview
     inkscape:window-height="1004"
     inkscape:window-width="1920"
     inkscape:pageshadow="2"
     inkscape:pageopacity="0.0"
     guidetolerance="10.0"
     gridtolerance="10.0"
     objecttolerance="10.0"
     borderopacity="1.0"
     bordercolor="#666666"
     pagecolor="#ffffff"
     id="base"
     inkscape:zoom="0.65172414"
     inkscape:cx="472.99973"
     inkscape:cy="344.61137"
     inkscape:window-x="1680"
     inkscape:window-y="0"
     inkscape:current-layer="svg2"
     showgrid="false"
     inkscape:window-maximized="1" />
  <defs
     id="defs4">
    <inkscape:perspective
       sodipodi:type="inkscape:persp3d"
       inkscape:vp_x="0 : 290 : 1"
       inkscape:vp_y="0 : 1000 : 0"
       inkscape:vp_z="580 : 290 : 1"
       inkscape:persp3d-origin="290 : 193.33333 : 1"
       id="perspective2441" />
    <inkscape:perspective
       id="perspective3452"
       inkscape:persp3d-origin="30 : 20 : 1"
       inkscape:vp_z="60 : 30 : 1"
       inkscape:vp_y="0 : 1000 : 0"
       inkscape:vp_x="0 : 30 : 1"
       sodipodi:type="inkscape:persp3d" />
    <symbol
       viewBox="244.5 110 489 219.9"
       id="symbol-university">
      <path
         id="path4460"
         d="M79,43l57,119c0,0,21-96,104-96s124,106,124,106l43-133l82-17L0,17L79,43z" />
      <path
         id="path4462"
         d="M94,176l-21,39"
         stroke-width="20"
         stroke="#000000"
         fill="none" />
      <path
         id="path4464"
         d="M300,19c0,10.5-22.6,19-50.5,19S199,29.5,199,19s22.6-19,50.5-19S300,8.5,300,19z" />
      <path
         id="path4466"
         d="M112,216l-16-38L64,88c0,0-9-8-4-35s16-24,16-24"
         stroke-width="20"
         stroke="#000000"
         ill="none" />
    </symbol>
    <inkscape:perspective
       id="perspective4471"
       inkscape:persp3d-origin="372.04724 : 350.78739 : 1"
       inkscape:vp_z="744.09448 : 526.18109 : 1"
       inkscape:vp_y="0 : 1000 : 0"
       inkscape:vp_x="0 : 526.18109 : 1"
       sodipodi:type="inkscape:persp3d" />
    <inkscape:perspective
       id="perspective4668"
       inkscape:persp3d-origin="6 : 4 : 1"
       inkscape:vp_z="12 : 6 : 1"
       inkscape:vp_y="0 : 1000 : 0"
       inkscape:vp_x="0 : 6 : 1"
       sodipodi:type="inkscape:persp3d" />
    <inkscape:perspective
       id="perspective2918"
       inkscape:persp3d-origin="0.5 : 0.33333333 : 1"
       inkscape:vp_z="1 : 0.5 : 1"
       inkscape:vp_y="0 : 1000 : 0"
       inkscape:vp_x="0 : 0.5 : 1"
       sodipodi:type="inkscape:persp3d" />
  </defs>
  <g
     id="g1327">
    <path
       d="M 66.275,1.768 C 24.94,1.768 1.704,23.139 1.704,66.804 L 1.704,516.927 C 1.704,557.771 22.599,579.156 63.896,579.156 L 515.92,579.156 C 557.227,579.156 578.149,558.841 578.149,516.927 L 578.149,66.804 C 578.149,24.203 557.227,1.768 514.628,1.768 C 514.624,1.768 66.133,1.625 66.275,1.768 z "
       style="fill:#111;stroke:#eee;stroke-width:3.40799999"
       id="path1329" />
  </g>
  <g
     id="g3380"
     transform="matrix(1.2390707,0,0,1.2390707,-97.656702,-52.782713)">
    <path
       sodipodi:nodetypes="csssssccccccssc"
       id="path3363"
       d="m 378.03125,82.59375 c -3.34391,0.315486 13.1714,105.45604 19.89448,131.33558 10.24912,39.45247 0.35667,4.67118 15.38677,67.60192 22.02627,92.22367 45.09441,167.90928 55.25493,178.84895 15.36328,16.54139 45.0101,11.1068 54.47922,-15.46146 7.10885,-19.94586 11.03654,-47.58963 -13.55789,-64.95383 -24.33791,-17.18309 -48.77989,1.65131 -48.77988,1.65132 L 379,82.84375 c -0.13367,-0.215343 -0.49105,-0.295069 -0.96875,-0.25 z m 112.90625,300.75 c 14.41202,0.0355 29.0817,16.8764 29.07744,38.27001 l 0,0.0625 c -0.0239,21.41216 -14.74665,39.29673 -29.17119,39.26124 -14.42455,-0.0355 -29.64384,-20.95778 -29.61993,-42.36993 0.0239,-21.41214 15.28914,-35.25931 29.71368,-35.22382 z"
       style="fill:#ffffff;fill-opacity:1;fill-rule:evenodd;stroke:#ffffff;stroke-width:8;stroke-linecap:round;stroke-linejoin:round;stroke-miterlimit:4;stroke-dasharray:none;stroke-opacity:1"
       inkscape:connector-curvature="0" />
    <path
       style="fill:#ffffff;fill-opacity:1;fill-rule:evenodd;stroke:#ffffff;stroke-width:8;stroke-linecap:round;stroke-linejoin:round;stroke-miterlimit:4;stroke-dasharray:none;stroke-opacity:1"
       d="m 478.09201,83.678729 c 3.34391,0.315486 -13.1714,105.456041 -19.89448,131.335581 -10.24912,39.45247 -0.35667,4.67118 -15.38677,67.60192 -22.02627,92.22367 -45.09441,167.90928 -55.25493,178.84895 -15.36328,16.54139 -45.0101,11.1068 -54.47922,-15.46146 -7.10885,-19.94586 -11.03654,-47.58963 13.55789,-64.95383 24.33791,-17.18309 48.77989,1.65131 48.77988,1.65132 L 477.12326,83.928729 c 0.13367,-0.215343 0.49105,-0.295069 0.96875,-0.25 z M 365.18576,384.42873 c -14.41202,0.0355 -29.0817,16.8764 -29.07744,38.27001 l 0,0.0625 c 0.0239,21.41216 14.74665,39.29673 29.17119,39.26124 14.42455,-0.0355 29.64384,-20.95778 29.61993,-42.36993 -0.0239,-21.41214 -15.28914,-35.25931 -29.71368,-35.22382 z"
       id="path3378"
       sodipodi:nodetypes="csssssccccccssc"
       inkscape:connector-curvature="0" />
  </g>
  <g
     id="g4244"
     transform="matrix(0.9994263,0,0,1.0232779,-4.5048484,9.8012399)">
    <path
       id="path3"
       d="M 178.80496,66.914106"
       stroke-miterlimit="10"
       style="fill:none;stroke:#ffffff;stroke-width:33.17860031;stroke-linecap:round;stroke-linejoin:round;stroke-miterlimit:10;stroke-dasharray:none;stroke-opacity:1"
       inkscape:connector-curvature="0" />
    <line
       id="line5"
       y2="84.555908"
       x2="298.7757"
       y1="53.709076"
       x1="174.23221"
       stroke-miterlimit="10"
       style="fill:none;stroke:#ffffff;stroke-width:27.07900047;stroke-linecap:round;stroke-linejoin:round;stroke-miterlimit:10;stroke-dasharray:none;stroke-opacity:1" />
    <line
       id="line7"
       y2="130.10118"
       x2="287.49521"
       y1="99.254303"
       x1="162.95172"
       stroke-miterlimit="10"
       style="fill:none;stroke:#ffffff;stroke-width:27.07900047;stroke-linecap:round;stroke-linejoin:round;stroke-miterlimit:10;stroke-dasharray:none;stroke-opacity:1" />
    <line
       id="line9"
       y2="175.64639"
       x2="276.21475"
       y1="144.79961"
       x1="151.67114"
       stroke-miterlimit="10"
       style="fill:none;stroke:#ffffff;stroke-width:27.07900047;stroke-linecap:round;stroke-linejoin:round;stroke-miterlimit:10;stroke-dasharray:none;stroke-opacity:1" />
    <line
       id="line11"
       y2="221.19167"
       x2="264.93414"
       y1="190.34485"
       x1="140.39059"
       stroke-miterlimit="10"
       style="fill:none;stroke:#ffffff;stroke-width:27.07900047;stroke-linecap:round;stroke-linejoin:round;stroke-miterlimit:10;stroke-dasharray:none;stroke-opacity:1" />
    <line
       id="line13"
       y2="266.73691"
       x2="253.65356"
       y1="235.89012"
       x1="129.11002"
       stroke-miterlimit="10"
       style="fill:none;stroke:#ffffff;stroke-width:27.07900047;stroke-linecap:round;stroke-linejoin:round;stroke-miterlimit:10;stroke-dasharray:none;stroke-opacity:1" />
    <line
       id="line15"
       y2="312.28223"
       x2="242.37296"
       y1="281.43536"
       x1="117.82954"
       stroke-miterlimit="10"
       style="fill:none;stroke:#ffffff;stroke-width:27.07900047;stroke-linecap:round;stroke-linejoin:round;stroke-miterlimit:10;stroke-dasharray:none;stroke-opacity:1" />
    <line
       id="line17"
       y2="357.82745"
       x2="231.09242"
       y1="326.98062"
       x1="106.54895"
       stroke-miterlimit="10"
       style="fill:none;stroke:#ffffff;stroke-width:27.07900047;stroke-linecap:round;stroke-linejoin:round;stroke-miterlimit:10;stroke-dasharray:none;stroke-opacity:1" />
    <line
       id="line19"
       y2="403.37271"
       x2="219.81189"
       y1="372.52588"
       x1="95.26841"
       stroke-miterlimit="10"
       style="fill:none;stroke:#ffffff;stroke-width:27.07900047;stroke-linecap:round;stroke-linejoin:round;stroke-miterlimit:10;stroke-dasharray:none;stroke-opacity:1" />
    <line
       id="line21"
       y2="448.91797"
       x2="208.5314"
       y1="418.07117"
       x1="83.987877"
       stroke-miterlimit="10"
       style="fill:none;stroke:#ffffff;stroke-width:27.07900047;stroke-linecap:round;stroke-linejoin:round;stroke-miterlimit:10;stroke-dasharray:none;stroke-opacity:1" />
    <line
       id="line23"
       y2="494.46326"
       x2="197.25081"
       y1="463.61639"
       x1="72.707291"
       stroke-miterlimit="10"
       style="fill:none;stroke:#ffffff;stroke-width:27.07900047;stroke-linecap:round;stroke-linejoin:round;stroke-miterlimit:10;stroke-dasharray:none;stroke-opacity:1" />
    <path
       sodipodi:nodetypes="ccccccccc"
       id="path25"
       d="m 199.91975,48.215876 c 15.3118,3.80446 -1.41715,12.84557 -5.19885,28.16299 L 101.4053,453.0923 c -3.773132,15.33163 6.77095,31.11559 -8.560674,27.34246 L 69.908168,476.76537 C 42.90839,470.09022 24.655648,440.50015 31.875407,411.44792 L 114.77325,76.698776 c 7.23646,-29.21727 37.77866,-40.811856 61.11261,-36.071823 z"
       style="fill:#ffffff;fill-opacity:1"
       inkscape:connector-curvature="0" />
  </g>
</svg>
