<svg width="580" height="580" viewBox="0 0 580 580" fill="none" xmlns="http://www.w3.org/2000/svg">
<g clip-path="url(#clip0)">
<path d="M66.2751 1.76863C24.9401 1.76863 1.7041 23.1396 1.7041 66.8046V516.928C1.7041 557.772 22.5991 579.157 63.8961 579.157H515.92C557.227 579.157 578.149 558.842 578.149 516.928V66.8046C578.149 24.2036 557.227 1.76863 514.628 1.76863C514.624 1.76863 66.1331 1.62563 66.2751 1.76863Z" fill="#111111" stroke="#EEEEEE" stroke-width="3.408"/>
<path fill-rule="evenodd" clip-rule="evenodd" d="M370.751 49.5561C366.607 49.947 387.071 180.224 395.401 212.29C408.101 261.175 395.843 218.078 414.467 296.054C441.759 410.325 470.342 504.105 482.931 517.66C501.968 538.156 538.702 531.422 550.435 498.502C559.243 473.788 564.11 439.535 533.636 418.02C503.479 396.729 473.194 420.066 473.194 420.066L371.951 49.8658C371.785 49.599 371.343 49.5002 370.751 49.5561ZM510.649 422.207C528.507 422.251 546.684 443.118 546.679 469.626V469.703C546.649 496.234 528.406 518.395 510.533 518.351C492.66 518.307 473.803 492.383 473.832 465.851C473.862 439.32 492.776 422.163 510.649 422.207Z" fill="white" stroke="white" stroke-width="9.91257" stroke-linecap="round" stroke-linejoin="round"/>
<path fill-rule="evenodd" clip-rule="evenodd" d="M494.733 50.8998C498.876 51.2907 478.413 181.567 470.082 213.634C457.383 262.518 469.64 219.422 451.017 297.397C423.725 411.669 395.142 505.449 382.552 519.004C363.516 539.5 326.782 532.766 315.049 499.846C306.24 475.132 301.374 440.879 331.848 419.364C362.004 398.073 392.29 421.41 392.29 421.41L493.533 51.2096C493.698 50.9428 494.141 50.844 494.733 50.8998ZM354.834 423.55C336.977 423.594 318.8 444.461 318.805 470.97V471.047C318.835 497.578 337.077 519.738 354.95 519.694C372.823 519.65 391.681 493.726 391.652 467.195C391.622 440.664 372.707 423.506 354.834 423.55Z" fill="white" stroke="white" stroke-width="9.91257" stroke-linecap="round" stroke-linejoin="round"/>
<path d="M169.627 64.7598L294.099 96.3246" stroke="white" stroke-width="27.3845" stroke-miterlimit="10" stroke-linecap="round" stroke-linejoin="round"/>
<path d="M158.354 111.365L282.826 142.93" stroke="white" stroke-width="27.3845" stroke-miterlimit="10" stroke-linecap="round" stroke-linejoin="round"/>
<path d="M147.079 157.971L271.551 189.536" stroke="white" stroke-width="27.3845" stroke-miterlimit="10" stroke-linecap="round" stroke-linejoin="round"/>
<path d="M135.805 204.576L260.277 236.141" stroke="white" stroke-width="27.3845" stroke-miterlimit="10" stroke-linecap="round" stroke-linejoin="round"/>
<path d="M124.531 251.182L249.003 282.746" stroke="white" stroke-width="27.3845" stroke-miterlimit="10" stroke-linecap="round" stroke-linejoin="round"/>
<path d="M113.257 297.787L237.729 329.352" stroke="white" stroke-width="27.3845" stroke-miterlimit="10" stroke-linecap="round" stroke-linejoin="round"/>
<path d="M101.983 344.393L226.455 375.957" stroke="white" stroke-width="27.3845" stroke-miterlimit="10" stroke-linecap="round" stroke-linejoin="round"/>
<path d="M90.709 390.998L215.181 422.563" stroke="white" stroke-width="27.3845" stroke-miterlimit="10" stroke-linecap="round" stroke-linejoin="round"/>
<path d="M79.4346 437.604L203.907 469.168" stroke="white" stroke-width="27.3845" stroke-miterlimit="10" stroke-linecap="round" stroke-linejoin="round"/>
<path d="M68.1606 484.209L192.633 515.774" stroke="white" stroke-width="27.3845" stroke-miterlimit="10" stroke-linecap="round" stroke-linejoin="round"/>
<path d="M195.3 59.1395C210.603 63.0325 193.884 72.2841 190.104 87.958L96.8422 473.441C93.0712 489.129 103.609 505.28 88.2864 501.419L65.3631 497.665C38.3788 490.834 20.1366 460.555 27.3522 430.827L110.202 88.2854C117.435 58.388 147.959 46.5235 171.28 51.3739L195.3 59.1395Z" fill="white"/>
</g>
<defs>
<clipPath id="clip0">
<path d="M0 0H580V580H0V0Z" fill="white"/>
</clipPath>
</defs>
</svg>
