<svg width="580" height="580" viewBox="0 0 580 580" fill="none" xmlns="http://www.w3.org/2000/svg">
<path d="M282.292 185.446H292.86C351.805 185.564 385.622 241.691 385.857 279.677C385.622 287.074 383.802 293.415 375.407 293.239C357.735 293.415 364.076 264.999 349.515 240.81C342.646 228.892 320.512 207.345 295.267 207.521H285.991C272.487 207.345 247.007 215.154 229.922 240.81C208.61 271.809 222.583 294.53 204.677 294.413C201.917 294.53 193.991 293.708 194.109 280.91C194.931 222.61 248.357 185.564 282.292 185.446Z" fill="white"/>
<path d="M290.335 507.825C312.469 508.06 329.553 485.633 329.788 470.192V438.136C329.553 372.498 398.479 346.606 398.245 280.909C398.479 219.381 342.881 172.882 290.335 172.999C246.772 172.882 217.064 201.004 205.85 215.564C172.151 257.249 191.525 296.996 167.689 296.996C160.937 296.996 154.244 293.18 154.185 279.676C153.128 214.508 206.907 145.406 291.685 145.288C360.024 145.406 427.248 199.889 427.248 283.434C427.248 360.814 359.496 377.018 359.496 444.946V473.949C359.496 503.774 332.9 537.885 289.219 538.061C287.634 537.591 285.755 537.004 283.701 536.828C275.657 534.421 270.08 525.967 272.017 517.747C274.307 510.585 280.941 508.823 289.924 507.884H290.335V507.825Z" fill="white"/>
<path d="M186.123 347.308L168.924 364.565L216.039 411.521L233.238 394.264L186.123 347.308Z" fill="white"/>
<path d="M232.739 335.158C232.504 327.643 238.61 321.538 245.831 321.303C253.757 321.538 259.805 327.643 259.687 335.158C259.805 342.732 253.699 348.779 245.831 349.014C238.61 348.838 232.563 342.732 232.739 335.158Z" fill="white"/>
<path d="M276.479 291.477C276.596 283.669 282.643 277.563 290.334 277.622C297.79 277.563 303.838 283.727 304.19 291.477C303.838 298.699 297.79 304.863 290.334 304.57C282.643 304.863 276.596 298.699 276.479 291.477Z" fill="white"/>
<path d="M98.9381 468.9C98.5858 461.561 104.809 455.455 112.148 455.808C119.839 455.397 125.886 461.561 126.004 468.9C125.886 476.65 119.839 482.697 112.148 482.756C104.809 482.697 98.5858 476.591 98.9381 468.9Z" fill="white"/>
<path d="M142.736 425.22C142.736 417.529 148.842 411.423 156.592 411.364C163.813 411.482 170.037 417.529 169.684 425.22C170.037 432.617 163.813 438.665 156.592 439.076C148.842 438.665 142.736 432.617 142.736 425.22Z" fill="white"/>
<path fill-rule="evenodd" clip-rule="evenodd" d="M330.375 118.809C388.733 133.604 435.525 177.755 453.784 234.763L475.331 227.952C454.489 163.723 402.413 113.878 336.598 97.2627L330.434 119.455V118.809H330.375H330.375Z" fill="white"/>
<path fill-rule="evenodd" clip-rule="evenodd" d="M342.176 73.7795L348.282 51.5869C429.831 72.0769 495.058 133.547 520.949 213.099L498.111 220.497C474.744 148.753 415.681 92.6842 342.176 73.7795Z" fill="white"/>
</svg>
