<svg width="580" height="580" viewBox="0 0 580 580" fill="none" xmlns="http://www.w3.org/2000/svg">
<path d="M450.615 75.8457H129.384C119.551 75.8457 111.538 83.8586 111.538 93.6918V147.23C111.538 157.064 119.551 165.076 129.384 165.076H450.615C460.448 165.076 468.461 157.064 468.461 147.23V93.6918C468.461 83.8586 460.448 75.8457 450.615 75.8457V75.8457Z" stroke="white" stroke-width="35.6923" stroke-miterlimit="10" stroke-linecap="round" stroke-linejoin="round"/>
<path d="M504.153 236.462C504.153 236.462 420.598 277.115 361.384 236.462C312.718 258.823 267.924 261.696 218.615 236.462C148.212 277.115 75.8457 236.462 75.8457 236.462L111.538 165.077H468.461L504.153 236.462Z" stroke="white" stroke-width="35.6923" stroke-miterlimit="10" stroke-linecap="round" stroke-linejoin="round"/>
<path d="M394.097 236.462L414.923 272.154L383.692 325.693H321.231L290 272.154L308.132 243.422L189.508 258.698L93.6924 236.462V435C93.6924 483.06 132.633 522 180.692 522H399.308C447.367 522 486.308 483.06 486.308 435V236.462L439.301 247.027L394.097 236.462ZM196.308 397.077L165.077 343.539L196.308 290H258.769L290 343.539L258.769 397.077H196.308ZM383.692 468.462H321.231L290 414.923L321.231 361.385H383.692L414.923 414.923L383.692 468.462Z" fill="white"/>
</svg>
