<svg width="580" height="580" viewBox="0 0 580 580" fill="none" xmlns="http://www.w3.org/2000/svg">
<g clip-path="url(#clip0)">
<path d="M66.7751 1.26863C25.4401 1.26863 2.2041 22.6396 2.2041 66.3046V516.428C2.2041 557.272 23.0981 578.657 64.3961 578.657H516.42C557.727 578.657 578.649 558.341 578.649 516.428V66.3046C578.649 23.7036 557.727 1.26863 515.127 1.26863C515.124 1.26863 66.6331 1.12563 66.7751 1.26863V1.26863Z" fill="#111111" stroke="#EEEEEE" stroke-width="3.408"/>
<path d="M515.985 187.279H493.387C483.115 187.279 474.897 195.497 472.842 205.769L458.462 316.707C456.407 337.251 437.917 353.687 417.373 353.687H162.626C142.082 353.687 123.593 337.251 121.538 316.707L107.157 205.769C105.103 195.497 96.8852 187.279 86.6132 187.279H64.0146" stroke="white" stroke-width="41.0882" stroke-miterlimit="10" stroke-linecap="round" stroke-linejoin="round"/>
<path d="M290 84.5586C179.062 84.5586 105.103 166.735 105.103 166.735H474.897C474.897 166.735 400.938 84.5586 290 84.5586V84.5586Z" fill="white"/>
<path d="M310.544 105.104H269.456L257.129 72.2333C257.129 68.1244 259.184 64.0156 265.347 64.0156H316.707C320.816 64.0156 324.925 68.1244 322.871 72.2333L310.544 105.104V105.104Z" fill="white"/>
<path d="M439.972 392.721H140.028C131.81 392.721 123.593 398.884 121.538 407.102L94.831 489.278C88.6678 501.604 98.9399 515.985 113.321 515.985H466.679C481.06 515.985 491.332 501.604 485.169 489.278L458.462 407.102C456.407 398.884 448.19 392.721 439.972 392.721ZM290 495.441C267.402 495.441 248.912 476.952 248.912 454.353C248.912 431.755 267.402 413.265 290 413.265C312.599 413.265 331.088 431.755 331.088 454.353C331.088 476.952 312.599 495.441 290 495.441Z" fill="white"/>
<path d="M273.565 470.788L306.435 437.918" stroke="white" stroke-width="20.5441" stroke-miterlimit="10"/>
</g>
<defs>
<clipPath id="clip0">
<path d="M0 0H580V580H0V0Z" fill="white"/>
</clipPath>
</defs>
</svg>
