<svg width="12" height="12" viewBox="0 0 12 12" fill="none" xmlns="http://www.w3.org/2000/svg">
<path d="M4.99999 7.49914C4.5874 7.49914 4.28625 7.40162 4.02148 7.29278C4.16351 8.25814 4.99526 8.99914 6.00007 8.99914C6.94476 8.99914 7.73647 8.34417 7.94587 7.46356C7.03267 6.87154 6.61898 7.03912 6.11206 7.24447C5.81385 7.36527 5.48338 7.49914 4.99999 7.49914Z" fill="white"/>
<path fill-rule="evenodd" clip-rule="evenodd" d="M2 1.5C2 1.22386 2.22386 1 2.5 1H9.5C9.77614 1 10 1.22386 10 1.5V10C10 10.5523 9.55228 11 9 11H3C2.44772 11 2 10.5523 2 10V1.5ZM7 2.5C7 2.77614 6.77614 3 6.5 3C6.22386 3 6 2.77614 6 2.5C6 2.22386 6.22386 2 6.5 2C6.77614 2 7 2.22386 7 2.5ZM9 2.5C9 2.77614 8.77614 3 8.5 3C8.22386 3 8 2.77614 8 2.5C8 2.22386 8.22386 2 8.5 2C8.77614 2 9 2.22386 9 2.5ZM6 10C7.65685 10 9 8.65685 9 7C9 5.34315 7.65685 4 6 4C4.34315 4 3 5.34315 3 7C3 8.65685 4.34315 10 6 10Z" fill="white"/>
</svg>
