<svg width="48" height="48" viewBox="0 0 48 48" fill="none" xmlns="http://www.w3.org/2000/svg">
<path d="M20.0003 30C18.3499 30 17.1453 29.61 16.0862 29.1746C16.6544 33.036 19.9814 36 24.0006 36C27.7794 36 30.9462 33.3802 31.7838 29.8577C28.131 27.4896 26.4762 28.16 24.4485 28.9814C23.2557 29.4646 21.9339 30 20.0003 30Z" fill="white"/>
<path fill-rule="evenodd" clip-rule="evenodd" d="M8 6C8 4.89543 8.89543 4 10 4H38C39.1046 4 40 4.89543 40 6V40C40 42.2091 38.2091 44 36 44H12C9.79086 44 8 42.2091 8 40V6ZM28 10C28 11.1046 27.1046 12 26 12C24.8954 12 24 11.1046 24 10C24 8.89543 24.8954 8 26 8C27.1046 8 28 8.89543 28 10ZM36 10C36 11.1046 35.1046 12 34 12C32.8954 12 32 11.1046 32 10C32 8.89543 32.8954 8 34 8C35.1046 8 36 8.89543 36 10ZM24 40C30.6274 40 36 34.6274 36 28C36 21.3726 30.6274 16 24 16C17.3726 16 12 21.3726 12 28C12 34.6274 17.3726 40 24 40Z" fill="white"/>
</svg>
