<svg width="12" height="12" viewBox="0 0 12 12" fill="none" xmlns="http://www.w3.org/2000/svg">
<path fill-rule="evenodd" clip-rule="evenodd" d="M3.86264 1.48076C3.94394 1.19619 4.20404 1 4.5 1H7.5C7.79596 1 8.05606 1.19619 8.13736 1.48076L9 4.5C9 4.77614 8.77614 5 8.5 5H3.5C3.22386 5 3 4.77614 3 4.5L3.86264 1.48076ZM5 6H7L7.35279 6.17639C7.74944 6.37472 8 6.78013 8 7.22361C8 7.40537 7.9576 7.58445 7.87852 7.74811C7.6121 8.29949 7 9.60882 7 10C7.55228 10 8 10.4477 8 11H4C4 10.4477 4.44772 10 5 10C5 9.60882 4.3879 8.29949 4.12148 7.74811C4.0424 7.58445 4 7.40537 4 7.22361C4 6.78013 4.25056 6.37472 4.64721 6.17639L5 6Z" fill="white"/>
</svg>
