<svg width="580" height="580" viewBox="0 0 580 580" fill="none" xmlns="http://www.w3.org/2000/svg">
<path d="M540.096 298.108C540.096 298.108 519.447 368.09 458.775 347.23C458.766 347.274 466.096 286.261 540.096 298.108Z" fill="white"/>
<path d="M438.397 384.677C448.881 374.306 463.199 368.049 479.094 368.049C511.168 368.049 537.266 394.034 537.266 426.164C537.266 427.348 537.266 428.363 537.21 429.603H537.097C536.082 442.173 532.08 457.787 522.61 477.177C522.61 477.177 506.32 508.349 493.243 522.666L492.059 523.793C485.746 530.163 476.84 534.165 467.201 534.165C455.364 534.165 444.879 528.416 438.51 519.509H438.34C431.971 528.416 421.486 534.165 409.649 534.165C399.898 534.165 391.104 530.219 384.735 523.793L383.551 522.666C370.586 508.349 354.183 477.177 354.183 477.177C344.713 457.787 340.711 442.06 339.809 429.603H339.527C339.358 428.419 339.358 427.404 339.358 426.164C339.358 394.034 365.457 368.049 397.643 368.049C413.482 368.049 427.8 374.306 438.397 384.677" fill="white"/>
<path d="M352.289 276.393C352.289 276.393 364.558 337.534 417.789 324.379C417.795 324.417 416.182 271.922 352.289 276.393Z" fill="white"/>
<path d="M436.702 372.369C436.702 372.369 436.111 309.591 429.607 293.214C423.104 276.837 451.482 293.214 451.482 293.214L436.702 372.369Z" fill="white" stroke="white" stroke-width="2.64218"/>
<path fill-rule="evenodd" clip-rule="evenodd" d="M58.4912 341.343L173.487 492.408L298.262 432.033L186.373 282.256L58.4912 341.343Z" fill="white" stroke="white" stroke-width="5.49104" stroke-linecap="round" stroke-linejoin="round"/>
<path fill-rule="evenodd" clip-rule="evenodd" d="M44.4788 356.312L157.505 505.104L154.245 558.172L40.1777 409.039L44.4788 356.312Z" fill="white" stroke="white" stroke-width="5.49104" stroke-linecap="round" stroke-linejoin="round"/>
<path opacity="0.75" fill-rule="evenodd" clip-rule="evenodd" d="M295.273 460.438L177.579 518.557L177.375 520.296L294.971 462.217L295.273 460.438H295.273Z" fill="white" stroke="white" stroke-width="9.04777" stroke-linecap="round" stroke-linejoin="round"/>
<path opacity="0.75" fill-rule="evenodd" clip-rule="evenodd" d="M292.989 492.396L175.295 550.516L175.091 552.255L292.687 494.176L292.989 492.396Z" fill="white" stroke="white" stroke-width="9.04777" stroke-linecap="round" stroke-linejoin="round"/>
<path d="M442.49 247.643L331.708 114.705H553.271L442.49 247.643Z" stroke="white" stroke-width="14.7709" stroke-linejoin="round"/>
<path d="M331.708 114.705L368.635 70.3926H516.344L553.271 114.705H331.708Z" stroke="white" stroke-width="14.7709" stroke-linejoin="round"/>
<path d="M390.792 70.3926L442.49 247.643L494.188 70.3926" stroke="white" stroke-width="14.7709" stroke-linejoin="round"/>
<path opacity="0.1" d="M442.49 247.643L331.708 114.705H553.271L442.49 247.643Z" fill="white" stroke="white" stroke-width="14.7709" stroke-linejoin="round"/>
<path opacity="0.1" d="M331.708 114.705L368.635 70.3926H516.344L553.271 114.705H331.708Z" fill="white" stroke="white" stroke-width="14.7709" stroke-linejoin="round"/>
<path fill-rule="evenodd" clip-rule="evenodd" d="M30.7705 72.5233C73.7064 49.535 110.36 51.8617 146.658 32.0546C166.13 36.3205 180.625 34.6152 194.025 31.5947C235.137 50.5223 271.284 53.5571 309.912 72.9832C306.702 93.2674 299.631 110.795 287.838 124.949C273.531 117.28 259.993 114.233 246.91 113.912L245.99 251.873C189.624 262.371 141.849 257.835 95.1524 251.413L94.6926 114.371C78.2492 113.894 65.7381 119.97 52.8443 125.408C40.443 108.501 34.6494 90.6487 30.7705 72.5233Z" fill="white" stroke="white" stroke-width="3.50954"/>
<path fill-rule="evenodd" clip-rule="evenodd" d="M37.209 70.2236C41.0952 89.0848 47.8841 106.7 61.1223 121.729L37.209 70.2236Z" fill="white"/>
<path d="M37.209 70.2236C41.0952 89.0848 47.8841 106.7 61.1223 121.729" stroke="white" stroke-width="1.75477"/>
<path fill-rule="evenodd" clip-rule="evenodd" d="M96.9922 244.055C146.352 252.134 195.711 253.869 245.071 243.595L96.9922 244.055Z" fill="white"/>
<path d="M96.9922 244.055C146.352 252.134 195.711 253.869 245.071 243.595" stroke="white" stroke-width="1.75477"/>
<path fill-rule="evenodd" clip-rule="evenodd" d="M146.198 32.5146C145.798 36.594 149.168 54.8578 170.571 55.968C191.516 57.0544 195.621 35.7249 194.944 32.9744" fill="white"/>
<path d="M146.198 32.5146C145.798 36.594 149.168 54.8578 170.571 55.968C191.516 57.0544 195.621 35.7249 194.944 32.9744" stroke="white" stroke-width="1.75477"/>
<path fill-rule="evenodd" clip-rule="evenodd" d="M137.106 37.4304C136.706 41.5097 145.133 63.9479 169.297 64.5628C193.921 65.1894 204.004 38.8012 203.328 36.0508" fill="white"/>
<path d="M137.106 37.4304C136.706 41.5097 145.133 63.9479 169.297 64.5628C193.921 65.1894 204.004 38.8012 203.328 36.0508" stroke="white" stroke-width="1.75477"/>
<path fill-rule="evenodd" clip-rule="evenodd" d="M148.181 40.7917C163.163 44.7105 176.4 43.8699 192.608 40.4375L148.181 40.7917Z" fill="white"/>
<path d="M148.181 40.7917C163.163 44.7105 176.4 43.8699 192.608 40.4375" stroke="white" stroke-width="1.75477"/>
<path fill-rule="evenodd" clip-rule="evenodd" d="M94.9042 51.2266C99.4244 68.5732 106.903 88.9347 94.4443 113.309L94.9042 51.2266Z" fill="white"/>
<path d="M94.9042 51.2266C99.4244 68.5732 106.903 88.9347 94.4443 113.309" stroke="white" stroke-width="1.75477"/>
<path fill-rule="evenodd" clip-rule="evenodd" d="M246.189 51.5801C241.669 68.9267 234.19 89.2882 246.649 113.663L246.189 51.5801Z" fill="white"/>
<path d="M246.189 51.5801C241.669 68.9267 234.19 89.2882 246.649 113.663" stroke="white" stroke-width="1.75477"/>
<path fill-rule="evenodd" clip-rule="evenodd" d="M303.934 69.7637C300.048 88.6248 293.259 106.24 280.021 121.269L303.934 69.7637Z" fill="white"/>
<path d="M303.934 69.7637C300.048 88.6248 293.259 106.24 280.021 121.269" stroke="white" stroke-width="1.75477"/>
</svg>
