<svg width="48" height="48" viewBox="0 0 48 48" fill="none" xmlns="http://www.w3.org/2000/svg">
<rect opacity="0.2" x="16" y="8" width="16" height="32" fill="white" />
<path d="M26 36C26 37.1046 25.1046 38 24 38C22.8954 38 22 37.1046 22 36C22 34.8954 22.8954 34 24 34C25.1046 34 26 34.8954 26 36Z" fill="white" />
<path fill-rule="evenodd" clip-rule="evenodd" d="M12 8C12 5.79086 13.7909 4 16 4H32C34.2091 4 36 5.79086 36 8V40C36 42.2091 34.2091 44 32 44H16C13.7909 44 12 42.2091 12 40V8ZM28 8H32V40H16V8H20C20 9.10457 20.8954 10 22 10H26C27.1046 10 28 9.10457 28 8Z" fill="white" />
</svg>