<svg width="580" height="580" viewBox="0 0 580 580" fill="none" xmlns="http://www.w3.org/2000/svg">
<g clip-path="url(#clip0)">
<path d="M66.7751 1.26863C25.4401 1.26863 2.2041 22.6396 2.2041 66.3046V516.428C2.2041 557.272 23.0981 578.657 64.3961 578.657H516.42C557.727 578.657 578.649 558.341 578.649 516.428V66.3046C578.649 23.7036 557.727 1.26863 515.127 1.26863C515.124 1.26863 66.6331 1.12563 66.7751 1.26863V1.26863Z" fill="#111111" stroke="#EEEEEE" stroke-width="3.408"/>
<path d="M535.219 126.98C535.219 138.943 535.219 350.313 535.219 359.26C535.219 368.207 528.479 376.978 516.024 359.26C502.543 340.064 467.897 274.062 408.516 274.062C345.667 274.062 222.058 274.062 222.058 274.062C222.058 274.062 160.825 279.344 160.825 323.332C160.825 366.926 186.406 372.602 200.241 372.602C214.096 372.602 303.038 372.602 321.15 372.602C385.517 372.602 380.807 296.076 380.807 296.076C380.807 296.076 418.035 298.401 418.035 324.318C418.035 358.393 398.307 412.019 318.49 412.019C257.769 412.019 219.949 412.019 200.241 412.019C180.533 412.019 121.409 392.783 121.409 313.478C121.409 253.388 164.333 215.411 214.529 215.411C226.275 215.411 340.247 215.411 394.602 215.411C456.604 215.411 507.983 137.8 516.043 126.98C524.104 116.161 535.219 115.018 535.219 126.98V126.98Z" fill="white"/>
<path d="M75.3307 214.938H149.003C149.003 214.938 113.553 237.593 108.8 274.062H73.1826L75.3307 214.938Z" fill="white"/>
<path d="M64.4907 293.769V195.229" stroke="white" stroke-width="39.4162" stroke-miterlimit="10" stroke-linecap="round" stroke-linejoin="round"/>
<path d="M219.949 441.58V254.354" stroke="white" stroke-width="39.4162" stroke-miterlimit="10" stroke-linecap="round" stroke-linejoin="round"/>
<path d="M279.073 441.58V254.354" stroke="white" stroke-width="39.4162" stroke-miterlimit="10" stroke-linecap="round" stroke-linejoin="round"/>
<path d="M338.198 441.58V254.354" stroke="white" stroke-width="39.4162" stroke-miterlimit="10" stroke-linecap="round" stroke-linejoin="round"/>
<path d="M219.949 195.229V155.812" stroke="white" stroke-width="45.5139" stroke-miterlimit="10" stroke-linejoin="round"/>
<path d="M279.073 195.229V155.812" stroke="white" stroke-width="45.5139" stroke-miterlimit="10" stroke-linejoin="round"/>
<path d="M338.198 195.229V155.812" stroke="white" stroke-width="45.5139" stroke-miterlimit="10" stroke-linejoin="round"/>
<path d="M324.402 155.812H351.994" stroke="white" stroke-width="46.6372" stroke-miterlimit="10" stroke-linecap="round" stroke-linejoin="round"/>
<path d="M265.277 155.812H292.869" stroke="white" stroke-width="46.6372" stroke-miterlimit="10" stroke-linecap="round" stroke-linejoin="round"/>
<path d="M206.153 155.812H233.745" stroke="white" stroke-width="46.6372" stroke-miterlimit="10" stroke-linecap="round" stroke-linejoin="round"/>
</g>
<defs>
<clipPath id="clip0">
<path d="M0 0H580V580H0V0Z" fill="white"/>
</clipPath>
</defs>
</svg>
