<svg width="48" height="48" viewBox="0 0 580 580" fill="none" xmlns="http://www.w3.org/2000/svg">
<path d="M147.496 53.9004C130.844 53.9004 116.869 64.4161 107.354 80.1895L54.5723 174.664C52.1934 179.922 50.1113 190.602 50.1113 198.488V474.521C50.1113 503.439 71.5217 527.1 97.6895 527.1H478.311C504.478 527.1 525.889 503.439 525.889 474.521V369.367V198.488C525.889 190.602 523.807 179.922 521.428 174.664L468.646 80.1895C459.131 64.4161 445.156 53.9004 428.504 53.9004H147.496ZM143.744 82.4369H264.918H312.496H433.67L473.852 185.344H311.789H264.211H102.148L143.744 82.4369ZM216.633 221.082H359.367C373.641 221.082 383.156 231.598 383.156 247.371C383.156 263.144 373.641 273.66 359.367 273.66H216.633C202.359 273.66 192.844 263.144 192.844 247.371C192.844 231.598 202.359 221.082 216.633 221.082ZM174.633 308.632H400.763L287.702 506.366L174.633 308.632Z" fill="white" />
</svg>