<?xml version="1.0" encoding="UTF-8" standalone="no"?>
<!-- Created with Inkscape (http://www.inkscape.org/) -->

<svg
   xmlns:dc="http://purl.org/dc/elements/1.1/"
   xmlns:cc="http://creativecommons.org/ns#"
   xmlns:rdf="http://www.w3.org/1999/02/22-rdf-syntax-ns#"
   xmlns:svg="http://www.w3.org/2000/svg"
   xmlns="http://www.w3.org/2000/svg"
   xmlns:sodipodi="http://sodipodi.sourceforge.net/DTD/sodipodi-0.dtd"
   xmlns:inkscape="http://www.inkscape.org/namespaces/inkscape"
   version="1.0"
   width="580"
   height="580"
   id="svg2"
   sodipodi:version="0.32"
   inkscape:version="0.91 r"
   sodipodi:docname="perfume.svg"
   inkscape:output_extension="org.inkscape.output.svg.inkscape">
  <metadata
     id="metadata2975">
    <rdf:RDF>
      <cc:Work
         rdf:about="">
        <dc:format>image/svg+xml</dc:format>
        <dc:type
           rdf:resource="http://purl.org/dc/dcmitype/StillImage" />
        <cc:license
           rdf:resource="http://web.resource.org/cc/PublicDomain" />
        <dc:language>en</dc:language>
        <dc:title></dc:title>
      </cc:Work>
    </rdf:RDF>
  </metadata>
  <sodipodi:namedview
     inkscape:window-height="995"
     inkscape:window-width="1280"
     inkscape:pageshadow="2"
     inkscape:pageopacity="0.0"
     guidetolerance="10.0"
     gridtolerance="10.0"
     objecttolerance="10.0"
     borderopacity="1.0"
     bordercolor="#666666"
     pagecolor="#ffffff"
     id="base"
     inkscape:zoom="0.1767767"
     inkscape:cx="117.61711"
     inkscape:cy="611.81587"
     inkscape:window-x="0"
     inkscape:window-y="0"
     inkscape:current-layer="svg2"
     showgrid="false"
     inkscape:window-maximized="1" />
  <defs
     id="defs4">
    <inkscape:perspective
       sodipodi:type="inkscape:persp3d"
       inkscape:vp_x="0 : 290 : 1"
       inkscape:vp_y="0 : 1000 : 0"
       inkscape:vp_z="580 : 290 : 1"
       inkscape:persp3d-origin="290 : 193.33333 : 1"
       id="perspective2441" />
    <inkscape:perspective
       id="perspective3452"
       inkscape:persp3d-origin="30 : 20 : 1"
       inkscape:vp_z="60 : 30 : 1"
       inkscape:vp_y="0 : 1000 : 0"
       inkscape:vp_x="0 : 30 : 1"
       sodipodi:type="inkscape:persp3d" />
    <symbol
       viewBox="244.5 110 489 219.9"
       id="symbol-university">
      <path
         id="path4460"
         d="M79,43l57,119c0,0,21-96,104-96s124,106,124,106l43-133l82-17L0,17L79,43z" />
      <path
         id="path4462"
         d="M94,176l-21,39"
         stroke-width="20"
         stroke="#000000"
         fill="none" />
      <path
         id="path4464"
         d="M300,19c0,10.5-22.6,19-50.5,19S199,29.5,199,19s22.6-19,50.5-19S300,8.5,300,19z" />
      <path
         id="path4466"
         d="M112,216l-16-38L64,88c0,0-9-8-4-35s16-24,16-24"
         stroke-width="20"
         stroke="#000000"
         ill="none" />
    </symbol>
    <inkscape:perspective
       id="perspective4471"
       inkscape:persp3d-origin="372.04724 : 350.78739 : 1"
       inkscape:vp_z="744.09448 : 526.18109 : 1"
       inkscape:vp_y="0 : 1000 : 0"
       inkscape:vp_x="0 : 526.18109 : 1"
       sodipodi:type="inkscape:persp3d" />
    <inkscape:perspective
       id="perspective4668"
       inkscape:persp3d-origin="6 : 4 : 1"
       inkscape:vp_z="12 : 6 : 1"
       inkscape:vp_y="0 : 1000 : 0"
       inkscape:vp_x="0 : 6 : 1"
       sodipodi:type="inkscape:persp3d" />
  </defs>
  <g
     id="g1327">
    <path
       d="M 66.275,1.768 C 24.94,1.768 1.704,23.139 1.704,66.804 L 1.704,516.927 C 1.704,557.771 22.599,579.156 63.896,579.156 L 515.92,579.156 C 557.227,579.156 578.149,558.841 578.149,516.927 L 578.149,66.804 C 578.149,24.203 557.227,1.768 514.628,1.768 C 514.624,1.768 66.133,1.625 66.275,1.768 z "
       style="fill:#111;stroke:#eee;stroke-width:3.40799999"
       id="path1329" />
  </g>
  <path
     style="fill:#ffffff;fill-opacity:1;stroke:none"
     d="m 427.8666,56.92206 c 11.57795,-3.51e-4 20.96407,9.385058 20.96459,20.96301 3.4e-4,11.578561 -9.38603,20.964921 -20.96459,20.96457 -11.57856,3.45e-4 -20.96492,-9.386013 -20.96458,-20.96457 5.2e-4,-11.577948 9.38663,-20.963355 20.96458,-20.96301 z m -280.48911,0.212172 c 40.27652,0 74.05276,23.37092 83.19665,54.857758 l 36.70335,0 0,-0.003 c 0,-34.257164 -8.1e-4,-34.256235 34.25625,-34.256235 33.10613,0.575524 34.25781,-8.04e-4 34.25781,34.256235 l 0,104.50652 -68.51406,-0.8047 0,-69.44243 -36.70335,0 c -9.14419,31.48648 -42.92044,54.85778 -83.19665,54.85778 -47.29924,0 -85.643748,-32.22908 -85.643748,-71.9859 0,-39.756832 38.344508,-71.985888 85.643748,-71.985888 z m 349.92576,18.053849 c 11.57733,5.22e-4 20.96249,9.385675 20.96301,20.963009 3.4e-4,11.57794 -9.38507,20.96405 -20.96301,20.96457 -11.57856,3.6e-4 -20.96494,-9.38601 -20.9646,-20.96457 5.2e-4,-11.577955 9.38664,-20.963365 20.9646,-20.963009 z m -50.24648,39.348459 c 11.57795,-3.5e-4 20.96406,9.38507 20.96458,20.96302 3.5e-4,11.57856 -9.38602,20.96493 -20.96458,20.96458 -11.57856,3.5e-4 -20.96494,-9.38602 -20.96459,-20.96458 5.2e-4,-11.57796 9.38663,-20.96337 20.96459,-20.96302 z m -59.02586,3.18737 c 11.57795,-3.5e-4 20.96406,9.38506 20.96458,20.96301 3.4e-4,11.57856 -9.38602,20.96492 -20.96458,20.96457 -11.57856,3.5e-4 -20.96492,-9.38601 -20.96458,-20.96457 5.2e-4,-11.57795 9.38663,-20.96336 20.96458,-20.96301 z M 494.15832,144.73 c 11.57857,-3.5e-4 20.96494,9.38602 20.96459,20.96459 3.5e-4,11.57856 -9.38603,20.96493 -20.96459,20.96458 -11.57856,3.5e-4 -20.96494,-9.38602 -20.96459,-20.96458 -3.5e-4,-11.57857 9.38602,-20.96494 20.96459,-20.96459 z m -63.35425,32.34824 c 11.57794,-3.4e-4 20.96405,9.38507 20.96457,20.96301 3.5e-4,11.57856 -9.38601,20.96492 -20.96457,20.96458 -11.57795,-5.2e-4 -20.96337,-9.38663 -20.96302,-20.96458 5.2e-4,-11.57734 9.38568,-20.96249 20.96302,-20.96301 z m 60.34606,25.87607 c 11.57734,5.2e-4 20.9625,9.38567 20.96302,20.96301 3.5e-4,11.57795 -9.38507,20.96406 -20.96302,20.96458 -11.57856,3.5e-4 -20.96494,-9.38602 -20.96459,-20.96458 5.2e-4,-11.57795 9.38664,-20.96336 20.96459,-20.96301 z m -121.10076,46.06582 c 29.57593,0 99.17589,57.35359 99.17589,57.35359 0,0 21.79442,102.42752 21.79442,141.36595 0,34.25717 -86.71313,75.33827 -120.97031,75.33827 l -137.02969,0 c -34.25718,0 -116.95626,-41.0811 -116.95626,-75.33827 0,-36.28452 20.28876,-132.25809 20.28876,-132.25809 0,0 64.438,-66.46145 96.6675,-66.46145 z"
     id="perfumery"
     inkscape:connector-curvature="0"
     sodipodi:nodetypes="ccccccccscsccccssccccccccccccccccccccccccccccccccscsssscss" />
</svg>
