<svg width="580" height="580" viewBox="0 0 580 580" fill="none" xmlns="http://www.w3.org/2000/svg">
<g clip-path="url(#clip0)">
<path d="M66.2751 1.76863C24.9401 1.76863 1.7041 23.1396 1.7041 66.8046V516.928C1.7041 557.772 22.5991 579.157 63.8961 579.157H515.92C557.227 579.157 578.149 558.842 578.149 516.928V66.8046C578.149 24.2036 557.227 1.76863 514.628 1.76863C514.624 1.76863 66.1331 1.62563 66.2751 1.76863Z" fill="#111111" stroke="#EEEEEE" stroke-width="3.408"/>
<path fill-rule="evenodd" clip-rule="evenodd" d="M300.743 253.338C324.068 271.147 350.322 294.315 349.163 326.41C350.342 346.435 349.654 366.754 354.282 386.41C369.223 409.902 382.797 435.519 387.032 463.294C389.188 503.472 358.904 541.205 321.554 553.183C282.914 561.237 240.087 551.292 211.758 523.002C192.965 506.075 179.152 480.903 152.802 474.737C128.858 468.309 103.1 465.29 82.6886 449.876C62.3289 436.834 49.7201 415.602 38.3087 395.006C25.6975 369.824 27.0095 338.609 42.8216 315.125C64.5566 278.681 109.948 264.722 150.347 267.052C167.336 268.473 185.309 269.733 200.026 259.225C218.733 248.132 238.836 232.181 262.07 238.406C275.734 240.989 288.704 246.474 300.743 253.338Z" fill="white"/>
<path fill-rule="evenodd" clip-rule="evenodd" d="M101.891 74.5973C118.402 58.9815 143.896 50.6051 165.547 60.0212C181.05 66.7146 193.779 79.2192 202.419 93.5462C216.395 122.671 214.375 156.725 206.535 187.26C202.983 201.978 197.693 216.829 186.874 227.851C174.907 241.351 156.194 247.697 138.448 245.192C113.386 245.328 89.7863 229.283 79.3829 206.69C73.0279 193.532 69.1225 178.966 70.2286 164.27C71.1739 132.287 79.151 98.3543 101.891 74.5973Z" fill="white"/>
<path fill-rule="evenodd" clip-rule="evenodd" d="M357.885 42.1516C357.885 42.1516 388.513 60.5906 382.124 109.965C382.124 109.965 378.684 142.405 351.376 179.145C351.376 179.145 327.337 218.181 294.346 220.328C294.346 220.328 245.259 230.379 231.792 169.642C231.792 169.642 222.507 127.067 240.498 85.3659C240.498 85.3659 258.745 42.0348 297.746 32.7658C297.746 32.7658 330.424 25.5931 357.885 42.1516Z" fill="white"/>
<path fill-rule="evenodd" clip-rule="evenodd" d="M514.254 146.653C514.254 146.653 545.434 180.287 515.671 221.074C515.671 221.074 497.204 257.065 457.881 276.477C457.881 276.477 413.914 303.11 383.748 290.899C383.748 290.899 347.554 282.236 353.271 222.199C353.271 222.199 369.065 159.593 414.843 138.312C414.843 138.312 475.01 102.15 514.254 146.653Z" fill="white"/>
<path fill-rule="evenodd" clip-rule="evenodd" d="M540.88 311.928C555.407 327.892 557.745 352.5 548.486 371.687C540.461 389.102 526.792 403.281 512.157 415.352C489.849 432.461 462.012 442.467 433.9 443.157C413.407 442.414 396.237 427.369 387.694 409.486C383.548 403.269 383.139 395.912 384.046 388.699C385.758 364.328 398.001 340.694 418.052 326.457C436.107 312.56 456.056 299.279 478.954 295.537C496.797 291.885 517.052 292.277 532.251 303.584C535.476 305.971 538.379 308.79 540.88 311.928Z" fill="white"/>
</g>
<defs>
<clipPath id="clip0">
<path d="M0 0H580V580H0V0Z" fill="white"/>
</clipPath>
</defs>
</svg>
