<svg width="580" height="580" viewBox="0 0 580 580" fill="none" xmlns="http://www.w3.org/2000/svg">
<g clip-path="url(#clip0)">
<path d="M66.2751 1.76863C24.9401 1.76863 1.7041 23.1396 1.7041 66.8046V516.928C1.7041 557.772 22.5981 579.157 63.8961 579.157H515.92C557.227 579.157 578.149 558.841 578.149 516.928V66.8046C578.149 24.2036 557.227 1.76863 514.627 1.76863C514.624 1.76863 66.1331 1.62563 66.2751 1.76863Z" fill="#111111" stroke="#EEEEEE" stroke-width="3.408"/>
<path d="M366.618 85.6857L302.779 149.524C295.727 156.576 289.61 188.233 277.22 200.623C264.87 212.993 226.161 251.701 200.622 277.241C175.082 302.78 156.595 295.728 149.543 302.8L85.7042 366.638C72.9443 379.379 72.9443 404.938 85.7042 417.698L162.322 494.335C175.082 507.095 200.622 507.095 213.401 494.335L277.24 430.477C284.292 423.445 277.24 404.938 302.779 379.398C328.338 353.859 354.676 327.54 379.417 302.8C404.177 278.04 423.463 284.312 430.515 277.241L494.354 213.422C507.095 200.642 507.095 175.103 494.354 162.323C494.354 162.323 430.515 98.4846 417.716 85.7051C404.937 72.9062 379.398 72.9062 366.618 85.6857V85.6857Z" stroke="white" stroke-width="38.9617" stroke-miterlimit="10" stroke-linecap="round" stroke-linejoin="round"/>
<path d="M458.821 121.159L522.815 57.1836" stroke="white" stroke-width="38.9617" stroke-miterlimit="10" stroke-linecap="round" stroke-linejoin="round"/>
<path d="M121.16 458.82L57.1846 522.815" stroke="white" stroke-width="38.9617" stroke-miterlimit="10" stroke-linecap="round" stroke-linejoin="round"/>
<path d="M328.924 129.477L451.633 252.167" stroke="white" stroke-width="38.9617" stroke-miterlimit="10" stroke-linecap="round" stroke-linejoin="round"/>
<path d="M286.782 200.686L374.66 288.564" stroke="white" stroke-width="38.9617" stroke-miterlimit="10" stroke-linecap="round" stroke-linejoin="round"/>
<path d="M208.725 281.193L296.603 369.072" stroke="white" stroke-width="38.9617" stroke-miterlimit="10" stroke-linecap="round" stroke-linejoin="round"/>
<path d="M144.872 318.432L267.562 441.142" stroke="white" stroke-width="38.9617" stroke-miterlimit="10" stroke-linecap="round" stroke-linejoin="round"/>
<path fill-rule="evenodd" clip-rule="evenodd" d="M136.36 317.786L221.353 264.666L322.689 365.186L255.676 439.554L136.36 317.786Z" fill="white"/>
<path fill-rule="evenodd" clip-rule="evenodd" d="M463.212 240.188L378.219 293.308L276.883 192.788L343.896 118.42L463.212 240.188Z" fill="white"/>
</g>
<defs>
<clipPath id="clip0">
<path d="M0 0H580V580H0V0Z" fill="white"/>
</clipPath>
</defs>
</svg>
