<svg width="580" height="580" viewBox="0 0 580 580" fill="none" xmlns="http://www.w3.org/2000/svg">
<path fill-rule="evenodd" clip-rule="evenodd" d="M382.133 33.1328L215.354 125.15L385.01 317.809L547.475 224.355L382.133 33.1328ZM341.018 92.2539L367.777 123.613L402.424 104.02L428.389 134.447L393.742 154.041L469.902 243.291L434.436 263.35L358.275 174.1L324.309 193.309L298.344 162.883L332.311 143.672L305.549 112.312L341.018 92.2539Z" fill="white" stroke="white" stroke-width="7.42468" stroke-linecap="round" stroke-linejoin="round"/>
<path fill-rule="evenodd" clip-rule="evenodd" d="M203.937 152.988L370.716 342.772L371.435 414.659L203.218 224.517L203.937 152.988Z" fill="white" stroke="white" stroke-width="7.42468" stroke-linecap="round" stroke-linejoin="round"/>
<path opacity="0.75" fill-rule="evenodd" clip-rule="evenodd" d="M549.634 254.696L396.5 344.426L396.393 346.791L549.398 257.126L549.634 254.696Z" fill="white" stroke="white" stroke-width="12.2339" stroke-linecap="round" stroke-linejoin="round"/>
<path opacity="0.75" fill-rule="evenodd" clip-rule="evenodd" d="M551.168 283.244L398.035 372.974L397.928 375.339L550.933 285.673L551.168 283.244H551.168Z" fill="white" stroke="white" stroke-width="12.2339" stroke-linecap="round" stroke-linejoin="round"/>
<path opacity="0.75" fill-rule="evenodd" clip-rule="evenodd" d="M550.401 314.094L397.267 403.823L397.16 406.188L550.165 316.523L550.401 314.094Z" fill="white" stroke="white" stroke-width="12.2339" stroke-linecap="round" stroke-linejoin="round"/>
<path d="M125.276 158.345C125.276 182.601 103.873 195.443 103.873 215.419C103.873 231.115 116.714 243.956 132.41 243.956C123.849 243.956 118.141 236.822 118.141 229.688C118.141 212.565 132.41 218.273 132.41 201.151C132.41 201.151 146.679 206.947 146.679 221.216C146.679 231.204 142.359 241.17 135.531 243.51C149.762 241.933 160.947 230.053 160.947 215.419C160.947 179.748 125.276 158.345 125.276 158.345ZM153.813 258.225C148.105 258.225 128.219 264.111 109.669 269.818C89.6933 275.526 75.3355 293.986 75.3355 313.962V315.299C75.3355 323.861 81.0429 329.568 89.6041 329.568V443.717H160.947V313.962C160.947 299.693 175.216 292.47 175.216 279.628C175.216 268.213 165.228 258.225 153.813 258.225ZM75.3355 463.985C75.3355 479.69 84.6675 491.108 92.7254 498.319C79.6533 505.145 61.0669 517.792 61.0669 535.328H189.484C189.484 516.868 170.898 504.838 157.826 498.319C165.884 491.108 175.216 479.69 175.216 463.985H75.3355Z" fill="white"/>
</svg>
