<?xml version="1.0" encoding="UTF-8" standalone="no"?>
<!-- Created with Inkscape (http://www.inkscape.org/) -->

<svg
   xmlns:dc="http://purl.org/dc/elements/1.1/"
   xmlns:cc="http://creativecommons.org/ns#"
   xmlns:rdf="http://www.w3.org/1999/02/22-rdf-syntax-ns#"
   xmlns:svg="http://www.w3.org/2000/svg"
   xmlns="http://www.w3.org/2000/svg"
   xmlns:sodipodi="http://sodipodi.sourceforge.net/DTD/sodipodi-0.dtd"
   xmlns:inkscape="http://www.inkscape.org/namespaces/inkscape"
   version="1.0"
   width="580"
   height="580"
   id="svg2"
   sodipodi:version="0.32"
   inkscape:version="0.91 r"
   sodipodi:docname="scuba_diving_shop.svg"
   inkscape:output_extension="org.inkscape.output.svg.inkscape">
  <metadata
     id="metadata10">
    <rdf:RDF>
      <cc:Work
         rdf:about="">
        <dc:format>image/svg+xml</dc:format>
        <dc:type
           rdf:resource="http://purl.org/dc/dcmitype/StillImage" />
        <cc:license
           rdf:resource="http://web.resource.org/cc/PublicDomain" />
        <dc:language>en</dc:language>
        <dc:title></dc:title>
      </cc:Work>
    </rdf:RDF>
  </metadata>
  <sodipodi:namedview
     inkscape:window-height="1004"
     inkscape:window-width="1920"
     inkscape:pageshadow="2"
     inkscape:pageopacity="0.0"
     guidetolerance="10.0"
     gridtolerance="10.0"
     objecttolerance="10.0"
     borderopacity="1.0"
     bordercolor="#666666"
     pagecolor="#ffffff"
     id="base"
     showgrid="false"
     inkscape:zoom="0.35355339"
     inkscape:cx="177.30451"
     inkscape:cy="241.5746"
     inkscape:window-x="1680"
     inkscape:window-y="0"
     inkscape:current-layer="svg2"
     inkscape:window-maximized="1"
     inkscape:snap-bbox="true" />
  <defs
     id="defs4">
    <inkscape:perspective
       sodipodi:type="inkscape:persp3d"
       inkscape:vp_x="0 : 290 : 1"
       inkscape:vp_y="0 : 1000 : 0"
       inkscape:vp_z="580 : 290 : 1"
       inkscape:persp3d-origin="290 : 193.33333 : 1"
       id="perspective12" />
    <style
       type="text/css"
       id="style6">
   
    .fil0 {fill:#EF7900}
   
  </style>
    <inkscape:perspective
       id="perspective6807"
       inkscape:persp3d-origin="29.116032 : 19.410688 : 1"
       inkscape:vp_z="58.232063 : 29.116032 : 1"
       inkscape:vp_y="0 : 1000 : 0"
       inkscape:vp_x="0 : 29.116032 : 1"
       sodipodi:type="inkscape:persp3d" />
    <inkscape:perspective
       id="perspective6954"
       inkscape:persp3d-origin="290 : 193.33333 : 1"
       inkscape:vp_z="580 : 290 : 1"
       inkscape:vp_y="0 : 1000 : 0"
       inkscape:vp_x="0 : 290 : 1"
       sodipodi:type="inkscape:persp3d" />
    <inkscape:perspective
       id="perspective2541"
       inkscape:persp3d-origin="240 : 160 : 1"
       inkscape:vp_z="480 : 240 : 1"
       inkscape:vp_y="0 : 1000 : 0"
       inkscape:vp_x="0 : 240 : 1"
       sodipodi:type="inkscape:persp3d" />
    <inkscape:perspective
       id="perspective2750"
       inkscape:persp3d-origin="215 : 143.33333 : 1"
       inkscape:vp_z="430 : 215 : 1"
       inkscape:vp_y="0 : 1000 : 0"
       inkscape:vp_x="0 : 215 : 1"
       sodipodi:type="inkscape:persp3d" />
    <inkscape:perspective
       id="perspective3730"
       inkscape:persp3d-origin="88.929146 : 101.19778 : 1"
       inkscape:vp_z="177.85829 : 151.79668 : 1"
       inkscape:vp_y="0 : 1000 : 0"
       inkscape:vp_x="0 : 151.79668 : 1"
       sodipodi:type="inkscape:persp3d" />
  </defs>
  <g
     id="g1327">
    <path
       d="M 66.275,1.768 C 24.94,1.768 1.704,23.139 1.704,66.804 L 1.704,516.927 C 1.704,557.771 22.598,579.156 63.896,579.156 L 515.92,579.156 C 557.227,579.156 578.149,558.84 578.149,516.927 L 578.149,66.804 C 578.149,24.203 557.227,1.768 514.627,1.768 C 514.624,1.768 66.133,1.625 66.275,1.768 z"
       style="fill:#111111;stroke:#eeeeee;stroke-width:3.40799999"
       id="path1329" />
  </g>
  <g
     style="font-size:36.50536728px;font-style:normal;font-variant:normal;font-weight:bold;font-stretch:normal;text-align:start;line-height:125%;letter-spacing:0px;word-spacing:0px;writing-mode:lr-tb;text-anchor:start;fill:#000000;fill-opacity:1;stroke:none;font-family:Sans;-inkscape-font-specification:Sans Bold"
     id="text3857" />
  <g
     style="font-size:25.55375862px;font-style:normal;font-variant:normal;font-weight:bold;font-stretch:normal;text-align:start;line-height:125%;letter-spacing:0px;word-spacing:0px;writing-mode:lr-tb;text-anchor:start;fill:#000000;fill-opacity:1;stroke:none;font-family:Sans;-inkscape-font-specification:Sans Bold"
     id="text3896" />
  <g
     id="g8144"
     transform="matrix(0.21235796,0,0,0.21235796,323.3892,78.646311)" />
  <g
     transform="matrix(0.21235796,0,0,0.21235796,389.3892,78.646311)"
     id="g8150" />
  <g
     id="g4354"
     transform="matrix(0.31972367,0,0,0.31972367,268.65635,192.82199)" />
  <path
     inkscape:connector-curvature="0"
     d="m 218.76751,435.79919 c -47.54095,0 -70.82716,-45.47894 -71.8061,-47.41598 -2.57231,-5.14463 -0.48947,-11.40358 4.65516,-13.9759 5.15505,-2.54107 11.39317,-0.48947 13.96548,4.63433 0.33326,0.64569 18.78727,35.92909 53.18546,35.92909 34.53358,0 52.99801,-35.56459 53.18546,-35.92909 2.60356,-5.11338 8.86251,-7.16498 13.9759,-4.59267 5.1238,2.58273 7.20664,8.81044 4.63433,13.94465 -0.96852,1.92663 -24.25474,47.40557 -71.79569,47.40557 z"
     id="path3"
     style="fill:#ffffff;fill-opacity:1" />
  <path
     inkscape:connector-curvature="0"
     d="m 483.28892,112.95813 c -5.75909,0 -10.41425,-4.66558 -10.41425,-10.41423 0,-5.74865 4.65516,-10.41423 10.41425,-10.41423 l 32.17994,0 c 0.85399,-3.592911 1.6663,-7.06084 2.45776,-10.414231 l -28.38919,0 c -5.75904,0 -10.4142,-4.665569 -10.4142,-10.414219 0,-5.748662 4.65516,-10.41423 10.4142,-10.41423 l 33.28387,0 c 1.68711,-7.206652 3.15554,-13.517672 4.30108,-18.485262 0.70817,-3.093018 -0.0208,-6.342258 -1.99953,-8.831258 -1.96829,-2.478592 -4.978,-3.92616 -8.14393,-3.92616 l -44.31254,0 c -4.78013,0 -8.9354,3.25965 -10.1018,7.88357 l -5.2904,21.16171 c -0.17707,0.34367 -0.36452,0.676918 -0.46864,1.072658 l -8.75839,35.835362 -4.22818,16.92312 c -0.67692,2.7077 -0.23952,5.57161 1.20805,7.95647 l 9.13328,14.95483 c -5.86321,22.2552 -29.90966,126.24127 -47.66592,202.08809 -10.00807,41.87561 -18.2978,76.18007 -20.96384,86.19856 -12.79906,54.12274 -34.32529,76.64872 -72.00397,76.64872 -39.61572,0 -71.84776,-31.66967 -71.84776,-71.29581 0,-1.40592 -0.57278,-2.75977 -1.57254,-3.72829 -0.99977,-0.97894 -2.27031,-1.33302 -3.76995,-1.47882 l -38.53265,1.05184 c -2.82225,0.0833 -5.06131,2.38486 -5.06131,5.20711 -0.0108,66.61982 54.18522,120.23226 120.79463,120.23226 61.86051,0 102.12191,-37.92862 119.6074,-113.79627 0.30201,-1.26012 0.68734,-2.82225 1.10391,-4.58226 l 0.15621,0.0521 c 8.65425,-35.50211 50.7277,-211.58587 76.14883,-319.07111 l -27.26442,0 z"
     id="path5"
     style="fill:#ffffff;fill-opacity:1" />
  <g
     transform="matrix(10.414228,0,0,10.414228,31.311421,29.64431)"
     id="g7"
     style="fill:#ffffff;fill-opacity:1">
    <path
       inkscape:connector-curvature="0"
       d="M 19.552,22.875 C 19.018,21.996 18.411,21 18,21 c -0.415,0 -1.028,1.001 -1.569,1.884 -0.709,1.158 -1.627,2.652 -3.075,3.726 0.327,0.305 0.669,0.673 0.961,0.989 C 15.409,28.78 16.536,30 18,30 c 1.454,0 2.551,-1.202 3.611,-2.364 0.314,-0.345 0.665,-0.727 1,-1.036 -1.444,-1.077 -2.354,-2.568 -3.059,-3.725 z"
       id="path9"
       style="fill:#ffffff;fill-opacity:1" />
    <path
       inkscape:connector-curvature="0"
       d="m 33.988,20.548 -0.997,-6.48 C 32.742,12.2 31.315,10.656 29.312,10.123 26.956,9.611 23.081,9 18,9 11.922,9 8.099,9.864 6.742,10.234 4.784,10.756 3.357,12.3 3.112,14.148 l -0.996,6.473 c -0.234,1.29 0.12,2.615 0.972,3.637 C 4.013,25.365 5.402,26 6.9,26 L 9,26 c 3.177,0 4.531,-2.21 5.726,-4.161 C 15.621,20.379 16.465,19 18,19 c 1.535,0 2.373,1.377 3.261,2.834 C 22.45,23.787 23.797,26 27,26 l 2.1,0 c 1.452,0 2.82,-0.609 3.752,-1.67 0.902,-1.027 1.317,-2.397 1.136,-3.782 z"
       id="path11"
       style="fill:#ffffff;fill-opacity:1" />
  </g>
</svg>
