<?xml version="1.0" encoding="UTF-8" standalone="no"?>
<!-- Created with Inkscape (http://www.inkscape.org/) -->

<svg
   xmlns:dc="http://purl.org/dc/elements/1.1/"
   xmlns:cc="http://creativecommons.org/ns#"
   xmlns:rdf="http://www.w3.org/1999/02/22-rdf-syntax-ns#"
   xmlns:svg="http://www.w3.org/2000/svg"
   xmlns="http://www.w3.org/2000/svg"
   xmlns:sodipodi="http://sodipodi.sourceforge.net/DTD/sodipodi-0.dtd"
   xmlns:inkscape="http://www.inkscape.org/namespaces/inkscape"
   version="1.0"
   width="580"
   height="580"
   id="svg2"
   sodipodi:version="0.32"
   inkscape:version="0.91 r"
   sodipodi:docname="sewing.svg"
   inkscape:output_extension="org.inkscape.output.svg.inkscape">
  <metadata
     id="metadata10">
    <rdf:RDF>
      <cc:Work
         rdf:about="">
        <dc:format>image/svg+xml</dc:format>
        <dc:type
           rdf:resource="http://purl.org/dc/dcmitype/StillImage" />
        <cc:license
           rdf:resource="http://web.resource.org/cc/PublicDomain" />
        <dc:language>en</dc:language>
        <dc:title />
      </cc:Work>
    </rdf:RDF>
  </metadata>
  <sodipodi:namedview
     inkscape:window-height="1006"
     inkscape:window-width="1920"
     inkscape:pageshadow="2"
     inkscape:pageopacity="0.0"
     guidetolerance="10.0"
     gridtolerance="10.0"
     objecttolerance="10.0"
     borderopacity="1.0"
     bordercolor="#666666"
     pagecolor="#ffffff"
     id="base"
     showgrid="false"
     inkscape:zoom="0.50000001"
     inkscape:cx="322.51489"
     inkscape:cy="376.81851"
     inkscape:window-x="0"
     inkscape:window-y="0"
     inkscape:current-layer="svg2"
     inkscape:window-maximized="1" />
  <defs
     id="defs4">
    <clipPath
       id="clipoutline2"
       clipPathUnits="userSpaceOnUse">
      <path
         d="M 55.8,12 L 56.56,12.16 C 65.4,9.22 85.24,20.8 80.82,31.12 C 79.7,32.74 79.89,35.62 81.24,37.43 L 56.43,62.25 C 55.04,60.86 51.95,60.89 50.53,62.25 L 9.5,101.63 C 5.76,105.22 8.7,108.27 10.28,109.88 L 17.64,117.24 C 19.25,118.84 23.5,121 26.52,117.8 L 65.24,76.99 C 66.59,75.57 66.6,72.52 65.24,71.12 C 65.24,71.12 65.25,71.1 65.24,71.1 L 90.15,46.2 C 92.78,48.57 95.263827,48.774854 97.62,48.13 C 102.17057,46.884568 104.70725,51.336643 107.43,54.59 L 106.2,55.8 C 104.38,57.64 104.55,60.74 106.59,62.78 C 108.63,64.82 111.74,64.99 113.56,63.17 L 121.7,55.04 C 123.52,53.2 123.35,50.1 121.3,48.07 C 119.46,46.22 116.79,45.98 114.93,47.3 C 109.35,41.04 112.28,40.1 104.92,31.95 L 91.13,17.86 C 81.2,8.12 68.3,8.13 55.8,12 z"
         id="outline2" />
    </clipPath>
    <clipPath
       id="clipoutline1"
       clipPathUnits="userSpaceOnUse">
      <path
         d="M 22.42,17.2 L 35.38,30.15 L 32.88,38.93 L 24.1,41.43 L 11.14,28.47 L 5.28,34.33 L 20.17,55.79 L 37.73,52.45 L 99.36,118.07 C 108.8,127.58 121.53,113.32 112.7,105.2 L 46.85,42.92 L 50.86,25.16 L 28.72,10.89 L 22.42,17.2 z M 103.48,109.17 C 105.16,107.49 107.88,107.49 109.56,109.17 C 111.24,110.85 111.24,113.57 109.56,115.25 C 107.88,116.92 105.16,116.92 103.48,115.25 C 101.8,113.57 101.8,110.85 103.48,109.17 z"
         id="outline1" />
    </clipPath>
    <inkscape:perspective
       sodipodi:type="inkscape:persp3d"
       inkscape:vp_x="0 : 290 : 1"
       inkscape:vp_y="0 : 1000 : 0"
       inkscape:vp_z="580 : 290 : 1"
       inkscape:persp3d-origin="290 : 193.33333 : 1"
       id="perspective12" />
    <style
       type="text/css"
       id="style6">
   
    .fil0 {fill:#EF7900}
   
  </style>
    <inkscape:perspective
       id="perspective6807"
       inkscape:persp3d-origin="29.116032 : 19.410688 : 1"
       inkscape:vp_z="58.232063 : 29.116032 : 1"
       inkscape:vp_y="0 : 1000 : 0"
       inkscape:vp_x="0 : 29.116032 : 1"
       sodipodi:type="inkscape:persp3d" />
    <inkscape:perspective
       id="perspective6954"
       inkscape:persp3d-origin="290 : 193.33333 : 1"
       inkscape:vp_z="580 : 290 : 1"
       inkscape:vp_y="0 : 1000 : 0"
       inkscape:vp_x="0 : 290 : 1"
       sodipodi:type="inkscape:persp3d" />
    <marker
       viewBox="0 0 10 10"
       refY="5"
       refX="10"
       orient="auto"
       markerWidth="4"
       markerUnits="strokeWidth"
       markerHeight="3"
       id="ArrowStart">
      <path
         id="path2295"
         d="M 10 0 L 0 5 L 10 10 z" />
    </marker>
    <marker
       viewBox="0 0 10 10"
       refY="5"
       refX="0"
       orient="auto"
       markerWidth="4"
       markerUnits="strokeWidth"
       markerHeight="3"
       id="ArrowEnd">
      <path
         id="path2292"
         d="M 0 0 L 10 5 L 0 10 z" />
    </marker>
    <inkscape:perspective
       id="perspective7597"
       inkscape:persp3d-origin="178.5405 : 158.483 : 1"
       inkscape:vp_z="357.08099 : 237.7245 : 1"
       inkscape:vp_y="0 : 1000 : 0"
       inkscape:vp_x="0 : 237.7245 : 1"
       sodipodi:type="inkscape:persp3d" />
  </defs>
  <g
     id="g1327"
     transform="translate(0.5,-0.5)">
    <path
       d="M 66.275,1.768 C 24.94,1.768 1.704,23.139 1.704,66.804 l 0,450.123 c 0,40.844 20.894,62.229 62.192,62.229 l 452.024,0 c 41.307,0 62.229,-20.316 62.229,-62.229 l 0,-450.123 c 0,-42.601 -20.922,-65.036 -63.522,-65.036 -0.003,0 -448.494,-0.143 -448.352,0 z"
       style="fill:#111111;stroke:#eeeeee;stroke-width:3.40799999"
       id="path1329"
       inkscape:connector-curvature="0"
       sodipodi:nodetypes="csssssssc" />
  </g>
  <g
     id="g2319"
     transform="translate(879.29125,36.805119)">
    <path
       id="path2323"
       style="fill:#ffffff;stroke:none"
       d="" />
  </g>
  <g
     id="g2325"
     transform="translate(879.29125,36.805119)">
    <path
       id="path2329"
       style="fill:#ffffff;stroke:none"
       d="" />
  </g>
  <path
     inkscape:connector-curvature="0"
     d="m 185.91378,33.375557 c -84.54233,0 -153.07107,68.528733 -153.07107,153.071063 0,84.54232 68.52874,153.07107 153.07107,153.07107 84.54231,0 153.07107,-68.52875 153.07107,-153.07107 0,-84.54233 -68.52876,-153.071063 -153.07107,-153.071063 z m 0,23.549393 c 71.41354,0 129.52167,58.10812 129.52167,129.52167 0,71.41354 -58.10813,129.52167 -129.52167,129.52167 -71.41355,0 -129.52167,-58.10813 -129.52167,-129.52167 0,-71.41355 58.10812,-129.52167 129.52167,-129.52167 z m 0,22.241684 c -59.15843,0 -107.279992,48.121556 -107.279992,107.279986 0,59.15842 48.121562,107.27999 107.279992,107.27999 59.15842,0 107.27998,-48.12157 107.27998,-107.27999 0,-59.15843 -48.12156,-107.279986 -107.27998,-107.279986 z m -35.32409,48.406506 c 12.99926,0 23.54938,10.55012 23.54938,23.54939 0,12.99926 -10.55012,23.5494 -23.54938,23.5494 -12.99927,0 -23.5494,-10.55014 -23.5494,-23.5494 0,-12.99927 10.55013,-23.54939 23.5494,-23.54939 z m 70.64817,0 c 12.99928,0 23.5494,10.55012 23.5494,23.54939 0,12.99926 -10.55012,23.5494 -23.5494,23.5494 -12.99926,0 -23.54939,-10.55014 -23.54939,-23.5494 0,-12.99927 10.55013,-23.54939 23.54939,-23.54939 z m -70.64817,70.64818 c 12.99926,0 23.54938,10.55013 23.54938,23.54938 0,12.99928 -10.55012,23.54941 -23.54938,23.54941 -12.99927,0 -23.5494,-10.55013 -23.5494,-23.54941 0,-12.99925 10.55013,-23.54938 23.5494,-23.54938 z m 70.64817,0 c 12.99928,0 23.5494,10.55013 23.5494,23.54938 0,12.99928 -10.55012,23.54941 -23.5494,23.54941 -12.99926,0 -23.54939,-10.55013 -23.54939,-23.54941 0,-12.99925 10.55013,-23.54938 23.54939,-23.54938 z"
     id="path4-3"
     style="fill:#ffffff;fill-opacity:1"
     sodipodi:nodetypes="sssssssssssssssssssssssssssssssssss" />
  <path
     inkscape:connector-curvature="0"
     d="m 381.96989,196.95255 c -3.89293,0 -7.03966,3.15377 -7.03966,7.03967 0,3.8859 -0.35327,12.53967 3.53966,12.53967 34.54366,0 60.20274,7.11007 77.53441,16.07862 3.37904,-4.65322 9.44728,-12.81599 11.98156,-15.6389 -19.06342,-10.33423 -47.09363,-20.01906 -86.01597,-20.01906 z m 86.01597,20.01906 c -2.50915,2.77912 -9.35188,11.05596 -12.68867,15.6389 -5.29453,7.27169 -7.3772,11.73753 -13.71009,21.09938 -11.35499,16.8037 -23.15172,34.14769 -30.57857,42.01804 -32.01643,33.88192 -75.97741,81.04244 -108.01494,115.49458 -22.89301,24.61774 -40.79842,44.09826 -43.55796,46.85781 -2.2527,2.25974 -19.42069,21.03806 -35.85833,40.03813 -34.74077,40.16132 -34.81468,43.24645 -29.47861,48.61772 l 2.41988,2.1999 2.85987,0 c 11.22123,0 82.71436,-66.86104 83.3761,-67.53684 2.80883,-2.80178 22.49701,-20.91486 47.29779,-43.99794 34.4099,-32.02346 81.3557,-75.92636 115.0546,-107.79495 7.72956,-7.30015 24.89932,-18.80296 41.35807,-29.9186 16.72626,-11.29163 32.49864,-21.91801 39.15816,-28.59866 8.13082,-8.11674 14.34861,-18.54602 16.93922,-28.59867 3.5339,-13.72735 0.3291,-26.06965 -9.01959,-35.41834 -6.68768,-6.68768 -15.24087,-10.11952 -24.63884,-10.11952 -15.59991,0 -30.39378,9.27476 -39.15817,18.03916 -0.49411,0.49467 -1.2181,1.3798 -1.75992,1.9799 z m 33.90843,9.24949 c 3.17443,0.0581 9.5762,0.48379 11.66963,2.57985 5.57542,5.58246 1.29614,22.6629 -6.67981,30.63885 -7.99002,7.99002 -24.04935,10.99633 -29.63885,5.39979 -6.62043,-6.89122 -2.70878,-17.51042 -2.20806,-20.08941 1.80792,1.13318 13.29231,12.91054 15.148,12.93915 1.49945,0 7.54503,-3.90609 8.81922,-4.89869 3.08337,-2.3794 3.47936,-7.88386 1.09994,-10.96019 -0.42942,-0.54206 -5.55671,-5.80819 -12.08951,-11.36953 3.88294,-2.5133 10.15147,-4.30793 13.87944,-4.23982 z m 25.04882,62.24717 c -3.59728,2.80883 -16.18732,10.26724 -20.81943,13.51957 0.69692,3.74511 1.09995,7.80524 1.09995,12.09943 0,29.9538 -14.85132,38.94787 -37.49794,61.25657 -23.32947,22.99861 -53.51778,51.34725 -53.51778,86.11618 0,66.68681 65.31204,91.47605 116.63473,91.47605 3.89293,0 11.03968,-4.14674 11.03968,-8.03967 0,-3.89294 -3.14675,-10.03966 -7.03968,-10.03966 -4.01261,0 -98.55538,-0.7955 -98.55538,-70.39672 0,-28.89081 21.0926,-49.57511 43.33797,-71.49665 23.73776,-23.36466 48.17774,-47.5301 48.17774,-83.3761 0,-7.89851 -1.26186,-14.99449 -2.85986,-21.119 z"
     id="path4"
     style="fill:#ffffff;fill-opacity:1"
     sodipodi:nodetypes="sssccscscccccccsccccccsscccsscccccccccscssssscsc" />
</svg>
