<?xml version="1.0" encoding="UTF-8" standalone="no"?>
<!-- Created with Inkscape (http://www.inkscape.org/) -->

<svg
   xmlns:dc="http://purl.org/dc/elements/1.1/"
   xmlns:cc="http://creativecommons.org/ns#"
   xmlns:rdf="http://www.w3.org/1999/02/22-rdf-syntax-ns#"
   xmlns:svg="http://www.w3.org/2000/svg"
   xmlns="http://www.w3.org/2000/svg"
   xmlns:sodipodi="http://sodipodi.sourceforge.net/DTD/sodipodi-0.dtd"
   xmlns:inkscape="http://www.inkscape.org/namespaces/inkscape"
   version="1.0"
   width="580"
   height="580"
   id="svg2"
   sodipodi:version="0.32"
   inkscape:version="0.48.4 r9939"
   sodipodi:docname="shoes.svg"
   inkscape:output_extension="org.inkscape.output.svg.inkscape">
  <metadata
     id="metadata2975">
    <rdf:RDF>
      <cc:Work
         rdf:about="">
        <dc:format>image/svg+xml</dc:format>
        <dc:type
           rdf:resource="http://purl.org/dc/dcmitype/StillImage" />
        <dc:title></dc:title>
      </cc:Work>
    </rdf:RDF>
  </metadata>
  <sodipodi:namedview
     inkscape:window-height="995"
     inkscape:window-width="1280"
     inkscape:pageshadow="2"
     inkscape:pageopacity="0.0"
     guidetolerance="10.0"
     gridtolerance="10.0"
     objecttolerance="10.0"
     borderopacity="1.0"
     bordercolor="#666666"
     pagecolor="#ffffff"
     id="base"
     inkscape:zoom="0.90509664"
     inkscape:cx="357.32686"
     inkscape:cy="365.48732"
     inkscape:window-x="0"
     inkscape:window-y="0"
     inkscape:current-layer="svg2"
     showgrid="false"
     inkscape:window-maximized="1" />
  <defs
     id="defs4">
    <inkscape:perspective
       sodipodi:type="inkscape:persp3d"
       inkscape:vp_x="17.187501 : 317.73438 : 1"
       inkscape:vp_y="0 : 1000 : 0"
       inkscape:vp_z="597.1875 : 317.73438 : 1"
       inkscape:persp3d-origin="307.1875 : 221.06771 : 1"
       id="perspective2441" />
    <inkscape:perspective
       id="perspective2466"
       inkscape:persp3d-origin="372.04724 : 350.78739 : 1"
       inkscape:vp_z="744.09448 : 526.18109 : 1"
       inkscape:vp_y="0 : 1000 : 0"
       inkscape:vp_x="0 : 526.18109 : 1"
       sodipodi:type="inkscape:persp3d" />
    <inkscape:perspective
       id="perspective3333"
       inkscape:persp3d-origin="372.04724 : 350.78739 : 1"
       inkscape:vp_z="744.09448 : 526.18109 : 1"
       inkscape:vp_y="0 : 1000 : 0"
       inkscape:vp_x="0 : 526.18109 : 1"
       sodipodi:type="inkscape:persp3d" />
    <inkscape:perspective
       id="perspective3401"
       inkscape:persp3d-origin="372.04724 : 350.78739 : 1"
       inkscape:vp_z="744.09448 : 526.18109 : 1"
       inkscape:vp_y="0 : 1000 : 0"
       inkscape:vp_x="0 : 526.18109 : 1"
       sodipodi:type="inkscape:persp3d" />
    <inkscape:perspective
       id="perspective3464"
       inkscape:persp3d-origin="372.04724 : 350.78739 : 1"
       inkscape:vp_z="744.09448 : 526.18109 : 1"
       inkscape:vp_y="0 : 1000 : 0"
       inkscape:vp_x="0 : 526.18109 : 1"
       sodipodi:type="inkscape:persp3d" />
    <inkscape:perspective
       id="perspective3581"
       inkscape:persp3d-origin="225 : 150 : 1"
       inkscape:vp_z="450 : 225 : 1"
       inkscape:vp_y="0 : 1000 : 0"
       inkscape:vp_x="0 : 225 : 1"
       sodipodi:type="inkscape:persp3d" />
    <inkscape:perspective
       id="perspective4312"
       inkscape:persp3d-origin="225 : 150 : 1"
       inkscape:vp_z="450 : 225 : 1"
       inkscape:vp_y="0 : 1000 : 0"
       inkscape:vp_x="0 : 225 : 1"
       sodipodi:type="inkscape:persp3d" />
    <inkscape:perspective
       id="perspective8860"
       inkscape:persp3d-origin="372.04724 : 350.78739 : 1"
       inkscape:vp_z="744.09448 : 526.18109 : 1"
       inkscape:vp_y="0 : 1000 : 0"
       inkscape:vp_x="0 : 526.18109 : 1"
       sodipodi:type="inkscape:persp3d" />
    <inkscape:perspective
       id="perspective8887"
       inkscape:persp3d-origin="372.04724 : 350.78739 : 1"
       inkscape:vp_z="744.09448 : 526.18109 : 1"
       inkscape:vp_y="0 : 1000 : 0"
       inkscape:vp_x="0 : 526.18109 : 1"
       sodipodi:type="inkscape:persp3d" />
    <inkscape:perspective
       sodipodi:type="inkscape:persp3d"
       inkscape:vp_x="0 : 16 : 1"
       inkscape:vp_y="0 : 1000 : 0"
       inkscape:vp_z="32 : 16 : 1"
       inkscape:persp3d-origin="16 : 10.666667 : 1"
       id="perspective4904" />
    <inkscape:perspective
       sodipodi:type="inkscape:persp3d"
       inkscape:vp_x="0 : 6 : 1"
       inkscape:vp_y="0 : 1000 : 0"
       inkscape:vp_z="12 : 6 : 1"
       inkscape:persp3d-origin="6 : 4 : 1"
       id="perspective4668" />
    <inkscape:perspective
       sodipodi:type="inkscape:persp3d"
       inkscape:vp_x="0 : 526.18109 : 1"
       inkscape:vp_y="0 : 1000 : 0"
       inkscape:vp_z="744.09448 : 526.18109 : 1"
       inkscape:persp3d-origin="372.04724 : 350.78739 : 1"
       id="perspective4471" />
    <symbol
       id="symbol-university"
       viewBox="244.5 110 489 219.9">
      <path
         d="M79,43l57,119c0,0,21-96,104-96s124,106,124,106l43-133l82-17L0,17L79,43z"
         id="path4460" />
      <path
         fill="none"
         stroke="#000000"
         stroke-width="20"
         d="M94,176l-21,39"
         id="path4462" />
      <path
         d="M300,19c0,10.5-22.6,19-50.5,19S199,29.5,199,19s22.6-19,50.5-19S300,8.5,300,19z"
         id="path4464" />
      <path
         ill="none"
         stroke="#000000"
         stroke-width="20"
         d="M112,216l-16-38L64,88c0,0-9-8-4-35s16-24,16-24"
         id="path4466" />
    </symbol>
    <inkscape:perspective
       sodipodi:type="inkscape:persp3d"
       inkscape:vp_x="0 : 30 : 1"
       inkscape:vp_y="0 : 1000 : 0"
       inkscape:vp_z="60 : 30 : 1"
       inkscape:persp3d-origin="30 : 20 : 1"
       id="perspective3452" />
    <inkscape:perspective
       id="perspective9479"
       inkscape:persp3d-origin="290 : 193.33333 : 1"
       inkscape:vp_z="580 : 290 : 1"
       inkscape:vp_y="0 : 1000 : 0"
       inkscape:vp_x="0 : 290 : 1"
       sodipodi:type="inkscape:persp3d" />
    <inkscape:perspective
       id="perspective9690"
       inkscape:persp3d-origin="372.04724 : 350.78739 : 1"
       inkscape:vp_z="744.09448 : 526.18109 : 1"
       inkscape:vp_y="0 : 1000 : 0"
       inkscape:vp_x="0 : 526.18109 : 1"
       sodipodi:type="inkscape:persp3d" />
    <inkscape:perspective
       sodipodi:type="inkscape:persp3d"
       inkscape:vp_x="0 : 290 : 1"
       inkscape:vp_y="0 : 1000 : 0"
       inkscape:vp_z="580 : 290 : 1"
       inkscape:persp3d-origin="290 : 193.33333 : 1"
       id="perspective9819" />
    <inkscape:perspective
       id="perspective9817"
       inkscape:persp3d-origin="30 : 20 : 1"
       inkscape:vp_z="60 : 30 : 1"
       inkscape:vp_y="0 : 1000 : 0"
       inkscape:vp_x="0 : 30 : 1"
       sodipodi:type="inkscape:persp3d" />
    <symbol
       viewBox="244.5 110 489 219.9"
       id="symbol9807">
      <path
         id="path9809"
         d="M79,43l57,119c0,0,21-96,104-96s124,106,124,106l43-133l82-17L0,17L79,43z" />
      <path
         id="path9811"
         d="M94,176l-21,39"
         stroke-width="20"
         stroke="#000000"
         fill="none" />
      <path
         id="path9813"
         d="M300,19c0,10.5-22.6,19-50.5,19S199,29.5,199,19s22.6-19,50.5-19S300,8.5,300,19z" />
      <path
         id="path9815"
         d="M112,216l-16-38L64,88c0,0-9-8-4-35s16-24,16-24"
         stroke-width="20"
         stroke="#000000"
         ill="none" />
    </symbol>
    <inkscape:perspective
       id="perspective9805"
       inkscape:persp3d-origin="372.04724 : 350.78739 : 1"
       inkscape:vp_z="744.09448 : 526.18109 : 1"
       inkscape:vp_y="0 : 1000 : 0"
       inkscape:vp_x="0 : 526.18109 : 1"
       sodipodi:type="inkscape:persp3d" />
    <inkscape:perspective
       id="perspective9803"
       inkscape:persp3d-origin="6 : 4 : 1"
       inkscape:vp_z="12 : 6 : 1"
       inkscape:vp_y="0 : 1000 : 0"
       inkscape:vp_x="0 : 6 : 1"
       sodipodi:type="inkscape:persp3d" />
    <inkscape:perspective
       id="perspective9801"
       inkscape:persp3d-origin="16 : 10.666667 : 1"
       inkscape:vp_z="32 : 16 : 1"
       inkscape:vp_y="0 : 1000 : 0"
       inkscape:vp_x="0 : 16 : 1"
       sodipodi:type="inkscape:persp3d" />
    <inkscape:perspective
       sodipodi:type="inkscape:persp3d"
       inkscape:vp_x="0 : 526.18109 : 1"
       inkscape:vp_y="0 : 1000 : 0"
       inkscape:vp_z="744.09448 : 526.18109 : 1"
       inkscape:persp3d-origin="372.04724 : 350.78739 : 1"
       id="perspective9799" />
    <inkscape:perspective
       sodipodi:type="inkscape:persp3d"
       inkscape:vp_x="0 : 526.18109 : 1"
       inkscape:vp_y="0 : 1000 : 0"
       inkscape:vp_z="744.09448 : 526.18109 : 1"
       inkscape:persp3d-origin="372.04724 : 350.78739 : 1"
       id="perspective9797" />
    <inkscape:perspective
       sodipodi:type="inkscape:persp3d"
       inkscape:vp_x="0 : 225 : 1"
       inkscape:vp_y="0 : 1000 : 0"
       inkscape:vp_z="450 : 225 : 1"
       inkscape:persp3d-origin="225 : 150 : 1"
       id="perspective9795" />
    <inkscape:perspective
       sodipodi:type="inkscape:persp3d"
       inkscape:vp_x="0 : 225 : 1"
       inkscape:vp_y="0 : 1000 : 0"
       inkscape:vp_z="450 : 225 : 1"
       inkscape:persp3d-origin="225 : 150 : 1"
       id="perspective9793" />
    <inkscape:perspective
       sodipodi:type="inkscape:persp3d"
       inkscape:vp_x="0 : 526.18109 : 1"
       inkscape:vp_y="0 : 1000 : 0"
       inkscape:vp_z="744.09448 : 526.18109 : 1"
       inkscape:persp3d-origin="372.04724 : 350.78739 : 1"
       id="perspective9791" />
    <inkscape:perspective
       sodipodi:type="inkscape:persp3d"
       inkscape:vp_x="0 : 526.18109 : 1"
       inkscape:vp_y="0 : 1000 : 0"
       inkscape:vp_z="744.09448 : 526.18109 : 1"
       inkscape:persp3d-origin="372.04724 : 350.78739 : 1"
       id="perspective9789" />
    <inkscape:perspective
       sodipodi:type="inkscape:persp3d"
       inkscape:vp_x="0 : 526.18109 : 1"
       inkscape:vp_y="0 : 1000 : 0"
       inkscape:vp_z="744.09448 : 526.18109 : 1"
       inkscape:persp3d-origin="372.04724 : 350.78739 : 1"
       id="perspective9787" />
    <inkscape:perspective
       sodipodi:type="inkscape:persp3d"
       inkscape:vp_x="0 : 526.18109 : 1"
       inkscape:vp_y="0 : 1000 : 0"
       inkscape:vp_z="744.09448 : 526.18109 : 1"
       inkscape:persp3d-origin="372.04724 : 350.78739 : 1"
       id="perspective9785" />
    <inkscape:perspective
       id="perspective9783"
       inkscape:persp3d-origin="290 : 193.33333 : 1"
       inkscape:vp_z="580 : 290 : 1"
       inkscape:vp_y="0 : 1000 : 0"
       inkscape:vp_x="0 : 290 : 1"
       sodipodi:type="inkscape:persp3d" />
    <defs
       id="defs48974" />
    <sodipodi:namedview
       pagecolor="#ffffff"
       inkscape:zoom="0.61399264"
       inkscape:window-y="26"
       inkscape:window-x="0"
       inkscape:window-width="1012"
       inkscape:window-height="739"
       inkscape:pageshadow="2"
       inkscape:pageopacity="0.0"
       inkscape:cy="250.37448"
       inkscape:cx="475.26707"
       id="namedview4258"
       borderopacity="1.0"
       bordercolor="#666666" />
    <inkscape:perspective
       id="perspective11483"
       inkscape:persp3d-origin="100 : 66.666667 : 1"
       inkscape:vp_z="200 : 100 : 1"
       inkscape:vp_y="0 : 1000 : 0"
       inkscape:vp_x="0 : 100 : 1"
       sodipodi:type="inkscape:persp3d" />
    <inkscape:perspective
       id="perspective12684"
       inkscape:persp3d-origin="180 : 66.666667 : 1"
       inkscape:vp_z="360 : 100 : 1"
       inkscape:vp_y="0 : 1000 : 0"
       inkscape:vp_x="0 : 100 : 1"
       sodipodi:type="inkscape:persp3d" />
  </defs>
  <g
     id="g1327">
    <path
       d="M 66.275,1.768 C 24.94,1.768 1.704,23.139 1.704,66.804 L 1.704,516.927 C 1.704,557.771 22.599,579.156 63.896,579.156 L 515.92,579.156 C 557.227,579.156 578.149,558.841 578.149,516.927 L 578.149,66.804 C 578.149,24.203 557.227,1.768 514.628,1.768 C 514.624,1.768 66.133,1.625 66.275,1.768 z "
       style="fill:#111;stroke:#eee;stroke-width:3.40799999"
       id="path1329" />
  </g>
  <path
     style="color:#000000;fill:#4c4c4c;fill-opacity:1;fill-rule:nonzero;stroke:none;stroke-width:15;marker:none;visibility:visible;display:inline;overflow:visible;enable-background:accumulate"
     d="m 75.71875,372.96875 c -2.813067,15.3199 -1.638355,20.09831 -3.041201,31.98489 0.45343,38.75915 100.368541,66.48899 224.009951,59.39011 107.99152,-6.20034 165.67655,2.98555 197.8125,-10.59375 12.30418,-12.56375 8.581,-28.84353 5.25,-48.34375 -3.48408,2.13436 -7.40573,3.8851 -11.59375,5.34375 -10.32726,3.59689 -22.57436,5.53444 -35.46875,6.71875 -25.78878,2.36862 -54.25767,1.65263 -72.75,3.125 -80.37388,6.39943 -142.55842,6.77376 -188.28125,3 -45.72283,-3.77376 -74.86057,-11.27288 -90.1875,-22.625 C 88.317794,391.22829 81.530091,384.45237 78,378.625 c -1.163753,-1.92109 -1.887455,-3.84229 -2.28125,-5.65625 z"
     id="path4349"
     inkscape:connector-curvature="0"
     sodipodi:nodetypes="ccsccssssssc" />
  <path
     style="color:#000000;fill:#ffffff;fill-opacity:1;fill-rule:nonzero;stroke:none;stroke-width:15;marker:none;visibility:visible;display:inline;overflow:visible;enable-background:accumulate"
     d="M 231.4375 415.375 C 226.00291 415.0338 221.69577 414.79134 216.1875 414.4375 C 195.74827 413.12453 191.36813 412.78947 175.5 411.71875 C 180.88465 412.36201 186.52369 412.94424 192.5 413.4375 C 204.1905 414.40238 217.43351 414.99636 231.4375 415.375 z "
     id="path4347" />
  <path
     style="color:#000000;fill:#ffffff;fill-opacity:1;fill-rule:nonzero;stroke:none;stroke-width:15;marker:none;visibility:visible;display:inline;overflow:visible;enable-background:accumulate"
     d="M 172.8125 332.5625 C 137.16987 342.75416 102.79385 351.27653 90.78125 359.6875 C 88.183991 361.72084 84.916519 363.8782 83.96875 365.875 C 83.289842 367.53271 84.508074 369.64284 86.75 373.34375 C 88.991926 377.04466 94.918239 383.38483 107.5625 392.75 C 117.83785 400.3606 140.42266 407.52837 175.5 411.71875 C 191.36813 412.78947 195.74827 413.12453 216.1875 414.4375 C 221.69577 414.79134 226.00291 415.0338 231.4375 415.375 C 262.66454 416.21932 299.29121 415.61643 342.375 413 C 340.97156 411.61936 339.14648 409.9861 336.875 408.3125 C 331.63432 404.45122 324.35665 400.00461 315.875 395.34375 C 298.91169 386.02203 277.0382 375.79098 255.46875 366.34375 C 215.82251 348.97903 178.79762 334.83203 172.8125 332.5625 z "
     id="path4345" />
  <path
     style="color:#000000;fill:#ffffff;fill-opacity:1;fill-rule:nonzero;stroke:none;stroke-width:15;marker:none;visibility:visible;display:inline;overflow:visible;enable-background:accumulate"
     d="M 344.4375 174.875 C 316.34334 174.3326 302.75348 259.67536 262.46875 295.375 C 248.9054 307.39461 222.80219 317.35791 194.75 326.0625 C 211.1079 332.4927 235.72893 342.39043 261.09375 353.5 C 282.87595 363.04042 305.00297 373.3788 322.625 383.0625 C 331.43602 387.90435 339.10111 392.56988 345.15625 397.03125 C 351.21139 401.49262 355.85079 405.33806 358.3125 411 C 358.44919 411.30379 358.56417 411.61735 358.65625 411.9375 C 365.36735 411.47138 372.16773 410.96268 379.15625 410.40625 C 391.36959 409.43381 406.93821 409.34956 422.96875 408.875 C 420.28819 407.05294 417.42259 405.04927 414.28125 402.84375 C 405.05993 396.36949 393.97085 388.42857 381.3125 380.125 C 355.9958 363.51787 324.42672 345.61367 290.03125 335.875 C 286.98438 335.01872 284.74953 331.87807 284.9375 328.71875 C 285.12547 325.55943 287.71684 322.70771 290.84375 322.21875 C 290.83155 322.10925 294.03038 320.62535 297.59375 317.375 C 301.39468 313.90796 306.09327 308.78685 311.1875 302.625 C 321.37597 290.3013 333.21119 273.765 344.3125 256.875 C 355.41381 239.985 365.78685 222.70764 373.125 208.9375 C 376.42585 202.74342 379.07454 197.31772 380.90625 193 C 371.37291 187.09713 360.95583 180.12471 345.78125 174.96875 C 345.32783 174.91635 344.88344 174.8836 344.4375 174.875 z M 393.1875 199.84375 C 391.17746 204.45057 388.61152 209.69245 385.5 215.53125 C 382.54593 221.0746 379.11385 227.10686 375.40625 233.40625 C 375.56743 233.54277 375.72659 233.67699 376.03125 233.90625 C 378.43896 235.71811 382.64818 238.32237 387.96875 241.0625 C 398.60989 246.54276 413.8264 252.79453 430.125 257.09375 C 446.4236 261.39297 463.83506 263.68308 478.75 261.8125 C 485.09064 261.01728 490.90915 259.52627 496.125 257.1875 C 495.85342 234.73669 495.625 216.4375 495.625 216.4375 C 495.625 216.4375 454.09754 214.24098 404.625 203.78125 C 400.55317 202.92036 396.81647 201.54202 393.1875 199.84375 z M 368.15625 245.46875 C 364.27933 251.75458 360.19233 258.18412 356 264.5625 C 344.69454 281.76309 332.67632 298.61091 321.96875 311.5625 C 316.94014 317.64497 312.26523 322.7619 307.90625 326.84375 C 338.78263 337.58309 366.43077 353.62189 388.96875 368.40625 C 401.92198 376.90325 413.18952 385.00103 422.3125 391.40625 C 431.43548 397.81147 438.74451 402.56466 442.15625 404.03125 C 443.80509 404.74604 445.15677 406.12063 445.84375 407.78125 C 447.82277 407.63711 449.80481 407.49116 451.75 407.3125 C 464.20134 406.16888 475.80286 404.26298 484.8125 401.125 C 490.35608 399.19422 494.79686 396.838 498.03125 394.09375 C 497.3698 388.84111 496.91514 383.40116 496.96875 377.75 C 497.17653 355.84804 496.74254 309.84738 496.3125 272.09375 C 491.22828 273.86214 485.91028 275.04021 480.5 275.71875 C 462.90177 277.92586 444.00171 275.22509 426.5625 270.625 C 409.12329 266.02491 393.16773 259.47677 381.5625 253.5 C 376.03323 250.65238 371.56085 247.96767 368.15625 245.46875 z "
     id="path4312" />
  <path
     style="color:#000000;fill:#4c4c4c;fill-opacity:1;fill-rule:nonzero;stroke:none;stroke-width:14;marker:none;visibility:visible;display:inline;overflow:visible;enable-background:accumulate"
     d="m 370.50785,177.46093 c 3.29946,-4.93242 38.78674,7.52078 57.22655,11.91406 21.9449,5.22837 63.15936,10.99517 63.28126,18.75 -4.35159,2.3357 -55.83846,-4.74504 -82.42187,-13.08594 -13.11269,-4.11428 -36.03468,-13.35765 -38.08594,-17.57812 z"
     id="rect4384"
     inkscape:connector-curvature="0"
     sodipodi:nodetypes="csccc" />
</svg>
