<svg width="48" height="48" viewBox="0 0 48 48" fill="none" xmlns="http://www.w3.org/2000/svg">
<path fill-rule="evenodd" clip-rule="evenodd" d="M38 4C36.8954 4 36 4.89543 36 6V12H6.00002C5.38415 12 4.80262 12.2837 4.42361 12.7692C4.04459 13.2546 3.91036 13.8876 4.05973 14.4851L8.05973 30.4851C8.28232 31.3754 9.08228 32 10 32H31.4384L30.4384 36H12C9.79086 36 8 37.7909 8 40C8 42.2091 9.79086 44 12 44C14.2091 44 16 42.2091 16 40H28C28 42.2091 29.7909 44 32 44C34.2091 44 36 42.2091 36 40C36 38.6769 35.3576 37.5038 34.3676 36.7757L35.9382 30.4935C35.9389 30.4907 35.9396 30.4879 35.9403 30.4851L39.9296 14.5278C39.9677 14.3884 39.991 14.243 39.9979 14.0933C39.9995 14.0581 40.0002 14.0229 40 13.9878M8.56157 16L9.56157 20H12V16H8.56157ZM11.5616 28L10.5616 24H12V28H11.5616ZM20 28H16V24H20V28ZM28 28H24V24H28V28ZM32.4385 28H32V24H33.4385L32.4385 28ZM35.4385 16L34.4385 20H32V16H35.4385ZM24 16H28V20H24V16ZM16 16H20V20H16V16Z" fill="white"/>
<path d="M40 13.9878V8H42C43.1046 8 44 7.10457 44 6C44 4.89543 43.1046 4 42 4H38" fill="white"/>
</svg>
