<svg width="580" height="580" viewBox="0 0 580 580" fill="none" xmlns="http://www.w3.org/2000/svg">
<g clip-path="url(#clip0)">
<path d="M66.2751 1.76863C24.9401 1.76863 1.7041 23.1396 1.7041 66.8046V516.928C1.7041 557.772 22.5981 579.157 63.8961 579.157H515.92C557.227 579.157 578.149 558.841 578.149 516.928V66.8046C578.149 24.2036 557.227 1.76863 514.627 1.76863C514.624 1.76863 66.1331 1.62563 66.2751 1.76863Z" fill="#111111" stroke="#EEEEEE" stroke-width="3.408"/>
<path d="M64.7036 318.628L290 412.348L515.296 318.609" stroke="white" stroke-width="37.7444" stroke-miterlimit="10" stroke-linecap="round" stroke-linejoin="round"/>
<path d="M497.594 205.074H82.4057C51.2099 205.074 46.1333 227.777 46.1333 240.762C46.1333 247.839 82.4057 239.875 82.4057 292.188C82.4057 337.085 82.4057 413.669 82.4057 413.669C82.4057 458.905 128.775 525.902 195.469 525.902H384.531C451.225 525.902 497.594 458.905 497.594 413.669C497.594 413.669 497.594 337.085 497.594 292.188C497.594 239.875 533.866 247.82 533.866 240.743C533.866 227.777 528.79 205.074 497.594 205.074V205.074Z" fill="white"/>
<path d="M214.511 148.458C214.511 106.769 248.311 72.9688 290 72.9688C331.689 72.9688 365.489 106.769 365.489 148.458" stroke="white" stroke-width="37.7444" stroke-miterlimit="10"/>
<path d="M497.594 185.75H82.4058C82.4058 185.75 154.498 122.34 290 122.34C425.502 122.34 497.594 185.75 497.594 185.75Z" fill="white"/>
</g>
<defs>
<clipPath id="clip0">
<path d="M0 0H580V580H0V0Z" fill="white"/>
</clipPath>
</defs>
</svg>
