<svg width="580" height="580" viewBox="0 0 580 580" fill="none" xmlns="http://www.w3.org/2000/svg">
<path d="M64.7041 318.629L290 412.349L515.297 318.61" stroke="white" stroke-width="37.7444" stroke-miterlimit="10" stroke-linecap="round" stroke-linejoin="round"/>
<path d="M497.595 205.075H82.4062C51.2104 205.075 46.1338 227.778 46.1338 240.763C46.1338 247.84 82.4062 239.876 82.4062 292.189C82.4062 337.086 82.4062 413.67 82.4062 413.67C82.4062 458.906 128.775 525.903 195.469 525.903H384.531C451.226 525.903 497.595 458.906 497.595 413.67C497.595 413.67 497.595 337.086 497.595 292.189C497.595 239.876 533.867 247.821 533.867 240.744C533.867 227.778 528.79 205.075 497.595 205.075Z" fill="white"/>
<path d="M214.511 148.459C214.511 106.77 248.311 72.9697 290 72.9697C331.688 72.9697 365.488 106.77 365.488 148.459" stroke="white" stroke-width="37.7444" stroke-miterlimit="10"/>
<path d="M497.595 185.75H82.4062C82.4062 185.75 154.498 122.34 290 122.34C425.503 122.34 497.595 185.75 497.595 185.75Z" fill="white"/>
</svg>
