<svg width="580" height="580" viewBox="0 0 580 580" fill="none" xmlns="http://www.w3.org/2000/svg">
<path d="M329.105 373.173C340.914 373.173 350.335 363.62 350.335 351.877C350.335 340.135 340.848 330.581 329.105 330.581C317.362 330.581 307.742 340.135 307.742 351.877C307.742 363.62 317.362 373.173 329.105 373.173ZM540.341 526.824C414.024 528.682 281.935 504.599 180.895 423.329C180.231 422.732 179.966 421.936 179.966 421.007C179.966 419.149 181.492 417.623 183.349 417.623L282.997 417.756C287.773 417.756 291.82 413.775 291.82 408.932C291.82 405.284 290.162 402.762 286.247 400.839L196.22 357.848C194.561 356.787 193.367 354.929 193.367 352.806C193.367 351.214 194.031 349.754 195.026 348.627C195.026 348.627 304.757 251.633 540.341 253.756V526.824Z" fill="white"/>
<path d="M492.242 43.2495C414.156 44.1119 337.796 77.4161 252.147 147.673C248.962 146.811 241.93 144.887 241.93 144.887C228.33 144.887 217.25 155.9 217.25 169.5C217.25 169.5 218.245 174.078 218.776 176.931C216.122 179.385 149.58 241.881 149.58 241.881L90.7341 297.343C85.2277 302.385 78.0626 304.906 70.5659 304.575C63.1354 304.243 56.3021 300.992 51.3264 295.486C46.4833 290.112 44.1613 283.411 44.1613 276.711C44.1613 269.147 47.2131 261.584 53.184 256.078C53.184 256.078 57.629 253.623 61.0125 251.699C61.7422 256.741 63.7989 272.133 63.7989 272.133L111.831 210.965L58.8895 229.01C44.9574 233.787 39.1856 240.819 38.9866 241.151C19.6144 258.732 18.0885 289.515 36.0011 309.351C54.0464 329.254 84.8296 330.647 104.733 312.669L105.263 312.005L161.058 258.864C161.058 258.864 229.988 193.715 232.178 191.526C235.495 192.389 241.996 194.047 241.996 194.047C255.53 194.047 266.543 182.968 266.543 169.368C266.543 169.368 265.88 165.785 265.415 163.198C348.278 95.0634 420.724 62.688 493.304 61.8919C508.231 61.7592 520.173 63.6831 539.744 67.8627L543.791 68.7252V49.353L541.137 48.8223C520.836 44.5763 507.567 43.0504 492.242 43.2495Z" fill="white"/>
</svg>
