<svg width="580" height="580" viewBox="0 0 580 580" fill="none" xmlns="http://www.w3.org/2000/svg">
<g clip-path="url(#clip0)">
<path d="M66.2751 1.76863C24.9401 1.76863 1.7041 23.1396 1.7041 66.8046V516.928C1.7041 557.772 22.5991 579.157 63.8961 579.157H515.92C557.227 579.157 578.149 558.842 578.149 516.928V66.8046C578.149 24.2036 557.227 1.76863 514.628 1.76863C514.624 1.76863 66.1331 1.62563 66.2751 1.76863Z" fill="#111111" stroke="#EEEEEE" stroke-width="3.408"/>
<path d="M365.503 459.882C365.503 470.282 357.027 478.757 346.627 478.757H214.497C204.097 478.757 195.622 470.282 195.622 459.882V403.255C195.622 392.854 204.097 384.379 214.497 384.379H346.627C357.027 384.379 365.503 392.854 365.503 403.255V459.882Z" fill="white"/>
<path d="M176.746 271.125C176.746 271.125 176.746 271.125 120.119 271.125C63.4922 271.125 63.4922 308.876 63.4922 327.752C63.4922 346.628 101.243 403.255 176.746 403.255" stroke="white" stroke-width="37.7513" stroke-miterlimit="10" stroke-linecap="round" stroke-linejoin="round"/>
<path d="M497.632 233.373C470.187 233.373 499.86 308.876 403.028 308.876C357.688 308.876 388.21 403.254 388.21 403.254C529.551 403.254 502.257 252.343 535.384 233.373H497.632Z" fill="white"/>
<path d="M384.171 214.498C356.518 183.183 320.333 161.4 280.562 161.4C240.791 161.4 204.606 183.183 176.954 214.498H384.171Z" fill="white"/>
<path d="M162.098 233.373C138.221 267.538 123.667 308.8 123.667 345.74C123.667 427.188 193.904 475.208 280.581 475.208C367.258 475.208 437.494 427.188 437.494 345.74C437.494 308.8 422.941 267.519 399.063 233.373H162.098V233.373Z" fill="white"/>
<path d="M280.562 157.871C296.199 157.871 308.876 145.195 308.876 129.558C308.876 113.921 296.199 101.244 280.562 101.244C264.925 101.244 252.249 113.921 252.249 129.558C252.249 145.195 264.925 157.871 280.562 157.871Z" fill="white"/>
</g>
<defs>
<clipPath id="clip0">
<path d="M0 0H580V580H0V0Z" fill="white"/>
</clipPath>
</defs>
</svg>
