<svg width="580" height="580" viewBox="0 0 580 580" fill="none" xmlns="http://www.w3.org/2000/svg">
<g clip-path="url(#clip0)">
<path d="M66.2751 1.76863C24.9401 1.76863 1.7041 23.1396 1.7041 66.8046V516.928C1.7041 557.772 22.5991 579.157 63.8961 579.157H515.92C557.227 579.157 578.149 558.842 578.149 516.928V66.8046C578.149 24.2036 557.227 1.76863 514.628 1.76863C514.624 1.76863 66.1331 1.62563 66.2751 1.76863Z" fill="#111111" stroke="#EEEEEE" stroke-width="3.408"/>
<path d="M438.156 358.938H77.0508V422.844H438.156V358.938Z" fill="white"/>
<path d="M473.436 359.176H455.202V422.844H473.436V359.176Z" fill="white"/>
<path d="M507.527 359.176H489.293V422.844H507.527V359.176Z" fill="white"/>
<path d="M363.084 275.196C335.586 275.196 313.195 252.924 313.195 225.425C313.195 220.199 314.026 215.21 315.511 210.458C281.42 209.864 254.04 182.009 254.04 147.799C254.04 113.352 281.657 85.4966 315.986 85.0215V103.136C291.635 103.493 272.036 123.33 272.036 147.799C272.036 172.388 292.111 192.462 316.699 192.462C319.847 192.462 322.757 192.106 325.608 191.512C326.439 191.274 327.33 191.156 328.162 191.156C333.982 191.156 338.734 195.907 338.734 201.728C338.734 203.925 338.021 205.885 336.892 207.667C333.507 212.774 331.428 218.833 331.428 225.425C331.428 242.827 345.564 257.081 363.084 257.081H428.535C453.361 257.081 473.317 277.156 473.317 301.863L473.435 337.617H455.202V301.922C455.202 287.193 443.264 275.255 428.535 275.255H363.084V275.196Z" fill="white"/>
<path d="M377.576 205.944C384.288 197.273 388.267 186.463 388.267 174.644C388.267 146.136 365.163 123.032 336.655 123.032H332.616V104.799H336.655C375.141 104.799 406.5 136.099 406.5 174.644C406.5 184.979 404.184 194.838 400.145 203.628L412.915 203.509C465.239 203.509 507.586 245.975 507.586 298.18V337.617H489.353V298.18C489.353 255.952 455.143 221.742 412.915 221.742H386.188C380.605 221.742 375.973 217.11 375.973 211.408C375.973 209.329 376.685 207.607 377.576 205.944V205.944Z" fill="white"/>
</g>
<defs>
<clipPath id="clip0">
<path d="M0 0H580V580H0V0Z" fill="white"/>
</clipPath>
</defs>
</svg>
