<svg width="580" height="580" viewBox="0 0 580 580" fill="none" xmlns="http://www.w3.org/2000/svg">
<g clip-path="url(#clip0)">
<path d="M66.2751 1.76863C24.9401 1.76863 1.7041 23.1396 1.7041 66.8046V516.928C1.7041 557.772 22.5981 579.157 63.8961 579.157H515.92C557.227 579.157 578.149 558.841 578.149 516.928V66.8046C578.149 24.2036 557.227 1.76863 514.627 1.76863C514.624 1.76863 66.1331 1.62563 66.2751 1.76863Z" fill="#111111" stroke="#EEEEEE" stroke-width="3.408"/>
<path d="M64.5989 329.199V525.2C64.5989 530.62 68.9893 535 74.3989 535H280.2V329.199H64.5989V329.199ZM221.4 378.199H142.999C137.59 378.199 133.199 373.819 133.199 368.399C133.199 362.98 137.59 358.599 142.999 358.599H221.4C226.809 358.599 231.2 362.98 231.2 368.399C231.2 373.819 226.809 378.199 221.4 378.199Z" fill="white"/>
<path d="M299.8 329.199V535H505.601C511.021 535 515.401 530.62 515.401 525.2V329.199H299.8V329.199ZM437.001 378.199H358.6C353.181 378.199 348.8 373.819 348.8 368.399C348.8 362.98 353.181 358.599 358.6 358.599H437.001C442.42 358.599 446.801 362.98 446.801 368.399C446.801 373.819 442.42 378.199 437.001 378.199Z" fill="white"/>
<path d="M525.201 214.538C523.819 214.538 522.447 214.244 521.154 213.666L290 108.678L58.8561 213.656C55.8278 215.028 52.2998 214.774 49.497 212.97C46.6942 211.177 44.9988 208.07 44.9988 204.738V160.638C44.9988 156.777 47.2626 153.288 50.7808 151.701L285.982 45.86C288.54 44.7133 291.47 44.7133 294.018 45.86L529.219 151.701C532.747 153.278 535.001 156.777 535.001 160.638V204.738C535.001 208.07 533.306 211.177 530.513 212.98C528.906 214.009 527.054 214.538 525.201 214.538V214.538Z" fill="white"/>
<path d="M218.675 162.598H221.4C226.809 162.598 231.2 166.989 231.2 172.398C231.2 177.808 226.809 182.198 221.4 182.198H175.516L66.9411 231.512C66.1767 231.855 65.3731 232.012 64.5989 232.296V309.599H280.2V134.658L218.675 162.598V162.598Z" fill="white"/>
<path d="M513.049 231.502L404.484 182.198H358.6C353.181 182.198 348.8 177.808 348.8 172.398C348.8 166.989 353.181 162.598 358.6 162.598H361.315L299.8 134.658V309.599H515.401V232.286C514.617 232.012 513.814 231.845 513.049 231.502Z" fill="white"/>
</g>
<defs>
<clipPath id="clip0">
<path d="M0 0H580V580H0V0Z" fill="white"/>
</clipPath>
</defs>
</svg>
