<svg width="12" height="12" viewBox="0 0 12 12" fill="none" xmlns="http://www.w3.org/2000/svg">
<path fill-rule="evenodd" clip-rule="evenodd" d="M1 8.66667C1 9.40305 1.59695 10 2.33333 10C2.75301 10 3.14819 9.80241 3.4 9.46667L4.22727 8.36364C4.39896 8.13472 4.6684 8 4.95455 8H7.04545C7.3316 8 7.60104 8.13472 7.77273 8.36364L8.6 9.46667C8.85181 9.80241 9.24699 10 9.66667 10C10.403 10 11 9.40305 11 8.66667V5C11 3.89543 10.1046 3 9 3H3C1.89543 3 1 3.89543 1 5V8.66667ZM3.5 4C3.22386 4 3 4.22386 3 4.5V5H2.5C2.22386 5 2 5.22386 2 5.5C2 5.77614 2.22386 6 2.5 6H3V6.5C3 6.77614 3.22386 7 3.5 7C3.77614 7 4 6.77614 4 6.5V6H4.5C4.77614 6 5 5.77614 5 5.5C5 5.22386 4.77614 5 4.5 5H4V4.5C4 4.22386 3.77614 4 3.5 4ZM8.5 5C8.77614 5 9 4.77614 9 4.5C9 4.22386 8.77614 4 8.5 4C8.22386 4 8 4.22386 8 4.5C8 4.77614 8.22386 5 8.5 5ZM9.5 6C9.77614 6 10 5.77614 10 5.5C10 5.22386 9.77614 5 9.5 5C9.22386 5 9 5.22386 9 5.5C9 5.77614 9.22386 6 9.5 6ZM8 5.5C8 5.77614 7.77614 6 7.5 6C7.22386 6 7 5.77614 7 5.5C7 5.22386 7.22386 5 7.5 5C7.77614 5 8 5.22386 8 5.5ZM8.5 7C8.77614 7 9 6.77614 9 6.5C9 6.22386 8.77614 6 8.5 6C8.22386 6 8 6.22386 8 6.5C8 6.77614 8.22386 7 8.5 7Z" fill="white"/>
</svg>
