<svg width="24" height="24" viewBox="0 0 24 24" fill="none" xmlns="http://www.w3.org/2000/svg">
<path fill-rule="evenodd" clip-rule="evenodd" d="M2 11C2 8.23858 4.23858 6 7 6H12H17C19.7614 6 22 8.23858 22 11V17.3333C22 18.8061 20.8061 20 19.3333 20C18.494 20 17.7036 19.6048 17.2 18.9333L15.5455 16.7273C15.2021 16.2694 14.6632 16 14.0909 16H9.90909C9.33681 16 8.79792 16.2694 8.45455 16.7273L6.8 18.9333C6.29639 19.6048 5.50602 20 4.66667 20C3.19391 20 2 18.8061 2 17.3333V11ZM7 8C6.44772 8 6 8.44772 6 9V10H5C4.44772 10 4 10.4477 4 11C4 11.5523 4.44772 12 5 12H6V13C6 13.5523 6.44772 14 7 14C7.55228 14 8 13.5523 8 13V12H9C9.55228 12 10 11.5523 10 11C10 10.4477 9.55228 10 9 10H8V9C8 8.44772 7.55228 8 7 8ZM17 10C17.5523 10 18 9.55228 18 9C18 8.44772 17.5523 8 17 8C16.4477 8 16 8.44772 16 9C16 9.55228 16.4477 10 17 10ZM19 12C19.5523 12 20 11.5523 20 11C20 10.4477 19.5523 10 19 10C18.4477 10 18 10.4477 18 11C18 11.5523 18.4477 12 19 12ZM16 11C16 11.5523 15.5523 12 15 12C14.4477 12 14 11.5523 14 11C14 10.4477 14.4477 10 15 10C15.5523 10 16 10.4477 16 11ZM17 14C17.5523 14 18 13.5523 18 13C18 12.4477 17.5523 12 17 12C16.4477 12 16 12.4477 16 13C16 13.5523 16.4477 14 17 14Z" fill="white"/>
</svg>
