<svg width="580" height="580" viewBox="0 0 580 580" fill="none" xmlns="http://www.w3.org/2000/svg">
<g clip-path="url(#clip0)">
<path d="M66.2751 1.76863C24.9401 1.76863 1.7041 23.1396 1.7041 66.8046V516.928C1.7041 557.772 22.5981 579.157 63.8961 579.157H515.92C557.227 579.157 578.149 558.841 578.149 516.928V66.8046C578.149 24.2036 557.227 1.76863 514.627 1.76863C514.624 1.76863 66.1331 1.62563 66.2751 1.76863Z" fill="#111111" stroke="#EEEEEE" stroke-width="3.408"/>
<path d="M340.247 174.66C337.49 176.639 334.888 178.855 332.364 181.191L341.501 200.189L326.922 207.215L320.062 192.933C317.587 195.165 315.065 197.259 312.377 199.068L341.171 258.932L205.544 324.206L169.361 249.004C168.735 249.258 168.129 249.534 167.514 249.829C161.422 252.806 155.903 257.798 150.528 263.121L162.303 257.448L173.649 280.965L159.071 287.99L148.219 265.43C146.285 267.375 144.356 269.351 142.414 271.235L282.692 562.774C285.608 559.842 288.542 556.875 291.531 554.132L287.969 555.847L276.623 532.33L291.201 525.305L301.393 546.513C302.274 545.986 303.192 545.504 304.098 545.062C306.221 544.042 308.413 543.297 310.661 542.72L280.449 479.887L416.076 414.646L452.951 491.299C462.37 483.71 470.383 473.324 481.02 467.188L340.247 174.66ZM355.947 230.27L367.261 253.787L352.715 260.779L341.402 237.262L355.947 230.27ZM347.339 271.796L409.908 401.816L274.281 467.056L211.712 337.037L347.339 271.796ZM381.74 283.835L393.054 307.352L378.475 314.344L367.162 290.827L381.74 283.835ZM188.096 311.013L199.409 334.53L184.863 341.555L173.517 318.038L188.096 311.013ZM407.5 337.399L418.813 360.916L404.268 367.942L392.955 344.392L407.5 337.399ZM213.856 364.61L225.202 388.128L210.623 395.12L199.31 371.603L213.856 364.61ZM433.293 390.964L444.606 414.481L430.028 421.507L418.714 397.989L433.293 390.964ZM239.649 418.175L250.962 441.692L236.416 448.685L225.07 425.168L239.649 418.175ZM459.053 444.529L470.366 468.079L455.821 475.071L444.507 451.554L459.053 444.529ZM265.441 471.74L276.755 495.257L262.176 502.282L250.863 478.732L265.441 471.74Z" fill="white"/>
<path opacity="0.331731" d="M312.377 199.068C310.584 200.275 308.718 201.356 306.769 202.268C290.96 209.32 270.528 205.74 254.92 212.361C239.017 218.907 228.43 235.242 213.691 241.617C199.728 247.459 183.166 243.415 169.361 249.005L205.544 324.207L341.171 258.933L312.377 199.068Z" fill="white"/>
<path opacity="0.331731" d="M347.333 271.774L211.704 337.035L274.268 467.06L409.898 401.8L347.333 271.774Z" fill="white"/>
<path opacity="0.331731" d="M416.076 414.646L280.449 479.887L310.661 542.687C323.41 539.418 337.836 542.04 350.241 536.849C364.98 530.475 375.601 514.14 391.503 507.593C407.111 500.973 427.544 504.553 443.353 497.5C446.796 495.888 449.936 493.729 452.951 491.299L416.076 414.646Z" fill="white"/>
<path d="M182.597 32.8433C136.393 32.5509 97.6044 80.6847 107.441 125.83C113.895 163.6 150.506 194.721 189.434 190.888C215.459 189.28 239.799 173.775 252.883 151.422C264.753 142.109 282.484 154.443 294.158 144.404C302.139 136.145 308.813 125.154 320.059 121.433C329.078 123.982 333.124 133.758 340.569 138.291C348.045 133.501 352.366 122.108 362.599 122.157C369.838 126.514 374.428 134.204 381.265 138.761C389.031 133.792 393.634 121.917 404.199 121.904C411.585 126.068 415.666 134.763 423.372 138.074C434.091 128.405 445.061 118.395 454.011 106.892C453.978 100.383 445.171 96.7762 441.675 91.453C434.404 85.0359 428.264 73.1857 416.824 75.6372C401.353 76.8722 385.531 75.265 369.906 75.8904C332.058 75.8739 293.912 76.7977 256.247 74.9498C245.925 66.0746 240.427 52.2334 227.742 45.9383C214.567 37.1482 198.549 32.3496 182.597 32.8433ZM151.162 84.6807C173.766 84.1178 187.26 116.22 170.841 131.815C157.552 146.439 129.111 141.738 123.525 122.121C117.333 104.577 131.755 82.7383 151.162 84.6807Z" fill="white" stroke="white" stroke-width="11.5757" stroke-linecap="round" stroke-linejoin="round"/>
</g>
<defs>
<clipPath id="clip0">
<path d="M0 0H580V580H0V0Z" fill="white"/>
</clipPath>
</defs>
</svg>
