<svg width="24" height="24" viewBox="0 0 24 24" fill="none" xmlns="http://www.w3.org/2000/svg">
<path fill-rule="evenodd" clip-rule="evenodd" d="M7 17C8.63582 17 10.0882 16.2144 11.0004 15H12.9996C13.9118 16.2144 15.3642 17 17 17C19.7614 17 22 14.7614 22 12C22 9.23858 19.7614 7 17 7H7C4.23858 7 2 9.23858 2 12C2 14.7614 4.23858 17 7 17ZM7 9C6.44772 9 6 9.44772 6 10V11H5C4.44772 11 4 11.4477 4 12C4 12.5523 4.44772 13 5 13H6V14C6 14.5523 6.44772 15 7 15C7.55228 15 8 14.5523 8 14V13H9C9.55228 13 10 12.5523 10 12C10 11.4477 9.55228 11 9 11H8V10C8 9.44772 7.55228 9 7 9ZM17 11C17.5523 11 18 10.5523 18 10C18 9.44772 17.5523 9 17 9C16.4477 9 16 9.44772 16 10C16 10.5523 16.4477 11 17 11ZM19 13C19.5523 13 20 12.5523 20 12C20 11.4477 19.5523 11 19 11C18.4477 11 18 11.4477 18 12C18 12.5523 18.4477 13 19 13ZM16 12C16 12.5523 15.5523 13 15 13C14.4477 13 14 12.5523 14 12C14 11.4477 14.4477 11 15 11C15.5523 11 16 11.4477 16 12ZM17 15C17.5523 15 18 14.5523 18 14C18 13.4477 17.5523 13 17 13C16.4477 13 16 13.4477 16 14C16 14.5523 16.4477 15 17 15Z" fill="white"/>
</svg>
