<svg width="580" height="580" viewBox="0 0 580 580" fill="none" xmlns="http://www.w3.org/2000/svg">
<g clip-path="url(#clip0)">
<path d="M66.2751 1.76863C24.9401 1.76863 1.7041 23.1396 1.7041 66.8046V516.928C1.7041 557.772 22.5981 579.157 63.8961 579.157H515.92C557.227 579.157 578.149 558.841 578.149 516.928V66.8046C578.149 24.2036 557.227 1.76863 514.627 1.76863C514.624 1.76863 66.1331 1.62563 66.2751 1.76863Z" fill="#111111" stroke="#EEEEEE" stroke-width="3.408"/>
<path d="M514.774 485.248H230.517V134.523L160.513 64.5195" stroke="white" stroke-width="45" stroke-linecap="round"/>
<path d="M106.652 514.549C128.482 514.549 146.178 496.852 146.178 475.022C146.178 453.193 128.482 435.496 106.652 435.496C84.8221 435.496 67.1255 453.193 67.1255 475.022C67.1255 496.852 84.8221 514.549 106.652 514.549Z" fill="white" stroke="white" stroke-width="31.9422" stroke-linecap="round"/>
<path d="M494.397 333.746H310.876V405.545H494.397V333.746Z" fill="white" stroke="white" stroke-width="37.4976" stroke-linecap="round"/>
<path d="M444.232 182.387H308.716V258.506H444.232V182.387Z" fill="white" stroke="white" stroke-width="33.1775" stroke-linecap="round"/>
<path d="M380.57 76.8242H300.253V116.356H380.57V76.8242Z" fill="white" stroke="white" stroke-width="18.4067" stroke-linecap="round"/>
<path fill-rule="evenodd" clip-rule="evenodd" d="M229.764 338.727L215.244 352.48L177.244 388.48L162.727 402.236C181.002 418.536 182.283 422.214 188.069 433.327L204.756 417.52L242.756 381.52L244.899 368.471L229.764 338.727Z" fill="white"/>
</g>
<defs>
<clipPath id="clip0">
<path d="M0 0H580V580H0V0Z" fill="white"/>
</clipPath>
</defs>
</svg>
