<svg width="580" height="580" viewBox="0 0 580 580" fill="none" xmlns="http://www.w3.org/2000/svg">
<g clip-path="url(#clip0)">
<path d="M66.2751 1.76863C24.9401 1.76863 1.7041 23.1396 1.7041 66.8046V516.928C1.7041 557.772 22.5991 579.157 63.8961 579.157H515.92C557.227 579.157 578.149 558.842 578.149 516.928V66.8046C578.149 24.2036 557.227 1.76863 514.628 1.76863C514.624 1.76863 66.1331 1.62563 66.2751 1.76863Z" fill="#111111" stroke="#EEEEEE" stroke-width="3.408"/>
<path opacity="0.827" d="M34.6353 80.9102H538.46" stroke="white" stroke-width="50.7135"/>
<path fill-rule="evenodd" clip-rule="evenodd" d="M62.4023 153.473L86.7522 201.473H462.359L438.01 153.473H62.4023V153.473Z" fill="white"/>
<path fill-rule="evenodd" clip-rule="evenodd" d="M62.4023 250.396L86.7522 298.396H462.359L438.01 250.396H62.4023V250.396Z" fill="white"/>
<path fill-rule="evenodd" clip-rule="evenodd" d="M62.4023 347.322L86.7522 395.322H462.359L438.01 347.322H62.4023Z" fill="white"/>
<path fill-rule="evenodd" clip-rule="evenodd" d="M62.4023 444.246L86.7522 492.246H462.359L438.01 444.246H62.4023Z" fill="white"/>
<path d="M523.677 151.633V533.396" stroke="white" stroke-width="31.4772"/>
</g>
<defs>
<clipPath id="clip0">
<path d="M0 0H580V580H0V0Z" fill="white"/>
</clipPath>
</defs>
</svg>
