<svg width="580" height="580" viewBox="0 0 580 580" fill="none" xmlns="http://www.w3.org/2000/svg">
<g clip-path="url(#clip0)">
<path d="M66.2751 1.76799C24.9401 1.76799 1.7041 23.139 1.7041 66.804V516.927C1.7041 557.771 22.5991 579.156 63.8961 579.156H515.92C557.227 579.156 578.149 558.841 578.149 516.927V66.804C578.149 24.203 557.227 1.76799 514.628 1.76799C514.624 1.76799 66.1331 1.62499 66.2751 1.76799Z" fill="#111111" stroke="#EEEEEE" stroke-width="3.408"/>
<path fill-rule="evenodd" clip-rule="evenodd" d="M288.272 138.471C286.762 146.8 92.8252 507.193 92.8252 507.193L483.173 506.547L288.272 138.471Z" stroke="white" stroke-width="26.2797"/>
<path fill-rule="evenodd" clip-rule="evenodd" d="M288.272 162.581C287.532 166.66 275.502 187.262 301.104 277.13C327.777 370.757 399.376 507.193 399.376 507.193L483.173 506.547L288.272 162.581Z" fill="white" stroke="white" stroke-width="26.2797"/>
<path fill-rule="evenodd" clip-rule="evenodd" d="M291.652 162.581C292.392 166.66 304.422 187.262 278.82 277.13C252.147 370.757 180.548 507.193 180.548 507.193L96.751 506.547L291.652 162.581Z" fill="white" stroke="white" stroke-width="26.2797"/>
<path fill-rule="evenodd" clip-rule="evenodd" d="M249.696 63.7305L483.174 506.547L249.696 63.7305Z" stroke="white" stroke-width="26.2797"/>
<path fill-rule="evenodd" clip-rule="evenodd" d="M328.515 66.1414L95.3933 506.547L328.515 66.1414Z" stroke="white" stroke-width="26.2797"/>
</g>
<defs>
<clipPath id="clip0">
<rect width="580" height="580" fill="white"/>
</clipPath>
</defs>
</svg>
