<svg width="16" height="16" viewBox="0 0 16 16" fill="none" xmlns="http://www.w3.org/2000/svg">
<path opacity="0.812" d="M4.22017 6.28112C4.0716 6.29155 3.92956 6.37272 3.84514 6.49541C3.84895 6.48991 3.81495 6.55475 3.81836 6.54899C3.82217 6.54349 3.78816 6.60833 3.79157 6.60256C3.79456 6.59658 3.76222 6.63554 3.76478 6.62935C3.75959 6.63882 3.76358 6.65854 3.76478 6.65614C3.76777 6.65016 3.73543 6.68911 3.73799 6.68293C3.74015 6.6787 3.73604 6.71405 3.73799 6.70972C3.73994 6.70539 3.70948 6.74093 3.71121 6.7365C3.71293 6.73208 3.70971 6.79458 3.71121 6.79008C3.71271 6.78557 3.68314 6.82144 3.68442 6.81687C3.6857 6.81229 3.68337 6.84829 3.68442 6.84365C3.68547 6.83901 3.68361 6.87512 3.68442 6.87044C3.68523 6.86576 3.68384 6.92873 3.68442 6.92402C3.68517 6.91809 3.65725 6.95678 3.65763 6.95081C3.65801 6.94484 3.65763 7.01036 3.65763 7.00438C3.65801 6.99841 3.65763 7.06394 3.65763 7.05795C3.65763 7.05197 3.65801 7.1175 3.65763 7.11153C3.65725 7.10556 3.68517 7.14425 3.68442 7.13832C3.68056 7.1739 3.68056 7.20989 3.68442 7.24547C3.6823 7.23912 3.71377 7.30523 3.71121 7.29904C3.70865 7.29286 3.74099 7.33182 3.73799 7.32583C3.735 7.31985 3.76819 7.38517 3.76478 7.37941C3.76137 7.37365 3.79537 7.43849 3.79157 7.43298C3.78915 7.42949 3.79414 7.46314 3.79157 7.45977H3.71121C3.71367 7.45991 3.69604 7.4601 3.68442 7.45977C3.6728 7.45944 3.65517 7.45977 3.65763 7.45977C3.66256 7.45977 3.62592 7.46005 3.63084 7.45977C3.58525 7.46249 3.54004 7.47154 3.49691 7.48656C3.50212 7.48473 3.43825 7.51549 3.44333 7.51334C3.44854 7.51151 3.38467 7.54228 3.38976 7.54013C3.39484 7.53798 3.35803 7.56939 3.36297 7.56692C3.36594 7.56544 3.34928 7.58666 3.33618 7.59371C3.32745 7.59841 3.30748 7.59482 3.30939 7.59371C3.31416 7.59093 3.27802 7.62357 3.28261 7.62049C3.26423 7.62833 3.24633 7.63729 3.22903 7.64728C3.23169 7.64502 3.19968 7.67643 3.20224 7.67407C3.2048 7.6717 3.17299 7.67654 3.17546 7.67407C3.17793 7.6716 3.17309 7.70342 3.17546 7.70086C3.17802 7.69849 3.1462 7.70333 3.14867 7.70086C3.15114 7.69839 3.1463 7.73021 3.14867 7.72765C3.15123 7.72528 3.11942 7.73012 3.12188 7.72765C3.12435 7.72518 3.11951 7.757 3.12188 7.75443C3.12425 7.75187 3.09283 7.78387 3.09509 7.78122C3.0851 7.79852 3.07615 7.81642 3.0683 7.8348C3.07138 7.83021 3.03874 7.86636 3.04152 7.86158C3.0443 7.85681 3.01226 7.9201 3.01473 7.91516C3.0172 7.91022 2.98579 7.94703 2.98794 7.94195C2.99009 7.93687 2.95933 8.00073 2.96115 7.99552C2.95729 8.0311 2.95729 8.06709 2.96115 8.10267C2.95189 8.11125 2.94295 8.12019 2.93437 8.12946C2.93465 8.12454 2.93437 8.16117 2.93437 8.15625C2.93468 8.15256 2.93421 8.18674 2.93437 8.18303C2.9347 8.19466 2.93451 8.21228 2.93437 8.20982C2.93437 8.20611 2.93453 8.2671 2.93437 8.2634C2.93421 8.25969 2.93468 8.29388 2.93437 8.29018C2.93405 8.28649 2.96163 8.32065 2.96115 8.31697C2.96068 8.31329 2.96179 8.34742 2.96115 8.34376C2.95898 8.37049 2.95898 8.39739 2.96115 8.42412C2.95932 8.41891 2.99009 8.48278 2.98794 8.4777C2.98579 8.47262 3.0172 8.50942 3.01473 8.50448C3.01374 8.50251 3.01001 8.52255 3.01473 8.53127C3.01316 8.52809 3.04322 8.56117 3.04152 8.55806C3.03982 8.55495 3.04335 8.58789 3.04152 8.58485C3.04843 8.59589 3.06984 8.58714 3.0683 8.58485C3.07275 8.59193 3.06928 8.61311 3.0683 8.61163C3.06635 8.60866 3.09716 8.6413 3.09509 8.63842C3.09302 8.63554 3.09728 8.668 3.09509 8.66521C3.0929 8.66242 3.12417 8.6947 3.12188 8.692C3.11958 8.6893 3.15107 8.72139 3.14867 8.71878C3.14627 8.71617 3.17796 8.72128 3.17546 8.71878C3.17296 8.71628 3.17807 8.74797 3.17546 8.74557H2.90758C2.90911 8.74571 2.89057 8.74624 2.88079 8.74557C2.87102 8.7449 2.85247 8.7455 2.85401 8.74557C2.85707 8.74571 2.82415 8.74557 2.82722 8.74557C2.83028 8.74557 2.79737 8.74571 2.80043 8.74557C2.80349 8.74543 2.7438 8.74585 2.74686 8.74557C2.74991 8.74529 2.71703 8.77278 2.72007 8.77236C2.7231 8.77194 2.69027 8.77291 2.69328 8.77236C2.20317 8.84331 2.14122 9.00443 1.95203 9.39808C1.76284 9.79173 2.07717 10.1653 2.07717 10.1653C2.07986 10.1655 2.04768 10.1653 2.05038 10.1653C2.05308 10.1653 1.99411 10.1655 1.99681 10.1653C1.9995 10.1652 1.94055 10.1924 1.94323 10.1921C1.9454 10.1919 1.8875 10.1924 1.88966 10.1921C1.89182 10.1918 1.86073 10.1926 1.86287 10.1921C1.86501 10.1916 1.80718 10.1927 1.80929 10.1921C1.8114 10.1915 1.78042 10.2195 1.78251 10.2189C1.78459 10.2182 1.72688 10.2196 1.72893 10.2189C1.73098 10.2181 1.70013 10.2465 1.70214 10.2457C1.70415 10.2448 1.6466 10.2734 1.64857 10.2725C1.65053 10.2715 1.61986 10.2735 1.62178 10.2725C1.62369 10.2715 1.59313 10.3004 1.59499 10.2993C1.59685 10.2982 1.53962 10.3273 1.54142 10.326C1.54322 10.3248 1.51289 10.3542 1.51463 10.3528C1.51637 10.3515 1.48617 10.381 1.48784 10.3796C1.48951 10.3782 1.45946 10.4079 1.46106 10.4064C1.46266 10.4049 1.40596 10.4348 1.40748 10.4332C1.40901 10.4317 1.37925 10.4616 1.3807 10.46C1.38215 10.4584 1.35254 10.4885 1.35391 10.4868C1.35528 10.4851 1.32584 10.5421 1.32712 10.5404C1.3284 10.5386 1.32593 10.569 1.32712 10.5672C1.32831 10.5654 1.29923 10.5958 1.30033 10.5939C1.30143 10.592 1.27254 10.6495 1.27355 10.6475C1.27456 10.6455 1.24585 10.6763 1.24676 10.6743C1.24767 10.6723 1.24595 10.7299 1.24676 10.7279C1.24757 10.7258 1.21926 10.7567 1.21997 10.7547C1.22068 10.7526 1.21936 10.8104 1.21997 10.8083C1.22058 10.8062 1.19268 10.8372 1.19318 10.8351C1.19369 10.833 1.19278 10.8908 1.19318 10.8886C1.19358 10.8865 1.19289 10.9176 1.19318 10.9154C1.19348 10.9133 1.16621 10.9712 1.1664 10.969C1.16658 10.9669 1.16632 10.998 1.1664 10.9958C1.16648 10.9937 1.16642 11.0515 1.1664 11.0494C1.16637 11.0473 1.16653 11.0783 1.1664 11.0762C1.16626 11.0741 1.19343 11.1319 1.19318 11.1297C1.19294 11.1276 1.19353 11.1855 1.19318 11.1833C1.19284 11.1812 1.19364 11.2122 1.19318 11.2101C1.19273 11.208 1.19374 11.2658 1.19318 11.2637C1.19263 11.2616 1.22063 11.2926 1.21997 11.2905C1.21931 11.2884 1.22073 11.3461 1.21997 11.3441C1.21921 11.342 1.24762 11.3728 1.24676 11.3708C1.2459 11.3688 1.27451 11.4264 1.27355 11.4244C1.27259 11.4224 1.2746 11.4531 1.27355 11.4512C1.2725 11.4493 1.30148 11.4799 1.30033 11.478C1.29918 11.4761 1.32836 11.5334 1.32712 11.5316C1.32588 11.5298 1.35523 11.5601 1.35391 11.5584C1.35259 11.5567 1.3821 11.5868 1.3807 11.5852C1.37929 11.5835 1.40897 11.6135 1.40748 11.6119C1.40599 11.6103 1.43584 11.667 1.43427 11.6655C1.4327 11.664 1.4627 11.6938 1.46106 11.6923C1.45942 11.6908 1.48955 11.7205 1.48784 11.7191C1.48613 11.7177 1.54319 11.7472 1.54142 11.7459C1.53965 11.7446 1.57004 11.7471 1.56821 11.7459C1.56638 11.7447 1.59688 11.7738 1.59499 11.7727C1.5931 11.7716 1.65051 11.8005 1.64857 11.7995C1.64663 11.7985 1.67734 11.8272 1.67536 11.8263C1.67337 11.8253 1.73096 11.8271 1.72893 11.8263C1.7269 11.8255 1.75779 11.8538 1.75572 11.8531C1.75365 11.8523 1.81139 11.8537 1.80929 11.8531C1.80719 11.8525 1.83821 11.8803 1.83608 11.8798C1.83395 11.8793 1.8918 11.8802 1.88965 11.8798C1.8875 11.8794 1.91861 11.8801 1.91644 11.8798C1.91427 11.8796 1.97219 11.9068 1.97002 11.9066C1.96784 11.9065 1.99899 11.9067 1.9968 11.9066C1.99462 11.9066 2.05256 11.9066 2.05038 11.9066C2.04819 11.9067 2.07935 11.9065 2.07717 11.9066H13.9172C13.9172 11.9066 14.8014 11.9675 14.7945 11.0427C14.7876 10.1179 13.9172 10.1655 13.9172 10.1655H13.6494C13.6467 10.1677 13.6787 10.1363 13.6762 10.1387C13.6736 10.141 13.7054 10.1094 13.7029 10.1119C13.7005 10.1144 13.732 10.0825 13.7297 10.0851C13.7274 10.0877 13.7587 10.0288 13.7565 10.0315C13.7544 10.0342 13.7853 10.0019 13.7833 10.0047C13.7812 10.0075 13.812 9.97499 13.8101 9.97792C13.8082 9.98083 13.8386 9.94811 13.8369 9.95114C13.8352 9.95414 13.8384 9.89446 13.8369 9.89756C13.8354 9.90065 13.8651 9.86759 13.8637 9.87077C13.8623 9.87394 13.8917 9.81395 13.8905 9.8172C13.8893 9.82045 13.8915 9.7871 13.8905 9.79041C13.8895 9.79372 13.9182 9.76026 13.9173 9.76362C13.9164 9.76698 13.918 9.70665 13.9173 9.71005C13.9166 9.71345 13.9178 9.67983 13.9173 9.68326C13.9167 9.6867 13.9176 9.62623 13.9173 9.62969C13.9169 9.63314 13.9174 9.59943 13.9173 9.6029C13.9171 9.60637 13.9441 9.54585 13.9441 9.54933C13.9441 9.55281 13.9171 9.49228 13.9173 9.49575C13.9174 9.49922 13.9169 9.46551 13.9173 9.46896C13.9176 9.47241 13.9167 9.41195 13.9173 9.41539C13.9178 9.41883 13.9166 9.3852 13.9173 9.3886C13.918 9.392 13.9164 9.33167 13.9173 9.33503C13.9181 9.33839 13.8894 9.30493 13.8905 9.30824C13.8915 9.31155 13.8893 9.2782 13.8905 9.28145C13.8917 9.2847 13.8623 9.22469 13.8637 9.22788C13.8651 9.23106 13.8353 9.19798 13.8369 9.20109C13.8384 9.20419 13.8352 9.14449 13.8369 9.14751C13.8386 9.15054 13.8082 9.1178 13.8101 9.12073C13.812 9.12366 13.7813 9.09111 13.7833 9.09394C13.7854 9.09677 13.7544 9.06443 13.7565 9.06715C13.7586 9.06987 13.7274 9.01097 13.7297 9.01358C13.732 9.01619 13.7005 8.98431 13.7029 8.98679C13.7053 8.98928 13.6736 8.95765 13.6762 8.96C13.6788 8.96236 13.6467 8.931 13.6494 8.93321C13.6521 8.93543 13.6198 8.90435 13.6226 8.90643C13.6254 8.9085 13.5661 8.87771 13.569 8.87964C13.5719 8.88157 13.5392 8.87787 13.5422 8.87964C13.5452 8.88141 13.5123 8.85123 13.5154 8.85285C13.5185 8.85447 13.4587 8.82461 13.4618 8.82607C13.465 8.82753 13.4318 8.82478 13.435 8.82607C13.4383 8.82736 13.405 8.79815 13.4083 8.79928C13.4116 8.8004 13.3513 8.79833 13.3547 8.79928C13.358 8.80023 13.3245 8.77171 13.3279 8.77249C13.3313 8.77327 13.2709 8.77189 13.2743 8.77249C13.2777 8.7731 13.2441 8.77206 13.2475 8.77249C13.2509 8.77292 13.1905 8.74546 13.1939 8.7457C13.1973 8.74595 13.1637 8.74563 13.1671 8.7457C13.1706 8.74577 13.1101 8.74581 13.1136 8.7457H13.06H12.8189C12.8163 8.7481 12.8214 8.71641 12.8189 8.71892C12.8164 8.72142 12.8481 8.71631 12.8457 8.71892C12.8433 8.72153 12.8748 8.68943 12.8725 8.69213C12.8702 8.69483 12.9014 8.66255 12.8993 8.66534C12.8972 8.66813 12.9014 8.63567 12.8993 8.63855C12.8972 8.64143 12.928 8.60881 12.9261 8.61177C12.9251 8.61325 12.9216 8.59206 12.9261 8.58498C12.923 8.58957 12.9556 8.55342 12.9528 8.55819C12.9511 8.5613 12.9812 8.52823 12.9796 8.5314C12.9843 8.52268 12.9806 8.50264 12.9796 8.50462C12.9771 8.50956 13.0086 8.47275 13.0064 8.47783C13.0043 8.48291 13.035 8.41904 13.0332 8.42425C13.0482 8.38112 13.0573 8.33591 13.06 8.29032C13.0597 8.29524 13.06 8.2586 13.06 8.26353C13.06 8.26599 13.0603 8.24836 13.06 8.23674C13.06 8.2393 13.0605 8.22203 13.06 8.20995C13.0595 8.19787 13.0598 8.18061 13.06 8.18317C13.0604 8.18828 13.0326 8.1513 13.0332 8.15638C13.0339 8.16146 13.0323 8.09777 13.0332 8.1028C13.0342 8.10783 13.0319 8.04426 13.0332 8.04923C13.0345 8.0542 13.0049 8.01755 13.0064 8.02244C13.0079 8.02733 13.0046 7.96408 13.0064 7.96887C13.0082 7.97366 12.9775 7.93741 12.9796 7.94208C12.9805 7.94395 12.9836 7.92357 12.9796 7.91529C12.9817 7.92037 12.9504 7.88357 12.9528 7.8885C12.9553 7.89344 12.9233 7.83016 12.9261 7.83493C12.9288 7.8397 12.8962 7.80356 12.8993 7.80814C12.8915 7.78977 12.8825 7.77186 12.8725 7.75457C12.8747 7.75723 12.8433 7.72522 12.8457 7.72778C12.8481 7.73034 12.8432 7.69853 12.8457 7.70099C12.8402 7.69484 12.8177 7.69971 12.8189 7.70099C12.8213 7.70355 12.8164 7.67174 12.8189 7.6742C12.8127 7.66874 12.7908 7.67307 12.7921 7.6742C12.7945 7.67676 12.7896 7.64495 12.7921 7.64741C12.7946 7.64988 12.7628 7.64504 12.7653 7.64741C12.7679 7.64978 12.7359 7.61837 12.7385 7.62063C12.7212 7.61064 12.7033 7.60168 12.685 7.59384C12.6895 7.59692 12.6534 7.56427 12.6582 7.56705C12.663 7.56983 12.5997 7.5378 12.6046 7.54026C12.6096 7.54273 12.5727 7.51133 12.5778 7.51348C12.5829 7.51563 12.519 7.48486 12.5242 7.48669C12.4886 7.48283 12.4526 7.48283 12.4171 7.48669C12.422 7.48725 12.3853 7.45962 12.3903 7.4599C12.3952 7.46018 12.3318 7.4599 12.3367 7.4599C12.3392 7.4599 12.3215 7.45957 12.3099 7.4599H12.2831H12.176C12.1964 7.43493 12.2143 7.40798 12.2295 7.37954C12.2271 7.38365 12.2585 7.34852 12.2563 7.35275C12.2542 7.35698 12.2583 7.32163 12.2563 7.32596C12.2544 7.33029 12.2848 7.29475 12.2831 7.29917C12.2814 7.30359 12.2846 7.24109 12.2831 7.2456C12.2816 7.25011 12.3112 7.21424 12.3099 7.21881C12.3086 7.22339 12.3109 7.18739 12.3099 7.19202C12.3089 7.19666 12.3107 7.16056 12.3099 7.16524C12.3091 7.16992 12.3105 7.10695 12.3099 7.11166C12.3092 7.11759 12.3371 7.0789 12.3367 7.08487C12.3363 7.09084 12.3367 7.02532 12.3367 7.0313C12.3363 7.03727 12.3367 6.97174 12.3367 6.97772C12.3367 6.9837 12.3363 6.91818 12.3367 6.92415C12.3371 6.93012 12.3092 6.89143 12.3099 6.89736C12.312 6.87063 12.312 6.84373 12.3099 6.817C12.3112 6.82175 12.3084 6.78553 12.3099 6.79021C12.3114 6.79489 12.2814 6.75883 12.2831 6.76342C12.2848 6.76801 12.2811 6.70535 12.2831 6.70985C12.2851 6.71435 12.2541 6.67867 12.2563 6.68306C12.2585 6.68745 12.2271 6.65201 12.2295 6.65627C12.2319 6.66054 12.2268 6.62535 12.2295 6.62949C12.2322 6.63362 12.1999 6.59871 12.2028 6.6027C12.2056 6.60669 12.1729 6.54528 12.176 6.54912C12.1791 6.55296 12.1459 6.51866 12.1492 6.52233C12.1525 6.52601 12.1189 6.49205 12.1224 6.49555C12.1258 6.49905 12.092 6.46544 12.0956 6.46876C12.0992 6.47208 12.065 6.46564 12.0688 6.46876C12.0726 6.47188 12.0381 6.43905 12.042 6.44197C12.0459 6.44489 12.0111 6.41247 12.0152 6.41518C12.0193 6.4179 11.9842 6.3859 11.9884 6.3884C11.9926 6.3909 11.9573 6.38612 11.9616 6.3884C11.9657 6.39077 11.9306 6.35945 11.9349 6.36161C11.9391 6.36377 11.9037 6.35966 11.9081 6.36161C11.9125 6.36356 11.8769 6.33309 11.8813 6.33482C11.8858 6.33654 11.8232 6.33332 11.8277 6.33482C11.8322 6.33632 11.7963 6.30676 11.8009 6.30803C11.8054 6.30931 11.7695 6.30698 11.7741 6.30803C11.7787 6.30908 11.7426 6.30722 11.7473 6.30803C11.752 6.30884 11.689 6.30746 11.6937 6.30803C11.6764 6.29804 11.6585 6.28909 11.6402 6.28124H4.40755C4.41053 6.28143 4.39346 6.28165 4.38077 6.28124C4.36808 6.28084 4.35099 6.28124 4.35398 6.28124C4.35697 6.28124 4.33988 6.28084 4.32719 6.28124C4.3145 6.28165 4.29742 6.28143 4.3004 6.28124C4.30338 6.28143 4.28628 6.28164 4.27361 6.28124C4.26095 6.28085 4.24384 6.28124 4.24683 6.28124C4.2528 6.28124 4.21408 6.28162 4.22004 6.28124L4.22017 6.28112Z" fill="#EBE7E4"/>
</svg>
