<?xml version="1.0" encoding="UTF-8"?>
<svg xmlns="http://www.w3.org/2000/svg" xmlns:xlink="http://www.w3.org/1999/xlink" width="12" height="12" viewBox="0 0 12 12">
<defs>
<filter id="filter-remove-color" x="0%" y="0%" width="100%" height="100%">
<feColorMatrix color-interpolation-filters="sRGB" values="0 0 0 0 1 0 0 0 0 1 0 0 0 0 1 0 0 0 1 0" />
</filter>
<mask id="mask-0">
<g filter="url(#filter-remove-color)">
<rect x="-1.2" y="-1.2" width="14.4" height="14.4" fill="rgb(0%, 0%, 0%)" fill-opacity="0.804"/>
</g>
</mask>
<clipPath id="clip-0">
<rect x="0" y="0" width="12" height="12"/>
</clipPath>
<g id="source-6" clip-path="url(#clip-0)">
<path fill-rule="nonzero" fill="rgb(92.156863%, 90.588235%, 89.411765%)" fill-opacity="1" d="M 4.765625 1.539062 C 4.621094 1.535156 4.480469 1.578125 4.359375 1.660156 C 3.75 2.085938 3.078125 2.519531 2.46875 3.113281 C 2.464844 3.117188 2.464844 3.121094 2.460938 3.125 C 1.859375 3.730469 1.511719 4.425781 1.132812 4.945312 C 1.027344 5.089844 0.984375 5.265625 1.011719 5.441406 C 1.035156 5.617188 1.132812 5.773438 1.273438 5.878906 L 2.199219 6.5625 C 2.269531 6.613281 2.351562 6.652344 2.4375 6.671875 C 2.523438 6.695312 2.613281 6.699219 2.703125 6.683594 C 2.792969 6.667969 2.875 6.636719 2.953125 6.589844 C 3.027344 6.542969 3.09375 6.480469 3.144531 6.40625 L 3.753906 5.535156 C 4.121094 5.902344 4.488281 6.269531 4.859375 6.640625 C 4.828125 6.660156 4.800781 6.6875 4.777344 6.710938 C 4.695312 6.800781 4.625 6.882812 4.554688 6.953125 L 2.371094 9.28125 C 2.308594 9.347656 2.261719 9.421875 2.230469 9.503906 C 2.199219 9.589844 2.183594 9.675781 2.1875 9.765625 C 2.191406 9.855469 2.214844 9.941406 2.25 10.023438 C 2.289062 10.101562 2.34375 10.175781 2.40625 10.234375 L 2.828125 10.617188 C 2.894531 10.675781 2.972656 10.722656 3.054688 10.75 C 3.136719 10.78125 3.226562 10.792969 3.316406 10.789062 C 3.402344 10.785156 3.488281 10.761719 3.570312 10.722656 C 3.648438 10.683594 3.71875 10.632812 3.777344 10.566406 L 5.90625 8.175781 C 5.96875 8.105469 6.03125 8.042969 6.105469 7.957031 C 6.117188 7.945312 6.128906 7.929688 6.136719 7.917969 C 6.246094 8.027344 6.351562 8.136719 6.460938 8.242188 L 8.707031 10.511719 C 8.769531 10.574219 8.84375 10.625 8.925781 10.65625 C 9.007812 10.691406 9.09375 10.710938 9.183594 10.710938 C 9.269531 10.710938 9.359375 10.691406 9.4375 10.660156 C 9.519531 10.625 9.59375 10.578125 9.65625 10.515625 L 10.058594 10.113281 C 10.121094 10.050781 10.171875 9.972656 10.203125 9.890625 C 10.238281 9.808594 10.253906 9.71875 10.253906 9.632812 C 10.253906 9.542969 10.234375 9.453125 10.199219 9.371094 C 10.164062 9.289062 10.113281 9.21875 10.046875 9.15625 L 7.738281 6.949219 L 7.738281 6.945312 C 7.605469 6.816406 7.46875 6.6875 7.335938 6.5625 C 7.363281 6.539062 7.390625 6.515625 7.414062 6.488281 C 7.738281 6.125 8.046875 5.765625 8.363281 5.410156 C 8.410156 5.460938 8.46875 5.546875 8.40625 5.449219 C 8.46875 5.542969 8.554688 5.621094 8.652344 5.671875 L 10.160156 6.457031 C 10.292969 6.527344 10.445312 6.546875 10.59375 6.519531 C 10.742188 6.488281 10.875 6.414062 10.972656 6.296875 C 11.070312 6.183594 11.128906 6.042969 11.132812 5.890625 C 11.140625 5.742188 11.097656 5.59375 11.007812 5.472656 C 11.007812 5.46875 11.007812 5.46875 11.003906 5.460938 C 10.988281 5.429688 10.957031 5.363281 10.917969 5.289062 C 10.847656 5.132812 10.753906 4.921875 10.65625 4.707031 C 10.558594 4.492188 10.460938 4.277344 10.378906 4.097656 C 10.335938 4.007812 10.296875 3.929688 10.257812 3.859375 C 10.242188 3.824219 10.222656 3.792969 10.195312 3.753906 C 10.171875 3.714844 10.167969 3.679688 10.042969 3.570312 C 10.027344 3.558594 10.003906 3.535156 9.984375 3.519531 C 10.039062 3.386719 10.046875 3.242188 10.011719 3.105469 C 9.976562 2.96875 9.898438 2.847656 9.792969 2.757812 L 9.550781 2.558594 C 9.453125 2.476562 9.335938 2.425781 9.210938 2.410156 C 9.085938 2.390625 8.960938 2.410156 8.84375 2.464844 C 8.589844 2.222656 8.304688 1.960938 8.148438 1.792969 C 8.027344 1.664062 7.863281 1.585938 7.6875 1.578125 C 7.515625 1.570312 7.34375 1.632812 7.210938 1.746094 L 6.308594 2.550781 C 6.242188 2.609375 6.1875 2.679688 6.152344 2.761719 C 6.113281 2.839844 6.089844 2.925781 6.085938 3.015625 C 6.066406 2.914062 6.027344 2.816406 5.964844 2.734375 L 5.28125 1.808594 C 5.222656 1.726562 5.144531 1.664062 5.054688 1.617188 C 4.964844 1.570312 4.867188 1.542969 4.765625 1.539062 Z M 6.09375 3.164062 C 6.117188 3.300781 6.183594 3.429688 6.285156 3.527344 L 7.046875 4.277344 C 6.734375 4.613281 6.421875 4.949219 6.105469 5.285156 C 6.089844 5.300781 6.074219 5.316406 6.0625 5.335938 C 5.699219 4.988281 5.335938 4.640625 4.976562 4.292969 L 5.824219 3.671875 C 5.902344 3.613281 5.96875 3.535156 6.015625 3.449219 C 6.0625 3.359375 6.089844 3.261719 6.09375 3.164062 Z M 6.09375 3.164062 "/>
</g>
</defs>
<g mask="url(#mask-0)">
<use xlink:href="#source-6"/>
</g>
</svg>
