<?xml version="1.0" encoding="UTF-8"?>
<svg xmlns="http://www.w3.org/2000/svg" xmlns:xlink="http://www.w3.org/1999/xlink" width="12" height="12" viewBox="0 0 12 12">
<path fill-rule="nonzero" fill="rgb(85.490196%, 85.490196%, 85.490196%)" fill-opacity="1" d="M 6.828125 2.28125 L 10.691406 8.96875 C 10.761719 9.09375 10.800781 9.238281 10.800781 9.378906 C 10.800781 9.832031 10.433594 10.199219 9.980469 10.199219 L 2.019531 10.199219 C 1.566406 10.199219 1.199219 9.832031 1.199219 9.378906 C 1.199219 9.238281 1.238281 9.09375 1.308594 8.96875 L 5.171875 2.28125 C 5.339844 1.984375 5.65625 1.800781 6 1.800781 C 6.34375 1.800781 6.660156 1.984375 6.828125 2.28125 Z M 6.828125 2.28125 "/>
<path fill-rule="evenodd" fill="rgb(39.215686%, 73.333333%, 100%)" fill-opacity="1" d="M 10.691406 8.96875 L 6.828125 2.28125 C 6.660156 1.984375 6.34375 1.800781 6 1.800781 C 5.65625 1.800781 5.339844 1.984375 5.171875 2.28125 L 1.308594 8.96875 C 1.238281 9.09375 1.199219 9.238281 1.199219 9.378906 C 1.199219 9.832031 1.566406 10.199219 2.019531 10.199219 L 9.980469 10.199219 C 10.433594 10.199219 10.800781 9.832031 10.800781 9.378906 C 10.800781 9.238281 10.761719 9.09375 10.691406 8.96875 Z M 2.019531 10.800781 L 9.980469 10.800781 C 10.765625 10.800781 11.398438 10.164062 11.398438 9.378906 C 11.398438 9.132812 11.335938 8.886719 11.210938 8.671875 L 7.351562 1.980469 C 7.070312 1.496094 6.558594 1.199219 6 1.199219 C 5.441406 1.199219 4.929688 1.496094 4.648438 1.980469 L 0.789062 8.671875 C 0.664062 8.886719 0.601562 9.132812 0.601562 9.378906 C 0.601562 10.164062 1.234375 10.800781 2.019531 10.800781 Z M 2.019531 10.800781 "/>
</svg>
