<svg width="25" height="33" viewBox="0 0 25 33" fill="none" xmlns="http://www.w3.org/2000/svg">
<path d="M22.4016 0.543335H2.59839V7.54601H22.4016V0.543335Z" fill="white" stroke="#515151" stroke-width="1.08274"/>
<path d="M3.98477 2.07837H6.99835V2.84706H5.91425V6.0222H5.07106V2.84706H3.98477V2.07837V2.07837Z" fill="#515151"/>
<path d="M8.62997 3.82707C8.80664 3.82707 8.93294 3.78745 9.00886 3.7082C9.08624 3.62896 9.12494 3.49864 9.12494 3.31725C9.12494 3.13763 9.08624 3.00907 9.00886 2.93159C8.93294 2.8541 8.80664 2.81536 8.62997 2.81536H8.27518V3.82707H8.62997V3.82707ZM8.27518 4.52973V6.0222H7.43199V2.07837H8.71977C9.15049 2.07837 9.46586 2.16554 9.66589 2.33988C9.86738 2.51422 9.96812 2.78983 9.96812 3.16669C9.96812 3.42732 9.91556 3.64128 9.81044 3.80858C9.70677 3.97588 9.54982 4.09915 9.33957 4.1784C9.45491 4.2101 9.55785 4.2823 9.64837 4.39501C9.74035 4.50595 9.83307 4.67501 9.92651 4.90218L10.3842 6.0222H9.4863L9.08771 5.04219C9.0074 4.84495 8.92564 4.71023 8.84241 4.63803C8.76065 4.56583 8.65114 4.52973 8.5139 4.52973H8.27518V4.52973Z" fill="#515151"/>
<path d="M10.8836 2.07837H11.7268V4.44255C11.7268 4.76835 11.7706 5.00168 11.8582 5.14256C11.9472 5.28169 12.0918 5.35125 12.2918 5.35125C12.4933 5.35125 12.6379 5.28169 12.7255 5.14256C12.8145 5.00168 12.8591 4.76835 12.8591 4.44255V2.07837H13.7022V4.44255C13.7022 5.0008 13.5862 5.4164 13.354 5.68936C13.1219 5.96232 12.7678 6.0988 12.2918 6.0988C11.8173 6.0988 11.464 5.96232 11.2318 5.68936C10.9997 5.4164 10.8836 5.0008 10.8836 4.44255V2.07837V2.07837Z" fill="#515151"/>
<path d="M17.121 5.80557C16.9662 5.90242 16.8049 5.97551 16.637 6.02482C16.4691 6.07412 16.2939 6.09878 16.1114 6.09878C15.5668 6.09878 15.1353 5.91563 14.817 5.54933C14.4987 5.18128 14.3396 4.68291 14.3396 4.05422C14.3396 3.42377 14.4987 2.9254 14.817 2.5591C15.1353 2.19105 15.5668 2.00702 16.1114 2.00702C16.2939 2.00702 16.4691 2.03167 16.637 2.08098C16.8049 2.13029 16.9662 2.20337 17.121 2.30023V3.11647C16.9648 2.98791 16.8107 2.8937 16.6589 2.83382C16.507 2.77395 16.3472 2.74401 16.1792 2.74401C15.8785 2.74401 15.6419 2.86024 15.4697 3.0927C15.2974 3.32515 15.2112 3.64566 15.2112 4.05422C15.2112 4.46102 15.2974 4.78064 15.4697 5.0131C15.6419 5.24556 15.8785 5.36178 16.1792 5.36178C16.3472 5.36178 16.507 5.33185 16.6589 5.27197C16.8107 5.2121 16.9648 5.11788 17.121 4.98933V5.80557V5.80557Z" fill="#515151"/>
<path d="M17.8218 2.07837H18.665V3.51801L19.8805 2.07837H20.8595L19.2848 3.94594L21.0216 6.0222H19.9659L18.665 4.46897V6.0222H17.8218V2.07837V2.07837Z" fill="#515151"/>
</svg>
