<svg width="16" height="16" fill="none" version="1.1" viewBox="0 0 16 16" xmlns="http://www.w3.org/2000/svg">
 <path transform="matrix(.8 0 0 .8 1.6 1.6006)" d="m7.041 0.0019531-2.5859 0.64648a1.039 1.039 0 0 0-0.66211 1.1035l-0.2168-0.19336a1.039 1.039 0 0 0-1.4648 0.087891l-1.7734 1.9941a1.039 1.039 0 0 0 0.085938 1.4668l3.7656 3.3477-3.8672 3.8672a1.039 1.039 0 0 0 0 1.4688l1.8867 1.8867a1.039 1.039 0 0 0 1.4688 0l2.7715-2.7715 0.58203 2.3359a1.039 1.039 0 0 0 1.2598 0.75586l2.5879-0.64648a1.039 1.039 0 0 0 0.59375-0.42383l0.95117 0.8457a1.039 1.039 0 0 0 1.4648-0.08594l1.7734-1.9922a1.039 1.039 0 0 0-0.08594-1.4668l-4.4727-3.9766 4.5742-4.5742a1.039 1.039 0 0 0 0-1.4688l-1.8867-1.8867a1.039 1.039 0 0 0-1.4688 0l-3.3047 3.3047-0.7168-2.8691a1.039 1.039 0 0 0-1.2598-0.75586z" fill="#ebe7e4" opacity=".8" stop-color="#000000" stroke-width="1.5625" style="-inkscape-stroke:none;font-variation-settings:normal"/>
</svg>
