<svg width="16" height="16" viewBox="0 0 16 16" fill="none" xmlns="http://www.w3.org/2000/svg">
<path d="M10.5553 1.6045C10.2712 1.60384 9.91167 1.70553 9.71655 1.83051C9.18474 2.17117 8.89234 2.75723 8.63333 3.65207C8.43373 4.34166 8.18765 5.35969 8.0708 5.96751C8.02526 5.75296 7.99419 5.58691 7.90337 5.20909C7.55219 3.74806 7.41253 3.2269 7.2069 2.80658C6.88521 2.14905 6.28474 1.64374 5.58291 1.65305C5.31037 1.65666 5.04299 1.72919 4.79268 1.84893C4.17288 2.14544 3.68267 2.70929 3.68267 3.4093C3.68267 3.93435 3.87314 4.24744 4.12801 4.60972C4.43279 5.04294 5.03196 5.63155 5.65322 6.22534C5.88738 6.44914 6.09886 6.63693 6.3045 6.81969C5.86691 6.68733 5.35395 6.53667 4.88141 6.40448C4.34436 6.25425 3.94772 6.14249 3.70443 6.09642C3.48362 6.05461 3.26838 6.03212 3.05651 6.03448C2.42673 6.04148 1.78326 6.30461 1.47605 6.86991C1.10929 7.5448 1.1034 8.3122 1.56143 8.95432C1.92135 9.45887 2.45648 9.6251 3.02303 9.63237C3.24111 9.63517 3.43165 9.60626 3.63579 9.57043C4.30517 9.45289 5.62819 9.05199 6.47861 8.75006C6.16094 9.02826 5.83817 9.31533 5.41883 9.73115C5.13297 10.0146 4.85469 10.2979 4.6286 10.5365C4.40252 10.775 4.2591 10.916 4.12131 11.1208C3.80268 11.5943 3.62977 12.1404 3.76638 12.6744C3.90299 13.2085 4.32445 13.6061 4.83453 13.8531C5.07408 13.9691 5.36643 14.0406 5.60132 14.0406C5.69154 14.0406 5.77865 14.035 5.86418 14.0255C5.94971 14.016 6.00526 14.019 6.16219 13.9602C6.76658 13.7339 7.10584 13.2288 7.33414 12.6426C7.49768 12.2227 7.68741 11.5019 7.86319 10.7775C7.9473 10.431 8.02243 10.0978 8.08084 9.80984C8.12411 9.99909 8.17021 10.1982 8.22482 10.4276C8.36364 11.0108 8.51947 11.6477 8.61492 11.998C8.85686 12.8861 9.19843 13.5726 9.86723 13.8933C10.3576 14.1284 10.8863 14.0705 11.3506 13.843C11.9409 13.5538 12.4202 13.034 12.4355 12.358C12.4492 11.7513 12.1441 11.1837 11.6118 10.5934C11.2558 10.1986 10.7104 9.66866 10.2171 9.21382C10.0488 9.0586 9.9079 8.93598 9.76176 8.80866C10.6204 9.09105 11.976 9.49778 12.5092 9.60056V9.59889C12.6919 9.63417 12.7032 9.6194 12.7971 9.62066C12.8911 9.62191 12.9996 9.62171 13.1085 9.61899C13.4426 9.6106 13.7349 9.54935 13.9557 9.44152C14.5498 9.15133 14.8795 8.46233 14.8681 7.78405C14.8628 7.46773 14.8101 7.15825 14.6522 6.87494C14.4942 6.59163 14.2324 6.3733 13.9573 6.24208C13.7115 6.1248 13.4016 6.04201 13.0734 6.04285C12.527 6.04425 11.9296 6.20053 10.8349 6.50828C10.491 6.60499 10.1055 6.72426 9.78017 6.83308C9.83013 6.78673 9.86058 6.76741 9.91746 6.71421C10.1665 6.48132 10.4602 6.19796 10.7479 5.91393C11.0355 5.62991 11.3168 5.34528 11.5431 5.10864C11.7695 4.87199 11.9016 4.75199 12.0471 4.53438C12.3031 4.15136 12.4728 3.74137 12.4572 3.29713C12.4417 2.85289 12.2086 2.43436 11.8847 2.14359C11.5168 1.81341 11.0323 1.6056 10.5553 1.6045Z" fill="white"/>
</svg>
