<svg width="28" height="4" viewBox="0 0 28 4" fill="none" xmlns="http://www.w3.org/2000/svg">
<g clip-path="url(#clip0)">
<path d="M28 1.00497H-1.90735e-06V2.00497H28V1.00497Z" fill="#808080"/>
<path d="M6.005 0.00497437H4.99301V1.01599H6.005V0.00497437Z" fill="#999999"/>
<path d="M6.005 2.00497H4.99301V3.01599H6.005V2.00497Z" fill="#999999"/>
<path d="M8.005 2.00497H6.99301V3.01599H8.005V2.00497Z" fill="#999999"/>
<path d="M8.005 0.00497437H6.99301V1.01599H8.005V0.00497437Z" fill="#999999"/>
<path d="M7.01699 0.00497437H6.005V1.01599H7.01699V0.00497437Z" fill="black"/>
<path d="M6.01699 1H5.005V2.01199H6.01699V1Z" fill="black"/>
<path d="M7.01699 1H6.005V2.01199H7.01699V1Z" fill="black"/>
<path d="M7.01699 2H6.005V3.01199H7.01699V2Z" fill="black"/>
<path d="M8.005 1.01599H6.99301V2.02798H8.005V1.01599Z" fill="black"/>
<path d="M20.026 0H19.014V1.01199H20.026V0Z" fill="#999999"/>
<path d="M20.026 2H19.014V3.01199H20.026V2Z" fill="#999999"/>
<path d="M22.026 2H21.014V3.01199H22.026V2Z" fill="#999999"/>
<path d="M22.026 0H21.014V1.01199H22.026V0Z" fill="#999999"/>
<path d="M21.035 0H20.025V1.01199H21.035V0Z" fill="black"/>
<path d="M20.035 0.993988H19.025V2.00598H20.035V0.993988Z" fill="black"/>
<path d="M21.035 0.993988H20.025V2.00598H21.035V0.993988Z" fill="black"/>
<path d="M21.035 1.99399H20.025V3.00598H21.035V1.99399Z" fill="black"/>
<path d="M22.026 1.01099H21.014V2.022H22.026V1.01099Z" fill="black"/>
</g>
<defs>
<clipPath id="clip0">
<path d="M0 0H28V3.017H0V0Z" fill="white"/>
</clipPath>
</defs>
</svg>
