<?xml version="1.0" encoding="UTF-8"?>
<svg xmlns="http://www.w3.org/2000/svg" xmlns:xlink="http://www.w3.org/1999/xlink" width="12" height="12" viewBox="0 0 12 12">
<defs>
<filter id="filter-remove-color" x="0%" y="0%" width="100%" height="100%">
<feColorMatrix color-interpolation-filters="sRGB" values="0 0 0 0 1 0 0 0 0 1 0 0 0 0 1 0 0 0 1 0" />
</filter>
<mask id="mask-0">
<g filter="url(#filter-remove-color)">
<rect x="-1.2" y="-1.2" width="14.4" height="14.4" fill="rgb(0%, 0%, 0%)" fill-opacity="0.794"/>
</g>
</mask>
<clipPath id="clip-0">
<rect x="0" y="0" width="12" height="12"/>
</clipPath>
<g id="source-6" clip-path="url(#clip-0)">
<path fill-rule="nonzero" fill="rgb(92.156863%, 90.588235%, 89.411765%)" fill-opacity="1" d="M 9.050781 1.351562 C 8.703125 1.351562 8.332031 1.484375 8.074219 1.738281 C 7.820312 1.988281 7.679688 2.363281 7.679688 2.710938 C 7.679688 3.082031 7.839844 3.46875 8.101562 3.730469 C 8.257812 3.890625 8.503906 3.933594 8.730469 4.007812 C 8.582031 4.140625 8.4375 4.257812 8.359375 4.292969 C 8.355469 4.292969 8.351562 4.296875 8.347656 4.296875 C 8.140625 4.394531 7.882812 4.460938 7.5625 4.480469 C 7.394531 4.488281 7.234375 4.5625 7.121094 4.6875 C 7.003906 4.808594 6.941406 4.96875 6.941406 5.140625 L 6.941406 5.457031 C 6.941406 5.625 7.003906 5.785156 7.117188 5.90625 C 7.230469 6.03125 7.386719 6.105469 7.554688 6.117188 C 7.695312 6.125 7.707031 6.132812 7.773438 6.144531 L 7.765625 6.976562 C 7.765625 6.984375 7.765625 6.992188 7.765625 7 L 7.769531 7.253906 L 7.765625 7.523438 C 7.765625 7.539062 7.765625 7.558594 7.765625 7.574219 C 7.777344 7.777344 7.78125 7.917969 7.78125 7.953125 C 7.78125 8.027344 7.777344 8.125 7.773438 8.238281 C 7.769531 8.320312 7.769531 8.371094 7.765625 8.425781 L 7.664062 8.441406 L 7.664062 7.984375 C 7.664062 7.8125 7.59375 7.644531 7.46875 7.519531 C 7.34375 7.394531 7.175781 7.324219 7 7.324219 L 6.332031 7.324219 L 6.332031 7.082031 C 6.332031 7.0625 6.332031 7.046875 6.328125 7.027344 L 6.277344 6.414062 C 6.273438 6.34375 6.257812 6.273438 6.230469 6.207031 C 6.105469 5.917969 5.855469 5.71875 5.570312 5.582031 C 5.660156 5.398438 5.804688 5.242188 5.804688 5.027344 C 5.804688 4.242188 5.152344 3.589844 4.363281 3.589844 C 3.574219 3.589844 2.921875 4.242188 2.921875 5.027344 C 2.921875 5.242188 3.066406 5.398438 3.152344 5.582031 C 2.867188 5.714844 2.621094 5.917969 2.496094 6.210938 C 2.46875 6.273438 2.453125 6.34375 2.445312 6.414062 L 2.394531 7.027344 C 2.394531 7.046875 2.394531 7.0625 2.394531 7.082031 L 2.394531 7.324219 L 1.722656 7.324219 C 1.546875 7.324219 1.378906 7.394531 1.257812 7.519531 C 1.132812 7.644531 1.0625 7.8125 1.0625 7.984375 L 1.0625 10.253906 C 1.0625 10.429688 1.132812 10.597656 1.257812 10.71875 C 1.378906 10.84375 1.546875 10.914062 1.722656 10.914062 L 2.152344 10.914062 C 2.328125 10.914062 2.496094 10.84375 2.621094 10.71875 C 2.746094 10.597656 2.8125 10.429688 2.8125 10.253906 L 2.8125 9.300781 L 5.910156 9.300781 L 5.910156 10.253906 C 5.910156 10.429688 5.980469 10.597656 6.105469 10.71875 C 6.226562 10.84375 6.394531 10.914062 6.570312 10.914062 L 7 10.914062 C 7.175781 10.914062 7.34375 10.84375 7.46875 10.71875 C 7.59375 10.597656 7.664062 10.429688 7.664062 10.253906 L 7.664062 10.148438 C 7.746094 10.144531 7.824219 10.140625 7.953125 10.132812 C 8.109375 10.121094 8.273438 10.113281 8.441406 10.113281 C 9.082031 10.113281 9.59375 10.125 9.960938 10.144531 L 9.953125 10.140625 C 10.078125 10.148438 10.171875 10.152344 10.257812 10.152344 C 10.328125 10.152344 10.402344 10.152344 10.507812 10.148438 C 10.675781 10.140625 10.835938 10.070312 10.953125 9.949219 C 11.070312 9.832031 11.140625 9.671875 11.144531 9.5 L 11.148438 9.1875 C 11.152344 9.050781 11.113281 8.917969 11.035156 8.804688 C 10.960938 8.691406 10.851562 8.605469 10.722656 8.554688 C 10.589844 8.507812 10.472656 8.484375 10.347656 8.464844 L 10.339844 8.464844 C 10.324219 8.460938 10.324219 8.460938 10.308594 8.457031 L 10.347656 6.253906 C 10.347656 6.25 10.347656 6.246094 10.347656 6.242188 C 10.347656 5.484375 10.339844 4.871094 10.324219 4.390625 C 10.320312 4.265625 10.28125 4.144531 10.210938 4.042969 C 10.144531 3.9375 10.046875 3.855469 9.933594 3.808594 C 10.09375 3.675781 10.257812 3.535156 10.34375 3.347656 C 10.4375 3.140625 10.488281 2.914062 10.488281 2.6875 C 10.488281 2.328125 10.308594 1.96875 10.058594 1.738281 C 9.789062 1.484375 9.410156 1.351562 9.050781 1.351562 Z M 3.632812 7.402344 L 3.691406 7.460938 L 3.632812 7.519531 L 3.574219 7.460938 Z M 5.089844 7.402344 L 5.148438 7.460938 L 5.089844 7.519531 L 5.035156 7.460938 Z M 5.089844 7.402344 "/>
</g>
</defs>
<g mask="url(#mask-0)">
<use xlink:href="#source-6"/>
</g>
</svg>
