<?xml version="1.0" encoding="UTF-8"?>
<svg xmlns="http://www.w3.org/2000/svg" xmlns:xlink="http://www.w3.org/1999/xlink" width="12" height="12" viewBox="0 0 12 12">
<path fill-rule="evenodd" fill="rgb(100%, 100%, 100%)" fill-opacity="1" d="M 5.535156 -0.851562 C 5.335938 -0.851562 5.144531 -0.769531 5.003906 -0.628906 C 4.863281 -0.488281 4.785156 -0.300781 4.785156 -0.101562 L 4.785156 0.277344 L 4.398438 0.277344 C 4.199219 0.277344 4.011719 0.355469 3.871094 0.496094 C 3.730469 0.636719 3.648438 0.828125 3.648438 1.027344 L 3.648438 1.957031 C 3.648438 2.152344 3.730469 2.34375 3.871094 2.484375 C 4.011719 2.625 4.199219 2.707031 4.398438 2.707031 L 4.785156 2.707031 L 4.785156 2.734375 L 0.75 9.726562 C 0.683594 9.839844 0.648438 9.96875 0.648438 10.101562 C 0.648438 10.230469 0.683594 10.359375 0.75 10.476562 C 0.8125 10.589844 0.910156 10.683594 1.023438 10.75 C 1.136719 10.816406 1.265625 10.851562 1.398438 10.851562 L 10.601562 10.859375 C 10.734375 10.859375 10.863281 10.824219 10.976562 10.757812 C 11.089844 10.691406 11.1875 10.597656 11.25 10.484375 C 11.316406 10.371094 11.351562 10.238281 11.351562 10.109375 C 11.351562 9.976562 11.316406 9.847656 11.25 9.734375 L 7.214844 2.742188 L 7.214844 2.707031 L 7.601562 2.707031 C 7.800781 2.707031 7.988281 2.625 8.128906 2.484375 C 8.269531 2.34375 8.351562 2.152344 8.351562 1.957031 L 8.351562 1.027344 C 8.351562 0.828125 8.269531 0.636719 8.128906 0.496094 C 7.988281 0.355469 7.800781 0.277344 7.601562 0.277344 L 7.214844 0.277344 L 7.214844 -0.101562 C 7.214844 -0.300781 7.136719 -0.488281 6.996094 -0.628906 C 6.855469 -0.769531 6.664062 -0.851562 6.464844 -0.851562 Z M 5.535156 -0.851562 "/>
</svg>
