<svg width="16" height="16" viewBox="0 0 16 16" fill="none" xmlns="http://www.w3.org/2000/svg">
<path d="M8.05636 1.42543C7.66587 1.42178 7.25518 1.54971 6.92291 1.84231C6.57694 2.14698 6.3696 2.61073 6.36875 3.09463V3.0963V5.89224L2.22505 8.42032C1.91374 8.60995 1.7112 8.96824 1.71107 9.33277V10.5801C1.71057 10.917 1.88011 11.2498 2.15306 11.4473C2.42601 11.6448 2.79585 11.7021 3.11574 11.5963L6.41395 10.5114V11.0371L5.74426 11.5662C5.49203 11.7653 5.33755 12.0836 5.33743 12.405V13.3911C5.33734 13.7245 5.50424 14.0538 5.77272 14.2516C6.04121 14.4494 6.40522 14.5113 6.72368 14.4123L8.08482 13.9888L9.44596 14.4123C9.76442 14.5113 10.1284 14.4494 10.3969 14.2516C10.6654 14.0538 10.8323 13.7245 10.8322 13.3911V12.405C10.8324 12.0813 10.6755 11.762 10.4204 11.5628L9.74397 11.0321V10.5097L13.0405 11.5946C13.36 11.7003 13.7287 11.6426 14.0015 11.4456C14.2744 11.2486 14.4449 10.9166 14.4452 10.5801V9.33277C14.4452 8.9658 14.2391 8.60587 13.9245 8.41697L9.72053 5.8889V3.11807C9.721 2.63835 9.52458 2.17511 9.18478 1.86408C8.85668 1.56375 8.44631 1.42907 8.05636 1.42543Z" fill="white"/>
</svg>
