<?xml version="1.0" encoding="UTF-8"?>
<svg xmlns="http://www.w3.org/2000/svg" xmlns:xlink="http://www.w3.org/1999/xlink" width="12" height="12" viewBox="0 0 12 12">
<defs>
<filter id="filter-remove-color" x="0%" y="0%" width="100%" height="100%">
<feColorMatrix color-interpolation-filters="sRGB" values="0 0 0 0 1 0 0 0 0 1 0 0 0 0 1 0 0 0 1 0" />
</filter>
<mask id="mask-0">
<g filter="url(#filter-remove-color)">
<rect x="-1.2" y="-1.2" width="14.4" height="14.4" fill="rgb(0%, 0%, 0%)" fill-opacity="0.796"/>
</g>
</mask>
<clipPath id="clip-0">
<rect x="0" y="0" width="12" height="12"/>
</clipPath>
<g id="source-6" clip-path="url(#clip-0)">
<path fill-rule="nonzero" fill="rgb(92.156863%, 90.588235%, 89.411765%)" fill-opacity="1" d="M 5.984375 2.308594 C 5.863281 2.3125 5.746094 2.355469 5.652344 2.433594 L 2.539062 4.921875 C 2.125 5.25 2.359375 5.917969 2.886719 5.917969 L 3.136719 5.917969 L 3.136719 9.09375 C 3.136719 9.402344 3.386719 9.652344 3.695312 9.652344 C 8.304688 9.652344 2.753906 9.652344 8.304688 9.652344 C 8.613281 9.652344 8.863281 9.402344 8.863281 9.09375 L 8.863281 5.917969 L 9.113281 5.917969 C 9.640625 5.917969 9.875 5.25 9.460938 4.921875 L 6.347656 2.433594 C 6.246094 2.347656 6.117188 2.304688 5.984375 2.308594 Z M 5.984375 2.308594 "/>
</g>
</defs>
<g mask="url(#mask-0)">
<use xlink:href="#source-6"/>
</g>
</svg>
