<?xml version="1.0" encoding="UTF-8"?>
<svg xmlns="http://www.w3.org/2000/svg" xmlns:xlink="http://www.w3.org/1999/xlink" width="12" height="12" viewBox="0 0 12 12">
<path fill-rule="nonzero" fill="rgb(100%, 100%, 100%)" fill-opacity="1" d="M 6.238281 1.046875 C 6.070312 1.050781 5.910156 1.117188 5.789062 1.230469 L 5.484375 1.515625 C 5.386719 1.609375 5.300781 1.695312 5.226562 1.78125 C 5.1875 1.824219 5.15625 1.863281 5.113281 1.921875 C 5.097656 1.945312 5.078125 1.980469 5.058594 2.023438 C 4.902344 2 4.722656 2.003906 4.621094 2.046875 C 4.5 2.09375 4.453125 2.132812 4.410156 2.160156 C 4.320312 2.21875 4.246094 2.28125 4.171875 2.363281 C 4.097656 2.445312 3.953125 2.46875 3.953125 2.894531 C 3.953125 3.003906 3.980469 2.992188 3.996094 3.046875 C 3.964844 3.046875 3.949219 3.042969 3.917969 3.042969 C 3.570312 3.058594 3.285156 3.089844 3.015625 3.175781 C 2.882812 3.21875 2.75 3.269531 2.605469 3.386719 C 2.457031 3.5 2.285156 3.746094 2.285156 4.03125 C 2.285156 4.234375 2.3125 4.242188 2.328125 4.296875 C 2.34375 4.347656 2.359375 4.394531 2.378906 4.449219 C 2.417969 4.550781 2.464844 4.664062 2.515625 4.777344 C 2.566406 4.886719 2.617188 4.996094 2.664062 5.089844 C 2.6875 5.136719 2.710938 5.175781 2.746094 5.230469 C 2.761719 5.257812 2.777344 5.285156 2.820312 5.335938 C 2.84375 5.359375 2.871094 5.390625 2.929688 5.4375 C 2.960938 5.460938 3.003906 5.488281 3.066406 5.515625 C 3.097656 5.53125 3.179688 5.554688 3.179688 5.554688 C 3.179688 5.554688 3.34375 5.574219 3.34375 5.574219 C 3.5625 5.574219 3.5 5.558594 3.519531 5.550781 C 3.542969 5.546875 3.558594 5.542969 3.574219 5.539062 C 3.609375 5.527344 3.648438 5.515625 3.695312 5.503906 C 3.789062 5.472656 3.90625 5.433594 4.035156 5.390625 C 4.320312 5.296875 4.386719 5.320312 4.476562 5.320312 C 4.429688 5.371094 4.335938 5.449219 4.125 5.546875 C 3.992188 5.609375 3.871094 5.671875 3.761719 5.75 C 3.707031 5.785156 3.652344 5.824219 3.589844 5.886719 C 3.523438 5.953125 3.355469 5.992188 3.355469 6.417969 C 3.355469 6.710938 3.414062 6.746094 3.457031 6.863281 C 3.503906 6.976562 3.554688 7.09375 3.613281 7.210938 C 3.671875 7.324219 3.726562 7.433594 3.792969 7.535156 C 3.824219 7.585938 3.855469 7.632812 3.910156 7.695312 C 3.9375 7.730469 3.96875 7.765625 4.035156 7.8125 C 4.097656 7.863281 4.199219 7.964844 4.464844 7.960938 C 4.691406 7.960938 4.785156 7.90625 4.882812 7.859375 C 4.980469 7.8125 5.066406 7.757812 5.152344 7.699219 C 5.1875 7.671875 5.222656 7.632812 5.257812 7.605469 C 5.292969 7.683594 5.339844 7.734375 5.363281 7.8125 C 5.433594 8.0625 5.425781 8.304688 5.414062 8.351562 C 5.382812 8.457031 5.15625 8.667969 5.09375 8.683594 C 4.757812 8.769531 4.410156 8.664062 4.019531 8.269531 C 3.628906 7.878906 3.261719 7.203125 3.085938 6.359375 C 3.039062 6.132812 3.0625 5.871094 2.660156 5.601562 C 2.457031 5.46875 2.164062 5.457031 1.992188 5.507812 C 1.820312 5.554688 1.722656 5.625 1.636719 5.691406 C 1.601562 5.714844 1.496094 5.78125 1.398438 5.9375 C 1.300781 6.09375 1.273438 6.28125 1.277344 6.394531 C 1.277344 6.628906 1.320312 6.761719 1.378906 7.066406 C 1.609375 8.214844 2.042969 9.097656 2.773438 9.847656 C 3.25 10.339844 3.808594 10.679688 4.429688 10.84375 C 5.058594 11.007812 5.6875 10.988281 6.300781 10.714844 C 6.878906 10.460938 7.226562 9.949219 7.421875 9.386719 C 7.519531 9.460938 7.574219 9.597656 7.671875 9.640625 C 8.476562 9.996094 9.394531 9.722656 9.96875 9.066406 C 10.5625 8.394531 10.761719 7.5 10.71875 6.25 C 10.6875 5.246094 10.507812 4.550781 10.023438 4.058594 C 9.683594 3.710938 9.171875 3.53125 8.65625 3.515625 C 8.707031 3.375 8.792969 3.125 8.585938 2.851562 C 8.464844 2.691406 8.429688 2.683594 8.351562 2.613281 C 8.269531 2.542969 8.175781 2.460938 8.085938 2.386719 C 7.992188 2.308594 7.898438 2.238281 7.820312 2.175781 C 7.78125 2.144531 7.742188 2.117188 7.699219 2.089844 C 7.679688 2.078125 7.65625 2.0625 7.617188 2.042969 C 7.589844 2.027344 7.484375 2.007812 7.398438 1.988281 C 7.375 1.945312 7.351562 1.90625 7.324219 1.871094 C 7.246094 1.765625 7.152344 1.664062 7.042969 1.554688 L 6.726562 1.242188 C 6.660156 1.179688 6.585938 1.128906 6.5 1.09375 C 6.417969 1.0625 6.328125 1.046875 6.238281 1.046875 Z M 6.886719 4.644531 C 6.847656 4.722656 6.777344 4.773438 6.75 4.855469 C 6.597656 4.886719 6.46875 4.984375 6.324219 5.039062 C 6.300781 4.917969 6.359375 4.789062 6.320312 4.664062 C 6.320312 4.660156 6.316406 4.65625 6.316406 4.652344 C 6.507812 4.667969 6.695312 4.675781 6.886719 4.644531 Z M 8.34375 5.40625 L 8.488281 5.648438 L 8.441406 5.703125 C 8.40625 5.597656 8.390625 5.484375 8.34375 5.40625 Z M 8.484375 5.753906 C 8.542969 5.746094 8.582031 5.753906 8.617188 5.777344 C 8.578125 5.753906 8.6875 5.847656 8.757812 5.992188 C 8.824219 6.132812 8.878906 6.316406 8.890625 6.433594 C 8.925781 6.839844 8.699219 7.222656 8.597656 7.359375 C 8.589844 7.230469 8.578125 7.117188 8.570312 6.765625 C 8.5625 6.410156 8.558594 6.183594 8.53125 5.976562 C 8.519531 5.902344 8.480469 5.839844 8.460938 5.765625 C 8.46875 5.765625 8.476562 5.753906 8.484375 5.753906 Z M 6.335938 5.917969 C 6.335938 5.925781 6.351562 5.941406 6.351562 5.949219 C 6.367188 6.125 6.332031 6.132812 6.335938 6.117188 C 6.367188 6.042969 6.316406 5.988281 6.335938 5.917969 Z M 6.335938 5.917969 "/>
</svg>
