<svg width="16" height="16" viewBox="0 0 16 16" fill="none" xmlns="http://www.w3.org/2000/svg">
<path d="M8.31655 1.39636C8.0942 1.4008 7.88133 1.48726 7.71886 1.63912L7.31202 2.02085C7.18066 2.14373 7.06589 2.2607 6.96713 2.37411C6.91775 2.43081 6.87352 2.48228 6.8198 2.56162C6.7986 2.59294 6.77152 2.64135 6.74279 2.6989C6.53862 2.66895 6.29775 2.67287 6.16183 2.72737C6.00007 2.79222 5.93659 2.84578 5.88224 2.88139C5.76154 2.96048 5.66312 3.04125 5.56414 3.15094C5.46516 3.26064 5.27282 3.29379 5.27282 3.85914C5.27282 4.00497 5.30928 3.98966 5.32975 4.06004C5.28879 4.06168 5.26697 4.05663 5.2226 4.05837C4.76245 4.07633 4.37915 4.12126 4.02218 4.23416C3.8437 4.29061 3.66567 4.3585 3.47136 4.51376C3.27706 4.66902 3.04444 4.99274 3.04444 5.37431C3.04444 5.64774 3.08143 5.65725 3.10304 5.72757C3.12464 5.79788 3.14732 5.86134 3.17335 5.93015C3.22542 6.06775 3.28833 6.21992 3.35417 6.36879C3.42 6.51766 3.48718 6.65911 3.55173 6.784C3.584 6.84644 3.61408 6.9028 3.65888 6.97318C3.68127 7.00838 3.70285 7.04508 3.761 7.11214C3.79008 7.14567 3.82609 7.18738 3.90834 7.24943C3.94946 7.28046 4.00296 7.31718 4.08748 7.35491C4.12973 7.37377 4.241 7.40836 4.2415 7.40848C4.24201 7.40861 4.45702 7.43359 4.45748 7.43359C4.75112 7.43359 4.66533 7.41042 4.69354 7.40346C4.72176 7.3965 4.7437 7.39172 4.76721 7.38504C4.81422 7.37168 4.86605 7.3557 4.92793 7.33649C5.0517 7.29807 5.20927 7.2459 5.3783 7.18916C5.76043 7.06089 5.84765 7.0932 5.9693 7.09373C5.90583 7.1605 5.78301 7.26685 5.49884 7.39676C5.32101 7.47807 5.16264 7.56425 5.01499 7.66464C4.94117 7.71483 4.87165 7.76435 4.78395 7.85047C4.69626 7.9366 4.4759 7.98978 4.4759 8.55532C4.4759 8.94683 4.55201 8.99559 4.61151 9.14967C4.67101 9.30375 4.74163 9.46028 4.81744 9.61343C4.89325 9.76658 4.97074 9.91133 5.05685 10.047C5.09991 10.1149 5.14161 10.1787 5.21423 10.263C5.25053 10.3052 5.29174 10.3522 5.3783 10.4187C5.46486 10.4853 5.60018 10.6173 5.95423 10.6163C6.25389 10.6154 6.3812 10.5398 6.51175 10.4773C6.64229 10.4148 6.75421 10.3436 6.86835 10.2647C6.91735 10.2308 6.96357 10.1795 7.01234 10.1425C7.05515 10.2448 7.12035 10.3147 7.14962 10.4187C7.24285 10.7501 7.2353 11.0735 7.21827 11.1353C7.17935 11.2765 6.87661 11.559 6.79134 11.5806C6.34275 11.6945 5.87986 11.5517 5.35821 11.0281C4.83656 10.5046 4.34925 9.60613 4.11594 8.47831C4.0532 8.17504 4.08368 7.82747 3.5467 7.47043C3.27822 7.29191 2.88355 7.27541 2.65602 7.34151C2.42849 7.40761 2.29914 7.49923 2.18054 7.58595C2.13376 7.62015 1.994 7.70742 1.86411 7.91744C1.73423 8.12747 1.69997 8.37479 1.70172 8.52853C1.70521 8.83601 1.76052 9.0172 1.84068 9.42257C2.14325 10.9527 2.72237 12.1316 3.69738 13.1326C4.33247 13.7847 5.07561 14.2403 5.90568 14.4569C6.74558 14.6761 7.58565 14.6489 8.40194 14.2878C9.17381 13.9464 9.63636 13.2639 9.89702 12.5132C10.0257 12.6128 10.1 12.7988 10.2302 12.8564C11.3002 13.3297 12.5251 12.9637 13.294 12.0879C14.082 11.1905 14.3468 10.0011 14.2935 8.33432C14.2507 6.99422 14.0079 6.07019 13.3643 5.41114C12.9116 4.94753 12.2296 4.70929 11.5394 4.6862C11.6102 4.49817 11.7236 4.1688 11.4473 3.80221C11.2864 3.58865 11.2418 3.57999 11.1343 3.48411C11.0268 3.38824 10.9033 3.28311 10.7793 3.18108C10.6554 3.07905 10.5333 2.98198 10.4261 2.90148C10.3725 2.86124 10.3245 2.8254 10.267 2.78764C10.2383 2.76875 10.2087 2.74996 10.1565 2.72234C10.1221 2.70415 9.9806 2.67596 9.86521 2.64868C9.83245 2.5962 9.79989 2.5391 9.76643 2.49465C9.65957 2.35273 9.53499 2.21623 9.3914 2.07442L8.96783 1.65587C8.8821 1.57132 8.7803 1.50479 8.66844 1.46022C8.55659 1.41565 8.43694 1.39394 8.31655 1.39636ZM9.1838 6.19467C9.13138 6.29619 9.03761 6.36571 8.99796 6.47427C8.79818 6.51454 8.62308 6.64471 8.43375 6.72038C8.40104 6.55748 8.47684 6.38409 8.42705 6.21644C8.42575 6.21204 8.42168 6.2091 8.42036 6.20472C8.67743 6.22642 8.92768 6.2343 9.1838 6.19467L9.1838 6.19467ZM11.1242 7.20757L11.1259 7.20925L11.3185 7.53237L11.2532 7.60269C11.2099 7.46604 11.1868 7.3125 11.1242 7.20757ZM11.3117 7.67133C11.3892 7.65905 11.4446 7.67248 11.4909 7.70314C11.4399 7.66941 11.5819 7.79894 11.675 7.98776C11.7682 8.17658 11.8397 8.42101 11.8542 8.58043C11.9033 9.12211 11.5993 9.63217 11.4658 9.81098C11.4536 9.63866 11.4396 9.48977 11.4289 9.01908C11.4182 8.548 11.4089 8.24365 11.3737 7.97102C11.3606 7.87002 11.3089 7.78819 11.2816 7.68808C11.291 7.68582 11.3028 7.67276 11.3117 7.67133L11.3117 7.67133ZM8.44714 7.89066C8.44866 7.90156 8.46633 7.92282 8.46723 7.93251C8.48931 8.16859 8.4431 8.1763 8.45049 8.15686C8.4875 8.05954 8.42339 7.98382 8.44714 7.89066H8.44714Z" fill="white"/>
</svg>
