<svg width="29" height="30" viewBox="0 0 29 30" fill="none" xmlns="http://www.w3.org/2000/svg">
<g clip-path="url(#clip0)">
<path opacity="0.787" d="M2.74799 7.69531C2.44431 7.69538 2.14846 7.79162 1.90284 7.97021C1.65723 8.1488 1.47448 8.40059 1.3808 8.68945C0.805699 10.4657 -0.17054 13.878 1.14447 17.8281C2.45949 21.7782 6.01184 26.1024 13.7792 29.998C13.9793 30.0984 14.2 30.1506 14.4238 30.1506C14.6476 30.1506 14.8683 30.0984 15.0683 29.998C22.9287 26.0558 26.5002 21.8152 27.8339 17.9102C29.1676 14.0051 28.1967 10.6027 27.7382 8.78125C27.6599 8.4708 27.4802 8.19538 27.2276 7.99866C26.9749 7.80194 26.6639 7.69518 26.3437 7.69531H2.74799V7.69531Z" fill="#F1EAE4"/>
<path fill-rule="evenodd" clip-rule="evenodd" d="M26.3434 9.13229C27.2829 12.8651 29.7249 21.0394 14.4245 28.7131C-0.669288 21.1431 1.63503 12.572 2.74869 9.13229C12.3222 9.13229 15.3277 9.13229 26.3434 9.13229Z" fill="#327AE6"/>
</g>
<defs>
<clipPath id="clip0">
<path d="M0 0H29V30H0V0Z" fill="white"/>
</clipPath>
</defs>
</svg>
