<svg width="64" height="64" fill="none" version="1.1" viewBox="0 0 64 64" xmlns="http://www.w3.org/2000/svg">
 <path d="m36.482 11.419v11h2.3872" stroke="#67bf4c" stroke-linecap="round"/>
 <path d="m36.044 11.402c-0.6574-3.8e-4 -1.1908 0.62562-1.1914 1.3984 4e-4 0.28575 0.0757 0.56452 0.2148 0.79883-0.0463-6e-3 -0.092-9e-3 -0.1387-0.01-0.7307-3.8e-4 -1.3236 0.69556-1.3242 1.5547 0 0.4047 0.1333 0.7936 0.3731 1.084-0.8684 8e-4 -1.5725 0.8288-1.5723 1.8496-2e-4 1.0216 0.7052 1.8499 1.5742 1.8496 0.7218-1e-3 2.4391-0.0115 2.4824-0.0117h0.0312c0.0433 3e-4 1.7606 0.0107 2.4825 0.0117 0.869 3e-4 1.5744-0.828 1.5742-1.8496 2e-4 -1.0208-0.7039-1.8487-1.5723-1.8496 0.2398-0.2904 0.3731-0.6792 0.3731-1.0839-6e-4 -0.8591-0.5935-1.5551-1.3243-1.5547-0.0466 1e-3 -0.0924 4e-3 -0.1386 0.01 0.1391-0.23431 0.2144-0.51308 0.2148-0.79883-6e-4 -0.77281-0.534-1.3988-1.1914-1.3984-0.6339 6.8e-4 -0.4463 0.01459-0.4336 0.01559 0.0127-1e-3 0.2003-0.01489-0.4336-0.01559z" stroke="#67bf4c" stroke-linejoin="round"/>
 <path d="m36.482 11.419 0.1722 8.497s2.0818 0.0647 2.3232 0c0.2413-0.0647 1.732-1 1.732-1s0.2157-1.3286 0-1.5442c-0.2156-0.2157-0.8332-0.7759-0.9117-0.9117-0.0785-0.1359-0.621-0.1052-0.5622-0.3247 0.0588-0.2194 0-1.2194 0-1.2194s-0.45-0.7793-0.5774-0.99998c-0.1274-0.22069-0.5773-1-0.5773-1s-0.1421-1.2948-0.3628-1.3539c-0.2206-0.0591-0.7406-0.19846-0.7406-0.19846l-0.5 0.05429" fill="#67bf4c"/>
 <path d="m58.51 51.388v11h2.3872" stroke="#67bf4c" stroke-linecap="round"/>
 <path d="m58.072 51.372c-0.6574-3.8e-4 -1.1908 0.62562-1.1914 1.3984 4e-4 0.28575 0.0757 0.56452 0.2148 0.79883-0.0463-6e-3 -0.092-9e-3 -0.1387-0.01-0.7307-3.8e-4 -1.3236 0.69556-1.3242 1.5547 0 0.4047 0.1333 0.7936 0.3731 1.084-0.8684 8e-4 -1.5725 0.8288-1.5723 1.8496-2e-4 1.0216 0.7052 1.8499 1.5742 1.8496 0.7218-1e-3 2.4391-0.0115 2.4824-0.0117h0.0312c0.0433 3e-4 1.7606 0.0107 2.4825 0.0117 0.869 3e-4 1.5744-0.828 1.5742-1.8496 2e-4 -1.0208-0.7039-1.8487-1.5723-1.8496 0.2398-0.2904 0.3731-0.6792 0.3731-1.0839-6e-4 -0.8591-0.5935-1.5551-1.3243-1.5547-0.0466 1e-3 -0.0924 4e-3 -0.1386 0.01 0.1391-0.23431 0.2144-0.51308 0.2148-0.79883-6e-4 -0.77281-0.534-1.3988-1.1914-1.3984-0.6339 6.8e-4 -0.4463 0.01459-0.4336 0.01559 0.0127-1e-3 0.2003-0.01489-0.4336-0.01559z" stroke="#67bf4c" stroke-linejoin="round"/>
 <path d="m58.51 51.388 0.1722 8.497s2.0818 0.0647 2.3232 0c0.2413-0.0647 1.732-1 1.732-1s0.2157-1.3286 0-1.5442c-0.2156-0.2157-0.8332-0.7759-0.9117-0.9117-0.0785-0.1359-0.621-0.1052-0.5622-0.3247 0.0588-0.2194 0-1.2194 0-1.2194s-0.45-0.7793-0.5774-0.99998c-0.1274-0.22069-0.5773-1-0.5773-1s-0.1421-1.2948-0.3628-1.3539c-0.2206-0.0591-0.7406-0.19846-0.7406-0.19846l-0.5 0.05429" fill="#67bf4c"/>
 <path d="m15.519 32.228v11h2.3872" stroke="#67bf4c" stroke-linecap="round"/>
 <path d="m15.08 32.212c-0.6574-4e-4 -1.1908 0.6256-1.1914 1.3984 4e-4 0.2858 0.0757 0.5645 0.2148 0.7989-0.0463-6e-3 -0.0919-0.0091-0.1386-0.0101-0.7308-3e-4 -1.3237 0.6956-1.3242 1.5547-1e-4 0.4048 0.1332 0.7936 0.373 1.084-0.8683 8e-4 -1.5725 0.8288-1.5723 1.8496-2.3e-4 1.0216 0.70527 1.8499 1.5743 1.8496 0.7218-1e-3 2.439-0.0114 2.4824-0.0116h0.0312c0.0433 2e-4 1.7606 0.0106 2.4824 0.0116 0.869 3e-4 1.5744-0.828 1.5742-1.8496 2e-4 -1.0208-0.7039-1.8487-1.5722-1.8495 0.2397-0.2905 0.3731-0.6793 0.373-1.084-6e-4 -0.8591-0.5935-1.5551-1.3242-1.5547-0.0466 1e-3 -0.0924 4e-3 -0.1387 0.01 0.1391-0.2343 0.2145-0.5131 0.2149-0.7988-6e-4 -0.7728-0.5341-1.3989-1.1915-1.3985-0.6339 7e-4 -0.4463 0.0146-0.4335 0.0156 0.0127-1e-3 0.2003-0.0149-0.4336-0.0156z" stroke="#67bf4c" stroke-linejoin="round"/>
 <path d="m15.519 32.228 0.1722 8.497s2.0819 0.0647 2.3232 0 1.732-1 1.732-1 0.2157-1.3286 0-1.5442c-0.2156-0.2157-0.8332-0.7759-0.9117-0.9118s-0.621-0.1051-0.5622-0.3245c0.0588-0.2195 0-1.2195 0-1.2195s-0.4499-0.7793-0.5773-1c-0.1275-0.2207-0.5774-1-0.5774-1s-0.1421-1.2948-0.3628-1.3539c-0.2206-0.0591-0.7406-0.1984-0.7406-0.1984l-0.5 0.0543" fill="#67bf4c"/>
</svg>
