<?xml version="1.0" encoding="UTF-8"?>
<svg xmlns="http://www.w3.org/2000/svg" xmlns:xlink="http://www.w3.org/1999/xlink" width="12" height="12" viewBox="0 0 12 12">
<defs>
<filter id="filter-remove-color" x="0%" y="0%" width="100%" height="100%">
<feColorMatrix color-interpolation-filters="sRGB" values="0 0 0 0 1 0 0 0 0 1 0 0 0 0 1 0 0 0 1 0" />
</filter>
<mask id="mask-0">
<g filter="url(#filter-remove-color)">
<rect x="-1.2" y="-1.2" width="14.4" height="14.4" fill="rgb(0%, 0%, 0%)" fill-opacity="0.849"/>
</g>
</mask>
<clipPath id="clip-0">
<rect x="0" y="0" width="12" height="12"/>
</clipPath>
<g id="source-6" clip-path="url(#clip-0)">
<path fill-rule="evenodd" fill="rgb(0%, 0%, 0%)" fill-opacity="1" d="M 10 6 C 10 3.78125 8.207031 2 6 2 C 3.792969 2 2 3.78125 2 6 C 2 8.203125 3.792969 10 6 10 C 8.207031 10 10 8.203125 10 6 Z M 10.5 6 C 10.5 3.503906 8.480469 1.5 6 1.5 C 3.519531 1.5 1.5 3.503906 1.5 6 C 1.5 8.480469 3.519531 10.5 6 10.5 C 8.480469 10.5 10.5 8.480469 10.5 6 Z M 10.5 6 "/>
</g>
<mask id="mask-1">
<g filter="url(#filter-remove-color)">
<rect x="-1.2" y="-1.2" width="14.4" height="14.4" fill="rgb(0%, 0%, 0%)" fill-opacity="0.849"/>
</g>
</mask>
<clipPath id="clip-1">
<rect x="0" y="0" width="12" height="12"/>
</clipPath>
<g id="source-10" clip-path="url(#clip-1)">
<path fill-rule="nonzero" fill="rgb(100%, 100%, 100%)" fill-opacity="1" d="M 6 2 C 8.207031 2 10 3.78125 10 6 C 10 8.203125 8.207031 10 6 10 C 3.792969 10 2 8.203125 2 6 C 2 3.78125 3.792969 2 6 2 Z M 6 2 "/>
</g>
</defs>
<g mask="url(#mask-0)">
<use xlink:href="#source-6"/>
</g>
<g mask="url(#mask-1)">
<use xlink:href="#source-10"/>
</g>
</svg>
