<svg width="64" height="64" viewBox="0 0 64 64" fill="none" xmlns="http://www.w3.org/2000/svg">
<g clip-path="url(#clip0)">
<path opacity="0.411067" d="M64 0H0V64H64V0Z" fill="#9DDD87"/>
<path d="M28 23H19V24H28V23Z" fill="#2F91EA"/>
<path d="M46 13H32V14H46V13Z" fill="#2F91EA"/>
<path d="M16.5 61H1.5V62H16.5V61Z" fill="#2F91EA"/>
<path d="M31 1H16V2H31V1Z" fill="#2F91EA"/>
<path d="M30 43H24V44H30V43Z" fill="#2F91EA"/>
<path d="M9 27H0V28H9V27Z" fill="#2F91EA"/>
<path d="M64 27H59V28H64V27Z" fill="#2F91EA"/>
<path d="M26 33H12V34H26V33Z" fill="#2F91EA"/>
<path d="M61.9843 41H50V42H61.9843V41Z" fill="#2F91EA"/>
<path d="M43 47H25V48H43V47Z" fill="#2F91EA"/>
<path d="M64 48H63V49H64V48Z" fill="#2F91EA"/>
<path d="M55 4H40V5H55V4Z" fill="#2F91EA"/>
<path d="M46 62H36V63H46V62Z" fill="#2F91EA"/>
<path d="M56 16H48V17H56V16Z" fill="#2F91EA"/>
<path d="M40 51H32V52H40V51Z" fill="#2F91EA"/>
<path d="M12 38H2V39H12V38Z" fill="#2F91EA"/>
<path d="M62.2542 9H52.2542V10H62.2542V9Z" fill="#2F91EA"/>
<path d="M60.4943 30.6967H52.4943V31.6967H60.4943V30.6967Z" fill="#2F91EA"/>
<path d="M2.60168 48H0V49H2.60168V48Z" fill="#2F91EA"/>
<path d="M34 57H29V58H34V57Z" fill="#2F91EA"/>
<path d="M27 59H22V60H27V59Z" fill="#2F91EA"/>
<path d="M46.9982 39H39.0018V40H46.9982V39Z" fill="#2F91EA"/>
<path d="M26.0225 7.98889H20.9775V8.98889H26.0225V7.98889Z" fill="#2F91EA"/>
<path opacity="0.826087" d="M22.3036 48.8537C22.3036 51.056 21.4288 53.168 19.8716 54.7253C18.3143 56.2825 16.2023 57.1573 14 57.1573C11.7977 57.1573 9.68567 56.2825 8.12843 54.7253C6.57119 53.168 5.69635 51.056 5.69635 48.8537C5.69635 46.6514 6.57119 44.5394 8.12843 42.9821C9.68567 41.4249 11.7977 40.55 14 40.55C16.2023 40.55 18.3143 41.4249 19.8716 42.9821C21.4288 44.5394 22.3036 46.6514 22.3036 48.8537V48.8537Z" stroke="#2F91EA" stroke-width="1.1" stroke-linecap="round" stroke-dasharray="1.1 2.2"/>
<path d="M9.45248 48.6597L10.0008 50.3137" stroke="#2F91EA" stroke-linecap="round"/>
<path d="M13.9561 46.4237L13.9742 50.2738" stroke="#2F91EA" stroke-linecap="round"/>
<path d="M11.6034 47.395L12.1186 50.1048" stroke="#2F91EA" stroke-linecap="round"/>
<path d="M18.5472 48.6597L17.9989 50.3137" stroke="#2F91EA" stroke-linecap="round"/>
<path d="M16.3964 47.395L15.8812 50.1048" stroke="#2F91EA" stroke-linecap="round"/>
<path opacity="0.826087" d="M45.3512 28.9299C45.3512 31.1321 44.4763 33.2442 42.9191 34.8014C41.3618 36.3587 39.2498 37.2335 37.0475 37.2335C34.8452 37.2335 32.7332 36.3587 31.1759 34.8014C29.6187 33.2442 28.7439 31.1321 28.7439 28.9299C28.7439 26.7276 29.6187 24.6155 31.1759 23.0583C32.7332 21.5011 34.8452 20.6262 37.0475 20.6262C39.2498 20.6262 41.3618 21.5011 42.9191 23.0583C44.4763 24.6155 45.3512 26.7276 45.3512 28.9299V28.9299Z" stroke="#2F91EA" stroke-width="1.1" stroke-linecap="round" stroke-dasharray="1.1 2.2"/>
<path d="M32.5 28.736L33.0483 30.3899" stroke="#2F91EA" stroke-linecap="round"/>
<path d="M37.0036 26.5L37.0217 30.3501" stroke="#2F91EA" stroke-linecap="round"/>
<path d="M34.6509 27.4714L35.166 30.1813" stroke="#2F91EA" stroke-linecap="round"/>
<path d="M41.5947 28.736L41.0464 30.3899" stroke="#2F91EA" stroke-linecap="round"/>
<path d="M39.4438 27.4714L38.9286 30.1813" stroke="#2F91EA" stroke-linecap="round"/>
<path opacity="0.826087" d="M18.25 15.3388C18.25 17.5411 17.3752 19.6531 15.8179 21.2104C14.2607 22.7676 12.1486 23.6424 9.94638 23.6424C7.74411 23.6424 5.63205 22.7676 4.07481 21.2104C2.51757 19.6531 1.64273 17.5411 1.64273 15.3388C1.64273 13.1365 2.51757 11.0245 4.07481 9.46724C5.63205 7.91 7.74411 7.03516 9.94638 7.03516C12.1486 7.03516 14.2607 7.91 15.8179 9.46724C17.3752 11.0245 18.25 13.1365 18.25 15.3388V15.3388Z" stroke="#2F91EA" stroke-width="1.1" stroke-linecap="round" stroke-dasharray="1.1 2.2"/>
<path d="M5.39886 15.1449L5.94714 16.7989" stroke="#2F91EA" stroke-linecap="round"/>
<path d="M9.9025 12.9089L9.92059 16.7591" stroke="#2F91EA" stroke-linecap="round"/>
<path d="M7.54974 13.8804L8.06494 16.5902" stroke="#2F91EA" stroke-linecap="round"/>
<path d="M14.4936 15.1449L13.9453 16.7989" stroke="#2F91EA" stroke-linecap="round"/>
<path d="M12.3427 13.8804L11.8275 16.5902" stroke="#2F91EA" stroke-linecap="round"/>
<path opacity="0.826087" d="M63.3512 54.9299C63.3512 57.1321 62.4763 59.2442 60.9191 60.8014C59.3618 62.3587 57.2498 63.2335 55.0475 63.2335C52.8452 63.2335 50.7332 62.3587 49.1759 60.8014C47.6187 59.2442 46.7439 57.1321 46.7439 54.9299C46.7439 52.7276 47.6187 50.6155 49.1759 49.0583C50.7332 47.5011 52.8452 46.6262 55.0475 46.6262C57.2498 46.6262 59.3618 47.5011 60.9191 49.0583C62.4763 50.6155 63.3512 52.7276 63.3512 54.9299V54.9299Z" stroke="#2F91EA" stroke-width="1.1" stroke-linecap="round" stroke-dasharray="1.1 2.2"/>
<path d="M50.5 54.736L51.0483 56.39" stroke="#2F91EA" stroke-linecap="round"/>
<path d="M55.0036 52.5L55.0217 56.3501" stroke="#2F91EA" stroke-linecap="round"/>
<path d="M52.6508 53.4714L53.166 56.1812" stroke="#2F91EA" stroke-linecap="round"/>
<path d="M59.5947 54.736L59.0464 56.39" stroke="#2F91EA" stroke-linecap="round"/>
<path d="M57.4438 53.4714L56.9286 56.1812" stroke="#2F91EA" stroke-linecap="round"/>
</g>
<defs>
<clipPath id="clip0">
<path d="M0 0H64V64H0V0Z" fill="white"/>
</clipPath>
</defs>
</svg>
