<svg width="16" height="16" viewBox="0 0 16 16" fill="none" xmlns="http://www.w3.org/2000/svg">
<path opacity="0.8" fill-rule="evenodd" clip-rule="evenodd" d="M6.07288 2.67748C6.22563 2.29961 6.59243 2.05225 7 2.05225H10C10.3371 2.05225 10.6515 2.2221 10.8363 2.50404C11.0212 2.78599 11.0515 3.14207 10.917 3.45119L10.0256 5.5H11C11.381 5.5 11.7288 5.71647 11.8971 6.05825C12.0654 6.40003 12.0249 6.80775 11.7926 7.10971L6.79263 13.6097C6.48821 14.0055 5.93853 14.116 5.50477 13.8688C5.07101 13.6215 4.8861 13.0922 5.07153 12.6286L6.52297 9H5C4.66754 9 4.35681 8.83477 4.17092 8.55912C3.98503 8.28348 3.94829 7.93347 4.07288 7.62524L6.07288 2.67748Z" fill="#EBE7E4"/>
</svg>
