<svg width="16" height="16" viewBox="0 0 16 16" fill="none" xmlns="http://www.w3.org/2000/svg">
<path fill-rule="evenodd" clip-rule="evenodd" d="M8.00029 2.44464C6.0875 2.44464 4.73455 3.49197 4.12112 4.56588C3.53318 5.59517 3.51338 6.61512 3.51338 6.61512L3.52677 6.46444C3.51573 6.53028 3.51013 6.59691 3.51003 6.66367V10.146H3.12831C2.96868 10.146 2.8106 10.1774 2.66311 10.2385C2.51562 10.2995 2.38161 10.3891 2.26873 10.502C2.15586 10.6148 2.06633 10.7488 2.00526 10.8963C1.94419 11.0438 1.91278 11.2019 1.91283 11.3615V12.289C1.91278 12.4487 1.94419 12.6068 2.00526 12.7542C2.06633 12.9017 2.15586 13.0357 2.26873 13.1486C2.38161 13.2615 2.51562 13.351 2.66311 13.4121C2.8106 13.4732 2.96868 13.5046 3.12831 13.5045H5.65303C5.81266 13.5046 5.97074 13.4732 6.11823 13.4121C6.26572 13.351 6.39973 13.2615 6.51261 13.1486C6.62548 13.0357 6.71501 12.9017 6.77608 12.7542C6.83715 12.6068 6.86856 12.4487 6.86851 12.289V6.74403C6.86903 6.73893 6.894 6.4802 7.03594 6.23172C7.21569 5.91702 7.13319 5.80312 8.00029 5.80312C8.43682 5.80312 8.60169 5.88265 8.68002 5.93204C8.75834 5.98143 8.8007 6.02935 8.88093 6.1815C9.00017 6.40763 9.01989 6.67874 9.01989 6.67874V12.289C9.01984 12.4487 9.05125 12.6068 9.11232 12.7542C9.17339 12.9017 9.26292 13.0357 9.37579 13.1486C9.48867 13.2615 9.62268 13.351 9.77017 13.4121C9.91766 13.4732 10.0757 13.5046 10.2354 13.5045H12.8756C13.0352 13.5046 13.1933 13.4732 13.3408 13.4121C13.4883 13.351 13.6223 13.2615 13.7352 13.1486C13.8481 13.0357 13.9376 12.9017 13.9987 12.7542C14.0597 12.6068 14.0911 12.4487 14.0911 12.289V11.3615C14.0911 11.2019 14.0597 11.0438 13.9987 10.8963C13.9376 10.7488 13.8481 10.6148 13.7352 10.502C13.6223 10.3891 13.4883 10.2995 13.3408 10.2385C13.1933 10.1774 13.0352 10.146 12.8756 10.146H12.38V6.68711C12.382 6.52679 12.4045 5.66102 11.8527 4.61443C11.2699 3.50926 9.91699 2.44464 8.00029 2.44464Z" fill="white"/>
</svg>
