<svg width="33" height="25" viewBox="0 0 33 25" fill="none" xmlns="http://www.w3.org/2000/svg">
<path opacity="0.711" fill-rule="evenodd" clip-rule="evenodd" d="M5.0625 3.88867C4.79035 3.88872 4.5242 3.96872 4.29712 4.11872C4.07003 4.26872 3.89201 4.48212 3.78516 4.73242L0.710938 11.9551C0.63747 12.1274 0.599598 12.3127 0.599598 12.5C0.599598 12.6873 0.63747 12.8726 0.710938 13.0449L3.78516 20.2676C3.89201 20.5179 4.07003 20.7313 4.29712 20.8813C4.5242 21.0313 4.79035 21.1113 5.0625 21.1113H27.9375C28.2097 21.1113 28.4758 21.0313 28.7029 20.8813C28.93 20.7313 29.108 20.5179 29.2148 20.2676L32.2891 13.0449C32.3625 12.8726 32.4004 12.6873 32.4004 12.5C32.4004 12.3127 32.3625 12.1274 32.2891 11.9551L29.2148 4.73242C29.108 4.48212 28.93 4.26872 28.7029 4.11872C28.4758 3.96872 28.2097 3.88872 27.9375 3.88867H5.0625V3.88867Z" fill="#515151"/>
<path fill-rule="evenodd" clip-rule="evenodd" d="M5.06298 19.7235H27.9366L31.0113 12.5001L27.9366 5.27679H5.06298L1.98832 12.5001L5.06298 19.7235" fill="white"/>
</svg>
