<svg width="61" height="25" viewBox="0 0 61 25" fill="none" xmlns="http://www.w3.org/2000/svg">
<g clip-path="url(#clip0)">
<path fill-rule="evenodd" clip-rule="evenodd" d="M2 4H59C60.1046 4 61 4.89543 61 6V19C61 20.1046 60.1046 21 59 21H2C0.89543 21 0 20.1046 0 19V6C0 4.89543 0.895431 4 2 4Z" fill="#BBAD71" fill-opacity="0.8"/>
<path d="M1 6C1 5.44772 1.44772 5 2 5H59C59.5523 5 60 5.44772 60 6V19C60 19.5523 59.5523 20 59 20H2C1.44772 20 1 19.5523 1 19V6Z" fill="#FFE237"/>
</g>
<defs>
<clipPath id="clip0">
<path d="M0 0H61V25H0V0Z" fill="white"/>
</clipPath>
</defs>
</svg>
