<svg width="16" height="16" fill="none" version="1.1" viewBox="0 0 16 16" xmlns="http://www.w3.org/2000/svg">
 <path transform="matrix(.8 0 0 .8 1.6 1.4666)" d="m14.637 1.6504a1.0154 1.0154 0 0 0-0.58008 0.20312l-5.0605 3.7969h-7.6621a1.0154 1.0154 0 0 0-1.0156 1.0156v5.334a1.0154 1.0154 0 0 0 1.0156 1.0156h1.332a1.0154 1.0154 0 0 0 1.0156-1.0156v-1.6504h6.3184a1.0154 1.0154 0 0 0 0.63477-0.22266l1.6836-1.3477v3.2207a1.0154 1.0154 0 0 0 1.0156 1.0156h1.332a1.0154 1.0154 0 0 0 1.0156-1.0156v-9.334a1.0154 1.0154 0 0 0-1.0449-1.0156z" fill="#ebe7e4" opacity=".8" stroke-width="1.25"/>
</svg>
