<?xml version="1.0" encoding="UTF-8"?>
<svg xmlns="http://www.w3.org/2000/svg" xmlns:xlink="http://www.w3.org/1999/xlink" width="12" height="12" viewBox="0 0 12 12">
<defs>
<filter id="filter-remove-color" x="0%" y="0%" width="100%" height="100%">
<feColorMatrix color-interpolation-filters="sRGB" values="0 0 0 0 1 0 0 0 0 1 0 0 0 0 1 0 0 0 1 0" />
</filter>
<mask id="mask-0">
<g filter="url(#filter-remove-color)">
<rect x="-1.2" y="-1.2" width="14.4" height="14.4" fill="rgb(0%, 0%, 0%)" fill-opacity="0.801"/>
</g>
</mask>
<clipPath id="clip-0">
<rect x="0" y="0" width="12" height="12"/>
</clipPath>
<g id="source-6" clip-path="url(#clip-0)">
<path fill-rule="nonzero" fill="rgb(92.156863%, 90.588235%, 89.411765%)" fill-opacity="1" d="M 8.355469 0.894531 C 8.101562 0.898438 7.890625 1.039062 7.757812 1.222656 C 7.671875 1.339844 7.625 1.480469 7.609375 1.625 C 7.398438 1.601562 7.179688 1.628906 7.015625 1.804688 C 6.875 1.9375 6.804688 2.121094 6.78125 2.3125 C 6.539062 2.359375 6.371094 2.53125 6.265625 2.742188 C 6.089844 2.703125 5.910156 2.703125 5.730469 2.742188 C 5.617188 2.535156 5.449219 2.367188 5.21875 2.316406 C 5.167969 1.929688 4.867188 1.582031 4.445312 1.59375 C 4.414062 1.59375 4.398438 1.601562 4.371094 1.605469 C 4.308594 1.148438 3.863281 0.785156 3.390625 0.925781 C 2.894531 1.058594 2.601562 1.476562 2.347656 1.78125 C 2.34375 1.78125 2.34375 1.785156 2.339844 1.789062 C 1.390625 3.023438 1.464844 4.90625 2.527344 6.054688 C 2.527344 6.054688 2.527344 6.054688 2.527344 6.058594 C 2.871094 6.453125 3.320312 6.84375 3.902344 6.941406 C 3.914062 6.941406 3.925781 6.941406 3.941406 6.941406 C 4.378906 6.925781 4.679688 6.542969 4.695312 6.128906 C 4.738281 6.128906 4.777344 6.136719 4.820312 6.128906 C 4.539062 7.398438 4.070312 8.628906 3.332031 9.6875 C 3.332031 9.691406 3.328125 9.691406 3.328125 9.695312 C 3.148438 9.972656 3.054688 10.378906 3.277344 10.710938 C 3.574219 11.171875 4.285156 11.261719 4.652344 10.824219 C 4.914062 10.550781 5.082031 10.230469 5.253906 9.9375 C 5.425781 9.644531 5.601562 9.382812 5.851562 9.203125 C 5.859375 9.199219 5.863281 9.191406 5.871094 9.1875 C 5.914062 9.144531 5.957031 9.109375 6 9.070312 C 6.371094 9.394531 6.703125 9.753906 6.90625 10.179688 C 6.90625 10.183594 6.910156 10.183594 6.910156 10.1875 C 7.09375 10.53125 7.351562 10.945312 7.816406 11.082031 C 7.820312 11.082031 7.820312 11.082031 7.824219 11.082031 C 8.410156 11.234375 8.949219 10.675781 8.851562 10.097656 C 8.804688 9.796875 8.605469 9.609375 8.523438 9.457031 C 8.519531 9.449219 8.515625 9.445312 8.511719 9.441406 C 8.277344 9.082031 8.0625 8.71875 7.910156 8.332031 C 7.90625 8.328125 7.90625 8.328125 7.90625 8.324219 C 7.589844 7.625 7.367188 6.886719 7.199219 6.132812 C 7.230469 6.140625 7.261719 6.132812 7.292969 6.136719 C 7.3125 6.566406 7.648438 6.964844 8.113281 6.929688 C 8.613281 6.90625 8.945312 6.542969 9.226562 6.304688 C 9.230469 6.304688 9.230469 6.300781 9.234375 6.300781 C 10.160156 5.429688 10.566406 4.03125 10.167969 2.804688 C 9.925781 2.042969 9.429688 1.308594 8.667969 0.945312 C 8.660156 0.941406 8.652344 0.941406 8.648438 0.9375 C 8.558594 0.90625 8.457031 0.890625 8.355469 0.894531 Z M 8.355469 0.894531 "/>
</g>
</defs>
<g mask="url(#mask-0)">
<use xlink:href="#source-6"/>
</g>
</svg>
