<svg width="43" height="27" viewBox="0 0 43 27" fill="none" xmlns="http://www.w3.org/2000/svg">
<path opacity="0.837" fill-rule="evenodd" clip-rule="evenodd" d="M3.18455 5.37268C1.62247 5.37268 0.111633 6.35665 0.111633 7.75354V19.3453C0.111633 20.0888 0.683248 20.768 1.21731 21.0973C1.75137 21.4266 2.2552 21.5628 2.69394 21.6676L21.0094 26.0426C21.3297 26.1191 21.6703 26.1191 21.9906 26.0426L40.3061 21.6676C40.7393 21.5641 41.2407 21.4279 41.7731 21.1012C42.3055 20.7745 42.8884 20.1004 42.8884 19.3453V7.75354C42.8884 6.35664 41.3775 5.37268 39.8154 5.37268H3.18455V5.37268Z" fill="#F1EAE4"/>
<path fill-rule="evenodd" clip-rule="evenodd" d="M2.88406 6.79816H40.1159C40.8617 6.79816 41.4621 7.22406 41.4621 7.7531V19.3461C41.4621 19.8751 40.7831 20.1443 40.1159 20.301L21.5 24.676L2.88406 20.301C2.20069 20.1404 1.53793 19.8751 1.53793 19.3461V7.7531C1.53793 7.22406 2.13831 6.79816 2.88406 6.79816Z" fill="#327AE6"/>
</svg>
