<?xml version="1.0" encoding="UTF-8"?>
<svg xmlns="http://www.w3.org/2000/svg" xmlns:xlink="http://www.w3.org/1999/xlink" width="12" height="12" viewBox="0 0 12 12">
<defs>
<filter id="filter-remove-color" x="0%" y="0%" width="100%" height="100%">
<feColorMatrix color-interpolation-filters="sRGB" values="0 0 0 0 1 0 0 0 0 1 0 0 0 0 1 0 0 0 1 0" />
</filter>
<mask id="mask-0">
<g filter="url(#filter-remove-color)">
<rect x="-1.2" y="-1.2" width="14.4" height="14.4" fill="rgb(0%, 0%, 0%)" fill-opacity="0.804"/>
</g>
</mask>
<clipPath id="clip-0">
<rect x="0" y="0" width="12" height="12"/>
</clipPath>
<g id="source-7" clip-path="url(#clip-0)">
<path fill-rule="evenodd" fill="rgb(92.156863%, 90.588235%, 89.411765%)" fill-opacity="1" d="M 7.097656 2.765625 C 6.953125 2.773438 6.816406 2.828125 6.707031 2.925781 C 6.566406 2.832031 6.398438 2.800781 6.234375 2.832031 C 6.070312 2.867188 5.925781 2.960938 5.832031 3.101562 C 5.746094 3.070312 5.65625 3.058594 5.566406 3.066406 C 5.476562 3.074219 5.386719 3.101562 5.308594 3.148438 L 5.457031 3.0625 L 4.726562 2.957031 C 4.589844 2.9375 4.449219 2.960938 4.328125 3.027344 C 4.207031 3.097656 4.109375 3.203125 4.054688 3.328125 L 3.933594 3.609375 L 3.253906 3.636719 C 3.125 3.644531 3 3.6875 2.898438 3.765625 C 2.792969 3.84375 2.71875 3.953125 2.675781 4.074219 L 2.511719 4.582031 L 1.925781 4.835938 C 1.84375 4.871094 1.769531 4.921875 1.707031 4.988281 C 1.648438 5.054688 1.601562 5.136719 1.574219 5.222656 L 1.386719 5.796875 L 0.710938 6.273438 C 0.640625 6.320312 0.578125 6.386719 0.535156 6.460938 C 0.488281 6.53125 0.460938 6.613281 0.445312 6.699219 L 0.355469 7.339844 L 0.214844 7.460938 C 0.132812 7.53125 0.0703125 7.625 0.0351562 7.730469 C 0 7.832031 -0.0078125 7.941406 0.0117188 8.050781 L 0.136719 8.738281 C 0.164062 8.882812 0.238281 9.015625 0.355469 9.109375 C 0.46875 9.203125 0.609375 9.257812 0.757812 9.257812 L 5.621094 9.257812 C 5.753906 9.257812 5.882812 9.214844 5.988281 9.136719 C 6.097656 9.214844 6.226562 9.257812 6.359375 9.257812 L 11.347656 9.257812 C 11.441406 9.257812 11.53125 9.234375 11.617188 9.195312 C 11.699219 9.15625 11.773438 9.097656 11.835938 9.027344 C 11.894531 8.957031 11.9375 8.871094 11.960938 8.78125 C 11.984375 8.691406 11.988281 8.597656 11.96875 8.507812 L 11.625 6.675781 C 11.605469 6.585938 11.570312 6.503906 11.519531 6.429688 C 11.46875 6.355469 11.402344 6.292969 11.328125 6.25 C 11.25 6.203125 11.164062 6.171875 11.074219 6.164062 C 10.988281 6.152344 10.898438 6.160156 10.8125 6.1875 L 10.640625 5.769531 C 10.585938 5.640625 10.492188 5.535156 10.371094 5.464844 L 10.152344 5.335938 L 10.199219 5.15625 C 10.222656 5.054688 10.222656 4.953125 10.199219 4.855469 C 10.175781 4.757812 10.128906 4.664062 10.0625 4.589844 L 9.460938 3.898438 C 9.382812 3.808594 9.28125 3.746094 9.167969 3.710938 L 8.570312 3.527344 C 8.441406 3.488281 8.308594 3.488281 8.183594 3.53125 L 8.105469 3.457031 C 8.101562 3.449219 8.097656 3.445312 8.09375 3.441406 L 7.558594 2.9375 C 7.496094 2.878906 7.425781 2.835938 7.34375 2.804688 C 7.265625 2.777344 7.179688 2.761719 7.097656 2.765625 Z M 7.097656 2.765625 "/>
</g>
</defs>
<g mask="url(#mask-0)">
<use xlink:href="#source-7"/>
</g>
</svg>
