<?xml version="1.0" encoding="UTF-8"?>
<svg xmlns="http://www.w3.org/2000/svg" xmlns:xlink="http://www.w3.org/1999/xlink" width="12" height="12" viewBox="0 0 12 12">
<defs>
<filter id="filter-remove-color" x="0%" y="0%" width="100%" height="100%">
<feColorMatrix color-interpolation-filters="sRGB" values="0 0 0 0 1 0 0 0 0 1 0 0 0 0 1 0 0 0 1 0" />
</filter>
<mask id="mask-0">
<g filter="url(#filter-remove-color)">
<rect x="-1.2" y="-1.2" width="14.4" height="14.4" fill="rgb(0%, 0%, 0%)" fill-opacity="0.812"/>
</g>
</mask>
<clipPath id="clip-0">
<rect x="0" y="0" width="12" height="12"/>
</clipPath>
<g id="source-6" clip-path="url(#clip-0)">
<path fill-rule="nonzero" fill="rgb(92.156863%, 90.588235%, 89.411765%)" fill-opacity="1" d="M 9.324219 0.824219 C 9.082031 0.851562 8.855469 1.019531 8.761719 1.246094 L 8.582031 1.667969 L 8.140625 1.707031 C 7.601562 1.742188 7.328125 2.5625 7.738281 2.914062 L 8.101562 3.214844 L 8.082031 3.253906 C 7.523438 2.730469 6.8125 2.320312 6.011719 2.167969 C 5.535156 2.082031 5.320312 2.265625 5.105469 2.546875 C 4.964844 2.554688 5.046875 2.601562 4.867188 2.410156 C 4.699219 2.242188 4.4375 2.167969 4.203125 2.230469 C 2.496094 2.617188 1.171875 4.015625 1.171875 5.746094 C 1.171875 6.019531 1.175781 6.144531 1.171875 6.386719 L 1.171875 8.71875 C 1.167969 8.746094 1.167969 8.769531 1.171875 8.796875 C 1.277344 9.734375 2.082031 10.289062 2.976562 10.625 C 3.152344 10.691406 3.351562 10.6875 3.519531 10.605469 C 3.621094 10.75 3.773438 10.851562 3.941406 10.886719 C 4.335938 10.960938 4.75 10.988281 5.1875 10.988281 C 6.167969 10.988281 7.058594 10.804688 7.777344 10.464844 C 8.5 10.125 9.136719 9.59375 9.226562 8.796875 C 9.226562 8.769531 9.226562 8.746094 9.226562 8.71875 L 9.226562 6.386719 C 9.226562 6.054688 9.226562 5.960938 9.226562 5.746094 C 9.226562 5.285156 9.136719 4.84375 8.964844 4.441406 C 8.976562 4.433594 8.992188 4.425781 9.003906 4.417969 L 9.40625 4.179688 L 9.808594 4.417969 C 10.265625 4.699219 10.957031 4.199219 10.832031 3.675781 L 10.710938 3.214844 L 11.074219 2.914062 C 11.484375 2.5625 11.210938 1.742188 10.671875 1.707031 L 10.230469 1.667969 L 10.046875 1.246094 C 9.9375 0.96875 9.625 0.785156 9.324219 0.824219 Z M 9.324219 0.824219 "/>
</g>
</defs>
<g mask="url(#mask-0)">
<use xlink:href="#source-6"/>
</g>
</svg>
