<svg width="40" height="25" viewBox="0 0 40 25" fill="none" xmlns="http://www.w3.org/2000/svg">
<path opacity="0.711" fill-rule="evenodd" clip-rule="evenodd" d="M4.60059 3.82129C4.31509 3.82108 4.03584 3.90484 3.7976 4.06217C3.55936 4.21949 3.37266 4.44341 3.26074 4.70606L0.186523 11.9307C0.110017 12.1111 0.0707534 12.3052 0.071089 12.5012C0.0714246 12.6972 0.111352 12.8911 0.188476 13.0713L3.26269 20.2939C3.37448 20.5563 3.56088 20.78 3.79874 20.9373C4.03659 21.0946 4.31542 21.1785 4.60059 21.1787H35.3994C35.6846 21.1785 35.9634 21.0946 36.2013 20.9373C36.4391 20.78 36.6255 20.5563 36.7373 20.2939L39.8115 13.0713C39.8887 12.8911 39.9286 12.6972 39.9289 12.5012C39.9293 12.3052 39.89 12.1111 39.8135 11.9307L36.7393 4.70606C36.6273 4.44341 36.4406 4.21949 36.2024 4.06217C35.9642 3.90484 35.6849 3.82108 35.3994 3.82129H4.60059Z" fill="#515151"/>
<path fill-rule="evenodd" clip-rule="evenodd" d="M4.60153 19.7239H35.3991L38.4737 12.5005L35.3991 5.27716H4.60153L1.52687 12.5005L4.60153 19.7239" fill="white"/>
</svg>
