<svg width="35" height="27" viewBox="0 0 35 27" fill="none" xmlns="http://www.w3.org/2000/svg">
<path opacity="0.837" fill-rule="evenodd" clip-rule="evenodd" d="M17.5843 3.22073C17.4199 3.22132 17.2564 3.24038 17.099 3.2773L1.21957 6.98479C0.869186 7.06684 0.562142 7.23424 0.343861 7.46222C0.125581 7.6902 0.00765782 7.96665 0.00753784 8.25067V18.749C0.00765769 19.033 0.12558 19.3095 0.343861 19.5375C0.562141 19.7655 0.869186 19.9329 1.21957 20.0149L17.099 23.7224C17.4214 23.7982 17.7654 23.7982 18.0878 23.7224L33.785 20.0149C34.1345 19.9322 34.4406 19.7646 34.658 19.5366C34.8754 19.3087 34.9926 19.0326 34.9925 18.749V8.25067C34.9926 7.9671 34.8754 7.69099 34.658 7.46307C34.4406 7.23514 34.1345 7.06747 33.785 6.98479L18.0878 3.2773C17.9246 3.239 17.7548 3.21993 17.5843 3.22073V3.22073Z" fill="#F1EAE4"/>
<path fill-rule="evenodd" clip-rule="evenodd" d="M1.46231 8.49939L17.5926 4.96735L33.5377 8.49939V18.5016L17.5926 22.0336L1.46231 18.5016L1.46231 8.49939Z" fill="#EEA555"/>
</svg>
