<svg width="32" height="32" viewBox="0 0 32 32" fill="none" xmlns="http://www.w3.org/2000/svg">
<path fill-rule="evenodd" clip-rule="evenodd" d="M14.1727 24.9459C15.0728 25.3485 16.4043 25.6287 16.4043 25.6287L16.7619 26.5663C16.7301 26.5187 14.7541 26.5214 14.4569 26.4618C13.2726 26.2241 12.3684 26.626 12.3684 26.626C12.3684 26.626 12.8463 25.7512 12.9884 25.6801C13.1305 25.6091 14.1727 24.9459 14.1727 24.9459Z" fill="#BDCFA6"/>
<path fill-rule="evenodd" clip-rule="evenodd" d="M13.0316 21.7378L11.6931 21.6454C11.6931 21.6454 11.5797 23.2893 11.5315 24.3456C11.4912 25.2301 10.6129 25.7667 9.91595 26.0304C10.0287 26.0159 10.0939 26.1816 10.1929 26.1689C11.6146 25.9862 11.712 25.8291 11.8777 26.1919C11.9871 26.4318 12.3623 26.6304 12.3623 26.6304C13.0909 25.9683 13.6033 25.8764 14.301 26.3996C14.3943 26.4696 14.4784 26.3883 14.5779 26.3996C14.305 26.0099 14.1425 25.6373 13.5624 25.1995C13.3405 25.032 13.1912 24.7255 13.1009 24.3456C13.0106 23.9656 12.9718 23.5222 12.9624 23.0993C12.9465 22.3862 13.0115 21.9251 13.0316 21.7376L13.0316 21.7378Z" fill="#BDCFA6"/>
<path fill-rule="evenodd" clip-rule="evenodd" d="M13.0316 21.7378C13.0114 21.9253 12.9465 22.3863 12.9624 23.0995C12.9724 23.5224 13.0105 23.9657 13.1009 24.3457C13.1912 24.7257 13.3406 25.0321 13.5625 25.1996C14.1425 25.6374 14.3051 26.0101 14.578 26.3997C14.7938 26.4242 15.0268 26.4382 15.178 26.3766C15.178 26.3766 13.9335 24.7335 13.8856 24.0687C13.8144 23.0819 13.8626 21.807 13.8626 21.807L13.0317 21.7378L13.0316 21.7378Z" fill="#BDCFA6"/>
<path fill-rule="evenodd" clip-rule="evenodd" d="M7.48236 8.53296C8.46339 8.97184 9.47574 9.71609 9.47574 9.71609L10.3045 10.2992C10.2699 10.2473 8.11612 10.2503 7.79218 10.1852C6.5013 9.92619 5.02524 10.3642 5.02524 10.3642C5.02524 10.3642 6.03663 9.41072 6.19153 9.33328C6.34643 9.25588 7.48236 8.53295 7.48236 8.53296V8.53296Z" fill="#BDCFA6"/>
<path fill-rule="evenodd" clip-rule="evenodd" d="M6.24774 4.80362L4.77051 5.17764C4.77051 5.17764 4.65606 6.72746 4.60355 7.87888C4.55965 8.84289 2.8278 9.76335 2.06821 10.0508C2.19106 10.0349 2.70109 10.1639 2.80896 10.1501C4.3585 9.95098 4.41309 9.52157 4.59363 9.91705C4.71297 10.1785 4.83789 10.5757 4.83789 10.5757C5.63198 9.85409 6.86171 9.54735 7.62213 10.1176C7.72383 10.1938 7.8155 10.1053 7.92398 10.1176C7.62656 9.69293 7.44942 9.28674 6.81717 8.80957C6.57529 8.62701 6.41249 8.293 6.31409 7.87885C6.21569 7.46468 6.17342 6.98142 6.16315 6.52048C6.14585 5.7432 6.22575 5.00795 6.24765 4.80359L6.24774 4.80362Z" fill="#BDCFA6"/>
<path fill-rule="evenodd" clip-rule="evenodd" d="M6.23862 4.81732C6.21662 5.02168 6.14582 5.74323 6.16322 6.52051C6.17352 6.98145 6.21573 7.46471 6.31416 7.87888C6.41256 8.29303 6.57536 8.62704 6.81724 8.8096C7.44949 9.28677 7.62663 9.69297 7.92405 10.1176C8.15934 10.1442 8.4133 10.1596 8.57807 10.0926C8.57807 10.0926 7.22168 8.30171 7.16941 7.57709C6.65294 7.01781 6.6796 5.29263 6.6796 5.29263L6.32542 4.81873L6.23862 4.81732Z" fill="#BDCFA6"/>
<path fill-rule="evenodd" clip-rule="evenodd" d="M23.169 11.4494C23.9328 10.9287 23.6465 16.9733 23.6465 16.9733C24.1764 17.1242 24.8084 17.0965 25.5199 16.9295C25.5199 16.9295 25.1259 14.4048 25.2777 13.2145C25.4295 12.0242 27.2214 10.712 27.2425 10.5536C27.2609 10.4156 25.4797 11.674 25.4979 11.5407C25.7374 9.78898 25.9494 8.48278 25.7674 8.6183C25.2059 9.03624 24.6034 13.8858 24.2096 11.55C23.8251 9.26928 23.169 11.4494 23.169 11.4494H23.169Z" fill="#BDCFA6"/>
<path fill-rule="evenodd" clip-rule="evenodd" d="M19.951 14.7599C19.955 14.5245 20.7292 12.5751 20.7292 12.5751L20.424 12.5316L21.4014 9.79669L21.0083 9.87061L22.1308 7.00238L21.7795 7.07428L23.0775 3.95996L22.8475 4.03607C22.8475 4.03607 23.7798 1.82831 24.3951 0.799683C24.7582 1.74503 25.2343 2.92564 25.5981 3.93155C25.6455 4.06264 25.3194 3.80865 25.3664 3.94055C25.4721 4.23638 26.6278 7.02029 26.6278 7.02029L26.3102 6.99011L27.333 9.82858L26.9435 9.72556L28.0284 12.3458L27.6756 12.3595C27.6756 12.3595 28.5308 13.9678 28.6835 14.7065C28.5281 14.8903 28.183 14.7755 27.6875 14.9291C27.46 14.9996 27.391 15.4118 26.9559 15.4281C26.5158 15.4446 24.9085 15.1011 24.4766 15.1277C23.7673 15.1714 23.4751 15.5435 22.8128 15.5107C22.564 15.4984 22.1243 15.0632 21.8933 15.1067C20.4169 15.3849 20.0678 14.9664 19.951 14.7602V14.7599Z" fill="#BDCFA6"/>
</svg>
