<?xml version="1.0" encoding="UTF-8"?>
<svg xmlns="http://www.w3.org/2000/svg" xmlns:xlink="http://www.w3.org/1999/xlink" width="12" height="12" viewBox="0 0 12 12">
<defs>
<filter id="filter-remove-color" x="0%" y="0%" width="100%" height="100%">
<feColorMatrix color-interpolation-filters="sRGB" values="0 0 0 0 1 0 0 0 0 1 0 0 0 0 1 0 0 0 1 0" />
</filter>
<mask id="mask-0">
<g filter="url(#filter-remove-color)">
<rect x="-1.2" y="-1.2" width="14.4" height="14.4" fill="rgb(0%, 0%, 0%)" fill-opacity="0.802"/>
</g>
</mask>
<clipPath id="clip-0">
<rect x="0" y="0" width="12" height="12"/>
</clipPath>
<g id="source-6" clip-path="url(#clip-0)">
<path fill-rule="nonzero" fill="rgb(92.156863%, 90.588235%, 89.411765%)" fill-opacity="1" d="M 6.023438 0.847656 C 3.195312 0.847656 0.894531 3.148438 0.894531 5.976562 C 0.894531 8.804688 3.195312 11.105469 6.023438 11.105469 C 8.851562 11.105469 11.152344 8.804688 11.152344 5.976562 C 11.152344 3.148438 8.851562 0.847656 6.023438 0.847656 Z M 6.710938 2.207031 C 8.527344 2.542969 9.910156 4.054688 9.910156 5.976562 C 9.910156 6.046875 9.875 6.105469 9.871094 6.175781 C 9.789062 5.851562 9.636719 5.492188 9.355469 5.160156 C 9.304688 5.105469 9.242188 5.0625 9.171875 5.039062 C 9.101562 5.019531 9.023438 5.019531 8.953125 5.039062 C 8.371094 5.199219 8.003906 5.546875 7.753906 5.835938 C 7.769531 5.792969 7.78125 5.742188 7.78125 5.695312 L 7.78125 5.152344 C 7.78125 5.050781 7.738281 4.949219 7.664062 4.878906 C 7.59375 4.804688 7.492188 4.761719 7.390625 4.761719 L 6.957031 4.761719 L 6.957031 4.59375 C 7.269531 4.320312 7.5 3.949219 7.5 3.507812 C 7.5 2.945312 7.175781 2.460938 6.710938 2.207031 Z M 5.324219 2.210938 C 4.859375 2.464844 4.527344 2.941406 4.527344 3.507812 C 4.527344 3.949219 4.757812 4.320312 5.070312 4.59375 L 5.070312 4.761719 L 4.636719 4.761719 C 4.535156 4.761719 4.433594 4.804688 4.363281 4.878906 C 4.289062 4.949219 4.246094 5.050781 4.246094 5.152344 L 4.246094 5.695312 C 4.246094 5.734375 4.253906 5.773438 4.265625 5.8125 C 4.011719 5.53125 3.640625 5.207031 3.09375 5.058594 C 3.03125 5.039062 2.96875 5.039062 2.90625 5.054688 C 2.84375 5.066406 2.785156 5.097656 2.734375 5.140625 C 2.378906 5.449219 2.253906 5.882812 2.171875 6.25 C 2.164062 6.15625 2.117188 6.074219 2.117188 5.976562 C 2.117188 4.058594 3.507812 2.546875 5.324219 2.210938 Z M 6.023438 3.355469 C 6.128906 3.355469 6.175781 3.402344 6.175781 3.507812 C 6.175781 3.609375 6.128906 3.65625 6.023438 3.65625 C 5.917969 3.65625 5.851562 3.59375 5.851562 3.507812 C 5.851562 3.417969 5.917969 3.355469 6.023438 3.355469 Z M 7.609375 6.019531 C 7.5625 6.085938 7.445312 6.222656 7.445312 6.222656 C 7.414062 6.273438 7.394531 6.324219 7.382812 6.382812 C 7.375 6.4375 7.382812 6.496094 7.398438 6.550781 C 7.414062 6.605469 7.441406 6.65625 7.480469 6.699219 C 7.519531 6.742188 7.566406 6.773438 7.617188 6.796875 C 7.503906 6.976562 7.414062 7.175781 7.277344 7.320312 C 7.160156 7.441406 7.070312 7.441406 6.957031 7.519531 L 6.957031 6.085938 L 7.390625 6.085938 C 7.46875 6.085938 7.542969 6.0625 7.609375 6.019531 Z M 4.449219 6.035156 C 4.507812 6.070312 4.570312 6.085938 4.636719 6.085938 L 5.070312 6.085938 L 5.070312 7.515625 C 4.960938 7.441406 4.875 7.441406 4.761719 7.320312 C 4.628906 7.179688 4.539062 6.976562 4.425781 6.796875 C 4.480469 6.777344 4.527344 6.742188 4.566406 6.699219 C 4.605469 6.65625 4.632812 6.605469 4.648438 6.550781 C 4.667969 6.496094 4.671875 6.4375 4.660156 6.378906 C 4.652344 6.324219 4.632812 6.269531 4.601562 6.21875 C 4.601562 6.21875 4.488281 6.089844 4.449219 6.035156 Z M 9.347656 7.292969 C 9.355469 7.296875 9.40625 7.332031 9.40625 7.332031 C 9.476562 7.367188 9.558594 7.378906 9.632812 7.367188 C 9.109375 8.761719 7.824219 9.734375 6.269531 9.835938 C 6.3125 9.800781 6.351562 9.753906 6.375 9.703125 C 6.375 9.703125 6.605469 9.324219 6.851562 9.269531 C 7.957031 9.027344 8.855469 8.25 9.347656 7.292969 Z M 2.679688 7.296875 C 3.171875 8.25 4.070312 9.027344 5.175781 9.269531 C 5.421875 9.324219 5.675781 9.710938 5.675781 9.710938 C 5.703125 9.757812 5.734375 9.800781 5.777344 9.835938 C 4.21875 9.734375 2.925781 8.761719 2.394531 7.367188 C 2.472656 7.378906 2.550781 7.367188 2.621094 7.332031 C 2.621094 7.332031 2.671875 7.300781 2.679688 7.296875 Z M 2.679688 7.296875 "/>
</g>
</defs>
<g mask="url(#mask-0)">
<use xlink:href="#source-6"/>
</g>
</svg>
