<?xml version="1.0" encoding="UTF-8"?>
<svg xmlns="http://www.w3.org/2000/svg" xmlns:xlink="http://www.w3.org/1999/xlink" width="12" height="12" viewBox="0 0 12 12">
<path fill-rule="nonzero" fill="rgb(100%, 100%, 100%)" fill-opacity="0.55" d="M 0 3.273438 C 0 1.464844 1.464844 0 3.273438 0 L 8.726562 0 C 10.535156 0 12 1.464844 12 3.273438 L 12 8.726562 C 12 10.535156 10.535156 12 8.726562 12 L 3.273438 12 C 1.464844 12 0 10.535156 0 8.726562 Z M 0 3.273438 "/>
<path fill-rule="nonzero" fill="rgb(79.607843%, 39.607843%, 89.411765%)" fill-opacity="0.84" d="M 0.546875 3.273438 C 0.546875 1.765625 1.765625 0.546875 3.273438 0.546875 L 8.726562 0.546875 C 10.234375 0.546875 11.453125 1.765625 11.453125 3.273438 L 11.453125 8.726562 C 11.453125 10.234375 10.234375 11.453125 8.726562 11.453125 L 3.273438 11.453125 C 1.765625 11.453125 0.546875 10.234375 0.546875 8.726562 Z M 0.546875 3.273438 "/>
</svg>
