<?xml version="1.0" encoding="UTF-8"?>
<svg xmlns="http://www.w3.org/2000/svg" xmlns:xlink="http://www.w3.org/1999/xlink" width="12" height="12" viewBox="0 0 12 12">
<path fill-rule="nonzero" fill="rgb(100%, 100%, 100%)" fill-opacity="1" d="M 6.042969 1.070312 C 5.75 1.066406 5.441406 1.164062 5.191406 1.382812 C 4.933594 1.609375 4.777344 1.957031 4.777344 2.320312 L 4.777344 4.417969 L 1.667969 6.316406 C 1.433594 6.457031 1.285156 6.726562 1.285156 7 L 1.285156 7.933594 C 1.28125 8.1875 1.410156 8.4375 1.613281 8.585938 C 1.820312 8.734375 2.097656 8.777344 2.335938 8.695312 L 4.808594 7.882812 L 4.808594 8.277344 L 4.308594 8.675781 C 4.117188 8.824219 4.003906 9.0625 4.003906 9.304688 L 4.003906 10.042969 C 4.003906 10.292969 4.128906 10.539062 4.328125 10.6875 C 4.53125 10.835938 4.804688 10.882812 5.042969 10.808594 L 6.0625 10.492188 L 7.085938 10.808594 C 7.324219 10.882812 7.597656 10.835938 7.796875 10.6875 C 8 10.539062 8.125 10.292969 8.125 10.042969 L 8.125 9.304688 C 8.125 9.0625 8.007812 8.820312 7.816406 8.671875 L 7.308594 8.273438 L 7.308594 7.882812 L 9.78125 8.695312 C 10.019531 8.773438 10.296875 8.730469 10.5 8.585938 C 10.707031 8.4375 10.832031 8.1875 10.832031 7.933594 L 10.832031 7 C 10.832031 6.722656 10.679688 6.453125 10.445312 6.3125 L 7.289062 4.417969 L 7.289062 2.339844 C 7.289062 1.980469 7.144531 1.632812 6.886719 1.398438 C 6.640625 1.171875 6.335938 1.070312 6.042969 1.070312 Z M 6.042969 1.070312 "/>
</svg>
