<svg width="16" height="16" viewBox="0 0 16 16" fill="none" xmlns="http://www.w3.org/2000/svg">
<path fill-rule="evenodd" clip-rule="evenodd" d="M7.60784 1.7284C7.60594 1.72833 7.60472 1.73013 7.60282 1.73007C7.3425 1.72211 7.10731 1.80064 6.9097 1.94437L5.04294 3.30216C4.74203 3.52096 4.57868 3.83959 4.57918 4.21294V5.53222C4.57937 5.67311 4.61754 5.81134 4.68968 5.93236C4.21627 6.08064 3.87336 6.33959 3.60814 6.75775C3.39557 6.55827 3.12549 6.415 2.83297 6.41621C2.22494 6.41922 1.67308 6.97343 1.67274 7.58146L1.6041 12.8921L1.60577 12.8687C1.57906 13.4907 2.13341 14.0773 2.75595 14.0841C3.3785 14.091 3.94766 13.5162 3.9346 12.8938L3.94465 12.1002L12.0479 12.1554L12.0378 12.6778L12.0395 12.6577C12.0103 13.2778 12.559 13.866 13.1797 13.8782C13.8004 13.8905 14.3731 13.3237 14.3684 12.7029L14.437 9.25402C14.4449 8.99091 14.3079 8.7547 14.1473 8.5475C14.2449 8.4138 14.2977 8.25262 14.298 8.08709V4.21295C14.2984 3.83988 14.1299 3.51878 13.8342 3.30385L11.9658 1.94438V1.94271C11.7775 1.80584 11.5609 1.73678 11.3414 1.73007C11.0927 1.72196 10.855 1.79156 10.6449 1.94437L9.43776 2.82166L8.23065 1.94437V1.9427C8.17087 1.89925 8.10109 1.90693 8.03812 1.8774C7.91261 1.78623 7.76286 1.73437 7.60784 1.7284Z" fill="white"/>
</svg>
