<?xml version="1.0" encoding="UTF-8"?>
<svg xmlns="http://www.w3.org/2000/svg" xmlns:xlink="http://www.w3.org/1999/xlink" width="12" height="12" viewBox="0 0 12 12">
<defs>
<filter id="filter-remove-color" x="0%" y="0%" width="100%" height="100%">
<feColorMatrix color-interpolation-filters="sRGB" values="0 0 0 0 1 0 0 0 0 1 0 0 0 0 1 0 0 0 1 0" />
</filter>
<mask id="mask-0">
<g filter="url(#filter-remove-color)">
<rect x="-1.2" y="-1.2" width="14.4" height="14.4" fill="rgb(0%, 0%, 0%)" fill-opacity="0.797"/>
</g>
</mask>
<clipPath id="clip-0">
<rect x="0" y="0" width="12" height="12"/>
</clipPath>
<g id="source-6" clip-path="url(#clip-0)">
<path fill-rule="nonzero" fill="rgb(92.156863%, 90.588235%, 89.411765%)" fill-opacity="1" d="M 1.855469 1.738281 C 1.753906 1.738281 1.65625 1.757812 1.5625 1.796875 C 1.46875 1.835938 1.382812 1.890625 1.3125 1.964844 C 1.242188 2.035156 1.183594 2.121094 1.144531 2.210938 C 1.105469 2.304688 1.085938 2.40625 1.085938 2.507812 L 1.085938 9.796875 C 1.085938 9.898438 1.105469 10 1.144531 10.09375 C 1.183594 10.183594 1.242188 10.269531 1.3125 10.339844 C 1.382812 10.414062 1.46875 10.46875 1.5625 10.507812 C 1.65625 10.546875 1.753906 10.566406 1.855469 10.566406 L 10.050781 10.566406 C 10.152344 10.566406 10.25 10.546875 10.34375 10.507812 C 10.4375 10.46875 10.523438 10.414062 10.59375 10.339844 C 10.664062 10.269531 10.722656 10.183594 10.761719 10.09375 C 10.800781 10 10.820312 9.898438 10.820312 9.796875 L 10.820312 5.339844 C 10.820312 5.230469 10.796875 5.125 10.75 5.023438 C 10.707031 4.925781 10.640625 4.835938 10.5625 4.765625 C 10.480469 4.691406 10.386719 4.636719 10.28125 4.605469 C 10.179688 4.574219 10.070312 4.5625 9.960938 4.574219 C 9.945312 4.523438 9.9375 4.476562 9.914062 4.414062 C 9.875 4.320312 9.945312 4.15625 9.492188 3.929688 C 9.410156 3.886719 9.289062 3.832031 9.15625 3.773438 C 9.039062 3.722656 8.910156 3.699219 8.785156 3.710938 C 8.65625 3.71875 8.535156 3.761719 8.425781 3.832031 C 8.320312 3.902344 8.230469 3.996094 8.171875 4.109375 C 8.109375 4.222656 8.078125 4.347656 8.078125 4.476562 L 8.078125 7.121094 L 7.304688 7.121094 L 7.304688 6 C 7.304688 5.867188 7.269531 5.734375 7.199219 5.617188 C 7.132812 5.496094 7.03125 5.402344 6.914062 5.332031 C 6.691406 5.207031 6.546875 5.109375 6.355469 5.015625 C 6.449219 5.058594 6.394531 5.054688 6.355469 4.804688 C 6.339844 4.679688 6.328125 4.53125 6.296875 4.355469 C 6.265625 4.179688 6.292969 3.886719 5.855469 3.59375 C 5.867188 3.601562 5.878906 3.613281 5.820312 3.566406 C 5.796875 3.542969 5.726562 3.515625 5.675781 3.484375 C 5.628906 3.171875 5.53125 2.875 5.320312 2.667969 C 4.996094 2.347656 4.621094 2.261719 4.320312 2.222656 C 4.019531 2.183594 3.753906 2.191406 3.582031 2.191406 C 3.539062 2.191406 3.535156 2.191406 3.507812 2.191406 C 3.503906 2.191406 3.5 2.1875 3.496094 2.183594 C 3.433594 2.050781 3.335938 1.9375 3.214844 1.859375 C 3.089844 1.78125 2.945312 1.738281 2.800781 1.738281 Z M 3.789062 4.660156 L 4.480469 4.660156 L 4.480469 7.042969 L 3.789062 7.042969 Z M 3.789062 4.660156 "/>
</g>
</defs>
<g mask="url(#mask-0)">
<use xlink:href="#source-6"/>
</g>
</svg>
