<svg width="16" height="16" viewBox="0 0 16 16" fill="none" xmlns="http://www.w3.org/2000/svg">
<path opacity="0.812" d="M6.24091 3.00002C6.2485 2.99971 6.16108 3.02646 6.16863 3.02566C6.1724 3.02526 6.14419 3.02234 6.12044 3.02566C6.10438 3.0252 6.0883 3.0252 6.07224 3.02566C6.04015 3.02383 6.00796 3.02383 5.97586 3.02566C5.9848 3.02354 5.87071 3.07976 5.87948 3.07694C5.88825 3.07412 5.75045 3.10608 5.759 3.10258C5.76756 3.09908 5.65434 3.15803 5.66262 3.15386C5.6709 3.14969 5.55827 3.20996 5.56624 3.20514C5.57421 3.20033 5.48634 3.26186 5.49395 3.25643C5.50156 3.251 5.39036 3.33937 5.39757 3.33335C5.40478 3.32733 5.31851 3.41684 5.32528 3.41027C5.33205 3.4037 5.2467 3.49428 5.25299 3.48719C5.25928 3.4801 5.17493 3.57168 5.18071 3.56412C5.18648 3.55656 5.10318 3.67469 5.10842 3.66668C5.11365 3.65868 5.05557 3.752 5.06023 3.74361C5.06489 3.73521 4.98388 3.85491 4.98794 3.84617C4.99201 3.83743 4.9604 3.95777 4.96384 3.94873C4.96728 3.9397 4.91285 4.06058 4.91565 4.0513C4.91845 4.04201 4.88941 4.18898 4.89156 4.1795C4.89319 4.17225 4.8735 4.22526 4.86746 4.25643C4.8656 4.26601 4.86711 4.28433 4.86746 4.28207L4.6265 5.64104H4.48193C4.47947 5.63102 4.4811 5.61238 4.48193 5.6154C4.48471 5.62545 4.45454 5.55424 4.45783 5.56411C4.46114 5.57399 4.42993 5.47753 4.43374 5.48719C4.43755 5.49685 4.40533 5.40085 4.40964 5.41027C4.41395 5.41969 4.38075 5.3242 4.38555 5.33335C4.39034 5.3425 4.33208 5.27321 4.33735 5.28206C4.34263 5.29091 4.30753 5.19662 4.31326 5.20514C4.31899 5.21366 4.2589 5.14569 4.26507 5.15386C4.27124 5.16203 4.21029 5.09479 4.21688 5.10258C4.22346 5.11036 4.1617 5.04391 4.16868 5.0513C4.17567 5.05868 4.11313 4.99305 4.12049 5.00001C4.12785 5.00697 4.04049 4.94222 4.04821 4.94873C4.05592 4.95525 3.99197 4.89141 4.00002 4.89745C4.00806 4.9035 3.94348 4.84061 3.95182 4.84617C3.96017 4.85173 3.87091 4.81547 3.87954 4.82053C3.88816 4.82558 3.79837 4.79035 3.80725 4.79489C3.81613 4.79942 3.74996 4.7396 3.75906 4.7436C3.76816 4.7476 3.67747 4.71451 3.68677 4.71796C3.69607 4.72142 3.60502 4.68943 3.61448 4.69232C3.62395 4.69522 3.5326 4.68999 3.5422 4.69232C3.5518 4.69465 3.4602 4.66492 3.46991 4.66668C3.47962 4.66843 3.38784 4.6655 3.39762 4.66668C3.40741 4.66786 3.3396 4.64045 3.34943 4.64104C3.35926 4.64163 3.2673 4.64103 3.27714 4.64104C3.28699 4.64105 3.19503 4.64161 3.20486 4.64104C3.21469 4.64046 3.12278 4.66784 3.13257 4.66668C3.14236 4.66552 3.05057 4.66842 3.06028 4.66668C3.04398 4.67471 3.02791 4.68326 3.01209 4.69232C3.02722 4.68866 2.87685 4.72302 2.89161 4.71796C2.90638 4.7129 2.78094 4.75002 2.79523 4.7436C2.80952 4.73719 2.68514 4.80262 2.69885 4.79489C2.71255 4.78716 2.58945 4.88079 2.60247 4.87181C2.61548 4.86283 2.49386 4.93326 2.50608 4.92309C2.51831 4.91293 2.39836 5.01128 2.4097 5.00001C2.42104 4.98874 2.32705 5.11486 2.33741 5.10258C2.34778 5.09029 2.25582 5.19271 2.26513 5.1795C2.27443 5.16629 2.20875 5.29609 2.21694 5.28206C2.22512 5.26804 2.13766 5.39936 2.14465 5.38463C2.15164 5.36989 2.09071 5.50252 2.09646 5.48719C2.10221 5.47186 2.0679 5.63121 2.07236 5.6154C2.07682 5.59959 2.04513 5.73413 2.04827 5.71796C2.05141 5.70179 2.02238 5.86256 2.02417 5.84617C2.02596 5.82977 2.02374 5.99087 2.02417 5.97437C2.02439 5.96612 2.02365 5.99173 2.02417 6.02565C2.02469 6.05957 2.02464 6.08517 2.02417 6.07693V12.3846C2.02602 12.3742 2.02288 12.4721 2.02417 12.4615C2.02547 12.451 1.99935 12.5491 2.00008 12.5385C2.0008 12.5278 1.99991 12.626 2.00008 12.6154C2.00024 12.6047 2.00048 12.7029 2.00008 12.6923C1.99967 12.6817 2.00105 12.7798 2.00008 12.7692C1.99911 12.7586 2.0257 12.8566 2.02417 12.8461C2.02264 12.8356 2.02626 12.9335 2.02417 12.9231C2.02208 12.9127 2.05091 13.0102 2.04827 13C2.04563 12.9897 2.07554 13.087 2.07236 13.0769C2.06918 13.0668 2.10017 13.1381 2.09646 13.1282C2.09274 13.1183 2.12478 13.2147 2.12055 13.2051C2.11632 13.1955 2.14939 13.2914 2.14465 13.282C2.13991 13.2726 2.19807 13.3424 2.19284 13.3333C2.18761 13.3242 2.24673 13.419 2.24103 13.4102C2.23533 13.4015 2.27129 13.4699 2.26513 13.4615C2.25896 13.4531 2.31991 13.5464 2.31332 13.5384C2.30672 13.5305 2.36852 13.5973 2.36151 13.5897C2.3545 13.5822 2.4171 13.6482 2.4097 13.641C2.4023 13.6338 2.48976 13.699 2.48199 13.6923C2.47422 13.6856 2.53829 13.7498 2.53018 13.7436C2.52207 13.7374 2.6109 13.7749 2.60247 13.7692C2.59404 13.7635 2.65938 13.8257 2.65066 13.8205C2.64193 13.8153 2.73193 13.8508 2.72295 13.8461C2.71396 13.8415 2.80445 13.8759 2.79523 13.8718C2.78601 13.8677 2.85285 13.9266 2.84342 13.9231C2.834 13.9195 2.92531 13.926 2.91571 13.9231C2.90611 13.9201 2.99774 13.9511 2.988 13.9487C2.97826 13.9463 3.07013 13.9761 3.06028 13.9744C3.05043 13.9725 3.1425 13.9756 3.13257 13.9744C3.12264 13.9731 3.21484 13.975 3.20486 13.9744C3.19488 13.9738 3.28714 14 3.27715 14C3.26715 14 3.35941 13.9738 3.34943 13.9744C3.33945 13.975 3.43165 13.9731 3.42172 13.9744C3.41179 13.9756 3.50386 13.9725 3.49401 13.9744C3.48416 13.9762 3.57603 13.9463 3.56629 13.9487C3.55656 13.9511 3.64818 13.9201 3.63858 13.9231C3.62899 13.926 3.72029 13.9195 3.71087 13.9231C3.70145 13.9266 3.76828 13.8677 3.75906 13.8718C3.74984 13.8759 3.84033 13.8415 3.83135 13.8461C3.82236 13.8508 3.91236 13.8153 3.90363 13.8205C3.89491 13.8257 3.96026 13.7635 3.95183 13.7692C3.9434 13.775 4.03223 13.7374 4.02411 13.7436C4.016 13.7498 4.08008 13.6856 4.0723 13.6923C4.06453 13.699 4.15199 13.6339 4.14459 13.641C4.13719 13.6482 4.19979 13.5821 4.19278 13.5897C4.18578 13.5973 4.24757 13.5304 4.24097 13.5384C5.11525 14.4303 6.1492 13.522 6.3132 12.641L7.71075 4.84615C7.71538 4.82277 7.71137 4.79113 7.71075 4.79487C7.70942 4.80281 7.73571 4.70993 7.73484 4.71795C7.73397 4.72596 7.73525 4.60732 7.73484 4.61538C7.73444 4.62344 7.73478 4.50475 7.73484 4.51282C7.7349 4.52089 7.73432 4.42785 7.73484 4.43589C7.73537 4.44394 7.73384 4.32533 7.73484 4.33333C7.73584 4.34133 7.7093 4.22285 7.71075 4.23077C7.7122 4.23868 7.68474 4.14603 7.68665 4.15384C7.68856 4.16165 7.6602 4.04361 7.66256 4.05128C7.66491 4.05895 7.63566 3.96686 7.63846 3.97436C7.64125 3.98185 7.58704 3.89013 7.59027 3.89744C7.59349 3.90474 7.56253 3.78779 7.56617 3.79487C7.56982 3.80195 7.51394 3.71112 7.51798 3.71795C7.52202 3.72477 7.46536 3.63448 7.46979 3.64103C7.47422 3.64757 7.4168 3.55786 7.4216 3.5641C7.4264 3.57035 7.34416 3.48126 7.34931 3.48718C7.35447 3.4931 7.29564 3.43033 7.30112 3.4359C7.30661 3.44147 7.22304 3.35377 7.22883 3.35897C7.23463 3.36418 7.15046 3.30288 7.15655 3.30769C7.16264 3.31251 7.07791 3.25201 7.08426 3.25641C7.09061 3.26081 7.00538 3.20115 7.01197 3.20513C7.01857 3.20911 6.93287 3.15031 6.93969 3.15385C6.9465 3.15739 6.8363 3.12512 6.8433 3.12821C6.85031 3.1313 6.76385 3.09994 6.77102 3.10256C6.77819 3.10519 6.66733 3.04913 6.67463 3.05128C6.68195 3.05344 6.59493 3.04962 6.60235 3.05128C6.60977 3.05295 6.49846 3.02446 6.50597 3.02564C6.51347 3.02682 6.42612 3.02496 6.43368 3.02564C6.44123 3.02633 6.32972 2.99981 6.3373 3C6.34488 3.00019 6.23334 3.00031 6.24091 3L6.24091 3.00002ZM9.59021 3.00002C9.59645 2.99939 9.55735 3.01963 9.51792 3.02566C9.48057 3.03137 9.43977 3.02688 9.44564 3.02566C9.4131 3.03231 9.38091 3.04088 9.34925 3.0513C9.36106 3.04816 9.19322 3.08131 9.20468 3.07694C9.21614 3.07258 9.0732 3.15941 9.0842 3.15386C9.0952 3.14831 8.95329 3.21182 8.96372 3.20514C8.97415 3.19846 8.83349 3.31545 8.84324 3.30771C8.853 3.29996 8.71377 3.39336 8.72277 3.38463C8.73176 3.3759 8.61824 3.52246 8.62638 3.51284C8.63452 3.50321 8.52279 3.62584 8.53 3.6154C8.53721 3.60496 8.45151 3.75475 8.45771 3.74361C8.46392 3.73246 8.38028 3.88355 8.38543 3.87181C8.39057 3.86007 8.33321 4.03788 8.33724 4.02566C8.34127 4.01343 8.31026 4.16645 8.31314 4.15386C8.31602 4.14128 8.26325 4.32053 8.26495 4.30771C8.26665 4.29488 8.26445 4.47449 8.26495 4.46155C8.26544 4.44861 8.26565 4.62833 8.26495 4.6154C8.26424 4.60247 8.29094 4.78204 8.28904 4.76924C8.28795 4.76186 8.28026 4.80123 8.28904 4.84617L8.31314 4.89745L8.72277 7.15385L8.74686 7.28206L9.71069 12.641C9.71128 12.6482 9.71102 12.669 9.71069 12.6667C9.70868 12.6528 9.76226 12.834 9.75888 12.8205C9.75546 12.807 9.81179 12.9874 9.80707 12.9744C9.8024 12.9613 9.86126 13.1407 9.85527 13.1282C9.84924 13.1158 9.93477 13.2937 9.92755 13.282C9.92036 13.2703 10.0323 13.4211 10.0239 13.4103C10.0156 13.3994 10.1297 13.5226 10.1203 13.5128C10.1109 13.503 10.2511 13.6497 10.2408 13.641C10.2305 13.6323 10.3724 13.7254 10.3613 13.7179C10.3502 13.7105 10.5176 13.801 10.5058 13.7949C10.4941 13.7887 10.6628 13.8766 10.6504 13.8718C10.6381 13.867 10.8078 13.9264 10.795 13.9231C10.7822 13.9197 10.9526 13.9506 10.9396 13.9487C10.9265 13.9468 11.0973 13.9491 11.0841 13.9487C11.071 13.9483 11.2659 13.9477 11.2528 13.9487C11.2397 13.9498 11.4103 13.9205 11.3974 13.9231C11.3845 13.9256 11.5546 13.8934 11.542 13.8974C11.5294 13.9014 11.6987 13.8407 11.6865 13.8461C11.6744 13.8516 11.8426 13.7625 11.8311 13.7692C11.8196 13.7759 11.9624 13.6843 11.9516 13.6923C11.9408 13.7003 12.082 13.5805 12.0721 13.5897C12.0622 13.5989 12.1232 13.5506 12.1142 13.5609C13.0316 14.3452 13.937 13.3957 13.9997 12.5384V6.07692V6.02564C14.0002 6.01272 13.9997 5.99635 13.9997 6C13.9997 6.01095 13.9992 5.91214 13.9997 5.92308C14.0003 5.93401 13.9985 5.83527 13.9997 5.84615C14.0009 5.85703 13.9979 5.75844 13.9997 5.76923C14.0015 5.78002 13.9733 5.68165 13.9756 5.69231C13.978 5.70297 13.9486 5.60489 13.9515 5.61538C13.9545 5.62588 13.9239 5.52816 13.9274 5.53846C13.9309 5.54876 13.8993 5.45147 13.9033 5.46154C13.9074 5.4716 13.8746 5.37482 13.8792 5.38462C13.8838 5.39441 13.8259 5.32384 13.831 5.33333C13.8362 5.34283 13.8013 5.24725 13.8069 5.25641C13.8126 5.26557 13.7526 5.19633 13.7587 5.20513C13.7649 5.21392 13.704 5.1198 13.7106 5.12821C13.7172 5.13661 13.6553 5.06895 13.6624 5.07692C13.6694 5.0849 13.6067 5.01811 13.6142 5.02564C13.6216 5.03317 13.5581 4.96731 13.566 4.97436C13.5739 4.98141 13.4854 4.91653 13.4937 4.92308C13.502 4.92963 13.4369 4.86577 13.4455 4.8718C13.454 4.87783 13.3643 4.81503 13.3732 4.82051C13.3821 4.826 13.2917 4.78995 13.3009 4.79487C13.3101 4.79979 13.2433 4.76489 13.2527 4.76923C13.2622 4.77358 13.1708 4.7142 13.1804 4.71795C13.1901 4.7217 13.0983 4.68916 13.1082 4.69231C13.118 4.69545 13.0259 4.68978 13.0359 4.69231C13.0459 4.69483 12.9535 4.66476 12.9636 4.66667C12.9737 4.66857 12.8811 4.66539 12.8913 4.66667C12.9015 4.66794 12.8087 4.64039 12.819 4.64102C12.8293 4.64166 12.7364 4.64103 12.7467 4.64102C12.757 4.64102 12.6401 4.64167 12.6504 4.64102C12.6606 4.64038 12.5679 4.66794 12.5781 4.66667C12.5883 4.66538 12.4956 4.66858 12.5058 4.66667C12.5129 4.66533 12.4808 4.68727 12.4576 4.69231C12.4476 4.69446 12.4305 4.69307 12.4335 4.69231C12.4073 4.70032 12.3252 4.72203 12.3371 4.71795C12.3519 4.71289 12.2264 4.75001 12.2407 4.74359C12.255 4.73718 12.1306 4.8026 12.1443 4.79487C12.1581 4.78715 12.0349 4.88078 12.048 4.8718C12.061 4.86282 11.9394 4.93324 11.9516 4.92308C11.9638 4.91291 11.8439 5.01127 11.8552 5C11.8665 4.98873 11.7725 5.11485 11.7829 5.10257C11.7933 5.09028 11.7013 5.19269 11.7106 5.17949C11.7199 5.16628 11.6543 5.29608 11.6624 5.28205C11.6706 5.26803 11.5831 5.39935 11.5901 5.38462C11.5972 5.36988 11.5362 5.50251 11.5419 5.48718C11.5477 5.47185 11.5134 5.63119 11.5179 5.61538C11.5189 5.61167 11.5202 5.63092 11.5179 5.64102H11.3733L11.1323 4.28206C11.1327 4.28416 11.1337 4.26257 11.1323 4.25642C11.1254 4.22465 11.1055 4.11765 11.1082 4.12822C11.1115 4.14083 11.0556 3.96217 11.06 3.97437C11.0644 3.98658 10.9822 3.83449 10.9878 3.84617C10.9933 3.85785 10.9089 3.70693 10.9155 3.71796C10.922 3.729 10.8356 3.57948 10.8432 3.58976C10.8507 3.60004 10.7383 3.45213 10.7468 3.46155C10.7553 3.47098 10.6411 3.35051 10.6504 3.35899C10.6598 3.36747 10.5198 3.27462 10.5299 3.28207C10.54 3.2895 10.3987 3.19881 10.4095 3.20514C10.4202 3.21148 10.2777 3.12306 10.289 3.12822C10.3003 3.13338 10.1327 3.073 10.1444 3.07694C10.1561 3.08087 9.98781 3.02298 9.99983 3.02566C10.0119 3.02834 9.86714 3.02426 9.87936 3.02566C9.89158 3.02706 9.72249 2.99993 9.73478 3.00002C9.74707 3.00011 9.57797 3.00123 9.59021 3.00002V3.00002Z" fill="#EBE7E4"/>
</svg>
