<svg width="36" height="27" viewBox="0 0 36 27" fill="none" xmlns="http://www.w3.org/2000/svg">
<path opacity="0.698" fill-rule="evenodd" clip-rule="evenodd" d="M18.1121 3.96135C7.83079 3.88167 1.29395 7.42267 1.29395 7.42267C0.793285 7.59072 0.486638 7.89401 0.486328 8.22145V18.7803C0.486309 19.1149 0.805948 19.4237 1.32369 19.5894C1.32369 19.5894 7.92602 23.04 18.0915 23.04C28.257 23.04 34.6946 19.583 34.6946 19.583C35.2018 19.4158 35.5134 19.1105 35.5137 18.7803V8.22145C35.5135 7.88864 35.1969 7.58118 34.6832 7.41496C34.6832 7.41496 28.3513 4.04069 18.1121 3.96135V3.96135Z" fill="#515151"/>
<path fill-rule="evenodd" clip-rule="evenodd" d="M1.56991 8.54563C1.56991 8.54563 7.87105 4.96968 18.0948 5.04613C28.3186 5.12258 34.4301 8.54563 34.4301 8.54563V18.4556C34.4301 18.4556 28.2163 21.9551 18.0948 21.9551C7.97336 21.9551 1.56991 18.4556 1.56991 18.4556L1.56991 8.54563Z" fill="white"/>
</svg>
