<svg width="64" height="64" viewBox="0 0 64 64" fill="none" xmlns="http://www.w3.org/2000/svg">
<g clip-path="url(#clip0)">
<path opacity="0.164557" d="M64 0H0V64H64V0Z" fill="white"/>
<path d="M38 21H23V22H38V21Z" fill="#2F91EA"/>
<path d="M47 14H32V15H47V14Z" fill="#2F91EA"/>
<path d="M16 53H1V54H16V53Z" fill="#2F91EA"/>
<path d="M23 3H8V4H23V3Z" fill="#2F91EA"/>
<path d="M26 43H11V44H26V43Z" fill="#2F91EA"/>
<path d="M10.5113 13.7593H1.0694V14.7593H10.5113V13.7593Z" fill="#2F91EA"/>
<path d="M63 25H58V26H63V25Z" fill="#2F91EA"/>
<path d="M41 33H27V34H41V33Z" fill="#2F91EA"/>
<path d="M63 38H53V39H63V38Z" fill="#2F91EA"/>
<path d="M42 47H25V48H42V47Z" fill="#2F91EA"/>
<path d="M64 49H58V50H64V49Z" fill="#2F91EA"/>
<path d="M62 5H47V6H62V5Z" fill="#2F91EA"/>
<path d="M61 11H46V12H61V11Z" fill="#2F91EA"/>
<path d="M56 16H48V17H56V16Z" fill="#2F91EA"/>
<path d="M51 54H43V55H51V54Z" fill="#2F91EA"/>
<path d="M11 38H2V39H11V38Z" fill="#2F91EA"/>
<path d="M47 1H39V2H47V1Z" fill="#2F91EA"/>
<path d="M17 63H7V64H17V63Z" fill="#2F91EA"/>
<path d="M55 22H44V23H55V22Z" fill="#2F91EA"/>
<path d="M7 49H0V50H7V49Z" fill="#2F91EA"/>
<path d="M62 52H57V53H62V52Z" fill="#2F91EA"/>
<path d="M21 31H12V32H21V31Z" fill="#2F91EA"/>
<path d="M49.4207 32.558L51.8585 35.9336" stroke="#2F91EA"/>
<path d="M50.9147 28.1725L53.79 35.8484" stroke="#2F91EA"/>
<path d="M55.4081 24.2953L55.3765 36.0775" stroke="#2F91EA"/>
<path d="M61.4268 32.558L58.9889 35.9336" stroke="#2F91EA"/>
<path d="M59.9327 28.1725L57.0574 35.8484" stroke="#2F91EA"/>
<path d="M15.7495 56.4841L18.1873 59.8598" stroke="#2F91EA"/>
<path d="M17.2435 52.0985L20.1189 59.7744" stroke="#2F91EA"/>
<path d="M21.7369 48.2213L21.7053 60.0036" stroke="#2F91EA"/>
<path d="M27.7556 56.4841L25.3177 59.8598" stroke="#2F91EA"/>
<path d="M26.2616 52.0985L23.3862 59.7744" stroke="#2F91EA"/>
<path d="M24 61H19V62H24V61Z" fill="#2F91EA"/>
<path d="M2.99048 27.5C9.45309 27.2925 11.2143 23.4158 14.3938 23.395C17.5733 23.3742 19.5484 27.4776 26.0392 27.4545" stroke="#2F91EA"/>
<path d="M16.4756 10.5C22.9382 10.2925 24.6994 6.41582 27.8789 6.39498C31.0584 6.37418 33.0335 10.4776 39.5244 10.4545" stroke="#2F91EA"/>
<path d="M31.2344 43.5C37.697 43.2925 39.4582 39.4158 42.6378 39.395C45.8173 39.3742 47.8149 43.4983 54.3057 43.4752" stroke="#2F91EA"/>
<path d="M39.5317 60.6874C45.9943 60.5162 47.6881 57.5173 50.8676 57.5001C54.0472 57.4831 55.9773 60.7064 62.4682 60.6874" stroke="#2F91EA"/>
</g>
<defs>
<clipPath id="clip0">
<path d="M0 0H64V64H0V0Z" fill="white"/>
</clipPath>
</defs>
</svg>
