<?xml version="1.0" encoding="UTF-8"?>
<svg xmlns="http://www.w3.org/2000/svg" xmlns:xlink="http://www.w3.org/1999/xlink" width="12" height="12" viewBox="0 0 12 12">
<defs>
<filter id="filter-remove-color" x="0%" y="0%" width="100%" height="100%">
<feColorMatrix color-interpolation-filters="sRGB" values="0 0 0 0 1 0 0 0 0 1 0 0 0 0 1 0 0 0 1 0" />
</filter>
<mask id="mask-0">
<g filter="url(#filter-remove-color)">
<rect x="-1.2" y="-1.2" width="14.4" height="14.4" fill="rgb(0%, 0%, 0%)" fill-opacity="0.8"/>
</g>
</mask>
<clipPath id="clip-0">
<rect x="0" y="0" width="12" height="12"/>
</clipPath>
<g id="source-6" clip-path="url(#clip-0)">
<path fill-rule="nonzero" fill="rgb(92.156863%, 90.588235%, 89.411765%)" fill-opacity="1" d="M 6 0.824219 C 5.867188 0.824219 5.753906 0.839844 5.625 0.878906 C 5.550781 0.902344 5.480469 0.9375 5.417969 0.984375 L 4.460938 1.664062 L 3.230469 1.855469 C 3.207031 1.859375 3.183594 1.863281 3.160156 1.871094 C 3.023438 1.90625 2.785156 1.984375 2.621094 2.253906 C 2.457031 2.523438 2.503906 2.796875 2.503906 2.691406 L 2.503906 2.445312 L 1.261719 3.203125 C 1.152344 3.273438 1.058594 3.367188 0.996094 3.484375 C 0.929688 3.597656 0.898438 3.726562 0.898438 3.855469 L 0.898438 4.136719 C 0.898438 4.339844 0.980469 4.535156 1.121094 4.675781 C 1.265625 4.820312 1.460938 4.898438 1.660156 4.898438 L 2.0625 4.898438 L 2.0625 10.484375 C 2.0625 10.6875 2.144531 10.878906 2.285156 11.023438 C 2.429688 11.167969 2.625 11.246094 2.828125 11.246094 L 3.589844 11.246094 C 3.792969 11.246094 3.984375 11.167969 4.128906 11.023438 C 4.273438 10.878906 4.351562 10.6875 4.351562 10.484375 L 4.351562 8.914062 C 4.40625 8.925781 4.449219 8.945312 4.503906 8.957031 C 4.625 8.980469 4.824219 8.976562 4.96875 8.996094 C 5.0625 9.507812 5.457031 9.921875 6 9.921875 C 6.539062 9.921875 6.933594 9.511719 7.03125 9 C 7.171875 8.984375 7.371094 8.984375 7.492188 8.960938 C 7.550781 8.953125 7.59375 8.933594 7.648438 8.921875 L 7.648438 10.484375 C 7.648438 10.6875 7.726562 10.878906 7.871094 11.023438 C 8.015625 11.167969 8.207031 11.246094 8.410156 11.246094 L 9.195312 11.246094 C 9.394531 11.246094 9.589844 11.167969 9.734375 11.023438 C 9.875 10.878906 9.957031 10.6875 9.957031 10.484375 L 9.957031 4.898438 L 10.339844 4.898438 C 10.539062 4.898438 10.734375 4.820312 10.878906 4.675781 C 11.019531 4.535156 11.101562 4.339844 11.101562 4.136719 L 11.101562 3.855469 C 11.101562 3.726562 11.070312 3.597656 11.003906 3.484375 C 10.941406 3.367188 10.847656 3.273438 10.738281 3.203125 L 9.496094 2.445312 L 9.496094 2.691406 C 9.496094 2.796875 9.542969 2.523438 9.378906 2.253906 C 9.214844 1.984375 8.976562 1.90625 8.839844 1.871094 C 8.816406 1.863281 8.792969 1.859375 8.769531 1.855469 L 7.523438 1.664062 L 6.585938 0.988281 C 6.523438 0.941406 6.449219 0.902344 6.375 0.878906 C 6.246094 0.839844 6.132812 0.824219 6 0.824219 Z M 4.351562 4.898438 L 4.636719 4.898438 C 4.5 5.035156 4.441406 5.191406 4.351562 5.363281 Z M 7.375 4.898438 L 7.648438 4.898438 L 7.648438 5.355469 C 7.5625 5.1875 7.507812 5.035156 7.375 4.898438 Z M 7.375 4.898438 "/>
</g>
</defs>
<g mask="url(#mask-0)">
<use xlink:href="#source-6"/>
</g>
</svg>
