<?xml version="1.0" encoding="UTF-8"?>
<svg xmlns="http://www.w3.org/2000/svg" xmlns:xlink="http://www.w3.org/1999/xlink" width="12" height="12" viewBox="0 0 12 12">
<path fill-rule="evenodd" fill="rgb(100%, 100%, 100%)" fill-opacity="1" d="M 5.707031 1.296875 C 5.703125 1.296875 5.703125 1.296875 5.703125 1.296875 C 5.507812 1.292969 5.332031 1.351562 5.183594 1.457031 L 3.78125 2.476562 C 3.554688 2.640625 3.433594 2.878906 3.433594 3.160156 L 3.433594 4.148438 C 3.433594 4.253906 3.464844 4.359375 3.515625 4.449219 C 3.164062 4.558594 2.90625 4.753906 2.707031 5.066406 C 2.546875 4.917969 2.34375 4.8125 2.125 4.8125 C 1.667969 4.8125 1.253906 5.230469 1.253906 5.6875 L 1.203125 9.667969 L 1.203125 9.652344 C 1.183594 10.117188 1.601562 10.558594 2.066406 10.5625 C 2.535156 10.566406 2.960938 10.136719 2.949219 9.671875 L 2.957031 9.074219 L 9.035156 9.117188 L 9.027344 9.507812 L 9.03125 9.492188 C 9.007812 9.957031 9.417969 10.398438 9.886719 10.410156 C 10.351562 10.417969 10.78125 9.992188 10.777344 9.527344 L 10.828125 6.941406 C 10.832031 6.742188 10.730469 6.566406 10.609375 6.410156 C 10.683594 6.308594 10.722656 6.191406 10.722656 6.066406 L 10.722656 3.160156 C 10.722656 2.878906 10.597656 2.640625 10.375 2.476562 L 8.972656 1.457031 C 8.832031 1.355469 8.671875 1.300781 8.507812 1.296875 C 8.320312 1.292969 8.140625 1.34375 7.984375 1.457031 L 7.078125 2.117188 L 6.171875 1.457031 C 6.128906 1.425781 6.074219 1.429688 6.027344 1.40625 C 5.933594 1.339844 5.820312 1.300781 5.707031 1.296875 Z M 5.707031 1.296875 "/>
</svg>
