<?xml version="1.0" encoding="UTF-8"?>
<svg xmlns="http://www.w3.org/2000/svg" xmlns:xlink="http://www.w3.org/1999/xlink" width="12" height="12" viewBox="0 0 12 12">
<defs>
<filter id="filter-remove-color" x="0%" y="0%" width="100%" height="100%">
<feColorMatrix color-interpolation-filters="sRGB" values="0 0 0 0 1 0 0 0 0 1 0 0 0 0 1 0 0 0 1 0" />
</filter>
<mask id="mask-0">
<g filter="url(#filter-remove-color)">
<rect x="-1.2" y="-1.2" width="14.4" height="14.4" fill="rgb(0%, 0%, 0%)" fill-opacity="0.812"/>
</g>
</mask>
<clipPath id="clip-0">
<rect x="0" y="0" width="12" height="12"/>
</clipPath>
<g id="source-6" clip-path="url(#clip-0)">
<path fill-rule="nonzero" fill="rgb(92.156863%, 90.588235%, 89.411765%)" fill-opacity="1" d="M 3.453125 1.710938 C 3.246094 1.710938 3.035156 1.796875 2.886719 1.945312 C 2.738281 2.09375 2.652344 2.304688 2.652344 2.515625 L 2.652344 3.054688 L 2.371094 3.398438 L 2.308594 3.398438 C 2.097656 3.398438 1.886719 3.484375 1.738281 3.632812 C 1.589844 3.78125 1.503906 3.992188 1.503906 4.203125 L 1.503906 4.457031 L 1.128906 4.914062 C 0.996094 5.074219 0.929688 5.292969 0.949219 5.5 C 0.96875 5.710938 1.078125 5.910156 1.238281 6.042969 L 1.390625 6.167969 L 1.128906 6.488281 C 0.996094 6.652344 0.929688 6.867188 0.949219 7.074219 C 0.96875 7.285156 1.078125 7.484375 1.238281 7.621094 L 1.496094 7.832031 L 1.496094 9.445312 C 1.496094 9.65625 1.582031 9.867188 1.730469 10.015625 C 1.878906 10.164062 2.089844 10.25 2.300781 10.25 L 8.617188 10.25 C 8.828125 10.25 9.039062 10.164062 9.1875 10.015625 C 9.335938 9.867188 9.421875 9.65625 9.421875 9.445312 L 9.421875 7.386719 L 9.773438 7.386719 C 9.984375 7.386719 10.195312 7.300781 10.34375 7.152344 C 10.492188 7.003906 10.578125 6.796875 10.578125 6.585938 L 10.578125 5.460938 L 10.875 5.097656 C 11.007812 4.933594 11.074219 4.71875 11.054688 4.507812 C 11.03125 4.300781 10.925781 4.101562 10.761719 3.964844 L 10.609375 3.84375 L 10.875 3.523438 C 11.007812 3.359375 11.074219 3.144531 11.054688 2.933594 C 11.03125 2.722656 10.925781 2.523438 10.761719 2.390625 L 10.472656 2.152344 L 10.519531 2.21875 C 10.402344 1.921875 10.09375 1.710938 9.773438 1.710938 L 9.195312 1.710938 C 8.984375 1.710938 8.777344 1.796875 8.628906 1.945312 C 8.476562 2.09375 8.390625 2.304688 8.390625 2.515625 L 8.390625 3.101562 L 8.148438 3.398438 L 8.039062 3.398438 C 7.828125 3.398438 7.621094 3.484375 7.46875 3.632812 C 7.320312 3.78125 7.234375 3.992188 7.234375 4.203125 L 7.234375 4.511719 L 7.21875 4.535156 L 5.25 4.535156 C 5.230469 4.316406 5.152344 4.105469 4.984375 3.964844 L 4.835938 3.84375 L 4.835938 3.839844 L 5.097656 3.523438 C 5.230469 3.359375 5.296875 3.144531 5.277344 2.933594 C 5.253906 2.722656 5.148438 2.523438 4.984375 2.390625 L 4.777344 2.222656 C 4.738281 2.117188 4.679688 2.023438 4.601562 1.945312 C 4.453125 1.796875 4.246094 1.710938 4.035156 1.710938 Z M 3.453125 1.710938 "/>
</g>
</defs>
<g mask="url(#mask-0)">
<use xlink:href="#source-6"/>
</g>
</svg>
