<svg width="16" height="16" viewBox="0 0 16 16" fill="none" xmlns="http://www.w3.org/2000/svg">
<path fill-rule="evenodd" clip-rule="evenodd" d="M9.79086 1.16749C9.56095 1.17712 9.33486 1.28018 9.17643 1.44708L8.16855 2.4851H8.17022C8.05889 2.59957 8.04013 2.76378 8.00615 2.91872C7.89901 2.87694 7.8485 2.73845 7.73325 2.74125C7.70764 2.74187 7.69004 2.76851 7.66461 2.77139C7.8249 2.52453 7.94222 2.2249 7.82701 1.95269C7.68777 1.62373 7.33696 1.39655 6.97985 1.40522C6.74797 1.41078 6.52037 1.51011 6.35872 1.67645L5.45129 2.58387C5.30003 2.27979 4.98465 2.05326 4.64432 2.06152C4.41243 2.06707 4.18484 2.1664 4.02318 2.33274L2.30543 4.05049C1.97401 4.38201 1.97312 4.98537 2.30376 5.31787C2.4357 5.45055 2.62348 5.49137 2.8077 5.51878L2.23679 6.08969L2.23512 6.09136C1.90395 6.42441 1.90542 7.02757 2.23847 7.35874C2.57099 7.68939 3.17434 7.68853 3.50586 7.35707L3.50753 7.3554L4.85527 6.00766V6.00599C5.10911 5.75553 5.19016 5.34661 5.05115 5.01819C4.93365 4.74057 4.6319 4.60808 4.33626 4.5561L5.04111 3.85126C5.06892 3.8626 5.09744 3.87211 5.12649 3.87972C5.08077 4.18213 5.24048 4.47834 5.51826 4.60633L5.39437 4.73022C5.0629 5.06174 5.06204 5.66509 5.3927 5.99761C5.50142 6.10695 5.65955 6.1255 5.8079 6.16335L2.77756 7.77898L2.77589 7.78065C2.27899 8.04749 2.16466 8.82311 2.56326 9.22215L2.89141 9.55197L2.89308 9.55364C3.14352 9.80356 3.54784 9.88548 3.87585 9.75288L3.95119 9.72274V13.5617V13.5634C3.95289 14.0432 4.38889 14.4792 4.86866 14.4809H4.87033H5.50486C5.98682 14.4826 6.42565 14.0454 6.42735 13.5634V13.5617V9.01454L8.15682 8.80861L9.85281 9.01287V13.5617V13.5634C9.85452 14.0454 10.2933 14.4826 10.7753 14.4809H11.4098H11.4115C11.8913 14.4792 12.3273 14.0432 12.329 13.5634V13.5617V9.71601L12.4395 9.75954C12.7705 9.89337 13.1789 9.8085 13.4289 9.55361L13.7571 9.22048C14.154 8.82013 14.0365 8.04439 13.5394 7.77898L11.3931 6.63381C11.4365 6.6037 11.5002 6.61559 11.5371 6.57689L11.5053 6.6087L11.6576 6.46806C11.6958 6.54845 11.6869 6.64794 11.7497 6.7125C12.0771 7.04928 12.682 7.0567 13.0188 6.72924H13.0205L14.3347 5.44512C14.5978 5.19829 14.6876 4.78441 14.5507 4.45063C14.4563 4.22044 14.1951 4.15482 13.963 4.06723L14.2861 3.75583C14.5473 3.5106 14.6371 3.10058 14.5038 2.76804C14.3705 2.4355 14.0216 2.20237 13.6633 2.2055H13.6582C13.4273 2.20919 13.1999 2.30627 13.0371 2.47003L12.5299 2.95723C12.5242 2.94127 12.5466 2.92595 12.5399 2.91035C12.3989 2.58076 12.0444 2.35458 11.6861 2.36623C11.4566 2.3736 11.2316 2.47275 11.0716 2.63745L10.1726 3.53651C10.1001 3.42322 9.97021 3.39593 9.85616 3.32388L10.4639 2.69772C10.7167 2.44409 10.7938 2.03109 10.6497 1.70324C10.5059 1.37584 10.1498 1.1536 9.79254 1.16749H9.79083H9.79086ZM13.6985 3.89479H13.7036C13.7023 3.89481 13.7015 3.89644 13.7003 3.89646C13.6995 3.89648 13.6994 3.89476 13.6986 3.89479H13.6985ZM12.1147 4.13085C12.1568 4.15325 12.2011 4.17121 12.2469 4.18443C12.2097 4.40497 12.2822 4.62984 12.4412 4.78715L12.2202 5.00145C12.0936 4.78917 11.8884 4.65354 11.6476 4.59796L12.1147 4.13085ZM9.8344 4.8424H9.83774C9.79548 5.12522 9.93286 5.40464 10.1826 5.54389C10.1191 5.66185 10.0181 5.76057 10.0085 5.89548L9.1714 5.45014C9.18655 5.43764 9.21074 5.44375 9.22498 5.43005L9.22665 5.42838L9.8344 4.8424ZM7.76674 4.8943C7.77634 4.97159 7.81896 5.03482 7.8471 5.10692C7.81116 5.12019 7.77057 5.11598 7.7366 5.13371L7.73158 5.13706L7.28624 5.3748L7.76674 4.8943ZM8.14678 5.03158H8.15515C8.15392 5.03158 8.15303 5.03325 8.1518 5.03325C8.15003 5.03327 8.14855 5.03155 8.14678 5.03158Z" fill="white"/>
</svg>
