<?xml version="1.0" encoding="UTF-8"?>
<svg xmlns="http://www.w3.org/2000/svg" xmlns:xlink="http://www.w3.org/1999/xlink" width="12" height="12" viewBox="0 0 12 12">
<path fill-rule="evenodd" fill="rgb(92.156863%, 90.588235%, 89.411765%)" fill-opacity="0.8" d="M 2.25 1.5 C 3.078125 1.5 3.75 2.171875 3.75 3 L 9.75 3 C 10.578125 3 11.25 3.671875 11.25 4.5 L 11.25 9 C 11.25 9.828125 10.578125 10.5 9.75 10.5 C 8.921875 10.5 8.25 9.828125 8.25 9 L 8.25 7.828125 L 3.75 8.730469 L 3.75 9 C 3.75 9.828125 3.078125 10.5 2.25 10.5 C 1.421875 10.5 0.75 9.828125 0.75 9 L 0.75 3 C 0.75 2.171875 1.421875 1.5 2.25 1.5 Z M 2.25 1.5 "/>
</svg>
