<?xml version="1.0" encoding="UTF-8"?>
<svg xmlns="http://www.w3.org/2000/svg" xmlns:xlink="http://www.w3.org/1999/xlink" width="12" height="12" viewBox="0 0 12 12">
<defs>
<filter id="filter-remove-color" x="0%" y="0%" width="100%" height="100%">
<feColorMatrix color-interpolation-filters="sRGB" values="0 0 0 0 1 0 0 0 0 1 0 0 0 0 1 0 0 0 1 0" />
</filter>
<mask id="mask-0">
<g filter="url(#filter-remove-color)">
<rect x="-1.2" y="-1.2" width="14.4" height="14.4" fill="rgb(0%, 0%, 0%)" fill-opacity="0.953"/>
</g>
</mask>
<clipPath id="clip-0">
<path clip-rule="nonzero" d="M 0 0 L 12 0 L 12 12 L 0 12 Z M 0 0 "/>
</clipPath>
<clipPath id="clip-1">
<rect x="0" y="0" width="12" height="12"/>
</clipPath>
<g id="source-6" clip-path="url(#clip-1)">
<g clip-path="url(#clip-0)">
<path fill-rule="nonzero" fill="rgb(27.058824%, 50.980392%, 45.098039%)" fill-opacity="1" d="M 6 0 C 8.207031 -0.0976562 10.285156 1.027344 11.417969 2.921875 C 12.546875 4.820312 12.542969 7.183594 11.410156 9.078125 C 10.277344 10.96875 8.191406 12.089844 5.988281 11.988281 C 2.78125 11.839844 0.257812 9.199219 0.261719 5.988281 C 0.265625 2.777344 2.792969 0.140625 6 0 Z M 6 0 "/>
</g>
</g>
<mask id="mask-1">
<g filter="url(#filter-remove-color)">
<rect x="-1.2" y="-1.2" width="14.4" height="14.4" fill="rgb(0%, 0%, 0%)" fill-opacity="0.95"/>
</g>
</mask>
<clipPath id="clip-2">
<rect x="0" y="0" width="12" height="12"/>
</clipPath>
<g id="source-10" clip-path="url(#clip-2)">
<path fill-rule="evenodd" fill="rgb(56.470588%, 56.470588%, 56.470588%)" fill-opacity="1" d="M 6 11.398438 C 8.980469 11.398438 11.398438 8.980469 11.398438 6 C 11.398438 3.019531 8.980469 0.601562 6 0.601562 C 3.019531 0.601562 0.601562 3.019531 0.601562 6 C 0.601562 8.980469 3.019531 11.398438 6 11.398438 Z M 6 12 C 9.3125 12 12 9.3125 12 6 C 12 2.6875 9.3125 0 6 0 C 2.6875 0 0 2.6875 0 6 C 0 9.3125 2.6875 12 6 12 Z M 6 12 "/>
</g>
</defs>
<g mask="url(#mask-0)">
<use xlink:href="#source-6"/>
</g>
<g mask="url(#mask-1)">
<use xlink:href="#source-10"/>
</g>
</svg>
