<svg width="16" height="16" fill="none" version="1.1" viewBox="0 0 16 16" xmlns="http://www.w3.org/2000/svg">
 <path transform="matrix(.8 0 0 .8 1.6314 1.6)" d="m3.4688 1.9258a1.4804 1.4804 0 0 0-0.39648 1.832l2.666 5.2207h-3.8574a1.4804 1.4804 0 0 0-1.4805 1.4805v2.457a1.4804 1.4804 0 0 0 1.4805 1.4805h12.553a1.4804 1.4804 0 0 0 1.4805-1.4805v-2.457a1.4804 1.4804 0 0 0-1.4805-1.4805h-0.7168l-8.375-7.0293a1.4804 1.4804 0 0 0-1.873-0.023438z" fill="#ebe7e4" opacity=".8" stop-color="#000000" stroke-width="1.9531" style="-inkscape-stroke:none;font-variation-settings:normal"/>
</svg>
