<svg width="22" height="27" viewBox="0 0 22 27" fill="none" xmlns="http://www.w3.org/2000/svg">
<path opacity="0.708" fill-rule="evenodd" clip-rule="evenodd" d="M4.57812 22.9473C4.25947 22.9474 3.95068 22.8368 3.70451 22.6344C3.45835 22.4321 3.2901 22.1505 3.22852 21.8379L0.0566406 5.69336C0.0174253 5.49406 0.0228487 5.28855 0.0725211 5.09159C0.122193 4.89464 0.214881 4.71113 0.343922 4.55426C0.472964 4.3974 0.635154 4.27107 0.818835 4.18435C1.00252 4.09763 1.20313 4.05268 1.40625 4.05273H20.5938C20.7969 4.05268 20.9975 4.09763 21.1812 4.18435C21.3648 4.27107 21.527 4.3974 21.6561 4.55426C21.7851 4.71113 21.8778 4.89464 21.9275 5.09159C21.9772 5.28855 21.9826 5.49406 21.9434 5.69336L18.7715 21.8379C18.7099 22.1505 18.5416 22.4321 18.2955 22.6344C18.0493 22.8368 17.7405 22.9474 17.4219 22.9473H4.57812Z" fill="#515151"/>
<path fill-rule="evenodd" clip-rule="evenodd" d="M4.57867 21.5722H17.4213L20.5938 5.427H1.40625L4.57867 21.5722Z" fill="white"/>
</svg>
