<svg width="25" height="41" viewBox="0 0 25 41" fill="none" xmlns="http://www.w3.org/2000/svg">
<g clip-path="url(#clip0)">
<path d="M24.4751 0.560486H0.561272V7.56316H24.4751V0.560486Z" fill="white" stroke="#515151" stroke-width="1.08274"/>
<path d="M3.57214 5.69641C3.46301 5.78593 3.34926 5.85348 3.23087 5.89905C3.11248 5.94462 2.98895 5.96741 2.86026 5.96741C2.47628 5.96741 2.17207 5.79814 1.94765 5.45959C1.72323 5.11943 1.61102 4.65881 1.61102 4.07776C1.61102 3.49508 1.72323 3.03446 1.94765 2.69592C2.17207 2.35575 2.47628 2.18567 2.86026 2.18567C2.98895 2.18567 3.11248 2.20846 3.23087 2.25403C3.34926 2.2996 3.46301 2.36715 3.57214 2.45666V3.21106C3.46198 3.09224 3.35338 3.00517 3.24631 2.94983C3.13925 2.89449 3.02652 2.86682 2.90813 2.86682C2.69607 2.86682 2.52929 2.97424 2.40782 3.18909C2.28634 3.40393 2.2256 3.70015 2.2256 4.07776C2.2256 4.45374 2.28634 4.74915 2.40782 4.96399C2.52929 5.17883 2.69607 5.28626 2.90813 5.28626C3.02652 5.28626 3.13925 5.25859 3.24631 5.20325C3.35338 5.14791 3.46198 5.06083 3.57214 4.94202V5.69641V5.69641Z" fill="#515151"/>
<path d="M5.11941 2.86682C4.93823 2.86682 4.79771 2.97262 4.69785 3.1842C4.59799 3.39579 4.54806 3.69364 4.54806 4.07776C4.54806 4.46025 4.59799 4.75728 4.69785 4.96887C4.79771 5.18046 4.93823 5.28625 5.11941 5.28625C5.30163 5.28625 5.44266 5.18046 5.54252 4.96887C5.64238 4.75728 5.69231 4.46025 5.69231 4.07776C5.69231 3.69364 5.64238 3.39579 5.54252 3.1842C5.44266 2.97262 5.30163 2.86682 5.11941 2.86682ZM5.11941 2.18567C5.49002 2.18567 5.78033 2.35331 5.99034 2.6886C6.20035 3.02389 6.30535 3.48694 6.30535 4.07776C6.30535 4.66695 6.20035 5.12919 5.99034 5.46448C5.78033 5.79976 5.49002 5.96741 5.11941 5.96741C4.74984 5.96741 4.45953 5.79976 4.24849 5.46448C4.03848 5.12919 3.93348 4.66695 3.93348 4.07776C3.93348 3.48694 4.03848 3.02389 4.24849 2.6886C4.45953 2.35331 4.74984 2.18567 5.11941 2.18567V2.18567Z" fill="#515151"/>
<path d="M6.75317 2.25159H7.41717L8.25566 4.75159V2.25159H8.81929V5.89661H8.15529L7.31679 3.39661V5.89661H6.75317V2.25159V2.25159Z" fill="#515151"/>
<path d="M9.403 2.25159H10.067L10.9055 4.75159V2.25159H11.4691V5.89661H10.8051L9.96663 3.39661V5.89661H9.403V2.25159V2.25159Z" fill="#515151"/>
<path d="M12.0528 2.25159H13.6572V2.96204H12.6473V3.64075H13.597V4.3512H12.6473V5.18616H13.6912V5.89661H12.0528V2.25159V2.25159Z" fill="#515151"/>
<path d="M16.043 5.69641C15.9339 5.78593 15.8201 5.85348 15.7017 5.89905C15.5834 5.94462 15.4598 5.96741 15.3311 5.96741C14.9472 5.96741 14.6429 5.79814 14.4185 5.45959C14.1941 5.11943 14.0819 4.65881 14.0819 4.07776C14.0819 3.49508 14.1941 3.03446 14.4185 2.69592C14.6429 2.35575 14.9472 2.18567 15.3311 2.18567C15.4598 2.18567 15.5834 2.20846 15.7017 2.25403C15.8201 2.2996 15.9339 2.36715 16.043 2.45666V3.21106C15.9329 3.09224 15.8243 3.00517 15.7172 2.94983C15.6101 2.89449 15.4974 2.86682 15.379 2.86682C15.1669 2.86682 15.0002 2.97424 14.8787 3.18909C14.7572 3.40393 14.6965 3.70015 14.6965 4.07776C14.6965 4.45374 14.7572 4.74915 14.8787 4.96399C15.0002 5.17883 15.1669 5.28626 15.379 5.28626C15.4974 5.28626 15.6101 5.25859 15.7172 5.20325C15.8243 5.14791 15.9329 5.06083 16.043 4.94202V5.69641V5.69641Z" fill="#515151"/>
<path d="M16.2623 2.25159H18.3871V2.96204H17.6227V5.89661H17.0282V2.96204H16.2623V2.25159V2.25159Z" fill="#515151"/>
<path d="M19.746 2.86682C19.5648 2.86682 19.4243 2.97262 19.3244 3.1842C19.2246 3.39579 19.1746 3.69364 19.1746 4.07776C19.1746 4.46025 19.2246 4.75728 19.3244 4.96887C19.4243 5.18046 19.5648 5.28625 19.746 5.28625C19.9282 5.28625 20.0692 5.18046 20.1691 4.96887C20.2689 4.75728 20.3189 4.46025 20.3189 4.07776C20.3189 3.69364 20.2689 3.39579 20.1691 3.1842C20.0692 2.97262 19.9282 2.86682 19.746 2.86682V2.86682ZM19.746 2.18567C20.1166 2.18567 20.4069 2.35331 20.6169 2.6886C20.8269 3.02389 20.9319 3.48694 20.9319 4.07776C20.9319 4.66695 20.8269 5.12919 20.6169 5.46448C20.4069 5.79976 20.1166 5.96741 19.746 5.96741C19.3764 5.96741 19.0861 5.79976 18.8751 5.46448C18.665 5.12919 18.56 4.66695 18.56 4.07776C18.56 3.48694 18.665 3.02389 18.8751 2.6886C19.0861 2.35331 19.3764 2.18567 19.746 2.18567V2.18567Z" fill="#515151"/>
<path d="M22.2244 3.8678C22.349 3.8678 22.438 3.83118 22.4915 3.75793C22.5461 3.68469 22.5734 3.56425 22.5734 3.39661C22.5734 3.23059 22.5461 3.11178 22.4915 3.04016C22.438 2.96855 22.349 2.93274 22.2244 2.93274H21.9742V3.8678H22.2244V3.8678ZM21.9742 4.51721V5.89661H21.3797V2.25159H22.2877C22.5914 2.25159 22.8138 2.33215 22.9548 2.49329C23.0969 2.65442 23.1679 2.90914 23.1679 3.25745C23.1679 3.49833 23.1308 3.69609 23.0567 3.85071C22.9836 4.00533 22.873 4.11926 22.7247 4.1925C22.806 4.2218 22.8786 4.28853 22.9424 4.3927C23.0073 4.49524 23.0727 4.65149 23.1386 4.86145L23.4613 5.89661H22.8282L22.5471 4.99084C22.4905 4.80855 22.4329 4.68404 22.3742 4.61731C22.3165 4.55058 22.2393 4.51721 22.1426 4.51721H21.9742V4.51721Z" fill="#515151"/>
</g>
<defs>
<clipPath id="clip0">
<path d="M0 0H25V41H0V0Z" fill="white"/>
</clipPath>
</defs>
</svg>
