<?xml version="1.0" encoding="UTF-8"?>
<svg xmlns="http://www.w3.org/2000/svg" xmlns:xlink="http://www.w3.org/1999/xlink" width="12" height="12" viewBox="0 0 12 12">
<defs>
<filter id="filter-remove-color" x="0%" y="0%" width="100%" height="100%">
<feColorMatrix color-interpolation-filters="sRGB" values="0 0 0 0 1 0 0 0 0 1 0 0 0 0 1 0 0 0 1 0" />
</filter>
<mask id="mask-0">
<g filter="url(#filter-remove-color)">
<rect x="-1.2" y="-1.2" width="14.4" height="14.4" fill="rgb(0%, 0%, 0%)" fill-opacity="0.854"/>
</g>
</mask>
<clipPath id="clip-0">
<rect x="0" y="0" width="12" height="12"/>
</clipPath>
<g id="source-6" clip-path="url(#clip-0)">
<path fill-rule="nonzero" fill="rgb(92.156863%, 90.588235%, 89.411765%)" fill-opacity="1" d="M 9.636719 1.125 C 9.207031 1.125 8.816406 1.246094 8.453125 1.34375 C 8.144531 1.429688 8.042969 1.46875 7.890625 1.527344 C 7.59375 1.421875 7.273438 1.429688 6.863281 1.546875 C 6.175781 1.746094 5.820312 2.109375 5.621094 2.347656 C 5.546875 2.359375 5.535156 2.351562 5.4375 2.371094 C 5.210938 2.414062 4.984375 2.421875 4.65625 2.671875 C 4.441406 2.832031 4.359375 2.886719 4.195312 3.050781 C 4.207031 3.046875 4.214844 3.042969 4.273438 3.03125 C 4.289062 3.027344 4.347656 3.035156 4.375 3.03125 C 4.011719 3.042969 3.65625 3.339844 3.550781 3.574219 C 3.511719 3.660156 3.503906 3.726562 3.492188 3.796875 C 3.492188 3.796875 3.46875 3.792969 3.46875 3.796875 C 3.386719 3.855469 3.320312 3.929688 3.265625 4.015625 C 3.214844 4.101562 3.183594 4.199219 3.167969 4.296875 L 2.425781 9.960938 C 2.40625 10.101562 2.425781 10.246094 2.488281 10.375 C 2.546875 10.503906 2.644531 10.609375 2.765625 10.683594 C 2.765625 10.683594 3 10.792969 3.25 10.847656 C 3.496094 10.898438 3.84375 10.949219 4.355469 10.945312 C 4.863281 10.945312 5.199219 10.902344 5.4375 10.847656 C 5.558594 10.816406 5.65625 10.78125 5.738281 10.746094 C 5.824219 10.707031 5.941406 10.625 5.941406 10.625 C 6.035156 10.546875 6.109375 10.449219 6.152344 10.335938 C 6.199219 10.222656 6.214844 10.101562 6.203125 9.980469 L 5.621094 4.457031 C 5.726562 4.429688 5.824219 4.398438 5.902344 4.359375 C 5.921875 4.347656 5.941406 4.332031 5.960938 4.316406 C 6.210938 4.359375 6.601562 4.449219 7.226562 4.277344 C 7.460938 4.214844 7.640625 4.125 7.808594 3.976562 C 9.144531 3.9375 9.886719 3.8125 10.339844 3.394531 C 10.441406 3.300781 10.40625 3.160156 10.460938 3.03125 C 10.558594 2.988281 10.667969 2.96875 10.761719 2.871094 C 10.910156 2.714844 10.988281 2.476562 11.003906 2.269531 C 11.003906 2.253906 11.003906 2.242188 11.003906 2.230469 C 11 1.964844 10.898438 1.652344 10.703125 1.464844 C 10.503906 1.277344 10.269531 1.203125 10.078125 1.164062 C 9.929688 1.132812 9.78125 1.125 9.636719 1.125 Z M 9.636719 1.125 "/>
</g>
</defs>
<g mask="url(#mask-0)">
<use xlink:href="#source-6"/>
</g>
</svg>
