<svg width="45" height="27" viewBox="0 0 45 27" fill="none" xmlns="http://www.w3.org/2000/svg">
<g clip-path="url(#clip0)">
<path opacity="0.837" fill-rule="evenodd" clip-rule="evenodd" d="M22.6084 3.22076C22.3969 3.22135 22.1867 3.24041 21.9842 3.27733L1.55855 6.98482C1.10785 7.06688 0.712896 7.23428 0.432123 7.46225C0.15135 7.69023 -0.000333954 7.96668 -0.000488281 8.2507V18.7491C-0.000334116 19.0331 0.151349 19.3095 0.432123 19.5375C0.712896 19.7655 1.10785 19.9329 1.55855 20.0149L21.9842 23.7224C22.3989 23.7982 22.8414 23.7982 23.2561 23.7224L43.4473 20.0149C43.8969 19.9323 44.2906 19.7646 44.5702 19.5367C44.8499 19.3087 45.0007 19.0326 45.0005 18.7491V8.2507C45.0007 7.96713 44.8499 7.69102 44.5702 7.4631C44.2906 7.23517 43.8969 7.0675 43.4473 6.98482L23.2561 3.27733C23.0461 3.23903 22.8278 3.21996 22.6084 3.22076V3.22076Z" fill="#F1EAE4"/>
<path fill-rule="evenodd" clip-rule="evenodd" d="M1.31947 8.49939L22.6138 4.96735L43.6637 8.49939V18.5016L22.6138 22.0336L1.31947 18.5016L1.31947 8.49939Z" fill="#327AE6"/>
</g>
<defs>
<clipPath id="clip0">
<path d="M0 0H45V27H0V0Z" fill="white"/>
</clipPath>
</defs>
</svg>
