<svg width="32" height="32" viewBox="0 0 32 32" fill="none" xmlns="http://www.w3.org/2000/svg">
<path opacity="0.757463" d="M18.3437 1.40624C17.9925 1.4317 17.6559 1.55701 17.3736 1.7674C17.0912 1.97779 16.8749 2.26449 16.75 2.59374C16.7382 2.62475 16.7304 2.65645 16.7187 2.68749C12.8894 3.27466 9.92525 4.48679 7.96875 6.28124C5.7909 8.27871 4.7591 10.8304 4.5 13.2187C4.2409 15.6071 4.6712 17.8479 5.3125 19.625C5.33513 19.6877 5.3831 19.7197 5.40625 19.7812L4.46875 19.6875C4.15404 19.6472 3.83426 19.6887 3.54023 19.8079C3.2462 19.9271 2.98783 20.1201 2.79001 20.3681C2.59219 20.6162 2.46159 20.911 2.4108 21.2242C2.36 21.5374 2.39072 21.8584 2.5 22.1562C3.81886 25.8498 6.72722 27.7104 9.3125 28.4375C11.8978 29.1646 14.392 28.9687 15.0937 28.9687C17.2804 28.9687 20.0536 28.7169 22.625 28.1875C25.1964 27.6581 27.5257 27.1268 29.0938 25.4062C29.3269 25.1551 29.4856 24.844 29.5522 24.5078C29.6187 24.1716 29.5903 23.8236 29.4704 23.5025C29.3504 23.1815 29.1435 22.9002 28.8728 22.69C28.6021 22.4799 28.2782 22.3491 27.9375 22.3125L27.4688 22.25C27.6422 22.0669 27.7763 21.8502 27.8628 21.6133C27.9493 21.3764 27.9863 21.1242 27.9717 20.8725C27.9571 20.6207 27.891 20.3746 27.7776 20.1493C27.6643 19.924 27.506 19.7243 27.3125 19.5625C27.3623 19.6035 26.8565 19.1313 26.2812 18.4062C25.706 17.6812 24.952 16.6555 24.1875 15.2812C22.6585 12.5327 21.0321 8.46374 20.3125 2.99999C20.2492 2.5335 20.0102 2.10879 19.6443 1.81258C19.2784 1.51638 18.8132 1.37104 18.3437 1.40624V1.40624ZM10.75 20.0625C11.0236 19.9963 11.7121 20.191 12.5312 20.5937L10.5312 20.375C10.5375 20.3517 10.495 20.2299 10.5 20.2187C10.5308 20.15 10.5223 20.1176 10.75 20.0625Z" fill="#FEFEFE"/>
</svg>
