<?xml version="1.0" encoding="UTF-8"?>
<svg xmlns="http://www.w3.org/2000/svg" xmlns:xlink="http://www.w3.org/1999/xlink" width="12" height="12" viewBox="0 0 12 12">
<defs>
<filter id="filter-remove-color" x="0%" y="0%" width="100%" height="100%">
<feColorMatrix color-interpolation-filters="sRGB" values="0 0 0 0 1 0 0 0 0 1 0 0 0 0 1 0 0 0 1 0" />
</filter>
<mask id="mask-0">
<g filter="url(#filter-remove-color)">
<rect x="-1.2" y="-1.2" width="14.4" height="14.4" fill="rgb(0%, 0%, 0%)" fill-opacity="0.802"/>
</g>
</mask>
<clipPath id="clip-0">
<rect x="0" y="0" width="12" height="12"/>
</clipPath>
<g id="source-6" clip-path="url(#clip-0)">
<path fill-rule="nonzero" fill="rgb(92.156863%, 90.588235%, 89.411765%)" fill-opacity="1" d="M 3.71875 1.078125 C 3.320312 1.078125 2.902344 1.222656 2.605469 1.515625 C 2.308594 1.8125 2.15625 2.230469 2.15625 2.628906 C 2.15625 3.058594 2.335938 3.488281 2.636719 3.792969 C 2.800781 3.960938 3.007812 4.042969 3.21875 4.105469 C 3.117188 4.183594 2.988281 4.296875 2.933594 4.320312 C 2.929688 4.324219 2.925781 4.324219 2.921875 4.328125 C 2.699219 4.433594 2.425781 4.503906 2.078125 4.523438 C 1.878906 4.535156 1.691406 4.625 1.554688 4.769531 C 1.417969 4.910156 1.339844 5.105469 1.339844 5.304688 L 1.339844 5.65625 C 1.339844 5.851562 1.417969 6.042969 1.550781 6.1875 C 1.6875 6.332031 1.875 6.421875 2.070312 6.433594 C 2.1875 6.445312 2.214844 6.453125 2.261719 6.460938 L 2.25 7.332031 C 2.25 7.339844 2.25 7.347656 2.25 7.355469 L 2.253906 7.632812 L 2.25 7.933594 C 2.25 7.953125 2.25 7.972656 2.25 7.992188 C 2.261719 8.210938 2.269531 8.371094 2.269531 8.40625 C 2.269531 8.492188 2.265625 8.597656 2.257812 8.714844 C 2.253906 8.789062 2.253906 8.828125 2.253906 8.878906 L 1.945312 8.921875 C 1.753906 8.945312 1.574219 9.042969 1.449219 9.191406 C 1.328125 9.335938 1.261719 9.53125 1.265625 9.71875 L 1.277344 10.128906 C 1.285156 10.328125 1.371094 10.523438 1.515625 10.664062 C 1.660156 10.804688 1.859375 10.886719 2.058594 10.886719 C 2.1875 10.886719 2.316406 10.875 2.515625 10.863281 C 2.683594 10.847656 2.863281 10.839844 3.050781 10.839844 C 3.757812 10.839844 4.316406 10.851562 4.722656 10.875 C 4.726562 10.875 4.730469 10.875 4.738281 10.875 C 4.859375 10.878906 4.960938 10.886719 5.050781 10.886719 C 5.121094 10.886719 5.210938 10.882812 5.328125 10.878906 C 5.527344 10.871094 5.71875 10.785156 5.859375 10.644531 C 5.996094 10.503906 6.078125 10.308594 6.082031 10.109375 L 6.082031 10.046875 L 7.109375 10.046875 C 7.125 10.046875 7.144531 10.046875 7.164062 10.046875 C 7.179688 10.046875 7.195312 10.046875 7.210938 10.046875 L 7.375 10.046875 C 7.40625 10.046875 7.441406 10.042969 7.472656 10.039062 C 7.507812 10.042969 7.539062 10.046875 7.574219 10.046875 L 7.769531 10.046875 C 7.785156 10.046875 7.800781 10.046875 7.820312 10.046875 C 7.832031 10.046875 7.84375 10.046875 7.859375 10.046875 C 7.859375 10.046875 7.863281 10.046875 7.863281 10.046875 L 9.996094 10.046875 C 10.019531 10.046875 10.042969 10.046875 10.066406 10.042969 C 10.085938 10.046875 10.109375 10.046875 10.128906 10.046875 L 10.25 10.046875 C 10.453125 10.046875 10.65625 9.964844 10.800781 9.820312 C 10.945312 9.675781 11.03125 9.472656 11.03125 9.265625 L 11.03125 8.980469 C 11.03125 8.953125 11.03125 8.929688 11.027344 8.902344 C 11.03125 8.878906 11.03125 8.855469 11.03125 8.832031 L 11.03125 3.757812 C 11.03125 3.554688 10.945312 3.351562 10.800781 3.207031 C 10.65625 3.0625 10.453125 2.976562 10.25 2.976562 L 9.789062 2.976562 C 9.765625 2.976562 9.746094 2.976562 9.722656 2.980469 C 9.707031 2.976562 9.691406 2.976562 9.675781 2.976562 C 9.675781 2.976562 9.671875 2.976562 9.671875 2.976562 L 9.429688 2.976562 C 9.394531 2.976562 9.363281 2.980469 9.332031 2.984375 C 9.296875 2.980469 9.265625 2.976562 9.230469 2.976562 L 8.613281 2.976562 C 8.570312 2.976562 8.527344 2.984375 8.484375 2.988281 C 8.441406 2.984375 8.398438 2.976562 8.359375 2.976562 L 6.976562 2.976562 C 6.957031 2.976562 6.941406 2.976562 6.925781 2.980469 C 6.910156 2.976562 6.898438 2.976562 6.882812 2.976562 C 6.882812 2.976562 6.882812 2.976562 6.878906 2.976562 L 5.855469 2.976562 C 5.652344 2.976562 5.449219 3.0625 5.304688 3.207031 C 5.160156 3.351562 5.074219 3.554688 5.074219 3.757812 L 5.074219 4.136719 C 5.007812 4.019531 4.921875 3.914062 4.808594 3.839844 C 4.964844 3.703125 5.105469 3.546875 5.195312 3.351562 C 5.300781 3.121094 5.359375 2.863281 5.359375 2.605469 C 5.359375 2.1875 5.160156 1.785156 4.871094 1.515625 C 4.558594 1.222656 4.132812 1.078125 3.71875 1.078125 Z M 3.71875 1.078125 "/>
</g>
</defs>
<g mask="url(#mask-0)">
<use xlink:href="#source-6"/>
</g>
</svg>
