<?xml version="1.0" encoding="UTF-8"?>
<svg xmlns="http://www.w3.org/2000/svg" xmlns:xlink="http://www.w3.org/1999/xlink" width="12" height="12" viewBox="0 0 12 12">
<path fill-rule="nonzero" fill="rgb(68.235294%, 68.235294%, 0%)" fill-opacity="0.6" d="M 12 6 C 12 6.789062 11.84375 7.566406 11.542969 8.296875 C 11.242188 9.023438 10.800781 9.683594 10.242188 10.242188 C 9.6875 10.800781 9.023438 11.242188 8.296875 11.542969 C 7.570312 11.84375 6.789062 12 6 12 C 5.210938 12 4.429688 11.84375 3.703125 11.542969 C 2.976562 11.242188 2.3125 10.800781 1.757812 10.242188 C 1.199219 9.683594 0.757812 9.023438 0.457031 8.296875 C 0.15625 7.566406 0 6.789062 0 6 C 0 5.210938 0.15625 4.433594 0.457031 3.703125 C 0.757812 2.976562 1.199219 2.316406 1.757812 1.757812 C 2.3125 1.199219 2.976562 0.757812 3.703125 0.457031 C 4.429688 0.15625 5.210938 0 6 0 C 6.789062 0 7.570312 0.15625 8.296875 0.457031 C 9.023438 0.757812 9.6875 1.199219 10.242188 1.757812 C 10.800781 2.316406 11.242188 2.976562 11.542969 3.703125 C 11.84375 4.433594 12 5.210938 12 6 Z M 12 6 "/>
</svg>
