<?xml version="1.0" encoding="UTF-8"?>
<svg xmlns="http://www.w3.org/2000/svg" xmlns:xlink="http://www.w3.org/1999/xlink" width="12" height="12" viewBox="0 0 12 12">
<defs>
<filter id="filter-remove-color" x="0%" y="0%" width="100%" height="100%">
<feColorMatrix color-interpolation-filters="sRGB" values="0 0 0 0 1 0 0 0 0 1 0 0 0 0 1 0 0 0 1 0" />
</filter>
<mask id="mask-0">
<g filter="url(#filter-remove-color)">
<rect x="-1.2" y="-1.2" width="14.4" height="14.4" fill="rgb(0%, 0%, 0%)" fill-opacity="0.812"/>
</g>
</mask>
<clipPath id="clip-0">
<rect x="0" y="0" width="12" height="12"/>
</clipPath>
<g id="source-6" clip-path="url(#clip-0)">
<path fill-rule="nonzero" fill="rgb(92.156863%, 90.588235%, 89.411765%)" fill-opacity="1" d="M 3.164062 4.710938 C 3.054688 4.71875 2.945312 4.78125 2.882812 4.871094 C 2.886719 4.867188 2.859375 4.917969 2.863281 4.910156 C 2.867188 4.90625 2.839844 4.957031 2.84375 4.953125 C 2.847656 4.949219 2.820312 4.976562 2.824219 4.972656 C 2.820312 4.980469 2.824219 4.992188 2.824219 4.992188 C 2.824219 4.988281 2.800781 5.015625 2.804688 5.011719 C 2.804688 5.007812 2.800781 5.035156 2.804688 5.03125 C 2.804688 5.027344 2.78125 5.054688 2.785156 5.050781 C 2.785156 5.050781 2.78125 5.097656 2.785156 5.09375 C 2.785156 5.089844 2.761719 5.117188 2.761719 5.113281 C 2.765625 5.109375 2.761719 5.136719 2.761719 5.132812 C 2.765625 5.128906 2.761719 5.15625 2.761719 5.152344 C 2.765625 5.148438 2.761719 5.195312 2.761719 5.191406 C 2.765625 5.1875 2.742188 5.21875 2.742188 5.214844 C 2.742188 5.207031 2.742188 5.257812 2.742188 5.253906 C 2.742188 5.25 2.742188 5.296875 2.742188 5.292969 C 2.742188 5.289062 2.742188 5.339844 2.742188 5.332031 C 2.742188 5.328125 2.765625 5.359375 2.761719 5.355469 C 2.761719 5.378906 2.761719 5.40625 2.761719 5.433594 C 2.761719 5.429688 2.785156 5.480469 2.785156 5.472656 C 2.78125 5.46875 2.804688 5.5 2.804688 5.496094 C 2.800781 5.488281 2.824219 5.539062 2.824219 5.535156 C 2.820312 5.53125 2.847656 5.578125 2.84375 5.574219 C 2.84375 5.570312 2.84375 5.597656 2.84375 5.59375 L 2.785156 5.59375 C 2.785156 5.59375 2.773438 5.59375 2.761719 5.59375 C 2.753906 5.59375 2.742188 5.59375 2.742188 5.59375 C 2.746094 5.59375 2.71875 5.59375 2.722656 5.59375 C 2.6875 5.597656 2.65625 5.605469 2.621094 5.613281 C 2.625 5.613281 2.578125 5.636719 2.582031 5.636719 C 2.585938 5.632812 2.539062 5.65625 2.542969 5.65625 C 2.546875 5.652344 2.519531 5.675781 2.523438 5.675781 C 2.523438 5.675781 2.511719 5.691406 2.503906 5.695312 C 2.496094 5.699219 2.480469 5.695312 2.480469 5.695312 C 2.484375 5.691406 2.457031 5.71875 2.460938 5.714844 C 2.449219 5.722656 2.433594 5.726562 2.421875 5.734375 C 2.421875 5.734375 2.398438 5.757812 2.402344 5.753906 C 2.402344 5.753906 2.378906 5.757812 2.382812 5.753906 C 2.382812 5.753906 2.378906 5.777344 2.382812 5.777344 C 2.382812 5.773438 2.359375 5.777344 2.363281 5.777344 C 2.363281 5.773438 2.359375 5.796875 2.363281 5.796875 C 2.363281 5.792969 2.339844 5.796875 2.339844 5.796875 C 2.34375 5.792969 2.339844 5.816406 2.339844 5.816406 C 2.34375 5.8125 2.320312 5.839844 2.320312 5.835938 C 2.3125 5.847656 2.308594 5.863281 2.300781 5.875 C 2.304688 5.871094 2.277344 5.898438 2.28125 5.894531 C 2.285156 5.894531 2.257812 5.941406 2.261719 5.9375 C 2.261719 5.933594 2.238281 5.960938 2.242188 5.957031 C 2.242188 5.953125 2.21875 6 2.222656 5.996094 C 2.21875 6.023438 2.21875 6.050781 2.222656 6.078125 C 2.214844 6.082031 2.207031 6.089844 2.199219 6.097656 C 2.199219 6.09375 2.199219 6.121094 2.199219 6.117188 C 2.199219 6.113281 2.199219 6.140625 2.199219 6.136719 C 2.199219 6.144531 2.199219 6.160156 2.199219 6.15625 C 2.199219 6.15625 2.199219 6.199219 2.199219 6.199219 C 2.199219 6.195312 2.199219 6.21875 2.199219 6.21875 C 2.199219 6.214844 2.222656 6.242188 2.222656 6.238281 C 2.21875 6.234375 2.222656 6.261719 2.222656 6.257812 C 2.21875 6.277344 2.21875 6.296875 2.222656 6.316406 C 2.21875 6.3125 2.242188 6.363281 2.242188 6.359375 C 2.238281 6.355469 2.261719 6.382812 2.261719 6.378906 C 2.261719 6.375 2.257812 6.390625 2.261719 6.398438 C 2.261719 6.394531 2.28125 6.421875 2.28125 6.417969 C 2.28125 6.417969 2.28125 6.441406 2.28125 6.4375 C 2.285156 6.445312 2.300781 6.441406 2.300781 6.4375 C 2.304688 6.445312 2.300781 6.460938 2.300781 6.457031 C 2.300781 6.457031 2.324219 6.480469 2.320312 6.480469 C 2.320312 6.476562 2.324219 6.5 2.320312 6.5 C 2.320312 6.496094 2.34375 6.519531 2.339844 6.519531 C 2.339844 6.515625 2.363281 6.542969 2.363281 6.539062 C 2.359375 6.539062 2.382812 6.539062 2.382812 6.539062 C 2.378906 6.539062 2.382812 6.5625 2.382812 6.558594 L 2.179688 6.558594 C 2.183594 6.558594 2.167969 6.558594 2.160156 6.558594 C 2.152344 6.558594 2.140625 6.558594 2.140625 6.558594 C 2.144531 6.558594 2.117188 6.558594 2.121094 6.558594 C 2.121094 6.558594 2.097656 6.558594 2.101562 6.558594 C 2.101562 6.558594 2.058594 6.558594 2.058594 6.558594 C 2.0625 6.558594 2.039062 6.578125 2.039062 6.578125 C 2.042969 6.578125 2.019531 6.578125 2.019531 6.578125 C 1.652344 6.632812 1.605469 6.753906 1.464844 7.046875 C 1.320312 7.34375 1.558594 7.625 1.558594 7.625 C 1.558594 7.625 1.535156 7.625 1.539062 7.625 C 1.539062 7.625 1.496094 7.625 1.496094 7.625 C 1.5 7.625 1.457031 7.644531 1.457031 7.644531 C 1.460938 7.644531 1.414062 7.644531 1.417969 7.644531 C 1.417969 7.644531 1.394531 7.644531 1.398438 7.644531 C 1.398438 7.644531 1.355469 7.644531 1.355469 7.644531 C 1.359375 7.644531 1.335938 7.664062 1.335938 7.664062 C 1.339844 7.664062 1.296875 7.664062 1.296875 7.664062 C 1.296875 7.664062 1.273438 7.683594 1.277344 7.683594 C 1.277344 7.683594 1.234375 7.703125 1.238281 7.703125 C 1.238281 7.703125 1.214844 7.707031 1.214844 7.703125 C 1.21875 7.703125 1.195312 7.726562 1.195312 7.722656 C 1.199219 7.722656 1.15625 7.746094 1.15625 7.746094 C 1.15625 7.742188 1.132812 7.765625 1.136719 7.765625 C 1.136719 7.761719 1.113281 7.785156 1.117188 7.785156 C 1.117188 7.785156 1.09375 7.804688 1.097656 7.804688 C 1.097656 7.804688 1.054688 7.824219 1.054688 7.824219 C 1.058594 7.824219 1.035156 7.847656 1.035156 7.84375 C 1.035156 7.84375 1.015625 7.867188 1.015625 7.863281 C 1.015625 7.863281 0.996094 7.90625 0.996094 7.90625 C 0.996094 7.902344 0.996094 7.925781 0.996094 7.925781 C 0.996094 7.925781 0.972656 7.945312 0.976562 7.945312 C 0.976562 7.945312 0.953125 7.988281 0.957031 7.984375 C 0.957031 7.984375 0.933594 8.007812 0.933594 8.003906 C 0.9375 8.003906 0.933594 8.046875 0.933594 8.046875 C 0.9375 8.042969 0.914062 8.066406 0.914062 8.066406 C 0.914062 8.0625 0.914062 8.109375 0.914062 8.105469 C 0.914062 8.105469 0.894531 8.128906 0.894531 8.125 C 0.894531 8.125 0.894531 8.167969 0.894531 8.167969 C 0.894531 8.164062 0.894531 8.1875 0.894531 8.1875 C 0.894531 8.183594 0.875 8.226562 0.875 8.226562 C 0.875 8.226562 0.875 8.25 0.875 8.246094 C 0.875 8.246094 0.875 8.289062 0.875 8.285156 C 0.875 8.285156 0.875 8.308594 0.875 8.308594 C 0.875 8.304688 0.894531 8.347656 0.894531 8.347656 C 0.894531 8.34375 0.894531 8.390625 0.894531 8.386719 C 0.894531 8.386719 0.894531 8.410156 0.894531 8.40625 C 0.894531 8.40625 0.894531 8.449219 0.894531 8.449219 C 0.894531 8.445312 0.914062 8.46875 0.914062 8.46875 C 0.914062 8.464844 0.914062 8.507812 0.914062 8.507812 C 0.914062 8.507812 0.9375 8.53125 0.933594 8.527344 C 0.933594 8.527344 0.957031 8.570312 0.957031 8.566406 C 0.953125 8.566406 0.957031 8.589844 0.957031 8.589844 C 0.953125 8.585938 0.976562 8.609375 0.976562 8.609375 C 0.972656 8.605469 0.996094 8.648438 0.996094 8.648438 C 0.996094 8.648438 1.015625 8.671875 1.015625 8.667969 C 1.015625 8.667969 1.035156 8.691406 1.035156 8.6875 C 1.035156 8.6875 1.058594 8.710938 1.054688 8.707031 C 1.054688 8.707031 1.078125 8.75 1.074219 8.75 C 1.074219 8.746094 1.097656 8.769531 1.097656 8.769531 C 1.09375 8.769531 1.117188 8.789062 1.117188 8.789062 C 1.113281 8.789062 1.15625 8.808594 1.15625 8.808594 C 1.15625 8.808594 1.175781 8.808594 1.175781 8.808594 C 1.175781 8.808594 1.199219 8.832031 1.195312 8.828125 C 1.195312 8.828125 1.238281 8.851562 1.238281 8.851562 C 1.234375 8.847656 1.257812 8.871094 1.257812 8.871094 C 1.253906 8.867188 1.296875 8.871094 1.296875 8.871094 C 1.296875 8.867188 1.316406 8.890625 1.316406 8.890625 C 1.316406 8.890625 1.359375 8.890625 1.355469 8.890625 C 1.355469 8.890625 1.378906 8.910156 1.378906 8.910156 C 1.375 8.910156 1.417969 8.910156 1.417969 8.910156 C 1.414062 8.910156 1.4375 8.910156 1.4375 8.910156 C 1.4375 8.910156 1.480469 8.929688 1.476562 8.929688 C 1.476562 8.929688 1.5 8.929688 1.496094 8.929688 C 1.496094 8.929688 1.539062 8.929688 1.539062 8.929688 C 1.535156 8.929688 1.558594 8.929688 1.558594 8.929688 L 10.4375 8.929688 C 10.4375 8.929688 11.101562 8.976562 11.097656 8.28125 C 11.089844 7.589844 10.4375 7.625 10.4375 7.625 L 10.238281 7.625 C 10.234375 7.625 10.257812 7.601562 10.257812 7.605469 C 10.253906 7.605469 10.277344 7.582031 10.277344 7.582031 C 10.273438 7.585938 10.300781 7.5625 10.296875 7.5625 C 10.296875 7.566406 10.320312 7.523438 10.316406 7.523438 C 10.316406 7.527344 10.339844 7.5 10.335938 7.503906 C 10.335938 7.503906 10.359375 7.480469 10.359375 7.484375 C 10.355469 7.484375 10.378906 7.460938 10.378906 7.464844 C 10.375 7.464844 10.378906 7.421875 10.378906 7.421875 C 10.375 7.425781 10.398438 7.402344 10.398438 7.402344 C 10.398438 7.40625 10.417969 7.359375 10.417969 7.363281 C 10.417969 7.367188 10.417969 7.339844 10.417969 7.34375 C 10.417969 7.34375 10.4375 7.320312 10.4375 7.324219 C 10.4375 7.324219 10.4375 7.28125 10.4375 7.28125 C 10.4375 7.285156 10.4375 7.261719 10.4375 7.261719 C 10.4375 7.265625 10.4375 7.21875 10.4375 7.222656 C 10.4375 7.226562 10.4375 7.199219 10.4375 7.203125 C 10.4375 7.203125 10.457031 7.160156 10.457031 7.160156 C 10.457031 7.164062 10.4375 7.121094 10.4375 7.121094 C 10.4375 7.125 10.4375 7.097656 10.4375 7.101562 C 10.4375 7.105469 10.4375 7.058594 10.4375 7.0625 C 10.4375 7.0625 10.4375 7.039062 10.4375 7.042969 C 10.4375 7.042969 10.4375 7 10.4375 7 C 10.4375 7.003906 10.417969 6.980469 10.417969 6.980469 C 10.417969 6.984375 10.417969 6.957031 10.417969 6.960938 C 10.417969 6.964844 10.398438 6.917969 10.398438 6.921875 C 10.398438 6.921875 10.375 6.898438 10.378906 6.902344 C 10.378906 6.902344 10.375 6.859375 10.378906 6.859375 C 10.378906 6.863281 10.355469 6.839844 10.359375 6.839844 C 10.359375 6.84375 10.335938 6.816406 10.335938 6.820312 C 10.339844 6.824219 10.316406 6.796875 10.316406 6.800781 C 10.320312 6.800781 10.296875 6.757812 10.296875 6.761719 C 10.300781 6.761719 10.273438 6.738281 10.277344 6.738281 C 10.277344 6.742188 10.253906 6.71875 10.257812 6.71875 C 10.257812 6.722656 10.234375 6.699219 10.238281 6.699219 C 10.238281 6.703125 10.214844 6.679688 10.21875 6.679688 C 10.21875 6.679688 10.175781 6.660156 10.175781 6.660156 C 10.179688 6.660156 10.15625 6.660156 10.15625 6.660156 C 10.160156 6.660156 10.132812 6.636719 10.136719 6.640625 C 10.140625 6.640625 10.09375 6.617188 10.097656 6.621094 C 10.097656 6.621094 10.074219 6.617188 10.078125 6.621094 C 10.078125 6.621094 10.054688 6.597656 10.054688 6.597656 C 10.058594 6.601562 10.011719 6.597656 10.015625 6.597656 C 10.019531 6.601562 9.992188 6.578125 9.996094 6.578125 C 10 6.578125 9.953125 6.578125 9.957031 6.578125 C 9.957031 6.578125 9.933594 6.578125 9.9375 6.578125 C 9.9375 6.578125 9.894531 6.558594 9.894531 6.558594 C 9.898438 6.558594 9.871094 6.558594 9.875 6.558594 C 9.878906 6.558594 9.832031 6.558594 9.835938 6.558594 L 9.613281 6.558594 C 9.613281 6.5625 9.617188 6.539062 9.613281 6.539062 C 9.613281 6.542969 9.636719 6.539062 9.632812 6.539062 C 9.632812 6.542969 9.65625 6.515625 9.65625 6.519531 C 9.652344 6.519531 9.675781 6.496094 9.675781 6.5 C 9.671875 6.5 9.675781 6.476562 9.675781 6.480469 C 9.671875 6.480469 9.695312 6.457031 9.695312 6.457031 C 9.695312 6.460938 9.691406 6.445312 9.695312 6.4375 C 9.691406 6.441406 9.714844 6.414062 9.714844 6.417969 C 9.714844 6.421875 9.734375 6.394531 9.734375 6.398438 C 9.738281 6.390625 9.734375 6.378906 9.734375 6.378906 C 9.734375 6.382812 9.757812 6.355469 9.753906 6.359375 C 9.753906 6.363281 9.777344 6.3125 9.773438 6.316406 C 9.785156 6.285156 9.792969 6.25 9.796875 6.21875 C 9.792969 6.222656 9.796875 6.195312 9.796875 6.199219 C 9.796875 6.199219 9.796875 6.1875 9.796875 6.175781 C 9.796875 6.179688 9.796875 6.167969 9.796875 6.15625 C 9.792969 6.148438 9.792969 6.136719 9.796875 6.136719 C 9.796875 6.140625 9.773438 6.113281 9.773438 6.117188 C 9.777344 6.121094 9.773438 6.074219 9.773438 6.078125 C 9.777344 6.082031 9.773438 6.03125 9.773438 6.035156 C 9.777344 6.039062 9.753906 6.011719 9.753906 6.015625 C 9.757812 6.019531 9.753906 5.972656 9.753906 5.976562 C 9.757812 5.980469 9.734375 5.953125 9.734375 5.957031 C 9.734375 5.957031 9.738281 5.941406 9.734375 5.9375 C 9.734375 5.941406 9.710938 5.914062 9.714844 5.917969 C 9.714844 5.921875 9.691406 5.871094 9.695312 5.875 C 9.695312 5.878906 9.671875 5.851562 9.675781 5.855469 C 9.667969 5.84375 9.660156 5.828125 9.65625 5.816406 C 9.65625 5.816406 9.632812 5.792969 9.632812 5.796875 C 9.636719 5.796875 9.632812 5.773438 9.632812 5.777344 C 9.628906 5.769531 9.613281 5.773438 9.613281 5.777344 C 9.617188 5.777344 9.613281 5.753906 9.613281 5.753906 C 9.609375 5.75 9.59375 5.753906 9.59375 5.753906 C 9.597656 5.757812 9.59375 5.734375 9.59375 5.734375 C 9.597656 5.738281 9.570312 5.734375 9.574219 5.734375 C 9.574219 5.738281 9.550781 5.714844 9.554688 5.714844 C 9.539062 5.707031 9.527344 5.703125 9.515625 5.695312 C 9.515625 5.699219 9.488281 5.671875 9.492188 5.675781 C 9.496094 5.675781 9.449219 5.652344 9.453125 5.65625 C 9.457031 5.65625 9.429688 5.632812 9.433594 5.636719 C 9.4375 5.636719 9.390625 5.613281 9.394531 5.613281 C 9.367188 5.613281 9.339844 5.613281 9.3125 5.613281 C 9.316406 5.617188 9.289062 5.59375 9.292969 5.59375 C 9.296875 5.59375 9.25 5.59375 9.253906 5.59375 C 9.253906 5.59375 9.242188 5.59375 9.234375 5.59375 L 9.132812 5.59375 C 9.148438 5.578125 9.160156 5.554688 9.171875 5.535156 C 9.171875 5.539062 9.195312 5.511719 9.191406 5.515625 C 9.191406 5.519531 9.195312 5.492188 9.191406 5.496094 C 9.191406 5.496094 9.214844 5.472656 9.210938 5.472656 C 9.210938 5.476562 9.214844 5.429688 9.210938 5.433594 C 9.210938 5.4375 9.234375 5.410156 9.234375 5.414062 C 9.230469 5.417969 9.234375 5.390625 9.234375 5.394531 C 9.230469 5.398438 9.234375 5.371094 9.234375 5.375 C 9.230469 5.378906 9.234375 5.332031 9.234375 5.332031 C 9.230469 5.339844 9.253906 5.308594 9.253906 5.3125 C 9.253906 5.316406 9.253906 5.269531 9.253906 5.273438 C 9.253906 5.277344 9.253906 5.230469 9.253906 5.234375 C 9.253906 5.238281 9.253906 5.1875 9.253906 5.191406 C 9.253906 5.199219 9.230469 5.167969 9.234375 5.171875 C 9.234375 5.152344 9.234375 5.132812 9.234375 5.113281 C 9.234375 5.117188 9.230469 5.089844 9.234375 5.09375 C 9.234375 5.097656 9.210938 5.070312 9.210938 5.074219 C 9.214844 5.074219 9.210938 5.027344 9.210938 5.03125 C 9.214844 5.035156 9.191406 5.007812 9.191406 5.011719 C 9.195312 5.015625 9.171875 4.988281 9.171875 4.992188 C 9.175781 4.996094 9.171875 4.96875 9.171875 4.972656 C 9.175781 4.976562 9.148438 4.949219 9.152344 4.953125 C 9.152344 4.953125 9.128906 4.910156 9.132812 4.910156 C 9.132812 4.914062 9.109375 4.890625 9.113281 4.890625 C 9.113281 4.894531 9.089844 4.867188 9.09375 4.871094 C 9.09375 4.875 9.070312 4.847656 9.070312 4.851562 C 9.074219 4.855469 9.046875 4.847656 9.050781 4.851562 C 9.054688 4.855469 9.027344 4.828125 9.03125 4.832031 C 9.035156 4.832031 9.007812 4.808594 9.011719 4.8125 C 9.015625 4.8125 8.988281 4.789062 8.992188 4.792969 C 8.996094 4.792969 8.96875 4.789062 8.972656 4.792969 C 8.972656 4.792969 8.949219 4.769531 8.953125 4.769531 C 8.953125 4.773438 8.929688 4.769531 8.929688 4.769531 C 8.933594 4.773438 8.90625 4.75 8.910156 4.75 C 8.914062 4.753906 8.867188 4.75 8.871094 4.75 C 8.875 4.753906 8.847656 4.730469 8.851562 4.730469 C 8.855469 4.730469 8.828125 4.730469 8.832031 4.730469 C 8.835938 4.730469 8.808594 4.730469 8.808594 4.730469 C 8.8125 4.730469 8.765625 4.730469 8.769531 4.730469 C 8.757812 4.722656 8.742188 4.71875 8.730469 4.710938 L 3.304688 4.710938 C 3.308594 4.710938 3.296875 4.710938 3.285156 4.710938 C 3.277344 4.710938 3.261719 4.710938 3.265625 4.710938 C 3.269531 4.710938 3.253906 4.710938 3.246094 4.710938 C 3.234375 4.710938 3.222656 4.710938 3.226562 4.710938 C 3.226562 4.710938 3.214844 4.710938 3.207031 4.710938 C 3.195312 4.710938 3.183594 4.710938 3.183594 4.710938 C 3.191406 4.710938 3.160156 4.710938 3.164062 4.710938 Z M 3.164062 4.710938 "/>
</g>
</defs>
<g mask="url(#mask-0)">
<use xlink:href="#source-6"/>
</g>
</svg>
