<?xml version="1.0" encoding="UTF-8"?>
<svg xmlns="http://www.w3.org/2000/svg" xmlns:xlink="http://www.w3.org/1999/xlink" width="12" height="12" viewBox="0 0 12 12">
<defs>
<filter id="filter-remove-color" x="0%" y="0%" width="100%" height="100%">
<feColorMatrix color-interpolation-filters="sRGB" values="0 0 0 0 1 0 0 0 0 1 0 0 0 0 1 0 0 0 1 0" />
</filter>
<mask id="mask-0">
<g filter="url(#filter-remove-color)">
<rect x="-1.2" y="-1.2" width="14.4" height="14.4" fill="rgb(0%, 0%, 0%)" fill-opacity="0.807"/>
</g>
</mask>
<clipPath id="clip-0">
<rect x="0" y="0" width="12" height="12"/>
</clipPath>
<g id="source-6" clip-path="url(#clip-0)">
<path fill-rule="nonzero" fill="rgb(92.156863%, 90.588235%, 89.411765%)" fill-opacity="1" d="M 4.746094 0.90625 C 3.964844 0.90625 3.328125 1.542969 3.328125 2.324219 C 3.328125 2.59375 3.488281 2.800781 3.625 3.015625 L 3.179688 3.015625 C 2.871094 3.015625 2.585938 3.152344 2.394531 3.429688 C 2.230469 3.667969 2.183594 3.902344 2.183594 4.152344 C 2.183594 4.339844 2.257812 4.519531 2.34375 4.703125 L 2.03125 4.703125 C 1.863281 4.703125 1.703125 4.769531 1.585938 4.886719 C 1.464844 5.007812 1.398438 5.167969 1.398438 5.335938 L 1.398438 6.960938 L 1.402344 6.90625 C 1.398438 6.964844 1.398438 7.019531 1.402344 7.078125 L 1.398438 7.023438 L 1.398438 10.277344 C 1.398438 10.867188 1.800781 11.273438 2.394531 11.273438 C 2.988281 11.273438 3.371094 10.824219 3.371094 10.277344 L 3.371094 9.082031 L 5.277344 9.082031 L 5.277344 10.296875 L 5.289062 10.160156 C 5.148438 10.800781 5.601562 11.351562 6.25 11.351562 C 6.902344 11.351562 7.355469 10.800781 7.210938 10.160156 L 7.226562 10.296875 L 7.226562 7.042969 L 7.222656 7.097656 C 7.230469 7.042969 7.230469 6.984375 7.222656 6.925781 L 7.226562 6.984375 L 7.226562 5.335938 C 7.226562 5.246094 7.207031 5.160156 7.171875 5.078125 C 7.289062 4.996094 7.472656 4.964844 7.539062 4.871094 C 7.722656 4.597656 7.703125 4.449219 7.707031 4.363281 L 10.308594 4.363281 C 10.566406 4.363281 10.792969 4.300781 11.019531 4.078125 C 11.195312 3.898438 11.304688 3.644531 11.304688 3.386719 C 11.304688 3.128906 11.195312 2.878906 11.019531 2.699219 C 10.792969 2.472656 10.566406 2.410156 10.308594 2.410156 L 9.535156 2.410156 L 9.535156 1.78125 C 9.535156 1.613281 9.46875 1.449219 9.351562 1.332031 C 9.230469 1.214844 9.070312 1.144531 8.902344 1.144531 L 8.300781 1.144531 C 8.15625 1.144531 8.015625 1.195312 7.902344 1.285156 L 7.875 1.308594 L 7.265625 1.308594 L 7.183594 1.253906 C 7.082031 1.183594 6.957031 1.144531 6.832031 1.144531 L 6.25 1.144531 C 6.15625 1.144531 6.0625 1.167969 5.976562 1.207031 C 5.890625 1.25 5.816406 1.308594 5.757812 1.382812 C 5.503906 1.097656 5.15625 0.90625 4.746094 0.90625 Z M 4.746094 0.90625 "/>
</g>
</defs>
<g mask="url(#mask-0)">
<use xlink:href="#source-6"/>
</g>
</svg>
