<svg width="16" height="16" viewBox="0 0 16 16" fill="none" xmlns="http://www.w3.org/2000/svg">
<path opacity="0.804" d="M5.48633 1.71682C5.21883 1.71836 5.02602 1.72123 4.88672 1.72463C4.81707 1.72633 4.7609 1.7275 4.70899 1.73049C4.65708 1.73348 4.6941 1.70095 4.45117 1.77151C4.09714 1.87434 3.93234 1.97935 3.70313 2.28323C3.50779 2.54219 3.51119 2.67342 3.48828 2.82034C3.46537 2.96725 3.4447 3.09813 3.50391 3.33401C3.5804 3.6388 3.7036 3.75486 3.81836 3.87307C3.93312 3.99128 4.05588 4.08707 4.22266 4.16995C4.27699 4.19695 4.5959 4.29839 4.78711 4.30862C4.97832 4.31884 5.22814 4.31891 5.74219 4.32229H5.90039C5.90039 4.32229 5.99917 4.31941 6.02735 4.47659C6.18762 4.77606 6.49599 4.89639 6.69532 4.94924V5.1094L5.9336 5.11135C5.71323 5.11193 5.5012 5.19563 5.33985 5.34572L5.28125 5.40041C5.2806 5.40106 5.27995 5.40171 5.2793 5.40236C5.25059 5.42932 4.98612 5.83367 4.96094 6.0215C4.93577 6.20934 4.94532 6.28714 4.94532 6.47854C4.94532 6.66834 4.93753 6.75254 4.96094 6.93166C4.97989 7.07667 5.12112 7.29963 5.20118 7.4219C5.19129 7.43091 5.1839 7.43417 5.17383 7.44338C5.16147 7.43319 5.16743 7.41969 5.1543 7.41018C4.87972 7.21115 4.68359 7.22342 4.56836 7.21682C4.45313 7.21022 4.3717 7.21291 4.26758 7.21291C4.12949 7.21291 4.02424 7.21351 3.91992 7.22072C3.86776 7.22432 3.81822 7.22917 3.74024 7.24416C3.69969 7.25196 3.56515 7.34827 3.48633 7.37502C3.48571 7.37463 3.48497 7.37344 3.48438 7.37307C3.44142 7.34607 3.40647 7.32788 3.37695 7.31448C3.31793 7.28768 3.28028 7.27682 3.24805 7.2676C3.18358 7.24917 3.14499 7.24351 3.11133 7.23831C3.04402 7.22789 2.99667 7.22411 2.94531 7.22073C2.8426 7.21397 2.73545 7.21096 2.62695 7.21096C2.51845 7.21096 2.41326 7.21396 2.31055 7.22073C2.25919 7.22411 2.21185 7.22789 2.14453 7.23831C2.11088 7.24352 2.07229 7.24917 2.00781 7.2676C1.97558 7.27681 1.93793 7.28768 1.87891 7.31448C1.84939 7.32788 1.81444 7.34607 1.77149 7.37307C1.72853 7.40007 1.61583 7.49552 1.61524 7.49612C1.4743 7.63708 1.4992 7.67506 1.47656 7.74612C1.46156 7.74703 1.44658 7.74834 1.43164 7.75003L1.47461 7.74807C1.43164 7.75003 1.3445 7.76055 1.33203 7.76174C1.13622 7.79936 0.959134 7.90272 0.830079 8.05471L0.775391 8.11916L0.720704 8.18362C0.586763 8.34193 0.513393 8.54266 0.513673 8.75002V10.25V11.75C0.513929 11.9873 0.610496 12.2142 0.781251 12.3789L0.826173 12.4239C0.826437 12.4241 0.829786 12.4255 0.830079 12.4258C0.874198 12.4682 1.23749 12.6953 1.41797 12.7208C1.42529 12.7218 1.42854 12.7198 1.43555 12.7208C1.45933 12.788 1.46437 12.8472 1.61523 12.9981C1.91933 13.3017 2.02164 13.2348 2.09961 13.2501C2.17758 13.2653 2.22762 13.2679 2.2793 13.2715C2.38264 13.2789 2.4853 13.2813 2.61914 13.2813C2.77213 13.2813 2.86864 13.2824 2.99219 13.2715C3.07434 13.2643 3.2563 13.1645 3.41797 13.084C3.54044 13.1517 3.68506 13.24 3.73633 13.2501C3.81429 13.2653 3.86434 13.2679 3.91602 13.2715C4.01936 13.2789 4.12202 13.2813 4.25586 13.2813C4.40885 13.2813 4.50506 13.2825 4.62891 13.2715C4.73955 13.2617 4.98308 13.1931 5.19922 13.0196C5.66414 13.4564 5.96519 13.6852 6.3418 13.8731C6.77608 14.0898 7.26136 14.1855 7.80078 14.2188C7.86545 14.2228 7.98944 14.2343 7.9043 14.2247C8.10972 14.2482 8.12339 14.2321 8.21094 14.2267C8.29849 14.2213 8.39475 14.2131 8.49414 14.2033C8.69293 14.1836 8.8623 14.168 9.05859 14.1251C9.34639 14.0623 9.61344 13.9657 9.89063 13.8263C10.1969 13.6723 10.5022 13.4019 10.8848 13.0451C11.0839 13.1786 11.301 13.2629 11.4004 13.2716C11.5239 13.2825 11.6204 13.2814 11.7734 13.2814C11.9072 13.2814 12.0099 13.279 12.1133 13.2716C12.165 13.2679 12.2149 13.2654 12.293 13.2501C12.3424 13.2404 12.4857 13.1489 12.5996 13.09C12.7553 13.1644 12.9318 13.2645 13.0117 13.2716C13.1355 13.2826 13.2317 13.2814 13.3848 13.2814C13.5186 13.2814 13.6212 13.279 13.7246 13.2716C13.7763 13.2679 13.8262 13.2654 13.9043 13.2501C13.9823 13.2349 14.0847 13.3022 14.3887 12.9982C14.5466 12.8405 14.5224 12.7962 14.541 12.7228C14.5578 12.7208 14.5672 12.7235 14.5859 12.7208C14.7664 12.6954 15.1298 12.4681 15.1738 12.4259L15.2227 12.379C15.3934 12.2143 15.49 11.9873 15.4902 11.75V10.2461V8.74416C15.4904 8.51202 15.3984 8.2893 15.2344 8.12502L15.168 8.05862L15.1016 7.99221C14.9472 7.83858 14.741 7.74805 14.5234 7.73831C14.4997 7.66794 14.5256 7.63301 14.3887 7.49612C14.0821 7.18957 13.9804 7.25928 13.9023 7.24416C13.8243 7.22905 13.7747 7.22436 13.7227 7.22073C13.6186 7.21347 13.5137 7.21292 13.377 7.21292C13.2402 7.21292 13.1353 7.21352 13.0313 7.22073C12.9792 7.22433 12.9292 7.22928 12.8516 7.24416C12.8069 7.25273 12.6655 7.34847 12.5703 7.3887C12.4745 7.34822 12.3319 7.25268 12.2871 7.24416C12.2095 7.22941 12.1596 7.22431 12.1074 7.22073C12.0031 7.21357 11.8979 7.21292 11.7598 7.21292C11.6556 7.21292 11.5743 7.2102 11.459 7.21683C11.356 7.22275 11.165 7.25068 10.9336 7.39261C11.0349 7.22773 11.1381 7.02867 11.1504 6.92581C11.1666 6.79029 11.1667 6.69147 11.1699 6.52347C11.1742 6.30056 11.212 6.17698 11.1172 5.85745C11.0698 5.69768 10.9306 5.46572 10.7598 5.33596C10.5889 5.2062 10.4574 5.17621 10.3887 5.15627C10.1832 5.09665 10.199 5.12025 10.1543 5.11721C10.1096 5.11417 10.0656 5.11296 10.0137 5.11135C9.90972 5.10814 9.77363 5.10498 9.5957 5.10354C9.53698 5.10307 9.39999 5.10386 9.33203 5.10354V5.01565C9.32792 4.85522 9.33203 4.97084 9.33203 4.90627C9.43931 4.88024 9.39104 4.92273 9.61524 4.83792C9.93625 4.71876 10.0202 4.52151 10.1289 4.32229H10.2871C10.3001 4.32193 10.3132 4.32128 10.3262 4.32034C10.8071 4.29592 11.0396 4.29471 11.1894 4.293C11.2644 4.29214 11.3199 4.29326 11.4199 4.28323C11.5199 4.2732 11.6879 4.22902 11.7812 4.18557C12.1749 4.00227 12.5366 3.60189 12.5703 3.09573C12.6039 2.59055 12.2843 2.13351 11.9062 1.91018L11.8008 1.84768C11.6666 1.76785 11.5135 1.72537 11.3574 1.72463L8.07227 1.71682C6.84919 1.71431 6.02133 1.71374 5.48633 1.71682V1.71682Z" fill="#EBE7E4"/>
</svg>
