<svg width="16" height="16" viewBox="0 0 16 16" fill="none" xmlns="http://www.w3.org/2000/svg">
<path fill-rule="evenodd" clip-rule="evenodd" d="M9.45254 1.20667C8.38536 1.20684 7.32414 1.64578 6.56953 2.40038C5.81493 3.15499 5.37599 4.21622 5.37581 5.28339V5.28506C5.37708 6.12885 5.71913 6.9219 6.2079 7.60888C5.90076 8.14067 5.53098 8.83222 5.62695 9.78034C5.6294 9.80334 5.63275 9.82624 5.63699 9.84898C5.79975 10.7479 5.84143 11.3875 5.80441 11.7911C5.7674 12.1946 5.68364 12.3302 5.58174 12.439C5.37794 12.6565 4.78142 12.8941 3.51633 13.2209C1.78945 13.7349 1.77538 14.6867 3.79033 14.9118C3.73323 14.9228 3.73944 14.9195 3.75517 14.9185C3.78663 14.9165 3.87915 14.9124 3.99458 14.9101C4.22544 14.9055 4.56511 14.9009 4.94554 14.8766C5.70639 14.8281 6.62207 14.7588 7.42506 14.2672C8.04755 13.8861 8.84225 13.04 8.90507 11.6873C8.93379 11.0688 8.90564 10.7171 8.89167 10.4952C8.87861 10.2878 8.8797 10.1683 8.92683 9.82552C8.98571 9.55696 9.14673 9.46319 9.27507 9.34502C9.33393 9.34774 9.39194 9.3616 9.45086 9.36176H9.45253C10.5204 9.36218 11.5821 8.92319 12.3372 8.16808C13.0923 7.41297 13.5313 6.35129 13.5309 5.2834C13.5308 4.21587 13.0906 3.15506 12.3355 2.4004C11.5805 1.64574 10.5201 1.2063 9.45253 1.20668L9.45254 1.20667Z" fill="white"/>
</svg>
