<svg width="33" height="24" viewBox="0 0 33 24" fill="none" xmlns="http://www.w3.org/2000/svg">
<g clip-path="url(#clip0)">
<path opacity="0.704" fill-rule="evenodd" clip-rule="evenodd" d="M16.3691 1.00977C16.1994 1.00708 16.0304 1.03283 15.8691 1.08595L1.02539 5.95509C0.81975 6.02261 0.63089 6.13326 0.471434 6.27962C0.311977 6.42598 0.185596 6.60469 0.100737 6.80381C0.0158769 7.00292 -0.0255069 7.21785 -0.0206492 7.43424C-0.0157914 7.65063 0.035196 7.8635 0.128906 8.0586L5.62109 19.502C5.74505 19.7604 5.93953 19.9786 6.18212 20.1314C6.42471 20.2841 6.70552 20.3652 6.99219 20.3652H25.6953C25.982 20.3652 26.2628 20.2841 26.5054 20.1314C26.748 19.9786 26.9425 19.7604 27.0664 19.502L32.5586 8.0586C32.6523 7.8635 32.7033 7.65063 32.7081 7.43424C32.713 7.21785 32.6716 7.00292 32.5868 6.80381C32.5019 6.60469 32.3755 6.42598 32.2161 6.27962C32.0566 6.13326 31.8677 6.02261 31.6621 5.95509L16.8184 1.08595C16.6733 1.03814 16.5219 1.01246 16.3691 1.00977V1.00977Z" fill="#515151"/>
<path fill-rule="evenodd" clip-rule="evenodd" d="M1.50047 7.39965L16.3439 2.53156L31.1873 7.39965L25.6953 18.8441H6.99243L1.50047 7.39965Z" fill="white"/>
</g>
<defs>
<clipPath id="clip0">
<path d="M0 0H33V24H0V0Z" fill="white"/>
</clipPath>
</defs>
</svg>
