<svg xmlns="http://www.w3.org/2000/svg" width="36" height="22" viewBox="0 0 36 22" version="1.1" id="svg6" style="fill:none"><path d="M16.8 20.98c-4.48-.2-8.65-1.41-11.6-3.4C2.25 15.6.75 13 1.03 10.36c.29-2.63 2.34-5.1 5.7-6.84 3.35-1.75 7.75-2.65 12.23-2.5 4.49.15 8.68 1.33 11.68 3.3 3 1.96 4.56 4.54 4.34 7.18-.22 2.64-2.21 5.11-5.53 6.9-3.32 1.77-7.7 2.7-12.18 2.6" id="path2" style="fill:#f765af;stroke-width:1"/><path d="M16.87 19.98c-4.21-.17-8.14-1.27-10.92-3.06-2.78-1.79-4.19-4.12-3.92-6.5.27-2.36 2.2-4.58 5.36-6.16 3.16-1.57 7.3-2.38 11.52-2.25 4.22.14 8.17 1.2 10.99 2.97 2.82 1.77 4.3 4.1 4.08 6.47-.21 2.37-2.08 4.6-5.2 6.2-3.13 1.6-7.25 2.44-11.47 2.34" id="path4" style="fill:#222;stroke-width:.99999994"/></svg>
