<?xml version="1.0" encoding="UTF-8"?>
<svg xmlns="http://www.w3.org/2000/svg" xmlns:xlink="http://www.w3.org/1999/xlink" width="12" height="12" viewBox="0 0 12 12">
<defs>
<filter id="filter-remove-color" x="0%" y="0%" width="100%" height="100%">
<feColorMatrix color-interpolation-filters="sRGB" values="0 0 0 0 1 0 0 0 0 1 0 0 0 0 1 0 0 0 1 0" />
</filter>
<mask id="mask-0">
<g filter="url(#filter-remove-color)">
<rect x="-1.2" y="-1.2" width="14.4" height="14.4" fill="rgb(0%, 0%, 0%)" fill-opacity="0.804"/>
</g>
</mask>
<clipPath id="clip-0">
<rect x="0" y="0" width="12" height="12"/>
</clipPath>
<g id="source-6" clip-path="url(#clip-0)">
<path fill-rule="nonzero" fill="rgb(92.156863%, 90.588235%, 89.411765%)" fill-opacity="1" d="M 9.628906 1.171875 L 2.316406 1.269531 L 2.296875 1.269531 C 2.277344 1.273438 2.1875 1.273438 2.199219 1.269531 C 2.210938 1.269531 2.085938 1.292969 2.097656 1.292969 C 2.109375 1.289062 1.984375 1.316406 1.996094 1.3125 C 2.007812 1.308594 1.882812 1.355469 1.894531 1.351562 C 1.90625 1.347656 1.785156 1.417969 1.796875 1.410156 C 1.808594 1.40625 1.703125 1.457031 1.714844 1.453125 C 1.726562 1.445312 1.625 1.519531 1.636719 1.511719 C 1.644531 1.503906 1.546875 1.601562 1.554688 1.59375 C 1.5625 1.582031 1.464844 1.683594 1.476562 1.671875 C 1.484375 1.664062 1.40625 1.765625 1.414062 1.753906 C 1.421875 1.742188 1.367188 1.84375 1.375 1.832031 C 1.378906 1.820312 1.308594 1.945312 1.3125 1.933594 C 1.320312 1.921875 1.269531 2.046875 1.273438 2.035156 C 1.277344 2.023438 1.25 2.148438 1.253906 2.132812 C 1.257812 2.121094 1.230469 2.246094 1.234375 2.234375 C 1.234375 2.222656 1.234375 2.3125 1.234375 2.335938 C 1.234375 2.339844 1.234375 2.359375 1.234375 2.355469 L 1.195312 4.363281 L 1.195312 4.382812 C 1.195312 4.410156 1.195312 4.496094 1.195312 4.484375 C 1.191406 4.472656 1.214844 4.617188 1.214844 4.605469 C 1.210938 4.589844 1.238281 4.71875 1.234375 4.707031 C 1.230469 4.691406 1.277344 4.820312 1.273438 4.804688 C 1.269531 4.792969 1.320312 4.9375 1.3125 4.925781 C 1.308594 4.914062 1.382812 5.019531 1.375 5.007812 C 1.367188 4.996094 1.441406 5.117188 1.433594 5.109375 C 1.425781 5.097656 1.523438 5.199219 1.515625 5.1875 C 1.503906 5.179688 1.605469 5.277344 1.59375 5.269531 C 1.585938 5.257812 1.707031 5.335938 1.695312 5.328125 C 1.683594 5.320312 1.789062 5.394531 1.777344 5.386719 C 1.761719 5.382812 1.910156 5.433594 1.894531 5.429688 C 1.882812 5.425781 2.011719 5.472656 1.996094 5.46875 C 1.984375 5.464844 2.109375 5.492188 2.097656 5.488281 C 2.082031 5.488281 2.230469 5.511719 2.21875 5.507812 C 2.214844 5.507812 2.234375 5.507812 2.238281 5.507812 L 1.433594 9.746094 C 1.378906 10.117188 1.507812 10.503906 1.726562 10.691406 C 1.945312 10.878906 2.257812 11.042969 2.671875 10.972656 C 3.140625 10.890625 3.5 10.546875 3.5625 10.148438 L 3.664062 9.648438 L 5.652344 8.964844 L 5.792969 9.929688 C 5.792969 9.921875 5.789062 9.945312 5.792969 9.96875 C 5.796875 10.003906 5.816406 10.035156 5.8125 10.027344 C 5.8125 10.015625 5.835938 10.164062 5.832031 10.148438 C 5.828125 10.136719 5.878906 10.261719 5.875 10.25 C 5.867188 10.238281 5.921875 10.363281 5.914062 10.351562 C 5.90625 10.335938 5.980469 10.460938 5.972656 10.449219 C 5.964844 10.4375 6.042969 10.542969 6.035156 10.53125 C 6.027344 10.519531 6.125 10.621094 6.113281 10.609375 C 6.105469 10.601562 6.207031 10.699219 6.195312 10.691406 C 6.183594 10.683594 6.308594 10.757812 6.296875 10.75 C 6.285156 10.746094 6.40625 10.816406 6.394531 10.8125 C 6.382812 10.804688 6.507812 10.855469 6.496094 10.851562 C 6.484375 10.847656 6.609375 10.894531 6.597656 10.890625 C 6.582031 10.886719 6.710938 10.914062 6.695312 10.914062 C 6.683594 10.910156 6.832031 10.933594 6.816406 10.933594 C 6.804688 10.929688 6.953125 10.933594 6.9375 10.933594 C 6.925781 10.933594 7.050781 10.910156 7.039062 10.914062 C 7.023438 10.914062 7.171875 10.890625 7.160156 10.890625 C 7.144531 10.894531 7.273438 10.867188 7.257812 10.871094 C 7.246094 10.875 7.371094 10.804688 7.359375 10.8125 C 7.347656 10.816406 7.472656 10.765625 7.460938 10.773438 C 7.449219 10.777344 7.550781 10.703125 7.539062 10.710938 C 7.53125 10.71875 7.652344 10.621094 7.640625 10.632812 C 7.632812 10.640625 7.710938 10.539062 7.703125 10.550781 C 7.691406 10.5625 7.789062 10.4375 7.78125 10.449219 C 7.773438 10.460938 7.847656 10.359375 7.84375 10.371094 C 7.835938 10.382812 7.886719 10.257812 7.882812 10.269531 C 7.875 10.28125 7.925781 10.136719 7.921875 10.148438 C 7.917969 10.160156 7.945312 10.035156 7.941406 10.046875 C 7.941406 10.0625 7.964844 9.933594 7.960938 9.949219 C 7.960938 9.960938 7.960938 9.8125 7.960938 9.828125 C 7.960938 9.839844 7.960938 9.695312 7.960938 9.707031 C 7.964844 9.710938 7.964844 9.6875 7.960938 9.667969 L 7.941406 9.605469 L 7.660156 7.660156 L 7.199219 4.546875 L 9.007812 3.742188 L 9.007812 6.472656 C 8.992188 6.5 8.960938 6.542969 8.964844 6.535156 C 8.972656 6.519531 8.921875 6.628906 8.925781 6.613281 C 8.933594 6.601562 8.882812 6.726562 8.886719 6.714844 C 8.890625 6.699219 8.863281 6.808594 8.867188 6.792969 C 8.871094 6.78125 8.84375 6.910156 8.847656 6.894531 C 8.847656 6.878906 8.824219 7.011719 8.824219 6.996094 C 8.804688 6.996094 8.78125 6.996094 8.785156 6.996094 C 8.800781 6.996094 8.671875 6.996094 8.683594 6.996094 C 8.699219 6.992188 8.570312 7.019531 8.585938 7.015625 C 8.601562 7.011719 8.46875 7.0625 8.484375 7.054688 C 8.5 7.050781 8.390625 7.082031 8.402344 7.074219 C 8.417969 7.070312 8.289062 7.144531 8.304688 7.136719 C 8.316406 7.128906 8.210938 7.183594 8.222656 7.175781 C 8.234375 7.167969 8.132812 7.265625 8.144531 7.257812 C 8.15625 7.246094 8.074219 7.328125 8.082031 7.316406 C 8.09375 7.304688 7.992188 7.410156 8.003906 7.398438 C 8.011719 7.386719 7.953125 7.492188 7.960938 7.476562 C 7.96875 7.464844 7.894531 7.570312 7.902344 7.558594 C 7.910156 7.542969 7.855469 7.671875 7.863281 7.660156 C 7.867188 7.644531 7.839844 7.773438 7.84375 7.757812 C 7.84375 7.742188 7.820312 7.875 7.820312 7.859375 C 7.824219 7.84375 7.800781 7.976562 7.800781 7.960938 C 7.800781 7.945312 7.800781 8.074219 7.800781 8.058594 C 7.800781 8.042969 7.824219 8.175781 7.820312 8.160156 C 7.820312 8.144531 7.84375 8.277344 7.84375 8.261719 C 7.839844 8.246094 7.867188 8.355469 7.863281 8.339844 C 7.855469 8.328125 7.910156 8.457031 7.902344 8.441406 C 7.894531 8.429688 7.949219 8.535156 7.941406 8.523438 C 7.933594 8.507812 8.011719 8.632812 8.003906 8.621094 C 7.992188 8.609375 8.074219 8.695312 8.0625 8.683594 C 8.050781 8.671875 8.15625 8.773438 8.144531 8.761719 C 8.132812 8.753906 8.214844 8.832031 8.203125 8.824219 C 8.191406 8.8125 8.316406 8.890625 8.304688 8.882812 C 8.289062 8.875 8.398438 8.929688 8.382812 8.921875 C 8.382812 8.921875 8.691406 9.074219 9.066406 9.183594 C 9.234375 9.234375 9.496094 9.320312 9.808594 9.304688 C 9.988281 9.296875 10.21875 9.242188 10.414062 9.125 C 10.695312 8.953125 10.882812 8.714844 10.957031 8.339844 C 11.039062 7.917969 10.996094 7.554688 10.957031 7.296875 C 10.921875 7.078125 10.886719 6.96875 10.875 6.914062 C 10.875 6.929688 10.851562 6.824219 10.855469 6.835938 C 10.859375 6.847656 10.832031 6.742188 10.835938 6.753906 C 10.839844 6.765625 10.789062 6.664062 10.792969 6.675781 L 10.792969 2.234375 C 10.792969 2.226562 10.792969 2.210938 10.792969 2.214844 C 10.792969 2.226562 10.792969 2.160156 10.792969 2.175781 C 10.789062 2.15625 10.78125 2.132812 10.773438 2.113281 C 10.773438 2.109375 10.773438 2.101562 10.773438 2.09375 C 10.769531 2.054688 10.765625 2.011719 10.753906 1.972656 C 10.753906 1.976562 10.757812 1.960938 10.753906 1.953125 C 10.746094 1.941406 10.742188 1.925781 10.734375 1.914062 C 10.738281 1.925781 10.707031 1.839844 10.714844 1.851562 C 10.71875 1.867188 10.6875 1.78125 10.695312 1.792969 C 10.699219 1.804688 10.644531 1.742188 10.652344 1.753906 C 10.660156 1.765625 10.605469 1.679688 10.613281 1.691406 C 10.601562 1.671875 10.589844 1.652344 10.574219 1.632812 C 10.585938 1.648438 10.519531 1.558594 10.535156 1.574219 C 10.546875 1.585938 10.460938 1.519531 10.472656 1.53125 C 10.460938 1.523438 10.445312 1.519531 10.433594 1.511719 C 10.4375 1.515625 10.425781 1.503906 10.414062 1.492188 C 10.417969 1.496094 10.40625 1.480469 10.394531 1.472656 C 10.394531 1.476562 10.367188 1.464844 10.351562 1.453125 C 10.359375 1.457031 10.351562 1.441406 10.332031 1.433594 C 10.335938 1.433594 10.328125 1.421875 10.3125 1.410156 C 10.316406 1.414062 10.304688 1.398438 10.292969 1.390625 C 10.300781 1.394531 10.226562 1.347656 10.230469 1.351562 C 10.238281 1.355469 10.164062 1.308594 10.171875 1.3125 C 10.179688 1.316406 10.105469 1.289062 10.113281 1.292969 C 10.117188 1.292969 10.042969 1.246094 10.050781 1.25 C 10.058594 1.253906 9.984375 1.226562 9.992188 1.230469 C 10 1.234375 9.921875 1.207031 9.929688 1.210938 C 9.9375 1.214844 9.863281 1.1875 9.871094 1.191406 C 9.878906 1.191406 9.800781 1.1875 9.808594 1.191406 C 9.816406 1.191406 9.722656 1.167969 9.730469 1.171875 C 9.738281 1.171875 9.660156 1.171875 9.667969 1.171875 C 9.65625 1.171875 9.644531 1.171875 9.628906 1.171875 Z M 4.066406 7.539062 L 4.105469 7.558594 L 4.066406 7.578125 Z M 4.066406 7.539062 "/>
</g>
</defs>
<g mask="url(#mask-0)">
<use xlink:href="#source-6"/>
</g>
</svg>
