<?xml version="1.0" encoding="UTF-8"?>
<svg xmlns="http://www.w3.org/2000/svg" xmlns:xlink="http://www.w3.org/1999/xlink" width="12" height="12" viewBox="0 0 12 12">
<defs>
<filter id="filter-remove-color" x="0%" y="0%" width="100%" height="100%">
<feColorMatrix color-interpolation-filters="sRGB" values="0 0 0 0 1 0 0 0 0 1 0 0 0 0 1 0 0 0 1 0" />
</filter>
<mask id="mask-0">
<g filter="url(#filter-remove-color)">
<rect x="-1.2" y="-1.2" width="14.4" height="14.4" fill="rgb(0%, 0%, 0%)" fill-opacity="0.8"/>
</g>
</mask>
<clipPath id="clip-0">
<rect x="0" y="0" width="12" height="12"/>
</clipPath>
<g id="source-6" clip-path="url(#clip-0)">
<path fill-rule="nonzero" fill="rgb(92.156863%, 90.588235%, 89.411765%)" fill-opacity="1" d="M 3.304688 2.355469 C 2.972656 2.617188 2.875 3.078125 3.066406 3.453125 L 4.667969 6.585938 L 2.351562 6.585938 C 1.863281 6.585938 1.464844 6.984375 1.464844 7.476562 L 1.464844 8.949219 C 1.464844 9.441406 1.863281 9.839844 2.351562 9.839844 L 9.882812 9.839844 C 10.375 9.839844 10.773438 9.441406 10.773438 8.949219 L 10.773438 7.476562 C 10.773438 6.984375 10.375 6.585938 9.882812 6.585938 L 9.453125 6.585938 L 4.429688 2.371094 C 4.105469 2.097656 3.636719 2.09375 3.304688 2.355469 Z M 3.304688 2.355469 "/>
</g>
</defs>
<g mask="url(#mask-0)">
<use xlink:href="#source-6"/>
</g>
</svg>
