<svg width="30" height="25" viewBox="0 0 30 25" fill="none" xmlns="http://www.w3.org/2000/svg">
<path opacity="0.837" fill-rule="evenodd" clip-rule="evenodd" d="M2.62792 3.5C1.20212 3.5 0.00341797 4.55596 0.00341797 5.81198V19.188C0.00341797 20.444 1.20212 21.5 2.62792 21.5H27.3721C28.7979 21.5 29.9966 20.444 29.9966 19.188V5.81198C29.9966 4.55596 28.7979 3.5 27.3721 3.5H2.62792V3.5Z" fill="#F1EAE4"/>
<path d="M27.7932 4.97864H2.20682C1.73434 4.97864 1.35132 5.36166 1.35132 5.83414V19.1231C1.35132 19.5956 1.73434 19.9786 2.20682 19.9786H27.7932C28.2657 19.9786 28.6487 19.5956 28.6487 19.1231V5.83414C28.6487 5.36166 28.2657 4.97864 27.7932 4.97864Z" fill="#EEA555"/>
</svg>
