<svg width="65" height="65" viewBox="0 0 65 65" fill="none" xmlns="http://www.w3.org/2000/svg">
<path opacity="0.399" fill-rule="evenodd" clip-rule="evenodd" d="M12.5039 44.9961C12.1051 44.9962 11.7226 45.1546 11.4406 45.4367C11.1586 45.7187 11.0001 46.1012 11 46.5V47.9961H8.50977C8.11093 47.9962 7.72845 48.1546 7.44643 48.4367C7.16441 48.7187 7.00594 49.1012 7.00586 49.5V52.5C7.00594 52.8988 7.16441 53.2813 7.44643 53.5633C7.72845 53.8454 8.11093 54.0038 8.50977 54.0039H16.4922H16.5547H24.5C24.8988 54.0038 25.2813 53.8454 25.5633 53.5633C25.8454 53.2813 26.0038 52.8988 26.0039 52.5V49.5C26.0038 49.1012 25.8454 48.7187 25.5633 48.4367C25.2813 48.1546 24.8988 47.9962 24.5 47.9961H21.9961V46.5C21.996 46.1012 21.8375 45.7187 21.5555 45.4367C21.2735 45.1546 20.891 44.9962 20.4922 44.9961H12.5039V44.9961Z" fill="white"/>
<path d="M20.492 46.5H12.5045V49.5H20.492V46.5Z" stroke="#4A4A4A" stroke-linecap="round"/>
<path d="M16.5543 49.5H8.51013V52.5H16.5543V49.5Z" stroke="#4A4A4A" stroke-linecap="round"/>
<path d="M24.4997 49.5H16.4919V52.5H24.4997V49.5Z" stroke="#4A4A4A" stroke-linecap="round"/>
<path opacity="0.399" fill-rule="evenodd" clip-rule="evenodd" d="M45.5039 13.9961C45.1051 13.9962 44.7226 14.1546 44.4406 14.4367C44.1586 14.7187 44.0001 15.1012 44 15.5V16.9961H41.5098C41.1109 16.9962 40.7285 17.1546 40.4464 17.4367C40.1644 17.7187 40.0059 18.1012 40.0059 18.5V21.5C40.0059 21.8988 40.1644 22.2813 40.4464 22.5633C40.7285 22.8454 41.1109 23.0038 41.5098 23.0039H49.4922H49.5547H57.5C57.8988 23.0038 58.2813 22.8454 58.5633 22.5633C58.8454 22.2813 59.0038 21.8988 59.0039 21.5V18.5C59.0038 18.1012 58.8454 17.7187 58.5633 17.4367C58.2813 17.1546 57.8988 16.9962 57.5 16.9961H54.9961V15.5C54.996 15.1012 54.8375 14.7187 54.5555 14.4367C54.2735 14.1546 53.891 13.9962 53.4922 13.9961H45.5039V13.9961Z" fill="white"/>
<path d="M53.492 15.5H45.5045V18.5H53.492V15.5Z" stroke="#4A4A4A" stroke-linecap="round"/>
<path d="M49.5543 18.5H41.5101V21.5H49.5543V18.5Z" stroke="#4A4A4A" stroke-linecap="round"/>
<path d="M57.4997 18.5H49.4919V21.5H57.4997V18.5Z" stroke="#4A4A4A" stroke-linecap="round"/>
</svg>
