<?xml version="1.0" encoding="UTF-8"?>
<svg xmlns="http://www.w3.org/2000/svg" xmlns:xlink="http://www.w3.org/1999/xlink" width="12" height="12" viewBox="0 0 12 12">
<defs>
<filter id="filter-remove-color" x="0%" y="0%" width="100%" height="100%">
<feColorMatrix color-interpolation-filters="sRGB" values="0 0 0 0 1 0 0 0 0 1 0 0 0 0 1 0 0 0 1 0" />
</filter>
<mask id="mask-0">
<g filter="url(#filter-remove-color)">
<rect x="-1.2" y="-1.2" width="14.4" height="14.4" fill="rgb(0%, 0%, 0%)" fill-opacity="0.812"/>
</g>
</mask>
<clipPath id="clip-0">
<rect x="0" y="0" width="12" height="12"/>
</clipPath>
<g id="source-6" clip-path="url(#clip-0)">
<path fill-rule="nonzero" fill="rgb(92.156863%, 90.588235%, 89.411765%)" fill-opacity="1" d="M 3.601562 1.59375 C 3.453125 1.59375 3.320312 1.671875 3.246094 1.800781 C 2.015625 3.953125 1.597656 6.972656 1.59375 10 C 1.59375 10.105469 1.636719 10.210938 1.710938 10.285156 C 1.789062 10.363281 1.890625 10.40625 2 10.40625 L 3.199219 10.40625 C 3.398438 10.40625 3.566406 10.265625 3.601562 10.070312 C 3.894531 8.398438 4.316406 7.164062 4.765625 6.378906 C 5.21875 5.589844 5.660156 5.304688 6 5.304688 C 6.339844 5.304688 6.78125 5.589844 7.234375 6.378906 C 7.683594 7.164062 8.105469 8.398438 8.398438 10.070312 C 8.433594 10.265625 8.601562 10.40625 8.800781 10.40625 L 10 10.40625 C 10.109375 10.40625 10.210938 10.363281 10.289062 10.285156 C 10.363281 10.210938 10.40625 10.105469 10.40625 9.996094 C 10.386719 6.726562 9.941406 3.910156 8.753906 1.800781 C 8.683594 1.671875 8.546875 1.59375 8.398438 1.59375 Z M 3.601562 1.59375 "/>
</g>
</defs>
<g mask="url(#mask-0)">
<use xlink:href="#source-6"/>
</g>
</svg>
