<?xml version="1.0" encoding="UTF-8"?>
<svg xmlns="http://www.w3.org/2000/svg" xmlns:xlink="http://www.w3.org/1999/xlink" width="12" height="12" viewBox="0 0 12 12">
<path fill-rule="evenodd" fill="rgb(100%, 100%, 100%)" fill-opacity="1" d="M 7.34375 0.875 C 7.171875 0.882812 7 0.960938 6.882812 1.085938 L 6.125 1.863281 L 6.128906 1.863281 C 6.042969 1.949219 6.03125 2.074219 6.003906 2.1875 C 5.925781 2.15625 5.886719 2.054688 5.800781 2.054688 C 5.78125 2.054688 5.765625 2.078125 5.75 2.078125 C 5.867188 1.894531 5.957031 1.667969 5.871094 1.464844 C 5.765625 1.21875 5.503906 1.046875 5.234375 1.054688 C 5.0625 1.058594 4.890625 1.132812 4.769531 1.257812 L 4.089844 1.9375 C 3.976562 1.710938 3.738281 1.539062 3.484375 1.546875 C 3.308594 1.550781 3.136719 1.625 3.015625 1.75 L 1.730469 3.039062 C 1.480469 3.285156 1.480469 3.738281 1.726562 3.988281 C 1.828125 4.089844 1.96875 4.117188 2.105469 4.140625 L 1.675781 4.566406 L 1.675781 4.570312 C 1.429688 4.816406 1.429688 5.269531 1.679688 5.519531 C 1.929688 5.765625 2.378906 5.765625 2.628906 5.519531 L 2.628906 5.515625 L 3.640625 4.503906 C 3.832031 4.316406 3.894531 4.011719 3.789062 3.761719 C 3.699219 3.554688 3.472656 3.457031 3.253906 3.417969 L 3.78125 2.886719 C 3.800781 2.898438 3.824219 2.902344 3.84375 2.910156 C 3.8125 3.136719 3.929688 3.359375 4.140625 3.453125 L 4.046875 3.546875 C 3.796875 3.796875 3.796875 4.25 4.042969 4.5 C 4.125 4.582031 4.246094 4.59375 4.355469 4.621094 L 2.082031 5.835938 C 1.710938 6.035156 1.625 6.617188 1.921875 6.917969 L 2.167969 7.164062 C 2.359375 7.351562 2.660156 7.414062 2.90625 7.316406 L 2.964844 7.292969 L 2.964844 10.171875 C 2.964844 10.53125 3.292969 10.859375 3.652344 10.859375 L 4.128906 10.859375 C 4.488281 10.863281 4.820312 10.535156 4.820312 10.171875 L 4.820312 6.761719 L 6.117188 6.605469 L 7.390625 6.757812 L 7.390625 10.171875 C 7.390625 10.535156 7.71875 10.863281 8.082031 10.859375 L 8.558594 10.859375 C 8.917969 10.859375 9.246094 10.53125 9.246094 10.171875 L 9.246094 7.285156 L 9.328125 7.320312 C 9.578125 7.421875 9.882812 7.355469 10.070312 7.164062 L 10.316406 6.914062 C 10.617188 6.613281 10.527344 6.035156 10.15625 5.835938 L 8.542969 4.976562 C 8.578125 4.953125 8.625 4.960938 8.652344 4.933594 L 8.628906 4.957031 L 8.742188 4.851562 C 8.773438 4.910156 8.765625 4.984375 8.8125 5.035156 C 9.058594 5.285156 9.511719 5.292969 9.765625 5.046875 L 10.75 4.082031 C 10.949219 3.898438 11.015625 3.589844 10.914062 3.339844 C 10.84375 3.164062 10.644531 3.117188 10.472656 3.050781 L 10.714844 2.816406 C 10.910156 2.632812 10.976562 2.324219 10.878906 2.074219 C 10.777344 1.828125 10.515625 1.652344 10.246094 1.652344 L 10.242188 1.652344 C 10.070312 1.65625 9.898438 1.730469 9.777344 1.851562 L 9.398438 2.21875 C 9.394531 2.207031 9.410156 2.195312 9.40625 2.183594 C 9.300781 1.9375 9.035156 1.765625 8.765625 1.773438 C 8.59375 1.78125 8.421875 1.855469 8.304688 1.976562 L 7.628906 2.652344 C 7.574219 2.566406 7.476562 2.546875 7.390625 2.492188 L 7.847656 2.023438 C 8.039062 1.832031 8.09375 1.523438 7.988281 1.277344 C 7.878906 1.03125 7.613281 0.863281 7.34375 0.875 Z M 10.273438 2.921875 L 10.277344 2.921875 C 10.277344 2.921875 10.277344 2.921875 10.273438 2.921875 Z M 9.085938 3.097656 C 9.117188 3.113281 9.152344 3.128906 9.183594 3.136719 C 9.15625 3.304688 9.210938 3.472656 9.332031 3.589844 L 9.164062 3.75 C 9.070312 3.59375 8.917969 3.488281 8.734375 3.449219 Z M 7.375 3.632812 L 7.378906 3.632812 C 7.347656 3.84375 7.449219 4.054688 7.636719 4.15625 C 7.589844 4.246094 7.511719 4.320312 7.507812 4.421875 L 6.878906 4.085938 C 6.890625 4.078125 6.90625 4.082031 6.917969 4.074219 L 6.921875 4.070312 Z M 5.824219 3.671875 C 5.832031 3.730469 5.863281 3.777344 5.886719 3.832031 C 5.859375 3.839844 5.828125 3.835938 5.800781 3.851562 L 5.796875 3.851562 L 5.464844 4.03125 Z M 6.109375 3.773438 L 6.117188 3.773438 C 6.117188 3.773438 6.113281 3.773438 6.113281 3.773438 C 6.113281 3.773438 6.113281 3.773438 6.109375 3.773438 Z M 6.109375 3.773438 "/>
</svg>
