<svg width="27" height="29" viewBox="0 0 27 29" fill="none" xmlns="http://www.w3.org/2000/svg">
<path opacity="0.711" fill-rule="evenodd" clip-rule="evenodd" d="M4.62879 5.77734C4.33989 5.77747 4.05735 5.86335 3.81603 6.02439C3.57472 6.18544 3.38518 6.4146 3.2708 6.68359L0.196555 13.9062C0.116851 14.0938 0.0757394 14.2958 0.0757394 14.5C0.0757394 14.7042 0.116851 14.9062 0.196555 15.0938L3.2708 22.3164C3.38518 22.5854 3.57472 22.8146 3.81603 22.9756C4.05735 23.1367 4.33989 23.2225 4.62879 23.2227H22.3712C22.6601 23.2225 22.9426 23.1367 23.184 22.9756C23.4253 22.8146 23.6148 22.5854 23.7292 22.3164L26.8034 15.0938C26.8831 14.9062 26.9243 14.7042 26.9243 14.5C26.9243 14.2958 26.8831 14.0938 26.8034 13.9062L23.7292 6.68359C23.6148 6.4146 23.4253 6.18544 23.184 6.02439C22.9426 5.86335 22.6601 5.77747 22.3712 5.77734H4.62879V5.77734Z" fill="#515151"/>
<path fill-rule="evenodd" clip-rule="evenodd" d="M4.62934 21.7234H22.3712L25.4459 14.5001L22.3712 7.27673H4.62934L1.55468 14.5001L4.62934 21.7234" fill="white"/>
</svg>
