<?xml version="1.0" encoding="UTF-8"?>
<svg xmlns="http://www.w3.org/2000/svg" xmlns:xlink="http://www.w3.org/1999/xlink" width="12" height="12" viewBox="0 0 12 12">
<path fill-rule="nonzero" fill="rgb(99.607843%, 99.607843%, 99.607843%)" fill-opacity="1" d="M 7 2.503906 C 6.960938 2.503906 6.921875 2.507812 6.882812 2.515625 L 5.53125 2.792969 C 5.332031 2.832031 5.164062 2.960938 5.046875 3.121094 C 4.996094 3.152344 4.960938 3.191406 4.925781 3.230469 C 4.855469 3.226562 4.785156 3.21875 4.703125 3.242188 L 3.503906 3.585938 C 3.253906 3.660156 3.082031 3.863281 2.992188 4.101562 C 2.851562 4.097656 2.707031 4.117188 2.578125 4.195312 C 2.390625 4.304688 2.25 4.492188 2.199219 4.707031 L 1.945312 5.710938 C 1.894531 5.917969 1.949219 6.121094 2.050781 6.300781 L 2.042969 6.304688 C 2.042969 6.304688 2.039062 6.304688 2.039062 6.304688 C 1.886719 6.421875 1.785156 6.589844 1.742188 6.769531 L 1.765625 6.722656 C 1.671875 6.859375 1.621094 7.019531 1.621094 7.183594 L 1.621094 7.683594 L 1.53125 7.683594 C 1.195312 7.683594 0.964844 7.871094 0.851562 8.007812 C 0.75 8.132812 0.703125 8.246094 0.675781 8.328125 C 0.613281 8.5 0.597656 8.664062 0.597656 8.820312 C 0.597656 8.976562 0.613281 9.140625 0.675781 9.3125 C 0.703125 9.390625 0.75 9.507812 0.851562 9.628906 C 0.964844 9.769531 1.195312 9.957031 1.53125 9.957031 L 10.359375 9.957031 C 10.699219 9.957031 10.929688 9.765625 11.042969 9.625 C 11.144531 9.503906 11.191406 9.386719 11.21875 9.304688 C 11.277344 9.136719 11.292969 8.976562 11.292969 8.820312 C 11.292969 8.664062 11.277344 8.503906 11.21875 8.332031 C 11.191406 8.253906 11.144531 8.136719 11.042969 8.011719 C 10.929688 7.875 10.699219 7.683594 10.359375 7.683594 L 10.277344 7.683594 C 10.253906 7.613281 10.226562 7.550781 10.183594 7.492188 C 10.222656 7.417969 10.265625 7.339844 10.273438 7.234375 L 10.363281 5.78125 C 10.378906 5.5625 10.289062 5.359375 10.152344 5.199219 C 10.144531 5.191406 10.140625 5.183594 10.132812 5.175781 C 10.132812 5.175781 10.132812 5.171875 10.132812 5.171875 L 10.144531 5.1875 C 10.140625 5.175781 10.132812 5.167969 10.125 5.15625 C 10.121094 5.152344 10.121094 5.152344 10.117188 5.148438 C 10.117188 5.144531 10.117188 5.144531 10.117188 5.144531 C 10.113281 5.140625 10.109375 5.140625 10.105469 5.136719 C 10.105469 5.132812 10.101562 5.132812 10.101562 5.132812 C 9.984375 4.980469 9.8125 4.886719 9.625 4.84375 L 9.367188 4.234375 C 9.367188 4.230469 9.367188 4.230469 9.367188 4.230469 L 9.363281 4.222656 C 9.363281 4.222656 9.363281 4.222656 9.363281 4.21875 C 9.269531 3.992188 9.0625 3.851562 8.835938 3.78125 L 8.835938 3.71875 C 8.835938 3.660156 8.824219 3.609375 8.816406 3.554688 C 8.835938 3.363281 8.804688 3.164062 8.6875 2.996094 C 8.558594 2.808594 8.351562 2.679688 8.125 2.648438 L 7.164062 2.511719 C 7.109375 2.503906 7.054688 2.5 7 2.503906 Z M 7 2.503906 "/>
</svg>
