<?xml version="1.0" encoding="UTF-8"?>
<svg xmlns="http://www.w3.org/2000/svg" xmlns:xlink="http://www.w3.org/1999/xlink" width="12" height="12" viewBox="0 0 12 12">
<path fill-rule="evenodd" fill="rgb(100%, 100%, 100%)" fill-opacity="1" d="M 5.480469 1.304688 C 5.394531 1.304688 5.308594 1.328125 5.230469 1.367188 L 4.816406 1.585938 C 4.546875 1.726562 4.445312 2.058594 4.585938 2.332031 L 5.035156 3.179688 C 5.109375 3.253906 5.066406 3.210938 5.109375 3.253906 C 5.015625 3.4375 4.878906 3.699219 4.71875 4.007812 C 4.394531 4.625 3.960938 5.4375 3.527344 6.246094 C 2.664062 7.859375 1.808594 9.457031 1.808594 9.457031 L 1.621094 9.800781 C 1.421875 10.171875 1.691406 10.617188 2.109375 10.617188 L 3.726562 10.613281 L 9.433594 10.605469 L 9.808594 10.605469 C 9.832031 10.601562 9.855469 10.601562 9.875 10.597656 C 9.890625 10.597656 9.90625 10.59375 9.917969 10.59375 L 9.929688 10.589844 C 9.945312 10.585938 9.957031 10.582031 9.972656 10.578125 C 10.316406 10.480469 10.476562 10.085938 10.300781 9.777344 L 10.121094 9.460938 L 10.117188 9.449219 L 10.113281 9.445312 L 10.097656 9.417969 L 6.878906 3.308594 L 7.375 2.375 C 7.515625 2.105469 7.414062 1.769531 7.144531 1.628906 L 6.730469 1.410156 C 6.464844 1.269531 6.136719 1.363281 5.992188 1.628906 L 5.976562 1.597656 C 5.878906 1.414062 5.6875 1.300781 5.480469 1.304688 Z M 5.480469 1.304688 "/>
</svg>
