<svg width="23" height="25" viewBox="0 0 23 25" fill="none" xmlns="http://www.w3.org/2000/svg">
<path opacity="0.837" fill-rule="evenodd" clip-rule="evenodd" d="M3.42764 3.5C2.49736 3.5 1.71524 4.55596 1.71524 5.81198V19.188C1.71524 20.444 2.49736 21.5 3.42764 21.5H19.5724C20.5026 21.5 21.2848 20.444 21.2848 19.188V5.81198C21.2848 4.55596 20.5026 3.5 19.5724 3.5H3.42764V3.5Z" fill="#F1EAE4"/>
<path d="M18.942 4.97864H4.05797C3.58549 4.97864 3.20247 5.36166 3.20247 5.83414V19.1231C3.20247 19.5956 3.58549 19.9786 4.05797 19.9786H18.942C19.4145 19.9786 19.7975 19.5956 19.7975 19.1231V5.83414C19.7975 5.36166 19.4145 4.97864 18.942 4.97864Z" fill="#DD6A6A"/>
</svg>
