<svg width="32" height="32" viewBox="0 0 32 32" fill="none" xmlns="http://www.w3.org/2000/svg">
<path opacity="0.804" d="M3.5397 29.0954L12.5023 29.1328C12.5023 29.1328 12.4147 26.9444 10.8318 26.9338C9.24886 26.9232 6.32747 26.9161 5.18915 26.9278C4.05083 26.9387 3.58181 27.7959 3.5397 29.096V29.0954Z" fill="#67BF4C"/>
<path opacity="0.804" d="M19.532 13.1924L28.4947 13.2298C28.4947 13.2298 28.4071 11.0414 26.8241 11.0308C25.2412 11.0202 22.3197 11.0131 21.1814 11.0238C20.0431 11.0348 19.5741 11.8919 19.532 13.192V13.1924Z" fill="#67BF4C"/>
<g opacity="0.804">
<path opacity="0.804" d="M7.37782 25.7312C7.25019 25.7058 7.00218 25.6346 6.82668 25.5729C5.92721 25.2568 5.05866 24.3665 4.73455 23.4285C4.62148 23.1012 4.54853 22.7448 4.55282 22.265C4.55664 21.7848 4.62145 21.4768 4.73455 21.1496C5.04354 20.2553 5.8251 19.4146 6.68695 19.0496C7.00004 18.917 7.69556 18.788 8.09758 18.788C8.69679 18.788 9.83135 19.1669 10.061 19.4436C10.1785 19.5851 10.0696 19.5899 9.49057 19.4686C9.02746 19.3716 8.87386 19.3626 8.51578 19.4118C7.48476 19.5535 6.55723 20.3305 6.18653 21.3631C6.01167 21.8502 6.01103 22.7262 6.1856 23.2102C6.54609 24.2122 7.45925 24.9958 8.46779 25.1685C8.78078 25.2222 8.9243 25.2136 9.43794 25.1103C9.7695 25.0437 10.0623 25.0099 10.0886 25.0352C10.1499 25.0942 9.87421 25.2904 9.46992 25.4755C8.87295 25.7488 8.0024 25.8552 7.37828 25.7311L7.37782 25.7312ZM9.29306 23.4255C9.2755 23.3971 9.3258 23.1838 9.4048 22.9515C9.48382 22.7192 9.54843 22.522 9.54843 22.5133C9.54843 22.5047 9.3792 22.3766 9.17232 22.229C8.96545 22.0814 8.79617 21.9379 8.79617 21.9101C8.79617 21.8824 9.011 21.8521 9.27357 21.8429L9.75098 21.8261L9.90143 21.395C9.98416 21.1578 10.0792 20.9547 10.1127 20.9436C10.1462 20.9324 10.2434 21.1329 10.3287 21.3891L10.4838 21.855H10.9758C11.2471 21.855 11.4591 21.8786 11.4484 21.9077C11.4378 21.9367 11.2664 22.0798 11.0675 22.2258C10.8686 22.3718 10.7058 22.5133 10.7058 22.5402C10.7058 22.5671 10.7579 22.7405 10.8216 22.9255C10.933 23.2495 10.9687 23.4753 10.9085 23.4753C10.8926 23.4753 10.7205 23.3581 10.526 23.2148C10.3314 23.0716 10.148 22.9544 10.1183 22.9544C10.0886 22.9544 9.92869 23.0538 9.76295 23.1752C9.36226 23.4688 9.33029 23.4858 9.29303 23.4255L9.29306 23.4255Z" fill="#67BF4C"/>
<path opacity="0.804" d="M10.1032 20.8994C9.97985 20.9882 9.95611 21.1623 9.89094 21.2923C9.83168 21.4548 9.77665 21.6191 9.71874 21.7822C9.40668 21.8089 9.07602 21.7678 8.7761 21.8652C8.70033 21.9546 8.85476 22.0244 8.90547 22.0824C9.0966 22.2391 9.3048 22.3725 9.49802 22.5273C9.41586 22.8271 9.26423 23.1173 9.24707 23.4298C9.2987 23.5685 9.45626 23.4549 9.52842 23.4002C9.72555 23.27 9.90989 23.0994 10.1222 23.0025C10.3937 23.1477 10.6243 23.3689 10.8954 23.5185C11.0165 23.5223 10.9814 23.3511 10.9671 23.2738C10.9223 23.0251 10.798 22.783 10.7576 22.5407C10.9804 22.3115 11.2762 22.1677 11.4887 21.9285C11.5023 21.8084 11.326 21.8374 11.2496 21.8188C11.0054 21.8031 10.7604 21.8131 10.5158 21.8102C10.4 21.5114 10.3471 21.1759 10.1573 20.9147C10.1425 20.9028 10.123 20.8936 10.1032 20.8992V20.8994Z" fill="#67BF4C"/>
</g>
<g opacity="0.804">
<path opacity="0.804" d="M23.369 9.81985C23.2414 9.79447 22.9934 9.72327 22.8179 9.66157C21.9184 9.34545 21.0498 8.45517 20.7257 7.51714C20.6127 7.1899 20.5397 6.83353 20.544 6.3537C20.5478 5.87353 20.6126 5.56549 20.7257 5.23825C21.0347 4.34397 21.8163 3.50332 22.6781 3.13829C22.9912 3.00568 23.6867 2.87671 24.0888 2.87671C24.688 2.87671 25.8225 3.25554 26.0522 3.53231C26.1697 3.67381 26.0608 3.67859 25.4817 3.5573C25.0186 3.46027 24.865 3.45131 24.507 3.50051C23.4759 3.64217 22.5484 4.41916 22.1777 5.45175C22.0029 5.93885 22.0022 6.81487 22.1768 7.29887C22.5373 8.30089 23.4504 9.08445 24.459 9.25721C24.772 9.31084 24.9155 9.30228 25.4291 9.19902C25.7607 9.13241 26.0535 9.0986 26.0798 9.12392C26.1411 9.18289 25.8654 9.37912 25.4611 9.56422C24.8641 9.83752 23.9936 9.94389 23.3695 9.8198L23.369 9.81985ZM25.2842 7.5142C25.2667 7.48576 25.317 7.27248 25.396 7.04017C25.475 6.80787 25.5396 6.61066 25.5396 6.60194C25.5396 6.59335 25.3704 6.46529 25.1635 6.31767C24.9566 6.17005 24.7874 6.02655 24.7874 5.99881C24.7874 5.97104 25.0022 5.9408 25.2648 5.93154L25.7422 5.91474L25.8926 5.48364C25.9753 5.24652 26.0704 5.04339 26.1039 5.03224C26.1374 5.02107 26.2345 5.2216 26.3199 5.47781L26.475 5.94365H26.967C27.2383 5.94365 27.4503 5.96733 27.4396 5.99634C27.429 6.02535 27.2576 6.1685 27.0587 6.3145C26.8597 6.46051 26.697 6.60197 26.697 6.62888C26.697 6.65579 26.7491 6.82918 26.8127 7.0142C26.9242 7.33816 26.9599 7.56394 26.8997 7.56394C26.8838 7.56394 26.7117 7.44675 26.5171 7.30353C26.3226 7.1603 26.1391 7.04311 26.1095 7.04311C26.0798 7.04311 25.9199 7.14247 25.7541 7.26389C25.3534 7.55744 25.3215 7.57447 25.2842 7.51417L25.2842 7.5142Z" fill="#67BF4C"/>
<path opacity="0.804" d="M26.0944 4.98805C25.971 5.0769 25.9473 5.25094 25.8821 5.38097C25.8229 5.54344 25.7678 5.7078 25.7099 5.87093C25.3979 5.89755 25.0672 5.8565 24.7673 5.95384C24.6915 6.04326 24.8459 6.11308 24.8966 6.17104C25.0878 6.32783 25.296 6.46115 25.4892 6.616C25.407 6.9158 25.2554 7.20598 25.2383 7.51853C25.2899 7.65723 25.4474 7.54363 25.5196 7.48886C25.7167 7.35871 25.9011 7.18812 26.1134 7.09119C26.3848 7.23634 26.6155 7.45755 26.8866 7.60715C27.0077 7.61097 26.9726 7.4398 26.9583 7.36252C26.9135 7.11381 26.7892 6.87165 26.7488 6.6294C26.9715 6.40021 27.2674 6.25635 27.4798 6.01715C27.4935 5.8971 27.3172 5.9261 27.2408 5.90748C26.9966 5.89183 26.7516 5.90175 26.507 5.89889C26.3911 5.60013 26.3382 5.26456 26.1485 5.00337C26.1337 4.99144 26.1141 4.98228 26.0944 4.98791V4.98805Z" fill="#67BF4C"/>
</g>
</svg>
