<svg width="34" height="27" viewBox="0 0 34 27" fill="none" xmlns="http://www.w3.org/2000/svg">
<path opacity="0.837" fill-rule="evenodd" clip-rule="evenodd" d="M17 2.31025C16.7159 2.31025 16.6229 2.2986 16.4302 2.34884C16.4134 2.35323 16.404 2.36808 16.3849 2.37691C16.3277 2.38914 16.275 2.40045 16.2331 2.41024C16.1157 2.43771 15.9848 2.47165 15.8258 2.51198C15.507 2.59279 15.0767 2.70362 14.569 2.83825C13.5556 3.10694 12.2352 3.46382 10.9158 3.82408C9.59582 4.18448 8.28001 4.54881 7.27588 4.83097C6.77444 4.97187 6.35297 5.09121 6.03773 5.18355C5.88143 5.22934 5.7527 5.26777 5.64099 5.30283C5.59538 5.31715 5.54876 5.33175 5.49987 5.34844C5.4772 5.35097 5.45524 5.34558 5.43863 5.35019C5.24517 5.40403 5.19232 5.45633 4.9913 5.58876C4.79028 5.72119 4.7109 5.756 4.62917 5.88346C4.62215 5.8944 4.63035 5.90886 4.62652 5.9238C4.60119 5.95601 4.57902 5.98672 4.55729 6.01677C4.50405 6.09036 4.44572 6.17517 4.37622 6.27814C4.23605 6.48582 4.05491 6.76348 3.84102 7.09382C3.41272 7.75533 2.8597 8.62218 2.31264 9.49175C1.76578 10.361 1.22406 11.2309 0.816213 11.8984C0.611852 12.233 0.443626 12.5164 0.320954 12.7264C0.259737 12.8312 0.208219 12.9174 0.166519 12.9948C0.151659 13.0224 0.134499 13.0571 0.115928 13.0948C0.102527 13.1074 0.0799823 13.1135 0.0733254 13.1246C-0.00294135 13.2515 0.0147457 13.3128 0.0147457 13.5C0.0147457 13.6872 -0.00294135 13.7484 0.0733254 13.8754C0.0799783 13.8864 0.102523 13.8926 0.115928 13.9052C0.134499 13.9429 0.151659 13.9776 0.166519 14.0052C0.208219 14.0826 0.259737 14.1688 0.320954 14.2736C0.443626 14.4835 0.611851 14.767 0.816213 15.1015C1.22406 15.7691 1.76578 16.639 2.31264 17.5082C2.8597 18.3778 3.41272 19.2446 3.84102 19.9061C4.05491 20.2365 4.23605 20.5141 4.37622 20.7218C4.44572 20.8248 4.50405 20.9096 4.55728 20.9832C4.57902 21.0132 4.60118 21.044 4.62651 21.0762C4.63034 21.0911 4.62216 21.1056 4.62917 21.1165C4.71089 21.244 4.79028 21.2788 4.99129 21.4112C5.19231 21.5436 5.24516 21.5959 5.43862 21.6498C5.45523 21.6543 5.47719 21.649 5.49987 21.6516C5.54876 21.6683 5.59538 21.6829 5.64099 21.6972C5.75269 21.7322 5.88142 21.7707 6.03773 21.8165C6.35296 21.9088 6.77443 22.0281 7.27588 22.169C8.28 22.4512 9.59581 22.8155 10.9158 23.1759C12.2352 23.5362 13.5556 23.8931 14.569 24.1618C15.0767 24.2964 15.507 24.4072 15.8257 24.488C15.9848 24.5284 16.1157 24.5623 16.2331 24.5898C16.275 24.5996 16.3277 24.6109 16.3849 24.6231C16.404 24.6319 16.4134 24.6468 16.4302 24.6512C16.6228 24.7014 16.7159 24.6898 17 24.6898C17.2841 24.6898 17.3771 24.7014 17.5698 24.6512C17.5866 24.6468 17.596 24.6319 17.6151 24.6231C17.6723 24.6109 17.725 24.5996 17.7668 24.5898C17.8843 24.5623 18.0152 24.5284 18.1742 24.488C18.493 24.4072 18.9232 24.2964 19.431 24.1618C20.4444 23.8931 21.7647 23.5362 23.0842 23.1759C24.4042 22.8155 25.72 22.4512 26.7241 22.169C27.2255 22.0281 27.647 21.9088 27.9622 21.8165C28.1186 21.7707 28.2473 21.7322 28.359 21.6972C28.4046 21.6829 28.4512 21.6683 28.5001 21.6516C28.5228 21.649 28.5447 21.6544 28.5613 21.6498C28.7548 21.5959 28.8077 21.5436 29.0087 21.4112C29.2097 21.2788 29.2891 21.244 29.3708 21.1165C29.3778 21.1056 29.3696 21.0911 29.3735 21.0762C29.3989 21.044 29.421 21.0132 29.4428 20.9832C29.496 20.9096 29.5543 20.8248 29.6238 20.7218C29.764 20.5141 29.9451 20.2365 30.159 19.9061C30.5873 19.2446 31.1403 18.3778 31.6874 17.5082C32.2343 16.639 32.776 15.7691 33.1838 15.1015C33.3882 14.767 33.5564 14.4835 33.6791 14.2736C33.7403 14.1688 33.7918 14.0826 33.8335 14.0052C33.8484 13.9776 33.8655 13.9429 33.8841 13.9052C33.8975 13.8926 33.9201 13.8864 33.9267 13.8754C34.003 13.7484 33.9853 13.6872 33.9853 13.5C33.9853 13.3128 34.003 13.2515 33.9267 13.1246C33.92 13.1135 33.8975 13.1073 33.8841 13.0948C33.8655 13.0571 33.8484 13.0224 33.8335 12.9948C33.7918 12.9174 33.7403 12.8312 33.6791 12.7264C33.5564 12.5164 33.3882 12.233 33.1838 11.8984C32.7759 11.2309 32.2342 10.361 31.6874 9.49175C31.1403 8.62218 30.5873 7.75533 30.159 7.09382C29.9451 6.76348 29.7639 6.48582 29.6238 6.27814C29.5543 6.17517 29.4959 6.09036 29.4427 6.01677C29.421 5.98672 29.3988 5.95601 29.3735 5.9238C29.3697 5.90887 29.3778 5.8944 29.3708 5.88346C29.289 5.75601 29.2096 5.72119 29.0086 5.58876C28.8076 5.45633 28.7548 5.40403 28.5613 5.3502C28.5447 5.34557 28.5227 5.35097 28.5001 5.34845C28.4512 5.33176 28.4046 5.31716 28.3589 5.30284C28.2473 5.26777 28.1186 5.22934 27.9623 5.18355C27.647 5.09121 27.2256 4.97187 26.7241 4.83097C25.72 4.54881 24.4042 4.18448 23.0842 3.82408C21.7648 3.46382 20.4444 3.10694 19.431 2.83825C18.9233 2.70362 18.493 2.59279 18.1742 2.51198C18.0152 2.47165 17.8843 2.43771 17.7668 2.41024C17.725 2.40045 17.6723 2.38914 17.6151 2.37691C17.596 2.36808 17.5866 2.35323 17.5698 2.34884C17.3771 2.2986 17.2841 2.31025 17 2.31025ZM16.353 2.39621C16.2744 2.43969 16.1797 2.49381 16.1692 2.50847C16.1617 2.51889 16.1777 2.48769 16.2331 2.44708C16.2698 2.42023 16.3119 2.40992 16.353 2.39621H16.353ZM17.647 2.39621C17.6881 2.40992 17.7302 2.42023 17.7668 2.44708C17.8223 2.48769 17.8382 2.51889 17.8307 2.50847C17.8202 2.49381 17.7256 2.43969 17.647 2.39621H17.647ZM5.6836 5.32915C5.76683 5.3324 5.81147 5.34706 5.79543 5.34318C5.77317 5.33779 5.6493 5.3436 5.5478 5.34844C5.59156 5.33944 5.6305 5.32707 5.6836 5.32915L5.6836 5.32915ZM28.3164 5.32915C28.3695 5.32707 28.4084 5.33944 28.4522 5.34844C28.3507 5.3436 28.2268 5.33779 28.2046 5.34318C28.1885 5.34706 28.2332 5.3324 28.3164 5.32915L28.3164 5.32915ZM4.62651 5.95538C4.61916 6.02225 4.61034 6.10385 4.61852 6.11851C4.62441 6.12908 4.60216 6.09967 4.59722 6.04484C4.59407 6.00986 4.61285 5.98421 4.62651 5.95538L4.62651 5.95538ZM29.3735 5.95538C29.3871 5.9842 29.4059 6.00986 29.4028 6.04484C29.3979 6.09967 29.3756 6.12908 29.3815 6.11851C29.3896 6.10385 29.3808 6.02225 29.3734 5.95538L29.3735 5.95538ZM0.315629 12.9527C0.293379 12.9596 0.211222 13.022 0.145217 13.0737C0.166041 13.0467 0.181683 13.0189 0.222436 12.9948C0.284091 12.9583 0.331439 12.9478 0.315629 12.9527V12.9527ZM33.6844 12.9527C33.6686 12.9477 33.7159 12.9583 33.7776 12.9948C33.8183 13.0189 33.834 13.0467 33.8548 13.0737C33.7888 13.022 33.7066 12.9596 33.6844 12.9527V12.9527ZM0.145217 13.9262C0.211224 13.978 0.293376 14.0404 0.315629 14.0473C0.331439 14.0522 0.284091 14.0417 0.222436 14.0052C0.181683 13.981 0.166043 13.9533 0.145217 13.9262V13.9262ZM33.8548 13.9262C33.834 13.9533 33.8183 13.981 33.7776 14.0052C33.7159 14.0417 33.6686 14.0522 33.6844 14.0473C33.7066 14.0404 33.7888 13.978 33.8548 13.9262V13.9262ZM4.61852 20.8815C4.61034 20.8961 4.61916 20.9777 4.62651 21.0446C4.61285 21.0158 4.59408 20.9901 4.59722 20.9551C4.60216 20.9003 4.62442 20.8709 4.61852 20.8815L4.61852 20.8815ZM29.3815 20.8815C29.3756 20.8709 29.3978 20.9003 29.4028 20.9551C29.4059 20.9901 29.3872 21.0158 29.3735 21.0446C29.3809 20.9777 29.3897 20.8961 29.3815 20.8815H29.3815ZM5.5478 21.6515C5.6493 21.6564 5.77317 21.6622 5.79543 21.6568C5.81146 21.653 5.76683 21.6676 5.6836 21.6709C5.6305 21.6729 5.59156 21.6606 5.5478 21.6516L5.5478 21.6515ZM28.4522 21.6515C28.4084 21.6605 28.3695 21.6729 28.3164 21.6708C28.2332 21.6676 28.1885 21.6529 28.2046 21.6568C28.2268 21.6622 28.3507 21.6564 28.4522 21.6515L28.4522 21.6515ZM16.1692 24.4915C16.1797 24.5062 16.2744 24.5603 16.353 24.6038C16.3119 24.59 16.2698 24.5797 16.2331 24.5529C16.1777 24.5123 16.1618 24.4811 16.1692 24.4915H16.1692ZM17.8308 24.4915C17.8383 24.4811 17.8223 24.5123 17.7669 24.5529C17.7302 24.5797 17.6881 24.59 17.647 24.6038C17.7256 24.5603 17.8203 24.5062 17.8308 24.4915H17.8308Z" fill="#F1EAE4"/>
<path fill-rule="evenodd" clip-rule="evenodd" d="M27.7238 20.3973C27.5596 20.5029 17.2321 23.2543 17 23.2543C16.7679 23.2543 6.44036 20.5029 6.27621 20.3973C6.11205 20.2917 1.83427 13.6493 1.83427 13.5C1.83427 13.3507 6.11205 6.70822 6.27621 6.60264C6.44036 6.49706 16.7679 3.74567 17 3.74567C17.2321 3.74567 27.5596 6.49706 27.7238 6.60264C27.8879 6.70822 32.1657 13.3507 32.1657 13.5C32.1657 13.6493 27.8879 20.2917 27.7238 20.3973V20.3973Z" fill="#52A02B"/>
</svg>
