<svg width="13" height="14" viewBox="0 0 13 14" fill="none" xmlns="http://www.w3.org/2000/svg">
<path d="M5.99574 6.05363C5.98153 6.31838 5.86275 6.56665 5.66554 6.74385C5.46833 6.92105 5.20883 7.01269 4.94407 6.99861C4.67932 6.98453 4.43101 6.86589 4.2537 6.66878C4.0764 6.47166 3.98461 6.21219 3.99855 5.94743C4.01249 5.68267 4.13099 5.43429 4.32801 5.25688C4.52504 5.07947 4.78447 4.98755 5.04924 5.00136C5.314 5.01516 5.56246 5.13356 5.73997 5.33049C5.91748 5.52742 6.0095 5.78678 5.99583 6.05156" fill="#7ABA85"/>
<path d="M9.00141 6.05363C8.9872 6.31838 8.86842 6.56665 8.67121 6.74385C8.47401 6.92105 8.2145 7.01269 7.94975 6.99861C7.685 6.98453 7.43669 6.86589 7.25938 6.66878C7.08207 6.47166 6.99028 6.21219 7.00422 5.94743C7.01816 5.68267 7.13667 5.43429 7.33369 5.25688C7.53071 5.07947 7.79015 4.98756 8.05491 5.00136C8.31968 5.01516 8.56814 5.13356 8.74565 5.33049C8.92316 5.52742 9.0152 5.78678 9.00154 6.05156" fill="#7ABA85"/>
<path d="M7.49574 8.38176C7.48152 8.6465 7.36275 8.89477 7.16554 9.07197C6.96833 9.24918 6.70882 9.34081 6.44407 9.32674C6.17932 9.31266 5.93101 9.19402 5.7537 8.9969C5.5764 8.79979 5.48461 8.54032 5.49855 8.27556C5.51248 8.0108 5.63099 7.76241 5.82801 7.58501C6.02504 7.4076 6.28447 7.31568 6.54924 7.32948C6.814 7.34329 7.06246 7.46168 7.23997 7.65861C7.41748 7.85555 7.50949 8.11491 7.49583 8.37968" fill="#7ABA85"/>
</svg>
