<svg width="32" height="32" viewBox="0 0 32 32" fill="none" xmlns="http://www.w3.org/2000/svg">
<g clip-path="url(#clip0)">
<path d="M32.0449 -0.0448914H1.52588e-05V32H32.0449V-0.0448914Z" fill="#FFF1BA"/>
<path d="M4.01201 30H3.00002V31.011H4.01201V30Z" fill="#999999"/>
<path d="M3.00002 16.989H1.98601V18H3.00002V16.989Z" fill="#999999"/>
<path d="M29.014 13H28V14.011H29.014V13Z" fill="#999999"/>
<path d="M14.012 20H13V21.011H14.012V20Z" fill="#999999"/>
<path d="M20.014 14H19V15.011H20.014V14Z" fill="#999999"/>
<path d="M30.014 10H29V11.011H30.014V10Z" fill="#999999"/>
<path d="M18.014 12H17V13.011H18.014V12Z" fill="#999999"/>
<path d="M24 7H22.988V8.01099H24V7Z" fill="#999999"/>
<path d="M11.6692 12.5613H10.6552V13.5723H11.6692V12.5613Z" fill="#999999"/>
<path d="M20 -0.0109863H18.986V1H20V-0.0109863Z" fill="#999999"/>
<path d="M29.012 28H28V29.011H29.012V28Z" fill="#999999"/>
<path d="M6.00002 14H4.98601V15.011H6.00002V14Z" fill="#999999"/>
<path d="M8.01402 5H7.00002V6.01099H8.01402V5Z" fill="#999999"/>
<path d="M15 31H13.986V32.011H15V31Z" fill="#999999"/>
<path d="M7.01201 15.989H6.00002V17H7.01201V15.989Z" fill="#999999"/>
<path d="M14 6H12.986V7.01099H14V6Z" fill="#999999"/>
<path d="M16.5423 3.95996H15.5283V4.97095H16.5423V3.95996Z" fill="#999999"/>
<path d="M2.00002 10H0.988022V11.011H2.00002V10Z" fill="#999999"/>
<path d="M22 26.989H20.986V28H22V26.989Z" fill="#999999"/>
<path d="M32 28H30.986V29.011H32V28Z" fill="#999999"/>
<path d="M24 4H22.986V5.01099H24V4Z" fill="#999999"/>
<path d="M14 24H12.988V25.011H14V24Z" fill="#999999"/>
<path d="M28.014 9H27V10.011H28.014V9Z" fill="#999999"/>
<path d="M27 4H25.986V5.01099H27V4Z" fill="#999999"/>
<path d="M15.012 11.989H14V13H15.012V11.989Z" fill="#999999"/>
<path d="M7.01402 17.989H6.00002V19H7.01402V17.989Z" fill="#999999"/>
<path d="M11.014 23.989H10V25H11.014V23.989Z" fill="#999999"/>
<path d="M6.01402 23H5.00002V24.011H6.01402V23Z" fill="#999999"/>
</g>
<defs>
<clipPath id="clip0">
<path d="M0 0H32V32H0V0Z" fill="white"/>
</clipPath>
</defs>
</svg>
