<?xml version="1.0" encoding="UTF-8"?>
<svg xmlns="http://www.w3.org/2000/svg" xmlns:xlink="http://www.w3.org/1999/xlink" width="12" height="12" viewBox="0 0 12 12">
<path fill-rule="evenodd" fill="rgb(100%, 100%, 100%)" fill-opacity="1" d="M 8.625 8.492188 C 8.859375 8.230469 9 7.882812 9 7.5 L 9 4.28125 C 9 3.742188 8.785156 3.226562 8.40625 2.84375 C 8.023438 2.464844 7.507812 2.25 6.96875 2.25 L 5.03125 2.25 C 4.492188 2.25 3.976562 2.464844 3.59375 2.84375 C 3.214844 3.226562 3 3.742188 3 4.28125 L 3 7.5 C 3 7.882812 3.140625 8.230469 3.375 8.492188 C 3.40625 9.191406 3.980469 9.75 4.6875 9.75 C 5.210938 9.75 5.664062 9.445312 5.875 9 L 6.125 9 C 6.335938 9.445312 6.789062 9.75 7.3125 9.75 C 8.019531 9.75 8.59375 9.191406 8.625 8.492188 Z M 8.625 8.492188 "/>
</svg>
