<?xml version="1.0" encoding="UTF-8"?>
<svg xmlns="http://www.w3.org/2000/svg" xmlns:xlink="http://www.w3.org/1999/xlink" width="12" height="12" viewBox="0 0 12 12">
<defs>
<filter id="filter-remove-color" x="0%" y="0%" width="100%" height="100%">
<feColorMatrix color-interpolation-filters="sRGB" values="0 0 0 0 1 0 0 0 0 1 0 0 0 0 1 0 0 0 1 0" />
</filter>
<mask id="mask-0">
<g filter="url(#filter-remove-color)">
<rect x="-1.2" y="-1.2" width="14.4" height="14.4" fill="rgb(0%, 0%, 0%)" fill-opacity="0.807"/>
</g>
</mask>
<clipPath id="clip-0">
<rect x="0" y="0" width="12" height="12"/>
</clipPath>
<g id="source-6" clip-path="url(#clip-0)">
<path fill-rule="nonzero" fill="rgb(92.156863%, 90.588235%, 89.411765%)" fill-opacity="1" d="M 3.039062 1.019531 C 2.707031 1.019531 2.328125 1.152344 2.070312 1.40625 C 1.816406 1.65625 1.675781 2.039062 1.675781 2.375 C 1.675781 2.738281 1.835938 3.125 2.089844 3.382812 C 2.152344 3.445312 2.273438 3.441406 2.351562 3.496094 C 2.210938 3.5625 2.027344 3.609375 1.789062 3.625 C 1.589844 3.636719 1.40625 3.722656 1.269531 3.867188 C 1.136719 4.007812 1.058594 4.199219 1.058594 4.394531 L 1.058594 4.660156 C 1.058594 4.851562 1.128906 5.035156 1.257812 5.179688 C 1.386719 5.320312 1.5625 5.410156 1.753906 5.429688 L 1.746094 5.925781 C 1.746094 5.933594 1.746094 5.945312 1.746094 5.953125 L 1.75 6.15625 L 1.746094 6.378906 C 1.746094 6.398438 1.746094 6.417969 1.746094 6.4375 C 1.757812 6.601562 1.757812 6.714844 1.757812 6.738281 C 1.757812 6.796875 1.757812 6.863281 1.753906 6.9375 L 1.671875 6.949219 C 1.484375 6.976562 1.3125 7.070312 1.1875 7.214844 C 1.0625 7.359375 1 7.546875 1.003906 7.738281 L 1.011719 8.046875 C 1.019531 8.246094 1.101562 8.4375 1.246094 8.578125 C 1.390625 8.71875 1.582031 8.796875 1.785156 8.796875 C 1.890625 8.796875 1.988281 8.789062 2.140625 8.777344 C 2.265625 8.765625 2.394531 8.761719 2.53125 8.761719 C 2.84375 8.761719 3.03125 8.773438 3.265625 8.777344 C 3.171875 8.984375 3.019531 9.167969 3.019531 9.40625 C 3.019531 10.230469 3.660156 10.988281 4.527344 10.988281 C 4.542969 10.988281 4.539062 10.988281 4.550781 10.988281 C 4.625 11.007812 4.65625 11.105469 4.738281 11.105469 C 5.019531 11.105469 5.140625 11.046875 5.324219 10.949219 C 5.417969 10.902344 5.515625 10.84375 5.628906 10.726562 C 5.738281 10.609375 5.878906 10.40625 5.882812 10.113281 C 5.882812 10.109375 5.882812 10.109375 5.882812 10.105469 L 5.882812 9.351562 C 5.894531 9.292969 5.902344 9.234375 5.902344 9.175781 C 5.902344 8.714844 6.042969 8.378906 6.238281 8.164062 C 6.4375 7.949219 6.691406 7.824219 7.074219 7.824219 C 7.460938 7.824219 7.714844 7.949219 7.914062 8.164062 C 8.109375 8.378906 8.246094 8.710938 8.246094 9.175781 C 8.246094 9.222656 8.253906 9.265625 8.261719 9.3125 L 8.261719 10.105469 C 8.261719 10.398438 8.40625 10.609375 8.515625 10.726562 C 8.625 10.84375 8.726562 10.902344 8.820312 10.949219 C 9.003906 11.046875 9.125 11.105469 9.40625 11.105469 C 9.488281 11.105469 9.515625 11.007812 9.59375 10.988281 C 9.605469 10.988281 9.601562 10.988281 9.613281 10.988281 C 10.484375 10.988281 11.125 10.230469 11.125 9.40625 C 11.125 8.761719 10.675781 8.269531 10.09375 8.035156 C 9.996094 7.929688 9.890625 7.859375 9.753906 7.800781 C 9.25 6.730469 8.308594 5.894531 7.074219 5.894531 C 6.09375 5.894531 5.34375 6.46875 4.777344 7.207031 C 4.703125 7.132812 4.609375 7.074219 4.507812 7.035156 C 4.441406 7.007812 4.378906 7 4.3125 6.988281 L 4.34375 5.328125 C 4.34375 5.324219 4.34375 5.320312 4.34375 5.316406 C 4.34375 4.683594 4.335938 4.167969 4.324219 3.765625 C 4.316406 3.570312 4.238281 3.382812 4.097656 3.246094 C 4.167969 3.15625 4.273438 3.097656 4.316406 2.996094 C 4.40625 2.804688 4.460938 2.582031 4.460938 2.355469 C 4.460938 1.988281 4.273438 1.625 4.03125 1.398438 C 3.765625 1.152344 3.382812 1.019531 3.039062 1.019531 Z M 3.039062 1.019531 "/>
</g>
</defs>
<g mask="url(#mask-0)">
<use xlink:href="#source-6"/>
</g>
</svg>
