<?xml version="1.0" encoding="UTF-8"?>
<svg xmlns="http://www.w3.org/2000/svg" xmlns:xlink="http://www.w3.org/1999/xlink" width="12" height="12" viewBox="0 0 12 12">
<defs>
<filter id="filter-remove-color" x="0%" y="0%" width="100%" height="100%">
<feColorMatrix color-interpolation-filters="sRGB" values="0 0 0 0 1 0 0 0 0 1 0 0 0 0 1 0 0 0 1 0" />
</filter>
<mask id="mask-0">
<g filter="url(#filter-remove-color)">
<rect x="-1.2" y="-1.2" width="14.4" height="14.4" fill="rgb(0%, 0%, 0%)" fill-opacity="0.985122"/>
</g>
</mask>
<clipPath id="clip-0">
<rect x="0" y="0" width="12" height="12"/>
</clipPath>
<g id="source-6" clip-path="url(#clip-0)">
<path fill-rule="nonzero" fill="rgb(100%, 100%, 100%)" fill-opacity="1" d="M 5.695312 1.992188 C 5.027344 1.992188 4.480469 2.546875 4.480469 3.210938 C 4.480469 3.714844 4.835938 4.070312 5.28125 4.253906 C 5.242188 4.3125 5.160156 4.355469 5.128906 4.414062 C 5.074219 4.527344 5.070312 4.636719 5.035156 4.75 L 4.832031 4.75 L 4.410156 4.746094 C 2.898438 4.722656 1.847656 5.566406 1.425781 6.46875 C 1.035156 7.308594 1.109375 8.109375 1.109375 8.109375 C 1.125 8.296875 1.214844 8.46875 1.355469 8.589844 C 1.496094 8.710938 1.679688 8.773438 1.863281 8.761719 L 2.988281 8.6875 C 3.171875 8.675781 3.34375 8.59375 3.46875 8.453125 C 3.59375 8.316406 3.65625 8.136719 3.652344 7.953125 C 3.652344 7.953125 3.660156 7.703125 3.734375 7.542969 C 3.796875 7.40625 3.8125 7.394531 3.847656 7.371094 C 3.882812 7.347656 4.007812 7.285156 4.367188 7.292969 C 4.371094 7.292969 4.375 7.292969 4.378906 7.292969 L 5.109375 7.292969 C 5.117188 7.316406 5.121094 7.332031 5.128906 7.351562 C 5.351562 7.804688 5.832031 8.351562 6.566406 8.351562 C 7.300781 8.351562 7.78125 7.804688 8.003906 7.351562 C 8.011719 7.339844 8.011719 7.328125 8.019531 7.3125 L 10.3125 7.324219 C 10.5 7.328125 10.679688 7.253906 10.816406 7.121094 C 10.949219 6.988281 11.023438 6.808594 11.027344 6.621094 L 11.035156 5.496094 C 11.035156 5.308594 10.960938 5.125 10.828125 4.992188 C 10.695312 4.859375 10.515625 4.78125 10.328125 4.78125 L 8.101562 4.769531 C 8.0625 4.648438 8.0625 4.535156 8.003906 4.414062 C 7.972656 4.355469 7.894531 4.316406 7.859375 4.257812 C 8.304688 4.074219 8.664062 3.71875 8.664062 3.210938 C 8.664062 2.546875 8.117188 1.992188 7.449219 1.992188 L 7.441406 1.992188 C 7.433594 1.992188 7.425781 1.992188 7.414062 1.992188 C 7.097656 2.007812 6.898438 2.101562 6.710938 2.167969 C 6.691406 2.175781 6.695312 2.175781 6.679688 2.179688 C 6.632812 2.175781 6.59375 2.140625 6.550781 2.140625 C 6.546875 2.140625 6.546875 2.140625 6.546875 2.140625 C 6.511719 2.140625 6.484375 2.167969 6.449219 2.171875 C 6.449219 2.171875 6.445312 2.171875 6.445312 2.171875 C 6.257812 2.105469 6.050781 2.007812 5.730469 1.992188 C 5.722656 1.992188 5.710938 1.992188 5.703125 1.992188 Z M 5.695312 1.992188 "/>
</g>
</defs>
<g mask="url(#mask-0)">
<use xlink:href="#source-6"/>
</g>
</svg>
