<svg width="16" height="16" viewBox="0 0 16 16" fill="none" xmlns="http://www.w3.org/2000/svg">
<path opacity="0.812" d="M7.98884 1.01965C6.92688 1.01965 6.04097 1.86575 5.97977 2.92156C5.82437 3.01077 5.6947 3.13279 5.55117 3.24301L4.88148 2.57332C4.70245 2.4194 4.4042 2.43183 4.23858 2.60011C3.49201 3.34669 3.47457 4.5201 4.15822 5.30565C4.10945 5.47542 4.078 5.6588 4.05107 5.8414H3.1403C2.88623 5.83536 2.65209 6.06951 2.65812 6.32357C2.65812 7.39508 3.52928 8.27207 4.58682 8.33263C4.67599 8.4879 4.7981 8.61768 4.90827 8.76123L4.23858 9.43092C4.07766 9.60334 4.07766 9.9014 4.23858 10.0738C4.98531 10.8211 6.1588 10.8374 6.94412 10.1542C7.12302 10.2047 7.31451 10.2344 7.50666 10.2613V11.1721C7.50702 11.3169 7.57851 11.4599 7.69417 11.5471C7.58746 11.5545 7.4606 11.6007 7.37272 11.6007C6.85972 11.6007 5.94721 11.4813 5.4976 11.2793C5.50062 11.2807 5.46772 11.2513 5.47081 11.2525C5.4739 11.2537 5.41408 11.2515 5.41723 11.2525C5.42038 11.2535 5.38724 11.2248 5.39045 11.2257C5.39366 11.2265 5.33362 11.225 5.33687 11.2257C5.34012 11.2263 5.28002 11.2252 5.2833 11.2257C5.28658 11.2261 5.25321 11.2254 5.25651 11.2257C5.25849 11.2258 5.24336 11.1996 5.22972 11.1989C5.22063 11.1984 5.20161 11.1988 5.20293 11.1989C5.20458 11.1989 5.18807 11.1988 5.17615 11.1989C5.17873 11.199 5.14678 11.1989 5.14936 11.1989C5.15193 11.199 5.11999 11.1989 5.12257 11.1989C5.12515 11.1989 5.06642 11.199 5.069 11.1989C5.00164 11.2116 4.93715 11.2392 4.88148 11.2792C4.85397 11.2857 4.82703 11.2947 4.80112 11.306C4.33443 11.4931 3.49677 11.6007 3.00636 11.6007C2.75318 11.6007 2.52971 11.5909 2.33667 11.5739C2.31883 11.5729 2.30094 11.5729 2.2831 11.5739C2.28714 11.574 2.22549 11.5741 2.22952 11.5739C2.23356 11.5737 2.17194 11.6012 2.17595 11.6007C2.17996 11.6002 2.11841 11.6015 2.12237 11.6007C2.12634 11.5999 2.06489 11.6017 2.0688 11.6007C2.0727 11.5997 2.0114 11.6288 2.01522 11.6275C2.01903 11.6262 1.98472 11.6559 1.98843 11.6543C1.99215 11.6527 1.93126 11.6829 1.93486 11.6811C1.93846 11.6792 1.87783 11.7099 1.88128 11.7079C1.88474 11.7058 1.82441 11.737 1.82771 11.7346C1.83101 11.7323 1.79779 11.764 1.80092 11.7614C1.80405 11.7588 1.7444 11.791 1.74735 11.7882C1.75029 11.7855 1.71782 11.8448 1.72056 11.8418C1.7233 11.8388 1.66446 11.8717 1.66698 11.8686C1.6695 11.8654 1.6379 11.9255 1.6402 11.9222C1.6425 11.9189 1.61135 11.9792 1.61341 11.9758C1.61547 11.9723 1.58481 12.0062 1.58662 12.0025C1.58843 11.9989 1.55829 12.0598 1.55984 12.0561C1.56139 12.0523 1.55856 12.1135 1.55984 12.1097C1.56112 12.1058 1.53204 12.1672 1.53305 12.1633C1.53406 12.1594 1.53232 12.2208 1.53305 12.2169C1.53378 12.213 1.50581 12.2745 1.50626 12.2704C1.50671 12.2664 1.50609 12.328 1.50626 12.324C1.50643 12.32 1.50638 12.3816 1.50626 12.3776C1.50615 12.3736 1.50666 12.4352 1.50626 12.4312C1.50586 12.4272 1.50694 12.4887 1.50626 12.4847C1.50558 12.4808 1.53401 12.5422 1.53305 12.5383C1.53209 12.5344 1.53428 12.5957 1.53305 12.5919C1.53182 12.588 1.56134 12.6492 1.55984 12.6455C1.55834 12.6417 1.58838 12.7027 1.58662 12.6991C1.58486 12.6955 1.61542 12.7293 1.61341 12.7258C1.6114 12.7223 1.64245 12.7828 1.6402 12.7794C1.63795 12.7761 1.66947 12.8362 1.66698 12.833C1.66475 12.8301 1.69619 12.8625 1.69377 12.8598C1.69136 12.8571 1.74993 12.8892 1.74735 12.8866C1.74477 12.884 1.77688 12.9426 1.77413 12.9402C1.77139 12.9378 1.80381 12.9692 1.80092 12.967C1.80985 12.9672 1.81878 12.9672 1.82771 12.967C1.82487 12.9649 1.85746 12.9956 1.8545 12.9937C1.85154 12.9918 1.91114 13.0222 1.90807 13.0205C1.905 13.0188 1.93803 13.0488 1.93486 13.0473C1.93169 13.0458 1.99169 13.0754 1.98843 13.0741C1.98518 13.0728 2.01855 13.0752 2.01522 13.0741C2.01189 13.073 2.07218 13.1018 2.06879 13.1009C2.0654 13.1 2.1258 13.1016 2.12237 13.1009C2.11893 13.1002 2.17942 13.1014 2.17594 13.1009C2.17569 13.1098 2.17569 13.1188 2.17594 13.1277C2.50067 13.1529 2.33667 13.1813 2.33667 13.1813C2.32774 13.181 2.31881 13.181 2.30988 13.1813C2.31377 13.1814 2.25241 13.1813 2.25631 13.1813C2.26021 13.1812 2.19885 13.2084 2.20273 13.2081C2.20661 13.2077 2.14531 13.2087 2.14916 13.2081C2.15301 13.2074 2.09178 13.2089 2.09558 13.2081C2.09938 13.2072 2.03828 13.236 2.04201 13.2348C2.04574 13.2337 1.98479 13.2362 1.98843 13.2348C1.99208 13.2334 1.9581 13.2633 1.96164 13.2616C1.96518 13.26 1.90464 13.2903 1.90807 13.2884C1.9115 13.2865 1.8512 13.3173 1.85449 13.3152C1.85778 13.3131 1.82456 13.3443 1.82771 13.342C1.83085 13.3397 1.77115 13.3713 1.77413 13.3688C1.77711 13.3663 1.74454 13.3983 1.74734 13.3956C1.75014 13.3929 1.69116 13.452 1.69377 13.4492C1.69638 13.4463 1.66457 13.479 1.66698 13.4759C1.66939 13.4728 1.638 13.5327 1.6402 13.5295C1.6424 13.5262 1.61143 13.5865 1.61341 13.5831C1.61539 13.5798 1.58488 13.6134 1.58662 13.6099C1.58836 13.6064 1.55833 13.6671 1.55983 13.6635C1.56133 13.6599 1.53179 13.7207 1.53305 13.717C1.53431 13.7133 1.53205 13.7744 1.53305 13.7706C1.53405 13.7668 1.50551 13.828 1.50626 13.8242C1.50701 13.8203 1.50577 13.8816 1.50626 13.8778C1.50674 13.8739 1.50604 13.9353 1.50626 13.9314C1.50648 13.9275 1.5063 13.962 1.50626 13.9581C1.50622 13.9542 1.50657 14.0156 1.50626 14.0117C1.50595 14.0078 1.50683 14.0692 1.50626 14.0653C1.50569 14.0614 1.50709 14.1227 1.50626 14.1189C1.50543 14.1151 1.53413 14.1762 1.53305 14.1725C1.53196 14.1687 1.53439 14.2297 1.53305 14.226C1.53171 14.2223 1.56142 14.2832 1.55983 14.2796C1.55825 14.276 1.58844 14.3366 1.58662 14.3332C1.5848 14.3298 1.61546 14.3633 1.61341 14.36C1.61315 14.3689 1.61315 14.3778 1.61341 14.3868C1.61187 14.3845 1.64184 14.4158 1.6402 14.4136C1.63855 14.4114 1.66873 14.4425 1.66698 14.4404C1.66523 14.4383 1.69562 14.4692 1.69377 14.4671C1.69192 14.465 1.7225 14.4959 1.72056 14.4939C1.71862 14.4919 1.74938 14.5226 1.74734 14.5207C1.7453 14.5188 1.77625 14.5493 1.77413 14.5475C1.77201 14.5458 1.80312 14.5759 1.80092 14.5743C1.79982 14.5735 1.81964 14.5686 1.82771 14.5743C1.83578 14.58 1.82885 14.6019 1.82771 14.6011C1.83815 14.6081 1.85597 14.602 1.85449 14.6011C1.85153 14.5992 1.91114 14.6296 1.90807 14.6279C1.905 14.6262 1.93802 14.6562 1.93485 14.6547C1.93168 14.6532 1.99168 14.6828 1.98843 14.6815C1.98518 14.6802 2.01854 14.6826 2.01522 14.6815C2.01189 14.6804 2.07218 14.7091 2.06879 14.7083C2.0654 14.7074 2.1258 14.7089 2.12237 14.7083C2.11893 14.7076 2.17941 14.7087 2.17594 14.7083C2.17569 14.7172 2.17569 14.7261 2.17594 14.735C2.42491 14.757 2.71567 14.7618 3.00635 14.7618C3.60785 14.7618 4.43039 14.6476 5.17614 14.3868C5.93386 14.6569 6.7678 14.7618 7.37272 14.7618C7.97534 14.7618 8.81631 14.65 9.56929 14.3868C10.3223 14.65 11.1632 14.7618 11.7659 14.7618C12.4429 14.7618 13.4197 14.6827 14.2571 14.3064C14.2541 14.3077 14.3136 14.2782 14.3107 14.2797C14.3078 14.2812 14.3403 14.2781 14.3375 14.2797C14.3347 14.2813 14.367 14.2511 14.3643 14.2529C14.3616 14.2547 14.4204 14.2241 14.4178 14.2261C14.4152 14.2281 14.4471 14.1972 14.4446 14.1993C14.4421 14.2014 14.4738 14.1703 14.4714 14.1725C14.469 14.1747 14.5004 14.1434 14.4982 14.1457C14.496 14.1481 14.5271 14.0896 14.525 14.0921C14.5343 14.0835 14.5432 14.0746 14.5518 14.0653C14.5505 14.0671 14.5798 14.0367 14.5786 14.0385C14.5774 14.0404 14.6065 14.0098 14.6054 14.0118C14.6042 14.0137 14.6065 13.983 14.6054 13.985C14.6043 13.987 14.6332 13.9562 14.6322 13.9582C14.6312 13.9602 14.6331 13.9294 14.6322 13.9314C14.6312 13.9335 14.6598 13.9025 14.6589 13.9046C14.6581 13.9067 14.6597 13.8757 14.6589 13.8778C14.6582 13.8799 14.6596 13.8489 14.6589 13.851C14.6583 13.8531 14.6863 13.8221 14.6857 13.8242C14.6851 13.8263 14.6863 13.7953 14.6857 13.7974C14.6852 13.7995 14.6862 13.7685 14.6857 13.7706C14.6853 13.7728 14.6861 13.7416 14.6857 13.7439C14.6854 13.7461 14.686 13.7148 14.6857 13.7171C14.6855 13.7193 14.7127 13.688 14.7125 13.6903C14.7124 13.6925 14.7126 13.6613 14.7125 13.6635C14.7124 13.6657 14.7125 13.6077 14.7125 13.6099C14.7125 13.6121 14.7124 13.5809 14.7125 13.5831C14.7126 13.5853 14.7124 13.5541 14.7125 13.5563C14.7127 13.5585 14.6855 13.5273 14.6857 13.5295C14.686 13.5317 14.6854 13.5005 14.6857 13.5027C14.6861 13.5049 14.6853 13.4738 14.6857 13.476C14.6862 13.4782 14.6852 13.447 14.6857 13.4492C14.6863 13.4513 14.6851 13.4202 14.6857 13.4224C14.6863 13.4245 14.6583 13.3935 14.6589 13.3956C14.6596 13.3977 14.6582 13.3667 14.6589 13.3688C14.6597 13.3709 14.6581 13.3399 14.6589 13.342C14.6598 13.3441 14.6312 13.3132 14.6322 13.3152C14.6331 13.3173 14.6312 13.2864 14.6322 13.2884C14.6332 13.2904 14.6043 13.2597 14.6054 13.2616C14.6065 13.2636 14.6042 13.2329 14.6054 13.2348C14.6066 13.2367 14.5773 13.2062 14.5786 13.2081C14.5798 13.21 14.5505 13.1794 14.5518 13.1813C14.5532 13.1832 14.5503 13.1526 14.5518 13.1545C14.5533 13.1564 14.5235 13.1259 14.525 13.1277C14.5265 13.1295 14.4966 13.0992 14.4982 13.1009C14.4998 13.1026 14.4698 13.0724 14.4714 13.0741C14.473 13.0758 14.4429 13.0457 14.4446 13.0473C14.4464 13.0488 14.416 13.0191 14.4178 13.0205C14.4197 13.022 14.3891 12.9924 14.391 12.9937C14.3929 12.9951 14.3623 12.9656 14.3643 12.9669C14.3663 12.9682 14.3355 12.9657 14.3375 12.9669C14.3396 12.9681 14.3086 12.939 14.3107 12.9402C14.3128 12.9413 14.2818 12.9392 14.2839 12.9402C14.286 12.9412 14.2549 12.9124 14.2571 12.9134C14.2592 12.9143 14.2281 12.9125 14.2303 12.9134C14.2325 12.9142 14.1745 12.8858 14.1767 12.8866C14.1789 12.8874 14.1477 12.8859 14.1499 12.8866C14.1521 12.8873 14.1209 12.886 14.1232 12.8866C14.1255 12.8872 14.0941 12.8593 14.0964 12.8598C14.0987 12.8603 14.0673 12.8594 14.0696 12.8598C14.0719 12.8602 14.0405 12.8595 14.0428 12.8598C14.0451 12.8601 14.0136 12.8596 14.016 12.8598C14.0183 12.86 13.9601 12.8597 13.9624 12.8598C13.9647 12.8599 13.9333 12.8598 13.9356 12.8598C13.9379 12.8598 13.9065 12.8599 13.9088 12.8598C13.9111 12.8597 13.8797 12.86 13.8821 12.8598C13.8844 12.8596 13.8529 12.86 13.8553 12.8598C13.8576 12.8595 13.8261 12.8601 13.8285 12.8598C13.8308 12.8594 13.7726 12.8602 13.7749 12.8598C13.7772 12.8593 13.7458 12.8603 13.7481 12.8598C13.7504 12.8592 13.7191 12.8872 13.7213 12.8866C13.7235 12.8859 13.6923 12.8873 13.6945 12.8866C13.6967 12.8858 13.6655 12.9142 13.6677 12.9134C13.6588 12.9131 13.6499 12.9131 13.6409 12.9134C13.5718 12.9444 13.4353 12.9403 13.3463 12.9669C13.4809 12.9379 13.6146 12.9001 13.7481 12.8598C13.9195 12.8081 14.0934 12.7726 14.2571 12.6991C14.2544 12.7004 14.3133 12.6709 14.3106 12.6723C14.3079 12.6737 14.34 12.6708 14.3374 12.6723C14.3348 12.6738 14.3667 12.6438 14.3642 12.6455C14.3617 12.6472 14.4202 12.6169 14.4178 12.6187C14.4154 12.6205 14.4469 12.59 14.4446 12.5919C14.4423 12.5939 14.4736 12.5631 14.4714 12.5651C14.4692 12.5672 14.5002 12.5361 14.4982 12.5383C14.4961 12.5405 14.5269 12.4825 14.5249 12.4848C14.5234 12.4865 14.5531 12.4562 14.5517 12.458C14.5502 12.4598 14.5799 12.4561 14.5785 12.458C14.5771 12.4599 14.6066 12.4293 14.6053 12.4312C14.604 12.4331 14.6065 12.4024 14.6053 12.4044C14.6041 12.4064 14.6332 12.3488 14.6321 12.3508C14.631 12.3528 14.6331 12.322 14.6321 12.324C14.6311 12.3261 14.6598 12.2951 14.6589 12.2972C14.658 12.2993 14.6597 12.2683 14.6589 12.2704C14.6581 12.2725 14.6864 12.2415 14.6857 12.2436C14.6849 12.2457 14.6863 12.2147 14.6857 12.2169C14.685 12.2191 14.6863 12.1878 14.6857 12.1901C14.6851 12.1923 14.7129 12.161 14.7125 12.1633C14.712 12.1655 14.7129 12.1074 14.7125 12.1097C14.7121 12.1119 14.7128 12.0806 14.7125 12.0829C14.7122 12.0852 14.7127 12.0538 14.7125 12.0561C14.7123 12.0584 14.7126 12.027 14.7125 12.0293C14.7124 12.0316 14.7125 12.0003 14.7125 12.0025C14.7125 12.0048 14.7124 11.9467 14.7125 11.949C14.7126 11.9513 14.7123 11.9199 14.7125 11.9222C14.7127 11.9245 14.7122 11.8931 14.7125 11.8954C14.7128 11.8977 14.7121 11.8663 14.7125 11.8686C14.7129 11.8708 14.712 11.8396 14.7125 11.8418C14.713 11.844 14.6851 11.786 14.6857 11.7882C14.6863 11.7904 14.685 11.7592 14.6857 11.7614C14.6863 11.7636 14.6849 11.7325 14.6857 11.7346C14.6864 11.7367 14.6581 11.7057 14.6589 11.7079C14.6597 11.71 14.658 11.679 14.6589 11.6811C14.6598 11.6832 14.6311 11.6522 14.6321 11.6543C14.6331 11.6564 14.631 11.6255 14.6321 11.6275C14.6332 11.6295 14.6041 11.5987 14.6053 11.6007C14.6065 11.6027 14.604 11.572 14.6053 11.5739C14.6066 11.5758 14.5772 11.5453 14.5785 11.5471C14.5799 11.549 14.5503 11.5185 14.5517 11.5203C14.5532 11.5221 14.5235 11.4918 14.5249 11.4935C14.5264 11.4952 14.5234 11.4651 14.5249 11.4667C14.5264 11.4684 14.4965 11.4383 14.4982 11.44C14.4998 11.4416 14.4697 11.4116 14.4714 11.4132C14.4731 11.4147 14.4428 11.3849 14.4446 11.3864C14.4464 11.3879 14.416 11.385 14.4178 11.3864C14.4196 11.3878 14.3891 11.3583 14.391 11.3596C14.3929 11.3609 14.3623 11.3316 14.3642 11.3328C14.3662 11.334 14.3354 11.3317 14.3374 11.3328C14.3394 11.3339 14.3086 11.3049 14.3106 11.306C14.3127 11.3071 14.2818 11.2782 14.2838 11.2792C14.2859 11.2802 14.2549 11.2783 14.257 11.2792C14.2591 11.2802 14.2281 11.2516 14.2303 11.2524C14.2324 11.2532 14.1745 11.2517 14.1767 11.2524C14.1788 11.2531 14.1477 11.2518 14.1499 11.2524C14.1521 11.2531 14.1209 11.2251 14.1231 11.2256C14.1253 11.2262 14.0941 11.2252 14.0963 11.2256C14.0985 11.2261 14.0673 11.2253 14.0695 11.2256C14.0717 11.226 14.0405 11.2254 14.0427 11.2256C14.045 11.2259 13.9869 11.2255 13.9892 11.2256C13.9915 11.2258 13.9601 11.2256 13.9624 11.2256C13.9647 11.2257 13.9333 11.2257 13.9356 11.2256C13.9379 11.2256 13.9065 11.2258 13.9088 11.2256C13.9111 11.2255 13.8797 11.2259 13.882 11.2256C13.8843 11.2254 13.8262 11.2259 13.8284 11.2256C13.8306 11.2253 13.7994 11.226 13.8016 11.2256C13.8038 11.2252 13.7726 11.2261 13.7748 11.2256C13.777 11.2251 13.7458 11.253 13.7481 11.2524C13.7503 11.2518 13.7191 11.2531 13.7213 11.2524C13.7235 11.2517 13.6655 11.2532 13.6677 11.2524C13.6698 11.2516 13.6388 11.2801 13.6409 11.2792C13.1913 11.4812 12.2788 11.6007 11.7658 11.6007C11.2599 11.6007 10.3738 11.4767 9.91743 11.2792C9.911 11.2765 9.8969 11.282 9.89065 11.2792C9.87975 11.2741 9.86233 11.2786 9.86386 11.2792C9.86695 11.2805 9.83394 11.2513 9.83707 11.2524C9.84024 11.2535 9.7803 11.2247 9.7835 11.2256C9.78667 11.2266 9.75346 11.2249 9.75671 11.2256C9.75997 11.2264 9.69985 11.2251 9.70313 11.2256C9.70642 11.2262 9.64624 11.1985 9.64956 11.1988C9.65288 11.1992 9.61944 11.1986 9.62277 11.1988C9.6261 11.199 9.56586 11.1988 9.5692 11.1988C9.57254 11.1988 9.51229 11.199 9.51562 11.1988C9.51895 11.1986 9.48552 11.1992 9.48883 11.1988C9.49215 11.1985 9.43197 11.2262 9.43526 11.2256C9.43855 11.2251 9.37843 11.2264 9.38168 11.2256C9.38493 11.2249 9.3517 11.2266 9.3549 11.2256C9.3581 11.2247 9.29818 11.2536 9.30132 11.2524C9.30446 11.2513 9.27146 11.2805 9.27453 11.2792C9.27606 11.2786 9.25864 11.2741 9.24775 11.2792C9.23685 11.2843 9.21947 11.28 9.22096 11.2792C9.16745 11.3024 9.07079 11.3116 9.00666 11.3328C9.5481 10.9978 9.92476 10.4189 9.97101 9.75232C10.139 9.65269 10.2771 9.52496 10.4264 9.40408L11.0961 10.0738C11.2685 10.2347 11.5666 10.2347 11.739 10.0738C12.4856 9.3271 12.5025 8.15374 11.8193 7.36823C11.8665 7.18538 11.879 6.9947 11.8997 6.80569H12.8373C13.0913 6.81172 13.3255 6.57758 13.3194 6.32352C13.3194 5.25201 12.44 4.40007 11.3907 4.34124C11.305 4.19016 11.2015 4.05291 11.0961 3.91264L11.739 3.26974C11.9155 3.09508 11.9155 2.77472 11.739 2.60006C10.9957 1.85675 9.82507 1.82808 9.03355 2.49296C8.85207 2.44413 8.65934 2.43454 8.47101 2.4126V1.50182C8.47705 1.24775 8.2429 1.01361 7.98884 1.01965Z" fill="#EBE7E4"/>
</svg>
