<svg width="33" height="30" viewBox="0 0 33 30" fill="none" xmlns="http://www.w3.org/2000/svg">
<path opacity="0.781" d="M16.4434 4.54887C16.3483 4.55321 16.254 4.56814 16.1621 4.59339C14.066 5.16646 11.851 5.47379 9.55859 5.47379C7.38671 5.47379 5.28445 5.19869 3.28711 4.68245C2.66768 4.52298 2.02654 4.84368 1.76172 5.44545C1.12101 6.90272 0.674584 8.46144 0.457031 10.0903C0.350383 11.2557 0.325535 11.383 0.3125 12.2498C0.3125 21.21 7.37648 28.5263 16.3535 29.5622C16.4509 29.5734 16.5491 29.5734 16.6465 29.5622C25.6235 28.5263 32.6875 21.21 32.6875 12.2498C32.6546 11.4786 32.6285 11.0211 32.543 10.0903C32.3255 8.46139 31.879 6.90269 31.2383 5.44545C30.9735 4.84368 30.3323 4.52298 29.7129 4.68245C27.7156 5.1987 25.6133 5.47379 23.4414 5.47379C21.149 5.47379 18.934 5.16646 16.8379 4.59339C16.7093 4.55812 16.5763 4.54311 16.4434 4.54887V4.54887Z" fill="#F1EAE4"/>
<path d="M16.5 5.92108C14.2939 6.52423 11.965 6.846 9.5586 6.846C7.27882 6.846 5.06887 6.5575 2.9668 6.01418C2.38069 7.34725 1.97416 8.76979 1.77344 10.2563H1.76953L1.69531 11.0759C1.67839 11.3704 1.63672 11.9514 1.63672 12.2498C1.63672 20.4604 8.1248 27.2316 16.5 28.1981C24.8752 27.2316 31.3633 20.4604 31.3633 12.2498C31.3633 11.9549 31.3321 11.0907 31.2246 10.2785H31.2305C31.0309 8.7839 30.6223 7.354 30.0332 6.01418C27.9312 6.55752 25.7212 6.846 23.4414 6.846C21.035 6.846 18.7061 6.52423 16.5 5.92108Z" fill="#006B54"/>
</svg>
