<?xml version="1.0" encoding="UTF-8"?>
<svg xmlns="http://www.w3.org/2000/svg" xmlns:xlink="http://www.w3.org/1999/xlink" width="12" height="12" viewBox="0 0 12 12">
<path fill-rule="nonzero" fill="rgb(100%, 100%, 100%)" fill-opacity="1" d="M 4.332031 1.082031 C 4.242188 1.082031 4.152344 1.097656 4.070312 1.132812 C 3.988281 1.167969 3.914062 1.21875 3.847656 1.28125 C 3.785156 1.34375 3.734375 1.421875 3.699219 1.503906 C 3.664062 1.585938 3.648438 1.675781 3.648438 1.765625 L 3.648438 4.097656 C 3.648438 4.253906 3.703125 4.410156 3.804688 4.53125 C 3.90625 4.65625 4.046875 4.738281 4.203125 4.769531 L 3.121094 10.171875 C 3.101562 10.269531 3.101562 10.371094 3.125 10.46875 C 3.152344 10.566406 3.195312 10.660156 3.261719 10.738281 C 3.324219 10.816406 3.40625 10.878906 3.496094 10.921875 C 3.589844 10.964844 3.6875 10.988281 3.789062 10.988281 L 8.210938 10.988281 C 8.3125 10.988281 8.410156 10.964844 8.503906 10.921875 C 8.59375 10.878906 8.675781 10.816406 8.738281 10.738281 C 8.804688 10.660156 8.847656 10.566406 8.875 10.46875 C 8.898438 10.371094 8.902344 10.269531 8.878906 10.171875 L 7.796875 4.765625 C 7.949219 4.730469 8.082031 4.644531 8.179688 4.523438 C 8.277344 4.402344 8.332031 4.253906 8.332031 4.097656 L 8.332031 1.765625 C 8.332031 1.675781 8.3125 1.585938 8.28125 1.503906 C 8.246094 1.421875 8.195312 1.34375 8.132812 1.28125 C 8.066406 1.21875 7.992188 1.167969 7.910156 1.132812 C 7.828125 1.097656 7.738281 1.082031 7.648438 1.082031 L 7.085938 1.082031 C 6.976562 1.082031 6.871094 1.109375 6.773438 1.15625 C 6.679688 1.105469 6.570312 1.082031 6.460938 1.082031 L 5.519531 1.082031 C 5.40625 1.082031 5.296875 1.109375 5.195312 1.160156 C 5.097656 1.109375 4.988281 1.082031 4.875 1.082031 Z M 4.332031 1.082031 "/>
</svg>
