<?xml version="1.0" encoding="UTF-8"?>
<svg xmlns="http://www.w3.org/2000/svg" xmlns:xlink="http://www.w3.org/1999/xlink" width="12" height="12" viewBox="0 0 12 12">
<defs>
<filter id="filter-remove-color" x="0%" y="0%" width="100%" height="100%">
<feColorMatrix color-interpolation-filters="sRGB" values="0 0 0 0 1 0 0 0 0 1 0 0 0 0 1 0 0 0 1 0" />
</filter>
<mask id="mask-0">
<g filter="url(#filter-remove-color)">
<rect x="-1.2" y="-1.2" width="14.4" height="14.4" fill="rgb(0%, 0%, 0%)" fill-opacity="0.802"/>
</g>
</mask>
<clipPath id="clip-0">
<rect x="0" y="0" width="12" height="12"/>
</clipPath>
<g id="source-6" clip-path="url(#clip-0)">
<path fill-rule="nonzero" fill="rgb(92.156863%, 90.588235%, 89.411765%)" fill-opacity="1" d="M 3.066406 0.796875 C 3.054688 0.800781 3.042969 0.800781 3.03125 0.804688 C 2.914062 0.839844 2.808594 0.902344 2.722656 0.992188 L 1.65625 1.976562 C 1.65625 1.980469 1.652344 1.980469 1.652344 1.984375 C 1.328125 2.292969 1.355469 2.765625 1.710938 3.039062 L 4.449219 5.367188 C 4.449219 5.378906 4.449219 5.382812 4.445312 5.394531 L 1.710938 7.710938 C 1.355469 7.984375 1.328125 8.457031 1.652344 8.765625 C 1.652344 8.769531 1.65625 8.769531 1.65625 8.773438 L 2.722656 9.757812 C 3.03125 10.082031 3.503906 10.054688 3.777344 9.695312 C 3.777344 9.691406 3.78125 9.691406 3.78125 9.6875 L 3.890625 9.539062 C 3.886719 9.550781 3.886719 9.566406 3.882812 9.578125 C 3.855469 9.828125 3.832031 10.035156 3.820312 10.183594 C 3.8125 10.261719 3.808594 10.320312 3.808594 10.378906 C 3.808594 10.410156 3.804688 10.433594 3.816406 10.492188 C 3.820312 10.523438 3.8125 10.558594 3.871094 10.660156 C 3.882812 10.6875 3.9375 10.753906 3.9375 10.753906 C 3.9375 10.753906 4.078125 10.859375 4.078125 10.859375 C 4.078125 10.859375 4.300781 10.90625 4.300781 10.90625 C 4.300781 10.90625 4.492188 10.859375 4.492188 10.859375 C 4.371094 10.917969 4.378906 10.898438 4.371094 10.898438 C 4.390625 10.894531 4.429688 10.894531 4.476562 10.894531 C 4.574219 10.890625 4.714844 10.890625 4.882812 10.890625 C 5.21875 10.890625 5.660156 10.890625 6.101562 10.894531 C 6.539062 10.898438 6.976562 10.898438 7.3125 10.894531 C 7.480469 10.894531 7.621094 10.890625 7.730469 10.886719 C 7.785156 10.882812 7.828125 10.878906 7.878906 10.875 C 7.902344 10.871094 7.925781 10.867188 7.972656 10.855469 C 7.996094 10.847656 8.023438 10.84375 8.078125 10.8125 C 8.105469 10.800781 8.179688 10.742188 8.179688 10.738281 C 8.183594 10.738281 8.25 10.65625 8.25 10.65625 C 8.25 10.65625 8.3125 10.519531 8.316406 10.519531 C 8.332031 10.453125 8.335938 10.386719 8.324219 10.320312 L 8.230469 9.75 C 8.507812 10.015625 8.902344 10.050781 9.183594 9.757812 L 10.25 8.773438 C 10.25 8.769531 10.253906 8.769531 10.253906 8.765625 C 10.578125 8.457031 10.550781 7.984375 10.195312 7.710938 L 10.214844 7.730469 L 7.496094 5.410156 L 7.484375 5.339844 L 10.195312 3.039062 C 10.550781 2.765625 10.578125 2.292969 10.253906 1.984375 C 10.253906 1.980469 10.25 1.980469 10.25 1.976562 L 9.183594 0.988281 C 9 0.800781 8.753906 0.734375 8.5 0.804688 C 8.488281 0.808594 8.480469 0.808594 8.46875 0.8125 C 8.308594 0.871094 8.179688 0.976562 8.097656 1.125 L 8.125 1.078125 L 6.230469 3.648438 L 6.195312 3.625 C 6.121094 3.582031 6.039062 3.558594 5.953125 3.558594 C 5.867188 3.558594 5.785156 3.582031 5.710938 3.625 L 5.675781 3.648438 L 3.792969 1.09375 L 3.789062 1.09375 C 3.742188 1.023438 3.683594 0.96875 3.617188 0.921875 C 3.457031 0.800781 3.261719 0.757812 3.066406 0.796875 Z M 3.066406 0.796875 "/>
</g>
</defs>
<g mask="url(#mask-0)">
<use xlink:href="#source-6"/>
</g>
</svg>
