<svg width="64" height="64" viewBox="0 0 64 64" fill="none" xmlns="http://www.w3.org/2000/svg">
<path d="M5 27H4V32H5V28.5L8 32H9V27H8V30.5L5 27Z" fill="#680000"/>
<path fill-rule="evenodd" clip-rule="evenodd" d="M10 27H13.5L14 27.5V29.5L13.5 30H12.5L14 31.5V32H13L11 30L11.0087 32H10V27ZM11.0087 29H12.9912V28H11.0087V29Z" fill="#680000"/>
<path d="M23 58H22V63H23V59.5L26 63H27V58H26V61.5L23 58Z" fill="#680000"/>
<path fill-rule="evenodd" clip-rule="evenodd" d="M28 58H31.5L32 58.5V60.5L31.5 61H30.5L32 62.5V63H31L29 61L29.0087 63H28V58ZM29.0087 60H30.9912V59H29.0087V60Z" fill="#680000"/>
<path d="M35 27H36L39 30.5V27H40V32H39L36 28.5V32H35V27Z" fill="#680000"/>
<path fill-rule="evenodd" clip-rule="evenodd" d="M44.5 27H41V32H42.0087L42 30L44 32H45V31.5L43.5 30H44.5L45 29.5V27.5L44.5 27ZM43.9912 29H42.0087V28H43.9912V29Z" fill="#680000"/>
<path d="M54 58H53V63H54V59.5L57 63H58V58H57V61.5L54 58Z" fill="#680000"/>
<path fill-rule="evenodd" clip-rule="evenodd" d="M59 58H62.5L63 58.5V60.5L62.5 61H61.5L63 62.5V63H62L60 61L60.0087 63H59V58ZM60.0087 60H61.9912V59H60.0087V60Z" fill="#680000"/>
</svg>
