<?xml version="1.0" encoding="UTF-8"?>
<svg xmlns="http://www.w3.org/2000/svg" xmlns:xlink="http://www.w3.org/1999/xlink" width="12" height="12" viewBox="0 0 12 12">
<defs>
<filter id="filter-remove-color" x="0%" y="0%" width="100%" height="100%">
<feColorMatrix color-interpolation-filters="sRGB" values="0 0 0 0 1 0 0 0 0 1 0 0 0 0 1 0 0 0 1 0" />
</filter>
<mask id="mask-0">
<g filter="url(#filter-remove-color)">
<rect x="-1.2" y="-1.2" width="14.4" height="14.4" fill="rgb(0%, 0%, 0%)" fill-opacity="0.812"/>
</g>
</mask>
<clipPath id="clip-0">
<rect x="0" y="0" width="12" height="12"/>
</clipPath>
<g id="source-6" clip-path="url(#clip-0)">
<path fill-rule="nonzero" fill="rgb(92.156863%, 90.588235%, 89.411765%)" fill-opacity="1" d="M 3.832031 0.785156 C 3.707031 0.792969 3.589844 0.847656 3.503906 0.9375 C 3.417969 1.027344 3.371094 1.148438 3.371094 1.273438 L 3.371094 1.320312 C 3.289062 1.894531 3.140625 2.128906 2.980469 2.355469 C 2.824219 2.574219 2.539062 2.882812 2.488281 3.398438 C 2.453125 3.757812 2.570312 4.046875 2.71875 4.292969 C 2.617188 4.332031 2.535156 4.402344 2.480469 4.492188 C 2.421875 4.582031 2.398438 4.691406 2.410156 4.796875 C 2.574219 6.539062 2.453125 8.203125 2.015625 10.273438 C 2 10.34375 2 10.417969 2.019531 10.488281 C 2.035156 10.558594 2.070312 10.625 2.113281 10.683594 C 2.160156 10.738281 2.21875 10.785156 2.285156 10.816406 C 2.347656 10.847656 2.421875 10.863281 2.492188 10.863281 L 9.324219 10.863281 C 9.453125 10.863281 9.578125 10.8125 9.671875 10.71875 C 9.761719 10.628906 9.8125 10.503906 9.8125 10.375 L 9.8125 8.367188 C 9.8125 8.234375 9.761719 8.113281 9.671875 8.019531 C 9.578125 7.929688 9.453125 7.878906 9.324219 7.878906 L 7.570312 7.878906 L 10.59375 4.070312 C 10.648438 3.996094 10.683594 3.910156 10.695312 3.820312 C 10.703125 3.726562 10.6875 3.636719 10.648438 3.550781 C 10.609375 3.46875 10.546875 3.398438 10.46875 3.351562 C 10.390625 3.300781 10.300781 3.277344 10.207031 3.277344 L 9.285156 3.277344 L 10.246094 1.6875 C 10.289062 1.613281 10.3125 1.527344 10.316406 1.441406 C 10.316406 1.355469 10.292969 1.269531 10.253906 1.195312 C 10.210938 1.121094 10.148438 1.054688 10.074219 1.011719 C 10 0.96875 9.914062 0.945312 9.828125 0.945312 L 8.421875 0.945312 C 8.332031 0.945312 8.242188 0.972656 8.164062 1.019531 C 8.085938 1.066406 8.023438 1.132812 7.984375 1.214844 L 6.335938 4.488281 C 6.300781 4.5625 6.28125 4.648438 6.285156 4.730469 C 6.289062 4.8125 6.3125 4.894531 6.355469 4.964844 C 6.402344 5.035156 6.460938 5.09375 6.535156 5.136719 C 6.609375 5.175781 6.691406 5.199219 6.773438 5.199219 L 7.679688 5.199219 L 6.609375 7.539062 C 6.5625 7.644531 6.554688 7.765625 6.585938 7.878906 L 6.046875 7.878906 C 5.941406 6.820312 5.898438 5.808594 5.996094 4.796875 C 6 4.726562 5.992188 4.65625 5.96875 4.589844 C 5.949219 4.523438 5.910156 4.460938 5.863281 4.410156 C 5.8125 4.359375 5.753906 4.320312 5.691406 4.296875 C 5.625 4.269531 5.554688 4.257812 5.484375 4.261719 C 5.710938 3.84375 5.839844 3.394531 5.746094 2.941406 C 5.585938 2.1875 5.039062 1.507812 4.21875 0.933594 L 4.152344 0.882812 C 4.0625 0.8125 3.949219 0.777344 3.832031 0.785156 Z M 4.253906 3.609375 C 4.25 3.628906 4.230469 3.835938 4.175781 4.027344 C 4.164062 4.070312 4.152344 4.097656 4.144531 4.132812 C 4.132812 4.117188 4.132812 4.117188 4.121094 4.101562 C 4.0625 3.996094 4.050781 3.890625 4.046875 3.953125 C 4.050781 3.902344 4.03125 3.964844 4.058594 3.917969 C 4.09375 3.855469 4.152344 3.765625 4.238281 3.644531 C 4.242188 3.636719 4.25 3.617188 4.253906 3.609375 Z M 4.253906 3.609375 "/>
</g>
</defs>
<g mask="url(#mask-0)">
<use xlink:href="#source-6"/>
</g>
</svg>
