<?xml version="1.0" encoding="UTF-8" standalone="no"?>
<svg
   xmlns:dc="http://purl.org/dc/elements/1.1/"
   xmlns:cc="http://creativecommons.org/ns#"
   xmlns:rdf="http://www.w3.org/1999/02/22-rdf-syntax-ns#"
   xmlns:svg="http://www.w3.org/2000/svg"
   xmlns="http://www.w3.org/2000/svg"
   xmlns:sodipodi="http://sodipodi.sourceforge.net/DTD/sodipodi-0.dtd"
   xmlns:inkscape="http://www.inkscape.org/namespaces/inkscape"
   width="8"
   height="4"
   viewBox="0 0 8 4"
   fill="none"
   version="1.1"
   id="svg15"
   sodipodi:docname="h_greenhouse_horticulture.svg"
   inkscape:version="0.92.5 (2060ec1f9f, 2020-04-08)">
  <metadata
     id="metadata19">
    <rdf:RDF>
      <cc:Work
         rdf:about="">
        <dc:format>image/svg+xml</dc:format>
        <dc:type
           rdf:resource="http://purl.org/dc/dcmitype/StillImage" />
      </cc:Work>
    </rdf:RDF>
  </metadata>
  <sodipodi:namedview
     pagecolor="#ffffff"
     bordercolor="#666666"
     borderopacity="1"
     objecttolerance="10"
     gridtolerance="10"
     guidetolerance="10"
     inkscape:pageopacity="0"
     inkscape:pageshadow="2"
     inkscape:window-width="1920"
     inkscape:window-height="1014"
     id="namedview17"
     showgrid="false"
     inkscape:zoom="55.875"
     inkscape:cx="4"
     inkscape:cy="2"
     inkscape:window-x="1920"
     inkscape:window-y="0"
     inkscape:window-maximized="1"
     inkscape:current-layer="svg15" />
  <path
     style="fill:#93d193"
     inkscape:connector-curvature="0"
     id="path4"
     d="m 5.78455,1.99997 c 0,-0.31958 0.25906,-0.57864 0.57864,-0.57864 0.31958,0 0.57864,0.25906 0.57864,0.57864 0,0.31958 -0.25906,0.57864 -0.57864,0.57864 -0.31958,0 -0.57864,-0.25906 -0.57864,-0.57864 z" />
  <path
     style="fill:#93d193"
     inkscape:connector-curvature="0"
     id="path6"
     d="m 1.05801,1.99997 c 0,-0.31958 0.2591,-0.57864 0.57868,-0.57864 0.31958,0 0.57864,0.25906 0.57864,0.57864 0,0.31958 -0.25906,0.57864 -0.57864,0.57864 -0.31958,0 -0.57868,-0.25906 -0.57868,-0.57864 z" />
  <defs
     id="defs13">
    <clipPath
       id="clip0">
      <path
         d="M0 0H8V4H0V0Z"
         fill="white"
         id="path10" />
    </clipPath>
  </defs>
</svg>
