<svg width="36" height="21" viewBox="0 0 36 21" fill="none" xmlns="http://www.w3.org/2000/svg">
<g clip-path="url(#clip0)">
<path opacity="0.837" fill-rule="evenodd" clip-rule="evenodd" d="M6.35558 0.686653C5.99874 0.687522 5.65465 0.791734 5.38823 0.979622L0.479945 4.43275C0.328729 4.53914 0.207086 4.66924 0.122727 4.81479C0.0383674 4.96035 -0.00686992 5.11819 -0.0101179 5.2783C-0.0133659 5.43842 0.0254461 5.59732 0.103859 5.74495C0.182271 5.89257 0.298574 6.02569 0.445396 6.13587C1.42986 6.8724 1.90628 7.66529 1.90628 8.48939C1.90628 9.08273 1.66305 9.64724 1.15857 10.2042C0.443115 10.9946 -0.0111313 11.9432 -0.0111313 12.9542C-0.0111314 14.751 1.3778 16.2955 3.31535 17.3156C5.2529 18.3356 7.79651 18.9171 10.5803 18.9171H12.014C14.133 18.9171 15.9887 19.4522 17.0729 20.1554C17.3339 20.3246 17.6609 20.417 17.9983 20.417C18.3356 20.417 18.6626 20.3246 18.9237 20.1554C20.0077 19.4522 21.8635 18.9171 23.9825 18.9171H25.4162C28.2 18.9171 30.7436 18.3356 32.6812 17.3156C34.6187 16.2955 36.0077 14.751 36.0077 12.9542C36.0077 11.9432 35.5534 10.9945 34.838 10.2042C34.3335 9.64727 34.0902 9.08277 34.0902 8.48939C34.0902 7.66527 34.5666 6.87239 35.5511 6.13587C35.6979 6.02569 35.8143 5.89257 35.8927 5.74495C35.9711 5.59732 36.0099 5.43842 36.0066 5.2783C36.0034 5.11819 35.9582 4.96035 35.8738 4.8148C35.7894 4.66924 35.6678 4.53914 35.5166 4.43275L30.6083 0.979622C30.3974 0.831258 30.1367 0.734414 29.8577 0.700794C29.5788 0.667173 29.2935 0.698216 29.0364 0.790169C26.7232 1.61891 23.8029 2.72363 18.3018 2.67103C12.7707 2.61814 9.23172 1.54517 6.92562 0.776497C6.74513 0.716631 6.55128 0.686078 6.35558 0.686653V0.686653Z" fill="#F1EAE4"/>
<path fill-rule="evenodd" clip-rule="evenodd" d="M29.6386 1.8429L34.546 5.29664C33.3385 6.20004 32.6295 7.30143 32.6295 8.4899C32.6295 9.34473 32.9962 10.1545 33.6515 10.8779C34.2176 11.5033 34.546 12.216 34.546 12.9549C34.546 15.6088 30.4586 17.7602 25.4162 17.7602H23.9832C21.567 17.7602 19.4106 18.3457 17.9983 19.2618C16.5859 18.3457 14.4295 17.7602 12.0133 17.7602H10.5803C5.53796 17.7602 1.45048 15.6088 1.45048 12.9549C1.45048 12.216 1.77894 11.5033 2.34512 10.8779C3.00032 10.1545 3.3671 9.34473 3.3671 8.4899C3.3671 7.30143 2.65801 6.20004 1.4505 5.29664L6.35794 1.8429C8.71462 2.62842 12.5164 3.77212 18.2837 3.82726C24.051 3.88241 27.3408 2.66612 29.6386 1.8429Z" fill="#DD6A6A"/>
</g>
<defs>
<clipPath id="clip0">
<path d="M0 0H36V21H0V0Z" fill="white"/>
</clipPath>
</defs>
</svg>
