<svg width="14" height="14" viewBox="0 0 14 14" fill="none" xmlns="http://www.w3.org/2000/svg">
<g clip-path="url(#clip0)">
<path fill-rule="evenodd" clip-rule="evenodd" d="M6.46484 -0.876953C6.34582 -0.876977 6.22797 -0.853552 6.118 -0.808017C6.00804 -0.762482 5.90813 -0.695729 5.82397 -0.611571C5.73981 -0.527413 5.67306 -0.4275 5.62752 -0.317538C5.58199 -0.207576 5.55856 -0.0897202 5.55859 0.0292969V0.818359H5.1289C5.00988 0.818336 4.89203 0.841761 4.78207 0.887296C4.6721 0.932831 4.57219 0.999584 4.48803 1.08374C4.40387 1.1679 4.33712 1.26781 4.29159 1.37777C4.24605 1.48774 4.22263 1.60559 4.22265 1.72461V2.81836C4.22263 2.93738 4.24605 3.05523 4.29159 3.16519C4.33712 3.27516 4.40387 3.37507 4.48803 3.45923C4.57219 3.54339 4.6721 3.61014 4.78207 3.65567C4.89203 3.70121 5.00988 3.72463 5.1289 3.72461H5.55859V4.60156L2.70507 9.54492C2.62546 9.6827 2.58354 9.83902 2.58353 9.99815C2.58351 10.1573 2.62541 10.3136 2.705 10.4514C2.78459 10.5892 2.89906 10.7036 3.0369 10.7831C3.17475 10.8626 3.3311 10.9044 3.49023 10.9043L10.5312 10.9102C10.6904 10.9103 10.8467 10.8685 10.9846 10.789C11.1224 10.7095 11.2369 10.5951 11.3165 10.4573C11.3961 10.3195 11.438 10.1632 11.4379 10.0041C11.4379 9.84492 11.396 9.6886 11.3164 9.55082L8.46288 4.60746V3.72465H8.89257C9.01159 3.72467 9.12944 3.70125 9.23941 3.65571C9.34937 3.61018 9.44928 3.54343 9.53344 3.45927C9.6176 3.37511 9.68435 3.2752 9.72989 3.16524C9.77542 3.05527 9.79885 2.93742 9.79882 2.8184V1.72465C9.79885 1.60563 9.77542 1.48778 9.72989 1.37782C9.68435 1.26785 9.6176 1.16794 9.53344 1.08378C9.44928 0.999625 9.34937 0.932872 9.23941 0.887337C9.12944 0.841802 9.01159 0.818377 8.89257 0.8184H8.46288V0.0293379C8.46291 -0.0896792 8.43948 -0.207535 8.39395 -0.317497C8.34841 -0.427459 8.28166 -0.527372 8.1975 -0.61153C8.11335 -0.695688 8.01343 -0.762441 7.90347 -0.807976C7.79351 -0.853511 7.67565 -0.876936 7.55663 -0.876912H6.46484V-0.876953Z" fill="white"/>
</g>
<defs>
<clipPath id="clip0">
<path d="M0 0H14V14H0V0Z" fill="white"/>
</clipPath>
</defs>
</svg>
