<?xml version="1.0" encoding="UTF-8"?>
<svg xmlns="http://www.w3.org/2000/svg" xmlns:xlink="http://www.w3.org/1999/xlink" width="12" height="12" viewBox="0 0 12 12">
<defs>
<filter id="filter-remove-color" x="0%" y="0%" width="100%" height="100%">
<feColorMatrix color-interpolation-filters="sRGB" values="0 0 0 0 1 0 0 0 0 1 0 0 0 0 1 0 0 0 1 0" />
</filter>
<mask id="mask-0">
<g filter="url(#filter-remove-color)">
<rect x="-1.2" y="-1.2" width="14.4" height="14.4" fill="rgb(0%, 0%, 0%)" fill-opacity="0.812"/>
</g>
</mask>
<clipPath id="clip-0">
<rect x="0" y="0" width="12" height="12"/>
</clipPath>
<g id="source-6" clip-path="url(#clip-0)">
<path fill-rule="nonzero" fill="rgb(92.156863%, 90.588235%, 89.411765%)" fill-opacity="1" d="M 4.90625 0.816406 C 4.746094 0.851562 4.621094 0.960938 4.558594 1.046875 C 4.492188 1.128906 4.472656 1.199219 4.457031 1.25 C 4.421875 1.359375 4.421875 1.425781 4.417969 1.492188 C 4.414062 1.628906 4.425781 1.761719 4.441406 1.914062 C 4.476562 2.222656 4.539062 2.601562 4.605469 2.984375 C 4.671875 3.363281 4.746094 3.75 4.796875 4.042969 C 4.824219 4.191406 4.84375 4.320312 4.855469 4.40625 C 4.855469 4.414062 4.855469 4.414062 4.855469 4.421875 C 4.851562 4.429688 4.851562 4.433594 4.84375 4.445312 C 4.800781 4.523438 4.734375 4.640625 4.65625 4.777344 C 4.496094 5.046875 4.289062 5.398438 4.082031 5.746094 C 3.878906 6.097656 3.675781 6.445312 3.53125 6.738281 C 3.457031 6.882812 3.394531 7.011719 3.347656 7.140625 C 3.324219 7.207031 3.304688 7.269531 3.292969 7.367188 C 3.28125 7.464844 3.234375 7.652344 3.445312 7.882812 C 3.613281 8.066406 3.84375 8.082031 3.953125 8.074219 C 4.0625 8.0625 4.125 8.035156 4.179688 8.015625 C 4.285156 7.96875 4.367188 7.917969 4.457031 7.859375 C 4.632812 7.742188 4.835938 7.585938 5.054688 7.414062 C 5.15625 7.332031 5.242188 7.257812 5.34375 7.171875 L 5.1875 10.425781 C 5.179688 10.542969 5.210938 10.664062 5.277344 10.761719 C 5.34375 10.863281 5.441406 10.941406 5.550781 10.980469 C 6 11.152344 6.449219 11.101562 6.851562 11.003906 C 6.976562 10.972656 7.089844 10.898438 7.167969 10.792969 C 7.25 10.6875 7.289062 10.558594 7.28125 10.425781 C 7.28125 10.425781 7.195312 8.261719 7.125 6.136719 C 7.464844 6.136719 7.792969 6.136719 8.304688 6.140625 C 8.675781 6.140625 9.035156 6.136719 9.328125 6.117188 C 9.476562 6.105469 9.601562 6.09375 9.730469 6.070312 C 9.792969 6.054688 9.855469 6.042969 9.945312 6 C 10.035156 5.960938 10.207031 5.894531 10.292969 5.621094 C 10.339844 5.464844 10.3125 5.300781 10.269531 5.203125 C 10.226562 5.105469 10.179688 5.054688 10.144531 5.015625 C 10.066406 4.933594 10.011719 4.898438 9.953125 4.859375 C 9.835938 4.789062 9.714844 4.730469 9.574219 4.667969 C 9.292969 4.542969 8.933594 4.40625 8.570312 4.269531 C 8.203125 4.132812 7.835938 4.003906 7.554688 3.898438 C 7.410156 3.847656 7.292969 3.800781 7.210938 3.765625 C 7.203125 3.761719 7.203125 3.761719 7.195312 3.757812 C 7.1875 3.75 7.1875 3.746094 7.179688 3.738281 C 7.132812 3.660156 7.066406 3.542969 6.988281 3.40625 C 6.832031 3.136719 6.636719 2.78125 6.433594 2.429688 C 6.234375 2.078125 6.035156 1.734375 5.855469 1.460938 C 5.765625 1.324219 5.6875 1.207031 5.59375 1.101562 C 5.550781 1.050781 5.503906 1 5.425781 0.941406 C 5.347656 0.882812 5.210938 0.75 4.90625 0.816406 Z M 4.90625 0.816406 "/>
</g>
</defs>
<g mask="url(#mask-0)">
<use xlink:href="#source-6"/>
</g>
</svg>
