<svg width="31" height="25" viewBox="0 0 31 25" fill="none" xmlns="http://www.w3.org/2000/svg">
<path opacity="0.837" fill-rule="evenodd" clip-rule="evenodd" d="M15.5 2.88089C11.5902 2.88093 7.7007 3.80812 4.82172 5.49904C1.94275 7.18996 0.0314305 9.74409 0.031395 12.5C0.0314306 15.2559 1.94275 17.81 4.82172 19.5009C7.7007 21.1919 11.5902 22.1191 15.5 22.1191C19.4098 22.1191 23.2993 21.1919 26.1783 19.5009C29.0573 17.81 30.9686 15.2559 30.9686 12.5C30.9686 9.74409 29.0573 7.18996 26.1783 5.49904C23.2993 3.80812 19.4098 2.88093 15.5 2.88089Z" fill="#F1EAE4"/>
<path d="M15.5 20.8247C23.3287 20.8247 29.6751 17.0973 29.6751 12.4992C29.6751 7.90121 23.3287 4.17377 15.5 4.17377C7.67129 4.17377 1.32486 7.90121 1.32486 12.4992C1.32486 17.0973 7.67129 20.8247 15.5 20.8247Z" fill="#327AE6"/>
</svg>
