<svg width="16" height="16" viewBox="0 0 16 16" fill="none" xmlns="http://www.w3.org/2000/svg">
<path opacity="0.812" d="M3.11574 2.91708C2.63153 2.91712 2.29181 3.12479 2.04424 3.37247C1.79688 3.61983 1.58885 3.95968 1.58885 4.44397V11.6766C1.58885 12.1609 1.79659 12.5006 2.04424 12.7481C2.38044 13.0843 2.80931 13.1767 3.11574 13.1767H4.16045C4.46694 13.1767 4.89555 13.0846 5.23195 12.7481C5.47928 12.5008 5.68734 12.1609 5.68734 11.6766V8.22101L10.8573 7.06915C10.7323 7.26605 10.5625 7.43365 10.5627 7.73883V11.757C10.5624 12.2174 10.7384 12.5222 10.9913 12.7749C11.2437 13.0273 11.7432 13.1768 11.9824 13.1767H13.2146C13.4537 13.1768 13.8693 13.1383 14.2326 12.7749C14.4849 12.5225 14.6614 12.2179 14.6612 11.757V7.73883C14.6614 7.27837 14.4853 6.97352 14.2326 6.72091C13.9938 6.48214 13.6878 6.33653 13.2682 6.3191C13.6936 6.1898 13.8423 6.14882 14.1254 5.78335C14.4085 5.41787 14.5733 4.8201 14.3732 4.21628C14.1242 3.46481 13.2692 3.02044 12.6521 3.1046C12.6646 3.10259 12.479 3.13447 12.4914 3.13138C12.4938 3.13079 12.4729 3.12884 12.4646 3.13138C12.4296 3.14203 12.3477 3.1615 12.3574 3.15817L5.68734 4.65827V4.44397C5.68734 3.95963 5.47963 3.62004 5.23195 3.37247C4.98459 3.12511 4.64461 2.91712 4.16045 2.91708H3.11574Z" fill="#EBE7E4"/>
</svg>
