<svg width="16" height="16" viewBox="0 0 16 16" fill="none" xmlns="http://www.w3.org/2000/svg">
<path opacity="0.802" d="M13.0664 0.216808C12.7154 0.232626 12.3772 0.34978 12.0898 0.552746L10.498 1.63478C10.4401 1.67472 10.3864 1.72054 10.3379 1.7715C10.0357 1.6299 9.77579 1.40865 9.43749 1.35353L9.43358 1.35158C9.1256 1.30292 8.82016 1.30229 7.82812 1.3047H7.82617C7.48682 1.30591 7.16392 1.3098 6.91015 1.31447C6.78327 1.3168 6.67436 1.31919 6.58593 1.32228C6.49877 1.32532 6.50007 1.31452 6.31836 1.34181C5.0056 1.53381 3.88787 2.41422 3.40625 3.65431H3.4082C3.24247 4.07965 3.1656 4.5085 3.15038 5.10158C3.14952 5.13329 3.14934 5.12247 3.14843 5.1504C3.04143 5.26806 2.91594 5.34876 2.85546 5.49611C2.82296 5.5753 2.83974 5.62565 2.82226 5.69728C2.78893 5.93136 2.78153 5.87676 2.7539 6.09571C2.75315 6.12997 2.73437 6.17823 2.73437 6.21095V6.1172C2.6375 6.24932 2.45346 6.29194 2.39648 6.48439C2.31052 6.76077 2.33543 6.80028 2.33202 6.87501C2.32836 6.95532 2.32812 7.0215 2.32812 7.0215V7.04103L2.33593 7.48829C2.33927 7.69178 2.40319 7.88966 2.51952 8.05665L2.59179 8.16017C2.59754 8.16807 2.60339 8.17588 2.60937 8.18361C2.62432 8.20378 2.64912 8.21062 2.6621 8.22853C2.55176 8.37683 2.42904 8.49726 2.38476 8.67384C2.31107 8.96769 2.32421 9.14718 2.32421 9.40626C2.32421 9.58974 2.45053 10.0329 2.46484 10.0684C2.57487 10.3093 2.69465 10.4413 2.83398 10.5684C2.83398 10.5684 2.76993 10.3116 2.73632 10.7891C2.73694 10.9235 2.73615 11.0744 2.74218 11.1758C2.75134 11.3299 2.8057 11.5704 2.87109 11.7188C3.05239 11.8658 3.09895 12.1263 3.21288 12.3301C3.25002 12.6823 3.28759 13.0267 3.4082 13.3359H3.40625C4.09593 15.1104 6.05823 16.0672 7.89062 15.5352C9.05834 15.1978 9.98827 14.3063 10.3633 13.1524V13.1504C10.4308 12.9436 10.5466 12.5336 10.7441 11.8457C10.942 11.1567 11.1952 10.2721 11.4453 9.39254C11.6954 8.51296 11.9429 7.63828 12.1309 6.97067C12.2248 6.63686 12.3041 6.3549 12.3613 6.1484C12.39 6.04515 12.4123 5.96059 12.4297 5.89645C12.4468 5.833 12.4489 5.84269 12.4727 5.72848V5.72653C12.541 5.39745 12.4362 5.08034 12.4141 4.75778C12.4721 4.73238 12.5277 4.70165 12.5801 4.66598L14.168 3.58786L14.17 3.58591C14.8537 3.12998 15.1537 2.26389 14.8984 1.48243C14.6428 0.6998 13.8857 0.179933 13.0664 0.216808ZM7.23241 6.85939C7.69024 7.15789 8.17559 7.23448 8.70116 7.07423L8.25976 8.61134C7.87815 9.94633 7.61655 10.8544 7.44335 11.4395C7.35676 11.732 7.29218 11.9451 7.24804 12.084C7.20453 12.2209 7.14617 12.3408 7.21093 12.209C7.2013 12.2286 7.0739 12.357 6.94726 12.3945V12.3965C7.09865 12.3516 6.60837 12.3516 6.75976 12.3965C6.59771 12.3484 6.49087 12.239 6.43945 12.0782C6.45319 12.1236 6.43937 12.0272 6.43359 11.9883C6.50871 11.902 6.63172 11.8696 6.67773 11.7755L6.68359 11.7637C6.73553 11.6541 6.808 11.3724 6.81835 11.209C6.82824 11.0529 6.82819 10.8882 6.82812 10.6153L6.85742 10.5196C6.94053 10.3724 6.85008 10.5008 6.99414 10.2774L6.98437 10.295L7.05273 10.1934C7.15849 10.0364 7.21867 9.8532 7.22656 9.66407L7.23437 9.47657C7.23449 9.46746 7.23449 9.45834 7.23437 9.44923C7.23805 9.21213 7.24431 9.09085 7.22851 8.91017C7.21271 8.72949 7.10384 8.43316 7.06835 8.36525L7.06444 8.35939C7.02689 8.2888 6.95799 8.25917 6.91015 8.19728C6.9493 8.14424 6.99583 8.13584 7.04882 8.04298L7.05663 8.02931C7.24511 7.688 7.192 7.64205 7.20507 7.54298C7.21814 7.44391 7.22398 7.35861 7.22851 7.27931C7.23757 7.12071 7.23828 6.98439 7.23828 6.98439C7.23823 6.96419 7.23758 6.944 7.23633 6.92384C7.23633 6.92384 7.23372 6.8802 7.23242 6.85939H7.23241Z" fill="#EBE7E4"/>
</svg>
