<svg width="16" height="16" viewBox="0 0 16 16" fill="none" xmlns="http://www.w3.org/2000/svg">
<path fill-rule="evenodd" clip-rule="evenodd" d="M13.2793 2.01561C12.841 2.01267 12.4041 2.1639 12.0586 2.43357L8.00195 5.50779L3.94531 2.43162C3.58449 2.15013 3.12335 2.00083 2.66601 2.01756C1.85775 2.04662 1.09975 2.62752 0.861327 3.40037C0.622906 4.17322 0.920845 5.08116 1.57226 5.56053L4.75195 7.97459L1.56055 10.3965C0.741047 11.0182 0.559787 12.329 1.18164 13.1484C1.80349 13.9679 3.11617 14.1473 3.93555 13.5254L8.00195 10.4394L12.0684 13.5254C12.8877 14.1473 14.2004 13.9679 14.8223 13.1484C15.4441 12.329 15.2629 11.0182 14.4434 10.3965L11.252 7.97459L14.4316 5.56053C15.0901 5.07489 15.3861 4.15105 15.1328 3.37303C14.8796 2.595 14.0975 2.0206 13.2793 2.01561Z" fill="white"/>
</svg>
