<svg width="16" height="16" viewBox="0 0 16 16" fill="none" xmlns="http://www.w3.org/2000/svg">
<path opacity="0.812" d="M8 2C4.6992 2 2 4.6992 2 8C2 11.3008 4.6992 14 8 14C11.3008 14 14 11.3008 14 8C14 4.6992 11.3008 2 8 2ZM10.9729 5.79669C11.4318 6.42101 11.759 7.1513 11.759 8C11.759 9.20713 11.1363 10.2026 10.2666 10.8901L8.44578 9.18373C8.31293 9.0593 8.13802 8.98956 7.956 8.98844C7.77397 8.98733 7.59823 9.05491 7.46386 9.17771L5.65512 10.8358C4.83173 10.1461 4.24096 9.17099 4.24096 8C4.24096 7.15348 4.57585 6.42499 5.04217 5.7997L7.48645 8.0497C7.61879 8.17158 7.79182 8.23973 7.97173 8.24084C8.15164 8.24196 8.3255 8.17595 8.45934 8.05572L10.9729 5.79669Z" fill="#EBE7E4"/>
</svg>
