<?xml version="1.0" encoding="UTF-8"?>
<svg xmlns="http://www.w3.org/2000/svg" xmlns:xlink="http://www.w3.org/1999/xlink" width="12" height="12" viewBox="0 0 12 12">
<defs>
<filter id="filter-remove-color" x="0%" y="0%" width="100%" height="100%">
<feColorMatrix color-interpolation-filters="sRGB" values="0 0 0 0 1 0 0 0 0 1 0 0 0 0 1 0 0 0 1 0" />
</filter>
<mask id="mask-0">
<g filter="url(#filter-remove-color)">
<rect x="-1.2" y="-1.2" width="14.4" height="14.4" fill="rgb(0%, 0%, 0%)" fill-opacity="0.812"/>
</g>
</mask>
<clipPath id="clip-0">
<rect x="0" y="0" width="12" height="12"/>
</clipPath>
<g id="source-6" clip-path="url(#clip-0)">
<path fill-rule="nonzero" fill="rgb(92.156863%, 90.588235%, 89.411765%)" fill-opacity="1" d="M 2.691406 0.789062 C 2.605469 0.789062 2.519531 0.8125 2.449219 0.855469 C 2.375 0.902344 2.316406 0.964844 2.277344 1.042969 L 1.230469 3.132812 C 1.195312 3.203125 1.179688 3.28125 1.183594 3.359375 C 1.1875 3.4375 1.210938 3.515625 1.253906 3.582031 C 1.292969 3.648438 1.351562 3.703125 1.421875 3.742188 C 1.488281 3.78125 1.566406 3.800781 1.644531 3.800781 L 1.96875 3.800781 L 1.386719 5.054688 C 1.347656 5.136719 1.335938 5.226562 1.347656 5.3125 C 1.28125 5.355469 1.222656 5.414062 1.183594 5.480469 C 1.144531 5.550781 1.125 5.628906 1.121094 5.710938 L 1.121094 10.351562 C 1.121094 10.472656 1.171875 10.589844 1.257812 10.679688 C 1.34375 10.765625 1.460938 10.8125 1.585938 10.8125 L 5.242188 10.8125 C 5.304688 10.8125 5.363281 10.800781 5.421875 10.777344 C 5.480469 10.753906 5.53125 10.71875 5.574219 10.671875 C 5.617188 10.71875 5.667969 10.753906 5.722656 10.777344 C 5.78125 10.800781 5.84375 10.8125 5.90625 10.8125 L 7.894531 10.8125 C 7.957031 10.8125 8.015625 10.800781 8.074219 10.777344 C 8.128906 10.753906 8.183594 10.71875 8.226562 10.671875 C 8.269531 10.71875 8.320312 10.753906 8.375 10.777344 C 8.433594 10.800781 8.496094 10.8125 8.554688 10.8125 L 10.203125 10.8125 C 10.328125 10.8125 10.445312 10.765625 10.53125 10.679688 C 10.617188 10.589844 10.667969 10.472656 10.667969 10.351562 L 10.667969 5.710938 C 10.667969 5.585938 10.617188 5.46875 10.53125 5.382812 C 10.445312 5.296875 10.328125 5.25 10.203125 5.25 L 10.195312 5.25 C 10.089844 4.210938 9.941406 2.84375 9.941406 2.84375 L 9.941406 2.898438 C 9.941406 2.753906 9.890625 2.578125 9.765625 2.453125 C 9.640625 2.328125 9.464844 2.273438 9.320312 2.273438 L 9.242188 2.273438 C 8.839844 1.679688 8.316406 1.332031 7.832031 1.292969 C 7.710938 1.28125 7.582031 1.273438 7.425781 1.296875 C 7.195312 1.328125 7.085938 1.429688 6.945312 1.511719 C 6.472656 1.335938 5.984375 1.382812 5.640625 1.578125 C 5.4375 1.691406 5.269531 1.832031 5.140625 1.984375 C 5.058594 2.082031 4.988281 2.191406 4.941406 2.332031 C 4.933594 2.300781 4.902344 2.230469 4.90625 2.242188 C 4.878906 2.140625 4.820312 2.050781 4.734375 1.988281 C 4.648438 1.921875 4.542969 1.890625 4.4375 1.898438 C 4.332031 1.902344 4.230469 1.941406 4.148438 2.015625 C 4.070312 2.085938 4.019531 2.179688 4.003906 2.285156 C 3.949219 2.265625 3.890625 2.253906 3.835938 2.253906 L 3.515625 2.253906 L 3.988281 1.492188 C 4.03125 1.421875 4.054688 1.34375 4.054688 1.261719 C 4.058594 1.179688 4.039062 1.097656 3.996094 1.023438 C 3.957031 0.953125 3.898438 0.894531 3.828125 0.851562 C 3.757812 0.808594 3.675781 0.789062 3.59375 0.789062 Z M 6.472656 2.578125 C 6.535156 2.589844 6.546875 2.597656 6.570312 2.625 C 6.578125 2.636719 6.585938 2.644531 6.597656 2.65625 C 6.507812 2.703125 6.390625 2.714844 6.304688 2.765625 L 6.324219 2.753906 C 5.964844 2.953125 5.75 2.988281 5.582031 2.960938 C 5.640625 2.929688 5.691406 2.886719 5.730469 2.832031 C 5.710938 2.859375 5.773438 2.792969 5.867188 2.742188 C 5.957031 2.6875 6.074219 2.636719 6.191406 2.605469 C 6.304688 2.574219 6.410156 2.570312 6.472656 2.578125 Z M 4.183594 3.023438 C 4.253906 3.207031 4.320312 3.398438 4.480469 3.59375 C 4.636719 3.78125 4.910156 3.894531 5.183594 4 C 5.074219 4.027344 4.957031 4.035156 4.871094 4.136719 C 4.734375 4.292969 4.71875 4.464844 4.71875 4.585938 L 4.71875 5.25 L 2.398438 5.25 Z M 7.664062 3.460938 C 7.789062 3.445312 7.820312 3.460938 7.960938 3.589844 L 7.917969 3.921875 L 6.398438 3.921875 C 6.542969 3.871094 6.660156 3.914062 6.820312 3.832031 C 6.820312 3.828125 6.824219 3.828125 6.828125 3.828125 C 7.25 3.597656 7.53125 3.480469 7.664062 3.460938 Z M 4.574219 7.484375 L 4.683594 7.632812 C 4.640625 7.65625 4.601562 7.683594 4.570312 7.71875 C 4.535156 7.6875 4.5 7.660156 4.460938 7.636719 Z M 7.226562 7.484375 L 7.335938 7.632812 C 7.292969 7.65625 7.253906 7.683594 7.21875 7.71875 C 7.1875 7.6875 7.152344 7.660156 7.109375 7.636719 Z M 7.226562 7.484375 "/>
</g>
</defs>
<g mask="url(#mask-0)">
<use xlink:href="#source-6"/>
</g>
</svg>
