<?xml version="1.0" encoding="UTF-8"?>
<svg xmlns="http://www.w3.org/2000/svg" xmlns:xlink="http://www.w3.org/1999/xlink" width="12" height="12" viewBox="0 0 12 12">
<path fill-rule="nonzero" fill="rgb(100%, 36.470588%, 36.470588%)" fill-opacity="1" d="M 6 0 C 9.308594 0 12 2.667969 12 6 C 12 9.308594 9.308594 12 6 12 C 2.691406 12 0 9.308594 0 6 C 0 2.667969 2.691406 0 6 0 Z M 6 0 "/>
<path fill-rule="evenodd" fill="rgb(82.352941%, 15.686275%, 15.686275%)" fill-opacity="1" d="M 6 11.398438 C 8.980469 11.398438 11.398438 8.980469 11.398438 6 C 11.398438 3.019531 8.980469 0.601562 6 0.601562 C 3.019531 0.601562 0.601562 3.019531 0.601562 6 C 0.601562 8.980469 3.019531 11.398438 6 11.398438 Z M 6 12 C 9.3125 12 12 9.3125 12 6 C 12 2.6875 9.3125 0 6 0 C 2.6875 0 0 2.6875 0 6 C 0 9.3125 2.6875 12 6 12 Z M 6 12 "/>
</svg>
