<?xml version="1.0" encoding="UTF-8"?>
<svg xmlns="http://www.w3.org/2000/svg" xmlns:xlink="http://www.w3.org/1999/xlink" width="12" height="12" viewBox="0 0 12 12">
<defs>
<filter id="filter-remove-color" x="0%" y="0%" width="100%" height="100%">
<feColorMatrix color-interpolation-filters="sRGB" values="0 0 0 0 1 0 0 0 0 1 0 0 0 0 1 0 0 0 1 0" />
</filter>
<mask id="mask-0">
<g filter="url(#filter-remove-color)">
<rect x="-1.2" y="-1.2" width="14.4" height="14.4" fill="rgb(0%, 0%, 0%)" fill-opacity="0.812"/>
</g>
</mask>
<clipPath id="clip-0">
<rect x="0" y="0" width="12" height="12"/>
</clipPath>
<g id="source-6" clip-path="url(#clip-0)">
<path fill-rule="nonzero" fill="rgb(92.156863%, 90.588235%, 89.411765%)" fill-opacity="1" d="M 5.992188 0.765625 C 5.195312 0.765625 4.53125 1.398438 4.484375 2.191406 C 4.367188 2.257812 4.269531 2.347656 4.164062 2.433594 L 3.660156 1.929688 C 3.527344 1.816406 3.304688 1.824219 3.179688 1.949219 C 2.617188 2.511719 2.605469 3.390625 3.117188 3.980469 C 3.082031 4.105469 3.058594 4.242188 3.039062 4.382812 L 2.355469 4.382812 C 2.164062 4.375 1.988281 4.550781 1.992188 4.742188 C 1.992188 5.546875 2.648438 6.203125 3.441406 6.25 C 3.507812 6.367188 3.597656 6.464844 3.679688 6.570312 L 3.179688 7.074219 C 3.058594 7.203125 3.058594 7.425781 3.179688 7.554688 C 3.738281 8.117188 4.617188 8.128906 5.207031 7.617188 C 5.34375 7.652344 5.484375 7.675781 5.628906 7.695312 L 5.628906 8.378906 C 5.628906 8.488281 5.683594 8.59375 5.769531 8.660156 C 5.691406 8.664062 5.59375 8.699219 5.53125 8.699219 C 5.144531 8.699219 4.460938 8.609375 4.125 8.460938 C 4.125 8.460938 4.101562 8.4375 4.101562 8.4375 C 4.105469 8.441406 4.0625 8.4375 4.0625 8.4375 C 4.066406 8.441406 4.039062 8.417969 4.042969 8.417969 C 4.046875 8.417969 4 8.417969 4.003906 8.417969 C 4.003906 8.417969 3.960938 8.417969 3.960938 8.417969 C 3.964844 8.417969 3.941406 8.417969 3.941406 8.417969 C 3.945312 8.417969 3.933594 8.398438 3.921875 8.398438 C 3.914062 8.398438 3.902344 8.398438 3.902344 8.398438 C 3.902344 8.398438 3.890625 8.398438 3.882812 8.398438 C 3.882812 8.398438 3.859375 8.398438 3.863281 8.398438 C 3.863281 8.398438 3.839844 8.398438 3.84375 8.398438 C 3.84375 8.398438 3.800781 8.398438 3.800781 8.398438 C 3.75 8.410156 3.703125 8.429688 3.660156 8.460938 C 3.640625 8.464844 3.621094 8.472656 3.601562 8.480469 C 3.25 8.621094 2.621094 8.699219 2.253906 8.699219 C 2.066406 8.699219 1.898438 8.691406 1.753906 8.679688 C 1.738281 8.679688 1.726562 8.679688 1.710938 8.679688 C 1.714844 8.679688 1.667969 8.679688 1.671875 8.679688 C 1.675781 8.679688 1.628906 8.699219 1.632812 8.699219 C 1.636719 8.699219 1.589844 8.699219 1.589844 8.699219 C 1.59375 8.699219 1.546875 8.703125 1.550781 8.699219 C 1.554688 8.699219 1.507812 8.722656 1.511719 8.71875 C 1.515625 8.71875 1.488281 8.742188 1.492188 8.742188 C 1.492188 8.738281 1.449219 8.761719 1.449219 8.761719 C 1.453125 8.757812 1.410156 8.78125 1.410156 8.78125 C 1.414062 8.78125 1.367188 8.804688 1.371094 8.800781 C 1.375 8.800781 1.347656 8.824219 1.351562 8.820312 C 1.351562 8.820312 1.308594 8.84375 1.308594 8.839844 C 1.3125 8.839844 1.289062 8.882812 1.289062 8.882812 C 1.292969 8.878906 1.25 8.902344 1.25 8.902344 C 1.253906 8.898438 1.226562 8.945312 1.230469 8.941406 C 1.230469 8.9375 1.207031 8.984375 1.210938 8.980469 C 1.210938 8.980469 1.1875 9.003906 1.191406 9 C 1.191406 9 1.167969 9.042969 1.167969 9.042969 C 1.171875 9.039062 1.167969 9.085938 1.167969 9.082031 C 1.171875 9.078125 1.148438 9.125 1.148438 9.121094 C 1.152344 9.121094 1.148438 9.164062 1.148438 9.164062 C 1.148438 9.160156 1.128906 9.207031 1.128906 9.203125 C 1.128906 9.199219 1.128906 9.246094 1.128906 9.242188 C 1.128906 9.238281 1.128906 9.285156 1.128906 9.28125 C 1.128906 9.28125 1.128906 9.328125 1.128906 9.324219 C 1.128906 9.320312 1.128906 9.367188 1.128906 9.363281 C 1.128906 9.359375 1.152344 9.40625 1.148438 9.402344 C 1.148438 9.402344 1.152344 9.445312 1.148438 9.445312 C 1.148438 9.441406 1.171875 9.488281 1.167969 9.484375 C 1.167969 9.480469 1.191406 9.527344 1.191406 9.523438 C 1.1875 9.523438 1.210938 9.546875 1.210938 9.542969 C 1.207031 9.542969 1.230469 9.585938 1.230469 9.585938 C 1.226562 9.582031 1.253906 9.628906 1.25 9.625 C 1.25 9.621094 1.273438 9.648438 1.269531 9.644531 C 1.269531 9.644531 1.3125 9.667969 1.308594 9.664062 C 1.308594 9.664062 1.332031 9.707031 1.332031 9.707031 C 1.328125 9.703125 1.351562 9.726562 1.351562 9.726562 C 1.355469 9.726562 1.363281 9.726562 1.371094 9.726562 C 1.367188 9.722656 1.394531 9.746094 1.390625 9.746094 C 1.386719 9.742188 1.433594 9.765625 1.429688 9.765625 C 1.429688 9.765625 1.453125 9.785156 1.449219 9.785156 C 1.449219 9.785156 1.492188 9.804688 1.492188 9.804688 C 1.488281 9.804688 1.515625 9.804688 1.511719 9.804688 C 1.507812 9.804688 1.554688 9.828125 1.550781 9.824219 C 1.550781 9.824219 1.59375 9.828125 1.589844 9.824219 C 1.589844 9.824219 1.632812 9.824219 1.632812 9.824219 C 1.632812 9.832031 1.632812 9.839844 1.632812 9.847656 C 1.875 9.863281 1.753906 9.886719 1.753906 9.886719 C 1.746094 9.886719 1.738281 9.886719 1.730469 9.886719 C 1.734375 9.886719 1.6875 9.886719 1.691406 9.886719 C 1.695312 9.886719 1.648438 9.90625 1.652344 9.90625 C 1.65625 9.90625 1.609375 9.90625 1.613281 9.90625 C 1.613281 9.90625 1.570312 9.90625 1.570312 9.90625 C 1.574219 9.90625 1.527344 9.925781 1.53125 9.925781 C 1.535156 9.925781 1.488281 9.925781 1.492188 9.925781 C 1.492188 9.925781 1.46875 9.949219 1.472656 9.945312 C 1.472656 9.945312 1.429688 9.96875 1.429688 9.964844 C 1.433594 9.964844 1.386719 9.988281 1.390625 9.988281 C 1.394531 9.984375 1.367188 10.007812 1.371094 10.007812 C 1.375 10.003906 1.328125 10.027344 1.332031 10.027344 C 1.332031 10.023438 1.308594 10.046875 1.308594 10.046875 C 1.3125 10.042969 1.269531 10.089844 1.269531 10.085938 C 1.273438 10.085938 1.25 10.109375 1.25 10.105469 C 1.253906 10.105469 1.226562 10.148438 1.230469 10.148438 C 1.230469 10.144531 1.207031 10.191406 1.210938 10.1875 C 1.210938 10.183594 1.1875 10.210938 1.191406 10.207031 C 1.191406 10.203125 1.167969 10.25 1.167969 10.246094 C 1.171875 10.246094 1.148438 10.289062 1.148438 10.289062 C 1.152344 10.285156 1.148438 10.332031 1.148438 10.328125 C 1.152344 10.324219 1.128906 10.371094 1.128906 10.367188 C 1.128906 10.363281 1.128906 10.410156 1.128906 10.410156 C 1.128906 10.40625 1.128906 10.453125 1.128906 10.449219 C 1.128906 10.445312 1.128906 10.472656 1.128906 10.46875 C 1.128906 10.464844 1.128906 10.511719 1.128906 10.507812 C 1.128906 10.503906 1.128906 10.550781 1.128906 10.550781 C 1.128906 10.546875 1.128906 10.59375 1.128906 10.589844 C 1.128906 10.585938 1.152344 10.632812 1.148438 10.628906 C 1.148438 10.625 1.152344 10.671875 1.148438 10.667969 C 1.148438 10.667969 1.171875 10.710938 1.167969 10.710938 C 1.167969 10.707031 1.191406 10.753906 1.191406 10.75 C 1.1875 10.746094 1.210938 10.773438 1.210938 10.769531 C 1.210938 10.777344 1.210938 10.785156 1.210938 10.789062 C 1.207031 10.789062 1.230469 10.8125 1.230469 10.808594 C 1.230469 10.808594 1.25 10.832031 1.25 10.832031 C 1.25 10.828125 1.273438 10.851562 1.269531 10.851562 C 1.269531 10.847656 1.292969 10.871094 1.289062 10.871094 C 1.289062 10.867188 1.3125 10.890625 1.308594 10.890625 C 1.308594 10.890625 1.332031 10.910156 1.332031 10.910156 C 1.328125 10.910156 1.351562 10.933594 1.351562 10.929688 C 1.351562 10.929688 1.363281 10.925781 1.371094 10.929688 C 1.375 10.933594 1.371094 10.953125 1.371094 10.949219 C 1.378906 10.957031 1.390625 10.953125 1.390625 10.949219 C 1.386719 10.949219 1.433594 10.972656 1.429688 10.972656 C 1.429688 10.96875 1.453125 10.992188 1.449219 10.992188 C 1.449219 10.988281 1.492188 11.011719 1.492188 11.011719 C 1.488281 11.011719 1.515625 11.011719 1.511719 11.011719 C 1.507812 11.011719 1.554688 11.03125 1.550781 11.03125 C 1.550781 11.03125 1.59375 11.03125 1.589844 11.03125 C 1.589844 11.03125 1.632812 11.03125 1.632812 11.03125 C 1.632812 11.039062 1.632812 11.042969 1.632812 11.050781 C 1.820312 11.066406 2.035156 11.070312 2.253906 11.070312 C 2.707031 11.070312 3.324219 10.984375 3.882812 10.789062 C 4.449219 10.992188 5.074219 11.070312 5.53125 11.070312 C 5.980469 11.070312 6.613281 10.988281 7.175781 10.789062 C 7.742188 10.988281 8.371094 11.070312 8.824219 11.070312 C 9.332031 11.070312 10.066406 11.011719 10.691406 10.730469 C 10.691406 10.730469 10.734375 10.707031 10.734375 10.710938 C 10.730469 10.710938 10.753906 10.707031 10.753906 10.710938 C 10.75 10.710938 10.773438 10.6875 10.773438 10.691406 C 10.769531 10.691406 10.816406 10.667969 10.8125 10.667969 C 10.8125 10.671875 10.835938 10.648438 10.832031 10.648438 C 10.832031 10.652344 10.855469 10.628906 10.855469 10.628906 C 10.851562 10.632812 10.875 10.609375 10.875 10.609375 C 10.871094 10.609375 10.894531 10.566406 10.894531 10.570312 C 10.902344 10.5625 10.90625 10.554688 10.914062 10.550781 C 10.914062 10.550781 10.933594 10.527344 10.933594 10.527344 C 10.933594 10.53125 10.953125 10.507812 10.953125 10.507812 C 10.953125 10.511719 10.953125 10.488281 10.953125 10.488281 C 10.953125 10.492188 10.976562 10.46875 10.972656 10.46875 C 10.972656 10.46875 10.976562 10.445312 10.972656 10.449219 C 10.972656 10.449219 10.996094 10.425781 10.996094 10.429688 C 10.992188 10.429688 10.996094 10.40625 10.996094 10.410156 C 10.992188 10.410156 10.996094 10.386719 10.996094 10.386719 C 10.992188 10.390625 11.015625 10.367188 11.015625 10.367188 C 11.015625 10.371094 11.015625 10.347656 11.015625 10.347656 C 11.015625 10.351562 11.015625 10.328125 11.015625 10.328125 C 11.015625 10.328125 11.015625 10.304688 11.015625 10.308594 C 11.015625 10.308594 11.015625 10.285156 11.015625 10.289062 C 11.015625 10.289062 11.035156 10.265625 11.035156 10.269531 C 11.035156 10.269531 11.035156 10.246094 11.035156 10.246094 C 11.035156 10.25 11.035156 10.207031 11.035156 10.207031 C 11.035156 10.210938 11.035156 10.1875 11.035156 10.1875 C 11.035156 10.1875 11.035156 10.164062 11.035156 10.167969 C 11.035156 10.167969 11.015625 10.144531 11.015625 10.148438 C 11.015625 10.148438 11.015625 10.125 11.015625 10.128906 C 11.015625 10.128906 11.015625 10.105469 11.015625 10.105469 C 11.015625 10.109375 11.015625 10.085938 11.015625 10.085938 C 11.015625 10.089844 11.015625 10.066406 11.015625 10.066406 C 11.015625 10.070312 10.992188 10.046875 10.996094 10.046875 C 10.996094 10.046875 10.992188 10.023438 10.996094 10.027344 C 10.996094 10.027344 10.992188 10.003906 10.996094 10.007812 C 10.996094 10.007812 10.972656 9.984375 10.972656 9.988281 C 10.976562 9.988281 10.972656 9.964844 10.972656 9.964844 C 10.976562 9.96875 10.953125 9.945312 10.953125 9.945312 C 10.953125 9.949219 10.953125 9.925781 10.953125 9.925781 C 10.953125 9.925781 10.933594 9.90625 10.933594 9.90625 C 10.933594 9.90625 10.914062 9.882812 10.914062 9.886719 C 10.914062 9.886719 10.914062 9.863281 10.914062 9.867188 C 10.914062 9.867188 10.894531 9.84375 10.894531 9.847656 C 10.894531 9.847656 10.871094 9.824219 10.875 9.824219 C 10.875 9.828125 10.851562 9.804688 10.855469 9.804688 C 10.855469 9.808594 10.832031 9.785156 10.832031 9.785156 C 10.835938 9.785156 10.8125 9.765625 10.8125 9.765625 C 10.816406 9.765625 10.792969 9.746094 10.792969 9.746094 C 10.792969 9.746094 10.773438 9.722656 10.773438 9.726562 C 10.773438 9.726562 10.75 9.722656 10.753906 9.726562 C 10.753906 9.726562 10.730469 9.703125 10.734375 9.707031 C 10.734375 9.707031 10.710938 9.703125 10.714844 9.707031 C 10.714844 9.707031 10.691406 9.683594 10.691406 9.683594 C 10.695312 9.6875 10.671875 9.683594 10.671875 9.683594 C 10.675781 9.6875 10.632812 9.664062 10.632812 9.664062 C 10.632812 9.664062 10.609375 9.664062 10.613281 9.664062 C 10.613281 9.664062 10.589844 9.664062 10.59375 9.664062 C 10.59375 9.664062 10.570312 9.644531 10.574219 9.644531 C 10.574219 9.644531 10.550781 9.644531 10.550781 9.644531 C 10.554688 9.644531 10.53125 9.644531 10.53125 9.644531 C 10.535156 9.644531 10.511719 9.644531 10.511719 9.644531 C 10.515625 9.644531 10.46875 9.644531 10.472656 9.644531 C 10.472656 9.644531 10.449219 9.644531 10.453125 9.644531 C 10.453125 9.644531 10.429688 9.644531 10.429688 9.644531 C 10.433594 9.644531 10.410156 9.644531 10.410156 9.644531 C 10.414062 9.644531 10.390625 9.644531 10.390625 9.644531 C 10.394531 9.644531 10.371094 9.644531 10.371094 9.644531 C 10.375 9.644531 10.328125 9.644531 10.332031 9.644531 C 10.332031 9.644531 10.308594 9.644531 10.3125 9.644531 C 10.3125 9.644531 10.289062 9.664062 10.289062 9.664062 C 10.292969 9.664062 10.269531 9.664062 10.269531 9.664062 C 10.273438 9.664062 10.25 9.6875 10.25 9.683594 C 10.242188 9.683594 10.238281 9.683594 10.230469 9.683594 C 10.179688 9.707031 10.078125 9.707031 10.007812 9.726562 C 10.109375 9.703125 10.210938 9.675781 10.3125 9.644531 C 10.441406 9.605469 10.570312 9.578125 10.691406 9.523438 C 10.691406 9.523438 10.734375 9.503906 10.734375 9.503906 C 10.730469 9.503906 10.753906 9.503906 10.753906 9.503906 C 10.75 9.503906 10.773438 9.484375 10.773438 9.484375 C 10.769531 9.484375 10.816406 9.460938 10.8125 9.464844 C 10.8125 9.464844 10.835938 9.441406 10.832031 9.445312 C 10.832031 9.445312 10.855469 9.421875 10.855469 9.421875 C 10.851562 9.425781 10.875 9.402344 10.875 9.402344 C 10.871094 9.40625 10.894531 9.363281 10.894531 9.363281 C 10.890625 9.363281 10.914062 9.34375 10.914062 9.34375 C 10.914062 9.34375 10.933594 9.34375 10.933594 9.34375 C 10.933594 9.34375 10.953125 9.320312 10.953125 9.324219 C 10.953125 9.324219 10.953125 9.300781 10.953125 9.304688 C 10.953125 9.304688 10.976562 9.261719 10.972656 9.261719 C 10.972656 9.265625 10.976562 9.242188 10.972656 9.242188 C 10.972656 9.246094 10.996094 9.222656 10.996094 9.222656 C 10.992188 9.222656 10.996094 9.203125 10.996094 9.203125 C 10.992188 9.203125 11.015625 9.179688 11.015625 9.183594 C 11.015625 9.183594 11.015625 9.160156 11.015625 9.164062 C 11.015625 9.164062 11.015625 9.140625 11.015625 9.140625 C 11.015625 9.144531 11.035156 9.121094 11.035156 9.121094 C 11.035156 9.125 11.035156 9.082031 11.035156 9.082031 C 11.035156 9.082031 11.035156 9.058594 11.035156 9.0625 C 11.035156 9.0625 11.035156 9.039062 11.035156 9.042969 C 11.035156 9.042969 11.035156 9.019531 11.035156 9.023438 C 11.035156 9.023438 11.035156 9 11.035156 9 C 11.035156 9.003906 11.035156 8.960938 11.035156 8.960938 C 11.035156 8.964844 11.035156 8.941406 11.035156 8.941406 C 11.035156 8.945312 11.035156 8.917969 11.035156 8.921875 C 11.035156 8.921875 11.035156 8.898438 11.035156 8.902344 C 11.035156 8.902344 11.035156 8.878906 11.035156 8.882812 C 11.035156 8.882812 11.015625 8.839844 11.015625 8.839844 C 11.015625 8.84375 11.015625 8.820312 11.015625 8.820312 C 11.015625 8.824219 11.015625 8.800781 11.015625 8.800781 C 11.015625 8.800781 10.992188 8.777344 10.996094 8.78125 C 10.996094 8.78125 10.992188 8.757812 10.996094 8.761719 C 10.996094 8.761719 10.972656 8.738281 10.972656 8.742188 C 10.976562 8.742188 10.972656 8.71875 10.972656 8.71875 C 10.976562 8.722656 10.953125 8.699219 10.953125 8.699219 C 10.953125 8.703125 10.953125 8.679688 10.953125 8.679688 C 10.953125 8.683594 10.933594 8.660156 10.933594 8.660156 C 10.933594 8.660156 10.914062 8.640625 10.914062 8.640625 C 10.914062 8.640625 10.894531 8.617188 10.894531 8.621094 C 10.894531 8.621094 10.890625 8.597656 10.894531 8.601562 C 10.894531 8.601562 10.871094 8.578125 10.875 8.578125 C 10.875 8.582031 10.851562 8.558594 10.855469 8.558594 C 10.855469 8.5625 10.832031 8.539062 10.832031 8.539062 C 10.835938 8.539062 10.8125 8.539062 10.8125 8.539062 C 10.816406 8.539062 10.792969 8.519531 10.792969 8.519531 C 10.792969 8.519531 10.773438 8.5 10.773438 8.5 C 10.773438 8.5 10.75 8.5 10.753906 8.5 C 10.753906 8.5 10.730469 8.480469 10.734375 8.480469 C 10.734375 8.480469 10.710938 8.457031 10.710938 8.460938 C 10.714844 8.460938 10.691406 8.457031 10.691406 8.460938 C 10.695312 8.460938 10.671875 8.4375 10.671875 8.4375 C 10.675781 8.441406 10.632812 8.4375 10.632812 8.4375 C 10.632812 8.441406 10.609375 8.4375 10.613281 8.4375 C 10.613281 8.441406 10.589844 8.417969 10.59375 8.417969 C 10.59375 8.417969 10.570312 8.417969 10.570312 8.417969 C 10.574219 8.417969 10.550781 8.417969 10.550781 8.417969 C 10.554688 8.417969 10.53125 8.417969 10.53125 8.417969 C 10.535156 8.417969 10.488281 8.417969 10.492188 8.417969 C 10.492188 8.417969 10.46875 8.417969 10.472656 8.417969 C 10.472656 8.417969 10.449219 8.417969 10.453125 8.417969 C 10.453125 8.417969 10.429688 8.417969 10.429688 8.417969 C 10.433594 8.417969 10.410156 8.417969 10.410156 8.417969 C 10.414062 8.417969 10.371094 8.417969 10.371094 8.417969 C 10.371094 8.417969 10.347656 8.417969 10.351562 8.417969 C 10.351562 8.417969 10.328125 8.417969 10.332031 8.417969 C 10.332031 8.417969 10.308594 8.441406 10.3125 8.4375 C 10.3125 8.4375 10.289062 8.441406 10.289062 8.4375 C 10.292969 8.4375 10.25 8.441406 10.25 8.4375 C 10.253906 8.4375 10.230469 8.460938 10.230469 8.460938 C 9.894531 8.609375 9.210938 8.699219 8.824219 8.699219 C 8.445312 8.699219 7.78125 8.609375 7.4375 8.460938 C 7.433594 8.457031 7.421875 8.460938 7.417969 8.460938 C 7.410156 8.457031 7.398438 8.457031 7.398438 8.460938 C 7.398438 8.460938 7.375 8.4375 7.378906 8.4375 C 7.378906 8.441406 7.335938 8.417969 7.335938 8.417969 C 7.339844 8.421875 7.316406 8.417969 7.316406 8.417969 C 7.320312 8.417969 7.273438 8.417969 7.277344 8.417969 C 7.28125 8.417969 7.234375 8.398438 7.238281 8.398438 C 7.238281 8.398438 7.214844 8.398438 7.21875 8.398438 C 7.21875 8.398438 7.175781 8.398438 7.175781 8.398438 C 7.179688 8.398438 7.132812 8.398438 7.136719 8.398438 C 7.140625 8.398438 7.113281 8.398438 7.117188 8.398438 C 7.117188 8.398438 7.074219 8.417969 7.078125 8.417969 C 7.078125 8.417969 7.035156 8.417969 7.035156 8.417969 C 7.039062 8.417969 7.015625 8.421875 7.015625 8.417969 C 7.019531 8.417969 6.972656 8.441406 6.976562 8.4375 C 6.976562 8.4375 6.953125 8.460938 6.957031 8.460938 C 6.957031 8.457031 6.945312 8.457031 6.9375 8.460938 C 6.925781 8.464844 6.914062 8.460938 6.914062 8.460938 C 6.875 8.476562 6.804688 8.484375 6.753906 8.5 C 7.160156 8.25 7.445312 7.8125 7.476562 7.3125 C 7.605469 7.238281 7.707031 7.144531 7.820312 7.054688 L 8.320312 7.554688 C 8.453125 7.675781 8.675781 7.675781 8.804688 7.554688 C 9.363281 6.996094 9.375 6.117188 8.863281 5.527344 C 8.898438 5.390625 8.910156 5.246094 8.925781 5.105469 L 9.628906 5.105469 C 9.820312 5.109375 9.992188 4.933594 9.988281 4.742188 C 9.988281 3.9375 9.328125 3.300781 8.542969 3.257812 C 8.480469 3.144531 8.402344 3.039062 8.320312 2.933594 L 8.804688 2.453125 C 8.9375 2.320312 8.9375 2.082031 8.804688 1.949219 C 8.246094 1.390625 7.367188 1.371094 6.773438 1.871094 C 6.640625 1.832031 6.496094 1.824219 6.351562 1.808594 L 6.351562 1.125 C 6.359375 0.9375 6.183594 0.761719 5.992188 0.765625 Z M 5.992188 0.765625 "/>
</g>
</defs>
<g mask="url(#mask-0)">
<use xlink:href="#source-6"/>
</g>
</svg>
