<svg width="64" height="64" viewBox="0 0 64 64" fill="none" xmlns="http://www.w3.org/2000/svg">
<g clip-path="url(#clip0)">
<path opacity="0.233202" d="M31.5 12C31.5001 12.5458 31.3917 13.0862 31.1811 13.5905C30.9704 14.0948 30.6616 14.5529 30.2722 14.9389C29.8829 15.3249 29.4206 15.631 28.9119 15.8399C28.4031 16.0488 27.8579 16.1563 27.3072 16.1563C26.7565 16.1563 26.2113 16.0488 25.7025 15.8399C25.1938 15.631 24.7316 15.3249 24.3422 14.9389C23.9529 14.5529 23.644 14.0948 23.4334 13.5905C23.2227 13.0862 23.1143 12.5458 23.1144 12C23.1143 11.4542 23.2227 10.9138 23.4334 10.4095C23.644 9.90528 23.9529 9.44709 24.3422 9.06113C24.7316 8.67518 25.1938 8.36902 25.7025 8.16014C26.2113 7.95126 26.7565 7.84375 27.3072 7.84375C27.8579 7.84375 28.4031 7.95126 28.9119 8.16014C29.4206 8.36902 29.8829 8.67518 30.2722 9.06113C30.6616 9.44709 30.9704 9.90528 31.1811 10.4095C31.3917 10.9138 31.5001 11.4542 31.5 12V12Z" fill="#81B4E1" stroke="#81B4E1"/>
<path opacity="0.411067" d="M64 0H0V64H64V0Z" fill="#9DDD87"/>
<path d="M35 24H20V25H35V24Z" fill="#2F91EA"/>
<path d="M48 12H35V13H48V12Z" fill="#2F91EA"/>
<path d="M15 53H1V54H15V53Z" fill="#2F91EA"/>
<path d="M17 3H8V4H17V3Z" fill="#2F91EA"/>
<path d="M26 43H11V44H26V43Z" fill="#2F91EA"/>
<path d="M10 14H1V15H10V14Z" fill="#2F91EA"/>
<path d="M64 25H57V26H64V25Z" fill="#2F91EA"/>
<path d="M41 33H27V34H41V33Z" fill="#2F91EA"/>
<path d="M62 42H50V43H62V42Z" fill="#2F91EA"/>
<path d="M43 47H25V48H43V47Z" fill="#2F91EA"/>
<path d="M64 49H58V50H64V49Z" fill="#2F91EA"/>
<path d="M48 6H42V7H48V6Z" fill="#2F91EA"/>
<path d="M51 62H36V63H51V62Z" fill="#2F91EA"/>
<path d="M56 16H48V17H56V16Z" fill="#2F91EA"/>
<path d="M48.8589 55.0507H40.8477V56.0507H48.8589V55.0507Z" fill="#2F91EA"/>
<path d="M11 38H2V39H11V38Z" fill="#2F91EA"/>
<path d="M46 1H39V2H46V1Z" fill="#2F91EA"/>
<path d="M17 63H7V64H17V63Z" fill="#2F91EA"/>
<path d="M55 28H44V29H55V28Z" fill="#2F91EA"/>
<path d="M8 49H0V50H8V49Z" fill="#2F91EA"/>
<path d="M62 36H57V37H62V36Z" fill="#2F91EA"/>
<path d="M4.91815 29.6914C4.19296 28.8241 3.78797 27.7339 3.77109 26.6035C3.7542 25.4731 4.12644 24.3712 4.82541 23.4827C5.52437 22.5941 6.50756 21.9728 7.61015 21.723C8.71274 21.4732 9.86769 21.6101 10.8814 22.1106C11.8951 22.6111 12.7059 23.4449 13.1778 24.4722C13.6498 25.4995 13.7543 26.6579 13.4737 27.753C13.1932 28.8482 12.5446 29.8136 11.6368 30.4875C10.7291 31.1613 9.61722 31.5025 8.48773 31.454" stroke="#2F91EA"/>
<path d="M8.50854 30.9697V36.0036" stroke="#2F91EA"/>
<path d="M23.4374 15.3593C22.7122 14.492 22.3072 13.4018 22.2903 12.2713C22.2735 11.1409 22.6457 10.0391 23.3447 9.15052C24.0436 8.26195 25.0268 7.64069 26.1294 7.39088C27.232 7.14107 28.3869 7.2779 29.4006 7.77844C30.4143 8.27898 31.2251 9.1128 31.6971 10.1401C32.1691 11.1674 32.2735 12.3257 31.993 13.4209C31.7124 14.5161 31.0639 15.4815 30.1561 16.1553C29.2483 16.8291 28.1365 17.1704 27.007 17.1219" stroke="#2F91EA"/>
<path d="M27.4991 16.9701V22.004" stroke="#2F91EA"/>
<path opacity="0.233202" d="M51.1176 34.9644C51.1177 35.3996 51.0313 35.8305 50.8633 36.2325C50.6953 36.6346 50.449 36.9999 50.1385 37.3076C49.828 37.6153 49.4593 37.8594 49.0536 38.026C48.6479 38.1925 48.2131 38.2782 47.7739 38.2782C47.3348 38.2782 46.8999 38.1925 46.4942 38.026C46.0885 37.8594 45.7198 37.6153 45.4093 37.3076C45.0988 36.9999 44.8525 36.6346 44.6845 36.2325C44.5165 35.8305 44.4301 35.3996 44.4302 34.9644C44.4301 34.5293 44.5165 34.0984 44.6845 33.6963C44.8525 33.2943 45.0988 32.929 45.4093 32.6213C45.7198 32.3135 46.0885 32.0694 46.4942 31.9029C46.8999 31.7364 47.3348 31.6506 47.7739 31.6506C48.2131 31.6506 48.6479 31.7364 49.0536 31.9029C49.4593 32.0694 49.828 32.3135 50.1385 32.6213C50.449 32.929 50.6953 33.2943 50.8633 33.6963C51.0313 34.0984 51.1177 34.5293 51.1176 34.9644V34.9644Z" fill="#81B4E1" stroke="#81B4E1"/>
<path d="M44.4588 37.656C43.844 36.9207 43.5007 35.9964 43.4863 35.0381C43.472 34.0797 43.7876 33.1456 44.3802 32.3922C44.9728 31.6389 45.8063 31.1122 46.7411 30.9004C47.6759 30.6886 48.655 30.8046 49.5144 31.229C50.3738 31.6533 51.0612 32.3603 51.4614 33.2312C51.8615 34.1021 51.9501 35.0842 51.7122 36.0126C51.4744 36.9411 50.9245 37.7596 50.1549 38.3309C49.3853 38.9021 48.4427 39.1915 47.4851 39.1503" stroke="#2F91EA"/>
<path d="M47.5027 38.6541V43.0075" stroke="#2F91EA"/>
<path d="M18.9261 55.2578C18.2943 54.5022 17.9415 53.5524 17.9267 52.5676C17.912 51.5827 18.2363 50.6228 18.8453 49.8486C19.4542 49.0745 20.3108 48.5333 21.2714 48.3156C22.232 48.098 23.2382 48.2172 24.1213 48.6533C25.0045 49.0893 25.7109 49.8158 26.122 50.7108C26.5332 51.6058 26.6243 52.6149 26.3798 53.569C26.1354 54.5232 25.5704 55.3643 24.7795 55.9513C23.9886 56.5384 23.02 56.8357 22.036 56.7934" stroke="#2F91EA"/>
<path d="M22.499 56.3289V61.0114" stroke="#2F91EA"/>
<path d="M55.7468 58.1717C55.1914 57.5075 54.8812 56.6725 54.8683 55.8068C54.8553 54.9411 55.1404 54.0973 55.6757 53.4168C56.211 52.7362 56.964 52.2605 57.8084 52.0691C58.6528 51.8778 59.5373 51.9826 60.3137 52.366C61.09 52.7493 61.7109 53.3879 62.0724 54.1746C62.4338 54.9614 62.5139 55.8485 62.299 56.6872C62.0841 57.5259 61.5874 58.2653 60.8922 58.7813C60.197 59.2974 59.3455 59.5587 58.4805 59.5216" stroke="#2F91EA"/>
<path d="M58.4964 59.0256V63.0059" stroke="#2F91EA"/>
<path d="M51.3817 8.94098C50.8246 8.27473 50.5135 7.43721 50.5005 6.56883C50.4875 5.70046 50.7735 4.85402 51.3104 4.17142C51.8474 3.48883 52.6027 3.01157 53.4497 2.81967C54.2967 2.62776 55.1839 2.73288 55.9626 3.11739C56.7413 3.50191 57.3642 4.14244 57.7268 4.93161C58.0893 5.72078 58.1696 6.6106 57.954 7.45191C57.7385 8.29321 57.2403 9.03484 56.543 9.55247C55.8456 10.0701 54.9915 10.3323 54.1238 10.295" stroke="#2F91EA"/>
<path d="M54.5211 9.8042V13.9806" stroke="#2F91EA"/>
<path opacity="0.233202" d="M57.1488 6.52263C57.1488 6.89059 57.0757 7.25496 56.9336 7.59494C56.7915 7.93491 56.5832 8.24382 56.3206 8.50403C56.058 8.76424 55.7462 8.97066 55.403 9.11148C55.0599 9.25231 54.6921 9.32479 54.3207 9.32479C53.9492 9.32479 53.5814 9.25231 53.2383 9.11148C52.8951 8.97066 52.5833 8.76424 52.3207 8.50403C52.0581 8.24382 51.8498 7.93491 51.7077 7.59494C51.5656 7.25496 51.4925 6.89059 51.4926 6.52263C51.4925 6.15466 51.5656 5.79029 51.7077 5.45032C51.8498 5.11035 52.0581 4.80143 52.3207 4.54122C52.5833 4.28101 52.8951 4.0746 53.2383 3.93377C53.5814 3.79294 53.9492 3.72046 54.3207 3.72046C54.6921 3.72046 55.0599 3.79294 55.403 3.93377C55.7462 4.0746 56.058 4.28101 56.3206 4.54122C56.5832 4.80143 56.7915 5.11035 56.9336 5.45032C57.0757 5.79029 57.1488 6.15466 57.1488 6.52263V6.52263Z" fill="#81B4E1" stroke="#81B4E1"/>
<path opacity="0.233202" d="M12.7397 26.5C12.7398 27.0254 12.6367 27.5456 12.4364 28.031C12.236 28.5164 11.9424 28.9574 11.5721 29.3289C11.2019 29.7004 10.7623 29.9951 10.2786 30.1962C9.7948 30.3972 9.27629 30.5007 8.75265 30.5007C8.22901 30.5007 7.7105 30.3972 7.22673 30.1962C6.74296 29.9951 6.3034 29.7004 5.93317 29.3289C5.56293 28.9574 5.26926 28.5164 5.06893 28.031C4.8686 27.5456 4.76554 27.0254 4.76563 26.5C4.76554 25.9747 4.8686 25.4545 5.06893 24.9691C5.26926 24.4837 5.56293 24.0427 5.93317 23.6712C6.3034 23.2997 6.74296 23.005 7.22673 22.8039C7.7105 22.6029 8.22901 22.4994 8.75265 22.4994C9.27629 22.4994 9.7948 22.6029 10.2786 22.8039C10.7623 23.005 11.2019 23.2997 11.5721 23.6712C11.9424 24.0427 12.236 24.4837 12.4364 24.9691C12.6367 25.4545 12.7398 25.9747 12.7397 26.5V26.5Z" fill="#81B4E1" stroke="#81B4E1"/>
<path opacity="0.233202" d="M61.4738 55.7798C61.4738 56.1478 61.4007 56.5122 61.2586 56.8521C61.1165 57.1921 60.9082 57.501 60.6456 57.7612C60.383 58.0214 60.0712 58.2279 59.728 58.3687C59.3849 58.5095 59.0171 58.582 58.6457 58.582C58.2742 58.582 57.9064 58.5095 57.5633 58.3687C57.2201 58.2279 56.9084 58.0214 56.6457 57.7612C56.3831 57.501 56.1748 57.1921 56.0327 56.8521C55.8906 56.5122 55.8175 56.1478 55.8176 55.7798C55.8175 55.4119 55.8906 55.0475 56.0327 54.7075C56.1748 54.3675 56.3831 54.0586 56.6457 53.7984C56.9084 53.5382 57.2201 53.3318 57.5633 53.191C57.9064 53.0501 58.2742 52.9777 58.6457 52.9777C59.0171 52.9777 59.3849 53.0501 59.728 53.191C60.0712 53.3318 60.383 53.5382 60.6456 53.7984C60.9082 54.0586 61.1165 54.3675 61.2586 54.7075C61.4007 55.0475 61.4738 55.4119 61.4738 55.7798V55.7798Z" fill="#81B4E1" stroke="#81B4E1"/>
<path opacity="0.233202" d="M25.5156 52.5041C25.5157 52.9392 25.4292 53.3701 25.2612 53.7722C25.0932 54.1742 24.8469 54.5395 24.5364 54.8473C24.2259 55.155 23.8573 55.3991 23.4516 55.5656C23.0459 55.7322 22.611 55.8179 22.1719 55.8179C21.7327 55.8179 21.2979 55.7322 20.8921 55.5656C20.4864 55.3991 20.1178 55.155 19.8073 54.8473C19.4968 54.5395 19.2505 54.1742 19.0825 53.7722C18.9145 53.3701 18.8281 52.9392 18.8281 52.5041C18.8281 52.0689 18.9145 51.638 19.0825 51.236C19.2505 50.834 19.4968 50.4686 19.8073 50.1609C20.1178 49.8532 20.4864 49.6091 20.8921 49.4426C21.2979 49.276 21.7327 49.1903 22.1719 49.1903C22.611 49.1903 23.0459 49.276 23.4516 49.4426C23.8573 49.6091 24.2259 49.8532 24.5364 50.1609C24.8469 50.4686 25.0932 50.834 25.2612 51.236C25.4292 51.638 25.5157 52.0689 25.5156 52.5041V52.5041Z" fill="#81B4E1" stroke="#81B4E1"/>
</g>
<defs>
<clipPath id="clip0">
<path d="M0 0H64V64H0V0Z" fill="white"/>
</clipPath>
</defs>
</svg>
