<svg width="25" height="41" viewBox="0 0 25 41" fill="none" xmlns="http://www.w3.org/2000/svg">
<path d="M22.4016 0.560486H2.59839V7.56316H22.4016V0.560486Z" fill="white" stroke="#515151" stroke-width="1.08274"/>
<path d="M3.98477 2.06372H6.99835V2.83241H5.91425V6.00755H5.07106V2.83241H3.98477V2.06372V2.06372Z" fill="#515151"/>
<path d="M8.62997 3.81243C8.80664 3.81243 8.93294 3.7728 9.00886 3.69356C9.08624 3.61431 9.12494 3.48399 9.12494 3.30261C9.12494 3.12298 9.08624 2.99443 9.00886 2.91694C8.93294 2.83946 8.80664 2.80071 8.62997 2.80071H8.27518V3.81243H8.62997ZM8.27518 4.51508V6.00755H7.43199V2.06372H8.71977C9.15049 2.06372 9.46586 2.15089 9.66589 2.32523C9.86738 2.49958 9.96812 2.77518 9.96812 3.15204C9.96812 3.41267 9.91556 3.62664 9.81044 3.79393C9.70677 3.96123 9.54982 4.08451 9.33957 4.16375C9.45491 4.19545 9.55785 4.26765 9.64837 4.38036C9.74035 4.4913 9.83307 4.66036 9.92651 4.88753L10.3842 6.00755H9.4863L9.0877 5.02754C9.0074 4.8303 8.92564 4.69558 8.84241 4.62338C8.76065 4.55118 8.65114 4.51508 8.5139 4.51508H8.27518V4.51508Z" fill="#515151"/>
<path d="M10.8836 2.06372H11.7268V4.42791C11.7268 4.7537 11.7706 4.98703 11.8582 5.12792C11.9472 5.26704 12.0918 5.3366 12.2918 5.3366C12.4933 5.3366 12.6379 5.26704 12.7255 5.12792C12.8145 4.98703 12.8591 4.7537 12.8591 4.42791V2.06372H13.7022V4.42791C13.7022 4.98615 13.5862 5.40176 13.354 5.67472C13.1219 5.94768 12.7678 6.08416 12.2918 6.08416C11.8173 6.08416 11.464 5.94768 11.2318 5.67472C10.9997 5.40176 10.8836 4.98615 10.8836 4.42791V2.06372Z" fill="#515151"/>
<path d="M17.121 5.79098C16.9662 5.88784 16.8049 5.96092 16.637 6.01023C16.4691 6.05954 16.2939 6.08419 16.1114 6.08419C15.5668 6.08419 15.1353 5.90104 14.817 5.53475C14.4987 5.16669 14.3396 4.66832 14.3396 4.03963C14.3396 3.40918 14.4987 2.91081 14.817 2.54451C15.1353 2.17646 15.5668 1.99243 16.1114 1.99243C16.2939 1.99243 16.4691 2.01708 16.637 2.06639C16.8049 2.1157 16.9662 2.18878 17.121 2.28564V3.10188C16.9648 2.97332 16.8107 2.87911 16.6589 2.81923C16.507 2.75936 16.3472 2.72942 16.1792 2.72942C15.8785 2.72942 15.6419 2.84565 15.4697 3.07811C15.2974 3.31056 15.2112 3.63107 15.2112 4.03963C15.2112 4.44643 15.2974 4.76606 15.4697 4.99851C15.6419 5.23097 15.8785 5.3472 16.1792 5.3472C16.3472 5.3472 16.507 5.31726 16.6589 5.25739C16.8107 5.19751 16.9648 5.1033 17.121 4.97474V5.79098V5.79098Z" fill="#515151"/>
<path d="M17.8218 2.06372H18.665V3.50336L19.8805 2.06372H20.8595L19.2848 3.93129L21.0216 6.00755H19.9659L18.665 4.45432V6.00755H17.8218V2.06372V2.06372Z" fill="#515151"/>
</svg>
