<?xml version="1.0" encoding="UTF-8"?>
<svg xmlns="http://www.w3.org/2000/svg" xmlns:xlink="http://www.w3.org/1999/xlink" width="12" height="12" viewBox="0 0 12 12">
<defs>
<filter id="filter-remove-color" x="0%" y="0%" width="100%" height="100%">
<feColorMatrix color-interpolation-filters="sRGB" values="0 0 0 0 1 0 0 0 0 1 0 0 0 0 1 0 0 0 1 0" />
</filter>
<mask id="mask-0">
<g filter="url(#filter-remove-color)">
<rect x="-1.2" y="-1.2" width="14.4" height="14.4" fill="rgb(0%, 0%, 0%)" fill-opacity="0.8"/>
</g>
</mask>
<clipPath id="clip-0">
<rect x="0" y="0" width="12" height="12"/>
</clipPath>
<g id="source-6" clip-path="url(#clip-0)">
<path fill-rule="evenodd" fill="rgb(92.156863%, 90.588235%, 89.411765%)" fill-opacity="1" d="M 8.25 8.25 C 8.25 9.078125 7.578125 9.75 6.75 9.75 L 3.75 9.75 C 2.921875 9.75 2.25 9.078125 2.25 8.25 L 2.25 3.75 C 2.25 2.921875 2.921875 2.25 3.75 2.25 L 6.75 2.25 C 7.578125 2.25 8.25 2.921875 8.25 3.75 C 8.539062 3.75 8.824219 3.859375 9.046875 4.078125 L 10.171875 5.203125 C 10.609375 5.644531 10.609375 6.355469 10.171875 6.796875 L 9.046875 7.921875 C 8.824219 8.140625 8.539062 8.25 8.25 8.25 Z M 8.25 8.25 "/>
</g>
</defs>
<g mask="url(#mask-0)">
<use xlink:href="#source-6"/>
</g>
</svg>
