<?xml version="1.0" encoding="UTF-8"?>
<svg xmlns="http://www.w3.org/2000/svg" xmlns:xlink="http://www.w3.org/1999/xlink" width="12" height="12" viewBox="0 0 12 12">
<defs>
<filter id="filter-remove-color" x="0%" y="0%" width="100%" height="100%">
<feColorMatrix color-interpolation-filters="sRGB" values="0 0 0 0 1 0 0 0 0 1 0 0 0 0 1 0 0 0 1 0" />
</filter>
<mask id="mask-0">
<g filter="url(#filter-remove-color)">
<rect x="-1.2" y="-1.2" width="14.4" height="14.4" fill="rgb(0%, 0%, 0%)" fill-opacity="0.8"/>
</g>
</mask>
<clipPath id="clip-0">
<rect x="0" y="0" width="12" height="12"/>
</clipPath>
<g id="source-6" clip-path="url(#clip-0)">
<path fill-rule="nonzero" fill="rgb(92.156863%, 90.588235%, 89.411765%)" fill-opacity="1" d="M 7.03125 1.046875 C 6.089844 1.046875 5.496094 1.53125 5.148438 1.90625 C 4.441406 1.957031 3.878906 2.265625 3.578125 2.625 C 3.230469 3.039062 3.113281 3.472656 3.113281 3.472656 C 3.09375 3.546875 3.089844 3.621094 3.097656 3.691406 C 3.109375 3.765625 3.132812 3.835938 3.171875 3.898438 C 3.078125 3.957031 3.007812 4.039062 2.960938 4.136719 C 2.917969 4.234375 2.902344 4.34375 2.917969 4.449219 C 2.917969 4.449219 3.0625 5.417969 2.902344 6.203125 C 2.839844 6.519531 2.480469 7.398438 2.140625 8.121094 C 1.972656 8.480469 1.808594 8.816406 1.683594 9.066406 C 1.625 9.191406 1.574219 9.292969 1.535156 9.367188 C 1.519531 9.40625 1.503906 9.4375 1.492188 9.460938 C 1.484375 9.476562 1.480469 9.488281 1.472656 9.503906 C 1.46875 9.511719 1.464844 9.523438 1.457031 9.542969 C 1.453125 9.550781 1.449219 9.5625 1.445312 9.585938 C 1.441406 9.59375 1.433594 9.628906 1.433594 9.628906 C 1.433594 9.628906 1.425781 9.726562 1.425781 9.726562 C 1.425781 9.992188 1.585938 10.171875 1.699219 10.261719 C 1.8125 10.351562 1.921875 10.398438 2.035156 10.441406 C 2.265625 10.53125 2.53125 10.59375 2.855469 10.644531 C 3.5 10.75 4.355469 10.8125 5.304688 10.8125 C 6.25 10.8125 7.101562 10.75 7.742188 10.644531 C 8.0625 10.59375 8.328125 10.53125 8.554688 10.441406 C 8.671875 10.398438 8.777344 10.347656 8.890625 10.257812 C 9.003906 10.167969 9.160156 9.988281 9.160156 9.726562 C 9.160156 9.726562 9.152344 9.628906 9.152344 9.628906 C 9.152344 9.628906 9.144531 9.59375 9.144531 9.585938 C 9.136719 9.5625 9.132812 9.550781 9.128906 9.542969 C 9.125 9.523438 9.117188 9.511719 9.113281 9.503906 C 9.109375 9.488281 9.101562 9.476562 9.097656 9.460938 C 9.082031 9.4375 9.070312 9.40625 9.050781 9.367188 C 9.015625 9.292969 8.964844 9.191406 8.902344 9.066406 C 8.78125 8.816406 8.617188 8.480469 8.445312 8.121094 C 8.109375 7.398438 7.75 6.519531 7.683594 6.203125 C 7.527344 5.425781 7.6875 4.460938 7.6875 4.460938 C 7.699219 4.382812 7.699219 4.300781 7.675781 4.226562 C 7.65625 4.148438 7.621094 4.078125 7.570312 4.015625 C 7.519531 3.953125 7.453125 3.90625 7.382812 3.871094 C 7.308594 3.835938 7.230469 3.820312 7.152344 3.820312 L 6.960938 3.820312 C 7.242188 3.746094 7.574219 3.757812 8.03125 3.941406 L 8.019531 3.9375 C 9.171875 4.441406 10.097656 4.171875 10.578125 3.695312 C 11.058594 3.21875 11.160156 2.621094 11.160156 2.621094 C 11.183594 2.492188 11.164062 2.359375 11.097656 2.246094 C 11.152344 2.1875 11.191406 2.113281 11.210938 2.035156 C 11.234375 1.957031 11.238281 1.875 11.222656 1.792969 C 11.207031 1.714844 11.175781 1.636719 11.125 1.570312 C 11.078125 1.503906 11.015625 1.453125 10.945312 1.414062 C 10.945312 1.414062 9.679688 0.777344 8.203125 1.304688 C 7.871094 1.175781 7.507812 1.046875 7.03125 1.046875 Z M 9.929688 2.472656 C 9.867188 2.546875 9.871094 2.570312 9.753906 2.648438 C 9.507812 2.8125 9.179688 2.914062 8.628906 2.699219 C 8.734375 2.636719 9.195312 2.511719 9.929688 2.472656 Z M 5.046875 3.300781 C 5.332031 3.261719 5.507812 3.316406 5.507812 3.316406 C 5.609375 3.347656 5.71875 3.347656 5.824219 3.316406 C 5.800781 3.402344 5.796875 3.496094 5.820312 3.582031 C 5.839844 3.671875 5.882812 3.75 5.941406 3.820312 L 4.203125 3.820312 C 4.5 3.476562 4.792969 3.339844 5.046875 3.300781 Z M 5.046875 3.300781 "/>
</g>
</defs>
<g mask="url(#mask-0)">
<use xlink:href="#source-6"/>
</g>
</svg>
