<?xml version="1.0" encoding="UTF-8"?>
<svg xmlns="http://www.w3.org/2000/svg" xmlns:xlink="http://www.w3.org/1999/xlink" width="12" height="12" viewBox="0 0 12 12">
<path fill-rule="evenodd" fill="rgb(100%, 100%, 100%)" fill-opacity="1" d="M 5.988281 1.679688 C 5.839844 1.683594 5.691406 1.722656 5.558594 1.792969 L 1.691406 3.851562 C 1.167969 4.125 1.046875 4.9375 1.46875 5.351562 L 1.722656 5.609375 C 1.785156 5.671875 1.890625 5.617188 1.96875 5.65625 L 1.96875 9.3125 C 1.96875 9.816406 2.425781 10.273438 2.929688 10.277344 L 3.414062 10.277344 C 3.417969 10.277344 3.417969 10.277344 3.421875 10.277344 C 3.457031 10.277344 3.484375 10.257812 3.519531 10.253906 C 3.523438 10.253906 3.527344 10.253906 3.53125 10.253906 C 3.539062 10.253906 3.542969 10.253906 3.546875 10.253906 L 8.679688 10.253906 C 8.683594 10.253906 8.683594 10.253906 8.683594 10.253906 C 9.1875 10.253906 9.644531 9.796875 9.644531 9.292969 L 9.644531 8.808594 C 9.644531 8.304688 9.1875 7.847656 8.683594 7.847656 C 8.683594 7.847656 8.683594 7.847656 8.679688 7.847656 L 4.378906 7.847656 L 4.378906 5.289062 L 6 5.097656 L 8.082031 5.347656 L 9.261719 5.820312 C 9.601562 5.957031 10.023438 5.871094 10.285156 5.609375 L 10.542969 5.347656 C 10.953125 4.929688 10.832031 4.125 10.316406 3.851562 L 6.445312 1.792969 C 6.308594 1.71875 6.152344 1.679688 5.992188 1.679688 C 5.992188 1.679688 5.988281 1.679688 5.988281 1.679688 Z M 8.421875 3.488281 L 8.429688 3.492188 Z M 8.421875 3.488281 "/>
</svg>
