<?xml version="1.0" encoding="UTF-8"?>
<svg xmlns="http://www.w3.org/2000/svg" xmlns:xlink="http://www.w3.org/1999/xlink" width="12" height="12" viewBox="0 0 12 12">
<defs>
<filter id="filter-remove-color" x="0%" y="0%" width="100%" height="100%">
<feColorMatrix color-interpolation-filters="sRGB" values="0 0 0 0 1 0 0 0 0 1 0 0 0 0 1 0 0 0 1 0" />
</filter>
<mask id="mask-0">
<g filter="url(#filter-remove-color)">
<rect x="-1.2" y="-1.2" width="14.4" height="14.4" fill="rgb(0%, 0%, 0%)" fill-opacity="0.804"/>
</g>
</mask>
<clipPath id="clip-0">
<rect x="0" y="0" width="12" height="12"/>
</clipPath>
<g id="source-6" clip-path="url(#clip-0)">
<path fill-rule="nonzero" fill="rgb(92.156863%, 90.588235%, 89.411765%)" fill-opacity="1" d="M 5.609375 1.121094 C 5.535156 1.121094 5.457031 1.136719 5.386719 1.167969 C 5.316406 1.203125 5.253906 1.246094 5.203125 1.304688 C 5.097656 1.273438 4.992188 1.222656 4.886719 1.222656 C 4.492188 1.222656 4.054688 1.460938 3.851562 1.820312 L 2.75 3.722656 C 2.675781 3.847656 2.65625 3.996094 2.695312 4.136719 C 2.730469 4.277344 2.820312 4.394531 2.945312 4.46875 C 3.042969 4.523438 3.199219 4.613281 3.308594 4.675781 L 1.351562 4.675781 C 1.230469 4.675781 1.117188 4.714844 1.019531 4.789062 C 0.925781 4.863281 0.855469 4.964844 0.824219 5.082031 C 0.792969 5.195312 0.804688 5.320312 0.847656 5.429688 C 0.894531 5.542969 0.976562 5.632812 1.078125 5.695312 L 1.507812 5.941406 L 1.222656 6.433594 C 1.21875 6.4375 1.21875 6.441406 1.214844 6.445312 C 1.152344 6.5625 1.070312 6.75 1.070312 6.96875 C 1.070312 7.191406 1.136719 7.363281 1.214844 7.511719 C 1.21875 7.515625 1.21875 7.519531 1.222656 7.523438 L 2.105469 9.050781 C 2.148438 9.121094 2.203125 9.183594 2.273438 9.226562 C 2.34375 9.273438 2.421875 9.304688 2.503906 9.316406 C 2.5625 9.515625 2.597656 9.734375 2.742188 9.871094 C 2.964844 10.089844 3.292969 10.207031 3.582031 10.207031 L 5.769531 10.207031 C 5.914062 10.207031 6.054688 10.148438 6.15625 10.046875 C 6.257812 9.945312 6.316406 9.804688 6.316406 9.660156 L 6.316406 9.296875 L 7.265625 10.957031 C 7.324219 11.0625 7.417969 11.144531 7.53125 11.1875 C 7.640625 11.234375 7.761719 11.242188 7.878906 11.210938 C 7.996094 11.183594 8.097656 11.113281 8.171875 11.019531 C 8.246094 10.921875 8.285156 10.804688 8.285156 10.683594 L 8.285156 10.183594 L 8.84375 10.183594 C 9.191406 10.183594 9.597656 9.980469 9.792969 9.660156 C 9.796875 9.65625 9.800781 9.652344 9.800781 9.644531 L 10.664062 8.097656 C 10.703125 8.035156 10.722656 7.964844 10.730469 7.890625 C 10.738281 7.816406 10.734375 7.742188 10.710938 7.671875 C 10.792969 7.59375 10.890625 7.535156 10.945312 7.441406 C 10.945312 7.4375 10.945312 7.4375 10.949219 7.433594 C 11.148438 7.078125 11.117188 6.59375 10.925781 6.257812 L 9.839844 4.351562 C 9.804688 4.289062 9.757812 4.230469 9.699219 4.1875 C 9.640625 4.144531 9.574219 4.109375 9.503906 4.09375 C 9.433594 4.074219 9.363281 4.070312 9.289062 4.078125 C 9.21875 4.089844 9.148438 4.113281 9.085938 4.152344 C 9.082031 4.152344 8.84375 4.292969 8.804688 4.3125 L 9.777344 2.664062 C 9.835938 2.5625 9.863281 2.441406 9.847656 2.320312 C 9.832031 2.203125 9.777344 2.089844 9.691406 2.007812 C 9.609375 1.921875 9.496094 1.867188 9.378906 1.847656 C 9.257812 1.832031 9.136719 1.859375 9.035156 1.917969 L 8.597656 2.167969 L 8.316406 1.679688 C 8.128906 1.351562 7.742188 1.121094 7.359375 1.121094 Z M 5.53125 4.617188 C 5.582031 4.6875 5.648438 4.742188 5.722656 4.78125 C 5.800781 4.820312 5.886719 4.84375 5.972656 4.84375 L 7.890625 4.84375 C 7.726562 4.9375 7.777344 4.910156 7.570312 5.03125 C 7.507812 5.066406 7.453125 5.113281 7.40625 5.171875 C 7.363281 5.226562 7.332031 5.292969 7.3125 5.363281 C 7.296875 5.429688 7.289062 5.503906 7.300781 5.574219 C 7.308594 5.644531 7.332031 5.714844 7.371094 5.777344 C 7.5 6 7.5625 6.109375 7.679688 6.308594 C 7.59375 6.316406 7.511719 6.347656 7.441406 6.394531 C 7.371094 6.441406 7.308594 6.503906 7.269531 6.578125 L 6.316406 8.21875 L 6.316406 7.894531 C 6.316406 7.75 6.257812 7.609375 6.15625 7.507812 C 6.054688 7.40625 5.914062 7.347656 5.769531 7.347656 L 5.167969 7.347656 C 5.199219 7.269531 5.214844 7.183594 5.210938 7.101562 C 5.207031 7.015625 5.179688 6.929688 5.136719 6.859375 L 4.164062 5.171875 C 4.28125 5.238281 4.355469 5.285156 4.476562 5.355469 C 4.601562 5.425781 4.75 5.445312 4.890625 5.40625 C 5.027344 5.371094 5.144531 5.277344 5.21875 5.15625 C 5.3125 4.992188 5.429688 4.789062 5.53125 4.617188 Z M 5.53125 4.617188 "/>
</g>
</defs>
<g mask="url(#mask-0)">
<use xlink:href="#source-6"/>
</g>
</svg>
