<svg width="16" height="16" viewBox="0 0 16 16" fill="none" xmlns="http://www.w3.org/2000/svg">
<path d="M3.56605 10.3126L2.93934 10.9393C2.35356 11.5251 2.35355 12.4749 2.93934 13.0607C3.52512 13.6464 4.47487 13.6464 5.06066 13.0607L5.68737 12.4339C5.9536 12.573 6.23401 12.6889 6.52588 12.7789C6.65658 13.474 7.26687 14 8 14C8.73313 14 9.34342 13.474 9.47412 12.7789C9.76599 12.6889 10.0464 12.573 10.3126 12.4339L10.9393 13.0607C11.5251 13.6464 12.4749 13.6464 13.0607 13.0607C13.6464 12.4749 13.6464 11.5251 13.0607 10.9393L12.4339 10.3126C12.573 10.0464 12.6889 9.76599 12.7789 9.47412C13.474 9.34342 14 8.73313 14 8C14 7.26687 13.474 6.65658 12.7789 6.52588C12.6889 6.23401 12.573 5.9536 12.4339 5.68737L13.0607 5.06066C13.6464 4.47487 13.6464 3.52513 13.0607 2.93934C12.4749 2.35356 11.5251 2.35355 10.9393 2.93934L10.3126 3.56605C10.0464 3.42697 9.76599 3.31107 9.47412 3.22112C9.34342 2.52595 8.73313 2 8 2C7.26687 2 6.65658 2.52595 6.52588 3.22112C6.23401 3.31107 5.9536 3.42697 5.68737 3.56605L5.06066 2.93934C4.47487 2.35355 3.52513 2.35355 2.93934 2.93934C2.35355 3.52513 2.35355 4.47487 2.93934 5.06066L3.56605 5.68737C3.42697 5.9536 3.31107 6.23401 3.22112 6.52588C2.52595 6.65658 2 7.26687 2 8C2 8.73313 2.52595 9.34342 3.22112 9.47412C3.31107 9.76599 3.42697 10.0464 3.56605 10.3126Z" fill="#FEFEFE"/>
</svg>
