<svg width="64" height="64" viewBox="0 0 64 64" fill="none" xmlns="http://www.w3.org/2000/svg">
<path d="M41.3378 41.5215L42.3636 42.0353L42.741 42.8574C42.741 42.8574 42.5973 43.628 42.4366 43.6794C42.2758 43.7308 41.2723 44.0904 41.2723 44.0904L41.148 42.6005L41.3378 41.5215Z" fill="#666666"/>
<path d="M5.83967 62.2606H4.82767V63.2716H5.83967V62.2606Z" fill="#7A7A7A"/>
<path d="M26.8947 31.4296H25.8807V32.4406H26.8947V31.4296Z" fill="#171E1E" fill-opacity="0.404959"/>
<path d="M1.8989 50.0706H0.884895V51.0816H1.8989V50.0706Z" fill="#4B4B4B"/>
<path d="M38.6672 36.6272H37.6532V37.6382H38.6672V36.6272Z" fill="#939393"/>
<path d="M12.3672 59.8235H11.3532V60.8346H12.3672V59.8235Z" fill="#464C4C"/>
<path d="M22.3195 22.307H21.3055V23.318H22.3195V22.307Z" fill="#171E1E" fill-opacity="0.404959"/>
<path d="M18.8446 30.0337H17.8306V31.0447H18.8446V30.0337Z" fill="#171E1E" fill-opacity="0.404959"/>
<path d="M3.42002 32.4311H2.40601V33.4421H3.42002V32.4311Z" fill="#C3C3C3"/>
<path d="M29.1945 58.057H28.1805V59.068H29.1945V58.057Z" fill="#BFBFBF"/>
<path d="M2.68464 27.2179H1.67063V28.2289H2.68464V27.2179Z" fill="#939393"/>
<path d="M26.8704 19.3954H25.8564V20.4064H26.8704V19.3954Z" fill="#C3C3C3"/>
<path d="M44.8329 33.9831H43.8189V34.9941H44.8329V33.9831Z" fill="#464C4C"/>
<path d="M36.5313 22.7133H35.5173V23.7243H36.5313V22.7133Z" fill="#171E1E" fill-opacity="0.404959"/>
<path d="M29.2813 38.7133H28.2673V39.7243H29.2813V38.7133Z" fill="#939393"/>
<path d="M17.3984 51.2507H16.3843V52.2617H17.3984V51.2507Z" fill="#939393"/>
<path d="M37.2939 56.5544H36.2799V57.5654H37.2939V56.5544Z" fill="#464C4C"/>
<path d="M24.7091 60.2606H23.6951V61.2716H24.7091V60.2606Z" fill="#C3C3C3"/>
<path d="M14.5607 43.4304H13.5467V44.4413H14.5607V43.4304Z" fill="#969696"/>
<path d="M2.18638 19.8307H1.17237V20.8417H2.18638V19.8307Z" fill="#C3C3C3"/>
<path d="M50.6189 26.7568H49.6049V27.7678H50.6189V26.7568Z" fill="#171E1E" fill-opacity="0.404959"/>
<path d="M37.4773 51.0385H36.4633V52.0494H37.4773V51.0385Z" fill="#464C4C"/>
<path d="M32.3507 50.0662H31.3367V51.0772H32.3507V50.0662Z" fill="#939393"/>
<path d="M41.3033 44.1107C41.3033 44.1107 36.5011 44.2738 36.4301 44.093C36.3592 43.9123 35.4379 42.0036 35.4379 42.0036L36.0601 39.6224L37.5611 39.7948L37.039 40.6062L38.1146 39.8584L39.5594 39.2789L41.2554 39.8216L40.7357 40.873L41.485 40.3724L42.0394 41.857L41.3033 44.1107Z" fill="#C4C4C4"/>
<path d="M17.6543 23.4085L17.9149 23.2282L18.6383 23.6472C18.6383 23.6472 19.0315 24.7939 18.8252 24.8524C18.6188 24.9109 17.6897 25.0723 17.6897 25.0723L17.5302 23.3754L17.6543 23.4085Z" fill="#666666"/>
<path d="M17.7294 25.0954C17.7294 25.0954 11.567 25.2811 11.476 25.0753C11.4355 24.9838 10.4057 22.7947 10.4057 22.7947L11.8203 22.3003L10.4 22.0813L11.0011 19.9838L12.9274 20.1801L13.6658 20.9872L13.6377 20.2525L15.3722 20.7097L16.5328 21.4932L17.1207 22.6906L18.0822 22.1205L18.6742 22.5287L17.7294 25.0954Z" fill="#C4C4C4"/>
<path d="M9.22297 56.9438L9.51206 56.7512L10.3146 57.1988C10.3146 57.1988 10.7508 58.4236 10.5219 58.4861C10.293 58.5486 9.26225 58.7209 9.26225 58.7209L9.08524 56.9084L9.22297 56.9438Z" fill="#666666"/>
<path d="M9.21256 58.7144C9.21256 58.7144 4.81363 58.8815 4.71265 58.6616C4.66775 58.5639 4.02528 57.3193 4.02528 57.3193L4.53214 55.7912L5.39396 55.4323L8.28498 55.686L9.13499 55.679L10.006 56.3955L10.1357 57.2851L9.21256 58.7144Z" fill="#C4C4C4"/>
<path d="M18.4869 48.5299L20.7961 52.7339L21.3101 56.5923H23.2292L21.9196 51.2805L18.4869 48.5299Z" fill="#8CA58C"/>
<path d="M27.1093 49.0794L25.6442 53.2834L25.439 56.9568L24.2438 56.4547L24.8175 52.9929L27.1093 49.0794Z" fill="#8CA58C"/>
<path d="M25.2616 48.4913L24.1392 52.2725L24.191 54.6509L22.7388 55.1794L23.2782 51.4005L25.2616 48.4913Z" fill="#5F8A5F"/>
<path d="M26.0222 53.2986L26.836 55.2035L26.9221 57.3176L26.0353 57.3968L26.1121 55.7849L26.0222 53.2986Z" fill="#8CA58C"/>
<path d="M52.2638 12.1208L49.9893 16.7074L50.0662 19.3701H48.5725L49.3533 15.5014L52.2638 12.1208Z" fill="#5F8A5F"/>
<path d="M46.6944 12.5142L48.0459 16.2942L48.2352 19.597L49.3377 19.1456L48.8085 16.0329L46.6944 12.5142Z" fill="#8CA58C"/>
<path d="M45.2567 13.5312L46.623 16.931L46.5599 19.0695L48.3277 19.5448L47.6711 16.1469L45.2567 13.5312Z" fill="#8CA58C"/>
<path d="M45.373 15.7701L46.263 17.4829L46.3571 19.3838L45.3873 19.455L45.4714 18.0056L45.373 15.7701Z" fill="#8CA58C"/>
<path d="M11.8131 40.7757L11.9644 40.6749L12.2297 41.1964C12.2297 41.1964 12.6126 41.55 12.4928 41.5827C12.3731 41.6154 11.8337 41.7056 11.8337 41.7056L11.7411 40.7572L11.8131 40.7757Z" fill="#373737"/>
<path d="M11.8077 41.7022C11.8077 41.7022 9.50597 41.7896 9.45313 41.6746C9.42963 41.6235 9.09345 40.9722 9.09345 40.9722L9.82273 40.2168L10.5167 40.4268C10.7851 40.3235 10.7564 39.7448 11.3223 40.1176L11.8776 40.3567L12.024 40.7537L12.2907 40.954L11.8077 41.7022Z" fill="#B2B2B2"/>
<path d="M46.0709 61.2868L46.1338 61.3628L46.5979 61.6412C46.5979 61.6412 46.6049 62.0832 46.4855 62.1159C46.3657 62.1486 45.749 62.2443 45.749 62.2443L45.9989 61.2683L46.0709 61.2868Z" fill="#373737"/>
<path d="M46.003 62.2133C46.003 62.2133 45.219 62.4036 44.5919 62.404C44.0724 62.4042 43.6952 62.2187 43.6484 62.1856C42.7322 61.5394 43.2224 61.0193 43.2224 61.0193L43.8633 60.5953L44.4689 60.6506C44.7373 60.5473 44.9517 60.2559 45.5176 60.6287L46.0729 60.8678L46.2192 61.2648L46.486 61.4651L46.003 62.2133Z" fill="#B2B2B2"/>
<path d="M61.4852 5.57697H60.4712V6.58798H61.4852V5.57697Z" fill="#171E1E" fill-opacity="0.404959"/>
<path d="M58.0104 13.3037H56.9964V14.3147H58.0104V13.3037Z" fill="#171E1E" fill-opacity="0.404959"/>
<path d="M42.5858 15.7011H41.5718V16.7121H42.5858V15.7011Z" fill="#C3C3C3"/>
<path d="M41.8504 10.4879H40.8364V11.4989H41.8504V10.4879Z" fill="#939393"/>
<path d="M41.3521 3.10062H40.3381V4.11163H41.3521V3.10062Z" fill="#C3C3C3"/>
<path d="M56.8201 6.67847L57.0806 6.49817L57.804 6.91721C57.804 6.91721 58.1972 8.06382 57.9909 8.12234C57.7846 8.18084 56.8555 8.34219 56.8555 8.34219L56.6959 6.64532L56.8201 6.67847Z" fill="#666666"/>
<path d="M56.8952 8.36536C56.8952 8.36536 51.5921 8.42608 51.5011 8.22028C51.4606 8.12878 50.9692 7.4978 50.9692 7.4978L50.6071 5.29321L50.6751 5.06995L51.12 3.87869L52.0931 3.45007L52.5034 4.0228L52.8034 3.52246L54.5379 3.97964L55.6048 4.40378L56.4895 4.38248L57.2479 5.3905L57.84 5.79868L56.8952 8.36536Z" fill="#C4C4C4"/>
<path d="M12.1656 3.20724L9.89118 7.79376L9.96806 10.4565H8.47434L9.25513 6.5878L12.1656 3.20724Z" fill="#5F8A5F"/>
<path d="M8.85007 3.60052L10.2016 7.38052L10.3909 10.6834L11.4934 10.232L10.9642 7.11926L8.85007 3.60052Z" fill="#8CA58C"/>
<path d="M6.57273 4.66174L7.93906 8.06155L7.87595 10.2001L9.64375 10.6753L8.98713 7.2775L6.57273 4.66174Z" fill="#8CA58C"/>
<path d="M7.04261 6.81232L7.93259 8.52505L8.02668 10.426L7.05692 10.4972L7.14094 9.04782L7.04261 6.81232Z" fill="#8CA58C"/>
<path d="M56.8138 34.7108L58.6969 38.9148L59.1161 42.7732H60.6811L59.6132 37.4615L56.8138 34.7108Z" fill="#8CA58C"/>
<path d="M62.7487 35.4479L61.2836 39.6519L61.0784 43.3252L59.8833 42.8231L60.4569 39.3613L62.7487 35.4479Z" fill="#8CA58C"/>
<path d="M56.5847 36.5061L57.854 40.1497L58.1383 42.5114L59.1945 42.9016L58.321 39.2065L56.5847 36.5061Z" fill="#5F8A5F"/>
<path d="M62.7866 39.0421L61.7352 40.9469L61.624 43.061L62.7696 43.1402L62.6704 41.5283L62.7866 39.0421Z" fill="#8CA58C"/>
<path d="M52.3548 54.9381H51.3408V55.9491H52.3548V54.9381Z" fill="#171E1E" fill-opacity="0.404959"/>
<path d="M57.5423 57.5006H56.5283V58.5116H57.5423V57.5006Z" fill="#939393"/>
<path d="M51.3799 44.9191H50.3659V45.9301H51.3799V44.9191Z" fill="#171E1E" fill-opacity="0.404959"/>
<path d="M59.7218 45.4884H58.7077V46.4994H59.7218V45.4884Z" fill="#C3C3C3"/>
<path d="M34.3834 4.7868L34.5347 4.68604L34.7999 5.20749C34.7999 5.20749 35.1829 5.56107 35.0631 5.59378C34.9433 5.62648 34.4039 5.71667 34.4039 5.71667L34.3114 4.76828L34.3834 4.7868Z" fill="#373737"/>
<path d="M34.378 5.71326C34.378 5.71326 32.0762 5.80067 32.0234 5.68567C31.9999 5.63457 31.6637 4.98331 31.6637 4.98331L32.393 4.22791L33.087 4.43787C33.3554 4.33456 33.3266 3.75592 33.8926 4.1287L34.4479 4.36774L34.5942 4.76477L34.861 4.96506L34.378 5.71326Z" fill="#B2B2B2"/>
<path d="M20.382 8.11951H19.368V9.13052H20.382V8.11951Z" fill="#C3C3C3"/>
<path d="M17.882 3.99451H16.868V5.00552H17.882V3.99451Z" fill="#C3C3C3"/>
<path d="M9.257 15.6195H8.24299V16.6305H9.257V15.6195Z" fill="#C3C3C3"/>
<path d="M14.007 4.49451H12.993V5.50552H14.007V4.49451Z" fill="#C3C3C3"/>
<path d="M54.007 22.9945H52.993V24.0055H54.007V22.9945Z" fill="#C3C3C3"/>
</svg>
