<?xml version="1.0" encoding="UTF-8"?>
<svg xmlns="http://www.w3.org/2000/svg" xmlns:xlink="http://www.w3.org/1999/xlink" width="12" height="12" viewBox="0 0 12 12">
<defs>
<filter id="filter-remove-color" x="0%" y="0%" width="100%" height="100%">
<feColorMatrix color-interpolation-filters="sRGB" values="0 0 0 0 1 0 0 0 0 1 0 0 0 0 1 0 0 0 1 0" />
</filter>
<mask id="mask-0">
<g filter="url(#filter-remove-color)">
<rect x="-1.2" y="-1.2" width="14.4" height="14.4" fill="rgb(0%, 0%, 0%)" fill-opacity="0.809"/>
</g>
</mask>
<clipPath id="clip-0">
<rect x="0" y="0" width="12" height="12"/>
</clipPath>
<g id="source-6" clip-path="url(#clip-0)">
<path fill-rule="nonzero" fill="rgb(92.156863%, 90.588235%, 89.411765%)" fill-opacity="1" d="M 4.546875 0.953125 C 4.394531 0.953125 4.246094 1 4.121094 1.085938 C 4 1.171875 3.90625 1.292969 3.851562 1.4375 L 2.445312 5.273438 C 2.398438 5.398438 2.390625 5.535156 2.414062 5.667969 C 2.441406 5.796875 2.5 5.921875 2.589844 6.019531 L 3.152344 6.644531 C 3.222656 6.71875 3.308594 6.78125 3.402344 6.824219 C 3.496094 6.867188 3.597656 6.886719 3.703125 6.886719 L 4.589844 6.886719 L 4.589844 10.425781 C 4.589844 10.621094 4.667969 10.8125 4.808594 10.949219 C 4.945312 11.085938 5.132812 11.164062 5.328125 11.164062 L 6.050781 11.164062 C 6.246094 11.164062 6.433594 11.085938 6.574219 10.949219 C 6.710938 10.8125 6.789062 10.621094 6.789062 10.425781 L 6.789062 6.886719 L 7.597656 6.886719 C 7.75 6.886719 7.898438 6.839844 8.023438 6.753906 C 8.144531 6.667969 8.242188 6.542969 8.292969 6.402344 L 9.71875 2.484375 C 9.765625 2.355469 9.777344 2.214844 9.746094 2.078125 C 9.71875 1.945312 9.652344 1.820312 9.558594 1.71875 L 9.035156 1.175781 C 8.964844 1.105469 8.882812 1.050781 8.792969 1.011719 C 8.699219 0.972656 8.601562 0.953125 8.503906 0.953125 Z M 4.546875 0.953125 "/>
</g>
</defs>
<g mask="url(#mask-0)">
<use xlink:href="#source-6"/>
</g>
</svg>
