<?xml version="1.0" encoding="UTF-8"?>
<svg xmlns="http://www.w3.org/2000/svg" xmlns:xlink="http://www.w3.org/1999/xlink" width="12" height="12" viewBox="0 0 12 12">
<defs>
<filter id="filter-remove-color" x="0%" y="0%" width="100%" height="100%">
<feColorMatrix color-interpolation-filters="sRGB" values="0 0 0 0 1 0 0 0 0 1 0 0 0 0 1 0 0 0 1 0" />
</filter>
<mask id="mask-0">
<g filter="url(#filter-remove-color)">
<rect x="-1.2" y="-1.2" width="14.4" height="14.4" fill="rgb(0%, 0%, 0%)" fill-opacity="0.85"/>
</g>
</mask>
<clipPath id="clip-0">
<rect x="0" y="0" width="12" height="12"/>
</clipPath>
<g id="source-6" clip-path="url(#clip-0)">
<path fill-rule="nonzero" fill="rgb(27.058824%, 67.058824%, 91.372549%)" fill-opacity="1" d="M 9.75 3.582031 L 6 1.195312 L 2.25 3.582031 L 2.25 7.875 C 2.25 8.910156 3.089844 9.75 4.125 9.75 L 7.875 9.75 C 8.910156 9.75 9.75 8.910156 9.75 7.875 Z M 9.75 3.582031 "/>
</g>
<mask id="mask-1">
<g filter="url(#filter-remove-color)">
<rect x="-1.2" y="-1.2" width="14.4" height="14.4" fill="rgb(0%, 0%, 0%)" fill-opacity="0.55"/>
</g>
</mask>
<clipPath id="clip-1">
<rect x="0" y="0" width="12" height="12"/>
</clipPath>
<g id="source-10" clip-path="url(#clip-1)">
<path fill-rule="evenodd" fill="rgb(100%, 100%, 100%)" fill-opacity="1" d="M 10.125 3 L 6 0.375 L 1.875 3 L 1.875 7.875 C 1.875 9.117188 2.882812 10.125 4.125 10.125 L 7.875 10.125 C 9.117188 10.125 10.125 9.117188 10.125 7.875 Z M 6 1.195312 L 9.75 3.582031 L 9.75 7.875 C 9.75 8.910156 8.910156 9.75 7.875 9.75 L 4.125 9.75 C 3.089844 9.75 2.25 8.910156 2.25 7.875 L 2.25 3.582031 Z M 6 1.195312 "/>
</g>
</defs>
<g mask="url(#mask-0)">
<use xlink:href="#source-6"/>
</g>
<g mask="url(#mask-1)">
<use xlink:href="#source-10"/>
</g>
<path fill-rule="evenodd" fill="rgb(3.529412%, 58.039216%, 100%)" fill-opacity="1" d="M 6 0.300781 L 10.515625 3.25 L 10.109375 3.875 L 6 1.199219 L 1.890625 3.875 L 1.484375 3.25 Z M 6 0.300781 "/>
</svg>
