<svg width="16" height="16" viewBox="0 0 16 16" fill="none" xmlns="http://www.w3.org/2000/svg">
<path opacity="0.802" d="M4.08769 1.06363C4.07307 1.06646 4.05856 1.06981 4.04417 1.07368C3.88544 1.11882 3.74528 1.20258 3.63074 1.3214L2.20966 2.63703C2.20685 2.63924 2.20406 2.64147 2.20128 2.64372C1.77011 3.05848 1.80647 3.6884 2.2833 4.04974L5.93392 7.15469C5.93205 7.16938 5.93076 7.17861 5.9289 7.19319L2.2833 10.2831C1.80647 10.6444 1.77011 11.2743 2.20128 11.6891C2.20406 11.6913 2.20685 11.6936 2.20966 11.6958L3.62906 13.0097C4.04382 13.4409 4.67374 13.4045 5.03508 12.9277C5.03734 12.9244 5.03957 12.921 5.04177 12.9177L5.18572 12.7202C5.1841 12.7339 5.18062 12.7568 5.17903 12.7704C5.13985 13.1033 5.11062 13.379 5.09366 13.5805C5.08519 13.6812 5.07964 13.7593 5.0786 13.8383C5.07808 13.8778 5.07522 13.9099 5.08697 13.9906C5.09284 14.0309 5.08528 14.078 5.16062 14.2149C5.17946 14.2491 5.24896 14.3367 5.24933 14.3371C5.24971 14.3375 5.43807 14.4792 5.43848 14.4794C5.43888 14.4795 5.73598 14.5413 5.73642 14.5413C5.73686 14.5413 5.98702 14.4796 5.98749 14.4794C5.82806 14.5567 5.83811 14.531 5.83015 14.5296C5.85506 14.5279 5.90624 14.5261 5.97075 14.5245C6.09978 14.5213 6.28818 14.5198 6.5114 14.5194C6.95783 14.5189 7.54649 14.523 8.13334 14.5261C8.72019 14.5293 9.30446 14.5324 9.75026 14.5278C9.97315 14.5255 10.1609 14.5216 10.306 14.5145C10.3785 14.5109 10.4375 14.5061 10.5035 14.4977C10.5365 14.4935 10.569 14.491 10.6307 14.4743C10.6616 14.4659 10.6984 14.4566 10.7696 14.4191C10.8052 14.4003 10.9078 14.321 10.9085 14.3203C10.9089 14.3199 11.002 14.2102 11.0023 14.2098C11.0025 14.2095 11.0859 14.0277 11.086 14.0274C11.1097 13.9401 11.1143 13.8488 11.0994 13.7596L10.9738 13.0013C11.343 13.3538 11.8717 13.3988 12.2459 13.0097L13.6654 11.6958C13.6682 11.6936 13.671 11.6913 13.6737 11.6891C14.1049 11.2743 14.0686 10.6444 13.5917 10.2831L13.6202 10.3048L9.993 7.21494L9.97794 7.1212L13.5917 4.04973C14.0686 3.68839 14.1049 3.05846 13.6737 2.64371C13.671 2.64146 13.6682 2.63922 13.6653 2.63702L12.2426 1.31973C11.9998 1.06965 11.6698 0.97981 11.3337 1.072C11.3196 1.07597 11.3056 1.08044 11.2918 1.08539C11.0789 1.16041 10.9069 1.30284 10.7947 1.49883L10.8349 1.43857L8.30741 4.86322L8.25887 4.83477C8.16174 4.77668 8.05068 4.746 7.9375 4.746C7.82432 4.746 7.71326 4.77668 7.61612 4.83477L7.56758 4.86322L5.05517 1.45866L5.05349 1.45698C4.99177 1.36626 4.91322 1.29129 4.82418 1.22767C4.60789 1.06814 4.35129 1.00869 4.08769 1.06363Z" fill="#EBE7E4"/>
</svg>
