<?xml version="1.0" encoding="UTF-8"?>
<svg xmlns="http://www.w3.org/2000/svg" xmlns:xlink="http://www.w3.org/1999/xlink" width="12" height="12" viewBox="0 0 12 12">
<defs>
<filter id="filter-remove-color" x="0%" y="0%" width="100%" height="100%">
<feColorMatrix color-interpolation-filters="sRGB" values="0 0 0 0 1 0 0 0 0 1 0 0 0 0 1 0 0 0 1 0" />
</filter>
<mask id="mask-0">
<g filter="url(#filter-remove-color)">
<rect x="-1.2" y="-1.2" width="14.4" height="14.4" fill="rgb(0%, 0%, 0%)" fill-opacity="0.8"/>
</g>
</mask>
<clipPath id="clip-0">
<rect x="0" y="0" width="12" height="12"/>
</clipPath>
<g id="source-8" clip-path="url(#clip-0)">
<path fill-rule="nonzero" fill="rgb(100%, 100%, 100%)" fill-opacity="1" d="M 0.546875 3.273438 C 0.546875 1.765625 1.765625 0.546875 3.273438 0.546875 L 8.726562 0.546875 C 10.234375 0.546875 11.453125 1.765625 11.453125 3.273438 L 11.453125 8.726562 C 11.453125 10.234375 10.234375 11.453125 8.726562 11.453125 L 3.273438 11.453125 C 1.765625 11.453125 0.546875 10.234375 0.546875 8.726562 Z M 0.546875 3.273438 "/>
</g>
</defs>
<path fill-rule="evenodd" fill="rgb(100%, 56.470588%, 60.784314%)" fill-opacity="1" d="M 3.273438 0 C 1.464844 0 0 1.464844 0 3.273438 L 0 8.726562 C 0 10.535156 1.464844 12 3.273438 12 L 8.726562 12 C 10.535156 12 12 10.535156 12 8.726562 L 12 3.273438 C 12 1.464844 10.535156 0 8.726562 0 Z M 3.273438 0.546875 C 1.765625 0.546875 0.546875 1.765625 0.546875 3.273438 L 0.546875 8.726562 C 0.546875 10.234375 1.765625 11.453125 3.273438 11.453125 L 8.726562 11.453125 C 10.234375 11.453125 11.453125 10.234375 11.453125 8.726562 L 11.453125 3.273438 C 11.453125 1.765625 10.234375 0.546875 8.726562 0.546875 Z M 3.273438 0.546875 "/>
<g mask="url(#mask-0)">
<use xlink:href="#source-8"/>
</g>
</svg>
