<?xml version="1.0" encoding="UTF-8"?>
<svg xmlns="http://www.w3.org/2000/svg" xmlns:xlink="http://www.w3.org/1999/xlink" width="12" height="12" viewBox="0 0 12 12">
<path fill-rule="nonzero" fill="rgb(100%, 100%, 100%)" fill-opacity="1" d="M 4.203125 0.882812 C 3.429688 0.90625 2.59375 1.175781 1.644531 1.738281 C 1.3125 1.933594 1.199219 2.375 1.394531 2.707031 L 1.746094 3.300781 C 1.746094 3.300781 1.746094 3.300781 1.746094 3.304688 C 1.941406 3.628906 2.386719 3.742188 2.714844 3.542969 L 2.710938 3.546875 C 3.558594 3.042969 4.042969 2.960938 4.402344 2.984375 C 4.753906 3.003906 5.0625 3.148438 5.523438 3.398438 C 5.542969 3.40625 5.578125 3.417969 5.597656 3.425781 C 5.34375 3.667969 5.167969 3.980469 5.179688 4.332031 C 5.191406 4.558594 5.335938 4.742188 5.46875 4.929688 C 5.0625 5.148438 4.730469 5.515625 4.75 5.980469 C 4.761719 6.214844 4.910156 6.398438 5.046875 6.585938 C 4.636719 6.804688 4.304688 7.171875 4.324219 7.640625 C 4.328125 7.699219 4.390625 7.734375 4.402344 7.792969 C 4.335938 7.789062 4.269531 7.789062 4.203125 7.789062 C 3.429688 7.8125 2.59375 8.082031 1.644531 8.644531 C 1.3125 8.839844 1.199219 9.28125 1.394531 9.613281 L 1.746094 10.207031 C 1.746094 10.207031 1.746094 10.207031 1.746094 10.210938 C 1.941406 10.535156 2.386719 10.648438 2.714844 10.449219 L 2.710938 10.453125 C 3.558594 9.949219 4.042969 9.867188 4.402344 9.890625 C 4.753906 9.910156 5.0625 10.054688 5.523438 10.304688 C 5.980469 10.550781 6.59375 10.914062 7.414062 11.042969 C 8.242188 11.167969 9.207031 11.023438 10.308594 10.496094 C 10.652344 10.328125 10.804688 9.898438 10.640625 9.554688 C 10.636719 9.554688 10.636719 9.554688 10.636719 9.554688 L 10.335938 8.933594 C 10.171875 8.589844 9.742188 8.4375 9.398438 8.601562 C 8.570312 9 8.121094 9.027344 7.738281 8.96875 C 7.367188 8.910156 7.007812 8.722656 6.519531 8.457031 C 6.492188 8.441406 6.449219 8.425781 6.417969 8.410156 C 6.640625 8.171875 6.78125 7.863281 6.765625 7.539062 C 6.757812 7.304688 6.609375 7.117188 6.472656 6.933594 C 6.878906 6.714844 7.210938 6.347656 7.191406 5.878906 C 7.183594 5.652344 7.035156 5.46875 6.902344 5.28125 C 7.308594 5.0625 7.640625 4.699219 7.621094 4.230469 C 7.621094 4.195312 7.578125 4.171875 7.574219 4.132812 C 8.367188 4.222656 9.269531 4.085938 10.308594 3.589844 C 10.652344 3.421875 10.804688 2.992188 10.640625 2.648438 C 10.636719 2.648438 10.636719 2.648438 10.636719 2.648438 L 10.335938 2.027344 C 10.171875 1.683594 9.742188 1.53125 9.398438 1.695312 C 8.570312 2.09375 8.121094 2.121094 7.738281 2.0625 C 7.367188 2.003906 7.007812 1.816406 6.519531 1.550781 C 6.03125 1.289062 5.378906 0.941406 4.527344 0.886719 C 4.417969 0.882812 4.308594 0.878906 4.203125 0.882812 Z M 4.203125 0.882812 "/>
</svg>
