<svg width="25" height="21" viewBox="0 0 25 21" fill="none" xmlns="http://www.w3.org/2000/svg">
<g clip-path="url(#clip0)">
<path opacity="0.837" fill-rule="evenodd" clip-rule="evenodd" d="M4.43443 0.686653C4.18679 0.687522 3.94799 0.791734 3.76309 0.979622L0.356737 4.43275C0.251793 4.53914 0.167374 4.66924 0.108828 4.81479C0.0502823 4.96035 0.0188876 5.11819 0.0166334 5.2783C0.0143793 5.43842 0.0413149 5.59732 0.0957332 5.74495C0.150151 5.89257 0.230866 6.02569 0.332761 6.13587C1.01598 6.8724 1.34662 7.66529 1.34662 8.48939C1.34662 9.08273 1.17781 9.64724 0.827701 10.2042C0.331178 10.9946 0.0159302 11.9432 0.0159302 12.9542C0.0159301 14.751 0.979851 16.2955 2.32451 17.3156C3.66917 18.3356 5.43444 18.9171 7.3664 18.9171H8.36142C9.83195 18.9171 11.1199 19.4522 11.8722 20.1554C12.0534 20.3246 12.2803 20.417 12.5145 20.417C12.7486 20.417 12.9755 20.3246 13.1567 20.1554C13.909 19.4522 15.197 18.9171 16.6675 18.9171H17.6625C19.5945 18.9171 21.3598 18.3356 22.7044 17.3156C24.0491 16.2955 25.013 14.751 25.013 12.9542C25.013 11.9432 24.6977 10.9945 24.2012 10.2042C23.8511 9.64727 23.6823 9.08277 23.6823 8.48939C23.6823 7.66527 24.0129 6.87239 24.6962 6.13587C24.7981 6.02569 24.8788 5.89257 24.9332 5.74495C24.9876 5.59732 25.0146 5.43842 25.0123 5.2783C25.01 5.11819 24.9786 4.96035 24.9201 4.8148C24.8616 4.66924 24.7771 4.53914 24.6722 4.43275L21.2658 0.979622C21.1195 0.831258 20.9386 0.734414 20.745 0.700794C20.5514 0.667173 20.3534 0.698216 20.1749 0.790169C18.5696 1.61891 16.5429 2.72363 12.7251 2.67103C8.88653 2.61814 6.43048 1.54517 4.83004 0.776497C4.70478 0.716631 4.57025 0.686078 4.43443 0.686653V0.686653Z" fill="#F1EAE4"/>
<path fill-rule="evenodd" clip-rule="evenodd" d="M20.5929 1.8429L23.9986 5.29664C23.1606 6.20004 22.6685 7.30143 22.6685 8.4899C22.6685 9.34473 22.923 10.1545 23.3778 10.8779C23.7707 11.5033 23.9986 12.216 23.9986 12.9549C23.9986 15.6088 21.1619 17.7602 17.6625 17.7602H16.668C14.9912 17.7602 13.4946 18.3457 12.5145 19.2618C11.5343 18.3457 10.0378 17.7602 8.36089 17.7602H7.36637C3.86699 17.7602 1.03027 15.6088 1.03027 12.9549C1.03027 12.216 1.25823 11.5033 1.65116 10.8779C2.10587 10.1545 2.36041 9.34473 2.36041 8.4899C2.36041 7.30143 1.86831 6.20004 1.03029 5.29664L4.43606 1.8429C6.07159 2.62842 8.71004 3.77212 12.7125 3.82726C16.715 3.88241 18.9982 2.66612 20.5929 1.8429Z" fill="#DD6A6A"/>
</g>
<defs>
<clipPath id="clip0">
<path d="M0 0H25V21H0V0Z" fill="white"/>
</clipPath>
</defs>
</svg>
