<svg width="32" height="32" viewBox="0 0 32 32" fill="none" xmlns="http://www.w3.org/2000/svg">
<g clip-path="url(#clip0)">
<path d="M12.7537 9.31424C12.1772 9.45645 11.3885 9.1765 10.9699 9.70822C10.8283 10.3409 11.4955 11.0234 12.1352 10.8234C12.7956 10.8441 13.5784 11.0875 14.1435 10.6277C14.0611 10.0178 13.4182 9.69357 12.9734 9.35727C12.9033 9.32967 12.8301 9.30555 12.7538 9.31415L12.7537 9.31424Z" stroke="white" stroke-opacity="0.439216" stroke-width="0.664796" stroke-linecap="round" stroke-linejoin="round"/>
<path d="M15.3808 23.3128C14.8044 23.455 14.0156 23.175 13.597 23.7068C13.4554 24.3394 14.1226 25.0219 14.7623 24.8219C15.4227 24.8426 16.2054 25.086 16.7705 24.6262C16.6881 24.0163 16.0453 23.6921 15.6005 23.3558C15.5304 23.3282 15.4572 23.3041 15.3809 23.3127L15.3808 23.3128Z" stroke="white" stroke-opacity="0.439216" stroke-width="0.664796" stroke-linecap="round" stroke-linejoin="round"/>
<path d="M23.96 19.047C23.4293 19.1744 22.7631 18.9126 22.3386 19.3501C22.2557 19.9355 22.8869 20.4241 23.437 20.2432C24.0143 20.2605 24.7051 20.4817 25.1993 20.1189C25.0195 19.5985 24.475 19.2839 24.0269 19.0371C24.0028 19.0379 23.9827 19.0164 23.9599 19.0479L23.96 19.047Z" stroke="white" stroke-opacity="0.439216" stroke-width="0.664796" stroke-linecap="round" stroke-linejoin="round"/>
<path d="M12.8448 18.3974C12.6325 18.3732 12.5773 18.5331 12.7708 18.6145C13.1687 18.784 13.621 18.5869 14.0364 18.7219C14.3668 18.8051 14.1897 18.6376 14.0157 18.5358C13.6753 18.291 13.2381 18.46 12.8432 18.3972L12.8448 18.3974Z" stroke="white" stroke-opacity="0.439216" stroke-width="0.664796" stroke-linecap="round" stroke-linejoin="round"/>
<path d="M26.1336 26.7647C25.451 26.8803 24.4873 26.6398 24.0847 27.3736C23.8413 28.2222 24.7617 29.1226 25.6082 28.8899C26.3348 28.9463 27.3248 29.1696 27.8141 28.4702C27.8708 27.6419 27.0071 27.1691 26.401 26.7957C26.3147 26.7716 26.2236 26.7571 26.1335 26.7647L26.1336 26.7647Z" stroke="white" stroke-opacity="0.439216" stroke-width="0.664796" stroke-linecap="round" stroke-linejoin="round"/>
<path d="M18.8703 30.6711C18.658 30.647 18.6027 30.8068 18.7965 30.8883C19.1944 31.0574 19.6467 30.8607 20.0621 30.9956C20.3925 31.0788 20.2154 30.9113 20.0414 30.8095C19.701 30.5647 19.2638 30.7343 18.8689 30.671L18.8703 30.6711Z" stroke="white" stroke-opacity="0.439216" stroke-width="0.664796" stroke-linecap="round" stroke-linejoin="round"/>
<path d="M7.56754 21.5256C7.17122 21.6192 6.64065 21.3895 6.32581 21.683C6.41321 22.1205 6.94375 22.1829 7.30484 22.0937C7.65653 22.0967 8.1719 22.265 8.43912 22.1045C8.22126 21.848 7.90682 21.5709 7.56754 21.5242V21.5256Z" stroke="white" stroke-opacity="0.439216" stroke-width="0.664796" stroke-linecap="round" stroke-linejoin="round"/>
<path d="M5.73123 27.5383C5.20054 27.6657 4.53432 27.404 4.10983 27.8415C4.02693 28.4269 4.65812 28.9154 5.20825 28.7346C5.78549 28.7519 6.47628 28.9731 6.97055 28.6103C6.79066 28.0898 6.24623 27.7753 5.79809 27.5285C5.77399 27.5293 5.75391 27.5078 5.73111 27.5393L5.73123 27.5383Z" stroke="white" stroke-opacity="0.439216" stroke-width="0.664796" stroke-linecap="round" stroke-linejoin="round"/>
<path d="M2.93127 7.18263C2.24866 7.29829 1.28501 7.05772 0.882444 7.79155C0.639034 8.64019 1.5594 9.54062 2.40591 9.30788C3.13252 9.36428 4.12248 9.58756 4.61181 8.8882C4.66851 8.0599 3.80479 7.5871 3.19873 7.2137C3.11243 7.1896 3.02126 7.17509 2.93115 7.18269L2.93127 7.18263Z" stroke="white" stroke-opacity="0.439216" stroke-width="0.664796" stroke-linecap="round" stroke-linejoin="round"/>
<path d="M29.3113 15.6323C28.915 15.7259 28.3844 15.4962 28.0696 15.79C28.157 16.2275 28.6876 16.2899 29.0486 16.2007C29.4003 16.2037 29.9157 16.372 30.1829 16.2115C29.9651 15.955 29.6506 15.6779 29.3113 15.6313V15.6323Z" stroke="white" stroke-opacity="0.439216" stroke-width="0.664796" stroke-linecap="round" stroke-linejoin="round"/>
<path d="M18.0748 1.59056C17.3922 1.70621 16.4285 1.46565 16.0259 2.19948C15.7825 3.04813 16.7029 3.94855 17.5494 3.7158C18.276 3.7722 19.266 3.99549 19.7553 3.29613C19.812 2.4678 18.9483 1.995 18.3422 1.6216C18.2559 1.5975 18.1648 1.58299 18.0746 1.59059L18.0748 1.59056Z" stroke="white" stroke-opacity="0.439216" stroke-width="0.664796" stroke-linecap="round" stroke-linejoin="round"/>
<path d="M27.4957 6.63642C27.2834 6.61232 27.2281 6.77213 27.4219 6.85358C27.8198 7.02276 28.2721 6.82596 28.6875 6.96088C29.0179 7.04408 28.8409 6.8767 28.6668 6.77482C28.3264 6.53003 27.8892 6.69911 27.4943 6.6363L27.4957 6.63642Z" stroke="white" stroke-opacity="0.439216" stroke-width="0.664796" stroke-linecap="round" stroke-linejoin="round"/>
<path d="M7.31979 4.29688C6.92348 4.39047 6.39291 4.16085 6.07806 4.45432C6.16546 4.89175 6.69602 4.95415 7.05713 4.86499C7.40881 4.86799 7.92415 5.03625 8.19138 4.87579C7.97352 4.61927 7.65908 4.34216 7.31979 4.29553V4.29688Z" stroke="white" stroke-opacity="0.439216" stroke-width="0.664796" stroke-linecap="round" stroke-linejoin="round"/>
<path d="M21.7299 13.7391C21.5176 13.715 21.4623 13.8749 21.6561 13.9563C22.054 14.1255 22.5062 13.9287 22.9217 14.0636C23.2521 14.1468 23.075 13.9794 22.901 13.8775C22.5606 13.6327 22.1234 13.8019 21.7285 13.7391L21.7299 13.7391Z" stroke="white" stroke-opacity="0.439216" stroke-width="0.664796" stroke-linecap="round" stroke-linejoin="round"/>
<path d="M3.05176e-05 16L16 0" stroke="#FE9FBF" stroke-opacity="0.497959" stroke-linecap="square"/>
<path d="M16 32L32 16" stroke="#FE9FBF" stroke-opacity="0.497959" stroke-linecap="square"/>
<path d="M0 32L32 0" stroke="#FE9FBF" stroke-opacity="0.497959" stroke-linecap="square"/>
<path d="M31.6469 32.0669L32.0329 31.6809" stroke="#FE9FBF" stroke-opacity="0.497959" stroke-linecap="square"/>
<path d="M-0.0695801 0.36734L0.316376 -0.0186157" stroke="#FE9FBF" stroke-opacity="0.497959" stroke-linecap="square"/>
</g>
<defs>
<clipPath id="clip0">
<path d="M0 0H32V32H0V0Z" fill="white"/>
</clipPath>
</defs>
</svg>
