<svg width="16" height="16" viewBox="0 0 16 16" fill="none" xmlns="http://www.w3.org/2000/svg">
<g clip-path="url(#clip0)">
<path d="M10.2832 -0.201174C9.93348 -0.190128 9.62957 0.0423143 9.52735 0.376951C9.08261 1.84015 8.30596 2.60676 7.46485 3.29101C6.62373 3.97527 5.62349 4.51685 5.16016 5.67187C4.72167 6.76497 5.07084 7.80974 5.54493 8.44726C5.69803 8.65315 5.8579 8.78048 6.01758 8.92578C5.66356 9.02362 5.41828 9.34559 5.41797 9.71289V14.4609C5.39617 15.1144 5.96962 15.7298 6.62305 15.752C7.27648 15.7741 7.89152 15.1983 7.91407 14.5449L7.79297 14.9453L8.00196 14.6055L8.21289 14.9492L8.09571 14.5977C8.15615 15.2237 8.75424 15.7494 9.38282 15.7266C10.0114 15.7038 10.571 15.1366 10.5859 14.5078C10.586 14.5013 10.586 14.4948 10.5859 14.4883V9.71289C10.586 9.38715 10.3926 9.09247 10.0938 8.96289C11.2342 8.24261 12.1081 7.05521 12.5273 5.70508C13.1143 3.81489 12.7456 1.4991 10.8145 -0.0253926C10.6636 -0.144669 10.4755 -0.206913 10.2832 -0.201174V-0.201174Z" fill="#FEFEFE"/>
</g>
<defs>
<clipPath id="clip0">
<path d="M0 0H16V16H0V0Z" fill="white"/>
</clipPath>
</defs>
</svg>
