<svg width="16" height="16" fill="none" version="1.1" viewBox="0 0 16 16" xmlns="http://www.w3.org/2000/svg">
 <path d="m2.7524 1.4793c-0.144-0.011595-0.29712-0.011812-0.49362 0.043333-0.19651 0.055145-0.4822 0.19018-0.6613 0.51058-0.24631 0.44065-0.12301 0.59599-0.097971 0.71217 0.025039 0.11618 0.053671 0.19133 0.084783 0.26565 0.062222 0.14865 0.13639 0.28225 0.22797 0.42203 0.034628 0.052852 0.17959 0.39989 0.18464 0.42203 0.092942 0.40811 0.42324 0.90904 0.75927 1.1549 0.071716 0.052478 0.13975 0.094875 0.20913 0.13942 0.01621 0.076242 0.00807 0.11574 0.073478 0.24493 0.00839 0.016575 0.033403 0.02122 0.043334 0.037682-0.00609 0.010387-0.00897 3.891e-4 -0.015073 0.011305-0.13447 0.2406-0.11599 0.31064-0.12812 0.39188-0.012121 0.081242-0.017364 0.14851-0.020724 0.21667-0.00672 0.13631-0.00563 0.27326 0 0.41261 0.00563 0.13935 0.015814 0.27597 0.033913 0.41072 0.00905 0.067378 0.018276 0.13147 0.039566 0.21667 0.02122 0.084925-0.029453 0.16504 0.23739 0.46159 0.29594 0.32816 0.38082 0.26105 0.45217 0.28261 0.071349 0.021554 0.11414 0.029768 0.15826 0.037682 0.088238 0.015827 0.16854 0.025285 0.25812 0.033913 0.020145 0.00194 0.048748 0.00196 0.069711 0.00377-0.00532 0.017296-0.022162 0.018003-0.026377 0.035797-0.079277 0.33467 0.00765 0.5349 0.050869 0.65377 0.04322 0.11886 0.080277 0.19429 0.12246 0.28449-0.035404-0.075695 0.039421 0.20261 0.028261 2.1045-0.00434 0.74067-0.00127 1.3216 0.011305 1.7465 0.00629 0.21247 0.013785 0.38438 0.026377 0.5313 0.012591 0.14692-0.066858 0.14743 0.12623 0.54638 0.31283 0.6463 0.81857 0.70001 1.2001 0.71217 0.19079 0.0061 0.38292-0.01332 0.60101-0.09797 0.2181-0.08466 0.49905-0.25746 0.65942-0.60101 0.10503-0.22497 0.075586-0.23334 0.082898-0.27884 0.00731-0.0455 0.011359-0.08015 0.015072-0.11681 0.00743-0.07332 0.013022-0.15178 0.01884-0.24681 0.011637-0.19007 0.023273-0.44035 0.033913-0.74043 0.02128-0.60016 0.039083-1.3975 0.050869-2.2571 0.011691-0.8515 0.025133-1.6292 0.037682-2.193 5.333e-4 -0.023962 0.00135-0.033336 0.00188-0.056522 0.27958-0.0075 0.56236-0.015065 0.91942-0.020724l0.81391-0.013189c-1.593e-4 0.00133 1.597e-4 0.00435 0 0.00565-0.00489 0.039682-0.012471 0.067168-0.00942 0.054638 5.721e-4 -0.00235 0.036613-0.055796 0.033913-0.06029h0.04334c-0.075436 0.14965-0.17559 0.29419-0.18087 0.44652-0.008354 0.24104 0.055352 0.42679 0.12246 0.57087-0.13461-0.28895-0.06421-0.20727-0.062174-0.19217 0.00204 0.015097 0.00631 0.05998 0.011305 0.1187 0.00998 0.11743 0.020948 0.29668 0.032029 0.51246 0.022162 0.43156 0.044225 1.0151 0.058406 1.6372 0.016609 0.72869 0.037582 1.3196 0.062174 1.7503 0.012296 0.21534 0.025307 0.38926 0.04145 0.53507 0.00807 0.07291 0.015234 0.13617 0.030145 0.2129 0.014911 0.07673-0.073283 0.09721 0.19029 0.4484 0.27518 0.3666 0.53404 0.40091 0.72725 0.44464 0.19321 0.04373 0.36224 0.05226 0.53319 0.04521 0.17095-7e-3 0.33848-0.02787 0.5313-0.09044 0.19282-0.06257 0.48207-0.12569 0.71029-0.57652 0.13992-0.27642 0.0998-0.3008 0.10928-0.37304 0.0095-0.07224 0.01443-0.1363 0.01884-0.20913 0.0088-0.14565 0.01239-0.31956 0.01508-0.53319 0.0053-0.42726 9.57e-4 -1.0051-0.01319-1.7013l-0.03768-1.8991 0.01508-0.01884c0.07974-0.10477 0.16019-0.21132 0.23928-0.39377 0.07855-0.18122 0.14894-0.51419 0.03203-0.83464 0.04694-0.00559 0.0933-0.00802 0.14319-0.016956 0.04499-0.00806 0.09094-0.016391 0.1658-0.039566 0.07487-0.023173 0.17568 0.056661 0.47855-0.32029 0.31459-0.39166 0.23035-0.48207 0.25623-0.63304s0.04031-0.29908 0.0471-0.44841c0.0068-0.14932 0.0062-0.294-0.0075-0.44841-0.0068-0.077204-0.0143-0.15434-0.04145-0.26188-0.01793-0.071024-0.12535-0.2213-0.21101-0.3542 0.0057-0.010908 0.01724-0.017416 0.02261-0.028261 0.0011-6.335e-4 0.0046-0.00126 0.0057-0.00188 0.1023-0.062257 0.17058-0.11897 0.23739-0.1771 0.13361-0.11625 0.24886-0.23838 0.35986-0.36928 0.111-0.1309 0.21378-0.26534 0.3071-0.41449 0.09332-0.14915 0.23928-0.19936 0.23928-0.72348 0 0.27995 0.03085-0.016573 0.04145-0.035797 0.11552-0.20948 0.20685-0.40429 0.25812-0.66319 0.05127-0.25889 0.06019-0.72238-0.30522-1.0739-0.36498-0.35101-0.79519-0.32663-1.0476-0.27883-0.25245 0.047794-0.44833 0.13473-0.6613 0.24493-0.14544 0.07525-0.6103 0.23115-0.72159 0.25058-0.30662 0.053539-0.67996 0.13156-0.93072 0.19783 0.12372-0.032692-0.01372-5.501e-4 -0.14884 0.011305-0.13512 0.011854-0.3242 0.025761-0.54449 0.037682-0.44059 0.023839-1.0115 0.04507-1.5939 0.056521-1.7676 0.034756-2.1976 0.018939-2.8845-0.094203-0.50181-0.082655-0.97837-0.15839-1.1964-0.18464-0.094789-0.011413-0.81076-0.24767-0.90812-0.30333-0.26034-0.14885-0.51462-0.22927-0.80261-0.25246zm10.5 3.4968c0.0026-0.010944 0.01237-0.025474-0.0095 0.016956-0.01089 0.021215-0.02415 0.057066-0.09421 0.13565-0.0014 0.00155-0.01174 0.00399-0.01319 0.00565 0.02187-0.056162 0.10539-0.10952 0.11681-0.15826z" fill="#ffffff" stroke-width=".022909"/>
</svg>
