<svg width="16" height="16" viewBox="0 0 16 16" fill="none" xmlns="http://www.w3.org/2000/svg">
<path opacity="0.812" d="M8 1.29868C4.33056 1.29868 1.32991 4.29932 1.32991 7.96876C1.32991 11.6382 4.33056 14.6389 8 14.6389C11.6694 14.6389 14.6701 11.6382 14.6701 7.96876C14.6701 4.29932 11.6694 1.29868 8 1.29868ZM11.3049 5.51938C11.815 6.21343 12.1788 7.02528 12.1788 7.96876C12.1788 9.31071 11.4866 10.4173 10.5197 11.1816L8.49557 9.2847C8.34787 9.14637 8.15344 9.06884 7.95108 9.0676C7.74873 9.06636 7.55335 9.14149 7.40398 9.278L5.39324 11.1213C4.47789 10.3545 3.82115 9.27054 3.82115 7.96876C3.82115 7.0277 4.19343 6.21786 4.71183 5.52273L7.42909 8.02401C7.57621 8.1595 7.76857 8.23527 7.96857 8.23651C8.16857 8.23774 8.36185 8.16436 8.51063 8.03071L11.3049 5.51938Z" fill="#EBE7E4"/>
</svg>
