<svg width="16" height="16" viewBox="0 0 16 16" fill="none" xmlns="http://www.w3.org/2000/svg">
<path opacity="0.812" d="M6.13828 3.2072C6.14671 3.20688 6.04953 3.23483 6.05792 3.23399C6.06211 3.23357 6.03075 3.23052 6.00434 3.23399C5.98649 3.23351 5.96862 3.23351 5.95077 3.23399C5.91508 3.23208 5.8793 3.23208 5.84362 3.23399C5.85356 3.23178 5.72672 3.29051 5.73647 3.28756C5.74622 3.28462 5.59302 3.31801 5.60253 3.31435C5.61204 3.31069 5.48617 3.37228 5.49538 3.36793C5.50459 3.36357 5.37937 3.42653 5.38823 3.4215C5.39709 3.41647 5.29941 3.48075 5.30787 3.47508C5.31633 3.46941 5.1927 3.56173 5.20072 3.55544C5.20874 3.54915 5.11283 3.64267 5.12036 3.6358C5.12789 3.62893 5.033 3.72357 5.03999 3.71616C5.04698 3.70875 4.95321 3.80443 4.95963 3.79653C4.96605 3.78863 4.87345 3.91204 4.87927 3.90368C4.88509 3.89532 4.82051 3.99281 4.82569 3.98404C4.83087 3.97527 4.74082 4.10032 4.74533 4.09119C4.74985 4.08206 4.71472 4.20778 4.71854 4.19834C4.72236 4.1889 4.66186 4.31519 4.66497 4.30549C4.66808 4.29579 4.6358 4.44933 4.63818 4.43943C4.64 4.43185 4.61811 4.48723 4.61139 4.51979C4.60932 4.52981 4.61101 4.54894 4.61139 4.54658L4.34352 5.96631H4.18279C4.18006 5.95585 4.18187 5.93638 4.18279 5.93953C4.18588 5.95003 4.15234 5.87564 4.156 5.88595C4.15967 5.89627 4.12498 5.7955 4.12922 5.80559C4.13346 5.81568 4.09763 5.71539 4.10243 5.72523C4.10722 5.73507 4.0703 5.63531 4.07564 5.64487C4.08097 5.65443 4.0162 5.58204 4.02206 5.59129C4.02792 5.60053 3.98891 5.50202 3.99528 5.51093C4.00165 5.51983 3.93485 5.44882 3.9417 5.45735C3.94856 5.46589 3.88081 5.39564 3.88813 5.40378C3.89545 5.41191 3.82679 5.34249 3.83455 5.3502C3.84232 5.35791 3.7728 5.28936 3.78098 5.29663C3.78916 5.3039 3.69204 5.23625 3.70061 5.24305C3.70918 5.24986 3.6381 5.18316 3.64704 5.18948C3.65598 5.1958 3.58419 5.1301 3.59346 5.1359C3.60274 5.14171 3.50351 5.10384 3.5131 5.10912C3.52269 5.1144 3.42287 5.07759 3.43274 5.08233C3.44261 5.08707 3.36905 5.02457 3.37916 5.02875C3.38928 5.03293 3.28847 4.99836 3.2988 5.00196C3.30914 5.00557 3.20792 4.97215 3.21844 4.97518C3.22896 4.97821 3.1274 4.97275 3.13808 4.97518C3.14875 4.97761 3.04692 4.94656 3.05771 4.94839C3.0685 4.95022 2.96647 4.94716 2.97735 4.94839C2.98823 4.94962 2.91285 4.92098 2.92378 4.9216C2.9347 4.92222 2.83247 4.92159 2.84341 4.9216C2.85436 4.92161 2.75212 4.9222 2.76305 4.9216C2.77398 4.921 2.67181 4.9496 2.68269 4.94839C2.69357 4.94718 2.59153 4.95021 2.60232 4.94839C2.5842 4.95678 2.56634 4.96572 2.54875 4.97518C2.56557 4.97136 2.3984 5.00725 2.41481 5.00196C2.43123 4.99667 2.29177 5.03546 2.30766 5.02875C2.32355 5.02205 2.18527 5.0904 2.20051 5.08233C2.21575 5.07426 2.07889 5.17207 2.09336 5.16269C2.10783 5.15331 1.97262 5.22689 1.98621 5.21627C1.9998 5.20565 1.86646 5.3084 1.87906 5.29663C1.89166 5.28485 1.78718 5.41661 1.7987 5.40378C1.81022 5.39094 1.70799 5.49794 1.71834 5.48414C1.72868 5.47034 1.65567 5.60594 1.66476 5.59129C1.67386 5.57664 1.57663 5.71383 1.5844 5.69844C1.59217 5.68305 1.52443 5.82161 1.53082 5.80559C1.53721 5.78957 1.49908 5.95605 1.50404 5.93953C1.509 5.92301 1.47376 6.06357 1.47725 6.04668C1.48074 6.02979 1.44847 6.19775 1.45046 6.18061C1.45245 6.16348 1.44999 6.33179 1.45046 6.31455C1.4507 6.30593 1.44989 6.33269 1.45046 6.36813C1.45104 6.40356 1.45098 6.43031 1.45046 6.4217V13.0114C1.45252 13.0005 1.44902 13.1028 1.45046 13.0918C1.4519 13.0808 1.42287 13.1832 1.42368 13.1721C1.42449 13.1611 1.4235 13.2636 1.42368 13.2525C1.42386 13.2414 1.42413 13.344 1.42368 13.3329C1.42323 13.3218 1.42476 13.4243 1.42368 13.4132C1.4226 13.4022 1.45217 13.5046 1.45046 13.4936C1.44876 13.4826 1.45278 13.5848 1.45046 13.5739C1.44814 13.5631 1.48018 13.665 1.47725 13.6543C1.47432 13.6436 1.50757 13.7452 1.50404 13.7347C1.5005 13.7241 1.53495 13.7986 1.53082 13.7882C1.52669 13.7779 1.56232 13.8787 1.55761 13.8686C1.5529 13.8585 1.58967 13.9588 1.5844 13.949C1.57913 13.9392 1.64379 14.012 1.63797 14.0025C1.63216 13.993 1.69789 14.092 1.69155 14.0829C1.68521 14.0738 1.72518 14.1452 1.71834 14.1365C1.71149 14.1277 1.77924 14.2252 1.77191 14.2168C1.76458 14.2085 1.83328 14.2783 1.82549 14.2704C1.8177 14.2625 1.88729 14.3315 1.87906 14.324C1.87083 14.3165 1.96806 14.3846 1.95942 14.3776C1.95078 14.3706 2.02202 14.4376 2.013 14.4312C2.00398 14.4247 2.10274 14.4639 2.09336 14.4579C2.08399 14.4519 2.15663 14.5169 2.14694 14.5115C2.13724 14.5061 2.23729 14.5432 2.2273 14.5383C2.21731 14.5334 2.31791 14.5694 2.30766 14.5651C2.29741 14.5608 2.37171 14.6224 2.36124 14.6187C2.35076 14.615 2.45227 14.6218 2.4416 14.6187C2.43093 14.6156 2.53279 14.648 2.52196 14.6455C2.51114 14.643 2.61328 14.6741 2.60233 14.6723C2.59137 14.6704 2.69373 14.6736 2.68269 14.6723C2.67165 14.671 2.77414 14.6729 2.76305 14.6723C2.75196 14.6716 2.85452 14.699 2.84341 14.699C2.8323 14.699 2.93487 14.6716 2.92378 14.6723C2.91268 14.6729 3.01518 14.671 3.00414 14.6723C2.9931 14.6736 3.09545 14.6704 3.0845 14.6723C3.07355 14.6742 3.17569 14.643 3.16486 14.6455C3.15404 14.648 3.2559 14.6156 3.24523 14.6187C3.23456 14.6218 3.33607 14.615 3.32559 14.6187C3.31512 14.6224 3.38941 14.5608 3.37917 14.5651C3.36892 14.5694 3.46952 14.5334 3.45953 14.5383C3.44954 14.5432 3.54959 14.5061 3.53989 14.5115C3.53019 14.5169 3.60284 14.452 3.59347 14.4579C3.5841 14.4639 3.68285 14.4247 3.67383 14.4312C3.66481 14.4377 3.73604 14.3706 3.7274 14.3776C3.71876 14.3846 3.816 14.3165 3.80777 14.324C3.79954 14.3315 3.86913 14.2625 3.86134 14.2704C3.85355 14.2783 3.92225 14.2085 3.91492 14.2168C4.88686 15.1486 6.03632 14.1996 6.21864 13.2793L7.77232 5.13588C7.77747 5.11146 7.77301 5.0784 7.77232 5.08231C7.77084 5.09061 7.80007 4.99357 7.7991 5.00195C7.79814 5.01032 7.79956 4.88638 7.7991 4.8948C7.79865 4.90322 7.79904 4.77922 7.7991 4.78765C7.79917 4.79608 7.79852 4.69888 7.7991 4.70728C7.79969 4.71569 7.79799 4.59178 7.7991 4.60013C7.80021 4.60849 7.7707 4.48471 7.77232 4.49298C7.77393 4.50125 7.74341 4.40446 7.74553 4.41262C7.74765 4.42078 7.71612 4.29746 7.71874 4.30547C7.72136 4.31348 7.68885 4.21727 7.69195 4.22511C7.69505 4.23294 7.63479 4.13712 7.63838 4.14475C7.64196 4.15238 7.60754 4.0302 7.61159 4.0376C7.61564 4.045 7.55352 3.9501 7.55802 3.95724C7.56251 3.96437 7.49952 3.87003 7.50444 3.87687C7.50936 3.88371 7.44553 3.78998 7.45087 3.79651C7.45621 3.80304 7.36478 3.70996 7.3705 3.71615C7.37623 3.72234 7.31083 3.65675 7.31693 3.66257C7.32303 3.66839 7.23012 3.57677 7.23657 3.58221C7.24301 3.58765 7.14944 3.52361 7.1562 3.52863C7.16297 3.53366 7.06878 3.47046 7.07584 3.47506C7.0829 3.47966 6.98815 3.41733 6.99548 3.42148C7.00281 3.42564 6.90754 3.36421 6.91512 3.36791C6.92269 3.37161 6.80018 3.3379 6.80797 3.34112C6.81576 3.34435 6.71963 3.31159 6.7276 3.31433C6.73557 3.31707 6.61233 3.25851 6.62045 3.26076C6.62858 3.26301 6.53184 3.25902 6.54009 3.26076C6.54834 3.2625 6.4246 3.23274 6.43294 3.23397C6.44128 3.2352 6.34418 3.23326 6.35258 3.23397C6.36098 3.23469 6.237 3.20699 6.24543 3.20718C6.25386 3.20738 6.12986 3.20751 6.13828 3.20718L6.13828 3.2072ZM9.86174 3.2072C9.86868 3.20655 9.82521 3.22769 9.78138 3.23399C9.73986 3.23996 9.69449 3.23527 9.70102 3.23399C9.66485 3.24094 9.62906 3.24989 9.59387 3.26078C9.607 3.2575 9.42041 3.29213 9.43314 3.28756C9.44588 3.283 9.28698 3.37372 9.29921 3.36793C9.31143 3.36213 9.15368 3.42848 9.16527 3.4215C9.17686 3.41452 9.02048 3.53674 9.03133 3.52865C9.04218 3.52056 8.8874 3.61813 8.89739 3.60901C8.90739 3.59989 8.78119 3.75301 8.79024 3.74295C8.79929 3.73289 8.67508 3.861 8.68309 3.8501C8.6911 3.8392 8.59583 3.99568 8.60273 3.98404C8.60963 3.9724 8.51665 4.13024 8.52237 4.11798C8.52809 4.10571 8.46432 4.29147 8.46879 4.2787C8.47327 4.26593 8.43881 4.42579 8.44201 4.41264C8.44521 4.39949 8.38655 4.58676 8.38843 4.57336C8.39032 4.55997 8.38788 4.74761 8.38843 4.73409C8.38898 4.72057 8.38921 4.90832 8.38843 4.89481C8.38765 4.88131 8.41733 5.0689 8.41522 5.05554C8.414 5.04783 8.40546 5.08895 8.41522 5.1359L8.44201 5.18948L8.89739 7.54678L8.92418 7.68071L9.99568 13.2793C9.99634 13.2868 9.99605 13.3085 9.99568 13.3061C9.99345 13.2917 10.053 13.4809 10.0493 13.4668C10.0455 13.4527 10.1081 13.6412 10.1028 13.6275C10.0976 13.6139 10.1631 13.8013 10.1564 13.7883C10.1497 13.7753 10.2448 13.9612 10.2368 13.949C10.2288 13.9368 10.3532 14.0942 10.3439 14.0829C10.3346 14.0716 10.4615 14.2003 10.4511 14.1901C10.4407 14.1798 10.5965 14.3331 10.585 14.324C10.5736 14.3149 10.7313 14.4122 10.719 14.4044C10.7066 14.3966 10.8928 14.4912 10.8797 14.4847C10.8666 14.4783 11.0541 14.5701 11.0404 14.5651C11.0267 14.5601 11.2153 14.6222 11.2011 14.6187C11.1869 14.6152 11.3763 14.6474 11.3618 14.6455C11.3474 14.6435 11.5372 14.6459 11.5226 14.6455C11.508 14.645 11.7247 14.6444 11.7101 14.6455C11.6955 14.6466 11.8852 14.616 11.8708 14.6187C11.8564 14.6214 12.0455 14.5877 12.0315 14.5919C12.0175 14.5961 12.2057 14.5326 12.1923 14.5383C12.1788 14.544 12.3658 14.4509 12.353 14.4579C12.3402 14.4649 12.4989 14.3692 12.4869 14.3776C12.475 14.386 12.6319 14.2608 12.6209 14.2704C12.6099 14.28 12.6777 14.2296 12.6677 14.2403C13.6876 15.0597 14.6941 14.0677 14.7639 13.1721V6.42169V6.36811C14.7644 6.35462 14.7639 6.33752 14.7639 6.34133C14.7638 6.35276 14.7632 6.24954 14.7639 6.26096C14.7645 6.27238 14.7626 6.16924 14.7639 6.1806C14.7652 6.19197 14.7619 6.08897 14.7639 6.10024C14.7659 6.11151 14.7345 6.00874 14.7371 6.01988C14.7397 6.03101 14.707 5.92855 14.7103 5.93952C14.7136 5.95048 14.6796 5.84839 14.6835 5.85915C14.6874 5.86991 14.6522 5.76827 14.6567 5.77879C14.6612 5.7893 14.6248 5.68819 14.6299 5.69843C14.635 5.70866 14.5706 5.63493 14.5763 5.64485C14.582 5.65477 14.5433 5.55492 14.5496 5.56449C14.5559 5.57406 14.4892 5.50172 14.496 5.51091C14.5028 5.5201 14.4351 5.42177 14.4424 5.43055C14.4498 5.43933 14.381 5.36864 14.3888 5.37698C14.3966 5.38531 14.3269 5.31554 14.3352 5.3234C14.3435 5.33126 14.2729 5.26246 14.2817 5.26983C14.2905 5.27719 14.1921 5.20941 14.2013 5.21625C14.2105 5.22309 14.1382 5.15638 14.1477 5.16268C14.1572 5.16898 14.0575 5.10337 14.0674 5.1091C14.0773 5.11483 13.9768 5.07717 13.987 5.08231C13.9972 5.08745 13.9229 5.05099 13.9334 5.05553C13.9439 5.06007 13.8423 4.99803 13.8531 5.00195C13.8638 5.00587 13.7617 4.97188 13.7727 4.97516C13.7837 4.97844 13.6812 4.97252 13.6923 4.97516C13.7035 4.9778 13.6007 4.94639 13.612 4.94838C13.6232 4.95037 13.5203 4.94705 13.5316 4.94838C13.543 4.94971 13.4398 4.92092 13.4513 4.92159C13.4627 4.92225 13.3595 4.92159 13.3709 4.92159C13.3823 4.92159 13.2523 4.92226 13.2638 4.92159C13.2752 4.92092 13.172 4.94971 13.1834 4.94838C13.1948 4.94704 13.0918 4.95038 13.103 4.94838C13.1109 4.94698 13.0753 4.9699 13.0495 4.97516C13.0384 4.97741 13.0193 4.97596 13.0227 4.97516C12.9935 4.98353 12.9023 5.00622 12.9155 5.00195C12.9319 4.99666 12.7925 5.03545 12.8084 5.02874C12.8242 5.02204 12.686 5.09039 12.7012 5.08231C12.7165 5.07424 12.5796 5.17206 12.5941 5.16268C12.6085 5.1533 12.4733 5.22687 12.4869 5.21625C12.5005 5.20563 12.3672 5.30839 12.3798 5.29662C12.3924 5.28484 12.2879 5.4166 12.2994 5.40377C12.3109 5.39093 12.2087 5.49792 12.219 5.48413C12.2294 5.47033 12.1564 5.60593 12.1655 5.59128C12.1746 5.57663 12.0773 5.71382 12.0851 5.69843C12.0929 5.68303 12.0251 5.8216 12.0315 5.80558C12.0379 5.78956 11.9998 5.95603 12.0047 5.93951C12.0059 5.93563 12.0073 5.95574 12.0047 5.9663H11.844L11.5761 4.54658C11.5765 4.54877 11.5776 4.52621 11.5761 4.51979C11.5684 4.4866 11.5463 4.37481 11.5494 4.38585C11.553 4.39903 11.4909 4.21237 11.4958 4.22513C11.5007 4.23788 11.4093 4.07899 11.4154 4.09119C11.4216 4.10339 11.3277 3.94572 11.3351 3.95725C11.3424 3.96878 11.2463 3.81257 11.2547 3.82331C11.2631 3.83406 11.1381 3.67953 11.1475 3.68938C11.157 3.69923 11.03 3.57337 11.0404 3.58223C11.0508 3.59109 10.8952 3.49409 10.9065 3.50186C10.9177 3.50963 10.7606 3.41488 10.7725 3.4215C10.7845 3.42812 10.626 3.33574 10.6386 3.34114C10.6511 3.34653 10.4648 3.28345 10.4779 3.28756C10.4909 3.29167 10.3038 3.23119 10.3171 3.23399C10.3305 3.23679 10.1696 3.23253 10.1832 3.23399C10.1968 3.23545 10.0088 3.20711 10.0225 3.2072C10.0361 3.20729 9.84814 3.20847 9.86174 3.2072V3.2072Z" fill="#EBE7E4"/>
</svg>
