<svg width="48" height="25" viewBox="0 0 48 25" fill="none" xmlns="http://www.w3.org/2000/svg">
<path opacity="0.837" fill-rule="evenodd" clip-rule="evenodd" d="M4.61524 3.87207C4.33979 3.87196 4.07038 3.9528 3.84051 4.10455C3.61063 4.2563 3.43041 4.47226 3.32227 4.72559L0.246095 11.9482C0.171903 12.1224 0.133659 12.3097 0.133659 12.499C0.133659 12.6883 0.171903 12.8757 0.246095 13.0498L3.32227 20.2744C3.43041 20.5277 3.61063 20.7437 3.84051 20.8954C4.07038 21.0472 4.33979 21.128 4.61524 21.1279H43.3848C43.6602 21.128 43.9296 21.0472 44.1595 20.8954C44.3894 20.7437 44.5696 20.5277 44.6777 20.2744L47.7539 13.0498C47.8281 12.8757 47.8663 12.6883 47.8663 12.499C47.8663 12.3097 47.8281 12.1224 47.7539 11.9482L44.6777 4.72559C44.5696 4.47226 44.3894 4.2563 44.1595 4.10455C43.9296 3.95281 43.6602 3.87196 43.3848 3.87207H4.61524V3.87207Z" fill="#F1EAE4"/>
<path fill-rule="evenodd" clip-rule="evenodd" d="M4.61461 19.7232H43.3854L46.4601 12.4998L43.3854 5.27649H4.61461L1.53995 12.4998L4.61461 19.7232" fill="#327AE6"/>
</svg>
