<svg width="26" height="25" viewBox="0 0 26 25" fill="none" xmlns="http://www.w3.org/2000/svg">
<path opacity="0.837" fill-rule="evenodd" clip-rule="evenodd" d="M13 2.88089C9.80538 2.88093 6.62732 3.80812 4.27496 5.49904C1.92261 7.18996 0.360899 9.74409 0.36087 12.5C0.3609 15.2559 1.92261 17.81 4.27496 19.5009C6.62732 21.1919 9.80538 22.1191 13 22.1191C16.1946 22.1191 19.3727 21.1919 21.725 19.5009C24.0774 17.81 25.6391 15.2559 25.6391 12.5C25.6391 9.74409 24.0774 7.18996 21.725 5.49904C19.3727 3.80812 16.1946 2.88093 13 2.88089Z" fill="#F1EAE4"/>
<path d="M13 20.8247C19.2665 20.8247 24.3465 17.0973 24.3465 12.4992C24.3465 7.90121 19.2665 4.17377 13 4.17377C6.73347 4.17377 1.65345 7.90121 1.65345 12.4992C1.65345 17.0973 6.73347 20.8247 13 20.8247Z" fill="#327AE6"/>
</svg>
