<svg width="25" height="25" viewBox="0 0 25 25" fill="none" xmlns="http://www.w3.org/2000/svg">
<path opacity="0.787" d="M12.4852 1.03997C12.3757 1.04118 12.2669 1.05753 12.1619 1.08857C10.9968 1.43409 9.766 1.61894 8.48946 1.61894C7.28091 1.61894 6.1133 1.45368 5.00507 1.14351C4.53029 1.01119 4.02315 1.18613 3.73091 1.58302C2.77333 2.88335 2.02545 4.35197 1.53759 5.93587C1.15151 7.59558 0.947303 8.8104 0.941711 10.1112C0.941711 16.9863 5.78695 22.7524 12.2528 24.127C12.4158 24.1617 12.5842 24.1617 12.7472 24.127C19.2131 22.7524 24.0583 16.9863 24.0583 10.1112C24.1231 8.54775 23.8797 7.53065 23.4624 5.93587C22.9745 4.35195 22.2266 2.88333 21.2691 1.58302C20.9769 1.18613 20.4697 1.01119 19.9949 1.14351C18.8867 1.45368 17.7191 1.61894 16.5105 1.61894C15.234 1.61894 14.0032 1.43409 12.8381 1.08857C12.7236 1.05471 12.6046 1.03832 12.4852 1.03997V1.03997Z" fill="#F1EAE4"/>
<path d="M2.68067 6.27124C2.23679 7.63659 2.12924 9.16411 2.12924 10.1112C2.12924 16.4296 6.57556 21.7075 12.5 22.9669C18.4245 21.7075 22.8708 16.4296 22.8708 10.1112C22.8708 9.16411 22.7457 7.52611 22.3239 6.27124H2.68067Z" fill="#003F87"/>
<path d="M2.67126 6.28412C3.11958 4.82865 3.80672 3.48016 4.68616 2.28594C5.89709 2.62486 7.17257 2.80595 8.48976 2.80595C9.8821 2.80595 11.2279 2.60364 12.5 2.22638C13.7722 2.60364 15.1179 2.80595 16.5103 2.80595C17.8274 2.80595 19.103 2.62486 20.3139 2.28594C21.1933 3.48016 21.8805 4.82865 22.3288 6.28412H2.67126V6.28412Z" fill="#AF1E2D"/>
</svg>
