<svg width="24" height="24" viewBox="0 0 24 24" fill="none" xmlns="http://www.w3.org/2000/svg">
<path opacity="0.1" fill-rule="evenodd" clip-rule="evenodd" d="M24 11.5V19C24 21.2091 22.2091 23 20 23H4C1.79086 23 0 21.2091 0 19V11.5C0 5.0533 5.47049 0 12 0C18.5295 0 24 5.0533 24 11.5ZM12 2C6.47715 2 2 6.25329 2 11.5V19C2 20.1046 2.89543 21 4 21H20C21.1046 21 22 20.1046 22 19V11.5C22 6.25329 17.5228 2 12 2Z" fill="white"/>
<path d="M2 11.5C2 6.25329 6.47715 2 12 2C17.5228 2 22 6.25329 22 11.5V19C22 20.1046 21.1046 21 20 21H4C2.89543 21 2 20.1046 2 19V11.5Z" fill="#00293D"/>
<path fill-rule="evenodd" clip-rule="evenodd" d="M20 19V11.5C20 7.45329 16.5162 4 12 4C7.48382 4 4 7.45329 4 11.5V19H20ZM12 2C6.47715 2 2 6.25329 2 11.5V19C2 20.1046 2.89543 21 4 21H20C21.1046 21 22 20.1046 22 19V11.5C22 6.25329 17.5228 2 12 2Z" fill="#0092DE"/>
</svg>
