<svg width="32" height="32" viewBox="0 0 32 32" fill="none" xmlns="http://www.w3.org/2000/svg">
<path opacity="0.599156" d="M32 0H0V32H32V0Z" fill="#90BE90"/>
<path d="M21 4C21 2.89543 21.8954 2 23 2H26C27.1046 2 28 2.89543 28 4V10H21V4Z" fill="#82B290"/>
<path d="M19 13C19 11.8954 19.8954 11 21 11H28C29.1046 11 30 11.8954 30 13V14H19V13Z" fill="#82B290"/>
<path d="M4 20C4 18.8954 4.89543 18 6 18H9C10.1046 18 11 18.8954 11 20V26H4V20Z" fill="#82B290"/>
<path d="M2 29C2 27.8954 2.89543 27 4 27H11C12.1046 27 13 27.8954 13 29V30H2V29Z" fill="#82B290"/>
</svg>
