<svg width="21" height="24" viewBox="0 0 21 24" fill="none" xmlns="http://www.w3.org/2000/svg">
<g clip-path="url(#clip0)">
<path d="M21 0H0V24.001H21V0Z" fill="#9DD57C"/>
<path d="M10.999 8.021H10.015V16H10.999V8.021Z" fill="#3BB551"/>
<path d="M9.01099 11H8V12.012H9.01099V11Z" fill="#3BB551"/>
<path d="M10.023 12.989H9.01001V14H10.023V12.989Z" fill="#3BB551"/>
<path d="M12.011 12.989H11V14H12.011V12.989Z" fill="#3BB551"/>
<path d="M12.997 14H11.986V15.012H12.997V14Z" fill="#3BB551"/>
<path d="M9.01099 14H8V15.012H9.01099V14Z" fill="#3BB551"/>
<path d="M12.997 11H11.986V12.012H12.997V11Z" fill="#3BB551"/>
<path d="M12.011 9.98898H11V11H12.011V9.98898Z" fill="#3BB551"/>
<path d="M10.023 9.98898H9.01001V11H10.023V9.98898Z" fill="#3BB551"/>
<path d="M10.023 9.98898H9.01001L8 11V12.011H9.01001L10.023 11V9.98898Z" fill="#3BB551"/>
<path d="M10.973 9.98898H11.986L12.996 11V12.011H11.986L10.973 11V9.98898Z" fill="#3BB551"/>
<path d="M10.025 12.989H9.013L8.00299 14V15.011H9.013L10.025 14V12.989Z" fill="#3BB551"/>
<path d="M10.976 12.989H11.988L12.998 14V15.011H11.988L10.976 14V12.989Z" fill="#3BB551"/>
</g>
<defs>
<clipPath id="clip0">
<path d="M0 0H21V24.001H0V0Z" fill="white"/>
</clipPath>
</defs>
</svg>
