<svg width="21" height="24" viewBox="0 0 21 24" fill="none" xmlns="http://www.w3.org/2000/svg">
<g clip-path="url(#clip0)">
<path d="M21 0H0V24H21V0Z" fill="#9DD57C"/>
<path d="M10.999 8.021H10.015V16H10.999V8.021Z" fill="#3BB551"/>
<path d="M9.01099 11H8V12.011H9.01099V11Z" fill="#3BB551"/>
<path d="M10.021 12.989H9.00998V14.001H10.021V12.989Z" fill="#3BB551"/>
<path d="M12.01 12.989H11V14.001H12.01V12.989Z" fill="#3BB551"/>
<path d="M12.995 14H11.983V15.011H12.995V14Z" fill="#3BB551"/>
<path d="M9.01099 14H8V15.011H9.01099V14Z" fill="#3BB551"/>
<path d="M12.995 11H11.983V12.011H12.995V11Z" fill="#3BB551"/>
<path d="M12.01 9.98901H11V11.001H12.01V9.98901Z" fill="#3BB551"/>
<path d="M10.021 9.98901H9.00998V11.001H10.021V9.98901Z" fill="#3BB551"/>
</g>
<defs>
<clipPath id="clip0">
<path d="M0 0H21V24H0V0Z" fill="white"/>
</clipPath>
</defs>
</svg>
