<svg width="16" height="16" viewBox="0 0 16 16" fill="none" xmlns="http://www.w3.org/2000/svg">
<path opacity="0.812" d="M5.11022 1.04689C4.944 1.05644 4.78774 1.12923 4.67348 1.25033C4.55923 1.37144 4.49565 1.53167 4.49578 1.69816V1.75843C4.3829 2.5278 4.18799 2.83811 3.97175 3.14301C3.76654 3.43235 3.38407 3.84392 3.3188 4.52926C3.27275 5.01279 3.42941 5.39612 3.62351 5.72633C3.49162 5.77784 3.38009 5.87089 3.30579 5.99141C3.23148 6.11193 3.19844 6.25337 3.21165 6.39434C3.43279 8.72055 3.27121 10.9378 2.68762 13.6973C2.66751 13.7923 2.66886 13.8905 2.69158 13.9849C2.7143 14.0793 2.75782 14.1674 2.81895 14.2428C2.88008 14.3182 2.95729 14.379 3.04493 14.4208C3.13256 14.4625 3.22842 14.4842 3.3255 14.4842H4.02197H7.15611H7.26326H7.87937H12.4332C12.6059 14.484 12.7715 14.4154 12.8936 14.2932C13.0157 14.1711 13.0844 14.0056 13.0845 13.8329V11.1541C13.0844 10.9815 13.0157 10.8159 12.8936 10.6938C12.7715 10.5717 12.6059 10.503 12.4332 10.5029H10.096L14.1225 5.42497C14.1986 5.32895 14.246 5.21346 14.2594 5.09173C14.2728 4.97 14.2516 4.84696 14.1983 4.7367C14.145 4.62644 14.0618 4.53342 13.958 4.46831C13.8543 4.4032 13.7344 4.36862 13.6119 4.36854H12.3813L13.6605 2.24898C13.7199 2.15016 13.752 2.03734 13.7536 1.92203C13.7552 1.80672 13.7262 1.69306 13.6695 1.59263C13.6128 1.4922 13.5305 1.40861 13.431 1.35038C13.3315 1.29216 13.2183 1.26138 13.1029 1.26119H11.2278C11.107 1.26107 10.9886 1.29451 10.8857 1.35777C10.7829 1.42104 10.6996 1.51164 10.6452 1.61947L8.44861 5.98583C8.39872 6.08522 8.37509 6.19571 8.37996 6.30681C8.38483 6.4179 8.41804 6.5259 8.47643 6.62054C8.53482 6.71518 8.61646 6.7933 8.71357 6.84749C8.81068 6.90167 8.92003 6.9301 9.03124 6.93009H10.24L8.81359 10.0525C8.74912 10.1938 8.73724 10.3536 8.7801 10.5029H8.06019C7.92228 9.09345 7.86484 7.74476 7.99322 6.39434C8.00212 6.30133 7.99093 6.20749 7.96039 6.11918C7.92985 6.03087 7.88068 5.95016 7.81621 5.88252C7.75175 5.81488 7.67349 5.76189 7.58676 5.72714C7.50002 5.69239 7.40682 5.6767 7.31349 5.68113C7.61686 5.12605 7.78685 4.52861 7.66005 3.92152C7.44993 2.91552 6.72135 2.01133 5.62755 1.24445L5.53882 1.17748C5.41587 1.08467 5.26402 1.03841 5.11022 1.04689V1.04689ZM5.67443 4.81388C5.66488 4.83817 5.6428 5.11669 5.56728 5.36972C5.55017 5.42703 5.53883 5.46111 5.52375 5.51036C5.51113 5.49016 5.50941 5.49173 5.49696 5.47017C5.41575 5.32957 5.40286 5.18496 5.39483 5.26927C5.40121 5.20232 5.37325 5.28611 5.41157 5.22239C5.45934 5.14297 5.53687 5.02152 5.65099 4.86076C5.65855 4.85011 5.66671 4.82495 5.67443 4.81388V4.81388Z" fill="#EBE7E4"/>
</svg>
