<svg width="38" height="27" viewBox="0 0 38 27" fill="none" xmlns="http://www.w3.org/2000/svg">
<path opacity="0.837" fill-rule="evenodd" clip-rule="evenodd" d="M19 2.15741C18.2294 2.15741 18.4357 2.20381 18.3589 2.218C18.282 2.23218 18.2245 2.24524 18.16 2.25898C18.031 2.28647 17.8846 2.31925 17.7059 2.36056C17.3483 2.44317 16.8722 2.55743 16.3078 2.6938C15.1791 2.96653 13.7067 3.3292 12.2354 3.69529C10.7641 4.06139 9.29703 4.4298 8.17786 4.71639C7.61828 4.85969 7.1447 4.98114 6.79467 5.07458C6.61966 5.1213 6.47891 5.16041 6.35538 5.19575C6.29361 5.21343 6.2364 5.23019 6.16541 5.25278C6.09442 5.27537 6.18735 5.15407 5.643 5.48088C5.09865 5.80769 5.3007 5.7519 5.26307 5.79451C5.22544 5.83713 5.19752 5.87148 5.16809 5.90856C5.10922 5.98273 5.04407 6.06723 4.96625 6.1723C4.81061 6.38245 4.60832 6.66677 4.36964 7.00272C3.89227 7.67463 3.27863 8.55544 2.66884 9.43875C2.05906 10.3221 1.45499 11.206 1.0007 11.8837C0.773562 12.2225 0.583249 12.5084 0.445647 12.723C0.376845 12.8303 0.322243 12.9182 0.276458 12.9957C0.253566 13.0344 0.231818 13.0689 0.208189 13.1151C0.18456 13.1612 0.107269 13.0373 0.107269 13.5C0.107269 13.9626 0.18456 13.8388 0.208189 13.8849C0.231818 13.931 0.253566 13.9656 0.276458 14.0043C0.322243 14.0817 0.376845 14.1696 0.445647 14.2769C0.583249 14.4916 0.773562 14.7774 1.0007 15.1163C1.45499 15.7939 2.05906 16.6779 2.66884 17.5612C3.27863 18.4445 3.89227 19.3253 4.36964 19.9972C4.60832 20.3332 4.81061 20.6175 4.96625 20.8276C5.04407 20.9327 5.10922 21.0172 5.16809 21.0914C5.19752 21.1285 5.22544 21.1628 5.26307 21.2054C5.3007 21.248 5.09866 21.1923 5.643 21.5191C6.18735 21.8459 6.09442 21.7246 6.16541 21.7472C6.2364 21.7698 6.29361 21.7865 6.35538 21.8042C6.47891 21.8395 6.61966 21.8786 6.79467 21.9254C7.1447 22.0188 7.61828 22.1403 8.17786 22.2835C9.29703 22.5701 10.7641 22.9386 12.2354 23.3046C13.7067 23.6707 15.1791 24.0334 16.3078 24.3061C16.8722 24.4425 17.3483 24.5568 17.7059 24.6394C17.8846 24.6807 18.031 24.7135 18.16 24.741C18.2245 24.7547 18.282 24.7678 18.3589 24.7819C18.4357 24.7961 18.2294 24.8425 19 24.8425C19.7706 24.8425 19.5643 24.7961 19.6411 24.7819C19.718 24.7678 19.7755 24.7547 19.84 24.741C19.969 24.7135 20.1154 24.6807 20.2941 24.6394C20.6517 24.5568 21.1278 24.4425 21.6922 24.3061C22.8209 24.0334 24.2933 23.6707 25.7646 23.3046C27.2359 22.9386 28.703 22.5701 29.8221 22.2835C30.3817 22.1403 30.8553 22.0188 31.2053 21.9254C31.3803 21.8786 31.5211 21.8395 31.6446 21.8042C31.7064 21.7865 31.7636 21.7698 31.8346 21.7472C31.9056 21.7246 31.8126 21.8459 32.357 21.5191C32.9013 21.1923 32.6993 21.248 32.7369 21.2054C32.7746 21.1628 32.8025 21.1285 32.8319 21.0914C32.8908 21.0172 32.9559 20.9327 33.0337 20.8276C33.1894 20.6175 33.3917 20.3332 33.6304 19.9972C34.1077 19.3253 34.7214 18.4445 35.3312 17.5612C35.9409 16.6779 36.545 15.7939 36.9993 15.1163C37.2264 14.7774 37.4167 14.4916 37.5544 14.2769C37.6231 14.1696 37.6778 14.0817 37.7235 14.0043C37.7464 13.9656 37.7682 13.931 37.7918 13.8849C37.8154 13.8388 37.8927 13.9626 37.8927 13.5C37.8927 13.0373 37.8154 13.1612 37.7918 13.1151C37.7682 13.0689 37.7464 13.0344 37.7235 12.9957C37.6778 12.9182 37.6231 12.8303 37.5544 12.723C37.4167 12.5084 37.2264 12.2225 36.9993 11.8837C36.545 11.206 35.9409 10.3221 35.3312 9.43875C34.7214 8.55544 34.1077 7.67463 33.6304 7.00272C33.3917 6.66677 33.1894 6.38245 33.0337 6.1723C32.9559 6.06723 32.8908 5.98273 32.8319 5.90856C32.8025 5.87148 32.7746 5.83713 32.7369 5.79451C32.6993 5.75189 32.9013 5.80769 32.357 5.48088C31.8126 5.15407 31.9056 5.27537 31.8346 5.25278C31.7636 5.23019 31.7064 5.21343 31.6446 5.19575C31.5211 5.16041 31.3803 5.1213 31.2053 5.07458C30.8553 4.98114 30.3817 4.85969 29.8221 4.71639C28.703 4.4298 27.2359 4.06139 25.7646 3.69529C24.2933 3.3292 22.8209 2.96653 21.6922 2.6938C21.1278 2.55743 20.6517 2.44317 20.2941 2.36056C20.1154 2.31925 19.969 2.28647 19.84 2.25898C19.7755 2.24524 19.718 2.23218 19.6411 2.218C19.5643 2.20381 19.7706 2.15741 19 2.15741Z" fill="#F1EAE4"/>
<path fill-rule="evenodd" clip-rule="evenodd" d="M31.0009 20.3974C30.8172 20.503 19.2598 23.2544 19 23.2544C18.7402 23.2544 7.18279 20.503 6.99909 20.3974C6.81539 20.2919 2.02815 13.6494 2.02815 13.5001C2.02815 13.3508 6.81539 6.70834 6.99909 6.60276C7.18279 6.49718 18.7402 3.74579 19 3.74579C19.2598 3.74579 30.8172 6.49718 31.0009 6.60276C31.1846 6.70834 35.9718 13.3508 35.9718 13.5001C35.9718 13.6494 31.1846 20.2919 31.0009 20.3974V20.3974Z" fill="#52A02B"/>
</svg>
