<svg width="27" height="27" viewBox="0 0 27 27" fill="none" xmlns="http://www.w3.org/2000/svg">
<path opacity="0.837" fill-rule="evenodd" clip-rule="evenodd" d="M2.54297 5.78967C1.40833 5.78967 0.470703 6.7528 0.470703 7.87366C0.470703 14.3038 2.64897 18.3286 5.43164 20.6041C8.21431 22.8796 11.4304 23.4047 13.502 23.401C15.5285 23.3974 18.8074 22.9787 21.6348 20.7428C24.4593 18.5091 26.6373 14.4625 26.5273 7.86975C26.5247 6.75086 25.5901 5.78967 24.457 5.78967H2.54297V5.78967Z" fill="#F1EAE4"/>
<path fill-rule="evenodd" clip-rule="evenodd" d="M2.54328 7.07062H24.4565C24.8954 7.07062 25.2488 7.42914 25.2488 7.87448C25.4681 20.5221 17.1874 22.1136 13.4999 22.1201C9.81237 22.1266 1.75101 20.1749 1.75101 7.87448C1.75101 7.42914 2.10436 7.07062 2.54328 7.07062Z" fill="#52A02B"/>
</svg>
