<svg width="37" height="24" viewBox="0 0 37 24" fill="none" xmlns="http://www.w3.org/2000/svg">
<path opacity="0.837" fill-rule="evenodd" clip-rule="evenodd" d="M3.4397 0.418579C1.76755 0.418579 0.372742 1.7301 0.372742 3.3024V17.9732C0.372742 19.5455 1.76755 20.857 3.4397 20.857H33.5603C35.2324 20.857 36.6272 19.5455 36.6272 17.9732V3.3024C36.6272 1.7301 35.2324 0.418579 33.5603 0.418579H3.4397V0.418579Z" fill="#F1EAE4"/>
<path fill-rule="evenodd" clip-rule="evenodd" d="M35.1199 4.76709H1.8801V17.9858C1.8801 18.7923 2.63498 19.4429 3.57345 19.4429H33.4266C34.365 19.4429 35.1199 18.7923 35.1199 17.9858V4.76709V4.76709Z" fill="#52A02B"/>
<path fill-rule="evenodd" clip-rule="evenodd" d="M3.57345 1.65576C2.63498 1.65576 1.8801 2.30442 1.8801 3.11084V4.76709H35.1199V3.11084C35.1199 2.30442 34.365 1.65576 33.4266 1.65576H3.57345V1.65576Z" fill="#DD6A6A"/>
</svg>
