<svg width="52" height="27" viewBox="0 0 52 27" fill="none" xmlns="http://www.w3.org/2000/svg">
<path opacity="0.837" fill-rule="evenodd" clip-rule="evenodd" d="M25.9988 2.25391C25.6596 2.25391 25.7436 2.2682 25.6786 2.27539C25.6135 2.28258 25.5443 2.28998 25.4581 2.30078C25.2857 2.32239 25.0547 2.35247 24.7711 2.39063C24.2037 2.46693 23.4218 2.57507 22.4919 2.70508C20.6321 2.96509 18.1881 3.31344 15.745 3.66406C13.302 4.01468 10.8597 4.36731 9.00738 4.64063C8.0812 4.77729 7.30468 4.89396 6.74216 4.98047C6.4609 5.02372 6.23327 5.05968 6.06213 5.08789C5.97656 5.102 5.90643 5.11464 5.83932 5.12695C5.77222 5.13926 5.91451 5.06439 5.45869 5.22266C4.84561 5.43553 4.84612 5.56562 4.76009 5.64844C4.67407 5.73126 4.62864 5.78761 4.5837 5.8418C4.49383 5.95016 4.42245 6.04656 4.34233 6.16016C4.18209 6.38734 3.99796 6.66765 3.78763 6.99805C3.36697 7.65884 2.84895 8.51158 2.33937 9.36523C1.82979 10.2189 1.33125 11.0711 0.956105 11.7266C0.768531 12.0543 0.611779 12.3317 0.496563 12.543C0.438955 12.6486 0.391783 12.7358 0.350345 12.8184C0.329626 12.8596 0.310269 12.8978 0.285359 12.9551C0.272904 12.9837 0.259224 13.0151 0.238941 13.0742C0.218657 13.1334 0.166992 13.1569 0.166992 13.5C0.166992 13.8431 0.218648 13.8666 0.238941 13.9258C0.259233 13.9849 0.272899 14.0163 0.285359 14.0449C0.310279 14.1022 0.329622 14.1404 0.350345 14.1816C0.391791 14.2642 0.438952 14.3514 0.496563 14.457C0.611784 14.6683 0.768529 14.9458 0.956105 15.2734C1.33126 15.9287 1.82979 16.7814 2.33937 17.6348C2.84896 18.4882 3.36696 19.3394 3.78763 20C3.99796 20.3303 4.18208 20.6108 4.34233 20.8379C4.42245 20.9515 4.49383 21.0499 4.5837 21.1582C4.62864 21.2124 4.67407 21.2668 4.76009 21.3496C4.84612 21.4324 4.84583 21.5626 5.45869 21.7754C5.91429 21.9336 5.77223 21.8588 5.83932 21.8711C5.90641 21.8834 5.97657 21.896 6.06213 21.9102C6.23326 21.9384 6.45858 21.9743 6.73984 22.0176C7.30235 22.1041 8.08121 22.2207 9.00738 22.3574C10.8597 22.6309 13.302 22.9851 15.745 23.3359C18.1881 23.6868 20.6321 24.0347 22.4919 24.2949C23.4218 24.425 24.2037 24.533 24.7711 24.6094C25.0547 24.6475 25.2857 24.6776 25.4581 24.6992C25.5443 24.71 25.6135 24.7174 25.6786 24.7246C25.7436 24.7318 25.6593 24.7461 25.9988 24.7461C26.3383 24.7461 26.2541 24.7318 26.3191 24.7246C26.3842 24.7174 26.4534 24.71 26.5396 24.6992C26.712 24.6776 26.9429 24.6475 27.2266 24.6094C27.794 24.533 28.5757 24.425 29.5057 24.2949C31.3658 24.0347 33.8116 23.6868 36.255 23.3359C38.6983 22.9851 41.1401 22.6309 42.9926 22.3574C43.9189 22.2207 44.6953 22.1041 45.2578 22.0176C45.5391 21.9743 45.7667 21.9384 45.9379 21.9102C46.0234 21.896 46.0936 21.8834 46.1607 21.8711C46.2278 21.8588 46.0856 21.9336 46.5413 21.7754C47.1542 21.5626 47.1539 21.4324 47.2399 21.3496C47.3259 21.2668 47.3714 21.2124 47.4163 21.1582C47.5062 21.0499 47.5775 20.9515 47.6577 20.8379C47.8179 20.6108 48.002 20.3303 48.2124 20C48.633 19.3394 49.151 18.4882 49.6606 17.6348C50.1702 16.7814 50.6687 15.9287 51.0439 15.2734C51.2315 14.9458 51.3882 14.6683 51.5034 14.457C51.561 14.3514 51.6082 14.2642 51.6497 14.1816C51.6704 14.1404 51.6897 14.1022 51.7146 14.0449C51.7271 14.0163 51.7408 13.9849 51.7611 13.9258C51.7814 13.8666 51.833 13.8431 51.833 13.5C51.833 13.1569 51.7813 13.1334 51.7611 13.0742C51.7408 13.0151 51.7271 12.9837 51.7146 12.9551C51.6897 12.8978 51.6704 12.8596 51.6497 12.8184C51.6082 12.7358 51.561 12.6486 51.5034 12.543C51.3882 12.3317 51.2315 12.0543 51.0439 11.7266C50.6687 11.0711 50.1702 10.2189 49.6606 9.36523C49.151 8.51158 48.633 7.65884 48.2124 6.99805C48.002 6.66765 47.8179 6.38734 47.6577 6.16016C47.5775 6.04656 47.5062 5.95017 47.4163 5.8418C47.3714 5.78761 47.3259 5.73126 47.2399 5.64844C47.1539 5.56562 47.1544 5.43552 46.5413 5.22266C46.0854 5.06436 46.2278 5.13926 46.1607 5.12695C46.0936 5.11464 46.0234 5.102 45.9379 5.08789C45.7667 5.05968 45.5391 5.02373 45.2578 4.98047C44.6953 4.89396 43.9166 4.77728 42.9903 4.64062C41.1377 4.36731 38.6983 4.01468 36.255 3.66406C33.8116 3.31344 31.3658 2.96509 29.5057 2.70508C28.5757 2.57507 27.794 2.46693 27.2266 2.39062C26.9429 2.35247 26.712 2.32239 26.5396 2.30078C26.4534 2.28998 26.3842 2.28258 26.3191 2.27539C26.2541 2.2682 26.3381 2.25391 25.9988 2.25391Z" fill="#F1EAE4"/>
<path fill-rule="evenodd" clip-rule="evenodd" d="M45.9493 20.3968C45.644 20.5024 26.3699 23.2538 26 23.2538C25.6301 23.2538 6.35603 20.5024 6.05066 20.3968C5.74529 20.2913 1.83772 13.6488 1.83772 13.4995C1.83772 13.3502 5.74529 6.70773 6.05066 6.60215C6.35603 6.49657 25.6301 3.74518 26 3.74518C26.3699 3.74518 45.644 6.49657 45.9493 6.60215C46.2547 6.70773 50.1623 13.3502 50.1623 13.4995C50.1623 13.6488 46.2547 20.2913 45.9493 20.3968Z" fill="#52A02B"/>
</svg>
