<svg width="16" height="16" viewBox="0 0 16 16" fill="none" xmlns="http://www.w3.org/2000/svg">
<path opacity="0.802" d="M4.95167 1.40088C4.46466 1.4009 3.91297 1.59945 3.55402 1.95324C3.1945 2.30765 2.98827 2.864 2.98827 3.34921C2.98827 3.87292 3.22505 4.4435 3.59252 4.81549C3.69875 4.92303 3.96909 4.95221 4.2721 5.09669C4.30482 5.1123 4.33294 5.13613 4.35369 5.16586C4.37445 5.19558 4.38714 5.23019 4.39051 5.26629C4.39388 5.30239 4.38783 5.33874 4.37294 5.3718C4.35805 5.40486 4.33484 5.43349 4.30557 5.45489C4.2609 5.48776 4.19791 5.54025 4.13819 5.5888C4.07847 5.63734 4.04454 5.67671 3.95407 5.71768C3.95133 5.71904 3.94841 5.71964 3.9457 5.72103C3.94404 5.72217 3.94237 5.72329 3.94068 5.72438C3.62987 5.87182 3.24546 5.96946 2.769 5.99721C2.53728 6.01072 2.31233 6.11629 2.15303 6.28511C1.99373 6.45393 1.90201 6.68403 1.90196 6.91614V7.38314C1.90183 7.61355 1.99261 7.84225 2.14968 8.01083C2.30675 8.1794 2.52912 8.28593 2.75896 8.30207C2.8777 8.31032 2.86761 8.31236 2.94642 8.32383C2.99681 8.33121 3.04278 8.35669 3.07575 8.39551C3.10871 8.43432 3.1264 8.48382 3.12552 8.53473L3.11213 9.62105C3.11197 9.63105 3.11197 9.64118 3.11213 9.65118L3.12051 10.0194C3.12059 10.0228 3.12059 10.0261 3.12051 10.0295L3.11213 10.4228C3.11176 10.4454 3.11251 10.4688 3.1138 10.4914C3.13023 10.7872 3.13724 10.9829 3.13724 11.0505C3.13724 11.1683 3.13491 11.3088 3.12719 11.4706C3.12439 11.5295 3.12463 11.5627 3.12217 11.6179C3.11977 11.667 3.10017 11.7137 3.06682 11.7498C3.03347 11.7859 2.98848 11.8092 2.93973 11.8154L2.59994 11.8606C2.37643 11.8903 2.16676 12.0051 2.0208 12.177C1.87484 12.3488 1.79465 12.5759 1.80153 12.8013L1.81826 13.3436C1.82571 13.5798 1.92812 13.812 2.09779 13.9763C2.26747 14.1407 2.50262 14.2358 2.73887 14.2358C2.8953 14.2358 3.06697 14.2244 3.33475 14.204C3.5685 14.1862 3.80892 14.1772 4.05785 14.1772C4.99421 14.1772 5.73537 14.1911 6.27734 14.2174C6.27846 14.2174 6.27958 14.2174 6.28069 14.2174C6.46324 14.2291 6.59695 14.2358 6.72426 14.2358C6.82226 14.2358 6.93557 14.2331 7.09083 14.2274C7.28139 14.2202 7.46901 14.1517 7.61976 14.0349C7.6476 14.0133 7.68045 13.999 7.71527 13.9935C7.75009 13.9879 7.78575 13.9912 7.81894 14.0031C7.92407 14.041 7.99811 14.0943 8.05328 14.1253C8.10844 14.1563 8.13748 14.1655 8.16375 14.1655H13.294C13.9254 14.1655 14.4758 13.615 14.4758 12.9837V4.07228C14.4758 3.43938 13.9352 2.88888 13.294 2.88888H8.16375C7.82509 2.88888 7.53542 3.04927 7.3101 3.29897C7.28292 3.32882 7.24769 3.35019 7.20865 3.3605C7.16961 3.3708 7.12843 3.36961 7.09005 3.35706C7.05168 3.3445 7.01775 3.32113 6.99235 3.28975C6.96695 3.25836 6.95115 3.22031 6.94687 3.18016C6.89874 2.71037 6.70072 2.23514 6.39953 1.95324C6.01771 1.59592 5.46047 1.4009 4.95167 1.40088ZM6.75606 4.39368C6.78476 4.39165 6.81358 4.39555 6.84072 4.40515C6.86785 4.41475 6.89271 4.42983 6.91376 4.44946C6.9348 4.46909 6.95158 4.49285 6.96303 4.51925C6.97449 4.54565 6.98039 4.57413 6.98035 4.60291V5.18708C6.97996 5.23106 6.96573 5.2738 6.93969 5.30925C6.91365 5.34469 6.87711 5.37104 6.83526 5.38456C6.79341 5.39808 6.74836 5.39808 6.70651 5.38457C6.66465 5.37105 6.62811 5.34471 6.60206 5.30927C6.53966 5.22323 6.46232 5.14808 6.37442 5.08832C6.34894 5.07097 6.3276 5.0482 6.31193 5.02165C6.29626 4.9951 6.28664 4.96542 6.28376 4.93472C6.28088 4.90403 6.28482 4.87307 6.29528 4.84407C6.30574 4.81507 6.32248 4.78873 6.3443 4.76695C6.44728 4.66419 6.53269 4.58086 6.59704 4.48574C6.61481 4.45932 6.63836 4.4373 6.66592 4.42135C6.69347 4.4054 6.7243 4.39594 6.75606 4.39368V4.39368ZM9.71873 5.42811C9.72375 5.42793 9.72878 5.42793 9.7338 5.42811H11.7223C11.7778 5.42818 11.831 5.45024 11.8702 5.48947C11.9094 5.52869 11.9315 5.58187 11.9315 5.63734V6.02064C11.9315 6.07611 11.9094 6.12929 11.8702 6.16852C11.831 6.20774 11.7778 6.2298 11.7223 6.22987H9.7338C9.67833 6.2298 9.62515 6.20774 9.58593 6.16852C9.5467 6.12929 9.52464 6.07611 9.52457 6.02064V5.63734C9.52449 5.58438 9.54448 5.53336 9.5805 5.49454C9.61653 5.45572 9.66592 5.43198 9.71873 5.42811Z" fill="#EBE7E4"/>
</svg>
