<svg width="32" height="32" viewBox="0 0 32 32" fill="none" xmlns="http://www.w3.org/2000/svg">
<path d="M28.1559 20.7076H27.3549V27.5196H28.1559V20.7076Z" fill="#7DB2FD"/>
<path d="M28.3259 29.1786H28.1849L28.1549 29.2086H27.3829V29.0066L24.8689 24.0276V23.2266H25.6419L27.8399 27.4896L29.9549 23.2546H30.7539V24.0566L28.3259 29.0346V29.1786Z" fill="#48C599"/>
<path d="M7.03088 13.015H6.88889L6.85889 13.072H5.91788V12.815L2.91788 9.81V8.89398H3.83289L6.51688 11.556L9.14587 8.923H10.0599V9.867L7.03088 12.872V13.015Z" fill="#91C0E7"/>
<path d="M7.03088 12.929H6.88889L6.85889 12.958H5.94489V12.729L2.97388 6.89102V5.94702H3.88889L6.48788 10.954L8.97388 5.97504H9.91788V6.89102L7.03088 12.786V12.929Z" fill="#48C599"/>
<path d="M6.83289 2.97101H5.91788V10.985H6.83289V2.97101Z" fill="#7DB2FD"/>
<path d="M30.5269 28.8625H21.6129V30.6945H30.5269V28.8625Z" fill="#A5CCEC"/>
<path d="M29.7658 2.19751H23.7939V3.0845H29.7658V2.19751Z" fill="#81B4E1"/>
<path d="M24.4843 13.3183H18.5103V14.2053H24.4843V13.3183Z" fill="#81B4E1"/>
<path d="M11.314 19.461H6.17099V20.348H11.314V19.461Z" fill="#A5CCEC"/>
<path d="M14.484 28.589H6.513V30.421H14.484V28.589Z" fill="#A5CCEC"/>
<path d="M3.37198 28.503H0.68399V30.335H3.37198V28.503Z" fill="#A5CCEC"/>
<path d="M11.9459 12.128H1.03088V13.016H11.9459V12.128Z" fill="#81B4E1"/>
<path d="M5.91788 10.983H8.00287V12.128H6.85889V13.015H5.91788V10.983Z" fill="#4378BB"/>
<path d="M28.3259 29.2646H28.1849L28.1549 29.2946H27.3829V29.0926L24.8119 26.5166V25.7446H25.5829L27.8689 28.0056L30.0989 25.7736H30.8979V26.5736L28.3259 29.1226V29.2646Z" fill="#77ABDC"/>
<path d="M29.1249 29.2646H27.3549V28.2925H28.3259V27.5186H29.1249V29.2646Z" fill="#4378BB"/>
</svg>
