<svg width="42" height="42" viewBox="0 0 42 42" fill="none" xmlns="http://www.w3.org/2000/svg">
<path d="M27 4H26V9H27V5.5L30 9H31V4H30V7.5L27 4Z" fill="#09831F"/>
<path fill-rule="evenodd" clip-rule="evenodd" d="M32 4H35.5L36 4.5V6.5L35.5 7H34.5L36 8.5V9H35L33 7L33.0087 9H32V4ZM33.0087 6H34.9912V5H33.0087V6Z" fill="#09831F"/>
<path d="M7 25H6V30H7V26.5L10 30H11V25H10V28.5L7 25Z" fill="#09831F"/>
<path fill-rule="evenodd" clip-rule="evenodd" d="M12 25H15.5L16 25.5V27.5L15.5 28H14.5L16 29.5V30H15L13 28L13.0087 30H12V25ZM13.0087 27H14.9912V26H13.0087V27Z" fill="#09831F"/>
</svg>
