<svg width="37" height="25" viewBox="0 0 37 25" fill="none" xmlns="http://www.w3.org/2000/svg">
<g clip-path="url(#clip0)">
<path opacity="0.837" fill-rule="evenodd" clip-rule="evenodd" d="M2.47556 3.61719C1.18606 3.61719 0.101562 4.63969 0.101562 5.85547V19.1445C0.101562 20.3603 1.18606 21.3828 2.47556 21.3828H34.6343C35.9238 21.3828 37.0083 20.3603 37.0083 19.1445V5.85547C37.0083 4.63969 35.9238 3.61719 34.6343 3.61719H2.47556V3.61719Z" fill="#F1EAE4"/>
<path d="M34.6856 5.00012H2.42421C1.95173 5.00012 1.56871 5.38314 1.56871 5.85563V19.1446C1.56871 19.6171 1.95173 20.0001 2.42421 20.0001H34.6856C35.1581 20.0001 35.5412 19.6171 35.5412 19.1446V5.85563C35.5412 5.38314 35.1581 5.00012 34.6856 5.00012Z" fill="#DD6A6A"/>
</g>
<defs>
<clipPath id="clip0">
<path d="M0 0H37V25H0V0Z" fill="white"/>
</clipPath>
</defs>
</svg>
