<svg width="50" height="21" viewBox="0 0 50 21" fill="none" xmlns="http://www.w3.org/2000/svg">
<path opacity="0.837" fill-rule="evenodd" clip-rule="evenodd" d="M6.26298 0.0873103C5.7879 0.078303 5.32691 0.235433 4.97371 0.526763L0.781985 3.97989C0.563622 4.15987 0.394591 4.38446 0.288591 4.63547C0.18259 4.88649 0.142601 5.15686 0.171864 5.42468C0.201126 5.69249 0.298818 5.95023 0.457022 6.17699C0.615226 6.40375 0.829493 6.59317 1.08246 6.72989C2.46163 7.47325 2.82137 8.12445 2.82137 8.44668C2.82137 8.67981 2.69539 9.02729 2.04781 9.54239C1.00236 10.3744 0.161858 11.5259 0.161858 12.9115C0.161858 14.1346 0.835022 15.2141 1.71964 16.0072C2.60425 16.8004 3.72509 17.4001 5.02698 17.894C7.63078 18.8816 10.9953 19.4311 14.704 19.4311H16.6922C19.8094 19.4311 22.5924 20.0143 24.1529 20.7436C24.4156 20.8661 24.7063 20.93 25.0011 20.93C25.2959 20.93 25.5865 20.8661 25.8492 20.7436C27.4101 20.0141 30.1906 19.4311 33.3078 19.4311H35.296C39.0047 19.4311 42.3692 18.8816 44.973 17.894C46.2749 17.4001 47.3958 16.8004 48.2804 16.0072C49.165 15.2141 49.8381 14.1345 49.8381 12.9115C49.8381 11.5258 48.9976 10.3744 47.9522 9.54239C47.9522 9.54174 47.9522 9.54109 47.9522 9.54044C47.3046 9.02537 47.1786 8.6799 47.1786 8.44668C47.1786 8.12441 47.5383 7.47325 48.9175 6.72989C49.1705 6.59317 49.3848 6.40375 49.543 6.17699C49.7012 5.95023 49.7989 5.69249 49.8281 5.42468C49.8574 5.15686 49.8174 4.88649 49.7114 4.63547C49.6054 4.38446 49.4364 4.15987 49.218 3.97989L45.0263 0.526763C44.8006 0.340423 44.5288 0.207291 44.2343 0.138888C43.9399 0.0704852 43.6317 0.0688709 43.3364 0.134185C39.7191 0.937577 33.2011 2.12535 25.4102 2.07169C17.5906 2.01782 10.3097 0.887895 6.63378 0.128326C6.51198 0.103344 6.38776 0.089604 6.26298 0.0873103V0.0873103Z" fill="#F1EAE4"/>
<path fill-rule="evenodd" clip-rule="evenodd" d="M43.7772 1.80017L47.9694 5.25392C46.2933 6.15731 45.3091 7.25871 45.3091 8.44718C45.3091 9.30201 45.8181 10.1117 46.7276 10.8351C47.5135 11.4606 47.9694 12.1733 47.9694 12.9122C47.9694 15.5661 42.2958 17.7174 35.2967 17.7174H33.3077C29.9538 17.7174 26.9606 18.303 25.0002 19.2191C23.0398 18.303 20.0466 17.7174 16.6927 17.7174H14.7036C7.70461 17.7174 2.03096 15.5661 2.03096 12.9122C2.03096 12.1733 2.48689 11.4606 3.27278 10.8351C4.18223 10.1117 4.69134 9.30201 4.69134 8.44718C4.69134 7.25871 3.70709 6.15731 2.031 5.25392L6.22321 1.80017C10.0248 2.5857 17.3911 3.72939 25.3964 3.78454C33.4017 3.83969 40.0706 2.6234 43.7772 1.80017Z" fill="#DD6A6A"/>
</svg>
