<svg width="45" height="21" viewBox="0 0 45 21" fill="none" xmlns="http://www.w3.org/2000/svg">
<path opacity="0.837" fill-rule="evenodd" clip-rule="evenodd" d="M5.93622 0.337951C5.52497 0.322281 5.12333 0.45878 4.81555 0.718811L0.724893 4.17194C0.540052 4.32817 0.39599 4.52322 0.304122 4.74163C0.212254 4.96004 0.175106 5.19581 0.19562 5.43026C0.216135 5.6647 0.293749 5.89138 0.422312 6.09232C0.550875 6.29327 0.726853 6.46296 0.936302 6.58795C2.19224 7.33845 2.58857 8.02727 2.58857 8.49811C2.58857 8.83765 2.42336 9.2442 1.82093 9.77545C0.895914 10.5916 0.189187 11.6885 0.189187 12.963C0.189187 14.0897 0.75081 15.1068 1.52948 15.8809C2.30815 16.655 3.31602 17.2536 4.48715 17.7462C6.8294 18.7312 9.86571 19.2852 13.2124 19.2852H15.0063C17.8162 19.2852 20.3185 19.864 21.7385 20.5997C21.9722 20.7208 22.234 20.7842 22.5 20.7842C22.766 20.7842 23.0278 20.7208 23.2615 20.5997C24.6815 19.864 27.1838 19.2852 29.9937 19.2852H31.7876C35.1343 19.2852 38.1706 18.7312 40.5129 17.7462C41.684 17.2536 42.6919 16.655 43.4705 15.8809C44.2492 15.1068 44.8108 14.0897 44.8108 12.963C44.8108 11.6911 44.1072 10.5926 43.1811 9.77545C42.5777 9.24338 42.4114 8.83542 42.4114 8.49811C42.4114 8.02724 42.8077 7.33844 44.0637 6.58795C44.2731 6.46296 44.4491 6.29327 44.5777 6.09232C44.7063 5.89138 44.7839 5.6647 44.8044 5.43026C44.8249 5.19581 44.7877 4.96004 44.6959 4.74163C44.604 4.52322 44.4599 4.32817 44.2751 4.17194L40.1865 0.718811C39.9902 0.552952 39.7539 0.435845 39.4986 0.377916C39.2433 0.319986 38.9769 0.323031 38.7231 0.38678C35.5115 1.19224 29.8955 2.37403 22.8695 2.32037C15.8178 2.26652 9.51291 1.14173 6.25231 0.38092C6.14873 0.356554 6.04283 0.342158 5.93622 0.337951V0.337951Z" fill="#F1EAE4"/>
<path fill-rule="evenodd" clip-rule="evenodd" d="M39.1287 1.85162L43.2185 5.30537C41.7066 6.20877 40.8189 7.31016 40.8189 8.49863C40.8189 9.35346 41.2781 10.1632 42.0984 10.8866C42.8073 11.512 43.2185 12.2247 43.2185 12.9637C43.2185 15.6176 38.1009 17.7689 31.7878 17.7689H29.9937C26.9685 17.7689 24.2687 18.3544 22.5004 19.2705C20.7321 18.3544 18.0323 17.7689 15.0071 17.7689H13.213C6.89991 17.7689 1.78232 15.6176 1.78232 12.9637C1.78232 12.2247 2.19356 11.512 2.90243 10.8866C3.72275 10.1632 4.18196 9.35346 4.18196 8.49863C4.18196 7.31016 3.29417 6.20877 1.78235 5.30537L5.87215 1.85162C9.23867 2.63715 15.637 3.78085 22.8578 3.83599C30.0785 3.89114 35.8463 2.67485 39.1287 1.85162Z" fill="#DD6A6A"/>
</svg>
