<?xml version="1.0" encoding="UTF-8"?>
<svg width="32" height="32" fill="none" version="1.1" viewBox="0 0 32 32" xmlns="http://www.w3.org/2000/svg" xmlns:cc="http://creativecommons.org/ns#" xmlns:dc="http://purl.org/dc/elements/1.1/" xmlns:rdf="http://www.w3.org/1999/02/22-rdf-syntax-ns#">
 <title>SEAGRA18</title>
 <desc>seagrass</desc>
 <metadata>
  <!-- Created for Openseamap, CC BY-SA 2.0, 2021-10-13, josail, seagrass simplified SVG based on IHO NCWG2-08.9A J13.4, https://legacy.iho.int/mtg_docs/com_wg/NCWG/NCWG2/NCWG2-08.9A%20seagrass.pdf -->
  <rdf:RDF>
   <cc:Work rdf:about="">
    <dc:title>SEAGRA18</dc:title>
    <dc:format>image/svg+xml</dc:format>
    <dc:type rdf:resource="http://purl.org/dc/dcmitype/StillImage"/>
   </cc:Work>
  </rdf:RDF>
 </metadata>
 <g fill="none" stroke="#d6d6d6" stroke-linecap="round" stroke-linejoin="round" stroke-opacity=".839" stroke-width="1.5">
  <path d="m4.42 15.5c1.07-0.414 2.13-0.831 3.16-1.06 1.02-0.243 1.93-0.369 2.98-0.369 1.05-9e-3 2.19 0.171 3.34 0.342"/>
  <path d="m13.4 14.4c-0.138-0.263-0.264-0.536-0.572-0.515-0.307 0.0219-0.861 0.613-1.28 0.635-0.434 0.0109-0.921-0.526-1.28-0.515-0.371 0-0.445 0.471-0.921 0.536-0.476 0.0764-1.4-0.208-1.95-0.109-0.54 0.0989-0.786 0.471-1.33 0.69-0.551 0.219-1.26 0.416-1.97 0.624"/>
  <path d="m10.8 14.1c0.32-0.458 0.64-0.906 1.33-1.54 0.695-0.631 2.04-1.16 2.81-2.24 0.779-1.08 1.31-2.64 1.84-4.22"/>
  <path d="m10.8 14.1c0.32-0.448 0.64-0.899 1.06-1.86 0.411-0.959 1.17-2.66 1.45-3.9 0.284-1.24 0.265-2.4 0.256-3.57"/>
  <path d="m8.28 13.7c-0.375-0.124-0.749-0.246-0.695-1.14 0.0549-0.899 0.944-2.89 1.02-4.24 0.064-1.35-0.622-2.61-0.595-3.86 0.0274-1.25 0.393-2.46 0.756-3.66"/>
  <path d="m6.98 14.4c-0.21-0.174-0.43-0.339-0.439-0.801-0.00914-0.476 0.53-0.944 0.375-2.02-0.146-1.07-1.12-2.82-1.29-4.43-0.156-1.61 0.0914-3.44 0.339-5.26"/>
  <path d="m4.63 15.4c-0.43-0.539-0.861-1.08-1.42-1.87-0.549-0.786-1.58-1.84-1.89-2.85-0.311-1.02-0.11-2.47 0.0366-3.23 0.156-0.756 0.512-1.05 0.869-1.33"/>
  <path d="m6.07 14.7c-0.622-1.05-1.24-2.1-1.71-3.15-0.467-1.05-1.13-1.87-1.1-3.15 0.0366-1.28 0.686-2.91 1.33-4.54"/>
  <path d="m3.19 13.5c0.539-0.494 1.08-0.981 1.37-1.77 0.284-0.779 0.32-1.85 0.357-2.92"/>
  <path d="m8.66 14.1c0.604-0.704 1.2-1.41 1.5-2.35 0.302-0.944 0.302-2.04 0.32-3.31 0.0091-1.27-0.219-3.36-0.237-4.34-0.0091-0.981 0.0732-1.25 0.146-1.54"/>
  <path d="m9.7 14c0.467-0.667 0.936-1.33 1.21-2.32 0.274-0.996 0.237-2.25 0.439-3.65s0.485-3.07 0.756-4.75"/>
  <path d="m8.06 13.8c1.35-1.15 2.69-2.29 3.63-3.31 0.951-1.03 1.48-1.99 2.04-2.79 0.58-0.794 1.09-1.34 1.41-2 0.308-0.658 0.395-1.3 0.483-1.95"/>
  <path d="m18.5 30.7c1.07-0.414 2.13-0.831 3.16-1.06 1.02-0.243 1.93-0.369 2.98-0.369 1.05-9e-3 2.19 0.171 3.34 0.342"/>
  <path d="m27.5 29.6c-0.138-0.263-0.264-0.536-0.572-0.515-0.307 0.0219-0.861 0.613-1.28 0.635-0.434 0.0109-0.921-0.526-1.28-0.515-0.371 0-0.445 0.471-0.921 0.536-0.476 0.0764-1.4-0.208-1.95-0.109-0.54 0.0989-0.786 0.471-1.33 0.69-0.551 0.219-1.26 0.416-1.97 0.624"/>
  <path d="m24.8 29.3c0.32-0.458 0.64-0.906 1.33-1.54 0.695-0.631 2.04-1.16 2.81-2.24 0.779-1.08 1.31-2.64 1.84-4.22"/>
  <path d="m24.8 29.3c0.32-0.448 0.64-0.899 1.06-1.86 0.411-0.959 1.17-2.66 1.45-3.9 0.284-1.24 0.265-2.4 0.256-3.57"/>
  <path d="m22.4 28.9c-0.375-0.124-0.749-0.246-0.695-1.14 0.0549-0.899 0.944-2.89 1.02-4.24 0.064-1.35-0.622-2.61-0.595-3.86 0.0274-1.25 0.393-2.46 0.756-3.66"/>
  <path d="m21.1 29.6c-0.21-0.174-0.43-0.339-0.439-0.801-0.0091-0.476 0.53-0.944 0.375-2.02-0.146-1.07-1.12-2.82-1.29-4.43-0.156-1.61 0.0914-3.44 0.339-5.26"/>
  <path d="m18.7 30.6c-0.43-0.539-0.861-1.08-1.42-1.87-0.549-0.786-1.58-1.84-1.89-2.85-0.311-1.02-0.11-2.47 0.0366-3.23 0.156-0.756 0.512-1.05 0.869-1.33"/>
  <path d="m20.2 29.9c-0.622-1.05-1.24-2.1-1.71-3.15-0.467-1.05-1.13-1.87-1.1-3.15 0.0366-1.28 0.686-2.91 1.33-4.54"/>
  <path d="m17.3 28.7c0.539-0.494 1.08-0.981 1.37-1.77 0.284-0.779 0.32-1.85 0.357-2.92"/>
  <path d="m22.7 29.3c0.604-0.704 1.2-1.41 1.5-2.35 0.302-0.944 0.302-2.04 0.32-3.31 0.0091-1.27-0.219-3.36-0.237-4.34-0.0091-0.981 0.0732-1.25 0.146-1.54"/>
  <path d="m23.8 29.2c0.467-0.667 0.936-1.33 1.21-2.32 0.274-0.996 0.237-2.25 0.439-3.65s0.485-3.07 0.756-4.75"/>
  <path d="m22.1 29c1.35-1.15 2.69-2.29 3.63-3.31 0.951-1.03 1.48-1.99 2.04-2.79 0.58-0.794 1.09-1.34 1.41-2 0.308-0.658 0.395-1.3 0.483-1.95"/>
 </g>
 <g fill="none" stroke="#2e8e20" stroke-linecap="round" stroke-linejoin="round" stroke-width=".9">
  <path d="m4.42 15.5c1.07-0.414 2.13-0.831 3.16-1.06 1.02-0.243 1.93-0.369 2.98-0.369 1.05-9e-3 2.19 0.171 3.34 0.342"/>
  <path d="m13.4 14.4c-0.138-0.263-0.264-0.536-0.572-0.515-0.307 0.0219-0.861 0.613-1.28 0.635-0.434 0.0109-0.921-0.526-1.28-0.515-0.371 0-0.445 0.471-0.921 0.536-0.476 0.0764-1.4-0.208-1.95-0.109-0.54 0.0989-0.786 0.471-1.33 0.69-0.551 0.219-1.26 0.416-1.97 0.624"/>
  <path d="m10.8 14.1c0.32-0.458 0.64-0.906 1.33-1.54 0.695-0.631 2.04-1.16 2.81-2.24 0.779-1.08 1.31-2.64 1.84-4.22"/>
  <path d="m10.8 14.1c0.32-0.448 0.64-0.899 1.06-1.86 0.411-0.959 1.17-2.66 1.45-3.9 0.284-1.24 0.265-2.4 0.256-3.57"/>
  <path d="m8.28 13.7c-0.375-0.124-0.749-0.246-0.695-1.14 0.0549-0.899 0.944-2.89 1.02-4.24 0.064-1.35-0.622-2.61-0.595-3.86 0.0274-1.25 0.393-2.46 0.756-3.66"/>
  <path d="m6.98 14.4c-0.21-0.174-0.43-0.339-0.439-0.801-0.00914-0.476 0.53-0.944 0.375-2.02-0.146-1.07-1.12-2.82-1.29-4.43-0.156-1.61 0.0914-3.44 0.339-5.26"/>
  <path d="m4.63 15.4c-0.43-0.539-0.861-1.08-1.42-1.87-0.549-0.786-1.58-1.84-1.89-2.85-0.311-1.02-0.11-2.47 0.0366-3.23 0.156-0.756 0.512-1.05 0.869-1.33"/>
  <path d="m6.07 14.7c-0.622-1.05-1.24-2.1-1.71-3.15-0.467-1.05-1.13-1.87-1.1-3.15 0.0366-1.28 0.686-2.91 1.33-4.54"/>
  <path d="m3.19 13.5c0.539-0.494 1.08-0.981 1.37-1.77 0.284-0.779 0.32-1.85 0.357-2.92"/>
  <path d="m8.66 14.1c0.604-0.704 1.2-1.41 1.5-2.35 0.302-0.944 0.302-2.04 0.32-3.31 0.0091-1.27-0.219-3.36-0.237-4.34-0.0091-0.981 0.0732-1.25 0.146-1.54"/>
  <path d="m9.7 14c0.467-0.667 0.936-1.33 1.21-2.32 0.274-0.996 0.237-2.25 0.439-3.65s0.485-3.07 0.756-4.75"/>
  <path d="m8.06 13.8c1.35-1.15 2.69-2.29 3.63-3.31 0.951-1.03 1.48-1.99 2.04-2.79 0.58-0.794 1.09-1.34 1.41-2 0.308-0.658 0.395-1.3 0.483-1.95"/>
  <path d="m18.5 30.7c1.07-0.414 2.13-0.831 3.16-1.06 1.02-0.243 1.93-0.369 2.98-0.369 1.05-9e-3 2.19 0.171 3.34 0.342"/>
  <path d="m27.5 29.6c-0.138-0.263-0.264-0.536-0.572-0.515-0.307 0.0219-0.861 0.613-1.28 0.635-0.434 0.0109-0.921-0.526-1.28-0.515-0.371 0-0.445 0.471-0.921 0.536-0.476 0.0764-1.4-0.208-1.95-0.109-0.54 0.0989-0.786 0.471-1.33 0.69-0.551 0.219-1.26 0.416-1.97 0.624"/>
  <path d="m24.8 29.3c0.32-0.458 0.64-0.906 1.33-1.54 0.695-0.631 2.04-1.16 2.81-2.24 0.779-1.08 1.31-2.64 1.84-4.22"/>
  <path d="m24.8 29.3c0.32-0.448 0.64-0.899 1.06-1.86 0.411-0.959 1.17-2.66 1.45-3.9 0.284-1.24 0.265-2.4 0.256-3.57"/>
  <path d="m22.4 28.9c-0.375-0.124-0.749-0.246-0.695-1.14 0.0549-0.899 0.944-2.89 1.02-4.24 0.064-1.35-0.622-2.61-0.595-3.86 0.0274-1.25 0.393-2.46 0.756-3.66"/>
  <path d="m21.1 29.6c-0.21-0.174-0.43-0.339-0.439-0.801-0.0091-0.476 0.53-0.944 0.375-2.02-0.146-1.07-1.12-2.82-1.29-4.43-0.156-1.61 0.0914-3.44 0.339-5.26"/>
  <path d="m18.7 30.6c-0.43-0.539-0.861-1.08-1.42-1.87-0.549-0.786-1.58-1.84-1.89-2.85-0.311-1.02-0.11-2.47 0.0366-3.23 0.156-0.756 0.512-1.05 0.869-1.33"/>
  <path d="m20.2 29.9c-0.622-1.05-1.24-2.1-1.71-3.15-0.467-1.05-1.13-1.87-1.1-3.15 0.0366-1.28 0.686-2.91 1.33-4.54"/>
  <path d="m17.3 28.7c0.539-0.494 1.08-0.981 1.37-1.77 0.284-0.779 0.32-1.85 0.357-2.92"/>
  <path d="m22.7 29.3c0.604-0.704 1.2-1.41 1.5-2.35 0.302-0.944 0.302-2.04 0.32-3.31 0.0091-1.27-0.219-3.36-0.237-4.34-0.0091-0.981 0.0732-1.25 0.146-1.54"/>
  <path d="m23.8 29.2c0.467-0.667 0.936-1.33 1.21-2.32 0.274-0.996 0.237-2.25 0.439-3.65s0.485-3.07 0.756-4.75"/>
  <path d="m22.1 29c1.35-1.15 2.69-2.29 3.63-3.31 0.951-1.03 1.48-1.99 2.04-2.79 0.58-0.794 1.09-1.34 1.41-2 0.308-0.658 0.395-1.3 0.483-1.95"/>
 </g>
</svg>
