<?xml version="1.0" encoding="UTF-8"?>
<svg width="32" height="32" fill="none" version="1.1" viewBox="0 0 32 32" xmlns="http://www.w3.org/2000/svg" xmlns:cc="http://creativecommons.org/ns#" xmlns:dc="http://purl.org/dc/elements/1.1/" xmlns:rdf="http://www.w3.org/1999/02/22-rdf-syntax-ns#">
 <title>STOGVL01P</title>
 <desc>stones and gravel</desc>
 <metadata>
  <!-- stones and gravel SVG 2013-10-30 for openseamap, based on INT-1 J20 -->
  <rdf:RDF>
   <cc:Work rdf:about="">
    <dc:title>STOGVL01P</dc:title>
   </cc:Work>
  </rdf:RDF>
 </metadata>
 <defs>
  <clipPath id="a">
   <path d="m0.48 0.64h208v96h-208z"/>
  </clipPath>
 </defs>
 <g transform="matrix(.142 0 0 .142 -1.56 -1.01)" fill="none" stroke="#000" stroke-linejoin="round">
  <path transform="matrix(4.8 0 0 4.8 6.79 .788)" d="m7.54 3.43c-1.62 0.38-3.83 2.84-4.25 4.5-0.41 1.67 0.34 4.96 1.75 5.5 1.42 0.54 5.42-0.96 6.75-2.25 1.34-1.29 2.05-4.33 1.25-5.5-0.79-1.16-3.87-2.62-5.5-2.25" clip-path="url(#a)" stroke-width="2.5px"/>
  <g stroke-width="12px">
   <path d="m186 22.6c-0.864 1.92 2.06 20.7 3.55 22.6 1.44 1.82 5.95-7.87 5.28-11.6-0.624-3.79-7.97-12.9-8.83-10.9"/>
   <path d="m113 188c3.55-4.46 19.9 0.816 22.1 3.84 2.26 3.02-9.12 9.6-8.64 14.4s13.6 12.3 11.5 14.4c-2.06 2.06-17.9 1.58-24-1.92-6.05-3.5-4.46-26.3-0.96-30.7"/>
   <path d="m80.4 90.2c-5.76-3.22-20.2 9.6-17.3 15.4 2.88 5.76 30.1 20.8 34.6 19.2 4.51-1.63-11.5-31.4-17.3-34.6"/>
   <path d="m192 124c-4.03-0.144 3.98 20.8 7.68 27.8 3.65 7.06 10.4 14.3 14.4 14.4 3.98 0.192 13.1-6.86 9.6-13.4-3.55-6.53-27.7-28.6-31.7-28.8"/>
   <path d="m47.9 201 29.5 8.93"/>
   <path d="m39.3 166v-24.7"/>
   <path d="m82.5 176 6.38-18.5"/>
   <path d="m177 83.5-12.3 22.8"/>
   <path d="m113 41.4v24.7"/>
   <path d="m159 53.8h8.16"/>
   <path d="m136 144h8.16"/>
   <path d="m148 157h18.1"/>
   <path d="m200 207-16.6-9.26"/>
  </g>
 </g>
</svg>
