<svg width="16" height="16" viewBox="0 0 16 16" fill="none" xmlns="http://www.w3.org/2000/svg">
<path d="M7.78906 1.49576C7.70811 1.49704 7.67117 1.502 7.66685 1.50246C6.45453 1.56905 5.77117 2.59989 5.70299 3.66555L5.58244 3.52324C5.27965 3.15234 4.80218 2.93073 4.32343 2.93726C3.71955 2.94547 3.13613 3.32896 2.88863 3.87985C2.64112 4.43074 2.74318 5.12057 3.13808 5.57751L3.12804 5.56746L4.75705 7.50788C5.09971 7.91623 5.65653 8.13237 6.18516 8.06372L6.12154 8.07042L6.84648 8.02521L7.2349 9.55042L5.74819 10.8931C5.74252 10.8982 5.73706 10.9031 5.73145 10.9082C5.19253 11.3867 5.04083 12.1899 5.26769 12.8704C5.42079 13.6756 6.149 14.3492 6.97372 14.342C6.97428 14.342 6.97483 14.342 6.97539 14.342L10.8194 14.3002C11.7434 14.2905 12.5753 13.4411 12.5656 12.5171C12.5587 11.8676 12.0868 11.3788 11.5159 11.0807C12.0215 10.5842 12.2701 9.82314 12.0215 9.15531L12.0818 9.52531C12.0896 9.28821 12.0615 9.0512 11.9997 8.82214L11.2832 6.0128C11.112 5.29845 10.5346 4.80537 9.87012 4.49931C10.0144 4.14164 10.102 3.75321 10.0174 3.32736C9.81783 2.2715 8.86881 1.47844 7.78906 1.49576ZM6.45973 5.54235C6.46544 5.54673 6.47242 5.54474 6.47815 5.54904C6.48244 5.55215 6.4822 5.55767 6.48652 5.56076L6.45974 5.54235L6.45973 5.54235Z" fill="white"/>
</svg>
