<svg width="16" height="16" viewBox="0 0 16 16" fill="none" xmlns="http://www.w3.org/2000/svg">
<path d="M6.39191 1.5802C6.25577 1.58005 6.12092 1.60674 5.9951 1.65873C5.86927 1.71073 5.75493 1.78702 5.6586 1.88323L5.65526 1.88658C5.5342 2.00791 5.44514 2.15738 5.39605 2.32159C5.34696 2.48581 5.33938 2.65963 5.37399 2.82749L6.042 6.10059L2.8928 5.23669C2.66162 5.17334 2.41562 5.1921 2.19673 5.28979C1.97784 5.38749 1.7996 5.55806 1.69238 5.77244L1.69071 5.77579C1.61832 5.91969 1.58049 6.07848 1.58021 6.23955V9.76211C1.58049 9.92318 1.61832 10.082 1.69071 10.2259L1.69238 10.2292C1.79752 10.4393 1.97094 10.6074 2.18419 10.706C2.39744 10.8046 2.63786 10.8277 2.86601 10.7717L6.042 9.98645L5.37399 13.1691C5.32721 13.3931 5.35587 13.6262 5.45552 13.8322C5.55516 14.0381 5.72017 14.2053 5.92481 14.3076L5.92816 14.3093C6.07205 14.3817 6.23084 14.4195 6.39191 14.4198H9.60641C9.76749 14.4195 9.92628 14.3817 10.0702 14.3093L10.0735 14.3076C10.285 14.2015 10.4539 14.0262 10.552 13.8109C10.65 13.5955 10.6714 13.3531 10.6126 13.1239L9.80731 9.98641L13.1424 10.7733C13.3142 10.8141 13.4936 10.8103 13.6636 10.7622C13.8335 10.7142 13.9884 10.6235 14.1134 10.4987L14.1167 10.4954C14.213 10.3991 14.2893 10.2847 14.3412 10.1589C14.3932 10.0331 14.4199 9.89822 14.4198 9.76207V6.23952C14.4196 5.96515 14.3107 5.70204 14.1168 5.50792L14.1134 5.50457C13.9856 5.37621 13.8263 5.28362 13.6515 5.23603C13.4767 5.18844 13.2925 5.18751 13.1172 5.23335L9.80732 6.10059L10.6143 2.87102C10.6576 2.69773 10.6555 2.51617 10.6079 2.34397C10.5604 2.17177 10.4692 2.01479 10.3431 1.88826L10.3397 1.88491C10.2435 1.78839 10.1293 1.71179 10.0034 1.6595C9.87759 1.60722 9.74268 1.58027 9.60641 1.5802H6.39191Z" fill="white"/>
</svg>
