<svg width="16" height="16" viewBox="0 0 16 16" fill="none" xmlns="http://www.w3.org/2000/svg">
<path fill-rule="evenodd" clip-rule="evenodd" d="M7.30655 1.73743C7.19031 1.7392 7.07614 1.76846 6.97338 1.82281L6.42256 2.11245C6.06301 2.30212 5.92513 2.74724 6.1145 3.10694L6.71387 4.24206C6.81265 4.34084 6.75505 4.28324 6.81265 4.34084C6.68777 4.58501 6.5071 4.93166 6.2903 5.3437C5.85735 6.16653 5.28004 7.25003 4.70481 8.32715C3.55454 10.481 2.40946 12.6115 2.40946 12.6115L2.16167 13.0685C1.89619 13.5599 2.2528 14.1564 2.81127 14.1551L4.96934 14.1518L12.5803 14.1384H13.0793C13.1089 14.138 13.1386 14.1357 13.168 14.1317C13.1871 14.1296 13.2061 14.1268 13.2249 14.1233L13.24 14.12C13.2592 14.1157 13.2781 14.1107 13.2969 14.1049C13.7538 13.9731 13.9678 13.4492 13.7339 13.0351L13.4945 12.6149L13.4878 12.6015L13.4845 12.5948L13.4643 12.558L9.16995 4.41116L9.83127 3.16554C10.022 2.80588 9.8848 2.35967 9.52489 2.16938L8.97574 1.87806C8.62203 1.69055 8.18331 1.81993 7.98795 2.16938L7.96786 2.13087C7.83891 1.88583 7.58342 1.73383 7.30655 1.73743Z" fill="white"/>
</svg>
