<svg width="16" height="16" viewBox="0 0 16 16" fill="none" xmlns="http://www.w3.org/2000/svg">
<path fill-rule="evenodd" clip-rule="evenodd" d="M9.81182 1.21259C9.24171 1.21216 8.72316 1.73071 8.72358 2.30083V2.93871L8.5143 2.82653C8.2007 2.65921 7.80496 2.65921 7.49136 2.82653L1.80404 5.86022C1.80348 5.86022 1.80292 5.86022 1.80236 5.86022C1.20722 6.1789 1.0685 7.10765 1.54453 7.58634C1.54509 7.58689 1.54565 7.58745 1.54621 7.58801L1.92291 7.96471C2.04045 8.08296 2.22706 8.00744 2.38499 8.06014V12.5872C2.38457 13.1573 2.90312 13.6759 3.47323 13.6755H4.18645C4.75656 13.6759 5.27511 13.1573 5.27469 12.5872V7.44738L7.99864 7.12425L8.72358 7.21131V7.6734H7.45955C6.88943 7.67297 6.37088 8.19152 6.3713 8.76164V9.15508V9.15675C6.35679 9.22668 6.28444 9.27446 6.28424 9.34594C6.28424 9.3465 6.28424 9.34705 6.28424 9.34761V12.6425C6.28382 13.2126 6.80237 13.7311 7.37249 13.7307H8.09073C8.48278 13.731 8.78164 13.4549 8.97304 13.1163C9.17534 13.4055 9.45698 13.6322 9.81182 13.6319H10.3174C10.5704 13.6321 10.7985 13.5024 10.9905 13.3389C11.1919 13.543 11.4646 13.6757 11.7522 13.6755H12.4638C13.0339 13.6759 13.5525 13.1573 13.552 12.5872V8.07855C13.7381 8.02853 13.9514 8.10442 14.0861 7.96638L14.4645 7.58131C14.465 7.58076 14.4656 7.5802 14.4662 7.57964C14.9354 7.09894 14.7939 6.17728 14.2017 5.86022C14.2011 5.86022 14.2005 5.86022 14.2 5.86022L11.4057 4.36849V2.30083C11.4061 1.73071 10.8876 1.21216 10.3174 1.21259H9.81182Z" fill="white"/>
</svg>
