<svg width="16" height="16" viewBox="0 0 16 16" fill="none" xmlns="http://www.w3.org/2000/svg">
<g clip-path="url(#clip0)">
<path opacity="0.804" fill-rule="evenodd" clip-rule="evenodd" d="M9.46289 3.68946C9.27098 3.698 9.08772 3.77171 8.94336 3.89844C8.75715 3.77599 8.53008 3.73212 8.31166 3.77639C8.09324 3.82066 7.90118 3.94948 7.77734 4.13477C7.66313 4.09443 7.54158 4.07913 7.42093 4.08992C7.30028 4.1007 7.18337 4.13731 7.07812 4.19727L7.27539 4.08399L6.30078 3.94141C6.11794 3.91485 5.93143 3.94899 5.76985 4.0386C5.60827 4.12821 5.48054 4.26834 5.40625 4.43751L5.24219 4.81055L4.33789 4.84961C4.16563 4.85695 3.99974 4.91684 3.86252 5.02124C3.7253 5.12563 3.62333 5.26954 3.57031 5.4336L3.35156 6.10743L2.56836 6.44532C2.45803 6.49296 2.35915 6.5636 2.27831 6.65252C2.19748 6.74144 2.13655 6.84659 2.09961 6.96094L1.84961 7.73047L0.947263 8.36329C0.852855 8.42933 0.772961 8.514 0.712501 8.61208C0.65204 8.71017 0.612291 8.81958 0.595701 8.9336L0.472654 9.78516L0.287107 9.94727C0.177353 10.0436 0.0944657 10.1668 0.0465398 10.3047C-0.00138612 10.4427 -0.0127116 10.5907 0.0136694 10.7344L0.181638 11.6504C0.217398 11.8445 0.320006 12.0199 0.471643 12.1462C0.623281 12.2725 0.814367 12.3417 1.01172 12.3418H7.49609C7.67199 12.3414 7.84338 12.2861 7.98633 12.1836C8.12981 12.2865 8.30195 12.3418 8.47851 12.3418H15.1289C15.253 12.3418 15.3755 12.3145 15.4879 12.2618C15.6002 12.209 15.6995 12.1322 15.7788 12.0367C15.858 11.9412 15.9152 11.8295 15.9464 11.7094C15.9775 11.5893 15.9818 11.4638 15.959 11.3418L15.498 8.89844C15.4758 8.78139 15.4291 8.67035 15.3609 8.57264C15.2928 8.47493 15.2047 8.39275 15.1025 8.3315C15.0003 8.27026 14.8863 8.23133 14.768 8.21729C14.6497 8.20324 14.5297 8.21439 14.416 8.25001L14.1875 7.69336C14.1165 7.52168 13.9909 7.37821 13.8301 7.28516L13.5371 7.11524L13.5977 6.87305C13.6299 6.74157 13.63 6.60427 13.5981 6.47272C13.5661 6.34118 13.503 6.21924 13.4141 6.11719L12.6152 5.19922C12.5112 5.08035 12.3758 4.99306 12.2246 4.94727L11.4258 4.70313C11.2575 4.65127 11.0772 4.65332 10.9102 4.70899L10.8086 4.60743C10.8028 4.60148 10.797 4.59562 10.791 4.58985L10.0781 3.91797C9.99602 3.84075 9.89928 3.78075 9.79361 3.7415C9.68795 3.70225 9.5755 3.68456 9.46289 3.68946V3.68946Z" fill="#EBE7E4"/>
</g>
<defs>
<clipPath id="clip0">
<path d="M0 0H16V16H0V0Z" fill="white"/>
</clipPath>
</defs>
</svg>
