<?xml version="1.0" encoding="UTF-8" standalone="no"?>
<svg
   xmlns:dc="http://purl.org/dc/elements/1.1/"
   xmlns:cc="http://creativecommons.org/ns#"
   xmlns:rdf="http://www.w3.org/1999/02/22-rdf-syntax-ns#"
   xmlns:svg="http://www.w3.org/2000/svg"
   xmlns="http://www.w3.org/2000/svg"
   xmlns:sodipodi="http://sodipodi.sourceforge.net/DTD/sodipodi-0.dtd"
   xmlns:inkscape="http://www.inkscape.org/namespaces/inkscape"
   width="16"
   height="16"
   viewBox="0 0 16 16"
   fill="none"
   version="1.1"
   id="svg4"
   sodipodi:docname="h_topo_sikh_shield.svg"
   inkscape:version="0.92.5 (2060ec1f9f, 2020-04-08)">
  <metadata
     id="metadata10">
    <rdf:RDF>
      <cc:Work
         rdf:about="">
        <dc:format>image/svg+xml</dc:format>
        <dc:type
           rdf:resource="http://purl.org/dc/dcmitype/StillImage" />
      </cc:Work>
    </rdf:RDF>
  </metadata>
  <defs
     id="defs8" />
  <sodipodi:namedview
     pagecolor="#ffffff"
     bordercolor="#666666"
     borderopacity="1"
     objecttolerance="10"
     gridtolerance="10"
     guidetolerance="10"
     inkscape:pageopacity="0"
     inkscape:pageshadow="2"
     inkscape:window-width="1920"
     inkscape:window-height="1014"
     id="namedview6"
     showgrid="false"
     inkscape:zoom="20.85965"
     inkscape:cx="3.4273945"
     inkscape:cy="4.3461717"
     inkscape:window-x="1920"
     inkscape:window-y="0"
     inkscape:window-maximized="1"
     inkscape:current-layer="svg4" />
  <path
     style="fill:#ffffff;fill-opacity:1;stroke-width:0.02323703"
     d="M 7.9665689,1.1552466 C 7.5579222,1.1596999 7.1943173,1.4156193 7.0522299,1.7987942 6.9394683,1.9239724 6.5260274,2.1424585 6.1027882,2.8351565 6.0072171,2.9922096 5.9574276,3.1728413 5.9590348,3.3566808 c 8.644e-4,0.1288506 0.015412,0.073967 0.016715,0.085249 -0.00811,0.00488 -0.018363,0.01661 -0.026745,0.02173 C 5.9129823,3.4336322 5.8964119,3.3626039 5.8604132,3.3399652 5.5056557,3.1168667 5.117395,3.1405258 4.7488311,3.363367 4.3061001,3.5589099 3.9333872,3.8203314 3.7124688,4.0236301 3.7033844,4.0323762 3.6944672,4.0412895 3.685724,4.0503748 2.8225642,4.9095402 2.4181247,6.1088604 2.4888927,7.2831566 2.534158,8.847793 3.3326787,10.189851 4.1303568,11.229692 l -0.023402,-0.03009 c 0.3046734,0.429998 0.5252764,0.756579 0.5850432,0.986215 0.2158608,0.211829 0.4256769,0.524847 0.601759,0.750528 0.021934,0.0094 0.044653,-0.0027 0.066862,0.005 0.099416,0.721685 0.7388315,1.110332 1.4458926,1.017974 0.1635195,0.301192 0.3668391,0.522638 0.5048088,0.626833 0.068203,0.05483 0.1474713,0.116524 0.2992079,0.175513 0.090953,0.03536 0.2624261,0.0063 0.4095302,0.0084 0.1292694,-0.0069 0.2872713,0.0252 0.3694129,-0.0067 0.1519362,-0.05898 0.2307589,-0.122108 0.2992079,-0.177184 0.1379697,-0.104195 0.3412892,-0.32564 0.5048087,-0.626832 0.7070623,0.09239 1.346415,-0.296345 1.445892,-1.017976 0.02221,-0.0077 0.04493,0.0043 0.06687,-0.005 0.161398,-0.277081 0.423432,-0.484028 0.601761,-0.750527 0.05976,-0.229609 0.280363,-0.556176 0.585042,-0.986215 l -0.0234,0.03009 c 0.79767,-1.039881 1.596189,-2.3819392 1.641455,-3.9465744 0.07076,-1.1742907 -0.333671,-2.3736151 -1.196831,-3.2327818 -0.0087,-0.00908 -0.01766,-0.018001 -0.02674,-0.026745 C 12.066631,3.8203492 11.693919,3.5589143 11.251168,3.363367 10.882912,3.1413167 10.493797,3.1172628 10.139586,3.3399651 c -0.03606,0.022669 -0.05251,0.093611 -0.08859,0.1236948 -0.0084,-0.00512 -0.01864,-0.016853 -0.02674,-0.02173 0.0013,-0.011288 0.01586,0.043669 0.01671,-0.085249 C 10.042606,3.1728413 9.9927771,2.9922095 9.8972116,2.8351563 9.4739903,2.1424253 9.0605598,1.9240025 8.94777,1.7987942 8.7999144,1.3992799 8.4123429,1.1397755 7.9866275,1.1552466 c -0.00669,-6.8e-5 -0.013372,-6.8e-5 -0.020059,0 z"
     id="path2"
     inkscape:connector-curvature="0"
     sodipodi:nodetypes="cccccccccccccccccccccccccccccccccccccccc" />
</svg>
