<?xml version="1.0" encoding="UTF-8" standalone="no"?>
<svg
   xmlns:dc="http://purl.org/dc/elements/1.1/"
   xmlns:cc="http://creativecommons.org/ns#"
   xmlns:rdf="http://www.w3.org/1999/02/22-rdf-syntax-ns#"
   xmlns:svg="http://www.w3.org/2000/svg"
   xmlns="http://www.w3.org/2000/svg"
   xmlns:sodipodi="http://sodipodi.sourceforge.net/DTD/sodipodi-0.dtd"
   xmlns:inkscape="http://www.inkscape.org/namespaces/inkscape"
   width="16"
   height="16"
   viewBox="0 0 16 16"
   fill="none"
   version="1.1"
   id="svg4"
   sodipodi:docname="h_topo_shinto_shield.svg"
   inkscape:version="0.92.5 (2060ec1f9f, 2020-04-08)">
  <metadata
     id="metadata10">
    <rdf:RDF>
      <cc:Work
         rdf:about="">
        <dc:format>image/svg+xml</dc:format>
        <dc:type
           rdf:resource="http://purl.org/dc/dcmitype/StillImage" />
      </cc:Work>
    </rdf:RDF>
  </metadata>
  <defs
     id="defs8" />
  <sodipodi:namedview
     pagecolor="#ffffff"
     bordercolor="#666666"
     borderopacity="1"
     objecttolerance="10"
     gridtolerance="10"
     guidetolerance="10"
     inkscape:pageopacity="0"
     inkscape:pageshadow="2"
     inkscape:window-width="1720"
     inkscape:window-height="1051"
     id="namedview6"
     showgrid="false"
     inkscape:zoom="41.7193"
     inkscape:cx="7.7161311"
     inkscape:cy="7.9569318"
     inkscape:window-x="200"
     inkscape:window-y="0"
     inkscape:window-maximized="1"
     inkscape:current-layer="svg4" />
  <path
     style="fill:#ffffff;fill-opacity:1;stroke-width:0.02290911"
     d="M 2.7523712,1.479289 C 2.6083751,1.4676944 2.4552534,1.4674774 2.2587484,1.5226222 2.0622433,1.5777671 1.7765471,1.7127973 1.5974445,2.0332016 1.3511374,2.4738531 1.4744344,2.6291962 1.4994736,2.745375 c 0.025039,0.1161788 0.053671,0.191327 0.084783,0.265652 0.062222,0.14865 0.1363939,0.2822529 0.2279708,0.4220287 0.034628,0.052852 0.1795948,0.3998851 0.1846376,0.4220286 0.092942,0.4081068 0.4232422,0.909042 0.7592748,1.1549267 0.071716,0.052478 0.1397523,0.094875 0.2091303,0.1394203 0.01621,0.076242 0.00807,0.1157378 0.073478,0.2449273 0.00839,0.016575 0.033403,0.02122 0.043334,0.037682 -0.00609,0.010387 -0.00897,3.891e-4 -0.015073,0.011305 -0.1344653,0.2405984 -0.1159948,0.3106417 -0.1281159,0.3918838 -0.012121,0.081242 -0.017364,0.148512 -0.020724,0.2166665 -0.00672,0.1363089 -0.00563,0.2732617 0,0.4126083 0.00563,0.1393468 0.015814,0.2759674 0.033913,0.4107244 0.00905,0.067378 0.018276,0.1314675 0.039566,0.2166666 0.02122,0.084925 -0.029453,0.165044 0.2373911,0.4615938 0.2959394,0.328161 0.3808242,0.2610545 0.4521736,0.2826085 0.071349,0.021554 0.1141415,0.029768 0.1582608,0.037682 0.088238,0.015827 0.1685448,0.025285 0.2581157,0.033913 0.020145,0.00194 0.048748,0.00196 0.069711,0.00377 -0.00532,0.017296 -0.022162,0.018003 -0.026377,0.035797 -0.079277,0.3346676 0.00765,0.534904 0.050869,0.6537677 0.04322,0.1188637 0.080277,0.1942919 0.1224636,0.2844926 -0.035404,-0.075695 0.039421,0.2026056 0.028261,2.1044902 -0.00434,0.740668 -0.00127,1.321575 0.011305,1.746521 0.00629,0.212473 0.013785,0.384381 0.026377,0.531305 0.012591,0.146923 -0.066858,0.147433 0.1262318,0.546376 0.3128282,0.646295 0.8185664,0.700014 1.2001441,0.712173 0.1907888,0.0061 0.3829168,-0.01332 0.6010141,-0.09797 0.2180972,-0.08466 0.4990461,-0.257455 0.6594198,-0.601014 0.1050258,-0.224969 0.075586,-0.233338 0.082898,-0.278841 0.00731,-0.0455 0.011359,-0.08015 0.015072,-0.116811 0.00743,-0.07332 0.013022,-0.151777 0.01884,-0.246811 0.011637,-0.190069 0.023273,-0.440352 0.033913,-0.740434 0.02128,-0.600165 0.039083,-1.397474 0.050869,-2.257101 0.011691,-0.8515009 0.025133,-1.6292131 0.037682,-2.1930411 5.333e-4,-0.023962 0.00135,-0.033336 0.00188,-0.056522 0.2795833,-0.0075 0.562355,-0.015065 0.9194196,-0.020724 l 0.8139125,-0.013189 c -1.593e-4,0.00133 1.597e-4,0.00435 0,0.00565 -0.00489,0.039682 -0.012471,0.067168 -0.00942,0.054638 5.721e-4,-0.00235 0.036613,-0.055796 0.033913,-0.06029 h 0.04334 C 8.9338924,8.0535728 8.833733,8.1981197 8.8284539,8.3504434 8.8200999,8.5914848 8.8838061,8.7772363 8.9509175,8.9213126 8.8163031,8.6323631 8.8867075,8.7140419 8.8887437,8.7291389 c 0.00204,0.015097 0.00631,0.05998 0.011305,0.1186955 0.00998,0.1174304 0.020948,0.2966825 0.032029,0.5124634 0.022162,0.431562 0.044225,1.0150912 0.058406,1.6372452 0.016609,0.728688 0.037582,1.319612 0.062174,1.750289 0.012296,0.215338 0.025307,0.38926 0.04145,0.535071 0.00807,0.07291 0.015234,0.136174 0.030145,0.2129 0.014911,0.07673 -0.073283,0.09721 0.1902897,0.448404 0.2751776,0.366596 0.5340371,0.400908 0.7272466,0.444638 0.193208,0.04373 0.362235,0.05226 0.533188,0.04521 0.170952,-0.007 0.338482,-0.02787 0.531303,-0.09044 0.192822,-0.06257 0.482067,-0.125687 0.710289,-0.576521 0.13992,-0.276416 0.0998,-0.300797 0.109276,-0.373044 0.0095,-0.07224 0.01443,-0.136304 0.01884,-0.20913 0.0088,-0.145653 0.01239,-0.319555 0.01508,-0.533188 0.0053,-0.427265 9.57e-4,-1.005142 -0.01319,-1.701303 l -0.03768,-1.8991292 0.01508,-0.01884 c 0.07974,-0.1047652 0.160191,-0.2113189 0.239275,-0.3937679 0.07855,-0.1812235 0.148944,-0.5141893 0.03203,-0.8346371 0.04694,-0.00559 0.0933,-0.00802 0.143189,-0.016956 0.04499,-0.00806 0.09094,-0.016391 0.165797,-0.039566 0.07487,-0.023173 0.17568,0.056661 0.478551,-0.3202896 0.314588,-0.3916608 0.230351,-0.4820723 0.256231,-0.633043 0.02588,-0.1509707 0.04031,-0.299085 0.0471,-0.4484056 0.0068,-0.1493205 0.0062,-0.2939979 -0.0075,-0.4484054 -0.0068,-0.077204 -0.0143,-0.1543443 -0.04145,-0.2618839 -0.01793,-0.071024 -0.125349,-0.2212964 -0.211014,-0.3542026 0.0057,-0.010908 0.01724,-0.017416 0.02261,-0.028261 0.0011,-6.335e-4 0.0046,-0.00126 0.0057,-0.00188 0.102298,-0.062257 0.170585,-0.1189746 0.237392,-0.1771013 0.133613,-0.1162534 0.248858,-0.2383779 0.359855,-0.3692751 0.110996,-0.1308972 0.213778,-0.2653413 0.3071,-0.4144925 0.09332,-0.1491512 0.239276,-0.19936 0.239276,-0.7234777 0,0.279952 0.03085,-0.016573 0.04145,-0.035797 0.11552,-0.209484 0.206849,-0.4042942 0.258116,-0.663188 0.05127,-0.2588938 0.06019,-0.7223824 -0.305217,-1.0739123 C 13.827487,1.4429115 13.39728,1.467292 13.144827,1.5150861 12.892376,1.56288 12.696497,1.649821 12.483524,1.7600134 12.338079,1.8352637 11.873221,1.99116 11.76193,2.0105929 c -0.306617,0.053539 -0.679957,0.1315605 -0.930724,0.197826 0.123715,-0.032692 -0.01372,-5.501e-4 -0.14884,0.011305 -0.135119,0.011854 -0.324199,0.025761 -0.544493,0.037682 C 9.697286,2.2812451 9.126375,2.3024758 8.5439613,2.313927 6.7763315,2.3486829 6.346339,2.3328657 5.6594707,2.2197244 5.1576651,2.1370693 4.6811019,2.0613364 4.4630947,2.0350856 4.3683055,2.023673 3.6523344,1.7874155 3.5549793,1.7317525 3.2946399,1.5829001 3.0403635,1.5024781 2.7523712,1.479289 Z M 13.252218,4.9760981 c 0.0026,-0.010944 0.01237,-0.025474 -0.0095,0.016956 -0.01089,0.021215 -0.02415,0.057066 -0.09421,0.135652 -0.0014,0.00155 -0.01174,0.00399 -0.01319,0.00565 0.02187,-0.056162 0.105389,-0.1095237 0.116811,-0.1582607 z"
     id="path2"
     inkscape:connector-curvature="0"
     sodipodi:nodetypes="sscsccccccccccsccccccccsccccccccccsscccccccccscccsscccccssccccccccccccccsccccsscccccscccscscccscccccc" />
</svg>
