<svg width="16" height="16" viewBox="0 0 16 16" fill="none" xmlns="http://www.w3.org/2000/svg">
<path fill-rule="evenodd" clip-rule="evenodd" d="M5.36688 1.45695C5.11478 1.46022 4.8739 1.56173 4.69551 1.7399L1.54798 4.88743C1.42032 5.015 1.33088 5.17574 1.28975 5.35147C1.24863 5.52721 1.25747 5.71094 1.31527 5.88191L2.1641 8.39659C2.21666 8.55279 2.30824 8.69299 2.43016 8.80388C2.55209 8.91477 2.70031 8.99269 2.86078 9.03025C3.02125 9.06781 3.18866 9.06377 3.34713 9.01851C3.50561 8.97325 3.64989 8.88826 3.76632 8.77161L4.93828 7.59966C5.19858 7.85912 5.51669 8.17608 5.88756 8.5456C5.18675 9.24548 4.46799 9.96276 3.91365 10.5178C3.20557 11.2268 2.75943 11.6703 2.58767 11.8522C2.02743 12.446 2.0575 13.4968 2.65129 14.0571C3.24508 14.6174 4.29424 14.5873 4.85457 13.9935C4.81268 14.0379 5.00491 13.8415 5.23126 13.6135C5.45762 13.3854 5.76717 13.073 6.12027 12.7194C6.67434 12.1646 7.39335 11.4471 8.09585 10.7455C8.78235 11.4285 9.49173 12.132 10.0379 12.6742C10.773 13.4038 11.228 13.8567 11.4192 14.037C12.0078 14.6276 13.0889 14.6118 13.6593 14.0035C14.2297 13.3953 14.1775 12.313 13.5505 11.7634C13.5613 11.7729 13.3975 11.6126 13.1721 11.3901C12.9321 11.1532 12.6051 10.8304 12.2328 10.4609C11.6908 9.92283 10.9868 9.22016 10.3041 8.54057C10.6363 8.2092 10.8994 7.94638 11.1329 7.71351L12.2429 8.82352C12.3593 8.94016 12.5036 9.02515 12.6621 9.07041C12.8206 9.11567 12.988 9.11971 13.1484 9.08215C13.3089 9.04459 13.4571 8.96667 13.5791 8.85578C13.701 8.74489 13.7926 8.60469 13.8451 8.44849L14.6906 5.94721C14.7484 5.77623 14.7572 5.5925 14.7161 5.41677C14.675 5.24103 14.5855 5.0803 14.4579 4.95272L11.3271 1.82193C11.2372 1.73194 11.1305 1.66054 11.013 1.61183C10.8955 1.56312 10.7695 1.53805 10.6423 1.53805C10.5151 1.53805 10.3892 1.56312 10.2717 1.61183C10.1542 1.66054 10.0475 1.73194 9.95758 1.82193L8.28336 3.49615C8.14961 3.6304 8.05821 3.80097 8.02051 3.9867C7.99419 3.77335 7.89758 3.57484 7.74594 3.42249L6.06502 1.7399C5.97348 1.64846 5.86452 1.57631 5.74461 1.52771C5.62469 1.47911 5.49625 1.45505 5.36688 1.45695V1.45695ZM8.00879 4.30145C8.03512 4.5148 8.13172 4.7133 8.28336 4.86566L8.92794 5.51024C8.69301 5.74457 8.42894 6.00833 8.09418 6.34232C7.72185 5.97163 7.40445 5.65481 7.14322 5.39472L7.74594 4.792C7.8797 4.65774 7.97109 4.48717 8.00879 4.30145V4.30145Z" fill="white"/>
</svg>
