<?xml version="1.0" encoding="UTF-8" standalone="no"?>
<svg
   xmlns:dc="http://purl.org/dc/elements/1.1/"
   xmlns:cc="http://creativecommons.org/ns#"
   xmlns:rdf="http://www.w3.org/1999/02/22-rdf-syntax-ns#"
   xmlns:svg="http://www.w3.org/2000/svg"
   xmlns="http://www.w3.org/2000/svg"
   xmlns:sodipodi="http://sodipodi.sourceforge.net/DTD/sodipodi-0.dtd"
   xmlns:inkscape="http://www.inkscape.org/namespaces/inkscape"
   width="16"
   height="16"
   viewBox="0 0 16 16"
   fill="none"
   version="1.1"
   id="svg35"
   sodipodi:docname="h_topo_scree.svg"
   inkscape:version="0.92.5 (2060ec1f9f, 2020-04-08)">
  <metadata
     id="metadata39">
    <rdf:RDF>
      <cc:Work
         rdf:about="">
        <dc:format>image/svg+xml</dc:format>
        <dc:type
           rdf:resource="http://purl.org/dc/dcmitype/StillImage" />
      </cc:Work>
    </rdf:RDF>
  </metadata>
  <sodipodi:namedview
     pagecolor="#ffffff"
     bordercolor="#666666"
     borderopacity="1"
     objecttolerance="10"
     gridtolerance="10"
     guidetolerance="10"
     inkscape:pageopacity="0"
     inkscape:pageshadow="2"
     inkscape:window-width="1720"
     inkscape:window-height="1051"
     id="namedview37"
     showgrid="false"
     inkscape:zoom="20.85965"
     inkscape:cx="8.6354294"
     inkscape:cy="8.5560007"
     inkscape:window-x="200"
     inkscape:window-y="0"
     inkscape:window-maximized="1"
     inkscape:current-layer="svg35" />
  <path
     style="fill:#91806c;fill-opacity:1"
     inkscape:connector-curvature="0"
     id="path2"
     d="m 6.5468,4.99121 c 0.27614,0 0.5,-0.22386 0.5,-0.5 0,-0.27614 -0.22386,-0.5 -0.5,-0.5 -0.27614,0 -0.5,0.22386 -0.5,0.5 0,0.27614 0.22386,0.5 0.5,0.5 z" />
  <path
     style="fill:#91806c;fill-opacity:1"
     inkscape:connector-curvature="0"
     id="path4"
     d="m 3.50002,7.98096 c 0.27614,0 0.5,-0.22386 0.5,-0.5 0,-0.27615 -0.22386,-0.5 -0.5,-0.5 -0.27615,0 -0.5,0.22385 -0.5,0.5 0,0.27614 0.22385,0.5 0.5,0.5 z" />
  <path
     style="fill:#91806c;fill-opacity:1"
     inkscape:connector-curvature="0"
     id="path6"
     d="m 11.5,8.02246 c 0.2762,0 0.5,-0.22386 0.5,-0.5 0,-0.27614 -0.2238,-0.5 -0.5,-0.5 -0.2761,0 -0.5,0.22386 -0.5,0.5 0,0.27614 0.2239,0.5 0.5,0.5 z" />
  <path
     style="fill:#91806c;fill-opacity:1"
     inkscape:connector-curvature="0"
     id="path8"
     d="m 13.5,15.8213 c 0.2762,0 0.5,-0.2239 0.5,-0.5 0,-0.2762 -0.2238,-0.5 -0.5,-0.5 -0.2761,0 -0.5,0.2238 -0.5,0.5 0,0.2761 0.2239,0.5 0.5,0.5 z" />
  <path
     style="fill:#91806c;fill-opacity:1"
     inkscape:connector-curvature="0"
     id="path10"
     d="m 9.49135,3 c 0.27614,0 0.5,-0.22386 0.5,-0.5 0,-0.27614 -0.22386,-0.5 -0.5,-0.5 -0.27614,0 -0.5,0.22386 -0.5,0.5 0,0.27614 0.22386,0.5 0.5,0.5 z" />
  <path
     style="fill:#91806c;fill-opacity:1"
     inkscape:connector-curvature="0"
     id="path12"
     d="m 1.60707,2 c 0.27614,0 0.5,-0.22386 0.5,-0.5 0,-0.27614 -0.22386,-0.5 -0.5,-0.5 -0.27614,0 -0.5,0.22386 -0.5,0.5 0,0.27614 0.22386,0.5 0.5,0.5 z" />
  <path
     style="fill:#91806c;fill-opacity:1"
     inkscape:connector-curvature="0"
     id="path14"
     d="m 8.50002,8.90625 c 0.27614,0 0.5,-0.22386 0.5,-0.5 0,-0.27614 -0.22386,-0.5 -0.5,-0.5 -0.27615,0 -0.5,0.22386 -0.5,0.5 0,0.27614 0.22385,0.5 0.5,0.5 z" />
  <path
     style="fill:#91806c;fill-opacity:1"
     inkscape:connector-curvature="0"
     id="path16"
     d="m 12.5,11.9375 c 0.2762,0 0.5,-0.2239 0.5,-0.5 0,-0.2761 -0.2238,-0.5 -0.5,-0.5 -0.2761,0 -0.5,0.2239 -0.5,0.5 0,0.2761 0.2239,0.5 0.5,0.5 z" />
  <path
     style="fill:#91806c;fill-opacity:1"
     inkscape:connector-curvature="0"
     id="path18"
     d="m 8.44154,14 c 0.27615,0 0.5,-0.2239 0.5,-0.5 0,-0.2761 -0.22385,-0.5 -0.5,-0.5 -0.27614,0 -0.5,0.2239 -0.5,0.5 0,0.2761 0.22386,0.5 0.5,0.5 z" />
  <path
     style="fill:#91806c;fill-opacity:1"
     inkscape:connector-curvature="0"
     id="path20"
     d="m 1.4008,12 c 0.27614,0 0.5,-0.2239 0.5,-0.5 0,-0.2761 -0.22386,-0.5 -0.5,-0.5 -0.27614,0 -0.499997,0.2239 -0.499997,0.5 0,0.2761 0.223857,0.5 0.499997,0.5 z" />
  <path
     style="fill:#91806c;fill-opacity:1"
     inkscape:connector-curvature="0"
     id="path22"
     d="m 12.4375,4 c 0.2762,0 0.5,-0.22386 0.5,-0.5 0,-0.27614 -0.2238,-0.5 -0.5,-0.5 -0.2761,0 -0.5,0.22386 -0.5,0.5 0,0.27614 0.2239,0.5 0.5,0.5 z" />
  <path
     style="fill:#91806c;fill-opacity:1"
     inkscape:connector-curvature="0"
     id="path24"
     d="m 15.5,3.9375 c 0.2762,0 0.5,-0.22386 0.5,-0.5 0,-0.27614 -0.2238,-0.5 -0.5,-0.5 -0.2761,0 -0.5,0.22386 -0.5,0.5 0,0.27614 0.2239,0.5 0.5,0.5 z" />
  <path
     style="fill:#91806c;fill-opacity:1"
     inkscape:connector-curvature="0"
     id="path26"
     d="m 4.50002,14.9062 c 0.27614,0 0.5,-0.2238 0.5,-0.5 0,-0.2761 -0.22386,-0.5 -0.5,-0.5 -0.27615,0 -0.5,0.2239 -0.5,0.5 0,0.2762 0.22385,0.5 0.5,0.5 z" />
  <defs
     id="defs33">
    <clipPath
       id="clip0">
      <path
         d="M0 0H16V16H0V0Z"
         fill="white"
         id="path30" />
    </clipPath>
  </defs>
</svg>
