<svg width="16" height="16" viewBox="0 0 16 16" fill="none" xmlns="http://www.w3.org/2000/svg">
<path d="M5.60283 1.17774C4.57514 1.20838 3.45723 1.56739 2.19245 2.31621C2.19173 2.31663 2.19149 2.31747 2.19078 2.31789C1.75083 2.57584 1.59767 3.16795 1.85761 3.60703L2.32639 4.39894C2.32694 4.40062 2.3275 4.40229 2.32806 4.40396C2.5897 4.8411 3.18063 4.988 3.61721 4.72541L3.61386 4.72876C4.74641 4.05741 5.39099 3.94962 5.86735 3.97871C6.33742 4.00742 6.74927 4.19894 7.36411 4.53121C7.38807 4.54416 7.43829 4.55632 7.46288 4.56971C7.1238 4.89011 6.88811 5.30908 6.90705 5.77682C6.91979 6.08039 7.11642 6.32476 7.29212 6.5704C6.74848 6.86264 6.30798 7.35252 6.33447 7.97507C6.34778 8.28399 6.54651 8.53379 6.72791 8.78204C6.18362 9.07312 5.7417 9.56241 5.76691 10.185C5.77011 10.2634 5.85167 10.3133 5.86736 10.3893C5.77966 10.3872 5.6915 10.3834 5.60451 10.386C5.60395 10.386 5.60339 10.386 5.60284 10.386C4.57514 10.4166 3.45724 10.7756 2.19245 11.5244C2.19173 11.5248 2.19149 11.5257 2.19078 11.5261C1.75081 11.7841 1.59767 12.3762 1.85761 12.8153L2.32639 13.6072C2.32694 13.6089 2.3275 13.6106 2.32806 13.6122C2.58971 14.0494 3.18063 14.1963 3.61721 13.9337L3.61386 13.937C4.74642 13.2657 5.391 13.1579 5.86736 13.187C6.33742 13.2157 6.74927 13.4072 7.36411 13.7395C7.97582 14.0701 8.79155 14.5531 9.88548 14.7222C10.9902 14.8931 12.2755 14.6986 13.7446 13.994C13.7451 13.9934 13.7457 13.9928 13.7463 13.9922C14.2033 13.7715 14.404 13.1993 14.1849 12.7416C14.1843 12.741 14.1838 12.7405 14.1832 12.7399L13.7831 11.9095C13.5623 11.4525 12.9902 11.2517 12.5324 11.4708C11.4287 12.0003 10.8269 12.0371 10.3158 11.958C9.82127 11.8816 9.34569 11.6299 8.69511 11.2783C8.6565 11.2574 8.59964 11.2345 8.5595 11.213C8.85548 10.8983 9.04118 10.484 9.02326 10.0511C9.0103 9.74175 8.81139 9.49103 8.62982 9.24245C9.17349 8.95159 9.61524 8.46307 9.59082 7.84113C9.57867 7.5362 9.38065 7.29085 9.20408 7.0442C9.7466 6.75246 10.1869 6.26422 10.1617 5.64288C10.1596 5.59212 10.1039 5.56047 10.0964 5.51062C11.1561 5.63044 12.3619 5.44889 13.7446 4.78568C13.7451 4.78513 13.7457 4.78457 13.7463 4.78401C14.2033 4.56325 14.404 3.9911 14.1849 3.53337C14.1843 3.53281 14.1837 3.53225 14.1832 3.5317L13.783 2.70128C13.5623 2.2443 12.9902 2.04345 12.5324 2.26264C11.4287 2.79205 10.8269 2.82888 10.3158 2.74983C9.82127 2.67336 9.34569 2.42168 8.69511 2.0701C8.04188 1.71708 7.17213 1.25369 6.03813 1.18444C5.89282 1.17557 5.74687 1.17345 5.60283 1.17774Z" fill="white"/>
</svg>
