<svg width="16" height="16" viewBox="0 0 16 16" fill="none" xmlns="http://www.w3.org/2000/svg">
<path opacity="0.801" d="M11.1381 1.1946C10.8023 1.19949 10.5189 1.38348 10.3413 1.62812C10.2274 1.78507 10.1692 1.97295 10.1438 2.16709C9.86217 2.13616 9.57273 2.17355 9.35377 2.40478C9.16688 2.58543 9.07383 2.82865 9.03909 3.08435C8.71693 3.14367 8.49583 3.37679 8.35282 3.65847C8.12069 3.60411 7.8811 3.60186 7.64144 3.65513C7.4921 3.37853 7.26774 3.15435 6.95852 3.0877C6.89184 2.57071 6.49043 2.11089 5.92577 2.12692C5.88633 2.12507 5.86252 2.13448 5.83036 2.13864C5.74633 1.53264 5.15299 1.04501 4.5231 1.23644C3.85752 1.40894 3.46982 1.96668 3.1288 2.37465C3.12651 2.37739 3.12428 2.38018 3.12211 2.38302C1.85327 4.03039 1.95337 6.54373 3.36816 8.07404C3.36866 8.07461 3.36933 8.07513 3.36983 8.07571C3.82927 8.60673 4.42779 9.12594 5.201 9.25408C5.21819 9.25639 5.23558 9.25695 5.25289 9.25575C5.83922 9.23453 6.24071 8.72382 6.26053 8.17446C6.3159 8.1714 6.36994 8.18034 6.42457 8.16944C6.04982 9.86234 5.42693 11.5059 4.44275 12.9181C4.44103 12.9209 4.43935 12.9237 4.43773 12.9265C4.19907 13.299 4.07278 13.8387 4.36911 14.2789C4.76457 14.8945 5.71565 15.0181 6.2053 14.4313C6.55039 14.0678 6.77509 13.6395 7.00371 13.2512C7.23531 12.8579 7.46803 12.509 7.80213 12.2703C7.81091 12.2642 7.81929 12.2575 7.82723 12.2503C7.88755 12.1952 7.94354 12.1477 8.00131 12.0963C8.4954 12.5258 8.93929 13.0029 9.20814 13.5726C9.21027 13.5765 9.2125 13.5805 9.21484 13.5843C9.46002 14.0391 9.79949 14.5926 10.4233 14.7744C10.4261 14.7756 10.4289 14.7767 10.4317 14.7777C11.2121 14.9797 11.9348 14.2318 11.8026 13.4638C11.7393 13.0602 11.4738 12.8136 11.3624 12.6068C11.3588 12.5999 11.3549 12.5932 11.3507 12.5867C11.034 12.1095 10.7478 11.6276 10.5455 11.1104C10.5439 11.1064 10.5423 11.1025 10.5405 11.0986C10.12 10.1669 9.82287 9.18089 9.59982 8.17948C9.64043 8.18729 9.68224 8.17843 9.72368 8.18115C9.74964 8.75496 10.1971 9.28476 10.8167 9.24069C11.4842 9.21044 11.9296 8.72412 12.3031 8.40712C12.3065 8.40442 12.3098 8.40162 12.3131 8.39875C13.5453 7.2388 14.0888 5.37722 13.5567 3.74217V3.74049C13.2324 2.72496 12.5739 1.74555 11.5565 1.26155C11.5478 1.25771 11.5388 1.25436 11.5297 1.25151C11.4089 1.21012 11.2757 1.18747 11.1381 1.1946Z" fill="#EBE7E4"/>
</svg>
