<svg width="16" height="16" viewBox="0 0 16 16" fill="none" xmlns="http://www.w3.org/2000/svg">
<g clip-path="url(#clip0)">
<path d="M16.016 -0.0159912H0V16H16.016V-0.0159912Z" fill="#B3E2A8"/>
<path d="M6.21697 7.87113C6.20024 8.20575 6.06172 8.51947 5.83185 8.74331C5.60198 8.96716 5.29959 9.0828 4.99116 9.06482C4.68273 9.04684 4.3935 8.89671 4.18706 8.64744C3.98062 8.39816 3.87388 8.07015 3.89029 7.73551C3.9067 7.40087 4.04493 7.087 4.27458 6.8629C4.50423 6.6388 4.80651 6.52282 5.11497 6.54045C5.42342 6.55808 5.71279 6.70789 5.91946 6.95693C6.12614 7.20598 6.23319 7.53387 6.2171 7.86853" fill="#88BE7C"/>
<path d="M11.6083 7.88969C11.5916 8.22431 11.4531 8.53803 11.2232 8.76187C10.9933 8.98571 10.691 9.10136 10.3825 9.08338C10.0741 9.0654 9.78485 8.91527 9.57842 8.66599C9.37198 8.41672 9.26523 8.0887 9.28165 7.75406C9.29806 7.41942 9.43629 7.10555 9.66594 6.88145C9.89559 6.65735 10.1979 6.54137 10.5063 6.559C10.8148 6.57664 11.1041 6.72644 11.3108 6.97549C11.5175 7.22453 11.6246 7.55243 11.6085 7.88708" fill="#88BE7C"/>
<path d="M8.94353 7.29386C8.9268 7.62848 8.78828 7.9422 8.55841 8.16604C8.32855 8.38989 8.02616 8.50553 7.71772 8.48755C7.40929 8.46957 7.12006 8.31944 6.91362 8.07017C6.70719 7.82089 6.60044 7.49288 6.61685 7.15824C6.63326 6.8236 6.77149 6.50973 7.00114 6.28563C7.2308 6.06153 7.53308 5.94554 7.84153 5.96318C8.14998 5.98081 8.43935 6.13062 8.64602 6.37966C8.8527 6.62871 8.95976 6.9566 8.94366 7.29126" fill="#88BE7C"/>
<path d="M8.66532 10.0373C8.65223 10.2992 8.54382 10.5447 8.36392 10.7199C8.18403 10.8951 7.94737 10.9856 7.70599 10.9715C7.4646 10.9574 7.23825 10.8399 7.07669 10.6448C6.91513 10.4498 6.83158 10.193 6.84443 9.93115C6.85727 9.66926 6.96545 9.42361 7.14518 9.24823C7.32491 9.07285 7.56148 8.98208 7.80288 8.99588C8.04428 9.00968 8.27074 9.12692 8.43249 9.32182C8.59423 9.51673 8.67802 9.77334 8.66542 10.0353" fill="#88BE7C"/>
<path d="M6.65187 10.361C6.63877 10.6229 6.53036 10.8684 6.35046 11.0436C6.17057 11.2188 5.93391 11.3093 5.69253 11.2952C5.45114 11.2811 5.22479 11.1637 5.06323 10.9686C4.90167 10.7735 4.81813 10.5168 4.83097 10.2549C4.84381 9.99299 4.95199 9.74735 5.13172 9.57196C5.31145 9.39658 5.54802 9.30581 5.78942 9.31961C6.03082 9.33341 6.25728 9.45065 6.41903 9.64555C6.58078 9.84046 6.66456 10.0971 6.65197 10.359" fill="#88BE7C"/>
<path d="M10.7623 10.4498C10.7492 10.7116 10.6408 10.9572 10.4609 11.1323C10.281 11.3075 10.0444 11.398 9.80297 11.384C9.56159 11.3699 9.33523 11.2524 9.17367 11.0573C9.01211 10.8622 8.92857 10.6055 8.94141 10.3436C8.95426 10.0817 9.06244 9.83609 9.24217 9.66071C9.4219 9.48532 9.65847 9.39455 9.89986 9.40835C10.1413 9.42215 10.3677 9.53939 10.5295 9.7343C10.6912 9.92921 10.775 10.1858 10.7624 10.4477" fill="#88BE7C"/>
<path d="M7.45369 12.4817C7.44321 12.6914 7.3564 12.8879 7.21236 13.0282C7.06832 13.1685 6.87884 13.2409 6.68556 13.2297C6.49229 13.2184 6.31105 13.1243 6.18169 12.9681C6.05233 12.8119 5.98544 12.6064 5.99572 12.3967C6.00601 12.187 6.09262 11.9903 6.23653 11.8499C6.38044 11.7095 6.56986 11.6368 6.76314 11.6478C6.95643 11.6589 7.13775 11.7527 7.26726 11.9088C7.39677 12.0649 7.46386 12.2703 7.45377 12.48" fill="#88BE7C"/>
<path d="M9.33226 12.4792C9.32178 12.6889 9.23497 12.8855 9.09093 13.0258C8.94689 13.166 8.75741 13.2385 8.56413 13.2272C8.37086 13.216 8.18962 13.1219 8.06026 12.9657C7.9309 12.8095 7.86401 12.6039 7.87429 12.3942C7.88458 12.1846 7.97119 11.9879 8.1151 11.8474C8.25901 11.707 8.44843 11.6343 8.64171 11.6454C8.835 11.6564 9.01633 11.7503 9.14583 11.9064C9.27534 12.0624 9.34243 12.2679 9.33234 12.4776" fill="#88BE7C"/>
<path d="M8.37932 14.2076C8.36897 14.4146 8.28326 14.6087 8.14104 14.7472C7.99882 14.8857 7.81173 14.9573 7.62089 14.9461C7.43006 14.935 7.25111 14.8421 7.12339 14.6879C6.99566 14.5337 6.92962 14.3307 6.93977 14.1237C6.94992 13.9166 7.03545 13.7224 7.17754 13.5838C7.31963 13.4451 7.50665 13.3734 7.69749 13.3843C7.88834 13.3952 8.06738 13.4879 8.19525 13.6419C8.32312 13.796 8.38936 13.9989 8.3794 14.206" fill="#88BE7C"/>
<path d="M6.42743 1.86707C6.42743 1.86707 9.60511 2.95022 8.09677 5.34869" stroke="#88BE7C" stroke-width="0.693147" stroke-linecap="round"/>
<path d="M8.97623 3.41821C9.48989 2.1541 8.30761 1.76454 10.1387 0.929443C10.1387 0.929443 10.7137 1.21793 10.8244 1.37241C11.0457 1.68142 10.7663 2.44888 10.7663 2.44888C10.7663 2.44888 10.7879 2.06404 11.5503 1.75256C11.9076 1.60656 13.146 1.93671 13.146 1.93671C13.146 1.93671 13.0913 2.78266 12.5613 3.45319C12.452 3.59158 11.5576 3.63303 11.5576 3.63303C12.8141 3.87606 12.469 4.47041 12.7148 4.82721C10.4386 5.98627 9.87749 3.64454 8.55276 4.08057L8.41422 3.6138L8.97623 3.41821Z" fill="#88BE7C"/>
</g>
<defs>
<clipPath id="clip0">
<path d="M0 0H16V16H0V0Z" fill="white"/>
</clipPath>
</defs>
</svg>
