<svg width="30" height="30" viewBox="0 0 30 30" fill="none" xmlns="http://www.w3.org/2000/svg">
<path opacity="0.704" fill-rule="evenodd" clip-rule="evenodd" d="M2.4707 8.37842C1.16411 8.37842 0.142578 9.50401 0.142578 10.7554V22.3472C0.142578 23.0058 0.502474 23.6688 0.890625 24.019C1.28643 24.3762 1.67242 24.5316 2 24.646L14.5293 29.021C14.8306 29.1264 15.1694 29.1264 15.4707 29.021L28 24.646C28.3244 24.5327 28.707 24.3773 29.1016 24.0229C29.4887 23.6754 29.8574 23.0158 29.8574 22.3472V10.7554C29.8574 9.50401 28.8359 8.37842 27.5293 8.37842H2.4707V8.37842Z" fill="#515151"/>
<path fill-rule="evenodd" clip-rule="evenodd" d="M2.47095 9.79993H27.529C28.031 9.79993 28.435 10.2258 28.435 10.7549V22.3479C28.435 22.8769 27.9781 23.146 27.529 23.3028L15 27.6778L2.47095 23.3028C2.01102 23.1422 1.56497 22.8769 1.56497 22.3479V10.7549C1.56497 10.2258 1.96904 9.79993 2.47095 9.79993V9.79993Z" fill="white"/>
</svg>
