<svg width="22" height="27" viewBox="0 0 22 27" fill="none" xmlns="http://www.w3.org/2000/svg">
<path opacity="0.837" fill-rule="evenodd" clip-rule="evenodd" d="M2.70703 5.03967C1.86086 5.03967 1.42439 5.38923 1.02344 5.80139C0.622489 6.21355 0.277344 6.81515 0.277344 7.58655V19.1783C0.277344 20.3181 1.18713 21.2552 1.75977 21.5494L10.2734 25.9244C10.4982 26.0398 10.7473 26.1 11 26.1C11.2527 26.1 11.5018 26.0398 11.7266 25.9244L20.2402 21.5494C20.8118 21.2558 21.7227 20.333 21.7227 19.1783V7.58655C21.7227 6.81515 21.3775 6.21355 20.9766 5.80139C20.5756 5.38923 20.1391 5.03967 19.293 5.03967H2.70703V5.03967Z" fill="#BBAD71"/>
<path fill-rule="evenodd" clip-rule="evenodd" d="M2.70638 6.63116H19.2936C19.6258 6.63116 20.1303 7.05707 20.1303 7.58611V19.1791C20.1303 19.7082 19.8197 19.9773 19.5146 20.1341L11 24.5091L2.48541 20.1341C2.17285 19.9735 1.86972 19.7082 1.86972 19.1791V7.58611C1.86972 7.05707 2.37414 6.63116 2.70638 6.63116V6.63116Z" fill="#FFE237"/>
</svg>
