<svg width="30" height="25" viewBox="0 0 30 25" fill="none" xmlns="http://www.w3.org/2000/svg">
<g clip-path="url(#clip0)">
<path fill-rule="evenodd" clip-rule="evenodd" d="M5 4H25C26.1046 4 27 4.89543 27 6V19C27 20.1046 26.1046 21 25 21H5C3.89543 21 3 20.1046 3 19V6C3 4.89543 3.89543 4 5 4Z" fill="#BBAD71" fill-opacity="0.8"/>
<path d="M4 6C4 5.44772 4.44772 5 5 5H25C25.5523 5 26 5.44772 26 6V19C26 19.5523 25.5523 20 25 20H5C4.44772 20 4 19.5523 4 19V6Z" fill="#FFE237"/>
</g>
<defs>
<clipPath id="clip0">
<path d="M0 0H30V25H0V0Z" fill="white"/>
</clipPath>
</defs>
</svg>
