<svg width="48" height="48" viewBox="0 0 580 580" fill="none" xmlns="http://www.w3.org/2000/svg">
<path d="M138.316 101.324C89.8993 101.58 48.9407 142.702 48.9407 194.474V403.226C48.5786 425.517 61.1492 446.002 81.1868 455.773C95.2318 463.139 112.101 462.651 125.697 454.486C139.293 446.321 147.65 431.659 147.747 415.801V370.888L122.732 379.103V404.901C122.886 415.417 115.015 424.323 104.56 425.461C99.0028 425.945 93.4973 424.073 89.3864 420.303C85.2755 416.532 82.9364 411.209 82.9388 405.631V379.103C82.9899 346.158 112.111 290.116 156.73 290.047H183.677C188.638 290.047 192.659 294.068 192.659 299.029C192.659 303.99 188.638 308.011 183.677 308.011H179.636C193.415 334.321 202.639 334.169 203.169 346.097L209.726 470.144C209.996 474.915 213.93 478.652 218.708 478.677H266.945C271.449 478.67 275.252 475.329 275.837 470.863L286.077 408.256C286.799 403.393 289.489 399.042 293.515 396.222C297.541 393.402 302.55 392.362 307.366 393.345C322.846 396.342 338.578 397.845 354.345 397.836C366.442 398.273 378.511 396.414 389.915 392.357C394.998 390.647 400.578 391.298 405.132 394.131C409.686 396.964 412.736 401.682 413.448 406.998L423.868 470.773C424.413 475.275 428.227 478.665 432.761 478.677H480.997C485.806 478.645 489.751 474.858 489.98 470.054L497.075 336.935C497.375 331.739 499.185 326.745 502.284 322.564C515.033 305.159 522.769 284.592 524.652 263.099L531.282 269.337C534.895 272.736 537.506 275.638 536.467 280.489L534.298 290.617C533.259 295.468 538.319 299.6 543.28 299.6C548.241 299.6 552.146 295.577 552.263 290.617L552.534 279.133C552.885 264.254 546.828 257.069 533.722 250.016L524.652 245.134C522.637 213.668 509.486 183.947 487.554 161.293C466.147 141.664 435.626 116.858 339.622 110.439C335.571 110.412 331.493 110.486 327.398 110.668C315.546 111.53 303.857 113.945 292.634 117.853C326.683 192.009 303.909 277.719 261.646 319.15C254.753 325.133 245.297 327.211 236.531 324.67C227.765 322.129 220.884 315.315 218.259 306.574C210.286 283.411 199.197 261.441 185.294 241.271C183.26 238.647 182.839 235.114 184.2 232.086C185.562 229.057 188.483 227.027 191.796 226.806C195.109 226.586 198.274 228.212 200.025 231.033C214.939 252.852 226.873 276.565 235.507 301.545C236.407 304.419 238.698 306.643 241.597 307.459C244.496 308.274 247.612 307.569 249.878 305.586C262.364 294.717 291.466 261.932 291.466 191.24C291.466 144.289 276.861 101.326 229.667 101.326C224.761 101.627 219.967 102.909 215.566 105.097C200.873 111.603 184.236 112.183 169.126 106.715C158.735 102.977 148.364 101.271 138.316 101.324ZM93.8528 195.817C101.247 195.817 107.241 201.811 107.241 209.205C107.218 216.59 101.238 222.571 93.8528 222.593C86.4588 222.593 80.4649 216.599 80.4649 209.205C80.4649 201.811 86.4588 195.817 93.8528 195.817Z" fill="white" />
</svg>