<?xml version="1.0" encoding="UTF-8" standalone="no"?>
<!-- Created with Inkscape (http://www.inkscape.org/) -->

<svg
   xmlns:dc="http://purl.org/dc/elements/1.1/"
   xmlns:cc="http://creativecommons.org/ns#"
   xmlns:rdf="http://www.w3.org/1999/02/22-rdf-syntax-ns#"
   xmlns:svg="http://www.w3.org/2000/svg"
   xmlns="http://www.w3.org/2000/svg"
   xmlns:sodipodi="http://sodipodi.sourceforge.net/DTD/sodipodi-0.dtd"
   xmlns:inkscape="http://www.inkscape.org/namespaces/inkscape"
   version="1.0"
   width="580"
   height="580"
   id="svg2"
   sodipodi:version="0.32"
   inkscape:version="0.48.4 r9939"
   sodipodi:docname="artwork.svg"
   inkscape:output_extension="org.inkscape.output.svg.inkscape">
  <metadata
     id="metadata2975">
    <rdf:RDF>
      <cc:Work
         rdf:about="">
        <dc:format>image/svg+xml</dc:format>
        <dc:type
           rdf:resource="http://purl.org/dc/dcmitype/StillImage" />
        <cc:license
           rdf:resource="http://web.resource.org/cc/PublicDomain" />
        <dc:language>en</dc:language>
        <dc:title />
      </cc:Work>
    </rdf:RDF>
  </metadata>
  <sodipodi:namedview
     inkscape:window-height="1004"
     inkscape:window-width="1920"
     inkscape:pageshadow="2"
     inkscape:pageopacity="0.0"
     guidetolerance="10.0"
     gridtolerance="10.0"
     objecttolerance="10.0"
     borderopacity="1.0"
     bordercolor="#666666"
     pagecolor="#ffffff"
     id="base"
     inkscape:zoom="0.92167712"
     inkscape:cx="227.31904"
     inkscape:cy="317.57134"
     inkscape:window-x="1680"
     inkscape:window-y="0"
     inkscape:current-layer="svg2"
     showgrid="false"
     inkscape:window-maximized="1" />
  <defs
     id="defs4">
    <inkscape:perspective
       sodipodi:type="inkscape:persp3d"
       inkscape:vp_x="0 : 290 : 1"
       inkscape:vp_y="0 : 1000 : 0"
       inkscape:vp_z="580 : 290 : 1"
       inkscape:persp3d-origin="290 : 193.33333 : 1"
       id="perspective2441" />
    <inkscape:perspective
       id="perspective3452"
       inkscape:persp3d-origin="30 : 20 : 1"
       inkscape:vp_z="60 : 30 : 1"
       inkscape:vp_y="0 : 1000 : 0"
       inkscape:vp_x="0 : 30 : 1"
       sodipodi:type="inkscape:persp3d" />
  </defs>
  <g
     id="g1327">
    <path
       d="M 66.275,1.768 C 24.94,1.768 1.704,23.139 1.704,66.804 L 1.704,516.927 C 1.704,557.771 22.599,579.156 63.896,579.156 L 515.92,579.156 C 557.227,579.156 578.149,558.841 578.149,516.927 L 578.149,66.804 C 578.149,24.203 557.227,1.768 514.628,1.768 C 514.624,1.768 66.133,1.625 66.275,1.768 z "
       style="fill:#111;stroke:#eee;stroke-width:3.40799999"
       id="path1329" />
  </g>
  <path
     style="color:#000000;fill:#ffffff;fill-opacity:1;fill-rule:nonzero;stroke:none;stroke-width:0;marker:none;visibility:visible;display:inline;overflow:visible;enable-background:accumulate"
     d="M 95.239719,296.94087 C 92.638649,268.47964 72.647454,149.70463 141.43555,91.878116 210.22364,34.051608 351.60153,21.106832 424.83587,84.233906 498.07022,147.36099 512.47836,280.88835 447.77912,339.80022 383.07988,398.71209 277.8729,361.50359 238.61541,313.56649 199.35792,265.6294 202.79088,207.33392 231.85378,173.14088 c 29.0629,-34.19304 102.2152,-42.23443 136.2324,-14.17492 34.01721,28.05951 38.08379,104.71791 11.17509,127.12123 -26.90871,22.40332 -71.16913,-8.59037 -79.48725,-21.99084 -8.31812,-13.40047 -5.67634,-6.11028 2.29465,-11.94187 7.97098,-5.8316 34.03796,18.40868 46.77236,5.53133 12.73441,-12.87736 9.68624,-45.80277 -7.91236,-61.05432 -17.5986,-15.25154 -59.8363,-18.20335 -78.15431,1.07664 -18.31802,19.27999 -20.97693,51.42193 3.04262,81.3484 24.01955,29.92648 100.65112,74.04883 144.00421,37.6167 43.35309,-36.43213 33.85043,-148.09247 -15.72543,-190.28625 -49.57585,-42.193784 -157.6764,-36.897964 -199.05996,15.57498 -41.38355,52.47293 -37.60621,106.35762 -37.25231,125.74409 0.35391,19.38648 17.44623,67.25577 63.216,97.41681 31.67188,20.87091 77.81268,45.30909 119.1967,48.03445 22.92296,1.5096 82.69562,-3.86372 108.92346,-1.92167 -41.81773,15.77722 -117.19699,29.62726 -138.58492,45.94527 -10.31637,28.89771 -3.04431,45.22509 0.95336,74.12279 l -66.03996,-0.89882 C 247.45711,490.4609 268.492,457.10065 245.28069,438.88229 194.48647,412.64675 104.24573,372.64195 95.239719,296.94087 z"
     id="rect3760"
     inkscape:connector-curvature="0"
     sodipodi:nodetypes="czzzzzzzzzzzzzzzzzsscccccc" />
</svg>
