<?xml version="1.0" encoding="UTF-8" standalone="no"?>
<!-- Created with Inkscape (http://www.inkscape.org/) -->

<svg
   xmlns:dc="http://purl.org/dc/elements/1.1/"
   xmlns:cc="http://creativecommons.org/ns#"
   xmlns:rdf="http://www.w3.org/1999/02/22-rdf-syntax-ns#"
   xmlns:svg="http://www.w3.org/2000/svg"
   xmlns="http://www.w3.org/2000/svg"
   xmlns:sodipodi="http://sodipodi.sourceforge.net/DTD/sodipodi-0.dtd"
   xmlns:inkscape="http://www.inkscape.org/namespaces/inkscape"
   version="1.0"
   width="580"
   height="580"
   id="svg2"
   sodipodi:version="0.32"
   inkscape:version="0.48.4 r9939"
   sodipodi:docname="beach_resort.svg"
   inkscape:output_extension="org.inkscape.output.svg.inkscape">
  <metadata
     id="metadata10">
    <rdf:RDF>
      <cc:Work
         rdf:about="">
        <dc:format>image/svg+xml</dc:format>
        <dc:type
           rdf:resource="http://purl.org/dc/dcmitype/StillImage" />
        <cc:license
           rdf:resource="http://web.resource.org/cc/PublicDomain" />
        <dc:language>en</dc:language>
        <dc:title></dc:title>
      </cc:Work>
    </rdf:RDF>
  </metadata>
  <sodipodi:namedview
     inkscape:window-height="1004"
     inkscape:window-width="1920"
     inkscape:pageshadow="2"
     inkscape:pageopacity="0.0"
     guidetolerance="10.0"
     gridtolerance="10.0"
     objecttolerance="10.0"
     borderopacity="1.0"
     bordercolor="#666666"
     pagecolor="#ffffff"
     id="base"
     showgrid="false"
     inkscape:zoom="0.5"
     inkscape:cx="-50.392247"
     inkscape:cy="401.65402"
     inkscape:window-x="1680"
     inkscape:window-y="0"
     inkscape:current-layer="svg2"
     inkscape:window-maximized="1" />
  <defs
     id="defs4">
    <inkscape:perspective
       sodipodi:type="inkscape:persp3d"
       inkscape:vp_x="0 : 290 : 1"
       inkscape:vp_y="0 : 1000 : 0"
       inkscape:vp_z="580 : 290 : 1"
       inkscape:persp3d-origin="290 : 193.33333 : 1"
       id="perspective12" />
  </defs>
  <g
     id="g1327">
    <path
       d="M 66.275,1.768 C 24.94,1.768 1.704,23.139 1.704,66.804 L 1.704,516.927 C 1.704,557.771 22.598,579.156 63.896,579.156 L 515.92,579.156 C 557.227,579.156 578.149,558.84 578.149,516.927 L 578.149,66.804 C 578.149,24.203 557.227,1.768 514.627,1.768 C 514.624,1.768 66.133,1.625 66.275,1.768 z"
       style="fill:#111111;stroke:#eeeeee;stroke-width:3.40799999"
       id="path1329" />
  </g>
  <g
     id="g5"
     transform="matrix(12.601673,2.7725659,-2.7725659,12.601673,281.54003,84.038138)"
     style="fill:none;stroke:#ffffff;stroke-opacity:1">
    <path
       inkscape:connector-curvature="0"
       class="st0"
       d="m 13.6,7.5 0,0 c 0,1.9 1.6,3.5 3.6,3.5 2,0 3.6,-1.6 3.6,-3.5 l 0,0"
       id="path7"
       style="fill:none;stroke:#ffffff;stroke-opacity:1" />
  </g>
  <g
     id="g9"
     transform="matrix(12.601673,2.7725659,-2.7725659,12.601673,281.54003,84.038138)"
     style="fill:#ffffff;fill-opacity:1;stroke:none">
    <path
       inkscape:connector-curvature="0"
       class="st0"
       d="m 3.2,7.5 0,0 c 0,1.9 1.6,3.5 3.6,3.5 2,0 3.6,-1.6 3.6,-3.5 l 0,0"
       id="path11"
       style="fill:none;stroke:#ffffff;stroke-opacity:1" />
  </g>
  <path
     inkscape:connector-curvature="0"
     d="m 432.76012,117.30892 c -90.73204,-19.962466 -165.36017,30.99775 -176.17318,80.14428 -3.88161,17.64234 3.27603,27.14415 19.65823,30.74848 15.12198,3.32708 27.9759,-7.05655 30.74845,-19.65821 19.13072,-86.95156 125.7665,-91.23455 125.7665,-91.23455 0,0 -44.73644,23.18651 -60.49001,118.80806 -1.23514,11.61878 10.83704,28.80769 27.21922,32.41203 16.38217,3.60433 34.554,-6.9304 38.3095,-17.99468 26.26329,-89.34576 -5.03871,-133.22541 -5.03871,-133.22541 0,0 96.93179,39.82287 75.86028,135.5956 -4.43611,20.16268 8.31672,28.25318 19.65822,30.74848 15.12203,3.32708 27.14414,-3.27604 30.74848,-19.65823 10.81301,-49.14652 -35.53492,-126.72336 -126.26698,-146.68585 z"
     id="path13"
     style="fill:#ffffff;fill-opacity:1;stroke:none" />
  <path
     style="fill:#ffffff;fill-opacity:1;stroke:none"
     d="m 395.20516,227.95152 24.28968,5.34411 -52.27787,237.60973 c 0,0 -2.97889,6.63561 -13.63637,3.78949 -10.65747,-2.84613 -10.65331,-9.1336 -10.65331,-9.1336 z"
     id="rect15"
     inkscape:connector-curvature="0"
     sodipodi:nodetypes="ccczcc" />
  <polyline
     transform="matrix(9.3294529,0,0,9.163198,36.310216,225.05323)"
     style="fill:none;stroke:#ffffff;stroke-width:2.03620005;stroke-linecap:round;stroke-linejoin:round;stroke-miterlimit:10;stroke-opacity:1"
     points="  1,14 13,2 25,14 "
     id="polyline3" />
  <path
     inkscape:connector-curvature="0"
     d="m 157.5931,281.78697 -92.040427,88.78896 0,81.21895 c 0,13.74477 8.283641,24.99047 18.408085,24.99047 l 36.816172,0 c 0,-29.98854 0,-113.57525 0,-113.57525 l 73.63235,0 c 0,0 0,83.58671 0,113.57525 l 36.81618,0 c 10.12444,0 18.40809,-11.2457 18.40809,-24.99047 l 0,-81.21895 z"
     id="path5"
     style="fill:#ffffff;fill-opacity:1;stroke:#ffffff;stroke-width:0.82830113;stroke-opacity:1"
     sodipodi:nodetypes="ccssccccsscc" />
</svg>
