<?xml version="1.0" encoding="UTF-8" standalone="no"?>
<!-- Created with Inkscape (http://www.inkscape.org/) -->

<svg
   xmlns:dc="http://purl.org/dc/elements/1.1/"
   xmlns:cc="http://creativecommons.org/ns#"
   xmlns:rdf="http://www.w3.org/1999/02/22-rdf-syntax-ns#"
   xmlns:svg="http://www.w3.org/2000/svg"
   xmlns="http://www.w3.org/2000/svg"
   xmlns:sodipodi="http://sodipodi.sourceforge.net/DTD/sodipodi-0.dtd"
   xmlns:inkscape="http://www.inkscape.org/namespaces/inkscape"
   version="1.0"
   width="580"
   height="580"
   id="svg2"
   sodipodi:version="0.32"
   inkscape:version="0.48.4 r9939"
   sodipodi:docname="attraction_carouselsvg.svg"
   inkscape:output_extension="org.inkscape.output.svg.inkscape">
  <metadata
     id="metadata2975">
    <rdf:RDF>
      <cc:Work
         rdf:about="">
        <dc:format>image/svg+xml</dc:format>
        <dc:type
           rdf:resource="http://purl.org/dc/dcmitype/StillImage" />
        <cc:license
           rdf:resource="http://web.resource.org/cc/PublicDomain" />
        <dc:language>en</dc:language>
        <dc:title></dc:title>
      </cc:Work>
    </rdf:RDF>
  </metadata>
  <sodipodi:namedview
     inkscape:window-height="1004"
     inkscape:window-width="1920"
     inkscape:pageshadow="2"
     inkscape:pageopacity="0.0"
     guidetolerance="10.0"
     gridtolerance="10.0"
     objecttolerance="10.0"
     borderopacity="1.0"
     bordercolor="#666666"
     pagecolor="#ffffff"
     id="base"
     inkscape:zoom="0.65172414"
     inkscape:cx="487.52761"
     inkscape:cy="371.8054"
     inkscape:window-x="1680"
     inkscape:window-y="0"
     inkscape:current-layer="svg2"
     showgrid="false"
     inkscape:window-maximized="1" />
  <defs
     id="defs4">
    <inkscape:perspective
       sodipodi:type="inkscape:persp3d"
       inkscape:vp_x="0 : 290 : 1"
       inkscape:vp_y="0 : 1000 : 0"
       inkscape:vp_z="580 : 290 : 1"
       inkscape:persp3d-origin="290 : 193.33333 : 1"
       id="perspective2441" />
    <inkscape:perspective
       id="perspective3452"
       inkscape:persp3d-origin="30 : 20 : 1"
       inkscape:vp_z="60 : 30 : 1"
       inkscape:vp_y="0 : 1000 : 0"
       inkscape:vp_x="0 : 30 : 1"
       sodipodi:type="inkscape:persp3d" />
    <symbol
       viewBox="244.5 110 489 219.9"
       id="symbol-university">
      <path
         id="path4460"
         d="M79,43l57,119c0,0,21-96,104-96s124,106,124,106l43-133l82-17L0,17L79,43z" />
      <path
         id="path4462"
         d="M94,176l-21,39"
         stroke-width="20"
         stroke="#000000"
         fill="none" />
      <path
         id="path4464"
         d="M300,19c0,10.5-22.6,19-50.5,19S199,29.5,199,19s22.6-19,50.5-19S300,8.5,300,19z" />
      <path
         id="path4466"
         d="M112,216l-16-38L64,88c0,0-9-8-4-35s16-24,16-24"
         stroke-width="20"
         stroke="#000000"
         ill="none" />
    </symbol>
    <inkscape:perspective
       id="perspective4471"
       inkscape:persp3d-origin="372.04724 : 350.78739 : 1"
       inkscape:vp_z="744.09448 : 526.18109 : 1"
       inkscape:vp_y="0 : 1000 : 0"
       inkscape:vp_x="0 : 526.18109 : 1"
       sodipodi:type="inkscape:persp3d" />
    <inkscape:perspective
       id="perspective4668"
       inkscape:persp3d-origin="6 : 4 : 1"
       inkscape:vp_z="12 : 6 : 1"
       inkscape:vp_y="0 : 1000 : 0"
       inkscape:vp_x="0 : 6 : 1"
       sodipodi:type="inkscape:persp3d" />
    <inkscape:perspective
       id="perspective4904"
       inkscape:persp3d-origin="16 : 10.666667 : 1"
       inkscape:vp_z="32 : 16 : 1"
       inkscape:vp_y="0 : 1000 : 0"
       inkscape:vp_x="0 : 16 : 1"
       sodipodi:type="inkscape:persp3d" />
  </defs>
  <g
     id="g1327">
    <path
       d="M 66.275,1.768 C 24.94,1.768 1.704,23.139 1.704,66.804 L 1.704,516.927 C 1.704,557.771 22.599,579.156 63.896,579.156 L 515.92,579.156 C 557.227,579.156 578.149,558.841 578.149,516.927 L 578.149,66.804 C 578.149,24.203 557.227,1.768 514.628,1.768 C 514.624,1.768 66.133,1.625 66.275,1.768 z "
       style="fill:#111;stroke:#eee;stroke-width:3.40799999"
       id="path1329" />
  </g>
  <rect
     y="-69.882286"
     x="207.25069"
     style="fill:none"
     width="376.44794"
     height="376.44794"
     id="rect3" />
  <polyline
     style="fill:none;stroke:#ffffff;stroke-width:3;stroke-linejoin:round;stroke-miterlimit:10;stroke-opacity:1"
     stroke-miterlimit="10"
     points="7,25 13,12 19,25   "
     id="polyline3"
     transform="matrix(19.195838,0,0,19.195838,40.454133,35.655146)" />
  <circle
     style="fill:#ffffff;fill-opacity:1"
     sodipodi:ry="3"
     sodipodi:rx="3"
     sodipodi:cy="12"
     sodipodi:cx="13"
     cx="13"
     cy="12"
     r="3"
     id="circle5"
     transform="matrix(19.195838,0,0,19.195838,40.454133,35.655146)" />
  <line
     style="fill:#ffffff;fill-opacity:1;stroke:#ffffff;stroke-width:38.39167786;stroke-linejoin:round;stroke-miterlimit:10;stroke-opacity:1"
     stroke-miterlimit="10"
     x1="347.58746"
     y1="515.55127"
     x2="462.76248"
     y2="515.55127"
     id="line7" />
  <line
     style="fill:#ffffff;fill-opacity:1;stroke:#ffffff;stroke-width:38.39167786;stroke-linejoin:round;stroke-miterlimit:10;stroke-opacity:1"
     stroke-miterlimit="10"
     x1="117.23746"
     y1="515.55127"
     x2="232.41251"
     y2="515.55127"
     id="line9" />
  <path
     style="fill:#ffffff;fill-opacity:1"
     inkscape:connector-curvature="0"
     d="m 501.15426,227.61354 h -3.83916 c -5.75876,-30.71334 -17.27626,-57.58752 -34.55251,-82.5421 v -32.63293 c 0,-9.59792 -7.67834,-19.195839 -19.19584,-19.195839 H 412.85341 C 385.97923,75.96641 359.10506,64.448909 328.39172,58.690151 v -3.839163 c 0,-11.517503 -7.67834,-19.195841 -19.19584,-19.195841 H 270.8042 c -9.59792,0 -19.19584,7.678338 -19.19584,19.195841 v 3.839163 c -30.71334,5.758758 -57.58751,17.276259 -82.5421,34.552521 h -32.63294 c -11.5175,0 -19.19583,7.678338 -19.19583,19.195838 v 32.63293 c -17.276254,24.95458 -28.793756,51.82876 -34.552512,82.5421 h -3.839164 c -9.59792,0 -19.195841,7.67834 -19.195841,19.19584 v 38.39168 c 0,11.5175 7.678339,19.19584 19.195841,19.19584 h 3.839164 c 5.758756,30.71334 17.276258,57.58752 34.552512,82.5421 v 32.63293 c 0,11.5175 7.67833,19.19584 19.19583,19.19584 h 32.63294 c 24.95459,17.27626 51.82876,28.79376 82.5421,34.55251 v 3.83917 c 0,9.59791 7.67833,19.19583 19.19584,19.19583 h 38.39168 c 9.59792,0 19.19584,-7.67833 19.19584,-19.19583 v -3.83917 c 30.71334,-5.75875 57.58751,-17.27625 82.54211,-34.55251 h 32.63292 c 9.59792,0 19.19584,-7.67834 19.19584,-19.19584 v -30.71334 c 17.27625,-26.87417 28.79375,-53.74835 34.55251,-84.46169 h 3.83916 c 9.59792,0 19.19584,-7.67834 19.19584,-19.19584 v -38.39168 c 0,-9.59792 -7.67834,-19.19584 -19.19584,-19.19584 z M 443.56675,112.43851 v 19.19583 h -38.39168 v -19.19583 h 38.39168 z M 270.8042,54.850988 h 38.39168 v 19.19584 H 270.8042 V 54.850988 z M 136.43332,112.43851 H 174.825 v 19.19583 H 136.43332 V 112.43851 z M 78.845814,266.00523 v -19.19585 h 38.391676 v 19.19585 H 78.845814 z M 136.43332,400.37609 V 381.18025 H 174.825 v 19.19584 h -38.39168 z m 172.76256,57.58752 H 270.8042 v -19.19584 h 38.39168 v 19.19584 z m 134.37087,-57.58752 h -38.39168 v -19.19584 h 38.39168 v 19.19584 z m -5.75876,-38.39167 h -32.63292 c -9.59792,0 -19.19584,7.67833 -19.19584,19.19583 v 30.71334 c -17.27625,11.5175 -36.47209,19.19584 -57.58751,24.9546 v 1.91958 c 0,-11.5175 -7.67834,-19.19584 -19.19584,-19.19584 H 270.8042 c -9.59792,0 -19.19584,7.67834 -19.19584,19.19584 -21.11543,-5.75876 -40.31126,-13.43709 -57.58751,-24.9546 v -32.63292 c 0,-9.59792 -7.67834,-19.19583 -19.19585,-19.19583 h -30.71334 c -11.5175,-17.27626 -19.19584,-36.4721 -24.95458,-57.58752 h -1.91959 c 9.59791,0 19.19583,-7.67834 19.19583,-19.19584 v -38.39168 c 0,-9.59792 -7.67832,-19.19584 -19.19583,-19.19584 3.83917,-21.11542 13.43709,-40.31126 24.95459,-57.58752 H 174.825 c 9.59792,0 19.19585,-7.67832 19.19585,-19.19584 v -30.71334 c 17.27625,-11.5175 36.47208,-19.19583 57.58751,-24.954586 v -1.919582 c 0,9.597918 7.67833,19.195838 19.19584,19.195838 h 38.39168 c 9.59792,0 19.19584,-7.67834 19.19584,-19.195838 21.11542,5.758745 40.31126,13.437088 57.58751,24.954588 v 32.63292 c 0,11.51752 7.67834,19.19584 19.19584,19.19584 h 30.71334 c 11.5175,17.27626 19.19584,36.4721 24.95459,57.58752 l 0,0 c -9.59791,0 -17.27625,7.67834 -17.27625,19.19584 v 38.39168 c 0,11.5175 7.67834,19.19584 19.19584,19.19584 -3.83917,21.11542 -13.43709,40.31126 -24.9546,57.58752 z m 63.34627,-95.97919 h -38.39167 v -19.19585 h 38.39167 v 19.19585 z"
     id="path11" />
  <rect
     style="fill:none"
     y="35.655308"
     x="40.454086"
     width="499.09183"
     height="499.09183"
     id="rect13" />
</svg>
