<svg width="48" height="48" viewBox="0 0 48 48" fill="none" xmlns="http://www.w3.org/2000/svg">
<path d="M26.2 17.3754C28.4253 16.0769 30 12.9599 30 10C30 6.13401 27.3137 4 24 4C20.6863 4 18 6.13401 18 10C18 12.9599 19.5747 16.0769 21.8 17.3754C21.5731 18.1386 21.159 18.841 20.5858 19.4142L20 20H16C13.4388 20 10.9826 21.0174 9.17157 22.8284L8 24L12.8 27.6C14.8144 29.1108 16 31.4819 16 34V36H32V34C32 31.4819 33.1856 29.1108 35.2 27.6L40 24L38.8284 22.8284C37.0174 21.0174 34.5612 20 32 20H28L27.4142 19.4142C26.841 18.841 26.4269 18.1386 26.2 17.3754Z" fill="white" />
<path d="M16 40C13.7909 40 12 41.7909 12 44H36C36 41.7909 34.2091 40 32 40H16Z" fill="white" />
</svg>