<svg width="580" height="580" viewBox="0 0 580 580" fill="none" xmlns="http://www.w3.org/2000/svg">
<g clip-path="url(#clip0)">
<path d="M66.2751 1.76815C24.9401 1.76815 1.7041 23.1391 1.7041 66.8041V516.927C1.7041 557.771 22.5981 579.156 63.8961 579.156H515.92C557.227 579.156 578.149 558.84 578.149 516.927V66.8041C578.149 24.2031 557.227 1.76815 514.627 1.76815C514.624 1.76815 66.1331 1.62515 66.2751 1.76815Z" fill="#111111" stroke="#EEEEEE" stroke-width="3.408"/>
<path fill-rule="evenodd" clip-rule="evenodd" d="M343.887 167.059L330.408 188.826L307.5 169.551V415.223H544.576L528.102 328.148L508.631 341.209L492.156 312.91L483.17 291.141L453.217 273.725L460.705 243.248L432.25 210.596L403.793 201.889L397.803 219.303L369.348 191.004L343.887 167.059ZM225.57 175.766L212.09 206.242L161.17 208.418L149.188 245.426L108.75 262.842L96.7695 299.848L56.332 328.148L50.3398 369.508L35.3633 382.57L41.3555 415.223H272.5V181.189L270.5 182.297L225.57 175.766Z" fill="white" stroke="black"/>
</g>
<defs>
<clipPath id="clip0">
<path d="M0 0H580V580H0V0Z" fill="white"/>
</clipPath>
</defs>
</svg>
