<?xml version="1.0" encoding="UTF-8" standalone="no"?>
<!-- Created with Inkscape (http://www.inkscape.org/) -->

<svg
   xmlns:dc="http://purl.org/dc/elements/1.1/"
   xmlns:cc="http://creativecommons.org/ns#"
   xmlns:rdf="http://www.w3.org/1999/02/22-rdf-syntax-ns#"
   xmlns:svg="http://www.w3.org/2000/svg"
   xmlns="http://www.w3.org/2000/svg"
   xmlns:sodipodi="http://sodipodi.sourceforge.net/DTD/sodipodi-0.dtd"
   xmlns:inkscape="http://www.inkscape.org/namespaces/inkscape"
   version="1.0"
   width="580"
   height="580"
   id="svg2"
   sodipodi:version="0.32"
   inkscape:version="0.91 r"
   sodipodi:docname="information_guidepost.svg"
   inkscape:output_extension="org.inkscape.output.svg.inkscape">
  <metadata
     id="metadata10">
    <rdf:RDF>
      <cc:Work
         rdf:about="">
        <dc:format>image/svg+xml</dc:format>
        <dc:type
           rdf:resource="http://purl.org/dc/dcmitype/StillImage" />
        <cc:license
           rdf:resource="http://web.resource.org/cc/PublicDomain" />
        <dc:language>en</dc:language>
        <dc:title />
      </cc:Work>
    </rdf:RDF>
  </metadata>
  <sodipodi:namedview
     inkscape:window-height="1004"
     inkscape:window-width="1920"
     inkscape:pageshadow="2"
     inkscape:pageopacity="0.0"
     guidetolerance="10.0"
     gridtolerance="10.0"
     objecttolerance="10.0"
     borderopacity="1.0"
     bordercolor="#666666"
     pagecolor="#ffffff"
     id="base"
     showgrid="false"
     inkscape:zoom="0.7071068"
     inkscape:cx="712.97779"
     inkscape:cy="250.52304"
     inkscape:window-x="1680"
     inkscape:window-y="0"
     inkscape:current-layer="svg2"
     inkscape:window-maximized="1" />
  <defs
     id="defs4">
    <inkscape:perspective
       sodipodi:type="inkscape:persp3d"
       inkscape:vp_x="0 : 290 : 1"
       inkscape:vp_y="0 : 1000 : 0"
       inkscape:vp_z="580 : 290 : 1"
       inkscape:persp3d-origin="290 : 193.33333 : 1"
       id="perspective12" />
    <style
       type="text/css"
       id="style6">
   
    .fil0 {fill:#EF7900}
   
  </style>
    <inkscape:perspective
       id="perspective6807"
       inkscape:persp3d-origin="29.116032 : 19.410688 : 1"
       inkscape:vp_z="58.232063 : 29.116032 : 1"
       inkscape:vp_y="0 : 1000 : 0"
       inkscape:vp_x="0 : 29.116032 : 1"
       sodipodi:type="inkscape:persp3d" />
  </defs>
  <g
     id="g1327">
    <path
       d="M 66.275,1.768 C 24.94,1.768 1.704,23.139 1.704,66.804 L 1.704,516.927 C 1.704,557.771 22.598,579.156 63.896,579.156 L 515.92,579.156 C 557.227,579.156 578.149,558.84 578.149,516.927 L 578.149,66.804 C 578.149,24.203 557.227,1.768 514.627,1.768 C 514.624,1.768 66.133,1.625 66.275,1.768 z"
       style="fill:#111111;stroke:#eeeeee;stroke-width:3.40799999"
       id="path1329" />
  </g>
  <path
     style="font-style:normal;font-variant:normal;font-weight:bold;font-stretch:normal;font-size:48px;line-height:100%;font-family:Garamond;-inkscape-font-specification:'Garamond Bold';text-align:start;writing-mode:lr-tb;text-anchor:start;fill:#ffffff;fill-opacity:1;stroke:none;stroke-width:1px;stroke-linecap:butt;stroke-linejoin:miter;stroke-opacity:1"
     d="m 97.081278,100.99245 c 0,-12.717814 4.121542,-23.13963 12.364932,-31.265752 8.24325,-8.125068 18.84188,-12.187827 31.79575,-12.188279 13.89564,4.52e-4 25.43636,4.29881 34.62185,12.894925 9.18534,8.597018 13.77793,18.312338 13.77824,29.145962 -3.1e-4,8.008244 -1.82556,16.016044 -5.47605,24.023384 -3.65066,8.00825 -9.42109,14.42624 -17.31086,19.25413 -7.89022,4.82849 -15.95696,7.24265 -24.20005,7.24237 -11.30528,2.8e-4 -21.72708,-4.8279 -31.26575,-14.48473 -9.53881,-9.65608 -14.308062,-21.19665 -14.308062,-34.62201 l 0,0 z m -49.459911,421.46913 -0.70665,-22.96356 39.921251,-5.29924 c 5.88801,-1.6486 9.95077,-4.06276 12.188442,-7.24237 2.23735,-3.17945 3.3561,-10.30409 3.3561,-21.37376 l 0,-3.88609 c 0,-2.82614 0.17666,-7.94886 0.52998,-15.36789 0.35318,-7.41887 0.52985,-13.95475 0.52985,-19.6073 0,-4.47487 -0.35333,-13.07144 -1.05983,-25.78985 l 0.35334,-17.66419 -0.35334,-16.60451 0.70664,-57.58543 c -1.4e-4,-7.30099 -0.70664,-14.83774 -2.11978,-22.61025 -2.59082,-3.53262 -7.301302,-6.59435 -14.131402,-9.18533 -6.830261,-2.59053 -18.724141,-4.47472 -35.681681,-5.65256 l 0,-19.78397 c 24.25883,-1.41298 45.573671,-6.47662 63.944483,-15.19137 12.48267,-5.65227 26.0253,-15.66196 40.62792,-30.02912 l 23.67005,0 c 0.94195,29.20505 1.41299,67.1244 1.41314,113.75772 l -2.47295,144.14032 c -1.5e-4,9.89199 0.47089,18.84188 1.41298,26.84967 7.30116,2.59083 19.19504,5.18151 35.68184,7.77235 6.35905,0.94209 11.42269,2.11963 15.19122,3.53276 l -0.35317,19.43066 c -6.35936,0.2356 -11.06984,0.35331 -14.13141,0.35331 -3.53307,0 -8.95004,-0.23545 -16.25119,-0.70649 -24.02353,-1.1777 -56.17244,-1.76646 -96.44686,-1.76646 -11.540582,0 -22.727983,0.4121 -33.562063,1.23648 -10.83407,0.82436 -18.25309,1.23647 -22.25691,1.23647 l 0,0 z"
     id="flowRoot6828"
     inkscape:connector-curvature="0" />
  <path
     style="fill:#ffffff"
     inkscape:connector-curvature="0"
     id="path10"
     d="m 508.46479,212.26677 40.904,-37.604 -40.904,-37.604 -204.522,0 0,75.208 57.408,0 0,46.451 -104.983,0 -40.904,37.604 40.904,37.604 104.983,0 0,173.641 c 0,4.276 12.466,7.742 16.741,7.742 4.276,0 14.742,-3.466 14.742,-7.742 l 0,-173.641 68.056,0 0,-75.208 -68.056,0 0,-46.451 z"
     sodipodi:nodetypes="cccccccccccssscccccc" />
</svg>
