<?xml version="1.0" encoding="UTF-8" standalone="no"?>
<!-- Created with Inkscape (http://www.inkscape.org/) -->

<svg
   xmlns:dc="http://purl.org/dc/elements/1.1/"
   xmlns:cc="http://creativecommons.org/ns#"
   xmlns:rdf="http://www.w3.org/1999/02/22-rdf-syntax-ns#"
   xmlns:svg="http://www.w3.org/2000/svg"
   xmlns="http://www.w3.org/2000/svg"
   xmlns:sodipodi="http://sodipodi.sourceforge.net/DTD/sodipodi-0.dtd"
   xmlns:inkscape="http://www.inkscape.org/namespaces/inkscape"
   version="1.0"
   width="580"
   height="580"
   id="svg2"
   sodipodi:version="0.32"
   inkscape:version="0.91 r"
   sodipodi:docname="information_map.svg"
   inkscape:output_extension="org.inkscape.output.svg.inkscape">
  <metadata
     id="metadata10">
    <rdf:RDF>
      <cc:Work
         rdf:about="">
        <dc:format>image/svg+xml</dc:format>
        <dc:type
           rdf:resource="http://purl.org/dc/dcmitype/StillImage" />
        <cc:license
           rdf:resource="http://web.resource.org/cc/PublicDomain" />
        <dc:language>en</dc:language>
        <dc:title></dc:title>
      </cc:Work>
    </rdf:RDF>
  </metadata>
  <sodipodi:namedview
     inkscape:window-height="1004"
     inkscape:window-width="1920"
     inkscape:pageshadow="2"
     inkscape:pageopacity="0.0"
     guidetolerance="10.0"
     gridtolerance="10.0"
     objecttolerance="10.0"
     borderopacity="1.0"
     bordercolor="#666666"
     pagecolor="#ffffff"
     id="base"
     showgrid="false"
     inkscape:zoom="0.7071068"
     inkscape:cx="601.75"
     inkscape:cy="394.80376"
     inkscape:window-x="1680"
     inkscape:window-y="0"
     inkscape:current-layer="svg2"
     inkscape:window-maximized="1" />
  <defs
     id="defs4">
    <inkscape:perspective
       sodipodi:type="inkscape:persp3d"
       inkscape:vp_x="0 : 290 : 1"
       inkscape:vp_y="0 : 1000 : 0"
       inkscape:vp_z="580 : 290 : 1"
       inkscape:persp3d-origin="290 : 193.33333 : 1"
       id="perspective12" />
    <style
       type="text/css"
       id="style6">
   
    .fil0 {fill:#EF7900}
   
  </style>
    <inkscape:perspective
       id="perspective6807"
       inkscape:persp3d-origin="29.116032 : 19.410688 : 1"
       inkscape:vp_z="58.232063 : 29.116032 : 1"
       inkscape:vp_y="0 : 1000 : 0"
       inkscape:vp_x="0 : 29.116032 : 1"
       sodipodi:type="inkscape:persp3d" />
  </defs>
  <g
     id="g1327">
    <path
       d="M 66.275,1.768 C 24.94,1.768 1.704,23.139 1.704,66.804 L 1.704,516.927 C 1.704,557.771 22.598,579.156 63.896,579.156 L 515.92,579.156 C 557.227,579.156 578.149,558.84 578.149,516.927 L 578.149,66.804 C 578.149,24.203 557.227,1.768 514.627,1.768 C 514.624,1.768 66.133,1.625 66.275,1.768 z"
       style="fill:#111111;stroke:#eeeeee;stroke-width:3.40799999"
       id="path1329" />
  </g>
  <path
     style="font-style:normal;font-variant:normal;font-weight:bold;font-stretch:normal;font-size:48px;line-height:100%;font-family:Garamond;-inkscape-font-specification:'Garamond Bold';text-align:start;writing-mode:lr-tb;text-anchor:start;fill:#ffffff;fill-opacity:1;stroke:none;stroke-width:1px;stroke-linecap:butt;stroke-linejoin:miter;stroke-opacity:1"
     d="m 116.05184,70.992451 c 0,-12.717815 4.12154,-23.139631 12.36493,-31.265753 8.24325,-8.125068 18.84188,-12.187827 31.79575,-12.188279 13.89564,4.52e-4 25.43636,4.29881 34.62185,12.894925 9.18534,8.597018 13.77793,18.312338 13.77824,29.145962 -3.1e-4,8.008245 -1.82556,16.016045 -5.47605,24.023385 -3.65066,8.008249 -9.42109,14.426239 -17.31086,19.254129 -7.89022,4.82849 -15.95696,7.24265 -24.20005,7.24237 -11.30528,2.8e-4 -21.72708,-4.8279 -31.26575,-14.48473 -9.53881,-9.656079 -14.30806,-21.196649 -14.30806,-34.622009 l 0,0 z m -49.459911,421.469129 -0.70665,-22.96356 39.921251,-5.29924 c 5.88801,-1.6486 9.95077,-4.06276 12.18844,-7.24237 2.23735,-3.17945 3.3561,-10.30409 3.3561,-21.37376 l 0,-3.88609 c 0,-2.82614 0.17666,-7.94886 0.52998,-15.36789 0.35318,-7.41887 0.52985,-13.95475 0.52985,-19.6073 0,-4.47487 -0.35333,-13.07144 -1.05983,-25.78985 l 0.35334,-17.66419 -0.35334,-16.60451 0.70664,-57.58543 c -1.4e-4,-7.30099 -0.70664,-14.83774 -2.11978,-22.61025 -2.59082,-3.53262 -7.3013,-6.59435 -14.1314,-9.18533 -6.830261,-2.59053 -18.724141,-4.47472 -35.681681,-5.65256 l 0,-19.78397 c 24.25883,-1.41298 45.573671,-6.47662 63.944481,-15.19137 12.48267,-5.65227 26.0253,-15.66196 40.62792,-30.02912 l 23.67005,0 c 0.94195,29.20505 1.41299,67.1244 1.41314,113.75772 l -2.47295,144.14032 c -1.5e-4,9.89199 0.47089,18.84188 1.41298,26.84967 7.30116,2.59083 19.19504,5.18151 35.68184,7.77235 6.35905,0.94209 11.42269,2.11963 15.19122,3.53276 l -0.35317,19.43066 c -6.35936,0.2356 -11.06984,0.35331 -14.13141,0.35331 -3.53307,0 -8.95004,-0.23545 -16.25119,-0.70649 -24.02353,-1.1777 -56.17244,-1.76646 -96.44686,-1.76646 -11.54058,0 -22.727981,0.4121 -33.562061,1.23648 -10.83407,0.82436 -18.25309,1.23647 -22.25691,1.23647 l 0,0 z"
     id="flowRoot6828"
     inkscape:connector-curvature="0" />
  <g
     transform="matrix(0,0.8975215,-0.8975215,0,724.43238,-47.018874)"
     id="g10">
    <path
       style="fill:#ffffff"
       inkscape:connector-curvature="0"
       id="path12"
       d="m 259.171,418.5 c 27.533,0 32.687,40.293 33.579,51.264 2.063,0.178 4.073,0.397 5.99,0.608 6.117,0.672 11.895,1.31 15.479,0.25 6.63,-1.954 14.889,-5.621 16.587,-11.991 1.404,-5.27 -1.783,-12.018 -9.474,-20.058 -16.755,-17.517 -7.327,-39.546 2.251,-51.886 -11.975,-2.093 -22.972,-8.871 -26,-21.487 -0.927,-3.861 -2.608,-6.119 -5.14,-6.901 -2.821,-0.874 -6.499,-0.099 -10.375,1.518 -3.457,5.35 -9.209,9.075 -15.875,9.749 -1.402,1.086 -2.655,2.112 -3.7,3.008 3.348,14.952 2.082,31.146 1.996,32.176 l -5.979,-0.497 c 0.023,-0.276 1.679,-21.533 -3.575,-36.604 -5.694,-2.656 -10.021,-7.723 -11.678,-13.897 -2.422,-0.764 -5.134,-0.877 -8.205,-0.303 -2.42,0.454 -4.7,0.668 -6.838,0.668 -12.664,0.002 -20.542,-7.485 -25.715,-16.884 l 0,86.875 c 8.334,-0.497 17.742,-1.699 26.241,-2.786 11.352,-1.452 22.074,-2.822 30.431,-2.822 z" />
    <path
       style="fill:#ffffff"
       inkscape:connector-curvature="0"
       id="path14"
       d="m 344.543,378.531 c 0.531,-3.687 2.784,-6.47 6.209,-7.777 C 314.26,318.195 241.835,292.811 202.5,282.444 l 0,38.873 c 5.114,16.647 13.141,29.667 31.447,26.235 3.062,-0.576 5.928,-0.624 8.592,-0.163 0.414,-11.512 9.853,-20.725 21.466,-20.725 11.878,0 21.506,9.629 21.506,21.506 0,1.515 -0.16,2.99 -0.458,4.416 3.227,-0.755 6.36,-0.887 9.158,-0.021 3.207,0.99 7.407,3.744 9.205,11.234 3.117,12.986 16.686,16.318 22.375,17.148 10.256,1.496 17.776,-1.01 18.752,-2.416 z" />
    <path
       style="fill:#ffffff"
       inkscape:connector-curvature="0"
       id="path16"
       d="m 374.117,325.593 c -7.17,10e-4 -15.058,-5.647 -23.561,-14.827 0.311,7.789 2.293,30.282 14.729,39.876 5.999,4.629 13.876,5.628 23.407,2.969 22.258,-6.211 25.058,-18.525 26.562,-25.141 0.683,-3.001 1.271,-5.592 3.946,-6.25 3.029,-0.747 5.589,1.838 11.582,8.869 13.384,15.703 19.434,37.42 14.712,52.813 -2.168,7.066 -6.535,12.314 -12.484,15.118 4.707,0.42 9.498,1.148 12.548,2.865 l -0.64,1.137 c 41.308,1.438 84.077,-10.246 103.581,-16.441 l 0,-12.215 c -7.488,-0.313 -15.298,-1.349 -21.728,-2.956 -3.098,-0.774 -5.301,-2.384 -6.548,-4.783 -2.885,-5.552 0.235,-13.662 3.849,-23.054 3.313,-8.608 7.066,-18.366 5.498,-25.423 -0.51,-2.297 -1.388,-2.621 -1.676,-2.728 -4.414,-1.636 -16.943,7.765 -24.43,13.381 -7.305,5.48 -11.952,8.878 -15.315,9.625 -3.647,0.812 -15.777,3.014 -18.699,-2.667 -2.126,-4.132 1.899,-8.445 5.113,-11.33 5.439,-4.884 5.032,-20.637 2.768,-35.434 -3.206,1.898 -6.934,3.008 -10.93,3.008 -4.839,0 -9.29,-1.618 -12.883,-4.315 -11.146,16.679 -56.349,34.883 -77.614,37.782 -0.59,0.08 -1.186,0.121 -1.787,0.121 z" />
    <path
       style="fill:#ffffff"
       inkscape:connector-curvature="0"
       id="path18"
       d="m 417.693,399.876 c 0.419,-2.494 3.757,-3.54 10.008,-5.268 7.436,-2.056 10.661,-7.913 12.058,-12.466 4.153,-13.54 -1.415,-32.934 -13.542,-47.161 -0.959,-1.125 -3.31,-3.883 -5.018,-5.592 -0.032,0.14 -0.063,0.277 -0.094,0.41 -1.654,7.276 -5.097,22.417 -30.799,29.59 -11.461,3.196 -21.115,1.849 -28.697,-4.006 -17.467,-13.489 -17.132,-46.059 -17.109,-47.438 l 3.578,0.059 c -8.854,-10.11 -18.346,-23.725 -28.368,-38.577 -6.785,-10.056 -13.194,-19.554 -15.931,-21.469 -4.783,-3.352 -17.919,1.821 -30.621,6.822 -9.563,3.765 -19.451,7.658 -29.047,9.657 -15.83,3.298 -31.734,-3.8 -41.612,-9.734 l 0,15.269 c 12.473,3.163 28.632,7.896 46.278,14.678 35.813,13.766 84.434,38.901 112.685,80.479 13.328,19.612 33.629,30.019 56.231,34.747 z" />
    <path
       style="fill:#ffffff"
       inkscape:connector-curvature="0"
       id="path20"
       d="m 458.281,415.147 c -7.994,11.472 -14.521,10.172 -21.518,7.361 -5.194,-2.084 -8.626,-3.465 -14.96,6.59 -4.008,6.363 -5.18,12.296 -3.485,17.634 2.23,7.021 8.894,11.688 12.777,13.892 1.962,-5.103 5.403,-10.931 11.456,-15.51 11.16,-8.445 27.547,-9.955 48.698,-4.494 0.422,0.108 0.824,0.21 1.234,0.315 0.004,-0.003 0.009,-0.006 0.013,-0.008 l 0.007,0.013 c 23.305,5.938 28.361,5.018 29.439,4.414 -0.019,-0.905 -1.088,-3.184 -1.742,-4.579 -1.946,-4.146 -4.61,-9.825 -0.777,-14.241 5.703,-6.572 20.307,-13.503 29.076,-17.269 l 0,-10.055 c -15.33,4.742 -40.724,11.498 -68.99,14.507 -7.31,0.777 -14.388,1.25 -21.228,1.43 z" />
    <path
       style="fill:#ffffff"
       inkscape:connector-curvature="0"
       id="path22"
       d="m 415.034,488.5 c 0,-9.203 5.793,-17.034 13.922,-20.104 0.101,-0.584 0.223,-1.217 0.372,-1.891 -4.396,-2.306 -13.593,-8.142 -16.717,-17.921 -2.271,-7.11 -0.887,-14.742 4.116,-22.684 8.999,-14.288 16.669,-11.211 22.272,-8.96 4.02,1.613 7.222,2.892 11.609,-1.727 -15.05,-0.104 -28.842,-1.72 -41.2,-4.869 -8.209,-2.092 -15.785,-4.865 -22.73,-8.287 10.041,18.556 20.821,44.515 20.821,70.441 0,7.853 0.937,15.212 2.529,22 l 5.87,0 c -0.553,-1.904 -0.864,-3.913 -0.864,-5.998 z" />
    <path
       style="fill:#ffffff"
       inkscape:connector-curvature="0"
       id="path24"
       d="m 485.379,445.399 c -17.142,-3.721 -30.324,-2.223 -39.207,4.499 -6.757,5.112 -9.605,12.251 -10.805,17.155 0.391,-0.021 0.776,-0.06 1.173,-0.06 11.878,0 21.506,9.629 21.506,21.506 0,2.085 -0.312,4.094 -0.865,6 l 39.838,0 c -2.485,-3.489 -4.526,-7.516 -5.896,-12.15 -1.069,-3.62 -2.526,-5.905 -4.329,-6.793 -2.626,-1.292 -6.501,0.209 -9.923,1.53 -3.713,1.434 -7.218,2.789 -10.175,1.104 -1.683,-0.96 -2.744,-2.691 -3.155,-5.146 -1.669,-9.969 12.436,-21.3 21.838,-27.645 z" />
    <path
       style="fill:#ffffff"
       inkscape:connector-curvature="0"
       id="path26"
       d="m 395.5,472.5 c 0,-42.381 -33.297,-87.225 -35.146,-89.677 -2.053,-2.174 -3.998,-4.45 -5.827,-6.836 -0.451,0.04 -0.899,0.107 -1.327,0.24 -1.614,0.501 -2.507,1.556 -2.729,3.226 -0.873,6.589 -12.477,7.7 -16.012,7.884 -0.844,0.044 -1.693,0.066 -2.547,0.066 -0.359,0 -0.72,-0.008 -1.081,-0.016 -4.366,4.941 -23.095,28.294 -5.164,47.039 9.236,9.655 12.915,18.319 10.935,25.749 -1.911,7.173 -9.064,12.775 -20.687,16.202 -4.738,1.396 -11.099,0.698 -17.831,-0.042 -14.839,-1.629 -30.182,-3.315 -36.089,13.176 l -5.648,-2.023 c 5.585,-15.592 18.184,-18.35 30.333,-18.074 -1.03,-10.83 -5.985,-44.914 -27.509,-44.914 -7.976,0 -18.513,1.347 -29.669,2.773 -9.498,1.214 -18.782,2.398 -27.002,2.865 l 0,64.362 195.264,0 c -1.437,-6.881 -2.264,-14.236 -2.264,-22 z" />
    <path
       style="fill:#ffffff"
       inkscape:connector-curvature="0"
       id="path28"
       d="m 242.888,258.563 c 9.097,-1.895 18.743,-5.693 28.072,-9.366 15.472,-6.092 28.833,-11.354 36.26,-6.154 3.477,2.434 8.639,9.951 17.463,23.028 13.943,20.663 37.275,55.249 50.411,53.457 9.906,-1.351 24.709,-6.135 38.561,-12.255 -9.156,-7.884 -30.928,-29.145 -22.891,-47.003 8.038,-17.863 4.846,-21.383 -16.701,-33.135 l 2.873,-5.268 c 22.417,12.228 29.363,18.501 19.299,40.865 -2.085,4.634 -1.259,9.942 1.124,15.252 7.064,-7.399 24.864,-23.661 36.998,-14.091 2.622,2.067 6.409,3.164 10.773,3.599 1.468,-10.449 10.419,-18.497 21.271,-18.497 8.474,0 15.781,4.913 19.286,12.035 6.319,-2.594 27.495,-31.752 27.813,-36.552 -10e-4,-1.458 0.776,-4.892 7.58,-5.977 l -318.58,0 0,29.073 c 8.564,5.6 24.882,14.22 40.388,10.989 z" />
    <path
       style="fill:#ffffff"
       inkscape:connector-curvature="0"
       id="path30"
       d="m 445.134,273.529 c -5.632,-0.517 -10.748,-1.974 -14.491,-4.926 -8.142,-6.419 -23.43,7.346 -30.266,14.923 5.468,8.633 13.9,16.624 19.297,20.972 13.99,-6.729 26.015,-14.572 29.495,-21.172 -2.1,-2.816 -3.521,-6.157 -4.035,-9.797 z" />
    <path
       style="fill:#ffffff"
       inkscape:connector-curvature="0"
       id="path32"
       d="m 523.955,430.466 c -1.181,1.361 0.005,4.196 1.678,7.761 1.706,3.637 3.641,7.759 1.027,10.909 -2.812,3.392 -9.299,4.18 -33.233,-1.776 -11.219,6.875 -25.042,18.277 -23.968,24.694 0.087,0.521 0.196,0.795 0.259,0.918 0.864,0.108 3.338,-0.844 4.991,-1.481 4.346,-1.679 9.753,-3.769 14.734,-1.316 3.416,1.682 5.848,5.108 7.434,10.477 1.65,5.585 4.431,10.159 7.838,13.85 l 43.785,0 0,-78.686 c -8.899,3.96 -20.302,9.76 -24.545,14.65 z" />
    <path
       style="fill:#ffffff"
       inkscape:connector-curvature="0"
       id="path34"
       d="m 548.5,226.008 0,-7.508 -18.106,0 c 6.103,0.825 12.672,3.219 18.106,7.508 z" />
    <path
       style="fill:#ffffff"
       inkscape:connector-curvature="0"
       id="path36"
       d="m 478.572,328.896 c -2.502,2.247 -3.313,3.564 -3.572,4.143 1.501,0.646 6.238,0.778 11.85,-0.468 2.269,-0.504 7.979,-4.788 13.016,-8.567 11.123,-8.346 22.616,-16.973 30.111,-14.209 1.931,0.715 4.444,2.518 5.452,7.055 1.961,8.823 -2.139,19.478 -5.756,28.879 -2.833,7.364 -5.763,14.979 -4.124,18.132 0.271,0.522 0.845,1.271 2.679,1.729 6.614,1.653 13.747,2.553 20.272,2.833 l 0,-134.105 c -4.296,-5.121 -10.006,-7.595 -13.828,-8.733 -7.443,-2.216 -13.651,-1.366 -15.216,-0.434 -0.684,5.422 -9.189,17.231 -12.934,22.208 -3.902,5.186 -13.533,17.417 -18.963,19.387 0.216,1.221 0.349,2.471 0.349,3.754 0,5.361 -1.974,10.252 -5.219,14.019 2.646,14.928 4.609,36.543 -4.117,44.377 z" />
  </g>
</svg>
