<?xml version="1.0" encoding="UTF-8" standalone="no"?>
<!-- Created with Inkscape (http://www.inkscape.org/) -->

<svg
   xmlns:dc="http://purl.org/dc/elements/1.1/"
   xmlns:cc="http://creativecommons.org/ns#"
   xmlns:rdf="http://www.w3.org/1999/02/22-rdf-syntax-ns#"
   xmlns:svg="http://www.w3.org/2000/svg"
   xmlns="http://www.w3.org/2000/svg"
   xmlns:sodipodi="http://sodipodi.sourceforge.net/DTD/sodipodi-0.dtd"
   xmlns:inkscape="http://www.inkscape.org/namespaces/inkscape"
   version="1.0"
   width="580"
   height="580"
   id="svg2"
   sodipodi:version="0.32"
   inkscape:version="0.91 r"
   sodipodi:docname="icn_ref.svg"
   inkscape:output_extension="org.inkscape.output.svg.inkscape">
  <metadata
     id="metadata2975">
    <rdf:RDF>
      <cc:Work
         rdf:about="">
        <dc:format>image/svg+xml</dc:format>
        <dc:type
           rdf:resource="http://purl.org/dc/dcmitype/StillImage" />
        <cc:license
           rdf:resource="http://web.resource.org/cc/PublicDomain" />
        <dc:language>en</dc:language>
        <dc:title />
      </cc:Work>
    </rdf:RDF>
  </metadata>
  <sodipodi:namedview
     inkscape:window-height="1004"
     inkscape:window-width="1920"
     inkscape:pageshadow="2"
     inkscape:pageopacity="0.0"
     guidetolerance="10.0"
     gridtolerance="10.0"
     objecttolerance="10.0"
     borderopacity="1.0"
     bordercolor="#666666"
     pagecolor="#ffffff"
     id="base"
     inkscape:zoom="0.7071068"
     inkscape:cx="661.67931"
     inkscape:cy="425.01906"
     inkscape:window-x="1680"
     inkscape:window-y="0"
     inkscape:current-layer="svg2"
     showgrid="false"
     inkscape:window-maximized="1"
     inkscape:snap-global="false"
     inkscape:snap-intersection-paths="true"
     inkscape:object-paths="true"
     inkscape:object-nodes="true"
     inkscape:snap-smooth-nodes="true" />
  <defs
     id="defs4">
    <inkscape:perspective
       sodipodi:type="inkscape:persp3d"
       inkscape:vp_x="0 : 290 : 1"
       inkscape:vp_y="0 : 1000 : 0"
       inkscape:vp_z="580 : 290 : 1"
       inkscape:persp3d-origin="290 : 193.33333 : 1"
       id="perspective2441" />
    <inkscape:perspective
       id="perspective3452"
       inkscape:persp3d-origin="30 : 20 : 1"
       inkscape:vp_z="60 : 30 : 1"
       inkscape:vp_y="0 : 1000 : 0"
       inkscape:vp_x="0 : 30 : 1"
       sodipodi:type="inkscape:persp3d" />
    <symbol
       viewBox="244.5 110 489 219.9"
       id="symbol-university">
      <path
         id="path4460"
         d="M79,43l57,119c0,0,21-96,104-96s124,106,124,106l43-133l82-17L0,17L79,43z" />
      <path
         id="path4462"
         d="M94,176l-21,39"
         stroke-width="20"
         stroke="#000000"
         fill="none" />
      <path
         id="path4464"
         d="M300,19c0,10.5-22.6,19-50.5,19S199,29.5,199,19s22.6-19,50.5-19S300,8.5,300,19z" />
      <path
         id="path4466"
         d="M112,216l-16-38L64,88c0,0-9-8-4-35s16-24,16-24"
         stroke-width="20"
         stroke="#000000"
         ill="none" />
    </symbol>
    <inkscape:perspective
       id="perspective4471"
       inkscape:persp3d-origin="372.04724 : 350.78739 : 1"
       inkscape:vp_z="744.09448 : 526.18109 : 1"
       inkscape:vp_y="0 : 1000 : 0"
       inkscape:vp_x="0 : 526.18109 : 1"
       sodipodi:type="inkscape:persp3d" />
    <inkscape:perspective
       id="perspective4668"
       inkscape:persp3d-origin="6 : 4 : 1"
       inkscape:vp_z="12 : 6 : 1"
       inkscape:vp_y="0 : 1000 : 0"
       inkscape:vp_x="0 : 6 : 1"
       sodipodi:type="inkscape:persp3d" />
  </defs>
  <g
     id="g1327">
    <path
       d="M 66.275,1.768 C 24.94,1.768 1.704,23.139 1.704,66.804 L 1.704,516.927 C 1.704,557.771 22.599,579.156 63.896,579.156 L 515.92,579.156 C 557.227,579.156 578.149,558.841 578.149,516.927 L 578.149,66.804 C 578.149,24.203 557.227,1.768 514.628,1.768 C 514.624,1.768 66.133,1.625 66.275,1.768 z "
       style="fill:#111;stroke:#eee;stroke-width:3.40799999"
       id="path1329" />
  </g>
  <path
     style="color:#000000;font-style:normal;font-variant:normal;font-weight:normal;font-stretch:normal;font-size:medium;line-height:normal;font-family:sans-serif;text-indent:0;text-align:start;text-decoration:none;text-decoration-line:none;text-decoration-style:solid;text-decoration-color:#000000;letter-spacing:normal;word-spacing:normal;text-transform:none;direction:ltr;block-progression:tb;writing-mode:lr-tb;baseline-shift:baseline;text-anchor:start;white-space:normal;clip-rule:nonzero;display:inline;overflow:visible;visibility:visible;opacity:1;isolation:auto;mix-blend-mode:normal;color-interpolation:sRGB;color-interpolation-filters:linearRGB;solid-color:#000000;solid-opacity:1;fill:#ffffff;fill-opacity:1;fill-rule:evenodd;stroke:none;stroke-width:30.84116745;stroke-linecap:round;stroke-linejoin:round;stroke-miterlimit:4;stroke-dasharray:none;stroke-dashoffset:0;stroke-opacity:1;color-rendering:auto;image-rendering:auto;shape-rendering:auto;text-rendering:auto;enable-background:accumulate"
     d="M 523.93555,39.185547 359.51562,39.625 c -6.82756,0.01914 -12.82991,4.525274 -14.7539,11.076172 l -28.91016,98.472658 c -0.90884,3.09866 -0.82207,6.40444 0.24805,9.45117 l 28.23047,80.40039 c 2.17361,6.19002 8.02541,10.32734 14.58594,10.3125 l 166,-0.38672 c 8.5333,-0.0206 15.42788,-6.96679 15.38476,-15.5 l -0.9043,-178.923826 c -0.0442,-8.501182 -6.95966,-15.363308 -15.46093,-15.341797 z m -124.13867,23.076474 76.53124,0 0,10.266928 -4.62304,0 c -12.23426,0 -16.29492,1.088799 -16.29492,10.270619 l 0,6.335855 0,103.998087 0,6.33402 c 0,9.17626 3.4014,10.26877 16.29492,10.26877 l 4.62304,0 0,10.26693 -76.53124,0 0,-10.26693 4.62304,0 c 11.44991,0 16.52344,-1.09251 16.52344,-10.26877 l 0,-6.33402 0,-103.998087 0,-6.335855 c 0,-9.359087 -2.55215,-12.268479 -16.52344,-10.270619 l -4.62304,0 z"
     id="path3239"
     inkscape:connector-curvature="0"
     sodipodi:nodetypes="ccccccccscccccssccssccccssccsscc" />
  <path
     inkscape:connector-curvature="0"
     style="fill:#ffffff;fill-opacity:1;fill-rule:evenodd;stroke:#ffffff;stroke-width:11.69249439;stroke-linecap:round;stroke-linejoin:round;stroke-miterlimit:4;stroke-dasharray:none;stroke-opacity:1"
     d="m 534.25141,92.42654 -20.12638,0 0,441.96283 19.9162,0 0.21018,-441.96283 z"
     id="path2459"
     sodipodi:nodetypes="ccccc" />
  <path
     d="m 179.51284,130.38357 c -19.00219,-0.35828 -34.61482,15.41466 -34.61482,34.65441 0,19.23973 15.61263,34.90919 34.61482,35.26748 19.00242,0.35827 33.92262,-14.7355 33.92262,-33.97523 0,-19.23975 -14.9202,-35.58838 -33.92262,-35.94666 z m -40.76013,83.65031 -31.84549,113.84686 c -3.23387,19.88751 -3.47989,34.42763 15.92287,49.34417 l 13.84574,10.73127 33.2304,31.43179 0,88.6141 c 0.0209,12.56496 10.08816,21.98631 22.49963,21.05601 12.41147,-0.93032 22.47878,-5.71325 22.49963,-18.28133 l 0,-104.45396 c -0.0825,-6.03165 -2.58066,-11.59011 -6.92287,-15.40394 l -34.61483,-32.71247 -9.69221,-11.73481 15.92286,-67.65407 29.76861,28.92193 c 6.46021,6.30366 16.43879,7.496 24.92287,2.9781 l 35.99949,-21.39057 0,227.76589 22.1533,-1.66054 0,-238.84253 6.9231,-3.98047 c 10.52816,-4.03461 17.07278,-15.14276 15.32647,-26.01349 -1.74632,-10.87071 -11.24723,-18.16517 -22.24957,-17.08242 l 0,-8.99976 -22.1533,1.66053 0,17.99976 -40.84571,23.83048 -37.38394,-36.65867 c -3.19615,-3.01427 -7.30621,-4.88209 -11.7691,-5.34851 -0.66494,-0.38349 -1.46974,-1.07065 -2.07734,-1.22917 l -39.46105,-6.73436 z m -29.76861,3.61625 c -12.960481,1.27871 -28.370639,5.07885 -42.922609,18.44793 -19.402531,17.82525 -32.073412,46.19776 -35.307045,67.7224 -3.233878,19.8875 11.523069,25.37844 27.691953,29.07759 16.168662,3.69939 30.688746,-3.99472 33.9224,-15.69621 4.850799,-15.09738 29.076621,-100.48577 29.076621,-100.48577 -3.6381,0.27269 -8.1413,0.51857 -12.46132,0.93406 z m -8.30753,155.69734 -6.923099,44.82596 0,0.69246 c -0.246892,0.47193 -0.477845,0.95115 -0.692468,1.4368 -0.796324,1.14785 -1.491661,2.35854 -2.07734,3.61703 l -32.537948,84.13013 c -4.593926,11.81612 0.984581,24.42149 12.458159,28.15087 11.473575,3.72939 22.035825,1.61328 26.620721,-10.20577 L 132.5216,437.42152 c 1.41556,-3.1385 2.12577,-6.50539 2.07736,-9.84792 0.0144,-0.46259 0.0144,-0.92446 0,-1.3849 l 4.15375,-12.77268 c -21.01946,-16.43245 -38.07637,-28.60874 -38.07637,-40.06853 z"
     id="circle3-5"
     style="color:#000000;display:inline;overflow:visible;visibility:visible;fill:#ffffff;fill-opacity:1;fill-rule:nonzero;stroke:none;marker:none;enable-background:accumulate"
     inkscape:connector-curvature="0"
     sodipodi:nodetypes="sssssccccccscccccccccccccscccccccccccscccccccccccsccccccc" />
</svg>
