<svg width="580" height="580" viewBox="0 0 580 580" fill="none" xmlns="http://www.w3.org/2000/svg">
<g clip-path="url(#clip0)">
<path d="M66.2751 1.76815C24.9401 1.76815 1.7041 23.1391 1.7041 66.8041V516.927C1.7041 557.771 22.5991 579.156 63.8961 579.156H515.92C557.227 579.156 578.149 558.841 578.149 516.927V66.8041C578.149 24.2031 557.227 1.76815 514.628 1.76815C514.624 1.76815 66.1331 1.62515 66.2751 1.76815Z" fill="#111111" stroke="#EEEEEE" stroke-width="3.408"/>
<path fill-rule="evenodd" clip-rule="evenodd" d="M484.345 60.5942H504.731V535.076H484.558L484.345 60.5942V60.5942Z" fill="white" stroke="white" stroke-width="20.0778" stroke-linecap="round" stroke-linejoin="round"/>
<path fill-rule="evenodd" clip-rule="evenodd" d="M77.2695 62.5942H97.6554V533.406H77.4824L77.2695 62.5942V62.5942Z" fill="white" stroke="white" stroke-width="20" stroke-linecap="round" stroke-linejoin="round"/>
<path opacity="0.01" d="M500.375 37.0625C357.224 38.3493 214.039 35.9187 70.9064 38.375C55.9448 42.2844 49.4449 59.8593 51.8751 74C53.4325 176.812 50.4543 279.696 53.4689 382.469C58.2165 397.111 75.9283 402.885 90.0001 400C230.039 399.52 370.103 400.969 510.125 399.188C525.405 395.213 532.225 377.144 529.063 362.719C528.517 260.477 530.203 158.165 528.094 55.9688C525.202 43.88 512.293 36.4925 500.375 37.0625Z" fill="white"/>
<path opacity="0.75" d="M500.375 37.0625C357.224 38.3493 214.039 35.9187 70.9064 38.375C55.9448 42.2844 49.4449 59.8593 51.8751 74C53.4325 176.812 50.4543 279.696 53.4689 382.469C58.2165 397.111 75.9283 402.885 90.0001 400C230.039 399.52 370.103 400.969 510.125 399.188C525.405 395.213 532.225 377.144 529.063 362.719C528.517 260.477 530.203 158.165 528.094 55.9688C525.202 43.88 512.293 36.4925 500.375 37.0625ZM287.594 52.3438C289.022 52.3274 290.434 52.7137 291.594 53.5625C315.87 86.2844 337.865 120.731 361.531 153.938C366.632 157.783 367.305 168.374 359.781 169.75C342.893 165.363 327.109 157.304 310.938 150.75C310.909 172.131 311.437 193.79 309 214.969C302.474 221.357 292.284 218.068 284.094 218.5C276.287 217.694 265.876 221.751 260.219 214.281C258.233 193.369 260.391 172.168 260.438 151.156C246.897 156.716 232.979 161.548 219.531 167.406C214.368 172.198 203.717 168.039 205.5 160.469C225.545 130.907 247.607 102.531 268.5 73.4688C275.027 66.8332 277.879 56.2399 286.969 52.375C287.172 52.3561 287.39 52.3461 287.594 52.3438ZM342.094 235.219C347.245 234.999 352.745 237.957 352.719 243.688C352.744 288.541 353.56 333.477 352.375 378.344C348.575 386.59 337.575 384.805 330.438 382.812C306.514 359.585 284.079 334.624 260.813 310.656C260.712 331.89 261.502 353.154 260.438 374.375C261.369 381.434 252.887 383.187 247.531 382.5C239.624 380.968 231.374 384.254 223.75 381.469C216.875 379.048 219.273 370.483 218.469 364.875C219.143 324.647 217.649 284.404 219.031 244.188C217.51 237.484 225.124 235.323 230.281 235.313C234.352 235.192 238.351 235.832 242.313 236.469C266.226 258.017 287.722 282.444 310.594 305.219C310.608 291.371 310.484 277.504 310.531 263.656C311.746 255.131 308.424 245.636 313 237.781C321.163 233.155 331.014 236.798 339.906 235.5C340.61 235.338 341.358 235.25 342.094 235.219Z" fill="white"/>
</g>
<defs>
<clipPath id="clip0">
<path d="M0 0H580V580H0V0Z" fill="white"/>
</clipPath>
</defs>
</svg>
