<svg width="580" height="580" viewBox="0 0 580 580" fill="none" xmlns="http://www.w3.org/2000/svg">
<g clip-path="url(#clip0)">
<path d="M66.2751 1.76815C24.9401 1.76815 1.7041 23.1391 1.7041 66.8041V516.927C1.7041 557.771 22.5991 579.156 63.8961 579.156H515.92C557.227 579.156 578.149 558.841 578.149 516.927V66.8041C578.149 24.2031 557.227 1.76815 514.628 1.76815C514.624 1.76815 66.1331 1.62515 66.2751 1.76815Z" fill="#111111" stroke="#EEEEEE" stroke-width="3.408"/>
<path d="M186.769 49.3848C151.305 49.3848 126.203 80.8765 126.203 96.2044V529.76C126.262 531.204 453.851 530.545 453.797 529.76V96.2044C453.797 80.8765 426.362 49.3848 393.2 49.3848H186.769ZM319.172 121.27C324.972 121.27 329.516 123.571 332.803 128.172C336.09 132.773 337.734 139.127 337.734 147.234C337.734 155.32 336.09 161.665 332.803 166.266C329.516 170.868 324.972 173.165 319.172 173.165C313.387 173.165 308.844 170.868 305.541 166.266C302.254 161.665 300.61 155.32 300.61 147.234C300.61 139.127 302.254 132.773 305.541 128.172C308.844 123.571 313.387 121.27 319.172 121.27ZM141.142 122.175H150.447V152.16C150.447 156.292 150.931 159.252 151.897 161.038C152.88 162.803 154.477 163.684 156.684 163.684C158.908 163.684 160.502 162.803 161.469 161.038C162.452 159.252 162.943 156.292 162.943 152.16V122.175H172.248V152.16C172.248 159.24 170.966 164.512 168.405 167.974C165.843 171.436 161.937 173.165 156.684 173.165C151.448 173.165 147.548 171.436 144.986 167.974C142.424 164.512 141.142 159.24 141.142 152.16V122.175ZM181.361 122.175H191.753L204.876 156.482V122.175H213.698V172.194H203.306L190.181 137.886V172.194H181.361V122.175ZM222.833 122.175H232.138V140.432L245.553 122.175H256.356L238.98 145.86L258.144 172.194H246.496L232.138 152.496V172.194H222.833V122.175ZM261.215 122.175H271.607L284.729 156.482V122.175H293.552V172.194H283.159L270.035 137.886V172.194H261.215V122.175ZM341.673 122.175H350.592L356.827 158.526L363.013 122.175H371.98L378.168 158.526L384.403 122.175H393.25L384.742 172.194H374.011L367.461 134.169L360.984 172.194H350.253L341.673 122.175ZM399.364 122.175H409.757L422.881 156.482V122.175H431.701V172.194H421.309L408.187 137.886V172.194H399.364V122.175ZM319.172 130.618C316.336 130.618 314.135 132.068 312.572 134.971C311.01 137.875 310.229 141.963 310.229 147.234C310.229 152.483 311.01 156.561 312.572 159.464C314.135 162.368 316.336 163.82 319.172 163.82C322.024 163.82 324.23 162.368 325.793 159.464C327.356 156.561 328.138 152.483 328.138 147.234C328.138 141.963 327.356 137.875 325.793 134.971C324.23 132.068 322.024 130.618 319.172 130.618ZM275 206.982H305V254.045H357.52V284.045H305V385.668H275V284.045H222.48V254.045H275V206.982ZM257.389 429.733C261.713 429.733 265 430.967 267.25 433.439C269.5 435.887 270.626 439.486 270.626 444.232C270.626 447.404 270.067 450.05 268.95 452.173C267.849 454.296 266.213 455.872 264.043 456.896C266.469 457.945 268.294 459.655 269.523 462.028C270.768 464.375 271.392 467.348 271.392 470.944C271.392 476.489 270.211 480.686 267.849 483.534C265.504 486.356 262.016 487.765 257.389 487.765C252.746 487.765 249.235 486.356 246.857 483.534C244.496 480.686 243.315 476.489 243.315 470.944C243.315 467.348 243.931 464.375 245.16 462.028C246.404 459.655 248.238 457.945 250.663 456.896C248.493 455.872 246.858 454.296 245.757 452.173C244.656 450.05 244.107 447.404 244.107 444.232C244.107 439.511 245.23 435.912 247.48 433.439C249.73 430.967 253.033 429.733 257.389 429.733ZM345.945 429.733C350.27 429.733 353.557 430.967 355.807 433.439C358.056 435.887 359.182 439.486 359.182 444.232C359.182 447.404 358.623 450.05 357.506 452.173C356.405 454.296 354.77 455.872 352.6 456.896C355.025 457.945 356.851 459.655 358.079 462.028C359.324 464.375 359.948 467.348 359.948 470.944C359.948 476.489 358.767 480.686 356.406 483.534C354.06 486.356 350.573 487.765 345.945 487.765C341.302 487.765 337.791 486.356 335.414 483.534C333.052 480.686 331.872 476.489 331.872 470.944C331.872 467.348 332.488 464.375 333.716 462.028C334.961 459.655 336.795 457.945 339.22 456.896C337.05 455.872 335.414 454.296 334.313 452.173C333.212 450.05 332.663 447.404 332.663 444.232C332.663 439.511 333.787 435.912 336.037 433.439C338.286 430.967 341.589 429.733 345.945 429.733V429.733ZM414.111 429.733C418.802 429.733 422.423 432.253 424.976 437.299C427.529 442.319 428.806 449.476 428.806 458.768C428.806 468.034 427.529 475.191 424.976 480.237C422.423 485.257 418.802 487.765 414.111 487.765C409.404 487.765 405.773 485.257 403.22 480.237C400.668 475.191 399.391 468.034 399.391 458.768C399.391 449.476 400.668 442.319 403.22 437.299C405.773 432.253 409.404 429.733 414.111 429.733ZM225.989 429.807C227.632 429.807 229.227 430.007 230.775 430.406C232.322 430.806 233.854 431.405 235.37 432.204V442.546C233.854 441.422 232.426 440.596 231.086 440.071C229.746 439.522 228.437 439.249 227.161 439.249C224.416 439.249 222.279 440.446 220.747 442.844C219.215 445.216 218.321 448.75 218.065 453.446C219.118 452.222 220.26 451.31 221.489 450.711C222.717 450.086 224.057 449.777 225.509 449.777C229.163 449.777 232.107 451.45 234.341 454.797C236.59 458.144 237.716 462.528 237.716 467.948C237.716 473.943 236.463 478.751 233.958 482.373C231.453 485.969 228.095 487.765 223.882 487.765C219.239 487.765 215.64 485.318 213.087 480.423C210.55 475.502 209.281 468.533 209.281 459.516C209.281 450.274 210.766 443.019 213.734 437.749C216.717 432.454 220.803 429.807 225.989 429.807V429.807ZM151.911 430.741H160.671V476.713H168.809V486.679H143.823V476.713H151.96V440.559L143.607 443.257V433.44L151.911 430.741ZM175.439 430.741H202.365V438.873L188.436 486.679H179.459L192.647 441.347H175.439V430.741ZM308.633 430.741H317.393V476.713H325.531V486.679H300.543V476.713H308.68V440.559L300.326 443.257V433.44L308.633 430.741ZM379.478 430.741H389.722V466.036H394.819V476.489H389.722V486.679H381.009V476.489H365.164V464.126L379.478 430.741ZM257.389 438.798C255.921 438.798 254.789 439.397 253.992 440.596C253.21 441.795 252.817 443.493 252.817 445.691C252.817 447.914 253.21 449.627 253.992 450.826C254.789 452.025 255.921 452.624 257.389 452.624C258.825 452.624 259.935 452.025 260.717 450.826C261.499 449.627 261.889 447.914 261.889 445.691C261.889 443.468 261.499 441.77 260.717 440.596C259.935 439.397 258.825 438.798 257.389 438.798ZM345.945 438.798C344.477 438.798 343.346 439.397 342.548 440.596C341.766 441.795 341.374 443.493 341.374 445.691C341.374 447.914 341.766 449.627 342.548 450.826C343.346 452.025 344.477 452.624 345.945 452.624C347.381 452.624 348.492 452.025 349.274 450.826C350.055 449.627 350.446 447.914 350.446 445.691C350.446 443.468 350.055 441.77 349.274 440.596C348.492 439.397 347.381 438.798 345.945 438.798ZM414.111 439.584C412.133 439.584 410.72 441.021 409.875 443.893C409.029 446.74 408.605 451.662 408.605 458.656C408.605 465.725 409.029 470.708 409.875 473.605C410.72 476.502 412.133 477.952 414.111 477.952C416.074 477.952 417.476 476.502 418.322 473.605C419.167 470.708 419.591 465.725 419.591 458.656C419.591 451.662 419.167 446.74 418.322 443.893C417.492 441.021 416.09 439.584 414.111 439.584ZM381.009 442.62L370.91 466.036H381.009V442.62ZM223.978 459.069C222.366 459.069 221.154 459.892 220.34 461.54C219.542 463.164 219.142 465.611 219.142 468.883C219.142 472.155 219.542 474.617 220.34 476.266C221.154 477.889 222.366 478.7 223.978 478.7C225.605 478.7 226.817 477.889 227.615 476.266C228.429 474.617 228.837 472.155 228.837 468.883C228.837 465.611 228.429 463.164 227.615 461.54C226.817 459.892 225.605 459.069 223.978 459.069ZM277.064 459.143H292.094V470.044H277.064V459.143ZM257.389 461.652C255.666 461.652 254.342 462.389 253.416 463.862C252.491 465.336 252.028 467.449 252.028 470.196C252.028 472.944 252.491 475.053 253.416 476.526C254.342 477.975 255.666 478.7 257.389 478.7C259.096 478.7 260.405 477.975 261.314 476.526C262.224 475.053 262.679 472.944 262.679 470.196C262.679 467.424 262.224 465.311 261.314 463.862C260.405 462.389 259.096 461.652 257.389 461.652ZM345.945 461.652C344.222 461.652 342.898 462.389 341.973 463.862C341.047 465.336 340.584 467.449 340.584 470.196C340.584 472.944 341.047 475.053 341.973 476.526C342.898 477.975 344.222 478.7 345.945 478.7C347.653 478.7 348.961 477.975 349.87 476.526C350.78 475.053 351.235 472.944 351.235 470.196C351.235 467.424 350.78 465.311 349.87 463.862C348.961 462.389 347.653 461.652 345.945 461.652Z" fill="white"/>
</g>
<defs>
<clipPath id="clip0">
<path d="M0 0H580V580H0V0Z" fill="white"/>
</clipPath>
</defs>
</svg>
