<svg width="580" height="580" viewBox="0 0 580 580" fill="none" xmlns="http://www.w3.org/2000/svg">
<g clip-path="url(#clip0)">
<path d="M66.2751 1.76815C24.9401 1.76815 1.7041 23.1391 1.7041 66.8041V516.927C1.7041 557.771 22.5981 579.156 63.8961 579.156H515.92C557.227 579.156 578.149 558.84 578.149 516.927V66.8041C578.149 24.2031 557.227 1.76815 514.627 1.76815C514.624 1.76815 66.1331 1.62515 66.2751 1.76815Z" fill="#111111" stroke="#EEEEEE" stroke-width="3.408"/>
<path d="M122.842 80.0117C94.0848 80.0117 70.7715 103.323 70.7715 132.08V447.92C70.7715 476.677 94.0848 499.988 122.842 499.988H457.16C485.917 499.988 509.229 476.676 509.229 447.92V132.08C509.23 103.323 485.917 80.0117 457.16 80.0117H122.842ZM141.508 130.836H438.492V185.836H141.508V130.836ZM141.508 241.196H438.492V261.196H141.508V241.196ZM141.508 298.942H438.492V318.942H141.508V298.942ZM141.508 356.69H438.492V376.69H141.508V356.69ZM141.508 414.436H438.492V434.436H141.508V414.436Z" fill="white"/>
</g>
<defs>
<clipPath id="clip0">
<path d="M0 0H580V580H0V0Z" fill="white"/>
</clipPath>
</defs>
</svg>
