<svg width="580" height="580" viewBox="0 0 580 580" fill="none" xmlns="http://www.w3.org/2000/svg">
<g clip-path="url(#clip0)">
<path d="M66.2751 1.76815C24.9401 1.76815 1.7041 23.1391 1.7041 66.8041V516.927C1.7041 557.771 22.5991 579.156 63.8961 579.156H515.92C557.227 579.156 578.149 558.841 578.149 516.927V66.8041C578.149 24.2031 557.227 1.76815 514.628 1.76815C514.624 1.76815 66.1331 1.62515 66.2751 1.76815Z" fill="#111111" stroke="#EEEEEE" stroke-width="3.408"/>
<path d="M290.601 40.7349C286.516 40.7349 282.432 42.6569 278.588 45.54L259.368 64.7604C255.523 70.5265 251.559 76.2927 251.559 83.9809L232.339 417.936H347.661L328.441 83.9809C328.441 76.2927 324.477 70.5265 320.633 64.7604L301.412 45.54C298.529 42.6569 294.685 40.7349 290.601 40.7349H290.601ZM219.125 443.163C205.67 443.163 193.898 454.935 193.898 468.39V481.604H386.102V468.39C386.102 454.935 374.33 443.163 360.875 443.163H219.125V443.163ZM180.684 500.824C167.23 500.824 155.457 512.597 155.457 526.051V539.265H424.543V526.051C424.543 512.597 412.771 500.824 399.316 500.824H180.684V500.824Z" fill="white"/>
</g>
<defs>
<clipPath id="clip0">
<path d="M0 0H580V580H0V0Z" fill="white"/>
</clipPath>
</defs>
</svg>
