<svg width="48" height="48" viewBox="0 0 48 48" fill="none" xmlns="http://www.w3.org/2000/svg">
<g clip-path="url(#clip0_634_1157)">
<path fill-rule="evenodd" clip-rule="evenodd" d="M38 0C38.6687 0 39.2932 0.334202 39.6641 0.8906L47.6641 12.8906C48.0732 13.5043 48.1114 14.2934 47.7634 14.9437C47.4153 15.594 46.7376 16 46 16H30C29.2624 16 28.5847 15.594 28.2367 14.9437C27.8886 14.2934 27.9268 13.5043 28.3359 12.8906L36.3359 0.8906C36.7068 0.334202 37.3313 0 38 0ZM33.737 12H42.263L38 5.60555L33.737 12Z" fill="white"/>
<path fill-rule="evenodd" clip-rule="evenodd" d="M30.6667 32L27.1111 34L25.3333 40H14.6667L12.8889 34L9.33333 32H4V26L9.33333 24L11.1111 16H25.3333L28.8889 24L36 26V30L34.2222 32H30.6667ZM12.4429 26.4994L21.7778 30L25.9225 26.2698L23.1359 20H13.8872L12.4429 26.4994Z" fill="white"/>
<path fill-rule="evenodd" clip-rule="evenodd" d="M12 42C12 45.3137 9.3137 48 6 48C2.68629 48 0 45.3137 0 42C0 38.6863 2.68629 36 6 36C9.3137 36 12 38.6863 12 42ZM8 42C8 43.1046 7.1046 44 6 44C4.89543 44 4 43.1046 4 42C4 40.8954 4.89543 40 6 40C7.1046 40 8 40.8954 8 42Z" fill="#E5E5E5"/>
<path fill-rule="evenodd" clip-rule="evenodd" d="M40 42C40 45.3137 37.3137 48 34 48C30.6863 48 28 45.3137 28 42C28 38.6863 30.6863 36 34 36C37.3137 36 40 38.6863 40 42ZM36 42C36 43.1046 35.1046 44 34 44C32.8954 44 32 43.1046 32 42C32 40.8954 32.8954 40 34 40C35.1046 40 36 40.8954 36 42Z" fill="#E5E5E5"/>
</g>
<defs>
<clipPath id="clip0_634_1157">
<rect width="48" height="48" fill="white"/>
</clipPath>
</defs>
</svg>
