<svg width="580" height="580" viewBox="0 0 580 580" fill="none" xmlns="http://www.w3.org/2000/svg">
<path fill-rule="evenodd" clip-rule="evenodd" d="M454.318 18.5C400.239 18.5 356.105 62.6336 356.105 116.713C356.105 170.792 400.239 214.928 454.318 214.928C508.398 214.928 552.533 170.792 552.533 116.713C552.533 62.6336 508.398 18.5 454.318 18.5ZM392.521 46.2246H465.686V56.2012H461.621C451.829 56.2012 447.948 56.9403 446.285 58.9727C444.992 60.4507 444.992 61.1902 444.992 72.8301V156.711C444.992 162.808 445.547 164.84 447.949 167.057C450.166 169.274 452.568 169.645 461.621 169.645H465.5C478.618 169.645 489.149 164.84 496.725 155.787C501.713 149.69 505.039 142.668 508.734 129.92H518.527L516.311 179.621H392.521V169.645H395.293C404.9 169.645 408.781 168.905 410.443 166.873C411.737 165.395 411.736 164.655 411.736 152.83V72.8301C411.736 61.1902 411.737 60.4507 410.443 58.9727C408.781 56.9403 404.9 56.2012 395.293 56.2012H392.521V46.2246Z" fill="white"/>
<path fill-rule="evenodd" clip-rule="evenodd" d="M334.379 249.832C334.15 250.004 333.924 250.179 333.691 250.348V275.873C380.4 294.486 448.627 310.721 448.559 332.08C448.518 344.8 402.936 356.308 333.691 382.832V456.572C439.85 407.444 515.194 371.023 510.732 332.021C506.186 292.278 448.215 277.92 377.965 260.893C359.295 256.367 345.071 252.866 334.379 249.832ZM264.902 411.514C263.331 412.228 261.773 412.928 260.189 413.658V474.455V474.494C260.179 480.871 258.509 487.214 255.809 492.85C260.794 490.487 265.744 488.153 270.656 485.848C266.947 481.521 264.906 476.01 264.902 470.311V411.514ZM65.1236 490.675C51.3261 497.162 32.2106 505.004 20.7754 510.521C35.5469 546.978 51.2729 549.56 108.021 557.898C142.269 549.155 177.891 539.339 209.007 519.194C186.176 518.721 164.07 497.466 167.024 470.003C162.713 477.144 145.478 536.35 125.953 543.844C115.884 547.708 104.216 549.187 97.1211 548.643C90.0262 548.098 93.6759 548.871 86.5414 547.047C79.407 545.223 67.6011 537.579 63.1998 528.484C58.4808 518.732 58.8166 508.158 62.0982 499.083L62.1021 499.07L65.1236 490.675Z" fill="white"/>
<path d="M205.746 120.474C187.733 120.474 172.933 135.705 172.933 153.943C172.933 172.181 187.733 186.756 205.746 186.756C223.759 186.756 237.902 172.181 237.902 153.943C237.902 135.705 223.759 120.474 205.746 120.474ZM164.107 207.092L133.92 320.838C130.854 340.282 130.621 354.11 149.014 364.701L162.139 372.34L193.639 396.056V480.057C193.659 491.964 203.202 499.054 214.967 495.901C226.733 492.749 236.276 486.373 236.296 474.455V375.439C236.218 369.736 233.849 364.924 229.733 362.103L196.92 337.426L187.733 328.076L202.827 261.03L231.046 283.001C237.17 287.794 246.629 287.099 254.671 281.264L288.797 254.401V470.31L309.797 464.683V238.274L316.359 233.234C326.339 227.484 332.543 215.756 330.888 205.771C329.233 195.786 320.226 190.609 309.797 193.648V185.117L288.797 190.744V207.807L250.077 237.869L214.639 209.958C211.61 207.686 207.713 206.667 203.483 207.041C202.853 206.799 202.09 206.295 201.514 206.256L164.107 207.092L164.107 207.092ZM135.888 215.966C123.603 219.549 108.995 225.971 95.2002 241.306C76.8077 261.753 64.7964 290.966 61.7311 311.962C58.6656 331.406 72.6543 333.911 87.9815 334.46C103.308 335.009 117.073 325.059 120.138 313.375C124.736 298.176 147.701 212.801 147.701 212.801C144.252 213.725 139.984 214.782 135.888 215.966ZM128.013 365.078L121.451 408.837V409.493C121.217 409.986 120.998 410.482 120.794 410.982C120.039 412.216 119.38 413.491 118.825 414.791L87.9809 500.494C83.6261 512.535 88.9142 523.464 99.7905 524.9C110.667 526.336 120.679 522.398 125.025 510.356L158.201 419.99C159.542 416.756 160.216 413.435 160.17 410.275C160.184 409.834 160.184 409.396 160.17 408.962L164.107 396.095C144.182 384.363 128.013 375.941 128.013 365.078L128.013 365.078Z" fill="white"/>
</svg>
