<svg width="580" height="580" viewBox="0 0 580 580" fill="none" xmlns="http://www.w3.org/2000/svg">
<path fill-rule="evenodd" clip-rule="evenodd" d="M523.936 39.1856L359.516 39.6251C352.688 39.6442 346.686 44.1503 344.762 50.7012L315.852 149.174C314.943 152.273 315.03 155.578 316.1 158.625L344.33 239.025C346.504 245.215 352.356 249.353 358.916 249.338L508.28 248.99V534.389C508.279 537.618 510.896 540.236 514.125 540.236H534.041C537.269 540.236 539.885 537.62 539.887 534.393L540.03 236.383C540.208 235.433 540.306 234.454 540.301 233.451L540.053 184.561L540.098 92.4297C540.099 91.5706 539.909 90.7565 539.577 90.0215L539.397 54.5274C539.353 46.0262 532.437 39.1641 523.936 39.1856ZM358.735 67.3204H443.84C462.545 67.3204 476.167 69.7591 483.893 74.6387C494.465 81.5515 500.36 91.9221 500.36 104.121C500.36 117.337 493.246 128.519 480.844 134.822C475.761 137.262 470.475 138.686 459.7 140.719C477.388 146.615 485.113 155.762 488.162 174.061L489.586 181.787C489.993 184.634 490.397 186.669 490.397 187.482C491.413 193.989 491.618 195.411 492.838 197.037C494.058 198.867 496.498 200.086 498.735 200.086C504.834 200.086 507.883 193.58 508.086 180.772H519.067V183.211C519.067 204.763 506.462 217.164 484.504 217.164C466.816 217.164 455.429 208.829 451.973 192.971C451.363 189.718 450.345 181.179 449.125 167.557C448.312 155.968 447.5 153.527 444.246 149.664C440.587 145.598 434.893 143.565 426.151 143.565H414.766V184.635C414.766 197.647 414.765 198.256 416.188 200.086C418.018 202.119 422.49 202.932 433.063 202.932H438.35V213.912H357.024V202.932H360.073C370.645 202.932 374.915 202.119 376.744 200.086C378.168 198.256 378.168 197.647 378.168 184.635V96.5977C378.168 83.5854 378.168 82.9764 376.744 81.1465C374.915 79.1134 370.645 78.2989 360.073 78.2989H357.024V68.8243C357.589 68.3168 358.159 67.8155 358.735 67.3204ZM429.2 78.2989C416.187 78.2989 414.766 79.7235 414.766 91.3125V132.381H425.948C452.989 132.381 461.528 125.875 461.528 105.137C461.528 86.635 452.989 78.2989 434.08 78.2989H429.2Z" fill="white"/>
<path d="M179.513 130.383C160.511 130.025 144.898 145.798 144.898 165.038C144.898 184.278 160.511 199.947 179.513 200.305C198.515 200.664 213.436 185.57 213.436 166.33C213.436 147.09 198.515 130.742 179.513 130.383ZM138.753 214.034L106.907 327.881C103.673 347.768 103.427 362.308 122.83 377.225L136.676 387.956L169.906 419.388V508.002C169.927 520.567 179.994 529.988 192.406 529.058C204.817 528.128 214.885 523.345 214.906 510.777V406.323C214.823 400.291 212.325 394.733 207.983 390.919L173.368 358.206L163.676 346.471L179.598 278.817L209.367 307.739C215.827 314.043 225.806 315.235 234.29 310.717L270.289 289.327V517.093L292.443 515.432V276.59L299.366 272.609C309.894 268.575 316.439 257.466 314.692 246.596C312.946 235.725 303.445 228.431 292.443 229.513V220.513L270.289 222.174V240.174L229.444 264.004L192.06 227.346C188.864 224.331 184.754 222.464 180.291 221.997C179.626 221.614 178.821 220.926 178.213 220.768L138.752 214.034L138.753 214.034ZM108.984 217.65C96.0237 218.929 80.6135 222.729 66.0615 236.098C46.659 253.923 33.9881 282.296 30.7545 303.82C27.5206 323.708 42.2776 329.199 58.4464 332.898C74.6151 336.597 89.1352 328.903 92.3688 317.202C97.2196 302.104 121.445 216.716 121.445 216.716C117.807 216.989 113.304 217.234 108.984 217.65ZM100.677 373.347L93.7535 418.173V418.866C93.5066 419.338 93.2757 419.817 93.061 420.303C92.2647 421.45 91.5694 422.661 90.9837 423.92L58.4458 508.05C53.8518 519.866 59.4303 532.471 70.9039 536.201C82.3775 539.93 92.9397 537.814 97.5246 525.995L132.522 437.421C133.937 434.283 134.647 430.916 134.599 427.573C134.613 427.111 134.613 426.649 134.599 426.189L138.753 413.416C117.733 396.983 100.676 384.807 100.676 373.347L100.677 373.347Z" fill="white"/>
</svg>
