<svg width="580" height="580" viewBox="0 0 580 580" fill="none" xmlns="http://www.w3.org/2000/svg">
<path d="M200.631 500.824C189.632 500.824 180.008 512.596 180.008 526.051V539.266H399.992V526.051C399.992 512.596 390.368 500.824 379.369 500.824H200.631Z" fill="white"/>
<path opacity="0.834" d="M235.459 206.178L232.338 477.01H347.662L344.541 206.178H235.459Z" fill="white"/>
<path opacity="0.834" d="M290.602 38.8164C290.602 38.8164 283.391 39.1374 278.588 41.541L247.752 54.7598C245.248 57.4827 242.715 60.2095 240.73 63.1348H339.27C337.285 60.2095 334.752 57.4827 332.248 54.7598L301.412 41.541C296.017 39.0868 290.602 38.8164 290.602 38.8164Z" fill="white"/>
<path d="M167.248 81.3223C167.295 84.6857 167.4 90.2403 169.008 92.0234C192.651 118.242 213.085 130.972 199.674 177.99L222.691 187.99H362.111L380.326 177.99C368.821 134.268 391.924 114.464 410.572 91.8242C412.773 89.1523 412.393 84.5917 412.752 81.3223H167.248ZM290.494 91.7578C292.39 91.781 297.032 116.614 298.662 117.582C300.292 118.55 324.32 110.739 325.248 112.393C326.176 114.046 306.99 130.483 306.967 132.379C306.944 134.275 325.72 151.176 324.752 152.807C323.784 154.437 299.956 146.041 298.303 146.969C296.649 147.897 291.402 172.609 289.506 172.586C287.61 172.563 282.968 147.73 281.338 146.762C279.708 145.794 255.68 153.605 254.752 151.951C253.824 150.298 273.01 133.861 273.033 131.965C273.056 130.069 254.28 113.167 255.248 111.537C256.216 109.907 280.044 118.303 281.697 117.375C283.351 116.447 288.598 91.7346 290.494 91.7578Z" fill="white"/>
</svg>
