<?xml version="1.0" encoding="UTF-8" standalone="no"?>
<!-- Created with Inkscape (http://www.inkscape.org/) -->

<svg
   xmlns:dc="http://purl.org/dc/elements/1.1/"
   xmlns:cc="http://creativecommons.org/ns#"
   xmlns:rdf="http://www.w3.org/1999/02/22-rdf-syntax-ns#"
   xmlns:svg="http://www.w3.org/2000/svg"
   xmlns="http://www.w3.org/2000/svg"
   xmlns:sodipodi="http://sodipodi.sourceforge.net/DTD/sodipodi-0.dtd"
   xmlns:inkscape="http://www.inkscape.org/namespaces/inkscape"
   version="1.0"
   width="580"
   height="580"
   id="svg2"
   sodipodi:version="0.32"
   inkscape:version="0.91 r"
   sodipodi:docname="tomb.svg"
   inkscape:output_extension="org.inkscape.output.svg.inkscape">
  <metadata
     id="metadata2975">
    <rdf:RDF>
      <cc:Work
         rdf:about="">
        <dc:format>image/svg+xml</dc:format>
        <dc:type
           rdf:resource="http://purl.org/dc/dcmitype/StillImage" />
        <cc:license
           rdf:resource="http://web.resource.org/cc/PublicDomain" />
        <dc:language>en</dc:language>
        <dc:title />
      </cc:Work>
    </rdf:RDF>
  </metadata>
  <sodipodi:namedview
     inkscape:window-height="1021"
     inkscape:window-width="1680"
     inkscape:pageshadow="2"
     inkscape:pageopacity="0.0"
     guidetolerance="10.0"
     gridtolerance="10.0"
     objecttolerance="10.0"
     borderopacity="1.0"
     bordercolor="#666666"
     pagecolor="#ffffff"
     id="base"
     inkscape:zoom="0.65172414"
     inkscape:cx="64.664706"
     inkscape:cy="284.62758"
     inkscape:window-x="0"
     inkscape:window-y="0"
     inkscape:current-layer="svg2"
     showgrid="false"
     inkscape:window-maximized="1" />
  <defs
     id="defs4">
    <inkscape:perspective
       sodipodi:type="inkscape:persp3d"
       inkscape:vp_x="0 : 290 : 1"
       inkscape:vp_y="0 : 1000 : 0"
       inkscape:vp_z="580 : 290 : 1"
       inkscape:persp3d-origin="290 : 193.33333 : 1"
       id="perspective2441" />
    <inkscape:perspective
       id="perspective3452"
       inkscape:persp3d-origin="30 : 20 : 1"
       inkscape:vp_z="60 : 30 : 1"
       inkscape:vp_y="0 : 1000 : 0"
       inkscape:vp_x="0 : 30 : 1"
       sodipodi:type="inkscape:persp3d" />
    <symbol
       viewBox="244.5 110 489 219.9"
       id="symbol-university">
      <path
         id="path4460"
         d="M79,43l57,119c0,0,21-96,104-96s124,106,124,106l43-133l82-17L0,17L79,43z" />
      <path
         id="path4462"
         d="M94,176l-21,39"
         stroke-width="20"
         stroke="#000000"
         fill="none" />
      <path
         id="path4464"
         d="M300,19c0,10.5-22.6,19-50.5,19S199,29.5,199,19s22.6-19,50.5-19S300,8.5,300,19z" />
      <path
         id="path4466"
         d="M112,216l-16-38L64,88c0,0-9-8-4-35s16-24,16-24"
         stroke-width="20"
         stroke="#000000"
         ill="none" />
    </symbol>
    <inkscape:perspective
       id="perspective4471"
       inkscape:persp3d-origin="372.04724 : 350.78739 : 1"
       inkscape:vp_z="744.09448 : 526.18109 : 1"
       inkscape:vp_y="0 : 1000 : 0"
       inkscape:vp_x="0 : 526.18109 : 1"
       sodipodi:type="inkscape:persp3d" />
    <inkscape:perspective
       id="perspective4668"
       inkscape:persp3d-origin="6 : 4 : 1"
       inkscape:vp_z="12 : 6 : 1"
       inkscape:vp_y="0 : 1000 : 0"
       inkscape:vp_x="0 : 6 : 1"
       sodipodi:type="inkscape:persp3d" />
    <inkscape:perspective
       id="perspective5915"
       inkscape:persp3d-origin="0.5 : 0.33333333 : 1"
       inkscape:vp_z="1 : 0.5 : 1"
       inkscape:vp_y="0 : 1000 : 0"
       inkscape:vp_x="0 : 0.5 : 1"
       sodipodi:type="inkscape:persp3d" />
  </defs>
  <g
     id="g1327">
    <path
       d="M 66.275,1.768 C 24.94,1.768 1.704,23.139 1.704,66.804 L 1.704,516.927 C 1.704,557.771 22.599,579.156 63.896,579.156 L 515.92,579.156 C 557.227,579.156 578.149,558.841 578.149,516.927 L 578.149,66.804 C 578.149,24.203 557.227,1.768 514.628,1.768 C 514.624,1.768 66.133,1.625 66.275,1.768 z"
       style="fill:#111111;stroke:#eeeeee;stroke-width:3.40799999"
       id="path1329" />
  </g>
  <path
     inkscape:connector-curvature="0"
     style="opacity:0.86000001;fill:#ffffff"
     d="m 438.81445,438.95312 -297.6289,0 c -31.02753,19.46783 -53.094682,44.94831 -61.707034,73.57618 l 421.041014,0 c -8.61235,-28.62787 -30.67841,-54.10835 -61.70508,-73.57618 z"
     id="path4182" />
  <path
     inkscape:connector-curvature="0"
     style="fill:#ffffff"
     d="m 215.80273,67.4707 -74.19921,147.0586 0,224.14258 c -0.14468,0.0903 -0.27368,0.19072 -0.41797,0.28124 l 297.6289,0 c -0.14428,-0.0905 -0.27329,-0.19098 -0.41797,-0.28124 l 0,-224.14258 -74.19726,-147.0586 -148.39649,0 z m -24.53125,105.71875 16.70704,0 0,22.97461 4.99804,0 0,-22.97461 16.70703,0 0,64.24414 -16.70703,0 0,-26.98437 -4.99804,0 0,26.98437 -16.70704,0 0,-64.24414 z m 61.86329,10.63477 c 4.49728,0 8.20131,0.85858 11.11132,2.57812 2.93646,1.6931 4.98639,3.95452 6.15039,6.78516 1.19046,2.80419 1.78711,6.75949 1.78711,11.86523 l 0,6.98438 -20.7539,0 0,11.38867 c 0,2.38092 0.17171,3.9157 0.51562,4.60352 0.34391,0.68782 1.00556,1.03125 1.98438,1.03125 1.21691,0 2.0231,-0.45015 2.41992,-1.34961 0.42327,-0.92591 0.63477,-2.6974 0.63477,-5.31641 l 0,-6.94531 15.19921,0 0,3.88867 c 0,3.25391 -0.21149,5.75399 -0.63476,7.5 -0.39682,1.74601 -1.34951,3.61161 -2.85742,5.5957 -1.50792,1.9841 -3.4259,3.47911 -5.75391,4.48438 -2.30155,0.97882 -5.1994,1.46875 -8.69141,1.46875 -3.38619,0 -6.37424,-0.48993 -8.96679,-1.46875 -2.59256,-0.97882 -4.61727,-2.31472 -6.07227,-4.00781 -1.42855,-1.71956 -2.42101,-3.59776 -2.97656,-5.63477 -0.55555,-2.06346 -0.83203,-5.05347 -0.83203,-8.96875 l 0,-15.35742 c 0,-4.60311 0.62187,-8.22564 1.86523,-10.8711 1.24337,-2.6719 3.27873,-4.70922 6.10938,-6.11132 2.83064,-1.42855 6.08452,-2.14258 9.76172,-2.14258 z m 50.4375,0 c 2.75128,0 4.99813,0.64708 6.74414,1.94336 1.746,1.29628 2.8704,2.93583 3.37304,4.91992 0.50264,1.95765 0.75391,5.2387 0.75391,9.8418 l 0,36.90429 -16.03125,0 0,-36.46679 c 0,-3.62428 -0.11933,-5.83332 -0.35742,-6.62696 -0.2381,-0.79364 -0.89778,-1.1914 -1.98242,-1.1914 -1.13755,0 -1.85354,0.46276 -2.14454,1.38867 -0.291,0.89946 -0.43554,3.33455 -0.43554,7.30273 l 0,35.59375 -16.03125,0 0,-52.6582 16.30859,0 -0.27734,4.8418 c 1.164,-1.93119 2.57945,-3.37381 4.24609,-4.32617 1.6931,-0.97882 3.63825,-1.4668 5.83399,-1.4668 z m 41.94335,0 0,18.53125 c -2.93645,0 -5.0931,0.39581 -6.46874,1.18945 -1.37566,0.79364 -2.22161,1.90544 -2.53907,3.33399 -0.31746,1.40209 -0.47656,4.65597 -0.47656,9.76171 l 0,20.79297 -16.03125,0 0,-52.6582 16.03125,0 -0.63477,6.9043 c 2.32801,-4.94702 5.70123,-7.56447 10.11914,-7.85547 z m 1.70508,0.95117 14.56446,0 5.23828,35.51563 2.53906,-35.51563 14.5625,0 -4.60156,38.0957 c -0.71428,6.03166 -1.32354,10.14411 -1.82617,12.33985 -0.47619,2.19573 -1.28238,4.00895 -2.41993,5.4375 -1.13754,1.42855 -2.7247,2.4734 -4.76172,3.13476 -2.01055,0.68783 -5.23922,1.03125 -9.68359,1.03125 l -9.72265,0 0,-8.41211 c 2.48673,0 4.08846,-0.11932 4.80273,-0.35742 0.71427,-0.26454 1.07031,-0.83403 1.07031,-1.70703 0,-0.42328 -0.33082,-2.26171 -0.99219,-5.51562 l -8.76953,-44.04688 z m -93.33203,8.37305 c -1.11109,0 -1.79795,0.34343 -2.0625,1.03125 -0.26454,0.66136 -0.39648,2.47458 -0.39648,5.4375 l 0,3.84961 4.68164,0 0,-3.84961 c 0,-2.72483 -0.14455,-4.48371 -0.43555,-5.27735 -0.291,-0.79364 -0.88765,-1.1914 -1.78711,-1.1914 z m -13.01562,81.625 17.61914,0 c 2.037,17.69814 3.49223,32.65882 4.36523,44.88086 0.873,-12.35431 1.78592,-23.33252 2.73828,-32.93555 l 1.15039,-11.94531 17.61914,0 -8.49218,64.24609 -25.35547,0 -9.64453,-64.24609 z m 46.34961,0 16.70507,0 0,64.24609 -16.70507,0 0,-64.24609 z m 23.49218,0 16.70508,0 0,64.24609 -16.70508,0 0,-64.24609 z"
     id="path11" />
</svg>
