<svg width="12" height="12" viewBox="0 0 12 12" fill="none" xmlns="http://www.w3.org/2000/svg">
<path fill-rule="evenodd" clip-rule="evenodd" d="M3.21982 1.84427C2.76079 2.15137 2.63763 2.77244 2.94473 3.23147L2.97402 3.27526C3.32291 3.79675 3.7536 4.25859 4.24949 4.64299L5.99994 5.99988L5.99992 5.99997L3.8987 5.29956C3.30346 5.10115 2.68012 4.99999 2.05269 4.99999H2C1.44772 4.99999 1 5.44771 1 5.99999C1 6.55228 1.44772 6.99999 2 6.99999H2.05269C2.68012 6.99999 3.30346 6.89884 3.8987 6.70043L5.99991 6.00002L4.24931 7.35702C3.75341 7.74143 3.32273 8.20326 2.97384 8.72476L2.94455 8.76855C2.63744 9.22757 2.76061 9.84865 3.21964 10.1557C3.67866 10.4628 4.29974 10.3397 4.60684 9.88066L4.63613 9.83687C4.98502 9.31537 5.24756 8.74104 5.41364 8.13598L5.99991 6.00002L6 5.99999L6.00009 6.00002L6.58636 8.13598C6.75244 8.74104 7.01498 9.31537 7.36387 9.83687L7.39316 9.88066C7.70026 10.3397 8.32134 10.4628 8.78036 10.1557C9.23939 9.84865 9.36256 9.22757 9.05545 8.76855L9.02616 8.72476C8.67727 8.20326 8.24659 7.74143 7.75069 7.35702L6.00009 6.00002L8.1013 6.70043C8.69654 6.89884 9.31988 6.99999 9.94732 6.99999H10C10.5523 6.99999 11 6.55228 11 5.99999C11 5.44771 10.5523 4.99999 10 4.99999H9.94732C9.31988 4.99999 8.69654 5.10115 8.1013 5.29956L6.00008 5.99997L6.00006 5.99988L7.75051 4.64299C8.2464 4.25859 8.67709 3.79675 9.02598 3.27526L9.05527 3.23147C9.36237 2.77244 9.23921 2.15137 8.78018 1.84427C8.32115 1.53717 7.70008 1.66033 7.39298 2.11936L7.36369 2.16315C7.0148 2.68464 6.75226 3.25897 6.58618 3.86403L6 5.99966L5.41382 3.86403C5.24774 3.25897 4.9852 2.68464 4.63631 2.16315L4.60702 2.11936C4.29992 1.66033 3.67885 1.53717 3.21982 1.84427ZM6 5.99999L5.99994 5.99997L6 5.99992L6.00006 5.99997L6 5.99999Z" fill="white"/>
</svg>
