<svg width="16" height="16" viewBox="0 0 16 16" fill="none" xmlns="http://www.w3.org/2000/svg">
<path fill-rule="evenodd" clip-rule="evenodd" d="M5.31794 3.905C4.05947 4.01849 2.98668 4.62708 2.5947 5.60702C2.42966 6.02994 2.50186 7.32966 2.50186 7.89703C2.51218 8.31995 2.50186 11.1876 2.52249 11.4455C2.56375 11.8169 2.74943 11.9819 3.07952 11.9922C4.18325 12.0543 4.04916 11.8169 4.04916 10.6925V7.13373C4.04916 6.77264 3.99758 6.29815 4.15231 6.04029C4.41019 5.60702 5.10132 5.39039 5.73055 5.51423C6.00906 5.56599 6.27726 5.72052 6.42167 5.90619C6.64861 6.19501 6.64861 6.39094 6.65893 6.84491C6.65893 7.27809 6.56609 7.4329 6.27726 7.58761C6.04001 7.72162 5.68929 7.78354 5.4933 7.91764C5.30762 8.02079 5.11163 8.37152 5.15289 8.72226C5.20447 9.12457 5.42109 9.18649 5.78213 9.21736C6.90649 9.31053 6.68987 9.18631 6.68987 10.5687C6.67956 11.7652 6.58672 12.0025 7.52541 12.0128C8.50537 12.0232 8.26811 11.3114 8.2578 9.89823C8.2578 9.17614 8.17528 9.33086 9.2687 9.2071C9.6091 9.1657 9.79478 9.03169 9.80509 8.62938C9.81541 7.78354 9.03145 7.8145 8.63946 7.56691C8.31969 7.38123 8.29906 7.22652 8.29906 6.75203C8.29906 6.26719 8.31969 6.16405 8.55694 5.88558C8.72199 5.68956 8.99019 5.5451 9.29964 5.50388C9.92888 5.40074 10.6406 5.65859 10.8366 6.12283C11.0223 6.56635 10.7747 10.1045 10.9191 10.775C11.177 12.0128 12.8687 12.5905 13.6114 11.7138C13.9518 11.3011 13.7971 10.3314 12.9306 10.6409C12.549 10.775 12.4355 10.4346 12.4355 10.0529C12.4355 9.65063 12.4458 9.24832 12.4458 8.84601C12.4458 8.05175 12.4458 7.25748 12.4561 6.46321C12.4561 6.05055 12.4561 5.78244 12.2911 5.45231C12.1467 5.15314 11.9816 4.96747 11.8063 4.79215C10.9707 3.99788 8.88703 3.34797 7.81424 4.45167C7.55636 4.71987 7.2469 4.47237 7.05091 4.31766C6.59703 3.96692 6.00906 3.84317 5.31793 3.905H5.31794Z" fill="#FEFEFE"/>
</svg>
