<?xml version="1.0" encoding="UTF-8" standalone="no"?>
<!-- Created with Inkscape (http://www.inkscape.org/) -->

<svg
   xmlns:dc="http://purl.org/dc/elements/1.1/"
   xmlns:cc="http://creativecommons.org/ns#"
   xmlns:rdf="http://www.w3.org/1999/02/22-rdf-syntax-ns#"
   xmlns:svg="http://www.w3.org/2000/svg"
   xmlns="http://www.w3.org/2000/svg"
   xmlns:sodipodi="http://sodipodi.sourceforge.net/DTD/sodipodi-0.dtd"
   xmlns:inkscape="http://www.inkscape.org/namespaces/inkscape"
   version="1.0"
   width="580"
   height="580"
   id="svg2"
   sodipodi:version="0.32"
   inkscape:version="0.91 r13725"
   sodipodi:docname="bahai3.svg"
   inkscape:output_extension="org.inkscape.output.svg.inkscape">
  <metadata
     id="metadata2975">
    <rdf:RDF>
      <cc:Work
         rdf:about="">
        <dc:format>image/svg+xml</dc:format>
        <dc:type
           rdf:resource="http://purl.org/dc/dcmitype/StillImage" />
        <cc:license
           rdf:resource="http://web.resource.org/cc/PublicDomain" />
        <dc:language>en</dc:language>
      </cc:Work>
    </rdf:RDF>
  </metadata>
  <sodipodi:namedview
     inkscape:window-height="1051"
     inkscape:window-width="1920"
     inkscape:pageshadow="2"
     inkscape:pageopacity="0.0"
     guidetolerance="10.0"
     gridtolerance="10.0"
     objecttolerance="10.0"
     borderopacity="1.0"
     bordercolor="#666666"
     pagecolor="#ffffff"
     id="base"
     inkscape:zoom="0.92167712"
     inkscape:cx="200.4779"
     inkscape:cy="267.72097"
     inkscape:window-x="0"
     inkscape:window-y="0"
     inkscape:current-layer="svg2"
     showgrid="false"
     inkscape:window-maximized="1" />
  <defs
     id="defs4">
    <inkscape:perspective
       sodipodi:type="inkscape:persp3d"
       inkscape:vp_x="0 : 290 : 1"
       inkscape:vp_y="0 : 1000 : 0"
       inkscape:vp_z="580 : 290 : 1"
       inkscape:persp3d-origin="290 : 193.33333 : 1"
       id="perspective2441" />
    <inkscape:perspective
       id="perspective2466"
       inkscape:persp3d-origin="372.04724 : 350.78739 : 1"
       inkscape:vp_z="744.09448 : 526.18109 : 1"
       inkscape:vp_y="0 : 1000 : 0"
       inkscape:vp_x="0 : 526.18109 : 1"
       sodipodi:type="inkscape:persp3d" />
    <inkscape:perspective
       id="perspective3333"
       inkscape:persp3d-origin="372.04724 : 350.78739 : 1"
       inkscape:vp_z="744.09448 : 526.18109 : 1"
       inkscape:vp_y="0 : 1000 : 0"
       inkscape:vp_x="0 : 526.18109 : 1"
       sodipodi:type="inkscape:persp3d" />
    <inkscape:perspective
       id="perspective3401"
       inkscape:persp3d-origin="372.04724 : 350.78739 : 1"
       inkscape:vp_z="744.09448 : 526.18109 : 1"
       inkscape:vp_y="0 : 1000 : 0"
       inkscape:vp_x="0 : 526.18109 : 1"
       sodipodi:type="inkscape:persp3d" />
    <inkscape:perspective
       id="perspective3464"
       inkscape:persp3d-origin="372.04724 : 350.78739 : 1"
       inkscape:vp_z="744.09448 : 526.18109 : 1"
       inkscape:vp_y="0 : 1000 : 0"
       inkscape:vp_x="0 : 526.18109 : 1"
       sodipodi:type="inkscape:persp3d" />
    <inkscape:perspective
       id="perspective3581"
       inkscape:persp3d-origin="225 : 150 : 1"
       inkscape:vp_z="450 : 225 : 1"
       inkscape:vp_y="0 : 1000 : 0"
       inkscape:vp_x="0 : 225 : 1"
       sodipodi:type="inkscape:persp3d" />
    <inkscape:perspective
       id="perspective4312"
       inkscape:persp3d-origin="225 : 150 : 1"
       inkscape:vp_z="450 : 225 : 1"
       inkscape:vp_y="0 : 1000 : 0"
       inkscape:vp_x="0 : 225 : 1"
       sodipodi:type="inkscape:persp3d" />
  </defs>
  <g
     id="g1327">
    <path
       d="M 66.275,1.768 C 24.94,1.768 1.704,23.139 1.704,66.804 L 1.704,516.927 C 1.704,557.771 22.599,579.156 63.896,579.156 L 515.92,579.156 C 557.227,579.156 578.149,558.841 578.149,516.927 L 578.149,66.804 C 578.149,24.203 557.227,1.768 514.628,1.768 C 514.624,1.768 66.133,1.625 66.275,1.768 z "
       style="fill:#111;stroke:#eee;stroke-width:3.40799999"
       id="path1329" />
  </g>
  <path
     style="opacity:1;fill:#ffffff"
     d="m 193.51942,484.23458 c -0.31594,-35.48471 -1.2165,-65.15974 -2.00123,-65.94448 -1.49389,-1.49388 -65.5589,7.53167 -103.796871,14.62304 -21.960747,4.0727 -29.92185,2.93418 -29.92185,-4.27904 0,-2.02401 18.139252,-26.18113 40.309451,-53.68251 l 40.30941,-50.00256 -13.46797,-7.9463 c -7.40741,-4.37046 -14.26519,-7.94631 -15.23951,-7.94631 -0.97436,0 -10.878354,-5.85109 -22.008869,-13.00244 C 76.571444,288.9026 59.097465,278.33029 48.87095,272.55992 34.449767,264.42266 30.54575,260.20009 31.47368,253.74298 c 0.973242,-6.77237 4.802106,-8.86755 20.526699,-11.23222 40.515401,-6.09268 102.450631,-19.82678 102.450631,-22.71838 0,-1.66036 -8.85878,-28.42565 -19.68619,-59.47847 -19.30061,-55.35384 -21.07077,-67.756934 -9.6701,-67.756934 3.12452,0 28.17443,13.047954 55.6665,28.995474 27.49211,15.94749 51.65495,28.99544 53.69522,28.99544 2.04032,0 8.6526,-14.19937 14.69398,-31.55412 24.21563,-69.563143 31.92331,-86.309945 40.31688,-87.598427 4.43441,-0.680707 8.81605,1.059029 9.73698,3.866065 1.70153,5.186272 24.56731,68.907292 35.47363,98.855732 3.29095,9.03693 7.41209,16.43075 9.15805,16.43075 1.74594,0 24.65345,-12.73888 50.90555,-28.30869 54.73683,-32.463699 58.13792,-34.002539 65.3289,-29.558279 4.28023,2.64532 1.37822,14.650099 -15.10029,62.465809 -11.21934,32.55515 -20.72031,60.78176 -21.1133,62.72577 -0.67308,3.3295 66.32666,18.08904 106.56869,23.47628 15.62657,2.09191 18.3433,3.71961 18.22627,10.9201 -0.10906,6.7092 -10.91884,14.84515 -52.19183,39.28183 -28.62987,16.95102 -52.05432,32.29525 -52.05432,34.09832 0,1.80305 17.39729,24.6972 38.66063,50.87597 21.26333,26.17873 38.6606,49.54342 38.6606,51.92156 0,6.11796 -15.0092,5.42154 -73.45516,-3.40829 -28.14911,-4.25267 -53.58247,-7.73211 -56.51857,-7.73211 -4.33115,0 -5.33842,12.40067 -5.33842,65.72305 0,83.52355 -0.059,83.54462 -54.12487,19.3303 -21.48346,-25.51601 -40.63273,-46.39274 -42.55397,-46.39274 -1.92124,0 -20.46279,20.87673 -41.20348,46.39274 -27.11952,33.36349 -40.0594,46.39273 -46.07448,46.39273 -8.21767,0 -8.37417,-1.12939 -8.93849,-64.51766 z m 65.55549,-59.19631 c 13.64271,-17.01066 27.43347,-30.91461 30.64615,-30.89767 3.21266,0.017 17.14943,13.89679 30.9706,30.84406 l 25.12941,30.8132 0.96573,-33.7436 c 1.33302,-46.57596 2.72202,-51.14545 15.53867,-51.11927 5.80691,0.0118 16.64707,1.58523 24.08924,3.49642 20.61505,5.29408 46.39275,7.70824 46.39275,4.34484 0,-1.64976 -10.61475,-16.29735 -23.58833,-32.55012 -12.97356,-16.2528 -22.683,-31.90984 -21.5764,-34.79348 1.10654,-2.8836 16.15035,-13.59174 33.43068,-23.79587 17.28036,-10.20409 32.1758,-19.77769 33.10098,-21.2747 0.9252,-1.49698 -7.41827,-4.08906 -18.541,-5.76013 -11.12279,-1.67111 -21.09309,-3.28078 -22.15626,-3.57703 -1.06316,-0.29629 -10.19673,-1.86495 -20.29681,-3.48594 -22.64858,-3.63493 -23.13169,-7.41021 -6.7525,-52.76854 6.38619,-17.68511 10.85435,-32.91163 9.92923,-33.83673 -0.9251,-0.92513 -16.75206,7.1877 -35.17102,18.0285 -18.419,10.8408 -35.00407,19.71055 -36.85571,19.71055 -4.81627,0 -9.27732,-9.46903 -21.44918,-45.52801 -5.90259,-17.48627 -11.8211,-31.79321 -13.1523,-31.79321 -1.33117,0 -8.39203,16.70126 -15.69072,37.11395 -7.29875,20.41265 -15.30682,37.94301 -17.7958,38.95633 -4.22568,1.72039 -18.22221,-5.13293 -58.29812,-28.54545 -9.03691,-5.27942 -16.43077,-7.83253 -16.43077,-5.67356 0,2.15896 5.2192,18.71242 11.5982,36.7855 6.37901,18.07306 11.59818,35.53014 11.59818,38.79349 0,6.22613 -9.21828,8.74875 -59.0442,16.15754 -10.14784,1.50893 -19.27931,4.08442 -20.29222,5.72336 -1.01292,1.63889 3.88342,6.19386 10.88072,10.12208 39.29992,22.06269 52.98673,30.81096 54.6039,34.90151 0.9922,2.50956 -3.21632,11.2082 -9.35227,19.33028 -6.1359,8.12211 -17.44874,23.15363 -25.1396,33.40337 l -13.98343,18.63593 18.59885,-2.54607 c 10.22935,-1.40038 24.68791,-4.1227 32.13007,-6.04967 7.44217,-1.92699 18.31547,-3.51333 24.16288,-3.52514 l 10.63167,-0.0216 0.0528,33.82805 c 0.0448,28.70129 2.4689,51.22531 5.51303,51.22531 0.43888,0 11.9602,-13.91782 25.60292,-30.9285 z"
     id="path4757"
     sodipodi:nodetypes="cssscccssssssssssssssssssssssssssssssssccscccssssssssssssssssssssssssssscccscccsc"
     inkscape:connector-curvature="0" />
</svg>
