<svg width="48" height="48" viewBox="0 0 580 580" fill="none" xmlns="http://www.w3.org/2000/svg">
<path opacity="0.25" d="M375.98 373.001H207.059V541.921H375.98V373.001Z" fill="white" stroke="white" stroke-width="20.1359" stroke-linecap="round" stroke-linejoin="round" />
<path d="M375.98 373.001H207.059V541.921H375.98V373.001Z" stroke="white" stroke-width="20.1359" stroke-linecap="round" stroke-linejoin="round" />
<path d="M233.541 347.629C213.76 342.467 196.66 332.133 180.58 315.625C154.968 289.33 140.979 261.188 132.695 219.295C127.971 195.402 127.963 194.82 132.314 191.639C141.227 185.121 144.75 187.47 147.74 201.923C163.322 277.246 212.136 326.212 259.622 314.154C273.785 310.558 287.296 296.962 291.361 282.216C296.601 263.203 287.369 230.348 271.32 210.899L265.617 203.988L255.976 213.922C245.781 224.428 233.216 233.087 228.146 233.102C225.098 233.111 211.18 204.959 211.18 198.785C211.18 196.976 217.8 192.47 225.891 188.771C248.597 178.39 258.255 166.698 258.255 149.59C258.255 138.457 256.293 134.575 248.672 130.634C238.859 125.56 222.52 126.427 202.718 133.075C193.077 136.311 184.637 138.959 183.963 138.959C182.228 138.959 168.811 108.597 168.811 104.67C168.811 97.9335 183.362 93.3292 207.649 92.3809C229.924 91.5113 231.879 91.826 244.09 98.2462C259.435 106.315 270.844 120.286 275.848 137.136C279.93 150.88 280.517 168.771 277.175 177.56C273.617 186.921 278.143 186.993 290.226 177.77C303.429 167.692 312.36 163.742 326.865 161.567C337.324 159.999 337.84 159.542 340.698 149.336C347.519 124.975 365.585 110.595 389.801 110.251C407.878 109.995 418.042 113.712 428.472 124.394C442.243 138.496 447.174 155.519 448.375 193.096C449.866 239.739 443.602 264.95 425.359 285.728C409.633 303.638 384.897 310.258 365.596 301.721C349.309 294.516 345.012 283.336 343.143 243.295C341.942 217.573 340.941 211.455 337.271 207.4C331.592 201.125 328.104 201.27 312.749 208.418L300.16 214.278L305.212 221.929C338.032 271.632 331.235 325.754 289.877 344.049C276.852 349.811 248.745 351.596 233.541 347.629ZM403.65 263.706C420.619 253.36 431.855 224.279 429.39 197.089C427.778 179.317 417.432 158.367 406.784 151.317C392.368 141.771 372.566 144.913 359.586 158.806L353.82 164.978L358.345 172.564C362.109 178.877 362.994 185.684 363.616 213.103C364.489 251.603 364.848 253.875 371.357 262.15C377.561 270.038 392.115 270.739 403.65 263.706ZM286.513 104.434C280.695 102.398 271.521 97.6964 266.128 93.9856C255.359 86.5762 234.717 64.1311 234.717 59.8301C234.717 58.3385 237.429 55.3415 240.743 53.1701C246.641 49.3055 246.969 49.404 256.302 57.8357C268.67 69.0091 280.068 73.6652 295.135 73.6987C308.635 73.7287 324.893 65.9044 333.154 55.4015C335.701 52.1641 338.577 49.5154 339.546 49.5154C341.419 49.5154 366.462 70.12 369.52 74.1776C372.467 78.0892 348.051 98.4751 334.219 103.65C319.261 109.247 301.121 109.545 286.513 104.434ZM287.341 51.7924C281.053 45.1713 275.613 38.9462 275.253 37.9588C274.892 36.9713 280.02 31.0906 286.648 24.8904L298.7 13.6174L311.236 25.9974C318.13 32.8064 323.204 39.5595 322.51 41.0042C321.816 42.4489 316.192 48.1758 310.011 53.7307L298.774 63.8306L287.341 51.7924Z" fill="white" />
</svg>