<?xml version="1.0" encoding="UTF-8" standalone="no"?>
<!-- Created with Inkscape (http://www.inkscape.org/) -->

<svg
   xmlns:dc="http://purl.org/dc/elements/1.1/"
   xmlns:cc="http://creativecommons.org/ns#"
   xmlns:rdf="http://www.w3.org/1999/02/22-rdf-syntax-ns#"
   xmlns:svg="http://www.w3.org/2000/svg"
   xmlns="http://www.w3.org/2000/svg"
   xmlns:sodipodi="http://sodipodi.sourceforge.net/DTD/sodipodi-0.dtd"
   xmlns:inkscape="http://www.inkscape.org/namespaces/inkscape"
   version="1.0"
   width="580"
   height="580"
   id="svg2"
   sodipodi:version="0.32"
   inkscape:version="0.91 r"
   sodipodi:docname="monastery.svg"
   inkscape:output_extension="org.inkscape.output.svg.inkscape">
  <metadata
     id="metadata2975">
    <rdf:RDF>
      <cc:Work
         rdf:about="">
        <dc:format>image/svg+xml</dc:format>
        <dc:type
           rdf:resource="http://purl.org/dc/dcmitype/StillImage" />
        <cc:license
           rdf:resource="http://web.resource.org/cc/PublicDomain" />
        <dc:language>en</dc:language>
        <dc:title />
      </cc:Work>
    </rdf:RDF>
  </metadata>
  <sodipodi:namedview
     inkscape:window-height="739"
     inkscape:window-width="1332"
     inkscape:pageshadow="2"
     inkscape:pageopacity="0.0"
     guidetolerance="10.0"
     gridtolerance="10.0"
     objecttolerance="10.0"
     borderopacity="1.0"
     bordercolor="#666666"
     pagecolor="#ffffff"
     id="base"
     inkscape:zoom="0.32"
     inkscape:cx="-183.53838"
     inkscape:cy="363.79247"
     inkscape:window-x="34"
     inkscape:window-y="1024"
     inkscape:current-layer="svg2"
     showgrid="false"
     inkscape:window-maximized="1" />
  <defs
     id="defs4">
    <inkscape:perspective
       sodipodi:type="inkscape:persp3d"
       inkscape:vp_x="0 : 290 : 1"
       inkscape:vp_y="0 : 1000 : 0"
       inkscape:vp_z="580 : 290 : 1"
       inkscape:persp3d-origin="290 : 193.33333 : 1"
       id="perspective2441" />
    <inkscape:perspective
       id="perspective3452"
       inkscape:persp3d-origin="30 : 20 : 1"
       inkscape:vp_z="60 : 30 : 1"
       inkscape:vp_y="0 : 1000 : 0"
       inkscape:vp_x="0 : 30 : 1"
       sodipodi:type="inkscape:persp3d" />
    <symbol
       viewBox="244.5 110 489 219.9"
       id="symbol-university">
      <path
         id="path4460"
         d="M79,43l57,119c0,0,21-96,104-96s124,106,124,106l43-133l82-17L0,17L79,43z" />
      <path
         id="path4462"
         d="M94,176l-21,39"
         stroke-width="20"
         stroke="#000000"
         fill="none" />
      <path
         id="path4464"
         d="M300,19c0,10.5-22.6,19-50.5,19S199,29.5,199,19s22.6-19,50.5-19S300,8.5,300,19z" />
      <path
         id="path4466"
         d="M112,216l-16-38L64,88c0,0-9-8-4-35s16-24,16-24"
         stroke-width="20"
         stroke="#000000"
         ill="none" />
    </symbol>
    <inkscape:perspective
       id="perspective4471"
       inkscape:persp3d-origin="372.04724 : 350.78739 : 1"
       inkscape:vp_z="744.09448 : 526.18109 : 1"
       inkscape:vp_y="0 : 1000 : 0"
       inkscape:vp_x="0 : 526.18109 : 1"
       sodipodi:type="inkscape:persp3d" />
    <inkscape:perspective
       id="perspective4668"
       inkscape:persp3d-origin="6 : 4 : 1"
       inkscape:vp_z="12 : 6 : 1"
       inkscape:vp_y="0 : 1000 : 0"
       inkscape:vp_x="0 : 6 : 1"
       sodipodi:type="inkscape:persp3d" />
    <inkscape:perspective
       id="perspective2893"
       inkscape:persp3d-origin="0.5 : 0.33333333 : 1"
       inkscape:vp_z="1 : 0.5 : 1"
       inkscape:vp_y="0 : 1000 : 0"
       inkscape:vp_x="0 : 0.5 : 1"
       sodipodi:type="inkscape:persp3d" />
    <inkscape:perspective
       id="perspective3898"
       inkscape:persp3d-origin="0.5 : 0.33333333 : 1"
       inkscape:vp_z="1 : 0.5 : 1"
       inkscape:vp_y="0 : 1000 : 0"
       inkscape:vp_x="0 : 0.5 : 1"
       sodipodi:type="inkscape:persp3d" />
    <inkscape:perspective
       id="perspective4011"
       inkscape:persp3d-origin="0.5 : 0.33333333 : 1"
       inkscape:vp_z="1 : 0.5 : 1"
       inkscape:vp_y="0 : 1000 : 0"
       inkscape:vp_x="0 : 0.5 : 1"
       sodipodi:type="inkscape:persp3d" />
  </defs>
  <g
     id="g1327">
    <path
       d="M 66.275,1.768 C 24.94,1.768 1.704,23.139 1.704,66.804 L 1.704,516.927 C 1.704,557.771 22.599,579.156 63.896,579.156 L 515.92,579.156 C 557.227,579.156 578.149,558.841 578.149,516.927 L 578.149,66.804 C 578.149,24.203 557.227,1.768 514.628,1.768 C 514.624,1.768 66.133,1.625 66.275,1.768 z"
       style="fill:#111111;stroke:#eeeeee;stroke-width:3.40799999"
       id="path1329" />
  </g>
  <path
     style="color:#000000;clip-rule:nonzero;display:inline;overflow:visible;visibility:visible;opacity:0.526;isolation:auto;mix-blend-mode:normal;color-interpolation:sRGB;color-interpolation-filters:linearRGB;solid-color:#000000;solid-opacity:1;fill:#ffffff;fill-opacity:1;fill-rule:nonzero;stroke:none;stroke-width:1;stroke-linecap:butt;stroke-linejoin:miter;stroke-miterlimit:4;stroke-dasharray:none;stroke-dashoffset:0;stroke-opacity:1;color-rendering:auto;image-rendering:auto;shape-rendering:auto;text-rendering:auto;enable-background:accumulate"
     d="M 290 35.623047 C 287.55982 35.623047 285.12473 36.558251 283.17773 38.447266 L 193.61719 125.2832 L 386.38281 125.2832 L 296.82227 38.447266 C 294.87526 36.55881 292.44017 35.623047 290 35.623047 z M 84.511719 125.2832 C 81.884027 125.2832 79.256702 126.3757 77.248047 128.56641 L 39.160156 170.11328 L 115.32812 170.11328 C 117.82827 167.56622 120.50758 165.19118 123.36133 163.01953 L 91.775391 128.56641 C 89.766745 126.37536 87.1394 125.2832 84.511719 125.2832 z M 495.48828 125.2832 C 492.86061 125.2832 490.23327 126.3757 488.22461 128.56641 L 462.19141 156.96484 C 468.9384 160.44345 475.15588 164.89221 480.64844 170.11328 L 540.83984 170.11328 L 502.75195 128.56641 C 500.74329 126.37536 498.11597 125.2832 495.48828 125.2832 z M 187.25586 147.69727 L 187.25586 150.94531 C 205.68341 155.857 221.82877 167.58324 232.43359 183.27734 C 234.09815 182.0241 236.19954 181.32031 238.62695 181.32031 C 244.79161 181.32031 248.90234 185.80287 248.90234 192.52734 L 248.90234 237.35742 L 266.93359 237.35742 C 267.75255 233.39558 268.98296 229.51943 270.64648 225.81641 C 272.94567 220.69839 276.03606 215.9777 279.72461 211.77148 L 279.72461 192.52734 C 279.72461 185.80287 283.83535 181.32031 290 181.32031 C 296.16464 181.32031 300.27344 185.80287 300.27344 192.52734 L 300.27344 196.51367 C 307.51303 193.20165 315.3835 191.30632 323.35742 191.19727 A 40.011943 40.011943 0 0 1 323.36328 191.19727 C 325.96254 191.16211 328.55771 191.32221 331.13086 191.64844 C 331.47639 185.41811 335.48076 181.32031 341.37109 181.32031 C 347.53573 181.32031 351.64648 185.80287 351.64648 192.52734 L 351.64648 198.21094 C 353.08217 198.97425 354.49114 199.78717 355.86133 200.66211 C 362.39032 182.16519 375.11093 165.90604 392.74414 156.64844 L 392.74414 147.69727 L 187.25586 147.69727 z M 33.138672 192.52734 L 33.138672 200.76172 C 39.133344 196.89376 45.795001 194.06631 52.742188 192.52734 L 33.138672 192.52734 z M 76.876953 192.52734 C 83.818068 194.04987 90.488864 196.8324 96.486328 200.66211 C 97.46328 197.89436 98.58436 195.17937 99.833984 192.52734 L 76.876953 192.52734 z M 497.18555 192.52734 C 500.17559 198.60689 502.38687 205.12087 503.66992 211.94336 C 504.27926 215.0316 504.64186 218.07417 504.83008 221.07812 C 505.4315 222.56227 505.76367 224.26427 505.76367 226.15039 L 505.76367 241.94922 C 522.97131 253.42061 536.21408 270.95743 541.05273 291.10547 L 540.91602 290.55664 L 546.86133 313.86133 L 546.86133 192.52734 L 497.18555 192.52734 z M 255.0918 248.56445 C 259.38131 252.26256 263.31071 256.36832 266.79688 260.81445 C 266.03672 256.77829 265.66415 252.66804 265.7207 248.56445 L 255.0918 248.56445 z M 281.45312 290.22461 C 281.52755 290.51846 281.6069 290.8105 281.67773 291.10547 L 281.54102 290.55664 L 296.64648 349.76953 C 333.22325 353.33696 361.42856 386.07197 361.89844 426.85352 L 397.31445 394.89844 L 389.76758 365.31836 L 376.34375 366.16211 A 40.011943 40.011943 0 0 0 376.3418 366.16211 C 358.09672 367.30694 339.50373 359.342 327.74609 345.34375 A 40.011943 40.011943 0 0 0 327.74414 345.3418 L 281.45312 290.22461 z M 33.138672 303.39453 L 33.138672 528.75 C 33.138672 534.9477 37.742582 539.95703 43.414062 539.95703 L 106.1582 539.95703 C 91.270561 529.147 80.547699 512.3168 78.667969 494.08984 C 73.500171 470.67313 81.798431 444.48747 100.21094 428.9707 L 99.191406 429.85938 L 137.93945 394.89844 L 130.39258 365.31836 L 116.96875 366.16211 A 40.011943 40.011943 0 0 0 116.9668 366.16211 C 98.721725 367.30694 80.128733 359.342 68.371094 345.34375 A 40.011943 40.011943 0 0 0 68.369141 345.3418 L 33.138672 303.39453 z M 361.8418 537.09961 L 361.8418 539.95703 L 365.5332 539.95703 C 364.27447 539.04306 363.03804 538.09703 361.8418 537.09961 z "
     id="path3" />
  <path
     style="color:#000000;font-style:normal;font-variant:normal;font-weight:normal;font-stretch:normal;font-size:medium;line-height:normal;font-family:sans-serif;text-indent:0;text-align:start;text-decoration:none;text-decoration-line:none;text-decoration-style:solid;text-decoration-color:#000000;letter-spacing:normal;word-spacing:normal;text-transform:none;direction:ltr;block-progression:tb;writing-mode:lr-tb;baseline-shift:baseline;text-anchor:start;white-space:normal;clip-rule:nonzero;display:inline;overflow:visible;visibility:visible;opacity:1;isolation:auto;mix-blend-mode:normal;color-interpolation:sRGB;color-interpolation-filters:linearRGB;solid-color:#000000;solid-opacity:1;fill:#ffffff;fill-opacity:1;fill-rule:nonzero;stroke:none;stroke-width:128.99134827;stroke-linecap:round;stroke-linejoin:round;stroke-miterlimit:4;stroke-dasharray:none;stroke-dashoffset:0;stroke-opacity:1;color-rendering:auto;image-rendering:auto;shape-rendering:auto;text-rendering:auto;enable-background:accumulate"
     d="m 420.70532,188.12138 c -0.82529,0.0133 -1.66438,0.0941 -2.50074,0.15959 -34.53498,1.89784 -47.7924,48.52764 -19.91334,68.47778 26.75794,20.51729 66.80191,-4.19806 60.03986,-37.5318 -3.38563,-18.49172 -18.97173,-31.40467 -37.62578,-31.10557 z m -102.99406,42.82163 a 18.674762,18.674762 0 0 0 -13.87445,30.88418 l 48.38169,57.60733 a 18.674762,18.674762 0 0 0 15.46914,6.62706 l 46.54636,-2.9242 21.00733,82.33552 a 42.505132,42.505132 0 0 0 0.81213,2.77361 l -56.82351,51.26859 a 25.83533,25.83533 0 0 0 -7.63481,28.5778 23.658518,23.658518 0 0 0 24.20565,24.10267 l 114.18502,-1.23428 a 23.658518,23.658518 0 1 0 -0.51224,-47.3096 l -49.90818,0.53928 50.24023,-37.24097 a 25.83533,25.83533 0 0 0 9.18316,-29.80177 42.505132,42.505132 0 0 0 -1.38489,-12.68907 l -21.48353,-84.20692 a 42.505132,42.505132 0 0 0 -39.83824,-32.55352 42.505132,42.505132 0 0 0 -35.94232,17.63655 l -45.58621,2.86369 -42.3197,-50.38954 a 18.674762,18.674762 0 0 0 -14.72263,-6.86641 z"
     id="path4817"
     inkscape:connector-curvature="0" />
  <path
     style="color:#000000;font-style:normal;font-variant:normal;font-weight:normal;font-stretch:normal;font-size:medium;line-height:normal;font-family:sans-serif;text-indent:0;text-align:start;text-decoration:none;text-decoration-line:none;text-decoration-style:solid;text-decoration-color:#000000;letter-spacing:normal;word-spacing:normal;text-transform:none;direction:ltr;block-progression:tb;writing-mode:lr-tb;baseline-shift:baseline;text-anchor:start;white-space:normal;clip-rule:nonzero;display:inline;overflow:visible;visibility:visible;opacity:1;isolation:auto;mix-blend-mode:normal;color-interpolation:sRGB;color-interpolation-filters:linearRGB;solid-color:#000000;solid-opacity:1;fill:#ffffff;fill-opacity:1;fill-rule:nonzero;stroke:none;stroke-width:128.99134827;stroke-linecap:round;stroke-linejoin:round;stroke-miterlimit:4;stroke-dasharray:none;stroke-dashoffset:0;stroke-opacity:1;color-rendering:auto;image-rendering:auto;shape-rendering:auto;text-rendering:auto;enable-background:accumulate"
     d="m 167.42934,188.41931 c -0.82452,0.0133 -1.66285,0.094 -2.49844,0.15945 -34.50323,1.89609 -47.74846,48.48302 -19.89503,68.41482 26.73334,20.49843 66.7405,-4.1942 59.98466,-37.4973 -3.38251,-18.47471 -18.95428,-31.3758 -37.59119,-31.07697 z M 64.529971,231.20158 a 18.657594,18.657594 0 0 0 -13.8617,30.85578 l 48.33722,57.55437 a 18.657594,18.657594 0 0 0 15.454909,6.62097 l 46.50357,-2.92151 20.98802,82.25983 a 42.466056,42.466056 0 0 0 0.81139,2.77106 l -56.77127,51.22146 a 25.811579,25.811579 0 0 0 -7.6278,28.55152 23.636769,23.636769 0 0 0 24.1834,24.08052 l 114.08005,-1.23315 a 23.636769,23.636769 0 1 0 -0.51177,-47.26611 l -49.8623,0.53879 50.19404,-37.20673 a 25.811579,25.811579 0 0 0 9.17472,-29.77438 42.466056,42.466056 0 0 0 -1.38361,-12.67741 l -21.46378,-84.12951 a 42.466056,42.466056 0 0 0 -39.80162,-32.52358 42.466056,42.466056 0 0 0 -35.90928,17.62033 l -45.5443,2.86106 -42.280799,-50.34322 a 18.657594,18.657594 0 0 0 -14.70909,-6.86009 z"
     id="path4817-6"
     inkscape:connector-curvature="0" />
</svg>
