<?xml version="1.0" encoding="UTF-8" standalone="no"?>
<!-- Created with Inkscape (http://www.inkscape.org/) -->

<svg
   xmlns:dc="http://purl.org/dc/elements/1.1/"
   xmlns:cc="http://creativecommons.org/ns#"
   xmlns:rdf="http://www.w3.org/1999/02/22-rdf-syntax-ns#"
   xmlns:svg="http://www.w3.org/2000/svg"
   xmlns="http://www.w3.org/2000/svg"
   xmlns:sodipodi="http://sodipodi.sourceforge.net/DTD/sodipodi-0.dtd"
   xmlns:inkscape="http://www.inkscape.org/namespaces/inkscape"
   version="1.0"
   width="580"
   height="580"
   id="svg2"
   sodipodi:version="0.32"
   inkscape:version="0.91 r"
   sodipodi:docname="monastery.svg"
   inkscape:output_extension="org.inkscape.output.svg.inkscape">
  <metadata
     id="metadata2975">
    <rdf:RDF>
      <cc:Work
         rdf:about="">
        <dc:format>image/svg+xml</dc:format>
        <dc:type
           rdf:resource="http://purl.org/dc/dcmitype/StillImage" />
        <cc:license
           rdf:resource="http://web.resource.org/cc/PublicDomain" />
        <dc:language>en</dc:language>
        <dc:title />
      </cc:Work>
    </rdf:RDF>
  </metadata>
  <sodipodi:namedview
     inkscape:window-height="739"
     inkscape:window-width="1332"
     inkscape:pageshadow="2"
     inkscape:pageopacity="0.0"
     guidetolerance="10.0"
     gridtolerance="10.0"
     objecttolerance="10.0"
     borderopacity="1.0"
     bordercolor="#666666"
     pagecolor="#ffffff"
     id="base"
     inkscape:zoom="0.32"
     inkscape:cx="139.4421"
     inkscape:cy="209.03362"
     inkscape:window-x="34"
     inkscape:window-y="1024"
     inkscape:current-layer="svg2"
     showgrid="false"
     inkscape:window-maximized="1" />
  <defs
     id="defs4">
    <inkscape:perspective
       sodipodi:type="inkscape:persp3d"
       inkscape:vp_x="0 : 290 : 1"
       inkscape:vp_y="0 : 1000 : 0"
       inkscape:vp_z="580 : 290 : 1"
       inkscape:persp3d-origin="290 : 193.33333 : 1"
       id="perspective2441" />
    <inkscape:perspective
       id="perspective3452"
       inkscape:persp3d-origin="30 : 20 : 1"
       inkscape:vp_z="60 : 30 : 1"
       inkscape:vp_y="0 : 1000 : 0"
       inkscape:vp_x="0 : 30 : 1"
       sodipodi:type="inkscape:persp3d" />
    <symbol
       viewBox="244.5 110 489 219.9"
       id="symbol-university">
      <path
         id="path4460"
         d="M79,43l57,119c0,0,21-96,104-96s124,106,124,106l43-133l82-17L0,17L79,43z" />
      <path
         id="path4462"
         d="M94,176l-21,39"
         stroke-width="20"
         stroke="#000000"
         fill="none" />
      <path
         id="path4464"
         d="M300,19c0,10.5-22.6,19-50.5,19S199,29.5,199,19s22.6-19,50.5-19S300,8.5,300,19z" />
      <path
         id="path4466"
         d="M112,216l-16-38L64,88c0,0-9-8-4-35s16-24,16-24"
         stroke-width="20"
         stroke="#000000"
         ill="none" />
    </symbol>
    <inkscape:perspective
       id="perspective4471"
       inkscape:persp3d-origin="372.04724 : 350.78739 : 1"
       inkscape:vp_z="744.09448 : 526.18109 : 1"
       inkscape:vp_y="0 : 1000 : 0"
       inkscape:vp_x="0 : 526.18109 : 1"
       sodipodi:type="inkscape:persp3d" />
    <inkscape:perspective
       id="perspective4668"
       inkscape:persp3d-origin="6 : 4 : 1"
       inkscape:vp_z="12 : 6 : 1"
       inkscape:vp_y="0 : 1000 : 0"
       inkscape:vp_x="0 : 6 : 1"
       sodipodi:type="inkscape:persp3d" />
    <inkscape:perspective
       id="perspective2893"
       inkscape:persp3d-origin="0.5 : 0.33333333 : 1"
       inkscape:vp_z="1 : 0.5 : 1"
       inkscape:vp_y="0 : 1000 : 0"
       inkscape:vp_x="0 : 0.5 : 1"
       sodipodi:type="inkscape:persp3d" />
    <inkscape:perspective
       id="perspective3898"
       inkscape:persp3d-origin="0.5 : 0.33333333 : 1"
       inkscape:vp_z="1 : 0.5 : 1"
       inkscape:vp_y="0 : 1000 : 0"
       inkscape:vp_x="0 : 0.5 : 1"
       sodipodi:type="inkscape:persp3d" />
    <inkscape:perspective
       id="perspective4011"
       inkscape:persp3d-origin="0.5 : 0.33333333 : 1"
       inkscape:vp_z="1 : 0.5 : 1"
       inkscape:vp_y="0 : 1000 : 0"
       inkscape:vp_x="0 : 0.5 : 1"
       sodipodi:type="inkscape:persp3d" />
  </defs>
  <g
     id="g1327">
    <path
       d="M 66.275,1.768 C 24.94,1.768 1.704,23.139 1.704,66.804 L 1.704,516.927 C 1.704,557.771 22.599,579.156 63.896,579.156 L 515.92,579.156 C 557.227,579.156 578.149,558.841 578.149,516.927 L 578.149,66.804 C 578.149,24.203 557.227,1.768 514.628,1.768 C 514.624,1.768 66.133,1.625 66.275,1.768 z"
       style="fill:#111111;stroke:#eeeeee;stroke-width:3.40799999"
       id="path1329" />
  </g>
  <path
     style="color:#000000;clip-rule:nonzero;display:inline;overflow:visible;visibility:visible;opacity:0.60799997;isolation:auto;mix-blend-mode:normal;color-interpolation:sRGB;color-interpolation-filters:linearRGB;solid-color:#000000;solid-opacity:1;fill:#ffffff;fill-opacity:1;fill-rule:nonzero;stroke:none;stroke-width:1;stroke-linecap:butt;stroke-linejoin:miter;stroke-miterlimit:4;stroke-dasharray:none;stroke-dashoffset:0;stroke-opacity:1;color-rendering:auto;image-rendering:auto;shape-rendering:auto;text-rendering:auto;enable-background:accumulate"
     d="M 290 35.623047 C 287.55982 35.623047 285.12473 36.558251 283.17773 38.447266 L 193.61719 125.2832 L 386.38281 125.2832 L 296.82227 38.447266 C 294.87526 36.55881 292.44017 35.623047 290 35.623047 z M 84.511719 125.2832 C 81.884027 125.2832 79.256702 126.3757 77.248047 128.56641 L 39.160156 170.11328 L 129.86328 170.11328 L 91.775391 128.56641 C 89.766745 126.37536 87.1394 125.2832 84.511719 125.2832 z M 495.48828 125.2832 C 492.86061 125.2832 490.23327 126.3757 488.22461 128.56641 L 450.13672 170.11328 L 540.83984 170.11328 L 502.75195 128.56641 C 500.74329 126.37536 498.11597 125.2832 495.48828 125.2832 z M 187.25586 147.69727 L 187.25586 173.83008 C 205.20805 180.55334 219.09609 196.38763 222.76367 216.07617 C 224.2504 223.52875 224.07576 230.68026 222.60547 237.35742 L 228.35352 237.35742 L 228.35352 192.52734 C 228.35352 185.80287 232.4623 181.32031 238.62695 181.32031 C 244.79161 181.32031 248.90234 185.80287 248.90234 192.52734 L 248.90234 237.35742 L 279.72461 237.35742 L 279.72461 192.52734 C 279.72461 185.80287 283.83535 181.32031 290 181.32031 C 296.16464 181.32031 300.27344 185.80287 300.27344 192.52734 L 300.27344 216.66602 C 305.54299 213.80464 311.45059 212.13464 317.45312 212.05273 L 317.45508 212.05273 C 322.10697 211.98955 326.74634 212.85802 331.09766 214.49805 L 331.09766 192.52734 C 331.09766 185.80287 335.20642 181.32031 341.37109 181.32031 C 347.53573 181.32031 351.64648 185.80287 351.64648 192.52734 L 351.64648 231.30859 L 356.72656 237.35742 L 365.90625 237.35742 C 362.08678 214.3243 372.45283 189.10277 392.74414 176.85156 L 392.74414 147.69727 L 187.25586 147.69727 z M 33.138672 192.52734 L 33.138672 231.27539 C 39.566858 220.52364 51.718884 213.29294 64.283203 213.12109 A 18.084259 18.084259 0 0 1 64.287109 213.12109 C 69.45838 213.05114 74.613368 214.15389 79.355469 216.21289 C 80.827002 215.39047 82.566615 214.94141 84.511719 214.94141 C 90.676365 214.94141 94.785156 219.42596 94.785156 226.15039 L 94.785156 228.45703 L 129.49805 269.78516 L 132.07617 269.62305 C 107.78991 249.96752 107.66864 215.23419 124.06055 192.52734 L 33.138672 192.52734 z M 466.83789 192.52734 C 471.76047 199.24156 475.27308 207.0903 476.86914 215.6582 C 479.49135 228.81388 477.03201 241.05316 471.39453 251.43945 C 476.21741 252.89082 480.86055 254.94624 485.21484 257.50195 L 485.21484 226.15039 C 485.21484 219.42596 489.32364 214.94141 495.48828 214.94141 C 501.65294 214.94141 505.76367 219.42596 505.76367 226.15039 L 505.76367 270.97852 L 501.4707 270.97852 C 507.67351 278.11456 512.27224 286.59671 514.49219 295.83984 L 514.42773 295.58203 L 535.91016 379.78906 L 535.86328 379.61328 C 537.14801 384.45393 537.67329 389.4553 537.74805 394.46289 C 542.23 411.82941 535.46091 431.75808 520.84375 442.28125 L 521.05469 442.12695 L 516.61133 445.42188 C 529.10402 447.66394 540.37064 455.9589 546.86133 466.90625 L 546.86133 192.52734 L 466.83789 192.52734 z M 218.75391 248.56445 C 218.17791 249.78206 217.56512 250.97869 216.9043 252.14844 C 237.66603 258.01618 255.28962 275.12228 260.35742 296.22461 L 260.29688 295.97656 L 274.40039 351.25781 C 279.41691 350.07258 284.63154 349.43164 290 349.43164 C 330.07024 349.43164 361.92187 384.17393 361.92188 427.88281 L 361.92188 450.25586 C 363.4762 448.38674 365.18633 446.64438 367.05664 445.06836 L 366.57422 445.48828 L 414.8418 401.9375 L 399.79883 342.97461 L 368.87305 344.91797 A 18.894628 18.894628 0 0 1 368.86914 344.91797 C 357.18539 345.6499 345.27828 340.54896 337.75 331.58398 L 337.75195 331.58398 L 289.36914 273.97852 L 289.54297 274.18164 C 283.4803 267.16726 280.38364 257.81735 280.56445 248.56445 L 218.75391 248.56445 z M 366.13867 248.56445 L 373.25 257.03125 C 371.55899 254.3172 370.14787 251.48179 368.99609 248.56445 L 366.13867 248.56445 z M 382.47461 268.01562 L 383.08789 268.74609 L 383.31641 268.73242 C 383.03943 268.49107 382.74488 268.26101 382.47461 268.01562 z M 33.138672 268.39062 L 33.138672 528.75 C 33.138672 534.9477 37.742582 539.95703 43.414062 539.95703 L 218.16016 539.95703 L 218.16016 529.46289 L 142.74414 530.27734 L 142.9707 530.27344 C 121.86654 530.76562 102.53852 512.52109 100.66016 491.68164 C 96.035542 475.65368 101.26785 457.10455 113.87891 446.13867 L 162.45898 402.30664 L 147.14648 342.29688 L 115.5957 344.2793 A 18.084259 18.084259 0 0 1 115.59375 344.2793 C 104.16754 344.99626 92.523526 340.00877 85.160156 331.24219 A 18.084259 18.084259 0 0 1 85.158203 331.24023 L 36.822266 273.68555 L 36.988281 273.88086 C 35.520625 272.1826 34.248154 270.33286 33.138672 268.39062 z M 134.03516 271.34375 L 134.51367 271.69922 C 134.42965 271.6391 134.36867 271.56436 134.28516 271.50391 C 134.20412 271.44246 134.11604 271.40576 134.03516 271.34375 z M 386.79492 271.75 L 387.29688 272.12109 C 387.21166 272.06012 387.14914 271.98514 387.06445 271.92383 C 386.9769 271.8575 386.88228 271.81699 386.79492 271.75 z M 546.86133 507.66992 C 539.24346 520.61404 525.03155 529.92301 509.90039 529.85352 L 510.19141 529.85352 L 396.00586 531.08789 L 396.24023 531.08203 C 382.79445 531.39517 370.05681 524.25119 361.92188 513.66406 L 361.92188 517.54297 L 361.8418 517.54297 L 361.8418 539.95703 L 536.58594 539.95703 C 542.26769 539.95703 546.86133 534.9477 546.86133 528.75 L 546.86133 507.66992 z "
     id="path3" />
  <path
     style="color:#000000;font-style:normal;font-variant:normal;font-weight:normal;font-stretch:normal;font-size:medium;line-height:normal;font-family:sans-serif;text-indent:0;text-align:start;text-decoration:none;text-decoration-line:none;text-decoration-style:solid;text-decoration-color:#000000;letter-spacing:normal;word-spacing:normal;text-transform:none;direction:ltr;block-progression:tb;writing-mode:lr-tb;baseline-shift:baseline;text-anchor:start;white-space:normal;clip-rule:nonzero;display:inline;overflow:visible;visibility:visible;opacity:1;isolation:auto;mix-blend-mode:normal;color-interpolation:sRGB;color-interpolation-filters:linearRGB;solid-color:#000000;solid-opacity:1;fill:#ffffff;fill-opacity:1;fill-rule:nonzero;stroke:none;stroke-width:128.99134827;stroke-linecap:round;stroke-linejoin:round;stroke-miterlimit:4;stroke-dasharray:none;stroke-dashoffset:0;stroke-opacity:1;color-rendering:auto;image-rendering:auto;shape-rendering:auto;text-rendering:auto;enable-background:accumulate"
     d="m 420.70532,188.12138 c -0.82529,0.0133 -1.66438,0.0941 -2.50074,0.15959 -34.53498,1.89784 -47.7924,48.52764 -19.91334,68.47778 26.75794,20.51729 66.80191,-4.19806 60.03986,-37.5318 -3.38563,-18.49172 -18.97173,-31.40467 -37.62578,-31.10557 z m -102.99406,42.82163 a 18.674762,18.674762 0 0 0 -13.87445,30.88418 l 48.38169,57.60733 a 18.674762,18.674762 0 0 0 15.46914,6.62706 l 46.54636,-2.9242 21.00733,82.33552 a 42.505132,42.505132 0 0 0 0.81213,2.77361 l -56.82351,51.26859 a 25.83533,25.83533 0 0 0 -7.63481,28.5778 23.658518,23.658518 0 0 0 24.20565,24.10267 l 114.18502,-1.23428 a 23.658518,23.658518 0 1 0 -0.51224,-47.3096 l -49.90818,0.53928 50.24023,-37.24097 a 25.83533,25.83533 0 0 0 9.18316,-29.80177 42.505132,42.505132 0 0 0 -1.38489,-12.68907 l -21.48353,-84.20692 a 42.505132,42.505132 0 0 0 -39.83824,-32.55352 42.505132,42.505132 0 0 0 -35.94232,17.63655 l -45.58621,2.86369 -42.3197,-50.38954 a 18.674762,18.674762 0 0 0 -14.72263,-6.86641 z"
     id="path4817"
     inkscape:connector-curvature="0" />
  <path
     style="color:#000000;font-style:normal;font-variant:normal;font-weight:normal;font-stretch:normal;font-size:medium;line-height:normal;font-family:sans-serif;text-indent:0;text-align:start;text-decoration:none;text-decoration-line:none;text-decoration-style:solid;text-decoration-color:#000000;letter-spacing:normal;word-spacing:normal;text-transform:none;direction:ltr;block-progression:tb;writing-mode:lr-tb;baseline-shift:baseline;text-anchor:start;white-space:normal;clip-rule:nonzero;display:inline;overflow:visible;visibility:visible;opacity:1;isolation:auto;mix-blend-mode:normal;color-interpolation:sRGB;color-interpolation-filters:linearRGB;solid-color:#000000;solid-opacity:1;fill:#ffffff;fill-opacity:1;fill-rule:nonzero;stroke:none;stroke-width:128.99134827;stroke-linecap:round;stroke-linejoin:round;stroke-miterlimit:4;stroke-dasharray:none;stroke-dashoffset:0;stroke-opacity:1;color-rendering:auto;image-rendering:auto;shape-rendering:auto;text-rendering:auto;enable-background:accumulate"
     d="m 167.42934,188.41931 c -0.82452,0.0133 -1.66285,0.094 -2.49844,0.15945 -34.50323,1.89609 -47.74846,48.48302 -19.89503,68.41482 26.73334,20.49843 66.7405,-4.1942 59.98466,-37.4973 -3.38251,-18.47471 -18.95428,-31.3758 -37.59119,-31.07697 z M 64.529971,231.20158 a 18.657594,18.657594 0 0 0 -13.8617,30.85578 l 48.33722,57.55437 a 18.657594,18.657594 0 0 0 15.454909,6.62097 l 46.50357,-2.92151 20.98802,82.25983 a 42.466056,42.466056 0 0 0 0.81139,2.77106 l -56.77127,51.22146 a 25.811579,25.811579 0 0 0 -7.6278,28.55152 23.636769,23.636769 0 0 0 24.1834,24.08052 l 114.08005,-1.23315 a 23.636769,23.636769 0 1 0 -0.51177,-47.26611 l -49.8623,0.53879 50.19404,-37.20673 a 25.811579,25.811579 0 0 0 9.17472,-29.77438 42.466056,42.466056 0 0 0 -1.38361,-12.67741 l -21.46378,-84.12951 a 42.466056,42.466056 0 0 0 -39.80162,-32.52358 42.466056,42.466056 0 0 0 -35.90928,17.62033 l -45.5443,2.86106 -42.280799,-50.34322 a 18.657594,18.657594 0 0 0 -14.70909,-6.86009 z"
     id="path4817-6"
     inkscape:connector-curvature="0" />
</svg>
