<?xml version="1.0" encoding="UTF-8" standalone="no"?>
<!-- Created with Inkscape (http://www.inkscape.org/) -->

<svg
   xmlns:dc="http://purl.org/dc/elements/1.1/"
   xmlns:cc="http://creativecommons.org/ns#"
   xmlns:rdf="http://www.w3.org/1999/02/22-rdf-syntax-ns#"
   xmlns:svg="http://www.w3.org/2000/svg"
   xmlns="http://www.w3.org/2000/svg"
   xmlns:sodipodi="http://sodipodi.sourceforge.net/DTD/sodipodi-0.dtd"
   xmlns:inkscape="http://www.inkscape.org/namespaces/inkscape"
   version="1.0"
   width="580"
   height="580"
   id="svg2"
   sodipodi:version="0.32"
   inkscape:version="0.91 r"
   sodipodi:docname="monastery.svg"
   inkscape:output_extension="org.inkscape.output.svg.inkscape">
  <metadata
     id="metadata2975">
    <rdf:RDF>
      <cc:Work
         rdf:about="">
        <dc:format>image/svg+xml</dc:format>
        <dc:type
           rdf:resource="http://purl.org/dc/dcmitype/StillImage" />
        <cc:license
           rdf:resource="http://web.resource.org/cc/PublicDomain" />
        <dc:language>en</dc:language>
        <dc:title />
      </cc:Work>
    </rdf:RDF>
  </metadata>
  <sodipodi:namedview
     inkscape:window-height="1004"
     inkscape:window-width="1920"
     inkscape:pageshadow="2"
     inkscape:pageopacity="0.0"
     guidetolerance="10.0"
     gridtolerance="10.0"
     objecttolerance="10.0"
     borderopacity="1.0"
     bordercolor="#666666"
     pagecolor="#ffffff"
     id="base"
     inkscape:zoom="0.90509668"
     inkscape:cx="279.56802"
     inkscape:cy="404.86064"
     inkscape:window-x="1680"
     inkscape:window-y="0"
     inkscape:current-layer="svg2"
     showgrid="false"
     inkscape:window-maximized="1" />
  <defs
     id="defs4">
    <inkscape:perspective
       sodipodi:type="inkscape:persp3d"
       inkscape:vp_x="0 : 290 : 1"
       inkscape:vp_y="0 : 1000 : 0"
       inkscape:vp_z="580 : 290 : 1"
       inkscape:persp3d-origin="290 : 193.33333 : 1"
       id="perspective2441" />
    <inkscape:perspective
       id="perspective3452"
       inkscape:persp3d-origin="30 : 20 : 1"
       inkscape:vp_z="60 : 30 : 1"
       inkscape:vp_y="0 : 1000 : 0"
       inkscape:vp_x="0 : 30 : 1"
       sodipodi:type="inkscape:persp3d" />
    <symbol
       viewBox="244.5 110 489 219.9"
       id="symbol-university">
      <path
         id="path4460"
         d="M79,43l57,119c0,0,21-96,104-96s124,106,124,106l43-133l82-17L0,17L79,43z" />
      <path
         id="path4462"
         d="M94,176l-21,39"
         stroke-width="20"
         stroke="#000000"
         fill="none" />
      <path
         id="path4464"
         d="M300,19c0,10.5-22.6,19-50.5,19S199,29.5,199,19s22.6-19,50.5-19S300,8.5,300,19z" />
      <path
         id="path4466"
         d="M112,216l-16-38L64,88c0,0-9-8-4-35s16-24,16-24"
         stroke-width="20"
         stroke="#000000"
         ill="none" />
    </symbol>
    <inkscape:perspective
       id="perspective4471"
       inkscape:persp3d-origin="372.04724 : 350.78739 : 1"
       inkscape:vp_z="744.09448 : 526.18109 : 1"
       inkscape:vp_y="0 : 1000 : 0"
       inkscape:vp_x="0 : 526.18109 : 1"
       sodipodi:type="inkscape:persp3d" />
    <inkscape:perspective
       id="perspective4668"
       inkscape:persp3d-origin="6 : 4 : 1"
       inkscape:vp_z="12 : 6 : 1"
       inkscape:vp_y="0 : 1000 : 0"
       inkscape:vp_x="0 : 6 : 1"
       sodipodi:type="inkscape:persp3d" />
    <inkscape:perspective
       id="perspective2893"
       inkscape:persp3d-origin="0.5 : 0.33333333 : 1"
       inkscape:vp_z="1 : 0.5 : 1"
       inkscape:vp_y="0 : 1000 : 0"
       inkscape:vp_x="0 : 0.5 : 1"
       sodipodi:type="inkscape:persp3d" />
    <inkscape:perspective
       id="perspective3898"
       inkscape:persp3d-origin="0.5 : 0.33333333 : 1"
       inkscape:vp_z="1 : 0.5 : 1"
       inkscape:vp_y="0 : 1000 : 0"
       inkscape:vp_x="0 : 0.5 : 1"
       sodipodi:type="inkscape:persp3d" />
    <inkscape:perspective
       id="perspective4011"
       inkscape:persp3d-origin="0.5 : 0.33333333 : 1"
       inkscape:vp_z="1 : 0.5 : 1"
       inkscape:vp_y="0 : 1000 : 0"
       inkscape:vp_x="0 : 0.5 : 1"
       sodipodi:type="inkscape:persp3d" />
  </defs>
  <g
     id="g1327">
    <path
       d="M 66.275,1.768 C 24.94,1.768 1.704,23.139 1.704,66.804 L 1.704,516.927 C 1.704,557.771 22.599,579.156 63.896,579.156 L 515.92,579.156 C 557.227,579.156 578.149,558.841 578.149,516.927 L 578.149,66.804 C 578.149,24.203 557.227,1.768 514.628,1.768 C 514.624,1.768 66.133,1.625 66.275,1.768 z"
       style="fill:#111111;stroke:#eeeeee;stroke-width:3.40799999"
       id="path1329" />
  </g>
  <path
     style="fill:#ffffff;fill-opacity:1;stroke:none;stroke-opacity:1;opacity:0.608"
     d="M 290.00195 37.695312 L 184.87305 121.79688 L 395.12695 121.79688 L 290.00195 37.695312 z M 79.746094 142.82031 L 37.693359 184.87305 L 121.79688 184.87305 L 79.746094 142.82031 z M 184.87305 142.82031 L 184.87305 247.95117 L 226.92578 247.95117 L 226.92578 184.87305 C 226.92578 172.25778 235.33392 163.84766 247.94922 163.84766 C 260.56447 163.84766 268.97461 172.25778 268.97461 184.87305 L 268.97461 247.95117 L 311.02539 247.95117 L 311.02539 184.87305 C 311.02539 172.25778 319.43548 163.84766 332.05078 163.84766 C 344.66593 163.84766 353.07814 172.25778 353.07812 184.87305 L 353.07812 247.95117 L 395.12695 247.95117 L 395.12695 142.82031 L 184.87305 142.82031 z M 500.25391 142.82031 L 458.20312 184.87305 L 542.30664 184.87305 L 500.25391 142.82031 z M 37.693359 205.89648 L 37.693359 311.02734 L 37.693359 410.84375 L 46.076172 377.98633 L 45.976562 378.38672 C 49.767675 362.60073 60.517195 348.98308 74.335938 340.53516 C 72.864395 333.71072 72.574207 326.47003 74.068359 318.9043 C 79.158956 291.86433 103.8448 271.35093 131.53516 271.79492 A 29.32552 29.32552 0 0 0 131.53711 271.79492 C 133.38931 271.82484 134.16753 271.92161 134.6582 271.96875 C 159.45366 273.3799 176.98998 290.59056 184.00391 311.4043 C 191.28145 306.55241 199.97553 303.79971 208.72852 303.91797 C 225.12111 304.13984 240.94916 314.53422 247.66797 329.48828 C 252.57464 340.40909 252.43247 353.34389 247.82617 364.35938 C 257.80956 358.2497 269.20285 354.25588 281.58984 353.07617 C 300.32444 351.51496 317.89737 355.75403 332.5918 364.2793 C 327.99489 353.3512 327.83903 340.50164 332.71094 329.6582 C 339.36519 314.84782 355.04225 304.55372 371.27734 304.33398 C 380.11801 304.21454 388.89573 307.0527 396.1875 312.03906 C 403.03383 291.14264 420.55073 273.78918 445.38086 272.38281 C 445.87469 272.33549 446.64139 272.24045 448.46875 272.21094 A 28.909143 28.909143 0 0 1 448.47266 272.21094 C 475.97352 271.76998 500.47916 292.13793 505.52734 318.99805 C 507.02698 326.60021 506.71269 333.87153 505.20117 340.7168 C 519.05164 349.09414 529.83004 362.70677 533.61914 378.48438 L 533.52148 378.08789 L 542.30664 412.52344 L 542.30664 268.97266 L 542.30664 205.89648 L 458.20312 205.89648 L 458.20312 268.97266 L 121.79688 268.97266 L 121.79688 205.89648 L 37.693359 205.89648 z M 79.746094 226.92383 C 92.361355 226.92383 100.77344 235.3359 100.77344 247.95117 L 100.77344 268.97266 L 58.720703 268.97266 L 58.720703 247.95117 C 58.720703 235.3359 67.130812 226.92383 79.746094 226.92383 z M 500.25391 226.92383 C 512.86922 226.92383 521.2793 235.3359 521.2793 247.95117 L 521.2793 268.97266 L 479.23047 268.97266 L 479.23047 247.95117 C 479.23047 235.3359 487.63861 226.92383 500.25391 226.92383 z M 290.00195 374.10352 C 254.25868 374.10352 226.92578 401.43644 226.92578 437.17969 L 226.92578 542.30469 L 353.07812 542.30469 L 353.07812 437.17969 C 353.07812 401.43644 325.74514 374.10352 290.00195 374.10352 z M 414.5293 375.54492 L 415.29688 376.11328 C 415.16483 376.01879 415.0683 375.90195 414.9375 375.80664 C 414.805 375.70688 414.66135 375.64618 414.5293 375.54492 z M 165.72266 375.875 C 165.58983 375.97685 165.44578 376.03833 165.3125 376.13867 C 165.17903 376.23595 165.08006 376.35474 164.94531 376.45117 L 165.72266 375.875 z M 210.91211 411.32617 L 204.90039 418.48438 A 29.32552 29.32552 0 0 1 204.89648 418.48828 C 196.21104 428.82688 182.47812 434.7099 169.00195 433.86328 L 158.32617 433.19141 L 152.4043 456.40234 L 181.82227 482.94531 L 181.07422 482.29297 C 194.69907 493.7731 200.83862 513.1474 197.01758 530.47461 C 196.60866 534.54346 195.59167 538.51508 194.08594 542.30469 L 205.89844 542.30469 L 205.89844 441.38281 C 205.89844 430.99105 207.66487 420.8409 210.91211 411.32617 z M 370.53711 412.40234 C 372.85562 420.188 374.10156 428.4972 374.10156 437.17969 L 374.10156 542.30469 L 386.35547 542.30469 C 384.82858 538.49826 383.80119 534.50442 383.39258 530.41211 C 379.65994 513.54295 385.46097 494.7154 398.45703 483.25586 L 428.06055 456.54492 L 421.99219 432.75586 L 410.97266 433.44727 C 397.62597 434.28575 384.02388 428.45997 375.42188 418.2207 A 28.909143 28.909143 0 0 1 375.41992 418.2168 L 370.53711 412.40234 z "
     id="polygon3" />
  <path
     style="color:#000000;font-style:normal;font-variant:normal;font-weight:normal;font-stretch:normal;font-size:medium;line-height:normal;font-family:sans-serif;text-indent:0;text-align:start;text-decoration:none;text-decoration-line:none;text-decoration-style:solid;text-decoration-color:#000000;letter-spacing:normal;word-spacing:normal;text-transform:none;direction:ltr;block-progression:tb;writing-mode:lr-tb;baseline-shift:baseline;text-anchor:start;white-space:normal;clip-rule:nonzero;display:inline;overflow:visible;visibility:visible;opacity:1;isolation:auto;mix-blend-mode:normal;color-interpolation:sRGB;color-interpolation-filters:linearRGB;solid-color:#000000;solid-opacity:1;fill:#ffffff;fill-opacity:1;fill-rule:nonzero;stroke:none;stroke-width:128.99134827;stroke-linecap:round;stroke-linejoin:round;stroke-miterlimit:4;stroke-dasharray:none;stroke-dashoffset:0;stroke-opacity:1;color-rendering:auto;image-rendering:auto;shape-rendering:auto;text-rendering:auto;enable-background:accumulate"
     d="m 448.93498,301.11319 c -0.61914,0.01 -1.24864,0.0706 -1.87609,0.11973 -25.9086,1.42378 -35.85449,36.40608 -14.93925,51.37294 20.07416,15.39234 50.11568,-3.14944 45.0427,-28.15686 -2.53994,-13.87273 -14.23284,-23.5602 -28.22736,-23.33581 z m -77.26751,32.12536 a 14.010055,14.010055 0 0 0 -10.4088,23.16972 l 36.29659,43.21778 a 14.010055,14.010055 0 0 0 11.60515,4.97171 l 34.9197,-2.19377 15.75998,61.7692 a 31.887915,31.887915 0 0 0 0.60927,2.0808 l -42.62975,38.46238 a 19.382008,19.382008 0 0 0 -5.72774,21.43944 17.748935,17.748935 0 0 0 18.1594,18.08215 l 85.66312,-0.92598 a 17.748935,17.748935 0 1 0 -0.38429,-35.49229 l -37.44178,0.40458 37.69089,-27.93867 a 19.382008,19.382008 0 0 0 6.88933,-22.35769 31.887915,31.887915 0 0 0 -1.03896,-9.51951 l -16.11723,-63.17315 a 31.887915,31.887915 0 0 0 -29.88718,-24.42208 31.887915,31.887915 0 0 0 -26.96441,13.23117 l -34.19938,2.14838 -31.7488,-37.8029 a 14.010055,14.010055 0 0 0 -11.04511,-5.15127 z"
     id="path4817"
     inkscape:connector-curvature="0" />
  <path
     style="color:#000000;font-style:normal;font-variant:normal;font-weight:normal;font-stretch:normal;font-size:medium;line-height:normal;font-family:sans-serif;text-indent:0;text-align:start;text-decoration:none;text-decoration-line:none;text-decoration-style:solid;text-decoration-color:#000000;letter-spacing:normal;word-spacing:normal;text-transform:none;direction:ltr;block-progression:tb;writing-mode:lr-tb;baseline-shift:baseline;text-anchor:start;white-space:normal;clip-rule:nonzero;display:inline;overflow:visible;visibility:visible;opacity:1;isolation:auto;mix-blend-mode:normal;color-interpolation:sRGB;color-interpolation-filters:linearRGB;solid-color:#000000;solid-opacity:1;fill:#ffffff;fill-opacity:1;fill-rule:nonzero;stroke:none;stroke-width:128.99134827;stroke-linecap:round;stroke-linejoin:round;stroke-miterlimit:4;stroke-dasharray:none;stroke-dashoffset:0;stroke-opacity:1;color-rendering:auto;image-rendering:auto;shape-rendering:auto;text-rendering:auto;enable-background:accumulate"
     d="m 131.06502,301.11319 c 0.61914,0.01 1.24864,0.0706 1.87609,0.11973 25.9086,1.42378 35.85449,36.40608 14.93925,51.37294 -20.07416,15.39234 -50.11568,-3.14944 -45.0427,-28.15686 2.53994,-13.87273 14.23284,-23.5602 28.22736,-23.33581 z m 77.26751,32.12536 a 14.010055,14.010055 0 0 1 10.4088,23.16972 l -36.29659,43.21778 a 14.010055,14.010055 0 0 1 -11.60515,4.97171 l -34.9197,-2.19377 -15.75998,61.7692 a 31.887915,31.887915 0 0 1 -0.60927,2.0808 l 42.62975,38.46238 a 19.382008,19.382008 0 0 1 5.72774,21.43944 17.748935,17.748935 0 0 1 -18.1594,18.08215 l -85.66312,-0.92598 a 17.748935,17.748935 0 1 1 0.38429,-35.49229 l 37.44178,0.40458 -37.69089,-27.93867 a 19.382008,19.382008 0 0 1 -6.88933,-22.35769 31.887915,31.887915 0 0 1 1.03896,-9.51951 l 16.11723,-63.17315 a 31.887915,31.887915 0 0 1 29.88718,-24.42208 31.887915,31.887915 0 0 1 26.96441,13.23117 l 34.19938,2.14838 31.7488,-37.8029 a 14.010055,14.010055 0 0 1 11.04511,-5.15127 z"
     id="path4817-6"
     inkscape:connector-curvature="0" />
</svg>
