<svg width="580" height="580" viewBox="0 0 580 580" fill="none" xmlns="http://www.w3.org/2000/svg">
<g clip-path="url(#clip0)">
<path d="M66.2751 1.76802C24.9401 1.76802 1.7041 23.139 1.7041 66.804V516.927C1.7041 557.771 22.5991 579.156 63.8961 579.156H515.92C557.227 579.156 578.149 558.841 578.149 516.927V66.804C578.149 24.203 557.227 1.76802 514.628 1.76802C514.624 1.76802 66.1331 1.62502 66.2751 1.76802Z" fill="#111111" stroke="#EEEEEE" stroke-width="3.408"/>
<path opacity="0.25" d="M375.98 373.001H207.059V541.921H375.98V373.001Z" fill="white" stroke="white" stroke-width="20.1359" stroke-linecap="round" stroke-linejoin="round"/>
<path d="M375.98 373.001H207.059V541.921H375.98V373.001Z" stroke="white" stroke-width="20.1359" stroke-linecap="round" stroke-linejoin="round"/>
<path d="M209.967 335.29C208.306 332.187 207.573 309.984 207.829 270.513C208.162 219.234 207.668 209.394 204.454 203.178C199.513 193.623 199.545 193.497 207.674 190.663C214.234 188.376 214.659 187.487 214.659 176.058V163.887L191.96 163.351C179.475 163.056 168.534 162.088 167.647 161.199C165.519 159.066 164.556 136.653 166.459 133.573C167.37 132.1 174.669 131.601 185.32 132.285C199.907 133.221 203.573 132.699 208.162 129.03C217.455 121.601 213.993 117.135 197.65 115.464C166.239 112.254 166.37 112.301 164.726 103.54C163.903 99.1501 162.206 95.558 160.956 95.558C159.706 95.558 154.492 92.7838 149.368 89.393C142.11 84.5899 139.486 80.9789 137.488 73.0466C136.078 67.4469 131.875 58.6557 128.148 53.5106C124.421 48.3656 121.994 43.1495 122.754 41.9193C124.858 38.5143 134.889 39.246 142.901 43.389C151.806 47.994 170.366 53.5859 180.356 54.6738C184.497 55.1248 199.933 57.2887 214.659 59.4824C236.743 62.7726 252.646 63.2718 305.456 62.3326C340.669 61.7064 374.195 60.0674 379.957 58.6903C385.719 57.3132 397.106 55.1326 405.261 53.8446C413.417 52.5567 426.669 48.4238 434.711 44.6604C454.247 35.5188 460.205 40.7032 449.792 57.782C447.236 61.9745 445.145 67.8651 445.145 70.8723C445.145 76.2467 427.025 95.558 421.982 95.558C420.709 95.558 418.795 98.9293 417.727 103.05C415.588 111.302 410.833 113.564 394.799 113.951C380.551 114.295 370.644 116.731 370.644 119.889C370.644 121.426 373.053 124.947 375.997 127.712C380.918 132.336 382.653 132.579 397.532 130.737C407.478 129.505 414.786 129.586 416.494 130.947C419.296 133.179 418.224 155.433 415.148 158.897C414.345 159.8 403.429 160.713 390.89 160.925L368.092 161.31L368.786 173.251C369.436 184.438 369.958 185.346 377.048 187.638C389.273 191.589 390.307 194.078 383.222 202.498L376.912 209.997L378.255 269.794C379.088 306.85 378.737 331.13 377.334 333.638C374.542 338.627 353.986 339.367 350.047 334.621C348.443 332.689 346.931 308.822 345.953 270.015C345.099 236.167 343.399 206.527 342.174 204.149C340.695 201.276 340.801 198.97 342.491 197.281C343.89 195.881 345.036 187.351 345.037 178.323L345.039 161.91L292.088 162.669C262.966 163.087 238.776 163.791 238.333 164.233C237.891 164.676 236.959 202.574 236.263 248.451C235.567 294.328 234.051 333.698 232.895 335.938C229.755 342.022 213.321 341.558 209.967 335.29ZM277.519 125.824V116.511H260.173C246.456 116.511 242.377 117.317 240.672 120.363C239.054 123.255 240.04 125.557 244.631 129.602C249.478 133.873 253.52 135.004 264.132 135.063L277.519 135.136V125.824ZM338.024 128.799C340.599 126.593 342.707 122.926 342.707 120.65C342.707 117.052 340.427 116.511 325.245 116.511H307.784V124.66V132.808H320.563C329.289 132.808 334.826 131.537 338.024 128.799Z" fill="white"/>
</g>
<defs>
<clipPath id="clip0">
<path d="M0 0H580V580H0V0Z" fill="white"/>
</clipPath>
</defs>
</svg>
