<?xml version="1.0" encoding="UTF-8" standalone="no"?>
<!-- Created with Inkscape (http://www.inkscape.org/) -->

<svg
   xmlns:dc="http://purl.org/dc/elements/1.1/"
   xmlns:cc="http://creativecommons.org/ns#"
   xmlns:rdf="http://www.w3.org/1999/02/22-rdf-syntax-ns#"
   xmlns:svg="http://www.w3.org/2000/svg"
   xmlns="http://www.w3.org/2000/svg"
   xmlns:sodipodi="http://sodipodi.sourceforge.net/DTD/sodipodi-0.dtd"
   xmlns:inkscape="http://www.inkscape.org/namespaces/inkscape"
   version="1.0"
   width="580"
   height="580"
   id="svg2"
   sodipodi:version="0.32"
   inkscape:version="0.91 r13725"
   sodipodi:docname="sikh3.svg"
   inkscape:output_extension="org.inkscape.output.svg.inkscape">
  <metadata
     id="metadata2975">
    <rdf:RDF>
      <cc:Work
         rdf:about="">
        <dc:format>image/svg+xml</dc:format>
        <dc:type
           rdf:resource="http://purl.org/dc/dcmitype/StillImage" />
        <cc:license
           rdf:resource="http://web.resource.org/cc/PublicDomain" />
        <dc:language>en</dc:language>
      </cc:Work>
    </rdf:RDF>
  </metadata>
  <sodipodi:namedview
     inkscape:window-height="1051"
     inkscape:window-width="1920"
     inkscape:pageshadow="2"
     inkscape:pageopacity="0.0"
     guidetolerance="10.0"
     gridtolerance="10.0"
     objecttolerance="10.0"
     borderopacity="1.0"
     bordercolor="#666666"
     pagecolor="#ffffff"
     id="base"
     inkscape:zoom="0.65172414"
     inkscape:cx="322.57458"
     inkscape:cy="258.03005"
     inkscape:window-x="0"
     inkscape:window-y="0"
     inkscape:current-layer="svg2"
     showgrid="false"
     inkscape:window-maximized="1" />
  <defs
     id="defs4">
    <inkscape:perspective
       sodipodi:type="inkscape:persp3d"
       inkscape:vp_x="0 : 290 : 1"
       inkscape:vp_y="0 : 1000 : 0"
       inkscape:vp_z="580 : 290 : 1"
       inkscape:persp3d-origin="290 : 193.33333 : 1"
       id="perspective2441" />
    <inkscape:perspective
       id="perspective2466"
       inkscape:persp3d-origin="372.04724 : 350.78739 : 1"
       inkscape:vp_z="744.09448 : 526.18109 : 1"
       inkscape:vp_y="0 : 1000 : 0"
       inkscape:vp_x="0 : 526.18109 : 1"
       sodipodi:type="inkscape:persp3d" />
    <inkscape:perspective
       id="perspective3333"
       inkscape:persp3d-origin="372.04724 : 350.78739 : 1"
       inkscape:vp_z="744.09448 : 526.18109 : 1"
       inkscape:vp_y="0 : 1000 : 0"
       inkscape:vp_x="0 : 526.18109 : 1"
       sodipodi:type="inkscape:persp3d" />
    <inkscape:perspective
       id="perspective3401"
       inkscape:persp3d-origin="372.04724 : 350.78739 : 1"
       inkscape:vp_z="744.09448 : 526.18109 : 1"
       inkscape:vp_y="0 : 1000 : 0"
       inkscape:vp_x="0 : 526.18109 : 1"
       sodipodi:type="inkscape:persp3d" />
    <inkscape:perspective
       id="perspective3464"
       inkscape:persp3d-origin="372.04724 : 350.78739 : 1"
       inkscape:vp_z="744.09448 : 526.18109 : 1"
       inkscape:vp_y="0 : 1000 : 0"
       inkscape:vp_x="0 : 526.18109 : 1"
       sodipodi:type="inkscape:persp3d" />
    <inkscape:perspective
       id="perspective3581"
       inkscape:persp3d-origin="225 : 150 : 1"
       inkscape:vp_z="450 : 225 : 1"
       inkscape:vp_y="0 : 1000 : 0"
       inkscape:vp_x="0 : 225 : 1"
       sodipodi:type="inkscape:persp3d" />
    <inkscape:perspective
       id="perspective4312"
       inkscape:persp3d-origin="225 : 150 : 1"
       inkscape:vp_z="450 : 225 : 1"
       inkscape:vp_y="0 : 1000 : 0"
       inkscape:vp_x="0 : 225 : 1"
       sodipodi:type="inkscape:persp3d" />
  </defs>
  <g
     id="g1327">
    <path
       d="M 66.275,1.768 C 24.94,1.768 1.704,23.139 1.704,66.804 L 1.704,516.927 C 1.704,557.771 22.599,579.156 63.896,579.156 L 515.92,579.156 C 557.227,579.156 578.149,558.841 578.149,516.927 L 578.149,66.804 C 578.149,24.203 557.227,1.768 514.628,1.768 C 514.624,1.768 66.133,1.625 66.275,1.768 z "
       style="fill:#111;stroke:#eee;stroke-width:3.40799999"
       id="path1329" />
  </g>
  <path
     style="fill:#ffffff"
     d="m 287.38644,43.611218 c -11.44561,17.84306 -31.64569,28.293713 -42.75,46.46875 0.0657,9.839231 -0.0132,20.753562 -5.34375,29.187502 -10.11236,7.1468 -21.69255,12.80504 -29.74418,22.48249 -18.28813,17.17042 -34.61965,38.89739 -36.31832,64.73626 -2.86713,23.47734 -0.52472,48.24247 12.02609,68.65023 12.84377,20.73529 28.74931,40.78423 51.00516,51.84977 8.38341,6.14114 10.77327,17.6775 7.53125,27.34375 -1.37413,4.68585 0.67875,9.96017 6.16138,10.38766 12.21997,5.08654 23.21084,14.00845 30.18237,25.42484 3.7836,6.92515 6.07132,17.44788 -0.375,23.46875 -5.6519,4.11002 -11.62908,-2.50063 -16.73801,-4.41143 -15.80544,-10.26254 -30.20266,-22.26741 -44.93075,-33.98555 -30.28349,-25.03893 -64.03949,-58.08537 -75.73749,-96.44677 -11.75204,-33.38216 -15.04181,-76.40293 1.6875,-109.125 7.54632,-15.72932 20.20223,-27.74026 31.875,-40.46875 2.08972,-3.09975 -2.0885,-5.27342 -4.65625,-3.5 -14.4331,4.3717 -26.13071,14.65225 -36.98836,24.64461 -26.79199,26.66747 -41.645239,69.51353 -39.19914,107.13664 1.308203,52.81572 30.39846,104.57738 62.08354,145.8815 12.40755,17.51187 26.07831,35.31539 31.54146,56.306 -1.2032,4.01646 3.40189,5.74358 5.875,2.75 17.50292,-9.0609 28.32738,-27.45071 46.25,-35.6875 7.90201,-2.20695 14.86551,2.72859 21.21875,6.53125 3.07643,1.19949 10.64963,4.05205 6.6875,8.3125 -7.89299,4.86863 -17.21563,7.26041 -24.64209,13.02713 -14.11707,9.40088 -27.00465,24.41235 -27.01416,42.16037 0.71348,9.39453 11.27457,16.83478 20.125,12.46875 10.38047,-3.68054 16.01902,-16.28436 12.1875,-26.53125 0.24813,-10.45078 11.40075,-15.40444 19.625,-19.125 4.17608,-2.85816 12.38811,-4.39048 13.8125,2.21875 3.09486,10.60326 -0.2955,21.74244 -1.34375,32.28125 -1.50657,7.70956 -6.63723,14.05206 -9.28125,21.0625 -0.0681,9.10873 7.54503,16.10119 14.21875,21.15625 6.69509,5.41599 4.26404,-3.58564 4.625,-7.96875 0,-164.75 0,-329.5 0,-494.250002 -1.21875,1.854167 -2.4375,3.708333 -3.65625,5.5625 z M 250.41769,147.86122 c 8.74918,0.71012 10.94204,11.42464 12.42735,18.43956 8.28382,32.30619 17.08078,61.97718 9.34838,95.29163 -3.34715,12.63122 -5.71857,21.68673 -11.21323,33.55006 -1.85144,4.89002 -6.73063,8.13627 -11.9375,6.09375 -12.52566,-5.35149 -18.10715,-13.75349 -27.23569,-23.51676 -18.12148,-20.12846 -27.68184,-47.19799 -20.17388,-73.95234 4.93644,-22.55993 17.17871,-36.4801 36.02175,-48.70195 4.26308,-2.15106 7.85785,-6.78456 12.76282,-7.20395 z"
     id="path7034"
     sodipodi:nodetypes="cccccccccccccccccccccccccccccccccccccccccccccc"
     inkscape:connector-curvature="0" />
  <path
     sodipodi:nodetypes="cccccccccccccccccccccccccccccccccccccccccccccc"
     id="path3778"
     d="m 292.61356,43.611218 c 11.44561,17.84306 31.64569,28.293713 42.75,46.46875 -0.0657,9.839231 0.0132,20.753562 5.34375,29.187502 10.11236,7.1468 21.69255,12.80504 29.74418,22.48249 18.28813,17.17042 34.61965,38.89739 36.31832,64.73626 2.86713,23.47734 0.52472,48.24247 -12.02609,68.65023 -12.84377,20.73529 -28.74931,40.78423 -51.00516,51.84977 -8.38341,6.14114 -10.77327,17.6775 -7.53125,27.34375 1.37413,4.68585 -0.67875,9.96017 -6.16138,10.38766 -12.21997,5.08654 -23.21084,14.00845 -30.18237,25.42484 -3.7836,6.92515 -6.07132,17.44788 0.375,23.46875 5.6519,4.11002 11.62908,-2.50063 16.73801,-4.41143 15.80544,-10.26254 30.20266,-22.26741 44.93075,-33.98555 30.28349,-25.03893 64.03949,-58.08537 75.73749,-96.44677 11.75204,-33.38216 15.04181,-76.40293 -1.6875,-109.125 -7.54632,-15.72932 -20.20223,-27.74026 -31.875,-40.46875 -2.08972,-3.09975 2.0885,-5.27342 4.65625,-3.5 14.4331,4.3717 26.13071,14.65225 36.98836,24.64461 26.792,26.66747 41.64524,69.51353 39.19914,107.13664 -1.3082,52.81572 -30.39846,104.57738 -62.08354,145.8815 -12.40755,17.51187 -26.07831,35.31539 -31.54146,56.306 1.2032,4.01646 -3.40189,5.74358 -5.875,2.75 -17.50292,-9.0609 -28.32738,-27.45071 -46.25,-35.6875 -7.90201,-2.20695 -14.86551,2.72859 -21.21875,6.53125 -3.07643,1.19949 -10.64963,4.05205 -6.6875,8.3125 7.89299,4.86863 17.21563,7.26041 24.64209,13.02713 14.11707,9.40088 27.00465,24.41235 27.01416,42.16037 -0.71348,9.39453 -11.27457,16.83478 -20.125,12.46875 -10.38047,-3.68054 -16.01902,-16.28436 -12.1875,-26.53125 -0.24813,-10.45078 -11.40075,-15.40444 -19.625,-19.125 -4.17608,-2.85816 -12.38811,-4.39048 -13.8125,2.21875 -3.09486,10.60326 0.2955,21.74244 1.34375,32.28125 1.50657,7.70956 6.63723,14.05206 9.28125,21.0625 0.0681,9.10873 -7.54503,16.10119 -14.21875,21.15625 -6.69509,5.41599 -4.26404,-3.58564 -4.625,-7.96875 0,-164.75 0,-329.5 0,-494.250002 1.21875,1.854167 2.4375,3.708333 3.65625,5.5625 z m 36.96875,104.250002 c -8.74918,0.71012 -10.94204,11.42464 -12.42735,18.43956 -8.28382,32.30619 -17.08078,61.97718 -9.34838,95.29163 3.34715,12.63122 5.71857,21.68673 11.21323,33.55006 1.85144,4.89002 6.73063,8.13627 11.9375,6.09375 12.52566,-5.35149 18.10715,-13.75349 27.23569,-23.51676 18.12148,-20.12846 27.68184,-47.19799 20.17388,-73.95234 -4.93644,-22.55993 -17.17871,-36.4801 -36.02175,-48.70195 -4.26308,-2.15106 -7.85785,-6.78456 -12.76282,-7.20395 z"
     style="fill:#ffffff"
     inkscape:connector-curvature="0" />
</svg>
