<svg width="580" height="580" viewBox="0 0 580 580" fill="none" xmlns="http://www.w3.org/2000/svg">
<g clip-path="url(#clip0)">
<path d="M66.275 1.76802C24.94 1.76802 1.70398 23.139 1.70398 66.804V516.927C1.70398 557.771 22.599 579.156 63.896 579.156H515.92C557.227 579.156 578.149 558.841 578.149 516.927V66.804C578.149 24.203 557.227 1.76802 514.628 1.76802C514.624 1.76802 66.133 1.62502 66.275 1.76802Z" fill="#111111" stroke="#EEEEEE" stroke-width="3.408"/>
<g opacity="0.25">
<path opacity="0.25" d="M449.044 155.936H153.995V450.986H449.044V155.936Z" fill="white" stroke="white" stroke-width="35.171" stroke-linecap="round" stroke-linejoin="round"/>
<path opacity="0.25" d="M449.044 155.936H153.995V450.986H449.044V155.936Z" stroke="white" stroke-width="35.171" stroke-linecap="round" stroke-linejoin="round"/>
</g>
<path opacity="0.25" d="M429.044 135.936H133.995V430.986H429.044V135.936Z" fill="white" stroke="white" stroke-width="35.171" stroke-linecap="round" stroke-linejoin="round"/>
<path d="M429.044 135.936H133.995V430.986H429.044V135.936Z" stroke="white" stroke-width="35.171" stroke-linecap="round" stroke-linejoin="round"/>
</g>
<defs>
<clipPath id="clip0">
<path d="M0 0H580V580H0V0Z" fill="white"/>
</clipPath>
</defs>
</svg>
