<svg width="48" height="48" viewBox="0 0 48 48" fill="none" xmlns="http://www.w3.org/2000/svg">
<path d="M20 32H28V40H20V32Z" fill="white" />
<path fill-rule="evenodd" clip-rule="evenodd" d="M44 32H4V28H44V32Z" fill="white" fill-opacity="0.75" />
<path d="M12 16L20 28H4L12 16Z" fill="white" />
<path d="M36 16L44 28H28L36 16Z" fill="white" />
<path d="M16 12C16 14.2091 14.2091 16 12 16C9.79086 16 8 14.2091 8 12C8 9.79086 9.79086 8 12 8C14.2091 8 16 9.79086 16 12Z" fill="white" />
<path d="M40 12C40 14.2091 38.2091 16 36 16C33.7909 16 32 14.2091 32 12C32 9.79086 33.7909 8 36 8C38.2091 8 40 9.79086 40 12Z" fill="white" />
</svg>