<svg width="48" height="48" viewBox="0 0 48 48" fill="none" xmlns="http://www.w3.org/2000/svg">
<path d="M11.4597 24C10.4609 24 9.60385 24.7672 9.23701 25.8611L9.04647 28.8021V32.0297C9.04647 32.4223 9.10561 32.7971 9.21243 33.1419H4V44H6V36H22V44H23.9999L24 33.1419H18.7876C18.8944 32.7971 18.9535 32.4223 18.9535 32.0297V28.8023L18.763 25.8609C18.3962 24.7673 17.5391 24 16.5403 24H11.4597ZM10.9517 28.0952H11.5233V33.1419H10.9517V28.0952ZM16.4767 28.0952H17.0483V33.1419H16.4767V28.0952Z" fill="white"/>
<path d="M35.9171 4.00003C35.846 4.00072 35.7661 4.01141 35.659 4.03983C35.477 4.09402 35.3245 4.19701 35.1129 4.38674C34.8773 4.59797 34.7453 4.85084 34.6181 5.13111C34.4828 5.42905 34.3146 5.56568 34.0623 5.73828C33.3835 6.20246 32.6801 6.61305 31.9583 6.9844C30.9686 7.49348 29.9586 7.94456 28.9235 8.32311C27.8059 8.7319 26.6715 8.97852 25.441 9.2281C24.7759 9.37338 24.2979 9.44156 23.5816 9.56362C22.734 9.67183 21.7299 9.70128 21.3468 9.9269C21.0333 10.1133 20.093 10.9504 20.0059 12.8833C19.9275 14.9046 20.6423 15.7815 21.179 15.9736C21.3752 16.0438 22.618 16.2577 22.8101 16.3398C23.0452 16.4815 23.2175 16.6076 23.4014 17.0567C23.5394 17.5577 23.6304 17.9528 23.6739 18.459C23.7331 19.1445 23.7177 19.8317 23.7121 20.5188C23.7077 21.0527 23.7137 21.5858 23.8082 22.1124C23.9131 22.6972 24.1735 23.1581 24.6309 23.4739C24.9326 23.6822 25.4961 24.0212 25.9515 23.999C26.2729 23.9608 26.3491 23.4858 26.2998 23.2668C26.2741 23.1525 26.0588 22.1501 25.9464 20.641C25.8445 19.1019 25.9692 17.1385 26.0676 16.8727C26.1757 16.5812 26.3036 16.5083 26.576 16.5688C27.3135 16.7325 28.0292 16.9843 28.734 17.2729C29.2668 17.4911 29.7945 17.7263 30.3191 17.9688C31.134 18.3453 31.9303 18.7675 32.7042 19.2426C33.2593 19.5835 33.7787 19.9773 34.2234 20.4897C34.4206 20.717 34.6233 20.9389 34.8331 21.1511C35.1724 21.4944 35.5751 21.4889 35.9258 21.2732C36.1877 21.1121 36.3793 20.8626 36.5537 20.5961C36.9045 20.0597 37.1479 19.4591 37.3609 18.8428C37.6108 18.12 37.8026 17.3767 37.9657 16.5548C38.1354 15.7522 38.2479 14.9078 38.322 14.1219C38.3997 13.3012 38.4352 12.4775 38.4325 11.6518C38.428 10.2858 38.3453 8.92715 38.131 7.58099C37.9945 6.72342 37.8062 5.88303 37.4574 5.09869C37.3242 4.79902 37.1584 4.52708 36.9125 4.32769C36.6358 4.10335 36.3163 4.02767 35.9858 4.00244C35.9634 4.00073 35.9408 3.9998 35.9171 4.00003V4.00003ZM40.9957 6.64985C40.9612 6.64663 40.9223 6.656 40.903 6.70938C40.8943 6.7531 40.911 6.78781 40.9257 6.80758C41.0553 6.98137 41.1855 7.15472 41.3159 7.32779C41.5758 7.67291 41.7796 8.05833 41.946 8.46849C42.2348 9.17996 42.474 9.88383 42.5711 10.6551C42.6802 11.5201 42.729 12.4399 42.6697 13.3102C42.6322 13.8608 42.5095 14.438 42.4106 14.9783C42.2983 15.5925 42.1324 16.1817 41.9419 16.7716C41.7371 17.4057 41.445 17.9984 41.1322 18.5743C40.9487 18.912 40.7473 19.2372 40.5554 19.569C40.5225 19.6258 40.4956 19.6524 40.4894 19.724C40.4836 19.8765 40.6228 19.9026 40.7234 19.8078C40.7831 19.7556 40.8732 19.6691 40.9261 19.6093C41.2134 19.2844 41.5092 18.9677 41.7805 18.6265C42.6689 17.5099 43.2721 16.2287 43.6632 14.7814C43.7694 14.31 43.8421 13.9649 43.9195 13.4865C43.972 13.1613 44.0002 12.7249 44 12.3745C43.9863 11.9481 43.9539 11.4732 43.8749 11.0374C43.7044 10.0977 43.3775 9.23475 42.8802 8.45469C42.5659 7.96191 42.1794 7.55003 41.7579 7.17776C41.6049 7.04259 41.4542 6.92291 41.2863 6.79667C41.249 6.76707 41.1184 6.69488 41.0624 6.66573C41.0604 6.66888 41.0302 6.65307 40.9957 6.64985V6.64985ZM33.8052 7.27403C33.8103 7.27228 33.8139 7.27223 33.816 7.27403C33.6339 7.79258 33.497 8.32713 33.4047 8.87365C33.3065 9.45359 33.2187 10.0368 33.1515 10.6222C33.0487 11.5213 33.0145 12.4264 33.015 13.3331C33.0158 14.5804 33.0935 15.821 33.2886 17.0497C33.3657 17.5349 33.4666 18.0153 33.5553 18.4981C33.5798 18.6323 33.5998 18.6384 33.622 18.7731L33.6039 18.786C33.4294 18.6498 33.2563 18.5111 33.0802 18.3776C32.37 17.8387 31.6123 17.3973 30.8375 16.9908C30.2807 16.6987 29.7006 16.4765 29.1166 16.2669C28.6011 16.0819 28.0815 15.9104 27.5676 15.7198C27.3161 15.6265 27.0614 15.5286 26.8297 15.3876C26.4508 15.1571 26.1991 14.782 26.0251 14.343C25.7959 13.7651 25.7408 13.2854 25.7845 12.6605C25.8191 12.1648 25.92 12.0732 26.0695 11.6064C26.2538 11.0308 26.6086 10.6304 27.0805 10.3476C27.5753 10.0511 28.1008 9.84089 28.6309 9.64433C29.5106 9.31815 30.3935 9.00305 31.2721 8.67323C32.068 8.37447 32.8258 7.98108 33.5352 7.473C33.6654 7.37959 33.7699 7.28628 33.8052 7.27403V7.27403ZM39.4522 8.03076C39.4107 8.02843 39.3632 8.04806 39.3309 8.13602C39.3224 8.19431 39.3557 8.24543 39.3832 8.27995C39.463 8.38014 39.555 8.46924 39.6266 8.57599C39.9695 9.08671 40.2176 9.65472 40.3888 10.2629C40.5489 10.8318 40.6041 11.423 40.6396 12.0159C40.6835 12.7475 40.6727 13.4771 40.5439 14.1988C40.4129 14.9339 40.2354 15.6556 40.0177 16.364C39.8783 16.8177 39.7022 17.2535 39.4741 17.6597C39.3228 17.9292 39.1607 18.1908 39.0045 18.4569C38.9799 18.499 38.9655 18.5279 38.9556 18.5881C38.9556 18.6706 39.0534 18.7317 39.1727 18.6462C39.2541 18.5942 39.3256 18.5261 39.3721 18.4771C39.8132 18.0129 40.2164 17.5098 40.5656 16.9547C41.1853 15.9691 41.5715 14.8749 41.7524 13.686C41.8638 12.9537 41.872 12.2224 41.7431 11.4922C41.6215 10.8024 41.3828 10.1681 41.024 9.59186C40.7608 9.1694 40.4333 8.81663 40.0822 8.49063C39.9614 8.3785 39.8295 8.2814 39.7 8.18175C39.6699 8.15852 39.5521 8.06248 39.5162 8.04873C39.5 8.04145 39.4772 8.03215 39.4522 8.03076V8.03076ZM34.5444 9.11321C34.641 9.17861 34.7048 9.24148 34.7185 9.25843C35.1091 9.74583 35.2926 10.3018 35.421 10.9298C35.6015 11.8128 35.6394 12.7063 35.5481 13.6051C35.4818 14.2592 35.3306 14.8922 35.1444 15.5154C35.0112 15.9611 34.8495 16.3924 34.6518 16.8064C34.6117 16.8901 34.5651 16.9697 34.5214 17.0513C34.5113 17.0494 34.5013 17.0478 34.4912 17.046C34.4732 16.931 34.4465 16.8167 34.4385 16.7008C34.3982 16.1235 34.1765 14.4465 34.2033 13.0582C34.1765 11.3681 34.508 9.44057 34.5444 9.11321V9.11321Z" fill="white"/>
<path d="M14 20C12.8955 20 12 20.8954 12 22C12 23.1046 12.8955 24 14 24C15.1046 24 16 23.1046 16 22C16 20.8954 15.1046 20 14 20Z" fill="white"/>
</svg>
