<?xml version="1.0" encoding="UTF-8" standalone="no"?>
<!-- Created with Inkscape (http://www.inkscape.org/) -->

<svg
   xmlns:dc="http://purl.org/dc/elements/1.1/"
   xmlns:cc="http://creativecommons.org/ns#"
   xmlns:rdf="http://www.w3.org/1999/02/22-rdf-syntax-ns#"
   xmlns:svg="http://www.w3.org/2000/svg"
   xmlns="http://www.w3.org/2000/svg"
   xmlns:sodipodi="http://sodipodi.sourceforge.net/DTD/sodipodi-0.dtd"
   xmlns:inkscape="http://www.inkscape.org/namespaces/inkscape"
   version="1.0"
   width="580"
   height="580"
   id="svg2"
   sodipodi:version="0.32"
   inkscape:version="0.91 r"
   sodipodi:docname="educational_institution.svg"
   inkscape:output_extension="org.inkscape.output.svg.inkscape">
  <metadata
     id="metadata10">
    <rdf:RDF>
      <cc:Work
         rdf:about="">
        <dc:format>image/svg+xml</dc:format>
        <dc:type
           rdf:resource="http://purl.org/dc/dcmitype/StillImage" />
        <cc:license
           rdf:resource="http://web.resource.org/cc/PublicDomain" />
        <dc:language>en</dc:language>
        <dc:title />
      </cc:Work>
    </rdf:RDF>
  </metadata>
  <sodipodi:namedview
     inkscape:window-height="1004"
     inkscape:window-width="1920"
     inkscape:pageshadow="2"
     inkscape:pageopacity="0.0"
     guidetolerance="10.0"
     gridtolerance="10.0"
     objecttolerance="10.0"
     borderopacity="1.0"
     bordercolor="#666666"
     pagecolor="#ffffff"
     id="base"
     showgrid="false"
     inkscape:zoom="1"
     inkscape:cx="525.34888"
     inkscape:cy="310.43814"
     inkscape:window-x="1680"
     inkscape:window-y="0"
     inkscape:current-layer="svg2"
     inkscape:window-maximized="1" />
  <defs
     id="defs4">
    <inkscape:perspective
       sodipodi:type="inkscape:persp3d"
       inkscape:vp_x="0 : 290 : 1"
       inkscape:vp_y="0 : 1000 : 0"
       inkscape:vp_z="580 : 290 : 1"
       inkscape:persp3d-origin="290 : 193.33333 : 1"
       id="perspective12" />
  </defs>
  <g
     id="g1327">
    <path
       d="M 66.275,1.768 C 24.94,1.768 1.704,23.139 1.704,66.804 L 1.704,516.927 C 1.704,557.771 22.598,579.156 63.896,579.156 L 515.92,579.156 C 557.227,579.156 578.149,558.84 578.149,516.927 L 578.149,66.804 C 578.149,24.203 557.227,1.768 514.627,1.768 C 514.624,1.768 66.133,1.625 66.275,1.768 z"
       style="fill:#111111;stroke:#eeeeee;stroke-width:3.40799999"
       id="path1329" />
  </g>
  <path
     inkscape:connector-curvature="0"
     style="color:#000000;clip-rule:nonzero;display:inline;overflow:visible;visibility:visible;opacity:1;isolation:auto;mix-blend-mode:normal;color-interpolation:sRGB;color-interpolation-filters:linearRGB;solid-color:#000000;solid-opacity:1;fill:#ffffff;fill-opacity:1;fill-rule:nonzero;stroke:none;stroke-width:25;stroke-linecap:round;stroke-linejoin:round;stroke-miterlimit:4;stroke-dasharray:none;stroke-dashoffset:0;stroke-opacity:1;marker:none;color-rendering:auto;image-rendering:auto;shape-rendering:auto;text-rendering:auto;enable-background:accumulate"
     d="m 151.9707,306.31641 c -15.16319,0 -28.17493,9.21233 -33.74414,22.34765 l -2.89258,35.31446 0,38.75586 c 0,4.71422 0.89771,9.21518 2.51954,13.35546 l -79.132817,0 0,26.78907 0,10.71679 0,92.875 24.779038,0 0,-92.875 254.074739,0 0,92.875 24.77513,0 0,-92.875 0.002,0 0,-37.50586 -79.13281,0 c 1.62182,-4.14028 2.51953,-8.64126 2.51953,-13.35546 l 0,-38.75391 -2.89258,-35.31836 c -5.5692,-13.13175 -18.58094,-22.3457 -33.74414,-22.3457 l -77.13086,0 z m -7.71289,49.17382 8.67774,0 0,60.59961 -8.67774,0 z m 83.87891,0 8.67773,0 0,60.59961 -8.67773,0 z"
     id="path4178"
     sodipodi:nodetypes="sccsccccccccccccccsccscscccccccccc" />
  <path
     inkscape:connector-curvature="0"
     style="color:#000000;clip-rule:nonzero;display:inline;overflow:visible;visibility:visible;opacity:1;isolation:auto;mix-blend-mode:normal;color-interpolation:sRGB;color-interpolation-filters:linearRGB;solid-color:#000000;solid-opacity:1;fill:#ffffff;fill-opacity:1;fill-rule:nonzero;stroke:none;stroke-width:25;stroke-linecap:round;stroke-linejoin:round;stroke-miterlimit:4;stroke-dasharray:none;stroke-dashoffset:0;stroke-opacity:1;marker:none;color-rendering:auto;image-rendering:auto;shape-rendering:auto;text-rendering:auto;enable-background:accumulate"
     d="m 190.53711,201.07227 c -24.76076,0 -44.83397,20.07127 -44.83399,44.83203 0,24.76075 20.07323,44.83203 44.83399,44.83203 24.76076,0 44.83203,-20.07128 44.83203,-44.83203 0,-24.76076 -20.07127,-44.83203 -44.83203,-44.83203 z"
     id="path4176" />
  <rect
     style="color:#000000;clip-rule:nonzero;display:inline;overflow:visible;visibility:visible;opacity:0;isolation:auto;mix-blend-mode:normal;color-interpolation:sRGB;color-interpolation-filters:linearRGB;solid-color:#000000;solid-opacity:1;fill:#ffffff;fill-opacity:1;fill-rule:nonzero;stroke:none;stroke-width:29;stroke-linecap:round;stroke-linejoin:round;stroke-miterlimit:10;stroke-dasharray:none;stroke-dashoffset:0;stroke-opacity:1;marker:none;color-rendering:auto;image-rendering:auto;shape-rendering:auto;text-rendering:auto;enable-background:accumulate"
     id="rect4162"
     width="112.5"
     height="178"
     x="608.5"
     y="263.5" />
  <ellipse
     style="color:#000000;clip-rule:nonzero;display:inline;overflow:visible;visibility:visible;opacity:0;isolation:auto;mix-blend-mode:normal;color-interpolation:sRGB;color-interpolation-filters:linearRGB;solid-color:#000000;solid-opacity:1;fill:#ffffff;fill-opacity:1;fill-rule:nonzero;stroke:none;stroke-width:29;stroke-linecap:round;stroke-linejoin:round;stroke-miterlimit:10;stroke-dasharray:none;stroke-dashoffset:0;stroke-opacity:1;marker:none;color-rendering:auto;image-rendering:auto;shape-rendering:auto;text-rendering:auto;enable-background:accumulate"
     id="path4164"
     cx="462.75"
     cy="372.25"
     rx="234.25"
     ry="103.75" />
  <path
     d="m 321.61125,152.997 c 2.76999,0 5.35661,-0.68297 7.7403,-2.02727 2.38266,-1.34431 4.07205,-2.97807 5.06921,-4.91263 0.99818,-1.93456 1.50088,-4.45011 1.50088,-7.54561 l 0,-3.97728 c -3.41999,1.22172 -6.99656,2.29922 -10.70395,3.23663 -5.05066,1.3443 -8.24815,2.67418 -9.59245,3.97728 -1.38551,1.3443 -2.06641,2.87093 -2.06641,4.58196 0,1.95413 0.68297,3.5539 2.04684,4.79622 1.3649,1.24232 3.35715,1.8707 6.00558,1.8707 z"
     id="path21"
     inkscape:connector-curvature="0"
     style="fill:#ffffff" />
  <path
     d="m 419.61967,189.06551 c -3.38084,0 -6.12816,1.23923 -8.26669,3.74448 -2.13852,2.50524 -3.21705,6.31255 -3.21705,11.40442 0,5.58015 1.06102,9.62233 3.15937,12.12654 2.09629,2.50524 4.73751,3.76302 7.95353,3.76302 2.97395,0 5.47198,-1.24026 7.48792,-3.70327 2.01594,-2.46507 3.03988,-6.61335 3.03988,-12.43867 0,-5.13204 -0.98685,-8.88578 -2.96365,-11.28802 -1.97473,-2.40429 -4.38315,-3.6085 -7.19331,-3.6085 z"
     id="path23"
     inkscape:connector-curvature="0"
     style="fill:#ffffff" />
  <path
     d="m 547.71781,77.000114 -102.90869,0 -21.49648,-50.741503 c -1.64303,-3.878391 -5.59868,-6.07357 -9.57802,-5.661523 -3.98759,-0.413077 -7.94015,1.787253 -9.58009,5.670794 l -21.42953,50.733262 -101.13276,0 c -3.44471,0 -6.23839,2.792647 -6.23839,6.239419 l 0,166.567857 c 0,3.44574 2.79368,6.23942 6.23839,6.23942 l 30.66555,0 -17.26373,41.79597 c -1.97371,4.77665 0.29976,10.24863 5.07745,12.22131 1.16815,0.48415 4.14528,0.71078 5.33506,0.71078 3.67649,0 9.82867,-2.1787 11.31822,-5.7872 l 20.55498,-48.94086 150.86474,0 19.95245,48.94086 c 1.97267,4.77665 11.52411,7.05012 16.30077,5.07642 4.77562,-1.97268 10.05012,-7.44466 8.07641,-12.22131 l -17.2627,-41.79597 32.50534,0 c 3.44677,0 6.24045,-2.79368 6.24045,-6.23942 l 0,-166.568887 c 0,-3.445742 -2.79368,-6.239419 -6.23942,-6.239419 z m -133.97186,-19.840878 7.23588,19.841908 -14.44189,0 z M 288.62382,148.16163 c 0,-4.92911 1.45555,-8.98777 4.34812,-12.16569 2.89051,-3.17791 8.22651,-5.52966 16.00699,-7.07793 9.32771,-1.87378 15.3611,-3.18409 18.13212,-3.93917 2.76895,-0.75301 5.71715,-1.74089 8.81162,-2.96158 0,-3.05636 -0.62734,-5.19385 -1.89027,-6.41557 -1.26395,-1.22172 -3.49209,-1.83258 -6.66897,-1.83258 -4.07309,0 -7.12635,0.64588 -9.16393,1.95104 -1.58844,1.01776 -2.88226,2.93996 -3.85984,5.75115 l -23.7648,-2.51555 c 0.89414,-4.15446 2.189,-7.42302 3.87942,-9.80671 1.68939,-2.38267 4.13386,-4.44805 7.31074,-6.19925 2.28068,-1.26395 5.40502,-2.23226 9.39673,-2.9245 3.9917,-0.692239 8.32231,-1.05278 12.96505,-1.05278 7.45392,0 13.43478,0.432649 17.957,1.26704 4.52118,0.83543 8.2945,2.57736 11.30862,5.22476 2.11792,1.83361 3.78877,4.4192 5.01049,7.77944 1.22275,3.36127 1.83155,6.57627 1.83155,9.63159 l 0,28.64035 c 0,3.05429 0.19675,5.46374 0.58511,7.19433 0.34405,1.54209 1.07441,3.48695 2.14676,5.79029 l -0.009,0.83749 -22.94071,0 c -0.93843,-1.66982 -1.54826,-2.94511 -1.83258,-3.82071 -0.28534,-0.8756 -0.57377,-2.25904 -0.85808,-4.13386 -3.25826,3.13671 -6.51034,5.38237 -9.72843,6.72667 -4.39963,1.79343 -9.49974,2.69066 -15.32505,2.69066 -7.73824,0 -13.61196,-1.79652 -17.62427,-5.3803 -4.01231,-3.58583 -6.02412,-8.00401 -6.02412,-13.25863 z m 162.46284,74.0479 c -2.36309,5.39678 -5.63268,9.41939 -9.80775,12.08739 -4.17403,2.66903 -8.80853,4.01643 -13.90039,4.01643 -4.3574,0 -8.34498,-0.95286 -11.97099,-2.82665 -2.72878,-1.46688 -5.69243,-4.21523 -8.90846,-8.24711 l 0,9.59142 -23.27961,0 0,-89.56662 25.11116,0 0,31.03846 c 2.48464,-2.60723 5.30407,-4.56445 8.46138,-5.86858 3.15731,-1.30412 6.64117,-1.94898 10.46908,-1.95001 7.90306,0.001 14.44224,2.83694 19.61446,8.5201 5.17222,5.68212 7.75884,13.83756 7.75884,24.46734 0,7.08926 -1.18566,13.34104 -3.54772,18.73783 z m 74.63197,-66.73613 c -2.97394,3.60438 -6.76168,6.40732 -11.38691,8.40266 -4.62213,1.99637 -10.49483,2.98322 -17.62427,2.98322 -6.88427,0 -12.61275,-0.64691 -17.19574,-1.93044 -4.58093,-1.28249 -8.53349,-3.34788 -11.83193,-6.21882 -3.30049,-2.87196 -5.88712,-6.24869 -7.7609,-10.11883 -1.87275,-3.87015 -2.80707,-9.00735 -2.80707,-15.40334 0,-6.67928 1.13107,-12.22955 3.41175,-16.66936 1.66879,-3.25826 3.95153,-6.18688 6.8441,-8.7735 2.89154,-2.58663 5.87372,-4.5078 8.93008,-5.77072 4.8467,-1.996366 11.06037,-3.00279 18.63791,-3.00279 10.5896,0 18.65336,1.90469 24.21496,5.69243 5.55851,3.78877 9.47604,9.31946 11.71758,16.61063 l -23.41559,3.1192 c -0.73344,-2.76999 -2.06229,-4.85288 -3.99685,-6.25899 -1.93456,-1.40611 -4.53973,-2.10556 -7.79696,-2.10556 -4.11532,0 -7.43744,1.47306 -9.98286,4.42641 -2.54542,2.95335 -3.82071,7.42611 -3.82071,13.41315 0,5.33498 1.25572,9.37716 3.78259,12.14611 2.52379,2.76999 5.76042,4.17301 9.67074,4.17301 3.25723,0 5.98807,-0.84573 8.20797,-2.51555 2.21887,-1.66982 3.89075,-4.2379 4.99092,-7.70115 l 23.62882,2.68963 c -1.30619,4.93117 -3.44368,9.20719 -6.41763,12.8126 z"
     id="path25"
     inkscape:connector-curvature="0"
     style="fill:#ffffff"
     sodipodi:nodetypes="scscccsssscccscccccccssssccccccccccscccccsscccsscccccccscccccscccccccsccscccscccscccscccsssscscccc" />
</svg>
