<svg width="12" height="12" viewBox="0 0 12 12" fill="none" xmlns="http://www.w3.org/2000/svg">
<path fill-rule="evenodd" clip-rule="evenodd" d="M6.5 2C6.77614 2 7 1.77614 7 1.5C7 1.22386 6.77614 1 6.5 1C6.22386 1 6 1.22386 6 1.5C6 1.77614 6.22386 2 6.5 2ZM6.5 2H7C7.27614 2 7.5 2.22386 7.5 2.5V3.25C7.5 3.38807 7.38807 3.5 7.25 3.5C7.11193 3.5 7 3.38807 7 3.25V4H6V3.25C6 3.38807 5.88807 3.5 5.75 3.5C5.61193 3.5 5.5 3.38807 5.5 3.25V2.5C5.5 2.22386 5.72386 2 6 2H6.5Z" fill="white"/>
<path fill-rule="evenodd" clip-rule="evenodd" d="M3.5 2C3.77614 2 4 1.77614 4 1.5C4 1.22386 3.77614 1 3.5 1C3.22386 1 3 1.22386 3 1.5C3 1.77614 3.22386 2 3.5 2ZM3.5 2H4C4.27614 2 4.5 2.22386 4.5 2.5V3.25C4.5 3.38807 4.38807 3.5 4.25 3.5C4.11193 3.5 4 3.38807 4 3.25V4H3V3.25C3 3.38807 2.88807 3.5 2.75 3.5C2.61193 3.5 2.5 3.38807 2.5 3.25V2.5C2.5 2.22386 2.72386 2 3 2H3.5Z" fill="white"/>
<path fill-rule="evenodd" clip-rule="evenodd" d="M9.5 2C9.77614 2 10 1.77614 10 1.5C10 1.22386 9.77614 1 9.5 1C9.22386 1 9 1.22386 9 1.5C9 1.77614 9.22386 2 9.5 2ZM9.5 2H10C10.2761 2 10.5 2.22386 10.5 2.5V3.25C10.5 3.38807 10.3881 3.5 10.25 3.5C10.1119 3.5 10 3.38807 10 3.25V4H9V3.25C9 3.38807 8.88807 3.5 8.75 3.5C8.61193 3.5 8.5 3.38807 8.5 3.25V2.5C8.5 2.22386 8.72386 2 9 2H9.5Z" fill="white"/>
<path fill-rule="evenodd" clip-rule="evenodd" d="M4 5.5C4 5.77614 3.77614 6 3.5 6C3.22386 6 3 5.77614 3 5.5C3 5.22386 3.22386 5 3.5 5C3.77614 5 4 5.22386 4 5.5ZM4 8V7.25C4 7.38807 4.11193 7.5 4.25 7.5C4.38807 7.5 4.5 7.38807 4.5 7.25V6.5C4.5 6.22386 4.27614 6 4 6H3.5H3C2.72386 6 2.5 6.22386 2.5 6.5V7.25C2.5 7.38807 2.61193 7.5 2.75 7.5C2.88807 7.5 3 7.38807 3 7.25V8H1V11H2V9H5V11H6V8H4Z" fill="white"/>
</svg>
