<?xml version="1.0" encoding="UTF-8" standalone="no"?>
<!-- Created with Inkscape (http://www.inkscape.org/) -->

<svg
   xmlns:dc="http://purl.org/dc/elements/1.1/"
   xmlns:cc="http://creativecommons.org/ns#"
   xmlns:rdf="http://www.w3.org/1999/02/22-rdf-syntax-ns#"
   xmlns:svg="http://www.w3.org/2000/svg"
   xmlns="http://www.w3.org/2000/svg"
   xmlns:sodipodi="http://sodipodi.sourceforge.net/DTD/sodipodi-0.dtd"
   xmlns:inkscape="http://www.inkscape.org/namespaces/inkscape"
   version="1.0"
   width="580"
   height="580"
   id="svg2"
   sodipodi:version="0.32"
   inkscape:version="0.91 r"
   sodipodi:docname="foundation.svg"
   inkscape:output_extension="org.inkscape.output.svg.inkscape">
  <metadata
     id="metadata10">
    <rdf:RDF>
      <cc:Work
         rdf:about="">
        <dc:format>image/svg+xml</dc:format>
        <dc:type
           rdf:resource="http://purl.org/dc/dcmitype/StillImage" />
        <cc:license
           rdf:resource="http://web.resource.org/cc/PublicDomain" />
        <dc:language>en</dc:language>
        <dc:title />
      </cc:Work>
    </rdf:RDF>
  </metadata>
  <sodipodi:namedview
     inkscape:window-height="1004"
     inkscape:window-width="1920"
     inkscape:pageshadow="2"
     inkscape:pageopacity="0.0"
     guidetolerance="10.0"
     gridtolerance="10.0"
     objecttolerance="10.0"
     borderopacity="1.0"
     bordercolor="#666666"
     pagecolor="#ffffff"
     id="base"
     showgrid="false"
     inkscape:zoom="0.35355339"
     inkscape:cx="533.66769"
     inkscape:cy="269.27074"
     inkscape:window-x="1680"
     inkscape:window-y="0"
     inkscape:current-layer="svg2"
     inkscape:window-maximized="1" />
  <defs
     id="defs4">
    <inkscape:perspective
       sodipodi:type="inkscape:persp3d"
       inkscape:vp_x="0 : 290 : 1"
       inkscape:vp_y="0 : 1000 : 0"
       inkscape:vp_z="580 : 290 : 1"
       inkscape:persp3d-origin="290 : 193.33333 : 1"
       id="perspective12" />
  </defs>
  <g
     id="g1327">
    <path
       d="M 66.275,1.768 C 24.94,1.768 1.704,23.139 1.704,66.804 L 1.704,516.927 C 1.704,557.771 22.598,579.156 63.896,579.156 L 515.92,579.156 C 557.227,579.156 578.149,558.84 578.149,516.927 L 578.149,66.804 C 578.149,24.203 557.227,1.768 514.627,1.768 C 514.624,1.768 66.133,1.625 66.275,1.768 z"
       style="fill:#111111;stroke:#eeeeee;stroke-width:3.40799999"
       id="path1329" />
  </g>
  <path
     inkscape:connector-curvature="0"
     style="color:#000000;clip-rule:nonzero;display:inline;overflow:visible;visibility:visible;opacity:1;isolation:auto;mix-blend-mode:normal;color-interpolation:sRGB;color-interpolation-filters:linearRGB;solid-color:#000000;solid-opacity:1;fill:#ffffff;fill-opacity:1;fill-rule:nonzero;stroke:none;stroke-width:25;stroke-linecap:round;stroke-linejoin:round;stroke-miterlimit:4;stroke-dasharray:none;stroke-dashoffset:0;stroke-opacity:1;marker:none;color-rendering:auto;image-rendering:auto;shape-rendering:auto;text-rendering:auto;enable-background:accumulate"
     d="m 132.01314,328.01578 c -13.09843,0 -24.33837,7.95789 -29.14922,19.30458 l -2.4987,30.5057 0,33.47851 c 0,4.07228 0.77547,7.96035 2.17645,11.53685 l -68.357338,0 0,23.14121 0,9.2575 0,80.22826 21.40489,0 0,-80.22826 219.477518,0 0,80.22826 21.40151,0 0,-80.22826 0.003,0 0,-32.39871 -68.35734,0 c 1.40098,-3.5765 2.17646,-7.46459 2.17646,-11.53685 l 0,-33.47681 -2.49871,-30.50909 c -4.81084,-11.3436 -16.05078,-19.30289 -29.14922,-19.30289 l -66.62799,0 z m -6.66263,42.47785 7.4961,0 0,52.34779 -7.4961,0 z m 72.45717,0 7.49609,0 0,52.34779 -7.49609,0 z"
     id="path4178"
     sodipodi:nodetypes="sccsccccccccccccccsccscscccccccccc" />
  <path
     inkscape:connector-curvature="0"
     style="color:#000000;clip-rule:nonzero;display:inline;overflow:visible;visibility:visible;opacity:1;isolation:auto;mix-blend-mode:normal;color-interpolation:sRGB;color-interpolation-filters:linearRGB;solid-color:#000000;solid-opacity:1;fill:#ffffff;fill-opacity:1;fill-rule:nonzero;stroke:none;stroke-width:25;stroke-linecap:round;stroke-linejoin:round;stroke-miterlimit:4;stroke-dasharray:none;stroke-dashoffset:0;stroke-opacity:1;marker:none;color-rendering:auto;image-rendering:auto;shape-rendering:auto;text-rendering:auto;enable-background:accumulate"
     d="m 165.32798,237.10267 c -21.3891,0 -38.72894,17.33818 -38.72897,38.72728 0,21.3891 17.33987,38.72728 38.72897,38.72728 21.38911,0 38.72728,-17.33818 38.72728,-38.72728 0,-21.3891 -17.33817,-38.72728 -38.72728,-38.72728 z"
     id="path4176" />
  <path
     style="fill:#ffffff"
     inkscape:connector-curvature="0"
     id="path19"
     d="m 477.782,248.04 -87.089,40.128 c 0,0 -10.245,5.977 -27.322,0 l -140.876,-56.35 c 0,0 -20.208,-12.713 5.407,-24.667 l 103.026,21.25 45.251,-11.1 -68.305,-4.269 c 0,0 -22.199,-16.223 -0.854,-31.59 l 71.721,0 c 0,0 31.591,-17.93 77.696,-9.392 l 104.07083,-5.977 0,96.479 z"
     sodipodi:nodetypes="cccccccccccccc" />
  <g
     id="g21"
     transform="matrix(1.4292309,0,0,1,-139.75414,-8)">
    <path
       style="fill:#ffffff"
       inkscape:connector-curvature="0"
       id="path23"
       d="m 313.322,34.67 0,4.85 c -10.058,1.222 -17.78,4.398 -22.968,9.472 -5.78,5.653 -8.711,12.517 -8.711,20.402 0,7.946 2.969,14.539 8.823,19.595 5.223,4.512 12.908,7.891 22.856,10.075 l 0,40.397 c -4.313,-0.943 -7.901,-2.905 -10.695,-5.862 -3.543,-3.751 -5.932,-9.191 -7.103,-16.172 -0.053,-0.315 -0.35,-0.529 -0.666,-0.483 l -15.361,2.313 c -0.305,0.046 -0.523,0.321 -0.498,0.629 0.806,9.607 4.407,17.193 10.702,22.548 5.64,4.798 13.58,7.919 23.621,9.309 l 0,6.782 c 0,4.357 3.534,7.89 7.892,7.89 4.358,0 7.891,-3.532 7.891,-7.89 l 0,-6.963 c 10.109,-1.256 18.661,-4.736 23.941,-9.839 6.518,-6.301 9.822,-13.859 9.822,-22.463 0,-8.425 -3.024,-15.333 -8.991,-20.533 -4.893,-4.263 -13.61,-7.762 -24.772,-9.985 l 0,-36.171 c 3.214,0.97 6.307,2.351 8.101,4.124 2.802,2.768 4.669,6.59 5.553,11.361 0.057,0.305 0.342,0.512 0.648,0.475 l 15.959,-1.951 c 0.16,-0.021 0.306,-0.104 0.401,-0.234 0.096,-0.131 0.134,-0.294 0.105,-0.453 -1.442,-8.01 -5.046,-14.33 -10.712,-18.786 -4.384,-3.446 -11.528,-6.029 -20.056,-7.319 l 0,-5.118 c 0,-4.357 -3.533,-7.89 -7.891,-7.89 -4.358,0 -7.891,3.533 -7.891,7.89 z m 0,50.43 c -4.188,-1.413 -7.619,-3.23 -10.232,-5.424 -3.26,-2.737 -4.911,-6.536 -4.911,-11.294 0,-4.154 1.607,-7.868 4.778,-11.04 2.535,-2.536 6.015,-4.363 10.365,-5.455 l 0,33.213 z m 15.782,17.896 c 6.526,2.003 10.663,3.937 12.576,5.872 2.804,2.834 4.226,6.647 4.226,11.331 0,5.346 -1.891,9.834 -5.619,13.34 -2.73,2.568 -7.015,4.342 -11.183,5.422 l 0,-35.965 z" />
  </g>
</svg>
