<svg width="580" height="580" viewBox="0 0 580 580" fill="none" xmlns="http://www.w3.org/2000/svg">
<g clip-path="url(#clip0)">
<path d="M66.2751 1.7679C24.9401 1.7679 1.7041 23.1389 1.7041 66.8039V516.927C1.7041 557.771 22.5981 579.156 63.8961 579.156H515.92C557.227 579.156 578.149 558.84 578.149 516.927V66.8039C578.149 24.2029 557.227 1.7679 514.627 1.7679C514.624 1.7679 66.1331 1.6249 66.2751 1.7679Z" fill="#111111" stroke="#EEEEEE" stroke-width="3.408"/>
<path d="M132.013 328.016C118.915 328.016 107.675 335.974 102.864 347.32L100.365 377.826V411.305C100.365 415.377 101.141 419.265 102.542 422.842H34.1843V445.983V455.24V535.468H55.5892V455.24H275.067V535.468H296.468V455.24H296.471V422.842H228.114C229.515 419.265 230.29 415.377 230.29 411.305V377.828L227.792 347.319C222.981 335.975 211.741 328.016 198.642 328.016H132.014H132.013ZM125.351 370.494H132.847V422.842H125.351V370.494ZM197.808 370.494H205.304V422.842H197.808V370.494Z" fill="white"/>
<path d="M165.328 237.103C143.939 237.103 126.599 254.441 126.599 275.83C126.599 297.219 143.939 314.557 165.328 314.557C186.717 314.557 204.055 297.219 204.055 275.83C204.055 254.441 186.717 237.103 165.328 237.103Z" fill="white"/>
<path d="M477.782 248.04L390.693 288.168C390.693 288.168 380.448 294.145 363.371 288.168L222.495 231.818C222.495 231.818 202.287 219.105 227.902 207.151L330.928 228.401L376.179 217.301L307.874 213.032C307.874 213.032 285.675 196.809 307.02 181.442H378.741C378.741 181.442 410.332 163.512 456.437 172.05L560.508 166.073V262.552L477.782 248.04Z" fill="white"/>
<path d="M308.055 26.67V31.52C293.68 32.742 282.644 35.918 275.229 40.992C266.968 46.645 262.779 53.509 262.779 61.394C262.779 69.34 267.022 75.933 275.389 80.989C282.854 85.501 293.837 88.88 308.055 91.064V131.461C301.891 130.518 296.763 128.556 292.77 125.599C287.706 121.848 284.292 116.408 282.618 109.427C282.542 109.112 282.118 108.898 281.666 108.944L259.712 111.257C259.276 111.303 258.964 111.578 259 111.886C260.152 121.493 265.298 129.079 274.295 134.434C282.356 139.232 293.704 142.353 308.055 143.743V150.525C308.055 154.882 313.106 158.415 319.335 158.415C325.563 158.415 330.613 154.883 330.613 150.525V143.562C345.061 142.306 357.284 138.826 364.83 133.723C374.146 127.422 378.868 119.864 378.868 111.26C378.868 102.835 374.546 95.927 366.018 90.727C359.025 86.464 346.566 82.965 330.613 80.742V44.571C335.206 45.541 339.627 46.922 342.191 48.695C346.196 51.463 348.864 55.285 350.128 60.056C350.209 60.361 350.616 60.568 351.054 60.531L373.863 58.58C374.092 58.559 374.3 58.476 374.436 58.346C374.573 58.215 374.628 58.052 374.586 57.893C372.525 49.883 367.374 43.563 359.276 39.107C353.01 35.661 342.8 33.078 330.611 31.788V26.67C330.611 22.313 325.562 18.78 319.333 18.78C313.105 18.78 308.055 22.313 308.055 26.67V26.67ZM308.055 77.1C302.07 75.687 297.166 73.87 293.431 71.676C288.772 68.939 286.412 65.14 286.412 60.382C286.412 56.228 288.709 52.514 293.241 49.342C296.864 46.806 301.838 44.979 308.055 43.887V77.1V77.1ZM330.611 94.996C339.939 96.999 345.851 98.933 348.585 100.868C352.593 103.702 354.625 107.515 354.625 112.199C354.625 117.545 351.923 122.033 346.595 125.539C342.693 128.107 336.569 129.881 330.611 130.961V94.996V94.996Z" fill="white"/>
</g>
<defs>
<clipPath id="clip0">
<path d="M0 0H580V580H0V0Z" fill="white"/>
</clipPath>
</defs>
</svg>
