<svg width="12" height="12" viewBox="0 0 12 12" fill="none" xmlns="http://www.w3.org/2000/svg">
<path d="M3 4H5V5H3V4Z" fill="white"/>
<path d="M3 6H5V7H3V6Z" fill="white"/>
<path d="M3 8H5V9H3V8Z" fill="white"/>
<path fill-rule="evenodd" clip-rule="evenodd" d="M7 2H1V11H11V10H7V2ZM6 10V3H2V10H6Z" fill="white"/>
<path opacity="0.5" d="M9 8.91465C9.15639 8.96992 9.32468 9 9.5 9C9.67532 9 9.84361 8.96992 10 8.91465V10H9V8.91465Z" fill="white"/>
<path opacity="0.8" d="M9.5 4C8.94772 4 8.5 4.44772 8.5 5V5.88195C8.19313 6.15661 8 6.55575 8 7V7.5C8 8.32843 8.67157 9 9.5 9C10.3284 9 11 8.32843 11 7.5V7C11 6.55575 10.8069 6.15661 10.5 5.88195V5C10.5 4.44772 10.0523 4 9.5 4Z" fill="white"/>
</svg>
