<?xml version="1.0" encoding="UTF-8" standalone="no"?>
<!-- Created with Inkscape (http://www.inkscape.org/) -->

<svg
   xmlns:dc="http://purl.org/dc/elements/1.1/"
   xmlns:cc="http://creativecommons.org/ns#"
   xmlns:rdf="http://www.w3.org/1999/02/22-rdf-syntax-ns#"
   xmlns:svg="http://www.w3.org/2000/svg"
   xmlns="http://www.w3.org/2000/svg"
   xmlns:sodipodi="http://sodipodi.sourceforge.net/DTD/sodipodi-0.dtd"
   xmlns:inkscape="http://www.inkscape.org/namespaces/inkscape"
   version="1.0"
   width="580"
   height="580"
   id="svg2"
   sodipodi:version="0.32"
   inkscape:version="0.91 r"
   sodipodi:docname="quango.svg"
   inkscape:output_extension="org.inkscape.output.svg.inkscape">
  <metadata
     id="metadata10">
    <rdf:RDF>
      <cc:Work
         rdf:about="">
        <dc:format>image/svg+xml</dc:format>
        <dc:type
           rdf:resource="http://purl.org/dc/dcmitype/StillImage" />
        <cc:license
           rdf:resource="http://web.resource.org/cc/PublicDomain" />
        <dc:language>en</dc:language>
        <dc:title></dc:title>
      </cc:Work>
    </rdf:RDF>
  </metadata>
  <sodipodi:namedview
     inkscape:window-height="1004"
     inkscape:window-width="1920"
     inkscape:pageshadow="2"
     inkscape:pageopacity="0.0"
     guidetolerance="10.0"
     gridtolerance="10.0"
     objecttolerance="10.0"
     borderopacity="1.0"
     bordercolor="#666666"
     pagecolor="#ffffff"
     id="base"
     showgrid="false"
     inkscape:zoom="0.25"
     inkscape:cx="722.92684"
     inkscape:cy="407.2422"
     inkscape:window-x="1680"
     inkscape:window-y="0"
     inkscape:current-layer="svg2"
     inkscape:window-maximized="1" />
  <defs
     id="defs4">
    <inkscape:perspective
       sodipodi:type="inkscape:persp3d"
       inkscape:vp_x="0 : 290 : 1"
       inkscape:vp_y="0 : 1000 : 0"
       inkscape:vp_z="580 : 290 : 1"
       inkscape:persp3d-origin="290 : 193.33333 : 1"
       id="perspective12" />
  </defs>
  <g
     id="g1327">
    <path
       d="M 66.275,1.768 C 24.94,1.768 1.704,23.139 1.704,66.804 L 1.704,516.927 C 1.704,557.771 22.598,579.156 63.896,579.156 L 515.92,579.156 C 557.227,579.156 578.149,558.84 578.149,516.927 L 578.149,66.804 C 578.149,24.203 557.227,1.768 514.627,1.768 C 514.624,1.768 66.133,1.625 66.275,1.768 z"
       style="fill:#111111;stroke:#eeeeee;stroke-width:3.40799999"
       id="path1329" />
  </g>
  <path
     inkscape:connector-curvature="0"
     style="color:#000000;clip-rule:nonzero;display:inline;overflow:visible;visibility:visible;opacity:1;isolation:auto;mix-blend-mode:normal;color-interpolation:sRGB;color-interpolation-filters:linearRGB;solid-color:#000000;solid-opacity:1;fill:#ffffff;fill-opacity:1;fill-rule:nonzero;stroke:none;stroke-width:25;stroke-linecap:round;stroke-linejoin:round;stroke-miterlimit:4;stroke-dasharray:none;stroke-dashoffset:0;stroke-opacity:1;marker:none;color-rendering:auto;image-rendering:auto;shape-rendering:auto;text-rendering:auto;enable-background:accumulate"
     d="m 143.29087,308.48637 c -15.16319,0 -28.17493,9.21233 -33.74414,22.34765 l -2.89258,35.31446 0,38.75586 c 0,4.71422 0.89771,9.21518 2.51954,13.35546 l -79.132816,0 0,26.78907 0,10.71679 0,92.875 24.779038,0 0,-92.875 254.074738,0 0,92.875 24.77513,0 0,-92.875 0.002,0 0,-37.50586 -79.13281,0 c 1.62182,-4.14028 2.51953,-8.64126 2.51953,-13.35546 l 0,-38.75391 -2.89258,-35.31836 c -5.5692,-13.13175 -18.58094,-22.3457 -33.74414,-22.3457 l -77.13086,0 z m -7.71289,49.17382 8.67774,0 0,60.59961 -8.67774,0 z m 83.87891,0 8.67773,0 0,60.59961 -8.67773,0 z"
     id="path4178"
     sodipodi:nodetypes="sccsccccccccccccccsccscscccccccccc" />
  <path
     inkscape:connector-curvature="0"
     style="color:#000000;clip-rule:nonzero;display:inline;overflow:visible;visibility:visible;opacity:1;isolation:auto;mix-blend-mode:normal;color-interpolation:sRGB;color-interpolation-filters:linearRGB;solid-color:#000000;solid-opacity:1;fill:#ffffff;fill-opacity:1;fill-rule:nonzero;stroke:none;stroke-width:25;stroke-linecap:round;stroke-linejoin:round;stroke-miterlimit:4;stroke-dasharray:none;stroke-dashoffset:0;stroke-opacity:1;marker:none;color-rendering:auto;image-rendering:auto;shape-rendering:auto;text-rendering:auto;enable-background:accumulate"
     d="m 181.85728,203.24223 c -24.76076,0 -44.83397,20.07127 -44.83399,44.83203 0,24.76075 20.07323,44.83203 44.83399,44.83203 24.76076,0 44.83203,-20.07128 44.83203,-44.83203 0,-24.76076 -20.07127,-44.83203 -44.83203,-44.83203 z"
     id="path4176" />
  <g
     id="g15"
     transform="matrix(1.0666685,0,0,1.0666685,-28.180927,-20.362751)">
    <circle
       style="fill:#ffffff"
       id="circle17"
       r="30.958"
       cy="113.324"
       cx="396.18799" />
    <circle
       style="fill:#ffffff"
       id="circle19"
       r="30.958"
       cy="76.705002"
       cx="294.32599" />
    <circle
       style="fill:#ffffff"
       id="circle21"
       r="30.958"
       cy="76.705002"
       cx="498.04901" />
    <path
       style="fill:#ffffff"
       inkscape:connector-curvature="0"
       id="path23"
       d="m 524.68,118.422 -53.262,0 c -13.973,0 -25.298,11.326 -25.298,25.298 l 0,26.75 c -3.847,-9.069 -12.831,-15.429 -23.302,-15.429 l -53.263,0 c -10.471,0 -19.455,6.36 -23.3,15.43 l 0,-26.751 c 0,-13.972 -11.327,-25.298 -25.299,-25.298 l -53.263,0 c -13.972,0 -25.298,11.326 -25.298,25.298 l 0,41.279 c 0,12.145 8.559,22.286 19.972,24.732 l 0,-57.355 5.992,0 0,79.505 51.929,0 0,-79.505 5.993,0 0,57.355 c 8.125,-1.742 14.801,-7.386 17.975,-14.875 l 0,26.762 c 0,12.144 8.559,22.286 19.973,24.731 l 0,-57.354 5.992,0 0,79.505 51.93,0 0,-79.505 5.992,0 0,57.354 c 11.413,-2.446 19.972,-12.587 19.972,-24.731 l 0,-26.761 c 3.174,7.489 9.851,13.132 17.976,14.874 l 0,-57.355 5.992,0 0,79.505 51.93,0 0,-79.505 5.992,0 0,57.355 c 11.414,-2.447 19.973,-12.588 19.973,-24.732 l 0,-41.279 c 0.001,-13.971 -11.326,-25.298 -25.298,-25.298 z" />
  </g>
  <path
     style="fill:#ffffff"
     inkscape:connector-curvature="0"
     id="path25"
     d="m 202.51499,32.045106 c -0.74053,-0.457827 -1.75961,-0.503334 -2.53322,-0.117215 -0.16134,0.07998 -16.28456,7.894749 -29.20299,7.894749 -6.27994,0 -12.93636,-2.400831 -19.77066,-5.076082 l -1.36244,-0.535051 c -6.39716,-2.515287 -12.43854,-4.892676 -18.56817,-4.892676 -6.16411,0 -13.42453,2.384284 -21.1138,4.909225 l -1.44381,0.472995 c -8.24502,2.698694 -16.11771,5.121589 -21.810201,5.121589 -6.506098,0 -14.660099,-3.19789 -18.94188,-5.103662 -3.789478,-1.686512 -6.926693,-3.381297 -8.571834,-4.307982 -0.252357,-1.179041 -1.348659,-2.102968 -2.5539,-2.102968 l -6.250986,0 c -1.388649,0 -2.607681,1.219032 -2.60906,2.607681 l 0,197.633491 c 0.0014,1.38864 1.220411,2.60768 2.60906,2.60768 l 13.742734,0 0.0014,0 c 1.387269,0 2.607807,-1.21904 2.607681,-2.60768 l -0.0072,-79.94105 c 7.484498,4.15284 14.782142,6.19651 19.97406,6.19651 6.985989,0 15.178606,-2.68076 23.100936,-5.27465 l 0.32682,-0.10756 c 7.3335,-2.39944 15.64608,-5.12021 20.94005,-5.12021 5.05264,0 11.24294,2.42289 17.7987,4.98783 l 0.22338,0.0869 c 6.1779,2.41738 13.86856,5.42773 21.67919,5.42773 14.78698,0 31.36801,-8.36223 31.53074,-8.44497 0.86049,-0.43163 1.44105,-1.36796 1.44242,-2.3305 l 0,-109.768041 c -0.001,-0.882556 -0.48816,-1.752702 -1.23695,-2.216045 z"
     sodipodi:nodetypes="ccsccsccsccssccscsscsccsccsccccc" />
</svg>
