<?xml version="1.0" encoding="UTF-8" standalone="no"?>
<!-- Created with Inkscape (http://www.inkscape.org/) -->

<svg
   xmlns:dc="http://purl.org/dc/elements/1.1/"
   xmlns:cc="http://creativecommons.org/ns#"
   xmlns:rdf="http://www.w3.org/1999/02/22-rdf-syntax-ns#"
   xmlns:svg="http://www.w3.org/2000/svg"
   xmlns="http://www.w3.org/2000/svg"
   xmlns:sodipodi="http://sodipodi.sourceforge.net/DTD/sodipodi-0.dtd"
   xmlns:inkscape="http://www.inkscape.org/namespaces/inkscape"
   version="1.0"
   width="580"
   height="580"
   id="svg2"
   sodipodi:version="0.32"
   inkscape:version="0.91 r"
   sodipodi:docname="research.svg"
   inkscape:output_extension="org.inkscape.output.svg.inkscape">
  <metadata
     id="metadata10">
    <rdf:RDF>
      <cc:Work
         rdf:about="">
        <dc:format>image/svg+xml</dc:format>
        <dc:type
           rdf:resource="http://purl.org/dc/dcmitype/StillImage" />
        <cc:license
           rdf:resource="http://web.resource.org/cc/PublicDomain" />
        <dc:language>en</dc:language>
        <dc:title />
      </cc:Work>
    </rdf:RDF>
  </metadata>
  <sodipodi:namedview
     inkscape:window-height="1004"
     inkscape:window-width="1920"
     inkscape:pageshadow="2"
     inkscape:pageopacity="0.0"
     guidetolerance="10.0"
     gridtolerance="10.0"
     objecttolerance="10.0"
     borderopacity="1.0"
     bordercolor="#666666"
     pagecolor="#ffffff"
     id="base"
     showgrid="false"
     inkscape:zoom="0.5"
     inkscape:cx="373.58612"
     inkscape:cy="450.07943"
     inkscape:window-x="1680"
     inkscape:window-y="0"
     inkscape:current-layer="svg2"
     inkscape:window-maximized="1" />
  <defs
     id="defs4">
    <inkscape:perspective
       sodipodi:type="inkscape:persp3d"
       inkscape:vp_x="0 : 290 : 1"
       inkscape:vp_y="0 : 1000 : 0"
       inkscape:vp_z="580 : 290 : 1"
       inkscape:persp3d-origin="290 : 193.33333 : 1"
       id="perspective12" />
  </defs>
  <g
     id="g1327">
    <path
       d="M 66.275,1.768 C 24.94,1.768 1.704,23.139 1.704,66.804 L 1.704,516.927 C 1.704,557.771 22.598,579.156 63.896,579.156 L 515.92,579.156 C 557.227,579.156 578.149,558.84 578.149,516.927 L 578.149,66.804 C 578.149,24.203 557.227,1.768 514.627,1.768 C 514.624,1.768 66.133,1.625 66.275,1.768 z"
       style="fill:#111111;stroke:#eeeeee;stroke-width:3.40799999"
       id="path1329" />
  </g>
  <path
     inkscape:connector-curvature="0"
     d="m 361.90832,240.75526 -103.67819,41.30194 6.47408,15.77734 c 1.03256,2.49877 3.00471,4.52257 5.48283,5.56543 l 29.57216,12.66937 c 1.29075,0.54725 2.68467,0.82604 4.06831,0.82604 1.30096,0 2.60199,-0.23747 3.83077,-0.72278 l 42.17958,-16.88216 c 2.54002,-1.02223 4.57419,-3.00473 5.66869,-5.52414 l 12.67968,-29.55155 c 1.07384,-2.55039 1.1151,-5.42087 0.0725,-7.98159 l -6.35019,-15.4779 z"
     id="path3"
     style="fill:#ffffff;fill-opacity:1" />
  <line
     style="fill:none;stroke:#ffffff;stroke-width:20.65097237;stroke-linecap:round;stroke-linejoin:round;stroke-miterlimit:10;stroke-opacity:1"
     stroke-miterlimit="10"
     x1="430.9859"
     y1="319.58011"
     x2="288.75211"
     y2="377.89822"
     id="line5" />
  <path
     inkscape:connector-curvature="0"
     d="m 498.0602,542.21814 -351.06652,0 c -5.69967,0 -10.32549,-4.61549 -10.32549,-10.32549 l 0,-10.32549 c 0,-17.07834 13.31988,-30.97645 29.68576,-30.97645 l 312.34596,0 c 16.36592,0 29.68572,13.89811 29.68572,30.97645 l 0,10.32549 c 0,5.71 -4.61544,10.32549 -10.32543,10.32549 z"
     id="path7"
     style="fill:#ffffff;fill-opacity:1" />
  <path
     inkscape:connector-curvature="0"
     d="m 229.59755,470.79675 c -40.33134,0 -73.13542,-32.80407 -73.13542,-73.13541 0,-40.33134 32.8144,-73.13543 73.13542,-73.13543 40.32103,0 73.13546,32.80409 73.13546,73.13543 0,40.33134 -32.8041,73.13541 -73.13546,73.13541 z"
     id="path9"
     style="fill:#ffffff;fill-opacity:1" />
  <path
     inkscape:connector-curvature="0"
     d="m 470.85251,430.75452 c -5.75125,-14.91 -20.35155,-24.93604 -36.34565,-24.93604 -4.79101,0 -9.50987,0.87765 -13.98076,2.61233 l -101.7886,39.2162 c -2.87052,1.14614 -6.37089,1.12548 -10.09839,0.27879 -5.29699,8.30169 -11.79162,15.75669 -19.3602,22.01394 l 174.67613,0 c 2.40586,-2.81887 4.5846,-5.90618 6.14377,-9.40655 4.23334,-9.50975 4.51219,-20.07272 0.7537,-29.77867 z"
     id="path11"
     style="fill:#ffffff;fill-opacity:1" />
  <path
     inkscape:connector-curvature="0"
     d="m 354.25717,221.57051 -44.699,-108.13883 c -2.83954,-7.14523 -4.89427,-12.29763 -10.76951,-14.817054 -5.86493,-2.5091 -10.96567,-0.44402 -18.63753,2.653634 l -61.29208,24.9877 c -16.79957,6.71154 -19.4119,12.78292 -12.56613,29.93356 l 44.26537,106.69324 103.69888,-41.31225 z"
     id="path13"
     style="fill:#ffffff;fill-opacity:1" />
  <path
     inkscape:connector-curvature="0"
     d="m 199.15802,96.343006 7.78542,-3.231893 5.81325,13.340547 57.71948,-23.531794 -5.94749,-13.681272 8.6321,-3.572602 c 3.77912,-1.579813 6.71157,-4.532901 8.25002,-8.322341 1.5489,-3.748162 1.52821,-7.888688 -0.0305,-11.554229 L 277.87951,35.59817 C 274.64765,28.143171 265.40632,24.467291 258.04427,27.575264 L 184.03116,58.23163 c -7.64086,3.200898 -11.33739,12.060166 -8.19845,19.855914 l 3.45906,10.005391 c 2.35419,5.720321 7.87834,9.406521 14.05297,9.406521 2.01347,0 3.97532,-0.39236 5.81325,-1.15645 z"
     id="path15"
     style="fill:#ffffff;fill-opacity:1" />
  <path
     inkscape:connector-curvature="0"
     d="M 220.84154,245.14358 189.75151,170.21155 C 145.6204,196.335 125.82643,251.51442 145.6307,300.44687 l 14.44537,34.4768 c 17.18161,-19.00921 41.94212,-31.04873 69.51117,-31.04873 0.36138,0 0.71245,0.0516 1.07384,0.0516 l -12.92751,-32.79375 c -3.60358,-8.93156 -2.06508,-18.61686 3.10797,-25.98925 z"
     id="path17"
     style="fill:#ffffff;fill-opacity:1" />
</svg>
