<?xml version="1.0" encoding="UTF-8" standalone="no"?>
<!-- Created with Inkscape (http://www.inkscape.org/) -->

<svg
   xmlns:dc="http://purl.org/dc/elements/1.1/"
   xmlns:cc="http://creativecommons.org/ns#"
   xmlns:rdf="http://www.w3.org/1999/02/22-rdf-syntax-ns#"
   xmlns:svg="http://www.w3.org/2000/svg"
   xmlns="http://www.w3.org/2000/svg"
   xmlns:xlink="http://www.w3.org/1999/xlink"
   xmlns:sodipodi="http://sodipodi.sourceforge.net/DTD/sodipodi-0.dtd"
   xmlns:inkscape="http://www.inkscape.org/namespaces/inkscape"
   version="1.0"
   width="580"
   height="580"
   id="svg2"
   sodipodi:version="0.32"
   inkscape:version="0.91 r"
   sodipodi:docname="research.svg"
   inkscape:output_extension="org.inkscape.output.svg.inkscape">
  <metadata
     id="metadata2975">
    <rdf:RDF>
      <cc:Work
         rdf:about="">
        <dc:format>image/svg+xml</dc:format>
        <dc:type
           rdf:resource="http://purl.org/dc/dcmitype/StillImage" />
        <cc:license
           rdf:resource="http://web.resource.org/cc/PublicDomain" />
        <dc:language>en</dc:language>
        <dc:title />
      </cc:Work>
    </rdf:RDF>
  </metadata>
  <sodipodi:namedview
     inkscape:window-height="1004"
     inkscape:window-width="1920"
     inkscape:pageshadow="2"
     inkscape:pageopacity="0.0"
     guidetolerance="10.0"
     gridtolerance="10.0"
     objecttolerance="10.0"
     borderopacity="1.0"
     bordercolor="#666666"
     pagecolor="#ffffff"
     id="base"
     inkscape:zoom="0.46083857"
     inkscape:cx="520.73284"
     inkscape:cy="515.19504"
     inkscape:window-x="1680"
     inkscape:window-y="0"
     inkscape:current-layer="svg2"
     showgrid="false"
     inkscape:window-maximized="1" />
  <defs
     id="defs4">
    <inkscape:perspective
       sodipodi:type="inkscape:persp3d"
       inkscape:vp_x="0 : 290 : 1"
       inkscape:vp_y="0 : 1000 : 0"
       inkscape:vp_z="580 : 290 : 1"
       inkscape:persp3d-origin="290 : 193.33333 : 1"
       id="perspective2441" />
    <inkscape:perspective
       id="perspective3452"
       inkscape:persp3d-origin="30 : 20 : 1"
       inkscape:vp_z="60 : 30 : 1"
       inkscape:vp_y="0 : 1000 : 0"
       inkscape:vp_x="0 : 30 : 1"
       sodipodi:type="inkscape:persp3d" />
    <symbol
       viewBox="244.5 110 489 219.9"
       id="symbol-university">
      <path
         id="path4460"
         d="M79,43l57,119c0,0,21-96,104-96s124,106,124,106l43-133l82-17L0,17L79,43z" />
      <path
         id="path4462"
         d="M94,176l-21,39"
         stroke-width="20"
         stroke="#000000"
         fill="none" />
      <path
         id="path4464"
         d="M300,19c0,10.5-22.6,19-50.5,19S199,29.5,199,19s22.6-19,50.5-19S300,8.5,300,19z" />
      <path
         id="path4466"
         d="M112,216l-16-38L64,88c0,0-9-8-4-35s16-24,16-24"
         stroke-width="20"
         stroke="#000000"
         ill="none" />
    </symbol>
    <inkscape:perspective
       id="perspective4471"
       inkscape:persp3d-origin="372.04724 : 350.78739 : 1"
       inkscape:vp_z="744.09448 : 526.18109 : 1"
       inkscape:vp_y="0 : 1000 : 0"
       inkscape:vp_x="0 : 526.18109 : 1"
       sodipodi:type="inkscape:persp3d" />
    <inkscape:perspective
       id="perspective4668"
       inkscape:persp3d-origin="6 : 4 : 1"
       inkscape:vp_z="12 : 6 : 1"
       inkscape:vp_y="0 : 1000 : 0"
       inkscape:vp_x="0 : 6 : 1"
       sodipodi:type="inkscape:persp3d" />
    <clipPath
       id="SVGID_2_">
      <use
         height="100%"
         width="100%"
         y="0"
         x="0"
         style="overflow:visible"
         xlink:href="#SVGID_1_"
         overflow="visible"
         id="use9" />
    </clipPath>
    <clipPath
       id="SVGID_2_-8">
      <use
         height="100%"
         width="100%"
         y="0"
         x="0"
         style="overflow:visible"
         xlink:href="#SVGID_1_"
         overflow="visible"
         id="use9-6" />
    </clipPath>
    <clipPath
       id="clipPath4305">
      <use
         height="100%"
         width="100%"
         y="0"
         x="0"
         style="overflow:visible"
         xlink:href="#SVGID_1_"
         overflow="visible"
         id="use4307" />
    </clipPath>
    <clipPath
       id="clipPath4309">
      <use
         height="100%"
         width="100%"
         y="0"
         x="0"
         style="overflow:visible"
         xlink:href="#SVGID_1_"
         overflow="visible"
         id="use4311" />
    </clipPath>
    <clipPath
       id="clipPath4313">
      <use
         height="100%"
         width="100%"
         y="0"
         x="0"
         style="overflow:visible"
         xlink:href="#SVGID_1_"
         overflow="visible"
         id="use4315" />
    </clipPath>
    <clipPath
       id="clipPath4317">
      <use
         height="100%"
         width="100%"
         y="0"
         x="0"
         style="overflow:visible"
         xlink:href="#SVGID_1_"
         overflow="visible"
         id="use4319" />
    </clipPath>
  </defs>
  <g
     id="g1327">
    <path
       d="M 66.275,1.768 C 24.94,1.768 1.704,23.139 1.704,66.804 L 1.704,516.927 C 1.704,557.771 22.599,579.156 63.896,579.156 L 515.92,579.156 C 557.227,579.156 578.149,558.841 578.149,516.927 L 578.149,66.804 C 578.149,24.203 557.227,1.768 514.628,1.768 C 514.624,1.768 66.133,1.625 66.275,1.768 z "
       style="fill:#111;stroke:#eee;stroke-width:3.40799999"
       id="path1329" />
  </g>
  <path
     id="path15"
     d="m 309.094,427.584 -66.456,0 c 1.362,-3.477 2.116,-7.256 2.116,-11.215 l 0,-32.546 -2.429,-29.659 c -4.677,-11.028 -15.604,-18.766 -28.338,-18.766 l -64.775,0 c -12.734,0 -23.661,7.736 -28.338,18.767 l -2.429,29.657 0,32.547 c 0,3.959 0.754,7.738 2.116,11.215 l -66.455,0 0,22.498 0,9 0,77.996 10.5,0 0,-77.996 233.988,0 0,77.996 10.498,0 0,-77.996 0.002,0 0,-31.498 z m -88.63,0 -7.287,0 0,-50.891 7.287,0 0,50.891 z m -77.729,-50.891 7.288,0 0,50.891 -7.288,0 0,-50.891 z"
     clip-path="url(#SVGID_2_)"
     inkscape:connector-curvature="0"
     style="fill:#814747;fill-opacity:1;stroke:none;opacity:0"
     transform="matrix(1.1907645,0,0,1.1907645,-25.706456,-93.062852)" />
  <path
     id="path15-2"
     d="m 309.094,427.584 -66.456,0 c 1.362,-3.477 2.116,-7.256 2.116,-11.215 l 0,-32.546 -2.429,-29.659 c -4.677,-11.028 -15.604,-18.766 -28.338,-18.766 l -64.775,0 c -12.734,0 -23.661,7.736 -28.338,18.767 l -2.429,29.657 0,32.547 c 0,3.959 0.754,7.738 2.116,11.215 l -66.455,0 0,22.498 0,9 0,77.996 10.5,0 0,-77.996 233.988,0 0,77.996 10.498,0 0,-77.996 0.002,0 0,-31.498 z m -88.63,0 -7.287,0 0,-50.891 7.287,0 0,50.891 z m -77.729,-50.891 7.288,0 0,50.891 -7.288,0 0,-50.891 z"
     clip-path="url(#SVGID_2_-8)"
     inkscape:connector-curvature="0"
     style="fill:#ffffff"
     transform="matrix(1.1907645,0,0,1.1907645,701.6686,-65.874017)" />
  <path
     id="path17"
     d="m 181.6,247.014 c 20.794,0 37.65,16.856 37.65,37.65 0,20.794 -16.856,37.65 -37.65,37.65 -20.794,0 -37.65,-16.856 -37.65,-37.65 0,-20.794 16.856,-37.65 37.65,-37.65"
     clip-path="url(#SVGID_2_-8)"
     inkscape:connector-curvature="0"
     style="fill:#ffffff"
     transform="matrix(1.1907645,0,0,1.1907645,701.6686,-65.874017)" />
  <path
     id="path19"
     d="m 478.257,171.736 c -1.972,9.023 -4.293,17.185 -7.315,25.12 -2.577,6.766 -5.519,13.36 -9.762,19.249 -2.109,2.926 -4.426,5.665 -7.594,7.434 -4.241,2.368 -9.112,2.427 -13.216,-1.341 -2.538,-2.33 -4.99,-4.767 -7.375,-7.262 -5.378,-5.626 -11.66,-9.948 -18.374,-13.69 -9.36,-5.216 -18.99,-9.853 -28.846,-13.987 -6.345,-2.662 -12.728,-5.243 -19.172,-7.639 -8.524,-3.168 -17.18,-5.933 -26.1,-7.731 -3.294,-0.664 -4.84,0.137 -6.147,3.337 -1.191,2.919 -2.7,24.474 -1.467,41.372 1.359,16.567 3.963,27.571 4.274,28.826 0.596,2.405 -0.324,7.621 -4.211,8.04 -5.508,0.244 -12.325,-3.479 -15.974,-5.765 -5.532,-3.467 -8.681,-8.528 -9.949,-14.948 -1.143,-5.782 -1.216,-11.633 -1.163,-17.495 0.068,-7.543 0.255,-15.089 -0.461,-22.615 -0.527,-5.557 -1.627,-9.895 -3.296,-15.395 -2.225,-4.931 -4.308,-6.314 -7.152,-7.87 -2.323,-0.901 -17.355,-3.25 -19.727,-4.021 -6.491,-2.109 -15.137,-11.736 -14.189,-33.927 1.053,-21.221 12.426,-30.411 16.218,-32.458 4.633,-2.477 16.778,-2.8 27.029,-3.988 8.663,-1.34 14.444,-2.088 22.488,-3.683 14.882,-2.74 28.603,-5.448 42.12,-9.936 12.519,-4.156 24.734,-9.108 36.704,-14.697 8.73,-4.077 17.238,-8.584 25.448,-13.68 3.052,-1.895 5.086,-3.395 6.722,-6.666 1.538,-3.077 3.135,-5.854 5.984,-8.173 2.559,-2.083 4.403,-3.213 6.604,-3.808 1.727,-0.416 2.87,-0.486 3.954,-0.411 3.997,0.277 7.861,1.108 11.207,3.571 2.974,2.189 4.979,5.175 6.59,8.465 4.219,8.611 6.496,17.836 8.147,27.251 2.592,14.779 3.591,29.696 3.646,44.693 0.033,9.065 -0.396,18.109 -1.336,27.119 -0.896,8.628 -2.256,17.898 -4.309,26.709 m -52.754,24.495 c 0.073,-0.047 0.146,-0.094 0.219,-0.141 -0.268,-1.479 -0.51,-1.545 -0.807,-3.018 -1.073,-5.301 -2.292,-10.576 -3.225,-15.903 -2.36,-13.489 -3.3,-27.109 -3.309,-40.803 -0.007,-9.954 0.407,-19.892 1.651,-29.763 0.812,-6.427 1.874,-12.828 3.061,-19.195 1.117,-6 2.773,-11.87 4.975,-17.563 -0.203,-0.158 -1.597,1.014 -3.397,2.186 -8.579,5.578 -17.744,9.896 -27.369,13.176 -10.627,3.621 -21.306,7.08 -31.946,10.661 -6.411,2.158 -12.767,4.467 -18.751,7.722 -5.708,3.105 -9.997,7.5 -12.226,13.82 -1.808,5.125 -3.029,6.129 -3.448,11.571 -0.528,6.861 0.138,12.128 2.91,18.473 2.104,4.819 5.148,8.938 9.731,11.469 2.802,1.548 5.884,2.622 8.925,3.646 6.216,2.093 12.5,3.974 18.735,6.006 7.063,2.301 14.078,4.741 20.812,7.948 9.371,4.463 18.535,9.31 27.124,15.226 2.131,1.466 4.224,2.987 6.335,4.482 m 10.732,-19.103 c 0.121,0.02 0.242,0.039 0.364,0.059 0.528,-0.895 1.094,-1.769 1.578,-2.688 2.392,-4.545 4.347,-9.281 5.958,-14.175 2.252,-6.841 4.08,-13.79 4.882,-20.971 1.104,-9.868 0.646,-19.678 -1.537,-29.373 -1.552,-6.894 -3.772,-12.997 -8.497,-18.348 -0.165,-0.186 -0.936,-0.877 -2.104,-1.595 -0.44,3.594 -4.45,24.757 -4.126,43.312 -0.324,15.241 2.356,33.653 2.844,39.991 0.096,1.272 0.42,2.526 0.638,3.788"
     clip-path="url(#SVGID_2_-8)"
     inkscape:connector-curvature="0"
     style="fill:#ffffff"
     transform="matrix(1.1087085,0,0,1.1087085,672.68034,16.621312)" />
  <path
     id="path21"
     d="m 508.781,206.53 c 0.074,-0.786 0.4,-1.078 0.798,-1.701 2.321,-3.643 4.756,-7.214 6.975,-10.921 3.783,-6.323 7.316,-12.829 9.793,-19.791 2.304,-6.476 4.311,-12.945 5.67,-19.688 1.196,-5.932 2.68,-12.269 3.134,-18.314 0.717,-9.554 0.125,-19.653 -1.194,-29.15 -1.175,-8.467 -4.068,-16.195 -7.561,-24.006 -2.012,-4.503 -4.476,-8.734 -7.62,-12.523 -1.577,-1.9 -3.151,-3.803 -4.719,-5.711 -0.178,-0.217 -0.38,-0.599 -0.275,-1.079 0.469,-1.172 1.879,-0.41 1.928,-0.479 0.677,0.32 2.257,1.113 2.708,1.438 2.031,1.386 3.854,2.7 5.705,4.184 5.097,4.087 9.772,8.609 13.573,14.019 6.014,8.564 9.967,18.038 12.029,28.355 0.956,4.784 1.348,9.997 1.514,14.679 0.002,3.847 -0.338,8.639 -0.974,12.209 -0.936,5.252 -1.814,9.04 -3.098,14.216 -4.731,15.889 -12.026,29.955 -22.771,42.214 -3.282,3.746 -6.859,7.223 -10.334,10.79 -0.64,0.657 -1.73,1.606 -2.453,2.179 -1.216,1.041 -2.899,0.754 -2.828,-0.92"
     clip-path="url(#SVGID_2_-8)"
     inkscape:connector-curvature="0"
     style="fill:#ffffff"
     transform="matrix(1.1087085,0,0,1.1087085,672.68034,16.621312)" />
  <path
     id="path23"
     d="m 490.229,194.059 c 0.12,-0.661 0.293,-0.979 0.591,-1.441 1.889,-2.921 3.85,-5.794 5.68,-8.752 2.759,-4.46 4.889,-9.243 6.575,-14.224 2.633,-7.778 4.781,-15.7 6.365,-23.771 1.557,-7.923 1.687,-15.934 1.156,-23.966 -0.43,-6.509 -1.095,-12.999 -3.032,-19.245 -2.07,-6.677 -5.071,-12.913 -9.219,-18.52 -0.866,-1.172 -1.979,-2.15 -2.944,-3.25 -0.333,-0.379 -0.735,-0.94 -0.632,-1.58 0.625,-1.545 1.719,-1.172 2.24,-0.959 0.434,0.151 1.859,1.205 2.223,1.46 1.566,1.094 3.162,2.16 4.623,3.391 4.246,3.579 8.208,7.453 11.391,12.091 4.34,6.326 7.227,13.29 8.697,20.863 1.559,8.017 1.46,16.046 0.113,24.085 -2.188,13.053 -6.859,25.066 -14.354,35.886 -4.224,6.095 -9.1,11.617 -14.435,16.713 -0.563,0.538 -1.428,1.286 -2.412,1.857 -1.443,0.939 -2.626,0.267 -2.626,-0.638"
     clip-path="url(#SVGID_2_-8)"
     inkscape:connector-curvature="0"
     style="fill:#ffffff"
     transform="matrix(1.1087085,0,0,1.1087085,672.68034,16.621312)" />
  <path
     inkscape:connector-curvature="0"
     style="color:#000000;clip-rule:nonzero;display:inline;overflow:visible;visibility:visible;opacity:1;isolation:auto;mix-blend-mode:normal;color-interpolation:sRGB;color-interpolation-filters:linearRGB;solid-color:#000000;solid-opacity:1;fill:#ffffff;fill-opacity:1;fill-rule:nonzero;stroke:none;stroke-width:25;stroke-linecap:round;stroke-linejoin:round;stroke-miterlimit:4;stroke-dasharray:none;stroke-dashoffset:0;stroke-opacity:1;marker:none;color-rendering:auto;image-rendering:auto;shape-rendering:auto;text-rendering:auto;enable-background:accumulate"
     d="m 143.29087,308.48637 c -15.16319,0 -28.17493,9.21233 -33.74414,22.34765 l -2.89258,35.31446 0,38.75586 c 0,4.71422 0.89771,9.21518 2.51954,13.35546 l -79.132816,0 0,26.78907 0,10.71679 0,92.875 24.779038,0 0,-92.875 254.074738,0 0,92.875 24.77513,0 0,-92.875 0.002,0 0,-37.50586 -79.13281,0 c 1.62182,-4.14028 2.51953,-8.64126 2.51953,-13.35546 l 0,-38.75391 -2.89258,-35.31836 c -5.5692,-13.13175 -18.58094,-22.3457 -33.74414,-22.3457 l -77.13086,0 z m -7.71289,49.17382 8.67774,0 0,60.59961 -8.67774,0 z m 83.87891,0 8.67773,0 0,60.59961 -8.67773,0 z"
     id="path4178"
     sodipodi:nodetypes="sccsccccccccccccccsccscscccccccccc" />
  <path
     inkscape:connector-curvature="0"
     style="color:#000000;clip-rule:nonzero;display:inline;overflow:visible;visibility:visible;opacity:1;isolation:auto;mix-blend-mode:normal;color-interpolation:sRGB;color-interpolation-filters:linearRGB;solid-color:#000000;solid-opacity:1;fill:#ffffff;fill-opacity:1;fill-rule:nonzero;stroke:none;stroke-width:25;stroke-linecap:round;stroke-linejoin:round;stroke-miterlimit:4;stroke-dasharray:none;stroke-dashoffset:0;stroke-opacity:1;marker:none;color-rendering:auto;image-rendering:auto;shape-rendering:auto;text-rendering:auto;enable-background:accumulate"
     d="m 181.85728,203.24223 c -24.76076,0 -44.83397,20.07127 -44.83399,44.83203 0,24.76075 20.07323,44.83203 44.83399,44.83203 24.76076,0 44.83203,-20.07128 44.83203,-44.83203 0,-24.76076 -20.07127,-44.83203 -44.83203,-44.83203 z"
     id="path4176" />
  <path
     inkscape:connector-curvature="0"
     d="m 461.65821,171.00376 -74.68067,29.75029 4.66337,11.36461 c 0.74375,1.7999 2.16432,3.25766 3.94933,4.00885 l 21.30121,9.1259 c 0.92973,0.39419 1.93379,0.595 2.93045,0.595 0.93709,0 1.87424,-0.17105 2.75934,-0.52062 l 30.38247,-12.16042 c 1.82961,-0.73633 3.29486,-2.16436 4.08323,-3.97911 l 9.13333,-21.28635 c 0.77351,-1.83707 0.80322,-3.90471 0.0522,-5.74923 l -4.57412,-11.14892 z"
     id="path3"
     style="fill:#ffffff;fill-opacity:1" />
  <line
     style="fill:none;stroke:#ffffff;stroke-width:14.87514877;stroke-linecap:round;stroke-linejoin:round;stroke-miterlimit:10;stroke-opacity:1"
     stroke-miterlimit="10"
     x1="511.41559"
     y1="227.78227"
     x2="408.96289"
     y2="269.78955"
     id="line5" />
  <path
     inkscape:connector-curvature="0"
     d="m 559.73008,388.15117 -252.87753,0 c -4.10554,0 -7.43757,-3.32459 -7.43757,-7.43757 l 0,-7.43758 c 0,-12.30175 9.59447,-22.31273 21.38302,-22.31273 l 224.98663,0 c 11.78857,0 21.38299,10.01098 21.38299,22.31273 l 0,7.43758 c 0,4.11298 -3.32456,7.43757 -7.43754,7.43757 z"
     id="path7"
     style="fill:#ffffff;fill-opacity:1" />
  <path
     inkscape:connector-curvature="0"
     d="m 366.35313,336.70547 c -29.05116,0 -52.68034,-23.62918 -52.68034,-52.68034 0,-29.05116 23.63662,-52.68034 52.68034,-52.68034 29.04375,0 52.68039,23.62918 52.68039,52.68034 0,29.05116 -23.62921,52.68034 -52.68039,52.68034 z"
     id="path9"
     style="fill:#ffffff;fill-opacity:1" />
  <path
     inkscape:connector-curvature="0"
     d="m 540.13205,307.86255 c -4.1427,-10.73985 -14.65948,-17.96173 -26.1802,-17.96173 -3.45104,0 -6.85009,0.63218 -10.07054,1.8817 l -73.31957,28.2479 c -2.06766,0.82557 -4.58903,0.8107 -7.27399,0.20081 -3.81548,5.97982 -8.49365,11.34975 -13.94538,15.85691 l 125.82135,0 c 1.73297,-2.03046 3.30233,-4.25429 4.42543,-6.77565 3.04933,-6.84999 3.25018,-14.45862 0.5429,-21.44994 z"
     id="path11"
     style="fill:#ffffff;fill-opacity:1" />
  <path
     inkscape:connector-curvature="0"
     d="M 456.14699,157.18475 423.94975,79.291022 c -2.04534,-5.146799 -3.52539,-8.858129 -7.7574,-10.672907 -4.22459,-1.80734 -7.89871,-0.319839 -13.42484,1.911443 l -44.14945,17.998947 c -12.10094,4.834405 -13.98262,9.207685 -9.05153,21.561515 l 31.88489,76.85245 74.69557,-29.75772 z"
     id="path13"
     style="fill:#ffffff;fill-opacity:1" />
  <path
     inkscape:connector-curvature="0"
     d="m 344.42717,66.981841 5.60793,-2.327973 4.18736,9.609362 41.57605,-16.950248 -4.28405,-9.854788 6.21781,-2.573388 c 2.72214,-1.137956 4.83444,-3.265096 5.94259,-5.994683 1.11569,-2.699844 1.10079,-5.682322 -0.0219,-8.322656 l -2.52166,-7.340874 c -2.32795,-5.369933 -8.98461,-8.017719 -14.28758,-5.778999 l -53.31254,22.082157 c -5.5038,2.305643 -8.16646,8.687076 -5.90544,14.302449 l 2.4916,7.207015 c 1.69576,4.120408 5.67487,6.775634 10.12253,6.775634 1.45034,0 2.86347,-0.282633 4.18735,-0.833008 z"
     id="path15-4"
     style="fill:#ffffff;fill-opacity:1" />
  <path
     inkscape:connector-curvature="0"
     d="m 360.04607,174.16471 -22.39453,-53.97445 c -31.78818,18.81703 -46.04601,58.56345 -31.78075,93.8101 l 10.40517,24.83405 c 12.37613,-13.69256 30.21142,-22.36477 50.06975,-22.36477 0.26031,0 0.51319,0.0371 0.77351,0.0371 l -9.31186,-23.62174 c -2.5957,-6.43351 -1.4875,-13.40995 2.23871,-18.72038 z"
     id="path17-5"
     style="fill:#ffffff;fill-opacity:1" />
</svg>
