<svg width="48" height="48" viewBox="0 0 580 580" fill="none" xmlns="http://www.w3.org/2000/svg">
<path d="M263.721 105.518C252.738 105.518 241.957 107.691 234.156 115.372C226.355 123.054 223.891 146.697 223.891 158.017H171.743C164.503 158.017 158.603 163.916 158.603 171.156H145.463V197.436H434.537V171.156H421.397C421.397 163.916 415.497 158.017 408.257 158.017H356.109C356.109 146.697 353.645 123.054 345.844 115.372C338.043 107.691 327.262 105.518 316.279 105.518H263.721ZM263.721 132.618H316.279C323.443 132.618 325.742 134.292 326.545 135.082C327.348 135.872 329.008 150.665 329.008 158.017H250.992C250.992 150.665 252.653 135.872 253.455 135.082C254.258 134.292 256.557 132.618 263.721 132.618ZM171.743 224.828V435.063C171.743 456.796 189.429 474.482 211.162 474.482H368.838C390.571 474.482 408.257 456.796 408.257 435.063V224.828H171.743ZM224.302 264.247H250.581V421.924H224.302V264.247ZM276.86 264.247H303.14V421.924H276.86V264.247ZM329.419 264.247H355.698V421.924H329.419V264.247Z" fill="white" />
</svg>