<svg width="48" height="48" fill="none" version="1.1" viewBox="0 0 48 48" xmlns="http://www.w3.org/2000/svg">
 <namedview bordercolor="#666666" borderopacity="1" gridtolerance="10" guidetolerance="10" objecttolerance="10" pagecolor="#ffffff" showgrid="true">
  <grid spacingx="2" spacingy="2" type="xygrid"/>
 </namedview>
 <path d="m25.266 4.0019c-0.53449 0.00764-1.0724 0.037992-1.6074 0.091654-2.0134 0.20195-2.7658 0.38668-2.7625 0.67823 7.08e-4 0.069619 0.36702 0.44533 0.8139 0.83491 0.80517 0.70191 1.7635 1.9915 1.6009 2.1544-0.08449 0.084624-0.77793-0.34081-2.2014-1.3509-1.2203-0.86598-1.4199-0.62999-0.66646 0.78925 0.90188 1.6989 2.5542 3.424 5.5789 5.8246 2.0745 1.6466 2.4104 1.8706 4.0043 2.6707 0.50056 0.25129 0.99644 0.56127 1.1022 0.68895 0.1058 0.12769 0.53184 0.33928 0.94651 0.47002 0.41466 0.13075 0.87316 0.33683 1.019 0.45792 0.14586 0.12108 0.663 0.37687 1.1492 0.56859 1.1801 0.46537 2.6802 1.4719 3.2677 2.1928 2.033 2.4943 2.553 4.2694 1.5729 5.3667-0.53114 0.59466-1.5698 2.0314-1.5698 2.1713 0 0.07251-0.27846 0.52423-0.6188 1.0037-0.92613 1.3047-0.78394 1.6287 0.48033 1.0957 1.0385-0.4378 3.4109-1.1718 3.7681-1.1659 0.38675 0.0064 2.1465 0.5852 2.326 0.76504 0.06292 0.06303 0.28141 0.11448 0.48551 0.11448 0.2041 0 0.64843 0.14913 0.98725 0.33133 0.529 0.28447 1.058 0.32936 1.058 0.08992 0-0.0396-0.06796-0.21029-0.1509-0.37941-0.08293-0.16912-0.29242-0.6025-0.46548-0.96322-0.17306-0.36072-0.4453-0.799-0.60499-0.97395-0.15969-0.17495-0.63288-1.0274-1.0518-1.8943-0.61464-1.2717-0.73999-1.6915-0.64954-2.1744 0.21998-1.1744-0.24248-5.5338-0.73862-6.9629-0.82777-2.3842-0.90681-2.5838-1.3657-3.4482-0.2495-0.46998-0.45374-0.88234-0.45374-0.91653 0-0.03418 0.19428-0.06225 0.43164-0.06225s0.47466-0.06966 0.52729-0.15494c0.05263-0.08529-0.14968-0.64637-0.44926-1.2468-0.34901-0.69953-0.57948-1.4766-0.64159-2.1627-0.0533-0.58892-0.19167-1.1071-0.30768-1.1517-0.116-0.044585-1.0286 0.041247-2.028 0.19091l-1.817 0.27219-0.66127-0.52467c-0.70228-0.5571-1.9006-1.1976-4.0875-2.1851-1.527-0.68951-3.5614-1.076-5.687-1.1054-0.17713-0.00245-0.355-0.00255-0.53316 0zm0.221 1.4052c0.38468-4.67e-5 0.69654 0.31231 0.6965 0.6976 4.8e-5 0.38529-0.31181 0.69765-0.6965 0.6976-0.38468 4.79e-5 -0.69654-0.31231-0.6965-0.6976-4.7e-5 -0.38529 0.31181-0.69765 0.6965-0.6976z" fill="#ffffff" fill-opacity=".83112" style="font-variant-east_asian:normal;paint-order:normal"/>
 <path d="m4 12a2.0002 2.0002 0 1 0 0 4h8v8a2.0002 2.0002 0 0 0 2 2h8v8a2.0002 2.0002 0 0 0 2 2h8v8a2.0002 2.0002 0 1 0 4 0v-10a2.0002 2.0002 0 0 0-2-2h-8v-8a2.0002 2.0002 0 0 0-2-2h-8v-8a2.0002 2.0002 0 0 0-2-2z" color="#000000" color-rendering="auto" dominant-baseline="auto" fill="#ffffff" fill-opacity=".83112" fill-rule="evenodd" image-rendering="auto" shape-rendering="auto" solid-color="#000000" style="font-feature-settings:normal;font-variant-alternates:normal;font-variant-caps:normal;font-variant-east_asian:normal;font-variant-ligatures:normal;font-variant-numeric:normal;font-variant-position:normal;isolation:auto;mix-blend-mode:normal;paint-order:normal;shape-padding:0;text-decoration-color:#000000;text-decoration-line:none;text-decoration-style:solid;text-indent:0;text-orientation:mixed;text-transform:none;white-space:normal"/>
</svg>
