<?xml version="1.0" encoding="UTF-8" standalone="no"?>
<!-- Created with Inkscape (http://www.inkscape.org/) -->

<svg
   xmlns:dc="http://purl.org/dc/elements/1.1/"
   xmlns:cc="http://creativecommons.org/ns#"
   xmlns:rdf="http://www.w3.org/1999/02/22-rdf-syntax-ns#"
   xmlns:svg="http://www.w3.org/2000/svg"
   xmlns="http://www.w3.org/2000/svg"
   xmlns:sodipodi="http://sodipodi.sourceforge.net/DTD/sodipodi-0.dtd"
   xmlns:inkscape="http://www.inkscape.org/namespaces/inkscape"
   version="1.0"
   width="580"
   height="580"
   id="svg2"
   sodipodi:version="0.32"
   inkscape:version="0.48.4 r9939"
   sodipodi:docname="harbour.svg"
   inkscape:output_extension="org.inkscape.output.svg.inkscape">
  <metadata
     id="metadata1976">
    <rdf:RDF>
      <cc:Work
         rdf:about="">
        <dc:format>image/svg+xml</dc:format>
        <dc:type
           rdf:resource="http://purl.org/dc/dcmitype/StillImage" />
        <cc:license
           rdf:resource="http://web.resource.org/cc/PublicDomain" />
        <dc:language>en</dc:language>
        <dc:title />
      </cc:Work>
    </rdf:RDF>
  </metadata>
  <sodipodi:namedview
     inkscape:window-height="1004"
     inkscape:window-width="1920"
     inkscape:pageshadow="2"
     inkscape:pageopacity="0.0"
     guidetolerance="10.0"
     gridtolerance="10.0"
     objecttolerance="10.0"
     borderopacity="1.0"
     bordercolor="#666666"
     pagecolor="#ffffff"
     id="base"
     inkscape:zoom="0.65172414"
     inkscape:cx="171.37576"
     inkscape:cy="400.5481"
     inkscape:window-x="1680"
     inkscape:window-y="0"
     inkscape:current-layer="svg2"
     showgrid="false"
     inkscape:window-maximized="1" />
  <defs
     id="defs4">
    <inkscape:perspective
       sodipodi:type="inkscape:persp3d"
       inkscape:vp_x="0 : 290 : 1"
       inkscape:vp_y="0 : 1000 : 0"
       inkscape:vp_z="580 : 290 : 1"
       inkscape:persp3d-origin="290 : 193.33333 : 1"
       id="perspective3653" />
    <marker
       viewBox="0 0 10 10"
       refY="5"
       refX="10"
       orient="auto"
       markerWidth="4"
       markerUnits="strokeWidth"
       markerHeight="3"
       id="ArrowStart">
      <path
         id="path2111"
         d="M 10 0 L 0 5 L 10 10 z" />
    </marker>
    <marker
       viewBox="0 0 10 10"
       refY="5"
       refX="0"
       orient="auto"
       markerWidth="4"
       markerUnits="strokeWidth"
       markerHeight="3"
       id="ArrowEnd">
      <path
         id="path2108"
         d="M 0 0 L 10 5 L 0 10 z" />
    </marker>
    <inkscape:perspective
       id="perspective2512"
       inkscape:persp3d-origin="177.51199 : 145.02 : 1"
       inkscape:vp_z="355.02399 : 217.53 : 1"
       inkscape:vp_y="0 : 1000 : 0"
       inkscape:vp_x="0 : 217.53 : 1"
       sodipodi:type="inkscape:persp3d" />
  </defs>
  <g
     id="g1327">
    <path
       d="M 66.275,1.768 C 24.94,1.768 1.704,23.139 1.704,66.804 L 1.704,516.927 C 1.704,557.771 22.6,579.156 63.896,579.156 L 515.92,579.156 C 557.227,579.156 578.149,558.842 578.149,516.927 L 578.149,66.804 C 578.149,24.203 557.227,1.768 514.628,1.768 C 514.624,1.768 66.133,1.625 66.275,1.768 z "
       style="fill:#111;stroke:#eee;stroke-width:3.40799999"
       id="path1329" />
  </g>
  <g
     id="g2117"
     transform="matrix(1.1975036,0,0,1.1975036,80.128205,34.575832)"
     style="fill:#000000">
    <g
       id="g2119"
       style="fill:#000000">
      <g
         id="g2121"
         style="fill:#000000">
        <path
           id="path2125"
           style="fill:#000000;stroke:none"
           d="" />
      </g>
      <g
         id="g2127"
         style="fill:#000000">
        <path
           id="path2131"
           style="fill:#000000;stroke:none"
           d="" />
      </g>
    </g>
  </g>
  <circle
     style="fill:none;stroke:#ffffff;stroke-width:2;stroke-linecap:round;stroke-linejoin:round;stroke-miterlimit:10;stroke-opacity:1"
     sodipodi:ry="3"
     sodipodi:rx="3"
     sodipodi:cy="4"
     sodipodi:cx="13"
     stroke-miterlimit="10"
     cx="13"
     cy="4"
     r="3"
     id="circle3"
     transform="matrix(15.458689,0,0,15.458689,89.03704,89.037034)" />
  <path
     style="fill:#ffffff;fill-opacity:1"
     inkscape:connector-curvature="0"
     d="m 388.54915,316.40345 c 0,0 31.42751,-45.85047 73.4597,-57.42903 26.86719,31.52027 28.95411,69.16218 28.95411,87.71261 0,0 -24.85757,-9.47618 -44.44373,-35.43132 -15.2268,8.57958 -57.97008,5.14774 -57.97008,5.14774 z"
     id="path5" />
  <path
     style="fill:#ffffff;fill-opacity:1"
     inkscape:connector-curvature="0"
     d="m 191.45085,316.40345 c 0,0 -29.92802,-45.09299 -71.96018,-56.67155 -26.248869,22.6779 -30.45363,86.95513 -30.45363,86.95513 0,0 25.76963,-12.78434 44.44373,-35.43132 15.2268,8.57958 57.97008,5.14774 57.97008,5.14774 z"
     id="path7" />
  <path
     style="fill:#ffffff;fill-opacity:1"
     inkscape:connector-curvature="0"
     d="M 428.55623,289.11886 C 417.1941,339.96249 366.21134,410.6087 320.91738,413.80865 V 197.24787 H 259.08263 V 413.80865 C 213.78866,410.6087 162.8059,339.97795 151.44377,289.11886 l -47.16446,18.38038 c 11.99595,67.94094 70.33704,131.07423 143.07017,147.04305 27.33096,5.99798 42.65053,36.42068 42.65053,36.42068 0,0 15.31957,-30.4227 42.65052,-36.42068 72.73312,-15.96882 131.07422,-79.10211 143.07016,-147.04305 l -47.16446,-18.38038 z"
     id="path9" />
  <rect
     style="fill:#ffffff;fill-opacity:1"
     x="212.70654"
     y="243.62396"
     width="154.5869"
     height="30.917377"
     id="rect11" />
  <path
     sodipodi:type="arc"
     style="color:#000000;fill:none;stroke:#ffffff;stroke-width:25.59945107;stroke-linecap:butt;stroke-linejoin:miter;stroke-miterlimit:4;stroke-opacity:1;stroke-dasharray:none;stroke-dashoffset:0;marker:none;visibility:visible;display:inline;overflow:visible;enable-background:accumulate"
     id="path3000"
     sodipodi:cx="110.47619"
     sodipodi:cy="67.513229"
     sodipodi:rx="260.84656"
     sodipodi:ry="260.84656"
     d="m 371.32275,67.513229 a 260.84656,260.84656 0 1 1 -521.69312,0 260.84656,260.84656 0 1 1 521.69312,0 z"
     transform="matrix(0.97658346,0,0,0.97658346,182.11078,224.0677)" />
</svg>
