<?xml version="1.0" encoding="UTF-8" standalone="no"?>
<!-- Created with Inkscape (http://www.inkscape.org/) -->

<svg
   xmlns:dc="http://purl.org/dc/elements/1.1/"
   xmlns:cc="http://creativecommons.org/ns#"
   xmlns:rdf="http://www.w3.org/1999/02/22-rdf-syntax-ns#"
   xmlns:svg="http://www.w3.org/2000/svg"
   xmlns="http://www.w3.org/2000/svg"
   xmlns:sodipodi="http://sodipodi.sourceforge.net/DTD/sodipodi-0.dtd"
   xmlns:inkscape="http://www.inkscape.org/namespaces/inkscape"
   version="1.0"
   width="580"
   height="580"
   id="svg2"
   sodipodi:version="0.32"
   inkscape:version="0.91 r13725"
   sodipodi:docname="hazard_minefield.svg"
   inkscape:output_extension="org.inkscape.output.svg.inkscape">
  <metadata
     id="metadata10">
    <rdf:RDF>
      <cc:Work
         rdf:about="">
        <dc:format>image/svg+xml</dc:format>
        <dc:type
           rdf:resource="http://purl.org/dc/dcmitype/StillImage" />
        <cc:license
           rdf:resource="http://web.resource.org/cc/PublicDomain" />
        <dc:language>en</dc:language>
        <dc:title />
      </cc:Work>
    </rdf:RDF>
  </metadata>
  <sodipodi:namedview
     inkscape:window-height="1006"
     inkscape:window-width="1920"
     inkscape:pageshadow="2"
     inkscape:pageopacity="0.0"
     guidetolerance="10.0"
     gridtolerance="10.0"
     objecttolerance="10.0"
     borderopacity="1.0"
     bordercolor="#666666"
     pagecolor="#ffffff"
     id="base"
     showgrid="false"
     inkscape:zoom="0.70710678"
     inkscape:cx="26.879721"
     inkscape:cy="267.4239"
     inkscape:window-x="1920"
     inkscape:window-y="0"
     inkscape:current-layer="svg2"
     showguides="true"
     inkscape:guide-bbox="true"
     inkscape:window-maximized="1" />
  <defs
     id="defs4">
    <inkscape:perspective
       sodipodi:type="inkscape:persp3d"
       inkscape:vp_x="0 : 290 : 1"
       inkscape:vp_y="0 : 1000 : 0"
       inkscape:vp_z="580 : 290 : 1"
       inkscape:persp3d-origin="290 : 193.33333 : 1"
       id="perspective12" />
    <style
       type="text/css"
       id="style6">
   
    .fil0 {fill:#EF7900}
   
  </style>
    <inkscape:perspective
       id="perspective6807"
       inkscape:persp3d-origin="29.116032 : 19.410688 : 1"
       inkscape:vp_z="58.232063 : 29.116032 : 1"
       inkscape:vp_y="0 : 1000 : 0"
       inkscape:vp_x="0 : 29.116032 : 1"
       sodipodi:type="inkscape:persp3d" />
    <inkscape:perspective
       id="perspective6954"
       inkscape:persp3d-origin="290 : 193.33333 : 1"
       inkscape:vp_z="580 : 290 : 1"
       inkscape:vp_y="0 : 1000 : 0"
       inkscape:vp_x="0 : 290 : 1"
       sodipodi:type="inkscape:persp3d" />
    <inkscape:perspective
       id="perspective2541"
       inkscape:persp3d-origin="240 : 160 : 1"
       inkscape:vp_z="480 : 240 : 1"
       inkscape:vp_y="0 : 1000 : 0"
       inkscape:vp_x="0 : 240 : 1"
       sodipodi:type="inkscape:persp3d" />
    <inkscape:perspective
       id="perspective2750"
       inkscape:persp3d-origin="215 : 143.33333 : 1"
       inkscape:vp_z="430 : 215 : 1"
       inkscape:vp_y="0 : 1000 : 0"
       inkscape:vp_x="0 : 215 : 1"
       sodipodi:type="inkscape:persp3d" />
    <inkscape:perspective
       id="perspective2830"
       inkscape:persp3d-origin="0.5 : 0.33333333 : 1"
       inkscape:vp_z="1 : 0.5 : 1"
       inkscape:vp_y="0 : 1000 : 0"
       inkscape:vp_x="0 : 0.5 : 1"
       sodipodi:type="inkscape:persp3d" />
  </defs>
  <g
     id="g1327">
    <path
       d="M 66.275,1.768 C 24.94,1.768 1.704,23.139 1.704,66.804 L 1.704,516.927 C 1.704,557.771 22.598,579.156 63.896,579.156 L 515.92,579.156 C 557.227,579.156 578.149,558.84 578.149,516.927 L 578.149,66.804 C 578.149,24.203 557.227,1.768 514.627,1.768 C 514.624,1.768 66.133,1.625 66.275,1.768 z"
       style="fill:#111111;stroke:#eeeeee;stroke-width:3.40799999"
       id="path1329" />
  </g>
  <path
     inkscape:connector-curvature="0"
     style="fill:#ffffff;fill-opacity:1;stroke:none;stroke-width:0.88582677;stroke-linecap:round;stroke-linejoin:bevel;stroke-miterlimit:4;stroke-dasharray:none;stroke-opacity:1"
     d="m 328.20703,126.21094 c 0,0 -113.24225,245.81578 -113.68555,253.08594 -0.0845,1.25304 2.57423,-2.29332 7.08399,-9.09766 -0.0167,0.29856 -0.0109,0.52316 0.0312,0.60742 0.20207,0.40414 -0.025,0.0258 0.80859,0.10156 0.83354,0.0758 1.11088,0.10209 2.52539,0.20313 1.4145,0.10103 1.81935,0.5039 3.13282,0.5039 1.31347,0 2.32415,0.20313 3.43554,0.20313 1.11141,0 1.91881,0.80784 2.82813,1.41406 0.90933,0.60621 0.70733,0.80874 1.51562,1.21289 0.80828,0.40414 2.82881,0.30168 3.33399,0.0996 0.50518,-0.20208 1.51578,-2.01969 1.91992,-2.42383 0.40415,-0.40415 0.85941,-1.13703 1.61719,-2.32421 0.75777,-1.18719 0.90888,-1.81761 1.41406,-2.42383 0.50518,-0.60621 2.12245,-1.51721 3.13281,-1.82032 1.01037,-0.30311 1.31423,-0.50497 2.02149,-0.70703 0.70725,-0.20208 2.32241,-1.91902 2.72656,-2.12109 0.40414,-0.20206 1.41406,-2.3249 1.41406,-2.83008 0,-0.50518 0.10103,-1.81814 0,-2.52539 -0.10103,-0.70725 -0.40288,-1.81852 -0.50391,-2.22266 -0.10104,-0.40415 -1.3146,-1.51562 -1.71875,-1.51562 -0.40414,0 -2.82896,-0.3022 -3.73828,-0.20117 -0.90933,0.10104 -1.61643,1.3137 -2.22265,1.91992 -0.60621,0.60621 -0.8077,1.61645 -1.00977,2.22266 -0.20207,0.60622 -0.4043,2.01967 -0.4043,2.42382 0,0.40414 -1.31302,2.62674 -1.41406,3.33399 -0.10103,0.70725 -1.31333,0.80875 -2.22265,1.21289 -0.90933,0.40415 -1.61719,-1.00992 -1.61719,-1.41406 0,-0.40415 0.68162,-1.43957 0.30273,-3.33399 -0.37889,-1.89443 -1.01007,-3.53689 -1.81836,-4.24414 -0.80828,-0.70725 -1.23771,-0.68118 -2.62695,-1.7168 -0.64308,-0.47938 -0.94409,-1.20801 -1.25781,-1.77929 36.72372,-58.56116 115.05078,-190.9668 115.05078,-190.9668 L 328.20703,126.21094 Z M 328.64844,148 l 3.5,2.61914 -22.26367,37.49414 C 309.88477,185.93301 328.64844,148 328.64844,148 Z m -83.28516,20.93555 -25.72851,13.51757 c 0,0 -6.1223,52.60739 -11.70118,103.28516 -0.36059,0.96456 -0.83986,1.9157 -1.45117,1.71484 -1.76813,-0.58096 -3.10726,-1.81993 -4.95117,-2.12304 -1.8439,-0.3031 -2.32475,0.506 -2.42578,0.91015 -0.10104,0.40414 0.38054,0.78244 -0.80664,1.00977 -1.18718,0.22734 -2.40061,-0.7816 -3.94141,-0.0996 -1.5408,0.682 -2.42473,1.9188 -2.22265,2.82813 0.20207,0.90932 0.80912,2.72725 0.91015,3.23242 0.10104,0.50518 1.00977,5.25406 1.00977,5.6582 0,0.40415 -0.45527,1.61727 -1.61719,3.13281 -1.16192,1.51555 -1.71778,1.5657 -3.03125,2.92969 -1.31347,1.36399 -1.71748,0.65623 -2.22266,2.52539 -0.50518,1.86917 10e-4,4.24391 0.20313,4.95117 0.20207,0.70725 0.30289,3.83926 0.70703,4.84961 0.40415,1.01037 2.02021,2.52697 2.52539,2.83008 0.50518,0.30311 3.23258,2.1202 3.63672,2.32227 0.40415,0.20207 2.98074,1.54231 5.6582,1.41601 1.9723,-0.093 2.60316,3.79703 3.66602,2.24805 -0.92118,8.79123 -1.73534,16.81218 -2.42578,23.91406 -2.31824,0.30244 -4.90787,-0.0957 -9.1211,-0.0957 -3.39435,0 -6.36783,-0.11933 -8.16797,-0.17969 -2.87956,-18.61408 -7.00335,-42.90119 -9.85937,-59.44336 2.01866,-0.001 5.22575,0 5.8457,0 0.80202,0 4.69795,0.57287 5.15625,0 0.4583,-0.57288 1.26042,-1.03262 1.375,-1.94922 0.11457,-0.9166 0.57225,-2.63349 0.22852,-3.09179 -0.34372,-0.4583 -2.40562,-2.40699 -2.63477,-3.55274 -0.22915,-1.14574 -1.25968,0.11506 -0.22851,-2.29101 1.03117,-2.40607 1.94801,-3.43829 3.09375,-5.27149 1.14575,-1.83319 0.80087,-0.45788 2.17578,-3.32226 1.37489,-2.86436 1.83271,-2.86339 2.29101,-4.23829 0.45829,-1.37489 0.91797,-1.83469 0.91797,-2.63671 0,-0.80203 -0.57287,-1.14459 0,-1.83204 0.57288,-0.68745 1.00271,-0.9453 2.40625,-0.6875 1.40355,0.2578 2.63416,1.71875 3.20703,1.71875 0.57287,0 1.80478,0.3997 3.09375,-0.23046 1.28896,-0.63016 0.91675,0.80249 2.0625,-2.29102 1.14574,-3.09352 0.83142,-2.1479 1.14649,-3.66602 0.31508,-1.51812 -1.60534,-1.14593 0.11328,-2.40625 1.71862,-1.26032 0.57366,-0.34383 1.83398,-1.375 1.26031,-1.03117 2.17645,-2.06256 2.29102,-2.75 0.11458,-0.68745 0.45898,-1.948 0.45898,-3.09375 0,-1.14575 -0.11457,-1.83213 0,-3.20703 0.11458,-1.3749 0.11328,-2.63484 0.11328,-3.66601 0,-1.03118 10e-4,-1.6049 -0.11328,-2.52149 -0.11457,-0.9166 -0.1159,-1.1459 -0.57422,-2.0625 -0.4583,-0.9166 -0.9148,-3.20769 -2.06054,-3.32226 -1.14574,-0.11458 -2.29196,-0.68678 -6.1875,0.45898 -3.89554,1.14574 -8.4799,5.61275 -9.39649,7.2168 -0.9166,1.60405 -9.62311,19.47872 -10.65429,22.22851 -1.03117,2.7498 -5.38545,8.82118 -5.84375,11.68555 -0.23159,1.44744 -1.1037,3.67975 -1.92774,5.7461 -0.47492,-2.71339 -1.39843,-8.01563 -1.39843,-8.01563 L 166,291.0293 c 0,0 18.89908,82.66707 20.84961,84.79492 0.30041,0.32772 0.34676,-0.63072 0.21094,-2.5 0.0412,0.27366 0.11682,0.6858 0.12304,0.8164 0.10103,2.12175 3.03186,1.11201 4.64844,1.61719 1.54552,0.48297 6.48245,1.74241 7.28516,1.94531 0.008,0.0289 0.0137,0.083 0.0234,0.10157 0.008,-0.0143 0.0233,-0.0694 0.0313,-0.0859 0.0272,0.007 0.22385,0.0569 0.23828,0.0605 0.14684,0.0367 0.85867,-2.78001 1.61523,-6.66602 8.85139,-35.01804 44.33789,-202.17773 44.33789,-202.17773 z M 370.94531,198.58594 270.6543,325.04297 378.79492,212.54102 370.94531,198.58594 Z m -105.85937,4.31836 c -0.49613,0 -2.15871,1.24015 -3.17578,2.48047 -1.01706,1.24033 0.0501,0.61999 -0.89258,2.48046 -0.94265,1.86049 -2.38278,4.26831 -2.87891,4.96289 -0.49613,0.69458 -0.71883,2.35669 -2.38086,4.56446 -1.66202,2.20778 -2.85258,2.69305 -4.26562,4.26562 -0.12496,0.13907 -2.28278,2.48044 -2.67969,2.97657 -0.3969,0.49613 0.19802,3.57184 0.39648,3.96875 0.19845,0.3969 1.68672,2.9781 1.98438,3.375 0.29768,0.39691 1.88591,2.67927 2.18359,3.07617 0.29768,0.39691 2.58001,2.6785 3.57227,2.87695 0.99225,0.19846 2.25634,0.99107 3.76953,0.19727 1.5132,-0.79381 0.79481,-1.66141 2.2832,-3.37305 1.48839,-1.71165 2.03465,-1.81063 3.67188,-3.47266 1.63722,-1.66202 1.85989,-1.61298 2.87695,-3.17578 1.01707,-1.56281 0.0999,-1.51337 1.19141,-3.07617 1.09149,-1.5628 2.77693,-2.97538 3.17383,-3.17383 0.39691,-0.19845 1.88584,-2.2579 3.17578,-3.67187 1.28993,-1.41396 1.19056,-0.54561 1.98437,-1.98438 0.7938,-1.43877 0.89373,-3.27535 1.19141,-3.77148 0.29767,-0.49613 1.26383,-1.95828 1.68554,-3.66992 0.4217,-1.71165 0.96745,-1.76182 0,-3.17579 -0.96746,-1.41397 -2.1575,-2.08355 -3.86914,-2.48046 -1.71165,-0.3969 -1.31453,0.49566 -2.97656,0.89257 -1.66203,0.3969 -2.10906,0.67052 -3.67187,0.69532 -1.5628,0.0248 -0.99246,-0.14919 -2.58008,-0.59571 -1.58761,-0.44651 -3.2734,-1.1914 -3.76953,-1.1914 z m 68.86133,12.70117 c -1.9101,0.0248 -1.53702,0.34799 -2.77735,1.19141 -1.24031,0.84342 -1.88592,1.78473 -2.18359,2.18164 -0.29768,0.3969 -2.35553,1.11618 -4.26563,1.48828 -1.91009,0.37209 -2.68042,0 -3.375,0 -0.69459,0 -1.33896,-0.27131 -2.87695,-0.0977 -1.538,0.17365 -2.87653,0.29684 -3.27344,0.79297 -0.3969,0.49612 -1.68746,1.68708 -2.18359,2.08398 -0.49613,0.3969 -2.184,2.2816 -2.2832,2.87696 -0.0992,0.59535 -0.99216,2.18349 -1.48829,3.67187 -0.49612,1.48839 -0.79293,1.58705 -1.28906,2.38086 -0.49613,0.7938 -0.89258,2.38198 -0.89258,3.17578 0,0.79381 0.0988,2.38083 0.39649,2.87696 0.29767,0.49613 0.69527,3.17536 1.1914,3.57226 0.49612,0.39691 1.2898,2.08356 1.98438,2.48047 0.69458,0.3969 2.28118,0.79492 3.27344,0.79492 0.99226,0 1.58782,0.69452 2.58008,0.99219 0.99226,0.2977 3.27378,-0.0996 3.86914,-0.0996 0.59535,0 1.56375,-0.54484 3.27539,-1.78516 1.71164,-1.24033 2.77845,-2.67966 3.57226,-3.17578 0.79381,-0.49612 3.17418,-2.68045 3.76953,-2.8789 0.59536,-0.19846 2.8773,-2.18161 3.47266,-2.67774 0.59534,-0.49613 0.69601,-1.78581 1.88672,-3.47265 1.19071,-1.68684 2.28159,-2.77927 2.87695,-3.2754 0.59535,-0.49613 2.1076,-1.73544 2.28125,-3.27343 0.17365,-1.538 -1.11462,-1.51455 -1.58594,-2.87891 -0.47132,-1.36435 -0.0259,-1.11651 -0.29882,-2.58008 -0.27287,-1.46358 0.621,-2.18194 -0.79297,-3.27343 -1.41396,-1.09148 -2.95319,-1.1166 -4.86328,-1.0918 z m 58.36523,17.86523 c 0,0 -172.22654,164.68421 -167.52344,163.2793 5.67427,-1.68455 184.83789,-136.80859 184.83789,-136.80859 L 392.3125,233.4707 Z m 33.99805,51.45313 c 0,0 -150.13492,85.83513 -157.79297,92.1914 9.69077,-3.16041 165.26759,-73.67969 165.26758,-73.67968 l -7.47461,-18.51172 z m -189.25391,7.11719 c -0.3484,-0.008 -0.743,0.0723 -1.27344,0.26171 -1.4145,0.50519 -1.01038,0.93354 -2.62695,2.42383 -1.61658,1.49028 -2.32429,1.69321 -3.83984,3.53711 -1.51554,1.84391 -1.8943,1.74335 -2.22266,3.83985 -0.32837,2.09649 0.9082,4.0417 0.9082,4.54687 0,0.10105 1.11239,2.62516 1.31446,3.0293 0.20207,0.40415 1.91918,1.71838 2.52539,2.02148 0.60622,0.30311 3.84014,-0.30236 4.64843,-0.60547 0.8083,-0.30312 2.04457,-0.15202 2.72657,-1.21289 0.682,-1.06088 0.17682,-1.33889 0,-3.03125 -0.17682,-1.69235 -0.85857,-1.91963 -0.70703,-3.73828 0.15155,-1.81865 1.01135,-3.13296 1.31445,-3.53711 0.30311,-0.40414 1.16094,-0.12533 1.3125,-1.3125 0.15156,-1.18716 -0.12608,-2.04631 -0.70703,-3.43555 -0.58096,-1.38923 -0.45333,-1.48962 -1.61524,-2.12109 -0.72619,-0.39467 -1.17715,-0.65244 -1.75781,-0.66601 z m 41.55078,2.125 c -0.61534,-0.0559 -1.42731,0.41975 -3.18945,1.73437 -1.76214,1.31462 -2.68462,2.50251 -3.85938,3.52344 -1.17476,1.02093 -0.11261,0.13903 -0.83984,0.55859 -0.72724,0.41956 -1.39707,0.55973 -2.06836,1.11914 -0.67129,0.55941 -0.56014,1.00677 -0.83984,2.79688 -0.27971,1.79012 0.72728,1.28828 1.5664,2.63086 0.83911,1.34255 0.55973,0.50197 1.11914,1.28515 0.55941,0.78317 0.67106,0.72881 1.23047,1.06446 0.55941,0.3357 1.11888,-7.4e-4 1.56641,-0.0566 0.44752,-0.0559 1.62194,-1.28656 1.8457,-1.39844 0.22377,-0.11189 0.76925,-1.1891 1.56641,-1.90235 0.79716,-0.71325 1.23145,-0.83929 1.62304,-0.95117 0.39158,-0.11188 1.73397,-2.18109 2.01368,-2.29297 0.2797,-0.11189 1.67858,-0.95117 1.90234,-0.95117 0.2238,0 0.44713,-1.04884 0.2793,-2.18164 -0.16782,-1.13281 -0.44771,-1.42658 -0.95117,-2.34961 -0.50347,-0.92302 -0.32128,-0.68449 -1.0625,-1.3418 -0.74122,-0.65729 -1.28699,-1.2312 -1.90235,-1.2871 z m 136.91797,4.41406 c 0.17841,-0.0181 0.39914,0.0568 0.82031,0.2207 1.6847,0.65514 3.53121,2.82308 3.5,4.47656 -0.0312,1.65348 -0.69434,0.58459 -3.62695,2.11328 -2.9326,1.52871 -5.78984,4.51731 -8.10352,4.00586 -0.65011,-0.14371 -3.4862,-1.91576 -2.23828,-4.0996 1.24793,-2.18386 4.63134,-3.01443 7.25196,-4.63672 1.96546,-1.2167 1.86124,-2.02597 2.39648,-2.08008 z m -260.42578,16.43359 -10.0293,10.0293 c 0,0 6.0002,11.92457 13.49219,24.05078 -0.54013,0.49013 -1.36037,0.8628 -1.89062,1.30469 -0.60623,0.50518 -2.12284,1.51436 -2.83008,2.01953 -0.70726,0.50518 -1.91902,1.51645 -2.1211,2.42578 -0.20206,0.90932 1.5e-4,2.02127 0.4043,2.72852 0.40415,0.70725 1.81904,2.22243 2.32422,2.92968 0.50518,0.70725 1.41331,2.42518 2.01953,3.43555 0.60621,1.01036 0.80852,1.74236 1.91992,2.52539 1.11139,0.78303 1.81814,0.60547 2.52539,0.60547 0.70726,0 1.81851,-0.60547 2.22266,-0.60547 0.40414,0 1.79408,-1.16246 3.13281,-2.72851 0.5258,-0.61509 1.19361,-0.65114 1.73242,-0.71876 5.46847,7.12678 10.80454,12.15794 14.56836,11.30079 0,-1.48602 -27.4707,-59.30274 -27.4707,-59.30274 z m 72.75391,5.55274 c -0.69147,-0.0253 -1.41658,0.12748 -2.2754,0.22851 -1.71761,0.20208 -2.42435,1.00991 -2.52539,1.41406 -0.10103,0.40414 -0.40481,2.12246 -0.50585,3.13282 -0.10104,1.01036 -0.37822,1.76762 0.50585,2.52539 0.88406,0.75778 2.52607,0.50586 3.03125,0.50586 0.50519,0 2.42325,-0.30327 3.4336,-0.4043 1.01036,-0.10104 1.41617,-2.22319 1.82031,-2.32422 0.40415,-0.10104 0.0238,-3.0317 -1.41601,-4.24414 -0.71989,-0.60621 -1.3769,-0.80872 -2.06836,-0.83398 z m 131.49609,25.125 c -0.59535,0 -2.87667,1.04128 -6.8457,2.87695 -3.96902,1.83567 -6.15176,2.95165 -9.0293,4.46484 -2.87755,1.51322 -1.29171,0.44679 -2.48242,1.58789 -1.19071,1.14109 -2.18205,2.57967 -2.28125,2.97657 -0.0992,0.39691 0.19911,1.6126 1.6875,3.07617 1.48838,1.46358 2.87646,2.87654 4.26562,2.77734 1.38916,-0.0992 3.17496,-0.89258 3.96875,-0.89258 0.79381,0 3.96911,-0.89298 4.56446,-0.99218 0.59536,-0.0992 0.49752,0.99176 2.38281,1.38867 1.88529,0.3969 3.2729,0.9186 5.1582,0.19922 1.88529,-0.71939 1.9859,-2.87773 2.38281,-3.07618 0.3969,-0.19844 2.4804,-1.04246 3.47266,-2.67968 0.99226,-1.63722 0.37206,-2.35595 0.49609,-3.86914 0.12403,-1.51319 0.86823,-0.74483 0,-2.1836 -0.86823,-1.43877 -1.53775,-2.15829 -3.47265,-3.57226 -1.93489,-1.41396 -3.67222,-2.08203 -4.26758,-2.08203 z m 99.67969,0.28125 c 0,0 -200.03378,45.41863 -203.63672,47.96679 6.53968,0 215.41015,-27.47265 215.41015,-27.47265 L 459.0293,345.97266 Z m -292.35157,27.43359 c -0.75292,0.0657 -1.45272,0.45957 -1.97851,0.89258 -0.84126,0.6928 -0.49487,1.188 0,2.17773 0.49487,0.98972 0.74135,1.63279 1.97851,1.78125 1.23716,0.14846 2.62234,-0.0493 2.96875,-1.1875 0.34641,-1.13819 -0.34682,-2.67243 -1.58398,-3.36523 -0.46393,-0.25981 -0.93301,-0.33826 -1.38477,-0.29883 z m 61.32422,1.3418 c -1.50397,-0.0902 -1.13599,0.20094 -2.12109,0.9082 -0.9851,0.70726 -0.70696,0.70749 -1.81836,1.91992 -1.11139,1.21244 0,0.808 0,1.81836 0,1.01036 0.0252,0.78491 1.11133,1.11328 1.08614,0.32836 1.00964,0.10014 3.23242,0.20117 2.2228,0.10103 3.33572,-0.50458 4.04297,-1.00976 0.70725,-0.50518 1.13605,-0.45475 1.00976,-1.51563 -0.1263,-1.06087 -0.15163,-1.86971 -1.51562,-2.72851 -1.36398,-0.85881 -2.91949,-0.64563 -3.94141,-0.70703 z m -71.09375,2.19922 c -1.26277,0.0391 -2.50247,0.56825 -3.49218,1.31054 -1.58356,1.18767 -1.08862,2.5239 -0.59375,3.95899 0.49485,1.43511 0.49383,1.73185 2.57226,1.78125 2.07842,0.0495 4.80001,0.0491 5.74024,-1.58399 0.94024,-1.63304 -0.0486,-3.90805 -1.97852,-4.94726 -0.72373,-0.38971 -1.49038,-0.54302 -2.24805,-0.51953 z m 101.44727,2.8457 c -0.6078,0.0566 -1.21595,0.58674 -2.36524,1.11719 -1.31347,0.60622 -0.40429,1.41525 -0.40429,2.02148 0,0.60621 -9.1e-4,1.31297 0.20117,2.52539 0.20207,1.21244 1.31439,0.60706 2.42578,0.91016 1.1114,0.30311 2.32437,0.80769 2.72852,1.00976 0.40415,0.20208 3.43389,0.20171 4.24218,0.30274 0.80829,0.10103 2.72882,0.30469 3.53711,0.30469 0.80829,0 2.07073,-0.27778 2.52539,-1.11133 0.45467,-0.83354 0.12651,-1.2395 -0.70703,-2.22461 -0.83355,-0.9851 -1.03563,-0.83273 -2.62695,-1.7168 -1.59132,-0.88406 -2.04593,-1.13636 -3.73828,-1.81836 -1.69236,-0.682 -1.642,-0.5818 -3.03125,-0.91016 -1.38924,-0.32834 -1.81814,-0.30325 -2.52539,-0.40429 -0.0884,-0.0126 -0.17489,-0.014 -0.26172,-0.006 z m -85.52149,2.35351 c -16.71398,4.33598 -29.07421,19.52572 -29.07421,37.58985 0,21.43827 17.4133,38.84961 38.85156,38.84961 13.06393,0 24.61912,-6.46647 31.66015,-16.36524 -0.96776,-0.81529 -2.0017,-1.72753 -2.27148,-2.80664 -0.32336,-1.2935 0.0776,-2.69968 -0.97656,-3.7539 -0.82101,-0.82101 -1.32862,-1.86147 -2.58594,-2.17578 -1.17728,-0.29433 -3.05319,-0.44913 -4.35156,-0.18946 -0.94155,0.18831 -3.75391,1.30588 -3.75391,0 0,-1.05889 0.13697,-2.04849 -0.4082,-2.77539 -0.69139,-0.92186 -3.06428,0.33079 -3.34375,-0.78711 -0.32052,-1.2821 1.38882,-1.42006 2.55469,-2.58594 0.19795,-0.19795 -1.15192,-1.36537 0.59961,-0.5996 1.34773,0.58924 -0.32062,-3.20375 0.59765,-4.35157 0.9885,-1.23563 4.76172,-2.17645 4.76172,-3.75195 0,-1.1436 -0.31752,-1.65895 0,-3.75391 0.2635,-1.73844 -0.21369,-1.37968 -2.58398,-0.78711 -0.26393,0.066 -0.71175,-0.87365 -0.97852,-0.82031 -1.02899,0.2058 -3.53243,0.90692 -4.76172,0.59961 -1.37507,-0.34377 -1.46417,-1.52391 -2.58594,-2.36523 -1.03205,-0.77403 -1.34235,-0.78906 -2.77539,-0.78907 -1.67115,0 -2.23796,-1.48212 -3.34179,-2.58593 -1.30422,-1.30421 -2.2903,-1.76564 -4.16407,-1.76563 -2.21452,0 -4.12286,0.37891 -6.33789,0.37891 -1.24849,0 -3.85754,0.52526 -4.76172,-0.37891 -1.08146,-1.08146 -0.93213,-2.18141 -0.3789,-3.56445 0.50107,-1.2527 1.74347,-1.90879 2.17578,-2.77344 0.81582,-1.63166 3.43827,-1.49454 4.54101,-2.96484 0.78283,-1.04377 0.78908,-2.28728 0.78907,-3.97266 0,-1.68876 -0.94662,-3.60657 -1.95508,-4.95117 -0.75733,-1.00977 -2.29424,-1.4689 -2.58594,-1.95508 -0.49619,-0.82697 -1.13623,-2.5249 -1.79687,-3.18555 -0.22101,-0.22101 -0.47775,-0.43889 -0.75782,-0.66211 z m 25.79493,6.52735 c -1.99251,-0.0555 -3.19339,0.67475 -5.22852,1.06445 -2.32585,0.44537 -1.13903,-0.0483 -3.16797,0.79297 -2.02894,0.84127 -3.51215,0.88974 -4.94726,2.57227 -1.43509,1.68253 -1.28783,2.77063 -0.79297,4.15625 0.49486,1.38562 0.69306,1.04031 2.77148,1.38671 2.07843,0.34641 4.55325,0 5.54297,0 0.98973,0 2.27713,1.48357 3.76172,2.57227 1.48458,1.08869 0.93862,1.83065 2.17578,1.78125 1.23716,-0.0495 1.33637,-1.18674 2.77148,-1.97852 1.43511,-0.79178 1.43664,-0.19778 2.97071,-1.1875 1.53407,-0.98973 1.3845,-1.68279 3.16601,-2.77148 1.7815,-1.0887 3.85999,-0.4458 3.95899,-1.58398 0.099,-1.13819 -1.58305,-1.88005 -3.5625,-2.96875 -1.97945,-1.0887 -2.22755,-0.44453 -4.35547,-1.38477 -2.12791,-0.94024 -1.58297,-2.03055 -4.15625,-2.37695 -0.32166,-0.0433 -0.62356,-0.0663 -0.9082,-0.0742 z m 290.05078,6.13672 -179.2168,9.15625 181.39649,4.79687 -2.17969,-13.95312 z m -272.13477,7.98242 c -0.49563,0.0232 -0.99926,0.0833 -1.56836,0.20703 -2.27637,0.49486 -0.84101,0.0505 -1.78125,1.98047 -0.94024,1.92996 -0.59485,3.36488 -1.98047,5.74023 -1.38562,2.37534 -2.27586,2.0297 -3.5625,3.76172 -1.28665,1.73202 -1.38603,1.434 -1.58398,3.16602 -0.19795,1.73201 -0.14727,2.47509 0.79297,3.76172 0.94024,1.28661 0.93981,0.98888 2.96875,1.38476 2.02893,0.39589 4.15675,0.19922 5.14648,0.19922 0.98973,0 2.47355,0.0977 5.34375,-0.19922 2.87021,-0.29692 3.7119,-0.29548 6.13672,-0.98828 2.42484,-0.69281 2.17688,-0.6945 3.5625,-1.7832 1.38562,-1.0887 1.98047,-1.0382 1.98047,-2.57227 0,-1.53407 -0.94126,-2.4738 -1.98047,-3.5625 -1.03921,-1.0887 -1.82937,0.19676 -2.17578,-0.79297 -0.3464,-0.98972 -7.6e-4,-2.22577 0.79102,-3.16601 0.79178,-0.94024 1.33578,0.14854 2.375,-0.59375 1.03921,-0.74229 1.38536,-1.09031 1.78125,-2.37696 0.39589,-1.28664 0.44605,-1.7798 -0.19727,-2.76953 -0.64331,-0.98972 0.19828,-0.89253 -2.375,-1.18945 -2.57328,-0.29692 -4.10752,0 -7.91797,0 -2.85783,0 -4.26895,-0.27662 -5.75586,-0.20703 z m 26.82617,7.69336 c -0.66946,-0.009 -1.10489,-0.007 -1.28711,0.01 6.02147,5.9028 274.50977,36.86328 274.50977,36.86329 l -5.23437,-24.21876 c 0,0 -247.2349,-12.36081 -267.98829,-12.65429 z m 22.90039,11.37109 c -0.84587,0 -0.21181,-5.3e-4 -2.18554,0.21094 -1.97373,0.21148 -0.42222,0.42204 -1.05664,1.12695 -0.63441,0.7049 -0.35264,0.77664 0.0703,1.83399 0.42293,1.05736 1.12731,0.91496 1.76172,1.33789 0.63441,0.42295 0.49325,0.28356 1.62109,0.91797 1.12786,0.63441 1.26988,0.49272 2.67969,1.05664 1.4098,0.56392 0.84659,0.77609 1.26953,1.26953 0.42294,0.49343 1.1273,0.84447 1.76172,1.33789 0.63441,0.49344 1.54988,0.2127 1.90234,0.2832 0.35236,0.0705 0.21271,-0.65185 0.28321,-1.62109 0.0705,-0.96924 0.3877,-1.18088 0,-2.25586 -0.3877,-1.07497 -1.55079,-1.69247 -1.55079,-2.04492 1e-5,-0.35245 -1.85071,-1.5862 -2.96093,-2.25586 -1.11022,-0.66965 -0.58172,-0.12229 -1.48047,-0.42188 -0.89876,-0.29958 -1.26935,-0.77539 -2.11524,-0.77539 z m 72.24024,8.27344 c -0.69458,0 -2.43062,0.1748 -5.95313,0.29883 -3.52252,0.12395 -5.95624,-0.26178 -8.13671,0.19726 -0.17614,0.0371 -1.7852,1.98472 -1.28907,2.58008 0.49613,0.59535 0.69336,2.48043 0.69336,2.97656 0,0.49613 -0.96661,1.29015 -0.79297,2.58008 0.17365,1.28994 0.22315,1.73667 1.48828,2.58008 1.26513,0.84341 3.17537,0.79492 3.57227,0.79492 0.39691,0 4.76283,0.29647 5.55664,0.19727 0.79381,-0.0992 8.33472,0.39648 9.0293,0.39648 0.69458,0 7.44206,1.09257 9.1289,1.29102 1.68684,0.19845 3.07569,0.0733 4.46485,-0.79492 1.38916,-0.86822 0.81891,-1.363 1.09179,-2.67774 0.27287,-1.31474 0.89303,-1.29015 0,-2.58008 -0.89304,-1.28994 -1.63736,-1.36455 -3.57226,-2.58008 -1.9349,-1.2155 -2.43152,-1.09249 -4.16797,-2.2832 -1.73645,-1.19071 -1.98354,-2.38127 -2.77734,-2.48047 -0.79381,-0.0992 -7.64136,-0.49609 -8.33594,-0.49609 z m 118.86133,0.51562 39.00781,1.38672 0.75586,1.83008 0.3164,2.14453 c 10e-6,10e-6 0.29752,1.69841 -0.3164,1.54492 -0.61391,-0.15346 -39.76367,-6.75276 -39.76367,-6.90625 z M 228.35547,431.875 c 0.0776,0.29797 0.76411,0.71643 1.93164,1.23047 -0.52054,0.26747 -1.02344,0.94101 -1.02344,1.1582 0,0.28196 -1.90287,1.47905 -2.46679,2.04297 -0.56392,0.56392 -1.33966,1.19869 -2.18555,2.18555 -0.84587,0.98687 -1.40802,0.98758 -1.47852,1.26953 -0.0287,0.11495 0.30963,0.45685 0.7168,0.83594 -3.44166,-1.00527 -5.71939,-1.50306 -6.39453,-1.31055 1.27373,2.97204 76.30859,44.47851 76.30859,44.47851 l 41.42578,-1.74414 c 0,0 -25.81035,-10.18277 -53.23047,-20.5996 0.58173,-0.59035 0.66235,-1.15387 1.3711,-1.5 0.75778,-0.37008 1.26881,0.0701 1.55078,0.14062 0.28195,0.0705 1.76297,-0.14222 2.04492,-0.2832 0.28197,-0.14098 -0.33573,-0.43985 -0.42383,-1.05664 -0.0881,-0.61679 0.45802,-0.5819 0.0703,-1.41016 -0.3877,-0.82827 -0.98668,-1.62038 -1.6211,-1.90234 -0.63441,-0.28196 -1.4794,-0.63477 -1.90234,-0.63477 -0.42295,0 -1.9043,-0.49378 -2.67969,-0.63477 -0.77539,-0.14097 -2.32458,-0.28161 -2.95898,-0.14062 -0.63442,0.14097 -1.26935,1.19815 -1.33985,1.62109 -0.0705,0.42294 -0.47844,1.00916 -1.05664,2.32618 -0.0148,0.0336 -0.24742,0.42937 -0.40039,0.6875 -9.55216,-3.60234 -19.05243,-7.1345 -27.48828,-10.16993 1.30649,-0.41982 2.60711,-1.3058 3.63867,-1.44336 1.05735,-0.14098 0.9705,-0.21181 1.0586,-1.41015 0.0881,-1.19833 -0.35263,-3.17134 -0.70508,-3.38281 -0.35246,-0.21147 -1.62163,-1.76296 -2.18555,-2.04493 -0.56393,-0.28196 -5.4984,-2.74796 -6.13281,-2.81836 -0.18515,-0.0206 -0.55529,-0.18689 -0.97852,-0.39453 44.95686,13.26166 187.11328,45.28516 187.11328,45.28516 l 64.1875,1.5332 c 0,0 -255.77644,-52.33408 -264.76562,-51.91406 z m 67.6875,2.72266 c -0.39688,0 -0.29611,2.47885 -0.0977,3.07422 0.19845,0.59534 -0.79388,1.93546 0.99219,3.17578 1.78606,1.24031 5.06087,1.68791 6.15234,1.78711 1.09148,0.0992 5.38247,0.2729 7.44141,-0.4961 2.05893,-0.769 1.31391,-1.46379 0.79297,-2.58008 -0.52093,-1.11629 -0.84283,-0.82003 -2.87695,-1.88671 -2.03413,-1.06669 -3.35997,-1.54591 -5.25977,-2.38086 -1.99481,-0.87668 -1.38778,0.074 -3.17383,-0.0996 -1.78606,-0.17365 -3.5738,-0.59375 -3.9707,-0.59375 z m -75.52344,17.49414 c -0.74229,-0.0247 -1.38663,0.0481 -1.98047,0.39453 -1.18767,0.6928 -0.29626,1.13912 -0.19726,2.57422 0.099,1.43511 -0.49495,2.17824 0.59375,3.16797 1.0887,0.98972 1.83175,0.0487 3.76172,0.79101 1.92996,0.7423 2.22501,1.03956 3.95703,2.17774 1.73202,1.13819 1.18919,1.83065 2.9707,2.375 1.7815,0.54434 3.11703,0.54502 4.15625,-0.19727 1.03921,-0.74229 0.34639,-0.79203 0,-2.77148 -0.34641,-1.97945 0.44622,-3.21653 -1.38477,-5.14649 -1.83099,-1.92997 -3.61359,-1.78244 -5.93945,-2.57422 -2.32586,-0.79178 -1.38578,-0.49475 -3.36523,-0.59375 -0.98973,-0.0495 -1.82997,-0.17252 -2.57227,-0.19726 z M 327.125,463.32031 c -0.20097,0.006 -0.43347,0.0248 -0.71875,0.0527 -2.28219,0.22326 -0.4468,1.0417 -1.58789,2.48047 -1.14109,1.43877 -2.406,2.18195 -2.97656,3.27343 -0.57055,1.09149 -0.89231,0.0747 0.69531,1.0918 1.58761,1.01706 2.58025,0.84321 5.65625,2.97656 3.076,2.13335 7.54146,5.06051 6.64844,5.55664 l 42.86523,0.0996 c 0,0 -10.9156,-4.46525 -11.3125,-4.56445 -0.39691,-0.0992 -6.47424,-3.12522 -14.58594,-5.45703 -8.11171,-2.3318 -11.51088,-2.50675 -17.86132,-3.8711 -5.55665,-1.1938 -5.41547,-1.68411 -6.82227,-1.63867 z"
     id="path1974" />
  <path
     inkscape:connector-curvature="0"
     style="fill:#ffffff;fill-opacity:1;fill-rule:evenodd;stroke:none"
     d="m 292.5625,39.988278 a 56.357442,56.358974 0 0 0 -5.67383,0.01563 56.357442,56.358974 0 0 0 -45.80664,28.117189 L 26.300781,440.04102 a 56.357442,56.358974 0 0 0 48.753907,84.51757 l 429.781252,0.32813 a 56.357442,56.358974 0 0 0 48.86328,-84.51758 l -215,-372.248048 A 56.357442,56.358974 0 0 0 292.5625,39.988278 Z m 0.0566,46.441408 c 8.20067,0.05801 17.57617,18.167974 17.57617,18.167974 l 197.82422,342.67578 c 0,0 7.43371,15.49359 3.20899,23.08398 -4.22471,7.59039 -16.38672,8.02344 -16.38672,8.02344 L 94.367188,477.96484 c 0,0 -15.29513,0.17409 -19.5,-6.9414 -4.20487,-7.11549 0.673828,-20.83985 0.673828,-20.83985 L 275.74219,103.39062 c 0,0 8.67628,-17.018947 16.87695,-16.960934 z"
     id="path2990" />
</svg>
