<svg width="24" height="24" viewBox="0 0 24 24" fill="none" xmlns="http://www.w3.org/2000/svg">
<path fill-rule="evenodd" clip-rule="evenodd" d="M16.9285 4.62858C16.7318 4.13698 16.1861 3.88385 15.6838 4.05129L12.6838 5.05129L13.3162 6.94866L15.4217 6.24683L16.207 8.2102L13.8377 8.99997H9.58113C8.64137 8.99997 7.70776 8.84847 6.81622 8.55129C5.72075 8.18613 4.57358 7.99997 3.41886 7.99997H2.99999C2.44771 7.99997 1.99999 8.44769 1.99999 8.99997C1.99999 9.55226 2.44771 9.99997 2.99999 9.99997H3.41886C4.35862 9.99997 5.29223 10.1515 6.18377 10.4487C6.3323 10.4982 6.48179 10.5444 6.63212 10.5873C7.57139 11.0587 8.29526 11.8858 8.63245 12.8974L8.74075 13.2223C8.74667 13.24 8.75306 13.2576 8.75989 13.2748L7.34862 13.4865C7.21945 13.4558 7.1027 13.3741 7.03108 13.25C6.89822 13.0199 6.96908 12.728 7.1877 12.5833C6.96697 12.2926 6.70739 12.033 6.41669 11.8123C6.27198 12.031 5.98012 12.1018 5.74999 11.969C5.51962 11.836 5.43513 11.5473 5.55267 11.3125C5.2218 11.173 4.86824 11.0768 4.49906 11.0308C4.48314 11.2926 4.26579 11.5 4 11.5C3.73421 11.5 3.51685 11.2926 3.50093 11.0308C3.13176 11.0768 2.7782 11.173 2.44733 11.3125C2.56484 11.5473 2.48035 11.8359 2.24999 11.9689C2.01987 12.1018 1.72804 12.0309 1.58332 11.8123C1.29263 12.033 1.03306 12.2926 0.812339 12.5833C1.03091 12.728 1.10175 13.0198 0.968899 13.2499C0.835907 13.4803 0.547305 13.5647 0.312539 13.4473C0.173037 13.7782 0.0767731 14.1317 0.0308228 14.5009C0.292605 14.5169 0.499991 14.7342 0.499991 15C0.499991 15.2658 0.292605 15.4831 0.0308228 15.4991C0.0767695 15.8682 0.173023 16.2218 0.312507 16.5527C0.547279 16.4352 0.835902 16.5196 0.9689 16.75C1.10176 16.9801 1.03091 17.272 0.812293 17.4167C1.03303 17.7074 1.29262 17.967 1.58334 18.1877C1.72807 17.9691 2.01988 17.8983 2.24999 18.0311C2.48033 18.1641 2.56483 18.4527 2.44735 18.6875C2.77821 18.827 3.13176 18.9232 3.50093 18.9692C3.51685 18.7074 3.7342 18.5 3.99999 18.5C4.26578 18.5 4.48313 18.7074 4.49906 18.9692C4.86823 18.9232 5.22178 18.827 5.55264 18.6875C5.43514 18.4527 5.51963 18.1641 5.74998 18.0311C5.98011 17.8982 6.27194 17.9691 6.41666 18.1877C6.70739 17.967 6.96699 17.7073 7.18774 17.4166C6.96908 17.2719 6.8982 16.98 7.03107 16.7499C7.16408 16.5195 7.45273 16.435 7.68751 16.5526C7.82698 16.2217 7.92322 15.8682 7.96916 15.4991C7.89861 15.4948 7.83202 15.4759 7.77237 15.4453L13.4317 14.5964C14.1262 14.4922 14.7622 14.1476 15.2289 13.6227L17.3966 11.184L17.6962 11.9331C17.6531 11.9002 17.6147 11.8597 17.5833 11.8122C17.2926 12.033 17.0331 12.2925 16.8123 12.5832C17.0309 12.7279 17.1017 13.0197 16.9689 13.2498C16.8359 13.4802 16.5473 13.5647 16.3125 13.4472C16.173 13.7781 16.0768 14.1317 16.0308 14.5009C16.2926 14.5168 16.5 14.7341 16.5 14.9999C16.5 15.2657 16.2926 15.4831 16.0308 15.499C16.0768 15.8682 16.173 16.2217 16.3125 16.5526C16.5473 16.4351 16.8359 16.5196 16.9689 16.7499C17.1018 16.9801 17.0309 17.2719 16.8123 17.4166C17.033 17.7073 17.2926 17.9669 17.5833 18.1876C17.7281 17.9691 18.0199 17.8982 18.25 18.0311C18.4803 18.1641 18.5648 18.4527 18.4474 18.6874C18.7782 18.8269 19.1318 18.9232 19.5009 18.9691C19.5169 18.7073 19.7342 18.4999 20 18.4999C20.2658 18.4999 20.4831 18.7073 20.4991 18.9691C20.8682 18.9232 21.2218 18.8269 21.5526 18.6874C21.4351 18.4526 21.5196 18.164 21.75 18.031C21.9801 17.8982 22.2719 17.969 22.4167 18.1876C22.7074 17.9669 22.967 17.7073 23.1877 17.4165C22.9691 17.2718 22.8982 16.98 23.0311 16.7498C23.1641 16.5195 23.4527 16.435 23.6875 16.5525C23.827 16.2217 23.9232 15.8681 23.9692 15.499C23.7074 15.4831 23.5 15.2657 23.5 14.9999C23.5 14.7341 23.7074 14.5168 23.9692 14.5009C23.9232 14.1317 23.827 13.7781 23.6875 13.4473C23.4527 13.5648 23.1641 13.4803 23.0311 13.2499C22.8982 13.0198 22.9691 12.728 23.1877 12.5833C22.967 12.2926 22.7074 12.033 22.4167 11.8122C22.272 12.0309 21.9801 12.1018 21.75 11.9689C21.5196 11.8359 21.4351 11.5472 21.5527 11.3125C21.2218 11.173 20.8682 11.0767 20.4991 11.0308C20.4831 11.2925 20.2658 11.4999 20 11.4999C19.8325 11.4999 19.6842 11.4176 19.5935 11.2911L19.5048 11.0693C19.503 11.0566 19.5017 11.0438 19.5009 11.0308C19.4973 11.0312 19.4936 11.0317 19.4899 11.0322L16.9285 4.62858ZM18.4282 13.7631L19.0715 15.3714C19.2766 15.8841 19.8586 16.1336 20.3714 15.9284C20.8842 15.7233 21.1336 15.1414 20.9285 14.6286L20.2851 13.0201C21.2546 13.1585 22 13.9921 22 14.9999C22 16.1045 21.1046 16.9999 20 16.9999C18.8954 16.9999 18 16.1045 18 14.9999C18 14.533 18.16 14.1034 18.4282 13.7631ZM5.56461 13.7541C5.19816 13.2945 4.63347 13 3.99999 13C2.89542 13 1.99999 13.8954 1.99999 15C1.99999 16.1046 2.89542 17 3.99999 17C4.84624 17 5.56972 16.4744 5.86184 15.7319L4.14833 15.9889C3.60216 16.0708 3.09298 15.6945 3.01106 15.1483C2.92913 14.6021 3.30548 14.093 3.85165 14.011L5.56461 13.7541Z" fill="white"/>
</svg>
