<svg width="580" height="580" viewBox="0 0 580 580" fill="none" xmlns="http://www.w3.org/2000/svg">
<g clip-path="url(#clip0)">
<path fill-rule="evenodd" clip-rule="evenodd" d="M260.325 38.5762H298.064V451.888H260.719L260.325 38.5762Z" fill="#3f3f3f" stroke="#3f3f3f" stroke-width="15.4835" stroke-linecap="round" stroke-linejoin="round"/>
<path fill-rule="evenodd" clip-rule="evenodd" d="M445.493 183.796L420.484 202.329L273.354 174.026L274.253 132.92L419.81 151.788L445.493 183.796Z" fill="#3f3f3f" stroke="#3f3f3f" stroke-width="15.5688" stroke-linecap="round" stroke-linejoin="round"/>
<path fill-rule="evenodd" clip-rule="evenodd" d="M103.538 212.325L131.616 228.273L278.745 181.102L280.542 138.199L132.29 177.733L103.538 212.325Z" fill="#3f3f3f" stroke="#3f3f3f" stroke-width="15.5688" stroke-linecap="round" stroke-linejoin="round"/>
<path fill-rule="evenodd" clip-rule="evenodd" d="M403.122 67.2005L385.743 97.114L264.051 129.978L254.983 88.1809L385.131 54.3892L403.122 67.2005Z" fill="#3f3f3f" stroke="#3f3f3f" stroke-width="14.9316" stroke-linecap="round" stroke-linejoin="round"/>
<path fill-rule="evenodd" clip-rule="evenodd" d="M153.911 72.8949L171.289 102.808L292.982 135.673L302.049 93.8752L171.902 60.0835L153.911 72.8949Z" fill="#3f3f3f" stroke="#3f3f3f" stroke-width="14.9316" stroke-linecap="round" stroke-linejoin="round"/>
<path fill-rule="evenodd" clip-rule="evenodd" d="M37.1495 370.739C37.0638 369.713 106.374 394.9 106.374 394.9L62.8717 426.845L118.7 462.505L64.4651 478.644L120.192 513.547L172.572 498.601L185.884 519.723L240.338 537.625L332.798 531.342L390.302 513.602L461.19 521.864L476.913 506.055L508.773 501.879L542.85 473.648L505.148 420.902L381.165 374.099L508.773 345.869L452.945 331.753L357.239 332.496L249.933 342.154L178.878 339.925L153.502 352.555C153.502 352.555 59.2989 367.794 37.1495 370.739Z" stroke="#3f3f3f" stroke-width="19.5152" stroke-linecap="round" stroke-linejoin="round"/>
<path opacity="0.2" fill-rule="evenodd" clip-rule="evenodd" d="M37.1495 370.739C37.0638 369.713 106.374 394.9 106.374 394.9L62.8717 426.845L118.7 462.505L64.4651 478.644L120.192 513.547L172.572 498.601L185.884 519.723L240.338 537.625L332.798 531.342L390.302 513.602L461.19 521.864L476.913 506.055L508.773 501.879L542.85 473.648L505.148 420.902L381.165 374.099L508.773 345.869L452.945 331.753L357.239 332.496L249.933 342.154L178.878 339.925L153.502 352.555C153.502 352.555 59.2989 367.794 37.1495 370.739Z" fill="#3f3f3f" stroke="#3f3f3f" stroke-width="19.5152" stroke-linecap="round" stroke-linejoin="round"/>
</g>
<defs>
<clipPath id="clip0">
<path d="M0 0H580V580H0V0Z" fill="#3f3f3f"/>
</clipPath>
</defs>
</svg>
