<svg width="48" height="48" viewBox="0 0 580 580" fill="none" xmlns="http://www.w3.org/2000/svg">
<path d="M215.298 353.28L153.071 244.858H27.9224L78.7945 274.307L47.3441 328.508C44.6618 333.423 43.3208 338.556 43.3208 343.906C43.3208 349.257 44.6618 354.39 47.3441 359.305L96.8479 445.63C99.0806 439.381 101.313 434.023 103.546 429.558L165.12 323.831L215.298 353.28ZM122.294 440.279C118.713 446.079 116.923 452.322 116.923 459.007C116.923 469.272 120.606 477.972 127.972 485.106C135.337 492.241 144.146 495.808 154.398 495.808H277.545V396.106H147.72C146.821 397.889 143.472 403.689 137.672 413.506L122.294 440.279ZM288.92 193.332H413.395L476.296 84.93L425.444 114.379L393.973 60.1576C388.173 49.906 379.255 44.78 367.22 44.7795H268.171C272.187 49.2321 275.537 53.691 278.219 58.1562L339.098 163.883L329.071 169.907L288.92 193.332ZM228.021 50.1302C213.739 50.1307 203.03 56.3731 195.896 68.8575L133.669 175.932C157.305 189.765 186.08 206.273 219.995 225.456C240.063 191.106 261.697 153.631 284.897 113.031L260.145 68.8575C253.011 56.3731 242.303 50.1307 228.021 50.1302ZM387.969 394.758V382.709V336.554L325.721 444.956L387.969 552.705V494.48H450.196C462.245 494.48 471.387 489.348 477.623 479.082L527.147 392.756C520.462 394.54 514.887 395.432 510.422 395.432L387.969 394.758ZM480.319 211.406C478.086 212.74 449.304 229.248 393.973 260.93C421.638 308.664 443.504 346.364 459.57 374.029H509.748C524.478 374.029 535.411 367.78 542.546 355.281C549.23 343.232 549.006 330.965 541.872 318.48L480.319 211.406Z" fill="white" />
</svg>