<svg width="580" height="580" viewBox="0 0 580 580" fill="none" xmlns="http://www.w3.org/2000/svg">
<path d="M59.7625 89.9644V502.598H523.401V250.136C514.904 260.56 504.167 271.75 498.527 277.39C487.184 288.733 479.435 212.553 471.882 208.776C468.272 206.971 462.492 204.098 455.57 201.027V394.983H324.583V287.331C311.063 279.675 299.515 273.085 294.339 270.497C262.668 254.662 274.198 196.273 261.28 187.661C256.773 184.656 255.998 182.566 251.528 181.16V389.788H125.59V168.011H234.407C218.776 126.913 128.745 150.907 117.608 139.771C108.04 130.202 115.577 104.604 112.384 89.9644H59.7625Z" fill="#3f3f3f"/>
</svg>
