<svg width="580" height="580" viewBox="0 0 580 580" fill="none" xmlns="http://www.w3.org/2000/svg">
<path d="M231.234 54.5751C119.407 54.5751 64.4746 89.8888 64.4746 133.05V525.425H397.993V133.05C397.993 89.8888 343.061 54.5751 231.234 54.5751ZM496.087 113.431C474.417 113.431 456.849 130.999 456.849 152.669C456.849 161.748 460.256 169.931 465.433 176.579L438.457 243.405C437.582 245.757 437.165 248.254 437.231 250.763V329.237H417.612V427.331H476.468C488.239 427.331 496.087 419.484 496.087 407.712V348.856C496.087 337.085 486.278 329.237 476.468 329.237V255.054L501.605 191.293C520.652 188.602 535.324 172.459 535.324 152.669C535.324 130.999 517.757 113.431 496.087 113.431ZM103.712 152.669H358.756V290H103.712V152.669ZM123.331 172.288V270.381H182.187V172.288H123.331ZM201.806 172.288V270.381H260.662V172.288H201.806ZM280.281 172.288V270.381H339.137V172.288H280.281ZM162.568 388.094H299.9L339.137 427.331H123.331L162.568 388.094Z" fill="white"/>
</svg>
