<svg width="24" height="24" viewBox="0 0 24 24" fill="none" xmlns="http://www.w3.org/2000/svg">
<path fill-rule="evenodd" clip-rule="evenodd" d="M1.49711 7.25722C1.80084 6.4979 2.53626 6 3.35407 6H15L18 10L23 11V13L24 14L23.5 16H21.8293C21.4175 17.1652 20.3062 18 19 18C17.6938 18 16.5825 17.1652 16.1707 16H7.82929C7.41746 17.1652 6.30622 18 5 18C3.69378 18 2.58254 17.1652 2.17071 16H0V11L1.49711 7.25722ZM5 16C5.55228 16 6 15.5523 6 15C6 14.4477 5.55228 14 5 14C4.44772 14 4 14.4477 4 15C4 15.5523 4.44772 16 5 16ZM19 16C19.5523 16 20 15.5523 20 15C20 14.4477 19.5523 14 19 14C18.4477 14 18 14.4477 18 15C18 15.5523 18.4477 16 19 16ZM3.99999 11V8H3.35405L2.15405 11H3.99999ZM11 11H16.25L14 8H11V11ZM9 8V11H6V8H9Z" fill="white"/>
</svg>
