<svg width="48" height="48" viewBox="0 0 48 48" fill="none" xmlns="http://www.w3.org/2000/svg">
<path d="M25 7C25 4.8 26.8 3 29 3C31.2 3 33 4.8 33 7C33 9.2 31.2 11 29 11C26.8 11 25 9.2 25 7ZM12.64 38.06L10.36 35.12L8 37L12.76 43.08C13.78 44.38 15.08 45.38 16.52 45.9C17.08 46.1 17.58 45.98 17.96 45.68C18.56 45.22 18.8 44.28 18.2 43.54C18.04 43.34 17.8 43.2 17.58 43.1C16.72 42.74 15.94 42.2 15.3 41.44L15.14 41.24L22 36.4L23.78 29.96L28 33.96V43H24V46H31.74C33.38 46 34.96 45.58 36.26 44.78C36.78 44.46 37 44 37 43.5C37 42.74 36.4 42 35.46 42C35.2 42 34.94 42.08 34.72 42.2C33.92 42.66 32.98 42.94 32 43V30.96L27.78 26.96L28.98 20.96C31.58 23.96 35.6 26 40 26V22C36.2 22 32.98 19.96 31.38 17.16L29.38 14C28.58 12.8 27.38 12 25.98 12C24.48 12 23.16 12.68 14 16.56V26H18V19.16L21.58 17.76L18.4 34L12.64 38.06Z" fill="white"/>
</svg>
