<svg width="48" height="48" viewBox="0 0 48 48" fill="none" xmlns="http://www.w3.org/2000/svg">
<g opacity="0.5">
<path d="M10.4166 33.2222C7.42566 29.4592 5.42274 24.6792 4.20618 20.056C4.302 20.2504 4.42964 20.4296 4.58576 20.5858C5.3668 21.3668 6.6872 21.4148 7.6667 20.9044C7.9125 20.7762 8.18882 20.6418 8.49782 20.504C9.38952 23.3724 10.5099 25.744 11.4754 27.4874C12.2551 25.1966 13.2585 22.1014 14.181 18.817C15.4391 18.5784 16.8699 18.3748 18.4918 18.2306C17.311 22.7076 15.906 27.1412 14.3197 31.4912L13.4142 30.5858C12.6331 29.8048 11.3668 29.8048 10.5858 30.5858C9.8659 31.3056 9.8095 32.4378 10.4166 33.2222Z" fill="white"/>
<path d="M37.5896 33.2222C40.5806 29.4592 42.5834 24.6792 43.8 20.056C43.7042 20.2504 43.5766 20.4296 43.4204 20.5858C42.6394 21.3668 41.319 21.4148 40.3394 20.9044C40.0936 20.7762 39.8174 20.6418 39.5084 20.504C38.6166 23.3724 37.4962 25.744 36.5308 27.4874C35.7512 25.1966 34.7476 22.1014 33.8252 18.817C32.5672 18.5784 31.1362 18.3748 29.5144 18.2306C30.6952 22.7076 32.1002 27.1412 33.6864 31.4912L34.592 30.5858C35.373 29.8048 36.6394 29.8048 37.4204 30.5858C38.1402 31.3056 38.1966 32.4378 37.5896 33.2222Z" fill="white"/>
</g>
<path d="M5.6836 6.93614C4.53564 7.50366 4 8.71942 4 10V19.1716C4 19.702 4.21072 20.2108 4.58578 20.5858C5.36684 21.3668 6.68722 21.4148 7.66674 20.9044C9.93888 19.7201 14.8193 18 24 18C33.1806 18 38.0612 19.7201 40.3332 20.9044C41.3128 21.4148 42.6332 21.3668 43.4142 20.5858C43.7892 20.2108 44 19.702 44 19.1716V10C44 8.71942 43.4644 7.50366 42.3164 6.93614C39.9196 5.75114 34.5864 4 24 4C13.4135 4 8.08048 5.75114 5.6836 6.93614Z" fill="white"/>
<path d="M24 32C26.2092 32 28 30.2092 28 28C28 25.7908 26.2092 24 24 24C21.7908 24 20 25.7908 20 28C20 30.2092 21.7908 32 24 32Z" fill="white"/>
<path d="M36.479 34.3494C34.6424 36.186 32.4288 37.5892 30 38.4672V44H18V38.4672C15.5712 37.5892 13.3575 36.186 11.521 34.3494L10.5858 33.4142C9.80474 32.6332 9.80474 31.3668 10.5858 30.5858C11.3668 29.8048 12.6332 29.8048 13.4142 30.5858L14.3495 31.521C16.0986 33.2702 18.2901 34.511 20.6898 35.111C22.8632 35.6542 25.1368 35.6542 27.3102 35.111C29.7098 34.511 31.9014 33.2702 33.6506 31.521L34.5858 30.5858C35.3668 29.8048 36.6332 29.8048 37.4142 30.5858C38.1952 31.3668 38.1952 32.6332 37.4142 33.4142L36.479 34.3494Z" fill="white"/>
</svg>
