<svg width="48" height="48" viewBox="0 0 48 48" fill="none" xmlns="http://www.w3.org/2000/svg">
<path fill-rule="evenodd" clip-rule="evenodd" d="M19.0918 4.87523C18.7561 4.09192 17.8489 3.72906 17.0656 4.06477C16.2823 4.40047 15.9194 5.30762 16.2552 6.09093L19.0327 12.5718C19.2107 12.9873 19.562 13.3038 19.9936 13.4377L24.7008 14.8986L18.4449 20.9138L18.4759 20.9326C18.0973 21.3079 17.8844 21.8305 17.9064 22.3797L18.1652 28.8501L11.2558 32.3048C10.303 32.7812 9.91675 33.9398 10.3932 34.8926C10.8696 35.8454 12.0282 36.2316 12.981 35.7552L21.0049 31.7433C21.6833 31.4041 22.0999 30.6988 22.0696 29.9409L21.9194 26.1853L27.0583 29.892L25.5235 36.0311C25.2652 37.0646 25.8935 38.1118 26.927 38.3702C27.9604 38.6286 29.0077 38.0002 29.266 36.9668L31.1178 29.56C31.3092 28.7944 31.0149 27.9894 30.3749 27.5278L25.8253 24.2461L31.8709 18.7308L39.8477 25.1986C40.5097 25.7353 41.4814 25.6338 42.0182 24.9718C42.5549 24.3099 42.4534 23.3381 41.7914 22.8014L30.3727 13.543C30.2203 13.4194 30.0456 13.326 29.8582 13.2678L21.5887 10.7014L19.0918 4.87523ZM36.1903 9.3408C36.1903 11.4713 34.4632 13.1984 32.3327 13.1984C30.202 13.1984 28.475 11.4713 28.475 9.3408C28.475 7.21023 30.202 5.48309 32.3327 5.48309C34.4632 5.48309 36.1903 7.21023 36.1903 9.3408ZM5.87445 35.2828C5.03235 35.1519 4.24357 35.7284 4.11265 36.5705C3.98174 37.4126 4.55827 38.2014 5.40037 38.3323L7.76465 38.6999L5.17451 42.5169C5.17451 42.5169 10.8263 41.9373 13.0013 39.514L42.1256 44.0417C42.9677 44.1726 43.7564 43.5961 43.8874 42.7539C44.0183 41.9119 43.4417 41.1231 42.5996 40.9921L5.87445 35.2828Z" fill="white"/>
</svg>
