<svg width="580" height="580" viewBox="0 0 580 580" fill="none" xmlns="http://www.w3.org/2000/svg">
<path d="M543.13 119.593C374.573 168.778 195.552 200.641 36.875 221.45" stroke="white" stroke-width="24.7344" stroke-linecap="round" stroke-linejoin="round"/>
<path d="M205.925 100.91C213.107 84.3846 205.533 65.1656 189.008 57.9832C172.482 50.8008 153.263 58.3749 146.081 74.9003C138.899 91.4257 146.473 110.645 162.998 117.827C179.524 125.01 198.743 117.435 205.925 100.91Z" fill="white"/>
<path d="M169.724 169.502L175.218 268.453" stroke="white" stroke-width="56.5548" stroke-linecap="round" stroke-linejoin="round"/>
<path d="M252.31 456.907L229.396 363.621L174.485 274.869" stroke="white" stroke-width="40.384" stroke-linecap="round" stroke-linejoin="round"/>
<path d="M507.025 470.366L489.644 469.05C489.828 474.414 487.345 480.187 482.899 483.067C480.776 484.442 478.322 485.219 475.639 485.317L97.9727 504.551L98.8394 524.721L475.398 504.998C484.066 504.467 485.592 502.877 492.996 498.364C500.532 493.482 507.286 479.246 507.025 470.366Z" fill="white"/>
<path d="M270.416 168.392L246.146 225.183L175.297 157.685" stroke="white" stroke-width="36.484" stroke-linecap="round" stroke-linejoin="round"/>
</svg>
