<svg width="24" height="24" viewBox="0 0 24 24" fill="none" xmlns="http://www.w3.org/2000/svg">
<path opacity="0.4" d="M10.4141 17.9732C8.34768 17.9025 6.58881 17.6991 5.13745 17.4482L6.29288 16.2928C7.23569 15.35 8.76429 15.35 9.7071 16.2928C10.1717 16.7574 10.4074 17.3643 10.4141 17.9732Z" fill="white"/>
<path d="M12 5.5C12 6.32843 11.3284 7 10.5 7C9.67157 7 9 6.32843 9 5.5C9 4.67157 9.67157 4 10.5 4C11.3284 4 12 4.67157 12 5.5Z" fill="white"/>
<path fill-rule="evenodd" clip-rule="evenodd" d="M9 9.5C9 8.67157 9.67157 8 10.5 8C11.1878 8 11.7674 8.46288 11.9444 9.0941C12.2009 9.36665 12.4627 9.62985 12.7065 9.85023C12.9899 10.1065 13.2048 10.2639 13.3354 10.3292C13.6506 10.4868 13.9777 10.4934 14.2517 10.4477C14.3869 10.4252 14.4996 10.3913 14.5759 10.364C14.6136 10.3505 14.6412 10.3391 14.6569 10.3323L14.6706 10.3262C14.79 10.2678 14.9176 10.244 15.0418 10.251L16.7107 8.58208C16.4758 8.06147 16.5722 7.42779 17 7L20 4L22 6L19 9C18.5722 9.42783 17.9384 9.52424 17.4178 9.28923L15.749 10.958C15.7651 11.2476 15.6114 11.5328 15.3354 11.6708C15.3211 11.678 15.3134 11.6826 15.3064 11.6869C15.2843 11.7002 15.2696 11.709 15.0804 11.7766C15.0177 11.799 14.9439 11.8231 14.8605 11.8465L13.707 13H16C16.5523 13 17 13.4477 17 14H23.1056C23.5996 14 24 14.4004 24 14.8944C24 15.572 23.6161 16.1857 22.9774 16.4118C21.3237 16.9973 17.6646 18 12 18C11.4526 18 10.924 17.9906 10.4141 17.9732C10.4091 17.5231 10.2791 17.0742 10.024 16.683L9.28923 17.4178C9.52424 17.9384 9.42783 18.5722 9 19L6 22L4 20L7 17C7.4278 16.5722 8.06147 16.4758 8.58208 16.7107L9.31689 15.9759C8.38092 15.3656 7.11448 15.4712 6.29289 16.2928L5.13746 17.4482C3.24056 17.1204 1.86895 16.7114 1.02263 16.4118C0.383914 16.1857 0 15.572 0 14.8944C0 14.4004 0.400449 14 0.894427 14H7C7 13.4477 7.44772 13 8 13H9V9.5ZM12.2928 13L13.3776 11.9152C13.1469 11.8692 12.9065 11.7918 12.6646 11.6708C12.4457 11.5614 12.2185 11.3999 12 11.2213V13H12.2928Z" fill="white"/>
</svg>
