<svg width="48" height="48" viewBox="0 0 580 580" fill="none" xmlns="http://www.w3.org/2000/svg">
<path d="M195.95 114.535C168.308 114.535 149.989 134.292 136.004 148.348C122.019 162.403 112.369 170.757 102.718 170.757V214.775C130.359 214.775 148.678 195.017 162.663 180.962C176.648 166.906 186.298 158.553 195.95 158.553C205.601 158.553 215.253 166.906 229.237 180.962C243.222 195.017 261.541 214.775 289.183 214.775C316.824 214.775 335.143 195.017 349.128 180.962C363.113 166.906 372.763 158.553 382.414 158.553C392.066 158.553 401.716 166.906 415.701 180.962C429.686 195.017 448.005 214.775 475.646 214.775V170.757C465.995 170.757 456.345 162.403 442.36 148.348C428.375 134.292 410.056 114.535 382.414 114.535C354.773 114.535 336.454 134.292 322.469 148.348C308.484 162.403 298.834 170.757 289.183 170.757C279.531 170.757 269.88 162.403 255.895 148.348C241.91 134.292 223.591 114.535 195.95 114.535Z" fill="white" />
<path fill-rule="evenodd" clip-rule="evenodd" d="M195.949 187.175C194.203 188.612 188.575 192.167 179.37 201.419C165.97 214.886 141.049 242.38 102.717 242.38C102.536 242.375 102.355 242.368 102.173 242.359V428.867H476.162V242.35C475.99 242.362 475.818 242.372 475.646 242.38C437.313 242.38 412.393 214.886 398.993 201.419C389.787 192.167 384.16 188.612 382.414 187.175C380.668 188.612 375.04 192.167 365.834 201.419C352.435 214.886 327.514 242.38 289.182 242.38C250.85 242.38 225.929 214.886 212.53 201.419C203.324 192.167 197.696 188.612 195.949 187.175V187.175Z" fill="white" fill-opacity="0.735577" />
<path d="M61.5129 112.959V470.211H518.487V109.992" stroke="white" stroke-width="28.4867" stroke-linecap="round" />
</svg>