<svg width="48" height="48" fill="none" version="1.1" viewBox="0 0 48 48" xmlns="http://www.w3.org/2000/svg">
 <namedview bordercolor="#666666" borderopacity="1" gridtolerance="10" guidetolerance="10" objecttolerance="10" pagecolor="#ffffff" showgrid="false"/>
 <g fill="#ffffff" shape-rendering="auto">
  <path d="M37.97 36.02A2 2 0 0 0 36 38.05V42a2 2 0 1 0 4 0v-3.95a2 2 0 0 0-2.03-2.03z" color-rendering="auto" dominant-baseline="auto" fill-rule="evenodd" image-rendering="auto" style="font-feature-settings:normal;font-variant-alternates:normal;font-variant-caps:normal;font-variant-east_asian:normal;font-variant-ligatures:normal;font-variant-numeric:normal;font-variant-position:normal;isolation:auto;mix-blend-mode:normal;shape-padding:0;text-decoration-color:#000;text-decoration-line:none;text-decoration-style:solid;text-indent:0;text-orientation:mixed;text-transform:none;white-space:normal"/>
  <path d="M9.97 36A2 2 0 0 0 8 38.03v3.94a2 2 0 1 0 4 0v-3.94A2 2 0 0 0 9.97 36z" color-rendering="auto" dominant-baseline="auto" fill-rule="evenodd" image-rendering="auto" style="font-feature-settings:normal;font-variant-alternates:normal;font-variant-caps:normal;font-variant-east_asian:normal;font-variant-ligatures:normal;font-variant-numeric:normal;font-variant-position:normal;isolation:auto;mix-blend-mode:normal;shape-padding:0;text-decoration-color:#000;text-decoration-line:none;text-decoration-style:solid;text-indent:0;text-orientation:mixed;text-transform:none;white-space:normal"/>
  <path d="M6 4a2 2 0 0 0-2 2v32a2 2 0 0 0 2 2h36a2 2 0 0 0 2-2V6a2 2 0 0 0-2-2zm2 4h32v28H8z" color-rendering="auto" dominant-baseline="auto" image-rendering="auto" style="font-feature-settings:normal;font-variant-alternates:normal;font-variant-caps:normal;font-variant-east_asian:normal;font-variant-ligatures:normal;font-variant-numeric:normal;font-variant-position:normal;isolation:auto;mix-blend-mode:normal;paint-order:normal;shape-padding:0;text-decoration-color:#000;text-decoration-line:none;text-decoration-style:solid;text-indent:0;text-orientation:mixed;text-transform:none;white-space:normal"/>
 </g>
 <path d="M13 10h-.1l-.12.03c-.22.05-.43.17-.57.34a.88.88 0 0 0-.21.58c0 1.97 1.42 3.79 3.56 5.13 1.17.74 2.6 1.34 4.19 1.73-.47.33-.89.73-1.25 1.15a3.27 3.27 0 0 0-2.47-1.5c-1.68-.22-3.37.22-3.44.24a.81.81 0 0 0-.5.43c-.1.2-.12.43-.03.63.2.45 1.3 2.7 2.97 3.17a5.05 5.05 0 0 0 2.03.12c-.04.29-.06.58-.06.89C17 26.63 21.18 34 24 34c2.82 0 7-7.37 7-11.06 0-.3-.02-.6-.06-.9a6.02 6.02 0 0 0 2.03-.11c1.66-.46 2.77-2.72 2.97-3.17a.73.73 0 0 0-.03-.63.81.81 0 0 0-.5-.43 9.86 9.86 0 0 0-3.44-.23 3.27 3.27 0 0 0-2.47 1.5 7 7 0 0 0-1.25-1.16c1.58-.4 2.98-1 4.16-1.73 2.14-1.34 3.59-3.16 3.59-5.13a.86.86 0 0 0-.07-.35.92.92 0 0 0-.22-.3 1 1 0 0 0-.71-.28 1.07 1.07 0 0 0-.71.27.92.92 0 0 0-.22.3.86.86 0 0 0-.07.36c0 1.09-.94 2.49-2.72 3.6-.55.35-1.19.65-1.87.93A7.6 7.6 0 0 0 31 10.95a.86.86 0 0 0-.07-.35.92.92 0 0 0-.22-.3 1 1 0 0 0-.71-.28 1.08 1.08 0 0 0-.71.27.92.92 0 0 0-.22.3.86.86 0 0 0-.07.36c0 1.29-.57 2.74-1.5 3.8A4.64 4.64 0 0 1 24 16.5a4.64 4.64 0 0 1-3.5-1.73 6.09 6.09 0 0 1-1.5-3.8.86.86 0 0 0-.09-.41.94.94 0 0 0-.28-.33 1.08 1.08 0 0 0-.85-.19c-.22.05-.43.17-.57.34a.88.88 0 0 0-.21.58c0 1.6.6 3.22 1.63 4.56a11.4 11.4 0 0 1-1.94-.95C14.9 13.44 14 12.04 14 10.96a.86.86 0 0 0-.06-.37.92.92 0 0 0-.22-.3A1.07 1.07 0 0 0 13 10zm7.5 12.94c.83 0 1.5.62 1.5 1.38 0 .76-.67 1.38-1.5 1.38s-1.5-.62-1.5-1.38c0-.76.67-1.38 1.5-1.38zm7 0c.83 0 1.5.62 1.5 1.38 0 .76-.67 1.38-1.5 1.38s-1.5-.62-1.5-1.38c0-.76.67-1.38 1.5-1.38zM24 29.39c.83 0 1.5.12 1.5.7 0 .56-.67 1.38-1.5 1.38s-1.5-.82-1.5-1.39.67-.69 1.5-.69z" fill="#ffffff" style="font-variant-east_asian:normal"/>
</svg>
