<svg width="48" height="48" viewBox="0 0 48 48" fill="none" xmlns="http://www.w3.org/2000/svg">
<path fill-rule="evenodd" clip-rule="evenodd" d="M4 4V20H8V16H12C14.2091 16 16 14.2091 16 12V8C16 5.79086 14.2091 4 12 4H4ZM8 12H12V8H8V12Z" fill="white"/>
<path fill-rule="evenodd" clip-rule="evenodd" d="M14 28C12.8954 28 12 27.1046 12 26L12 22C12 20.8954 12.8954 20 14 20H21.5279L24.0453 18.7413C24.0154 18.4984 24 18.251 24 18C24 14.6863 26.6863 12 30 12C33.3137 12 36 14.6863 36 18C36 20.6124 34.3304 22.8349 32 23.6586V32.3414C34.3304 33.1651 36 35.3876 36 38C36 41.3137 33.3137 44 30 44C26.6863 44 24 41.3137 24 38C24 37.749 24.0154 37.5016 24.0453 37.2587L22.3949 36.4335L19.4142 39.4142C18.8422 39.9862 17.982 40.1573 17.2346 39.8478C16.4873 39.5382 16 38.8089 16 38L16 34C16 32.8954 16.8954 32 18 32C18.8576 32 19.5892 32.5398 19.8734 33.2982L20 33.1716V24H16V26C16 27.1046 15.1046 28 14 28ZM25.8348 33.6813C26.4461 33.0916 27.1824 32.6304 28 32.3414V23.6586C27.1824 23.3696 26.4461 22.9085 25.8348 22.3187L24 23.2361V32.7639L25.8348 33.6813ZM32 38C32 36.8954 31.1046 36 30 36C28.8954 36 28 36.8954 28 38C28 39.1046 28.8954 40 30 40C31.1046 40 32 39.1046 32 38ZM32 18C32 16.8954 31.1046 16 30 16C28.8954 16 28 16.8954 28 18C28 19.1046 28.8954 20 30 20C31.1046 20 32 19.1046 32 18Z" fill="white"/>
<path fill-rule="evenodd" clip-rule="evenodd" d="M20 6.10028C20 4.99571 20.8954 4.10028 22 4.10028H42.1338C43.2384 4.10028 44.1338 4.99571 44.1338 6.10028V42C44.1338 43.1046 43.2384 44 42.1338 44C41.0292 44 40.1338 43.1046 40.1338 42V8.10028H22C20.8954 8.10028 20 7.20485 20 6.10028Z" fill="white"/>
</svg>
