<svg width="48" height="48" viewBox="0 0 48 48" fill="none" xmlns="http://www.w3.org/2000/svg">
<path opacity="0.6" d="M44.7845 27.9223L40 28.8792V40C40 42.2091 41.7909 44 44 44C46.2091 44 48 42.2091 48 40V24C48 25.9067 46.6542 27.5484 44.7845 27.9223Z" fill="white"/>
<path fill-rule="evenodd" clip-rule="evenodd" d="M8 8C8 5.79086 6.20914 4 4 4C1.79086 4 0 5.79086 0 8V40C0 42.2091 1.79086 44 4 44C6.20914 44 8 42.2091 8 40V35.2792L44.7845 27.9223C46.6542 27.5484 48 25.9067 48 24V16C48 13.7909 46.2091 12 44 12H8V8ZM8 20V27.1208L40 20.7208V20H8Z" fill="white"/>
</svg>
