<svg width="48" height="48" viewBox="0 0 580 580" fill="none" xmlns="http://www.w3.org/2000/svg">
<path d="M290 184.09C222.401 184.09 167.603 238.889 167.603 306.487V355.207V416.406V453.906C170.217 454.308 172.89 454.691 175.591 455.064C176.335 455.168 177.09 455.266 177.841 455.367C179.965 455.652 182.114 455.928 184.29 456.194C184.972 456.279 185.647 456.363 186.334 456.445C192.111 457.134 198.059 457.759 204.159 458.322C204.652 458.367 205.15 458.412 205.646 458.456C208.448 458.709 211.28 458.949 214.145 459.175C214.451 459.198 214.753 459.225 215.06 459.248C221.623 459.759 228.343 460.197 235.202 460.566C235.408 460.577 235.614 460.587 235.82 460.598C239.21 460.779 242.631 460.942 246.086 461.087C246.107 461.089 246.127 461.089 246.149 461.091C260.297 461.685 274.959 461.991 290 461.991C335.646 461.991 377.897 459.218 412.397 453.905V416.405V355.206V306.486C412.397 238.888 357.598 184.09 290 184.09Z" fill="white" />
<path opacity="0.8" d="M412.396 453.906C377.896 459.219 335.646 461.992 289.999 461.992C274.958 461.992 260.298 461.685 246.148 461.092C217.361 459.883 190.734 457.467 167.602 453.906C167.602 453.906 140.82 469.095 130.8 507.681C145.516 511.536 162.891 514.706 182.285 517.152C190.749 518.218 199.605 519.144 208.78 519.932C233.777 522.081 261.206 523.191 289.998 523.191C329.358 523.191 366.192 521.126 397.712 517.152C417.107 514.707 434.482 511.537 449.198 507.681C439.179 469.095 412.396 453.906 412.396 453.906Z" fill="white" />
<path opacity="0.8" d="M284.546 167.803L281.546 56.8081H298.454L295.454 167.803H284.546Z" fill="white" />
<path opacity="0.8" d="M357.497 183.436L406.837 83.9658L421.775 91.8848L367.135 188.546L357.497 183.436Z" fill="white" />
<path opacity="0.8" d="M414.628 231.419L504.812 166.646L514.302 180.641L420.75 240.447L414.628 231.419Z" fill="white" />
<path opacity="0.8" d="M442.629 300.572L552.647 285.589L554.475 302.397L443.808 311.417L442.629 300.572Z" fill="white" />
<path opacity="0.8" d="M222.503 183.436L173.163 83.9658L158.224 91.8848L212.865 188.546L222.503 183.436Z" fill="white" />
<path opacity="0.8" d="M165.372 231.419L75.1872 166.646L65.6982 180.641L159.25 240.447L165.372 231.419Z" fill="white" />
<path opacity="0.8" d="M137.371 300.572L27.3519 285.589L25.5239 302.397L136.191 311.417L137.371 300.572Z" fill="white" />
</svg>