<svg width="48" height="48" viewBox="0 0 48 48" fill="none" xmlns="http://www.w3.org/2000/svg">
<path fill-rule="evenodd" clip-rule="evenodd" d="M4 4V20H8V16H12C14.2091 16 16 14.2091 16 12V8C16 5.79086 14.2091 4 12 4H4ZM8 12H12V8H8V12Z" fill="white"/>
<path fill-rule="evenodd" clip-rule="evenodd" d="M24 22C24 20.8954 24.8954 20 26 20H30C31.1046 20 32 20.8954 32 22V29.5279L33.2587 32.0453C33.5016 32.0154 33.749 32 34 32C37.3137 32 40 34.6863 40 38C40 41.3137 37.3137 44 34 44C31.3876 44 29.1651 42.3304 28.3414 40H19.6586C18.8349 42.3304 16.6124 44 14 44C10.6863 44 8 41.3137 8 38C8 34.6863 10.6863 32 14 32C14.251 32 14.4984 32.0154 14.7413 32.0453L15.5665 30.3949L12.5858 27.4142C12.0138 26.8422 11.8427 25.982 12.1522 25.2346C12.4618 24.4873 13.1911 24 14 24H18C19.1046 24 20 24.8954 20 26C20 26.8576 19.4602 27.5892 18.7018 27.8734L18.8284 28H28V24H26C24.8954 24 24 23.1046 24 22ZM18.3187 33.8348C18.9084 34.4461 19.3696 35.1824 19.6586 36H28.3414C28.6304 35.1824 29.0915 34.4461 29.6813 33.8348L28.7639 32H19.2361L18.3187 33.8348ZM14 40C15.1046 40 16 39.1046 16 38C16 36.8954 15.1046 36 14 36C12.8954 36 12 36.8954 12 38C12 39.1046 12.8954 40 14 40ZM34 40C35.1046 40 36 39.1046 36 38C36 36.8954 35.1046 36 34 36C32.8954 36 32 36.8954 32 38C32 39.1046 32.8954 40 34 40Z" fill="white"/>
</svg>
