<svg width="48" height="48" viewBox="0 0 48 48" fill="none" xmlns="http://www.w3.org/2000/svg">
<path fill-rule="evenodd" clip-rule="evenodd" d="M44 0C46.2091 0 48 1.79086 48 4V44C48 46.2091 46.2091 48 44 48C41.7909 48 40 46.2091 40 44V40H16.0547C16.0158 40.0006 15.9769 40.0006 15.9379 40H4C1.79086 40 0 38.2091 0 36V12C0 9.79086 1.79086 8 4 8H31.9453C31.9842 7.99943 32.0231 7.99943 32.062 8H40V4C40 1.79086 41.7909 0 44 0ZM8 32H13.8593L24.5259 16H8V32ZM23.4741 32H40V16H34.1407L23.4741 32Z" fill="white"/>
</svg>
