<svg width="48" height="48" viewBox="0 0 580 580" fill="none" xmlns="http://www.w3.org/2000/svg">
<g clip-path="url(#clip0)">
<path d="M290.003 160.138C323.337 160.138 350.36 133.115 350.36 99.781C350.36 66.4468 323.337 39.424 290.003 39.424C256.669 39.424 229.646 66.4468 229.646 99.781C229.646 133.115 256.669 160.138 290.003 160.138Z" fill="white" />
<path d="M177.311 289.357L226.104 240.239V286.31H289.904H289.965H353.324V239.989L403.397 290.166C423.558 311.4 454.243 282.866 433.221 261.847L351.612 180.109C344.868 173.475 337.191 169.463 325.81 169.463H289.964H289.903H253.364C241.983 169.463 234.81 173.603 228.258 180.109L147.468 261.053C125.39 283.137 155.268 311.4 177.311 289.357Z" fill="white" />
<path d="M334.34 459.086L391.388 399.77C403.632 387.276 407.017 364.198 393.893 351.075C393.847 351.03 353.061 310.202 353.061 310.202L305.113 358.155L340.317 393.292L304.245 429.362C282.954 450.654 312.324 481.104 334.34 459.086Z" fill="white" />
<path d="M226.114 310.201C226.114 310.201 185.329 351.029 185.284 351.074C172.158 364.197 175.544 387.275 187.786 399.769L244.835 459.085C266.851 481.103 296.22 450.653 274.931 429.36L238.86 393.29L274.064 358.153L226.114 310.201Z" fill="white" />
<path d="M473 223.575V459.576C473 482.183 454.607 500.576 432 500.576H148C125.393 500.576 107 482.183 107 459.576V223.575H67V459.576C67 504.24 103.336 540.576 148 540.576H432C476.664 540.576 513 504.24 513 459.576V223.575H473Z" fill="white" />
</g>
<defs>
<clipPath id="clip0">
<path d="M0 0H580V580H0V0Z" fill="white" />
</clipPath>
</defs>
</svg>