<svg width="48" height="48" viewBox="0 0 580 580" fill="none" xmlns="http://www.w3.org/2000/svg">
<g clip-path="url(#clip0)">
<path d="M43.1648 283.095V46.9077H290H536.835V81.5298V116.152L529.086 123.153C524.824 127.004 520.36 130.154 519.166 130.154C517.972 130.154 510.242 133.203 501.988 136.93C493.695 140.674 483.836 143.706 479.951 143.706C475.113 143.706 466.139 147.277 451.156 155.165C429.921 166.344 428.966 166.64 412.053 167.265L394.717 167.905L391.481 159.194C388.146 150.212 380.832 143.504 365.503 135.368C353.06 128.763 327.505 129.542 295.981 137.486C263.861 145.581 240.931 155.851 217.277 172.739C201.146 184.256 197.623 187.767 193.494 196.442C190.829 202.042 185.099 210.068 180.761 214.277C176.423 218.486 172.874 222.988 172.874 224.28C172.874 225.573 169.828 232.373 166.105 239.391C160.185 250.55 159.361 253.794 159.535 265.256C159.658 273.336 158.542 281.215 156.625 285.804C154.914 289.898 153.515 297.933 153.515 303.659C153.515 313.203 153.147 314.071 149.106 314.071C143.465 314.071 136.854 318.689 135.593 323.509C135.054 325.571 136.327 331.043 138.422 335.668C140.517 340.294 142.846 350.343 143.598 358C145.196 374.284 148.082 378.411 160.252 381.818C173.312 385.475 176.906 389.802 175.486 400.161L174.31 408.74L183.756 412.959C188.951 415.279 194.509 417.797 196.106 418.555C197.703 419.313 200.369 422.749 202.03 426.191C205.593 433.574 208.783 435.902 213.61 434.64C218.868 433.265 219.624 429.026 215.978 421.378C212.518 414.123 213.53 410.218 219.914 406.191C222.301 404.686 223.873 404.904 225.974 407.03C228.914 410.005 232.849 429.919 232.875 441.952C232.884 446.237 234.717 451.313 237.729 455.396C243.77 463.584 244.057 474.688 238.672 491.868C236.556 498.617 234.825 507.547 234.825 511.711V533.092H138.995H43.1648V283.095Z" fill="white" />
</g>
<defs>
<clipPath id="clip0">
<path d="M0 0H580V580H0V0Z" fill="white" />
</clipPath>
</defs>
</svg>