<svg width="48" height="48" viewBox="0 0 48 48" fill="none" xmlns="http://www.w3.org/2000/svg">
<path opacity="0.6" fill-rule="evenodd" clip-rule="evenodd" d="M40 13C41.6569 13 43 14.3431 43 16V40C43 41.6569 41.6569 43 40 43C38.3431 43 37 41.6569 37 40V16C37 14.3431 38.3431 13 40 13Z" fill="white"/>
<path fill-rule="evenodd" clip-rule="evenodd" d="M11 8C11 6.34315 9.65685 5 8 5C6.34315 5 5 6.34315 5 8V40C5 41.6569 6.34315 43 8 43C9.65685 43 11 41.6569 11 40V36.3423L40.7276 28.9104C42.0631 28.5766 43 27.3766 43 26V14C43 12.3431 41.6569 11 40 11H11V8ZM11 17V30.1577L37 23.6577V17H11Z" fill="white"/>
</svg>
