<svg xmlns="http://www.w3.org/2000/svg" width="48" height="48" viewBox="0 0 48 48" version="1.1" id="svg8" style="fill:none"><path style="clip-rule:evenodd;fill:#fcfcfc;fill-opacity:1;fill-rule:evenodd" d="M8 4a2 2 0 1 1-4 0 2 2 0 0 1 4 0zm0 12v-5a1 1 0 1 0 2 0V7a1 1 0 0 0-1-1H3a1 1 0 0 0-1 1v4a1 1 0 1 0 2 0v5z" id="path8-3"/><path style="clip-rule:evenodd;fill:#fcfcfc;fill-opacity:1;fill-rule:evenodd" d="M18 4a2 2 0 1 1-4 0 2 2 0 0 1 4 0zm0 12v-5a1 1 0 1 0 2 0V7a1 1 0 0 0-1-1h-6a1 1 0 0 0-1 1v4a1 1 0 1 0 2 0v5z" id="path8-6"/><path style="fill:#fff;fill-opacity:1;fill-rule:evenodd;stroke:none;stroke-width:1px;stroke-linecap:butt;stroke-linejoin:miter;stroke-opacity:1" d="M40 10l-8 8 6 6 2-2s.8 1.13 2 1.13S44 22 44 22l2-2-6-6zm-30 8l-2 2 4 4v6l-2 2v12h4v-6l4-6h14v12h4V26l-6-6-2 2H14z" id="path854"/></svg>
