<svg width="48" height="48" viewBox="0 0 48 48" fill="none" xmlns="http://www.w3.org/2000/svg">
<path fill-rule="evenodd" clip-rule="evenodd" d="M18.0805 11.3718C20.1487 8.2713 21.5266 6.20577 25.878 4.29849C27.057 3.78174 28.4067 3.93448 30.0023 4.76812C31.4866 5.54333 32.1954 8.19648 31.9534 12.0475C31.6624 16.6584 30.0716 22.2342 27.4684 27.7428C23.7926 35.52 18.7372 41.7194 14.5948 43.535C13.3616 44.0756 12.3494 44.144 11.5835 43.7447C9.77262 42.7995 8.7421 41.6375 8.43558 40.1895C7.41289 35.3581 8.23471 31.4653 10.4428 26.4675C11.3594 24.2093 12.1219 22.6361 12.804 21.2288C13.0134 20.7968 13.2152 20.3805 13.4115 19.9647C13.5848 19.5982 13.7515 19.2333 13.9233 18.8573C14.6036 17.3684 15.3632 15.7061 16.9217 13.0848C17.3416 12.4795 17.7214 11.91 18.0805 11.3718ZM25.0374 14.8732C26.2747 11.666 27.9193 7.40286 29.8173 5.0144C25.075 6.96022 21.5212 13.2479 19.9034 17.0362C19.7088 17.6949 19.5355 18.2968 19.3742 18.857C18.3213 22.5141 17.7799 24.3944 15.1422 28.7132C11.834 33.966 11.3922 39.0846 11.8517 41.5596C12.3494 39.1903 13.8559 37.1673 15.4548 35.0203C16.1243 34.1214 16.8099 33.2008 17.4445 32.2238C20.578 27.4411 21.8338 23.7583 22.9721 20.42C23.3848 19.2099 23.782 18.045 24.2476 16.8894C24.4879 16.2976 24.7518 15.6135 25.0374 14.8732ZM37.3004 30.3484C42.7162 20.2391 38.9575 9.88965 34.972 8C35.002 8.23494 35.0695 8.50054 35.1497 8.81621C35.6809 10.9066 36.77 15.1926 31.2138 27.3102C29.0014 32.135 26.5365 35.4534 24.5537 37.6531C21.4294 41.1192 18.7141 42.128 16.7989 42.8395C16.5145 42.9451 16.2478 43.0442 16 43.1438C23.7196 46.2958 31.8847 40.4577 37.3004 30.3484Z" fill="white" />
</svg>