<svg width="580" height="580" viewBox="0 0 580 580" fill="none" xmlns="http://www.w3.org/2000/svg">
<g clip-path="url(#clip0)">
<path d="M389.099 264.229L377.703 169.542C377.338 154.349 364.861 142.101 349.582 142.101H255.464L251.633 130.541C251.633 120.701 243.658 112.726 233.82 112.726H194.91C185.07 112.726 177.096 120.702 177.096 130.541L174.447 142.101H79.5423C64.2623 142.101 51.7893 154.35 51.4213 169.542L40.0243 264.229C15.5313 274.421 30.3623 297.354 30.3623 297.354L106.307 426.741H322.815L398.76 297.354C398.761 297.354 413.593 274.422 389.099 264.229ZM72.0423 170.231C72.0423 166.094 75.4073 162.73 79.5423 162.73H349.581C353.716 162.73 357.083 166.094 357.083 170.231V170.849L367.354 256.204C318.823 238.42 214.561 200.315 214.561 200.315C214.561 200.315 110.298 238.42 61.7673 256.204L72.0423 170.849V170.231Z" fill="#ffffff"/>
<path d="M204.741 176.794H103.587C95.5012 176.794 88.9442 183.35 88.9442 191.436L83.9902 232.596C125.171 217.522 182.127 196.7 204.74 188.434V176.794H204.741Z" fill="#ffffff"/>
<path d="M340.179 191.436C340.179 183.35 333.624 176.794 325.536 176.794H224.385V188.436C246.999 196.702 303.955 217.521 345.135 232.596L340.179 191.436Z" fill="#ffffff"/>
<path d="M408.664 429.283C408.706 427.585 409.663 425.935 411.118 425.057L437.014 409.428L437.382 409.183C444.033 404.408 450.95 401.626 455.035 397.897C454.232 308.072 453.42 218.267 452.63 128.439C452.625 128.355 452.634 128.277 452.63 128.194C451.816 111.266 466.965 98.0733 483.1 98.4782L483.1 98.4482C483.194 98.442 483.284 98.4522 483.375 98.4478C483.448 98.4497 483.518 98.4437 483.59 98.4486L483.591 98.4792C499.675 97.9136 514.081 111.112 514.074 127.542C514.076 127.613 514.076 127.685 514.074 127.757C511.418 192.889 507.6 257.956 504.505 322.985C504.504 322.998 504.506 323.007 504.506 323.017C503.525 348.298 501.46 373.599 501.103 398.366C513.883 408.503 528.243 417.656 541.97 427.774C543.532 428.913 544.339 430.998 543.957 432.891L529.16 506.576C528.691 508.886 526.429 510.694 524.073 510.645L503.061 510.259C500.417 510.208 498.053 507.78 498.072 505.14C498.11 487.934 499.142 470.717 498.669 454.203C492.195 449.915 485.279 445.862 478.431 442.484C471.446 445.578 464.335 449.455 457.747 453.494C456.68 470.486 457.069 488.069 456.477 505.686C456.395 508.329 453.938 510.665 451.296 510.614L428.294 510.227C425.981 510.182 423.827 508.361 423.396 506.088L408.758 430.387C408.685 430.023 408.654 429.652 408.664 429.283ZM473.765 127.078C473.763 127.302 473.777 127.526 473.794 127.753C473.811 127.886 473.821 128.019 473.825 128.15C473.837 134.361 480.848 139.195 486.684 137.074C486.794 137.04 486.907 137.01 487.02 136.984C493.979 134.98 495.583 123.714 489.424 119.863C489.276 119.769 489.132 119.666 488.996 119.556C483.48 115.239 473.83 120.194 473.765 127.078Z" fill="#ffffff"/>
</g>
<defs>
<clipPath id="clip0">
<path d="M0 0H580V580H0V0Z" fill="#ffffff"/>
</clipPath>
</defs>
</svg>
