<svg width="48" height="48" viewBox="0 0 580 580" fill="none" xmlns="http://www.w3.org/2000/svg">
<path d="M412.286 57.8493C393.545 49.7858 372.72 43.335 345.649 43.335C297.753 43.335 268.599 70.7508 254.022 88.4905C174.89 83.6524 153.52 157.2 153.52 157.2C201.194 90.4782 268.599 111.068 268.599 111.068C268.599 111.068 285.259 78.8143 328.989 70.7508C372.72 62.6874 412.286 82.0397 412.286 82.0397C412.286 82.0397 464.347 48.1731 551.809 59.462C551.809 59.462 487.254 25.5953 412.286 57.8493Z" fill="white" />
<path d="M351.731 308.973C341.214 256.896 351.731 199.477 351.731 199.477C351.731 199.477 321.314 230.196 249.09 230.477C176.866 230.758 143.488 199.477 143.488 199.477C143.488 199.477 153.298 256.896 142.781 308.973C132.265 361.051 60.1914 499.346 60.1914 501.428C60.1914 518.088 143.488 562.363 247.609 562.363C351.731 562.363 435.028 518.088 435.028 501.428C435.028 499.346 362.247 361.051 351.731 308.973Z" fill="white" />
<path d="M417.45 132.426C504.912 171.131 548.643 95.334 548.643 95.334C548.643 95.334 527.819 196.934 413.286 146.94C373.72 130.813 336.236 127.588 307.082 148.553C334.154 113.074 379.967 114.686 417.45 132.426Z" fill="white" />
<path opacity="0.643" fill-rule="evenodd" clip-rule="evenodd" d="M160.16 190.738C160.16 190.738 201.526 171.646 248.195 172.353C294.864 173.06 339.412 189.324 339.412 189.324C339.412 189.324 298.4 211.951 248.902 211.951C199.405 211.951 160.16 190.738 160.16 190.738Z" fill="white" />
</svg>