<svg width="580" height="580" viewBox="0 0 580 580" fill="none" xmlns="http://www.w3.org/2000/svg">
<path fill-rule="evenodd" clip-rule="evenodd" d="M75.5 36.5C53.894 36.5 36.5 53.894 36.5 75.5V504.5C36.5 526.106 53.894 543.5 75.5 543.5H504.5C526.106 543.5 543.5 526.106 543.5 504.5V75.5C543.5 53.894 526.106 36.5 504.5 36.5H75.5ZM231.75 64.9355L290 123.596L322.19 103.401L338.176 119.401L424.466 62.362L389.152 164.445L464.293 132.842L425.07 198.387L445.841 217.53L447.529 238.553L512.379 245.084L456.404 290L485.558 306.204L453.748 319.865L500.496 351.623L445.734 348.9L417.395 339.076L429.451 363.646L413.811 380.881L443.686 441.959L380.867 412.385L384.538 443.878L333.629 438.287L318.164 510.766L290 456.404L257.291 434.974L239.533 448.809L201.963 502.84L213.277 437.965L150.15 477.159L168.49 402.9L76.625 452.24L135.477 362.473L85.1294 365.027L118.057 316.234L59.0957 302.5L120.105 276.617L95.6152 257.453L111.312 238.443L89.1426 203.742L150.51 197.742L147.945 127.254L203.492 139.328L231.75 64.9355Z" fill="white"/>
<path opacity="0.58804" fill-rule="evenodd" clip-rule="evenodd" d="M302.908 154.637L314.951 166.689C305.427 172.207 294.344 174.417 283.432 172.976C272.519 171.535 262.391 166.523 254.625 158.723L250.885 154.955L250.096 157.031C246.289 167.021 239.373 175.523 230.367 181.282C221.362 187.042 210.743 189.754 200.078 189.02L200.33 195.93C200.755 207.728 196.979 219.295 189.675 228.571C182.37 237.846 172.011 244.229 160.441 246.582C160.402 246.8 160.362 247.017 160.32 247.234C165.692 254.601 168.942 263.299 169.715 272.383C170.489 281.467 168.756 290.589 164.707 298.758C167.751 306.859 168.634 315.613 167.27 324.158C176.906 332.146 183.185 343.467 184.859 355.871C192.231 358.443 198.896 362.71 204.316 368.329C209.737 373.948 213.762 380.762 216.068 388.221C221.63 388.547 227.098 389.802 232.244 391.936C240.238 387.278 249.369 384.937 258.618 385.173C267.866 385.409 276.866 388.214 284.611 393.273L298.854 402.605C303.882 397.707 309.889 393.926 316.48 391.51C323.071 389.094 330.098 388.097 337.102 388.584C343.407 376.977 354.06 368.347 366.723 364.588C367.705 361.78 368.936 359.066 370.402 356.479L372.639 361.037C371.865 359.448 371.177 357.819 370.576 356.156C372.357 353.009 374.475 350.066 376.893 347.377L370.15 354.809C367.952 348.191 367.167 341.186 367.844 334.246C368.522 327.306 370.648 320.586 374.084 314.518C377.521 308.451 382.192 303.172 387.796 299.023C393.399 294.873 399.811 291.945 406.617 290.428C406.564 283.941 407.776 277.506 410.188 271.484C403.054 263.423 398.721 253.269 397.836 242.541L397.709 240.967L391.285 235.047C384.764 229.01 379.976 221.341 377.414 212.832C367.355 210.384 358.307 204.865 351.527 197.041C344.746 189.217 340.57 179.477 339.576 169.172C332.797 169.37 326.049 168.184 319.744 165.685C313.439 163.185 307.71 159.426 302.908 154.637Z" fill="white"/>
</svg>
