<svg width="48" height="48" viewBox="0 0 580 580" fill="none" xmlns="http://www.w3.org/2000/svg">
<path d="M155.277 245.454L226.358 279.317C230.64 281.362 236.226 277.655 236.006 272.915L232.435 194.261C232.376 193.036 231.987 191.852 231.312 190.834L227.579 185.208L141.729 55.8137L134.263 44.562C123.973 29.0516 102.982 24.8051 87.4712 35.096L64.9678 50.0265C49.4574 60.3173 45.2109 81.3083 55.5017 96.8188L62.967 108.07L148.817 237.465L152.55 243.091C153.226 244.109 154.166 244.927 155.277 245.454ZM222.001 262.284L171.844 238.392L219.483 206.784L222.001 262.284ZM109.867 68.851L121.119 61.3858L210.702 196.406L199.45 203.871L109.867 68.851ZM76.1119 91.2468L87.3636 83.7815L176.947 218.802L165.695 226.267L76.1119 91.2468Z" fill="white" />
<path d="M506.437 295.32C464.747 288.568 435.083 330.376 397.61 340.781C390.883 342.636 337.795 352.554 336.937 340.59C335.63 321.79 339.807 300.833 349.421 284.546C367.311 254.241 414.095 246.512 418.977 207.663C421.583 186.931 407.764 168.925 388.698 162.008C345.39 146.39 291.287 192.927 322.581 235.818C328.158 243.4 346.793 251.417 347.81 260.356C348.409 265.862 337.24 276.144 334.583 279.525C321.789 295.717 308.959 311.953 296.144 328.202C294.562 330.205 292.15 332.036 289.097 333.709L289.345 333.356C204.448 341.956 102.605 334.138 36.2411 397.137C106.886 394.976 177.536 392.785 248.18 390.632C211.293 443.934 174.384 497.225 137.497 550.522C226.452 529.073 275.261 439.346 328.636 372.771C332.139 368.387 358.429 369.234 365.191 368.062C374.709 366.343 383.983 364.219 392.916 360.506C403.002 356.335 423.096 338.642 435.142 344.935C443.648 349.35 446.54 369.441 456.288 376.407C465.772 383.206 477.067 386.294 488.671 386.296C543.876 386.291 570.447 305.718 506.437 295.32ZM336.652 187.122C365.626 153.947 428.227 188.146 394.974 225.582C364.112 259.715 303.688 224.917 336.652 187.122ZM297.101 372.041C293.18 372.041 289.999 368.166 289.999 363.382C289.999 358.599 293.18 354.723 297.101 354.723C301.024 354.723 304.204 358.599 304.204 363.382C304.204 368.166 301.024 372.041 297.101 372.041ZM465.931 364.136C431.621 333.505 487.085 294.159 517.081 313.773C559.054 341.174 498.45 392.314 465.931 364.136Z" fill="white" />
</svg>