<svg width="48" height="48" viewBox="0 0 580 580" fill="none" xmlns="http://www.w3.org/2000/svg">
<path d="M143.291 308.486C128.128 308.486 115.116 317.699 109.547 330.834L106.654 366.148V404.904C106.654 409.619 107.552 414.119 109.174 418.26H30.0408V445.049V455.766V548.641H54.8198V455.766H308.895V548.641H333.67V455.766H333.672V418.26H254.539C256.161 414.119 257.058 409.618 257.058 404.904V366.15L254.166 330.832C248.597 317.7 235.585 308.486 220.422 308.486H143.291H143.291ZM135.578 357.66H144.256V418.26H135.578V357.66ZM219.457 357.66H228.135V418.26H219.457V357.66Z" fill="white" />
<path d="M181.857 203.242C157.096 203.242 137.023 223.313 137.023 248.074C137.023 272.835 157.096 292.906 181.857 292.906C206.618 292.906 226.689 272.835 226.689 248.074C226.689 223.313 206.618 203.242 181.857 203.242Z" fill="white" />
<path d="M517.454 139.803C531.847 139.803 543.514 128.135 543.514 113.742C543.514 99.3495 531.847 87.6819 517.454 87.6819C503.061 87.6819 491.393 99.3495 491.393 113.742C491.393 128.135 503.061 139.803 517.454 139.803Z" fill="white" />
<path d="M473.741 182.376V204.903C473.741 215.125 480.945 223.663 490.553 225.721V177.441H495.598V244.368H539.312V177.441H544.356V225.721C553.964 223.662 561.168 215.125 561.168 204.903V182.377L559.487 161.847C556.25 154.213 548.687 148.859 539.873 148.859H495.037C486.223 148.859 478.66 154.212 475.424 161.848L473.741 182.376Z" fill="white" />
<path d="M289.148 139.803C303.541 139.803 315.208 128.135 315.208 113.742C315.208 99.3495 303.541 87.6819 289.148 87.6819C274.755 87.6819 263.088 99.3495 263.088 113.742C263.088 128.135 274.755 139.803 289.148 139.803Z" fill="white" />
<path d="M245.435 182.376V204.903C245.435 215.125 252.639 223.663 262.247 225.721V177.441H267.292V244.368H311.006V177.441H316.05V225.721C325.658 223.662 332.862 215.125 332.862 204.903V182.377L331.181 161.847C327.944 154.213 320.381 148.859 311.567 148.859H266.731C257.917 148.859 250.355 154.212 247.118 161.848L245.435 182.376Z" fill="white" />
<path d="M405.068 71.1478C419.461 71.1478 431.129 59.4802 431.129 45.0874C431.129 30.6946 419.461 19.027 405.068 19.027C390.675 19.027 379.008 30.6946 379.008 45.0874C379.008 59.4802 390.675 71.1478 405.068 71.1478Z" fill="white" />
<path d="M361.354 113.721V136.248C361.354 146.47 368.558 155.009 378.166 157.066V108.786H383.211V175.713H426.925V108.786H431.969V157.066C441.577 155.007 448.781 146.47 448.781 136.248V113.722L447.1 93.1919C443.863 85.5582 436.3 80.2043 427.486 80.2043H382.65C373.836 80.2043 366.273 85.5571 363.037 93.1931L361.354 113.721Z" fill="white" />
<path d="M405.068 283.033C419.461 283.033 431.129 271.366 431.129 256.973C431.129 242.58 419.461 230.912 405.068 230.912C390.675 230.912 379.008 242.58 379.008 256.973C379.008 271.366 390.675 283.033 405.068 283.033Z" fill="white" />
<path d="M361.354 325.606V348.134C361.354 358.356 368.558 366.894 378.166 368.951V320.672H383.211V387.598H426.925V320.672H431.969V368.951C441.577 366.893 448.781 358.356 448.781 348.134V325.608L447.1 305.077C443.863 297.444 436.3 292.09 427.486 292.09H382.65C373.836 292.09 366.273 297.443 363.037 305.079L361.354 325.606Z" fill="white" />
</svg>