<svg width="48" height="48" viewBox="0 0 580 580" fill="none" xmlns="http://www.w3.org/2000/svg">
<path d="M488.552 90.6601C477.589 78.2311 464.236 70.8101 452.828 70.8101C446.85 70.8101 441.726 72.8751 438.011 76.7841L303.371 218.408C295.924 226.251 293.026 236.773 294.974 245.886L245.568 285.186C244.119 286.339 243.275 288.089 243.275 289.94V383.014L202.692 362.891C184.093 353.666 159.837 360.503 148.791 378.082L81.149 485.736C70.103 503.317 77.44 513.178 97.453 507.653L316.209 447.267C336.222 441.744 337.377 429.678 318.778 420.454L263.92 394.537V298.37L309.084 262.445C311.457 264.503 312.168 265.962 319.693 265.962C326.45 265.962 333.119 262.568 338.698 258.452L496.007 142.543C500.471 139.252 503.181 134.258 503.838 128.099C505.038 116.868 499.324 102.872 488.552 90.6601Z" fill="white" />
</svg>