<svg width="48" height="48" viewBox="0 0 48 48" fill="none" xmlns="http://www.w3.org/2000/svg">
<path fill-rule="evenodd" clip-rule="evenodd" d="M24 4L44 16H40V44H8V16H4L24 4ZM26.2134 12H22.6257L22.7332 15.375C21.9626 15.4999 21.2517 15.7197 20.6004 16.0344C19.5395 16.5563 18.7004 17.2487 18.0832 18.1118C17.4852 18.9749 17.1863 19.9183 17.1863 20.9419C17.1863 21.9656 17.3695 22.8487 17.736 23.5914C18.1218 24.314 18.5943 24.9362 19.1537 25.4581C19.7324 25.9799 20.3303 26.4115 20.9476 26.7527C21.5841 27.0738 22.1531 27.3247 22.6546 27.5054C23.4454 27.8265 24.1495 28.1276 24.7667 28.4086C25.4033 28.6896 25.9048 29.0208 26.2712 29.4022C26.657 29.7634 26.8499 30.2251 26.8499 30.7871C26.8499 31.2287 26.7535 31.61 26.5606 31.9312C26.387 32.2323 26.1169 32.4631 25.7505 32.6237C25.4033 32.7842 24.9403 32.8645 24.3617 32.8645C23.6673 32.8645 23.0307 32.724 22.4521 32.443C21.8927 32.162 21.3719 31.7405 20.8897 31.1785C20.4075 30.6165 19.9253 29.914 19.443 29.071L16 31.6C16.4244 32.5634 17.0512 33.4466 17.8807 34.2495C18.7101 35.0523 19.6649 35.7047 20.745 36.2065C21.3875 36.4879 22.0496 36.6872 22.7316 36.8042L22.6257 40H26.1844L26.0786 36.807C26.9142 36.6903 27.6728 36.4902 28.3544 36.2065C29.5118 35.7247 30.4087 35.0222 31.0452 34.0989C31.6817 33.1556 32 32.0315 32 30.7269C32 29.8036 31.8553 29.0007 31.566 28.3183C31.296 27.6158 30.9198 27.0036 30.4376 26.4817C29.9554 25.9599 29.4057 25.5183 28.7884 25.157C28.1712 24.7756 27.5154 24.4545 26.821 24.1935C26.0108 23.8724 25.2489 23.5814 24.5353 23.3204C23.8409 23.0394 23.2719 22.7183 22.8282 22.357C22.4039 21.9957 22.1917 21.514 22.1917 20.9118C22.1917 20.5505 22.2688 20.2294 22.4231 19.9484C22.5967 19.6674 22.8475 19.4466 23.1754 19.286C23.5226 19.1054 23.9566 19.0151 24.4774 19.0151C24.9982 19.0151 25.4708 19.1355 25.8951 19.3763C26.3195 19.5971 26.7052 19.9283 27.0524 20.3699C27.4189 20.8115 27.7468 21.3233 28.0362 21.9054L31.7107 19.7075C31.3056 18.9448 30.7945 18.2222 30.1772 17.5398C29.56 16.8573 28.7788 16.3054 27.8336 15.8839C27.3292 15.6542 26.7532 15.4871 26.1056 15.3826L26.2134 12Z" fill="white" />
</svg>