<?xml version="1.0" encoding="UTF-8" standalone="no"?>
<svg
   version="1.0"
   width="48"
   height="48"
   id="svg2"
   sodipodi:version="0.32"
   inkscape:version="1.4 (1:1.4+202410161351+e7c3feb100)"
   sodipodi:docname="delivery_yes.svg"
   inkscape:output_extension="org.inkscape.output.svg.inkscape"
   xmlns:inkscape="http://www.inkscape.org/namespaces/inkscape"
   xmlns:sodipodi="http://sodipodi.sourceforge.net/DTD/sodipodi-0.dtd"
   xmlns="http://www.w3.org/2000/svg"
   xmlns:svg="http://www.w3.org/2000/svg"
   xmlns:rdf="http://www.w3.org/1999/02/22-rdf-syntax-ns#">
  <sodipodi:namedview
     id="namedview1"
     pagecolor="#ffffff"
     bordercolor="#666666"
     borderopacity="1.0"
     inkscape:showpageshadow="2"
     inkscape:pageopacity="0.0"
     inkscape:pagecheckerboard="0"
     inkscape:deskcolor="#d1d1d1"
     inkscape:zoom="8.4479167"
     inkscape:cx="26.397041"
     inkscape:cy="37.642417"
     inkscape:window-width="1720"
     inkscape:window-height="1051"
     inkscape:window-x="200"
     inkscape:window-y="0"
     inkscape:window-maximized="1"
     inkscape:current-layer="svg2" />
  <metadata
     id="metadata2975">
    <RDF>
      <Work
         rdf:about="">
        <format>image/svg+xml</format>
        <type
           rdf:resource="http://purl.org/dc/dcmitype/StillImage" />
        <license
           rdf:resource="http://web.resource.org/cc/PublicDomain" />
        <language>en</language>
      </Work>
    </RDF>
  </metadata>
  <namedview
     inkscape:window-height="1006"
     inkscape:window-width="1920"
     inkscape:pageshadow="2"
     inkscape:pageopacity="0.0"
     guidetolerance="10.0"
     gridtolerance="10.0"
     objecttolerance="10.0"
     borderopacity="1.0"
     bordercolor="#666666"
     pagecolor="#ffffff"
     id="base"
     inkscape:zoom="0.92167715"
     inkscape:cx="190.78055"
     inkscape:cy="273.83681"
     inkscape:window-x="1920"
     inkscape:window-y="0"
     inkscape:current-layer="svg2"
     showgrid="false"
     inkscape:window-maximized="1" />
  <defs
     id="defs4">
    <perspective
       sodipodi:type="inkscape:persp3d"
       inkscape:vp_x="0 : 290 : 1"
       inkscape:vp_y="0 : 1000 : 0"
       inkscape:vp_z="580 : 290 : 1"
       inkscape:persp3d-origin="290 : 193.33333 : 1"
       id="perspective2441" />
  </defs>
  <g
     id="g4372"
     transform="translate(-130.0802,122.26983)" />
  <g
     transform="matrix(0.76274057,0,0,0.76274057,4.664772,3.9388463)"
     id="surface1"
     style="fill:#ffffff;fill-opacity:1">
    <path
       inkscape:connector-curvature="0"
       d="m 0,8 v 4 h 18 v 2.587786 H 0 v 2.587786 h 15 v 2.587786 H 0 v 2.587786 H 12 V 24.93893 H 0 v 2.587786 h 9 v 2.587786 H 0 V 37 c 0,1.652344 1.347656,3 3,3 h 4.09375 c 0.476563,2.835938 2.941406,5 5.90625,5 2.964844,0 5.429688,-2.164062 5.90625,-5 H 29.73592 V 10.90625 C 29.73592,9.359375 28.376545,8 26.82967,8 Z m 32.36796,7 v 25 h 1.72579 c 0.476563,2.832031 2.9375,5 5.90625,5 2.96875,0 5.425781,-2.167969 5.90625,-5 H 47 c 1.542969,0 3,-1.457031 3,-3 v -9.59375 c 0,-1.960937 -1.414062,-4.058594 -1.59375,-4.3125 l -4.125,-5.53125 C 43.511719,16.601563 41.933594,15 40,15 Z m 5.517748,3.028625 h 2 c 0.789063,0 1.796875,0.695313 2.6875,1.8125 l 3.065125,4.497271 c 0.300781,0.433594 1.027344,1.65625 1.1875,2.71875 L 39,27 C 38.550793,26.9967 38,26.449219 38,26 Z M 13,35.628604 c 1.873363,0 3.371396,1.498033 3.371396,3.371396 0,1.873363 -1.498033,3.371396 -3.371396,3.371396 -1.873363,0 -3.3713956,-1.498033 -3.3713956,-3.371396 0,-1.873363 1.4980326,-3.371396 3.3713956,-3.371396 z m 27,0.05715 c 1.828663,0 3.31425,1.485587 3.31425,3.31425 0,1.828663 -1.485587,3.31425 -3.31425,3.31425 -1.828663,0 -3.31425,-1.485587 -3.31425,-3.31425 0,-1.828663 1.485587,-3.31425 3.31425,-3.31425 z"
       id="path5"
       style="fill:#ffffff;fill-opacity:1"
       sodipodi:nodetypes="cccccccccccccccccsscsccssccccscsssccsccscccsscssssssssss" />
  </g>
</svg>
