<svg width="580" height="580" viewBox="0 0 580 580" fill="none" xmlns="http://www.w3.org/2000/svg">
<g opacity="0.47">
<path opacity="0.47" d="M127.516 72.896C97.0051 72.896 79.8535 88.671 79.8535 120.902V453.159C79.8535 483.308 95.2771 499.093 125.76 499.093H459.42C489.911 499.093 505.354 484.097 505.354 453.159V120.902C505.354 89.4563 489.911 72.896 458.466 72.896C458.464 72.896 127.412 72.7905 127.516 72.896Z" fill="#3f3f3f"/>
</g>
<path d="M197.084 106.484C170.958 106.489 153.548 106.501 153.57 106.523C127.874 106.523 113.43 119.809 113.43 146.953V426.773C113.43 452.164 126.419 465.459 152.092 465.459H433.094C458.772 465.459 471.779 452.829 471.779 426.773V146.953C471.779 120.47 458.773 106.523 432.291 106.523C432.29 106.523 275.461 106.472 197.084 106.484ZM197.562 186.215H388.074V273.396H335.65V463.506H248.467V273.396H197.562V186.215Z" fill="#3f3f3f"/>
</svg>
