<svg width="48" height="48" viewBox="0 0 580 580" fill="none" xmlns="http://www.w3.org/2000/svg">
<path d="M52.6738 114.379V152.35H223.549V176.916H52.6738V201.482H195.07V226.049H52.6738V250.615H166.59V275.18H52.6738V299.746H138.111V324.312H52.6738V389.678C52.6738 405.364 65.4665 418.156 81.1523 418.156H112.42L334.959 195.617V141.967C334.959 127.282 322.054 114.379 307.369 114.379H52.6738ZM392.172 180.83L359.945 213.057V418.156H376.328C380.852 445.041 404.214 465.621 432.396 465.621C460.579 465.621 483.904 445.041 488.465 418.156H498.848C513.495 418.156 527.326 404.325 527.326 389.678V298.604C527.326 279.988 513.903 260.074 512.197 257.664L473.039 205.156C465.734 196.034 450.752 180.83 432.396 180.83H392.172ZM412.324 209.58H431.311C438.801 209.58 448.369 216.182 456.824 226.787L485.922 269.48C488.777 273.597 495.673 285.203 497.193 295.289L422.902 294.746C418.638 294.715 413.41 289.518 413.41 285.254L412.324 209.58ZM334.959 238.043L192.096 380.906C201.681 386.411 208.088 396.732 208.088 408.664C208.088 426.448 193.868 440.668 176.084 440.668C164.152 440.668 153.831 434.261 148.326 424.676L130.428 442.574C140.794 456.551 157.388 465.621 176.084 465.621C204.229 465.621 227.628 445.078 232.152 418.156H334.959V238.043ZM432.396 377.201C449.756 377.201 463.857 391.304 463.857 408.664C463.857 426.024 449.756 440.125 432.396 440.125C415.037 440.125 400.934 426.024 400.934 408.664C400.934 391.304 415.037 377.201 432.396 377.201Z" fill="white" />
<path d="M87.8833 505.137L496.92 96.0996" stroke="white" stroke-width="30" />
</svg>