<svg width="48" height="48" viewBox="0 0 48 48" fill="none" xmlns="http://www.w3.org/2000/svg">
<path fill-rule="evenodd" clip-rule="evenodd" d="M7.41421 4.58579C6.63316 3.80474 5.36683 3.80474 4.58579 4.58579C3.80474 5.36683 3.80474 6.63316 4.58579 7.41421L8.40619 11.2346C8.14169 12.1129 8 13.0407 8 14C8 19.5217 12.6946 24 18.4803 24C19.3141 24 20.1252 23.907 20.9028 23.7313L25.1716 28H20V36H16L24 44L32 36H28V30.8284L40.5858 43.4142C41.3668 44.1953 42.6332 44.1953 43.4142 43.4142C44.1953 42.6332 44.1953 41.3668 43.4142 40.5858L7.41421 4.58579ZM18.2851 21.1135L16.1945 19.0229C16.0586 19.116 15.8989 19.1908 15.726 19.2448C15.668 19.261 15.6248 19.2761 15.5836 19.2905C15.4553 19.3353 15.3467 19.3732 14.8691 19.4199L14.673 19.438C14.1526 19.4862 13.7881 19.52 13.5226 19.5367V21.1135H18.2851Z" fill="white"/>
<path d="M20.6169 9.23114C20.5938 9.83663 20.5724 10.396 20.5645 10.9077L27.9484 18.2916C28.5973 16.9911 28.9606 15.5359 28.9606 14C28.9606 8.4783 24.266 4 18.4803 4C17.0451 4 15.677 4.27556 14.4311 4.77426L17.5889 7.93203C18.2071 7.61559 18.6727 7.27543 18.9699 6.92205L20.6837 6.92195C20.6699 7.23283 20.6624 7.57201 20.6543 7.93745C20.6464 8.29472 20.638 8.67727 20.6225 9.08281L20.6169 9.23114Z" fill="white"/>
<path d="M29.5702 19.9133L31.0577 21.4009C33.1643 19.5699 34.4868 16.9307 34.4868 14C34.4868 8.89929 30.4805 4.68142 25.3073 4.07092C28.8822 6.06582 31.2907 9.77192 31.2907 14C31.2907 16.1602 30.662 18.1842 29.5702 19.9133Z" fill="white"/>
<path d="M32.4752 22.8184L33.0726 23.4157C37.1114 22.0257 40 18.3311 40 14C40 8.89929 35.9937 4.68142 30.8205 4.07092C34.3954 6.06582 36.8039 9.77192 36.8039 14C36.8039 17.5367 35.1187 20.7081 32.4752 22.8184Z" fill="white"/>
</svg>
