<svg width="48" height="48" viewBox="0 0 48 48" fill="none" xmlns="http://www.w3.org/2000/svg">
<path d="M24.2076 24.9858L19.5317 31.2359L18.9999 43.9999H24.9999L24.2076 24.9858Z" fill="white"/>
<path d="M19.8264 24.1645L22.8756 20.0887L23.6194 20H23.9999L24.2076 24.9857L19.5317 31.2357L19.8264 24.1645Z" fill="white" fill-opacity="0.4"/>
<path fill-rule="evenodd" clip-rule="evenodd" d="M18.2775 18.1246L12.9555 30.0934C12.8272 30.3821 12.8447 30.7147 13.0026 30.9882C13.357 31.602 14.2236 31.6535 14.6482 31.086L22.8756 20.0887L36.5133 18.4622C37.217 18.3782 37.6057 17.602 37.2513 16.9882C37.0934 16.7147 36.8141 16.5332 36.5 16.5L23.4737 15.1246L15.3591 4.78686C15.0048 4.33551 14.3725 4.21336 13.8756 4.50025C13.3787 4.78715 13.1684 5.39578 13.3821 5.92829L18.2775 18.1246ZM21.3999 18.8C22.1731 18.8 22.7999 18.1732 22.7999 17.4C22.7999 16.6268 22.1731 16 21.3999 16C20.6267 16 19.9999 16.6268 19.9999 17.4C19.9999 18.1732 20.6267 18.8 21.3999 18.8Z" fill="white"/>
<path d="M22.7999 17.4C22.7999 18.1732 22.1731 18.8 21.3999 18.8C20.6267 18.8 19.9999 18.1732 19.9999 17.4C19.9999 16.6268 20.6267 16 21.3999 16C22.1731 16 22.7999 16.6268 22.7999 17.4Z" fill="white" fill-opacity="0.4"/>
</svg>
