<svg width="580" height="580" viewBox="0 0 580 580" fill="none" xmlns="http://www.w3.org/2000/svg">
<path d="M38.8679 86.229L59.9999 67.292C63.0209 64.584 67.6649 64.839 70.3719 67.86L75.9409 74.075C78.6489 77.097 78.3949 81.741 75.3729 84.447L72.5249 87L385.967 400.44C385.967 400.44 420.827 447.217 477.109 437.498C508.475 432.081 512.165 510.612 485.122 516.622C458.08 522.632 432.04 539.657 388.972 491.583C349.18 447.164 96.5029 145.403 58.2929 99.753L54.2399 103.385C51.2189 106.093 46.5749 105.838 43.8679 102.817L38.2979 96.602C35.5919 93.581 35.8459 88.938 38.8679 86.229Z" fill="white"/>
<path d="M512.292 378.902C527.864 378.902 540.488 366.278 540.488 350.706C540.488 335.134 527.864 322.51 512.292 322.51C496.719 322.51 484.096 335.134 484.096 350.706C484.096 366.278 496.719 378.902 512.292 378.902Z" fill="white"/>
</svg>
