<svg width="580" height="580" viewBox="0 0 580 580" fill="none" xmlns="http://www.w3.org/2000/svg">
<path d="M394.755 539.591C419.488 536.214 440.855 529.051 448.764 521.486C454.691 515.816 454.263 508.483 447.664 502.689C440.451 496.356 437.729 496.157 424.517 500.999C403.25 508.793 386.169 511.578 359.702 511.569C333.552 511.56 318.348 509.001 295.637 500.783C282.23 495.932 278.976 496.371 271.644 504.025C259.16 517.055 275.659 530.188 313.92 537.675C328.327 540.494 379.294 541.702 394.755 539.591ZM228.762 516.47C233.474 512.375 235.047 503.92 231.97 499.224C230.762 497.38 205.979 459.064 166.925 442.082C99.381 412.712 96.2854 402.353 91.6358 392.554C86.8847 382.542 91.4729 372.17 96.2015 366.338C99.0029 362.884 104.925 353.617 121.119 357.903C147.912 364.993 168.588 356.429 179.933 332.483C184.162 323.557 184.437 321.993 184.369 307.23C184.283 288.619 182.738 283.443 167.932 252.148C156.684 228.374 154.532 221.081 155.365 209.557C157.008 186.848 178.962 166.141 205.81 161.981C222.93 159.328 244.053 163.508 263.864 173.469C270.114 176.611 275.481 179.182 275.79 179.182C276.1 179.182 276.766 176.124 277.271 172.386C277.776 168.648 279.791 162.788 281.748 159.364C283.705 155.939 285.306 152.629 285.306 152.008C285.306 150.217 259.491 139.376 247.165 135.991C229.938 131.26 202.829 131.583 187.303 136.705C149.939 149.029 126.139 178.96 126.224 213.519C126.261 228.843 129.029 237.848 142.807 267.476C153.652 290.798 156.543 299.537 156.543 308.991C156.543 316.594 151.159 326.588 145.229 329.994L140.354 332.794L124.484 328.657C99.4738 322.137 87.0313 335.574 75.343 346.348C65.6388 355.293 61.7342 364.16 60.9804 378.965C60.1979 394.334 62.5028 401.976 71.9966 415.49C80.4953 427.588 94.6572 441.688 140.09 461.754C166.651 473.486 186.087 498.052 191.595 502.516C209.689 517.181 213.783 519.689 219.629 519.689C223.207 519.689 226.32 518.591 228.762 516.47ZM379.732 486.695C419.592 481.761 452.534 463.544 465.789 439.107C470.317 430.758 470.582 429.481 470.581 415.963C470.58 403 470.196 400.928 466.501 393.905C456.012 373.974 432.821 344.568 403.07 336.438L393.324 333.775C391.974 323.76 391.252 318.743 391.178 315.099L397.974 315.093C414.457 315.08 424.682 299.134 417.178 285.142C413.571 278.418 406.678 275.039 396.565 275.039C389.711 275.039 388.295 274.615 388.191 272.535C388.121 271.158 387.317 260.052 386.402 247.855L384.74 225.679L360.246 225.289L335.753 224.898L334.817 241.027C334.302 249.897 333.499 261.179 333.033 266.097L332.186 275.039H323.579C308.539 275.039 299.869 283.652 301.383 297.09C302.619 308.057 311.183 315.098 323.286 315.098H329.933C328.709 323.787 328.709 327.53 327.357 333.535C327.066 334.036 324.47 334.888 321.588 335.429C302.429 339.023 277.377 365.775 264.825 379.291C254.46 390.453 249.353 402.487 249.301 415.872C249.265 424.971 249.945 428.138 253.621 435.994C267.385 465.406 306.001 485.186 353.868 487.341C362.192 487.716 373.831 487.425 379.732 486.694V486.695ZM407.631 199.27C409.205 198.615 412.424 196.038 414.784 193.544C418.551 189.565 419.077 187.98 419.077 180.613C419.077 173.319 418.538 171.654 414.974 167.934C407.936 160.588 406.678 160.433 357.729 160.882L317.592 161.298C312.09 161.913 309.574 164.767 306.662 167.323C301.787 172.552 301.044 174.232 301.044 180.031C301.044 188.307 305.041 195.206 311.655 198.344C315.792 200.307 322.937 200.629 360.634 200.552C384.909 200.502 406.057 199.925 407.631 199.27ZM392.609 135.87C392.609 135.655 389.079 128.771 384.765 120.572L376.922 105.665L380.615 99.3631C382.646 95.8972 388.529 87.8338 393.687 81.4443C398.846 75.0548 404.638 66.394 406.559 62.1982C413.881 46.2058 407.546 42.7559 378.431 46.8783C360.812 49.373 359.132 49.3829 343.714 47.0814C334.803 45.7512 325.772 44.6703 323.645 44.6795C317.675 44.7051 312.514 47.6763 311.513 51.6632C310.275 56.5957 317.565 70.3838 328.015 82.877C332.5 88.2382 337.879 95.562 339.97 99.1521L343.771 105.68L335.999 120.319C331.724 128.371 328.227 135.252 328.227 135.61C328.227 135.968 342.713 136.261 360.418 136.261C378.123 136.261 392.609 136.085 392.609 135.87Z" fill="white"/>
</svg>
