<svg width="48" height="48" viewBox="0 0 48 48" fill="none" xmlns="http://www.w3.org/2000/svg">
<path d="M4 16C4 2 22 4.76837e-07 24 12C26 4.76837e-07 44 2 44 16C44 17.4873 43.8464 18.8824 43.5583 20.2043C43.0613 20.0711 42.539 20 42 20H40V18C40 14.6863 37.3137 12 34 12C30.6863 12 28 14.6863 28 18V20H26C22.6863 20 20 22.6863 20 26C20 29.3137 22.6863 32 26 32H28V34C28 35.7383 28.7392 37.3039 29.9204 38.3996C28.0003 40.1598 26.0001 41.9999 24 44C21.9129 41.9129 19.8258 40.0001 17.8296 38.1705C10.2614 31.2341 4 25.4955 4 16Z" fill="#ffffff"/>
<path d="M34 16C35.1046 16 36 16.8954 36 18V24H42C43.1046 24 44 24.8954 44 26C44 27.1046 43.1046 28 42 28H36V34C36 35.1046 35.1046 36 34 36C32.8954 36 32 35.1046 32 34V28H26C24.8954 28 24 27.1046 24 26C24 24.8954 24.8954 24 26 24H32V18C32 16.8954 32.8954 16 34 16Z" fill="#ffffff"/>
</svg>
