<svg width="580" height="580" viewBox="0 0 580 580" fill="none" xmlns="http://www.w3.org/2000/svg">
<path d="M292.625 533.348L292.955 449.95" stroke="white" stroke-width="24" stroke-linecap="round" stroke-linejoin="round"/>
<path d="M354.135 475.158L314.143 533.461" stroke="white" stroke-width="24" stroke-linecap="round" stroke-linejoin="round"/>
<path d="M231.417 465.78L271.404 533.461" stroke="white" stroke-width="24" stroke-linecap="round" stroke-linejoin="round"/>
<path fill-rule="evenodd" clip-rule="evenodd" d="M417.021 404.271C417.021 421.239 413.844 438.767 390.849 437.463C394.173 486.549 340.035 494.271 296.021 494.271C229.195 494.271 175.021 453.977 175.021 404.271C175.021 382.525 194.582 350.56 218.914 365.408C224.136 334.092 240.753 315.685 278.343 315.685C298.752 315.685 316.709 339.69 320.899 336.303C341.87 319.349 395.326 345.09 383.98 370.914C398.831 375.324 417.021 391.235 417.021 404.271Z" fill="white"/>
<path d="M55.3716 373.552L55.9912 485.609" stroke="white" stroke-width="35" stroke-linecap="round"/>
<path d="M119.947 357.264L120.566 469.321" stroke="white" stroke-width="35" stroke-linecap="round"/>
<path d="M166.078 67.0104L165.458 179.067" stroke="white" stroke-width="35" stroke-linecap="round"/>
<path d="M101.502 44.7233L100.883 156.78" stroke="white" stroke-width="35" stroke-linecap="round"/>
<path d="M512.223 72.1349L511.572 159.448" stroke="white" stroke-width="35" stroke-linecap="round"/>
<path d="M445.373 68.769L444.722 156.082" stroke="white" stroke-width="35" stroke-linecap="round"/>
<path d="M296.956 169.562L297.576 281.619" stroke="white" stroke-width="35" stroke-linecap="round"/>
<path d="M365.431 166.346L366.05 278.403" stroke="white" stroke-width="35" stroke-linecap="round"/>
<path d="M467.367 383.769L468.043 454.483" stroke="white" stroke-width="35" stroke-linecap="round"/>
<path d="M534.256 409.302L534.932 480.016" stroke="white" stroke-width="35" stroke-linecap="round"/>
</svg>
