<svg width="48" height="48" fill="none" version="1.1" viewBox="0 0 580 580" xmlns="http://www.w3.org/2000/svg">
 <path d="m383.46 229.56-19.691 48.238-22.283 65.803s-23.97 23.912-40.952 60.963c-16.981 37.05 9.2067 74.572-51 86.924-19.65 4.0304-44.173 32.65-54.97 45.081-11.605 13.362-14.258 20.921-14.435 28.093l399.87 0.44374z" fill="#000000" stroke-width="1.5961"/>
 <g transform="matrix(1.223 0 0 1.223 -70.266 -42.319)" stroke="#000000" stroke-linecap="round" stroke-linejoin="round" stroke-width="21.817">
  <path d="m343.12 203.28c-126.33 251.41-154.41 284.33-211.47 257.8-26.207-12.183-23.231-35.539-20.822-48.59 6.3243-34.259 59.923-52.724 61.871-22.254"/>
  <path d="m309.26 150.05c-33.475 75.585-58.79 133.82-100.65 194.46"/>
  <path d="m127.88 370.2c-12.138-52.932 34.395-76.342 49.764-58.981"/>
 </g>
</svg>
