<svg width="580" height="580" viewBox="0 0 580 580" fill="none" xmlns="http://www.w3.org/2000/svg">
<g clip-path="url(#clip0)">
<path d="M448.704 439.633C463.799 432.194 478.147 414.005 481.282 398.332C483.569 386.896 484.125 386.605 503.702 386.605C520.078 386.605 525.451 384.93 532.867 377.515C551.952 358.43 538.184 327.349 510.646 327.349C499.984 327.349 497.515 325.956 497.515 319.942C497.515 312.617 495.036 312.559 275.304 314.701H53.0934V349.57V386.605H74.9023H96.7112L99.1817 399.774C102.464 417.271 126.126 440.933 143.623 444.215C150.866 445.574 162.718 445.574 169.961 444.215C187.458 440.933 211.119 417.271 214.402 399.774C217.821 381.547 229.089 381.547 232.508 399.774C235.791 417.271 259.452 440.933 276.949 444.215C284.192 445.574 296.044 445.574 303.287 444.215C320.785 440.933 344.446 417.271 347.728 399.774C350.988 382.4 362.24 381.493 365.608 398.332C372.891 434.745 415.573 455.959 448.704 439.633ZM404.187 421.161C368.72 400.21 383.169 345.992 424.22 345.992C455.234 345.992 474.063 378.352 459.469 406.573C449.83 425.213 423.022 432.287 404.187 421.161ZM271.371 420.467C236.558 399.903 250.741 346.686 291.034 346.686C321.476 346.686 339.957 378.449 325.633 406.149C316.171 424.445 289.858 431.388 271.371 420.467ZM138.188 420.273C103.558 399.817 117.666 346.88 157.747 346.88C188.028 346.88 206.412 378.476 192.163 406.03C182.752 424.229 156.577 431.136 138.188 420.273ZM523.54 281.981C537.193 251.901 530.277 214.492 508.803 202.271C499.059 196.726 488.75 193.778 488.73 180.134L488.707 164.394H459.078H429.45V179.208V194.022H319.746H203.4V245.872V297.721H358.814H516.395L523.539 281.981H523.54ZM186.42 216.243V134.766H112.35H38.2793V167.794C38.2793 177.331 40.7258 184.248 45.6863 188.737C52.5178 194.92 53.0934 221.307 53.0934 237.187V297.721H119.757H186.42V216.243ZM97.5355 194.022V164.394H127.164H156.792V194.022V223.65H127.164H97.5355V194.022Z" fill="white"/>
</g>
<defs>
<clipPath id="clip0">
<path d="M0 0H580V580H0V0Z" fill="white"/>
</clipPath>
</defs>
</svg>
