<svg width="580" height="580" viewBox="0 0 580 580" fill="none" xmlns="http://www.w3.org/2000/svg">
<path d="M98.9278 343.315C130.702 343.315 156.461 317.557 156.461 285.782C156.461 254.008 130.702 228.249 98.9278 228.249C67.1532 228.249 41.3955 254.008 41.3955 285.782C41.3955 317.557 67.1532 343.315 98.9278 343.315Z" fill="#ffffff"/>
<path d="M421.517 442.223C424.198 440.412 427.748 440.918 429.705 443.527L440.285 458.236C442.096 460.773 441.588 464.469 438.98 466.425L360.868 523.16C358.332 524.971 354.637 524.465 352.681 521.856L342.101 507.147C340.289 504.611 340.797 500.915 343.406 498.959L421.517 442.223Z" fill="#ffffff"/>
<path d="M316.958 381.212L333.261 369.039L302.249 314.694L285.945 326.578L316.958 381.212Z" fill="#ffffff"/>
<path d="M244.498 254.118L260.947 242.09L140.447 30.5078L117.332 30.6527L244.498 254.118Z" fill="#ffffff"/>
<path d="M374.418 354.04C381.23 349.113 388.983 345.272 397.895 345.272L509.845 345.417C531.656 345.417 549.191 363.097 549.191 384.763C549.191 406.573 531.656 424.108 509.845 424.108L416.445 423.964L297.177 508.162C255.15 538.45 229.644 505.191 229.644 505.191L136.027 411.5C120.303 392.661 123.708 356.866 142.548 340.997L272.106 248.756C285.003 238.032 304.06 239.699 315.002 252.452C325.726 265.349 324.059 284.551 311.161 295.348L228.195 356.069L287.757 414.979L374.418 354.04Z" fill="#ffffff"/>
</svg>
