<svg width="48" height="48" viewBox="0 0 580 580" fill="none" xmlns="http://www.w3.org/2000/svg">
<path d="M192.718 56.7321C192.718 56.7321 269.568 54.9239 359.529 124.541C359.529 124.541 439.562 47.0763 565.868 54.4895C485.593 62.9542 395.399 130.613 359.529 185.118C359.529 185.118 273.185 82.9517 192.718 56.7321Z" fill="white" />
<path d="M274.236 266.9H231.469C225.438 266.9 220.55 262.012 220.55 255.98V235.053C220.55 229.023 225.438 224.134 231.469 224.134H274.236C280.266 224.134 285.155 229.023 285.155 235.053V255.981C285.155 262.012 280.266 266.9 274.236 266.9Z" fill="white" />
<path d="M92.2498 276.91H158.536H183.242H208.721H233.591H299.714L330.651 380.642V522.591H330.045C326.324 536.513 305.813 547.16 281.06 547.16C256.306 547.16 235.796 536.513 232.074 522.591H231.468V396.925L208.72 400.66V362.167H183.241V400.66L160.493 396.925V522.591H159.887C156.165 536.513 135.654 547.16 110.902 547.16C86.1473 547.16 65.637 536.513 61.9164 522.591H61.3103V380.642L92.2498 276.91Z" fill="white" />
<path d="M160.495 266.9H117.727C111.698 266.9 106.808 262.012 106.808 255.98V235.053C106.808 229.023 111.698 224.134 117.727 224.134H160.495C166.526 224.134 171.414 229.023 171.414 235.053V255.981C171.414 262.012 166.526 266.9 160.495 266.9Z" fill="white" />
</svg>