<svg width="48" height="48" viewBox="0 0 48 48" fill="none" xmlns="http://www.w3.org/2000/svg">
<rect opacity="0.5" x="20" y="28" width="8" height="16" fill="white" />
<path fill-rule="evenodd" clip-rule="evenodd" d="M14 4C8.47715 4 4 8.47715 4 14V28H44V14C44 8.47715 39.5228 4 34 4H14ZM20 24V14C20 10.6863 17.3137 8 14 8C10.6863 8 8 10.6863 8 14V24H20ZM28 10C28 8.89543 28.8954 8 30 8H36C38.2091 8 40 9.79086 40 12V14C40 15.1046 39.1046 16 38 16C36.8954 16 36 15.1046 36 14V12H30C28.8954 12 28 11.1046 28 10Z" fill="white" />
</svg>