<svg width="48" height="48" viewBox="0 0 580 580" fill="none" xmlns="http://www.w3.org/2000/svg">
<path fill-rule="evenodd" clip-rule="evenodd" d="M99.7325 258.406C58.9717 275.39 43.098 284.735 37.674 288.375H483.195C474.598 282.564 457.953 272.68 427.154 258.406C161.251 258.39 407.255 259.124 99.7325 258.406ZM35.549 309.016L35.9591 325.674C35.9591 325.674 52.4164 420.067 106.397 420.067H423.483C482.238 417.635 491.459 326.154 491.459 326.154V309.016H35.549ZM120.49 321.242C141.213 321.243 158.011 338.014 158.012 358.703C158.013 379.393 141.214 396.166 120.49 396.166C99.7664 396.167 82.9662 379.394 82.9669 358.703C82.9673 338.013 99.7672 321.242 120.49 321.242ZM215.602 321.242C236.325 321.242 253.125 338.013 253.125 358.703C253.126 379.394 236.326 396.167 215.602 396.166C194.879 396.166 178.079 379.393 178.08 358.703C178.081 338.014 194.879 321.243 215.602 321.242ZM310.715 321.242C331.437 321.243 348.236 338.014 348.236 358.703C348.237 379.393 331.438 396.166 310.715 396.166C289.992 396.166 273.193 379.393 273.193 358.703C273.194 338.014 289.993 321.243 310.715 321.242ZM405.828 321.893C426.551 321.893 443.349 338.665 443.35 359.354C443.349 380.043 426.551 396.814 405.828 396.815C385.105 396.815 368.305 380.043 368.305 359.354C368.305 338.664 385.105 321.892 405.828 321.893Z" fill="white" />
<path fill-rule="evenodd" clip-rule="evenodd" d="M164.293 163.188H312.535C312.535 163.188 318.906 164.271 326.503 175.744C334.099 187.218 341.271 238.906 341.271 238.906H137.838C137.838 238.906 147.194 188.985 153.179 176.973C159.164 164.961 164.293 163.188 164.293 163.188Z" fill="white" />
<path fill-rule="evenodd" clip-rule="evenodd" d="M351.675 185.678L482.642 176.15L491.794 168.501L533.181 164.342L538.484 211.624L496.433 215.426L486.076 209.289L357.488 218.896C357.488 218.896 355.261 202.118 354.181 196.574C353.101 191.031 351.675 185.678 351.675 185.678Z" fill="white" />
</svg>