<svg width="48" height="48" viewBox="0 0 48 48" fill="none" xmlns="http://www.w3.org/2000/svg">
<path fill-rule="evenodd" clip-rule="evenodd" d="M7.41421 4.58579C6.63316 3.80474 5.36683 3.80474 4.58579 4.58579C3.80474 5.36683 3.80474 6.63316 4.58579 7.41421L11.2929 14.1213L8 24V37C8 38.6569 9.34315 40 11 40C12.6569 40 14 38.6569 14 37V36H33.1716L34 36.8284V37C34 38.6569 35.3431 40 37 40C37.056 40 37.1117 39.9985 37.167 39.9954L40.5858 43.4142C41.3668 44.1953 42.6332 44.1953 43.4142 43.4142C44.1953 42.6332 44.1953 41.3668 43.4142 40.5858L7.41421 4.58579ZM21.1716 24L14.4552 17.2836L12.2164 24H21.1716ZM16 30C16 31.1046 15.1046 32 14 32C12.8954 32 12 31.1046 12 30C12 28.8954 12.8954 28 14 28C15.1046 28 16 28.8954 16 30Z" fill="#3f3f3f"/>
<path d="M35.7836 24H33.6569L40 30.3431V24L36.6325 13.8974C36.2548 12.7643 35.1944 12 34 12H21.6569L25.6569 16H33.117L35.7836 24Z" fill="#3f3f3f"/>
</svg>
