<svg width="48" height="48" viewBox="0 0 48 48" fill="none" xmlns="http://www.w3.org/2000/svg">
<path d="M24 8C25.1046 8 26 7.10457 26 6C26 4.89543 25.1046 4 24 4C22.8954 4 22 4.89543 22 6C22 7.10457 22.8954 8 24 8Z" fill="white"/>
<path d="M22 10H25.6875L26 12H28V14L26 16L28 28H20L22 16L20 14V12H22V10Z" fill="white"/>
<path d="M16 42C16 40.8954 16.8954 40 18 40H20V36C18.8954 36 18 35.1046 18 34C18 32.8954 18.8954 32 20 32H28C29.1046 32 30 32.8954 30 34C30 35.1046 29.1046 36 28 36V40H30C31.1046 40 32 40.8954 32 42V44H16V42Z" fill="white"/>
</svg>
