<svg width="48" height="48" viewBox="0 0 48 48" fill="none" xmlns="http://www.w3.org/2000/svg">
<path d="M24 10C25.6569 10 27 8.65685 27 7C27 5.34315 25.6569 4 24 4C22.3431 4 21 5.34315 21 7C21 8.65685 22.3431 10 24 10Z" fill="white" />
<path d="M16 16C16 13.7909 17.7909 12 20 12H28C30.2091 12 32 13.7909 32 16V27C32 27.5523 31.5523 28 31 28C30.4477 28 30 27.5523 30 27V16H28V43C28 43.5523 27.5523 44 27 44C26.4477 44 26 43.5523 26 43V28H22V43C22 43.5523 21.5523 44 21 44C20.4477 44 20 43.5523 20 43V16H18V27C18 27.5523 17.5523 28 17 28C16.4477 28 16 27.5523 16 27V16Z" fill="white" />
</svg>