<svg width="580" height="580" viewBox="0 0 580 580" fill="none" xmlns="http://www.w3.org/2000/svg">
<path d="M400.315 249.612C400.315 240.192 396.858 232.726 389.943 227.211C383.179 221.582 371.606 216.413 355.222 211.703C338.838 206.993 324.709 202.341 312.835 197.746C300.96 193.036 290.739 187.694 282.171 181.72C273.754 175.632 267.14 168.509 262.33 160.353C257.671 152.197 255.341 142.49 255.341 131.232C255.341 111.818 263.458 95.9075 279.691 83.5008C295.925 71.0942 317.494 63.8569 344.4 61.7892V24.9138H380.474V62.3061C407.079 65.178 427.897 73.6789 442.928 87.8087C457.959 101.824 465.474 120.032 465.474 142.432H400.315C400.315 128.647 396.557 118.366 389.042 111.588C381.676 104.696 371.756 101.249 359.28 101.249C346.955 101.249 337.41 103.949 330.646 109.348C323.882 114.632 320.5 121.984 320.5 131.404C320.5 140.135 323.807 147.142 330.421 152.427C337.034 157.711 349.285 163.11 367.172 168.624C385.209 174.138 400.014 179.365 411.588 184.305C423.162 189.13 432.932 194.644 440.898 200.847C448.865 206.936 454.952 213.943 459.161 221.87C463.37 229.681 465.474 238.814 465.474 249.268C465.474 268.797 457.508 284.65 441.575 296.827C425.642 309.004 403.697 316.183 375.739 318.366V352.657H339.89V318.538C309.077 316.011 285.177 307.682 268.192 293.553C251.358 279.308 242.94 260.411 242.94 236.861H308.1C308.1 250.531 312.308 261.043 320.726 268.395C329.293 275.632 341.544 279.251 357.477 279.251C370.704 279.251 381.15 276.608 388.816 271.324C396.482 265.925 400.315 258.688 400.315 249.612Z" fill="#ffffff"/>
<path d="M168.588 483.875L294.386 541.839C294.386 541.839 309.185 550.472 333.851 541.839L537.343 460.441C537.343 460.441 566.532 442.078 529.533 424.813L380.714 455.508L315.35 439.475L414.014 433.308C414.014 433.308 446.079 409.876 415.246 387.678H311.65C311.65 387.678 266.019 361.778 199.42 374.111L37.8594 365.478V504.839L168.588 483.875Z" fill="#ffffff"/>
</svg>
