<svg width="48" height="48" viewBox="0 0 580 580" fill="none" xmlns="http://www.w3.org/2000/svg">
<path d="M443.12 347.689C443.839 369.721 443.055 356.189 445.082 373.886C447.213 392.476 449.659 397.268 446.944 432.507C441.198 507.067 408.467 544.785 408.467 544.785C408.467 544.785 368.285 486.755 369.325 431.66C369.325 385.92 384.538 387.764 386.858 347.796L443.12 347.689Z" fill="white" fill-opacity="0.75" />
<path d="M414.506 45.7881C391.552 45.7881 375.217 60.5974 375.217 89.7044L375.016 298.033C375.016 310.507 380.377 319.976 380.377 319.976L448.129 320.186C448.129 320.186 456.142 310.507 456.119 298.033L455.734 91.7578C455.676 60.5723 437.46 45.7881 414.506 45.7881ZM437.402 279.645H393.025V256.775H437.402V279.645ZM437.402 227.668L393.025 227.668V204.798H437.402V227.668Z" fill="white" />
<path d="M144.695 145.469C144.695 124.81 144.695 73.0772 144.712 72.2711C144.706 65.9474 147.438 60.0041 152.4 55.538C157.368 51.0668 163.965 48.6134 170.991 48.6084C178.017 48.6033 184.626 51.0668 189.599 55.543C194.555 60.0041 197.287 65.9474 197.303 72.2811C197.303 73.1323 197.292 124.885 197.286 145.469H144.695Z" fill="white" fill-opacity="0.825397" />
<path d="M170.985 546.583C155.448 546.588 140.84 541.15 129.843 531.251C118.861 521.368 112.815 508.215 112.809 494.22C112.809 493.74 112.815 492.273 112.809 490.044L132.04 490.049C136.39 490.049 139.906 486.885 139.906 482.97C139.906 481.007 139.027 479.235 137.603 477.953C136.179 476.671 134.209 475.88 132.04 475.88H112.815C112.815 468.81 112.815 460.018 112.815 449.984H143.166C147.516 449.984 151.031 446.82 151.031 442.904C151.031 440.952 150.153 439.179 148.728 437.897C147.304 436.616 145.335 435.825 143.166 435.825H112.815C112.821 427.668 112.815 418.971 112.815 409.929L132.04 409.929C136.39 409.929 139.906 406.764 139.906 402.849C139.906 400.896 139.027 399.124 137.603 397.842C136.179 396.56 134.209 395.769 132.04 395.769H112.815C112.815 387.268 112.815 378.596 112.815 369.873H143.166C147.516 369.873 151.031 366.709 151.031 362.794C151.031 360.841 150.153 359.069 148.728 357.787C147.304 356.505 145.335 355.714 143.166 355.714H112.815C112.815 346.982 112.815 338.3 112.815 329.818H132.04C136.39 329.818 139.906 326.654 139.906 322.738C139.906 320.786 139.027 319.013 137.603 317.731C136.179 316.45 134.209 315.659 132.04 315.659H112.815C112.815 306.586 112.815 297.904 112.815 289.763H143.166C147.516 289.763 151.031 286.598 151.031 282.683C151.031 280.73 150.153 278.958 148.728 277.676C147.304 276.394 145.335 275.603 143.166 275.603H112.815L112.815 249.707H132.04C136.39 249.707 139.906 246.543 139.906 242.628C139.906 240.675 139.027 238.903 137.603 237.621C136.179 236.339 134.209 235.548 132.04 235.548H112.815L112.809 229.434C112.809 218.209 121.542 206.993 129.987 196.138C137.207 186.856 144.673 177.262 144.684 169.532V159.628H163.108V411.556C163.108 415.471 166.624 418.636 170.974 418.636C175.324 418.636 178.84 415.471 178.84 411.556L178.846 159.623L197.275 159.628C197.275 163.453 197.275 166.878 197.275 169.522C197.275 177.042 204.691 186.61 211.861 195.858C220.367 206.818 229.156 218.164 229.162 229.444C229.145 236.419 229.145 486.665 229.168 494.225C229.151 523.09 203.05 546.573 170.986 546.583L170.985 546.583Z" fill="white" />
</svg>