<svg width="48" height="48" viewBox="0 0 48 48" fill="none" xmlns="http://www.w3.org/2000/svg">
<path d="M7.41421 4.58579C6.63316 3.80474 5.36683 3.80474 4.58579 4.58579C3.80474 5.36683 3.80474 6.63316 4.58579 7.41421L16 18.8284V27C16 27.5523 16.4477 28 17 28C17.5523 28 18 27.5523 18 27V20.8284L20 22.8284V43C20 43.5523 20.4477 44 21 44C21.5523 44 22 43.5523 22 43V28H25.1716L26 28.8284V43C26 43.5523 26.4477 44 27 44C27.5523 44 28 43.5523 28 43V30.8284L40.5858 43.4142C41.3668 44.1953 42.6332 44.1953 43.4142 43.4142C44.1953 42.6332 44.1953 41.3668 43.4142 40.5858L7.41421 4.58579Z" fill="white" />
<path d="M30 16V20.3431L32 22.3431V16C32 13.7909 30.2091 12 28 12H21.6569L28 18.3431V16H30Z" fill="white" />
<path d="M24 10C25.6569 10 27 8.65685 27 7C27 5.34315 25.6569 4 24 4C22.3431 4 21 5.34315 21 7C21 8.65685 22.3431 10 24 10Z" fill="white" />
</svg>