<svg width="580" height="580" viewBox="0 0 580 580" fill="none" xmlns="http://www.w3.org/2000/svg">
<path d="M343.451 264.451H236.548L165.279 550.852H414.72L343.451 264.451ZM255.844 336.051H325.438L334.168 371.851H246.864L255.844 336.051ZM237.866 407.651H342.881L351.611 443.451H228.887L237.866 407.651ZM219.907 479.251H360.359L369.09 515.051H210.927L219.907 479.251Z" fill="white"/>
<path d="M290.001 234.689C322.838 234.689 349.458 208.069 349.458 175.231C349.458 142.394 322.838 115.773 290.001 115.773C257.163 115.773 230.543 142.394 230.543 175.231C230.543 208.069 257.163 234.689 290.001 234.689Z" fill="white"/>
<path d="M418.559 160.454C410.251 95.7717 355.228 47.3041 290.014 47.2236C224.79 47.2899 169.751 95.7611 161.441 160.454" stroke="white" stroke-width="36.1508" stroke-linecap="round" stroke-linejoin="round"/>
<path d="M182.586 140.626H156.547V205.183H182.586V140.626Z" stroke="white" stroke-width="30" stroke-linecap="round" stroke-linejoin="round"/>
<path d="M423.452 142.56H397.412V207.116H423.452V142.56Z" stroke="white" stroke-width="30" stroke-linecap="round" stroke-linejoin="round"/>
</svg>
