<svg width="48" height="48" viewBox="0 0 580 580" fill="none" xmlns="http://www.w3.org/2000/svg">
<path d="M290 392.175C196.335 392.175 120.406 420.363 120.406 455.144C120.406 489.925 196.335 518.113 290 518.113C383.665 518.113 459.594 489.925 459.594 455.144C459.594 420.363 383.665 392.175 290 392.175ZM290 393.425C360.377 393.425 417.438 414.604 417.438 440.738C417.438 466.871 360.377 488.05 290 488.05C219.623 488.05 162.562 466.871 162.562 440.738C162.562 414.604 219.623 393.425 290 393.425Z" fill="white" />
<path d="M124.434 193.113C117.974 194.283 123.082 162.176 144.522 139.032C167.578 114.145 213.04 108.114 252.427 138.014C241.284 112.415 215.744 88.099 189.115 87.9162C154.863 87.681 137.543 112.081 132.357 108.014C127.897 104.516 159.718 70.2122 189.548 67.368C217.087 64.7422 241.173 69.0911 270.065 97.5714C262.883 68.5191 240.289 51.8859 247.918 50.4728C256.286 48.9228 291.535 76.1966 298.84 120.948C316.848 81.1715 339.579 67.4118 365.519 61.5591C397.687 54.3013 433.531 62.1448 456.538 82.3482C462.75 87.8028 427.241 74.0709 389.185 79.7898C364.493 83.5005 347.646 102.073 333.256 121.5C358.536 104.447 389.929 116.312 404.874 128.313C434.566 152.156 440.305 190.109 440.305 190.109C440.532 193.231 434.698 189.962 413.818 167.254C367.405 116.775 330.219 163.438 324.42 185.423C316.034 217.218 317.906 203.077 314.51 268.449C311.408 328.154 313.666 442.826 313.666 442.826C313.666 442.826 311.453 450.658 294.167 450.115C276.881 449.572 275.776 442.435 275.776 442.435C275.776 442.435 275.086 328.468 269.765 268.366C265.455 219.682 264.771 227.117 253.923 192.904C242.269 156.148 187.316 141.164 156.168 156.97C135.437 167.49 130.815 191.958 124.434 193.113Z" fill="white" />
</svg>