<svg width="580" height="580" viewBox="0 0 580 580" fill="none" xmlns="http://www.w3.org/2000/svg">
<path d="M143.291 308.486C128.128 308.486 115.116 317.699 109.547 330.834L106.654 366.148V404.904C106.654 409.619 107.552 414.119 109.174 418.26H30.0409V445.049V455.766V548.641H54.8199V455.766H308.895V548.641H333.67V455.766H333.672V418.26H254.539C256.161 414.119 257.059 409.618 257.059 404.904V366.15L254.166 330.832C248.597 317.7 235.585 308.486 220.422 308.486H143.291H143.291ZM135.578 357.66H144.256V418.26H135.578V357.66ZM219.457 357.66H228.135V418.26H219.457V357.66Z" fill="white"/>
<path d="M181.857 203.242C157.097 203.242 137.023 223.313 137.023 248.074C137.023 272.835 157.097 292.906 181.857 292.906C206.618 292.906 226.689 272.835 226.689 248.074C226.689 223.313 206.618 203.242 181.857 203.242Z" fill="white"/>
<path d="M395.235 128.474C413.82 128.474 428.886 113.408 428.886 94.8229C428.886 76.2377 413.82 61.1714 395.235 61.1714C376.65 61.1714 361.583 76.2377 361.583 94.8229C361.583 113.408 376.65 128.474 395.235 128.474Z" fill="white"/>
<path d="M284.51 88.6693C303.095 88.6693 318.162 73.603 318.162 55.0178C318.162 36.4325 303.095 21.3662 284.51 21.3662C265.925 21.3662 250.859 36.4325 250.859 55.0178C250.859 73.603 265.925 88.6693 284.51 88.6693Z" fill="white"/>
<path d="M505.958 88.6693C524.544 88.6693 539.61 73.603 539.61 55.0178C539.61 36.4325 524.544 21.3662 505.958 21.3662C487.373 21.3662 472.307 36.4325 472.307 55.0178C472.307 73.603 487.373 88.6693 505.958 88.6693Z" fill="white"/>
<path d="M534.906 100.364H477.01C461.822 100.364 449.511 112.676 449.511 127.863V156.941C445.329 147.083 435.564 140.169 424.182 140.169H366.285C354.902 140.169 345.137 147.083 340.957 156.942V127.863C340.957 112.676 328.645 100.364 313.457 100.364H255.56C240.372 100.364 228.061 112.676 228.061 127.863V172.734C228.061 185.936 237.364 196.959 249.77 199.618V137.272H256.284V223.695H312.731V137.272H319.245V199.618C328.077 197.724 335.334 191.589 338.784 183.449V212.539C338.784 225.74 348.088 236.764 360.495 239.422V177.078H367.008V263.5H423.457V177.078H429.97V239.422C442.376 236.763 451.68 225.74 451.68 212.539V183.45C455.13 191.59 462.388 197.724 471.22 199.618V137.272H477.733V223.695H534.181V137.272H540.695V199.618C553.102 196.958 562.405 185.934 562.405 172.734V127.863C562.407 112.677 550.094 100.364 534.906 100.364Z" fill="white"/>
</svg>
