<svg width="580" height="580" viewBox="0 0 580 580" fill="none" xmlns="http://www.w3.org/2000/svg">
<path d="M131.796 192.046L228.247 288.966L131.796 385.417V192.046ZM431.855 173.874L313.052 292.222C307.145 298.128 299.69 301.081 290.684 301.081C281.366 301.081 273.597 297.972 267.379 291.753L149.499 173.874H431.855ZM450.497 385.417L354.046 288.966L450.497 192.046V385.417ZM149.03 403.589L245.95 307.139L250.145 311.333C261.33 322.206 274.844 327.643 290.684 327.643C306.525 327.643 319.881 322.206 330.755 311.333L334.95 307.139L431.855 403.589H149.03ZM105.703 429.682H477.528V147.312H105.703V429.682Z" fill="#ffffff"/>
<path d="M564.575 292.466C564.577 328.352 557.511 363.888 543.779 397.043C530.048 430.198 509.92 460.324 484.545 485.701C459.17 511.077 429.045 531.206 395.891 544.94C362.736 558.674 327.201 565.742 291.315 565.742C255.428 565.742 219.893 558.674 186.739 544.94C153.584 531.206 123.46 511.077 98.0849 485.701C72.7101 460.324 52.5822 430.198 38.8505 397.043C25.1189 363.888 18.0523 328.352 18.0544 292.466C18.0523 256.579 25.1189 221.044 38.8505 187.889C52.5822 154.733 72.7101 124.607 98.0849 99.231C123.46 73.8548 153.584 53.7251 186.739 39.9915C219.893 26.2578 255.428 19.1892 291.315 19.1892C327.201 19.1892 362.736 26.2578 395.891 39.9915C429.045 53.7251 459.17 73.8548 484.545 99.231C509.92 124.607 530.048 154.733 543.779 187.889C557.511 221.044 564.577 256.579 564.575 292.466V292.466Z" stroke="#ffffff" stroke-width="23.8039"/>
<path opacity="0.1" d="M564.575 292.466C564.577 328.352 557.511 363.888 543.779 397.043C530.048 430.198 509.92 460.324 484.545 485.701C459.17 511.077 429.045 531.206 395.891 544.94C362.736 558.674 327.201 565.742 291.315 565.742C255.428 565.742 219.893 558.674 186.739 544.94C153.584 531.206 123.46 511.077 98.0849 485.701C72.7101 460.324 52.5822 430.198 38.8505 397.043C25.1189 363.888 18.0523 328.352 18.0544 292.466C18.0523 256.579 25.1189 221.044 38.8505 187.889C52.5822 154.733 72.7101 124.607 98.0849 99.231C123.46 73.8548 153.584 53.7251 186.739 39.9915C219.893 26.2578 255.428 19.1892 291.315 19.1892C327.201 19.1892 362.736 26.2578 395.891 39.9915C429.045 53.7251 459.17 73.8548 484.545 99.231C509.92 124.607 530.048 154.733 543.779 187.889C557.511 221.044 564.577 256.579 564.575 292.466Z" fill="#ffffff" stroke="#ffffff" stroke-width="23.8039"/>
</svg>
