<svg width="12" height="12" viewBox="0 0 12 12" fill="none" xmlns="http://www.w3.org/2000/svg">
<path fill-rule="evenodd" clip-rule="evenodd" d="M11.5 4C11.5 4.55228 11.0523 5 10.5 5H9V6.5C9 7.05228 8.55228 7.5 8 7.5H6.5V9C6.5 9.55228 6.05228 10 5.5 10H1.5C0.947715 10 0.5 9.55228 0.5 9V7.5C0.5 6.94772 0.947715 6.5 1.5 6.5H3V5C3 4.44772 3.44772 4 4 4L5.5 4V2.5C5.5 1.94772 5.94772 1.5 6.5 1.5H10.5C11.0523 1.5 11.5 1.94772 11.5 2.5V4Z" fill="white" fill-opacity="0.68"/>
<path fill-rule="evenodd" clip-rule="evenodd" d="M8 4H10.5V2.5H6.5V5L4 5V7.5H1.5V9H5.5V6.5H8V4Z" fill="#393939"/>
</svg>
