<svg width="48" height="48" viewBox="0 0 48 48" fill="none" xmlns="http://www.w3.org/2000/svg">
<path fill-rule="evenodd" clip-rule="evenodd" d="M10 4C11.1046 4 12 4.89543 12 6V42C12 43.1046 11.1046 44 10 44C8.89543 44 8 43.1046 8 42V6C8 4.89543 8.89543 4 10 4Z" fill="white" />
<path fill-rule="evenodd" clip-rule="evenodd" d="M38 4C39.1046 4 40 4.89543 40 6V42C40 43.1046 39.1046 44 38 44C36.8954 44 36 43.1046 36 42V6C36 4.89543 36.8954 4 38 4Z" fill="white" />
<path fill-rule="evenodd" clip-rule="evenodd" d="M8 14C8 12.8954 8.89543 12 10 12H38C39.1046 12 40 12.8954 40 14C40 15.1046 39.1046 16 38 16H10C8.89543 16 8 15.1046 8 14Z" fill="white" fill-opacity="0.75" />
</svg>