<svg width="48" height="48" viewBox="0 0 48 48" version="1.1" id="svg10" style="fill:none" xmlns="http://www.w3.org/2000/svg"><path d="M6 23.05zm0 .1V35.5h.03C6 36.07 12.43 43.96 24 44c9.6 0 17.43-3.76 17.97-8.5H42V23.14c0 4.99-8.06 9.03-18 9.03S6 28.14 6 23.15zm36 0v-.1.1z" id="path2" style="fill:#fff;fill-opacity:1;stroke-width:1" /><path style="fill:#fff;fill-opacity:1;stroke-width:1" d="M24.27 3.48c-1.37.03-2.78.2-4.27.52-7.76 1.74-13.5 7.88-13.5 15.17l.01.24c.25 4.87 8.21 8.79 18 8.79 9.77 0 17.74-3.91 18-8.79v-.24c0-7.53-6.1-13.82-14.25-15.32a17.6 17.6 0 0 0-3.99-.37zM23 6l1 6 6 .99L24 14l-.99 6L22 14l-6-.99L22 12l.99-6zm-8 8l1 4 4 1-4 1-1 4-1-4-4-1 4-1 1-4zm20 0l1 4 4 1-4 1-1 4-1-4-4-1 4-1 1-4z" id="path4" /></svg>