<svg width="48" height="48" viewBox="0 0 48 48" fill="none" version="1.1" id="svg6" xmlns="http://www.w3.org/2000/svg"><circle style="color:#000;clip-rule:nonzero;display:inline;overflow:visible;visibility:visible;opacity:1;isolation:auto;mix-blend-mode:normal;color-interpolation:sRGB;color-interpolation-filters:linearRGB;solid-color:#000;solid-opacity:1;vector-effect:none;fill:#fff;fill-opacity:1;fill-rule:nonzero;stroke:none;stroke-width:2;stroke-linecap:round;stroke-linejoin:miter;stroke-miterlimit:4;stroke-dasharray:none;stroke-dashoffset:0;stroke-opacity:1;marker:none;paint-order:normal;color-rendering:auto;image-rendering:auto;shape-rendering:auto;text-rendering:auto;enable-background:accumulate" id="path824" cx="34" cy="8" r="4" /><path style="opacity:1;vector-effect:none;fill:#fff;fill-opacity:1;stroke:none;stroke-width:2;stroke-linecap:round;stroke-linejoin:miter;stroke-miterlimit:4;stroke-dasharray:none;stroke-dashoffset:0;stroke-opacity:1;marker:none;paint-order:normal" d="M29.46 14c-.85 0-1.59.32-2.22.86.45.8.76 1.72.76 2.74v.4h2v24.53c0 1 .45 1.49 1.44 1.49 1 0 1.56-.5 1.56-1.49V28h2v14.53c0 1 .47 1.49 1.46 1.49 1.02 0 1.54-.5 1.54-1.49V18h2v7.76c0 .83.26 1.24.95 1.24.7 0 1.05-.41 1.05-1.24V17.6a3.9 3.9 0 0 0-1.08-2.57c-.64-.71-2.2-1.03-3.22-1.03z" id="path2-5" /><circle style="color:#000;clip-rule:nonzero;display:inline;overflow:visible;visibility:visible;opacity:1;isolation:auto;mix-blend-mode:normal;color-interpolation:sRGB;color-interpolation-filters:linearRGB;solid-color:#000;solid-opacity:1;vector-effect:none;fill:#fff;fill-opacity:1;fill-rule:nonzero;stroke:none;stroke-width:2;stroke-linecap:round;stroke-linejoin:miter;stroke-miterlimit:4;stroke-dasharray:none;stroke-dashoffset:0;stroke-opacity:1;marker:none;paint-order:normal;color-rendering:auto;image-rendering:auto;shape-rendering:auto;text-rendering:auto;enable-background:accumulate" id="path824-5" cx="17.96" cy="8" r="4" /><path style="opacity:1;vector-effect:none;fill:#fff;fill-opacity:1;stroke:none;stroke-width:2;stroke-linecap:round;stroke-linejoin:miter;stroke-miterlimit:4;stroke-dasharray:none;stroke-dashoffset:0;stroke-opacity:1;marker:none;paint-order:normal" d="M14 14l-.03 20h3v-6h2v14.53c0 1 .47 1.49 1.46 1.49 1.02 0 1.53-.5 1.53-1.49V18h2v7.76c0 .83.27 1.24.96 1.24.7 0 1.04-.41 1.04-1.24V17.6a3.9 3.9 0 0 0-1.08-2.57c-.64-.71-2.19-1.03-3.21-1.03H14zm-.03 22v6.53c0 1 .45 1.49 1.44 1.49s1.55-.5 1.55-1.49V36h-2.99z" id="path2-5-6" /><path style="fill:none;fill-rule:evenodd;stroke:#fff;stroke-width:2;stroke-linecap:butt;stroke-linejoin:miter;stroke-miterlimit:4;stroke-dasharray:none;stroke-opacity:1" d="M7 14v14l2 3v13" id="path977" /><path style="fill:none;fill-rule:evenodd;stroke:#fff;stroke-width:2;stroke-linecap:butt;stroke-linejoin:miter;stroke-miterlimit:4;stroke-dasharray:none;stroke-opacity:1" d="M9.1 31l1.9-3V15H7.1" id="path979" /><path style="fill:none;fill-rule:evenodd;stroke:#fff;stroke-width:2;stroke-linecap:butt;stroke-linejoin:miter;stroke-miterlimit:4;stroke-dasharray:none;stroke-opacity:1" d="M7 19h4" id="path984" /></svg>