<svg width="48" height="48" viewBox="0 0 48 48" fill="none" xmlns="http://www.w3.org/2000/svg">
<path fill-rule="evenodd" clip-rule="evenodd" d="M16 8L4 16H2V20H4V40H28V20H30V16H28L16 8ZM16 16C14.8954 16 14 16.8954 14 18C14 19.1046 14.8954 20 16 20C17.1046 20 18 19.1046 18 18C18 16.8954 17.1046 16 16 16ZM24 24H20V28H24V24ZM8 24H12V28H8V24ZM12 32H8V36H12V32ZM20 32H24V36H20V32Z" fill="white" />
<path opacity="0.7" fill-rule="evenodd" clip-rule="evenodd" d="M28 40H44V20H28V24H32V28H28V32H32V36H28V40ZM40 24H36V28H40V24ZM40 32H36V36H40V32Z" fill="white" />
</svg>