<svg width="48" height="48" viewBox="0 0 48 48" fill="none" xmlns="http://www.w3.org/2000/svg">
<path d="M4 32C4 29.7909 5.79086 28 8 28H44C46.2091 28 48 29.7909 48 32C48 34.2091 46.2091 36 44 36H8C5.79086 36 4 34.2091 4 32Z" fill="white" />
<path fill-rule="evenodd" clip-rule="evenodd" d="M14.1642 22.1642C12.8398 23.4887 12 25.4545 12 28V30H8V28C8 24.5455 9.16023 21.5113 11.3358 19.3358C13.5113 17.1602 16.5455 16 20 16H22V20H20C17.4545 20 15.4887 20.8398 14.1642 22.1642Z" fill="white" />
<path fill-rule="evenodd" clip-rule="evenodd" d="M14.1642 22.1642C12.8398 23.4887 12 25.4545 12 28V30H8V28C8 24.5455 9.16023 21.5113 11.3358 19.3358C13.5113 17.1602 16.5455 16 20 16H22V20H20C17.4545 20 15.4887 20.8398 14.1642 22.1642Z" fill="white" />
<path fill-rule="evenodd" clip-rule="evenodd" d="M37.8358 22.1642C36.5113 20.8398 34.5455 20 32 20L30 20L30 16L32 16C35.4545 16 38.4887 17.1602 40.6642 19.3358C42.8398 21.5113 44 24.5455 44 28L44 30L40 30L40 28C40 25.4545 39.1602 23.4887 37.8358 22.1642Z" fill="white" />
<path fill-rule="evenodd" clip-rule="evenodd" d="M20 16H32V20H20V16Z" fill="white" />
<path fill-rule="evenodd" clip-rule="evenodd" d="M28 18V30H24V18H28Z" fill="white" />
</svg>