<svg width="48" height="48" viewBox="0 0 48 48" fill="none" xmlns="http://www.w3.org/2000/svg">
<path fill-rule="evenodd" clip-rule="evenodd" d="M8 4V44H4V4H8Z" fill="white" />
<path fill-rule="evenodd" clip-rule="evenodd" d="M20 4V44H16V4H20Z" fill="white" />
<path fill-rule="evenodd" clip-rule="evenodd" d="M44 4V44H40V4H44Z" fill="white" />
<path fill-rule="evenodd" clip-rule="evenodd" d="M32 4V44H28V4H32Z" fill="white" />
<path fill-rule="evenodd" clip-rule="evenodd" d="M4 12H20V16H4V12Z" fill="white" />
<path fill-rule="evenodd" clip-rule="evenodd" d="M4 24H20V28H4V24Z" fill="white" />
<path fill-rule="evenodd" clip-rule="evenodd" d="M28 12H44V16H28V12Z" fill="white" />
<path fill-rule="evenodd" clip-rule="evenodd" d="M28 24H44V28H28V24Z" fill="white" />
<path fill-rule="evenodd" clip-rule="evenodd" d="M4 36H20V40H4V36Z" fill="white" />
<path fill-rule="evenodd" clip-rule="evenodd" d="M28 36H44V40H28V36Z" fill="white" />
<path fill-rule="evenodd" clip-rule="evenodd" d="M4 4H44V8H4V4Z" fill="white" />
<path fill-rule="evenodd" clip-rule="evenodd" d="M16 8H32V12H16V8Z" fill="white" />
</svg>