<svg width="580" height="580" viewBox="0 0 580 580" fill="none" xmlns="http://www.w3.org/2000/svg">
<path d="M44.6965 170.696H113.386C133.81 170.696 149.468 177.461 160.361 190.993C171.326 204.417 176.808 223.596 176.808 248.527C176.808 273.565 171.326 292.85 160.361 306.381C149.468 319.806 133.81 326.518 113.386 326.518H86.082V409.304H44.6965V170.696ZM86.082 215.285V281.929H108.978C117.005 281.929 123.204 279.052 127.575 273.299C131.947 267.439 134.132 259.182 134.132 248.527C134.132 237.873 131.947 229.669 127.575 223.915C123.204 218.162 117.005 215.285 108.978 215.285H86.082Z" fill="white"/>
<path d="M292.965 220.287V286.355H358.781V316.111H292.965V382.18H262.956V316.111H197.14V286.355H262.956V220.287H292.965Z" fill="white"/>
<path d="M449.2 276.495C457.871 276.495 464.07 274.098 467.797 269.304C471.595 264.509 473.494 256.625 473.494 245.65C473.494 234.783 471.595 227.005 467.797 222.317C464.07 217.629 457.871 215.285 449.2 215.285H431.786V276.495H449.2ZM431.786 319.007V409.304H390.4V170.696H453.607C474.748 170.696 490.227 175.97 500.045 186.518C509.935 197.066 514.879 213.74 514.879 236.541C514.879 252.31 512.3 265.255 507.14 275.377C502.052 285.498 494.348 292.957 484.028 297.751C489.69 299.669 494.742 304.037 499.185 310.856C503.7 317.569 508.251 327.797 512.837 341.541L535.304 409.304H491.231L471.667 350.012C467.725 338.079 463.712 329.928 459.627 325.56C455.614 321.191 450.239 319.007 443.503 319.007H431.786Z" fill="white"/>
</svg>
