<svg width="48" height="48" viewBox="0 0 48 48" fill="none" xmlns="http://www.w3.org/2000/svg">
<path fill-rule="evenodd" clip-rule="evenodd" d="M28 8C28 5.79086 29.7909 4 32 4H44C46.2091 4 48 5.79086 48 8V24C48 26.2091 46.2091 28 44 28H32C29.7909 28 28 26.2091 28 24V8ZM44 8H32V12H44V8ZM40 16H32V20H40V16Z" fill="#ffffff"/>
<path fill-rule="evenodd" clip-rule="evenodd" d="M2 14C3.28058 12.7194 5.01742 12 6.82843 12H17.1716C18.9826 12 20.7194 12.7194 22 14C23.2806 15.2806 24 17.0174 24 18.8284V36C24 37.4806 23.1956 38.7733 22 39.4649V41C22 42.6569 20.6569 44 19 44C17.3431 44 16 42.6569 16 41V40H8V41C8 42.6569 6.65685 44 5 44C3.34315 44 2 42.6569 2 41V39.4649C0.804397 38.7733 0 37.4806 0 36V18.8284C0 17.0174 0.719421 15.2806 2 14ZM4 20H20V28H4V20ZM8 34C8 35.1046 7.10457 36 6 36C4.89543 36 4 35.1046 4 34C4 32.8954 4.89543 32 6 32C7.10457 32 8 32.8954 8 34ZM18 36C19.1046 36 20 35.1046 20 34C20 32.8954 19.1046 32 18 32C16.8954 32 16 32.8954 16 34C16 35.1046 16.8954 36 18 36Z" fill="#ffffff"/>
<g opacity="0.5">
<path d="M32 8H44V12H32V8Z" fill="#ffffff"/>
<path d="M32 16H40V20H32V16Z" fill="#ffffff"/>
<path d="M40 24H36V40H34C32.8954 40 32 40.8954 32 42C32 43.1046 32.8954 44 34 44H42C43.1046 44 44 43.1046 44 42C44 40.8954 43.1046 40 42 40H40V24Z" fill="#ffffff"/>
</g>
</svg>
