<svg width="48" height="48" viewBox="0 0 48 48" fill="none" xmlns="http://www.w3.org/2000/svg">
<path d="M18.2665 13.863C20.2642 13.863 21.8836 12.2435 21.8836 10.2458C21.8836 8.24808 20.2642 6.62866 18.2665 6.62866C16.2688 6.62866 14.6493 8.24808 14.6493 10.2458C14.6493 12.2435 16.2688 13.863 18.2665 13.863Z" fill="white"/>
<path d="M4.92475 33.6343C5.77222 33.6343 6.58656 33.4401 7.31567 33.1135C8.06373 32.7678 8.91123 32.5642 9.78707 32.5642C10.663 32.5642 11.5104 32.7678 12.2538 33.1135C12.9876 33.4401 13.8067 33.6295 14.6636 33.6295C15.5159 33.6295 16.3349 33.4401 17.064 33.1135C17.8073 32.7678 18.6548 32.5642 19.5355 32.5642C20.416 32.5642 21.254 32.7678 22.0068 33.1135C22.7312 33.4401 23.555 33.6295 24.4072 33.6295C25.2595 33.6295 26.0832 33.4401 26.8076 33.1135C27.5604 32.7678 28.4031 32.5642 29.2838 32.5642C30.1644 32.5642 31.0024 32.7678 31.7505 33.1135C32.4843 33.4401 33.3033 33.6295 34.1556 33.6295C35.0125 33.6295 35.8268 33.4401 36.5607 33.1135C37.304 32.7678 38.1515 32.5642 39.0273 32.5642C39.7801 32.5642 40.5092 32.7063 41.1721 32.9666C42.2468 31.7925 42.9096 30.2301 42.9096 28.5209C42.9096 24.8754 39.96 21.9258 36.3192 21.9258L35.5806 22.0063C34.7711 25.292 31.4853 25.434 31.4853 25.434L16.439 25.4293L15.1797 24.6908L18.2145 19.6012L21.5334 21.5186C23.5219 22.8064 24.5587 21.0026 24.5587 21.0026L27.887 15.5768C29.3358 13.219 26.2631 11.33 24.8286 13.6972L22.4992 17.5038L16.9598 14.4405C13.1202 12.3006 11.4962 15.8467 11.4962 15.8467L7.14523 23.2988C6.40665 24.847 7.06475 25.5146 7.06475 25.5146L4.91528 25.5098V33.6343H4.92475Z" fill="white"/>
<path d="M43.9085 40.8307C43.0564 40.8307 42.2373 40.6413 41.5129 40.3146C40.7601 39.969 39.9173 39.7654 39.0368 39.7654C38.1561 39.7654 37.3134 39.969 36.5701 40.3146C35.8363 40.6413 35.0219 40.8307 34.1649 40.8307C33.3128 40.8307 32.4936 40.6413 31.7598 40.3146C31.0118 39.969 30.169 39.7654 29.2931 39.7654C28.4078 39.7654 27.5698 39.969 26.817 40.3146C26.0927 40.6413 25.2688 40.8307 24.4166 40.8307C23.5644 40.8307 22.7406 40.6413 22.0162 40.3146C21.2635 39.969 20.4207 39.7654 19.5448 39.7654C18.6595 39.7654 17.8167 39.969 17.0734 40.3146C16.3443 40.6413 15.5252 40.8307 14.673 40.8307C13.8161 40.8307 12.997 40.6413 12.2631 40.3146C11.5199 39.969 10.6723 39.7654 9.79651 39.7654C8.92059 39.7654 8.07313 39.969 7.32507 40.3146C6.59596 40.6413 5.77689 40.8307 4.92468 40.8307V37.2324C5.77689 37.2324 6.59596 37.0383 7.32507 36.7116C8.07313 36.366 8.92059 36.1624 9.79651 36.1624C10.6723 36.1624 11.5199 36.366 12.2631 36.7116C12.997 37.0383 13.8161 37.2324 14.673 37.2324C15.5252 37.2324 16.3443 37.0383 17.0734 36.7116C17.8167 36.366 18.6642 36.1624 19.5448 36.1624C20.4254 36.1624 21.2635 36.366 22.0162 36.7116C22.7406 37.0383 23.5644 37.2324 24.4166 37.2324C25.2688 37.2324 26.0927 37.0383 26.817 36.7116C27.5698 36.366 28.4126 36.1624 29.2931 36.1624C30.1738 36.1624 31.0118 36.366 31.7598 36.7116C32.4936 37.0383 33.3128 37.2324 34.1649 37.2324C35.0219 37.2324 35.8363 37.0383 36.5701 36.7116C37.3134 36.366 38.1609 36.1624 39.0368 36.1624C39.9221 36.1624 40.7601 36.366 41.5129 36.7116C42.2373 37.0383 43.0564 37.2324 43.9085 37.2324V40.8307Z" fill="white"/>
</svg>
