<svg width="580" height="580" viewBox="0 0 580 580" fill="none" xmlns="http://www.w3.org/2000/svg">
<path d="M365.854 113.008C348.256 113.008 336.13 114.376 319.685 119.341C346.426 135.301 365.047 153.217 381.674 179.523C433.326 186.714 483.984 236.366 483.984 290C483.984 339.922 449.495 381.672 403.073 393.04C394.952 395.032 386.517 396.195 377.788 396.195C336.716 396.195 301.166 372.832 283.497 338.718C275.932 324.124 272.196 307.567 271.593 290C271.21 278.815 271.516 265.792 280.902 246.331C269.003 227.2 239.036 204.032 214.146 204.032C213.105 204.032 212.103 204.144 211.082 204.184C196.629 230.298 188.862 259.921 188.862 290C188.862 387.588 268.265 466.992 365.854 466.992C463.442 466.992 542.846 387.588 542.846 290C542.846 192.412 463.442 113.008 365.854 113.008Z" fill="#ffffff"/>
<path d="M184.936 386.531C133.305 379.32 99.2715 335.486 99.2715 281.863C99.2715 231.172 134.822 188.836 182.336 178.267C189.79 176.608 197.507 175.667 205.467 175.667C256.258 175.667 298.676 211.359 309.133 259.015C310.751 266.388 311.308 274.022 311.662 281.863C312.045 290.373 312.907 302.928 303.397 327.752C318.551 351.213 340.431 363.49 368.024 372.17C369.037 372.489 371.159 371.937 371.159 371.937C385.561 345.844 391.138 320.058 391.138 290C391.138 192.412 311.735 113.008 214.146 113.008C116.558 113.008 37.1545 192.412 37.1545 290C37.1545 387.588 116.558 466.992 214.146 466.992C231.825 466.992 238.812 466.858 255.328 463.386C228.787 448.565 205.857 431.69 184.936 386.531Z" fill="#ffffff"/>
</svg>
