<svg width="48" height="48" viewBox="0 0 48 48" fill="none" xmlns="http://www.w3.org/2000/svg">
<g opacity="0.7">
<path d="M33.2124 31.6374L34 34V40H38V34L36.6312 29.894C35.6256 30.689 34.4652 31.2858 33.2124 31.6374Z" fill="white"/>
<path d="M16 32H18L16 36V44H14V36L16 32Z" fill="white"/>
</g>
<path d="M30.2626 10.081C31.3498 6.27548 34.245 3.25162 37.9998 2L38 5L44.928 7.96354C46.2798 8.6198 46.542 10.4338 45.431 11.4459C45.0398 11.8024 44.5294 12 44 12H38L37.9998 20C38 21.4688 37.983 22.857 37.559 24.282C36.5494 27.6744 33.4306 30 29.8914 30H30V44H26V30H13.9999L12 34V43.9998H8V24C6.89544 24 6 24.8954 6 26V32C6 33.1046 5.10456 34 4 34H2V26C2 22.6862 4.6863 20 8 20H9.52778C10.6264 18.7725 12.223 18 14 18L28 17.9999L30.2626 10.081Z" fill="white"/>
</svg>
