<svg width="48" height="48" viewBox="0 0 48 48" fill="none" xmlns="http://www.w3.org/2000/svg">
<path d="M8 16V6C8 4.89543 8.89543 4 10 4C11.1046 4 12 4.89543 12 6V16H14V6C14 4.89543 14.8954 4 16 4C17.1046 4 18 4.89543 18 6V16H20V6C20 4.89543 20.8954 4 22 4C23.1046 4 24 4.89543 24 6V16C24 19.7277 21.4505 22.8599 18 23.748V44H14V23.748C10.5495 22.8599 8 19.7277 8 16Z" fill="white" />
<path d="M28 12C28 7.58172 31.5817 4 36 4V44H32V27.9851C29.7602 27.8003 28 25.9239 28 23.6364V12Z" fill="white" />
</svg>