<svg width="48" height="48" viewBox="0 0 48 48" fill="none" xmlns="http://www.w3.org/2000/svg">
<path opacity="0.8" d="M42 40V6H38L36 13L32 16L30 22L34 26L32 32L26 34L22 35L16 40V42H40C41.1046 42 42 41.1046 42 40Z" fill="white"/>
<path d="M24 9C24 10.6569 22.6568 12 21 12C19.3431 12 18 10.6569 18 9C18 7.34314 19.3431 6 21 6C22.6568 6 24 7.34314 24 9Z" fill="white"/>
<path d="M18.6619 12.183C17.6715 11.7274 16.4987 12.1489 16.0249 13.1307L11.1988 23.1308C11.0313 23.4778 10.9677 23.8658 11.0154 24.248L11.9515 31.7362L8.14307 41.2572L11.857 42.7428L16.0485 32.2638L15.5088 27.9458L20.326 29.5504L22.0598 36.485L25.9402 35.515L23.9402 27.515C23.7744 26.8514 23.281 26.3186 22.632 26.1024L17.9761 24.5516L20.4994 18.8259L22.7126 21.5924L27.1056 23.7888L28.8944 20.2112L25.2874 18.4076L21.5618 13.7506C21.3672 13.5075 21.1186 13.3131 20.8358 13.183L18.6619 12.183Z" fill="white"/>
<path d="M14.7577 12.9542C15.2847 11.9834 14.9249 10.7693 13.9541 10.2423C12.9834 9.7153 11.7692 10.075 11.2423 11.0458L7.44226 18.0458C6.91528 19.0166 7.27504 20.2308 8.2458 20.7576C9.21654 21.2846 10.4307 20.925 10.9577 19.9542L14.7577 12.9542Z" fill="white"/>
</svg>
