<svg width="48" height="48" viewBox="0 0 48 48" fill="none" xmlns="http://www.w3.org/2000/svg">
<path d="M42.2425 17.9212C42.3598 17.3614 41.6262 16.607 41.6262 16.607C41.4158 15.524 40.3395 14.7721 40.3395 14.7721L40.05 14.7171L39.541 12.0139L39.0128 12.9713L38.9031 12.0139L37.6579 14.3021C35.6347 14.0869 34.0532 14.4845 32.8751 15.0518C32.7995 15.0358 32.7202 15.021 32.6367 15.0079C31.9259 14.8908 30.9367 14.8908 29.6365 15.0079C28.9581 13.7724 28.3888 12.8154 27.9125 12.0766C27.4279 11.3417 27.2383 10.9822 26.7981 10.627C26.3338 10.2516 25.7967 9.8962 25.2354 9.88809C24.6783 9.87601 24.2746 10.0093 23.4793 10.5987C22.6676 11.1922 21.2948 12.5651 20.4509 13.4089C19.6029 14.2326 18.9125 14.9069 18.4724 15.5408C18.0283 16.1667 17.8263 16.5946 17.8345 17.168C17.8419 17.6853 17.9782 18.2223 18.3903 18.7434C17.2366 18.5385 14.0993 18.1928 12.2711 20.0364C11.6033 19.3427 8.52237 16.4307 6.15763 19.039C5.06298 20.4073 6.06618 22.7097 6.11187 23.736C6.15763 24.7624 5.47305 27.1554 3.55835 28.0671C3.55835 28.0671 9.77087 27.657 8.75616 22.9151C8.6446 22.1973 8.09402 20.0255 11.6349 20.8664C10.9594 22.0193 10.6676 23.7219 11.1051 26.2205C11.1051 26.2205 12.0625 30.0508 9.94226 32.4447L9.53136 39.4899C9.53136 39.4899 10.3523 39.8999 10.2159 40.9263C10.2159 40.9263 10.0786 41.7464 10.3522 41.9519H12.1306L11.3096 40.7209C11.3096 40.7209 9.53128 36.4115 12.6097 32.1028C12.6097 32.1028 13.4297 31.1455 13.8407 30.8036L12.6778 33.4711C12.6778 33.4711 13.9089 37.9851 13.8407 39.6262C13.8407 39.6262 13.7725 40.3109 14.798 40.4472C14.798 40.4472 14.5926 41.61 15.0034 41.8155H16.85C16.85 41.8155 15.0717 39.7635 15.0034 39.558C15.0034 39.558 14.0453 34.7021 14.6607 33.2657C14.6607 33.2657 16.7818 28.6834 17.8756 27.657C17.8756 27.657 18.902 27.1097 19.5857 27.2471C19.5857 27.2471 21.8996 28.0074 24.6285 28.3203C24.6509 28.5693 24.697 28.7883 24.7873 28.974C25.0617 29.5272 25.8207 29.7331 26.2852 29.7452C26.7454 29.7371 27.2946 29.7452 27.5286 29.0062C27.5752 28.844 27.6051 28.6486 27.6245 28.4292C27.9357 28.4111 28.2437 28.3824 28.5457 28.3407C28.5457 28.3407 29.4347 31.8974 28.5457 34.1548C28.5457 34.1548 28.3402 39.079 27.9984 39.4217C27.9984 39.4217 28.4775 40.1736 28.4775 40.6527C28.4775 40.6527 28.3402 41.8155 28.7511 41.8155H30.5294C30.5294 41.8155 28.9556 40.6527 29.4347 38.669C29.4347 38.669 29.4347 35.7278 29.982 35.1805C29.982 35.1805 30.3921 38.669 30.1184 39.6954C30.1184 39.6954 30.9394 40.5838 31.0076 40.9947L31.213 42.0893H33.1277L31.5549 39.7636C31.5549 39.7636 30.8711 35.4542 31.7603 32.4448C31.7603 32.4448 32.3758 30.53 32.6494 28.9563C32.6494 28.9563 34.5817 27.3517 34.6282 24.2128L34.7081 24.3359C35.1615 21.6875 37.1743 20.3733 37.1743 20.3733C38.1783 21.6343 39.9583 21.6084 39.9583 21.6084C41.0064 22.229 41.7266 23.3844 41.7266 23.3844C42.8679 24.7136 43.4667 23.6279 43.4667 23.6279C44.0988 23.826 44.3342 23.1729 44.3342 23.1729C45.0141 22.0151 42.2425 17.9212 42.2425 17.9212ZM27.041 19.1763C27.041 19.1763 26.7269 19.2376 26.1388 19.2915L23.0633 17.5235L26.2249 14.4468C26.6731 15.1574 27.0404 15.7388 27.3715 16.1909C27.6825 16.6351 27.7549 16.95 28.1669 17.1357C28.5706 17.3053 29.0146 17.2568 29.8587 17.2568C29.9337 17.2573 30.0169 17.2586 30.106 17.2605L27.041 19.1763Z" fill="white"/>
<path d="M29.5033 10.9981C31.0167 10.9981 32.245 9.85853 32.245 8.45444C32.245 7.05019 31.0167 5.91077 29.5033 5.91077C27.9899 5.91077 26.7617 7.05044 26.7617 8.45444C26.7617 9.85844 27.9899 10.9981 29.5033 10.9981Z" fill="white"/>
</svg>
