<svg width="48" height="48" viewBox="0 0 48 48" fill="none" xmlns="http://www.w3.org/2000/svg">
<path d="M31.9997 0H15.9997V4H31.9997V0Z" fill="white"/>
<path fill-rule="evenodd" clip-rule="evenodd" d="M14.8284 8C13.0174 8 11.2806 8.71942 10 10C8.71942 11.2806 8 13.0174 8 14.8284V40C8 42.2091 9.79086 44 12 44H36C38.2091 44 40 42.2091 40 40V14.8284C40 13.0174 39.2806 11.2806 38 10C36.7194 8.71942 34.9826 8 33.1716 8H25.9997L27.9997 4.00002H23.9997L21.9997 8H14.8284ZM20 14C20 12.8954 20.8954 12 22 12H26C27.1046 12 28 12.8954 28 14C28 15.1046 27.1046 16 26 16H22C20.8954 16 20 15.1046 20 14ZM12.0003 20H36.0003V32H12.0003V20ZM14.0003 40C15.1049 40 16.0003 39.1046 16.0003 38C16.0003 36.8955 15.1049 36 14.0003 36C12.8957 36 12.0003 36.8955 12.0003 38C12.0003 39.1046 12.8957 40 14.0003 40ZM36 38C36 39.1046 35.1046 40 34 40C32.8954 40 32 39.1046 32 38C32 36.8955 32.8954 36 34 36C35.1046 36 36 36.8955 36 38Z" fill="white"/>
<g opacity="0.5">
<path d="M16.0001 44H12.0001L9.99976 48H13.9998L16.0001 44Z" fill="white"/>
<path d="M34.0001 48L32.0001 44H36.0001L38.0001 48H34.0001Z" fill="white"/>
</g>
</svg>
