<svg width="48" height="48" viewBox="0 0 48 48" fill="none" xmlns="http://www.w3.org/2000/svg">
<path d="M40.3518 16.1729C40.9234 16.1729 41.4209 15.9666 41.8445 15.5538C42.2679 15.141 42.4796 14.6383 42.4796 14.046C42.4796 13.453 42.2679 12.9502 41.8445 12.5374C41.4209 12.1246 40.9234 11.9182 40.3518 11.9182C39.7594 11.9182 39.2568 12.1246 38.844 12.5374C38.4312 12.9502 38.2248 13.453 38.2249 14.046C38.2248 14.6383 38.4312 15.1409 38.844 15.5538C39.2568 15.9666 39.7594 16.1729 40.3518 16.1729Z" fill="white"/>
<path d="M46.2103 16.6178C45.988 16.4059 45.7286 16.3 45.4323 16.3C45.1357 16.3 44.9029 16.3845 44.7336 16.5538L42.003 19.2854L38.7008 15.9832C38.4469 15.7286 38.1294 15.6013 37.7481 15.6013H32.5729C32.2549 15.6013 31.9798 15.7286 31.7471 15.9832L28.1911 20.0791C27.9372 20.2903 27.8101 20.5548 27.8101 20.8726C27.8101 21.1691 27.9159 21.4231 28.1276 21.6348C28.3391 21.8463 28.5931 21.952 28.8897 21.952C29.2069 21.952 29.482 21.8251 29.7152 21.5711L33.0176 17.7292L34.9226 17.7612L27.6513 26.2068L22.7298 26.1748C22.3274 26.1748 21.9885 26.302 21.7133 26.5562C21.4381 26.8103 21.3006 27.1383 21.3006 27.5402C21.3006 27.9213 21.4382 28.2441 21.7133 28.5087C21.9885 28.7731 22.3168 28.9055 22.6978 28.9055H28.4449C28.678 28.9055 28.8896 28.8845 29.0797 28.8424C29.5666 28.758 29.9055 28.6096 30.096 28.3976L32.9216 25.2543L36.2239 28.4296L34.8906 34.3666C34.8479 34.494 34.8266 34.5998 34.8266 34.6845C34.8266 35.0656 34.9642 35.3936 35.2394 35.669C35.5146 35.9442 35.8427 36.0818 36.2239 36.0818C36.9435 36.0818 37.3881 35.7112 37.5582 34.9703L39.1773 27.763C39.3679 27.0007 39.2832 26.4397 38.9235 26.0799L36.034 23.1902L39.1773 19.5391L41.2093 21.571C41.4212 21.7824 41.6648 21.888 41.9399 21.888C42.2998 21.888 42.6489 21.7293 42.9874 21.4123L46.2897 18.1099C46.4589 17.898 46.5434 17.6652 46.5436 17.4113C46.5435 17.0942 46.4325 16.8296 46.2103 16.6178Z" fill="white"/>
<path d="M20.5076 16.1729C21.0792 16.1729 21.5767 15.9666 22.0003 15.5538C22.4237 15.141 22.6355 14.6383 22.6355 14.046C22.6355 13.453 22.4237 12.9502 22.0003 12.5374C21.5767 12.1246 21.0792 11.9182 20.5076 11.9182C19.9152 11.9182 19.4126 12.1246 18.9998 12.5374C18.587 12.9502 18.3806 13.453 18.3807 14.046C18.3806 14.6383 18.587 15.1409 18.9998 15.5538C19.4126 15.9666 19.9152 16.1729 20.5076 16.1729Z" fill="white"/>
<path d="M26.3662 16.6178C26.1439 16.4059 25.8845 16.3 25.5881 16.3C25.2915 16.3 25.0587 16.3845 24.8894 16.5538L22.1588 19.2854L18.8566 15.9832C18.6027 15.7286 18.2852 15.6013 17.9039 15.6013H12.7287C12.4107 15.6013 12.1356 15.7286 11.9029 15.9832L8.34687 20.0791C8.09296 20.2903 7.96593 20.5548 7.96593 20.8726C7.96593 21.1691 8.07169 21.4231 8.2834 21.6348C8.49485 21.8463 8.74891 21.952 9.04552 21.952C9.36265 21.952 9.63774 21.8251 9.87104 21.5711L13.1734 17.7292L15.0784 17.7612L7.80703 26.2068L2.88554 26.1748C2.48309 26.1748 2.14419 26.302 1.86902 26.5562C1.59384 26.8103 1.4563 27.1383 1.4563 27.5402C1.4563 27.9213 1.59393 28.2441 1.86902 28.5087C2.14419 28.7731 2.47249 28.9055 2.85351 28.9055H8.60061C8.83366 28.9055 9.04527 28.8845 9.23537 28.8424C9.72232 28.758 10.0612 28.6096 10.2517 28.3976L13.0773 25.2543L16.3796 28.4296L15.0463 34.3666C15.0036 34.494 14.9823 34.5998 14.9823 34.6845C14.9823 35.0656 15.1199 35.3936 15.3951 35.669C15.6703 35.9442 15.9984 36.0818 16.3796 36.0818C17.0992 36.0818 17.5438 35.7112 17.7139 34.9703L19.333 27.763C19.5236 27.0007 19.4389 26.4397 19.0792 26.0799L16.1897 23.1902L19.333 19.5391L21.3651 21.571C21.5769 21.7824 21.8205 21.888 22.0956 21.888C22.4555 21.888 22.8046 21.7293 23.1431 21.4123L26.4454 18.1099C26.6146 17.898 26.6991 17.6652 26.6993 17.4113C26.6993 17.0942 26.5882 16.8296 26.3662 16.6178Z" fill="white"/>
</svg>
