<svg width="48" height="48" viewBox="0 0 48 48" fill="none" xmlns="http://www.w3.org/2000/svg">
<path fill-rule="evenodd" clip-rule="evenodd" d="M32 8H0V34H4C4 37.3138 6.6863 40 10 40C13.3137 40 16 37.3138 16 34H32H34C34 37.3138 36.6862 40 40 40C43.3138 40 46 37.3138 46 34H48V24L41.1428 12H32V8ZM43 34C43 32.3432 41.6568 31 40 31C38.3432 31 37 32.3432 37 34C37 35.6568 38.3432 37 40 37C41.6568 37 43 35.6568 43 34ZM10 37C8.34314 37 7 35.6568 7 34C7 32.3432 8.34314 31 10 31C11.6569 31 13 32.3432 13 34C13 35.6568 11.6569 37 10 37ZM39 16H34V22H43L39 16Z" fill="white"/>
</svg>
