<svg width="48" height="48" viewBox="0 0 48 48" fill="none" xmlns="http://www.w3.org/2000/svg">
<path fill-rule="evenodd" clip-rule="evenodd" d="M44 12H4L4 36H44V12ZM4 8C1.79086 8 0 9.79086 0 12V36C0 38.2091 1.79086 40 4 40H44C46.2091 40 48 38.2091 48 36V12C48 9.79086 46.2091 8 44 8H4Z" fill="white" />
<path opacity="0.2" d="M4 12H24V36H4V12Z" fill="white" />
<path d="M8 16L20 24L8 32V16Z" fill="white" />
<path d="M32 20H36V24H32V20Z" fill="white" />
<path fill-rule="evenodd" clip-rule="evenodd" d="M24 20V24H28V28H24V32H28V36H32V32H36V36H40V32H44V28H40V24H44V20H40V16H44V12H40V16H36V12H32V16H28V12H24V16H28V20H24ZM32 20H28V24H32V28H28V32H32V28H36V32H40V28H36V24H40V20H36V16H32V20Z" fill="white" />
</svg>