<svg width="48" height="48" viewBox="0 0 580 580" fill="none" xmlns="http://www.w3.org/2000/svg">
<path d="M535.219 126.979C535.219 138.942 535.219 350.312 535.219 359.259C535.219 368.206 528.479 376.977 516.024 359.259C502.543 340.063 467.897 274.061 408.516 274.061C345.667 274.061 222.058 274.061 222.058 274.061C222.058 274.061 160.825 279.343 160.825 323.331C160.825 366.925 186.406 372.601 200.241 372.601C214.096 372.601 303.038 372.601 321.15 372.601C385.517 372.601 380.807 296.075 380.807 296.075C380.807 296.075 418.035 298.4 418.035 324.317C418.035 358.392 398.307 412.018 318.49 412.018C257.769 412.018 219.949 412.018 200.241 412.018C180.533 412.018 121.409 392.782 121.409 313.477C121.409 253.387 164.333 215.41 214.529 215.41C226.275 215.41 340.247 215.41 394.602 215.41C456.604 215.41 507.983 137.799 516.043 126.979C524.104 116.16 535.219 115.017 535.219 126.979Z" fill="white" />
<path d="M75.3307 214.938H149.003C149.003 214.938 113.553 237.593 108.8 274.062H73.1826L75.3307 214.938Z" fill="white" />
<path d="M64.4907 293.77V195.229" stroke="white" stroke-width="39.4162" stroke-miterlimit="10" stroke-linecap="round" stroke-linejoin="round" />
<path d="M219.949 441.58V254.354" stroke="white" stroke-width="39.4162" stroke-miterlimit="10" stroke-linecap="round" stroke-linejoin="round" />
<path d="M279.073 441.58V254.354" stroke="white" stroke-width="39.4162" stroke-miterlimit="10" stroke-linecap="round" stroke-linejoin="round" />
<path d="M338.198 441.58V254.354" stroke="white" stroke-width="39.4162" stroke-miterlimit="10" stroke-linecap="round" stroke-linejoin="round" />
<path d="M219.949 195.229V155.812" stroke="white" stroke-width="45.5139" stroke-miterlimit="10" stroke-linejoin="round" />
<path d="M279.073 195.229V155.812" stroke="white" stroke-width="45.5139" stroke-miterlimit="10" stroke-linejoin="round" />
<path d="M338.198 195.229V155.812" stroke="white" stroke-width="45.5139" stroke-miterlimit="10" stroke-linejoin="round" />
<path d="M324.402 155.812H351.994" stroke="white" stroke-width="46.6372" stroke-miterlimit="10" stroke-linecap="round" stroke-linejoin="round" />
<path d="M265.277 155.812H292.869" stroke="white" stroke-width="46.6372" stroke-miterlimit="10" stroke-linecap="round" stroke-linejoin="round" />
<path d="M206.153 155.812H233.745" stroke="white" stroke-width="46.6372" stroke-miterlimit="10" stroke-linecap="round" stroke-linejoin="round" />
</svg>