<svg width="48" height="48" viewBox="0 0 48 48" fill="none" xmlns="http://www.w3.org/2000/svg">
<path opacity="0.5" fill-rule="evenodd" clip-rule="evenodd" d="M31.4142 8.58579C32.1953 9.36683 32.1953 10.6332 31.4142 11.4142L19.4142 23.4142C18.6332 24.1953 17.3668 24.1953 16.5858 23.4142C15.8047 22.6332 15.8047 21.3668 16.5858 20.5858L28.5858 8.58579C29.3668 7.80474 30.6332 7.80474 31.4142 8.58579Z" fill="#3f3f3f"/>
<path fill-rule="evenodd" clip-rule="evenodd" d="M16.5858 11.4142C15.8047 10.6332 15.8047 9.36683 16.5858 8.58579C17.3668 7.80474 18.6332 7.80474 19.4142 8.58579L30.8284 20H42.2192C43.2027 20 44 20.7973 44 21.7808C44 21.9264 43.9821 22.0714 43.9468 22.2127L40.2749 36.9004C40.095 37.6199 39.723 38.277 39.1985 38.8015C38.4311 39.5689 37.3903 40 36.305 40H11.695C10.6097 40 9.56887 39.5689 8.80146 38.8015C8.27703 38.277 7.90498 37.6199 7.7251 36.9004L4.05317 22.2127C4.01786 22.0714 4 21.9264 4 21.7808C4 20.7973 4.79728 20 5.78078 20H25.1716L16.5858 11.4142ZM28 24H20V36H28V24ZM32 36H36.3431L39.2239 24L32 24V36ZM16 36V24L8.77612 24L11.6569 36H16Z" fill="#3f3f3f"/>
</svg>
