<svg width="48" height="48" viewBox="0 0 580 580" fill="none" xmlns="http://www.w3.org/2000/svg">
<path d="M495.888 267.123H392.944V244.247H495.888V198.494H427.259V175.618H495.888V129.865H392.944V106.988H495.888V49.7969H290V530.203H495.888V473.012H427.259V450.135H495.888V404.382H392.944V381.506H495.888V335.753H427.259V312.876H495.888V267.123Z" fill="white" />
<path d="M204.968 118.427L173.982 55.3448C169.853 48.4476 158.495 48.4476 154.365 55.3448L123.391 118.427H204.968Z" fill="white" />
<path d="M242.611 169.727L173.982 55.3448C169.852 48.4476 158.494 48.4476 154.365 55.3448L85.7356 169.727C84.6718 171.512 84.1113 173.548 84.1113 175.618V187.056V450.136V473.012C84.1113 504.547 109.767 530.203 141.303 530.203H187.056C218.591 530.203 244.247 504.547 244.247 473.012V450.136V187.056V175.618C244.247 173.548 243.686 171.512 242.611 169.727ZM164.179 83.4715L212.609 164.18H115.75L164.179 83.4715ZM141.303 461.574H118.426V187.056H141.303V461.574ZM209.932 461.574H187.056V187.056H209.932V461.574Z" fill="white" />
</svg>