<svg width="48" height="48" viewBox="0 0 48 48" fill="none" xmlns="http://www.w3.org/2000/svg">
<path d="M24 30C26.2091 30 28 28.2091 28 26C28 23.7909 26.2091 22 24 22C21.7909 22 20 23.7909 20 26C20 28.2091 21.7909 30 24 30Z" fill="white"/>
<path fill-rule="evenodd" clip-rule="evenodd" d="M18 8H30L34 12H38C40.2091 12 42 13.7909 42 16V36C42 38.2091 40.2091 40 38 40H10C7.79086 40 6 38.2091 6 36V16C6 13.7909 7.79086 12 10 12H14L18 8ZM24 34C28.4183 34 32 30.4183 32 26C32 21.5817 28.4183 18 24 18C19.5817 18 16 21.5817 16 26C16 30.4183 19.5817 34 24 34Z" fill="white"/>
</svg>
