<svg width="580" height="580" viewBox="0 0 580 580" fill="none" xmlns="http://www.w3.org/2000/svg">
<path d="M90.5417 433.112H405.542V493.112H90.5417V433.112Z" fill="#ffffff"/>
<path d="M439.542 433.112H473.542V493.112H439.542V433.112Z" fill="#ffffff"/>
<path d="M503.542 433.112H537.542V493.112H503.542V433.112Z" fill="#ffffff"/>
<path d="M366.556 141.921C387.865 200.424 438.528 177.195 425.186 253.653C411.844 330.111 551.666 313.567 529.376 405.252C576.187 320.115 482.793 287.166 472.859 263.171C462.925 239.176 482.398 235.523 472.736 181.375C465.12 138.695 444.039 132.757 428.213 111.899C421.438 102.969 402.853 75.7583 430.694 52.0923C376.64 50.879 345.247 83.4175 366.556 141.921Z" fill="#ffffff"/>
<path d="M162.239 269.156C160.75 268.668 151.407 259.074 157.249 241.035H157.17C172.401 225.11 185.439 199.489 185.439 174.244C185.439 135.46 158.624 115.125 129.094 115.125C99.54 115.125 73.908 135.46 73.908 174.244C73.908 199.58 85.8544 225.303 101.165 241.217C107.133 257.108 96.4596 268.315 94.2204 269.156C63.3028 280.5 27.02 301.211 27.02 321.637C27.02 327.15 27.02 323.808 27.02 329.298C27.02 357.135 80.1824 363.466 129.389 363.466C178.653 363.466 231.156 357.135 231.156 329.298C231.156 323.819 231.156 327.161 231.156 321.637C231.156 300.585 194.691 280.057 162.239 269.156Z" fill="#ffffff"/>
<path d="M257.299 218.017C255.913 217.551 247.115 215.403 252.605 198.432H252.537C266.859 183.474 276.737 159.353 276.737 135.654C276.737 99.1777 253.889 80.0588 226.132 80.0588C205.694 80.0588 188.087 90.4935 180.187 110.499C196.771 124.196 208.184 145.52 208.184 174.233C208.184 204.889 193.816 232.862 178.789 250.913C202.727 259.972 240.136 278.193 250.843 306.042C288.558 303.95 322.101 296.118 322.101 274.544C322.101 269.395 322.101 272.532 322.101 267.349C322.09 247.571 287.808 228.259 257.299 218.017Z" fill="#ffffff"/>
</svg>
