<svg width="48" height="48" viewBox="0 0 48 48" fill="none" xmlns="http://www.w3.org/2000/svg">
<path d="M4 6C4 4.89543 4.89543 4 6 4H16V36C16 37.1046 16.8954 38 18 38H38C39.1046 38 40 38.8954 40 40C40 41.1046 39.1046 42 38 42H18C16.9307 42 15.9267 41.7203 15.0573 41.23C13.9911 42.8958 12.1245 44 10 44C6.68629 44 4 41.3137 4 38C4 34.6863 6.68629 32 10 32C10.7013 32 11.3744 32.1203 12 32.3414V8H6C4.89543 8 4 7.10457 4 6Z" fill="white" />
<path d="M20 4H28V12H20V4Z" fill="white" />
<path d="M32 16H20V24H32V16Z" fill="white" />
<path d="M20 28V36H36V28H20Z" fill="white" />
</svg>