<svg width="48" height="48" viewBox="0 0 48 48" fill="none" xmlns="http://www.w3.org/2000/svg">
<path fill-rule="evenodd" clip-rule="evenodd" d="M32 20.2229C32 22.7068 31.4217 25.1566 30.3108 27.3783L24 40H20L26.1455 27.709C25.4627 27.8987 24.7431 28 23.9999 28C19.5817 28 16 24.4183 16 20.0001V16C16 11.5817 19.5817 8 24 8C28.4183 8 32 11.5818 31.9999 16.0001L32 20.2229ZM20 20.0001C20 22.2092 21.7908 24 23.9999 24C26.209 24 27.9998 22.2092 27.9998 20.0001L27.9999 16C27.9999 13.7909 26.2091 12 24 12C21.7908 12 20 13.7908 20 16V20.0001Z" fill="white" />
</svg>