<svg width="580" height="580" viewBox="0 0 580 580" fill="none" xmlns="http://www.w3.org/2000/svg">
<path d="M95.1953 47.2324V532.768H484.809V47.2324H95.1953ZM131.359 71.7773H446.742C454.012 71.7773 460.271 78.0366 460.271 85.3066V496.596C460.271 503.866 454.012 510.125 446.742 510.125H131.359C124.089 510.125 117.83 503.866 117.83 496.596V85.3066C117.83 78.0366 124.089 71.7773 131.359 71.7773ZM143.859 97.8066V484.096H434.242V336.684H389.49C389.205 336.684 388.975 336.455 388.975 336.17V246.621C388.975 246.336 389.205 246.107 389.49 246.107H434.242V97.8066H143.859ZM274.857 126.952H349.376L275.079 249.359H369.222L202.645 459L275.789 299.686H188.646L274.857 126.952Z" fill="white"/>
</svg>
