<svg width="48" height="48" viewBox="0 0 48 48" fill="none" xmlns="http://www.w3.org/2000/svg">
<path fill-rule="evenodd" clip-rule="evenodd" d="M36 26L32 28L30 34H18L16 28L12 26H6V20L12 18L14 10H30L34 18L42 20V24L40 26H36ZM15.4983 20.4994L26 24L30.6628 20.2698L27.5279 14H17.1231L15.4983 20.4994Z" fill="white" />
<path fill-rule="evenodd" clip-rule="evenodd" d="M16 34C16 37.3137 13.3137 40 10 40C6.68629 40 4 37.3137 4 34C4 30.6863 6.68629 28 10 28C13.3137 28 16 30.6863 16 34ZM12 34C12 35.1046 11.1046 36 10 36C8.89543 36 8 35.1046 8 34C8 32.8954 8.89543 32 10 32C11.1046 32 12 32.8954 12 34Z" fill="white" />
<path fill-rule="evenodd" clip-rule="evenodd" d="M44 34C44 37.3137 41.3137 40 38 40C34.6863 40 32 37.3137 32 34C32 30.6863 34.6863 28 38 28C41.3137 28 44 30.6863 44 34ZM40 34C40 35.1046 39.1046 36 38 36C36.8954 36 36 35.1046 36 34C36 32.8954 36.8954 32 38 32C39.1046 32 40 32.8954 40 34Z" fill="white" />
</svg>