<svg width="48" height="48" viewBox="0 0 48 48" fill="none" xmlns="http://www.w3.org/2000/svg">
<path fill-rule="evenodd" clip-rule="evenodd" d="M16.3426 8.00088C6.75381 8.11885 1.30904 19.1688 5.48253 27.4774C9.89608 36.7138 21.1879 39.8717 30.2378 36.9554C38.5877 34.6501 45.5446 26.3939 43.7069 17.0965H43.7021C42.7349 10.6848 36.1559 6.83633 30.0974 8.34457C27.9196 8.88684 25.9797 9.78797 24.2474 10.9392C22.0366 8.97834 19.1994 7.96574 16.3426 8.00088ZM33.5923 9.96862C33.7547 10.5492 33.9385 11.1281 34.0813 11.7137C34.1419 11.9633 33.9872 12.2146 33.7376 12.2752C33.4879 12.3358 33.2366 12.1811 33.1761 11.9315L32.6968 10.2179C32.6278 9.97064 32.7715 9.71571 33.0187 9.64672C33.266 9.57773 33.5234 9.72135 33.5923 9.96862ZM20.1304 11.157C20.1411 11.4137 19.9417 11.6304 19.6851 11.6411L17.911 11.7766C17.655 11.796 17.4318 11.6042 17.4124 11.3482C17.393 11.0922 17.5848 10.869 17.8408 10.8496L19.6149 10.7141C19.8806 10.6845 20.1193 10.8898 20.1304 11.157ZM11.1195 11.5927C11.7074 11.7245 12.3034 11.8376 12.8863 11.9896C13.1348 12.0547 13.2854 12.3099 13.2204 12.5584C13.1553 12.8069 12.9001 12.955 12.6516 12.89L10.9162 12.4979C10.6658 12.4413 10.5087 12.194 10.5652 11.9436C10.6218 11.6932 10.8691 11.5361 11.1195 11.5927ZM27.4568 12.0937C27.6061 12.0946 27.7525 12.1683 27.8416 12.3018C27.9841 12.5155 27.9271 12.8031 27.7133 12.9456L26.266 13.984C26.0574 14.1336 25.7693 14.0861 25.6198 13.8775C25.4702 13.6688 25.5176 13.3784 25.7262 13.2288C26.162 12.9157 26.8845 12.0902 27.4568 12.0937ZM40.7348 13.6112C40.7455 13.8679 40.5461 14.0846 40.2894 14.0953L38.5153 14.2308C38.2593 14.2502 38.0361 14.0584 38.0167 13.8024C37.9973 13.5465 38.1891 13.3232 38.4451 13.3038L40.2192 13.1683C40.485 13.1388 40.7236 13.3441 40.7348 13.6112ZM16.4612 13.6814C17.6897 13.6865 18.9247 14.0447 19.9344 14.7222C17.1275 17.8456 14.729 22.2758 13.1671 25.7686C12.7336 26.6935 12.832 27.7792 13.4261 28.6101C14.0202 29.441 15.0174 29.8878 16.0328 29.7767C17.0481 29.6656 17.9245 29.0149 18.3248 28.0752C19.779 24.8235 21.9514 20.9664 24.2305 18.4616C26.3278 20.6936 28.661 24.3255 29.6375 27.1724C29.9539 28.1418 30.7676 28.8646 31.7674 29.0651C32.7672 29.2657 33.7979 28.9129 34.4637 28.1406C35.1295 27.3682 35.3274 26.2971 34.9816 25.3378C33.7732 21.8148 31.1389 17.6242 28.6718 14.9182C29.8557 14.2907 31.2041 13.7152 32.5661 13.6814C35.1631 13.6171 37.7923 15.4557 38.1353 18.0187C39.1612 24.1748 34.4234 29.9416 28.621 31.5435C22.0324 33.4653 13.8231 31.5217 10.5459 24.9675C8.79309 21.1112 9.90834 16.3758 13.7165 14.3252C14.5539 13.8874 15.5057 13.6775 16.4612 13.6814ZM8.5128 17.007C8.65531 17.2207 8.59823 17.5107 8.38452 17.6532L6.93958 18.6915C6.73095 18.8411 6.44052 18.7912 6.29092 18.5826C6.14133 18.374 6.18879 18.0835 6.39742 17.934C6.84454 17.6134 7.51369 16.853 8.08439 16.8012C8.24872 16.7863 8.41482 16.86 8.5128 17.007ZM29.5141 18.2534C29.7123 18.2554 29.8945 18.3851 29.9546 18.585C30.0285 18.831 29.8884 19.092 29.6424 19.1659L27.9578 19.7347C27.7146 19.8168 27.4494 19.6875 27.3672 19.4442C27.2851 19.201 27.4169 18.9383 27.6601 18.8561C28.2057 18.6711 28.9329 18.2478 29.5141 18.2534ZM20.9485 18.5269C21.2051 18.5162 21.4219 18.7156 21.4326 18.9723C21.4433 19.2289 21.2439 19.4457 20.9872 19.4564L19.2131 19.5919C18.9571 19.6113 18.7339 19.4195 18.7145 19.1635C18.6951 18.9075 18.8869 18.6843 19.1429 18.6649L20.917 18.5294C20.9275 18.5282 20.938 18.5274 20.9485 18.5269ZM40.8001 18.7859L42.2983 19.7468C42.5282 19.8834 42.5957 20.1901 42.4435 20.41C42.2974 20.6212 42.0061 20.6747 41.7949 20.5286L40.2991 19.5677C40.0832 19.4289 40.0199 19.1398 40.1587 18.9239C40.2975 18.7079 40.5842 18.6471 40.8001 18.7859ZM30.8743 23.5056C31.4617 23.6383 32.0586 23.7508 32.6412 23.9025C32.8896 23.9676 33.0378 24.2228 32.9727 24.4713C32.9077 24.7198 32.6549 24.8679 32.4064 24.8029L30.671 24.4132C30.4206 24.3566 30.2635 24.1069 30.32 23.8565C30.3766 23.6061 30.6239 23.449 30.8743 23.5056ZM16.2555 23.9751C16.7627 24.3005 17.2843 24.6107 17.7803 24.9529C17.9915 25.0991 18.0426 25.3903 17.8964 25.6016C17.7503 25.8128 17.4615 25.8663 17.2502 25.7202L15.752 24.7569C15.5361 24.6181 15.4753 24.3315 15.6141 24.1155C15.7529 23.8996 16.0395 23.8363 16.2555 23.9751ZM8.18605 24.009C8.4427 23.9983 8.65942 24.1977 8.67012 24.4544C8.68081 24.711 8.48142 24.9277 8.22478 24.9384L6.45067 25.074C6.19469 25.0933 5.97146 24.9015 5.95208 24.6456C5.93269 24.3896 6.1245 24.1663 6.38048 24.147L8.15459 24.0114C8.16504 24.0103 8.17554 24.0095 8.18605 24.009ZM40.3983 25.1611C40.5476 25.162 40.6941 25.2357 40.7832 25.3692C40.9257 25.5829 40.8662 25.8705 40.6525 26.013L39.2075 27.0514C38.9989 27.201 38.7085 27.1535 38.5589 26.9449C38.4093 26.7363 38.4568 26.4458 38.6654 26.2962C39.1018 25.9832 39.8258 25.1576 40.3983 25.1611ZM10.0497 28.2833C10.2478 28.2892 10.4269 28.4237 10.483 28.6246C10.6451 29.2043 10.8292 29.7826 10.9719 30.3672C11.0325 30.6169 10.8778 30.8682 10.6282 30.9288C10.3785 30.9894 10.1273 30.8371 10.0667 30.5875L9.58743 28.8739C9.5055 28.5803 9.76022 28.2748 10.0497 28.2833ZM35.7634 29.3434C36.0199 29.3321 36.2361 29.5323 36.2475 29.7888L36.3273 31.5653C36.3485 31.8319 36.1348 32.0636 35.8675 32.0663C35.6106 32.069 35.4006 31.8633 35.3979 31.6065L35.3181 29.8299C35.3067 29.5735 35.5069 29.3548 35.7634 29.3434ZM14.7766 32.8941C15.3645 33.0269 15.9603 33.1415 16.5435 33.2934C16.792 33.3585 16.9401 33.6113 16.8751 33.8598C16.81 34.1083 16.5548 34.2564 16.3063 34.1914L14.5709 33.8017C14.3205 33.7451 14.1634 33.4954 14.22 33.245C14.2765 32.9946 14.5262 32.8375 14.7766 32.8941ZM30.913 33.6758C31.1697 33.6652 31.3864 33.8645 31.3971 34.1212C31.4078 34.3778 31.2084 34.5946 30.9518 34.6053L29.1777 34.7408C28.9217 34.7602 28.6984 34.5684 28.6791 34.3124C28.6597 34.0564 28.8515 33.8332 29.1075 33.8138L30.8816 33.6783C30.892 33.6771 30.9025 33.6763 30.913 33.6758ZM21.8319 34.1986C22.3392 34.524 22.8608 34.8342 23.3567 35.1765C23.568 35.3226 23.6191 35.6139 23.4729 35.8251C23.3268 36.0363 23.0379 36.0898 22.8267 35.9437L21.3285 34.9804C21.1125 34.8416 21.0517 34.555 21.1905 34.339C21.3293 34.1231 21.616 34.0598 21.8319 34.1986Z" fill="#ffffff"/>
</svg>
