<svg width="48" height="48" viewBox="0 0 48 48" fill="none" xmlns="http://www.w3.org/2000/svg">
<path fill-rule="evenodd" clip-rule="evenodd" d="M14 8H12V44H16V42C16 40.8954 16.8954 40 18 40C19.1046 40 20 40.8954 20 42V44H24V42C24 40.8954 24.8954 40 26 40C27.1046 40 28 40.8954 28 42V44H32V42C32 40.8954 32.8954 40 34 40H36V4H32V6C32 7.10457 31.1046 8 30 8C28.8954 8 28 7.10457 28 6V4H24V6C24 7.10457 23.1046 8 22 8C20.8954 8 20 7.10457 20 6V4H16V6C16 7.10457 15.1046 8 14 8ZM32 16V12H16V16H32ZM32 24V20H16V24H32ZM16 32V28H24V32H16Z" fill="#ffffff"/>
</svg>
