<svg width="48" height="48" viewBox="0 0 48 48" fill="none" xmlns="http://www.w3.org/2000/svg">
<path d="M24.0001 0C25.1047 0 26.0001 0.89543 26.0001 2V7.17157L28.5859 4.58579C29.367 3.80474 30.6333 3.80474 31.4144 4.58579C32.1954 5.36684 32.1954 6.63316 31.4144 7.41421L26.0001 12.8284V20.5359L32.675 16.6822L34.6568 9.28622C34.9426 8.21929 36.0393 7.58613 37.1063 7.87201C38.1732 8.15789 38.8064 9.25457 38.5205 10.3215L37.574 13.8538L42.0527 11.268C43.0093 10.7157 44.2325 11.0434 44.7848 12C45.3371 12.9566 45.0093 14.1798 44.0527 14.7321L39.574 17.3179L43.1063 18.2643C44.1732 18.5502 44.8064 19.6469 44.5205 20.7138C44.2346 21.7807 43.1379 22.4139 42.071 22.128L34.675 20.1463L28.0002 24L34.675 27.8537L42.071 25.872C43.1379 25.5861 44.2346 26.2193 44.5205 27.2862C44.8064 28.3531 44.1732 29.4498 43.1063 29.7357L39.574 30.6822L44.0527 33.2679C45.0093 33.8202 45.3371 35.0434 44.7848 36C44.2325 36.9566 43.0093 37.2843 42.0527 36.7321L37.574 34.1463L38.5205 37.6785C38.8064 38.7454 38.1732 39.8421 37.1063 40.128C36.0393 40.4139 34.9427 39.7807 34.6568 38.7138L32.675 31.3178L26.0001 27.4641V35.1716L31.4144 40.5858C32.1954 41.3668 32.1954 42.6332 31.4144 43.4142C30.6333 44.1953 29.367 44.1953 28.5859 43.4142L26.0001 40.8284V46C26.0001 47.1046 25.1047 48 24.0001 48C22.8956 48 22.0001 47.1046 22.0001 46V40.8284L19.4144 43.4142C18.6333 44.1953 17.367 44.1953 16.5859 43.4142C15.8049 42.6332 15.8049 41.3668 16.5859 40.5858L22.0001 35.1716V27.4641L15.3253 31.3178L13.3436 38.7138C13.0577 39.7807 11.961 40.4139 10.8941 40.128C9.82713 39.8421 9.19396 38.7455 9.47985 37.6785L10.4263 34.1463L5.9476 36.7321C4.99102 37.2843 3.76783 36.9566 3.21555 36C2.66326 35.0434 2.99102 33.8202 3.9476 33.268L8.42631 30.6822L4.89406 29.7357C3.82713 29.4498 3.19397 28.3532 3.47985 27.2862C3.76573 26.2193 4.86241 25.5861 5.92934 25.872L13.3253 27.8537L20.0002 24L13.3253 20.1463L5.92934 22.128C4.86241 22.4139 3.76573 21.7807 3.47985 20.7138C3.19397 19.6469 3.82713 18.5502 4.89406 18.2643L8.42631 17.3178L3.9476 14.7321C2.99101 14.1798 2.66326 12.9566 3.21555 12C3.76783 11.0434 4.99101 10.7157 5.9476 11.268L10.4263 13.8537L9.47985 10.3215C9.19397 9.25455 9.82713 8.15788 10.8941 7.872C11.961 7.58611 13.0577 8.21928 13.3436 9.28621L15.3253 16.6822L22.0001 20.5359V12.8284L16.5859 7.41421C15.8049 6.63316 15.8049 5.36684 16.5859 4.58579C17.367 3.80474 18.6333 3.80474 19.4144 4.58579L22.0001 7.17157V2C22.0001 0.89543 22.8956 0 24.0001 0Z" fill="white" />
</svg>