<svg width="48" height="48" viewBox="0 0 48 48" fill="none" xmlns="http://www.w3.org/2000/svg">
<g opacity="0.7">
<path d="M44 8C44 5.79086 42.2091 4 40 4H24C21.7909 4 20 5.79086 20 8V12H28V18.6667L30 12H34L40 32H36L34.8 28H29.2L28 32V40H40C42.2091 40 44 38.2091 44 36V8Z" fill="#ffffff"/>
<path d="M33.6 24L32 18.6667L30.4 24H33.6Z" fill="#ffffff"/>
</g>
<path d="M16 22.6667L17.6 28H14.4L16 22.6667Z" fill="#ffffff"/>
<path fill-rule="evenodd" clip-rule="evenodd" d="M24 8C26.2091 8 28 9.79086 28 12V40C28 42.2091 26.2091 44 24 44H8C5.79086 44 4 42.2091 4 40V12C4 9.79086 5.79086 8 8 8H24ZM18 16L24 36H20L18.8 32H13.2L12 36H8L14 16H18Z" fill="#ffffff"/>
</svg>
