<svg width="48" height="48" viewBox="0 0 580 580" fill="none" xmlns="http://www.w3.org/2000/svg">
<path d="M222.406 149.839C222.406 97.4788 176.037 97.1966 176.037 97.1966L168.649 63.3C168.649 53.539 164.951 52.5 159.404 52.5H150.16C144.613 52.5 140.915 53.539 140.915 63.3L133.76 97.1966C133.76 97.1966 87.1582 97.4798 87.1582 149.839C87.1582 246.463 87.1582 401.741 87.1582 490.3C87.1582 509.34 95.2731 526 106.093 526H204.824C215.643 526 223.758 509.34 222.406 492.68C222.406 394.701 222.108 233.472 222.406 149.839Z" fill="white" />
<path d="M169.705 52.1445H140.006C137.077 52.1445 134.703 54.5189 134.703 57.4478V66.9938C134.703 69.9227 137.077 72.2971 140.006 72.2971H169.705C172.634 72.2971 175.008 69.9227 175.008 66.9938V57.4478C175.008 54.5189 172.634 52.1445 169.705 52.1445Z" fill="white" />
<path d="M386.391 452.916C385.695 452.916 384.991 452.827 384.295 452.641C383.332 452.382 287.643 425.768 287.643 341.216C287.643 209.022 437.134 133.164 443.496 129.991C446.337 128.582 449.712 128.947 452.173 130.93C454.633 132.905 455.718 136.142 454.949 139.202C446.078 174.687 465.261 202.854 487.479 235.474C508.613 266.531 530.468 298.633 530.468 341.216C530.468 390.299 498.229 437.092 453.792 452.471C450.473 453.636 446.774 452.495 444.661 449.654C442.549 446.829 442.508 442.968 444.564 440.095C444.775 439.811 465.714 410.292 465.714 387.353C465.714 370.606 460.704 357.736 454.901 342.827C451.695 334.579 448.239 325.7 445.576 315.598C442.031 326.266 440.274 337.477 439.781 342.77C439.506 345.741 437.603 348.331 434.851 349.48C432.116 350.646 428.926 350.176 426.612 348.299C425.163 347.117 394.17 320.851 405.065 246.514C386.991 263.561 360.49 296.342 360.49 342.026C360.49 393.076 387.371 432.413 392.082 438.913C393.66 440.394 394.648 442.49 394.648 444.822C394.648 449.298 391.021 452.916 386.553 452.916C386.472 452.908 386.44 452.916 386.392 452.916H386.391Z" fill="white" />
</svg>