<svg width="48" height="48" viewBox="0 0 48 48" fill="none" xmlns="http://www.w3.org/2000/svg">
<path opacity="0.5" d="M4 8.00001V38C4 39.1046 4.89243 40 5.997 40H18C22 40 24 42 24 42C24 42 26 40 30 40H42.003C43.1076 40 44 39.1045 44 38L44 8C46.2091 8 48 9.79086 48 12V40C48 42.2091 46.2091 44 44 44L4 44C1.79086 44 0 42.2091 0 40V12C0 9.79087 1.79086 8.00001 4 8.00001Z" fill="white" />
<path fill-rule="evenodd" clip-rule="evenodd" d="M24 6C24 6 26 4 30 4H42.0007C43.1053 4 44 4.89543 44 6V38C44 39.1045 43.1076 40 42.003 40H30C26 40 24 42 24 42C24 42 22 40 18 40H5.997C4.89243 40 4 39.1046 4 38V6.00004C4 4.89547 4.89474 4.00004 5.99931 4.00004H18C22 4.00004 24 6 24 6ZM8 8H20V12H8V8ZM8 16H20V20H8V16ZM20 24H8V28H20V24ZM28 8H40V12H28V8ZM28 16H40V20H28V16ZM40 24H28V28H40V24Z" fill="white" />
</svg>