<svg width="580" height="580" viewBox="0 0 580 580" fill="none" xmlns="http://www.w3.org/2000/svg">
<path d="M313.709 147.746C339.897 147.746 361.127 126.516 361.127 100.328C361.127 74.1399 339.897 52.9102 313.709 52.9102C287.521 52.9102 266.291 74.1399 266.291 100.328C266.291 126.516 287.521 147.746 313.709 147.746Z" fill="white"/>
<path d="M432.254 304.225C463.076 304.225 489.156 330.305 489.156 361.127C489.156 391.949 463.076 418.029 432.254 418.029C401.432 418.029 375.352 391.949 375.352 361.127C375.352 330.305 401.432 304.225 432.254 304.225ZM432.254 266.291C380.094 266.291 337.418 308.967 337.418 361.127C337.418 413.287 380.094 455.963 432.254 455.963C484.414 455.963 527.09 413.287 527.09 361.127C527.09 308.967 484.414 266.291 432.254 266.291Z" fill="white"/>
<path d="M147.746 375.352C178.568 375.352 204.648 401.432 204.648 432.254C204.648 463.076 178.568 489.156 147.746 489.156C116.924 489.156 90.8445 463.076 90.8445 432.254C90.8445 401.432 116.924 375.352 147.746 375.352ZM147.746 337.418C95.5863 337.418 52.9102 380.094 52.9102 432.254C52.9102 484.414 95.5863 527.09 147.746 527.09C199.906 527.09 242.582 484.414 242.582 432.254C242.582 380.094 199.906 337.418 147.746 337.418Z" fill="white"/>
<path d="M280.517 339.789L278.146 297.113L207.019 266.291L271.033 188.051L342.16 195.164L256.808 131.15C242.582 119.295 223.615 121.666 214.131 135.892C190.422 161.971 154.859 204.648 135.892 228.357C114.554 254.437 124.037 294.742 157.23 304.225L280.517 339.789Z" fill="white"/>
<path d="M408.545 218.873L318.451 209.389L240.211 150.117" fill="white"/>
<path d="M408.545 218.873L318.451 209.389L240.211 150.117" stroke="white" stroke-width="47.418" stroke-miterlimit="10"/>
<path d="M313.709 432.254L273.404 313.709L183.31 268.662" stroke="white" stroke-width="47.418" stroke-miterlimit="10"/>
<path d="M71.8771 214.131C55.2808 202.277 55.2808 178.568 67.1353 161.971L97.957 124.037C121.666 95.5862 161.971 90.8444 190.422 114.553L195.164 119.295L124.037 209.389C109.811 225.986 88.4734 228.357 71.8771 214.131Z" fill="white"/>
</svg>
