<svg width="580" height="580" viewBox="0 0 580 580" fill="none" xmlns="http://www.w3.org/2000/svg">
<path d="M319.478 76.8007C312.617 50.3535 288.478 30.7676 259.972 30.7676C225.915 30.7676 198.408 58.1504 198.408 92.145C198.408 97.8835 199.094 103.123 200.528 108.238H225.229C227.038 112.479 229.034 114.912 229.034 114.912C236.457 125.641 248.869 132.564 262.904 132.564C285.671 132.564 304.196 114.039 304.196 91.2717C304.196 86.0322 305.506 81.2917 303.323 76.8007H319.478Z" fill="#ffffff"/>
<path d="M317.794 443.88C311.307 450.429 302.388 455.481 292.345 455.481L292.283 321.686L384.848 295.114L408.052 340.773L317.794 443.88Z" fill="#ffffff"/>
<path d="M240.074 137.867C233.962 131.068 225.167 126.764 215.249 126.764C204.708 126.764 195.289 131.629 189.238 139.301L115.76 251.515C112.766 256.505 111.082 262.368 111.082 268.543C111.082 280.145 116.945 290.25 125.803 296.175L224.356 350.879V443.943C224.356 457.104 235.022 467.833 248.183 467.833C261.282 467.833 272.011 457.104 272.011 443.943V327.737C272.011 327.737 275.129 309.212 254.109 299.107L192.669 266.921L237.455 198.558L261.22 235.858C265.96 243.406 272.385 246.337 278.248 246.213L339.251 245.963C364.077 245.963 364.077 213.653 339.251 213.777H289.788L240.074 137.867Z" fill="#ffffff"/>
<path d="M510.16 290.374C511.158 291.372 511.657 292.558 511.657 294.179C511.657 297.111 509.225 299.544 506.293 299.544C505.482 299.544 504.983 299.544 504.359 299.294C493.818 294.803 487.144 291.996 474.856 291.996C466.747 291.996 456.704 294.803 445.103 304.159L434.374 282.952C447.785 278.96 458.763 275.404 470.24 275.404C488.578 275.404 498.184 279.209 510.16 290.374Z" fill="#ffffff"/>
<path d="M100.353 306.716L203.772 363.727L204.021 386.619L85.8823 321.561C77.3369 317.195 65.8599 314.638 57.6887 314.638C45.5255 314.638 38.7265 317.445 28.2474 321.936C27.5613 322.185 26.9999 322.185 26.3138 322.185C23.3822 322.185 20.8872 319.753 20.8872 316.821C20.8872 315.262 21.5109 314.014 22.4466 313.016C34.4226 301.788 46.6482 298.046 64.9242 298.046C74.3429 298.046 85.6952 299.169 100.353 306.716Z" fill="#ffffff"/>
<path d="M109.959 516.485C143.642 516.485 170.962 489.165 170.962 455.42C170.962 421.675 143.642 394.354 109.959 394.354C76.2762 394.354 48.9558 421.675 48.9558 455.42C48.9558 489.165 76.2762 516.485 109.959 516.485ZM21.9473 455.482C21.9473 406.892 61.3685 367.408 109.959 367.408C158.612 367.408 198.033 406.892 198.033 455.482C198.033 504.073 158.612 543.556 109.959 543.556C61.3685 543.556 21.9473 504.073 21.9473 455.482Z" fill="#ffffff"/>
<path d="M473.983 516.485C507.665 516.485 535.048 489.165 535.048 455.42C535.048 421.675 507.728 394.354 473.983 394.354C440.237 394.354 412.979 421.675 412.979 455.42C412.979 489.165 440.3 516.485 473.983 516.485ZM385.971 455.482C385.971 406.892 425.33 367.408 473.983 367.408C522.573 367.408 561.994 406.892 561.994 455.482C561.994 504.073 522.573 543.556 473.983 543.556C425.33 543.556 385.971 504.073 385.971 455.482Z" fill="#ffffff"/>
<path d="M454.521 354.808L411.732 269.292C406.118 259.062 395.202 252.014 382.665 252.014H354.721C349.294 252.014 344.865 256.505 344.865 261.994C344.865 267.483 349.294 271.849 354.721 271.849L382.665 271.724C387.343 271.724 392.582 274.905 394.578 279.521L434.873 361.607L454.521 354.808Z" fill="#ffffff"/>
</svg>
