<svg width="48" height="48" viewBox="0 0 48 48" fill="none" xmlns="http://www.w3.org/2000/svg">
<path fill-rule="evenodd" clip-rule="evenodd" d="M10.4 8.8C10.7777 8.29639 11.3705 8 12 8H36C36.6295 8 37.2223 8.29639 37.6 8.8L43.5906 16.7874C43.6166 16.8215 43.6415 16.8566 43.6654 16.8926C43.6901 16.9297 43.7135 16.9674 43.7354 17.0058C43.8881 17.2722 43.9756 17.5671 43.9956 17.8668C44.0006 17.9423 44.0014 18.0181 43.9978 18.0938C43.9831 18.4069 43.8949 18.716 43.7355 18.9941C43.7191 19.0227 43.7021 19.0507 43.6845 19.0783C43.6568 19.1216 43.6275 19.1636 43.5968 19.2043L25.606 43.442C25.2287 43.9503 24.633 44.25 24 44.25C23.367 44.25 22.7714 43.9503 22.3941 43.442L4.40335 19.2045C4.36527 19.154 4.32942 19.1015 4.29598 19.0471C4.21131 18.9094 4.14458 18.7634 4.09608 18.6126C4.03141 18.4117 3.99962 18.2037 4 17.9965C4.00035 17.7892 4.03287 17.5814 4.09825 17.3807C4.1474 17.2297 4.21487 17.0836 4.30034 16.9459C4.33429 16.8911 4.37069 16.8383 4.40936 16.7875L10.4 8.8ZM35 12L38 16H10L13 12H35ZM33.4415 20H38.0247L29.7057 31.2076L33.4415 20ZM29.2252 20H18.7749L24 35.6754L29.2252 20ZM14.5585 20H9.9753L18.2944 31.2076L14.5585 20Z" fill="white"/>
<g opacity="0.5">
<path d="M8 18H16L22 34H18L8 18Z" fill="white"/>
<path d="M42 18H34L26 34H30L42 18Z" fill="white"/>
</g>
</svg>
