<svg width="48" height="48" viewBox="0 0 48 48" fill="none" xmlns="http://www.w3.org/2000/svg">
<path fill-rule="evenodd" clip-rule="evenodd" d="M5.63703 19.7296C4.62664 16.1933 5.61292 12.3871 8.21358 9.78642L9.78643 8.21358C12.3871 5.61293 16.1933 4.62666 19.7296 5.63705C24.9754 7.13584 29.2965 10.866 31.5452 15.8367L31.808 16.4176C32.3087 17.5245 32.6114 18.6835 32.7245 19.8488L37.7481 34.9196L43.596 40.7676C44.3771 41.5487 44.3771 42.815 43.596 43.596C42.815 44.3771 41.5486 44.3771 40.7676 43.596L34.9196 37.7481L19.8488 32.7245C18.6835 32.6114 17.5245 32.3087 16.4176 31.808L15.8367 31.5452C10.866 29.2965 7.13583 24.9754 5.63703 19.7296ZM29.5889 28.593C30.0796 28.1022 30.5159 27.5727 30.8962 27.0131L32.8377 32.8377L27.0131 30.8962C27.5727 30.5159 28.1022 30.0796 28.593 29.5889L29.5889 28.593Z" fill="white" />
<path d="M12 44C14.2091 44 16 42.2091 16 40C16 37.7909 14.2091 36 12 36C9.79086 36 7.99999 37.7909 7.99999 40C7.99999 42.2091 9.79086 44 12 44Z" fill="white" />
</svg>