<svg width="48" height="48" viewBox="0 0 48 48" fill="none" xmlns="http://www.w3.org/2000/svg">
<path d="M22 4H26V8H22V4Z" fill="#ffffff"/>
<path d="M44 20V24H40V20H44Z" fill="#ffffff"/>
<path d="M8 24L8 20H4V24H8Z" fill="#ffffff"/>
<path d="M39.5564 11.2721L36.7279 8.44365L33.8995 11.2721L36.7279 14.1005L39.5564 11.2721Z" fill="#ffffff"/>
<path d="M11.2721 14.1005L14.1005 11.2721L11.2721 8.44365L8.44365 11.2721L11.2721 14.1005Z" fill="#ffffff"/>
<path d="M24 12C30.6274 12 36 17.3726 36 24H32C32 19.5817 28.4183 16 24 16C19.5817 16 16 19.5817 16 24H12C12 17.3726 17.3726 12 24 12Z" fill="#ffffff"/>
<path d="M4 32V28H44V32H4Z" fill="#ffffff"/>
<path d="M8 40V36H40V40H8Z" fill="#ffffff"/>
</svg>
