<svg width="580" height="580" viewBox="0 0 580 580" fill="none" xmlns="http://www.w3.org/2000/svg">
<path d="M269.812 156.906C269.657 156.911 269.521 156.955 269.406 157C267.567 157.727 257.793 168.524 247.687 181.031L229.281 203.75L215.969 204.75C155.082 212.127 105.445 237.072 59.7498 277.187C50.2765 287.199 14.5801 320.443 16.7811 328.5C17.5384 329.306 26.0246 328.293 35.3748 329.5C52.8977 331.761 79.7495 335.188 79.5936 338.844C79.5126 340.743 64.4454 342.564 36.9061 346.062C13.2966 349.062 13.5116 354.031 37.5936 362.531C66.4208 372.707 104.312 379.052 165.562 374.594C211.073 375.086 251.632 358.896 294.531 348.656C297.542 348.503 306.397 345.989 314.156 343C360.905 329.639 399.35 316.525 437.594 320.469C472.931 322.278 496.463 346.286 524.344 363.594C525.495 363.621 532.606 368.219 540.094 373.812C560.469 389.034 565.648 386.875 557.656 366.562C551.092 349.878 540.303 311.867 540.531 306.187C546.671 287.36 552.964 264.368 561.219 246.25C565.935 237.941 566.803 229.527 563 229.437C562.371 229.423 559.717 230.4 557 231.656C554.282 232.912 547.201 236.163 541.406 238.781C535.612 241.399 528.557 245.494 525.719 247.969C508.805 259.056 490.484 264.434 469.906 263.562C446.907 258.955 417.105 255.343 394.125 239.656C358.803 220.663 355.762 219.178 341.094 214C333.119 211.185 326.273 208.525 325.906 208.125C325.539 207.725 327.53 205.336 330.312 202.781C333.095 200.227 335.143 196.815 334.844 195.25C334.544 193.685 326.12 189.397 316.156 185.594C304.548 181.163 293.507 174.517 285.406 167.156C278.887 161.233 272.144 156.83 269.812 156.906ZM84.0936 289.781C89.1869 289.781 93.3123 293.907 93.3123 299C93.3123 304.093 89.1869 308.219 84.0936 308.219C79.0003 308.219 74.8748 304.093 74.8748 299C74.8748 293.907 79.0003 289.781 84.0936 289.781Z" fill="white"/>
<path d="M145.653 334.317C114.307 290.225 120.504 335.056 134.287 303.627L208.065 246.864C374.365 202.211 147.472 295.749 258.865 273.45C257.948 274.449 262.903 280.436 269.852 286.817C276.8 293.197 281.953 301.677 281.204 305.585C204.296 348.088 290.58 409.771 219.836 405.18C185.204 402.932 129.278 338.69 145.653 334.317Z" fill="white"/>
</svg>
