<svg width="48" height="48" viewBox="0 0 48 48" fill="none" xmlns="http://www.w3.org/2000/svg">
<path fill-rule="evenodd" clip-rule="evenodd" d="M0 18H20V8H34L38 18H44C45.1046 18 46 18.8954 46 20V26H48V30H44C44 33.3137 41.3137 36 38 36C34.6863 36 32 33.3137 32 30H16C16 33.3137 13.3137 36 10 36C6.68629 36 4 33.3137 4 30H0V18ZM24 12H32L34 18H24V12ZM10 32C11.1046 32 12 31.1046 12 30C12 28.8954 11.1046 28 10 28C8.89543 28 8 28.8954 8 30C8 31.1046 8.89543 32 10 32ZM38 32C39.1046 32 40 31.1046 40 30C40 28.8954 39.1046 28 38 28C36.8954 28 36 28.8954 36 30C36 31.1046 36.8954 32 38 32Z" fill="white" />
</svg>