<svg width="48" height="48" viewBox="0 0 48 48" fill="none" xmlns="http://www.w3.org/2000/svg">
<g opacity="0.5">
<path d="M32 33.6569V36H34.3431L32 33.6569Z" fill="white"/>
<path d="M45.6569 36H48V28H37.6569L45.6569 36Z" fill="white"/>
</g>
<path d="M7.41421 4.58579C6.63316 3.80474 5.36684 3.80474 4.58579 4.58579C3.80474 5.36683 3.80474 6.63316 4.58579 7.41421L25.1716 28H0V36H33.1716L40.5858 43.4142C41.3668 44.1953 42.6332 44.1953 43.4142 43.4142C44.1953 42.6332 44.1953 41.3668 43.4142 40.5858L7.41421 4.58579Z" fill="white"/>
<path d="M44 34.3431L45.6569 36H48V28H44V34.3431Z" fill="white"/>
<path d="M37.6569 28L40 30.3431V28H37.6569Z" fill="white"/>
<path d="M28 10C28 6.68629 30.6863 4 34 4C37.3137 4 40 6.68629 40 10C40 10.7068 39.8778 11.3851 39.6533 12.0148C39.7676 12.005 39.8832 12 40 12C42.2091 12 44 13.7909 44 16C44 18.2091 42.2091 20 40 20C37.7909 20 36 18.2091 36 16C36 15.8832 36.005 15.7676 36.0148 15.6533C35.3851 15.8778 34.7068 16 34 16C30.6863 16 28 13.3137 28 10Z" fill="white"/>
<path d="M42 24C43.1046 24 44 23.1046 44 22C44 20.8954 43.1046 20 42 20C40.8954 20 40 20.8954 40 22C40 23.1046 40.8954 24 42 24Z" fill="white"/>
</svg>
