<svg width="48" height="48" viewBox="0 0 48 48" fill="none" xmlns="http://www.w3.org/2000/svg">
<path d="M18.2654 8.00024H30V12.0002H21.7346L20.5125 20.5548C21.4733 20.1888 22.495 20 23.5279 20C28.2069 20 32 23.7931 32 28.4721V32C32 36.4183 28.4183 40 24 40C19.5817 40 16 36.4183 16 32H20C20 34.2091 21.7909 36 24 36C26.2091 36 28 34.2091 28 32V28.4721C28 26.0022 25.9978 24 23.5279 24C22.8336 24 22.1488 24.1616 21.5279 24.4721L18.8944 25.7889L16.0201 23.7172L18.2654 8.00024Z" fill="white" />
</svg>