<svg width="48" height="48" viewBox="0 0 48 48" fill="none" xmlns="http://www.w3.org/2000/svg">
<path fill-rule="evenodd" clip-rule="evenodd" d="M12 17C12 16.4477 12.4477 16 13 16H35C35.5523 16 36 16.4477 36 17V21C36 19.3431 37.3431 18 39 18H44V19.1716C44 19.702 43.7893 20.2107 43.4142 20.5858L43 21C42.4477 21.5523 42.4477 22.4477 43 23C43.5523 23.5523 43.5523 24.4477 43 25C42.4477 25.5523 42.4477 26.4477 43 27L43.4142 27.4142C43.7893 27.7893 44 28.298 44 28.8284V30H39C37.3431 30 36 28.6569 36 27V31C36 31.5523 35.5523 32 35 32H13C12.4477 32 12 31.5523 12 31V28C12 29.1046 11.1046 30 10 30H4V28.8284C4 28.298 4.21071 27.7893 4.58579 27.4142L5 27C5.55229 26.4477 5.55228 25.5523 5 25C4.44772 24.4477 4.44772 23.5523 5 23C5.55228 22.4477 5.55228 21.5523 5 21L4.58579 20.5858C4.21071 20.2107 4 19.702 4 19.1716V18H10C11.1046 18 12 18.8954 12 20V17Z" fill="white" />
</svg>