<svg width="48" height="48" viewBox="0 0 48 48" fill="none" xmlns="http://www.w3.org/2000/svg">
<path fill-rule="evenodd" clip-rule="evenodd" d="M4 20V4H12C14.2091 4 16 5.79086 16 8V12C16 14.2091 14.2091 16 12 16H8V20H4ZM12 12H8V8H12V12Z" fill="#ffffff"/>
<path d="M28 20C29.1046 20 30 20.8954 30 22V28H34C35.1046 28 36 28.8954 36 30C36 31.1046 35.1046 32 34 32H28C26.8954 32 26 31.1046 26 30V22C26 20.8954 26.8954 20 28 20Z" fill="#ffffff"/>
<path fill-rule="evenodd" clip-rule="evenodd" d="M28 44C36.8366 44 44 36.8366 44 28C44 19.1634 36.8366 12 28 12C19.1634 12 12 19.1634 12 28C12 36.8366 19.1634 44 28 44ZM28 40C34.6274 40 40 34.6274 40 28C40 21.3726 34.6274 16 28 16C21.3726 16 16 21.3726 16 28C16 34.6274 21.3726 40 28 40Z" fill="#ffffff"/>
</svg>
