<svg width="48" height="48" viewBox="0 0 48 48" fill="none" xmlns="http://www.w3.org/2000/svg">
<g opacity="0.7">
<path d="M12 20H0V44H12V36H4V32H12V28H4V24H12V20Z" fill="#ffffff"/>
<path d="M48 20H36V24H44V28H36V32H44V36H36V44H48V20Z" fill="#ffffff"/>
</g>
<rect opacity="0.3" x="16" y="24" width="16" height="20" fill="#ffffff"/>
<path opacity="0.5" fill-rule="evenodd" clip-rule="evenodd" d="M22 44V24H26V44H22Z" fill="#ffffff"/>
<path d="M24 10.0462C23.9954 10.2408 23.9622 10.4381 23.8974 10.6325L23.4415 12.0001H24.5585L24.1026 10.6325C24.0378 10.4381 24.0046 10.2408 24 10.0462Z" fill="#ffffff"/>
<path fill-rule="evenodd" clip-rule="evenodd" d="M36 4H12V44H16V24H32V44H36V4ZM22.6325 8.10269C21.5846 7.75339 20.4519 8.31971 20.1026 9.3676L19.2251 12.0001H17.7208C16.7704 12.0001 16 12.7705 16 13.7208C16 13.9058 16.0298 14.0895 16.0883 14.265L17.5442 18.6325C17.8164 19.4492 18.5807 20.0001 19.4415 20.0001H28.5585C29.4193 20.0001 30.1836 19.4492 30.4558 18.6325L31.9117 14.265C31.9702 14.0895 32 13.9058 32 13.7208C32 12.7705 31.2296 12.0001 30.2792 12.0001H28.7749L27.8974 9.3676C27.5481 8.31971 26.4154 7.75339 25.3675 8.10269C24.545 8.37687 24.0192 9.13372 24 9.95337C23.9808 9.13372 23.455 8.37687 22.6325 8.10269Z" fill="#ffffff"/>
<path d="M20 38C20 36.8954 20.8954 36 22 36H26C27.1046 36 28 36.8954 28 38C28 39.1046 27.1046 40 26 40H22C20.8954 40 20 39.1046 20 38Z" fill="#ffffff"/>
<path opacity="0.5" d="M20.104 9.3676C20.4533 8.31971 21.586 7.75339 22.6339 8.10269C23.6818 8.45198 24.2481 9.58462 23.8988 10.6325L23.4429 12.0001H19.2266L20.104 9.3676Z" fill="#ffffff"/>
</svg>
