<svg width="48" height="48" viewBox="0 0 48 48" fill="none" xmlns="http://www.w3.org/2000/svg">
<path d="M21 17C21 20.866 17.866 24 14 24C10.134 24 7 20.866 7 17C7 13.134 10.134 10 14 10C17.866 10 21 13.134 21 17Z" fill="white" />
<path d="M14 28C22.1667 28 28 32.8 28 36.4V40H0V36.4C0 32.8 5.83333 28 14 28Z" fill="white" />
<path d="M34 24C37.866 24 41 20.866 41 17C41 13.134 37.866 10 34 10C30.134 10 27 13.134 27 17C27 20.866 30.134 24 34 24Z" fill="white" />
<path d="M48 36.4C48 32.8 42.1667 28 34 28C31.84 28 29.8433 28.3358 28.0745 28.8963C30.2448 30.8085 32 33.4041 32 36.4V40H48V36.4Z" fill="white" />
</svg>