<svg width="580" height="580" viewBox="0 0 580 580" fill="none" xmlns="http://www.w3.org/2000/svg">
<path opacity="0.814" fill-rule="evenodd" clip-rule="evenodd" d="M359.578 43.8828C335.915 44.0223 309.451 44.9582 279.893 46.7559C218.001 89.6105 169.602 137.762 133.129 189.127L350.385 188.027L399.436 44.4883C387.127 44.0053 373.863 43.7986 359.578 43.8828Z" fill="#ffffff"/>
<path opacity="0.605" fill-rule="evenodd" clip-rule="evenodd" d="M425.33 46.0254L392.541 141.977H544.621C553.808 92.0788 537.132 55.1039 425.33 46.0254Z" fill="#ffffff"/>
<path opacity="0.605" fill-rule="evenodd" clip-rule="evenodd" d="M383.998 166.977L350.98 263.598H415.227L448.691 166.977H383.998Z" fill="#ffffff"/>
<path fill-rule="evenodd" clip-rule="evenodd" d="M475.15 166.977L441.684 263.598H510.568C516.502 229.856 529.752 196.794 538.48 166.977H475.15Z" fill="#ffffff"/>
<path opacity="0.605" fill-rule="evenodd" clip-rule="evenodd" d="M341.826 213.072L242.51 213.574L179.092 368.434L288.926 367.877L341.826 213.072Z" fill="#ffffff"/>
<path fill-rule="evenodd" clip-rule="evenodd" d="M215.439 213.713L116.404 214.213C85.4462 263.831 64.9987 316.038 53.7441 369.068L152.02 368.57L215.439 213.713Z" fill="#ffffff"/>
<path opacity="0.814" fill-rule="evenodd" clip-rule="evenodd" d="M342.438 288.598L303.855 401.5H498.064C495.955 370.384 499.321 337.371 506.652 288.598H342.438Z" fill="#ffffff"/>
<path opacity="0.814" fill-rule="evenodd" clip-rule="evenodd" d="M280.367 392.92L49.1153 394.094C41.8024 440.453 41.2982 487.225 46.7559 533.244H232.414L280.367 392.92Z" fill="#ffffff"/>
<path fill-rule="evenodd" clip-rule="evenodd" d="M295.312 426.5L258.836 533.244H314.943L351.916 426.5H295.312Z" fill="#ffffff"/>
<path fill-rule="evenodd" clip-rule="evenodd" d="M378.373 426.5L341.402 533.244H428.113L424.939 532.145L461.531 426.5H378.373Z" fill="#ffffff"/>
<path fill-rule="evenodd" clip-rule="evenodd" d="M487.988 426.5L451.016 533.244H533.244C516.221 487.765 505.91 456.251 500.971 426.5H487.988Z" fill="#ffffff"/>
</svg>
