<svg width="48" height="48" viewBox="0 0 580 580" fill="none" xmlns="http://www.w3.org/2000/svg">
<path fill-rule="evenodd" clip-rule="evenodd" d="M215.078 206.705L309.341 185.607C352.47 178.993 374.693 187.976 389.24 202.686C446.004 189.047 468.956 208.516 487.991 231.821L475.638 248.3C460.39 227.118 435.049 207.146 396.051 215.201C401.02 240.853 416.898 261.564 438.616 279.182C452.391 312.498 466.623 361.491 489.787 389.553L475.423 411.656C459.776 374.71 437.087 320.879 404.716 299.975C379.789 292.886 356.774 286.489 338.966 266.122L327.091 262.278C297.903 289.232 253.229 298.633 212.385 299.276C184.699 328.493 161.39 369.509 122.61 418.689L95.678 406.633C127.888 381.609 152.502 326.663 180.066 291.238C178.878 247.155 153.38 208.625 135.995 196.597C118.609 184.568 97.7339 209.653 77.7232 212.733C66.2443 214.534 57.6045 197.923 64.257 189.625C71.1996 180.965 97.604 150.625 120.815 138.388L129.792 115.28L135.179 137.383C162.932 155.474 191.856 168.327 215.078 206.705Z" fill="white" stroke="white" stroke-width="9.13918" stroke-linecap="round" stroke-linejoin="round" />
<path d="M535.68 383.701C467.196 427.258 385.915 452.488 298.74 452.488C208.148 452.488 123.92 425.241 53.8047 378.494" stroke="white" stroke-width="30" stroke-linecap="round" />
</svg>