<svg width="48" height="48" viewBox="0 0 580 580" fill="none" xmlns="http://www.w3.org/2000/svg">
<path d="M31.2327 179.649H548.767" stroke="white" stroke-width="35" />
<path d="M31.2327 344.951H548.767" stroke="white" stroke-width="35" />
<path d="M290 315.361C317.846 315.361 340.419 292.788 340.419 264.942C340.419 237.097 317.846 214.523 290 214.523C262.155 214.523 239.581 237.097 239.581 264.942C239.581 292.788 262.155 315.361 290 315.361Z" stroke="white" stroke-width="21.1994" stroke-linecap="round" stroke-linejoin="round" />
<path d="M290 290.643C304.194 290.643 315.701 279.137 315.701 264.942C315.701 250.748 304.194 239.241 290 239.241C275.806 239.241 264.299 250.748 264.299 264.942C264.299 279.137 275.806 290.643 290 290.643Z" fill="white" />
<path fill-rule="evenodd" clip-rule="evenodd" d="M296.518 256.192C295.334 255.908 293.833 255.668 292.713 255.374L287.537 274.692C288.654 274.993 290.073 275.548 291.24 275.892L296.518 256.192Z" fill="white" />
<path fill-rule="evenodd" clip-rule="evenodd" d="M283.843 250.386L306.487 256.3C321.908 202.666 401.212 94.189 343.274 78.9606C285.337 63.7321 296.586 195.873 283.843 250.386Z" fill="white" />
<path fill-rule="evenodd" clip-rule="evenodd" d="M304.748 261.934L282.104 256.02C266.684 309.654 188.786 428.913 246.253 444.018C303.72 459.123 292.005 316.447 304.748 261.934Z" fill="white" />
<path d="M372.835 181.167C376.629 182.252 520.158 342.829 520.158 342.829" stroke="white" stroke-width="30" stroke-linecap="round" />
<path d="M521.531 181.167C517.737 182.252 374.208 342.829 374.208 342.829" stroke="white" stroke-width="30" stroke-linecap="round" />
<path d="M58.4697 181.167C62.4771 182.252 214.089 342.829 214.089 342.829" stroke="white" stroke-width="30" stroke-linecap="round" />
<path d="M215.54 181.167C211.532 182.252 59.9202 342.829 59.9202 342.829" stroke="white" stroke-width="30" stroke-linecap="round" />
<path d="M218.808 349.946L180.652 448.569" stroke="white" stroke-width="27" stroke-linecap="round" />
<path d="M169.058 408.674V473.968" stroke="white" stroke-width="42" stroke-linecap="round" />
<path d="M361.192 349.946L399.348 448.569" stroke="white" stroke-width="27" stroke-linecap="round" />
<path d="M410.942 408.674V473.968" stroke="white" stroke-width="42" stroke-linecap="round" />
</svg>