<svg width="48" height="48" viewBox="0 0 48 48" fill="none" xmlns="http://www.w3.org/2000/svg">
<path fill-rule="evenodd" clip-rule="evenodd" d="M45.3204 16.9282L31.464 24.9282C29.5508 26.0327 26.209 23.8263 23.9999 20C21.7907 16.1736 21.5508 12.1763 23.464 11.0718L37.3204 3.07175C39.2336 1.96718 42.5754 4.17361 44.7845 7.99995C46.9936 11.8263 47.2336 15.8236 45.3204 16.9282ZM43.3204 13.4641C44.277 12.9118 44.157 10.9131 43.0524 8.99996C41.9479 7.08678 40.277 5.98357 39.3204 6.53585C38.3638 7.08814 38.4838 9.08679 39.5883 11C40.6929 12.9131 42.3638 14.0163 43.3204 13.4641Z" fill="#3f3f3f"/>
<path d="M24.7085 26.519L16.6076 31.1961C14.6944 32.3007 11.8003 30.8697 10.1435 28C8.48663 25.1302 8.69441 21.9084 10.6076 20.8038L18.7085 16.1267C18.7223 17.8114 19.3411 19.9307 20.5358 22C21.7305 24.0692 23.2564 25.6647 24.7085 26.519Z" fill="#3f3f3f"/>
<path d="M4.67938 26.5359L5.14281 26.2683C5.43642 27.4575 5.9508 28.738 6.67938 30C7.40795 31.2619 8.25972 32.3476 9.14281 33.1965L8.67938 33.4641C6.76621 34.5686 4.31985 33.9131 3.21528 32C2.11071 30.0868 2.76621 27.6404 4.67938 26.5359Z" fill="#3f3f3f"/>
<path d="M27.9999 30C27.9999 28.8954 27.1045 28 25.9999 28C24.8953 28 23.9999 28.8954 23.9999 30V33.1716L16.5857 40.5858C15.8046 41.3668 15.8046 42.6331 16.5857 43.4142C17.3667 44.1952 18.633 44.1952 19.4141 43.4142L23.9999 38.8284V42C23.9999 43.1046 24.8953 44 25.9999 44C27.1045 44 27.9999 43.1046 27.9999 42V38.8284L32.5857 43.4142C33.3667 44.1952 34.633 44.1952 35.4141 43.4142C36.1951 42.6331 36.1951 41.3668 35.4141 40.5858L27.9999 33.1716V30Z" fill="#3f3f3f"/>
</svg>
