<svg width="580" height="580" viewBox="0 0 580 580" fill="none" xmlns="http://www.w3.org/2000/svg">
<path opacity="0.2" d="M552.66 343.637H32.8438V528.195H552.66V343.637Z" fill="#000000" stroke="#000000" stroke-width="10.9734" stroke-linecap="round" stroke-linejoin="round"/>
<path d="M23.6772 339.895H560.742" stroke="#000000" stroke-width="20"/>
<path d="M23.6772 527.895H560.742" stroke="#000000" stroke-width="20"/>
<path d="M39.1514 431.895H547.973" stroke="#000000" stroke-width="19.467" stroke-dasharray="38.93 38.93"/>
<path d="M333.182 128.381L352.171 202.809L333.182 128.381Z" fill="#D53B3B"/>
<path d="M333.182 128.381L352.171 202.809" stroke="#000000" stroke-width="75.1311" stroke-linecap="round" stroke-linejoin="round"/>
<path d="M328.004 115.025L255.028 125.434L212.265 74.5166" stroke="#000000" stroke-width="33.0091" stroke-linecap="round" stroke-linejoin="round"/>
<path d="M381.61 284.426L280.686 285.518" stroke="#000000" stroke-width="41.8183" stroke-linecap="round" stroke-linejoin="round"/>
<path d="M368.081 212.736L281.233 277.111" stroke="#000000" stroke-width="45.6659" stroke-linecap="round" stroke-linejoin="round"/>
<path d="M302.067 42.8929C292.517 43.3262 288.757 57.0997 296.657 62.3529C303.851 68.2871 315.761 61.0949 313.807 51.9109C312.944 46.4063 307.628 42.2715 302.067 42.8929Z" fill="#000000" stroke="#000000" stroke-width="45.6659" stroke-linecap="round" stroke-linejoin="round"/>
<path d="M359.715 206.301L281.233 277.111" stroke="#000000" stroke-width="45.6659" stroke-linecap="round" stroke-linejoin="round"/>
<path d="M328.004 120.849L255.028 125.434L212.265 74.5166" stroke="#000000" stroke-width="33.0091" stroke-linecap="round" stroke-linejoin="round"/>
</svg>
