<svg width="48" height="48" viewBox="0 0 580 580" fill="none" xmlns="http://www.w3.org/2000/svg">
<path d="M150.653 222.253C126.084 222.253 113.045 235.677 107.028 251.378L75.0908 333.847C62.429 335.471 39.9658 350.316 39.9658 378.472V483.347H71.0596V516.909C71.0596 558.175 129.466 557.689 129.466 516.909V483.347H234.497H234.56H339.591V516.909C339.591 557.689 397.997 558.175 397.997 516.909V483.347H429.091V378.472C429.091 366.428 424.97 356.843 419.278 349.659C413.961 350.154 408.566 350.409 403.122 350.409C376.028 350.409 350.364 344.158 327.497 333.003H234.56H234.497H234.435H108.153L132.216 268.097C135.224 258.98 139.748 252.382 150.278 252.284H234.435H234.497H234.56H247.091C242.472 242.728 238.717 232.68 235.903 222.253H196.341H150.653ZM101.216 364.566C116.115 364.566 128.185 376.991 128.185 392.347C128.185 407.703 116.115 420.159 101.216 420.159C86.3181 420.159 74.2471 407.703 74.2471 392.347C74.2471 376.992 86.3181 364.566 101.216 364.566ZM367.872 364.566C382.771 364.566 394.841 376.992 394.841 392.347C394.841 407.703 382.771 420.159 367.872 420.159C352.974 420.159 340.841 407.703 340.841 392.347C340.841 376.991 352.974 364.566 367.872 364.566Z" fill="white" />
<path d="M403.128 32.3237C323.267 32.3237 258.222 97.3686 258.222 177.23C258.222 257.091 323.267 322.136 403.128 322.136C482.989 322.136 548.034 257.091 548.034 177.23C548.034 97.3686 482.989 32.3237 403.128 32.3237ZM403.128 60.1362C467.965 60.1362 520.222 112.393 520.222 177.23C520.222 242.067 467.965 294.324 403.128 294.324C338.291 294.324 286.034 242.067 286.034 177.23C286.034 112.393 338.291 60.1362 403.128 60.1362Z" fill="white" />
<path d="M516.652 71.474L498.361 59.1225C493.341 55.7354 486.42 57.0272 483 62.0213L393.46 193.413L352.285 152.451C348.009 148.198 340.978 148.198 336.67 152.451L321.055 168.017C316.748 172.302 316.748 179.281 321.055 183.582L384.338 246.536C387.886 250.065 393.444 252.775 398.48 252.775C403.485 252.775 408.552 249.64 411.799 244.93L519.63 86.7242C523.003 81.7458 521.688 74.8769 516.652 71.474Z" fill="white" />
</svg>