<svg width="48" height="48" viewBox="0 0 48 48" fill="none" xmlns="http://www.w3.org/2000/svg">
<path d="M14 24H18V28H22V32H18V36H14V32H10V28H14V24Z" fill="white"/>
<path fill-rule="evenodd" clip-rule="evenodd" d="M8 8V16C5.54854 17.2257 4 19.7313 4 22.4721V40C4 42.2091 5.79086 44 8 44H24C26.2091 44 28 42.2091 28 40V22.4721C28 19.7313 26.4515 17.2257 24 16V8C24 5.79086 22.2091 4 20 4H12C9.79086 4 8 5.79086 8 8ZM12 8H20V16H12V8ZM22.8523 20C23.5704 20.6066 24 21.5068 24 22.4721V40H8L8 22.4721C8 21.5068 8.42958 20.6066 9.14768 20H22.8523Z" fill="white"/>
<path fill-rule="evenodd" clip-rule="evenodd" d="M40 32V16H36V32H40ZM44 32C45.1046 32 46 32.8954 46 34C46 35.1046 45.1046 36 44 36H40V40H44V44H32V40H36V36H32C30.8954 36 30 35.1046 30 34C30 32.8954 30.8954 32 32 32V12H36V6C36 4.89543 36.8954 4 38 4C39.1046 4 40 4.89543 40 6V12H44V32Z" fill="white"/>
</svg>
