<svg width="580" height="580" viewBox="0 0 580 580" fill="none" xmlns="http://www.w3.org/2000/svg">
<path d="M290 33.6016C148.395 33.6013 33.6013 148.395 33.6016 290C33.6013 431.605 148.395 546.399 290 546.398C431.605 546.399 546.399 431.605 546.398 290C546.399 148.395 431.605 33.6013 290 33.6016ZM285.896 75.5527H322.105V491.275H267.602V164.941L215.191 188.9V129.424L285.896 75.5527ZM417.057 230.979H431.102V249.318C438.246 250.109 444.954 251.662 451.227 253.953C457.499 256.258 463.021 259.435 467.779 263.484C472.538 267.534 476.424 272.581 479.451 278.607C482.465 284.648 484.21 291.792 484.688 300.041H450.873C450.709 293.687 448.732 288.289 444.914 283.844C441.11 279.399 436.501 277.162 431.115 277.162V319.309C433.024 319.786 434.96 320.263 436.951 320.74C438.942 321.217 441.041 321.777 443.264 322.404C455.017 325.581 464.058 329.522 470.412 334.199C476.753 338.876 481.444 343.769 484.457 348.842C487.47 353.914 489.255 359.002 489.814 364.088C490.374 369.174 490.646 373.686 490.646 377.654C490.646 381.159 489.775 385.549 488.029 390.867C486.284 396.199 483.148 401.381 478.621 406.467C474.094 411.553 468.026 416.079 460.404 420.047C452.782 424.015 443.019 426.387 431.115 427.191V447.426H417.07V427.191C399.29 425.923 385.395 420.443 375.4 410.762C365.392 401.081 359.597 386.872 358.016 368.137H391.6C391.422 377.191 393.808 384.323 398.717 389.572C403.639 394.808 409.748 398.148 417.057 399.566V349.797C416.252 349.483 415.188 349.13 413.838 348.721C412.488 348.325 411.015 347.97 409.434 347.656C403.557 346.075 397.762 344.193 392.049 342.053C386.336 339.912 381.209 337.049 376.682 333.477C372.155 329.904 368.542 325.458 365.855 320.141C363.156 314.823 361.807 308.196 361.807 300.246C361.807 292.147 363.36 285.001 366.455 278.824C369.55 272.634 373.627 267.426 378.713 263.227C383.785 259.013 389.662 255.754 396.33 253.463C402.998 251.159 409.912 249.782 417.057 249.291V230.979ZM185.744 243.416C199.865 243.416 213.986 247.652 230.932 256.125L215.398 287.191C202.69 278.719 192.805 275.895 182.92 275.895C165.975 275.895 154.678 287.192 149.029 309.785H209.75L202.689 328.143H147.617V338.027H197.041L189.98 356.385H147.617C153.266 381.803 164.563 395.922 184.332 395.922C197.041 395.922 209.75 390.273 222.459 380.389V417.104C211.162 424.164 198.453 426.988 184.332 426.988C163.151 426.988 147.617 419.928 134.908 407.219C123.611 394.51 116.551 378.978 112.314 356.385H91.1328L98.1934 338.027H108.078V330.967V326.73H91.1328L98.1934 308.373H112.314C116.551 288.604 125.024 273.07 136.32 261.773C149.029 249.065 165.975 243.416 185.744 243.416ZM417.07 277.162C414.357 277.162 411.739 277.557 409.203 278.361C406.667 279.152 404.362 280.393 402.303 282.043C400.244 283.72 398.622 285.78 397.422 288.234C396.236 290.702 395.635 293.593 395.635 296.92C395.635 302.17 397.298 306.205 400.639 309.068C403.966 311.918 409.448 314.223 417.07 315.969V277.162ZM431.115 353.848V399.566C433.965 399.253 436.95 398.585 440.045 397.549C443.14 396.513 445.923 395.04 448.377 393.145C450.831 391.249 452.864 388.889 454.445 386.107C456.027 383.339 456.83 380.041 456.83 376.223C456.83 370.032 454.88 365.396 450.994 362.301C447.108 359.206 440.483 356.384 431.115 353.848Z" fill="#ffffff"/>
</svg>
