<svg width="48" height="48" viewBox="0 0 48 48" fill="none" xmlns="http://www.w3.org/2000/svg">
<path opacity="0.7" d="M48 12H0V16L4 20V36H8C8 27.1634 15.1634 20 24 20C32.8366 20 40 27.1634 40 36H44V20L48 16V12Z" fill="white" />
<path d="M10 36V32H14V24L18 28C20.2091 25.7909 23.7909 25.7909 26 28H30C31.9628 28 33.7055 28.9425 34.8001 30.3996C35.5836 29.8107 36.7011 29.8727 37.4142 30.5858C38.1953 31.3668 38.1953 32.6332 37.4142 33.4142L36.8284 34C36.5566 34.2718 36.2643 34.5183 35.9551 34.738C35.7738 36.2161 35.0549 37.5281 34 38.4722V42C34 43.1046 33.1046 44 32 44C30.8954 44 30 43.1046 30 42V40H22V42C22 43.1046 21.1046 44 20 44C18.8954 44 18 43.1046 18 42V39.9889C16.5688 39.9132 15.1814 39.4542 13.9846 38.6564L10 36Z" fill="white" />
</svg>