<svg width="48" height="48" viewBox="0 0 580 580" fill="none" xmlns="http://www.w3.org/2000/svg">
<path d="M131.369 29.9443H169.262V161.595H131.369V29.9443Z" fill="white" stroke="white" stroke-width="15.7203" stroke-linecap="round" stroke-linejoin="round" />
<path d="M94.7526 181.148C93.0652 171.137 134.96 150.214 150.489 150.191C166.019 150.169 206.341 173.904 209.29 181.148V515.338C180.579 531.028 111.205 527.992 94.7526 515.338V181.148Z" fill="white" stroke="white" stroke-width="47.5166" stroke-linecap="round" stroke-linejoin="round" />
<path d="M401.398 397.291V519.889" stroke="white" stroke-width="24" stroke-linecap="round" />
<path d="M466.134 526.666C466.134 532.868 459.268 538.815 447.045 543.201C434.822 547.586 418.244 550.049 400.958 550.049C383.672 550.049 367.094 547.586 354.871 543.201C342.648 538.815 335.781 532.868 335.781 526.666C335.781 520.464 342.648 514.516 354.871 510.131C367.094 505.746 383.672 503.282 400.958 503.282C418.244 503.282 434.822 505.746 447.045 510.131C459.268 514.516 466.134 520.464 466.134 526.666Z" fill="white" />
<path opacity="0.75" d="M334.492 290.812C334.453 292.446 334.432 294.084 334.432 295.735C334.432 361.117 365.098 414.088 402.92 414.088C440.741 414.088 471.408 361.117 471.408 295.735C471.408 294.084 471.387 292.446 471.348 290.812C420.875 277.84 365.833 282.275 334.492 290.812H334.492H334.492Z" fill="white" stroke="white" stroke-width="9.98835" stroke-linecap="round" stroke-linejoin="round" />
<path d="M333.996 291.517C333.957 293.151 333.936 294.789 333.936 296.44C333.936 361.822 364.602 414.793 402.424 414.793C440.245 414.793 470.912 361.822 470.912 296.44C470.912 294.789 470.891 293.151 470.852 291.517C432.661 303.997 391.869 312.108 333.995 291.517H333.996H333.996Z" fill="white" />
<path d="M331.999 41.2432C305.923 41.2432 289.141 61.1234 289.141 95.2035C289.141 129.542 305.664 149.68 331.999 149.68C358.334 149.68 375.116 129.284 375.116 95.2035C375.116 61.3816 358.076 41.2432 331.999 41.2432ZM439.919 44.3414L331.999 217.582H350.072L457.993 44.3414H439.919ZM331.225 52.8615C342.843 52.8615 349.298 67.0616 349.298 95.2035C349.298 123.604 342.843 137.804 331.225 137.804C319.606 137.804 313.668 123.604 313.668 95.2035C313.668 67.0616 319.865 52.8615 331.225 52.8615ZM459.283 112.502C433.207 112.502 416.167 132.382 416.167 166.462C416.167 200.8 432.948 220.68 459.283 220.68C485.618 220.68 502.4 200.542 502.4 166.462C502.4 132.898 485.36 112.502 459.283 112.502ZM458.767 123.862C470.385 123.862 476.582 138.32 476.582 166.462C476.582 194.862 470.643 209.062 458.767 209.062C447.149 209.062 440.952 194.604 440.952 166.462C440.952 138.32 447.407 123.862 458.767 123.862Z" fill="white" />
</svg>