<svg width="580" height="580" viewBox="0 0 580 580" fill="none" xmlns="http://www.w3.org/2000/svg">
<path d="M290 111.211L189.967 239.378C189.967 239.378 237.573 255.009 291.25 255.009C344.928 255.009 390.033 239.378 390.033 239.378L290 111.211ZM232.481 249.382L142.451 359.418C142.451 359.418 155.1 367.87 188.716 375.048C211.996 380.019 244.872 384.427 291.876 384.427C406.754 384.427 437.549 359.418 437.549 359.418L361.899 266.888C361.899 266.888 267.533 272.589 232.481 249.382ZM188.716 375.048L105.564 466.954C105.564 466.954 152.534 495.088 292.501 495.088C432.467 495.088 474.436 466.954 474.436 466.954L406.914 392.554C406.934 392.574 272.784 420.944 188.716 375.048Z" fill="white"/>
<path d="M186.762 93.2793L103.682 199.727C103.682 199.727 117.939 204.384 138.92 208.121L64.2188 299.424C64.2188 299.424 74.7232 306.444 102.643 312.406C114.438 314.925 129.223 317.264 147.807 318.709L193.494 262.867C188.16 261.393 183.305 259.961 183.305 259.961C179.995 258.889 176.993 257.035 174.552 254.556C172.111 252.077 170.305 249.046 169.285 245.72C168.265 242.394 168.062 238.871 168.694 235.45C169.325 232.029 170.772 228.811 172.912 226.068L177.605 220.057C162.604 217.875 148.467 214.218 139.205 208.172C152.007 210.44 167.253 212.36 183.373 212.664L231.658 150.801L186.762 93.2793ZM102.643 312.406L33.582 388.736C33.582 388.736 58.624 403.699 128.217 409.674L149.449 386.205C148.033 385.671 146.034 385.074 144.793 384.566C136.154 381.035 130.432 377.404 130.432 377.404C127.923 375.728 125.794 373.546 124.179 370.997C122.564 368.449 121.5 365.591 121.055 362.607C120.61 359.624 120.794 356.58 121.595 353.671C122.396 350.763 123.797 348.054 125.707 345.719L141.096 326.91C127.578 323.577 114.509 318.884 102.643 312.406Z" fill="white"/>
<path d="M405.879 91.5293L353.98 158.025L395.062 210.66C398.958 210.851 402.916 210.959 406.918 210.959C451.499 210.959 488.961 197.977 488.961 197.977L405.879 91.5293ZM401.535 218.953L407.088 226.068C409.205 228.782 410.644 231.961 411.286 235.342C411.928 238.723 411.754 242.208 410.779 245.508C409.804 248.809 408.056 251.829 405.679 254.318C403.303 256.807 400.367 258.693 397.115 259.82C397.115 259.82 393.005 261.153 386.641 262.973L431.6 317.963C507.241 314.858 528.424 297.674 528.424 297.674L465.594 220.824C465.594 220.824 432.643 222.808 401.535 218.953ZM502.98 325.195C502.988 325.203 477.414 330.6 443.115 332.047L454.297 345.725C456.099 347.929 457.448 350.467 458.266 353.194C459.085 355.92 459.358 358.781 459.069 361.614C458.78 364.446 457.935 367.193 456.582 369.698C455.229 372.203 453.395 374.416 451.186 376.211C451.186 376.211 446.631 379.665 440.629 382.67C438.03 383.972 434.661 385.416 430.979 386.881L451.188 409.148C533.041 404.383 559.061 386.986 559.061 386.986L502.98 325.195ZM405.418 394.703C401.929 395.57 398.618 396.448 394.635 397.266C393.405 401.632 391.617 407.852 391.617 407.852L405.418 394.703Z" fill="white"/>
</svg>
