<svg width="48" height="48" viewBox="0 0 48 48" fill="none" xmlns="http://www.w3.org/2000/svg">
<path d="M11.8333 44C10.8704 44 10.0741 43.6813 9.44444 43.0438C8.81482 42.4063 8.5 41.6 8.5 40.625C8.5 39.95 8.66667 39.3031 9 38.6844C9.33333 38.0656 9.81482 37.625 10.4444 37.3625L20 33.5375V25.775C17.5556 28.8125 15.0741 31.1 12.5556 32.6375C10.037 34.175 7.18519 34.9437 4 34.9437V31.5687C6.51852 31.5687 8.81481 30.9781 10.8889 29.7969C12.963 28.6156 14.8333 26.9563 16.5 24.8188L19.7222 21.1625C20.0926 20.7125 20.5278 20.3375 21.0278 20.0375C21.5278 19.7375 22.0741 19.5875 22.6667 19.5875H25.3333C25.9259 19.5875 26.4815 19.7375 27 20.0375C27.5185 20.3375 27.963 20.7125 28.3333 21.1625L31.5556 24.8188C33.3333 26.8813 35.2222 28.5219 37.2222 29.7406C39.2222 30.9594 41.4815 31.5687 44 31.5687V34.9437C40.8519 34.9437 38.0093 34.175 35.4722 32.6375C32.9352 31.1 30.4444 28.8125 28 25.775V33.5375L37.5556 37.3625C38.1852 37.625 38.6667 38.0656 39 38.6844C39.3333 39.3031 39.5 39.95 39.5 40.625C39.5 41.6 39.1852 42.4063 38.5556 43.0438C37.9259 43.6813 37.1296 44 36.1667 44H19.3333V43.3812C19.3333 42.4062 19.6296 41.6187 20.2222 41.0187C20.8148 40.4187 21.5926 40.1187 22.5556 40.1187H29.9444C30.2407 40.1187 30.5 40.0062 30.7222 39.7812C30.9444 39.5563 31.0556 39.2937 31.0556 38.9937C31.0556 38.6937 30.9444 38.4312 30.7222 38.2062C30.5 37.9812 30.2407 37.8687 29.9444 37.8687H22.5556C20.9259 37.8687 19.6296 38.375 18.6667 39.3875C17.7037 40.4 17.2222 41.7312 17.2222 43.3812V44H11.8333ZM24 16.2125C22.8889 16.2125 21.9352 15.8094 21.1389 15.0031C20.3426 14.1969 19.9444 13.2312 19.9444 12.1062C19.9444 10.9812 20.3426 10.0156 21.1389 9.20938C21.9352 8.40313 22.8889 8 24 8C25.1111 8 26.0648 8.40313 26.8611 9.20938C27.6574 10.0156 28.0556 10.9812 28.0556 12.1062C28.0556 13.2312 27.6574 14.1969 26.8611 15.0031C26.0648 15.8094 25.1111 16.2125 24 16.2125Z" fill="white"/>
</svg>
