<svg width="580" height="580" viewBox="0 0 580 580" fill="none" xmlns="http://www.w3.org/2000/svg">
<g clip-path="url(#clip0)">
<path d="M66.2751 1.76799C24.9401 1.76799 1.7041 23.139 1.7041 66.804V516.927C1.7041 557.771 22.5991 579.156 63.8961 579.156H515.92C557.227 579.156 578.149 558.841 578.149 516.927V66.804C578.149 24.203 557.227 1.76799 514.628 1.76799C514.624 1.76799 66.1331 1.62499 66.2751 1.76799Z" fill="#111111" stroke="#EEEEEE" stroke-width="3.408"/>
<path d="M212.543 151.47L146.543 496.32" stroke="white" stroke-width="50" stroke-linecap="round" stroke-linejoin="round"/>
<path d="M70.7437 503.92V216.37" stroke="white" stroke-width="35" stroke-linecap="round" stroke-linejoin="round"/>
<path d="M72.9448 259.545H198.344" stroke="white" stroke-width="35" stroke-linecap="round" stroke-linejoin="round"/>
<path d="M373.344 151.47L439.345 496.32" stroke="white" stroke-width="50" stroke-linecap="round" stroke-linejoin="round"/>
<path d="M515.145 503.92V216.37" stroke="white" stroke-width="35" stroke-linecap="round" stroke-linejoin="round"/>
<path d="M512.944 259.545H387.543" stroke="white" stroke-width="35" stroke-linecap="round" stroke-linejoin="round"/>
</g>
<defs>
<clipPath id="clip0">
<path d="M0 0H580V580H0V0Z" fill="white"/>
</clipPath>
</defs>
</svg>
