<svg width="580" height="580" viewBox="0 0 580 580" fill="none" xmlns="http://www.w3.org/2000/svg">
<path d="M539.329 446.37C539.329 455.93 536.642 463.684 533.329 463.684H41.3286C38.0156 463.684 35.3286 455.93 35.3286 446.37C35.3286 436.81 38.0156 429.056 41.3286 429.056H533.329C536.642 429.056 539.329 436.81 539.329 446.37Z" fill="white"/>
<path d="M202.891 397.708L223.279 355.232H92.4551V397.708H202.891Z" fill="white"/>
<path d="M250.542 313.682L223.279 342.988H97.6382L146.058 306.036L250.542 313.682Z" fill="white"/>
<path d="M211.042 397.708L250.542 376.471V324.513L230.155 355.232L211.042 397.708Z" fill="white"/>
<path d="M371.593 397.708L435.303 314.956L296.414 284.375L262.011 355.232L371.593 397.708Z" fill="white"/>
<path d="M309.156 268.523H482.448L435.303 306.036L309.156 268.523Z" fill="white"/>
<path d="M390.705 397.708L482.448 355.232L487.545 274.182L444.222 312.408L390.705 397.708Z" fill="white"/>
<path d="M273.477 306.036V268.158L123.121 228.309L109.104 284.375L273.477 306.036Z" fill="white"/>
<path d="M273.477 376.471L256.912 397.708H316.8L273.477 376.471Z" fill="white"/>
<path d="M458.236 376.471L421.284 397.708H487.545L458.236 376.471Z" fill="white"/>
<path d="M362.67 177.341L309.156 253.793L223.279 228.309L262.011 167.147L362.67 177.341Z" fill="white"/>
<path d="M402.171 148.034L370.316 167.147L273.477 155.68L348.657 140.389L402.171 148.034Z" fill="white"/>
<path d="M402.171 218.116V162.05L374.139 182.438L316.8 253.793L402.171 218.116Z" fill="white"/>
<path d="M369.042 247.422L454.414 253.793L435.303 207.921L421.284 228.309L369.042 247.422Z" fill="white"/>
<path d="M230.792 179.889L205.944 215.567L211.042 237.229L165.119 222.215L163.896 199.002L230.792 179.889Z" fill="white"/>
</svg>
