<?xml version="1.0" encoding="UTF-8" standalone="no"?>
<svg
   xmlns:dc="http://purl.org/dc/elements/1.1/"
   xmlns:cc="http://creativecommons.org/ns#"
   xmlns:rdf="http://www.w3.org/1999/02/22-rdf-syntax-ns#"
   xmlns:svg="http://www.w3.org/2000/svg"
   xmlns="http://www.w3.org/2000/svg"
   xmlns:sodipodi="http://sodipodi.sourceforge.net/DTD/sodipodi-0.dtd"
   xmlns:inkscape="http://www.inkscape.org/namespaces/inkscape"
   width="48"
   height="48"
   viewBox="0 0 48 48"
   version="1.1"
   id="svg6"
   style="fill:none"
   sodipodi:docname="board_type_wildlife.svg"
   inkscape:version="0.92.5 (2060ec1f9f, 2020-04-08)">
  <metadata
     id="metadata11">
    <rdf:RDF>
      <cc:Work
         rdf:about="">
        <dc:format>image/svg+xml</dc:format>
        <dc:type
           rdf:resource="http://purl.org/dc/dcmitype/StillImage" />
      </cc:Work>
    </rdf:RDF>
  </metadata>
  <defs
     id="defs9" />
  <sodipodi:namedview
     pagecolor="#ffffff"
     bordercolor="#666666"
     borderopacity="1"
     objecttolerance="10"
     gridtolerance="10"
     guidetolerance="10"
     inkscape:pageopacity="0"
     inkscape:pageshadow="2"
     inkscape:window-width="1105"
     inkscape:window-height="480"
     id="namedview7"
     showgrid="false"
     inkscape:zoom="4.9166667"
     inkscape:cx="24"
     inkscape:cy="24"
     inkscape:window-x="0"
     inkscape:window-y="0"
     inkscape:window-maximized="0"
     inkscape:current-layer="svg6" />
  <path
     style="color:#000;font-style:normal;font-variant:normal;font-weight:400;font-stretch:normal;font-size:medium;line-height:normal;font-family:sans-serif;font-variant-ligatures:normal;font-variant-position:normal;font-variant-caps:normal;font-variant-numeric:normal;font-variant-alternates:normal;font-feature-settings:normal;text-indent:0;text-align:start;text-decoration:none;text-decoration-line:none;text-decoration-style:solid;text-decoration-color:#000;letter-spacing:normal;word-spacing:normal;text-transform:none;writing-mode:lr-tb;direction:ltr;text-orientation:mixed;dominant-baseline:auto;baseline-shift:baseline;text-anchor:start;white-space:normal;shape-padding:0;clip-rule:nonzero;display:inline;overflow:visible;visibility:visible;opacity:1;isolation:auto;mix-blend-mode:normal;color-interpolation:sRGB;color-interpolation-filters:linearRGB;solid-color:#000;solid-opacity:1;vector-effect:none;fill:#ffffff;fill-opacity:1;fill-rule:evenodd;stroke:none;stroke-width:1;stroke-linecap:butt;stroke-linejoin:miter;stroke-miterlimit:4;stroke-dasharray:none;stroke-dashoffset:0;stroke-opacity:1;color-rendering:auto;image-rendering:auto;shape-rendering:auto;text-rendering:auto;enable-background:accumulate;font-variant-east_asian:normal"
     d="M37.97 36.02A2 2 0 0 0 36 38.05V42a2 2 0 1 0 4 0v-3.95a2 2 0 0 0-2.03-2.03z"
     id="path824-3" />
  <path
     style="color:#000;font-style:normal;font-variant:normal;font-weight:400;font-stretch:normal;font-size:medium;line-height:normal;font-family:sans-serif;font-variant-ligatures:normal;font-variant-position:normal;font-variant-caps:normal;font-variant-numeric:normal;font-variant-alternates:normal;font-feature-settings:normal;text-indent:0;text-align:start;text-decoration:none;text-decoration-line:none;text-decoration-style:solid;text-decoration-color:#000;letter-spacing:normal;word-spacing:normal;text-transform:none;writing-mode:lr-tb;direction:ltr;text-orientation:mixed;dominant-baseline:auto;baseline-shift:baseline;text-anchor:start;white-space:normal;shape-padding:0;clip-rule:nonzero;display:inline;overflow:visible;visibility:visible;opacity:1;isolation:auto;mix-blend-mode:normal;color-interpolation:sRGB;color-interpolation-filters:linearRGB;solid-color:#000;solid-opacity:1;vector-effect:none;fill:#ffffff;fill-opacity:1;fill-rule:evenodd;stroke:none;stroke-width:1;stroke-linecap:butt;stroke-linejoin:miter;stroke-miterlimit:4;stroke-dasharray:none;stroke-dashoffset:0;stroke-opacity:1;color-rendering:auto;image-rendering:auto;shape-rendering:auto;text-rendering:auto;enable-background:accumulate;font-variant-east_asian:normal"
     d="M9.97 36A2 2 0 0 0 8 38.03v3.94a2 2 0 1 0 4 0v-3.94A2 2 0 0 0 9.97 36z"
     id="path824" />
  <path
     style="color:#000;font-style:normal;font-variant:normal;font-weight:400;font-stretch:normal;font-size:medium;line-height:normal;font-family:sans-serif;font-variant-ligatures:normal;font-variant-position:normal;font-variant-caps:normal;font-variant-numeric:normal;font-variant-alternates:normal;font-feature-settings:normal;text-indent:0;text-align:start;text-decoration:none;text-decoration-line:none;text-decoration-style:solid;text-decoration-color:#000;letter-spacing:normal;word-spacing:normal;text-transform:none;writing-mode:lr-tb;direction:ltr;text-orientation:mixed;dominant-baseline:auto;baseline-shift:baseline;text-anchor:start;white-space:normal;shape-padding:0;clip-rule:nonzero;display:inline;overflow:visible;visibility:visible;opacity:1;isolation:auto;mix-blend-mode:normal;color-interpolation:sRGB;color-interpolation-filters:linearRGB;solid-color:#000;solid-opacity:1;vector-effect:none;fill:#ffffff;fill-opacity:1;fill-rule:nonzero;stroke:none;stroke-width:1;stroke-linecap:butt;stroke-linejoin:miter;stroke-miterlimit:4;stroke-dasharray:none;stroke-dashoffset:0;stroke-opacity:1;marker:none;paint-order:normal;color-rendering:auto;image-rendering:auto;shape-rendering:auto;text-rendering:auto;enable-background:accumulate;font-variant-east_asian:normal"
     d="M6 4a2 2 0 0 0-2 2v32a2 2 0 0 0 2 2h36a2 2 0 0 0 2-2V6a2 2 0 0 0-2-2zm2 4h32v28H8z"
     id="rect826" />
  <path
     style="fill:#ffffff;fill-opacity:1;stroke-width:1;font-variant-east_asian:normal;opacity:1;vector-effect:none;stroke-linecap:butt;stroke-linejoin:miter;stroke-miterlimit:4;stroke-dasharray:none;stroke-dashoffset:0;stroke-opacity:1"
     d="M13 10h-.1l-.12.03c-.22.05-.43.17-.57.34a.88.88 0 0 0-.21.58c0 1.97 1.42 3.79 3.56 5.13 1.17.74 2.6 1.34 4.19 1.73-.47.33-.89.73-1.25 1.15a3.27 3.27 0 0 0-2.47-1.5c-1.68-.22-3.37.22-3.44.24a.81.81 0 0 0-.5.43c-.1.2-.12.43-.03.63.2.45 1.3 2.7 2.97 3.17a5.05 5.05 0 0 0 2.03.12c-.04.29-.06.58-.06.89C17 26.63 21.18 34 24 34c2.82 0 7-7.37 7-11.06 0-.3-.02-.6-.06-.9a6.02 6.02 0 0 0 2.03-.11c1.66-.46 2.77-2.72 2.97-3.17a.73.73 0 0 0-.03-.63.81.81 0 0 0-.5-.43 9.86 9.86 0 0 0-3.44-.23 3.27 3.27 0 0 0-2.47 1.5 7 7 0 0 0-1.25-1.16c1.58-.4 2.98-1 4.16-1.73 2.14-1.34 3.59-3.16 3.59-5.13a.86.86 0 0 0-.07-.35.92.92 0 0 0-.22-.3 1 1 0 0 0-.71-.28 1.07 1.07 0 0 0-.71.27.92.92 0 0 0-.22.3.86.86 0 0 0-.07.36c0 1.09-.94 2.49-2.72 3.6-.55.35-1.19.65-1.87.93A7.6 7.6 0 0 0 31 10.95a.86.86 0 0 0-.07-.35.92.92 0 0 0-.22-.3 1 1 0 0 0-.71-.28 1.08 1.08 0 0 0-.71.27.92.92 0 0 0-.22.3.86.86 0 0 0-.07.36c0 1.29-.57 2.74-1.5 3.8A4.64 4.64 0 0 1 24 16.5a4.64 4.64 0 0 1-3.5-1.73 6.09 6.09 0 0 1-1.5-3.8.86.86 0 0 0-.09-.41.94.94 0 0 0-.28-.33 1.08 1.08 0 0 0-.85-.19c-.22.05-.43.17-.57.34a.88.88 0 0 0-.21.58c0 1.6.6 3.22 1.63 4.56a11.4 11.4 0 0 1-1.94-.95C14.9 13.44 14 12.04 14 10.96a.86.86 0 0 0-.06-.37.92.92 0 0 0-.22-.3A1.07 1.07 0 0 0 13 10zm7.5 12.94c.83 0 1.5.62 1.5 1.38 0 .76-.67 1.38-1.5 1.38s-1.5-.62-1.5-1.38c0-.76.67-1.38 1.5-1.38zm7 0c.83 0 1.5.62 1.5 1.38 0 .76-.67 1.38-1.5 1.38s-1.5-.62-1.5-1.38c0-.76.67-1.38 1.5-1.38zM24 29.39c.83 0 1.5.12 1.5.7 0 .56-.67 1.38-1.5 1.38s-1.5-.82-1.5-1.39.67-.69 1.5-.69z"
     id="path2" />
</svg>
