<svg width="580" height="580" viewBox="0 0 580 580" fill="none" xmlns="http://www.w3.org/2000/svg">
<g clip-path="url(#clip0)">
<path d="M66.2751 1.76799C24.9401 1.76799 1.7041 23.139 1.7041 66.804V516.927C1.7041 557.771 22.5981 579.156 63.8961 579.156H515.92C557.227 579.156 578.149 558.84 578.149 516.927V66.804C578.149 24.203 557.227 1.76799 514.627 1.76799C514.624 1.76799 66.1331 1.62499 66.2751 1.76799Z" fill="#111111" stroke="#EEEEEE" stroke-width="3.408"/>
<path d="M447.153 161.359L498.15 114.475L447.153 67.592H302.696V50.7785C302.696 50.7785 297.403 41.6224 283.165 40.8563C268.928 40.0901 263.368 51.6821 263.368 51.6821V67.592H192.162V161.359H263.368V219.272H132.847L81.8499 266.155L132.847 313.039H263.368V529.528C263.368 534.859 270.278 539.18 283.358 539.18C296.439 539.18 302.696 532.193 302.696 529.528V313.039H387.838V219.272H302.696V161.359H447.153Z" fill="white"/>
</g>
<defs>
<clipPath id="clip0">
<path d="M0 0H580V580H0V0Z" fill="white"/>
</clipPath>
</defs>
</svg>
