<svg width="12" height="12" viewBox="0 0 12 12" fill="none" xmlns="http://www.w3.org/2000/svg">
<path opacity="0.7" d="M11 6C11 6.55228 10.5523 7 10 7H2C1.44772 7 1 6.55228 1 6V6V6C1 5.44772 1.44772 5 2 5H10C10.5523 5 11 5.44772 11 6V6V6Z" fill="white"/>
<path d="M1.72261 3.42191C2.06401 3.1488 2.48819 3 2.92539 3H9.07461C9.51181 3 9.93599 3.1488 10.2774 3.42191V3.42191C10.7341 3.7873 11 4.34049 11 4.92539V5H1V4.92539C1 4.34049 1.26588 3.7873 1.72261 3.42191V3.42191Z" fill="white"/>
<path d="M10.2774 8.57809C9.93599 8.8512 9.51181 9 9.07461 9H2.92539C2.48819 9 2.06401 8.8512 1.72261 8.57809V8.57809C1.26588 8.2127 1 7.65951 1 7.07461V7H11V7.07461C11 7.65951 10.7341 8.2127 10.2774 8.57809V8.57809Z" fill="white"/>
</svg>
