<svg width="580" height="580" viewBox="0 0 580 580" fill="none" xmlns="http://www.w3.org/2000/svg">
<g clip-path="url(#clip0)">
<path d="M66.2751 1.76815C24.9401 1.76815 1.7041 23.1391 1.7041 66.8041V516.927C1.7041 557.771 22.5991 579.156 63.8961 579.156H515.92C557.227 579.156 578.149 558.841 578.149 516.927V66.8041C578.149 24.2031 557.227 1.76815 514.628 1.76815C514.624 1.76815 66.1331 1.62515 66.2751 1.76815Z" fill="#111111" stroke="#EEEEEE" stroke-width="3.408"/>
<path d="M224.653 174.216L91.4082 539.01L397.343 308.597L224.653 174.216Z" stroke="white" stroke-width="27.9884" stroke-linejoin="round"/>
<path opacity="0.25" d="M391.243 128.08C395.369 171.953 363.148 210.863 319.276 214.989C275.404 219.115 236.493 186.895 232.367 143.022C228.241 99.15 260.462 60.2396 304.334 56.1135C348.206 51.9873 387.117 84.208 391.243 128.08Z" fill="white" stroke="white" stroke-width="35" stroke-linejoin="round"/>
<path d="M498.357 207.477C502.483 251.35 470.263 290.26 426.391 294.386C382.518 298.512 343.608 266.292 339.482 222.419C335.356 178.547 367.576 139.637 411.449 135.51C455.321 131.384 494.231 163.605 498.357 207.477Z" fill="white" stroke="white" stroke-width="35" stroke-linejoin="round"/>
<path d="M403.926 126.887C408.711 177.764 371.346 222.887 320.469 227.672C269.592 232.457 224.469 195.092 219.684 144.215C214.899 93.3378 252.264 48.2148 303.141 43.4299C354.018 38.645 399.141 76.0101 403.926 126.887Z" stroke="white" stroke-width="11.5966" stroke-linejoin="round"/>
<path opacity="0.01" d="M224.653 174.216L91.4082 539.01L397.343 308.597L224.653 174.216Z" fill="white" stroke="white" stroke-width="27.9884" stroke-linejoin="round"/>
</g>
<defs>
<clipPath id="clip0">
<path d="M0 0H580V580H0V0Z" fill="white"/>
</clipPath>
</defs>
</svg>
