<svg width="580" height="580" viewBox="0 0 580 580" fill="none" xmlns="http://www.w3.org/2000/svg">
<g clip-path="url(#clip0)">
<path d="M66.8659 1.28133C25.5309 1.28133 2.29492 22.6523 2.29492 66.3173V516.44C2.29492 557.284 23.1899 578.669 64.4869 578.669H516.511C557.818 578.669 578.74 558.354 578.74 516.44V66.3173C578.74 23.7163 557.818 1.28133 515.219 1.28133C515.215 1.28133 66.7239 1.13833 66.8659 1.28133V1.28133Z" fill="#111111" stroke="#EEEEEE" stroke-width="3.408"/>
<path d="M428.443 447.212H106.473V484.113H428.443V447.212Z" fill="white"/>
<path d="M151.009 94.9863H106.723V538.227H151.009V94.9863Z" fill="white"/>
<path d="M428.437 93.5723H384.152V534.727H428.437V93.5723Z" fill="white"/>
<path d="M123.904 187.853H174.393L190.393 222.698H123.904V187.853Z" fill="white"/>
<path d="M198.964 172.984L224.747 230.195" stroke="white" stroke-width="25.6462" stroke-linecap="round" stroke-linejoin="round"/>
<path d="M242.964 172.984L268.747 230.195" stroke="white" stroke-width="25.6462" stroke-linecap="round" stroke-linejoin="round"/>
<path d="M288.964 172.984L314.747 230.195" stroke="white" stroke-width="25.6462" stroke-linecap="round" stroke-linejoin="round"/>
<path d="M396.914 187.853H328.425L344.425 222.698H396.914V187.853Z" fill="white"/>
<path d="M269.896 233.814L270.222 274.575" stroke="white" stroke-width="25.6462" stroke-linecap="round" stroke-linejoin="round"/>
<path d="M323.1 315.901C307.564 260.921 230.945 263.119 217.696 316.165" stroke="white" stroke-width="13.646" stroke-linecap="round" stroke-linejoin="round"/>
<path d="M210.497 315.08H329.649L312.198 412.878L228.149 412.777L210.497 315.08Z" fill="white"/>
<path d="M405.082 207.05L477.666 207.351L478.651 350.878L535.864 350.761" stroke="white" stroke-width="30.546" stroke-linecap="round" stroke-linejoin="round"/>
<path d="M152.748 32.3373L411.761 31.4019C411.761 31.4019 484.731 95.8177 528.514 131.696H27.8627C74.8249 95.0915 152.748 32.3373 152.748 32.3373Z" fill="white"/>
<path d="M465.97 503.212H71.1178V540.113H465.97V503.212Z" fill="white"/>
</g>
<defs>
<clipPath id="clip0">
<path d="M0 0H580V580H0V0Z" fill="white"/>
</clipPath>
</defs>
</svg>
