<?xml version="1.0" encoding="UTF-8" standalone="no"?>
<svg
   xmlns:dc="http://purl.org/dc/elements/1.1/"
   xmlns:cc="http://creativecommons.org/ns#"
   xmlns:rdf="http://www.w3.org/1999/02/22-rdf-syntax-ns#"
   xmlns:svg="http://www.w3.org/2000/svg"
   xmlns="http://www.w3.org/2000/svg"
   xmlns:sodipodi="http://sodipodi.sourceforge.net/DTD/sodipodi-0.dtd"
   xmlns:inkscape="http://www.inkscape.org/namespaces/inkscape"
   width="32"
   height="32"
   fill="none"
   version="1.1"
   viewBox="0 0 32 32"
   id="svg18"
   sodipodi:docname="h_j14_sand_waves_night.svg"
   inkscape:version="0.92.5 (2060ec1f9f, 2020-04-08)">
  <defs
     id="defs22" />
  <sodipodi:namedview
     pagecolor="#ffffff"
     bordercolor="#666666"
     borderopacity="1"
     objecttolerance="10"
     gridtolerance="10"
     guidetolerance="10"
     inkscape:pageopacity="0"
     inkscape:pageshadow="2"
     inkscape:window-width="1920"
     inkscape:window-height="1014"
     id="namedview20"
     showgrid="false"
     inkscape:zoom="7.375"
     inkscape:cx="0.6779661"
     inkscape:cy="16"
     inkscape:window-x="1920"
     inkscape:window-y="0"
     inkscape:window-maximized="1"
     inkscape:current-layer="svg18" />
  <title
     id="title2">SEAGRA18</title>
  <desc
     id="desc4">seagrass</desc>
  <metadata
     id="metadata6">
    <!-- Created for Openseamap, CC BY-SA 2.0, 2021-10-13, josail, seagrass simplified SVG based on IHO NCWG2-08.9A J13.4, https://legacy.iho.int/mtg_docs/com_wg/NCWG/NCWG2/NCWG2-08.9A%20seagrass.pdf -->
    <rdf:RDF>
      <cc:Work
         rdf:about="">
        <dc:title>SEAGRA18</dc:title>
        <dc:format>image/svg+xml</dc:format>
        <dc:type
           rdf:resource="http://purl.org/dc/dcmitype/StillImage" />
      </cc:Work>
    </rdf:RDF>
  </metadata>
  <g
     fill="none"
     stroke="#000"
     stroke-width=".855"
     id="g16"
     style="stroke:#626262;stroke-opacity:1">
    <path
       d="m0.973 5.15c1.25-1.49 2.5-2.98 3.13-3.23 0.627-0.248 0.627 0.741 0.627 1.74s0 1.99 0.748 1.49c0.748-0.494 2.25-2.48 3.01-2.98 0.748-0.494 0.748 0.494 0.748 1.49 0 0.99 0 1.99 0.748 1.49 0.748-0.494 2.25-2.48 3.01-2.98 0.748-0.494 0.748 0.494 0.748 1.49s0 1.99 0.603 1.79c0.603-0.198 1.8-1.59 3.01-2.98"
       id="path8"
       style="stroke:#626262;stroke-opacity:1" />
    <path
       d="m14.7 13.4c1.25-1.49 2.5-2.98 3.13-3.23 0.627-0.248 0.627 0.741 0.627 1.74 0 0.99 0 1.99 0.748 1.49 0.748-0.494 2.25-2.48 3.01-2.98 0.748-0.494 0.748 0.494 0.748 1.49s0 1.99 0.748 1.49c0.748-0.494 2.25-2.48 3.01-2.98 0.748-0.494 0.748 0.494 0.748 1.49 0 0.99 0 1.99 0.603 1.79s1.8-1.59 3.01-2.98"
       id="path10"
       style="stroke:#626262;stroke-opacity:1" />
    <path
       d="m0.973 21.6c1.25-1.49 2.5-2.98 3.13-3.23 0.627-0.248 0.627 0.741 0.627 1.74s0 1.99 0.748 1.49c0.748-0.494 2.25-2.48 3.01-2.98 0.748-0.494 0.748 0.494 0.748 1.49 0 0.99 0 1.99 0.748 1.49 0.748-0.494 2.25-2.48 3.01-2.98 0.748-0.494 0.748 0.494 0.748 1.49s0 1.99 0.603 1.79c0.603-0.198 1.8-1.59 3.01-2.98"
       id="path12"
       style="stroke:#626262;stroke-opacity:1" />
    <path
       d="m14.7 29.9c1.25-1.49 2.5-2.98 3.13-3.23 0.627-0.248 0.627 0.741 0.627 1.74 0 0.99 0 1.99 0.748 1.49 0.748-0.494 2.25-2.48 3.01-2.98 0.748-0.494 0.748 0.494 0.748 1.49s0 1.99 0.748 1.49c0.748-0.494 2.25-2.48 3.01-2.98 0.748-0.494 0.748 0.494 0.748 1.49 0 0.99 0 1.99 0.603 1.79s1.8-1.59 3.01-2.98"
       id="path14"
       style="stroke:#626262;stroke-opacity:1" />
  </g>
</svg>
